<svg width="106" height="92" viewBox="0 0 106 92" fill="none" xmlns="http://www.w3.org/2000/svg">
<path d="M2.62984 73.4383C2.62984 73.4383 3.47913 66.1017 8.73861 64.5566C13.9981 63.0115 31.6184 62.0803 44.6034 48.7883C57.5883 35.4862 56.3502 33.3271 57.8953 28.9988C59.4404 24.6705 59.7372 9.16828 59.7474 6.73296C59.7576 4.29763 60.6785 1.1665 64.0757 1.1665C67.4729 1.1665 102.58 1.47348 102.58 1.47348C102.58 1.47348 100.647 41.0321 101.567 47.5298C102.499 54.0274 106.326 67.524 103.532 72.7834C100.749 78.0429 71.2589 80.6624 71.2589 80.6624L43.9894 84.9089L21.5701 83.7015L4.76842 78.0941L2.60938 73.4588L2.62984 73.4383Z" fill="#232323"/>
<path d="M103.563 72.7732C106.346 67.5137 102.519 54.0171 101.598 47.5195C100.667 41.0219 102.611 1.46323 102.611 1.46323C102.611 1.46323 100.708 1.44277 97.7611 1.4223C96.6355 12.1357 93.6886 42.2396 95.3462 48.5325C97.1062 55.2041 99.7666 67.0635 96.7276 76.416C100.196 75.3927 102.836 74.175 103.583 72.7732H103.563Z" fill="#444444"/>
<path d="M70.2766 72.3639C65.0274 59.8394 37.5532 65.0886 37.5532 65.0886L34.6575 56.4013C23.852 62.5407 12.7293 63.3696 8.73866 64.5463C3.47918 66.0914 2.62988 73.4281 2.62988 73.4281L4.78893 78.0634L21.5906 83.6708L44.0099 84.8782L71.2794 80.6317C71.2794 80.6317 71.832 80.5806 72.7836 80.4885C72.1799 77.7564 71.3715 74.9834 70.2664 72.3537L70.2766 72.3639Z" fill="#444444"/>
<path d="M46.5173 55.2553C47.3154 56.0227 47.3359 57.2915 46.5685 58.0897C45.801 58.8878 44.5322 58.9083 43.7341 58.1408C42.9359 57.3734 42.9155 56.1046 43.6829 55.3064C44.4503 54.5083 45.7192 54.4878 46.5173 55.2553Z" fill="black"/>
<path d="M50.8562 50.753C51.6543 51.5204 51.6748 52.7892 50.9073 53.5874C50.1399 54.3855 48.8711 54.406 48.0729 53.6385C47.2748 52.8711 47.2543 51.6023 48.0218 50.8041C48.7892 50.006 50.058 49.9855 50.8562 50.753Z" fill="black"/>
<path d="M55.1843 46.2609C55.9824 47.0283 56.0131 48.2972 55.2355 49.0953C54.468 49.8934 53.1992 49.9139 52.4011 49.1465C51.6029 48.379 51.5825 47.1102 52.3499 46.3121C53.1173 45.5139 54.3862 45.4935 55.1843 46.2609Z" fill="black"/>
<path d="M59.5124 41.7587C60.3105 42.5261 60.331 43.7949 59.5636 44.593C58.7961 45.3912 57.5273 45.4116 56.7292 44.6442C55.9311 43.8768 55.9106 42.6079 56.678 41.8098C57.4455 41.0117 58.7143 40.9912 59.5124 41.7587Z" fill="black"/>
<path d="M63.8513 37.2564C64.6494 38.0238 64.6699 39.2926 63.9024 40.0908C63.135 40.8889 61.8662 40.9094 61.0681 40.1419C60.2699 39.3745 60.2495 38.1057 61.0169 37.3075C61.7843 36.5094 63.0532 36.4889 63.8513 37.2564Z" fill="black"/>
<path d="M66.194 18.6128C67.2991 18.6128 68.1996 19.5133 68.1996 20.6184C68.1996 21.7235 67.2991 22.6239 66.194 22.6239C65.0889 22.6239 64.1885 21.7235 64.1885 20.6184C64.1885 19.5133 65.0889 18.6128 66.194 18.6128Z" fill="black"/>
<path d="M66.194 12.371C67.2991 12.371 68.1996 13.2715 68.1996 14.3766C68.1996 15.4817 67.2991 16.3822 66.194 16.3822C65.0889 16.3822 64.1885 15.4817 64.1885 14.3766C64.1885 13.2715 65.0889 12.371 66.194 12.371Z" fill="black"/>
<path d="M66.194 6.11902C67.2991 6.11902 68.1996 7.01947 68.1996 8.12458C68.1996 9.22968 67.2991 10.1301 66.194 10.1301C65.0889 10.1301 64.1885 9.22968 64.1885 8.12458C64.1885 7.01947 65.0889 6.11902 66.194 6.11902Z" fill="black"/>
<path d="M103.87 0.266044H102.611C102.355 0.255811 83.3535 0.0920921 72.0466 0C71.7499 5.70971 72.3843 18.2342 83.6093 18.2342H103.102C103.44 9.25014 103.808 1.69859 103.808 1.52464L103.87 0.266044Z" fill="black"/>
<path d="M65.8669 7.05017H58.5507C58.5507 7.59249 58.5302 8.32923 58.5098 9.20922H65.8669C66.4604 9.20922 66.9413 8.72829 66.9413 8.13481C66.9413 7.54133 66.4604 7.0604 65.8669 7.0604V7.05017Z" fill="black"/>
<path d="M65.8664 13.292H58.3763C58.3456 13.9878 58.3149 14.7143 58.2842 15.451H65.8664C66.4599 15.451 66.9408 14.9701 66.9408 14.3664C66.9408 13.7627 66.4599 13.292 65.8664 13.292Z" fill="black"/>
<path d="M65.867 19.544H58.0392C57.988 20.2807 57.9266 20.997 57.8652 21.703H65.867C66.4605 21.703 66.9414 21.2221 66.9414 20.6286C66.9414 20.0351 66.4605 19.5542 65.867 19.5542V19.544Z" fill="black"/>
<path d="M55.2764 33.2862L61.4772 39.2619C61.907 39.6712 62.5823 39.661 63.0019 39.2312C63.4112 38.8015 63.4009 38.1159 62.9712 37.7066L56.0336 31.0248C55.8392 31.7309 55.6243 32.4574 55.2764 33.2862Z" fill="black"/>
<path d="M51.9404 38.7401L57.1487 43.754C57.5785 44.1633 58.2539 44.1531 58.6734 43.7233C59.0827 43.2935 59.0724 42.6182 58.6427 42.1987L53.2195 36.9801C52.8511 37.5224 52.4214 38.1057 51.9404 38.7401Z" fill="black"/>
<path d="M52.81 48.246C53.2398 48.6553 53.9151 48.6451 54.3346 48.2153C54.7542 47.7856 54.7337 47.1 54.304 46.6907L49.331 41.9019C48.891 42.4135 48.4101 42.9456 47.8984 43.5186L52.81 48.246Z" fill="black"/>
<path d="M48.4712 52.7483C48.901 53.1576 49.5866 53.1474 49.9959 52.7176C50.4052 52.2878 50.3949 51.6023 49.9652 51.193L45.1048 46.5167C44.6648 46.9772 44.2145 47.4479 43.7336 47.9288C43.6927 47.9697 43.6415 48.0107 43.6006 48.0618L48.461 52.7483H48.4712Z" fill="black"/>
<path d="M38.894 52.1855L44.1433 57.2403C44.573 57.6496 45.2484 57.6394 45.6679 57.2096C46.0772 56.7799 46.067 56.0943 45.6372 55.685L40.5926 50.8246C40.0298 51.2953 39.4568 51.7455 38.8838 52.1753L38.894 52.1855Z" fill="black"/>
<g style="mix-blend-mode:multiply">
<path d="M103.563 72.7732C104.514 70.9723 104.699 68.1993 104.473 65.0682C100.667 67.0635 95.2745 68.8235 88.7155 68.9872C76.897 69.2942 77.8077 71.1053 44.9308 75.1983C20.1888 78.2783 8.84098 71.3202 4.72754 67.6877C2.99825 70.297 2.62988 73.4383 2.62988 73.4383L4.78893 78.0736L21.5906 83.681L44.0099 84.8884L71.2794 80.642C71.2794 80.642 100.769 78.0225 103.553 72.763L103.563 72.7732Z" fill="#C9C9C9"/>
</g>
<path d="M105.681 73.0188C105.681 73.0188 105.681 72.0058 103.665 71.8113C102.652 72.6197 97.6589 75.4439 89.166 76.2522C80.6833 77.0606 69.3764 77.8178 59.6761 79.6392C49.9757 81.4605 38.2595 83.374 23.7192 81.5629C9.1789 79.7415 2.50734 73.2337 2.50734 73.2337L0.18457 78.841C0.18457 78.841 1.43293 81.0308 6.18079 84.0596L7.13241 82.9852L8.97425 84.254L8.38077 85.3796C9.08681 85.7786 9.84401 86.1777 10.6626 86.587L11.5324 85.2159L13.5482 86.1777L13.0263 87.7228C13.19 87.7944 13.3435 87.8661 13.5072 87.9377C14.1007 88.2037 14.7249 88.4391 15.3798 88.6642L16.2598 86.6791L18.3983 87.334L18.0095 89.4623C18.7565 89.6567 19.5341 89.8307 20.322 89.9944L21.0076 87.9479L23.1974 88.3981L23.0234 90.4753C23.8215 90.5981 24.6299 90.7107 25.4485 90.813L26.0215 88.613L28.2317 88.9098L28.201 91.0995C29.0503 91.1711 29.8996 91.2428 30.7387 91.2939L31.107 89.1963L33.3377 89.3088L33.481 91.4372C34.2893 91.4679 35.0875 91.4986 35.8651 91.5191L36.2233 89.2065L38.4642 89.2781L38.6586 91.5497C39.4977 91.5497 40.306 91.5497 41.0428 91.5497L41.3293 89.3395L43.5599 89.36L43.7953 91.4884C45.5553 91.4372 46.6194 91.3656 46.6194 91.3656L47.6325 88.5414L69.6527 85.9117C69.6527 85.9117 69.6527 89.9535 70.6657 91.9693C71.4127 91.9795 72.1392 91.9897 72.8657 92L73.1317 89.7488H75.3624L75.6387 92C76.4163 92 77.1735 91.9897 77.9103 91.9693L78.1661 89.7488H80.407L80.673 91.8874C81.4405 91.8567 82.1772 91.826 82.8935 91.7851L82.9856 89.6363L85.2163 89.4623L85.646 91.6009C86.3828 91.5395 87.0888 91.4781 87.7641 91.4065L87.7437 89.2986L89.9641 89.0121L90.4962 91.0893C91.2943 90.987 92.0618 90.8744 92.7883 90.7516L92.512 88.5516L94.6813 88.0093L95.5306 90.2298C96.2468 90.0763 96.9222 89.9126 97.5464 89.7488L97.0347 87.3749L99.1529 86.6484L100.258 88.9405C101.097 88.6437 101.813 88.3572 102.417 88.0707L101.547 85.9935L103.491 84.8884L104.811 86.6791C105.579 86.0958 105.804 85.707 105.804 85.707L105.65 73.029L105.681 73.0188Z" fill="#232323"/>
<path d="M85.0222 79.0355C91.3766 78.5648 100.934 76.5592 105.589 72.7323C105.426 72.4151 104.965 71.9444 103.656 71.8113C102.643 72.6197 97.6491 75.4439 89.1561 76.2522C80.6734 77.0606 69.3666 77.8178 59.6662 79.6392C49.9658 81.4606 38.2497 83.374 23.7094 81.5629C9.16904 79.7415 2.49748 73.2337 2.49748 73.2337L1.76074 75.0141C3.52072 76.815 7.47045 79.8541 15.5336 81.8699C26.8507 84.694 36.9501 85.9117 47.4486 83.8856C57.9574 81.8699 76.7339 79.6392 85.0222 79.0355Z" fill="#5E5E5E"/>
<path d="M88.8593 50.6507C88.8593 56.0636 84.4696 60.4431 79.0566 60.4431C73.6436 60.4431 69.2539 56.0534 69.2539 50.6507C69.2539 45.2479 73.6436 40.848 79.0566 40.848C84.4696 40.848 88.8593 45.2377 88.8593 50.6507Z" fill="black"/>
<path d="M86.8434 50.6507C86.8434 54.9483 83.3643 58.4273 79.0667 58.4273C74.7691 58.4273 71.29 54.9483 71.29 50.6507C71.29 46.353 74.7691 42.874 79.0667 42.874C83.3643 42.874 86.8434 46.353 86.8434 50.6507Z" fill="#232323"/>
</svg>
