<svg width="65" height="92" viewBox="0 0 65 92" fill="none" xmlns="http://www.w3.org/2000/svg">
<g clip-path="url(#clip0_156_71159)">
<path d="M62.9187 27.631L62.4851 29.4483C62.072 31.2862 61.4732 33.0829 60.6678 34.7762C59.8831 36.5729 58.9951 38.2869 58.169 40.0422C57.343 41.7976 56.0626 44.4409 55.0507 46.6505C54.5758 47.6211 54.2247 48.6537 53.8323 49.6656C53.44 50.6775 53.0063 51.8133 52.552 52.8458C51.6227 55.1794 50.6934 57.4923 49.6608 59.7845C48.4011 62.6137 46.6871 65.1125 44.147 67.0124C43.7134 67.3015 43.259 67.5493 42.7841 67.7558C42.2471 67.983 41.6896 68.1895 41.132 68.3547C40.7603 68.4992 40.3886 68.5818 39.9962 68.6025H37.3116C36.5268 68.5612 35.8453 68.2101 35.1226 67.8797C34.3998 67.5493 32.7683 66.6613 31.8597 65.6701C30.2696 63.956 29.3609 61.7464 29.2783 59.4128C29.1957 57.5749 29.4229 55.7163 29.9185 53.9403C30.2489 52.8458 30.662 51.772 31.1369 50.7188C31.963 48.6743 32.8923 46.7125 33.7183 44.668C34.1107 43.6974 34.3585 42.7062 34.7508 41.7356C35.2465 40.3933 35.6182 38.989 35.866 37.5848C36.1551 36.3664 36.341 35.1066 36.5062 33.9089C36.6714 32.7111 36.8366 30.8732 37.0018 29.3244C37.1877 27.7962 37.2909 26.3506 37.4768 24.8844C37.6626 23.4182 37.8072 22.8193 37.9517 21.7661C38.0963 20.7336 38.1996 19.9075 38.3028 18.9783C38.3028 18.8337 38.3028 18.6891 38.3441 18.5446C38.6745 16.0252 39.1701 13.5471 39.8516 11.1102C40.8842 7.53763 42.908 4.33673 45.7165 1.87926C46.7903 0.888018 48.1533 0.289141 49.6195 0.123933C50.714 -0.0206235 51.8498 -0.0206235 52.9443 0.0826313C55.0507 0.392396 56.7648 1.28039 58.3755 2.56075C60.1722 3.94436 61.6384 5.74099 62.6296 7.78544C63.1459 8.69408 63.5383 9.64402 63.848 10.6559C64.0752 11.5026 64.2611 12.3699 64.385 13.2373C64.8186 16.0871 64.736 18.9989 64.1371 21.8281C63.7035 23.7693 63.3524 25.7311 63.0013 27.693L62.9187 27.631Z" fill="#F3B089"/>
<path d="M27.3581 45.3082C27.2962 45.8451 27.1723 46.3821 27.1103 46.9603C27.0484 47.5385 27.069 47.2081 27.0484 47.3527L26.181 50.0373C25.9332 50.9046 25.6854 51.71 25.355 52.5361C24.9007 53.7338 24.5702 54.9935 24.3431 56.2532C23.8888 58.1944 23.7236 60.1769 23.8681 62.1594C24.0127 63.7702 24.1985 65.4223 24.3018 67.033C24.4463 69.5111 24.5909 71.9686 24.6942 74.4467C24.7561 75.9749 24.7974 77.5237 24.7561 79.0312C24.7355 80.4561 24.5909 81.8811 24.3224 83.2853C24.3224 83.4299 24.2811 83.5744 24.2811 83.719C24.2192 84.9994 23.6823 86.1145 23.0008 87.1884C22.1954 88.4894 21.1009 89.6045 19.8205 90.4512L18.788 91.174C18.1891 91.6077 17.487 91.8761 16.7435 91.9174C15.649 92.0826 14.5339 92.0413 13.46 91.7729C11.3949 91.2359 9.53635 90.0382 8.19404 88.3655C7.22345 87.1264 6.45936 85.7428 5.94309 84.2559C5.38551 82.7277 4.99314 81.117 4.80729 79.5062C4.37362 76.326 4.1258 73.1457 3.91929 69.9655C3.81604 68.2101 3.71279 66.4961 3.56823 64.7408C3.32042 61.9529 2.84545 59.165 2.34982 56.3771C1.8542 53.5893 1.46183 51.7307 1.02816 49.3971C0.57384 47.0636 0.34668 44.7506 0.34668 42.4171C0.387982 39.7944 0.821652 37.213 1.62704 34.7349C2.53568 31.8851 4.02255 29.2418 5.98439 26.9702C7.22345 25.4627 8.87552 24.3269 10.7341 23.7073L14.0589 22.7367C15.7936 22.3237 17.6109 22.4063 19.3249 22.9432C21.6791 23.7693 23.8268 24.9464 25.5202 26.8463C26.8419 28.3538 27.7298 30.1711 28.1016 32.1329C28.4939 34.1567 28.5765 36.2012 28.3494 38.2456C28.2461 39.7738 28.0603 41.3226 27.8744 42.8301C27.7711 43.6561 27.544 44.4822 27.3581 45.3082Z" fill="#F3B089"/>
<path d="M10.0732 45.3082L12.4687 47.4972C13.9349 48.7156 15.3598 49.996 16.8673 51.1525C18.3748 52.3089 20.4812 53.8784 22.3398 55.2C22.9387 55.675 23.6202 56.088 24.281 56.5217C24.3223 56.4598 24.3223 56.3358 24.343 56.2739C24.3636 56.0261 24.4256 55.7989 24.4875 55.5511L19.965 52.2883C18.602 51.2764 17.2184 50.2851 15.9174 49.2113L10.5068 44.4616L6.29403 40.5585L3.07248 37.4402L1.35845 35.7262C1.23454 36.0566 1.15194 36.4077 1.06934 36.7587L5.50929 41.0128L10.0732 45.3082Z" fill="#FDEEE5"/>
<path d="M16.4548 33.4752C17.7765 34.6523 19.0568 35.8707 20.4611 36.9446C22.7534 38.7412 25.0663 40.4139 27.4824 42.066L27.9574 42.3551C27.9987 42.004 28.0607 41.6323 28.102 41.2813L24.7772 39.0303C22.2371 37.2543 19.8416 35.3544 17.57 33.2893C15.9592 31.7612 14.2865 30.2743 12.6344 28.7874L9.5574 25.9582L8.33899 24.8844L7.61621 25.38C9.26829 26.9082 10.8997 28.457 12.5931 29.9645L16.4548 33.4752Z" fill="#FDEEE5"/>
<path d="M10.5482 83.4712L5.26153 79.0312L4.72461 78.6389L4.82786 79.4649C4.82786 79.5681 4.86917 79.6714 4.86917 79.816C5.46804 80.2909 6.04627 80.7866 6.6245 81.2822L11.7459 85.5776C14.1001 87.5807 16.7848 89.1502 19.4694 90.699L19.8618 90.4099L20.2954 90.1208L19.552 89.6458C16.3304 87.9111 13.3154 85.846 10.5482 83.4712Z" fill="#FDEEE5"/>
<path d="M14.9467 40.1868L17.7759 42.479C19.1388 43.5942 20.4605 44.6887 21.8441 45.7419C23.2484 46.7744 24.7146 47.8483 26.1395 48.8602L26.4906 49.0667C26.5938 48.7363 26.6764 48.4678 26.7384 48.1787C24.8385 46.8157 22.9386 45.4528 21.08 44.0279C19.2214 42.6029 17.9411 41.4878 16.351 40.2074C13.6663 37.9978 11.085 35.6436 8.66881 33.1655C7.26454 31.7612 5.83963 30.4189 4.37341 29.0559L3.89844 29.7993L9.43289 35.2305C11.1882 36.9859 13.0468 38.6173 14.9467 40.1868Z" fill="#FDEEE5"/>
<path d="M14.5133 81.0137C17.0121 82.7897 19.6141 84.4005 22.3193 85.8461L23.4552 86.4243L23.8888 85.557C22.278 84.6896 20.6673 83.8429 19.0565 82.9136C16.661 81.4887 14.3894 79.8986 12.221 78.1639C11.0646 77.3379 9.94943 76.4292 8.89623 75.4793C7.2235 73.9718 5.61273 72.4436 4.00195 70.8948L4.10521 72.2164L6.50072 74.5087C9.04079 76.8423 11.7254 79.0106 14.5133 81.0137Z" fill="#FDEEE5"/>
<path d="M7.07846 51.1731C9.57723 53.3208 12.1586 55.3859 14.74 57.4716L17.2181 59.3715C18.4984 60.2595 19.7994 61.1681 21.1211 62.0148L23.847 63.7701L24.0535 63.9147L23.9503 62.7789C22.9797 62.2007 22.0917 61.4985 21.1211 60.9203C20.2951 60.466 19.5103 59.9497 18.7669 59.3922C16.4127 57.5749 14.0378 55.7369 11.7249 53.8577C9.41202 51.9785 7.75994 50.4916 5.77745 48.7776C4.41449 47.6005 3.09283 46.3407 1.77117 45.1017C1.29619 44.668 0.841873 44.2344 0.408203 43.78C0.408203 44.2137 0.449505 44.6474 0.449505 45.0604L1.95702 46.4853C3.6504 48.0341 5.32313 49.6862 7.07846 51.1731Z" fill="#FDEEE5"/>
<path d="M6.6867 58.5455C8.89635 60.3628 11.1267 62.1594 13.3776 63.8734C14.9058 65.0505 16.5166 66.207 18.1273 67.2395C19.7381 68.2721 22.4227 69.8828 24.5704 71.1839C24.5291 70.7915 24.5291 70.3991 24.5085 70.0067L18.3132 66.2896C17.3013 65.6494 16.3513 64.9679 15.3808 64.2451L11.0234 60.879C8.54528 58.9791 6.23238 56.9347 3.98142 54.8283L1.73047 52.8665C1.83372 53.3414 1.91633 53.837 2.01958 54.2914C2.22609 54.5185 2.45325 54.725 2.70106 54.8902C4.00207 56.1087 5.28243 57.4097 6.6867 58.5455Z" fill="#FDEEE5"/>
<path d="M18.3748 26.9908C21.6996 29.8613 25.107 32.6492 28.4525 35.4784C28.4525 35.086 28.4111 34.6523 28.4111 34.26C23.806 30.5015 19.3247 26.7224 15.1119 22.5715L14.0794 22.7574C14.0794 22.778 14.0587 22.7987 14.0381 22.7987L15.401 24.0791C16.351 25.0909 17.3422 26.0822 18.3748 26.9908Z" fill="#FDEEE5"/>
<path d="M16.4542 73.9305C19.0149 76.0575 21.8234 77.8748 24.7972 79.3617V78.3291L21.5343 76.4705C19.3866 75.0663 17.3215 73.5174 15.3804 71.8241C14.2652 70.8535 13.1707 69.8829 12.0142 69.0362C10.0524 67.57 8.29707 65.8972 6.47979 64.2865L3.34085 61.4986L3.19629 61.3953C3.25824 61.8703 3.34085 62.2833 3.38215 62.717C5.09618 64.2452 6.81021 65.8353 8.56554 67.3015C11.1469 69.5318 13.8109 71.7208 16.4542 73.9305Z" fill="#FDEEE5"/>
<path d="M36.2377 46.857L38.8191 46.031C41.3591 45.205 43.9405 44.4615 46.4806 43.5942C49.0206 42.7268 51.8911 41.5497 54.5551 40.4759L58.9538 38.4314L59.5939 37.0685L59.1603 37.1717C58.6233 37.4608 58.1484 37.8119 57.6321 38.0597C55.1746 39.1336 52.7172 40.1661 50.2184 41.178C47.1001 42.4377 43.8786 43.5116 40.6777 44.4615C38.0343 45.2876 35.453 46.2169 32.8096 46.9396L32.376 47.9102H32.4173L36.2377 46.857Z" fill="#FDEEE5"/>
<path d="M46.6051 62.6963L48.6702 61.6844C48.9593 61.2094 49.2071 60.7345 49.4136 60.2182L48.6909 60.6106L42.9292 63.3571C40.2033 64.5755 37.4154 65.6494 34.5863 66.6819L33.5537 67.033L34.6689 67.6319C35.846 67.2395 37.0231 66.8059 38.1382 66.3515C40.9881 65.1951 43.8172 63.956 46.6051 62.6963Z" fill="#FDEEE5"/>
<path d="M42.1646 58.1118C45.4481 56.9966 48.711 55.7782 51.8912 54.4359L52.4281 53.1762C51.251 53.7131 50.0739 54.2088 48.8555 54.6837C43.8167 56.5423 38.7366 58.3389 33.6564 60.1149C32.3141 60.6312 30.9511 61.0442 29.5469 61.3333C29.6088 61.6224 29.6914 61.8909 29.7947 62.1594C31.8598 61.6844 33.8836 61.0649 35.8661 60.3421L42.1646 58.1118Z" fill="#FDEEE5"/>
<path d="M49.0414 36.6968C51.8293 35.6849 54.6172 34.5904 57.405 33.4752L61.907 31.5753C62.0515 31.1829 62.1548 30.7906 62.258 30.4395L61.3287 30.8319C57.6529 32.3394 53.9976 33.8676 50.2805 35.2305C46.5633 36.5935 43.3004 37.7087 39.8311 38.8858C38.3029 39.4227 36.7541 39.9183 35.2259 40.352L34.8955 41.3226C36.0726 41.0335 37.291 40.7237 38.4268 40.3107C41.9994 39.1542 45.5307 37.9358 49.0414 36.6968Z" fill="#FDEEE5"/>
<path d="M42.4953 51.7926C46.4396 50.3884 50.3014 48.9015 54.225 47.394L54.8239 47.1462L55.0304 46.6712C55.1337 46.3821 55.2782 46.1343 55.3815 45.8865C52.4078 47.0636 49.434 48.282 46.3983 49.3971C43.3626 50.5123 39.2738 51.9372 35.6598 53.1556C33.698 53.7958 31.6949 54.2914 29.6917 54.8283C29.6091 55.1381 29.5472 55.4685 29.5059 55.7989C30.4765 55.5924 31.4677 55.3653 32.397 55.0762C35.8044 54.0436 39.1705 52.9698 42.4953 51.7926Z" fill="#FDEEE5"/>
<path d="M59.5112 6.11268C60.0688 5.90617 60.6057 5.67901 61.122 5.3899C60.9361 5.12144 60.7296 4.85298 60.5231 4.60516C59.6558 5.05948 58.7884 5.45185 57.8798 5.78227C51.891 8.07452 45.8609 10.2222 39.7896 12.2667L39.5418 12.3286C39.4798 12.6797 39.3559 13.0101 39.2939 13.3612C42.3296 12.3493 45.3653 11.358 48.3804 10.2842C52.1182 8.96251 55.7941 7.4963 59.5112 6.11268Z" fill="#FDEEE5"/>
<path d="M56.7652 1.46623C56.3935 1.23907 56.0218 1.05321 55.6294 0.888L49.2689 3.36611L42.7226 5.84423L42.1857 6.05074C41.9379 6.44311 41.6901 6.83547 41.4629 7.22784L54.8034 2.25096L56.7652 1.46623Z" fill="#FDEEE5"/>
<path d="M50.3632 29.6341C51.2306 29.3037 52.0773 29.0352 52.9033 28.6222C56.5172 27.0528 60.1931 25.5865 63.7037 23.7486C63.807 23.3562 63.8896 22.9226 63.9515 22.4889C63.5798 22.7574 63.1875 22.9845 62.7744 23.2117C61.4115 23.8932 60.0485 24.492 58.7062 25.1116C54.7412 26.8669 50.7349 28.5396 46.646 30.0884L42.8256 31.4514L36.5684 33.5991C36.5477 33.7024 36.5271 33.8056 36.5271 33.9295L36.4238 34.611L37.1466 34.4045C41.6072 32.9796 46.0059 31.3688 50.3632 29.6341Z" fill="#FDEEE5"/>
<path d="M53.3987 14.8067C56.4138 13.6296 59.3669 12.3699 62.3819 11.1309L63.8068 10.4907L63.4764 9.5614L62.0721 10.2429L56.5996 12.5351C54.4932 13.3612 52.4075 14.2492 50.3011 15.0339C47.2861 16.1491 44.2917 17.2229 41.256 18.2555C40.2854 18.6065 39.2941 18.8956 38.2823 19.1847C38.2203 19.4739 38.1583 19.7836 38.1377 20.0727C40.3267 19.5358 42.4744 18.875 44.5808 18.1109C47.5339 16.9751 50.5076 15.9425 53.3987 14.8067Z" fill="#FDEEE5"/>
<path d="M44.6433 24.8431C47.9681 23.5834 51.2516 22.3443 54.5558 20.9814C57.8599 19.6184 61.2673 18.1935 64.6334 16.7686C64.6334 16.4588 64.6335 16.1491 64.5921 15.8393L64.4476 15.9012C62.651 16.6447 60.875 17.3675 59.0783 18.1522C54.8655 19.9695 50.5701 21.5803 46.2748 23.2323L44.7053 23.8312C42.888 24.554 41.0294 25.2561 39.1708 25.8963L37.3122 26.4745L37.209 27.4864L38.0763 27.1973C40.2653 26.4539 42.4543 25.6691 44.6433 24.8431Z" fill="#FDEEE5"/>
<path d="M57.364 42.128C57.1162 42.7888 56.7238 43.3877 56.2489 43.9246L55.8565 44.255L55.4641 44.317L54.9272 44.1311C54.8033 43.8833 54.7001 43.6355 54.5968 43.3877C53.8121 41.1161 53.3577 38.7412 53.2338 36.3457C53.048 32.1329 52.9447 27.8582 52.8415 23.6454C52.7795 21.3531 52.8621 19.0609 53.0893 16.7686L53.5229 12.8243C53.2958 12.7623 53.048 12.8862 52.9447 13.1134C52.6143 13.7123 52.2013 14.2492 51.7263 14.7655C49.909 16.8306 48.2156 19.0196 46.6462 21.2705C45.7788 22.5922 44.9734 23.9138 44.1681 25.2768C42.4127 28.2918 40.6574 31.2862 38.6336 34.1154C38.3032 34.611 37.9521 35.0654 37.5598 35.5197C37.3326 35.7881 37.0641 36.0153 36.775 36.2012C36.5066 36.387 36.1142 36.3251 35.9283 36.0566C35.887 35.9946 35.8664 35.9533 35.8457 35.8914C35.7631 35.6229 35.7218 35.3545 35.7012 35.0654C35.7012 34.3219 35.7425 33.5372 35.7425 33.0003C35.7425 32.4633 36.2381 31.8645 36.4653 31.3895C37.0435 30.2743 37.5804 29.1385 38.2206 28.0647C39.8933 25.2355 41.8758 22.6335 43.755 19.9902C44.9734 18.2348 46.2332 16.5001 47.5135 14.8481C48.5254 13.5264 49.4754 12.1221 50.6525 10.945C51.4372 10.2016 52.3458 9.60273 53.3371 9.1484C54.2044 8.71473 54.8653 8.9419 55.3815 9.74728C56.3108 11.1515 56.8477 12.783 56.9097 14.4764C56.951 15.7567 57.0956 17.0784 57.1575 18.4207C57.2608 20.9608 57.364 23.5008 57.4466 26.0409C57.5086 27.6517 57.4879 29.2211 57.5086 30.8319C57.5292 32.3394 57.6738 33.8263 57.9009 35.3132C58.1694 36.6968 58.314 38.1217 58.2933 39.526L58.3553 39.6292C58.2933 39.9803 57.5499 41.6737 57.364 42.128Z" fill="#402625"/>
<path d="M23.5785 64.3691C23.2481 64.1832 23.021 63.8528 22.9384 63.4811C22.7319 62.9441 22.546 62.3659 22.3395 61.8083C21.7406 60.2389 21.0798 58.6281 20.5222 57.0586C19.5929 54.4772 18.6223 51.8752 17.7756 49.2939C16.9289 46.7125 16.454 45.0398 15.7725 42.8921C15.091 40.7444 14.6367 39.526 14.0584 37.8739C13.9345 37.5641 13.79 37.275 13.6248 36.9859C13.2737 37.2544 13.0053 37.6054 12.84 38.0184C12.4064 39.051 11.9108 40.0835 11.5184 41.1574C11.126 42.2312 10.7956 43.2638 10.4858 44.3376L8.97831 48.9841C8.91636 49.2319 8.87506 49.4591 8.79246 49.7069C7.96642 52.2882 7.38819 54.9316 6.64476 57.5336C6.12848 59.4128 5.447 61.2301 4.57966 62.9648C4.41445 63.3159 4.18729 63.6463 3.93948 63.9354C3.71232 64.2245 3.27865 64.2865 2.98954 64.0593C2.94824 64.018 2.90693 63.9767 2.86563 63.9354C2.70042 63.7495 2.55587 63.543 2.47326 63.3365C2.0809 62.5518 1.72983 61.7257 1.39941 61.0029C1.68853 60.0324 1.89504 59.1857 2.18415 58.3183C2.47326 57.451 2.76238 56.5217 3.11344 55.675C3.46451 54.8283 4.08404 53.1349 4.57966 51.8752L6.52085 46.9396L8.46204 41.8595C8.6066 41.5084 8.79246 41.178 8.93701 40.827C9.47394 39.5466 9.90761 38.2249 10.6923 37.0272C11.4771 35.8501 11.5597 35.6023 12.014 34.9208C12.3238 34.3839 12.7781 33.9295 13.2944 33.5991C13.7693 33.2687 14.3889 33.2687 14.8638 33.5991C15.2975 33.8263 15.6486 34.1774 15.8964 34.611C16.1855 35.1893 16.4953 35.7262 16.7637 36.2838C17.9202 39.0303 18.8908 41.8802 19.6549 44.7713C20.1505 46.5886 20.7287 48.3852 21.3069 50.1818C22.133 52.66 22.9177 55.1587 23.8883 57.5542C24.2394 58.4422 24.5698 59.3096 24.8589 60.1976C25.1893 61.2714 25.1893 62.4279 24.8589 63.4811C24.8176 63.7702 24.6524 64.018 24.4252 64.2038C24.1361 64.3897 23.847 64.4517 23.5785 64.3691Z" fill="#402625"/>
</g>
<defs>
<clipPath id="clip0_156_71159">
<rect width="64.3071" height="92" fill="white" transform="translate(0.34668)"/>
</clipPath>
</defs>
</svg>
