<svg width="125" height="92" viewBox="0 0 125 92" fill="none" xmlns="http://www.w3.org/2000/svg">
<g clip-path="url(#clip0_156_71412)">
<path d="M36.9244 89.2432C34.9482 89.2432 34.3297 87.7158 34.3071 87.6517L34.2769 87.5688V87.482C34.2807 87.1954 34.6352 58.7525 30.8979 49.264C27.0814 39.5756 28.2618 31.754 28.3146 31.4259L28.4692 30.4567L44.4744 49.2339L43.9766 49.4978C39.8999 51.655 39.7113 78.0275 39.9829 88.0062L39.9904 88.2891L39.7415 88.4211C38.7006 88.9679 37.754 89.247 36.9281 89.247L36.9244 89.2432Z" fill="#E32D3D"/>
<path d="M28.756 31.4976L43.7581 49.0981C38.5386 51.8624 39.5267 88.0175 39.5267 88.0175C38.4444 88.587 37.5921 88.7907 36.9245 88.7907C35.235 88.7907 34.7259 87.4858 34.7259 87.4858C34.7259 87.4858 35.1257 58.7789 31.3129 49.0943C27.5002 39.4097 28.756 31.4938 28.756 31.4938M28.1714 29.4159L27.8622 31.3543C27.8094 31.6862 26.6101 39.6285 30.4719 49.43C34.1791 58.8393 33.8246 87.1916 33.8208 87.4745V87.6517L33.8811 87.8177C34.1527 88.5154 35.0993 89.6958 36.9208 89.6958C37.8221 89.6958 38.8403 89.4016 39.9453 88.817L40.4431 88.5568L40.428 87.9949C40.428 87.9044 40.1867 78.8722 40.5864 69.6251C41.3181 52.6959 43.5205 50.2446 44.1805 49.8976L45.1761 49.3696L44.4444 48.5135L29.4424 30.9131L28.1714 29.4196V29.4159Z" fill="#0D0711"/>
<path d="M28.7558 31.4976C28.7558 31.4976 27.4962 39.4172 31.3127 49.0981C33.8093 55.43 34.4994 69.9004 34.6804 79.1551C36.7018 69.1725 32.1348 47.6612 32.6704 47.435C33.2738 47.1823 37.128 52.2056 37.128 52.2056L40.36 45.1081L28.7596 31.4976H28.7558Z" fill="#9E282F"/>
<path d="M37.219 89.0773C37.1398 89.0773 37.0643 89.0471 37.0078 88.9905C36.9437 88.9302 36.9135 88.8434 36.9173 88.7567C37.6904 77.5975 36.3817 56.2409 35.8613 50.9837C35.2428 44.746 38.9047 43.46 39.0593 43.411C39.0895 43.3997 39.1235 43.3959 39.1536 43.3959C39.2404 43.3959 39.3233 43.4336 39.3837 43.5015L43.9884 48.9058C44.0487 48.9736 44.0714 49.0679 44.0563 49.1584C44.0374 49.2489 43.9808 49.3244 43.9016 49.3696C39.9041 51.4853 39.4893 75.5724 39.8287 88.0138C39.8287 88.1269 39.7683 88.2363 39.6665 88.2891C38.7803 88.7529 37.9657 89.0207 37.2416 89.081C37.2341 89.081 37.2265 89.081 37.2152 89.081L37.219 89.0773Z" fill="#EFCFA4"/>
<path d="M39.1536 43.6939L43.7583 49.0981C38.5389 51.8624 39.527 88.0176 39.527 88.0176C38.5955 88.504 37.8374 88.7228 37.2152 88.7756C37.9845 77.6918 36.7098 56.5086 36.1554 50.9498C35.552 44.8818 39.1498 43.6901 39.1498 43.6901M39.1498 43.0867C39.0857 43.0867 39.0216 43.098 38.9613 43.1169C38.7953 43.1697 34.9147 44.5311 35.5558 51.0064C36.0762 56.2597 37.3849 77.5862 36.6118 88.7303C36.6005 88.9038 36.6646 89.0773 36.789 89.2017C36.9022 89.3149 37.053 89.3752 37.2114 89.3752C37.2265 89.3752 37.2453 89.3752 37.2604 89.3752C38.026 89.3111 38.8783 89.0358 39.8023 88.5493C40.0059 88.4437 40.1304 88.2287 40.1228 87.9987C40.1228 87.9082 39.8815 78.8685 40.2812 69.61C40.9751 53.5821 42.9286 50.2106 44.0336 49.6261C44.1958 49.5393 44.3089 49.3885 44.3429 49.2075C44.3768 49.0264 44.3278 48.8417 44.2109 48.7021L39.6061 43.2979C39.4892 43.1621 39.3195 43.0867 39.1461 43.0867H39.1498Z" fill="#0D0711"/>
<path opacity="0.6" d="M43.7581 49.0981L39.1534 43.6939C39.1534 43.6939 35.5556 44.8818 36.159 50.9536C36.2345 51.7191 36.325 52.7751 36.4193 54.0649C37.2075 54.8229 37.9466 55.6714 38.4746 56.5765C38.4746 56.5765 38.4293 78.7666 39.0101 88.2702C39.0893 88.2363 39.1685 88.1986 39.2515 88.1571C39.342 88.1118 39.4325 88.0666 39.5268 88.0176C39.5268 88.0176 38.5387 51.8587 43.7581 49.0981Z" fill="#9D7F5C"/>
<path d="M122.053 84.2727C122.053 84.2727 123.859 83.7711 124.161 85.1778C124.463 86.5845 122.053 86.4826 122.053 86.4826C122.053 86.4826 74.4558 90.1747 68.4897 88.0854C63.9 86.4826 56.6818 82.2626 53.4951 67.2077L80.7991 78.1557L122.053 84.2689V84.2727Z" fill="#0D0711"/>
<path d="M73.0686 77.047C72.9027 77.047 72.7368 76.9791 72.6198 76.8433L45.5195 46.33C45.4818 46.2885 45.4479 46.2395 45.4253 46.1867C44.8822 45.0327 32.256 17.7627 40.8281 4.53685C41.8916 2.89635 43.2115 2.0629 44.7427 2.0629C52.421 2.0629 63.5801 24.1474 70.9643 38.7611C73.2723 43.3243 75.0938 46.9296 76.1875 48.6116C82.3648 58.0775 93.6522 58.5753 93.7653 58.5791C94.0142 58.5866 94.233 58.7488 94.3159 58.9864C94.3989 59.224 94.3235 59.4842 94.1311 59.6426L73.4533 76.9074C73.3402 77.0017 73.2044 77.047 73.0686 77.047Z" fill="#EFCFA4"/>
<path d="M44.7423 2.66629C54.4269 2.66629 71.1449 41.9855 75.6855 48.9435C82.1042 58.7789 93.7461 59.1825 93.7461 59.1825L73.0683 76.4473L45.968 45.934C45.968 45.934 32.844 17.9663 41.3331 4.86871C42.3212 3.34512 43.4714 2.66629 44.7423 2.66629ZM44.7423 1.46326C42.9924 1.46326 41.5028 2.38722 40.3224 4.21251C36.6115 9.93729 36.2683 18.8186 39.3004 30.6114C41.5216 39.2513 44.7423 46.1565 44.8781 46.4431C44.9271 46.5487 44.9912 46.643 45.0666 46.7297L72.1669 77.243C72.4045 77.5108 72.7364 77.6466 73.0683 77.6466C73.3398 77.6466 73.6151 77.5561 73.8414 77.3675L94.5192 60.1026C94.9039 59.7821 95.0472 59.2579 94.885 58.7865C94.7229 58.3151 94.2854 57.9907 93.7876 57.9757C93.6782 57.9719 82.6775 57.4552 76.6925 48.2835C75.6139 46.6317 73.7999 43.0415 71.5032 38.4933C61.6413 18.977 52.1755 1.46326 44.7423 1.46326Z" fill="#0D0711"/>
<path opacity="0.6" d="M75.6853 48.9435C70.5488 41.0728 49.822 -8.2289 41.3328 4.8687C41.3027 4.91396 41.2763 4.96299 41.2461 5.00824L43.7578 12.1586C43.7578 12.1586 53.4424 18.2793 70.76 47.4387C77.8877 59.4427 82.8959 64.0776 86.324 65.3786L93.7459 59.1825C93.7459 59.1825 82.104 58.7789 75.6853 48.9435Z" fill="#9D7F5C"/>
<path d="M59.2169 18.1209C59.2169 18.1209 58.3948 18.8412 58.704 20.5421C58.704 20.5421 56.1207 25.0223 56.792 34.2695" stroke="#0D0711" stroke-width="1.6" stroke-linejoin="round"/>
<path d="M65.8425 64.9035C65.5333 64.9035 65.3296 64.9035 58.1001 47.5557C54.5664 39.0703 51.0441 30.4756 51.0101 30.3889C50.9686 30.287 50.9837 30.1701 51.0554 30.0834C51.1119 30.0117 51.1987 29.974 51.2892 29.974C51.308 29.974 51.3269 29.974 51.3458 29.9778C51.6173 30.0306 58.1152 31.4297 66.3856 48.8153C70.8885 58.2849 79.4756 62.6558 80.4712 62.9047C80.6183 62.9424 80.7465 63.1008 80.7277 63.2517C80.6862 63.576 80.6787 63.6552 73.3322 64.3001C69.9456 64.598 66.1216 64.9035 65.8425 64.9035Z" fill="#E32D3D"/>
<path d="M51.2893 30.272C51.2893 30.272 57.8136 31.4938 66.1104 48.9435C70.7264 58.6469 79.5927 62.9952 80.396 63.1951C81.1992 63.395 66.3442 64.6018 65.8427 64.6018C65.3411 64.6018 51.2893 30.272 51.2893 30.272ZM51.2893 29.6685C51.1083 29.6685 50.9386 29.7477 50.8217 29.8911C50.6822 30.0608 50.6482 30.2946 50.7312 30.4982C50.7651 30.585 54.2875 39.1797 57.8212 47.665C59.8991 52.6506 61.5736 56.6218 62.803 59.4729C65.2732 65.2014 65.3373 65.2014 65.8427 65.2014C66.133 65.2014 69.9005 64.9035 73.3588 64.598C75.3726 64.4207 77.0697 64.2586 78.269 64.1304C78.9742 64.0549 79.521 63.9908 79.8982 63.938C80.5166 63.8513 80.9654 63.7872 81.0258 63.2856C81.0597 63.0178 80.9051 62.7011 80.543 62.6105C79.555 62.3466 71.0508 57.9266 66.6535 48.6833C58.319 31.162 51.6778 29.7327 51.3987 29.6799C51.361 29.6723 51.3233 29.6685 51.2893 29.6685Z" fill="#0D0711"/>
<path d="M51.9912 33.5831C51.9912 33.5831 58.2138 37.9993 66.1108 52.8543C66.1108 52.8543 70.4591 60.4836 74.9771 62.9914C79.9627 65.7596 61.0234 64.1983 60.8235 63.8966C60.6236 63.5948 51.9912 33.5831 51.9912 33.5831Z" fill="#EFCFA4" stroke="#0D0711" stroke-width="1.6" stroke-linejoin="round"/>
<path d="M44.6221 3.20181C44.6221 3.20181 53.4959 6.58087 71.1605 44.3237C71.1605 44.3237 79.8947 61.2868 90.6315 59.6803" stroke="#0D0711" stroke-width="1.6" stroke-linejoin="round"/>
<path d="M73.4712 86.9352C68.8137 86.9352 60.219 84.7856 54.9807 70.3756C51.9033 61.9129 43.5538 52.4922 36.8485 44.9233C33.2544 40.8654 30.1507 37.3657 28.9137 35.1067C25.4178 28.7333 38.0175 6.88257 38.5531 5.95484C40.4576 2.30803 42.4601 0.448792 44.5041 0.448792C46.5481 0.448792 47.7022 2.24391 47.7512 2.31934L48.6035 3.61665L47.1893 2.97931C46.7669 2.78698 46.3935 2.69269 46.0805 2.69269C45.7072 2.69269 45.4281 2.82846 45.2018 3.11885C44.3193 4.26908 44.4777 7.70848 45.6016 11.8833C46.9818 17.0122 64.077 56.9914 64.2505 57.3949C65.8118 60.4609 69.1267 62.0298 74.0897 62.0298C82.7485 62.0298 93.4551 57.2101 93.5607 57.1611L93.8474 57.0328L94.0699 57.2554C95.1861 58.3716 113.929 70.7678 119.258 73.6377C124.738 76.5868 122.709 83.7259 122.69 83.7975L122.599 84.0992L122.283 84.1181C121.849 84.1445 78.8453 86.9314 73.4712 86.9314V86.9352Z" fill="#E32D3D"/>
<path d="M44.5008 0.905104C46.277 0.905104 47.3707 2.572 47.3707 2.572C46.8729 2.3495 46.443 2.2439 46.0771 2.2439C43.4712 2.2439 43.9313 7.43316 45.1645 12.0077C46.5712 17.2271 63.8323 57.5797 63.8323 57.5797C65.7066 61.2604 69.6551 62.4861 74.0863 62.4861C82.9488 62.4861 93.7459 57.5797 93.7459 57.5797C94.949 58.7827 113.82 71.2317 119.04 74.0412C124.259 76.8508 122.253 83.6768 122.253 83.6768C122.253 83.6768 78.8909 86.4864 73.4716 86.4864C68.0523 86.4864 60.2232 83.4732 55.4035 70.2247C50.5876 56.9763 32.7193 41.1181 29.3063 34.8917C25.8933 28.6692 38.9419 6.18487 38.9419 6.18487C41.1066 2.04025 43.0375 0.905104 44.5008 0.905104ZM44.5008 0C42.2795 0 40.1412 1.93466 38.1499 5.74741C37.9425 6.10568 34.7633 11.6457 32.0179 17.8381C28.0807 26.7232 26.9342 32.4442 28.5144 35.3254C29.774 37.6259 32.7457 40.9786 36.5057 45.2212C43.1884 52.7638 51.504 62.1504 54.5512 70.5302C59.8837 85.1966 68.6934 87.3877 73.4678 87.3877C78.857 87.3877 120.537 84.6913 122.309 84.5744L122.939 84.5329L123.117 83.9257C123.882 81.3236 124.105 75.7383 119.466 73.238C114.152 70.3756 95.492 58.0435 94.3833 56.9348L93.942 56.4935L93.3726 56.7538C93.267 56.8028 82.6471 61.581 74.0863 61.581C69.3232 61.581 66.1478 60.1064 64.6506 57.195C64.1076 55.9279 47.3933 16.8161 46.0357 11.7739C44.9646 7.79143 44.7723 4.42746 45.5567 3.40168C45.6925 3.22443 45.8433 3.15278 46.0734 3.15278C46.3185 3.15278 46.6391 3.23952 46.9973 3.40168L49.8258 4.67637L48.1212 2.08174C48.0646 1.99877 46.7333 0.00754253 44.497 0.00754253L44.5008 0Z" fill="#0D0711"/>
<path d="M119.04 74.0375C113.821 71.2279 94.9496 58.7789 93.7466 57.5759C93.7466 57.5759 87.9389 60.2158 81.3467 61.6225C82.693 64.5867 85.7553 69.4177 91.9892 71.6276C101.323 74.9388 117.585 76.7905 119.995 79.9093C121.424 81.7572 121.262 78.5479 119.139 74.094C119.105 74.0752 119.074 74.0563 119.044 74.0375H119.04Z" fill="#E66472"/>
<path d="M45.3646 0.901322C45.3646 0.901322 40.3224 0.80327 43.5582 9.59409C59.8199 53.7594 62.0374 55.7544 63.1311 59.3785C63.1311 59.3785 69.1538 71.424 94.5004 58.1755" stroke="#0D0711" stroke-width="0.8" stroke-linejoin="round"/>
<path d="M34.7256 82.3267C34.7558 85.4682 34.7256 87.4858 34.7256 87.4858C34.7256 87.4858 35.7137 90.0239 39.5264 88.0176C39.5264 88.0176 39.4849 86.4261 39.4623 83.8956L37.4107 84.3594L34.7256 82.3267Z" fill="#0D0711"/>
<path d="M37.6373 32.6478C43.3168 34.5259 39.6097 15.6017 39.8737 4.55569C39.5682 5.03842 39.2589 5.57771 38.9422 6.18488C38.9422 6.18488 32.9911 16.439 30.1777 25.0148C31.5882 28.0884 33.9716 31.441 37.6373 32.6516V32.6478Z" fill="#E66472"/>
<path d="M110.359 77.9671C110.359 77.9671 93.3468 74.1845 87.4749 73.1324C81.603 72.0802 76.6363 75.3913 78.141 76.8961C79.6458 78.4008 103.586 81.9005 110.363 77.9671H110.359Z" fill="#E66472"/>
<path opacity="0.4" d="M122.612 81.365C113.542 81.9156 68.1585 84.2274 63.9007 75.6931C59.1678 66.2083 44.9237 46.0321 39.9268 41.5141C36.9362 38.8101 32.0184 35.4348 28.7412 32.2141C28.7488 33.2739 28.9222 34.1865 29.3107 34.888C32.7237 41.1106 50.5919 56.9687 55.4078 70.2209C60.2275 83.4694 68.0566 86.4826 73.4759 86.4826C78.8953 86.4826 122.257 83.673 122.257 83.673C122.257 83.673 122.54 82.7114 122.616 81.365H122.612Z" fill="#E66472"/>
<path d="M9.47381 91.5474C7.49766 91.5474 6.87918 90.0201 6.85655 89.956L6.82638 89.873V89.7863C6.83015 89.4996 7.18465 61.0568 3.44732 51.5683C-0.372967 41.8837 0.807439 34.0621 0.860237 33.734L1.01486 32.7647L17.0201 51.5419L16.5223 51.8059C12.4456 53.9668 12.257 80.3355 12.5285 90.3142L12.5361 90.5971L12.2872 90.7291C11.2463 91.2759 10.2997 91.555 9.47381 91.555V91.5474Z" fill="#E32D3D"/>
<path d="M1.30481 33.8018L16.3069 51.4023C11.0875 54.1667 12.0755 90.3218 12.0755 90.3218C10.9932 90.8912 10.1409 91.0949 9.47337 91.0949C7.78385 91.0949 7.27472 89.79 7.27472 89.79C7.27472 89.79 7.67825 61.0832 3.86173 51.3986C0.0489817 41.7215 1.30481 33.8018 1.30481 33.8018ZM0.720267 31.7239L0.411023 33.6623C0.358225 33.9942 -0.841037 41.9365 3.02074 51.7342C6.72789 61.1435 6.37339 89.4959 6.36962 89.7825V89.9597L6.42996 90.1257C6.70149 90.8234 7.64808 92.0038 9.4696 92.0038C10.3709 92.0038 11.3892 91.7096 12.4942 91.1288L12.992 90.8648L12.9769 90.3029C12.9769 90.2124 12.7355 81.1802 13.1353 71.9331C13.8669 55.0039 16.0693 52.5526 16.7293 52.2056L17.7249 51.6776L16.9933 50.8216L1.99118 33.2173L0.720267 31.7239Z" fill="#0D0711"/>
<path d="M1.30451 33.8018C1.30451 33.8018 0.0486821 41.7215 3.86143 51.4023C6.35801 57.7343 7.04815 72.2046 7.2254 81.4593C9.2468 71.4768 4.6798 49.9655 5.21531 49.7392C5.81872 49.4865 9.67295 54.5061 9.67295 54.5061L12.9049 47.4085L1.30451 33.8018Z" fill="#9E282F"/>
<path d="M9.7678 91.3853C9.6886 91.3853 9.61317 91.3551 9.5566 91.2985C9.49249 91.2382 9.46232 91.1515 9.46609 91.0647C10.2392 79.9093 8.93058 58.5489 8.41014 53.2917C7.79165 47.0541 11.4536 45.7718 11.6082 45.719C11.6383 45.7077 11.6723 45.7039 11.7025 45.7039C11.7892 45.7039 11.8722 45.7417 11.9325 45.8095L16.5372 51.2138C16.5976 51.2817 16.6202 51.3759 16.6051 51.4664C16.5862 51.557 16.5297 51.6324 16.4505 51.6776C12.4529 53.7933 12.0381 77.8842 12.3775 90.3218C12.3775 90.4349 12.3172 90.5443 12.2153 90.5971C11.3291 91.0609 10.5145 91.3287 9.79042 91.389C9.78288 91.389 9.77534 91.389 9.76402 91.389L9.7678 91.3853Z" fill="#EFCFA4"/>
<path d="M11.7026 45.9981L16.3073 51.4023C11.0878 54.1667 12.0759 90.3218 12.0759 90.3218C11.1482 90.8121 10.3864 91.0308 9.7679 91.0798C10.5372 79.9961 9.26255 58.8129 8.70818 53.254C8.10478 47.1861 11.7026 45.9981 11.7026 45.9981ZM11.7026 45.3947C11.6385 45.3947 11.5743 45.406 11.514 45.4249C11.3481 45.4777 7.46743 46.8391 8.10855 53.3144C8.62898 58.5677 9.93761 79.898 9.1645 91.0383C9.15319 91.2118 9.2173 91.3853 9.34175 91.5097C9.45489 91.6229 9.60574 91.6832 9.76413 91.6832C9.77922 91.6832 9.79807 91.6832 9.81316 91.6832C10.5787 91.6191 11.431 91.3438 12.355 90.8573C12.5586 90.7517 12.6831 90.5368 12.6755 90.3067C12.6755 90.2162 12.4342 81.1765 12.8339 71.918C13.5279 55.8939 15.4814 52.5186 16.5863 51.9341C16.7485 51.8473 16.8617 51.6927 16.8956 51.5155C16.9295 51.3345 16.8805 51.1497 16.7636 51.0139L12.1589 45.6097C12.042 45.4739 11.8723 45.3985 11.6988 45.3985L11.7026 45.3947Z" fill="#0D0711"/>
<path opacity="0.6" d="M16.307 51.4023L11.7023 45.9981C11.7023 45.9981 8.10447 47.1861 8.70787 53.254C8.7833 54.0196 8.87381 55.0793 8.96809 56.3653C9.75628 57.1233 10.4917 57.9719 11.0234 58.877C11.0234 58.877 10.9782 81.0671 11.5627 90.5745C11.6419 90.5405 11.7211 90.5028 11.8041 90.4613C11.8946 90.4161 11.9851 90.3708 12.0794 90.3218C12.0794 90.3218 11.0913 54.1667 16.3107 51.4023H16.307Z" fill="#9D7F5C"/>
<path d="M94.6018 86.5807C94.6018 86.5807 96.4082 86.0791 96.7099 87.4858C97.0116 88.8925 94.6018 88.7907 94.6018 88.7907C94.6018 88.7907 47.0046 92.4827 41.0385 90.3934C36.4489 88.7907 29.2307 84.5706 26.0439 69.5157L53.3441 80.4637L94.598 86.5769L94.6018 86.5807Z" fill="#0D0711"/>
<path d="M45.6175 79.3549C45.4515 79.3549 45.2856 79.2871 45.1687 79.1513L18.0684 48.638C18.0307 48.5965 17.9967 48.5475 17.9741 48.4947C17.431 47.3407 4.80483 20.0707 13.3769 6.84483C14.4404 5.20056 15.7604 4.37088 17.2915 4.37088C24.9698 4.37088 36.129 26.4554 43.5131 41.0691C45.8211 45.6361 47.6426 49.2414 48.7363 50.9196C54.9136 60.3855 66.201 60.8833 66.3142 60.8871C66.5631 60.8946 66.7818 61.0568 66.8648 61.2943C66.944 61.5319 66.8723 61.7922 66.68 61.9506L46.0021 79.2154C45.889 79.3097 45.7532 79.3549 45.6175 79.3549Z" fill="#EFCFA4"/>
<path d="M17.2911 4.97427C26.9757 4.97427 43.6938 44.2935 48.2344 51.2515C54.6531 61.0869 66.2949 61.4904 66.2949 61.4904L45.6171 78.7553L18.5168 48.2382C18.5168 48.2382 5.3928 20.2705 13.8819 7.17292C14.87 5.64933 16.0202 4.97427 17.2911 4.97427ZM17.2911 3.77124C15.5413 3.77124 14.0516 4.6952 12.8712 6.52049C9.16029 12.2453 8.81711 21.1266 11.8492 32.9193C14.0705 41.5593 17.2911 48.4645 17.4269 48.7511C17.4759 48.8567 17.54 48.951 17.6155 49.0377L44.7158 79.551C44.9534 79.8188 45.2852 79.9546 45.6171 79.9546C45.8886 79.9546 46.1639 79.864 46.3902 79.6755L67.0681 62.4106C67.4527 62.0901 67.596 61.5659 67.4339 61.0945C67.2717 60.6231 66.8342 60.2987 66.3364 60.2836C66.2271 60.2799 55.2263 59.7632 49.2413 50.5915C48.1627 48.9397 46.3487 45.3494 44.0483 40.7975C34.1902 21.285 24.7243 3.77124 17.2911 3.77124Z" fill="#0D0711"/>
<path opacity="0.6" d="M48.2342 51.2515C43.0978 43.3771 22.3709 -5.92089 13.8818 7.17294C13.8516 7.21819 13.8252 7.26722 13.7988 7.31248L16.3105 14.4628C16.3105 14.4628 25.9951 20.5836 43.3127 49.743C50.4404 61.7469 55.4487 66.3818 58.8768 67.6829L66.2986 61.4867C66.2986 61.4867 54.6567 61.0832 48.238 51.2477L48.2342 51.2515Z" fill="#9D7F5C"/>
<path d="M31.7658 20.4289C31.7658 20.4289 30.9437 21.1492 31.2529 22.8501C31.2529 22.8501 28.6658 27.3303 29.3409 36.5775" stroke="#0D0711" stroke-width="1.6" stroke-linejoin="round"/>
<path d="M38.3914 67.2077C38.0821 67.2077 37.8785 67.2077 30.649 49.8599C27.1153 41.3745 23.5929 32.7798 23.559 32.6931C23.5175 32.5912 23.5364 32.4743 23.6042 32.3876C23.6608 32.3159 23.7475 32.2782 23.8381 32.2782C23.8569 32.2782 23.8758 32.2782 23.8946 32.282C24.1662 32.3348 30.664 33.7339 38.9344 51.1195C43.4373 60.5853 52.0283 64.96 53.0201 65.2089C53.1672 65.2466 53.2954 65.405 53.2765 65.5559C53.2351 65.8802 53.2275 65.9594 45.8811 66.6043C42.4945 66.9022 38.6667 67.2077 38.3914 67.2077Z" fill="#E32D3D"/>
<path d="M23.8382 32.5799C23.8382 32.5799 30.3625 33.8056 38.6592 51.2515C43.2753 60.9549 52.1415 65.3032 52.9448 65.5031C53.7481 65.703 38.8931 66.9098 38.3915 66.9098C37.8899 66.9098 23.8382 32.5799 23.8382 32.5799ZM23.8382 31.9765C23.6572 31.9765 23.4875 32.0557 23.3705 32.199C23.231 32.3687 23.1971 32.6026 23.28 32.8062C23.314 32.8929 26.8363 41.4877 30.37 49.973C32.448 54.9586 34.1224 58.9298 35.3518 61.7808C37.822 67.5094 37.8861 67.5094 38.3915 67.5094C38.6819 67.5094 42.4494 67.2115 45.9076 66.906C47.9215 66.7287 49.6185 66.5666 50.8178 66.4383C51.523 66.3629 52.0699 66.2988 52.447 66.246C53.0655 66.1593 53.5143 66.0952 53.5746 65.5936C53.6085 65.3258 53.4539 65.009 53.0919 64.9185C52.1038 64.6545 43.5996 60.2346 39.2023 50.9913C30.8678 33.47 24.2266 32.0406 23.9475 31.9878C23.9098 31.9803 23.8721 31.9765 23.8382 31.9765Z" fill="#0D0711"/>
<path d="M24.54 35.8911C24.54 35.8911 30.7626 40.3073 38.6597 55.1623C38.6597 55.1623 43.0079 62.7915 47.5259 65.2994C52.5077 68.0675 33.5722 66.5062 33.3723 66.2045C33.1725 65.9028 24.54 35.8911 24.54 35.8911Z" fill="#EFCFA4" stroke="#0D0711" stroke-width="1.6" stroke-linejoin="round"/>
<path d="M17.1709 5.5098C17.1709 5.5098 26.0447 8.88885 43.7093 46.6317C43.7093 46.6317 52.4435 63.5948 63.1803 61.9883" stroke="#0D0711" stroke-width="1.6" stroke-linejoin="round"/>
<path d="M46.0203 89.2432C41.3628 89.2432 32.7681 87.0936 27.5298 72.6836C24.4524 64.2208 16.1028 54.8002 9.39752 47.2275C5.80351 43.1696 2.69976 39.6699 1.46278 37.4109C-2.03695 31.0413 10.5628 9.19055 11.0984 8.26282C13.0029 4.61601 15.0054 2.75677 17.0494 2.75677C19.0934 2.75677 20.2474 4.5519 20.2965 4.62732L21.1488 5.92464L19.7346 5.28729C19.3122 5.09496 18.9351 5.00068 18.6258 5.00068C18.2525 5.00068 17.9734 5.13644 17.7471 5.42683C16.8646 6.57707 17.023 10.0165 18.1469 14.1912C19.5271 19.3202 36.6223 59.2993 36.7958 59.7029C38.3571 62.7689 41.672 64.3378 46.635 64.3378C55.2976 64.3378 66.0004 59.5181 66.106 59.4691L66.3926 59.3408L66.6152 59.5633C67.7352 60.6796 86.4746 73.0758 91.8034 75.9457C97.2831 78.8948 95.2541 86.0338 95.2353 86.1055L95.1448 86.4072L94.828 86.426C94.3943 86.4524 51.3906 89.2394 46.0165 89.2394L46.0203 89.2432Z" fill="#E32D3D"/>
<path d="M17.0496 3.20933C18.8258 3.20933 19.9195 4.87623 19.9195 4.87623C19.4217 4.65373 18.9918 4.54813 18.626 4.54813C16.02 4.54813 16.4801 9.73739 17.7133 14.3119C19.12 19.5314 36.3849 59.8839 36.3849 59.8839C38.2592 63.5647 42.2077 64.7903 46.6389 64.7903C55.5014 64.7903 66.2985 59.8839 66.2985 59.8839C67.5016 61.0869 86.373 73.5359 91.5924 76.3455C96.8118 79.1551 94.8055 85.9811 94.8055 85.9811C94.8055 85.9811 51.4435 88.7906 46.0242 88.7906C40.6049 88.7906 32.7758 85.7774 27.9561 72.529C23.1326 59.2805 5.26815 43.4223 1.85516 37.196C-1.55784 30.9734 11.4907 8.4891 11.4907 8.4891C13.6554 4.34448 15.5863 3.20933 17.0496 3.20933ZM17.0496 2.30423C14.8283 2.30423 12.69 4.23889 10.6988 8.05164C10.4914 8.41368 7.3084 13.9499 4.56669 20.1385C0.629495 29.0312 -0.51697 34.7522 1.06319 37.6334C2.32279 39.9339 5.29455 43.2866 9.0545 47.5292C15.7372 55.0718 24.0528 64.4584 27.1038 72.8382C32.4363 87.5046 41.246 89.6957 46.0204 89.6957C51.4096 89.6957 93.0896 86.9993 94.8621 86.8824L95.4919 86.8409L95.6691 86.2337C96.4347 83.6316 96.6572 78.0463 92.0185 75.546C86.7048 72.6836 68.0446 60.3515 66.9359 59.239L66.4946 58.7978L65.9252 59.058C65.8196 59.107 55.1997 63.8852 46.6389 63.8852C41.8758 63.8852 38.7004 62.4106 37.2032 59.4992C36.6602 58.2321 19.9459 19.1203 18.5883 14.0781C17.5172 10.0957 17.3249 6.73169 18.1093 5.70591C18.2451 5.52866 18.3959 5.45701 18.6297 5.45701C18.8749 5.45701 19.1954 5.54375 19.5537 5.70591L22.3821 6.9806L20.6775 4.38597C20.621 4.303 19.2897 2.31177 17.0496 2.31177V2.30423Z" fill="#0D0711"/>
<path d="M91.5893 76.3455C86.3699 73.5359 67.4985 61.0869 66.2954 59.8839C66.2954 59.8839 60.4877 62.5238 53.8955 63.9305C55.2418 66.8947 58.3041 71.7257 64.538 73.9356C73.8719 77.2468 90.1336 79.0985 92.5434 82.2173C93.9727 84.0653 93.8106 80.8559 91.6836 76.4021C91.6496 76.3832 91.6232 76.3643 91.5893 76.3455Z" fill="#E66472"/>
<path d="M17.9135 3.20934C17.9135 3.20934 12.8713 3.11128 16.107 11.9021C32.3687 56.0674 34.5862 58.0624 35.6799 61.6866C35.6799 61.6866 41.7026 73.732 67.0493 60.4835" stroke="#0D0711" stroke-width="0.8" stroke-linejoin="round"/>
<path d="M7.27441 84.6347C7.30458 87.7762 7.27441 89.7938 7.27441 89.7938C7.27441 89.7938 8.26249 92.3319 12.0752 90.3255C12.0752 90.3255 12.0338 88.7341 12.0111 86.2036L9.95955 86.6674L7.27441 84.6347Z" fill="#0D0711"/>
<path d="M10.1861 34.9558C15.8656 36.8339 12.1585 17.9097 12.4225 6.86368C12.117 7.3464 11.8078 7.88569 11.491 8.49286C11.491 8.49286 5.53993 18.7469 2.72656 27.3228C4.13702 30.3926 6.52045 33.749 10.1861 34.9596V34.9558Z" fill="#E66472"/>
<path d="M82.9079 80.2751C82.9079 80.2751 65.8957 76.4925 60.0238 75.4404C54.152 74.3882 49.1814 77.6994 50.6899 79.2041C52.1947 80.7088 76.1347 84.2086 82.9116 80.2751H82.9079Z" fill="#E66472"/>
<path opacity="0.4" d="M95.1606 83.6693C86.0907 84.2199 40.7073 86.5317 36.4495 77.9973C31.7166 68.5126 17.4725 48.3363 12.4756 43.8183C9.485 41.1143 4.5635 37.739 1.29004 34.5184C1.29758 35.5781 1.47106 36.4907 1.85573 37.1922C5.26872 43.4148 23.137 59.273 27.9529 72.5252C32.7726 85.7736 40.6017 88.7869 46.021 88.7869C51.4403 88.7869 94.8023 85.9773 94.8023 85.9773C94.8023 85.9773 95.0852 85.0156 95.1606 83.6693Z" fill="#E66472"/>
</g>
<defs>
<clipPath id="clip0_156_71412">
<rect width="123.988" height="92" fill="white" transform="translate(0.196289)"/>
</clipPath>
</defs>
</svg>
