<svg width="93" height="92" viewBox="0 0 93 92" fill="none" xmlns="http://www.w3.org/2000/svg">
<g clip-path="url(#clip0_156_71326)">
<path d="M6.41103 48.769C7.38831 48.0767 13.0484 51.7958 18.627 52.4745C23.9613 53.126 29.1328 50.7642 33.9242 48.769C33.9242 48.769 31.1009 60.0891 18.9256 59.5326C6.76394 58.9625 6.39746 48.769 6.39746 48.769H6.41103Z" fill="#536580"/>
<path d="M91.937 74.9247C93.6201 79.7568 87.6614 83.6117 79.4088 85.3083C72.1607 86.7878 52.9815 85.5255 34.644 85.1047C21.0842 84.7925 7.9724 84.7925 0.222028 82.4172C0.127014 77.0693 1.64723 69.9705 2.40733 63.0481C3.26245 55.3791 3.4932 49.0811 6.39789 48.7554C9.30258 48.4296 12.5195 56.275 22.0344 54.7005C31.5493 53.1124 31.8072 46.8687 37.698 48.3074C43.5752 49.7462 47.0229 64.9348 67.3421 67.4187C75.9883 68.4638 88.7065 69.984 91.937 74.9247Z" fill="#7D99C0"/>
<path d="M87.7425 86.5571C83.5348 89.9097 78.3226 91.6878 72.9476 91.9185C64.0842 92.2986 46.3846 91.1584 30.9653 91.0634C16.8219 90.9684 4.64658 92.0678 2.25768 89.5025C0.791759 87.928 0.248826 85.4576 0.22168 82.4308C7.97205 84.8061 21.0839 84.8061 34.6436 85.1183C52.9812 85.5391 72.1603 86.8014 79.4085 85.3219C87.6746 83.6252 93.2804 78.0194 91.9366 74.9383C92.2896 75.4677 92.5339 76.0377 92.6424 76.6621C93.3754 80.7477 90.8508 84.0867 87.7289 86.5706L87.7425 86.5571Z" fill="white"/>
<path d="M44.1182 54.1168C41.3221 55.6913 39.259 58.1617 37.5352 61.0664" stroke="white" stroke-width="0.93" stroke-linecap="round" stroke-linejoin="round"/>
<path d="M48.1768 59.0304C45.3807 60.6049 43.3176 63.0752 41.5938 65.9799" stroke="white" stroke-width="0.93" stroke-linecap="round" stroke-linejoin="round"/>
<path d="M53.0762 62.5051C50.2801 64.0796 48.217 66.55 46.4932 69.4547" stroke="white" stroke-width="0.93" stroke-linecap="round" stroke-linejoin="round"/>
<path d="M58.4249 65.4234C55.6288 66.9979 53.5656 69.4683 51.8418 72.3729" stroke="white" stroke-width="0.93" stroke-linecap="round" stroke-linejoin="round"/>
<path d="M65.0079 67.0793C62.2118 68.6539 60.1486 71.1242 58.4248 74.0289" stroke="white" stroke-width="0.93" stroke-linecap="round" stroke-linejoin="round"/>
<path d="M72.6085 68.1245C69.8124 69.699 67.7492 72.1694 66.0254 75.0741" stroke="white" stroke-width="0.93" stroke-linecap="round" stroke-linejoin="round"/>
<path d="M80.5626 69.604C77.7664 71.1785 75.7033 73.6489 73.9795 76.5536" stroke="white" stroke-width="0.93" stroke-linecap="round" stroke-linejoin="round"/>
<path d="M86.603 43.231C85.6257 43.9233 79.9656 40.2042 74.387 39.5255C69.0527 38.874 63.8812 41.2357 59.0898 43.231C59.0898 43.231 61.9131 31.9109 74.0884 32.4674C86.2501 33.0375 86.6166 43.231 86.6166 43.231H86.603Z" fill="#536580"/>
<path d="M1.06393 17.0617C-0.619158 12.2296 5.33953 8.37473 13.5921 6.67806C20.8403 5.19857 40.0194 6.46089 58.3569 6.88166C71.9167 7.19385 85.0285 7.19385 92.7789 9.56918C92.8739 14.9171 91.3537 22.0159 90.5936 28.9383C89.7385 36.6072 89.5077 42.9053 86.603 43.231C83.6983 43.5568 80.4815 35.7114 70.9666 37.2859C61.4517 38.874 61.1938 45.1177 55.3029 43.679C49.4257 42.2402 45.9781 27.0516 25.6588 24.5677C17.0126 23.5226 4.29439 22.0023 1.06393 17.0617Z" fill="#7D99C0"/>
<path d="M5.27178 5.42933C9.47951 2.07672 14.6917 0.298611 20.0667 0.0814377C28.9301 -0.298615 46.6297 0.841544 62.049 0.936557C76.1924 1.03157 88.3677 -0.0678688 90.7566 2.49749C92.2089 4.072 92.7519 6.54234 92.779 9.56919C85.0286 7.19386 71.9168 7.19386 58.3571 6.88167C40.0195 6.4609 20.8404 5.19858 13.5922 6.67807C5.32607 8.37474 -0.279715 13.9805 1.06404 17.0617C0.711138 16.5323 0.466818 15.9622 0.358231 15.3379C-0.374728 11.2523 2.14991 7.91325 5.27178 5.42933Z" fill="white"/>
<path d="M48.8965 37.8832C51.6926 36.3087 53.7557 33.8383 55.4795 30.9337" stroke="white" stroke-width="0.93" stroke-linecap="round" stroke-linejoin="round"/>
<path d="M44.8379 32.9696C47.634 31.3951 49.6971 28.9248 51.421 26.0201" stroke="white" stroke-width="0.93" stroke-linecap="round" stroke-linejoin="round"/>
<path d="M39.9385 29.4949C42.7346 27.9204 44.7977 25.45 46.5215 22.5453" stroke="white" stroke-width="0.93" stroke-linecap="round" stroke-linejoin="round"/>
<path d="M34.5762 26.563C37.3723 24.9885 39.4354 22.5182 41.1592 19.6135" stroke="white" stroke-width="0.93" stroke-linecap="round" stroke-linejoin="round"/>
<path d="M27.9932 24.9207C30.7893 23.3462 32.8524 20.8758 34.5762 17.9711" stroke="white" stroke-width="0.93" stroke-linecap="round" stroke-linejoin="round"/>
<path d="M20.3926 23.862C23.1887 22.2875 25.2518 19.8171 26.9756 16.9124" stroke="white" stroke-width="0.93" stroke-linecap="round" stroke-linejoin="round"/>
<path d="M12.4385 22.396C15.2346 20.8215 17.2977 18.3512 19.0215 15.4465" stroke="white" stroke-width="0.93" stroke-linecap="round" stroke-linejoin="round"/>
</g>
<defs>
<clipPath id="clip0_156_71326">
<rect width="92.5565" height="92" fill="white" transform="translate(0.22168)"/>
</clipPath>
</defs>
</svg>
