<svg width="62" height="88" viewBox="0 0 62 88" fill="none" xmlns="http://www.w3.org/2000/svg">
<g clip-path="url(#clip0_156_71185)">
<path d="M2.23491 66.65C0.814909 61.9 0.0549092 57.32 0.304909 54.17C0.444909 52.38 0.764909 50.62 1.19491 48.84C0.424909 63.71 7.93491 73.85 15.5049 66.51C15.5049 66.51 24.0549 75.8 27.6349 57.87C27.8949 60.54 27.7649 63.82 27.2749 67.21C21.9449 77.7 15.5049 70.26 15.5049 70.26C11.9049 75.44 4.28491 72.86 2.28491 66.82C2.26491 66.76 2.24491 66.71 2.23491 66.65Z" fill="#42302E"/>
<path d="M27.6352 57.86C24.0552 75.8 15.5052 66.51 15.5052 66.51C7.93519 73.85 0.425186 63.71 1.19519 48.84C1.92519 45.78 2.96519 42.67 3.93519 39.28C3.86519 45.4 0.815187 62.81 15.5052 62.81C28.5352 62.81 23.9752 46.92 24.6052 37.9C25.1452 44.26 26.1552 50.8 27.2652 55.57C27.4252 56.27 27.5452 57.03 27.6352 57.86Z" fill="#322423"/>
<path d="M17.0952 0.880005C23.7952 0.880005 25.5252 11.14 24.9152 19.22C24.9152 19.22 24.9152 19.24 24.9152 19.25C19.5552 40.46 28.6552 60.09 15.1452 60.4L15.0652 57.86C14.8952 57.08 14.7252 56.22 14.5652 55.32H14.5752C14.7652 50.23 14.8152 35.35 15.5152 33.69C15.8752 32.85 16.9352 31.58 18.0852 29.37C19.2152 27.23 20.4252 24.21 21.1752 19.83C22.6952 10.92 20.7952 4.31 16.5952 3.93C12.8152 3.59 9.90523 7.64001 9.40523 15.48L6.61523 15.31C7.30523 4.04 12.0452 0.880005 17.0952 0.880005Z" fill="#57423F"/>
<path style="mix-blend-mode:screen" d="M17.0952 0.880005C23.7952 0.880005 25.5252 11.14 24.9152 19.22C24.9152 19.22 24.9152 19.24 24.9152 19.25C19.5552 40.46 28.6552 60.09 15.1452 60.4L15.0652 57.86C14.8952 57.08 14.7252 56.22 14.5652 55.32H14.5752C14.7652 50.23 14.8152 35.35 15.5152 33.69C15.8752 32.85 16.9352 31.58 18.0852 29.37C19.2152 27.23 20.4252 24.21 21.1752 19.83C22.6952 10.92 20.7952 4.31 16.5952 3.93C12.8152 3.59 9.90523 7.64001 9.40523 15.48L6.61523 15.31C7.30523 4.04 12.0452 0.880005 17.0952 0.880005Z" fill="url(#paint0_linear_156_71185)"/>
<path d="M24.9051 19.25C24.8351 20.2 24.7251 21.12 24.5951 21.99C23.9751 26.01 24.0851 31.86 24.6051 37.88V37.9C23.9751 46.92 28.5351 62.81 15.5051 62.81C0.815125 62.81 3.86512 45.4 3.93512 39.28C5.10512 35.18 6.16512 30.66 6.47512 25.29C6.91512 35.22 0.815125 60.41 14.8051 60.41C14.9151 60.41 15.0251 60.41 15.1351 60.4C28.6451 60.09 19.5451 40.46 24.9051 19.25Z" fill="#42302E"/>
<path d="M16.585 3.93C20.785 4.31 22.685 10.92 21.165 19.83C20.415 24.21 19.205 27.23 18.075 29.37C17.375 27.92 16.395 29.5 14.665 29.88C12.935 30.26 11.335 27.78 11.145 29.37C10.305 27.04 9.45501 23.77 9.33501 19.07C9.30501 17.8 9.33501 16.6 9.39501 15.48C9.89501 7.64 12.805 3.59 16.585 3.93Z" fill="#C4966E"/>
<g style="mix-blend-mode:multiply">
<path d="M16.5848 3.93C12.8048 3.59 9.89479 7.64 9.39479 15.48C9.32479 16.6 9.30479 17.8 9.33479 19.07C9.41479 22.4 9.87479 25 10.4248 27.07C10.6448 19.51 14.2648 8.51 20.8048 8.04C19.9548 5.61 18.5148 4.1 16.5848 3.93Z" fill="#DBD2D0"/>
</g>
<path d="M15.5052 70.26C15.5052 70.26 21.9452 77.7 27.2752 67.21C25.9152 76.78 21.8052 87.21 16.3252 87.12C10.9552 87.04 5.23516 76.61 2.28516 66.82C4.28516 72.86 11.9052 75.44 15.5052 70.26Z" fill="#503D3A"/>
<path style="mix-blend-mode:screen" d="M15.5052 70.26C15.5052 70.26 21.9452 77.7 27.2752 67.21C25.9152 76.78 21.8052 87.21 16.3252 87.12C10.9552 87.04 5.23516 76.61 2.28516 66.82C4.28516 72.86 11.9052 75.44 15.5052 70.26Z" fill="url(#paint1_linear_156_71185)"/>
<g style="mix-blend-mode:multiply">
<path d="M27.6345 57.87C27.5445 57.03 27.4245 56.27 27.2645 55.57C26.1545 50.8 25.1445 44.26 24.6045 37.9V37.88C24.0845 31.86 23.9745 26.01 24.5945 21.99C24.7245 21.12 24.8345 20.2 24.9045 19.25C24.9045 19.25 24.9045 19.23 24.9045 19.22C25.5145 11.14 23.7845 0.880005 17.0845 0.880005C12.0445 0.880005 7.30449 4.04 6.60449 15.31L9.39449 15.48C9.89449 7.64001 12.8045 3.59 16.5845 3.93C16.9145 3.96 17.2245 4.03 17.5245 4.14C23.2945 4.33 23.8245 17.42 21.5845 24.29C22.4645 54.08 30.4145 67.74 17.8345 86.88C22.5545 85.26 26.0445 75.88 27.2745 67.22C27.7645 63.83 27.8945 60.55 27.6345 57.88V57.87Z" fill="#DBC9C5"/>
</g>
<path d="M18.0745 29.37C16.9245 31.58 15.8645 32.85 15.5045 33.69C14.8045 35.35 14.7545 50.23 14.5645 55.32H14.5545C13.2545 47.66 12.6745 36.29 12.9545 34.58C13.1245 33.56 12.1345 32.09 11.1445 29.37C11.3345 27.78 12.9345 30.26 14.6645 29.88C16.3945 29.5 17.3745 27.92 18.0745 29.37Z" fill="#322423"/>
<path style="mix-blend-mode:screen" d="M18.0745 29.37C16.9245 31.58 15.8645 32.85 15.5045 33.69C14.8045 35.35 14.7545 50.23 14.5645 55.32H14.5545C13.2545 47.66 12.6745 36.29 12.9545 34.58C13.1245 33.56 12.1345 32.09 11.1445 29.37C11.3345 27.78 12.9345 30.26 14.6645 29.88C16.3945 29.5 17.3745 27.92 18.0745 29.37Z" fill="url(#paint2_linear_156_71185)"/>
<path d="M15.0552 57.86L15.1352 60.4C15.0252 60.41 14.9152 60.41 14.8052 60.41C0.815243 60.41 6.91524 35.22 6.47524 25.29C6.56524 23.72 6.59524 22.07 6.53524 20.34C6.47524 18.51 6.49524 16.83 6.60524 15.31L9.39524 15.48C9.32524 16.6 9.30524 17.8 9.33524 19.07C9.45524 23.77 10.3052 27.04 11.1452 29.37C12.1352 32.09 13.1252 33.56 12.9552 34.58C12.6752 36.29 13.2552 47.66 14.5552 55.32C14.7152 56.22 14.8852 57.08 15.0552 57.86Z" fill="#57423F"/>
<path style="mix-blend-mode:screen" d="M15.0552 57.86L15.1352 60.4C15.0252 60.41 14.9152 60.41 14.8052 60.41C0.815243 60.41 6.91524 35.22 6.47524 25.29C6.56524 23.72 6.59524 22.07 6.53524 20.34C6.47524 18.51 6.49524 16.83 6.60524 15.31L9.39524 15.48C9.32524 16.6 9.30524 17.8 9.33524 19.07C9.45524 23.77 10.3052 27.04 11.1452 29.37C12.1352 32.09 13.1252 33.56 12.9552 34.58C12.6752 36.29 13.2552 47.66 14.5552 55.32C14.7152 56.22 14.8852 57.08 15.0552 57.86Z" fill="url(#paint3_linear_156_71185)"/>
<g style="mix-blend-mode:screen">
<path d="M5.13491 60.41C5.55491 46.9 9.84491 38.28 9.80491 24.16C9.56491 22.68 9.38491 21 9.33491 19.07C9.30491 17.8 9.33491 16.6 9.39491 15.48C9.42491 15.05 9.46491 14.63 9.50491 14.23C9.78491 8.51001 12.8749 2.91 17.7249 0.910005C17.5149 0.890005 17.3049 0.880005 17.0849 0.880005C12.0449 0.880005 7.30491 4.04 6.60491 15.31C6.49491 16.83 6.47491 18.51 6.53491 20.34C6.59491 22.07 6.56491 23.72 6.47491 25.29C6.16491 30.66 5.10491 35.18 3.93491 39.28C2.96491 42.67 1.92491 45.78 1.19491 48.83C0.764909 50.62 0.444909 52.38 0.304909 54.17C0.0549092 57.32 0.814909 61.9 2.23491 66.65C2.23491 66.71 2.26491 66.76 2.28491 66.82C5.23491 76.61 10.9549 87.04 16.3249 87.12C17.3249 87.14 18.2749 86.79 19.1749 86.17C12.8749 81.6 4.87491 68.61 5.13491 60.41Z" fill="#171111"/>
</g>
<path d="M14.9052 56.3201C13.0752 56.3201 11.5752 55.6301 11.4852 55.5901C10.9852 55.3601 10.7752 54.7601 11.0052 54.2601C11.2352 53.7601 11.8352 53.5401 12.3352 53.7801C12.3952 53.8001 14.9752 54.9601 16.9452 53.8201C17.4252 53.5401 18.0352 53.7101 18.3152 54.1901C18.5952 54.6701 18.4252 55.2801 17.9452 55.5601C16.9452 56.1401 15.8752 56.3301 14.9152 56.3301L14.9052 56.3201Z" fill="#382624"/>
<path d="M14.8446 52.1C13.0146 52.1 11.5146 51.41 11.4246 51.37C10.9246 51.14 10.7146 50.54 10.9446 50.04C11.1746 49.54 11.7746 49.32 12.2746 49.56C12.3346 49.59 14.9146 50.74 16.8846 49.6C17.3646 49.32 17.9746 49.49 18.2546 49.97C18.5346 50.45 18.3646 51.06 17.8846 51.34C16.8846 51.92 15.8146 52.11 14.8546 52.11L14.8446 52.1Z" fill="#382624"/>
<path d="M14.7753 47.8801C12.9453 47.8801 11.4453 47.1901 11.3553 47.1501C10.8553 46.9201 10.6453 46.3201 10.8753 45.8201C11.1053 45.3201 11.7053 45.1001 12.2053 45.3401C12.2653 45.3701 14.8453 46.5201 16.8153 45.3801C17.2953 45.1001 17.9053 45.2701 18.1853 45.7501C18.4653 46.2301 18.2953 46.8401 17.8153 47.1201C16.8153 47.7001 15.7453 47.8901 14.7853 47.8901L14.7753 47.8801Z" fill="#382624"/>
<path d="M14.7147 43.67C12.8847 43.67 11.3847 42.98 11.2947 42.94C10.7947 42.71 10.5847 42.11 10.8147 41.61C11.0447 41.11 11.6347 40.89 12.1447 41.13C12.1847 41.15 14.7747 42.31 16.7547 41.17C17.2347 40.89 17.8447 41.06 18.1247 41.54C18.4047 42.02 18.2347 42.63 17.7547 42.91C16.7547 43.49 15.6847 43.68 14.7247 43.68L14.7147 43.67Z" fill="#382624"/>
<path d="M14.6444 39.45C12.8144 39.45 11.3144 38.76 11.2244 38.72C10.7244 38.49 10.5144 37.89 10.7444 37.39C10.9744 36.89 11.5744 36.68 12.0744 36.91C12.0744 36.91 14.6944 38.1 16.6844 36.95C17.1644 36.67 17.7744 36.84 18.0544 37.32C18.3344 37.8 18.1644 38.41 17.6844 38.69C16.6844 39.27 15.6144 39.46 14.6544 39.46L14.6444 39.45Z" fill="#382624"/>
<path d="M14.5848 35.23C12.7548 35.23 11.2548 34.54 11.1648 34.5C10.6648 34.27 10.4548 33.67 10.6848 33.17C10.9148 32.67 11.5048 32.45 12.0148 32.69C12.0148 32.69 14.6348 33.88 16.6248 32.73C17.1048 32.45 17.7148 32.62 17.9948 33.1C18.2748 33.58 18.1048 34.19 17.6248 34.47C16.6248 35.05 15.5548 35.24 14.5948 35.24L14.5848 35.23Z" fill="#382624"/>
<path d="M4.08516 66.56C4.08516 66.92 3.79516 67.21 3.43516 67.21C3.07516 67.21 2.78516 66.92 2.78516 66.56C2.78516 66.2 3.07516 65.91 3.43516 65.91C3.79516 65.91 4.08516 66.2 4.08516 66.56Z" fill="#322423"/>
<path d="M2.70527 63.08C2.70527 63.44 2.41527 63.73 2.05527 63.73C1.69527 63.73 1.40527 63.44 1.40527 63.08C1.40527 62.72 1.69527 62.43 2.05527 62.43C2.41527 62.43 2.70527 62.72 2.70527 63.08Z" fill="#322423"/>
<path d="M6.43574 69.17C6.43574 69.53 6.14574 69.82 5.78574 69.82C5.42574 69.82 5.13574 69.53 5.13574 69.17C5.13574 68.81 5.42574 68.52 5.78574 68.52C6.14574 68.52 6.43574 68.81 6.43574 69.17Z" fill="#322423"/>
<path d="M9.88496 70.92C9.88496 71.28 9.59496 71.57 9.23496 71.57C8.87496 71.57 8.58496 71.28 8.58496 70.92C8.58496 70.56 8.87496 70.27 9.23496 70.27C9.59496 70.27 9.88496 70.56 9.88496 70.92Z" fill="#322423"/>
<path d="M13.4152 70.26C13.4152 70.62 13.1252 70.91 12.7652 70.91C12.4052 70.91 12.1152 70.62 12.1152 70.26C12.1152 69.9 12.4052 69.61 12.7652 69.61C13.1252 69.61 13.4152 69.9 13.4152 70.26Z" fill="#322423"/>
<path d="M16.1555 68.51C16.1555 68.87 15.8655 69.16 15.5055 69.16C15.1455 69.16 14.8555 68.87 14.8555 68.51C14.8555 68.15 15.1455 67.86 15.5055 67.86C15.8655 67.86 16.1555 68.15 16.1555 68.51Z" fill="#322423"/>
<path d="M19.0754 70.26C19.0754 70.62 18.7854 70.91 18.4254 70.91C18.0654 70.91 17.7754 70.62 17.7754 70.26C17.7754 69.9 18.0654 69.61 18.4254 69.61C18.7854 69.61 19.0754 69.9 19.0754 70.26Z" fill="#322423"/>
<path d="M22.635 70.47C22.635 70.83 22.345 71.12 21.985 71.12C21.625 71.12 21.335 70.83 21.335 70.47C21.335 70.11 21.625 69.82 21.985 69.82C22.345 69.82 22.635 70.11 22.635 70.47Z" fill="#322423"/>
<path d="M25.2453 68.51C25.2453 68.87 24.9553 69.16 24.5953 69.16C24.2353 69.16 23.9453 68.87 23.9453 68.51C23.9453 68.15 24.2353 67.86 24.5953 67.86C24.9553 67.86 25.2453 68.15 25.2453 68.51Z" fill="#322423"/>
<path d="M27.2756 65.36C27.2756 65.72 26.9856 66.01 26.6256 66.01C26.2656 66.01 25.9756 65.72 25.9756 65.36C25.9756 65 26.2656 64.71 26.6256 64.71C26.9856 64.71 27.2756 65 27.2756 65.36Z" fill="#322423"/>
<g style="mix-blend-mode:screen">
<path d="M14.2849 34.17C13.0949 34.17 12.1449 33.91 11.5749 33.7C11.4749 33.66 11.4149 33.55 11.4549 33.44C11.4949 33.34 11.6049 33.28 11.7149 33.32C12.6349 33.66 14.5249 34.11 16.8549 33.35C16.9549 33.32 17.0749 33.37 17.1049 33.48C17.1349 33.59 17.0849 33.7 16.9749 33.73C15.9949 34.05 15.0849 34.17 14.2849 34.17Z" fill="#2E201C"/>
</g>
<g style="mix-blend-mode:screen">
<path d="M14.2849 38.29C13.0949 38.29 12.1449 38.03 11.5749 37.82C11.4749 37.78 11.4149 37.67 11.4549 37.56C11.4949 37.46 11.6049 37.4 11.7149 37.44C12.6349 37.78 14.5249 38.23 16.8549 37.47C16.9549 37.43 17.0749 37.49 17.1049 37.6C17.1349 37.71 17.0849 37.82 16.9749 37.85C15.9949 38.17 15.0849 38.29 14.2849 38.29Z" fill="#2E201C"/>
</g>
<g style="mix-blend-mode:screen">
<path d="M14.2849 42.41C13.0949 42.41 12.1449 42.15 11.5749 41.94C11.4749 41.9 11.4149 41.79 11.4549 41.68C11.4949 41.58 11.6049 41.52 11.7149 41.56C12.6349 41.9 14.5249 42.35 16.8549 41.59C16.9549 41.56 17.0749 41.61 17.1049 41.72C17.1349 41.82 17.0849 41.94 16.9749 41.97C15.9949 42.29 15.0849 42.41 14.2849 42.41Z" fill="#2E201C"/>
</g>
<g style="mix-blend-mode:screen">
<path d="M14.4949 46.75C13.3049 46.75 12.3549 46.49 11.7849 46.28C11.6849 46.24 11.6249 46.13 11.6649 46.02C11.7049 45.92 11.8149 45.86 11.9249 45.9C12.8449 46.24 14.7349 46.69 17.0649 45.93C17.1749 45.9 17.2849 45.95 17.3149 46.06C17.3449 46.16 17.2949 46.28 17.1849 46.31C16.2049 46.63 15.2949 46.75 14.4949 46.75Z" fill="#2E201C"/>
</g>
<g style="mix-blend-mode:screen">
<path d="M14.365 50.87C13.175 50.87 12.225 50.61 11.655 50.4C11.555 50.36 11.495 50.25 11.535 50.14C11.575 50.04 11.685 49.98 11.795 50.02C12.715 50.36 14.605 50.81 16.935 50.05C17.035 50.02 17.155 50.07 17.185 50.18C17.215 50.28 17.165 50.4 17.055 50.43C16.075 50.75 15.165 50.87 14.365 50.87Z" fill="#2E201C"/>
</g>
<g style="mix-blend-mode:screen">
<path d="M14.4949 55.04C13.3049 55.04 12.3549 54.78 11.7849 54.57C11.6849 54.53 11.6249 54.42 11.6649 54.31C11.7049 54.21 11.8149 54.15 11.9249 54.19C12.8449 54.53 14.7349 54.98 17.0649 54.22C17.1749 54.19 17.2849 54.24 17.3149 54.35C17.3449 54.46 17.2949 54.57 17.1849 54.6C16.2049 54.92 15.2949 55.04 14.4949 55.04Z" fill="#2E201C"/>
</g>
<g style="mix-blend-mode:multiply">
<path d="M4.78539 37.86L4.59539 39.85L4.52539 39.84L4.78539 37.86Z" fill="#D4BCBA"/>
<path d="M4.51512 40.85C4.46512 41.52 4.42512 42.18 4.40512 42.85H4.24512C4.29512 42.18 4.35512 41.51 4.42512 40.85H4.51512Z" fill="#D4BCBA"/>
<path d="M4.375 43.84C4.365 44.51 4.375 45.17 4.375 45.84H4.125C4.125 45.17 4.155 44.5 4.185 43.84H4.375Z" fill="#D4BCBA"/>
<path d="M4.395 46.83C4.425 47.5 4.465 48.16 4.525 48.82L4.215 48.85C4.165 48.18 4.135 47.51 4.125 46.85H4.395V46.83Z" fill="#D4BCBA"/>
<path d="M4.63543 49.8C4.72543 50.46 4.82543 51.12 4.95543 51.76L4.60543 51.83C4.48543 51.16 4.39543 50.5 4.31543 49.84L4.63543 49.8Z" fill="#D4BCBA"/>
<path d="M5.17543 52.73C5.33543 53.38 5.52543 54 5.75543 54.62L5.36543 54.76C5.14543 54.13 4.95543 53.47 4.81543 52.82L5.18543 52.73H5.17543Z" fill="#D4BCBA"/>
<path d="M6.11461 55.54C6.38461 56.16 6.68461 56.72 7.03461 57.28L6.66461 57.52C6.30461 56.95 5.98461 56.33 5.72461 55.72L6.11461 55.54Z" fill="#D4BCBA"/>
<path d="M7.60488 58.07C8.02488 58.6 8.45488 59.05 8.96488 59.47L8.67488 59.82C8.15488 59.39 7.66488 58.87 7.25488 58.35L7.59488 58.07H7.60488Z" fill="#D4BCBA"/>
<path d="M9.74488 60.04C10.3149 60.4 10.8749 60.67 11.4949 60.89L11.3349 61.34C10.7049 61.11 10.0549 60.8 9.50488 60.44L9.74488 60.05V60.04Z" fill="#D4BCBA"/>
<path d="M12.435 61.16C13.095 61.31 13.715 61.4 14.375 61.43L14.345 61.92C13.675 61.88 12.975 61.78 12.335 61.62L12.435 61.15V61.16Z" fill="#D4BCBA"/>
<path d="M15.3555 61.45C16.0255 61.44 16.6655 61.41 17.3155 61.31L17.3855 61.8C16.7155 61.9 16.0255 61.94 15.3655 61.95V61.45H15.3555Z" fill="#D4BCBA"/>
<path d="M18.2649 61.12C18.5949 61.03 18.8749 60.93 19.1749 60.8C19.4649 60.67 19.7549 60.52 20.0149 60.35L20.2749 60.75C19.9849 60.94 19.6749 61.11 19.3649 61.25C19.0549 61.39 18.7049 61.51 18.3949 61.59L18.2549 61.12H18.2649Z" fill="#D4BCBA"/>
<path d="M20.7754 59.76C21.0254 59.53 21.2254 59.31 21.4354 59.05C21.6354 58.8 21.8154 58.53 21.9854 58.25L22.3754 58.48C22.2054 58.77 22.0054 59.06 21.7954 59.33C21.5854 59.6 21.3454 59.87 21.1054 60.09L20.7754 59.75V59.76Z" fill="#D4BCBA"/>
<path d="M22.4346 57.4C22.7146 56.79 22.9346 56.19 23.1246 55.55L23.5446 55.67C23.3546 56.31 23.1246 56.97 22.8446 57.57L22.4346 57.39V57.4Z" fill="#D4BCBA"/>
<path d="M23.375 54.6C23.525 53.95 23.645 53.31 23.755 52.65L24.175 52.71C24.075 53.37 23.955 54.04 23.805 54.69L23.385 54.6H23.375Z" fill="#D4BCBA"/>
<path d="M23.8945 51.67C23.9845 51.01 24.0445 50.35 24.1045 49.69L24.4745 49.72C24.4345 50.39 24.3745 51.06 24.3045 51.72L23.9045 51.67H23.8945Z" fill="#D4BCBA"/>
<path d="M24.1748 48.7C24.2148 48.03 24.2448 47.37 24.2648 46.71H24.5748C24.5748 47.38 24.5548 48.05 24.5248 48.72L24.1748 48.7Z" fill="#D4BCBA"/>
<path d="M24.2754 45.71V43.71L24.5354 43.7L24.5754 45.71H24.2754Z" fill="#D4BCBA"/>
<path d="M24.2646 42.71L24.2246 40.71H24.3946L24.5046 42.7L24.2646 42.71Z" fill="#D4BCBA"/>
<path d="M24.1847 39.72L24.0947 37.72L24.1747 37.71L24.3247 39.71L24.1847 39.72Z" fill="#D4BCBA"/>
<path d="M24.0353 36.72L23.9453 35.23L24.0853 36.72H24.0353Z" fill="#D4BCBA"/>
</g>
<path d="M59.7645 66.65C61.1845 61.9 61.9445 57.32 61.6945 54.17C61.5545 52.38 61.2345 50.62 60.8045 48.84C61.5745 63.71 54.0645 73.85 46.4945 66.51C46.4945 66.51 37.9445 75.8 34.3645 57.87C34.1045 60.54 34.2345 63.82 34.7245 67.21C40.0545 77.7 46.4945 70.26 46.4945 70.26C50.0945 75.44 57.7145 72.86 59.7145 66.82C59.7345 66.76 59.7545 66.71 59.7645 66.65Z" fill="#42302E"/>
<path d="M34.3643 57.86C37.9443 75.8 46.4943 66.51 46.4943 66.51C54.0643 73.85 61.5743 63.71 60.8043 48.84C60.0743 45.78 59.0343 42.67 58.0643 39.28C58.1343 45.4 61.1843 62.81 46.4943 62.81C33.4643 62.81 38.0243 46.92 37.3943 37.9C36.8543 44.26 35.8443 50.8 34.7343 55.57C34.5743 56.27 34.4543 57.03 34.3643 57.86Z" fill="#322423"/>
<path d="M44.9047 0.880005C38.2047 0.880005 36.4747 11.14 37.0847 19.22C37.0847 19.22 37.0847 19.24 37.0847 19.25C42.4447 40.46 33.3447 60.09 46.8547 60.4L46.9347 57.86C47.1047 57.08 47.2747 56.22 47.4347 55.32H47.4247C47.2347 50.23 47.1847 35.35 46.4847 33.69C46.1247 32.85 45.0647 31.58 43.9147 29.37C42.7847 27.23 41.5747 24.21 40.8247 19.83C39.3047 10.92 41.2047 4.31 45.4047 3.93C49.1847 3.59 52.0947 7.64001 52.5947 15.48L55.3847 15.31C54.6847 4.04 49.9447 0.880005 44.8947 0.880005L44.9047 0.880005Z" fill="#57423F"/>
<path style="mix-blend-mode:screen" d="M44.9047 0.880005C38.2047 0.880005 36.4747 11.14 37.0847 19.22C37.0847 19.22 37.0847 19.24 37.0847 19.25C42.4447 40.46 33.3447 60.09 46.8547 60.4L46.9347 57.86C47.1047 57.08 47.2747 56.22 47.4347 55.32H47.4247C47.2347 50.23 47.1847 35.35 46.4847 33.69C46.1247 32.85 45.0647 31.58 43.9147 29.37C42.7847 27.23 41.5747 24.21 40.8247 19.83C39.3047 10.92 41.2047 4.31 45.4047 3.93C49.1847 3.59 52.0947 7.64001 52.5947 15.48L55.3847 15.31C54.6847 4.04 49.9447 0.880005 44.8947 0.880005L44.9047 0.880005Z" fill="url(#paint4_linear_156_71185)"/>
<path d="M37.0947 19.25C37.1647 20.2 37.2747 21.12 37.4047 21.99C38.0247 26.01 37.9147 31.86 37.3947 37.88V37.9C38.0247 46.92 33.4647 62.81 46.4947 62.81C61.1847 62.81 58.1347 45.4 58.0647 39.28C56.8947 35.18 55.8347 30.66 55.5247 25.29C55.0847 35.22 61.1847 60.41 47.1947 60.41C47.0847 60.41 46.9747 60.41 46.8647 60.4C33.3547 60.09 42.4547 40.46 37.0947 19.25Z" fill="#42302E"/>
<path d="M45.4141 3.93C41.2141 4.31 39.3141 10.92 40.8341 19.83C41.5841 24.21 42.7941 27.23 43.9241 29.37C44.6241 27.92 45.6041 29.5 47.3341 29.88C49.0641 30.26 50.6641 27.78 50.8541 29.37C51.6941 27.04 52.5441 23.77 52.6641 19.07C52.6941 17.8 52.6641 16.6 52.6041 15.48C52.1041 7.64 49.1941 3.59 45.4141 3.93Z" fill="#C4966E"/>
<g style="mix-blend-mode:multiply">
<path d="M45.4143 3.93C49.1943 3.59 52.1043 7.64 52.6043 15.48C52.6743 16.6 52.6943 17.8 52.6643 19.07C52.5843 22.4 52.1243 25 51.5743 27.07C51.3543 19.51 47.7343 8.51 41.1943 8.04C42.0443 5.61 43.4843 4.1 45.4143 3.93Z" fill="#DBD2D0"/>
</g>
<path d="M46.4946 70.26C46.4946 70.26 40.0546 77.7 34.7246 67.21C36.0846 76.78 40.1946 87.21 45.6746 87.12C51.0446 87.04 56.7646 76.61 59.7146 66.82C57.7146 72.86 50.0946 75.44 46.4946 70.26Z" fill="#503D3A"/>
<path style="mix-blend-mode:screen" d="M46.4946 70.26C46.4946 70.26 40.0546 77.7 34.7246 67.21C36.0846 76.78 40.1946 87.21 45.6746 87.12C51.0446 87.04 56.7646 76.61 59.7146 66.82C57.7146 72.86 50.0946 75.44 46.4946 70.26Z" fill="url(#paint5_linear_156_71185)"/>
<g style="mix-blend-mode:multiply">
<path d="M34.3643 57.87C34.4543 57.03 34.5743 56.27 34.7343 55.57C35.8443 50.8 36.8543 44.26 37.3943 37.9V37.88C37.9143 31.86 38.0243 26.01 37.4043 21.99C37.2743 21.12 37.1643 20.2 37.0943 19.25C37.0943 19.25 37.0943 19.23 37.0943 19.22C36.4843 11.14 38.2143 0.880005 44.9143 0.880005C49.9643 0.880005 54.7043 4.04 55.4043 15.31L52.6143 15.48C52.1143 7.64001 49.2043 3.59 45.4243 3.93C45.0943 3.96 44.7843 4.03 44.4843 4.14C38.7143 4.33 38.1843 17.42 40.4243 24.29C39.5443 54.08 31.5943 67.74 44.1743 86.88C39.4543 85.26 35.9643 75.88 34.7343 67.22C34.2443 63.83 34.1143 60.55 34.3743 57.88L34.3643 57.87Z" fill="#DBC9C5"/>
</g>
<path d="M43.9248 29.37C45.0748 31.58 46.1348 32.85 46.4948 33.69C47.1948 35.35 47.2448 50.23 47.4348 55.32H47.4448C48.7448 47.66 49.3248 36.29 49.0448 34.58C48.8748 33.56 49.8648 32.09 50.8548 29.37C50.6648 27.78 49.0648 30.26 47.3348 29.88C45.6048 29.5 44.6248 27.92 43.9248 29.37Z" fill="#322423"/>
<path style="mix-blend-mode:screen" d="M43.9248 29.37C45.0748 31.58 46.1348 32.85 46.4948 33.69C47.1948 35.35 47.2448 50.23 47.4348 55.32H47.4448C48.7448 47.66 49.3248 36.29 49.0448 34.58C48.8748 33.56 49.8648 32.09 50.8548 29.37C50.6648 27.78 49.0648 30.26 47.3348 29.88C45.6048 29.5 44.6248 27.92 43.9248 29.37Z" fill="url(#paint6_linear_156_71185)"/>
<path d="M46.9443 57.86L46.8643 60.4C46.9743 60.41 47.0843 60.41 47.1943 60.41C61.1843 60.41 55.0843 35.22 55.5243 25.29C55.4343 23.72 55.4043 22.07 55.4643 20.34C55.5243 18.51 55.5043 16.83 55.3943 15.31L52.6043 15.48C52.6743 16.6 52.6943 17.8 52.6643 19.07C52.5443 23.77 51.6943 27.04 50.8543 29.37C49.8643 32.09 48.8743 33.56 49.0443 34.58C49.3243 36.29 48.7443 47.66 47.4443 55.32C47.2843 56.22 47.1143 57.08 46.9443 57.86Z" fill="#57423F"/>
<path style="mix-blend-mode:screen" d="M46.9443 57.86L46.8643 60.4C46.9743 60.41 47.0843 60.41 47.1943 60.41C61.1843 60.41 55.0843 35.22 55.5243 25.29C55.4343 23.72 55.4043 22.07 55.4643 20.34C55.5243 18.51 55.5043 16.83 55.3943 15.31L52.6043 15.48C52.6743 16.6 52.6943 17.8 52.6643 19.07C52.5443 23.77 51.6943 27.04 50.8543 29.37C49.8643 32.09 48.8743 33.56 49.0443 34.58C49.3243 36.29 48.7443 47.66 47.4443 55.32C47.2843 56.22 47.1143 57.08 46.9443 57.86Z" fill="url(#paint7_linear_156_71185)"/>
<g style="mix-blend-mode:screen">
<path d="M56.8642 60.41C56.4442 46.9 52.1542 38.28 52.1942 24.16C52.4342 22.68 52.6142 21 52.6642 19.07C52.6942 17.8 52.6642 16.6 52.6042 15.48C52.5742 15.05 52.5342 14.63 52.4942 14.23C52.2142 8.51002 49.1142 2.91001 44.2642 0.920015C44.4742 0.900015 44.6842 0.890015 44.9042 0.890015C49.9542 0.890015 54.6942 4.05001 55.3942 15.32C55.5042 16.84 55.5242 18.52 55.4642 20.35C55.4042 22.08 55.4342 23.73 55.5242 25.3C55.8342 30.67 56.8942 35.19 58.0642 39.29C59.0342 42.68 60.0742 45.79 60.8042 48.84C61.2342 50.63 61.5542 52.39 61.6942 54.18C61.9442 57.33 61.1842 61.91 59.7642 66.66C59.7642 66.72 59.7342 66.77 59.7142 66.83C56.7642 76.62 51.0442 87.05 45.6742 87.13C44.6742 87.15 43.7242 86.8 42.8242 86.18C49.1242 81.61 57.1242 68.62 56.8642 60.42V60.41Z" fill="#171111"/>
</g>
<path d="M47.0941 56.3201C48.9241 56.3201 50.424 55.6301 50.514 55.5901C51.014 55.3601 51.2241 54.7601 50.9941 54.2601C50.7641 53.7601 50.164 53.5401 49.664 53.7801C49.604 53.8001 47.024 54.9601 45.054 53.8201C44.574 53.5401 43.9641 53.7101 43.6841 54.1901C43.4041 54.6701 43.574 55.2801 44.054 55.5601C45.054 56.1401 46.1241 56.3301 47.0841 56.3301L47.0941 56.3201Z" fill="#382624"/>
<path d="M47.1536 52.1C48.9836 52.1 50.4836 51.41 50.5736 51.37C51.0736 51.14 51.2836 50.54 51.0536 50.04C50.8236 49.54 50.2236 49.32 49.7236 49.56C49.6636 49.59 47.0836 50.74 45.1136 49.6C44.6336 49.32 44.0236 49.49 43.7436 49.97C43.4636 50.45 43.6336 51.06 44.1136 51.34C45.1136 51.92 46.1836 52.11 47.1436 52.11L47.1536 52.1Z" fill="#382624"/>
<path d="M47.2239 47.8801C49.0539 47.8801 50.5539 47.1901 50.6439 47.1501C51.1439 46.9201 51.3539 46.3201 51.1239 45.8201C50.8939 45.3201 50.2939 45.1001 49.7939 45.3401C49.7339 45.3701 47.1539 46.5201 45.1839 45.3801C44.7039 45.1001 44.0939 45.2701 43.8139 45.7501C43.5339 46.2301 43.7039 46.8401 44.1839 47.1201C45.1839 47.7001 46.2539 47.8901 47.2139 47.8901L47.2239 47.8801Z" fill="#382624"/>
<path d="M47.2845 43.67C49.1145 43.67 50.6145 42.98 50.7045 42.94C51.2045 42.71 51.4145 42.11 51.1845 41.61C50.9545 41.11 50.3645 40.89 49.8545 41.13C49.8145 41.15 47.2245 42.31 45.2445 41.17C44.7645 40.89 44.1545 41.06 43.8745 41.54C43.5945 42.02 43.7645 42.63 44.2445 42.91C45.2445 43.49 46.3145 43.68 47.2745 43.68L47.2845 43.67Z" fill="#382624"/>
<path d="M47.3538 39.45C49.1838 39.45 50.6838 38.76 50.7738 38.72C51.2738 38.49 51.4838 37.89 51.2538 37.39C51.0238 36.89 50.4238 36.68 49.9238 36.91C49.9238 36.91 47.3038 38.1 45.3138 36.95C44.8338 36.67 44.2238 36.84 43.9438 37.32C43.6638 37.8 43.8338 38.41 44.3138 38.69C45.3138 39.27 46.3838 39.46 47.3438 39.46L47.3538 39.45Z" fill="#382624"/>
<path d="M47.4144 35.23C49.2444 35.23 50.7444 34.54 50.8344 34.5C51.3344 34.27 51.5444 33.67 51.3144 33.17C51.0844 32.67 50.4944 32.45 49.9844 32.69C49.9844 32.69 47.3644 33.88 45.3744 32.73C44.8944 32.45 44.2844 32.62 44.0044 33.1C43.7244 33.58 43.8944 34.19 44.3744 34.47C45.3744 35.05 46.4444 35.24 47.4044 35.24L47.4144 35.23Z" fill="#382624"/>
<path d="M57.915 66.56C57.915 66.92 58.205 67.21 58.565 67.21C58.925 67.21 59.215 66.92 59.215 66.56C59.215 66.2 58.925 65.91 58.565 65.91C58.205 65.91 57.915 66.2 57.915 66.56Z" fill="#322423"/>
<path d="M59.2949 63.08C59.2949 63.44 59.5849 63.73 59.9449 63.73C60.3049 63.73 60.5949 63.44 60.5949 63.08C60.5949 62.72 60.3049 62.43 59.9449 62.43C59.5849 62.43 59.2949 62.72 59.2949 63.08Z" fill="#322423"/>
<path d="M55.5645 69.17C55.5645 69.53 55.8545 69.82 56.2145 69.82C56.5745 69.82 56.8645 69.53 56.8645 69.17C56.8645 68.81 56.5745 68.52 56.2145 68.52C55.8545 68.52 55.5645 68.81 55.5645 69.17Z" fill="#322423"/>
<path d="M52.1143 70.92C52.1143 71.28 52.4043 71.57 52.7643 71.57C53.1243 71.57 53.4143 71.28 53.4143 70.92C53.4143 70.56 53.1243 70.27 52.7643 70.27C52.4043 70.27 52.1143 70.56 52.1143 70.92Z" fill="#322423"/>
<path d="M48.585 70.26C48.585 70.62 48.875 70.91 49.235 70.91C49.595 70.91 49.885 70.62 49.885 70.26C49.885 69.9 49.595 69.61 49.235 69.61C48.875 69.61 48.585 69.9 48.585 70.26Z" fill="#322423"/>
<path d="M45.8447 68.51C45.8447 68.87 46.1347 69.16 46.4947 69.16C46.8547 69.16 47.1447 68.87 47.1447 68.51C47.1447 68.15 46.8547 67.86 46.4947 67.86C46.1347 67.86 45.8447 68.15 45.8447 68.51Z" fill="#322423"/>
<path d="M42.9248 70.26C42.9248 70.62 43.2148 70.91 43.5748 70.91C43.9348 70.91 44.2248 70.62 44.2248 70.26C44.2248 69.9 43.9348 69.61 43.5748 69.61C43.2148 69.61 42.9248 69.9 42.9248 70.26Z" fill="#322423"/>
<path d="M39.3643 70.47C39.3643 70.83 39.6543 71.12 40.0143 71.12C40.3743 71.12 40.6643 70.83 40.6643 70.47C40.6643 70.11 40.3743 69.82 40.0143 69.82C39.6543 69.82 39.3643 70.11 39.3643 70.47Z" fill="#322423"/>
<path d="M36.7549 68.51C36.7549 68.87 37.0449 69.16 37.4049 69.16C37.7649 69.16 38.0549 68.87 38.0549 68.51C38.0549 68.15 37.7649 67.86 37.4049 67.86C37.0449 67.86 36.7549 68.15 36.7549 68.51Z" fill="#322423"/>
<path d="M34.7246 65.36C34.7246 65.72 35.0146 66.01 35.3746 66.01C35.7346 66.01 36.0246 65.72 36.0246 65.36C36.0246 65 35.7346 64.71 35.3746 64.71C35.0146 64.71 34.7246 65 34.7246 65.36Z" fill="#322423"/>
<g style="mix-blend-mode:screen">
<path d="M47.7143 34.17C48.9043 34.17 49.8543 33.91 50.4243 33.7C50.5243 33.66 50.5843 33.55 50.5443 33.44C50.5043 33.34 50.3943 33.28 50.2843 33.32C49.3643 33.66 47.4743 34.11 45.1443 33.35C45.0443 33.32 44.9243 33.37 44.8943 33.48C44.8643 33.59 44.9143 33.7 45.0243 33.73C46.0043 34.05 46.9143 34.17 47.7143 34.17Z" fill="#2E201C"/>
</g>
<g style="mix-blend-mode:screen">
<path d="M47.7143 38.29C48.9043 38.29 49.8543 38.03 50.4243 37.82C50.5243 37.78 50.5843 37.67 50.5443 37.56C50.5043 37.46 50.3943 37.4 50.2843 37.44C49.3643 37.78 47.4743 38.23 45.1443 37.47C45.0443 37.43 44.9243 37.49 44.8943 37.6C44.8643 37.71 44.9143 37.82 45.0243 37.85C46.0043 38.17 46.9143 38.29 47.7143 38.29Z" fill="#2E201C"/>
</g>
<g style="mix-blend-mode:screen">
<path d="M47.7143 42.41C48.9043 42.41 49.8543 42.15 50.4243 41.94C50.5243 41.9 50.5843 41.79 50.5443 41.68C50.5043 41.58 50.3943 41.52 50.2843 41.56C49.3643 41.9 47.4743 42.35 45.1443 41.59C45.0443 41.56 44.9243 41.61 44.8943 41.72C44.8643 41.82 44.9143 41.94 45.0243 41.97C46.0043 42.29 46.9143 42.41 47.7143 42.41Z" fill="#2E201C"/>
</g>
<g style="mix-blend-mode:screen">
<path d="M47.5044 46.75C48.6944 46.75 49.6444 46.49 50.2144 46.28C50.3144 46.24 50.3744 46.13 50.3344 46.02C50.2944 45.92 50.1844 45.86 50.0744 45.9C49.1544 46.24 47.2644 46.69 44.9344 45.93C44.8244 45.9 44.7144 45.95 44.6844 46.06C44.6544 46.16 44.7044 46.28 44.8144 46.31C45.7944 46.63 46.7044 46.75 47.5044 46.75Z" fill="#2E201C"/>
</g>
<g style="mix-blend-mode:screen">
<path d="M47.6342 50.87C48.8242 50.87 49.7742 50.61 50.3442 50.4C50.4442 50.36 50.5042 50.25 50.4642 50.14C50.4242 50.04 50.3142 49.98 50.2042 50.02C49.2842 50.36 47.3942 50.81 45.0642 50.05C44.9642 50.02 44.8442 50.07 44.8142 50.18C44.7842 50.28 44.8342 50.4 44.9442 50.43C45.9242 50.75 46.8342 50.87 47.6342 50.87Z" fill="#2E201C"/>
</g>
<g style="mix-blend-mode:screen">
<path d="M47.5044 55.04C48.6944 55.04 49.6444 54.78 50.2144 54.57C50.3144 54.53 50.3744 54.42 50.3344 54.31C50.2944 54.21 50.1844 54.15 50.0744 54.19C49.1544 54.53 47.2644 54.98 44.9344 54.22C44.8244 54.19 44.7144 54.24 44.6844 54.35C44.6544 54.46 44.7044 54.57 44.8144 54.6C45.7944 54.92 46.7044 55.04 47.5044 55.04Z" fill="#2E201C"/>
</g>
<g style="mix-blend-mode:multiply">
<path d="M57.2148 37.86L57.4048 39.85L57.4748 39.84L57.2148 37.86Z" fill="#D4BCBA"/>
<path d="M57.4844 40.85C57.5344 41.52 57.5744 42.18 57.5944 42.85H57.7544C57.7044 42.18 57.6444 41.51 57.5744 40.85H57.4844Z" fill="#D4BCBA"/>
<path d="M57.625 43.84C57.635 44.51 57.625 45.17 57.625 45.84H57.875C57.875 45.17 57.845 44.5 57.815 43.84H57.625Z" fill="#D4BCBA"/>
<path d="M57.6046 46.83C57.5746 47.5 57.5346 48.16 57.4746 48.82L57.7846 48.85C57.8346 48.18 57.8646 47.51 57.8746 46.85H57.6046V46.83Z" fill="#D4BCBA"/>
<path d="M57.3649 49.8C57.2749 50.46 57.1749 51.12 57.0449 51.76L57.3949 51.83C57.5149 51.16 57.6049 50.5 57.6849 49.84L57.3649 49.8Z" fill="#D4BCBA"/>
<path d="M56.8251 52.73C56.6651 53.38 56.4751 54 56.2451 54.62L56.6351 54.76C56.8551 54.13 57.0451 53.47 57.1851 52.82L56.8151 52.73H56.8251Z" fill="#D4BCBA"/>
<path d="M55.8848 55.54C55.6148 56.16 55.3148 56.72 54.9648 57.28L55.3348 57.52C55.6948 56.95 56.0148 56.33 56.2748 55.72L55.8848 55.54Z" fill="#D4BCBA"/>
<path d="M54.3952 58.07C53.9752 58.6 53.5452 59.05 53.0352 59.47L53.3252 59.82C53.8452 59.39 54.3352 58.87 54.7452 58.35L54.4052 58.07H54.3952Z" fill="#D4BCBA"/>
<path d="M52.2549 60.04C51.6849 60.4 51.1249 60.67 50.5049 60.89L50.6649 61.34C51.2949 61.11 51.9449 60.8 52.4949 60.44L52.2549 60.05V60.04Z" fill="#D4BCBA"/>
<path d="M49.565 61.16C48.905 61.31 48.285 61.4 47.625 61.43L47.655 61.92C48.325 61.88 49.025 61.78 49.665 61.62L49.565 61.15V61.16Z" fill="#D4BCBA"/>
<path d="M46.6452 61.45C45.9752 61.44 45.3352 61.41 44.6852 61.31L44.6152 61.8C45.2852 61.9 45.9752 61.94 46.6352 61.95V61.45H46.6452Z" fill="#D4BCBA"/>
<path d="M43.7346 61.12C43.4046 61.03 43.1246 60.93 42.8246 60.8C42.5346 60.67 42.2446 60.52 41.9846 60.35L41.7246 60.75C42.0146 60.94 42.3246 61.11 42.6346 61.25C42.9446 61.39 43.2946 61.51 43.6046 61.59L43.7446 61.12H43.7346Z" fill="#D4BCBA"/>
<path d="M41.225 59.76C40.975 59.53 40.775 59.31 40.565 59.05C40.365 58.8 40.185 58.53 40.015 58.25L39.625 58.48C39.795 58.77 39.995 59.06 40.205 59.33C40.415 59.6 40.655 59.87 40.895 60.09L41.225 59.75V59.76Z" fill="#D4BCBA"/>
<path d="M39.5651 57.4C39.2851 56.79 39.0651 56.19 38.8751 55.55L38.4551 55.67C38.6451 56.31 38.8751 56.97 39.1551 57.57L39.5651 57.39V57.4Z" fill="#D4BCBA"/>
<path d="M38.6252 54.6C38.4752 53.95 38.3552 53.31 38.2452 52.65L37.8252 52.71C37.9252 53.37 38.0452 54.04 38.1952 54.69L38.6152 54.6H38.6252Z" fill="#D4BCBA"/>
<path d="M38.1044 51.67C38.0144 51.01 37.9544 50.35 37.8944 49.69L37.5244 49.72C37.5644 50.39 37.6244 51.06 37.6944 51.72L38.0944 51.67H38.1044Z" fill="#D4BCBA"/>
<path d="M37.8346 48.7C37.7946 48.03 37.7646 47.37 37.7446 46.71H37.4346C37.4346 47.38 37.4546 48.05 37.4846 48.72L37.8346 48.7Z" fill="#D4BCBA"/>
<path d="M37.7248 45.71V43.71L37.4648 43.7L37.4248 45.71H37.7248Z" fill="#D4BCBA"/>
<path d="M37.7351 42.71L37.7751 40.71H37.6051L37.4951 42.7L37.7351 42.71Z" fill="#D4BCBA"/>
<path d="M37.8148 39.72L37.9048 37.72L37.8248 37.71L37.6748 39.71L37.8148 39.72Z" fill="#D4BCBA"/>
<path d="M37.965 36.72L38.055 35.23L37.915 36.72H37.965Z" fill="#D4BCBA"/>
</g>
</g>
<defs>
<linearGradient id="paint0_linear_156_71185" x1="23.5352" y1="29.85" x2="13.2452" y2="30.93" gradientUnits="userSpaceOnUse">
<stop/>
<stop offset="0.24" stop-color="#010101"/>
<stop offset="0.56" stop-color="#040404"/>
<stop offset="1" stop-color="#170E0B"/>
</linearGradient>
<linearGradient id="paint1_linear_156_71185" x1="26.1152" y1="75.07" x2="2.03516" y2="77.82" gradientUnits="userSpaceOnUse">
<stop/>
<stop offset="0.24" stop-color="#010101"/>
<stop offset="0.56" stop-color="#231919"/>
</linearGradient>
<linearGradient id="paint2_linear_156_71185" x1="14.8545" y1="56.64" x2="14.6045" y2="28.64" gradientUnits="userSpaceOnUse">
<stop/>
<stop offset="0.28" stop-color="#050403"/>
<stop offset="0.54" stop-color="#120E0C"/>
<stop offset="0.82" stop-color="#271E1B"/>
<stop offset="0.93" stop-color="#3D2F2B"/>
<stop offset="1" stop-color="#59463F"/>
</linearGradient>
<linearGradient id="paint3_linear_156_71185" x1="5.00524" y1="37.99" x2="13.0652" y2="37.81" gradientUnits="userSpaceOnUse">
<stop/>
<stop offset="0.24" stop-color="#010101"/>
<stop offset="0.56" stop-color="#040404"/>
<stop offset="1" stop-color="#170E0B"/>
</linearGradient>
<linearGradient id="paint4_linear_156_71185" x1="38.4647" y1="29.85" x2="48.7547" y2="30.93" gradientUnits="userSpaceOnUse">
<stop/>
<stop offset="0.24" stop-color="#010101"/>
<stop offset="0.56" stop-color="#040404"/>
<stop offset="1" stop-color="#170E0B"/>
</linearGradient>
<linearGradient id="paint5_linear_156_71185" x1="35.8846" y1="75.07" x2="59.9646" y2="77.82" gradientUnits="userSpaceOnUse">
<stop/>
<stop offset="0.24" stop-color="#010101"/>
<stop offset="0.56" stop-color="#231919"/>
</linearGradient>
<linearGradient id="paint6_linear_156_71185" x1="47.1548" y1="56.64" x2="47.4048" y2="28.64" gradientUnits="userSpaceOnUse">
<stop/>
<stop offset="0.28" stop-color="#050403"/>
<stop offset="0.54" stop-color="#120E0C"/>
<stop offset="0.82" stop-color="#271E1B"/>
<stop offset="0.93" stop-color="#3D2F2B"/>
<stop offset="1" stop-color="#59463F"/>
</linearGradient>
<linearGradient id="paint7_linear_156_71185" x1="57.0043" y1="37.99" x2="48.9343" y2="37.81" gradientUnits="userSpaceOnUse">
<stop/>
<stop offset="0.24" stop-color="#010101"/>
<stop offset="0.56" stop-color="#040404"/>
<stop offset="1" stop-color="#170E0B"/>
</linearGradient>
<clipPath id="clip0_156_71185">
<rect width="61.49" height="86.24" fill="white" transform="translate(0.254883 0.880005)"/>
</clipPath>
</defs>
</svg>
