<svg width="80" height="70" viewBox="0 0 80 70" fill="none" xmlns="http://www.w3.org/2000/svg">
<path d="M79.4952 56.0601C79.9163 56.2608 80.079 56.6717 79.9642 57.14C79.8493 57.6082 79.4952 57.8471 79.0357 57.8949C78.7103 57.9236 78.3561 57.9331 78.0402 57.8662C75.9918 57.4076 73.9912 56.8055 72.0194 56.0888C70.8229 55.6492 69.5977 55.3434 68.3055 55.1045C68.2863 55.5728 68.5926 55.7543 68.8319 55.955C70.038 56.9775 70.7463 58.2485 71.0335 59.8157C71.2919 61.2396 70.9569 62.3768 69.8657 63.3229C69.3871 63.7433 68.9372 64.202 68.516 64.6798C67.9704 65.2819 67.8556 65.9508 68.2959 66.6866C68.449 66.9447 68.5735 67.2314 68.6883 67.5085C68.7362 67.6232 68.717 67.757 68.6117 67.843C68.5065 67.9194 68.382 67.9003 68.2863 67.8143C68.2384 67.7761 68.1906 67.7378 68.1523 67.6901C66.6399 66.0464 64.6394 65.3679 62.5527 64.8805C61.6912 64.6798 60.8201 64.5747 59.9395 64.5652C58.6281 64.5461 57.355 64.2594 56.082 63.9153C55.6704 63.8102 55.2588 63.6955 54.8376 63.6191C54.1005 63.4853 53.4496 63.6 52.7892 64.0683C50.1569 65.903 47.247 67.2027 44.2318 68.2634C44.0308 68.3303 43.8202 68.3877 43.6287 68.4737C41.609 69.3815 39.5032 69.3815 37.3686 69.0948C36.7656 69.0184 36.153 69.0375 35.5499 69.0184C34.162 68.9801 32.8506 68.6744 31.6063 68.0341C29.443 66.9064 27.4903 65.4634 25.4419 64.1542C23.537 62.9406 22.2352 61.2205 21.0674 59.357C20.608 58.6212 20.6175 58.6403 19.8039 58.8219C18.751 59.0608 17.6885 58.8983 16.6356 58.7741C16.2144 58.7263 15.8124 58.6881 15.3721 58.7359C14.7308 58.8123 14.1086 58.5638 13.5247 58.3249C10.8541 57.2642 8.79609 55.4772 7.14013 53.1168C5.83833 51.2724 4.7854 49.3039 3.73248 47.3257C3.09115 46.1121 2.80399 44.7647 2.33496 43.4841C1.5692 41.3435 1.06188 39.1169 0.611998 36.8903C0.353553 35.5907 0.219543 34.2528 0.0663906 32.934C-0.316491 29.704 1.01402 26.9996 2.58384 24.3908C3.91435 22.1833 5.65646 20.3389 7.93461 19.0393C8.70037 18.5997 9.37998 18.0263 10.1266 17.5676C11.1604 16.9369 12.2803 16.6311 13.5055 16.7553C14.2139 16.8318 14.9126 16.6789 15.5731 16.4782C17.3056 15.943 19.0765 15.771 20.8664 15.685C21.8428 15.6372 21.6226 15.2837 21.2493 14.7581C21.0387 14.4714 20.7516 14.2325 20.4836 13.984C20.1007 13.6209 19.8039 13.21 19.7752 12.6557C19.7369 12.0059 20.0432 11.595 20.6941 11.5281C21.5556 11.4325 22.3692 11.4707 23.0967 12.0919C23.8529 12.7417 24.0731 13.3915 23.7285 14.3376C23.3743 15.2932 23.3839 15.3028 24.3794 15.255C25.1643 15.2168 25.9587 15.1881 26.7437 15.1594C27.0787 15.1499 27.4041 15.1308 27.7009 14.9205C28.3422 14.4523 28.9644 13.9649 29.6823 13.6209C30.0077 13.468 29.9982 13.1813 29.7876 12.9424C29.2324 12.3212 29.2707 11.5567 29.2228 10.8018C29.0697 8.46051 29.6919 6.29124 30.5916 4.18887C31.2234 2.6981 32.2093 1.50357 33.6834 0.739068C34.4491 0.337706 35.2915 0.17525 36.1147 0.0223504C36.9092 -0.130549 37.7515 0.519277 38.077 1.35067C38.2684 1.84759 38.2397 2.36363 38.2588 2.87967C38.2875 3.78751 38.1918 4.70491 38.4311 5.59364C38.5938 6.18613 38.8236 6.74038 39.3213 7.14175C39.8861 7.59089 40.1062 8.29805 40.5465 8.81409C41.8388 10.3335 42.6141 12.1683 43.7245 13.7929C44.0308 14.242 44.2413 14.2134 44.5955 14.0127C45.0645 13.7356 45.5048 13.3915 45.9835 13.1526C48.8168 11.7383 51.7554 10.8305 54.9907 10.9738C56.7424 11.0503 58.4367 11.1936 60.0352 11.9772C60.5425 12.2257 61.1264 12.3595 61.6912 12.4837C63.5864 12.885 65.1562 13.898 66.6782 15.0352C66.9175 15.2168 67.1568 15.4079 67.4152 15.5703C69.5785 16.9178 71.0813 18.8004 72.0003 21.1703C72.1725 21.6194 72.3257 22.0973 72.5841 22.4986C74.0582 24.8017 74.154 27.3436 73.9242 29.9525C73.8189 31.0801 73.5892 32.1504 73.1106 33.1825C72.565 34.3675 72.1151 35.5907 71.6365 36.8043C70.5644 39.5183 68.6692 41.4869 66.1422 42.8916C66.0656 42.9394 65.9986 42.9967 65.9316 43.0541C65.9124 43.0732 65.9124 43.1019 65.8741 43.207C67.1951 43.5797 68.2863 44.4302 69.5594 44.9176C71.2058 45.5483 72.5746 46.5899 73.9051 47.708C74.2784 48.0233 74.6517 48.3387 75.025 48.6445C76.6906 50.0206 77.9349 51.712 78.7773 53.6997C78.9878 54.1871 78.9974 54.7031 79.007 55.2192C79.0357 55.5536 79.074 55.869 79.4952 56.0601ZM78.8443 57.2069C78.4135 56.4328 78.4614 55.5919 78.4231 54.7605C78.4135 54.6362 78.4135 54.5216 78.4039 54.3973C78.4039 54.3687 78.3944 54.34 78.3944 54.3113C78.3848 54.2253 78.3657 54.1393 78.3369 54.0533C78.3274 54.0246 78.3178 53.996 78.3082 53.9673C78.3082 53.9577 78.2987 53.9386 78.2987 53.9291C78.2795 53.8813 78.2699 53.8431 78.2508 53.8048C78.2508 53.7953 78.2412 53.7857 78.2412 53.7762C78.2316 53.7571 78.2221 53.7379 78.2221 53.7284C78.2221 53.7188 78.2125 53.7188 78.2125 53.7093C78.0785 53.413 77.9349 53.1264 77.7818 52.8492C76.9394 51.282 75.8578 49.9059 74.422 48.7974C73.9625 48.4438 73.5222 48.0711 73.0915 47.6889C72.0385 46.7523 70.8899 45.9879 69.5785 45.4527C68.9372 45.1947 68.3054 44.8793 67.712 44.5162C66.9749 44.067 66.1805 43.7899 65.3573 43.5797C64.7351 43.4268 64.132 43.2357 63.529 43.0445C62.2272 42.6241 60.9446 42.1845 59.5853 41.9647C58.5037 41.7831 57.4699 41.85 56.4936 42.3852C56.0149 42.6527 55.8522 42.8725 56.0341 43.1401C56.0437 43.1497 56.0532 43.1592 56.0532 43.1688C56.1298 43.2739 56.2447 43.379 56.417 43.5032C57.2402 44.0957 57.9294 44.7933 58.475 45.6438C58.5802 45.8158 58.743 45.9687 58.9057 46.1025C59.2312 46.3701 59.5375 46.6472 59.815 46.953C59.9299 47.0773 60.0448 47.2015 60.1501 47.3353C60.4468 47.6984 60.7244 48.0711 60.9828 48.4629C61.1168 48.654 61.2413 48.8547 61.3657 49.0554C61.4327 49.1605 61.4997 49.2656 61.5572 49.3708C61.7965 49.7721 62.0358 50.183 62.2751 50.5844C62.2846 50.6035 62.2942 50.6226 62.3134 50.6417C62.3229 50.6609 62.3325 50.6704 62.3325 50.68C62.6484 51.2916 62.6197 51.9223 62.2751 52.5434C62.1219 52.8205 61.9209 53.1072 61.9688 53.4322H61.9783C61.9783 53.4417 61.9783 53.4417 61.9783 53.4513C62.2272 53.6137 62.4282 53.4895 62.6292 53.4513C64.1033 53.1837 65.5391 53.4322 66.8984 53.996C67.4918 54.2444 68.0661 54.5024 68.6883 54.6458C70.2581 55.0089 71.7897 55.4963 73.3116 56.0123C74.8049 56.5188 76.3077 57.0253 77.8679 57.2738C77.9924 57.2929 78.1264 57.3215 78.2604 57.3311C78.4135 57.3311 78.605 57.312 78.8443 57.2069ZM73.2733 28.4235C73.3308 26.5696 73.2638 24.8112 72.3353 23.1676C72.0194 22.6133 71.7801 22.0208 71.5312 21.4379C71.1005 20.4345 70.708 19.412 69.9806 18.571C69.7508 18.3034 69.5115 18.0359 69.2626 17.7778C68.5256 17.0038 67.7407 16.2871 66.7931 15.7519C66.324 15.4843 65.9124 15.1021 65.4625 14.7963C64.4096 14.0796 63.3184 13.4393 62.0549 13.1144C61.9879 13.0953 61.9209 13.0857 61.8539 13.0666C61.1264 12.8755 60.4085 12.6653 59.7002 12.3977C59.4417 12.3021 59.1929 12.197 58.9344 12.0823C58.2069 11.7479 57.4412 11.5567 56.6467 11.5089C56.5318 11.4994 56.4265 11.4994 56.3117 11.4994C56.216 11.4994 56.1107 11.4994 56.0149 11.5089C55.4406 11.5376 54.8567 11.4994 54.2824 11.4898C50.712 11.3847 47.5916 12.627 44.6625 14.5096C44.5285 14.5956 44.3849 14.6912 44.2509 14.7772C44.0882 14.8823 43.9829 15.0161 43.9063 15.1785C43.8872 15.2359 43.868 15.2932 43.8489 15.3506C43.8393 15.3888 43.8297 15.427 43.8202 15.4557C43.6766 15.8761 43.3799 16.1724 43.0065 16.3157C42.9108 16.354 42.8151 16.3826 42.7098 16.4017C41.9345 16.5451 41.4942 17.0516 41.1113 17.6441C41.1017 17.6632 41.0921 17.6823 41.073 17.7014C40.9103 17.9594 40.8146 18.1505 40.805 18.3225C40.805 18.3512 40.805 18.3703 40.805 18.399C40.8241 18.6188 40.9964 18.8099 41.341 19.0966C42.0972 19.7082 42.796 20.3676 43.3511 21.1799C43.5713 21.5048 43.7723 21.8297 43.9638 22.1642C44.9497 23.9034 45.5814 25.8146 46.1653 27.7068C46.1845 27.7832 46.2132 27.8501 46.2323 27.9266C46.8449 29.9334 47.0172 32.0357 46.8162 34.119C46.7875 34.3961 46.7588 34.6733 46.7205 34.9408C46.6918 35.1415 46.6535 35.3518 46.6248 35.5524C46.6152 35.6193 46.5961 35.6958 46.5865 35.7627C46.2802 37.3586 45.9452 38.9545 45.4187 40.493C45.3708 40.6459 45.3134 40.7988 45.256 40.9517C45.1698 41.1811 45.0837 41.4104 44.988 41.6302C44.921 41.7831 44.854 41.9264 44.7869 42.0793C44.6529 42.3756 44.5094 42.6718 44.3466 42.9585C44.3083 43.035 44.2701 43.1019 44.2318 43.1783C44.1839 43.2452 44.2031 43.3503 44.1935 43.4268C44.3466 43.5606 44.5094 43.5414 44.6721 43.5128C44.6912 43.5128 44.7104 43.5032 44.7295 43.5032C46.3663 43.207 48.0032 42.9203 49.64 42.6049C50.0611 42.5285 50.4823 42.4329 50.9035 42.3469C51.0758 42.3087 51.2481 42.28 51.4204 42.2418C51.4395 42.2418 51.4682 42.2322 51.4874 42.2322C52.8466 41.9838 54.2154 41.8787 55.5938 42.1654C55.7661 42.2036 55.9097 42.1654 56.0532 42.108C56.0724 42.0985 56.1011 42.0889 56.1202 42.0793C56.1394 42.0698 56.1585 42.0602 56.1777 42.0507C56.1968 42.0411 56.2064 42.0411 56.216 42.0316C56.2351 42.022 56.2638 42.0125 56.283 41.9933C56.3787 41.9456 56.4648 41.8978 56.5606 41.85C57.6518 41.3531 58.8004 41.3626 59.9969 41.5824C61.2413 41.8118 62.4186 42.194 63.6056 42.5763C63.7779 42.6336 63.9406 42.6814 64.1129 42.7387C64.4288 42.8343 64.7351 42.9681 65.0797 42.7865C66.4676 42.0793 67.7694 41.2288 68.7936 40.0534C70.038 38.6295 70.976 36.9668 71.5791 35.1893C72.3161 32.9818 73.2063 30.8317 73.2733 28.4235ZM70.2486 61.8607C70.4974 60.3891 70.4687 58.9557 69.5307 57.6847C69.1861 57.2164 68.717 56.8724 68.2959 56.4806C67.98 56.1939 67.5397 55.9168 67.5301 55.5059C67.511 55.0185 67.2908 54.7509 66.9941 54.5693C66.9749 54.5502 66.9558 54.5407 66.9271 54.5311C66.7739 54.4451 66.6016 54.3782 66.4197 54.3209C65.4338 53.9864 64.4192 53.7762 63.3759 53.8717C62.5718 53.9482 61.8539 54.1202 61.27 54.8656C60.3415 56.0601 59.5375 57.3502 58.5037 58.4683C57.1827 59.9113 56.3117 61.7556 54.5504 62.7973C54.5313 62.8068 54.5409 62.8546 54.5121 62.9502C54.5217 62.9502 54.5409 62.9597 54.5504 62.9597V62.9693C55.1535 63.1222 55.7661 63.2655 56.3691 63.428C57.6326 63.772 58.9153 64.0109 60.2266 64.0491C61.4806 64.0874 62.6867 64.2785 63.864 64.6416C63.9789 64.6798 64.1033 64.7181 64.2182 64.7563C64.6298 64.8901 65.0318 65.043 65.4243 65.2245C65.4817 65.2532 65.5391 65.2723 65.5966 65.301C65.654 65.3297 65.7114 65.3488 65.7689 65.3774C65.8263 65.4061 65.8837 65.4348 65.9411 65.4635C66.2475 65.6164 66.5538 65.7693 66.8888 65.9413C67.0994 66.0464 67.3291 66.1706 67.578 66.2948C67.5875 66.3044 67.6067 66.3044 67.6163 66.314C67.4631 64.8996 68.382 64.1829 69.1765 63.3993C69.4158 63.17 69.636 62.9119 69.8753 62.6826C70.0476 62.4724 70.172 62.2334 70.239 61.985C70.2294 61.9276 70.239 61.8894 70.2486 61.8607ZM61.9018 51.7885C62.0166 51.4349 61.8826 51.0909 61.7007 50.7755C61.203 49.8581 60.6478 48.9981 60.0256 48.1858C59.4035 47.3735 58.7047 46.6186 57.9198 45.921C57.8336 45.835 57.7379 45.7298 57.6135 45.7776C57.1732 45.9401 56.9243 45.6438 56.685 45.3762C56.3883 45.0513 56.0245 44.8507 55.6129 44.7073C55.029 44.5066 54.4643 44.2964 53.957 43.9524C53.6698 43.7612 53.4114 43.7517 53.0955 43.8281C52.4733 43.9906 51.8511 44.0957 51.2289 44.2486C49.573 44.65 47.8883 44.8602 46.2228 45.1947C44.6721 45.51 43.1597 45.9687 41.6378 46.3797C40.8911 46.5803 40.1445 46.6568 39.3787 46.5803C39.1107 46.5517 38.9671 46.437 38.948 46.2554C38.948 46.2363 38.948 46.2172 38.948 46.1885C38.9576 46.1216 38.9767 46.0356 39.015 45.9592C39.1203 45.7394 39.2735 45.5387 39.484 45.4145C39.5128 45.3954 39.551 45.3858 39.5893 45.3762C39.7233 45.3571 39.8478 45.4527 39.7999 45.5674C39.551 46.2267 40.0009 46.093 40.3455 46.0834C40.8337 46.0739 41.3027 45.9496 41.7718 45.8254C43.3894 45.3954 44.9784 44.8698 46.6248 44.6022C48.3286 44.3251 50.0133 43.9333 51.7171 43.637C52.2819 43.5415 52.8466 43.3886 53.4018 43.2452C53.6219 43.1879 53.7942 43.0063 53.7751 42.7865C53.7368 42.4903 53.4592 42.5667 53.2582 42.5667C52.9232 42.5667 52.5882 42.5763 52.2627 42.6336C51.3917 42.7865 50.5397 43.0254 49.6687 43.1305C46.2515 43.5701 42.9587 44.6118 39.551 45.0991V45.08C39.2352 45.1278 38.9097 45.166 38.5938 45.2042C38.4024 45.2234 38.2014 45.2711 38.1152 45.4336C38.1057 45.4431 38.1057 45.4527 38.1057 45.4527C38.0865 45.5005 38.0674 45.5483 38.0578 45.6247C38.0482 45.7681 38.0195 45.9018 37.9717 46.007C37.9621 46.0165 37.9621 46.0261 37.9525 46.0356C37.7707 46.3892 37.3878 46.5517 37.0049 46.695C36.0668 47.0581 35.1288 47.4213 34.3056 48.0042C33.6068 48.5011 32.841 48.8738 32.0753 49.237C31.6445 49.4472 31.1851 49.6479 30.8022 49.9346C29.9599 50.5653 29.2802 51.2724 28.8974 52.1516C28.8782 52.1898 28.8686 52.2281 28.8495 52.2663C28.6198 52.8301 28.5049 53.4513 28.5432 54.1584C28.6102 55.4103 28.9739 56.557 29.5578 57.6178C29.9599 58.3441 30.3236 59.1468 31.0415 59.6628C32.4773 60.6853 33.9227 61.6887 35.4925 62.4819C37.6845 63.6 40.0488 63.9249 42.5471 63.9058C44.1169 63.944 45.7633 63.8198 47.3714 63.5522C49.8314 63.1317 52.2053 62.3863 54.5791 61.6505C55.2492 61.4403 55.7374 61.0485 56.149 60.4942C57.087 59.2615 58.0634 58.0669 59.0206 56.8533C59.547 56.1748 60.1405 55.525 60.5712 54.7891C60.6 54.7509 60.6191 54.7031 60.6478 54.6649C60.7148 54.5598 60.7723 54.4451 60.8297 54.34C60.868 54.2731 60.8967 54.2062 60.935 54.1393C60.9924 54.0246 61.0403 53.91 61.0977 53.7953C61.3944 53.1455 61.6337 52.4765 61.8922 51.8171C61.8922 51.8171 61.9018 51.8076 61.9018 51.7885ZM53.4401 62.8642C53.4018 62.8068 53.3731 62.759 53.3348 62.7017C53.2582 62.7208 53.1721 62.7399 53.0955 62.759C52.5307 62.8928 51.966 63.0171 51.4012 63.1891C47.917 64.3454 44.3275 64.6607 40.6997 64.4409C39.0342 64.3454 37.4069 64.0013 35.8562 63.2942C34.0758 62.4819 32.5156 61.3065 30.9075 60.2362C30.5055 59.9686 30.1992 59.5864 29.9024 59.1946C29.6344 58.8505 29.4047 58.4874 29.1941 58.1147C29.108 57.9523 29.0218 57.7898 28.9452 57.6273C28.5623 56.8151 28.3039 55.955 28.1412 55.0663C27.8157 53.3748 28.2082 51.8076 29.443 50.5271C30.1226 49.8199 30.9266 49.2848 31.8264 48.8834C32.439 48.6158 33.0612 48.3387 33.6068 47.966C34.6406 47.2588 35.7605 46.7332 36.9283 46.2841C37.1006 46.2172 37.2633 46.1407 37.4165 46.0452C37.5601 45.9592 37.6079 45.8063 37.5696 45.6534C37.5601 45.6056 37.5409 45.5674 37.5122 45.5387C37.5026 45.5292 37.5026 45.5196 37.4931 45.51C37.4261 45.4336 37.3303 45.3954 37.2155 45.4049C37.091 45.4145 36.9666 45.4145 36.8517 45.4336C34.966 45.7585 33.0899 46.0834 31.2904 46.7906C28.5528 47.8704 25.8917 49.1318 23.2499 50.4219C22.599 50.7469 21.9385 51.0527 21.278 51.368C20.6558 51.6643 20.3017 52.1612 20.1772 52.8301C19.9571 54.0246 20.0049 55.1905 20.5027 56.3086C20.5984 56.5284 20.6941 56.7386 20.7516 56.9775C20.8856 57.484 21.0292 57.9809 21.2206 58.4683C21.2972 58.6594 21.3833 58.8601 21.479 59.0417C21.6705 59.443 21.9098 59.8253 22.2065 60.1789C22.3597 60.37 22.532 60.542 22.6468 60.7522C23.202 61.7652 24.0156 62.5201 24.9537 63.17C27.117 64.6798 29.2898 66.1706 31.6254 67.432C32.8793 68.1105 34.2003 68.4832 35.6361 68.4641C36.153 68.4546 36.6699 68.4546 37.1772 68.5215C39.4075 68.8177 41.5995 68.8273 43.6957 67.843C43.8585 67.7665 44.0403 67.7187 44.2126 67.6614C46.9215 66.7249 49.4964 65.5017 51.9181 63.9822C52.301 63.7147 52.6839 63.428 53.0572 63.1413C53.1816 63.0457 53.3061 62.9502 53.4401 62.8642ZM46.1079 35.5142C46.2419 34.5681 46.3089 33.603 46.2898 32.6282C46.2898 32.5136 46.2898 32.4084 46.2898 32.2938C46.2898 31.9211 46.2802 31.5484 46.261 31.1757C46.261 31.1661 46.261 31.1566 46.261 31.147C46.2419 30.7648 46.2132 30.3825 46.1558 30.0003C45.7059 26.9805 44.4998 24.257 43.064 21.6003C42.729 20.9792 42.2791 20.4345 41.7335 19.9949C40.1158 18.7143 38.4694 17.4816 36.6411 16.4973C35.3968 15.8284 34.1046 15.685 32.774 15.9048C31.0702 16.1915 29.376 16.5355 27.72 17.0325C23.5849 18.2652 23.5657 18.227 19.7752 18.1792C18.952 18.1696 18.1288 18.1314 17.3248 17.9499C15.755 17.5963 14.1947 17.2905 12.5579 17.4625C12.0027 17.5198 11.4763 17.5676 10.9881 17.8352C9.62885 18.5806 8.3462 19.4406 7.05398 20.2911C6.59452 20.5874 6.21164 20.941 5.8479 21.3232C5.81919 21.3519 5.79047 21.3805 5.76175 21.4092C5.25443 21.9444 4.79498 22.5368 4.29723 23.0911C2.2201 25.3846 1.21503 28.1272 0.841723 31.1375C0.583278 33.2972 0.966163 35.4187 1.37776 37.5401C1.72235 39.3272 2.26796 41.0568 2.72742 42.8152C3.06244 44.0957 3.47404 45.3858 4.08665 46.5708C4.80455 47.9373 5.54159 49.3039 6.34564 50.6226C7.55172 52.5912 8.81523 54.5216 10.8828 55.7448C11.5624 56.1461 12.2037 56.5953 12.7972 57.1209C13.429 57.6751 14.2043 57.9427 15.0371 58.0383C15.822 58.1243 16.5973 58.2389 17.3822 58.3345C18.2054 58.4396 19.019 58.4683 19.8326 58.2867C20.1102 58.2294 20.273 58.1816 20.3304 58.0956C20.4357 57.9905 20.3974 57.828 20.273 57.4744C20.2155 57.3024 20.1294 57.14 20.0719 56.968C19.6508 55.8594 19.3732 54.7414 19.4689 53.5373C19.5263 52.8874 19.6795 52.3236 19.9954 51.8554C20.0241 51.8076 20.0624 51.7694 20.0911 51.7216C20.3208 51.4253 20.6367 51.1769 21.0196 50.9762C21.6896 50.6226 22.3788 50.3168 23.0584 49.9728C25.6812 48.654 28.3326 47.3831 31.0798 46.3032C33.2431 45.4527 35.5117 45.0322 37.8089 44.7933C39.5032 44.6213 41.1783 44.3442 42.8247 43.9046C42.997 43.8568 43.198 43.8377 43.3416 43.7517C43.3511 43.7421 43.3607 43.7421 43.3703 43.7326C43.3799 43.723 43.3894 43.723 43.399 43.7135C43.4564 43.6657 43.5043 43.6084 43.533 43.5223C43.9159 42.3087 44.7869 41.3053 45.0071 40.0152C45.055 39.6903 45.1411 39.3654 45.2464 39.0405C45.2847 38.9353 45.3134 38.8207 45.3517 38.7156C45.39 38.6009 45.4283 38.4766 45.4666 38.362C45.7537 37.4255 45.9739 36.4794 46.1079 35.5142ZM43.399 14.6625C43.4086 14.6052 43.4086 14.5383 43.399 14.4714C43.3799 14.242 43.3033 14.0222 43.1884 13.8024C43.1788 13.7833 43.1693 13.7642 43.1597 13.7547C43.1023 13.6591 43.0448 13.5731 42.9874 13.4871C42.93 13.4011 42.863 13.3151 42.796 13.2195C42.528 12.8755 42.2982 12.5219 42.0972 12.1492C42.0972 12.1492 42.0972 12.1397 42.0876 12.1397C42.0206 12.0154 41.9536 11.8816 41.8962 11.7574C41.2453 10.3431 40.0584 9.28235 39.3596 7.89669C39.3213 7.82024 39.2447 7.75335 39.1777 7.69601C38.1822 6.89329 37.8568 5.81343 37.8089 4.60934C37.8089 4.53289 37.7994 4.44689 37.7994 4.37044C37.7898 3.86396 37.7802 3.34792 37.7611 2.84144C37.7419 2.53564 37.7228 2.22029 37.6941 1.91449C37.6175 1.09265 36.8804 0.356821 36.2008 0.490608C35.4351 0.643508 34.6597 0.786852 33.9418 1.15954C32.5539 1.87626 31.6541 3.01345 31.0319 4.41822C30.0364 6.66393 29.6918 8.99566 29.8354 11.4229C29.8354 11.4612 29.8354 11.4994 29.845 11.5376C29.8641 11.8434 29.9216 12.1397 30.0652 12.4168C30.2375 12.7417 30.4193 12.799 30.6778 12.5028C31.0894 12.0154 31.4531 11.5185 31.6541 10.9356C31.6541 10.9356 31.6541 10.926 31.6637 10.9165C31.6733 10.8878 31.6828 10.8687 31.6924 10.84C31.7211 10.7636 31.7403 10.6871 31.7594 10.6107C31.7785 10.5533 31.7881 10.496 31.7977 10.4386C31.8073 10.41 31.8073 10.3813 31.8168 10.3526C31.8264 10.2858 31.836 10.2189 31.836 10.152C31.836 10.1328 31.836 10.1042 31.8456 10.0755C31.8838 9.50214 31.9796 8.92877 32.0561 8.36495C32.1423 7.70557 32.4869 7.17042 32.8506 6.62571C32.8506 6.72128 32.841 6.82639 32.841 6.92195C32.8315 7.03663 32.8219 7.14175 32.8123 7.24687C32.8028 7.35199 32.7932 7.44755 32.774 7.55267C32.774 7.58134 32.7645 7.61 32.7645 7.63867C32.7453 7.81068 32.7166 7.97314 32.6879 8.1356C32.5539 8.91921 32.3816 9.70282 32.3337 10.496C32.3337 10.5342 32.3242 10.582 32.3242 10.6202V10.6298C32.6209 10.7062 32.7453 10.4864 32.9272 10.4004C33.4249 10.1711 33.6642 9.8175 33.693 9.32057C33.693 9.25368 33.693 9.18678 33.693 9.11989C33.693 9.08166 33.6834 9.03388 33.6834 8.99566C33.6834 8.95743 33.6738 8.91921 33.6738 8.87143C33.6738 8.78542 33.6738 8.70897 33.6738 8.62296C33.693 8.29805 33.7504 7.97314 33.7887 7.64823C33.9418 6.12879 34.9469 4.94382 35.3393 3.51994C35.3489 3.49127 35.4446 3.48171 35.5882 3.44349C35.4351 4.28444 35.1479 5.0776 34.8703 5.88988C34.7937 6.11923 34.7172 6.35814 34.6406 6.58749C34.363 7.47622 34.1428 8.39362 34.1811 9.39702V9.40658C34.8129 8.82364 35.3776 8.42228 35.9807 8.0687C36.5837 7.71512 37.1485 7.28509 37.9334 7.05574C37.6941 7.82024 36.8709 7.8298 36.5454 8.38406C36.5454 8.38406 36.5454 8.38406 36.555 8.38406C36.555 8.38406 36.555 8.38406 36.5454 8.39362C37.2346 8.76631 37.9908 8.34583 38.7949 8.86187C37.8759 8.99566 37.158 8.96699 36.4401 8.86187C35.5212 8.73764 35.1192 8.92876 34.631 9.83661C34.631 9.83661 34.631 9.83661 34.6406 9.83661C34.6406 9.83661 34.6406 9.84617 34.631 9.84617C35.6839 10.0468 36.6986 10.3622 37.7802 10.3526C38.2971 10.3526 38.814 10.3622 39.3309 10.3909C39.4649 10.4004 39.6755 10.3813 39.6755 10.6393C39.6755 10.6489 39.6755 10.668 39.6755 10.6871C39.6755 10.7062 39.6755 10.7253 39.6659 10.7444C38.0578 10.6584 36.4114 10.9642 34.8225 10.3813C34.5353 10.2762 34.2194 10.1233 33.9418 10.2858C33.2718 10.6776 32.5826 11.0694 32.037 11.7096H32.0466L32.037 11.7192C35.4255 11.7479 36.6986 11.9294 37.5888 12.6175C36.756 12.7417 36.1147 12.5888 35.4734 12.5124C34.5066 12.3977 33.5494 12.2448 32.573 12.2543C32.0849 12.2639 31.5871 12.2926 31.1851 12.5984C30.9841 12.7417 30.9075 12.8946 30.9362 13.0284C30.9554 13.1526 31.0702 13.2673 31.2617 13.3629C31.8456 13.6495 32.4869 13.8024 33.1186 13.7642C34.3056 13.6973 35.3202 14.1178 36.3157 14.653C36.8039 14.9205 37.3112 15.1212 37.8759 15.1021C39.082 15.0543 40.2307 15.2645 41.2932 15.857C41.3793 15.9048 41.4942 15.9239 41.6282 15.9239C41.6569 15.9239 41.6856 15.9239 41.7143 15.9239C42.0876 15.9144 42.5567 15.771 42.8821 15.5608C42.9108 15.5417 42.9395 15.5226 42.9683 15.5035C42.9874 15.4843 43.0161 15.4652 43.0353 15.4557C43.1023 15.4079 43.1501 15.3506 43.1884 15.2932C43.198 15.2741 43.2076 15.2646 43.2171 15.2454C43.3224 15.0639 43.3894 14.8632 43.399 14.6625ZM41.0921 16.9082C41.3314 16.612 41.2549 16.4495 40.9486 16.2775C40.2211 15.8762 39.4649 15.5321 38.6226 15.5703C37.4452 15.6277 36.4018 15.2837 35.4255 14.6912C34.8033 14.3185 34.1524 14.156 33.4345 14.1847C32.8889 14.2038 32.3242 14.1465 31.8264 13.9458C31.0989 13.6495 30.4576 13.6782 29.778 14.0796C29.3185 14.3472 28.8495 14.5765 28.5049 15.0543C30.0173 15.1594 31.4914 15.169 32.9751 15.1499C33.8078 15.1403 34.6023 15.2837 35.3872 15.5417C36.6411 15.9526 37.7802 16.5833 38.8619 17.3191C39.283 17.6058 39.6755 17.9499 40.1828 18.1505C40.4891 17.7301 40.7763 17.3 41.0921 16.9082ZM30.5438 15.7041C30.4672 15.5321 30.3715 15.5417 30.2853 15.5417C29.7684 15.5512 29.2515 15.5608 28.7442 15.5799C27.1935 15.6181 25.6524 15.6468 24.1113 15.6946C23.4987 15.7137 23.403 15.8093 23.3743 16.354C23.3743 16.3826 23.3743 16.4209 23.3743 16.4591C23.3647 16.5833 23.3647 16.7171 23.3743 16.8413C23.3743 16.8987 23.3839 16.956 23.3839 17.0133C23.4222 17.386 23.4796 17.558 23.671 17.5963C23.738 17.6058 23.8242 17.6058 23.9391 17.5867C23.9869 17.5772 24.0348 17.5676 24.0826 17.5485C24.1018 17.5389 24.1209 17.5389 24.1401 17.5294C26.2651 16.9369 28.3805 16.3253 30.5438 15.7041ZM22.2352 17.6441C22.2352 17.5485 22.2352 17.4434 22.2161 17.3574C22.1969 17.1758 22.1587 17.0038 22.1108 16.8413C22.0725 16.698 22.0342 16.5642 22.0055 16.4304C22.0055 16.4209 21.9959 16.4017 21.9959 16.3922C21.9289 16.1628 21.7949 16.1246 21.5365 16.1628C20.5506 16.3348 19.5551 16.3731 18.5596 16.4304C17.6694 16.4782 16.827 16.7458 15.8507 17.128C15.8603 17.128 15.8603 17.128 15.8603 17.1376C15.8507 17.1376 15.8507 17.1376 15.8507 17.1376C16.961 17.5103 18.0427 17.6345 19.1147 17.6727C20.1485 17.7014 21.1823 17.6536 22.2352 17.6441Z" fill="black"/>
<path d="M78.3673 54.7579C78.4055 55.5972 78.3577 56.4364 78.7878 57.1994C78.5584 57.3043 78.3672 57.3233 78.1856 57.3138C78.0518 57.3043 77.918 57.2661 77.7842 57.2375C76.2167 56.9896 74.7256 56.4746 73.2346 55.9786C71.7053 55.4636 70.1856 54.9772 68.6181 54.6148C67.9968 54.4718 67.4233 54.2047 66.8307 53.9663C65.4735 53.4036 64.0493 53.1557 62.5678 53.4227C62.3671 53.4609 62.1664 53.5848 61.9274 53.4227C61.8892 53.0984 62.0804 52.8219 62.2333 52.5548C62.5774 51.9158 62.6061 51.2769 62.2811 50.676C62.2715 50.6665 62.262 50.6474 62.262 50.6379C62.2524 50.6093 62.2333 50.5807 62.2142 50.5616C61.9752 50.161 61.7458 49.77 61.5069 49.3695C61.44 49.2646 61.3826 49.1596 61.3157 49.0547C61.1915 48.8545 61.0672 48.6637 60.9334 48.4634C60.6753 48.0724 60.3982 47.7005 60.1019 47.3381C59.9967 47.2046 59.882 47.0806 59.7673 46.9566C59.4901 46.6514 59.1843 46.3558 58.8498 46.0887C58.6873 45.9552 58.5343 45.8026 58.4196 45.6309C57.8748 44.7821 57.1867 44.0859 56.3647 43.4946C56.2022 43.3802 56.0875 43.2753 56.011 43.1799C56.0015 43.1704 55.9919 43.1608 55.9919 43.1513C55.8294 42.8843 55.9919 42.6745 56.4602 42.417C57.4352 41.8734 58.4674 41.8161 59.5475 41.9973C60.9047 42.2167 62.1855 42.6554 63.4854 43.075C64.0876 43.2753 64.6993 43.4565 65.311 43.6091C66.133 43.8189 66.9263 44.0955 67.6623 44.5437C68.2549 44.9061 68.8857 45.2209 69.5261 45.4784C70.8355 46.0029 71.9825 46.7754 73.0339 47.71C73.464 48.0915 73.9036 48.4634 74.3624 48.8163C75.7866 49.9226 76.8666 51.2864 77.7077 52.8409C77.8607 53.1175 78.004 53.4132 78.1379 53.6993C78.1474 53.7183 78.157 53.747 78.1665 53.766C78.1761 53.7756 78.1761 53.7851 78.1761 53.7946C78.1952 53.8328 78.2143 53.8805 78.2239 53.9186C78.2239 53.9282 78.2334 53.9472 78.2334 53.9568C78.243 53.9854 78.2526 54.014 78.2621 54.0426C78.2908 54.1284 78.3099 54.2143 78.3195 54.3001C78.3195 54.3287 78.329 54.3573 78.329 54.3859C78.3577 54.5195 78.3577 54.6434 78.3673 54.7579Z" fill="#13751E"/>
<path d="M78.2686 53.8527C78.2877 53.906 78.3068 53.9726 78.3164 54.0259C78.3068 53.9593 78.2877 53.906 78.2686 53.8527Z" fill="#DF2E2E"/>
<path d="M78.2973 53.7465C78.2877 53.7274 78.2781 53.6987 78.2686 53.6796C78.2686 53.6891 78.2781 53.6891 78.2781 53.6987C78.2781 53.7083 78.2877 53.7274 78.2973 53.7465Z" fill="#DF2E2E"/>
<path d="M78.241 57.3216C78.107 57.3121 77.973 57.2834 77.8486 57.2643C76.2883 57.0158 74.7855 56.5093 73.2923 56.0029C71.7703 55.4868 70.2388 54.9994 68.669 54.6363C68.0468 54.493 67.4725 54.235 66.879 53.9865C65.5198 53.4227 64.084 53.1742 62.6099 53.4418C62.4089 53.48 62.2079 53.6042 61.959 53.4418C61.959 53.4418 61.959 53.4322 61.959 53.4227C62.2079 53.5756 62.3993 53.4609 62.6003 53.4227C64.084 53.1551 65.5102 53.4036 66.8694 53.9674C67.4629 54.2063 68.0372 54.4739 68.6594 54.6172C70.2292 54.9803 71.7512 55.4677 73.2827 55.9837C74.7759 56.4807 76.2692 56.9967 77.839 57.2452C77.973 57.2738 78.0974 57.3025 78.241 57.3216Z" fill="#DF2E2E"/>
<path d="M72.3358 23.1676C73.2642 24.8113 73.3313 26.5696 73.2738 28.4235C73.1973 30.8222 72.307 32.9819 71.57 35.1798C70.9574 36.9573 70.0193 38.6105 68.7845 40.0439C67.7603 41.2193 66.4585 42.0698 65.0706 42.777C64.726 42.949 64.4197 42.8248 64.1038 42.7292C63.9315 42.6719 63.7688 42.6241 63.5965 42.5668C62.4096 42.1845 61.2322 41.8023 59.9878 41.5729C58.7913 41.3436 57.6523 41.334 56.5515 41.8405C56.4557 41.8883 56.3696 41.9265 56.2739 41.9838C56.2547 41.9934 56.226 42.0029 56.2069 42.0221C56.1877 42.0316 56.1782 42.0412 56.1686 42.0412C56.1494 42.0507 56.1303 42.0603 56.1112 42.0698C56.092 42.0794 56.0633 42.089 56.0442 42.0985C55.9101 42.1558 55.7666 42.1845 55.5847 42.1558C54.2063 41.8596 52.8471 41.9743 51.4783 42.2227C51.4591 42.2227 51.4304 42.2323 51.4113 42.2323C51.239 42.261 51.0667 42.2992 50.8944 42.3374C50.4732 42.4234 50.0521 42.5094 49.6309 42.5954C47.9941 42.9108 46.3573 43.1879 44.7204 43.4937C44.7013 43.4937 44.6821 43.5033 44.663 43.5033C44.5099 43.5319 44.3376 43.5415 44.1844 43.4173C44.194 43.3408 44.1844 43.2357 44.2227 43.1688C44.261 43.0924 44.2993 43.0255 44.3376 42.949C44.5003 42.6623 44.6439 42.3661 44.7779 42.0698C44.8449 41.9169 44.9119 41.7736 44.9789 41.6207C45.0746 41.3913 45.1607 41.1716 45.2469 40.9422C45.3043 40.7893 45.3618 40.6364 45.4096 40.4835C45.9456 38.945 46.2807 37.3586 46.5774 35.7532C46.587 35.6863 46.6061 35.6098 46.6157 35.5429C46.654 35.3423 46.6827 35.132 46.7114 34.9313C46.7497 34.6542 46.788 34.3771 46.8071 34.1095C47.0082 32.0167 46.8454 29.9239 46.2232 27.9171C46.2041 27.8406 46.1754 27.7737 46.1562 27.6973C45.5819 25.8051 44.9502 23.9034 43.9547 22.1547C43.7632 21.8202 43.5622 21.4953 43.3421 21.1704C42.7869 20.3581 42.0881 19.6987 41.3319 19.0871C40.9873 18.8004 40.815 18.6093 40.7959 18.3895C40.7959 18.3704 40.7959 18.3417 40.7959 18.313C40.8055 18.1506 40.9012 17.9595 41.0639 17.6919C41.0735 17.6728 41.0831 17.6537 41.1022 17.6346C41.4851 17.0421 41.9254 16.5356 42.7007 16.3922C42.806 16.3731 42.9017 16.3445 42.9975 16.3062C43.3708 16.1629 43.6675 15.8666 43.8111 15.4462C43.8207 15.4079 43.8302 15.3697 43.8398 15.3411C43.859 15.2837 43.8781 15.2264 43.8972 15.169C43.9642 15.0066 44.0695 14.8824 44.2418 14.7677C44.3758 14.6721 44.5194 14.5861 44.6534 14.5001C47.5825 12.6366 50.703 11.3848 54.2733 11.4803C54.8477 11.4994 55.4315 11.5281 56.0059 11.4994C56.1016 11.4994 56.2069 11.4899 56.3026 11.4899C56.4175 11.4899 56.5228 11.4899 56.6376 11.4994C57.4321 11.5472 58.1883 11.7479 58.9253 12.0728C59.1742 12.1875 59.4327 12.2926 59.6911 12.3882C60.3899 12.6558 61.1078 12.866 61.8448 13.0571C61.9118 13.0762 61.9788 13.0858 62.0458 13.1049C63.3093 13.4298 64.4005 14.0701 65.4535 14.7868C65.9034 15.0926 66.3149 15.4748 66.784 15.7424C67.7316 16.2871 68.5261 16.9943 69.2536 17.7683C69.4929 18.0264 69.7322 18.2939 69.9715 18.5615C70.6989 19.4025 71.0914 20.425 71.5221 21.4284C71.7806 22.0209 72.0199 22.6133 72.3358 23.1676ZM72.5846 26.4167C72.7665 25.7573 72.3836 25.098 71.704 24.9737C71.2637 24.8973 70.7947 24.8973 70.3448 24.8782C68.4112 24.7922 66.5638 25.356 64.6686 25.5567C64.0942 25.614 63.6826 25.6331 63.1849 25.2413C62.4096 24.6297 61.4428 24.4577 60.5334 24.9451C60.3228 25.0597 60.1218 25.1935 59.94 25.3369C59.873 25.3847 59.8155 25.442 59.7581 25.4898C59.2699 25.9389 58.9732 26.5314 59.0498 27.3437C58.9636 28.0604 59.1455 28.6624 59.8251 29.0351C60.8015 29.5703 61.8352 29.5416 62.6297 29.0447C62.6871 29.0065 62.7446 28.9682 62.7924 28.93C62.8212 28.9109 62.8499 28.8918 62.869 28.8631C62.8882 28.844 62.9169 28.8249 62.936 28.8058C62.9839 28.758 63.0413 28.7102 63.0892 28.6624C63.3859 28.3662 63.6156 27.984 63.7688 27.5253C63.8166 27.3628 63.8836 27.229 63.9698 27.1334C63.9794 27.1239 63.9889 27.1143 63.9985 27.1048C64.0847 27.0283 64.1995 26.971 64.3527 26.9423C66.6021 26.4932 68.8515 25.9389 71.0914 27.0379C71.3307 27.1526 71.5987 27.1621 71.838 27.0952C71.8476 27.0952 71.8572 27.0857 71.8667 27.0857C71.8859 27.0857 71.8954 27.0761 71.905 27.0761C72.2305 26.9614 72.4985 26.713 72.5846 26.4167ZM67.5402 30.5259C68.0475 29.8379 67.9326 29.102 67.6838 28.3566C67.3392 29.0542 67.5593 29.7996 67.5402 30.5259ZM66.0565 22.126C66.1139 22.1451 66.1618 22.1546 66.2192 22.1642C66.1235 22.0017 66.0086 21.8584 65.8746 21.7342C65.597 21.457 65.2525 21.2468 64.8983 21.0461C64.8887 21.0366 64.8791 21.0366 64.8696 21.027C64.86 21.027 64.8504 21.0175 64.8409 21.0175C64.8121 21.0079 64.7834 21.0079 64.7547 21.0079C64.7356 21.0079 64.7164 21.0175 64.6973 21.027C64.6877 21.027 64.6781 21.0366 64.6686 21.0366C64.6494 21.0461 64.6398 21.0557 64.6207 21.0748C64.6016 21.0939 64.592 21.1035 64.5824 21.1226C64.5154 21.2373 64.5728 21.371 64.6973 21.4093C65.195 21.5622 65.5396 21.9731 66.0565 22.126ZM60.0931 33.6699C60.543 33.7272 61.0025 33.6508 61.3758 33.431C60.5334 33.345 59.7007 33.2017 58.8583 33.1252C58.887 33.1443 58.9158 33.173 58.9445 33.1921C59.2891 33.4597 59.6911 33.6221 60.0931 33.6699ZM60.3994 19.6509C60.1506 19.6031 59.8825 19.6127 59.5954 19.6605C58.1404 19.9185 56.4653 21.3519 55.8527 22.7949C55.824 22.8523 55.8049 22.9191 55.7761 22.9765C55.757 23.0338 55.7379 23.1007 55.7187 23.1581C55.6996 23.2154 55.6804 23.2823 55.6708 23.3396C55.6613 23.3683 55.6613 23.397 55.6517 23.4352C55.6421 23.4925 55.6326 23.5594 55.623 23.6168C55.6134 23.7028 55.6038 23.7983 55.6038 23.8843C55.9963 23.2918 56.1112 22.556 56.5993 22.0113C57.1066 21.4379 57.7193 20.9888 58.3893 20.6352C59.0115 20.3103 59.6528 20.0141 60.3994 19.6509ZM55.7187 28.6529C55.7187 27.9075 55.7187 27.1526 55.7187 26.4072C55.7187 26.3785 55.69 26.3403 55.6708 26.3307C55.5656 26.2638 55.623 26.455 55.5273 26.1778C55.5081 26.3116 55.489 26.4358 55.4698 26.5601C55.3645 27.3341 55.3645 27.9935 55.489 28.6624C55.5656 28.6624 55.6421 28.6529 55.7187 28.6529ZM53.9766 27.1717C54.1776 26.4072 54.302 25.6331 54.1872 24.9833C54.1872 24.8495 54.1872 24.7253 54.1872 24.6106C54.1872 24.5628 54.1872 24.515 54.1872 24.4673C54.1872 24.4386 54.1872 24.4004 54.1872 24.3717C54.1872 24.1232 54.1872 23.8939 54.1776 23.6741C54.1393 23.1103 53.833 22.7758 53.4406 22.7567C53.4214 22.7567 53.4023 22.7567 53.3736 22.7567C53.1917 22.7662 52.9907 22.8331 52.7897 22.986C52.0335 23.5499 51.4783 24.3335 51.3826 25.2413C51.2198 26.8372 51.4687 28.4427 51.7272 30.0194C51.7942 30.4303 52.0239 30.6501 52.2919 30.6788C52.3206 30.6788 52.3493 30.6788 52.3781 30.6788C52.5791 30.6693 52.7992 30.5641 53.0098 30.3539C53.5363 29.8379 53.8713 29.188 54.1393 28.5095C54.2063 28.3375 54.2829 28.1273 54.1106 28.0031C53.9096 27.8693 53.8713 27.7068 53.8809 27.5444C53.8809 27.5061 53.8904 27.4679 53.9 27.4201C53.9096 27.3915 53.9096 27.3628 53.9192 27.3341C53.9383 27.2672 53.9574 27.2195 53.9766 27.1717Z" fill="#DF2E2E"/>
<path d="M73.2732 28.4235C73.2062 30.8317 72.316 32.9818 71.5693 35.1798C72.3064 32.9818 73.1966 30.8221 73.2732 28.4235Z" fill="#DF2E2E"/>
<path d="M71.6942 24.9736C72.3739 25.0978 72.7567 25.7477 72.5749 26.4166C72.4887 26.7224 72.2303 26.9613 71.924 27.076C71.9144 27.0855 71.8953 27.0855 71.8857 27.0855C71.8761 27.0855 71.8665 27.0951 71.857 27.0951C71.6177 27.162 71.3496 27.1524 71.1103 27.0282C68.8705 25.9388 66.6211 26.4835 64.3716 26.9326C64.2185 26.9613 64.1036 27.0186 64.0079 27.1046C63.9983 27.1142 63.9887 27.1238 63.9792 27.1333C63.8835 27.2289 63.8165 27.3627 63.7686 27.5347C63.6154 27.9838 63.3857 28.3661 63.0986 28.6623C63.0507 28.7101 63.0028 28.7579 62.9454 28.8057C62.9263 28.8248 62.8975 28.8439 62.8784 28.863C62.8497 28.8821 62.821 28.9012 62.8018 28.9299C62.7444 28.9681 62.6965 29.0063 62.6391 29.0446C61.8446 29.5319 60.8108 29.5702 59.8441 29.0254C59.1644 28.6528 58.9826 28.0603 59.0687 27.334C58.9826 26.5408 59.2793 25.9483 59.7675 25.4896C59.8249 25.4323 59.8823 25.3845 59.9494 25.3367C60.1312 25.1934 60.3227 25.0692 60.5332 24.9545C61.4426 24.4576 62.4094 24.6391 63.1847 25.2507C63.6825 25.6425 64.094 25.633 64.6684 25.5661C66.5636 25.3654 68.4206 24.8016 70.3446 24.8876C70.7945 24.8972 71.2539 24.8972 71.6942 24.9736ZM63.1943 27.8022C63.2421 27.678 63.2421 27.5825 63.2134 27.5156C63.2134 27.5156 63.2134 27.506 63.2038 27.506C63.156 27.4009 63.0315 27.3627 62.8305 27.42C62.4859 27.5156 62.1701 27.678 61.8638 27.85C61.7776 27.8978 61.6915 27.9456 61.5957 27.9934C61.4426 28.0794 61.3277 28.1176 61.2416 28.1176H61.232C61.098 28.0985 61.031 27.9456 60.9736 27.6494C60.897 27.2671 61.098 27.0951 61.3469 26.904C61.8733 26.493 62.5051 26.2637 63.1751 25.9388C62.4572 25.2985 61.701 25.0692 61.0597 25.2507C61.031 25.2603 61.0023 25.2698 60.9736 25.2794C60.8683 25.3081 60.763 25.3559 60.6673 25.4132C59.8919 25.8719 59.2985 27.0855 59.442 27.8883C59.4803 28.108 59.576 28.2896 59.7292 28.4425C60.0068 28.7196 60.5237 28.863 61.0789 28.8725C61.1554 28.8725 61.232 28.8725 61.3086 28.8725C61.9786 28.8534 62.6391 28.6432 62.9358 28.2801C63.022 28.1558 63.1081 28.022 63.1656 27.8691C63.1656 27.8691 63.1656 27.8691 63.1656 27.8596C63.1751 27.8309 63.1847 27.8118 63.1943 27.8022Z" fill="black"/>
<path d="M71.1095 27.0377C71.3488 27.162 71.6072 27.1715 71.8561 27.1046C71.6168 27.1811 71.3488 27.1715 71.1095 27.0473C68.8696 25.9483 66.6202 26.5026 64.3708 26.9517C64.2176 26.9804 64.1027 27.0377 64.0166 27.1142C64.1027 27.0282 64.2176 26.9708 64.3803 26.9422C66.6202 26.493 68.8696 25.9483 71.1095 27.0377Z" fill="#DF2E2E"/>
<path d="M68.7842 40.0441C70.019 38.6106 70.957 36.9574 71.5696 35.1799C70.9666 36.9574 70.0285 38.6202 68.7842 40.0441Z" fill="#DF2E2E"/>
<path d="M69.5308 57.6847C70.4689 58.9557 70.4976 60.3891 70.2487 61.8608C70.2392 61.899 70.2392 61.9373 70.2296 61.9755C70.1626 62.2335 70.0286 62.4629 69.8276 62.6635C69.5883 62.8929 69.3681 63.1413 69.1288 63.3803C68.3343 64.1639 67.4154 64.8806 67.5686 66.2949C67.3197 66.1707 67.0995 66.056 66.8794 65.9413C66.5444 65.7693 66.238 65.6069 65.9317 65.4635C65.9222 65.454 65.903 65.454 65.8934 65.4444C65.8456 65.4253 65.8073 65.4062 65.7594 65.3775C65.702 65.3488 65.6446 65.3297 65.5871 65.3011C65.5297 65.2724 65.4723 65.2533 65.4148 65.2246C65.0128 65.0526 64.6108 64.8901 64.2088 64.7564C64.0939 64.7181 63.979 64.6799 63.8546 64.6417C62.6677 64.2785 61.4425 64.0779 60.1789 64.0301C58.8676 63.9919 57.5849 63.7529 56.3214 63.4089C55.7279 63.2465 55.1345 63.1127 54.541 62.9598C54.5602 62.8738 54.5602 62.826 54.5793 62.8164C56.3406 61.7748 57.2116 59.9209 58.5326 58.4875C59.5568 57.3789 60.3608 56.0793 61.2989 54.8848C61.8828 54.1394 62.6007 53.9674 63.4047 53.8909C64.4481 53.7858 65.4627 54.0056 66.4486 54.3401C66.6114 54.3974 66.7741 54.4547 66.9177 54.5312C66.9368 54.5407 66.9655 54.5503 66.9847 54.5694C67.2623 54.751 67.4633 55.0185 67.4824 55.4868C67.5016 55.9073 67.9419 56.1748 68.2482 56.4615C68.7172 56.8629 69.1767 57.2165 69.5308 57.6847Z" fill="#13751E"/>
<path d="M67.6827 28.3565C67.9316 29.1019 68.0464 29.8377 67.5391 30.5258C67.5583 29.7995 67.3381 29.0541 67.6827 28.3565Z" fill="black"/>
<path d="M66.9179 54.5313C66.7743 54.4548 66.6116 54.3975 66.4488 54.3402C65.4629 54.0057 64.4483 53.7859 63.4049 53.891C62.6009 53.9675 61.883 54.1395 61.2991 54.8849C60.361 56.0794 59.557 57.379 58.5328 58.4876C57.2118 59.921 56.3408 61.7749 54.5795 62.8165C54.5604 62.8261 54.5604 62.8739 54.5412 62.9599C54.5316 62.9599 54.5125 62.9503 54.5029 62.9503C54.5316 62.8548 54.5221 62.807 54.5412 62.7974C56.3025 61.7558 57.1735 59.9114 58.4945 58.4684C59.5283 57.3504 60.3323 56.0603 61.2608 54.8657C61.8447 54.1204 62.5626 53.9483 63.3666 53.8719C64.41 53.7763 65.4246 53.9866 66.4105 54.321C66.5924 54.3784 66.7647 54.4453 66.9179 54.5313Z" fill="#DF2E2E"/>
<path d="M66.219 22.1737C66.1616 22.1641 66.1137 22.1546 66.0563 22.1355C65.549 21.9826 65.2044 21.5621 64.7066 21.4188C64.5822 21.3901 64.5248 21.2467 64.5918 21.1321C64.6013 21.113 64.6109 21.1034 64.6205 21.0843C64.6301 21.0652 64.6492 21.0556 64.6684 21.0461C64.6779 21.0365 64.6875 21.0365 64.6971 21.0365C64.7162 21.027 64.7354 21.027 64.7545 21.0174C64.7832 21.0174 64.8119 21.0174 64.8406 21.027C64.8502 21.027 64.8598 21.0365 64.8694 21.0365C64.8789 21.0365 64.8885 21.0461 64.8981 21.0556C65.2427 21.2563 65.5873 21.4665 65.8744 21.7437C65.9989 21.8679 66.1137 22.0017 66.219 22.1737Z" fill="black"/>
<path d="M64.8984 21.0556C65.2526 21.2563 65.5876 21.457 65.8748 21.7437C65.5876 21.457 65.243 21.2563 64.8984 21.0556Z" fill="#DF2E2E"/>
<path d="M64.7062 21.4188C65.204 21.5622 65.5486 21.9827 66.0559 22.1356C65.539 21.9731 65.1944 21.5622 64.7062 21.4188C64.5722 21.3902 64.5148 21.2564 64.5818 21.1417C64.5914 21.1226 64.6009 21.1035 64.6201 21.0939C64.6105 21.1035 64.6009 21.1226 64.5914 21.1417C64.5243 21.2468 64.5818 21.3902 64.7062 21.4188Z" fill="#DF2E2E"/>
<path d="M64.8598 21.0366C64.8502 21.0366 64.8406 21.027 64.8311 21.027C64.8406 21.027 64.8502 21.027 64.8598 21.0366Z" fill="#DF2E2E"/>
<path d="M63.2138 27.5061C63.233 27.573 63.233 27.6685 63.1947 27.7832C63.1851 27.8023 63.1851 27.8214 63.1756 27.8501V27.8597C63.1086 28.003 63.032 28.1464 62.9267 28.2706C62.6395 28.6337 61.9791 28.844 61.3186 28.8631C61.242 28.8631 61.1654 28.8631 61.0889 28.8631C60.5432 28.844 60.0359 28.7006 59.7583 28.433C59.6052 28.2801 59.5095 28.0986 59.4712 27.8788C59.318 27.0761 59.9211 25.8624 60.6964 25.4037C60.7921 25.3464 60.8878 25.2986 60.9836 25.2699C61.0123 25.2604 61.041 25.2508 61.0697 25.2413C61.711 25.0693 62.4672 25.2986 63.166 25.9293C62.4959 26.2542 61.8738 26.4836 61.3377 26.8945C61.0888 27.0856 60.8878 27.2576 60.9644 27.6399C61.0218 27.9457 61.0793 28.0986 61.242 28.1081H61.2516C61.3377 28.1177 61.4622 28.0795 61.6249 27.9839C61.7015 27.9361 61.7876 27.8883 61.8738 27.8406C62.1896 27.6685 62.5055 27.5061 62.8405 27.4201C63.032 27.3723 63.1564 27.401 63.2138 27.4965C63.2043 27.4965 63.2138 27.5061 63.2138 27.5061Z" fill="#A11515"/>
<path d="M62.8398 27.4106C63.0408 27.3629 63.1653 27.3915 63.2131 27.4966C63.1557 27.4011 63.0313 27.3629 62.8398 27.4106C62.4952 27.5062 62.1794 27.6782 61.873 27.8407C62.1698 27.6687 62.4857 27.4966 62.8398 27.4106Z" fill="#DF2E2E"/>
<path d="M63.1656 27.8597C63.1081 28.003 63.022 28.1464 62.9358 28.2706C62.6391 28.6433 61.9786 28.844 61.3086 28.8631C61.9691 28.844 62.6295 28.6337 62.9167 28.2706C63.022 28.1368 63.0986 28.003 63.1656 27.8597Z" fill="#DF2E2E"/>
<path d="M62.792 28.9206C62.8207 28.9015 62.8494 28.8823 62.8685 28.8536C62.8494 28.8823 62.8207 28.9015 62.792 28.9206Z" fill="#DF2E2E"/>
<path d="M62.6299 29.0351C62.6873 28.9969 62.7447 28.9586 62.7925 28.9203C62.7351 28.9682 62.6777 29.0064 62.6299 29.0351Z" fill="#DF2E2E"/>
<path d="M63.1845 25.9293C62.5144 26.2542 61.8827 26.4836 61.3562 26.8945C61.1074 27.0856 60.9063 27.2576 60.9829 27.6399C61.0404 27.9361 61.0978 28.089 61.2414 28.1081C61.0786 28.0986 61.0212 27.9457 60.9638 27.6399C60.8872 27.2576 61.0882 27.0856 61.3371 26.8945C61.8731 26.4836 62.4953 26.2542 63.1653 25.9293C62.4666 25.2986 61.7104 25.0692 61.0691 25.2412C61.7008 25.0501 62.4666 25.2795 63.1845 25.9293Z" fill="#DF2E2E"/>
<path d="M62.2845 50.6228C62.2749 50.6037 62.2654 50.5846 62.2462 50.5654C62.0069 50.1641 61.7676 49.7532 61.5283 49.3518C61.7676 49.7436 61.9974 50.145 62.2367 50.5463C62.2558 50.5654 62.2749 50.5941 62.2845 50.6228Z" fill="#DF2E2E"/>
<path d="M61.71 50.785C61.8823 51.1004 62.0258 51.4444 61.911 51.798C62.0067 51.454 61.8727 51.1004 61.71 50.785Z" fill="#DF2E2E"/>
<path d="M61.7097 50.785C61.8725 51.11 62.016 51.454 61.9107 51.798C61.9012 51.8076 61.9012 51.8267 61.8916 51.8362C61.6332 52.4956 61.3939 53.1645 61.0971 53.8144C61.0493 53.929 60.9918 54.0437 60.9344 54.1584C60.9057 54.2253 60.8674 54.2922 60.8291 54.3591C60.7717 54.4642 60.7238 54.5693 60.6568 54.6649C60.6281 54.7127 60.5994 54.7604 60.5707 54.8082C60.1399 55.5345 59.556 56.1748 59.0296 56.8533C58.0724 58.0764 57.096 59.2614 56.158 60.4942C55.7368 61.0484 55.2582 61.4498 54.5881 61.6505C52.2143 62.3863 49.8308 63.1413 47.3804 63.5522C45.7627 63.8293 44.1259 63.944 42.5561 63.9057C40.0578 63.9249 37.6935 63.5999 35.5015 62.4819C33.9317 61.6791 32.4863 60.6757 31.0505 59.6628C30.3326 59.1467 29.9689 58.344 29.5668 57.6178C28.9829 56.557 28.6192 55.4103 28.5522 54.1584C28.5139 53.4608 28.6288 52.8396 28.8489 52.2854C28.8681 52.2471 28.8776 52.2089 28.8968 52.1707C29.2797 51.3011 29.9593 50.5939 30.7921 49.9728C31.1749 49.6861 31.6248 49.4758 32.0651 49.2752C32.8405 48.9025 33.5967 48.5393 34.2954 48.0424C35.1186 47.4499 36.0567 47.0963 36.9947 46.7332C37.3872 46.5803 37.7796 46.4178 37.9519 46.0451C37.9615 46.0356 37.9615 46.026 37.9711 46.0165C38.0285 45.9018 38.0572 45.768 38.0668 45.6151C38.0668 45.5578 38.086 45.51 38.0955 45.4718C38.0955 45.4622 38.1051 45.4527 38.1051 45.4527C38.2008 45.2998 38.3923 45.2615 38.5741 45.2424C38.89 45.2042 39.2155 45.166 39.5313 45.1182H39.5409L39.5792 45.3858C39.5505 45.3858 39.5122 45.4049 39.4739 45.424C39.2633 45.5482 39.1102 45.7489 39.0049 45.9687C38.9666 46.0547 38.9379 46.1407 38.9379 46.2076C38.9379 46.2267 38.9379 46.2458 38.9379 46.2745C38.957 46.4561 39.1006 46.5803 39.3686 46.609C40.1344 46.6854 40.881 46.609 41.6276 46.4083C43.1591 45.9974 44.6715 45.5387 46.2126 45.2233C47.8781 44.8888 49.5628 44.6786 51.2188 44.2772C51.841 44.1243 52.4632 44.0192 53.0853 43.8568C53.4012 43.7803 53.6692 43.7899 53.9468 43.981C54.4541 44.325 55.0285 44.5448 55.6028 44.7359C56.0144 44.8793 56.3781 45.08 56.6748 45.4049C56.9141 45.6629 57.163 45.9687 57.6033 45.8062C57.7278 45.768 57.8139 45.8636 57.9096 45.9496C58.6945 46.6376 59.3837 47.3926 60.0155 48.2049C60.6568 49.0076 61.212 49.8676 61.7097 50.785Z" fill="#FF8A8A"/>
<path d="M59.8341 29.0255C60.8009 29.5702 61.8347 29.532 62.6291 29.0446C61.8347 29.5415 60.8009 29.5702 59.8245 29.0351C59.1449 28.6624 58.963 28.0603 59.0492 27.3436C58.963 26.5313 59.2598 25.9388 59.7575 25.4897C59.2694 25.9388 58.9726 26.5313 59.0588 27.334C58.9726 28.0603 59.1545 28.6528 59.8341 29.0255Z" fill="#DF2E2E"/>
<path d="M61.3749 33.4405C61.0016 33.6603 60.5421 33.7367 60.0922 33.6794C59.6998 33.6221 59.2977 33.4692 58.9436 33.2016C58.9149 33.1825 58.8861 33.1538 58.8574 33.1347C59.6998 33.2112 60.5325 33.3545 61.3749 33.4405Z" fill="black"/>
<path d="M61.0983 53.8049C61.0504 53.9195 60.993 54.0342 60.9355 54.1489C60.993 54.0342 61.0408 53.9195 61.0983 53.8049Z" fill="#DF2E2E"/>
<path d="M59.5951 19.6604C59.8727 19.6126 60.1407 19.603 60.3991 19.6508C59.6525 20.0139 59.0112 20.3102 58.389 20.6351C57.7189 20.9887 57.1063 21.4378 56.599 22.0112C56.1108 22.5559 55.996 23.2917 55.6035 23.8842C55.6035 23.7982 55.6131 23.7122 55.6227 23.6166C55.6322 23.5593 55.6418 23.4924 55.6514 23.4351C55.6609 23.4064 55.661 23.3777 55.6705 23.3395C55.6897 23.2822 55.6992 23.2153 55.7184 23.1579C55.7375 23.1006 55.7567 23.0337 55.7758 22.9764C55.795 22.919 55.8237 22.8521 55.8524 22.7948C56.4746 21.3518 58.1497 19.9184 59.5951 19.6604Z" fill="black"/>
<path d="M59.7862 46.934C59.5086 46.6377 59.2119 46.3511 58.8769 46.0835C58.7142 45.9497 58.5514 45.7968 58.4461 45.6248C57.9005 44.7743 57.2114 44.0767 56.3882 43.4842C56.2159 43.36 56.101 43.2548 56.0244 43.1497C56.101 43.2453 56.2159 43.3504 56.3786 43.4651C57.2018 44.0576 57.891 44.7552 58.4366 45.6057C58.5514 45.7777 58.7046 45.9306 58.8673 46.0644C59.2023 46.3415 59.5086 46.6282 59.7862 46.934Z" fill="#DF2E2E"/>
<path d="M59.9871 41.573C58.7906 41.3532 57.642 41.3436 56.5508 41.8405C57.6516 41.3341 58.7811 41.3436 59.9871 41.573Z" fill="#DF2E2E"/>
<path d="M57.9298 45.9306C58.7147 46.6282 59.4039 47.3831 60.0356 48.1954C59.4039 47.3831 58.7051 46.6282 57.9298 45.9306C57.8341 45.8542 57.7479 45.7586 57.6235 45.7968C57.1832 45.9593 56.9343 45.6535 56.695 45.3955C56.3983 45.0705 56.0345 44.8699 55.6229 44.7265C55.0486 44.5354 54.4743 44.3156 53.967 43.9716C53.6894 43.7805 53.4213 43.7709 53.1055 43.8473C52.4833 44.0098 51.8611 44.1149 51.2389 44.2678C49.583 44.6692 47.8983 44.8794 46.2328 45.2139C44.6917 45.5292 43.1793 45.9879 41.6477 46.3989C40.9011 46.5995 40.1545 46.676 39.3887 46.5995C39.1207 46.5709 38.9772 46.4466 38.958 46.2651C38.9772 46.4466 39.1207 46.5613 39.3887 46.59C40.1545 46.6664 40.9011 46.59 41.6477 46.3893C43.1697 45.9784 44.6821 45.5197 46.2328 45.2043C47.8983 44.8699 49.583 44.6596 51.2389 44.2583C51.8611 44.1054 52.4833 44.0002 53.1055 43.8378C53.4213 43.7613 53.6798 43.7709 53.967 43.962C54.4743 44.306 55.039 44.5163 55.6229 44.717C56.0345 44.8603 56.3983 45.061 56.695 45.3859C56.9343 45.6535 57.1832 45.9497 57.6235 45.7873C57.7479 45.7395 57.8436 45.8446 57.9298 45.9306Z" fill="#DF2E2E"/>
<path d="M58.944 12.0824C58.2069 11.7575 57.4507 11.5568 56.6562 11.509C57.4412 11.5473 58.2069 11.7479 58.944 12.0824Z" fill="#DF2E2E"/>
<path d="M56.3115 11.4994C56.4264 11.4994 56.5317 11.4994 56.6465 11.5089C56.5413 11.4994 56.4264 11.4994 56.3115 11.4994Z" fill="#DF2E2E"/>
<path d="M56.207 42.0124C56.2262 42.0029 56.2549 41.9933 56.274 41.9742C56.2453 41.9933 56.2262 42.0029 56.207 42.0124Z" fill="#DF2E2E"/>
<path d="M59.5952 19.6603C58.1498 19.9184 56.4747 21.3518 55.8525 22.7948C56.4651 21.3518 58.1403 19.9184 59.5952 19.6603Z" fill="#DF2E2E"/>
<path d="M55.7752 22.9764C55.756 23.0338 55.7369 23.1008 55.7178 23.1582C55.7273 23.1008 55.7465 23.0338 55.7752 22.9764Z" fill="#DF2E2E"/>
<path d="M55.7188 26.4071C55.7188 27.1525 55.7188 27.9074 55.7188 28.6528C55.6422 28.6528 55.5657 28.6624 55.4891 28.6624C55.3742 27.9934 55.3742 27.3245 55.47 26.56C55.4891 26.4358 55.5082 26.3115 55.5274 26.1777C55.6231 26.4549 55.5657 26.2637 55.671 26.3306C55.6901 26.3402 55.7188 26.3784 55.7188 26.4071Z" fill="black"/>
<path d="M55.709 23.158C55.6898 23.2154 55.6707 23.2824 55.6611 23.3398C55.6803 23.2824 55.6898 23.225 55.709 23.158Z" fill="#DF2E2E"/>
<path d="M55.641 23.4351C55.6314 23.4925 55.6219 23.5595 55.6123 23.6169C55.6219 23.5499 55.6314 23.4925 55.641 23.4351Z" fill="#DF2E2E"/>
<path d="M55.4693 26.5505C55.3736 27.3245 55.3736 27.9839 55.4884 28.6528C55.364 27.9935 55.364 27.3245 55.4693 26.5505Z" fill="#DF2E2E"/>
<path d="M54.187 24.9832C54.3019 25.6331 54.1774 26.4071 53.9764 27.1716C53.9573 27.2194 53.9477 27.2767 53.9285 27.3245C53.919 27.3532 53.9094 27.3818 53.9094 27.4105C53.8998 27.4487 53.8903 27.487 53.8903 27.5347C53.8711 27.6972 53.919 27.8597 54.1104 27.9934C54.2827 28.1177 54.2061 28.3279 54.1391 28.4999C53.8711 29.1784 53.5361 29.8282 53.0096 30.3443C52.799 30.545 52.5885 30.6596 52.3874 30.6692C52.3587 30.6692 52.33 30.6692 52.3013 30.6692C52.0237 30.6405 51.8036 30.4207 51.7461 30.0098C51.4877 28.433 51.2388 26.8276 51.4015 25.2317C51.4972 24.3238 52.062 23.5307 52.8086 22.9764C53.0096 22.8331 53.2011 22.7566 53.3829 22.7471C53.4021 22.7471 53.4308 22.7471 53.4499 22.7471C53.8424 22.7662 54.1391 23.1102 54.1774 23.6645C54.1966 23.8843 54.1966 24.1136 54.1966 24.3621C54.1966 24.3907 54.1966 24.429 54.1966 24.4576C54.1966 24.5054 54.1966 24.5532 54.1966 24.601C54.187 24.7157 54.187 24.8494 54.187 24.9832ZM53.5839 26.4453C53.7467 25.8528 53.8137 25.2604 53.7658 24.5245C53.7658 24.3238 53.7945 23.9894 53.7562 23.6549C53.7467 23.5689 53.7275 23.4925 53.6988 23.4256C53.584 23.1867 53.3446 23.1389 53.0575 23.3396C53.0383 23.3587 53.0096 23.3778 52.9905 23.3969C52.8278 23.5211 52.6842 23.6836 52.5502 23.8556C52.5215 23.8938 52.4927 23.932 52.464 23.9703C51.9088 24.7252 51.7653 25.5948 51.8993 26.5122C52.0237 27.4105 52.0811 28.3088 52.1098 29.2166C52.1098 29.3791 52.1194 29.532 52.1481 29.6944C52.1481 29.7136 52.1577 29.7422 52.1577 29.7613C52.2343 30.1436 52.4449 30.2105 52.7129 29.9334C52.7225 29.9238 52.7416 29.9047 52.7512 29.8951C53.0671 29.5702 53.3159 29.2071 53.4117 28.7866C53.4212 28.7484 53.4308 28.7197 53.4308 28.6815C53.4404 28.6433 53.4404 28.6146 53.4404 28.5764C53.4404 28.5573 53.4404 28.5286 53.4499 28.5095C53.4499 28.4808 53.4499 28.4426 53.4499 28.4139C53.4499 28.3279 53.4404 28.2419 53.4308 28.1559C53.3542 27.5634 53.4404 26.9996 53.5839 26.4453Z" fill="black"/>
<path d="M53.9092 27.4106C53.9187 27.3819 53.9283 27.3532 53.9283 27.3245C53.9187 27.3532 53.9092 27.3819 53.9092 27.4106Z" fill="#DF2E2E"/>
<path d="M53.7851 42.796C53.8042 43.0158 53.6319 43.1974 53.4118 43.2547C52.8566 43.3981 52.2918 43.551 51.7271 43.6465C50.0233 43.9428 48.3386 44.3346 46.6348 44.6117C44.9884 44.8793 43.3994 45.4049 41.7818 45.8349C41.3127 45.9591 40.8437 46.0834 40.3555 46.0929C40.0109 46.1025 39.561 46.2363 39.8099 45.5769C39.8578 45.4622 39.7333 45.3667 39.5993 45.3858C39.561 45.3953 39.5228 45.4049 39.494 45.424C39.2835 45.5482 39.1303 45.7489 39.025 45.9687C38.9867 46.0547 38.958 46.1312 38.958 46.1981C38.958 46.1216 38.9867 46.0452 39.025 45.9592C39.1303 45.7394 39.2835 45.5387 39.494 45.4144C39.5323 45.3953 39.5706 45.3762 39.5993 45.3762L39.561 45.1086C42.9687 44.6213 46.2615 43.5797 49.6787 43.1401C50.5497 43.0349 51.4017 42.796 52.2727 42.6431C52.5982 42.5858 52.9332 42.5762 53.2682 42.5762C53.4692 42.5762 53.7468 42.4998 53.7851 42.796Z" fill="#FF8A8A"/>
<path d="M53.584 26.4453C53.7371 25.8529 53.8041 25.2604 53.7659 24.5245C53.8137 25.2604 53.7467 25.8529 53.584 26.4453Z" fill="#DF2E2E"/>
<path d="M53.766 24.5245C53.8042 25.2603 53.7372 25.8528 53.5841 26.4453C53.4405 26.9995 53.3544 27.5633 53.4405 28.1463C53.4501 28.2323 53.4596 28.3183 53.4596 28.4043C53.4596 28.433 53.4596 28.4712 53.4596 28.4998C53.4596 28.519 53.4596 28.5476 53.4501 28.5667C53.4501 28.605 53.4405 28.6336 53.4405 28.6719C53.4309 28.7101 53.4309 28.7388 53.4214 28.777C53.3161 29.1975 53.0672 29.551 52.7609 29.8855C52.7513 29.8951 52.7322 29.9142 52.7226 29.9237C52.4546 30.2009 52.244 30.134 52.1674 29.7517C52.1579 29.7326 52.1578 29.7039 52.1578 29.6848C52.1291 29.5319 52.1291 29.3695 52.1196 29.207C52.1004 28.2992 52.043 27.4009 51.909 26.5026C51.7845 25.5852 51.9281 24.7156 52.4737 23.9606C52.5024 23.9224 52.5312 23.8842 52.5599 23.846C52.6843 23.6835 52.8279 23.521 53.0002 23.3873C53.0193 23.3681 53.048 23.349 53.0672 23.3299C53.3543 23.1388 53.5937 23.177 53.7085 23.4159C53.7372 23.4828 53.7564 23.5593 53.766 23.6453C53.7947 23.9893 53.766 24.3238 53.766 24.5245Z" fill="#FF8A8A"/>
<path d="M53.0566 23.3396C53.3438 23.1389 53.5831 23.1867 53.698 23.4256C53.5831 23.1867 53.3438 23.1485 53.0566 23.3396Z" fill="#DF2E2E"/>
<path d="M53.3341 62.7017C53.3724 62.7591 53.4011 62.8068 53.4394 62.8642C53.315 62.9597 53.1906 63.0457 53.0565 63.1413C52.6737 63.428 52.3004 63.7147 51.9079 63.9631C49.4862 65.4826 46.9113 66.7058 44.2024 67.6423C44.0301 67.6996 43.8482 67.7474 43.6855 67.8239C41.5892 68.8081 39.3973 68.7986 37.167 68.5023C36.6597 68.4354 36.1332 68.4355 35.6259 68.445C34.1901 68.4641 32.8691 68.0914 31.6152 67.4129C29.2892 66.1515 27.1163 64.6607 24.9435 63.1509C24.015 62.501 23.1918 61.7461 22.6366 60.7331C22.5218 60.5229 22.3495 60.3413 22.1963 60.1598C21.9091 59.8157 21.6698 59.4335 21.4784 59.0417C21.3827 58.8505 21.2965 58.6594 21.22 58.4683C21.0381 57.9905 20.8849 57.5031 20.7605 56.9966C20.7031 56.7577 20.6073 56.5475 20.5116 56.3277C20.0235 55.2001 19.966 54.0342 20.1862 52.8492C20.3106 52.1803 20.6648 51.6834 21.287 51.3871C21.9474 51.0718 22.6079 50.7564 23.2588 50.4411C25.9007 49.1414 28.5617 47.8895 31.2993 46.8097C33.0989 46.1025 34.975 45.7776 36.8607 45.4527C36.9851 45.424 37.1 45.4336 37.2244 45.424C37.3393 45.4145 37.435 45.4431 37.4924 45.51C37.502 45.5196 37.5116 45.5292 37.5116 45.5387C37.5307 45.5674 37.5498 45.5961 37.5594 45.6343C37.5977 45.7967 37.5499 45.9401 37.4063 46.0261C37.2531 46.1216 37.0904 46.2076 36.9181 46.265C35.7599 46.7141 34.64 47.2397 33.5966 47.9469C33.051 48.3196 32.4288 48.5871 31.8162 48.8643C30.9164 49.2656 30.1124 49.8008 29.4328 50.508C28.2076 51.7885 27.8055 53.3557 28.131 55.0472C28.3033 55.9359 28.5617 56.8055 28.9446 57.6274C29.0212 57.7898 29.1073 57.9523 29.1935 58.1147C29.4041 58.497 29.6338 58.8601 29.9114 59.2137C30.2081 59.5959 30.5144 59.9877 30.9164 60.2553C32.5341 61.3352 34.0848 62.501 35.8652 63.3133C37.4063 64.0205 39.0431 64.3645 40.7086 64.4601C44.346 64.6703 47.9259 64.3645 51.4102 63.2082C51.9653 63.0266 52.5301 62.9024 53.0948 62.759C53.1714 62.7399 53.248 62.7208 53.3341 62.7017Z" fill="#DF2E2E"/>
<path d="M53.3827 22.7471C53.2009 22.7566 53.0094 22.8331 52.8084 22.9764C52.0618 23.5307 51.4971 24.3238 51.4013 25.2317C51.2386 26.8276 51.4875 28.433 51.7459 30.0098C51.8129 30.4207 52.0331 30.6405 52.3011 30.6692C52.0235 30.6501 51.8034 30.4207 51.7364 30.0098C51.4779 28.433 51.229 26.8276 51.3918 25.2317C51.4875 24.3238 52.0427 23.5402 52.7989 22.9764C52.9999 22.8235 53.2009 22.7471 53.3827 22.7471Z" fill="#DF2E2E"/>
<path d="M52.5498 23.8461C52.6742 23.6741 52.8178 23.5212 52.9901 23.3874C52.8178 23.5212 52.6742 23.6836 52.5498 23.8461Z" fill="#DF2E2E"/>
<path d="M52.4541 23.9606C51.9085 24.7155 51.765 25.5851 51.8894 26.5025C51.7554 25.5851 51.9085 24.7155 52.4541 23.9606Z" fill="#DF2E2E"/>
<path d="M53.086 62.7591C52.5212 62.8929 51.9565 63.0267 51.4013 63.2083C47.9171 64.3646 44.3371 64.6704 40.6997 64.4601C39.0342 64.3646 37.3974 64.0206 35.8563 63.3134C34.0759 62.5011 32.5252 61.3353 30.9075 60.2554C30.5055 59.9878 30.1992 59.596 29.9025 59.2138C29.6345 58.8602 29.3952 58.4971 29.1846 58.1148C29.3856 58.4875 29.6249 58.8506 29.8929 59.1947C30.1896 59.5865 30.4959 59.9687 30.898 60.2363C32.5061 61.3066 34.0663 62.482 35.8467 63.2943C37.3974 64.0014 39.0246 64.3455 40.6902 64.441C44.318 64.6608 47.9075 64.3455 51.3917 63.1892C51.9564 63.0172 52.5308 62.8929 53.086 62.7591Z" fill="#DF2E2E"/>
<path d="M44.7197 43.4937C46.3565 43.1879 47.9934 42.9108 49.6302 42.5954C47.9934 42.9108 46.347 43.1974 44.7197 43.4937Z" fill="#DF2E2E"/>
<path d="M46.625 35.5429C46.6633 35.3327 46.692 35.132 46.7207 34.9313C46.692 35.132 46.6537 35.3327 46.625 35.5429Z" fill="#DF2E2E"/>
<path d="M46.2901 32.6378C46.3092 33.6125 46.2518 34.5681 46.1082 35.5238C45.9742 36.4794 45.754 37.4255 45.4573 38.3715C45.419 38.4862 45.3807 38.6104 45.3424 38.7251C45.3041 38.8302 45.2658 38.9449 45.2371 39.05C45.1318 39.3749 45.0361 39.7094 44.9787 40.0439C44.7585 41.3244 43.8875 42.3374 43.5046 43.551C43.4854 43.6274 43.4376 43.6848 43.3897 43.723C43.3801 43.7326 43.3706 43.7421 43.361 43.7421C43.3514 43.7517 43.3419 43.7612 43.3323 43.7612C43.1887 43.8377 42.9973 43.8568 42.8345 43.895C41.1882 44.3346 39.5131 44.6117 37.8188 44.7838C35.5215 45.0131 33.2529 45.4431 31.0897 46.2936C28.3521 47.3735 25.7006 48.6445 23.0683 49.9632C22.3983 50.3073 21.6995 50.6226 21.0294 50.9666C20.6274 51.1673 20.3115 51.4349 20.0818 51.7311C20.0435 51.7789 20.0148 51.8171 19.9861 51.8649C19.6606 52.3332 19.4883 52.9066 19.4405 53.5659C19.3448 54.77 19.6224 55.8977 20.0435 56.9966C20.1105 57.1686 20.1871 57.3311 20.2445 57.5031C20.3594 57.828 20.3977 58 20.3211 58.1051C20.2445 58.1816 20.0914 58.2198 19.8425 58.2772C19.0289 58.4587 18.2057 58.4205 17.3921 58.3249C16.6167 58.2389 15.8318 58.1243 15.0469 58.0287C14.2142 57.9331 13.4388 57.6656 12.8071 57.1113C12.2136 56.5953 11.5723 56.1366 10.8927 55.7352C8.8251 54.512 7.56159 52.5816 6.35552 50.6131C5.54189 49.2943 4.80484 47.9373 4.09651 46.5612C3.4839 45.3762 3.07231 44.0862 2.73729 42.8056C2.27783 41.0568 1.73222 39.3176 1.38763 37.5306C0.97603 35.4091 0.583578 33.2876 0.851595 31.1279C1.2249 28.1272 2.22997 25.375 4.3071 23.0815C4.80484 22.5368 5.25473 21.9539 5.75248 21.4188C5.7812 21.3901 5.80991 21.3614 5.83862 21.3327C6.20236 20.9601 6.58525 20.616 7.02556 20.3198C8.31778 19.4788 9.60044 18.6092 10.9597 17.8638C11.4478 17.5963 11.9743 17.5485 12.5295 17.4911C14.1663 17.3191 15.7265 17.6249 17.2964 17.9785C18.0908 18.1601 18.9236 18.1983 19.7468 18.2079C23.5469 18.2556 23.5565 18.2843 27.6916 17.0611C29.3571 16.5642 31.0418 16.2202 32.7456 15.9335C34.0761 15.7137 35.3779 15.8475 36.6127 16.526C38.441 17.5198 40.0874 18.743 41.705 20.0235C42.2602 20.4631 42.7005 21.0078 43.0356 21.629C44.4618 24.2761 45.6774 27.0092 46.1273 30.0289C46.1943 30.4016 46.2326 30.7839 46.2518 31.1566C46.2518 31.1661 46.2518 31.1757 46.2518 31.1852C46.2709 31.5579 46.2805 31.9306 46.2805 32.3033C46.2805 32.418 46.2805 32.5231 46.2901 32.6378ZM11.132 23.846C11.2947 23.4829 11.333 23.158 11.2372 22.9C11.2181 22.8331 11.1894 22.7757 11.1511 22.728C11.1224 22.6897 11.0937 22.642 11.0554 22.6133C11.0362 22.5942 11.0075 22.5655 10.9788 22.5464C10.9692 22.5368 10.9597 22.5273 10.9405 22.5177C10.9214 22.5082 10.9022 22.4891 10.8927 22.4795C10.8735 22.4699 10.8639 22.4604 10.8448 22.4508C10.6055 22.317 10.28 22.2406 9.85888 22.2406C9.25584 22.2979 8.69109 22.728 8.21249 23.2918C7.98276 23.5785 7.79132 23.8843 7.58074 24.1805C6.16407 26.1778 5.29302 28.3757 5.16858 30.8412C5.16858 30.889 5.16858 30.9272 5.16858 30.9654C5.16858 31.0132 5.16858 31.0514 5.16858 31.0897C5.15901 32.3798 5.63761 33.4883 6.74797 34.2337C7.92533 35.0268 8.6528 34.6159 8.70066 33.2207C8.71024 33.0105 8.71024 32.8098 8.71981 32.5996C8.74853 31.7682 8.7581 30.9463 8.74853 30.1149C8.74853 30.0863 8.74853 30.0672 8.74853 30.0385C8.74853 28.7293 9.14097 27.5443 9.79187 26.4262C10.0982 25.8911 10.3949 25.3559 10.6725 24.8112C10.7299 24.6965 10.7874 24.5914 10.8448 24.4768C10.9214 24.2665 11.0267 24.0563 11.132 23.846ZM9.19841 40.5121C9.50472 40.2828 9.46642 39.9483 9.40899 39.6043C9.21755 38.4575 8.72938 37.4159 8.29864 36.3552C8.13591 35.9729 7.83918 35.8296 7.43716 35.82C7.42758 35.82 7.42758 35.82 7.41801 35.82C7.40844 35.82 7.40844 35.82 7.39886 35.82C7.00641 35.8104 6.70968 35.9633 6.50867 36.3074C6.3268 36.6036 6.31723 36.9381 6.31723 37.2726C6.31723 38.0944 7.19786 39.891 7.83918 40.3688C7.9349 40.4452 8.03062 40.5121 8.14549 40.5599C8.42308 40.665 8.70066 40.7319 8.94954 40.6459C9.03568 40.6077 9.11226 40.5695 9.19841 40.5121Z" fill="#DF2E2E"/>
<path d="M46.251 31.1853C46.2701 31.558 46.2797 31.9307 46.2797 32.3034C46.2797 31.9307 46.2701 31.558 46.251 31.1853Z" fill="#DF2E2E"/>
<path d="M46.5867 35.7531C46.29 37.3586 45.9454 38.9449 45.4189 40.4834C45.9358 38.9449 46.2804 37.349 46.5867 35.7531Z" fill="#DF2E2E"/>
<path d="M45.457 38.362C45.7538 37.4255 45.9644 36.4794 46.1079 35.5142C45.9739 36.4794 45.7538 37.4255 45.457 38.362Z" fill="#DF2E2E"/>
<path d="M45.4088 40.4835C45.361 40.6364 45.3035 40.7893 45.2461 40.9422C45.3035 40.7893 45.361 40.6364 45.4088 40.4835Z" fill="#DF2E2E"/>
<path d="M43.9736 22.1545C44.9691 23.8938 45.5913 25.805 46.1752 27.6972C45.5817 25.7955 44.9596 23.8938 43.9736 22.1545Z" fill="#DF2E2E"/>
<path d="M44.1836 43.4171C44.3367 43.5413 44.4995 43.5318 44.6622 43.5031C44.4995 43.5222 44.3272 43.5509 44.1836 43.4171Z" fill="#DF2E2E"/>
<path d="M44.2219 43.1687C44.1836 43.2356 44.1932 43.3407 44.1836 43.4172C44.1932 43.3407 44.174 43.2356 44.2219 43.1687Z" fill="#DF2E2E"/>
<path d="M43.916 15.1785C43.983 15.0161 44.0883 14.8823 44.2606 14.7772C44.0883 14.8918 43.983 15.0161 43.916 15.1785Z" fill="#DF2E2E"/>
<path d="M43.0059 16.3157C43.3792 16.1723 43.6759 15.8665 43.8195 15.4556C43.6759 15.8761 43.3792 16.1723 43.0059 16.3157Z" fill="#DF2E2E"/>
<path d="M43.399 14.4715C43.4085 14.5288 43.4085 14.5957 43.399 14.6626C43.3894 14.8633 43.3224 15.064 43.2075 15.2551C43.198 15.2742 43.1884 15.2838 43.1788 15.3029C43.1405 15.3602 43.0927 15.4176 43.0257 15.4653C43.0065 15.4845 42.9778 15.5036 42.9587 15.5131C42.9299 15.5322 42.9012 15.5513 42.8725 15.5705C42.5471 15.7711 42.078 15.924 41.7047 15.9336C41.676 15.9336 41.6473 15.9336 41.6186 15.9336C41.4846 15.924 41.3697 15.9049 41.2836 15.8571C40.2115 15.2551 39.0724 15.0544 37.8663 15.1022C37.3016 15.1213 36.7943 14.9206 36.3061 14.6531C35.3106 14.1179 34.296 13.6974 33.109 13.7643C32.4869 13.8026 31.836 13.6401 31.2521 13.363C31.0606 13.2674 30.9553 13.1623 30.9266 13.0381C30.9075 12.9043 30.9841 12.7609 31.1755 12.6176C31.5775 12.3118 32.0753 12.2831 32.5634 12.2736C33.5398 12.264 34.497 12.4169 35.4638 12.5316C36.1147 12.608 36.756 12.7609 37.5888 12.6367L37.5792 12.6271H37.5888C36.6986 11.9391 35.4255 11.748 32.037 11.7193C32.5826 11.079 33.2718 10.6968 33.9322 10.305C34.2098 10.1425 34.5257 10.2954 34.8129 10.4005C36.4018 10.9835 38.0386 10.6872 39.6563 10.7637C39.6563 10.7446 39.6659 10.7159 39.6659 10.6968C39.6659 10.6777 39.6659 10.6681 39.6659 10.649C39.6659 10.3814 39.4649 10.4005 39.3213 10.391C38.8044 10.3623 38.2875 10.3528 37.7706 10.3528C36.6986 10.3623 35.6839 10.047 34.631 9.84628C35.1192 8.94799 35.5212 8.7473 36.4305 8.88109C37.1484 8.98621 37.8663 9.01488 38.7948 8.88109L38.7853 8.87154H38.7948C38.0004 8.34595 37.225 8.76642 36.5358 8.39373C36.8613 7.84902 37.6845 7.82991 37.9142 7.06541V7.05585C37.1293 7.2852 36.5645 7.71523 35.9615 8.06881C35.3585 8.42239 34.7937 8.82376 34.162 9.40668C34.1237 8.40328 34.3438 7.48589 34.6214 6.59716C34.698 6.35825 34.7746 6.1289 34.8512 5.89955C35.1287 5.08727 35.4159 4.28454 35.5691 3.45315V3.4436C35.4255 3.49138 35.3298 3.49138 35.3202 3.52005C34.9182 4.93437 33.9227 6.1289 33.7695 7.64834C33.7312 7.97325 33.6642 8.30772 33.6547 8.63263C33.6547 8.71864 33.6547 8.79509 33.6547 8.88109C33.6547 8.92887 33.6642 8.9671 33.6642 9.01488C33.6642 9.05311 33.6738 9.09133 33.6738 9.12956C33.6738 9.19645 33.6738 9.26334 33.6738 9.33024C33.6451 9.8176 33.3962 10.1616 32.908 10.4005C32.7262 10.4865 32.6017 10.7063 32.305 10.6299C32.305 10.5917 32.305 10.5439 32.3146 10.5057C32.3624 9.71248 32.5347 8.92887 32.6687 8.14526C32.6974 7.97325 32.7262 7.8108 32.7453 7.64834C32.7549 7.61967 32.7549 7.591 32.7549 7.56233C32.7644 7.46677 32.7836 7.36165 32.7932 7.25653C32.8027 7.15141 32.8123 7.03674 32.8219 6.93162C32.8314 6.83606 32.8315 6.73094 32.8315 6.63538V6.62582C32.4677 7.16097 32.1231 7.70568 32.037 8.36506C31.9604 8.93843 31.8647 9.50225 31.8264 10.0756C31.8264 10.1043 31.8264 10.133 31.8168 10.1616C31.8072 10.2285 31.7977 10.2954 31.7977 10.3623C31.7881 10.391 31.7881 10.4196 31.7785 10.4483C31.769 10.5057 31.7594 10.563 31.7402 10.6203C31.7211 10.6968 31.7019 10.7732 31.6732 10.8497C31.6637 10.8783 31.6541 10.8975 31.6445 10.9261C31.6445 10.9261 31.6445 10.9357 31.635 10.9452C31.4244 11.5186 31.0702 12.0155 30.6586 12.5029C30.4002 12.8087 30.2087 12.7418 30.046 12.4169C29.9024 12.1398 29.845 11.8531 29.8258 11.5377C29.8258 11.4995 29.8163 11.4708 29.8163 11.4326C29.6823 9.00532 30.0173 6.6736 31.0128 4.43744C31.635 3.04223 32.5347 1.90504 33.9227 1.17877C34.6406 0.806076 35.4159 0.662732 36.1817 0.509832C36.8613 0.376045 37.5983 1.11187 37.6749 1.93371C37.7036 2.23951 37.7228 2.54531 37.7419 2.85111C37.7706 3.35759 37.7802 3.87363 37.7802 4.38011C37.7802 4.45656 37.7802 4.54256 37.7898 4.61901C37.8376 5.8231 38.1631 6.90295 39.1586 7.71523C39.2256 7.77257 39.3022 7.83946 39.3404 7.91592C40.0392 9.29201 41.2261 10.3623 41.877 11.7766C41.9345 11.9009 42.0015 12.0347 42.0685 12.1493C42.0685 12.1493 42.0685 12.1589 42.078 12.1589C42.2791 12.5411 42.5183 12.9043 42.7768 13.2387C42.8438 13.3247 42.9108 13.4107 42.9682 13.4968C43.0257 13.5828 43.0831 13.6688 43.1405 13.7643C43.1501 13.7834 43.1597 13.8026 43.1693 13.8121C43.3033 14.0224 43.3798 14.2517 43.399 14.4715Z" fill="#13751E"/>
<path d="M43.3418 43.7612C43.3514 43.7516 43.3609 43.7516 43.3705 43.7421C43.3609 43.7421 43.3514 43.7516 43.3418 43.7612Z" fill="#DF2E2E"/>
<path d="M42.8436 43.8951C43.0063 43.8569 43.1977 43.8378 43.3413 43.7614C43.1977 43.8474 42.9967 43.8665 42.8244 43.9142C41.178 44.3538 39.5029 44.631 37.8087 44.803C35.5114 45.0419 33.2428 45.4624 31.0795 46.3129C28.3323 47.3927 25.6809 48.6637 23.0582 49.9825C22.3785 50.3265 21.6894 50.6323 21.0193 50.9859C20.6269 51.1865 20.3205 51.435 20.0908 51.7312C20.3301 51.4254 20.6364 51.1674 21.0385 50.9667C21.7085 50.6227 22.4073 50.3074 23.0773 49.9633C25.7096 48.6446 28.3611 47.3736 31.0987 46.2938C33.2619 45.4433 35.5305 45.0132 37.8278 44.7839C39.5221 44.6119 41.1972 44.3347 42.8436 43.8951Z" fill="#DF2E2E"/>
<path d="M43.1885 13.8025C43.3129 14.0223 43.3895 14.2516 43.3991 14.4714C43.3799 14.2516 43.3033 14.0223 43.1885 13.8025Z" fill="#DF2E2E"/>
<path d="M43.0259 15.4556C43.0068 15.4748 42.9781 15.4939 42.959 15.5035C42.9781 15.4939 43.0068 15.4748 43.0259 15.4556Z" fill="#DF2E2E"/>
<path d="M42.7964 13.2197C42.8634 13.3152 42.9304 13.4012 42.9879 13.4872C42.9209 13.3917 42.8634 13.3152 42.7964 13.2197C42.5284 12.8852 42.2987 12.522 42.0977 12.1494C42.2891 12.522 42.5284 12.8756 42.7964 13.2197Z" fill="#DF2E2E"/>
<path d="M42.0883 12.13C42.0213 12.0058 41.9543 11.8816 41.8968 11.7574C41.2459 10.343 40.059 9.27273 39.3602 7.89663C39.3219 7.82018 39.2454 7.75329 39.1784 7.69595C38.1829 6.88367 37.8574 5.80382 37.8096 4.59973C37.867 5.80382 38.1829 6.87411 39.1784 7.68639C39.2454 7.74373 39.3219 7.81063 39.3602 7.88708C40.059 9.27273 41.2459 10.3335 41.8968 11.7478C41.9543 11.872 42.0117 12.0058 42.0883 12.13Z" fill="#DF2E2E"/>
<path d="M41.7051 15.9335C42.0784 15.924 42.5474 15.7711 42.8729 15.5704C42.5474 15.7806 42.0784 15.924 41.7051 15.9335Z" fill="#DF2E2E"/>
<path d="M40.8047 18.3895C40.8238 18.6093 40.9961 18.8004 41.3407 19.0871C40.9961 18.8004 40.8238 18.6093 40.8047 18.3895Z" fill="#DF2E2E"/>
<path d="M39.6563 10.7541C39.6563 10.735 39.6563 10.7158 39.6658 10.6967C39.6563 10.7158 39.6563 10.735 39.6563 10.7541C38.0386 10.6872 36.4018 10.9834 34.8128 10.4005C34.5256 10.2954 34.2098 10.1425 33.9322 10.3049C33.2621 10.6967 32.5825 11.079 32.0369 11.7192H32.0273C32.5729 11.079 33.2621 10.6872 33.9322 10.2954C34.2098 10.1329 34.5256 10.2858 34.8128 10.3909C36.4018 10.9739 38.0482 10.6681 39.6563 10.7541Z" fill="#DF2E2E"/>
<path d="M39.5608 45.0896V45.1087H39.5512C39.2354 45.1565 38.9099 45.1947 38.594 45.2329C38.4122 45.2521 38.2111 45.2903 38.125 45.4432C38.2111 45.2712 38.4122 45.2329 38.6036 45.2138C38.9195 45.1756 39.2449 45.1374 39.5608 45.0896Z" fill="#DF2E2E"/>
<path d="M38.7761 8.88115C38.7761 8.88115 38.7857 8.88115 38.7857 8.89071C37.8572 9.02449 37.1393 8.99583 36.4214 8.89071C35.5025 8.75692 35.1005 8.9576 34.6219 9.85588C34.6219 9.85588 34.6219 9.85588 34.6123 9.85588C35.1005 8.94804 35.5025 8.75692 36.4214 8.88115C37.1393 8.98627 37.8572 9.01493 38.7761 8.88115Z" fill="#DF2E2E"/>
<path d="M37.9143 7.07489C37.675 7.83939 36.8614 7.8585 36.5359 8.4032C36.5359 8.4032 36.5359 8.4032 36.5264 8.4032C36.8518 7.84894 37.675 7.83939 37.9143 7.07489Z" fill="#DF2E2E"/>
<path d="M37.0147 46.7141C37.3976 46.5612 37.7805 46.4083 37.9624 46.0547C37.7805 46.4178 37.3976 46.5898 37.0052 46.7427C36.0671 47.1059 35.129 47.4594 34.3058 48.0519C33.6071 48.5489 32.8509 48.912 32.0756 49.2847C31.6353 49.4854 31.1854 49.6956 30.8025 49.9823C29.9697 50.6035 29.2997 51.3106 28.9072 52.1802C29.2901 51.3011 29.9697 50.5843 30.8121 49.9632C31.1949 49.6765 31.6544 49.4758 32.0851 49.2656C32.8509 48.9024 33.6167 48.5297 34.3154 48.0328C35.1386 47.4403 36.0767 47.0772 37.0147 46.7141Z" fill="#DF2E2E"/>
<path d="M37.6935 1.90502C37.7222 2.21082 37.7414 2.52618 37.7605 2.83198C37.7414 2.52618 37.7222 2.22038 37.6935 1.91458C37.6169 1.09274 36.8799 0.356912 36.2003 0.4907C35.4345 0.643599 34.6592 0.786943 33.9413 1.15964C32.5533 1.88591 31.6536 3.0231 31.0314 4.41831C30.0455 6.66403 29.7009 8.99575 29.8349 11.4135C29.6913 8.98619 30.0359 6.64492 31.0314 4.40876C31.6536 3.00399 32.5533 1.8668 33.9413 1.15008C34.6592 0.777389 35.4345 0.634045 36.2003 0.481146C36.8799 0.347358 37.6169 1.08319 37.6935 1.90502Z" fill="#DF2E2E"/>
<path d="M37.5695 12.6271L37.5791 12.6366C36.7463 12.7608 36.105 12.6079 35.4541 12.5315C34.4873 12.4168 33.5301 12.2639 32.5538 12.2735C32.0656 12.283 31.5679 12.3117 31.1658 12.6175C30.9744 12.7608 30.8978 12.9042 30.917 13.038C30.8882 12.8946 30.9648 12.7513 31.1658 12.6079C31.5679 12.3021 32.0656 12.2735 32.5538 12.2639C33.5301 12.2544 34.4873 12.4073 35.4541 12.5219C36.0954 12.5984 36.7463 12.7417 37.5695 12.6271Z" fill="#DF2E2E"/>
<path d="M37.2161 45.4048C37.3309 45.3952 37.4362 45.4334 37.4937 45.5099C37.4362 45.443 37.3405 45.4239 37.2256 45.4239C37.1012 45.4334 36.9863 45.4239 36.8619 45.4525C34.9762 45.7775 33.1001 46.1024 31.3006 46.8095C28.563 47.8894 25.9019 49.1412 23.26 50.4409C22.6091 50.7563 21.9487 51.0716 21.2882 51.387C20.666 51.6832 20.3118 52.1801 20.1874 52.8491C19.9673 54.034 20.0247 55.1999 20.5129 56.3275C20.6086 56.5473 20.7043 56.7576 20.7617 56.9965C20.8957 57.4934 21.0393 57.9903 21.2212 58.4681C21.0298 57.9808 20.8862 57.4838 20.7522 56.9774C20.6947 56.7385 20.599 56.5282 20.5033 56.3084C20.0055 55.1903 19.9577 54.0245 20.1778 52.83C20.3023 52.161 20.6564 51.6641 21.2786 51.3679C21.9391 51.0525 22.5996 50.7467 23.2505 50.4218C25.8923 49.1317 28.5534 47.8703 31.291 46.7904C33.0905 46.0833 34.9666 45.7583 36.8523 45.4334C36.9672 45.4143 37.0916 45.4143 37.2161 45.4048Z" fill="#DF2E2E"/>
<path d="M35.5695 3.45319C35.4163 4.29413 35.1292 5.0873 34.8516 5.89958C35.1292 5.0873 35.4163 4.28458 35.5695 3.45319Z" fill="#DF2E2E"/>
<path d="M33.6736 9.00521C33.6736 9.05299 33.6832 9.09122 33.6832 9.12945C33.6832 9.09122 33.6736 9.053 33.6736 9.01477C33.6641 8.96699 33.6641 8.92876 33.6641 8.88098C33.6641 8.91921 33.6641 8.95743 33.6736 9.00521Z" fill="#DF2E2E"/>
<path d="M32.793 7.24697C32.8025 7.14185 32.8121 7.02718 32.8217 6.92206C32.8217 7.02718 32.8121 7.1323 32.793 7.24697Z" fill="#DF2E2E"/>
<path d="M31.7881 10.4291C31.7881 10.4004 31.7976 10.3717 31.8072 10.343C31.7976 10.3717 31.7977 10.4004 31.7881 10.4291Z" fill="#DF2E2E"/>
<path d="M31.75 10.5917C31.7596 10.5343 31.7787 10.4769 31.7883 10.4196C31.7787 10.4865 31.7691 10.5439 31.75 10.5917Z" fill="#DF2E2E"/>
<path d="M30.2854 15.5417C30.3715 15.5417 30.4673 15.5321 30.5438 15.7041C28.3805 16.3157 26.2651 16.9273 24.1401 17.5294C24.121 17.5389 24.1018 17.5389 24.0827 17.5485C24.0348 17.558 23.9774 17.5771 23.9391 17.5867C23.8338 17.6058 23.7477 17.6154 23.6711 17.5963C23.4892 17.558 23.4222 17.386 23.3839 17.0038C23.3744 16.9464 23.3744 16.8986 23.3744 16.8413C23.3648 16.7171 23.3744 16.5833 23.3744 16.4591C23.3744 16.4208 23.3744 16.3826 23.3744 16.3539C23.4031 15.8188 23.4988 15.7232 24.1114 15.7041C25.6525 15.6468 27.1936 15.6086 28.7443 15.5799C29.2516 15.5608 29.7685 15.5512 30.2854 15.5417Z" fill="#A11515"/>
<path d="M24.1396 17.5295C26.2646 16.9274 28.3801 16.3158 30.5433 15.7042C28.3801 16.3254 26.2646 16.937 24.1396 17.5295Z" fill="#DF2E2E"/>
<path d="M28.7342 15.5704C27.1931 15.6086 25.652 15.6373 24.1013 15.6946C23.4887 15.7137 23.393 15.8093 23.3643 16.3444C23.393 15.7997 23.4791 15.7042 24.1013 15.685C25.6424 15.6373 27.1931 15.6086 28.7342 15.5704Z" fill="#DF2E2E"/>
<path d="M22.2164 17.3477C22.226 17.4433 22.2355 17.5388 22.2355 17.6344C21.1922 17.644 20.1584 17.7013 19.115 17.6631C18.0525 17.6249 16.9805 17.4911 15.8701 17.1184C16.8369 16.7361 17.6888 16.4685 18.5694 16.4303C19.5649 16.3634 20.5604 16.3252 21.5463 16.1627C21.7952 16.115 21.9388 16.1627 22.0058 16.3825C22.0058 16.3921 22.0154 16.4017 22.0154 16.4208C22.0441 16.5546 22.0919 16.6883 22.1207 16.8317C22.1589 17.0037 22.1972 17.1662 22.2164 17.3477Z" fill="#A11515"/>
<path d="M21.9958 16.3922C21.9288 16.1725 21.7853 16.1247 21.5364 16.1724C20.5505 16.3349 19.555 16.3731 18.5595 16.44C17.6788 16.4878 16.8365 16.7554 15.8602 17.1281C15.8506 17.1281 15.8506 17.1281 15.8506 17.1185C16.8269 16.7363 17.6693 16.4687 18.5595 16.4209C19.555 16.3636 20.5505 16.3254 21.5364 16.1533C21.7853 16.1247 21.9288 16.1629 21.9958 16.3922Z" fill="#DF2E2E"/>
<path d="M19.8421 58.2772C20.091 58.2199 20.2442 58.1817 20.3207 58.1052C20.2537 58.1912 20.1006 58.239 19.823 58.2963C19.0094 58.4779 18.1958 58.4492 17.3726 58.3441C16.5877 58.2486 15.8123 58.1339 15.0274 58.0479C14.1946 57.9523 13.4193 57.6847 12.7876 57.1305C12.1941 56.6049 11.5528 56.1557 10.8731 55.7544C8.80558 54.5312 7.54207 52.6008 6.336 50.6322C5.53195 49.3135 4.7949 47.9469 4.077 46.5804C3.46439 45.3954 3.05279 44.1053 2.71777 42.8248C2.25831 41.0664 1.7127 39.3368 1.36811 37.5497C0.956509 35.4283 0.57363 33.3068 0.832075 31.1471C1.20538 28.1369 2.21045 25.3942 4.28758 23.1007C4.78532 22.5465 5.24479 21.9635 5.7521 21.4188C5.25436 21.954 4.80447 22.5369 4.30672 23.0816C2.22959 25.3751 1.22453 28.1273 0.85122 31.128C0.583203 33.2877 0.975655 35.4091 1.38725 37.5306C1.73185 39.3176 2.27745 41.0569 2.73691 42.8057C3.07193 44.0862 3.48353 45.3763 4.09614 46.5613C4.80447 47.9374 5.54152 49.2944 6.35514 50.6131C7.56122 52.5817 8.82472 54.5121 10.8923 55.7353C11.5719 56.1366 12.2132 56.5953 12.8067 57.1114C13.4384 57.6656 14.2138 57.9332 15.0465 58.0288C15.8315 58.1243 16.6164 58.239 17.3917 58.325C18.2053 58.4206 19.0285 58.4588 19.8421 58.2772Z" fill="#DF2E2E"/>
<path d="M11.2275 22.9001C11.3232 23.1581 11.2945 23.4734 11.1222 23.8366C11.0265 24.0564 10.9212 24.2666 10.8159 24.4768C10.7584 24.5915 10.701 24.6966 10.6436 24.8113C10.366 25.3465 10.0692 25.8816 9.76294 26.4072C9.0929 27.5348 8.71002 28.7198 8.71959 30.0386C8.71959 30.0672 8.71959 30.0864 8.71959 30.115C8.73874 30.9464 8.71959 31.7778 8.69087 32.5996C8.6813 32.8003 8.6813 33.001 8.67173 33.2017C8.62387 34.5969 7.8964 35.0078 6.71903 34.2147C5.62782 33.4693 5.13965 32.3703 5.13965 31.0898C5.13965 31.042 5.13965 31.0038 5.13965 30.9655C5.13965 30.9273 5.13965 30.8891 5.13965 30.8604C5.26408 28.3949 6.13514 26.197 7.5518 24.1997C7.76239 23.9035 7.95383 23.5881 8.18356 23.311C8.66216 22.7376 9.22691 22.298 9.82995 22.2502C10.2415 22.2502 10.5766 22.3171 10.8159 22.4509C10.835 22.4605 10.8446 22.47 10.8637 22.4796C10.8829 22.4891 10.902 22.4987 10.9116 22.5178C10.9212 22.5274 10.9403 22.5369 10.9499 22.5465C10.9786 22.5656 10.9977 22.5847 11.0265 22.6134C11.0647 22.6516 11.0935 22.6898 11.1222 22.7281C11.1796 22.7758 11.2083 22.8332 11.2275 22.9001ZM10.7106 23.4734C10.8063 23.053 10.6436 22.8523 10.2128 22.795C10.1841 22.795 10.1458 22.7854 10.1171 22.7854C10.0597 22.7854 10.0022 22.7854 9.94481 22.7854C9.72466 22.8045 9.52364 22.8714 9.32263 22.9956C8.82488 23.311 8.41329 23.7123 8.22185 24.2857C8.07827 24.7062 7.86768 25.0502 7.4848 25.2796C7.29336 25.3942 7.17849 25.5758 7.08277 25.7574C6.21172 27.3437 5.67568 29.0352 5.60868 30.8509C5.60868 31.0898 5.57039 31.3382 5.61825 31.5771C5.79055 32.5328 6.15429 33.3928 7.04449 33.8897C7.35079 34.0618 7.59966 34.1286 7.77196 34.0809C7.7911 34.0809 7.80068 34.0713 7.81025 34.0713C8.03041 33.9949 8.14527 33.7273 8.15484 33.2781C8.17398 32.1887 8.16441 31.0993 8.18356 30.0099C8.2027 28.6816 8.55686 27.4488 9.23648 26.3021C9.66722 25.5663 10.0501 24.8113 10.4521 24.0659C10.567 23.8652 10.6627 23.6741 10.7106 23.4734Z" fill="black"/>
<path d="M10.9689 22.5369C10.9594 22.5273 10.9498 22.5177 10.9307 22.5082C10.9402 22.5177 10.9498 22.5273 10.9689 22.5369Z" fill="#DF2E2E"/>
<path d="M10.873 22.47C10.8539 22.4604 10.8443 22.4508 10.8252 22.4413C10.8443 22.4508 10.8635 22.4604 10.873 22.47Z" fill="#DF2E2E"/>
<path d="M10.2123 22.7948C10.6431 22.8522 10.8058 23.0529 10.7101 23.4733C10.6622 23.674 10.5665 23.8651 10.4612 24.0563C10.0592 24.8016 9.67631 25.5566 9.24557 26.2924C8.56596 27.4392 8.21179 28.6719 8.19265 30.0002C8.1735 31.0896 8.18307 32.1791 8.16393 33.2685C8.15435 33.7272 8.03949 33.9852 7.81934 34.0616C8.02992 33.9756 8.13521 33.7081 8.15436 33.2685C8.1735 32.1791 8.1735 31.0896 8.18307 30.0002C8.20222 28.6719 8.55638 27.4392 9.236 26.2924C9.66674 25.5661 10.0496 24.8112 10.4516 24.0563C10.5569 23.8651 10.6527 23.674 10.7005 23.4733C10.7962 23.0529 10.6431 22.8522 10.2028 22.7948C10.1741 22.7948 10.1453 22.7853 10.1166 22.7853C10.1453 22.7853 10.1741 22.7853 10.2123 22.7948Z" fill="#DF2E2E"/>
<path d="M10.203 22.7949C10.6433 22.8522 10.7964 23.0529 10.7007 23.4734C10.6528 23.674 10.5571 23.8652 10.4518 24.0563C10.0498 24.8112 9.66692 25.5662 9.23618 26.2925C8.55657 27.4392 8.2024 28.672 8.18326 30.0003C8.17369 31.0897 8.17369 32.1791 8.15454 33.2685C8.14497 33.7176 8.03968 33.9757 7.81952 34.0617C7.80995 34.0712 7.7908 34.0712 7.78123 34.0712C7.60893 34.1095 7.36963 34.0521 7.06333 33.8801C6.17313 33.3832 5.8094 32.5231 5.6371 31.5675C5.59881 31.3286 5.62752 31.0801 5.62752 30.8412C5.69453 29.0255 6.23056 27.3341 7.10162 25.7477C7.20691 25.5566 7.31221 25.3846 7.50365 25.2699C7.88653 25.0406 8.09711 24.6966 8.24069 24.2761C8.43213 23.7123 8.84373 23.3109 9.34148 22.986C9.53292 22.8618 9.73393 22.7949 9.95408 22.7758C10.0115 22.7758 10.0689 22.7758 10.1264 22.7758C10.1455 22.7853 10.1742 22.7853 10.203 22.7949Z" fill="#FF8A8A"/>
<path d="M10.8256 22.4413C10.5863 22.3075 10.2609 22.2311 9.83971 22.2406C9.23667 22.2884 8.67193 22.728 8.19333 23.3014C7.9636 23.5785 7.77215 23.8939 7.56157 24.1901C6.14491 26.1874 5.27385 28.3853 5.14941 30.8508C5.14941 30.889 5.14941 30.9273 5.14941 30.9559C5.14941 30.9177 5.14941 30.8699 5.14941 30.8317C5.27385 28.3662 6.14491 26.1682 7.56157 24.171C7.77215 23.8748 7.9636 23.569 8.19333 23.2823C8.67193 22.7184 9.23667 22.2884 9.83971 22.2311C10.2609 22.2311 10.5863 22.3075 10.8256 22.4413Z" fill="#DF2E2E"/>
<path d="M9.40895 39.6042C9.46638 39.9482 9.50468 40.2827 9.19837 40.5121C9.12179 40.5694 9.03565 40.6172 8.95907 40.6458C9.03565 40.6172 9.12179 40.5789 9.19837 40.5121C9.4951 40.2827 9.45681 39.9387 9.40895 39.6042C9.20794 38.4575 8.71977 37.4158 8.27945 36.3551C8.11673 35.9728 7.81999 35.8295 7.41797 35.8199C7.42754 35.8199 7.42754 35.8199 7.43711 35.8199C7.83914 35.8295 8.13587 35.9728 8.2986 36.3551C8.72934 37.4158 9.21751 38.4575 9.40895 39.6042Z" fill="#DF2E2E"/>
<path d="M9.39899 39.6042C9.45642 39.9387 9.49471 40.2827 9.1884 40.5121C9.11183 40.5694 9.03525 40.6172 8.9491 40.6458C8.69066 40.7319 8.42264 40.665 8.16419 40.5598C8.0589 40.5121 7.95361 40.4356 7.85789 40.3687C7.21657 39.8813 6.33594 38.0848 6.33594 37.2725C6.33594 36.938 6.34551 36.6131 6.52738 36.3073C6.72839 35.9728 7.01555 35.8199 7.39843 35.8199C7.408 35.8199 7.408 35.8199 7.41758 35.8199C7.8196 35.8295 8.11634 35.9728 8.27906 36.3551C8.71937 37.4158 9.20755 38.4575 9.39899 39.6042ZM8.75766 40.2158C8.8821 40.168 8.9491 40.0534 8.9491 39.8527C8.9491 39.8336 8.9491 39.8145 8.9491 39.7953C8.92039 39.6424 8.8821 39.4704 8.85338 39.2889C8.7098 38.4192 8.29821 37.6356 7.96318 36.8234C7.90575 36.6896 7.84832 36.5653 7.76217 36.4602C7.7526 36.4507 7.74303 36.4315 7.72388 36.422C7.62816 36.3264 7.50372 36.2691 7.30271 36.3073C6.9294 36.3646 6.85283 36.6705 6.81454 36.9858C6.6231 38.295 7.37929 39.2029 8.16419 40.0916C8.20248 40.1298 8.25992 40.1585 8.31735 40.1776C8.37478 40.1967 8.44178 40.2158 8.49922 40.2254C8.58536 40.2349 8.66194 40.2349 8.71938 40.2254C8.73852 40.2254 8.74809 40.2254 8.75766 40.2158Z" fill="black"/>
<path d="M8.94916 39.805C8.94916 39.8241 8.94916 39.8432 8.94916 39.8623C8.94916 40.063 8.88216 40.1777 8.75772 40.2255C8.74815 40.2255 8.73858 40.235 8.729 40.235C8.67157 40.2541 8.595 40.2541 8.50885 40.235C8.45142 40.2255 8.38441 40.2159 8.32698 40.1872C8.26954 40.1681 8.21211 40.1395 8.1834 40.1012C7.39849 39.2125 6.6423 38.3047 6.83374 36.9955C6.8816 36.6897 6.9486 36.3743 7.32191 36.317C7.50378 36.2883 7.63779 36.3456 7.73351 36.4316C7.74308 36.4412 7.75266 36.4603 7.7718 36.4699C7.84838 36.5654 7.90581 36.6992 7.96324 36.833C8.29826 37.6357 8.70986 38.4193 8.85344 39.2985C8.87258 39.4801 8.92044 39.6616 8.94916 39.805Z" fill="#FF8A8A"/>
<path d="M8.8539 39.2984C8.88262 39.48 8.92091 39.652 8.94962 39.8049C8.92091 39.6616 8.87305 39.48 8.84433 39.2984C8.70075 38.4193 8.28916 37.6356 7.95414 36.8329C7.8967 36.6991 7.83927 36.5749 7.7627 36.4698C7.84884 36.5653 7.90627 36.6991 7.96371 36.8329C8.29873 37.6452 8.71032 38.4288 8.8539 39.2984Z" fill="#DF2E2E"/>
</svg>
