<svg width="93" height="69" viewBox="0 0 93 69" fill="none" xmlns="http://www.w3.org/2000/svg">
<path d="M46.1104 47.78C46.965 46.9844 47.3595 46.8708 48.3588 47.2117C47.5304 47.5401 46.873 47.679 46.1104 47.78Z" fill="#FDAE37"/>
<path d="M54.8894 47.1536C55.0047 47.5489 54.7229 47.6127 54.5307 47.7403C53.6594 48.3015 52.6343 48.6076 51.8527 49.3473C51.6349 49.5642 51.353 49.4494 50.9814 49.2836C51.4299 48.9264 51.8015 48.6458 52.1731 48.3525C52.3653 48.1994 52.66 48.0974 52.724 47.9061C53.1597 46.6944 54.0566 47.0643 54.8894 47.1536Z" fill="#FDAE37"/>
<path d="M47.4219 48.4649C48.6641 48.1032 49.7782 48.1678 50.982 48.1549C50.0727 49.3046 49.2147 49.382 47.4219 48.4649Z" fill="#FDAE37"/>
<path d="M50.7565 50.1019C50.7693 50.1903 50.7821 50.2788 50.7949 50.3672C49.384 50.6957 47.9604 51.0116 46.5495 51.3401C46.5238 51.2643 46.511 51.1759 46.4854 51.1C47.9347 50.8473 49.1532 49.7355 50.7565 50.1019Z" fill="#FDAE37"/>
<path d="M55.6666 48.9044C54.9388 50.2712 53.9683 50.9678 52.9212 51.5855C52.8573 51.625 52.7552 51.6907 52.7041 51.6775C51.0185 51.1255 49.4989 52.1507 47.8772 52.2164C47.4814 52.2296 47.0855 52.3741 46.4854 52.1638C48.0688 51.7827 49.4734 51.4541 50.878 51.1255C51.5676 50.9547 52.3465 50.9941 52.7041 50.1398C52.7552 50.0215 52.9722 49.9558 53.1127 49.9164C53.93 49.7061 54.6706 49.2855 55.6666 48.9044Z" fill="#FDAE37"/>
<path d="M67.4892 37.7931C68.3251 40.3566 68.8523 42.9716 68.7751 45.6768C68.7366 47.3772 68.788 49.0905 68.608 50.778C68.2093 54.3463 67.0263 57.6311 64.6473 60.4136C64.5187 60.5682 64.4287 60.7614 64.2358 61.0835C63.9529 60.4394 64.2229 60.1431 64.313 59.8468C65.1488 56.8582 65.6503 53.831 65.2645 50.7136C64.943 48.1114 63.8757 45.9988 61.3296 44.8523C60.5709 44.5174 60.5709 44.3371 61.0852 43.7058C62.204 42.3146 63.3228 40.9234 64.4287 39.5321C65.1874 38.5789 65.6761 37.4581 66.1518 36.3503C66.9234 36.595 67.2706 37.1103 67.4892 37.7931Z" fill="#FDAE37"/>
<path d="M57.6979 46.0246C58.4313 46.6414 58.4968 47.0191 57.8158 47.724C57.5146 48.0387 57.1348 48.2652 56.7944 48.5296C56.467 48.4918 56.6372 48.152 56.4932 48.089C55.9825 47.875 55.7337 47.661 55.8122 46.9939C55.8646 46.4904 55.0789 46.5281 54.542 46.3267C55.4325 45.9365 56.2182 45.5337 57.161 45.8106C57.3444 45.861 57.5277 45.8736 57.6979 46.0246Z" fill="#FDAE37"/>
<path d="M54.5749 44.0643C54.9567 44.6452 54.5876 45.6522 53.9386 45.8846C52.8822 46.2719 51.8132 46.5946 50.706 46.7625C50.0824 46.8528 49.4461 46.9561 48.7334 46.5301C50.5533 45.3553 52.8186 45.3036 54.1803 43.4704C54.4094 43.522 54.4349 43.8577 54.5749 44.0643Z" fill="#FDAE37"/>
<path d="M46.2396 48.7034C46.6489 49.2739 47.3141 49.3776 48.1711 49.7277C47.2245 50.1426 46.5978 50.4537 45.7024 50.2722C44.3977 50 43.0674 50.363 41.7627 50.5704C41.6092 50.5964 41.4557 50.6223 41.2383 50.4797C42.6453 49.8573 44.0395 49.235 45.4594 48.6386C45.7024 48.5349 46.0349 48.4312 46.2396 48.7034Z" fill="#FDAE37"/>
<path d="M48.7056 52.4708C49.0511 52.4206 49.3838 52.2574 49.8572 52.4582C48.6544 53.1109 47.4771 53.6255 46.1719 53.6757C43.9582 53.7635 41.7317 53.7635 39.5308 53.9518C38.5327 54.0396 38.1616 53.638 38.0592 52.659C38.0209 52.27 38.1488 52.0566 38.5327 51.9813C39.7483 51.7052 40.9256 51.3036 42.3331 51.153C41.7573 51.8432 41.0791 51.9939 40.4393 52.2198C40.1834 52.3076 39.8123 52.3704 39.8635 52.7218C39.9147 53.1736 40.3369 53.0732 40.6312 53.0607C43.3312 52.9603 46.0312 52.885 48.7056 52.4708Z" fill="#FDAE37"/>
<path d="M43.2663 47.7802C43.3311 47.7802 43.4089 47.8311 43.4866 47.8566C43.37 48.6078 42.8646 48.977 42.1778 49.2571C40.7783 49.8045 39.3918 50.3902 38.1218 51.1923C37.8368 51.3705 37.6165 51.4342 37.4221 51.1159C37.2277 50.8103 36.9167 50.5939 36.8001 50.2374C36.6835 49.8427 36.7094 49.5244 37.1629 49.3589C39.1456 48.6587 41.1152 47.8821 43.2663 47.7802Z" fill="#FDAE37"/>
<path d="M47.3717 44.8768C47.4979 45.0743 47.3591 45.1929 47.2708 45.3114C47.0059 45.6538 47.1951 46.2728 46.6905 46.4704C45.9209 46.7733 45.2523 47.3397 44.3439 47.1948C43.7636 47.1026 43.1581 47.1816 42.3633 47.1816C43.5492 46.2465 44.8234 45.7724 45.7191 44.7582C45.9083 44.5475 46.1859 44.5475 46.3751 44.7187C46.6905 45.0085 47.0563 44.7846 47.3717 44.8768Z" fill="#FDAE37"/>
<path d="M45.9847 43.0499C47.732 42.7034 49.4793 42.4083 51.2781 42.5879C51.8049 42.6392 52.3188 42.7419 52.807 42.9472C53.3466 43.191 53.3723 43.4862 52.8713 43.7941C52.4601 44.0508 52.0104 44.2561 51.5608 44.4229C50.443 44.8464 49.3637 45.3982 48.1175 45.719C48.1689 45.2955 48.3487 45.1929 48.5029 45.0645C49.2866 44.3973 49.3252 44.1919 48.8113 43.3322C48.6571 43.0755 48.4387 43.037 48.1945 43.037C47.475 43.0499 46.7299 42.9344 46.0746 43.3835C45.8947 43.5118 45.7149 43.5247 45.5479 43.3835C45.5735 43.0627 45.8176 43.0884 45.9847 43.0499Z" fill="#FDAE37"/>
<path d="M53.0434 42.2439C52.0284 41.9239 50.9235 42.0519 49.9341 41.5527C49.6001 41.3863 49.2275 41.4119 48.8549 41.4247C47.3259 41.5015 45.7841 41.5783 44.2551 41.6679C44.0496 41.6807 43.844 41.6807 43.6641 41.7703C43.3814 41.8983 43.3301 42.2311 43.6256 42.2951C44.5892 42.4871 44.5892 43.4087 45.0004 44.0103C45.283 44.4199 44.949 44.8934 44.5121 44.7142C43.9982 44.4967 43.6641 44.7014 43.2658 44.8806C42.0067 45.4566 40.8375 46.1094 39.8096 47.0694C39.0258 47.7862 38.1522 48.4774 37.0729 48.8102C36.726 48.9126 36.3662 49.0406 36.212 49.4246C35.9422 50.1158 35.5696 49.8086 35.0557 49.4886C36.6746 48.3878 37.8181 47.095 38.9873 45.8022C40.1565 44.5095 41.3128 43.2295 42.572 42.0263C44.5378 40.1319 46.8377 39.7095 49.4202 40.4263C50.8207 40.7847 52.2211 41.4759 53.0434 42.2439Z" fill="#FDAE37"/>
<path d="M65.3557 33.9299C65.793 34.5855 65.8959 35.2668 65.6644 36.0124C65.3943 36.9122 65.0213 37.7735 64.4553 38.5191C63.3234 40.0102 62.153 41.45 60.9954 42.9154C60.1465 43.9824 59.1303 44.4066 57.7927 43.8796C57.3425 43.6996 56.8666 43.6096 56.3907 43.5068C55.6447 43.3525 55.0016 43.0826 54.6414 42.3498C54.5385 42.1441 54.3327 41.9642 54.1398 41.8228C51.7217 40.2288 49.1492 39.0976 46.1523 39.4832C45.0462 39.6246 44.0687 40.1131 43.1683 40.7687C42.3194 41.3986 41.5863 42.157 40.866 42.9412C39.8499 44.0467 38.8466 45.1651 37.8434 46.2834C36.6729 47.5946 35.4124 48.7901 33.8046 49.5614C33.6631 49.6257 33.5088 49.7028 33.393 49.8057C33.3158 49.8828 33.2387 50.0113 33.2387 50.1142C33.2515 50.2941 33.4059 50.3841 33.5731 50.397C33.7274 50.4098 33.8946 50.4227 34.049 50.397C35.8111 50.127 36.9559 50.834 37.4189 52.5052C38.0363 54.7676 38.1392 54.8191 40.5315 54.652C41.702 54.562 42.8853 54.5748 44.0558 54.5491C44.3002 54.5491 44.6217 54.4848 44.7761 54.6134C45.4707 55.2304 46.1395 54.8319 46.8083 54.6134C47.7473 54.3177 48.712 54.1635 49.6766 54.1506C51.5545 54.1249 53.1623 53.4822 54.5257 52.2095C55.2974 51.4897 55.9662 50.6284 56.828 50.0499C58.1142 49.2015 58.9631 47.9674 60.0178 46.9133C60.4166 46.5148 60.8153 46.0906 60.6738 45.3193C63.2334 46.2834 64.2753 48.1345 64.5968 50.4227C65.047 53.6878 64.5582 56.8887 63.5678 60.0253C63.4392 60.4495 63.2463 60.8609 63.1305 61.2851C62.6289 63.2519 61.2012 64.2931 59.4262 64.9873C58.976 65.1672 58.4872 65.2829 58.0756 65.5272C56.1978 66.6713 54.1012 67.1083 51.9661 67.4168C51.3615 67.5068 50.7442 67.5582 50.1782 67.7382C48.1846 68.3681 46.1909 68.2524 44.1587 68.0082C40.5701 67.584 37.3675 66.2342 34.3705 64.2803C33.4959 63.7146 32.8528 62.9691 32.3512 62.0435C31.2836 60.0896 30.1517 58.1613 29.0842 56.2074C28.0423 54.3177 27.5278 52.3124 27.6307 50.1399C27.695 48.8544 27.5278 47.5561 27.5664 46.2577C27.6436 43.224 28.3381 40.3959 30.216 37.9406C30.5119 37.555 30.7948 37.1565 31.0264 36.7323C33.1486 32.9658 36.3385 30.3434 40.0428 28.2609C42.3708 26.9497 44.8018 25.9984 47.5415 26.1398C47.5801 26.1398 47.6186 26.1398 47.6572 26.1398C50.5126 25.8056 53.2009 26.3712 55.8119 27.541C56.4036 27.7981 57.0467 27.9267 57.6641 28.1066C58.886 28.4537 60.0178 28.9808 61.0082 29.7906C61.2526 29.9963 61.5099 30.2277 61.7928 30.3562C63.4907 31.0761 64.4167 32.5158 65.3557 33.9299Z" fill="#FFCC80"/>
<path d="M10.8603 25.9469C10.9376 27.0565 10.8861 27.1597 9.80403 27.4436C9.37895 27.5468 9.05692 27.7532 8.81217 28.0887C7.91048 29.3015 7.4081 30.6433 7.57555 32.1915C7.66572 33.0173 7.91048 33.714 9.03115 33.7011C8.722 34.7849 8.41285 35.6751 7.97489 36.4879C7.56269 37.262 6.76402 37.3266 6.37758 36.5395C5.87521 35.5332 5.45013 34.4365 6.35183 33.3785C6.42912 33.2882 6.51929 33.1592 6.51929 33.056C6.48065 31.7142 6.97013 30.4239 6.86708 29.0821C6.7125 27.0823 7.43387 25.418 8.77352 24.0245C9.40471 23.3665 9.98436 23.5085 10.4352 24.3213C10.7186 24.8245 10.8217 25.3793 10.8603 25.9469Z" fill="#FDAE37"/>
<path d="M78.338 13.5363C78.3639 15.3133 77.4841 16.6714 76.1902 17.8011C76.0349 17.928 75.8797 18.0549 75.7115 18.1692C75.5821 18.258 75.4398 18.3215 74.9999 18.55C75.2845 17.7376 75.5045 17.1791 75.6727 16.6206C75.8409 16.0875 75.9185 15.5544 75.7115 14.9705C75.3104 13.8916 75.3363 13.917 74.2236 14.374C73.6801 14.6025 73.072 14.6405 72.5674 15.034C72.3992 15.1609 72.0628 14.9959 72.1793 14.6532C72.2957 14.3105 72.451 13.9932 72.6062 13.6632C72.8521 13.1301 73.4602 12.7239 73.0203 11.9623C72.8521 11.6577 73.2532 11.315 73.5766 11.1246C74.6635 10.5027 75.7762 10.5788 76.863 11.0738C77.911 11.5562 78.3251 12.4701 78.338 13.5363Z" fill="#FDAE37"/>
<path d="M88.3095 13.3916C90.5317 16.7886 91.8419 20.4805 91.0198 24.6467C90.7886 25.8389 90.6344 27.0438 90.4546 28.236C90.3261 29.1205 90.1592 29.9922 90.0821 30.8767C89.9023 32.7611 89.2857 34.5045 88.3866 36.1453C87.5131 37.7477 86.4727 39.2475 85.2909 40.6448C83.711 42.5035 81.8228 43.9008 79.4722 44.6699C77.8666 45.1955 76.3637 46.0544 74.6553 46.3236C72.9855 46.5928 71.3028 46.8235 69.7615 47.5927C69.5174 47.0543 69.633 46.6056 69.6458 46.1698C69.7486 43.2214 69.2605 40.3756 68.3357 37.581C67.8732 36.1709 66.9356 35.0685 66.1649 33.8635C65.8181 33.3251 65.407 32.8124 65.0602 32.274C64.4565 31.3382 63.6987 30.5819 62.6967 30.0563C62.1958 29.7999 61.7462 29.441 61.2966 29.0949C60.3846 28.3898 59.3956 27.8642 58.2909 27.5438C56.467 27.0054 54.643 26.4542 52.9089 25.685C52.2667 25.403 51.5859 25.3389 50.8794 25.3517C49.5436 25.3774 48.2077 25.3645 46.8718 25.3902C46.2552 25.403 46.0497 25.1851 45.9984 24.5569C45.5103 18.8525 47.4241 13.8403 50.7124 9.36643C52.8318 6.46934 55.7605 4.34138 58.9332 2.64927C61.0012 1.54684 63.3004 1.22637 65.5997 0.905891C66.0878 0.841796 66.5631 0.790523 67.0512 0.764885C68.554 0.675152 69.9413 0.969986 71.1872 1.86732C72.8057 3.03384 74.2572 4.32857 75.5288 5.89248C76.9032 7.58459 78.6758 8.77676 80.9879 8.95623C84.1734 9.18697 86.614 10.815 88.3095 13.3916ZM75.3618 19.1601C77.6739 18.0834 79.2153 15.4811 78.9456 13.0711C78.8171 11.8918 78.2519 10.9945 77.1858 10.4817C75.593 9.69973 73.358 9.75101 71.9965 11.7123C71.2129 12.8532 70.5707 14.0838 70.8147 15.3529C70.8147 15.84 70.8019 16.122 70.8147 16.4041C70.8918 17.5578 71.3157 18.5064 72.3689 19.1217C73.7562 19.9036 73.7434 19.9036 75.3618 19.1601Z" fill="#FDAE37"/>
<path d="M43.6241 25.1278C43.7654 25.6929 43.6113 25.924 43.0976 26.1038C40.3106 27.0669 37.9218 28.7492 35.5329 30.4315C34.2614 31.3176 33.1826 32.422 32.3093 33.7061C31.1791 35.3371 30.1002 37.0065 28.9829 38.6374C27.7371 40.4609 27.1848 42.5156 27.0307 44.6859C26.9408 45.9315 26.9023 47.19 26.8124 48.4485C26.7096 49.7584 25.939 50.4775 24.6162 50.5289C23.8071 50.5546 22.9979 50.5289 22.0219 50.5289C19.2734 50.8499 16.5764 49.8483 13.8536 49.1548C12.4922 48.8081 11.195 47.9862 10.0135 47.113C9.01168 46.3682 8.0356 45.5976 6.84118 45.1225C5.92932 44.7629 5.2358 44.0181 4.67069 43.2219C2.25617 39.806 0.727807 36.069 0.766337 31.8184C0.766337 31.2919 0.753487 30.7654 0.920449 30.2517C2.29467 25.8085 4.04138 21.5578 7.36777 18.1547C10.4245 15.0213 14.1105 12.9666 18.3487 12.0292C20.7889 11.4898 23.319 11.2073 25.8235 11.2459C29.7021 11.3229 33.4267 12.1961 36.9714 13.8142C38.8208 14.6618 40.118 16.0744 41.0684 17.8208C42.3013 20.1067 42.982 22.6108 43.6241 25.1278ZM11.4005 27.9915C11.6445 26.7587 11.6702 25.5002 11.1051 24.306C10.3859 22.7906 9.20434 22.5723 8.03561 23.7666C7.021 24.8068 6.36599 26.0653 6.13481 27.4907C5.78804 29.6867 5.55687 31.8954 5.27432 34.0914C5.31285 34.8619 5.31284 35.6324 5.58254 36.3772C5.91647 37.3019 6.55863 37.854 7.31638 37.854C8.17687 37.8412 8.45944 37.1606 8.71631 36.5313C9.85935 33.7704 10.8097 30.9323 11.4005 27.9915Z" fill="#FDAE37"/>
<path d="M88.1451 11.8908C90.7778 15.1145 92.2548 18.8648 91.9851 23.1161C91.8695 24.927 91.4714 26.7251 91.2017 28.5232C91.0861 29.3195 90.9705 30.1286 90.8678 30.9249C90.1871 36.1137 87.3488 40.0567 83.5474 43.4089C82.5071 44.3208 81.2613 44.9244 79.9385 45.374C78.1405 45.9776 76.4581 46.9152 74.5445 47.1978C73.8253 47.3005 73.1061 47.4289 72.3869 47.5574C71.7448 47.673 71.154 47.917 70.5632 48.1995C69.8697 48.5206 69.6 48.983 69.5487 49.7921C69.3047 54.0305 67.9433 57.8708 65.0922 61.0816C64.206 62.0706 63.3712 63.1109 62.3695 64.01C61.3806 64.8833 60.1734 65.3329 59.0432 65.9365C56.3719 67.375 53.4823 67.7988 50.6055 68.4538C44.2611 69.8923 38.7002 68.1071 33.5117 64.5879C32.831 64.1256 32.3044 63.5091 31.9063 62.7898C30.8018 60.7606 29.6845 58.7441 28.58 56.7148C27.6168 54.9424 27.0004 53.0801 26.9747 51.038C26.9747 50.8839 26.9233 50.7297 26.8719 50.3444C25.8317 51.2306 24.74 51.1793 23.6484 51.2692C20.2964 51.5774 17.1242 50.7297 13.9649 49.8692C12.3724 49.4454 10.934 48.5206 9.59833 47.5317C8.68649 46.851 7.80034 46.1703 6.74723 45.7079C5.73264 45.2584 4.89786 44.5134 4.24287 43.6272C1.66146 40.1209 0.0817773 36.2422 0.0175631 31.824C0.0047203 31.002 0.120312 30.2057 0.377169 29.4351C1.07068 27.3544 1.78989 25.2995 2.76595 23.3344C5.78401 17.2337 10.7156 13.4449 17.0985 11.4027C18.1516 11.0688 19.2433 11.0046 20.3221 10.8761C22.1329 10.6578 23.9438 10.4651 25.7674 10.3752C27.1031 10.311 28.4387 10.5165 29.7487 10.7734C32.0861 11.2358 34.4107 11.7752 36.6325 12.6999C39.2011 13.7788 40.9605 15.6283 42.1549 18.0814C43.131 20.0978 43.696 22.2556 44.3382 24.3876C44.4538 24.7857 44.3767 25.5178 44.8519 25.4793C45.6096 25.4151 45.2885 24.6573 45.2885 24.1821C45.3142 22.8463 45.1473 21.4978 45.3913 20.1749C46.5215 14.2283 48.9359 9.00098 53.8162 5.16076C55.2546 4.03053 56.6673 2.87461 58.3112 2.06546C61.5347 0.472861 64.9766 -0.130789 68.5597 0.0233335C69.4331 0.0618642 70.2422 0.305895 70.9614 0.781107C72.7594 1.96271 74.5317 3.18286 75.7774 4.9938C76.715 6.34238 78.0891 7.12582 79.489 7.85791C80.1568 8.21753 80.9146 8.15331 81.6338 8.23037C84.3564 8.50009 86.5012 9.88719 88.1451 11.8908ZM90.9962 24.6445C91.8181 20.4703 90.5082 16.7585 88.2863 13.3678C86.5911 10.7862 84.151 9.15512 80.9788 8.91109C78.6799 8.73128 76.8948 7.53682 75.5206 5.84147C74.2491 4.27456 72.7979 2.97736 71.1797 1.80859C69.934 0.909543 68.5469 0.614144 67.0443 0.704049C66.5563 0.729736 66.0683 0.781107 65.5931 0.845325C63.307 1.16641 61.0082 1.4875 58.9276 2.59205C55.7554 4.2874 52.8273 6.41943 50.7082 9.32208C47.4204 13.8045 45.5069 18.8263 45.9949 24.5417C46.0463 25.171 46.2518 25.3894 46.8682 25.3765C48.2039 25.338 49.5395 25.3508 50.8752 25.338C51.5687 25.3252 52.2622 25.3894 52.9043 25.6719C54.651 26.4426 56.4618 26.9948 58.2855 27.5343C59.39 27.8553 60.3789 28.3948 61.2907 29.0883C61.7402 29.4351 62.1897 29.7947 62.6906 30.0516C63.6923 30.5782 64.4501 31.3359 65.0537 32.2735C65.4004 32.813 65.8114 33.3267 66.1581 33.8661C66.9416 35.0734 67.8791 36.178 68.3286 37.5908C69.2404 40.3907 69.7413 43.2419 69.6386 46.1959C69.6257 46.6326 69.5101 47.0821 69.7541 47.6216C71.2953 46.8638 72.9777 46.6198 74.6473 46.3501C76.3554 46.0804 77.8451 45.2198 79.4633 44.6933C81.8007 43.9226 83.7015 42.5227 85.2811 40.6604C86.4627 39.2604 87.4901 37.7706 88.3762 36.1523C89.2752 34.4955 89.9045 32.7616 90.0715 30.8736C90.1485 29.9874 90.3155 29.1012 90.444 28.2278C90.6109 27.0462 90.765 25.8389 90.9962 24.6445ZM68.8423 45.6308C68.9065 42.9337 68.3928 40.3264 67.558 37.7706C67.3397 37.077 66.9929 36.5761 66.2352 36.3449C65.7472 37.4495 65.272 38.5669 64.5143 39.5173C63.3969 40.9044 62.2924 42.2915 61.1751 43.6786C60.6614 44.3079 60.6614 44.4878 61.4192 44.8217C63.9492 45.9519 65.0151 48.0711 65.349 50.6655C65.7343 53.7737 65.2335 56.7919 64.3987 59.7716C64.3088 60.067 64.0519 60.3752 64.3216 61.0046C64.5271 60.6707 64.6042 60.4908 64.7326 60.3367C67.0957 57.5625 68.2772 54.2874 68.6882 50.7297C68.8551 49.0344 68.7909 47.3262 68.8423 45.6308ZM65.5545 36.0239C65.7729 35.2789 65.683 34.5982 65.2463 33.9432C64.296 32.5175 63.3713 31.0919 61.7145 30.3727C61.432 30.2442 61.1751 30.0131 60.9311 29.8076C59.9422 28.9984 58.812 28.4718 57.592 28.1251C56.9755 27.9452 56.3206 27.8168 55.7426 27.5599C53.1484 26.3912 50.4514 25.8261 47.6003 26.16C47.5617 26.16 47.5232 26.16 47.4847 26.16C44.7492 26.0187 42.3219 26.9691 39.9973 28.2792C36.2986 30.3598 33.1135 32.9799 30.9945 36.7431C30.7505 37.1669 30.4679 37.5651 30.1854 37.9504C28.3103 40.4035 27.6297 43.2291 27.5398 46.2602C27.5012 47.5574 27.6682 48.8546 27.604 50.1389C27.5012 52.3223 28.0149 54.3259 29.0552 56.2011C30.134 58.1533 31.2642 60.0798 32.3173 62.0321C32.8182 62.944 33.4603 63.6889 34.3336 64.2669C37.3131 66.2191 40.5239 67.5676 44.107 67.9915C46.1362 68.2355 48.1268 68.3511 50.1175 67.7218C50.6954 67.5419 51.3118 67.4906 51.9026 67.4007C54.0345 67.0924 56.1279 66.6557 58.0029 65.5127C58.4139 65.2686 58.9019 65.1531 59.3514 64.9733C61.1238 64.2797 62.5493 63.2394 63.0502 61.2743C63.1658 60.8505 63.3456 60.4395 63.4868 60.0156C64.4757 56.8946 64.9766 53.6966 64.5143 50.4215C64.1932 48.1353 63.1529 46.2859 60.5972 45.3226C60.7385 46.1061 60.3404 46.5299 59.9422 46.9152C58.8891 47.9555 58.0415 49.2013 56.7572 50.049C55.8967 50.6141 55.2289 51.4875 54.4583 52.2067C53.097 53.4783 51.4916 54.1204 49.6166 54.1461C48.6405 54.159 47.6773 54.3131 46.7526 54.6085C46.0848 54.8268 45.417 55.225 44.7235 54.6085C44.5822 54.48 44.2483 54.5443 44.0043 54.5443C42.8356 54.57 41.654 54.57 40.4853 54.647C38.0966 54.8268 37.9938 54.7754 37.3774 52.5021C36.915 50.8325 35.7848 50.1261 34.0125 50.3958C33.8584 50.4215 33.6915 50.4086 33.5373 50.3958C33.3704 50.383 33.2163 50.2802 33.2035 50.1132C33.1906 50.0105 33.2805 49.882 33.3576 49.805C33.4731 49.7022 33.6273 49.6252 33.7685 49.561C35.3739 48.7904 36.6325 47.5959 37.8012 46.2859C38.7901 45.1556 39.8046 44.0511 40.8192 42.9465C41.5256 42.1631 42.2576 41.4053 43.1181 40.776C44.0171 40.1209 44.9932 39.6329 46.0976 39.4916C49.09 39.1192 51.6586 40.2494 54.0731 41.8291C54.2657 41.9576 54.4712 42.1502 54.5739 42.3557C54.9464 43.0878 55.5885 43.3575 56.3206 43.5116C56.7957 43.6144 57.2838 43.7043 57.7204 43.8841C59.0561 44.4235 60.0835 43.9997 60.9183 42.9208C62.0741 41.4567 63.2557 40.0054 64.373 38.5283C64.8996 37.7834 65.2848 36.9229 65.5545 36.0239ZM57.8232 47.8271C58.4781 47.1078 58.4268 46.7225 57.7076 46.0932C57.5406 45.9519 57.3737 45.9262 57.181 45.8749C56.2563 45.6051 55.4858 46.0033 54.6124 46.4014C55.139 46.6069 55.9096 46.5684 55.8582 47.0822C55.7811 47.75 56.0251 47.9812 56.526 48.1995C56.6673 48.2638 56.5003 48.6105 56.8214 48.6491C57.1553 48.3794 57.5278 48.1482 57.8232 47.8271ZM54.5868 47.75C54.7666 47.6344 55.0491 47.5574 54.9463 47.1592C54.1244 47.0693 53.2254 46.6969 52.7759 47.9041C52.7117 48.0968 52.4163 48.2124 52.2237 48.3537C51.8512 48.6491 51.4788 48.9316 51.0293 49.2912C51.4017 49.4582 51.6843 49.5738 51.9026 49.3555C52.686 48.6234 53.7135 48.3151 54.5868 47.75ZM53.9318 45.8363C54.5868 45.6052 54.9592 44.5905 54.5739 44.0254C54.4326 43.8199 54.4069 43.486 54.1758 43.4346C52.8144 45.2712 50.5284 45.3098 48.6791 46.4785C49.3983 46.9024 50.0276 46.8124 50.6697 46.7097C51.787 46.5427 52.8787 46.2216 53.9318 45.8363ZM52.9942 51.4361C54.0474 50.8453 55.0234 50.1518 55.7554 48.816C54.7537 49.2013 54.0088 49.5995 53.1869 49.7921C53.0328 49.8307 52.8144 49.8949 52.7759 50.0105C52.4163 50.8453 51.6329 50.8068 50.9394 50.9738C49.5267 51.2949 48.114 51.6288 46.5215 51.9884C47.1251 52.1939 47.5232 52.0655 47.9213 52.0398C49.5524 51.9756 51.0807 50.9866 52.7759 51.5132C52.8273 51.5389 52.93 51.4747 52.9942 51.4361ZM52.8273 43.8713C53.3281 43.563 53.3025 43.2676 52.7631 43.0236C52.2879 42.8053 51.7613 42.7153 51.2348 42.664C49.4368 42.4842 47.6902 42.7796 45.9435 43.1263C45.7637 43.1649 45.5197 43.1392 45.5197 43.4731C45.6867 43.6144 45.8536 43.6016 46.0463 43.4731C46.7013 43.0364 47.4462 43.1392 48.1654 43.1263C48.4094 43.1263 48.6277 43.1649 48.7818 43.4217C49.2827 44.2823 49.257 44.4878 48.4736 45.1556C48.3195 45.2841 48.1397 45.3868 48.0883 45.8106C49.334 45.5024 50.4128 44.9373 51.5302 44.5134C51.9668 44.3336 52.4163 44.1281 52.8273 43.8713ZM52.0696 52.7205C51.7999 52.7462 51.5687 52.7847 51.4017 53.003C51.7228 53.1572 51.9411 53.003 52.0696 52.7205ZM49.9762 41.6365C50.9522 42.1374 52.0695 42.0089 53.0841 42.33C52.2622 41.5594 50.8623 40.853 49.4625 40.4677C46.8939 39.7485 44.595 40.1723 42.6172 42.0732C41.3586 43.2805 40.2028 44.5777 39.0341 45.862C37.8654 47.1592 36.7224 48.4564 35.1042 49.561C35.6179 49.8821 35.9775 50.1903 36.26 49.4968C36.4141 49.1243 36.7738 48.9958 37.1205 48.8803C38.1993 48.5592 39.0726 47.8656 39.856 47.1335C40.8963 46.1703 42.065 45.5152 43.3108 44.9373C43.7089 44.7575 44.0556 44.552 44.5565 44.7703C44.9803 44.963 45.3271 44.4749 45.0445 44.0639C44.6336 43.4603 44.6336 42.5484 43.6704 42.3429C43.375 42.2787 43.4263 41.9576 43.7089 41.8163C43.8887 41.7392 44.0942 41.7264 44.2996 41.7135C45.8279 41.6236 47.3691 41.5466 48.8974 41.4695C49.2698 41.4952 49.6423 41.4567 49.9762 41.6365ZM50.9137 48.2124C49.7065 48.2252 48.5891 48.161 47.3434 48.5206C49.1285 49.4325 49.989 49.3555 50.9137 48.2124ZM50.8366 50.3059C50.8238 50.216 50.811 50.1261 50.7981 50.0362C49.1799 49.6637 47.9727 50.794 46.5215 51.038C46.5471 51.115 46.56 51.2049 46.5857 51.282C47.9984 50.9609 49.4239 50.627 50.8366 50.3059ZM49.8606 52.5278C49.3983 52.3223 49.0515 52.4893 48.7047 52.5407C46.0206 52.9517 43.2979 53.0416 40.5881 53.1315C40.2927 53.1443 39.8689 53.2471 39.8175 52.7847C39.779 52.4251 40.1386 52.3609 40.3954 52.271C41.0376 52.0398 41.7182 51.8857 42.2962 51.1793C40.8834 51.3334 39.7019 51.7444 38.4818 52.0269C38.0966 52.1168 37.9681 52.3223 38.0067 52.7205C38.1094 53.7223 38.469 54.1333 39.4836 54.0434C41.7054 53.8507 43.9272 53.8507 46.149 53.7608C47.4718 53.7223 48.6534 53.2085 49.8606 52.5278ZM48.2552 47.1721C47.2792 46.8253 46.9067 46.9409 46.0591 47.75C46.8168 47.6473 47.459 47.506 48.2552 47.1721ZM47.3306 45.3483C47.4205 45.2327 47.5617 45.1171 47.4333 44.9244C47.0994 44.8345 46.7398 45.0529 46.4059 44.7703C46.2132 44.6162 45.9307 44.6034 45.738 44.8089C44.8262 45.7978 43.5291 46.2473 42.3219 47.1721C43.1438 47.1721 43.7474 47.1078 44.3382 47.1849C45.2629 47.3133 45.9564 46.7611 46.7269 46.4785C47.2535 46.273 47.048 45.6822 47.3306 45.3483ZM48.2552 49.7151C47.3948 49.3555 46.7269 49.2656 46.316 48.7004C46.1233 48.4307 45.7894 48.5335 45.5326 48.6362C44.1199 49.2399 42.7071 49.8564 41.2944 50.46C41.5128 50.6013 41.6669 50.5756 41.821 50.5499C43.1309 50.3444 44.4666 49.9848 45.7766 50.2545C46.6627 50.4343 47.3049 50.1261 48.2552 49.7151ZM47.1893 43.9483C47.215 43.9226 47.1636 43.7685 47.1379 43.7685C46.9068 43.73 46.6756 43.7428 46.56 44.0125C46.7912 44.1281 46.9966 44.141 47.1893 43.9483ZM43.1053 26.0059C43.6318 25.8261 43.7731 25.5949 43.6318 25.0298C43.0025 22.5124 42.309 20.0079 41.0633 17.7218C40.1129 15.9879 38.8157 14.5622 36.9664 13.7146C33.4218 12.0834 29.6845 11.2229 25.8188 11.1459C23.3145 11.0945 20.7844 11.3771 18.3443 11.9293C14.119 12.8669 10.4202 14.9219 7.36366 18.0557C4.03736 21.4592 2.29074 25.7105 0.916561 30.1543C0.762447 30.6681 0.775296 31.1947 0.762454 31.7213C0.723925 35.9853 2.25221 39.7099 4.66666 43.1263C5.23175 43.9226 5.92528 44.6676 6.83712 45.0272C8.0315 45.5024 9.00755 46.273 10.0093 47.0179C11.1908 47.8913 12.4879 48.7133 13.8493 49.0601C16.572 49.7536 19.2818 50.7554 22.0173 50.4343C22.9934 50.4343 23.8025 50.46 24.6116 50.4343C25.9344 50.3829 26.705 49.6509 26.8077 48.3537C26.9105 47.1078 26.9361 45.8492 27.026 44.5905C27.193 42.4199 27.7452 40.365 28.9781 38.5412C30.0955 36.8972 31.1743 35.2404 32.3045 33.6093C33.1906 32.3377 34.2565 31.2332 35.528 30.3341C37.9296 28.6645 40.3184 26.9691 43.1053 26.0059ZM43.5034 47.9041C43.4263 47.8785 43.3621 47.8271 43.2851 47.8271C41.1532 47.917 39.201 48.7133 37.2232 49.4068C36.7737 49.561 36.7481 49.8949 36.8637 50.293C36.9664 50.6527 37.2875 50.871 37.4801 51.1793C37.6856 51.5003 37.8911 51.449 38.1736 51.2563C39.4322 50.4472 40.8193 49.8564 42.1934 49.3041C42.887 49.0472 43.375 48.6619 43.5034 47.9041Z" fill="black"/>
<path d="M79.0599 13.0099C79.3182 15.4286 77.7811 18.0531 75.4561 19.1209C73.8287 19.867 73.8416 19.867 72.4595 19.0694C71.4003 18.4647 70.9741 17.4999 70.8966 16.342C70.8837 16.059 70.8966 15.7759 70.8966 15.2871C70.6512 14.0005 71.297 12.7784 72.0849 11.6334C73.4412 9.66501 75.6886 9.6264 77.3032 10.3983C78.3753 10.9258 78.9436 11.8263 79.0599 13.0099ZM76.2957 17.8472C77.6003 16.6894 78.4657 15.3257 78.4399 13.5245C78.427 12.431 78.0136 11.5176 76.9803 11.0287C75.8953 10.5141 74.7845 10.4369 73.6995 11.0802C73.3637 11.2731 72.9633 11.6205 73.1441 11.9293C73.5703 12.7012 72.9762 13.1129 72.7308 13.6532C72.5758 13.9877 72.4208 14.3093 72.3045 14.6567C72.1883 15.004 72.5112 15.1713 72.692 15.0426C73.1958 14.6567 73.8028 14.6052 74.3453 14.3736C75.4562 13.9105 75.4303 13.8848 75.8307 14.9783C76.0374 15.5572 75.9599 16.0976 75.792 16.6508C75.6112 17.2168 75.4045 17.7829 75.1203 18.6063C75.5466 18.3747 75.7016 18.3104 75.8307 18.2203C75.9857 18.1045 76.1407 17.9759 76.2957 17.8472Z" fill="black"/>
<path d="M11.1687 24.1608C11.741 25.3509 11.715 26.6051 11.4679 27.8336C10.8696 30.7642 9.90707 33.5796 8.74947 36.3438C8.48934 36.9709 8.2032 37.6491 7.33176 37.6619C6.57737 37.6747 5.92703 37.1116 5.57585 36.1902C5.30271 35.448 5.30269 34.6929 5.26367 33.9123C5.54982 31.7112 5.78393 29.51 6.13511 27.3345C6.36923 25.914 7.03258 24.6599 8.06011 23.6233C9.24372 22.4331 10.4534 22.6507 11.1687 24.1608ZM9.79001 27.4113C10.8826 27.1425 10.9346 27.0274 10.8566 25.9268C10.8175 25.3637 10.7135 24.8006 10.4273 24.3015C9.97209 23.5081 9.3868 23.3673 8.74947 24.0072C7.38377 25.4021 6.65539 27.0529 6.82448 29.0237C6.92853 30.3547 6.43428 31.6344 6.4733 32.9653C6.4733 33.0677 6.38225 33.1957 6.30421 33.2852C5.39374 34.3346 5.83596 35.4224 6.33021 36.4206C6.70741 37.1884 7.51384 37.1372 7.94306 36.3694C8.38529 35.5504 8.69745 34.6801 9.00961 33.6052C7.87802 33.618 7.63089 32.9397 7.53984 32.1079C7.37076 30.5722 7.86502 29.2413 8.7885 28.0383C9.04863 27.7184 9.36079 27.5137 9.79001 27.4113Z" fill="black"/>
</svg>
