<svg width="97" height="92" viewBox="0 0 97 92" fill="none" xmlns="http://www.w3.org/2000/svg">
<g clip-path="url(#clip0_179_145839)">
<path d="M29.2488 4.62625e-05C40.9965 0.261308 39.3569 14.3424 45.7803 25.4055C52.2037 36.4685 59.7173 51.6307 52.6091 65.7028C45.51 79.7748 33.2127 81.955 25.0146 80.4595C16.8164 78.955 3.97852 71.3064 1.38392 58.8739C-1.21067 46.4415 4.93347 33.3334 11.2218 22.946C17.501 12.5676 16.8164 -0.270224 29.2488 4.62625e-05Z" fill="#30590F"/>
<g style="mix-blend-mode:multiply">
<path d="M45.7796 25.4144C39.3562 14.3513 40.9958 0.261246 29.2481 -1.4782e-05C26.5183 -0.0630778 24.4282 0.513499 22.7526 1.54953C34.2481 6.97296 22.149 15.7657 28.1309 25.6847C34.7165 36.6126 44.5544 60.2432 29.2481 70.4865C22.0138 75.3333 13.8066 74.2522 7.52734 70.4324C12.6715 76.036 19.7796 79.4955 25.0138 80.4594C33.212 81.9639 45.5003 79.7748 52.6084 65.7027C59.7075 51.6306 52.203 36.4685 45.7796 25.4054V25.4144Z" fill="#E6E6E6"/>
</g>
<g style="mix-blend-mode:multiply">
<path d="M45.7796 25.4144C39.3562 14.3513 40.9958 0.261252 29.2481 -9.07318e-06C28.7976 -0.00901808 28.3652 -9.07457e-06 27.9417 0.0270179C37.1219 7.93693 27.5544 17.0811 30.4733 21.036C33.5724 25.2252 40.8517 44.3513 26.1039 59.4685C16.9057 68.8919 5.5904 64.8018 0.887695 55.4865C0.986794 56.6216 1.14896 57.7567 1.38319 58.8739C3.97779 71.3063 16.8156 78.9549 25.0138 80.4594C33.212 81.964 45.5003 79.7748 52.6084 65.7027C59.7075 51.6306 52.203 36.4685 45.7796 25.4054V25.4144Z" fill="#E6E6E6"/>
</g>
<g style="mix-blend-mode:multiply">
<path d="M45.7799 25.4144C43.933 22.2252 42.7528 18.7838 41.7258 15.4955C41.6537 17 41.1492 17.973 40.3835 18.1712C37.7258 18.8558 37.6447 11.8919 37.0051 20.3603C36.3655 28.8288 35.1312 29.3784 35.1312 29.3784C35.1312 29.3784 36.6357 29.2432 35.6808 31.2883C34.7258 33.3333 34.4555 31.5585 34.0411 33.3333C33.6267 35.1081 32.6718 37.3874 32.2664 36.7928C31.8609 36.1982 31.6808 32.8739 31.3564 35.4234C31.0321 37.973 32.1943 39.7477 30.5186 39.3423C28.8519 38.9369 29.9781 36.3874 28.5907 38.1351C27.2033 39.8829 27.0682 40.982 26.7979 41.3874C26.5276 41.7928 25.0231 35.7838 23.933 39.7477C22.8429 43.7117 23.2483 45.4865 21.888 44.1171C20.5186 42.7477 20.5186 40.973 19.5637 41.6576C18.6087 42.3423 21.0682 42.6126 18.4736 43.2973C15.879 43.982 14.6447 43.982 14.6447 43.1621C14.6447 42.3423 17.1042 40.2883 14.6447 40.4234C12.1853 40.5585 11.3654 39.8829 11.0952 41.2432C10.8249 42.6126 8.23032 42.063 8.08617 41.2432C7.95104 40.4234 8.08617 39.7387 8.08617 39.7387C8.08617 39.7387 6.7168 40.964 5.35644 40.4144C3.98707 39.8739 4.32941 39.9189 3.68077 38.1171C1.19428 44.8739 -0.0579729 51.982 1.38347 58.8829C3.97806 71.3153 16.8159 78.9639 25.0141 80.4685C33.2123 81.973 45.5006 79.7838 52.6087 65.7117C59.7078 51.6396 52.2033 36.4775 45.7799 25.4144Z" fill="#F7F7F7"/>
</g>
<g style="mix-blend-mode:multiply">
<path d="M45.7798 25.4144C44.96 24.009 44.2753 22.5495 43.6807 21.0811C42.2482 20.8018 41.005 20.7658 41.6537 22.4955C42.4104 24.4955 40.987 24.8649 40.7437 24.2252C40.5005 23.5856 38.3113 20.9459 39.6807 23.4955C41.05 26.045 42.4374 26.4054 40.7437 26.4054C39.05 26.4054 35.3113 23.6757 36.951 26.4054C38.5906 29.1351 40.1401 31.2252 38.041 30.8649C35.951 30.5045 34.3654 27.2703 34.3113 29.964C34.2573 32.6577 34.2032 32.6847 34.041 33.3243C33.8789 33.964 31.4825 32.4144 31.0771 34.054C30.6717 35.6937 30.3203 36.8829 29.1311 36.5135C27.9419 36.1441 26.2122 33.2342 24.8428 35.4234C23.4735 37.6126 20.1041 38.1351 20.1041 38.1351C20.1041 38.1351 19.3744 35.5135 18.8248 36.2432C18.2753 36.973 15.7257 37.0631 15.7257 37.0631C15.7257 37.0631 16.4555 35.6036 13.6356 35.6937C10.8158 35.7838 7.07708 35.6937 7.07708 35.6937C7.07708 35.6937 7.3023 32.2613 7.62663 29.2973C2.86987 38.4234 -0.706705 48.8739 1.38338 58.8829C3.97798 71.3153 16.8158 78.964 25.014 80.4685C33.2122 81.973 45.5005 79.7838 52.6086 65.7117C59.7077 51.6396 52.2032 36.4775 45.7798 25.4144Z" fill="#F7F7F7"/>
</g>
<g style="mix-blend-mode:multiply">
<path d="M47.1403 33.2432C45.7709 38.0721 44.6808 36.6126 42.5457 36.2523C40.4106 35.8919 41.861 36.7117 39.6718 37.0721C37.4826 37.4324 38.3925 35.2522 37.4826 37.4324C36.5727 39.6216 36.5727 40.0721 36.0232 41.0721C35.4736 42.0721 33.4736 42.5315 33.4736 42.5315L31.3385 42.0721C31.3385 42.0721 28.9241 45.6216 26.0052 46.0811C23.0862 46.5405 20.0862 46.5405 20.0862 46.5405L16.4466 44.6306C16.4466 44.6306 12.5277 44.3604 11.1673 43.3513C9.80696 42.3423 9.25741 43.2613 8.25741 41.8018C7.25741 40.3423 5.70786 39.1622 5.70786 39.1622L4.60877 35.7387C1.53669 43.1712 -0.229073 51.1532 1.38354 58.8829C3.97813 71.3153 16.816 78.964 25.0142 80.4685C33.2124 81.973 45.5007 79.7838 52.6088 65.7117C58.6268 53.8018 54.1583 41.0991 48.7529 30.7748C48.1493 30.7207 47.6898 31.3243 47.1493 33.2522L47.1403 33.2432Z" fill="#F7F7F7"/>
</g>
<g style="mix-blend-mode:multiply">
<path d="M52.1495 40.8018C49.9603 44.8108 49.3297 40.7117 47.4108 43.2612C45.4918 45.8108 46.0414 45.8108 45.3207 46.5405C44.5909 47.2703 41.654 47.5675 41.654 47.5675C41.654 47.5675 41.1495 47.7928 41.0054 50.2162C40.8612 52.6396 41.2036 51.8198 38.8882 53.1441C36.5729 54.4685 39.672 53.1441 37.672 55.3513C35.672 57.5585 35.0504 57.1441 34.4918 56.2522C33.9333 55.3694 32.663 51.5676 31.3477 54.9279C30.0234 58.2883 30.1225 61 28.8432 59.2793C27.5639 57.5585 27.4828 52.6036 26.7981 55.3513C26.1135 58.1081 29.1765 61.8829 25.2756 59.8108C21.3747 57.7387 22.3837 57.2883 21.3747 57.7387C20.3747 58.1982 20.1945 56.7928 19.3747 58.3603C18.5549 59.9279 16.5549 60.8378 16.4648 59.6486C16.3747 58.4685 17.7441 57.009 15.8252 56.9189C13.9153 56.8288 14.7351 55.7387 13.5459 56.8288C12.3657 57.9189 9.3567 58 9.3567 58C9.3567 58 10.636 55.9639 10.636 55.3513C10.636 54.7387 13.1855 53.7297 9.3567 54.0991C5.52787 54.4594 4.80715 55.8288 5.07742 54.4594C5.34769 53.0901 5.1585 53.1802 5.02337 52.5495C4.88823 51.9099 2.70805 50.9009 2.70805 50.9009C2.70805 50.9009 1.89724 49.4054 1.20355 47.4685C0.617965 51.2703 0.599947 55.1081 1.38373 58.8829C3.97833 71.3153 16.8162 78.9639 25.0144 80.4685C33.2126 81.973 45.5008 79.7838 52.609 65.7117C56.9873 57.045 55.8072 47.9549 52.7621 39.6757C52.5729 40.027 52.3747 40.3964 52.1495 40.8018Z" fill="#F7F7F7"/>
</g>
<g style="mix-blend-mode:screen">
<path d="M8.57227 34.7658C8.57227 34.7658 8.6083 34.7748 8.66236 34.7928C8.68938 34.8108 8.72542 34.8108 8.75245 34.8108C8.77947 34.8108 8.8065 34.8108 8.84254 34.8108C8.96866 34.7928 9.13983 34.7568 9.32902 34.7297C9.51821 34.7027 9.72542 34.6937 9.89659 34.7117C10.0678 34.7297 10.2029 34.7748 10.2029 34.7748C10.2029 34.7748 10.1398 34.9009 9.99569 35.018C9.86055 35.1351 9.64434 35.2432 9.40109 35.2703C9.28398 35.2793 9.15785 35.2883 9.03173 35.2522C8.91461 35.2252 8.79749 35.1712 8.7074 35.0901C8.66236 35.0631 8.63533 35.009 8.6083 34.964C8.58127 34.9189 8.57227 34.8829 8.57227 34.8558C8.57227 34.8018 8.57227 34.7658 8.57227 34.7658Z" fill="#1A1A1A"/>
</g>
<g style="mix-blend-mode:screen">
<path d="M22.4014 29.2793C22.4014 29.2793 22.4374 29.2883 22.4915 29.3063C22.5185 29.3243 22.5545 29.3243 22.5815 29.3243C22.6086 29.3243 22.6356 29.3243 22.6716 29.3153C22.7978 29.2973 22.9689 29.2612 23.1581 29.2342C23.3473 29.2072 23.5545 29.1982 23.7257 29.2162C23.8969 29.2342 24.032 29.2793 24.032 29.2793C24.032 29.2793 23.9689 29.4054 23.8248 29.5225C23.6897 29.6396 23.4734 29.7477 23.2302 29.7747C23.1131 29.7838 22.987 29.7928 22.8608 29.7567C22.7437 29.7297 22.6266 29.6756 22.5365 29.5946C22.4915 29.5675 22.4644 29.5135 22.4374 29.4684C22.4104 29.4234 22.4014 29.3874 22.4014 29.3603C22.4014 29.3063 22.4014 29.2702 22.4014 29.2702V29.2793Z" fill="#1A1A1A"/>
</g>
<g style="mix-blend-mode:screen">
<path d="M23.9785 27.5135C23.9785 27.5135 24.0146 27.5225 24.0686 27.5405C24.0956 27.5585 24.1317 27.5585 24.1587 27.5585C24.1857 27.5585 24.2127 27.5585 24.2488 27.5585C24.3749 27.5405 24.5461 27.5045 24.7353 27.4775C24.9245 27.4504 25.1317 27.4414 25.3028 27.4594C25.474 27.4775 25.6091 27.5225 25.6091 27.5225C25.6091 27.5225 25.5461 27.6486 25.4019 27.7658C25.2668 27.8829 25.0506 27.991 24.8073 28.018C24.6902 28.027 24.5641 28.036 24.438 28C24.3209 27.973 24.2037 27.9189 24.1137 27.8378C24.0686 27.8108 24.0416 27.7567 24.0146 27.7117C23.9875 27.6667 23.9785 27.6306 23.9785 27.6036C23.9785 27.5495 23.9785 27.5135 23.9785 27.5135Z" fill="#1A1A1A"/>
</g>
<g style="mix-blend-mode:screen">
<path d="M41.1406 34.3153C41.1406 34.3153 41.1677 34.3333 41.2127 34.3784C41.2307 34.4054 41.2577 34.4234 41.2848 34.4234C41.3118 34.4234 41.3388 34.4414 41.3659 34.4504C41.492 34.4865 41.6631 34.5135 41.8523 34.5495C42.0415 34.5946 42.2307 34.6667 42.3839 34.7477C42.537 34.8288 42.6451 34.9189 42.6451 34.9189C42.6451 34.9189 42.537 35.009 42.3658 35.0631C42.1947 35.1171 41.9604 35.1351 41.7172 35.0811C41.6001 35.045 41.483 35 41.3839 34.9279C41.2848 34.8558 41.1947 34.7658 41.1496 34.6667C41.1226 34.6216 41.1046 34.5676 41.1046 34.5135C41.0956 34.4595 41.1046 34.4324 41.1046 34.4054C41.1226 34.3513 41.1406 34.3243 41.1406 34.3243V34.3153Z" fill="#1A1A1A"/>
</g>
<g style="mix-blend-mode:screen">
<path d="M18.293 31.6486C18.293 31.6486 18.329 31.6576 18.3831 31.6757C18.4101 31.6937 18.4461 31.6937 18.4731 31.6937C18.5002 31.6937 18.5272 31.6937 18.5632 31.6937C18.6894 31.6757 18.8605 31.6396 19.0497 31.6126C19.2389 31.5856 19.4461 31.5766 19.6173 31.5946C19.7885 31.6126 19.9236 31.6576 19.9236 31.6576C19.9236 31.6576 19.8605 31.7838 19.7164 31.9009C19.5813 32.018 19.365 32.1261 19.1218 32.1531C19.0047 32.1621 18.8786 32.1712 18.7524 32.1351C18.6353 32.1081 18.5182 32.054 18.4281 31.973C18.3831 31.9459 18.356 31.8919 18.329 31.8468C18.302 31.8018 18.293 31.7658 18.293 31.7387C18.293 31.6847 18.293 31.6486 18.293 31.6486Z" fill="#1A1A1A"/>
</g>
<g style="mix-blend-mode:screen">
<path d="M25.627 32.3784C25.627 32.3784 25.663 32.3874 25.717 32.4054C25.7441 32.4234 25.7801 32.4234 25.8071 32.4234C25.8342 32.4234 25.8612 32.4234 25.8972 32.4234C26.0233 32.4054 26.1945 32.3694 26.3837 32.3423C26.5729 32.3153 26.7801 32.3063 26.9513 32.3243C27.1224 32.3423 27.2576 32.3874 27.2576 32.3874C27.2576 32.3874 27.1945 32.5135 27.0504 32.6306C26.9152 32.7477 26.699 32.8558 26.4558 32.8829C26.3387 32.8919 26.2125 32.9009 26.0864 32.8649C25.9693 32.8378 25.8522 32.7838 25.7621 32.7027C25.717 32.6757 25.69 32.6216 25.663 32.5766C25.636 32.5315 25.627 32.4955 25.627 32.4685C25.627 32.4144 25.627 32.3784 25.627 32.3784Z" fill="#1A1A1A"/>
</g>
<g style="mix-blend-mode:screen">
<path d="M22.4463 25.8018C22.4463 25.8018 22.4823 25.8108 22.5364 25.8288C22.5634 25.8468 22.5994 25.8468 22.6265 25.8468C22.6535 25.8468 22.6805 25.8468 22.7166 25.8378C22.8427 25.8198 23.0139 25.7838 23.203 25.7567C23.3922 25.7297 23.5994 25.7207 23.7706 25.7387C23.9418 25.7567 24.0769 25.8018 24.0769 25.8018C24.0769 25.8018 24.0139 25.9279 23.8697 26.045C23.7346 26.1621 23.5184 26.2702 23.2751 26.2973C23.158 26.3063 23.0319 26.3153 22.9057 26.2793C22.7886 26.2522 22.6715 26.1982 22.5814 26.1171C22.5364 26.0901 22.5094 26.036 22.4823 25.991C22.4553 25.9459 22.4463 25.9099 22.4463 25.8829C22.4463 25.8288 22.4463 25.7928 22.4463 25.7928V25.8018Z" fill="#1A1A1A"/>
</g>
<g style="mix-blend-mode:screen">
<path d="M16.645 24.9729C16.645 24.9729 16.672 24.991 16.717 25.027C16.7351 25.054 16.7711 25.063 16.7891 25.072C16.8161 25.072 16.8432 25.0901 16.8702 25.0901C16.9963 25.1171 17.1675 25.1441 17.3567 25.1802C17.5459 25.2252 17.7441 25.2883 17.8972 25.3603C18.0504 25.4324 18.1585 25.5225 18.1585 25.5225C18.1585 25.5225 18.0504 25.6216 17.8792 25.6756C17.708 25.7387 17.4738 25.7657 17.2306 25.7117C17.1134 25.6756 16.9963 25.6396 16.8882 25.5675C16.7891 25.4955 16.69 25.4144 16.645 25.3063C16.6179 25.2612 16.5999 25.2072 16.5909 25.1531C16.5819 25.1081 16.5909 25.072 16.5909 25.045C16.6089 24.991 16.627 24.9549 16.627 24.9549L16.645 24.9729Z" fill="#1A1A1A"/>
</g>
<g style="mix-blend-mode:screen">
<path d="M19.645 23.3333C19.645 23.3333 19.672 23.3513 19.717 23.3874C19.7351 23.4144 19.7711 23.4234 19.7891 23.4324C19.8161 23.4324 19.8432 23.4504 19.8702 23.4504C19.9963 23.4775 20.1675 23.5045 20.3567 23.5405C20.5459 23.5856 20.7441 23.6486 20.8972 23.7207C21.0504 23.7928 21.1585 23.8829 21.1585 23.8829C21.1585 23.8829 21.0504 23.982 20.8792 24.036C20.708 24.0991 20.4738 24.1261 20.2306 24.0721C20.1134 24.036 19.9963 24 19.8882 23.9279C19.7891 23.8558 19.69 23.7748 19.645 23.6667C19.6179 23.6216 19.5999 23.5676 19.5909 23.5135C19.5819 23.4685 19.5909 23.4324 19.5909 23.4054C19.6089 23.3513 19.627 23.3153 19.627 23.3153L19.645 23.3333Z" fill="#1A1A1A"/>
</g>
<g style="mix-blend-mode:screen">
<path d="M13.6713 24.7748C13.6713 24.7748 13.6984 24.7928 13.7434 24.8288C13.7614 24.8558 13.7975 24.8649 13.8155 24.8739C13.8425 24.8739 13.8695 24.8919 13.8966 24.8919C14.0227 24.9189 14.1939 24.9459 14.3831 24.982C14.5722 25.027 14.7704 25.0901 14.9236 25.1622C15.0767 25.2342 15.1849 25.3243 15.1849 25.3243C15.1849 25.3243 15.0767 25.4234 14.9056 25.4775C14.7344 25.5405 14.5002 25.5676 14.2569 25.5135C14.1398 25.4775 14.0227 25.4414 13.9146 25.3694C13.8155 25.2973 13.7164 25.2162 13.6713 25.1081C13.6443 25.0631 13.6263 25.009 13.6173 24.9549C13.6083 24.9099 13.6173 24.8739 13.6173 24.8468C13.6353 24.7928 13.6533 24.7567 13.6533 24.7567L13.6713 24.7748Z" fill="#1A1A1A"/>
</g>
<g style="mix-blend-mode:screen">
<path d="M13.4106 29.1171C13.4106 29.1171 13.4376 29.1351 13.4827 29.1712C13.5007 29.1982 13.5367 29.2072 13.5547 29.2162C13.5818 29.2162 13.6088 29.2342 13.6358 29.2342C13.7619 29.2613 13.9331 29.2883 14.1223 29.3243C14.3115 29.3694 14.5097 29.4324 14.6628 29.5045C14.816 29.5766 14.9241 29.6667 14.9241 29.6667C14.9241 29.6667 14.816 29.7658 14.6448 29.8198C14.4737 29.8829 14.2394 29.9099 13.9962 29.8558C13.8791 29.8198 13.7619 29.7838 13.6538 29.7117C13.5547 29.6396 13.4556 29.5585 13.4106 29.4504C13.3836 29.4054 13.3656 29.3513 13.3565 29.2973C13.3475 29.2522 13.3565 29.2162 13.3565 29.1892C13.3746 29.1351 13.3926 29.0991 13.3926 29.0991L13.4106 29.1171Z" fill="#1A1A1A"/>
</g>
<g style="mix-blend-mode:screen">
<path d="M31.1855 17.7748C31.1855 17.7748 31.2216 17.7838 31.2756 17.8018C31.3027 17.8198 31.3387 17.8198 31.3657 17.8198C31.3928 17.8198 31.4198 17.8198 31.4558 17.8108C31.5819 17.7928 31.7531 17.7568 31.9423 17.7297C32.1315 17.7027 32.3387 17.6937 32.5099 17.7117C32.681 17.7297 32.8162 17.7748 32.8162 17.7748C32.8162 17.7748 32.7531 17.9009 32.609 18.018C32.4738 18.1351 32.2576 18.2432 32.0144 18.2703C31.8973 18.2793 31.7711 18.2883 31.645 18.2522C31.5279 18.2252 31.4108 18.1712 31.3207 18.0901C31.2756 18.0631 31.2486 18.009 31.2216 17.964C31.1946 17.9189 31.1855 17.8829 31.1855 17.8558C31.1855 17.8018 31.1855 17.7658 31.1855 17.7658V17.7748Z" fill="#1A1A1A"/>
</g>
<g style="mix-blend-mode:screen">
<path d="M34.2578 20.5585C34.2578 20.5585 34.2939 20.5585 34.3479 20.5856C34.3749 20.6036 34.411 20.6036 34.438 20.6036C34.465 20.6036 34.492 20.6036 34.5281 20.6036C34.6542 20.5856 34.8254 20.5495 35.0146 20.5225C35.2038 20.4955 35.411 20.4865 35.5821 20.5045C35.7533 20.5225 35.8884 20.5676 35.8884 20.5676C35.8884 20.5676 35.8254 20.6937 35.6812 20.8108C35.5461 20.9279 35.3299 21.036 35.0866 21.063C34.9695 21.0721 34.8434 21.0811 34.7173 21.045C34.6002 21.018 34.483 20.964 34.3929 20.8829C34.3479 20.8558 34.3209 20.8018 34.2938 20.7567C34.2668 20.7117 34.2578 20.6757 34.2578 20.6486C34.2578 20.5946 34.2578 20.5585 34.2578 20.5585Z" fill="#1A1A1A"/>
</g>
<g style="mix-blend-mode:screen">
<path d="M35.834 18.7928C35.834 18.7928 35.87 18.8018 35.9241 18.8198C35.9511 18.8378 35.9871 18.8378 36.0142 18.8378C36.0412 18.8378 36.0682 18.8378 36.1043 18.8288C36.2304 18.8108 36.4016 18.7748 36.5907 18.7477C36.7799 18.7207 36.9871 18.7117 37.1583 18.7297C37.3295 18.7477 37.4646 18.7928 37.4646 18.7928C37.4646 18.7928 37.4016 18.9189 37.2574 19.036C37.1223 19.1531 36.9061 19.2612 36.6628 19.2883C36.5457 19.2973 36.4196 19.3063 36.2934 19.2703C36.1763 19.2432 36.0592 19.1892 35.9691 19.1081C35.9241 19.0811 35.897 19.027 35.87 18.982C35.843 18.9369 35.834 18.9009 35.834 18.8739C35.834 18.8198 35.834 18.7838 35.834 18.7838V18.7928Z" fill="#1A1A1A"/>
</g>
<g style="mix-blend-mode:screen">
<path d="M28.293 18.7297C28.293 18.7297 28.32 18.7477 28.365 18.7928C28.3831 18.8198 28.4101 18.8378 28.4371 18.8378C28.4641 18.8378 28.4912 18.8558 28.5182 18.8648C28.6443 18.9009 28.8155 18.9279 29.0047 18.9729C29.1939 19.018 29.3831 19.0901 29.5362 19.1711C29.6894 19.2432 29.7975 19.3423 29.7975 19.3423C29.7975 19.3423 29.6894 19.4324 29.5182 19.4865C29.347 19.5405 29.1128 19.5585 28.8695 19.5045C28.7524 19.4684 28.6353 19.4234 28.5362 19.3513C28.4371 19.2793 28.347 19.1892 28.302 19.0901C28.275 19.045 28.2569 18.991 28.2569 18.9369C28.2479 18.8829 28.2569 18.8558 28.2569 18.8288C28.275 18.7747 28.293 18.7477 28.293 18.7477V18.7297Z" fill="#1A1A1A"/>
</g>
<g style="mix-blend-mode:screen">
<path d="M30.1494 22.9279C30.1494 22.9279 30.1854 22.9369 30.2395 22.9549C30.2665 22.973 30.3026 22.973 30.3296 22.973C30.3566 22.973 30.3836 22.973 30.4197 22.9639C30.5458 22.9459 30.717 22.9099 30.9062 22.8829C31.0954 22.8558 31.3026 22.8468 31.4737 22.8648C31.6449 22.8829 31.78 22.9279 31.78 22.9279C31.78 22.9279 31.717 23.054 31.5728 23.1711C31.4377 23.2883 31.2215 23.3964 30.9782 23.4234C30.8611 23.4324 30.735 23.4414 30.6089 23.4054C30.4918 23.3784 30.3746 23.3243 30.2845 23.2432C30.2395 23.2162 30.2125 23.1621 30.1855 23.1171C30.1584 23.0721 30.1494 23.036 30.1494 23.009C30.1494 22.9549 30.1494 22.9189 30.1494 22.9189V22.9279Z" fill="#1A1A1A"/>
</g>
<g style="mix-blend-mode:screen">
<path d="M37.4824 23.6576C37.4824 23.6576 37.5185 23.6576 37.5725 23.6847C37.5995 23.7027 37.6356 23.7027 37.6626 23.7027C37.6896 23.7027 37.7167 23.7027 37.7527 23.7027C37.8788 23.6847 38.05 23.6486 38.2392 23.6216C38.4284 23.5946 38.6356 23.5856 38.8067 23.6036C38.9779 23.6216 39.1131 23.6666 39.1131 23.6666C39.1131 23.6666 39.05 23.7928 38.9058 23.9099C38.7707 24.027 38.5545 24.1351 38.3112 24.1621C38.1941 24.1711 38.068 24.1802 37.9419 24.1441C37.8248 24.1171 37.7076 24.063 37.6176 23.982C37.5725 23.9549 37.5455 23.9009 37.5185 23.8558C37.4914 23.8108 37.4824 23.7748 37.4824 23.7477C37.4824 23.6937 37.4824 23.6576 37.4824 23.6576Z" fill="#1A1A1A"/>
</g>
<g style="mix-blend-mode:screen">
<path d="M34.3027 17.0811C34.3027 17.0811 34.3388 17.0901 34.3928 17.1081C34.4199 17.1261 34.4559 17.1261 34.4829 17.1261C34.5099 17.1261 34.537 17.1261 34.573 17.1261C34.6991 17.1081 34.8703 17.0721 35.0595 17.045C35.2487 17.018 35.4559 17.009 35.6271 17.027C35.7982 17.045 35.9334 17.0901 35.9334 17.0901C35.9334 17.0901 35.8703 17.2162 35.7262 17.3333C35.591 17.4504 35.3748 17.5585 35.1316 17.5856C35.0144 17.5946 34.8883 17.6036 34.7622 17.5676C34.6451 17.5405 34.528 17.4865 34.4379 17.4054C34.3928 17.3784 34.3658 17.3243 34.3388 17.2793C34.3117 17.2342 34.3027 17.1982 34.3027 17.1712C34.3027 17.1171 34.3027 17.0811 34.3027 17.0811Z" fill="#1A1A1A"/>
</g>
<g style="mix-blend-mode:screen">
<path d="M31.2299 32.982C31.2299 32.982 31.257 33 31.302 33.036C31.32 33.0631 31.3561 33.0721 31.3741 33.0811C31.4011 33.0811 31.4281 33.0991 31.4552 33.0991C31.5813 33.1261 31.7525 33.1531 31.9416 33.1892C32.1308 33.2342 32.329 33.2973 32.4822 33.3694C32.6353 33.4414 32.7434 33.5315 32.7434 33.5315C32.7434 33.5315 32.6353 33.6306 32.4642 33.6847C32.293 33.7477 32.0588 33.7748 31.8155 33.7207C31.6984 33.6847 31.5813 33.6486 31.4732 33.5766C31.3741 33.5045 31.275 33.4234 31.2299 33.3153C31.2029 33.2703 31.1849 33.2162 31.1759 33.1622C31.1669 33.1171 31.1759 33.0811 31.1759 33.054C31.1939 33 31.2119 32.964 31.2119 32.964L31.2299 32.982Z" fill="#1A1A1A"/>
</g>
<g style="mix-blend-mode:screen">
<path d="M31.5004 14.6126C31.5004 14.6126 31.5275 14.6306 31.5725 14.6666C31.5905 14.6937 31.6266 14.7027 31.6446 14.7117C31.6716 14.7117 31.6986 14.7297 31.7257 14.7297C31.8518 14.7567 32.023 14.7838 32.2122 14.8198C32.4013 14.8648 32.5995 14.9279 32.7527 15C32.9058 15.0721 33.014 15.1621 33.014 15.1621C33.014 15.1621 32.9058 15.2612 32.7347 15.3153C32.5635 15.3784 32.3293 15.4054 32.086 15.3513C31.9689 15.3153 31.8518 15.2793 31.7437 15.2072C31.6446 15.1351 31.5455 15.054 31.5004 14.9459C31.4734 14.9009 31.4554 14.8468 31.4464 14.7928C31.4374 14.7477 31.4464 14.7117 31.4464 14.6847C31.4644 14.6306 31.4824 14.5946 31.4824 14.5946L31.5004 14.6126Z" fill="#1A1A1A"/>
</g>
<g style="mix-blend-mode:screen">
<path d="M25.5278 16.054C25.5278 16.054 25.5548 16.072 25.5999 16.1081C25.6179 16.1351 25.6539 16.1441 25.6719 16.1531C25.699 16.1531 25.726 16.1711 25.753 16.1711C25.8791 16.1982 26.0503 16.2252 26.2395 16.2612C26.4287 16.3063 26.6269 16.3693 26.78 16.4414C26.9332 16.5135 27.0413 16.6036 27.0413 16.6036C27.0413 16.6036 26.9332 16.7027 26.762 16.7567C26.5908 16.8198 26.3566 16.8468 26.1134 16.7928C25.9963 16.7567 25.8791 16.7207 25.771 16.6486C25.6719 16.5766 25.5728 16.4955 25.5278 16.3874C25.5008 16.3423 25.4827 16.2883 25.4737 16.2342C25.4647 16.1892 25.4737 16.1531 25.4737 16.1261C25.4917 16.072 25.5098 16.036 25.5098 16.036L25.5278 16.054Z" fill="#1A1A1A"/>
</g>
<g style="mix-blend-mode:screen">
<path d="M25.2661 20.4054C25.2661 20.4054 25.2931 20.4234 25.3381 20.4594C25.3562 20.4865 25.3922 20.4955 25.4102 20.5045C25.4372 20.5045 25.4643 20.5225 25.4913 20.5225C25.6174 20.5495 25.7886 20.5765 25.9778 20.6126C26.167 20.6576 26.3652 20.7207 26.5183 20.7928C26.6715 20.8648 26.7796 20.9549 26.7796 20.9549C26.7796 20.9549 26.6715 21.054 26.5003 21.1081C26.3291 21.1711 26.0949 21.1982 25.8517 21.1441C25.7345 21.1081 25.6174 21.072 25.5093 21C25.4102 20.9279 25.3111 20.8468 25.2661 20.7387C25.239 20.6937 25.221 20.6396 25.212 20.5856C25.203 20.5405 25.212 20.5045 25.212 20.4775C25.23 20.4234 25.248 20.3874 25.248 20.3874L25.2661 20.4054Z" fill="#1A1A1A"/>
</g>
<g style="mix-blend-mode:screen">
<path d="M27.834 6.32432C27.834 6.32432 27.87 6.32432 27.9241 6.35135C27.9511 6.36937 27.9871 6.36937 28.0142 6.36937C28.0412 6.36937 28.0682 6.36937 28.1043 6.36937C28.2304 6.35135 28.4016 6.31531 28.5907 6.28829C28.7799 6.26126 28.9871 6.25225 29.1583 6.27027C29.3295 6.28829 29.4646 6.33333 29.4646 6.33333C29.4646 6.33333 29.4016 6.45946 29.2574 6.57658C29.1223 6.69369 28.9061 6.8018 28.6628 6.82883C28.5457 6.83784 28.4196 6.84685 28.2934 6.81081C28.1763 6.78378 28.0592 6.72973 27.9691 6.64865C27.9241 6.62162 27.897 6.56757 27.87 6.52252C27.843 6.47748 27.834 6.44144 27.834 6.41441C27.834 6.36036 27.834 6.32432 27.834 6.32432Z" fill="#1A1A1A"/>
</g>
<g style="mix-blend-mode:screen">
<path d="M30.9062 9.10808C30.9062 9.10808 30.9423 9.11709 30.9963 9.13511C31.0234 9.15313 31.0594 9.15313 31.0864 9.15313C31.1135 9.15313 31.1405 9.15313 31.1765 9.14412C31.3026 9.1261 31.4738 9.09006 31.663 9.06304C31.8522 9.03601 32.0594 9.027 32.2306 9.04502C32.4017 9.06304 32.5369 9.10808 32.5369 9.10808C32.5369 9.10808 32.4738 9.23421 32.3297 9.35132C32.1945 9.46844 31.9783 9.57655 31.7351 9.60358C31.618 9.61259 31.4918 9.6216 31.3657 9.58556C31.2486 9.55853 31.1315 9.50448 31.0414 9.4234C30.9963 9.39637 30.9693 9.34232 30.9423 9.29727C30.9153 9.25223 30.9062 9.21619 30.9062 9.18916C30.9062 9.13511 30.9062 9.09907 30.9062 9.09907V9.10808Z" fill="#1A1A1A"/>
</g>
<g style="mix-blend-mode:screen">
<path d="M32.4912 7.33333C32.4912 7.33333 32.5272 7.34234 32.5813 7.36036C32.6083 7.37838 32.6444 7.37838 32.6714 7.37838C32.6984 7.37838 32.7254 7.37838 32.7615 7.36937C32.8876 7.35135 33.0588 7.31531 33.248 7.28829C33.4372 7.26126 33.6444 7.25225 33.8155 7.27027C33.9867 7.28829 34.1218 7.33333 34.1218 7.33333C34.1218 7.33333 34.0588 7.45946 33.9146 7.57658C33.7795 7.69369 33.5633 7.8018 33.32 7.82883C33.2029 7.83784 33.0768 7.84685 32.9507 7.81081C32.8336 7.78378 32.7164 7.72973 32.6263 7.64865C32.5813 7.62162 32.5543 7.56757 32.5272 7.52252C32.5002 7.47748 32.4912 7.44144 32.4912 7.41441C32.4912 7.36036 32.4912 7.32432 32.4912 7.32432V7.33333Z" fill="#1A1A1A"/>
</g>
<g style="mix-blend-mode:screen">
<path d="M17.4102 18.7297C17.4102 18.7297 17.4372 18.7477 17.4822 18.7928C17.5002 18.8198 17.5273 18.8378 17.5543 18.8378C17.5813 18.8378 17.6084 18.8558 17.6354 18.8648C17.7615 18.9009 17.9327 18.9279 18.1219 18.9729C18.3111 19.018 18.5002 19.0901 18.6534 19.1711C18.8066 19.2432 18.9147 19.3423 18.9147 19.3423C18.9147 19.3423 18.8066 19.4324 18.6354 19.4865C18.4642 19.5405 18.23 19.5585 17.9867 19.5045C17.8696 19.4684 17.7525 19.4234 17.6534 19.3513C17.5543 19.2793 17.4642 19.1892 17.4192 19.0901C17.3921 19.045 17.3741 18.991 17.3741 18.9369C17.3651 18.8829 17.3741 18.8558 17.3741 18.8288C17.3921 18.7747 17.4102 18.7477 17.4102 18.7477V18.7297Z" fill="#1A1A1A"/>
</g>
<g style="mix-blend-mode:screen">
<path d="M26.8066 11.4685C26.8066 11.4685 26.8427 11.4775 26.8967 11.4955C26.9238 11.5135 26.9598 11.5135 26.9868 11.5135C27.0138 11.5135 27.0409 11.5135 27.0769 11.5045C27.203 11.4865 27.3742 11.4504 27.5634 11.4234C27.7526 11.3964 27.9598 11.3874 28.131 11.4054C28.3021 11.4234 28.4373 11.4685 28.4373 11.4685C28.4373 11.4685 28.3742 11.5946 28.2301 11.7117C28.0949 11.8288 27.8787 11.9369 27.6355 11.964C27.5184 11.973 27.3922 11.982 27.2661 11.9459C27.149 11.9189 27.0319 11.8649 26.9418 11.7838C26.8967 11.7568 26.8697 11.7027 26.8427 11.6577C26.8157 11.6126 26.8066 11.5766 26.8066 11.5495C26.8066 11.4955 26.8066 11.4595 26.8066 11.4595V11.4685Z" fill="#1A1A1A"/>
</g>
<g style="mix-blend-mode:screen">
<path d="M34.1309 12.1982C34.1309 12.1982 34.1669 12.2072 34.221 12.2252C34.248 12.2432 34.284 12.2432 34.311 12.2432C34.3381 12.2432 34.3651 12.2432 34.4011 12.2342C34.5273 12.2162 34.6984 12.1802 34.8876 12.1531C35.0768 12.1261 35.284 12.1171 35.4552 12.1351C35.6264 12.1531 35.7615 12.1982 35.7615 12.1982C35.7615 12.1982 35.6984 12.3243 35.5543 12.4414C35.4191 12.5585 35.2029 12.6666 34.9597 12.6937C34.8426 12.7027 34.7164 12.7117 34.5903 12.6756C34.4732 12.6486 34.3561 12.5946 34.266 12.5135C34.221 12.4865 34.1939 12.4324 34.1669 12.3874C34.1399 12.3423 34.1309 12.3063 34.1309 12.2793C34.1309 12.2252 34.1309 12.1892 34.1309 12.1892V12.1982Z" fill="#1A1A1A"/>
</g>
<g style="mix-blend-mode:screen">
<path d="M30.96 5.63063C30.96 5.63063 30.996 5.63964 31.0501 5.65765C31.0771 5.67567 31.1131 5.67567 31.1401 5.67567C31.1672 5.67567 31.1942 5.67567 31.2302 5.67567C31.3564 5.65765 31.5275 5.62162 31.7167 5.59459C31.9059 5.56756 32.1131 5.55856 32.2843 5.57657C32.4555 5.59459 32.5906 5.63964 32.5906 5.63964C32.5906 5.63964 32.5275 5.76576 32.3834 5.88288C32.2483 6 32.032 6.10811 31.7888 6.13513C31.6717 6.14414 31.5455 6.15315 31.4194 6.11711C31.3023 6.09009 31.1852 6.03603 31.0951 5.95495C31.0501 5.92793 31.023 5.87387 30.996 5.82883C30.969 5.78378 30.96 5.74774 30.96 5.72072C30.96 5.66666 30.96 5.63063 30.96 5.63063Z" fill="#1A1A1A"/>
</g>
<g style="mix-blend-mode:screen">
<path d="M32.0415 26.7387C32.0415 26.7387 32.0685 26.7567 32.1135 26.7928C32.1315 26.8198 32.1676 26.8288 32.1856 26.8378C32.2126 26.8378 32.2397 26.8558 32.2667 26.8558C32.3928 26.8829 32.564 26.9099 32.7532 26.9459C32.9424 26.991 33.1406 27.054 33.2937 27.1261C33.4469 27.1982 33.555 27.2883 33.555 27.2883C33.555 27.2883 33.4469 27.3874 33.2757 27.4414C33.1045 27.5045 32.8703 27.5315 32.627 27.4775C32.5099 27.4414 32.3928 27.4054 32.2847 27.3333C32.1856 27.2612 32.0865 27.1802 32.0415 27.0721C32.0144 27.027 31.9964 26.973 31.9874 26.9189C31.9784 26.8739 31.9874 26.8378 31.9874 26.8108C32.0054 26.7567 32.0234 26.7207 32.0234 26.7207L32.0415 26.7387Z" fill="#1A1A1A"/>
</g>
<g style="mix-blend-mode:screen">
<path d="M28.1489 3.16215C28.1489 3.16215 28.1759 3.18017 28.2209 3.21621C28.239 3.24323 28.275 3.25224 28.293 3.26125C28.32 3.26125 28.3471 3.27927 28.3741 3.27927C28.5002 3.3063 28.6714 3.33332 28.8606 3.36936C29.0498 3.4144 29.248 3.47747 29.4011 3.54954C29.5543 3.62161 29.6624 3.7117 29.6624 3.7117C29.6624 3.7117 29.5543 3.8108 29.3831 3.86486C29.2119 3.92792 28.9777 3.95495 28.7345 3.90089C28.6173 3.86486 28.5002 3.82882 28.3921 3.75675C28.293 3.68468 28.1939 3.60359 28.1489 3.49549C28.1219 3.45044 28.1038 3.39639 28.0948 3.34233C28.0858 3.29729 28.0948 3.26125 28.0948 3.23422C28.1128 3.18017 28.1309 3.14413 28.1309 3.14413L28.1489 3.16215Z" fill="#1A1A1A"/>
</g>
<g style="mix-blend-mode:screen">
<path d="M22.185 4.60359C22.185 4.60359 22.212 4.62161 22.2571 4.65764C22.2751 4.68467 22.3111 4.69368 22.3292 4.70269C22.3562 4.70269 22.3832 4.72071 22.4102 4.72071C22.5364 4.74773 22.7075 4.77476 22.8967 4.8108C23.0859 4.85584 23.2841 4.9189 23.4373 4.99098C23.5904 5.06305 23.6985 5.15314 23.6985 5.15314C23.6985 5.15314 23.5904 5.25224 23.4192 5.30629C23.2481 5.36935 23.0138 5.39638 22.7706 5.34233C22.6535 5.30629 22.5364 5.27026 22.4283 5.19818C22.3292 5.12611 22.2301 5.04503 22.185 4.93692C22.158 4.89188 22.14 4.83782 22.131 4.78377C22.1219 4.73872 22.131 4.70269 22.131 4.67566C22.149 4.62161 22.167 4.58557 22.167 4.58557L22.185 4.60359Z" fill="#1A1A1A"/>
</g>
<g style="mix-blend-mode:screen">
<path d="M21.9243 8.94594C21.9243 8.94594 21.9513 8.96395 21.9963 8.99999C22.0144 9.02702 22.0504 9.03603 22.0684 9.04503C22.0954 9.04503 22.1225 9.06305 22.1495 9.06305C22.2756 9.09008 22.4468 9.11711 22.636 9.15314C22.8252 9.19819 23.0234 9.26125 23.1765 9.33332C23.3297 9.40539 23.4378 9.49549 23.4378 9.49549C23.4378 9.49549 23.3297 9.59458 23.1585 9.64864C22.9873 9.7117 22.7531 9.73873 22.5099 9.68467C22.3927 9.64864 22.2756 9.6126 22.1675 9.54053C22.0684 9.46846 21.9693 9.38738 21.9243 9.27927C21.8972 9.23422 21.8792 9.18017 21.8702 9.12612C21.8612 9.08107 21.8702 9.04503 21.8702 9.01801C21.8882 8.96395 21.9063 8.92792 21.9063 8.92792L21.9243 8.94594Z" fill="#1A1A1A"/>
</g>
<g style="mix-blend-mode:screen">
<path d="M27.6083 4.88286C22.6353 3.45043 21.1218 7.90088 18.1579 16.6216C15.1939 25.3423 6.24795 32.2432 5.60831 43.991C4.96867 55.7387 8.33804 56.1982 12.8966 54.009C17.4461 51.8198 27.6353 42.1712 30.0137 35.7027C32.3831 29.2342 26.7615 26.1802 26.4371 23.3333C26.1128 20.4865 30.1308 5.60358 27.6173 4.88286H27.6083Z" fill="#050505"/>
</g>
<g style="mix-blend-mode:screen">
<path d="M9.38391 53.9369C8.79833 53.9369 8.38391 53.7658 8.02355 53.3874C7.23977 52.5586 6.3659 50.2613 6.70824 44.045C7.08662 37.1081 10.51 31.8829 13.8163 26.8378C15.9695 23.5495 18.0055 20.4504 19.1947 16.964C21.8524 9.14414 23.1407 5.7027 25.9064 5.7027C26.2848 5.7027 26.7082 5.76576 27.1677 5.88288C27.8163 7.1081 26.7533 13.3063 26.1677 16.6667C25.5731 20.1441 25.2127 22.3333 25.3389 23.4414C25.483 24.6577 26.2758 25.7748 27.1136 26.9459C28.6362 29.0901 30.3659 31.5135 28.9785 35.3063C26.7803 41.2883 16.9064 50.8468 12.42 53C11.1317 53.6216 10.1407 53.9189 9.37491 53.9189L9.38391 53.9369Z" fill="#050505"/>
</g>
<g style="mix-blend-mode:screen">
<path d="M9.38331 52.8468C9.04097 52.8468 8.92385 52.7567 8.81575 52.6396C8.49142 52.2883 7.43737 50.6486 7.79773 44.1081C8.15809 37.4594 11.5004 32.3694 14.7347 27.4414C16.9329 24.0901 19.0049 20.9369 20.2302 17.3153C22.7707 9.83783 23.9959 6.79279 25.9148 6.79279C26.032 6.79279 26.1581 6.79279 26.2932 6.81981C26.4464 8.67567 25.4554 14.4685 25.104 16.4865C24.4734 20.1712 24.1221 22.3153 24.2662 23.5766C24.4374 25.0721 25.3563 26.3513 26.2392 27.5946C27.7437 29.7027 29.1581 31.6937 27.9689 34.9459C25.8878 40.6036 16.1941 50 11.9599 52.036C10.8428 52.5766 9.97791 52.8468 9.39232 52.8468H9.38331Z" fill="#050505"/>
</g>
<g style="mix-blend-mode:screen">
<path d="M9.52729 51.7477C9.27504 51.2612 8.59936 49.4594 8.88765 44.1712C9.22999 37.8198 12.4913 32.8558 15.6444 28.045C17.8786 24.6396 19.9867 21.4234 21.266 17.6757C22.5453 13.9189 23.9597 9.74773 25.1579 8.36935C25.0318 9.99998 24.6444 12.6576 24.0228 16.3153C23.3561 20.2072 23.0138 22.2973 23.1759 23.7207C23.3831 25.4955 24.4192 26.9549 25.3381 28.2432C26.7886 30.2703 27.9237 31.8739 26.9327 34.5766C24.9687 39.9189 15.4732 49.1351 11.4732 51.054C10.3831 51.5766 9.79756 51.7117 9.51828 51.7477H9.52729Z" fill="#050505"/>
</g>
<g style="mix-blend-mode:screen">
<path d="M10.2301 50.4144C10.0229 49.4775 9.79771 47.6216 9.97789 44.2342C10.3022 38.1802 13.4824 33.3333 16.5545 28.6486C18.8337 25.1802 20.9779 21.9099 22.2932 18.027C22.5004 17.4234 22.7166 16.7928 22.9328 16.1531C22.2482 20.1261 21.9058 22.2793 22.086 23.8378C22.3202 25.8919 23.5004 27.5405 24.4464 28.8648C25.8518 30.8378 26.6986 32.027 25.9058 34.1892C24.077 39.1621 14.8337 48.2162 11.0049 50.063C10.6986 50.2072 10.4373 50.3243 10.2301 50.4054V50.4144Z" fill="#050505"/>
</g>
<g style="mix-blend-mode:multiply">
<path d="M48.3294 29.973C46.3023 36.0901 37.5186 36.0901 31.3384 45.4775C25.7168 54.027 20.7618 71.1892 32.1402 80.7297C39.3023 80 47.3654 76.0901 52.6087 65.7027C58.7798 53.4775 53.924 40.4324 48.3294 29.964V29.973Z" fill="#E6E6E6"/>
</g>
<path d="M88.851 34.3333C94.7699 36.2432 99.3195 40.8018 95.0402 51.5495C90.7609 62.2973 87.0222 59.3784 83.0222 67.9459C79.0132 76.5045 73.5537 92.5315 54.2474 91.991C34.9411 91.4414 26.7429 79.6937 28.9321 68.036C31.1213 56.3784 74.1033 58.1081 74.1033 58.1081L88.86 34.3423L88.851 34.3333Z" fill="#30590F"/>
<g style="mix-blend-mode:multiply">
<path d="M85.122 60.8919C81.9778 63.2072 65.3562 92.3423 46.4463 91.045C48.8066 91.5765 51.4012 91.9009 54.2481 91.9819C73.5544 92.5315 79.0229 76.5045 83.0229 67.9369C87.0319 59.3783 90.7616 62.2882 95.0409 51.5405C97.6084 45.0991 96.9958 40.8919 94.8247 38.1351C95.131 48.9459 88.113 58.6756 85.113 60.8828L85.122 60.8919Z" fill="#EDEDED"/>
</g>
<g style="mix-blend-mode:multiply">
<path d="M88.8515 34.3333L87.6172 36.3243C91.365 45.5946 83.4551 57.2882 81.1127 64.4774C78.383 72.8558 69.1848 88.9729 55.2479 88.5225C46.7163 88.2432 36.338 86.7027 30.8154 80.4414C34.347 86.8468 42.0947 91.6396 54.2479 91.9819C73.5542 92.5315 79.0226 76.5045 83.0226 67.9369C87.0316 59.3783 90.7614 62.2882 95.0406 51.5405C99.3199 40.7927 94.7704 36.2432 88.8515 34.3243V34.3333Z" fill="#EDEDED"/>
</g>
<path d="M89.2839 34.4774C97.7253 37.3603 95.383 49.045 87.9145 55.2432C80.4461 61.4324 79.356 63.8018 75.9866 69.8108C72.6172 75.8198 63.5091 86.3874 46.0226 84.1982C28.5362 82.009 27.6623 74.9099 29.0136 63.8919C30.356 52.8738 44.383 44.2252 54.8605 42.3964C65.3289 40.5765 71.0677 40.2973 75.6262 37.6576C80.1758 35.018 85.5542 33.1982 89.2839 34.4684V34.4774Z" fill="#446B26"/>
<g opacity="0.15">
<path d="M50.6086 84.2252C49.1312 84.2252 47.5996 84.1261 46.0591 83.9369C28.4465 81.7387 27.987 74.5856 29.2843 63.9369C30.6537 52.7387 45.0411 44.3964 54.9059 42.6847C57.4375 42.2432 59.7077 41.8919 61.7167 41.5766C68.0681 40.5946 72.2663 39.9369 75.7618 37.9099C79.7257 35.6126 83.5636 34.3423 86.5546 34.3423C87.5276 34.3423 88.4195 34.4775 89.2032 34.7477C91.978 35.6937 93.7077 37.6757 94.2213 40.4775C95.0681 45.0991 92.3474 51.2252 87.7438 55.045C80.6447 60.9369 79.2753 63.3874 76.2753 68.7477L75.7438 69.6937C73.2933 74.063 65.933 84.2342 50.6086 84.2342V84.2252Z" fill="#F1E996"/>
</g>
<g opacity="0.15">
<path d="M50.608 83.9549C49.1395 83.9549 47.617 83.8558 46.0945 83.6666C28.7341 81.4955 28.2746 74.4594 29.5539 63.9639C30.9053 52.8919 45.1755 44.6396 54.9503 42.9459C57.4999 42.5045 59.7611 42.1531 61.7521 41.8468C68.1305 40.8558 72.3467 40.1982 75.8872 38.1441C79.8152 35.8648 83.599 34.6126 86.5359 34.6126C87.4818 34.6126 88.3377 34.7387 89.0945 35C91.7701 35.9099 93.4368 37.8198 93.9323 40.5225C94.7611 45.054 92.0854 51.072 87.5539 54.8288C80.4098 60.7477 79.0404 63.2162 76.0224 68.6036L75.4909 69.5495C73.0674 73.8828 65.7791 83.9549 50.5899 83.9549H50.608Z" fill="#F1E996"/>
</g>
<g opacity="0.15">
<path d="M50.6082 83.6756C49.1488 83.6756 47.6443 83.5765 46.1217 83.3873C29.0136 81.2522 28.5632 74.3153 29.8244 63.9909C31.1578 53.054 45.3019 44.8919 54.9956 43.2072C57.5452 42.7657 59.8064 42.4144 61.7974 42.1081C68.2118 41.1171 72.4461 40.4594 76.0316 38.3783C79.9145 36.1261 83.6533 34.8828 86.5452 34.8828C87.4551 34.8828 88.2929 35.009 89.0136 35.2522C91.5902 36.1351 93.1938 37.9639 93.6713 40.5585C94.4911 45 91.8425 50.9099 87.383 54.6036C80.2028 60.5585 78.8154 63.036 75.7884 68.4594L75.2569 69.4054C72.8515 73.6937 65.6352 83.6666 50.5992 83.6666L50.6082 83.6756Z" fill="#F1E996"/>
</g>
<g opacity="0.15">
<path d="M50.6085 83.4054C49.1671 83.4054 47.6716 83.3063 46.1581 83.1171C29.3022 81.009 28.8518 74.1892 30.095 64.027C31.4193 53.2252 45.4284 45.1531 55.041 43.4775C57.5725 43.036 59.8247 42.6847 61.8157 42.3784C68.2842 41.3784 72.5365 40.7117 76.1671 38.6126C80.0139 36.3874 83.6986 35.1531 86.5455 35.1531C87.4283 35.1531 88.2301 35.2703 88.9238 35.5135C91.4013 36.3603 92.9509 38.1261 93.4013 40.6126C94.2031 44.9639 91.5995 50.7657 87.2121 54.3964C79.9959 60.3874 78.5995 62.8739 75.5545 68.3333L75.0229 69.2793C72.6446 73.5225 65.5004 83.4054 50.5995 83.4054H50.6085Z" fill="#F1E996"/>
</g>
<g opacity="0.15">
<path d="M50.6083 83.1351C49.1759 83.1351 47.6894 83.036 46.1939 82.8558C29.5903 80.7838 29.1489 74.072 30.3651 64.072C31.6714 53.3964 45.5633 45.4144 55.0858 43.7567C57.5993 43.3153 59.8426 42.9729 61.8155 42.6666C68.3381 41.6576 72.6264 40.991 76.302 38.8558C80.1038 36.6486 83.7435 35.4324 86.5453 35.4324C87.4011 35.4324 88.1669 35.5495 88.8426 35.7747C91.221 36.5856 92.7074 38.2792 93.1399 40.6666C93.9236 44.9279 91.3561 50.6126 87.0408 54.1982C79.7795 60.2162 78.3831 62.7207 75.32 68.2072L74.7885 69.1531C72.4282 73.3603 65.3561 83.1351 50.6083 83.1351Z" fill="#F1E996"/>
</g>
<g opacity="0.15">
<path d="M50.6079 82.8558C49.1845 82.8558 47.716 82.7657 46.2295 82.5765C29.8782 80.5315 29.4367 73.9279 30.6439 64.0901C31.9322 53.5495 45.698 45.6576 55.1394 44.018C57.6529 43.5765 59.8872 43.2342 61.8601 42.9279C68.4097 41.9099 72.725 41.2432 76.4457 39.081C80.2025 36.9009 83.7971 35.7027 86.5538 35.7027C87.3827 35.7027 88.1214 35.8108 88.761 36.027C91.0403 36.8018 92.4637 38.4234 92.8782 40.7117C93.6439 44.8828 91.1214 50.4594 86.8782 53.9819C79.5809 60.036 78.1755 62.5495 75.0944 68.063L74.5629 69.009C72.2295 73.1711 65.2295 82.8558 50.6169 82.8558H50.6079Z" fill="#F1E996"/>
</g>
<g opacity="0.15">
<path d="M50.6087 82.5856C49.2033 82.5856 47.7348 82.4955 46.2663 82.3063C30.1672 80.2973 29.7348 73.8018 30.915 64.1261C32.1853 53.7117 45.8339 45.9099 55.1853 44.2883C57.6807 43.8558 59.897 43.5135 61.8609 43.2072C68.4735 42.1802 72.8159 41.5045 76.5816 39.3243C80.3024 37.1621 83.8429 35.982 86.5456 35.982C87.3384 35.982 88.0501 36.0901 88.6627 36.2973C90.8429 37.036 92.2033 38.5856 92.5997 40.7748C93.3474 44.8558 90.8609 50.3243 86.6898 53.7838C79.3564 59.8648 77.942 62.3964 74.8429 67.9459L74.3114 68.8919C72.0051 73.009 65.0681 82.5946 50.6087 82.5946V82.5856Z" fill="#F1E996"/>
</g>
<g opacity="0.15">
<path d="M50.6087 82.3153C49.2123 82.3153 47.7619 82.2252 46.2934 82.036C30.4465 80.054 30.0231 73.6757 31.1763 64.1621C32.4285 53.8829 45.9511 46.1711 55.2303 44.5585C57.7348 44.1261 59.9511 43.7747 61.897 43.4774C68.5276 42.4504 72.906 41.7657 76.7078 39.5585C80.3835 37.4234 83.879 36.2522 86.5366 36.2522C87.3024 36.2522 87.9871 36.3513 88.5637 36.5495C90.6447 37.2612 91.942 38.7297 92.3204 40.8108C93.0502 44.7928 90.6087 50.1621 86.5096 53.5585C79.1312 59.6756 77.7168 62.2162 74.5997 67.7928L74.0682 68.7387C71.7799 72.8198 64.924 82.3063 50.5997 82.3063L50.6087 82.3153Z" fill="#F1E996"/>
</g>
<g opacity="0.15">
<path d="M50.6083 82.036C49.2209 82.036 47.7794 81.9459 46.329 81.7657C30.7344 79.8198 30.311 73.5405 31.4551 64.1982C32.6984 54.045 46.0857 46.4324 55.2839 44.8288C57.7884 44.3964 59.9956 44.045 61.9506 43.7477C68.6083 42.7117 73.0047 42.036 76.8605 39.8018C80.5001 37.6937 83.9416 36.5315 86.5542 36.5315C87.2929 36.5315 87.9416 36.6306 88.4911 36.8198C90.4731 37.4955 91.7074 38.9009 92.0677 40.8738C92.7884 44.7657 90.383 50.018 86.347 53.3603C78.9326 59.5135 77.5001 62.072 74.374 67.6756L73.8425 68.6216C71.5812 72.6576 64.7884 82.045 50.6173 82.045L50.6083 82.036Z" fill="#F1E996"/>
</g>
<g opacity="0.15">
<path d="M50.6081 81.7657C49.2297 81.7657 47.8063 81.6756 46.3648 81.4955C31.0225 79.5765 30.6081 73.4144 31.7252 64.2252C32.9504 54.2072 46.2207 46.6756 55.3288 45.0901C57.8423 44.6486 60.0495 44.3063 61.9865 44.009C68.6801 42.9729 73.0946 42.2883 76.9955 40.027C80.5901 37.9369 83.9865 36.7928 86.554 36.7928C87.2567 36.7928 87.8783 36.8828 88.4099 37.063C90.2928 37.7027 91.4639 39.036 91.8063 40.9099C92.509 44.7117 90.1396 49.8558 86.1847 53.1441C78.7342 59.3243 77.2928 61.9009 74.1486 67.5315L73.6171 68.4774C71.3829 72.4684 64.6531 81.7567 50.6261 81.7567L50.6081 81.7657Z" fill="#F1E996"/>
</g>
<g opacity="0.15">
<path d="M50.6084 81.4955C49.239 81.4955 47.8246 81.4054 46.4012 81.2252C31.3111 79.3423 30.8967 73.2883 31.9958 64.2612C33.203 54.3693 46.3471 46.9369 55.3742 45.3693C57.8697 44.9369 60.0588 44.5946 61.9958 44.2973C68.7525 43.2522 73.194 42.5585 77.1309 40.2793C80.6895 38.2162 84.0318 37.0811 86.5453 37.0811C87.221 37.0811 87.8156 37.1711 88.3111 37.3333C90.0949 37.9459 91.203 39.1982 91.5273 40.9729C92.212 44.6847 89.8877 49.7207 85.9958 52.9459C78.5003 59.1621 77.0588 61.7477 73.8877 67.4144L73.3561 68.3603C71.1399 72.3153 64.4913 81.5045 50.6084 81.5045V81.4955Z" fill="#F1E996"/>
</g>
<g style="mix-blend-mode:multiply">
<path d="M58.6172 70.6937C65.1757 68.1621 71.1847 61.6756 70.9145 57.0991C70.6442 52.5225 65.2478 47.6036 57.0496 48.9729L47.8244 56.8468C45.6532 61.9819 44.0586 66.5495 44.41 68.2342C45.3649 72.8829 52.0586 73.2162 58.6172 70.6937Z" fill="#EDEDED"/>
</g>
<path d="M61.6353 48.6937C69.2209 49.6216 71.3651 60.063 63.6714 65.9189C55.9777 71.7838 45.8966 73.7928 41.9687 68.4865C38.0407 63.1712 43.284 46.4504 61.6353 48.6937Z" fill="#986C43"/>
<g style="mix-blend-mode:multiply">
<path d="M89.2837 34.4774C86.9954 33.6937 84.0945 34.081 81.1486 35.0991C87.9954 39.3153 85.0765 49.1531 79.1125 57.7387C72.8513 66.7657 48.518 89.5765 30.0225 76.6036C32.0675 80.4414 36.6621 83.027 46.0315 84.1982C63.518 86.3874 72.6261 75.8198 75.9954 69.8108C79.3648 63.8018 80.4549 61.4324 87.9234 55.2432C95.3918 49.054 97.7342 37.3603 89.2927 34.4774H89.2837Z" fill="#FAFAFA"/>
</g>
<g style="mix-blend-mode:multiply">
<path d="M89.2835 34.4775C85.5808 33.2162 80.2745 34.991 75.7519 37.5946C82.8601 38.9189 87.3736 41.072 86.3465 47.9369C85.1213 56.1441 68.9952 75 47.4186 75.4054C31.2745 75.7117 28.0492 64.018 34.3646 53.4144C31.4997 56.4955 29.4817 60.045 29.0132 63.8919C27.6709 74.9099 28.5357 82.018 46.0222 84.1982C63.5087 86.3874 72.6168 75.8198 75.9862 69.8108C79.3555 63.8018 80.4456 61.4324 87.9141 55.2432C95.3826 49.054 97.7249 37.3603 89.2835 34.4775Z" fill="#FAFAFA"/>
</g>
<g style="mix-blend-mode:multiply">
<path d="M61.6351 48.6937C60.509 48.5585 59.4369 48.4955 58.4099 48.4865C66.6351 53.054 63.4279 62.081 56.4369 66.027C50.1036 69.6036 40.4099 65.6216 42.0945 58.1621C40.2927 62.1261 40.3378 66.2882 41.9684 68.4864C45.8963 73.8018 55.9774 71.7837 63.6711 65.9189C71.3738 60.054 69.2207 49.6216 61.6351 48.6937Z" fill="#EDEDED"/>
</g>
<g style="mix-blend-mode:multiply">
<path d="M65.41 50.2162C67.6532 55.5856 58.3649 65.8108 50.8784 64.3874C44.446 63.1711 41.7883 60.2522 43.0856 56.3153C40.3109 60.7657 40.0766 65.9369 41.9685 68.4865C45.8964 73.8018 55.9775 71.7838 63.6712 65.9189C69.8694 61.1982 69.6802 53.5135 65.419 50.2162H65.41Z" fill="#EDEDED"/>
</g>
<g style="mix-blend-mode:screen">
<path d="M79.5628 36.9819C79.5628 36.9819 79.3736 37.1441 79.0042 37.4504C78.6439 37.7567 78.1033 38.1801 77.3736 38.7027C76.6349 39.1891 75.725 39.7927 74.5898 40.3153C73.4637 40.8558 72.1214 41.3513 70.6349 41.7207C69.1484 42.1081 67.5178 42.4054 65.8151 42.6846C64.1124 42.9639 62.3286 43.2702 60.4907 43.6036C60.2655 43.6486 60.0223 43.6846 59.8061 43.7297C59.5718 43.7747 59.3376 43.8198 59.1033 43.8648C58.6439 43.9639 58.2024 44.054 57.734 44.1711C56.8151 44.3873 55.8871 44.6486 54.9502 44.9099C53.0943 45.4594 51.2295 46.1081 49.4187 46.8558C47.5988 47.5945 45.8331 48.4504 44.1574 49.3964C42.4817 50.3513 40.9052 51.3873 39.4727 52.5225C38.0403 53.6576 36.752 54.8558 35.6529 56.1171C34.5538 57.3693 33.6529 58.6756 32.9232 59.9459C32.5358 60.5675 32.2745 61.2252 31.9592 61.8198C31.8331 62.1261 31.707 62.4324 31.5808 62.7207C31.5178 62.8648 31.4637 63.009 31.4006 63.1531C31.3556 63.2973 31.3015 63.4414 31.2565 63.5855C31.0673 64.1531 30.8871 64.6937 30.761 65.1982C30.6259 65.7027 30.4907 66.1711 30.4277 66.5945C30.3466 67.027 30.2745 67.4054 30.2115 67.7387C30.1664 68.072 30.1304 68.3603 30.1034 68.5945C30.0403 69.063 30.0043 69.3153 30.0043 69.3153C30.0043 69.3153 29.9952 69.063 29.9772 68.5945C29.9772 68.3603 29.9592 68.063 29.9502 67.7207C29.9502 67.3783 29.9772 66.9819 30.0043 66.5405C30.0133 66.09 30.0853 65.6036 30.1484 65.072C30.1934 64.5315 30.3286 63.9639 30.4547 63.3513C30.4907 63.1982 30.5178 63.045 30.5538 62.8828C30.5988 62.7297 30.6439 62.5675 30.6889 62.4144C30.779 62.09 30.8781 61.7657 30.9772 61.4234C31.2295 60.7657 31.4637 60.063 31.8061 59.3603C32.4457 57.9459 33.2835 56.4684 34.3826 55.072C35.4637 53.6576 36.761 52.2792 38.2385 51.018C39.707 49.7567 41.3466 48.5855 43.0943 47.5585C44.8331 46.5225 46.6889 45.6126 48.5808 44.8288C50.4817 44.054 52.4277 43.3964 54.3646 42.8648C55.3376 42.6036 56.3106 42.3603 57.2835 42.1711C57.761 42.063 58.2655 41.9819 58.743 41.8918C58.9772 41.8558 59.2115 41.8198 59.4457 41.7837C59.6979 41.7387 59.9232 41.7207 60.1664 41.6846C62.0493 41.4144 63.8691 41.2432 65.5808 41.063C67.2925 40.8828 68.9051 40.7297 70.3556 40.4864C71.8151 40.2432 73.1214 39.9279 74.2565 39.5315C75.3916 39.1531 76.3466 38.6936 77.1394 38.3153C77.5268 38.1081 77.8691 37.9279 78.1664 37.7657C78.4637 37.6036 78.716 37.4504 78.9232 37.3333C79.3286 37.0991 79.5538 36.9729 79.5538 36.9729L79.5628 36.9819Z" fill="#333333"/>
</g>
<g style="mix-blend-mode:screen">
<path d="M62.3293 49.6036C57.4554 48.4144 50.4194 48.7657 45.3653 54.4414C40.3113 60.1081 41.4013 67.009 42.9058 67.6216C44.4104 68.2342 40.8608 62.8378 46.5275 58.9459C52.1941 55.054 64.4194 57.9189 65.3833 56.1441C66.3383 54.3693 64.9329 50.2342 62.3383 49.6036H62.3293Z" fill="#050505"/>
</g>
<g style="mix-blend-mode:screen">
<path d="M42.9141 67.2522C42.6618 67.1441 42.2744 66.6576 42.0312 65.6036C41.5357 63.4684 41.7069 58.7207 45.4726 54.5045C49.3735 50.1261 54.2294 49.2072 57.6168 49.2072C59.1483 49.2072 60.6798 49.3874 62.1663 49.7567C63.2204 50.018 64.1753 50.9459 64.7789 52.3063C65.3735 53.6486 65.4816 55.0901 65.0402 55.9099C64.7699 56.4144 62.6438 56.4144 61.7339 56.4144C61.1483 56.4144 60.5087 56.4054 59.842 56.3964C59.0852 56.3874 58.2744 56.3693 57.4456 56.3693C53.7699 56.3693 49.1753 56.6216 46.2744 58.6126C42.3195 61.3243 42.7069 64.8108 42.887 66.4865C42.9141 66.7748 42.9591 67.1171 42.9411 67.2793C42.9411 67.2793 42.9231 67.2793 42.9141 67.2702V67.2522Z" fill="#050505"/>
</g>
<g style="mix-blend-mode:screen">
<path d="M42.3376 66.5045C42.2294 66.2793 42.1213 65.982 42.0222 65.5675C41.5358 63.4775 41.7069 58.8468 45.4006 54.7117C49.2385 50.4144 54.0132 49.5045 57.3466 49.5045C58.8601 49.5045 60.3646 49.6847 61.833 50.045C62.806 50.2793 63.6889 51.1531 64.2565 52.4324C64.815 53.6757 64.9231 55.063 64.5267 55.7928C64.4637 55.9009 64.0403 56.1621 61.4637 56.1621C60.8781 56.1621 60.2475 56.1531 59.5718 56.1441C58.806 56.1351 57.9952 56.1171 57.1664 56.1171C53.4457 56.1171 48.806 56.3784 45.8421 58.4054C41.77 61.1982 42.1484 64.7748 42.3376 66.5045Z" fill="#050505"/>
</g>
<g style="mix-blend-mode:screen">
<path d="M42.1037 63.009C42.1758 60.7027 42.9956 57.5405 45.5992 54.6126C49.365 50.3873 54.0677 49.4955 57.338 49.4955C58.8245 49.4955 60.3109 49.6756 61.7524 50.027C62.6443 50.2432 63.4551 51.063 63.9956 52.2612C64.5091 53.4144 64.6263 54.7297 64.2749 55.3783C64.2479 55.3783 63.8335 55.6036 61.4551 55.6036C60.8695 55.6036 60.2389 55.5946 59.5632 55.5855C58.7704 55.5765 57.9776 55.5585 57.1578 55.5585C53.401 55.5585 48.6983 55.8288 45.6803 57.9009C43.329 59.5135 42.4191 61.3693 42.0947 63.009H42.1037Z" fill="#050505"/>
</g>
<g style="mix-blend-mode:screen">
<path d="M42.5449 60.3513C42.9503 58.6666 43.8242 56.5675 45.644 54.5225C49.3467 50.3694 53.9593 49.5045 57.1846 49.5045C58.653 49.5045 60.1125 49.6847 61.5359 50.027C62.3377 50.2252 63.0855 50.982 63.59 52.1081C64.0404 53.1171 64.1756 54.2793 63.9233 54.8919C63.662 54.9639 62.9774 55.0721 61.2927 55.0721C60.7161 55.0721 60.0765 55.063 59.4098 55.054C58.617 55.045 57.8152 55.027 56.9954 55.027C53.2026 55.027 48.4458 55.2973 45.3647 57.4144C44.1305 58.2612 43.1846 59.2522 42.5449 60.3603V60.3513Z" fill="#050505"/>
</g>
</g>
<defs>
<clipPath id="clip0_179_145839">
<rect width="95.955" height="92" fill="white" transform="translate(0.770508)"/>
</clipPath>
</defs>
</svg>
