<svg width="90" height="62" viewBox="0 0 90 62" fill="none" xmlns="http://www.w3.org/2000/svg">
<path d="M89.4814 24.0641C89.7568 24.4813 89.562 25.033 89.4075 25.4905C89.2126 26.0758 88.9573 26.6342 88.5475 27.1186C88.2989 27.4079 88.131 27.7578 87.9294 28.0874C87.5868 28.6593 87.2038 29.1976 86.6462 29.5811C86.4043 29.7492 86.3439 29.9713 86.3304 30.2337C86.2968 30.9199 86.2297 31.5994 85.9811 32.2453C85.8198 32.6759 85.6586 33.0998 85.5444 33.5438C85.4638 33.8533 85.2488 34.183 84.8322 34.1695C84.5971 34.1628 84.55 34.3377 84.4762 34.479C83.8177 35.7506 82.7764 36.7127 81.8022 37.7219C81.1169 38.435 80.257 38.9598 79.3432 39.3097C77.9928 39.8277 76.6559 40.4063 75.2316 40.7158C74.9427 40.7764 74.6471 40.8436 74.3515 40.884C74.1432 40.9177 74.0625 41.0118 74.0693 41.2271C74.0827 41.5703 74.0626 41.9134 74.0827 42.2498C74.1029 42.5862 74.0155 42.8688 73.8073 43.1379C73.5855 43.4272 73.4109 43.7098 72.9607 43.6425C72.739 43.6088 72.5307 43.7905 72.3426 43.9385C71.7514 44.4229 71.1266 44.8804 70.5488 45.385C69.1648 46.596 67.5457 47.3899 65.9064 48.1704C64.3141 48.9306 62.7487 49.7649 61.0556 50.3032C60.8742 50.3637 60.6996 50.4512 60.5115 50.4848C59.3895 50.7068 58.3884 51.2383 57.3605 51.6958C56.3863 52.1264 55.439 52.6176 54.4649 53.0414C53.0002 53.6806 51.4886 54.1986 49.9097 54.5216C48.8012 54.7436 47.6994 54.9925 46.6043 55.2617C45.0322 55.6451 43.4332 55.6451 41.8342 55.5577C41.4714 55.5375 41.1086 55.5173 40.7458 55.4904C40.4636 55.4702 40.2957 55.5577 40.3024 55.8806C40.3091 56.069 40.2217 56.2978 40.2956 56.4525C40.5375 56.9638 40.1546 57.28 39.9933 57.6635C39.9597 57.751 39.8926 57.7914 39.8186 57.8317C38.616 58.4238 37.3798 58.9149 36.0832 59.285C34.941 59.6146 33.7922 59.9578 32.7038 60.4624C32.0252 60.7718 31.2862 60.94 30.5405 60.9871C28.0614 61.1352 25.5957 61.0342 23.1435 60.6911C21.5781 60.4691 20.147 59.8636 18.763 59.1437C16.2436 57.8385 13.7779 56.4458 11.3862 54.9185C11.2451 54.8243 11.0973 54.7301 10.9629 54.6292C9.82751 53.768 8.6652 52.927 7.55666 52.0255C6.83107 51.4334 6.19953 50.7337 5.6419 49.9735C4.64085 48.6077 3.82121 47.1343 2.98141 45.681C2.47752 44.8131 2.15503 43.851 1.86614 42.8889C1.43616 41.4626 1.03305 40.0228 0.724002 38.5561C0.42839 37.2375 0.341057 35.8784 0.394805 34.6876C0.435115 32.9518 0.38808 31.3707 0.824778 29.8636C1.49662 27.5492 2.2558 25.255 3.52559 23.1828C4.0765 22.2745 4.70132 21.3931 5.39332 20.5858C6.68326 19.0922 8.1143 17.76 10.0223 17.0536C11.5541 16.4885 12.9381 15.6407 14.2818 14.7257C15.0612 14.1942 15.7263 13.5416 16.1966 12.6939C16.4586 12.2229 16.5863 11.7385 16.4317 11.2205C16.3108 10.8168 16.4452 10.5208 16.6736 10.218C16.7542 10.1171 16.8214 10.0027 16.9155 9.92197C18.6488 8.28708 19.9052 6.31579 20.9532 4.20321C21.3362 3.4295 21.7998 2.72306 22.4447 2.14446C22.606 2.00317 22.7672 1.86188 22.9285 1.72732C23.3652 1.36401 23.8489 1.16218 24.4334 1.0949C25.1523 1.01416 25.8712 0.960339 26.5967 0.946883C27.0267 0.940156 27.3626 1.08144 27.5306 1.47166C27.6515 1.74751 27.7859 1.95608 28.0748 2.12428C28.357 2.28575 28.5384 2.61542 28.7534 2.87781C29.5125 3.80626 30.2046 4.77509 30.5808 5.9323C30.695 6.28215 30.7622 6.632 30.7353 7.00204C30.7084 7.38553 30.5808 7.72193 30.2247 7.91032C29.9224 8.07179 29.7947 8.30054 29.8283 8.63693C29.9963 10.4669 30.1642 12.3171 31.1048 13.9453C32.0387 15.5735 33.2346 16.9661 34.9075 17.9013C35.5591 18.2646 36.1974 18.6414 36.8827 18.9509C37.8233 19.3747 38.5354 20.1485 39.4155 20.68C39.6372 20.8145 39.8388 20.9558 40.0807 21.05C40.9742 21.4066 41.7401 22.0121 42.6202 22.4023C44.0244 23.0213 45.4084 23.6806 46.8125 24.2996C47.6927 24.6898 48.5996 24.9859 49.5537 25.1541C51.0855 25.4299 52.6106 25.7125 54.1356 26.0287C55.8488 26.3853 57.5553 26.3516 59.282 26.096C61.0758 25.8336 62.8159 25.2953 64.603 24.9993C66.5849 24.6696 68.5467 24.2727 70.4615 23.6806C72.3695 23.0886 74.3447 22.9069 76.2931 22.5571C77.4688 22.3485 78.6109 21.9785 79.8068 21.8708C80.9355 21.7699 82.0306 21.5546 83.1325 21.3057C84.4627 21.0029 85.8266 20.8953 87.1971 21.1038C87.3248 21.124 87.4524 21.1106 87.5801 21.1173C88.0772 21.1375 88.2721 21.4066 88.5677 21.8372C89.0447 22.5234 89.0245 23.3711 89.4814 24.0641ZM88.8902 25.9951C88.2049 25.6385 88.1914 25.6116 88.1175 24.8849C88.0907 24.5889 88.0369 24.2929 88.0168 23.9968C87.9899 23.7075 87.916 23.4586 87.6271 23.3106C87.4726 23.2299 87.3046 23.0684 87.3651 22.9069C87.4995 22.5302 87.2374 22.2678 87.1702 21.9583C87.0695 21.4873 86.7738 21.4671 86.4178 21.4537C85.3025 21.42 84.1872 21.4739 83.1123 21.743C82.0978 21.9919 81.09 22.2072 80.0352 22.2812C78.7587 22.3754 77.5293 22.7791 76.2729 23.0011C74.3447 23.3375 72.3964 23.5259 70.5085 24.118C68.4123 24.7706 66.249 25.1608 64.0857 25.5443C62.4531 25.8336 60.8541 26.3045 59.2014 26.54C57.515 26.7755 55.8489 26.8091 54.176 26.466C52.7181 26.1633 51.2534 25.874 49.7821 25.6183C48.5325 25.403 47.3433 25.0195 46.2012 24.4745C44.2461 23.5326 42.2037 22.7589 40.3427 21.6152C40.1277 21.4806 39.8791 21.4066 39.6372 21.3124C38.8445 20.9895 38.0853 20.6127 37.3798 20.1148C36.8692 19.7582 36.4594 19.2738 35.8951 19.0114C34.8739 18.5472 33.987 17.8946 33.0935 17.2353C32.1462 16.5355 31.3937 15.6811 30.8831 14.6248C30.2516 13.3129 29.7813 11.9404 29.6133 10.4804C29.5461 9.88833 29.4386 9.29627 29.3715 8.70421C29.3446 8.46873 29.264 8.36109 29.0087 8.388C28.5921 8.43509 28.3906 8.5562 28.4242 8.82532C28.5384 9.82778 28.3973 10.8302 28.4846 11.8327C28.6459 13.7031 29.2035 15.4254 30.4666 16.8585C30.8898 17.3429 31.2862 17.8408 31.649 18.3723C32.2335 19.2335 32.9457 19.9534 33.8997 20.4109C34.323 20.6127 34.7395 20.828 35.1493 21.0635C36.708 21.9448 38.307 22.7387 40 23.3375C41.3236 23.8017 42.6269 24.3467 43.8766 24.9993C44.5216 25.3357 45.1934 25.5914 45.8988 25.7865C46.2885 25.8941 46.6782 26.0152 47.0611 26.1363C48.4451 26.5669 49.7955 27.085 51.2131 27.4079C52.1268 27.6165 53.0674 27.7174 53.9744 27.9462C56.1109 28.4844 58.2809 28.518 60.4577 28.4373C62.5001 28.3566 64.5492 28.2624 66.5984 28.2826C67.6263 28.296 68.6408 28.2086 69.6418 27.9529C70.1994 27.8116 70.7571 27.6636 71.3282 27.5829C73.4377 27.2666 75.5473 26.9773 77.6569 26.6813C79.1619 26.466 80.6332 26.688 82.0777 27.1186C82.5278 27.2532 82.9779 27.381 83.4281 27.5088C83.9655 27.6569 84.4829 27.852 84.9061 28.2355C85.0472 28.3633 85.1547 28.3835 85.3495 28.3027C85.7795 28.1278 86.0684 28.2893 86.2632 28.7131C86.3506 28.9015 86.2968 29.137 86.5051 29.359C87.6069 28.4238 88.0504 27.0783 88.8902 25.9951ZM87.6137 21.8103C87.6271 21.743 87.6137 21.6892 87.5465 21.6757C87.4659 21.6824 87.439 21.7363 87.4524 21.8035C87.4591 21.8641 87.486 21.9314 87.5599 21.9112C87.5868 21.9045 87.6069 21.8439 87.6137 21.8103ZM85.7527 29.1908C85.7661 29.1505 85.793 29.1168 85.7862 29.0765C85.7795 28.9755 85.7728 28.8679 85.6586 28.8208C85.6451 28.8141 85.6183 28.8275 85.6116 28.841C85.5578 28.9486 85.5981 29.0361 85.6586 29.1236C85.6855 29.1505 85.7258 29.1706 85.7527 29.1908ZM84.8793 32.8441C85.0741 31.9829 85.148 31.1218 84.98 30.2471C84.9263 29.9511 84.9128 29.6551 84.6508 29.4398C84.5232 29.3321 84.4627 29.1639 84.6508 29.0832C85.1077 28.8881 84.8255 28.6997 84.6508 28.5315C84.3552 28.2422 83.9857 28.0807 83.5893 27.9596C82.9981 27.7847 82.4002 27.6299 81.8089 27.4483C80.5055 27.0513 79.182 26.9302 77.8249 27.0513C76.5484 27.1657 75.2988 27.4281 74.029 27.5963C72.5509 27.7914 71.0728 27.9731 69.6217 28.3566C68.6072 28.6257 67.5658 28.6997 66.5177 28.6997C64.8784 28.6997 63.2257 28.6526 61.5931 28.7804C58.3481 29.0361 55.1703 28.6862 52.0126 27.9933C50.3061 27.6165 48.6467 27.0715 46.9805 26.5333C45.5763 26.0825 44.1722 25.6721 42.8822 24.9388C42.7143 24.8446 42.5262 24.7975 42.3515 24.7167C40.8869 24.0776 39.3819 23.5326 37.9039 22.9204C36.4057 22.3014 35.0687 21.3595 33.6175 20.6329C32.7038 20.1754 31.9782 19.4891 31.4273 18.6279C31.0443 18.0359 30.6144 17.4775 30.1374 16.9594C29.835 16.6297 29.5058 16.3001 29.3311 15.8897C28.7332 14.4768 28.1285 13.0505 28.1823 11.4627C28.2092 10.6688 28.1353 9.8816 28.0815 9.09443C28.0479 8.58311 28.0076 8.5562 27.4903 8.69076C27.2216 8.75804 26.9595 8.86568 26.6908 8.91951C26.3616 8.99352 26.2138 9.16171 26.1466 9.51157C25.7704 11.5232 25.6293 13.5416 25.5957 15.5735C25.5285 17.6188 25.851 19.617 26.2272 21.6084C26.3347 22.1803 26.5161 22.732 26.8588 23.203C27.3626 23.8959 27.7859 24.636 28.2428 25.3559C28.7802 26.2036 29.1901 27.1253 29.788 27.9327C30.527 28.9284 31.3198 29.8569 32.3141 30.6306C33.6511 31.6734 35.1493 32.4404 36.5736 33.342C37.9106 34.1897 39.3416 34.849 40.8264 35.4075C41.2833 35.5824 41.7536 35.7102 42.2373 35.7977C43.5004 36.0399 44.7768 36.1004 46.0534 36.1677C49.4596 36.3426 52.8726 36.2821 56.2788 36.5041C60.3166 36.7665 64.3746 36.8001 68.3787 37.5066C68.5467 37.5335 68.7147 37.5469 68.8894 37.5537C69.5545 37.5739 70.2062 37.6815 70.8511 37.8295C71.6506 38.0112 72.4098 38.287 72.9876 38.906C73.1354 39.0675 73.2698 39.0406 73.4445 38.9733C73.7669 38.8522 73.9215 39.0136 73.9954 39.3097C74.0693 39.6057 74.0558 39.9017 74.0693 40.1978C74.076 40.3862 74.1633 40.4736 74.3515 40.44C74.4993 40.4131 74.6471 40.3929 74.7949 40.3592C77.5494 39.7941 79.9882 38.6167 82.0239 36.6454C82.2053 36.4705 82.4136 36.309 82.6151 36.1543C82.7831 36.0197 82.9443 35.8784 83.0653 35.7035C83.5893 34.923 84.1134 34.1426 84.6307 33.3622C84.7382 33.2007 84.8322 33.0392 84.8793 32.8441ZM73.6326 39.673C73.6527 39.5788 73.6594 39.4779 73.5519 39.4173C73.4713 39.4039 73.431 39.451 73.4176 39.5115C73.3974 39.599 73.4243 39.673 73.4982 39.7201C73.5587 39.7605 73.6124 39.747 73.6326 39.673ZM73.169 41.4424C73.3101 41.4424 73.384 41.3482 73.3907 41.2002C73.384 41.0791 73.2966 41.032 73.1959 40.9984C73.0548 41.0051 73.0413 41.1128 73.0481 41.2137C73.0481 41.3079 73.0145 41.4424 73.169 41.4424ZM72.6786 40.4669C72.7659 40.2852 72.8196 40.1507 72.7054 40.0161C72.5778 40.1507 72.5912 40.2852 72.6786 40.4669ZM72.4232 39.3568C72.4837 39.0204 72.3762 38.8925 72.1478 38.7445C71.7245 38.4754 71.261 38.3341 70.784 38.2197C70.0584 38.0381 69.3059 38.0179 68.5669 37.9103C66.8805 37.6681 65.1875 37.4528 63.4944 37.2778C62.265 37.1567 61.0288 37.1836 59.7993 37.1231C55.9026 36.9347 52.0059 36.7194 48.1092 36.679C47.0678 36.6656 46.0198 36.679 44.9784 36.5647C44.0042 36.457 43.0301 36.3696 42.0559 36.2686C41.6326 36.2215 41.2161 36.1206 40.8331 35.9255C39.6776 35.3402 38.4481 34.9096 37.2992 34.2772C35.6331 33.3622 33.9534 32.4808 32.4888 31.2563C32.341 31.1352 32.1663 31.0477 32.0185 30.9199C30.8025 29.8838 29.6133 28.8141 28.7668 27.4281C28.3099 26.6813 27.8665 25.9278 27.4097 25.181C26.7916 24.1785 26.2339 23.1491 25.9316 22.0054C25.2463 19.4017 25.0582 16.7508 25.2463 14.0664C25.3337 12.4651 25.5016 10.8773 25.7636 9.20881C25.1052 9.24918 24.5543 9.39047 23.9967 9.5183C23.3585 9.66631 22.9956 10.0162 22.9419 10.6957C22.915 10.9917 22.821 11.281 22.7403 11.5703C22.653 11.9067 22.5186 12.2364 22.2566 12.4584C21.7057 12.9294 21.1548 13.4003 20.5569 13.7973C20.3083 13.9655 20.2008 14.1068 20.1873 14.3893C20.1336 15.2236 19.8044 15.9637 19.3475 16.6432C19.146 16.946 18.9511 17.2487 18.763 17.5582C17.9971 18.8231 17.4059 20.1686 16.7408 21.4806C15.9346 23.0751 15.3702 24.7437 15.0007 26.4862C14.7521 27.6569 14.7723 28.8679 14.6446 30.052C14.4229 32.0502 14.7454 33.9744 15.5382 35.8111C16.2906 37.547 17.3186 39.1347 18.6018 40.514C19.7171 41.7116 20.8861 42.862 22.2163 43.851C24.299 45.3985 26.4825 46.7441 28.8138 47.8744C30.218 48.5539 31.7028 49.0518 33.0465 49.8457C33.893 50.3503 34.7328 50.5992 35.7137 50.431C36.2377 50.3435 36.7819 50.3839 37.3127 50.4444C38.3473 50.5588 39.3954 50.6328 40.4233 50.8212C42.9696 51.2922 45.5293 51.5007 48.1159 51.5747C50.0576 51.6286 51.9925 51.5478 53.9274 51.4805C55.2979 51.4402 56.6215 51.0836 57.9517 50.7943C61.452 50.034 64.603 48.4328 67.7472 46.8046C69.1447 46.0847 70.3137 45.0621 71.5297 44.0865C71.953 43.7434 72.3897 43.4474 72.1344 42.8015C72.262 41.6577 72.215 40.4938 72.4232 39.3568ZM55.3181 52.1802C55.6876 52.0995 56.0168 51.8977 56.4401 51.5815C54.8478 51.8438 53.3899 51.9448 51.932 51.9784C48.734 52.0591 45.5428 52.0793 42.3784 51.5411C40.8869 51.2854 39.3752 51.2047 37.8837 50.9625C37.0574 50.8279 36.1974 50.9356 35.3509 50.9356C35.9555 51.3325 36.5064 51.8237 37.185 51.9919C37.9039 52.1735 38.6228 52.3888 39.3484 52.5301C39.6104 52.5839 39.7649 52.7118 39.8657 52.9405C40.0807 53.4317 40.2218 53.943 40.2553 54.4812C40.2889 55.0127 40.3158 55.0262 40.8533 55.1002C42.2104 55.2953 43.5742 55.302 44.9314 55.1607C46.8864 54.9522 48.7609 54.3534 50.6756 53.9564C51.1728 53.8488 51.6364 53.6268 52.1201 53.4518C53.2018 53.0616 54.1827 52.4292 55.3181 52.1802ZM38.999 54.2054C39.3416 53.2971 39.0796 52.8934 38.1525 52.6916C37.4403 52.5368 36.7416 52.3619 36.0899 52.0188C33.1472 50.4713 30.0971 49.1459 27.188 47.5312C24.4334 46.004 21.8401 44.2682 19.5692 42.0749C19.5222 42.0278 19.4819 41.9807 19.4282 41.9403C18.6152 41.3012 17.9837 40.4938 17.4059 39.6461C17.1036 39.2088 16.808 38.7647 16.4519 38.3678C16.0286 37.8901 15.6255 37.3653 15.3904 36.7732C14.8663 35.4411 14.4431 34.0821 14.2684 32.649C14.0937 31.2361 14.2415 29.8367 14.3356 28.4306C14.4028 27.3877 14.5909 26.3584 14.8663 25.3424C15.3165 23.6672 15.9614 22.0727 16.7542 20.5252C17.6142 18.8567 18.3599 17.1343 19.4147 15.5667C19.6767 15.1698 19.7977 14.7123 19.8514 14.2413C19.8783 14.0058 19.838 13.8107 19.5827 13.73C18.7429 13.4609 18.0442 12.9092 17.2648 12.519C16.9894 12.3777 16.8012 12.3373 16.6669 12.667C16.6131 12.8015 16.5258 12.9294 16.4385 13.0505C15.7397 13.9924 15.0007 14.8939 13.9795 15.5264C12.7836 16.2732 11.5071 16.8652 10.3314 17.6389C10.103 17.7937 9.84766 17.9148 9.58564 18.009C8.14789 18.527 6.95872 19.4218 5.96439 20.5521C5.03053 21.6084 4.25791 22.7925 3.53904 24.0036C2.82017 25.2079 2.43721 26.5467 2.13488 27.9058C1.64443 30.0789 1.3421 32.2722 1.28164 34.4992C1.25476 35.246 1.24133 35.9928 1.31523 36.7396C1.49663 38.6772 1.83255 40.588 2.20206 42.492C2.30955 43.0639 2.50439 43.6021 2.73954 44.1336C3.33748 45.4792 4.04964 46.771 4.77523 48.0493C4.9835 48.4193 5.21193 48.7894 5.52098 49.0854C6.5489 50.0811 7.39541 51.2451 8.49724 52.1668C8.98769 52.5772 9.49158 52.9741 9.96859 53.3913C10.4322 53.8017 10.9562 54.1314 11.4735 54.4745C12.8642 55.3895 14.396 56.0421 15.8136 56.9235C17.5336 57.9865 19.3811 58.8342 21.2959 59.507C23.6541 60.3345 26.066 60.792 28.5787 60.5296C29.1296 60.4691 29.6805 60.4153 30.2314 60.3816C30.9839 60.3413 31.7028 60.1394 32.4082 59.9107C34.3297 59.2782 36.2377 58.6189 38.1592 57.973C39.1468 57.6433 39.2946 57.5021 38.9452 56.54C38.6496 55.7192 38.6967 54.9993 38.999 54.2054ZM30.4195 7.15006C30.5002 7.10296 30.4934 7.02222 30.4867 6.94149C30.48 6.88766 30.4397 6.86748 30.4128 6.91458C30.386 6.96167 30.3658 7.02222 30.3523 7.07605C30.3523 7.12314 30.3725 7.15006 30.4195 7.15006ZM30.0164 7.33844C30.0567 6.87421 30.1911 6.40998 30.1441 5.93903C30.0971 5.44789 29.8552 5.07112 29.4588 4.84237C29.7544 5.32005 29.3983 5.84483 29.573 6.33597C29.5865 6.36961 29.5125 6.46381 29.4655 6.47726C29.1363 6.54454 29.1766 6.72619 29.2438 6.98858C29.3379 7.36535 29.2035 7.45282 28.834 7.31826C28.7534 7.27116 28.6862 7.21734 28.5854 7.16351C28.4913 7.29135 28.5384 7.37208 28.5384 7.45954C28.5384 7.84303 28.5316 7.82285 28.1487 7.76903C27.7187 7.70175 27.2887 7.67484 26.9327 7.39226C26.8117 7.58737 26.9259 7.72866 26.9192 7.86995C26.9192 8.2198 27.0872 8.30726 27.4097 8.24671C27.8262 8.17271 28.2562 8.13234 28.6727 8.06506C29.049 8.00451 29.4252 7.90359 29.7477 7.67484C29.8753 7.58737 30.003 7.49991 30.0164 7.33844ZM29.0422 5.79774C29.1565 5.58244 29.049 5.4277 29.0019 5.27296C28.881 4.88274 28.6862 4.5127 28.6459 4.11575C28.5854 3.55733 28.189 3.2142 27.9606 2.77016C27.8934 2.64233 27.7792 2.59523 27.6381 2.68269C26.973 3.07964 26.3347 3.49005 26.2474 4.37814C26.2205 4.60689 26.1936 4.84237 26.1466 5.07112C26.1063 5.27968 26.0458 5.48825 25.9719 5.69009C25.7905 6.20814 25.8644 6.59836 26.3146 6.90785C26.3146 6.91458 26.3146 6.92131 26.3213 6.92804C26.328 6.94149 26.3347 6.95494 26.3347 6.97513C26.3482 7.21061 26.375 7.43263 26.5699 7.61428C26.496 7.39899 26.4221 7.18369 26.3347 6.97513C26.3347 6.96167 26.3347 6.94149 26.3347 6.92131C26.328 6.91458 26.3213 6.91458 26.3213 6.90785C26.3078 6.83384 26.281 6.75311 26.281 6.6791C26.2675 6.47053 25.9518 6.20814 26.2474 6.07359C26.4825 5.96594 26.5296 6.32252 26.6438 6.47726C26.8991 6.82712 27.1544 7.17024 27.6112 7.29134C27.4097 6.93476 27.1812 6.61182 26.9259 6.30233C26.7244 6.0534 26.5631 5.77755 26.4221 5.48825C26.3616 5.36715 26.2608 5.22586 26.2877 5.09803C26.3011 5.05094 26.328 5.01057 26.3885 4.9702C26.5699 4.85582 26.6706 5.08457 26.7849 5.20568C27.1275 5.56226 27.3761 5.98612 27.6448 6.39653C27.7254 6.51763 27.7322 6.71274 27.9606 6.71947C27.7053 6.02649 27.282 5.43443 26.9461 4.79527C26.8588 4.62707 26.7647 4.45887 26.6908 4.28395C26.6505 4.18976 26.6371 4.06192 26.7445 3.99465C26.8722 3.90718 26.9931 3.96773 27.0737 4.08211C27.1678 4.2234 27.2551 4.37141 27.329 4.52616C27.5508 4.96347 27.7523 5.40752 27.9807 5.84483C28.1756 6.21487 28.4107 6.55127 28.7869 6.78002C28.6123 6.13414 28.3368 5.5488 28.0345 4.9702C27.7926 4.51943 27.5508 4.06865 27.3223 3.61115C27.2619 3.49678 27.2081 3.34876 27.3559 3.27475C27.5037 3.20075 27.5911 3.33531 27.6515 3.44295C27.9068 3.91391 28.1487 4.38487 28.404 4.8491C28.5787 5.18549 28.7399 5.52862 29.0422 5.79774ZM27.1947 2.24538C27.1409 1.99644 26.9595 1.85516 26.758 1.7206C26.0929 1.26983 25.3673 1.30346 24.6753 1.55913C23.4525 2.01663 22.5254 2.8038 21.8065 3.95428C20.3956 6.22833 18.9511 8.49565 17.1708 10.5208C16.9894 10.7293 16.902 10.9648 16.9625 11.2272C17.0901 11.7856 17.3454 12.2229 17.9299 12.4786C18.5884 12.7746 19.3005 12.9294 19.932 13.2927C20.1739 13.4272 20.4762 13.3532 20.6912 13.1312C20.8995 12.9159 21.1346 12.7275 21.3832 12.5728C22.2633 12.0211 22.5388 11.2272 22.3305 10.2382C22.2969 10.0834 22.3574 9.98252 22.4649 9.90852C22.7471 9.71341 22.8814 9.4241 22.9755 9.12135C23.1703 8.5091 23.5533 8.08524 24.1042 7.72866C24.6618 7.36535 25.1657 6.86748 25.3538 6.16777C25.5621 5.36715 25.8107 4.57998 25.804 3.72553C25.7972 3.16711 26.1332 2.78361 26.6303 2.52795C26.8185 2.44049 27.0536 2.42703 27.1947 2.24538ZM25.5016 8.28035C25.7704 8.21307 25.6024 7.93723 25.5688 7.74212C25.5554 7.6412 25.5151 7.54028 25.4815 7.41918C25.253 7.43263 25.1657 7.56719 25.0582 7.65465C24.9977 7.70848 24.9306 7.78921 24.9977 7.86995C25.1456 8.03815 25.2799 8.33418 25.5016 8.28035ZM25.0313 8.71094C25.1187 8.71767 25.1926 8.69076 25.1993 8.58311C25.1724 8.49565 25.1187 8.4351 25.0313 8.42837C24.9104 8.42164 24.9171 8.52256 24.9171 8.59657C24.9171 8.66385 24.9574 8.71094 25.0313 8.71094ZM24.4401 8.69749C24.6753 8.56293 24.6484 8.34091 24.6014 8.07179C24.3729 8.20635 24.1579 8.30054 24.1915 8.57638C24.205 8.68403 24.3528 8.74458 24.4401 8.69749ZM24.0572 9.09443C24.0639 9.08771 24.0706 9.0608 24.0773 9.04734C24.0639 9.03389 24.0505 9.0137 24.0303 9.0137C23.9295 8.99352 23.8287 8.91951 23.7347 9.02715C23.6876 9.08098 23.6809 9.17517 23.7548 9.17517C23.8556 9.17517 23.9564 9.12807 24.0572 9.09443ZM1.42273 40.0767C1.47648 39.8614 1.46303 39.7066 1.3085 39.5182C1.26819 39.747 1.35555 39.8883 1.42273 40.0767ZM1.00617 33.4833C1.06664 31.9964 1.42273 30.5431 1.62428 28.9823C0.791196 30.4422 0.468698 35.865 1.07336 37.9506C0.89196 36.457 0.938989 34.9701 1.00617 33.4833Z" fill="#020202"/>
<path d="M88.0809 24.9858C88.1547 25.7135 88.1681 25.7405 88.8528 26.0976C88.0138 27.1824 87.5708 28.53 86.47 29.4666C86.2619 29.2443 86.3156 29.0084 86.2283 28.8198C86.0337 28.3953 85.745 28.2336 85.3155 28.4087C85.1208 28.4896 85.0134 28.4694 84.8725 28.3414C84.4496 27.9573 83.9327 27.7619 83.3958 27.6137C82.9461 27.4856 82.4963 27.3576 82.0466 27.2228C80.6035 26.7916 79.1335 26.5693 77.63 26.7849C75.5224 27.0813 73.4148 27.3711 71.3071 27.6878C70.7366 27.7686 70.1795 27.9169 69.6224 28.0584C68.6222 28.3144 67.6087 28.402 66.5817 28.3885C64.5345 28.3683 62.4873 28.4627 60.4468 28.5435C58.272 28.6244 56.104 28.5907 53.9695 28.0516C53.0634 27.8225 52.1237 27.7215 51.2108 27.5126C49.7945 27.1892 48.4454 26.6703 47.0627 26.2391C46.6801 26.1178 46.2908 25.9965 45.9015 25.8887C45.1967 25.6933 44.5255 25.4373 43.8811 25.1003C42.6326 24.4468 41.3305 23.901 40.0082 23.436C38.3167 22.8364 36.7192 22.0413 35.162 21.1586C34.7525 20.9227 34.3364 20.7071 33.9135 20.505C32.9604 20.0468 32.2489 19.3258 31.6649 18.4633C31.3025 17.931 30.9064 17.4324 30.4836 16.9473C29.2217 15.5121 28.6646 13.7871 28.5035 11.9139C28.4162 10.9099 28.5572 9.90596 28.4431 8.90199C28.4095 8.63246 28.6109 8.51118 29.027 8.46401C29.2821 8.43706 29.3626 8.54487 29.3895 8.7807C29.4566 9.37365 29.564 9.96661 29.6311 10.5596C29.7989 12.0217 30.2688 13.3963 30.8997 14.7102C31.4099 15.7681 32.1616 16.6238 33.108 17.3246C34.0008 17.9849 34.8868 18.6385 35.907 19.1035C36.4708 19.3662 36.8803 19.8514 37.3904 20.2085C38.0952 20.7071 38.8537 21.0844 39.6457 21.4079C39.8873 21.5022 40.1357 21.5763 40.3505 21.7111C42.2098 22.8566 44.2503 23.6314 46.2035 24.5748C47.3446 25.1206 48.5326 25.5046 49.7811 25.7203C51.2511 25.9763 52.7143 26.266 54.1709 26.5693C55.8422 26.9129 57.5069 26.8792 59.1916 26.6434C60.8428 26.4075 62.4403 25.9359 64.0714 25.6461C66.2327 25.2621 68.394 24.8713 70.4882 24.2177C72.3744 23.6247 74.3209 23.436 76.2473 23.0991C77.5025 22.8768 78.7308 22.4725 80.0061 22.3782C81.0599 22.304 82.0668 22.0884 83.0803 21.8391C84.1543 21.5696 85.2685 21.5157 86.3827 21.5494C86.7384 21.5629 87.0338 21.5831 87.1345 22.0547C87.2016 22.3647 87.4634 22.6275 87.3291 23.0048C87.2687 23.1665 87.4365 23.3282 87.5909 23.4091C87.8795 23.5573 87.9534 23.8066 87.9802 24.0964C88.0003 24.3928 88.054 24.6893 88.0809 24.9858Z" fill="#FEDD3B"/>
<path d="M84.9263 30.285C85.0943 31.1615 85.0204 32.0245 84.8256 32.8875C84.7785 33.083 84.6845 33.2448 84.577 33.4067C84.0596 34.1888 83.5355 34.9709 83.0114 35.753C82.8904 35.9283 82.7292 36.0699 82.5612 36.2047C82.3596 36.3598 82.1513 36.5216 81.9699 36.6969C79.934 38.6724 77.4949 39.8523 74.74 40.4187C74.5922 40.4524 74.4444 40.4726 74.2966 40.4996C74.1084 40.5333 74.0211 40.4457 74.0143 40.2569C74.0009 39.9602 74.0144 39.6635 73.9404 39.3669C73.8665 39.0702 73.712 38.9084 73.3895 39.0298C73.2148 39.0972 73.0804 39.1242 72.9326 38.9623C72.3547 38.342 71.5954 38.0656 70.7959 37.8836C70.1508 37.7352 69.4991 37.6274 68.8338 37.6071C68.6591 37.6004 68.4912 37.5869 68.3232 37.5599C64.3185 36.852 60.2601 36.8183 56.2219 36.5553C52.8153 36.3328 49.4019 36.3935 45.9953 36.2182C44.7186 36.1508 43.442 36.0901 42.1788 35.8474C41.695 35.7597 41.2246 35.6316 40.7677 35.4563C39.2828 34.8967 37.8516 34.236 36.5145 33.3864C35.09 32.483 33.5916 31.7143 32.2545 30.6693C31.26 29.8939 30.4672 28.9635 29.7281 27.9656C29.1301 27.1565 28.7202 26.2328 28.1827 25.3833C27.7258 24.6618 27.3024 23.9202 26.7985 23.2257C26.4558 22.7538 26.2744 22.2009 26.1669 21.6278C25.7906 19.6321 25.4681 17.6296 25.5353 15.5799C25.5689 13.5437 25.71 11.521 26.0863 9.50506C26.1535 9.15446 26.3013 8.9859 26.6305 8.91173C26.8993 8.85779 27.1613 8.74991 27.4301 8.68249C27.9475 8.54764 27.9878 8.57461 28.0214 9.08703C28.0751 9.87588 28.1491 10.6647 28.1222 11.4603C28.0684 13.0515 28.6732 14.4809 29.2712 15.8968C29.4459 16.3081 29.7751 16.6385 30.0775 16.9688C30.5545 17.488 30.9846 18.0476 31.3676 18.6409C31.9185 19.5039 32.6442 20.1917 33.558 20.6501C35.0094 21.3783 36.3465 22.3222 37.8449 22.9425C39.3231 23.5561 40.8282 24.1022 42.293 24.7427C42.4677 24.8237 42.6558 24.8709 42.8238 24.9652C44.1139 25.7002 45.5182 26.1114 46.9225 26.5632C48.5889 27.1026 50.2485 27.6487 51.9552 28.0263C55.1132 28.7207 58.2914 29.0713 61.5368 28.8151C63.1696 28.687 64.8225 28.7342 66.462 28.7342C67.5102 28.7342 68.5516 28.66 69.5662 28.3904C71.0176 28.006 72.4958 27.824 73.974 27.6285C75.244 27.4599 76.4937 27.197 77.7704 27.0823C79.1277 26.961 80.4514 27.0823 81.7549 27.4801C82.3462 27.6622 82.9442 27.8173 83.5355 27.9926C83.9319 28.1139 84.3014 28.2757 84.5971 28.5657C84.7718 28.7342 85.054 28.923 84.5971 29.1185C84.409 29.1994 84.4694 29.368 84.5971 29.4759C84.8591 29.6916 84.8726 29.9883 84.9263 30.285Z" fill="#FEDD3B"/>
<path d="M72.1545 38.7181C72.3827 38.8659 72.4901 38.9936 72.4297 39.3295C72.2217 40.4648 72.2687 41.627 72.1411 42.769C72.3962 43.4139 71.9599 43.7095 71.5371 44.0521C70.3222 45.0262 69.1544 46.0473 67.7583 46.7662C64.6172 48.3919 61.4693 49.9907 57.9724 50.7499C56.6435 51.0387 55.3213 51.3948 53.9521 51.4351C52.0191 51.5023 50.086 51.5829 48.1463 51.5291C45.5623 51.4552 43.0051 51.247 40.4613 50.7767C39.4344 50.5886 38.3873 50.5147 37.3537 50.4005C36.8235 50.3401 36.2798 50.2998 35.7563 50.3871C34.7763 50.555 33.9374 50.3065 33.0917 49.8026C31.7493 49.0099 30.266 48.5128 28.8632 47.8343C26.5342 46.7057 24.3529 45.3621 22.2722 43.817C20.9433 42.8295 19.7754 41.6807 18.6612 40.4849C17.3793 39.1078 16.3524 37.5224 15.6006 35.7892C14.8086 33.9552 14.4865 32.0339 14.708 30.0387C14.8355 28.8563 14.8154 27.6471 15.0637 26.4782C15.4328 24.7383 15.9966 23.0722 16.8021 21.4801C17.4665 20.1701 18.0572 18.8265 18.8223 17.5636C19.0103 17.2545 19.2049 16.9522 19.4062 16.6499C19.8627 15.9714 20.1915 15.2325 20.2452 14.3994C20.2586 14.1173 20.366 13.9762 20.6144 13.8083C21.2117 13.4119 21.7621 12.9417 22.3125 12.4714C22.5742 12.2497 22.7085 11.9206 22.7957 11.5847C22.8763 11.2958 22.9702 11.0069 22.9971 10.7113C23.0508 10.0328 23.4132 9.6835 24.0508 9.53571C24.6079 9.40807 25.1583 9.26699 25.816 9.22668C25.5543 10.8927 25.3865 12.4781 25.2992 14.077C25.1113 16.7574 25.2992 19.4043 25.9838 22.0041C26.2859 23.1461 26.843 24.174 27.4604 25.1749C27.9168 25.9206 28.3598 26.673 28.8162 27.4187C29.6619 28.8026 30.8499 29.8707 32.0648 30.9053C32.2124 31.0329 32.3869 31.1202 32.5346 31.2412C33.9978 32.4638 35.6757 33.3438 37.3403 34.2575C38.488 34.889 39.7163 35.3189 40.8707 35.9034C41.2533 36.0982 41.6694 36.1989 42.0922 36.246C43.0655 36.3467 44.0387 36.4341 45.0119 36.5416C46.0522 36.6558 47.0993 36.6423 48.1396 36.6558C52.0325 36.6961 55.9253 36.911 59.8182 37.0991C61.0465 37.1596 62.2814 37.1327 63.5097 37.2537C65.2011 37.4283 66.8925 37.6433 68.5771 37.8851C69.3154 37.9926 70.0672 38.0128 70.792 38.1942C71.2686 38.3084 71.7317 38.4494 72.1545 38.7181Z" fill="#FEDD3B"/>
<path d="M56.4998 51.609C56.0752 51.9202 55.7449 52.1188 55.3741 52.1982C54.2349 52.4432 53.2507 53.0655 52.1654 53.4495C51.68 53.6216 51.2149 53.8401 50.7161 53.946C48.7949 54.3366 46.9141 54.9259 44.9525 55.1311C43.5908 55.2701 42.2224 55.2635 40.8607 55.0715C40.3214 54.9987 40.2945 54.9854 40.2608 54.4624C40.2271 53.9328 40.0855 53.4296 39.8698 52.9464C39.7687 52.7213 39.6136 52.5955 39.3507 52.5425C38.6227 52.4035 37.9014 52.1916 37.1801 52.0129C36.4993 51.8474 35.9465 51.3641 35.3398 50.9735C36.1892 50.9735 37.0521 50.8675 37.8812 50.9999C39.3777 51.2383 40.8944 51.3177 42.3909 51.5693C45.5659 52.0989 48.7679 52.0791 51.9766 51.9996C53.4394 51.9665 54.9022 51.8672 56.4998 51.609Z" fill="#FEDD3B"/>
<path d="M38.1826 52.6883C39.1095 52.89 39.3715 53.2933 39.0289 54.2008C38.7266 54.9939 38.6796 55.7132 38.9752 56.5333C39.3244 57.4945 39.1767 57.6357 38.1893 57.965C36.2683 58.6104 34.3608 59.2691 32.4398 59.901C31.7345 60.1295 31.0158 60.3312 30.2636 60.3715C29.7128 60.4051 29.162 60.4589 28.6113 60.5194C26.0992 60.7815 23.6879 60.3245 21.3303 59.4977C19.416 58.8255 17.569 57.9785 15.8495 56.9164C14.4322 56.0358 12.9008 55.3838 11.5105 54.4696C10.9933 54.1268 10.4694 53.7974 10.0059 53.3874C9.52903 52.9706 9.02526 52.574 8.53494 52.164C7.4334 51.2431 6.5871 50.0802 5.55944 49.0853C5.25048 48.7896 5.0221 48.4199 4.81388 48.0502C4.08847 46.773 3.3765 45.4824 2.77871 44.138C2.54362 43.607 2.34884 43.0692 2.24137 42.4978C1.87195 40.5955 1.53612 38.6865 1.35477 36.7506C1.28088 36.0044 1.29432 35.2583 1.32118 34.5121C1.38163 32.2872 1.68388 30.0958 2.1742 27.9246C2.47646 26.5668 2.85932 25.2291 3.57801 24.0259C4.2967 22.8159 5.06911 21.6329 6.00274 20.5775C6.99682 19.4482 8.18569 18.5542 9.62307 18.0366C9.88502 17.9425 10.1402 17.8215 10.3686 17.6669C11.544 16.8939 12.8202 16.3024 14.0158 15.5562C15.0367 14.9244 15.7756 14.0236 16.4741 13.0826C16.5614 12.9616 16.6488 12.8338 16.7025 12.6994C16.8368 12.37 17.0249 12.4104 17.3003 12.5515C18.0794 12.9414 18.778 13.4926 19.6175 13.7615C19.8728 13.8421 19.9131 14.0371 19.8862 14.2723C19.8325 14.7429 19.7116 15.2 19.4496 15.5966C18.3951 17.1628 17.6496 18.8836 16.7898 20.5506C15.9972 22.0967 15.3524 23.6898 14.9024 25.3636C14.627 26.3786 14.439 27.407 14.3718 28.4489C14.2778 29.8538 14.13 31.252 14.3046 32.6636C14.4793 34.0954 14.9024 35.4532 15.4263 36.7842C15.6614 37.3757 16.0644 37.9 16.4876 38.3773C16.8435 38.7739 17.1391 39.2175 17.4413 39.6544C18.019 40.5014 18.6504 41.308 19.4631 41.9466C19.5168 41.987 19.5571 42.034 19.6041 42.0811C21.8744 44.2724 24.467 46.0067 27.2209 47.5326C30.1292 49.1458 33.1786 50.4701 36.1206 52.0161C36.7721 52.3589 37.4706 52.5337 38.1826 52.6883Z" fill="#FEDD3B"/>
<path d="M30.1166 5.86101C30.1628 6.32527 30.0307 6.78289 29.9911 7.24051C29.9779 7.39968 29.8525 7.4859 29.7271 7.57212C29.4102 7.79761 29.0405 7.89709 28.6709 7.95678C28.2616 8.02311 27.8391 8.0629 27.4298 8.13585C27.1129 8.19554 26.9479 8.10933 26.9479 7.76445C26.9545 7.62518 26.8423 7.4859 26.9611 7.29356C27.311 7.57212 27.7335 7.59865 28.1559 7.66497C28.5322 7.71803 28.5388 7.73792 28.5388 7.35989C28.5388 7.27367 28.4926 7.19408 28.585 7.06807C28.6841 7.12113 28.7501 7.17419 28.8293 7.22061C29.1924 7.35326 29.3244 7.26704 29.232 6.89563C29.166 6.63698 29.1264 6.45791 29.4498 6.39159C29.496 6.37832 29.5687 6.28547 29.5554 6.25231C29.3838 5.76816 29.7337 5.25085 29.4432 4.77997C29.8327 5.00546 30.0704 5.37686 30.1166 5.86101Z" fill="#FEDD3B"/>
<path d="M28.9629 5.26025C29.0094 5.41492 29.1157 5.56958 29.0028 5.78477C28.7038 5.51578 28.5444 5.17283 28.365 4.84332C28.1126 4.37931 27.8735 3.90859 27.621 3.43786C27.5612 3.33027 27.4749 3.19577 27.3287 3.26974C27.1826 3.34372 27.2357 3.49166 27.2955 3.60598C27.5214 4.06326 27.7605 4.51381 27.9997 4.96436C28.2986 5.54269 28.571 6.12773 28.7437 6.7733C28.3717 6.54466 28.1392 6.20843 27.9465 5.83857C27.7207 5.40147 27.5214 4.95764 27.3022 4.52053C27.2291 4.36587 27.1427 4.21792 27.0497 4.07671C26.97 3.96239 26.8504 3.90186 26.7242 3.98929C26.6179 4.05653 26.6312 4.1843 26.6711 4.27845C26.7442 4.45329 26.8371 4.6214 26.9235 4.78952C27.2557 5.42836 27.6742 6.02014 27.9266 6.71278C27.7007 6.70606 27.6941 6.51104 27.6144 6.38999C27.3487 5.97979 27.1029 5.55614 26.7641 5.19973C26.6512 5.07868 26.5515 4.85004 26.3722 4.96436C26.3124 4.99799 26.2858 5.04506 26.2725 5.09213L26.1396 5.06523C26.1861 4.8366 26.2127 4.60123 26.2393 4.37259C26.3257 3.48493 26.9567 3.07473 27.6144 2.67797C27.7539 2.59055 27.8668 2.63762 27.9333 2.76539C28.1591 3.20922 28.551 3.55218 28.6108 4.11033C28.6507 4.50036 28.8433 4.87022 28.9629 5.26025Z" fill="#FEDD3B"/>
<path d="M27.5197 7.23334C27.072 7.11625 26.8219 6.78449 26.5717 6.44623C26.4598 6.29661 26.4138 5.95184 26.1834 6.05592C25.8937 6.18603 26.2031 6.43972 26.2163 6.64138C26.2163 6.71293 26.236 6.79099 26.2558 6.86255C25.8147 6.55681 25.7489 6.18602 25.9201 5.68514C25.9925 5.48998 26.0517 5.29483 26.0912 5.08667L26.2229 5.11269C26.1965 5.22978 26.2953 5.37289 26.3545 5.48998C26.4928 5.7697 26.6508 6.03641 26.8482 6.27709C27.0984 6.57633 27.3222 6.88857 27.5197 7.23334Z" fill="#FEDD3B"/>
<path d="M26.7751 1.75373C26.9771 1.88798 27.1589 2.02895 27.2128 2.27732C27.0714 2.45856 26.8357 2.47199 26.6472 2.55925C26.149 2.81433 25.8123 3.19695 25.8191 3.75411C25.8258 4.60662 25.5767 5.392 25.368 6.19081C25.1794 6.88892 24.6745 7.38566 24.1156 7.74815C23.5635 8.10392 23.1798 8.52682 22.9845 9.13767C22.8902 9.43974 22.7556 9.72839 22.4728 9.92306C22.3651 9.99689 22.3045 10.0976 22.3382 10.252C22.5469 11.2387 22.2708 12.0308 21.3888 12.5813C21.1397 12.7357 20.904 12.9236 20.6953 13.1384C20.4799 13.3599 20.1769 13.4338 19.9345 13.2995C19.3016 12.937 18.5879 12.7827 17.9281 12.4873C17.3423 12.2322 17.0865 11.7959 16.9585 11.2387C16.8979 10.9769 16.9855 10.742 17.1673 10.5339C18.9515 8.51339 20.3991 6.25122 21.813 3.98234C22.5334 2.83447 23.4625 2.04909 24.6879 1.59262C25.3814 1.33754 26.1086 1.30398 26.7751 1.75373Z" fill="#FEDD3B"/>
<path d="M26.3131 6.99383C26.3064 6.98039 26.2997 6.96695 26.2997 6.94679C26.2997 6.94007 26.2997 6.93336 26.293 6.92664C26.2997 6.93336 26.3064 6.93336 26.3064 6.94008C26.3131 6.96023 26.3131 6.98039 26.3131 6.99383Z" fill="#FEDD3B"/>
<path d="M25.5688 7.74213C25.6024 7.93724 25.7703 8.21309 25.5016 8.28037C25.2799 8.33419 25.1455 8.03816 24.9977 7.86996C24.9305 7.78923 24.9977 7.70849 25.0582 7.65467C25.1657 7.5672 25.253 7.43265 25.4815 7.41919C25.515 7.54029 25.5554 7.64121 25.5688 7.74213Z" fill="#FEDD3B"/>
<path d="M25.1992 8.5831C25.1925 8.69075 25.1186 8.71766 25.0313 8.71093C24.9574 8.71093 24.9171 8.66384 24.9171 8.59656C24.9171 8.52255 24.9103 8.42163 25.0313 8.42836C25.1186 8.43509 25.1724 8.49564 25.1992 8.5831Z" fill="#FEDD3B"/>
<path d="M24.6018 8.07178C24.6488 8.3409 24.6757 8.56292 24.4405 8.69748C24.3532 8.74457 24.2054 8.68402 24.192 8.57637C24.1584 8.30053 24.3734 8.20634 24.6018 8.07178Z" fill="#FEDD3B"/>
<path d="M24.0773 9.04739C24.0706 9.06085 24.0638 9.08776 24.0571 9.09449C23.9563 9.12812 23.8556 9.17522 23.7548 9.17522C23.6809 9.17522 23.6876 9.08103 23.7346 9.02721C23.8287 8.91956 23.9295 8.99357 24.0303 9.01375C24.0504 9.01375 24.0638 9.03394 24.0773 9.04739Z" fill="#FEDD3B"/>
</svg>
