<svg width="74" height="74" viewBox="0 0 74 74" fill="none" xmlns="http://www.w3.org/2000/svg">
<path d="M50.9101 29.2035C51.2075 29.3087 51.26 29.598 51.26 29.8873C51.26 30.317 50.9888 30.5888 50.7176 30.8693C49.9391 31.6935 49.8253 31.6935 49.1168 30.808C49.0293 30.7028 48.9506 30.5888 48.8981 30.466C48.7144 30.0539 48.7931 29.8611 49.2655 29.7909C49.5979 29.7383 49.7991 29.6682 49.7204 29.2824C49.7029 29.1947 49.7204 29.0982 49.7991 29.0719C50.1753 28.958 50.5602 29.0807 50.9101 29.2035Z" fill="#13751E"/>
<path d="M13.1052 43.8938C13.8658 45.1654 14.3436 46.5087 14.3046 48.04C13.8463 47.9236 13.7098 47.6549 13.739 47.3684C13.8463 46.1326 13.271 45.1207 12.5397 44.1625C12.4324 44.0192 12.1496 43.858 12.4422 43.6789C12.7249 43.5088 12.9297 43.5983 13.1052 43.8938Z" fill="#13751E"/>
<path d="M13.6026 57.0378C13.9164 57.359 14.0819 57.7352 13.9599 58.3133C13.437 58.0931 13.132 57.7077 12.949 57.2397C12.6962 56.5973 12.3999 55.9825 11.9903 55.4228C11.6243 54.9364 11.6592 54.3583 11.7986 53.56C12.2954 54.2207 12.6788 54.6979 12.7834 55.3677C12.8793 56.0009 13.1494 56.5698 13.6026 57.0378Z" fill="#13751E"/>
<path d="M4.29716 51.6478C4.81824 52.0447 4.73597 52.64 4.79996 53.2533C3.96806 52.5859 2.78877 49.411 2.98075 48.3467C3.44698 48.9961 3.89493 49.5553 3.78523 50.3671C3.72124 50.8812 3.85836 51.3141 4.29716 51.6478Z" fill="#13751E"/>
<path d="M19.4239 42.2633C19.748 42.9597 19.9371 43.6652 19.757 44.425C19.694 44.6782 19.6039 44.9224 19.5049 45.1576C18.8476 46.7766 18.5324 48.4589 18.5324 50.2045C18.5324 50.9553 18.5234 51.6969 18.5324 52.4476C18.5414 53.6506 18.8296 54.7812 19.5229 55.7761C19.604 55.8936 19.694 56.0022 19.676 56.1921C19.2798 56.4997 18.8025 56.6896 18.3163 56.8253C17.3258 57.1056 16.3533 57.4584 15.4258 57.8925C14.8315 58.1729 14.8225 58.1548 14.6064 57.5579C14.4894 57.2323 14.3453 56.9247 14.0842 56.6805C13.6429 56.2735 13.4358 55.7399 13.3278 55.1701C13.2647 54.8535 13.1747 54.5641 12.9856 54.3018C12.4904 53.6234 12.0491 52.927 11.9861 52.0587C11.9681 51.8597 11.9051 51.6246 11.6349 51.6698C11.4458 51.6969 11.3648 51.8869 11.3738 52.0587C11.4008 52.8637 11.2207 53.6596 11.1937 54.4556C11.1757 55.0254 11.3738 55.5228 11.743 55.957C11.9861 56.2464 12.2112 56.5358 12.3373 56.8976C12.5534 57.5036 12.8505 58.0553 13.3638 58.4624C13.6339 58.6794 13.6249 58.8694 13.3458 59.0774C12.0131 60.0271 10.6534 60.9316 9.14966 61.5737C8.77147 61.7365 8.45632 61.7275 8.09614 61.5195C6.0431 60.3527 4.31423 58.8513 3.13463 56.762C2.21617 55.152 1.42377 53.5149 1.19865 51.6426C1.12662 51.0728 1.1086 50.494 1.12661 49.9242C1.15363 49.3362 1.45077 48.9021 1.94602 48.6127C2.18915 48.468 2.40526 48.4861 2.44127 48.8207C2.58535 50.1322 3.30572 51.2537 3.62088 52.5019C3.67491 52.719 3.75595 52.9541 3.90002 53.126C4.27821 53.5963 4.60237 54.1028 4.8545 54.6545C4.98056 54.9349 5.17866 55.152 5.52084 55.0163C5.82699 54.8987 6.03409 54.6003 5.89902 54.3289C5.48481 53.4968 5.57486 52.4567 5.07961 51.7421C4.58436 51.0276 4.39526 50.3764 4.36825 49.5533C4.35024 49.074 3.94504 48.685 3.71993 48.2599C3.54884 47.9434 3.55784 47.7263 3.90902 47.5816C4.08911 47.5002 4.2692 47.4007 4.44929 47.3193C6.65541 46.2972 8.86152 45.2752 11.0676 44.2531C11.6619 43.9727 11.6259 44.018 12.0942 44.5064C12.8505 45.2933 13.2467 46.1887 13.2017 47.2922C13.1837 47.7625 13.3368 48.1966 13.724 48.5132C13.9851 48.7212 14.0752 49.0287 14.1382 49.3453C14.1832 49.5714 14.2462 49.7975 14.3813 49.9875C14.5254 50.1864 14.7235 50.3131 14.9666 50.1865C15.1917 50.0779 15.1917 49.8608 15.1287 49.6619C14.6785 48.2057 14.8225 46.6409 14.2553 45.1938C14.1022 44.7958 13.9491 44.4069 13.724 44.0361C13.4268 43.5386 13.4989 43.3668 14.0301 43.1225C15.1467 42.607 16.1732 41.9196 17.3168 41.4493C17.623 41.3227 17.8841 41.1689 18.1632 41.4583C18.1992 41.4945 18.2533 41.5488 18.3073 41.5488C18.8116 41.5488 19.1807 41.7478 19.4239 42.2633Z" fill="#B1C092"/>
<path d="M72.8758 39.5541C72.9029 40.3697 72.8036 41.1671 72.5418 41.9282C71.9368 43.6499 71.8556 45.4078 72.1174 47.2019C72.2438 48.0809 72.307 48.978 72.2348 49.866C72.2077 50.2375 72.1716 50.609 71.8285 50.9533C71.6389 50.6271 71.7202 50.319 71.7111 50.0291C71.684 48.2349 71.2687 46.5586 70.2214 45.0816C69.5171 44.0758 68.542 43.4505 67.3502 43.1515C65.4812 42.6894 63.6664 42.0732 61.8426 41.457C61.1925 41.2396 60.5515 40.9949 59.9465 40.6506C58.9895 40.1069 58.4026 39.3095 58.213 38.2131C58.0866 37.4882 58.1498 36.9173 58.8179 36.4099C59.7028 35.7303 60.2084 34.7426 60.5063 33.6643C60.6959 32.9665 60.8855 32.2507 60.8404 31.5439C60.7772 30.529 61.2196 29.5867 61.2015 28.5899C61.1925 28.2456 61.4544 28.0915 61.7433 28.0009C62.5378 27.7472 63.3143 27.421 64.1449 27.3395C65.6166 27.1945 66.971 26.8501 67.8829 25.5C67.9551 25.5362 68.0274 25.5815 68.0996 25.6269C68.0996 26.2249 68.1086 26.823 68.0996 27.421C68.0725 28.7258 68.4698 29.8404 69.4629 30.7284C70.2936 31.4624 70.8444 32.4047 71.2868 33.4196C72.1265 35.3859 72.8126 37.3885 72.8758 39.5541Z" fill="#429C4D"/>
<path d="M71.3356 51.2589C71.3898 51.768 71.2541 52.2226 70.9104 52.6227C70.4219 53.1864 69.9515 53.7774 69.454 54.332C67.889 56.0322 66.6497 57.8961 66.1793 60.2237C65.7994 62.0876 64.5962 63.2241 62.7961 63.8333C62.6423 63.5696 62.6875 63.3605 62.6875 63.1696C62.7237 62.4513 62.5247 61.833 62.1086 61.2329C61.3577 60.1237 60.824 58.8963 60.8421 57.5234C60.8602 55.8322 60.0732 54.6139 58.7434 53.6774C57.6398 52.8955 56.5995 52.0317 55.2788 51.5953C55.315 51.2043 55.5954 50.9679 55.7763 50.6952C56.5905 49.4677 56.8076 48.1584 56.3734 46.7401C55.8216 44.9489 55.5321 43.0941 54.7722 41.3575C54.338 40.3574 54.4737 39.2663 54.6365 38.1935C54.6817 37.9207 54.8084 37.7843 55.0707 37.757C55.8125 37.6752 56.5543 37.6479 57.287 37.4752C57.5222 37.4206 57.676 37.5116 57.7212 37.7661C57.7303 37.8207 57.7393 37.8752 57.7484 37.9389C57.8841 39.9301 59.0781 41.0484 60.8331 41.6939C62.6875 42.3849 64.5601 43.0396 66.4688 43.5669C67.0477 43.7306 67.6448 43.8579 68.1875 44.1306C69.4449 44.758 70.1867 45.8218 70.63 47.1219C71.1094 48.4403 71.1818 49.8587 71.3356 51.2589Z" fill="#13751E"/>
<path d="M61.9723 62.5763C62.0719 63.5686 61.8366 64.2696 60.8047 64.6884C59.5104 65.2164 58.6143 66.2269 58.0622 67.547C57.5372 68.8215 56.6864 69.8775 55.6726 70.797C55.1386 71.2795 54.6046 71.762 54.0796 72.2536C53.455 72.8454 52.74 73.1367 52.0883 73.0001C50.3052 72.8271 48.7393 72.6451 47.1553 72.5904C46.567 72.5722 46.214 72.2536 45.9425 71.762C45.327 70.6149 44.7025 69.477 44.0598 68.3481C43.2271 66.8824 42.2676 65.5259 40.8285 64.57C40.2854 64.215 40.0682 63.6414 39.9415 63.0315C39.8329 62.4943 39.7695 61.9481 39.679 61.411C39.5251 60.5279 39.3441 59.6449 38.8644 58.871C38.5566 58.3703 38.6743 57.9424 39.0182 57.5237C39.6971 56.7134 40.5389 56.1217 41.5979 56.1399C43.6615 56.1945 45.5714 55.7393 47.4269 54.8472C48.2868 54.4284 49.2643 54.3829 50.2056 54.2918C51.7534 54.1371 53.0839 53.5726 54.1429 52.3891C54.6498 51.8338 55.3649 52.0159 55.8627 52.2799C57.1389 52.9445 58.3156 53.7729 59.3203 54.829C59.9086 55.448 60.1078 56.2309 60.1259 57.0594C60.144 58.2702 60.4426 59.3991 60.9948 60.4642C61.1939 60.8466 61.4111 61.2198 61.6555 61.584C61.8637 61.9117 61.9361 62.2303 61.9723 62.5763Z" fill="#13751E"/>
<path d="M41.7768 51.3233C41.5956 51.2146 41.3962 51.3142 41.215 51.3142C41.0428 51.3142 40.8525 51.3505 40.771 51.1421C40.6985 50.9609 40.8072 50.8069 40.916 50.671C41.3419 50.1455 41.8946 49.8918 42.5652 49.8737C42.7918 49.8647 43.0274 49.91 43.1996 49.6925C43.7523 48.9859 44.432 48.3517 44.8035 47.5725C45.1479 46.8478 45.4831 46.5941 46.2534 46.7934C46.8152 46.9384 47.4405 46.6122 48.0114 46.9746C48.1836 47.0833 48.4011 46.9021 48.5098 46.73C48.6186 46.5578 48.6639 46.3585 48.7636 46.1864C48.9629 45.8421 49.0807 45.8331 49.3344 46.132C49.715 46.585 49.8963 47.1286 50.0956 47.6722C50.2044 47.9712 50.2044 48.3607 50.594 48.4966C50.6394 48.4151 50.6937 48.3607 50.6847 48.3245C50.4581 47.4638 50.2497 46.585 49.6516 45.8874C49.2891 45.4707 49.2348 45.0539 49.3979 44.5375C49.6063 43.8762 49.7332 43.1967 49.7332 42.4991C49.7332 42.182 49.8782 41.6927 49.4341 41.6293C48.9901 41.5659 48.9901 42.0823 48.9085 42.3904C48.6911 43.2239 48.5551 44.0755 48.6639 44.9452C48.7273 45.4707 48.6004 46.0596 48.1111 46.1864C47.2049 46.431 46.2262 46.5488 45.32 46.1592C44.6766 45.8874 44.4592 45.2985 44.7491 44.7187C44.8941 44.4288 44.9032 44.2385 44.586 44.1026C44.2145 43.9486 43.9698 44.0483 43.8792 44.4288C43.8339 44.6281 43.8158 44.8093 43.6798 44.9814C42.9277 45.9146 42.973 46.0867 44.0332 46.576C44.0876 46.6031 44.142 46.6122 44.1964 46.6394C44.6585 46.8659 44.731 47.0199 44.4501 47.4366C44.0695 47.9802 43.6164 48.4604 43.2267 48.9949C42.973 49.3392 42.674 49.5476 42.239 49.5929C41.65 49.6563 41.1425 49.9371 40.7528 50.3901C40.5082 50.671 40.2273 50.9881 40.4538 51.3867C40.6803 51.7944 41.1063 51.6675 41.4687 51.6132C41.5775 51.5679 41.7406 51.5498 41.7768 51.3233ZM55.9043 47.3279C56.158 48.1796 55.9496 49.0402 55.4965 49.8194C54.8984 50.8431 54.1644 51.7582 53.3036 52.5735C52.4246 53.4161 51.319 53.7332 50.1591 53.8419C48.6458 53.9778 47.2321 54.3855 45.8638 55.0378C44.9666 55.4726 44.0242 55.672 43.0274 55.6538C42.5652 55.6448 42.1121 55.6901 41.65 55.7263C40.5988 55.8079 39.7198 56.2518 38.9948 57.0037C38.8589 57.1396 38.7592 57.339 38.4783 57.3933C38.2699 57.1668 38.2608 56.8407 38.2155 56.5508C37.9618 54.9472 37.3184 53.5429 36.2672 52.3017C35.5423 51.4501 34.8989 50.526 34.2011 49.6472C33.1318 48.3064 32.434 46.7572 31.7635 45.1989C31.5188 44.6372 31.6004 44.3654 32.1803 44.0845C34.4005 43.0064 36.5663 41.7833 39.0855 41.5115C40.1638 41.4028 40.8525 40.7687 41.2966 39.8083C41.8584 38.5853 42.0306 37.2807 42.1574 35.9579C42.1846 35.659 42.1393 35.3419 42.2843 35.0067C42.5834 35.1154 42.6377 35.2875 42.683 35.4506C42.7737 35.7767 42.9277 35.9579 43.2992 35.822C43.3899 35.7858 43.5349 35.822 43.6345 35.8764C44.577 36.3203 45.5919 36.3022 46.5978 36.3203C48.3558 36.3566 50.0866 36.6012 51.7812 37.1266C52.4064 37.3259 53.0589 37.4528 53.7295 37.6249C53.7929 38.4131 53.8926 39.2194 53.8926 40.0348C53.9016 40.7324 54.1101 41.4028 54.4 42.028C55.1703 43.7221 55.3787 45.5613 55.9043 47.3279Z" fill="#13751E"/>
<path d="M37.8901 57.4296C37.9352 57.7291 37.9894 57.9923 37.5741 58.0831C37.1137 58.1829 37.0866 58.5641 37.2581 58.8999C37.547 59.4808 37.3665 59.9618 37.0505 60.4338C36.2109 61.7317 35.1366 62.8027 33.8366 63.6378C33.2588 64.0099 32.6268 64.1642 31.9497 64.137C30.406 64.0643 28.8622 63.9645 27.3184 63.8919C26.4156 63.8465 25.7475 63.4199 25.233 62.6938C24.7093 61.9405 24.1947 61.169 23.6531 60.4338C23.2649 59.8983 22.8496 59.381 22.4072 58.8908C21.8204 58.2555 21.2246 57.6383 21.053 56.7398C21.0259 56.6127 20.9176 56.4856 20.8183 56.3949C19.5273 55.2694 19.103 53.7809 19.0669 52.1381C19.0579 51.7659 19.0669 51.3847 19.0669 50.9491C19.0127 48.9432 19.3016 46.9283 20.1051 45.0132C20.5294 44.0057 20.412 43.0345 19.8975 42.1088C19.6627 41.6912 19.5273 41.2102 19.1481 40.8653C18.9766 40.711 19.121 40.5476 19.3287 40.5295C19.5092 40.5113 19.6718 40.5839 19.8072 40.6838C20.3037 41.0287 20.8634 41.0831 21.4503 41.0559C22.4524 41.0196 23.4545 41.1285 24.4566 41.2193C24.9982 41.2647 25.5309 41.3917 26.0364 41.6005C26.7767 41.9 27.526 42.2086 28.2573 42.5353C29.6837 43.1707 30.7671 44.2417 31.3449 45.6485C32.4192 48.2534 34.0442 50.468 35.8317 52.5737C37.0325 53.9987 37.6102 55.6415 37.8901 57.4296Z" fill="#145A1C"/>
<path d="M42.8769 29.6666C43.1131 30.9381 42.9496 32.1461 42.3137 33.2633C41.8685 34.0444 41.6686 34.8527 41.6596 35.7337C41.6414 36.8963 41.4506 38.0225 41.0963 39.1306C40.6966 40.3749 39.9516 41.147 38.5617 41.2378C37.5805 41.3014 36.6448 41.6283 35.7364 42.0189C34.2828 42.6546 32.8202 43.2723 31.4666 44.1079C31.1577 44.2986 31.0032 44.1896 30.8215 43.9807C29.1409 42.037 26.8515 41.2741 24.4623 40.7836C23.5356 40.5929 22.5727 40.6292 21.6188 40.5929C20.783 40.5566 19.9381 40.5838 19.5021 39.6483C19.4294 39.4848 19.2568 39.5575 19.1205 39.6211C18.9115 39.7119 18.7753 39.9299 18.4573 39.948C18.3392 39.6029 18.4846 39.3668 18.6027 39.0943C18.9115 38.3858 19.2023 37.6683 19.2204 36.86C19.2295 36.1061 18.9933 35.5067 18.3665 35.0707C18.2938 35.0253 18.2302 34.9617 18.1575 34.9163C16.6676 34.0171 16.3769 32.682 16.7585 31.0925C16.8312 30.7837 16.9129 30.4749 17.0401 30.1843C17.1945 29.821 17.2672 29.4577 17.0946 29.0944C16.922 28.7583 17.0401 28.4859 17.2036 28.2043C17.8577 27.0962 18.7662 26.3696 20.1107 26.3151C20.4832 26.306 20.8557 26.2334 21.2281 26.2152C22.2729 26.1607 23.1995 25.8156 24.0444 25.2071C24.6076 24.8074 25.1618 24.3896 25.6705 23.9264C26.5881 23.109 27.5965 22.4732 28.7502 22.0554C30.0039 21.6013 31.1486 20.9201 32.2751 20.2298C32.7748 19.921 33.1926 19.5486 33.447 18.9946C33.6832 18.495 34.0466 18.4587 34.2828 18.9492C34.4827 19.3669 34.728 19.4124 35.1004 19.376C36.0634 19.2943 36.8356 19.6758 37.4897 20.366C38.0075 20.911 38.489 21.4923 38.8887 22.128C39.8245 23.6176 40.7602 25.1071 41.6777 26.6058C42.241 27.5685 42.677 28.5676 42.8769 29.6666ZM31.2394 30.5476C31.303 30.1389 31.0577 29.8482 31.0123 29.5122C30.9669 29.167 30.9669 28.8219 30.9306 28.4858C30.9124 28.3405 30.8215 28.2134 30.6489 28.2225C30.5218 28.2315 30.44 28.3314 30.4218 28.4495C30.3946 28.5948 30.3855 28.7311 30.3855 28.8764C30.3764 29.5667 29.9858 29.9936 29.4134 30.2842C29.041 30.4658 28.6412 30.484 28.2324 30.4386C28.0053 30.4113 27.7328 30.3296 27.6147 30.593C27.4693 30.9018 27.7509 31.0653 27.9235 31.2288C28.3051 31.5739 28.723 31.8918 29.1045 32.2369C29.3317 32.4458 29.686 32.6366 29.6224 32.9817C29.5406 33.3904 29.1136 33.3904 28.7866 33.4631C28.2506 33.5812 27.7055 33.6357 27.1786 33.7719C26.7334 33.89 26.688 34.1261 27.0242 34.444C27.3512 34.7437 27.8599 34.9617 27.3875 35.5248C27.3512 35.5702 27.3785 35.6883 27.4057 35.7701C27.5783 36.3059 28.7866 37.0598 29.4588 37.0416C29.3953 36.7691 29.1227 36.751 28.941 36.642C28.6412 36.4694 28.3414 36.2969 28.0961 36.0516C27.9145 35.8791 27.7873 35.7065 27.9871 35.4613C28.2506 35.1434 28.0961 34.88 27.8599 34.6257C27.7509 34.5076 27.5783 34.4077 27.6056 34.1897C27.7418 34.0262 27.9508 34.0353 28.1416 33.999C28.4777 33.9354 28.8229 33.89 29.159 33.7901C30.2401 33.4813 30.3946 32.9272 29.6042 32.1461C29.3407 31.8827 29.041 31.6557 28.7684 31.4014C28.6412 31.2742 28.3959 31.1924 28.5322 30.8927C29.3498 30.8927 30.0312 30.4931 30.5853 29.9481C30.8579 30.1116 30.8125 30.4931 31.2394 30.5476Z" fill="#13751E"/>
<path d="M60.6393 26.8542C60.8024 27.1725 60.8477 27.4453 60.5396 27.6999C60.4762 27.7545 60.3946 27.8727 60.4218 27.9182C60.7752 28.6366 60.1771 29.2641 60.2406 29.9734C60.3584 31.1829 60.2134 32.3923 59.8962 33.5745C59.6606 34.4566 59.2256 35.2296 58.6003 35.8934C58.0203 36.5027 57.3225 36.8665 56.5069 36.9938C54.9845 37.2302 53.4711 37.2484 51.9849 36.7392C49.9641 36.0571 47.8707 35.8934 45.7683 35.8844C44.7442 35.8753 43.8652 35.557 43.0587 34.9477C42.37 34.4202 42.2975 34.2747 42.7053 33.5381C43.6024 31.9195 43.6659 30.2462 43.1131 28.5184C42.8593 27.7181 42.4968 26.9633 42.0528 26.2449C41.1466 24.7717 40.2404 23.2985 39.3251 21.8344C38.9082 21.1706 38.4189 20.5704 37.8932 19.9975C37.3586 19.4155 36.6789 19.0517 35.9268 18.7152C36.1624 18.4151 36.3708 18.4606 36.5611 18.4606C37.8479 18.4606 38.9898 18.0514 39.9866 17.2329C41.2009 16.2326 42.7325 15.9416 44.119 15.3232C44.3183 15.2323 44.4271 15.3232 44.5449 15.4778C45.3514 16.5418 45.9767 16.7419 47.2001 16.269C47.8707 16.0144 48.5413 15.7234 49.1666 15.3778C49.9369 14.9413 50.6075 14.9504 51.2871 15.5597C52.0393 16.2326 52.8911 16.3781 53.8427 15.9143C54.4408 15.6233 54.5042 15.6688 54.9029 16.2326C55.1929 16.6509 55.5554 16.9601 56.0267 17.142C56.6429 17.3784 57.105 17.7968 57.4585 18.3424C57.7213 18.7607 58.1019 19.079 58.4191 19.4427C59.2709 20.4613 59.9324 21.5343 60.1228 22.9439C60.2677 24.026 60.3946 25.09 60.4399 26.1812C60.449 26.4177 60.5305 26.6541 60.6393 26.8542ZM51.4865 30.7464C52.2477 29.9097 51.8218 28.8094 50.7253 28.6093C50.5259 28.5729 50.3265 28.5547 50.1272 28.5456C49.6016 28.5093 49.2028 28.3001 48.94 27.809C48.8132 27.5544 48.6319 27.318 48.4507 27.0997C48.2876 26.8997 48.061 26.6905 47.7891 26.8815C47.5354 27.0634 47.617 27.3453 47.7257 27.5908C47.8707 27.9454 48.1426 28.2092 48.4507 28.4274C48.7044 28.6093 49.0216 28.7184 49.1485 29.1367C48.2785 29.7369 48.2423 29.837 48.65 30.7645C48.7407 30.9828 48.8494 31.1738 48.7769 31.4193C48.6682 31.8467 48.9128 32.0377 49.2572 32.2104C49.7284 32.4378 49.7284 32.4651 49.2935 32.8652C49.2028 32.947 49.1122 33.0016 49.1666 33.1289C49.23 33.2744 49.366 33.3381 49.52 33.3108C49.7103 33.2835 49.81 33.138 49.8916 32.9834C50.3084 32.1559 50.8612 31.4284 51.4865 30.7464Z" fill="#13751E"/>
<path d="M67.7602 23.3301C67.8689 23.9838 67.8599 24.5467 67.4793 25.1277C67.0716 25.7451 66.6458 26.2989 65.93 26.5713C65.5495 26.7165 65.169 26.8527 64.7612 26.8346C63.9096 26.7983 63.1123 27.0161 62.3059 27.2431C61.6626 27.4247 61.6264 27.3884 61.2912 26.8073C60.965 26.2444 61.0465 25.6362 61.0465 24.928C61.0556 24.465 61.1009 23.8839 60.7566 23.3664C60.7022 23.2757 60.6932 23.1485 60.6932 23.0305C60.6751 21.2874 59.7509 20.0073 58.5731 18.8452C58.4553 18.7271 58.3194 18.6091 58.2288 18.4639C57.7033 17.6104 57.0238 16.9295 56.0543 16.5845C55.7191 16.4665 55.5288 16.1578 55.3295 15.8764C54.8583 15.2227 54.5412 15.0774 53.8798 15.4315C52.9829 15.9036 52.2309 15.7674 51.5151 15.1228C50.7993 14.4873 50.0383 14.451 49.2138 14.914C48.6339 15.2318 48.0269 15.4951 47.4289 15.7765C47.0665 15.949 46.686 16.0852 46.2782 16.1124C45.8524 16.1397 45.4628 16.0489 45.2635 15.6222C45.0642 15.2045 45.0642 14.8232 45.3903 14.4238C46.686 12.8803 47.2477 11.0736 47.2386 9.07629C47.2386 8.52248 47.1752 7.98682 47.0031 7.46025C46.9396 7.26959 46.8762 7.07894 46.849 6.87921C46.7313 6.07119 46.9578 5.82606 47.7641 5.88053C48.797 5.95316 49.8299 6.05302 50.8537 6.14381C51.2614 6.18013 51.6419 6.32541 51.9953 6.52514C52.9829 7.06987 54.0248 7.47841 55.0849 7.85064C56.1449 8.23196 57.1506 8.72222 58.111 9.31235C59.162 9.95695 60.222 10.5925 61.273 11.2462C63.8552 12.835 65.6401 15.023 66.4555 17.9827C66.9357 19.744 67.4703 21.4962 67.7602 23.3301Z" fill="#429C4D"/>
<path d="M44.62 2.52673C46.1802 2.91756 46.924 4.23546 46.407 5.77151C46.1984 6.38048 46.2256 6.93491 46.3888 7.54388C47.0419 10.007 46.4977 12.2156 44.9375 14.1971C44.5928 14.6333 44.1302 14.9333 43.6132 15.1423C43.1052 15.3423 42.5972 15.5422 42.0802 15.724C41.2094 16.0421 40.384 16.4511 39.6674 17.0419C38.6877 17.8509 37.5629 18.1962 36.3021 18.1326C35.6399 18.0963 34.9778 18.1326 34.3247 18.0236C33.9437 17.9599 33.6897 17.8236 33.7078 17.36C33.7532 16.024 33.1182 14.9878 32.1839 14.0971C31.5762 13.5154 30.9231 12.9973 30.2519 12.5065C29.7802 12.1702 29.3176 11.8248 28.8549 11.4885C28.0476 10.9068 27.6667 10.107 27.6485 9.11629C27.6394 8.53459 27.6576 7.96196 27.7664 7.39844C27.9932 6.23505 28.1565 5.06256 27.8934 3.88099C27.8662 3.74465 27.8209 3.57195 27.9297 3.46288C28.2018 3.1993 27.9388 2.99934 27.839 2.71758C28.5556 2.84483 29.1361 3.02663 29.6713 3.2993C31.558 4.26274 33.5083 4.19911 35.4766 3.63559C37.2817 3.11751 39.0959 2.69033 40.9554 2.45401C41.9623 2.32676 42.9691 2.32676 43.976 2.38129C44.1665 2.42674 44.3933 2.47219 44.62 2.52673Z" fill="#13751E"/>
<path d="M32.3757 15.0357C33.289 16.1395 33.3071 17.397 32.9544 18.6997C32.8188 19.1973 32.4209 19.5049 31.9959 19.7673C30.8926 20.4458 29.7894 21.1153 28.5776 21.5676C27.3749 22.02 26.3169 22.6713 25.3764 23.5398C24.9966 23.8927 24.5806 24.2003 24.1827 24.526C23.188 25.3221 22.0576 25.7654 20.7735 25.7744C20.656 25.7744 20.5474 25.7925 20.4299 25.7925C18.8745 25.8468 17.6989 26.5253 16.9122 27.9005C16.5685 28.5066 16.5324 28.4975 15.8993 28.2714C15.3839 28.0904 14.8865 27.9185 14.6062 27.3576C14.4253 26.9958 14.0003 26.8329 13.6567 26.6429C12.6981 26.1001 12.255 25.3402 12.4901 24.2183C12.6077 23.6574 12.6439 23.0784 12.671 22.5085C12.7162 21.5133 12.255 20.7986 11.3417 20.4006C10.9257 20.2196 10.4826 20.0749 10.0576 19.903C9.16233 19.5501 8.90008 19.1611 8.94529 18.2022C8.95434 17.9488 8.99955 17.6865 9.04476 17.4332C9.21658 16.3204 9.54213 15.2529 9.93098 14.2034C10.2384 13.3621 10.7991 12.8011 11.6582 12.5478C11.8752 12.4845 12.0923 12.4121 12.3093 12.3307C13.4668 11.9417 14.0908 11.1275 14.2174 9.92423C14.2807 9.32714 14.3349 8.721 14.3982 8.12391C14.4525 7.63537 14.5429 7.14684 14.7418 6.70355C15.5738 4.85798 16.8308 3.3562 18.4223 2.11677C18.8112 1.80917 19.2905 1.66441 19.7607 1.55584C20.7373 1.32967 21.7321 1.16683 22.9167 1.13064C23.6582 1.06731 24.4992 1.28444 25.2498 1.83631C25.503 2.02629 25.7833 2.22531 26.0727 2.2796C26.7509 2.4153 27.0403 2.75909 27.2031 3.44666C27.4382 4.45087 27.5196 5.41888 27.3387 6.42308C27.194 7.24635 27.0584 8.06059 27.0674 8.90195C27.0765 10.1685 27.5467 11.1818 28.5867 11.9236C29.2016 12.3579 29.7984 12.7921 30.4043 13.2354C31.1277 13.7692 31.7969 14.3482 32.3757 15.0357Z" fill="#13751E"/>
<path d="M73.4366 39.2308C73.5362 40.0651 73.5272 40.9175 73.2281 41.7065C72.4488 43.8012 72.4488 45.9323 72.7751 48.0905C72.8294 48.4351 72.8294 48.7797 72.8475 49.1243C72.92 50.2397 72.5938 51.21 71.8961 52.0896C71.1439 53.0327 70.4099 53.9939 69.5853 54.8826C68.1989 56.3879 67.1205 58.0656 66.7037 60.1059C66.314 62.0374 65.145 63.3161 63.3689 64.1141C62.508 64.495 61.6653 64.9574 60.8316 65.3927C59.8801 65.8824 59.1642 66.6169 58.7474 67.6144C57.7778 69.9722 55.8839 71.541 53.999 73.1098C53.4191 73.5995 52.7032 73.7083 51.9601 73.6176C50.3924 73.4181 48.8157 73.2821 47.2299 73.2095C46.3599 73.1642 45.789 72.7652 45.3903 72.0125C44.7197 70.743 44.0129 69.4825 43.288 68.2401C42.5721 67.0069 41.7112 65.9005 40.506 65.1025C39.8082 64.64 39.5092 63.9327 39.3642 63.1438C39.2283 62.4092 39.1286 61.6657 38.9836 60.9311C38.8749 60.3961 38.8477 60.3961 38.1681 60.4958C38.0956 59.9699 38.3765 59.4077 37.9687 58.9089C38.1318 59.5528 37.8962 60.1059 37.57 60.6228C36.6729 62.0284 35.513 63.171 34.1084 64.0597C33.5556 64.4043 32.9575 64.6038 32.3141 64.5766C30.5924 64.504 28.8707 64.4315 27.1489 64.3226C26.2699 64.2682 25.5631 63.8511 25.0375 63.1347C24.8019 62.8083 24.5572 62.4909 24.3307 62.1463C23.3158 60.6047 22.0924 59.2354 20.8782 57.8479C20.1351 56.9955 19.5551 56.9502 18.5493 57.2676C16.4741 57.9296 14.5168 58.782 12.7497 60.0696C11.6261 60.8858 10.4027 61.5115 9.1522 62.1009C8.76254 62.2823 8.45444 62.2823 8.10103 62.0828C6.44272 61.176 4.94752 60.0606 3.77855 58.5643C2.58239 57.0318 1.68528 55.327 1.0872 53.477C0.751915 52.4251 0.62505 51.346 0.634112 50.2397C0.634112 49.9586 0.670352 49.6684 0.570672 49.3873C0.380375 48.8613 0.62505 48.3988 1.17782 48.2991C1.44061 48.2537 1.67622 48.1812 1.90276 48.0633C4.95659 46.4582 8.11009 45.0436 11.2364 43.5927C11.9614 43.2571 12.7044 42.9488 13.4747 42.7221C13.9096 42.5951 14.3355 42.3775 14.7252 42.1508C15.3958 41.7609 16.0573 41.3619 16.7822 41.0717C17.6793 40.709 18.0962 40.0016 18.0509 39.0404C18.0418 38.7593 18.1143 38.5417 18.2955 38.3331C18.7396 37.8525 18.7758 37.2449 18.7849 36.6373C18.7849 36.1748 18.5946 35.803 18.2502 35.5128C18.1415 35.4222 18.0237 35.3315 17.9059 35.2499C16.2748 34.0347 15.8489 32.8649 16.3201 30.8971C16.7188 29.2648 16.7188 29.2648 15.1149 28.5666C14.7705 28.4215 14.4262 28.2583 14.2268 27.9137C14.0637 27.6235 13.7918 27.4603 13.529 27.288C13.2209 27.0794 12.9038 26.8708 12.6138 26.635C11.9795 26.1272 11.7076 25.4652 11.8164 24.6491C11.8798 24.1685 11.9432 23.6788 11.9976 23.1891C12.1788 21.711 11.8798 21.2032 10.5024 20.6954C10.2306 20.5956 9.9587 20.4959 9.68685 20.4052C8.75348 20.0787 8.26414 19.3986 8.30945 18.4373C8.38194 16.6328 8.85315 14.9189 9.66872 13.3047C10.004 12.6337 10.6202 12.1893 11.3451 12.0352C13.0035 11.6815 13.6468 10.6568 13.674 9.00638C13.7284 5.81435 15.5498 3.51103 17.9331 1.74273C19.7726 0.382492 22.0743 0.337151 24.3216 0.69988C24.7204 0.763358 25.0738 0.990055 25.4 1.2349C25.9437 1.64297 26.5599 1.84247 27.2305 1.94222C28.1457 2.07825 29.0519 2.29589 29.8765 2.71303C31.6345 3.60171 33.4378 3.52009 35.2502 3.02134C36.6638 2.6314 38.0774 2.24147 39.5273 2.0057C41.0044 1.76992 42.4905 1.6067 43.9948 1.74273C44.5204 1.78807 45.0188 1.90595 45.49 2.12359C46.1153 2.41377 46.6408 2.84904 46.813 3.52009C46.9671 4.11859 47.3658 4.54481 47.6648 5.04356C47.8008 5.2612 48.0001 5.234 48.1904 5.25213C48.9878 5.34281 49.7943 5.42442 50.5918 5.49697C51.208 5.55138 51.7789 5.72368 52.3135 6.02293C53.12 6.46728 53.9718 6.82095 54.8418 7.1202C56.2645 7.60988 57.5965 8.28092 58.8652 9.07893C59.7623 9.65022 60.6866 10.1853 61.5928 10.7475C64.266 12.407 66.0965 14.7012 66.9755 17.7663C67.7276 20.3961 68.4163 23.0349 68.6157 25.7826C68.6701 26.5262 68.6791 27.2789 68.6882 28.0225C68.6973 28.8114 68.9872 29.4734 69.54 30.0266C72.1045 32.5747 73.0469 35.794 73.4366 39.2308ZM72.5213 41.9966C72.7932 41.2258 72.8838 40.4369 72.8566 39.6208C72.7932 37.4535 72.1045 35.4403 71.2527 33.4816C70.8086 32.4659 70.2468 31.5319 69.4222 30.7883C68.4254 29.8996 68.0267 28.7842 68.0539 27.4784C68.0629 26.8799 68.0539 26.2814 68.0539 25.6829C67.9814 25.6466 67.9089 25.6013 67.8364 25.5559C66.9211 26.9071 65.5619 27.2426 64.0848 27.3968C63.2511 27.4784 62.4718 27.8139 61.6744 28.0588C61.3934 28.1494 61.1306 28.3036 61.1306 28.6482C61.1488 29.6457 60.7138 30.5888 60.7682 31.6045C60.8135 32.3118 60.6232 33.0372 60.4329 33.7264C60.1339 34.8055 59.6264 35.803 58.7383 36.4741C58.0678 36.9819 58.0043 37.5532 58.1312 38.2787C58.3306 39.3759 58.9105 40.1739 59.8711 40.718C60.4782 41.0536 61.1216 41.2984 61.774 41.5251C63.5955 42.1417 65.4259 42.7674 67.3017 43.2209C68.4979 43.511 69.4675 44.1458 70.1834 45.1524C71.2255 46.6305 71.6514 48.3172 71.6786 50.1037C71.6876 50.3938 71.6061 50.7022 71.7964 51.0286C72.1407 50.684 72.177 50.3122 72.2042 49.9404C72.2766 49.0427 72.2132 48.154 72.0864 47.2743C71.8326 45.4788 71.9142 43.7196 72.5213 41.9966ZM70.8268 52.5158C71.1711 52.1259 71.307 51.6634 71.2527 51.1556C71.0986 49.7591 71.0261 48.3535 70.564 47.0023C70.1199 45.7055 69.3769 44.6446 68.1173 44.0189C67.5736 43.7468 66.9846 43.6199 66.3955 43.4566C64.4835 42.9307 62.6077 42.2868 60.7501 41.5886C58.9921 40.9357 57.805 39.8293 57.66 37.8434C57.66 37.789 57.6419 37.7255 57.6328 37.6711C57.5875 37.4263 57.4334 37.3265 57.1978 37.3809C56.4638 37.5532 55.7208 37.5713 54.9777 37.662C54.7149 37.6892 54.579 37.8253 54.5427 38.0973C54.3706 39.1583 54.2437 40.2465 54.6787 41.2531C55.4308 42.9851 55.7298 44.835 56.2826 46.6214C56.7176 48.0452 56.5091 49.3419 55.6845 50.5661C55.5033 50.8382 55.2224 51.083 55.1861 51.4639C56.5091 51.9082 57.5512 52.7697 58.6568 53.5405C59.9889 54.4745 60.7682 55.6988 60.7591 57.3764C60.741 58.7457 61.2756 59.9699 62.0278 61.0762C62.4446 61.6838 62.644 62.2914 62.6077 63.0077C62.5987 63.2072 62.5624 63.4068 62.7165 63.6697C64.5198 63.0622 65.725 61.9286 66.1056 60.0696C66.5768 57.7572 67.8183 55.8892 69.3859 54.1934C69.8753 53.6675 70.3374 53.078 70.8268 52.5158ZM67.4467 25.1025C67.8273 24.5312 67.8273 23.969 67.7276 23.307C67.4377 21.4843 66.894 19.725 66.4137 17.9477C65.6072 14.9824 63.8129 12.7969 61.2303 11.219C60.1792 10.5752 59.1189 9.93134 58.0678 9.2875C57.1072 8.69806 56.1014 8.20837 55.0411 7.8275C53.9809 7.44664 52.9388 7.04765 51.951 6.50355C51.5976 6.31312 51.217 6.15897 50.8093 6.12269C49.7762 6.03201 48.7522 5.92318 47.7192 5.8597C46.9036 5.80529 46.6861 6.0592 46.804 6.85721C46.8311 7.05671 46.8946 7.24715 46.958 7.43759C47.1302 7.96355 47.1936 8.49855 47.1936 9.05172C47.2027 11.0558 46.6408 12.8604 45.345 14.3929C45.0188 14.7829 45.0097 15.1728 45.2181 15.5899C45.4266 16.0071 45.8072 16.0977 46.2331 16.0796C46.6408 16.0524 47.0214 15.9164 47.3839 15.7441C47.982 15.463 48.5891 15.2 49.1691 14.8826C50.0028 14.4201 50.7549 14.4564 51.4708 15.0912C52.1867 15.735 52.9388 15.871 53.8359 15.3995C54.5065 15.0458 54.8146 15.1909 55.2858 15.8438C55.4942 16.125 55.6754 16.4333 56.0107 16.5512C56.9803 16.9048 57.66 17.5759 58.1856 18.4283C58.2762 18.5734 58.4121 18.6913 58.5299 18.8092C59.708 19.9608 60.6322 21.2395 60.6504 22.9896C60.6504 23.0984 60.6594 23.2345 60.7138 23.3251C61.0582 23.842 61.0128 24.4224 61.0038 24.8849C61.0128 25.6013 60.9222 26.1998 61.2485 26.762C61.5837 27.3424 61.62 27.3786 62.2634 27.1973C63.0699 26.9706 63.8673 26.762 64.7191 26.7892C65.1269 26.8073 65.5166 26.6713 65.8881 26.5262C66.604 26.2723 67.0389 25.7191 67.4467 25.1025ZM60.8407 64.7035C61.8737 64.2864 62.1093 63.5881 62.0096 62.5997C61.9734 62.246 61.91 61.9286 61.7015 61.6294C61.4569 61.2757 61.2394 60.8948 61.04 60.514C60.4782 59.453 60.1882 58.3195 60.1701 57.1225C60.152 56.2973 59.9617 55.5174 59.3636 54.9007C58.3577 53.8488 57.1706 53.0236 55.902 52.3616C55.4036 52.0987 54.6877 51.9173 54.1803 52.4705C53.111 53.6403 51.7879 54.2116 50.2384 54.3657C49.2959 54.4564 48.3263 54.5108 47.4564 54.9189C45.6078 55.8076 43.6867 56.261 41.6206 56.2066C40.5604 56.1794 39.7176 56.7779 39.038 57.585C38.6936 58.0021 38.5668 58.4283 38.8839 58.927C39.3642 59.6978 39.5455 60.5775 39.6995 61.4571C39.7901 61.9921 39.8536 62.5362 39.9623 63.0712C40.0892 63.6788 40.3066 64.241 40.8503 64.6038C42.2821 65.5559 43.2517 66.9071 44.0854 68.3671C44.7288 69.4915 45.3541 70.6251 45.9703 71.7677C46.2331 72.2574 46.5955 72.5748 47.1845 72.5929C48.7613 72.6473 50.338 72.8287 52.1232 73.001C52.7757 73.1279 53.4916 72.8468 54.1168 72.2574C54.6424 71.7677 55.177 71.2871 55.7117 70.8064C56.7266 69.8815 57.5694 68.8386 58.104 67.5691C58.6477 66.2451 59.5358 65.2386 60.8407 64.7035ZM60.5507 27.7142C60.8497 27.4603 60.8135 27.1882 60.6504 26.8708C60.5507 26.6713 60.4601 26.4355 60.451 26.2179C60.4148 25.1297 60.2879 24.0687 60.1339 22.9896C59.9436 21.584 59.273 20.514 58.4302 19.4983C58.1221 19.1266 57.7415 18.8092 57.4697 18.4011C57.1163 17.8479 56.6541 17.4399 56.0379 17.2041C55.5667 17.0227 55.2042 16.7144 54.9143 16.2973C54.5246 15.735 54.4521 15.6897 53.854 15.9799C52.9025 16.4423 52.0507 16.2972 51.2986 15.6262C50.6099 15.0186 49.9484 15.0096 49.1781 15.4448C48.5529 15.7985 47.8823 16.0796 47.2117 16.3335C45.9793 16.8051 45.3541 16.6056 44.5566 15.5446C44.4388 15.3814 44.3301 15.2997 44.1307 15.3904C42.7443 16.0071 41.2128 16.2973 39.9985 17.2948C39.0018 18.1109 37.869 18.519 36.5732 18.519C36.3829 18.519 36.1654 18.4736 35.9389 18.7729C36.691 19.1084 37.3706 19.4621 37.9053 20.0515C38.4308 20.6228 38.9293 21.2213 39.337 21.8833C40.2523 23.3433 41.1675 24.8123 42.0646 26.2814C42.4996 26.9978 42.8621 27.7504 43.1249 28.5484C43.6776 30.2714 43.6142 31.949 42.7171 33.5541C42.3002 34.2977 42.3818 34.4428 43.0705 34.9597C43.877 35.5673 44.7469 35.8846 45.78 35.8937C47.8823 35.9028 49.9756 36.066 51.9964 36.7461C53.4825 37.2449 54.9867 37.2358 56.5182 37.0001C57.3428 36.8731 58.0406 36.5104 58.6115 35.9028C59.2367 35.2408 59.6717 34.47 59.9073 33.5904C60.2245 32.4115 60.3695 31.2054 60.2517 29.9994C60.1882 29.283 60.7772 28.6663 60.4329 27.9499C60.4057 27.8865 60.4873 27.7595 60.5507 27.7142ZM55.4761 49.877C55.9292 49.0971 56.1376 48.2356 55.8839 47.3832C55.3673 45.6239 55.1499 43.774 54.3706 42.0873C54.0806 41.4616 53.8722 40.7906 53.8631 40.0923C53.854 39.2762 53.7543 38.4691 53.7 37.6802C53.0294 37.5079 52.377 37.3809 51.7517 37.1814C50.0662 36.6555 48.3354 36.4197 46.5683 36.3743C45.5625 36.3562 44.5566 36.3743 43.6051 35.93C43.5055 35.8847 43.3695 35.8484 43.2699 35.8756C42.8983 36.0116 42.7443 35.8393 42.6536 35.5038C42.6083 35.3406 42.554 35.1683 42.2549 35.0594C42.1099 35.3859 42.1553 35.7033 42.1281 36.0116C42.0103 37.3356 41.829 38.6414 41.2672 39.8656C40.8322 40.8178 40.1345 41.4526 39.0561 41.5704C36.5369 41.8334 34.3621 43.0667 32.151 44.1458C31.5711 44.4269 31.4895 44.699 31.7342 45.2612C32.4048 46.8209 33.1116 48.3626 34.1718 49.7137C34.8696 50.5933 35.513 51.5183 36.2379 52.3707C37.2891 53.6131 37.9415 55.0186 38.1862 56.6237C38.2315 56.9139 38.2406 57.2404 38.449 57.4671C38.7299 57.4127 38.8296 57.2132 38.9655 57.0771C39.6995 56.3245 40.5785 55.8801 41.6206 55.7985C42.0737 55.7622 42.5358 55.726 42.998 55.726C43.9948 55.7441 44.9463 55.5355 45.8343 55.1093C47.1936 54.4473 48.6163 54.0483 50.1296 53.9123C51.2895 53.8035 52.3951 53.4861 53.2741 52.6428C54.144 51.8176 54.8871 50.9017 55.4761 49.877ZM46.3962 5.68741C46.9127 4.15488 46.1787 2.83999 44.611 2.45006C44.3935 2.39565 44.1579 2.34123 43.9314 2.33216C42.9255 2.27775 41.9196 2.27776 40.9138 2.40471C39.0561 2.64049 37.2438 3.0667 35.4405 3.58359C33.4831 4.14582 31.5348 4.20928 29.6409 3.24804C29.1063 2.976 28.5263 2.78557 27.8104 2.66768C27.9101 2.9488 28.1729 3.13923 27.9011 3.41128C27.7923 3.52009 27.8376 3.68333 27.8648 3.82842C28.1367 5.00729 27.9735 6.17709 27.7379 7.33783C27.6292 7.90913 27.602 8.48042 27.6201 9.05172C27.6383 10.0402 28.0189 10.8291 28.8254 11.4185C29.2875 11.7541 29.7497 12.0986 30.2209 12.4342C30.9005 12.9239 31.5529 13.4408 32.151 14.0211C33.0844 14.9098 33.7187 15.9436 33.6734 17.2766C33.6553 17.7391 33.909 17.8751 34.2896 17.9386C34.9421 18.0474 35.6126 18.0112 36.2651 18.0474C37.5247 18.1109 38.6483 17.7663 39.627 16.9592C40.3429 16.3698 41.1675 15.9617 42.0375 15.6443C42.554 15.463 43.0614 15.2635 43.5689 15.064C44.0854 14.8554 44.5476 14.5562 44.8919 14.1209C46.4505 12.144 46.9943 9.93135 46.3418 7.48293C46.2149 6.85722 46.1878 6.29498 46.3962 5.68741ZM42.2821 33.2095C42.9164 32.0941 43.0795 30.888 42.8439 29.6185C42.6355 28.5212 42.2006 27.5237 41.6297 26.5897C40.7235 25.0844 39.7901 23.5972 38.8477 22.1191C38.449 21.4843 37.9687 20.913 37.4522 20.3598C36.7997 19.6706 36.0295 19.2898 35.0689 19.3714C34.7065 19.4077 34.4527 19.3623 34.2534 18.9452C34.0178 18.4555 33.6553 18.4918 33.4197 18.9905C33.1569 19.5346 32.7491 19.9155 32.2507 20.2238C31.118 20.913 29.9853 21.5931 28.7347 22.0465C27.5839 22.4636 26.569 23.0984 25.6628 23.9146C25.1463 24.3771 24.5935 24.7942 24.0407 25.1932C23.207 25.7917 22.2737 26.1454 21.2316 26.1998C20.86 26.2179 20.4885 26.2814 20.117 26.2995C18.7758 26.3449 17.8696 27.0703 17.2172 28.1857C17.0541 28.4668 16.9363 28.7298 17.1084 29.0744C17.2806 29.4281 17.2081 29.7999 17.0541 30.1626C16.9272 30.4528 16.8457 30.7611 16.7732 31.0694C16.3926 32.6473 16.6825 33.9894 18.1687 34.8871C18.2412 34.9325 18.3046 34.9869 18.3771 35.0413C19.0024 35.4766 19.238 36.0751 19.2289 36.8277C19.2198 37.6348 18.9208 38.3422 18.6127 39.0585C18.4949 39.3306 18.3499 39.5664 18.4677 39.9109C18.7849 39.9019 18.9208 39.6843 19.1292 39.5845C19.2652 39.521 19.4373 39.4575 19.5098 39.6117C19.9448 40.5457 20.7875 40.5185 21.6212 40.5548C22.5727 40.5911 23.5423 40.5548 24.4576 40.7452C26.8408 41.2349 29.1244 41.9967 30.8008 43.9373C30.9821 44.1549 31.1361 44.2637 31.4442 44.0642C32.7944 43.2299 34.2534 42.6133 35.7033 41.9785C36.6004 41.5886 37.5428 41.2621 38.5215 41.1986C39.8989 41.1079 40.651 40.3372 41.0497 39.0948C41.4031 37.9885 41.5934 36.855 41.6115 35.7033C41.6387 34.7874 41.8381 33.9803 42.2821 33.2095ZM37.6334 58.0565C38.0593 57.9658 38.0049 57.7028 37.9506 57.4036C37.6697 55.6171 37.0897 53.9758 35.8845 52.5521C34.0993 50.4392 32.4591 48.2265 31.3808 45.633C30.8008 44.2184 29.7134 43.1574 28.2816 42.5226C27.5476 42.1961 26.8046 41.8878 26.0524 41.5886C25.545 41.38 25.0103 41.2621 24.4666 41.2077C23.4608 41.117 22.464 41.0082 21.449 41.0445C20.86 41.0717 20.2982 41.0173 19.7998 40.6727C19.6548 40.5729 19.5008 40.4913 19.3195 40.5185C19.102 40.5457 18.9661 40.6999 19.1383 40.8541C19.5189 41.1987 19.6639 41.6702 19.8904 42.0964C20.4069 43.0214 20.5247 43.9917 20.0988 44.9982C19.2923 46.9116 19.0024 48.9248 19.0567 50.9289C19.0567 51.3641 19.0477 51.7359 19.0567 52.1168C19.093 53.7582 19.5189 55.2453 20.8147 56.3698C20.9235 56.4605 21.0322 56.5874 21.0503 56.7144C21.2225 57.6122 21.8206 58.2288 22.4096 58.8636C22.8627 59.3442 23.2705 59.8701 23.6601 60.4052C24.2038 61.1488 24.7204 61.9105 25.2459 62.6632C25.7534 63.3886 26.424 63.8148 27.3392 63.8602C28.8888 63.9327 30.4384 64.0325 31.9879 64.105C32.6676 64.1413 33.3019 63.9781 33.8818 63.6063C35.1867 62.772 36.2651 61.711 37.1078 60.4052C37.4159 59.9246 37.6062 59.453 37.3162 58.8726C37.135 58.5371 37.1622 58.1563 37.6334 58.0565ZM32.9575 18.7094C33.3109 17.4036 33.2928 16.1431 32.3776 15.0368C31.8067 14.3476 31.127 13.7672 30.4112 13.2322C29.8131 12.7878 29.2059 12.3526 28.5897 11.9173C27.5386 11.1828 27.0674 10.1671 27.0674 8.88851C27.0674 8.04516 27.1942 7.229 27.3392 6.40379C27.5205 5.39722 27.4389 4.41786 27.2033 3.42035C27.0402 2.73117 26.7502 2.37749 26.0706 2.25054C25.7806 2.19613 25.4906 1.98757 25.2459 1.8062C24.4938 1.24397 23.6511 1.0354 22.908 1.09887C21.7209 1.13515 20.7241 1.29837 19.7454 1.52508C19.2652 1.6339 18.7939 1.78807 18.4043 2.08733C16.8185 3.32967 15.5498 4.835 14.7161 6.68492C14.5168 7.12926 14.4262 7.61894 14.3718 8.10863C14.3084 8.70713 14.254 9.3147 14.1906 9.9132C14.0546 11.1193 13.4384 11.9354 12.2785 12.3254C12.061 12.3979 11.8435 12.4704 11.6261 12.543C10.7652 12.7969 10.1943 13.3682 9.89526 14.2025C9.5056 15.2544 9.18845 16.3335 9.00721 17.4398C8.9619 17.6938 8.91658 17.9477 8.90752 18.2106C8.87128 19.1719 9.12501 19.5618 10.0221 19.9155C10.448 20.0878 10.883 20.2329 11.3089 20.4142C12.2241 20.8132 12.6863 21.5296 12.641 22.5271C12.6138 23.0984 12.5776 23.6788 12.4598 24.241C12.2332 25.3655 12.6682 26.1272 13.6287 26.6713C13.9731 26.8708 14.399 27.025 14.5802 27.3877C14.8611 27.9499 15.3595 28.1222 15.876 28.3036C16.5104 28.5303 16.5376 28.5394 16.891 27.9318C17.6703 26.5534 18.8483 25.8733 20.416 25.8189C20.5338 25.8098 20.6425 25.8008 20.7604 25.8008C22.0471 25.7917 23.1798 25.3474 24.1766 24.5494C24.5844 24.2229 24.9922 23.9146 25.3728 23.5609C26.3152 22.6904 27.3755 22.0375 28.5807 21.584C29.795 21.1306 30.9096 20.4596 32.006 19.7794C32.4229 19.5165 32.8216 19.2081 32.9575 18.7094ZM19.8451 44.3725C20.0354 43.6108 19.836 42.9035 19.5098 42.2052C19.2742 41.6883 18.8936 41.4979 18.368 41.4888C18.3227 41.4888 18.2684 41.4344 18.2231 41.3982C17.9331 41.108 17.6793 41.2621 17.3712 41.3891C16.2204 41.8606 15.1873 42.5498 14.0637 43.0667C13.529 43.3115 13.4565 43.4838 13.7556 43.9826C13.9821 44.3544 14.1271 44.7443 14.2902 45.1433C14.8521 46.5852 14.7161 48.1631 15.1692 49.623C15.2327 49.8225 15.2327 50.0402 15.0061 50.149C14.7524 50.2669 14.5621 50.1399 14.4171 49.9495C14.2721 49.759 14.2177 49.5414 14.1724 49.3056C14.1181 48.9883 14.0184 48.6799 13.7556 48.4714C13.3569 48.154 13.2119 47.7278 13.23 47.2472C13.2753 46.1408 12.8766 45.2431 12.1154 44.4541C11.6532 43.9645 11.6895 43.9282 11.0824 44.2002C8.86221 45.2249 6.64207 46.2496 4.42193 47.2743C4.2407 47.356 4.05946 47.4557 3.87823 47.5373C3.52482 47.6915 3.51576 47.9001 3.68793 48.2175C3.92354 48.6437 4.33133 49.0245 4.34039 49.5142C4.36757 50.3304 4.5488 50.9923 5.05626 51.7087C5.55466 52.4161 5.47311 53.468 5.88089 54.3022C6.00776 54.5652 5.79933 54.8645 5.50029 54.9914C5.14688 55.1275 4.95658 54.9098 4.82972 54.6287C4.57599 54.0755 4.25882 53.5677 3.86917 53.0962C3.73324 52.9239 3.65169 52.6881 3.58825 52.4705C3.27109 51.219 2.54615 50.0946 2.40116 48.7797C2.36491 48.4442 2.13837 48.426 1.90276 48.5711C1.40436 48.8704 1.10533 49.3056 1.07814 49.886C1.05096 50.4573 1.07814 51.0377 1.15063 51.609C1.37717 53.477 2.17461 55.1275 3.09892 56.7416C4.29507 58.8364 6.03493 60.3326 8.09196 61.5115C8.45443 61.7201 8.78066 61.7201 9.1522 61.5659C10.6746 60.9221 12.0338 60.0152 13.375 59.0631C13.665 58.8636 13.665 58.6641 13.3931 58.4464C12.8766 58.0384 12.5776 57.4852 12.3601 56.8776C12.2332 56.524 12.0067 56.2247 11.762 55.9345C11.3905 55.4992 11.1911 55.0005 11.2092 54.4292C11.2364 53.6221 11.4176 52.8332 11.3905 52.0261C11.3814 51.8448 11.463 51.6634 11.6533 51.6362C11.9251 51.5999 11.9885 51.8266 12.0067 52.0261C12.0701 52.9057 12.5141 53.604 13.0125 54.2751C13.2119 54.538 13.3025 54.8282 13.3569 55.1456C13.4656 55.726 13.674 56.2519 14.1181 56.66C14.3808 56.9048 14.5258 57.2041 14.6436 57.5396C14.8521 58.1472 14.8702 58.1563 15.4683 57.8751C16.4107 57.4308 17.3803 57.0771 18.3771 56.8051C18.8755 56.6691 19.3558 56.4786 19.7454 56.1703C19.7636 55.9799 19.6729 55.862 19.5914 55.7532C18.8936 54.7466 18.6036 53.6221 18.5946 52.4161C18.5946 51.6725 18.5946 50.9198 18.5946 50.1671C18.5946 48.417 18.9027 46.7303 19.5733 45.1071C19.6911 44.8713 19.7817 44.6264 19.8451 44.3725ZM14.2177 48.0996C14.254 46.5489 13.8009 45.1887 13.1031 43.901C12.94 43.6108 12.7497 43.511 12.4869 43.6833C12.206 43.8647 12.4779 44.0279 12.5775 44.173C13.2572 45.1524 13.7918 46.168 13.6922 47.4195C13.665 47.7096 13.8009 47.9726 14.2177 48.0996ZM14.0999 58.3104C14.2268 57.7391 14.0546 57.3673 13.7284 57.0499C13.2572 56.5874 12.9763 56.0252 12.8675 55.3995C12.7588 54.7375 12.3601 54.275 11.8435 53.6131C11.6986 54.3929 11.6714 54.9642 12.0429 55.4539C12.4779 56.0071 12.7769 56.6056 13.0397 57.2494C13.2481 57.7119 13.5562 58.0928 14.0999 58.3104ZM4.80254 53.2413C4.7391 52.6337 4.82066 52.0352 4.30414 51.6271C3.86917 51.2916 3.72419 50.8472 3.79668 50.3394C3.90542 49.5233 3.45233 48.9611 2.99924 48.3081C2.80894 49.3873 3.97791 52.5702 4.80254 53.2413Z" fill="black"/>
<path d="M50.7135 28.6646C51.8229 28.8625 52.2539 29.9506 51.4837 30.7779C50.8511 31.4614 50.2918 32.1718 49.87 32.9902C49.7875 33.1431 49.6867 33.2869 49.4941 33.3139C49.3382 33.3409 49.2007 33.2779 49.1365 33.134C49.0815 33.0081 49.1732 32.9542 49.2649 32.8733C49.705 32.4776 49.705 32.4506 49.2282 32.2258C48.8798 32.0549 48.6231 31.8661 48.7423 31.4434C48.8065 31.2006 48.7056 31.0028 48.6139 30.7959C48.2105 29.8787 48.238 29.7887 49.1182 29.1862C48.999 28.7725 48.6689 28.6646 48.4122 28.4848C48.1005 28.2689 47.8254 28.0082 47.6787 27.6574C47.5779 27.4146 47.4954 27.1358 47.7429 26.956C48.018 26.7671 48.238 26.965 48.4122 27.1718C48.5956 27.3876 48.779 27.6215 48.9073 27.8733C49.164 28.3589 49.5675 28.5657 50.1084 28.6017C50.3101 28.6107 50.5118 28.6287 50.7135 28.6646ZM51.392 29.9056C51.392 29.6089 51.337 29.3121 51.0253 29.2042C50.6494 29.0693 50.2551 28.9524 49.8517 29.0693C49.7692 29.0963 49.7508 29.1952 49.7692 29.2851C49.8517 29.6718 49.6408 29.7528 49.2924 29.8067C48.8065 29.8787 48.7148 30.0765 48.9073 30.4991C48.9623 30.625 49.054 30.742 49.1365 30.8499C49.8792 31.7582 49.9984 31.7582 50.8144 30.9128C51.1078 30.6251 51.392 30.3373 51.392 29.9056Z" fill="black"/>
<path d="M50.6454 48.3736C50.6544 48.4101 50.6003 48.4648 50.5553 48.5469C50.1589 48.4101 50.1589 48.0179 50.0598 47.7169C49.8706 47.1696 49.6814 46.6223 49.303 46.1662C49.0507 45.856 48.9246 45.8743 48.7354 46.2209C48.6363 46.3942 48.5823 46.604 48.4832 46.7682C48.3751 46.9415 48.1588 47.1331 47.9877 47.0145C47.4201 46.6496 46.7984 46.978 46.2399 46.8321C45.4741 46.6314 45.1407 46.8868 44.7984 47.6165C44.429 48.4101 43.7443 49.0486 43.2037 49.751C43.0326 49.9699 42.7983 49.9243 42.5731 49.9334C41.9064 49.9517 41.3478 50.1979 40.9334 50.7361C40.8253 50.8729 40.7172 51.028 40.7893 51.2105C40.8703 51.4203 41.0595 51.3838 41.2307 51.3838C41.4199 51.3838 41.6091 51.2834 41.7893 51.3929C41.7623 51.6209 41.5911 51.6392 41.465 51.6574C41.1046 51.7121 40.6902 51.8398 40.4559 51.4294C40.2307 51.028 40.51 50.7088 40.7532 50.426C41.1406 49.9699 41.6451 49.6871 42.2307 49.6233C42.6722 49.5777 42.9605 49.3679 43.2128 49.0213C43.6002 48.4831 44.0596 47.9996 44.429 47.4523C44.7173 47.0418 44.6362 46.8868 44.1767 46.6496C44.1227 46.6223 44.0686 46.604 44.0146 46.5858C42.9515 46.1023 42.9064 45.929 43.6632 44.9804C43.7984 44.8071 43.8164 44.6246 43.8614 44.4239C43.9515 44.0499 44.2038 43.9405 44.5641 44.0956C44.8795 44.2324 44.8704 44.4239 44.7263 44.7158C44.438 45.2996 44.6542 45.8925 45.2939 46.1662C46.2038 46.5584 47.1678 46.4398 48.0687 46.1935C48.5642 46.0567 48.6814 45.4638 48.6183 44.9439C48.5102 44.0682 48.6453 43.2108 48.8616 42.3716C48.9426 42.0614 48.9426 41.5415 49.3841 41.6054C49.8255 41.6692 49.6814 42.1618 49.6814 42.481C49.6814 43.1834 49.5553 43.8675 49.3481 44.5334C49.1859 45.0533 49.2399 45.4729 49.6003 45.8925C50.2039 46.6131 50.4111 47.4979 50.6454 48.3736ZM44.393 46.1935C44.438 45.929 44.2488 45.7739 44.1587 45.5824C44.0686 45.3999 43.9155 45.3635 43.7533 45.5003C43.5821 45.6462 43.5101 45.8195 43.7173 45.9929C43.9155 46.1388 44.1317 46.2574 44.393 46.1935Z" fill="black"/>
<path d="M31.0899 29.4167C31.1352 29.7464 31.3795 30.0486 31.3161 30.4607C30.8909 30.4058 30.9451 30.0303 30.6465 29.8471C30.0946 30.4058 29.425 30.7996 28.6016 30.7996C28.4659 31.1018 28.7011 31.1842 28.8369 31.3124C29.1083 31.5689 29.4069 31.7978 29.6693 32.0634C30.4565 32.851 30.3027 33.4096 29.2259 33.721C28.8912 33.8126 28.5564 33.8676 28.2125 33.9317C28.0225 33.9683 27.8144 33.9683 27.6787 34.124C27.6515 34.3529 27.8234 34.4445 27.932 34.5636C28.1673 34.82 28.3121 35.0856 28.0587 35.4061C27.8596 35.6534 27.9954 35.8365 28.1673 36.0014C28.4206 36.2395 28.7102 36.4227 29.0088 36.5967C29.1897 36.7066 29.4612 36.7249 29.5245 36.9996C28.855 37.018 27.6515 36.2578 27.4796 35.7175C27.4524 35.6351 27.4253 35.516 27.4615 35.4702C27.932 34.9024 27.4253 34.6826 27.0996 34.3804C26.7648 34.0599 26.81 33.8218 27.2534 33.7027C27.7782 33.5653 28.3211 33.5104 28.855 33.3913C29.1807 33.3181 29.606 33.3181 29.6874 32.906C29.7598 32.558 29.3979 32.3656 29.1717 32.155C28.7916 31.807 28.3754 31.4864 27.9954 31.1384C27.8144 30.9736 27.5339 30.7996 27.6877 30.4974C27.8144 30.2318 28.0858 30.3142 28.303 30.3417C28.7102 30.3875 29.1174 30.3691 29.4793 30.186C30.0493 29.9021 30.4475 29.4625 30.4475 28.7665C30.4475 28.6199 30.4565 28.4734 30.4837 28.336C30.5018 28.217 30.5832 28.1162 30.7099 28.1071C30.8818 28.0979 30.9723 28.2262 30.9904 28.3727C31.0447 28.7207 31.0447 29.0687 31.0899 29.4167Z" fill="black"/>
</svg>
