<svg width="92" height="92" viewBox="0 0 92 92" fill="none" xmlns="http://www.w3.org/2000/svg">
<rect width="92" height="92" fill="white"/>
<path d="M81.132 49.7624C81.4954 50.7716 81.6226 51.7718 80.8594 52.6728C80.7504 52.808 80.5869 53.0152 80.7323 53.1143C81.2319 53.4567 80.8594 53.7991 80.814 54.1596C80.6959 54.9435 80.6232 55.7364 80.5415 56.5203C80.4416 57.4304 80.3507 58.3405 80.2326 59.2505C80.0691 60.512 79.5149 61.6474 78.6701 62.5394C77.4981 63.7738 76.0355 64.6479 74.3004 64.9903C73.728 65.0984 73.3737 64.8101 73.0103 64.4767C72.8741 64.3505 72.756 64.1883 72.5834 64.3415C72.2109 64.6659 71.8112 64.4046 71.4205 64.4316C71.0299 64.4586 70.7755 64.2334 70.5938 63.909C70.2849 63.3503 70.1305 62.7376 70.0306 62.1159C69.8852 61.2148 69.7944 60.3048 69.7853 59.2505C69.6763 57.8539 70.0487 56.4302 70.7846 55.0967C71.7112 53.4117 72.7832 51.8078 74.2004 50.4833C75.3905 49.375 76.8531 48.7712 78.4429 48.4919C78.988 48.3928 79.5331 48.4919 80.0509 48.7082C80.5597 48.9154 80.9503 49.2488 81.132 49.7624Z" fill="#BDEAC8"/>
<path d="M70.6064 68.908C71.0604 69.0263 71.1693 69.3173 71.1421 69.7447C71.1058 70.2086 70.8879 70.5632 70.5973 70.8906C69.9073 71.6455 69.1083 72.2548 68.2185 72.7368C67.8371 72.946 67.4558 73.1552 67.1017 73.3916C66.7203 73.6372 66.4752 73.9828 66.4752 74.4648C66.4661 75.5743 65.9395 76.4383 65.0497 77.0022C63.152 78.1936 61.2453 79.4031 59.0298 79.9488C57.9948 80.2034 56.9415 80.349 55.9064 80.64C54.9531 80.9037 54.0451 81.2584 53.237 81.8313C52.1111 82.6226 50.8309 82.8681 49.478 82.9409C47.8165 83.0227 46.2638 82.7044 44.802 81.9405C42.9044 80.9492 40.9704 80.8128 38.9456 81.4949C37.9469 81.8314 36.9027 81.8041 35.8676 81.704C35.0414 81.6222 34.4694 81.2311 34.2333 80.3944C34.1062 79.9488 33.9518 79.5123 33.7793 79.0848C33.398 78.1663 32.7351 77.5933 31.7273 77.4205C31.4277 77.3659 31.0826 77.4296 30.8193 77.0749C31.3096 76.6748 31.7364 76.2109 31.9543 75.6016C32.0269 75.4015 32.1904 75.3833 32.372 75.4106C32.6807 75.4652 32.9985 75.538 33.3072 75.5652C34.2151 75.6289 34.6328 75.2924 34.7962 74.3829C34.887 73.9009 34.8053 73.4189 34.7508 72.8732C36.1582 74.192 37.0843 76.5656 36.9027 78.2754C36.8755 78.5028 36.7847 78.7574 37.0389 78.8938C37.2841 79.0211 37.4747 78.8393 37.6472 78.6847C37.9287 78.4391 38.1557 78.139 38.3464 77.8116C39.3724 76.0563 39.6629 74.201 39.0637 72.2366C39.0092 72.0729 38.9638 71.9092 38.9184 71.7364C38.9093 71.7182 38.9275 71.6819 38.9547 71.5818C39.6629 71.691 40.1078 72.1457 40.4438 72.7186C40.8524 73.4007 41.0521 74.1556 41.1974 74.9195C41.3245 75.5743 41.4244 76.2291 41.5515 76.8748C41.6151 77.184 41.6695 77.5024 41.7785 77.7934C42.069 78.6028 42.5593 78.8575 43.4037 78.6392C43.7851 78.5391 44.1574 78.3754 44.6204 78.2117C44.7203 78.8211 44.6658 79.3758 44.6386 79.9397C44.6023 80.8128 44.8474 81.031 45.6373 80.7673C46.5998 80.449 47.5713 80.2216 48.5791 80.0943C49.4145 79.9852 49.6142 79.6487 49.242 78.9211C48.3431 77.1386 47.6258 75.2833 46.8449 73.4553C46.7087 73.1461 46.5181 72.8551 46.3092 72.464C47.0719 72.2275 47.6894 72.3549 48.2341 72.8642C48.6881 73.2916 48.9514 73.8373 49.1602 74.4102C49.4145 75.1196 49.6233 75.8381 49.8594 76.5474C50.1863 77.5206 50.6312 78.4209 51.4937 79.0302C51.5845 79.0939 51.7026 79.1667 51.7389 79.2667C51.9205 79.7487 52.1202 79.8397 52.5379 79.4486C52.9011 79.1121 53.3187 79.294 53.6184 79.5941C54.2449 80.2216 55.0166 80.2034 55.7975 80.1762C55.9791 80.1671 56.1425 80.1034 56.1788 79.8942C56.2061 79.7214 56.088 79.6305 55.9518 79.5759C55.4797 79.4122 55.625 79.103 55.7884 78.8211C55.9609 78.521 56.1607 78.239 56.3513 77.948C56.9052 77.0931 56.8416 76.2564 56.2787 75.4379C55.9791 75.0105 55.6068 74.6467 55.2164 74.3011C54.9349 74.0464 54.6625 73.7918 54.3811 73.5463C54.1268 73.328 54.0633 73.0915 54.2812 72.8005C54.4719 72.5458 54.5717 72.2366 54.6534 71.9274C54.7533 71.5727 54.7624 71.2089 54.3992 71.0089C54.0996 70.8543 54.1722 70.6633 54.2358 70.4359C54.5082 69.5265 54.7715 69.3628 55.6704 69.5992C56.4512 69.7993 57.2321 69.9994 57.9948 70.2631C58.9209 70.5905 59.1479 71.0089 58.9844 71.9911C58.9391 72.273 58.8755 72.564 58.7756 72.8278C58.4033 73.7827 58.4669 74.7467 58.6667 75.7198C58.7665 76.2382 59.2024 76.5202 59.4566 76.9294C59.5474 77.0658 59.729 76.984 59.8016 76.8475C59.9106 76.6566 59.8924 76.4201 60.1012 76.2473C61.4813 75.0923 61.6629 73.5826 61.3452 71.9183C61.209 71.2089 60.8912 70.5541 60.6642 69.8721C60.873 69.6811 60.991 69.8721 61.1091 69.963C62.0624 70.7451 62.7979 71.7001 63.2791 72.8369C63.6241 73.6645 63.6877 74.4648 62.9341 75.1378C62.7888 75.2651 62.6254 75.4379 62.7434 75.6653C62.8796 75.9199 63.1248 75.8744 63.3518 75.8563C63.4335 75.8472 63.5243 75.829 63.606 75.8108C65.204 75.3651 67.6374 72.4731 66.2936 70.536C66.2663 70.4996 66.2845 70.4268 66.2754 70.3177C66.9291 70.254 67.4376 70.4996 67.9007 70.9361C68.3637 71.3817 68.6361 71.2908 68.7542 70.6451C68.845 70.1358 68.8904 69.6174 68.9267 69.099C68.9812 68.2805 68.9902 68.2623 69.7892 68.5715C70.0707 68.6898 70.334 68.8262 70.6064 68.908Z" fill="#8ADD9E"/>
<path d="M76.0771 64.9661C76.2043 64.9207 76.3224 64.8118 76.5132 64.8935C76.3678 65.4382 76.0498 65.8105 75.5229 66.0466C74.2329 66.6186 73.0155 67.3449 71.671 67.808C71.5347 67.8534 71.3348 67.8806 71.2803 67.9805C70.9533 68.5888 70.5444 68.2801 70.1265 68.1167C68.5821 67.4993 68.5549 67.5174 68.5003 69.1517C68.4913 69.5512 68.5367 69.9598 68.2823 70.3593C67.5374 69.869 66.7288 69.7328 65.8839 69.7691C65.6841 69.7782 65.4569 69.7691 65.3843 70.0143C65.3207 70.205 65.4569 70.3321 65.5569 70.4773C66.4472 71.6577 66.4653 72.384 65.6386 73.6007C65.2298 74.1999 64.7574 74.7175 63.9761 75.1533C64.5485 73.6733 64.0034 72.5475 63.2948 71.467C62.8223 70.7406 62.25 70.0869 61.5596 69.5512C61.3324 69.3697 61.0962 69.1971 60.8055 69.1336C60.424 69.0519 60.1877 69.2425 60.1787 69.633C60.1696 70.0234 60.3513 70.3593 60.4875 70.7043C60.8237 71.5669 61.1053 72.4385 61.0599 73.3918C61.0326 73.982 60.8782 74.5268 60.6056 75.0443C60.433 75.3712 60.215 75.6708 59.8607 75.8251C59.143 75.1079 59.0885 74.3089 59.3519 73.4191C59.5336 72.8198 59.7244 72.2115 59.7335 71.5669C59.7426 70.8224 59.4337 70.2776 58.7614 69.978C57.6531 69.4695 56.463 69.2335 55.2819 68.9701C54.8095 68.8612 54.428 69.1063 54.2009 69.524C53.6921 70.4683 53.3832 71.4852 53.2651 72.5565C53.2197 72.956 53.3741 73.2557 53.6739 73.5462C54.1463 74.0093 54.6369 74.4632 55.1275 74.9081C55.4455 75.1987 55.7544 75.5074 55.9906 75.8796C56.3721 76.4698 56.3903 77.069 56.0269 77.6683C55.6817 78.2312 55.2274 78.7306 55.1638 79.4297C55.1366 79.6748 54.9458 79.6476 54.7641 79.5931C54.4825 79.5023 54.2735 79.3026 54.0464 79.121C53.6648 78.8214 53.2469 78.6489 52.7654 78.7851C52.4111 78.894 52.1568 78.7578 51.8933 78.5581C51.3482 78.1404 50.9757 77.5956 50.7486 76.9601C50.4942 76.261 50.2762 75.5437 50.04 74.8264C49.8038 74.1182 49.5312 73.41 49.0588 72.8199C48.2957 71.8574 47.1238 71.5578 46.0336 72.0209C45.4158 72.2842 45.3704 72.4839 45.8792 72.8925C46.188 73.1376 46.3788 73.4463 46.5242 73.7914C47.251 75.5437 47.9232 77.3323 48.8226 79.012C48.968 79.2844 49.0043 79.5477 48.6137 79.5841C47.5235 79.6839 46.4787 79.9835 45.3795 80.3467C45.3795 79.5659 45.3795 78.8759 45.3795 78.1949C45.3795 77.4776 45.216 77.3777 44.5619 77.6683C44.2166 77.8226 43.8896 78.0042 43.5353 78.1223C42.8448 78.3583 42.5995 78.2312 42.3815 77.523C42.2452 77.0599 42.1635 76.5697 42.0817 76.0885C41.9 75.0716 41.7456 74.0365 41.3277 73.0741C40.9279 72.1389 40.3374 71.3853 39.2836 71.1129C39.0928 71.0584 38.8838 71.0221 38.6931 71.0312C38.3751 71.0493 38.2206 71.2309 38.3388 71.5578C38.4114 71.7485 38.5205 71.921 38.584 72.1117C39.3381 74.1909 39.011 76.1157 37.8028 77.9407C37.7028 77.868 37.6301 77.8408 37.6301 77.8136C37.6301 76.5878 37.1759 75.5074 36.5945 74.4632C35.9676 73.3283 35.1863 72.2842 34.4959 71.1856C34.4505 71.1129 34.405 71.0403 34.3414 70.9767C34.2597 70.895 34.1597 70.8224 34.0416 70.8768C33.9145 70.9313 33.8872 71.0493 33.9145 71.1674C33.9599 71.358 34.0326 71.5487 34.0961 71.7394C34.3596 72.5384 34.5141 73.3555 34.4505 74.1999C34.3959 74.9717 34.1052 75.2078 33.3239 75.1351C32.6244 75.0625 32.0248 74.8446 31.5161 74.2726C30.8619 73.5371 30.1988 72.8199 29.6355 72.0209C28.4726 70.3775 27.3007 68.725 26.1378 67.0725C25.7472 66.5096 25.3656 65.9376 24.9932 65.1749C25.6654 65.3384 26.2014 65.4836 26.7465 65.5926C27.2462 65.6925 27.3825 65.529 27.2189 65.0297C27.0463 64.4849 26.8283 63.9492 26.6466 63.4044C26.5557 63.1411 26.4831 62.8688 26.5194 62.5601C26.7102 62.8415 26.901 63.123 27.0827 63.4044C27.4642 63.9764 27.8367 64.5666 28.2455 65.1295C28.9087 66.0647 29.799 66.6731 30.9619 66.782C32.3064 66.9091 33.433 67.5084 34.5231 68.2347C35.3862 68.8067 36.2402 69.406 37.1214 69.9507C37.503 70.1868 37.939 70.5409 38.3933 70.2413C38.8384 69.9507 38.7112 69.4241 38.6567 68.9611C38.6476 68.8794 38.6749 68.7976 38.684 68.7069C39.0201 68.7159 39.1927 68.9702 39.4108 69.1427C40.292 69.7964 41.1641 70.4501 42.1362 70.9767C42.5905 71.2219 43.0629 71.4579 43.5807 71.5487C44.5346 71.7212 45.0161 71.3217 45.0252 70.3502C45.0343 69.6693 44.789 69.0519 44.4801 68.4617C44.3529 68.2166 44.2166 67.9714 44.1621 67.6082C44.6164 67.8261 45.0615 68.0531 45.5249 68.271C45.9973 68.4889 46.4606 68.725 46.9421 68.9157C47.9142 69.2879 48.8681 69.2879 49.7402 68.6433C50.3216 68.2075 50.9485 68.1802 51.6298 68.3527C52.4293 68.5616 53.2288 68.5707 54.001 68.2256C54.4189 68.044 54.755 67.7807 54.8095 67.2995C54.8913 66.6549 55.3183 66.437 55.8906 66.3825C57.2624 66.2554 58.5979 66.2554 59.7062 67.2904C60.1605 67.7172 60.7147 67.6718 61.2325 67.354C61.8048 67.009 62.2954 66.5641 62.7133 66.0466C63.2766 65.3474 63.4401 65.3202 64.2214 65.7923C64.7665 66.1192 65.2752 66.4915 65.8567 66.7548C67.1195 67.3268 67.8372 67.0907 68.5003 65.8741C68.573 65.747 68.6275 65.6198 68.6911 65.4927C69.1726 64.5212 69.2181 64.5031 70.2901 64.8027C70.4808 64.8572 70.6989 64.8753 70.8715 64.9752C72.5976 66.0738 74.3328 65.5835 76.0771 64.9661Z" fill="#6CC080"/>
<path d="M29.1562 72.3829C29.7164 73.1832 30.3398 73.9291 31.1258 74.7385C29.879 74.8204 29.2918 75.457 29.2195 76.6667C28.1895 76.2392 27.2589 75.8936 26.4548 75.2751C25.0815 74.211 23.907 73.0013 23.0215 71.4552C22.0458 69.7635 20.9164 68.1628 19.9587 66.4529C19.1636 65.0249 18.1246 64.8067 16.6881 65.5979C16.3628 65.7708 16.0647 66.0072 15.7665 66.2255C15.3328 66.5347 15.0618 66.4984 14.7907 66.0527C14.6281 65.7798 14.5106 65.4797 14.4203 65.1796C14.1312 64.1882 13.8421 63.1877 13.5801 62.1873C13.2277 60.8139 12.7669 59.486 12.1074 58.2218C11.2762 56.6484 10.8425 54.9476 10.6256 53.1922C10.5534 52.5556 10.2823 52.0644 9.8125 51.6733C10.463 51.6824 11.1135 51.7097 11.764 51.6915C12.8663 51.6551 13.7246 52.3009 13.9957 53.3923C14.0679 53.6743 14.1312 53.9471 14.2125 54.2291C14.2486 54.3655 14.33 54.4928 14.5739 54.4655C14.5287 53.6743 14.4835 52.8921 14.2306 52.0099C14.6642 52.2372 14.7275 52.5374 14.854 52.7829C15.631 54.2654 16.3899 55.748 17.1579 57.2305C17.953 58.7584 18.9829 60.0772 20.284 61.205C21.603 62.351 22.886 63.5606 24.187 64.7248C24.3858 64.8976 24.3948 65.0613 24.3948 65.316C24.4039 65.8708 24.3497 66.4893 25.0996 66.7075C25.3164 66.7712 25.3977 67.0441 25.5242 67.2351C26.7439 68.9358 27.9546 70.6548 29.1562 72.3829ZM18.215 64.0154C18.4137 63.879 18.3957 63.6607 18.3595 63.4697C18.1879 62.5056 17.9168 61.5688 17.3838 60.723C17.2844 60.5683 17.194 60.3501 16.8688 60.4683C16.8868 60.9685 17.2844 61.3141 17.4199 61.7689C17.5735 62.2509 17.7994 62.7148 17.8174 63.3696C17.203 62.8694 16.679 62.4874 16.2454 61.9963C16.1279 61.8689 15.9653 61.7325 15.8117 61.9053C15.6581 62.0781 15.8117 62.2236 15.9382 62.3328C16.5164 62.8421 17.0946 63.3605 17.6819 63.8608C17.8355 63.9972 17.9981 64.1609 18.215 64.0154Z" fill="#8ADD9E"/>
<path d="M72.5129 50.514C73.1934 50.9583 72.6127 51.2665 72.3859 51.5748C71.7055 52.5086 71.0614 53.4606 70.4807 54.4579C69.4102 56.2892 69.0564 58.2657 69.3104 60.36C69.4556 61.5839 69.5463 62.8169 70.0543 63.9593C69.9636 64.0137 69.9092 64.0772 69.8729 64.0681C68.9022 63.8596 68.3941 64.3582 68.0131 65.1923C67.3417 66.661 66.8972 66.7789 65.4819 65.972C65.0283 65.7181 64.611 65.4099 64.1574 65.156C63.3046 64.6755 62.8056 64.7662 62.2159 65.5368C61.8439 66.0264 61.4085 66.4344 60.9004 66.7698C60.5194 67.0237 60.1474 67.069 59.7936 66.7426C58.5688 65.6003 57.0628 65.6456 55.5568 65.8088C54.8583 65.8813 54.2776 66.1896 54.1506 66.9874C54.078 67.4589 53.7424 67.6493 53.3432 67.7852C52.8079 67.9575 52.2545 67.9484 51.7192 67.7943C50.8029 67.5404 49.9683 67.613 49.179 68.2023C48.5802 68.6556 47.8998 68.6556 47.2012 68.4289C46.539 68.2204 45.9402 67.885 45.3142 67.5858C44.5068 67.205 43.6993 66.8333 42.8828 66.4616C42.7014 66.38 42.4837 66.2984 42.3385 66.5069C42.1843 66.7336 42.3748 66.8786 42.5199 67.0146C42.9554 67.4317 43.3455 67.894 43.6721 68.4108C43.9624 68.8823 44.1892 69.3809 44.289 69.9249C44.4614 70.8859 44.1167 71.1942 43.2094 70.8678C42.774 70.7136 42.3566 70.5142 41.9665 70.2694C40.4333 69.3446 39.0362 68.2295 37.7026 67.0418C37.4576 66.8242 37.2399 66.2349 36.8407 66.6248C36.5322 66.924 37.0494 67.1959 37.2308 67.4498C37.6209 67.9938 37.9475 68.5649 37.9838 69.254C38.0019 69.6348 37.8659 69.7254 37.512 69.5532C37.1764 69.39 36.8588 69.1814 36.5504 68.982C35.8337 68.5015 35.126 68.0028 34.4002 67.5314C33.3751 66.8696 32.3045 66.3437 31.0526 66.2349C29.9458 66.1442 29.1111 65.564 28.4942 64.6574C28.0769 64.0409 27.6686 63.4062 27.2513 62.7897C27.0154 62.4271 26.7795 62.0644 26.5164 61.729C26.3259 61.4933 26.1172 61.1669 25.7453 61.3573C25.4278 61.5295 25.5185 61.8559 25.591 62.137C25.709 62.5812 25.836 63.0254 25.9721 63.4606C26.1263 63.9502 26.2987 64.4307 26.4892 65.02C25.464 64.9203 24.7473 64.5033 24.1123 63.9411C22.6698 62.6537 21.2454 61.3573 19.8211 60.0608C18.9592 59.272 18.306 58.3291 17.7526 57.3137C16.9815 55.8994 16.2466 54.4669 15.4936 53.0435C15.294 52.6627 15.1035 52.2729 14.8857 51.9012C14.7406 51.6564 14.6317 51.3391 14.296 51.33C13.8969 51.3209 14.0057 51.7652 13.8243 51.9646C13.6156 51.9828 13.5068 51.8286 13.3979 51.7017C12.8354 51.0852 12.908 50.8586 13.7245 50.6047C14.5501 50.3418 15.3666 50.0516 16.0107 49.4351C16.2284 49.2266 16.4553 49.2176 16.7274 49.2357C17.4714 49.281 18.1518 49.0453 18.7687 48.6555C19.6487 48.1024 20.4834 47.495 21.1547 46.6881C21.318 46.4886 21.4632 46.2348 21.7172 46.1622C22.2706 46.0172 22.5881 45.6455 22.7877 45.1377C23.6949 45.6545 23.6949 45.6545 23.4863 46.407C24.0397 46.3889 24.5568 46.2257 25.083 46.1894C26.1445 46.0988 27.1696 46.262 28.1494 46.5611C32.0596 47.767 36.0877 48.5195 40.0341 49.5711C41.903 50.0607 43.8173 50.2964 45.7315 50.5231C49.8141 51.0127 53.7514 52.0734 57.6072 53.4606C60.2109 54.3944 62.7965 55.3645 65.3368 56.4524C65.7359 56.6247 65.745 56.6156 66.1986 56.6066C66.1714 56.3527 65.9446 56.3164 65.7722 56.2439C61.4901 54.3944 57.1263 52.7534 52.6356 51.4569C49.9411 50.6772 47.1831 50.2511 44.407 49.9247C42.8919 49.7434 41.3859 49.4805 39.9162 49.0634C37.0856 48.2656 34.1825 47.8123 31.361 46.9691C29.7462 46.4886 28.1313 45.9718 26.4892 45.7089C26.4438 45.446 26.589 45.3644 26.7069 45.31C27.3964 45.0108 27.7049 44.3853 28.0769 43.805C28.5214 43.0978 28.5214 43.0888 29.3198 43.3517C30.3086 43.6872 31.3066 43.9229 32.359 43.9229C32.8489 43.9229 33.2209 43.7869 33.5837 43.4333C34.9446 42.1006 36.3417 40.8222 37.7298 39.5167C37.8477 39.3988 37.9566 39.2447 38.1743 39.2537C38.4646 39.4713 38.51 39.834 38.6461 40.1422C39.8164 42.7714 41.5401 43.4968 44.2346 42.4904C44.3707 42.436 44.5068 42.3997 44.6338 42.3272C45.4412 41.8648 46.2759 41.5657 47.2375 41.6291C47.8091 41.6654 48.3625 41.4024 48.8887 41.1577C49.3877 40.931 49.8685 40.6771 50.3675 40.4414C51.5469 39.8975 51.9188 39.9518 52.8351 40.8403C53.2706 41.2574 53.6789 41.7107 54.1143 42.1187C54.45 42.436 54.7857 42.7533 55.1667 43.0072C55.9923 43.5693 56.4278 43.4333 56.836 42.5357C56.8995 42.4088 56.9267 42.2638 57.1173 42.1731C57.462 42.2819 57.6979 42.572 57.9882 42.8077C58.4146 43.1522 58.8138 43.5239 59.3037 43.7869C59.7573 44.0317 60.22 44.1405 60.7008 43.8685C61.1635 43.5965 61.5808 43.7144 61.9891 43.9863C62.7602 44.4941 63.4316 45.1287 64.1211 45.7452C64.5656 46.1532 65.0192 46.5521 65.4819 46.951C65.8176 47.2321 66.2077 47.3318 66.6069 47.1051C67.1694 46.7878 67.6774 46.9329 68.1219 47.3046C69.383 48.3381 70.7711 49.136 72.2498 49.7978C72.4585 49.8885 72.894 49.97 72.4676 50.3599C72.4766 50.3871 72.4857 50.4959 72.5129 50.514Z" fill="#BDEAC8"/>
<path d="M85.5576 44.758C85.5848 45.8774 85.2762 46.8967 84.5317 47.7158C83.5694 48.7806 82.7886 49.9365 82.2439 51.2561C82.1985 51.3562 82.1531 51.4745 81.9534 51.52C82.2167 50.6554 81.7536 49.9729 81.4268 49.2812C81.0546 48.4803 80.2829 48.1891 79.4749 47.9979C78.7123 47.825 78.7123 47.8159 78.903 47.0605C78.9483 46.8876 79.0482 46.7602 78.7577 46.6874C78.5217 46.6328 78.6669 46.4053 78.6851 46.2506C78.7577 45.7955 78.8576 45.3405 78.903 44.8854C78.9937 44.0026 78.7486 43.2745 77.8861 42.8741C76.8693 42.4099 76.4971 41.5635 76.4517 40.4987C76.4154 39.5977 76.4971 38.7058 76.5607 37.8139C76.6061 37.2496 76.488 36.8037 75.9524 36.5033C75.4531 36.2212 75.1898 35.7298 74.9537 35.2292C74.6088 34.5011 74.3546 33.7275 74.1003 32.9631C73.3196 30.6059 72.5388 28.2487 71.7581 25.8916C71.5856 25.3728 71.3858 24.8631 71.1861 24.3444C70.823 23.3706 70.2238 22.5788 69.3976 21.9417C68.7621 21.4503 68.1175 20.9497 67.4911 20.4491C66.8102 19.894 66.4561 19.1659 66.3926 18.2467C67.9632 19.3934 69.7063 20.2489 71.2769 21.3866C72.0304 21.9326 72.6568 22.6061 73.2288 23.3433C73.9733 24.2989 74.7268 25.2454 75.4985 26.1828C76.8512 27.8483 77.6773 29.7777 78.3401 31.789C78.5489 32.417 78.7123 33.0632 78.8939 33.7002C79.0664 34.3282 79.2479 34.9471 79.0755 35.6388C78.9211 36.2394 79.1027 36.8583 79.4658 37.3679C80.3192 38.5693 80.5734 39.9526 80.7459 41.3633C80.9002 42.6283 81.0909 43.8752 81.4813 45.0947C81.8354 46.196 81.9352 47.3518 81.681 48.5167C81.6356 48.7078 81.4631 49.0355 81.8081 49.0901C82.1077 49.1356 82.1168 48.7806 82.144 48.5713C82.2984 47.2426 82.2257 45.9229 81.8081 44.6306C81.4087 43.3837 81.2452 42.1187 81.2543 40.8081C81.2634 40.0983 81.1545 39.3429 80.873 38.633C80.5189 37.7229 80.3101 36.7582 80.0559 35.8117C79.9652 35.4567 80.0923 35.3566 80.4645 35.4294C80.7641 35.4841 80.991 35.657 81.1998 35.8572C82.4709 37.0949 83.5875 38.4419 84.2321 40.1256C84.45 40.6898 84.7133 41.2359 84.9584 41.7911C85.3851 42.7467 85.5304 43.7296 85.5576 44.758Z" fill="#8ADD9E"/>
<path d="M75.0006 45.4215C75.7808 45.7552 75.9622 46.4857 75.4814 47.1621C75.0097 47.8295 74.538 48.4879 74.4292 49.3357C74.3748 49.7596 73.8124 49.958 73.4404 49.7506C71.7714 48.8036 69.9663 48.0821 68.4877 46.8104C67.9344 46.3414 67.2722 46.161 66.5647 46.5398C66.1837 46.7473 65.9025 46.5398 65.6394 46.2963C65.0407 45.7552 64.4421 45.2231 63.8434 44.6819C63.3717 44.258 62.8909 43.8522 62.3467 43.5185C61.8115 43.1848 61.2582 43.0044 60.6413 43.3652C60.2422 43.5997 59.8522 43.5005 59.5075 43.257C59.1083 42.9774 58.7274 42.6617 58.3464 42.3641C58.0742 42.1567 57.8203 41.9132 57.5209 41.7418C57.0764 41.4712 56.8497 41.5614 56.632 42.0124C56.4868 42.31 56.5503 42.7609 56.124 42.8421C55.6886 42.9233 55.3711 42.5896 55.0808 42.328C54.6091 41.9041 54.1737 41.4532 53.7111 41.0203C53.4027 40.7227 53.0852 40.425 52.7587 40.1455C52.2053 39.6765 51.5704 39.5773 50.8991 39.8568C50.2914 40.1184 49.7017 40.425 49.1031 40.6956C48.3683 41.0293 47.6336 41.363 46.7265 41.2818C46.7355 40.903 46.9714 40.4972 46.6448 40.1635C46.4816 40.0012 46.3364 39.7757 46.0734 39.8839C45.8012 39.9921 45.8557 40.2266 45.901 40.4701C46.0371 41.1105 46.0099 41.1646 45.4475 41.4893C44.6674 41.9312 43.8419 42.2649 42.953 42.4182C41.6286 42.6527 40.5764 42.2198 39.8053 41.1105C39.3246 40.425 39.0978 39.6133 38.6987 38.8828C38.5626 38.6303 38.6805 38.504 38.862 38.3958C40.404 37.521 40.8848 36.0689 41.0753 34.4365C41.2023 33.3182 41.1932 32.2088 41.0662 31.0905C41.0208 30.6756 40.9573 30.2518 41.0299 29.7467C41.3837 29.9451 41.4835 30.2517 41.6014 30.5223C41.8554 31.0995 42.0731 31.6948 42.2998 32.281C42.4359 32.6327 42.572 32.9754 42.7987 33.2731C43.2614 33.8864 43.8238 33.9765 44.4406 33.5076C44.9486 33.1198 45.2933 32.5876 45.7105 32.1096C45.9101 31.8842 46.0643 31.4693 46.409 31.5685C46.7265 31.6587 46.7265 32.0916 46.7718 32.3892C46.8716 33.0115 46.8807 33.6428 46.7083 34.2651C46.2911 35.7262 45.5745 37.0159 44.4769 38.0801C44.2864 38.2695 43.9145 38.4679 44.1503 38.7656C44.4134 39.0903 44.6583 38.7566 44.8579 38.5672C45.1935 38.2425 45.6017 38.026 46.0189 37.8366C46.672 37.53 47.2798 37.1512 47.8785 36.7453C49.2301 35.8434 50.4002 34.7702 51.3073 33.4084C51.5704 33.0115 51.9423 32.6688 52.2779 32.3171C52.4775 32.1096 52.7133 31.9473 53.0036 31.8661C53.7927 31.6407 54.3914 32.1457 54.2826 32.9574C54.21 33.4895 53.9197 33.9134 53.6023 34.3283C53.1306 34.9506 52.541 35.4556 52.0058 36.0148C51.779 36.2583 51.4162 36.5018 51.6248 36.8806C51.8697 37.3225 52.296 37.0971 52.6317 36.9979C53.7111 36.6732 54.7089 36.1591 55.6977 35.627C56.1512 35.3835 56.6047 35.1219 57.0855 34.9326C57.6116 34.7161 57.8203 34.8784 57.8747 35.4466C57.911 35.8795 57.8384 36.3034 57.6933 36.7183C57.6298 36.9077 57.5481 37.088 57.4937 37.2865C57.4574 37.4037 57.4756 37.521 57.5663 37.6021C57.6933 37.7104 57.8293 37.6743 57.9563 37.5841C58.1196 37.4668 58.2738 37.3406 58.4461 37.2324C58.9632 36.9077 59.5256 36.7093 60.1243 36.574C60.5415 36.4748 60.8046 36.6371 60.8953 37.034C60.9497 37.2865 60.986 37.539 60.9951 37.8006C61.0223 38.2876 61.0132 38.7746 61.0405 39.2616C61.0677 39.7396 61.24 40.1274 61.6391 40.4431C62.4464 41.0834 62.4555 41.2007 61.9022 42.0484C61.875 42.0935 61.8296 42.1386 61.7933 42.1837C61.7208 42.2829 61.7026 42.4002 61.7661 42.4994C61.8568 42.6347 62.002 42.6888 62.1471 42.6166C62.5553 42.4092 62.9544 42.1837 63.3626 41.9763C63.7889 41.7598 63.8978 41.7959 64.0701 42.2378C64.2062 42.5806 64.2969 42.9503 64.433 43.293C65.0226 44.7992 65.9841 44.9525 67.0545 43.7079C67.245 43.4915 67.4264 43.266 67.5715 43.0225C67.753 42.7339 67.9616 42.7429 68.2246 42.8601C68.7508 43.0946 69.1045 43.4914 69.3676 43.9875C69.7032 44.6278 69.8756 45.3223 69.9844 46.0348C70.1023 46.7923 70.1386 46.8014 70.9278 46.8014C71.3269 46.8014 71.7351 46.7563 72.1252 46.8735C72.2794 46.9186 72.4245 46.8825 72.4699 46.7112C72.5152 46.5398 72.3973 46.4496 72.2703 46.3775C71.9528 46.1881 71.599 46.2061 71.2543 46.2332C70.7464 46.2783 70.5468 46.0979 70.4742 45.5838C70.3835 44.9074 70.1568 44.249 69.8211 43.6358C69.4311 42.9233 68.8415 42.4543 68.0795 42.1747C67.7257 42.0484 67.4808 42.1116 67.2631 42.4272C67.0182 42.779 66.7733 43.1397 66.483 43.4554C65.8027 44.1949 65.3764 44.1138 64.9772 43.1668C64.823 42.797 64.7233 42.4092 64.5872 42.0304C64.306 41.2818 64.1155 41.1736 63.29 41.345C63.0451 41.39 62.9 41.381 62.8456 41.1195C62.7549 40.6325 62.4555 40.2988 62.0564 40.0462C61.7026 39.8298 61.5756 39.4961 61.5575 39.0993C61.5393 38.6393 61.5393 38.1884 61.5303 37.7284C61.5212 37.4127 61.494 37.0971 61.3942 36.7995C61.1674 36.1321 60.7865 35.8795 60.0789 35.9968C59.7977 36.0419 59.5165 36.1321 59.2444 36.2132C58.9723 36.2944 58.7092 36.3936 58.4099 36.5018C58.4099 36.0779 58.4371 35.7082 58.4008 35.3474C58.3645 34.9235 58.2375 34.6259 58.0198 34.4455L58.2557 34.3914C58.7636 34.9957 59.453 35.3384 60.342 35.4286C60.6322 35.4556 60.9135 35.4737 61.2037 35.4917C62.265 35.5729 63.1268 36.0238 63.8252 36.8265C64.2606 37.3226 64.7051 37.8096 65.1315 38.3146C66.483 39.8749 68.1974 40.6956 70.2747 40.7587C70.4198 40.7587 70.565 40.7678 70.7101 40.7768C71.3723 40.8309 71.4448 40.903 71.4902 41.5344C71.5083 41.8771 71.5355 42.2198 71.6172 42.5535C71.8712 43.6358 72.5061 44.3933 73.5221 44.8443C74.0301 45.0697 74.529 45.2141 75.0006 45.4215Z" fill="#8ADD9E"/>
<path d="M20.0096 21.6927C19.9732 21.7562 19.955 21.8288 19.946 21.9196C19.9096 22.2918 19.8732 22.6821 20.2187 22.9453C20.3369 23.0361 20.4369 22.9272 20.4823 22.8182C20.5732 22.6004 20.4096 22.3553 20.5823 22.083C21.3187 22.1193 22.0914 22.1284 22.8642 22.201C23.4915 22.2555 24.0369 22.555 24.3733 23.0996C24.6279 23.499 24.9551 23.617 25.3915 23.5989C25.8552 23.5898 26.3188 23.6352 26.7734 23.608C28.2188 23.5172 29.4825 24.0346 30.7007 24.7426C30.9644 24.8969 31.128 25.0059 31.028 25.4053C30.8007 26.2948 31.1462 26.8939 31.9735 27.2842C32.6371 27.602 33.319 27.5838 33.9917 27.3205C34.3917 27.1662 34.7826 26.9665 35.1645 26.7578C35.8917 26.3674 36.6372 26.3039 37.419 26.6035C37.61 26.6761 37.7918 26.7578 37.9918 26.8032C38.6191 26.9756 38.9009 26.8304 39.1009 26.195C39.2918 25.6231 39.4373 25.0331 39.6191 24.4612C39.6645 24.3069 39.7191 24.1072 39.9464 24.1163C40.11 24.1254 40.1918 24.2797 40.2464 24.3977C40.4646 24.8697 40.6646 25.3508 40.8828 25.8137C40.9646 25.9953 41.0828 26.2041 41.3373 26.077C41.5191 25.9862 41.51 25.7956 41.4555 25.6231C41.3282 25.1783 41.1646 24.7426 41.0737 24.2978C40.9737 23.8167 41.1009 23.7169 41.5737 23.8349C41.9373 23.9257 42.2919 24.0346 42.6464 24.1617C44.101 24.6519 45.5738 24.7608 47.0829 24.4975C47.2556 24.4703 47.4283 24.4521 47.6011 24.4431C48.3011 24.3977 48.3011 24.3977 48.5011 25.0603C48.9556 26.5671 49.5466 27.0664 51.1011 27.0664C52.1921 27.0664 53.0648 27.4386 53.7648 28.2555C54.083 28.6277 54.4194 28.9908 54.7558 29.3448C55.374 29.9983 56.0285 30.5521 57.0831 30.1527C57.1558 30.6338 57.2285 31.0513 57.2922 31.4779C57.4013 32.2223 57.5831 32.9485 57.9013 33.6383C58.0467 33.956 58.2195 34.2284 58.4195 34.4644L58.1831 34.5188C57.9286 34.31 57.5558 34.2737 57.0922 34.428C56.5376 34.6096 56.0558 34.9273 55.5467 35.1996C54.6376 35.6898 53.7285 36.1709 52.6739 36.5158C52.7466 36.1618 52.983 36.0347 53.1557 35.8622C53.6012 35.4084 54.0467 34.9636 54.4012 34.428C54.6558 34.0468 54.883 33.6383 54.9649 33.1754C55.0649 32.6035 55.0103 32.077 54.5285 31.6867C54.0103 31.2601 53.4285 31.1965 52.8194 31.4325C52.2921 31.6322 51.8921 32.0135 51.5466 32.4401C51.0739 33.0211 50.6284 33.6202 50.1648 34.2102C49.1284 35.5173 47.7283 36.3343 46.2101 37.3055C46.3465 36.7064 46.6101 36.4069 46.7829 36.0529C47.4011 34.773 47.7465 33.4568 47.3738 32.0407C47.2556 31.5959 47.1829 31.0876 46.6374 30.9605C46.1283 30.8425 45.8647 31.2601 45.5828 31.5778C45.201 32.0044 44.8646 32.4764 44.4646 32.894C43.9192 33.4568 43.5464 33.4114 43.201 32.7124C42.9192 32.1497 42.7282 31.5415 42.4919 30.9514C42.2646 30.3887 42.0373 29.8259 41.6373 29.3629C41.4464 29.1451 41.2282 28.9363 40.8918 29.0362C40.5464 29.1451 40.51 29.4446 40.5282 29.7442C40.5555 30.3161 40.5918 30.897 40.6464 31.4689C40.7737 32.8305 40.7191 34.1739 40.4373 35.5082C40.1646 36.7881 39.4373 37.6868 38.2645 38.2132C37.9827 38.0862 38.0463 37.8229 37.9827 37.6142C37.8827 37.2601 37.71 36.9515 37.2918 36.9515C36.9463 36.9515 36.9281 36.7518 36.919 36.5067C36.9099 35.6807 36.5736 35.0181 35.9463 34.4734C35.3645 33.9651 35.119 33.2389 34.9008 32.5128C34.7008 31.8229 34.5372 31.1239 34.3553 30.425C34.2644 30.0619 34.1372 29.7079 33.9281 29.3902C33.6371 28.9545 33.2462 28.8001 32.8189 28.9091C32.4189 29.018 32.128 29.3902 32.0826 29.8713C32.0462 30.198 32.1553 30.4976 32.2462 30.7971C32.328 31.0422 32.4189 31.2873 32.5462 31.5143C33.9371 34.0468 33.3462 36.534 32.3371 38.9939C32.3189 39.0302 32.2462 39.0484 32.1826 39.0847C31.9917 38.8487 32.2553 38.3948 31.8735 38.2859C31.4462 38.1588 31.2916 38.5764 31.0825 38.8214C30.6825 39.2753 30.3462 39.7836 29.8734 40.1739C29.2461 40.7004 28.8643 40.5733 28.6098 39.7927C28.4643 39.3479 28.4461 38.885 28.4552 38.422C28.4643 37.0967 28.4916 35.7715 28.4825 34.4462C28.4734 32.9394 28.2098 31.4689 27.737 30.0347C27.637 29.7351 27.5279 29.4356 27.3825 29.1542C27.0552 28.5188 26.5188 28.2555 25.8188 28.319C24.0006 28.4643 22.346 30.1163 22.2096 31.9499C22.1369 32.9303 22.2187 33.9106 22.2642 34.891C22.3369 36.6792 22.2824 38.4674 21.8824 40.2193C21.7278 40.891 21.5278 41.5537 21.2642 42.1982C20.7642 43.4054 19.9459 44.2678 18.6914 44.7307C18.2277 44.9032 17.7095 45.003 17.4004 45.466C19.0368 45.0484 20.546 44.4675 21.3642 42.8063C22.0824 41.3267 22.4006 39.7564 22.5642 38.1406C22.6915 36.8789 22.7097 35.6081 22.6096 34.3464C22.5551 33.6565 22.546 32.9666 22.5642 32.2767C22.6187 30.5793 23.7642 29.1905 25.4097 28.7911C26.3643 28.5551 26.8643 28.8183 27.2097 29.7805C27.7643 31.3145 28.037 32.9031 28.0643 34.5279C28.0825 35.7079 28.037 36.888 28.0279 38.068C28.0188 38.7307 27.9916 39.3933 28.2098 40.0378C28.5552 41.0454 29.228 41.2541 30.0734 40.6097C30.3189 40.419 30.528 40.1739 30.7553 39.9561C30.9825 39.7382 31.1098 39.4296 31.4553 39.2662C31.6007 39.4659 31.5098 39.711 31.5826 39.9016C31.7098 40.2466 31.9644 40.3373 32.2462 40.1104C32.4553 39.947 32.5826 39.711 32.6917 39.475C33.4644 37.8683 33.9008 36.18 33.9008 34.3917C33.9008 33.4205 33.619 32.5218 33.2008 31.6504C32.9735 31.1875 32.728 30.7245 32.6462 30.1981C32.6008 29.9076 32.5917 29.5899 32.9371 29.4719C33.2917 29.3448 33.4644 29.6171 33.5917 29.8894C33.819 30.3614 33.9099 30.8698 34.0462 31.369C34.219 32.0044 34.3917 32.6489 34.5917 33.2752C34.8008 33.9106 35.1281 34.4916 35.6463 34.9364C36.1736 35.3902 36.3827 35.953 36.3645 36.6157C36.3645 36.7881 36.3645 36.9606 36.3736 37.1331C36.3917 37.5052 36.519 37.7775 36.9554 37.6323C37.319 37.5143 37.3918 37.7049 37.4645 37.9954C37.7372 39.1119 37.7554 39.121 36.9372 39.8925C35.8281 40.9455 34.6826 41.9622 33.5735 43.0151C33.2099 43.3601 32.8099 43.4781 32.3189 43.4599C31.3826 43.4145 30.5007 43.1876 29.6189 42.8971C28.5825 42.5522 28.3007 42.6066 27.8098 43.5961C27.3552 44.5129 26.5279 44.9758 25.7824 45.5477C25.337 45.8835 24.7824 45.7564 24.3188 45.4569C23.9824 45.239 23.6824 44.9577 23.3551 44.7216C22.8915 44.3949 22.6278 44.4493 22.4096 44.9667C22.246 45.3298 22.0824 45.6021 21.6642 45.7292C21.3278 45.8291 21.1096 46.1377 20.8914 46.4009C20.2551 47.1634 19.4641 47.7444 18.6368 48.2708C18.2459 48.5159 17.8186 48.7066 17.355 48.761C17.0186 48.7973 16.655 48.8609 16.4641 48.4342C16.3913 48.2708 16.2368 48.171 16.0368 48.2255C15.8368 48.2799 15.764 48.4524 15.8095 48.6339C15.9459 49.1241 15.6004 49.3057 15.2731 49.5054C14.7277 49.8321 14.1367 50.0681 13.5186 50.2134C13.1458 50.3042 12.7913 50.404 12.6367 50.8125C12.5276 51.0848 12.2822 51.1756 12.0003 51.1846C11.3367 51.1846 10.6639 51.2845 10.0185 51.112C9.21846 50.9032 8.43663 50.8306 7.62752 51.0212C7.4366 51.0666 7.22751 51.0576 7.02751 51.0666C6.69114 51.0757 6.52749 50.9396 6.46385 50.5765C6.0093 48.2345 6.4275 46.0832 7.70934 44.0499C8.44572 42.879 9.03664 41.6263 9.6821 40.4009C10.4548 38.9213 10.6821 37.2874 10.973 35.6716C11.0549 35.1905 11.1276 34.7004 11.1912 34.2193C11.4185 32.4855 11.9367 30.8607 12.7913 29.3175C13.5095 28.0377 14.1549 26.7124 14.8004 25.3962C15.064 24.8515 15.4095 24.552 16.055 24.5429C17.1277 24.5248 17.9732 23.9983 18.6914 23.2267C19.155 22.7366 19.5459 22.201 19.8732 21.6201L20.0096 21.6927Z" fill="#6CC080"/>
<path d="M75.401 48.8306C76.3364 48.304 76.1729 47.3235 76.3364 46.4972C76.4544 45.898 76.1457 45.4259 75.5917 45.1626C75.1468 44.9538 74.6927 44.7813 74.2296 44.6178C72.8765 44.1457 72.1954 43.1833 72.1409 41.7578C72.1409 41.6126 72.1409 41.4673 72.1228 41.322C72.041 40.6501 71.814 40.4141 71.142 40.3233C70.6607 40.2597 70.1703 40.2416 69.6799 40.1962C68.236 40.0782 67.0373 39.4335 66.0384 38.4076C65.4936 37.8446 64.9759 37.2726 64.4765 36.6734C63.5593 35.5566 62.3787 34.9937 60.9439 34.9483C60.8259 34.9483 60.7169 34.9392 60.5988 34.9302C59.4819 34.8575 58.7281 34.2946 58.2832 33.2596C57.9018 32.3698 57.7837 31.4346 57.6475 30.4904C57.6293 30.3451 57.6293 30.1998 57.6112 30.0636C57.5113 29.4462 57.3296 29.3101 56.7394 29.5734C56.2217 29.8094 55.8403 29.6551 55.4862 29.31C55.014 28.847 54.5599 28.3567 54.124 27.8664C53.3158 26.9494 52.3441 26.4682 51.0909 26.4864C49.7469 26.5045 49.311 26.1141 48.966 24.8158C48.7208 23.9078 48.5845 23.808 47.6401 23.8624C47.3768 23.8806 47.1225 23.9078 46.8682 23.9442C45.5969 24.153 44.3437 24.1076 43.1086 23.7172C42.6183 23.5628 42.1188 23.4175 41.6193 23.2723C41.247 23.1633 40.8747 23.1088 40.5659 23.4085C40.4116 23.5537 40.2844 23.5447 40.1028 23.4811C39.6033 23.2904 39.3491 23.6082 39.1584 23.9896C38.8769 24.5343 38.777 25.1336 38.5953 25.7146C38.4046 26.3502 38.3865 26.3774 37.769 26.1323C36.6701 25.6965 35.6349 25.7873 34.6178 26.3865C34.2182 26.6226 33.8005 26.8041 33.3465 26.9131C32.8288 27.0311 32.3657 26.904 31.948 26.6316C31.4758 26.3139 31.394 25.9779 31.5938 25.4423C31.8299 24.8067 31.8118 24.7795 31.2578 24.4254C29.6505 23.3994 27.916 22.8819 26.0089 23.0544C25.4096 23.1089 24.9192 23.0181 24.5196 22.4551C24.1836 21.983 23.6115 21.7288 23.0213 21.6652C22.1676 21.5744 21.2958 21.5381 20.4331 21.4836C20.2061 21.4655 20.0517 21.5472 19.97 21.7016L19.7793 21.6289C20.0336 21.184 20.2424 20.7119 20.415 20.2216C20.7601 19.2138 21.3413 18.3785 22.0677 17.6159C23.3936 16.2358 24.8284 15.0192 26.4993 14.0658C28.1975 13.0943 29.823 11.9866 31.73 11.4237C32.5927 11.1695 33.4464 10.9425 34.3545 10.9516C35.3171 10.9516 36.2342 10.7065 37.1333 10.3615C38.6135 9.78945 40.1119 9.28101 41.7102 9.13574C41.8827 9.11758 42.0552 9.08126 42.2278 9.09034C44.9975 9.16298 47.7582 8.84521 50.5279 8.89969C51.2453 8.90877 51.2635 8.90876 51.4088 9.58971C51.5359 10.198 51.9355 10.534 52.4622 10.7519C53.2976 11.0969 54.1785 11.3239 55.0684 11.3057C57.4386 11.2694 59.4546 12.1138 61.2345 13.6119C62.4877 14.6741 63.8135 15.6456 64.9578 16.835C65.203 17.0893 65.3301 17.3616 65.4391 17.7067C65.9294 19.1593 66.5288 20.5122 67.8546 21.4927C70.4972 23.4448 70.4609 23.4902 71.5052 26.6135C72.3407 29.1012 73.1671 31.589 74.0025 34.0676C74.2023 34.6669 74.4384 35.257 74.7381 35.8199C74.9742 36.2558 75.2376 36.6825 75.6735 36.9367C76.1275 37.2 76.1729 37.5723 76.1366 38.0444C76.0639 38.9069 76.0095 39.7695 76.0458 40.632C76.1003 41.8486 76.5543 42.811 77.7076 43.3467C78.3433 43.6463 78.5522 44.1548 78.4977 44.8267C78.416 45.8345 78.089 46.7969 77.971 47.8047C77.9528 48.0044 77.8075 48.0861 77.6259 48.1406C76.8812 48.3676 76.1729 48.6854 75.3738 49.0667C75.401 48.876 75.3919 48.8306 75.401 48.8306Z" fill="#BDEAC8"/>
<path d="M18.3749 63.4822C18.4107 63.6851 18.4376 63.9064 18.2315 64.0355C18.0164 64.183 17.8551 64.0171 17.7117 63.888C17.1293 63.3716 16.5557 62.8552 15.9822 62.3388C15.8568 62.2282 15.7044 62.0714 15.8568 61.9054C16.0091 61.7302 16.1704 61.8686 16.2869 61.9977C16.726 62.4956 17.2458 62.8829 17.8462 63.39C17.8282 62.7169 17.5952 62.2466 17.4519 61.7671C17.3085 61.3153 16.9232 60.9557 16.9052 60.4485C17.2278 60.3286 17.3174 60.5407 17.416 60.7067C17.9358 61.555 18.2046 62.5048 18.3749 63.4822Z" fill="#8ADD9E"/>
<path d="M9.86698 51.6824C9.8579 51.6824 9.84883 51.6824 9.83975 51.6824C9.83067 51.6733 9.82158 51.6733 9.8125 51.6733C9.82158 51.6733 9.83974 51.6733 9.84883 51.6733C9.85791 51.6733 9.86698 51.6824 9.86698 51.6824Z" fill="#8ADD9E"/>
<path d="M7.66975 52.1468C8.34134 51.8201 9.04922 51.684 9.79341 51.684C9.80249 51.684 9.81157 51.6931 9.82064 51.6931C9.82972 51.6931 9.83879 51.6931 9.84786 51.6931C10.3289 52.0833 10.592 52.5732 10.6647 53.2084C10.8734 54.9595 11.3181 56.6562 12.153 58.2259C12.8155 59.478 13.2693 60.8118 13.6323 62.1818C13.8955 63.1799 14.1859 64.178 14.4763 65.167C14.5671 65.4664 14.6851 65.7658 14.8484 66.038C15.1116 66.4916 15.393 66.5189 15.8286 66.2104C16.1372 65.9926 16.4276 65.7567 16.7543 65.5843C18.1973 64.804 19.2319 65.0218 20.0396 66.4372C21.0016 68.143 22.1451 69.7399 23.1162 71.4275C24.0056 72.97 25.1854 74.1767 26.5649 75.2383C27.3635 75.8553 28.2983 76.2001 29.3419 76.6265C29.4145 75.4198 29.9954 74.7846 31.2569 74.703C30.4673 73.8954 29.8411 73.1515 29.2784 72.353C28.0714 70.6381 26.8553 68.9142 25.6482 67.1994C25.5212 67.0179 25.4395 66.7366 25.2217 66.6731C24.4684 66.4644 24.5138 65.8384 24.5138 65.2849C24.5138 65.0309 24.4956 64.8766 24.3051 64.6952C22.9891 63.5338 21.7095 62.3361 20.3845 61.1838C19.0776 60.0587 18.0339 58.7431 17.2444 57.2188C16.4729 55.7398 15.7015 54.2609 14.9301 52.7819C14.8031 52.5369 14.7395 52.2375 14.3039 52.0107C14.558 52.8908 14.6034 53.6802 14.6488 54.4605C14.4128 54.4786 14.3311 54.3607 14.2858 54.2246C14.2041 53.9524 14.1406 53.6711 14.0679 53.3898C13.8048 52.301 12.9426 51.6568 11.8263 51.6931C11.1729 51.7113 10.5195 51.6841 9.86602 51.675C9.86602 51.6659 9.85694 51.6659 9.84786 51.6659C9.83879 51.6659 9.82064 51.6659 9.81157 51.6659C8.94032 51.2395 8.03278 51.4844 7.14338 51.5842C6.9165 51.6115 6.56255 51.4935 6.57162 51.9109C6.57162 52.2194 6.88927 52.3736 7.28859 52.2738C7.40657 52.2557 7.5427 52.2103 7.66975 52.1468ZM86.1361 44.0534C86.2904 45.5959 85.9728 47.0113 84.9109 48.1455C83.3681 49.7786 82.5876 51.8383 81.6438 53.7981C81.2172 54.6782 81.1809 55.6945 81.063 56.6653C80.945 57.6089 80.9087 58.5616 80.7272 59.4962C80.0737 62.8442 78.2677 65.3393 75.1639 66.8364C74.1293 67.3355 73.1129 67.898 72.0329 68.2882C71.7334 68.397 71.6245 68.5513 71.688 68.8689C71.9693 70.2208 71.3704 71.1916 70.3811 72.0354C69.6279 72.6706 68.8111 73.1968 67.9308 73.6505C67.3862 73.9318 67.0141 74.2675 67.0051 74.957C66.9869 75.7645 66.5876 76.436 66.0158 77.0076C65.4804 77.5339 64.8996 78.0238 64.2098 78.3323C63.266 78.7587 62.3584 79.2668 61.4509 79.7659C60.4254 80.3375 59.3 80.5734 58.1656 80.773C56.3686 81.0997 54.6352 81.5624 53.1015 82.633C52.439 83.1049 51.6494 83.3045 50.8417 83.4224C48.8632 83.7037 46.9392 83.622 45.0969 82.7419C44.7611 82.5786 44.4072 82.4516 44.0714 82.2882C42.6284 81.5805 41.131 81.4898 39.6154 81.9707C38.4718 82.3245 37.3102 82.4425 36.1213 82.3518C34.6692 82.2338 34.1247 81.8255 33.6709 80.4645C33.5257 80.029 33.3805 79.5935 33.1899 79.167C32.9177 78.541 32.4094 78.2053 31.7469 78.0419C29.0425 77.3887 26.6012 76.2273 24.6046 74.2402C24.0691 73.7049 23.579 73.1515 23.216 72.4891C22.6987 71.5546 22.1179 70.6654 21.5098 69.7943C20.8927 68.9233 20.4389 67.9525 19.9125 67.027C18.9687 65.3484 18.0702 65.1579 16.482 66.2376C15.992 66.5733 15.6017 67.0361 15.1479 67.4353C14.8575 67.1631 15.0027 66.9272 14.8484 66.7548C14.2222 66.038 14.0135 65.1216 13.7594 64.2415C13.5144 63.4158 13.3056 62.572 13.0787 61.7373C12.8065 60.7301 12.4797 59.7502 11.9806 58.8338C11.0277 57.0917 10.4832 55.2136 10.22 53.2628C10.0929 52.3101 9.69359 52.0651 8.73159 52.2647C8.34134 52.3464 7.97832 52.546 7.59716 52.673C6.68961 52.9725 6.20861 52.7184 6.00895 51.802C5.39182 49.0074 5.5461 46.3399 7.13431 43.8356C7.86942 42.6743 8.45025 41.404 9.09461 40.1791C9.81157 38.8 10.0384 37.2847 10.3016 35.7876C10.4468 34.962 10.5558 34.1363 10.6828 33.3106C10.8825 32.0767 11.2273 30.9062 11.8082 29.7902C12.6431 28.1842 13.469 26.5692 14.2767 24.9451C14.5853 24.319 15.0027 23.9561 15.7469 23.9561C16.8269 23.9561 17.6528 23.4026 18.3425 22.6041C19.005 21.8238 19.5223 20.9619 19.849 20.0001C20.2302 18.8841 20.8836 17.9586 21.6913 17.1148C23.0345 15.7175 24.5138 14.5017 26.2018 13.5218C27.9715 12.4874 29.6777 11.3805 31.6743 10.7998C32.5365 10.5458 33.3896 10.3371 34.2971 10.3461C35.2319 10.3552 36.1213 10.0921 36.9835 9.76545C38.4083 9.21198 39.8513 8.72202 41.3851 8.56778C41.6392 8.54056 41.9024 8.49519 42.1565 8.49519C45.0697 8.54055 47.9648 8.23206 50.878 8.2865C51.7765 8.30464 51.7946 8.29557 51.8672 9.17568C51.9126 9.71101 52.1849 10.0104 52.6568 10.201C53.41 10.5095 54.2087 10.7181 55.0073 10.7C57.6301 10.6456 59.8173 11.6618 61.7685 13.3222C63.0845 14.4382 64.4549 15.4907 65.6619 16.7428C66.5876 17.7046 67.6948 18.4395 68.8202 19.1382C69.5008 19.5646 70.1906 19.982 70.8803 20.4084C72.0419 21.1343 73.0221 22.0507 73.848 23.1485C74.5286 24.0468 75.2365 24.9178 75.9535 25.7798C77.2966 27.4039 78.1588 29.2821 78.8213 31.251C79.1571 32.2309 79.4203 33.238 79.6835 34.2361C79.7833 34.59 79.9376 34.7805 80.3188 34.8077C80.9268 34.844 81.3897 35.1707 81.8162 35.588C83.114 36.8855 84.2394 38.2919 84.8837 40.0249C85.0471 40.4604 85.2558 40.8687 85.4464 41.2861C85.8094 42.1843 86.0363 43.1007 86.1361 44.0534ZM84.557 47.6827C85.3012 46.8661 85.6097 45.859 85.5825 44.7339C85.5644 43.7086 85.4192 42.7287 85.0017 41.7851C84.7567 41.2316 84.4935 40.6872 84.2757 40.1247C83.6222 38.4461 82.515 37.1033 81.2445 35.8693C81.0357 35.6697 80.8088 35.4973 80.5094 35.4429C80.1282 35.3703 80.0011 35.4701 80.101 35.8239C80.3551 36.7675 80.5638 37.7293 80.9177 38.6366C81.1991 39.3534 81.2989 40.0975 81.2989 40.8052C81.2898 42.1208 81.4532 43.382 81.8525 44.616C82.27 45.9044 82.3426 47.2109 82.1883 48.5447C82.1611 48.7443 82.152 49.1072 81.8525 49.0619C81.5167 49.0074 81.6892 48.6808 81.7255 48.4902C81.9796 47.3289 81.8797 46.1765 81.5258 45.0787C81.1265 43.8629 80.9359 42.6198 80.7907 41.3586C80.6273 39.9523 80.3732 38.5731 79.5111 37.3755C79.148 36.8674 78.9665 36.2504 79.1208 35.6515C79.2932 34.962 79.1117 34.3541 78.9393 33.7189C78.7578 33.0838 78.5944 32.4396 78.3857 31.8135C77.7232 29.8083 76.8973 27.8848 75.5451 26.2244C74.7827 25.2899 74.0204 24.3462 73.2762 23.3935C72.7045 22.6677 72.0782 21.9872 71.325 21.4428C69.764 20.3086 68.0215 19.4557 66.4424 18.3125C66.5059 19.2289 66.8599 19.9548 67.5405 20.5082C68.1667 21.0163 68.802 21.5154 69.4464 21.9962C70.2722 22.6223 70.8621 23.4207 71.2342 24.3916C71.4248 24.8997 71.6245 25.4078 71.806 25.934C72.5956 28.284 73.367 30.634 74.1475 32.984C74.4016 33.7462 74.6557 34.5174 75.0005 35.2432C75.2365 35.7423 75.4997 36.2322 75.9988 36.5135C76.5343 36.8129 76.6523 37.2575 76.6069 37.82C76.5434 38.7092 76.4526 39.5984 76.498 40.4967C76.5434 41.5582 76.9064 42.393 77.9319 42.8648C78.7941 43.264 79.0391 43.9899 78.9484 44.87C78.903 45.3237 78.7941 45.7773 78.7306 46.231C78.7124 46.3853 78.5672 46.603 78.8032 46.6665C79.0936 46.7391 78.9847 46.8661 78.9484 47.0385C78.7578 47.8007 78.7578 47.8007 79.5201 47.9731C80.3369 48.1545 81.0993 48.4539 81.4714 49.2524C81.7981 49.942 82.27 50.6225 81.9977 51.4844C82.1974 51.4391 82.2428 51.3211 82.2881 51.2213C82.8145 49.8966 83.595 48.7352 84.557 47.6827ZM80.7998 52.673C81.5712 51.7566 81.435 50.7586 81.072 49.7424C80.8905 49.2252 80.5003 48.8895 80.0011 48.6808C79.4838 48.463 78.9393 48.3723 78.3948 48.463C76.8066 48.7443 75.3454 49.3522 74.1565 50.4682C72.7408 51.802 71.6789 53.408 70.7442 55.1138C70.009 56.4566 69.637 57.8902 69.7459 59.2965C69.7549 60.349 69.8457 61.2745 69.9909 62.1818C70.0907 62.8079 70.2359 63.4249 70.5536 63.9874C70.7351 64.3141 70.9892 64.5409 71.3794 64.5137C71.7606 64.4865 72.169 64.7496 72.5411 64.423C72.7135 64.2687 72.8315 64.432 72.9676 64.5591C73.3216 64.8948 73.6846 65.1851 74.2564 65.0762C75.9898 64.7314 77.4418 63.8604 78.6217 62.6083C79.4657 61.71 80.0193 60.5668 80.1826 59.2965C80.3006 58.3801 80.3914 57.4637 80.4912 56.5473C80.5819 55.7489 80.6546 54.9595 80.7635 54.1701C80.8179 53.8072 81.19 53.4624 80.6818 53.1176C80.5275 53.0178 80.6909 52.8091 80.7998 52.673ZM78.4129 44.7702C78.4674 44.0988 78.2586 43.5816 77.6234 43.2912C76.4708 42.7559 76.017 41.8032 75.9625 40.5783C75.9262 39.7073 75.9807 38.8453 76.0533 37.9925C76.0896 37.5297 76.0442 37.1577 75.5904 36.8855C75.1548 36.6315 74.8916 36.205 74.6557 35.7695C74.3562 35.207 74.1202 34.6172 73.9206 34.0184C73.0856 31.5323 72.2598 29.0462 71.4248 26.5692C70.3811 23.448 70.4084 23.4026 67.7765 21.4518C66.4515 20.4719 65.8525 19.12 65.3624 17.6683C65.2444 17.3235 65.1174 17.0513 64.8814 16.7972C63.7379 15.6086 62.4129 14.6378 61.1605 13.5762C59.3817 12.0701 57.3669 11.2263 54.9982 11.2716C54.1088 11.2898 53.2285 11.0629 52.3936 10.7181C51.8672 10.5004 51.4679 10.1647 51.3408 9.55676C51.1956 8.87626 51.1775 8.88535 50.4605 8.8672C47.6925 8.82183 44.9336 9.13031 42.1656 9.05773C41.9931 9.04865 41.8207 9.09402 41.6483 9.10309C40.051 9.24826 38.5535 9.75637 37.0742 10.328C36.1848 10.6728 35.2591 10.9177 34.2971 10.9177C33.3896 10.9177 32.5365 11.1446 31.6743 11.3896C29.7685 11.9521 28.144 13.05 26.4469 14.0299C24.777 14.9917 23.334 16.1984 22.0181 17.5776C21.292 18.3397 20.7112 19.1745 20.3663 20.1816C20.1939 20.6715 19.9851 21.1434 19.731 21.5879C19.4043 22.1596 19.0141 22.6949 18.5512 23.1939C17.8343 23.9651 16.9812 24.4823 15.9193 24.5095C15.275 24.5186 14.9301 24.818 14.6669 25.3624C14.0226 26.6781 13.3782 28.0028 12.6613 29.2821C11.8082 30.8155 11.2909 32.4487 11.064 34.1817C11.0004 34.6626 10.9278 35.1525 10.8462 35.6334C10.5557 37.2484 10.3289 38.8816 9.55745 40.3606C8.92217 41.5855 8.32319 42.8467 7.58808 44.008C6.30844 46.0405 5.89097 48.1908 6.34474 50.5317C6.41734 50.8947 6.57163 51.0398 6.90742 51.0217C7.10708 51.0126 7.31582 51.0217 7.5064 50.9763C8.31412 50.7858 9.10367 50.8584 9.89324 51.0671C10.5467 51.2394 11.2092 51.1396 11.8717 51.1396C12.144 51.1396 12.3981 51.0489 12.507 50.7677C12.6703 50.3594 13.0243 50.2505 13.3873 50.1688C14.0044 50.0236 14.5943 49.7877 15.1389 49.4611C15.4565 49.2705 15.8014 49.08 15.6743 48.5901C15.6289 48.4086 15.7015 48.2453 15.9012 48.1818C16.1009 48.1273 16.2551 48.218 16.3277 48.3904C16.5183 48.8078 16.8813 48.7534 17.2171 48.7171C17.68 48.6626 18.1065 48.4721 18.4968 48.2271C19.3317 47.7009 20.1122 47.1202 20.7475 46.358C20.9653 46.0949 21.1831 45.7864 21.5189 45.6866C21.9273 45.5596 22.0997 45.2964 22.2631 44.9244C22.49 44.4073 22.7532 44.3619 23.2069 44.6795C23.5337 44.9154 23.8331 45.1967 24.1689 45.4144C24.6318 45.7138 25.1854 45.8409 25.6301 45.5051C26.3743 44.9426 27.1911 44.4708 27.6539 43.5544C28.144 42.5654 28.4344 42.5109 29.4599 42.8557C30.3402 43.1461 31.2206 43.382 32.1553 43.4183C32.6454 43.4364 33.0447 43.3185 33.4077 42.9737C34.515 41.9212 35.6585 40.905 36.7657 39.8525C37.5825 39.0812 37.5643 39.0722 37.292 37.9561C37.2194 37.6658 37.1468 37.4753 36.7838 37.5932C36.3482 37.7384 36.2211 37.4662 36.203 37.0942C36.1939 36.9218 36.1939 36.7494 36.1939 36.577C36.203 35.9056 36.0033 35.343 35.4769 34.8985C34.9596 34.4539 34.6329 33.8732 34.4242 33.238C34.2245 32.612 34.0521 31.9678 33.8797 31.3326C33.7435 30.8336 33.6528 30.3165 33.4259 29.8537C33.2988 29.5906 33.1264 29.3184 32.7725 29.4363C32.4276 29.5543 32.4367 29.8809 32.482 30.1622C32.5637 30.6794 32.8088 31.1421 33.0356 31.6139C33.4531 32.485 33.7345 33.3832 33.7345 34.3541C33.7345 36.1415 33.2988 37.8291 32.5274 39.4351C32.4185 39.671 32.2915 39.8978 32.0827 40.0702C31.8014 40.2971 31.5382 40.2154 31.4202 39.8615C31.3476 39.6619 31.4384 39.4169 31.2932 39.2264C30.9483 39.3897 30.8122 39.6982 30.5944 39.916C30.3675 40.1337 30.1587 40.3787 29.9137 40.5693C29.0788 41.2135 28.4072 40.9957 28.0532 39.9976C27.8354 39.3534 27.8626 38.6911 27.8717 38.0287C27.8808 36.8492 27.9352 35.6697 27.908 34.4902C27.8808 32.866 27.6085 31.2782 27.0549 29.7448C26.7101 28.7831 26.22 28.5199 25.258 28.7558C23.6153 29.1551 22.4627 30.5433 22.4174 32.24C22.3992 32.9295 22.4083 33.6282 22.4627 34.3087C22.5626 35.579 22.5353 36.8401 22.4174 38.1013C22.254 39.7164 21.9364 41.286 21.2194 42.765C20.4117 44.4254 18.8961 45.0152 17.2625 45.4235C17.562 44.9607 18.0884 44.8609 18.5512 44.6885C19.7946 44.2258 20.6204 43.3638 21.1196 42.1571C21.3828 41.5129 21.5824 40.8596 21.7367 40.1791C22.136 38.4189 22.1905 36.6405 22.1179 34.8531C22.0816 33.8732 21.9999 32.8933 22.0634 31.9134C22.1996 30.0805 23.8513 28.4383 25.6664 28.284C26.3743 28.2296 26.9097 28.4836 27.2274 29.1188C27.3726 29.4 27.4815 29.6995 27.5813 29.9989C28.0532 31.4325 28.3164 32.9023 28.3255 34.4085C28.3346 35.7332 28.3073 37.0579 28.2983 38.3826C28.2983 38.8453 28.3073 39.3081 28.4525 39.7527C28.7067 40.533 29.0878 40.6509 29.714 40.1337C30.186 39.7436 30.5218 39.2355 30.9211 38.7818C31.1298 38.5368 31.2841 38.1195 31.7106 38.2465C32.0918 38.3554 31.8377 38.809 32.0192 39.0449C32.0827 39.0086 32.1553 38.9905 32.1735 38.9542C33.1899 36.4863 33.7798 34.0093 32.3822 31.4778C32.2552 31.251 32.1644 31.006 32.0827 30.761C31.9829 30.4616 31.8831 30.1622 31.9194 29.8356C31.9738 29.3547 32.2552 28.9736 32.6545 28.8738C33.081 28.7649 33.4713 28.9192 33.7617 29.3547C33.9704 29.6723 34.0975 30.0261 34.1882 30.389C34.3697 31.0877 34.5331 31.7863 34.7328 32.4759C34.9415 33.2018 35.1865 33.9186 35.7764 34.4357C36.4026 34.9801 36.7384 35.6425 36.7475 36.4681C36.7475 36.7131 36.7657 36.9127 37.1196 36.9127C37.5371 36.9036 37.7004 37.2121 37.8093 37.5751C37.8729 37.7838 37.8093 38.0469 38.0907 38.1739C39.2705 37.6386 39.9875 36.7403 40.2597 35.4701C40.5501 34.1363 40.6046 32.7935 40.4684 31.4325C40.414 30.8608 40.3777 30.2802 40.3505 29.7085C40.3414 29.4182 40.3686 29.1097 40.7135 29.0008C41.0402 28.901 41.2671 29.1097 41.4577 29.3275C41.857 29.7902 42.0839 30.3527 42.3108 30.9153C42.5467 31.5051 42.7464 32.113 43.0186 32.6755C43.3635 33.3741 43.7265 33.4195 44.2801 32.857C44.6795 32.4396 45.0153 31.9678 45.3964 31.5413C45.6778 31.2238 45.95 30.8064 46.4492 30.9244C46.9937 31.0423 47.0663 31.5595 47.1843 32.0041C47.5564 33.4195 47.2206 34.7351 46.5944 36.0145C46.4219 36.3683 46.1497 36.6768 46.0226 37.2666C47.5382 36.2957 48.9449 35.4791 49.9705 34.1726C50.4333 33.5828 50.878 32.984 51.3499 32.4033C51.6948 31.9769 52.1032 31.5958 52.6205 31.3962C53.2285 31.1603 53.8094 31.2238 54.3267 31.6502C54.8077 32.0494 54.8621 32.5757 54.7623 33.1382C54.6806 33.601 54.4537 34.0093 54.1996 34.3904C53.8457 34.9257 53.401 35.3703 52.9563 35.8239C52.7929 35.9963 52.5479 36.1234 52.4753 36.4772C53.5371 36.1324 54.4446 35.6516 55.3431 35.1616C55.8513 34.8894 56.3323 34.5718 56.8859 34.3904C57.3488 34.2361 57.7209 34.2724 57.975 34.4811C58.1928 34.6535 58.3289 34.962 58.3562 35.3884C58.3834 35.7604 58.3652 36.1233 58.3652 36.5498C58.6647 36.4409 58.937 36.3411 59.2002 36.2594C59.4724 36.1778 59.7538 36.0871 60.0351 36.0417C60.7339 35.9237 61.1242 36.1778 61.3511 36.8492C61.4509 37.1577 61.4781 37.4662 61.4872 37.7838C61.4963 38.2465 61.4963 38.7092 61.5144 39.1629C61.5235 39.5621 61.6596 39.8888 62.0136 40.1156C62.4129 40.3696 62.7124 40.7054 62.8031 41.1953C62.8485 41.4585 63.0028 41.4675 63.2478 41.4222C64.0737 41.2498 64.2643 41.3677 64.5456 42.1117C64.6908 42.4928 64.7816 42.883 64.9359 43.255C65.3352 44.2077 65.7527 44.2893 66.4424 43.5453C66.7328 43.2277 66.9778 42.8648 67.2229 42.511C67.4316 42.1934 67.6857 42.1299 68.0397 42.2569C68.802 42.5382 69.3919 43.0009 69.7822 43.7268C70.118 44.3438 70.3448 44.997 70.4356 45.6866C70.4991 46.2038 70.7079 46.3852 71.2161 46.3399C71.5519 46.3036 71.9149 46.2945 72.2325 46.485C72.3596 46.5576 72.4776 46.6575 72.4322 46.8208C72.3868 46.9932 72.2416 47.0294 72.0873 46.9841C71.688 46.8661 71.2887 46.9115 70.8894 46.9115C70.0998 46.9115 70.0544 46.8934 69.9455 46.1403C69.8366 45.4235 69.6551 44.7339 69.3284 44.0806C69.0743 43.5816 68.7113 43.1824 68.1849 42.9465C67.9126 42.8194 67.7039 42.8194 67.5315 43.1098C67.3862 43.3548 67.2047 43.5816 67.0141 43.7994C65.9432 45.0515 64.9812 44.8972 64.3913 43.382C64.2552 43.0372 64.1645 42.6652 64.0283 42.3204C63.8468 41.8758 63.747 41.8395 63.3204 42.0573C62.912 42.266 62.5127 42.4928 62.1043 42.7015C61.9591 42.7741 61.8139 42.7196 61.7232 42.5835C61.6506 42.4837 61.6778 42.3658 61.7504 42.266C61.7867 42.2206 61.823 42.1752 61.8593 42.1299C62.4129 41.277 62.4038 41.159 61.5961 40.5148C61.1968 40.1973 61.0244 39.8071 60.9971 39.3262C60.9699 38.8363 60.979 38.3463 60.9517 37.8564C60.9427 37.6023 60.9154 37.3392 60.8519 37.0851C60.7612 36.6768 60.507 36.5226 60.0805 36.6224C59.4906 36.7585 58.9188 36.9672 58.4015 37.2847C58.2291 37.3936 58.0748 37.5206 57.9115 37.6386C57.7844 37.7293 57.6483 37.7656 57.5212 37.6567C57.4305 37.5751 57.4123 37.4571 57.4486 37.3392C57.5121 37.1486 57.5848 36.9581 57.6483 36.7676C57.7844 36.3502 57.8661 35.9328 57.8298 35.4882C57.7753 34.9166 57.5666 34.7533 57.0402 34.971C56.5592 35.1616 56.1055 35.4247 55.6517 35.6697C54.6625 36.205 53.6642 36.7222 52.5842 37.0488C52.2484 37.1486 51.8128 37.3755 51.5768 36.9309C51.3681 36.5498 51.7402 36.3048 51.958 36.0598C52.4934 35.4973 53.0833 34.9801 53.5553 34.3631C53.8729 33.9458 54.1633 33.5193 54.2359 32.984C54.3448 32.1674 53.7458 31.6593 52.9563 31.8861C52.6749 31.9678 52.4299 32.1311 52.2302 32.3398C51.8944 32.6937 51.5314 33.0384 51.2592 33.4377C50.3516 34.8077 49.1809 35.8875 47.8286 36.7948C47.2297 37.194 46.6216 37.5841 45.9682 37.8926C45.5507 38.0832 45.1423 38.3009 44.8065 38.6276C44.6159 38.8181 44.3618 39.1538 44.0986 38.8272C43.8536 38.5278 44.2257 38.3282 44.4253 38.1376C45.5235 37.067 46.2314 35.7695 46.6579 34.2996C46.8303 33.6736 46.8213 33.0384 46.7214 32.4124C46.6761 32.113 46.6761 31.6774 46.3584 31.5867C46.0135 31.4869 45.8593 31.9043 45.6596 32.1311C45.2421 32.6029 44.8973 33.1473 44.389 33.5375C43.7719 34.0002 43.2092 33.9186 42.7464 33.3016C42.5195 32.9931 42.3834 32.6483 42.2472 32.3035C42.0203 31.7137 41.8025 31.1149 41.5484 30.5342C41.4304 30.262 41.3306 29.9535 40.9767 29.7539C40.9041 30.262 40.9676 30.6794 41.013 31.1058C41.14 32.2309 41.1491 33.3469 41.022 34.472C40.8315 36.1143 40.3505 37.566 38.8076 38.4552C38.6261 38.5641 38.4991 38.6911 38.6443 38.9452C39.0436 39.6801 39.2705 40.4967 39.7515 41.1862C40.5229 42.3023 41.5757 42.7378 42.9007 42.5019C43.7901 42.3476 44.6159 42.021 45.3964 41.5673C45.9591 41.2407 45.9863 41.1862 45.8502 40.542C45.8048 40.2971 45.7413 40.0612 46.0226 39.9523C46.2858 39.8525 46.431 40.0702 46.5944 40.2336C46.9211 40.5693 46.6851 40.9776 46.6761 41.3586C47.5927 41.4403 48.3278 41.1046 49.0538 40.7689C49.6528 40.4967 50.2427 40.1882 50.8508 39.9251C51.5224 39.6438 52.1576 39.7436 52.7112 40.2154C53.0379 40.4967 53.3556 40.7961 53.6642 41.0955C54.127 41.531 54.5626 41.9938 55.0345 42.4111C55.334 42.6743 55.6426 43.01 56.0782 42.9283C56.5048 42.8467 56.4412 42.393 56.5864 42.0936C56.8043 41.6399 57.0311 41.5492 57.4758 41.8214C57.7663 42.0028 58.0294 42.2387 58.3017 42.4474C58.6829 42.7468 59.0641 43.0644 59.4634 43.3457C59.8082 43.5907 60.1985 43.6905 60.5978 43.4546C61.2059 43.0916 61.7595 43.2731 62.304 43.6088C62.8485 43.9445 63.3295 44.3528 63.8014 44.7793C64.4004 45.3146 64.9994 45.859 65.5984 46.4034C65.8616 46.6393 66.1429 46.848 66.5241 46.6484C67.232 46.2673 67.9035 46.4397 68.4481 46.9206C69.9274 48.1999 71.7334 48.9258 73.4033 49.8785C73.7844 50.0962 74.338 49.8875 74.3925 49.4611C74.5014 48.5991 74.9733 47.9368 75.4452 47.2744C75.9262 46.5939 75.7447 45.859 74.9642 45.5233C74.4923 45.3146 73.9932 45.1694 73.5213 44.9607C72.5048 44.5162 71.8695 43.7449 71.6154 42.6561C71.5337 42.3113 71.5065 41.9756 71.4883 41.6308C71.452 40.9866 71.3704 40.9231 70.7079 40.8687C70.5627 40.8596 70.4174 40.8505 70.2722 40.8505C68.194 40.787 66.4878 39.9613 65.1265 38.3917C64.6908 37.8926 64.2461 37.4027 63.8196 36.8946C63.1299 36.0871 62.2586 35.6425 61.1968 35.5517C60.9064 35.5336 60.625 35.5154 60.3346 35.4882C59.4543 35.3975 58.7555 35.0527 58.2473 34.4448C58.0476 34.2089 57.8752 33.9276 57.73 33.6191C57.4214 32.9296 57.2308 32.2128 57.1219 31.4597C57.0584 31.0332 56.9949 30.6159 56.9132 30.135C55.8604 30.5342 55.207 29.9898 54.5898 29.3275C54.2541 28.9736 53.9273 28.6107 53.6006 28.2387C52.9018 27.4221 52.0306 27.0501 50.9415 27.0501C49.3896 27.0501 48.7997 26.5601 48.3459 25.0449C48.1463 24.3825 48.1463 24.3825 47.4475 24.4279C47.275 24.437 47.1026 24.4551 46.9302 24.4823C45.4236 24.7454 43.9443 24.6366 42.5014 24.1466C42.1474 24.0287 41.7935 23.9107 41.4304 23.82C40.9585 23.702 40.8315 23.8109 40.9313 24.2827C41.022 24.7273 41.1854 25.1628 41.3125 25.6074C41.3578 25.7798 41.376 25.9703 41.1945 26.0611C40.9404 26.1881 40.8224 25.9794 40.7407 25.7979C40.5229 25.3261 40.3232 24.8543 40.1054 24.3825C40.051 24.2555 39.9693 24.1103 39.8059 24.1012C39.5881 24.0922 39.5337 24.2918 39.4792 24.446C39.2977 25.0176 39.1525 25.6074 38.9619 26.179C38.7532 26.8142 38.4809 26.9503 37.8547 26.7869C37.6641 26.7325 37.4735 26.6509 37.283 26.5873C36.5116 26.2879 35.7674 26.3514 35.0322 26.7416C34.6511 26.9412 34.2608 27.1408 33.8615 27.3041C33.1899 27.5672 32.5093 27.5854 31.8468 27.2678C31.0209 26.8686 30.676 26.2698 30.9029 25.3896C31.0027 24.9904 30.8394 24.8816 30.5762 24.7273C29.3601 24.0196 28.0986 23.5115 26.6556 23.5932C26.1928 23.6204 25.7299 23.575 25.2761 23.5841C24.8405 23.6022 24.5047 23.4843 24.2597 23.085C23.9239 22.5406 23.3794 22.2412 22.7532 22.1868C21.9817 22.1142 21.2103 22.1051 20.4752 22.0688C20.3028 22.341 20.4661 22.586 20.3754 22.8038C20.3209 22.9126 20.2302 23.0215 20.1122 22.9308C19.7673 22.6677 19.8036 22.2775 19.8399 21.9055C19.849 21.8148 19.8672 21.7422 19.9035 21.6787C19.9851 21.5244 20.1394 21.4428 20.3663 21.4609C21.2285 21.5154 22.0907 21.5426 22.9528 21.6424C23.5336 21.7059 24.1145 21.9509 24.4503 22.4318C24.8496 22.9943 25.3397 23.085 25.9386 23.0306C27.8536 22.8673 29.587 23.3754 31.1843 24.4007C31.7379 24.7545 31.756 24.7908 31.5201 25.4169C31.3204 25.9522 31.4021 26.2879 31.874 26.6055C32.2915 26.8868 32.7543 27.0047 33.2716 26.8867C33.7254 26.7869 34.1519 26.5964 34.5422 26.3605C35.5496 25.7617 36.5842 25.6709 37.6914 26.1064C38.3176 26.3514 38.3266 26.3151 38.5172 25.6891C38.6897 25.1084 38.7986 24.5095 39.0799 23.9651C39.2796 23.5841 39.5246 23.2665 40.0237 23.4571C40.2053 23.5296 40.3414 23.5296 40.4866 23.3845C40.7952 23.085 41.1673 23.1395 41.5394 23.2484C42.0385 23.3935 42.5377 23.5387 43.0277 23.6929C44.262 24.0831 45.5144 24.1285 46.785 23.9198C47.0391 23.8744 47.3023 23.8472 47.5564 23.8381C48.5002 23.7837 48.6454 23.8926 48.8814 24.7908C49.2263 26.0883 49.6528 26.4784 51.005 26.4603C52.2575 26.4422 53.2285 26.923 54.0362 27.8394C54.4719 28.3294 54.9256 28.8194 55.3976 29.2821C55.7424 29.6269 56.1327 29.772 56.65 29.5452C57.2399 29.2821 57.4214 29.4182 57.5212 30.0352C57.5394 30.1804 57.5394 30.3255 57.5575 30.4616C57.6937 31.4052 57.8116 32.3398 58.1928 33.229C58.6284 34.2543 59.3817 34.8259 60.507 34.8985C60.625 34.9075 60.7339 34.9166 60.8519 34.9166C62.2858 34.962 63.4656 35.5245 64.3823 36.6405C64.8723 37.2394 65.3987 37.8201 65.9432 38.3735C66.9415 39.3988 68.1395 40.043 69.5825 40.161C70.0726 40.2063 70.5627 40.2245 71.0436 40.288C71.7152 40.3787 71.9421 40.6146 72.0238 41.2861C72.042 41.4312 72.0419 41.5764 72.0419 41.7216C72.0873 43.1461 72.768 44.1078 74.1293 44.5797C74.5922 44.743 75.055 44.9154 75.4906 45.124C76.0442 45.3872 76.3528 45.8499 76.2348 46.4578C76.0714 47.2835 76.2348 48.2634 75.3 48.7897C75.2819 48.7987 75.291 48.8441 75.2728 48.9984C76.0714 48.6173 76.7884 48.2997 77.5235 48.0729C77.696 48.0184 77.8412 47.9368 77.8684 47.7372C78.0045 46.7391 78.3312 45.7773 78.4129 44.7702ZM76.3891 64.9401C76.1985 64.8585 76.0805 64.9674 75.9535 65.0127C74.2201 65.6388 72.4866 66.1196 70.7351 65.049C70.5717 64.9492 70.3539 64.9311 70.1543 64.8766C69.0743 64.5681 69.038 64.5863 68.557 65.5662C68.4934 65.6932 68.4299 65.8293 68.3664 65.9472C67.7039 67.1631 66.9869 67.399 65.7254 66.8274C65.1446 66.5642 64.6273 66.1922 64.0919 65.8656C63.3023 65.3847 63.148 65.4119 62.5853 66.1197C62.1679 66.6459 61.6778 67.0814 61.106 67.4262C60.5887 67.7438 60.0351 67.7891 59.5813 67.3627C58.4741 66.3193 57.14 66.3283 55.7697 66.4554C55.207 66.5098 54.7714 66.7276 54.6897 67.3718C54.6262 67.8527 54.2994 68.1158 53.882 68.2972C53.1106 68.642 52.3119 68.6329 51.5133 68.4243C50.8417 68.2519 50.2155 68.2791 49.6256 68.7146C48.7543 69.3679 47.8014 69.3679 46.8303 68.9868C46.3493 68.7963 45.8865 68.5694 45.4146 68.3426C44.9608 68.1249 44.507 67.9071 44.0532 67.6803C44.1077 68.0432 44.2438 68.2791 44.3709 68.5331C44.6795 69.132 44.9245 69.7399 44.9154 70.4204C44.9063 71.3822 44.4253 71.7814 43.4724 71.6181C42.9551 71.5273 42.4832 71.2914 42.0294 71.0465C41.0674 70.5202 40.1871 69.8669 39.3068 69.2136C39.089 69.0503 38.9165 68.7872 38.5808 68.7781C38.5717 68.8689 38.5445 68.9505 38.5535 69.0322C38.608 69.4949 38.735 70.0121 38.2903 70.3115C37.8366 70.6109 37.3919 70.248 37.0198 70.0212C36.1395 69.4768 35.2864 68.8779 34.4242 68.3063C33.3351 67.5804 32.2007 66.9816 30.8666 66.8546C29.705 66.7457 28.8156 66.1378 28.1531 65.2032C27.7537 64.6407 27.3816 64.06 26.9914 63.4793C26.8008 63.198 26.6102 62.9168 26.4287 62.6355C26.3924 62.9531 26.465 63.2162 26.5558 63.4793C26.7464 64.0237 26.9551 64.5591 27.1275 65.1035C27.2818 65.6025 27.1457 65.7658 26.6556 65.666C26.1111 65.5571 25.5756 65.4119 24.904 65.2486C25.2761 66.0017 25.6482 66.5824 26.0475 67.1449C27.2092 68.7963 28.3709 70.4385 29.5416 72.0899C30.1043 72.8883 30.7668 73.6142 31.4202 74.34C31.9284 74.9117 32.5274 75.1294 33.2262 75.202C34.0067 75.2746 34.2971 75.0387 34.3516 74.2675C34.4151 73.4237 34.2608 72.607 33.9977 71.8086C33.9341 71.6181 33.8615 71.4275 33.8161 71.237C33.7889 71.1281 33.8161 71.0011 33.9432 70.9466C34.0702 70.8922 34.1701 70.9557 34.2427 71.0465C34.3062 71.11 34.3516 71.1825 34.397 71.2551C35.0867 72.353 35.8672 73.3964 36.4934 74.5306C37.0742 75.574 37.528 76.6537 37.528 77.8786C37.528 77.9058 37.6006 77.9421 37.7004 78.0057C38.9075 76.1819 39.2251 74.2584 38.4809 72.1806C38.4083 71.9901 38.2994 71.8177 38.2359 71.6271C38.1179 71.3005 38.2722 71.119 38.5898 71.1009C38.7895 71.0918 38.9892 71.1281 39.1797 71.1826C40.2234 71.4548 40.8133 72.2078 41.2217 73.1424C41.6392 74.1041 41.7935 75.1294 41.975 76.1547C42.0566 76.6356 42.1383 77.1255 42.2745 77.5883C42.4923 78.296 42.7373 78.423 43.427 78.1871C43.781 78.0692 44.1077 77.8877 44.4526 77.7335C45.1151 77.434 45.2694 77.5339 45.2694 78.2597C45.2694 78.9493 45.2694 79.6298 45.2694 80.4101C46.3584 80.0471 47.4112 79.7477 48.5002 79.6479C48.8905 79.6116 48.8542 79.3485 48.709 79.0763C47.8105 77.3978 47.148 75.6194 46.4129 73.8592C46.2677 73.5144 46.068 73.2059 45.7685 72.9609C45.2603 72.5526 45.3057 72.353 45.9228 72.0899C47.0118 71.6181 48.1735 71.9175 48.9449 72.8883C49.4168 73.4872 49.6891 74.1858 49.9251 74.8935C50.161 75.6012 50.3788 76.318 50.633 77.0257C50.8689 77.6609 51.2319 78.1962 51.7765 78.6227C52.0396 78.8223 52.2938 78.9584 52.6477 78.8495C53.1287 78.7043 53.5553 78.8767 53.9273 79.1852C54.1542 79.3667 54.363 79.5663 54.6443 79.657C54.8167 79.7114 55.0164 79.7386 55.0436 79.4937C55.1071 78.795 55.57 78.296 55.9058 77.7335C56.2779 77.1346 56.2507 76.5358 55.8695 75.946C55.6335 75.574 55.334 75.2655 55.0073 74.9752C54.5173 74.5306 54.0272 74.0769 53.5553 73.6142C53.2558 73.3238 53.1015 73.0335 53.1469 72.6252C53.2648 71.5546 53.5734 70.5383 54.0816 69.5947C54.2994 69.1774 54.6806 68.9414 55.1616 69.0412C56.3414 69.3044 57.5303 69.5403 58.6375 70.0484C59.3 70.3569 59.6177 70.8922 59.6086 71.6362C59.5995 72.2804 59.4089 72.8883 59.2274 73.4872C58.9552 74.3763 59.0187 75.1748 59.7356 75.8916C60.0805 75.7373 60.2983 75.4379 60.4798 75.1113C60.7521 74.5941 60.8973 74.0406 60.9336 73.4599C60.988 72.5163 60.6976 71.6453 60.3618 70.7743C60.2257 70.4295 60.0442 70.0938 60.0533 69.7036C60.0624 69.3134 60.2983 69.1229 60.6795 69.2046C60.9699 69.2681 61.2059 69.4405 61.4327 69.6219C62.1225 70.1573 62.6852 70.8105 63.1661 71.5364C63.874 72.6161 64.4186 73.7503 63.8468 75.2202C64.6273 74.7846 65.1083 74.2584 65.5076 73.6686C66.3335 72.4528 66.3153 71.727 65.4259 70.5474C65.317 70.4113 65.19 70.2752 65.2535 70.0847C65.3261 69.8397 65.553 69.8488 65.7527 69.8397C66.5967 69.8034 67.4135 69.9395 68.1486 70.4295C68.4027 70.0302 68.3482 69.6129 68.3664 69.2227C68.4299 67.5895 68.4481 67.5714 69.9909 68.1884C70.3993 68.3517 70.8077 68.6511 71.1435 68.0523C71.1979 67.9525 71.3976 67.9252 71.5337 67.8799C72.8769 67.4171 74.093 66.7003 75.3817 66.1197C75.9262 65.8565 76.2439 65.4845 76.3891 64.9401ZM72.405 51.6568C72.6319 51.3483 73.2127 51.0308 72.532 50.5952C72.5048 50.5771 72.4866 50.4591 72.5139 50.441C72.9404 50.0599 72.4957 49.9783 72.2961 49.8785C70.8258 49.207 69.4282 48.4086 68.1667 47.3833C67.713 47.0113 67.2138 46.8661 66.6511 47.1837C66.2518 47.4105 65.8616 47.3107 65.5258 47.0294C65.0629 46.6393 64.6182 46.231 64.1645 45.8227C63.4838 45.2057 62.8122 44.5706 62.0317 44.0625C61.6143 43.7903 61.2059 43.6814 60.743 43.9445C60.2711 44.2167 59.7992 44.1078 59.3454 43.8629C58.8644 43.5997 58.456 43.2277 58.0294 42.8829C57.7481 42.647 57.5031 42.3567 57.1582 42.2478C56.9676 42.3386 56.9404 42.4837 56.8769 42.6108C56.4594 43.509 56.0328 43.6451 55.207 43.0826C54.8258 42.8285 54.49 42.511 54.1542 42.1934C53.7186 41.776 53.3102 41.3314 52.8746 40.9141C51.958 40.0339 51.5859 39.9704 50.4061 40.5148C49.9069 40.7417 49.4259 40.9957 48.9268 41.2316C48.4004 41.4766 47.8468 41.7397 47.275 41.7034C46.313 41.6399 45.4781 41.9393 44.6704 42.4021C44.5433 42.4746 44.4072 42.52 44.2711 42.5654C41.5757 43.5725 39.8513 42.8467 38.6806 40.2154C38.5445 39.9069 38.49 39.544 38.2087 39.3262C37.9908 39.3172 37.891 39.4714 37.764 39.5893C36.3754 40.8868 34.9778 42.1752 33.6165 43.509C33.2535 43.8629 32.8814 43.999 32.3913 43.999C31.3385 43.9899 30.3402 43.754 29.351 43.4273C28.5524 43.1642 28.5524 43.1733 28.1077 43.881C27.7447 44.4617 27.427 45.0968 26.7373 45.3872C26.6193 45.4416 26.4741 45.5142 26.5195 45.7864C28.1621 46.0586 29.7776 46.5667 31.393 47.0476C34.2064 47.8914 37.1196 48.3451 39.9511 49.1435C41.4214 49.5609 42.9279 49.824 44.4435 50.0055C47.2206 50.3321 49.9795 50.7677 52.6749 51.5389C57.1673 52.8273 61.5326 54.4786 65.8162 56.3296C65.9886 56.4021 66.2155 56.4384 66.2427 56.6925C65.7799 56.7016 65.7799 56.7106 65.3806 56.5382C62.8394 55.4495 60.2529 54.4786 57.6483 53.5441C53.7821 52.1558 49.8434 51.0943 45.7685 50.6043C43.8536 50.3775 41.9387 50.1416 40.0691 49.6516C36.1213 48.6082 32.0918 47.8461 28.1803 46.6393C27.2001 46.3399 26.1837 46.1766 25.1128 46.2673C24.5864 46.3127 24.06 46.476 23.5155 46.485C23.7242 45.732 23.7242 45.732 22.8167 45.2148C22.617 45.7229 22.2994 46.0949 21.7458 46.2401C21.4917 46.3036 21.3465 46.5667 21.1831 46.7663C20.5115 47.5738 19.6766 48.1818 18.7963 48.7352C18.1701 49.1254 17.4985 49.3613 16.7543 49.3159C16.4911 49.2978 16.2551 49.3159 16.0373 49.5155C15.393 50.1325 14.5852 50.4319 13.7503 50.686C12.9335 50.94 12.8609 51.1669 13.4236 51.7839C13.5325 51.9109 13.6505 52.056 13.8501 52.047C14.0317 51.8474 13.9137 51.4028 14.3221 51.4118C14.6579 51.4209 14.7668 51.7385 14.912 51.9835C15.1298 52.3555 15.3204 52.7456 15.52 53.1267C16.2733 54.5512 17.0175 55.9848 17.7798 57.4002C18.3334 58.4164 18.9868 59.3601 19.849 60.1494C21.2739 61.456 22.6987 62.7535 24.1417 64.0328C24.777 64.5953 25.4849 65.0127 26.5195 65.1125C26.3198 64.5227 26.1474 64.0328 26.0022 63.5519C25.866 63.1164 25.739 62.6718 25.621 62.2272C25.5484 61.9459 25.4576 61.6193 25.7753 61.4469C26.1474 61.2473 26.3561 61.5739 26.5467 61.8189C26.8099 62.1546 27.0459 62.5266 27.2818 62.8805C27.6993 63.5065 28.0986 64.1326 28.5252 64.7496C29.1423 65.6569 29.9772 66.2285 31.0844 66.3283C32.3368 66.4372 33.4077 66.9635 34.4333 67.6258C35.1593 68.0885 35.8672 68.5966 36.5842 69.0775C36.8927 69.2862 37.2104 69.4858 37.5462 69.6492C37.9001 69.8215 38.0362 69.7308 38.0181 69.3497C37.9818 68.6602 37.6551 68.0886 37.2648 67.5442C37.0833 67.2901 36.566 67.0179 36.8746 66.7185C37.2739 66.3374 37.4917 66.9181 37.7367 67.1359C39.0708 68.3245 40.4684 69.4405 42.0022 70.366C42.3924 70.6019 42.819 70.8105 43.2455 70.9648C44.1622 71.2914 44.4979 70.9829 44.3255 70.0212C44.2257 69.4768 43.9988 68.9777 43.7084 68.5059C43.3907 67.9888 43.0005 67.526 42.5558 67.1086C42.4106 66.9725 42.22 66.8183 42.3743 66.6005C42.5195 66.3919 42.7373 66.4735 42.9188 66.5552C43.7265 66.9272 44.5433 67.2992 45.351 67.6803C45.9772 67.9797 46.5762 68.3154 47.2387 68.5241C47.9375 68.7509 48.6182 68.7509 49.2172 68.2972C49.9977 67.7075 50.8326 67.644 51.7583 67.8889C52.2847 68.0341 52.8383 68.0523 53.3828 67.8799C53.7821 67.7528 54.1179 67.5623 54.1905 67.0814C54.3085 66.283 54.8984 65.9835 55.5972 65.9019C57.1038 65.7386 58.6012 65.6932 59.8355 66.8364C60.1894 67.1631 60.5615 67.1268 60.9427 66.8637C61.4509 66.5189 61.8774 66.1106 62.2586 65.6297C62.8485 64.8585 63.3386 64.7677 64.2008 65.2486C64.6545 65.5027 65.072 65.8112 65.5258 66.0652C66.9415 66.8727 67.3862 66.7548 68.0578 65.2849C68.439 64.4502 68.9381 63.9511 69.9183 64.1598C69.9546 64.1689 70.009 64.1054 70.0998 64.0509C69.5916 62.9168 69.5008 61.6737 69.3556 60.4488C69.1015 58.3529 69.4645 56.3749 70.5264 54.5421C71.08 53.5441 71.7243 52.5914 72.405 51.6568ZM71.1525 69.8397C71.1889 69.4042 71.0709 69.1229 70.6171 69.005C70.3448 68.9324 70.0816 68.7872 69.8094 68.6874C69.0107 68.388 69.0017 68.397 68.9472 69.2136C68.9109 69.7308 68.8746 70.248 68.7748 70.7561C68.6568 71.3912 68.3845 71.482 67.9217 71.0465C67.4588 70.6019 66.9506 70.366 66.2972 70.4295C66.3063 70.5383 66.2881 70.6018 66.3153 70.6472C67.6585 72.5798 65.2263 75.4651 63.629 75.9097C63.5473 75.9279 63.4566 75.946 63.3749 75.9551C63.148 75.9732 62.8939 76.0186 62.7668 75.7646C62.6489 75.5377 62.8122 75.3744 62.9574 75.2383C63.7107 74.5669 63.6562 73.7684 63.3023 72.9428C62.8213 71.8086 62.0862 70.8559 61.1333 70.0756C61.0244 69.9849 60.8973 69.7943 60.6886 69.9849C60.9154 70.6654 61.2331 71.3096 61.3692 72.0264C61.6869 73.6777 61.5144 75.1929 60.1259 76.3452C59.9171 76.5176 59.9353 76.7445 59.8264 76.9441C59.7447 77.0893 59.5632 77.1709 59.4815 77.0257C59.2274 76.6174 58.7918 76.3362 58.692 75.819C58.4923 74.8481 58.4378 73.8864 58.8009 72.9337C58.9007 72.6706 58.9642 72.3802 59.0096 72.0989C59.173 71.119 58.9461 70.6926 58.0204 70.375C57.258 70.1119 56.4775 69.9123 55.6971 69.7127C54.7986 69.4768 54.5354 69.631 54.2631 70.5474C54.1996 70.7743 54.127 70.9648 54.4265 71.119C54.7986 71.3096 54.7804 71.6725 54.6806 72.0354C54.5989 72.3439 54.4991 72.6433 54.3085 72.9065C54.0907 73.1968 54.1542 73.4237 54.4083 73.6505C54.6897 73.8955 54.9619 74.1495 55.2433 74.4036C55.6245 74.7484 56.0056 75.1113 56.3051 75.5377C56.8678 76.3543 56.9313 77.1891 56.3777 78.0419C56.1871 78.3323 55.9875 78.6136 55.815 78.913C55.6517 79.2033 55.5065 79.5028 55.9784 79.6661C56.1236 79.7205 56.2416 79.8112 56.2053 79.9836C56.169 80.1833 56.0056 80.2558 55.8241 80.2649C55.0436 80.2921 54.2722 80.3103 53.646 79.6842C53.3465 79.3848 52.929 79.2033 52.566 79.539C52.1486 79.9201 51.9489 79.8294 51.7674 79.3576C51.7311 79.2578 51.6131 79.1852 51.5224 79.1217C50.6511 78.5047 50.2155 77.6155 49.8888 76.6447C49.6528 75.937 49.435 75.2202 49.19 74.5124C48.9903 73.9408 48.718 73.3964 48.2643 72.97C47.7197 72.4619 47.1026 72.3348 46.3403 72.5707C46.549 72.9609 46.7396 73.2422 46.8757 73.5598C47.6562 75.3835 48.3732 77.2344 49.2716 79.0128C49.6437 79.7477 49.435 80.0834 48.6091 80.1833C47.6018 80.3103 46.6307 80.5462 45.6687 80.8547C44.8791 81.1178 44.6341 80.891 44.6704 80.029C44.6976 79.4755 44.7521 78.913 44.6522 78.3051C44.1894 78.4684 43.8264 78.6317 43.4361 78.7315C42.5921 78.9493 42.102 78.7043 41.8116 77.8877C41.7027 77.5883 41.6392 77.2798 41.5847 76.9713C41.4577 76.318 41.3578 75.6647 41.2308 75.0205C41.0765 74.2584 40.8768 73.5053 40.4775 72.8248C40.1327 72.2532 39.688 71.8086 38.9892 71.6906C38.9619 71.7995 38.9438 71.8267 38.9529 71.8449C38.9982 72.0082 39.0527 72.1715 39.0981 72.3439C39.697 74.3037 39.4157 76.1547 38.3811 77.9058C38.1905 78.2325 37.9636 78.5319 37.6823 78.7769C37.5099 78.9311 37.3193 79.1126 37.0742 78.9856C36.8201 78.8495 36.9109 78.5863 36.9381 78.3686C37.1196 76.6628 36.1939 74.2947 34.7872 72.979C34.8326 73.5234 34.9143 74.0043 34.8326 74.4852C34.6692 75.3925 34.2608 75.7283 33.3442 75.6647C33.0266 75.6466 32.718 75.574 32.4094 75.5105C32.2189 75.4742 32.0555 75.5014 31.992 75.701C31.7832 76.318 31.3567 76.7808 30.8575 77.1709C31.1298 77.5248 31.4747 77.4613 31.7651 77.5157C32.7634 77.6881 33.435 78.2597 33.8161 79.1761C33.9886 79.6026 34.1429 80.0381 34.2699 80.4827C34.5059 81.3083 35.0686 81.7076 35.9035 81.7892C36.9381 81.889 37.9818 81.9162 38.9801 81.5805C41.0039 80.9 42.937 81.0361 44.8337 82.0251C46.2949 82.7873 47.8468 83.1049 49.5076 83.0232C50.8598 82.9506 52.1304 82.7056 53.2648 81.9162C54.0816 81.3537 54.9892 80.9998 55.933 80.7276C56.9585 80.4373 58.0204 80.2921 59.055 80.0381C61.2694 79.4937 63.1752 78.2869 65.072 77.0983C65.9614 76.5449 66.4878 75.6738 66.4968 74.5669C66.4968 74.086 66.7419 73.7412 67.1231 73.4962C67.4861 73.2603 67.8672 73.0516 68.2393 72.8429C69.1287 72.353 69.9364 71.7542 70.6171 71.0011C70.8984 70.6563 71.1162 70.3024 71.1525 69.8397ZM53.7731 72.471C54.0725 72.2169 54.1089 72.0354 54.1089 71.6725C53.9818 71.8812 53.9273 71.9356 53.9001 72.0082C53.8547 72.1171 53.8366 72.226 53.7731 72.471ZM31.157 76.2545C31.3567 75.9914 31.6562 75.7283 31.4474 75.3563C31.3295 75.1476 30.6125 75.1929 30.3221 75.4016C29.9591 75.6557 29.8411 76.0186 29.832 76.4088C29.8502 76.8715 30.0408 77.0076 30.431 76.8443C30.7305 76.7172 30.9664 76.5086 31.157 76.2545Z" fill="black"/>
</svg>
