<svg width="78" height="92" viewBox="0 0 78 92" fill="none" xmlns="http://www.w3.org/2000/svg">
<g clip-path="url(#clip0_191_148639)">
<path d="M55.0763 61.0684C55.0489 60.9724 51.8557 51.6121 49.9096 43.1014C48.4158 36.5506 48.5803 27.108 48.7721 22.695C44.3318 25.7101 33.6421 33.3573 28.6399 40.5935C22.2397 49.8442 19.5536 60.3831 19.5262 60.4928L17.1553 59.9035C17.2649 59.4512 19.9785 48.8163 26.6253 39.2093C33.2858 29.5748 48.8133 19.7211 49.4711 19.31L51.5131 18.0217L51.3486 20.4338C51.3486 20.5708 50.403 34.2893 52.2943 42.5669C54.2129 50.968 57.365 60.205 57.3924 60.2872L55.0763 61.0821V61.0684Z" fill="#50A822"/>
<path d="M37.904 73.5123C37.904 83.7086 29.64 91.9726 19.4437 91.9726C9.24736 91.9726 0.983398 83.7086 0.983398 73.5123C0.983398 65.495 6.24602 57.6148 14.4141 57.6696C16.086 57.6696 16.7576 58.4645 19.4437 58.4645C22.1298 58.4645 22.7328 57.6422 24.3637 57.6285C33.0114 57.6011 37.904 65.4265 37.904 73.4986V73.5123Z" fill="#7D0006"/>
<path d="M76.6749 70.0176C78.621 80.0221 72.0839 89.7113 62.0794 91.6574C52.0749 93.6035 42.3857 87.0663 40.4396 77.0618C38.9046 69.1953 42.5638 60.4654 50.5948 58.9579C52.2394 58.6564 53.0479 59.3005 55.6793 58.7797C58.3243 58.2726 58.7628 57.3407 60.3526 57.0255C68.8358 55.3535 75.1263 62.0963 76.6749 70.0176Z" fill="#7D0006"/>
<path d="M19.4437 58.4782C16.7576 58.4782 16.086 57.6833 14.4141 57.6833C6.24602 57.6285 0.983398 65.495 0.983398 73.5123C0.983398 80.2962 4.64257 86.2303 10.0971 89.4372C11.2757 89.6702 12.4954 89.7936 13.7425 89.7936C23.9389 89.7936 32.2028 81.5296 32.2028 71.3333C32.2028 65.9199 29.9964 60.6298 25.9398 57.7244C25.419 57.6696 24.8982 57.6422 24.35 57.6422C22.7328 57.6422 22.1161 58.4782 19.43 58.4782H19.4437Z" fill="#AD0009"/>
<path d="M60.3526 57.0255C58.7628 57.3407 58.3243 58.2726 55.6793 58.7797C53.0342 59.2868 52.2257 58.6426 50.5948 58.9578C42.5638 60.4654 38.9046 69.1953 40.4396 77.0618C41.4948 82.4752 44.8114 86.8744 49.2243 89.4646C51.5267 89.9306 53.9388 89.958 56.3782 89.492C66.3827 87.546 72.9198 77.8567 70.9738 67.8522C70.1104 63.3708 67.712 59.2731 64.2721 56.861C63.025 56.724 61.7231 56.7788 60.3526 57.0392V57.0255Z" fill="#AD0009"/>
<path d="M27.475 22.3113C16.0727 18.707 10.207 5.11187 10.207 5.11187C10.207 5.11187 22.8291 -2.64502 34.2178 0.959328C45.6201 4.56368 51.472 18.1725 51.472 18.1725C51.472 18.1725 38.85 25.9294 27.4613 22.325L27.475 22.3113Z" fill="#50A822"/>
<path d="M51.4994 18.1725L10.2207 5.12555C10.2207 5.12555 16.0863 18.7344 27.475 22.3387C38.8773 25.9431 51.4857 18.1862 51.4857 18.1862L51.4994 18.1725Z" fill="#578D38"/>
<path d="M16.5797 70.045C16.5797 72.9915 14.2499 75.3762 11.3719 75.3762C8.49387 75.3762 6.16406 72.9915 6.16406 70.045C6.16406 67.0985 8.49387 64.7139 11.3719 64.7139C14.2499 64.7139 16.5797 67.0985 16.5797 70.045Z" fill="#FF6269"/>
<path d="M56.2681 70.5384C56.2681 73.4849 53.9383 75.8695 51.0603 75.8695C48.1823 75.8695 45.8525 73.4849 45.8525 70.5384C45.8525 67.5918 48.1823 65.2072 51.0603 65.2072C53.9383 65.2072 56.2681 67.5918 56.2681 70.5384Z" fill="#FF6269"/>
</g>
<defs>
<clipPath id="clip0_191_148639">
<rect width="76.034" height="92" fill="white" transform="translate(0.983398)"/>
</clipPath>
</defs>
</svg>
