<svg width="63" height="92" viewBox="0 0 63 92" fill="none" xmlns="http://www.w3.org/2000/svg">
<g clip-path="url(#clip0_185_146287)">
<path d="M20.6369 12.4453C15.3968 17.8814 6.69524 20.3209 3.20886 26.9325C2.09092 44.1569 -1.38009 66.2469 10.3487 80.4402C52.7922 121.889 81.782 31.9364 41.3515 12.9543C38.1667 11.8671 36.3073 9.39112 35.8713 6.09491C30.7042 -5.15178 27.9689 12.6681 20.6369 12.4453Z" fill="#FB2F56"/>
<path d="M13.6083 19.4891C-15.6215 40.7282 22.9514 128.758 50.0011 73.7344C53.8659 70.953 58.232 68.6192 57.9727 63.0621C64.1906 36.0643 43.1897 -4.94241 13.6083 19.4891Z" fill="#F84296"/>
<path d="M14.7742 19.4891C-2.81905 30.9298 5.54634 86.3642 25.9402 89.9216C41.9333 91.9846 42.3751 85.9992 49.1289 73.7325C52.8823 70.9146 56.92 68.4962 56.6549 63.0621C62.3772 37.5799 43.8139 -5.28047 14.7742 19.4891Z" fill="#EFCCD6"/>
<path d="M28.8656 7.28777C28.1203 11.579 30.6943 5.60125 31.8487 5.58972C32.8437 6.26971 34.2997 10.6608 35.3908 8.19442C34.367 5.79525 37.0197 -0.827902 32.9801 0.0845109C32.5863 8.30007 30.8307 -4.9885 28.8675 7.28585L28.8656 7.28777Z" fill="#FFC36E"/>
<path d="M3.95613 25.9663C-1.15146 30.0866 -0.803784 43.8361 3.1897 30.5917C3.77365 29.7811 3.46631 28.8303 2.3983 28.9302" fill="#EEA159"/>
<path d="M57.1338 30.4688C57.7907 32.4531 60.4857 30.1692 62.0531 31.1296C59.3351 27.9544 56.0773 24.6082 52.8291 21.9786C53.4169 24.6793 56.5978 27.4742 57.1338 30.4688Z" fill="#FF9770"/>
<path d="M56.2764 70.6668C57.9725 73.3003 56.3859 76.1259 56.8603 78.6423C61.7566 71.1221 58.4527 51.1758 56.2764 70.6668Z" fill="#DD2330"/>
<path d="M2.88988 68.2024C1.27827 75.8032 6.0209 77.6665 5.97864 69.2588C5.98824 64.9446 3.62942 61.8885 2.88988 68.2024Z" fill="#F1C757"/>
<path d="M26.1841 91.758C28.2318 89.9178 34.4189 94.3742 34.0981 90.0138C31.6605 88.479 17.0658 88.8959 26.1841 91.758Z" fill="#A6AD3B"/>
<path d="M14.4706 23.2809C4.8663 28.2829 12.3346 41.7597 12.6535 50.1001C13.8272 59.0571 12.4441 68.9035 17.181 76.9999C20.0066 82.5551 27.1676 81.6561 31.8411 84.9235C42.4231 89.6104 43.6352 74.7544 47.8035 68.6403C57.8669 58.938 52.3194 44.3298 50.8096 32.2533C48.7178 14.7427 25.5118 12.1072 14.4726 23.2809H14.4706Z" fill="#FFF3E7"/>
<path d="M23.5241 34.0224C14.0024 45.0655 21.0673 75.5324 39.7881 62.3687C49.7171 51.8308 41.1193 19.3835 23.5241 34.0224Z" fill="#F3E6DE"/>
<path d="M21.6548 44.9137C19.6091 45.9798 23.1474 46.6041 23.0129 45.1769C22.8631 44.7927 21.966 44.8311 21.6548 44.9137Z" fill="#1B0D04"/>
<path d="M22.1794 42.5299C20.1087 41.3774 21.0346 43.8957 22.604 43.6652C23.5932 43.7132 22.5118 42.6548 22.1794 42.5299Z" fill="#1B0D04"/>
<path d="M24.1079 41.5311C22.9516 41.12 23.6162 42.7047 24.2462 42.9276C25.7234 43.5653 24.8129 41.8442 24.1079 41.5311Z" fill="#1B0D04"/>
<path d="M23.691 37.6701C22.6364 37.6356 24.0905 40.3651 24.661 39.3202C24.9376 38.7593 24.1885 37.8526 23.691 37.6701Z" fill="#1B0D04"/>
<path d="M26.1983 37.5626C24.4618 36.2525 25.7565 39.833 26.7688 39.0589C27.176 38.4404 26.5997 37.9256 26.1983 37.5626Z" fill="#1B0D04"/>
<path d="M16.7783 32.9179C15.0419 31.6079 16.3365 35.1884 17.3488 34.4143C17.7561 33.7958 17.1798 33.281 16.7783 32.9179Z" fill="#1B0D04"/>
<path d="M28.2747 33.8092C25.8775 38.16 30.3992 34.7063 28.0077 34.0666L28.2747 33.8092Z" fill="#1B0D04"/>
<path d="M30.0858 32.9294C29.7708 33.644 31.4631 34.9387 31.659 33.9072C31.5976 33.4673 30.4489 32.2053 30.0858 32.9294Z" fill="#1B0D04"/>
<path d="M29.671 40.805C29.0333 40.6725 28.6972 41.6809 29.2004 42.0324C30.3741 43.0716 31.7264 40.3574 29.671 40.805Z" fill="#1B0D04"/>
<path d="M31.2998 41.3198C31.0212 41.679 31.367 42.795 31.9087 42.3186C32.6694 41.4658 32.0816 39.5718 31.2998 41.3198Z" fill="#1B0D04"/>
<path d="M32.936 38.9571C30.9364 39.4143 33.5334 40.6398 34.1116 39.4124C34.271 38.8572 33.2011 38.9456 32.936 38.9571Z" fill="#1B0D04"/>
<path d="M31.5571 37.6874C30.3776 38.7919 32.1179 39.0743 32.652 38.0197C33.307 37.0132 32.0315 37.019 31.5571 37.6874Z" fill="#1B0D04"/>
<path d="M31.9089 35.9586C31.1867 35.4823 31.8974 34.6525 32.5102 35.1941C33.3592 35.8434 32.6523 37.0727 31.9089 35.9586Z" fill="#1B0D04"/>
<path d="M33.4374 35.1961C32.6191 37.4665 35.2104 35.3651 34.3517 34.2395C33.8965 33.8591 33.5546 34.956 33.4374 35.1961Z" fill="#1B0D04"/>
<path d="M35.7412 35.6321C35.0881 36.2026 34.6521 38.8419 35.9487 37.3916C36.4385 36.8826 36.3463 34.833 35.407 35.8434" fill="#1B0D04"/>
<path d="M19.8457 30.9874C19.1926 31.5579 18.7566 34.1972 20.0532 32.747C20.543 32.2379 20.4508 30.1884 19.5115 31.1987" fill="#1B0D04"/>
<path d="M35.2639 40.2883C35.1833 39.8042 35.3081 39.1799 35.7883 38.9802C37.6016 39.2722 35.5886 43.1465 35.2639 40.2883Z" fill="#1B0D04"/>
<path d="M37.4404 38.6882C37.1561 38.9821 36.8622 39.8523 37.3367 40.0962C38.9636 39.9829 39.4227 36.7212 37.4404 38.6882Z" fill="#1B0D04"/>
<path d="M36.1963 43.3444C36.6497 45.6283 37.9347 43.5883 37.0204 42.3628C36.1906 41.2775 35.8717 42.5895 36.1963 43.3444Z" fill="#1B0D04"/>
<path d="M41.7726 45.4497C41.1349 45.3171 40.7987 46.3256 41.302 46.6771C42.4756 47.7163 43.8279 45.0021 41.7726 45.4497Z" fill="#1B0D04"/>
<path d="M43.3994 45.9644C43.1209 46.3237 43.4666 47.4397 44.0083 46.9633C44.769 46.1104 44.1812 44.2165 43.3994 45.9644Z" fill="#1B0D04"/>
<path d="M45.0356 43.5999C43.036 44.057 45.633 45.2826 46.2112 44.0551C46.3706 43.5 45.3007 43.5883 45.0356 43.5999Z" fill="#1B0D04"/>
<path d="M43.6586 42.3321C42.4792 43.4366 44.2195 43.719 44.7535 42.6644C45.4085 41.6579 44.1331 41.6636 43.6586 42.3321Z" fill="#1B0D04"/>
<path d="M47.8398 40.2748C47.1867 40.8453 46.7507 43.4846 48.0473 42.0344C48.5371 41.5253 48.4449 39.4758 47.5056 40.4861" fill="#1B0D04"/>
<path d="M47.3635 44.9329C47.2829 44.4489 47.4077 43.8246 47.8879 43.6248C49.7012 43.9168 47.6882 47.7912 47.3635 44.9329Z" fill="#1B0D04"/>
<path d="M49.54 43.3329C49.2557 43.6268 48.9618 44.4969 49.4363 44.7409C51.0633 44.6275 51.5223 41.3659 49.54 43.3329Z" fill="#1B0D04"/>
<path d="M48.2959 47.9891C48.7493 50.273 50.0343 48.233 49.12 47.0075C48.2902 45.9222 47.9713 47.2342 48.2959 47.9891Z" fill="#1B0D04"/>
<path d="M37.3253 25.2383C36.6876 25.1057 36.3515 26.1142 36.8547 26.4657C38.0284 27.5049 39.3807 24.7907 37.3253 25.2383Z" fill="#1B0D04"/>
<path d="M38.9521 25.7531C38.6736 26.1123 39.0193 27.2283 39.561 26.7519C40.3217 25.8991 39.7339 24.0051 38.9521 25.7531Z" fill="#1B0D04"/>
<path d="M40.5893 23.3885C38.5897 23.8457 41.1867 25.0712 41.7649 23.8437C41.9244 23.2886 40.8544 23.377 40.5893 23.3885Z" fill="#1B0D04"/>
<path d="M39.2094 22.1207C38.03 23.2252 39.7703 23.5076 40.3043 22.453C40.9593 21.4465 39.6839 21.4523 39.2094 22.1207Z" fill="#1B0D04"/>
<path d="M43.3936 20.0635C42.7405 20.634 42.3044 23.2732 43.601 21.823C44.0908 21.3139 43.9986 19.2644 43.0593 20.2748" fill="#1B0D04"/>
<path d="M42.9173 24.7216C42.8366 24.2375 42.9614 23.6132 43.4417 23.4135C45.255 23.7054 43.2419 27.5798 42.9173 24.7216Z" fill="#1B0D04"/>
<path d="M45.0937 23.1215C44.8094 23.4154 44.5155 24.2855 44.99 24.5295C46.617 24.4161 47.0761 21.1545 45.0937 23.1215Z" fill="#1B0D04"/>
<path d="M43.8487 27.7777C44.302 30.0616 45.5871 28.0216 44.6727 26.7961C43.8429 25.7108 43.524 27.0228 43.8487 27.7777Z" fill="#1B0D04"/>
<path d="M16.715 21.483C16.0773 21.3504 15.7411 22.3589 16.2444 22.7104C17.418 23.7496 18.7703 21.0354 16.715 21.483Z" fill="#1B0D04"/>
<path d="M18.3437 21.9997C18.0652 22.3589 18.4109 23.4749 18.9526 22.9985C19.7133 22.1457 19.1255 20.2517 18.3437 21.9997Z" fill="#1B0D04"/>
<path d="M19.978 19.6351C17.9784 20.0923 20.5754 21.3178 21.1536 20.0904C21.313 19.5352 20.2431 19.6236 19.978 19.6351Z" fill="#1B0D04"/>
<path d="M18.601 18.3673C17.4216 19.4718 19.1619 19.7542 19.6959 18.6996C20.3509 17.6931 19.0755 17.6989 18.601 18.3673Z" fill="#1B0D04"/>
<path d="M22.7842 16.3101C22.1311 16.8806 21.695 19.5199 22.9916 18.0696C23.4815 17.5606 23.3892 15.511 22.4499 16.5214" fill="#1B0D04"/>
<path d="M22.3079 20.9663C22.2272 20.4822 22.3521 19.8579 22.8323 19.6582C24.6456 19.9501 22.6325 23.8245 22.3079 20.9663Z" fill="#1B0D04"/>
<path d="M24.4843 19.3662C24.2001 19.6601 23.9062 20.5302 24.3806 20.7742C26.0076 20.6609 26.4667 17.3992 24.4843 19.3662Z" fill="#1B0D04"/>
<path d="M23.2393 24.0224C23.6926 26.3063 24.9777 24.2663 24.0633 23.0408C23.2335 21.9555 22.9147 23.2675 23.2393 24.0224Z" fill="#1B0D04"/>
<path d="M37.5786 45.2307C37.5459 47.1477 39.3189 44.9329 38.3988 44.3336C37.9416 44.1531 37.5901 44.8888 37.5786 45.2307Z" fill="#1B0D04"/>
<path d="M37.9533 47.8488C36.4512 48.7881 39.7551 49.2876 39.8723 48.0006C39.9337 47.1208 38.2741 47.7528 37.9533 47.8488Z" fill="#1B0D04"/>
<path d="M29.2695 45.9914C29.4712 47.9372 31.2154 45.9587 30.2165 45.0732C29.6768 44.6717 29.2849 45.5611 29.2695 45.9914Z" fill="#1B0D04"/>
<path d="M33.1516 44.6102C32.7328 46.6003 34.9745 43.5999 33.6837 43.6805C33.4378 43.8457 33.263 44.3471 33.1516 44.6102Z" fill="#1B0D04"/>
<path d="M34.8325 46.0547C34.7556 46.5042 35.1244 47.2668 35.5662 46.7098C36.396 45.6379 34.8325 45.3402 34.8325 46.0547Z" fill="#1B0D04"/>
<path d="M29.7666 43.2407C27.7804 44.3471 30.0471 44.8561 30.9499 43.7382C31.7297 42.8046 30.2756 42.8661 29.7666 43.2407Z" fill="#1B0D04"/>
<path d="M27.2352 47.2514C26.9164 46.8557 26.8683 45.5937 27.6424 45.8473C28.8027 46.3294 28.5414 48.6575 27.2352 47.2514Z" fill="#1B0D04"/>
<path d="M29.1307 48.7497C29.5129 49.8196 30.4234 48.6268 29.9278 47.9775C29.365 46.7366 28.9002 48.0524 29.1307 48.7497Z" fill="#1B0D04"/>
<path d="M26.1711 48.6537C25.6908 48.8169 24.9552 49.7294 25.7619 49.9368C27.3121 50.3536 28.3916 47.4378 26.1711 48.6537Z" fill="#1B0D04"/>
<path d="M28.265 50.3728C28.0037 50.7935 27.8443 51.6752 28.2707 52.019C29.5712 52.1631 29.3311 48.5288 28.265 50.3728Z" fill="#1B0D04"/>
<path d="M29.9957 49.8945C29.9553 50.8684 31.2865 50.9222 30.9638 49.8369C30.8428 48.5442 29.6153 48.4558 29.9957 49.8945Z" fill="#1B0D04"/>
<path d="M33.8905 48.331C33.3162 48.5192 31.9888 49.0897 32.7303 49.8081C33.8943 50.7647 34.8298 47.6087 33.6062 48.5768" fill="#1B0D04"/>
<path d="M33.1402 51.2027C32.6062 49.2472 35.136 50.5284 34.2601 51.7021C33.8875 52.0229 33.317 51.5388 33.1402 51.2027Z" fill="#1B0D04"/>
<path d="M45.7442 50.8012C46.1975 53.0851 47.4826 51.0452 46.5682 49.8196C45.7384 48.7343 45.4196 50.0463 45.7442 50.8012Z" fill="#1B0D04"/>
<path d="M47.1274 52.6856C47.0947 54.6026 48.8677 52.3878 47.9476 51.7885C47.4904 51.608 47.1389 52.3437 47.1274 52.6856Z" fill="#1B0D04"/>
<path d="M47.5022 55.3037C46 56.243 49.3039 56.7425 49.4211 55.4555C49.4826 54.5757 47.8229 55.2077 47.5022 55.3037Z" fill="#1B0D04"/>
<path d="M38.8184 53.4482C39.0201 55.394 40.7642 53.4155 39.7653 52.53C39.2256 52.1285 38.8337 53.0179 38.8184 53.4482Z" fill="#1B0D04"/>
<path d="M42.7004 52.0671C42.2817 54.0571 44.5233 51.0567 43.2325 51.1374C42.9866 51.3026 42.8118 51.8039 42.7004 52.0671Z" fill="#1B0D04"/>
<path d="M44.3813 53.5115C44.3044 53.961 44.6733 54.7236 45.1151 54.1666C45.9449 53.0947 44.3813 52.797 44.3813 53.5115Z" fill="#1B0D04"/>
<path d="M39.3174 50.6975C37.3312 51.8039 39.5978 52.3129 40.5006 51.195C41.2805 50.2614 39.8264 50.3229 39.3174 50.6975Z" fill="#1B0D04"/>
<path d="M38.6795 56.2065C39.0618 57.2764 39.9723 56.0836 39.4767 55.4343C38.9139 54.1935 38.449 55.5092 38.6795 56.2065Z" fill="#1B0D04"/>
<path d="M39.5465 57.3514C39.5061 58.3252 40.8373 58.379 40.5146 57.2937C40.3936 56.001 39.1661 55.9126 39.5465 57.3514Z" fill="#1B0D04"/>
<path d="M43.4413 55.7878C42.8669 55.976 41.5396 56.5465 42.2811 57.2649C43.4451 58.2215 44.3806 55.0655 43.157 56.0337" fill="#1B0D04"/>
<path d="M42.6901 58.6595C42.1561 56.704 44.6858 57.9853 43.8099 59.1589C43.4373 59.4797 42.8668 58.9956 42.6901 58.6595Z" fill="#1B0D04"/>
<path d="M23.8985 62.5089C24.3518 64.7928 25.6369 62.7529 24.7225 61.5273C23.8927 60.442 23.5739 61.754 23.8985 62.5089Z" fill="#1B0D04"/>
<path d="M25.2817 64.3952C25.249 66.3122 27.022 64.0975 26.1019 63.4981C25.6447 63.3176 25.2932 64.0533 25.2817 64.3952Z" fill="#1B0D04"/>
<path d="M25.6565 67.0133C24.1543 67.9526 27.4582 68.4521 27.5754 67.1651C27.6369 66.2853 25.9772 66.9173 25.6565 67.0133Z" fill="#1B0D04"/>
<path d="M16.9717 65.1559C17.1734 67.1017 18.9175 65.1232 17.9187 64.2377C17.3789 63.8362 16.987 64.7256 16.9717 65.1559Z" fill="#1B0D04"/>
<path d="M20.8537 63.7748C20.435 65.7648 22.6767 62.7644 21.3858 62.8451C21.14 63.0103 20.9652 63.5116 20.8537 63.7748Z" fill="#1B0D04"/>
<path d="M22.5346 65.2192C22.4578 65.6687 22.8266 66.4313 23.2684 65.8743C24.0982 64.8024 22.5346 64.5047 22.5346 65.2192Z" fill="#1B0D04"/>
<path d="M17.4697 62.4052C15.4836 63.5116 17.7502 64.0206 18.653 62.9027C19.4329 61.9691 17.9788 62.0306 17.4697 62.4052Z" fill="#1B0D04"/>
<path d="M16.8338 67.9142C17.2161 68.9841 18.1266 67.7913 17.631 67.142C17.0682 65.9012 16.6033 67.2169 16.8338 67.9142Z" fill="#1B0D04"/>
<path d="M17.6978 69.061C17.6575 70.0349 18.9886 70.0886 18.6659 69.0034C18.5449 67.7106 17.3175 67.6223 17.6978 69.061Z" fill="#1B0D04"/>
<path d="M21.5956 67.4955C21.0212 67.6837 19.6939 68.2542 20.4354 68.9726C21.5994 69.9292 22.5349 66.7732 21.3113 67.7413" fill="#1B0D04"/>
<path d="M20.8424 70.3672C20.3084 68.4117 22.8382 69.6929 21.9623 70.8666C21.5896 71.1874 21.0191 70.7033 20.8424 70.3672Z" fill="#1B0D04"/>
<path d="M31.5979 52.5876C31.133 52.1804 31.1638 50.8396 31.9936 51.3083C33.3459 51.8327 32.7658 54.3894 31.5979 52.5876Z" fill="#1B0D04"/>
<path d="M40.8613 30.803C40.5828 31.1622 40.9285 32.2783 41.4702 31.8019C42.2309 30.949 41.6431 29.0551 40.8613 30.803Z" fill="#1B0D04"/>
<path d="M45.7579 32.8276C46.2112 35.1115 47.4962 33.0716 46.5819 31.8461C45.7521 30.7608 45.4332 32.0727 45.7579 32.8276Z" fill="#1B0D04"/>
<path d="M47.1411 34.7139C47.1084 36.631 48.8814 34.4162 47.9613 33.8169C47.5041 33.6363 47.1526 34.372 47.1411 34.7139Z" fill="#1B0D04"/>
<path d="M47.5158 37.3321C46.0137 38.2714 49.3176 38.7708 49.4348 37.4838C49.4962 36.6041 47.8366 37.236 47.5158 37.3321Z" fill="#1B0D04"/>
<path d="M42.7131 34.0935C42.2944 36.0835 44.536 33.0831 43.2452 33.1638C42.9993 33.329 42.8245 33.8303 42.7131 34.0935Z" fill="#1B0D04"/>
<path d="M44.394 35.538C44.3171 35.9875 44.686 36.75 45.1278 36.193C45.9576 35.1212 44.394 34.8234 44.394 35.538Z" fill="#1B0D04"/>
<path d="M39.3311 32.7239C37.3449 33.8303 39.6115 34.3394 40.5143 33.2214C41.2942 32.2879 39.8401 32.3493 39.3311 32.7239Z" fill="#1B0D04"/>
<path d="M33.6025 28.6459C33.324 29.0051 33.6697 30.1211 34.2114 29.6448C34.9721 28.7919 34.3843 26.8979 33.6025 28.6459Z" fill="#1B0D04"/>
<path d="M38.4991 30.6686C38.9524 32.9525 40.2374 30.9125 39.3231 29.687C38.4933 28.6017 38.1744 29.9137 38.4991 30.6686Z" fill="#1B0D04"/>
<path d="M35.4524 31.9344C35.0336 33.9245 37.2753 30.9241 35.9845 31.0047C35.7386 31.1699 35.5638 31.6713 35.4524 31.9344Z" fill="#1B0D04"/>
<path d="M32.0703 30.5649C30.0841 31.6713 32.3508 32.1803 33.2536 31.0624C34.0334 30.1288 32.5793 30.1903 32.0703 30.5649Z" fill="#1B0D04"/>
<path d="M43.455 37.8142C42.8806 38.0025 41.5533 38.573 42.2948 39.2914C43.4588 40.248 44.3943 37.092 43.1707 38.0601" fill="#1B0D04"/>
<path d="M42.7037 40.6859C42.1697 38.7305 44.6995 40.0117 43.8236 41.1853C43.4509 41.5061 42.8804 41.0221 42.7037 40.6859Z" fill="#1B0D04"/>
<path d="M41.1613 42.0709C40.6965 41.6636 40.7272 40.3229 41.557 40.7916C42.9093 41.316 42.3292 43.8726 41.1613 42.0709Z" fill="#1B0D04"/>
<path d="M29.0829 53.4827C29.6208 54.4374 31.0922 52.845 30.6868 52.0997C29.9953 51.122 28.8659 52.7739 29.0829 53.4827Z" fill="#1B0D04"/>
<path d="M23.2303 54.1185C23.6125 55.1885 24.523 53.9956 24.0275 53.3464C23.4646 52.1055 22.9998 53.4213 23.2303 54.1185Z" fill="#1B0D04"/>
<path d="M20.2717 54.0225C19.7914 54.1858 19.0557 55.0982 19.8625 55.3056C21.4126 55.7225 22.4922 52.8066 20.2717 54.0225Z" fill="#1B0D04"/>
<path d="M22.3656 55.7417C22.1043 56.1623 21.9449 57.044 22.3713 57.3879C23.6717 57.5319 23.4316 53.8976 22.3656 55.7417Z" fill="#1B0D04"/>
<path d="M24.0963 55.2634C24.0559 56.2373 25.3871 56.291 25.0644 55.2058C24.9434 53.913 23.7159 53.8247 24.0963 55.2634Z" fill="#1B0D04"/>
<path d="M27.9921 53.6998C27.4177 53.888 26.0904 54.4585 26.8319 55.1769C27.9959 56.1335 28.9314 52.9776 27.7078 53.9457" fill="#1B0D04"/>
<path d="M27.2408 56.5715C26.7068 54.6161 29.2366 55.8973 28.3607 57.0709C27.9881 57.3917 27.4176 56.9076 27.2408 56.5715Z" fill="#1B0D04"/>
<path d="M25.6985 57.9564C25.2336 57.5492 25.2643 56.2084 26.0942 56.6771C27.4464 57.2015 26.8663 59.7582 25.6985 57.9564Z" fill="#1B0D04"/>
<path d="M23.1825 58.8516C23.7204 59.8062 25.1918 58.2138 24.7865 57.4685C24.0949 56.4908 22.9655 58.1428 23.1825 58.8516Z" fill="#1B0D04"/>
<path d="M54.9034 48.6421C55.3567 50.9261 56.6417 48.8861 55.7274 47.6606C54.8976 46.5753 54.5787 47.8872 54.9034 48.6421Z" fill="#1B0D04"/>
<path d="M56.2866 50.5284C56.2539 52.4455 58.0269 50.2307 57.1068 49.6314C56.6496 49.4508 56.2981 50.1865 56.2866 50.5284Z" fill="#1B0D04"/>
<path d="M56.6594 53.1466C55.1573 54.0859 58.4612 54.5853 58.5783 53.2983C58.6398 52.4186 56.9802 53.0505 56.6594 53.1466Z" fill="#1B0D04"/>
<path d="M51.8567 49.908C51.4379 51.898 53.6796 48.8976 52.3888 48.9783C52.1429 49.1435 51.9681 49.6448 51.8567 49.908Z" fill="#1B0D04"/>
<path d="M53.5395 51.3525C53.4627 51.802 53.8315 52.5646 54.2733 52.0075C55.1031 50.9357 53.5395 50.6379 53.5395 51.3525Z" fill="#1B0D04"/>
<path d="M52.5985 53.6287C52.0242 53.817 50.6968 54.3875 51.4383 55.1059C52.6024 56.0625 53.5378 52.9065 52.3142 53.8746" fill="#1B0D04"/>
<path d="M56.7033 44.0897C56.2385 43.6825 56.2692 42.3417 57.099 42.8104C58.4513 43.3348 57.8712 45.8915 56.7033 44.0897Z" fill="#1B0D04"/>
<path d="M54.1864 44.9848C54.7243 45.9395 56.1957 44.3471 55.7904 43.6018C55.0989 42.6241 53.9694 44.276 54.1864 44.9848Z" fill="#1B0D04"/>
<path d="M10.4239 57.2111C10.8772 59.4951 12.1623 57.4551 11.2479 56.2296C10.4181 55.1443 10.0992 56.4562 10.4239 57.2111Z" fill="#1B0D04"/>
<path d="M11.8071 59.0974C11.7744 61.0145 13.5474 58.7997 12.6273 58.2004C12.1701 58.0198 11.8186 58.7555 11.8071 59.0974Z" fill="#1B0D04"/>
<path d="M12.1809 61.7156C10.6787 62.6549 13.9826 63.1543 14.0998 61.8673C14.1613 60.9876 12.5017 61.6195 12.1809 61.7156Z" fill="#1B0D04"/>
<path d="M7.37914 58.477C6.96039 60.467 9.20204 57.4666 7.91122 57.5473C7.66535 57.7125 7.49055 58.2138 7.37914 58.477Z" fill="#1B0D04"/>
<path d="M9.05999 59.9215C8.98316 60.371 9.35196 61.1336 9.79376 60.5765C10.6236 59.5047 9.05999 59.2069 9.05999 59.9215Z" fill="#1B0D04"/>
<path d="M8.12097 62.1977C7.54663 62.386 6.21931 62.9565 6.96077 63.6749C8.12481 64.6315 9.06028 61.4755 7.83668 62.4436" fill="#1B0D04"/>
<path d="M12.2258 52.6568C11.7609 52.2495 11.7917 50.9088 12.6215 51.3775C13.9738 51.9019 13.3937 54.4585 12.2258 52.6568Z" fill="#1B0D04"/>
<path d="M9.7089 53.5538C10.2467 54.5085 11.7181 52.9161 11.3128 52.1708C10.6213 51.1931 9.49184 52.845 9.7089 53.5538Z" fill="#1B0D04"/>
<path d="M8.7891 39.616C9.24243 41.8999 10.5275 39.8599 9.61316 38.6344C8.78334 37.5491 8.46448 38.8611 8.7891 39.616Z" fill="#1B0D04"/>
<path d="M10.1723 41.5023C10.1397 43.4193 11.9126 41.2045 10.9925 40.6052C10.5354 40.4247 10.1838 41.1604 10.1723 41.5023Z" fill="#1B0D04"/>
<path d="M10.5471 44.1204C9.04496 45.0597 12.3489 45.5592 12.466 44.2722C12.5275 43.3924 10.8679 44.0244 10.5471 44.1204Z" fill="#1B0D04"/>
<path d="M5.74437 40.8818C5.32562 42.8719 7.56727 39.8715 6.27645 39.9521C6.03058 40.1173 5.85578 40.6187 5.74437 40.8818Z" fill="#1B0D04"/>
<path d="M7.42523 42.3263C7.34839 42.7758 7.7172 43.5384 8.159 42.9813C8.98881 41.9095 7.42523 41.6118 7.42523 42.3263Z" fill="#1B0D04"/>
<path d="M6.4862 44.6026C5.91186 44.7908 4.58454 45.3613 5.326 46.0797C6.49005 47.0363 7.42551 43.8803 6.20192 44.8484" fill="#1B0D04"/>
<path d="M10.5891 35.0616C10.1242 34.6544 10.155 33.3136 10.9848 33.7823C12.3371 34.3067 11.757 36.8634 10.5891 35.0616Z" fill="#1B0D04"/>
<path d="M8.07414 35.9586C8.61198 36.9133 10.0834 35.3209 9.67806 34.5756C8.98655 33.5979 7.85708 35.2498 8.07414 35.9586Z" fill="#1B0D04"/>
<path d="M32.337 58.9764C32.7903 61.2603 34.0753 59.2204 33.161 57.9949C32.3312 56.9096 32.0123 58.2215 32.337 58.9764Z" fill="#1B0D04"/>
<path d="M33.7202 60.8627C33.6875 62.7797 35.4605 60.565 34.5404 59.9657C34.0832 59.7851 33.7317 60.5208 33.7202 60.8627Z" fill="#1B0D04"/>
<path d="M34.093 63.4809C32.5909 64.4202 35.8947 64.9196 36.0119 63.6326C36.0734 62.7528 34.4138 63.3848 34.093 63.4809Z" fill="#1B0D04"/>
<path d="M29.2903 60.2423C28.8715 62.2323 31.1132 59.2319 29.8223 59.3126C29.5765 59.4778 29.4017 59.9791 29.2903 60.2423Z" fill="#1B0D04"/>
<path d="M30.9731 61.6868C30.8962 62.1363 31.2651 62.8988 31.7069 62.3418C32.5367 61.2699 30.9731 60.9722 30.9731 61.6868Z" fill="#1B0D04"/>
<path d="M30.0321 63.9649C29.4578 64.1532 28.1304 64.7237 28.8719 65.4421C30.0359 66.3987 30.9714 63.2427 29.7478 64.2108" fill="#1B0D04"/>
<path d="M34.1369 54.424C33.6721 54.0167 33.7028 52.676 34.5326 53.1447C35.8849 53.6691 35.3048 56.2257 34.1369 54.424Z" fill="#1B0D04"/>
<path d="M31.62 55.321C32.1579 56.2757 33.6293 54.6833 33.224 53.938C32.5324 52.9603 31.403 54.6122 31.62 55.321Z" fill="#1B0D04"/>
<path d="M39.335 67.4801C39.7883 69.764 41.0734 67.7241 40.1591 66.4985C39.3292 65.4133 39.0104 66.7252 39.335 67.4801Z" fill="#1B0D04"/>
<path d="M40.7172 69.3664C40.6846 71.2834 42.4576 69.0687 41.5375 68.4694C41.0803 68.2888 40.7288 69.0245 40.7172 69.3664Z" fill="#1B0D04"/>
<path d="M41.092 71.9845C39.5899 72.9238 42.8938 73.4233 43.0109 72.1363C43.0724 71.2565 41.4128 71.8885 41.092 71.9845Z" fill="#1B0D04"/>
<path d="M36.2903 68.746C35.8715 70.736 38.1132 67.7356 36.8223 67.8163C36.5765 67.9815 36.4017 68.4828 36.2903 68.746Z" fill="#1B0D04"/>
<path d="M37.9711 70.1904C37.8943 70.6399 38.2631 71.4025 38.7049 70.8455C39.5347 69.7736 37.9711 69.4759 37.9711 70.1904Z" fill="#1B0D04"/>
<path d="M37.0311 72.4667C36.4568 72.6549 35.1295 73.2254 35.8709 73.9438C37.035 74.9004 37.9704 71.7444 36.7468 72.7126" fill="#1B0D04"/>
<path d="M41.135 62.9276C40.6701 62.5204 40.7009 61.1797 41.5307 61.6483C42.883 62.1727 42.3029 64.7294 41.135 62.9276Z" fill="#1B0D04"/>
<path d="M38.62 63.8228C39.1579 64.7774 40.6293 63.185 40.224 62.4397C39.5324 61.462 38.403 63.114 38.62 63.8228Z" fill="#1B0D04"/>
<path d="M51.044 64.2108C51.4973 66.4947 52.7824 64.4547 51.868 63.2292C51.0382 62.1439 50.7194 63.4559 51.044 64.2108Z" fill="#1B0D04"/>
<path d="M52.4253 66.0952C52.3926 68.0122 54.1656 65.7974 53.2455 65.1981C52.7883 65.0176 52.4368 65.7532 52.4253 66.0952Z" fill="#1B0D04"/>
<path d="M52.8 68.7133C51.2979 69.6526 54.6018 70.152 54.719 68.8651C54.7804 67.9853 53.1208 68.6173 52.8 68.7133Z" fill="#1B0D04"/>
<path d="M47.9983 65.4747C47.5795 67.4647 49.8212 64.4643 48.5304 64.545C48.2845 64.7102 48.1097 65.2116 47.9983 65.4747Z" fill="#1B0D04"/>
<path d="M49.6782 66.9211C49.6013 67.3706 49.9701 68.1332 50.4119 67.5761C51.2417 66.5043 49.6782 66.2066 49.6782 66.9211Z" fill="#1B0D04"/>
<path d="M48.7391 69.1974C48.1648 69.3856 46.8375 69.9561 47.5789 70.6745C48.743 71.6311 49.6784 68.4751 48.4548 69.4432" fill="#1B0D04"/>
<path d="M52.844 59.6564C52.3791 59.2492 52.4098 57.9084 53.2397 58.3771C54.592 58.9015 54.0118 61.4582 52.844 59.6564Z" fill="#1B0D04"/>
<path d="M50.328 60.5534C50.8659 61.5081 52.3373 59.9157 51.932 59.1704C51.2405 58.1927 50.111 59.8446 50.328 60.5534Z" fill="#1B0D04"/>
<path d="M25.8506 76.8904C26.304 79.1744 27.589 77.1344 26.6747 75.9089C25.8449 74.8236 25.526 76.1355 25.8506 76.8904Z" fill="#1B0D04"/>
<path d="M27.2329 78.7748C27.2002 80.6918 28.9732 78.4771 28.0531 77.8778C27.5959 77.6972 27.2444 78.4329 27.2329 78.7748Z" fill="#1B0D04"/>
<path d="M27.6076 81.393C26.1055 82.3323 29.4094 82.8317 29.5266 81.5447C29.588 80.6649 27.9284 81.2969 27.6076 81.393Z" fill="#1B0D04"/>
<path d="M22.8059 78.1563C22.3871 80.1463 24.6288 77.1459 23.338 77.2266C23.0921 77.3918 22.9173 77.8931 22.8059 78.1563Z" fill="#1B0D04"/>
<path d="M24.4868 79.6008C24.4099 80.0503 24.7787 80.8129 25.2205 80.2558C26.0503 79.184 24.4868 78.8862 24.4868 79.6008Z" fill="#1B0D04"/>
<path d="M23.5468 81.877C22.9724 82.0653 21.6451 82.6358 22.3865 83.3542C23.5506 84.3108 24.4861 81.1548 23.2625 82.1229" fill="#1B0D04"/>
<path d="M27.6496 72.3361C27.1848 71.9288 27.2155 70.5881 28.0453 71.0568C29.3976 71.5812 28.8175 74.1378 27.6496 72.3361Z" fill="#1B0D04"/>
<path d="M25.1357 73.2331C25.6735 74.1878 27.1449 72.5954 26.7396 71.8501C26.0481 70.8724 24.9186 72.5243 25.1357 73.2331Z" fill="#1B0D04"/>
<path d="M37.2969 81.3373C37.7502 83.6212 39.0353 81.5812 38.121 80.3557C37.2912 79.2704 36.9723 80.5824 37.2969 81.3373Z" fill="#1B0D04"/>
<path d="M38.6801 83.2235C38.6475 85.1406 40.4204 82.9258 39.5003 82.3265C39.0432 82.1459 38.6917 82.8816 38.6801 83.2235Z" fill="#1B0D04"/>
<path d="M39.0539 85.8417C37.5518 86.781 40.8557 87.2804 40.9729 85.9934C41.0343 85.1137 39.3747 85.7456 39.0539 85.8417Z" fill="#1B0D04"/>
<path d="M34.2522 82.6031C33.8334 84.5931 36.0751 81.5927 34.7843 81.6734C34.5384 81.8386 34.3636 82.3399 34.2522 82.6031Z" fill="#1B0D04"/>
<path d="M35.933 84.0476C35.8562 84.4971 36.225 85.2597 36.6668 84.7026C37.4966 83.6308 35.933 83.333 35.933 84.0476Z" fill="#1B0D04"/>
<path d="M34.993 86.3238C34.4187 86.5121 33.0914 87.0826 33.8328 87.801C34.9969 88.7576 35.9323 85.6016 34.7088 86.5697" fill="#1B0D04"/>
<path d="M39.0969 76.7848C38.632 76.3776 38.6628 75.0368 39.4926 75.5055C40.8449 76.0299 40.2648 78.5866 39.0969 76.7848Z" fill="#1B0D04"/>
<path d="M36.5819 77.6818C37.1198 78.6365 38.5912 77.0441 38.1859 76.2988C37.4944 75.3211 36.3649 76.973 36.5819 77.6818Z" fill="#1B0D04"/>
<path d="M22.3657 50.4497C22.116 49.6237 23.0784 49.1051 23.67 49.689C24.8321 50.8377 22.796 52.0978 22.3657 50.4497Z" fill="#1B0D04"/>
<path d="M24.5596 25.6493C24.7613 27.5952 26.5054 25.6167 25.5066 24.7312C24.9668 24.3297 24.5749 25.2191 24.5596 25.6493Z" fill="#1B0D04"/>
<path d="M30.1225 25.7127C30.0457 26.1622 30.4145 26.9248 30.8563 26.3678C31.6861 25.2959 30.1225 24.9982 30.1225 25.7127Z" fill="#1B0D04"/>
<path d="M22.5272 26.9094C22.2084 26.5137 22.1603 25.2517 22.9344 25.5053C24.0946 25.9874 23.8334 28.3155 22.5272 26.9094Z" fill="#1B0D04"/>
<path d="M24.4207 28.4077C24.803 29.4776 25.7135 28.2848 25.2179 27.6355C24.6551 26.3946 24.1902 27.7104 24.4207 28.4077Z" fill="#1B0D04"/>
<path d="M21.4611 28.3098C20.9809 28.473 20.2452 29.3854 21.052 29.5929C22.6021 30.0097 23.6816 27.0938 21.4611 28.3098Z" fill="#1B0D04"/>
<path d="M23.557 30.0308C23.2957 30.4515 23.1363 31.3332 23.5627 31.677C24.8632 31.8211 24.623 28.1868 23.557 30.0308Z" fill="#1B0D04"/>
<path d="M25.2857 29.5526C25.2454 30.5264 26.5765 30.5802 26.2538 29.4949C26.1328 28.2022 24.9054 28.1138 25.2857 29.5526Z" fill="#1B0D04"/>
<path d="M29.1825 27.989C28.6082 28.1772 27.2808 28.7477 28.0223 29.4661C29.1863 30.4227 30.1218 27.2667 28.8982 28.2348" fill="#1B0D04"/>
<path d="M31.0996 20.1537C31.3013 22.0996 33.0454 20.1211 32.0466 19.2356C31.5068 18.8341 31.115 19.7235 31.0996 20.1537Z" fill="#1B0D04"/>
<path d="M29.0673 21.4138C28.7484 21.0181 28.7004 19.7561 29.4745 20.0097C30.6347 20.4918 30.3734 22.8199 29.0673 21.4138Z" fill="#1B0D04"/>
<path d="M30.9617 22.9121C31.344 23.982 32.2545 22.7892 31.7589 22.1399C31.1961 20.8991 30.7312 22.2148 30.9617 22.9121Z" fill="#1B0D04"/>
<path d="M28.0031 22.8161C27.5229 22.9793 26.7872 23.8918 27.594 24.0992C29.1441 24.516 30.2236 21.6002 28.0031 22.8161Z" fill="#1B0D04"/>
<path d="M30.097 24.5372C29.8358 24.9578 29.6763 25.8395 30.1028 26.1833C31.4032 26.3274 31.1631 22.6931 30.097 24.5372Z" fill="#1B0D04"/>
<path d="M31.8277 24.0589C31.7874 25.0328 33.1185 25.0865 32.7958 24.0012C32.6748 22.7085 31.4474 22.6201 31.8277 24.0589Z" fill="#1B0D04"/>
<path d="M35.7235 22.4953C35.1492 22.6835 33.8218 23.254 34.5633 23.9724C35.7274 24.929 36.6628 21.773 35.4392 22.7412" fill="#1B0D04"/>
<path d="M28.4303 30.8607C27.8963 28.9052 30.4261 30.1864 29.5502 31.3601C29.1775 31.6809 28.607 31.1968 28.4303 30.8607Z" fill="#1B0D04"/>
<path d="M26.8899 32.2437C26.425 31.8365 26.4557 30.4957 27.2856 30.9644C28.6378 31.4888 28.0577 34.0455 26.8899 32.2437Z" fill="#1B0D04"/>
<path d="M24.373 33.1407C24.9108 34.0954 26.3822 32.503 25.9769 31.7577C25.2854 30.78 24.1559 32.4319 24.373 33.1407Z" fill="#1B0D04"/>
<path d="M21.1669 33.8918C21.7124 34.8945 23.18 33.2022 22.7708 32.4473C22.0601 31.4235 20.9517 33.1676 21.1669 33.8918Z" fill="#1B0D04"/>
<path d="M17.6558 30.1077C17.406 29.2817 18.3684 28.7631 18.96 29.347C20.1221 30.4957 18.086 31.7558 17.6558 30.1077Z" fill="#1B0D04"/>
<path d="M18.2839 49.3145C17.6519 50.9145 21.7299 49.9887 20.3603 49.2895C19.6611 49.1589 18.8044 48.5307 18.2839 49.3145Z" fill="#1B0D04"/>
<path d="M17.3348 44.0954C16.1823 44.1684 16.724 45.4497 17.6575 45.0636C18.7889 44.6064 18.6064 43.4289 17.3348 44.0954Z" fill="#1B0D04"/>
<path d="M18.1259 41.8461C17.7725 40.5515 20.3849 42.6106 19.2977 42.845C18.8693 42.6337 18.4851 42.1688 18.1259 41.8461Z" fill="#1B0D04"/>
<path d="M17.9904 45.8415C16.9243 47.3648 20.0822 46.5868 19.7556 45.5976C19.237 45.442 18.4744 45.5803 17.9904 45.8415Z" fill="#1B0D04"/>
<path d="M15.2526 46.1489C13.4797 46.2315 16.7932 48.3483 16.7567 47.142C16.6549 46.4524 15.8366 46.2257 15.2526 46.1489Z" fill="#1B0D04"/>
<path d="M12.7423 47.3705C11.1864 45.6514 14.742 45.9683 14.279 47.5376C14.0236 48.2484 13.0862 47.7067 12.7423 47.3705Z" fill="#1B0D04"/>
<path d="M13.7892 49.5738C14.2905 51.2353 16.2479 48.4443 14.8821 48.4558C14.5095 48.8112 13.7796 48.9687 13.7892 49.5738Z" fill="#1B0D04"/>
<path d="M19.7951 39.8215C21.6738 40.3075 19.5781 37.2975 18.8021 38.3367C18.6561 38.8169 19.4417 39.6102 19.7951 39.8215Z" fill="#1B0D04"/>
<path d="M19.3251 37.3628C21.6724 39.4124 21.1 35.805 19.0889 37.0132L19.3251 37.3628Z" fill="#1B0D04"/>
<path d="M19.7781 35.2806C19.1653 36.5791 21.2168 35.8914 20.8883 34.9425C20.6732 34.4815 20.0009 35.1192 19.7781 35.2806Z" fill="#1B0D04"/>
<path d="M22.0356 36.4869C23.4916 37.7412 22.9057 35.0366 21.759 35.1576C21.5131 35.2556 21.9222 36.3121 22.0356 36.4869Z" fill="#1B0D04"/>
<path d="M22.0566 40.2883C23.4742 42.1304 23.1611 38.4289 21.7281 39.0263C21.6571 39.3912 22.0604 39.8446 22.0566 40.2883Z" fill="#1B0D04"/>
<path d="M14.208 40.4842C15.6256 42.3263 15.3125 38.6248 13.8795 39.2222C13.8084 39.5872 14.2118 40.0405 14.208 40.4842Z" fill="#1B0D04"/>
<path d="M32.5924 78.4771C31.9259 78.9112 30.8944 80.0291 31.9125 80.6304C32.8844 80.8321 33.5106 78.1198 32.2486 78.698" fill="#1B0D04"/>
<path d="M29.4591 85.7149C30.5501 86.562 30.4291 83.8862 29.5071 84.0514C28.7464 84.2051 29.1152 85.3576 29.4591 85.7149Z" fill="#1B0D04"/>
<path d="M33.4264 75.9089C33.5685 76.3295 34.5578 77.2074 34.5751 76.318C34.529 75.5324 32.5217 74.4567 33.4264 75.9089Z" fill="#1B0D04"/>
<path d="M44.3078 68.2312C45.7503 69.497 45.2183 66.633 43.8948 67.0998C43.2494 67.2054 44.1138 68.0083 44.3078 68.2312Z" fill="#1B0D04"/>
<path d="M46.548 64.2799C46.9399 63.6998 45.1823 62.6645 45.3513 63.6345C45.4589 64.0514 46.2138 64.8543 46.548 64.2799Z" fill="#1B0D04"/>
<path d="M47.9821 61.464C48.1991 61.9211 49.6436 62.53 49.5361 61.6464C49.4266 60.492 46.9045 59.8543 47.9821 61.464Z" fill="#1B0D04"/>
<path d="M43.685 61.439C43.9289 61.8155 44.5302 62.2938 44.9585 61.9557C45.4387 60.8397 42.6919 59.4278 43.685 61.439Z" fill="#1B0D04"/>
<path d="M45.9947 57.4224C46.6382 56.7655 45.2898 55.1635 44.6117 55.83C44.3831 56.3544 45.4108 57.8105 45.9947 57.4224Z" fill="#1B0D04"/>
<path d="M54.1623 53.6402C56.7401 54.7985 53.9683 51.3448 53.3018 52.8604C53.3402 53.2542 53.878 53.4635 54.1623 53.6402Z" fill="#1B0D04"/>
<path d="M56.0135 57.1055C56.0462 57.9276 57.2813 58.2926 57.1334 57.2323C57.0815 56.3275 55.5852 55.7878 56.0135 57.1055Z" fill="#1B0D04"/>
<path d="M51.29 43.9091C50.7387 46.8231 55.512 42.9813 52.3676 43.2772C51.9738 43.3694 51.6127 43.6805 51.29 43.9091Z" fill="#1B0D04"/>
<path d="M54.2443 39.2107C53.7948 40.7647 55.8655 39.8887 56.1363 39.0051C56.5993 37.4627 54.3768 38.354 54.2443 39.2107Z" fill="#1B0D04"/>
<path d="M51.8474 32.4608C50.6161 32.964 49.7325 35.2422 51.8032 34.3835C52.7368 34.0435 52.4006 31.7596 51.4882 32.8507" fill="#1B0D04"/>
<path d="M51.6342 29.1837C51.5574 29.8003 52.5447 30.4381 52.8328 29.7024C53.1747 28.4845 51.0579 27.1284 51.6342 29.1837Z" fill="#1B0D04"/>
<path d="M48.1347 29.0896C50.1266 29.8983 48.878 27.5798 47.5987 27.6029C46.9072 27.4991 47.8773 28.8879 48.1347 29.0896Z" fill="#1B0D04"/>
<path d="M50.7815 26.8749C52.3855 26.8288 50.2341 24.8483 49.725 25.6647C49.5041 26.2179 50.3378 26.8115 50.7815 26.8749Z" fill="#1B0D04"/>
<path d="M47.3834 24.2721C45.3876 26.6079 51.0945 24.4546 48.5801 23.715C48.1901 23.7611 47.7253 24.0896 47.3834 24.2721Z" fill="#1B0D04"/>
<path d="M52.0409 37.2418C51.0382 37.09 49.3536 38.4174 51.0651 38.7343C51.8604 38.9091 52.8976 37.1361 51.6587 37.4051" fill="#1B0D04"/>
<path d="M53.908 37.0267C54.8165 36.9998 53.9598 35.2326 53.4143 35.7051C53.0743 36.0758 53.3932 36.9978 53.908 37.0267Z" fill="#1B0D04"/>
<path d="M49.5635 51.6176C48.9795 56.4197 52.7617 52.4954 49.5865 52.0037L49.5635 51.6176Z" fill="#1B0D04"/>
<path d="M53.7372 63.0909C53.9178 64.084 56.68 62.9661 55.7368 62.1055C55.0396 61.8731 53.6969 62.142 53.7372 63.0909Z" fill="#1B0D04"/>
<path d="M55.5081 59.7582C53.0398 60.6553 57.4693 61.4217 57.3598 59.8773C57.2753 59.2588 55.8712 59.6948 55.5081 59.7582Z" fill="#1B0D04"/>
<path d="M54.8933 65.1386C54.44 66.2892 57.1407 65.0444 56.6125 64.5335C56.0651 64.5143 55.314 64.7736 54.8933 65.1386Z" fill="#1B0D04"/>
<path d="M43.7756 78.4022C43.6969 77.7875 43.6316 76.7925 42.7518 77.0614C41.2516 78.31 44.7937 80.4825 43.6354 78.0334" fill="#1B0D04"/>
<path d="M44.354 77.3188C45.3222 78.3426 45.495 75.6803 44.4578 75.8897C43.943 76.0222 44.1466 77.0191 44.354 77.3188Z" fill="#1B0D04"/>
<path d="M46.6513 75.0675C47.967 74.9004 46.5898 73.0468 45.8426 73.7863C45.3547 74.3318 46.0865 75.0618 46.6513 75.0675Z" fill="#1B0D04"/>
<path d="M46.2386 80.3826C47.2931 82.1133 47.7637 78.4924 46.2866 78.8516C45.9562 79.0879 46.1329 80.0733 46.2386 80.3826Z" fill="#1B0D04"/>
<path d="M42.2582 82.7741C42.8249 83.5962 44.8495 81.61 43.6278 81.4679C43.0343 81.464 42.1776 82.1632 42.2582 82.7741Z" fill="#1B0D04"/>
<path d="M31.0961 74.3318C29.3539 74.3972 28.9448 76.5101 30.977 75.8455C31.8722 75.3691 31.9375 73.6788 30.6486 74.5431" fill="#1B0D04"/>
<path d="M31.6738 71.2565C31.0015 71.8654 31.2954 73.066 32.2059 72.2208C33.224 71.4236 32.7149 69.6488 31.6738 71.2565Z" fill="#1B0D04"/>
<path d="M33.3664 70.1059C34.2673 70.9223 34.2577 68.3311 33.376 68.9304C33.1993 69.1628 33.2147 69.8639 33.3664 70.1059Z" fill="#1B0D04"/>
<path d="M32.957 67.4417C33.224 69.2684 35.4138 66.487 33.8598 66.1317C33.2144 66.0318 32.9724 66.9711 32.957 67.4417Z" fill="#1B0D04"/>
<path d="M16.5646 75.6688C16.2707 75.9223 15.3621 76.7022 16.0248 76.9558C17.6018 77.4917 18.6449 73.8439 16.5646 75.6688Z" fill="#1B0D04"/>
<path d="M13.2606 68.2715C12.4923 68.6365 10.8979 70.6841 12.7689 70.1808C13.6313 70.0714 14.1423 67.8796 13.0339 68.7133" fill="#1B0D04"/>
<path d="M13.6543 70.7302C13.7945 72.4398 15.5752 70.1809 14.6013 69.7102C14.1633 69.5854 13.6793 70.3902 13.6543 70.7302Z" fill="#1B0D04"/>
<path d="M12.5977 66.754C12.7629 66.996 13.0837 67.1017 13.3737 67.0614C16.0629 66.2776 11.9446 64.958 12.5977 66.754Z" fill="#1B0D04"/>
<path d="M14.2229 58.9591C13.7062 60.6706 16.6643 59.1531 16.2763 58.0947C15.7097 58.1889 14.6628 58.4847 14.2229 58.9591Z" fill="#1B0D04"/>
<path d="M16.9778 58.9707C16.5148 59.0936 16.219 59.6583 16.1768 60.1078C16.997 61.8059 19.7323 57.6702 16.9778 58.9707Z" fill="#1B0D04"/>
<path d="M20.4004 59.0494C20.0008 59.5277 19.1864 59.8466 19.1768 60.5362C19.6954 63.1831 22.0523 58.3291 20.0469 59.4029" fill="#1B0D04"/>
<path d="M13.418 34.2798C11.9447 34.639 14.5475 36.9594 14.8645 35.561C15.0143 34.7869 14.1096 34.203 13.418 34.2798Z" fill="#1B0D04"/>
<path d="M15.1934 36.9095C13.7201 37.2687 16.3229 39.5891 16.6399 38.1907C16.7897 37.4166 15.8849 36.8326 15.1934 36.9095Z" fill="#1B0D04"/>
<path d="M12.5772 28.1465C11.1039 28.5057 13.7067 30.8261 14.0236 29.4277C14.1735 28.6536 13.2687 28.0696 12.5772 28.1465Z" fill="#1B0D04"/>
<path d="M20.222 25.3535C17.4022 22.3589 17.4925 27.2379 19.8551 25.2037L20.222 25.3535Z" fill="#1B0D04"/>
<path d="M13.8386 22.6278C12.9146 21.6367 11.8447 23.2041 13.0913 23.7246C14.1824 24.4719 15.1063 23.3309 13.8386 22.6278Z" fill="#1B0D04"/>
<path d="M29.2602 16.8364C29.6616 18.0005 31.1349 17.5049 31.3904 16.5195C31.7477 14.541 28.6782 15.1134 29.2602 16.8364Z" fill="#1B0D04"/>
<path d="M37.1584 15.6397C32.1142 19.1415 38.4473 17.647 37.0778 16.07L37.1584 15.6397Z" fill="#1B0D04"/>
<path d="M39.0848 18.959C39.7667 18.9647 40.4467 17.6278 39.4747 17.5318C38.6065 17.4453 38.084 18.9494 39.0848 18.959Z" fill="#1B0D04"/>
<path d="M38.3939 16.7749C39.1104 17.6374 40.2321 15.2901 39.1084 15.3765C38.6801 15.4534 38.1576 16.3946 38.3939 16.7749Z" fill="#1B0D04"/>
<path d="M33.4488 17.1553C32.4384 17.4607 31.6317 19.2068 33.2682 18.838C33.9636 18.7131 34.2306 16.7845 33.322 17.5202" fill="#1B0D04"/>
<path d="M36.2596 21.6501C35.595 19.7849 38.3803 21.0527 37.6561 22.2071C37.2412 22.7296 36.4268 22.1015 36.2596 21.6501Z" fill="#1B0D04"/>
<path d="M27.8535 11.9363C31.6914 10.2613 34.0406 13.7304 37.1985 14.6639C36.386 6.86134 30.0644 -1.00269 27.8535 11.9363Z" fill="#DA2C5A"/>
<path d="M2.77081 74.7064C6.87955 78.6442 2.84188 83.1832 4.27293 87.1632C6.80848 82.5397 7.11582 78.4329 4.31711 73.8132C6.1477 65.3018 0.500346 68.8017 2.77081 74.7064Z" fill="#82BD0B"/>
</g>
<defs>
<clipPath id="clip0_185_146287">
<rect width="61.8942" height="92" fill="white" transform="translate(0.158203)"/>
</clipPath>
</defs>
</svg>
