<svg width="103" height="92" viewBox="0 0 103 92" fill="none" xmlns="http://www.w3.org/2000/svg">
<g clip-path="url(#clip0_189_147323)">
<path d="M87.1316 77.0636C84.7869 79.3345 81.6667 79.3161 78.3988 80.1469C73.3769 81.4208 67.0626 79.353 62.5023 77.1744C55.8557 74.0173 47.3813 68.2569 45.7381 51.9542C44.0949 35.6516 49.9292 30.6851 51.48 26.0694C53.0309 21.4353 52.0154 16.3765 52.237 13.7363C52.4586 11.0961 54.7664 8.54827 57.1666 8.89906L59.5667 9.24985C59.5667 9.24985 60.8591 9.12061 62.5762 8.12362C64.2932 7.12663 68.5581 5.52037 70.349 7.38511C72.1399 9.26831 74.3185 14.6041 76.9217 16.6719C79.5065 18.7213 93.0397 24.777 98.5786 36.4271C104.117 48.0955 103.268 58.6747 96.6769 67.2599C95.163 69.2354 91.2858 77.4513 87.9994 76.0851C87.7225 76.4543 87.4455 76.7867 87.1501 77.0636H87.1316Z" fill="#C7D142"/>
<path d="M67.5058 76.399C73.1923 78.7253 80.3928 76.7682 87.261 76.9344C87.224 76.9713 87.1871 77.0267 87.1317 77.0636C84.787 79.3345 81.6668 79.3161 78.3988 80.1469C73.377 81.4208 67.0627 79.353 62.5024 77.1744C56.4097 74.2757 48.803 69.1985 46.3105 55.8499C51.1109 64.8966 58.2006 72.3187 67.5243 76.4174L67.5058 76.399Z" fill="#BABA2B"/>
<path d="M48.7474 31.5529C48.8766 33.0484 49.0428 34.5439 49.2643 36.0393C49.0612 38.5687 49.0612 41.4859 49.412 44.9199C51.0552 61.2226 59.5296 66.983 66.1762 70.1401C70.7365 72.3187 77.0508 74.3865 82.0727 73.1126C85.3406 72.2818 88.4608 72.3187 90.8056 70.0293C91.101 69.7339 91.3779 69.42 91.6548 69.0508C94.9228 70.417 98.8184 62.2011 100.332 60.2256C100.499 60.004 100.646 59.7825 100.812 59.5609C99.8892 62.2749 98.5045 64.8413 96.6582 67.2599C95.1443 69.2354 91.2671 77.4513 87.9807 76.0851C87.7407 76.399 87.5007 76.6759 87.2607 76.9344C80.3925 76.7682 73.1921 78.7253 67.5055 76.399C58.1818 72.3002 51.0921 64.8782 46.2918 55.8314C46.0703 54.6129 45.8672 53.3205 45.7379 51.9358C44.6855 41.3751 46.7534 35.5778 48.7658 31.5344L48.7474 31.5529Z" fill="#C3C632"/>
<path d="M92.1163 33.6946C89.7161 31.1467 87.0944 28.8204 84.2696 26.7895C82.5341 25.534 80.4663 24.4078 79.4693 22.3954L78.0477 19.7921C76.146 18.2412 74.3182 16.9488 72.9335 14.881C71.6226 12.9424 71.161 10.5423 68.724 9.93298C66.6746 9.41603 63.6467 10.7453 61.5973 11.4285C58.6064 12.4255 58.6433 14.0686 59.2341 17.1519C60.028 21.2876 61.2281 24.6663 63.2959 28.2665C65.8068 32.6791 65.0129 37.5533 65.8622 42.3351C67.1361 49.3879 71.2164 57.4008 76.9583 61.7211C78.9708 63.235 80.7801 64.6566 82.8849 66.0044C84.0111 66.7245 85.4328 68.4046 86.6698 68.7923C92.0794 70.4539 96.1596 63.7889 97.6551 59.9117C99.1137 56.1268 99.4091 51.5665 98.6521 47.5232C97.6367 42.1136 95.9196 37.7195 92.1163 33.6761V33.6946Z" fill="#D2D852"/>
<path d="M74.0965 18.9059L74.0596 18.869C72.9887 17.872 72.4349 16.7642 71.7702 15.4903C70.644 13.3486 69.1854 10.7823 66.3791 12.1116C65.899 12.3516 65.6221 12.6655 65.0867 12.9239C63.8312 13.4963 63.1112 13.6625 63.3881 15.2502C63.5912 16.3211 64.2743 17.2258 65.0128 18.0012C65.4005 18.4074 67.2284 20.0321 69.1485 21.4722C69.887 22.0261 70.644 22.5615 71.3456 22.9677C72.8041 23.8354 73.9488 24.2047 74.078 23.3C74.5396 23.2631 75.6105 23.577 76.4044 23.5954C77.1983 23.5954 77.7337 23.3185 77.1059 22.063C76.4413 20.7337 75.1858 19.9029 74.115 18.9059H74.0965Z" fill="#E0E058"/>
<path d="M89.5682 33.0114C89.3651 32.7899 89.2174 32.5499 89.0697 32.2914C88.2943 31.8667 87.5004 31.4606 86.8173 30.9436C86.8173 30.9436 80.0414 26.9926 76.9212 29.4297C75.1857 30.7774 75.9612 32.2175 75.9242 33.9346C75.9058 35.4854 75.075 36.3717 75.2227 37.8118C75.4442 40.2119 77.8628 41.8551 79.4691 43.4244C81.2046 45.1415 83.0878 47.2832 84.2879 49.4248C85.488 51.5481 86.2819 54.0775 88.4051 55.4622C88.5713 55.1483 88.7743 54.779 88.959 54.4652C90.3621 55.1668 88.9959 57.4746 90.7314 57.9177C92.2823 58.3054 93.15 56.5699 93.63 54.3729C94.2393 51.5665 94.2578 48.0032 94.3686 47.0431C94.5901 44.9753 94.664 43.2583 94.3316 41.3751C93.2239 38.3103 91.7284 35.4116 89.6052 32.993L89.5682 33.0114Z" fill="#E0E058"/>
<path d="M90.1783 38.3656C90.0675 38.1995 89.9383 38.0148 89.809 37.8302C88.9044 36.5009 87.9997 35.3562 86.7442 34.2854C85.7103 33.3992 84.2518 32.5314 82.7932 32.8268C81.1685 33.1591 79.2853 34.6362 79.4145 36.1686C79.5807 38.0702 81.9254 38.698 83.3286 39.5657C84.0856 40.0458 84.7872 40.4704 85.2672 41.2458C85.7842 42.0582 86.098 42.9813 86.4304 43.8675C86.6704 44.5322 86.7996 45.4 87.2058 45.9908C87.8151 46.8954 88.5351 45.9908 88.8674 45.3076C89.5506 45.6769 90.1598 49.7387 91.5076 48.1324C91.9692 47.5786 92.08 46.3231 92.043 45.6584C92.0061 45.0307 91.7846 44.4214 91.7476 43.8122C91.6922 43.0921 91.5261 42.409 91.3415 41.7259C91.1384 40.9689 90.9907 40.1935 90.7506 39.4549C90.6029 39.0303 90.4183 38.698 90.1783 38.3656Z" fill="#EFEB6F"/>
<path d="M66.3981 6.53583C64.6811 7.10817 63.2225 7.03432 61.5609 7.95746C59.8992 8.8806 58.9391 8.86214 57.1113 9.00984C57.7206 9.30524 58.4406 9.65604 58.9207 10.0622C58.4406 10.1176 57.9606 10.3022 57.776 10.7638C58.5883 10.7638 59.493 10.413 60.3238 10.2653C60.3238 10.5792 60.5823 10.9484 60.6008 11.2808C61.3578 11.1884 61.5609 10.0991 62.2624 9.74835C63.0194 9.36063 63.7949 9.74835 64.5887 9.45295C64.3118 9.04676 63.6841 8.82521 63.2779 8.56673C64.3487 8.2344 65.0503 7.97592 65.955 7.40358L66.3796 6.55429L66.3981 6.53583Z" fill="#C4AF33"/>
<path d="M63.7949 41.7628C59.253 26.5495 44.6859 16.9304 42.0272 13.9763C39.3686 11.0223 37.707 4.1172 35.9345 1.51395C34.1806 -1.0893 29.0295 0.203091 26.9062 1.14469C24.783 2.08629 23.2875 2.03091 23.2875 2.03091L20.592 1.21854C17.8964 0.406181 14.8316 3.13867 14.1854 6.35119C13.5207 9.54525 13.9084 15.9334 11.3975 21.343C8.86811 26.771 1.42761 31.9037 0.762948 52.1573C0.0982885 72.411 8.9235 80.867 16.0686 85.8334C19.7058 88.3628 24.543 91.4646 28.9371 91.9815C32.3712 92.3693 35.6207 89.6922 38.8701 89.3044C41.0672 89.046 43.1719 88.769 45.3505 88.8059C45.3875 88.769 45.4244 88.7321 45.4613 88.6767C45.5536 88.7321 45.6459 88.769 45.7383 88.8059C46.2368 88.8244 46.7537 88.8613 47.2522 88.9167C50.7047 88.1044 55.062 81.0885 56.7975 79.2607C65.6965 69.8078 68.3182 56.9761 63.7764 41.7628H63.7949Z" fill="#C7D142"/>
<path d="M61.0996 42.0767C56.8347 27.4172 43.3015 18.0935 40.8275 15.2318C38.3535 12.3885 36.7841 5.705 35.141 3.21253C33.4978 0.701589 28.7344 1.92013 26.7773 2.80634C24.8203 3.69256 23.4171 3.63717 23.4171 3.63717L20.9246 2.84327C18.4321 2.04937 15.6073 4.67108 14.9981 7.75437C14.3888 10.8377 14.7765 16.9858 12.4687 22.1923C10.1608 27.3988 3.27421 32.3283 2.73879 51.825C2.20337 71.3217 10.4008 79.5007 17.029 84.3195C20.4077 86.775 24.8941 89.7845 28.9744 90.283C32.15 90.6707 35.1594 88.1043 38.1688 87.7536C40.2182 87.5135 42.1568 87.2551 44.1693 87.3105C44.2062 87.2735 44.2431 87.2366 44.28 87.1997C44.3539 87.2551 44.4462 87.292 44.5385 87.3289C45.0001 87.3474 45.4801 87.3843 45.9417 87.4397C49.1357 86.6827 53.1422 79.9438 54.7484 78.1714C62.9644 69.1062 65.346 56.7546 61.0811 42.0951L61.0996 42.0767Z" fill="#EFEC81"/>
<path d="M25.2632 5.59423C25.2632 5.59423 30.3405 2.97252 32.7591 7.88362C35.1778 12.7947 37.2456 16.7088 41.7505 20.8814C46.2739 25.054 53.8252 33.1222 57.4623 43.2952C61.0995 53.4682 57.6654 69.6231 53.4559 74.2388C49.2464 78.8361 46.9016 79.7592 41.5105 81.6424C36.1194 83.5256 28.4019 86.8489 17.4166 77.9129C6.43122 68.9769 6.81894 58.4162 6.33891 50.9019C5.85887 43.3875 9.08986 34.1931 11.4531 30.9252C13.7979 27.6572 16.4011 21.8415 17.0289 18.4074C17.435 16.2657 17.6197 10.893 19.5213 7.73592C20.666 5.83425 22.4384 4.74495 25.2448 5.59423H25.2632Z" fill="#ED715D"/>
<path d="M33.5529 28.5435C37.2824 28.2111 31.5589 22.5615 31.1158 21.7861C30.1927 20.1798 30.4512 16.4688 28.0325 16.3765C28.1618 14.0502 26.3709 13.6071 25.1154 14.5118V14.1425C25.0785 14.2902 25.06 14.4194 25.0231 14.5671C24.5985 14.8995 24.2477 15.4164 24.063 16.0626C23.6199 17.7612 23.9338 22.0446 25.2447 23.1893V21.5461C25.3924 22.2107 25.5216 22.8385 25.5216 23.4293C25.5216 24.9063 24.6723 25.3679 24.1184 26.6972C23.5276 28.1373 23.7861 28.4142 23.8784 29.8359C23.9707 31.2206 24.6354 33.0668 24.3769 34.4515C24.1738 35.5408 22.9368 36.3532 22.9553 37.4425C22.9922 39.1042 25.817 39.3442 26.6294 40.6181C27.7371 42.3536 26.297 43.0737 26.9986 44.5138C27.571 45.6585 28.6787 45.4184 29.1957 46.8585C29.6942 48.2063 29.1034 50.0157 29.6573 51.345C30.285 52.822 32.2421 53.7267 32.8698 55.2591C33.2575 56.2007 33.036 57.5116 33.2206 58.5085C33.5345 60.1887 34.3653 60.9087 34.8084 62.2934C35.2884 63.8258 34.9745 65.8752 35.0484 67.463C35.1407 68.9769 35.473 73.5003 37.0424 73.408C36.8208 68.5708 37.0793 64.0104 36.3777 59.044C35.9715 56.2192 35.8423 53.2836 35.1592 50.3111C34.236 46.3046 35.4361 41.5413 33.4606 37.8672C34.3837 37.701 35.3992 37.6825 36.2669 37.4241C36.23 36.3532 36.0639 35.2824 36.0269 34.23C37.4486 33.8977 38.8148 34.23 40.1072 34.747C39.5533 31.1467 33.4237 31.239 33.5345 28.5435H33.5529Z" fill="#F99D8F"/>
<path d="M33.5532 66.1337C33.2762 64.8782 33.0731 63.3458 32.6854 62.1457C32.15 60.484 31.0976 59.9671 30.3222 58.5085C28.9559 55.9237 29.399 52.6189 28.0512 49.9233C26.7219 47.2462 25.7619 44.9015 24.2295 42.4459C22.9371 40.3596 21.7185 37.5348 21.5708 35.0239C21.4416 32.9007 22.4016 29.3927 20.7954 27.5834C18.0814 24.537 16.032 29.9835 14.9611 34.4515C14.9611 34.4515 14.9611 34.4515 14.9427 34.4885C12.7641 37.2579 11.9702 41.8182 11.3609 45.2153C10.2901 51.1419 10.5485 59.3763 13.0041 64.8413C15.8843 71.1925 19.7984 75.2727 25.7249 78.3375C27.3681 79.1868 30.4514 80.4423 32.2792 80.2761C35.141 80.0177 34.6978 76.6944 34.5501 74.1096C34.4024 71.4509 34.1255 68.7184 33.5347 66.1706L33.5532 66.1337Z" fill="#E24F40"/>
<path d="M36.1188 66.0413C36.1004 64.7489 35.9342 63.2165 36.0081 61.9611C36.1004 60.2071 36.8574 59.487 37.1897 57.8808C37.7805 55.056 36.7281 51.9358 37.282 49.0002C37.8174 46.0831 38.1128 43.5906 38.8698 40.8396C39.4975 38.5133 39.9037 35.467 39.4975 33.0114C39.1652 30.9067 37.6513 27.7126 38.5929 25.5894C40.1807 22.0076 42.987 26.8449 44.7779 30.9251C44.7779 30.9251 44.7779 30.9251 44.7963 30.9436C47.1411 33.1407 48.7289 37.4056 49.929 40.5812C52.0153 46.1015 53.5108 54.1882 52.6246 60.0594C51.5906 66.9091 49.2274 71.7832 45.0179 76.122C43.8363 77.3405 41.6023 79.2422 40.0699 79.5191C37.6882 79.9253 37.3559 76.5836 36.9497 74.0357C36.525 71.414 36.1927 68.6815 36.1373 66.0783L36.1188 66.0413Z" fill="#E24F40"/>
<path d="M18.1365 57.1238C18.3396 59.2286 17.5272 61.0379 16.3271 61.1672C15.127 61.2964 14.0008 59.7086 13.7977 57.6038C13.5946 55.4991 14.407 53.6897 15.6071 53.5605C16.8072 53.4313 17.9334 55.0191 18.1365 57.1238Z" fill="#E25E50"/>
<path d="M17.5637 56.3484C17.7668 58.3977 17.0652 60.1702 15.9944 60.281C14.9235 60.3917 13.9081 58.8224 13.7235 56.773C13.5204 54.7237 14.222 52.9512 15.2928 52.8405C16.3452 52.7297 17.3791 54.299 17.5637 56.3484Z" fill="#F99767"/>
<path d="M16.0497 56.6438C15.8466 55.9053 16.4928 53.5236 15.3665 53.579C14.7573 53.5974 14.4803 54.3913 14.4434 54.9821C14.4249 55.4068 14.5357 55.7391 14.7203 56.053C14.8127 56.8469 15.0158 57.6223 15.1819 57.8623C15.3481 58.1023 15.9758 58.6931 16.2897 58.4347C16.6589 58.1208 16.142 56.9761 16.0497 56.6438Z" fill="#F7AF69"/>
<path d="M29.2703 62.8473C29.4734 64.952 28.661 66.7614 27.4609 66.8906C26.2608 67.0198 25.1346 65.432 24.9315 63.3273C24.7284 61.2225 25.5408 59.4132 26.7409 59.2839C27.9409 59.1547 29.0672 60.7425 29.2703 62.8473Z" fill="#E25E50"/>
<path d="M28.6975 62.0718C28.9006 64.1212 28.199 65.8936 27.1282 66.0044C26.0573 66.1152 25.0419 64.5458 24.8573 62.4965C24.6542 60.4471 25.3558 58.6747 26.4266 58.5639C27.4974 58.4531 28.5129 60.0225 28.6975 62.0718Z" fill="#F99767"/>
<path d="M27.1835 62.3857C26.9804 61.6472 27.6266 59.2655 26.5003 59.3209C25.8911 59.3393 25.6141 60.1332 25.5772 60.724C25.5587 61.1487 25.6695 61.481 25.8541 61.7949C25.9464 62.5888 26.1495 63.3642 26.3157 63.6042C26.4819 63.8442 27.1096 64.435 27.4235 64.1766C27.7927 63.8627 27.2758 62.718 27.1835 62.3857Z" fill="#F7AF69"/>
<path d="M23.1584 46.3046C23.2138 48.4094 22.2907 50.1634 21.0906 50.2003C19.8905 50.2372 18.8566 48.5571 18.8012 46.4523C18.7458 44.3476 19.6689 42.5936 20.869 42.5567C22.0691 42.5198 23.103 44.1999 23.1584 46.3046Z" fill="#E25E50"/>
<path d="M22.6231 45.4923C22.6785 47.5601 21.8661 49.2587 20.7953 49.2956C19.7245 49.3325 18.8198 47.6893 18.7644 45.6215C18.709 43.5537 19.5214 41.8551 20.5922 41.8182C21.663 41.7813 22.5677 43.4244 22.6231 45.4923Z" fill="#F99767"/>
<path d="M21.0911 45.6769C20.9433 44.9199 21.7372 42.5936 20.611 42.5567C20.0017 42.5382 19.6694 43.2952 19.5956 43.886C19.5402 44.3107 19.651 44.6615 19.7987 44.9753C19.8356 45.7877 19.9833 46.5631 20.131 46.8031C20.2787 47.0432 20.8695 47.7078 21.1834 47.4678C21.5711 47.1909 21.1464 45.9908 21.0726 45.6584L21.0911 45.6769Z" fill="#F7AF69"/>
<path d="M25.2074 54.7052C25.2443 56.3115 24.5428 57.6593 23.6196 57.6777C22.6965 57.7146 21.921 56.4223 21.8657 54.816C21.8287 53.2097 22.5303 51.8619 23.4535 51.8435C24.3766 51.8066 25.152 53.099 25.2074 54.7052Z" fill="#E25E50"/>
<path d="M24.8013 54.0775C24.8383 55.6653 24.229 56.9577 23.3982 56.9761C22.5858 56.9946 21.8842 55.7391 21.8473 54.1698C21.8104 52.582 22.4196 51.2896 23.2505 51.2711C24.0628 51.2527 24.7644 52.5081 24.8013 54.0775Z" fill="#F99767"/>
<path d="M23.6387 54.2252C23.5279 53.6528 24.1372 51.8804 23.2694 51.8435C22.8078 51.8435 22.5494 52.4158 22.494 52.8589C22.4571 53.1913 22.5309 53.4497 22.6417 53.6898C22.6786 54.299 22.7894 54.9083 22.9002 55.0929C23.0109 55.2776 23.4725 55.776 23.7125 55.5914C24.0079 55.3699 23.6756 54.4652 23.6202 54.2067L23.6387 54.2252Z" fill="#F7AF69"/>
<path d="M18.4864 43.2214C18.5233 44.8276 17.8217 46.1754 16.8986 46.1939C15.9754 46.2308 15.2 44.9384 15.1446 43.3321C15.0892 41.7259 15.8093 40.3781 16.7324 40.3596C17.6555 40.3227 18.431 41.6151 18.4864 43.2214Z" fill="#E25E50"/>
<path d="M18.0806 42.5936C18.1176 44.1814 17.5083 45.4738 16.6775 45.4923C15.8651 45.5107 15.1635 44.2553 15.1266 42.6859C15.0897 41.1166 15.6989 39.8057 16.5298 39.7873C17.3421 39.7688 18.0437 41.0243 18.0806 42.5936Z" fill="#F99767"/>
<path d="M16.918 42.7413C16.8072 42.169 17.4165 40.3965 16.5487 40.3596C16.0871 40.3596 15.8287 40.932 15.7733 41.3751C15.7364 41.7074 15.8102 41.9659 15.921 42.2059C15.9579 42.8152 16.0687 43.4244 16.1795 43.6091C16.2902 43.7937 16.7518 44.2922 16.9918 44.1076C17.2872 43.886 16.9549 42.9813 16.8995 42.7229L16.918 42.7413Z" fill="#F7AF69"/>
<path d="M23.1766 63.6042C23.5089 65.1736 23.0473 66.6321 22.1427 66.8537C21.238 67.0752 20.241 65.9675 19.9271 64.3797C19.5948 62.8103 20.0564 61.3518 20.9611 61.1302C21.8657 60.9087 22.8627 62.0164 23.1766 63.6042Z" fill="#E25E50"/>
<path d="M22.6779 63.0688C22.9918 64.6197 22.6225 66.0229 21.8101 66.2075C21.0162 66.3921 20.1116 65.3028 19.7792 63.752C19.4654 62.2011 19.8346 60.7979 20.647 60.6133C21.4409 60.4287 22.3456 61.518 22.6779 63.0688Z" fill="#F99767"/>
<path d="M21.5514 63.4381C21.3299 62.9027 21.6253 61.0195 20.776 61.1672C20.3144 61.241 20.1667 61.8687 20.2037 62.3119C20.2037 62.6442 20.3514 62.8842 20.4991 63.1058C20.6468 63.6966 20.8499 64.2689 20.9976 64.4351C21.1453 64.6012 21.6807 64.989 21.8838 64.7674C22.1238 64.4905 21.6622 63.6781 21.5514 63.4381Z" fill="#F7AF69"/>
<path d="M31.3934 72.4479C31.7257 74.0173 31.2641 75.4758 30.3595 75.6974C29.4548 75.9189 28.4578 74.8112 28.1439 73.2234C27.8116 71.654 28.2732 70.1955 29.1778 69.9739C30.0825 69.7524 31.0795 70.8601 31.3934 72.4479Z" fill="#E25E50"/>
<path d="M30.8947 71.9125C31.2085 73.4634 30.8393 74.8665 30.0269 75.0512C29.233 75.2358 28.3284 74.1465 27.996 72.5956C27.6822 71.0447 28.0514 69.6416 28.8638 69.4569C29.6761 69.2723 30.5623 70.3616 30.8947 71.9125Z" fill="#F99767"/>
<path d="M29.7682 72.2817C29.5467 71.7463 29.8421 69.8631 28.9928 70.0108C28.5312 70.0847 28.3835 70.7124 28.4205 71.1555C28.4205 71.4878 28.5682 71.7279 28.7159 71.9494C28.8636 72.5402 29.0667 73.1126 29.2144 73.2787C29.3621 73.4449 29.8975 73.8326 30.1006 73.6111C30.3406 73.3341 29.879 72.5218 29.7682 72.2817Z" fill="#F7AF69"/>
<path d="M47.3998 54.4283C47.7321 56.2191 48.7476 57.5115 49.6707 57.3084C50.5754 57.1054 51.037 55.4991 50.7046 53.7082C50.3723 51.9173 49.3568 50.6249 48.4337 50.828C47.529 51.0311 47.0675 52.6374 47.3998 54.4283Z" fill="#E25E50"/>
<path d="M47.6579 53.6344C47.9902 55.3883 48.9133 56.6622 49.7257 56.4776C50.5381 56.293 50.9073 54.7421 50.575 52.9882C50.2427 51.2342 49.3195 49.9603 48.5072 50.1449C47.6948 50.3295 47.3255 51.8804 47.6579 53.6344Z" fill="#F99767"/>
<path d="M48.8401 53.5051C48.8216 52.8404 47.7877 51.0311 48.6185 50.7911C49.0801 50.6618 49.4494 51.2342 49.6155 51.7142C49.7263 52.065 49.7263 52.3789 49.6709 52.6743C49.7817 53.3574 49.8186 54.0405 49.7632 54.2805C49.7078 54.5206 49.3755 55.1852 49.0986 55.0375C48.7662 54.8714 48.8586 53.8005 48.8586 53.5051H48.8401Z" fill="#F7AF69"/>
<path d="M39.4608 60.3548C39.7193 61.6657 40.624 62.5888 41.4733 62.4042C42.3226 62.2196 42.8395 61.001 42.5811 59.6902C42.3226 58.3793 41.4179 57.4562 40.5686 57.6408C39.7009 57.8254 39.2024 59.044 39.4608 60.3548Z" fill="#E25E50"/>
<path d="M39.7195 59.764C39.9595 61.0564 40.7903 61.9611 41.5473 61.7949C42.3042 61.6287 42.7289 60.4471 42.4889 59.1547C42.2489 57.8623 41.418 56.9577 40.661 57.1238C39.9041 57.29 39.4794 58.4716 39.7195 59.764Z" fill="#F99767"/>
<path d="M40.8456 59.6163C40.8456 59.1178 39.9594 57.8254 40.7533 57.6039C41.1779 57.4746 41.5287 57.8993 41.6579 58.2501C41.7502 58.5085 41.7318 58.7301 41.6579 58.9701C41.7318 59.4686 41.7502 59.9856 41.6579 60.1702C41.5841 60.3548 41.2517 60.8533 40.9933 60.761C40.6794 60.6502 40.8271 59.8379 40.8271 59.6348L40.8456 59.6163Z" fill="#F7AF69"/>
<path d="M39.3315 42.9629C39.6638 44.2368 40.5316 45.0861 41.2516 44.883C41.9717 44.6614 42.304 43.4614 41.9717 42.1874C41.6393 40.9135 40.7716 40.0642 40.0515 40.2673C39.3315 40.4888 38.9991 41.6889 39.3315 42.9629Z" fill="#E25E50"/>
<path d="M39.4976 42.3721C39.83 43.6275 40.6054 44.4768 41.2516 44.2737C41.8978 44.0706 42.1563 42.9075 41.8239 41.6705C41.4916 40.415 40.7162 39.5657 40.07 39.7688C39.4238 39.9534 39.1653 41.135 39.4976 42.3721Z" fill="#F99767"/>
<path d="M40.4581 42.169C40.4211 41.6889 39.5349 40.4519 40.1996 40.2119C40.5688 40.0827 40.8827 40.4704 41.0304 40.8027C41.1412 41.0427 41.1412 41.2643 41.1042 41.5043C41.215 42.0028 41.2704 42.4828 41.2335 42.6675C41.1966 42.8521 40.9565 43.3506 40.7165 43.2767C40.4396 43.1844 40.4765 42.3905 40.4765 42.169H40.4581Z" fill="#F7AF69"/>
<path d="M39.959 53.4313C40.3652 54.9821 41.4176 56.0345 42.3038 55.7576C43.19 55.4991 43.5778 54.0221 43.1716 52.4712C42.7654 50.9203 41.713 49.8679 40.8268 50.1449C39.9406 50.4034 39.5529 51.8804 39.959 53.4313Z" fill="#E25E50"/>
<path d="M40.1806 52.7112C40.5868 54.2252 41.5468 55.2775 42.3223 55.0375C43.1162 54.7975 43.43 53.3759 43.0238 51.8619C42.6177 50.348 41.6576 49.2956 40.8822 49.5356C40.0883 49.7756 39.7744 51.1973 40.1806 52.7112Z" fill="#F99767"/>
<path d="M41.3251 52.4712C41.2697 51.8804 40.1989 50.3849 41.0112 50.0895C41.4544 49.9233 41.8605 50.4034 42.0267 50.8095C42.1559 51.1049 42.1559 51.3819 42.119 51.6588C42.2667 52.2496 42.3221 52.8589 42.2667 53.0805C42.2113 53.302 41.9159 53.9113 41.639 53.819C41.3067 53.7082 41.362 52.7297 41.3436 52.4712H41.3251Z" fill="#F7AF69"/>
<path d="M43.1719 40.3412C43.5781 41.892 44.6305 42.9444 45.5167 42.6675C46.4029 42.409 46.7906 40.932 46.3845 39.3811C45.9783 37.8302 44.9259 36.7778 44.0397 37.0548C43.1535 37.3133 42.7658 38.7903 43.1719 40.3412Z" fill="#E25E50"/>
<path d="M43.3749 39.6211C43.7811 41.135 44.7412 42.1874 45.5166 41.9474C46.3105 41.7074 46.6244 40.2858 46.2182 38.7718C45.812 37.2579 44.8519 36.2055 44.0765 36.4455C43.2826 36.6855 42.9687 38.1072 43.3749 39.6211Z" fill="#F99767"/>
<path d="M44.538 39.3811C44.4826 38.7903 43.4118 37.2948 44.2241 36.9994C44.6672 36.8332 45.0734 37.3133 45.2396 37.7195C45.3688 38.0149 45.3688 38.2918 45.3319 38.5687C45.4796 39.1595 45.535 39.7688 45.4796 39.9904C45.4242 40.2119 45.1288 40.8212 44.8519 40.7289C44.5195 40.6181 44.5749 39.6396 44.5565 39.3811H44.538Z" fill="#F7AF69"/>
<path d="M44.2978 59.0624C44.4271 60.6687 45.2763 61.9057 46.181 61.8318C47.1042 61.758 47.7319 60.3733 47.6211 58.767C47.4919 57.1607 46.6426 55.9237 45.7379 55.9976C44.8148 56.0714 44.187 57.4561 44.2978 59.0624Z" fill="#E25E50"/>
<path d="M44.6303 58.3977C44.7595 59.9671 45.5165 61.1856 46.3289 61.1118C47.1412 61.0379 47.6951 59.7086 47.5843 58.1208C47.4551 56.5515 46.6981 55.3329 45.8858 55.4068C45.0734 55.4806 44.5195 56.81 44.6303 58.3977Z" fill="#F99767"/>
<path d="M45.8113 58.3977C45.8667 57.8069 45.0728 56.1268 45.9221 55.9791C46.3837 55.9053 46.6975 56.4592 46.7899 56.8838C46.8637 57.1977 46.8083 57.4746 46.716 57.7331C46.7529 58.3424 46.716 58.9516 46.6052 59.1547C46.5129 59.3578 46.1252 59.9117 45.8483 59.764C45.5344 59.5794 45.7559 58.6378 45.7929 58.3793L45.8113 58.3977Z" fill="#F7AF69"/>
<path d="M42.415 69.3277C42.5442 70.934 43.3935 72.171 44.2982 72.0971C45.2213 72.0233 45.8491 70.6386 45.7383 69.0323C45.6091 67.4261 44.7598 66.1891 43.8551 66.2629C42.932 66.3368 42.3042 67.7215 42.415 69.3277Z" fill="#E25E50"/>
<path d="M42.7475 68.6446C42.8767 70.2139 43.6337 71.4325 44.4461 71.3586C45.2584 71.2848 45.8123 69.9555 45.7015 68.3677C45.5723 66.7983 44.8153 65.5798 44.003 65.6536C43.1906 65.7275 42.6367 67.0568 42.7475 68.6446Z" fill="#F99767"/>
<path d="M43.9285 68.6631C43.9839 68.0723 43.19 66.3921 44.0393 66.2444C44.5009 66.1706 44.8147 66.7245 44.907 67.1491C44.9809 67.463 44.9255 67.7399 44.8332 67.9984C44.8701 68.6077 44.8332 69.2169 44.7224 69.42C44.6301 69.6231 44.2424 70.177 43.9654 70.0293C43.6516 69.8447 43.8731 68.9031 43.9101 68.6446L43.9285 68.6631Z" fill="#F7AF69"/>
<path d="M39.018 73.6664C39.3503 74.9404 40.2181 75.7897 40.9381 75.5866C41.6582 75.365 41.9905 74.1649 41.6582 72.891C41.3258 71.6171 40.4581 70.7678 39.738 70.9709C39.018 71.1924 38.6857 72.3925 39.018 73.6664Z" fill="#E25E50"/>
<path d="M39.1841 73.0756C39.5165 74.3311 40.2919 75.1804 40.9381 74.9773C41.5843 74.7927 41.8428 73.6111 41.5105 72.3741C41.1781 71.1186 40.4027 70.2693 39.7565 70.4724C39.1103 70.657 38.8518 71.8386 39.1841 73.0756Z" fill="#F99767"/>
<path d="M40.1446 72.891C40.1076 72.411 39.2214 71.174 39.8861 70.934C40.2553 70.8047 40.5692 71.1924 40.7169 71.5248C40.8277 71.7648 40.8277 71.9863 40.7908 72.2264C40.9015 72.7249 40.9569 73.2049 40.92 73.3895C40.8831 73.5741 40.6431 74.0726 40.4031 73.9988C40.1261 73.9065 40.163 73.1126 40.163 72.891H40.1446Z" fill="#F7AF69"/>
<path d="M43.6518 48.2248C43.9841 49.4987 44.8519 50.348 45.5719 50.1449C46.292 49.9233 46.6243 48.7233 46.292 47.4493C45.9596 46.1754 45.0919 45.3261 44.3718 45.5292C43.6518 45.7507 43.3195 46.9508 43.6518 48.2248Z" fill="#E25E50"/>
<path d="M43.8179 47.634C44.1503 48.8894 44.9257 49.7387 45.5719 49.5356C46.2181 49.351 46.4766 48.1694 46.1442 46.9324C45.8119 45.6769 45.0365 44.8276 44.3903 45.0307C43.7441 45.2338 43.4856 46.3969 43.8179 47.634Z" fill="#F99767"/>
<path d="M44.7784 47.4493C44.7414 46.9693 43.8552 45.7323 44.5199 45.4923C44.8891 45.363 45.203 45.7508 45.3507 46.0831C45.4615 46.3231 45.4615 46.5447 45.4246 46.7847C45.5353 47.2832 45.5907 47.7632 45.5538 47.9478C45.5169 48.1325 45.2769 48.631 45.0368 48.5571C44.7599 48.4648 44.7968 47.6709 44.7968 47.4493H44.7784Z" fill="#F7AF69"/>
<path d="M23.5092 71.0817C23.8415 72.3556 24.7093 73.2049 25.4293 73.0018C26.1494 72.7987 26.4817 71.5802 26.1494 70.3063C25.8171 69.0323 24.9493 68.183 24.2293 68.3861C23.5092 68.6077 23.1769 69.8078 23.5092 71.0817Z" fill="#E25E50"/>
<path d="M23.6754 70.4909C24.0077 71.7463 24.7831 72.5956 25.4293 72.3925C26.0755 72.2079 26.334 71.0263 26.0017 69.7893C25.6693 68.5338 24.8939 67.6845 24.2477 67.8876C23.6015 68.0722 23.343 69.2539 23.6754 70.4909Z" fill="#F99767"/>
<path d="M24.6358 70.2878C24.5989 69.8077 23.7126 68.5707 24.3773 68.3307C24.7466 68.2015 25.0604 68.5892 25.2081 68.9215C25.3189 69.1616 25.3189 69.3831 25.282 69.6231C25.3928 70.1216 25.4481 70.6016 25.4112 70.7863C25.3743 70.9709 25.1343 71.4694 24.8943 71.3955C24.6173 71.3032 24.6542 70.5093 24.6542 70.2878H24.6358Z" fill="#F7AF69"/>
<path d="M15.7547 50.1634C15.9578 50.9573 16.4933 51.4927 16.9548 51.345C17.3979 51.2157 17.601 50.4588 17.3979 49.6649C17.1948 48.871 16.6594 48.3356 16.1979 48.4833C15.7363 48.631 15.5517 49.3695 15.7547 50.1634Z" fill="#E25E50"/>
<path d="M15.8474 49.7941C16.0505 50.5695 16.5305 51.105 16.9367 50.9757C17.3429 50.8649 17.4906 50.1264 17.2875 49.351C17.0844 48.5756 16.6044 48.0401 16.1982 48.1694C15.792 48.2801 15.6443 49.0187 15.8474 49.7941Z" fill="#F99767"/>
<path d="M16.4377 49.6833C16.4192 49.3879 15.8654 48.6309 16.2715 48.4648C16.4931 48.3725 16.6962 48.6309 16.7885 48.834C16.8623 48.9817 16.8623 49.1294 16.8254 49.2587C16.8993 49.5541 16.9362 49.8679 16.8993 49.9787C16.8808 50.0895 16.7146 50.4034 16.5854 50.348C16.4192 50.2926 16.4377 49.7941 16.4377 49.6648V49.6833Z" fill="#F7AF69"/>
<path d="M39.1281 66.0229C39.0727 66.8352 39.405 67.5368 39.8666 67.5738C40.3282 67.6107 40.7528 66.9829 40.8267 66.1706C40.8821 65.3582 40.5497 64.6566 40.0882 64.6197C39.6266 64.5828 39.202 65.2105 39.1281 66.0229Z" fill="#E25E50"/>
<path d="M39.3498 65.7275C39.2944 66.5214 39.5714 67.2045 39.996 67.2414C40.4022 67.2783 40.7899 66.6506 40.8453 65.8567C40.9007 65.0628 40.6237 64.3797 40.1991 64.3428C39.7929 64.3058 39.4052 64.9336 39.3498 65.7275Z" fill="#F99767"/>
<path d="M39.9408 65.8198C40.0147 65.5244 39.7378 64.6197 40.1809 64.6197C40.4209 64.6197 40.5317 64.9336 40.5501 65.1551C40.5501 65.3213 40.5132 65.4505 40.4578 65.5798C40.4209 65.8937 40.3655 66.1891 40.2916 66.2814C40.2362 66.3737 39.9962 66.6137 39.867 66.5214C39.7193 66.4106 39.9039 65.949 39.9408 65.8198Z" fill="#F7AF69"/>
<path d="M45.0183 88.6213C45.0183 88.6213 44.8337 88.5475 44.7414 88.4921C44.7045 88.529 44.6675 88.5659 44.6306 88.6213C42.452 88.5659 40.3473 88.8613 38.1502 89.1198C34.9007 89.5075 31.6328 92.1846 28.2172 91.7969C27.9957 91.7784 27.7556 91.7415 27.5156 91.6861C28.0141 91.7969 28.5126 91.8892 29.0111 91.9446C32.4452 92.3323 35.6946 89.6552 38.9441 89.2675C41.1412 89.009 43.2459 88.7321 45.4245 88.769C45.4614 88.7321 45.4984 88.6952 45.5353 88.6582C45.3691 88.6582 45.1845 88.6213 45.0183 88.6213Z" fill="#BABA2B"/>
<path d="M63.8499 41.7259C59.3081 26.5125 44.741 16.8934 42.0823 13.9394C39.4237 10.9853 37.762 4.08027 35.9896 1.47702C35.3988 0.609272 34.4203 0.184628 33.3125 0.0184631C34.0879 0.240016 34.7526 0.646197 35.1957 1.31086C36.9497 3.91411 38.6298 10.8192 41.2884 13.7732C43.9471 16.7273 58.5142 26.3464 63.056 41.5597C67.5979 56.773 64.9577 69.6047 56.0771 79.0576C54.3416 80.9039 49.9844 87.9197 46.5318 88.7136C46.1995 88.6767 45.8856 88.6582 45.5718 88.6398C45.6456 88.6767 45.7195 88.7321 45.8118 88.7505C46.3103 88.769 46.8272 88.8059 47.3257 88.8613C50.7783 88.049 55.1355 81.0331 56.871 79.2053C65.7701 69.7524 68.3918 56.9207 63.8499 41.7074V41.7259Z" fill="#BABA2B"/>
</g>
<defs>
<clipPath id="clip0_189_147323">
<rect width="101.49" height="92" fill="white" transform="translate(0.725586)"/>
</clipPath>
</defs>
</svg>
