<svg width="93" height="59" viewBox="0 0 93 59" fill="none" xmlns="http://www.w3.org/2000/svg">
<path d="M90.1437 13.7723C91.6635 17.1899 92.505 20.7331 91.7137 24.4648C90.7089 29.2017 88.2346 33.0213 84.3661 35.974C81.9797 37.7959 79.3296 39.0021 76.4659 39.8062C75.436 40.0952 75.4485 40.1203 75.4234 41.1632C75.4108 41.8417 75.3731 42.5202 75.3857 43.1987C75.3857 44.518 75.1973 45.7493 74.7577 47.0434C73.9162 49.4935 72.2206 51.0767 70.2235 52.4839C68.0004 54.0419 65.6643 55.424 63.1774 56.5172C61.1803 57.4093 59.0828 58.1003 56.8722 58.2134C53.9332 58.3642 51.3081 57.3213 48.9092 55.7382C46.1585 53.9163 43.433 52.0316 40.9084 49.883C39.6148 48.7899 38.4718 47.5963 37.4796 46.2393C37.04 45.6362 36.8013 45.6236 36.3743 46.1765C35.3821 47.4706 34.0883 48.4004 32.7695 49.2799C29.8556 51.2149 26.7659 52.7226 23.2742 53.3006C22.0182 53.5142 20.8124 53.3509 19.5941 53.2252C17.2203 52.9865 14.8338 52.8608 12.4977 52.2577C12.0706 52.1447 11.6436 52.0819 11.2166 51.9688C9.18184 51.4411 7.47368 50.4108 6.31816 48.6015C5.6776 47.5837 4.92398 46.6665 4.00709 45.8749C3.46701 45.4101 3.00229 44.8321 2.68829 44.1913C1.70861 42.1055 0.691255 40.0198 0.213974 37.7331C0.0130138 36.7782 -0.0372078 35.8232 0.0758324 34.8809C0.414953 32.0664 0.892228 29.2896 2.04775 26.6636C2.36175 25.9349 2.73856 25.2313 3.27864 24.6282C3.56752 24.314 3.85637 23.9874 3.94429 23.5225V23.5099C4.15781 23.334 4.39646 23.1707 4.5723 22.9696C5.8283 21.4242 7.17223 19.9667 8.69199 18.66C11.1538 16.5491 13.8793 14.9911 17.1072 14.4508C17.9738 14.3126 18.8531 14.3126 19.7197 14.1869C22.5583 13.7974 25.4219 13.5964 28.2856 13.4331C29.6421 13.3577 30.8604 13.81 32.0411 14.4382C33.5483 15.2298 34.6912 16.5994 36.3366 17.1899C36.4748 17.2402 36.6129 17.3658 36.7008 17.4914C37.4544 18.4589 38.3964 19.2756 38.8988 20.4316C38.9993 20.6703 39.0496 20.9844 39.464 21.0221C39.7404 20.7206 40.0041 20.3688 40.3307 20.0798C41.6872 18.861 42.9557 17.5166 44.9025 17.2276C45.518 17.1397 46.1083 16.813 46.7112 16.6119C47 16.5114 47.1759 16.3481 47.2889 16.0716C48.143 13.9357 49.4116 12.0635 51.0821 10.4678C51.4589 10.1035 51.4966 9.80191 51.0318 9.52549C50.5797 9.24907 50.228 8.87214 49.8763 8.4952C48.143 6.62307 45.9325 5.37917 43.7093 4.24835C41.8379 3.29344 39.8409 2.57726 37.9066 1.73543C36.7762 1.24541 35.5956 0.780497 34.3396 0.86845C32.3425 1.00666 30.358 0.91872 28.3735 0.881026C25.9369 0.830768 23.5379 1.25797 21.1892 1.9239C19.054 2.527 17.0444 3.29343 15.3614 4.80118C14.5952 5.47967 13.7286 6.08277 12.8494 6.62305C9.37024 8.75904 7.20991 11.9505 5.71527 15.6445C4.60999 18.1322 4.35878 20.8588 3.91918 23.5225C3.45446 23.4219 3.39167 23.0827 3.45447 22.6932C4.03223 18.6474 4.71048 14.6393 7.17224 11.2091C8.70457 9.06059 10.3499 7.01257 12.7489 5.73098C13.4774 5.34148 14.1556 4.81374 14.7711 4.2609C16.5671 2.6275 18.7275 1.79826 21.0134 1.1449C24.1911 0.240243 27.4064 -0.136702 30.7097 0.164849C31.4131 0.227672 32.1541 0.17742 32.8575 0.076903C34.7917 -0.186954 36.5878 0.252808 38.3211 1.01925C40.1423 1.82339 42.0137 2.52698 43.8098 3.38137C46.1837 4.52475 48.4193 5.90687 50.3033 7.79157C50.3536 7.84183 50.4164 7.90464 50.4666 7.96746C51.8734 9.38726 51.911 9.42496 53.1922 7.96746C54.4984 6.4974 56.1312 5.52995 57.9022 4.78864C58.8944 4.374 59.9243 4.0473 60.904 3.60754C64.986 1.79824 69.2187 1.72287 73.5645 2.33853C75.6369 2.62752 77.634 3.06728 79.518 3.99706C81.1508 4.81376 82.771 5.66815 84.4038 6.50998C85.0946 6.86179 85.597 7.4272 86.0115 8.08056C87.1796 9.92756 88.4607 11.6992 89.8925 13.3702C89.993 13.4833 90.0684 13.6341 90.1437 13.7723ZM90.9099 24.4899C91.3872 21.9016 91.3118 19.3259 90.4326 16.8255C90.1186 15.946 89.7167 15.1167 89.1766 14.3C88.6114 13.4582 88.1718 12.5033 87.5689 11.6615C86.9409 10.782 86.1873 10.0029 85.6849 9.04803C85.0569 7.85439 84.0647 7.10052 82.8715 6.57281C81.9295 6.15817 81 5.68071 80.0957 5.17812C78.7015 4.41168 77.2446 3.70805 75.662 3.4442C72.9491 2.99187 70.2235 2.65263 67.4604 2.81597C65.9406 2.90392 64.4459 3.07984 63.0141 3.62012C61.4566 4.22322 59.8615 4.73835 58.3166 5.39171C55.9428 6.38432 53.7573 7.65336 52.5516 10.0909C52.5013 10.1914 52.4134 10.2794 52.313 10.3422C50.4164 11.6238 49.1604 13.4456 48.1681 15.456C48.0551 15.6696 47.9044 15.8832 48.0802 16.1722C48.4696 16.3481 48.8589 16.1596 49.1981 16.0088C51.2579 15.079 53.3554 15.0916 55.5158 15.5816C58.078 16.1722 60.6403 16.7753 62.9639 18.0569C65.1744 19.2756 67.1212 20.8462 68.8294 22.7183C70.1607 24.1758 71.3037 25.7338 71.9317 27.6311C72.2331 28.5357 72.6099 29.4153 73.0872 30.2571C73.9162 31.7272 74.406 33.3229 74.7577 34.9688C75.0089 36.1374 75.235 37.3058 75.3229 38.4995C75.3857 39.2911 75.4736 39.3162 76.2147 39.1403C80.0329 38.2231 83.3865 36.351 86.0492 33.5239C88.4356 30.9984 90.2693 28.0332 90.9099 24.4899ZM74.4312 41.6658C74.5191 39.5047 74.3935 37.3687 74.0041 35.2453C73.4012 31.9408 71.5298 29.1389 70.3743 26.048C70.3491 25.9726 70.2863 25.9097 70.2487 25.8469C69.1183 24.0376 67.6739 22.4922 66.0662 21.1226C64.6092 19.8787 63.0267 18.7605 61.2431 18.0694C58.907 17.1648 56.508 16.436 53.996 16.1093C53.0791 15.9963 52.1371 15.858 51.2705 16.1722C49.3237 16.8758 47.2262 17.0391 45.2919 17.8181C44.6639 18.0694 43.948 18.0066 43.3451 18.371C41.122 19.728 39.3887 21.6378 38.1955 23.8743C36.8767 26.3621 36.0226 29.0886 35.583 31.9031C35.5328 32.2172 35.5956 32.5313 35.6207 32.8454C35.8217 35.2076 36.9646 37.243 37.8438 39.3665C38.7481 41.5904 40.0795 43.5505 41.8128 45.2718C43.6968 47.1565 45.3547 49.2548 47.4773 50.9133C48.4696 51.6923 49.4995 52.3331 50.7304 52.5844C51.6347 52.7729 52.4888 53.087 53.3303 53.464C55.7419 54.5571 58.2789 54.8586 60.904 54.7078C62.047 54.645 63.0643 54.1048 64.1445 54.0042C65.6266 53.8535 66.7695 52.7604 68.2642 52.7855C69.6332 51.7677 71.2786 51.1018 72.2583 49.6066C72.6351 49.0412 72.9365 48.4255 73.3133 47.8727C74.0669 46.7545 74.4688 45.5357 74.4312 44.1787C74.4186 43.3369 74.4312 42.5076 74.4312 41.6658ZM64.6343 54.8963C63.7551 54.7455 63.1271 55.2607 62.3735 55.3612C59.1582 55.7507 56.0182 55.5622 53.0163 54.1801C52.5139 53.954 51.9989 53.6901 51.4589 53.5896C49.4869 53.2127 47.829 52.308 46.3344 50.9636C43.6716 48.5889 41.3857 45.9001 39.1375 43.161C38.7105 42.6458 38.4216 42.005 38.1076 41.4145C37.354 40.045 36.7637 38.6126 36.211 37.1551C36.0477 36.7279 35.8593 36.3007 35.6835 35.8861C35.5453 37.2682 35.4951 38.6126 35.5579 39.957C35.5956 40.7109 35.8091 41.4522 35.897 42.1935C36.0226 43.2866 36.8264 44.0154 37.3288 44.92C38.2457 46.5911 39.5268 47.923 40.9712 49.1417C43.5335 51.3029 46.2967 53.1875 49.1101 54.9968C50.3159 55.7758 51.5845 56.4795 52.941 56.9192C56.1689 57.9621 59.2963 57.3967 62.3359 56.1025C63.1146 55.7507 63.8556 55.2984 64.6343 54.8963ZM38.3839 22.2911C38.61 22.0021 38.5974 21.688 38.5346 21.3865C38.3965 20.7959 38.1201 20.1552 37.6428 19.8662C36.9772 19.4641 36.525 18.8736 35.9472 18.3961C35.156 17.7553 34.3019 17.3407 33.3096 17.0643C30.7474 16.323 28.1349 16.2727 25.4847 16.2978C22.4075 16.3229 19.4936 17.102 16.5797 17.9438C16.0522 18.0946 15.5498 18.371 15.0725 18.6474C11.4929 20.7834 8.49104 23.535 6.31816 27.1285C4.69791 29.8048 3.65541 32.7449 2.56269 35.6473C2.17333 36.6776 2.17334 37.7582 2.38686 38.8388C2.57526 39.7811 2.72597 40.7234 2.68829 41.6909C2.66317 42.3191 2.92695 42.8217 3.20327 43.362C4.05735 45.008 5.38871 46.2896 6.40607 47.8099C7.83791 49.9459 9.8224 51.039 12.2842 51.5416C14.7459 52.0567 17.2454 52.2703 19.7448 52.5216C20.8878 52.6347 22.0182 52.7729 23.1863 52.5719C27.5195 51.8054 31.1619 49.682 34.5405 46.9932C34.9801 46.6414 35.3569 46.2267 35.6835 45.7744C35.8845 45.498 35.9472 45.2467 35.7965 44.8949C35.0052 43.0353 34.9048 41.025 34.7289 39.0523C34.6787 38.4995 34.7415 37.9592 34.1637 37.5948C33.9502 37.4566 33.6613 37.1802 33.812 36.8033C34.2391 36.6651 34.2768 37.3184 34.6787 37.2556C34.7289 36.5017 34.6787 35.7856 34.6535 35.0694C34.6284 34.4034 34.7917 33.7249 34.6159 32.9459C33.5106 34.5793 32.8575 36.2504 31.9657 37.8084C31.7773 38.1351 31.9155 38.2985 32.0536 38.5372C32.2295 38.8387 32.6188 39.1026 32.4304 39.5298C32.33 39.5424 32.2797 39.5675 32.242 39.5549C32.1416 39.5047 32.0285 39.4544 31.9406 39.379C31.1242 38.6377 31.1242 38.6503 30.0817 39.1152C29.8682 39.2157 29.617 39.2534 29.4411 39.5172C29.6044 40.2711 30.2827 40.8868 30.3831 41.7035C29.9812 41.8794 29.8682 41.6281 29.7551 41.4396C29.5165 41.025 29.2653 40.6104 29.102 40.1706C28.8885 39.5926 28.5368 39.5675 28.0847 39.8439C27.1301 40.447 26.2258 41.1129 25.4596 41.9422C25.4596 41.9296 25.4596 41.9297 25.4596 41.9171L25.4345 41.9296C24.5553 42.4448 23.965 43.0856 24.4297 44.2038C24.4799 44.3044 24.3795 44.43 24.1659 44.4551C24.0027 44.3923 23.965 44.2038 23.8771 44.0279C23.7766 43.8269 23.8143 43.5379 23.4375 43.4625C23.1988 43.563 22.9099 43.7013 22.6085 43.7892C21.5786 44.0656 21.5786 44.0908 21.566 45.3095C21.566 45.8121 21.7042 46.3524 21.4781 47.056C21.0259 46.2644 21.1641 45.6236 21.1264 45.008C21.0887 44.5179 20.8627 44.3044 20.3728 44.2918C19.9206 44.2792 19.7323 44.4802 19.6569 44.9074C19.6067 45.2718 19.6067 45.6739 19.3178 45.9754C18.8028 45.7744 19.167 45.2593 18.7651 45.008C18.4009 45.4477 18.0367 45.9001 17.6473 46.3398C17.4589 46.5534 17.1826 46.6791 16.8937 46.5785C16.5797 46.4655 16.5295 46.1639 16.5546 45.8875C16.6174 45.297 16.6927 44.7064 16.7807 44.1159C16.8058 43.9149 16.8686 43.6887 17.1072 43.7013C17.4338 43.7138 17.4212 43.9777 17.4087 44.229C17.371 44.6939 17.0444 45.1713 17.3584 45.7116C17.8859 45.2341 18.1497 44.6939 18.5014 44.2038C18.7149 43.9023 18.6018 43.6887 18.3255 43.5128C17.6096 43.073 16.8686 43.2489 16.1275 43.362C15.4995 43.4625 15.5121 44.0154 15.2986 44.4174C15.0725 44.8321 15.1353 45.4226 14.5324 45.7116C14.3691 45.0331 14.7208 44.5556 14.8715 44.0405C14.972 43.6887 15.0725 43.3746 14.658 43.1107C14.0677 42.7338 13.917 42.7464 13.4899 43.2992C13.1131 43.7892 13.0252 44.4677 12.5103 44.8572C12.1586 44.6185 12.2716 44.3923 12.3847 44.1913C12.5479 43.8772 12.7615 43.5756 12.9499 43.274C13.5653 42.2563 13.6281 42.4574 12.8619 41.5653C12.8117 41.5024 12.7614 41.4396 12.7112 41.3768C12.4474 40.9873 12.2465 40.5224 11.8948 40.2209C11.5054 39.8942 11.0407 40.5601 10.5383 40.2962C10.6639 39.6303 11.4552 39.8816 11.6939 39.4293C11.4552 38.0346 10.2243 39.0398 9.52096 38.5623C9.80984 38.1728 10.1741 38.1854 10.5132 38.1477C11.8069 37.9844 11.8069 37.9843 12.0581 36.6776C12.0581 36.6776 12.0581 36.6651 12.0707 36.6651C12.7866 35.484 12.887 34.0516 13.5276 32.8329C13.7034 32.4936 13.402 32.3554 13.1759 32.1921C12.8745 31.9659 12.4097 32.0036 12.1711 31.5638C12.6861 31.2748 13.0629 31.5638 13.4146 31.7397C13.8416 31.9659 14.143 31.8905 14.4445 31.5261C14.8213 31.0738 15.2358 30.6592 15.6377 30.232C16.7304 29.453 16.7304 29.4655 15.8763 28.3975C15.6 28.0583 15.3614 27.6939 15.1479 27.3044C15.0223 27.0908 14.7962 26.8521 15.0851 26.5757C15.4493 26.6888 15.4744 27.0657 15.6754 27.3044C16.0019 27.7065 16.3034 28.1211 16.6425 28.5232C16.9439 28.8876 17.2705 28.9253 17.6599 28.5986C18.4511 27.9452 18.4637 27.8321 17.8859 26.9903C17.5719 26.538 17.1072 26.161 17.1072 25.5454C17.1072 25.3192 17.2202 25.1559 17.4463 25.1433C17.6222 25.1308 17.7478 25.2564 17.7478 25.4449C17.7478 26.0982 18.1246 26.5631 18.5139 27.0154C18.6772 27.2039 18.8656 27.3547 19.1419 27.2416C20.7998 26.5882 22.5457 26.161 23.9147 24.8669C24.5679 24.2512 25.1079 23.7612 24.8693 22.7937C24.8316 22.6555 24.9196 22.4796 25.1331 22.4671C25.4345 22.7309 25.3466 23.1204 25.4219 23.4596C25.4722 23.7109 25.5475 23.9371 25.8364 23.9497C26.3891 23.9748 26.992 24.1381 27.4818 23.8743C27.9088 23.6481 27.7455 23.0827 27.8083 22.6681C27.8335 22.5299 27.8209 22.3414 28.1098 22.354C28.4238 22.7058 28.2731 23.1581 28.2605 23.5727C28.2354 24.2889 28.8006 24.2764 29.2402 24.3769C29.7803 24.5151 29.7677 24.0376 29.8556 23.7109C29.9184 23.4848 29.9435 23.2461 29.9812 23.0073C30.0189 22.7058 30.1822 22.5047 30.4585 22.3665C30.7348 22.2283 30.9986 22.1027 31.1367 22.4922C31.2247 22.7309 31.3126 22.9948 30.873 23.133C30.3706 23.2963 30.1445 24.3894 30.4585 24.7789C30.7725 25.1684 31.2247 25.1433 31.4884 24.691C31.815 24.1256 32.1164 23.5476 32.4932 22.8691C32.7696 23.422 32.5937 23.7863 32.443 24.1382C32.2672 24.5402 32.0662 24.9297 31.8652 25.3192C31.6894 25.6836 31.9532 25.8218 32.1918 25.9851C32.4807 26.1736 32.6063 25.9726 32.7444 25.759C32.9077 25.5077 32.8826 25.1182 33.2719 24.9549C33.4603 25.3444 33.2845 25.671 33.1338 25.9726C32.8072 26.6762 33.0961 27.1034 33.7115 27.405C34.1386 27.116 33.9628 26.3621 34.6033 26.2364C34.8294 26.6636 34.5657 26.9777 34.4903 27.3044C34.2265 28.3599 34.2768 28.4729 35.3318 29.0509C35.382 29.0006 35.4574 28.9504 35.47 28.8876C35.5453 28.6614 35.6207 28.4352 35.6835 28.2091C36.2989 26.1108 36.9897 24.0376 38.3839 22.2911ZM34.1511 31.8905C34.6912 30.6215 34.2265 29.4907 33.4729 28.5232C32.7696 27.6185 31.8652 26.9023 30.9735 26.161C30.7725 25.9977 30.5715 25.8595 30.358 25.7339C29.8933 25.4574 29.4035 25.269 28.8759 25.0805C28.6373 24.9925 28.3359 24.8417 28.1851 25.2438C28.0093 25.7213 28.1098 26.249 28.474 26.3244C29.3407 26.5003 30.0315 26.9903 30.873 27.7442C30.6218 27.0531 30.2952 26.827 29.9938 26.5631C29.8682 26.45 29.7928 26.2867 29.9184 26.1485C30.0063 26.048 30.1194 25.9977 30.2324 25.9977C30.3078 25.9977 30.3831 26.0228 30.4459 26.0731C30.6469 26.2616 30.7725 26.5128 30.9483 26.7264C31.2749 27.1285 31.4508 27.6311 31.9155 27.9327C32.7444 28.4855 33.2468 29.2645 33.4352 30.2445C33.5734 30.9482 33.6864 31.6392 33.812 32.3428C33.812 32.3428 33.8121 32.3428 33.7995 32.3428V32.3554C33.0333 32.5062 32.644 32.9962 32.4681 33.7375C32.3802 34.1144 32.242 34.5668 31.8778 34.7427C31.187 35.0694 31.1242 35.6976 30.9232 36.3007C30.7097 36.9666 30.5339 37.6954 29.6295 37.821C29.3281 37.8587 29.1899 38.1351 29.3783 38.4744C30.3957 38.2105 31.1493 37.6702 31.6266 36.7028C32.2044 35.5343 32.87 34.4034 33.498 33.2475C33.6362 32.9585 33.7869 32.6821 33.7995 32.3554H33.812C33.812 32.3428 33.812 32.3428 33.812 32.3428C34.0004 32.2423 34.0758 32.0664 34.1511 31.8905ZM32.443 16.0214C32.5435 16.0465 32.6565 15.9963 32.8826 15.9711C31.3628 14.8529 29.8556 14.0362 27.9967 14.1744C27.3185 14.2247 26.6528 14.2875 25.9746 14.3126C23.1863 14.4508 20.4356 14.8529 17.6599 15.1419C16.3536 15.2801 15.0348 15.456 13.8919 16.147C13.2136 16.5617 12.5102 16.9386 11.7943 17.2904C11.1914 17.592 10.576 17.9061 10.0736 18.3584C7.78767 20.4065 5.60222 22.555 3.85638 25.1056C3.34142 25.8595 2.77624 26.5883 2.46224 27.4678C1.52023 30.144 0.804314 32.8705 0.641033 35.7101C0.628473 35.9489 0.628473 36.1876 0.641033 36.4263C0.754074 37.8713 1.14343 39.2157 1.77144 40.5098C2.07288 40.0449 1.9347 39.6177 1.84678 39.1905C1.54534 37.7582 1.63327 36.3635 2.04775 34.9437C2.53759 33.2475 3.37911 31.7146 4.01967 30.0812C5.11239 27.317 6.69495 24.8543 8.72968 22.6681C10.777 20.4944 13.0755 18.66 15.7759 17.4161C17.6975 16.5366 19.795 16.0968 21.88 15.8078C25.3968 15.3303 28.9388 15.167 32.443 16.0214ZM31.5135 33.8255C32.6314 32.2674 32.6691 30.7723 32.1667 29.1891C32.016 28.7242 31.8401 28.4227 31.1619 28.3598C32.2797 30.1063 31.2498 31.8905 31.5135 33.8255ZM29.8933 36.6902C30.4836 35.8358 30.672 35.0191 30.5339 33.6998C30.0566 34.1647 29.6421 34.5668 29.2527 34.9688C29.2402 34.9688 29.2276 34.9688 29.2276 34.9563C29.2276 34.9688 29.2276 34.9814 29.2151 34.994C28.1349 36.062 26.8538 36.9541 25.8615 38.1351C25.3089 38.8011 25.3089 39.4419 25.6731 40.1832C26.2509 39.8816 26.3388 39.3413 26.5649 38.889C26.8287 38.3613 27.0547 37.8085 27.3059 37.2682C27.3687 37.13 27.4944 36.9918 27.6702 37.0169C27.8963 37.0295 27.9842 37.2053 28.047 37.4064C28.1349 37.7205 27.9842 38.11 28.2982 38.3738C28.7504 37.9969 28.8383 37.5195 28.9262 37.0671C29.0644 36.3886 29.1146 35.685 29.2025 34.994C29.2151 34.9814 29.2276 34.9688 29.2276 34.9688C29.2276 34.9688 29.2276 34.9688 29.2402 34.9563C30.3455 35.1824 29.5416 36.1499 29.8933 36.6902ZM30.0063 33.0967C31.1367 31.7146 31.3 29.943 30.4334 28.5483C29.3658 26.8144 27.5823 26.6008 26.1504 28.0457C25.8992 28.297 25.6606 28.5734 25.4094 28.8247C25.0954 29.1388 24.7437 29.4278 24.3041 29.4907C22.2066 29.7796 20.6115 31.0864 18.8531 32.079C18.0241 32.5439 17.4338 33.2852 17.1575 34.1647C16.7807 35.3835 16.115 36.4766 15.7005 37.6702C15.399 38.5121 15.5372 39.0146 16.3034 39.4544C16.7179 39.7057 17.1951 39.7685 17.685 39.8062C19.5313 39.5047 21.3651 39.1906 23.2114 38.9016C24.0403 38.7759 24.6935 38.3864 25.221 37.7331C25.9244 36.8661 26.7282 36.1122 27.6074 35.4086C28.474 34.705 29.303 33.9511 30.0063 33.0967ZM26.0374 26.5254C26.5524 25.9223 27.0547 25.4826 27.3436 24.7664C26.5649 24.7413 25.8615 24.6407 25.1833 24.892C25.1707 24.892 25.1582 24.892 25.1456 24.892C25.1456 24.9046 25.1456 24.9046 25.1331 24.9172C23.3747 25.8721 23.3872 26.1485 23.5882 27.6437C24.3167 26.7893 24.8191 25.9098 25.1331 24.9172C25.1331 24.9172 25.1456 24.9046 25.1582 24.9046C25.1708 24.9046 25.1707 24.9046 25.1833 24.892C26.0751 25.0302 25.6857 25.9349 26.0374 26.5254ZM25.1331 28.0709C25.4973 27.6437 25.4848 27.6437 24.9698 26.9526C24.6809 27.3296 24.4171 27.7191 24.1157 28.0834C23.9147 28.3347 23.6384 28.6363 23.337 28.5232C22.5834 28.1965 22.4075 28.7745 21.9428 29.4153C22.7341 29.1514 23.2867 28.9504 23.8645 28.875C24.4046 28.7996 24.794 28.4604 25.1331 28.0709ZM23.8896 41.8919C25.2838 41.025 25.2838 41.025 24.6683 40.3465C24.392 40.8742 24.1408 41.3768 23.8896 41.8919ZM23.1486 41.7035C23.6133 41.0878 23.9524 40.4345 24.2036 39.5298C22.8848 39.7308 21.7419 39.9067 20.6115 40.0826C20.3979 40.1203 20.2095 40.2334 20.2598 40.4722C20.2975 40.6481 20.423 40.8365 20.5612 40.9747C20.6994 41.1004 20.8626 41.0124 20.9631 40.8742C21.2394 40.4973 21.4655 39.9319 21.9679 40.6732C22.0307 40.7611 22.1689 40.6355 22.2568 40.5601C22.8095 40.1078 22.91 40.447 22.9351 40.9496C22.9476 41.1883 22.7341 41.5024 23.1486 41.7035ZM21.5911 28.5358C21.9805 28.0834 22.4201 27.6688 22.4703 27.028C21.3274 27.0783 21.139 27.3924 21.5911 28.5358ZM22.7843 42.8343C22.4326 42.382 22.1689 42.0302 21.6916 42.5453C21.5283 42.7338 21.1515 42.784 21.0887 42.5202C20.9003 41.7286 19.9207 41.716 19.7197 40.8993C19.0791 41.1758 18.7651 41.9548 18.1497 41.6281C17.5719 41.314 17.2077 41.4271 16.7932 41.8166C16.6927 41.9045 16.4666 41.9673 16.3536 41.9171C15.6754 41.6155 15.487 42.1055 15.1479 42.495C15.6 42.7966 16.0019 42.671 16.3787 42.6333C17.3458 42.5202 18.2376 42.6081 19.1168 43.1484C20.3728 43.9274 21.566 43.3871 22.7843 42.8343ZM21.4153 29.7797C20.9883 29.453 20.6994 29.1765 20.3854 29.7043C20.1467 30.1063 19.8453 30.4581 19.3555 30.6341C19.4183 30.6969 19.4811 30.7722 19.5439 30.8351C20.1467 30.4958 20.7496 30.1566 21.4153 29.7797ZM20.2347 28.5609C20.3728 28.2468 20.5989 27.9578 20.4733 27.5054C19.368 27.5934 18.7651 28.4101 18.0869 29.0886C18.0241 29.1514 18.0241 29.365 18.0743 29.4027C18.4888 29.742 18.1623 30.2948 18.4763 30.7848C18.9535 30.1817 19.0163 29.5535 19.1922 28.963C19.3052 28.586 19.368 27.9452 19.9709 28.6111C20.1091 28.7619 20.1844 28.6488 20.2347 28.5609ZM18.7275 40.7234C18.7651 40.5601 18.6647 40.5098 18.5391 40.5098C18.3632 40.5098 18.1371 40.447 18.0618 40.6857C18.0492 40.736 18.1748 40.8868 18.2627 40.9245C18.4762 41.0124 18.6395 40.9119 18.7275 40.7234ZM17.2956 31.0487C17.5091 30.6969 17.6222 30.3199 17.4087 29.6666C16.8309 30.1315 16.3285 30.5084 15.8512 30.9105C14.5826 31.991 14.5073 32.4182 15.2232 34.3029C15.6 33.5993 15.6754 32.8831 15.9266 32.2423C16.0899 31.8151 16.0647 31.1241 16.8937 31.4131C17.1072 31.4884 17.1951 31.212 17.2956 31.0487ZM16.8811 33.1093C16.969 32.8831 17.0821 32.6444 16.7555 32.5187C16.429 32.4057 16.3536 32.6821 16.2783 32.8957C16.0647 33.4988 15.8763 34.1019 15.6628 34.705C15.5749 34.9311 15.4367 35.1448 15.1479 35.1322C14.859 35.1196 14.7585 34.8934 14.6831 34.6673C14.5324 34.2024 14.4445 33.7124 14.0175 33.2852C13.8793 33.549 13.7537 33.7124 13.7035 33.9009C13.3518 35.0317 13.0252 36.175 12.6107 37.5697C13.3392 36.7656 13.4648 35.9112 14.1305 35.0819C14.2184 36.263 13.3643 36.9289 13.3518 37.9718C13.7914 37.5948 13.917 37.2053 14.1179 36.8787C14.2435 36.6776 14.3189 36.4263 14.6203 36.4263C15.0097 36.4389 14.6957 36.9038 14.9469 37.0294C16.0898 35.9614 16.341 34.4663 16.8811 33.1093ZM16.6174 40.8868C16.7681 41.1004 17.0067 40.8365 17.1575 40.5601C16.4667 40.4722 15.9014 40.1329 15.3237 39.8439C14.972 40.7109 14.9846 40.7109 15.1981 41.4145C15.3111 41.2763 15.4242 41.1632 15.4995 41.0376C15.8135 40.535 16.1024 40.1831 16.6174 40.8868ZM14.7459 39.1403C14.8464 38.9267 14.7459 38.6628 14.5199 38.5498C14.2435 38.4116 14.0677 38.6126 14.0049 38.8513C13.8918 39.3665 13.6532 39.8816 13.8919 40.6732C14.2687 40.0072 14.545 39.5926 14.7459 39.1403ZM14.1807 41.9171C14.4319 41.9548 14.3817 41.7537 14.3817 41.6155C14.3817 41.4647 14.3189 41.3014 14.1305 41.3391C13.9798 41.3642 13.8416 41.4396 13.8542 41.6281C13.917 41.7789 14.0174 41.9045 14.1807 41.9171ZM13.3141 39.2408C13.3518 38.7508 12.9247 38.7885 12.6484 38.7759C12.3093 38.7634 12.3344 39.0649 12.3847 39.3036C12.4851 39.8062 12.661 40.2711 13.1383 40.7611C13.2136 40.1078 13.289 39.6806 13.3141 39.2408Z" fill="black"/>
<path d="M90.4706 16.782C91.3514 19.2847 91.4269 21.8629 90.9487 24.4537C90.307 28.0003 88.4698 30.9684 86.0789 33.4962C83.4112 36.326 80.0513 38.1999 76.2259 39.118C75.4835 39.294 75.3954 39.2689 75.3325 38.4765C75.2444 37.2818 75.0179 36.1122 74.7662 34.9426C74.4139 33.295 73.9231 31.6978 73.0926 30.2263C72.6144 29.3837 72.2369 28.5033 71.9349 27.5978C71.3057 25.6988 70.1606 24.1393 68.8268 22.6804C67.1154 20.8065 65.1649 19.2344 62.9502 18.0145C60.6223 16.7317 58.0552 16.128 55.4881 15.5369C53.3238 15.0464 51.2223 15.0338 49.1586 15.9645C48.8188 16.1154 48.4287 16.3041 48.0386 16.128C47.8625 15.8387 48.0135 15.6249 48.1267 15.4111C49.1208 13.3989 50.3792 11.5753 52.2793 10.2925C52.38 10.2296 52.4681 10.1416 52.5184 10.041C53.7264 7.60111 55.916 6.33086 58.2943 5.33731C59.8421 4.68333 61.4402 4.16771 63.0005 3.56403C64.4351 3.02324 65.9325 2.84715 67.4552 2.75911C70.2235 2.59562 72.9542 2.93519 75.6722 3.38794C77.2578 3.65205 78.7175 4.35634 80.1142 5.12351C81.0203 5.62658 81.9515 6.1045 82.8952 6.51952C84.0907 7.04774 85.0848 7.80233 85.7139 8.9971C86.2173 9.95292 86.9723 10.7327 87.6015 11.613C88.2055 12.4557 88.6459 13.4115 89.2122 14.2541C89.7533 15.0716 90.156 15.9016 90.4706 16.782Z" fill="#8D780E"/>
<path d="M73.9018 35.2082C74.2904 37.3346 74.4158 39.4735 74.328 41.6376C74.328 42.4806 74.3155 43.311 74.328 44.154C74.3656 45.5129 73.9645 46.7334 73.2123 47.8532C72.8363 48.4068 72.5354 49.0233 72.1593 49.5895C71.1815 51.0868 69.5394 51.7536 68.173 52.7728C66.6812 52.7476 65.5405 53.8422 64.0612 53.9932C62.9832 54.0939 61.9678 54.6349 60.827 54.6978C58.2071 54.8488 55.6749 54.5468 53.268 53.4522C52.4281 53.0747 51.5757 52.7602 50.6731 52.5714C49.4446 52.3198 48.4167 51.6781 47.4264 50.898C45.3078 49.2372 43.6531 47.136 41.7727 45.2487C40.0428 43.5249 38.714 41.5621 37.8115 39.3351C36.934 37.2087 35.7932 35.1704 35.5926 32.805C35.5676 32.4904 35.5049 32.1759 35.555 31.8613C35.9938 29.043 36.8462 26.3127 38.1625 23.8214C39.3534 21.5818 41.0833 19.6693 43.3021 18.3105C43.9038 17.9456 44.6184 18.0085 45.2452 17.7569C47.1757 16.9768 49.2691 16.8132 51.2121 16.1086C52.0771 15.7941 53.0173 15.9325 53.9324 16.0457C56.4395 16.3728 58.8339 17.1026 61.1655 18.0085C62.9456 18.7005 64.5251 19.8203 65.9792 21.066C67.5838 22.4374 69.0254 23.985 70.1536 25.7968C70.1912 25.8597 70.2539 25.9226 70.279 25.9981C71.4323 29.0933 73.3001 31.8991 73.9018 35.2082ZM67.6715 43.6382C67.847 43.4243 67.6841 43.2733 67.5336 43.1349C67.4459 43.0468 67.3581 42.9713 67.2579 42.9084C66.1422 42.2164 66.1547 41.0211 65.7786 39.8132C66.3177 39.9894 66.6562 40.1152 66.9946 40.2033C67.1451 40.241 67.308 40.2158 67.3582 40.0145C67.3832 39.8761 67.2955 39.788 67.1952 39.7251C66.7815 39.4987 66.3678 39.247 65.9291 39.0583C65.0391 38.6808 64.8385 37.9385 64.7758 37.0955C65.4402 36.9823 65.9541 37.5233 66.6687 37.2339C66.1673 36.6803 65.5405 36.6677 65.0014 36.4664C64.3997 36.2399 64.1866 35.8373 64.149 35.0698C64.1239 34.4281 64.6003 34.5413 64.9387 34.4155C65.0766 34.3652 65.2145 34.2645 65.1518 34.0758C64.9011 33.6858 64.2368 34.1387 64.1365 33.6228C63.961 32.7421 63.6225 31.8362 64.2368 30.968C64.4749 30.6283 64.851 30.3263 64.7131 29.8231C64.0738 29.8105 64.0863 30.5528 63.5473 30.6786C63.0459 30.0999 62.6071 29.5211 63.2966 28.741C63.4596 28.5523 63.5723 28.2503 63.2715 28.0113C62.908 28.0364 62.8954 28.3887 62.745 28.6026C62.4191 29.0807 62.1308 28.9675 61.7798 28.6404C61.4538 28.3384 61.4664 28.049 61.6544 27.6841C61.8048 27.4073 62.1057 27.1179 61.8174 26.753C61.3912 26.8537 61.341 27.2186 61.1655 27.4702C60.8521 27.9106 60.5136 27.7722 60.1125 27.6212C59.7114 27.4702 59.5484 27.2312 59.6487 26.8034C59.7364 26.4133 59.9621 26.0107 59.6863 25.6207C59.3353 25.6962 59.3729 25.9352 59.2852 26.0988C59.0595 26.5266 59.2726 27.3444 58.345 27.1557C57.7558 27.0298 57.7307 26.9669 57.8561 25.8346C57.8937 25.5074 58.0441 25.1551 57.7182 24.7399C57.2794 25.2432 57.3296 25.822 57.2042 26.3378C57.1415 26.5769 57.1039 26.816 56.778 26.7908C56.4772 26.7656 56.2139 26.6524 56.1763 26.3252C56.1262 25.9352 56.1638 25.5326 56.1512 25.1299C56.1387 24.677 56.3142 24.2115 56.1136 23.683C55.4994 24.0227 55.7626 24.7273 55.4492 25.0922C54.3711 24.4128 54.1079 23.4439 54.2834 22.299C54.3085 22.0725 54.321 21.8083 53.97 21.6951C53.5312 22.0851 53.6691 22.6261 53.6566 23.1168C53.6315 23.6578 53.5689 24.0353 52.9045 24.0982C52.2275 24.1611 52.1022 23.7208 51.9893 23.2426C51.8765 22.7771 51.8139 22.299 51.7136 21.8335C51.6885 21.6825 51.6258 21.5189 51.4127 21.5441C51.1996 21.5818 51.1745 21.758 51.1996 21.909C51.2748 22.4626 51.35 23.0162 51.4879 23.5572C51.6007 24.0227 51.4253 24.2115 50.999 24.3121C50.4976 24.4253 49.9335 24.4757 49.5198 24.7399C48.705 25.2558 48.1158 25.13 47.5768 24.4002C47.4765 24.2744 47.3261 24.1863 47.1756 24.287C47.0252 24.4002 47.0378 24.6267 47.1506 24.7148C47.8526 25.2684 48.2913 25.9478 48.2537 26.8914C48.2537 26.9795 48.4041 27.0676 48.4668 27.1683C48.6925 27.5206 48.6674 29.1059 48.3916 29.433C47.9779 29.9237 47.5016 29.4708 47.0628 29.4582C46.95 29.4582 46.8246 29.3953 46.7118 29.3827C46.5363 29.3449 46.3859 29.3827 46.3358 29.5714C46.2856 29.7601 46.4235 29.886 46.5739 29.9237C47.0001 30.037 47.4263 30.125 47.8526 30.2383C48.0406 30.2886 48.2286 30.3893 48.1785 30.6409C48.1158 30.8925 47.8902 30.9051 47.7021 30.8548C47.0503 30.6912 46.3984 30.5151 45.7466 30.3389C45.5836 30.3012 45.4206 30.276 45.3454 30.4396C45.2577 30.6032 45.383 30.7541 45.5209 30.8296C45.9722 31.1064 46.4987 31.1316 47.0002 31.2574C48.166 31.572 48.166 31.572 48.191 32.9308C47.4013 33.2831 46.436 32.6792 45.6212 33.2328C45.9095 33.648 46.248 33.5348 46.5489 33.5599C46.95 33.6103 47.3386 33.6103 47.7397 33.648C47.9779 33.6732 48.2412 33.7361 48.2913 34.0129C48.3791 34.5162 48.3791 35.0572 48.2161 35.5479C48.0531 36.0512 47.5392 35.8247 47.1756 35.9128C46.599 36.0638 45.9221 35.9505 45.358 36.5293C46.0224 36.8187 46.5363 36.4916 47.0628 36.4916C47.464 36.5041 48.1409 36.0889 48.191 36.6048C48.2537 37.2717 47.5392 36.8439 47.1756 36.9068C46.5865 37.0074 45.9346 36.8942 45.3956 37.3849C45.7842 37.7498 46.1477 37.5484 46.4736 37.5359C46.95 37.5233 47.4264 37.4855 47.9027 37.4478C48.2036 37.4226 48.3289 37.5736 48.3791 37.8504C48.4292 38.1272 48.3415 38.3285 48.0782 38.4166C47.6269 38.5676 47.1631 38.6934 46.7243 38.8696C46.4987 38.9577 46.1477 38.9702 46.2104 39.4483C47.0503 39.6245 47.7899 38.8444 48.7426 39.0457C48.2412 40.0145 47.5642 40.8198 47.5392 41.8893C48.2788 41.4489 48.2537 40.4423 48.9432 39.9768C49.6953 40.7946 49.9084 41.5747 49.0936 42.4177C48.9181 42.5939 48.705 42.8455 48.9306 43.1726C49.407 43.1349 49.5073 42.6945 49.758 42.4429C49.9837 42.1912 50.1466 41.9396 50.5352 42.2164C50.8988 42.4806 51.1244 42.7197 50.7985 43.1852C50.5853 43.5123 50.2469 43.8521 50.4224 44.3679C50.974 44.2421 51.1871 43.8521 51.3626 43.462C51.6383 42.8329 52.0771 43.0217 52.5535 43.1475C53.1802 43.3236 52.9546 43.7137 52.8668 44.0911C52.8167 44.305 52.6538 44.5441 52.9421 44.7076C53.0925 44.7454 53.1802 44.6573 53.2429 44.5567C53.8697 43.5249 53.8447 43.5627 54.8977 44.0659C55.537 44.3553 55.6874 44.7328 55.4868 45.3745C55.374 45.752 55.3364 46.1546 55.3113 46.5572C55.2862 46.9095 55.2988 47.2744 55.3239 47.6267C55.3364 47.7902 55.4743 47.9287 55.6373 47.9287C55.8002 47.9412 55.9381 47.8154 55.9506 47.6393C55.9757 47.3625 55.9883 47.0856 56.0133 46.8088C56.0635 46.2804 56.0133 45.7142 56.3643 45.2235C57.1039 45.5003 57.1541 46.0665 57.1666 46.6956C57.1666 47.2115 57.0037 47.7777 57.4675 48.3313C57.8059 47.8406 57.6931 47.4002 57.7056 46.985C57.7307 46.5698 57.9062 46.444 58.3074 46.4691C58.7587 46.4943 59.072 46.5824 59.1222 47.1108C59.1598 47.4505 59.2225 47.8154 59.5359 47.9916C59.7991 47.8909 59.8117 47.7399 59.7866 47.5764C59.749 47.2996 59.6863 47.0227 59.6487 46.7459C59.5735 46.1672 59.9997 45.9658 60.4259 45.8652C60.9148 45.7519 60.8396 46.2301 60.9399 46.4943C61.0652 46.8466 61.0652 47.287 61.692 47.3876C61.6043 46.834 61.529 46.3307 61.4413 45.84C61.3786 45.4751 61.4538 45.2109 61.855 45.1229C62.2311 45.0348 62.3313 45.2738 62.4065 45.5758C62.4943 45.9029 62.5695 46.2804 63.0333 46.293C63.3091 45.991 62.8327 45.6764 63.1461 45.3242C64.2242 45.7268 65.1644 44.4937 66.3804 45.0473C65.9792 44.3428 65.8539 43.7263 66.4305 43.1475C66.769 43.1852 66.9445 43.4998 67.2328 43.6256C67.3832 43.6885 67.5462 43.7766 67.6715 43.6382ZM64.6128 35.3214C64.9764 35.8499 65.4026 35.8121 66.092 35.6989C65.553 35.183 65.1644 35.1327 64.6128 35.3214ZM64.6003 32.5408C65.014 32.2766 65.2396 31.9243 65.6533 31.3833C64.6379 31.6852 64.6379 31.6852 64.6003 32.5408ZM53.9825 46.4062C54.3962 45.7268 54.4714 45.0096 54.2834 44.2421C53.7444 44.8964 53.7694 45.6387 53.9825 46.4062ZM49.7455 24.1486C49.9836 23.3182 49.6828 22.7268 49.6953 22.1354C49.6953 21.9593 49.5825 21.8083 49.4195 21.8083C49.1939 21.8083 49.0811 22.0096 49.1061 22.2109C49.1813 22.8149 49.1563 23.4691 49.7455 24.1486ZM47.84 28.1119C47.4765 27.4577 46.9876 26.9544 46.0474 26.8789C46.7996 27.7722 46.8748 27.8225 47.84 28.1119ZM45.5084 33.9626C46.2856 34.5036 46.5112 34.5665 47.6771 34.491C46.9124 33.9626 46.3232 33.7361 45.5084 33.9626Z" fill="#4CAA56"/>
<path d="M67.7345 43.1337C67.8855 43.2721 68.0491 43.423 67.873 43.6369C67.7471 43.7753 67.5836 43.6872 67.4326 43.6243C67.1432 43.4985 66.967 43.184 66.6273 43.1463C66.0485 43.725 66.1743 44.3413 66.577 45.0458C65.3565 44.4923 64.4128 45.7251 63.3307 45.3225C63.0162 45.6748 63.4943 45.9893 63.2175 46.2912C62.752 46.2786 62.6765 45.9012 62.5884 45.5741C62.5129 45.2722 62.4123 45.0332 62.0348 45.1213C61.6321 45.2094 61.5566 45.4735 61.6196 45.8383C61.7076 46.3289 61.7831 46.8321 61.8712 47.3856C61.2421 47.285 61.2421 46.8447 61.1163 46.4925C61.0156 46.2283 61.0911 45.7503 60.6004 45.8635C60.1726 45.9641 59.7448 46.1654 59.8203 46.7441C59.858 47.0208 59.921 47.2976 59.9587 47.5743C59.9839 47.7379 59.9713 47.8888 59.7071 47.9895C59.3925 47.8134 59.3296 47.4485 59.2918 47.1089C59.2415 46.5805 58.9269 46.4925 58.474 46.4673C58.0713 46.4422 57.8952 46.568 57.87 46.9831C57.8574 47.3982 57.9707 47.8385 57.631 48.3291C57.1654 47.7756 57.329 47.2095 57.329 46.6938C57.3164 46.0648 57.2661 45.4987 56.5237 45.2219C56.1714 45.7125 56.2217 46.2786 56.1714 46.807C56.1462 47.0837 56.1337 47.3605 56.1085 47.6372C56.0959 47.8134 55.9575 47.9392 55.7939 47.9266C55.6304 47.9266 55.492 47.7882 55.4794 47.6246C55.4542 47.2724 55.4416 46.9076 55.4668 46.5554C55.492 46.1528 55.5297 45.7503 55.643 45.3729C55.8443 44.7313 55.6933 44.3539 55.0516 44.0646C53.9947 43.5614 54.0198 43.5237 53.3907 44.5552C53.3278 44.6558 53.2397 44.7439 53.0887 44.7062C52.7993 44.5426 52.9629 44.3036 53.0132 44.0898C53.1013 43.7124 53.3278 43.3224 52.6987 43.1463C52.2205 43.0205 51.7802 42.8318 51.5034 43.4608C51.3272 43.8507 51.1133 44.2407 50.5597 44.3665C50.3835 43.8507 50.7233 43.5111 50.9372 43.184C51.2643 42.7185 51.0378 42.4795 50.6729 42.2154C50.2829 41.9386 50.1193 42.1902 49.8928 42.4418C49.6412 42.6934 49.5405 43.1337 49.0624 43.1714C48.8359 42.8444 49.0498 42.5928 49.226 42.4167C50.0438 41.5738 49.8299 40.7939 49.075 39.9762C48.383 40.4416 48.4081 41.448 47.6658 41.8883C47.6909 40.819 48.3704 40.0139 48.8737 39.0453C47.9174 38.844 47.1751 39.6239 46.332 39.4478C46.2691 38.9698 46.6214 38.9572 46.8479 38.8692C47.2883 38.6931 47.7538 38.5673 48.2068 38.4163C48.471 38.3282 48.5591 38.127 48.5088 37.8502C48.4585 37.5735 48.3326 37.4225 48.0307 37.4477C47.5525 37.4854 47.0744 37.5231 46.5963 37.5357C46.2691 37.5483 45.9042 37.7496 45.5142 37.3848C46.0552 36.8942 46.7095 37.0074 47.3009 36.9067C47.6658 36.8438 48.383 37.2716 48.3201 36.6048C48.2697 36.0891 47.5903 36.5042 47.1876 36.4916C46.6592 36.4916 46.1433 36.8187 45.4764 36.5293C46.0426 35.9507 46.7221 36.0639 47.3009 35.9129C47.6658 35.8249 48.1816 36.0513 48.3452 35.5481C48.5088 35.0575 48.5088 34.5166 48.4207 34.0134C48.3704 33.7366 48.1061 33.6738 47.8671 33.6486C47.4644 33.6109 47.0744 33.6108 46.6718 33.5605C46.3698 33.5354 46.0301 33.6486 45.7407 33.2335C46.5585 32.68 47.5274 33.2838 48.3201 32.9315C48.2949 31.5729 48.2949 31.5729 47.1247 31.2585C46.6214 31.1327 46.093 31.1075 45.64 30.8307C45.5016 30.7552 45.3758 30.6043 45.4638 30.4408C45.5393 30.2772 45.7029 30.3024 45.8665 30.3401C46.5208 30.5162 47.175 30.6923 47.8293 30.8559C48.0181 30.9062 48.2445 30.8936 48.3075 30.642C48.3578 30.3904 48.169 30.2898 47.9803 30.2395C47.5525 30.1263 47.1247 30.0382 46.6969 29.925C46.5459 29.8873 46.4075 29.7614 46.4579 29.5728C46.5082 29.3841 46.6592 29.3463 46.8353 29.3841C46.9486 29.3966 47.0744 29.4595 47.1876 29.4595C47.628 29.4721 48.1061 29.925 48.5214 29.4344C48.7982 29.1073 48.8233 27.5223 48.5969 27.17C48.5339 27.0694 48.383 26.9813 48.383 26.8933C48.4207 25.9498 47.9803 25.2705 47.2757 24.717C47.1625 24.6289 47.1499 24.4025 47.3009 24.2893C47.4519 24.1886 47.6028 24.2767 47.7035 24.4025C48.2445 25.1321 48.8359 25.2579 49.6538 24.7422C50.069 24.478 50.6352 24.4276 51.1385 24.3144C51.5663 24.2138 51.7424 24.0251 51.6292 23.5596C51.4908 23.0187 51.4153 22.4652 51.3398 21.9117C51.3146 21.7608 51.3398 21.5846 51.5537 21.5469C51.7676 21.5217 51.8305 21.6853 51.8557 21.8362C51.9563 22.3017 52.0192 22.7797 52.1325 23.2452C52.2457 23.7232 52.3715 24.1635 53.051 24.1006C53.7179 24.0377 53.7808 23.6603 53.8059 23.1194C53.8185 22.6287 53.6801 22.0878 54.1205 21.6979C54.4728 21.8111 54.4602 22.0752 54.435 22.3017C54.2589 23.4464 54.5231 24.4151 55.6052 25.0944C55.9198 24.7296 55.6555 24.0251 56.2721 23.6854C56.4734 24.2138 56.2972 24.6792 56.3098 25.1321C56.3224 25.5347 56.2847 25.9372 56.335 26.3272C56.3727 26.6543 56.637 26.7675 56.9389 26.7927C57.2661 26.8178 57.3038 26.5788 57.3667 26.3398C57.4926 25.824 57.4422 25.2453 57.8826 24.7422C58.2098 25.1573 58.0587 25.5095 58.021 25.8366C57.8952 26.9688 57.9204 27.0317 58.5117 27.1575C59.4428 27.3462 59.2289 26.5285 59.4554 26.1008C59.5435 25.9372 59.5057 25.6982 59.858 25.6227C60.1348 26.0127 59.9084 26.4152 59.8203 26.8052C59.7196 27.2329 59.8832 27.4719 60.2858 27.6229C60.6885 27.7739 61.0282 27.9122 61.3428 27.4719C61.5189 27.2204 61.5692 26.8555 61.997 26.7549C62.2864 27.1197 61.9844 27.409 61.8335 27.6858C61.6447 28.0506 61.6321 28.34 61.9593 28.6419C62.3116 28.9689 62.601 29.0822 62.9281 28.6041C63.0791 28.3903 63.0917 28.038 63.4566 28.0129C63.7585 28.2519 63.6453 28.5538 63.4817 28.7425C62.7897 29.5225 63.2301 30.1011 63.7334 30.6798C64.2744 30.554 64.2618 29.8118 64.9035 29.8243C65.0419 30.3275 64.6645 30.6295 64.4254 30.9691C63.8089 31.8371 64.1486 32.7428 64.3248 33.6234C64.4254 34.1392 65.0923 33.6863 65.3439 34.0763C65.4068 34.265 65.2684 34.3656 65.13 34.4159C64.7903 34.5417 64.3122 34.4285 64.3373 35.0701C64.3751 35.8374 64.589 36.24 65.1929 36.4664C65.734 36.6677 66.3631 36.6803 66.8664 37.2338C66.1492 37.5232 65.6333 36.9822 64.9664 37.0954C65.0293 37.9383 65.2307 38.6805 66.124 39.0579C66.5644 39.2466 66.9796 39.4981 67.3948 39.7246C67.4955 39.7875 67.5836 39.8755 67.5584 40.0139C67.5081 40.2152 67.3445 40.2404 67.1935 40.2026C66.8538 40.1146 66.5141 39.9888 65.973 39.8127C66.3505 41.0203 66.3379 42.2154 67.4577 42.9073C67.5584 42.9701 67.6465 43.0456 67.7345 43.1337ZM63.6076 44.4546C65.1929 44.5426 66.1492 42.9827 65.5452 41.3977C65.1174 40.2781 64.6896 39.1585 64.287 38.0389C64.0731 37.4602 63.985 36.8312 63.5195 36.3281C63.3936 36.8187 62.689 37.4225 63.7711 37.6741C64.0731 37.7496 64.1234 38.0892 64.1234 38.3786C64.1234 38.7811 64.1108 39.1711 64.0857 39.5736C64.0353 40.1397 63.9473 40.6681 64.6519 40.9574C64.9413 41.0706 65.0042 41.4732 65.0168 41.8002C65.0671 42.6053 64.7903 43.2721 64.1612 43.8004C63.9473 43.9765 63.5572 44.0394 63.6076 44.4546ZM63.9976 42.8066C64.3122 42.6305 64.3373 42.2908 64.3248 41.9638C64.2996 41.6115 64.0354 41.6619 63.7963 41.6619C63.293 41.6493 63.3685 41.1964 63.1923 40.8442C62.8275 41.6116 62.3619 42.2405 61.7328 42.7437C61.5441 42.8947 61.3427 43.0582 61.5441 43.3224C61.7328 43.5614 61.9467 43.8759 62.3242 43.6998C62.8904 43.423 63.4566 43.1211 63.9976 42.8066ZM63.293 39.7875C63.5195 39.3094 63.5824 38.9447 63.3936 38.5169C62.6513 38.9195 62.991 39.2969 63.293 39.7875ZM62.3871 34.7304C63.3307 34.2776 63.4691 33.6109 63.3685 32.7303C63.1798 31.422 62.6639 30.3527 61.7202 29.4595C61.7202 29.447 61.7202 29.4344 61.7076 29.4218C61.695 29.4218 61.6699 29.4092 61.6573 29.4092C61.0659 28.9186 60.4997 28.3651 59.4931 28.3525C60.2732 28.8431 60.2732 28.8431 60.6004 29.7363C60.9653 29.686 61.2547 29.3589 61.6573 29.4092C61.6699 29.4218 61.6699 29.4218 61.6825 29.4344C61.6951 29.447 61.7076 29.4595 61.7202 29.4595C61.846 30.1514 61.6447 30.8307 61.5944 31.5352C62.6639 31.2207 62.8149 31.3465 62.752 32.29C62.6891 33.0951 62.3619 33.8624 62.3871 34.7304ZM62.2361 38.0515C62.4626 37.2212 62.6639 36.5168 62.8778 35.7494C61.6196 36.2023 61.456 36.0891 61.6196 34.9066C61.7076 34.1644 61.8712 33.4222 62.0348 32.4787C61.4812 32.8183 60.9401 32.8561 60.9778 33.5228C61.0282 34.504 60.9778 35.5104 61.1917 36.479C61.3301 37.0829 61.5189 37.6615 62.2361 38.0515ZM62.3997 40.2152C62.4248 39.6994 62.1228 39.2843 61.7328 38.9195C60.5249 37.7747 60.009 36.3784 60.1348 34.7304C60.16 34.4159 60.1223 34.0889 60.1097 33.7744C59.9713 31.6736 58.8766 30.2143 57.027 29.3086C56.0204 28.818 55.0138 28.3651 54.0827 27.7361C53.8311 27.56 53.5291 27.4216 53.2272 27.3462C52.5225 27.17 52.2583 27.3713 52.3338 28.1261C52.4345 29.1828 52.3212 30.1766 51.9941 31.183C51.604 32.3529 51.604 33.5102 52.2709 34.6298C52.5477 35.0952 52.749 35.6488 52.8371 36.1897C53.0636 37.6993 53.9192 38.7182 55.19 39.4604C55.7059 39.7623 56.2217 40.0517 56.7754 40.2907C57.5429 40.6303 58.2349 41.0454 58.7885 41.7373C59.3422 42.4418 60.1977 42.6053 60.9401 42.316C61.6195 42.0141 62.3871 40.97 62.3997 40.2152ZM61.1666 44.593C61.3679 44.4797 61.4686 44.3288 61.305 44.1275C61.1414 43.9262 60.9024 43.8004 60.701 44.0394C60.4494 44.3162 60.2481 44.6684 60.0216 44.9829C60.0594 45.0332 60.0845 45.0835 60.1222 45.1339C60.4745 44.9577 60.8269 44.7691 61.1666 44.593ZM60.6255 31.7113C60.9275 31.661 60.8772 31.3591 60.9149 31.1452C60.9149 31.0068 60.8772 30.8685 60.7262 30.9062C60.4871 30.9691 60.2732 31.0949 60.3236 31.3968C60.3487 31.5603 60.4745 31.7365 60.6255 31.7113ZM59.556 44.2281C59.8958 43.9514 60.1978 43.7249 60.009 43.3224C59.9335 43.1714 59.619 43.0834 59.4806 43.1966C59.1534 43.4859 59.2918 43.8256 59.556 44.2281ZM59.6945 29.8998C59.7196 29.7866 59.6819 29.6608 59.5057 29.7237C59.3925 29.7866 59.317 29.8998 59.3673 30.0005C59.4051 30.0885 59.5309 30.1389 59.6064 30.2143C59.6441 30.1137 59.6945 30.0005 59.6945 29.8998ZM59.0779 45.4861C59.2918 45.2471 59.0528 45.0584 58.9521 44.8571C58.8515 44.681 58.7382 44.4797 58.625 44.2785C57.5806 44.92 57.5806 44.92 57.0396 43.7878C57.027 43.7501 57.027 43.7124 57.0019 43.6746C56.9264 43.5237 56.8131 43.4356 56.6369 43.5362C56.486 43.6243 56.3853 43.813 56.5111 43.9262C57.1151 44.4797 57.6184 45.1716 58.323 45.5993C58.5621 45.7503 58.8766 45.7251 59.0779 45.4861ZM57.8197 43.6117C58.4237 42.5676 58.4236 42.5676 57.6687 41.8506C57.568 42.467 57.5303 43.0079 57.8197 43.6117ZM56.0456 42.9827C56.5866 42.4921 56.5866 41.7625 57.0899 41.3096C56.6495 41.0329 56.2846 40.7561 55.731 40.8316C55.731 41.5486 55.58 42.2531 56.0456 42.9827ZM55.0893 43.1211C55.1522 42.7689 55.1648 42.5047 54.9132 42.2657C54.6112 42.3915 54.2967 42.5173 53.9821 42.6305C53.9695 42.6305 53.9695 42.6305 53.9569 42.6305C53.6549 42.1022 53.7682 41.4983 53.6424 40.9322C52.4596 41.209 52.447 41.1838 52.296 39.5359C51.7802 40.0517 51.5411 40.8819 50.6478 40.7184C50.6478 40.7058 50.6478 40.6932 50.6478 40.6932C50.6352 40.6932 50.6352 40.6932 50.6226 40.6932C50.7233 39.5611 50.2577 38.454 50.4339 37.3219C50.459 37.1583 50.4213 36.9948 50.2703 36.9067C49.6915 36.5545 49.8928 36.001 49.9306 35.4978C49.9809 34.9695 50.2703 34.4285 49.6034 34.026C49.3266 33.8625 49.4273 33.4347 49.4525 33.1202C49.4776 32.8435 49.6412 32.4535 49.5279 32.3151C48.8107 31.4597 49.3518 30.6672 49.5657 29.8495C49.6412 29.5853 49.8299 29.296 49.4021 28.8683C49.1379 30.2143 48.8233 31.3842 49.0372 32.5919C49.1756 33.3844 49.1756 34.1644 49.0876 34.9695C48.8988 36.6677 49.1756 38.3031 49.9054 39.8504C50.069 40.19 50.1445 40.6303 50.6226 40.6932C50.6226 40.7058 50.6226 40.7058 50.6226 40.7184C50.6352 40.7184 50.6478 40.7184 50.6478 40.7184C50.6855 41.2342 50.9623 41.5612 51.4153 41.8002C52.2206 42.2154 53.0258 42.6053 53.9569 42.6305C53.9569 42.6305 53.9569 42.6431 53.9695 42.6431C53.9821 42.6431 53.9821 42.6431 53.9821 42.6305C54.2967 42.9198 54.6489 43.1085 55.0893 43.1211ZM54.8754 27.2707C55.0012 27.321 55.1019 27.2455 55.0893 27.1071C55.0767 26.8681 55.0768 26.6291 54.8251 26.5285C54.6615 26.5536 54.5231 26.6543 54.4854 26.8052C54.4099 27.1071 54.6741 27.1826 54.8754 27.2707ZM54.5735 40.8819C54.7119 40.6555 55.19 40.5926 54.888 40.1775C54.8125 40.0768 54.6741 40.0139 54.5735 40.0894C54.3344 40.2907 54.3721 40.5549 54.5735 40.8819ZM54.0702 26.214C54.347 26.0001 54.7496 25.8492 54.6112 25.346C54.5106 24.9812 54.1834 24.9057 53.8437 24.8931C52.6861 24.8428 51.5411 24.9812 50.4213 25.2705C50.2703 25.3082 50.0186 25.346 50.0941 25.6479C50.1822 26.0504 49.918 26.6291 50.5723 26.8556C50.6352 26.8052 50.7233 26.7675 50.7484 26.7046C51.1762 25.5598 52.2835 25.5095 53.2146 25.195C53.4285 25.1195 53.5794 25.2328 53.7053 25.434C53.8437 25.6605 53.6927 26.0127 54.0702 26.214ZM53.6046 39.3472C53.5795 39.2088 53.5165 39.0956 53.3781 39.1082C53.1894 39.1208 53.1517 39.2969 53.1265 39.4478C53.1139 39.561 53.1013 39.7246 53.2272 39.7246C53.4536 39.7372 53.5291 39.5359 53.6046 39.3472ZM52.7364 26.4907C52.9252 26.4781 53.2146 26.5033 53.1517 26.214C53.0887 25.9372 52.8497 26.0756 52.6735 26.1385C52.4974 26.214 52.3212 26.302 51.9312 26.4907C52.359 26.4907 52.5477 26.5033 52.7364 26.4907ZM51.6418 38.8314C52.6484 37.9634 52.6735 37.8879 52.0822 37.0577C51.9186 37.6741 51.5537 38.1647 51.6418 38.8314ZM50.2703 32.7177C51.4153 31.2584 51.7802 30.3024 51.6292 29.296C50.8742 30.3275 50.4716 31.4597 50.2703 32.7177ZM50.9749 28.2645C51.5411 27.8493 51.5411 27.8493 51.5915 27.3084C51.1511 27.7361 51.1511 27.7361 50.9749 28.2645ZM50.7736 35.0827C51.1888 34.7682 51.3775 34.5417 51.3146 34.1895C51.2895 34.0637 51.214 33.9757 51.0504 34.0134C50.8365 34.2524 50.7988 34.5543 50.7736 35.0827Z" fill="black"/>
<path d="M66.2022 35.8328C65.4784 35.9531 65.031 35.9932 64.6494 35.432C65.2284 35.2315 65.6363 35.285 66.2022 35.8328Z" fill="#13751E"/>
<path d="M65.4391 41.3786C66.0367 42.9679 65.0905 44.532 63.5218 44.4437C63.472 44.0274 63.8579 43.9644 64.0696 43.7878C64.6921 43.258 64.966 42.5895 64.9162 41.7822C64.9037 41.4543 64.8414 41.0506 64.5551 40.9371C63.8579 40.647 63.945 40.1172 63.9948 39.5496C64.0197 39.146 64.0322 38.755 64.0322 38.3514C64.0322 38.0612 63.9824 37.7207 63.6836 37.645C62.6129 37.3927 63.3101 36.7873 63.4346 36.2953C63.8952 36.7999 63.9824 37.4306 64.1941 38.0108C64.5925 39.1334 65.0158 40.256 65.4391 41.3786Z" fill="white"/>
<path d="M65.6199 31.4432C65.2386 31.9875 65.0307 32.3419 64.6494 32.6077C64.6841 31.747 64.6841 31.747 65.6199 31.4432Z" fill="#13751E"/>
<path d="M62.3884 55.3545C63.1423 55.2541 63.7705 54.7397 64.6501 54.8903C63.871 55.2917 63.1297 55.7434 62.3507 56.0947C59.3101 57.387 56.1815 57.9516 52.9523 56.9103C51.5954 56.4711 50.3263 55.7685 49.1201 54.9906C46.3056 53.1839 43.5414 51.3019 40.9782 49.1439C39.5333 47.9269 38.2517 46.5969 37.3345 44.9282C36.8319 44.0249 36.0278 43.2972 35.9021 42.2056C35.8142 41.4654 35.6006 40.7251 35.5629 39.9723C35.5001 38.6298 35.5503 37.2874 35.6885 35.9072C35.8644 36.3213 36.0529 36.7478 36.2162 37.1744C36.7691 38.6298 37.3596 40.0602 38.1135 41.4277C38.4276 42.0174 38.7166 42.6573 39.1438 43.1717C41.3929 45.9069 43.6796 48.5919 46.3433 50.9632C47.8385 52.3057 49.4971 53.209 51.4697 53.5854C52.01 53.6858 52.5252 53.9493 53.0277 54.1751C56.0307 55.5552 59.1719 55.7434 62.3884 55.3545Z" fill="#8D780E"/>
<path d="M64.2585 42.0748C64.2713 42.4024 64.2457 42.7425 63.9263 42.9189C63.3768 43.2339 62.8018 43.5363 62.2268 43.8135C61.8435 43.9899 61.6263 43.6749 61.4346 43.4355C61.2302 43.1709 61.4346 43.0071 61.6263 42.8559C62.2652 42.352 62.738 41.722 63.1085 40.9535C63.2874 41.3063 63.2107 41.7598 63.7218 41.7724C63.9646 41.7724 64.2329 41.722 64.2585 42.0748Z" fill="white"/>
<path d="M63.3695 38.6246C63.5663 39.0819 63.5007 39.472 63.2645 39.9832C62.9495 39.4586 62.5951 39.055 63.3695 38.6246Z" fill="white"/>
<path d="M63.2638 32.7539C63.3614 33.6295 63.2272 34.2923 62.3124 34.7426C62.288 33.8796 62.6051 33.1167 62.6661 32.3162C62.7271 31.3782 62.5807 31.2531 61.5439 31.5658C61.5927 30.8654 61.7757 30.19 61.6659 29.5021C62.5807 30.3901 63.0808 31.4532 63.2638 32.7539Z" fill="white"/>
<path d="M62.9028 35.9111C62.6845 36.6862 62.4791 37.3977 62.2479 38.2363C61.516 37.8424 61.3234 37.2579 61.1821 36.6481C60.9638 35.6697 61.0152 34.6533 60.9638 33.6622C60.9253 32.9888 61.4775 32.9507 62.0425 32.6076C61.8756 33.5605 61.7086 34.3102 61.6187 35.0598C61.4518 36.2542 61.6187 36.3685 62.9028 35.9111Z" fill="white"/>
<path d="M61.6521 38.9801C62.0422 39.3443 62.3443 39.7588 62.3191 40.2736C62.3066 41.0271 61.5388 42.0694 60.8591 42.3708C60.1166 42.6597 59.2607 42.4964 58.7069 41.7931C58.1531 41.1025 57.4609 40.688 56.6931 40.349C56.1394 40.1104 55.6233 39.8215 55.1073 39.5202C53.8361 38.7792 52.9802 37.762 52.7537 36.2551C52.6656 35.7151 52.4642 35.1625 52.1873 34.6978C51.5202 33.5802 51.5202 32.4248 51.9104 31.2569C52.2376 30.2523 52.3509 29.2602 52.2502 28.2053C52.1747 27.4518 52.439 27.2509 53.1439 27.4267C53.4459 27.5021 53.748 27.6402 53.9997 27.816C54.9311 28.4439 55.938 28.896 56.9449 29.3858C58.795 30.29 59.89 31.7467 60.0285 33.8439C60.0411 34.1579 60.0788 34.4844 60.0536 34.7983C59.9278 36.4434 60.4438 37.8374 61.6521 38.9801Z" fill="#13751E"/>
<path d="M61.6068 29.5524C61.5942 29.5398 61.5816 29.5272 61.5691 29.5272C61.5565 29.5147 61.5565 29.5146 61.5439 29.5021C61.5565 29.5021 61.5816 29.5021 61.5942 29.5147C61.6068 29.5272 61.6068 29.5398 61.6068 29.5524Z" fill="#13751E"/>
<path d="M61.5568 29.453C61.1549 29.4027 60.866 29.7294 60.5018 29.7797C60.1752 28.8876 60.1752 28.8876 59.3965 28.3976C60.4013 28.4101 60.9665 28.963 61.5568 29.453Z" fill="white"/>
<path d="M61.2059 44.1536C61.3692 44.3546 61.2687 44.5054 61.0677 44.6185C60.7286 44.7944 60.3769 44.9828 60.0253 45.1587C59.9876 45.1085 59.9625 45.0582 59.9248 45.008C60.1509 44.6939 60.3518 44.342 60.603 44.0656C60.804 43.8269 61.0426 43.9525 61.2059 44.1536Z" fill="white"/>
<path d="M60.8165 31.1869C60.7788 31.4005 60.829 31.7021 60.5276 31.7523C60.3769 31.7774 60.2513 31.6015 60.2261 31.4382C60.1759 31.1366 60.3894 31.011 60.6281 30.9482C60.7788 30.9105 60.8165 31.0487 60.8165 31.1869Z" fill="white"/>
<path d="M59.9116 43.3494C60.1 43.7515 59.7985 43.9776 59.4594 44.2541C59.1956 43.852 59.0575 43.5127 59.3841 43.2238C59.5222 43.1107 59.8362 43.1986 59.9116 43.3494Z" fill="white"/>
<path d="M59.41 29.767C59.5859 29.7042 59.6236 29.8299 59.5984 29.943C59.5984 30.0435 59.5482 30.1566 59.5105 30.2571C59.4351 30.1817 59.3094 30.1314 59.2717 30.0435C59.2215 29.943 59.2969 29.8299 59.41 29.767Z" fill="white"/>
<path d="M58.8568 44.8823C58.9573 45.0834 59.196 45.2718 58.9824 45.5106C58.7815 45.7493 58.4675 45.7744 58.2288 45.6237C57.5255 45.1965 57.0231 44.5054 56.4202 43.9526C56.2946 43.8395 56.3951 43.651 56.5458 43.5631C56.7216 43.4625 56.8347 43.5505 56.91 43.7013C56.9352 43.739 56.9351 43.7767 56.9477 43.8143C57.4878 44.9452 57.4878 44.9452 58.5303 44.3044C58.6433 44.5054 58.7564 44.7064 58.8568 44.8823Z" fill="white"/>
<path d="M57.5758 41.8794C58.3294 42.5956 58.3294 42.5956 57.7265 43.6384C57.4376 43.0353 57.4753 42.4951 57.5758 41.8794Z" fill="white"/>
<path d="M56.998 41.3391C56.4956 41.7914 56.4956 42.5202 55.9555 43.0102C55.4908 42.2815 55.6415 41.5778 55.6415 40.8616C56.1941 40.7863 56.5584 41.0627 56.998 41.3391Z" fill="white"/>
<path d="M54.8249 42.2941C55.0761 42.5329 55.0636 42.7967 55.0008 43.1485C54.5612 43.1359 54.2095 42.9475 53.8955 42.6585C54.2095 42.5328 54.5109 42.4198 54.8249 42.2941Z" fill="white"/>
<path d="M55.0008 27.1538C55.0134 27.292 54.9129 27.3674 54.7873 27.3171C54.5863 27.2292 54.3226 27.1538 54.3979 26.8522C54.4356 26.7014 54.5738 26.6009 54.7371 26.5758C54.9883 26.6763 54.9882 26.9151 55.0008 27.1538Z" fill="white"/>
<path d="M54.8004 40.2085C55.1019 40.6231 54.6246 40.686 54.4864 40.9121C54.2855 40.5854 54.2478 40.3216 54.4864 40.1205C54.5869 40.0452 54.7251 40.108 54.8004 40.2085Z" fill="white"/>
<path d="M54.5238 25.3945C54.662 25.8971 54.2601 26.0478 53.9837 26.2614C53.6069 26.0604 53.7576 25.7086 53.6195 25.4824C53.4939 25.2814 53.3432 25.1683 53.1297 25.2437C52.2002 25.5578 51.0949 25.6081 50.6679 26.7514C50.6428 26.8143 50.5549 26.852 50.4921 26.9022C49.8389 26.6761 50.1027 26.0981 50.0148 25.696C49.9394 25.3945 50.1906 25.3568 50.3413 25.3191C51.4592 25.0301 52.6021 24.8919 53.7577 24.9421C54.0968 24.9547 54.4233 25.0301 54.5238 25.3945Z" fill="white"/>
<path d="M54.3474 44.2667C54.5358 45.0332 54.4605 45.7493 54.046 46.4278C53.8325 45.6614 53.8073 44.9201 54.3474 44.2667Z" fill="#13751E"/>
<path d="M53.8953 42.6584C53.8953 42.6584 53.8827 42.6585 53.8827 42.671C53.8827 42.671 53.8827 42.6584 53.8701 42.6584C53.8827 42.6584 53.8827 42.6584 53.8953 42.6584Z" fill="#13751E"/>
<path d="M53.5566 40.9621C53.6822 41.5275 53.5692 42.1306 53.8706 42.6584C52.9412 42.6332 52.1248 42.2437 51.3335 41.8291C50.8939 41.5903 50.6051 41.2637 50.5674 40.7485C51.4591 40.8993 51.6978 40.07 52.2127 39.5674C52.3634 41.2134 52.376 41.2386 53.5566 40.9621Z" fill="white"/>
<path d="M53.293 39.1404C53.4311 39.1279 53.4939 39.2409 53.519 39.3791C53.4437 39.5676 53.3683 39.7686 53.1422 39.7561C53.0166 39.7561 53.0292 39.5927 53.0418 39.4797C53.0669 39.3289 53.1046 39.153 53.293 39.1404Z" fill="white"/>
<path d="M53.066 26.2615C53.1288 26.5505 52.8399 26.5253 52.6515 26.5379C52.4631 26.5505 52.2747 26.5379 51.8477 26.5379C52.237 26.3494 52.4128 26.2615 52.5887 26.1861C52.7645 26.1233 53.0032 25.9851 53.066 26.2615Z" fill="white"/>
<path d="M51.999 37.0924C52.5893 37.9217 52.5642 37.9971 51.5594 38.864C51.4715 38.1981 51.8357 37.7081 51.999 37.0924Z" fill="white"/>
<path d="M51.5469 29.3398C51.6976 30.345 51.3334 31.2999 50.1904 32.7574C50.3914 31.501 50.7933 30.3701 51.5469 29.3398Z" fill="white"/>
<path d="M51.509 27.3546C51.4588 27.8948 51.4588 27.8948 50.8936 28.3095C51.0694 27.7818 51.0694 27.7818 51.509 27.3546Z" fill="white"/>
<path d="M51.2324 34.2275C51.2952 34.5793 51.1069 34.8055 50.6924 35.1196C50.7175 34.5919 50.7552 34.2903 50.9687 34.0516C51.132 34.0139 51.2073 34.1018 51.2324 34.2275Z" fill="white"/>
<path d="M51.0316 9.52542C51.4963 9.80185 51.4586 10.1034 51.0818 10.4678C49.4113 12.0635 48.1428 13.9356 47.2887 16.0716C47.1757 16.348 46.9998 16.5113 46.7109 16.6119C46.1081 16.8129 45.5177 17.1396 44.9023 17.2275C42.9555 17.5165 41.687 18.8609 40.3305 20.0797C40.0039 20.3687 39.7401 20.7205 39.4638 21.0221C39.0493 20.9844 38.9991 20.6702 38.8986 20.4315C38.3962 19.2756 37.4542 18.4589 36.7006 17.4914C36.6127 17.3657 36.4745 17.2401 36.3364 17.1898C34.691 16.5993 33.5481 15.2297 32.0409 14.4382C30.8602 13.8099 29.6419 13.3576 28.2854 13.433C25.4217 13.5963 22.558 13.7974 19.7195 14.1869C18.8528 14.3125 17.9736 14.3125 17.107 14.4507C13.879 14.991 11.1535 16.549 8.69175 18.6599C7.17199 19.9666 5.82806 21.4241 4.57206 22.9696C4.39622 23.1706 4.15758 23.334 3.94406 23.5099V23.5224H3.91895C4.35855 20.8587 4.60975 18.1322 5.71503 15.6444C7.20968 11.9504 9.37001 8.75897 12.8491 6.62298C13.7283 6.08271 14.595 5.4796 15.3611 4.80111C17.0442 3.29336 19.0538 2.52693 21.189 1.92383C23.5377 1.2579 25.9367 0.830699 28.3733 0.880958C30.3578 0.918652 32.3423 1.00659 34.3393 0.868381C35.5953 0.780429 36.776 1.24534 37.9064 1.73536C39.8406 2.57719 41.8377 3.29337 43.7091 4.24828C45.9322 5.3791 48.1428 6.623 49.8761 8.49513C50.2278 8.87207 50.5794 9.249 51.0316 9.52542Z" fill="#8D780E"/>
<path d="M50.5671 40.7236C50.5671 40.7361 50.5671 40.7487 50.5671 40.7487C50.5546 40.7487 50.5546 40.7487 50.542 40.7487C50.542 40.7361 50.542 40.7236 50.542 40.7236C50.5546 40.7236 50.5546 40.7236 50.5671 40.7236Z" fill="#13751E"/>
<path d="M50.3535 37.3561C50.1776 38.487 50.6423 39.5926 50.5419 40.7235C50.0646 40.6606 49.9892 40.2209 49.8259 39.8816C49.0975 38.3362 48.8211 36.7028 49.0095 35.0066C49.0975 34.2024 49.0975 33.4234 48.9593 32.6318C48.7458 31.4256 49.0598 30.2571 49.3235 28.9127C49.7506 29.3399 49.5622 29.6289 49.4868 29.8927C49.2733 30.7094 48.7332 31.501 49.4491 32.3554C49.5622 32.4936 49.3989 32.8831 49.3738 33.1595C49.3487 33.4737 49.2482 33.9009 49.5245 34.0642C50.1902 34.4663 49.9013 35.0066 49.8511 35.5343C49.8134 36.0369 49.6124 36.5897 50.1902 36.9415C50.3409 37.0295 50.3786 37.1928 50.3535 37.3561Z" fill="white"/>
<path d="M49.751 22.1906C49.7385 22.7811 50.0399 23.3717 49.8012 24.2009C49.2109 23.5224 49.236 22.8691 49.1607 22.266C49.1356 22.0649 49.2486 21.8639 49.4747 21.8639C49.638 21.8639 49.751 22.0147 49.751 22.1906Z" fill="#13751E"/>
<path d="M46.0957 26.9275C47.0377 27.0029 47.5276 27.5055 47.8918 28.1588C46.9247 27.8698 46.8493 27.8196 46.0957 26.9275Z" fill="#13751E"/>
<path d="M47.7286 34.529C46.5605 34.6044 46.3344 34.5415 45.5557 34.0013C46.3721 33.7751 46.9624 34.0013 47.7286 34.529Z" fill="#13751E"/>
<path d="M15.6256 30.2319C15.2236 30.6591 14.8092 31.0737 14.4324 31.5261C14.1309 31.8904 13.8295 31.9658 13.4024 31.7397C13.0508 31.5638 12.674 31.2748 12.159 31.5638C12.3977 32.0035 12.8624 31.9658 13.1638 32.192C13.3899 32.3553 13.6913 32.4936 13.5155 32.8328C12.8624 34.0516 12.7744 35.4839 12.0585 36.665C12.046 36.665 12.0334 36.665 12.0208 36.665C11.418 35.9488 10.9909 35.9237 10.2122 36.665C10.8904 36.665 11.4556 36.665 12.0208 36.665C12.0334 36.6776 12.0334 36.6776 12.046 36.6901C12.046 36.6776 12.0585 36.6776 12.0711 36.665C12.0711 36.6776 12.0585 36.6776 12.0585 36.6776C12.0585 36.6776 12.0585 36.6776 12.0585 36.665V36.6776C12.0585 36.6776 12.0585 36.6776 12.0585 36.665C11.8073 37.9717 11.8073 37.9717 10.5136 38.1351C10.1745 38.1728 9.81029 38.1602 9.52141 38.5497C10.2248 39.0272 11.4557 38.022 11.6943 39.4166C11.4557 39.869 10.6644 39.6177 10.5387 40.2836C11.0412 40.5475 11.5059 39.8815 11.8952 40.2082C12.2469 40.5098 12.4479 40.9747 12.7116 41.3642C12.7619 41.427 12.8121 41.4898 12.8624 41.5526C13.6285 42.4447 13.5657 42.2437 12.9503 43.2614C12.7619 43.563 12.5484 43.8645 12.3851 44.1787C12.2721 44.3797 12.159 44.6058 12.5107 44.8446C13.0257 44.4551 13.1136 43.7766 13.4904 43.2866C13.9174 42.7337 14.0681 42.7211 14.6584 43.0981C15.0729 43.3619 14.9724 43.676 14.872 44.0279C14.7212 44.543 14.3696 45.0205 14.5328 45.699C15.1357 45.41 15.0729 44.8194 15.299 44.4048C15.5125 44.0027 15.5 43.4499 16.128 43.3494C16.869 43.2363 17.61 43.0604 18.326 43.5001C18.6023 43.6761 18.7153 43.8896 18.5018 44.1912C18.1501 44.6812 17.8864 45.2215 17.3588 45.699C17.0448 45.1587 17.3714 44.6812 17.4091 44.2163C17.4217 43.965 17.4342 43.7012 17.1076 43.6886C16.869 43.6761 16.8062 43.9022 16.7811 44.1033C16.6932 44.6938 16.6178 45.2843 16.555 45.8749C16.5299 46.1513 16.5801 46.4529 16.8941 46.5659C17.183 46.6664 17.4593 46.5408 17.6477 46.3272C18.0371 45.8874 18.4013 45.4351 18.7656 44.9954C19.1675 45.2466 18.8033 45.7618 19.3182 45.9628C19.6071 45.6613 19.6071 45.2592 19.6573 44.8948C19.7327 44.4676 19.9211 44.2666 20.3733 44.2791C20.8631 44.2917 21.0892 44.5053 21.1269 44.9954C21.1645 45.611 21.0264 46.2518 21.4785 47.0434C21.7046 46.3397 21.5665 45.7995 21.5665 45.2969C21.579 44.0781 21.579 44.053 22.6089 43.7766C22.9104 43.6886 23.1993 43.5504 23.4379 43.4499C23.8147 43.5253 23.777 43.8143 23.8775 44.0153C23.9654 44.1912 24.0031 44.3797 24.1664 44.4425C24.3799 44.4174 24.4804 44.2917 24.4301 44.1912C23.9654 43.0729 24.5557 42.4322 25.4349 41.917H25.4475L25.4098 41.9924C25.4224 41.9673 25.4475 41.9547 25.4601 41.9296C25.548 42.5704 25.661 43.1986 26.3393 43.5504C26.2639 42.8971 26.2765 42.1934 25.4726 41.9296C26.2388 41.1003 27.1431 40.4344 28.0977 39.8313C28.5498 39.5549 28.9015 39.58 29.115 40.158C29.2783 40.5977 29.5295 41.0124 29.7682 41.427C29.8812 41.6155 29.9942 41.8668 30.3962 41.6909C30.2957 40.8742 29.6174 40.2585 29.4542 39.5046C29.63 39.2407 29.8812 39.203 30.0947 39.1025C31.1372 38.6376 31.1372 38.6251 31.9536 39.3664C32.0415 39.4418 32.1546 39.492 32.255 39.5423C32.2927 39.5549 32.343 39.5297 32.4435 39.5172C32.6319 39.09 32.2425 38.8261 32.0666 38.5246C31.9285 38.2858 31.7903 38.1225 31.9787 37.7958C32.8705 36.2378 33.5236 34.5667 34.6289 32.9333C34.8047 33.7123 34.6414 34.3908 34.6666 35.0567C34.6917 35.7729 34.7419 36.4891 34.6917 37.243C34.2898 37.3058 34.2521 36.6524 33.8251 36.7907C33.6743 37.1676 33.9632 37.444 34.1767 37.5822C34.7545 37.9466 34.6917 38.4869 34.7419 39.0397C34.9178 41.0124 35.0183 43.0227 35.8095 44.8823C35.9603 45.2341 35.8974 45.4854 35.6965 45.7618C35.3699 46.2141 34.9931 46.6287 34.5535 46.9805C31.1749 49.6694 27.5325 51.7928 23.1993 52.5592C22.0312 52.7603 20.9008 52.6221 19.7578 52.509C17.2584 52.2577 14.7589 52.0441 12.2972 51.529C9.83539 51.0264 7.85093 49.9332 6.41909 47.7972C5.40173 46.2769 4.07036 44.9953 3.21628 43.3494C2.93996 42.8091 2.67619 42.3065 2.70131 41.6783C2.73899 40.7108 2.58828 39.7685 2.39988 38.8261C2.18636 37.7456 2.18635 36.665 2.57571 35.6347C3.66843 32.7323 4.7109 29.7922 6.33114 27.1159C8.50403 23.5224 11.5059 20.7708 15.0855 18.6348C15.5628 18.3584 16.0652 18.0819 16.5927 17.9311C19.5066 17.0893 22.4205 16.3103 25.4978 16.2852C28.1479 16.2601 30.7604 16.3103 33.3227 17.0516C34.3149 17.328 35.169 17.7427 35.9603 18.3835C36.538 18.8609 36.9902 19.4515 37.6559 19.8535C38.1331 20.1425 38.4094 20.7833 38.5476 21.3739C38.6104 21.6754 38.623 21.9895 38.3969 22.2785C37.0027 24.025 36.3119 26.0981 35.6839 28.1964C35.6211 28.4226 35.5458 28.6488 35.4704 28.8749C35.4578 28.9378 35.3825 28.988 35.3323 29.0383C34.2772 28.4603 34.227 28.3472 34.4907 27.2918C34.5661 26.9651 34.8298 26.651 34.6038 26.2238C33.9632 26.3494 34.139 27.1033 33.712 27.3923C33.0966 27.0908 32.8077 26.6636 33.1343 25.96C33.285 25.6584 33.4608 25.3317 33.2724 24.9422C32.883 25.1055 32.9082 25.495 32.7449 25.7463C32.6067 25.9599 32.4811 26.161 32.1922 25.9725C31.9536 25.8092 31.6898 25.6709 31.8657 25.3066C32.0666 24.9171 32.2676 24.5276 32.4435 24.1255C32.5942 23.7737 32.77 23.4093 32.4937 22.8565C32.1169 23.535 31.8154 24.1129 31.4889 24.6783C31.2251 25.1307 30.773 25.1558 30.459 24.7663C30.145 24.3768 30.371 23.2837 30.8734 23.1203C31.313 22.9821 31.2251 22.7183 31.1372 22.4795C30.999 22.09 30.7353 22.2157 30.459 22.3539C30.1826 22.4921 30.0194 22.6931 29.9817 22.9947C29.944 23.2334 29.9189 23.4722 29.8561 23.6983C29.7682 24.025 29.7807 24.5024 29.2406 24.3642C28.801 24.2637 28.2358 24.2763 28.261 23.5601C28.2735 23.1455 28.4242 22.6931 28.1102 22.3413C27.8214 22.3288 27.8339 22.5172 27.8088 22.6555C27.746 23.0701 27.9093 23.6355 27.4822 23.8616C26.9924 24.1255 26.3895 23.9622 25.8369 23.937C25.548 23.9245 25.4726 23.6983 25.4224 23.447C25.347 23.1078 25.435 22.7183 25.1335 22.4544C24.92 22.467 24.8321 22.6429 24.8697 22.7811C25.1084 23.7486 24.5683 24.2386 23.9152 24.8543C22.5461 26.1484 20.8003 26.5756 19.1424 27.229C18.866 27.342 18.6776 27.1913 18.5144 27.0028C18.125 26.5505 17.7482 26.0856 17.7482 25.4322C17.7482 25.2437 17.6226 25.1181 17.4468 25.1307C17.2207 25.1432 17.1076 25.3066 17.1076 25.5327C17.1076 26.1484 17.5724 26.5253 17.8864 26.9777C18.4641 27.8195 18.4516 27.9326 17.6603 28.5859C17.2709 28.9126 16.9444 28.8749 16.6429 28.5105C16.3038 28.1085 16.0024 27.6939 15.6758 27.2918C15.4749 27.0531 15.4497 26.6761 15.0855 26.563C14.7966 26.8395 15.0227 27.0782 15.1483 27.2918C15.3618 27.6813 15.6004 28.0457 15.8768 28.3849C16.7183 29.4655 16.7183 29.4529 15.6256 30.2319ZM28.3489 42.3316C28.2233 41.0123 28.2233 41.0124 27.432 40.9244C27.7083 41.3767 27.7585 41.8919 28.3489 42.3316ZM22.4833 25.1181C22.6592 24.515 22.5713 23.9496 22.408 23.3968C22.3829 23.2837 22.2824 23.1957 22.1442 23.2209C22.0061 23.2334 21.9307 23.3339 21.9307 23.4596C21.9558 24.0501 21.9935 24.6406 22.4833 25.1181ZM20.4361 26.1233C20.21 25.3191 20.0216 24.6155 19.8206 23.9245C19.3936 24.8794 19.6071 25.5579 20.4361 26.1233ZM15.6381 30.2068H15.6256C15.4246 29.2519 14.4952 28.9503 13.9676 28.297C13.8923 28.209 13.7165 28.2467 13.6662 28.3724C13.6285 28.4729 13.6411 28.6362 13.7039 28.699C14.2691 29.3021 14.7966 29.9429 15.6256 30.2193V30.2319C15.6256 30.2068 15.6381 30.2068 15.6381 30.2068ZM10.6769 34.8557C11.1542 35.1447 11.6315 35.2326 12.36 35.2201C11.5938 34.5165 11.4682 34.4913 10.6769 34.8557ZM10.7271 33.1092C11.33 33.2977 11.8827 33.6621 12.5735 33.4987C12.046 33.0213 11.4808 32.682 10.7271 33.1092ZM11.3803 42.3065C11.6441 41.917 11.7445 41.628 11.4682 41.2762C11.33 41.5903 11.1668 41.8919 11.3803 42.3065Z" fill="#4CAA56"/>
<path d="M33.4729 28.5233C34.2265 29.4908 34.6912 30.6216 34.1511 31.8906C34.0758 32.0665 34.0004 32.2424 33.812 32.3429C33.6864 31.6393 33.5734 30.9483 33.4352 30.2446C33.2468 29.2646 32.7444 28.4856 31.9155 27.9328C31.4508 27.6312 31.2749 27.1286 30.9483 26.7265C30.7725 26.5129 30.6469 26.2617 30.4459 26.0732C30.3831 26.0229 30.3078 25.9978 30.2324 25.9978L30.3455 25.7339C30.559 25.8596 30.7599 25.9978 30.9609 26.1611C31.8652 26.9024 32.7696 27.6186 33.4729 28.5233Z" fill="white"/>
<path d="M33.8124 32.3304V32.3429H33.7998C33.7998 32.3555 33.7998 32.3429 33.8124 32.3304C33.7998 32.3429 33.7998 32.3429 33.8124 32.3304Z" fill="#13751E"/>
<path d="M33.7991 32.3554C33.7865 32.6821 33.6358 32.9585 33.4976 33.2475C32.8696 34.4035 32.204 35.5343 31.6262 36.7028C31.1489 37.6703 30.3953 38.2105 29.3779 38.4744C29.1895 38.1351 29.3277 37.8587 29.6291 37.821C30.5335 37.6954 30.7093 36.9666 30.9228 36.3007C31.1238 35.6976 31.1866 35.0694 31.8774 34.7427C32.2416 34.5668 32.3798 34.1145 32.4677 33.7375C32.6435 32.9962 33.0204 32.5062 33.7991 32.3554Z" fill="white"/>
<path d="M32.8828 15.9712C32.6567 15.9964 32.5437 16.0466 32.4432 16.0215C28.939 15.1671 25.397 15.3304 21.8802 15.8079C19.7953 16.0969 17.6978 16.5367 15.7761 17.4162C13.0757 18.6601 10.7772 20.4945 8.7299 22.6682C6.69517 24.8544 5.11261 27.3171 4.01989 30.0813C3.37933 31.7147 2.53781 33.2476 2.04797 34.9438C1.63349 36.3636 1.54556 37.7583 1.847 39.1906C1.93492 39.6178 2.0731 40.045 1.77166 40.5099C1.14366 39.2158 0.754296 37.8714 0.641256 36.4264C0.628696 36.1877 0.628696 35.949 0.641256 35.7102C0.804536 32.8706 1.52046 30.1441 2.46246 27.4679C2.77646 26.5884 3.34164 25.8596 3.8566 25.1057C5.60245 22.5551 7.78789 20.4066 10.0738 18.3585C10.5762 17.9062 11.1916 17.5921 11.7945 17.2905C12.5105 16.9387 13.2138 16.5618 13.8921 16.1471C15.035 15.4561 16.3538 15.2802 17.6601 15.142C20.4359 14.853 23.1865 14.4509 25.9748 14.3127C26.6531 14.2876 27.3187 14.2248 27.997 14.1745C29.8558 14.0363 31.3631 14.853 32.8828 15.9712Z" fill="#8D780E"/>
<path d="M32.1669 29.1891C32.6693 30.7723 32.6316 32.2675 31.5138 33.8255C31.25 31.8905 32.28 30.1063 31.1621 28.3599C31.8404 28.4227 32.0162 28.7242 32.1669 29.1891Z" fill="white"/>
<path d="M30.5341 33.6998C30.6722 35.0191 30.4838 35.8358 29.8935 36.6902C29.5418 36.1499 30.3457 35.195 29.2529 34.9562C29.6423 34.5542 30.0568 34.1647 30.5341 33.6998Z" fill="white"/>
<path d="M30.4338 28.5482C31.3005 29.9429 31.1372 31.7145 30.0068 33.0966C29.3034 33.951 28.4744 34.7049 27.6078 35.4085C26.7286 36.1121 25.9248 36.866 25.2214 37.7329C24.6939 38.3863 24.0408 38.7758 23.2118 38.9015C21.3655 39.1904 19.5317 39.5045 17.6854 39.8061C17.1955 39.7684 16.7183 39.7056 16.3038 39.4543C15.5376 39.0145 15.3995 38.5119 15.7009 37.6701C16.1154 36.4765 16.7811 35.3833 17.1579 34.1646C17.4342 33.285 18.0245 32.5437 18.8535 32.0789C20.6119 31.0863 22.207 29.7795 24.3045 29.4905C24.7441 29.4277 25.0958 29.1387 25.4098 28.8246C25.661 28.5733 25.8996 28.2969 26.1508 28.0456C27.5827 26.6007 29.3662 26.8143 30.4338 28.5482Z" fill="#13751E"/>
<path d="M29.9936 26.5631C30.295 26.827 30.6216 27.0532 30.8728 27.7442C30.0313 26.9903 29.3404 26.5003 28.4738 26.3244C28.1096 26.249 28.0091 25.7213 28.1849 25.2438C28.3356 24.8418 28.6371 24.9926 28.8757 25.0805C29.3907 25.2564 29.8931 25.4575 30.3578 25.7339L30.2448 25.9977C30.1317 25.9977 30.0061 26.0606 29.9308 26.1485C29.7926 26.2867 29.868 26.45 29.9936 26.5631Z" fill="white"/>
<path d="M29.2398 34.9563C29.2398 34.9563 29.2398 34.9689 29.2398 34.9563C29.2273 34.9689 29.2147 34.9814 29.2021 34.994C29.2021 34.9814 29.2022 34.9689 29.2147 34.9563C29.2273 34.9563 29.2398 34.9563 29.2398 34.9563Z" fill="#13751E"/>
<path d="M29.2026 34.994C29.1021 35.6851 29.0519 36.3887 28.9263 37.0672C28.8384 37.5195 28.7504 37.997 28.2983 38.3739C27.9843 38.11 28.135 37.7205 28.0471 37.4064C27.9843 37.2054 27.8963 37.0295 27.6703 37.0169C27.4944 36.9918 27.3688 37.13 27.306 37.2682C27.0548 37.8085 26.8287 38.3613 26.565 38.8891C26.3389 39.3414 26.251 39.8817 25.6732 40.1832C25.309 39.4419 25.309 38.8011 25.8616 38.1352C26.8413 36.9541 28.1224 36.062 29.2026 34.994Z" fill="white"/>
<path d="M27.4316 40.9244C28.2229 41.0124 28.2229 41.0124 28.3485 42.3317C27.7582 41.8919 27.708 41.3768 27.4316 40.9244Z" fill="#13751E"/>
<path d="M27.3439 24.7663C27.055 25.4825 26.5526 25.9223 26.0377 26.5254C25.686 25.9474 26.0754 25.0302 25.1836 24.892C25.8618 24.6407 26.5652 24.7412 27.3439 24.7663Z" fill="white"/>
<path d="M25.4596 41.9421C26.2635 42.2186 26.2509 42.9096 26.3263 43.563C25.648 43.2112 25.535 42.5829 25.4596 41.9421C25.4471 41.9421 25.4471 41.9421 25.4596 41.9421Z" fill="#13751E"/>
<path d="M25.4468 41.9423C25.4342 41.9675 25.409 41.9926 25.3965 42.0052L25.4342 41.9297C25.4342 41.9297 25.4468 41.9298 25.4468 41.9423Z" fill="#13751E"/>
<path d="M25.4471 41.9171C25.4471 41.9297 25.4471 41.9297 25.4471 41.9422H25.4346L25.4471 41.9171Z" fill="#13751E"/>
<path d="M25.447 41.9171L25.4345 41.9297H25.4219C25.4344 41.9171 25.4345 41.9171 25.447 41.9171Z" fill="#13751E"/>
<path d="M25.447 41.9171C25.4345 41.9171 25.4344 41.9297 25.4219 41.9297L25.447 41.9171Z" fill="#13751E"/>
<path d="M24.9703 26.9525C25.4853 27.6436 25.4979 27.6436 25.1336 28.0708C24.7945 28.4603 24.4051 28.7995 23.865 28.8749C23.2873 28.9503 22.7346 29.1513 21.9434 29.4152C22.4081 28.7744 22.5839 28.1964 23.3375 28.5231C23.639 28.6362 23.9153 28.3346 24.1162 28.0833C24.4177 27.719 24.6815 27.3295 24.9703 26.9525Z" fill="white"/>
<path d="M25.1831 24.8922C25.1705 24.8922 25.1705 24.8921 25.1579 24.9047C25.1454 24.9047 25.1454 24.9173 25.1328 24.9173C25.1328 24.9047 25.1328 24.9047 25.1454 24.8922C25.1579 24.8922 25.1705 24.8922 25.1831 24.8922Z" fill="#13751E"/>
<path d="M24.6684 40.3466C25.2838 41.025 25.2838 41.025 23.8896 41.892C24.1408 41.3768 24.392 40.8743 24.6684 40.3466Z" fill="white"/>
<path d="M25.1327 24.9172C24.8187 25.9098 24.3037 26.8019 23.5878 27.6437C23.3869 26.1359 23.3743 25.8721 25.1327 24.9172Z" fill="white"/>
<path d="M24.204 39.5298C23.9528 40.4344 23.6137 41.0878 23.149 41.7034C22.7345 41.5024 22.948 41.1883 22.9354 40.9496C22.9103 40.447 22.8098 40.1078 22.2572 40.5601C22.1693 40.6355 22.0311 40.7611 21.9683 40.6731C21.4659 39.9318 21.2398 40.4973 20.9635 40.8742C20.863 41.0124 20.6997 41.1004 20.5616 40.9747C20.4234 40.8365 20.2978 40.648 20.2602 40.4721C20.2099 40.2334 20.3983 40.1203 20.6118 40.0826C21.7422 39.9067 22.8852 39.7308 24.204 39.5298Z" fill="white"/>
<path d="M22.4079 23.3968C22.5712 23.9496 22.6591 24.515 22.4833 25.1181C21.9935 24.6407 21.9558 24.0501 21.9307 23.4596C21.9307 23.3339 22.006 23.2334 22.1442 23.2209C22.2823 23.1957 22.3828 23.2837 22.4079 23.3968Z" fill="#13751E"/>
<path d="M22.4696 27.0282C22.4193 27.669 21.9797 28.0836 21.5904 28.536C21.1382 27.3926 21.3266 27.0785 22.4696 27.0282Z" fill="white"/>
<path d="M21.6912 42.5454C22.1685 42.0302 22.4323 42.382 22.7839 42.8344C21.5656 43.3872 20.3724 43.9275 19.1164 43.1485C18.2372 42.6082 17.3454 42.5203 16.3783 42.6333C16.0015 42.671 15.5996 42.7967 15.1475 42.4951C15.4866 42.1056 15.675 41.6156 16.3532 41.9172C16.4662 41.9674 16.6923 41.9046 16.7928 41.8166C17.2073 41.4271 17.5715 41.3141 18.1493 41.6282C18.7647 41.9548 19.0787 41.1758 19.7193 40.8994C19.9203 41.7161 20.8999 41.7287 21.0883 42.5202C21.1511 42.7841 21.5279 42.7339 21.6912 42.5454Z" fill="white"/>
<path d="M20.3854 29.7043C20.6994 29.1766 20.9883 29.453 21.4153 29.7797C20.7496 30.1566 20.1468 30.4959 19.5439 30.8351C19.4811 30.7723 19.4183 30.6969 19.3555 30.6341C19.8453 30.4582 20.1467 30.1064 20.3854 29.7043Z" fill="white"/>
<path d="M20.4733 27.5054C20.5989 27.9577 20.3728 28.2467 20.2347 28.5608C20.1844 28.6488 20.1091 28.7618 19.9709 28.6111C19.368 27.9451 19.3052 28.5859 19.1922 28.9629C19.0163 29.5534 18.9535 30.1816 18.4763 30.7847C18.1623 30.2947 18.4888 29.7419 18.0743 29.4026C18.0241 29.3649 18.0241 29.1513 18.0869 29.0885C18.7651 28.41 19.368 27.5933 20.4733 27.5054Z" fill="white"/>
<path d="M19.8199 23.9246C20.0209 24.6156 20.2093 25.3192 20.4354 26.1234C19.6064 25.558 19.3929 24.8795 19.8199 23.9246Z" fill="#13751E"/>
<path d="M18.5387 40.5098C18.6643 40.5098 18.7648 40.5601 18.7271 40.7234C18.6392 40.9119 18.4759 41.0124 18.2624 40.9244C18.1744 40.8867 18.0489 40.736 18.0614 40.6857C18.1368 40.447 18.3629 40.5098 18.5387 40.5098Z" fill="white"/>
<path d="M17.4088 29.6665C17.6224 30.3199 17.5093 30.6968 17.2958 31.0486C17.1953 31.212 17.1074 31.4884 16.8939 31.413C16.0649 31.124 16.09 31.8151 15.9267 32.2423C15.6755 32.883 15.6002 33.5992 15.2234 34.3028C14.5074 32.4181 14.5828 31.9909 15.8514 30.9104C16.3287 30.5083 16.8311 30.1314 17.4088 29.6665Z" fill="white"/>
<path d="M16.7552 32.5189C17.0817 32.6445 16.9687 32.8833 16.8808 33.1094C16.3407 34.4664 16.0895 35.9616 14.9465 37.0296C14.6953 36.9039 15.0093 36.439 14.62 36.4265C14.3185 36.4265 14.2432 36.6778 14.1176 36.8788C13.9166 37.2055 13.791 37.595 13.3514 37.9719C13.364 36.9291 14.218 36.2631 14.1301 35.0821C13.4644 35.9113 13.3388 36.7657 12.6104 37.5699C13.0248 36.1752 13.3514 35.0318 13.7031 33.901C13.7533 33.7125 13.8789 33.5492 14.0171 33.2853C14.4441 33.7125 14.532 34.2025 14.6828 34.6674C14.7581 34.8936 14.8586 35.1198 15.1475 35.1323C15.4364 35.1449 15.5745 34.9313 15.6624 34.7051C15.876 34.102 16.0644 33.4989 16.2779 32.8958C16.3533 32.6822 16.4286 32.4058 16.7552 32.5189Z" fill="white"/>
<path d="M17.1575 40.5602C17.0068 40.8367 16.7682 41.1005 16.6175 40.8869C16.1025 40.1833 15.8136 40.5351 15.4996 41.0377C15.4242 41.1633 15.3112 41.2764 15.1982 41.4146C14.9846 40.711 14.9721 40.711 15.3238 39.8441C15.9015 40.133 16.4667 40.4723 17.1575 40.5602Z" fill="white"/>
<path d="M15.625 30.1943H15.6376C15.6376 30.1943 15.625 30.1943 15.625 30.2069C15.625 30.2069 15.625 30.2069 15.625 30.1943Z" fill="#13751E"/>
<path d="M15.6247 30.207C15.6247 30.207 15.6247 30.2195 15.6247 30.207C15.6122 30.2195 15.6247 30.2195 15.6247 30.207Z" fill="#13751E"/>
<path d="M13.9672 28.2846C14.4947 28.9505 15.4241 29.252 15.6251 30.1944C14.8087 29.9305 14.2686 29.2771 13.7034 28.674C13.6406 28.6112 13.628 28.4479 13.6657 28.3474C13.716 28.2343 13.8918 28.1966 13.9672 28.2846Z" fill="#13751E"/>
<path d="M14.5203 38.5496C14.7464 38.6627 14.8469 38.9265 14.7464 39.1401C14.5454 39.5925 14.2691 40.0071 13.8923 40.673C13.6537 39.8814 13.8923 39.3663 14.0054 38.8511C14.0682 38.6124 14.244 38.4114 14.5203 38.5496Z" fill="white"/>
<path d="M14.3818 41.6155C14.3818 41.7537 14.4321 41.9548 14.1809 41.9171C14.0176 41.9045 13.9171 41.7789 13.8543 41.6281C13.8418 41.4396 13.9799 41.3642 14.1306 41.3391C14.319 41.3014 14.3818 41.4647 14.3818 41.6155Z" fill="white"/>
<path d="M12.6486 38.7761C12.9249 38.7886 13.352 38.7509 13.3143 39.241C13.2892 39.6807 13.2138 40.1079 13.1385 40.7613C12.6612 40.2712 12.4854 39.8064 12.3849 39.3038C12.3346 39.0651 12.3095 38.7635 12.6486 38.7761Z" fill="white"/>
<path d="M12.3598 35.22C11.6313 35.2326 11.154 35.1446 10.6768 34.8556C11.468 34.4913 11.5936 34.5164 12.3598 35.22Z" fill="#13751E"/>
<path d="M12.5729 33.4989C11.8821 33.6623 11.3294 33.2979 10.7266 33.1094C11.4802 32.6822 12.0454 33.0215 12.5729 33.4989Z" fill="#13751E"/>
<path d="M12.0581 36.665C12.0455 36.6775 12.0329 36.6775 12.0329 36.6901C12.0204 36.6775 12.0204 36.6775 12.0078 36.665C12.0204 36.665 12.0329 36.665 12.0581 36.665Z" fill="#13751E"/>
<path d="M12.0079 36.665C11.4427 36.665 10.8775 36.665 10.1992 36.665C10.9779 35.9111 11.405 35.9488 12.0079 36.665Z" fill="#13751E"/>
<path d="M11.4673 41.2761C11.7438 41.6279 11.6432 41.9169 11.3794 42.3065C11.1658 41.8918 11.3291 41.5903 11.4673 41.2761Z" fill="#13751E"/>
</svg>
