<svg width="91" height="71" viewBox="0 0 91 71" fill="none" xmlns="http://www.w3.org/2000/svg">
<path d="M89.1671 21.1117C90.3357 21.5078 90.8282 22.5126 90.3936 23.7008C90.1232 24.4641 89.6693 25.1113 89.0223 25.604C88.3076 26.145 87.5351 26.5701 86.6852 26.8116C83.7397 27.6618 81.2675 29.2751 79.1139 31.4199C78.293 32.241 77.4335 33.0139 76.5161 33.7288C75.7918 34.2988 75.0385 34.8108 74.0921 34.9461C73.8023 34.9847 73.6575 35.1103 73.5802 35.4581C73.2615 36.8106 73.107 38.2018 72.6531 39.535C72.5662 39.7958 72.46 40.0566 72.4407 40.3271C72.2572 42.9162 71.388 45.3411 70.403 47.6694C69.1282 50.6836 67.1002 53.1567 64.2513 54.9536C61.5086 56.6829 58.5148 57.5814 55.4148 58.2673C55.0285 58.3543 54.6229 58.3349 54.2366 58.3543C53.3868 58.4026 52.5273 58.5088 51.6774 58.4702C50.5185 58.4219 49.717 58.9629 49.041 59.813C48.1622 60.9337 47.0322 61.7549 45.8734 62.5567C43.546 64.1797 40.9192 65.0009 38.1572 65.4356C36.979 65.6192 35.8298 65.9283 34.7288 66.3631C33.3671 66.9041 32.0344 67.4837 30.6534 67.9668C29.6877 68.3049 28.8572 68.8749 28.3067 69.7734C28.2101 69.9376 28.1039 70.1018 27.8914 70.0535C27.6597 70.0052 27.6693 69.8023 27.6886 69.6188C27.9397 67.5031 27.7466 65.3487 28.0942 63.233C28.2101 62.5181 28.326 61.8032 28.4419 61.069C28.1329 61.069 28.0556 61.3008 27.9107 61.4457C25.6123 63.8609 22.8503 65.426 19.5379 65.9283C18.2245 66.1216 16.9207 66.0056 15.6846 65.4743C14.7575 65.0782 13.8111 64.7594 12.8453 64.4792C11.9086 64.2087 10.9911 63.8609 10.122 63.4359C9.31075 63.0398 8.48022 62.7886 7.57243 62.8369C7.41791 62.8465 7.2634 62.8465 7.11854 62.8176C6.48116 62.692 6.34595 62.4987 6.55841 61.8708C7.03162 60.441 7.66901 59.0981 8.56714 57.8905C10.46 55.3497 12.2852 52.751 14.6802 50.6256C14.8347 50.4903 14.9699 50.3164 15.1051 50.1522C15.1341 50.1136 15.1245 50.0363 15.1341 49.9397C13.7724 50.2875 12.4784 49.8817 11.1746 49.6015C10.5952 49.4759 10.093 49.1958 9.62945 48.8383C8.9824 48.336 8.25811 48.0461 7.45655 47.9399C6.2687 47.7853 5.26433 47.2443 4.35654 46.4908C2.94657 45.3315 1.9229 43.863 0.908879 42.3752C0.792991 42.2013 0.84128 42.0371 0.850937 41.8536C0.899224 41.129 0.986138 40.3948 0.619159 39.7088C0.532243 39.5446 0.532245 39.3514 0.590189 39.1678C1.09237 37.5545 0.821963 35.9025 0.764019 34.2698C0.744705 33.6322 0.706079 32.9946 0.677107 32.3569C0.638478 31.5261 0.792996 30.7243 1.03443 29.9224C2.04845 26.4638 3.69985 23.3048 5.72788 20.3582C6.99299 18.5226 8.57679 16.9383 10.4117 15.634C13.4344 13.4797 16.631 11.6924 20.2622 10.765C21.6432 10.4075 23.0048 10.3496 24.4245 10.4365C26.6553 10.5718 28.8089 11.1128 30.9818 11.5572C31.426 11.6441 31.8799 11.7021 32.3338 11.7407C34.0818 11.8953 35.7332 12.3397 37.4425 13.2092C37.3942 11.7118 38.0606 10.5718 38.6497 9.41247C39.0167 8.69757 39.5478 8.0986 40.2045 7.63488C40.8516 7.17116 41.5469 6.91032 42.3484 7.21946C42.9472 7.45132 43.4108 7.24845 43.8357 6.83303C45.5064 5.23899 47.4475 4.0024 49.4562 2.93971C51.8126 1.6838 54.3042 0.543828 56.989 0.263663C60.1662 -0.0744657 63.3724 -0.258024 66.4917 0.804668C67.4092 1.11381 68.3653 1.32635 69.302 1.58719C69.5628 1.66448 69.8428 1.71278 70.0843 1.82871C71.9095 2.65955 73.7251 3.5097 75.5986 4.24392C76.178 4.46612 76.5643 4.96848 76.9893 5.40322C79.5195 7.95368 81.1129 11.1224 82.7547 14.2526C83.2279 15.151 83.4017 16.2137 83.7301 17.1894C84.3095 18.8704 85.3332 20.0974 87.1584 20.5128C87.8537 20.6287 88.5104 20.8895 89.1671 21.1117ZM89.679 23.9327C90.1812 23.0632 89.7852 21.7977 88.7326 21.5465C87.96 21.3629 87.226 21.0538 86.4631 20.8412C85.7967 20.648 85.2849 20.2519 84.7827 19.7979C83.5176 18.6482 83.2279 17.0059 82.5905 15.5568C82.3394 14.9771 82.1946 14.3492 81.8759 13.7888C81.1226 12.4363 80.3886 11.0645 79.6257 9.71196C79.3746 9.26756 79.0849 8.82316 78.7565 8.42707C77.9936 7.48031 77.1921 6.55287 76.4098 5.62543C76.0718 5.22933 75.6952 4.86222 75.2027 4.669C73.4643 4.0024 71.7743 3.24886 70.1036 2.43735C69.8911 2.33108 69.6497 2.27311 69.4083 2.20549C67.9693 1.80939 66.5304 1.4133 65.0914 1.01721C64.4154 0.833651 63.7201 0.746704 63.0248 0.679078C61.3154 0.524505 59.6157 0.68874 57.9064 0.698401C56.989 0.698401 56.0908 0.872292 55.2217 1.17178C54.1594 1.54855 53.1067 1.94465 52.0444 2.33108C48.9927 3.43241 46.3562 5.22933 43.9516 7.37404C43.4301 7.83776 42.9569 8.05029 42.3195 7.80877C41.46 7.4803 40.784 7.78945 40.1562 8.35944C39.036 9.39315 38.4662 10.736 38.0413 12.1465C37.8385 12.8324 37.993 13.5376 38.4179 14.1559C38.698 14.552 38.9684 14.9674 39.3547 15.2766C39.741 15.5857 40.0307 15.9722 40.2045 16.4456C40.4266 17.0542 40.7743 17.5855 41.1992 18.0782C41.5952 18.5226 41.827 19.0443 41.8463 19.653C41.8559 20.0201 41.9235 20.3679 42.1553 20.7736C42.416 20.5997 42.5995 20.4838 42.7637 20.3582C44.6566 18.9187 46.8005 18.1555 49.1375 17.8174C50.6248 17.6049 52.1217 17.7594 53.6089 17.6918C55.1251 17.6338 56.5833 17.885 57.974 18.484C58.8528 18.8608 59.7703 19.0443 60.7167 19.1216C61.9625 19.2279 63.102 19.6433 64.1064 20.3775C65.2942 21.2373 66.3952 22.1938 67.3223 23.3434C68.1625 24.3868 69.0316 25.4108 69.8815 26.4445C70.5961 27.3237 71.3204 28.2028 71.697 29.2751C72.2282 30.8016 72.7304 32.3376 73.2326 33.8737C73.4257 34.463 73.5513 34.5693 74.1307 34.434C74.826 34.2698 75.4151 33.893 75.9752 33.4583C76.9603 32.6854 77.8874 31.8546 78.7759 30.9658C80.9681 28.7728 83.508 27.1401 86.5017 26.2706C86.7625 26.1933 87.0329 26.1161 87.2743 25.9905C88.2594 25.5074 89.1092 24.9181 89.679 23.9327ZM72.798 36.202C72.8656 35.6803 72.9042 35.1876 72.8076 34.6659C72.5565 33.2457 71.8902 31.9512 71.5329 30.5697C71.1369 29.0433 70.2967 27.8067 69.3117 26.6281C68.5294 25.691 67.7375 24.7635 66.9843 23.8071C66.0862 22.6671 65.0142 21.73 63.865 20.8702C62.9958 20.2229 62.0108 19.8172 60.9291 19.7013C59.7123 19.5757 58.5341 19.3245 57.3946 18.8414C56.3709 18.4067 55.2989 18.2232 54.1883 18.2425C53.0584 18.2715 51.9382 18.2232 50.8083 18.2425C47.8145 18.2715 45.1298 19.1796 42.7541 21.0248C42.107 21.5272 41.4407 22.0199 40.8033 22.5319C37.9254 24.8118 35.6559 27.4782 34.7481 31.188C34.4584 32.3763 34.3715 33.5066 34.4294 34.6949C34.4488 35.1199 34.5067 35.545 34.5646 35.9701C35.1055 40.0856 36.0905 44.0562 38.2055 47.679C40.2818 51.2342 39.9728 51.0796 43.4784 52.9828C44.531 53.5625 45.5837 54.0648 46.8198 54.0938C47.2061 54.1035 47.6117 54.1904 47.9787 54.3257C50.1129 55.0696 52.3245 55.2145 54.5553 55.1758C55.8011 55.1662 57.0469 55.2048 58.2927 55.0213C58.7562 54.9536 59.1522 54.6445 59.5675 54.6445C60.8615 54.6348 61.9528 54.0938 62.9089 53.3499C64.4154 52.1713 65.8254 50.8671 67.0809 49.389C68.0562 48.249 68.8481 46.9834 69.8139 45.8435C70.1905 45.3991 70.4319 44.8581 70.5768 44.2977C71.2238 41.5734 72.4117 39.0036 72.798 36.202ZM69.669 48.0075C69.9298 47.5341 70.1422 47.0221 70.2581 46.3362C69.8428 46.6163 69.64 46.9255 69.4372 47.225C67.8341 49.6788 65.7868 51.7076 63.5463 53.5432C62.1363 54.7025 60.427 55.1952 58.708 55.5333C56.7379 55.9197 54.7098 55.7845 52.7011 55.7169C51.3298 55.6685 49.9777 55.514 48.6547 55.1082C48.0752 54.9343 47.4765 54.7218 46.8874 54.6831C45.4678 54.6058 44.2606 54.0552 43.0438 53.3789C39.5382 51.4468 39.7023 51.3115 37.9351 48.2683C36.4478 45.7276 35.4241 43.0032 34.8544 40.0953C34.584 38.7138 34.2749 37.3419 34.0818 35.9508C33.483 38.9553 33.8597 41.8922 34.6419 44.8001C35.1537 46.6936 36.0422 48.4229 36.9403 50.1619C37.5874 51.4081 38.4276 52.3839 39.6154 53.0698C40.3977 53.5238 41.064 54.0938 41.5759 54.828C42.2132 55.7458 43.1017 56.2772 44.1447 56.625C45.7961 57.1756 47.4958 57.5138 49.1955 57.8615C49.6687 57.9582 50.1709 58.0258 50.6441 57.9678C51.3104 57.8905 51.9768 57.8905 52.6432 57.8905C53.464 57.8905 54.3042 58.0065 55.1058 57.8036C57.9354 57.0887 60.7263 56.3448 63.3048 54.8474C66.1441 53.1954 68.1238 50.8381 69.669 48.0075ZM49.3886 58.5475C48.9637 58.4509 48.645 58.3736 48.3167 58.3059C46.8681 57.9775 45.4002 57.6877 43.9805 57.2143C42.7927 56.8278 41.769 56.2289 41.0447 55.1662C40.5715 54.4803 39.9341 53.9682 39.2098 53.5432C37.9737 52.8186 36.9693 51.8718 36.4285 50.5C36.3223 50.2198 36.1581 49.9493 36.0036 49.6885C35.6463 49.0799 35.598 49.0702 35.0861 49.5726C33.483 51.1473 32.1889 52.9345 31.3681 55.0503C30.8273 56.4414 30.2768 57.8229 29.6298 59.1754C29.3304 59.813 29.1276 60.4796 28.9827 61.1656C28.5192 63.3489 28.3647 65.5612 28.3647 67.7929C28.3647 68.0151 28.2681 68.2759 28.5192 68.5175C29.0986 68.0731 29.6877 67.6383 30.383 67.4161C31.8027 66.9524 33.1643 66.3438 34.5453 65.7931C35.7042 65.3294 36.9114 65.0202 38.1475 64.8367C42.6575 64.1701 46.4045 62.1799 49.3886 58.5475ZM40.6005 22.0392C41.3151 21.5561 41.8366 21.0731 41.3441 20.1457C41.2862 20.0491 41.2861 19.9041 41.2861 19.7882C41.2958 19.1699 41.0157 18.6772 40.6198 18.2328C40.3108 17.8947 40.05 17.5082 39.8762 17.0832C39.2678 15.6244 38.0509 14.6776 36.95 13.6536C36.6217 13.3444 36.1774 13.1802 35.7332 13.0449C34.4874 12.6489 33.2126 12.33 31.9089 12.2334C31.2715 12.1851 30.6438 12.0499 30.0161 11.9146C27.7562 11.4219 25.4964 10.9292 23.0241 10.9292C22.184 10.8519 21.2375 11.0741 20.2911 11.3157C16.6793 12.2141 13.5213 14.0303 10.5469 16.1751C8.80857 17.431 7.28271 18.9574 6.08521 20.7253C4.37586 23.2468 2.88863 25.9035 1.88427 28.8114C1.31449 30.4538 0.976483 32.0864 1.18894 33.8254C1.28552 34.6369 1.25655 35.4677 1.27586 36.2889C1.28552 36.685 1.27586 37.0811 1.28552 37.4772C1.28552 37.6994 1.31449 37.8926 1.60421 37.9409C3.04315 38.1631 3.86402 39.1485 4.52072 40.3368C4.82975 40.8875 5.0229 41.5154 5.612 41.8729C5.72788 41.9502 5.80514 42.1047 5.87274 42.24C6.27835 42.9646 6.13349 43.6891 5.42851 44.375C4.92633 44.8677 4.87804 44.8677 3.93163 44.2784C3.71916 44.1432 3.52602 44.0176 3.3039 44.2784C3.07212 44.5489 3.2363 44.7132 3.40047 44.8967C4.58832 46.2202 5.93069 47.2636 7.78489 47.4665C8.46091 47.5438 9.10795 47.7563 9.6391 48.1814C10.8559 49.1475 12.3142 49.2731 13.7628 49.4566C14.0911 49.4953 14.4484 49.4856 14.7575 49.389C16.4089 48.877 18.1182 48.5388 19.7117 47.8143C21.2086 47.1284 22.6958 46.4424 24.2023 45.7855C27.003 44.5779 29.8519 43.5249 32.8746 43.0418C33.6182 42.9259 33.6569 42.8679 33.5023 42.0661C33.203 40.588 33.1354 39.1099 33.3768 37.6124C33.4347 37.255 33.4444 36.8782 33.4444 36.5208C33.4251 34.7432 33.6472 32.9946 34.0528 31.2653C34.217 30.5794 34.1011 29.7775 34.8254 29.2945C34.9316 29.2268 34.9316 29.0143 34.9896 28.879C35.1827 28.4636 35.3469 28.0289 35.598 27.6521C36.9693 25.5461 38.4565 23.498 40.6005 22.0392ZM35.0475 48.9736C35.3759 48.6741 35.3372 48.4326 35.1924 48.1041C34.6322 46.8192 34.2073 45.486 33.8693 44.1238C33.7148 43.5056 33.6955 43.5152 33.0678 43.6022C30.0354 44.0659 27.1961 45.1382 24.3955 46.3362C22.3868 47.196 20.4553 48.2877 18.3597 48.9349C17.1139 49.3214 16.1481 50.0846 15.2114 50.8478C12.5073 53.0698 10.5083 55.939 8.48988 58.76C7.76558 59.7744 7.2634 60.9144 6.9254 62.2283C7.77524 62.3249 8.51885 62.2282 9.21418 62.4987C9.89019 62.7693 10.5565 63.0784 11.2326 63.3392C11.8023 63.5615 12.3818 63.745 12.9612 63.9286C13.9173 64.2184 14.883 64.4986 15.8101 64.8946C17.0559 65.4356 18.3597 65.5129 19.6634 65.3101C22.4833 64.8657 24.859 63.4842 26.945 61.581C27.3699 61.1945 27.7466 60.7501 28.0363 60.2381C28.1232 60.0835 28.2294 59.9097 28.3743 59.813C29.0407 59.3493 29.3207 58.6344 29.6298 57.9485C29.9002 57.3399 30.1995 56.7312 30.412 56.0936C31.3584 53.3306 32.8939 50.9444 35.0475 48.9736ZM2.54097 39.2644C2.53131 39.6895 2.55063 39.989 3.06247 39.9504C3.00452 39.6122 2.86932 39.4094 2.54097 39.2644ZM2.97555 43.6891C2.98521 43.5732 2.89829 43.5442 2.81137 43.5249C2.7148 43.5152 2.62788 43.5345 2.59891 43.6311C2.56028 43.7664 2.6472 43.8823 2.76309 43.9016C2.88863 43.9306 2.96589 43.8147 2.97555 43.6891ZM1.96153 39.2644C1.96153 39.1195 1.97119 38.9939 1.96153 38.878C1.95187 38.7621 1.95187 38.6365 1.81667 38.5882C1.6525 38.5302 1.52695 38.5979 1.43038 38.7234C1.31449 38.8684 1.28552 39.0422 1.28552 39.2258C1.28552 39.506 1.30483 39.7958 1.69113 39.7765C2.0581 39.7668 1.9229 39.448 1.96153 39.2644ZM1.46901 41.4864C1.62353 41.1483 1.90359 40.8585 1.95187 40.4624C1.67181 40.3851 1.34346 40.2982 1.32415 40.617C1.28552 41.2449 1.05374 41.9308 1.66215 42.6071C1.61387 42.1434 1.30483 41.8439 1.46901 41.4864Z" fill="black"/>
<path d="M88.8284 21.5339C89.8725 21.7854 90.2785 23.0527 89.7758 23.9233C89.2054 24.9101 88.3546 25.4905 87.3782 25.9645C87.1365 26.0806 86.8658 26.1677 86.6048 26.2451C83.5981 27.1157 81.0651 28.7506 78.8705 30.9466C77.981 31.8366 77.0529 32.6686 76.0668 33.4425C75.5061 33.8778 74.9163 34.2551 74.2202 34.4196C73.6402 34.555 73.5145 34.4486 73.3211 33.8585C72.8184 32.3203 72.3253 30.7821 71.7839 29.2537C71.4069 28.1702 70.6818 27.2899 69.9664 26.4192C69.1156 25.3744 68.2455 24.3586 67.4044 23.3139C66.4763 22.1627 65.3741 21.2049 64.185 20.344C63.1795 19.6087 62.0387 19.2024 60.7916 19.0864C59.8441 18.9993 58.9257 18.8252 58.0459 18.4479C56.6537 17.8481 55.1939 17.5869 53.676 17.6546C52.1872 17.7126 50.6887 17.5579 49.1998 17.7804C46.8602 18.119 44.7043 18.8832 42.819 20.3246C42.6547 20.4504 42.471 20.5665 42.21 20.7406C41.9779 20.3343 41.9103 19.986 41.9006 19.6184C41.8813 19.009 41.6396 18.4962 41.2528 18.0416C40.8275 17.5579 40.4794 17.0161 40.2571 16.4067C40.083 15.9326 39.793 15.5457 39.4063 15.2361C39.0196 14.9266 38.7489 14.5106 38.4685 14.1139C38.0431 13.5045 37.8884 12.7886 38.0915 12.1018C38.5168 10.699 39.0872 9.34469 40.2087 8.30958C40.8275 7.73881 41.5042 7.41957 42.3743 7.75816C43.0124 8.00001 43.4861 7.78718 44.0082 7.32283C46.4155 5.18489 49.0548 3.38554 52.1098 2.27303C53.1733 1.88608 54.2271 1.48944 55.2906 1.11216C56.1607 0.802595 57.0598 0.638141 57.9782 0.638141C59.6894 0.638141 61.391 0.473683 63.1022 0.618792C63.7983 0.676836 64.4944 0.763901 65.1711 0.95738C66.6116 1.35401 68.0521 1.75064 69.4927 2.14727C69.7247 2.21499 69.9664 2.27304 70.1887 2.37945C71.8613 3.20174 73.5532 3.9563 75.2934 4.61413C75.7864 4.79793 76.1635 5.16555 76.5018 5.57185C77.2946 6.50055 78.0874 7.42925 78.8511 8.3773C79.1702 8.77393 79.4602 9.21893 79.7212 9.66393C80.485 11.0183 81.2198 12.392 81.9739 13.7463C82.2929 14.3074 82.4379 14.9362 82.6893 15.5167C83.3274 16.9774 83.6174 18.6123 84.8839 19.7635C85.3866 20.2279 85.899 20.6245 86.5661 20.8083C87.3298 21.0405 88.0646 21.3597 88.8284 21.5339Z" fill="#FCE727"/>
<path d="M72.7941 34.6739C72.8808 35.1948 72.8519 35.6869 72.7845 36.2079C72.3991 39.0059 71.2141 41.5723 70.5398 44.2834C70.3952 44.843 70.1544 45.3833 69.7787 45.8271C68.8153 46.9656 68.0253 48.2295 67.0523 49.3679C65.7998 50.8345 64.3933 52.137 62.8904 53.3237C61.9463 54.0666 60.848 54.5972 59.557 54.6165C59.1524 54.6165 58.7478 54.9253 58.2853 54.9928C57.0426 55.1761 55.7998 55.1375 54.557 55.1472C52.3316 55.1954 50.1254 55.041 47.9963 54.2981C47.6302 54.1727 47.2255 54.0762 46.8402 54.0666C45.607 54.0376 44.5569 53.5263 43.5068 52.957C40.0097 51.0467 40.318 51.2011 38.2467 47.6602C36.1368 44.0518 35.1542 40.0768 34.6147 35.9667C34.5569 35.5422 34.4991 35.1177 34.4798 34.6931C34.422 33.5161 34.5087 32.3776 34.7977 31.1909C35.7033 27.4956 37.9673 24.8231 40.8382 22.5462C41.4837 22.0348 42.1388 21.5524 42.7843 21.0411C45.1446 19.1983 47.8325 18.2913 50.819 18.2624C51.9462 18.2527 53.0734 18.2913 54.1909 18.2624C55.3084 18.2431 56.3778 18.4264 57.3894 18.8606C58.5262 19.343 59.7015 19.5938 60.9154 19.7193C61.9944 19.8254 62.9771 20.2403 63.8441 20.8867C64.9906 21.7454 66.0696 22.6812 66.9559 23.8197C67.7074 24.7749 68.4974 25.7011 69.2777 26.637C70.2604 27.814 71.1082 29.049 71.4935 30.5734C71.8789 31.9627 72.5436 33.2459 72.7941 34.6739ZM69.5667 39.8935C69.9906 37.1534 69.9617 34.3748 69.085 31.6733C68.9116 31.1523 68.8056 30.612 68.7575 30.062C68.69 29.2516 68.3529 28.6052 67.7748 28.0649C67.5725 27.8816 67.3413 27.7176 67.2353 27.4571C66.7921 26.3765 65.9155 25.6432 65.0966 24.881C63.9598 23.8294 62.7748 22.8549 61.1852 22.4786C59.2102 22.0059 57.2256 21.5717 55.2796 20.9735C54.9038 20.8577 54.5088 20.8288 54.1138 20.7998C52.4375 20.6841 50.7805 20.9832 49.1427 21.2726C47.3026 21.6006 45.6359 22.4593 44.056 23.4338C42.5049 24.3986 41.1369 25.6143 39.8652 26.9361C39.4413 27.3799 39.0656 27.843 38.7573 28.3833C37.4856 30.6216 36.9943 33.0433 37.2062 35.5904C37.4663 38.7357 38.2852 41.7459 39.3064 44.7272C40.2313 47.4383 42.1003 49.339 44.4702 50.7669C45.5878 51.4326 46.8209 51.8957 48.0059 52.4457C48.1408 52.5132 48.3238 52.6194 48.4298 52.5711C49.2968 52.2045 50.1639 52.5615 50.9154 52.5229C52.1292 52.629 53.2275 52.5904 54.3065 52.436C55.5686 52.2624 56.8499 52.2238 58.1023 51.9633C60.1543 51.5388 62.0041 50.6511 63.7382 49.4934C64.7979 48.7891 65.6746 47.94 66.3393 46.8498C66.5898 46.4349 66.8788 46.0393 67.1679 45.6534C68.4396 43.9264 69.2488 41.9582 69.5667 39.8935Z" fill="#FFFAC9"/>
<path d="M70.2395 46.3241C70.1235 47.0084 69.9109 47.5096 69.65 47.9915C68.1036 50.806 66.1222 53.1674 63.2614 54.8156C60.6712 56.3096 57.878 57.0517 55.0558 57.765C54.2536 57.9674 53.4128 57.8517 52.5912 57.8517C51.9243 57.8517 51.2575 57.8517 50.5906 57.9288C50.117 57.9867 49.6144 57.9192 49.1408 57.8228C47.4398 57.4758 45.7387 57.1385 44.086 56.5891C43.0422 56.2421 42.153 55.7216 41.5151 54.7963C41.0029 54.0638 40.336 53.4951 39.5531 53.0421C38.3643 52.3578 37.5235 51.3843 36.8759 50.1409C35.9771 48.406 35.0879 46.6903 34.5757 44.7915C33.7831 41.8903 33.4159 38.9602 34.0151 35.9626C34.2084 37.3506 34.5177 38.7193 34.7883 40.0976C35.3585 42.9891 36.383 45.7072 37.8714 48.2518C39.6401 51.2783 39.4758 51.4228 42.9842 53.3505C44.202 54.0156 45.4198 54.5746 46.8309 54.6517C47.4301 54.6806 48.0197 54.8927 48.5996 55.0758C49.9237 55.4806 51.2768 55.6349 52.6492 55.6831C54.6595 55.7505 56.6892 55.8758 58.6609 55.4999C60.3812 55.1722 62.0919 54.671 63.503 53.5144C65.755 51.6734 67.8039 49.6493 69.3987 47.2108C69.6113 46.912 69.8239 46.6132 70.2395 46.3241Z" fill="#FCE727"/>
<path d="M69.1133 31.5996C70.0026 34.3054 70.0219 37.0884 69.5966 39.8329C69.2776 41.9009 68.4657 43.8722 67.1801 45.602C66.8901 45.9885 66.6002 46.3847 66.3489 46.8003C65.6916 47.8922 64.8023 48.7426 63.7391 49.4481C61.9992 50.6077 60.1433 51.4967 58.0845 51.9219C56.8279 52.1828 55.5423 52.2215 54.2761 52.3954C53.1839 52.55 52.0916 52.5984 50.8737 52.4824C50.1294 52.5211 49.2498 52.1732 48.3799 52.5307C48.2736 52.579 48.0899 52.4631 47.9546 52.4051C46.7657 51.8543 45.5188 51.4001 44.4072 50.7236C42.0294 49.2934 40.1542 47.3897 39.2263 44.6743C38.2017 41.6979 37.3801 38.6733 37.1191 35.523C36.9064 32.9718 37.3994 30.5463 38.6753 28.3043C38.9846 27.7728 39.3616 27.2993 39.7869 26.8548C41.0628 25.5406 42.4353 24.3133 43.9916 23.347C45.5671 22.3709 47.2393 21.5109 49.0952 21.1823C50.7384 20.8924 52.4009 20.5929 54.0828 20.7088C54.4791 20.7378 54.8851 20.7668 55.2524 20.8828C57.2049 21.4819 59.1961 21.9264 61.1776 22.3903C62.7725 22.7672 63.9614 23.7335 65.1019 24.7965C65.9236 25.5599 66.8031 26.2943 67.2478 27.3766C67.3541 27.6376 67.5861 27.8018 67.7891 27.9854C68.369 28.5266 68.7073 29.1741 68.775 29.9858C68.833 30.5269 68.949 31.0778 69.1133 31.5996ZM69.152 38.5573C69.2003 37.9775 69.1616 37.3977 69.1616 36.8179C69.123 35.4263 69.239 34.0058 68.804 32.6432C68.5044 31.7155 68.253 30.7782 68.1564 29.7925C68.108 29.319 67.9534 28.7875 67.5378 28.6232C66.9095 28.3816 66.7838 27.8985 66.5905 27.396C66.4455 27.0191 66.2039 26.7099 65.9236 26.42C65.3339 25.8112 64.696 25.2313 64.0774 24.6515C63.0431 23.6755 61.8349 23.1247 60.4623 22.8155C58.9738 22.4869 57.4852 22.1487 56.0353 21.7138C55.088 21.4336 54.1505 21.279 53.1645 21.279C52.4589 21.279 51.7726 21.4336 51.0767 21.4722C48.6699 21.5979 46.4854 22.4772 44.4749 23.6852C42.7447 24.7288 41.1691 25.9851 39.8449 27.5892C38.4143 29.319 37.7957 31.242 37.6507 33.368C37.4091 36.9048 38.3757 40.2484 39.4389 43.5727C40.1929 45.9209 41.4204 47.9116 43.4696 49.3997C44.7262 50.3178 46.1277 50.8686 47.481 51.545C47.5583 51.5837 47.655 51.5934 47.7419 51.6127C50.1004 52.0089 52.4589 52.0959 54.8367 51.777C56.5863 51.5354 58.3648 51.4387 60.0177 50.743C62.4535 49.7186 64.783 48.5204 66.1169 46.0465C66.2425 45.8049 66.4358 45.602 66.6002 45.3797C68.0404 43.3311 68.9587 41.0795 69.152 38.5573Z" fill="black"/>
<path d="M52.4328 33.3258C51.9699 34.3519 52.1339 34.3325 51.1309 33.742C50.9959 33.6646 50.8705 33.5775 50.7355 33.5194C50.4752 33.4032 50.2341 33.1709 49.829 33.4226C50.4944 33.955 51.3334 34.1486 51.8542 34.7584C51.2467 35.5328 50.5041 35.7652 49.5879 35.6974C48.6235 35.6296 47.6399 35.6974 46.6659 35.7168C46.4248 35.7264 46.1258 35.6974 45.9908 36.0556C47.3506 36.0556 48.6525 36.0749 49.9544 36.0459C50.533 36.0362 51.0152 36.1911 51.4492 36.7041C50.8513 36.9945 50.2823 37.2753 49.7229 37.556C49.4529 37.6915 49.1925 37.8464 48.9321 38.0013C48.855 38.0497 48.7971 38.1368 48.8357 38.2336C48.8936 38.3788 49.0093 38.3788 49.125 38.3207C49.3372 38.2142 49.5494 38.0787 49.7712 37.9819C50.4269 37.7012 51.0248 37.2849 51.7674 37.1301C51.8735 37.556 51.6999 37.8367 51.5263 38.1174C51.1309 38.766 50.7259 39.4146 50.3401 40.0728C50.2437 40.2374 50.0508 40.4019 50.2823 40.6633C50.5716 40.5181 50.697 40.2374 50.8513 39.9857C51.2081 39.4146 51.5456 38.8337 51.9024 38.2723C52.0471 38.0497 52.1628 37.7012 52.4811 37.7883C52.8186 37.8851 52.8186 38.2433 52.8282 38.553C52.8282 38.7369 52.8282 38.9209 52.8282 39.1048C52.8089 39.9276 52.7704 40.7504 52.7511 41.5732C52.7414 41.7959 52.6546 42.0669 52.9343 42.2315C53.214 41.912 53.1368 41.5345 53.1561 41.1763C53.1851 40.3535 53.1947 39.5307 53.214 38.7079C53.2236 38.3594 53.3394 38.1174 53.7347 38.0981C53.8505 38.0884 53.9758 38.0787 54.0916 38.04C54.2169 38.0013 54.3037 37.9045 54.2748 37.7786C54.2555 37.7012 54.1687 37.6044 54.1012 37.585C53.9276 37.5463 53.7444 37.5269 53.5612 37.5366C53.079 37.556 52.6257 37.2559 52.5293 36.9365C52.375 36.4621 52.1242 36.2395 51.7192 36.0556C51.5842 35.9975 51.4877 35.8523 51.536 35.678C51.5842 35.5232 51.6999 35.407 51.8639 35.3876C51.9796 35.3683 52.105 35.4167 52.2207 35.4264C52.5582 35.436 52.8957 35.4457 52.5679 34.9424C52.4136 34.7004 52.4328 34.4293 52.7222 34.1873C52.9922 34.468 53.1465 34.9714 53.619 34.8456C54.1012 34.71 54.5545 34.9327 55.1331 34.7584C54.7859 35.407 54.8631 35.8232 55.461 36.0556C55.6635 36.133 55.731 36.2879 55.7214 36.4912C55.7117 36.7429 55.4996 36.7428 55.3356 36.7912C55.1042 36.859 54.8534 36.8977 54.6413 37.0042C54.458 37.101 54.4002 37.314 54.5448 37.4689C54.7763 37.7205 55.0752 37.9141 55.4031 37.9529C55.8178 38.0013 55.6442 37.6431 55.6731 37.4301C55.6731 37.4108 55.7021 37.3817 55.731 37.3624C56.4157 36.9945 56.8304 36.1814 57.7755 36.2395C58.248 36.2685 58.7302 36.0943 59.2124 35.9878C59.3957 35.9491 59.6464 35.9394 59.6753 35.6393C59.4824 35.4651 59.2799 35.5522 59.0774 35.5909C58.3252 35.7361 57.5826 35.862 56.84 36.0168C56.2807 36.133 55.9914 35.7071 55.7021 35.407C55.4803 35.1747 55.8467 34.8746 55.9721 34.6132C56.0878 34.3615 56.3289 34.2067 56.5507 34.0421C57.0329 33.6743 57.5344 33.3161 58.0166 32.9483C58.142 32.8515 58.3638 32.7547 58.1323 32.4546C57.4572 32.7837 56.8786 33.2677 56.2903 33.7323C55.9239 34.0227 55.5767 34.1583 55.0656 33.8775C55.4417 33.0354 55.7985 32.2029 56.1939 31.3801C56.5797 30.5766 57.004 29.7829 57.4572 28.8826C56.9075 28.9407 56.8015 29.2892 56.6472 29.5505C56.0203 30.596 55.5574 31.7286 55.0559 32.8418C54.9595 33.0644 54.7956 33.471 54.7184 33.4516C54.0916 33.3451 53.9276 33.9937 53.5033 34.197C52.9536 33.4226 52.9536 33.4129 52.4328 33.3258C52.4425 33.3258 52.4425 33.3161 52.4425 33.3161L52.4328 33.3064C52.5293 32.4739 52.1917 31.5059 51.5938 31.08C51.8349 31.8931 51.9603 32.6675 52.4328 33.3064C52.4328 33.3064 52.4328 33.3161 52.4328 33.3258ZM69.1069 36.9752C69.1069 37.556 69.1455 38.1368 69.0973 38.7176C68.9044 41.2441 67.9883 43.5092 66.5513 45.5711C66.397 45.7937 66.2042 45.997 66.0691 46.239C64.7383 48.7171 62.4142 49.9078 59.9839 50.9435C58.3348 51.6405 56.5604 51.7373 54.8148 51.9793C52.4425 52.2987 50.0894 52.2116 47.7363 51.8147C47.6495 51.7954 47.5531 51.7857 47.4759 51.747C46.1162 51.0694 44.7178 50.5079 43.4738 49.598C41.4293 48.1073 40.2045 46.1132 39.4523 43.7609C38.3915 40.4406 37.4271 37.0817 37.6682 33.5387C37.8129 31.4091 38.4301 29.4828 39.8573 27.75C41.1882 26.1432 42.7505 24.8751 44.4767 23.8393C46.4826 22.6196 48.6621 21.7484 51.0634 21.6226C51.7578 21.5838 52.4425 21.4386 53.1465 21.429C54.1301 21.4193 55.0656 21.5742 56.0107 21.8646C57.4669 22.3002 58.9424 22.639 60.4275 22.9681C61.7969 23.2682 63.0024 23.8296 64.0343 24.8073C64.6515 25.3978 65.288 25.9689 65.8763 26.5788C66.1559 26.8692 66.397 27.1789 66.5417 27.5564C66.7346 28.0598 66.8599 28.5438 67.4868 28.7858C67.9015 28.9407 68.0558 29.4828 68.104 29.9571C68.2004 30.9348 68.4512 31.8738 68.7501 32.8127C69.1841 34.1583 69.078 35.5812 69.1069 36.9752ZM58.6917 39.8405C57.9105 39.2113 57.0811 38.6789 56.1264 38.3401C56.7436 39.0177 58.0745 39.7727 58.6917 39.8405ZM57.0329 43.0446C57.0908 42.6767 56.8304 42.4347 56.6761 42.154C56.0493 41.0408 55.3742 39.9566 54.9981 38.7176C54.9499 38.553 54.9306 38.3013 54.6895 38.3788C54.458 38.4562 54.5641 38.6789 54.6123 38.8434C54.6413 38.9596 54.6895 39.0758 54.7281 39.1919C55.2199 40.4503 55.8757 41.6119 56.5989 42.7445C56.6665 42.8897 56.7532 43.0736 57.0329 43.0446Z" fill="#FCE727"/>
<path d="M59.8044 35.5783C59.7753 35.8758 59.5226 35.8854 59.338 35.9237C58.8619 36.0293 58.3663 36.2019 57.8901 36.1732C56.9378 36.1156 56.5103 36.9215 55.8301 37.286C55.8106 37.2956 55.7815 37.3244 55.7718 37.3532C55.7426 37.5547 55.9175 37.9192 55.4997 37.8713C55.1693 37.8329 54.8681 37.641 54.6348 37.3916C54.4891 37.2381 54.5377 37.027 54.732 36.9311C54.9458 36.8255 55.1985 36.7872 55.4317 36.72C55.5969 36.672 55.8106 36.672 55.8204 36.4226C55.8301 36.2211 55.7621 36.0676 55.558 35.9909C54.9555 35.7702 54.8778 35.3577 55.2276 34.7053C54.6446 34.8684 54.1976 34.6573 53.702 34.7917C53.2258 34.926 53.0704 34.4175 52.7983 34.1393C52.5068 34.3695 52.4873 34.6382 52.6428 34.8876C52.9732 35.3865 52.6428 35.3769 52.293 35.3673C52.1764 35.3673 52.0501 35.3193 51.9334 35.3289C51.7683 35.3481 51.6516 35.4536 51.6031 35.6167C51.5448 35.7894 51.6516 35.9333 51.7877 35.9909C52.1958 36.1636 52.4485 36.3938 52.6039 36.8639C52.7108 37.1709 53.1675 37.4779 53.6437 37.4587C53.8283 37.4491 54.0129 37.4683 54.1879 37.5067C54.2559 37.5259 54.3433 37.6218 54.3628 37.6986C54.3919 37.8329 54.3045 37.9288 54.1781 37.9576C54.0615 37.9864 53.9352 38.0056 53.8186 38.0152C53.4202 38.0344 53.3036 38.2646 53.2939 38.6196C53.2842 39.435 53.2744 40.2505 53.2356 41.066C53.2161 41.4114 53.2939 41.7951 53.0121 42.1117C52.7303 41.9486 52.8177 41.6896 52.8274 41.4593C52.8469 40.6439 52.876 39.8284 52.9052 39.0129C52.9149 38.8306 52.9149 38.6484 52.9052 38.4661C52.9052 38.1591 52.8955 37.7945 52.5553 37.7082C52.2347 37.6218 52.1084 37.9768 51.9723 38.1879C51.6128 38.7443 51.263 39.3199 50.9131 39.8859C50.7577 40.1354 50.6313 40.4232 50.3398 40.5575C50.1066 40.2985 50.3107 40.1354 50.3981 39.9723C50.7868 39.3199 51.1949 38.6771 51.5933 38.0344C51.7683 37.7561 51.9432 37.4683 51.8363 37.0558C51.088 37.2093 50.4856 37.6218 49.8248 37.9C49.6013 37.996 49.3972 38.1303 49.1737 38.2358C49.0571 38.2934 48.9405 38.2934 48.8822 38.1495C48.8434 38.0535 48.9017 37.9672 48.9794 37.9192C49.2418 37.7657 49.5041 37.6122 49.7762 37.4779C50.3398 37.1901 50.9131 36.9215 51.5156 36.6337C51.0783 36.1156 50.5925 35.9717 50.0094 35.9813C48.6976 36.0005 47.3858 35.9909 46.0156 35.9909C46.1517 35.6263 46.4529 35.6551 46.6958 35.6551C47.6773 35.6359 48.6587 35.5688 49.6402 35.6359C50.5633 35.7031 51.3115 35.4728 51.9237 34.7053C51.3893 34.1009 50.5439 33.909 49.8831 33.3814C50.2912 33.1319 50.5439 33.3718 50.7965 33.4773C50.9326 33.5349 51.0686 33.6212 51.1949 33.698C52.2055 34.2736 52.0403 34.3024 52.5165 33.2854C53.0412 33.3718 53.0412 33.3814 53.5659 34.1489C53.9838 33.9474 54.1587 33.3142 54.7903 33.4102C54.8681 33.4198 55.0235 33.0168 55.1304 32.8058C55.6357 31.7025 56.1022 30.58 56.7338 29.5439C56.8893 29.2848 56.9961 28.9395 57.55 28.8819C57.0836 29.7741 56.6658 30.5608 56.2771 31.3571C55.8787 32.1726 55.5191 32.9976 55.1402 33.8323C55.6454 34.1105 56.005 33.9762 56.3742 33.6884C56.967 33.2279 57.55 32.7482 58.2302 32.422C58.4635 32.7194 58.24 32.8153 58.1136 32.9113C57.6278 33.2758 57.1322 33.6308 56.6366 33.9954C56.4228 34.1585 56.1702 34.312 56.0536 34.5614C55.9272 34.8204 55.558 35.1274 55.7815 35.3481C56.0633 35.6455 56.3645 36.0676 56.9281 35.9525C57.6764 35.799 58.4343 35.6743 59.1825 35.5304C59.406 35.492 59.6101 35.4153 59.8044 35.5783Z" fill="black"/>
<path d="M56.0781 38.1988C57.049 38.5354 57.9022 39.0643 58.6868 39.6895C58.0592 39.6222 56.7058 38.872 56.0781 38.1988Z" fill="black"/>
<path d="M56.8169 41.9683C56.977 42.2379 57.2471 42.4883 57.1871 42.8541C56.8969 42.883 56.8169 42.7001 56.7169 42.5557C55.9765 41.4291 55.2862 40.2737 54.776 39.022C54.726 38.9064 54.686 38.7909 54.656 38.6753C54.606 38.502 54.4959 38.2805 54.736 38.2131C54.9961 38.1361 55.0061 38.3865 55.0562 38.5501C55.4663 39.773 56.1666 40.861 56.8169 41.9683Z" fill="black"/>
<path d="M52.3506 33.1675L52.3602 33.1772L52.3506 33.1869C52.3506 33.1772 52.3506 33.1675 52.3506 33.1675Z" fill="#FCE727"/>
<path d="M52.4307 33.2266V33.2364H52.4209L52.4307 33.2266Z" fill="#FCE727"/>
<path d="M51.5811 30.9851C52.1798 31.4199 52.5275 32.386 52.4212 33.2071C51.9384 32.5695 51.8225 31.8063 51.5811 30.9851Z" fill="black"/>
<path d="M48.3262 58.3061C48.6545 58.3834 48.9732 58.451 49.3982 58.5476C46.4044 62.1801 42.6574 64.1702 38.1764 64.8368C36.9402 65.0204 35.733 65.3392 34.5742 65.7932C33.1932 66.3439 31.8315 66.9525 30.4119 67.4163C29.7165 67.6385 29.1274 68.0829 28.548 68.5176C28.2873 68.2761 28.3935 68.0152 28.3935 67.793C28.3838 65.5614 28.548 63.3491 29.0116 61.1657C29.1564 60.4798 29.3592 59.8035 29.6586 59.1756C30.3056 57.8327 30.8561 56.4415 31.3969 55.0504C32.2178 52.9443 33.5119 51.1474 35.115 49.5727C35.6268 49.0703 35.6751 49.08 36.0324 49.6886C36.187 49.9495 36.3415 50.22 36.4573 50.5001C36.9982 51.872 38.0025 52.8187 39.2387 53.5433C39.963 53.9684 40.6003 54.4707 41.0736 55.1663C41.7978 56.2193 42.8215 56.828 44.0094 57.2144C45.4097 57.6781 46.8679 57.9776 48.3262 58.3061Z" fill="#13751E"/>
<path d="M41.3343 20.1455C41.8268 21.073 41.3053 21.556 40.5907 22.039C38.4467 23.4882 36.9692 25.5363 35.5785 27.6617C35.3274 28.0384 35.1633 28.4732 34.9701 28.8886C34.9025 29.0238 34.9025 29.2364 34.8059 29.304C34.0816 29.787 34.1975 30.5889 34.0333 31.2748C33.6277 33.0041 33.396 34.7527 33.4249 36.5303C33.4346 36.8974 33.4153 37.2645 33.3573 37.622C33.1256 39.1194 33.1835 40.5975 33.4829 42.0756C33.6471 42.8775 33.6084 42.9354 32.8552 43.0514C29.8228 43.5247 26.9738 44.5874 24.1829 45.795C22.6763 46.4423 21.1794 47.1379 19.6922 47.8238C18.1084 48.5484 16.3991 48.8865 14.738 49.3985C14.429 49.4951 14.0717 49.5048 13.7433 49.4662C12.2947 49.2826 10.8268 49.157 9.61964 48.1909C9.08849 47.7659 8.44144 47.5533 7.76543 47.476C5.92088 47.2731 4.56886 46.2201 3.38101 44.9062C3.21683 44.7227 3.043 44.5584 3.28443 44.2879C3.51621 44.0174 3.6997 44.1527 3.91216 44.2879C4.85858 44.8773 4.90686 44.8869 5.40904 44.3846C6.11403 43.6986 6.26854 42.9741 5.85328 42.2495C5.77602 42.1143 5.70842 41.9597 5.59253 41.8824C5.00343 41.5249 4.81029 40.9067 4.50125 40.3463C3.84456 39.1677 3.02368 38.1726 1.58474 37.9504C1.29502 37.9021 1.26605 37.7089 1.26605 37.4867C1.25639 37.0906 1.26605 36.6945 1.2564 36.2984C1.23708 35.4773 1.27571 34.6464 1.16948 33.8349C0.957017 32.096 1.29502 30.4633 1.86481 28.821C2.86917 25.913 4.3564 23.2563 6.06574 20.7348C7.26325 18.9669 8.7891 17.4405 10.5274 16.1846C13.5115 14.0302 16.6598 12.2236 20.2717 11.3252C21.2277 11.0837 22.1645 10.8615 23.0047 10.9387C25.4866 10.9387 27.7464 11.4314 29.9966 11.9241C30.6243 12.0594 31.2424 12.1947 31.8894 12.243C33.2028 12.3396 34.4679 12.6584 35.7137 13.0545C36.1483 13.1897 36.6022 13.3636 36.9305 13.6631C38.0411 14.6871 39.2483 15.6339 39.8567 17.0927C40.0306 17.5178 40.2913 17.8945 40.6003 18.2423C40.9963 18.6867 41.2763 19.1794 41.2667 19.7977C41.2763 19.904 41.286 20.0489 41.3343 20.1455ZM19.0355 25.372C19.0548 24.831 18.881 24.5895 18.3885 24.4059C17.7994 24.1838 17.2199 24.2997 16.7371 24.6378C15.4623 25.5266 14.2358 26.4927 13.357 27.7776C12.1595 29.5455 11.4642 31.5163 11.358 33.6804C11.3869 34.0475 11.4159 34.4049 11.4545 34.772C11.4835 35.0232 11.609 35.2357 11.8215 35.371C12.4589 35.7768 13.3184 35.5932 13.753 34.9459C14.0234 34.5402 14.2069 34.0861 14.3517 33.6127C14.9312 31.6419 16.0128 29.9706 17.3262 28.4249C17.7801 27.8935 18.2147 27.3428 18.572 26.7439C18.8231 26.3188 19.0259 25.8744 19.0355 25.372Z" fill="#FCE727"/>
<path d="M35.1928 48.104C35.3376 48.4422 35.3763 48.6837 35.0479 48.9735C32.8943 50.9443 31.3588 53.3306 30.4124 56.0936C30.1999 56.7215 29.9006 57.3301 29.6301 57.9484C29.3211 58.644 29.0507 59.3589 28.3747 59.813C28.2298 59.9096 28.1333 60.0835 28.0367 60.238C27.747 60.7501 27.3703 61.1848 26.9454 61.5809C24.8594 63.4841 22.4837 64.8656 19.6638 65.31C18.3601 65.5129 17.0563 65.4356 15.8105 64.8946C14.8834 64.4985 13.9177 64.2183 12.9616 63.9285C12.3822 63.7546 11.8027 63.5614 11.2329 63.3392C10.5569 63.0783 9.89057 62.7692 9.21456 62.4987C8.51923 62.2282 7.77563 62.3248 6.92578 62.2282C7.26379 60.9143 7.75631 59.7743 8.49026 58.7599C10.5086 55.939 12.5077 53.0697 15.2118 50.8477C16.1485 50.0748 17.1143 49.3213 18.3601 48.9349C20.4557 48.2876 22.3775 47.2056 24.3959 46.3361C27.1965 45.1382 30.0358 44.0561 33.0682 43.6021C33.6959 43.5055 33.7152 43.4958 33.8697 44.1238C34.2077 45.486 34.623 46.8191 35.1928 48.104Z" fill="#13751E"/>
<path d="M18.3889 24.4062C18.8814 24.5897 19.0553 24.8409 19.036 25.3722C19.0263 25.8746 18.8235 26.319 18.5724 26.7441C18.2151 27.3527 17.7709 27.8937 17.3266 28.4251C16.0132 29.9708 14.9316 31.6421 14.3522 33.6129C14.217 34.0767 14.0335 34.5307 13.7534 34.9461C13.3188 35.5934 12.469 35.777 11.8219 35.3712C11.5998 35.236 11.4839 35.0234 11.455 34.7722C11.4163 34.4148 11.3874 34.0477 11.3584 33.6806C11.4743 31.5165 12.16 29.5457 13.3575 27.7778C14.2363 26.4929 15.4628 25.5268 16.7375 24.638C17.2204 24.2999 17.7902 24.184 18.3889 24.4062ZM18.5241 25.6041C18.6304 25.1017 18.4469 24.8699 17.9254 24.8216C17.5005 24.7829 17.1528 24.9568 16.8148 25.179C15.9553 25.7297 15.3082 26.4832 14.7385 27.3237C14.5936 27.5363 14.4681 27.9324 14.1687 27.8164C13.7148 27.6425 13.6279 27.9613 13.4927 28.1932C12.498 29.8645 11.8413 31.6421 11.7833 33.4004C11.7833 33.7965 11.7737 33.98 11.7833 34.1636C11.8123 34.55 11.7543 34.9751 12.3048 35.091C12.8553 35.207 13.2029 35.0621 13.483 34.5017C13.6762 34.125 13.85 33.7289 13.9659 33.3231C14.526 31.4489 15.5497 29.8452 16.7762 28.3478C17.2204 27.8068 17.6357 27.2464 18.0509 26.6765C18.273 26.3577 18.4469 25.9905 18.5241 25.6041Z" fill="black"/>
<path d="M17.925 24.8215C18.4464 24.8698 18.6396 25.1017 18.5237 25.604C18.4368 25.9905 18.2726 26.3576 18.0408 26.6764C17.6256 27.2367 17.2103 27.8067 16.7661 28.3477C15.5396 29.8451 14.5256 31.4488 13.9558 33.323C13.8302 33.7288 13.6661 34.1249 13.4729 34.5017C13.1832 35.062 12.8355 35.2069 12.2947 35.091C11.7443 34.975 11.8119 34.55 11.7732 34.1635C11.7539 33.98 11.7732 33.7964 11.7732 33.4003C11.8312 31.6421 12.4879 29.8645 13.4826 28.1931C13.6274 27.9613 13.7047 27.6425 14.1586 27.8164C14.458 27.9323 14.5835 27.5362 14.7284 27.3237C15.2982 26.4832 15.9452 25.7296 16.8047 25.179C17.1524 24.9568 17.5 24.7829 17.925 24.8215Z" fill="#FFFAC9"/>
</svg>
