<svg width="82" height="76" viewBox="0 0 82 76" fill="none" xmlns="http://www.w3.org/2000/svg">
<path d="M76.132 41.7624C76.4954 42.7716 76.6226 43.7718 75.8594 44.6728C75.7504 44.808 75.5869 45.0152 75.7323 45.1143C76.2319 45.4567 75.8594 45.7991 75.814 46.1596C75.6959 46.9435 75.6232 47.7364 75.5415 48.5203C75.4416 49.4304 75.3507 50.3405 75.2326 51.2505C75.0691 52.512 74.5149 53.6474 73.6701 54.5394C72.4981 55.7738 71.0355 56.6479 69.3004 56.9903C68.728 57.0984 68.3737 56.8101 68.0103 56.4767C67.8741 56.3505 67.756 56.1883 67.5834 56.3415C67.2109 56.6659 66.8112 56.4046 66.4205 56.4316C66.0299 56.4586 65.7755 56.2334 65.5938 55.909C65.2849 55.3503 65.1305 54.7376 65.0306 54.1159C64.8852 53.2148 64.7944 52.3048 64.7853 51.2505C64.6763 49.8539 65.0487 48.4302 65.7846 47.0967C66.7112 45.4117 67.7832 43.8078 69.2004 42.4833C70.3905 41.375 71.8531 40.7712 73.4429 40.4919C73.988 40.3928 74.5331 40.4919 75.0509 40.7082C75.5597 40.9154 75.9503 41.2488 76.132 41.7624Z" fill="#BDEAC8"/>
<path d="M65.6064 60.908C66.0604 61.0263 66.1693 61.3173 66.1421 61.7447C66.1058 62.2086 65.8879 62.5632 65.5973 62.8906C64.9073 63.6455 64.1083 64.2548 63.2185 64.7368C62.8371 64.946 62.4558 65.1552 62.1017 65.3916C61.7203 65.6372 61.4752 65.9828 61.4752 66.4648C61.4661 67.5743 60.9395 68.4383 60.0497 69.0022C58.152 70.1936 56.2453 71.4031 54.0298 71.9488C52.9948 72.2034 51.9415 72.349 50.9064 72.64C49.9531 72.9037 49.0451 73.2584 48.237 73.8313C47.1111 74.6226 45.8309 74.8681 44.478 74.9409C42.8165 75.0227 41.2638 74.7044 39.802 73.9405C37.9044 72.9492 35.9704 72.8128 33.9456 73.4949C32.9469 73.8314 31.9027 73.8041 30.8676 73.704C30.0414 73.6222 29.4694 73.2311 29.2333 72.3944C29.1062 71.9488 28.9518 71.5123 28.7793 71.0848C28.398 70.1663 27.7351 69.5933 26.7273 69.4205C26.4277 69.3659 26.0826 69.4296 25.8193 69.0749C26.3096 68.6748 26.7364 68.2109 26.9543 67.6016C27.0269 67.4015 27.1904 67.3833 27.372 67.4106C27.6807 67.4652 27.9985 67.538 28.3072 67.5652C29.2151 67.6289 29.6328 67.2924 29.7962 66.3829C29.887 65.9009 29.8053 65.4189 29.7508 64.8732C31.1582 66.192 32.0843 68.5656 31.9027 70.2754C31.8755 70.5028 31.7847 70.7574 32.0389 70.8938C32.2841 71.0211 32.4747 70.8393 32.6472 70.6847C32.9287 70.4391 33.1557 70.139 33.3464 69.8116C34.3724 68.0563 34.6629 66.201 34.0637 64.2366C34.0092 64.0729 33.9638 63.9092 33.9184 63.7364C33.9093 63.7182 33.9275 63.6819 33.9547 63.5818C34.6629 63.691 35.1078 64.1457 35.4438 64.7186C35.8524 65.4007 36.0521 66.1556 36.1974 66.9195C36.3245 67.5743 36.4244 68.2291 36.5515 68.8748C36.6151 69.184 36.6695 69.5024 36.7785 69.7934C37.069 70.6028 37.5593 70.8575 38.4037 70.6392C38.7851 70.5391 39.1574 70.3754 39.6204 70.2117C39.7203 70.8211 39.6658 71.3758 39.6386 71.9397C39.6023 72.8128 39.8474 73.031 40.6373 72.7673C41.5998 72.449 42.5713 72.2216 43.5791 72.0943C44.4145 71.9852 44.6142 71.6487 44.242 70.9211C43.3431 69.1386 42.6258 67.2833 41.8449 65.4553C41.7087 65.1461 41.5181 64.8551 41.3092 64.464C42.0719 64.2275 42.6894 64.3549 43.2341 64.8642C43.6881 65.2916 43.9514 65.8373 44.1602 66.4102C44.4145 67.1196 44.6233 67.8381 44.8594 68.5474C45.1863 69.5206 45.6312 70.4209 46.4937 71.0302C46.5845 71.0939 46.7026 71.1667 46.7389 71.2667C46.9205 71.7487 47.1202 71.8397 47.5379 71.4486C47.9011 71.1121 48.3187 71.294 48.6184 71.5941C49.2449 72.2216 50.0166 72.2034 50.7975 72.1762C50.9791 72.1671 51.1425 72.1034 51.1788 71.8942C51.2061 71.7214 51.088 71.6305 50.9518 71.5759C50.4797 71.4122 50.625 71.103 50.7884 70.8211C50.9609 70.521 51.1607 70.239 51.3513 69.948C51.9052 69.0931 51.8416 68.2564 51.2787 67.4379C50.9791 67.0105 50.6068 66.6467 50.2164 66.3011C49.9349 66.0464 49.6625 65.7918 49.3811 65.5463C49.1268 65.328 49.0633 65.0915 49.2812 64.8005C49.4719 64.5458 49.5717 64.2366 49.6534 63.9274C49.7533 63.5727 49.7624 63.2089 49.3992 63.0089C49.0996 62.8543 49.1722 62.6633 49.2358 62.4359C49.5082 61.5265 49.7715 61.3628 50.6704 61.5992C51.4512 61.7993 52.2321 61.9994 52.9948 62.2631C53.9209 62.5905 54.1479 63.0089 53.9844 63.9911C53.9391 64.273 53.8755 64.564 53.7756 64.8278C53.4033 65.7827 53.4669 66.7467 53.6667 67.7198C53.7665 68.2382 54.2024 68.5202 54.4566 68.9294C54.5474 69.0658 54.729 68.984 54.8016 68.8475C54.9106 68.6566 54.8924 68.4201 55.1012 68.2473C56.4813 67.0923 56.6629 65.5826 56.3452 63.9183C56.209 63.2089 55.8912 62.5541 55.6642 61.8721C55.873 61.6811 55.991 61.8721 56.1091 61.963C57.0624 62.7451 57.7979 63.7001 58.2791 64.8369C58.6241 65.6645 58.6877 66.4648 57.9341 67.1378C57.7888 67.2651 57.6254 67.4379 57.7434 67.6653C57.8796 67.9199 58.1248 67.8744 58.3518 67.8563C58.4335 67.8472 58.5243 67.829 58.606 67.8108C60.204 67.3651 62.6374 64.4731 61.2936 62.536C61.2663 62.4996 61.2845 62.4268 61.2754 62.3177C61.9291 62.254 62.4376 62.4996 62.9007 62.9361C63.3637 63.3817 63.6361 63.2908 63.7542 62.6451C63.845 62.1358 63.8904 61.6174 63.9267 61.099C63.9812 60.2805 63.9902 60.2623 64.7892 60.5715C65.0707 60.6898 65.334 60.8262 65.6064 60.908Z" fill="#8ADD9E"/>
<path d="M71.0771 56.9661C71.2043 56.9207 71.3224 56.8118 71.5132 56.8935C71.3678 57.4382 71.0498 57.8105 70.5229 58.0466C69.2329 58.6186 68.0155 59.3449 66.671 59.808C66.5347 59.8534 66.3348 59.8806 66.2803 59.9805C65.9533 60.5888 65.5444 60.2801 65.1265 60.1167C63.5821 59.4993 63.5549 59.5174 63.5003 61.1517C63.4913 61.5512 63.5367 61.9598 63.2823 62.3593C62.5374 61.869 61.7288 61.7328 60.8839 61.7691C60.6841 61.7782 60.4569 61.7691 60.3843 62.0143C60.3207 62.205 60.4569 62.3321 60.5569 62.4773C61.4472 63.6577 61.4653 64.384 60.6386 65.6007C60.2298 66.1999 59.7574 66.7175 58.9761 67.1533C59.5485 65.6733 59.0034 64.5475 58.2948 63.467C57.8223 62.7406 57.25 62.0869 56.5596 61.5512C56.3324 61.3697 56.0962 61.1971 55.8055 61.1336C55.424 61.0519 55.1877 61.2425 55.1787 61.633C55.1696 62.0234 55.3513 62.3593 55.4875 62.7043C55.8237 63.5669 56.1053 64.4385 56.0599 65.3918C56.0326 65.982 55.8782 66.5268 55.6056 67.0443C55.433 67.3712 55.215 67.6708 54.8607 67.8251C54.143 67.1079 54.0885 66.3089 54.3519 65.4191C54.5336 64.8198 54.7244 64.2115 54.7335 63.5669C54.7426 62.8224 54.4337 62.2776 53.7614 61.978C52.6531 61.4695 51.463 61.2335 50.2819 60.9701C49.8095 60.8612 49.428 61.1063 49.2009 61.524C48.6921 62.4683 48.3832 63.4852 48.2651 64.5565C48.2197 64.956 48.3741 65.2557 48.6739 65.5462C49.1463 66.0093 49.6369 66.4632 50.1275 66.9081C50.4455 67.1987 50.7544 67.5074 50.9906 67.8796C51.3721 68.4698 51.3903 69.069 51.0269 69.6683C50.6817 70.2312 50.2274 70.7306 50.1638 71.4297C50.1366 71.6748 49.9458 71.6476 49.7641 71.5931C49.4825 71.5023 49.2735 71.3026 49.0464 71.121C48.6648 70.8214 48.2469 70.6489 47.7654 70.7851C47.4111 70.894 47.1568 70.7578 46.8933 70.5581C46.3482 70.1404 45.9757 69.5956 45.7486 68.9601C45.4942 68.261 45.2762 67.5437 45.04 66.8264C44.8038 66.1182 44.5312 65.41 44.0588 64.8199C43.2957 63.8574 42.1238 63.5578 41.0336 64.0209C40.4158 64.2842 40.3704 64.4839 40.8792 64.8925C41.188 65.1376 41.3788 65.4463 41.5242 65.7914C42.251 67.5437 42.9232 69.3323 43.8226 71.012C43.968 71.2844 44.0043 71.5477 43.6137 71.5841C42.5235 71.6839 41.4787 71.9835 40.3795 72.3467C40.3795 71.5659 40.3795 70.8759 40.3795 70.1949C40.3795 69.4776 40.216 69.3777 39.5619 69.6683C39.2166 69.8226 38.8896 70.0042 38.5353 70.1223C37.8448 70.3583 37.5995 70.2312 37.3815 69.523C37.2452 69.0599 37.1635 68.5697 37.0817 68.0885C36.9 67.0716 36.7456 66.0365 36.3277 65.0741C35.9279 64.1389 35.3374 63.3853 34.2836 63.1129C34.0928 63.0584 33.8838 63.0221 33.6931 63.0312C33.3751 63.0493 33.2206 63.2309 33.3388 63.5578C33.4114 63.7485 33.5205 63.921 33.584 64.1117C34.3381 66.1909 34.011 68.1157 32.8028 69.9407C32.7028 69.868 32.6301 69.8408 32.6301 69.8136C32.6301 68.5878 32.1759 67.5074 31.5945 66.4632C30.9676 65.3283 30.1863 64.2842 29.4959 63.1856C29.4505 63.1129 29.405 63.0403 29.3414 62.9767C29.2597 62.895 29.1597 62.8224 29.0416 62.8768C28.9145 62.9313 28.8872 63.0493 28.9145 63.1674C28.9599 63.358 29.0326 63.5487 29.0961 63.7394C29.3596 64.5384 29.5141 65.3555 29.4505 66.1999C29.3959 66.9717 29.1052 67.2078 28.3239 67.1351C27.6244 67.0625 27.0248 66.8446 26.5161 66.2726C25.8619 65.5371 25.1988 64.8199 24.6355 64.0209C23.4726 62.3775 22.3007 60.725 21.1378 59.0725C20.7472 58.5096 20.3656 57.9376 19.9932 57.1749C20.6654 57.3384 21.2014 57.4836 21.7465 57.5926C22.2462 57.6925 22.3825 57.529 22.2189 57.0297C22.0463 56.4849 21.8283 55.9492 21.6466 55.4044C21.5557 55.1411 21.4831 54.8688 21.5194 54.5601C21.7102 54.8415 21.901 55.123 22.0827 55.4044C22.4642 55.9764 22.8367 56.5666 23.2455 57.1295C23.9087 58.0647 24.799 58.6731 25.9619 58.782C27.3064 58.9091 28.433 59.5084 29.5231 60.2347C30.3862 60.8067 31.2402 61.406 32.1214 61.9507C32.503 62.1868 32.939 62.5409 33.3933 62.2413C33.8384 61.9507 33.7112 61.4241 33.6567 60.9611C33.6476 60.8794 33.6749 60.7976 33.684 60.7069C34.0201 60.7159 34.1927 60.9702 34.4108 61.1427C35.292 61.7964 36.1641 62.4501 37.1362 62.9767C37.5905 63.2219 38.0629 63.4579 38.5807 63.5487C39.5346 63.7212 40.0161 63.3217 40.0252 62.3502C40.0343 61.6693 39.789 61.0519 39.4801 60.4617C39.3529 60.2166 39.2166 59.9714 39.1621 59.6082C39.6164 59.8261 40.0615 60.0531 40.5249 60.271C40.9973 60.4889 41.4606 60.725 41.9421 60.9157C42.9142 61.2879 43.8681 61.2879 44.7402 60.6433C45.3216 60.2075 45.9485 60.1802 46.6298 60.3527C47.4293 60.5616 48.2288 60.5707 49.001 60.2256C49.4189 60.044 49.755 59.7807 49.8095 59.2995C49.8913 58.6549 50.3183 58.437 50.8906 58.3825C52.2624 58.2554 53.5979 58.2554 54.7062 59.2904C55.1605 59.7172 55.7147 59.6718 56.2325 59.354C56.8048 59.009 57.2954 58.5641 57.7133 58.0466C58.2766 57.3474 58.4401 57.3202 59.2214 57.7923C59.7665 58.1192 60.2752 58.4915 60.8567 58.7548C62.1195 59.3268 62.8372 59.0907 63.5003 57.8741C63.573 57.747 63.6275 57.6198 63.6911 57.4927C64.1726 56.5212 64.2181 56.5031 65.2901 56.8027C65.4808 56.8572 65.6989 56.8753 65.8715 56.9752C67.5976 58.0738 69.3328 57.5835 71.0771 56.9661Z" fill="#6CC080"/>
<path d="M24.1562 64.3829C24.7164 65.1832 25.3398 65.9291 26.1258 66.7385C24.879 66.8204 24.2918 67.457 24.2195 68.6667C23.1895 68.2392 22.2589 67.8936 21.4548 67.2751C20.0815 66.211 18.907 65.0013 18.0215 63.4552C17.0458 61.7635 15.9164 60.1628 14.9587 58.4529C14.1636 57.0249 13.1246 56.8067 11.6881 57.5979C11.3628 57.7708 11.0647 58.0072 10.7665 58.2255C10.3328 58.5347 10.0618 58.4984 9.79073 58.0527C9.6281 57.7798 9.51065 57.4797 9.4203 57.1796C9.13118 56.1882 8.84207 55.1877 8.58006 54.1873C8.2277 52.8139 7.76691 51.486 7.10737 50.2218C6.27616 48.6484 5.84248 46.9476 5.62564 45.1922C5.55336 44.5556 5.28231 44.0644 4.8125 43.6733C5.46301 43.6824 6.11352 43.7097 6.76404 43.6915C7.86629 43.6551 8.72462 44.3009 8.99566 45.3923C9.06794 45.6743 9.13119 45.9471 9.2125 46.2291C9.24864 46.3655 9.32996 46.4928 9.5739 46.4655C9.52873 45.6743 9.48355 44.8921 9.23057 44.0099C9.66424 44.2372 9.72749 44.5374 9.85398 44.7829C10.631 46.2654 11.3899 47.748 12.1579 49.2305C12.953 50.7584 13.9829 52.0772 15.284 53.205C16.603 54.351 17.886 55.5606 19.187 56.7248C19.3858 56.8976 19.3948 57.0613 19.3948 57.316C19.4039 57.8708 19.3497 58.4893 20.0996 58.7075C20.3164 58.7712 20.3977 59.0441 20.5242 59.2351C21.7439 60.9358 22.9546 62.6548 24.1562 64.3829ZM13.215 56.0154C13.4137 55.879 13.3957 55.6607 13.3595 55.4697C13.1879 54.5056 12.9168 53.5688 12.3838 52.723C12.2844 52.5683 12.194 52.3501 11.8688 52.4683C11.8868 52.9685 12.2844 53.3141 12.4199 53.7689C12.5735 54.2509 12.7994 54.7148 12.8174 55.3696C12.203 54.8694 11.679 54.4874 11.2454 53.9963C11.1279 53.8689 10.9653 53.7325 10.8117 53.9053C10.6581 54.0781 10.8117 54.2236 10.9382 54.3328C11.5164 54.8421 12.0946 55.3605 12.6819 55.8608C12.8355 55.9972 12.9981 56.1609 13.215 56.0154Z" fill="#8ADD9E"/>
<path d="M67.5129 42.514C68.1934 42.9583 67.6127 43.2665 67.3859 43.5748C66.7055 44.5086 66.0614 45.4606 65.4807 46.4579C64.4102 48.2892 64.0564 50.2657 64.3104 52.36C64.4556 53.5839 64.5463 54.8169 65.0543 55.9593C64.9636 56.0137 64.9092 56.0772 64.8729 56.0681C63.9022 55.8596 63.3941 56.3582 63.0131 57.1923C62.3417 58.661 61.8972 58.7789 60.4819 57.972C60.0283 57.7181 59.611 57.4099 59.1574 57.156C58.3046 56.6755 57.8056 56.7662 57.2159 57.5368C56.8439 58.0264 56.4085 58.4344 55.9004 58.7698C55.5194 59.0237 55.1474 59.069 54.7936 58.7426C53.5688 57.6003 52.0628 57.6456 50.5568 57.8088C49.8583 57.8813 49.2776 58.1896 49.1506 58.9874C49.078 59.4589 48.7424 59.6493 48.3432 59.7852C47.8079 59.9575 47.2545 59.9484 46.7192 59.7943C45.8029 59.5404 44.9683 59.613 44.179 60.2023C43.5802 60.6556 42.8998 60.6556 42.2012 60.4289C41.539 60.2204 40.9402 59.885 40.3142 59.5858C39.5068 59.205 38.6993 58.8333 37.8828 58.4616C37.7014 58.38 37.4837 58.2984 37.3385 58.5069C37.1843 58.7336 37.3748 58.8786 37.5199 59.0146C37.9554 59.4317 38.3455 59.894 38.6721 60.4108C38.9624 60.8823 39.1892 61.3809 39.289 61.9249C39.4614 62.8859 39.1167 63.1942 38.2094 62.8678C37.774 62.7136 37.3566 62.5142 36.9665 62.2694C35.4333 61.3446 34.0362 60.2295 32.7026 59.0418C32.4576 58.8242 32.2399 58.2349 31.8407 58.6248C31.5322 58.924 32.0494 59.1959 32.2308 59.4498C32.6209 59.9938 32.9475 60.5649 32.9838 61.254C33.0019 61.6348 32.8659 61.7254 32.512 61.5532C32.1764 61.39 31.8588 61.1814 31.5504 60.982C30.8337 60.5015 30.126 60.0028 29.4002 59.5314C28.3751 58.8696 27.3045 58.3437 26.0526 58.2349C24.9458 58.1442 24.1111 57.564 23.4942 56.6574C23.0769 56.0409 22.6686 55.4062 22.2513 54.7897C22.0154 54.4271 21.7795 54.0644 21.5164 53.729C21.3259 53.4933 21.1172 53.1669 20.7453 53.3573C20.4278 53.5295 20.5185 53.8559 20.591 54.137C20.709 54.5812 20.836 55.0254 20.9721 55.4606C21.1263 55.9502 21.2987 56.4307 21.4892 57.02C20.464 56.9203 19.7473 56.5033 19.1123 55.9411C17.6698 54.6537 16.2454 53.3573 14.8211 52.0608C13.9592 51.272 13.306 50.3291 12.7526 49.3137C11.9815 47.8994 11.2466 46.4669 10.4936 45.0435C10.294 44.6627 10.1035 44.2729 9.88574 43.9012C9.74059 43.6564 9.63172 43.3391 9.29605 43.33C8.89687 43.3209 9.00574 43.7652 8.82429 43.9646C8.61563 43.9828 8.50677 43.8286 8.3979 43.7017C7.83542 43.0852 7.90799 42.8586 8.7245 42.6047C9.55008 42.3418 10.3666 42.0516 11.0107 41.4351C11.2284 41.2266 11.4553 41.2176 11.7274 41.2357C12.4714 41.281 13.1518 41.0453 13.7687 40.6555C14.6487 40.1024 15.4834 39.495 16.1547 38.6881C16.318 38.4886 16.4632 38.2348 16.7172 38.1622C17.2706 38.0172 17.5881 37.6455 17.7877 37.1377C18.6949 37.6545 18.6949 37.6545 18.4863 38.407C19.0397 38.3889 19.5568 38.2257 20.083 38.1894C21.1445 38.0988 22.1696 38.262 23.1494 38.5611C27.0596 39.767 31.0877 40.5195 35.0341 41.5711C36.903 42.0607 38.8173 42.2964 40.7315 42.5231C44.8141 43.0127 48.7514 44.0734 52.6072 45.4606C55.2109 46.3944 57.7965 47.3645 60.3368 48.4524C60.7359 48.6247 60.745 48.6156 61.1986 48.6066C61.1714 48.3527 60.9446 48.3164 60.7722 48.2439C56.4901 46.3944 52.1263 44.7534 47.6356 43.4569C44.9411 42.6772 42.1831 42.2511 39.407 41.9247C37.8919 41.7434 36.3859 41.4805 34.9162 41.0634C32.0856 40.2656 29.1825 39.8123 26.361 38.9691C24.7462 38.4886 23.1313 37.9718 21.4892 37.7089C21.4438 37.446 21.589 37.3644 21.7069 37.31C22.3964 37.0108 22.7049 36.3853 23.0769 35.805C23.5214 35.0978 23.5214 35.0888 24.3198 35.3517C25.3086 35.6872 26.3066 35.9229 27.359 35.9229C27.8489 35.9229 28.2209 35.7869 28.5837 35.4333C29.9446 34.1006 31.3417 32.8222 32.7298 31.5167C32.8477 31.3988 32.9566 31.2447 33.1743 31.2537C33.4646 31.4713 33.51 31.834 33.6461 32.1422C34.8164 34.7714 36.5401 35.4968 39.2346 34.4904C39.3707 34.436 39.5068 34.3997 39.6338 34.3272C40.4412 33.8648 41.2759 33.5657 42.2375 33.6291C42.8091 33.6654 43.3625 33.4024 43.8887 33.1577C44.3877 32.931 44.8685 32.6771 45.3675 32.4414C46.5469 31.8975 46.9188 31.9518 47.8351 32.8403C48.2706 33.2574 48.6789 33.7107 49.1143 34.1187C49.45 34.436 49.7857 34.7533 50.1667 35.0072C50.9923 35.5693 51.4278 35.4333 51.836 34.5357C51.8995 34.4088 51.9267 34.2638 52.1173 34.1731C52.462 34.2819 52.6979 34.572 52.9882 34.8077C53.4146 35.1522 53.8138 35.5239 54.3037 35.7869C54.7573 36.0317 55.22 36.1405 55.7008 35.8685C56.1635 35.5965 56.5808 35.7144 56.9891 35.9863C57.7602 36.4941 58.4316 37.1287 59.1211 37.7452C59.5656 38.1532 60.0192 38.5521 60.4819 38.951C60.8176 39.2321 61.2077 39.3318 61.6069 39.1051C62.1694 38.7878 62.6774 38.9329 63.1219 39.3046C64.383 40.3381 65.7711 41.136 67.2498 41.7978C67.4585 41.8885 67.894 41.97 67.4676 42.3599C67.4766 42.3871 67.4857 42.4959 67.5129 42.514Z" fill="#BDEAC8"/>
<path d="M80.5576 36.758C80.5848 37.8774 80.2762 38.8967 79.5317 39.7158C78.5694 40.7806 77.7886 41.9365 77.2439 43.2561C77.1985 43.3562 77.1531 43.4745 76.9534 43.52C77.2167 42.6554 76.7536 41.9729 76.4268 41.2812C76.0546 40.4803 75.2829 40.1891 74.4749 39.9979C73.7123 39.825 73.7123 39.8159 73.903 39.0605C73.9483 38.8876 74.0482 38.7602 73.7577 38.6874C73.5217 38.6328 73.6669 38.4053 73.6851 38.2506C73.7577 37.7955 73.8576 37.3405 73.903 36.8854C73.9937 36.0026 73.7486 35.2745 72.8861 34.8741C71.8693 34.4099 71.4971 33.5635 71.4517 32.4987C71.4154 31.5977 71.4971 30.7058 71.5607 29.8139C71.6061 29.2496 71.488 28.8037 70.9524 28.5033C70.4531 28.2212 70.1898 27.7298 69.9537 27.2292C69.6088 26.5011 69.3546 25.7275 69.1003 24.9631C68.3196 22.6059 67.5388 20.2487 66.7581 17.8916C66.5856 17.3728 66.3858 16.8631 66.1861 16.3444C65.823 15.3706 65.2238 14.5788 64.3976 13.9417C63.7621 13.4503 63.1175 12.9497 62.4911 12.4491C61.8102 11.894 61.4561 11.1659 61.3926 10.2467C62.9632 11.3934 64.7063 12.2489 66.2769 13.3866C67.0304 13.9326 67.6568 14.6061 68.2288 15.3433C68.9733 16.2989 69.7268 17.2454 70.4985 18.1828C71.8512 19.8483 72.6773 21.7777 73.3401 23.789C73.5489 24.417 73.7123 25.0632 73.8939 25.7002C74.0664 26.3282 74.2479 26.9471 74.0755 27.6388C73.9211 28.2394 74.1027 28.8583 74.4658 29.3679C75.3192 30.5693 75.5734 31.9526 75.7459 33.3633C75.9002 34.6283 76.0909 35.8752 76.4813 37.0947C76.8354 38.196 76.9352 39.3518 76.681 40.5167C76.6356 40.7078 76.4631 41.0355 76.8081 41.0901C77.1077 41.1356 77.1168 40.7806 77.144 40.5713C77.2984 39.2426 77.2257 37.9229 76.8081 36.6306C76.4087 35.3837 76.2452 34.1187 76.2543 32.8081C76.2634 32.0983 76.1545 31.3429 75.873 30.633C75.5189 29.7229 75.3101 28.7582 75.0559 27.8117C74.9652 27.4567 75.0923 27.3566 75.4645 27.4294C75.7641 27.4841 75.991 27.657 76.1998 27.8572C77.4709 29.0949 78.5875 30.4419 79.2321 32.1256C79.45 32.6898 79.7133 33.2359 79.9584 33.7911C80.3851 34.7467 80.5304 35.7296 80.5576 36.758Z" fill="#8ADD9E"/>
<path d="M70.0006 37.4215C70.7808 37.7552 70.9622 38.4857 70.4814 39.1621C70.0097 39.8295 69.538 40.4879 69.4292 41.3357C69.3748 41.7596 68.8124 41.958 68.4404 41.7506C66.7714 40.8036 64.9663 40.0821 63.4877 38.8104C62.9344 38.3414 62.2722 38.161 61.5647 38.5398C61.1837 38.7473 60.9025 38.5398 60.6394 38.2963C60.0407 37.7552 59.4421 37.2231 58.8434 36.6819C58.3717 36.258 57.8909 35.8522 57.3467 35.5185C56.8115 35.1848 56.2582 35.0044 55.6413 35.3652C55.2422 35.5997 54.8522 35.5005 54.5075 35.257C54.1083 34.9774 53.7274 34.6617 53.3464 34.3641C53.0742 34.1567 52.8203 33.9132 52.5209 33.7418C52.0764 33.4712 51.8497 33.5614 51.632 34.0124C51.4868 34.31 51.5503 34.7609 51.124 34.8421C50.6886 34.9233 50.3711 34.5896 50.0808 34.328C49.6091 33.9041 49.1737 33.4532 48.7111 33.0203C48.4027 32.7227 48.0852 32.425 47.7587 32.1455C47.2053 31.6765 46.5704 31.5773 45.8991 31.8568C45.2914 32.1184 44.7017 32.425 44.1031 32.6956C43.3683 33.0293 42.6336 33.363 41.7265 33.2818C41.7355 32.903 41.9714 32.4972 41.6448 32.1635C41.4816 32.0012 41.3364 31.7757 41.0734 31.8839C40.8012 31.9921 40.8557 32.2266 40.901 32.4701C41.0371 33.1105 41.0099 33.1646 40.4475 33.4893C39.6674 33.9312 38.8419 34.2649 37.953 34.4182C36.6286 34.6527 35.5764 34.2198 34.8053 33.1105C34.3246 32.425 34.0978 31.6133 33.6987 30.8828C33.5626 30.6303 33.6805 30.504 33.862 30.3958C35.404 29.521 35.8848 28.0689 36.0753 26.4365C36.2023 25.3182 36.1932 24.2088 36.0662 23.0905C36.0208 22.6756 35.9573 22.2518 36.0299 21.7467C36.3837 21.9451 36.4835 22.2517 36.6014 22.5223C36.8554 23.0995 37.0731 23.6948 37.2998 24.281C37.4359 24.6327 37.572 24.9754 37.7987 25.2731C38.2614 25.8864 38.8238 25.9765 39.4406 25.5076C39.9486 25.1198 40.2933 24.5876 40.7105 24.1096C40.9101 23.8842 41.0643 23.4693 41.409 23.5685C41.7265 23.6587 41.7265 24.0916 41.7718 24.3892C41.8716 25.0115 41.8807 25.6428 41.7083 26.2651C41.2911 27.7262 40.5745 29.0159 39.4769 30.0801C39.2864 30.2695 38.9145 30.4679 39.1503 30.7656C39.4134 31.0903 39.6583 30.7566 39.8579 30.5672C40.1935 30.2425 40.6017 30.026 41.0189 29.8366C41.672 29.53 42.2798 29.1512 42.8785 28.7453C44.2301 27.8434 45.4002 26.7702 46.3073 25.4084C46.5704 25.0115 46.9423 24.6688 47.2779 24.3171C47.4775 24.1096 47.7133 23.9473 48.0036 23.8661C48.7927 23.6407 49.3914 24.1457 49.2826 24.9574C49.21 25.4895 48.9197 25.9134 48.6023 26.3283C48.1306 26.9506 47.541 27.4556 47.0058 28.0148C46.779 28.2583 46.4162 28.5018 46.6248 28.8806C46.8697 29.3225 47.296 29.0971 47.6317 28.9979C48.7111 28.6732 49.7089 28.1591 50.6977 27.627C51.1512 27.3835 51.6047 27.1219 52.0855 26.9326C52.6116 26.7161 52.8203 26.8784 52.8747 27.4466C52.911 27.8795 52.8384 28.3034 52.6933 28.7183C52.6298 28.9077 52.5481 29.088 52.4937 29.2865C52.4574 29.4037 52.4756 29.521 52.5663 29.6021C52.6933 29.7104 52.8293 29.6743 52.9563 29.5841C53.1196 29.4668 53.2738 29.3406 53.4461 29.2324C53.9632 28.9077 54.5256 28.7093 55.1243 28.574C55.5415 28.4748 55.8046 28.6371 55.8953 29.034C55.9497 29.2865 55.986 29.539 55.9951 29.8006C56.0223 30.2876 56.0132 30.7746 56.0405 31.2616C56.0677 31.7396 56.24 32.1274 56.6391 32.4431C57.4464 33.0834 57.4555 33.2007 56.9022 34.0484C56.875 34.0935 56.8296 34.1386 56.7933 34.1837C56.7208 34.2829 56.7026 34.4002 56.7661 34.4994C56.8568 34.6347 57.002 34.6888 57.1471 34.6166C57.5553 34.4092 57.9544 34.1837 58.3626 33.9763C58.7889 33.7598 58.8978 33.7959 59.0701 34.2378C59.2062 34.5806 59.2969 34.9503 59.433 35.293C60.0226 36.7992 60.9841 36.9525 62.0545 35.7079C62.245 35.4915 62.4264 35.266 62.5715 35.0225C62.753 34.7339 62.9616 34.7429 63.2246 34.8601C63.7508 35.0946 64.1045 35.4914 64.3676 35.9875C64.7032 36.6278 64.8756 37.3223 64.9844 38.0348C65.1023 38.7923 65.1386 38.8014 65.9278 38.8014C66.3269 38.8014 66.7351 38.7563 67.1252 38.8735C67.2794 38.9186 67.4245 38.8825 67.4699 38.7112C67.5152 38.5398 67.3973 38.4496 67.2703 38.3775C66.9528 38.1881 66.599 38.2061 66.2543 38.2332C65.7464 38.2783 65.5468 38.0979 65.4742 37.5838C65.3835 36.9074 65.1568 36.249 64.8211 35.6358C64.4311 34.9233 63.8415 34.4543 63.0795 34.1747C62.7257 34.0484 62.4808 34.1116 62.2631 34.4272C62.0182 34.779 61.7733 35.1397 61.483 35.4554C60.8027 36.1949 60.3764 36.1138 59.9772 35.1668C59.823 34.797 59.7233 34.4092 59.5872 34.0304C59.306 33.2818 59.1155 33.1736 58.29 33.345C58.0451 33.39 57.9 33.381 57.8456 33.1195C57.7549 32.6325 57.4555 32.2988 57.0564 32.0462C56.7026 31.8298 56.5756 31.4961 56.5575 31.0993C56.5393 30.6393 56.5393 30.1884 56.5303 29.7284C56.5212 29.4127 56.494 29.0971 56.3942 28.7995C56.1674 28.1321 55.7865 27.8795 55.0789 27.9968C54.7977 28.0419 54.5165 28.1321 54.2444 28.2132C53.9723 28.2944 53.7092 28.3936 53.4099 28.5018C53.4099 28.0779 53.4371 27.7082 53.4008 27.3474C53.3645 26.9235 53.2375 26.6259 53.0198 26.4455L53.2557 26.3914C53.7636 26.9957 54.453 27.3384 55.342 27.4286C55.6322 27.4556 55.9135 27.4737 56.2037 27.4917C57.265 27.5729 58.1268 28.0238 58.8252 28.8265C59.2606 29.3226 59.7051 29.8096 60.1315 30.3146C61.483 31.8749 63.1974 32.6956 65.2747 32.7587C65.4198 32.7587 65.565 32.7678 65.7101 32.7768C66.3723 32.8309 66.4448 32.903 66.4902 33.5344C66.5083 33.8771 66.5355 34.2198 66.6172 34.5535C66.8712 35.6358 67.5061 36.3933 68.5221 36.8443C69.0301 37.0697 69.529 37.2141 70.0006 37.4215Z" fill="#8ADD9E"/>
<path d="M15.0096 13.6927C14.9732 13.7562 14.955 13.8288 14.946 13.9196C14.9096 14.2918 14.8732 14.6821 15.2187 14.9453C15.3369 15.0361 15.4369 14.9272 15.4823 14.8182C15.5732 14.6004 15.4096 14.3553 15.5823 14.083C16.3187 14.1193 17.0914 14.1284 17.8642 14.201C18.4915 14.2555 19.0369 14.555 19.3733 15.0996C19.6279 15.499 19.9551 15.617 20.3915 15.5989C20.8552 15.5898 21.3188 15.6352 21.7734 15.608C23.2188 15.5172 24.4825 16.0346 25.7007 16.7426C25.9644 16.8969 26.128 17.0059 26.028 17.4053C25.8007 18.2948 26.1462 18.8939 26.9735 19.2842C27.6371 19.602 28.319 19.5838 28.9917 19.3205C29.3917 19.1662 29.7826 18.9665 30.1645 18.7578C30.8917 18.3674 31.6372 18.3039 32.419 18.6035C32.61 18.6761 32.7918 18.7578 32.9918 18.8032C33.6191 18.9756 33.9009 18.8304 34.1009 18.195C34.2918 17.6231 34.4373 17.0331 34.6191 16.4612C34.6645 16.3069 34.7191 16.1072 34.9464 16.1163C35.11 16.1254 35.1918 16.2797 35.2464 16.3977C35.4646 16.8697 35.6646 17.3508 35.8828 17.8137C35.9646 17.9953 36.0828 18.2041 36.3373 18.077C36.5191 17.9862 36.51 17.7956 36.4555 17.6231C36.3282 17.1783 36.1646 16.7426 36.0737 16.2978C35.9737 15.8167 36.1009 15.7169 36.5737 15.8349C36.9373 15.9257 37.2919 16.0346 37.6464 16.1617C39.101 16.6519 40.5738 16.7608 42.0829 16.4975C42.2556 16.4703 42.4283 16.4521 42.6011 16.4431C43.3011 16.3977 43.3011 16.3977 43.5011 17.0603C43.9556 18.5671 44.5466 19.0664 46.1011 19.0664C47.1921 19.0664 48.0648 19.4386 48.7648 20.2555C49.083 20.6277 49.4194 20.9908 49.7558 21.3448C50.374 21.9983 51.0285 22.5521 52.0831 22.1527C52.1558 22.6338 52.2285 23.0513 52.2922 23.4779C52.4013 24.2223 52.5831 24.9485 52.9013 25.6383C53.0467 25.956 53.2195 26.2284 53.4195 26.4644L53.1831 26.5188C52.9286 26.31 52.5558 26.2737 52.0922 26.428C51.5376 26.6096 51.0558 26.9273 50.5467 27.1996C49.6376 27.6898 48.7285 28.1709 47.6739 28.5158C47.7466 28.1618 47.983 28.0347 48.1557 27.8622C48.6012 27.4084 49.0467 26.9636 49.4012 26.428C49.6558 26.0468 49.883 25.6383 49.9649 25.1754C50.0649 24.6035 50.0103 24.077 49.5285 23.6867C49.0103 23.2601 48.4285 23.1965 47.8194 23.4325C47.2921 23.6322 46.8921 24.0135 46.5466 24.4401C46.0739 25.0211 45.6284 25.6202 45.1648 26.2102C44.1284 27.5173 42.7283 28.3343 41.2101 29.3055C41.3465 28.7064 41.6101 28.4069 41.7829 28.0529C42.4011 26.773 42.7465 25.4568 42.3738 24.0407C42.2556 23.5959 42.1829 23.0876 41.6374 22.9605C41.1283 22.8425 40.8647 23.2601 40.5828 23.5778C40.201 24.0044 39.8646 24.4764 39.4646 24.894C38.9192 25.4568 38.5464 25.4114 38.201 24.7124C37.9192 24.1497 37.7282 23.5415 37.4919 22.9514C37.2646 22.3887 37.0373 21.8259 36.6373 21.3629C36.4464 21.1451 36.2282 20.9363 35.8918 21.0362C35.5464 21.1451 35.51 21.4446 35.5282 21.7442C35.5555 22.3161 35.5918 22.897 35.6464 23.4689C35.7737 24.8305 35.7191 26.1739 35.4373 27.5082C35.1646 28.7881 34.4373 29.6868 33.2645 30.2132C32.9827 30.0862 33.0463 29.8229 32.9827 29.6142C32.8827 29.2601 32.71 28.9515 32.2918 28.9515C31.9463 28.9515 31.9281 28.7518 31.919 28.5067C31.9099 27.6807 31.5736 27.0181 30.9463 26.4734C30.3645 25.9651 30.119 25.2389 29.9008 24.5128C29.7008 23.8229 29.5372 23.1239 29.3553 22.425C29.2644 22.0619 29.1372 21.7079 28.9281 21.3902C28.6371 20.9545 28.2462 20.8001 27.8189 20.9091C27.4189 21.018 27.128 21.3902 27.0826 21.8713C27.0462 22.198 27.1553 22.4976 27.2462 22.7971C27.328 23.0422 27.4189 23.2873 27.5462 23.5143C28.9371 26.0468 28.3462 28.534 27.3371 30.9939C27.3189 31.0302 27.2462 31.0484 27.1826 31.0847C26.9917 30.8487 27.2553 30.3948 26.8735 30.2859C26.4462 30.1588 26.2916 30.5764 26.0825 30.8214C25.6825 31.2753 25.3462 31.7836 24.8734 32.1739C24.2461 32.7004 23.8643 32.5733 23.6098 31.7927C23.4643 31.3479 23.4461 30.885 23.4552 30.422C23.4643 29.0967 23.4916 27.7715 23.4825 26.4462C23.4734 24.9394 23.2098 23.4689 22.737 22.0347C22.637 21.7351 22.5279 21.4356 22.3825 21.1542C22.0552 20.5188 21.5188 20.2555 20.8188 20.319C19.0006 20.4643 17.346 22.1163 17.2096 23.9499C17.1369 24.9303 17.2187 25.9106 17.2642 26.891C17.3369 28.6792 17.2824 30.4674 16.8824 32.2193C16.7278 32.891 16.5278 33.5537 16.2642 34.1982C15.7642 35.4054 14.9459 36.2678 13.6914 36.7307C13.2277 36.9032 12.7095 37.003 12.4004 37.466C14.0368 37.0484 15.546 36.4675 16.3642 34.8063C17.0824 33.3267 17.4006 31.7564 17.5642 30.1406C17.6915 28.8789 17.7097 27.6081 17.6096 26.3464C17.5551 25.6565 17.546 24.9666 17.5642 24.2767C17.6187 22.5793 18.7642 21.1905 20.4097 20.7911C21.3643 20.5551 21.8643 20.8183 22.2097 21.7805C22.7643 23.3145 23.037 24.9031 23.0643 26.5279C23.0825 27.7079 23.037 28.888 23.0279 30.068C23.0188 30.7307 22.9916 31.3933 23.2098 32.0378C23.5552 33.0454 24.228 33.2541 25.0734 32.6097C25.3189 32.419 25.528 32.1739 25.7553 31.9561C25.9825 31.7382 26.1098 31.4296 26.4553 31.2662C26.6007 31.4659 26.5098 31.711 26.5826 31.9016C26.7098 32.2466 26.9644 32.3373 27.2462 32.1104C27.4553 31.947 27.5826 31.711 27.6917 31.475C28.4644 29.8683 28.9008 28.18 28.9008 26.3917C28.9008 25.4205 28.619 24.5218 28.2008 23.6504C27.9735 23.1875 27.728 22.7245 27.6462 22.1981C27.6008 21.9076 27.5917 21.5899 27.9371 21.4719C28.2917 21.3448 28.4644 21.6171 28.5917 21.8894C28.819 22.3614 28.9099 22.8698 29.0462 23.369C29.219 24.0044 29.3917 24.6489 29.5917 25.2752C29.8008 25.9106 30.1281 26.4916 30.6463 26.9364C31.1736 27.3902 31.3827 27.953 31.3645 28.6157C31.3645 28.7881 31.3645 28.9606 31.3736 29.1331C31.3917 29.5052 31.519 29.7775 31.9554 29.6323C32.319 29.5143 32.3918 29.7049 32.4645 29.9954C32.7372 31.1119 32.7554 31.121 31.9372 31.8925C30.8281 32.9455 29.6826 33.9622 28.5735 35.0151C28.2099 35.3601 27.8099 35.4781 27.3189 35.4599C26.3826 35.4145 25.5007 35.1876 24.6189 34.8971C23.5825 34.5522 23.3007 34.6066 22.8098 35.5961C22.3552 36.5129 21.5279 36.9758 20.7824 37.5477C20.337 37.8835 19.7824 37.7564 19.3188 37.4569C18.9824 37.239 18.6824 36.9577 18.3551 36.7216C17.8915 36.3949 17.6278 36.4493 17.4096 36.9667C17.246 37.3298 17.0824 37.6021 16.6642 37.7292C16.3278 37.8291 16.1096 38.1377 15.8914 38.4009C15.2551 39.1634 14.4641 39.7444 13.6368 40.2708C13.2459 40.5159 12.8186 40.7066 12.355 40.761C12.0186 40.7973 11.655 40.8609 11.4641 40.4342C11.3913 40.2708 11.2368 40.171 11.0368 40.2255C10.8368 40.2799 10.764 40.4524 10.8095 40.6339C10.9459 41.1241 10.6004 41.3057 10.2731 41.5054C9.72766 41.8321 9.13675 42.0681 8.51855 42.2134C8.14582 42.3042 7.79126 42.404 7.63671 42.8125C7.52762 43.0848 7.28216 43.1756 7.00033 43.1846C6.33668 43.1846 5.66395 43.2845 5.01848 43.112C4.21846 42.9032 3.43663 42.8306 2.62752 43.0212C2.4366 43.0666 2.22751 43.0576 2.02751 43.0666C1.69114 43.0757 1.52749 42.9396 1.46385 42.5765C1.0093 40.2345 1.4275 38.0832 2.70934 36.0499C3.44572 34.879 4.03664 33.6263 4.6821 32.4009C5.45485 30.9213 5.68213 29.2874 5.97305 27.6716C6.05487 27.1905 6.12759 26.7004 6.19122 26.2193C6.4185 24.4855 6.9367 22.8607 7.79126 21.3175C8.50946 20.0377 9.15493 18.7124 9.8004 17.3962C10.064 16.8515 10.4095 16.552 11.055 16.5429C12.1277 16.5248 12.9732 15.9983 13.6914 15.2267C14.155 14.7366 14.5459 14.201 14.8732 13.6201L15.0096 13.6927Z" fill="#6CC080"/>
<path d="M70.401 40.8306C71.3364 40.304 71.1729 39.3235 71.3364 38.4972C71.4544 37.898 71.1457 37.4259 70.5917 37.1626C70.1468 36.9538 69.6927 36.7813 69.2296 36.6178C67.8765 36.1457 67.1954 35.1833 67.1409 33.7578C67.1409 33.6126 67.1409 33.4673 67.1228 33.322C67.041 32.6501 66.814 32.4141 66.142 32.3233C65.6607 32.2597 65.1703 32.2416 64.6799 32.1962C63.236 32.0782 62.0373 31.4335 61.0384 30.4076C60.4936 29.8446 59.9759 29.2726 59.4765 28.6734C58.5593 27.5566 57.3787 26.9937 55.9439 26.9483C55.8259 26.9483 55.7169 26.9392 55.5988 26.9302C54.4819 26.8575 53.7281 26.2946 53.2832 25.2596C52.9018 24.3698 52.7837 23.4346 52.6475 22.4904C52.6293 22.3451 52.6293 22.1998 52.6112 22.0636C52.5113 21.4462 52.3296 21.3101 51.7394 21.5734C51.2217 21.8094 50.8403 21.6551 50.4862 21.31C50.014 20.847 49.5599 20.3567 49.124 19.8664C48.3158 18.9494 47.3441 18.4682 46.0909 18.4864C44.7469 18.5045 44.311 18.1141 43.966 16.8158C43.7208 15.9078 43.5845 15.808 42.6401 15.8624C42.3768 15.8806 42.1225 15.9078 41.8682 15.9442C40.5969 16.153 39.3437 16.1076 38.1086 15.7172C37.6183 15.5628 37.1188 15.4175 36.6193 15.2723C36.247 15.1633 35.8747 15.1088 35.5659 15.4085C35.4116 15.5537 35.2844 15.5447 35.1028 15.4811C34.6033 15.2904 34.3491 15.6082 34.1584 15.9896C33.8769 16.5343 33.777 17.1336 33.5953 17.7146C33.4046 18.3502 33.3865 18.3774 32.769 18.1323C31.6701 17.6965 30.6349 17.7873 29.6178 18.3865C29.2182 18.6226 28.8005 18.8041 28.3465 18.9131C27.8288 19.0311 27.3657 18.904 26.948 18.6316C26.4758 18.3139 26.394 17.9779 26.5938 17.4423C26.8299 16.8067 26.8118 16.7795 26.2578 16.4254C24.6505 15.3994 22.916 14.8819 21.0089 15.0544C20.4096 15.1089 19.9192 15.0181 19.5196 14.4551C19.1836 13.983 18.6115 13.7288 18.0213 13.6652C17.1676 13.5744 16.2958 13.5381 15.4331 13.4836C15.2061 13.4655 15.0517 13.5472 14.97 13.7016L14.7793 13.6289C15.0336 13.184 15.2424 12.7119 15.415 12.2216C15.7601 11.2138 16.3413 10.3785 17.0677 9.61586C18.3936 8.2358 19.8284 7.01916 21.4993 6.06583C23.1975 5.09434 24.823 3.98665 26.73 3.42373C27.5927 3.16951 28.4464 2.94253 29.3545 2.95161C30.3171 2.95161 31.2342 2.70647 32.1333 2.36145C33.6135 1.78945 35.1119 1.28101 36.7102 1.13574C36.8827 1.11758 37.0552 1.08126 37.2278 1.09034C39.9975 1.16298 42.7582 0.845213 45.5279 0.899689C46.2453 0.908769 46.2635 0.908755 46.4088 1.58971C46.5359 2.19802 46.9355 2.53396 47.4622 2.75187C48.2976 3.09688 49.1785 3.32387 50.0684 3.30572C52.4386 3.2694 54.4546 4.11377 56.2345 5.61186C57.4877 6.67414 58.8135 7.64563 59.9578 8.83503C60.203 9.08925 60.3301 9.36164 60.4391 9.70665C60.9294 11.1593 61.5288 12.5122 62.8546 13.4927C65.4972 15.4448 65.4609 15.4902 66.5052 18.6135C67.3407 21.1012 68.1671 23.589 69.0025 26.0676C69.2023 26.6669 69.4384 27.257 69.7381 27.8199C69.9742 28.2558 70.2376 28.6825 70.6735 28.9367C71.1275 29.2 71.1729 29.5723 71.1366 30.0444C71.0639 30.9069 71.0095 31.7695 71.0458 32.632C71.1003 33.8486 71.5543 34.811 72.7076 35.3467C73.3433 35.6463 73.5522 36.1548 73.4977 36.8267C73.416 37.8345 73.089 38.7969 72.971 39.8047C72.9528 40.0044 72.8075 40.0861 72.6259 40.1406C71.8812 40.3676 71.1729 40.6854 70.3738 41.0667C70.401 40.876 70.3919 40.8306 70.401 40.8306Z" fill="#BDEAC8"/>
<path d="M13.3749 55.4822C13.4107 55.6851 13.4376 55.9064 13.2315 56.0355C13.0164 56.183 12.8551 56.0171 12.7117 55.888C12.1293 55.3716 11.5557 54.8552 10.9822 54.3388C10.8568 54.2282 10.7044 54.0714 10.8568 53.9054C11.0091 53.7302 11.1704 53.8686 11.2869 53.9977C11.726 54.4956 12.2458 54.8829 12.8462 55.39C12.8282 54.7169 12.5952 54.2466 12.4519 53.7671C12.3085 53.3153 11.9232 52.9557 11.9052 52.4485C12.2278 52.3286 12.3174 52.5407 12.416 52.7067C12.9358 53.555 13.2046 54.5048 13.3749 55.4822Z" fill="#8ADD9E"/>
<path d="M4.86698 43.6824C4.8579 43.6824 4.84883 43.6824 4.83975 43.6824C4.83067 43.6733 4.82158 43.6733 4.8125 43.6733C4.82158 43.6733 4.83974 43.6733 4.84883 43.6733C4.85791 43.6733 4.86698 43.6824 4.86698 43.6824Z" fill="#8ADD9E"/>
<path d="M2.66975 44.1468C3.34134 43.8201 4.04922 43.684 4.79341 43.684C4.80249 43.684 4.81157 43.6931 4.82064 43.6931C4.82972 43.6931 4.83879 43.6931 4.84786 43.6931C5.32886 44.0833 5.59205 44.5732 5.66465 45.2084C5.87339 46.9595 6.31809 48.6562 7.15303 50.2259C7.81554 51.478 8.26931 52.8118 8.63233 54.1818C8.89552 55.1799 9.18593 56.178 9.47634 57.167C9.5671 57.4664 9.68509 57.7658 9.84845 58.038C10.1116 58.4916 10.393 58.5189 10.8286 58.2104C11.1372 57.9926 11.4276 57.7567 11.7543 57.5843C13.1973 56.804 14.2319 57.0218 15.0396 58.4372C16.0016 60.143 17.1451 61.7399 18.1162 63.4275C19.0056 64.97 20.1854 66.1767 21.5649 67.2383C22.3635 67.8553 23.2983 68.2001 24.3419 68.6265C24.4145 67.4198 24.9954 66.7846 26.2569 66.703C25.4673 65.8954 24.8411 65.1515 24.2784 64.353C23.0714 62.6381 21.8553 60.9142 20.6482 59.1994C20.5212 59.0179 20.4395 58.7366 20.2217 58.6731C19.4684 58.4644 19.5138 57.8384 19.5138 57.2849C19.5138 57.0309 19.4956 56.8766 19.3051 56.6952C17.9891 55.5338 16.7095 54.3361 15.3845 53.1838C14.0776 52.0587 13.0339 50.7431 12.2444 49.2188C11.4729 47.7398 10.7015 46.2609 9.93012 44.7819C9.80306 44.5369 9.73954 44.2375 9.30392 44.0107C9.55803 44.8908 9.6034 45.6802 9.64878 46.4605C9.41282 46.4786 9.33114 46.3607 9.28576 46.2246C9.20408 45.9524 9.14055 45.6711 9.06795 45.3898C8.80476 44.301 7.9426 43.6568 6.82631 43.6931C6.17288 43.7113 5.51945 43.6841 4.86602 43.675C4.86602 43.6659 4.85694 43.6659 4.84786 43.6659C4.83879 43.6659 4.82064 43.6659 4.81157 43.6659C3.94032 43.2395 3.03278 43.4844 2.14338 43.5842C1.9165 43.6115 1.56255 43.4935 1.57162 43.9109C1.57162 44.2194 1.88927 44.3736 2.28859 44.2738C2.40657 44.2557 2.5427 44.2103 2.66975 44.1468ZM81.1361 36.0534C81.2904 37.5959 80.9728 39.0113 79.9109 40.1455C78.3681 41.7786 77.5876 43.8383 76.6438 45.7981C76.2172 46.6782 76.1809 47.6945 76.063 48.6653C75.945 49.6089 75.9087 50.5616 75.7272 51.4962C75.0737 54.8442 73.2677 57.3393 70.1639 58.8364C69.1293 59.3355 68.1129 59.898 67.0329 60.2882C66.7334 60.397 66.6245 60.5513 66.688 60.8689C66.9693 62.2208 66.3704 63.1916 65.3811 64.0354C64.6279 64.6706 63.8111 65.1968 62.9308 65.6505C62.3862 65.9318 62.0141 66.2675 62.0051 66.957C61.9869 67.7645 61.5876 68.436 61.0158 69.0076C60.4804 69.5339 59.8996 70.0238 59.2098 70.3323C58.266 70.7587 57.3584 71.2668 56.4509 71.7659C55.4254 72.3375 54.3 72.5734 53.1656 72.773C51.3686 73.0997 49.6352 73.5624 48.1015 74.633C47.439 75.1049 46.6494 75.3045 45.8417 75.4224C43.8632 75.7037 41.9392 75.622 40.0969 74.7419C39.7611 74.5786 39.4072 74.4516 39.0714 74.2882C37.6284 73.5805 36.131 73.4898 34.6154 73.9707C33.4718 74.3245 32.3102 74.4425 31.1213 74.3518C29.6692 74.2338 29.1247 73.8255 28.6709 72.4645C28.5257 72.029 28.3805 71.5935 28.1899 71.167C27.9177 70.541 27.4094 70.2053 26.7469 70.0419C24.0425 69.3887 21.6012 68.2273 19.6046 66.2402C19.0691 65.7049 18.579 65.1515 18.216 64.4891C17.6987 63.5546 17.1179 62.6654 16.5098 61.7943C15.8927 60.9233 15.4389 59.9525 14.9125 59.027C13.9687 57.3484 13.0702 57.1579 11.482 58.2376C10.992 58.5733 10.6017 59.0361 10.1479 59.4353C9.85751 59.1631 10.0027 58.9272 9.84845 58.7548C9.22224 58.038 9.0135 57.1216 8.75939 56.2415C8.51435 55.4158 8.30562 54.572 8.07873 53.7373C7.80647 52.7301 7.47974 51.7502 6.98059 50.8338C6.02767 49.0917 5.48315 47.2136 5.21996 45.2628C5.09291 44.3101 4.69359 44.0651 3.73159 44.2647C3.34134 44.3464 2.97832 44.546 2.59716 44.673C1.68961 44.9725 1.20861 44.7184 1.00895 43.802C0.39182 41.0074 0.546105 38.3399 2.13431 35.8356C2.86942 34.6743 3.45025 33.404 4.09461 32.1791C4.81157 30.8 5.03845 29.2847 5.30163 27.7876C5.44684 26.962 5.55575 26.1363 5.68281 25.3106C5.88247 24.0767 6.22734 22.9062 6.80817 21.7902C7.64311 20.1842 8.46897 18.5692 9.27669 16.9451C9.58525 16.319 10.0027 15.9561 10.7469 15.9561C11.8269 15.9561 12.6528 15.4026 13.3425 14.6041C14.005 13.8238 14.5223 12.9619 14.849 12.0001C15.2302 10.8841 15.8836 9.95863 16.6913 9.11481C18.0345 7.71752 19.5138 6.50172 21.2018 5.5218C22.9715 4.48745 24.6777 3.3805 26.6743 2.79981C27.5365 2.54576 28.3896 2.33708 29.2971 2.34615C30.2319 2.35522 31.1213 2.09208 31.9835 1.76545C33.4083 1.21198 34.8513 0.722022 36.3851 0.567777C36.6392 0.540557 36.9024 0.495186 37.1565 0.495186C40.0697 0.540552 42.9648 0.232056 45.878 0.286496C46.7765 0.304642 46.7946 0.295573 46.8672 1.17568C46.9126 1.71101 47.1849 2.01043 47.6568 2.20097C48.41 2.50946 49.2087 2.71815 50.0073 2.7C52.6301 2.64556 54.8173 3.66176 56.7685 5.32217C58.0845 6.43819 59.4549 7.4907 60.6619 8.74282C61.5876 9.70459 62.6948 10.4395 63.8202 11.1382C64.5008 11.5646 65.1906 11.982 65.8803 12.4084C67.0419 13.1343 68.0221 14.0507 68.848 15.1485C69.5286 16.0468 70.2365 16.9178 70.9535 17.7798C72.2966 19.4039 73.1588 21.2821 73.8213 23.251C74.1571 24.2309 74.4203 25.238 74.6835 26.2361C74.7833 26.59 74.9376 26.7805 75.3188 26.8077C75.9268 26.844 76.3897 27.1707 76.8162 27.588C78.114 28.8855 79.2394 30.2919 79.8837 32.0249C80.0471 32.4604 80.2558 32.8687 80.4464 33.2861C80.8094 34.1843 81.0363 35.1007 81.1361 36.0534ZM79.557 39.6827C80.3012 38.8661 80.6097 37.859 80.5825 36.7339C80.5644 35.7086 80.4192 34.7287 80.0017 33.7851C79.7567 33.2316 79.4935 32.6872 79.2757 32.1247C78.6222 30.4461 77.515 29.1033 76.2445 27.8693C76.0357 27.6697 75.8088 27.4973 75.5094 27.4429C75.1282 27.3703 75.0011 27.4701 75.101 27.8239C75.3551 28.7675 75.5638 29.7293 75.9177 30.6366C76.1991 31.3534 76.2989 32.0975 76.2989 32.8052C76.2898 34.1208 76.4532 35.382 76.8525 36.616C77.27 37.9044 77.3426 39.2109 77.1883 40.5447C77.1611 40.7443 77.152 41.1072 76.8525 41.0619C76.5167 41.0074 76.6892 40.6808 76.7255 40.4902C76.9796 39.3289 76.8797 38.1765 76.5258 37.0787C76.1265 35.8629 75.9359 34.6198 75.7907 33.3586C75.6273 31.9523 75.3732 30.5731 74.5111 29.3755C74.148 28.8674 73.9665 28.2504 74.1208 27.6515C74.2932 26.962 74.1117 26.3541 73.9393 25.7189C73.7578 25.0838 73.5944 24.4396 73.3857 23.8135C72.7232 21.8083 71.8973 19.8848 70.5451 18.2244C69.7827 17.2899 69.0204 16.3462 68.2762 15.3935C67.7045 14.6677 67.0782 13.9872 66.325 13.4428C64.764 12.3086 63.0215 11.4557 61.4424 10.3125C61.5059 11.2289 61.8599 11.9548 62.5405 12.5082C63.1667 13.0163 63.802 13.5154 64.4464 13.9962C65.2722 14.6223 65.8621 15.4207 66.2342 16.3916C66.4248 16.8997 66.6245 17.4078 66.806 17.934C67.5956 20.284 68.367 22.634 69.1475 24.984C69.4016 25.7462 69.6557 26.5174 70.0005 27.2432C70.2365 27.7423 70.4997 28.2322 70.9988 28.5135C71.5343 28.8129 71.6523 29.2575 71.6069 29.82C71.5434 30.7092 71.4526 31.5984 71.498 32.4967C71.5434 33.5582 71.9064 34.393 72.9319 34.8648C73.7941 35.264 74.0391 35.9899 73.9484 36.87C73.903 37.3237 73.7941 37.7773 73.7306 38.231C73.7124 38.3853 73.5672 38.603 73.8032 38.6665C74.0936 38.7391 73.9847 38.8661 73.9484 39.0385C73.7578 39.8007 73.7578 39.8007 74.5201 39.9731C75.3369 40.1545 76.0993 40.4539 76.4714 41.2524C76.7981 41.942 77.27 42.6225 76.9977 43.4844C77.1974 43.4391 77.2428 43.3211 77.2881 43.2213C77.8145 41.8966 78.595 40.7352 79.557 39.6827ZM75.7998 44.673C76.5712 43.7566 76.435 42.7586 76.072 41.7424C75.8905 41.2252 75.5003 40.8895 75.0011 40.6808C74.4838 40.463 73.9393 40.3723 73.3948 40.463C71.8066 40.7443 70.3454 41.3522 69.1565 42.4682C67.7408 43.802 66.6789 45.408 65.7442 47.1138C65.009 48.4566 64.637 49.8902 64.7459 51.2965C64.7549 52.349 64.8457 53.2745 64.9909 54.1818C65.0907 54.8079 65.2359 55.4249 65.5536 55.9874C65.7351 56.3141 65.9892 56.5409 66.3794 56.5137C66.7606 56.4865 67.169 56.7496 67.5411 56.423C67.7135 56.2687 67.8315 56.432 67.9676 56.5591C68.3216 56.8948 68.6846 57.1851 69.2564 57.0762C70.9898 56.7314 72.4418 55.8604 73.6217 54.6083C74.4657 53.71 75.0193 52.5668 75.1826 51.2965C75.3006 50.3801 75.3914 49.4637 75.4912 48.5473C75.5819 47.7489 75.6546 46.9595 75.7635 46.1701C75.8179 45.8072 76.19 45.4624 75.6818 45.1176C75.5275 45.0178 75.6909 44.8091 75.7998 44.673ZM73.4129 36.7702C73.4674 36.0988 73.2586 35.5816 72.6234 35.2912C71.4708 34.7559 71.017 33.8032 70.9625 32.5783C70.9262 31.7073 70.9807 30.8453 71.0533 29.9925C71.0896 29.5297 71.0442 29.1577 70.5904 28.8855C70.1548 28.6315 69.8916 28.205 69.6557 27.7695C69.3562 27.207 69.1202 26.6172 68.9206 26.0184C68.0856 23.5323 67.2598 21.0462 66.4248 18.5692C65.3811 15.448 65.4084 15.4026 62.7765 13.4518C61.4515 12.4719 60.8525 11.12 60.3624 9.66829C60.2444 9.3235 60.1174 9.0513 59.8814 8.79725C58.7379 7.60864 57.4129 6.6378 56.1605 5.57623C54.3817 4.07006 52.3669 3.22625 49.9982 3.27162C49.1088 3.28977 48.2285 3.06293 47.3936 2.71814C46.8672 2.50038 46.4679 2.16467 46.3408 1.55676C46.1956 0.87626 46.1775 0.885346 45.4605 0.867199C42.6925 0.821833 39.9336 1.13031 37.1656 1.05773C36.9931 1.04865 36.8207 1.09402 36.6483 1.10309C35.051 1.24826 33.5535 1.75637 32.0742 2.32799C31.1848 2.67277 30.2591 2.91775 29.2971 2.91775C28.3896 2.91775 27.5365 3.1446 26.6743 3.38958C24.7685 3.95212 23.144 5.04998 21.4469 6.02989C19.777 6.99166 18.334 8.19842 17.0181 9.57756C16.292 10.3397 15.7112 11.1745 15.3663 12.1816C15.1939 12.6715 14.9851 13.1434 14.731 13.5879C14.4043 14.1596 14.0141 14.6949 13.5512 15.1939C12.8343 15.9651 11.9812 16.4823 10.9193 16.5095C10.275 16.5186 9.93012 16.818 9.66694 17.3624C9.02258 18.6781 8.37821 20.0028 7.66125 21.2821C6.80816 22.8155 6.29086 24.4487 6.06397 26.1817C6.00045 26.6626 5.92784 27.1525 5.84616 27.6334C5.55575 29.2484 5.32886 30.8816 4.55745 32.3606C3.92217 33.5855 3.32319 34.8467 2.58808 36.008C1.30844 38.0405 0.890966 40.1908 1.34474 42.5317C1.41734 42.8947 1.57163 43.0398 1.90742 43.0217C2.10708 43.0126 2.31582 43.0217 2.5064 42.9763C3.31412 42.7858 4.10367 42.8584 4.89324 43.0671C5.54667 43.2394 6.20918 43.1396 6.87169 43.1396C7.14396 43.1396 7.39807 43.0489 7.50697 42.7677C7.67033 42.3594 8.02427 42.2505 8.38729 42.1688C9.00442 42.0236 9.59433 41.7877 10.1389 41.4611C10.4565 41.2705 10.8014 41.08 10.6743 40.5901C10.6289 40.4086 10.7015 40.2453 10.9012 40.1818C11.1009 40.1273 11.2551 40.218 11.3277 40.3904C11.5183 40.8078 11.8813 40.7534 12.2171 40.7171C12.68 40.6626 13.1065 40.4721 13.4968 40.2271C14.3317 39.7009 15.1122 39.1202 15.7475 38.358C15.9653 38.0949 16.1831 37.7864 16.5189 37.6866C16.9273 37.5596 17.0997 37.2964 17.2631 36.9244C17.49 36.4073 17.7532 36.3619 18.2069 36.6795C18.5337 36.9154 18.8331 37.1967 19.1689 37.4144C19.6318 37.7138 20.1854 37.8409 20.6301 37.5051C21.3743 36.9426 22.1911 36.4708 22.6539 35.5544C23.144 34.5654 23.4344 34.5109 24.4599 34.8557C25.3402 35.1461 26.2206 35.382 27.1553 35.4183C27.6454 35.4364 28.0447 35.3185 28.4077 34.9737C29.515 33.9212 30.6585 32.905 31.7657 31.8525C32.5825 31.0812 32.5643 31.0722 32.292 29.9561C32.2194 29.6658 32.1468 29.4753 31.7838 29.5932C31.3482 29.7384 31.2211 29.4662 31.203 29.0942C31.1939 28.9218 31.1939 28.7494 31.1939 28.577C31.203 27.9056 31.0033 27.343 30.4769 26.8985C29.9596 26.4539 29.6329 25.8732 29.4242 25.238C29.2245 24.612 29.0521 23.9678 28.8797 23.3326C28.7435 22.8336 28.6528 22.3165 28.4259 21.8537C28.2988 21.5906 28.1264 21.3184 27.7725 21.4363C27.4276 21.5543 27.4367 21.8809 27.482 22.1622C27.5637 22.6794 27.8088 23.1421 28.0356 23.6139C28.4531 24.485 28.7345 25.3832 28.7345 26.3541C28.7345 28.1415 28.2988 29.8291 27.5274 31.4351C27.4185 31.671 27.2915 31.8978 27.0827 32.0702C26.8014 32.2971 26.5382 32.2154 26.4202 31.8615C26.3476 31.6619 26.4384 31.4169 26.2932 31.2264C25.9483 31.3897 25.8122 31.6982 25.5944 31.916C25.3675 32.1337 25.1587 32.3787 24.9137 32.5693C24.0788 33.2135 23.4072 32.9957 23.0532 31.9976C22.8354 31.3534 22.8626 30.6911 22.8717 30.0287C22.8808 28.8492 22.9352 27.6697 22.908 26.4902C22.8808 24.866 22.6085 23.2782 22.0549 21.7448C21.7101 20.7831 21.22 20.5199 20.258 20.7558C18.6153 21.1551 17.4627 22.5433 17.4174 24.24C17.3992 24.9295 17.4083 25.6282 17.4627 26.3087C17.5626 27.579 17.5353 28.8401 17.4174 30.1013C17.254 31.7164 16.9364 33.286 16.2194 34.765C15.4117 36.4254 13.8961 37.0152 12.2625 37.4235C12.562 36.9607 13.0884 36.8609 13.5512 36.6885C14.7946 36.2258 15.6204 35.3638 16.1196 34.1571C16.3828 33.5129 16.5824 32.8596 16.7367 32.1791C17.136 30.4189 17.1905 28.6405 17.1179 26.8531C17.0816 25.8732 16.9999 24.8933 17.0634 23.9134C17.1996 22.0805 18.8513 20.4383 20.6664 20.284C21.3743 20.2296 21.9097 20.4836 22.2274 21.1188C22.3726 21.4 22.4815 21.6995 22.5813 21.9989C23.0532 23.4325 23.3164 24.9023 23.3255 26.4085C23.3346 27.7332 23.3073 29.0579 23.2983 30.3826C23.2983 30.8453 23.3073 31.3081 23.4525 31.7527C23.7067 32.533 24.0878 32.6509 24.714 32.1337C25.186 31.7436 25.5218 31.2355 25.9211 30.7818C26.1298 30.5368 26.2841 30.1195 26.7106 30.2465C27.0918 30.3554 26.8377 30.809 27.0192 31.0449C27.0827 31.0086 27.1553 30.9905 27.1735 30.9542C28.1899 28.4863 28.7798 26.0093 27.3822 23.4778C27.2552 23.251 27.1644 23.006 27.0827 22.761C26.9829 22.4616 26.8831 22.1622 26.9194 21.8356C26.9738 21.3547 27.2552 20.9736 27.6545 20.8738C28.081 20.7649 28.4713 20.9192 28.7617 21.3547C28.9704 21.6723 29.0975 22.0261 29.1882 22.389C29.3697 23.0877 29.5331 23.7863 29.7328 24.4759C29.9415 25.2018 30.1865 25.9186 30.7764 26.4357C31.4026 26.9801 31.7384 27.6425 31.7475 28.4681C31.7475 28.7131 31.7657 28.9127 32.1196 28.9127C32.5371 28.9036 32.7004 29.2121 32.8093 29.5751C32.8729 29.7838 32.8093 30.0469 33.0907 30.1739C34.2705 29.6386 34.9875 28.7403 35.2597 27.4701C35.5501 26.1363 35.6046 24.7935 35.4684 23.4325C35.414 22.8608 35.3777 22.2802 35.3505 21.7085C35.3414 21.4182 35.3686 21.1097 35.7135 21.0008C36.0402 20.901 36.2671 21.1097 36.4577 21.3275C36.857 21.7902 37.0839 22.3527 37.3108 22.9153C37.5467 23.5051 37.7464 24.113 38.0186 24.6755C38.3635 25.3741 38.7265 25.4195 39.2801 24.857C39.6795 24.4396 40.0153 23.9678 40.3964 23.5413C40.6778 23.2238 40.95 22.8064 41.4492 22.9244C41.9937 23.0423 42.0663 23.5595 42.1843 24.0041C42.5564 25.4195 42.2206 26.7351 41.5944 28.0145C41.4219 28.3683 41.1497 28.6768 41.0226 29.2666C42.5382 28.2957 43.9449 27.4791 44.9705 26.1726C45.4333 25.5828 45.878 24.984 46.3499 24.4033C46.6948 23.9769 47.1032 23.5958 47.6205 23.3962C48.2285 23.1603 48.8094 23.2238 49.3267 23.6502C49.8077 24.0494 49.8621 24.5757 49.7623 25.1382C49.6806 25.601 49.4537 26.0093 49.1996 26.3904C48.8457 26.9257 48.401 27.3703 47.9563 27.8239C47.7929 27.9963 47.5479 28.1234 47.4753 28.4772C48.5371 28.1324 49.4446 27.6516 50.3431 27.1616C50.8513 26.8894 51.3323 26.5718 51.8859 26.3904C52.3488 26.2361 52.7209 26.2724 52.975 26.4811C53.1928 26.6535 53.3289 26.962 53.3562 27.3884C53.3834 27.7604 53.3652 28.1233 53.3652 28.5498C53.6647 28.4409 53.937 28.3411 54.2002 28.2594C54.4724 28.1778 54.7538 28.0871 55.0351 28.0417C55.7339 27.9237 56.1242 28.1778 56.3511 28.8492C56.4509 29.1577 56.4781 29.4662 56.4872 29.7838C56.4963 30.2465 56.4963 30.7092 56.5144 31.1629C56.5235 31.5621 56.6596 31.8888 57.0136 32.1156C57.4129 32.3696 57.7124 32.7054 57.8031 33.1953C57.8485 33.4585 58.0028 33.4675 58.2478 33.4222C59.0737 33.2498 59.2643 33.3677 59.5456 34.1117C59.6908 34.4928 59.7816 34.883 59.9359 35.255C60.3352 36.2077 60.7527 36.2893 61.4424 35.5453C61.7328 35.2277 61.9778 34.8648 62.2229 34.511C62.4316 34.1934 62.6857 34.1299 63.0397 34.2569C63.802 34.5382 64.3919 35.0009 64.7822 35.7268C65.118 36.3438 65.3448 36.997 65.4356 37.6866C65.4991 38.2038 65.7079 38.3852 66.2161 38.3399C66.5519 38.3036 66.9149 38.2945 67.2325 38.485C67.3596 38.5576 67.4776 38.6575 67.4322 38.8208C67.3868 38.9932 67.2416 39.0294 67.0873 38.9841C66.688 38.8661 66.2887 38.9115 65.8894 38.9115C65.0998 38.9115 65.0544 38.8934 64.9455 38.1403C64.8366 37.4235 64.6551 36.7339 64.3284 36.0806C64.0743 35.5816 63.7113 35.1824 63.1849 34.9465C62.9126 34.8194 62.7039 34.8194 62.5315 35.1098C62.3862 35.3548 62.2047 35.5816 62.0141 35.7994C60.9432 37.0515 59.9812 36.8972 59.3913 35.382C59.2552 35.0372 59.1645 34.6652 59.0283 34.3204C58.8468 33.8758 58.747 33.8395 58.3204 34.0573C57.912 34.266 57.5127 34.4928 57.1043 34.7015C56.9591 34.7741 56.8139 34.7196 56.7232 34.5835C56.6506 34.4837 56.6778 34.3658 56.7504 34.266C56.7867 34.2206 56.823 34.1752 56.8593 34.1299C57.4129 33.277 57.4038 33.159 56.5961 32.5148C56.1968 32.1973 56.0244 31.8071 55.9971 31.3262C55.9699 30.8363 55.979 30.3463 55.9517 29.8564C55.9427 29.6023 55.9154 29.3392 55.8519 29.0851C55.7612 28.6768 55.507 28.5226 55.0805 28.6224C54.4906 28.7585 53.9188 28.9672 53.4015 29.2847C53.2291 29.3936 53.0748 29.5206 52.9115 29.6386C52.7844 29.7293 52.6483 29.7656 52.5212 29.6567C52.4305 29.5751 52.4123 29.4571 52.4486 29.3392C52.5121 29.1486 52.5848 28.9581 52.6483 28.7676C52.7844 28.3502 52.8661 27.9328 52.8298 27.4882C52.7753 26.9166 52.5666 26.7533 52.0402 26.971C51.5592 27.1616 51.1055 27.4247 50.6517 27.6697C49.6625 28.205 48.6642 28.7222 47.5842 29.0488C47.2484 29.1486 46.8128 29.3755 46.5768 28.9309C46.3681 28.5498 46.7402 28.3048 46.958 28.0598C47.4934 27.4973 48.0833 26.9801 48.5553 26.3631C48.8729 25.9458 49.1633 25.5193 49.2359 24.984C49.3448 24.1674 48.7458 23.6593 47.9563 23.8861C47.6749 23.9678 47.4299 24.1311 47.2302 24.3398C46.8944 24.6937 46.5314 25.0384 46.2592 25.4377C45.3516 26.8077 44.1809 27.8875 42.8286 28.7948C42.2297 29.194 41.6216 29.5841 40.9682 29.8926C40.5507 30.0832 40.1423 30.3009 39.8065 30.6276C39.6159 30.8181 39.3618 31.1538 39.0986 30.8272C38.8536 30.5278 39.2257 30.3282 39.4253 30.1376C40.5235 29.067 41.2314 27.7695 41.6579 26.2996C41.8303 25.6736 41.8213 25.0384 41.7214 24.4124C41.6761 24.113 41.6761 23.6774 41.3584 23.5867C41.0135 23.4869 40.8593 23.9043 40.6596 24.1311C40.2421 24.6029 39.8973 25.1473 39.389 25.5375C38.7719 26.0002 38.2092 25.9186 37.7464 25.3016C37.5195 24.9931 37.3834 24.6483 37.2472 24.3035C37.0203 23.7137 36.8025 23.1149 36.5484 22.5342C36.4304 22.262 36.3306 21.9535 35.9767 21.7539C35.9041 22.262 35.9676 22.6794 36.013 23.1058C36.14 24.2309 36.1491 25.3469 36.022 26.472C35.8315 28.1143 35.3505 29.566 33.8076 30.4552C33.6261 30.5641 33.4991 30.6911 33.6443 30.9452C34.0436 31.6801 34.2705 32.4967 34.7515 33.1862C35.5229 34.3023 36.5757 34.7378 37.9007 34.5019C38.7901 34.3476 39.6159 34.021 40.3964 33.5673C40.9591 33.2407 40.9863 33.1862 40.8502 32.542C40.8048 32.2971 40.7413 32.0612 41.0226 31.9523C41.2858 31.8525 41.431 32.0702 41.5944 32.2336C41.9211 32.5693 41.6851 32.9776 41.6761 33.3586C42.5927 33.4403 43.3278 33.1046 44.0538 32.7689C44.6528 32.4967 45.2427 32.1882 45.8508 31.9251C46.5224 31.6438 47.1576 31.7436 47.7112 32.2154C48.0379 32.4967 48.3556 32.7961 48.6642 33.0955C49.127 33.531 49.5626 33.9938 50.0345 34.4111C50.334 34.6743 50.6426 35.01 51.0782 34.9283C51.5048 34.8467 51.4412 34.393 51.5864 34.0936C51.8043 33.6399 52.0311 33.5492 52.4758 33.8214C52.7663 34.0028 53.0294 34.2387 53.3017 34.4474C53.6829 34.7468 54.0641 35.0644 54.4634 35.3457C54.8082 35.5907 55.1985 35.6905 55.5978 35.4546C56.2059 35.0916 56.7595 35.2731 57.304 35.6088C57.8485 35.9445 58.3295 36.3528 58.8014 36.7793C59.4004 37.3146 59.9994 37.859 60.5984 38.4034C60.8616 38.6393 61.1429 38.848 61.5241 38.6484C62.232 38.2673 62.9035 38.4397 63.4481 38.9206C64.9274 40.1999 66.7334 40.9258 68.4033 41.8785C68.7844 42.0962 69.338 41.8875 69.3925 41.4611C69.5014 40.5991 69.9733 39.9368 70.4452 39.2744C70.9262 38.5939 70.7447 37.859 69.9642 37.5233C69.4923 37.3146 68.9932 37.1694 68.5213 36.9607C67.5048 36.5162 66.8695 35.7449 66.6154 34.6561C66.5337 34.3113 66.5065 33.9756 66.4883 33.6308C66.452 32.9866 66.3704 32.9231 65.7079 32.8687C65.5627 32.8596 65.4174 32.8505 65.2722 32.8505C63.194 32.787 61.4878 31.9613 60.1265 30.3917C59.6908 29.8926 59.2461 29.4027 58.8196 28.8946C58.1299 28.0871 57.2586 27.6425 56.1968 27.5517C55.9064 27.5336 55.625 27.5154 55.3346 27.4882C54.4543 27.3975 53.7555 27.0527 53.2473 26.4448C53.0476 26.2089 52.8752 25.9276 52.73 25.6191C52.4214 24.9296 52.2308 24.2128 52.1219 23.4597C52.0584 23.0332 51.9949 22.6159 51.9132 22.135C50.8604 22.5342 50.207 21.9898 49.5898 21.3275C49.2541 20.9736 48.9273 20.6107 48.6006 20.2387C47.9018 19.4221 47.0306 19.0501 45.9415 19.0501C44.3896 19.0501 43.7997 18.5601 43.3459 17.0449C43.1463 16.3825 43.1463 16.3825 42.4475 16.4279C42.275 16.437 42.1026 16.4551 41.9302 16.4823C40.4236 16.7454 38.9443 16.6366 37.5014 16.1466C37.1474 16.0287 36.7935 15.9107 36.4304 15.82C35.9585 15.702 35.8315 15.8109 35.9313 16.2827C36.022 16.7273 36.1854 17.1628 36.3125 17.6074C36.3578 17.7798 36.376 17.9703 36.1945 18.0611C35.9404 18.1881 35.8224 17.9794 35.7407 17.7979C35.5229 17.3261 35.3232 16.8543 35.1054 16.3825C35.051 16.2555 34.9693 16.1103 34.8059 16.1012C34.5881 16.0922 34.5337 16.2918 34.4792 16.446C34.2977 17.0176 34.1525 17.6074 33.9619 18.179C33.7532 18.8142 33.4809 18.9503 32.8547 18.7869C32.6641 18.7325 32.4735 18.6509 32.283 18.5873C31.5116 18.2879 30.7674 18.3514 30.0322 18.7416C29.6511 18.9412 29.2608 19.1408 28.8615 19.3041C28.1899 19.5672 27.5093 19.5854 26.8468 19.2678C26.0209 18.8686 25.676 18.2698 25.9029 17.3896C26.0027 16.9904 25.8394 16.8816 25.5762 16.7273C24.3601 16.0196 23.0986 15.5115 21.6556 15.5932C21.1928 15.6204 20.7299 15.575 20.2761 15.5841C19.8405 15.6022 19.5047 15.4843 19.2597 15.085C18.9239 14.5406 18.3794 14.2412 17.7532 14.1868C16.9817 14.1142 16.2103 14.1051 15.4752 14.0688C15.3028 14.341 15.4661 14.586 15.3754 14.8038C15.3209 14.9126 15.2302 15.0215 15.1122 14.9308C14.7673 14.6677 14.8036 14.2775 14.8399 13.9055C14.849 13.8148 14.8672 13.7422 14.9035 13.6787C14.9851 13.5244 15.1394 13.4428 15.3663 13.4609C16.2285 13.5154 17.0907 13.5426 17.9528 13.6424C18.5336 13.7059 19.1145 13.9509 19.4503 14.4318C19.8496 14.9943 20.3397 15.085 20.9386 15.0306C22.8536 14.8673 24.587 15.3754 26.1843 16.4007C26.7379 16.7545 26.756 16.7908 26.5201 17.4169C26.3204 17.9522 26.4021 18.2879 26.874 18.6055C27.2915 18.8868 27.7543 19.0047 28.2716 18.8867C28.7254 18.7869 29.1519 18.5964 29.5422 18.3605C30.5496 17.7617 31.5842 17.6709 32.6914 18.1064C33.3176 18.3514 33.3266 18.3151 33.5172 17.6891C33.6897 17.1084 33.7986 16.5095 34.0799 15.9651C34.2796 15.5841 34.5246 15.2665 35.0237 15.4571C35.2053 15.5296 35.3414 15.5296 35.4866 15.3845C35.7952 15.085 36.1673 15.1395 36.5394 15.2484C37.0385 15.3935 37.5377 15.5387 38.0277 15.6929C39.262 16.0831 40.5144 16.1285 41.785 15.9198C42.0391 15.8744 42.3023 15.8472 42.5564 15.8381C43.5002 15.7837 43.6454 15.8926 43.8814 16.7908C44.2263 18.0883 44.6528 18.4784 46.005 18.4603C47.2575 18.4422 48.2285 18.923 49.0362 19.8394C49.4719 20.3294 49.9256 20.8194 50.3976 21.2821C50.7424 21.6269 51.1327 21.772 51.65 21.5452C52.2399 21.2821 52.4214 21.4182 52.5212 22.0352C52.5394 22.1804 52.5394 22.3255 52.5575 22.4616C52.6937 23.4052 52.8116 24.3398 53.1928 25.229C53.6284 26.2543 54.3817 26.8259 55.507 26.8985C55.625 26.9075 55.7339 26.9166 55.8519 26.9166C57.2858 26.962 58.4656 27.5245 59.3823 28.6405C59.8723 29.2394 60.3987 29.8201 60.9432 30.3735C61.9415 31.3988 63.1395 32.043 64.5825 32.161C65.0726 32.2063 65.5627 32.2245 66.0436 32.288C66.7152 32.3787 66.9421 32.6146 67.0238 33.2861C67.042 33.4312 67.0419 33.5764 67.0419 33.7216C67.0873 35.1461 67.768 36.1078 69.1293 36.5797C69.5922 36.743 70.055 36.9154 70.4906 37.124C71.0442 37.3872 71.3528 37.8499 71.2348 38.4578C71.0714 39.2835 71.2348 40.2634 70.3 40.7897C70.2819 40.7987 70.291 40.8441 70.2728 40.9984C71.0714 40.6173 71.7884 40.2997 72.5235 40.0729C72.696 40.0184 72.8412 39.9368 72.8684 39.7372C73.0045 38.7391 73.3312 37.7773 73.4129 36.7702ZM71.3891 56.9401C71.1985 56.8585 71.0805 56.9674 70.9535 57.0127C69.2201 57.6388 67.4866 58.1196 65.7351 57.049C65.5717 56.9492 65.3539 56.9311 65.1543 56.8766C64.0743 56.5681 64.038 56.5863 63.557 57.5662C63.4934 57.6932 63.4299 57.8293 63.3664 57.9472C62.7039 59.1631 61.9869 59.399 60.7254 58.8274C60.1446 58.5642 59.6273 58.1922 59.0919 57.8656C58.3023 57.3847 58.148 57.4119 57.5853 58.1197C57.1679 58.6459 56.6778 59.0814 56.106 59.4262C55.5887 59.7438 55.0351 59.7891 54.5813 59.3627C53.4741 58.3193 52.14 58.3283 50.7697 58.4554C50.207 58.5098 49.7714 58.7276 49.6897 59.3718C49.6262 59.8527 49.2994 60.1158 48.882 60.2972C48.1106 60.642 47.3119 60.6329 46.5133 60.4243C45.8417 60.2519 45.2155 60.2791 44.6256 60.7146C43.7543 61.3679 42.8014 61.3679 41.8303 60.9868C41.3493 60.7963 40.8865 60.5694 40.4146 60.3426C39.9608 60.1249 39.507 59.9071 39.0532 59.6803C39.1077 60.0432 39.2438 60.2791 39.3709 60.5331C39.6795 61.132 39.9245 61.7399 39.9154 62.4204C39.9063 63.3822 39.4253 63.7814 38.4724 63.6181C37.9551 63.5273 37.4832 63.2914 37.0294 63.0465C36.0674 62.5202 35.1871 61.8669 34.3068 61.2136C34.089 61.0503 33.9165 60.7872 33.5808 60.7781C33.5717 60.8689 33.5445 60.9505 33.5535 61.0322C33.608 61.4949 33.735 62.0121 33.2903 62.3115C32.8366 62.6109 32.3919 62.248 32.0198 62.0212C31.1395 61.4768 30.2864 60.8779 29.4242 60.3063C28.3351 59.5804 27.2007 58.9816 25.8666 58.8546C24.705 58.7457 23.8156 58.1378 23.1531 57.2032C22.7537 56.6407 22.3816 56.06 21.9914 55.4793C21.8008 55.198 21.6102 54.9168 21.4287 54.6355C21.3924 54.9531 21.465 55.2162 21.5558 55.4793C21.7464 56.0237 21.9551 56.5591 22.1275 57.1035C22.2818 57.6025 22.1457 57.7658 21.6556 57.666C21.1111 57.5571 20.5756 57.4119 19.904 57.2486C20.2761 58.0017 20.6482 58.5824 21.0475 59.1449C22.2092 60.7963 23.3709 62.4385 24.5416 64.0899C25.1043 64.8883 25.7668 65.6142 26.4202 66.34C26.9284 66.9117 27.5274 67.1294 28.2262 67.202C29.0067 67.2746 29.2971 67.0387 29.3516 66.2675C29.4151 65.4237 29.2608 64.607 28.9977 63.8086C28.9341 63.6181 28.8615 63.4275 28.8161 63.237C28.7889 63.1281 28.8161 63.0011 28.9432 62.9466C29.0702 62.8922 29.1701 62.9557 29.2427 63.0465C29.3062 63.11 29.3516 63.1825 29.397 63.2551C30.0867 64.353 30.8672 65.3964 31.4934 66.5306C32.0742 67.574 32.528 68.6537 32.528 69.8786C32.528 69.9058 32.6006 69.9421 32.7004 70.0057C33.9075 68.1819 34.2251 66.2584 33.4809 64.1806C33.4083 63.9901 33.2994 63.8177 33.2359 63.6271C33.1179 63.3005 33.2722 63.119 33.5898 63.1009C33.7895 63.0918 33.9892 63.1281 34.1797 63.1826C35.2234 63.4548 35.8133 64.2078 36.2217 65.1424C36.6392 66.1041 36.7935 67.1294 36.975 68.1547C37.0566 68.6356 37.1383 69.1255 37.2745 69.5883C37.4923 70.296 37.7373 70.423 38.427 70.1871C38.781 70.0692 39.1077 69.8877 39.4526 69.7335C40.1151 69.434 40.2694 69.5339 40.2694 70.2597C40.2694 70.9493 40.2694 71.6298 40.2694 72.4101C41.3584 72.0471 42.4112 71.7477 43.5002 71.6479C43.8905 71.6116 43.8542 71.3485 43.709 71.0763C42.8105 69.3978 42.148 67.6194 41.4129 65.8592C41.2677 65.5144 41.068 65.2059 40.7685 64.9609C40.2603 64.5526 40.3057 64.353 40.9228 64.0899C42.0118 63.6181 43.1735 63.9175 43.9449 64.8883C44.4168 65.4872 44.6891 66.1858 44.9251 66.8935C45.161 67.6012 45.3788 68.318 45.633 69.0257C45.8689 69.6609 46.2319 70.1962 46.7765 70.6227C47.0396 70.8223 47.2938 70.9584 47.6477 70.8495C48.1287 70.7043 48.5553 70.8767 48.9273 71.1852C49.1542 71.3667 49.363 71.5663 49.6443 71.657C49.8167 71.7114 50.0164 71.7386 50.0436 71.4937C50.1071 70.795 50.57 70.296 50.9058 69.7335C51.2779 69.1346 51.2507 68.5358 50.8695 67.946C50.6335 67.574 50.334 67.2655 50.0073 66.9752C49.5173 66.5306 49.0272 66.0769 48.5553 65.6142C48.2558 65.3238 48.1015 65.0335 48.1469 64.6252C48.2648 63.5546 48.5734 62.5383 49.0816 61.5947C49.2994 61.1774 49.6806 60.9414 50.1616 61.0412C51.3414 61.3044 52.5303 61.5403 53.6375 62.0484C54.3 62.3569 54.6177 62.8922 54.6086 63.6362C54.5995 64.2804 54.4089 64.8883 54.2274 65.4872C53.9552 66.3763 54.0187 67.1748 54.7356 67.8916C55.0805 67.7373 55.2983 67.4379 55.4798 67.1113C55.7521 66.5941 55.8973 66.0406 55.9336 65.4599C55.988 64.5163 55.6976 63.6453 55.3618 62.7743C55.2257 62.4295 55.0442 62.0938 55.0533 61.7036C55.0624 61.3134 55.2983 61.1229 55.6795 61.2046C55.9699 61.2681 56.2059 61.4405 56.4327 61.6219C57.1225 62.1573 57.6852 62.8105 58.1661 63.5364C58.874 64.6161 59.4186 65.7503 58.8468 67.2202C59.6273 66.7846 60.1083 66.2584 60.5076 65.6686C61.3335 64.4528 61.3153 63.727 60.4259 62.5474C60.317 62.4113 60.19 62.2752 60.2535 62.0847C60.3261 61.8397 60.553 61.8488 60.7527 61.8397C61.5967 61.8034 62.4135 61.9395 63.1486 62.4295C63.4027 62.0302 63.3482 61.6129 63.3664 61.2227C63.4299 59.5895 63.4481 59.5714 64.9909 60.1884C65.3993 60.3517 65.8077 60.6511 66.1435 60.0523C66.1979 59.9525 66.3976 59.9252 66.5337 59.8799C67.8769 59.4171 69.093 58.7003 70.3817 58.1197C70.9262 57.8565 71.2439 57.4845 71.3891 56.9401ZM67.405 43.6568C67.6319 43.3483 68.2127 43.0308 67.532 42.5952C67.5048 42.5771 67.4866 42.4591 67.5139 42.441C67.9404 42.0599 67.4957 41.9783 67.2961 41.8785C65.8258 41.207 64.4282 40.4086 63.1667 39.3833C62.713 39.0113 62.2138 38.8661 61.6511 39.1837C61.2518 39.4105 60.8616 39.3107 60.5258 39.0294C60.0629 38.6393 59.6182 38.231 59.1645 37.8227C58.4838 37.2057 57.8122 36.5706 57.0317 36.0625C56.6143 35.7903 56.2059 35.6814 55.743 35.9445C55.2711 36.2167 54.7992 36.1078 54.3454 35.8629C53.8644 35.5997 53.456 35.2277 53.0294 34.8829C52.7481 34.647 52.5031 34.3567 52.1582 34.2478C51.9676 34.3386 51.9404 34.4837 51.8769 34.6108C51.4594 35.509 51.0328 35.6451 50.207 35.0826C49.8258 34.8285 49.49 34.511 49.1542 34.1934C48.7186 33.776 48.3102 33.3314 47.8746 32.9141C46.958 32.0339 46.5859 31.9704 45.4061 32.5148C44.9069 32.7417 44.4259 32.9957 43.9268 33.2316C43.4004 33.4766 42.8468 33.7397 42.275 33.7034C41.313 33.6399 40.4781 33.9393 39.6704 34.4021C39.5433 34.4746 39.4072 34.52 39.2711 34.5654C36.5757 35.5725 34.8513 34.8467 33.6806 32.2154C33.5445 31.9069 33.49 31.544 33.2087 31.3262C32.9908 31.3172 32.891 31.4714 32.764 31.5893C31.3754 32.8868 29.9778 34.1752 28.6165 35.509C28.2535 35.8629 27.8814 35.999 27.3913 35.999C26.3385 35.9899 25.3402 35.754 24.351 35.4273C23.5524 35.1642 23.5524 35.1733 23.1077 35.881C22.7447 36.4617 22.427 37.0968 21.7373 37.3872C21.6193 37.4416 21.4741 37.5142 21.5195 37.7864C23.1621 38.0586 24.7776 38.5667 26.393 39.0476C29.2064 39.8914 32.1196 40.3451 34.9511 41.1435C36.4214 41.5609 37.9279 41.824 39.4435 42.0055C42.2206 42.3321 44.9795 42.7677 47.6749 43.5389C52.1673 44.8273 56.5326 46.4786 60.8162 48.3296C60.9886 48.4021 61.2155 48.4384 61.2427 48.6925C60.7799 48.7016 60.7799 48.7106 60.3806 48.5382C57.8394 47.4495 55.2529 46.4786 52.6483 45.5441C48.7821 44.1558 44.8434 43.0943 40.7685 42.6043C38.8536 42.3775 36.9387 42.1416 35.0691 41.6516C31.1213 40.6082 27.0918 39.8461 23.1803 38.6393C22.2001 38.3399 21.1837 38.1766 20.1128 38.2673C19.5864 38.3127 19.06 38.476 18.5155 38.485C18.7242 37.732 18.7242 37.732 17.8167 37.2148C17.617 37.7229 17.2994 38.0949 16.7458 38.2401C16.4917 38.3036 16.3465 38.5667 16.1831 38.7663C15.5115 39.5738 14.6766 40.1818 13.7963 40.7352C13.1701 41.1254 12.4985 41.3613 11.7543 41.3159C11.4911 41.2978 11.2551 41.3159 11.0373 41.5155C10.393 42.1325 9.58525 42.4319 8.75031 42.686C7.93352 42.94 7.86091 43.1669 8.42359 43.7839C8.5325 43.9109 8.65049 44.056 8.85015 44.047C9.03165 43.8474 8.91367 43.4028 9.32206 43.4118C9.65786 43.4209 9.76676 43.7385 9.91197 43.9835C10.1298 44.3555 10.3204 44.7456 10.52 45.1267C11.2733 46.5512 12.0175 47.9848 12.7798 49.4002C13.3334 50.4164 13.9868 51.3601 14.849 52.1494C16.2739 53.456 17.6987 54.7535 19.1417 56.0328C19.777 56.5953 20.4849 57.0127 21.5195 57.1125C21.3198 56.5227 21.1474 56.0328 21.0022 55.5519C20.866 55.1164 20.739 54.6718 20.621 54.2272C20.5484 53.9459 20.4576 53.6193 20.7753 53.4469C21.1474 53.2473 21.3561 53.5739 21.5467 53.8189C21.8099 54.1546 22.0459 54.5266 22.2818 54.8805C22.6993 55.5065 23.0986 56.1326 23.5252 56.7496C24.1423 57.6569 24.9772 58.2285 26.0844 58.3283C27.3368 58.4372 28.4077 58.9635 29.4333 59.6258C30.1593 60.0885 30.8672 60.5966 31.5842 61.0775C31.8927 61.2862 32.2104 61.4858 32.5462 61.6492C32.9001 61.8215 33.0362 61.7308 33.0181 61.3497C32.9818 60.6602 32.6551 60.0886 32.2648 59.5442C32.0833 59.2901 31.566 59.0179 31.8746 58.7185C32.2739 58.3374 32.4917 58.9181 32.7367 59.1359C34.0708 60.3245 35.4684 61.4405 37.0022 62.366C37.3924 62.6019 37.819 62.8105 38.2455 62.9648C39.1622 63.2914 39.4979 62.9829 39.3255 62.0212C39.2257 61.4768 38.9988 60.9777 38.7084 60.5059C38.3907 59.9888 38.0005 59.526 37.5558 59.1086C37.4106 58.9725 37.22 58.8183 37.3743 58.6005C37.5195 58.3919 37.7373 58.4735 37.9188 58.5552C38.7265 58.9272 39.5433 59.2992 40.351 59.6803C40.9772 59.9797 41.5762 60.3154 42.2387 60.5241C42.9375 60.7509 43.6182 60.7509 44.2172 60.2972C44.9977 59.7075 45.8326 59.644 46.7583 59.8889C47.2847 60.0341 47.8383 60.0523 48.3828 59.8799C48.7821 59.7528 49.1179 59.5623 49.1905 59.0814C49.3085 58.283 49.8984 57.9835 50.5972 57.9019C52.1038 57.7386 53.6012 57.6932 54.8355 58.8364C55.1894 59.1631 55.5615 59.1268 55.9427 58.8637C56.4509 58.5189 56.8774 58.1106 57.2586 57.6297C57.8485 56.8585 58.3386 56.7677 59.2008 57.2486C59.6545 57.5027 60.072 57.8112 60.5258 58.0652C61.9415 58.8727 62.3862 58.7548 63.0578 57.2849C63.439 56.4502 63.9381 55.9511 64.9183 56.1598C64.9546 56.1689 65.009 56.1054 65.0998 56.0509C64.5916 54.9168 64.5008 53.6737 64.3556 52.4488C64.1015 50.3529 64.4645 48.3749 65.5264 46.5421C66.08 45.5441 66.7243 44.5914 67.405 43.6568ZM66.1525 61.8397C66.1889 61.4042 66.0709 61.1229 65.6171 61.005C65.3448 60.9324 65.0816 60.7872 64.8094 60.6874C64.0107 60.388 64.0017 60.397 63.9472 61.2136C63.9109 61.7308 63.8746 62.248 63.7748 62.7561C63.6568 63.3912 63.3845 63.482 62.9217 63.0465C62.4588 62.6019 61.9506 62.366 61.2972 62.4295C61.3063 62.5383 61.2881 62.6018 61.3153 62.6472C62.6585 64.5798 60.2263 67.4651 58.629 67.9097C58.5473 67.9279 58.4566 67.946 58.3749 67.9551C58.148 67.9732 57.8939 68.0186 57.7668 67.7646C57.6489 67.5377 57.8122 67.3744 57.9574 67.2383C58.7107 66.5669 58.6562 65.7684 58.3023 64.9428C57.8213 63.8086 57.0862 62.8559 56.1333 62.0756C56.0244 61.9849 55.8973 61.7943 55.6886 61.9849C55.9154 62.6654 56.2331 63.3096 56.3692 64.0264C56.6869 65.6777 56.5144 67.1929 55.1259 68.3452C54.9171 68.5176 54.9353 68.7445 54.8264 68.9441C54.7447 69.0893 54.5632 69.1709 54.4815 69.0257C54.2274 68.6174 53.7918 68.3362 53.692 67.819C53.4923 66.8481 53.4378 65.8864 53.8009 64.9337C53.9007 64.6706 53.9642 64.3802 54.0096 64.0989C54.173 63.119 53.9461 62.6926 53.0204 62.375C52.258 62.1119 51.4775 61.9123 50.6971 61.7127C49.7986 61.4768 49.5354 61.631 49.2631 62.5474C49.1996 62.7743 49.127 62.9648 49.4265 63.119C49.7986 63.3096 49.7804 63.6725 49.6806 64.0354C49.5989 64.3439 49.4991 64.6433 49.3085 64.9065C49.0907 65.1968 49.1542 65.4237 49.4083 65.6505C49.6897 65.8955 49.9619 66.1495 50.2433 66.4036C50.6245 66.7484 51.0056 67.1113 51.3051 67.5377C51.8678 68.3543 51.9313 69.1891 51.3777 70.0419C51.1871 70.3323 50.9875 70.6136 50.815 70.913C50.6517 71.2033 50.5065 71.5028 50.9784 71.6661C51.1236 71.7205 51.2416 71.8112 51.2053 71.9836C51.169 72.1833 51.0056 72.2558 50.8241 72.2649C50.0436 72.2921 49.2722 72.3103 48.646 71.6842C48.3465 71.3848 47.929 71.2033 47.566 71.539C47.1486 71.9201 46.9489 71.8294 46.7674 71.3576C46.7311 71.2578 46.6131 71.1852 46.5224 71.1217C45.6511 70.5047 45.2155 69.6155 44.8888 68.6447C44.6528 67.937 44.435 67.2202 44.19 66.5124C43.9903 65.9408 43.718 65.3964 43.2643 64.97C42.7197 64.4619 42.1026 64.3348 41.3403 64.5707C41.549 64.9609 41.7396 65.2422 41.8757 65.5598C42.6562 67.3835 43.3732 69.2344 44.2716 71.0128C44.6437 71.7477 44.435 72.0834 43.6091 72.1833C42.6018 72.3103 41.6307 72.5462 40.6687 72.8547C39.8791 73.1178 39.6341 72.891 39.6704 72.029C39.6976 71.4755 39.7521 70.913 39.6522 70.3051C39.1894 70.4684 38.8264 70.6317 38.4361 70.7315C37.5921 70.9493 37.102 70.7043 36.8116 69.8877C36.7027 69.5883 36.6392 69.2798 36.5847 68.9713C36.4577 68.318 36.3578 67.6647 36.2308 67.0205C36.0765 66.2584 35.8768 65.5053 35.4775 64.8248C35.1327 64.2532 34.688 63.8086 33.9892 63.6906C33.9619 63.7995 33.9438 63.8267 33.9529 63.8449C33.9982 64.0082 34.0527 64.1715 34.0981 64.3439C34.697 66.3037 34.4157 68.1547 33.3811 69.9058C33.1905 70.2325 32.9636 70.5319 32.6823 70.7769C32.5099 70.9311 32.3193 71.1126 32.0742 70.9856C31.8201 70.8495 31.9109 70.5863 31.9381 70.3686C32.1196 68.6628 31.1939 66.2947 29.7872 64.979C29.8326 65.5234 29.9143 66.0043 29.8326 66.4852C29.6692 67.3925 29.2608 67.7283 28.3442 67.6647C28.0266 67.6466 27.718 67.574 27.4094 67.5105C27.2189 67.4742 27.0555 67.5014 26.992 67.701C26.7832 68.318 26.3567 68.7808 25.8575 69.1709C26.1298 69.5248 26.4747 69.4613 26.7651 69.5157C27.7634 69.6881 28.435 70.2597 28.8161 71.1761C28.9886 71.6026 29.1429 72.0381 29.2699 72.4827C29.5059 73.3083 30.0686 73.7076 30.9035 73.7892C31.9381 73.889 32.9818 73.9162 33.9801 73.5805C36.0039 72.9 37.937 73.0361 39.8337 74.0251C41.2949 74.7873 42.8468 75.1049 44.5076 75.0232C45.8598 74.9506 47.1304 74.7056 48.2648 73.9162C49.0816 73.3537 49.9892 72.9998 50.933 72.7276C51.9585 72.4373 53.0204 72.2921 54.055 72.0381C56.2694 71.4937 58.1752 70.2869 60.072 69.0983C60.9614 68.5449 61.4878 67.6738 61.4968 66.5669C61.4968 66.086 61.7419 65.7412 62.1231 65.4962C62.4861 65.2603 62.8672 65.0516 63.2393 64.8429C64.1287 64.353 64.9364 63.7542 65.6171 63.0011C65.8984 62.6563 66.1162 62.3024 66.1525 61.8397ZM48.7731 64.471C49.0725 64.2169 49.1089 64.0354 49.1089 63.6725C48.9818 63.8812 48.9273 63.9356 48.9001 64.0082C48.8547 64.1171 48.8366 64.226 48.7731 64.471ZM26.157 68.2545C26.3567 67.9914 26.6562 67.7283 26.4474 67.3563C26.3295 67.1476 25.6125 67.1929 25.3221 67.4016C24.9591 67.6557 24.8411 68.0186 24.832 68.4088C24.8502 68.8715 25.0408 69.0076 25.431 68.8443C25.7305 68.7172 25.9664 68.5086 26.157 68.2545Z" fill="black"/>
</svg>
