<svg width="124" height="92" viewBox="0 0 124 92" fill="none" xmlns="http://www.w3.org/2000/svg">
<g clip-path="url(#clip0_191_148541)">
<path d="M35.3068 16.6845C35.5456 17.2654 35.0037 17.8604 34.0961 18.013C33.1884 18.1656 32.2597 17.819 32.0208 17.2381C32.0138 17.2202 29.3979 11.0924 32.6506 0.869612C32.8381 0.281663 33.7345 -0.0977258 34.6525 0.022103C35.5709 0.141932 36.1634 0.715784 35.976 1.30373C32.8853 11.0177 35.2997 16.6675 35.3064 16.6841L35.3068 16.6845Z" fill="#7E9D1A"/>
<path fill-rule="evenodd" clip-rule="evenodd" d="M33.7494 16.3151H32.3649C-9.67592 16.3151 -10.285 92 32.3649 92H33.7494C76.3993 92 75.7902 16.3151 33.7494 16.3151Z" fill="#711536"/>
<path fill-rule="evenodd" clip-rule="evenodd" d="M25.4988 22.2228H24.6019C-2.63073 22.2228 -3.02504 85.5396 24.6019 85.5396H25.4988C53.1257 85.5396 52.7314 22.2228 25.4988 22.2228Z" fill="#8A314F"/>
<path fill-rule="evenodd" clip-rule="evenodd" d="M18.5622 29.5021L18.4482 29.4473C14.9831 27.7888 7.2216 43.8774 10.7368 45.5599L10.8509 45.6147C14.3661 47.2968 22.0273 31.1606 18.5622 29.5021Z" fill="white"/>
<path d="M93.0671 16.6845C93.3059 17.2654 92.764 17.8604 91.8568 18.013C90.9496 18.1656 90.0204 17.819 89.7816 17.2381C89.7745 17.2202 87.1586 11.0924 90.4114 0.869612C90.5988 0.281663 91.4952 -0.0977258 92.4132 0.022103C93.3312 0.141932 93.9242 0.715784 93.7367 1.30373C90.6461 11.0177 93.0605 16.6675 93.0671 16.6841V16.6845Z" fill="#7E9D1A"/>
<path fill-rule="evenodd" clip-rule="evenodd" d="M91.5091 16.3151H90.1247C48.0838 16.3151 47.4748 92 90.1247 92H91.5091C134.159 92 133.55 16.3151 91.5091 16.3151Z" fill="#711536"/>
<path fill-rule="evenodd" clip-rule="evenodd" d="M91.5087 19.5455H90.1242C83.6 19.5455 77.6541 21.5631 72.7607 25.9288C65.0812 32.7801 61.7057 43.8139 61.5975 53.8509C61.4097 71.3306 70.7484 88.77 90.1238 88.77H91.5083C98.331 88.77 104.531 86.6318 109.541 81.9348C117.024 74.9176 120.142 63.8593 120.035 53.8509C119.85 36.7432 110.474 19.5455 91.5083 19.5455H91.5087Z" fill="#EEF4EB"/>
<path fill-rule="evenodd" clip-rule="evenodd" d="M91.3043 29.7757H90.3291C85.7333 29.7757 81.5447 31.1971 78.0979 34.2724C72.6882 39.0987 70.3103 46.8714 70.2344 53.9417C70.1021 66.2551 76.6807 78.5398 90.3295 78.5398H91.3047C96.1112 78.5398 100.479 77.0334 104.007 73.7247C109.279 68.7814 111.476 60.9917 111.4 53.9413C111.27 41.89 104.665 29.7753 91.3047 29.7753L91.3043 29.7757Z" fill="#FF9A00"/>
<path fill-rule="evenodd" clip-rule="evenodd" d="M73.017 51.5622C73.1496 50.8092 74.8646 50.4816 76.8477 50.8307C78.8309 51.1799 80.3311 52.0734 80.1984 52.8264C80.0657 53.5793 78.3508 53.9069 76.3676 53.5578C74.3844 53.2087 72.8843 52.3151 73.017 51.5622Z" fill="#F4C518"/>
<path fill-rule="evenodd" clip-rule="evenodd" d="M75.9047 52.0705C75.9752 51.6708 76.8858 51.4966 77.9389 51.682C78.9921 51.8673 79.7886 52.3417 79.7181 52.7418C79.6476 53.1415 78.7371 53.3156 77.6839 53.1303C76.6308 52.9449 75.8342 52.4706 75.9047 52.0705Z" fill="#CFAA13"/>
<path fill-rule="evenodd" clip-rule="evenodd" d="M73.8538 51.7342C73.8969 51.4892 74.1988 51.337 74.5284 51.3951C74.8576 51.4531 75.0898 51.699 75.0467 51.944C75.0036 52.1891 74.7017 52.3412 74.3721 52.2832C74.0429 52.2251 73.8107 51.9793 73.8538 51.7342Z" fill="#FFF662"/>
<path fill-rule="evenodd" clip-rule="evenodd" d="M75.0301 43.5693C75.3465 42.8731 77.0892 42.9846 78.9218 43.8181C80.7549 44.6515 81.9839 45.8916 81.6675 46.5874C81.3512 47.2836 79.6085 47.172 77.7758 46.3386C75.9427 45.5052 74.7137 44.265 75.0301 43.5693Z" fill="#F4C518"/>
<path fill-rule="evenodd" clip-rule="evenodd" d="M77.7003 44.7829C77.8682 44.4135 78.7937 44.4723 79.7668 44.9152C80.7399 45.3576 81.393 46.016 81.2246 46.3859C81.0567 46.7553 80.1313 46.6964 79.1581 46.2536C78.185 45.8112 77.5319 45.1528 77.7003 44.7829Z" fill="#CFAA13"/>
<path fill-rule="evenodd" clip-rule="evenodd" d="M75.7985 43.9445C75.9018 43.7177 76.2318 43.6464 76.5362 43.7849C76.8405 43.9234 77.0039 44.2194 76.9006 44.4458C76.7974 44.6722 76.4673 44.7439 76.163 44.6054C75.8587 44.467 75.6953 44.1709 75.7985 43.9445Z" fill="#FFF662"/>
<path fill-rule="evenodd" clip-rule="evenodd" d="M78.5051 38.3611C78.9152 37.7159 80.6251 38.0684 82.3247 39.1481C84.0238 40.2282 85.0691 41.6267 84.659 42.2719C84.249 42.9171 82.539 42.5646 80.8395 41.4849C79.1399 40.4052 78.095 39.0063 78.5051 38.3611Z" fill="#F4C518"/>
<path fill-rule="evenodd" clip-rule="evenodd" d="M80.9808 39.9342C81.1985 39.5913 82.1066 39.7787 83.0092 40.3522C83.9115 40.9256 84.4667 41.6682 84.249 42.0111C84.0313 42.354 83.1232 42.1666 82.2206 41.5931C81.3183 41.0197 80.7632 40.2771 80.9808 39.9342Z" fill="#CFAA13"/>
<path fill-rule="evenodd" clip-rule="evenodd" d="M79.2137 38.8396C79.3472 38.6293 79.6843 38.6045 79.9666 38.7836C80.249 38.9631 80.3693 39.2787 80.2357 39.4889C80.1022 39.6991 79.7651 39.724 79.4828 39.5449C79.2004 39.3653 79.0802 39.0498 79.2137 38.8396Z" fill="#FFF662"/>
<path fill-rule="evenodd" clip-rule="evenodd" d="M73.887 58.2485C73.8348 57.4856 75.4203 56.7554 77.4292 56.6174C79.4381 56.4793 81.1091 56.986 81.1613 57.7485C81.2135 58.5114 79.628 59.2416 77.6191 59.3796C75.6102 59.5177 73.9392 59.011 73.887 58.2481V58.2485Z" fill="#F4C518"/>
<path fill-rule="evenodd" clip-rule="evenodd" d="M76.8122 58.0474C76.7844 57.6423 77.6265 57.2546 78.6934 57.1812C79.7602 57.1078 80.6475 57.3769 80.6753 57.782C80.7031 58.1871 79.861 58.5748 78.7941 58.6482C77.7273 58.7216 76.84 58.4525 76.8122 58.0474Z" fill="#CFAA13"/>
<path fill-rule="evenodd" clip-rule="evenodd" d="M74.741 58.2141C74.724 57.9657 74.9807 57.7456 75.314 57.7228C75.6474 57.7 75.9319 57.8828 75.9489 58.1312C75.9659 58.3795 75.7092 58.5997 75.3758 58.6225C75.0421 58.6453 74.758 58.4625 74.741 58.2141Z" fill="#FFF662"/>
<path fill-rule="evenodd" clip-rule="evenodd" d="M75.164 63.103C75.0517 62.3467 76.5755 61.4938 78.5669 61.1982C80.5588 60.9026 82.2642 61.2762 82.3766 62.0324C82.4889 62.7887 80.9652 63.6416 78.9737 63.9373C76.9818 64.2329 75.2764 63.8593 75.164 63.103Z" fill="#F4C518"/>
<path fill-rule="evenodd" clip-rule="evenodd" d="M78.0646 62.6726C78.0049 62.2709 78.8139 61.8181 79.8716 61.6613C80.9293 61.5042 81.8349 61.7028 81.8946 62.1042C81.9543 62.5055 81.1453 62.9587 80.0876 63.1155C79.0299 63.2726 78.1243 63.074 78.0646 62.6726Z" fill="#CFAA13"/>
<path fill-rule="evenodd" clip-rule="evenodd" d="M76.0125 63.0014C75.976 62.7552 76.2144 62.5155 76.5453 62.4666C76.8762 62.4176 77.1739 62.5773 77.2104 62.8236C77.2468 63.0699 77.0084 63.3095 76.6775 63.3584C76.3467 63.4074 76.049 63.2477 76.0125 63.0014Z" fill="#FFF662"/>
<path fill-rule="evenodd" clip-rule="evenodd" d="M77.365 68.0446C77.086 67.3327 78.3792 66.1597 80.2538 65.425C82.1283 64.6898 83.8743 64.6712 84.1534 65.3831C84.4324 66.095 83.1392 67.268 81.2646 68.0027C79.3901 68.7379 77.6441 68.7565 77.365 68.0446Z" fill="#F4C518"/>
<path fill-rule="evenodd" clip-rule="evenodd" d="M80.0954 66.974C79.9469 66.5959 80.634 65.9731 81.6295 65.583C82.625 65.1928 83.5521 65.1828 83.7002 65.5606C83.8486 65.9387 83.1616 66.5615 82.166 66.9517C81.1705 67.3418 80.2434 67.3518 80.0954 66.974Z" fill="#CFAA13"/>
<path fill-rule="evenodd" clip-rule="evenodd" d="M78.1701 67.7552C78.0793 67.5234 78.258 67.2365 78.569 67.1146C78.8804 66.9927 79.2063 67.0814 79.2971 67.3132C79.3879 67.545 79.2092 67.8319 78.8982 67.9538C78.5868 68.0757 78.2609 67.987 78.1701 67.7552Z" fill="#FFF662"/>
<path fill-rule="evenodd" clip-rule="evenodd" d="M83.0521 74.2479C82.4156 73.8242 82.8041 72.1221 83.9195 70.4458C85.0353 68.7694 86.4554 67.7544 87.0923 68.1781C87.7287 68.6019 87.3402 70.304 86.2249 71.9803C85.1091 73.6567 83.689 74.6717 83.0521 74.2479Z" fill="#F4C518"/>
<path fill-rule="evenodd" clip-rule="evenodd" d="M84.6772 71.8066C84.3392 71.5814 84.5453 70.6775 85.1378 69.7877C85.7303 68.8975 86.4845 68.3585 86.8225 68.5836C87.1604 68.8088 86.9543 69.7127 86.3618 70.6025C85.7693 71.4923 85.0151 72.0317 84.6772 71.8066Z" fill="#CFAA13"/>
<path fill-rule="evenodd" clip-rule="evenodd" d="M83.5459 73.5501C83.3386 73.412 83.3207 73.0745 83.5061 72.7963C83.6914 72.5181 84.0094 72.4041 84.2168 72.5421C84.4241 72.6802 84.4419 73.0177 84.2566 73.2959C84.0712 73.5742 83.7532 73.6882 83.5459 73.5501Z" fill="#FFF662"/>
<path fill-rule="evenodd" clip-rule="evenodd" d="M82.1761 34.26C82.7756 33.7852 84.2749 34.6796 85.525 36.2577C86.7756 37.8357 87.3034 39.5001 86.7039 39.9752C86.1043 40.45 84.605 39.5556 83.3549 37.9776C82.1043 36.3995 81.5765 34.7351 82.1761 34.26Z" fill="#F4C518"/>
<path fill-rule="evenodd" clip-rule="evenodd" d="M83.9973 36.5587C84.3158 36.3066 85.1119 36.7813 85.7757 37.6197C86.4395 38.4577 86.7198 39.3417 86.4018 39.5938C86.0834 39.8459 85.2873 39.3711 84.6234 38.5327C83.9596 37.6948 83.6793 36.8108 83.9973 36.5587Z" fill="#CFAA13"/>
<path fill-rule="evenodd" clip-rule="evenodd" d="M82.688 34.9445C82.8833 34.7899 83.2096 34.8769 83.4174 35.139C83.6251 35.401 83.6351 35.739 83.4398 35.8936C83.2445 36.0483 82.9182 35.9612 82.7104 35.6992C82.5027 35.4371 82.4927 35.0992 82.688 34.9445Z" fill="#FFF662"/>
<path fill-rule="evenodd" clip-rule="evenodd" d="M87.97 31.9583C88.7234 31.8277 89.6128 33.3299 89.9569 35.314C90.3011 37.298 89.969 39.0121 89.2156 39.1427C88.4622 39.2733 87.5728 37.7711 87.2287 35.7871C86.8845 33.803 87.2166 32.0889 87.97 31.9583Z" fill="#F4C518"/>
<path fill-rule="evenodd" clip-rule="evenodd" d="M88.4706 34.8479C88.8707 34.7787 89.343 35.5764 89.5259 36.63C89.7087 37.6836 89.5325 38.5937 89.1324 38.6629C88.7322 38.7322 88.26 37.9344 88.0771 36.8809C87.8943 35.8273 88.0705 34.9172 88.4706 34.8479Z" fill="#CFAA13"/>
<path fill-rule="evenodd" clip-rule="evenodd" d="M88.0921 32.8046C88.3376 32.7619 88.5826 32.9945 88.6398 33.3241C88.6971 33.6538 88.5445 33.9552 88.299 33.9975C88.0535 34.0402 87.8085 33.8076 87.7513 33.478C87.6941 33.1483 87.8466 32.8469 88.0921 32.8046Z" fill="#FFF662"/>
<path fill-rule="evenodd" clip-rule="evenodd" d="M93.519 31.7042C94.2836 31.7125 94.8852 33.3515 94.8629 35.365C94.8405 37.3784 94.2028 39.0038 93.4382 38.9951C92.6736 38.9868 92.072 37.3477 92.0944 35.3343C92.1167 33.3208 92.7544 31.6955 93.519 31.7042Z" fill="#F4C518"/>
<path fill-rule="evenodd" clip-rule="evenodd" d="M93.4875 34.6364C93.8934 34.641 94.2131 35.5113 94.2011 36.5807C94.1891 37.65 93.8507 38.5128 93.4444 38.5083C93.0385 38.5037 92.7188 37.6334 92.7308 36.5641C92.7428 35.4947 93.0812 34.6319 93.4875 34.6364Z" fill="#CFAA13"/>
<path fill-rule="evenodd" clip-rule="evenodd" d="M93.4857 32.5583C93.7349 32.5612 93.9335 32.8345 93.9298 33.1686C93.9261 33.5028 93.7212 33.7719 93.4724 33.769C93.2232 33.7661 93.0246 33.4929 93.0284 33.1587C93.0321 32.8245 93.2369 32.5554 93.4861 32.5583H93.4857Z" fill="#FFF662"/>
<path fill-rule="evenodd" clip-rule="evenodd" d="M107.723 43.5693C107.407 42.8731 105.664 42.9846 103.831 43.8181C101.998 44.6515 100.769 45.8916 101.086 46.5874C101.402 47.2836 103.145 47.172 104.978 46.3386C106.811 45.5052 108.04 44.265 107.723 43.5693Z" fill="#F4C518"/>
<path fill-rule="evenodd" clip-rule="evenodd" d="M105.054 44.7829C104.886 44.4135 103.96 44.4723 102.987 44.9152C102.014 45.3576 101.361 46.016 101.529 46.3859C101.698 46.7557 102.623 46.6964 103.596 46.2536C104.569 45.8112 105.222 45.1528 105.054 44.7829Z" fill="#CFAA13"/>
<path fill-rule="evenodd" clip-rule="evenodd" d="M106.955 43.9445C106.852 43.7177 106.522 43.6464 106.218 43.7849C105.913 43.9234 105.75 44.2194 105.853 44.4458C105.956 44.6726 106.287 44.7439 106.591 44.6054C106.895 44.467 107.059 44.1709 106.955 43.9445Z" fill="#FFF662"/>
<path fill-rule="evenodd" clip-rule="evenodd" d="M104.248 38.3611C103.838 37.7159 102.128 38.0684 100.428 39.1481C98.7291 40.2282 97.6839 41.6267 98.0939 42.2719C98.504 42.9171 100.214 42.5646 101.914 41.4849C103.613 40.4048 104.658 39.0063 104.248 38.3611Z" fill="#F4C518"/>
<path fill-rule="evenodd" clip-rule="evenodd" d="M101.773 39.9342C101.556 39.5913 100.648 39.7787 99.745 40.3522C98.8428 40.9256 98.2876 41.6682 98.5053 42.0111C98.7229 42.354 99.631 42.1666 100.534 41.5931C101.436 41.0197 101.991 40.2771 101.773 39.9342Z" fill="#CFAA13"/>
<path fill-rule="evenodd" clip-rule="evenodd" d="M103.539 38.8396C103.406 38.6293 103.069 38.6045 102.786 38.7836C102.504 38.9631 102.384 39.2787 102.517 39.4889C102.651 39.6991 102.988 39.724 103.27 39.5449C103.553 39.3653 103.673 39.0498 103.539 38.8396Z" fill="#FFF662"/>
<path fill-rule="evenodd" clip-rule="evenodd" d="M109.769 52.4872C109.76 51.7226 108.12 51.1235 106.107 51.1488C104.093 51.1741 102.469 51.8143 102.479 52.5788C102.488 53.3434 104.128 53.9426 106.141 53.9173C108.155 53.892 109.779 53.2518 109.769 52.4872Z" fill="#F4C518"/>
<path fill-rule="evenodd" clip-rule="evenodd" d="M106.837 52.5241C106.832 52.1182 105.961 51.7997 104.892 51.8134C103.822 51.8267 102.96 52.1667 102.965 52.573C102.97 52.9789 103.841 53.2974 104.91 53.2837C105.979 53.2704 106.842 52.9304 106.837 52.5241Z" fill="#CFAA13"/>
<path fill-rule="evenodd" clip-rule="evenodd" d="M108.916 52.522C108.913 52.2733 108.639 52.0746 108.305 52.0788C107.97 52.0829 107.702 52.2882 107.705 52.5374C107.708 52.7861 107.982 52.9848 108.316 52.9806C108.65 52.9765 108.919 52.7712 108.916 52.522Z" fill="#FFF662"/>
<path fill-rule="evenodd" clip-rule="evenodd" d="M108.866 58.2485C108.919 57.4856 107.333 56.7554 105.324 56.6174C103.315 56.4793 101.644 56.986 101.592 57.7485C101.54 58.5114 103.125 59.2416 105.134 59.3796C107.143 59.5177 108.814 59.011 108.866 58.2481V58.2485Z" fill="#F4C518"/>
<path fill-rule="evenodd" clip-rule="evenodd" d="M105.941 58.0474C105.969 57.6423 105.127 57.2546 104.06 57.1812C102.993 57.1078 102.106 57.3769 102.078 57.782C102.05 58.1871 102.892 58.5748 103.959 58.6482C105.026 58.7216 105.913 58.4525 105.941 58.0474Z" fill="#CFAA13"/>
<path fill-rule="evenodd" clip-rule="evenodd" d="M108.012 58.2141C108.029 57.9657 107.773 57.7456 107.439 57.7228C107.106 57.7 106.822 57.8828 106.805 58.1312C106.788 58.3795 107.044 58.5997 107.378 58.6225C107.711 58.6453 107.995 58.4625 108.012 58.2141Z" fill="#FFF662"/>
<path fill-rule="evenodd" clip-rule="evenodd" d="M107.589 63.103C107.702 62.3467 106.178 61.4938 104.187 61.1982C102.195 60.9026 100.489 61.2762 100.377 62.0324C100.265 62.7887 101.788 63.6416 103.78 63.9373C105.772 64.2329 107.477 63.8593 107.589 63.103Z" fill="#F4C518"/>
<path fill-rule="evenodd" clip-rule="evenodd" d="M104.689 62.6726C104.748 62.2709 103.939 61.8181 102.882 61.6613C101.824 61.5042 100.918 61.7028 100.859 62.1042C100.799 62.5059 101.608 62.9587 102.666 63.1155C103.723 63.2722 104.629 63.074 104.689 62.6726Z" fill="#CFAA13"/>
<path fill-rule="evenodd" clip-rule="evenodd" d="M106.741 63.0014C106.777 62.7552 106.539 62.5155 106.208 62.4666C105.877 62.4176 105.579 62.5773 105.543 62.8236C105.506 63.0699 105.745 63.3095 106.076 63.3584C106.406 63.4074 106.704 63.2477 106.741 63.0014Z" fill="#FFF662"/>
<path fill-rule="evenodd" clip-rule="evenodd" d="M104.904 67.9837C105.183 67.2717 103.89 66.0987 102.016 65.364C100.141 64.6289 98.395 64.6102 98.116 65.3221C97.8369 66.0341 99.1302 67.2071 101.005 67.9418C102.879 68.6769 104.625 68.6956 104.904 67.9837Z" fill="#F4C518"/>
<path fill-rule="evenodd" clip-rule="evenodd" d="M102.174 66.9131C102.322 66.535 101.635 65.9122 100.64 65.522C99.6441 65.1318 98.717 65.1219 98.569 65.4996C98.4206 65.8778 99.1076 66.5005 100.103 66.8907C101.099 67.2809 102.026 67.2908 102.174 66.9131Z" fill="#CFAA13"/>
<path fill-rule="evenodd" clip-rule="evenodd" d="M104.1 67.6943C104.191 67.4625 104.012 67.1755 103.701 67.0536C103.39 66.9317 103.064 67.0205 102.973 67.2523C102.882 67.484 103.061 67.771 103.372 67.8929C103.683 68.0148 104.009 67.926 104.1 67.6943Z" fill="#FFF662"/>
<path fill-rule="evenodd" clip-rule="evenodd" d="M99.5376 74.2135C100.174 73.7898 99.7855 72.0877 98.6702 70.4113C97.5544 68.735 96.1343 67.72 95.4974 68.1437C94.8609 68.5675 95.2495 70.2695 96.3648 71.9459C97.4806 73.6223 98.9007 74.6373 99.5376 74.2135Z" fill="#F4C518"/>
<path fill-rule="evenodd" clip-rule="evenodd" d="M97.9133 71.7722C98.2512 71.547 98.0451 70.6431 97.4526 69.7533C96.8601 68.8631 96.1059 68.3241 95.768 68.5492C95.4301 68.7744 95.6361 69.6783 96.2286 70.5681C96.8211 71.4583 97.5754 71.9973 97.9133 71.7722Z" fill="#CFAA13"/>
<path fill-rule="evenodd" clip-rule="evenodd" d="M99.0449 73.5157C99.2522 73.3776 99.27 73.0401 99.0847 72.7619C98.8993 72.4837 98.5813 72.3697 98.374 72.5077C98.1667 72.6458 98.1489 72.9833 98.3342 73.2615C98.5195 73.5397 98.8376 73.6538 99.0449 73.5157Z" fill="#FFF662"/>
<path fill-rule="evenodd" clip-rule="evenodd" d="M100.578 34.26C99.9781 33.7852 98.4788 34.6796 97.2287 36.2577C95.9782 37.8357 95.4508 39.5001 96.0499 39.9752C96.6495 40.45 98.1488 39.5556 99.3989 37.9776C100.649 36.3995 101.177 34.7351 100.578 34.26Z" fill="#F4C518"/>
<path fill-rule="evenodd" clip-rule="evenodd" d="M98.7563 36.5587C98.4378 36.3066 97.6418 36.7813 96.9779 37.6197C96.3141 38.4577 96.0338 39.3417 96.3518 39.5938C96.6703 39.8459 97.4664 39.3711 98.1302 38.5327C98.794 37.6944 99.0743 36.8108 98.7563 36.5587Z" fill="#CFAA13"/>
<path fill-rule="evenodd" clip-rule="evenodd" d="M100.066 34.9445C99.8705 34.7899 99.5441 34.8769 99.3364 35.139C99.1287 35.401 99.1187 35.739 99.314 35.8936C99.5093 36.0483 99.8356 35.9612 100.043 35.6992C100.251 35.4371 100.261 35.0992 100.066 34.9445Z" fill="#FFF662"/>
<path fill-rule="evenodd" clip-rule="evenodd" d="M90.694 76.404C89.9295 76.3957 89.3278 74.7567 89.3502 72.7432C89.3726 70.7298 90.0103 69.1044 90.7749 69.1131C91.5395 69.1214 92.1411 70.7605 92.1187 72.7739C92.0963 74.7874 91.4586 76.4127 90.694 76.404Z" fill="#F4C518"/>
<path fill-rule="evenodd" clip-rule="evenodd" d="M90.7266 73.4717C90.3207 73.4672 90.001 72.5969 90.013 71.5275C90.025 70.4582 90.3634 69.5953 90.7697 69.5999C91.1757 69.6045 91.4953 70.4748 91.4833 71.5441C91.4713 72.6135 91.133 73.4763 90.7266 73.4717Z" fill="#CFAA13"/>
<path fill-rule="evenodd" clip-rule="evenodd" d="M90.7273 75.5499C90.4781 75.547 90.2795 75.2737 90.2833 74.9395C90.287 74.6054 90.4918 74.3363 90.741 74.3392C90.9898 74.3421 91.1888 74.6153 91.1851 74.9495C91.1813 75.2837 90.9765 75.5528 90.7273 75.5499Z" fill="#FFF662"/>
<path fill-rule="evenodd" clip-rule="evenodd" d="M85.5091 66.7825C84.8727 66.3587 85.2612 64.6567 86.3765 62.9803C87.4923 61.3039 88.9124 60.2889 89.5493 60.7127C90.1858 61.1364 89.7973 62.8385 88.6819 64.5149C87.5665 66.1912 86.146 67.2062 85.5091 66.7825Z" fill="#F4C518"/>
<path fill-rule="evenodd" clip-rule="evenodd" d="M87.1332 64.3411C86.7953 64.116 87.0014 63.2121 87.5939 62.3223C88.1864 61.4321 88.9406 60.893 89.2785 61.1182C89.6164 61.3433 89.4104 62.2472 88.8179 63.137C88.2254 64.0272 87.4711 64.5663 87.1332 64.3411Z" fill="#CFAA13"/>
<path fill-rule="evenodd" clip-rule="evenodd" d="M86.0019 66.0847C85.7946 65.9466 85.7768 65.6091 85.9621 65.3309C86.1475 65.0526 86.4655 64.9386 86.6728 65.0767C86.8801 65.2148 86.898 65.5523 86.7126 65.8305C86.5273 66.1087 86.2092 66.2227 86.0019 66.0847Z" fill="#FFF662"/>
<path fill-rule="evenodd" clip-rule="evenodd" d="M83.2083 43.4341C83.8078 42.9594 85.3072 43.8537 86.5573 45.4318C87.8078 47.0099 88.3356 48.6742 87.7361 49.149C87.1365 49.6238 85.6372 48.7294 84.3871 47.1513C83.1366 45.5732 82.6087 43.9089 83.2083 43.4337V43.4341Z" fill="#F4C518"/>
<path fill-rule="evenodd" clip-rule="evenodd" d="M85.0286 45.7328C85.347 45.4807 86.1431 45.9555 86.807 46.7939C87.4708 47.6319 87.7511 48.5159 87.433 48.768C87.1146 49.02 86.3185 48.5453 85.6547 47.7069C84.9909 46.8689 84.7106 45.9849 85.0286 45.7328Z" fill="#CFAA13"/>
<path fill-rule="evenodd" clip-rule="evenodd" d="M83.7193 44.1191C83.9146 43.9644 84.2409 44.0515 84.4486 44.3135C84.6564 44.5756 84.6663 44.9135 84.471 45.0682C84.2757 45.2228 83.9494 45.1358 83.7417 44.8737C83.5339 44.6117 83.524 44.2737 83.7193 44.1191Z" fill="#FFF662"/>
<path fill-rule="evenodd" clip-rule="evenodd" d="M99.7323 48.0419C99.3222 47.3968 97.6123 47.7492 95.9127 48.8289C94.2135 49.909 93.1682 51.3076 93.5783 51.9527C93.9884 52.5979 95.6983 52.2455 97.3979 51.1658C99.0971 50.0856 100.142 48.6871 99.7323 48.0419Z" fill="#F4C518"/>
<path fill-rule="evenodd" clip-rule="evenodd" d="M97.2578 49.615C97.0401 49.2721 96.132 49.4595 95.2294 50.033C94.3271 50.6064 93.7719 51.349 93.9896 51.6919C94.2073 52.0348 95.1154 51.8474 96.018 51.274C96.9202 50.7005 97.4754 49.9579 97.2578 49.615Z" fill="#CFAA13"/>
<path fill-rule="evenodd" clip-rule="evenodd" d="M99.0248 48.5208C98.8913 48.3106 98.5542 48.2857 98.2718 48.4648C97.9895 48.644 97.8692 48.9599 98.0027 49.1701C98.1362 49.3804 98.4733 49.4052 98.7557 49.2261C99.0381 49.0466 99.1583 48.731 99.0248 48.5208Z" fill="#FFF662"/>
<path fill-rule="evenodd" clip-rule="evenodd" d="M97.5185 64.0107C98.1549 63.5869 97.7664 61.8848 96.6506 60.2085C95.5349 58.5321 94.1147 57.5171 93.4779 57.9409C92.8414 58.3646 93.2299 60.0667 94.3453 61.743C95.4611 63.4194 96.8812 64.4344 97.518 64.0107H97.5185Z" fill="#F4C518"/>
<path fill-rule="evenodd" clip-rule="evenodd" d="M95.8928 61.5693C96.2307 61.3442 96.0246 60.4403 95.4321 59.5505C94.8396 58.6602 94.0854 58.1212 93.7475 58.3464C93.4095 58.5715 93.6156 59.4754 94.2081 60.3652C94.8006 61.2554 95.5549 61.7945 95.8928 61.5693Z" fill="#CFAA13"/>
<path fill-rule="evenodd" clip-rule="evenodd" d="M97.0244 63.3128C97.2317 63.1748 97.2495 62.8373 97.0642 62.559C96.8788 62.2808 96.5608 62.1668 96.3535 62.3049C96.1462 62.4429 96.1283 62.7804 96.3137 63.0587C96.499 63.3369 96.817 63.4509 97.0244 63.3128Z" fill="#FFF662"/>
<path fill-rule="evenodd" clip-rule="evenodd" d="M82.5974 57.6917C82.3184 56.9797 83.6116 55.8067 85.4862 55.072C87.3607 54.3369 89.1068 54.3182 89.3858 55.0301C89.6648 55.7421 88.3716 56.9151 86.4971 57.6498C84.6225 58.3849 82.8765 58.4036 82.5974 57.6917Z" fill="#F4C518"/>
<path fill-rule="evenodd" clip-rule="evenodd" d="M85.3268 56.6211C85.1784 56.2429 85.8654 55.6202 86.8609 55.23C87.8565 54.8398 88.7836 54.8299 88.9316 55.2076C89.0796 55.5857 88.393 56.2085 87.3975 56.5987C86.4019 56.9889 85.4748 56.9988 85.3268 56.6211Z" fill="#CFAA13"/>
<path fill-rule="evenodd" clip-rule="evenodd" d="M83.4016 57.4023C83.3108 57.1705 83.4895 56.8835 83.8005 56.7616C84.1118 56.6397 84.4378 56.7285 84.5286 56.9603C84.6194 57.192 84.4406 57.479 84.1297 57.6009C83.8183 57.7228 83.4924 57.634 83.4016 57.4023Z" fill="#FFF662"/>
<path fill-rule="evenodd" clip-rule="evenodd" d="M95.4753 41.5612C94.8758 41.0865 93.3765 41.9808 92.1264 43.5589C90.8758 45.137 90.348 46.8014 90.9475 47.2765C91.5471 47.7513 93.0464 46.8569 94.2965 45.2788C95.5471 43.7007 96.0749 42.0364 95.4753 41.5612Z" fill="#F4C518"/>
<path fill-rule="evenodd" clip-rule="evenodd" d="M93.6537 43.8599C93.3353 43.6078 92.5392 44.0826 91.8754 44.921C91.2116 45.7589 90.9313 46.6429 91.2493 46.895C91.5677 47.1471 92.3638 46.6724 93.0277 45.834C93.6915 44.996 93.9718 44.112 93.6537 43.8599Z" fill="#CFAA13"/>
<path fill-rule="evenodd" clip-rule="evenodd" d="M94.9632 42.2458C94.7679 42.0911 94.4416 42.1782 94.2339 42.4402C94.0261 42.7023 94.0162 43.0402 94.2115 43.1949C94.4068 43.3495 94.7331 43.2625 94.9408 43.0004C95.1485 42.7384 95.1585 42.4004 94.9632 42.2458Z" fill="#FFF662"/>
</g>
<defs>
<clipPath id="clip0_191_148541">
<rect width="122.663" height="92" fill="white" transform="translate(0.605469)"/>
</clipPath>
</defs>
</svg>
