<svg width="81" height="62" viewBox="0 0 81 62" fill="none" xmlns="http://www.w3.org/2000/svg">
<path d="M80.4239 31.4796C80.4639 31.6315 80.4559 31.7835 80.4158 31.9274C80.0311 33.5989 79.9109 35.3184 79.5423 36.9899C79.0694 39.1493 78.308 41.1967 77.2661 43.1401C77.0497 43.54 76.7933 43.9239 76.6009 44.3318C75.9998 45.6034 75.0621 46.5711 73.9401 47.3869C73.0184 48.0587 72.0967 48.7145 71.159 49.3623C70.5339 49.7942 69.8286 50.0661 69.1073 50.314C65.9175 51.4417 62.6316 51.5376 59.3136 51.2817C59.1693 51.5056 59.3456 51.6336 59.4178 51.7696C60.4436 53.817 61.75 55.6644 63.401 57.2639C64.3708 58.1997 65.4207 59.0234 66.727 59.4553C67.0155 59.5513 67.4323 59.6312 67.3441 59.9911C67.256 60.367 66.8312 60.1911 66.5587 60.1511C65.6851 60.0231 64.8356 59.7672 63.946 59.7032C63.2006 59.6472 62.4793 59.7032 61.774 59.8792C60.3555 60.2391 58.9289 60.567 57.4702 60.7669C57.2939 60.7909 57.1176 60.8309 56.9573 60.9029C55.6429 61.4227 54.2564 61.5187 52.8699 61.6387C51.4593 61.7666 50.0488 61.9745 48.6462 61.6626C46.5865 61.2148 44.5829 60.6229 42.8116 59.4153C42.5872 59.2554 42.3308 59.1354 42.0903 58.9994C41.1446 58.4796 40.3592 57.7838 39.7421 56.896C39.4215 56.4242 39.0689 55.9603 38.7403 55.5045C38.3956 55.6804 38.2273 55.9363 38.043 56.1683C36.8168 57.6478 35.302 58.7595 33.5789 59.6073C32.2004 60.287 30.7658 60.527 29.243 60.359C27.2554 60.1351 25.2678 60.0231 23.2642 60.0391C22.2544 60.0471 21.2445 59.9751 20.2427 59.8312C19.5695 59.7352 18.9123 59.5593 18.3112 59.2074C17.5178 58.7355 16.6201 58.5596 15.7385 58.3436C14.7848 58.1117 14.0315 57.5998 13.4704 56.8081C13.3743 56.6721 13.214 56.5282 13.3663 56.3442C13.4865 56.1923 13.6387 56.2882 13.783 56.3362C15.0894 56.8241 16.4599 56.8161 17.8223 56.7281C18.3994 56.6961 18.9684 56.5522 19.5535 56.5042C20.964 56.3842 21.9178 55.5764 22.6952 54.4888C22.9596 54.1209 23.152 53.705 23.3043 53.2731C23.7531 51.9855 24.2981 50.7379 24.9312 49.5222C25.0034 49.3783 25.1556 49.2423 25.0274 48.9624C24.5866 49.1783 24.1298 49.3783 23.697 49.6102C22.6471 50.154 21.517 50.386 20.3389 50.442C19.0486 50.5059 17.7742 50.442 16.5079 50.0981C15.9309 49.9381 15.3138 49.9141 14.7127 49.8581C14.2799 49.8181 13.8471 49.7462 13.4865 49.5062C12.2442 48.6905 10.8818 48.0427 9.90398 46.867C9.5273 46.4191 9.03039 46.1072 8.51746 45.8273C7.79615 45.4354 7.22712 44.9076 6.77029 44.2038C6.07303 43.1241 5.37576 42.0364 4.60637 41.0047C2.50656 38.1896 1.38452 34.9745 0.85556 31.5355C0.663211 30.2879 0.478877 29.0403 0.454833 27.7767C0.406746 25.7693 0.735348 23.8018 1.31239 21.8824C2.17796 18.9953 3.35609 16.2201 5.23951 13.8368C7.63585 10.7977 10.6894 8.60632 14.344 7.27871C14.5845 7.19074 14.8249 7.09477 15.0734 7.07877C15.8027 7.03078 16.2595 6.61491 16.6602 6.06307C17.4937 4.92741 18.5837 4.07166 19.826 3.40786C20.8518 2.85602 21.8536 2.2562 22.9035 1.77634C24.6106 1.00057 26.4219 0.544705 28.2813 0.264788C29.8121 0.0328566 31.3589 0.136822 32.8977 0.0408503C34.2521 -0.0471237 35.6306 0.00886176 36.9771 0.192807C38.9326 0.456729 40.6397 1.33647 42.0182 2.76805C42.9319 3.71177 43.8375 4.66349 44.7752 5.58322C45.8331 6.6389 46.5144 7.93452 47.0353 9.31011C47.3879 10.2538 47.6765 11.2215 47.8848 12.2133C47.9329 12.4532 47.949 12.7171 48.1413 12.957C48.4378 12.925 48.6703 12.7171 48.9187 12.5811C51.0746 11.3815 53.3908 10.5737 55.7711 9.99791C57.5343 9.57403 59.3376 9.67801 61.1168 10.0219C61.6699 10.1259 62.2148 10.1419 62.7678 10.1819C65.3726 10.3658 67.817 11.0376 70.0931 12.3812C71.7682 13.3729 73.1066 14.7485 74.5492 16.0041C75.1022 16.484 75.519 17.0998 75.8716 17.7476C76.7772 19.4351 77.6829 21.1306 78.4202 22.9061C79.0934 24.5376 79.5262 26.2491 79.8147 28.0006C79.983 29.1522 80.1033 30.3359 80.4239 31.4796ZM79.4301 34.8946C79.6865 33.215 80.1113 31.5275 79.5984 29.8161C79.5102 29.5281 79.4862 29.2242 79.4461 28.9203C79.0614 26.2011 78.3401 23.5939 77.0658 21.1466C76.6009 20.2509 76.1361 19.3551 75.6873 18.4514C75.1583 17.3717 74.437 16.444 73.4993 15.6762C73.0104 15.2763 72.5616 14.8285 72.0968 14.4046C70.8866 13.3169 69.5241 12.4692 68.0334 11.7974C66.727 11.2135 65.3325 10.9656 63.962 10.6377C63.4731 10.5178 62.9201 10.4618 62.4633 10.6217C62.0305 10.7817 61.6698 10.6857 61.2932 10.5737C59.5059 10.0619 57.6946 10.0379 55.8914 10.4218C53.8637 10.8617 51.9242 11.5974 50.0488 12.4772C49.3435 12.8131 48.534 13.061 48.0932 13.8208C48.0692 13.8688 47.957 13.9008 47.8929 13.8848C47.5643 13.8208 47.3799 14.0607 47.1555 14.2127C43.9577 16.492 41.6255 19.4991 39.8383 22.9541C39.5097 23.5779 39.2852 24.2497 39.1009 24.9375C38.9326 25.5773 38.8845 26.2171 39.0528 26.8809C39.3173 27.9446 39.3253 29.0323 39.2452 30.12C39.157 31.3036 39.0528 32.4873 38.8845 33.6549C38.7563 34.5187 38.8685 35.3104 39.2612 36.0782C39.4455 36.4381 39.6379 36.798 39.8543 37.1339C40.255 37.7577 40.5676 38.4055 40.792 39.1093C41.0965 40.045 41.5133 40.9328 42.0583 41.7645C42.5552 42.5243 43.3166 42.9002 44.0539 43.3321C44.1741 43.404 44.2863 43.388 44.4146 43.356C45.232 43.1481 46.0094 43.2841 46.7949 43.54C47.997 43.9319 49.1912 44.3238 50.4094 44.6677C51.2429 44.9076 52.0203 45.2435 52.7657 45.6834C54.7934 46.899 56.6928 48.2666 58.1915 50.1221C58.5682 50.5859 59.0331 50.8178 59.6261 50.8418C60.2352 50.8658 60.8363 50.8978 61.7259 50.9378C62.4312 51.0338 63.417 50.9138 64.3948 50.8418C66.3263 50.6899 68.1536 50.13 69.9649 49.4742C70.1973 49.3863 70.4217 49.2503 70.6301 49.1143C71.8884 48.2666 73.1547 47.4268 74.3168 46.4591C74.7656 46.0832 75.2224 45.7074 75.5109 45.2035C76.2483 43.9399 77.0097 42.6922 77.6107 41.3486C78.5324 39.2853 79.0935 37.1179 79.4301 34.8946ZM65.3084 59.4313C65.2603 59.3753 65.2203 59.3033 65.1642 59.2633C62.9762 57.7838 61.2371 55.8804 59.8986 53.601C59.4258 52.7933 59.0491 51.9375 58.4721 51.1937C57.2058 49.5702 55.699 48.1866 53.9919 47.035C53.0061 46.3712 52.0204 45.6674 50.8743 45.3315C49.4637 44.9156 48.0852 44.4437 46.6827 44.0199C46.3461 43.9159 46.0094 43.8039 45.6568 43.7639C44.6069 43.644 43.7974 44.2598 42.9158 44.6597C42.7876 44.7156 42.7636 44.8436 42.7636 44.9796C42.7636 45.3395 42.6674 45.5314 42.2747 45.2675C42.1304 45.1715 42.0503 45.3315 41.9942 45.4354C41.8339 45.7233 41.7056 46.0273 41.5293 46.2992C41.1446 46.883 41.2648 47.4428 41.5453 48.0107C41.7056 48.3386 41.9541 48.5865 42.2186 48.8184C44.3024 50.6259 46.6266 52.0175 49.2553 52.8892C49.7603 53.0572 50.2491 53.2651 50.73 53.4811C51.4914 53.825 52.2768 54.0969 53.0783 54.3288C55.114 54.9286 57.0775 55.7444 59.0892 56.4242C59.2735 56.4882 59.4658 56.5442 59.546 56.8001C59.2014 56.984 58.9369 56.7921 58.6724 56.6961C55.5067 55.5045 52.2608 54.5207 49.1111 53.2651C46.859 52.3694 44.7351 51.2977 42.8437 49.7941C42.6834 49.6662 42.5472 49.4982 42.3628 49.4263C41.6495 49.1143 41.2328 48.5225 40.8561 47.8347C40.7599 47.8827 40.7038 47.8987 40.6718 47.9307C40.2149 48.4026 39.7341 48.8504 39.3093 49.3543C38.8845 49.8581 38.9727 50.6579 38.3075 51.0098C38.2434 51.0418 38.2273 51.1937 38.2113 51.2897C38.051 52.0415 38.035 52.7933 38.3075 53.529C38.9567 55.2645 40.0627 56.6961 41.4091 57.9517C41.5534 58.0877 41.7297 58.1997 41.898 58.3116C43.8455 59.5593 45.8812 60.583 48.1734 61.0708C49.4317 61.3427 50.6739 61.3507 51.9402 61.2388C53.7996 61.0708 55.6349 60.7989 57.4542 60.319C58.8327 59.9511 60.2673 59.7512 61.6698 59.4233C62.7518 59.1674 63.8498 58.9434 64.9318 59.4393C65.0359 59.4793 65.1722 59.5033 65.3084 59.4313ZM47.2918 13.5649C47.5482 13.4129 47.5963 13.213 47.5322 12.925C47.2517 11.6934 46.9552 10.4618 46.4903 9.29412C45.9293 7.87854 45.1679 6.57492 44.0218 5.51923C43.3005 4.85543 42.6193 4.13564 41.9621 3.39986C41.3771 2.76005 40.7118 2.21621 39.9745 1.76834C38.9967 1.16852 37.9308 0.696658 36.7847 0.656669C34.9975 0.584691 33.2102 0.496719 31.407 0.528709C29.4995 0.5607 27.6882 0.976575 25.909 1.45643C22.591 2.35217 19.6737 4.05567 17.1331 6.37498C17.0129 6.47895 16.8285 6.56692 16.9007 6.88683C18.0948 6.60691 19.2249 7.08677 20.395 7.19074C20.5232 7.19874 20.6515 7.22273 20.7717 7.21473C21.6292 7.15875 22.4227 7.39068 23.2001 7.71059C24.6828 8.31041 26.1174 8.99021 27.4157 9.92593C28.2813 10.5417 29.1228 11.1896 29.9804 11.8054C32.3206 13.4929 34.4204 15.3963 35.7909 17.9875C35.7989 18.0115 35.823 18.0275 35.831 18.0515C36.4321 19.0992 37.0893 20.1149 37.506 21.2666C37.8827 22.2903 38.3796 23.282 38.6922 24.4496C38.9647 24.0817 39.0127 23.7538 39.141 23.4579C39.2772 23.162 39.3894 22.8501 39.5497 22.5622C41.3851 19.1072 43.7333 16.0841 46.9552 13.7888C47.0834 13.7088 47.1796 13.6288 47.2918 13.5649ZM43.3647 43.8039C43.1803 43.676 43.028 43.564 42.8597 43.46C42.7556 43.396 42.6594 43.3081 42.435 43.3401C42.4911 43.644 42.451 43.9799 42.7155 44.0998C42.9319 44.1958 43.1803 44.0438 43.3647 43.8039ZM42.0022 44.6517C42.1625 44.4837 42.1224 44.2758 42.0823 44.0758C41.906 43.1881 41.5373 42.3963 40.9042 41.7485C39.9745 40.7968 38.4838 40.9648 37.8106 42.1004C37.5621 42.5243 37.2576 42.8762 36.8408 43.1401C35.5665 43.9479 34.172 44.4517 32.6893 44.7076C31.7917 44.8676 30.87 45.0755 30.1166 45.5634C29.4274 46.0113 28.7301 46.3792 27.9607 46.6351C27.2314 46.883 26.6944 47.3469 26.2697 47.9707C25.2117 49.5222 24.4423 51.2257 23.8252 52.9932C23.6008 53.641 23.3604 54.2808 22.9596 54.8327C22.1181 56.0083 21.0522 56.8081 19.5454 56.984C18.1589 57.144 16.7885 57.3119 15.3939 57.144C15.1535 57.112 14.873 57.024 14.6005 57.216C14.9291 57.5998 15.3458 57.7198 15.7626 57.8238C16.8606 58.1117 17.9666 58.3756 18.9604 58.9754C19.1688 59.1034 19.4333 59.1514 19.6737 59.2074C21.0362 59.5273 22.4307 59.5193 23.8172 59.5513C25.6125 59.5992 27.4077 59.6073 29.1869 59.8552C30.5735 60.0471 31.8958 59.8472 33.1702 59.2474C35.1097 58.3436 36.7206 57.048 38.067 55.4005C38.3556 55.0486 38.3876 54.7767 38.1873 54.3928C37.6583 53.3691 37.5862 52.2894 37.7705 51.1537C37.8426 50.7219 38.0029 50.41 38.2834 50.1061C38.6681 49.6982 38.9567 49.2103 39.3093 48.5945C38.7643 48.8504 38.3796 49.0424 37.9869 49.2183C36.1916 50.0261 34.4124 50.8738 32.5851 51.6096C31.0303 52.2334 29.5316 52.9452 28.0729 53.753C27.5039 54.0649 26.9188 54.3688 26.5502 54.9686C26.4139 54.6167 26.5902 54.4008 26.7986 54.2248C27.007 54.0489 27.2394 53.8809 27.4718 53.737C28.7141 53.0012 29.9724 52.2974 31.3108 51.7616C34.196 50.6019 36.9851 49.2343 39.7821 47.8827C40.2229 47.6668 40.5115 47.3789 40.7199 46.955C41.0965 46.1552 41.3771 45.3075 42.0022 44.6517ZM40.9603 41.0367C40.4233 39.1413 39.6539 37.4058 38.5559 35.6623C38.3155 36.9899 37.9468 38.1656 37.6743 39.3652C37.4018 40.5649 36.8568 41.6526 36.1997 42.8442C36.8889 42.6363 37.1614 42.2284 37.4099 41.7885C37.8266 41.0287 38.4758 40.7168 39.3333 40.6848C39.9104 40.6609 40.4394 40.8208 40.9603 41.0367ZM38.7002 31.2236C38.9727 28.6324 38.6361 26.1291 37.9308 23.6739C37.4259 21.9144 36.6084 20.2509 35.6627 18.6514C34.3563 16.46 32.8336 14.4766 30.7337 12.981C29.7239 12.2612 28.7141 11.5415 27.7523 10.7657C26.2697 9.58203 24.6026 8.76627 22.8715 8.04649C21.8697 7.63061 20.8278 7.54263 19.6577 7.59862C20.6835 8.60632 21.8055 10.4218 22.1742 11.9013C22.4868 13.149 23.0238 14.3326 23.1119 15.6362C23.1279 15.8522 23.1921 16.0121 23.4565 16.0521C23.9695 16.1321 24.2981 16.5 24.5786 16.8919C25.1957 17.7476 25.6205 18.6833 25.6445 19.755C25.6525 20.1389 25.8048 20.3149 26.1975 20.2669C27.6642 20.1069 28.9225 20.5708 30.2048 21.3066C32.7213 22.7621 34.188 24.9215 34.8372 27.6567C35.3822 29.952 35.3341 32.3193 35.278 34.6626C35.27 34.9425 35.286 35.2464 35.0856 35.4544C34.8612 35.6943 34.8051 35.9822 34.7009 36.2621C34.2842 37.3658 33.9636 38.5175 33.5308 39.6052C32.9137 41.1647 32.1924 42.7162 31.1184 44.0438C30.9582 44.2438 30.7498 44.4357 30.7418 44.8036C32 44.2918 33.2984 44.1798 34.5086 43.7399C34.9815 43.564 35.3661 43.3161 35.6146 42.8842C36.2317 41.8125 36.8168 40.7328 37.1454 39.5172C37.8667 36.798 38.4036 34.0388 38.7002 31.2236ZM34.7891 32.0874C34.8131 30.5918 34.6528 29.0963 34.3162 27.6487C33.5629 24.3457 31.407 22.2023 28.3775 20.8507C28.2893 20.8107 28.1851 20.7787 28.0889 20.7707C26.8547 20.7067 25.6125 20.6348 24.3782 20.7307C23.6008 20.7947 23.4165 21.0346 23.3764 21.7864C23.3604 22.0903 23.3443 22.3942 23.3604 22.6982C23.4004 23.6499 23.2001 24.5536 22.8635 25.4333C22.5108 26.3771 22.1582 27.3208 21.7735 28.2565C21.3086 29.3762 20.8278 30.4959 20.0103 31.4156C18.9444 32.6072 17.9826 33.8709 17.1331 35.2145C16.7243 35.8623 16.1553 36.2142 15.426 36.3581C14.9291 36.4541 14.4402 36.5501 13.9753 36.766C13.5506 36.9659 13.238 36.846 13.1579 36.4061C12.9896 35.4544 12.4686 35.1985 11.555 35.3024C10.8256 35.3824 10.5051 35.0145 10.457 34.2627C10.4249 33.8069 10.473 33.359 10.5291 32.9031C10.6012 32.3033 10.6654 31.6955 10.441 31.1037C9.87192 29.6321 9.78375 28.1126 9.95206 26.561C10.1684 24.4976 10.8497 22.6662 12.3244 21.1226C13.6468 19.739 15.2096 18.7713 16.9568 18.0435C17.7983 17.6836 18.6478 17.5477 19.5454 17.7236C20.0744 17.8276 20.6034 17.8116 21.1323 17.8196C21.7575 17.8276 22.2624 17.3797 21.7815 16.6839C21.6773 16.532 21.6453 16.38 21.8376 16.332C22.1983 16.2361 22.1983 15.9481 22.2303 15.6762C22.2944 15.0444 22.2784 14.4206 22.1502 13.7968C21.9177 12.6531 21.509 11.5654 21.0682 10.4938C20.6354 9.43008 19.874 8.63831 18.9844 7.93452C18.7841 7.77457 18.5517 7.6626 18.3112 7.60662C16.8205 7.23073 15.3859 7.3347 13.9593 7.94252C11.9637 8.79027 10.1444 9.90993 8.54151 11.3735C7.81219 12.0373 7.04279 12.6451 6.39361 13.4049C5.31966 14.6605 4.45409 16.0601 3.64462 17.4757C2.08179 20.2029 1.23225 23.178 0.991813 26.3211C0.831522 28.3765 1.12806 30.4079 1.50475 32.4153C2.04973 35.3184 3.06758 38.0536 4.83078 40.4609C5.7284 41.6845 6.54588 42.9562 7.3874 44.2118C7.7721 44.7876 8.22894 45.1955 8.82202 45.4994C9.36701 45.7793 9.87191 46.1232 10.2726 46.5791C11.2264 47.6668 12.5327 48.2586 13.7029 49.0504C13.9994 49.2503 14.352 49.3063 14.7127 49.3463C15.418 49.4263 16.1313 49.4662 16.8045 49.6502C17.9265 49.9541 19.0485 49.9541 20.1866 49.9381C22.1422 49.9221 23.8092 49.1303 25.3881 48.0907C25.5163 48.0107 25.6445 47.9147 25.7247 47.7947C26.3979 46.811 27.3276 46.2192 28.4416 45.8433C29.203 45.5874 29.8361 45.1315 30.2288 44.4037C30.8139 43.3161 31.5192 42.2764 31.968 41.1327C32.7534 39.1413 33.9556 37.3178 34.3643 35.1825C34.4284 34.8466 34.6929 34.5746 34.6929 34.1908C34.6929 33.495 34.749 32.7912 34.7891 32.0874ZM24.242 20.3229C25.356 20.1629 25.38 20.1309 24.9873 19.0512C24.9312 18.8913 24.9072 18.7073 24.6026 18.5554C24.6587 18.9073 24.7228 19.1712 24.7389 19.4431C24.7469 19.707 24.6347 19.915 24.3221 19.747C24.0657 19.6111 24.0015 19.739 23.9855 19.939C23.9775 20.0749 23.8573 20.2269 24.0176 20.3628C24.0897 20.3548 24.1698 20.3389 24.242 20.3229ZM22.9356 20.3548C22.9436 20.0749 22.9516 19.779 22.615 19.4831C22.4627 20.7787 21.3728 21.0586 20.5633 21.6185C20.4351 21.7065 20.3229 21.6425 20.2427 21.5225C20.1626 21.3945 20.2187 21.2666 20.3309 21.1946C20.4351 21.1306 20.5633 21.0986 20.6755 21.0506C21.2285 20.8267 21.7414 20.5788 21.8617 19.907C21.8857 19.795 21.9739 19.6671 22.07 19.6031C22.4868 19.2912 22.3025 18.8513 22.2383 18.5074C22.1742 18.1715 21.7655 18.1955 21.4689 18.1715C21.3968 18.1635 21.3167 18.1635 21.2445 18.1635C20.5072 18.1555 19.7779 18.1795 19.0486 18.0595C18.5917 17.9796 18.1349 18.0595 17.7021 18.2275C15.8668 18.9233 14.1998 19.859 12.7972 21.2906C10.489 23.6579 10.1444 26.505 10.489 29.5761C11.018 30.9997 11.1623 32.4473 10.9539 33.9588C10.8497 34.7186 11.042 34.8466 11.7954 34.8306C11.9236 34.8306 12.0519 34.8146 12.1721 34.8146C12.8373 34.8146 13.1418 35.0225 13.3983 35.6223C13.4945 35.8463 13.4785 36.1262 13.767 36.3341C14.2398 36.0302 14.8249 35.9902 15.3859 35.8623C15.8988 35.7503 16.3156 35.5184 16.6121 35.0625C17.5338 33.6389 18.5677 32.3033 19.6737 31.0157C20.5954 29.944 21.0923 28.6404 21.5251 27.3128C20.7877 27.9446 20.0985 28.6084 19.4092 29.2722C19.1207 29.5521 18.8241 29.832 18.4635 30.024C18.215 30.152 17.9586 30.2399 17.7262 29.912C17.9826 29.8001 18.2471 29.7521 18.4314 29.6001C19.4012 28.8243 20.2668 27.9446 21.0602 26.9929C21.4369 26.537 21.6052 25.9132 22.1902 25.6173C22.2864 25.5693 22.3345 25.4094 22.3746 25.2974C22.607 24.6576 22.8154 24.0098 22.8394 23.314C22.8795 22.3223 22.9116 21.3386 22.9356 20.3548Z" fill="black"/>
<path d="M79.5265 29.8139C80.0465 31.5231 79.6145 33.2083 79.3585 34.8855C79.0225 37.1058 78.4626 39.2702 77.5426 41.3388C76.9426 42.6806 76.1907 43.9265 75.4467 45.1885C75.1507 45.6916 74.6948 46.067 74.2548 46.4424C73.0949 47.4168 71.8309 48.2474 70.575 49.094C70.367 49.2378 70.143 49.3656 69.911 49.4534C68.1111 50.1083 66.2792 50.6674 64.3513 50.8192C63.3753 50.899 62.3914 51.0188 61.6874 50.915C60.7995 50.8751 60.1915 50.8431 59.5915 50.8192C59.0076 50.7952 58.5356 50.5716 58.1596 50.1003C56.6637 48.2474 54.7678 46.8817 52.7439 45.6677C52.0079 45.2284 51.224 44.885 50.392 44.6533C49.1841 44.3099 47.9841 43.9186 46.7842 43.5272C46.0002 43.2716 45.2243 43.1279 44.4083 43.3435C44.2803 43.3755 44.1683 43.3834 44.0483 43.3195C43.3124 42.8883 42.5524 42.5129 42.0565 41.7541C41.5125 40.9235 41.0965 40.045 40.7925 39.1025C40.5685 38.3997 40.2485 37.7448 39.8566 37.1298C39.6406 36.7943 39.4486 36.4349 39.2646 36.0755C38.8646 35.3168 38.7606 34.5181 38.8886 33.6555C39.0566 32.4815 39.1606 31.3074 39.2486 30.1254C39.3286 29.0392 39.3206 27.953 39.0566 26.8907C38.8966 26.2278 38.9446 25.5969 39.1046 24.9499C39.2806 24.2631 39.5126 23.5922 39.8406 22.9692C41.6245 19.5189 43.9603 16.5159 47.1442 14.2396C47.3602 14.0799 47.5522 13.8483 47.8802 13.9122C47.9441 13.9281 48.0561 13.8962 48.0801 13.8483C48.5201 13.0975 49.3281 12.8419 50.032 12.5065C51.9039 11.6279 53.8398 10.8932 55.8637 10.4539C57.6556 10.0705 59.4636 10.0945 61.2555 10.6056C61.6314 10.7095 61.9834 10.8053 62.4234 10.6536C62.8874 10.4858 63.4314 10.5497 63.9193 10.6695C65.2873 10.989 66.6872 11.2366 67.9831 11.8276C69.463 12.4985 70.823 13.3451 72.0389 14.4313C72.5109 14.8546 72.9589 15.3019 73.4388 15.7012C74.3748 16.4679 75.0867 17.3944 75.6227 18.4726C76.0707 19.3751 76.5267 20.2697 76.9987 21.1642C78.2786 23.6081 78.9985 26.2118 79.3745 28.9273C79.4145 29.2229 79.4385 29.5343 79.5265 29.8139ZM56.6237 37.5132C56.8237 37.4493 56.8957 37.2017 56.7117 37.1138C56.3437 36.9301 55.9997 36.5867 55.5277 36.8502C55.3118 36.97 55.0878 36.9381 54.8638 36.9221C53.2559 36.8183 51.8959 36.1714 50.808 34.9893C50.336 34.4702 49.904 33.9111 49.4881 33.344C49.1521 32.8888 48.7761 32.4895 48.2241 32.3058C47.8401 32.178 47.6802 31.9064 47.5682 31.547C47.4962 31.3074 47.4962 30.9959 47.1762 30.8522C47.0002 31.2036 47.3442 31.5071 47.2162 31.8265C46.8322 31.8665 46.6002 31.6828 46.4402 31.3633C46.1362 30.7563 45.8402 30.1413 45.6083 29.5024C45.5603 29.3746 45.5363 29.1909 45.2483 29.2788C45.3283 30.0375 45.8322 30.6765 46.0482 31.4991C45.4883 31.3234 45.0483 31.1796 44.6083 31.0598C43.7604 30.8202 43.1524 30.3011 42.7604 29.5184C42.1844 28.3763 42.0885 27.1623 42.1604 25.9163C42.1684 25.7486 42.2964 25.5809 42.0964 25.3732C41.8005 25.6048 41.8484 25.8924 41.8245 26.1639C41.7125 27.5536 42.1204 28.8555 42.5044 30.1573C42.6084 30.5247 42.8564 30.8202 43.1364 31.0838C43.5284 31.4512 44.0324 31.531 44.5203 31.6269C44.7363 31.6668 44.8563 31.7147 44.8963 31.9863C45.0563 33.0725 45.6323 33.959 46.3842 34.7258C46.9922 35.3407 47.7521 35.5484 48.6081 35.3487C48.9761 35.2609 49.3521 35.205 49.7121 35.0772C50.032 34.9654 50.232 35.0612 50.432 35.3008C50.776 35.7001 51.192 36.0276 51.632 36.3311C53.0879 37.3534 54.7838 37.4333 56.4717 37.5371C56.5277 37.5371 56.5757 37.5291 56.6237 37.5132Z" fill="#ED7B3B"/>
<path d="M65.1894 59.2985C65.2454 59.3383 65.2854 59.4021 65.3334 59.4658C65.1894 59.5376 65.0614 59.5057 64.9494 59.4579C63.8612 58.9637 62.773 59.1869 61.6928 59.4419C60.2926 59.7687 58.8603 59.9759 57.4841 60.3346C55.6677 60.8207 53.8434 61.0917 51.9791 61.2511C50.7149 61.3627 49.4746 61.3467 48.2184 61.0837C45.93 60.5976 43.8976 59.5774 41.9533 58.3341C41.7853 58.2225 41.6093 58.111 41.4652 57.9755C40.121 56.7242 39.0248 55.3056 38.3687 53.5681C38.0966 52.8349 38.1126 52.0857 38.2727 51.3365C38.2967 51.2409 38.3047 51.0974 38.3687 51.0576C39.0328 50.7069 38.9448 49.9099 39.3688 49.4078C39.7929 48.9057 40.273 48.4674 40.7291 47.9892C40.7611 47.9573 40.8171 47.9414 40.9131 47.8935C41.2972 48.579 41.7053 49.1687 42.4174 49.4796C42.5934 49.5593 42.7374 49.7266 42.8975 49.8462C44.7938 51.3445 46.9062 52.4125 49.1546 53.3051C52.2991 54.5484 55.5317 55.5287 58.7003 56.7242C58.9643 56.8198 59.2284 57.0111 59.5724 56.8278C59.5004 56.5728 59.3004 56.517 59.1163 56.4532C57.108 55.7758 55.1476 54.9629 53.1153 54.3651C52.3151 54.126 51.531 53.863 50.7709 53.5203C50.2908 53.3051 49.7947 53.0979 49.2986 52.9305C46.6741 52.0618 44.3537 50.675 42.2734 48.8738C42.0013 48.6427 41.7613 48.3956 41.6013 48.0689C41.3212 47.503 41.2012 46.9451 41.5853 46.3633C41.7613 46.0923 41.8893 45.7815 42.0493 45.5026C42.1053 45.4069 42.1853 45.2396 42.3294 45.3352C42.7214 45.5982 42.8095 45.4069 42.8175 45.0483C42.8175 44.9128 42.8415 44.7932 42.9695 44.7295C43.8496 44.339 44.6498 43.7173 45.706 43.8369C46.058 43.8767 46.3941 43.9883 46.7301 44.0919C48.1304 44.5223 49.5146 44.9925 50.9149 45.399C52.0591 45.7337 53.0433 46.435 54.0275 47.0965C55.7318 48.2522 57.236 49.623 58.5002 51.2409C59.0763 51.9741 59.4524 52.8349 59.9245 53.6398C61.2687 55.9272 63.0051 57.8161 65.1894 59.2985Z" fill="#13751E"/>
<path d="M56.9079 37.1115C57.0852 37.1999 57.0207 37.4488 56.8193 37.513C56.7709 37.5291 56.7226 37.5371 56.6662 37.5371C54.9661 37.4327 53.2579 37.3524 51.7915 36.3246C51.3564 36.0195 50.9294 35.6903 50.5829 35.2888C50.3815 35.0559 50.18 34.9515 49.8578 35.0639C49.5032 35.1924 49.1245 35.2486 48.7458 35.3369C47.8837 35.5377 47.1183 35.337 46.5059 34.7106C45.7405 33.9398 45.1684 33.0485 45.0072 31.9564C44.9669 31.6834 44.8541 31.6352 44.6285 31.5951C44.129 31.4987 43.6294 31.4184 43.2346 31.0491C42.9526 30.7841 42.7028 30.487 42.5981 30.1176C42.2194 28.8088 41.8004 27.4919 41.9132 26.1027C41.9374 25.8378 41.889 25.5407 42.1872 25.3078C42.3886 25.5085 42.2597 25.6852 42.2516 25.8538C42.1791 27.1065 42.2677 28.327 42.8559 29.4752C43.2588 30.2621 43.8631 30.7841 44.7172 31.025C45.1684 31.1535 45.6115 31.298 46.1675 31.4666C45.9499 30.6315 45.4343 29.9972 45.3618 29.2343C45.6518 29.146 45.676 29.3307 45.7243 29.4592C45.958 30.1016 46.2561 30.7199 46.5623 31.3301C46.7234 31.6513 46.9571 31.8279 47.3439 31.7958C47.4647 31.4666 47.1263 31.1615 47.3036 30.8162C47.6259 30.9688 47.6259 31.2739 47.6984 31.5148C47.8112 31.8761 47.9723 32.1491 48.3591 32.2776C48.915 32.4623 49.2937 32.8558 49.6321 33.3215C50.0511 33.8916 50.4862 34.4537 50.9616 34.9756C52.0574 36.164 53.4271 36.8144 55.0467 36.9188C55.2723 36.9349 55.5059 36.967 55.7154 36.8465C56.1908 36.5816 56.5373 36.9268 56.9079 37.1115ZM49.6402 34.5902C49.753 34.5741 49.8175 34.4617 49.7611 34.3653C49.6241 34.1405 49.5113 33.7631 49.2212 33.8113C48.8345 33.8755 48.6169 33.6186 48.2624 33.4981C48.1657 34.1887 48.2221 34.3894 48.6008 34.55C48.9312 34.7026 49.2857 34.6544 49.6402 34.5902ZM47.8434 32.6952C48.0207 32.9762 48.2705 33.0806 48.6572 32.9762C48.3833 32.7996 48.1577 32.6711 47.8756 32.655C47.6178 32.5025 47.36 32.3178 46.9893 32.374C47.1344 32.6791 47.2311 32.9441 47.4567 33.1368C47.5372 32.928 47.6259 32.7514 47.8434 32.6952ZM46.1594 32.39C46.1755 32.2455 46.2239 32.0929 46.0627 32.0046C46.0386 31.9885 45.9499 32.0126 45.9419 32.0367C45.8694 32.1893 45.9258 32.3178 46.0225 32.4302C46.0386 32.4462 46.0628 32.4543 46.1111 32.4944C46.1433 32.4382 46.1594 32.4141 46.1594 32.39Z" fill="black"/>
<path d="M49.6861 34.3571C49.7413 34.4567 49.6782 34.5646 49.5677 34.5895C49.2284 34.6559 48.8812 34.6974 48.5498 34.548C48.1789 34.382 48.1237 34.1745 48.2184 33.4607C48.5735 33.5852 48.7865 33.8508 49.1574 33.7844C49.4336 33.7346 49.544 34.1247 49.6861 34.3571Z" fill="#ED7B3B"/>
<path d="M48.5178 33.1234C48.124 33.2468 47.8696 33.1322 47.6891 32.8146C47.4676 32.8764 47.3773 33.0704 47.2952 33.2909C47.0573 33.0793 46.967 32.797 46.8193 32.453C47.1968 32.3913 47.4594 32.5941 47.7219 32.7617C48.0009 32.7882 48.2389 32.9293 48.5178 33.1234Z" fill="#ED7B3B"/>
<path d="M47.4747 12.9236C47.5386 13.2118 47.4827 13.4119 47.2347 13.564C47.1228 13.628 47.0268 13.7081 46.9309 13.7881C43.7161 16.0775 41.3729 19.1113 39.5416 22.5694C39.3896 22.8575 39.2697 23.1697 39.1338 23.4659C38.9978 23.7541 38.9498 24.0823 38.6859 24.4585C38.374 23.2898 37.8782 22.2972 37.5023 21.2726C37.0785 20.1199 36.4308 19.1033 35.831 18.0547C35.815 18.0307 35.799 18.0147 35.791 17.9907C34.4235 15.3971 32.3203 13.492 29.9931 11.803C29.1375 11.1786 28.2978 10.5382 27.4341 9.92184C26.1306 8.99328 24.6991 8.30488 23.2277 7.70452C22.4519 7.39233 21.6523 7.16019 20.8046 7.20822C20.6766 7.21623 20.5486 7.20022 20.4287 7.18421C19.2611 7.08015 18.1336 6.59986 16.942 6.88002C16.87 6.55983 17.0539 6.47979 17.1739 6.36772C19.709 4.04634 22.6199 2.33332 25.9307 1.44479C27.714 0.9645 29.5213 0.548249 31.4166 0.51623C33.208 0.484211 34.9913 0.572266 36.7826 0.644309C37.9262 0.684333 38.9898 1.16462 39.9654 1.75697C40.7012 2.20524 41.3649 2.74156 41.9487 3.38995C42.6125 4.11838 43.2842 4.83881 44.0039 5.51121C45.1475 6.56784 45.9072 7.86461 46.467 9.28946C46.8989 10.4662 47.1948 11.6909 47.4747 12.9236Z" fill="#ED7B3B"/>
<path d="M42.7873 43.448C42.935 43.559 43.0827 43.6871 43.2526 43.8152C43.0827 44.0629 42.8538 44.2337 42.6618 44.1312C42.4181 44.0031 42.455 43.6444 42.4033 43.3199C42.6027 43.2858 42.6913 43.3712 42.7873 43.448Z" fill="#ED7B3B"/>
<path d="M42.0279 44.0569C42.068 44.2575 42.1081 44.4661 41.9478 44.6346C41.3225 45.2926 41.0419 46.1511 40.6732 46.9455C40.4727 47.3788 40.1761 47.6677 39.7352 47.8763C36.9375 49.2323 34.1478 50.6044 31.262 51.7679C29.9232 52.3055 28.6646 53.0116 27.4221 53.7498C27.1816 53.8943 26.9572 54.0548 26.7487 54.2393C26.5403 54.4158 26.3639 54.6325 26.5002 54.9855C26.877 54.3918 27.4542 54.0869 28.0233 53.7659C29.4823 52.9555 30.9894 52.2413 32.5365 51.6155C34.3643 50.8773 36.1439 50.0267 37.9396 49.2163C38.3324 49.0398 38.7172 48.8472 39.2623 48.5904C38.9096 49.2163 38.629 49.6977 38.2362 50.107C37.9476 50.4119 37.7953 50.7248 37.7231 51.1581C37.5388 52.2975 37.6109 53.3807 38.14 54.4078C38.3404 54.793 38.3083 55.0578 38.0197 55.4188C36.673 57.0718 35.0617 58.3717 33.1217 59.2784C31.8471 59.8722 30.5245 60.0808 29.1376 59.8882C27.358 59.6395 25.5623 59.6314 23.7667 59.5833C22.3798 59.5432 20.985 59.5512 19.6222 59.2383C19.3737 59.1821 19.1172 59.1339 18.9087 59.0056C17.9147 58.4038 16.8165 58.139 15.7102 57.8501C15.3014 57.7378 14.8845 57.6254 14.5479 57.2403C14.8124 57.0477 15.093 57.136 15.3415 57.1681C16.7363 57.3366 18.1151 57.16 19.4939 57.0076C21.001 56.8311 22.0592 56.0287 22.9089 54.8491C23.3097 54.2875 23.5502 53.6455 23.7747 53.0036C24.3919 51.2303 25.1615 49.5292 26.2197 47.9646C26.6445 47.3387 27.1816 46.8653 27.9111 46.6245C28.6807 46.3678 29.3781 45.9987 30.0675 45.5493C30.821 45.0599 31.7349 44.8512 32.6408 44.6908C34.1238 44.434 35.5106 43.9205 36.7932 43.1181C37.2101 42.8533 37.5147 42.5002 37.7632 42.0749C38.4446 40.9355 39.9276 40.775 40.8575 41.7219C41.4828 42.3718 41.8516 43.1662 42.0279 44.0569Z" fill="#13751E"/>
<path d="M37.9716 23.708C38.6781 26.1618 39.0152 28.6635 38.7423 31.2531C38.4372 34.0746 37.8993 36.8321 37.1608 39.5576C36.8316 40.7725 36.2456 41.8435 35.6274 42.9226C35.3785 43.3542 34.9932 43.6019 34.5195 43.7778C33.3073 44.2174 32.0068 44.3293 30.7464 44.8408C30.7544 44.4732 30.9631 44.2813 31.1237 44.0815C32.1994 42.7467 32.922 41.2041 33.5401 39.6455C33.9736 38.5585 34.3028 37.4076 34.7122 36.3046C34.8166 36.0248 34.8728 35.7371 35.0976 35.4973C35.2902 35.2895 35.2822 34.9858 35.2902 34.706C35.3464 32.3561 35.3866 29.9983 34.8487 27.7044C34.2064 24.9708 32.7373 22.8128 30.2085 21.3581C28.924 20.6228 27.6636 20.1592 26.1945 20.3191C25.8091 20.359 25.6485 20.1912 25.6405 19.8075C25.6164 18.7365 25.1909 17.8013 24.5728 16.9461C24.2918 16.5545 23.9626 16.1868 23.4488 16.1069C23.1839 16.0669 23.1197 15.9071 23.1037 15.6913C23.0153 14.3964 22.4774 13.2055 22.1644 11.9586C21.7951 10.48 20.6711 8.66563 19.6436 7.65854C20.8157 7.60259 21.8593 7.69052 22.8628 8.10614C24.5969 8.82549 26.2747 9.64075 27.7519 10.8237C28.7233 11.591 29.7268 12.3183 30.7383 13.0377C32.8417 14.5323 34.367 16.5145 35.6756 18.7045C36.655 20.2791 37.4658 21.9416 37.9716 23.708Z" fill="#ED7B3B"/>
<path d="M34.287 27.7567C34.6152 29.2069 34.7753 30.6973 34.7593 32.2036C34.7273 32.9087 34.6712 33.6138 34.6632 34.327C34.6632 34.7116 34.3991 34.976 34.3351 35.3205C33.9268 37.4598 32.7261 39.2867 31.9417 41.2818C31.4935 42.4276 30.7891 43.4692 30.2047 44.5589C29.8125 45.2881 29.1802 45.7448 28.4197 46.0012C27.3071 46.3778 26.3786 46.9707 25.7062 47.9563C25.6262 48.0765 25.4901 48.1726 25.37 48.2527C23.7931 49.2943 22.1282 50.0876 20.1751 50.1036C19.0385 50.1116 17.9179 50.1196 16.7972 49.8152C16.1248 49.6309 15.4045 49.5828 14.7081 49.5107C14.3479 49.4706 13.9957 49.4145 13.6995 49.2142C12.5388 48.421 11.2261 47.8361 10.2736 46.7383C9.87334 46.2816 9.36907 45.9371 8.82477 45.6567C8.23243 45.3522 7.77617 44.9355 7.39195 44.3666C6.54348 43.1087 5.72703 41.8347 4.83853 40.6088C3.07754 38.197 2.06898 35.4647 1.51667 32.5482C1.14046 30.537 0.84429 28.5018 1.00438 26.4426C1.24451 23.3017 2.09299 20.313 3.65386 17.5808C4.46232 16.1625 5.33481 14.7604 6.3994 13.5024C7.03976 12.7412 7.8162 12.1322 8.54461 11.4672C10.1455 10.0009 11.9545 8.87915 13.9556 8.02983C15.3804 7.42087 16.8132 7.31672 18.3021 7.6933C18.5502 7.7574 18.7743 7.86958 18.9744 8.02182C19.8549 8.71891 20.6154 9.52016 21.0556 10.5858C21.4958 11.6595 21.9041 12.7492 22.1362 13.895C22.2643 14.528 22.2803 15.153 22.2163 15.7779C22.1922 16.0504 22.1842 16.3388 21.824 16.435C21.6319 16.4911 21.664 16.6353 21.768 16.7875C22.2403 17.4766 21.744 17.9333 21.1196 17.9253C20.5913 17.9173 20.063 17.9333 19.5348 17.8292C18.6383 17.6529 17.7898 17.7891 16.9493 18.1497C15.2043 18.8868 13.6515 19.8483 12.3227 21.2345C10.8499 22.7809 10.1695 24.6158 9.95339 26.683C9.7933 28.2374 9.88136 29.7598 10.4417 31.2341C10.6658 31.827 10.6017 32.428 10.5297 33.0369C10.4737 33.4856 10.4257 33.9423 10.4577 34.3991C10.5057 35.1442 10.8259 35.5208 11.5543 35.4407C12.4668 35.3365 12.9871 35.5929 13.1552 36.5464C13.2352 36.9871 13.5474 37.1073 13.9716 36.907C14.4359 36.6826 14.9242 36.5945 15.4205 36.4983C16.1489 36.3541 16.7172 36.0016 17.1254 35.3525C17.9739 34.0064 18.9424 32.7405 19.999 31.5466C20.8155 30.6252 21.3037 29.5034 21.76 28.3816C22.1442 27.4442 22.4884 26.4987 22.8486 25.5532C23.1768 24.6719 23.3849 23.7664 23.3449 22.8129C23.3289 22.5085 23.3449 22.204 23.3609 21.8995C23.4009 21.1463 23.593 20.906 24.3615 20.8419C25.5942 20.7457 26.8348 20.8178 28.0675 20.8819C28.1636 20.8899 28.2677 20.922 28.3557 20.962C31.3814 22.3001 33.5346 24.4555 34.287 27.7567Z" fill="#FBB15B"/>
<path d="M25.0042 19.0267C25.42 20.1427 25.3945 20.1758 24.215 20.3411C24.1386 20.3494 24.0537 20.3742 23.9774 20.3825C23.8076 20.2502 23.9349 20.0848 23.9434 19.9443C23.9604 19.7376 24.0283 19.6054 24.2998 19.7459C24.6223 19.9195 24.7496 19.7046 24.7411 19.4317C24.7326 19.1589 24.6562 18.8861 24.5968 18.5141C24.9193 18.6712 24.9448 18.8613 25.0042 19.0267Z" fill="#ED7B3B"/>
<path d="M22.5476 19.4661C22.8844 19.7627 22.8763 20.0593 22.8683 20.3398C22.8443 21.3258 22.8042 22.3118 22.7721 23.2978C22.748 23.9873 22.5396 24.6366 22.307 25.2859C22.2669 25.3981 22.2188 25.5585 22.1226 25.6065C21.5373 25.9032 21.3689 26.5364 20.992 26.9853C20.1982 27.9393 19.3323 28.8211 18.3621 29.5987C18.1776 29.743 17.913 29.7991 17.6564 29.9113C17.889 30.24 18.1455 30.1598 18.3941 30.0235C18.7549 29.8311 19.0516 29.5506 19.3403 29.27C20.0298 28.6046 20.7194 27.9393 21.4571 27.306C21.0241 28.6367 20.527 29.9514 19.6049 31.0176C18.4984 32.3082 17.464 33.6469 16.5419 35.0738C16.2452 35.5388 15.8283 35.7632 15.3151 35.8754C14.7538 36.0037 14.1685 36.0438 13.6954 36.3484C13.4068 36.14 13.4228 35.8594 13.3266 35.635C13.07 35.0337 12.7653 34.8253 12.0998 34.8253C11.9715 34.8253 11.8512 34.8413 11.7229 34.8413C10.9692 34.8574 10.7768 34.7291 10.881 33.9676C11.0895 32.4525 10.9451 31.0015 10.4159 29.5746C10.0712 26.4964 10.4159 23.6425 12.7252 21.2697C14.1284 19.8348 15.7962 18.8969 17.6324 18.1995C18.0654 18.0392 18.5224 17.959 18.9795 18.0311C19.7091 18.1594 20.4388 18.1353 21.1765 18.1353C21.2486 18.1353 21.3288 18.1353 21.401 18.1434C21.7057 18.1674 22.1066 18.1434 22.1707 18.48C22.2349 18.8247 22.4273 19.2656 22.0023 19.5783C21.9061 19.6504 21.8179 19.7707 21.7939 19.8829C21.6736 20.5563 21.1524 20.8128 20.6072 21.0292C20.4869 21.0773 20.3586 21.1094 20.2624 21.1735C20.1501 21.2457 20.094 21.3739 20.1742 21.5022C20.2464 21.6224 20.3586 21.6866 20.4949 21.5984C21.3128 21.0453 22.3952 20.7647 22.5476 19.4661ZM21.2887 24.6125C21.3609 24.5003 21.4651 24.3239 21.2567 24.2358C21.1123 24.1716 21.0241 24.3079 20.968 24.4201C20.6713 24.9893 20.2143 25.4302 19.7813 25.8871C19.2841 26.4002 18.7309 26.8651 18.1295 27.314C18.0734 26.9853 18.3059 26.8491 18.3621 26.6407C18.3861 26.5445 18.4182 26.4402 18.322 26.3681C18.1937 26.2719 18.0734 26.328 17.9852 26.4242C17.8649 26.5525 17.7687 26.7048 17.6645 26.8411C17.2876 27.3541 16.8707 27.819 16.3815 28.2279C16.2613 28.3321 16.141 28.5004 15.9325 28.3962C15.7641 28.1637 16.1811 28.0034 15.9967 27.779C15.7641 27.6988 15.6759 27.8752 15.5957 28.0275C15.4594 28.284 15.3793 28.5646 15.6198 28.797C15.8523 29.0215 16.1089 28.8852 16.3094 28.7409C16.598 28.5405 16.8546 28.292 17.1272 28.0676C17.2796 27.9393 17.3838 27.7469 17.6404 27.8511C18.0012 27.9954 18.2738 27.795 18.5384 27.5946C18.8191 27.3781 19.0677 27.1296 19.3643 26.9292C20.2383 26.336 20.7435 25.4542 21.2887 24.6125ZM20.559 20.1555C20.7194 20.0753 20.9119 19.9791 20.8557 19.7226C20.5029 19.7065 20.3025 19.9069 20.086 20.0673C19.6209 20.42 19.661 20.6284 20.2945 20.9651C20.07 20.5563 20.2223 20.3318 20.559 20.1555ZM20.4227 23.1536C20.5591 23.1055 20.7515 23.0493 20.6954 22.865C20.6152 22.6245 20.4067 22.7127 20.2463 22.7768C19.8935 22.9211 19.5488 23.0814 19.204 23.2337C18.9714 23.3379 18.7469 23.4421 18.5064 23.5383C18.3941 23.5784 18.2177 23.6345 18.1696 23.4822C17.9692 22.857 17.6965 23.2177 17.4961 23.4502C16.9508 24.0674 16.3415 24.5724 15.6038 24.9492C15.4675 25.0214 15.3151 25.1256 15.4193 25.2939C15.5075 25.4462 15.684 25.4302 15.8203 25.334C16.0047 25.2057 16.1731 25.0534 16.3655 24.9252C16.5259 24.8129 16.6942 24.6686 16.9188 24.8049C17.2876 24.9171 17.5281 24.6686 17.7927 24.4843C18.0413 24.3079 18.2257 24.0434 18.5304 23.9712C19.212 23.7949 19.7733 23.362 20.4227 23.1536ZM19.1719 20.8689C19.2681 20.7086 19.3162 20.4921 19.1799 20.3799C18.8512 20.1154 18.9394 19.8989 19.1799 19.6504C19.2441 19.5783 19.2521 19.458 19.1639 19.3779C19.0837 19.3057 18.9714 19.2977 18.8832 19.3538C18.7309 19.45 18.5946 19.5542 18.4583 19.6584C17.8168 20.1474 17.1753 20.6364 16.5339 21.1254C16.3014 21.3018 16.0688 21.43 15.7802 21.2457C15.4274 21.0292 15.0906 21.1254 14.7939 21.3419C14.1845 21.7908 13.5832 22.2397 12.9978 22.7287C12.6691 23.0012 12.4125 23.362 12.3002 23.7868C12.196 24.1957 12.3965 24.4442 12.7974 24.4362C13.054 24.4121 13.2865 24.3079 13.503 24.1716C13.952 23.883 14.393 23.5864 14.7378 23.1856C15.6118 22.1836 16.7584 21.5262 17.8248 20.7647C18.1456 20.5402 18.6026 20.3719 18.8913 20.933C18.9394 21.0613 19.0917 20.9972 19.1719 20.8689ZM16.7424 31.2661C16.8145 31.1939 16.8706 31.0977 16.8145 31.0015C16.7504 30.8893 16.6461 30.8973 16.5499 30.9454C16.2853 31.0897 16.2212 31.0576 16.2532 30.729C16.2853 30.4725 16.0448 30.4564 15.8924 30.5927C15.7481 30.721 15.6358 30.9053 15.5396 31.0737C15.3071 31.4985 14.9864 31.8432 14.5534 32.196C14.5133 31.9394 14.6336 31.8673 14.6897 31.7631C14.7538 31.6508 14.7939 31.5146 14.6416 31.4424C14.5454 31.3943 14.4491 31.4585 14.385 31.5466C14.2086 31.7951 14.0562 32.0597 13.9841 32.3563C13.944 32.5086 13.952 32.6689 14.0963 32.7651C14.2407 32.8613 14.393 32.8052 14.5213 32.717C14.7057 32.5888 14.8901 32.4525 15.0505 32.2922C15.3552 31.9955 15.6278 31.6749 16.1169 31.6508C16.3495 31.6428 16.566 31.4504 16.7424 31.2661ZM16.5259 33.7671C16.6141 33.6549 16.6061 33.5267 16.4216 33.5106C16.3334 33.5026 16.2051 33.5988 16.157 33.4705C15.9967 32.9896 15.7722 33.2301 15.5637 33.4144C15.2991 33.6469 15.0345 33.8794 14.7779 34.1199C14.4171 34.4566 14.0402 34.6489 13.5671 34.3283C13.4869 34.2722 13.3827 34.2401 13.2865 34.2321C13.1582 34.2161 13.0379 34.2561 12.9818 34.3924C12.9176 34.5367 12.9898 34.6409 13.1021 34.7131C13.3586 34.8894 13.6714 34.8894 13.9841 34.9696C14.1364 34.9295 14.3289 34.9215 14.4732 34.8333C14.818 34.6249 15.1467 34.4806 15.5717 34.4485C15.9485 34.4245 16.2693 34.0878 16.5259 33.7671ZM14.2487 29.5506C14.3289 29.4143 14.3449 29.254 14.2407 29.1257C14.1124 28.9654 13.936 28.9814 13.7596 29.0375C13.3667 29.1738 13.078 29.4544 12.8054 29.759C12.6931 29.8873 12.5328 30.0155 12.621 30.2159C12.7172 30.4244 12.9337 30.4404 13.1421 30.4965C13.6553 30.3602 13.9841 29.9915 14.2487 29.5506ZM13.5832 32.1398C13.6714 31.9635 13.7756 31.7551 13.6313 31.5787C13.4709 31.3783 13.2704 31.5146 13.086 31.5787C12.645 31.747 12.204 31.9955 11.763 31.5627C11.7069 31.5065 11.6187 31.5306 11.5626 31.5867C11.4824 31.6749 11.4984 31.7711 11.5545 31.8593C11.747 32.1479 12.0437 32.1719 12.3564 32.1719C12.645 32.1719 13.0379 31.9555 13.0379 32.5166C13.0379 32.5407 13.1101 32.5727 13.1582 32.6048C13.4388 32.5807 13.4869 32.3322 13.5832 32.1398ZM13.1101 26.8651C13.1502 26.7449 13.1742 26.6086 13.062 26.5204C12.9337 26.4322 12.8294 26.5124 12.7332 26.6086C12.6049 26.7288 12.4927 26.8731 12.3483 26.9693C12.0196 27.1858 11.771 27.0415 11.7309 26.6567C11.7149 26.4883 11.9154 26.344 11.779 26.1757C11.6507 26.1356 11.5706 26.1917 11.5225 26.2799C11.2498 26.801 11.4663 27.29 12.0517 27.4102C12.2441 27.4503 12.4045 27.4263 12.5007 27.6908C12.7332 28.3241 12.8615 28.3481 13.6473 28.0114C12.8775 27.7389 12.8776 27.7389 13.07 27.0174C13.078 26.9613 13.094 26.9132 13.1101 26.8651Z" fill="black"/>
<path d="M21.3885 24.305C21.5982 24.3914 21.4934 24.5642 21.4208 24.6741C20.8725 25.4988 20.3644 26.3627 19.4855 26.9282C19.1871 27.1167 18.9371 27.368 18.6549 27.5801C18.3888 27.7764 18.1146 27.9806 17.7517 27.8314C17.4937 27.7293 17.3808 27.9178 17.2356 28.0435C16.9615 28.2634 16.7034 28.5069 16.4131 28.7032C16.2115 28.8446 15.9535 28.9781 15.7196 28.7582C15.4777 28.5304 15.5664 28.2555 15.6954 28.0042C15.7761 27.8628 15.8648 27.6822 16.0986 27.7607C16.276 27.9885 15.8648 28.1377 16.0341 28.3655C16.2438 28.4676 16.3647 28.3027 16.4857 28.2006C16.9776 27.8 17.405 27.3445 17.7759 26.8418C17.8807 26.7004 17.9775 26.5591 18.0985 26.4334C18.1872 26.3392 18.3081 26.2842 18.4372 26.3784C18.5339 26.457 18.5017 26.5512 18.4775 26.6455C18.413 26.8497 18.1791 26.991 18.2436 27.3052C18.8565 26.8654 19.4048 26.4098 19.9048 25.9072C20.3402 25.4595 20.808 25.0354 21.0983 24.4699C21.1466 24.3757 21.2353 24.2421 21.3885 24.305Z" fill="#ED7B3B"/>
<path d="M20.8233 19.7037C20.8756 19.9489 20.6962 20.0409 20.5466 20.1176C20.2325 20.2862 20.0904 20.5008 20.2998 20.8917C19.709 20.5698 19.6716 20.3705 20.1054 20.0333C20.3073 19.88 20.4943 19.6883 20.8233 19.7037Z" fill="#ED7B3B"/>
<path d="M20.6503 22.9224C20.7139 23.1088 20.523 23.1737 20.3798 23.2143C19.7354 23.4251 19.1786 23.8548 18.5183 24.0251C18.216 24.1062 18.0251 24.3656 17.7864 24.544C17.5239 24.7305 17.2852 24.99 16.9193 24.8684C16.6966 24.7305 16.5295 24.8765 16.3704 24.99C16.1874 25.1197 16.0204 25.2738 15.8295 25.4035C15.6942 25.5008 15.5192 25.517 15.4317 25.363C15.3283 25.1846 15.4794 25.0873 15.6147 25.0143C16.3386 24.6332 16.9511 24.1224 17.4921 23.498C17.6909 23.271 17.9614 22.898 18.1603 23.5305C18.208 23.6845 18.383 23.6278 18.4944 23.5872C18.7251 23.498 18.9558 23.3845 19.1865 23.2791C19.5286 23.1251 19.8706 22.9629 20.2207 22.8169C20.3639 22.7683 20.5707 22.6791 20.6503 22.9224Z" fill="#ED7B3B"/>
<path d="M19.2172 20.4291C19.3527 20.5408 19.3128 20.7562 19.2092 20.9158C19.1295 21.0434 18.9781 21.1072 18.9144 20.9716C18.6275 20.4131 18.1732 20.5807 17.8544 20.8041C16.7945 21.562 15.6549 22.2162 14.7863 23.2135C14.4356 23.6124 13.9973 23.9076 13.559 24.1948C13.3438 24.3304 13.1207 24.4341 12.8577 24.4581C12.4672 24.474 12.2679 24.2267 12.3636 23.8118C12.4672 23.381 12.7302 23.03 13.0569 22.7587C13.6307 22.28 14.2364 21.8332 14.842 21.3785C15.1449 21.1551 15.4796 21.0673 15.8223 21.2828C16.1171 21.4583 16.3403 21.3386 16.5714 21.1631C17.2089 20.6764 17.8465 20.1897 18.484 19.7031C18.6275 19.5994 18.7629 19.4877 18.9064 19.3999C18.9941 19.3441 19.1056 19.352 19.1853 19.4238C19.281 19.5036 19.265 19.6233 19.2013 19.6951C18.9701 19.9504 18.8904 20.1578 19.2172 20.4291ZM13.3916 23.1098C13.4713 23.0379 13.6227 23.014 13.6068 22.8624C13.6068 22.8385 13.5271 22.7986 13.4952 22.8066C13.3836 22.8545 13.2801 22.9263 13.2721 23.0619C13.2721 23.1177 13.3279 23.1337 13.3916 23.1098ZM13.2482 23.9475C13.1685 23.8039 13.033 23.9235 12.9294 23.8757C12.8338 23.8358 12.7222 23.8437 12.7461 23.9953C12.762 24.0751 12.8417 24.099 12.9214 24.0911C13.041 24.0911 13.1685 24.0831 13.2482 23.9475Z" fill="#ED7B3B"/>
<path d="M16.9012 31.085C16.9574 31.1922 16.9092 31.283 16.8288 31.3572C16.652 31.5387 16.4349 31.7449 16.1937 31.7531C15.7034 31.7779 15.4301 32.1078 15.1246 32.413C14.9638 32.578 14.7789 32.7182 14.594 32.8502C14.4654 32.9409 14.3126 32.9986 14.1679 32.8997C14.0232 32.8007 14.0232 32.6357 14.0554 32.479C14.1277 32.1738 14.2805 31.9016 14.4573 31.6459C14.5217 31.5552 14.6181 31.4892 14.7146 31.5387C14.8593 31.6129 14.8271 31.7531 14.7628 31.8686C14.7066 31.9758 14.586 32.0501 14.6261 32.314C15.0683 31.9593 15.3818 31.6046 15.6149 31.1592C15.7114 30.9778 15.824 30.7963 15.9687 30.6643C16.1294 30.5158 16.3626 30.5406 16.3304 30.8045C16.2983 31.1427 16.3626 31.1675 16.6279 31.0273C16.7243 30.9778 16.8369 30.9695 16.9012 31.085Z" fill="#ED7B3B"/>
<path d="M16.4302 33.4206C16.6116 33.4359 16.6195 33.5582 16.5328 33.6652C16.2804 33.9633 15.9649 34.292 15.5863 34.3226C15.1683 34.3532 14.8449 34.4908 14.5058 34.6895C14.3638 34.7736 14.1745 34.7813 14.0247 34.8195C13.7171 34.743 13.4095 34.7507 13.1571 34.5749C13.0546 34.5061 12.9836 34.399 13.0388 34.2691C13.094 34.1391 13.2123 34.1009 13.3385 34.1162C13.4331 34.1239 13.5357 34.1544 13.6145 34.2079C14.0799 34.5137 14.4506 34.3226 14.8055 34.0092C15.0579 33.7799 15.3181 33.5582 15.5784 33.3365C15.7835 33.1607 16.0043 32.9313 16.1621 33.39C16.2173 33.5047 16.3435 33.4129 16.4302 33.4206Z" fill="#ED7B3B"/>
<path d="M14.3059 29.1748C14.4089 29.3056 14.393 29.4774 14.3138 29.6082C14.0601 30.0662 13.7273 30.4342 13.22 30.5733C13.014 30.516 12.792 30.4997 12.7049 30.287C12.6177 30.0826 12.7762 29.9517 12.8872 29.8209C13.1487 29.5101 13.434 29.2239 13.8303 29.0848C13.9968 29.0276 14.179 29.0112 14.3059 29.1748Z" fill="#ED7B3B"/>
<path d="M13.7918 31.5353C13.9447 31.7203 13.8401 31.9389 13.7435 32.1239C13.647 32.3257 13.5988 32.5864 13.3172 32.6116C13.269 32.578 13.1966 32.5528 13.1966 32.5191C13.1966 31.9221 12.7944 32.1491 12.5128 32.1576C12.1991 32.1576 11.9015 32.1323 11.7084 31.8296C11.6521 31.7371 11.636 31.6362 11.7165 31.5437C11.7728 31.4764 11.8613 31.4596 11.9176 31.5185C12.3519 31.9725 12.8024 31.7119 13.2448 31.5353C13.4298 31.4596 13.6309 31.3251 13.7918 31.5353Z" fill="#ED7B3B"/>
<path d="M13.1223 26.5175C13.2409 26.6043 13.2092 26.7306 13.1697 26.8569C13.1539 26.9043 13.1381 26.9516 13.1302 26.999C12.9405 27.7095 12.9405 27.7095 13.6993 27.9779C12.9326 28.3173 12.8062 28.2936 12.5691 27.6621C12.4742 27.4016 12.3162 27.4332 12.1265 27.3858C11.5574 27.2595 11.3361 26.7859 11.6049 26.2728C11.6523 26.1859 11.7313 26.1307 11.8578 26.1701C11.9921 26.3359 11.7945 26.478 11.8103 26.6438C11.8499 27.0306 12.1028 27.1648 12.4189 26.9516C12.5612 26.8569 12.6718 26.7148 12.7983 26.5964C12.8931 26.5096 13.0038 26.4306 13.1223 26.5175Z" fill="#ED7B3B"/>
</svg>
