<svg width="77" height="72" viewBox="0 0 77 72" fill="none" xmlns="http://www.w3.org/2000/svg">
<path d="M76.776 28.9266C76.7987 29.4779 76.776 30.0216 76.6554 30.5653C76.497 31.3356 76.4743 32.1284 76.5121 32.9138C76.5799 34.3335 76.3537 35.6927 75.969 37.0671C75.5165 38.668 74.898 40.2236 74.5209 41.8472C74.1363 43.501 73.2387 44.8225 71.9716 45.9627C70.3802 47.3824 68.736 48.6964 66.8957 49.7611C66.7524 49.8442 66.6091 49.9348 66.4733 50.033C66.0057 50.3728 65.6814 50.7806 65.5607 51.3998C65.2666 52.895 64.799 54.3449 64.2182 55.757C63.8713 56.5877 63.3961 57.3353 62.936 58.0904C62.4986 58.8229 61.9782 59.5176 61.4653 60.1973C60.8016 61.0657 60.1228 61.9265 59.5948 62.8931C59.4364 63.1876 59.1724 63.4066 58.9311 63.6332C58.5238 64.0258 58.0411 64.3657 57.9808 65C57.9808 65.0227 57.9657 65.0453 57.9506 65.0604C57.1285 65.7098 56.8117 66.7972 55.8388 67.341C53.7647 68.5039 51.8716 69.9689 49.6541 70.8826C48.9678 71.1695 48.2739 71.313 47.5423 71.4414C44.9855 71.8945 42.4136 71.6604 39.8492 71.7057C38.1522 71.7359 36.5382 71.2753 35.075 70.4295C33.8758 69.7348 32.9255 68.7078 32.0732 67.6128C31.7564 67.1975 31.4698 66.7519 31.1983 66.3064C30.7231 65.5286 30.1499 64.8414 29.539 64.1618C28.5132 63.014 27.7967 61.6698 27.1707 60.2728C26.9218 59.714 26.5447 59.2156 26.3637 58.551C25.5492 59.1325 24.6592 59.0796 23.7994 58.9437C22.5775 58.7549 21.3707 58.8833 20.1715 59.0192C19.0477 59.1551 17.939 59.1854 16.8303 59.0721C15.9102 58.9815 14.9749 59.0268 14.0699 58.7625C12.5463 58.3169 11.2038 57.5014 9.92163 56.5877C9.37104 56.2025 8.82046 55.8401 8.20199 55.5909C7.22904 55.1982 6.45973 54.5186 5.78093 53.7407C5.50941 53.4311 5.23034 53.1593 4.89094 52.9403C3.93307 52.3211 3.1864 51.5055 2.63582 50.5012C1.68549 48.7643 0.757802 47.0124 0.471196 45.0188C0.207218 43.1913 0.229837 41.3639 0.388224 39.5289C0.554154 37.5655 1.08211 35.7003 1.74583 33.8502C2.23607 32.4834 2.69616 31.1014 3.48809 29.8706C3.65402 29.6138 3.80486 29.3344 3.98587 29.0852C5.39627 27.1445 6.49744 25.0452 7.21395 22.7495C7.37988 22.2209 7.63632 21.7376 7.96818 21.2996C8.08131 21.1486 8.202 20.9976 8.30005 20.8315C9.26545 19.072 10.7513 17.8184 12.3502 16.6706C13.0743 16.1496 13.8285 15.7569 14.6808 15.4699C16.5211 14.8507 16.159 15.0999 15.8121 13.4235C15.6688 12.7212 15.3369 12.0717 15.0051 11.445C14.447 10.3651 13.8662 9.30036 13.2855 8.2356C13.1723 8.02416 13.029 7.83538 12.8857 7.63904C12.7801 7.48046 12.6821 7.32943 12.4256 7.43516C12.2069 7.52577 12.0938 7.35209 12.139 7.17085C12.2295 6.77818 12.0184 6.54408 11.7846 6.29488C11.4678 5.94751 11.4678 5.56994 11.7167 5.18481C12.1239 4.56559 12.6142 4.00678 13.2327 3.59145C13.8662 3.16857 14.3037 3.34225 14.5224 4.06719C14.545 4.13516 14.5601 4.20312 14.5752 4.27108C14.7487 5.05643 14.7562 5.064 15.4953 4.85256C16.7172 4.51274 17.939 4.21067 19.2212 4.30884C19.5003 4.33149 19.6737 4.22577 19.7718 3.96902C20.081 3.20632 20.6995 2.791 21.416 2.46629C22.1325 2.14157 22.8339 1.79421 23.5429 1.4544C23.8672 1.30337 24.2066 1.18253 24.5687 1.17498C26.0469 1.14477 27.495 0.880471 28.9281 0.533103C29.6898 0.351868 30.4365 0.39718 31.1606 0.70679C32.1939 1.15233 33.2573 1.44684 34.3585 1.67338C36.6061 2.13402 38.469 3.31961 39.9096 5.0791C40.8146 6.18917 41.7273 7.27657 42.7304 8.29602C43.2206 8.79441 43.5977 9.36832 43.8919 9.9951C44.0126 10.2518 44.1332 10.5161 44.2991 10.7502C45.1891 11.966 45.883 13.2875 46.5317 14.6468C46.8711 15.3491 47.0898 16.0514 47.1652 16.8216C47.2557 17.6901 47.3915 18.5509 47.5046 19.4042C47.7535 19.4571 47.9119 19.3212 48.0778 19.2381C48.4549 19.0418 48.8396 18.8379 49.2016 18.6113C50.7025 17.6825 52.3316 17.1463 54.0739 16.882C55.9293 16.5951 57.7771 16.2477 59.6476 16.0665C60.6658 15.9683 61.684 15.8777 62.7098 15.9306C63.5771 15.9683 64.4219 15.8475 65.2138 15.485C66.2697 15.0017 67.4086 14.8733 68.5399 14.7676C69.3847 14.6921 69.9201 14.4731 70.2294 13.5367C70.6367 12.2983 71.2928 11.1429 71.8811 9.97244C72.1904 9.35322 72.6806 8.86238 73.2991 8.52256C73.5857 8.36398 73.7893 8.07703 74.1212 7.96376C74.3097 7.89579 74.4907 7.83538 74.6642 7.96376C74.8603 8.11479 74.8829 8.31867 74.8151 8.54522C74.7849 8.65849 74.7472 8.77931 74.7019 8.88503C74.4229 9.52691 73.9779 10.1008 73.9477 10.856C73.9402 11.0825 73.6988 11.309 73.548 11.5205C73.2236 11.9585 72.8842 12.3889 72.5448 12.8194C72.2507 13.2045 72.0244 13.6198 71.9339 14.0955C71.8811 14.3598 71.8359 14.6317 71.6473 14.8205C71.3833 15.0923 71.4135 15.3264 71.5794 15.636C71.8661 16.1646 72.1904 16.6555 72.6354 17.0633C73.382 17.7731 73.827 18.6793 74.0985 19.6459C74.2343 20.1292 74.2192 20.6578 74.4002 21.1486C74.6793 21.9113 74.9885 22.6514 75.426 23.3461C75.6296 23.6633 75.8106 24.0182 75.9087 24.3806C76.3235 25.8683 76.7082 27.371 76.776 28.9266ZM76.2858 30.233C76.3914 29.7195 76.3838 29.1909 76.3537 28.6623C76.2933 27.4918 75.9539 26.3667 75.7578 25.2189C75.6523 24.5996 75.426 24.0257 75.0941 23.4971C74.6416 22.7873 74.3173 22.0246 74.0684 21.2241C73.8497 20.5445 73.646 19.8573 73.4122 19.1852C73.201 18.5736 72.922 17.9846 72.4468 17.5315C71.851 16.9651 71.3683 16.3232 71.0439 15.5681C70.878 15.1905 70.6442 15.0244 70.2218 15.0621C68.6606 15.183 67.0843 15.2585 65.606 15.8399C64.6104 16.2251 63.6073 16.4441 62.5438 16.3836C61.9782 16.3534 61.3974 16.3459 60.8318 16.4063C59.082 16.5951 57.3397 16.799 55.5974 17.0482C53.1236 17.4106 50.7402 17.9694 48.6359 19.3967C48.5756 19.4344 48.5077 19.4646 48.4474 19.5024C48.1985 19.6459 47.9043 19.7365 47.7158 19.9404C47.4744 20.1896 47.7761 20.469 47.7912 20.7484C47.8214 21.2468 47.6253 21.428 47.1652 21.209C46.8107 21.0353 46.5467 21.058 46.2677 21.3374C45.7096 21.9038 45.0685 22.3946 44.6235 23.0818C43.4921 24.8186 42.3683 26.5555 41.4105 28.398C40.7015 29.7573 40.4828 31.2449 40.2037 32.7099C40.1886 32.7703 40.2263 32.8458 40.249 32.9818C41.5689 32.7628 42.8284 32.5287 43.9899 31.9397C44.352 31.7584 44.7291 31.5999 45.1213 31.5092C46.0791 31.2902 46.9917 30.958 47.8893 30.5804C49.0357 30.0971 50.2123 29.7648 51.4266 29.5005C53.4328 29.055 55.4541 29.2136 57.4679 29.2211C57.8148 29.2211 58.1769 29.3042 58.4107 29.6365C58.9009 30.3085 59.6552 30.6937 60.1907 31.3657C60.1077 30.52 60.5527 30.0744 61.2164 29.7799C61.239 29.7724 61.2617 29.7573 61.2767 29.7497C62.7098 28.9568 63.5168 27.741 63.7581 26.1175C63.9316 24.9621 64.09 23.8067 64.5048 22.7042C64.7386 22.0774 65.1233 21.7301 65.8172 21.6923C66.5186 21.6546 66.8127 21.8207 66.8354 22.5456C66.8731 23.5953 66.8203 24.6601 66.4055 25.6342C66.0284 26.5328 65.5683 27.3937 65.0403 28.2243C64.4143 29.2136 63.9316 30.2783 63.5545 31.3884C63.3358 32.0227 63.1472 32.6797 63.0869 33.4046C63.4112 33.3593 63.6676 33.3291 63.9241 33.2763C64.188 33.2234 64.4445 33.2461 64.6934 33.3442C65.8926 33.8049 66.7977 34.5374 67.039 35.8891C67.0692 36.0552 67.1295 36.2138 67.1446 36.3799C67.1899 36.8783 67.3859 37.2861 67.7404 37.641C68.1251 38.0261 68.3212 38.5094 68.3664 39.0456C68.4871 40.4351 68.4192 41.8019 67.9743 43.1385C67.7103 43.9314 67.3935 44.7016 67.22 45.5247C66.9711 46.7179 66.6242 47.8808 66.2395 49.0286C66.1792 49.2099 66.0434 49.3987 66.1339 49.663C66.2697 49.5799 66.3753 49.527 66.4733 49.4666C68.3363 48.3868 70.0182 47.0804 71.6247 45.6456C72.8616 44.5355 73.729 43.2518 74.1061 41.6508C74.4908 40.0046 75.1318 38.4339 75.5768 36.8028C75.9087 35.5946 76.1274 34.3939 76.0822 33.1403C76.052 32.1738 76.0746 31.1996 76.2858 30.233ZM70.2746 14.4731C70.7423 14.2088 70.516 13.7557 70.6593 13.4386C70.433 13.718 70.2445 14.02 70.2746 14.4731ZM67.4312 43.2971C67.9516 42.0058 67.9667 40.6465 67.9215 39.2872C67.8988 38.7435 67.7329 38.2602 67.3332 37.8676C66.956 37.5051 66.775 37.052 66.7072 36.5385C66.6393 36.0401 66.496 35.5568 66.2923 35.1037C65.885 34.2127 64.5802 33.533 63.6375 33.7218C63.0567 33.8426 62.4684 33.9484 61.8952 34.1145C61.503 34.2278 61.141 34.2655 60.8091 34.0088C60.6583 33.8955 60.5753 33.8955 60.4622 34.0314C60.334 34.1976 60.0926 34.2353 60.0096 34.4694C59.6853 35.4738 59.0065 36.2591 58.3277 37.0142C56.8268 38.6756 55.5522 40.5257 54.0739 42.2021C53.5987 42.7383 53.2141 43.3348 53.1236 44.0824C53.1236 44.0975 53.0406 44.1051 53.0029 44.1126C52.7616 43.9767 52.9727 43.6671 52.7012 43.3726C52.7163 43.8559 52.5654 44.0598 52.2034 44.1579C51.9847 44.2184 51.8263 44.5053 51.6302 44.679C51.5171 44.7772 51.4643 44.9886 51.2456 44.9131C51.1928 44.7394 51.3361 44.6563 51.404 44.5355C51.4643 44.4374 51.5548 44.3241 51.419 44.2259C51.0495 43.954 51.2757 43.7351 51.4718 43.5236C51.7358 43.2518 52.0224 43.0026 52.3015 42.7383C52.4523 42.5948 52.6107 42.4438 52.754 42.2852C52.8521 42.1795 52.935 42.0511 52.8219 41.9076C52.7314 41.8019 52.6107 41.8472 52.49 41.8623C52.2788 41.9 52.1355 42.1039 51.8112 42.0813C52.3467 41.5074 52.573 41.4319 53.1311 41.7037C53.3197 41.7943 53.4102 41.7792 53.5686 41.666C53.9457 41.3866 54.089 40.9712 54.3152 40.5861C55.1524 39.1664 56.1178 37.8449 57.219 36.614C58.1542 35.5644 59.0065 34.4543 59.8211 33.2989C60.2812 32.642 60.1152 32.0983 59.7457 31.547C59.4138 31.0486 58.9839 30.6333 58.471 30.3085C58.3126 30.2104 58.109 30.1349 58.0109 29.9838C57.7998 29.6742 57.5132 29.6516 57.1964 29.6516C56.2008 29.644 55.1977 29.6289 54.1946 29.644C52.4222 29.6667 50.6799 29.9536 49.0432 30.6257C47.037 31.4488 44.9252 31.9397 42.9491 32.8307C42.6474 32.9667 42.3155 33.0422 41.9912 33.0875C39.2534 33.4877 36.9304 34.847 34.6903 36.3271C33.0386 37.4145 31.5829 38.7435 30.2404 40.2161C29.0789 41.4847 28.2266 42.9195 27.4724 44.4373C27.3442 44.6941 27.2763 44.981 27.2537 45.2604C27.0576 47.4881 26.6428 49.6932 26.4467 51.9284C26.3637 52.8648 26.3411 53.7785 26.4995 54.6998C26.59 55.2435 26.7107 55.7872 26.7182 56.3309C26.7333 57.1163 27.216 57.6449 27.5931 58.2414C28.0607 58.9739 28.7772 59.0419 29.5315 59.0796C29.6748 59.0872 29.8105 59.125 29.9538 59.1476C30.8513 59.2684 31.7413 59.3968 32.6389 59.5101C32.9405 59.5478 33.2498 59.5554 33.5364 59.3742C34.185 58.9739 34.8563 59.1023 35.4898 59.4119C35.8217 59.578 36.1158 59.5931 36.4251 59.3968C36.6815 59.2307 36.9379 59.0494 37.2019 58.8833C37.3301 58.8002 37.4734 58.7323 37.5715 58.8908C37.6469 59.0041 37.5413 59.1098 37.4583 59.2005C37.2999 59.3666 36.9228 59.5025 37.0058 59.6988C37.2245 60.1972 36.7946 60.1973 36.591 60.3483C36.4024 60.4842 36.229 60.4918 36.1083 60.1822C35.9424 59.7593 35.5426 59.7366 35.3013 60.1066C34.8789 60.7561 35.0222 61.5263 34.9091 62.2361C34.9015 62.289 34.9619 62.3721 35.0147 62.4174C35.3314 62.6515 35.2183 62.9007 35.0599 63.165C34.6903 63.7993 34.5772 64.5318 34.8563 65.1661C35.256 66.0723 35.7764 66.9407 36.3798 67.7412C36.5533 67.9677 36.8022 68.1263 37.0586 68.2547C37.481 68.4737 37.9184 68.6625 38.371 68.8059C39.9925 69.3194 41.6367 69.5611 43.3488 69.5611C44.9478 69.5611 46.4713 69.3723 47.927 68.6927C48.4926 68.4284 49.096 68.2849 49.7145 68.2471C50.1896 68.2169 50.6497 68.1112 51.1098 67.9753C52.6861 67.492 54.1644 66.7821 55.6351 66.0496C56.4874 65.6192 57.3095 65.1435 57.7394 64.2146C58.8331 63.2329 59.5797 61.987 60.4169 60.8089C61.42 59.3968 62.5287 58.0602 63.3056 56.4895C63.8109 55.4625 64.3012 54.4355 64.6029 53.3254C65.1384 51.3243 65.6362 49.3156 66.2923 47.3522C66.7222 46.008 66.9033 44.6035 67.4312 43.2971ZM66.0133 25.3699C66.2471 24.3202 66.6091 23.2781 66.2245 22.1907C66.2999 23.263 66.0359 24.3051 66.0133 25.3699ZM64.8065 23.2555C65.342 23.0591 65.4325 22.6891 65.4627 22.2587C65.0026 22.4022 64.9046 22.7722 64.8065 23.2555ZM65.2666 25.4907C65.2741 25.4001 65.2741 25.3095 65.2817 25.1584C65.2138 25.3019 65.1836 25.4001 65.2666 25.4907ZM64.5802 28.0582C64.9423 27.6127 65.1836 27.1596 65.3043 26.6461C65.0026 27.0614 64.3389 27.288 64.5802 28.0582ZM64.4973 25.5587C64.633 25.0754 64.535 24.728 64.5275 24.3882C64.4445 24.7129 64.2257 25.0376 64.4973 25.5587ZM64.2258 26.5857C64.3087 26.5253 64.2786 26.4271 64.2786 26.344C64.2786 26.2836 64.2484 26.261 64.1805 26.2836C64.1579 26.3516 64.1126 26.4271 64.1051 26.5102C64.09 26.6008 64.1579 26.631 64.2258 26.5857ZM64.0975 28.0884C64.2031 27.7486 64.1428 27.4918 63.9769 27.2502C63.6827 27.7561 63.6827 27.7562 64.0975 28.0884ZM63.7129 29.7875C63.8713 29.3797 64.1579 29.1079 64.0975 28.7152C63.9165 28.6774 63.9014 28.7832 63.8637 28.8662C63.8034 28.9946 63.7732 29.1607 63.5771 29.1003C63.4489 29.055 63.4489 28.9191 63.4338 28.8058C63.4187 28.7076 63.4942 28.5717 63.3358 28.5113C63.1397 28.617 63.019 28.7983 62.9285 28.987C62.8455 29.1683 63.0492 29.4628 63.1925 29.3873C63.5847 29.1909 63.5847 29.5232 63.7129 29.7875ZM63.0567 30.2104C63.1397 30.2028 63.1397 30.1198 63.1472 30.0518C63.1321 30.014 63.1171 29.9385 63.0944 29.9385C63.0115 29.9234 62.9737 29.9914 62.9662 30.0669C62.9662 30.1273 62.9738 30.2104 63.0567 30.2104ZM63.0869 31.1241C63.0416 31.109 62.9964 31.0864 62.9511 31.0712C62.6419 31.7509 62.3251 32.4381 61.9857 33.1781C62.5514 33.1479 62.5891 33.163 62.6268 33.012C62.8153 32.3852 63.0416 31.7735 63.0869 31.1241ZM62.4156 30.2028C62.491 29.9461 62.5212 29.7422 62.3704 29.5232C62.0385 29.712 61.6991 29.8706 61.4728 30.2481C61.7896 30.1198 62.0913 29.9159 62.4156 30.2028ZM60.7337 30.9806C60.7714 30.8749 60.8016 30.7692 60.8318 30.6635C60.8318 30.6559 60.7563 30.6106 60.7337 30.6182C60.613 30.6786 60.6055 30.7918 60.613 30.9051C60.613 30.9429 60.6507 30.9806 60.6734 31.0108C60.696 31.0033 60.7262 30.9957 60.7337 30.9806ZM55.8765 66.7293C56.0198 66.6387 56.2159 66.5631 56.231 66.2686C56.05 66.3517 55.9067 66.4121 55.7634 66.4801C54.6396 67.0464 53.4931 67.575 52.3166 68.0357C51.5623 68.3302 50.793 68.6096 49.986 68.6625C49.262 68.7078 48.5831 68.9041 47.9194 69.1684C47.2331 69.4403 46.5543 69.7121 45.8227 69.8556C44.8271 70.0519 43.8315 69.9462 42.836 69.9915C41.0937 70.0746 39.4419 69.6215 37.8128 69.0929C36.7343 68.7455 35.8518 68.1263 35.3616 67.054C35.256 66.8199 35.1353 66.5782 34.9769 66.3744C34.3887 65.6192 34.1699 64.7735 34.3057 63.8295C34.3132 63.7691 34.2906 63.7389 34.2227 63.7389C34.0794 63.8522 34.0719 64.1391 33.8531 64.1316C33.5288 64.124 33.476 64.3279 33.3931 64.5545C33.3026 64.8112 33.2799 65.219 32.8953 65.1133C32.5559 65.0227 32.6539 64.6451 32.669 64.3657C32.6766 64.1769 32.7218 63.9881 32.7294 63.7993C32.7294 63.6558 32.8425 63.4746 32.5559 63.316C32.5031 63.3991 32.4427 63.5124 32.3673 63.603C32.2919 63.6936 32.1863 63.7691 32.0581 63.7162C31.8846 63.6483 31.8922 63.4972 31.9525 63.3613C32.0053 63.2329 31.9978 63.0819 31.8771 63.0593C31.5151 62.9988 31.2662 62.6288 30.8513 62.7119C30.7156 62.7421 30.5647 62.7345 30.429 62.7043C30.1952 62.6515 30.1273 62.44 30.2932 62.2815C30.429 62.1531 30.5949 62.07 30.7457 61.9643C30.6477 61.7226 30.2555 61.768 30.2781 61.4734C30.2932 61.1789 30.6402 61.3149 30.7759 61.1638C30.7684 60.9298 30.61 60.8391 30.429 60.7485C30.2932 60.6806 30.0669 60.6503 30.1574 60.4162C30.2253 60.2501 30.3988 60.3407 30.5421 60.3483C31.334 60.4087 32.1184 60.3709 32.8877 60.1519C32.8425 60.016 32.7746 60.0085 32.7067 60.0009C31.3868 59.8046 30.0745 59.6007 28.7546 59.4194C28.1512 59.3364 27.6836 59.0645 27.3517 58.551C27.2537 58.4 27.2009 58.1961 26.9746 58.1584C26.8841 58.6341 26.869 58.687 26.9897 58.9815C27.7439 60.7863 28.5962 62.5533 29.9538 63.9956C30.5949 64.6753 31.1606 65.4002 31.6584 66.1856C32.2994 67.1975 33.0688 68.081 33.9135 68.9419C35.3767 70.437 37.2094 71.1167 39.1704 71.1922C41.8932 71.2979 44.6385 71.5018 47.3538 70.9732C47.4443 70.9581 47.5423 70.943 47.6404 70.9581C48.206 71.0034 48.7038 70.792 49.2167 70.5805C51.6001 69.5837 53.6892 68.0734 55.8765 66.7293ZM51.8791 43.6822C52.1808 43.5916 53.5761 42.2248 53.6968 41.9454C52.9878 42.406 52.4825 43.1007 51.8791 43.6822ZM45.7774 21.0958C46.2375 20.8012 46.6523 20.5067 47.2934 20.6276C47.037 20.0839 47.0294 19.5855 46.9842 19.0871C46.8861 18.045 46.7278 17.0104 46.5844 15.9683C46.5694 15.8324 46.5166 15.6889 46.4487 15.5605C45.7548 14.2088 45.2193 12.7665 44.2765 11.5507C43.9522 11.1354 43.6882 10.6823 43.4695 10.2065C43.1829 9.57222 42.7832 9.00586 42.2929 8.51502C41.3501 7.57109 40.4903 6.55919 39.6607 5.50953C38.2804 3.75759 36.4628 2.5871 34.268 2.11891C33.197 1.89237 32.1411 1.62807 31.1304 1.18254C30.3837 0.850272 29.622 0.835165 28.83 1.00885C27.7439 1.2505 26.6579 1.5299 25.5265 1.52235C25.0287 1.52235 24.5008 1.5299 24.0482 1.70358C22.9621 2.11891 21.8911 2.59466 20.8805 3.16858C20.5109 3.37247 20.2922 3.71228 20.1187 4.08985C20.0659 4.21068 20.0508 4.3466 20.1715 4.40701C20.5336 4.58069 20.8277 4.90541 21.3406 4.67887C22.2984 4.27109 23.3091 3.96148 24.2971 3.62166C24.5159 3.54615 24.7195 3.39512 25.0815 3.56125C23.9125 4.22578 22.6454 4.43722 21.4763 4.99603C21.6649 5.26033 21.9062 5.31319 22.1174 5.39626C22.5398 5.56239 22.9697 5.69832 23.3845 5.87201C23.6862 6.00038 23.9502 6.00037 24.2745 5.9022C26.0846 5.3585 27.9551 5.16216 29.8331 5.01869C29.984 5.01113 30.1424 4.98848 30.2706 5.13196C30.0368 5.3585 29.7803 5.29809 29.5541 5.32074C28.1588 5.44912 26.7635 5.6077 25.3832 5.9022C25.1645 5.94751 24.8402 5.90976 24.7798 6.17406C24.7195 6.46102 25.0363 6.52897 25.2475 6.63469C25.798 6.92165 26.3109 7.26902 26.7936 7.6617C27.5026 8.23561 28.2644 8.71135 29.0789 9.11158C29.5918 9.36833 30.1122 9.60998 30.5874 9.92714C31.153 10.2972 31.7413 10.4331 32.405 10.4331C33.74 10.4255 35.075 10.4406 36.3949 10.5766C36.5533 10.5917 36.772 10.5388 36.8625 10.8635C35.2711 10.8635 33.7249 10.6294 32.1486 10.7805C32.2014 10.8937 32.2089 10.9466 32.2467 10.9768C33.5666 12.034 34.9694 12.9855 36.3496 13.9521C36.4854 14.0427 36.6212 14.1257 36.8022 14.1257C38.5595 14.1031 40.249 14.5033 41.9083 15.0168C42.1421 15.0923 42.4211 15.1225 42.5871 15.3793C42.308 15.5303 42.0893 15.3717 41.8781 15.3038C40.7618 14.9564 39.6305 14.6921 38.4765 14.5184C38.1145 14.4656 37.745 14.4051 37.2622 14.5411C38.0542 15.1225 38.7632 15.636 39.4646 16.1571C39.8191 16.4214 40.1962 16.58 40.6336 16.6328C41.1993 16.7008 41.7574 16.8141 42.3231 16.9198C42.489 16.95 42.6926 16.9576 42.8284 17.2672C42.0516 17.1388 41.3652 17.0331 40.6789 16.9198C41.3426 17.6598 42.1421 18.0827 43.0547 18.2866C43.5223 18.3923 43.9899 18.4829 44.45 18.5811C44.5782 18.6113 44.7442 18.6189 44.7291 18.8228C44.6838 18.8454 44.6385 18.8832 44.6008 18.8832C43.3187 18.7246 42.0667 18.4829 40.973 17.7127C40.3093 17.2521 39.6381 16.799 38.9743 16.3459H38.9668C37.9863 15.4548 35.8368 14.02 35.339 13.937C35.5879 14.5788 35.8896 15.1678 36.2214 15.7493C36.7267 16.6404 37.3377 17.4635 37.9486 18.2866C38.0466 18.4225 38.2126 18.5509 38.0994 18.7624C37.8505 18.717 37.76 18.5358 37.6469 18.3848C37.3226 17.9468 36.9756 17.5164 36.6815 17.0557C35.9951 15.9759 35.2258 14.9338 35.0071 13.6198C34.9845 13.4612 34.8563 13.3857 34.7356 13.3026C33.2498 12.3058 31.9073 11.1127 30.3611 10.2141C30.0971 10.0631 29.8633 9.85163 29.5164 9.83653C29.4032 10.1612 29.5918 10.4104 29.6974 10.6596C30.2178 11.8905 30.874 13.0534 31.5377 14.2088C31.6584 14.4203 31.8545 14.6166 31.8092 14.9262C31.5 14.8431 31.4245 14.594 31.3114 14.4052C30.7985 13.5443 30.3008 12.6759 29.8709 11.7697C29.5616 11.1052 29.1694 10.4633 29.0865 9.71569C29.0714 9.54201 28.9582 9.46649 28.83 9.40608C27.7666 8.90013 26.8615 8.1601 25.9338 7.45781C25.7377 7.30678 25.5416 7.12555 25.2475 7.118C25.1796 7.4125 25.3455 7.60129 25.4435 7.81273C26.1073 9.23996 26.8917 10.5992 27.8193 11.8754C27.94 12.0416 28.1512 12.2001 28.0758 12.4795C27.7515 12.3814 27.6383 12.1246 27.4875 11.9207C26.5975 10.7049 25.7829 9.42874 25.2399 8.03171C24.8402 6.99716 24.1915 6.39305 23.1583 6.11365C22.7811 6.00793 22.4417 5.77382 21.9364 5.78137C22.2155 6.34773 22.4568 6.83859 22.7057 7.32188C22.9471 7.79007 23.2035 8.24316 23.4449 8.71135C23.6862 9.17954 24.0256 9.60243 24.2142 10.2292C23.8069 10.0782 23.7315 9.81386 23.6032 9.59486C22.9169 8.44704 22.2758 7.27657 21.7478 6.05323C21.4612 5.3887 20.9333 5.17726 20.3676 4.95827C20.0207 4.82234 19.8925 4.93561 19.9075 5.32828C19.9151 5.47176 19.9377 5.61525 19.9679 5.75117C20.1715 6.6347 20.4204 7.50312 20.8202 8.32623C21.5668 9.84408 22.2079 11.3997 23.0753 12.8571C23.8748 14.1937 24.712 15.4775 25.8659 16.5347C26.8841 17.4711 27.9627 18.3319 29.0186 19.223C29.4032 19.5477 29.8407 19.7969 30.3158 19.963C30.9268 20.1669 31.515 20.4161 32.0807 20.7257C32.8877 21.1713 33.7551 21.2694 34.6375 21.1335C35.7161 20.9674 36.7494 21.1864 37.6997 21.5942C38.65 22.0019 39.6456 22.1983 40.6261 22.4701C41.1163 22.606 41.5613 22.5532 41.9912 22.304C41.7574 21.8056 41.7725 21.7829 42.2552 21.7754C42.6851 21.7678 43.115 21.7678 43.5374 21.7603C44.3595 21.7603 45.1137 21.5111 45.7774 21.0958ZM42.9491 24.9621C43.5751 24.0257 44.1257 23.0289 44.7819 22.0699C44.269 22.2134 43.7787 22.2511 43.2809 22.236C43.0924 22.2285 42.9868 22.372 42.8435 22.455C42.308 22.7873 41.7046 23.0742 41.1012 22.9912C39.9548 22.8326 38.8159 22.5985 37.7374 22.1077C36.7795 21.6772 35.7689 21.4356 34.6979 21.5942C33.7626 21.7301 32.85 21.647 31.9902 21.1939C31.7489 21.0655 31.5151 20.907 31.1153 20.8541C31.4849 21.428 31.8997 21.8358 32.3598 22.1983C32.9707 22.6816 33.4383 23.2706 33.7702 23.9653C34.2378 24.9394 34.8261 25.8305 35.5124 26.6536C35.9423 27.1671 36.2817 27.7411 36.5759 28.3376C37.3452 29.9234 38.1296 31.4941 38.8989 33.0799C39.0271 33.3367 39.178 33.3518 39.4118 33.2838C39.7587 33.1857 39.7889 32.8987 39.8417 32.6193C40.1057 31.2449 40.2716 29.8328 40.9127 28.5642C41.5462 27.3408 42.1798 26.1099 42.9491 24.9621ZM37.6922 34.0465C38.6953 33.5104 38.7104 33.4877 38.1598 32.4607C37.4961 31.2223 36.9077 29.9461 36.3044 28.6774C35.9725 27.9827 35.5954 27.3333 35.1052 26.7367C34.6375 26.1628 34.1775 25.5738 33.8682 24.9092C33.3403 23.7916 32.6766 22.8099 31.681 22.0472C31.1907 21.6697 30.9418 21.0429 30.527 20.62C30.1047 20.182 29.3731 20.099 28.8677 19.6836C26.6277 17.8335 24.3047 16.0665 22.8943 13.4235C22.8717 13.3782 22.8415 13.3404 22.8189 13.3026C22.7284 13.1441 22.5926 13.0685 22.4116 13.0761C21.8685 13.0988 21.318 13.0232 20.7825 13.1894C20.3148 13.3328 19.9754 13.5518 19.9151 14.0804C19.8698 14.4429 19.6209 14.5939 19.2815 14.6543C18.8139 14.7374 18.3388 14.7827 17.8636 14.7752C17.577 14.7752 17.2828 14.7223 17.0189 14.8583C15.9102 15.402 14.7411 15.8173 13.5947 16.2704C13.4212 16.3383 13.2704 16.4667 13.112 16.5724C11.3999 17.7958 9.73306 19.0644 8.69977 20.9674C8.60172 21.1562 8.45843 21.3223 8.33021 21.496C8.01343 21.9189 7.77209 22.3871 7.62124 22.8854C6.89719 25.2037 5.79601 27.3257 4.38561 29.2967C4.21968 29.5307 4.08393 29.7799 3.92555 30.0216C3.12607 31.2525 2.69615 32.642 2.18328 34.0012C1.21787 36.5536 0.727629 39.174 0.750256 41.9C0.757798 43.0177 0.787974 44.1353 0.984072 45.2453C1.22542 46.6197 1.81371 47.8657 2.40955 49.1193C3.1864 50.7579 4.22723 52.1247 5.82619 53.0309C6.15805 53.2197 6.58041 53.3783 6.52762 53.9144C6.52008 53.9975 6.66338 54.0957 6.75389 54.1787C7.10083 54.5035 7.46285 54.8357 7.9003 55.0169C8.92605 55.4323 9.83866 56.0213 10.7286 56.6632C10.9775 56.8444 11.2491 56.9954 11.5206 57.1465C12.5463 57.7053 13.557 58.2867 14.7411 58.4529C15.3294 58.5359 15.9252 58.5284 16.5135 58.5888C17.6977 58.7096 18.8743 58.7021 20.0735 58.5737C21.2274 58.4453 22.3889 58.2867 23.558 58.468C24.101 58.551 24.6441 58.5661 25.1947 58.5359C25.6397 58.5133 25.9338 58.249 26.2355 57.9696C26.4768 57.7355 26.2958 57.4787 26.2807 57.2295C26.2732 57.1389 26.2883 57.0407 26.2883 56.9426C26.2657 56.2101 26.326 55.4776 26.1601 54.7526C25.9262 53.6954 26.0168 52.6231 26.1073 51.5508C26.2883 49.4138 26.6805 47.2993 26.854 45.1623C26.8841 44.7771 27.0199 44.4222 27.1783 44.0749C28.2643 41.6282 29.9991 39.6799 31.9525 37.9053C33.6797 36.3422 35.6482 35.1339 37.6922 34.0465ZM34.9694 59.8046C34.3358 59.646 34.2152 59.6687 33.6043 60.0689C34.0643 60.0538 34.4867 60.0009 34.9694 59.8046ZM33.8909 61.5112C33.921 61.5037 33.9286 61.4357 33.9437 61.4055C33.9437 61.3224 33.8984 61.2696 33.823 61.2847C33.8004 61.2922 33.7777 61.3602 33.7853 61.3979C33.7853 61.4583 33.8003 61.5414 33.8909 61.5112ZM33.8531 62.9686C33.8305 62.7194 33.9663 62.4702 33.8154 62.2211C33.823 62.4702 33.7249 62.7194 33.8531 62.9686ZM22.306 12.6155C22.2984 12.2756 22.1476 12.102 22.0571 11.9132C20.9785 9.64019 19.8472 7.39739 19.3117 4.91295C19.274 4.73927 19.1609 4.67886 19.01 4.67131C18.8215 4.65621 18.6254 4.64111 18.4368 4.65621C17.2904 4.75438 16.1892 5.04134 15.0881 5.33584C14.8241 5.40381 14.6808 5.5775 14.7939 5.79649C15.0805 6.34775 15.0353 6.99717 15.3369 7.54843C15.8046 8.37909 16.1289 9.2777 16.3702 10.199C16.4608 10.5463 16.5814 10.8862 16.7398 11.2033C17.1094 11.9811 17.6373 12.6004 18.5499 12.774C18.731 12.8118 18.9195 12.8722 19.0854 12.9628C19.3343 13.0912 19.5757 13.1139 19.8397 13.0232C20.6241 12.7514 21.4311 12.5701 22.306 12.6155ZM19.1232 14.2088C19.2891 14.1635 19.4626 14.1257 19.4249 13.8992C19.3796 13.6425 19.2061 13.7255 19.0402 13.7708C18.9271 13.8086 18.7687 13.7784 18.7008 13.8463C18.3916 14.1333 18.0597 14.1937 17.675 14.1937C17.6147 14.1937 17.5544 14.1937 17.4865 14.1862C17.1471 14.1711 16.9434 14.1333 16.8303 13.8237C16.7323 13.5594 16.5286 13.4914 16.2269 13.4839C16.3627 14.3372 16.3627 14.3296 17.1471 14.307C17.3281 14.2994 17.5016 14.2994 17.6826 14.2994C17.9089 14.2994 18.1351 14.2994 18.3614 14.2994C18.6178 14.2994 18.8743 14.2843 19.1232 14.2088ZM18.0144 13.7331C18.2181 13.6576 18.3689 13.5141 18.565 13.3404C18.3991 13.1894 18.1804 13.061 18.022 13.1516C17.8183 13.2649 17.8862 13.5065 18.0144 13.7331ZM17.2602 13.6349C17.4639 13.0081 17.4639 13.0081 17.2301 12.774C17.1395 13.0308 17.1622 13.28 17.2602 13.6349ZM16.6116 12.7363C16.7247 12.3814 16.8454 12.1775 16.5286 11.883C16.4683 12.185 16.4532 12.3965 16.6116 12.7363ZM15.8875 11.6111C16.1666 10.9692 16.0233 10.3727 15.7065 9.79121C15.6613 10.4029 15.6688 11.0221 15.8875 11.6111ZM15.2238 8.80952C15.352 8.40174 15.2012 8.16765 14.9221 7.85049C14.6657 8.65094 14.6732 9.37588 14.8467 10.1084C14.8995 10.1159 14.9523 10.1159 14.9975 10.1235C15.073 9.68548 15.088 9.2324 15.2238 8.80952ZM14.2282 8.31111C14.2659 7.64659 14.5375 6.99717 14.3791 6.31753C14.1453 6.96696 14.1377 7.63903 14.2282 8.31111ZM14.1528 4.60335C14.2132 4.34661 14.1453 4.08231 13.9643 3.87087C13.8285 3.71229 13.655 3.77268 13.5268 3.89351C13.391 4.02188 13.5193 4.0974 13.6098 4.15781C13.8964 4.33149 13.8436 4.5807 13.7833 4.845C13.6399 5.43401 13.474 6.02303 13.4137 6.80838C13.9039 6.03813 13.9869 5.30564 14.1528 4.60335ZM13.655 8.01661C13.7305 7.81273 13.8134 7.65414 13.6173 7.51821C13.4514 7.66924 13.4212 7.81273 13.655 8.01661ZM13.029 4.79968C13.0818 4.64865 13.1874 4.50519 13.1195 4.2862C12.9083 4.33151 12.8178 4.48252 12.7123 4.5958C12.6217 4.68641 12.5689 4.79969 12.7424 4.86766C12.848 4.91297 12.9687 4.95071 13.029 4.79968ZM12.1315 5.63034C12.1692 5.56993 12.1692 5.50198 12.0787 5.41892C12.041 5.47178 11.9957 5.51708 11.9656 5.57749C11.9354 5.6379 11.9203 5.72097 11.9957 5.75117C12.0259 5.75873 12.1013 5.6832 12.1315 5.63034Z" fill="black"/>
<path d="M76.3037 28.7621C76.3339 29.2915 76.3415 29.8208 76.2358 30.3351C76.0321 31.303 76.0019 32.2785 76.0396 33.254C76.0849 34.5093 75.866 35.7042 75.5339 36.9217C75.0887 38.5551 74.4472 40.128 74.0623 41.7766C73.6849 43.3798 72.817 44.6653 71.5793 45.7769C69.9717 47.2137 68.2887 48.522 66.4246 49.6034C66.3264 49.6639 66.2208 49.7168 66.0849 49.8C66.0019 49.5353 66.1302 49.3463 66.1906 49.1648C66.5755 48.0078 66.9151 46.8432 67.1717 45.6559C67.3453 44.8392 67.6623 44.0603 67.9264 43.2663C68.3717 41.9278 68.4397 40.5591 68.3189 39.1676C68.2736 38.6232 68.0774 38.1392 67.6925 37.7611C67.3378 37.4057 67.1415 36.9897 67.0962 36.4982C67.0812 36.3318 67.0208 36.173 66.9906 36.0067C66.7566 34.653 65.851 33.9195 64.6434 33.4582C64.3944 33.3599 64.1378 33.3372 63.8736 33.3902C63.617 33.4431 63.3604 33.4733 63.0359 33.5187C63.0887 32.7927 63.285 32.1348 63.5038 31.4996C63.8812 30.3955 64.3642 29.3217 64.9906 28.3311C65.5114 27.4993 65.9717 26.6372 66.3566 25.7373C66.7717 24.7618 66.8246 23.6955 66.7868 22.6444C66.7566 21.9184 66.4698 21.752 65.768 21.7898C65.0812 21.8277 64.6963 22.1755 64.4548 22.8032C64.0397 23.9072 63.8812 25.0642 63.7076 26.2212C63.4661 27.8395 62.6586 29.0646 61.2246 29.8586C61.202 29.8662 61.1869 29.8813 61.1642 29.8889C60.5001 30.1838 60.0548 30.6224 60.1378 31.4769C59.602 30.8039 58.8472 30.4107 58.3567 29.7452C58.1152 29.4125 57.7605 29.3293 57.4133 29.3293C55.3982 29.3217 53.3756 29.1629 51.368 29.6091C50.1529 29.8813 48.9756 30.2065 47.8284 30.6905C46.9303 31.0686 46.0171 31.4013 45.0586 31.6206C44.6662 31.7114 44.2888 31.8702 43.9266 32.0517C42.7568 32.6339 41.5039 32.8759 40.1832 33.0952C40.1605 32.9591 40.1304 32.8835 40.1379 32.823C40.4247 31.3484 40.636 29.8662 41.3454 28.505C42.3039 26.6599 43.4285 24.9206 44.5605 23.1813C45.0058 22.5007 45.6473 22.0091 46.2058 21.4344C46.4775 21.1546 46.7416 21.1319 47.1039 21.3059C47.5567 21.5252 47.7605 21.3437 47.7303 20.8446C47.7152 20.5723 47.4133 20.285 47.6549 20.0354C47.8435 19.8388 48.1379 19.7405 48.3869 19.5968C48.4473 19.559 48.5152 19.5363 48.5756 19.4909C50.6812 18.0617 53.0661 17.4945 55.5416 17.1391C57.285 16.8896 59.0284 16.6778 60.7793 16.4963C61.3453 16.4358 61.9265 16.4434 62.4925 16.4737C63.5566 16.5342 64.5604 16.3149 65.5566 15.9292C67.0359 15.3469 68.6132 15.2713 70.1755 15.1503C70.5981 15.12 70.8396 15.2788 70.9981 15.6569C71.3227 16.4132 71.7981 17.0559 72.4019 17.6231C72.8774 18.0693 73.1566 18.6591 73.3679 19.2792C73.6019 19.9598 73.8057 20.6404 74.0245 21.321C74.2811 22.1226 74.6057 22.8863 75.0509 23.5972C75.383 24.1265 75.617 24.7013 75.7151 25.3214C75.9038 26.4557 76.2358 27.5824 76.3037 28.7621ZM73.4887 29.8738C73.5038 29.3217 73.3906 28.7924 73.2019 28.4748C72.9 27.953 72.5679 27.8849 72.1 28.2555C71.7755 28.5201 71.5792 28.8604 71.4736 29.2688C71.3377 29.8284 71.217 30.388 71.0208 30.9249C70.5906 32.1122 69.9793 33.1709 68.7868 33.7683C68.5906 33.8666 68.5981 34.0178 68.6585 34.1918C68.7793 34.5472 69.0962 34.7513 69.4962 34.7135C69.8283 34.6833 70.1453 34.5699 70.4321 34.3959C71.9415 33.496 72.8094 32.1046 73.383 30.4939C73.4736 30.2746 73.466 30.025 73.4887 29.8738Z" fill="#BDCB64"/>
<path d="M73.2732 28.3297C73.456 28.6497 73.5778 29.1831 73.5626 29.7393C73.5398 29.8917 73.5474 30.1431 73.4636 30.364C72.8847 31.987 72.0011 33.3813 70.4853 34.2956C70.1882 34.4708 69.8759 34.5851 69.5407 34.6156C69.137 34.6537 68.8171 34.4404 68.6953 34.0899C68.6343 33.9146 68.6267 33.7699 68.8247 33.6632C70.0206 33.0613 70.6376 31.9946 71.0794 30.7984C71.2775 30.2574 71.407 29.6936 71.5365 29.1297C71.6355 28.7183 71.8335 28.3754 72.1687 28.1087C72.6257 27.7354 72.9609 27.804 73.2732 28.3297ZM73.0294 30.3336C73.1208 30.0898 73.1665 29.8231 73.1437 29.4193C73.1437 29.4116 73.136 29.2593 73.1056 29.1221C73.0751 28.9773 73.0446 28.8402 72.9913 28.7031C72.7933 28.223 72.5724 28.1925 72.2068 28.5735C71.9402 28.8554 71.8716 29.2059 71.7954 29.5564C71.4374 31.1946 70.7747 32.6575 69.4265 33.7318C69.3884 33.7623 69.3427 33.7927 69.3199 33.8308C69.2894 33.8918 69.2437 33.9603 69.2513 34.0213C69.2665 34.128 69.3656 34.1661 69.4646 34.1737C69.7693 34.1965 70.0206 34.0594 70.272 33.907C71.6812 33.0841 72.4734 31.7965 73.0294 30.3336Z" fill="black"/>
<path d="M73.1006 29.4257C73.1156 29.8271 73.0781 30.0845 72.988 30.3345C72.4399 31.7885 71.6515 33.0759 70.2775 33.8938C70.0297 34.0377 69.7819 34.174 69.4816 34.1589C69.384 34.1513 69.2864 34.1134 69.2713 34.0074C69.2638 33.9468 69.3089 33.8787 69.3389 33.8181C69.3614 33.7802 69.4065 33.7499 69.444 33.7196C70.7655 32.6518 71.4262 31.1978 71.7791 29.5696C71.8542 29.2212 71.9218 28.8653 72.1846 28.5927C72.545 28.214 72.7702 28.2443 72.958 28.7214C73.0105 28.8577 73.0481 28.994 73.0706 29.1379C73.0856 29.2667 73.0931 29.4181 73.1006 29.4257Z" fill="#DAE59A"/>
<path d="M70.8038 13.46C70.6338 13.789 70.9022 14.2591 70.3475 14.5333C70.3117 14.0633 70.5354 13.7499 70.8038 13.46Z" fill="#BDCB64"/>
<path d="M67.8738 39.2025C67.9191 40.5674 67.904 41.9173 67.3838 43.2068C66.8561 44.5189 66.6751 45.9215 66.2303 47.2487C65.5744 49.2169 65.0844 51.2228 64.5416 53.2136C64.24 54.3221 63.75 55.3477 63.2448 56.3733C62.4683 57.9493 61.3601 59.2765 60.3574 60.6867C59.5205 61.8631 58.7742 63.1149 57.681 64.0877C57.2513 65.0152 56.4371 65.4903 55.5776 65.9201C54.1075 66.6591 52.6298 67.3604 51.0542 67.8431C50.6018 67.9788 50.1419 68.0844 49.6594 68.1145C49.0412 68.1522 48.4306 68.2955 47.8727 68.5595C46.4176 69.2381 44.8947 69.4267 43.2964 69.4267C41.5851 69.4267 39.9416 69.1854 38.3207 68.6726C37.8683 68.5293 37.431 68.3408 37.0088 68.1221C36.7525 67.9863 36.5037 67.8355 36.3303 67.6093C35.7272 66.8099 35.207 65.9427 34.8074 65.0378C34.5285 64.4044 34.6416 63.6729 35.011 63.0395C35.1693 62.7755 35.2824 62.5267 34.9658 62.2929C34.913 62.2552 34.8527 62.1723 34.8602 62.1119C34.9733 61.4031 34.83 60.6339 35.2522 59.9854C35.4935 59.6159 35.8931 59.6385 36.0589 60.0608C36.1796 60.37 36.3529 60.3624 36.5414 60.2267C36.745 60.0759 37.1747 60.0759 36.9561 59.5782C36.8731 59.3821 37.2501 59.2539 37.4084 59.0805C37.4913 58.99 37.5969 58.8919 37.5215 58.7713C37.4235 58.6129 37.2727 58.6883 37.1521 58.7637C36.8958 58.9296 36.6394 59.1031 36.3756 59.2765C36.0665 59.4801 35.7724 59.4575 35.4407 59.2916C34.8074 58.9824 34.144 58.8467 33.4881 59.2539C33.2016 59.4349 32.8925 59.4274 32.5909 59.3896C31.6938 59.2841 30.8042 59.1483 29.907 59.0277C29.7638 59.0051 29.6281 58.9674 29.4848 58.9598C28.7385 58.9146 28.0147 58.8467 27.5473 58.1228C27.1628 57.527 26.6803 56.9992 26.6728 56.2149C26.6652 55.672 26.5521 55.129 26.4541 54.5861C26.2958 53.6661 26.3184 52.7461 26.4014 51.8185C26.5974 49.5864 27.012 47.392 27.208 45.1599C27.2307 44.8733 27.2985 44.5943 27.4267 44.3379C28.1806 42.8222 29.0325 41.3894 30.1935 40.1225C31.5355 38.652 32.9905 37.3248 34.6416 36.2389C36.8882 34.7609 39.2103 33.4035 41.9394 33.0039C42.2636 32.9586 42.6028 32.8832 42.8969 32.7475C44.8721 31.8576 46.9906 31.3675 48.9885 30.5455C50.6244 29.8744 52.3659 29.5878 54.1376 29.5652C55.1328 29.5501 56.1355 29.5727 57.1382 29.5727C57.4548 29.5727 57.7413 29.5953 57.9524 29.9045C58.0504 30.0478 58.254 30.1232 58.4123 30.2288C58.925 30.553 59.3547 30.9678 59.6864 31.4655C60.0558 32.016 60.2217 32.5665 59.7618 33.215C58.9476 34.3612 58.0957 35.4773 57.1608 36.5255C56.0601 37.7547 55.0951 39.0743 54.2583 40.492C54.0321 40.8766 53.8964 41.2914 53.5119 41.5704C53.3611 41.6835 53.2631 41.6986 53.0746 41.6081C52.5167 41.3366 52.2906 41.412 51.7553 41.9851C52.0719 42.0077 52.2227 41.8042 52.4338 41.7664C52.5544 41.7438 52.6751 41.6986 52.7655 41.8117C52.8861 41.955 52.7957 42.0832 52.6977 42.1887C52.5544 42.3471 52.3961 42.4979 52.2453 42.6412C51.9664 42.9051 51.6799 43.154 51.416 43.4255C51.2125 43.6291 50.9863 43.8553 51.3633 44.1268C51.499 44.2248 51.4085 44.3304 51.3482 44.4359C51.2803 44.5491 51.1371 44.632 51.1899 44.813C51.4085 44.8884 51.4613 44.6773 51.5743 44.5792C51.7704 44.4058 51.9211 44.1192 52.1473 44.0589C52.5167 43.9533 52.66 43.7497 52.6449 43.2746C52.9163 43.5687 52.7128 43.8779 52.9465 44.0137C52.9842 44.0061 53.0671 43.9986 53.0671 43.9835C53.1576 43.2445 53.5345 42.6487 54.017 42.1058C55.4947 40.4317 56.7688 38.5842 58.2691 36.9252C58.9551 36.1711 59.6261 35.3868 59.9503 34.3839C60.0257 34.1501 60.2669 34.1048 60.4026 33.9465C60.5157 33.8107 60.5986 33.8107 60.7494 33.9239C61.0811 34.1802 61.443 34.1425 61.835 34.0294C62.408 33.8711 62.9885 33.758 63.5766 33.6373C64.5265 33.4412 65.8232 34.1275 66.2303 35.0173C66.4414 35.4773 66.5771 35.9524 66.645 36.4501C66.7128 36.9629 66.8938 37.4078 67.2707 37.7773C67.6854 38.177 67.8588 38.6596 67.8738 39.2025ZM52.8862 48.7343C53.2028 48.5005 53.2706 48.1687 53.248 47.7841C53.2028 47.1733 52.9314 46.7359 52.3433 46.4946C52.5997 46.2231 52.8183 45.9969 53.0219 45.7707C53.1199 45.6576 53.1953 45.5218 53.0897 45.3861C52.954 45.2127 52.7881 45.2956 52.6524 45.3937C52.3886 45.5897 52.1247 45.8009 51.8684 46.012C51.6874 46.1628 51.4763 46.3061 51.5593 46.6002C51.6422 46.8641 51.8458 46.9772 52.0945 46.9923C52.4866 47.015 52.6826 47.2261 52.7655 47.6031C52.8484 47.9877 52.8183 48.2969 52.4715 48.5458C52.2001 48.7418 51.989 48.9982 51.8307 49.2998C51.0692 50.808 49.8554 51.9316 48.5587 52.9271C47.5032 53.7415 46.4176 54.5107 45.4149 55.3854C45.038 55.7172 44.6309 55.8982 44.1182 55.8228C43.7412 55.77 43.3568 55.8077 42.9873 55.9057C42.5802 56.0113 42.1656 56.1169 41.7811 56.2149C41.5097 55.4834 41.7359 55.0084 42.4445 54.752C42.7159 54.6539 42.927 54.4428 43.0778 54.1939C43.4397 53.5907 43.9448 53.1307 44.4876 52.6933C45.0153 52.271 45.4601 51.7733 45.7165 51.1474C46.101 50.1972 46.7719 49.4733 47.6766 49.0661C49.5916 48.2064 49.2674 48.131 50.2475 46.3966C50.3078 46.291 50.3681 46.193 50.4209 46.0874C50.4963 45.9215 50.6395 45.7481 50.5038 45.5595C50.3681 45.371 50.1645 45.4238 49.9761 45.4615C48.7773 45.7179 47.6465 46.11 46.689 46.9169C45.5582 47.8671 44.5479 48.9379 43.5075 49.9861C42.5425 50.9589 41.9922 52.1654 41.5248 53.4172C41.4569 53.5982 41.4041 53.7792 41.4569 53.9752C41.4946 54.1034 41.5926 54.1864 41.7208 54.1713C41.9092 54.1562 41.864 54.0205 41.8112 53.9074C41.7283 53.7339 41.8037 53.5756 41.864 53.4248C42.2108 52.5349 42.5501 51.63 43.1683 50.8985C44.4574 49.3979 45.8446 47.9953 47.4505 46.8264C48.1742 46.3061 49.0111 46.0572 50.0062 45.8763C49.7197 46.4343 49.4785 46.8868 49.2523 47.3468C49.0563 47.754 48.7773 48.0481 48.3552 48.2215C48.0913 48.3271 47.835 48.4628 47.5862 48.5986C46.5835 49.149 45.7542 49.873 45.3094 50.9664C45.0606 51.5772 44.6158 52.0372 44.1031 52.4444C43.6357 52.8139 43.1833 53.1985 42.8667 53.7189C42.6481 54.0808 42.3616 54.3372 41.9846 54.5182C41.4192 54.7821 41.0423 55.1592 41.276 55.8605C41.291 55.9057 41.2307 55.9887 41.2081 56.0415C41.1704 56.049 41.1478 56.0641 41.1252 56.0565C41.08 56.049 41.0347 56.0339 40.9895 56.0188C40.5748 55.868 40.3562 56.0415 40.4316 56.4487C40.4919 56.7805 40.7331 56.871 41.0196 56.8182C41.389 56.7428 41.7585 56.6221 42.1203 56.5241C42.7385 56.3506 43.3643 56.0867 44.0051 56.1923C44.7816 56.3129 45.332 56.0038 45.8673 55.5287C46.5458 54.9329 47.2092 54.3071 47.9858 53.8395C49.3126 53.0402 50.3304 51.909 51.3633 50.793C51.6045 50.5366 51.8156 50.2349 51.9815 49.9258C52.2227 49.4658 52.479 49.051 52.8862 48.7343ZM50.7827 43.7648C51.0541 43.5838 51.3331 43.3877 51.1899 42.9655C50.9335 43.3877 50.534 43.5989 50.1495 43.8327C49.3729 44.2927 48.5512 44.6773 47.7068 45.0091C46.9906 45.2881 46.3347 45.6727 45.7919 46.2232C45.4225 46.5927 45.0681 46.9772 44.7213 47.3694C43.7563 48.493 42.6858 49.5035 41.4871 50.3782C40.8915 50.8231 40.3788 51.351 39.8963 51.909C39.1952 52.731 38.7956 53.6736 38.6901 54.752C38.6448 55.227 38.6147 55.7021 38.5091 56.1621C38.4187 56.5995 38.4639 57.0143 38.5167 57.4365C38.5393 57.5949 38.5619 57.8136 38.773 57.806C39.0444 57.791 39.0067 57.5497 39.0067 57.3687C39.0067 56.7729 38.9841 56.1772 38.9765 55.589C38.9539 53.9753 39.542 52.6179 40.7105 51.5094C41.0046 51.2303 41.291 50.9438 41.6152 50.7025C42.9195 49.7297 44.0956 48.6287 45.1284 47.3694C45.9954 46.3212 47.0207 45.5143 48.325 45.0618C49.1995 44.7527 50.0062 44.2851 50.7827 43.7648ZM49.3729 43.6366C49.4483 43.6291 49.486 43.5536 49.4785 43.4782C49.471 43.4405 49.4333 43.3878 49.3956 43.3727C49.3126 43.335 49.2146 43.2973 49.1241 43.2973C47.6465 43.2746 46.4101 43.8704 45.5431 45.0166C45.1586 45.5218 44.7515 45.9366 44.2388 46.2835C43.7488 46.6153 43.2512 46.9471 42.7762 47.3015C42.2183 47.7087 41.7057 48.1687 41.2986 48.7343C41.1553 48.9303 40.9593 49.1264 41.0347 49.413C41.1855 49.4205 41.2458 49.3451 41.291 49.2697C41.7585 48.4704 42.4521 47.8897 43.1834 47.3618C43.7413 46.9622 44.3218 46.5927 44.8947 46.2005C45.1737 46.012 45.43 45.8084 45.6109 45.5218C46.3498 44.353 47.4429 43.7799 48.8075 43.6894C48.996 43.6668 49.192 43.6592 49.3729 43.6366ZM46.3045 56.1772C46.3347 56.132 46.3271 56.0339 46.3045 55.9887C46.2668 55.9208 46.1839 55.9133 46.1161 55.9585C46.0557 55.9962 46.003 56.0415 45.9502 56.0867C44.4273 57.3988 42.633 58.0926 40.6653 58.3716C40.507 58.3942 40.326 58.349 40.1828 58.6054C40.5221 58.7638 40.8236 58.6959 41.1176 58.6506C42.6405 58.3942 44.0428 57.8362 45.3471 57.0142C45.6034 56.8483 45.8371 56.6447 46.0784 56.4487C46.1688 56.3733 46.2518 56.2828 46.3045 56.1772Z" fill="#EEE591"/>
<path d="M66.2213 22.2C66.5319 23.3014 66.2396 24.3569 66.0508 25.42C66.0691 24.3416 66.2822 23.2861 66.2213 22.2Z" fill="#BDCB64"/>
<path d="M65.4376 22.2C65.4094 22.6554 65.3248 23.0619 64.8242 23.2733C64.9159 22.7448 65.0075 22.3464 65.4376 22.2Z" fill="#BDCB64"/>
<path d="M65.2842 26.6467C65.165 27.1485 64.9265 27.5913 64.5688 28.0267C64.3303 27.2739 64.9861 27.0526 65.2842 26.6467Z" fill="#BDCB64"/>
<path d="M64.4865 24.3467C64.4922 24.7028 64.5661 25.0669 64.4637 25.5733C64.2589 25.0352 64.4239 24.6949 64.4865 24.3467Z" fill="#BDCB64"/>
<path d="M63.9181 27.26C64.0518 27.481 64.1004 27.7159 64.0153 28.0267C63.6811 27.7228 63.6811 27.7228 63.9181 27.26Z" fill="#BDCB64"/>
<path d="M64.2016 28.6887C64.2635 29.0639 63.9697 29.3237 63.8073 29.7133C63.6758 29.4608 63.6681 29.1433 63.2738 29.3237C63.1268 29.3958 62.9181 29.1144 63.0031 28.9413C63.0959 28.7609 63.2119 28.5877 63.4207 28.4867C63.5831 28.5444 63.5057 28.6743 63.5212 28.7681C63.5367 28.8835 63.5367 29.0134 63.6681 29.0495C63.8692 29.1072 63.9001 28.9485 63.9619 28.8258C64.0006 28.7609 64.0161 28.6526 64.2016 28.6887Z" fill="#BDCB64"/>
<path d="M62.8512 31.0933C62.8953 31.1087 62.9394 31.1318 62.9835 31.1472C62.9394 31.8089 62.7188 32.4398 62.535 33.0707C62.4909 33.2169 62.4542 33.2092 61.9102 33.24C62.241 32.4783 62.5497 31.7858 62.8512 31.0933Z" fill="#BDCB64"/>
<path d="M62.4086 29.56C62.5697 29.7916 62.5375 29.9992 62.457 30.2788C62.1187 29.9753 61.7965 30.1829 61.4502 30.3267C61.6918 29.9274 62.0543 29.7597 62.4086 29.56Z" fill="#BDCB64"/>
<path d="M56.2369 66.2205C56.2218 66.5155 56.026 66.5912 55.883 66.682C53.6993 68.0286 51.6136 69.5417 49.2267 70.5252C48.7147 70.7371 48.2178 70.9489 47.653 70.9035C47.5627 70.8959 47.4648 70.9035 47.3669 70.9186C44.6562 71.4482 41.9154 71.2439 39.1972 71.138C37.2395 71.0624 35.4098 70.3739 33.949 68.8835C33.1132 68.0211 32.3377 67.1359 31.6976 66.1221C31.2007 65.3353 30.636 64.609 29.996 63.9281C28.6406 62.4831 27.7898 60.7204 27.0368 58.9047C26.9163 58.6096 26.9314 58.5642 27.0217 58.08C27.2476 58.1178 27.3003 58.3221 27.3982 58.4734C27.7295 58.9879 28.1963 59.2602 28.7987 59.3435C30.1164 59.525 31.4266 59.7293 32.7443 59.926C32.812 59.9336 32.8798 59.9487 32.925 60.0773C32.157 60.2967 31.3739 60.3345 30.5833 60.274C30.4477 60.2664 30.2745 60.1757 30.1992 60.3421C30.1014 60.5766 30.3272 60.6069 30.4703 60.675C30.651 60.7582 30.8091 60.8565 30.8167 61.0911C30.6887 61.2424 30.3423 61.1062 30.3197 61.4013C30.2971 61.6963 30.6887 61.6509 30.7866 61.893C30.636 61.9989 30.4628 62.0822 30.3348 62.2108C30.1691 62.3696 30.2369 62.5815 30.4703 62.6344C30.6058 62.6647 30.7564 62.6647 30.892 62.642C31.2986 62.5588 31.5546 62.9295 31.916 62.99C32.0365 63.0052 32.0365 63.164 31.9913 63.2926C31.9311 63.4364 31.9235 63.5801 32.0967 63.6482C32.2247 63.7012 32.3301 63.6255 32.4054 63.5347C32.4807 63.4439 32.541 63.338 32.5937 63.2472C32.8798 63.4061 32.7669 63.5877 32.7669 63.7314C32.7593 63.9206 32.7142 64.1097 32.7066 64.2989C32.6991 64.5788 32.6012 64.957 32.9325 65.0478C33.3165 65.1537 33.3391 64.7452 33.4295 64.488C33.5123 64.261 33.565 64.0567 33.8888 64.0643C34.1071 64.0719 34.1147 63.7844 34.2577 63.6709C34.3255 63.6709 34.3481 63.7012 34.3406 63.7617C34.205 64.7074 34.4234 65.5547 35.0107 66.3113C35.1688 66.5155 35.2893 66.7576 35.3947 66.9921C35.8842 68.0664 36.7576 68.6868 37.8419 69.0348C39.4683 69.5644 41.1173 70.0183 42.8566 69.9351C43.8505 69.8897 44.8445 69.9956 45.8384 69.7989C46.5688 69.6552 47.2464 69.3753 47.9316 69.1105C48.6018 68.8457 49.2719 68.6566 49.9948 68.6036C50.808 68.5506 51.5685 68.2707 52.3214 67.9757C53.4961 67.5142 54.633 66.9846 55.7625 66.4172C55.9131 66.3642 56.0562 66.3037 56.2369 66.2205Z" fill="#BDCB64"/>
<path d="M53.3194 47.8564C53.3421 48.2393 53.274 48.5697 52.9562 48.8025C52.5401 49.1103 52.2829 49.5233 52.0484 49.9738C51.8819 50.2817 51.6701 50.582 51.428 50.8373C50.3915 51.9486 49.3702 53.0749 48.0387 53.8708C47.2595 54.3363 46.5937 54.952 45.9128 55.5527C45.3681 56.0257 44.8158 56.3336 44.0441 56.2135C43.4011 56.1083 42.7731 56.3711 42.1528 56.5438C41.7821 56.6489 41.4189 56.7616 41.0482 56.8367C40.7607 56.8967 40.5262 56.7991 40.4581 56.4687C40.3825 56.0558 40.6019 55.8906 41.018 56.0408C41.0634 56.0558 41.1087 56.0708 41.1541 56.0783C41.1768 56.0858 41.1995 56.0708 41.2373 56.0633C41.26 56.0032 41.3281 55.9281 41.3054 55.8831C41.0709 55.1848 41.4492 54.8093 42.0166 54.5465C42.3949 54.3663 42.6823 54.111 42.9017 53.7506C43.2195 53.2401 43.6734 52.8571 44.1425 52.4817C44.6569 52.0762 45.1033 51.6182 45.353 51.01C45.7993 49.9213 46.6315 49.2004 47.6377 48.6523C47.8874 48.5171 48.1446 48.382 48.4094 48.2769C48.8255 48.1042 49.113 47.8113 49.3097 47.4059C49.5291 46.9478 49.7787 46.4973 50.0662 45.9417C49.06 46.1294 48.2278 46.3697 47.5015 46.8878C45.8901 48.0441 44.4905 49.4482 43.2044 50.9424C42.5764 51.6707 42.236 52.5718 41.8956 53.4578C41.835 53.608 41.7594 53.7657 41.8426 53.9383C41.8955 54.051 41.9485 54.1786 41.7518 54.2011C41.6232 54.2162 41.5248 54.1336 41.487 54.0059C41.4341 53.8107 41.487 53.6305 41.5551 53.4503C42.0242 52.1964 42.5764 50.995 43.5448 50.0339C44.5888 48.9902 45.6026 47.924 46.7374 46.9779C47.7058 46.1745 48.8406 45.784 50.036 45.5287C50.2175 45.4912 50.4294 45.4386 50.5655 45.6263C50.7017 45.8141 50.558 45.9868 50.4823 46.1519C50.4294 46.2571 50.3688 46.3622 50.3083 46.4598C49.3173 48.1943 49.6426 48.2619 47.7285 49.1178C46.8206 49.5233 46.1473 50.2441 45.7615 51.1902C45.5043 51.8209 45.0579 52.3165 44.5283 52.7295C43.9836 53.1574 43.4767 53.623 43.1136 54.2237C42.9623 54.4715 42.7504 54.6817 42.4781 54.7793C41.7669 55.0346 41.5475 55.5076 41.8123 56.236C42.2057 56.1384 42.6143 56.0332 43.0228 55.9281C43.3935 55.838 43.7793 55.793 44.1576 55.8455C44.6796 55.9131 45.0806 55.7329 45.4589 55.41C46.4651 54.539 47.5621 53.7732 48.6137 52.9622C49.9149 51.9711 51.133 50.8523 51.8971 49.3506C52.0484 49.0502 52.2678 48.795 52.5401 48.5997C52.8881 48.3519 52.9184 48.0441 52.8352 47.6612C52.752 47.2857 52.5628 47.0755 52.1619 47.053C51.9122 47.038 51.7004 46.9253 51.6247 46.6625C51.5339 46.3697 51.7533 46.227 51.9349 46.0769C52.1921 45.8591 52.4493 45.6564 52.7217 45.4611C52.8579 45.3635 53.0243 45.2809 53.1605 45.4536C53.2664 45.5888 53.1908 45.7239 53.0924 45.8366C52.8881 46.0618 52.6687 46.2871 52.4115 46.5574C53.0016 46.8127 53.274 47.2482 53.3194 47.8564Z" fill="black"/>
<path d="M53.7834 41.98C53.6612 42.2587 52.2488 43.586 51.9434 43.6667C52.5465 43.102 53.0581 42.4273 53.7834 41.98Z" fill="#BDCB64"/>
<path d="M51.1381 43.0533C51.2808 43.4766 51.0029 43.6731 50.7325 43.8544C49.9664 44.3759 49.1553 44.8445 48.284 45.1543C46.9846 45.6078 45.9632 46.4089 45.0994 47.4669C44.0704 48.729 42.8912 49.8324 41.5994 50.8073C41.2764 51.0492 40.991 51.3364 40.6981 51.616C39.5339 52.7269 38.9555 54.0873 38.9706 55.7046C38.9781 56.3016 39.0006 56.8987 39.0006 57.4881C39.0006 57.6695 39.0382 57.9189 38.7678 57.9265C38.5575 57.934 38.5349 57.7224 38.5124 57.5562C38.4598 57.133 38.4072 56.7173 38.5049 56.2789C38.6025 55.8179 38.6326 55.3343 38.6851 54.8657C38.7903 53.785 39.1884 52.8403 39.8869 52.0165C40.3676 51.4573 40.8783 50.9282 41.4717 50.4824C42.6584 49.5981 43.7249 48.593 44.6938 47.4669C45.0318 47.0739 45.3923 46.6885 45.7604 46.3182C46.3012 45.7665 46.9546 45.3811 47.6681 45.1014C48.5093 44.7765 49.3205 44.391 50.1016 43.9225C50.4847 43.6882 50.8903 43.4766 51.1381 43.0533Z" fill="black"/>
<path d="M49.49 43.5496C49.4975 43.6176 49.4599 43.6932 49.3848 43.7084C49.1969 43.731 49.0091 43.7386 48.8212 43.7537C47.4612 43.852 46.3717 44.4189 45.6353 45.5907C45.455 45.8855 45.1995 46.0896 44.9215 46.271C44.3579 46.6566 43.7718 47.027 43.2158 47.4352C42.4869 47.9644 41.7956 48.5464 41.3297 49.3477C41.2847 49.4309 41.2245 49.5065 41.0743 49.4914C40.9991 49.2041 41.1945 49.0076 41.3373 48.811C41.743 48.2441 42.254 47.7829 42.81 47.3747C43.2834 47.0194 43.7793 46.6868 44.2677 46.3542C44.7787 46.0064 45.1844 45.5982 45.5677 45.0842C46.4393 43.9351 47.6641 43.3379 49.1368 43.3606C49.227 43.3606 49.3172 43.3984 49.4073 43.4362C49.4449 43.4589 49.49 43.5118 49.49 43.5496Z" fill="black"/>
<path d="M47.3441 20.5849C46.7013 20.4642 46.2853 20.7661 45.824 21.0528C45.1585 21.4678 44.4022 21.7168 43.593 21.7244C43.1619 21.7319 42.7384 21.7395 42.3073 21.7395C41.8233 21.747 41.8081 21.7696 42.0426 22.2677C41.6115 22.5167 41.1653 22.5695 40.6737 22.4337C39.6906 22.1696 38.6923 21.9734 37.7394 21.5584C36.7865 21.1509 35.7503 20.9321 34.6689 21.0981C33.784 21.2339 32.9143 21.1358 32.1051 20.6906C31.5379 20.3812 30.948 20.1322 30.3354 19.9285C29.8589 19.77 29.4203 19.5135 29.0346 19.189C27.9758 18.3061 26.8943 17.4384 25.8733 16.5027C24.7162 15.4388 23.8767 14.1635 23.0751 12.8279C22.2054 11.3716 21.555 9.81717 20.8138 8.30047C20.413 7.48553 20.1634 6.61021 19.9592 5.72736C19.929 5.59154 19.8987 5.44816 19.8987 5.30479C19.8836 4.91241 20.0046 4.79923 20.36 4.93506C20.9273 5.15388 21.4567 5.36516 21.744 6.02919C22.2734 7.2516 22.9238 8.42119 23.6045 9.56814C23.733 9.77943 23.8087 10.0511 24.2171 10.202C24.028 9.58325 23.6801 9.16068 23.4457 8.68529C23.2037 8.21746 22.9465 7.76472 22.7045 7.29688C22.4549 6.81395 22.2129 6.32347 21.9331 5.75754C22.4398 5.74999 22.7801 5.98392 23.1583 6.08956C24.1868 6.36875 24.8372 6.97241 25.2456 8.00618C25.7901 9.40214 26.6069 10.6774 27.4993 11.8922C27.6506 12.096 27.764 12.3525 28.0892 12.4506C28.1649 12.1639 27.9607 12.013 27.8321 11.847C26.9019 10.5717 26.1153 9.2135 25.4498 7.78736C25.3515 7.58362 25.1851 7.38744 25.2532 7.09315C25.5406 7.1007 25.7372 7.28179 25.9414 7.43271C26.8792 8.13447 27.7791 8.87393 28.8455 9.3795C28.9741 9.43987 29.0799 9.51533 29.1026 9.68888C29.1858 10.4359 29.5715 11.0773 29.8892 11.7413C30.3203 12.6468 30.8118 13.5146 31.3337 14.3748C31.4471 14.571 31.5227 14.8125 31.8328 14.8955C31.8782 14.5861 31.6891 14.3899 31.5605 14.1786C30.895 13.0241 30.2295 11.8621 29.7152 10.6321C29.6093 10.3831 29.4278 10.1341 29.5337 9.80962C29.8816 9.83226 30.1236 10.0435 30.3808 10.1869C31.9311 11.0849 33.2849 12.2771 34.7672 13.2731C34.8882 13.3486 35.0092 13.4316 35.0394 13.59C35.2588 14.8955 36.0302 15.9443 36.7184 17.0234C37.0133 17.4836 37.3536 17.9138 37.6864 18.3514C37.7999 18.4948 37.883 18.6834 38.1402 18.7287C38.2536 18.5174 38.0948 18.3891 37.9889 18.2533C37.3763 17.4308 36.7638 16.6083 36.2571 15.7179C35.9243 15.1369 35.6218 14.5483 35.3722 13.907C35.8789 13.99 38.0343 15.4237 39.0099 16.3141C38.6393 16.5253 38.8738 16.7668 39.0024 16.9705C39.5771 17.876 40.2275 18.7287 40.9309 19.5285C41.0141 19.6191 41.0973 19.7927 41.2939 19.6493C41.2031 19.3399 40.9611 19.1437 40.7796 18.9023C40.1519 18.0647 39.4334 17.295 39.0175 16.3216C39.683 16.7743 40.3561 17.2271 41.0216 17.6874C42.1107 18.4495 43.3737 18.6985 44.6593 18.857C44.6971 18.8645 44.7425 18.8192 44.7879 18.7966C44.8106 18.5929 44.6442 18.5853 44.5081 18.5551C44.0392 18.4495 43.5703 18.3665 43.109 18.2609C42.1939 18.0496 41.3846 17.627 40.7267 16.8951C41.4149 17.0083 42.1031 17.1139 42.8821 17.2422C42.7459 16.9328 42.5417 16.9253 42.3754 16.8951C41.8157 16.7894 41.2485 16.6763 40.6813 16.6083C40.2351 16.5555 39.8569 16.3971 39.5091 16.133C38.8057 15.6123 38.1024 15.0992 37.3007 14.5182C37.7847 14.3748 38.1553 14.4427 38.5183 14.4955C39.6754 14.6615 40.8174 14.9332 41.9292 15.2803C42.1409 15.3482 42.3602 15.5067 42.64 15.3558C42.4737 15.0992 42.1938 15.069 41.9594 14.9936C40.288 14.4804 38.6015 14.0805 36.8394 14.1032C36.6579 14.1032 36.5217 14.0277 36.3856 13.9296C34.9941 12.9637 33.5949 12.013 32.2715 10.9566C32.2412 10.9339 32.2336 10.8736 32.1731 10.7604C33.7538 10.6095 35.3041 10.8434 36.8999 10.8434C36.8167 10.5189 36.5974 10.5717 36.431 10.5566C35.0999 10.4133 33.7613 10.4057 32.4303 10.4133C31.7647 10.4133 31.1673 10.2774 30.6076 9.9077C30.1312 9.59078 29.6094 9.34933 29.0951 9.09278C28.2783 8.68531 27.5145 8.20991 26.8035 7.64398C26.3195 7.2516 25.8053 6.9045 25.2532 6.61776C25.049 6.51212 24.7313 6.4442 24.7843 6.15747C24.8372 5.88582 25.17 5.9311 25.3893 5.88583C26.7657 5.59155 28.1649 5.43307 29.5715 5.30479C29.7984 5.28215 30.0556 5.34252 30.29 5.11615C30.1614 4.97278 30.0026 4.98787 29.8514 5.00296C27.9682 5.14633 26.0927 5.34254 24.2776 5.88583C23.9524 5.98392 23.6877 5.98391 23.3852 5.85564C22.9692 5.68208 22.5381 5.54626 22.1146 5.38025C21.9029 5.29725 21.6608 5.24444 21.4718 4.98034C22.644 4.42195 23.9146 4.21067 25.0868 3.54664C24.7238 3.38064 24.512 3.53154 24.3003 3.607C23.3095 3.94655 22.3037 4.25593 21.3356 4.6634C20.8138 4.88223 20.5264 4.56532 20.1634 4.39177C20.0424 4.3314 20.0575 4.19558 20.1105 4.07485C20.2768 3.69756 20.5037 3.35799 20.8743 3.15425C21.8953 2.58077 22.9617 2.1054 24.0507 1.69038C24.5045 1.51683 25.0414 1.50929 25.533 1.50929C26.6674 1.51684 27.7565 1.23764 28.8455 0.996174C29.6396 0.822622 30.4034 0.837717 31.1522 1.16973C32.158 1.61493 33.2168 1.87148 34.2983 2.1054C36.4991 2.57323 38.3217 3.74282 39.7057 5.49343C40.5376 6.5423 41.3998 7.55343 42.3451 8.49665C42.8367 8.98713 43.2375 9.55307 43.5249 10.1869C43.7442 10.6623 44.0089 11.115 44.3341 11.53C45.2795 12.7449 45.8164 14.1862 46.5122 15.5368C46.5803 15.6651 46.6256 15.8009 46.6483 15.9443C46.792 16.9856 46.9508 18.0194 47.0492 19.0607C47.0794 19.5436 47.087 20.0417 47.3441 20.5849ZM34.7823 12.4808C36.6579 12.6166 38.5334 12.6619 40.409 12.8204C39.7435 12.4204 35.1756 12.0733 34.5176 12.2922C34.5479 12.4355 34.6689 12.4733 34.7823 12.4808ZM35.2815 8.45892C35.4327 8.44383 35.6218 8.49665 35.7277 8.25519C35.5386 8.12691 35.3646 8.16463 35.2058 8.17218C33.6403 8.27782 32.0748 8.39101 30.5093 8.51174C30.1085 8.54192 29.7077 8.60985 29.2993 8.56457C29.2161 8.55703 29.1026 8.5872 29.08 8.70038C29.0573 8.86639 29.1783 8.89658 29.2993 8.89658C29.4203 8.90413 29.5337 8.88904 29.6547 8.88149C31.5303 8.74567 33.4059 8.60229 35.2815 8.45892ZM33.4437 6.8894C33.4513 6.86676 33.4513 6.84413 33.4664 6.73849C31.258 6.48948 29.0724 6.69322 26.8867 7.03278C28.7926 7.0856 30.7059 6.82904 32.6193 6.97241C32.8765 6.9875 33.1412 7.04788 33.3908 6.94224C33.421 6.93469 33.4361 6.91204 33.4437 6.8894ZM34.3815 16.4348C33.4966 15.0011 32.937 13.424 32.2488 11.9073C32.2185 11.847 32.1656 11.7866 31.9538 11.8621C32.6118 13.4693 33.1563 15.1218 34.3815 16.4348Z" fill="#13751E"/>
<path d="M46.4008 56.145C46.4309 56.1975 46.4309 56.2874 46.4008 56.3323C46.3406 56.4298 46.2653 56.5272 46.175 56.6021C45.9342 56.797 45.7084 57.0068 45.4451 57.1642C44.1431 57.9735 42.7434 58.5356 41.2232 58.7904C40.9297 58.8428 40.6212 58.9028 40.29 58.7454C40.433 58.4906 40.6136 58.5356 40.7717 58.5131C42.7434 58.2358 44.5269 57.5464 46.0471 56.2424C46.0998 56.1974 46.1525 56.1525 46.2127 56.115C46.2804 56.07 46.3707 56.0775 46.4008 56.145Z" fill="black"/>
<path d="M41.2102 19.6922C41.0159 19.8349 40.9338 19.6622 40.8516 19.5721C40.1569 18.7686 39.5144 17.9201 38.9467 17.0266C38.8197 16.8238 38.5881 16.5836 38.9542 16.3733H38.9616C39.3725 17.342 40.0822 18.1154 40.7022 18.9413C40.8815 19.1816 41.1205 19.3844 41.2102 19.6922Z" fill="black"/>
<path d="M38.0877 32.3587C38.6378 33.3843 38.6227 33.4069 37.6206 33.9423C35.5787 35.0282 33.6197 36.2348 31.9018 37.7958C29.9504 39.5605 28.2174 41.5136 27.1325 43.957C26.9742 44.3039 26.8386 44.6583 26.8085 45.0429C26.6276 47.177 26.2358 49.2886 26.0625 51.4227C25.9721 52.4935 25.8742 53.5568 26.1153 54.6202C26.281 55.3441 26.2132 56.0756 26.2434 56.8071C26.2434 56.8976 26.2283 56.9956 26.2358 57.0937C26.2509 57.3425 26.4317 57.5989 26.1906 57.8327C25.8968 58.1117 25.6029 58.3681 25.1508 58.3983C24.6008 58.4284 24.0583 58.4134 23.5158 58.3304C22.348 58.157 21.1876 58.3153 20.0348 58.436C18.8444 58.5642 17.6615 58.5793 16.4785 58.4511C15.8908 58.3907 15.2956 58.3983 14.7079 58.3153C13.525 58.1419 12.5153 57.5612 11.4906 57.0107C11.2194 56.8674 10.9481 56.7091 10.6995 56.5281C9.81041 55.8871 8.89872 55.2989 7.87402 54.8841C7.43701 54.7031 7.07535 54.3713 6.72876 54.047C6.64588 53.9641 6.49519 53.866 6.50272 53.7831C6.55547 53.2477 6.13353 53.0893 5.802 52.9008C4.19713 51.9958 3.15736 50.6309 2.38883 48.9945C1.7936 47.7426 1.21344 46.5059 0.964797 45.1258C0.768897 44.0173 0.731217 42.9012 0.731217 41.7851C0.708613 39.0627 1.19836 36.446 2.16279 33.8971C2.67514 32.5397 3.11216 31.1596 3.90329 29.9229C4.05398 29.6815 4.19713 29.4327 4.36289 29.1989C5.77186 27.2307 6.87192 25.1116 7.59524 22.7965C7.75347 22.2912 7.99457 21.8312 8.30349 21.4089C8.43157 21.2355 8.56721 21.0696 8.67269 20.881C9.70493 18.9807 11.3701 17.7137 13.0804 16.4921C13.2311 16.379 13.3893 16.2583 13.5626 16.1904C14.7079 15.738 15.8682 15.3232 16.9833 14.7802C17.247 14.652 17.5409 14.6973 17.8272 14.6973C18.3019 14.6973 18.7766 14.6596 19.2437 14.5766C19.5752 14.5163 19.8314 14.3655 19.8766 14.0035C19.9369 13.4756 20.2835 13.2569 20.7431 13.1136C21.2781 12.9477 21.8281 13.0231 22.3706 13.0005C22.5589 12.993 22.687 13.0684 22.7775 13.2267C22.8001 13.272 22.8302 13.3097 22.8528 13.3474C24.2542 15.9868 26.5824 17.7514 28.8202 19.599C29.325 20.0138 30.0559 20.0967 30.4778 20.5341C30.8922 20.964 31.1484 21.5824 31.6306 21.9594C32.6176 22.7211 33.2882 23.709 33.8156 24.8175C34.1321 25.4887 34.5842 26.0769 35.0513 26.6425C35.541 27.2382 35.9178 27.8868 36.2493 28.5806C36.837 29.8475 37.4247 31.1219 38.0877 32.3587ZM29.7243 28.7465C29.7469 28.0602 29.7771 27.5097 29.7168 26.9667C29.6641 26.4916 29.438 26.1297 29.0462 25.8431C28.2476 25.27 26.153 25.5867 25.7762 26.9366C25.2714 28.7314 24.9926 30.496 25.4372 32.336C25.6707 33.3013 25.6255 34.2666 25.3317 35.2243C25.0906 36.0237 24.9775 36.8457 24.8419 37.6676C24.7967 37.9693 24.7892 38.286 24.8042 38.5877C24.8193 38.927 24.9022 39.2664 25.2714 39.3946C25.6029 39.5077 25.8742 39.3418 26.1002 39.108C26.266 38.9421 26.4242 38.7611 26.5674 38.5726C26.9968 37.9995 27.3359 37.3735 27.5544 36.6873C27.7051 36.2122 27.8934 35.7522 28.127 35.3073C28.775 34.0856 29.3325 32.8262 29.5134 31.4386C29.6264 30.5035 29.7243 29.5534 29.7243 28.7465Z" fill="#BDCB64"/>
<path d="M40.2905 12.8467C38.438 12.6826 36.5854 12.6279 34.7328 12.4951C34.6207 12.4873 34.4937 12.456 34.4639 12.3076C35.1212 12.0732 39.6332 12.4326 40.2905 12.8467Z" fill="black"/>
<path d="M35.691 8.34231C35.586 8.59199 35.3986 8.53737 35.2486 8.55297C33.3892 8.70122 31.5297 8.84947 29.6702 8.99772C29.5503 9.00552 29.4378 9.01334 29.3178 9.01334C29.1979 9.00554 29.0779 8.97432 29.1004 8.81046C29.1154 8.69343 29.2279 8.65441 29.3178 8.67001C29.7227 8.71683 30.1201 8.65441 30.5175 8.6154C32.0695 8.49056 33.6216 8.38132 35.1736 8.26428C35.3386 8.24868 35.5035 8.20966 35.691 8.34231Z" fill="black"/>
<path d="M33.5439 60.0733C34.1615 59.7317 34.2835 59.7059 34.9239 59.8477C34.436 60.0089 34.009 60.054 33.5439 60.0733Z" fill="#BDCB64"/>
<path d="M33.5435 6.83666C33.5284 6.95459 33.5283 6.98828 33.5208 7.00513C33.5132 7.02198 33.498 7.04726 33.4752 7.06411C33.2173 7.18204 32.9517 7.11464 32.7013 7.09779C30.7818 6.93775 28.8622 7.22415 26.9502 7.16518C29.1429 6.78614 31.3281 6.55869 33.5435 6.83666Z" fill="black"/>
<path d="M32.3088 12.0093C32.9967 13.5301 33.5699 15.1037 34.4641 16.5267C33.2336 15.2166 32.6757 13.5678 32.0107 11.9566C32.2247 11.8888 32.2859 11.9491 32.3088 12.0093Z" fill="black"/>
<path d="M29.6754 27.1243C29.735 27.6709 29.7052 28.2252 29.6828 28.916C29.6828 29.7359 29.586 30.6849 29.4668 31.6339C29.288 33.0308 28.7367 34.2987 28.096 35.5285C27.8651 35.9765 27.6788 36.4396 27.5299 36.9179C27.3138 37.6087 26.9786 38.2388 26.5539 38.8158C26.4124 39.0056 26.2559 39.1802 26.092 39.3549C25.8685 39.5902 25.6078 39.7572 25.2726 39.6433C24.9075 39.5143 24.8256 39.1726 24.8107 38.831C24.7958 38.5197 24.8032 38.2085 24.8479 37.9048C24.9746 37.0773 25.0863 36.2498 25.3322 35.445C25.6227 34.4809 25.6674 33.5091 25.4365 32.5373C25.0044 30.6849 25.2726 28.9084 25.7717 27.1015C26.1442 25.7426 28.2152 25.4237 29.0049 26.0007C29.3997 26.274 29.6232 26.646 29.6754 27.1243ZM29.3401 28.5972C29.3401 28.1417 29.3625 27.6861 29.3327 27.2306C29.3103 26.8055 29.1241 26.4563 28.7293 26.2437C27.7831 25.735 26.472 26.2589 26.1293 27.2838C25.578 28.9464 25.3694 30.6318 25.8015 32.3703C26.0697 33.4332 26.0324 34.5036 25.7121 35.5589C25.4514 36.432 25.3471 37.3354 25.213 38.2389C25.1906 38.4059 25.1832 38.5729 25.1981 38.7399C25.213 38.9069 25.2279 39.0891 25.4067 39.1651C25.5929 39.2486 25.7196 39.1043 25.8313 38.9828C25.9877 38.8082 26.1516 38.626 26.2708 38.4286C26.5614 37.9504 26.8594 37.51 26.9115 36.8799C26.9637 36.2801 27.3809 35.7259 27.7459 35.2401C28.3568 34.4353 28.692 33.5319 28.9304 32.5829C29.2656 31.2771 29.3103 29.9409 29.3401 28.5972Z" fill="black"/>
<path d="M29.3882 27.1967C29.4179 27.6485 29.3957 28.1003 29.3957 28.5522C29.366 29.8851 29.3141 31.2104 28.9877 32.5132C28.7503 33.4545 28.4091 34.3506 27.8083 35.1488C27.4448 35.6308 27.0294 36.1805 26.9775 36.7754C26.9255 37.4004 26.6288 37.8372 26.3396 38.3116C26.2209 38.5149 26.0577 38.6881 25.9019 38.8613C25.7906 38.9818 25.6719 39.1249 25.4791 39.0421C25.3085 38.9667 25.2862 38.7785 25.2714 38.6204C25.2566 38.4547 25.264 38.289 25.2862 38.1233C25.4198 37.2272 25.5236 36.3311 25.7832 35.4651C26.1022 34.4108 26.1393 33.3566 25.8722 32.3023C25.442 30.5778 25.6497 28.9061 26.1986 27.2569C26.5398 26.2403 27.8454 25.7282 28.7874 26.2253C29.1731 26.4286 29.3586 26.775 29.3882 27.1967Z" fill="#DAE59A"/>
<path d="M19.2793 13.9578C19.3154 14.1968 19.1494 14.2366 18.9906 14.2844C18.7452 14.3641 18.4998 14.38 18.2472 14.38C18.0307 14.38 17.8142 14.38 17.5977 14.38V14.2685C17.973 14.2685 18.2905 14.2047 18.5792 13.902C18.6514 13.8303 18.7957 13.8622 18.904 13.8224C19.0772 13.7666 19.236 13.6869 19.2793 13.9578Z" fill="#BDCB64"/>
<path d="M18.5176 13.3703C18.3394 13.5456 18.2023 13.6904 18.0172 13.7667C17.8938 13.538 17.839 13.2941 18.0241 13.1798C18.1749 13.0959 18.3737 13.2255 18.5176 13.3703Z" fill="#BDCB64"/>
<path d="M17.5968 14.1161V14.2138C17.4252 14.2138 17.2607 14.2208 17.0891 14.2208C16.3455 14.2418 16.3455 14.2487 16.2168 13.46C16.5028 13.474 16.6959 13.5368 16.7888 13.7741C16.9032 14.0603 17.0891 14.0952 17.4109 14.1091C17.4824 14.1161 17.5396 14.1161 17.5968 14.1161Z" fill="#BDCB64"/>
<path d="M17.216 12.8467C17.5125 13.0969 17.5125 13.0968 17.2543 13.7667C17.1204 13.3874 17.0917 13.1211 17.216 12.8467Z" fill="#BDCB64"/>
<path d="M16.5835 11.9267C16.9699 12.2442 16.8191 12.464 16.6872 12.8467C16.4799 12.4722 16.4987 12.2442 16.5835 11.9267Z" fill="#BDCB64"/>
<path d="M15.7804 9.78C16.0501 10.3679 16.175 10.971 15.9382 11.62C15.7409 11.0321 15.7343 10.4061 15.7804 9.78Z" fill="#BDCB64"/>
<path d="M14.908 7.78668C15.2172 8.10102 15.3926 8.34635 15.2422 8.76035C15.0918 9.18201 15.0667 9.64202 14.9915 10.0867C14.9331 10.079 14.8746 10.079 14.8244 10.0714C14.6322 9.34302 14.6155 8.59935 14.908 7.78668Z" fill="#BDCB64"/>
<path d="M14.4717 6.25333C14.6638 6.93287 14.3253 7.58221 14.2888 8.24666C14.179 7.57466 14.1881 6.90267 14.4717 6.25333Z" fill="#BDCB64"/>
<path d="M14.012 3.89674C14.1944 4.10288 14.2628 4.37773 14.202 4.63731C14.0348 5.34733 13.9436 6.08791 13.457 6.86665C13.5178 6.07265 13.6851 5.47714 13.8295 4.88163C13.898 4.61442 13.9436 4.36247 13.6547 4.18687C13.5635 4.12579 13.4342 4.04944 13.5711 3.91965C13.7079 3.7975 13.8751 3.73642 14.012 3.89674Z" fill="#BDCB64"/>
<path d="M13.6199 7.48001C13.8542 7.59849 13.7511 7.74486 13.6667 7.94001C13.3762 7.75183 13.4137 7.6194 13.6199 7.48001Z" fill="#BDCB64"/>
<path d="M13.1304 4.26001C13.1919 4.48221 13.0963 4.61553 13.0485 4.76366C12.9938 4.91919 12.8845 4.87475 12.7888 4.83772C12.6385 4.77106 12.6863 4.65996 12.7615 4.57108C12.8571 4.45258 12.9391 4.31186 13.1304 4.26001Z" fill="#BDCB64"/>
</svg>
