<svg width="79" height="84" viewBox="0 0 79 84" fill="none" xmlns="http://www.w3.org/2000/svg">
<path d="M78.2105 42.442C78.6732 43.972 78.5127 45.4641 78.0878 46.9563C77.8234 47.9007 77.5307 48.8451 77.2191 49.7801C76.8131 51.0078 76.1333 52.0372 75.0286 52.7644C74.1788 53.3216 73.3479 53.9071 72.4981 54.4737C71.214 55.3332 69.7883 55.7298 68.2587 55.777C68.0226 55.7865 67.7299 55.8526 67.5505 55.7487C66.8046 55.3237 66.4552 55.8431 66.1248 56.3153C65.5771 57.0897 64.9162 57.6753 63.9909 57.9964C63.2827 58.2419 62.6784 58.6952 62.0741 59.1485C60.3085 60.4802 58.3068 61.3396 56.1823 61.9345C55.6536 62.0762 55.1154 62.0856 54.5772 62.0762C53.6802 62.0762 52.7738 62.0857 51.8768 62.0196C49.7995 61.8685 47.9111 61.1601 46.2116 59.9607C44.597 58.818 43.0957 57.5336 41.991 55.8526C41.4623 55.0404 41.0279 54.2093 40.8013 53.2555C40.5558 52.2072 40.2442 51.1778 39.9515 50.0728C39.4322 50.2523 39.1773 50.6678 38.8374 50.97C37.1662 52.4716 35.6177 54.1054 33.8142 55.437C33.2005 55.8903 32.5018 56.1454 31.7653 56.3059C30.1035 56.6742 28.4889 57.2408 26.7799 57.4486C24.2589 57.7508 21.8229 57.4486 19.453 56.5798C18.792 56.3342 18.2916 55.8431 17.7534 55.4181C16.0538 54.0676 14.6753 52.4999 14.2127 50.2806C14.1371 49.9028 14.0049 49.5251 13.8539 49.1662C13.2496 47.759 13.0513 46.2952 13.0418 44.7842C13.0324 44.0664 13.0135 44.0286 12.2676 44.0475C10.5869 44.1042 8.91569 44.0192 7.27278 43.6509C5.79039 43.3109 4.43075 42.7254 3.33547 41.6204C1.98527 40.2605 1.05051 38.6361 0.314034 36.8795C0.00244783 36.1428 -0.0542088 35.3684 0.0968632 34.5846C0.314029 33.4607 0.644504 32.3747 1.16381 31.3547C1.28656 31.0997 1.36209 30.8636 1.3432 30.5803C1.32432 30.1648 1.32432 29.7398 1.29599 29.3242C1.13548 26.8593 2.11745 24.9233 3.96808 23.3367C5.37494 22.1373 6.97063 21.2496 8.61354 20.4657C10.1054 19.748 11.7294 19.6724 13.3629 19.9746C13.5328 20.003 13.7028 20.088 13.8916 20.0124C14.0332 19.918 13.9672 19.7952 13.9199 19.7008C13.2118 18.1425 13.2401 16.5087 13.7217 14.9504C14.3071 13.0616 14.5998 11.1822 14.5242 9.20842C14.477 8.03736 14.7414 6.88518 15.1474 5.78022C15.2229 5.5819 15.3362 5.38358 15.3362 5.18525C15.3268 3.59865 16.4598 2.87146 17.6212 2.2387C18.9997 1.49262 20.5294 1.11486 22.0495 0.812655C22.871 0.652106 23.7113 0.576556 24.5422 0.472671C26.4872 0.23657 28.1868 1.02043 29.858 1.83262C31.0477 2.4087 32.0392 3.29644 33.125 4.04252C34.5696 5.0247 35.7026 6.26187 36.5052 7.82014C36.8168 8.42455 37.3456 8.91565 37.6099 9.55784C37.6666 9.6995 37.8082 9.79395 37.9782 9.76562C38.167 9.73729 38.1576 9.55784 38.1859 9.41618C38.5447 7.18739 39.8005 5.51579 41.4906 4.13696C44.1532 1.96482 47.288 0.812659 50.6116 0.132688C51.3669 -0.0184169 52.16 0.019357 52.9437 0.000468891C53.3969 -0.00897516 53.8407 0.0949048 54.2467 0.302674C55.0682 0.727656 55.8991 1.14319 56.7205 1.57762C57.2021 1.83261 57.6553 2.12538 58.0235 2.52203C58.7695 3.31533 59.6476 3.93864 60.5729 4.49583C61.687 5.17581 62.3291 6.16743 62.6879 7.39515C63.1411 8.98175 63.5377 10.5778 63.5188 12.2494C63.5093 12.6366 63.6698 12.7783 64.057 12.901C67.0878 13.8927 69.2784 15.7248 70.0621 18.9641C70.2793 19.8613 70.5247 20.749 70.6003 21.684C70.7325 23.2328 70.2415 24.6494 69.7883 26.066C69.2123 27.8887 68.5136 29.6831 67.8904 31.4964C67.6355 32.3369 67.1162 32.9319 66.3797 33.4891C68.1737 33.6402 69.6844 34.339 71.2895 34.6318C71.9694 34.7546 72.602 35.0662 73.1779 35.444C74.1882 36.0956 75.1796 36.7661 76.1427 37.4745C77.1152 38.2016 77.7196 39.1555 77.8329 40.4116C77.8989 41.0915 78.0123 41.7809 78.2105 42.442ZM77.3891 47.1263C77.8139 45.8985 78.0972 44.6519 77.8045 43.3392C77.559 42.2248 77.2947 41.1199 77.0964 40.0055C76.9453 39.1649 76.5393 38.5039 75.8783 37.975C75.1324 37.3706 74.3015 36.8889 73.5178 36.3317C72.5453 35.6423 71.4784 35.2079 70.3265 34.9623C69.6278 34.8112 68.9102 34.6696 68.2492 34.4051C67.2673 34.0179 66.3042 34.0463 65.3505 34.3579C64.4252 34.6507 63.5093 34.8679 62.5368 34.8679C61.8759 34.8868 61.281 35.0851 60.6767 35.5856C62.1025 36.2373 63.1128 37.21 64.0947 38.2205C65.0201 39.1744 65.7565 40.2605 66.4836 41.356C67.0595 42.2154 67.4939 43.122 67.7205 44.1231C67.9754 45.2375 68.1359 46.3613 68.2398 47.4946C68.3625 48.8357 68.5608 50.1767 68.2681 51.5272C68.0415 52.5566 67.711 53.5482 67.3711 54.5398C67.1539 55.182 67.1917 55.3048 67.8526 55.2954C69.1273 55.2859 70.3642 55.0782 71.4784 54.4265C72.7719 53.671 74.0183 52.8305 75.1796 51.8861C75.8595 51.3383 76.511 50.6772 76.3977 49.6289C76.3788 49.4401 76.5015 49.2323 76.5865 49.034C76.8509 48.4012 77.1625 47.7779 77.3891 47.1263ZM69.2217 26.0566C70.1376 23.4784 70.0715 20.8813 69.3256 18.2841C69.2312 17.963 69.1084 17.6608 68.9479 17.3775C67.9754 15.7248 66.5685 14.5443 64.8879 13.6754C64.6801 13.5716 64.4441 13.496 64.208 13.4582C63.5943 13.3544 63.4904 13.4299 63.3205 14.0249C63.2261 14.346 63.1694 14.6671 63.075 14.9787C62.7351 16.027 62.6029 17.1698 61.8381 18.0386C60.7523 19.2663 59.8742 20.7018 58.3729 21.514C58.3162 21.5423 58.2785 21.5801 58.2313 21.6179C57.9008 21.8823 57.7969 22.1468 58.118 22.5151C58.4767 22.9212 58.7411 23.3934 58.9111 23.9128C59.5909 25.9055 60.063 27.9454 60.148 30.0514C60.1763 30.7503 60.1102 31.4303 59.8836 32.0913C59.6948 32.6108 59.6098 33.2341 58.8922 33.338C58.8072 33.3474 58.7317 33.4985 58.675 33.6024C58.4012 34.0651 58.1463 34.5373 57.8347 35.0851C58.4201 35.3306 58.9583 35.3779 59.487 35.4251C59.7797 35.4534 60.0063 35.3495 60.233 35.1795C61.0827 34.5373 62.0458 34.2824 63.0939 34.3013C63.7737 34.3107 64.3969 34.1218 64.9539 33.7346C65.3977 33.423 65.8037 33.0641 66.257 32.7808C66.8518 32.403 67.1823 31.8647 67.3994 31.2225C68.0037 29.4942 68.6174 27.7754 69.2217 26.0566ZM67.7393 51.1117C67.9471 49.9689 67.7488 48.8357 67.6638 47.7118C67.4844 45.1714 66.9273 42.7631 65.3694 40.6477C64.293 39.1838 63.075 37.89 61.687 36.7378C61.3377 36.445 60.9317 36.2373 60.4879 36.1523C59.5814 35.9728 58.6656 35.8123 57.7592 35.6329C57.4853 35.5762 57.2304 35.5668 56.9943 35.7651C56.3712 36.2751 55.6441 36.6717 55.0965 37.2667C54.5489 37.8522 53.8879 38.2394 53.1515 38.5133C50.536 39.4955 47.8734 40.0905 45.0597 39.4766C44.6442 39.3821 44.2949 39.486 43.9927 39.7882C42.7275 41.0443 41.6511 42.4515 40.8674 44.0381C39.9043 45.9835 40.0365 48.0518 40.537 50.0917C40.8202 51.225 41.2356 52.3205 41.5095 53.4538C41.8116 54.6626 42.4725 55.6354 43.2562 56.5514C43.3884 56.712 43.5489 56.8537 43.6811 57.0142C44.9936 58.6669 46.6742 59.8285 48.591 60.669C50.1395 61.3396 51.7635 61.5662 53.4347 61.4907C54.3317 61.5001 55.2381 61.5946 56.1163 61.3585C58.1274 60.8013 60.0158 59.9796 61.687 58.7236C62.3669 58.2136 63.0656 57.798 63.8209 57.4203C65.19 56.7403 66.1436 55.6165 66.7951 54.2849C67.2767 53.3027 67.5411 52.2072 67.7393 51.1117ZM62.754 13.4299C62.9428 12.6555 62.9617 11.8716 62.8295 11.1067C62.6312 9.89783 62.3763 8.69844 62.0836 7.49905C61.8287 6.44131 61.2244 5.61024 60.2613 5.04359C59.3076 4.47695 58.4201 3.81587 57.6459 3.01312C57.1643 2.50314 56.56 2.16316 55.9274 1.88928C55.427 1.68151 54.9454 1.4454 54.4922 1.15264C53.8879 0.755988 53.2459 0.614325 52.5283 0.642657C48.4399 0.81265 44.8425 2.25759 41.6322 4.75082C40.5464 5.59134 39.7533 6.67741 39.1584 7.90513C38.7052 8.84009 38.4597 9.81284 38.8846 10.8517C38.9507 11.0028 38.9318 11.2011 38.9224 11.3805C38.8374 13.0805 38.979 14.7615 39.4133 16.4331C39.5266 16.4142 39.6211 16.4237 39.6966 16.3953C41.5567 15.6304 43.5395 15.5265 45.5034 15.4226C46.5515 15.3659 47.5807 15.6493 48.6193 15.7626C49.3558 15.8381 49.9978 16.112 50.5549 16.622C51.1309 17.1509 51.7918 17.5475 52.4811 17.9253C53.5291 18.4919 54.6622 18.9169 55.5875 19.7008C56.1257 20.1541 56.5223 20.7018 56.966 21.2307C57.2021 21.514 57.3626 21.5235 57.7025 21.3157C59.0527 20.4752 60.0252 19.2569 61.045 18.0858C61.6115 17.4342 61.9986 16.7164 62.1874 15.8759C62.3668 15.0543 62.5557 14.2421 62.754 13.4299ZM59.1188 31.5058C59.572 31.2414 59.5815 30.8447 59.572 30.4198C59.5342 29.192 59.2888 27.9926 59.0622 26.7932C58.6656 24.7344 57.9386 22.9306 56.4184 21.4196C55.4931 20.5035 54.615 19.6063 53.4158 19.0491C52.2828 18.5202 51.1309 17.9914 50.215 17.0848C49.7523 16.622 49.1764 16.4237 48.5438 16.2915C46.0699 15.7437 43.6056 15.942 41.1412 16.3576C40.7541 16.4237 40.3859 16.5464 40.0365 16.7353C39.1395 17.2075 38.2425 17.7081 37.4305 18.3219C36.2503 19.2097 35.1928 20.2107 34.6263 21.6462C33.937 23.3745 33.5593 25.1783 33.5404 27.1332C33.4554 28.7859 34.0692 30.3536 34.7207 31.9025C35.0511 32.6863 35.3344 33.5457 36.0614 34.0935C37.6666 35.3023 39.2812 36.4734 40.9052 37.6633C41.0279 37.7483 41.1696 37.7956 41.3112 37.8617C43.1713 38.7022 45.1541 38.995 47.1558 39.1366C49.1386 39.2688 50.9987 38.655 52.8493 38.0128C53.5952 37.7578 54.2562 37.3611 54.7849 36.7567C55.0776 36.4167 55.4742 36.1901 55.8141 35.8973C56.6639 35.1796 57.6175 34.5562 58.0802 33.4702C58.2312 33.1113 58.3823 32.7524 58.5428 32.3936C58.6939 32.063 58.8072 31.6853 59.1188 31.5058ZM40.6503 43.1315C41.6794 41.781 42.5859 40.4871 43.8322 39.2499C41.8305 38.8438 40.1687 38.0789 38.743 36.7756C38.979 37.8994 39.6305 38.825 39.961 39.8733C40.282 40.9121 40.3387 42.0076 40.6503 43.1315ZM40.0837 44.5386C40.1593 44.3119 40.2065 44.0758 40.1687 43.8303C39.8099 41.7715 39.5172 39.7127 38.5258 37.7956C37.9593 36.7001 37.2795 35.784 36.3825 34.9907C35.5516 34.254 34.7018 33.5457 34.2863 32.4597C34.1353 32.0725 33.8048 31.7702 33.3705 31.6664C33.1816 31.6191 33.04 31.553 32.9267 31.4019C32.6057 30.9486 32.1241 30.807 31.6237 30.6842C30.5284 30.4009 29.4332 30.3159 28.4984 30.3631C27.6958 30.3631 27.0632 30.3159 26.44 30.3725C23.4941 30.6559 20.8787 31.8175 18.5749 33.6118C16.5543 35.1796 15.0624 37.2006 14.1654 39.6277C13.7028 40.8649 13.3534 42.1115 13.429 43.4809C13.4762 44.312 13.5989 45.1525 13.5706 45.9836C13.5423 46.8807 13.7405 47.7024 14.0616 48.5146C14.2693 49.0434 14.5242 49.5629 14.647 50.1201C15.0813 52.075 16.2899 53.4821 17.7723 54.7004C18.4615 55.2671 19.1319 55.8904 20.01 56.1831C22.2289 56.9103 24.4855 57.1842 26.8272 56.882C28.6211 56.6553 30.3112 56.0226 32.0675 55.6637C32.6529 55.5409 33.1911 55.2482 33.6632 54.861C35.6932 53.2271 37.5816 51.4422 39.4322 49.6101C39.6872 49.3551 39.7533 49.0717 39.7155 48.7129C39.555 47.2963 39.6588 45.8985 40.0837 44.5386ZM38.9696 16.6503C38.4503 16.0081 38.1764 15.3659 38.1198 14.6199C38.082 14.1193 37.9593 13.6093 37.7799 13.1371C37.4588 12.2872 37.2889 11.4183 37.185 10.5211C37.1284 10.0112 36.9868 9.52007 36.6657 9.10454C36.2031 8.50956 35.8254 7.86736 35.4477 7.22517C35.1456 6.70574 34.8151 6.19577 34.3524 5.80856C32.8228 4.5525 31.3121 3.26811 29.5653 2.33314C28.3284 1.67206 27.0254 1.04876 25.5903 1.03931C22.9559 1.02043 20.416 1.51151 17.9895 2.57869C17.3757 2.84312 16.8375 3.22089 16.4032 3.73087C16.2899 3.86309 16.0916 4.01419 16.1955 4.19363C16.4126 4.54306 16.186 4.76027 16.0161 4.99637C15.7989 5.28914 15.6761 5.62912 15.544 5.95966C15.0435 7.27238 14.883 8.64177 14.968 10.0206C15.053 11.5128 14.8925 12.9388 14.3543 14.346C13.9011 15.5454 13.8255 16.8109 13.9672 18.0669C14.1088 19.3702 14.6375 20.4846 15.9878 21.004C16.441 21.1835 16.7998 21.5046 17.1774 21.7973C18.6693 22.9495 20.1517 24.1111 21.974 24.7439C22.5594 24.9422 23.1637 25.2444 23.6074 25.6599C24.3062 26.321 25.0804 26.4816 25.9868 26.406C26.5533 26.3588 27.1199 26.3777 27.6958 26.3494C28.5078 26.321 29.2821 26.151 30.0374 25.8016C30.7361 25.4805 31.4632 25.1783 32.2563 25.1216C33.2005 25.065 33.1911 25.0461 33.3799 24.1017C33.7576 22.1184 34.5035 20.3146 36.052 18.9358C36.2125 18.7941 36.3636 18.6525 36.4202 18.4352C36.5619 17.9158 36.9773 17.6797 37.4211 17.4814C37.931 17.2359 38.4408 16.9998 38.9696 16.6503ZM33.6726 30.9864C33.5782 30.5897 33.4838 30.1837 33.3799 29.787C33.1061 28.7104 32.955 27.6243 33.0494 26.5005C33.125 25.6788 33.0117 25.5844 32.1808 25.6505C31.9731 25.6694 31.7559 25.6599 31.5859 25.8111C31.2083 26.1416 30.7267 26.236 30.2735 26.3588C28.7439 26.7743 27.7619 27.7849 27.1387 29.2015C26.9593 29.617 26.9971 29.7398 27.4692 29.7587C28.1868 29.7964 28.9044 29.7492 29.622 29.7964C31.0194 29.9098 32.4357 30.0042 33.6726 30.9864ZM28.1207 26.8971C26.9216 26.7838 25.713 26.8782 25.222 27.1049C25.6469 27.7093 26.1096 28.2854 26.4212 29.022C27.0066 28.2854 27.5542 27.6054 28.1207 26.8971ZM24.9293 30.0231C26.0435 29.7776 26.1096 29.6831 25.5714 28.6443C25.5147 28.5404 25.4581 28.4365 25.3825 28.3326C24.4195 27.001 23.2675 25.8394 21.719 25.2633C19.9345 24.6022 18.4427 23.535 16.9886 22.3734C16.035 21.6085 14.9208 21.1362 13.8161 20.749C12.0032 20.1068 10.1526 20.3335 8.41525 21.2307C8.01869 21.4385 7.63157 21.6651 7.235 21.8823C5.45991 22.8551 3.80757 23.9506 2.6462 25.6788C2.19299 26.3494 1.93806 27.0482 1.82475 27.8321C1.79643 28.0398 1.75866 28.2476 2.03247 28.3515C2.62732 28.5782 2.77838 29.0787 2.77838 29.6548C2.77838 29.9003 2.7595 30.0987 3.13718 30.1175C3.48654 30.1459 3.40155 30.4386 3.17494 30.5236C2.75005 30.6842 2.51401 31.0053 2.2874 31.3547C2.01358 31.7797 1.9475 32.3936 1.27711 32.4691C1.22046 32.4785 1.17324 32.6108 1.14491 32.6863C0.606717 34.1502 0.210167 35.6234 0.993853 37.1156C1.4754 38.0411 1.93804 38.9949 2.54233 39.8355C3.30713 40.9121 4.22301 41.8471 5.46935 42.4231C7.21612 43.2259 9.03844 43.4242 10.908 43.4809C11.2667 43.4809 11.6255 43.4809 11.9843 43.4809C12.041 43.4809 12.1071 43.4809 12.1637 43.4809C12.9097 43.4431 12.9946 43.377 13.0135 42.6498C13.023 42.1965 13.0513 41.7526 13.1646 41.3182C13.75 38.9949 14.7131 36.87 16.3182 35.0379C18.6315 32.3841 21.5302 30.7786 24.9293 30.0231Z" fill="black"/>
<path d="M77.8164 43.302C78.1103 44.6152 77.8259 45.8623 77.3993 47.0905C77.1718 47.7424 76.859 48.3659 76.5936 48.9989C76.5083 49.1973 76.3851 49.4051 76.404 49.5941C76.5178 50.6427 75.8637 51.3041 75.1812 51.852C74.0153 52.7968 72.764 53.6376 71.4654 54.3934C70.3468 55.0453 69.105 55.2531 67.8253 55.2626C67.1618 55.272 67.1239 55.1492 67.3419 54.5068C67.6831 53.5148 68.0149 52.5228 68.2424 51.493C68.5363 50.142 68.3372 48.8005 68.214 47.459C68.1097 46.3252 67.9486 45.201 67.6926 44.0862C67.4651 43.0848 67.0291 42.1778 66.4508 41.3181C65.7209 40.2222 64.9816 39.1357 64.0526 38.1815C63.0668 37.1706 62.0525 36.1975 60.6211 35.5456C61.2278 35.0449 61.825 34.8465 62.4885 34.8276C63.4649 34.8276 64.3844 34.6103 65.3133 34.3175C66.2707 34.0057 67.2376 33.9773 68.2235 34.3647C68.887 34.6292 69.6074 34.7709 70.3089 34.9221C71.4654 35.1677 72.5365 35.6023 73.5129 36.292C74.2996 36.8494 75.1338 37.3312 75.8827 37.9359C76.5462 38.4649 76.9538 39.1262 77.1055 39.9671C77.3046 41.0819 77.57 42.1872 77.8164 43.302Z" fill="#54466F"/>
<path d="M69.2659 18.2925C70.0064 20.879 70.072 23.4656 69.1628 26.0333C68.563 27.7451 67.9538 29.457 67.3539 31.1782C67.1383 31.8178 66.8103 32.3539 66.2198 32.7301C65.7699 33.0123 65.3669 33.3697 64.9264 33.6801C64.3734 34.0657 63.7548 34.2538 63.08 34.2444C62.0396 34.2256 61.0836 34.4796 60.24 35.1191C60.0151 35.2884 59.7901 35.3919 59.4996 35.3637C58.9747 35.3167 58.4405 35.2696 57.8594 35.0251C58.1687 34.4796 58.4217 34.0093 58.6935 33.5484C58.7498 33.4449 58.8248 33.2945 58.9091 33.2851C59.6214 33.1816 59.7058 32.5608 59.8932 32.0435C60.1182 31.3851 60.1838 30.7079 60.1557 30.0119C60.0713 27.9144 59.6027 25.8828 58.9279 23.8982C58.7591 23.3809 58.4967 22.9107 58.1406 22.5062C57.8219 22.1394 57.925 21.876 58.253 21.6127C58.2999 21.5751 58.3374 21.5374 58.3936 21.5092C59.8839 20.7003 60.7555 19.2707 61.8334 18.0479C62.5926 17.1826 62.7238 16.0445 63.0612 15.0005C63.1549 14.6901 63.2112 14.3703 63.3049 14.0505C63.4736 13.458 63.5767 13.3827 64.1859 13.4862C64.4203 13.5238 64.6546 13.5991 64.8608 13.7025C66.5291 14.5678 67.9256 15.7436 68.891 17.3895C69.0504 17.6717 69.1722 17.9727 69.2659 18.2925Z" fill="#54466F"/>
<path d="M67.6385 47.6921C67.7233 48.8183 67.9212 49.9539 67.7139 51.099C67.5159 52.1968 67.252 53.2946 66.7713 54.2788C66.121 55.6132 65.169 56.7394 63.8023 57.4208C63.0483 57.7993 62.3508 58.2157 61.6722 58.7268C60.0039 59.9854 58.1188 60.8088 56.1112 61.3672C55.2346 61.6037 54.3298 61.5091 53.4344 61.4996C51.7661 61.5753 50.1449 61.3482 48.5991 60.6763C46.6858 59.834 45.0081 58.67 43.6979 57.0138C43.566 56.853 43.4057 56.711 43.2738 56.5501C42.4915 55.6321 41.8317 54.6574 41.5301 53.446C41.2567 52.3104 40.842 51.2126 40.5593 50.0769C40.0597 48.0328 39.9278 45.9602 40.8892 44.0107C41.6715 42.4208 42.746 41.0107 44.009 39.752C44.3106 39.4492 44.6593 39.3451 45.074 39.4397C47.8828 40.0549 50.5408 39.4587 53.1516 38.4744C53.8868 38.2 54.5466 37.812 55.0933 37.2252C55.6399 36.629 56.3657 36.2315 56.9877 35.7205C57.2234 35.5218 57.4779 35.5312 57.7512 35.588C58.656 35.7678 59.5703 35.9287 60.4751 36.1085C60.9181 36.1937 61.3235 36.4019 61.6722 36.6952C63.0577 37.8498 64.2736 39.1464 65.3481 40.6132C66.9033 42.7331 67.4594 45.1464 67.6385 47.6921ZM44.1881 54.9318C44.3954 54.8277 44.3294 54.6384 44.254 54.4681C44.2163 54.3829 44.1692 54.3072 44.1315 54.222C43.7168 53.323 43.2172 52.4523 43.5283 51.3735C43.4906 51.2504 43.4717 51.099 43.4152 50.9665C43.1324 50.2851 42.8591 49.5848 42.548 48.9129C42.4161 48.6195 42.3501 48.0706 41.9071 48.241C41.5489 48.3829 41.8034 48.8372 41.9165 49.1211C42.171 49.7362 42.3218 50.446 42.2559 51.0328C42.1993 51.5817 42.2558 51.894 42.6234 52.2252C42.6706 52.2725 42.68 52.3955 42.6894 52.4807C42.8025 53.3703 43.5 53.976 43.8205 54.7615C43.877 54.894 44.0278 55.017 44.1881 54.9318Z" fill="#54466F"/>
<path d="M62.9315 11.0181C63.064 11.7829 63.0451 12.5666 62.8558 13.3408C62.6569 14.1529 62.4676 14.9649 62.2877 15.7864C62.0983 16.6267 61.7102 17.3443 61.1421 17.9958C60.1196 19.1667 59.1444 20.3847 57.7906 21.2251C57.4497 21.4328 57.2888 21.4233 57.0521 21.1401C56.6071 20.6113 56.2095 20.0637 55.6698 19.6104C54.742 18.8267 53.6059 18.4018 52.555 17.8353C51.8639 17.4576 51.2011 17.0611 50.6236 16.5323C50.065 16.0224 49.4212 15.7486 48.6827 15.6731C47.6413 15.5598 46.6093 15.2765 45.5584 15.3331C43.5891 15.437 41.6009 15.5409 39.7358 16.3057C39.6601 16.334 39.5654 16.3246 39.4518 16.3435C39.0163 14.6722 38.8743 12.9915 38.9595 11.2919C38.9689 11.1125 38.9879 10.9142 38.9216 10.7631C38.4956 9.72448 38.7417 8.75193 39.1962 7.81715C39.7926 6.58967 40.5879 5.50381 41.6767 4.66346C44.8957 2.17072 48.5028 0.726065 52.6023 0.556105C53.3219 0.527779 53.9656 0.669414 54.5716 1.06599C55.026 1.35869 55.5089 1.59475 56.0107 1.80248C56.645 2.0763 57.2509 2.41623 57.7338 2.9261C58.5101 3.72869 59.4001 4.38964 60.3563 4.95618C61.322 5.52271 61.9279 6.35362 62.1836 7.41114C62.4771 8.6103 62.7327 9.80946 62.9315 11.0181Z" fill="#54466F"/>
<path d="M59.5148 30.4971C59.5242 30.9223 59.5148 31.3192 59.0628 31.5838C58.752 31.7633 58.639 32.1413 58.4883 32.472C58.3282 32.8311 58.1775 33.1901 58.0268 33.5492C57.5654 34.6358 56.6142 35.2595 55.7666 35.9776C55.4276 36.2705 55.0321 36.4973 54.7401 36.8375C54.2128 37.4422 53.5535 37.8391 52.8096 38.0942C50.9637 38.7367 49.1085 39.3509 47.1308 39.2187C45.1343 39.0769 43.1567 38.784 41.3014 37.943C41.1602 37.8769 41.0189 37.8296 40.8965 37.7446C39.2767 36.554 37.6663 35.3823 36.0653 34.1728C35.3402 33.6248 35.0576 32.7649 34.728 31.9806C34.0782 30.431 33.4661 28.8624 33.5509 27.2088C33.5697 25.2529 33.9464 23.4481 34.6339 21.7189C35.1989 20.2826 36.2537 19.281 37.4308 18.3928C38.2407 17.7786 39.1354 17.2778 40.0301 16.8054C40.3785 16.6164 40.7458 16.4935 41.1319 16.4274C43.5899 16.0116 46.0478 15.8132 48.5152 16.3613C49.1462 16.4935 49.7206 16.692 50.1821 17.155C51.0956 18.0621 52.2445 18.5912 53.3746 19.1204C54.5706 19.6779 55.4465 20.5755 56.3694 21.4921C57.8856 23.004 58.6107 24.8088 59.0063 26.8687C59.2323 28.0687 59.4771 29.2687 59.5148 30.4971ZM53.9208 34.0311C54.0433 33.9366 54.2504 33.8327 54.1186 33.6059C53.9867 33.5397 53.8831 33.6059 53.789 33.672C51.8772 35.1177 49.7677 36.1099 47.404 36.5446C46.9142 36.639 46.4339 36.8469 45.9631 37.0359C45.0684 37.395 44.1643 37.6784 43.1849 37.6596C43.0154 37.6596 42.8176 37.6217 42.6481 37.9336C43.7029 38.0848 44.6635 37.9336 45.5864 37.5556C46.5281 37.1682 47.4887 36.8375 48.4964 36.6674C50.5682 36.3272 52.2916 35.2689 53.9208 34.0311Z" fill="#82769B"/>
<path d="M54.3165 33.5538C54.4494 33.781 54.2406 33.8851 54.1172 33.9798C52.4748 35.2199 50.7376 36.2801 48.6491 36.6209C47.6334 36.7913 46.6651 37.1226 45.7158 37.5107C44.7854 37.8894 43.8171 38.0408 42.7539 37.8894C42.9248 37.577 43.1241 37.6149 43.295 37.6149C44.2823 37.6338 45.1936 37.3498 46.0955 36.9901C46.5701 36.8008 47.0543 36.5925 47.5479 36.4978C49.9307 36.0624 52.0571 35.0684 53.9842 33.6201C54.0792 33.5538 54.1836 33.4876 54.3165 33.5538Z" fill="black"/>
<path d="M48.0401 73.2193C48.3608 76.2205 47.2856 78.7009 45.0031 80.6417C44.6825 80.9163 44.3901 81.2097 44.0977 81.5127C43.0696 82.592 41.919 83.4251 40.3439 83.605C39.2592 83.7281 38.184 84.031 37.0805 83.9079C34.666 84.315 32.5439 83.2736 30.3463 82.6298C29.6295 82.4216 29.0919 81.8157 28.46 81.4275C26.1021 79.9885 24.2724 78.0287 23.0274 75.5577C22.1974 73.9104 21.7918 72.1211 21.5749 70.2844C21.5466 70.0383 21.6315 69.8111 21.707 69.5839C22.4238 67.5389 23.2255 65.5413 24.3761 63.6952C25.1401 62.4834 26.0078 61.3946 27.3471 60.7887C27.4791 60.7319 27.6112 60.6467 27.7338 60.552C28.6015 59.9177 29.5635 59.5864 30.6576 59.558C32.0912 59.5201 33.4871 59.113 34.9396 59.1319C35.9488 59.1414 36.9485 59.2455 37.8256 59.6716C39.4573 60.4668 41.2022 61.0633 42.6641 62.1899C43.0413 62.4834 43.4092 62.7958 43.7299 63.1461C44.2769 63.7425 44.7956 64.3674 45.3144 64.9827C45.5313 65.2384 45.7011 65.5224 45.8237 65.8253C46.814 68.2111 47.7666 70.6253 48.0401 73.2193ZM44.8522 79.9695C46.8894 78.2086 47.7383 75.9459 47.4648 73.2951C47.2007 70.7578 46.2764 68.4099 45.3049 66.0809C45.2295 65.8916 45.1352 65.6738 44.9937 65.5413C44.3995 64.9827 43.9845 64.2727 43.4375 63.6762C43.013 63.2123 42.5698 62.7484 42.0039 62.4644C41.6266 62.2751 41.3059 61.7165 40.7589 62.1804C40.674 62.2561 40.5231 62.1331 40.4571 62.0384C39.9289 61.1958 39.0046 60.9023 38.1935 60.4763C37.288 60.0029 36.3072 59.7473 35.2697 59.7284C34.0341 59.7094 32.8269 59.9745 31.6102 60.0503C30.0728 60.1449 28.7052 60.5331 27.4037 61.3662C26.4794 61.9627 25.6682 62.6443 25.0646 63.5532C23.9045 65.2762 23.0463 67.1602 22.2917 69.101C22.1502 69.4703 22.0465 69.8395 22.0842 70.2466C22.1691 71.1744 22.254 72.1022 22.5464 72.9921C23.6593 76.4098 25.6871 79.0985 28.7713 80.9541C29.3372 81.295 29.837 81.7967 30.4407 81.9955C32.525 82.7056 34.5812 83.6334 36.9674 83.3399C38.0237 83.4346 39.1366 83.1695 40.259 83.0275C41.702 82.8381 42.7584 82.0997 43.6921 81.0961C44.0599 80.6985 44.4467 80.3293 44.8522 79.9695Z" fill="black"/>
<path d="M47.4933 73.3849C47.7666 76.0258 46.9183 78.2799 44.8825 80.0342C44.4772 80.3926 44.0908 80.7604 43.7232 81.1566C42.7901 82.1563 41.7344 82.892 40.2924 83.0806C39.1708 83.2221 38.0586 83.4862 37.003 83.3919C34.6184 83.6842 32.5636 82.76 30.4807 82.0526C29.8774 81.8545 29.3779 81.3546 28.8124 81.0151C25.7303 79.1665 23.7039 76.4879 22.5917 73.0831C22.2995 72.1965 22.2147 71.2722 22.1299 70.3479C22.0922 69.9423 22.1958 69.5745 22.3372 69.2067C23.0913 67.2732 23.9489 65.3963 25.1083 63.6797C25.7115 62.7743 26.522 62.0952 27.4457 61.501C28.7464 60.6711 30.1131 60.2844 31.6494 60.19C32.8653 60.1146 34.0717 59.8505 35.3064 59.8694C36.3432 59.8882 37.3234 60.1429 38.2283 60.6145C39.0388 61.0389 39.9625 61.3313 40.4903 62.1707C40.5563 62.265 40.7071 62.3876 40.7919 62.3122C41.3386 61.85 41.659 62.4065 42.0361 62.5951C42.6016 62.8781 43.0446 63.3402 43.4687 63.8024C44.0154 64.3966 44.4301 65.1039 45.0239 65.6604C45.1652 65.7924 45.2595 66.0094 45.3349 66.198C46.3057 68.5182 47.2294 70.8572 47.4933 73.3849ZM27.6531 67.6788C28.803 67.0374 29.3685 66.0565 29.3308 64.7267C29.3214 64.4531 29.3213 64.1891 29.3025 63.9155C29.2836 63.6892 29.1894 63.5006 28.9255 63.5006C28.6804 63.51 28.5391 63.6515 28.4825 63.8778C28.4542 63.991 28.4354 64.1136 28.4165 64.2268C28.2186 65.3586 27.6625 65.9528 26.5409 66.2263C26.3807 66.2734 26.1922 66.3583 26.2582 66.5092C26.5315 67.1412 25.9942 67.2732 25.6644 67.509C25.2025 67.8485 24.637 67.9806 24.0903 68.1315C23.8924 68.1881 23.6568 68.3013 23.817 68.5748C24.0715 69.0181 24.7407 69.2255 25.2119 68.9898C26.0319 68.5748 26.8425 68.1315 27.6531 67.6788Z" fill="#82769B"/>
<path d="M44.1541 54.5821C44.2287 54.7541 44.2941 54.9452 44.0887 55.0503C43.9301 55.1362 43.7807 55.012 43.7247 54.8783C43.4074 54.0853 42.7167 53.4738 42.6047 52.5757C42.5953 52.4897 42.586 52.3655 42.5393 52.3177C42.1753 51.9833 42.1193 51.668 42.1753 51.1138C42.2407 50.5215 42.0913 49.8049 41.8393 49.1839C41.7273 48.8972 41.4753 48.4386 41.83 48.2953C42.2686 48.1233 42.334 48.6775 42.4647 48.9737C42.7727 49.652 43.0433 50.359 43.3234 51.047C43.3794 51.1807 43.398 51.3336 43.4354 51.4578C43.1274 52.547 43.622 53.426 44.0327 54.3337C44.0701 54.4197 44.1167 54.4961 44.1541 54.5821Z" fill="black"/>
<path d="M43.8591 39.0961C42.5959 40.3152 41.6772 41.5902 40.6342 42.921C40.3184 41.8135 40.261 40.734 39.9356 39.7103C39.6007 38.6773 38.9404 37.7653 38.7012 36.6578C40.1462 37.9421 41.8304 38.6959 43.8591 39.0961Z" fill="#2C1F46"/>
<path d="M40.1611 43.9065C40.1988 44.1526 40.1517 44.3891 40.0763 44.6162C39.6523 45.9788 39.5486 47.3793 39.7088 48.7986C39.7465 49.1582 39.6805 49.4421 39.4261 49.6976C37.5791 51.5333 35.6945 53.3217 33.6684 54.9587C33.1973 55.3467 32.6601 55.64 32.0759 55.763C30.3231 56.1226 28.6363 56.7566 26.8459 56.9837C24.5089 57.2865 22.2567 57.0121 20.0422 56.2835C19.1659 55.9901 18.4968 55.3656 17.8089 54.7979C16.3294 53.5772 15.1232 52.1673 14.6898 50.2086C14.5673 49.6503 14.3128 49.1298 14.1055 48.5999C13.7851 47.7862 13.5872 46.9629 13.6155 46.064C13.6438 45.2313 13.5213 44.3891 13.4741 43.5564C13.3988 42.1844 13.7474 40.9353 14.2092 39.6958C15.1044 37.2639 16.5933 35.2389 18.6099 33.6682C20.9092 31.8703 23.5195 30.7064 26.4596 30.4225C27.0815 30.3658 27.7129 30.4131 28.5139 30.4131C29.4468 30.3658 30.5399 30.4509 31.633 30.7348C32.1324 30.8578 32.613 30.9997 32.9334 31.4539C33.0465 31.6053 33.1878 31.6716 33.3763 31.7189C33.8098 31.823 34.1396 32.1258 34.2904 32.5137C34.705 33.6019 35.5531 34.3116 36.3824 35.0497C37.2776 35.8445 37.9561 36.7624 38.5215 37.86C39.5109 39.7809 39.803 41.8437 40.1611 43.9065ZM32.9805 50.2937C33.1219 50.0761 32.9428 49.9531 32.7826 49.8774C31.812 49.4326 30.9734 48.6756 29.8331 48.6378C29.6918 48.6378 29.5221 48.5905 29.4185 48.5053C29.0887 48.2309 28.7212 48.1647 28.2783 48.2877C27.7883 48.1836 27.3925 48.5242 26.9307 48.6946C25.178 49.3569 24.066 50.6911 23.0766 52.1767C22.9541 52.366 22.8787 52.5836 23.1425 52.7066C23.3593 52.8107 23.4629 52.6215 23.5477 52.4606C23.9058 51.7982 24.3676 51.2116 24.8859 50.6627C25.5738 49.9436 26.3842 49.6313 27.3831 49.7638C28.3254 49.8868 29.296 50.0004 30.1535 49.3948C30.4551 49.1866 30.7189 49.3475 30.9828 49.4894C31.5105 49.7638 32.0382 50.0477 32.5753 50.3126C32.7072 50.3789 32.8769 50.4546 32.9805 50.2937Z" fill="#54466F"/>
<path d="M38.0363 14.7058C38.093 15.453 38.3666 16.0961 38.8856 16.7392C38.3572 17.0892 37.8476 17.3256 37.338 17.5715C36.8945 17.7701 36.4793 18.0066 36.3378 18.5267C36.2811 18.7443 36.1302 18.8861 35.9697 19.028C34.4221 20.4088 33.6766 22.2152 33.2992 24.2013C33.1104 25.1471 33.1199 25.166 32.1762 25.2228C31.3835 25.2795 30.6569 25.5822 29.9586 25.9037C29.2037 26.2537 28.4299 26.4239 27.6183 26.4523C27.0427 26.4806 26.4765 26.4617 25.9103 26.509C25.0044 26.5847 24.2306 26.4239 23.5323 25.7619C23.0888 25.3457 22.4848 25.0431 21.8997 24.8445C20.0785 24.2108 18.5969 23.0475 17.1059 21.8937C16.7285 21.6005 16.3699 21.2789 15.9169 21.0992C14.5675 20.5791 14.039 19.463 13.8975 18.1579C13.7559 16.9 13.8314 15.6327 14.2844 14.4316C14.8223 13.0224 14.9827 11.5943 14.8978 10.0999C14.8129 8.71912 14.9733 7.34776 15.4734 6.03314C15.6055 5.70212 15.7282 5.36165 15.9452 5.06846C16.1151 4.83202 16.3416 4.61449 16.1245 4.26456C16.0207 4.08486 16.2189 3.93354 16.3321 3.80113C16.7662 3.29041 17.3041 2.9121 17.9175 2.64728C20.3427 1.57857 22.8812 1.08677 25.514 1.10569C26.9483 1.11515 28.2506 1.73935 29.4868 2.40139C31.2325 3.3377 32.7424 4.62395 34.2711 5.88182C34.7335 6.26958 35.0638 6.7803 35.3658 7.30047C35.7432 7.94359 36.1207 8.58672 36.5831 9.18255C36.904 9.59869 37.0455 10.0905 37.1021 10.6012C37.2059 11.4997 37.3758 12.3698 37.6966 13.221C37.8759 13.6939 37.9986 14.2046 38.0363 14.7058ZM19.9936 13.6655C19.9369 13.0602 19.8803 12.3792 19.7671 11.6983C19.6916 11.216 19.484 10.7998 18.9555 10.6201C18.4459 10.4499 18.2761 10.5539 18.3421 11.0835C18.3988 11.5281 18.5592 11.9537 18.6158 12.3982C18.7385 13.3439 18.7102 14.2424 17.7005 14.772C17.4645 14.895 17.2286 15.0936 17.2758 15.3962C17.323 15.6989 17.2569 15.9164 17.0682 16.1339C16.9738 16.2474 16.9361 16.4082 17.0871 16.5312C17.2286 16.6352 17.3702 16.5784 17.5023 16.5028C17.7288 16.3704 17.9458 16.1907 18.1912 16.1056C19.7482 15.5381 19.8803 15.2355 19.9936 13.6655Z" fill="#54466F"/>
<path d="M33.4347 29.7504C33.5385 30.1463 33.6329 30.5515 33.7273 30.9474C32.4907 29.9672 31.0747 29.873 29.6776 29.7599C28.9602 29.7127 28.2428 29.7599 27.5253 29.7222C27.0533 29.7033 27.0156 29.5808 27.1949 29.1661C27.818 27.7524 28.7997 26.7439 30.3289 26.3292C30.7821 26.2067 31.2635 26.1124 31.6411 25.7826C31.811 25.6318 32.0281 25.6412 32.2358 25.6223C33.0665 25.5564 33.1798 25.6506 33.1043 26.4706C33.0099 27.5921 33.1609 28.676 33.4347 29.7504Z" fill="#2C1F46"/>
<path d="M32.7392 49.696C32.9005 49.7702 33.0807 49.8908 32.9384 50.1043C32.8341 50.262 32.6634 50.1878 32.5306 50.1228C31.99 49.863 31.4589 49.5846 30.9279 49.3155C30.6623 49.1763 30.3968 49.0186 30.0933 49.2227C29.2303 49.8166 28.2535 49.7052 27.3051 49.5846C26.2998 49.4547 25.4842 49.7609 24.7919 50.4662C24.2703 51.0044 23.8056 51.5797 23.4452 52.2293C23.3599 52.3871 23.2556 52.5727 23.0374 52.4706C22.7719 52.35 22.8477 52.1365 22.971 51.9509C23.9668 50.494 25.0859 49.1856 26.8499 48.536C27.3146 48.369 27.7129 48.0349 28.206 48.137C28.6518 48.0163 29.0216 48.0813 29.3536 48.3504C29.4579 48.4339 29.6286 48.4803 29.7709 48.4803C30.9184 48.5174 31.7624 49.2598 32.7392 49.696Z" fill="black"/>
<path d="M29.1203 64.581C29.1577 65.8962 28.5964 66.8664 27.4553 67.5007C26.6509 67.9484 25.8465 68.3869 25.0327 68.7973C24.565 69.0305 23.9009 68.8253 23.6483 68.3869C23.4893 68.1163 23.7232 68.0044 23.9196 67.9484C24.4621 67.7992 25.0233 67.6686 25.4817 67.3328C25.809 67.0996 26.3422 66.969 26.071 66.344C26.0055 66.1947 26.1926 66.1108 26.3516 66.0641C27.4647 65.7936 28.0165 65.2059 28.213 64.0866C28.2317 63.9746 28.2504 63.8534 28.2784 63.7414C28.3345 63.5175 28.4749 63.3776 28.718 63.3683C28.98 63.3683 29.0735 63.5548 29.0922 63.7787C29.1109 64.0492 29.1109 64.3104 29.1203 64.581Z" fill="black"/>
<path d="M25.6618 28.6835C26.2016 29.7191 26.1353 29.8132 25.0178 30.058C21.6086 30.8112 18.7012 32.4116 16.3811 35.0571C14.7711 36.8835 13.8052 39.0018 13.218 41.3178C13.1044 41.7508 13.076 42.1933 13.0665 42.6452C13.0476 43.3701 12.9624 43.436 12.2142 43.4737C12.1574 43.4737 12.0911 43.4737 12.0343 43.4737C11.6744 43.4737 11.3146 43.4737 10.9547 43.4737C9.0796 43.4172 7.25186 43.2195 5.49989 42.4193C4.24983 41.845 3.33123 40.9129 2.56415 39.8397C1.95806 39.0018 1.49404 38.0509 1.01106 37.1283C0.225039 35.6408 0.62277 34.1722 1.16257 32.7129C1.19098 32.6376 1.23834 32.5058 1.29516 32.4964C1.96754 32.421 2.03383 31.8091 2.30846 31.3855C2.53574 31.0371 2.77249 30.717 3.19864 30.557C3.42593 30.4722 3.51117 30.1804 3.16077 30.1522C2.78197 30.1333 2.8009 29.9356 2.8009 29.6908C2.8009 29.1166 2.64939 28.6176 2.05277 28.3916C1.77814 28.2881 1.81602 28.081 1.84443 27.8738C1.95808 27.0924 2.21376 26.3958 2.66833 25.7273C3.83315 24.0045 5.49041 22.9124 7.27079 21.9427C7.66854 21.7262 8.05681 21.5002 8.45456 21.2931C10.1971 20.3987 12.0532 20.1728 13.8715 20.8129C14.9795 21.1989 16.097 21.6697 17.0534 22.4322C18.5118 23.5902 20.0081 24.6541 21.798 25.3131C23.3511 25.8874 24.5064 27.0454 25.4724 28.3728C25.5481 28.4764 25.605 28.5799 25.6618 28.6835Z" fill="#54466F"/>
<path d="M19.8729 11.6601C19.9839 12.3451 20.0394 13.0301 20.0948 13.639C19.9839 15.2183 19.8544 15.5228 18.3288 16.0936C18.0884 16.1792 17.8757 16.36 17.6538 16.4932C17.5244 16.5693 17.3857 16.6264 17.247 16.5217C17.099 16.398 17.136 16.2363 17.2285 16.1221C17.4134 15.9033 17.4781 15.6845 17.4319 15.3801C17.3857 15.0756 17.6168 14.8758 17.848 14.7521C18.8373 14.2194 18.8651 13.3155 18.7449 12.3642C18.6894 11.917 18.5322 11.4889 18.4767 11.0417C18.412 10.509 18.5784 10.4043 19.0777 10.5755C19.5955 10.7563 19.7989 11.1749 19.8729 11.6601Z" fill="black"/>
</svg>
