<svg width="61" height="92" viewBox="0 0 61 92" fill="none" xmlns="http://www.w3.org/2000/svg">
<g clip-path="url(#clip0_189_147061)">
<path d="M28.6657 34.4442C28.6657 34.4442 28.6225 34.4442 28.5937 34.4442C27.7441 34.401 27.0961 33.6954 27.1249 32.8458C27.1393 32.4858 27.5281 24.0044 28.9393 16.2573C30.8977 5.5151 37.1904 0.532785 37.4496 0.316789C38.1264 -0.201602 39.0911 -0.0864038 39.6095 0.590384C40.1279 1.25277 40.0127 2.21756 39.3359 2.73595C39.2639 2.79355 33.3312 9.08624 32.2513 18.6765C30.9985 29.7931 30.2065 32.8746 30.2065 32.961C30.1633 33.7818 29.4865 34.4298 28.6657 34.4298V34.4442Z" fill="#50A822"/>
<path d="M40.5024 14.0686C40.1136 15.8829 39.48 17.7261 38.5584 19.5261C34.5265 27.4747 26.7794 31.6363 21.2643 28.8283C20.0259 28.1947 18.5859 37.9577 22.8483 40.1177C28.3634 42.9257 36.1104 38.7497 40.1424 30.8155C43.2815 24.6524 43.2383 18.0285 40.488 14.0686H40.5024Z" fill="#50A822"/>
<path d="M49.7182 13.8238C49.3294 15.6381 48.6958 17.4813 47.7742 19.2813C43.7423 27.2299 35.9952 31.3915 30.4801 28.5835C29.2417 27.9499 27.8018 37.7129 32.0641 39.8729C37.5792 42.6809 45.3263 38.5049 49.3582 30.5707C52.4973 24.4076 52.4541 17.7837 49.7038 13.8238H49.7182Z" fill="#50A822"/>
<path d="M19.9828 14.0686C20.3716 15.8829 21.0052 17.7261 21.9267 19.5261C25.9587 27.4747 33.7057 31.6363 39.2208 28.8283C40.4592 28.1947 41.8992 37.9577 37.6369 40.1177C32.1218 42.9257 24.3747 38.7497 20.3428 30.8155C17.2036 24.6524 17.2468 18.0285 19.9972 14.0686H19.9828Z" fill="#50A822"/>
<path d="M10.767 13.8238C11.1558 15.6381 11.7893 17.4813 12.7109 19.2813C16.7429 27.2299 24.4899 31.3915 30.005 28.5835C31.2434 27.9499 32.6834 37.7129 28.4211 39.8729C22.9059 42.6809 15.1589 38.5049 11.127 30.5707C7.98781 24.4076 8.03101 17.7837 10.7814 13.8238H10.767Z" fill="#50A822"/>
<path d="M28.6807 89.8688C24.1735 91.6112 19.0904 89.3648 17.3481 84.8577C15.6057 80.3506 17.8521 75.2675 22.3592 73.5251C26.8663 71.7828 31.9494 74.0291 33.6918 78.5362C35.4341 83.0434 33.1878 88.1265 28.6807 89.8688Z" fill="#9E0007"/>
<path d="M33.6914 78.5362C31.949 74.0291 26.8803 71.7828 22.3588 73.5251C20.1556 74.3747 18.4996 76.0163 17.5781 78.0034C17.4197 79.3714 17.5781 80.797 18.1109 82.165C19.8532 86.6721 24.9219 88.9185 29.4435 87.1761C31.6466 86.3265 33.3026 84.6849 34.2242 82.6978C34.3826 81.3298 34.2242 79.9042 33.6914 78.5362Z" fill="#C52228"/>
<path d="M49.9777 49.8663C54.813 49.8663 58.7327 45.9466 58.7327 41.1113C58.7327 36.276 54.813 32.3562 49.9777 32.3562C45.1424 32.3562 41.2227 36.276 41.2227 41.1113C41.2227 45.9466 45.1424 49.8663 49.9777 49.8663Z" fill="#9E0007"/>
<path d="M49.9777 32.3562C45.1394 32.3562 41.2227 36.273 41.2227 41.1113C41.2227 43.4728 42.1586 45.604 43.685 47.188C44.909 47.836 46.2914 48.196 47.7601 48.196C52.5985 48.196 56.5152 44.2792 56.5152 39.4409C56.5152 37.0793 55.5792 34.9482 54.0528 33.3642C52.8289 32.7162 51.4465 32.3562 49.9777 32.3562Z" fill="#C52228"/>
<path d="M39.3507 45.388C44.186 45.388 48.1058 41.4682 48.1058 36.633C48.1058 31.7977 44.186 27.8779 39.3507 27.8779C34.5155 27.8779 30.5957 31.7977 30.5957 36.633C30.5957 41.4682 34.5155 45.388 39.3507 45.388Z" fill="#C52228"/>
<path d="M53.3617 75.9299C53.3617 80.7682 49.4449 84.6849 44.6066 84.6849C39.7683 84.6849 35.8516 80.7682 35.8516 75.9299C35.8516 71.0916 39.7683 67.1748 44.6066 67.1748C49.4449 67.1748 53.3617 71.0916 53.3617 75.9299Z" fill="#9E0007"/>
<path d="M44.592 67.1748C39.7536 67.1748 35.8369 71.0916 35.8369 75.9299C35.8369 78.2914 36.7729 80.4226 38.2993 82.0066C39.5232 82.6546 40.9056 83.0146 42.3744 83.0146C47.2127 83.0146 51.1294 79.0978 51.1294 74.2595C51.1294 71.898 50.1935 69.7668 48.6671 68.1828C47.4431 67.5348 46.0607 67.1748 44.592 67.1748Z" fill="#C52228"/>
<path d="M38.256 65.6341C33.4177 65.6341 29.501 69.5508 29.501 74.3891C29.501 76.7507 30.437 78.8818 31.9633 80.4658C33.1873 81.1138 34.5697 81.4738 36.0385 81.4738C40.8768 81.4738 44.7935 77.557 44.7935 72.7187C44.7935 70.3572 43.8575 68.226 42.3312 66.642C41.1072 65.994 39.7248 65.6341 38.256 65.6341Z" fill="#C52228"/>
<path d="M24.2453 44.6248C29.0806 44.6248 33.0003 40.705 33.0003 35.8698C33.0003 31.0345 29.0806 27.1147 24.2453 27.1147C19.41 27.1147 15.4902 31.0345 15.4902 35.8698C15.4902 40.705 19.41 44.6248 24.2453 44.6248Z" fill="#C52228"/>
<path d="M12.841 49.7367C17.6763 49.7367 21.596 45.817 21.596 40.9817C21.596 36.1464 17.6763 32.2266 12.841 32.2266C8.00571 32.2266 4.08594 36.1464 4.08594 40.9817C4.08594 45.817 8.00571 49.7367 12.841 49.7367Z" fill="#C52228"/>
<path d="M9.38493 59.3414C14.2202 59.3414 18.14 55.4216 18.14 50.5863C18.14 45.751 14.2202 41.8313 9.38493 41.8313C4.54965 41.8313 0.629883 45.751 0.629883 50.5863C0.629883 55.4216 4.54965 59.3414 9.38493 59.3414Z" fill="#C52228"/>
<path d="M11.9484 71.25C16.7837 71.25 20.7035 67.3302 20.7035 62.4949C20.7035 57.6596 16.7837 53.7399 11.9484 53.7399C7.11313 53.7399 3.19336 57.6596 3.19336 62.4949C3.19336 67.3302 7.11313 71.25 11.9484 71.25Z" fill="#C52228"/>
<path d="M43.3535 87.3777C41.0639 91.64 35.7504 93.2384 31.4881 90.9488C27.2257 88.6593 25.6274 83.3458 27.9169 79.0834C30.2065 74.8211 35.52 73.2227 39.7823 75.5123C44.0447 77.8018 45.643 83.1154 43.3535 87.3777Z" fill="#9E0007"/>
<path d="M39.7818 75.5123C35.5195 73.2227 30.206 74.8211 27.9164 79.0834C26.7932 81.157 26.606 83.4897 27.2108 85.5921C27.974 86.7297 29.0252 87.7089 30.3212 88.4145C34.5835 90.704 39.897 89.1057 42.1866 84.8433C43.3097 82.7698 43.4969 80.437 42.8922 78.3346C42.129 77.1971 41.0778 76.2179 39.7818 75.5123Z" fill="#C52228"/>
<path d="M58.1141 61.6453C60.0725 66.066 58.0709 71.25 53.6358 73.1939C49.2151 75.1523 44.0312 73.1507 42.0872 68.7156C40.1289 64.2949 42.1304 59.111 46.5655 57.167C51.0007 55.223 56.1702 57.2102 58.1141 61.6453Z" fill="#9E0007"/>
<path d="M46.566 57.167C42.1453 59.1254 40.1437 64.2949 42.0877 68.7156C43.0381 70.8756 44.766 72.4451 46.782 73.2803C48.15 73.3811 49.5756 73.1507 50.9147 72.5603C55.3355 70.602 57.337 65.4325 55.3931 61.0117C54.4427 58.8518 52.7147 57.2822 50.6987 56.447C49.3308 56.3462 47.9052 56.5766 46.566 57.167Z" fill="#C52228"/>
<path d="M50.4959 65.5477C50.4959 67.0308 49.2863 68.2404 47.8031 68.2404C46.3199 68.2404 45.1104 67.0308 45.1104 65.5477C45.1104 64.0645 46.3199 62.8549 47.8031 62.8549C49.2863 62.8549 50.4959 64.0645 50.4959 65.5477Z" fill="#DB696C"/>
<path d="M44.6072 72.5891C44.6072 74.0723 43.3976 75.2819 41.9144 75.2819C40.4313 75.2819 39.2217 74.0723 39.2217 72.5891C39.2217 71.106 40.4313 69.8964 41.9144 69.8964C43.3976 69.8964 44.6072 71.106 44.6072 72.5891Z" fill="#DB696C"/>
<path d="M60.9076 54.0422C60.9076 58.8806 56.9908 62.7973 52.1525 62.7973C47.3142 62.7973 43.3975 58.8806 43.3975 54.0422C43.3975 49.2039 47.3142 45.2872 52.1525 45.2872C56.9908 45.2872 60.9076 49.2039 60.9076 54.0422Z" fill="#9E0007"/>
<path d="M52.1525 45.2872C47.3142 45.2872 43.3975 49.2039 43.3975 54.0422C43.3975 56.4038 44.3334 58.535 45.8598 60.1189C47.0838 60.7669 48.4662 61.1269 49.9349 61.1269C54.7733 61.1269 58.69 57.2102 58.69 52.3719C58.69 50.0103 57.754 47.8792 56.2276 46.2952C55.0037 45.6472 53.6213 45.2872 52.1525 45.2872Z" fill="#C52228"/>
<path d="M47.3858 69.0324C44.9666 73.2227 39.6243 74.6771 35.4196 72.2579C31.2149 69.8388 29.7749 64.4821 32.194 60.2918C34.6132 56.1014 39.9555 54.6471 44.1602 57.0662C48.3506 59.4854 49.8049 64.8421 47.3858 69.0324Z" fill="#9E0007"/>
<path d="M44.1599 57.0806C39.9696 54.6614 34.6129 56.1158 32.1937 60.3062C31.0129 62.3509 30.7681 64.6693 31.3009 66.8004C32.0353 67.9668 33.0577 68.9748 34.3249 69.7092C38.5152 72.1283 43.8719 70.674 46.2911 66.4836C47.4719 64.4389 47.7167 62.1205 47.1839 59.9894C46.4495 58.823 45.4271 57.815 44.1599 57.0806Z" fill="#C52228"/>
<path d="M51.3894 50.4423C51.3894 51.9255 50.1798 53.1351 48.6967 53.1351C47.2135 53.1351 46.0039 51.9255 46.0039 50.4423C46.0039 48.9592 47.2135 47.7496 48.6967 47.7496C50.1798 47.7496 51.3894 48.9592 51.3894 50.4423Z" fill="#DB696C"/>
<path d="M35.9096 63.7621C37.3967 63.7621 38.6023 62.5565 38.6023 61.0693C38.6023 59.5822 37.3967 58.3766 35.9096 58.3766C34.4224 58.3766 33.2168 59.5822 33.2168 61.0693C33.2168 62.5565 34.4224 63.7621 35.9096 63.7621Z" fill="#DB696C"/>
<path d="M38.9328 59.6006C43.7681 59.6006 47.6878 55.6808 47.6878 50.8455C47.6878 46.0102 43.7681 42.0905 38.9328 42.0905C34.0975 42.0905 30.1777 46.0102 30.1777 50.8455C30.1777 55.6808 34.0975 59.6006 38.9328 59.6006Z" fill="#9E0007"/>
<path d="M38.9328 42.0761C34.0945 42.0761 30.1777 45.9928 30.1777 50.8311C30.1777 53.1927 31.1137 55.3238 32.6401 56.9078C33.8641 57.5558 35.2464 57.9158 36.7152 57.9158C41.5535 57.9158 45.4703 53.9991 45.4703 49.1607C45.4703 46.7992 44.5343 44.668 43.0079 43.084C41.7839 42.4361 40.4016 42.0761 38.9328 42.0761Z" fill="#C52228"/>
<path d="M18.0968 58.7078C22.9321 58.7078 26.8519 54.788 26.8519 49.9527C26.8519 45.1174 22.9321 41.1977 18.0968 41.1977C13.2616 41.1977 9.3418 45.1174 9.3418 49.9527C9.3418 54.788 13.2616 58.7078 18.0968 58.7078Z" fill="#C52228"/>
<path d="M36.2839 80.7826C36.2839 82.2658 35.0744 83.4753 33.5912 83.4753C32.108 83.4753 30.8984 82.2658 30.8984 80.7826C30.8984 79.2994 32.108 78.0898 33.5912 78.0898C35.0744 78.0898 36.2839 79.2994 36.2839 80.7826Z" fill="#DB696C"/>
<path d="M17.2043 81.6178C22.0395 81.6178 25.9593 77.698 25.9593 72.8627C25.9593 68.0274 22.0395 64.1077 17.2043 64.1077C12.369 64.1077 8.44922 68.0274 8.44922 72.8627C8.44922 77.698 12.369 81.6178 17.2043 81.6178Z" fill="#C52228"/>
<path d="M25.0232 79.3858C25.0232 80.869 23.8136 82.0786 22.3304 82.0786C20.8473 82.0786 19.6377 80.869 19.6377 79.3858C19.6377 77.9026 20.8473 76.6931 22.3304 76.6931C23.8136 76.6931 25.0232 77.9026 25.0232 79.3858Z" fill="#DB696C"/>
<path d="M33.7351 78.493C30.1351 81.7186 24.5912 81.4162 21.3657 77.8018C18.1402 74.2019 18.4425 68.658 22.0569 65.4325C25.6568 62.2069 31.2007 62.5093 34.4263 66.1236C37.6518 69.738 37.3494 75.2675 33.7351 78.493Z" fill="#9E0007"/>
<path d="M34.4258 66.1236C31.2003 62.5237 25.6564 62.2069 22.0565 65.4325C20.2997 67.002 19.3349 69.1332 19.1621 71.3076C19.4933 72.6467 20.1413 73.9139 21.1205 75.0083C24.346 78.6082 29.8899 78.925 33.4899 75.6995C35.2466 74.1299 36.2114 71.9987 36.3842 69.8244C36.053 68.4852 35.405 67.218 34.4258 66.1236Z" fill="#C52228"/>
<path d="M17.7224 48.7864C17.7224 50.2695 16.5128 51.4791 15.0297 51.4791C13.5465 51.4791 12.3369 50.2695 12.3369 48.7864C12.3369 47.3032 13.5465 46.0936 15.0297 46.0936C16.5128 46.0936 17.7224 47.3032 17.7224 48.7864Z" fill="#DB696C"/>
<path d="M27.8308 70.4148C27.8308 71.8979 26.6212 73.1075 25.1381 73.1075C23.6549 73.1075 22.4453 71.8979 22.4453 70.4148C22.4453 68.9316 23.6549 67.722 25.1381 67.722C26.6212 67.722 27.8308 68.9316 27.8308 70.4148Z" fill="#DB696C"/>
<path d="M39.9988 48.0088C39.9988 49.4919 38.7892 50.7015 37.306 50.7015C35.8229 50.7015 34.6133 49.4919 34.6133 48.0088C34.6133 46.5256 35.8229 45.316 37.306 45.316C38.7892 45.316 39.9988 46.5256 39.9988 48.0088Z" fill="#DB696C"/>
<path d="M49.863 38.6633C49.863 40.1465 48.6535 41.3561 47.1703 41.3561C45.6871 41.3561 44.4775 40.1465 44.4775 38.6633C44.4775 37.1801 45.6871 35.9706 47.1703 35.9706C48.6535 35.9706 49.863 37.1801 49.863 38.6633Z" fill="#DB696C"/>
<path d="M6.46131 52.5015C7.94847 52.5015 9.15406 51.2959 9.15406 49.8087C9.15406 48.3216 7.94847 47.116 6.46131 47.116C4.97414 47.116 3.76855 48.3216 3.76855 49.8087C3.76855 51.2959 4.97414 52.5015 6.46131 52.5015Z" fill="#DB696C"/>
<path d="M10.2631 41.5433C11.7502 41.5433 12.9558 40.3377 12.9558 38.8505C12.9558 37.3634 11.7502 36.1578 10.2631 36.1578C8.7759 36.1578 7.57031 37.3634 7.57031 38.8505C7.57031 40.3377 8.7759 41.5433 10.2631 41.5433Z" fill="#DB696C"/>
<path d="M24.1882 32.8746C24.1882 34.3578 22.9787 35.5674 21.4955 35.5674C20.0123 35.5674 18.8027 34.3578 18.8027 32.8746C18.8027 31.3914 20.0123 30.1819 21.4955 30.1819C22.9787 30.1819 24.1882 31.3914 24.1882 32.8746Z" fill="#DB696C"/>
<path d="M10.8392 63.6325C12.3264 63.6325 13.532 62.4269 13.532 60.9397C13.532 59.4526 12.3264 58.247 10.8392 58.247C9.35207 58.247 8.14648 59.4526 8.14648 60.9397C8.14648 62.4269 9.35207 63.6325 10.8392 63.6325Z" fill="#DB696C"/>
<path d="M16.7 72.1715C16.7 73.6547 15.4904 74.8643 14.0072 74.8643C12.524 74.8643 11.3145 73.6547 11.3145 72.1715C11.3145 70.6884 12.524 69.4788 14.0072 69.4788C15.4904 69.4788 16.7 70.6884 16.7 72.1715Z" fill="#DB696C"/>
<path d="M39.4802 33.033C39.4802 34.5162 38.2707 35.7258 36.7875 35.7258C35.3043 35.7258 34.0947 34.5162 34.0947 33.033C34.0947 31.5499 35.3043 30.3403 36.7875 30.3403C38.2707 30.3403 39.4802 31.5499 39.4802 33.033Z" fill="#DB696C"/>
<path d="M31.6897 65.8645C27.989 68.9892 22.4594 68.514 19.3491 64.8133C16.2244 61.1125 16.6995 55.583 20.4003 52.4727C24.101 49.3479 29.6305 49.8231 32.7409 53.5239C35.8656 57.2246 35.3904 62.7541 31.6897 65.8645Z" fill="#9E0007"/>
<path d="M32.7263 53.5095C29.6016 49.8087 24.0721 49.3479 20.3858 52.4583C18.5858 53.9847 17.549 56.0726 17.333 58.247C17.621 59.5862 18.2402 60.8821 19.1906 62.0053C22.3153 65.7061 27.8448 66.1669 31.5312 63.0565C33.3311 61.5301 34.3679 59.4422 34.5839 57.2678C34.2815 55.9286 33.6767 54.6327 32.7263 53.5095Z" fill="#C52228"/>
<path d="M23.3529 59.2838C24.8401 59.2838 26.0457 58.0782 26.0457 56.591C26.0457 55.1038 24.8401 53.8983 23.3529 53.8983C21.8657 53.8983 20.6602 55.1038 20.6602 56.591C20.6602 58.0782 21.8657 59.2838 23.3529 59.2838Z" fill="#DB696C"/>
<path d="M27.0539 53.5815C31.8892 53.5815 35.8089 49.6617 35.8089 44.8264C35.8089 39.9911 31.8892 36.0714 27.0539 36.0714C22.2186 36.0714 18.2988 39.9911 18.2988 44.8264C18.2988 49.6617 22.2186 53.5815 27.0539 53.5815Z" fill="#9E0007"/>
<path d="M27.0539 36.0714C22.2156 36.0714 18.2988 39.9881 18.2988 44.8264C18.2988 47.188 19.2348 49.3191 20.7612 50.9031C21.9852 51.5511 23.3675 51.9111 24.8363 51.9111C29.6746 51.9111 33.5914 47.9944 33.5914 43.156C33.5914 40.7945 32.6554 38.6633 31.129 37.0793C29.905 36.4314 28.5226 36.0714 27.0539 36.0714Z" fill="#C52228"/>
<path d="M27.198 43.4008C27.198 44.884 25.9884 46.0936 24.5053 46.0936C23.0221 46.0936 21.8125 44.884 21.8125 43.4008C21.8125 41.9177 23.0221 40.7081 24.5053 40.7081C25.9884 40.7081 27.198 41.9177 27.198 43.4008Z" fill="#DB696C"/>
</g>
<defs>
<clipPath id="clip0_189_147061">
<rect width="60.2774" height="92" fill="white" transform="translate(0.629883)"/>
</clipPath>
</defs>
</svg>
