<svg width="110" height="72" viewBox="0 0 110 72" fill="none" xmlns="http://www.w3.org/2000/svg">
<g clip-path="url(#clip0_187_146651)">
<path d="M64.3648 51.6784C64.3648 51.6784 71.0734 55.8543 76.5759 56.9698C82.0784 58.0854 92.2392 58.2362 97.9829 53.6382C103.727 49.0402 109.048 43.0251 109.335 37.0251C109.621 31.0251 106.305 26.6533 106.305 26.6533C106.305 26.6533 108.943 26.3065 109.516 20.0653C110.088 13.8241 104.978 9.37688 102.958 7.49246C100.923 5.59296 93.4603 3.04522 93.4603 3.04522C93.4603 3.04522 90.8674 -0.15076 85.2141 1.35678C79.5608 2.86432 71.9628 6.93467 67.6965 12.8744C63.4302 18.8141 62.0282 21.9347 62.0282 21.9347C62.0282 21.9347 55.9679 27.0452 56.2844 33.3166C56.601 39.5879 59.9779 44.4271 59.9779 44.4271C59.9779 44.4271 59.4955 50.8342 64.395 51.6784H64.3648Z" fill="#DDD31D"/>
<path d="M75.2188 53.0352C76.8318 54.3317 78.0831 54.1809 79.9524 54.7085C81.0228 55.0251 83.1182 56.804 83.2238 54.6482C84.3544 55.7035 85.1082 55.3869 86.2087 54.407C88.1383 56.0955 90.4449 54.1507 92.3293 53.2462C92.7062 53.0653 93.4298 52.9598 94.0328 52.6281C94.4399 52.402 94.8318 51.9045 95.2992 51.6482C96.5806 50.9698 97.7112 50.3065 98.9625 49.4171C99.4298 49.0854 99.8971 49.5226 100.349 48.9799C100.681 48.5729 100.591 47.7136 100.802 47.4271C101.359 46.6432 102.309 46.3869 103.214 45.4975C104.103 44.608 104.646 43.3417 105.174 42.2563C105.822 40.9447 106.153 40.5829 105.746 38.7889C105.746 38.7889 105.385 39.0151 105.339 39.0301C107.435 37.809 105.068 33.2714 103.485 32.6683L103.349 32.7739C102.882 35.3819 101.118 37.1156 99.5052 38.8945C97.5755 41.005 95.8117 43.1306 93.3092 44.6231C88.0027 47.7889 81.4147 53.7889 75.2188 53.005V53.0352Z" fill="#D8C512"/>
<path d="M75.5959 6.99496C73.2893 8.30652 72.1436 10.0251 70.214 11.7889C69.2491 12.6633 69.1888 12.9799 68.7064 13.9899C68.4803 14.4874 68.6612 14.6382 68.1034 15.3618C67.5908 15.7538 67.0933 16.1156 66.6562 16.5377L68.0883 15.3919C67.7114 15.8593 67.1084 16.2211 66.5959 16.598C66.0682 17.1105 65.6009 17.7136 65.3145 18.5126C75.2491 11.7588 87.0381 10.0251 98.1788 13.0703C97.5908 11.3216 96.5657 9.4824 95.4803 7.95979C94.5758 6.69346 91.9074 3.12059 90.415 4.37185C89.4954 2.83416 87.8521 2.08039 86.224 2.39697C85.3044 2.57788 84.7165 3.24119 83.8722 3.4824C83.1034 3.69346 82.1386 3.31657 81.3848 3.603C80.4954 3.94974 79.7868 4.98994 78.8672 5.5628C77.7667 6.25627 76.6964 6.3618 75.5959 6.99496Z" fill="#D8C512"/>
<path d="M66.3994 16.7337C66.3994 16.7337 66.5351 16.6432 66.5954 16.598C66.6105 16.5829 66.6406 16.5527 66.6557 16.5377L66.3994 16.7337Z" fill="#D8C512"/>
<path d="M66.5955 24.2261C65.2991 25.2362 66.4448 25.5226 65.8568 26.7136C65.0729 28.2663 61.892 27.603 63.5654 30.1507C62.2086 30.6332 59.7815 30.3166 59.2689 32.2462C59.088 32.9246 59.6156 33.3317 59.5855 33.8442C59.5403 34.7035 58.8468 35.6683 58.9523 36.4975C59.0277 37.1457 59.7061 37.4774 59.8116 37.9598C59.9473 38.593 59.6307 38.9849 59.6609 39.7085C59.7061 40.6432 60.0679 41.9849 60.1583 42.8894L60.5654 44.2311C59.6006 46.1759 61.1232 46.3116 62.2237 46.9598C63.0981 47.4724 63.7312 49.1306 64.6207 49.4774C65.7362 49.9146 67.3795 48.5126 68.5553 48.5879C69.3694 48.6332 69.8217 49.3116 70.5001 49.4171C71.4046 49.5678 71.6006 48.8894 72.3996 48.7688C73.0779 48.6633 73.7262 49.1759 74.4649 49.0402C75.1131 48.9196 75.5051 48.211 76.093 47.9548C77.4649 47.3819 78.294 46.9598 79.6659 45.995C80.3141 45.5427 79.9372 45.0151 80.8568 45.1357C81.5352 45.2261 81.897 46.4623 82.681 46.4472C83.9322 46.4472 85.7714 44.2915 85.485 42.8744C86.2237 42.2412 87.0377 42.8141 87.8518 42.3769C88.289 42.1357 88.5604 41.5176 88.9071 41.2914C89.284 41.0352 89.6307 41.0804 89.9021 40.9296C90.7614 40.4623 91.5905 40.2362 92.3292 39.5126C92.9322 38.9095 93.0981 38.1558 93.8066 37.6131C94.4699 37.1005 95.3744 37.3568 96.0076 36.799C97.0176 35.9246 96.3091 35.6533 96.7764 34.6734C97.2739 33.6482 100.53 31.5829 97.9373 30.5729C101.781 27.8593 93.4146 26.5327 93.294 26.1256C92.9774 25.1306 95.3594 23.2613 95.6759 22.1005C96.1282 20.3518 95.2689 19.9899 94.5001 19.1759C93.5051 18.1055 93.294 17.3668 91.9825 17.2161C90.6709 17.0804 89.1634 17.0352 87.9121 16.9146C86.1182 16.7337 85.8619 18.0904 84.4448 18.7538C83.2538 19.3115 82.5604 18.5729 81.3694 19.7487C79.1232 18.2412 76.9825 18.0754 74.9021 19.7337C73.2589 21.0452 71.5101 21.3769 69.8518 22.5829C69.4599 22.8693 69.5503 23.3216 69.1583 23.5779C68.48 24.0301 67.2136 23.7889 66.6408 24.2261H66.5955Z" fill="#D8C512"/>
<path d="M67.9683 33.4824C66.5361 34.6281 64.3502 35.7437 63.2346 37.2513C62.8728 37.7487 63.0085 38.397 62.7522 38.9246C62.3753 39.7387 61.8175 40.5829 61.4407 41.4573L60.7773 43.2513C61.9834 43.1608 67.2748 44.8794 68.3603 44.2915C70.2899 45.1206 72.2196 44.7889 74.0135 43.9447C77.5261 42.2864 80.4809 38.6683 81.702 38.0352C84.0386 36.8291 86.5864 36.4975 88.8326 35.0955C91.0487 33.7085 93.2045 32.2613 95.2246 30.4372C95.2547 30.2714 95.3301 29.7588 95.3452 29.5779C94.501 27.2864 91.6065 27.8141 89.9633 28.1457C91.1391 27.2261 95.2999 22.4774 93.5211 21.0905C92.7371 20.4724 88.3201 22.7487 87.1442 22.8995C84.4306 23.2462 81.7472 24.1508 79.0487 25.1307C74.9482 26.608 71.4356 30.6935 67.9683 33.4824Z" fill="#FCDB3D"/>
<path d="M94.8175 25.809C94.8175 25.809 100.199 23.5025 102.355 26.3065C104.496 29.1106 103.32 35.0804 97.6366 40.1307C91.9532 45.1809 80.918 51.0603 75.0537 52.6884C69.1894 54.3166 61.3652 49.8995 61.3652 49.8995C61.3652 49.8995 69.7924 54.1357 79.5763 49.3266C89.3451 44.5176 97.1391 39.9497 100.214 34.3116C101.752 31.4925 102.25 29.0804 101.451 27.5126C100.652 25.9447 98.526 25.2362 94.8326 25.809H94.8175Z" fill="#EDDE29"/>
<path d="M100.441 20.2914C100.441 20.2914 99.2346 14.7286 96.5361 13.8693C93.8376 13.0251 86.5562 12.5729 83.3301 13.402C80.1039 14.2311 74.3904 14.5327 71.3301 15.9799C68.2698 17.4271 63.1441 20.5779 61.4255 22.4774C59.7069 24.3618 57.8828 27.0603 57.8828 27.0603C57.8828 27.0603 62.6316 22.9447 69.0989 19.5226C75.5662 16.1005 74.9783 17.3216 80.2396 15.8744C85.4858 14.4271 92.4356 14.3216 95.7974 15.4824C99.1592 16.6281 99.0687 20.8945 98.3904 21.9497C97.712 22.9899 96.1893 23.7136 96.1893 23.7136C96.1893 23.7136 99.3853 23.9246 100.456 20.2914H100.441Z" fill="#EDDE29"/>
<path d="M100.395 12.3015C100.395 12.3015 98.9179 7.71859 96.1742 5.38191C93.4455 3.04523 92.541 2.26131 92.541 2.26131C92.541 2.26131 95.0285 2.90955 97.2144 4.92965C98.8877 6.48241 100.38 8.83417 100.395 12.3015Z" fill="#DDD319"/>
<path d="M64.1083 42C63.9274 42.1809 63.7314 42.3317 63.5203 42.4372C63.1284 42.6181 62.5555 42.4824 62.1183 42.6482C61.7565 42.7839 60.5505 43.0402 60.5806 43.7035C60.6259 44.5327 61.4098 43.9296 61.7264 44.0804C62.4952 44.4573 63.3997 45.3317 64.2289 45.4523C65.0882 45.5879 65.9475 44.8342 66.7917 45.2864C67.6058 45.7236 66.9123 46.9296 67.862 47.3367C68.3897 47.5779 70.0178 46.206 70.4098 45.8894C71.1334 47.2764 72.9123 47.1407 74.0731 46.7487C75.9123 46.1307 77.5103 43.9296 79.048 42.7387C80.1485 44.6834 81.7615 43.3719 82.9826 42.7688C84.5806 41.9849 86.2389 41.2764 87.852 39.8894C87.9877 39.7688 87.8821 39.1658 88.1535 38.9849C88.8168 38.5628 89.2992 38.9698 89.9625 38.6985C91.5605 38.0653 91.3796 36.8291 92.4349 35.5327C92.9475 34.8995 94.2289 34.6583 94.5756 33.9497C94.6962 33.7085 94.7716 31.8392 94.4399 32.1256C94.9826 31.6281 95.6007 31.191 96.1434 30.6935C95.45 29.593 96.8671 29.0352 95.9625 28.2965C95.4801 27.9045 93.1585 28.6131 92.5857 28.8241C91.4249 29.2764 90.7012 30.407 89.8419 31.0854C88.7867 31.9296 87.249 32.0201 88.2289 33.9347C86.857 31.598 84.6108 34.7638 83.9324 36.2111C82.6661 35.8643 80.7967 35.0503 80.0731 36.9648C79.7113 37.9296 80.1334 39.1508 80.6309 40.0251C79.862 38.7739 78.9726 36.7538 77.4952 37.0402C75.6108 37.4171 75.4751 39.4975 75.4751 41.1407C75.0078 40.3417 74.5404 39.5276 74.0279 38.7739C72.7917 39.0301 71.1937 39.3166 71.1183 41.0502C71.0882 41.8492 71.7063 44.0804 71.9776 44.8342C71.1786 43.6884 70.8319 41.4874 69.7465 40.6884C68.3294 39.6482 66.1133 41.1256 67.6208 42.7538C66.7012 42.3166 66.4299 40.9899 65.1937 41.2161C64.7414 41.2915 64.4249 41.6683 64.0932 41.9849L64.1083 42Z" fill="#FCEB4F"/>
<path d="M74.2396 24.4221C73.0185 25.5829 66.928 24.8744 68.2999 28.6884C66.913 28.8693 65.1341 29.8643 64.0185 30.9196C64.1843 31.1457 64.2898 31.5377 64.4707 31.7638C63.325 32.5779 60.6717 33.603 62.0285 35.6683C60.6265 37.0402 61.4557 39.0754 62.0888 40.6583C63.129 39.995 64.1994 39.5427 65.1341 38.5779C65.7823 37.9296 66.2496 38.3517 66.129 37.1909C66.0687 36.6181 65.2396 35.9246 64.9833 35.5025C66.0084 35.5779 67.4707 36.6935 68.6315 37.01C68.6315 36.0754 68.5863 34.809 68.4959 33.995C68.9481 34.2965 69.3401 34.7035 69.6567 35.1708C70.2295 34.809 70.3501 34.7337 70.3049 34.0703C73.124 34.2211 71.2848 31.9749 72.4607 30.6181C73.1692 31.4321 73.9532 32.4573 75.0386 32.3367C76.0939 32.2311 77.2697 30.9045 76.6215 29.6533C76.516 29.6533 77.9481 29.7588 77.7521 29.9698C77.9632 29.7286 78.129 28.6281 78.0537 28.6734C78.7622 28.1759 77.8125 28.2512 79.0486 28.4321C79.516 28.5075 79.7572 29.1708 80.2697 29.2311C83.4808 29.593 80.4356 25.8543 81.0084 24.6181C82.2748 26.412 84.6567 29.8643 86.2697 26.4723C86.9934 27.1055 87.4607 26.3065 88.1391 25.7789C88.9682 25.1457 88.712 25.2965 89.9029 24.9799C91.6366 24.5126 93.9733 23.2462 94.6818 21.211C92.7521 20.3216 90.5662 21.3015 88.6667 20.608C88.1391 20.412 87.732 19.8392 87.2346 19.7035C85.1843 19.1156 83.7974 19.9146 82.2295 21.1658C81.9431 21.3919 81.8376 22.2965 81.6114 22.4171C80.8275 22.8392 79.8175 22.0854 79.0336 22.1306C78.4607 22.1608 77.6014 22.6432 77.1793 22.6281C76.32 22.598 75.9582 21.8894 75.0235 22.3718C74.1491 22.8241 73.5009 23.4723 74.2697 24.4522L74.2396 24.4221Z" fill="#FCEB4F"/>
<path d="M72.7772 12.2864C71.2245 13.3266 68.0586 14.4271 67.7119 16.8844C67.7119 16.8844 72.5963 13.402 78.1893 12.5126C81.1893 12.0301 84.0385 11.8492 87.0385 11.9548C88.6215 12 90.0084 11.4271 91.5461 11.3668C92.9632 11.3065 94.4104 11.9397 95.7973 11.9548C95.0586 8.47235 90.5963 5.29145 87.7622 5.11054C85.8777 4.98994 83.9481 5.54773 82.2446 6.25627C81.1591 6.70853 78.9431 6.5427 79.139 8.30652C77.2245 8.53265 76.7873 8.3819 75.2948 9.57285C74.4506 10.2362 72.6566 11.1558 72.7772 12.3015V12.2864Z" fill="#F2DE2A"/>
<path d="M93.4004 46.5226C91.5913 47.8492 89.4205 48.6482 87.5361 49.7186C85.4104 50.9246 83.6918 51.8593 81.4004 52.3568L82.4406 52.2814C83.1491 53.2161 84.9883 53.5477 86.0587 53.1708C86.6466 52.9598 87.0687 52.0854 87.6567 51.8744C88.2748 51.6482 88.4255 52.0553 89.0436 51.9648C90.7622 51.7236 93.7622 50.8643 95.2245 49.5528C95.0888 49.3417 94.9984 49.0854 94.8627 48.8894C95.6617 48.1055 101.104 47.8492 99.6416 45.5879C100.124 45.1357 100.863 44.9548 101.285 44.4874C102.159 43.5226 101.677 43.5075 102.039 42.6633C102.611 41.3367 103.727 40.6734 104.27 39.2864C103.35 37.7487 104.978 35.9095 104.209 34.1457C102.928 34.8241 101.315 38.2161 100.23 39.4673C97.9833 42.0754 96.0989 44.5477 93.3853 46.5377L93.4004 46.5226Z" fill="#F2DE2A"/>
<path d="M108.038 33.4824C108.038 33.4824 107.993 33.392 107.963 33.3618L108.385 34.2814C108.385 34.2814 108.385 34.2362 108.37 34.2211C108.264 33.9799 108.144 33.7236 108.038 33.4824Z" fill="#7D8907"/>
<path d="M100.546 12.603C100.44 12.407 100.334 12.2111 100.214 12.0151C100.319 12.2261 100.44 12.4221 100.546 12.603Z" fill="#7D8907"/>
<path d="M100.862 18.4372C100.289 17.5779 99.7766 16.6281 99.1887 15.799C99.2791 17.1105 99.9575 18.3467 100.033 19.8693C100.154 22.5377 98.661 23.2915 96.8369 24.6935C102.43 23.4422 105.716 28.3869 108.053 33.4975C108.204 33.7236 108.309 33.9648 108.385 34.2362C108.475 34.4322 108.566 34.6432 108.656 34.8392L108.4 34.2965C108.611 35.0804 108.611 36.0301 108.596 36.8593C109.621 32.9095 108.294 30.2261 106.44 26.8342C110.39 24.2111 110.405 17.804 107.947 13.8693C108.4 16.3719 107.254 19.8543 105.279 21.2412C105.249 21.196 105.249 20.9698 105.159 20.8492C104.767 21.3618 104.224 21.9347 103.636 22.2362C103.41 21.4673 103.711 20.4874 103.621 19.7337C103.485 18.7538 103.048 17.397 102.777 16.4322C102.324 14.8342 101.375 13.8995 100.591 12.603C101.601 14.4874 101.947 16.2211 100.907 18.4372H100.862Z" fill="#BCBC0F"/>
<path d="M98.4658 23.8794L98.9181 24.2714C99.9432 24.3467 101.978 24.9196 103.742 25.0101C104.918 25.0704 105.973 24.8894 106.501 24.196C106.38 24 106.29 23.7286 106.169 23.5327C106.426 23.2312 106.546 22.598 106.727 22.3568C105.838 22.3568 104.978 22.402 104.134 22.4774C102.747 22.598 101.39 22.8543 99.9432 23.397C100.471 22.6734 101.617 22.2513 101.451 20.9849C100.335 21.7538 99.3553 22.8995 98.4809 23.8794H98.4658Z" fill="#7C5827"/>
<path d="M61.4402 22.5075C59.7216 24.392 57.8975 27.0904 57.8975 27.0904C57.8975 27.0904 58.5909 26.4874 59.812 25.5528C60.3698 24.8291 60.9879 24.0452 61.606 23.3668C63.3246 21.4824 68.4502 18.3166 71.5105 16.8693C74.5708 15.4221 80.2995 15.1055 83.5105 14.2914C86.7216 13.4774 94.0181 13.9146 96.7166 14.7588C98.797 15.407 99.9728 18.8291 100.425 20.3819C100.425 20.3518 100.44 20.3367 100.455 20.3065C100.455 20.3065 99.2492 14.7437 96.5507 13.8844C93.8522 13.0251 86.5708 12.5879 83.3447 13.4171C80.1186 14.2462 74.405 14.5477 71.3447 15.995C68.2844 17.4422 63.1588 20.593 61.4402 22.4925V22.5075Z" fill="#BCBC0F"/>
<path d="M97.4557 39.8291C91.7723 44.8794 80.7371 50.7588 74.8728 52.3869C70.9381 53.4724 66.0989 51.8291 63.3552 50.6382C62.0889 50.2462 61.3652 49.8844 61.3652 49.8844C61.3652 49.8844 69.2044 54.3015 75.0537 52.6734C80.9029 51.0603 91.9532 45.1809 97.6366 40.1156C103.109 35.2462 104.405 29.5327 102.566 26.608C104.134 29.608 102.747 35.1105 97.4557 39.8141V39.8291Z" fill="#BCBC0F"/>
<path d="M60.4301 43.402C60.6562 43.206 60.9276 43.0402 61.1387 42.8141L61.0482 42.6633C64.199 40.1306 67.5758 39.2713 71.1939 38.1105C74.209 37.1306 76.9829 34.8844 79.9075 33.6332C82.5457 32.5025 85.0934 30.9497 87.6864 29.6834C89.9477 28.5829 92.6763 27.5729 94.5909 25.7186C91.7115 26.7739 88.9075 28.5528 86.1186 29.9246C83.6462 31.1457 80.7366 31.9296 78.2944 33.3769C75.7768 34.8543 73.3346 36.2261 70.7417 37.3417C68.3145 38.3819 65.7517 38.8643 63.4753 40.1306C62.405 40.7337 60.5206 41.9246 60.415 43.402H60.4301Z" fill="#EDD735"/>
<path d="M62.3296 32.3367C64.4251 33.9347 67.0633 34.598 69.8221 35.0653C70.0331 34.7789 70.2442 34.4774 70.4703 34.2211C71.6462 32.8945 75.7165 31.4171 75.4452 29.3065C73.5457 29.3367 69.7618 28.3417 69.5507 28.3568C67.6512 28.3719 65.7668 28.2814 63.8975 28.1306C62.3899 29.5327 61.0934 30.9497 62.3296 32.3518V32.3367Z" fill="#CEC33A"/>
<path d="M49.7565 63.2412C49.2289 65.6382 49.1836 67.8694 49.5304 69.8593C50.8419 69.9648 52.1535 70.1156 53.4651 70.5075C55.4098 71.0955 57.3997 71.6985 59.4349 71.397C59.8419 71.3367 63.656 71.5025 65.1786 71.1859C63.7465 69.995 62.7967 68.5025 62.1032 66.8442C57.4148 66.1809 52.9073 68.6382 49.7716 63.2412H49.7565Z" fill="#CEC33A"/>
<path d="M66.37 40.1608C67.6364 38.5779 68.6012 36.6784 69.8072 35.0653C67.0484 34.598 64.4102 33.9347 62.3147 32.3367C61.0936 30.9347 62.375 29.5176 63.8826 28.1156C63.5358 28.0854 63.174 28.0704 62.8273 28.0402C61.757 27.799 60.7469 27.6181 59.6615 27.603C58.8323 27.4673 57.9881 27.3015 57.1439 27.1206C55.5007 26.7588 53.8876 26.5628 52.1992 26.7437C51.7771 23.4874 51.2042 20.593 49.5308 17.4874C48.2494 15.0905 46.8776 12.7688 45.6112 10.3719C44.8424 8.90955 44.36 7.20603 43.8474 5.54774C40.4705 5.51759 37.0936 5.38191 33.7168 4.61307C33.4002 5.50251 33.0836 6.39196 32.6766 7.25126C31.5761 9.66332 29.7821 11.7286 28.3499 13.9146C26.164 17.2312 25.7268 20.593 25.9077 24.4221C22.8474 22.598 18.2946 23.6683 15.1137 24.0302C13.8173 24.1658 12.4906 24.2412 11.164 24.2261C10.1539 23.7889 4.5459 22.8543 3.35495 22.4925C2.4655 22.2211 2.01324 22.5226 1.27455 22.6131C0.882588 22.6583 0.535854 23.0955 0.792136 23.5176C3.41525 27.9648 6.2645 32.4121 7.78711 37.4472C8.35997 39.3015 8.93284 41.2462 10.1238 42.7839C11.4203 44.4422 13.0635 45.5276 14.7519 46.6583C12.8072 50.2613 11.4806 54.2714 11.0434 58.402C10.8173 60.5729 10.8625 62.6382 11.0886 64.809C11.2544 66.3467 11.0434 67.5528 10.0786 68.7588C9.4454 69.5427 8.79716 70.191 8.35997 71.1105C8.16399 71.5025 8.4052 72.0151 8.84239 72.0151C10.8625 71.9698 14.7821 71.6382 14.7369 71.7739C19.2142 71.7437 23.4354 70.4171 27.762 69.3618C30.5509 68.6683 33.2946 67.4171 35.5861 65.5327C36.0384 65.1709 36.4152 64.7487 36.7771 64.3116C37.365 64.9598 37.9831 65.593 38.6766 66.1508C40.6665 67.7186 42.9429 68.8191 45.37 69.3618C46.7419 69.6784 48.1288 69.7538 49.5007 69.8744C49.1539 67.8693 49.1992 65.6533 49.7268 63.2563C52.8625 68.6533 57.3851 66.196 62.0585 66.8593C59.4956 60.7538 60.5961 52.3869 55.3801 47.6683C57.7168 47.4121 59.4655 47.4422 61.3951 45.9648C63.37 44.4422 64.8173 42.0754 66.3549 40.1759L66.37 40.1608Z" fill="#DDD13A"/>
<path d="M41.8727 0.949744C41.8727 0.949744 38.8878 0.587935 36.4757 0.286428C36.0687 0.241202 35.7219 -0.120607 35.5109 0.286428C34.7722 1.65829 34.2747 3.13567 33.7471 4.59799C37.124 5.35175 40.5008 5.50251 43.8777 5.53266C43.3652 3.87437 42.8074 2.24623 41.8878 0.949744H41.8727Z" fill="#CEC33A"/>
<path d="M69.5504 28.9296C65.2388 28.9749 61.8318 28.7638 57.6107 27.8141C55.7715 27.392 54.1886 27.0603 52.2137 27.3166C50.3443 27.5578 48.4448 28.7487 46.6056 28.7789C46.1082 24.4673 45.7162 20.9548 43.6509 17.0955C42.3695 14.6985 40.9976 12.3769 39.7313 9.9799C38.1785 7.0402 37.8318 3.1809 35.9775 0.572861C34.681 2.83417 34.1986 5.71356 32.9021 8.0804C31.7262 10.2211 30.1735 12.1357 28.8619 14.1859C26.269 18.2261 26.1936 20.7588 26.5705 25.598C23.8117 22.6281 15.7011 24.9347 12.0529 24.7688C10.5604 24.6935 8.8569 24.6784 7.31921 24.4673C5.43479 24.2111 4.07801 22.9447 2.10313 22.8844L1.90715 23.1105C1.6961 23.1558 1.50012 23.1105 1.28906 23.1859C3.42977 26.8191 5.676 30.4673 7.36444 34.402C8.37449 36.7538 8.75137 39.5578 10.1685 41.7889C11.6157 44.0502 13.4247 44.9849 15.5202 46.4322C12.867 51.0151 11.284 56.9548 11.4348 62.3065C11.48 64.0704 12.083 66.1809 11.4046 67.7638C10.8469 69.1055 9.33931 70.0854 8.84183 71.3819C13.3192 71.3518 17.5403 70.0251 21.867 68.9698C24.6559 68.2764 27.3996 67.0251 29.6911 65.1407C31.4097 63.7387 32.2388 61.6131 33.8368 60.1357C35.4046 61.4774 36.3695 63.4372 37.9976 64.8392C40.1685 66.6935 42.6408 68.1859 45.5051 68.7588C47.6308 69.1809 49.6961 68.8794 51.6861 69.3769C53.7363 69.8894 57.1132 71.2462 59.2237 70.794C52.5001 65.1709 56.0881 53.2462 49.485 47.2613C51.8217 47.005 53.5705 47.0352 55.5001 45.5578C57.475 44.0352 58.9222 41.6683 60.4599 39.7688C61.9524 37.9146 63.0077 35.5779 64.5604 33.8291C65.7363 32.5025 69.8067 31.0251 69.5353 28.9146L69.5504 28.9296Z" fill="#F9C941"/>
<path d="M69.5506 28.3417C65.3446 28.3719 61.2742 28.0251 57.1587 27.1055C55.5154 26.7437 53.9024 26.5477 52.2139 26.7286C50.2692 26.9246 48.5506 28.0402 46.6059 28.191C46.7868 28.3869 46.9828 28.5829 47.1637 28.794C46.8923 26.4121 46.6059 24.0452 46.0481 21.7236C45.4451 19.2513 44.2843 17.0502 43.0783 14.8643C41.6763 12.3166 40.0933 9.85929 39.1587 7.07035C38.3747 4.74874 37.832 2.35176 36.4752 0.301505C36.234 -0.060304 35.7215 -0.10553 35.5104 0.301505C34.3195 2.50251 33.7617 4.98995 32.7215 7.25125C31.621 9.66331 29.827 11.7286 28.3948 13.9146C25.9828 17.5779 25.6964 21.2864 26.028 25.6281C26.3446 25.4925 26.6612 25.3417 26.9928 25.206C24.023 22.3266 18.7315 23.6231 15.1587 24.0151C12.4602 24.3166 9.61093 24.3166 6.94258 23.804C5.72148 23.5628 4.59083 22.8392 3.39987 22.4925C2.51042 22.2211 2.05816 22.5226 1.31947 22.6131C0.92751 22.6583 0.580776 23.0955 0.837058 23.5176C3.46017 27.9648 6.30942 32.4121 7.83203 37.4472C8.38982 39.3015 8.97776 41.2462 10.1687 42.7839C11.5858 44.593 13.4099 45.7236 15.2642 46.9749C15.2039 46.7035 15.1285 46.4322 15.0682 46.1608C12.9727 49.8844 11.5406 54.0905 11.0883 58.402C10.8622 60.5729 10.9074 62.6382 11.1335 64.8091C11.2994 66.3467 11.0883 67.5528 10.1235 68.7588C9.49032 69.5427 8.84208 70.191 8.4049 71.1105C8.20892 71.5025 8.45012 72.0151 8.88731 72.0151C13.8923 71.9096 19.0632 70.598 23.8421 69.0603C26.0732 68.3367 28.1536 67.1608 30.023 65.6985C31.7567 64.3266 32.7215 62.1558 34.2893 60.5879H33.4903C35.3747 62.3216 36.6863 64.5377 38.7215 66.1508C40.7114 67.7186 42.9878 68.8191 45.4149 69.3618C48.0984 69.9648 50.7969 69.7085 53.4803 70.5226C55.425 71.1105 57.4149 71.7136 59.4501 71.4121C59.8572 71.3518 60.0079 70.6884 59.6913 70.4171C52.9677 64.4925 56.4953 53.0955 49.9526 46.8844C49.817 47.2312 49.6813 47.5628 49.5607 47.8945C51.8069 47.6683 54.0984 47.5477 55.9677 46.0251C58.2592 44.1407 60.0531 41.5025 61.7868 39.0603C62.7667 37.6583 63.5808 36.1357 64.6059 34.7789C65.3446 33.799 66.3999 33.2412 67.3798 32.593C68.631 31.7789 70.1838 30.6935 70.1536 28.9447C70.1386 28.1759 69.0079 28.1759 69.023 28.9447C69.0682 30.6482 66.5355 31.7186 65.3898 32.4874C63.8371 33.5276 62.8722 35.1859 61.8773 36.7688C60.43 39.1055 58.7416 41.3367 56.9778 43.4171C54.8672 45.9045 52.5456 46.3869 49.5456 46.6884C49.0933 46.7337 48.7466 47.3216 49.1536 47.7136C55.6511 53.8794 52.0933 65.2462 58.8923 71.2462C58.9677 70.9146 59.0582 70.5829 59.1335 70.2513C57.0079 70.5678 54.7918 69.6633 52.7717 69.0754C50.4501 68.3819 48.0682 68.608 45.7014 68.2161C43.3496 67.8241 41.1938 66.5578 39.2793 65.1256C37.2893 63.6482 36.0984 61.4171 34.2742 59.7588C34.033 59.5477 33.7164 59.5176 33.4752 59.7588C32.0883 61.1608 31.1386 62.9397 29.7818 64.3719C28.1386 66.0905 25.6662 67.1608 23.5406 67.9296C18.9727 69.5578 13.7114 70.7487 8.88731 70.8543C9.05314 71.1558 9.20389 71.4573 9.36972 71.7437C10.1536 70.1457 11.6009 69.1809 12.1587 67.4322C12.7768 65.5176 12.0079 63.0452 12.023 61.0704C12.0833 56.0804 13.6511 51.0603 16.033 46.794C16.1989 46.5075 16.0933 46.1457 15.8371 45.9799C13.9376 44.6834 12.0381 43.5226 10.6964 41.5477C9.47525 39.7688 9.05314 37.4623 8.37475 35.4121C6.89736 30.9648 4.15364 26.9095 1.81696 22.9447C1.65113 23.2462 1.50037 23.5477 1.33455 23.8342C2.17877 23.7286 2.31444 23.5025 3.11344 23.6683C4.33454 23.9095 5.4652 24.6332 6.65615 24.9799C8.87223 25.6281 11.6009 25.5226 13.8923 25.3568C15.8974 25.206 17.9024 24.8894 19.9225 24.7688C21.9577 24.6332 24.5958 24.5126 26.2089 26.0804C26.5406 26.397 27.2039 26.2161 27.1737 25.6583C27.0079 23.5477 26.8722 21.4221 27.2642 19.3266C27.6863 17.1256 28.9074 15.2261 30.1134 13.4322C31.4702 11.4271 32.9476 9.52764 33.9577 7.29648C34.9074 5.21608 35.4049 2.9397 36.4903 0.90452H35.5255C36.822 2.86432 37.3798 5.15578 38.1034 7.38693C38.8119 9.58794 39.9426 11.5477 41.0582 13.5377C42.3848 15.9196 43.7868 18.2412 44.6612 20.8643C45.5054 23.4121 45.7768 26.1407 46.0783 28.794C46.1084 29.0955 46.3044 29.4121 46.6361 29.397C48.43 29.2462 50.0431 28.4774 51.7768 28.0251C53.8873 27.4673 56.1335 28.1156 58.1989 28.5678C61.9526 29.397 65.7667 29.593 69.5808 29.5628C70.3044 29.5628 70.3044 28.3719 69.5808 28.3719L69.5506 28.3417Z" fill="#FFD15F"/>
<path d="M63.1743 30.2563C61.2447 29.6683 59.0588 29.4271 56.9934 29.1709C54.7472 28.8995 53.5412 29.9698 51.4457 30.0904C49.9683 30.1809 48.4608 30.5729 46.9231 30.7688C46.1542 30.8744 45.4306 31.1608 44.6919 30.7688C44.9331 30.9045 43.2748 28.6281 43.3954 28.9598C42.9884 27.8141 43.3201 26.6834 43.1542 25.4925C43.0035 24.392 42.6568 24.0301 42.3552 23.0804C41.7372 21.1357 41.4206 19.2362 40.7874 17.4121C40.1693 15.6332 39.9733 13.6734 38.9784 11.9397C38.3603 10.8693 37.6065 10.3719 37.0487 9.39195C36.2949 8.09547 36.6417 5.60803 35.4959 4.98994C35.4507 6.58793 34.0638 9.10552 33.3552 10.4623C32.7824 11.5628 31.7271 12.407 31.1995 13.7638C30.8075 14.804 30.7321 15.8442 30.1894 16.794C29.4055 18.196 29.0135 18.1507 28.7422 19.7035C28.6668 20.1105 28.8779 21.3467 28.7874 21.9497C28.516 23.9095 28.2296 25.6884 28.1241 27.799C26.1944 28.1457 24.0085 27.2563 22.0035 27.1507C19.9834 27.0452 17.7221 26.9246 15.7171 27.1507C13.5311 27.407 12.0387 27.407 9.79243 27.3769C8.87283 27.3769 7.53112 27.6784 6.67183 27.3317C5.72208 26.9548 5.36027 25.8844 4.25977 25.794L4.84771 26.6985C5.63163 27.9045 6.73213 29.3216 7.36529 30.3467C8.17936 31.7035 8.37534 34.6281 10.1542 34.8693C9.97333 37.3869 11.4356 37.2663 12.31 38.9095C12.6568 39.5729 12.6115 40.9447 12.9281 41.4121C13.6517 42.4824 13.5311 41.8492 14.5261 42.3166C14.9331 42.5126 15.5211 42.2714 15.9884 42.4824C16.516 42.7085 16.0789 43.3417 16.3351 43.4774C16.7573 43.7035 18.2346 43.7186 18.4909 44.1859C18.3854 43.9899 17.8125 47.804 17.6919 48.2261C17.2095 49.8241 15.5211 50.1558 14.7824 51.5879C14.104 52.8995 14.6467 53.3668 14.5412 54.5427C14.4055 56.0502 14.1341 56.1708 13.6668 57.5126C12.2949 61.5226 14.2246 65.3819 12.3251 69.1357C14.1492 68.3065 15.8377 68.3367 17.6467 67.6281C18.4758 67.3116 19.1844 66.407 20.0437 66.1357C21.2045 65.7739 22.7422 66.8593 23.0588 64.9749C25.697 64.8693 27.2648 62.8492 28.9532 60.8744C29.6769 60.0301 30.7924 59.7286 31.5613 58.8543C32.6166 57.6482 32.4055 55.1759 33.6718 54.3467C34.2296 54.995 34.4708 56.1105 35.0437 56.6533C35.9784 57.5427 36.5361 57.0151 37.4708 57.6633C38.4356 58.3417 38.4055 59.3668 39.0839 60.3769C39.9583 61.6734 40.7723 61.5829 41.9181 62.2613C42.3251 62.5025 42.6115 62.1859 42.9884 62.5176C43.3954 62.8794 43.3804 63.6482 43.7874 64.0553C44.4809 64.7487 44.6166 64.9296 45.506 65.1859C46.305 65.4271 47.2849 65.2311 48.114 65.4121C49.9985 65.8342 51.8678 67.3869 53.7673 67.4322C53.511 66.0301 52.6668 64.8392 52.4105 63.392C52.2447 62.4573 52.5462 61.4171 52.4256 60.4673C52.1542 58.1457 50.8427 56.6985 49.8779 54.7538C49.5763 54.1507 49.3954 52.809 49.0487 52.2814C48.5512 51.5126 48.2196 51.7688 47.511 51.0904C46.3351 49.9749 45.5814 48.3769 46.1241 46.6583C47.5864 46.8995 49.8176 45.6784 51.0236 44.8794C52.0035 44.2312 52.1995 42.995 52.8477 42.3769C53.3603 41.8945 54.2045 41.9095 54.8226 41.608C56.9633 40.5678 59.3452 38.8191 60.1894 36.5126C61.4557 33.0603 62.2698 32.6533 65.0437 30.9497C64.5311 30.8593 63.7472 30.4673 63.1291 30.2864L63.1743 30.2563Z" fill="#F7E15C"/>
<path d="M63.3552 30.7085C59.9783 29.4422 56.2848 30.9498 53.1793 31.4472C52.5763 31.5528 51.4758 31.2513 50.9331 31.5226C50.4054 31.7789 48.7321 32.9246 48.4004 33.0302C46.6215 33.5729 46.6064 34.402 44.2547 33.4523C43.8476 30.603 41.9783 33.0905 40.531 31.8392C38.6165 30.196 39.8677 28.99 40.1391 26.397C40.3351 26.3668 40.5461 26.3367 40.7572 26.3367C41.5863 22.4322 39.4155 23.5025 38.6316 20.804C38.0587 18.8442 38.6316 16.1608 38.5109 14.1106C37.9984 14.1859 37.2748 13.9146 36.7471 13.99C36.8527 12.7387 36.521 11.5779 36.3099 10.4774L35.9331 6.90453C35.0285 11.1859 33.928 14.1106 32.2094 17.6382C30.1893 21.799 30.0687 24.6332 29.9029 29.8191C27.9582 28.402 26.4808 29.8492 24.4004 29.8643C22.531 29.8643 20.8577 28.9447 19.0637 28.7638C14.4959 28.2814 10.9532 32.005 6.6416 28.5075C7.90793 31.0553 11.3602 32.3367 10.8778 35.4573C13.531 36 16.516 36.2714 15.7471 40.2362C17.4356 40.3266 19.0185 40.1457 20.4959 40.7638C21.717 41.2764 21.0386 43.7487 24.1893 43.0553C20.3602 45.8291 19.5763 50.6533 17.6919 54.6332C16.727 56.6834 16.32 58.4774 16.0637 60.9347C15.9431 62.0503 16.2295 63.4372 16.0939 64.5528C16.0486 64.99 14.7823 66.4673 14.6316 67.2362C16.8476 67.7186 18.2949 65.804 19.5612 64.1608C22.516 65.6985 27.1893 61.6432 28.6667 58.9598C30.7019 55.2513 30.3702 52.9447 34.0637 50.5477C34.8024 52.191 35.5712 53.7739 37.3803 53.8493C37.4707 57.1357 39.2346 56.7136 40.8024 58.191C43.6215 60.8442 44.8426 62.789 48.9883 62.593C49.5009 63.8292 50.0888 64.5226 51.2496 65.1709C51.0989 62.4874 48.9582 57.6633 47.8577 55.1759C46.9532 53.1106 44.4356 52.3116 43.712 50.7136C43.0185 49.206 43.4858 46.8543 43.3954 45.1055C42.6265 44.9096 41.6919 44.2764 40.9381 44.2161C42.7622 44.2462 44.5562 44.2161 46.1994 43.8543C46.5914 43.7638 50.33 42.9045 50.8878 42.5729C53.6768 40.9146 53.7823 37.206 57.6416 36.5276C57.5662 32.9849 60.5059 31.6131 63.2647 31.4472C63.3702 31.206 63.4155 30.9498 63.3702 30.6935L63.3552 30.7085Z" fill="#FFEC7B"/>
<path d="M43.591 35.1256C42.4151 35.2312 40.2895 35.7437 39.385 34.8844C38.9176 34.4322 39.1739 33.8744 38.3598 33.6332C37.9226 33.4975 37.2593 33.9045 37.0181 33.392C36.8523 33.0603 37.4252 31.4925 37.5005 31.0854C37.6814 30.0754 37.7568 29.3668 37.5005 28.3116C37.3196 27.5879 37.0181 26.9849 36.9126 26.2613C36.7618 25.1759 37.0483 24.0452 36.8071 22.9598C36.6412 22.1759 36.3699 21.7538 36.3548 20.8945C36.3397 19.598 36.5809 18.3015 36.4453 16.9899C36.2644 15.1055 35.2995 13.6734 35.3448 11.7739C35.3297 13.598 34.9076 15.7538 34.2292 17.3367C34.2292 17.3367 33.6714 19.7035 33.2794 20.9397C32.9779 21.9045 32.7216 23.0502 32.586 24C32.4352 24.9648 32.6764 25.7487 32.6613 26.6683C32.6312 28.0553 32.1639 29.6231 32.0433 31.0854C32.0131 31.4925 32.0885 32.9246 31.9076 33.2563C31.5307 33.9347 30.9277 33.4975 30.2493 33.5276C27.7769 33.6633 24.7317 33.1055 21.988 33.0301C21.0533 33 20.2995 32.5327 19.3649 32.3668C18.7015 32.2462 17.9327 32.3668 17.2543 32.3668C15.792 32.3518 14.4804 32.2613 13.0332 32.3668C13.9679 32.8945 14.9176 33.4975 15.6865 34.3266C16.0181 34.6884 16.3498 35.5628 16.6965 35.804C17.5558 36.407 18.596 36.0603 19.5005 36.8291C21.0232 38.1256 22.5608 38.397 24.4453 38.7136C25.8623 38.9548 26.2995 40.1156 27.3096 40.5528C27.3548 42.0151 26.4503 43.2362 25.998 44.5327C25.4855 46.01 25.6513 47.5477 25.0634 48.8744C24.4 50.3518 23.8875 51.7085 23.5558 53.3367C23.3297 54.4372 23.2845 55.5528 22.802 56.5779C24.1739 55.9447 25.7417 54.3015 26.6915 52.9296C27.0684 52.3869 27.3247 51.8141 27.7618 51.3166C28.1387 50.8643 28.7568 50.6834 29.1186 50.2462C30.0232 49.1457 30.1438 47.6231 31.199 46.5226C31.6965 45.995 32.4804 44.7739 33.2041 45.0151C33.2644 45.603 33.8523 46.402 34.2744 46.809C34.4252 46.9447 34.8171 47.3216 34.9076 47.4271C35.1036 47.6533 35.2242 47.9548 35.4804 48.2563C36.7015 49.7035 37.395 50.5327 38.9176 51.2111C41.0433 52.1759 42.9578 53.397 44.7819 54.8894C44.3146 51.9196 41.6613 50.5025 41.194 47.804C40.9528 46.3568 40.8623 45.0151 39.9277 43.9447C39.4905 43.4472 38.7669 43.206 38.9025 42.3467C39.8221 42.3015 40.4855 42.2714 41.2995 41.6533C41.993 41.1407 42.1739 41.1256 42.8824 40.809C43.998 40.3116 45.6714 40.191 46.7417 39.407C48.6262 38.0653 49.9829 35.8191 51.6111 34.0854C48.8975 34.598 46.3347 34.9296 43.5458 35.1709L43.591 35.1256Z" fill="#FFEF9F"/>
<path d="M36.069 38.6683C36.069 40.1457 34.9233 41.3518 33.5062 41.3518C32.0891 41.3518 30.9434 40.1457 30.9434 38.6683C30.9434 37.191 32.0891 35.9849 33.5062 35.9849C34.9233 35.9849 36.069 37.191 36.069 38.6683Z" fill="#FFF8B3"/>
<path d="M31.9231 41.0201C31.9231 41.0201 30.7322 39.9648 28.1543 44.2161C27.3402 45.5578 26.7372 46.7789 26.2397 47.9246C25.1392 50.4422 24.5211 52.6583 23.1945 55.191C21.2648 58.8995 19.1543 62.2161 19.1543 62.2161C19.1543 62.2161 22.8327 57.196 24.7623 54.392C25.7121 53.0201 27.1141 51.2261 28.3955 49.5075C29.7372 47.7136 30.9734 45.9799 31.4407 44.8492C32.3754 42.6332 32.8427 41.0352 31.9231 41.0352V41.0201Z" fill="#FFF8B3"/>
<path d="M35.2398 41.8191C35.2398 41.8191 33.8981 42.6633 36.8227 46.6583C37.7423 47.9095 38.6318 48.9196 39.476 49.809C41.3453 51.7387 43.1092 53.1106 44.9182 55.2814C47.5715 58.4472 49.8026 61.6583 49.8026 61.6583C49.8026 61.6583 46.5614 56.3065 44.7071 53.4422C43.8026 52.0402 42.672 50.0503 41.5715 48.1809C40.4257 46.2362 39.2951 44.4271 38.4509 43.5829C36.7926 41.9095 35.5262 40.9146 35.2247 41.8342L35.2398 41.8191Z" fill="#FFF8B3"/>
<path d="M30.9129 37.6281C30.9129 37.6281 31.5611 36.1357 27.0234 34.598C25.5913 34.1156 24.3249 33.8141 23.1491 33.603C20.5712 33.1357 18.4003 33.0754 15.747 32.3819C11.8727 31.3719 8.2998 30.0754 8.2998 30.0754C8.2998 30.0754 13.8325 32.5327 16.8928 33.7688C18.3852 34.3719 20.3752 35.3518 22.2898 36.2111C24.2797 37.1156 26.1792 37.9146 27.3249 38.1106C29.5862 38.4874 31.1692 38.5477 30.9129 37.6131V37.6281Z" fill="#FFF8B3"/>
<path d="M34.4104 35.6533C34.4104 35.6533 36.0385 35.9849 36.34 30.5578C36.4305 28.8543 36.4003 27.3769 36.2948 26.0201C36.0837 23.0502 35.5712 20.6231 35.5561 17.5176C35.5259 12.9648 35.8727 8.68341 35.8727 8.68341C35.8727 8.68341 34.9229 15.4372 34.5008 19.1457C34.2898 20.9548 33.8677 23.4121 33.5209 25.7487C33.1591 28.1759 32.8727 30.4975 32.9782 31.809C33.1893 34.4171 33.5511 36.1658 34.4104 35.6533Z" fill="#FFF8B3"/>
<path d="M36.6714 38.7739C36.6714 38.7739 37.1236 40.3116 41.39 39.0452C42.7317 38.6533 43.8322 38.201 44.8272 37.7186C46.9829 36.6935 48.6262 35.5477 50.993 34.6583C54.4453 33.3467 57.8523 32.4271 57.8523 32.4271C57.8523 32.4271 52.2895 33.4975 49.2895 34.1759C47.8272 34.5075 45.7618 34.8241 43.8322 35.1859C41.8121 35.5477 39.9427 35.9548 38.9779 36.4221C37.0935 37.3568 35.9025 38.1709 36.6714 38.7739Z" fill="#FFF8B3"/>
<path d="M23.541 34.8543C23.541 34.8543 24.9581 34.4925 27.1893 35.6382C29.4204 36.7839 29.8274 37.0854 29.8274 37.0854C29.8274 37.0854 29.2244 37.4774 26.6918 36.6482C24.1591 35.8191 23.5561 34.8543 23.5561 34.8543H23.541Z" fill="#E0BD6E"/>
<path d="M34.7867 26.4724C34.7867 26.4724 33.1736 29.6834 33.6259 31.2814C34.0932 32.8794 34.4701 33.8744 34.4701 33.8744C34.4701 33.8744 34.8771 33 35.1636 31.7186C35.4802 30.2713 35.6158 28.2965 34.7867 26.4724Z" fill="#E0BD6E"/>
<path d="M36.28 42.5276C36.28 42.5276 36.1594 44.4271 37.5463 45.8141C38.9333 47.201 40.0488 47.6683 40.0488 47.6683C40.0488 47.6683 39.5966 46.0553 38.6468 44.608C38.0589 43.7186 37.275 42.8894 36.28 42.5427V42.5276Z" fill="#E0BD6E"/>
<path d="M30.9434 42.1508C30.9434 42.1508 29.5112 42.8895 28.6067 45.1055C27.7021 47.3216 27.7021 47.9246 27.7021 47.9246C27.7021 47.9246 29.1042 46.4171 30.069 44.8342C30.672 43.8543 31.1092 42.8442 30.9584 42.1508H30.9434Z" fill="#E0BD6E"/>
<path d="M38.1035 38.9397C38.1035 38.9397 39.8372 36.9497 41.6764 36.6482C43.5156 36.3618 44.2543 36.6482 44.2543 36.6482C44.2543 36.6482 43.4703 37.2965 42.2342 37.8995C41.1487 38.4271 39.7015 38.9246 38.1186 38.9246L38.1035 38.9397Z" fill="#E0BD6E"/>
</g>
<defs>
<clipPath id="clip0_187_146651">
<rect width="108.874" height="72" fill="white" transform="translate(0.731445)"/>
</clipPath>
</defs>
</svg>
