<svg width="93" height="92" viewBox="0 0 93 92" fill="none" xmlns="http://www.w3.org/2000/svg">
<g clip-path="url(#clip0_179_145637)">
<path d="M46.7705 92C72.1756 92 92.7705 71.4051 92.7705 46C92.7705 20.5949 72.1756 0 46.7705 0C21.3654 0 0.770508 20.5949 0.770508 46C0.770508 71.4051 21.3654 92 46.7705 92Z" fill="#288E28"/>
<path d="M42.336 9.08162C43.7731 6.5711 50.5535 6.96086 51.4875 9.08162C52.4215 11.2024 50.5535 12.6707 46.912 12.6707C43.2704 12.6707 40.6555 12.0183 42.3364 9.08162H42.336Z" fill="#C4B672"/>
<path d="M43.4823 9.8479C43.4823 9.8479 43.2101 10.5731 43.4823 10.8405C43.9197 11.2704 45.3111 11.6696 46.761 11.6696C48.2109 11.6696 49.4505 11.1608 49.8512 10.7791C50.2518 10.3973 50.0378 9.37122 50.0378 9.37122L43.4823 9.8479Z" fill="#A39767"/>
<path d="M43.8266 8.80336C44.7777 7.26086 49.2639 7.49991 49.8818 8.80336C50.4998 10.1068 49.2639 11.0087 46.8545 11.0087C44.4451 11.0087 42.715 10.6076 43.8271 8.80336H43.8266Z" fill="#E2D393"/>
<path d="M40.9551 6.81488C41.1299 6.37882 40.9816 6.56638 40.6948 6.82055C40.6849 6.82905 40.675 6.83803 40.665 6.84701C40.6721 6.86638 40.6792 6.88669 40.6854 6.90464C40.7666 7.14984 40.7808 7.25094 40.9551 6.81488Z" fill="#253026"/>
<path d="M37.961 6.62544C38.3777 6.76339 38.5832 6.83662 38.7887 6.90938C38.9919 6.98874 39.1922 7.0752 39.5971 7.23016C39.9821 7.38653 40.3766 7.09788 40.6643 6.84654C40.5778 6.60277 40.4153 6.2508 40.0043 6.13317C39.5583 6.01695 39.3084 6.06891 39.0632 6.12183C38.8142 6.18561 38.57 6.25033 38.132 6.15962C37.6917 6.07647 37.4725 6.02498 37.2557 5.96073C37.216 5.94892 37.1754 5.93711 37.1338 5.92624C37.1588 5.95978 37.1834 5.9938 37.2075 6.02828C37.3766 6.26875 37.5415 6.50025 37.961 6.62497V6.62544Z" fill="#253026"/>
<path d="M20.4951 7.95297C20.9245 7.82683 21.1749 7.88872 21.4234 7.95108C21.6729 8.01817 21.9204 8.0862 22.3484 7.96998C22.7765 7.8514 22.9867 7.781 23.1974 7.70919C23.4081 7.63738 23.6188 7.5651 24.0502 7.45881C24.4824 7.36196 24.721 7.41487 24.9572 7.46684C25.1939 7.5188 25.4287 7.56888 25.8596 7.4881C26.29 7.40495 26.469 7.15739 26.6519 6.91362C26.8342 6.67362 27.0203 6.43268 27.4616 6.35945C27.9019 6.28244 28.0909 6.03442 28.2836 5.7741C28.4764 5.51852 28.6734 5.25348 29.1269 5.20151C30.0364 5.10655 30.085 5.63379 30.9812 5.57096C31.4315 5.53316 31.6644 5.69096 31.8935 5.84261C32.1226 5.99851 32.3489 6.13835 32.7897 6.13646C33.2305 6.13363 33.453 5.89127 33.6821 5.64891C33.9099 5.41269 34.1442 5.18073 34.6015 5.1949C34.8302 5.19962 34.9993 5.24025 35.1382 5.29506C35.2776 5.34844 35.3867 5.41458 35.4949 5.48025C35.7122 5.61159 35.9262 5.7382 36.3717 5.79395C36.7364 5.83458 36.9504 5.87615 37.1342 5.92576C36.983 5.72308 36.7979 5.54261 36.4161 5.45568C35.972 5.34891 35.7467 5.31159 35.5223 5.2686C35.4098 5.24734 35.2974 5.22608 35.1571 5.19915C35.0168 5.17175 34.8476 5.13962 34.6209 5.10986C34.1678 5.04514 33.9472 4.96057 33.7251 4.8812C33.5026 4.8075 33.2787 4.73333 32.8185 4.68467C32.3579 4.63695 32.1113 4.83585 31.8704 5.0201C31.6289 5.20765 31.3927 5.39238 30.9406 5.37915C30.0368 5.34088 30.0468 4.66908 29.1198 4.66247C28.6578 4.66247 28.423 4.46026 28.1835 4.24814C27.9506 4.04641 27.7101 3.83429 27.2622 3.85082C27.0761 3.93066 26.889 4.00956 26.7048 4.09224C26.5564 4.24058 26.4454 4.43806 26.3372 4.63695C26.1303 5.02341 25.9314 5.40938 25.4755 5.44529C25.0182 5.47789 24.7971 5.56907 24.576 5.6508C24.3549 5.73584 24.1342 5.81521 23.6802 5.86859C23.4809 5.89457 23.3226 5.8856 23.1861 5.85961C21.9842 6.53189 20.8244 7.25566 19.708 8.02951C19.9145 8.05124 20.1412 8.05454 20.4956 7.9525L20.4951 7.95297Z" fill="#253026"/>
<path d="M19.9614 84.2143C20.0328 83.9927 20.0555 83.7485 19.9534 83.4438C19.6066 82.4063 18.4076 82.7686 18.0925 81.7061C17.9328 81.177 17.9843 80.8761 18.0363 80.577C18.0892 80.2775 18.136 79.9827 17.9938 79.4512C17.7013 78.3939 16.8179 78.6089 16.541 77.5322C16.2774 76.4531 16.9053 76.3166 16.6629 75.2437C16.5405 74.7075 16.507 74.4335 16.4659 74.1614C16.4257 73.8892 16.3861 73.6171 16.2821 73.0781C16.1749 72.5395 16.0128 72.2891 15.8546 72.0364C15.6963 71.7836 15.5319 71.5313 15.4393 70.9875C15.2574 69.8981 16.4569 69.728 16.2977 68.6556C16.216 68.1194 16.0894 67.861 15.9533 67.6035C15.8191 67.3456 15.6845 67.0867 15.6217 66.5457C15.556 66.0053 15.3812 65.7492 15.2116 65.4903C15.0415 65.2319 14.8653 64.972 14.8147 64.4268C14.7179 63.3384 14.1099 63.4437 13.9809 62.3491C13.9152 61.8015 14.0692 61.5134 14.2081 61.2294C14.3489 60.945 14.4826 60.6634 14.4127 60.1225C14.3395 59.5811 14.3999 59.2962 14.4666 59.0128C14.5327 58.7288 14.5932 58.4468 14.536 57.9068C14.4821 57.3663 14.6281 57.0762 14.7746 56.789C14.9253 56.5013 15.0774 56.2159 15.0325 55.6802C14.9905 55.144 14.8747 54.8841 14.7519 54.6229C14.6291 54.3616 14.51 54.099 14.4864 53.559C14.4585 53.019 14.2781 52.7582 14.0995 52.495C13.9214 52.2319 13.7352 51.9659 13.7281 51.4198C13.7234 50.8741 13.808 50.5992 13.8954 50.3256C13.9866 50.0521 14.0777 49.7804 14.0829 49.2376C14.1127 48.151 14.8162 48.1633 14.8705 47.0947C14.8932 46.5584 14.8185 46.2877 14.7349 46.0132C14.6546 45.7397 14.5662 45.4629 14.6187 44.9266C14.7141 43.8509 14.9243 43.8712 15.0476 42.8045C15.1199 42.2735 14.9791 41.9848 14.8388 41.6933C14.7032 41.4032 14.5705 41.1103 14.6565 40.5727C14.7462 40.0365 14.7812 39.7672 14.8077 39.4951C14.8332 39.2229 14.8691 38.9532 14.9815 38.4203C15.0897 37.8864 15.0028 37.5907 14.9083 37.2893C14.8171 36.9893 14.7169 36.6822 14.862 36.1498C15.0023 35.615 15.4213 35.4369 15.848 35.2715C16.2755 35.1057 16.6842 34.9422 16.85 34.4353C17.1727 33.42 15.9594 33.0274 16.3289 31.9834C16.5278 31.4698 16.729 31.2497 16.9289 31.0323C17.133 30.8169 17.3418 30.6067 17.553 30.1035C18.0018 29.1091 18.0424 29.1261 18.529 28.151C18.6476 27.9048 18.7681 27.7366 18.8843 27.6048C18.9996 27.4726 19.1101 27.3767 19.2202 27.2812C19.3312 27.1863 19.4385 27.0894 19.5561 26.9609C19.6751 26.8334 19.7994 26.6708 19.934 26.4375C20.2 25.9664 20.4641 25.8096 20.715 25.6485C20.8416 25.5686 20.9677 25.4893 21.0972 25.3731C21.2276 25.2578 21.3688 25.1123 21.5162 24.8907C21.665 24.6705 21.7699 24.5 21.8597 24.3597C21.9509 24.2208 22.0208 24.1074 22.0912 23.994C22.2343 23.7696 22.3633 23.532 22.6959 23.1148C23.0238 22.6925 23.2671 22.5427 23.5208 22.4062C23.646 22.3362 23.7707 22.2668 23.9063 22.1643C24.0423 22.0622 24.1855 21.9233 24.365 21.7296C25.0661 20.943 24.4628 20.3912 25.2229 19.6084C25.6151 19.2333 25.651 18.8813 25.6921 18.5251C25.7341 18.1703 25.7903 17.8217 26.2099 17.4475C26.6317 17.0766 26.9459 17.011 27.245 16.934C27.5445 16.8565 27.8502 16.7946 28.2909 16.4601C28.7284 16.119 29.0596 16.0982 29.3775 16.0685C29.6983 16.0415 30.0092 16.0099 30.4689 15.7179C30.9248 15.4198 31.0216 15.0688 31.1322 14.7263C31.2413 14.3823 31.3523 14.0275 31.8403 13.7464C32.3336 13.4757 32.6383 13.4408 32.9392 13.4072C33.2435 13.3794 33.5477 13.3595 34.0452 13.1082C34.4524 12.9046 34.7075 12.8139 34.9305 12.735C34.8138 12.7071 34.6934 12.6844 34.5587 12.6792C34.3716 12.6726 34.1557 12.6953 33.8954 12.8016C33.3715 13.008 33.1098 13.111 32.8476 13.2145C32.5891 13.3269 32.3302 13.4389 31.8134 13.6638C31.3008 13.8986 31.0292 13.9827 30.7518 14.0583C30.4731 14.1319 30.2019 14.2217 29.6988 14.4877C29.1919 14.7485 29.0464 15.0811 28.9008 15.3985C28.7558 15.7193 28.6117 16.0288 28.1435 16.3288C27.9073 16.4766 27.708 16.5508 27.5261 16.5896C27.3446 16.6292 27.1854 16.6387 27.022 16.6453C26.6993 16.6628 26.3625 16.6708 25.9009 17.0058C25.4436 17.3445 25.085 17.3351 24.7283 17.3384C24.3745 17.344 24.0154 17.3544 23.5562 17.721C23.1079 18.1009 23.1206 18.5804 23.1409 19.0481C23.1627 19.5201 23.2038 19.992 22.7894 20.3719C21.9835 21.1608 22.1441 21.3271 21.3797 22.1459C21.185 22.3485 21.0216 22.4832 20.8671 22.5796C20.7117 22.6755 20.5657 22.7336 20.4192 22.7921C20.2732 22.8512 20.1249 22.9098 19.969 23.0099C19.8164 23.1125 19.6539 23.2551 19.4729 23.4772C19.1078 23.9175 18.9004 24.1169 18.6844 24.312C18.4709 24.5085 18.2484 24.7013 17.9196 25.1746C17.7533 25.4099 17.5912 25.5592 17.4311 25.6669C17.2733 25.776 17.1202 25.8445 16.9643 25.913C16.6572 26.0524 16.3322 26.1875 16.0246 26.6893C15.4029 27.6979 16.7512 28.5261 16.1999 29.5064C15.9344 30.0053 15.4539 30.0639 14.9749 30.1338C14.5001 30.2046 14.021 30.2835 13.7598 30.8131C13.267 31.879 12.8735 31.6928 12.4119 32.7879C12.1767 33.3345 12.2584 33.6912 12.3245 34.038C12.36 34.2123 12.394 34.3852 12.3959 34.5832C12.4006 34.7821 12.3704 35.0055 12.2707 35.28C12.0675 35.8285 12.0312 36.1257 11.9891 36.42C11.9499 36.7153 11.9008 37.0072 11.734 37.5638C11.563 38.1198 11.6022 38.4387 11.6532 38.7571C11.7033 39.0755 11.7444 39.3892 11.5993 39.9462C11.4576 40.5037 11.1066 40.7069 10.7575 40.9157C10.4131 41.1245 10.0672 41.3385 9.93544 41.913C9.69355 43.0657 10.3762 43.2202 10.1688 44.3611C10.0602 44.9328 10.1542 45.246 10.2368 45.5559C10.3224 45.8663 10.4046 46.1734 10.3271 46.7441C10.1636 47.8831 8.89136 47.6923 8.75151 48.863C8.69293 49.4474 8.84836 49.763 9.00332 50.0748C9.16159 50.387 9.32458 50.6965 9.27733 51.2762C9.23198 51.8558 9.22962 52.1469 9.21875 52.4379C9.20836 52.7284 9.19844 53.0195 9.17812 53.6001C9.15072 54.1812 9.19985 54.4745 9.25088 54.7675C9.30285 55.0604 9.34584 55.3528 9.34064 55.932C9.32883 57.0923 9.85701 57.1032 9.86788 58.254C9.8967 59.4058 9.95622 59.4058 10.0068 60.5562C10.029 61.1312 9.55654 61.4491 9.08836 61.7727C8.62254 62.0954 8.15483 62.4256 8.22475 63.0114C8.3627 64.1854 9.60757 64.0078 9.81402 65.1483C9.92032 65.719 9.96756 66.0057 10.0096 66.2934C10.0512 66.5812 10.0975 66.8684 10.2189 67.4353C10.3375 68.0027 10.5113 68.2583 10.6857 68.512C10.8609 68.7662 11.0291 69.0199 11.1647 69.5792C11.3017 70.1391 11.4505 70.3965 11.5993 70.6531C11.7519 70.9091 11.9045 71.1638 12.0496 71.7184C12.196 72.2721 12.1209 72.5934 12.0406 72.9179C11.9598 73.2425 11.8838 73.568 12.0467 74.1207C12.2064 74.674 11.9688 75.0538 11.7326 75.4384C11.5417 75.7497 11.3452 76.0662 11.3764 76.4716C11.717 76.8764 12.0628 77.2761 12.4186 77.6682C12.8059 77.8322 13.1919 77.9989 13.3748 78.5347C13.4045 78.6178 13.4296 78.6939 13.4532 78.7662C15.418 80.7825 17.5903 82.6099 19.9591 84.2171L19.9614 84.2143Z" fill="#253026"/>
<path d="M36.2285 12.7709C37.2778 12.4364 37.2905 12.4761 38.3492 12.1799C38.8613 12.058 39.0796 11.5591 39.1982 11.1769C38.9407 11.0441 38.5439 10.8825 38.045 11.0507C37.514 11.2468 37.2919 11.4533 37.0722 11.6564C36.8507 11.8562 36.6367 12.0679 36.1226 12.2833C35.8656 12.391 35.6696 12.4633 35.5056 12.5238C35.3431 12.5876 35.2108 12.6339 35.0786 12.6797C35.0304 12.6972 34.9817 12.7147 34.9316 12.7321C34.9775 12.743 35.0228 12.7543 35.0682 12.7661C35.388 12.8488 35.7017 12.9296 36.2289 12.7699L36.2285 12.7709Z" fill="#253026"/>
<path d="M46.8913 15.888C46.4057 15.8937 46.666 15.9669 47.0236 16.1738C47.2542 15.9523 47.3964 15.8819 46.8913 15.888Z" fill="#253026"/>
<path d="M41.3098 19.2645C41.2923 19.3056 41.2748 19.3467 41.2568 19.3892C41.2942 19.367 41.3315 19.3457 41.3693 19.325C41.5006 19.2513 41.6319 19.178 41.7538 19.0684C41.8781 18.9602 41.9948 18.8171 42.093 18.6012C42.4828 17.7343 42.5121 17.7494 42.9259 16.9014C43.1348 16.5064 42.8806 16.0595 42.6571 15.7477C42.4011 15.8266 42.0392 15.9759 41.8705 16.3968C41.5403 17.3119 41.9527 17.4551 41.6546 18.3669C41.502 18.8213 41.4033 19.0415 41.3107 19.2645H41.3098Z" fill="#253026"/>
<path d="M42.6525 15.4415C42.2136 15.2337 42.4173 15.4132 42.6568 15.7472C42.9539 15.6555 43.1084 15.6584 42.6525 15.4415Z" fill="#253026"/>
<path d="M40.6536 20.0681C40.4741 20.5174 40.3838 20.7422 40.2941 20.9666C40.2053 21.192 40.1098 21.415 39.9435 21.8699C39.6072 22.7784 39.4139 22.708 39.0955 23.6269C38.7719 24.5458 39.5528 24.8113 39.25 25.726C38.9476 26.642 38.3089 26.4379 38.0165 27.3667C37.733 28.2965 36.9138 28.0499 36.636 28.9909C36.3677 29.9358 37.7925 30.3374 37.5327 31.269C37.2861 32.2063 37.5195 32.2682 37.2748 33.2046C37.0433 34.1438 36.4872 34.0044 36.2543 34.9498C36.0341 35.8965 35.8296 35.8483 35.6094 36.7979C35.4001 37.7489 34.6839 37.5888 34.4756 38.5469C34.2743 39.5073 35.8187 39.8305 35.6241 40.7796C35.436 41.7301 33.895 41.4268 33.7102 42.3911C33.5269 43.3539 33.1173 43.2774 32.9439 44.2454C32.771 45.2143 33.5378 45.3466 33.3786 46.3118C33.2199 47.2784 33.4358 47.3129 33.2917 48.28C33.1476 49.248 33.6649 49.325 33.5354 50.2916C33.4069 51.2582 32.2537 51.1013 32.1347 52.0779C32.017 53.0549 32.7143 53.1423 32.6024 54.115C32.4966 55.0901 33.0295 55.1496 32.9241 56.121C32.8315 57.0928 31.5413 56.9633 31.4492 57.9465C31.3589 58.9296 32.1073 58.9953 32.0265 59.9737C31.9462 60.9535 31.991 60.9563 31.9254 61.9371C31.8611 62.9188 32.0884 62.933 32.0416 63.9142C31.9962 64.8964 32.5088 64.922 32.4781 65.9008C32.4469 66.8807 32.5084 66.8835 32.4847 67.8638C32.4673 68.8427 30.4972 68.8554 30.5317 69.8518C30.5789 70.8491 31.8342 70.7726 31.9348 71.7538C32.0378 72.736 31.9972 72.7422 32.112 73.7234C32.2282 74.7042 32.6817 74.6428 32.8164 75.6169C32.9529 76.592 33.277 76.5434 33.4334 77.5048C33.5874 78.4666 32.9444 78.5701 33.0989 79.5343C33.2529 80.4972 31.9126 80.7225 32.0671 81.6915C32.2197 82.66 33.4839 82.4389 33.6578 83.4003C33.8326 84.3617 33.6323 84.3985 33.8071 85.3604C33.9819 86.3213 33.1773 86.4768 33.3526 87.4415C33.5468 88.4048 33.4504 88.4246 33.6469 89.3879C33.7735 90.0059 33.9852 90.1925 34.1728 90.5C35.4308 90.8132 36.7178 91.0806 38.0344 91.2975C38.0788 91.1147 38.1053 90.8988 38.0755 90.5832C37.9815 89.6255 39.1149 89.5141 39.0223 88.5645C38.9311 87.6149 37.69 87.7254 37.6031 86.7673C37.5313 85.8069 38.0732 85.7643 38.0018 84.8077C37.9305 83.8515 37.0168 83.9157 36.945 82.9548C36.8722 81.9948 37.5124 81.9556 37.4633 80.9951C37.4118 80.0347 37.4836 80.0309 37.4325 79.0714C37.3811 78.1123 36.9337 78.1336 36.8822 77.1731C36.8288 76.2112 38.0439 76.1621 38.0132 75.2224C37.9844 74.2818 37.5833 74.2936 37.5719 73.3473C37.5615 72.403 36.9748 72.4096 36.9762 71.4586C36.9795 70.5094 36.3644 70.5638 36.319 69.6099C36.2864 68.6542 36.9903 68.6485 36.9072 67.7022C36.8316 66.7536 37.2251 66.7238 37.1557 65.7775C37.0853 64.8303 37.7944 64.7864 37.7377 63.8434C37.6829 62.899 37.2719 62.9188 37.2337 61.9697C37.1973 61.0211 36.5004 61.0461 36.4782 60.0913C36.4565 59.1365 36.8023 59.128 36.7891 58.1751C36.7792 57.2208 37.4883 57.2123 37.4803 56.2632C37.4826 55.3131 37.0801 55.3126 37.0825 54.3588C37.0924 53.4049 37.2979 53.4078 37.3121 52.4549C37.3272 51.502 36.6233 51.4854 36.6493 50.5269C36.6762 49.5692 36.5954 49.5664 36.6365 48.6083C36.6781 47.6507 36.0365 47.6205 36.0923 46.6586C36.1489 45.6958 37.5762 45.7794 37.6447 44.8284C37.7132 43.8764 36.4244 43.7848 36.5033 42.8238C36.585 41.8638 37.0097 41.8983 37.0971 40.9416C37.1902 39.9854 37.2393 39.9897 37.3362 39.0335C37.4415 38.0777 37.8535 38.1222 37.9612 37.1697C38.0788 36.2183 38.5943 36.2806 38.7128 35.3329C38.8428 34.3871 38.7634 34.3758 38.8957 33.4285C39.0398 32.4832 39.4409 32.5432 39.5873 31.6016C39.7446 30.6634 38.9235 30.5268 39.0875 29.5805C39.2609 28.6385 38.3524 28.4727 38.5357 27.5217C38.7284 26.573 39.2448 26.6751 39.4498 25.7359C39.6544 24.7938 40.2799 24.9313 40.5005 24.003C40.7164 23.0728 39.7872 22.846 40.0262 21.9063C40.1434 21.4362 40.3253 21.2345 40.501 21.0323C40.6782 20.8306 40.852 20.6293 40.9838 20.1668C41.0977 19.7917 41.1818 19.5753 41.2607 19.3873C41.0363 19.5196 40.819 19.684 40.6574 20.0667L40.6536 20.0681Z" fill="#253026"/>
<path d="M57.8458 10.9118C57.1333 10.612 56.4155 10.3255 55.6924 10.0525C55.1557 9.872 54.6993 10.1781 54.3975 10.4394C54.5519 10.6903 54.8094 11.0389 55.3121 11.1594C55.8559 11.3063 56.1549 11.2737 56.4577 11.2397C56.7615 11.2024 57.0634 11.1788 57.6086 11.3517C57.8812 11.4381 58.0843 11.5071 58.2511 11.5728C58.4165 11.6417 58.5473 11.7022 58.6782 11.7622C58.7264 11.7854 58.7755 11.8076 58.8256 11.8302C58.7987 11.7891 58.7727 11.7485 58.7462 11.7074C58.5658 11.4216 58.382 11.1296 57.8453 10.9123L57.8458 10.9118Z" fill="#253026"/>
<path d="M39.6545 8.26526C39.6262 7.78054 39.5473 8.04558 39.3125 8.41739C39.5927 8.63234 39.6829 8.76935 39.6545 8.26526Z" fill="#253026"/>
<path d="M90.4787 30.8689C90.4196 30.7475 90.3662 30.6416 90.3124 30.5358C90.1711 30.2476 90.0166 29.9651 89.7464 29.3821C89.6788 29.2366 89.6113 29.1133 89.5428 29.008C89.471 28.9035 89.3996 28.8166 89.3283 28.741C89.1856 28.5898 89.0439 28.4854 88.9021 28.3815C88.7599 28.278 88.621 28.1741 88.4765 28.0281C88.33 27.8831 88.1826 27.6946 88.0319 27.4173C87.8836 27.1385 87.8453 26.8858 87.8576 26.6444C87.8722 26.402 87.944 26.1681 88.0144 25.9324C88.1151 25.6064 88.2044 25.279 88.1359 24.9247C88.0277 24.6979 87.9171 24.4721 87.8051 24.2477C87.6634 24.0776 87.5051 23.969 87.3445 23.8938C87.1329 23.7956 86.9122 23.7559 86.693 23.7181C86.2579 23.6397 85.8124 23.5802 85.4416 23.069C85.2587 22.8115 85.1307 22.6093 85.0405 22.4274C84.9498 22.2455 84.894 22.0858 84.8373 21.9252C84.7291 21.6016 84.5959 21.2907 84.1882 20.7989C83.3458 19.8394 83.3841 19.8011 82.4959 18.8832C82.0424 18.4344 81.8794 18.1391 81.7188 17.8363C81.5506 17.5415 81.3777 17.2458 80.8982 16.8154C80.404 16.402 80.2405 16.0892 80.0662 15.7812C79.8876 15.4793 79.7114 15.1666 79.1903 14.774C78.1363 14.0072 78.0919 14.0752 77.0081 13.3647C76.4563 13.0255 76.2376 12.7562 76.0009 12.5091C75.8842 12.383 75.767 12.2568 75.6078 12.1213C75.4481 11.9866 75.2497 11.8373 74.9597 11.688C74.3809 11.3843 74.0086 11.4135 73.6312 11.466C73.2542 11.5175 72.8894 11.5581 72.3107 11.2969C71.1457 10.7791 70.8178 11.645 69.6712 11.1939C69.0897 10.985 68.843 10.7465 68.5875 10.5188C68.3314 10.2948 68.0725 10.0647 67.4763 9.87672C66.8768 9.70333 66.6174 9.45814 66.3519 9.21578C66.085 8.98098 65.8133 8.74429 65.2006 8.58792C63.9637 8.31154 63.7974 9.25263 62.5885 9.02775C62.2866 8.96728 62.0617 8.90539 61.877 8.83169C61.6923 8.75847 61.5472 8.67673 61.4013 8.595C61.2553 8.51422 61.1098 8.42965 60.9222 8.35973C60.7346 8.2917 60.5065 8.23312 60.1984 8.19391C59.6967 8.12588 59.4005 8.07863 59.1416 8.03281C59.3755 8.23265 59.6419 8.41973 60.1583 8.53359C60.4597 8.59831 60.686 8.6465 60.874 8.68666C61.0611 8.73248 61.2109 8.76886 61.3606 8.80571C61.6587 8.88413 61.9606 8.94508 62.5545 9.10901C63.7417 9.43357 63.6774 9.63105 64.8429 9.99577C65.4198 10.1951 65.7807 10.103 66.1478 10.0133C66.5111 9.93294 66.8806 9.85451 67.4616 10.0756C68.0371 10.3137 68.252 10.5906 68.4632 10.8636C68.6734 11.1395 68.8747 11.4254 69.4284 11.6776C70.5254 12.2167 70.1139 12.9669 71.1509 13.5348C72.1713 14.1187 72.9707 12.8738 74.0176 13.5423C75.039 14.2293 75.1845 14.0356 76.18 14.774C76.6689 15.1543 76.8154 15.4599 76.9614 15.7576C77.104 16.0604 77.2363 16.368 77.6969 16.761C78.1462 17.1687 78.33 17.4135 78.5152 17.6544C78.6938 17.9024 78.869 18.1514 79.2957 18.5733C79.7076 19.0117 79.7766 19.3504 79.838 19.6878C79.8938 20.0317 79.9476 20.3685 80.3293 20.8103C80.696 21.2652 81.1991 21.2459 81.698 21.2515C82.1922 21.2586 82.7095 21.2666 83.0666 21.7665C83.4195 22.2691 83.2712 22.7284 83.0978 23.1913C82.9258 23.6543 82.7591 24.0984 83.0643 24.5935C83.6709 25.5908 83.2915 25.7978 83.84 26.8055C84.1027 27.3166 84.414 27.4853 84.7102 27.671C84.8605 27.7621 85.0112 27.8547 85.1562 27.9903C85.3022 28.1254 85.4416 28.3054 85.5568 28.5766C85.793 29.1143 85.9622 29.3623 86.119 29.6188C86.1993 29.7459 86.2797 29.8735 86.3671 30.0374C86.411 30.1196 86.4568 30.2108 86.505 30.3157C86.5508 30.4219 86.5981 30.5424 86.6486 30.6813C86.8518 31.2355 87.079 31.4712 87.2949 31.7164C87.4045 31.8383 87.5146 31.9607 87.6209 32.1237C87.6738 32.2054 87.7263 32.297 87.7768 32.4033C87.8245 32.5111 87.8694 32.6348 87.9124 32.778C88.0834 33.352 87.8916 33.7096 87.6833 34.0649C87.4759 34.4206 87.2784 34.7646 87.414 35.3296C87.6814 36.4587 88.3716 36.3288 88.6031 37.4919C88.7042 38.0749 88.8927 38.3456 89.0717 38.622C89.248 38.8988 89.4261 39.1785 89.513 39.77C89.658 40.9624 88.3716 41.0711 88.4774 42.2286C88.5322 42.8078 88.7269 43.0917 88.9362 43.3766C89.1454 43.6614 89.3443 43.952 89.3694 44.544C89.3968 45.1354 89.4105 45.4312 89.4247 45.7274C89.4374 46.0236 89.462 46.3189 89.4554 46.9123C89.4544 48.0962 89.6722 48.1075 89.6391 49.2971C89.6094 49.8914 89.7256 50.1985 89.8418 50.508C89.9557 50.8174 90.0615 51.1292 90.0194 51.7273C89.9779 52.3254 89.9561 52.6259 89.9486 52.9268C89.9382 53.2278 89.9297 53.5287 89.8574 54.1254C89.7232 55.3226 87.7532 55.0826 87.6483 56.2419C87.5118 57.4031 88.7751 57.535 88.6617 58.726C88.6343 59.0231 88.6111 59.2461 88.5884 59.4313C88.5606 59.616 88.5388 59.7644 88.5166 59.9123C88.4689 60.208 88.4273 60.5042 88.3551 61.0976C88.1973 62.282 88.6546 62.333 88.4713 63.5245C88.3839 64.1207 88.4151 64.4287 88.4458 64.7382C88.4765 65.0471 88.5114 65.3585 88.4051 65.9552C88.177 67.1466 87.5453 67.0418 87.2973 68.2195C87.2359 68.5143 87.1064 68.7208 86.943 68.8809C86.7762 69.0406 86.5759 69.155 86.376 69.2688C85.9754 69.4961 85.579 69.7195 85.4453 70.2992C85.3121 70.8444 85.52 71.193 85.7463 71.5332C90.2972 64.2284 92.7704 55.4478 92.7704 46.0014C92.7704 40.6998 91.9796 35.6093 90.4787 30.8703V30.8689Z" fill="#253026"/>
<path d="M35.0317 9.2687C35.2239 9.31831 35.4512 9.34287 35.7521 9.32445C36.9549 9.23657 36.9568 9.26634 38.1606 9.21531C38.7384 9.20492 39.0932 8.76461 39.3124 8.41737C39.071 8.23218 38.6888 7.98887 38.12 8.04557C36.8978 8.20147 36.9705 8.63516 35.7687 8.82556C35.1668 8.91296 34.8644 8.95642 34.5592 8.98146C34.503 8.98666 34.4463 8.99233 34.3887 8.998C34.4345 9.01925 34.4798 9.04146 34.5247 9.06319C34.6825 9.14067 34.8398 9.21768 35.0317 9.2687Z" fill="#253026"/>
<path d="M39.4704 10.961C39.3371 10.4933 39.3253 10.7682 39.1982 11.1773C39.4968 11.3314 39.6078 11.4462 39.4704 10.961Z" fill="#253026"/>
<path d="M53.7574 7.76352C53.7418 8.24918 53.842 7.99454 54.116 7.65203C53.8543 7.40541 53.773 7.25849 53.7574 7.76352Z" fill="#253026"/>
<path d="M58.5817 7.59297C58.4036 7.48903 58.181 7.4021 57.8716 7.35722C56.6324 7.16305 56.6348 7.15219 55.3889 6.99581C54.7805 6.93439 54.3727 7.33171 54.1162 7.65202C54.3406 7.86367 54.6983 8.14855 55.2623 8.158C56.4874 8.21233 56.4987 7.74698 57.7374 7.8391C58.3573 7.87737 58.6634 7.94871 58.9705 8.00162C59.0272 8.01202 59.0843 8.02241 59.1429 8.0328C59.1042 7.99973 59.0659 7.96619 59.0276 7.93217C58.8944 7.81407 58.7602 7.69549 58.5821 7.59249L58.5817 7.59297Z" fill="#253026"/>
<path d="M81.0523 32.7756C80.5893 31.6758 79.4195 32.2304 78.9386 31.1845C78.6821 30.6662 78.6499 30.3572 78.6164 30.0454C78.5786 29.736 78.5332 29.4265 78.2602 28.9111C77.6866 27.8954 77.74 27.8628 77.1268 26.8693C76.9766 26.6193 76.8778 26.4223 76.8089 26.248C76.7408 26.0732 76.703 25.9216 76.6652 25.769C76.6265 25.6168 76.5911 25.4628 76.5178 25.2885C76.4437 25.1151 76.3369 24.919 76.1673 24.6781C75.8323 24.1943 75.7482 23.8854 75.6731 23.566C75.6344 23.4073 75.5956 23.2476 75.521 23.068C75.4454 22.8895 75.3264 22.6962 75.1393 22.4638C74.9508 22.2323 74.8081 22.0603 74.682 21.9233C74.5539 21.7873 74.449 21.6814 74.3442 21.5756C74.1306 21.3668 73.9331 21.1462 73.5221 20.7148C73.1168 20.2797 72.9869 19.9892 72.8423 19.7067C72.7719 19.564 72.701 19.4213 72.5943 19.2607C72.487 19.101 72.3481 18.9196 72.1251 18.7174C71.245 17.8944 70.7036 18.5365 69.8182 17.7763C69.36 17.4102 68.9929 17.4111 68.6315 17.4163C68.2682 17.4229 67.9016 17.4447 67.4461 17.1069C66.9879 16.7719 66.8197 16.5107 66.6581 16.2329C66.4975 15.9546 66.3236 15.6872 65.8351 15.3815C65.3518 15.0707 65.1761 14.7967 65.0037 14.5075C64.8298 14.2217 64.656 13.9255 64.1363 13.6567C63.6199 13.3822 63.258 13.4635 62.8952 13.5608C62.5328 13.6557 62.1813 13.7469 61.6673 13.5098C61.1481 13.283 60.9332 13.0628 60.7144 12.8408C60.4938 12.6249 60.2666 12.4137 59.7346 12.203C59.3009 12.0334 59.0448 11.9304 58.8242 11.8307C58.8908 11.9318 58.9626 12.0324 59.0557 12.1293C59.1866 12.2658 59.3604 12.392 59.6127 12.5224C60.1196 12.778 60.3733 12.9031 60.6237 13.0345C60.8718 13.171 61.1193 13.3075 61.6154 13.5806C62.1062 13.8617 62.3188 14.0554 62.5347 14.2397C62.7516 14.422 62.959 14.6186 63.429 14.9242C63.9015 15.2237 64.243 15.2271 64.5974 15.2233C64.9493 15.2219 65.3122 15.2167 65.7652 15.5677C65.9934 15.7406 66.1375 15.9036 66.2386 16.0609C66.3392 16.2192 66.3921 16.3779 66.4474 16.5319C66.5542 16.8451 66.6662 17.1423 67.0876 17.5099C67.5061 17.8826 67.5704 18.2218 67.6228 18.5653C67.6734 18.9116 67.7183 19.2536 68.1099 19.6283C68.4898 20.0147 68.9452 19.958 69.4129 19.9079C69.8764 19.8597 70.3403 19.8309 70.722 20.2504C71.4557 21.1108 71.6522 20.9553 72.3514 21.8548C72.5291 22.0769 72.624 22.271 72.684 22.4454C72.744 22.6197 72.7686 22.7747 72.7922 22.9291C72.8154 23.0841 72.8395 23.2367 72.8962 23.4091C72.9495 23.5839 73.0365 23.7772 73.1919 24.0087C73.5075 24.4679 73.6043 24.7362 73.7073 24.9979C73.808 25.2611 73.9161 25.5176 74.1892 25.999C74.3281 26.2381 74.3914 26.4398 74.4169 26.6212C74.4401 26.8041 74.4221 26.9694 74.4056 27.1319C74.3683 27.4603 74.3432 27.7754 74.5827 28.2606C75.0618 29.222 76.4937 28.5818 76.9581 29.616C77.1774 30.1361 76.9218 30.5382 76.6572 30.9336C76.3893 31.3319 76.1172 31.7221 76.3119 32.2248C76.6756 33.2457 76.2783 33.3742 76.6029 34.3932C76.7696 34.9006 77.0177 35.1104 77.2832 35.3178C77.4136 35.4222 77.5463 35.5271 77.6621 35.6726C77.7755 35.8191 77.8742 36.0052 77.9436 36.2683C78.0863 36.7937 78.1969 37.0483 78.3136 37.3025C78.4274 37.5571 78.5517 37.8099 78.6603 38.347C78.7732 38.8823 78.9603 39.1256 79.1375 39.3746C79.3151 39.6231 79.5036 39.8721 79.5939 40.4177C79.6813 40.9648 79.4408 41.2766 79.1956 41.5842C78.9466 41.8931 78.6967 42.1964 78.7695 42.7317C78.8947 43.8051 79.608 43.7394 79.7063 44.8336C79.7602 45.3783 79.9047 45.6452 80.0602 45.9121C80.2132 46.1795 80.3705 46.4488 80.3951 47.002C80.4532 48.1085 79.1441 48.1331 79.1758 49.2121C79.1805 49.754 79.369 50.0256 79.5575 50.3011C79.7427 50.576 79.9241 50.8548 79.9194 51.4028C79.9128 51.9503 79.9076 52.2248 79.9113 52.4993C79.9146 52.7733 79.9142 53.0478 79.8868 53.5953C79.8636 54.1424 79.9038 54.4202 79.942 54.699C79.9794 54.9772 80.0261 55.2564 79.9813 55.8049C79.8939 56.8991 80.4126 56.9562 80.303 58.0584C80.1759 59.1578 80.2524 59.1677 80.1041 60.2652C80.0332 60.8141 79.5013 61.0253 78.9792 61.2308C78.4548 61.4368 77.9455 61.6385 77.8813 62.1743C77.7551 63.2467 79.0005 63.3884 78.9027 64.4859C78.8512 65.0335 78.8054 65.3056 78.7652 65.5782C78.7255 65.8508 78.6806 66.1229 78.614 66.669C78.5502 67.2152 78.6254 67.5005 78.6991 67.7868C78.7723 68.0726 78.8517 68.3613 78.7704 68.9093C78.6877 69.4569 78.7288 69.7422 78.7695 70.028C78.8063 70.3134 78.8427 70.5997 78.751 71.1491C78.658 71.6981 78.4425 71.9452 78.2337 72.1918C78.0249 72.4384 77.8123 72.6822 77.7041 73.2245C77.5988 73.7678 77.2066 73.9762 76.8155 74.1798C76.4224 74.3834 76.0402 74.5856 75.9169 75.1161C75.6774 76.1786 76.9222 76.4508 76.6596 77.5293C76.3822 78.6022 76.1914 78.5559 75.8966 79.6213C75.7534 80.1565 75.4695 80.3654 75.1936 80.5747C74.9168 80.7835 74.6404 80.9899 74.4831 81.5134C74.1727 82.5627 74.0607 82.5305 73.7139 83.5737C73.6237 83.8392 73.5831 84.0456 73.5665 84.2233C75.8087 82.703 77.8751 80.9857 79.7564 79.0974C79.7403 78.9041 79.7597 78.6892 79.8518 78.4307C80.2236 77.3451 80.8321 77.5634 81.1883 76.4607C81.3674 75.9098 81.4638 75.6377 81.5682 75.367C81.6716 75.0958 81.7741 74.8247 81.9352 74.2677C82.0992 73.7111 82.0723 73.3988 82.0406 73.087C82.0094 72.7752 81.9834 72.4658 82.1313 71.9074C82.4233 70.791 83.5944 71.1165 83.8708 69.9751C84.0106 69.4054 83.9743 69.0936 83.9464 68.7846C83.9171 68.4751 83.8878 68.1671 84.0069 67.595C84.1292 67.0229 84.0489 66.704 83.9629 66.386C83.8774 66.0681 83.7971 65.7525 83.9034 65.1804C84.1108 64.0338 83.4995 63.9837 83.6346 62.8347C83.7031 62.2593 83.9006 61.9948 84.1009 61.7278C84.2993 61.4614 84.4921 61.1921 84.5152 60.6082C84.5412 60.0247 84.6503 59.7342 84.7533 59.4417C84.8568 59.1493 84.9664 58.8564 84.9758 58.2696C84.9815 57.6833 85.1587 57.3871 85.3358 57.0885C85.5087 56.7899 85.6807 56.4885 85.676 55.897C85.6689 55.3051 85.5522 55.0136 85.4431 54.7245C85.3335 54.4349 85.2206 54.1467 85.1932 53.558C85.17 52.9698 84.981 52.6887 84.7897 52.4105C84.5979 52.1317 84.4146 51.8563 84.3692 51.2743C84.322 50.6927 84.3877 50.3927 84.4505 50.0913C84.5095 49.7899 84.5681 49.4871 84.51 48.9036C84.373 47.7395 85.0864 47.6337 84.9191 46.4564C84.8402 45.8687 84.6862 45.5937 84.5421 45.3202C84.3943 45.0466 84.2554 44.7745 84.1458 44.1944C83.9355 43.0345 84.1226 42.9906 83.8803 41.8308C83.748 41.2525 83.5085 41.0083 83.2703 40.7678C83.0266 40.5278 82.7818 40.2911 82.6378 39.7242C82.4894 39.1577 82.3831 38.8833 82.2863 38.6078C82.1899 38.3319 82.0831 38.0589 81.9111 37.5C81.7434 36.9401 81.4926 36.7171 81.2516 36.4956C81.0069 36.2745 80.7735 36.0543 80.5723 35.5134C80.3762 34.9715 80.6115 34.5671 80.8331 34.1566C81.0542 33.7474 81.2885 33.3246 81.0537 32.7766L81.0523 32.7756Z" fill="#253026"/>
<path d="M47.7548 17.1635C47.7789 16.6788 47.3589 16.3675 47.0239 16.1738C46.8255 16.3642 46.5614 16.667 46.5855 17.13C46.6375 18.132 47.0887 18.1051 47.1406 19.1071C47.1713 19.7 47.1472 19.9448 47.1326 20.2533C47.3532 19.9731 47.606 19.7407 47.6343 19.1681C47.6839 18.1651 47.7042 18.1665 47.7539 17.1635H47.7548Z" fill="#253026"/>
<path d="M54.0505 10.4763C53.9286 10.9463 54.0751 10.7182 54.3973 10.4394C54.2173 10.147 54.1766 9.98682 54.0505 10.4763Z" fill="#253026"/>
<path d="M7.13322 70.4249C7.00094 69.8391 6.95275 69.5433 6.90457 69.2476C6.85449 68.9523 6.80819 68.6561 6.68866 68.0693C6.44252 66.8991 6.01119 66.9709 5.78537 65.7903C5.68002 65.1993 5.93324 64.8591 6.18316 64.5237C6.43449 64.1878 6.68205 63.8562 6.59701 63.2722C6.4189 62.1067 6.03623 62.1497 5.88174 60.9757C5.80946 60.389 5.63891 60.1079 5.46081 59.8253C5.37246 59.6841 5.28459 59.5424 5.20994 59.3619C5.13908 59.1814 5.08286 58.9617 5.05593 58.6665C4.94396 57.4863 4.352 57.5884 4.21263 56.3993C4.10397 55.2068 4.7942 55.1695 4.66192 53.9969C4.59011 53.4092 4.66381 53.1026 4.73184 52.7979C4.80459 52.4927 4.86081 52.1894 4.82255 51.6045C4.73326 50.4319 5.43766 50.3748 5.37766 49.2183C5.34695 48.0622 4.92034 48.0792 4.91892 46.9128C4.91184 46.3298 4.75641 46.0421 4.58633 45.7496C4.42098 45.4577 4.24759 45.1615 4.27783 44.5733C4.30287 43.9846 4.40397 43.6922 4.51641 43.404C4.62838 43.1153 4.72711 42.8262 4.7805 42.2451C4.88774 41.0777 5.60301 41.141 5.74332 40.0006C5.82741 39.4327 5.76883 39.1351 5.7112 38.8356C5.6597 38.5375 5.61151 38.2379 5.7112 37.6663C5.93796 36.5301 6.13025 36.566 6.39481 35.4458C6.52898 34.886 6.43827 34.5699 6.3367 34.2449C6.23371 33.9199 6.14867 33.5963 6.31497 33.0341C6.39717 32.753 6.45859 32.5427 6.51008 32.367C6.55969 32.1912 6.59559 32.049 6.63103 31.9064C6.69906 31.6201 6.77937 31.3385 6.98157 30.7876C7.03165 30.6497 7.06614 30.5259 7.08929 30.4121C7.11527 30.3001 7.12944 30.1976 7.13559 30.1021C7.1474 29.9113 7.12755 29.7464 7.10771 29.5806C7.08881 29.4152 7.06661 29.2475 7.08362 29.0543C7.10252 28.862 7.15543 28.6423 7.27543 28.3688C7.39354 28.0943 7.56928 27.9247 7.77526 27.8132C7.97888 27.6998 8.20659 27.6398 8.43336 27.5822C8.88265 27.4636 9.34327 27.3663 9.60547 26.857C9.73398 26.6 9.77177 26.3784 9.7524 26.1649C9.73398 25.9513 9.66311 25.7491 9.59366 25.5455C9.45051 25.1354 9.32768 24.7273 9.6376 24.2156C9.78972 23.9581 9.93854 23.7871 10.0746 23.6525C10.2111 23.5178 10.3387 23.4219 10.4653 23.3265C10.7147 23.1323 10.9836 22.9575 11.3209 22.4733C12.0239 21.5251 12.0659 21.5558 12.8133 20.6421C13.1974 20.1933 13.4761 20.0407 13.7473 19.8867C14.026 19.7393 14.3043 19.5966 14.7054 19.1714C15.1221 18.7613 15.4207 18.6418 15.7226 18.5341C16.0296 18.4316 16.3268 18.3243 16.7567 17.9403C17.6307 17.1863 17.5816 17.1286 18.4962 16.4138C19.4302 15.7175 19.6764 16.05 20.6311 15.4099C21.1173 15.1019 21.243 14.7655 21.3866 14.4466C21.5288 14.1263 21.6691 13.7894 22.1888 13.5013C23.2272 12.9325 22.7883 12.1345 23.8876 11.5926C24.4442 11.3394 24.7796 11.3281 25.1155 11.3304C25.4538 11.3361 25.7859 11.3389 26.3448 11.1098C26.9098 10.8948 27.2537 10.9345 27.5939 10.9799C27.9373 11.0323 28.2756 11.0862 28.8397 10.8906C29.9768 10.5363 29.6731 9.60982 30.8584 9.2862C31.1532 9.20116 31.3852 9.17707 31.5827 9.17376C31.7801 9.16998 31.9441 9.18982 32.1075 9.20919C32.271 9.22951 32.4335 9.24699 32.6296 9.24699C32.8266 9.24935 33.0562 9.22998 33.3538 9.1662C33.8385 9.05896 34.131 9.02306 34.388 8.99754C34.1111 8.8681 33.8017 8.7618 33.2806 8.83219C32.9763 8.87093 32.7481 8.89975 32.5582 8.92384C32.3688 8.95266 32.2171 8.97581 32.0655 8.99896C31.7631 9.04998 31.457 9.08353 30.8542 9.19786C29.6471 9.42226 29.614 9.23471 28.4065 9.50541C27.807 9.65848 27.5518 9.93438 27.3029 10.2093C27.0563 10.4937 26.8158 10.7763 26.2323 10.9444C25.6545 11.1296 25.3177 11.0611 24.9752 10.9922C24.6341 10.926 24.293 10.8736 23.7086 11.0833C22.5577 11.535 22.2497 10.7186 21.0833 11.2374C20.5008 11.4977 20.3671 11.9876 20.2381 12.4548C20.1077 12.9235 20.0023 13.4082 19.4586 13.6898C18.3861 14.2888 18.5014 14.4986 17.4654 15.142C16.9547 15.4756 16.6268 15.5275 16.2914 15.5776C15.9602 15.6324 15.6304 15.6986 15.1245 16.0628C14.6303 16.4412 14.3549 16.5929 14.0756 16.7422C13.8031 16.8995 13.5305 17.0596 13.0481 17.464C12.5818 17.884 12.2275 17.953 11.8713 18.03C11.5221 18.1127 11.1655 18.1973 10.7053 18.6489C10.2593 19.1152 10.3047 19.624 10.3755 20.1338C10.4483 20.6478 10.5182 21.1386 10.1204 21.6082C9.72642 22.0807 9.22469 22.0537 8.73336 22.05C8.24203 22.0443 7.73038 22.041 7.34582 22.5616C6.96882 23.0851 6.68677 23.2778 6.42315 23.4862C6.24788 23.6241 6.0641 23.7621 5.85812 23.9997C5.6238 24.4627 5.39939 24.9313 5.18065 25.4033C5.1679 25.5285 5.16553 25.6494 5.16695 25.7699C5.16695 25.9617 5.16695 26.1526 5.12679 26.3647C5.08569 26.5764 5.00585 26.8093 4.85609 27.0923C4.54995 27.6559 4.44365 27.9653 4.352 28.279C4.30429 28.4349 4.25657 28.5908 4.18523 28.7793C4.14933 28.8733 4.10775 28.9754 4.0572 29.0902C4.00949 29.2055 3.95421 29.334 3.88713 29.4785C3.61831 30.0577 3.60272 30.4059 3.60178 30.7555C3.59941 30.9294 3.59705 31.1032 3.56493 31.3054C3.54886 31.4065 3.52524 31.5152 3.48981 31.6342C3.45768 31.7547 3.41516 31.8865 3.358 32.0334C3.14493 32.5777 2.79911 32.7747 2.45329 32.9552C1.97755 34.7372 1.5996 36.5641 1.3237 38.4288C1.33834 38.6608 1.32511 38.9305 1.2396 39.299C1.22212 39.3836 1.19945 39.4601 1.17299 39.5315C0.907955 41.6451 0.769531 43.8042 0.769531 45.9996C0.769531 54.9791 3.00509 63.3563 7.13464 70.4367C7.1337 70.4324 7.13322 70.4287 7.13181 70.4239L7.13322 70.4249Z" fill="#253026"/>
<path d="M53.7303 13.7167C53.8234 13.899 53.9666 14.079 54.1919 14.2312C54.6469 14.5293 54.9374 14.5841 55.2228 14.653C55.3664 14.6856 55.511 14.7192 55.6758 14.7844C55.7585 14.817 55.8459 14.8581 55.9413 14.9105C56.0344 14.9663 56.1346 15.0343 56.2451 15.1184C56.4653 15.2871 56.6264 15.4189 56.7582 15.5322C56.8876 15.648 56.9854 15.7482 57.0846 15.8459C57.1205 15.8828 57.1574 15.9192 57.1957 15.956C57.1853 15.9097 57.1758 15.8634 57.1668 15.8167C57.1338 15.6541 57.1002 15.4911 57.0242 15.3187C56.9453 15.1496 56.8215 14.9738 56.6146 14.7825C56.2031 14.3956 55.9834 14.2184 55.7746 14.0275C55.6683 13.9345 55.5643 13.8376 55.4287 13.7247C55.2908 13.6137 55.1254 13.4805 54.9048 13.3028C54.6847 13.1233 54.4319 13.0803 54.1914 13.1035C53.9675 13.1238 53.7559 13.1998 53.5811 13.2768C53.6108 13.4068 53.6529 13.5608 53.7318 13.7162L53.7303 13.7167Z" fill="#253026"/>
<path d="M51.7547 1.90439C51.5563 2.05226 51.4183 2.17792 51.3012 2.28044C51.183 2.38249 51.089 2.46375 50.9945 2.54548C50.7999 2.70327 50.6251 2.88232 50.275 3.24563C50.189 3.33775 50.1276 3.43507 50.1002 3.54609C50.0724 3.65664 50.0676 3.77003 50.079 3.882C50.0998 4.09128 50.1758 4.2916 50.2538 4.45789C50.3775 4.44467 50.5235 4.42341 50.6686 4.37097C50.8401 4.30955 51.0012 4.20089 51.1476 4.0242C51.4315 3.66373 51.4788 3.40247 51.5572 3.15917C51.5931 3.03492 51.6304 2.90973 51.6994 2.77083C51.7703 2.6343 51.8633 2.4732 52.0396 2.3121C52.4459 1.91809 52.64 1.78722 52.8814 1.62234C52.8389 1.62045 52.7969 1.61809 52.7539 1.61573C52.4459 1.59258 52.1482 1.60344 51.7552 1.90533L51.7547 1.90439Z" fill="#253026"/>
<path d="M50.1992 4.75081C50.5899 5.01207 50.4364 4.83727 50.2696 4.49333C50.2639 4.48199 50.2587 4.46924 50.2535 4.45743C50.2318 4.45979 50.2091 4.46215 50.1893 4.46451C49.9195 4.49097 49.809 4.48955 50.1992 4.75081Z" fill="#253026"/>
<path d="M46.7709 92C47.43 92 48.0815 91.9849 48.7287 91.9627C48.5638 91.7714 48.4462 91.5455 48.4618 91.2233C48.5114 90.2213 49.0542 90.252 49.1043 89.25C49.1539 88.2479 48.2397 88.196 48.2894 87.1939C48.339 86.1919 48.9824 86.2283 49.032 85.2262C49.0816 84.2242 49.1534 84.2285 49.2035 83.2264C49.2531 82.2244 48.8057 82.1989 48.8558 81.1969C48.9054 80.1948 50.1167 80.2638 50.1663 79.2618C50.2159 78.2597 49.8248 78.2375 49.8744 77.236C49.924 76.2339 49.3495 76.2013 49.3996 75.1993C49.4492 74.1973 48.8345 74.2228 48.8336 73.2193C48.8327 72.2149 49.5361 72.2338 49.4841 71.2309C49.4322 70.2279 49.8205 70.2052 49.7685 69.2022C49.7166 68.2002 50.4129 68.1591 50.361 67.1571C50.309 66.1545 49.8947 66.1791 49.8427 65.1766C49.7907 64.1746 49.1024 64.2152 49.0504 63.2132C48.9985 62.2111 49.3523 62.1903 49.3004 61.1888C49.2484 60.1868 49.9589 60.1447 49.907 59.1427C49.855 58.1406 49.453 58.1643 49.401 57.1622C49.349 56.1602 49.5503 56.1484 49.4983 55.1463C49.4463 54.1443 48.7339 54.1864 48.6819 53.1839C48.63 52.1818 48.5445 52.187 48.4925 51.185C48.4405 50.183 47.8018 50.2207 47.7498 49.2187C47.6979 48.2167 49.1336 48.1321 49.0816 47.1301C49.0297 46.128 47.7479 46.2036 47.696 45.2016C47.644 44.1996 48.0753 44.1741 48.0234 43.1725C47.9714 42.1709 48.0243 42.1676 47.9723 41.1661C47.9204 40.164 48.3366 40.1395 48.2846 39.1379C48.2327 38.1363 48.7528 38.1056 48.7008 37.1041C48.6489 36.1025 48.5709 36.1072 48.519 35.1052C48.467 34.1032 48.8752 34.0791 48.8232 33.0775C48.7712 32.0755 47.9449 32.1246 47.893 31.1226C47.841 30.1205 46.9254 30.1744 46.8735 29.1728C46.8215 28.1708 47.3601 28.1392 47.3081 27.1371C47.2561 26.1351 47.901 26.0973 47.849 25.0953C47.7971 24.0932 46.8347 24.1504 46.7828 23.1484C46.7308 22.1463 47.1928 22.1194 47.1409 21.1174C47.1196 20.7087 47.1248 20.4663 47.1347 20.2538C46.9689 20.464 46.821 20.7016 46.7998 21.1315C46.7502 22.134 46.7459 22.134 46.6963 23.1365C46.6467 24.1386 46.4478 24.1272 46.3982 25.1297C46.3486 26.1318 47.1654 26.1781 47.1158 27.1801C47.0662 28.1821 46.385 28.1439 46.3349 29.1459C46.2853 30.1479 45.4236 30.0993 45.374 31.1013C45.3244 32.1034 46.7974 32.187 46.7478 33.189C46.6982 34.1915 46.9382 34.2047 46.8886 35.2072C46.839 36.2093 46.2664 36.1767 46.2168 37.1792C46.1672 38.1812 45.9565 38.1694 45.9069 39.1714C45.8573 40.1735 45.1226 40.1319 45.073 41.1339C45.0234 42.136 46.5947 42.2253 46.5451 43.2273C46.4955 44.2293 44.9223 44.14 44.8727 45.1421C44.8231 46.1436 44.3974 46.1195 44.3478 47.1216C44.2982 48.1236 45.0674 48.1671 45.0177 49.1691C44.9681 50.1707 45.1845 50.183 45.1349 51.185C45.0853 52.1865 45.6121 52.2168 45.5625 53.2183C45.5129 54.2204 44.3601 54.1547 44.31 55.1567C44.2604 56.1588 44.9667 56.1989 44.9171 57.201C44.8675 58.203 45.4023 58.2332 45.3527 59.2357C45.3031 60.2378 44.0077 60.1641 43.9581 61.1661C43.9085 62.1681 44.6497 62.2102 44.6001 63.2122C44.5505 64.2143 44.5869 64.2161 44.5373 65.2182C44.4877 66.2202 44.7168 66.233 44.6672 67.235C44.6176 68.237 45.1415 68.2668 45.0919 69.2684C45.0423 70.2704 45.1108 70.2742 45.0607 71.2762C45.0111 72.2782 43.042 72.2234 43.043 73.2264C43.0439 74.2308 44.2992 74.2138 44.3511 75.2163C44.4031 76.2193 44.3511 76.2221 44.4031 77.2251C44.4551 78.2271 44.9044 78.2007 44.9563 79.2027C45.0083 80.2052 45.3404 80.1854 45.3924 81.1879C45.4444 82.1899 44.7943 82.2282 44.8463 83.2302C44.8982 84.2322 43.5414 84.3121 43.5934 85.3141C43.6453 86.3162 44.9209 86.241 44.9729 87.2431C45.0248 88.2451 44.8217 88.2574 44.8737 89.2594C44.9256 90.2615 44.1078 90.3096 44.1598 91.3117C44.174 91.5805 44.1763 91.7766 44.1744 91.9405C45.03 91.9797 45.8955 92 46.7709 92Z" fill="#253026"/>
<path d="M54.4371 0.752119C54.1796 0.793221 53.9212 0.845661 53.539 1.12865C53.2385 1.3762 53.0481 1.50707 52.8809 1.62187C53.1431 1.63274 53.4053 1.61384 53.7449 1.40172C54.1479 1.16597 54.3468 1.04597 54.5504 0.934006C54.7068 0.854165 54.8637 0.773851 55.1093 0.648656C55.0649 0.641569 55.02 0.634955 54.9752 0.627869C54.7739 0.708655 54.6062 0.730387 54.4371 0.752591V0.752119Z" fill="#253026"/>
<path d="M70.7451 6.07693C70.875 6.19552 71.0324 6.30701 71.2794 6.39205C71.1018 6.2867 70.9246 6.17993 70.7451 6.07693Z" fill="#253026"/>
<path d="M47.5769 2.53085C47.6279 3.49603 46.2924 3.57067 46.3429 4.53633C46.3939 5.50151 46.0656 5.4434 47.0043 5.43396C47.9445 5.42451 46.658 5.32813 46.4908 4.67097C46.2522 3.73508 47.6931 3.56548 47.7442 2.59935C47.7952 1.63369 47.0298 1.59117 47.0809 0.625518C47.095 0.353868 47.1588 0.163005 47.2424 0.00521145C47.0846 0.00379415 46.9287 -0.000457764 46.7705 -0.000457764C46.6042 -0.000457764 46.4398 0.00379415 46.2744 0.00521145C46.3443 0.169619 46.3991 0.369458 46.4143 0.659061C46.4653 1.62424 47.5264 1.56519 47.5769 2.53037V2.53085Z" fill="#253026"/>
<path d="M40.2919 3.38361C40.4502 3.52959 40.5537 3.65242 40.6411 3.75352C40.728 3.85462 40.7974 3.93541 40.8669 4.0162C41.011 4.17304 41.1324 4.34784 41.3894 4.68091C41.4522 4.765 41.5377 4.81839 41.6233 4.86091C41.7092 4.90295 41.8066 4.9261 41.9091 4.9365C42.1004 4.95634 42.3088 4.93319 42.4902 4.90579C42.5176 4.79004 42.5426 4.64878 42.5341 4.49477C42.5232 4.31525 42.4718 4.11399 42.3045 3.95147C41.9781 3.61982 41.7456 3.52817 41.4929 3.46581C41.3696 3.43179 41.2467 3.3992 41.114 3.33825C40.9789 3.2792 40.8437 3.18235 40.6623 3.05101C40.2452 2.72692 40.0935 2.56818 39.8828 2.39008C39.8908 2.43165 39.8989 2.47275 39.906 2.51385C39.9593 2.79212 39.982 3.08786 40.2919 3.38408V3.38361Z" fill="#253026"/>
<path d="M56.8989 5.15663C57.3567 5.09899 57.5872 5.0886 57.8168 5.07301C57.9316 5.06498 58.0464 5.05742 58.1901 5.0475C58.3332 5.03663 58.5052 5.02388 58.7352 5.01915C59.1949 5.00451 59.425 5.04466 59.6541 5.09002C59.8837 5.14057 60.1119 5.19159 60.5669 5.19395C61.0209 5.19726 61.2543 5.01301 61.4928 4.81459C61.7305 4.619 61.9743 4.42058 62.4377 4.45837C63.3661 4.52215 63.3032 5.21238 64.2065 5.30639C64.6591 5.35694 64.8575 5.60922 65.0517 5.85111C65.2463 6.09819 65.4372 6.33158 65.877 6.40905C66.3164 6.48228 66.5961 6.15489 66.8833 5.82796C67.1691 5.50765 67.4625 5.18876 67.9142 5.27521C68.3658 5.35836 68.6011 5.356 68.8387 5.34466C69.0135 5.33852 69.1902 5.32954 69.451 5.36734C68.4565 4.84152 67.4342 4.35066 66.3854 3.89665C66.3136 3.90515 66.2384 3.90988 66.1534 3.90515C65.6838 3.87633 65.4386 4.1083 65.1996 4.32893C64.9596 4.55428 64.7252 4.77112 64.2646 4.76971C63.3443 4.77632 63.3368 4.22688 62.4013 4.26515C61.936 4.2779 61.6941 4.13901 61.448 3.9935C61.2023 3.85271 60.9529 3.69539 60.479 3.74547C60.0051 3.79507 59.7959 4.05917 59.5927 4.32326C59.3896 4.59302 59.193 4.86656 58.7381 4.93175C58.5099 4.96199 58.3356 4.96435 58.1863 4.94923C58.037 4.9327 57.9132 4.89679 57.7885 4.86089C57.5395 4.78908 57.2858 4.71349 56.8299 4.82215C56.4581 4.90577 56.2347 4.93837 56.0391 4.97002C56.2635 5.09143 56.5063 5.20151 56.8989 5.15663Z" fill="#253026"/>
<path d="M38.5988 1.28315C38.7415 1.49527 38.8738 1.71117 39.2621 1.93652C39.5668 2.13589 39.7388 2.26676 39.8833 2.38912C39.8352 2.14581 39.7548 1.89306 39.4473 1.64976C39.0797 1.37669 38.8978 1.23496 38.7112 1.10079C38.5487 0.992599 38.3853 0.883939 38.106 0.698273C38.0683 0.704414 38.03 0.709611 37.9922 0.716225C38.3253 0.907089 38.4656 1.09653 38.5993 1.28315H38.5988Z" fill="#253026"/>
<path d="M42.7523 5.03523C43.1378 4.76642 42.9087 4.84059 42.5298 4.90011C42.517 4.902 42.5033 4.90389 42.4906 4.90578C42.4859 4.9261 42.4811 4.94689 42.4764 4.96531C42.4117 5.21381 42.3678 5.30405 42.7528 5.03523H42.7523Z" fill="#253026"/>
<path d="M54.1773 5.69994C54.3597 5.52136 54.5458 5.34136 54.9928 5.19633C55.4411 5.05885 55.6764 5.03145 55.9083 4.99223C55.9509 4.98468 55.9943 4.97759 56.0387 4.9705C56.0014 4.95019 55.9646 4.92987 55.9277 4.91003C55.6693 4.76641 55.4028 4.61665 54.9309 4.70169C54.4618 4.80043 54.2251 4.84531 53.9884 4.89019C53.7531 4.94216 53.5192 5.00121 53.0506 5.12404C52.5971 5.2516 52.4652 5.76136 52.4189 6.13364C52.6585 6.25647 53.0067 6.40056 53.3964 6.24041C53.8226 6.07694 53.9973 5.88939 54.1769 5.69994H54.1773Z" fill="#253026"/>
<path d="M53.2178 18.4727C53.2357 18.3054 53.2206 18.116 53.1427 17.8812C52.8327 16.9406 52.8398 16.9368 52.4987 15.9999C52.3206 15.5474 51.8052 15.4439 51.4244 15.417C51.3238 15.6711 51.2095 16.051 51.4164 16.4421C51.8378 17.3114 52.2597 17.1102 52.6603 18.0045C52.8644 18.45 52.939 18.6848 53.0075 18.9215C53.0208 18.9649 53.034 19.0089 53.0477 19.0533C53.0619 19.0117 53.077 18.9706 53.0916 18.9295C53.1441 18.7854 53.1965 18.6409 53.2178 18.4727Z" fill="#253026"/>
<path d="M60.0504 89.4167C60.2464 88.4511 59.0365 88.2054 59.226 87.2469C59.4003 86.2864 59.9346 86.3894 60.1094 85.4256C60.2842 84.4609 59.3842 84.2956 59.5586 83.3351C59.7334 82.3746 60.3712 82.4861 60.5233 81.5205C60.6778 80.5558 60.7486 80.5676 60.9031 79.6019C61.0576 78.6358 60.6154 78.5645 60.7694 77.5997C60.9253 76.6365 62.1206 76.8202 62.2581 75.8305C62.3932 74.8417 62.0143 74.7883 62.1305 73.8023C62.2458 72.8145 61.6864 72.745 61.7889 71.7623C61.8896 70.7778 61.2768 70.7716 61.3236 69.7885C61.3571 68.8044 62.0596 68.8474 62.0426 67.8572C62.0176 66.8684 62.4003 66.8542 62.3691 65.8631C62.3379 64.8742 63.022 64.8398 62.9771 63.8462C62.9299 62.8532 62.5127 62.8796 62.4489 61.8918C62.3833 60.9039 61.7039 60.9554 61.6236 59.9746C61.5433 58.9943 61.9042 58.9627 61.8149 57.981C61.7223 57.0007 62.4324 56.9288 62.337 55.9438C62.2311 54.9602 61.831 55.0056 61.7247 54.0257C61.6113 53.0469 61.8069 53.0223 61.6888 52.0429C61.5692 51.0636 60.853 51.1609 60.7241 50.1886C60.5937 49.2163 60.5044 49.2291 60.3603 48.2597C60.2153 47.2902 59.5864 47.3909 59.4282 46.428C59.2694 45.4666 60.6943 45.2214 60.5214 44.2511C60.348 43.2816 59.0937 43.5136 58.9127 42.5555C58.729 41.5979 59.1589 41.5133 58.9685 40.5538C58.7724 39.5962 58.8277 39.5848 58.6283 38.6277C58.42 37.6729 58.8291 37.5817 58.618 36.6246C58.3969 35.6702 58.9052 35.5498 58.6813 34.5926C58.446 33.6373 58.3723 33.6562 58.1351 32.7033C57.8862 31.7523 58.2844 31.6465 58.0317 30.6936C57.7676 29.7421 56.9753 29.967 56.7088 29.0254C56.4311 28.0844 55.5594 28.3466 55.2769 27.4177C54.9849 26.4918 55.5117 26.3245 55.2041 25.3967C54.8989 24.4707 55.5155 24.2605 55.189 23.3317C54.8673 22.4019 53.955 22.7355 53.6191 21.8265C53.4528 21.3706 53.4665 21.1046 53.4854 20.8348C53.5029 20.566 53.5223 20.2944 53.3399 19.8413C53.1845 19.4738 53.1094 19.2498 53.048 19.0519C52.962 19.3018 52.901 19.5683 53.022 19.9665C53.1524 20.4347 53.2171 20.669 53.2823 20.9029C53.3451 21.1372 53.415 21.3696 53.5327 21.8411C53.7727 22.7818 53.5856 22.8266 53.8048 23.7687C54.0282 24.7069 54.8205 24.5331 55.0289 25.486C55.2358 26.4384 54.555 26.5749 54.7473 27.5212C54.9311 28.4713 54.075 28.6277 54.2489 29.5692C54.4123 30.5122 55.8632 30.2736 56.0248 31.2322C56.1717 32.1912 56.4089 32.1558 56.5553 33.1163C56.6881 34.0791 56.1197 34.1551 56.2511 35.1123C56.3701 36.0718 56.1603 36.0973 56.2785 37.054C56.3862 38.0135 55.6534 38.0924 55.7578 39.0453C55.8552 39.9982 57.4175 39.8503 57.512 40.816C57.5994 41.7816 56.0243 41.9125 56.1051 42.8664C56.1849 43.8211 55.7503 43.8528 55.8192 44.8052C55.8873 45.7572 56.6493 45.7128 56.7055 46.6713C56.7613 47.6285 56.9762 47.6186 57.0173 48.5781C57.0584 49.5367 57.5899 49.5178 57.6173 50.4811C57.6438 51.4444 56.4986 51.4713 56.5142 52.4261C56.5284 53.3809 57.2408 53.3719 57.2503 54.3319C57.2531 55.2904 57.7888 55.2904 57.7921 56.2523C57.7827 57.2147 56.4849 57.1995 56.4745 58.1515C56.4618 59.103 57.1955 59.1209 57.1737 60.0776C57.1515 61.0334 57.1799 61.0348 57.1435 61.99C57.1057 62.9444 57.3367 62.9557 57.2824 63.911C57.2262 64.8648 57.7619 64.8979 57.691 65.855C57.6211 66.8112 57.6962 66.8164 57.6192 67.7717C57.5356 68.7279 55.5698 68.6051 55.5377 69.5462C55.4928 70.4872 56.7447 70.5335 56.7476 71.4879C56.7481 72.4412 56.6852 72.4393 56.6739 73.3922C56.6621 74.3442 57.1038 74.3541 57.0731 75.3094C57.0405 76.2642 57.3783 76.2769 57.324 77.2412C57.272 78.2049 56.6214 78.1738 56.5699 79.1352C56.5185 80.0975 55.1616 80.0229 55.1106 80.9795C55.0619 81.9372 56.3314 82.0151 56.26 82.9756C56.1882 83.9351 55.9851 83.9209 55.9133 84.88C55.8415 85.8399 55.0251 85.7752 54.9542 86.7314C54.8645 87.6839 54.7619 87.6744 54.6693 88.6268C54.5763 89.5788 54.9873 89.6194 54.8938 90.5747C54.8597 90.9342 54.932 91.1685 55.0289 91.3717C56.2992 91.1747 57.5436 90.9323 58.7602 90.646C59.1532 90.1911 59.8921 90.1845 60.0499 89.4158L60.0504 89.4167Z" fill="#253026"/>
<path d="M51.1876 15.2209C50.7676 15.4321 50.9996 15.39 51.3851 15.4137C51.3974 15.4146 51.4115 15.416 51.4243 15.417C51.5415 15.1207 51.6397 14.9946 51.1881 15.2209H51.1876Z" fill="#253026"/>
<path d="M40.4158 13.6335C40.1569 13.2414 40.2164 13.4762 40.2315 13.8749C40.232 13.8882 40.2315 13.9028 40.2325 13.9165C40.2547 13.9208 40.2783 13.9246 40.2986 13.9288C40.5745 13.985 40.6747 14.0257 40.4162 13.6335H40.4158Z" fill="#253026"/>
<path d="M35.4439 17.5056C35.3196 17.6218 35.2204 17.7144 35.1207 17.807C34.9214 17.9927 34.7196 18.1755 34.3379 18.5643C33.9496 18.947 33.7332 19.1161 33.5093 19.2805C33.3978 19.3632 33.2863 19.4464 33.1554 19.5588C33.0269 19.6731 32.8828 19.8205 32.7009 20.0265C32.3338 20.4371 32.3201 20.79 32.3008 21.1301C32.2927 21.3016 32.2823 21.4703 32.2365 21.6512C32.1916 21.8331 32.1071 22.0244 31.9412 22.2366C31.7735 22.4477 31.6181 22.5828 31.4688 22.6811C31.3176 22.778 31.1693 22.8356 31.0205 22.8942C30.7205 23.009 30.4252 23.1323 30.1125 23.5858C29.795 24.0351 29.4775 24.149 29.143 24.259C28.9777 24.3153 28.8109 24.3715 28.6488 24.474C28.4892 24.5779 28.3333 24.7277 28.1854 24.9668C27.8859 25.4439 28.0663 25.8861 28.2402 26.3137C28.4136 26.7426 28.5997 27.1669 28.337 27.6431C28.0692 28.1179 28.0063 28.3943 27.9298 28.6621C27.8542 28.931 27.7862 29.2012 27.5462 29.6887C27.3019 30.1739 27.0671 30.3605 26.8196 30.5448C26.5734 30.7295 26.3283 30.9175 26.1086 31.4221C25.8837 31.9243 25.7339 32.1586 25.579 32.392C25.425 32.6254 25.2667 32.8588 25.0673 33.3747C24.8632 33.8882 24.5958 34.0791 24.3294 34.2732C24.0643 34.4674 23.7866 34.6616 23.6056 35.1917C23.4214 35.7213 23.6982 36.12 23.9859 36.5131C24.2736 36.9075 24.5524 37.2916 24.3941 37.8141C24.0714 38.8559 22.5729 38.3853 22.2639 39.4658C22.1184 40.0062 21.9431 40.2472 21.7678 40.49C21.5968 40.7333 21.4253 40.978 21.2883 41.5251C21.029 42.6235 21.7745 42.8082 21.5401 43.8972C21.3167 44.9904 21.5241 45.0353 21.3238 46.1295C21.2203 46.6765 21.3105 46.977 21.3923 47.2742C21.4745 47.5718 21.559 47.868 21.4773 48.4146C21.3913 48.9612 21.0705 49.1889 20.7469 49.42C20.4257 49.651 20.095 49.8848 20.0288 50.4423C19.8909 51.5587 20.5967 51.6508 20.4809 52.7577C20.3746 53.8684 20.9108 53.9242 20.8239 55.0282C20.7497 56.1323 19.4548 56.0303 19.3976 57.157C19.3509 58.2838 20.0898 58.3235 20.0633 59.4394C20.0458 60.5571 20.0779 60.5586 20.0813 61.6768C20.0803 62.2366 20.1479 62.5168 20.2083 62.796C20.2693 63.0757 20.3316 63.3549 20.3496 63.9128C20.3642 64.4717 20.5097 64.7486 20.6529 65.0235C20.796 65.299 20.9373 65.5725 20.9708 66.1276C21.0006 66.6832 21.0379 66.96 21.0753 67.2369C21.113 67.5137 21.1456 67.7906 21.1948 68.3452C21.2401 68.8994 20.7767 69.2282 20.3227 69.5627C19.8696 69.8962 19.4142 70.2364 19.5072 70.8019C19.597 71.3679 19.9518 71.5946 20.317 71.8157C20.6831 72.0368 21.0445 72.2532 21.1773 72.8012C21.3067 73.3502 21.3597 73.627 21.4182 73.9039C21.4768 74.1807 21.5269 74.4585 21.6762 75.0037C21.8217 75.5489 22.0055 75.7884 22.1921 76.0256C22.3782 76.2627 22.5582 76.4994 22.7241 77.0356C22.8852 77.5728 23.0519 77.8133 23.2168 78.0528C23.3807 78.2923 23.5442 78.5304 23.727 79.0581C23.907 79.5901 23.8466 79.8943 23.7847 80.2113C23.7232 80.5255 23.6618 80.8397 23.8437 81.3546C24.208 82.3841 22.9343 82.8589 23.2985 83.8893C23.6642 84.9196 24.8585 84.4722 25.227 85.5017C25.579 86.4862 25.4212 86.5968 25.7287 87.5057C27.2585 88.2281 28.8506 88.8692 30.4998 89.4267C30.2046 89.2623 29.9376 89.0567 29.8266 88.6268C29.5569 87.5709 30.086 87.4438 29.8162 86.3889C29.5465 85.3335 28.6555 85.5456 28.3857 84.4892C28.1159 83.4334 28.7457 83.2841 28.4783 82.2272C28.2118 81.1704 28.2822 81.1539 28.0158 80.0965C27.8826 79.5679 27.7068 79.3293 27.5311 79.0907C27.3577 78.8559 27.1734 78.6032 27.0544 78.0977C26.9297 77.587 27.1692 77.2657 27.4106 76.9492C27.6515 76.6322 27.8901 76.3218 27.7895 75.8158C27.6846 75.3117 27.5434 75.0746 27.3988 74.8365C27.2533 74.5993 27.1097 74.3598 27.0237 73.8462C26.9334 73.3346 26.7572 73.0965 26.573 72.8589C26.3887 72.6212 26.2092 72.3798 26.1369 71.8592C26.0618 71.34 25.8861 71.1108 25.6942 70.8827C25.5034 70.6549 25.3106 70.4244 25.227 69.9C25.1406 69.3761 25.2842 69.0907 25.4127 68.8106C25.5416 68.5299 25.6687 68.2526 25.5761 67.7339C25.4802 67.2151 25.5379 66.9364 25.5894 66.66C25.6409 66.3837 25.6947 66.1078 25.6172 65.5881C25.536 65.0684 25.6763 64.7807 25.8124 64.4958C25.9484 64.2105 26.0849 63.9275 26.0221 63.4097C25.956 62.8919 25.8261 62.6448 25.6942 62.3973C25.5634 62.1492 25.4273 61.9007 25.3791 61.3773C25.3276 60.8543 25.132 60.61 24.9402 60.3634C24.7484 60.1173 24.55 59.8688 24.5136 59.3392C24.4395 58.2795 24.7961 58.2535 24.7404 57.1981C24.695 56.1389 25.4079 56.1063 25.3796 55.0575C25.3645 54.0082 24.9591 54.0163 24.961 52.9594C24.9728 51.9031 25.1698 51.9035 25.2015 50.851C25.2143 50.3237 25.0541 50.0568 24.8854 49.7861C24.7182 49.5159 24.5505 49.2433 24.5836 48.7123C24.6128 48.1808 24.611 47.9143 24.61 47.6479C24.61 47.3814 24.6015 47.1131 24.6511 46.583C24.7442 45.5224 24.1121 45.4681 24.2273 44.3975C24.3554 43.3256 25.7864 43.4923 25.9309 42.452C26.0897 41.4122 24.8174 41.2242 25.0017 40.1621C25.1982 39.1044 25.6196 39.1799 25.8383 38.1354C25.9465 37.6119 26.0259 37.3563 26.0958 37.0984C26.1657 36.84 26.2427 36.5844 26.3712 36.0661C26.496 35.5464 26.6741 35.3159 26.8413 35.0839C26.9259 34.9682 27.0109 34.8529 27.0912 34.7022C27.1749 34.5529 27.2552 34.3687 27.3284 34.114C27.472 33.6033 27.6808 33.3879 27.8826 33.1729C28.0848 32.9575 28.2855 32.7444 28.4537 32.2479C28.6167 31.7486 28.6885 31.4967 28.7585 31.243C28.8288 30.9898 28.894 30.7338 29.0844 30.2443C29.2692 29.752 29.4638 29.5451 29.6589 29.341C29.854 29.1369 30.0411 28.931 30.2518 28.4562C30.3558 28.2176 30.3855 28.0182 30.3803 27.8377C30.378 27.6592 30.3383 27.4985 30.2991 27.3374C30.223 27.0166 30.138 26.6845 30.377 26.2116C30.6109 25.7364 30.5249 25.3981 30.4479 25.0589C30.3718 24.7206 30.2839 24.3687 30.5542 23.8976C30.8202 23.4243 31.072 23.2532 31.3304 23.0912C31.5893 22.9291 31.8331 22.761 32.1255 22.3126C32.2701 22.0868 32.4127 21.9384 32.5535 21.8303C32.6981 21.7244 32.8412 21.6588 32.9834 21.5931C33.2693 21.4627 33.5452 21.3304 33.8574 20.9071C34.1631 20.4782 34.131 20.1286 34.1026 19.7728C34.0743 19.418 34.0436 19.0514 34.3932 18.6347C34.7362 18.2124 35.0078 18.0843 35.2747 17.9577C35.408 17.8939 35.5407 17.8306 35.6848 17.7333C35.8299 17.6369 35.9914 17.5122 36.1747 17.3162C36.4724 16.9935 36.6713 16.8262 36.8475 16.6817C36.5687 16.7091 36.2749 16.7691 35.9276 17.0804C35.7245 17.2604 35.5686 17.3927 35.4439 17.508V17.5056Z" fill="#253026"/>
<path d="M58.1157 17.3351C58.2286 17.464 58.3188 17.567 58.4091 17.67C58.5895 17.876 58.7728 18.0791 59.1177 18.5034C59.4692 18.9215 59.5916 19.1724 59.7191 19.4166C59.7824 19.539 59.8457 19.6613 59.9341 19.8064C60.0205 19.9533 60.1287 20.1262 60.2879 20.3449C60.6097 20.7796 60.9234 20.8949 61.2512 21.0078C61.4133 21.0654 61.5786 21.1216 61.7378 21.2246C61.8956 21.3285 62.0511 21.4759 62.1999 21.7084C62.3506 21.9399 62.4229 22.1378 62.455 22.3188C62.4885 22.4988 62.4852 22.6589 62.4819 22.8186C62.4772 23.1366 62.4625 23.455 62.7271 23.9269C62.9973 24.3965 62.9218 24.7414 62.8575 25.0735C62.8235 25.2408 62.7899 25.4066 62.7942 25.5894C62.7956 25.7742 62.8353 25.9759 62.9529 26.213C63.1915 26.6841 63.6299 26.7752 64.083 26.8688C64.5361 26.9609 64.9858 27.0667 65.2046 27.5685C65.4275 28.0674 65.5759 28.3031 65.7394 28.5332C65.9014 28.7637 66.0573 28.9985 66.2529 29.5111C66.4527 30.0218 66.4008 30.3303 66.3592 30.6313C66.3167 30.9331 66.2708 31.2327 66.44 31.7467C66.6143 32.2588 66.6398 32.5337 66.67 32.8063C66.6993 33.0789 66.7319 33.3492 66.8784 33.8674C67.03 34.3843 66.9219 34.6909 66.8113 34.9947C66.6993 35.2994 66.5982 35.597 66.722 36.1139C66.8491 36.6293 67.2974 36.7998 67.7396 36.9808C68.1814 37.1608 68.6358 37.345 68.745 37.8793C68.9699 38.948 67.4122 39.2291 67.6078 40.2694C67.6976 40.7933 67.6371 41.0711 67.5762 41.3475C67.511 41.6248 67.4458 41.9012 67.5256 42.4218C67.6707 43.4654 68.4393 43.3752 68.5659 44.4367C68.6812 45.4964 68.9023 45.477 68.9963 46.5428C69.0464 47.0748 69.1905 47.3337 69.3445 47.5931C69.4971 47.8524 69.6483 48.1142 69.678 48.6513C69.7116 49.1885 69.4333 49.4677 69.1565 49.7431C68.8777 50.019 68.6075 50.2907 68.6203 50.8203C68.6519 51.8776 69.3558 51.8747 69.3676 52.9443C69.37 54.0116 69.9029 54.0234 69.8873 55.0986C69.859 56.1744 68.5645 56.113 68.5192 57.1665C68.4644 58.22 69.208 58.2734 69.1338 59.3373C69.0511 60.3984 69.0922 60.4027 68.9897 61.4614C68.941 61.991 68.9637 62.2612 68.9935 62.5329C69.0223 62.8045 69.0502 63.0766 68.9831 63.6053C68.9198 64.1335 69.011 64.416 69.105 64.6999C69.1985 64.9839 69.2939 65.2697 69.2117 65.7988C69.1338 66.3279 69.1064 66.5944 69.079 66.8613C69.0516 67.1278 69.0284 67.3956 68.9321 67.9215C68.839 68.4482 68.3037 68.6282 67.7732 68.8025C67.2417 68.9773 66.7267 69.1488 66.6422 69.6605C66.5604 70.1735 66.8297 70.4778 67.099 70.7858C67.3678 71.0934 67.6518 71.4085 67.5757 71.9315C67.5029 72.4549 67.4524 72.7148 67.3971 72.9737C67.3414 73.2321 67.2946 73.4929 67.2025 74.0121C67.1151 74.5322 67.1789 74.81 67.2393 75.0883C67.3003 75.367 67.3664 75.6491 67.2578 76.1683C67.1533 76.6889 67.176 76.9634 67.1992 77.2402C67.2233 77.5171 67.2478 77.7953 67.1207 78.3136C66.9989 78.829 66.7669 79.0643 66.5434 79.2892C66.3181 79.5164 66.0932 79.7437 65.96 80.2723C65.6935 81.3296 64.3702 81.0188 64.1038 82.0751C63.8369 83.1315 65.0831 83.4268 64.8129 84.4826C64.5431 85.5385 64.3452 85.4918 64.0754 86.5477C63.8057 87.6035 63.0092 87.4127 62.7394 88.4681C62.5783 89.0884 62.4781 89.336 62.3666 89.6487C64.4047 88.9944 66.3549 88.2111 68.214 87.3092C68.231 86.6218 67.6957 86.2538 68.0004 85.4006C68.3685 84.3716 68.9694 84.597 69.3346 83.5671C69.6988 82.5372 69.7664 82.5627 70.1311 81.5328C70.3135 81.0178 70.2993 80.7211 70.2856 80.4249C70.2719 80.1235 70.2572 79.8438 70.4401 79.3019C70.6248 78.7671 70.9971 78.5994 71.3703 78.4265C71.7435 78.2541 72.1229 78.0779 72.2878 77.526C72.4569 76.9752 72.4399 76.6691 72.4252 76.3648C72.4115 76.0606 72.3955 75.7573 72.5419 75.2059C72.6931 74.6546 72.618 74.3381 72.5504 74.0248C72.4829 73.7116 72.4097 73.3998 72.5396 72.8489C72.6723 72.2981 72.5736 72.0009 72.4782 71.7061C72.3818 71.4104 72.2736 71.1156 72.3619 70.5614C72.4531 70.0072 72.6596 69.7602 72.8693 69.5112C73.0781 69.2622 73.2775 69.0099 73.3248 68.4463C73.3753 67.8837 73.4868 67.6073 73.6059 67.33C73.7244 67.0526 73.8407 66.7739 73.8718 66.2084C73.9063 65.6438 74.0892 65.3661 74.2772 65.0864C74.4647 64.8067 74.6523 64.5251 74.6679 63.9554C74.6873 63.3861 74.5862 63.1012 74.4869 62.8177C74.3868 62.5343 74.2918 62.2522 74.2914 61.6858C74.2937 61.1198 74.1213 60.8411 73.9446 60.5642C73.7674 60.2874 73.5974 60.0129 73.5837 59.4521C73.5572 58.3325 73.9082 58.3131 73.8619 57.1892C73.8052 56.0676 74.5134 56.0109 74.4383 54.879C74.349 53.7489 73.9507 53.7909 73.844 52.6698C73.7263 51.5497 73.9309 51.5228 73.7925 50.4022C73.7263 49.8419 73.5043 49.5896 73.2917 49.3392C73.0777 49.0888 72.8641 48.8403 72.7777 48.2875C72.695 47.7343 72.6274 47.4627 72.5594 47.191C72.49 46.9194 72.4295 46.6473 72.326 46.0983C72.1248 44.9985 71.4941 45.1336 71.2734 44.0503C71.041 42.9722 72.4361 42.6278 72.1763 41.5261C71.9023 40.4286 70.6664 40.7744 70.3772 39.7077C70.0749 38.6433 70.4916 38.5129 70.1623 37.4471C69.9993 36.9151 69.9176 36.6477 69.8458 36.3779C69.7739 36.1087 69.6946 35.8403 69.5108 35.3145C69.3308 34.7877 69.3237 34.491 69.3261 34.1901C69.3261 34.0399 69.3261 33.8896 69.3015 33.7106C69.2741 33.5329 69.2212 33.327 69.1187 33.0657C68.9169 32.5427 68.924 32.2342 68.9363 31.921C68.9481 31.6082 68.9599 31.2931 68.7294 30.7753C68.5045 30.2561 68.3642 30.0086 68.2272 29.7606C68.0897 29.513 67.957 29.2636 67.7042 28.7571C67.4571 28.2488 67.4165 27.9497 67.3735 27.6488C67.331 27.3483 67.2941 27.0431 67.0149 26.5438C66.877 26.2938 66.7296 26.1323 66.576 26.0165C66.4197 25.9022 66.2595 25.8327 66.0998 25.7642C65.7776 25.6282 65.4696 25.4907 65.171 25.0154C64.8772 24.5369 64.5365 24.4258 64.1921 24.3233C63.8463 24.2213 63.5184 24.115 63.2024 23.6671C62.8906 23.2159 62.8429 22.9117 62.7843 22.6098C62.7257 22.3084 62.678 21.9947 62.3326 21.5591C62.1621 21.3404 62.0657 21.1504 62.0052 20.9747C61.9415 20.8013 61.9141 20.6421 61.8867 20.4815C61.8304 20.1621 61.7785 19.8328 61.4024 19.4109C61.033 18.9839 60.6635 18.9442 60.2997 18.9092C59.9355 18.8743 59.5826 18.8388 59.1928 18.4543C58.8097 18.0636 58.6873 17.7938 58.564 17.5198C58.5026 17.3823 58.4407 17.2448 58.3439 17.0936C58.2456 16.9439 58.1062 16.7866 57.8988 16.6028C57.5629 16.3009 57.365 16.1204 57.1973 15.956C57.2587 16.2348 57.3541 16.514 57.673 16.8593C57.8606 17.0596 58.0037 17.207 58.1176 17.3346L58.1157 17.3351Z" fill="#253026"/>
<path d="M52.2197 6.35048C52.403 6.7837 52.3718 6.55173 52.4143 6.17284C52.4158 6.16009 52.4176 6.14686 52.4191 6.13363C52.4002 6.12371 52.3803 6.11379 52.3628 6.10481C52.1257 5.98009 52.0369 5.9182 52.2197 6.35095V6.35048Z" fill="#253026"/>
<path d="M53.246 13.2116C52.9961 13.6099 53.1794 13.4582 53.5422 13.2934C53.554 13.2882 53.5677 13.2825 53.58 13.2773C53.5748 13.2546 53.5692 13.231 53.5649 13.2097C53.504 12.9272 53.4959 12.8138 53.246 13.2116Z" fill="#253026"/>
<path d="M38.436 15.0012C38.3708 15.1321 38.3061 15.2625 38.2069 15.4037C38.1573 15.4746 38.0992 15.5478 38.0283 15.6253C37.9593 15.7056 37.8781 15.7907 37.7798 15.8819C37.5828 16.0642 37.4311 16.196 37.3012 16.3028C37.1737 16.4119 37.0702 16.4984 36.9653 16.5834C36.9271 16.6151 36.8883 16.6472 36.8486 16.6798C36.8949 16.6751 36.9408 16.6713 36.9866 16.6675C37.1472 16.6552 37.3074 16.6434 37.4779 16.5933C37.6513 16.5466 37.837 16.4639 38.0467 16.3037C38.4629 15.9792 38.6892 15.8417 38.9047 15.691C39.0143 15.6178 39.121 15.5412 39.2585 15.4515C39.3965 15.3622 39.5618 15.2549 39.7825 15.1123C40.0002 14.9658 40.116 14.7593 40.1765 14.5373C40.2322 14.329 40.2379 14.1074 40.2327 13.9165C40.1042 13.8929 39.9483 13.8716 39.7744 13.8858C39.5703 13.9024 39.344 13.9657 39.1324 14.1395C38.7044 14.4806 38.5645 14.7367 38.4365 15.0017L38.436 15.0012Z" fill="#253026"/>
<path opacity="0.3" d="M16.9307 26.5083C19.5149 23.4096 24.3579 20.0482 29.6454 22.4652C34.7396 24.7938 35.4109 30.9 34.5256 34.0942C33.5684 37.5472 27.6715 43.0397 20.0691 40.1413C12.8834 37.4017 15.5073 28.2152 16.9307 26.5083Z" fill="white"/>
</g>
<defs>
<clipPath id="clip0_179_145637">
<rect width="92" height="92" fill="white" transform="translate(0.770508)"/>
</clipPath>
</defs>
</svg>
