<svg width="85" height="92" viewBox="0 0 85 92" fill="none" xmlns="http://www.w3.org/2000/svg">
<path d="M57.627 67.1905L66.8361 80.1619C66.8361 80.1619 70.9035 83.4245 68.6702 87.6295C66.437 91.8345 74.8634 93.1174 75.462 89.2133C76.0606 85.3092 76.4751 85.7448 76.4751 85.7448C76.4751 85.7448 83.5354 87.8829 84.5254 83.4562C85.4003 79.4967 83.5507 76.0202 80.3275 77.2239C77.1043 78.4276 67.6572 65.0049 67.6572 65.0049L57.627 67.1905Z" fill="#CEC3BC"/>
<path d="M12.8698 5.2955C-5.79927 15.9462 -4.10574 47.6306 26.2385 55.8584C47.7879 61.7026 55.5236 65.3216 56.4062 67.927C57.2887 70.5323 63.0445 76.7329 64.5333 76.9467C66.0221 77.1605 72.0464 78.0633 73.1515 75.6638C74.2566 73.2644 78.2703 75.3708 70.7648 67.2618C70.0511 66.4699 65.5309 60.3802 63.7505 48.8501C61.9701 37.32 51.8477 -16.9411 12.8698 5.2955Z" fill="#AD6F36"/>
<mask id="mask0_32_4715" style="mask-type:alpha" maskUnits="userSpaceOnUse" x="0" y="0" width="85" height="92">
<path d="M57.627 67.1905L66.8361 80.1619C66.8361 80.1619 70.9035 83.4245 68.6702 87.6295C66.437 91.8345 74.8634 93.1174 75.462 89.2133C76.0606 85.3092 76.4751 85.7448 76.4751 85.7448C76.4751 85.7448 83.5354 87.8829 84.5254 83.4562C85.4003 79.4967 83.5507 76.0202 80.3275 77.2239C77.1043 78.4276 67.6572 65.0049 67.6572 65.0049L57.627 67.1905Z" fill="#CEC3BC"/>
<path d="M12.8698 5.2955C-5.79927 15.9462 -4.10574 47.6306 26.2385 55.8584C47.7879 61.7026 55.5236 65.3216 56.4062 67.927C57.2887 70.5323 63.0445 76.7329 64.5333 76.9467C66.0221 77.1605 72.0464 78.0633 73.1515 75.6638C74.2566 73.2644 78.2703 75.3708 70.7648 67.2618C70.0511 66.4699 65.5309 60.3802 63.7505 48.8501C61.9701 37.32 51.8477 -16.9411 12.8698 5.2955Z" fill="#AD6F36"/>
</mask>
<g mask="url(#mask0_32_4715)">
<path d="M69.9746 84C69.9746 115.756 44.231 141.5 12.4746 141.5C-19.2818 141.5 -45.0254 115.756 -45.0254 84C-45.0254 52.2436 -30.7818 1 0.974609 1C0.974609 71 69.9746 52.2436 69.9746 84Z" fill="#9F632C"/>
</g>
</svg>
