<svg width="95" height="92" viewBox="0 0 95 92" fill="none" xmlns="http://www.w3.org/2000/svg">
<g clip-path="url(#clip0_199_148844)">
<path d="M20.2732 57.4205L20.2834 57.4264C20.327 57.4519 20.3706 57.4773 20.4142 57.5023L20.4298 57.5116C20.61 57.6159 20.7906 57.7187 20.9722 57.82L20.9903 57.8303C21.0285 57.8518 21.0672 57.8729 21.1054 57.8944L21.1455 57.9164C21.1817 57.9365 21.2179 57.9566 21.2542 57.9762L21.2982 58.0001C21.3345 58.0202 21.3707 58.0398 21.4069 58.0599L21.4392 58.0775C21.564 58.1455 21.6894 58.2126 21.8152 58.2792L21.8509 58.2983C21.8861 58.3169 21.9214 58.3355 21.9566 58.3536L22.009 58.381C22.0423 58.3981 22.0756 58.4158 22.1089 58.4329L22.1647 58.4618C22.1985 58.4794 22.2327 58.497 22.2665 58.5141L22.315 58.5391C22.4364 58.6013 22.5583 58.6634 22.6806 58.7241L22.7203 58.7437C22.7526 58.7599 22.7844 58.7756 22.8167 58.7917C22.8393 58.803 22.8613 58.8137 22.8838 58.825C22.9122 58.8387 22.9401 58.8529 22.9685 58.8671C22.9954 58.8803 23.0218 58.893 23.0488 58.9062C23.0757 58.9195 23.1021 58.9322 23.129 58.9454C23.156 58.9586 23.1829 58.9714 23.2098 58.9846C23.2367 58.9973 23.2632 59.0105 23.2901 59.0232C23.316 59.0355 23.342 59.0477 23.3679 59.0605C23.4193 59.0849 23.4707 59.1094 23.5221 59.1339C23.5491 59.1466 23.576 59.1593 23.6029 59.1721C23.6269 59.1833 23.6514 59.1946 23.6754 59.2058C23.7067 59.2205 23.738 59.2352 23.7693 59.2499C23.7924 59.2607 23.8149 59.2709 23.8379 59.2817C23.8697 59.2964 23.9015 59.3111 23.9333 59.3258C23.9573 59.337 23.9818 59.3483 24.0058 59.3591C24.0371 59.3733 24.0684 59.3875 24.0998 59.4016C24.1223 59.4119 24.1453 59.4222 24.1678 59.4325C24.2075 59.4506 24.2471 59.4682 24.2873 59.4863L24.3323 59.5064C24.3861 59.5304 24.44 59.5544 24.4943 59.5784L24.5433 59.5999C24.5824 59.617 24.6221 59.6342 24.6613 59.6513L24.72 59.6768C24.7557 59.6919 24.791 59.7076 24.8267 59.7228L24.8918 59.7507C24.928 59.7663 24.9648 59.782 25.001 59.7972L25.0558 59.8207C25.0994 59.8393 25.1429 59.8574 25.1865 59.8755L25.2237 59.8912C25.279 59.9142 25.3343 59.9372 25.3902 59.9602L25.4293 59.9763C25.4729 59.9945 25.5165 60.0121 25.56 60.0297L25.6124 60.0512C25.6506 60.0669 25.6888 60.0821 25.7274 60.0978L25.7876 60.1217C25.8244 60.1364 25.8611 60.1511 25.8983 60.1658L25.9604 60.1903C26.0006 60.2064 26.0407 60.2221 26.0814 60.2378L26.1264 60.2554C26.1827 60.2774 26.239 60.2994 26.2958 60.321L26.3198 60.3303C26.3687 60.3489 26.4177 60.368 26.4661 60.3861L26.5131 60.4042C26.5552 60.4199 26.5968 60.436 26.6389 60.4512L26.6908 60.4708C26.7305 60.4855 26.7701 60.5001 26.8103 60.5153L26.8656 60.5359C26.9057 60.5506 26.9459 60.5652 26.986 60.5799L27.0389 60.599C27.0952 60.6196 27.1519 60.6397 27.2082 60.6602C30.793 61.9418 34.5325 62.4357 38.3243 62.4808C38.6743 62.4852 39.0229 62.4881 39.369 62.4949C39.4385 62.4964 39.5075 62.4979 39.5765 62.4994C39.7151 62.5028 39.8526 62.5067 39.9907 62.5116C40.0249 62.5126 40.0597 62.514 40.094 62.5155C40.1625 62.518 40.231 62.5209 40.2996 62.5243C40.3338 62.5258 40.3681 62.5277 40.4024 62.5292C40.4709 62.5326 40.5394 62.5366 40.6075 62.5405C40.744 62.5488 40.8801 62.5581 41.0162 62.5694C41.0843 62.5747 41.1518 62.5806 41.2199 62.5875C41.6942 62.632 42.1637 62.6976 42.6277 62.795C42.6938 62.8087 42.7604 62.8234 42.8265 62.8386C43.4873 62.9913 44.1369 63.2126 44.7738 63.5347C47.0085 64.666 48.5945 66.766 50.8659 67.8572C51.1102 67.9742 51.3569 68.0882 51.6056 68.1989C51.6609 68.2234 51.7162 68.2483 51.7715 68.2728C51.7994 68.285 51.8269 68.2973 51.8548 68.3095C51.938 68.3462 52.0212 68.3824 52.1049 68.4187C52.1881 68.4549 52.2718 68.4906 52.3555 68.5264C53.6381 69.0751 54.9402 69.5906 56.1415 70.2377C56.1674 70.2519 56.1934 70.2661 56.2198 70.2803C56.5581 70.4649 56.888 70.6602 57.2072 70.8697C57.2317 70.8859 57.2561 70.902 57.2806 70.9182C57.3541 70.9671 57.4265 71.0166 57.4985 71.0675C57.5464 71.1013 57.5939 71.135 57.6414 71.1698C57.9733 71.4106 58.291 71.6706 58.5906 71.9535L58.6547 72.0147C59.271 72.6085 59.81 73.3036 60.2422 74.1417C60.4101 74.4672 60.5805 74.7629 60.7528 75.0297C60.7998 75.1026 60.8468 75.1731 60.8943 75.2411C60.9256 75.2867 60.9574 75.3312 60.9888 75.3748C61.0519 75.4619 61.1151 75.5451 61.1787 75.6249C61.2737 75.7439 61.3691 75.8545 61.4646 75.9563C61.6237 76.1257 61.7828 76.2711 61.9414 76.392C61.9732 76.416 62.005 76.4395 62.0363 76.462L62.0838 76.4948C62.1156 76.5159 62.147 76.5364 62.1783 76.556C62.2096 76.5751 62.241 76.5937 62.2728 76.6108C62.3041 76.6285 62.3354 76.6446 62.3668 76.6603C62.3981 76.6755 62.4294 76.6901 62.4603 76.7038C62.4916 76.7176 62.5224 76.7298 62.5538 76.7415C62.5851 76.7533 62.6159 76.7636 62.6468 76.7734C62.6776 76.7831 62.7085 76.792 62.7393 76.7993C62.8005 76.815 62.8617 76.8262 62.9224 76.8341C62.9527 76.838 62.9826 76.8409 63.0129 76.8424C63.0732 76.8463 63.1329 76.8463 63.1921 76.8424C63.222 76.8404 63.2513 76.8375 63.2807 76.8336C63.4129 76.8159 63.5426 76.7787 63.6689 76.722C63.711 76.7029 63.7526 76.6818 63.7942 76.6583L63.8353 76.6343C63.8765 76.6094 63.9171 76.5824 63.9577 76.5536L63.9979 76.5237C64.0248 76.5031 64.0512 76.4821 64.0772 76.4596L64.1163 76.4253C64.1555 76.3905 64.1942 76.3533 64.2323 76.3137C64.2578 76.2878 64.2833 76.2603 64.3082 76.2324C64.4335 76.0915 64.5535 75.9265 64.6675 75.7375L64.7013 75.6803C64.7238 75.6416 64.7459 75.6014 64.7679 75.5608C64.7899 75.5202 64.8115 75.4781 64.833 75.4355C64.8653 75.3714 64.8966 75.3053 64.9275 75.2367C64.9583 75.1682 64.9887 75.0977 65.0185 75.0253C65.0479 74.9523 65.0773 74.8774 65.1057 74.8006C65.1517 74.6762 65.1952 74.5455 65.2378 74.4099L65.2368 74.4139C65.2887 74.4922 65.3411 74.5715 65.394 74.6513C65.438 74.7178 65.4821 74.7849 65.5262 74.8525C65.7229 75.1521 65.9222 75.4595 66.1219 75.7723C66.1449 75.8085 66.1679 75.8447 66.1909 75.881C66.2516 75.9764 66.3123 76.0724 66.373 76.1683C66.4048 76.2182 66.4362 76.2687 66.4675 76.3186C66.6056 76.5389 66.7431 76.7606 66.8787 76.9834C66.9468 77.095 67.0143 77.2066 67.0814 77.3182C67.2831 77.653 67.4798 77.9888 67.6698 78.3217C67.7329 78.4328 67.7956 78.5435 67.8573 78.6541C67.9395 78.8015 68.0198 78.9478 68.0986 79.0932C68.1378 79.1661 68.1769 79.2386 68.2151 79.3111C68.2729 79.4192 68.3292 79.5269 68.3845 79.6341C68.4765 79.8123 68.5651 79.989 68.6498 80.1628C68.7007 80.2671 68.7502 80.3704 68.7981 80.4727C68.8143 80.507 68.8299 80.5407 68.8456 80.5745C68.9034 80.6998 68.9587 80.8232 69.0116 80.9451C69.0218 80.9691 69.0321 80.993 69.0424 81.017C69.0644 81.0684 69.086 81.1198 69.1075 81.1707C69.1207 81.2031 69.1339 81.2354 69.1472 81.2672C69.1638 81.3083 69.18 81.3489 69.1961 81.3896C69.2177 81.4439 69.2387 81.4977 69.2588 81.5511C69.2749 81.5937 69.2906 81.6353 69.3058 81.6769C69.3464 81.788 69.3846 81.8972 69.4193 82.0039C69.4321 82.0421 69.4438 82.0803 69.4556 82.118C69.6137 82.6281 69.6974 83.0789 69.6847 83.4465C69.6827 83.5087 69.6773 83.5689 69.67 83.6262C69.6543 83.7393 69.6411 83.8523 69.6298 83.9654C69.6117 84.1466 69.5995 84.3277 69.5931 84.5088C69.5916 84.5543 69.5902 84.5994 69.5892 84.6444C69.5892 84.6669 69.5882 84.6894 69.5882 84.712C69.5755 85.7967 69.7791 86.8678 70.2804 87.841C70.3191 87.9164 70.3592 87.9922 70.3998 88.0676C70.4336 88.1308 70.4684 88.1939 70.5036 88.2571C70.5805 88.3946 70.6603 88.5322 70.7435 88.6678C70.7738 88.7172 70.8042 88.7667 70.835 88.8156C70.8708 88.8719 70.907 88.9282 70.9437 88.9845C70.9804 89.0403 71.0176 89.0961 71.0558 89.1514C71.0935 89.2068 71.1322 89.2621 71.1713 89.3164C71.1973 89.3526 71.2237 89.3889 71.2506 89.4251C71.2771 89.4613 71.304 89.497 71.3309 89.5328C71.3853 89.6042 71.4406 89.6747 71.4969 89.7443C71.539 89.7966 71.582 89.848 71.6256 89.8994L71.6692 89.9503C71.6986 89.9841 71.7284 90.0179 71.7583 90.0512C71.7881 90.0845 71.8185 90.1173 71.8488 90.1501C71.8949 90.199 71.9409 90.2475 71.9879 90.2955C72.0505 90.3591 72.1146 90.4218 72.1797 90.4829L72.2331 90.5324C72.2972 90.5916 72.3628 90.6489 72.4294 90.7052C72.4603 90.7311 72.4916 90.7571 72.5229 90.7825L72.543 90.7987C72.5704 90.8207 72.5983 90.8423 72.6257 90.8638L72.6502 90.8824C72.6942 90.9162 72.7388 90.949 72.7838 90.9818L72.8147 91.0038C72.8401 91.0219 72.8656 91.0395 72.8915 91.0572L72.9273 91.0811L72.9645 91.1061C73.054 91.1653 73.1446 91.2211 73.2371 91.2745C73.2924 91.3063 73.3482 91.3372 73.4045 91.3665C73.4608 91.3959 73.5176 91.4248 73.5749 91.4522C73.6131 91.4708 73.6513 91.4884 73.6899 91.5061C73.7668 91.5408 73.8446 91.5736 73.9234 91.6044C74.0213 91.6431 74.1207 91.6788 74.2206 91.7121C74.2607 91.7253 74.3009 91.7381 74.341 91.7503C74.4218 91.7748 74.503 91.7973 74.5843 91.8184L74.6455 91.8335C74.8295 91.8781 75.0165 91.9138 75.2045 91.9407C75.2466 91.9466 75.2882 91.952 75.3303 91.9574C75.3724 91.9623 75.4145 91.9672 75.4566 91.9711C75.5198 91.9775 75.5829 91.9824 75.6466 91.9868C75.7102 91.9912 75.7738 91.9941 75.8375 91.9966C75.9432 92.0005 76.0494 92.0019 76.1557 92.0005C76.2198 91.9995 76.2839 91.998 76.348 91.9951C76.3906 91.9931 76.4332 91.9912 76.4758 91.9882C76.5184 91.9858 76.561 91.9824 76.6036 91.9789L76.6677 91.9735C78.0947 91.8438 79.504 91.2534 80.5819 90.3033C81.4205 89.5641 81.9369 88.5459 82.2468 87.4131C82.2532 87.3906 82.259 87.3676 82.2654 87.3451C82.3437 87.0494 82.4088 86.7464 82.4617 86.4385C82.8567 84.1431 84.5515 82.3064 86.8018 81.7053C86.9134 81.6754 87.025 81.6446 87.1362 81.6128C87.1939 81.5961 87.2522 81.5795 87.3099 81.5619C87.3515 81.5496 87.3936 81.5369 87.4352 81.5242C87.495 81.5061 87.5547 81.4875 87.6139 81.4689C87.6815 81.4478 87.7486 81.4263 87.8156 81.4043C87.8827 81.3822 87.9497 81.3602 88.0163 81.3372C88.0829 81.3147 88.1495 81.2917 88.216 81.2682C88.2821 81.2447 88.3487 81.2212 88.4143 81.1972C88.4804 81.1732 88.5455 81.1487 88.6111 81.1237C88.7418 81.0743 88.871 81.0229 88.9993 80.971C89.0311 80.9578 89.0634 80.9446 89.0952 80.9314C89.3816 80.8119 89.6606 80.6866 89.9289 80.5544C90.1076 80.4663 90.2818 80.3758 90.4502 80.2828C90.6186 80.1897 90.7811 80.0943 90.9373 79.9959C91.0935 79.898 91.2433 79.7976 91.3852 79.6948C91.4087 79.6777 91.4322 79.6606 91.4557 79.6434C91.6187 79.523 91.771 79.3997 91.9119 79.2738C91.9722 79.22 92.0304 79.1657 92.0862 79.1103C92.1234 79.0736 92.1596 79.0369 92.1949 78.9997L92.2468 78.9439L92.2977 78.8876L92.3114 78.8724L92.3486 78.8298L92.3633 78.8127L92.4059 78.7628L92.4117 78.7559C92.4465 78.7148 92.4808 78.6732 92.5145 78.6316L92.5175 78.6277C93.5367 77.3583 94.0874 75.6945 94.0208 74.0878C93.9836 73.1798 93.7516 72.2898 93.2904 71.5002L93.288 71.4958L93.2488 71.4302L93.2381 71.4126C93.2239 71.3896 93.2097 71.3666 93.1955 71.3441L93.1945 71.3426C93.1793 71.3191 93.1641 71.2956 93.149 71.2726L93.1269 71.2393L93.1025 71.2026L93.077 71.1654L93.055 71.1336L93.0251 71.0915L93.0075 71.0665L92.9708 71.0161L92.96 71.0019L92.9155 70.9426L92.9125 70.9387C92.4504 70.3342 91.8718 69.8192 91.2491 69.3781C89.6841 68.2694 87.7339 67.608 85.8379 67.8978C82.8323 68.3565 79.9064 65.9412 77.5278 63.7902C77.6252 63.6488 77.7158 63.5053 77.8 63.359C77.8161 63.3306 77.8323 63.3022 77.8484 63.2738C77.9512 63.0887 78.0433 62.9003 78.124 62.7084C78.1363 62.679 78.1485 62.6491 78.1608 62.6193C78.2616 62.3672 78.3428 62.1092 78.4031 61.8458L78.4133 61.7993C78.4202 61.7685 78.4266 61.7372 78.4329 61.7058C78.4422 61.6588 78.451 61.6123 78.4589 61.5649C78.4696 61.5017 78.4789 61.439 78.4868 61.3754L78.4926 61.3279C78.5019 61.2486 78.5093 61.1683 78.5152 61.0881C78.5186 61.0396 78.521 60.9911 78.523 60.9427C78.5245 60.9104 78.5249 60.8776 78.5259 60.8452V60.7963C78.5269 60.7478 78.5264 60.6989 78.5259 60.6499L78.5245 60.6C78.523 60.5506 78.5205 60.5011 78.5176 60.4517C78.5157 60.4184 78.5132 60.3856 78.5103 60.3523L78.5059 60.298C78.5029 60.2676 78.5 60.2373 78.4966 60.2069L78.4902 60.1516L78.4838 60.1012C78.4794 60.0674 78.4745 60.0341 78.4696 60.0003C78.4545 59.899 78.4363 59.7972 78.4148 59.6949C78.4075 59.6606 78.4001 59.6263 78.3923 59.5921L78.3801 59.5407C78.3727 59.5098 78.3649 59.479 78.357 59.4482L78.3409 59.386C78.3316 59.3512 78.3218 59.317 78.312 59.2822C78.3022 59.2475 78.2915 59.2127 78.2807 59.1779C78.2645 59.126 78.2479 59.0737 78.2298 59.0208C78.218 58.986 78.2058 58.9508 78.1931 58.9156C78.1803 58.8803 78.1676 58.8451 78.1539 58.8098C78.1338 58.7569 78.1133 58.7041 78.0912 58.6507C78.077 58.6155 78.0619 58.5797 78.0467 58.544C77.7951 57.9576 77.4397 57.3545 76.9688 56.7362C76.6981 56.3808 76.4038 56.045 76.0969 55.7214C76.0357 55.6568 75.9736 55.5922 75.9109 55.5285C75.6926 55.3048 75.4684 55.0865 75.2422 54.8696C75.1776 54.808 75.1125 54.7458 75.0479 54.6846C74.8202 54.4692 74.5916 54.2548 74.3645 54.0389C74.2671 53.9464 74.1702 53.8534 74.0737 53.7604C74.0414 53.7291 74.0096 53.6982 73.9778 53.6669C73.2033 52.9101 72.4818 52.1215 71.8072 51.3049C71.7323 51.2144 71.6579 51.1233 71.584 51.0318C71.2149 50.5746 70.86 50.109 70.5178 49.6357C70.4493 49.5412 70.3812 49.4462 70.3142 49.3508C70.1458 49.1129 69.9803 48.8725 69.8178 48.6307C69.7855 48.5822 69.7532 48.5337 69.7209 48.4853C69.624 48.3399 69.5285 48.1935 69.434 48.0467C69.3709 47.9488 69.3082 47.8509 69.246 47.752C69.1839 47.6536 69.1222 47.5547 69.061 47.4558C68.969 47.3075 68.8784 47.1582 68.7883 47.0089C68.7585 46.959 68.7286 46.909 68.6988 46.8591C68.5798 46.6589 68.4623 46.4582 68.3463 46.256C68.2885 46.1552 68.2308 46.0538 68.1735 45.9525C68.1167 45.8512 68.0599 45.7493 68.0036 45.6475C67.9473 45.5457 67.8915 45.4434 67.8357 45.3411C67.6688 45.0337 67.5053 44.7248 67.3452 44.4139C67.2919 44.3101 67.2385 44.2064 67.1861 44.1021C67.0016 43.7379 66.8209 43.3712 66.6437 43.0021C66.6183 42.9493 66.5933 42.8969 66.5683 42.844C66.468 42.633 66.3686 42.4211 66.2702 42.2086C66.1963 42.049 66.1234 41.8895 66.0509 41.7294C66.0025 41.6227 65.9545 41.5155 65.9065 41.4087C65.835 41.2482 65.7636 41.0871 65.6931 40.9261C65.6461 40.8184 65.5991 40.7107 65.5526 40.603C65.5296 40.5491 65.5061 40.4953 65.4831 40.4414C65.4136 40.2794 65.3441 40.1174 65.2755 39.9549C65.207 39.7923 65.1385 39.6293 65.0709 39.4663C65.0259 39.3576 64.9808 39.249 64.9358 39.1398C64.9133 39.0855 64.8908 39.0306 64.8687 38.9763C64.7571 38.7036 64.6465 38.4305 64.5368 38.1568C64.4492 37.938 64.3621 37.7187 64.2754 37.4989C64.1888 37.2791 64.1031 37.0593 64.0174 36.839C63.9102 36.5634 63.804 36.2878 63.6983 36.0117C63.5925 35.7357 63.4873 35.4591 63.3825 35.1825C63.3404 35.0719 63.2988 34.9612 63.2567 34.8501C63.2146 34.7395 63.173 34.6284 63.1314 34.5177C63.0898 34.4071 63.0482 34.296 63.0066 34.1853C62.9855 34.13 62.965 34.0742 62.9439 34.0189C62.9023 33.9078 62.8607 33.7971 62.8191 33.686C62.7153 33.4085 62.6115 33.1314 62.5073 32.8538C62.4862 32.798 62.4657 32.7427 62.4451 32.6874C62.3413 32.4098 62.237 32.1323 62.1328 31.8552C62.0079 31.5223 61.8826 31.1899 61.7563 30.8576C61.6932 30.6916 61.6305 30.5252 61.5669 30.3592C61.5248 30.2486 61.4822 30.138 61.4401 30.0273C61.3554 29.8061 61.2702 29.5853 61.1846 29.3645C61.142 29.2544 61.0989 29.1442 61.0558 29.0336C60.9481 28.758 60.8399 28.4829 60.7308 28.2083C60.7088 28.1534 60.6872 28.0986 60.6652 28.0438C60.6216 27.9341 60.5776 27.8245 60.5335 27.7148C60.4674 27.5503 60.4008 27.3863 60.3338 27.2224C60.2892 27.1132 60.2442 27.004 60.1992 26.8949C59.6367 25.5315 59.0458 24.1854 58.4065 22.8666C57.8441 21.7059 57.2444 20.5673 56.5943 19.458C55.5012 17.5925 54.2661 15.8101 52.826 14.1482C52.7844 14.1002 52.7427 14.0522 52.7006 14.0042L52.683 13.9847C52.6483 13.945 52.6135 13.9059 52.5788 13.8662L52.5362 13.8182C52.5097 13.7884 52.4828 13.7585 52.4564 13.7286L52.4074 13.6738C52.3815 13.6449 52.356 13.6161 52.3301 13.5877L52.2811 13.5333C52.2557 13.5054 52.2302 13.477 52.2048 13.4491L52.1529 13.3919C52.1274 13.3644 52.1025 13.3365 52.077 13.3091L52.0276 13.2553C52.0001 13.2259 51.9732 13.1965 51.9458 13.1672L51.8988 13.1163C51.8704 13.0854 51.8415 13.0551 51.8131 13.0242L51.7706 12.9787C51.7353 12.9415 51.7006 12.9043 51.6648 12.8671L51.6423 12.8436C51.5532 12.7501 51.4641 12.6566 51.374 12.5641L51.3623 12.5518C51.3221 12.5107 51.282 12.4691 51.2419 12.428L51.2081 12.3937C51.1748 12.3599 51.142 12.3262 51.1087 12.2924L51.0686 12.2518C51.0368 12.2194 51.0049 12.1871 50.9726 12.1553L50.932 12.1147C50.9002 12.0829 50.8684 12.0511 50.8365 12.0192L50.7949 11.9781C50.7616 11.9453 50.7284 11.9125 50.6951 11.8797L50.6603 11.8455C50.6236 11.8092 50.5864 11.773 50.5492 11.7368L50.5233 11.7113C50.4831 11.6727 50.4435 11.634 50.4033 11.5948L50.3847 11.5767C50.1003 11.3021 49.8105 11.0309 49.5158 10.7626L49.509 10.7563C49.462 10.7132 49.4145 10.6706 49.367 10.6275L49.3611 10.6221C49.3132 10.5791 49.2652 10.536 49.2172 10.4929L49.2128 10.489C38.8545 1.24091 22.7051 -4.05132 10.4181 3.83881C8.28621 5.20752 6.43826 6.99134 5.01424 9.08846C2.57642 12.6776 1.19449 16.9282 0.689305 21.2306L0.685389 21.2639C0.679025 21.3182 0.672661 21.3726 0.666787 21.4269C0.662871 21.4631 0.658955 21.4988 0.655039 21.5351C0.652591 21.5576 0.650143 21.5806 0.647696 21.6031C0.641332 21.6619 0.635458 21.7201 0.629583 21.7789L0.624688 21.8249C0.620772 21.864 0.616856 21.9032 0.613429 21.9424C0.610002 21.9796 0.606576 22.0168 0.603149 22.0535C0.599233 22.0946 0.595806 22.1362 0.59189 22.1773C0.587974 22.2204 0.584058 22.264 0.580631 22.3075C0.578183 22.335 0.576225 22.3624 0.573778 22.3893C0.569372 22.4461 0.564477 22.5024 0.560561 22.5592L0.557623 22.6013C0.553218 22.6624 0.548322 22.7236 0.544406 22.7853L0.54098 22.8357C0.536574 22.9038 0.531679 22.9718 0.527763 23.0404V23.0413C0.522867 23.1187 0.518462 23.1955 0.514545 23.2729L0.511119 23.337C0.508182 23.3953 0.505244 23.4535 0.502307 23.5118L0.49937 23.5754C0.496433 23.6415 0.493496 23.7076 0.491048 23.7737L0.48958 23.8065C0.486643 23.8882 0.483705 23.9695 0.481258 24.0507V24.0517C0.47881 24.1315 0.476852 24.2118 0.474894 24.2916V24.3161C0.424473 26.5762 0.610492 28.8025 1.00603 30.9755C3.01699 42.0231 10.4783 51.6936 20.2732 57.4205Z" fill="#F5BA8E"/>
<path d="M78.5235 60.6495L78.522 60.5995C78.5205 60.5501 78.5181 60.5006 78.5152 60.4512C78.5132 60.4179 78.5108 60.3851 78.5078 60.3518L78.5034 60.2975C78.5005 60.2671 78.4975 60.2368 78.4941 60.2064L78.4877 60.1511L78.4814 60.1007C78.477 60.0669 78.4721 60.0336 78.4672 59.9999C78.452 59.8985 78.4339 59.7967 78.4124 59.6944C78.405 59.6601 78.3977 59.6259 78.3898 59.5916L78.3776 59.5402C78.3703 59.5094 78.3624 59.4785 78.3546 59.4477L78.3384 59.3855C78.3291 59.3508 78.3194 59.3165 78.3096 59.2817C78.2998 59.247 78.289 59.2122 78.2782 59.1775C78.2621 59.1256 78.2454 59.0732 78.2273 59.0203C78.2156 58.9856 78.2033 58.9503 78.1906 58.9151C78.1779 58.8798 78.1652 58.8446 78.1514 58.8093C78.1314 58.7565 78.1108 58.7036 78.0888 58.6502C78.0746 58.615 78.0594 58.5793 78.0442 58.5435C77.7926 57.9571 77.4372 57.354 76.9663 56.7357C76.6956 56.3803 76.4014 56.0445 76.0945 55.7209C76.0333 55.6563 75.9711 55.5917 75.9085 55.5281C75.6901 55.3044 75.4659 55.086 75.2398 54.8692C75.1751 54.8075 75.11 54.7453 75.0454 54.6841C74.8178 54.4687 74.5892 54.2543 74.3621 54.0385C74.2646 53.9459 74.1677 53.8529 74.0713 53.7599C74.039 53.7286 74.0071 53.6977 73.9753 53.6664C73.2009 52.9096 72.4793 52.121 71.8048 51.3045C71.7299 51.2139 71.6555 51.1229 71.5816 51.0313C71.2125 50.5741 70.8576 50.1086 70.5154 49.6352C70.4468 49.5407 70.3788 49.4457 70.3117 49.3503C70.1433 49.1124 69.9779 48.872 69.8154 48.6302C69.7831 48.5817 69.7507 48.5333 69.7184 48.4848C69.6215 48.3394 69.526 48.1931 69.4316 48.0462C69.3684 47.9483 69.3058 47.8504 69.2436 47.7515C69.1814 47.6531 69.1197 47.5542 69.0585 47.4553C68.9665 47.307 68.876 47.1577 68.7859 47.0084C68.756 46.9585 68.7262 46.9085 68.6963 46.8586C68.5774 46.6584 68.4599 46.4577 68.3438 46.2555C68.2861 46.1547 68.2283 46.0534 68.171 45.952C68.1143 45.8507 68.0575 45.7489 68.0012 45.647C67.9449 45.5452 67.8891 45.4429 67.8333 45.3406C67.6664 45.0332 67.5029 44.7243 67.3428 44.4134C67.2894 44.3097 67.2361 44.2059 67.1837 44.1016C66.9991 43.7374 66.8185 43.3708 66.6413 43.0017C66.6158 42.9488 66.5909 42.8964 66.5659 42.8435C66.4656 42.6326 66.3662 42.4206 66.2678 42.2081C66.1939 42.0486 66.1209 41.889 66.0485 41.7289C66 41.6222 65.952 41.515 65.9041 41.4083C65.8326 41.2477 65.7611 41.0867 65.6906 40.9256C65.6436 40.8179 65.5966 40.7102 65.5501 40.6025C65.5271 40.5487 65.5036 40.4948 65.4806 40.441C65.4111 40.2789 65.3416 40.1169 65.2731 39.9544C65.2045 39.7919 65.136 39.6288 65.0685 39.4658C65.0234 39.3572 64.9784 39.2485 64.9333 39.1393C64.9108 39.085 64.8883 39.0302 64.8663 38.9758C64.7547 38.7032 64.644 38.43 64.5344 38.1564C64.4468 37.9375 64.3596 37.7182 64.273 37.4984C64.1863 37.2786 64.1007 37.0588 64.015 36.8386C63.9078 36.563 63.8016 36.2874 63.6958 36.0113C63.5901 35.7352 63.4848 35.4586 63.3801 35.182C63.338 35.0714 63.2964 34.9608 63.2543 34.8496C63.2122 34.739 63.1706 34.6279 63.129 34.5172C63.0873 34.4066 63.0457 34.2955 63.0041 34.1849C62.9831 34.1295 62.9625 34.0737 62.9415 34.0184C62.8999 33.9073 62.8582 33.7967 62.8166 33.6855C62.7129 33.408 62.6091 33.1309 62.5048 32.8534C62.4838 32.7976 62.4632 32.7422 62.4426 32.6869C62.3389 32.4094 62.2346 32.1318 62.1303 31.8547C62.0055 31.5219 61.8802 31.1895 61.7539 30.8571C61.6907 30.6911 61.6281 30.5247 61.5644 30.3587C61.5223 30.2481 61.4798 30.1375 61.4377 30.0269C61.353 29.8056 61.2678 29.5848 61.1821 29.364C61.1395 29.2539 61.0965 29.1438 61.0534 29.0331C60.9457 28.7575 60.8375 28.4824 60.7283 28.2078C60.7063 28.153 60.6848 28.0981 60.6627 28.0433C60.6192 27.9337 60.5751 27.824 60.5311 27.7143C60.465 27.5499 60.3984 27.3859 60.3313 27.2219C60.2868 27.1127 60.2418 27.0036 60.1967 26.8944C59.6343 25.5311 59.0434 24.1849 58.4041 22.8661C57.8416 21.7054 57.242 20.5668 56.5919 19.4576C55.4988 17.592 54.2637 15.8096 52.8235 14.1477C52.7819 14.0997 52.7403 14.0518 52.6982 14.0038L52.6806 13.9842C52.6458 13.9445 52.6111 13.9054 52.5763 13.8657L52.5337 13.8178C52.5073 13.7879 52.4804 13.758 52.4539 13.7282L52.405 13.6734C52.379 13.6445 52.3536 13.6156 52.3276 13.5872L52.2787 13.5329C52.2532 13.505 52.2278 13.4766 52.2023 13.4487L52.1504 13.3914C52.125 13.364 52.1 13.3361 52.0745 13.3087L52.0251 13.2548C51.9977 13.2254 51.9708 13.1961 51.9434 13.1667L51.8964 13.1158C51.868 13.0849 51.8391 13.0546 51.8107 13.0238L51.7681 12.9782C51.7329 12.941 51.6981 12.9038 51.6624 12.8666L51.6399 12.8431C51.5508 12.7496 51.4617 12.6561 51.3716 12.5636L51.3598 12.5514C51.3197 12.5102 51.2796 12.4686 51.2394 12.4275L51.2056 12.3932C51.1724 12.3595 51.1396 12.3257 51.1063 12.2919L51.0661 12.2513C51.0343 12.219 51.0025 12.1867 50.9702 12.1549L50.9296 12.1142C50.8977 12.0824 50.8659 12.0506 50.8341 12.0188L50.7925 11.9776C50.7592 11.9448 50.7259 11.912 50.6926 11.8792L50.6579 11.845C50.6212 11.8088 50.584 11.7725 50.5467 11.7363L50.5208 11.7109C50.4807 11.6722 50.441 11.6335 50.4009 11.5943L50.3823 11.5762C50.0979 11.3016 49.8081 11.0304 49.5134 10.7622L49.5065 10.7558C49.4595 10.7127 49.412 10.6701 49.3646 10.627L49.3587 10.6217C49.3107 10.5786 49.2627 10.5355 49.2148 10.4924L49.2104 10.4885C38.8545 1.24093 22.7051 -4.0513 10.4181 3.83883C8.28621 5.20754 6.43826 6.99136 5.01424 9.08848C2.57642 12.6777 1.19449 16.9282 0.689305 21.2306L0.685389 21.2639C0.679025 21.3182 0.672661 21.3726 0.666787 21.4269C0.662871 21.4631 0.658955 21.4989 0.655039 21.5351C0.652591 21.5576 0.650143 21.5806 0.647696 21.6031C0.641332 21.6619 0.635458 21.7201 0.629583 21.7789L0.624688 21.8249C0.620772 21.8641 0.616856 21.9032 0.613429 21.9424C0.610002 21.9796 0.606576 22.0168 0.603149 22.0535C0.599233 22.0946 0.595806 22.1362 0.59189 22.1773C0.587974 22.2204 0.584058 22.264 0.580631 22.3076C0.578183 22.335 0.576225 22.3624 0.573778 22.3893C0.569372 22.4461 0.564477 22.5024 0.560561 22.5592L0.557623 22.6013C0.553218 22.6625 0.548322 22.7237 0.544406 22.7853L0.54098 22.8358C0.536574 22.9038 0.531679 22.9718 0.527763 23.0404V23.0414C0.522867 23.1187 0.518462 23.1956 0.514545 23.2729L0.511119 23.337C0.508182 23.3953 0.505244 23.4535 0.502307 23.5118L0.49937 23.5754C0.496433 23.6415 0.493496 23.7076 0.491048 23.7737L0.48958 23.8065C0.486643 23.8882 0.483705 23.9695 0.481258 24.0508V24.0517C0.47881 24.1315 0.476852 24.2118 0.474894 24.2916V24.3161C0.424473 26.5762 0.610492 28.8026 1.00603 30.9755C3.01699 42.0231 10.4783 51.6936 20.2732 57.4206L20.2834 57.4264C20.327 57.4519 20.3706 57.4774 20.4142 57.5023L20.4298 57.5116C20.61 57.6159 20.7906 57.7187 20.9722 57.82L20.9903 57.8303C21.0285 57.8518 21.0672 57.8729 21.1054 57.8944L21.1455 57.9165C21.1817 57.9365 21.2179 57.9566 21.2542 57.9762L21.2982 58.0002C21.3345 58.0202 21.3707 58.0398 21.4069 58.0599L21.4392 58.0775C21.564 58.1456 21.6894 58.2126 21.8152 58.2792L21.8509 58.2983C21.8861 58.3169 21.9214 58.3355 21.9566 58.3536L22.009 58.381C22.0423 58.3981 22.0756 58.4158 22.1089 58.4329L22.1647 58.4618C22.1985 58.4794 22.2327 58.497 22.2665 58.5142L22.315 58.5391C22.4364 58.6013 22.5583 58.6635 22.6806 58.7242L22.7203 58.7437C22.7526 58.7599 22.7844 58.7756 22.8167 58.7917C22.8393 58.803 22.8613 58.8138 22.8838 58.825C22.9122 58.8387 22.9401 58.8529 22.9685 58.8671C22.9954 58.8803 23.0218 58.8931 23.0488 58.9063C23.0757 58.9195 23.1021 58.9322 23.129 58.9454C23.156 58.9586 23.1829 58.9714 23.2098 58.9846C23.2367 58.9973 23.2632 59.0105 23.2901 59.0233C23.316 59.0355 23.342 59.0477 23.3679 59.0605C23.4193 59.0849 23.4707 59.1094 23.5221 59.1339C23.5491 59.1466 23.576 59.1594 23.6029 59.1721C23.6269 59.1833 23.6514 59.1946 23.6754 59.2059C23.7067 59.2205 23.738 59.2352 23.7693 59.2499C23.7924 59.2607 23.8149 59.271 23.8379 59.2817C23.8697 59.2964 23.9015 59.3111 23.9333 59.3258C23.9573 59.3371 23.9818 59.3483 24.0058 59.3591C24.0371 59.3733 24.0684 59.3875 24.0998 59.4017C24.1223 59.4119 24.1453 59.4222 24.1678 59.4325C24.2075 59.4506 24.2471 59.4682 24.2873 59.4864L24.3323 59.5064C24.3861 59.5304 24.44 59.5544 24.4943 59.5784L24.5433 59.5999C24.5824 59.6171 24.6221 59.6342 24.6613 59.6513L24.72 59.6768C24.7557 59.692 24.791 59.7076 24.8267 59.7228L24.8918 59.7507C24.928 59.7664 24.9648 59.782 25.001 59.7972L25.0558 59.8207C25.0994 59.8393 25.1429 59.8574 25.1865 59.8755L25.2237 59.8912C25.279 59.9142 25.3343 59.9372 25.3902 59.9602L25.4293 59.9764C25.4729 59.9945 25.5165 60.0121 25.56 60.0297L25.6124 60.0513C25.6506 60.0669 25.6888 60.0821 25.7274 60.0978L25.7876 60.1218C25.8244 60.1364 25.8611 60.1511 25.8983 60.1658L25.9604 60.1903C26.0006 60.2064 26.0407 60.2221 26.0814 60.2378L26.1264 60.2554C26.1827 60.2774 26.239 60.2995 26.2958 60.321L26.3198 60.3303C26.3687 60.3489 26.4177 60.368 26.4661 60.3861L26.5131 60.4042C26.5552 60.4199 26.5968 60.436 26.6389 60.4512L26.6908 60.4708C26.7305 60.4855 26.7701 60.5002 26.8103 60.5153L26.8656 60.5359C26.9057 60.5506 26.9459 60.5653 26.986 60.58L27.0389 60.599C27.0952 60.6196 27.1519 60.6397 27.2082 60.6602C30.793 61.9418 34.5325 62.4357 38.3243 62.4808C38.6743 62.4852 39.0229 62.4881 39.369 62.495C39.4385 62.4964 39.5075 62.4979 39.5765 62.4994C39.7151 62.5028 39.8526 62.5067 39.9907 62.5116C40.0249 62.5126 40.0597 62.5141 40.094 62.5155C40.1625 62.518 40.231 62.5209 40.2996 62.5243C40.3338 62.5258 40.3681 62.5278 40.4024 62.5292C40.4709 62.5327 40.5394 62.5366 40.6075 62.5405C40.744 62.5488 40.8801 62.5581 41.0162 62.5694C41.0843 62.5748 41.1518 62.5806 41.2199 62.5875C41.6942 62.632 42.1637 62.6976 42.6277 62.795C42.6938 62.8088 42.7604 62.8234 42.8265 62.8386C43.4873 62.9913 44.1369 63.2126 44.7738 63.5347C47.0085 64.666 48.5945 66.7661 50.8659 67.8572C51.1102 67.9742 51.3569 68.0883 51.6056 68.1989C51.6609 68.2234 51.7162 68.2483 51.7715 68.2728C51.7994 68.285 51.8269 68.2973 51.8548 68.3095C51.938 68.3462 52.0212 68.3825 52.1049 68.4187C52.1881 68.4549 52.2718 68.4906 52.3555 68.5264C53.6381 69.0751 54.9402 69.5906 56.1415 70.2377C56.1674 70.2519 56.1934 70.2661 56.2198 70.2803C56.5581 70.4649 56.888 70.6602 57.2072 70.8697C57.2317 70.8859 57.2561 70.902 57.2806 70.9182C57.3541 70.9671 57.4265 71.0166 57.4985 71.0675C57.5464 71.1013 57.5939 71.135 57.6414 71.1698C57.9733 71.4107 58.291 71.6706 58.5906 71.9535L58.6547 72.0147C59.271 72.6085 59.81 73.3036 60.2422 74.1417C60.4101 74.4672 60.5805 74.7629 60.7528 75.0297C60.7998 75.1026 60.8468 75.1731 60.8943 75.2412C60.9256 75.2867 60.9574 75.3312 60.9888 75.3748C61.0519 75.4619 61.1151 75.5452 61.1787 75.625C61.2737 75.7439 61.3691 75.8545 61.4646 75.9564C61.6237 76.1257 61.7828 76.2711 61.9414 76.392C61.9732 76.416 62.005 76.4395 62.0363 76.462L62.0838 76.4948C62.1156 76.5159 62.147 76.5364 62.1783 76.556C62.2096 76.5751 62.241 76.5937 62.2728 76.6109C62.3041 76.6285 62.3354 76.6446 62.3668 76.6603C62.3981 76.6755 62.4294 76.6902 62.4603 76.7039C62.4916 76.7176 62.5224 76.7298 62.5538 76.7416C62.5851 76.7533 62.6159 76.7636 62.6468 76.7734C62.6776 76.7832 62.7085 76.792 62.7393 76.7993C62.8005 76.815 62.8617 76.8262 62.9224 76.8341C62.9527 76.838 62.9826 76.8409 63.0129 76.8424C63.0732 76.8463 63.1329 76.8463 63.1921 76.8424C63.222 76.8404 63.2513 76.8375 63.2807 76.8336C63.4129 76.816 63.5426 76.7788 63.6689 76.722C63.711 76.7029 63.7526 76.6818 63.7942 76.6583L63.8353 76.6344C63.8765 76.6094 63.9171 76.5825 63.9577 76.5536L63.9979 76.5237C64.0248 76.5032 64.0512 76.4821 64.0772 76.4596L64.1163 76.4253C64.1555 76.3906 64.1942 76.3534 64.2323 76.3137C64.2578 76.2878 64.2833 76.2604 64.3082 76.2325C64.4335 76.0915 64.5535 75.9265 64.6675 75.7375L64.7013 75.6803C64.7238 75.6416 64.7459 75.6015 64.7679 75.5608C64.7899 75.5202 64.8115 75.4781 64.833 75.4355C64.8653 75.3714 64.8966 75.3053 64.9275 75.2368C64.9583 75.1682 64.9887 75.0977 65.0185 75.0253C65.0479 74.9523 65.0773 74.8775 65.1057 74.8006C65.1717 74.6209 65.2344 74.4291 65.2927 74.2254C65.3514 74.0218 65.4057 73.8064 65.4562 73.5792C65.5271 73.2581 65.6265 72.9541 65.7508 72.6643C65.7797 72.5977 65.8096 72.5317 65.8409 72.4666C65.862 72.423 65.883 72.3799 65.9055 72.3373C65.9388 72.2732 65.9731 72.2095 66.0083 72.1469C66.1151 71.9589 66.2325 71.7778 66.3598 71.603C66.3882 71.5644 66.4171 71.5257 66.4465 71.4875C66.5052 71.4111 66.5654 71.3358 66.6276 71.2618C66.6589 71.2246 66.6902 71.1879 66.7221 71.1517C66.7539 71.115 66.7867 71.0792 66.8195 71.0435C66.8523 71.0078 66.8856 70.972 66.9193 70.9368C67.0711 70.7782 67.2312 70.625 67.3981 70.4771C67.4539 70.4277 67.5102 70.3792 67.568 70.3313C67.8543 70.0904 68.1598 69.8643 68.4794 69.6493C68.522 69.621 68.5646 69.5926 68.6077 69.5642C68.78 69.4516 68.9558 69.3419 69.1344 69.2357C69.179 69.2093 69.224 69.1828 69.2691 69.1564C69.4267 69.0644 69.5868 68.9748 69.7478 68.8872C69.7938 68.8622 69.8403 68.8372 69.8863 68.8123C69.9789 68.7628 70.0724 68.7144 70.1654 68.6659L70.1982 68.6492C70.2339 68.6306 70.2701 68.6125 70.3063 68.5939C70.4003 68.5464 70.4943 68.4995 70.5888 68.4529C70.7068 68.3947 70.8252 68.3374 70.9432 68.2811C70.9672 68.2699 70.9907 68.2586 71.0142 68.2474L71.0548 68.2283C71.1601 68.1783 71.2648 68.1294 71.3696 68.0809C71.3931 68.0701 71.4171 68.0589 71.4406 68.0481C71.8195 67.8734 72.1969 67.7054 72.5665 67.541C74.1241 66.8493 75.5266 65.9647 76.5796 64.9191L76.6168 64.8819C76.8155 64.6822 77.0016 64.4761 77.1739 64.2651L77.2062 64.2254C77.2488 64.1726 77.2904 64.1192 77.331 64.0654C77.3516 64.0384 77.3716 64.0115 77.3912 63.9846C77.4377 63.9214 77.4832 63.8573 77.5273 63.7932C77.6247 63.6517 77.7153 63.5083 77.7995 63.3619C77.8156 63.3335 77.8318 63.3051 77.8479 63.2767C77.9507 63.0917 78.0428 62.9032 78.1235 62.7113C78.1358 62.682 78.148 62.6521 78.1603 62.6222C78.2611 62.3701 78.3424 62.1122 78.4026 61.8488L78.4129 61.8023C78.4197 61.7715 78.4261 61.7401 78.4324 61.7088C78.4417 61.6618 78.4505 61.6153 78.4584 61.5678C78.4691 61.5047 78.4784 61.442 78.4863 61.3784L78.4922 61.3309C78.5015 61.2516 78.5088 61.1713 78.5147 61.091C78.5181 61.0425 78.5205 60.9941 78.5225 60.9456C78.524 60.9133 78.5245 60.8805 78.5254 60.8482V60.7993C78.5264 60.7508 78.5259 60.7018 78.5254 60.6529L78.5235 60.6495Z" fill="#AB4017"/>
<path d="M66.5826 46.3617C62.7417 43.033 57.3653 41.2408 55.8287 36.3765C52.5004 25.6226 50.4518 14.3572 41.7466 6.67611C38.6136 3.91177 34.8169 2.21019 30.8346 0.804765C25.3681 -0.433729 19.7376 -0.322607 14.5531 1.72164H14.5551C13.1384 2.2797 11.7555 2.9807 10.4181 3.83932C8.28622 5.20803 6.43827 6.99185 5.01425 9.08897C3.75323 10.9457 2.77761 12.9797 2.05704 15.1057C2.04773 15.1336 2.03794 15.161 2.02864 15.1889C2.02032 15.2139 2.012 15.2384 2.00368 15.2633C1.30121 17.3741 0.850361 19.5736 0.628607 21.7799L0.623712 21.8259C0.619795 21.865 0.615879 21.9042 0.612453 21.9434C0.609026 21.9806 0.605599 22.0178 0.602173 22.0545C0.598256 22.0956 0.59483 22.1372 0.590913 22.1783C0.586997 22.2214 0.583081 22.265 0.579654 22.3085C0.577207 22.336 0.575249 22.3634 0.572801 22.3903C0.568395 22.4471 0.5635 22.5034 0.559584 22.5602L0.556647 22.6023C0.552241 22.6634 0.547346 22.7246 0.54343 22.7863L0.540003 22.8367C0.535597 22.9048 0.530702 22.9728 0.526786 23.0414V23.0423C0.521891 23.1197 0.517485 23.1965 0.513569 23.2739L0.510142 23.338C0.507205 23.3963 0.504268 23.4545 0.501331 23.5128L0.498394 23.5764C0.495456 23.6425 0.492519 23.7086 0.490072 23.7747L0.488603 23.8075C0.485666 23.8892 0.482729 23.9705 0.480281 24.0517V24.0527C0.477834 24.1325 0.475876 24.2128 0.473917 24.2926V24.3171C0.423497 26.5772 0.609515 28.8035 1.00505 30.9765C4.17912 37.6277 8.42671 43.8402 13.3254 49.691C20.2384 58.1402 30.9923 59.9328 41.4896 59.6763C44.0498 59.6763 46.0985 62.2365 48.4026 62.2365C54.0356 62.7485 60.4366 64.7967 65.8135 61.7245C71.4464 58.3962 71.1904 50.7151 66.5816 46.3622L66.5826 46.3617ZM2.10207 14.9725C2.11529 14.9349 2.12802 14.8972 2.14123 14.8595C2.12802 14.8972 2.1148 14.9349 2.10207 14.9725ZM2.36641 14.2402C2.38404 14.1942 2.40117 14.1477 2.41879 14.1017C2.40117 14.1477 2.38355 14.1937 2.36641 14.2402ZM2.49124 13.9157C2.50495 13.8804 2.51915 13.8452 2.53334 13.8094C2.51915 13.8447 2.50544 13.8799 2.49124 13.9157Z" fill="#B64817"/>
<path d="M72.3857 71.6191C72.4229 71.787 72.4533 71.9594 72.4768 72.1371C72.958 75.0003 73.9414 79.1044 77.0675 78.4318C77.7411 78.2174 78.2953 77.7088 78.8063 77.1459C78.2375 76.7728 75.0301 74.6116 72.3857 71.6187V71.6191Z" fill="#FAC9A5"/>
<path d="M77.3911 63.9812C77.371 64.0081 77.3509 64.0351 77.3309 64.062C77.2902 64.1158 77.2486 64.1692 77.206 64.2221L77.1737 64.2617C77.0014 64.4732 76.8154 64.6788 76.6166 64.8785L76.5794 64.9157C75.527 65.9613 74.124 66.8459 72.5663 67.5376C72.1967 67.7016 71.8193 67.87 71.4404 68.0447C71.4169 68.0555 71.393 68.0668 71.3695 68.0775C71.2647 68.126 71.1594 68.1754 71.0547 68.2249L78.8273 77.1239C79.7927 76.0563 80.6082 74.8036 81.7899 74.9886C85.9083 75.2554 90.4021 73.1182 91.3758 69.4707C91.9495 69.8907 92.4811 70.3754 92.9119 70.9378C92.4498 70.3333 91.8712 69.8183 91.2485 69.3772C89.6835 68.2684 87.7332 67.6071 85.8373 67.8964C82.8316 68.3551 79.9058 65.9398 77.5272 63.7888C77.4831 63.8529 77.4376 63.9171 77.3911 63.9802V63.9812Z" fill="#FAC9A5"/>
<path d="M91.3743 69.4717C90.4006 73.1191 85.9068 75.2559 81.7884 74.9896C80.6067 74.8046 79.7912 76.0573 78.8258 77.1249L78.8949 77.2037C78.8949 77.2037 78.864 77.1841 78.8062 77.1464C78.2947 77.7094 77.7406 78.218 77.0675 78.4324C73.9419 79.1045 72.9579 75.0009 72.4767 72.1376C72.4532 71.9599 72.4229 71.7876 72.3857 71.6197C71.5716 70.6984 70.8109 69.6983 70.197 68.6473L70.1642 68.664C70.0707 68.712 69.9777 68.7609 69.8852 68.8104C69.8387 68.8353 69.7927 68.8598 69.7466 68.8852C69.5851 68.9729 69.4255 69.0625 69.2679 69.1545C69.2229 69.1809 69.1778 69.2074 69.1333 69.2338C68.9546 69.3405 68.7784 69.4497 68.6065 69.5623C68.5635 69.5902 68.5209 69.6186 68.4783 69.6474C68.1591 69.8618 67.8537 70.0885 67.5668 70.3293C67.5095 70.3773 67.4527 70.4263 67.3969 70.4752C67.2295 70.6231 67.0699 70.7763 66.9182 70.9349C66.8844 70.9701 66.8511 71.0059 66.8183 71.0416C66.7855 71.0773 66.7527 71.1136 66.7209 71.1498C66.6886 71.186 66.6573 71.2227 66.6264 71.2599C66.5643 71.3338 66.5035 71.4092 66.4453 71.4856C66.4159 71.5238 66.387 71.5625 66.3587 71.6011C66.2314 71.7759 66.1139 71.957 66.0072 72.145C65.9714 72.2076 65.9372 72.2713 65.9044 72.3354C65.8823 72.378 65.8608 72.4211 65.8398 72.4646C65.8084 72.5298 65.7786 72.5958 65.7497 72.6624C65.7262 72.7172 65.7032 72.773 65.6816 72.8288C65.9014 73.101 66.1266 73.3688 66.3557 73.6331C68.1557 75.7121 70.2053 77.5865 71.7757 79.8574C72.5506 80.9779 73.2242 82.2081 73.6428 83.5088C74.0231 84.69 73.8474 86.3593 75.1138 87.0426C75.3297 87.1591 75.5651 87.2345 75.8094 87.258C76.8814 87.3618 78.0348 86.6882 78.5566 85.8413C81.6293 80.8526 85.6689 79.5569 88.4601 78.7736C88.5992 78.7315 88.7397 78.6924 88.8821 78.6561C88.912 78.6478 88.9418 78.6395 88.9717 78.6307L89.0025 78.6214C89.0441 78.6091 89.0857 78.5964 89.1274 78.5832L89.1606 78.5724C89.1841 78.5651 89.2076 78.5572 89.2311 78.5494L89.2659 78.5377C89.2889 78.5298 89.3119 78.522 89.3349 78.5142L89.3716 78.5014C89.4284 78.4814 89.4852 78.4608 89.542 78.4393L89.5816 78.4241L89.6453 78.3996L89.6864 78.3835L89.7481 78.3585L89.7843 78.3438C89.8656 78.31 89.9463 78.2753 90.0266 78.2386C90.0609 78.2234 90.0951 78.2072 90.1289 78.1916L90.1798 78.1676C90.2136 78.1514 90.2479 78.1348 90.2816 78.1181C90.3071 78.1054 90.3326 78.0927 90.358 78.08L90.4075 78.0545L90.4505 78.032C90.4892 78.0119 90.5279 77.9914 90.5665 77.9703C90.6116 77.9458 90.6566 77.9209 90.7017 77.8959C90.7785 77.8528 90.8544 77.8078 90.9298 77.7623C90.9626 77.7427 90.9949 77.7226 91.0272 77.7025C91.0497 77.6883 91.0722 77.6741 91.0943 77.6599L91.1525 77.6223C91.1907 77.5973 91.2289 77.5723 91.2666 77.5469C91.3141 77.5151 91.361 77.4827 91.408 77.4499C91.4301 77.4343 91.4521 77.4186 91.4741 77.4029L91.528 77.3643L91.5936 77.3163C91.716 77.2253 91.8359 77.1313 91.9524 77.0339C91.9818 77.0094 92.0106 76.9849 92.0395 76.9604C92.0973 76.911 92.1541 76.8606 92.2104 76.8096C92.2383 76.7842 92.2662 76.7587 92.2941 76.7328C92.4321 76.6036 92.5653 76.4699 92.6921 76.3319C92.7175 76.3045 92.7425 76.2766 92.7674 76.2487L92.8047 76.2066C92.8291 76.1782 92.8536 76.1503 92.8776 76.1219C92.9623 76.0225 93.0435 75.9207 93.1214 75.8174C93.1434 75.788 93.1654 75.7582 93.1875 75.7283L93.2198 75.6833C93.2413 75.6534 93.2624 75.623 93.2834 75.5927C93.6065 75.1232 93.8596 74.6181 94.0201 74.0879C93.9829 73.1798 93.7509 72.2899 93.2898 71.5003L93.2873 71.4959L93.2482 71.4303L93.2374 71.4127C93.2232 71.3896 93.209 71.3666 93.1948 71.3441L93.1938 71.3427C93.1786 71.3192 93.1635 71.2957 93.1483 71.2727L93.1263 71.2399L93.1018 71.2027L93.0763 71.1654L93.0543 71.1336L93.0244 71.0915L93.0068 71.0666L92.9701 71.0161L92.9593 71.0019L92.9148 70.9427L92.9119 70.9388C92.4811 70.3758 91.9495 69.8917 91.3757 69.4717H91.3743Z" fill="#F5C199"/>
<path d="M78.806 77.1464C78.8638 77.1841 78.8946 77.2037 78.8946 77.2037L78.8256 77.1249L71.053 68.2258L71.0123 68.2449C70.9888 68.2562 70.9648 68.2674 70.9413 68.2787C70.8229 68.335 70.7044 68.3928 70.5869 68.4505C70.4925 68.497 70.3985 68.544 70.3045 68.5915C70.2683 68.6096 70.2325 68.6282 70.1963 68.6463C70.8102 69.6973 71.5709 70.6974 72.385 71.6187C75.0294 74.6117 78.2367 76.7729 78.8055 77.1459L78.806 77.1464Z" fill="#F2AE7B"/>
<path d="M1.94755 15.4347C1.83986 15.7666 1.73804 16.1009 1.64258 16.4367C1.73852 16.1009 1.83986 15.7666 1.94755 15.4347Z" fill="#B64817"/>
<path d="M1.00603 30.9755C4.18009 37.6267 8.42769 43.8392 13.3263 49.69C20.2394 58.1392 30.9932 59.9318 41.4906 59.6753C44.0508 59.6753 46.0994 62.2355 48.4036 62.2355C54.0366 62.7476 60.4376 64.7957 65.8145 61.7235C71.4474 58.3952 71.1914 50.7136 66.5825 46.3613C62.7417 43.0325 57.3653 41.2404 55.8287 36.376C52.5004 25.6221 50.4518 14.3567 41.7466 6.67562C38.6136 3.91128 34.8169 2.2097 30.8346 0.804277C25.3681 -0.434217 19.7376 -0.323095 14.5531 1.72115C23.7551 2.96063 33.5133 6.29819 38.4178 14.1012C41.7466 19.7341 39.6979 26.6472 42.2586 32.7922L42.288 32.8578C42.2772 32.5988 42.266 32.3398 42.2542 32.0809L41.8249 22.3546C41.6692 19.108 41.517 15.86 41.4299 12.5861C42.2273 15.7656 42.7555 18.9964 43.1662 22.2385C43.5838 25.4811 43.8427 28.7423 43.9842 32.0099L44.063 34.4619L44.0723 36.1155C47.3913 41.2159 52.3462 44.973 56.5958 49.435C57.8759 50.7151 58.6439 54.0438 56.5958 55.3239C53.523 57.3721 49.6827 57.6281 46.8665 56.348C40.28 53.6228 36.3129 47.0696 30.8542 42.5861C30.6001 46.4763 30.1292 50.3636 29.2163 54.1491C29.4615 50.0645 29.5496 46.0152 29.5398 41.96C29.5384 41.8293 29.5364 41.6986 29.5345 41.5683C29.2564 41.3681 28.9744 41.1738 28.6876 40.9858C24.9564 41.4068 21.4661 40.7391 18.3293 39.2813C18.293 39.8511 18.2583 40.4209 18.2118 40.9897C18.1486 41.8053 18.0458 42.6198 17.9607 43.4329C17.7835 45.0596 17.5039 46.678 17.1926 48.2831C17.1177 45.0395 17.1089 41.8317 17.0281 38.6204C8.49182 33.9127 2.87698 23.2881 2.69831 13.4046C1.59003 16.0656 0.916933 18.9161 0.629583 21.7789L0.624688 21.8249C0.620772 21.8641 0.616856 21.9032 0.613429 21.9424C0.610002 21.9796 0.606576 22.0168 0.603149 22.0535C0.599233 22.0946 0.595806 22.1362 0.59189 22.1773C0.587974 22.2204 0.584058 22.264 0.580631 22.3076C0.578183 22.335 0.576225 22.3624 0.573778 22.3893C0.569372 22.4461 0.564477 22.5024 0.560561 22.5592L0.557623 22.6013C0.553218 22.6625 0.548322 22.7237 0.544406 22.7853L0.54098 22.8358C0.536574 22.9038 0.531679 22.9718 0.527763 23.0404V23.0414C0.522867 23.1187 0.518462 23.1956 0.514545 23.2729L0.511119 23.337C0.508182 23.3953 0.505244 23.4535 0.502307 23.5118L0.49937 23.5754C0.496433 23.6415 0.493496 23.7076 0.491048 23.7737L0.48958 23.8065C0.486643 23.8882 0.483705 23.9695 0.481258 24.0508V24.0517C0.47881 24.1315 0.476852 24.2118 0.474894 24.2916V24.3161C0.424473 26.5762 0.610492 28.8026 1.00603 30.9755Z" fill="#B04319"/>
<path d="M18.4807 36.0861C18.5091 35.2681 18.5253 34.4497 18.5219 33.6317L18.5081 31.1777L18.4288 28.7257C18.2874 25.4581 18.0284 22.1964 17.6109 18.9543C17.2001 15.7127 16.6719 12.4813 15.874 9.30188C15.9612 12.5753 16.1134 15.8238 16.2691 19.0703L16.6984 28.7966C16.8452 32.0363 16.9241 35.2745 17.0273 38.5181C17.0283 38.5519 17.0288 38.5861 17.0298 38.6199C17.1106 41.8312 17.1194 45.039 17.1943 48.2826C17.5056 46.6775 17.7851 45.0591 17.9623 43.4324C18.0475 42.6188 18.1498 41.8047 18.2135 40.9892C18.26 40.4204 18.2947 39.8506 18.3309 39.2808C18.3466 39.0336 18.3623 38.7863 18.3794 38.5391C18.4396 37.7221 18.4548 36.9041 18.4812 36.0861H18.4807Z" fill="#641310"/>
<path d="M31.0389 35.8492C31.0551 33.8005 30.9538 31.7563 30.8725 29.7116C30.6517 25.6255 30.2616 21.5522 29.6976 17.5038C29.4269 15.4787 29.0955 13.4613 28.7303 11.4514C28.351 9.44334 27.9496 7.43874 27.4326 5.45862L28.3588 17.6458C28.6466 21.701 28.931 25.7503 29.1435 29.8016C29.3339 33.7227 29.4803 37.6423 29.5356 41.5668C29.5376 41.6975 29.539 41.8277 29.541 41.9584C29.5503 46.0137 29.4627 50.063 29.2174 54.1476C30.1304 50.3621 30.6013 46.4748 30.8554 42.5845C30.8681 42.3863 30.8808 42.1885 30.8926 41.9903C30.9915 39.945 31.0629 37.8954 31.0394 35.8487L31.0389 35.8492Z" fill="#641310"/>
<path d="M42.7504 51.5664C43.0618 49.9613 43.3413 48.3429 43.5185 46.7162C43.6037 45.9026 43.706 45.0886 43.7696 44.273C43.8362 43.4575 43.8793 42.6405 43.9355 41.8234C43.9958 41.0059 44.0109 40.1884 44.0374 39.3704C44.0658 38.5524 44.0819 37.734 44.0785 36.9165L44.0741 36.1156L44.0648 34.462L43.986 32.01C43.8445 28.7424 43.5855 25.4807 43.168 22.2386C42.7573 18.997 42.2291 15.7656 41.4316 12.5862C41.5188 15.8601 41.671 19.1081 41.8267 22.3546L42.256 32.0809C42.2677 32.3399 42.279 32.5989 42.2898 32.8578C42.4156 35.8385 42.49 38.8183 42.585 41.8024C42.6682 45.0474 42.676 48.2891 42.7524 51.5669L42.7504 51.5664Z" fill="#641310"/>
</g>
<defs>
<clipPath id="clip0_199_148844">
<rect width="93.5586" height="92" fill="white" transform="translate(0.466797)"/>
</clipPath>
</defs>
</svg>
