<svg width="180" height="92" viewBox="0 0 180 92" fill="none" xmlns="http://www.w3.org/2000/svg">
<g clip-path="url(#clip0_199_148866)">
<path d="M179.556 45.2145C179.556 45.2145 179.556 45.2166 179.556 45.2173C179.556 45.2066 179.556 45.1944 179.554 45.1829C179.544 44.4218 179.506 43.6556 179.444 42.888L179.434 42.7695C179.371 42.0357 179.287 41.3062 179.18 40.5853C179.164 40.4833 179.149 40.382 179.134 40.2801C179.088 39.9857 179.037 39.6927 178.984 39.4026C178.951 39.2195 178.917 39.0372 178.881 38.8569C178.847 38.6896 178.811 38.5238 178.775 38.3586C178.735 38.1748 178.694 37.9924 178.65 37.8122C178.619 37.6779 178.588 37.5429 178.555 37.4108C178.482 37.1207 178.403 36.8363 178.324 36.5563C178.292 36.4464 178.26 36.3395 178.227 36.231C178.151 35.9804 178.073 35.7334 177.993 35.4929C177.975 35.4376 177.956 35.3802 177.938 35.3242C177.838 35.0333 177.732 34.7526 177.624 34.4776C177.595 34.4051 177.565 34.3332 177.536 34.2607C177.423 33.9821 177.305 33.7085 177.183 33.4486C173.7 26.0657 171.013 19.553 164.886 13.8784C157.858 7.37001 154.475 4.78003 144.721 2.24246C142.6 1.69029 140.524 1.07421 138.474 0.787709C138 0.721649 137.039 1.05554 136.478 1.05554C136.376 1.0419 136.276 1.0261 136.174 1.01389C136.185 1.02107 136.196 1.02825 136.207 1.03543C134.807 0.852333 133.913 0.472488 131.609 0.216147C128.261 -0.1558 125.257 0.0660755 121.911 0.0617672C120.337 0.0603312 118.448 0.188861 116.853 0.226199C116.448 0.235534 116.269 0.412172 115.861 0.425097C111.45 0.564397 106.702 0.143624 102.429 0.965065C98.6697 1.68885 93.0079 3.41934 88.304 6.28289C88.1992 6.89036 87.1982 6.76542 86.6058 7.13593C86.0113 7.50644 86.0996 8.39466 85.4921 8.73286C84.5601 9.24985 84.3698 10.2264 83.9921 11.1433C83.3732 12.6419 81.6513 12.9707 81.3189 14.8118C81.1695 15.6325 81.2535 16.5552 80.9491 17.3479C80.4472 18.6562 80.5312 19.3922 81.1566 20.5332C81.5565 21.2613 81.2614 22.2586 81.5774 23.06C81.9407 23.9819 82.6681 25.036 82.9036 26.0097C83.417 28.1229 83.7595 30.3424 84.0474 32.4965C84.5336 36.137 85.9653 38.816 85.373 42.4866C85.9359 43.0575 85.1626 44.5331 84.9328 45.3954C84.5845 46.7015 84.9371 47.5718 85.1568 49.1328C85.3701 50.6414 85.5912 52.1659 85.7241 53.6816C85.8964 55.6491 85.9065 57.6539 86.1664 59.5883C86.5125 62.179 88.5417 63.0686 90.1336 64.7898C91.3384 66.0923 92.6582 65.9803 94.0843 66.7924C95.3178 67.4932 96.6656 67.5047 97.8676 68.2349C98.0112 68.0482 98.2532 67.9527 98.5088 68.1222C99.6146 68.8539 100.844 68.7383 102.085 69.0391C102.424 69.121 102.621 69.2395 102.78 69.3666C103.729 69.5727 104.65 69.778 105.541 69.9798C105.989 69.9073 106.451 69.8355 106.758 69.9195C107.543 70.1356 108.348 70.4953 109.145 70.8055C113.486 71.8072 117.309 72.6566 121.371 73.0875C122.742 72.7845 124.116 72.6243 125.391 73.3654C128.027 73.4472 130.847 73.3431 134.033 72.9877C135.81 72.7888 137.107 72.5597 138.881 72.1727C138.872 72.1827 138.863 72.1935 138.854 72.2028C139.112 72.1511 139.37 72.1002 139.628 72.0449C139.642 72.0298 139.656 72.014 139.671 71.9989C143.595 71.1279 148.763 70.4874 152.986 69.1971C156.583 68.0978 160.505 67.3194 163.343 65.7146C164.358 65.1409 164.271 64.886 165.108 64.6569C165.76 64.4781 165.916 64.4207 166.554 64.2591C173.6 62.4813 176.923 59.2393 178.904 51.5656C179.387 49.6936 179.588 47.49 179.557 45.2145H179.556ZM130.141 64.0207C130.141 64.0207 130.141 64.0186 130.141 64.0172C130.714 62.5545 130.676 61.0351 130.698 59.3872C130.676 61.0366 130.713 62.5567 130.14 64.0207H130.141ZM75.2844 53.0038C72.6284 50.9581 67.1311 48.4213 64.0665 47.9193C63.9817 47.5689 49.5146 43.7554 47.2032 43.1106C43.8148 42.1685 39.2157 40.9558 35.5874 41.5467C30.1167 42.4371 26.8812 44.7355 24.5691 48.012C24.1583 48.5943 23.7842 49.2061 23.4381 49.8336C19.5219 49.3921 15.8534 49.1221 12.2051 50.9919C8.96311 52.6548 7.19672 54.3157 5.32909 57.6036C4.28793 59.4389 2.1776 64.0552 1.3619 65.8015C0.632371 67.3654 0.778852 70.6734 0.304225 72.4132C-0.137371 74.0367 0.0773238 78.7406 0.297763 80.3964C0.559849 82.3624 4.44662 84.3299 6.66752 85.4141C8.9509 86.079 11.0785 86.6614 11.7462 87.1547C12.4348 87.6623 13.0761 88.1929 13.7051 88.7056C14.2651 88.9993 14.8209 89.2995 15.3587 89.6405C16.9801 90.6659 18.7543 91.404 20.6055 91.8672C20.8568 91.865 21.116 91.8521 21.3824 91.8262C23.4008 91.6345 25.3639 91.2848 27.3924 91.5333C27.9905 91.6065 28.5118 91.804 29.0202 91.9993C29.0575 91.9921 29.0949 91.9892 29.1301 91.9806C31.4486 91.4672 32.9608 90.8138 35.4833 90.9696C35.6628 90.9804 35.8431 91.0012 36.024 91.0235C36.0283 91.0235 36.0333 91.0242 36.0384 91.0249C36.2186 91.0493 36.3995 91.0788 36.5812 91.1104C36.5812 91.1104 36.5812 91.1089 36.5812 91.1082C38.2205 91.4012 39.8993 91.9928 41.5429 91.7142C43.1836 91.4364 44.8136 90.9861 46.4371 90.5194C46.9691 90.2688 47.4969 90.0591 48.016 89.9306C48.6271 89.7798 49.2432 89.6664 49.86 89.5651C52.2044 88.9656 54.5524 88.5627 56.9291 88.8083C57.7692 88.7114 58.6072 88.5958 59.4387 88.4313C62.318 87.8627 65.1852 87.4526 67.5095 85.7502C68.2304 84.1367 69.8496 81.984 69.5315 81.1303C71.7172 81.7406 73.6337 82.4881 75.7404 83.6355C76.0405 83.6657 76.3421 83.698 76.6415 83.7023C78.362 83.7274 81.3433 84.5805 83.9656 84.9445C85.164 84.5654 86.3021 84.0922 87.3978 83.3289C87.5759 83.2047 87.9005 83.2392 88.0398 83.4115C88.1367 83.5329 88.2351 83.6549 88.3313 83.777C89.9361 81.3881 91.5625 78.8871 92.1556 76.0451C91.9553 73.5729 90.5701 71.0253 89.6152 69.2388C86.6525 63.6919 80.3194 56.8827 75.2852 53.0038H75.2844ZM60.9882 47.3198C60.9659 47.3104 60.948 47.3025 60.9344 47.2968C60.9523 47.304 60.9731 47.3112 60.9896 47.3176C60.9896 47.3176 60.9882 47.3191 60.9882 47.3198ZM61.0973 47.3686C61.0973 47.3686 61.1002 47.3636 61.1017 47.3614C61.2244 47.4124 61.2984 47.4533 61.3041 47.477C61.3013 47.4641 61.1972 47.4146 61.0966 47.3686H61.0973Z" fill="#462522"/>
<path d="M179.556 45.2145C179.556 45.2145 179.556 45.2166 179.556 45.2173C179.556 45.2066 179.556 45.1944 179.555 45.1829C179.544 44.4217 179.507 43.6556 179.444 42.888L179.434 42.7695C179.372 42.0357 179.288 41.3062 179.18 40.5852C179.165 40.4833 179.15 40.382 179.134 40.2801C179.088 39.9857 179.038 39.6927 178.984 39.4026C178.951 39.2195 178.918 39.0371 178.881 38.8569C178.847 38.6896 178.811 38.5237 178.776 38.3586C178.735 38.1748 178.694 37.9924 178.651 37.8122C178.619 37.6779 178.588 37.5429 178.555 37.4108C178.482 37.1207 178.404 36.8363 178.324 36.5563C178.292 36.4464 178.26 36.3395 178.227 36.231C178.152 35.9804 178.073 35.7334 177.993 35.4929C177.975 35.4376 177.956 35.3801 177.938 35.3241C177.839 35.0333 177.732 34.7526 177.624 34.4776C177.595 34.405 177.566 34.3332 177.536 34.2607C177.423 33.9821 177.306 33.7085 177.184 33.4486C173.7 26.0657 171.014 19.553 164.886 13.8783C157.858 7.37 154.475 4.78001 144.722 2.24245C142.601 1.69027 140.525 1.07419 138.474 0.787695C138.001 0.721635 137.039 1.05552 136.478 1.05552C136.48 1.05552 136.483 1.05552 136.485 1.05552C136.888 1.29463 137.324 1.556 137.811 1.85471C140.173 3.32813 143.546 5.46431 147.303 8.43845C149.181 9.92192 151.161 11.6036 153.146 13.5064C155.129 15.4071 157.132 17.521 158.972 19.9013C160.817 22.2759 162.534 24.8938 163.926 27.7466C165.356 30.6052 166.311 33.6927 166.996 36.832C167.662 39.9713 168.088 43.1566 168.262 46.3131C168.334 47.892 168.357 49.4646 168.256 51.0213C168.164 52.5694 167.887 54.1598 167.514 55.5715C166.959 58.4451 166.545 61.346 165.898 64.015C165.861 64.1672 165.82 64.3115 165.783 64.4623C165.506 64.5363 165.228 64.6067 164.944 64.6835C165.011 64.4027 165.08 64.1292 165.141 63.8448C165.727 61.1809 166.048 58.3539 166.622 55.3712C166.996 53.892 167.224 52.4847 167.308 50.9646C167.392 49.4552 167.359 47.9172 167.274 46.3691C167.084 43.2722 166.622 40.1386 165.966 37.0532C165.326 33.9742 164.407 30.9319 163.047 28.1717C161.71 25.3814 160.048 22.8051 158.252 20.4571C154.65 15.7589 150.601 11.9159 146.935 8.89225C143.269 5.85923 140.016 3.56652 137.701 2.02345C137.147 1.6515 136.647 1.32264 136.208 1.0347C134.808 0.8516 133.914 0.471756 131.61 0.215414C128.262 -0.156532 125.258 0.0653431 121.912 0.0610348C120.338 0.0595987 118.449 0.188128 116.854 0.225467C116.449 0.234083 116.27 0.41144 115.862 0.424365C111.451 0.563665 106.703 0.142892 102.43 0.964333C98.6706 1.68812 93.0089 3.4186 88.305 6.28216C88.2001 6.88963 87.1992 6.76469 86.6068 7.1352C86.0123 7.50571 86.1006 8.39393 85.4931 8.73141C84.5611 9.24912 84.3708 10.2257 83.9931 11.1419C83.3742 12.6404 81.6523 12.9693 81.3199 14.8104C81.1705 15.6311 81.2545 16.5538 80.9501 17.3465C80.4481 18.6548 80.5322 19.3908 81.1576 20.5317C81.5575 21.2598 81.2624 22.2572 81.5783 23.0585C81.9417 23.9805 82.6691 25.0346 82.9046 26.0082C83.418 28.1214 83.7605 30.3409 84.0484 32.495C84.5345 36.1355 85.9663 38.8145 85.3739 42.4852C85.9369 43.056 85.1635 44.5316 84.9338 45.394C84.5855 46.7001 84.9381 47.5704 85.1578 49.1314C85.3703 50.64 85.5922 52.1644 85.725 53.6802C85.8974 55.6476 85.9074 57.6524 86.1674 59.5868C86.5135 62.1775 88.5419 63.0672 90.1346 64.7883C91.3394 66.0909 92.6592 65.9788 94.0852 66.7909C95.3188 67.4918 96.6666 67.5032 97.8693 68.2335C98.0129 68.0468 98.2549 67.9513 98.5105 68.1208C99.6163 68.8524 100.846 68.7368 102.087 69.0377C102.426 69.1196 102.623 69.238 102.781 69.3651C103.73 69.5712 104.651 69.7766 105.542 69.9783C105.99 69.9058 106.452 69.834 106.759 69.918C107.544 70.1342 108.349 70.4939 109.146 70.8041C113.487 71.8058 117.31 72.6552 121.372 73.086C122.743 72.783 124.117 72.6229 125.392 73.3639C128.028 73.4458 130.848 73.3417 134.034 72.9862C135.811 72.7873 137.107 72.5583 138.882 72.1712C139.352 71.6528 139.827 71.1121 140.286 70.5183C140.605 70.0939 140.932 69.648 141.185 69.1777C141.437 68.6701 141.735 68.1581 141.966 67.6217C142.918 65.5006 143.598 63.0126 144.226 60.3752C144.53 59.0555 144.893 57.6783 145.238 56.3089C145.593 54.921 145.821 53.5323 146 52.0553C146.354 49.1314 146.477 46.0732 146.484 42.967C146.457 39.8658 146.425 36.6906 146.127 33.5664C145.789 30.4867 144.871 27.4529 143.611 24.6468C142.356 21.8285 140.734 19.24 138.991 16.8704C135.46 12.1457 131.25 8.45999 127.305 5.86641C123.363 3.24412 119.696 1.67663 117.068 0.817134C116.629 0.667781 116.23 0.540688 115.851 0.425801C116.006 0.421493 116.16 0.415748 116.315 0.41144C116.573 0.481808 116.839 0.555767 117.123 0.644804C119.785 1.42675 123.533 2.87505 127.598 5.41261C131.64 7.96023 135.98 11.6079 139.672 16.3527C141.505 18.7287 143.151 21.3848 144.467 24.2605C145.776 27.1384 146.747 30.2397 147.121 33.468C147.433 36.6583 147.546 39.8327 147.522 42.972C147.487 46.1084 147.339 49.2003 146.951 52.1766C146.763 53.65 146.501 55.1493 146.134 56.5315C145.766 57.9152 145.406 59.2702 145.057 60.5885C144.34 63.2273 143.588 65.7139 142.52 67.9082C142.262 68.4547 141.959 68.9444 141.688 69.4484C141.386 69.9712 141.044 70.4156 140.701 70.8493C140.36 71.2557 140.016 71.6349 139.672 71.9982C143.596 71.1272 148.765 70.4867 152.988 69.1964C156.585 68.0971 160.506 67.3187 163.345 65.7139C164.359 65.1409 164.273 64.886 165.109 64.6569C165.762 64.4781 165.917 64.4207 166.556 64.2591C173.601 62.4812 176.924 59.2393 178.906 51.5656C179.388 49.6943 179.589 47.4907 179.557 45.2152L179.556 45.2145ZM116.579 13.836C116.6 14.0959 116.769 14.2539 116.965 14.3142C117.975 14.8398 118.303 15.6907 119.026 16.4138C119.884 17.2732 120.106 17.6524 120.106 18.8608C120.106 19.8826 121.155 20.3644 121.481 21.2476C121.951 22.5114 122.783 24.0336 123.147 25.2766C123.536 26.6028 124.647 27.3093 125.017 28.7088C125.423 30.2425 126.47 31.5286 126.206 33.1779C126.131 33.6504 126.304 34.2176 126.549 34.7849L126.554 34.7885C126.63 34.9673 126.712 35.1446 126.799 35.3205L126.796 35.3191C127.048 35.8375 127.312 36.3308 127.441 36.72C127.978 38.332 129.506 40.675 128.729 42.3078C128.526 42.7351 128.905 43.1149 129.255 43.0991C129.527 44.1101 130.248 45.3818 129.888 45.6431C129.679 45.7939 129.53 46.0962 129.685 46.3425C129.687 46.3425 129.689 46.3425 129.69 46.3439C129.694 46.3511 129.694 46.359 129.698 46.3662C131 48.1721 130.659 49.8516 130.597 51.9181C130.563 53.062 131.034 54.1598 131.046 55.3137C131.055 56.2551 130.777 57.3128 130.731 58.262C130.723 58.4099 130.719 58.5564 130.715 58.7029L130.72 58.7094C130.718 58.7316 130.718 58.7517 130.718 58.7726C130.716 58.7704 130.714 58.7682 130.713 58.7654C130.638 61.3668 130.917 63.6373 129.044 65.8474C128.761 66.1828 126.133 69.9812 125.8 69.9209C125.627 69.89 125.411 69.9058 125.286 70.0573C125.189 70.1751 124.627 70.4989 123.927 70.8666C123.913 70.8737 123.902 70.8809 123.888 70.8881C122.877 71.4173 121.593 72.0269 120.99 72.2416C120.854 72.2524 120.722 72.2667 120.583 72.2746C120.053 71.8668 119.744 71.9415 119.085 72.0485C118.426 72.1533 117.281 71.4022 116.526 71.3577C115.469 71.2967 114.577 71.5659 113.562 71.469C113.261 71.4044 112.959 71.3426 112.655 71.2737C111.571 70.9003 110.891 70.132 109.706 70.002C108.584 69.8785 104.949 68.6291 103.333 68.9113C103.017 68.8359 102.682 68.7641 102.36 68.6902C102.405 68.5329 102.384 68.3584 102.234 68.2069L101.929 67.9003C101.755 67.7208 101.505 67.7136 101.289 67.8177C100.107 68.385 98.2901 67.4472 97.19 66.8024C96.0778 66.1512 94.4737 66.284 93.2458 65.5818C92.6053 65.2156 92.0165 64.9815 91.3883 64.8214C90.7801 64.4293 90.2128 64.0049 89.6994 63.5425C89.5429 63.2503 89.4474 62.9121 89.4445 62.5006C89.5407 62.2867 89.5493 62.0332 89.3627 61.8601C87.8986 60.5002 87.2179 59.9501 86.6097 58.0911C86.5135 57.6352 86.856 55.7245 86.7856 55.2714C86.7583 54.2618 86.4036 53.5581 86.2377 52.5708C85.5664 48.5469 86.1781 44.2789 86.2564 40.1961C86.2621 39.9354 86.107 39.7853 85.9175 39.7257C85.9563 39.6582 85.9843 39.5828 85.9922 39.4902C86.0072 39.2985 85.9943 39.1183 86.0001 38.9309C86.0058 38.9309 86.0123 38.9294 86.0187 38.928C86.0187 38.9201 86.0187 38.9122 86.0194 38.9043C86.013 38.9021 86.0065 38.9007 86.0008 38.8978C86.0058 38.7391 86.0101 38.579 86.008 38.4218C86.013 38.4246 86.018 38.4275 86.023 38.4304C86.0166 37.7763 85.9613 37.135 85.8536 36.463C85.6504 35.1863 85.5592 33.7832 85.1944 32.5482C84.9905 31.8538 84.7097 30.6497 84.332 30.0544C83.6664 29.0054 84.2559 28.1021 83.9421 26.9884C83.4912 25.3936 82.8105 24.0487 82.6425 22.2988C82.5039 20.8735 81.4706 19.7606 81.3407 18.2871C81.2516 17.279 82.1794 15.3209 82.3754 14.2998C82.3862 14.2474 82.4048 14.195 82.417 14.1419C83.2823 13.4461 83.8854 12.4064 84.5977 11.5282C85.5017 11.4198 85.9462 10.8159 86.2808 9.88889C86.3885 9.59665 86.5084 9.33313 86.7167 9.09761C87.0829 8.6833 87.6824 8.78741 88.165 8.71202C88.6662 8.63375 88.9663 8.17564 89.265 7.76636C89.7123 7.73333 90.0656 7.45257 90.5884 7.15171C90.5991 7.14525 90.607 7.14453 90.6164 7.13879C91.1743 6.99805 91.692 6.89178 92.1343 6.82357C92.6714 6.90111 93.1633 7.1036 93.8899 6.94276C95.7231 6.53491 97.0565 6.47891 98.9076 6.86234C102.262 7.55597 105.363 7.31399 108.557 8.74002C108.705 8.80608 108.852 8.84917 108.998 8.89584C109.304 9.117 109.637 9.29435 109.969 9.40206V9.43006C109.969 9.79986 110.306 9.99732 110.639 9.93987C110.745 9.9212 110.852 9.9212 110.959 9.91546C111.099 10.7965 111.986 11.1483 112.799 11.7594C113.083 11.9748 113.449 12.2247 113.796 12.3209C114.19 12.43 114.878 12.1098 115.14 12.5277C115.441 13.0038 116.537 13.3053 116.579 13.8338V13.836ZM75.2854 53.0045C72.6294 50.9588 67.132 48.422 64.0674 47.9201C63.9827 47.5696 49.5156 43.7561 47.2042 43.1113C43.8157 42.1692 39.2167 40.9565 35.5884 41.5474C30.1176 42.4378 26.8821 44.7362 24.57 48.0127C24.1593 48.595 23.7852 49.2068 23.4391 49.8344C19.5229 49.3928 15.8544 49.1228 12.206 50.9926C8.96409 52.6555 7.1977 54.3164 5.33007 57.6043C4.28891 59.4396 2.17858 64.0559 1.36288 65.8022C0.633348 67.3661 0.779828 70.6741 0.305202 72.4139C-0.136395 74.0374 0.0783004 78.7413 0.29874 80.3972C0.560825 82.3632 4.44759 84.3306 6.6685 85.4148C8.95188 86.0798 11.0794 86.6621 11.7472 87.1554C12.4358 87.663 13.077 88.1937 13.706 88.7063C14.2661 89 14.8219 89.3002 15.3597 89.6412C16.981 90.6666 18.7553 91.4048 20.6064 91.8679C20.8578 91.8657 21.117 91.8528 21.3834 91.827C23.4018 91.6352 25.3649 91.2856 27.3934 91.534C27.9915 91.6072 28.5128 91.8047 29.0212 92C29.0585 91.9928 29.0959 91.99 29.131 91.9813C31.4496 91.4679 32.9618 90.8145 35.4843 90.9703C35.6638 90.9811 35.844 91.0019 36.025 91.0242C36.0293 91.0242 36.0343 91.0249 36.0393 91.0256C36.2196 91.05 36.4005 91.0795 36.5822 91.1111C36.5822 91.1111 36.5822 91.1096 36.5822 91.1089C38.2215 91.4019 39.9003 91.9936 41.5439 91.715C43.1846 91.4371 44.8145 90.9869 46.438 90.5201C46.9701 90.2695 47.4979 90.0599 48.017 89.9313C48.6281 89.7805 49.2441 89.6671 49.8609 89.5658C52.2054 88.9663 54.5534 88.5635 56.9301 88.809C57.7702 88.7121 58.6082 88.5965 59.4396 88.4321C62.319 87.8634 65.1861 87.4534 67.5105 85.7509C68.2314 84.1374 69.8505 81.9847 69.5325 81.131C71.7182 81.7413 73.6346 82.4888 75.7414 83.6362C76.0415 83.6664 76.3431 83.6987 76.6425 83.703C78.363 83.7281 81.3443 84.5812 83.9666 84.9452C85.165 84.5661 86.3031 84.0929 87.3988 83.3296C87.5769 83.2054 87.9014 83.2399 88.0407 83.4122C88.1377 83.5336 88.236 83.6556 88.3323 83.7777C89.9371 81.3888 91.5635 78.8878 92.1566 76.0458C91.9562 73.5736 90.5711 71.026 89.6161 69.2395C86.6535 63.6926 80.3203 56.8834 75.2861 53.0045H75.2854ZM67.2074 81.8584C64.1206 81.2696 60.9274 81.6882 57.791 81.6616C57.6381 81.6602 57.4916 81.6616 57.3401 81.6616C56.6472 81.5676 55.9564 81.5338 55.2678 81.5439C55.2678 81.5482 55.2664 81.5525 55.2657 81.5568C55.0962 81.5597 54.9267 81.5532 54.7573 81.5618C54.7573 81.5618 54.7573 81.5613 54.7573 81.5604C53.8468 81.6042 52.9392 81.7219 52.0337 81.8907C51.0579 81.9998 50.0922 82.1585 49.1163 82.3797V82.3825C48.9526 82.4199 48.7875 82.4644 48.6223 82.5046V82.4981C47.7047 82.7265 46.7762 83.0115 45.8162 83.3734C45.3452 83.5522 44.8885 83.7267 44.434 83.884C43.6405 84.0915 42.8457 84.2767 42.0458 84.4282C41.345 84.4792 40.624 84.4168 39.8493 84.1669C38.0972 83.6039 36.9276 83.5099 35.0807 83.6915C34.9817 83.7009 34.8883 83.7116 34.7914 83.721C34.6226 83.7375 34.4539 83.7547 34.2852 83.772C34.2823 83.772 34.2787 83.772 34.2765 83.772C34.1437 83.7777 34.0202 83.7921 33.891 83.8021C33.71 83.8158 33.5283 83.8287 33.3539 83.8509C33.1191 83.8789 32.8878 83.912 32.6631 83.9536C31.7038 84.075 30.7524 84.2293 29.7644 84.4771C28.9975 84.6681 28.2105 84.9029 27.4171 85.0831C26.2625 85.231 25.1114 85.2619 23.9705 85.1951C23.5741 85.0702 23.167 84.9617 22.7268 84.8612C21.0322 84.4749 19.7376 83.143 18.3927 82.0939C18.3927 82.0939 18.3927 82.096 18.392 82.0968C18.3137 82.0357 18.2347 81.9718 18.1565 81.9129C16.3283 80.5436 13.7182 79.7789 11.6 78.9481C11.0845 78.7457 10.5632 78.5604 10.0376 78.3881V78.3895C9.89251 78.3435 9.74747 78.3012 9.60386 78.2559V78.2516C9.13498 78.1059 8.66251 77.9694 8.18573 77.8459C7.68022 77.7167 7.1977 76.603 6.78913 76.249C5.06655 74.7612 2.72716 74.9522 1.55316 72.6746C1.53665 72.6401 1.5108 72.6222 1.48926 72.5942C1.50577 72.5331 1.52444 72.4728 1.55316 72.4139C1.7061 72.1088 1.55101 71.8223 1.32123 71.6894C1.39591 70.0408 1.75924 67.9994 2.08882 66.7924C2.56488 65.0526 3.47393 63.3314 4.20346 61.7675C5.01987 60.0205 5.93897 58.1134 6.98013 56.2781C8.84776 52.9902 9.70941 52.9176 12.9514 51.2554C16.8252 49.27 19.4741 49.6965 23.2467 50.1804C21.3927 53.7003 20.5196 57.7328 20.5196 60.7414C20.5196 64.3991 20.9568 67.4666 22.0691 69.7033C22.1639 69.8936 22.2644 70.0781 22.3692 70.2569C22.5171 70.5083 22.6715 70.751 22.8403 70.9771C23.7752 71.5351 24.7287 72.0499 25.6938 72.5726C26.3695 72.9396 26.913 73.1219 27.4171 73.1743C27.4681 73.1801 27.5183 73.183 27.5679 73.1851C28.3922 73.2296 29.1354 72.9302 30.2225 72.5195C30.425 72.4441 30.7323 72.5633 30.8199 72.7643C31.0611 73.3093 31.2766 73.6009 31.4934 73.7481C31.7476 73.7502 32.0054 73.7524 32.2639 73.756C32.5066 73.6396 32.7816 73.4522 33.109 73.2519C33.1851 73.2052 33.2612 73.1578 33.3445 73.1104C33.3819 73.0889 33.4264 73.0753 33.4644 73.0559C33.6066 72.9833 33.756 72.9216 33.9154 72.8721C34.3692 72.7292 34.8704 72.6638 35.3134 72.653C35.6372 72.6451 35.9776 72.6294 36.3237 72.6171C36.4371 72.6136 36.5513 72.61 36.6655 72.6071C37.1588 72.5956 37.6585 72.6006 38.1403 72.6538C38.4678 72.6904 38.7873 72.7486 39.0903 72.8397C40.1149 73.1478 41.3895 73.9146 42.5326 74.1164C42.7272 74.1322 42.9218 74.1459 43.1157 74.1617C43.1796 74.1595 43.2478 74.1681 43.311 74.1609C44.5912 74.0102 46.1092 73.2907 47.4311 73.5793C47.7513 73.649 48.0457 73.7409 48.3294 73.845C48.4723 73.8974 48.613 73.9541 48.7516 74.013C49.3195 74.255 49.8588 74.5429 50.4691 74.8223C51.04 75.0836 51.623 75.2746 52.209 75.4376C53.3248 75.7493 54.4485 75.9604 55.5091 76.3582C55.6139 76.3977 55.718 76.4407 55.8214 76.4845C56.4713 76.7567 57.0945 77.1085 57.6733 77.6176C60.1491 78.396 62.5926 79.2016 64.9801 80.0812C65.0993 80.1257 65.2199 80.1667 65.3391 80.2112C66.1447 80.3462 66.9116 80.4761 67.5758 80.6319C68.194 80.7748 68.7792 80.9249 69.3508 81.0822C68.6981 81.4268 67.9757 81.6817 67.2067 81.8584H67.2074ZM79.4091 75.9719C77.7074 75.9194 70.7294 76.1112 70.2297 73.9599V73.9613C70.2297 73.9613 70.2297 73.9585 70.229 73.9556C70.2175 73.9039 70.1974 73.8587 70.173 73.8184C70.1672 73.8091 70.1615 73.7998 70.155 73.7904C70.1019 73.7129 70.0279 73.6562 69.9425 73.621C69.9367 73.6181 69.931 73.6159 69.9252 73.6131C69.8807 73.5966 69.8326 73.5836 69.7838 73.5765C69.7177 73.5671 69.6502 73.5671 69.5842 73.5765C68.7002 73.6949 66.9159 73.575 65.329 73.1801C64.5421 72.8527 63.7515 72.5159 62.9602 72.177C62.6558 71.9429 62.4281 71.6801 62.3283 71.3828C62.3111 71.3304 62.2845 71.2823 62.2529 71.2364C62.2422 71.2213 62.2278 71.2076 62.2156 71.1926C62.1919 71.1631 62.1661 71.1344 62.1366 71.1078C62.1208 71.0927 62.1029 71.0798 62.0849 71.0662C62.0526 71.041 62.0196 71.0159 61.9822 70.9929C61.965 70.9822 61.9463 70.9714 61.9284 70.9613C61.8839 70.9362 61.8379 70.9118 61.7884 70.8903C61.7747 70.8838 61.7618 70.8788 61.7489 70.8723C61.476 70.7553 61.14 70.6741 60.8032 70.6102V70.6081C60.2798 70.5097 59.7556 70.453 59.4691 70.3661C57.5569 69.7866 55.7238 68.9149 53.8913 68.1272C53.1446 67.8055 52.4086 67.5226 51.6733 67.267C51.5627 67.2282 51.4514 67.1902 51.3401 67.1521C51.2884 67.1342 51.2367 67.1155 51.1843 67.099C49.769 66.633 48.3509 66.2955 46.8875 66.0851C46.8753 66.0837 46.8638 66.0815 46.8516 66.0801C46.7813 66.0707 46.7109 66.0614 46.642 66.0506C46.5378 66.0348 46.4337 66.0183 46.3282 66.0061C45.8808 65.953 45.4285 65.9113 44.9689 65.8826C44.4749 65.8525 43.9759 65.8324 43.4653 65.8309C41.513 65.8252 39.86 65.599 38.1252 65.003C37.9881 64.9563 37.851 64.9133 37.7124 64.8608C37.6478 64.8372 37.5817 64.807 37.5171 64.7819C37.5063 64.7775 37.4948 64.7725 37.484 64.7682C37.2873 64.6914 37.0906 64.6146 36.8895 64.5277C35.5669 63.9532 34.036 64.6253 32.6372 64.7539L32.6416 64.4307C32.6451 64.117 32.3069 63.7852 31.9781 63.9123C31.7562 63.9985 31.5286 64.076 31.2981 64.1442C31.222 64.1672 31.1452 64.188 31.0683 64.2089C29.317 64.6749 27.4214 64.5578 26.1268 63.1584C25.8123 62.8195 25.3161 62.441 24.8537 62.3441C23.0133 61.9607 22.9272 60.1519 23.1462 58.6476C23.149 58.6261 23.1505 58.6045 23.1541 58.5837C23.1842 58.3582 23.2022 58.1321 23.2115 57.9044C23.2402 57.1921 23.1878 56.4698 23.1979 55.7625C23.1979 55.7316 23.2014 55.7094 23.2022 55.6799C23.3013 55.196 23.4176 54.7048 23.5468 54.208C23.8944 53.7154 24.4063 53.7218 24.667 52.8286C24.8307 52.2642 24.611 51.6194 24.6289 51.0277C24.7215 50.8116 24.8199 50.5984 24.9204 50.3851C24.9772 50.2645 25.0382 50.1453 25.0985 50.0261C25.8927 48.4378 26.9281 46.9363 28.3053 45.6826C30.188 43.9694 33.3876 42.7257 35.5798 42.3322C39.1994 41.6824 42.9318 42.333 46.321 43.2765C47.8375 43.6987 53.7786 45.2252 57.7092 46.3238C57.758 46.3375 57.8025 46.3504 57.8499 46.3633C59.3319 46.7791 60.5067 47.1295 61.0208 47.3284C61.0502 47.3406 61.0789 47.3514 61.1041 47.3621C61.2269 47.4138 61.3008 47.454 61.3066 47.4785C61.7704 47.5553 62.2515 47.6422 62.7391 47.7362C62.8389 47.7556 62.9401 47.7779 63.0399 47.798C63.3257 47.8554 63.6115 47.9129 63.9016 47.9789C64.1213 48.0278 64.3417 48.0845 64.5614 48.1398C64.7431 48.1843 64.9241 48.2252 65.1072 48.274C65.1143 48.2755 65.1237 48.2784 65.1316 48.2812C65.543 48.3918 65.9537 48.5124 66.3609 48.646C67.4415 49.3719 68.5624 50.0907 69.699 50.7922C69.699 50.7908 69.7005 50.7886 69.7012 50.7872C69.7464 50.8159 69.7931 50.8446 69.8398 50.8734C69.8398 50.8748 69.8398 50.8762 69.8391 50.8777C71.4432 51.8643 73.0782 52.8157 74.6866 53.696C75.2854 54.1168 75.8821 54.539 76.4723 54.9655C76.4968 54.9849 76.524 55.0028 76.5499 55.0208C78.3945 56.3592 80.1674 57.7522 81.6975 59.3463C81.844 59.5732 81.9905 59.8015 82.1356 60.0227C82.2827 60.2467 82.4256 60.4528 82.5671 60.651L82.5685 60.6488C82.6655 60.7845 82.7617 60.9166 82.8565 61.0437C82.8565 61.0437 82.8558 61.0452 82.855 61.0459C84.0355 62.6148 85.096 63.5109 86.5221 65.2737C86.894 65.7318 87.8239 68.3469 88.4665 69.1583C88.7128 69.5612 88.944 69.9625 89.1494 70.3582C89.1587 70.4013 89.1831 70.4508 89.1831 70.4903C89.2205 71.2378 89.2492 71.9867 89.3009 72.7335C88.3998 77.232 82.8917 76.0774 79.4106 75.9726L79.4091 75.9719Z" fill="#633222"/>
<path d="M65.3404 80.2111C65.2212 80.1673 65.1006 80.125 64.9814 80.0812C62.5939 79.2016 60.1504 78.3959 57.6745 77.6175C57.0958 77.1092 56.4718 76.7573 55.8227 76.4845C55.7193 76.4414 55.6152 76.3983 55.5104 76.3588C54.4491 75.9603 53.3261 75.7492 52.2102 75.4376C51.625 75.2746 51.042 75.0843 50.4704 74.8222C49.8594 74.5429 49.3208 74.255 48.7529 74.013C48.6143 73.9541 48.4743 73.8981 48.3307 73.8449C48.047 73.7408 47.7526 73.6504 47.4324 73.58C46.1112 73.2921 44.5925 74.0108 43.3123 74.1616C43.2491 74.1688 43.1808 74.1609 43.1169 74.1623C42.9238 74.1458 42.7285 74.1322 42.5339 74.1171C41.3908 73.916 40.1162 73.1492 39.0916 72.8404C38.7886 72.7492 38.4691 72.6918 38.1416 72.6552C37.6591 72.6027 37.1593 72.597 36.6668 72.6085C36.5519 72.6114 36.4377 72.6149 36.3243 72.6185C35.9782 72.6307 35.6378 72.6458 35.314 72.6544C34.8717 72.6652 34.3697 72.7305 33.9159 72.8734C33.7573 72.9237 33.6072 72.9855 33.4657 73.058C33.4269 73.0781 33.3824 73.0917 33.3458 73.1125C33.2632 73.1607 33.1864 73.2073 33.1103 73.254C32.7829 73.4558 32.5086 73.6417 32.2652 73.7581C32.0074 73.7552 31.7489 73.753 31.4947 73.7502C31.2778 73.6022 31.0624 73.3107 30.8212 72.7657C30.7343 72.5647 30.4262 72.4462 30.2238 72.5216C29.1374 72.933 28.3935 73.2325 27.5692 73.1872C27.5196 73.1843 27.4693 73.1815 27.4184 73.1764C26.9143 73.124 26.3707 72.9424 25.6951 72.5747C24.73 72.0513 23.7765 71.5364 22.8416 70.9785C22.6735 70.7523 22.5184 70.5096 22.3705 70.2583C22.2657 70.0795 22.1652 69.8957 22.0704 69.7047C20.9589 67.4687 20.5208 64.4005 20.5208 60.7428C20.5208 57.7335 21.394 53.7024 23.248 50.1818C22.5867 50.0971 21.962 50.0145 21.3574 49.9463C21.3387 49.9442 21.3222 49.942 21.3042 49.9399C21.0795 49.9147 20.8569 49.8917 20.6379 49.8716C19.9787 49.8106 19.3404 49.7747 18.7056 49.7797C17.8591 49.7869 17.0189 49.8695 16.1422 50.0691C16.1422 50.0677 16.1422 50.0669 16.1429 50.0655C16.1135 50.0734 16.0848 50.0806 16.0582 50.0878C15.0874 50.3161 14.0721 50.6837 12.9534 51.2575C9.71142 52.9197 8.84977 52.9915 6.98214 56.2795C5.94098 58.1155 5.02116 60.0226 4.20547 61.7696C3.47594 63.3328 2.56689 65.0539 2.09083 66.7938C1.76125 68.0001 1.3972 70.0422 1.32324 71.6908C1.5523 71.8237 1.7074 72.1102 1.55517 72.4153C1.52573 72.4742 1.50778 72.5352 1.49126 72.5963C1.51352 72.6243 1.53866 72.6415 1.55517 72.676C2.72845 74.9543 5.06712 74.7633 6.79114 76.2511C7.19971 76.6044 7.68223 77.7188 8.18773 77.848C8.66523 77.9708 9.13771 78.108 9.60731 78.2537V78.2588C9.7502 78.3033 9.89452 78.3456 10.0396 78.3923V78.3909C10.5652 78.5625 11.0872 78.7477 11.6027 78.9502C13.7217 79.7803 16.3311 80.5464 18.1592 81.915C18.2382 81.9739 18.3165 82.0378 18.3947 82.0996C18.3947 82.0996 18.3947 82.0974 18.3947 82.0967C19.7396 83.1458 21.0342 84.4777 22.7288 84.864C23.169 84.9638 23.5754 85.073 23.9725 85.1979C25.1127 85.2654 26.2638 85.2338 27.4191 85.0859C28.2125 84.905 28.9995 84.6709 29.7664 84.4799C30.7544 84.2322 31.7058 84.0778 32.6651 83.9564C32.8899 83.9155 33.1211 83.8825 33.3551 83.8538C33.5296 83.8315 33.712 83.8186 33.8922 83.8056C34.0208 83.7949 34.145 83.7812 34.2778 83.7755C34.2807 83.7755 34.2836 83.7755 34.2864 83.7755C34.4552 83.7582 34.6239 83.741 34.7927 83.7245C34.8903 83.7152 34.983 83.7051 35.082 83.6951C36.9296 83.5134 38.0985 83.6075 39.8506 84.1704C40.6253 84.4188 41.347 84.482 42.0471 84.4318C42.847 84.2795 43.6425 84.095 44.4353 83.8868C44.8898 83.7295 45.3465 83.555 45.8175 83.377C46.7768 83.0136 47.706 82.7293 48.6236 82.5017V82.5074C48.7888 82.4672 48.9539 82.4227 49.1176 82.3854V82.3825C50.0934 82.1613 51.0592 82.0026 52.035 81.8935C52.9405 81.7248 53.8481 81.607 54.7586 81.5632C54.7586 81.5632 54.7586 81.5637 54.7586 81.5646C54.928 81.5567 55.0968 81.5625 55.267 81.5596C55.267 81.5553 55.2684 81.551 55.2691 81.5467C55.9577 81.5359 56.6477 81.5704 57.3414 81.6644C57.4922 81.6644 57.6394 81.663 57.7923 81.6644C60.9287 81.691 64.1219 81.2724 67.2087 81.8612C67.9785 81.6845 68.6994 81.4296 69.3535 81.085C68.782 80.9277 68.1968 80.7784 67.5785 80.6348C66.9129 80.4797 66.1467 80.349 65.3411 80.214L65.3404 80.2111ZM89.1464 70.3574C88.9403 69.9611 88.7091 69.5604 88.4635 69.1568C87.8209 68.3447 86.891 65.7303 86.5191 65.2729C85.093 63.5094 84.0325 62.6133 82.852 61.0444C82.852 61.0444 82.852 61.0437 82.8534 61.043C82.7587 60.9159 82.6624 60.7845 82.5655 60.6488L82.5641 60.6509C82.4226 60.4527 82.2797 60.2459 82.1325 60.0226C81.9882 59.8007 81.841 59.5731 81.6945 59.3462C80.1644 57.7529 78.3908 56.3592 76.5469 55.0207C76.521 55.0013 76.4945 54.9841 76.4693 54.9647C75.8791 54.5375 75.2824 54.1153 74.6836 53.6945C73.0751 52.8142 71.4402 51.8628 69.836 50.8762C69.836 50.8747 69.836 50.8726 69.8368 50.8712C69.7908 50.8424 69.7441 50.813 69.6982 50.785C69.6982 50.7871 69.6967 50.7886 69.696 50.7907C68.5594 50.0885 67.4392 49.3697 66.3578 48.6438C66.1159 48.5648 65.8717 48.498 65.6269 48.4269C65.6204 48.4255 65.6147 48.4233 65.6082 48.4219C65.4474 48.3752 65.2872 48.3235 65.1278 48.279C65.1199 48.2769 65.1113 48.274 65.1034 48.2718C64.9218 48.223 64.7408 48.1828 64.5577 48.1376C64.3373 48.083 64.1168 48.0256 63.8978 47.9767C63.6085 47.9114 63.322 47.8532 63.0362 47.7965C62.9364 47.7757 62.8344 47.7534 62.7353 47.7347C62.2478 47.64 61.7667 47.5538 61.3028 47.477C61.2971 47.4533 60.9381 47.2975 60.9108 47.2874C60.3536 47.0835 59.237 46.7517 57.8462 46.3618C57.7988 46.3496 57.7542 46.336 57.7054 46.3224C53.8696 45.2503 48.1217 43.7719 46.4372 43.308C46.4321 43.3066 46.4278 43.3051 46.4221 43.3037C46.3855 43.2944 46.3489 43.2836 46.3173 43.275C42.9281 42.3315 39.1957 41.6809 35.5761 42.3308C33.3839 42.7235 30.1835 43.9686 28.3016 45.6811C26.9244 46.9341 25.8889 48.4363 25.0948 50.0239C25.0345 50.1438 24.9741 50.263 24.9174 50.3836C24.8162 50.5969 24.7178 50.8101 24.6259 51.027C24.6079 51.6179 24.8277 52.2627 24.664 52.8278C24.4033 53.7211 23.8913 53.7139 23.5438 54.2072C23.4138 54.7041 23.2975 55.1945 23.1991 55.6785C23.1984 55.7086 23.1948 55.7309 23.1948 55.7617C23.1841 56.469 23.2365 57.1914 23.2085 57.9037C23.1999 58.132 23.1812 58.3582 23.1503 58.5837C23.1474 58.6045 23.146 58.626 23.1431 58.6476C22.9241 60.1519 23.011 61.9606 24.8506 62.3441C25.3138 62.4403 25.8099 62.8194 26.1237 63.1583C26.2142 63.256 26.3083 63.3472 26.4052 63.4333C26.4756 63.4958 26.5495 63.5518 26.6235 63.6078C26.6501 63.6279 27.0881 63.9202 27.3817 64.0645C27.4155 64.0796 27.4492 64.0946 27.483 64.1083C28.583 64.57 29.8576 64.5298 31.066 64.2074C31.1429 64.1866 31.2197 64.1657 31.2958 64.1427C31.5263 64.0745 31.7539 63.9984 31.9758 63.9108C32.3046 63.7837 32.6428 64.1155 32.6393 64.43L32.6349 64.7524C34.0337 64.6238 35.5646 63.9525 36.8872 64.5262C37.0883 64.6138 37.2843 64.6899 37.4817 64.7667C37.4932 64.771 37.504 64.7761 37.5148 64.7804C37.5794 64.8055 37.6455 64.8349 37.7101 64.8594C37.8487 64.9118 37.9858 64.9549 38.123 65.0015C39.8577 65.5968 41.5107 65.823 43.463 65.8287C43.9736 65.8302 44.4733 65.8495 44.9666 65.8804C45.4255 65.9091 45.8785 65.9501 46.3259 66.0039C46.4314 66.0168 46.5348 66.0341 46.6397 66.0484C46.7093 66.0592 46.779 66.0685 46.8493 66.0786C46.8615 66.08 46.873 66.0815 46.8852 66.0836C48.3486 66.2933 49.766 66.6315 51.182 67.0968C51.2344 67.114 51.2861 67.1327 51.3378 67.1499C51.4491 67.188 51.5604 67.226 51.671 67.2648C52.4063 67.5211 53.143 67.8041 53.889 68.125C55.7215 68.9127 57.5539 69.7851 59.4668 70.3646C59.7533 70.4515 60.2775 70.5075 60.8009 70.6066V70.6087C61.1377 70.6726 61.4737 70.7531 61.7466 70.8701C61.7602 70.8758 61.7731 70.8823 61.7861 70.888C61.8349 70.911 61.8816 70.934 61.9261 70.9591C61.9448 70.9692 61.9627 70.98 61.9799 70.9907C62.0166 71.0137 62.0503 71.0381 62.0826 71.064C62.1006 71.0776 62.1185 71.0913 62.1343 71.1049C62.1638 71.1315 62.1889 71.1609 62.2133 71.1903C62.2255 71.2047 62.2399 71.2183 62.2506 71.2341C62.2822 71.2801 62.3081 71.3289 62.326 71.3806C62.4258 71.6786 62.6535 71.9414 62.9579 72.1748C63.7492 72.5137 64.5398 72.8505 65.3267 73.1779C66.9136 73.5742 68.698 73.6942 69.5819 73.5742C69.6486 73.5656 69.7161 73.5664 69.7815 73.5742C69.8303 73.5814 69.8784 73.5944 69.9229 73.6109C69.9287 73.613 69.9344 73.6159 69.9402 73.618C70.0256 73.6539 70.0996 73.71 70.1527 73.7882C70.1592 73.7968 70.1649 73.8069 70.1707 73.8162C70.1944 73.8572 70.2152 73.9017 70.2267 73.9534C70.2274 73.9555 70.2274 73.957 70.2274 73.9584V73.957C70.7279 76.1089 77.7058 75.9179 79.4068 75.9696C82.8886 76.0745 88.3967 77.2291 89.2972 72.7305C89.2455 71.9838 89.2168 71.2349 89.1794 70.4874C89.1794 70.4486 89.1557 70.3983 89.1464 70.356V70.3574ZM131.045 55.313C131.033 54.1591 130.561 53.0612 130.595 51.9173C130.658 49.8508 130.998 48.1713 129.696 46.3654C129.692 46.3575 129.692 46.3504 129.689 46.3432C129.687 46.3432 129.685 46.3425 129.684 46.3417C129.528 46.0955 129.678 45.7932 129.886 45.6424C130.246 45.3803 129.526 44.1086 129.253 43.0983C128.904 43.1134 128.524 42.7343 128.726 42.3071C129.503 40.6742 127.977 38.3313 127.44 36.7192C127.31 36.3301 127.046 35.8368 126.794 35.3183L126.796 35.3198C126.712 35.1446 126.63 34.9665 126.553 34.7877L126.547 34.7841C126.303 34.2176 126.129 33.6503 126.205 33.1771C126.467 31.5285 125.42 30.2425 125.016 28.708C124.646 27.3093 123.534 26.6027 123.146 25.2758C122.782 24.0329 121.949 22.5106 121.481 21.2469C121.155 20.3637 120.105 19.8811 120.105 18.8601C120.105 17.6516 119.884 17.2725 119.025 16.413C118.302 15.6899 117.974 14.8398 116.965 14.3141C116.768 14.2531 116.599 14.0951 116.578 13.8352C116.536 13.306 115.439 13.0044 115.138 12.5255C114.875 12.1083 114.188 12.4278 113.793 12.3187C113.446 12.2225 113.081 11.9726 112.797 11.7572C111.984 11.1454 111.097 10.7936 110.957 9.91254C110.849 9.919 110.742 9.919 110.637 9.93767C110.303 9.9944 109.967 9.79693 109.967 9.42714V9.39914C109.634 9.29143 109.301 9.11408 108.996 8.89292C108.849 8.84696 108.703 8.80316 108.554 8.7371C105.361 7.31035 102.26 7.55233 98.9053 6.8587C97.0542 6.47598 95.7222 6.53127 93.8876 6.93984C93.161 7.10068 92.6698 6.89819 92.1327 6.82065C91.6904 6.88814 91.1727 6.99441 90.6148 7.13515C90.6054 7.14161 90.5975 7.14233 90.5868 7.14879C90.064 7.44965 89.7108 7.73041 89.2634 7.76344C88.9647 8.17344 88.6639 8.63155 88.1634 8.70982C87.6809 8.78521 87.0813 8.68038 86.7151 9.09469C86.5069 9.33021 86.3869 9.59373 86.2792 9.88597C85.9439 10.813 85.5002 11.4168 84.5961 11.5253C83.8846 12.4034 83.2807 13.4439 82.4154 14.1389C82.404 14.1914 82.3846 14.2452 82.3738 14.2969C82.1778 15.3187 81.2501 17.2761 81.3391 18.2842C81.4691 19.7576 82.5023 20.8699 82.6409 22.2959C82.8089 24.0458 83.4896 25.39 83.9406 26.9855C84.2543 28.0999 83.6656 29.0017 84.3312 30.0515C84.7089 30.646 84.9896 31.8509 85.1936 32.5453C85.5583 33.781 85.6495 35.1841 85.8527 36.4607C85.9597 37.1321 86.0157 37.7733 86.0222 38.4275C86.0171 38.4239 86.0114 38.4217 86.0071 38.4189C86.0093 38.5761 86.0049 38.7362 85.9999 38.8949C86.0057 38.8971 86.0128 38.8992 86.0186 38.9014C86.0186 38.9093 86.0186 38.9172 86.0179 38.9251C86.0114 38.9251 86.0049 38.9265 85.9992 38.9272C85.9935 39.1146 86.0071 39.2941 85.9913 39.4866C85.9841 39.5785 85.9561 39.6553 85.9166 39.7221C86.1062 39.7817 86.2606 39.9318 86.2555 40.1924C86.1766 44.2745 85.5655 48.544 86.2369 52.5672C86.402 53.5545 86.7574 54.2582 86.784 55.267C86.8544 55.7208 86.5126 57.6308 86.6088 58.0868C87.217 59.9451 87.8977 60.4958 89.3618 61.8551C89.5492 62.0281 89.5399 62.2816 89.4436 62.4948C89.4465 62.907 89.5427 63.2452 89.6986 63.5374C90.212 63.9991 90.7792 64.4235 91.3874 64.8156C92.0157 64.9757 92.6045 65.2098 93.245 65.576C94.4721 66.2782 96.0769 66.1461 97.1892 66.7966C98.2885 67.4414 100.107 68.3792 101.288 67.812C101.505 67.7071 101.754 67.7143 101.928 67.8938L102.233 68.2004C102.383 68.3526 102.404 68.5271 102.359 68.6844C102.681 68.759 103.016 68.8301 103.332 68.9055C104.948 68.6233 108.583 69.8735 109.705 69.997C110.89 70.1269 111.57 70.8952 112.654 71.2686C112.958 71.3375 113.26 71.4 113.561 71.4639C114.576 71.5609 115.468 71.2916 116.525 71.3519C117.28 71.3964 118.425 72.1482 119.084 72.0434C119.744 71.9371 120.052 71.8617 120.582 72.2696C120.721 72.2617 120.853 72.2473 120.989 72.2365C121.593 72.0211 122.876 71.4108 123.887 70.8823C123.901 70.8751 123.913 70.8687 123.926 70.8615C124.04 70.8019 124.151 70.7423 124.258 70.6856C124.797 70.3933 125.204 70.1513 125.285 70.0522C125.41 69.9 125.625 69.8842 125.8 69.9151C126.132 69.9747 128.76 66.177 129.043 65.8416C129.541 65.255 129.884 64.6633 130.125 64.0623C130.125 64.0623 130.127 64.0623 130.127 64.063C130.134 64.0472 130.139 64.0315 130.142 64.0157C130.142 64.0157 130.142 64.0157 130.142 64.0164C130.142 64.0149 130.144 64.0128 130.144 64.0113C130.144 64.0099 130.145 64.0085 130.145 64.007C130.145 64.0099 130.144 64.0121 130.143 64.0142C130.788 62.367 130.659 60.6502 130.713 58.7574C130.715 58.7603 130.716 58.7625 130.717 58.7646C130.717 58.7438 130.72 58.723 130.72 58.7014L130.715 58.695C130.72 58.5492 130.725 58.4027 130.732 58.2548C130.778 57.3098 131.056 56.2522 131.047 55.3108L131.045 55.313Z" fill="#DB8E7D"/>
<path d="M55.4144 77.6227C55.4489 77.2105 55.4819 76.7869 55.5106 76.3582C54.4493 75.9604 53.3263 75.7486 52.2105 75.4377C51.6246 75.2747 51.0415 75.0844 50.4707 74.8223C49.8596 74.5423 49.3211 74.2551 48.7531 74.0131C49.0138 74.9559 48.9829 75.9065 48.9915 76.7639C49.0145 77.6902 49.0353 78.5662 49.0532 79.3747C49.0741 80.1832 49.0927 80.9249 49.1093 81.5834C49.1207 81.8677 49.1186 82.1298 49.1172 82.3804C50.093 82.1593 51.0587 82.0006 52.0346 81.8914C52.94 81.7227 53.8476 81.6049 54.7581 81.5611C54.7904 81.3838 54.8256 81.1878 54.8873 80.9616C54.9505 80.6844 55.0511 80.3462 55.1064 80.0245C55.1645 79.5442 55.2571 79.0071 55.3304 78.4355C55.3641 78.1713 55.395 77.902 55.4137 77.6234L55.4144 77.6227ZM65.3399 80.2112C65.2207 80.1674 65.1001 80.1251 64.9809 80.0813C62.5934 79.2017 60.1499 78.396 57.6741 77.6176C57.0953 77.1093 56.4714 76.7574 55.8222 76.4846C55.8086 76.8867 55.7921 77.2845 55.7734 77.6658C55.7598 78.0499 55.7267 78.4161 55.6901 78.768C55.6406 79.2368 55.5831 79.6791 55.5487 80.0848C55.4963 80.4625 55.4144 80.7541 55.3613 81.0398C55.3167 81.2251 55.2916 81.3902 55.2679 81.5446C55.9565 81.5339 56.6466 81.5676 57.3402 81.6617C57.491 81.6617 57.6382 81.6602 57.7911 81.6617C60.9275 81.6882 64.1207 81.2696 67.2075 81.8577C67.9773 81.6811 68.6989 81.4269 69.3523 81.0822C68.7808 80.9249 68.1956 80.7756 67.5773 80.6313C66.9131 80.4762 66.147 80.3455 65.3406 80.2105L65.3399 80.2112ZM36.5342 77.3814C36.611 77.1229 36.6548 76.8687 36.6763 76.6052C36.331 77.4173 35.9856 78.2574 35.6818 79.1758C35.6897 79.1894 35.6976 79.206 35.7048 79.2189C36.0394 78.6567 36.3539 78.0571 36.5334 77.3821L36.5342 77.3814ZM48.6059 79.3783C48.5994 78.5683 48.5915 77.6916 48.5836 76.7639C48.5894 75.8355 48.6382 74.8611 48.3517 73.924C48.3445 73.8975 48.3366 73.8716 48.3295 73.8443C48.0458 73.7402 47.7514 73.649 47.4312 73.5786C46.11 73.29 44.5913 74.0095 43.3111 74.1603C43.2479 74.1682 43.1797 74.1588 43.1157 74.161C42.9226 74.1445 42.7273 74.1315 42.5327 74.1157C41.3896 73.914 40.115 73.1478 39.0904 72.8391C38.7874 72.7479 38.4686 72.6897 38.1404 72.6531C37.8618 73.733 37.4755 74.7132 37.0612 75.6962C37.0619 75.7457 37.0662 75.796 37.0655 75.8455C37.1043 76.3762 37.0756 76.9771 36.9262 77.4841C36.6584 78.5375 36.1105 79.4041 35.6395 80.1717C35.4808 80.4259 35.3329 80.6722 35.1914 80.9149C35.1857 80.9379 35.1792 80.9594 35.1742 80.9831C34.9688 81.9015 34.8583 82.8127 34.79 83.7196C34.8877 83.7102 34.9803 83.6995 35.0794 83.6901C36.9269 83.5085 38.0959 83.6025 39.8479 84.1655C40.6227 84.4146 41.3443 84.4771 42.0444 84.4269C42.8443 84.2753 43.6399 84.0901 44.4326 83.8826C44.8872 83.7253 45.3438 83.5508 45.8149 83.372C46.7742 83.0094 47.7033 82.7251 48.621 82.4968C48.6274 82.2131 48.6353 81.9108 48.6274 81.5856C48.621 80.9285 48.6131 80.1861 48.6052 79.3776L48.6059 79.3783ZM100.357 43.2392C97.9699 43.614 95.5781 43.9019 93.2804 44.1662C93.503 44.197 93.7938 44.2444 94.193 44.3241C95.5379 44.6006 97.4759 44.9668 99.7356 45.6942C100.856 46.0762 102.083 46.5206 103.219 47.3335C103.771 47.7392 104.333 48.282 104.564 49.0216C104.807 49.6958 104.895 50.4605 105.029 51.1592C105.163 51.8736 105.395 52.5429 105.868 53.1288C106.314 53.6881 106.909 54.1764 107.529 54.6173C108.762 55.5062 110.202 56.2752 111.179 57.5778C111.468 58.0072 111.78 58.41 112.103 58.8013C111.875 58.4251 111.633 57.9957 111.439 57.511C111.073 56.63 110.714 55.5895 110.261 54.506C110.035 53.9696 109.772 53.411 109.472 52.8904C109.161 52.3655 108.778 51.8815 108.344 51.4328C107.898 50.9876 107.452 50.5417 107.011 50.1022C106.599 49.5709 106.453 48.9613 106.302 48.3883C106.034 47.2286 105.597 44.7693 105.513 43.8287C105.437 42.9275 105.142 42.8277 105.091 42.3402C104.962 42.3639 104.833 42.3876 104.702 42.4156C103.281 42.7308 101.821 43.0166 100.356 43.2392H100.357ZM96.0994 38.4376C96.3723 38.5302 96.7615 38.6717 97.2088 38.8878C97.6612 39.0961 98.1653 39.3811 98.6837 39.738C98.9479 39.906 99.1841 40.1358 99.439 40.311C99.6947 40.4833 99.9884 40.6176 100.294 40.7325C100.604 40.8459 100.915 40.9608 101.22 41.0728C101.541 41.1978 101.812 41.3364 102.092 41.4096C102.667 41.5733 103.236 41.6659 103.72 41.7385C104.43 41.8455 105.285 41.9151 105.688 41.9453C105.707 41.9438 105.724 41.9395 105.741 41.9395C106.136 41.9165 106.555 42.1054 106.832 42.3301C107.406 42.7897 107.965 43.1114 108.574 43.5278C109.718 44.373 110.529 45.5154 111.685 45.9117C112.833 46.3332 114.012 45.9785 115.087 45.7293C116.162 45.4551 117.299 45.3653 118.201 45.725C119.089 46.0517 119.759 46.4955 120.314 46.8236C120.866 47.1626 121.3 47.4081 121.598 47.5496C121.612 47.5561 121.62 47.5661 121.634 47.5726C121.403 47.1776 121.176 46.7813 120.953 46.3871C120.573 45.7114 120.144 45.0723 119.67 44.4721C119.192 43.8962 118.614 43.3454 118.023 42.8687C116.836 41.8713 115.624 40.9034 114.36 40.0144C113.306 39.2706 112.199 38.6013 111.047 38.0398C107.928 36.9556 104.661 36.7021 101.315 36.8615C99.6782 37.2184 97.7725 37.7849 95.7763 38.3421C95.851 38.3651 95.9609 38.396 96.0987 38.4376H96.0994ZM93.643 38.6502C96.131 38.0657 98.5903 37.3484 100.683 36.896C96.2215 37.1731 91.6282 38.1303 87.0657 38.7823C87.7156 38.9525 88.379 39.0235 89.0978 39.0824C90.5526 39.1571 92.1186 38.9948 93.643 38.6509V38.6502ZM129.433 53.5036C129.534 53.3377 129.68 53.2702 129.83 53.2595C129.426 51.0529 128.455 49.1027 129.524 47.103C129.196 46.7655 128.873 46.5041 128.553 46.2995C127.978 46.1724 127.398 46.0453 126.811 45.9153C126.387 45.8241 125.97 45.7214 125.556 45.6166C123.883 45.6626 122.109 45.9534 119.927 44.2495C119.838 44.1805 119.75 44.108 119.662 44.0384C119.737 44.1238 119.813 44.2085 119.886 44.2983C120.366 44.9237 120.795 45.5822 121.166 46.2657C121.917 47.6322 122.656 48.9871 123.629 50.1956C124.579 51.4148 125.689 52.507 126.79 53.5991C127.339 54.1455 127.92 54.6683 128.392 55.2958C128.843 55.8717 129.244 56.4799 129.641 57.0902C129.656 56.3571 129.583 55.6671 129.229 54.7537C128.994 54.1455 129.086 54.0773 129.433 53.5029V53.5036ZM129.64 57.2044C129.22 56.5718 128.794 55.9421 128.322 55.3533C127.85 54.7429 127.263 54.2288 126.707 53.6867C125.589 52.6082 124.464 51.5297 123.486 50.3105C123.042 49.7734 122.645 49.1982 122.269 48.6109C122.044 48.4701 121.576 48.1226 121.377 48.0242C121.048 47.8662 120.6 47.6049 120.05 47.2609C119.498 46.9256 118.846 46.4905 118.039 46.1853C117.242 45.8636 116.257 45.9203 115.189 46.1745C114.141 46.4007 112.847 46.7913 111.545 46.3016C110.238 45.8198 109.431 44.6214 108.359 43.8258C107.827 43.4517 107.17 43.0554 106.633 42.6109C106.355 42.351 106.024 42.2763 105.666 42.2813C105.679 42.4292 105.696 42.6403 105.718 42.9096C105.763 43.4596 105.825 44.2437 105.932 45.1815C106.041 46.1171 106.177 47.2143 106.473 48.3495C106.63 48.9045 106.81 49.5127 107.179 49.9579C107.623 50.3859 108.076 50.8217 108.529 51.2561C108.866 51.5907 109.166 51.962 109.442 52.3483L109.434 52.3109C109.434 52.3109 109.922 52.6606 110.587 52.9902C111.264 53.3334 112.281 53.7477 113.512 54.2382C114.734 54.7465 116.207 55.2836 117.617 56.2271C118.334 56.7003 118.913 57.3746 119.448 58.0617C119.977 58.7539 120.562 59.3815 121.334 59.7879C122.1 60.2281 122.876 60.6517 123.656 61.0208C124.427 61.4143 125.219 61.7453 125.969 62.0928C126.994 62.5502 127.978 62.9753 128.877 63.386C128.946 63.2726 129.017 63.1548 129.093 63.0299C129.872 61.7345 129.457 60.2281 129.539 58.7977C129.572 58.1903 129.623 57.6855 129.64 57.2051V57.2044ZM120.84 66.8391C120.399 66.3882 119.926 65.9372 119.437 65.4899C119.135 65.3678 118.433 65.0864 118.217 65.0002C117.955 64.9183 117.56 64.8056 117.013 64.7367C115.937 64.5737 114.351 64.6045 112.444 64.7029C111.484 64.7324 110.451 64.8271 109.321 64.7015C108.186 64.5909 107.072 64.0222 106.09 63.3487C105.098 62.6831 104.086 61.965 102.876 61.7518C101.679 61.4969 100.418 61.8544 99.136 61.9392C97.8608 62.0526 96.5037 61.9112 95.367 61.3109C94.2289 60.7738 93.2043 60.0414 92.0511 59.7714C90.9022 59.4892 89.7347 59.5495 88.6418 59.5625C88.1701 59.5703 87.7192 59.5775 87.2718 59.5847C87.2496 59.5495 87.2294 59.5129 87.2072 59.4777C87.6746 59.4648 88.1464 59.4512 88.639 59.4339C89.7297 59.4074 90.9037 59.3262 92.0913 59.6012C93.2919 59.8676 94.3345 60.5936 95.4647 61.1077C96.5755 61.6721 97.8601 61.7884 99.1102 61.6627C100.357 61.5679 101.631 61.1773 102.933 61.4279C103.007 61.4408 103.072 61.4696 103.144 61.4847C103.048 61.3073 102.88 61.0782 102.725 60.7257C102.558 60.371 102.357 59.961 102.127 59.5136C101.882 59.0742 101.572 58.6276 101.136 58.1472C101.03 58.0244 100.925 57.9153 100.839 57.8442C100.833 57.819 100.693 57.8492 100.516 57.9009C100.173 57.9986 99.7758 58.028 99.429 58.0682C98.7461 58.1127 97.9692 58.4969 97.0846 58.2621C96.1978 58.0172 95.6916 57.2223 95.2241 56.5488C94.7495 55.8322 94.3237 55.1551 93.6437 54.6072C93.0176 54.0263 92.4144 53.4182 91.7431 52.9206C91.0882 52.4028 90.4628 51.8657 89.7821 51.445C89.1107 51.0141 88.4989 50.5359 87.8355 50.2229C87.1849 49.8933 86.5918 49.5235 86.0009 49.2851C85.9808 49.2772 85.9599 49.2693 85.9413 49.2636C85.9391 49.2341 85.9406 49.2054 85.9391 49.1774C85.97 49.1867 86.0002 49.1961 86.0318 49.2083C86.6335 49.438 87.2323 49.7963 87.8936 50.1152C88.5693 50.4182 89.1933 50.8856 89.8754 51.3057C90.5691 51.715 91.2103 52.2449 91.8831 52.7561C92.5738 53.2501 93.1856 53.844 93.8232 54.4119C94.1356 54.6912 94.4745 54.9792 94.7402 55.3332C95.0087 55.675 95.2421 56.029 95.4834 56.3707C95.9565 57.0421 96.4613 57.7429 97.1779 57.9138C97.891 58.1027 98.6205 57.7472 99.3823 57.6647C99.7636 57.6144 100.078 57.5857 100.403 57.4902C100.55 57.4658 100.756 57.3186 101.065 57.4694C101.242 57.5979 101.36 57.7293 101.468 57.8478C101.903 58.3044 102.283 58.8193 102.548 59.2803C102.802 59.7542 103.008 60.1548 103.164 60.4722C103.313 60.7982 103.497 61.0423 103.594 61.2132C103.653 61.3087 104.011 61.6211 104.317 61.8803C105.03 62.207 105.685 62.6321 106.297 63.0292C107.289 63.6862 108.306 64.1852 109.373 64.2771C110.423 64.3812 111.47 64.285 112.418 64.2419C114.325 64.1242 115.94 64.0718 117.078 64.2304C117.568 64.2865 117.955 64.3841 118.254 64.4696C118.067 64.3137 117.895 64.1536 117.704 63.9992C116.561 63.0766 115.334 62.1812 114.149 61.1824C112.961 60.2008 111.846 59.0246 110.965 57.7372C110.027 56.5086 108.61 55.7626 107.345 54.8758C106.707 54.427 106.096 53.9481 105.589 53.327C105.094 52.7346 104.806 51.9548 104.669 51.2296C104.517 50.4885 104.437 49.8042 104.194 49.1451C103.993 48.5168 103.499 48.0414 102.977 47.663C101.907 46.9112 100.698 46.4804 99.5963 46.1185C97.3682 45.4242 95.4374 45.0802 94.0947 44.8182C93.1382 44.6365 92.3412 44.4232 91.9527 44.3141C91.8781 44.322 91.8005 44.3313 91.7266 44.3399C89.6945 44.5532 87.7802 44.8117 86.0275 45.0458C86.0296 45.0092 86.031 44.9733 86.0339 44.9373C87.7551 44.6875 89.4123 44.4261 91.4329 44.1899C94.1858 43.8466 97.3977 43.4618 100.313 42.9706C101.553 42.7689 102.78 42.5147 103.992 42.2432C103.881 42.2267 103.763 42.2066 103.645 42.1837C103.153 42.0867 102.583 41.969 101.978 41.7672C101.662 41.6674 101.368 41.4979 101.089 41.3751C100.791 41.2473 100.49 41.1166 100.188 40.9867C99.8821 40.8524 99.5784 40.6959 99.3055 40.4905C99.0391 40.283 98.8244 40.0503 98.576 39.8737C98.0934 39.5032 97.6045 39.1901 97.1693 38.9611C96.7371 38.7241 96.3572 38.5647 96.0901 38.4577C95.9436 38.4053 95.8381 38.3687 95.7663 38.3428C95.087 38.5331 94.397 38.722 93.7019 38.9C92.166 39.2813 90.577 39.4831 89.0813 39.4371C88.3424 39.3969 87.5913 39.3266 86.9394 39.1664C86.6521 39.1083 86.3484 39.0293 86.0669 38.9173C86.0504 38.9194 86.0325 38.9223 86.016 38.9245C86.0095 38.9245 86.003 38.9259 85.9973 38.9266C85.9915 39.1133 86.0045 39.2928 85.9894 39.486C85.9822 39.5779 85.9542 39.6547 85.9147 39.7215C86.1043 39.7811 86.2587 39.9311 86.2536 40.1918C86.1746 44.2739 85.5636 48.5434 86.235 52.5666C86.4001 53.5539 86.7555 54.2575 86.7821 55.2664C86.8525 55.7202 86.5107 57.6302 86.6069 58.0862C87.2151 59.9444 87.8958 60.4952 89.3599 61.8544C89.5473 62.0275 89.538 62.281 89.4417 62.4942C89.4446 62.9064 89.5408 63.2446 89.6966 63.5368C90.21 63.9985 90.7773 64.4229 91.3855 64.8149C92.0138 64.9751 92.6026 65.2091 93.2431 65.5753C94.4702 66.2776 96.075 66.1455 97.1873 66.796C98.2866 67.4408 100.105 68.3786 101.286 67.8113C101.503 67.7065 101.75 67.7137 101.926 67.8932L102.231 68.1998C102.38 68.352 102.402 68.5265 102.357 68.6838C102.679 68.7584 103.014 68.8295 103.329 68.9049C104.946 68.6227 108.58 69.8728 109.702 69.9963C110.888 70.1263 111.568 70.8946 112.652 71.268C112.956 71.3369 113.258 71.3994 113.559 71.4633C114.573 71.5602 115.466 71.291 116.522 71.3513C116.61 71.357 116.704 71.3735 116.801 71.3944C116.991 71.3836 117.196 71.3929 117.422 71.4238C119.515 71.7096 120.646 71.3333 122.533 70.5198C122.778 70.4142 123.068 70.308 123.386 70.1967C123.371 70.1773 123.358 70.1593 123.342 70.1392C122.599 69.2331 121.782 67.7934 120.838 66.8369L120.84 66.8391ZM125.898 62.2494C125.139 61.9148 124.344 61.6003 123.558 61.2168C122.759 60.86 121.976 60.4485 121.202 60.0263C120.389 59.6228 119.73 58.9413 119.195 58.2649C118.653 57.5929 118.087 56.9667 117.408 56.5337C116.042 55.6534 114.571 55.1407 113.347 54.6561C112.109 54.1893 111.072 53.7872 110.364 53.4433C110.219 53.3751 110.11 53.3227 110.018 53.2781C110.213 53.6451 110.395 54.0105 110.562 54.3767C111.054 55.4574 111.448 56.4899 111.835 57.3415C112.211 58.201 112.618 58.8573 112.899 59.3061C113.111 59.6048 113.572 60.236 113.86 60.6302C114.003 60.7587 114.142 60.893 114.292 61.0186C115.456 62.0232 116.676 62.9329 117.812 63.8693C118.951 64.8113 119.992 65.7721 120.928 66.7515C121.869 67.7237 122.691 68.6988 123.426 69.6179C123.548 69.7716 123.662 69.9195 123.777 70.0667C123.99 69.9935 124.208 69.9173 124.431 69.8376C124.738 68.8783 125.8 67.9348 126.614 67.5902C127.058 67.4028 127.158 67.336 127.429 66.9353C127.609 66.6689 127.805 66.4456 128.086 66.274C128.15 66.2352 128.213 66.2137 128.278 66.1814C128.383 65.9516 128.48 65.7276 128.584 65.4985C128.487 65.4145 128.411 65.2975 128.394 65.1416C128.312 64.4473 128.513 63.9985 128.82 63.4801C127.917 63.0895 126.929 62.6859 125.898 62.2494H125.898ZM65.6106 48.422C65.4505 48.3761 65.2896 48.3236 65.1302 48.2798C65.2911 48.3229 65.4505 48.3753 65.6106 48.422ZM70.7137 69.2273C70.8272 68.5028 70.8272 67.7575 70.7281 66.9576C70.6355 66.1577 70.5041 65.3204 70.489 64.4516C70.4696 63.5785 70.7281 62.6859 71.0562 61.899C71.7815 60.274 72.916 58.932 74.011 57.7379C74.9121 56.7563 75.7709 55.8451 76.4696 54.9655C75.8793 54.539 75.2827 54.1168 74.6838 53.696C73.0754 52.8157 71.4404 51.8643 69.8363 50.8777C69.5534 51.7961 69.2453 52.7791 68.9165 53.7643C68.309 55.5694 67.6498 57.3624 66.9907 58.6534C66.6582 59.2996 66.3279 59.8209 65.9826 60.1462C65.8964 60.2281 65.7966 60.2905 65.7183 60.348C65.6336 60.3882 65.5611 60.409 65.4914 60.4298C65.6838 61.1594 65.8878 61.8911 66.1032 62.6242C66.3538 63.5462 66.6956 64.4329 66.8751 65.3729C67.1178 66.2783 67.1774 67.2225 67.2499 68.1179C67.321 69.9145 67.2348 71.5839 67.2664 73.0136C67.2801 73.1909 67.2829 73.3553 67.2901 73.5262C67.2643 73.5241 67.242 73.5219 67.2147 73.5191C67.2068 73.3517 67.2004 73.1916 67.1853 73.0179C67.1285 71.5846 67.1846 69.9102 67.0833 68.1287C66.9964 67.2441 66.9261 66.3336 66.6654 65.4224C66.4794 64.5155 66.1154 63.6158 65.8504 62.701C65.2817 60.8779 64.7439 59.0347 64.4215 57.2611C64.2628 56.3751 64.13 55.5112 64.0819 54.6826C64.0151 53.8569 64.0151 53.0677 64.0718 52.3432C64.0833 51.9792 64.135 51.6331 64.1874 51.3042C64.2277 50.9732 64.2851 50.6637 64.3662 50.3765C64.4861 49.7956 64.6786 49.3023 64.8294 48.8938C64.922 48.6317 65.0189 48.4407 65.1065 48.2734C64.9249 48.2245 64.7439 48.1836 64.5615 48.1391C64.3411 48.0845 64.1207 48.0271 63.9017 47.9775C63.6123 47.9122 63.3258 47.854 63.04 47.7973C62.9402 47.7765 62.8382 47.7542 62.7392 47.7356C62.3686 47.6645 62.0032 47.5984 61.6456 47.5374C59.2933 51.417 57.0257 55.3856 58.3498 60.1283C59.113 62.8669 60.2052 65.6112 60.5857 68.4389C60.6834 69.1605 60.7466 69.8829 60.8033 70.6067V70.6088C61.1401 70.6727 61.4761 70.7532 61.749 70.8702C61.7626 70.8767 61.7755 70.8824 61.7885 70.8881C61.8373 70.9111 61.884 70.9341 61.9285 70.9592C61.9464 70.9693 61.9651 70.9801 61.9823 70.9908C62.0197 71.0138 62.0527 71.0382 62.085 71.0641C62.103 71.0777 62.1209 71.0914 62.1367 71.105C62.1669 71.1316 62.1913 71.161 62.2157 71.1904C62.2279 71.2048 62.2423 71.2184 62.253 71.2335C62.2846 71.2802 62.3112 71.3283 62.3284 71.38C62.4282 71.678 62.6559 71.9408 62.961 72.1742C63.7523 72.5131 64.5422 72.8506 65.3298 73.1773C66.9167 73.5736 68.7011 73.6935 69.585 73.5736C69.6518 73.565 69.7192 73.5657 69.7846 73.5736C69.8133 73.3934 69.8442 73.2125 69.883 73.0121C69.9698 72.4757 70.0998 71.8927 70.2549 71.2615C70.3971 70.6311 70.5522 69.9489 70.7152 69.2252L70.7137 69.2273ZM89.1466 70.3575C88.9405 69.9611 88.7093 69.5605 88.4638 69.1569C87.8211 68.3448 86.8913 65.7304 86.5193 65.273C85.0933 63.5095 84.0327 62.6134 82.8523 61.0445C82.7 61.2527 82.5392 61.471 82.3661 61.695C81.6718 62.6292 80.8604 63.7178 79.9901 64.8853C79.7855 65.1854 79.5765 65.4913 79.3662 65.8015C79.2024 66.1246 79.0359 66.4528 78.8686 66.7831C78.7558 67.1349 78.6661 67.4997 78.5598 67.8616C78.5088 68.235 78.4973 68.6177 78.4614 68.9968C78.4212 69.7666 78.4284 70.5464 78.4097 71.3082C78.3961 72.0715 78.3832 72.824 78.371 73.5514C78.3523 74.3936 78.3437 75.1971 78.3401 75.9539C78.302 75.9539 78.2625 75.9539 78.2245 75.9525C78.2123 75.1943 78.2036 74.3915 78.2036 73.5514C78.2015 72.8247 78.1972 72.0722 78.1943 71.3082C78.1979 70.5449 78.1735 69.7716 78.1986 68.9925C78.2245 68.5983 78.2302 68.2019 78.2762 67.8113C78.3753 67.4293 78.4636 67.0423 78.5778 66.6675C78.7479 66.3142 78.9167 65.9624 79.084 65.6148C79.2886 65.3018 79.4889 64.9923 79.6871 64.6871C80.5315 63.5038 81.3192 62.3987 81.9928 61.4516C82.1988 61.1701 82.3863 60.9045 82.5643 60.6496C82.4229 60.4514 82.28 60.2446 82.1328 60.0213C81.9885 59.7994 81.8413 59.5718 81.6948 59.3449C80.1646 57.7515 78.3911 56.3578 76.5471 55.0194C75.8621 55.9184 75.0177 56.849 74.1374 57.847C73.9593 58.0474 73.7841 58.2585 73.6067 58.4674C73.5486 58.7783 73.448 59.3463 73.4121 59.7168C73.3849 59.9789 73.354 60.2984 73.3166 60.6639C73.2815 61.0301 73.2527 61.4128 73.2793 61.8509C73.3052 62.3047 73.3619 62.734 73.578 63.1771C73.8042 63.6151 74.0505 64.163 74.2178 64.6857C74.5876 65.79 74.6759 67.0136 74.7132 68.2098C74.7427 69.4039 74.864 70.5966 75.0471 71.7002C75.236 72.8075 75.4133 73.8422 75.5663 74.7275C75.6388 75.1425 75.6962 75.5224 75.7451 75.8678C75.7278 75.8671 75.7084 75.8649 75.6926 75.8635C75.6345 75.5246 75.5663 75.1512 75.4837 74.7426C75.3056 73.8601 75.0988 72.8312 74.8762 71.7304C74.6608 70.6196 74.5043 69.4276 74.4404 68.2242C74.3722 67.0301 74.2436 65.841 73.8681 64.8142C73.6735 64.2721 73.4588 63.8334 73.2018 63.3609C72.9447 62.8812 72.8557 62.3269 72.8205 61.8868C72.7781 61.4308 72.8018 60.9849 72.8284 60.6252C72.8578 60.2625 72.8822 59.9473 72.9023 59.6881C72.9138 59.5237 72.9224 59.4095 72.926 59.314C72.2963 60.1383 71.7133 61.0208 71.304 61.9851C70.9859 62.8001 70.7726 63.6007 70.8028 64.4451C70.8329 65.2788 70.9751 66.101 71.0871 66.9102C71.2049 67.7187 71.2214 68.5502 71.113 69.2991C70.9622 70.0294 70.82 70.7208 70.6879 71.3585C70.5443 71.9918 70.4272 72.5705 70.3554 73.0782C70.2994 73.3984 70.2578 73.6842 70.2276 73.9542C70.7281 76.1062 77.706 75.9152 79.4071 75.9669C82.8889 76.071 88.397 77.2263 89.2974 72.7278C89.2457 71.981 89.217 71.2321 89.1797 70.4839C89.1797 70.4473 89.1552 70.397 89.1459 70.3554L89.1466 70.3575ZM64.8315 50.49C64.749 50.7628 64.6894 51.0587 64.6434 51.376C64.5874 51.692 64.5314 52.0237 64.5156 52.377C64.4481 53.0778 64.433 53.8454 64.4861 54.6553C64.5192 55.466 64.6355 56.3198 64.777 57.1965C64.9227 58.0919 65.1274 59.0096 65.3607 59.9358C65.3729 59.9358 65.3794 59.9358 65.3923 59.9358C65.4203 59.92 65.4304 59.9014 65.4663 59.8985C65.5158 59.859 65.5783 59.8274 65.6458 59.7671C65.9186 59.5323 66.2576 59.0534 66.5965 58.443C67.2801 57.2152 68.0017 55.4524 68.6666 53.6752C69.0335 52.6915 69.3796 51.7092 69.6977 50.7916C68.561 50.09 67.4409 49.3705 66.3595 48.6453C66.1175 48.5663 65.8734 48.5003 65.6293 48.4285C65.6228 48.4263 65.6171 48.4249 65.6106 48.4227C65.513 48.6073 65.3909 48.8234 65.2868 49.1063C65.1446 49.4804 64.9572 49.9299 64.8322 50.49H64.8315Z" fill="#D07F64"/>
<path d="M130.713 58.7014C130.372 58.2103 130.047 57.7069 129.721 57.2129C129.695 57.172 129.668 57.1311 129.641 57.0894C129.245 56.4791 128.844 55.8702 128.393 55.295C127.921 54.6667 127.339 54.1454 126.791 53.5976C125.691 52.5054 124.58 51.414 123.63 50.1948C122.657 48.9863 121.917 47.6306 121.167 46.2649C120.795 45.582 120.366 44.9229 119.887 44.2975C119.813 44.2077 119.737 44.1237 119.663 44.0368C119.217 43.5249 118.745 43.0703 118.224 42.6352C118.202 42.6172 118.182 42.6022 118.163 42.5842C118.255 42.5936 118.357 42.6065 118.481 42.6295C118.992 42.7163 119.726 42.9361 120.589 43.2621C121.022 43.4329 121.49 43.616 121.985 43.8114L122.339 43.9758C122.442 44.0462 122.543 44.1029 122.653 44.1833C122.874 44.3542 123.098 44.5272 123.328 44.7039C123.791 45.0758 124.412 45.3566 125.008 45.4765C125.189 45.5225 125.374 45.5691 125.557 45.6151C125.971 45.7199 126.388 45.8226 126.812 45.9131C127.399 46.043 127.978 46.1708 128.553 46.2979C128.984 46.3927 129.411 46.4868 129.829 46.5794C129.783 46.5076 129.748 46.4372 129.696 46.3647C129.692 46.3568 129.692 46.3496 129.688 46.3417C129.686 46.3417 129.684 46.3417 129.683 46.341C128.77 46.112 127.831 45.8764 126.88 45.6388C126.28 45.4923 125.683 45.3185 125.095 45.1512C124.496 45.0076 124.007 44.7642 123.566 44.3958C123.339 44.2113 123.116 44.0296 122.898 43.8516C122.785 43.7618 122.648 43.6778 122.524 43.5945C122.396 43.5299 122.296 43.4746 122.148 43.4071C121.654 43.2003 121.187 43.0071 120.757 42.8284C119.886 42.4779 119.133 42.2345 118.573 42.1268C118.301 42.0701 117.645 41.8525 117.48 41.8454C117.413 41.8454 117.302 41.8145 117.201 41.7814C116.345 41.0691 115.478 40.3676 114.573 39.7142C113.311 38.798 111.969 37.9737 110.538 37.3231C109.82 37.0014 109.078 36.7257 108.308 36.5354C107.592 36.3322 106.845 36.2583 106.1 36.2173C106.039 36.1197 105.973 36.0407 105.907 35.971C105.804 35.8698 105.699 35.7922 105.593 35.714C105.379 35.561 105.161 35.4289 104.943 35.3018C104.505 35.0491 104.065 34.8193 103.627 34.5859C103.191 34.354 102.756 34.1199 102.346 33.865C102.142 33.7372 101.942 33.6029 101.77 33.4579C101.686 33.3847 101.604 33.3085 101.551 33.2346C101.543 33.226 101.541 33.2195 101.536 33.2102C102.107 33.2856 102.679 33.3638 103.252 33.4299C105.04 33.613 106.83 33.7961 108.593 33.9756C110.341 34.2003 112.084 34.3791 113.725 34.7051C115.37 35.0361 116.876 35.6774 118.301 36.2654C119.729 36.8449 121.045 37.4969 122.209 38.1647C123.362 38.8619 124.381 39.5627 125.299 40.1637C126.215 40.7625 127.038 41.2537 127.741 41.6098C128.128 41.8296 128.477 41.9918 128.78 42.1261C128.783 42.1211 128.783 42.1168 128.785 42.1125C128.484 41.9739 128.136 41.808 127.753 41.5854C127.054 41.2214 126.24 40.7223 125.331 40.1134C124.421 39.5038 123.408 38.7908 122.261 38.0785C121.091 37.3913 119.79 36.73 118.36 36.129C116.941 35.523 115.435 34.8581 113.771 34.5005C113.306 34.4036 112.828 34.3353 112.352 34.2571C112.031 34.0955 111.407 33.7623 111.077 33.4593C110.613 33.0443 109.947 32.4196 109.176 31.6549C108.789 31.2729 108.38 30.8514 107.959 30.3976C107.539 29.9373 107.126 29.4649 106.872 28.8588C106.597 28.2628 106.479 27.575 106.256 26.8727C106.046 26.1662 105.634 25.4934 105.114 24.9656C103.108 22.8696 101.312 20.5539 100.406 18.5657C99.9423 17.5812 99.7111 16.693 99.6306 16.0633C99.5739 15.7502 99.5782 15.4996 99.5732 15.3287C99.571 15.2591 99.5689 15.137 99.5667 15.0185C99.7793 15.2691 99.9968 15.5197 100.231 15.7632C100.482 16.0547 100.734 16.3491 100.988 16.6449C101.192 16.9644 101.451 17.2761 101.616 17.6057C101.758 17.9474 101.822 18.3359 101.939 18.7373C101.998 18.9362 102.053 19.1408 102.178 19.3397C102.271 19.5458 102.533 19.7224 102.728 19.7583C103.231 19.8524 103.612 19.7275 104.016 19.693C104.211 19.6657 104.415 19.6722 104.558 19.7045L105.132 19.9321C105.32 20.0133 105.523 20.0728 105.699 20.1712L106.217 20.485C106.567 20.6839 106.894 20.918 107.236 21.1607C108.593 22.1028 109.762 23.2581 110.933 24.3976C112.098 25.535 113.327 26.6063 114.689 27.3739C116.04 28.1638 117.478 28.6298 118.705 29.3492C120 29.9395 121.056 30.7861 122.032 31.5465C123.966 33.1025 125.556 34.4272 126.734 35.2738C126.756 35.2896 126.774 35.3011 126.796 35.3169L126.799 35.3183C126.714 35.1424 126.632 34.9651 126.555 34.7863L126.549 34.7827C125.335 33.9253 123.633 32.7549 122.084 31.4826C121.112 30.7092 120.063 29.849 118.764 29.2415C117.539 28.5063 116.095 28.0223 114.774 27.2281C113.436 26.4577 112.236 25.39 111.084 24.2432C109.936 23.1016 108.748 21.9067 107.391 20.9446C107.062 20.7054 106.717 20.4541 106.349 20.2409C106.003 20.014 105.646 19.805 105.267 19.6729L105.295 19.6765C105.295 19.6765 105.302 19.3871 105.391 18.9211C105.473 18.4422 105.672 17.76 105.883 16.9156C105.984 16.4927 106.086 16.026 106.127 15.5154C106.148 15.2577 106.151 15.0006 106.117 14.7127C106.086 14.4613 106.031 14.1949 105.945 13.9149C105.599 12.8709 105.13 11.8405 105.289 10.6988C105.34 9.71651 105.513 8.76008 105.72 7.84673C105.658 7.83308 105.593 7.8216 105.532 7.80939C105.433 8.18852 105.338 8.57339 105.263 8.97406C105.151 9.53485 105.061 10.1064 105.022 10.6773C104.935 11.2488 104.983 11.8656 105.116 12.4243C105.246 12.9879 105.453 13.5135 105.592 14.0154C105.658 14.2538 105.705 14.5037 105.73 14.7679C105.751 14.9941 105.744 15.2469 105.718 15.4781C105.666 15.9498 105.56 16.395 105.448 16.8036C105.219 17.6229 104.997 18.3136 104.894 18.822C104.829 19.1286 104.799 19.3426 104.784 19.4762L104.671 19.4295C104.415 19.3605 104.202 19.372 103.989 19.3929C103.583 19.4352 103.145 19.52 102.842 19.4632C102.462 19.4015 102.376 19.0224 102.256 18.6482C102.15 18.2741 102.089 17.862 101.926 17.4649C101.739 17.08 101.485 16.7742 101.267 16.4288C101.01 16.1243 100.757 15.8228 100.503 15.5226C99.4533 14.4089 98.6297 13.1344 97.6582 12.0717C97.1807 11.5382 96.7111 11.0212 96.2199 10.5609C95.7453 10.0827 95.2721 9.63609 94.8018 9.22824C93.8813 8.38598 92.9887 7.67152 92.2054 7.03318C92.1228 6.96712 92.0524 6.91255 91.972 6.84937C91.7717 6.8824 91.5606 6.92045 91.3358 6.96928C91.5254 7.11576 91.702 7.25147 91.9059 7.40944C92.6929 8.03629 93.5854 8.73782 94.5045 9.56213C94.9763 9.9628 95.4488 10.3994 95.922 10.8661C96.4138 11.3163 96.8791 11.8204 97.3545 12.3424C97.8492 12.8723 98.308 13.4625 98.7877 14.0643C98.7668 14.0779 98.708 14.1167 98.5938 14.1949C98.4538 14.2869 98.2728 14.391 98.0043 14.5116C97.4815 14.7435 96.635 14.8922 95.6742 14.5303C94.7092 14.1935 93.7132 13.4518 92.6175 12.6985C91.5189 11.908 90.1805 11.3795 88.939 10.7175C88.3093 10.3958 87.6788 10.0741 87.0592 9.75672C86.8588 9.65907 86.6642 9.55926 86.4682 9.46017C86.4352 9.51905 86.4122 9.58511 86.3856 9.64758C86.5752 9.74882 86.7633 9.85079 86.9579 9.95131C87.5704 10.283 88.1929 10.6198 88.8176 10.958C90.0548 11.6538 91.3609 12.2074 92.4086 13.0001C93.4785 13.7663 94.4729 14.5561 95.5198 14.9518C96.0361 15.1535 96.5596 15.2426 97.0249 15.2282C97.4902 15.2153 97.888 15.1018 98.1953 14.9819C98.4969 14.8577 98.741 14.7227 98.8803 14.6337C99.0031 14.6143 99.0964 14.5927 99.1725 14.5734C99.2393 15.2225 99.5689 17.3127 100.009 18.3101C100.869 20.3335 102.939 23.0118 104.9 25.1666C105.385 25.6937 105.733 26.3062 105.916 26.9797C106.108 27.6468 106.209 28.367 106.489 29.0247C106.741 29.6975 107.207 30.2396 107.62 30.7056C108.044 31.1752 108.453 31.6053 108.837 31.9952C109.607 32.7793 110.259 33.4083 110.739 33.8485C110.823 33.9275 110.883 33.9756 110.947 34.0273C110.181 33.9189 109.408 33.8176 108.625 33.7121C106.865 33.5211 105.077 33.3286 103.291 33.1355C103.138 33.1161 102.985 33.0931 102.832 33.0745C102.491 32.7126 101.262 31.4186 99.5366 29.6013C98.5141 28.5257 97.32 27.2755 96.0124 25.9608C95.3576 25.3024 94.6769 24.6281 93.9646 23.9596C93.6178 23.6178 93.2523 23.2911 92.8839 22.9637C92.5206 22.642 92.1601 22.2794 91.7293 22.0116C90.9007 21.4522 89.9708 21.0465 89.6814 20.1052C89.326 19.2291 89.2154 18.2706 88.9871 17.3601C88.8715 16.8998 88.7394 16.4611 88.5182 16.0252C88.3164 15.6124 87.9825 15.2591 87.6996 14.9525C87.108 14.3285 86.5199 13.7785 85.9828 13.268C85.3883 12.7072 84.8734 12.2189 84.4124 11.7744C84.3141 11.903 84.2135 12.03 84.1166 12.1629C84.5783 12.593 85.0896 13.0626 85.6755 13.5975C86.2198 14.0987 86.8143 14.6373 87.4017 15.2375C87.6946 15.5485 87.9797 15.8321 88.1807 16.2234C88.3703 16.5796 88.5175 17.0147 88.6331 17.4513C88.8751 18.3316 89.0007 19.2966 89.3957 20.2265C89.5967 20.6839 89.8782 21.1406 90.3313 21.43C90.7441 21.7193 91.1764 21.9599 91.5907 22.2234C92.0079 22.4711 92.354 22.81 92.7331 23.1346C93.1065 23.4563 93.4763 23.778 93.8274 24.1118C94.544 24.766 95.2341 25.428 95.8997 26.075C97.1764 27.3186 100.657 31.6707 101.844 32.9438C100.549 32.7707 99.2594 32.5776 98.0057 32.3047C97.1527 32.1101 96.2932 31.8926 95.5407 31.5378C95.1522 31.3562 94.8427 31.1142 94.5656 30.804C94.2891 30.4974 94.0371 30.1269 93.6134 29.872L93.332 29.7262C93.2063 29.6652 93.0965 29.6379 92.9765 29.6178C92.741 29.5812 92.5199 29.5955 92.3123 29.6085C91.8959 29.6386 91.5218 29.6523 91.2224 29.4663C90.5855 29.0836 90.2372 28.3591 89.843 27.6884C89.4574 27.0084 88.888 26.3658 88.1829 26.0491C87.4928 25.731 86.8078 25.5235 86.1336 25.3821C85.1133 25.1753 84.1683 25.0884 83.2923 25.008C83.3483 25.1717 83.4043 25.3347 83.4596 25.4977C84.2746 25.5666 85.1369 25.6449 86.0424 25.8208C86.6886 25.9493 87.3586 26.1504 87.9904 26.434C88.6266 26.7169 89.107 27.249 89.4919 27.9002C89.8818 28.5357 90.243 29.3349 91.0328 29.8066C91.4421 30.0536 91.9418 30.0199 92.3382 29.9869C92.5428 29.9718 92.7389 29.961 92.9191 29.9869C93.006 29.9991 93.1008 30.0256 93.1632 30.0558L93.444 30.198C93.7542 30.3796 94.0112 30.715 94.3042 31.0431C94.5957 31.372 94.9856 31.6635 95.3849 31.8452C96.2077 32.2257 97.0665 32.4325 97.9361 32.6264C98.932 32.8368 99.943 32.9969 100.959 33.1384V33.152C100.968 33.213 100.984 33.2762 101.004 33.3344C101.043 33.4191 101.086 33.4945 101.134 33.5534C101.229 33.6798 101.333 33.771 101.436 33.8607C101.645 34.033 101.859 34.1738 102.076 34.3095C102.51 34.5737 102.953 34.8078 103.394 35.0383C103.834 35.2702 104.275 35.4957 104.699 35.7377C104.91 35.8583 105.118 35.984 105.307 36.119C105.402 36.1865 105.496 36.2561 105.57 36.3301C105.59 36.3487 105.607 36.3688 105.626 36.3897C105.445 36.3688 105.208 36.3509 104.903 36.3523C104.212 36.3451 103.227 36.4241 102.062 36.628C101.628 36.6984 101.164 36.7925 100.686 36.8966C98.5945 37.3497 96.1345 38.0663 93.6465 38.6508C92.1214 38.9947 90.5553 39.157 89.1013 39.083C88.3825 39.0242 87.7183 38.9538 87.0692 38.7829C87.0577 38.78 87.0469 38.7779 87.0347 38.7757C86.698 38.7003 86.4086 38.6228 86.1357 38.4942C86.0963 38.4763 86.0611 38.4526 86.0252 38.4303C86.0201 38.4268 86.0151 38.4239 86.0101 38.421C86.0122 38.5783 86.0079 38.7384 86.0029 38.8971C86.0094 38.8992 86.0158 38.9014 86.0216 38.9035C86.0374 38.9107 86.0553 38.9143 86.0718 38.9208C86.3526 39.0328 86.657 39.1118 86.9443 39.1699C87.5955 39.33 88.3473 39.4004 89.0862 39.4406C90.5819 39.4859 92.1709 39.2841 93.7068 38.9035C94.4004 38.7255 95.0912 38.5366 95.7712 38.3463C95.8444 38.3722 95.9492 38.4095 96.0957 38.4612C96.3628 38.5682 96.7427 38.7283 97.1742 38.9646C97.6101 39.1936 98.0983 39.506 98.5809 39.8772C98.8293 40.0538 99.044 40.2865 99.3104 40.494C99.5833 40.6994 99.8863 40.8559 100.193 40.9902C100.494 41.1201 100.797 41.2508 101.094 41.3786C101.373 41.5014 101.666 41.6701 101.983 41.7707C102.588 41.9732 103.158 42.0909 103.649 42.1871C103.767 42.2101 103.885 42.2309 103.997 42.2467C102.784 42.5189 101.557 42.7723 100.318 42.9748C97.4025 43.4653 94.1908 43.8508 91.4378 44.1941C89.4172 44.4296 87.7599 44.691 86.0388 44.9416C86.0359 44.9782 86.0352 45.0141 86.0323 45.05C87.7858 44.8166 89.6994 44.5567 91.7315 44.3441C91.8061 44.3362 91.8837 44.3269 91.9576 44.3183C92.3461 44.4282 93.1431 44.64 94.1003 44.8224C95.443 45.0844 97.3738 45.4284 99.6019 46.1235C100.703 46.4853 101.912 46.9155 102.982 47.6672C103.505 48.0457 103.999 48.5203 104.2 49.1493C104.443 49.8077 104.523 50.492 104.674 51.2338C104.811 51.9583 105.098 52.7373 105.594 53.3312C106.1 53.9516 106.711 54.4305 107.35 54.8793C108.615 55.7668 110.032 56.5128 110.97 57.7414C111.852 59.0288 112.966 60.2036 114.155 61.1858C115.34 62.1846 116.568 63.08 117.71 64.0027C117.9 64.1564 118.074 64.3172 118.26 64.473C117.96 64.3862 117.574 64.2892 117.083 64.2339C115.945 64.0745 114.33 64.1269 112.423 64.2447C111.475 64.2871 110.427 64.3847 109.378 64.2799C108.311 64.188 107.294 63.6889 106.302 63.0319C105.691 62.6356 105.036 62.2098 104.323 61.8831C104.016 61.6239 103.658 61.3108 103.599 61.216C103.502 61.0437 103.319 60.801 103.169 60.4743C103.013 60.1555 102.808 59.7562 102.553 59.2823C102.287 58.8206 101.908 58.3058 101.472 57.8498C101.365 57.7306 101.248 57.6007 101.07 57.4714C100.762 57.3199 100.555 57.4671 100.408 57.4922C100.084 57.5877 99.7685 57.6165 99.3872 57.6667C98.6247 57.7493 97.8959 58.1054 97.1828 57.9159C96.4655 57.745 95.9614 57.0442 95.489 56.3721C95.247 56.031 95.0136 55.677 94.7451 55.3352C94.4794 54.9812 94.1405 54.6926 93.8288 54.414C93.1912 53.846 92.5795 53.2522 91.8887 52.7582C91.2159 52.2469 90.5747 51.717 89.8818 51.3077C89.1996 50.887 88.5757 50.4195 87.9 50.1165C87.2394 49.7977 86.6398 49.4394 86.0381 49.2096C86.0065 49.1974 85.9763 49.1881 85.9455 49.1787C85.9462 49.2067 85.9455 49.2355 85.9476 49.2642C85.9663 49.2706 85.9864 49.2778 86.0072 49.2864C86.5982 49.5248 87.1913 49.8946 87.8418 50.2242C88.5053 50.5373 89.1171 51.0155 89.7884 51.4456C90.4691 51.8664 91.0938 52.4035 91.7494 52.9219C92.4215 53.4202 93.0239 54.0284 93.6501 54.6086C94.33 55.1557 94.7558 55.8343 95.2298 56.5509C95.6972 57.2251 96.2034 58.02 97.0895 58.2641C97.9734 58.4982 98.751 58.1148 99.4339 58.0695C99.7807 58.03 100.178 57.9999 100.52 57.9022C100.697 57.8498 100.838 57.8197 100.842 57.8455C100.929 57.9166 101.034 58.0257 101.14 58.1485C101.576 58.6289 101.885 59.0748 102.132 59.515C102.361 59.9623 102.562 60.373 102.729 60.727C102.884 61.0803 103.051 61.3086 103.148 61.486C103.076 61.4709 103.01 61.4415 102.937 61.4293C101.636 61.1794 100.361 61.57 99.1144 61.6633C97.8635 61.7897 96.579 61.6734 95.4689 61.1083C94.338 60.5942 93.2954 59.8682 92.0955 59.6026C90.9071 59.3275 89.7339 59.408 88.6431 59.4353C88.1506 59.451 87.6781 59.4661 87.2114 59.4783C87.2336 59.515 87.2537 59.5509 87.276 59.586C87.7233 59.5789 88.175 59.5717 88.6453 59.5638C89.7382 59.5509 90.9057 59.4905 92.0538 59.7727C93.207 60.042 94.2317 60.7751 95.3698 61.3122C96.5064 61.9125 97.8635 62.054 99.1388 61.9405C100.421 61.8558 101.681 61.4982 102.879 61.7538C104.089 61.9678 105.101 62.6844 106.092 63.3507C107.074 64.0243 108.188 64.593 109.323 64.7035C110.454 64.8285 111.487 64.7344 112.446 64.7035C114.353 64.6059 115.939 64.575 117.016 64.738C117.562 64.8077 117.957 64.9197 118.219 65.0015C118.435 65.087 119.138 65.3684 119.439 65.4912C119.929 65.9386 120.402 66.3888 120.842 66.8404C121.786 67.7969 122.602 69.2358 123.347 70.1456C123.363 70.165 123.375 70.1829 123.391 70.2023C123.58 70.4393 123.738 70.6654 123.888 70.8873C123.903 70.8801 123.914 70.8737 123.929 70.8665C124.043 70.8069 124.153 70.7473 124.26 70.6899C124.102 70.4845 123.942 70.2777 123.779 70.0673C123.665 69.9201 123.551 69.7729 123.429 69.6185C122.693 68.6987 121.871 67.7243 120.931 66.7521C119.995 65.7727 118.953 64.812 117.814 63.8699C116.679 62.9336 115.459 62.0224 114.294 61.0193C114.144 60.8943 114.007 60.76 113.862 60.6315C113.574 60.2373 113.113 59.6069 112.901 59.3074C112.619 58.8587 112.213 58.2024 111.836 57.3422C111.45 56.4906 111.055 55.458 110.563 54.3774C110.396 54.0112 110.213 53.6457 110.018 53.2788C110.11 53.3233 110.22 53.3757 110.364 53.4439C111.071 53.7878 112.109 54.1899 113.347 54.6567C114.571 55.1414 116.042 55.6533 117.408 56.5336C118.087 56.9673 118.653 57.5928 119.195 58.2648C119.729 58.9412 120.389 59.6219 121.201 60.0262C121.976 60.4491 122.76 60.8599 123.558 61.2174C124.344 61.6002 125.138 61.9147 125.897 62.2493C126.929 62.6858 127.917 63.0894 128.818 63.4807C129.251 63.6681 129.666 63.8527 130.054 64.0358C130.079 64.0472 130.1 64.058 130.125 64.0695C130.137 64.0422 130.14 64.0157 130.151 63.9884C130.13 63.9783 130.112 63.969 130.091 63.9582C129.709 63.7694 129.3 63.5776 128.876 63.3838C127.976 62.9731 126.993 62.5487 125.967 62.0899C125.217 61.7416 124.425 61.4113 123.656 61.0178C122.874 60.6488 122.1 60.2244 121.333 59.7849C120.561 59.3792 119.976 58.751 119.446 58.0588C118.912 57.3723 118.333 56.6974 117.615 56.2242C116.205 55.2814 114.733 54.7436 113.51 54.2352C112.279 53.7462 111.262 53.3297 110.585 52.9872C109.921 52.6576 109.433 52.3087 109.433 52.3087L109.441 52.346C109.166 51.9597 108.865 51.5892 108.528 51.2539C108.075 50.8195 107.622 50.3836 107.177 49.9556C106.807 49.5105 106.627 48.9016 106.471 48.3472C106.175 47.212 106.038 46.1148 105.929 45.1792C105.823 44.2415 105.762 43.4574 105.716 42.9073C105.694 42.6381 105.677 42.427 105.664 42.279C106.021 42.274 106.352 42.3487 106.631 42.6086C107.168 43.0524 107.825 43.4495 108.356 43.8236C109.428 44.6199 110.236 45.8183 111.542 46.2994C112.846 46.7891 114.139 46.3977 115.186 46.1723C116.256 45.9181 117.239 45.8614 118.037 46.183C118.843 46.4882 119.496 46.9241 120.048 47.2587C120.598 47.6026 121.046 47.864 121.374 48.022C121.575 48.1196 122.041 48.4679 122.267 48.6086C122.643 49.1967 123.039 49.7711 123.483 50.3082C124.461 51.5274 125.586 52.6059 126.704 53.6852C127.26 54.2266 127.848 54.7407 128.32 55.3517C128.792 55.9413 129.218 56.571 129.638 57.2029C129.647 57.2179 129.657 57.2316 129.667 57.2459C130.01 57.75 130.349 58.2634 130.708 58.7632C130.709 58.766 130.711 58.7682 130.713 58.7703C130.713 58.7495 130.714 58.7294 130.715 58.7072L130.712 58.7L130.713 58.7014ZM106.303 48.3896C106.454 48.9633 106.601 49.5722 107.013 50.1028C107.453 50.5423 107.899 50.9882 108.346 51.4341C108.779 51.8822 109.162 52.3668 109.474 52.8917C109.773 53.4123 110.035 53.9717 110.262 54.5073C110.716 55.5916 111.076 56.6313 111.441 57.5123C111.635 57.9977 111.876 58.4264 112.105 58.8027C111.783 58.4113 111.47 58.0085 111.181 57.5791C110.204 56.2766 108.764 55.5076 107.531 54.6186C106.91 54.1777 106.316 53.6888 105.869 53.1301C105.397 52.5442 105.165 51.875 105.03 51.1605C104.896 50.4619 104.808 49.6979 104.566 49.0229C104.334 48.2826 103.772 47.7412 103.22 47.3348C102.084 46.5212 100.857 46.0775 99.7369 45.6955C97.4765 44.9674 95.5385 44.6019 94.1936 44.3255C93.7951 44.2451 93.5036 44.1984 93.2817 44.1675C95.5794 43.904 97.9712 43.616 100.359 43.2405C101.824 43.0172 103.283 42.7321 104.704 42.4184C104.836 42.3903 104.965 42.3666 105.094 42.343C105.146 42.8305 105.439 42.9303 105.516 43.8315C105.6 44.7714 106.036 47.2292 106.304 48.3896H106.303ZM121.6 47.5502C121.302 47.4095 120.867 47.1639 120.317 46.825C119.761 46.4976 119.092 46.0531 118.203 45.7264C117.301 45.3674 116.164 45.4571 115.089 45.7314C114.015 45.9798 112.835 46.3346 111.686 45.9131C110.531 45.5167 109.718 44.375 108.575 43.5299C107.968 43.1127 107.407 42.791 106.834 42.3315C106.557 42.1067 106.138 41.9179 105.743 41.9408C105.725 41.9408 105.708 41.9459 105.69 41.9466C105.286 41.9164 104.431 41.8475 103.721 41.7398C103.237 41.668 102.669 41.5746 102.093 41.4109C101.814 41.3377 101.544 41.1984 101.221 41.0742C100.915 40.9622 100.605 40.8473 100.296 40.7338C99.9897 40.6189 99.696 40.4847 99.4404 40.3116C99.1847 40.1364 98.9485 39.9066 98.6843 39.7386C98.1658 39.3817 97.6611 39.096 97.2094 38.8885C96.7621 38.6723 96.3729 38.5309 96.0993 38.4382C95.9614 38.3966 95.8516 38.3657 95.7776 38.3427C97.7745 37.7863 99.6795 37.219 101.317 36.8621C101.576 36.8061 101.83 36.753 102.074 36.7085C103.23 36.4809 104.365 36.7135 105.053 36.7063C105.397 36.6977 105.629 36.702 105.814 36.7228C105.847 36.725 105.867 36.7085 105.888 36.6934L105.95 36.6955C106.705 36.725 107.464 36.7839 108.2 36.9835C108.942 37.1551 109.665 37.4122 110.368 37.7159C110.599 37.8171 110.824 37.9299 111.05 38.0404C112.203 38.6012 113.31 39.2705 114.363 40.0151C115.627 40.9047 116.839 41.8712 118.026 42.8686C118.617 43.3461 119.194 43.8968 119.673 44.472C120.147 45.0722 120.577 45.7113 120.956 46.3877C121.179 46.7819 121.406 47.179 121.637 47.5732C121.622 47.566 121.615 47.556 121.601 47.5495L121.6 47.5502ZM49.0524 79.3739C49.0337 78.5646 49.0136 77.6886 48.9907 76.7624C48.982 75.9057 49.0129 74.955 48.7523 74.0115C48.6137 73.9527 48.4737 73.8966 48.3301 73.8435C48.3372 73.8701 48.3451 73.8959 48.3523 73.9232C48.6395 74.8603 48.59 75.8346 48.5842 76.7631C48.5914 77.6908 48.5993 78.5675 48.6065 79.3775C48.6144 80.186 48.623 80.9277 48.6288 81.5862C48.6367 81.9114 48.6288 82.2145 48.6223 82.4974V82.5038C48.7874 82.4636 48.9526 82.4191 49.1163 82.3818V82.3789C49.117 82.1276 49.1192 81.8655 49.1084 81.5819C49.0919 80.9241 49.0732 80.1824 49.0524 79.3739ZM55.4135 77.6226C55.3942 77.9005 55.364 78.1704 55.3303 78.4347C55.257 79.0062 55.1637 79.5433 55.1062 80.0237C55.0502 80.3454 54.9497 80.6836 54.8872 80.9608C54.8255 81.1869 54.7903 81.383 54.758 81.5603C54.758 81.5603 54.758 81.5608 54.758 81.5618C54.9274 81.5539 55.0962 81.5596 55.2663 81.5567C55.2663 81.5524 55.2678 81.5481 55.2685 81.5438C55.2915 81.3887 55.3173 81.2243 55.3618 81.0397C55.415 80.754 55.4976 80.4624 55.5493 80.084C55.5837 79.679 55.6412 79.236 55.6907 78.7678C55.7281 78.416 55.7611 78.0498 55.774 77.6656C55.7927 77.2837 55.8099 76.8866 55.8228 76.4845C55.7194 76.4414 55.6153 76.3983 55.5105 76.3581C55.4818 76.7875 55.4487 77.2111 55.4143 77.6226H55.4135ZM37.0625 75.6961C37.0532 75.1992 36.9821 74.6865 36.8974 74.1666C36.822 73.6547 36.7444 73.1326 36.6669 72.607C36.552 72.6099 36.4378 72.6142 36.3244 72.6171C36.3976 73.1542 36.468 73.687 36.5369 74.2104C36.6195 74.7597 36.692 75.3026 36.682 75.854C36.697 76.119 36.6956 76.366 36.6755 76.6051C36.654 76.8686 36.6094 77.1235 36.5333 77.382C36.3538 78.057 36.0393 78.6573 35.7047 79.2188C35.6975 79.2066 35.6896 79.1893 35.6817 79.1757C35.5999 79.0321 35.5094 78.8174 35.4297 78.523C35.3356 78.1633 35.2502 77.703 35.2049 77.1788C35.1906 76.9081 35.1741 76.6195 35.1576 76.315C35.1188 75.9876 35.0606 75.6465 34.9242 75.3148C34.6851 74.7023 34.2794 74.163 33.8672 73.6094C33.7322 73.4285 33.5965 73.2447 33.4658 73.0573C33.4271 73.0774 33.3825 73.091 33.3459 73.1118C33.2634 73.1599 33.1865 73.2066 33.1104 73.2533C33.2088 73.4012 33.3086 73.5448 33.407 73.6834C33.5563 73.8945 33.7035 74.0991 33.8435 74.3002C34.1207 74.6987 34.3634 75.0836 34.4998 75.4749C34.7282 76.0601 34.6944 76.6388 34.7195 77.2147C34.7583 77.7755 34.8402 78.2544 34.9386 78.6515C35.0376 79.0479 35.1597 79.3602 35.3019 79.5735C35.3421 79.6295 35.3766 79.669 35.4067 79.7049C35.3586 79.7824 35.3098 79.8621 35.2617 79.9383C34.7992 80.6577 34.3979 81.3406 34.0762 81.9782C33.7322 82.6604 33.4809 83.2908 33.3538 83.8523C33.5283 83.8301 33.71 83.8171 33.8909 83.8042C33.9541 83.545 34.0482 83.2657 34.1645 82.9691C34.4058 82.3552 34.7569 81.6644 35.1927 80.917C35.3349 80.6743 35.4814 80.4272 35.6408 80.1738C36.1118 79.4055 36.6597 78.5388 36.9275 77.4861C37.0776 76.9785 37.1063 76.3775 37.0668 75.8469C37.0668 75.7966 37.0632 75.7463 37.0618 75.6968L37.0625 75.6961ZM22.0583 70.2612C21.97 71.502 21.542 72.6444 21.0523 73.7265C20.8046 74.26 20.577 74.8294 20.3996 75.3837C20.2424 75.9301 20.0894 76.4672 19.9408 76.9885C19.5774 78.0132 19.1294 78.9301 18.7388 79.8248C18.4566 80.5371 18.216 81.1905 17.9949 81.8023C18.048 81.8396 18.1069 81.8741 18.1586 81.9129C18.2376 81.9718 18.3158 82.0364 18.3941 82.0974C18.3941 82.0974 18.3941 82.0953 18.3941 82.0945C18.6181 81.4454 18.8652 80.7482 19.1531 79.9921C19.5143 79.1312 19.9652 78.1776 20.3199 77.1336C20.4657 76.6008 20.6143 76.0544 20.7672 75.4943C20.9346 74.9543 21.1356 74.4244 21.3826 73.8737C21.8601 72.7851 22.3003 71.5666 22.3699 70.2892C22.3699 70.2791 22.3699 70.2691 22.3699 70.259C22.2651 70.0802 22.1646 69.8964 22.0698 69.7054C22.0662 69.8907 22.0626 70.0788 22.0576 70.2612H22.0583ZM27.5693 73.1865C27.5197 73.1843 27.4695 73.1808 27.4185 73.1757C27.4336 73.3919 27.4486 73.608 27.4652 73.8291C27.4652 74.1106 27.4465 74.4 27.4386 74.6901C27.4135 74.9565 27.323 75.2494 27.2533 75.5309C27.081 76.0874 26.9173 76.7186 26.8835 77.3109C26.8699 77.9342 26.9338 78.5144 26.8785 79.1139C26.8598 79.4062 26.8433 79.6934 26.8268 79.9785C26.7421 80.2535 26.6574 80.5242 26.5748 80.7906C26.4175 81.332 26.2194 81.8246 26.0923 82.3652C26.0607 82.6316 26.0312 82.8916 26.0018 83.1422C25.9903 83.392 25.9982 83.6311 25.9968 83.8631C25.9946 84.3269 26.0341 84.7298 26.042 85.0996C26.042 85.1326 26.0441 85.1591 26.0441 85.1915C26.2043 85.1836 26.3644 85.1656 26.526 85.1534C26.5238 85.1304 26.5216 85.1089 26.5216 85.0845C26.503 84.7183 26.4534 84.2946 26.4434 83.8516C26.4391 83.6297 26.4247 83.3971 26.429 83.1594C26.4498 82.9253 26.4728 82.6826 26.4936 82.4327C26.5899 81.9646 26.7823 81.4253 26.9266 80.8767C27.0035 80.6003 27.0817 80.3174 27.1614 80.0338C27.1708 79.7379 27.1808 79.4371 27.1916 79.134C27.2325 78.5467 27.1542 77.9177 27.1478 77.3354C27.17 76.7164 27.3014 76.17 27.4623 75.5862C27.5255 75.2911 27.6088 75.011 27.6296 74.6987C27.6296 74.4072 27.6425 74.1192 27.6339 73.8363C27.6124 73.6159 27.5915 73.4012 27.5707 73.1865H27.5693ZM20.8714 51.2029C21.0243 50.7347 21.1945 50.3197 21.3575 49.947C21.3388 49.9449 21.3223 49.9427 21.3043 49.9406C21.1349 50.3068 20.9561 50.7146 20.7945 51.1742C20.4104 52.1687 20.009 53.3455 19.5602 54.5935C19.1035 55.835 18.4006 57.065 17.6955 58.2957C17.3415 58.9147 17.0025 59.5351 16.6945 60.1756C16.3908 60.8541 16.3542 61.575 16.3046 62.2356C16.2608 62.8977 16.222 63.5331 16.0318 64.0738C15.8644 64.6174 15.4616 64.9936 15.094 65.3842C14.3566 66.1446 13.7441 66.8117 13.3793 67.3488C13.3355 67.4163 13.3039 67.4702 13.2651 67.5326L13.2838 66.7564C13.2716 65.9163 13.2364 65.0805 13.1919 64.2476C13.1495 63.4168 13.1158 62.576 13.123 61.7581C13.1955 60.9281 13.1847 60.0836 13.3233 59.2665C13.482 58.4537 13.561 57.6244 13.8065 56.8252C14.0133 56.0181 14.2208 55.2117 14.5052 54.4276C14.9741 52.947 15.5629 51.5081 16.1438 50.0662C16.1143 50.0734 16.0856 50.0813 16.059 50.0892C15.4667 51.5073 14.8649 52.924 14.3817 54.386C14.0866 55.1701 13.8669 55.9772 13.6486 56.7857C13.3922 57.5849 13.2989 58.425 13.1301 59.2478C12.9794 60.0757 12.9794 60.9108 12.8968 61.743C12.876 62.5932 12.9004 63.4218 12.932 64.2591C12.965 65.0942 12.9901 65.9271 12.9916 66.7557L12.9442 67.9979L12.9241 68.1695C12.9032 68.2126 12.8903 68.2385 12.8903 68.2385L12.8997 68.3806L12.802 69.2265L12.537 70.4184L12.1127 71.596L11.1196 73.8859C10.785 74.6535 10.487 75.4397 10.2048 76.2303L9.81206 77.4308L9.60742 78.2523V78.2566C9.75031 78.3011 9.89464 78.3435 10.0397 78.3902V78.3887L10.2364 77.5515L10.6048 76.3667C10.8755 75.5833 11.1584 74.8035 11.4808 74.0352L12.4502 71.7167L12.8616 70.5319L13.1258 69.2775L13.151 69.0362C13.2809 68.7052 13.4382 68.3081 13.4777 68.2219C13.5373 68.0575 13.6557 67.8701 13.8022 67.6281C14.1239 67.1277 14.6969 66.4685 15.4221 65.6873C15.7675 65.3031 16.2321 64.8486 16.4181 64.2016C16.6184 63.5812 16.6392 62.9156 16.6679 62.2543C16.6988 61.5958 16.7247 60.9115 16.9839 60.3005C17.2675 59.6751 17.5935 59.0432 17.9288 58.4221C18.6031 57.1792 19.2866 55.9183 19.7189 54.6488C20.1404 53.3865 20.5123 52.2038 20.8728 51.2036L20.8714 51.2029ZM76.4687 54.9647C75.7708 55.845 74.9113 56.7541 74.0102 57.7371C72.9151 58.9312 71.7806 60.2732 71.0554 61.8981C70.7265 62.6851 70.4688 63.5776 70.4881 64.4501C70.5032 65.3203 70.6339 66.1576 70.7273 66.956C70.8263 67.7567 70.8263 68.5027 70.7129 69.2265C70.5492 69.9503 70.3948 70.6324 70.2526 71.2643C70.0975 71.8947 69.9676 72.4778 69.8807 73.0149C69.8419 73.2145 69.811 73.3955 69.7823 73.5757C69.8311 73.5836 69.8792 73.5958 69.9238 73.613C69.9295 73.6159 69.9353 73.618 69.941 73.6209C70.0264 73.6568 70.1004 73.7121 70.1535 73.7904C70.16 73.7997 70.1657 73.809 70.1715 73.8184C70.1952 73.8593 70.216 73.9038 70.2275 73.9555C70.2282 73.9577 70.2282 73.9591 70.2282 73.9613V73.9598C70.2591 73.6898 70.3007 73.4026 70.356 73.0831C70.4278 72.5747 70.5449 71.996 70.6885 71.3627C70.8199 70.7243 70.9628 70.0329 71.1136 69.3026C71.222 68.5537 71.2055 67.7222 71.0877 66.9137C70.9757 66.1044 70.8335 65.2823 70.8034 64.4486C70.7739 63.6042 70.9865 62.8029 71.3046 61.9886C71.7138 61.0236 72.2962 60.1411 72.9266 59.3182C72.923 59.413 72.9144 59.5279 72.9029 59.6923C72.8828 59.9515 72.8584 60.2667 72.829 60.6294C72.8024 60.9891 72.778 61.4336 72.8211 61.891C72.8563 62.3311 72.9453 62.8855 73.2023 63.3644C73.4594 63.8361 73.6741 64.2756 73.8687 64.8184C74.2442 65.8445 74.3728 67.0343 74.441 68.2284C74.5049 69.4311 74.6621 70.6238 74.8768 71.7339C75.0994 72.8347 75.3062 73.8643 75.4843 74.7468C75.5669 75.1554 75.6351 75.5288 75.6932 75.8677C75.7098 75.8684 75.7284 75.8705 75.7457 75.8713C75.6975 75.5259 75.6394 75.146 75.5669 74.731C75.4139 73.8457 75.2366 72.8117 75.0477 71.7045C74.8646 70.6023 74.7425 69.4082 74.7138 68.2141C74.6765 67.0178 74.5874 65.7942 74.2184 64.6899C74.0511 64.1672 73.8055 63.6193 73.5786 63.1813C73.3625 62.7383 73.3065 62.3081 73.2799 61.8551C73.2533 61.4171 73.2821 61.0343 73.3172 60.6681C73.3546 60.3019 73.3847 59.9831 73.4127 59.721C73.4479 59.3498 73.5492 58.7818 73.6073 58.4709C73.7854 58.2613 73.9606 58.0509 74.1387 57.8498C75.019 56.8525 75.8641 55.9212 76.5484 55.0229C76.5226 55.0013 76.496 54.9841 76.4709 54.9647H76.4687ZM65.9817 60.1454C66.3264 59.8201 66.6574 59.2988 66.9898 58.6526C67.649 57.3615 68.3082 55.5686 68.9149 53.7641C69.2438 52.779 69.5525 51.796 69.8347 50.8776C69.8347 50.8762 69.8347 50.874 69.8354 50.8726C69.7895 50.8439 69.7428 50.8151 69.6969 50.7864C69.6969 50.7886 69.6954 50.79 69.6947 50.7922C69.3773 51.7098 69.0305 52.6914 68.6636 53.6751C67.998 55.453 67.2771 57.2151 66.5935 58.4429C66.2546 59.0533 65.9156 59.5322 65.6428 59.767C65.5746 59.8266 65.5128 59.8582 65.4633 59.8984C65.4281 59.9013 65.418 59.9199 65.3893 59.9357C65.3757 59.9357 65.3692 59.9357 65.3577 59.9357C65.1244 59.0095 64.9197 58.0918 64.774 57.1964C64.6318 56.3197 64.5169 55.4659 64.4832 54.6552C64.43 53.8453 64.4444 53.0777 64.5119 52.3776C64.5284 52.0243 64.5844 51.6926 64.6404 51.3767C64.6856 51.0593 64.7452 50.7627 64.8285 50.4899C64.9535 49.9298 65.1402 49.4803 65.2831 49.1062C65.3879 48.8233 65.51 48.6064 65.6069 48.4226C65.446 48.3767 65.2859 48.3243 65.1265 48.2805C65.1186 48.2776 65.11 48.2747 65.1021 48.2726C65.1021 48.2726 65.1021 48.2726 65.1021 48.274C65.0145 48.4406 64.9176 48.6316 64.8249 48.8937C64.6742 49.3015 64.4817 49.7955 64.3618 50.3757C64.2814 50.6629 64.2232 50.9731 64.183 51.3034C64.1306 51.6323 64.0782 51.9784 64.0674 52.3417C64.0107 53.0669 64.0107 53.8561 64.0775 54.6818C64.1263 55.5104 64.2584 56.3742 64.4171 57.2603C64.7395 59.0339 65.2766 60.8771 65.846 62.7002C66.111 63.615 66.475 64.514 66.661 65.4209C66.9216 66.3321 66.9913 67.2418 67.0789 68.1279C67.1801 69.9093 67.1241 71.5838 67.1808 73.0163C67.1959 73.1901 67.2031 73.3509 67.211 73.5175C67.2383 73.5204 67.2605 73.5233 67.2864 73.5254C67.2792 73.3545 67.2763 73.1901 67.2627 73.0127C67.2318 71.5831 67.3173 69.9137 67.2462 68.1171C67.1737 67.2224 67.1133 66.2782 66.8714 65.372C66.6926 64.4321 66.3508 63.5461 66.0995 62.6234C65.8841 61.891 65.6801 61.1586 65.4877 60.4297C65.5581 60.4089 65.6299 60.3881 65.7146 60.3479C65.7936 60.2897 65.8934 60.2265 65.9795 60.1454H65.9817ZM82.5635 60.6509C82.3854 60.9058 82.1973 61.1722 81.9919 61.453C81.3184 62.4001 80.5307 63.5051 79.6863 64.6885C79.4881 64.9936 79.2878 65.3031 79.0831 65.6162C78.9158 65.9637 78.7471 66.3155 78.5769 66.6688C78.4642 67.0436 78.3751 67.4299 78.2753 67.8127C78.2301 68.2033 78.2236 68.5996 78.1978 68.9938C78.1734 69.7729 78.1971 70.5463 78.1935 71.3095C78.1971 72.0728 78.2006 72.8253 78.2028 73.552C78.2028 74.3928 78.2107 75.1956 78.2236 75.9531C78.261 75.9546 78.3012 75.9546 78.3392 75.9546C78.3435 75.197 78.3522 74.3935 78.3701 73.552C78.383 72.8253 78.396 72.0728 78.4089 71.3095C78.4275 70.547 78.4204 69.7665 78.4606 68.9981C78.4958 68.619 78.508 68.2356 78.559 67.8629C78.6652 67.501 78.755 67.137 78.8677 66.7844C79.035 66.4534 79.2023 66.126 79.3653 65.8029C79.5757 65.4934 79.7846 65.1875 79.9893 64.8866C80.8588 63.7191 81.671 62.6305 82.3653 61.6964C82.5383 61.4716 82.6992 61.2541 82.8514 61.0458C82.8514 61.0458 82.8514 61.0451 82.8528 61.0444C82.7581 60.9173 82.6618 60.7859 82.5649 60.6502L82.5635 60.6516V60.6509ZM60.9899 47.3168C60.488 48.0873 59.9552 48.9044 59.4281 49.7804C58.9391 50.5308 58.5212 51.358 58.0811 52.1909C57.8405 52.5973 57.6969 53.0576 57.5038 53.4956C57.3379 53.9429 57.1045 54.3766 56.9925 54.8398C56.7592 55.7546 56.4597 56.6837 56.3319 57.6172C56.1768 58.5406 56.0325 59.4503 55.6641 60.2316C55.3087 61.0157 54.7056 61.6102 54.0694 62.0899C53.747 62.3096 53.4102 62.5164 53.067 62.711C52.8975 62.8287 52.7281 62.9644 52.5651 63.0915C52.4014 63.2193 52.3238 63.3744 52.201 63.5101C51.7135 64.1356 51.5699 64.8357 51.4614 65.4137C51.3681 65.9967 51.3142 66.4994 51.2295 66.8921C51.2238 66.9201 51.218 66.9431 51.213 66.9661C51.2029 67.0099 51.1922 67.0508 51.1821 67.0975C51.2345 67.114 51.2862 67.1334 51.3379 67.1506C51.4492 67.188 51.5605 67.2267 51.6711 67.2655C51.6905 67.1758 51.7099 67.0824 51.7278 66.9876C51.8097 66.5618 51.8542 66.057 51.9353 65.4905C52.0251 64.9391 52.1615 64.3014 52.55 63.7887C52.6634 63.6573 52.7604 63.4764 52.8932 63.3795C53.0253 63.2797 53.1596 63.1777 53.296 63.0729C53.6206 62.8811 53.9588 62.6679 54.3085 62.4187C54.6603 62.1344 54.9576 61.9017 55.2527 61.5384C55.5607 61.1966 55.7941 60.801 55.9923 60.3831C56.3729 59.5308 56.5007 58.5887 56.6414 57.6674C56.6558 57.5432 56.6802 57.4204 56.7017 57.2984C56.8159 57.6315 57.2022 57.941 57.3523 58.3445C57.516 58.7646 57.6682 59.2277 57.8211 59.7196C57.9705 60.2122 58.1622 60.7206 58.2821 61.2706C58.4092 61.8177 58.5737 62.3749 58.6806 62.9544C58.7855 63.5338 58.8932 64.1226 59.0009 64.7114C59.0799 65.3053 59.1603 65.8984 59.2378 66.4828C59.2903 67.0702 59.3427 67.6475 59.3922 68.2069C59.4396 68.9809 59.477 69.6954 59.5014 70.3739C59.6148 70.4048 59.7635 70.4342 59.9286 70.4615C59.8855 69.7492 59.8252 68.9924 59.7512 68.1746C59.6852 67.613 59.617 67.0336 59.5488 66.4441C59.4533 65.8581 59.3585 65.2629 59.2615 64.6684C59.138 64.0781 59.0138 63.4886 58.8918 62.9077C58.7654 62.3282 58.5859 61.7718 58.443 61.2246C58.3087 60.676 58.0997 60.1691 57.9368 59.6794C57.7694 59.1882 57.6043 58.7301 57.4284 58.3151C57.2604 57.8965 57.1304 57.5059 57.0277 57.1569C56.981 56.8352 56.9035 56.5595 56.897 56.3154C57.0098 55.8493 57.1369 55.3826 57.2489 54.9051C57.3523 54.4384 57.5734 54.0212 57.7278 53.5767C57.9116 53.1438 58.0423 52.6928 58.2735 52.2828C58.6972 51.4513 59.0978 50.6213 59.5725 49.8645C60.0866 48.977 60.6079 48.1462 61.1019 47.3614C61.0768 47.3506 61.048 47.3391 61.0186 47.3269C61.0093 47.3247 61.0014 47.3211 60.9906 47.3168H60.9899ZM42.226 43.3188C41.8727 44.2056 41.6077 45.292 41.4074 46.4645C41.2028 47.6385 41.0749 48.9016 40.8904 50.1502C40.6779 51.414 40.708 52.6943 40.6362 53.8704C40.6068 54.4764 40.5608 55.0581 40.4926 55.6038C40.428 56.12 40.3433 56.6062 40.2312 57.042C40.0043 57.9396 39.6374 58.6145 39.2935 58.9886C39.1405 59.1588 39.002 59.2744 38.8928 59.3548C38.7111 58.835 38.5087 58.3151 38.2954 57.7952C37.9658 57.0133 37.6054 56.245 37.2384 55.5155C37.2025 55.4444 37.1666 55.3769 37.1315 55.3072C37.0417 55.132 36.9519 54.9561 36.8622 54.7852C36.5362 54.1584 36.2439 53.5502 36.0271 52.97C35.9194 52.6813 35.8282 52.3992 35.7643 52.1263C35.5676 51.3063 35.5984 50.5868 35.7025 50.1057C35.7119 50.0612 35.714 50.0404 35.7198 50.0052C35.7715 49.9212 35.8318 49.8379 35.8813 49.7532C36.6568 48.4607 37.102 47.1093 37.3275 45.9303C37.433 45.3422 37.4373 44.785 37.4661 44.3032C37.4869 43.8178 37.5199 43.397 37.5716 43.0524C37.6269 42.7106 37.6836 42.4399 37.759 42.269C37.787 42.1936 37.8057 42.1419 37.8222 42.0981H37.8201C37.8035 42.1419 37.7827 42.1936 37.754 42.2668C37.6729 42.4363 37.6118 42.7056 37.5472 43.0474C37.4869 43.3913 37.446 43.8157 37.4136 44.2989C37.3734 44.785 37.3591 45.3271 37.2384 45.9145C36.9907 47.0741 36.5182 48.4011 35.7255 49.6577C35.3407 50.2788 34.8804 50.8769 34.4388 51.5203C34.4316 51.5303 34.4244 51.5404 34.4172 51.5504C34.148 51.9626 33.8895 52.3884 33.6382 52.8178C33.4867 53.0763 33.3344 53.3355 33.1901 53.5983C32.7758 54.3537 32.3773 55.1083 31.9845 55.8544C31.8244 56.1595 31.6621 56.4661 31.5049 56.7641C31.4998 56.4389 31.4941 55.9542 31.4869 55.3166C31.4869 55.2749 31.4869 55.2376 31.4855 55.1945C31.469 53.9401 31.4474 52.3123 31.3117 50.6443C31.2938 50.4231 31.2744 50.2019 31.2514 49.9793C31.148 49.0301 30.9907 48.0952 30.7717 47.2285C30.557 46.3654 30.3481 45.5662 30.2031 44.8726C30.1693 44.7032 30.1391 44.5409 30.1126 44.3865C30.0918 44.3987 30.0695 44.4095 30.0487 44.4231C30.0673 44.5718 30.0896 44.7269 30.1169 44.8884C30.2368 45.5899 30.4185 46.4006 30.6008 47.2673C30.7847 48.1297 30.9075 49.0696 30.9785 50.0052C30.9929 50.2156 31.0044 50.4252 31.0144 50.6356C31.0884 52.1514 31.0661 53.6342 31.0424 54.8376C31.0403 54.9575 31.0374 55.0789 31.0353 55.1931C31.003 56.6119 30.9491 57.7694 30.9491 57.7694L30.9907 57.7356C30.2878 59.0504 29.6114 60.2624 28.9515 61.249C28.2988 62.2335 27.6913 63.0219 27.2239 63.4936C27.1227 63.6135 27.0178 63.7141 26.9223 63.8017C27.0731 63.8972 27.2225 63.9927 27.3811 64.0645C27.4486 63.997 27.5111 63.9395 27.5836 63.8512C28.0877 63.3206 28.683 62.5121 29.3313 61.4925C29.969 60.4958 30.6138 59.2873 31.2787 57.9841C31.316 57.9109 31.3534 57.8376 31.3907 57.7629C31.6636 57.2258 31.9407 56.6729 32.2215 56.1129C32.6164 55.3266 33.0192 54.5267 33.4342 53.7333C33.5506 53.5107 33.6741 53.2931 33.7954 53.0741C34.0532 52.6088 34.3182 52.1507 34.5953 51.707C34.6011 51.6976 34.6061 51.6883 34.6118 51.679C34.9177 51.2137 35.2322 50.7577 35.5317 50.2982C35.4613 50.7692 35.5173 51.4097 35.6674 52.1464C35.7119 52.3704 35.7736 52.6024 35.8469 52.8379C36.0494 53.4848 36.3488 54.1713 36.6841 54.8728C36.8363 55.1895 36.9893 55.5162 37.1401 55.8458C37.1788 55.9305 37.2169 56.0159 37.2557 56.1014C37.5206 56.6887 37.7784 57.2905 38.0146 57.9037C38.4096 58.9513 38.7751 60.0312 38.9804 61.0508C39.0537 61.4027 39.1161 61.7459 39.1764 62.0827C39.2231 62.344 39.2676 62.599 39.31 62.846C39.3725 63.2129 39.4335 63.5697 39.4938 63.8986C39.5972 64.4989 39.7085 65.0259 39.8119 65.4618C39.9936 65.4991 40.1781 65.5379 40.3583 65.5688C40.2377 65.1222 40.0891 64.5312 39.9462 63.8103C39.86 63.4003 39.7753 62.9537 39.6827 62.4805C39.674 62.4352 39.6633 62.3864 39.6547 62.3405C39.5678 61.8996 39.4744 61.4415 39.3646 60.9654C39.2827 60.6049 39.1628 60.2445 39.0493 59.8848C39.0795 59.8625 39.114 59.8395 39.1628 59.8036C39.2892 59.7095 39.4874 59.5408 39.6755 59.3175C40.0711 58.8637 40.4524 58.0968 40.6649 57.1454C40.7612 56.7325 40.8279 56.2823 40.8796 55.812C40.9464 55.201 40.9845 54.5547 40.9995 53.8826C41.0412 52.6907 40.9787 51.424 41.1568 50.1818C41.3076 48.9202 41.4031 47.6608 41.5747 46.4882C41.7442 45.3178 41.9775 44.235 42.3035 43.3446C42.4277 43.0136 42.5599 42.7192 42.6941 42.4464C42.6755 42.442 42.6554 42.4385 42.6338 42.4349C42.496 42.7048 42.3552 42.9928 42.2253 43.3173L42.226 43.3188ZM51.8039 53.4224C52.1824 53.2981 52.6886 53.0784 53.2379 52.7129C54.3494 52.0042 55.5313 50.6723 56.3039 49.1421C56.7046 48.391 57.0622 47.6206 57.4621 46.9392C57.5828 46.7309 57.717 46.5514 57.847 46.3626C57.7996 46.3504 57.7551 46.3367 57.7063 46.3231C57.5777 46.4983 57.4442 46.662 57.3221 46.8537C56.8898 47.5294 56.5043 48.2862 56.0763 49.0164C55.2606 50.4892 54.0665 51.717 53.0002 52.3381C52.4753 52.6591 51.9899 52.8422 51.6611 52.937C51.5727 52.9635 51.5167 52.9635 51.4751 52.9535C51.6546 52.1859 51.8162 51.4312 52.056 50.7254C52.2714 50.0612 52.5801 49.4537 52.8666 48.8721C53.151 48.2898 53.4174 47.7412 53.6651 47.2335C53.9954 46.5536 54.2848 45.9576 54.5311 45.4557C54.5182 45.4514 54.5052 45.4485 54.4923 45.4456C54.2381 45.9411 53.9344 46.5284 53.5904 47.1984C53.3319 47.6996 53.0519 48.2438 52.7568 48.8197C52.461 49.3913 52.135 49.9966 51.898 50.6701C51.4148 52.0064 51.2037 53.5301 50.6343 54.885C50.3363 55.5772 49.9097 56.1775 49.5041 56.7972C49.1177 57.4326 48.6259 57.9726 48.3178 58.6461C48.1671 58.9736 47.9423 59.2837 47.8633 59.6119C47.8073 59.7993 47.7535 59.9781 47.6989 60.159C47.6896 60.1124 47.6788 60.0772 47.6709 60.0226C47.574 59.5042 47.5675 58.7273 47.663 57.783C47.7082 57.3077 47.7578 56.7893 47.8095 56.2428C47.8547 55.6971 47.8533 55.0803 47.752 54.4851C47.6537 53.8417 47.3162 53.273 47.0045 52.7424C46.6958 52.1981 46.4588 51.6524 46.3246 51.0169C46.0495 49.7977 46.0122 48.5124 46.0495 47.3276C46.0883 46.1378 46.2025 45.0292 46.3274 44.0813C46.3648 43.807 46.4007 43.5514 46.438 43.3066C46.4172 43.3001 46.3956 43.2951 46.3763 43.2901C46.3325 43.5363 46.2894 43.7934 46.2434 44.0698C46.0948 45.0141 45.9505 46.1227 45.8794 47.3197C45.809 48.516 45.809 49.802 46.061 51.0815C46.1716 51.6998 46.4236 52.3467 46.7231 52.8975C47.0297 53.4504 47.3155 53.981 47.3858 54.5339C47.5574 55.6856 47.3111 56.7814 47.2149 57.7378C47.0943 58.6921 47.0756 59.5214 47.1697 60.1038C47.2063 60.3845 47.276 60.6487 47.3205 60.7773C47.3521 60.8749 47.3779 61.1011 47.3894 61.2375C47.3873 61.2476 47.3844 61.2562 47.3822 61.2663C47.2846 61.6346 47.1941 61.9879 47.0986 62.3268C46.9435 62.8754 46.7697 63.3472 46.6707 63.8211C46.6484 63.9216 46.6247 64.0178 46.601 64.1126C46.5479 64.328 46.4976 64.5269 46.4646 64.7086C46.4452 64.8156 46.4301 64.9182 46.4272 65.013C46.3691 65.5738 46.3339 65.9134 46.3246 66.0039C46.4301 66.0168 46.5335 66.0341 46.6383 66.0484C46.708 66.0592 46.7784 66.0685 46.848 66.0786C46.848 66.0657 46.853 66.0111 46.8602 65.9206C46.8731 65.7548 46.8976 65.4639 46.9306 65.0597C46.9342 64.7208 47.0519 64.3617 47.1381 63.9245C47.2178 63.4972 47.3873 62.9896 47.5273 62.4496C47.5897 62.2091 47.6493 61.947 47.7111 61.6799C47.7886 61.346 47.8698 61.0056 47.9653 60.6832C48.0522 60.3709 48.1412 60.0513 48.231 59.7239C48.3042 59.3857 48.5067 59.1215 48.6424 58.8077C48.9059 58.1837 49.3935 57.6121 49.7633 56.9738C50.1553 56.347 50.5876 55.7029 50.8719 55.0021C51.0586 54.5274 51.195 54.0463 51.3193 53.566C51.4097 53.5444 51.5663 53.5035 51.8018 53.4238L51.8039 53.4224Z" fill="#E8B599"/>
</g>
<defs>
<clipPath id="clip0_199_148866">
<rect width="179.511" height="92" fill="white" transform="translate(0.0478516)"/>
</clipPath>
</defs>
</svg>
