<svg width="163" height="52" viewBox="0 0 163 52" fill="none" xmlns="http://www.w3.org/2000/svg">
<path d="M162.402 23.9735C162.402 36.3773 126.135 52 81.4198 52C36.7043 52 0.390625 36.3773 0.390625 23.9735C0.390625 11.5698 36.657 1.50781 81.3726 1.50781C126.088 1.50781 162.402 11.5698 162.402 23.9735Z" fill="#E2DAC9"/>
<path d="M162.928 22.8601C162.928 34.6902 126.662 47.2829 81.9462 47.2829C37.2306 47.2829 0.916992 34.6902 0.916992 22.8601C0.916992 11.03 37.1834 1.43359 81.8989 1.43359C126.614 1.43359 162.928 11.03 162.928 22.8601Z" fill="#F7F0DF"/>
<path d="M49.2301 36.9509C45.5252 37.43 28.1951 24.2907 27.7902 18.4668C27.7436 17.5474 27.8346 16.6262 28.0601 15.7336C30.3074 20.876 40.5651 29.1294 46.1326 31.7816C46.1258 34.0963 47.0504 36.0264 49.2301 36.9509Z" fill="#C1A491"/>
<path d="M139.221 23.4943C139.633 22.2391 139.106 21.1998 137.824 20.3292C138.264 19.9854 138.665 19.5938 139.019 19.1618L139.086 19.0875C140.645 22.2661 139.221 23.4943 139.221 23.4943Z" fill="#C1A491"/>
<path d="M139.086 19.0876L139.018 19.1618C129.489 31.0729 52.7321 32.1324 49.0271 32.6116C45.6057 33.0637 30.759 22.0502 28.0596 15.7336C29.686 8.76915 39.1406 1.3458 52.9345 0.158069C68.5505 -1.19163 117.119 6.5354 120.818 6.90656C125.778 7.41945 132.074 10.2808 136.839 15.8078C137.722 16.8028 138.477 17.9047 139.086 19.0876Z" fill="#FC9248"/>
<path d="M139.22 23.4944C129.691 35.4055 52.9339 36.438 49.229 36.9509C47.0492 36.0263 46.1247 34.0963 46.0977 31.7815C46.9909 32.2947 47.9968 32.5797 49.0265 32.6116C52.6032 32.146 124.38 31.1472 137.823 20.3293C139.105 21.1999 139.632 22.2662 139.22 23.4944Z" fill="#B39B8D"/>
<path d="M137.824 20.3293C124.381 31.1269 52.6037 32.1459 49.027 32.6115C47.9973 32.5797 46.9914 32.2946 46.0981 31.7815C46.0307 25.3097 52.9074 15.7943 58.6773 16.3814C70.5749 17.5894 127.708 13.493 137.824 20.3293Z" fill="#ED8B48"/>
<path d="M52.0029 3.56604C52.0029 3.56604 67.8214 9.63969 69.819 12.7305L52.0029 3.56604Z" fill="#ED8B48"/>
<path d="M66.7559 3.1814C66.7559 3.1814 82.5743 9.25504 84.5719 12.3459L66.7559 3.1814Z" fill="#ED8B48"/>
<path d="M81.5078 4.14648C81.5078 4.14648 97.333 10.2201 99.3306 13.3109L81.5078 4.14648Z" fill="#ED8B48"/>
<path d="M96.2666 5.11145C96.2666 5.11145 112.085 11.1851 114.083 14.2759L96.2666 5.11145Z" fill="#ED8B48"/>
<path d="M113.421 8.14832C113.421 8.14832 124.711 11.8195 126.432 14.5391L113.421 8.14832Z" fill="#ED8B48"/>
<path d="M56.3556 43.4767C59.3385 42.8018 62.355 42.2754 65.3514 41.6816L74.3944 40.1767C77.4109 39.6638 80.468 39.2791 83.4643 38.827C86.4607 38.3748 89.538 38.0644 92.5613 37.7C98.6349 37.0251 104.709 36.4312 110.843 36.1208C113.9 35.9791 116.964 35.8441 120.034 35.8171C121.566 35.8171 123.105 35.8644 124.637 35.9656C126.183 35.9878 127.719 36.2147 129.206 36.6405C129.222 36.6477 129.236 36.6603 129.244 36.6762C129.253 36.6921 129.256 36.7104 129.253 36.7282C129.25 36.7367 129.245 36.7445 129.239 36.7511C129.233 36.7578 129.226 36.7631 129.218 36.7669C129.209 36.7707 129.201 36.7728 129.191 36.7731C129.183 36.7734 129.174 36.7719 129.165 36.7687C127.675 36.47 126.156 36.3432 124.637 36.3908C123.112 36.3908 121.587 36.438 120.061 36.5055C117.018 36.6539 113.988 36.8901 110.931 37.1803C104.857 37.7067 98.7834 38.3613 92.7098 39.0497C80.5625 40.3994 68.4489 41.92 56.3691 43.6116C56.3597 43.6136 56.3501 43.6135 56.3407 43.6114C56.3314 43.6094 56.3226 43.6053 56.3149 43.5996C56.3073 43.5938 56.3009 43.5865 56.2963 43.5781C56.2917 43.5697 56.2889 43.5605 56.2881 43.5509C56.2875 43.5343 56.2925 43.5179 56.3023 43.5045C56.3121 43.491 56.3261 43.4812 56.3421 43.4767H56.3556Z" fill="#24562E"/>
<path d="M112.591 36.0532C112.656 36.8999 112.588 37.7517 112.388 38.5772C112.202 39.4027 111.917 40.2027 111.538 40.9594C111.162 41.7433 110.653 42.4558 110.033 43.0649C109.419 43.7234 108.587 44.138 107.691 44.2324C108.283 43.6989 108.788 43.0775 109.19 42.3901C109.598 41.7361 109.969 41.0603 110.303 40.3655C111.066 38.9618 111.687 37.5041 112.591 36.0532Z" fill="#24562E"/>
<path d="M110.155 36.7417C108.987 37.8187 107.734 38.8004 106.409 39.6773C105.782 40.1227 105.14 40.5478 104.526 41.027C103.912 41.5061 103.285 41.9245 102.644 42.4644C102.836 41.6413 103.233 40.88 103.798 40.2509C104.343 39.6104 104.972 39.0453 105.667 38.5705C106.336 38.1028 107.054 37.7069 107.806 37.3896C108.555 37.0663 109.346 36.8482 110.155 36.7417Z" fill="#24562E"/>
<path d="M104.992 37.1871C104.392 37.8125 103.711 38.3549 102.967 38.8C102.246 39.2499 101.488 39.636 100.7 39.954C99.9123 40.2742 99.0967 40.5205 98.2636 40.6896C97.4192 40.8698 96.5534 40.9289 95.6924 40.8651C96.4163 40.4273 97.1643 40.0308 97.9329 39.6773C98.682 39.3332 99.4378 39.0025 100.2 38.6988C100.963 38.3951 101.732 38.1049 102.522 37.8485C103.329 37.5709 104.154 37.3499 104.992 37.1871Z" fill="#24562E"/>
<path d="M94.7278 39.0226C93.4323 40.0863 92.0806 41.0798 90.6787 41.9987C90.0038 42.4643 89.329 42.9232 88.7216 43.4226C88.0603 43.9188 87.452 44.4819 86.9062 45.103C87.0088 44.2055 87.3778 43.3593 87.9658 42.6735C88.5191 41.9841 89.1745 41.3833 89.9093 40.8919C90.623 40.3972 91.3905 39.9852 92.1971 39.6637C93.0053 39.3291 93.8577 39.1131 94.7278 39.0226Z" fill="#24562E"/>
<path d="M112.814 37.1128C111.519 38.1781 110.168 39.1716 108.765 40.0889C108.09 40.5545 107.415 41.0134 106.808 41.5128C106.147 42.0069 105.538 42.5678 104.992 43.1864C105.095 42.289 105.464 41.4428 106.052 40.757C106.605 40.0676 107.26 39.4668 107.995 38.9754C108.71 38.4823 109.477 38.0703 110.283 37.7472C111.092 37.4164 111.944 37.2028 112.814 37.1128Z" fill="#24562E"/>
<path d="M86.3467 39.2723C85.6178 39.8865 84.8755 40.4196 84.1399 40.946L81.9736 42.5116C81.2669 43.02 80.5908 43.5699 79.9491 44.1582C79.2898 44.7406 78.7271 45.424 78.2822 46.1828C78.2397 45.1953 78.5481 44.2247 79.1528 43.4429C79.7057 42.6562 80.3906 41.9713 81.1773 41.4184C81.9382 40.8575 82.7627 40.3886 83.6338 40.0214C84.4965 39.6403 85.4106 39.3879 86.3467 39.2723Z" fill="#24562E"/>
<path d="M93.8639 37.9294C93.2656 38.5568 92.5845 39.0994 91.8393 39.5423C91.1192 39.9935 90.3604 40.3797 89.5718 40.6963C88.7843 41.0165 87.9687 41.2628 87.1356 41.4319C86.2912 41.6121 85.4255 41.6712 84.5645 41.6074C85.2862 41.1678 86.0344 40.7734 86.805 40.4264C87.554 40.0755 88.3099 39.7515 89.0724 39.4411C89.835 39.1307 90.6044 38.854 91.3872 38.5908C92.1967 38.314 93.0242 38.0931 93.8639 37.9294Z" fill="#24562E"/>
<path d="M83.593 39.765C82.2975 40.8288 80.9459 41.8222 79.5439 42.7411C78.869 43.2067 78.1942 43.6656 77.5868 44.165C76.9239 44.6618 76.3154 45.2273 75.7715 45.8522C75.8723 44.9522 76.2415 44.1034 76.831 43.4159C77.3843 42.7266 78.0398 42.1258 78.7746 41.6343C79.4882 41.1397 80.2557 40.7276 81.0623 40.4061C81.8705 40.0715 82.7229 39.8556 83.593 39.765Z" fill="#24562E"/>
<path d="M73.8213 40.8853C72.5661 41.9448 71.3109 42.7681 70.1636 43.6926C69.5953 44.141 69.0566 44.6257 68.5507 45.1436C68.0234 45.6945 67.5573 46.3009 67.1605 46.9522C67.0677 46.1127 67.2476 45.2656 67.6734 44.5362C68.0952 43.8079 68.6544 43.1684 69.3201 42.6534C69.9647 42.1458 70.6782 41.7322 71.4391 41.4251C72.1951 41.106 73.0016 40.9232 73.8213 40.8853Z" fill="#24562E"/>
<path d="M67.6527 42.073C66.3975 43.1325 65.1423 43.9558 63.9951 44.8804C63.4212 45.3298 62.8758 45.8144 62.3619 46.3313C61.8346 46.8822 61.3685 47.4886 60.9717 48.1399C60.8854 47.2939 61.0723 46.4425 61.5049 45.7104C61.9302 44.9942 62.4892 44.3665 63.1515 43.8613C63.7962 43.3538 64.5096 42.9402 65.2705 42.6331C66.0254 42.3077 66.8319 42.1181 67.6527 42.073Z" fill="#24562E"/>
<path d="M77.9447 40.4871C76.6894 41.5533 75.441 42.3699 74.287 43.3012C73.7132 43.7506 73.1677 44.2352 72.6538 44.7521C72.1255 45.3055 71.6552 45.9116 71.2502 46.5607C71.1686 45.715 71.3551 44.8651 71.7833 44.1312C72.212 43.4059 72.7728 42.7673 73.4367 42.2484C74.078 41.7377 74.7923 41.326 75.5557 41.0269C76.3128 40.7039 77.1222 40.521 77.9447 40.4871Z" fill="#24562E"/>
<path d="M98.0686 38.5569C96.9343 39.3615 95.7535 40.0983 94.5324 40.7637C93.952 41.0944 93.3919 41.4385 92.8655 41.803C92.3051 42.1725 91.8064 42.628 91.3876 43.1527C91.3431 42.3716 91.61 41.6047 92.1299 41.0201C92.6047 40.4301 93.1891 39.9375 93.8508 39.5692C94.4847 39.2016 95.1659 38.9223 95.8754 38.7391C96.5905 38.5523 97.3325 38.4907 98.0686 38.5569Z" fill="#24562E"/>
<path d="M112.51 37.0587C111.16 35.9655 110.128 34.7845 109.007 33.6845C108.454 33.1311 107.894 32.5912 107.307 32.1053C106.7 31.5806 106.018 31.1505 105.282 30.8299C106.155 30.6496 107.063 30.7834 107.847 31.2078C108.626 31.5931 109.333 32.1089 109.939 32.733C110.54 33.3405 111.064 34.0206 111.498 34.7575C111.948 35.4697 112.289 36.2454 112.51 37.0587Z" fill="#24562E"/>
<path d="M109.979 37.1737C109.171 37.3336 108.343 37.3768 107.523 37.3019C106.708 37.244 105.902 37.0969 105.12 36.8632C104.322 36.635 103.558 36.3038 102.846 35.878C102.111 35.4576 101.493 34.8588 101.051 34.1368C101.834 34.454 102.556 34.6835 103.291 34.9129C104.027 35.1424 104.762 35.3448 105.498 35.5878C107.031 35.9994 108.529 36.5296 109.979 37.1737Z" fill="#24562E"/>
<path d="M88.256 39.2723C87.4067 39.4656 86.533 39.5293 85.6646 39.4613C84.7981 39.4129 83.94 39.2657 83.1069 39.0226C82.2544 38.7851 81.4423 38.4211 80.6977 37.9429C79.9203 37.4777 79.3017 36.7885 78.9229 35.9656C79.637 36.3857 80.3923 36.7317 81.1768 36.9981C81.9259 37.2748 82.702 37.4975 83.4848 37.7269C85.1019 38.1559 86.6946 38.6718 88.256 39.2723Z" fill="#24562E"/>
<path d="M112.415 35.9926C111.563 36.1794 110.688 36.243 109.817 36.1815C108.95 36.1341 108.091 35.9846 107.259 35.7361C106.408 35.5051 105.597 35.1431 104.857 34.6631C104.08 34.1979 103.461 33.5087 103.082 32.6858C103.784 33.1166 104.531 33.4697 105.309 33.7386C106.058 34.0152 106.834 34.2447 107.61 34.4674C109.238 34.8899 110.842 35.399 112.415 35.9926Z" fill="#24562E"/>
<path d="M64.3127 42.5116C63.4601 42.6984 62.5851 42.7621 61.7145 42.7006C60.8478 42.6498 59.9897 42.5004 59.1568 42.2552C58.3036 42.0229 57.491 41.661 56.7476 41.1821C55.9738 40.7146 55.3579 40.0259 54.9795 39.2048C55.6908 39.6241 56.444 39.9679 57.2267 40.2306C57.9826 40.5073 58.7519 40.7367 59.5347 40.9594C61.1538 41.3917 62.7487 41.9098 64.3127 42.5116Z" fill="#24562E"/>
<path d="M97.8121 38.3006C96.8875 38.1724 96.017 37.9834 95.1599 37.7877L92.609 37.1939L90.0715 36.6068C89.2212 36.4178 88.3642 36.2626 87.4531 36.0534C88.3141 35.7205 89.2295 35.5512 90.1525 35.554C91.0752 35.5565 91.9946 35.6652 92.8924 35.8779C93.7832 36.0945 94.6493 36.402 95.4771 36.7957C96.3259 37.1785 97.1129 37.6857 97.8121 38.3006Z" fill="#24562E"/>
<path d="M102.651 37.268C101.805 37.215 100.964 37.1045 100.134 36.9374C99.3171 36.7754 98.5141 36.5932 97.7177 36.3907C96.9214 36.1883 96.1386 35.9656 95.349 35.7159C94.5388 35.4667 93.7434 35.1715 92.9668 34.8318C93.8143 34.6573 94.6821 34.6028 95.5447 34.6699C96.3925 34.7285 97.233 34.8664 98.0552 35.0815C98.8794 35.294 99.6833 35.5786 100.458 35.9318C101.245 36.278 101.982 36.7273 102.651 37.268Z" fill="#24562E"/>
<path d="M77.9448 40.8515C77.1579 41.075 76.3381 41.1595 75.5221 41.1012C74.7035 41.0522 73.8964 40.8839 73.1264 40.6018C72.3313 40.3256 71.5978 39.8969 70.9669 39.3398C70.325 38.7806 69.8782 38.0312 69.6914 37.2006C70.2757 37.6896 70.9089 38.117 71.581 38.476C72.2359 38.8066 72.9123 39.093 73.6055 39.3331C74.9755 39.8527 76.4197 40.2374 77.9448 40.8515Z" fill="#24562E"/>
<path d="M69.1645 41.5938C68.3776 41.8173 67.5578 41.9018 66.7418 41.8435C65.9232 41.7945 65.1161 41.6262 64.3461 41.3441C63.5511 41.0679 62.8175 40.6392 62.1866 40.0821C61.5432 39.5241 61.0961 38.7742 60.9111 37.9429C61.4942 38.4335 62.1276 38.8611 62.8007 39.2183C63.4569 39.5483 64.133 39.8368 64.8253 40.0821C66.1885 40.595 67.6394 40.9797 69.1645 41.5938Z" fill="#24562E"/>
<path d="M82.3979 39.8122C81.6117 40.039 80.7912 40.1236 79.9752 40.0619C79.1569 40.0152 78.3498 39.8492 77.5795 39.5692C76.7853 39.2881 76.0523 38.8574 75.42 38.3005C74.7766 37.7425 74.3295 36.9926 74.1445 36.1613C74.7254 36.6548 75.3592 37.0825 76.0341 37.4367C76.6902 37.7667 77.3664 38.0552 78.0587 38.3005C79.4286 38.7932 80.8728 39.1711 82.3979 39.8122Z" fill="#24562E"/>
</svg>
