<svg width="138" height="92" viewBox="0 0 138 92" fill="none" xmlns="http://www.w3.org/2000/svg">
<path d="M72.8529 84.8051C108.617 80.8315 135.922 62.4229 133.84 43.6884C131.759 24.9538 101.079 12.9878 65.3149 16.9614C29.551 20.9351 2.24602 39.3437 4.32757 58.0782C6.40912 76.8127 37.0889 88.7788 72.8529 84.8051Z" fill="#393F3C"/>
<path d="M54.3314 71.9132C52.7766 71.9132 36.352 61.1315 34.4777 57.9855C32.6033 54.8396 29.4969 30.0117 31.0518 28.4602C32.6066 26.9086 52.7931 43.9789 52.7931 43.9789C52.7931 43.9789 55.883 71.9132 54.3314 71.9132Z" fill="#E2E2E2"/>
<path d="M104.995 41.2084C104.995 41.2084 55.8827 71.9131 54.3312 71.9131C52.7797 71.9131 52.7764 43.9788 52.7764 43.9788C52.7764 43.9788 103.994 11.2548 105.545 12.8722C107.097 14.4897 105.545 40.2334 105.545 40.2334C105.545 40.4295 105.494 40.6223 105.398 40.7931C105.302 40.9639 105.163 41.107 104.995 41.2084Z" fill="#E8EAE9"/>
<path d="M105.544 12.9382L84.1194 0.318306C83.7738 0.115037 83.3812 0.00539304 82.9802 0.000193921C82.5793 -0.0050052 82.184 0.0944201 81.8332 0.288658C81.8332 0.288658 31.0508 26.9086 31.0508 28.4601C31.0508 30.0117 52.7921 43.9788 52.7921 43.9788L105.544 12.9382Z" fill="#EFEFEF"/>
<path d="M65.584 17.3457V17.3724C65.5851 17.3635 65.5851 17.3546 65.584 17.3457Z" fill="#12663C"/>
<path d="M65.5874 17.3721L66.1145 20.2709L60.4519 21.2987L59.9248 18.3998C60.0203 18.9203 61.3643 19.1147 62.9291 18.8281C64.4938 18.5415 65.683 17.8958 65.5874 17.3721Z" fill="#12663C"/>
<path d="M65.5798 17.3457C65.4447 16.845 64.1205 16.6638 62.5854 16.9406C61.0503 17.2173 59.871 17.8563 59.9204 18.3735C59.9204 18.3735 59.9204 18.3933 59.9204 18.3998C60.016 18.9203 61.36 19.1147 62.9247 18.8281C64.4894 18.5415 65.6786 17.8958 65.5831 17.3721C65.5831 17.3632 65.582 17.3543 65.5798 17.3457ZM64.9209 17.4841C64.9225 17.4994 64.9225 17.5149 64.9209 17.5302C64.9273 17.5606 64.9273 17.592 64.9209 17.6224C64.9169 17.6362 64.9114 17.6494 64.9045 17.662C64.8679 17.7328 64.8188 17.7964 64.7595 17.8497L64.6871 17.9156L64.5816 17.9947C64.4771 18.0641 64.3669 18.1247 64.2522 18.1758L64.1435 18.2286L63.9986 18.2878C63.8824 18.336 63.7636 18.3778 63.6428 18.413L63.5111 18.4361L63.3332 18.4855H63.2936L63.0927 18.5316L62.8753 18.5744L62.6513 18.6107L62.4536 18.637H62.4108L62.2263 18.6568H62.1176C61.976 18.6568 61.8442 18.6568 61.7157 18.6568H61.5939C61.5148 18.6568 61.4357 18.6568 61.3633 18.637C61.289 18.6282 61.2153 18.615 61.1426 18.5975C61.087 18.586 61.032 18.5717 60.9779 18.5547L60.8856 18.5184C60.8116 18.4892 60.7436 18.4468 60.6847 18.3933L60.6583 18.3636C60.6371 18.3393 60.6204 18.3114 60.6089 18.2813V18.2384V18.222C60.5661 17.8267 61.4621 17.3391 62.6381 17.1283C63.8141 16.9175 64.8221 17.0558 64.9177 17.438L64.9209 17.4841Z" fill="#135432"/>
<path d="M64.9046 17.4676C64.9061 17.4829 64.9061 17.4983 64.9046 17.5137C64.911 17.5441 64.911 17.5755 64.9046 17.6059C64.9005 17.6196 64.895 17.6329 64.8881 17.6454C64.8515 17.7163 64.8024 17.7799 64.7432 17.8332C64.0929 17.6453 63.4051 17.6294 62.7469 17.7871C62.0678 17.8744 61.4231 18.1366 60.8758 18.548C60.8018 18.5188 60.7338 18.4764 60.6749 18.4229L60.6485 18.3932C60.6273 18.3689 60.6106 18.341 60.5991 18.3109V18.268V18.2516C60.5563 17.8563 61.4523 17.3687 62.6283 17.1579C63.8043 16.9471 64.809 17.0854 64.9046 17.4676Z" fill="#8ABCA1"/>
<path d="M64.7366 17.8497L64.6641 17.9155L64.5587 17.9946C64.4541 18.0641 64.344 18.1247 64.2293 18.1758L64.1206 18.2285L63.9756 18.2878C63.8594 18.3359 63.7407 18.3777 63.6199 18.4129L63.5112 18.436L63.3333 18.4854H63.2938L63.0928 18.5315L62.8754 18.5744L62.6514 18.6106L62.4538 18.6369H62.4109L62.2265 18.6567H62.1178C61.9794 18.6567 61.8443 18.6567 61.7159 18.6567H61.594C61.5149 18.6567 61.4359 18.6567 61.3634 18.6369C61.2891 18.6281 61.2154 18.6149 61.1427 18.5974C61.087 18.5863 61.032 18.572 60.978 18.5546L60.8857 18.5184C61.43 18.1155 62.0686 17.8591 62.7403 17.7739C63.4011 17.6259 64.089 17.652 64.7366 17.8497Z" fill="#79AA8E"/>
<path d="M63.465 21.8032C65.0296 21.5194 66.2213 20.8671 66.1268 20.3462C66.0324 19.8252 64.6874 19.633 63.1229 19.9167C61.5584 20.2005 60.3666 20.8528 60.4611 21.3737C60.5556 21.8947 61.9005 22.0869 63.465 21.8032Z" fill="#12663C"/>
<path d="M71.0422 18.3373C71.0406 18.3472 71.0406 18.3574 71.0422 18.3673V18.3373Z" fill="#12663C"/>
<path d="M76.5896 16.812L77.3835 19.6483L71.8427 21.1998L71.0488 18.3668C71.1905 18.8741 72.5477 18.94 74.0794 18.5118C75.6112 18.0835 76.7312 17.3226 76.5896 16.812Z" fill="#12663C"/>
<path d="M76.5797 16.789C76.3985 16.3048 75.0611 16.2455 73.559 16.6672C72.0568 17.0888 70.9434 17.8333 71.0422 18.3406C71.0407 18.3504 71.0407 18.3604 71.0422 18.3702C71.1839 18.8775 72.5411 18.9434 74.0728 18.5152C75.6046 18.0869 76.7082 17.326 76.583 16.8154L76.5797 16.789ZM75.9209 16.99C75.9221 17.0053 75.9221 17.0208 75.9209 17.0361C75.9274 17.0665 75.9274 17.0979 75.9209 17.1283C75.9227 17.1415 75.9227 17.1548 75.9209 17.1679C75.8916 17.2419 75.8492 17.3099 75.7957 17.3688L75.7298 17.4413L75.631 17.5302C75.536 17.6088 75.4346 17.6793 75.3279 17.7411C75.294 17.7638 75.2588 17.7847 75.2225 17.8036L75.0841 17.8794C74.9754 17.9321 74.8634 17.9848 74.7547 18.0342L74.6526 18.0771L74.478 18.1429H74.4385L74.2474 18.2088L74.0333 18.2714C73.9608 18.2945 73.8884 18.3109 73.8159 18.3274L73.6182 18.3735H73.5787L73.3942 18.4361L73.2855 18.4526C73.1472 18.4756 73.0121 18.4888 72.887 18.4987H72.7684H72.5345H72.3105C72.2512 18.4987 72.1952 18.4822 72.1425 18.4691L72.0502 18.4427C71.9742 18.4205 71.9028 18.3848 71.8394 18.3373L71.8065 18.3076C71.7839 18.2855 71.765 18.2599 71.7505 18.2319C71.7505 18.2319 71.7505 18.2055 71.7505 18.1891C71.6714 17.8036 72.518 17.2338 73.6677 16.9109C74.8173 16.5881 75.8352 16.6375 75.9736 17.0065L75.9209 16.99Z" fill="#135432"/>
<path d="M75.921 16.9701V16.9866C75.9222 17.0019 75.9222 17.0173 75.921 17.0327C75.9275 17.0631 75.9275 17.0945 75.921 17.1249C75.9229 17.138 75.9229 17.1514 75.921 17.1645C75.8917 17.2385 75.8493 17.3065 75.7958 17.3654C75.1268 17.278 74.447 17.3278 73.798 17.5119C73.1489 17.6959 72.5442 18.0104 72.0207 18.436C71.9447 18.4138 71.8732 18.3781 71.8099 18.3306L71.7769 18.3009C71.7544 18.2788 71.7355 18.2532 71.7209 18.2252C71.7209 18.2252 71.7209 18.1988 71.7209 18.1823C71.6419 17.7969 72.4885 17.227 73.6381 16.9042C74.7878 16.5814 75.7859 16.6012 75.921 16.9701Z" fill="#8ABCA1"/>
<path d="M75.7887 17.3655L75.7228 17.438L75.6239 17.5269C75.529 17.6055 75.4276 17.676 75.3209 17.7377C75.2869 17.7605 75.2517 17.7814 75.2155 17.8003L75.0771 17.8761C74.9684 17.9288 74.8531 17.9815 74.7477 18.0309L74.6456 18.0737L74.471 18.1396H74.4315L74.2404 18.2055L74.0263 18.2681C73.9538 18.2911 73.8813 18.3076 73.8089 18.3241L73.6112 18.3702H73.5717L73.3938 18.4361L73.2851 18.4526C73.1468 18.4723 73.0117 18.4888 72.8865 18.4987H72.7679H72.534H72.31C72.2534 18.4928 72.1973 18.4829 72.142 18.469L72.0498 18.4427C72.5735 18.0202 73.1776 17.7087 73.8254 17.5269C74.4733 17.3451 75.1513 17.2969 75.8183 17.3852L75.7887 17.3655Z" fill="#79AA8E"/>
<path d="M74.6907 21.3409C76.2172 20.9115 77.3388 20.1515 77.1958 19.6433C77.0529 19.135 75.6996 19.071 74.1731 19.5004C72.6466 19.9297 71.5251 20.6897 71.668 21.198C71.8109 21.7062 73.1643 21.7702 74.6907 21.3409Z" fill="#12663C"/>
<path d="M66.4301 18.6732C66.4282 18.6811 66.4282 18.6894 66.4301 18.6973V18.6767V18.6732Z" fill="#12663C"/>
<path d="M70.874 17.4281V17.4488C70.8755 17.442 70.8755 17.4349 70.874 17.4281Z" fill="#12663C"/>
<path d="M70.8774 17.4479L71.5165 19.7241L67.0694 20.9726L66.4336 18.6964C66.5489 19.1048 67.636 19.1575 68.8647 18.8149C70.0934 18.4724 70.9927 17.8596 70.8774 17.4479Z" fill="#12663C"/>
<path d="M70.8711 17.4478C70.7262 17.0558 69.6556 17.0097 68.45 17.349C67.2443 17.6883 66.3516 18.2812 66.4307 18.6897C66.4288 18.6973 66.4288 18.7052 66.4307 18.7127C66.5459 19.1212 67.633 19.1739 68.8617 18.8313C70.0904 18.4887 70.9897 17.876 70.8744 17.4676C70.8748 17.4608 70.8737 17.4541 70.8711 17.4478ZM70.3474 17.6092C70.3474 17.6092 70.3474 17.6323 70.3474 17.6422C70.3508 17.6673 70.3508 17.6928 70.3474 17.7179V17.7509C70.3235 17.8105 70.2889 17.8652 70.2453 17.9123L70.1926 17.9683C70.1686 17.9949 70.1421 18.0192 70.1135 18.0407C70.0361 18.1032 69.9547 18.1604 69.8697 18.212L69.7874 18.2614L69.6754 18.3207C69.5897 18.3636 69.4975 18.4064 69.402 18.4459L69.3196 18.4789L69.1813 18.5316H69.1483L68.9935 18.5843L68.8222 18.637L68.6476 18.6831L68.4895 18.716H68.4565L68.3116 18.7457H68.226C68.1169 18.7641 68.0069 18.7762 67.8965 18.7819H67.7977H67.6132H67.4321C67.3875 18.777 67.3434 18.7681 67.3003 18.7556L67.2245 18.7358C67.1624 18.7188 67.1042 18.6897 67.0532 18.6502C67.044 18.6442 67.0361 18.6364 67.0302 18.6271C67.0102 18.61 66.9944 18.5886 66.9841 18.5645V18.5349C66.9215 18.2252 67.6001 17.7706 68.5224 17.5104C69.4448 17.2501 70.2617 17.2897 70.3704 17.5894L70.3474 17.6092Z" fill="#135432"/>
<path d="M70.3439 17.5796C70.3439 17.5796 70.3439 17.6026 70.3439 17.6125C70.3473 17.6377 70.3473 17.6631 70.3439 17.6883V17.7212C70.32 17.7808 70.2854 17.8355 70.2418 17.8826C69.7071 17.8101 69.1633 17.8478 68.6438 17.9934C68.1243 18.139 67.6401 18.3894 67.221 18.7292C67.1589 18.7122 67.1007 18.6831 67.0497 18.6436C67.0405 18.6377 67.0326 18.6298 67.0267 18.6205C67.0067 18.6035 66.9909 18.5821 66.9806 18.5579V18.5283C66.918 18.2186 67.5966 17.764 68.5189 17.5038C69.4413 17.2436 70.2352 17.2798 70.3439 17.5796Z" fill="#8ABCA1"/>
<path d="M70.2356 17.8958L70.1829 17.9518C70.158 17.9776 70.1316 18.0018 70.1038 18.0243C70.0265 18.0868 69.945 18.144 69.86 18.1956L69.7777 18.245L69.6657 18.3043C69.58 18.3471 69.4878 18.3899 69.3923 18.4295L69.3099 18.4624L69.1716 18.5151H69.1386L68.9838 18.5678L68.8125 18.6205L68.6379 18.6667L68.4798 18.6996H68.4468C68.3992 18.7126 68.3508 18.7225 68.3019 18.7292H68.2163C68.1043 18.7457 67.9988 18.7589 67.8868 18.7655H67.788H67.6035H67.4224C67.3777 18.7608 67.3336 18.752 67.2906 18.7391L67.2148 18.7194C67.6339 18.3796 68.1181 18.1292 68.6376 17.9836C69.1571 17.838 69.7009 17.8003 70.2356 17.8728V17.8958Z" fill="#79AA8E"/>
<path d="M69.5164 21.1506C70.7445 20.8066 71.6469 20.1954 71.5321 19.7855C71.4172 19.3755 70.3286 19.3221 69.1005 19.6661C67.8725 20.0102 66.9701 20.6214 67.0849 21.0313C67.1997 21.4413 68.2884 21.4947 69.5164 21.1506Z" fill="#12663C"/>
<g opacity="0.68">
<path opacity="0.68" d="M68.927 15.5537C68.9254 15.5636 68.9254 15.5738 68.927 15.5837V15.5537Z" fill="#12663C"/>
<path opacity="0.68" d="M74.6586 15.0629L74.9221 17.9947L69.1936 18.5151L68.9268 15.5833C68.9729 16.1104 70.2971 16.4201 71.8915 16.2784C73.4859 16.1368 74.7113 15.5899 74.6586 15.0629Z" fill="#12663C"/>
<path opacity="0.68" d="M74.6522 15.0332C74.5633 14.5259 73.2588 14.2261 71.7073 14.3744C70.1557 14.5226 68.9237 15.0332 68.927 15.5603C68.9254 15.5701 68.9254 15.5801 68.927 15.5899C68.9731 16.117 70.2974 16.4266 71.8917 16.285C73.4861 16.1433 74.7181 15.5965 74.672 15.0694C74.6555 15.053 74.6555 15.0431 74.6522 15.0332ZM73.9736 15.1156V15.1584C73.9711 15.1906 73.9621 15.2219 73.9473 15.2506C73.9433 15.264 73.9366 15.2763 73.9275 15.2869C73.8871 15.3551 73.8333 15.4145 73.7694 15.4614L73.6903 15.5207L73.5783 15.5899C73.4721 15.6478 73.362 15.6984 73.2489 15.7415L73.1336 15.7843L72.9821 15.8337C72.8668 15.8666 72.7482 15.8963 72.6197 15.9259L72.511 15.949L72.3299 15.9786H72.287C72.2245 15.9786 72.1553 15.9984 72.0861 16.0083L71.8654 16.0313C71.7896 16.0313 71.7139 16.0313 71.6414 16.0478H71.4372H71.3976C71.335 16.0478 71.2757 16.0478 71.2132 16.0478H71.088C70.9547 16.0477 70.8215 16.0389 70.6894 16.0215C70.6484 16.0194 70.6076 16.0139 70.5675 16.005C70.4884 16.005 70.4127 15.9918 70.3402 15.9655C70.2611 15.949 70.1887 15.9292 70.1228 15.9095C70.0569 15.8897 70.0108 15.8699 69.9614 15.8469C69.9319 15.8346 69.9033 15.8203 69.8757 15.804C69.8042 15.7701 69.7403 15.7219 69.688 15.6624L69.6616 15.6295C69.6425 15.604 69.629 15.5748 69.6221 15.5438V15.501V15.4812C69.6221 15.0892 70.551 14.6807 71.7402 14.5753C72.9294 14.4699 73.9209 14.6972 73.9835 15.0859L73.9736 15.1156Z" fill="#135432"/>
<path opacity="0.68" d="M73.9707 15.0959V15.1584C73.9681 15.1906 73.9592 15.222 73.9443 15.2507C73.9404 15.264 73.9337 15.2764 73.9246 15.2869C73.8842 15.3551 73.8304 15.4145 73.7665 15.4615C73.1283 15.2516 72.4541 15.1735 71.7848 15.2318C71.1156 15.2902 70.4651 15.4837 69.8728 15.8008C69.8012 15.7668 69.7373 15.7186 69.685 15.6591L69.6587 15.6262C69.6396 15.6008 69.6261 15.5716 69.6191 15.5406V15.4977V15.478C69.6191 15.086 70.5481 14.6775 71.7373 14.5721C72.9265 14.4667 73.9081 14.7071 73.9707 15.0959Z" fill="#8ABCA1"/>
<path opacity="0.68" d="M73.7696 15.4714L73.6906 15.5307L73.5786 15.5999C73.4723 15.6577 73.3623 15.7084 73.2492 15.7514L73.1339 15.7942L72.9823 15.8436C72.867 15.8766 72.7452 15.9095 72.62 15.9359L72.5113 15.9589L72.3301 15.9886H72.2873C72.2214 15.9886 72.1555 16.0083 72.0863 16.0182L71.8656 16.0413C71.7899 16.0413 71.7141 16.0413 71.6416 16.0578H71.4374H71.3979C71.332 16.0578 71.2727 16.0578 71.2134 16.0578H71.0882C70.9499 16.0578 70.8148 16.0578 70.6896 16.0314C70.6486 16.0294 70.6078 16.0239 70.5677 16.0149C70.4887 16.0149 70.4129 16.0018 70.3404 15.9754C70.2614 15.9589 70.1889 15.9392 70.123 15.9194C70.0681 15.9017 70.0142 15.8808 69.9616 15.8568C69.9321 15.8445 69.9035 15.8302 69.876 15.814C70.468 15.4964 71.1184 15.3022 71.7877 15.2433C72.457 15.1845 73.1312 15.262 73.7696 15.4714Z" fill="#79AA8E"/>
<path opacity="0.68" d="M72.1517 19.2941C73.7353 19.1505 74.9803 18.6067 74.9325 18.0795C74.8847 17.5522 73.5622 17.2412 71.9787 17.3847C70.3951 17.5283 69.1501 18.0721 69.1979 18.5993C69.2457 19.1266 70.5682 19.4376 72.1517 19.2941Z" fill="#12663C"/>
</g>
<path d="M68.5981 15.6426L68.8122 17.9946L64.2004 18.4097L63.9863 16.0576C64.0259 16.4826 65.0866 16.7165 66.3548 16.6143C67.6231 16.5122 68.6344 16.0642 68.5981 15.6426Z" fill="#12663C"/>
<path d="M68.5944 15.6195C68.5219 15.2111 67.4744 14.9607 66.2292 15.0826C64.984 15.2045 63.9957 15.6195 63.999 16.0346V16.0576C64.0386 16.4826 65.0993 16.7165 66.3675 16.6144C67.6358 16.5122 68.6339 16.0642 68.5977 15.6426C68.5977 15.636 68.5944 15.6261 68.5944 15.6195ZM68.0475 15.6821V15.7184C68.0456 15.7435 68.0389 15.7682 68.0278 15.7908C68.0235 15.8014 68.018 15.8113 68.0113 15.8205C67.9788 15.8761 67.9351 15.9244 67.8828 15.9621L67.8202 16.0082L67.7313 16.0642C67.6443 16.1113 67.554 16.152 67.4612 16.1861L67.3689 16.2191L67.2504 16.2586C67.1548 16.2882 67.0593 16.3113 66.9572 16.3344L66.8682 16.3508L66.7233 16.3772H66.6903L66.5289 16.4035L66.351 16.4233H66.1699H66.0085H65.7383C65.6281 16.423 65.5181 16.4153 65.4089 16.4002H65.3134L65.1322 16.3673L64.9543 16.3212C64.9116 16.3073 64.8698 16.2908 64.8292 16.2718L64.7567 16.2388C64.7001 16.2092 64.6488 16.1702 64.6052 16.1235L64.5854 16.0972C64.5711 16.0758 64.56 16.0525 64.5524 16.028C64.554 16.0171 64.554 16.006 64.5524 15.9951C64.5524 15.6656 65.2969 15.3362 66.2522 15.2671C67.2075 15.1979 68.0014 15.3659 68.0541 15.6788L68.0475 15.6821Z" fill="#135432"/>
<path d="M68.0478 15.669V15.7184C68.0459 15.7436 68.0392 15.7682 68.028 15.7909C68.0238 15.8014 68.0183 15.8114 68.0116 15.8205C67.9791 15.8762 67.9354 15.9244 67.8831 15.9622C67.3773 15.7654 66.8291 15.703 66.292 15.781C65.7491 15.8024 65.2207 15.9623 64.757 16.2455C64.7004 16.2158 64.6491 16.1768 64.6054 16.1302L64.5857 16.1038C64.5714 16.0825 64.5603 16.0592 64.5527 16.0346C64.5543 16.0237 64.5543 16.0126 64.5527 16.0017C64.5527 15.6723 65.2972 15.3429 66.2525 15.2737C67.2078 15.2045 67.9951 15.3561 68.0478 15.669Z" fill="#8ABCA1"/>
<path d="M67.883 15.9622L67.8204 16.0083L67.7314 16.0643C67.6444 16.1113 67.5542 16.152 67.4613 16.1862L67.3691 16.2191L67.2505 16.2586C67.155 16.2883 67.0594 16.3113 66.9573 16.3344L66.8684 16.3509L66.7234 16.3772H66.6905C66.6378 16.3772 66.5851 16.3937 66.5291 16.4036L66.3512 16.4233H66.17H66.0086H65.7385C65.6298 16.4233 65.5211 16.4233 65.4091 16.4003H65.3135L65.1324 16.3673L64.9545 16.3212C64.9116 16.3079 64.8697 16.2914 64.8293 16.2718L64.7568 16.2389C65.2205 15.9557 65.749 15.7958 66.2919 15.7744C66.8296 15.6985 67.3777 15.7632 67.883 15.9622Z" fill="#79AA8E"/>
<path d="M66.5845 19.0352C67.8546 18.9201 68.8531 18.4831 68.8146 18.0591C68.7762 17.6351 67.7154 17.3847 66.4453 17.4999C65.1751 17.615 64.1767 18.0521 64.2151 18.4761C64.2535 18.9 65.3143 19.1504 66.5845 19.0352Z" fill="#12663C"/>
<path d="M75.8486 21.1637V21.1878C75.8504 21.1799 75.8504 21.1716 75.8486 21.1637Z" fill="#12663C"/>
<path d="M75.845 21.1867L75.397 23.4926L70.8643 22.6229L71.309 20.317C71.2299 20.7321 72.1819 21.2657 73.4337 21.5062C74.6854 21.7467 75.7626 21.605 75.845 21.1867Z" fill="#12663C"/>
<path d="M75.8446 21.1636C75.8907 20.7519 74.9519 20.2314 73.7232 19.9942C72.4944 19.757 71.4173 19.8921 71.3151 20.294C71.3151 20.294 71.3151 20.294 71.3151 20.317C71.2361 20.7321 72.1881 21.2657 73.4399 21.5062C74.6916 21.7467 75.7688 21.605 75.8512 21.1768C75.8496 21.1721 75.8474 21.1677 75.8446 21.1636ZM75.3043 21.0714V21.1043C75.2944 21.1281 75.2811 21.1503 75.2648 21.1702L75.2418 21.1966C75.1934 21.2376 75.1389 21.271 75.0803 21.2954L75.0079 21.3217L74.9057 21.3514C74.8079 21.3719 74.7089 21.3862 74.6093 21.3942H74.5137H74.382H74.0789H73.99H73.8417H73.8088C73.7546 21.3895 73.7007 21.3818 73.6474 21.3712L73.4728 21.3415L73.2949 21.3053L73.1368 21.2657C73.127 21.2671 73.117 21.2671 73.1072 21.2657L72.9622 21.2262L72.8799 21.1999C72.7711 21.1669 72.6723 21.1307 72.5768 21.0912L72.4878 21.0516C72.4286 21.0286 72.3726 20.9989 72.3199 20.9726C72.2671 20.9462 72.2111 20.91 72.165 20.877C72.1271 20.8531 72.0908 20.8267 72.0563 20.798L71.997 20.7453C71.9501 20.7026 71.9121 20.6511 71.885 20.5937C71.8837 20.5828 71.8837 20.5717 71.885 20.5608C71.8801 20.5358 71.8801 20.51 71.885 20.485C71.885 20.485 71.885 20.462 71.885 20.4521C71.9674 20.149 72.7777 20.0436 73.7199 20.2248C74.662 20.406 75.3669 20.8013 75.3373 21.1175L75.3043 21.0714Z" fill="#135432"/>
<path d="M75.3078 21.0714V21.1043C75.2978 21.128 75.2845 21.1502 75.2683 21.1702L75.2452 21.1966C75.1968 21.2376 75.1424 21.2709 75.0838 21.2954C74.6369 20.9928 74.1331 20.7842 73.6031 20.6822C73.073 20.5803 72.5278 20.5872 72.0005 20.7024C71.9536 20.6597 71.9155 20.6083 71.8885 20.5509C71.8872 20.54 71.8872 20.5289 71.8885 20.518C71.8835 20.493 71.8835 20.4672 71.8885 20.4422C71.8885 20.4422 71.8885 20.4191 71.8885 20.4093C71.9708 20.1062 72.7812 20.0008 73.7233 20.182C74.6655 20.3631 75.344 20.742 75.3078 21.0714Z" fill="#8ABCA1"/>
<path d="M75.385 23.5667C75.4653 23.1486 74.5152 22.6145 73.2628 22.3738C72.0104 22.1331 70.93 22.2769 70.8496 22.6949C70.7692 23.113 71.7194 23.647 72.9718 23.8878C74.2242 24.1285 75.3046 23.9847 75.385 23.5667Z" fill="#12663C"/>
<path d="M64.9775 22.4812V22.5053C64.9793 22.4974 64.9793 22.4891 64.9775 22.4812Z" fill="#12663C"/>
<path d="M64.9739 22.5043L64.5259 24.8102L59.9932 23.9405L60.4379 21.6346C60.3588 22.0497 61.3108 22.5834 62.5626 22.8238C63.8144 23.0643 64.8915 22.9227 64.9739 22.5043Z" fill="#12663C"/>
<path d="M62.853 21.3118C64.0818 21.549 65.0206 22.0695 64.9745 22.4812C64.9773 22.4853 64.9795 22.4897 64.9811 22.4944C64.8987 22.9227 63.8215 23.0643 62.5697 22.8238C61.318 22.5834 60.366 22.0497 60.445 21.6347V21.6116C60.5471 21.2097 61.6243 21.0747 62.853 21.3118Z" fill="#135432"/>
<path d="M64.4377 22.389V22.4219C64.4277 22.4457 64.4144 22.4679 64.3982 22.4878L64.3751 22.5142C64.3267 22.5552 64.2723 22.5886 64.2137 22.613C63.7668 22.3104 63.263 22.1018 62.7329 21.9999C62.2029 21.8979 61.6577 21.9048 61.1304 22.0201C61.0835 21.9774 61.0454 21.9259 61.0184 21.8685C61.0171 21.8576 61.0171 21.8465 61.0184 21.8356C61.0134 21.8106 61.0134 21.7848 61.0184 21.7598C61.0184 21.7598 61.0184 21.7368 61.0184 21.7269C61.1007 21.4238 61.9111 21.3184 62.8532 21.4996C63.7953 21.6808 64.4739 22.0596 64.4377 22.389Z" fill="#8ABCA1"/>
<path d="M64.5168 24.8816C64.5972 24.4635 63.647 23.9295 62.3946 23.6888C61.1422 23.448 60.0618 23.5918 59.9814 24.0099C59.9011 24.4279 60.8512 24.962 62.1036 25.2027C63.356 25.4434 64.4364 25.2997 64.5168 24.8816Z" fill="#12663C"/>
<g opacity="0.86">
<path opacity="0.86" d="M71.4181 22.0596L70.8614 24.9519L65.2119 23.8648L65.7653 20.9725C65.6665 21.493 66.8491 22.1584 68.4006 22.4582C69.9522 22.758 71.3061 22.5768 71.4181 22.0596Z" fill="#12663C"/>
<path opacity="0.86" d="M71.4171 22.03C71.4698 21.5128 70.3004 20.8639 68.7818 20.5707C67.2632 20.2775 65.9224 20.4455 65.7841 20.943C65.7841 20.943 65.7841 20.9627 65.7841 20.9693C65.6853 21.4898 66.8679 22.1552 68.4194 22.455C69.9709 22.7547 71.3248 22.5768 71.427 22.0564C71.4171 22.0597 71.4171 22.0366 71.4171 22.03ZM70.7582 21.9147C70.7592 21.929 70.7592 21.9433 70.7582 21.9576C70.7483 21.9884 70.7314 22.0166 70.7088 22.0399C70.7016 22.0521 70.6914 22.0623 70.6792 22.0695C70.6209 22.1238 70.5526 22.1663 70.4782 22.1947L70.386 22.2277C70.3465 22.2277 70.3037 22.2507 70.2608 22.2639C70.1406 22.2912 70.0183 22.3088 69.8952 22.3166C69.8546 22.3199 69.8139 22.3199 69.7733 22.3166H69.6152C69.4901 22.3231 69.3647 22.3231 69.2396 22.3166H69.1276C69.0669 22.3133 69.0065 22.3067 68.9465 22.2968H68.9036L68.7027 22.2672L68.482 22.231L68.2613 22.1848C68.1954 22.1848 68.1295 22.1552 68.0669 22.1354H68.0274L67.8495 22.086L67.7441 22.0498C67.6154 22.0118 67.489 21.9667 67.3653 21.9147C67.3279 21.901 67.2915 21.8845 67.2566 21.8653C67.1171 21.8034 66.9828 21.7307 66.8547 21.6479C66.8067 21.6165 66.7605 21.5824 66.7163 21.5458L66.6472 21.4832C66.5883 21.429 66.5403 21.3642 66.5055 21.2921C66.5042 21.279 66.5042 21.2658 66.5055 21.2526C66.4937 21.2233 66.4881 21.1919 66.489 21.1604C66.489 21.1604 66.489 21.1307 66.489 21.1143C66.5912 20.7321 67.6025 20.6037 68.7752 20.8277C69.9479 21.0517 70.8373 21.5491 70.7912 21.9411L70.7582 21.9147Z" fill="#135432"/>
<path opacity="0.86" d="M70.7392 21.8983C70.7401 21.9125 70.7401 21.9268 70.7392 21.9411C70.7292 21.972 70.7123 22.0002 70.6897 22.0234C70.6825 22.0356 70.6723 22.0458 70.6601 22.0531C70.6018 22.1074 70.5336 22.1499 70.4592 22.1783C69.9028 21.8004 69.2752 21.54 68.6148 21.4131C67.9543 21.2862 67.2749 21.2955 66.6182 21.4404C66.5594 21.3862 66.5113 21.3214 66.4765 21.2493C66.4752 21.2362 66.4752 21.2229 66.4765 21.2098C66.4647 21.1805 66.4591 21.1491 66.4601 21.1176C66.4601 21.1176 66.4601 21.0879 66.4601 21.0714C66.5622 20.6893 67.5735 20.5609 68.7462 20.7849C69.9189 21.0089 70.7853 21.5063 70.7392 21.8983Z" fill="#8ABCA1"/>
<path opacity="0.86" d="M70.4297 22.1947L70.3375 22.2277L70.2123 22.2639C70.092 22.2912 69.9698 22.3089 69.8467 22.3166C69.8061 22.3199 69.7653 22.3199 69.7248 22.3166H69.5667C69.4416 22.3231 69.3162 22.3231 69.1911 22.3166H69.0791C69.0184 22.3133 68.9579 22.3067 68.8979 22.2969H68.8551L68.6542 22.2672L68.4335 22.231L68.2128 22.1849C68.1469 22.1849 68.081 22.1552 68.0184 22.1354H67.9789L67.801 22.086L67.6956 22.0498C67.5638 22.007 67.4353 21.9609 67.3168 21.9147C67.2788 21.9023 67.2424 21.8857 67.2081 21.8653C67.0686 21.8034 66.9343 21.7307 66.8062 21.6479C66.7576 21.6174 66.7113 21.5832 66.6678 21.5458L66.5986 21.4832C67.2521 21.3359 67.9287 21.3231 68.5873 21.4454C69.2459 21.5677 69.8727 21.8227 70.4297 22.1947Z" fill="#79AA8E"/>
<path opacity="0.86" d="M70.8346 25.0226C70.9345 24.5027 69.7497 23.8379 68.1882 23.5378C66.6267 23.2377 65.2799 23.4158 65.18 23.9357C65.08 24.4556 66.2649 25.1204 67.8264 25.4205C69.3878 25.7206 70.7347 25.5425 70.8346 25.0226Z" fill="#12663C"/>
</g>
</svg>
