<svg width="114" height="92" viewBox="0 0 114 92" fill="none" xmlns="http://www.w3.org/2000/svg">
<g clip-path="url(#clip0_212_167320)">
<path d="M28.9158 13.6533C28.7627 3.24109 38.69 0.535957 46.0908 6.76286C50.3782 10.3612 53.211 12.2752 60.7139 11.7138C68.2168 11.1523 72.1979 19.4719 65.4606 27.0769C60.918 32.1809 51.348 34.0183 43.0284 31.6705C34.9386 29.3992 29.0434 21.7432 28.9158 13.6533Z" fill="#7C1414"/>
<g style="mix-blend-mode:multiply" opacity="0.4">
<path d="M60.7139 11.7137C53.211 12.2752 50.3782 10.3611 46.0908 6.76281C38.69 0.535907 28.7627 3.26656 28.9158 13.6532C29.0434 21.7431 34.9386 29.3736 43.0284 31.6704C51.348 34.0183 60.918 32.1808 65.4606 27.0768C72.2234 19.4718 68.2168 11.1523 60.7139 11.7137ZM58.0343 19.9567C50.0209 18.7062 48.5408 19.9312 46.1929 22.5853C43.9727 25.1118 37.2609 24.193 36.4442 19.1911C35.0917 10.9481 31.4678 11.484 32.0293 7.86018C32.8204 2.73064 42.518 2.60304 45.5549 9.57003C48.4642 16.2563 52.1902 13.8829 56.1713 12.9897C60.1524 12.071 64.2356 11.3309 66.4814 14.3933C68.7272 17.4302 66.0476 21.2327 58.0343 19.9822V19.9567Z" fill="#7C1414"/>
</g>
<path d="M48.005 9.97845C49.3065 11.0758 50.7356 11.969 53.0579 12.3773C55.3803 12.8112 52.0882 13.9596 49.8424 13.1429C46.9331 12.1221 46.9586 9.08524 48.005 9.95293V9.97845Z" fill="#F9DDC8"/>
<g style="mix-blend-mode:overlay" opacity="0.3">
<path d="M44.5852 9.62116C42.1353 4.51714 35.7552 4.33849 33.4839 6.58426C31.5955 8.47275 32.9991 10.5144 34.8365 9.13628C36.674 7.73267 40.8082 8.57483 42.7477 10.2081C44.7128 11.8414 45.0445 10.5909 44.5597 9.62116H44.5852Z" fill="white"/>
</g>
<path d="M0.665042 60.6869C-2.21873 51.959 6.68779 43.027 19.2437 48.718C31.7996 54.4089 39.4556 72.7579 30.396 79.1124C21.3363 85.4669 15.4157 81.8175 11.1028 74.3657C6.78987 66.9393 2.09417 65.0508 0.639522 60.6869H0.665042Z" fill="#7C1414"/>
<g style="mix-blend-mode:multiply" opacity="0.4">
<path d="M19.2441 48.718C6.68816 43.027 -2.19283 51.959 0.665419 60.6869C2.09454 65.0508 6.81576 66.9393 11.1287 74.3657C15.4416 81.792 21.3622 85.4669 30.4219 79.1124C39.4815 72.7579 31.8255 54.4345 19.2696 48.718H19.2441ZM25.8793 79.1124C22.6127 81.2306 17.2535 81.1285 14.8801 77.7598C11.8177 73.4214 15.4671 71.9923 12.5578 67.3732C9.06153 61.8863 2.68151 65.1019 1.37998 59.4364C-0.253305 52.3163 4.46792 49.0242 7.88761 48.9732C11.8177 48.9221 16.7431 50.7085 17.279 59.2322C17.5597 63.8259 21.0049 67.5773 27.4615 68.7512C31.2896 69.4658 29.9115 76.5349 25.9303 79.1124H25.8793Z" fill="#7C1414"/>
</g>
<path d="M6.4838 66.8372C8.27021 68.2153 9.06133 69.134 10.6436 72.1199C12.2258 75.1057 13.0425 70.5631 10.8222 67.7304C8.60197 64.8722 4.59531 65.4081 6.4838 66.8627V66.8372Z" fill="#F9DDC8"/>
<g style="mix-blend-mode:overlay" opacity="0.3">
<path d="M4.90158 62.0394C1.15012 60.5848 0.716283 55.2255 3.24277 51.9334C5.25886 49.3304 9.6228 49.1773 7.91295 50.8871C6.53487 52.2652 3.39589 55.6083 5.76926 59.8192C6.61143 61.3248 6.27967 62.6009 4.87606 62.0649L4.90158 62.0394Z" fill="white"/>
</g>
<path d="M45.2747 68.1387C34.6328 68.1387 32.0042 57.9562 38.4608 50.4788C42.2122 46.1404 44.2028 43.2821 43.7179 35.6006C43.2331 27.919 51.8078 23.9634 59.4638 30.9559C64.6189 35.6771 66.3798 45.4513 63.8533 53.9495C61.4034 62.1925 53.5177 68.1132 45.2491 68.1387H45.2747Z" fill="#6D1212"/>
<path d="M41.3696 48.5647C42.4925 47.2377 43.4367 45.8086 43.8961 43.4352C44.3555 41.0618 45.5039 44.4305 44.6362 46.7273C43.5388 49.6876 40.4509 49.6111 41.3696 48.5647Z" fill="#F9DDC8"/>
<g style="mix-blend-mode:multiply" opacity="0.3">
<path d="M59.4892 30.9815C51.8332 23.9634 43.2584 27.9446 43.7433 35.6261C44.2282 43.3077 42.2376 46.1659 38.4862 50.5044C32.0296 57.9818 34.6582 68.1643 45.3001 68.1643C53.5686 68.1643 61.4543 62.2436 63.9042 53.9751C66.4052 45.5024 64.6698 35.7027 59.5148 30.9815H59.4892ZM56.5799 51.4231C52.7519 52.3928 49.7661 55.0469 48.1328 57.5734C46.3974 60.2275 44.5855 66.3268 42.3142 64.668C40.4512 63.2899 44.1006 59.4619 44.9428 54.9959C45.836 50.3512 44.9428 51.1934 46.4485 49.2284C47.9286 47.2888 49.4854 44.992 47.2141 40.6791C44.7641 36.0345 46.3464 33.4569 47.6734 35.8813C49.0005 38.3313 52.165 42.1338 56.5544 44.303C60.9439 46.4722 60.3824 50.4533 56.5544 51.4231H56.5799Z" fill="#6D1212"/>
</g>
<path d="M43.2588 48.5647C44.4072 47.2377 45.3259 45.8086 45.7853 43.4352C46.2446 41.0618 47.393 44.4305 46.5254 46.7273C45.428 49.6876 42.3401 49.6111 43.2333 48.5647H43.2588Z" fill="#F9DDC8"/>
<path d="M93.1495 67.2455C82.5586 71.2266 76.102 62.0394 79.7514 52.1886C81.8696 46.4721 82.7883 42.8482 79.4452 35.3708C76.102 27.8934 83.1711 20.7478 93.4302 24.8566C100.346 27.6382 105.731 36.7489 106.394 46.1403C107.032 55.2765 101.367 64.132 93.1495 67.2455Z" fill="#6D1212"/>
<g style="mix-blend-mode:multiply" opacity="0.4">
<path d="M106.394 46.1403C105.731 36.7489 100.346 27.6382 93.4302 24.8565C83.1711 20.7223 76.102 27.8934 79.4452 35.3708C82.7883 42.8482 81.8696 46.4466 79.7514 52.1886C76.102 62.0649 82.5586 71.2521 93.1495 67.2454C101.392 64.1575 107.058 55.302 106.394 46.1403ZM101.622 51.7547C97.8962 52.7755 96.2629 46.6252 87.484 44.9919C84.6513 44.456 84.4726 42.0826 86.6163 39.1478C88.7855 36.213 88.6835 34.2735 90.5209 33.2271C92.7667 31.9511 99.6571 31.8235 102.924 38.3822C104.94 42.4144 105.476 50.6829 101.597 51.7547H101.622Z" fill="#6D1212"/>
</g>
<path d="M82.3293 49.024C82.9673 47.2887 83.3501 45.5023 82.9418 42.9503C82.5079 40.3982 84.9068 43.3586 84.9323 45.9616C84.9323 49.3048 81.8444 50.4021 82.3548 49.024H82.3293Z" fill="#F9DDC8"/>
<g style="mix-blend-mode:overlay" opacity="0.3">
<path d="M97.5136 36.1109C100.984 39.7858 102.158 46.7017 101.061 49.2282C99.9635 51.7547 104.965 48.922 103.077 40.8321C101.622 34.5286 95.4209 33.9417 97.488 36.1364L97.5136 36.1109Z" fill="white"/>
</g>
<path d="M74.5458 69.823C65.3841 74.4167 58.6978 66.7606 61.0457 57.5224C62.3983 52.1631 62.8831 48.8455 59.1572 42.4144C55.4313 36.0089 61.1222 28.8888 70.7433 31.6194C77.2254 33.4569 82.9675 41.164 84.4476 49.5601C85.9023 57.7265 81.6404 66.2502 74.5203 69.823H74.5458Z" fill="#7C1414"/>
<g style="mix-blend-mode:multiply" opacity="0.3">
<path d="M84.4728 49.5601C82.9926 41.164 77.2506 33.4569 70.7685 31.6194C61.1219 28.8888 55.4564 36.0089 59.1823 42.4144C62.9083 48.82 62.4234 52.1631 61.0708 57.5224C58.723 66.7606 65.4093 74.4167 74.571 69.823C81.6911 66.2502 85.9529 57.752 84.4983 49.5601H84.4728ZM75.9491 48.871C72.121 53.2605 74.2137 59.4364 75.7959 63.4685C77.3527 67.5007 74.8006 69.1085 72.759 68.1387C70.7174 67.169 71.2023 64.1321 69.9774 60.5337C68.0378 54.6896 64.3884 54.562 65.0009 53.2605C65.6134 51.959 66.2514 49.458 64.5926 47.5695C63.5718 46.4211 62.7296 45.5789 64.5926 45.7831C66.4556 45.9873 70.3602 46.0893 73.4991 45.1961C76.6381 44.3029 79.726 43.2566 80.0323 44.5581C80.3385 45.8597 78.4755 45.9617 75.9491 48.8455V48.871Z" fill="#7C1414"/>
</g>
<path d="M62.5003 48.6414C63.1128 50.1981 63.0618 51.2189 62.5003 53.4647C61.9389 55.7105 64.593 53.873 64.593 51.0658C64.593 47.8758 61.8113 46.855 62.5003 48.6669V48.6414Z" fill="#F9DDC8"/>
<path d="M23.3268 5.81858C33.2796 7.09459 37.4904 21.5135 34.428 33.6865C31.2125 46.4466 16.7171 55.6338 8.01469 46.4466C4.00804 42.2358 4.67156 34.7839 8.01469 30.0116C11.3578 25.2394 10.8985 21.2327 11.562 15.6949C12.2255 10.157 16.3343 4.92538 23.3268 5.81858Z" fill="#891B1B"/>
<g style="mix-blend-mode:multiply" opacity="0.4">
<path d="M23.3268 5.81858C16.3343 4.92538 12.2255 10.157 11.562 15.6949C10.8985 21.2583 11.3323 25.2394 8.01469 30.0116C4.67156 34.7839 4.00804 42.2358 8.01469 46.4466C16.7171 55.6338 31.2125 46.4466 34.428 33.6865C37.4904 21.539 33.2796 7.09459 23.3268 5.81858ZM27.2313 21.59C22.5356 25.0097 18.529 27.6383 18.529 35.3709C18.529 43.1035 17.2785 49.6111 11.2302 47.7226C4.74812 45.7065 3.75284 34.6818 9.23966 31.6449C15.1093 28.4039 15.39 25.5456 13.7567 21.3348C13.0677 19.5484 12.2766 18.5021 12.3786 16.3073C12.9401 4.67018 23.2502 5.3337 26.823 8.03883C30.3703 10.7695 31.9526 18.1448 27.2313 21.5645V21.59Z" fill="#891B1B"/>
</g>
<path d="M11.5879 22.3556C11.4347 24.4228 11.2561 26.3113 10.0822 27.9445C8.90824 29.5778 12.9149 30.2669 13.6039 26.643C14.3695 22.5088 11.7665 20.1609 11.6134 22.3556H11.5879Z" fill="#F9DDC8"/>
<g style="mix-blend-mode:overlay" opacity="0.3">
<path d="M13.0675 15.4141C13.042 11.8668 15.9768 6.15031 22.3824 6.83935C25.2917 7.14559 26.7718 10.0804 24.0157 10.1825C21.234 10.2846 16.3596 12.3772 15.6451 16.6136C15.2368 19.0635 13.1186 19.3187 13.0931 15.4141H13.0675Z" fill="white"/>
</g>
<path d="M82.4575 0.0255115C89.1437 -0.535931 91.8744 5.9717 97.6164 8.37059C103.358 10.7695 110.683 9.92731 113.413 16.537C116.144 23.1212 106.804 35.5495 87.3318 29.8585C68.8808 24.4738 68.7787 1.19944 82.4575 0.0255115Z" fill="#7C1414"/>
<g style="mix-blend-mode:multiply" opacity="0.4">
<path d="M113.413 16.537C110.683 9.95285 103.358 10.795 97.6164 8.3706C91.8744 5.97171 89.1437 -0.561439 82.4575 0.0255234C68.7787 1.19945 68.8808 24.4483 87.3318 29.8585C106.804 35.5495 116.144 23.1212 113.413 16.537ZM97.8716 27.332C86.7193 26.7961 90.6239 18.1703 80.8497 17.2261C76.5368 16.8178 73.653 14.7251 73.4489 10.5398C73.1171 3.75146 79.9055 -0.051037 84.7543 1.27601C89.8328 2.65409 90.2666 6.71179 92.2062 9.36588C94.1712 12.02 95.7535 12.02 99.2497 11.6372C102.746 11.2544 106.855 10.106 110.683 13.4491C114.664 16.8943 111.806 28.0211 97.8461 27.3576L97.8716 27.332Z" fill="#7C1414"/>
</g>
<path d="M93.3287 7.06902C94.7323 8.34503 97.463 9.62104 99.3004 9.72312C101.138 9.8252 97.8968 11.9178 94.8089 10.4122C91.721 8.82991 92.359 6.20134 93.3287 7.06902Z" fill="#F9DDC8"/>
<g style="mix-blend-mode:overlay" opacity="0.3">
<path d="M75.1076 5.71653C76.894 2.16924 81.6153 0.79115 85.1626 1.88851C88.7099 3.0114 89.6541 7.98782 91.9254 10.2591C93.4566 11.7903 90.4197 10.9737 88.4802 8.11542C86.5406 5.25717 82.9933 3.87908 79.5992 4.59365C77.7362 4.97645 75.6691 6.91598 75.2608 9.82527C75.0311 11.4075 73.2447 9.31487 75.0821 5.71653H75.1076Z" fill="white"/>
</g>
<path d="M20.5456 38.3312C21.4898 44.2008 21.1836 47.008 19.3972 52.8777C17.6108 58.7473 18.2488 63.8258 23.4804 66.5565C28.712 69.2871 43.7178 65.8674 45.3001 47.646C46.9079 29.4502 40.0174 22.2791 32.2593 22.6108C24.0929 22.9681 18.9123 28.2508 20.5456 38.3312Z" fill="#A01F1F"/>
<g style="mix-blend-mode:multiply" opacity="0.4">
<path d="M32.2847 22.6108C24.1183 22.9681 18.9377 28.2508 20.571 38.3312C21.5152 44.2008 21.209 47.008 19.4226 52.8777C17.6362 58.7473 18.2742 63.8258 23.5058 66.5565C28.7374 69.2871 43.7432 65.8674 45.3255 47.646C46.9332 29.4502 40.0428 22.2791 32.2847 22.6108ZM28.0739 62.805C20.3923 62.0904 20.2137 56.0932 21.7959 51.7037C22.8678 48.7689 26.5172 49.4069 26.7213 43.9456C26.9255 38.4843 21.8215 37.9484 22.3574 31.9001C22.8167 26.7706 25.037 24.2951 30.4728 23.2488C36.6486 22.0749 43.7688 26.694 44.4578 40.1942C45.2489 55.3276 35.3982 63.4685 28.0739 62.805Z" fill="#7C1414"/>
</g>
<path d="M22.2045 40.8833C22.7659 43.0525 22.5618 45.3238 21.8472 47.2378C21.1582 49.1518 24.9607 48.5904 24.8841 44.0733C24.8075 39.5307 21.5665 38.4589 22.2045 40.9088V40.8833Z" fill="#F9DDC8"/>
<g style="mix-blend-mode:overlay" opacity="0.3">
<path d="M27.028 27.2811C32.3362 26.6941 40.0433 29.2206 41.1917 41.113C41.3703 43.0525 44.7134 39.0969 41.1917 30.3435C37.6699 21.6156 27.7171 22.7385 25.114 26.1582C23.8125 27.8935 26.2879 27.3576 27.028 27.2811Z" fill="white"/>
</g>
<path d="M64.1079 21.1562C72.9123 20.1354 80.2876 15.8225 85.7234 22.2535C91.1592 28.6846 89.628 42.0316 71.6363 44.6347C53.7722 47.2122 44.6616 34.5542 47.1625 25.6222C49.2297 18.2724 58.4169 21.7942 64.1079 21.1306V21.1562Z" fill="#991A1A"/>
<g style="mix-blend-mode:multiply" opacity="0.4">
<path d="M85.7236 22.2535C80.2878 15.8225 72.9125 20.1354 64.108 21.1562C58.4171 21.8197 49.2298 18.2979 47.1627 25.6477C44.6617 34.5798 53.7979 47.2377 71.6365 44.6602C89.6282 42.0571 91.1594 28.7101 85.7236 22.2791V22.2535ZM66.4814 40.9598C48.3366 41.3681 45.8101 28.3273 49.5871 23.6571C52.2667 20.314 58.2895 21.7176 60.9691 23.9123C63.6487 26.1071 67.6043 25.8008 69.6459 23.1978C71.6875 20.5692 79.0118 18.0172 82.9929 21.59C89.6537 27.5872 85.6215 40.5004 66.5069 40.9598H66.4814Z" fill="#7C1414"/>
</g>
<path d="M61.99 22.2535C63.6488 22.5087 66.5581 22.4577 68.1914 21.7176C69.8247 20.9775 69.0846 23.555 65.5883 24.0144C62.0921 24.4738 60.2291 21.9728 61.99 22.2535Z" fill="#F9DDC8"/>
<g style="mix-blend-mode:overlay" opacity="0.3">
<path d="M60.9946 27.3321C63.8018 30.1648 68.5996 29.8075 70.9219 26.6941C73.0656 23.8103 74.3671 22.0494 77.3785 20.7734C77.991 20.5182 76.5619 20.5948 75.8218 20.7989C71.2026 22.1005 69.9521 24.8821 68.2423 25.8009C63.3169 28.4294 61.8623 24.6269 58.2639 22.8405C54.7166 21.0797 51.1183 22.3812 50.3527 23.3765C49.5616 24.3717 51.0928 22.815 53.9766 22.8405C56.8603 22.8405 59.4634 25.8009 60.9946 27.3321Z" fill="white"/>
</g>
<path d="M45.7333 69.823C48.1067 63.4685 45.2229 59.3597 52.343 54.5364C59.4632 49.7131 70.2582 55.2255 70.8962 68.6235C71.5342 82.0216 62.6532 91.0812 52.981 91.9234C43.3089 92.7656 40.1444 84.9564 40.4252 79.8524C40.7059 74.7484 44.3042 73.651 45.7589 69.7975L45.7333 69.823Z" fill="#A01F1F"/>
<g style="mix-blend-mode:multiply" opacity="0.4">
<path d="M70.871 68.6491C70.233 55.251 59.438 49.7387 52.3179 54.562C45.1978 59.3853 48.1071 63.494 45.7082 69.8485C44.2791 73.6765 40.6552 74.7994 40.3745 79.9034C40.0938 85.0074 43.2327 92.8166 52.9304 91.9744C62.628 91.1323 71.4835 82.0726 70.8455 68.6746L70.871 68.6491ZM68.2169 75.9733C65.2821 86.6407 53.3642 89.7032 47.2139 86.2835C41.0891 82.8638 41.3698 76.0754 47.2139 73.0896C50.9143 71.2011 50.2763 67.8835 48.694 63.9789C46.2696 58.0072 54.1298 52.1375 60.1781 53.7964C66.8644 55.6338 71.1262 65.3059 68.1914 75.9733H68.2169Z" fill="#A01F1F"/>
</g>
<path d="M47.5714 67.0413C47.5204 68.547 46.6527 70.6396 45.734 71.8901C44.7897 73.1406 47.9287 72.8854 48.7198 70.2058C49.511 67.5517 47.6225 65.0507 47.5714 67.0157V67.0413Z" fill="#F9DDC8"/>
<g style="mix-blend-mode:overlay" opacity="0.3">
<path d="M50.3783 57.7264C52.8538 54.4854 58.213 52.9031 62.3728 55.4296C66.9409 58.2113 69.4164 64.2851 67.8596 73.6765C67.2727 77.2238 65.0269 79.444 65.129 76.8665C65.3076 73.3703 65.5118 67.7558 63.1129 63.1367C60.714 58.5431 55.0996 56.6546 51.0164 59.9977C48.643 61.9372 49.4596 58.9259 50.3783 57.7264Z" fill="white"/>
</g>
<path d="M99.2495 53.6944C105.451 57.6245 112.29 59.0281 111.933 65.5102C111.55 72.86 104.966 77.9385 95.396 76.6625C85.8515 75.412 78.5783 67.6028 75.5158 59.9213C72.4534 52.2397 77.7361 44.4306 86.8213 45.9618C92.5378 46.9315 92.9206 49.6622 99.224 53.6689L99.2495 53.6944Z" fill="#991A1A"/>
<g style="mix-blend-mode:multiply" opacity="0.4">
<path d="M99.2748 53.6944C92.9458 49.6877 92.5885 46.9571 86.872 45.9873C77.7869 44.4306 72.5042 52.2653 75.5666 59.9468C78.629 67.6284 85.8767 75.4375 95.4468 76.688C104.991 77.9385 111.576 72.8855 111.984 65.5357C112.341 59.0536 105.502 57.65 99.3003 53.7199L99.2748 53.6944ZM95.7786 73.3959C82.7378 71.9157 75.1328 61.8608 75.8218 54.1793C76.5109 46.4722 86.183 44.5837 90.8277 48.2841C93.8901 50.734 91.9505 54.6386 96.7483 57.1906C101.572 59.7426 101.623 56.7313 106.446 59.5385C111.601 62.5499 108.819 74.9016 95.7786 73.4214V73.3959Z" fill="#7C1414"/>
</g>
<path d="M95.3708 52.061C97.1317 53.8475 99.0967 55.149 101.291 55.787C103.486 56.425 99.8113 57.701 97.3103 56.5271C93.3292 54.6131 93.9417 50.6319 95.3708 52.0866V52.061Z" fill="#F9DDC8"/>
<g style="mix-blend-mode:overlay" opacity="0.3">
<path d="M86.0815 48.5648C79.7525 49.5346 79.3952 57.1396 82.0238 62.703C84.6779 68.2919 77.6088 64.5149 76.639 56.7057C75.6693 48.8966 82.279 46.8039 85.8007 47.0336C88.5059 47.2123 87.4851 48.3351 86.0815 48.5648Z" fill="white"/>
</g>
</g>
<defs>
<clipPath id="clip0_212_167320">
<rect width="113.743" height="92" fill="white" transform="translate(0.128906)"/>
</clipPath>
</defs>
</svg>
