<svg width="145" height="72" viewBox="0 0 145 72" fill="none" xmlns="http://www.w3.org/2000/svg">
<g clip-path="url(#clip0_203_152760)">
<path d="M144.662 41.0202C144.66 40.9497 144.655 40.8792 144.653 40.8087C144.65 40.7322 144.647 40.6563 144.643 40.5798C144.629 40.3052 144.612 40.0306 144.587 39.7567C144.582 39.7063 144.58 39.6553 144.575 39.6043C144.575 39.5976 144.574 39.5915 144.574 39.5848C144.563 39.4673 144.55 39.3478 144.537 39.2283C144.525 39.1081 144.511 38.9913 144.496 38.8711C144.492 38.8389 144.486 38.8073 144.482 38.7751C144.454 38.5609 144.421 38.3481 144.388 38.1353C144.371 38.0259 144.357 37.9157 144.339 37.8063L144.337 37.7909C144.33 37.7506 144.32 37.7096 144.314 37.6693C144.298 37.5801 144.28 37.4901 144.263 37.4008C144.244 37.3014 144.226 37.2027 144.206 37.1034C144.183 36.9859 144.159 36.8691 144.133 36.7542L144.13 36.7435C144.121 36.7026 144.112 36.6629 144.102 36.622C144.092 36.577 144.081 36.532 144.071 36.4877C144.065 36.4595 144.059 36.4306 144.052 36.4024C144.014 36.2373 143.968 36.0748 143.926 35.911C143.893 35.7848 143.863 35.6572 143.828 35.5323C143.824 35.5155 143.819 35.4994 143.814 35.4826C143.79 35.3954 143.766 35.3074 143.74 35.2201C143.677 35.0013 143.609 34.7878 143.539 34.5716C143.538 34.5676 143.536 34.5642 143.535 34.5602C143.528 34.5394 143.52 34.5185 143.513 34.4977C143.458 34.3299 143.4 34.1614 143.341 33.9935C143.325 33.9465 143.309 33.8995 143.291 33.8559C143.267 33.7887 143.241 33.7209 143.215 33.6538C143.203 33.6196 143.19 33.5853 143.177 33.5511C143.166 33.5202 143.154 33.4913 143.142 33.4611C143.125 33.4148 143.107 33.3678 143.088 33.3221C143.047 33.21 143.003 33.1006 142.956 32.9911C142.922 32.9025 142.886 32.8166 142.849 32.7306C142.835 32.6977 142.821 32.6655 142.806 32.6326C142.792 32.6004 142.778 32.5682 142.764 32.5359C142.734 32.4661 142.704 32.3956 142.672 32.3271C142.597 32.1579 142.518 31.9888 142.438 31.8243C142.424 31.7947 142.408 31.7638 142.394 31.7343C142.367 31.6793 142.34 31.6235 142.313 31.5678C142.306 31.5537 142.299 31.5396 142.292 31.5255C142.227 31.3953 142.159 31.2623 142.091 31.1321C142.024 31.0045 141.956 30.8769 141.888 30.7494L141.867 30.7104C141.443 29.9424 140.974 29.1945 140.455 28.4727C131.384 15.8124 115.999 11.5988 115.908 11.574L115.906 11.5719C115.906 11.5719 114.204 10.6683 112.349 12.3736C111.264 10.7596 110.061 9.24157 108.72 7.87664C97.0348 -4.01359 74.5071 1.08491 74.4359 1.10102H74.4333C74.4333 1.10102 69.8672 1.87983 67.1816 6.25122C66.7217 6.14312 66.2645 6.06659 65.81 6.02697C51.8566 4.79565 36.4698 16.8954 36.453 16.9088H36.4517C36.4517 16.9088 32.1246 18.9411 29.7915 23.9778C25.4812 23.8455 23.1059 24.9164 23.1059 24.9164C12.3771 31.1938 6.02719 38.8671 2.50309 44.4463C2.42722 44.5658 2.35471 44.686 2.28153 44.8082C-0.254963 49.1292 -0.0159498 54.5601 2.9274 58.6521C2.9979 58.7508 3.06772 58.8502 3.13889 58.9462C5.11813 61.668 7.91579 63.6788 11.1116 64.7289C62.1919 81.5034 121.589 64.6637 136.699 59.811C139.08 59.0449 140.973 57.2114 141.812 54.8541C142.44 53.0904 142.966 51.3609 143.403 49.7308C143.662 48.772 143.888 47.8475 144.086 46.97C144.163 46.6323 144.232 46.2933 144.293 45.9536C144.306 45.879 144.316 45.8038 144.33 45.7287C144.371 45.491 144.412 45.254 144.445 45.0163C144.449 44.9901 144.451 44.9633 144.454 44.9371C144.506 44.5497 144.551 44.1603 144.584 43.7722C144.586 43.7514 144.59 43.7299 144.591 43.7085C144.614 43.4218 144.632 43.1358 144.645 42.8498C144.647 42.7981 144.649 42.7457 144.651 42.694C144.655 42.5953 144.661 42.4973 144.663 42.3986V42.3959C144.667 42.2871 144.663 42.177 144.666 42.0676C144.668 41.891 144.67 41.7138 144.668 41.5365C144.668 41.4848 144.67 41.4338 144.669 41.3828C144.666 41.2633 144.663 41.1431 144.661 41.0209L144.662 41.0202Z" fill="#DB8F3B"/>
<path d="M64.9202 44.6149C66.7538 46.5995 70.0335 44.7605 69.2701 42.169C66.7692 33.6981 59.1765 21.5293 36.4535 16.9088H36.4521C36.4521 16.9088 32.1251 18.9404 29.792 23.9772C36.8952 24.1947 49.2554 27.6798 64.9195 44.6149H64.9202Z" fill="#F7B66F"/>
<path d="M92.6345 34.6253C93.6738 36.4749 96.4976 35.5733 96.2814 33.4638C95.3046 24.0349 91.0379 8.92735 74.4359 1.10034C74.4359 1.10034 74.4372 1.10034 74.4379 1.10034H74.4352C74.4352 1.10034 69.8691 1.87915 67.1836 6.25054C76.7199 8.49833 87.1882 24.9218 92.6351 34.6253H92.6345Z" fill="#F7B66F"/>
<path d="M124.187 37.1417C125.442 31.3906 125.174 22.0758 115.907 11.5713H115.909L115.907 11.5693C115.907 11.5693 114.205 10.6656 112.35 12.371C117.678 20.2993 120.077 30.6038 121.116 37.0571C121.389 38.7604 123.82 38.8255 124.187 37.1404V37.1417Z" fill="#F7B66F"/>
<path d="M135.111 53.7832C133.397 52.9809 132.402 51.2071 131.173 49.767C130.506 48.9828 129.615 48.2591 128.665 47.8865C127.243 48.7223 125.768 49.4568 124.263 50.1061C123.987 50.6297 123.729 51.1736 123.435 51.6691C121.88 54.2814 118.717 55.839 115.699 55.4798C114.248 55.308 112.662 54.7191 111.303 53.8309C107.278 54.513 103.202 54.8078 99.1284 54.7453C96.925 57.0193 94.7604 59.5142 91.7781 60.5307C87.6625 61.9345 83.2113 60.1507 79.2313 58.397C76.866 57.353 74.498 56.3103 72.1334 55.2663C70.3569 54.4848 68.5025 53.6852 66.5616 53.7611C62.4487 53.9175 59.4509 57.8351 55.4784 58.916C50.9284 60.156 46.5812 57.4967 42.0876 55.6497C29.2702 58.4655 21.4949 62.2373 14.7488 61.6123C1.51646 60.3809 2.28251 44.8075 2.28251 44.8075C-0.253986 49.1285 -0.0149733 54.5594 2.92838 58.6515C2.99887 58.7501 3.0687 58.8495 3.13986 58.9455C5.11911 61.6673 7.91677 63.6781 11.1126 64.7282C62.1929 81.5027 121.59 64.663 136.7 59.8103C139.081 59.0442 140.974 57.2107 141.813 54.8534C142.441 53.0897 142.967 51.3602 143.404 49.7301C141.459 52.7567 138.208 55.2314 135.111 53.7832Z" fill="#D18735"/>
<path d="M10.5312 59.8157C14.2561 62.2434 19.2492 60.8395 23.1956 58.7918C27.144 56.7474 31.0615 54.0565 35.5054 54.0619C37.7586 54.0646 39.9386 54.7621 42.0877 55.6484C53.5146 53.1374 68.9525 51.3844 91.2438 54.1847C93.8642 54.5157 96.4947 54.7031 99.1279 54.7447L99.5106 54.3539C99.8859 53.9739 100.277 53.5959 100.683 53.2341C103.391 50.8144 107.515 50.7103 110.276 53.0676C110.596 53.3408 110.94 53.5966 111.302 53.8309C112.021 53.7114 112.735 53.5758 113.448 53.4301C116.967 52.7057 120.691 51.6483 124.263 50.1068C124.752 49.1688 125.307 48.294 126.244 47.869C127.031 47.5119 127.87 47.577 128.664 47.8872C134.816 44.2879 139.947 38.8671 141.865 30.7145L141.867 30.7091C141.443 29.941 140.973 29.1931 140.455 28.4714C131.384 15.8111 115.998 11.5975 115.908 11.5726H115.906C125.174 22.0771 125.442 31.3919 124.186 37.143C123.819 38.8282 121.388 38.763 121.115 37.0597C120.076 30.6064 117.678 20.3026 112.349 12.3736C111.264 10.7596 110.061 9.24157 108.719 7.87664C97.0345 -4.01359 74.5068 1.08491 74.4357 1.10102H74.4337C91.0357 8.92803 95.3023 24.0355 96.2792 33.4645C96.4954 35.574 93.6715 36.4756 92.6322 34.626C87.1853 24.9224 76.717 8.49901 67.1807 6.25122C66.7208 6.14312 66.2636 6.06659 65.809 6.02697C51.8556 4.79565 36.4688 16.8954 36.4521 16.9088C59.1758 21.5299 66.7678 33.6988 69.2687 42.1696C70.0321 44.7612 66.7523 46.6001 64.9188 44.6155C49.2547 27.6805 36.8945 24.1953 29.7913 23.9778C25.481 23.8455 23.1056 24.9164 23.1056 24.9164C12.3769 31.1938 6.02691 38.8671 2.50281 44.4463C2.42694 44.5658 2.35443 44.686 2.28125 44.8082C3.34674 48.3974 4.81036 51.8698 6.64391 55.1334C7.64629 56.92 8.81383 58.6991 10.5299 59.8163L10.5312 59.8157ZM126.954 19.0458C127.634 19.4493 128.31 19.9112 128.851 20.4973C128.974 20.6309 129.094 20.7713 129.202 20.9196C130.064 21.119 130.941 21.6347 131.501 22.0221C133.918 23.6945 135.519 26.4921 135.741 29.4227C135.814 29.561 135.881 29.7054 135.939 29.8625C136.027 30.1022 135.93 30.3197 135.761 30.4634C135.671 33.0798 134.519 35.6545 132.595 37.4357C131.84 38.1346 130.931 38.7328 129.907 38.8402C128.884 38.9483 127.747 38.4475 127.372 37.4894C127.117 36.8388 127.24 36.1097 127.352 35.4202C127.745 32.9864 127.946 30.4869 127.785 28.0168C127.537 27.7268 127.505 27.2703 127.688 26.9359C127.619 26.3149 127.534 25.6959 127.412 25.0822C127.194 23.9845 126.41 22.5014 127.132 21.5071C126.725 21.1351 126.313 20.7726 125.925 20.3792C125.248 19.6923 126.121 18.5517 126.953 19.0465L126.954 19.0458ZM102.646 5.0293C103.419 5.34485 104.104 5.75909 104.737 6.3056C104.999 6.53118 105.266 6.7796 105.428 7.09112C105.56 7.34557 105.474 7.70946 105.611 7.92901C105.733 8.12304 105.611 8.36608 105.407 8.4312C105.131 8.51983 104.881 8.4641 104.671 8.26201C104.443 8.04381 104.331 7.90685 104.052 7.73095C103.364 7.29723 102.829 6.71044 102.097 6.33447C101.382 5.96789 101.899 4.72314 102.647 5.0293H102.646ZM95.9448 4.91785C95.9683 4.87018 95.9912 4.82251 96.014 4.77484C96.0986 4.60095 96.3128 4.49689 96.4981 4.49689C96.6834 4.49689 96.8982 4.60095 96.9821 4.77484C97.005 4.82251 97.0285 4.87018 97.0513 4.91785C97.109 5.01788 97.1385 5.12598 97.1385 5.24145C97.1385 5.35693 97.109 5.46502 97.0513 5.56506C96.9371 5.75976 96.7236 5.88263 96.4981 5.88263C96.2725 5.88263 96.059 5.75976 95.9448 5.56506C95.8864 5.46502 95.8576 5.3576 95.8576 5.24145C95.8576 5.12598 95.8871 5.01788 95.9448 4.91785ZM90.0279 7.6242C90.1266 6.77825 90.2904 5.90008 90.5368 5.08301C90.6295 4.77618 90.7436 4.47137 90.984 4.24713C91.0854 4.15247 91.2216 4.05914 91.3324 3.97522C91.37 3.94635 91.4076 3.91748 91.4445 3.88861C91.4486 3.8866 91.4499 3.8866 91.4539 3.88458C91.5479 3.69928 91.8232 3.68048 91.9608 3.8208C92.0105 3.87519 92.0622 3.92621 92.1173 3.97522C92.3026 4.1471 92.3153 4.43512 92.2039 4.64795C92.0991 4.84735 91.9219 4.98498 91.8138 5.177C91.7064 5.36902 91.6815 5.60736 91.6231 5.8175C91.4425 6.47076 91.1847 7.09716 91.0357 7.76049C90.9101 8.31908 89.9614 8.1989 90.0286 7.6242H90.0279ZM85.298 3.09705C85.4867 3.07691 85.6747 2.92316 85.8573 2.87079C86.0936 2.80365 86.3601 2.79157 86.6012 2.85401C86.9738 2.95069 87.2934 3.21723 87.6391 3.37836C88.2299 3.65296 88.7617 4.25519 88.4421 4.93127C88.3347 5.1582 87.9869 5.13403 87.8728 4.93127C87.8372 4.86883 87.7821 4.82385 87.7788 4.80707C87.6646 4.80102 87.531 4.81244 87.4216 4.78693C87.2115 4.73792 87.004 4.69092 86.8039 4.61035C86.6247 4.53851 86.2829 4.30554 86.1822 4.30756C86.0688 4.31024 85.8915 4.42841 85.7821 4.45929C85.623 4.5036 85.4618 4.5177 85.298 4.52643C84.3641 4.57477 84.4037 3.19306 85.298 3.09772V3.09705ZM94.7538 13.9225C94.7397 13.9332 94.7256 13.9446 94.7115 13.9554C94.6551 13.9795 94.5987 14.003 94.5423 14.0265C94.4799 14.0353 94.4168 14.0433 94.3536 14.052C94.2912 14.0433 94.2281 14.0353 94.1657 14.0265C94.0737 14.0044 93.9931 13.9621 93.9253 13.8996C93.8716 13.8681 93.83 13.8258 93.7984 13.7727C93.7548 13.7284 93.7246 13.6767 93.7078 13.6163C93.6756 13.5613 93.6594 13.5015 93.6594 13.4377C93.6427 13.3753 93.6427 13.3122 93.6594 13.2497C93.6635 13.1551 93.6917 13.0678 93.7434 12.9866C93.7803 12.9389 93.8172 12.8912 93.8541 12.8435C93.8844 12.82 93.9146 12.7965 93.9448 12.7731C93.127 11.6001 92.3509 10.4165 91.7587 9.17644C88.5609 2.48005 102.654 7.47717 104.855 9.16368C106.214 10.205 107.403 11.4605 108.387 12.861C108.523 12.6213 108.77 12.4468 109.13 12.4468C110.242 12.4468 110.28 14.1011 109.256 14.2293C110.046 15.6144 110.647 17.1068 111.021 18.6564C111.341 18.9538 111.673 19.2291 112.079 19.4224C112.57 19.6568 112.993 19.8736 113.291 20.3503C113.438 20.5853 113.432 20.9096 113.291 21.1452L113.259 21.1989C113.14 21.399 112.907 21.5494 112.668 21.538C112.303 21.5212 112.151 21.352 111.882 21.16C111.734 21.0553 111.566 20.9787 111.4 20.9002C111.662 23.3212 111.488 25.7858 111.283 28.2209C111.08 30.644 110.484 33.5632 108.184 34.3547C106.493 34.9361 104.589 33.972 103.491 32.5594C102.394 31.1475 101.908 29.371 101.37 27.6657C100.816 25.9114 100.179 24.1839 99.4656 22.488C99.4622 22.4907 99.4609 22.4947 99.4575 22.4974C99.3843 22.5766 99.2971 22.6323 99.1964 22.6652C99.0997 22.7163 98.9956 22.7391 98.8835 22.7351C98.6633 22.7351 98.4686 22.6431 98.3094 22.4974C98.1503 22.351 98.0812 22.1328 98.0718 21.9234C98.0677 21.8119 98.0906 21.7072 98.1423 21.6105C98.1745 21.5098 98.2309 21.4225 98.3101 21.3493C98.384 21.2701 98.4713 21.2144 98.5713 21.1815C98.6633 21.1331 98.762 21.1117 98.8674 21.113C98.3779 20.0254 97.8596 18.9511 97.3071 17.8944C96.5894 16.5221 95.6756 15.2189 94.7565 13.9225H94.7538ZM45.9763 16.038C45.268 16.038 45.2694 14.9389 45.9763 14.9389C46.6833 14.9389 46.6833 16.038 45.9763 16.038ZM66.935 31.4094C62.7361 25.6583 57.3415 22.0429 51.1628 18.7504C48.78 17.4808 45.7749 14.8973 48.6652 12.4696C51.2413 10.3057 56.2834 9.20531 59.5517 9.01128C63.5888 8.7716 67.5862 10.1681 70.8579 12.5743C71.0452 12.0506 71.2029 11.4518 71.5776 11.0617C71.7971 10.8321 72.2671 10.8589 72.4114 11.1691C72.7673 11.9338 72.3759 12.7267 72.0361 13.5129C72.9479 14.2971 73.7932 15.1578 74.5438 16.0904C74.7673 16.3683 74.9835 16.651 75.1923 16.939C75.5857 17.0108 75.763 17.3761 75.7281 17.7165C78.5116 21.9267 79.8222 27.0601 79.8974 32.1284C79.9256 34.06 79.7571 36.0856 78.7325 37.7231C77.7073 39.3612 75.6005 40.4596 73.7932 39.7775C72.8317 39.4149 72.0999 38.6274 71.454 37.8285C69.8078 35.7928 68.4785 33.5229 66.935 31.4087V31.4094ZM11.4463 40.4791C14.2312 35.58 18.9444 31.9888 24.0845 29.6785C26.4209 28.6285 28.9158 27.8074 31.4778 27.804C33.2663 27.8013 35.0341 28.1981 36.7408 28.7325C43.6869 30.9072 49.8489 35.4813 53.9839 41.4667C54.8494 42.7195 55.1924 44.2811 54.8131 45.7555C54.6419 46.4229 54.3404 46.9768 53.5731 47.3292C50.2497 48.8566 46.5202 49.1896 42.8759 49.5012C35.639 50.1195 28.4015 50.7385 21.1646 51.3569C19.1746 51.5267 17.1491 51.6946 15.198 51.2696C13.247 50.8439 11.3456 49.7274 10.4648 47.9348C9.31401 45.591 10.1566 42.749 11.4463 40.4791Z" fill="#D17229"/>
<path d="M42.0879 55.6484C46.5808 57.4954 50.9287 60.1547 55.4787 58.9147C59.4506 57.8337 62.449 53.9162 66.5619 53.7598C68.5022 53.6839 70.3566 54.4835 72.1337 55.265C74.4983 56.309 76.8663 57.3517 79.2316 58.3957C83.2116 60.1487 87.6628 61.9332 91.7784 60.5293C94.7607 59.5135 96.9253 57.018 99.1288 54.744C96.4956 54.7024 93.8644 54.5151 91.2447 54.1841C68.9534 51.3837 53.5155 53.1367 42.0886 55.6477L42.0879 55.6484Z" fill="#C76A22"/>
<path d="M111.302 53.8303C112.661 54.7186 114.248 55.3074 115.698 55.4792C118.717 55.8384 121.879 54.2815 123.434 51.6685C123.728 51.1736 123.986 50.6291 124.262 50.1055C120.691 51.6476 116.966 52.7051 113.448 53.4288C112.734 53.5745 112.02 53.7101 111.302 53.8296V53.8303Z" fill="#C76A22"/>
<path d="M144.671 41.3821C144.668 41.2626 144.665 41.1424 144.663 41.0202C144.661 40.9497 144.656 40.8792 144.653 40.8088C144.651 40.7322 144.647 40.6563 144.643 40.5798C144.63 40.3052 144.612 40.0306 144.588 39.7567C144.583 39.7063 144.58 39.6553 144.576 39.6043C144.576 39.5976 144.575 39.5915 144.574 39.5848C144.564 39.4673 144.551 39.3478 144.538 39.2283C144.525 39.1081 144.512 38.9913 144.496 38.8711C144.492 38.8389 144.486 38.8073 144.482 38.7751C144.455 38.561 144.422 38.3481 144.388 38.1353C144.371 38.0259 144.358 37.9158 144.34 37.8063L144.337 37.7909C144.33 37.7506 144.321 37.7096 144.314 37.6694C144.298 37.5801 144.281 37.4901 144.263 37.4008C144.245 37.3014 144.227 37.2027 144.207 37.1034C144.183 36.9859 144.16 36.8691 144.134 36.7543L144.131 36.7435C144.122 36.7026 144.112 36.6629 144.103 36.622C144.093 36.577 144.082 36.532 144.072 36.4877C144.065 36.4595 144.059 36.4306 144.053 36.4025C144.014 36.2373 143.969 36.0748 143.926 35.911C143.893 35.7848 143.864 35.6572 143.829 35.5323C143.824 35.5155 143.82 35.4994 143.815 35.4827C143.791 35.3954 143.766 35.3074 143.74 35.2201C143.678 35.0013 143.61 34.7878 143.54 34.5716C143.538 34.5676 143.537 34.5642 143.536 34.5602C143.529 34.5394 143.521 34.5185 143.514 34.4977C143.458 34.3299 143.401 34.1614 143.342 33.9935C143.326 33.9465 143.31 33.8995 143.292 33.8559C143.268 33.7887 143.241 33.7209 143.216 33.6538C143.203 33.6196 143.19 33.5853 143.178 33.5511C143.166 33.5202 143.154 33.4913 143.143 33.4611C143.125 33.4148 143.108 33.3678 143.089 33.3221C143.047 33.21 143.004 33.1006 142.957 32.9911C142.923 32.9025 142.886 32.8166 142.85 32.7306C142.836 32.6977 142.821 32.6655 142.807 32.6326C142.793 32.6004 142.779 32.5682 142.765 32.5359C142.735 32.4661 142.704 32.3956 142.673 32.3271C142.598 32.158 142.519 31.9888 142.439 31.8243C142.424 31.7947 142.409 31.7639 142.395 31.7343C142.368 31.6793 142.341 31.6235 142.314 31.5678C142.306 31.5537 142.3 31.5396 142.293 31.5255C142.228 31.3953 142.16 31.2623 142.092 31.1321C142.024 31.0045 141.956 30.877 141.889 30.7494L141.868 30.7104L141.866 30.7158C139.948 38.8684 134.817 44.2892 128.665 47.8885C129.616 48.2611 130.507 48.9849 131.173 49.7691C132.403 51.2092 133.398 52.983 135.112 53.7853C138.209 55.2335 141.46 52.7587 143.405 49.7321C143.663 48.7734 143.889 47.8489 144.087 46.9714C144.165 46.6337 144.233 46.2946 144.294 45.9549C144.308 45.8804 144.318 45.8052 144.331 45.73C144.372 45.4923 144.413 45.2553 144.447 45.0177C144.45 44.9915 144.452 44.9646 144.455 44.9384C144.508 44.5511 144.552 44.1616 144.586 43.7736C144.588 43.7528 144.591 43.7313 144.592 43.7098C144.616 43.4231 144.633 43.1371 144.647 42.8511C144.649 42.7994 144.651 42.747 144.653 42.6953C144.657 42.5966 144.663 42.4986 144.665 42.3999V42.3972C144.668 42.2885 144.665 42.1784 144.667 42.0689C144.669 41.8924 144.672 41.7151 144.67 41.5379C144.67 41.4862 144.671 41.4352 144.67 41.3841L144.671 41.3821Z" fill="#C76A22"/>
<path d="M73.792 39.7795C75.5993 40.4616 77.7061 39.3626 78.7313 37.7251C79.7559 36.0869 79.9244 34.062 79.8962 32.1304C79.821 27.0621 78.5105 21.9287 75.7269 17.7185C75.6933 18.0427 75.4691 18.3428 75.0495 18.3428C74.137 18.3428 74.1384 16.9262 75.0495 16.9262C75.0998 16.9262 75.1461 16.9323 75.1911 16.9403C74.9823 16.6523 74.7661 16.3696 74.5426 16.0917C73.7913 15.1591 72.9467 14.2984 72.0349 13.5142C71.8523 13.9379 71.6845 14.3602 71.6576 14.7744C71.6032 15.6164 70.3545 15.6298 70.339 14.7744C70.3263 14.0829 70.5062 13.4478 70.7667 12.8133C70.7983 12.7368 70.8278 12.6569 70.8573 12.575C67.5857 10.1687 63.5882 8.77225 59.5512 9.01194C56.2836 9.20597 51.2415 10.307 48.6647 12.4702C45.7744 14.8973 48.7795 17.4808 51.1623 18.751C57.341 22.0435 62.7356 25.6589 66.9344 31.41C68.4773 33.5242 69.8073 35.7948 71.4535 37.8298C72.0994 38.6287 72.8312 39.4163 73.7926 39.7788L73.792 39.7795ZM72.6667 21.6252C73.602 21.5897 74.2868 21.8542 75.0018 22.445C75.6544 22.9848 76.2741 23.816 75.7732 24.5901C75.5966 24.8633 75.1529 24.9882 74.9065 24.7176C74.9031 24.7163 74.9018 24.7156 74.8984 24.7143C74.8353 24.6686 74.7735 24.6203 74.7144 24.5699C74.6198 24.4786 74.5553 24.3652 74.4694 24.2665C74.3022 24.0745 74.1055 23.8885 73.9094 23.726C73.518 23.4011 73.1743 23.2117 72.6667 23.1755C71.6764 23.1043 71.6623 21.6635 72.6667 21.6246V21.6252ZM64.5832 11.345C64.6182 11.2382 64.6772 11.1463 64.7612 11.0684C64.882 10.9536 64.9975 10.8777 65.1593 10.8321C65.2459 10.8079 65.3372 10.8039 65.4265 10.7951L65.5171 10.7857C65.6783 10.7857 65.828 10.8267 65.967 10.9073C66.0274 10.9536 66.0871 11.0006 66.1476 11.0469C66.2583 11.1584 66.3349 11.2893 66.3772 11.4403C66.3873 11.5196 66.398 11.5981 66.4087 11.6773C66.4134 11.8002 66.3879 11.9143 66.3322 12.0204C66.2966 12.1305 66.2348 12.2265 66.1476 12.3071C66.067 12.3937 65.9717 12.4555 65.8609 12.4917C65.7541 12.5475 65.64 12.573 65.5171 12.5683L65.4265 12.5589C65.3372 12.5495 65.2459 12.5461 65.1593 12.5219C64.9975 12.4763 64.8813 12.4004 64.7612 12.2856C64.6544 12.1782 64.5806 12.052 64.5396 11.9056C64.5295 11.8297 64.5195 11.7532 64.5094 11.6767C64.5047 11.5578 64.5295 11.4477 64.5832 11.345ZM56.8872 13.0107C57.0093 12.2191 57.3262 11.5518 58.054 11.1396C58.3763 10.9569 58.8959 11.1053 58.9691 11.5115C59.045 11.9372 58.9933 12.1527 58.7623 12.5139C58.5616 12.8281 58.528 13.0792 58.4582 13.4364C58.3024 14.236 57.719 14.8604 57.5975 15.6721C57.482 16.4448 56.2258 16.2434 56.2547 15.4901C56.289 14.6026 56.7549 13.8707 56.8878 13.0107H56.8872ZM50.0269 13.9204C50.4976 13.956 50.9723 14.0238 51.4288 14.1447C51.9088 14.2716 52.3419 14.3172 52.6568 14.7301C52.8454 14.9772 52.689 15.3525 52.4553 15.4982C52.0411 15.7567 51.5866 15.5808 51.1448 15.4754C50.7138 15.3726 50.2989 15.2189 49.8631 15.1309C49.1817 14.9933 49.3388 13.8681 50.0269 13.9198V13.9204ZM60.2743 21.973C59.2907 21.973 59.2921 20.447 60.2743 20.447C61.2565 20.447 61.2565 21.973 60.2743 21.973ZM66.3376 18.5798C65.9844 18.5429 65.6984 18.4597 65.4077 18.2515C65.2036 18.1058 65.0384 17.9393 64.8115 17.8279C64.2663 17.5607 63.7427 17.4452 63.2922 17.0007C62.6664 16.3824 63.4996 15.2518 64.2469 15.7641C64.7155 16.0856 65.3157 15.9802 65.8092 16.2629C66.302 16.5455 66.6598 16.99 66.9942 17.4371C67.3252 17.8796 66.8834 18.6383 66.3382 18.5805L66.3376 18.5798ZM68.2799 24.7183C68.1624 24.7861 68.0362 24.8204 67.9006 24.821C67.7656 24.821 67.6387 24.7861 67.5219 24.7183C67.4856 24.7022 67.4494 24.6861 67.4125 24.67C67.4104 24.6686 67.4078 24.668 67.4051 24.6666C67.4051 24.6666 67.4051 24.6666 67.4044 24.6666C67.3003 24.6049 67.2178 24.5223 67.1567 24.4189C67.1264 24.3719 67.1076 24.3215 67.0942 24.2705C67.0922 24.2651 67.0895 24.2598 67.0875 24.2544C67.0694 24.1873 67.0633 24.1194 67.0653 24.0523C67.0653 23.9973 67.0701 23.9422 67.0875 23.8871C67.1003 23.8334 67.1224 23.7851 67.1499 23.7394C67.152 23.7334 67.1546 23.728 67.1573 23.722C67.1862 23.6683 67.2251 23.6246 67.2681 23.585C67.3077 23.5421 67.3514 23.5031 67.4051 23.4742C67.4111 23.4716 67.4172 23.4689 67.4239 23.4662C67.4548 23.4481 67.4876 23.4346 67.5226 23.4225C67.6401 23.3547 67.7663 23.3205 67.9012 23.3205C68.0368 23.3205 68.1631 23.3547 68.2806 23.4225C68.5088 23.5562 68.6525 23.8059 68.6525 24.0711C68.6525 24.3363 68.5095 24.5861 68.2806 24.7197L68.2799 24.7183Z" fill="#D97E38"/>
<path d="M98.8646 21.1137C98.8707 21.1137 98.876 21.1116 98.8814 21.1123C99.1016 21.1123 99.2963 21.2043 99.4554 21.35C99.6145 21.4963 99.6837 21.7145 99.6931 21.924C99.6971 22.0355 99.6743 22.1402 99.6233 22.2369C99.5917 22.3336 99.5373 22.4168 99.4635 22.4886C100.176 24.1846 100.814 25.912 101.368 27.6664C101.906 29.3717 102.393 31.1482 103.489 32.5601C104.587 33.9727 106.491 34.9368 108.182 34.3554C110.482 33.5638 111.078 30.6446 111.281 28.2216C111.487 25.7865 111.66 23.3218 111.398 20.9008C111.332 20.8699 111.266 20.8397 111.203 20.8055C110.55 20.4463 110.044 19.9045 109.537 19.3701C108.855 18.6503 109.91 17.5936 110.625 18.2824C110.756 18.4093 110.887 18.5342 111.019 18.6571C110.645 17.1075 110.044 15.615 109.253 14.2299C109.212 14.2353 109.172 14.2427 109.127 14.2427C108.331 14.2427 108.084 13.3927 108.384 12.8623C107.401 11.4618 106.212 10.2063 104.853 9.16501C102.651 7.47849 88.5582 2.48138 91.756 9.17777C92.3481 10.4178 93.1243 11.6008 93.942 12.7744C93.9595 12.761 93.9769 12.7475 93.9944 12.7341C94.032 12.7079 94.0702 12.6824 94.1072 12.6562C94.1971 12.6038 94.2938 12.5783 94.3972 12.5777C94.5006 12.5777 94.598 12.6038 94.6872 12.6562L94.7678 12.6999C94.8793 12.7724 94.9531 12.8684 94.9934 12.9933C95.0028 13.0228 95.0082 13.055 95.0102 13.0879C95.0303 13.1403 95.0444 13.194 95.0471 13.2511C95.0639 13.3135 95.0639 13.3766 95.0471 13.4391C95.0431 13.5337 95.0149 13.621 94.9632 13.7022C94.9263 13.7499 94.8893 13.7976 94.8524 13.8452C94.8188 13.8714 94.7853 13.8969 94.7517 13.9231C95.6708 15.2196 96.5846 16.5227 97.3023 17.895C97.8548 18.9518 98.3738 20.026 98.8626 21.1137H98.8646ZM106.506 19.5795C106.244 19.9844 105.795 20.0099 105.349 20.0253C104.982 20.0381 104.671 20.1663 104.311 20.2174C103.934 20.2711 103.558 20.1307 103.447 19.7266C103.351 19.3761 103.567 18.9431 103.938 18.8632C104.379 18.7678 104.749 18.5678 105.213 18.5537C105.68 18.5396 106.241 18.5966 106.505 19.0243C106.604 19.1848 106.608 19.4191 106.505 19.5789L106.506 19.5795ZM105.554 14.5858C106.412 14.5858 106.411 15.9165 105.554 15.9165C104.698 15.9165 104.698 14.5858 105.554 14.5858ZM102.694 10.2473C103.615 10.2473 103.613 11.676 102.694 11.676C101.775 11.676 101.775 10.2473 102.694 10.2473ZM94.6396 7.13475C95.4627 7.63157 96.6027 7.51744 97.115 8.47215C97.3459 8.9025 96.9666 9.35367 96.5074 9.26237C96.034 9.16904 95.6232 8.92533 95.1794 8.74271C94.7175 8.55338 94.3361 8.34861 93.9514 8.02635C93.4479 7.60404 94.1011 6.8098 94.6396 7.13475ZM99.9126 13.7855C100.076 13.6935 100.244 13.76 100.347 13.8996C100.684 14.3548 100.543 15.0369 100.448 15.56C100.306 16.3408 100.241 17.08 100.195 17.8729C100.15 18.6503 99.066 18.6342 98.9982 17.8729C98.921 17.0075 98.8962 16.2763 99.066 15.4217C99.1943 14.7744 99.2889 14.138 99.9126 13.7855Z" fill="#D97E38"/>
<path d="M129.555 22.0422C129.516 22.1805 129.5 22.2248 129.494 22.2281C129.49 22.253 129.486 22.2825 129.48 22.3195C129.41 22.7384 128.801 22.8888 128.515 22.6014C128.07 22.4531 127.73 22.063 127.387 21.74C127.303 21.6608 127.217 21.585 127.132 21.5077C126.41 22.5014 127.194 23.9845 127.412 25.0829C127.535 25.6965 127.619 26.3155 127.688 26.9366C127.822 26.6929 128.069 26.5143 128.432 26.5143C129.581 26.5143 129.58 28.2968 128.432 28.2968C128.144 28.2968 127.929 28.1847 127.786 28.0175C127.947 30.4875 127.746 32.9878 127.352 35.4209C127.24 36.1104 127.118 36.8395 127.372 37.4901C127.747 38.4481 128.883 38.949 129.907 38.8409C130.93 38.7328 131.84 38.1353 132.595 37.4364C134.519 35.6552 135.671 33.0804 135.761 30.464C135.564 30.6319 135.268 30.6977 135.033 30.5594C134.71 30.3687 134.315 30.2552 133.968 30.086C133.545 29.8792 133.154 29.608 132.746 29.3717C131.745 28.7916 132.642 27.2615 133.653 27.8221C134.115 28.0786 134.597 28.331 135.038 28.6231C135.362 28.8379 135.576 29.1078 135.742 29.4234C135.52 26.4928 133.919 23.6958 131.502 22.0227C130.941 21.6353 130.065 21.1197 129.203 20.9203C129.308 21.066 129.401 21.2204 129.469 21.3856C129.562 21.6071 129.623 21.8005 129.556 22.0428L129.555 22.0422Z" fill="#D97E38"/>
<path d="M15.1968 51.2703C17.1485 51.6959 19.1741 51.5274 21.1634 51.3576C28.4002 50.7392 35.6378 50.1202 42.8746 49.5019C46.5189 49.1903 50.2484 48.8573 53.5718 47.3299C54.3399 46.9774 54.6406 46.4236 54.8118 45.7562C55.1912 44.2818 54.8474 42.7195 53.9827 41.4674C49.8476 35.4827 43.6857 30.9078 36.7395 28.7332C35.0322 28.1988 33.2644 27.802 31.4765 27.8047C28.9152 27.8081 26.4197 28.6292 24.0832 29.6792C18.9431 31.9894 14.23 35.5807 11.4451 40.4798C10.1553 42.7497 9.31276 45.5924 10.4635 47.9355C11.3437 49.7281 13.2457 50.8453 15.1968 51.2703ZM33.1066 44.0126C32.2802 44.0126 32.2815 42.7303 33.1066 42.7303C33.9318 42.7303 33.9311 44.0126 33.1066 44.0126ZM41.5574 38.7241C41.0176 39.0464 40.5483 39.1048 39.9333 39.1545C39.472 39.1914 39.0504 39.3579 38.6436 39.2498C38.4804 39.278 38.3099 39.227 38.2233 39.0558C37.8453 38.3112 38.5073 37.9164 39.1558 37.7251C39.7816 37.5405 40.416 37.6781 41.025 37.4632C41.7843 37.1954 42.2059 38.3367 41.5567 38.7241H41.5574ZM40.4939 33.4974C41.2411 33.4974 41.2405 34.6575 40.4939 34.6575C39.7473 34.6575 39.7473 33.4974 40.4939 33.4974ZM30.9616 28.5969C32.305 28.562 33.2047 29.1495 34.3131 29.8162C35.29 30.4043 36.379 31.0831 36.9067 32.1378C37.1517 32.6279 36.6596 33.1147 36.1715 32.873C35.3544 32.4681 34.6152 31.8726 33.7982 31.4382C32.871 30.9448 32.0452 30.1525 30.9622 30.0256C30.0693 29.9216 30.021 28.6218 30.9622 28.5969H30.9616ZM27.9424 35.8835C29.0434 35.7183 30.3802 35.3329 31.4309 35.8271C31.737 35.9708 31.7236 36.4696 31.4309 36.618C30.4923 37.0926 29.1341 37.1819 28.1021 37.0591C27.4966 36.9866 27.2179 35.9929 27.943 35.8841L27.9424 35.8835ZM25.4804 30.9005C26.1968 30.9005 26.1954 32.0116 25.4804 32.0116C24.7654 32.0116 24.7654 30.9005 25.4804 30.9005ZM23.3682 41.5339C23.2735 42.122 22.6666 42.0152 22.241 41.9716C21.9798 41.9441 21.7206 41.93 21.4675 41.8514C21.2339 41.7789 21.0177 41.6742 20.778 41.6184C20.069 41.454 20.2174 40.2515 20.9519 40.3354C21.2171 40.3656 21.4608 40.4274 21.7193 40.4845C21.9529 40.5355 22.194 40.5301 22.4296 40.5791C22.8935 40.6758 23.4582 40.9746 23.3682 41.5345V41.5339ZM19.9233 32.9609C20.5121 33.6941 22.057 34.1359 21.7112 35.347C21.6515 35.5558 21.3769 35.6371 21.2218 35.4766C20.5585 34.7911 19.6158 34.4232 19.0324 33.6491C18.6437 33.1335 19.5252 32.4641 19.924 32.9609H19.9233ZM14.279 38.4529C14.7825 38.4529 14.7819 39.2344 14.279 39.2344C13.7761 39.2344 13.7761 38.4529 14.279 38.4529Z" fill="#D97E38"/>
<path d="M30.9621 30.0256C32.045 30.1525 32.8708 30.9454 33.798 31.4382C34.6151 31.8726 35.3543 32.4681 36.1713 32.873C36.6594 33.1147 37.1516 32.6279 36.9065 32.1378C36.3788 31.0831 35.2898 30.4036 34.3129 29.8162C33.2052 29.1495 32.3048 28.562 30.9614 28.5969C30.0201 28.6211 30.0684 29.9209 30.9614 30.0256H30.9621Z" fill="#F7B66F"/>
<path d="M28.1021 37.059C29.1341 37.1819 30.4923 37.0926 31.4309 36.6179C31.7236 36.4702 31.737 35.9707 31.4309 35.827C30.3802 35.3329 29.0441 35.7183 27.9424 35.8834C27.2173 35.9922 27.4959 36.9865 28.1015 37.0583L28.1021 37.059Z" fill="#F7B66F"/>
<path d="M39.1566 37.7257C38.5074 37.9171 37.8454 38.3125 38.224 39.0564C38.3107 39.2276 38.4812 39.2786 38.6443 39.2504C39.0512 39.3585 39.4728 39.192 39.9341 39.1551C40.5491 39.1061 41.0177 39.047 41.5581 38.7247C42.2074 38.3373 41.7857 37.196 41.0264 37.4639C40.4175 37.6787 39.783 37.5411 39.1573 37.7257H39.1566Z" fill="#F7B66F"/>
<path d="M21.2224 35.4766C21.3775 35.637 21.6527 35.5565 21.7118 35.347C22.0576 34.1358 20.5127 33.694 19.9239 32.9609C19.5251 32.4634 18.6436 33.1334 19.0323 33.6491C19.6158 34.4225 20.5584 34.7911 21.2217 35.4766H21.2224Z" fill="#F7B66F"/>
<path d="M25.4806 32.0115C26.1957 32.0115 26.197 30.9004 25.4806 30.9004C24.7643 30.9004 24.7643 32.0115 25.4806 32.0115Z" fill="#F7B66F"/>
<path d="M20.9533 40.3354C20.2188 40.2514 20.0704 41.4539 20.7794 41.6184C21.0191 41.6741 21.2353 41.7788 21.4689 41.8514C21.7214 41.9299 21.9812 41.9447 22.2424 41.9715C22.668 42.0158 23.275 42.1219 23.3696 41.5338C23.4596 40.9739 22.895 40.6744 22.431 40.5784C22.1954 40.5294 21.955 40.5354 21.7207 40.4837C21.4622 40.4273 21.2185 40.3656 20.9533 40.3347V40.3354Z" fill="#F7B66F"/>
<path d="M33.1067 42.731C32.2815 42.731 32.2802 44.0133 33.1067 44.0133C33.9331 44.0133 33.9331 42.731 33.1067 42.731Z" fill="#F7B66F"/>
<path d="M40.494 34.6575C41.2406 34.6575 41.2413 33.4973 40.494 33.4973C39.7468 33.4973 39.7468 34.6575 40.494 34.6575Z" fill="#F7B66F"/>
<path d="M14.28 39.235C14.7829 39.235 14.7835 38.4535 14.28 38.4535C13.7765 38.4535 13.7765 39.235 14.28 39.235Z" fill="#F7B66F"/>
<path d="M57.5969 15.6707C57.7184 14.8597 58.3018 14.2346 58.4576 13.435C58.5274 13.0785 58.561 12.8267 58.7617 12.5125C58.9927 12.1513 59.0444 11.9358 58.9685 11.5102C58.8953 11.104 58.3763 10.9556 58.0534 11.1382C57.3263 11.5504 57.0094 12.2178 56.8865 13.0094C56.7543 13.8694 56.2877 14.6012 56.2534 15.4888C56.2245 16.2421 57.4814 16.4428 57.5962 15.6707H57.5969Z" fill="#F7B66F"/>
<path d="M66.9942 17.4351C66.6599 16.988 66.3027 16.5435 65.8092 16.2608C65.3157 15.9789 64.7155 16.0843 64.2469 15.762C63.4996 15.2497 62.6665 16.3803 63.2922 16.9987C63.742 17.4432 64.2657 17.5586 64.8115 17.8258C65.0385 17.9373 65.2036 18.1038 65.4077 18.2495C65.6984 18.4576 65.9851 18.5402 66.3376 18.5778C66.8828 18.6355 67.3245 17.8775 66.9935 17.4344L66.9942 17.4351Z" fill="#F7B66F"/>
<path d="M64.7611 12.2849C64.882 12.3997 64.9975 12.4756 65.1593 12.5212C65.2459 12.5454 65.3372 12.5494 65.4265 12.5582L65.5171 12.5676C65.64 12.5723 65.7541 12.5467 65.8608 12.491C65.971 12.4554 66.067 12.3937 66.1475 12.3064C66.2348 12.2258 66.2959 12.1298 66.3322 12.0197C66.3879 11.9136 66.4134 11.7988 66.4087 11.6766C66.398 11.5974 66.3872 11.5189 66.3771 11.4396C66.3348 11.2886 66.2583 11.1577 66.1475 11.0462C66.0878 10.9999 66.0274 10.9536 65.9669 10.9066C65.828 10.826 65.6782 10.7857 65.5171 10.785L65.4265 10.7944C65.3372 10.8032 65.2459 10.8072 65.1593 10.8314C64.9975 10.877 64.8813 10.9529 64.7611 11.0677C64.6772 11.1456 64.6181 11.2382 64.5832 11.3443C64.5295 11.447 64.5047 11.5571 64.5094 11.676C64.5194 11.7518 64.5295 11.8284 64.5396 11.9049C64.5805 12.0506 64.6544 12.1775 64.7611 12.2849Z" fill="#F7B66F"/>
<path d="M60.2743 20.4457C59.2921 20.4457 59.2907 21.9717 60.2743 21.9717C61.2579 21.9717 61.2579 20.4457 60.2743 20.4457Z" fill="#F7B66F"/>
<path d="M49.8635 15.1303C50.2992 15.2183 50.7141 15.372 51.1452 15.4747C51.5869 15.5802 52.0415 15.7561 52.4557 15.4976C52.69 15.3519 52.8458 14.9766 52.6571 14.7295C52.3422 14.3166 51.9092 14.2703 51.4292 14.1441C50.9726 14.0232 50.498 13.9554 50.0273 13.9198C49.3391 13.8681 49.182 14.9934 49.8635 15.131V15.1303Z" fill="#F7B66F"/>
<path d="M68.28 23.4199C68.1625 23.3521 68.0363 23.3179 67.9007 23.3179C67.7657 23.3179 67.6389 23.3521 67.522 23.4199C67.4878 23.4313 67.4542 23.4454 67.4233 23.4636C67.4173 23.4662 67.4113 23.4689 67.4045 23.4716C67.3508 23.5005 67.3072 23.5394 67.2676 23.5824C67.2246 23.622 67.1857 23.6656 67.1568 23.7194C67.1541 23.7254 67.1521 23.7308 67.1494 23.7368C67.1226 23.7825 67.0997 23.8308 67.087 23.8845C67.0695 23.9396 67.0642 23.9946 67.0648 24.0497C67.0628 24.1175 67.0688 24.1846 67.087 24.2518C67.089 24.2571 67.0917 24.2625 67.0937 24.2679C67.1071 24.3196 67.1266 24.3693 67.1561 24.4163C67.2179 24.5203 67.3005 24.6029 67.4039 24.664C67.4039 24.664 67.4039 24.664 67.4045 24.664C67.4066 24.6653 67.4092 24.666 67.4119 24.6674C67.4489 24.6835 67.4851 24.6996 67.5214 24.7157C67.6389 24.7835 67.7651 24.8177 67.9 24.8184C68.0356 24.8184 68.1619 24.7835 68.2794 24.7157C68.5076 24.5821 68.6513 24.3317 68.6513 24.0671C68.6513 23.8026 68.5083 23.5522 68.2794 23.4186L68.28 23.4199Z" fill="#F7B66F"/>
<path d="M75.05 18.3422C75.4696 18.3422 75.6939 18.0414 75.7275 17.7178C75.7624 17.3768 75.5851 17.0115 75.1917 16.9404C75.1467 16.9323 75.1004 16.9263 75.05 16.9263C74.1389 16.9263 74.1376 18.3429 75.05 18.3429V18.3422Z" fill="#F7B66F"/>
<path d="M72.667 23.1754C73.1752 23.2117 73.5183 23.4017 73.9097 23.726C74.1057 23.8885 74.3018 24.0738 74.4696 24.2664C74.5556 24.3651 74.62 24.4786 74.7147 24.5699C74.7738 24.6209 74.8355 24.6686 74.8986 24.7143C74.902 24.7156 74.9033 24.7163 74.9067 24.7176C75.1531 24.9882 75.5969 24.864 75.7735 24.59C76.2736 23.8153 75.654 22.9841 75.002 22.445C74.287 21.8542 73.6022 21.589 72.667 21.6252C71.6626 21.6642 71.6767 23.1043 72.667 23.1761V23.1754Z" fill="#F7B66F"/>
<path d="M70.3391 14.7745C70.3546 15.6298 71.6033 15.6164 71.6577 14.7745C71.6846 14.3596 71.8524 13.9379 72.035 13.5143C72.3741 12.7274 72.7655 11.9345 72.4104 11.1705C72.266 10.8596 71.796 10.8335 71.5765 11.0631C71.2025 11.4538 71.0448 12.052 70.8568 12.5757C70.8279 12.6569 70.7977 12.7368 70.7661 12.814C70.5063 13.4485 70.3264 14.0836 70.3385 14.7752L70.3391 14.7745Z" fill="#F7B66F"/>
<path d="M45.976 14.9396C45.2691 14.9396 45.2677 16.0386 45.976 16.0386C46.6844 16.0386 46.6844 14.9396 45.976 14.9396Z" fill="#F7B66F"/>
<path d="M91.0346 7.76112C91.1836 7.09779 91.4421 6.47139 91.622 5.81813C91.6805 5.60799 91.7053 5.36964 91.8127 5.17763C91.9208 4.98494 92.0987 4.84798 92.2028 4.64858C92.3142 4.43575 92.3015 4.14772 92.1162 3.97585C92.0618 3.92684 92.0094 3.87514 91.9597 3.82143C91.8221 3.68111 91.5468 3.69991 91.4529 3.88521C91.4488 3.88656 91.4475 3.88723 91.4435 3.88924C91.4059 3.91811 91.3683 3.94698 91.3313 3.97585C91.2206 4.05977 91.0836 4.1531 90.9829 4.24776C90.7432 4.47133 90.6291 4.77681 90.5357 5.08363C90.2893 5.90004 90.1249 6.77888 90.0268 7.62483C89.9597 8.2002 90.909 8.31971 91.0339 7.76112H91.0346Z" fill="#F7B66F"/>
<path d="M95.1801 8.74271C95.6239 8.92466 96.0348 9.16837 96.5081 9.26236C96.9673 9.353 97.3466 8.90183 97.1157 8.47214C96.6034 7.51743 95.4627 7.63157 94.6403 7.13474C94.1018 6.80979 93.4486 7.60404 93.9521 8.02634C94.3368 8.34861 94.7175 8.55338 95.1801 8.74271Z" fill="#F7B66F"/>
<path d="M96.4989 5.88269C96.7252 5.88269 96.938 5.75982 97.0521 5.56512C97.1099 5.46509 97.1394 5.35766 97.1394 5.24151C97.1394 5.12604 97.1099 5.01794 97.0521 4.91791C97.0293 4.87024 97.0058 4.82257 96.983 4.7749C96.8984 4.60101 96.6842 4.49695 96.4989 4.49695C96.3136 4.49695 96.0988 4.60101 96.0148 4.7749C95.992 4.82257 95.9692 4.87024 95.9457 4.91791C95.8873 5.01794 95.8584 5.12604 95.8584 5.24151C95.8584 5.35699 95.8879 5.46509 95.9457 5.56512C96.0598 5.75982 96.2733 5.88269 96.4989 5.88269Z" fill="#F7B66F"/>
<path d="M94.9656 13.7016C95.0173 13.6204 95.0455 13.5324 95.0495 13.4384C95.0663 13.376 95.0663 13.3129 95.0495 13.2504C95.0468 13.1934 95.0327 13.1396 95.0126 13.0873C95.0106 13.0544 95.0052 13.0222 94.9958 12.9926C94.9555 12.8671 94.881 12.7717 94.7702 12.6992L94.6896 12.6556C94.6004 12.6032 94.503 12.5777 94.3996 12.577C94.2955 12.577 94.1989 12.6032 94.1096 12.6556C94.0726 12.6818 94.0344 12.7073 93.9968 12.7335C93.9793 12.7469 93.9619 12.7603 93.9444 12.7737C93.9142 12.7972 93.884 12.8207 93.8538 12.8442C93.8168 12.8919 93.7799 12.9396 93.743 12.9872C93.6913 13.0685 93.6631 13.1564 93.6591 13.2504C93.6423 13.3129 93.6423 13.376 93.6591 13.4384C93.6591 13.5022 93.6752 13.5619 93.7074 13.617C93.7242 13.6768 93.7544 13.7291 93.798 13.7734C93.8296 13.8265 93.8719 13.8688 93.9249 13.9003C93.9934 13.9628 94.0733 14.0051 94.1653 14.0272C94.2277 14.0359 94.2908 14.044 94.3533 14.0527C94.4157 14.044 94.4788 14.0359 94.5419 14.0272C94.5983 14.003 94.6547 13.9795 94.7111 13.9561C94.7252 13.9453 94.7393 13.9339 94.7534 13.9232C94.787 13.897 94.8206 13.8715 94.8541 13.8453C94.8911 13.7976 94.928 13.7499 94.9649 13.7023L94.9656 13.7016Z" fill="#F7B66F"/>
<path d="M85.298 4.52572C85.4618 4.51699 85.6229 4.50356 85.782 4.45858C85.8915 4.42837 86.0687 4.30953 86.1822 4.30685C86.2829 4.30416 86.6246 4.53713 86.8039 4.60964C87.0039 4.69021 87.2121 4.73721 87.4215 4.78622C87.5303 4.81173 87.6646 4.80031 87.7787 4.80636C87.7821 4.82314 87.8371 4.86813 87.8727 4.93056C87.9868 5.13332 88.3346 5.15749 88.4421 4.93056C88.7616 4.25515 88.2299 3.65225 87.6391 3.37765C87.2933 3.21652 86.9737 2.94998 86.6011 2.8533C86.3608 2.79086 86.0935 2.80294 85.8572 2.87008C85.6746 2.92178 85.4866 3.0762 85.298 3.09634C84.4037 3.19101 84.3641 4.57339 85.298 4.52505V4.52572Z" fill="#F7B66F"/>
<path d="M98.9979 17.8722C99.0657 18.6336 100.149 18.6497 100.194 17.8722C100.24 17.0787 100.306 16.3401 100.448 15.5593C100.543 15.0363 100.684 14.3542 100.347 13.899C100.243 13.7593 100.076 13.6929 99.9124 13.7849C99.2886 14.1373 99.1933 14.7738 99.0657 15.421C98.8959 16.275 98.9207 17.0068 98.9979 17.8722Z" fill="#F7B66F"/>
<path d="M102.695 11.6753C103.614 11.6753 103.616 10.2466 102.695 10.2466C101.773 10.2466 101.774 11.6753 102.695 11.6753Z" fill="#F7B66F"/>
<path d="M105.213 18.5543C104.75 18.5684 104.38 18.7685 103.938 18.8638C103.567 18.9437 103.351 19.3767 103.448 19.7272C103.559 20.1314 103.935 20.271 104.311 20.218C104.671 20.167 104.983 20.0387 105.349 20.026C105.794 20.0105 106.243 19.985 106.506 19.5802C106.609 19.4204 106.605 19.1861 106.506 19.0256C106.241 18.5979 105.68 18.5409 105.214 18.555L105.213 18.5543Z" fill="#F7B66F"/>
<path d="M105.554 15.9165C106.411 15.9165 106.412 14.5858 105.554 14.5858C104.696 14.5858 104.697 15.9165 105.554 15.9165Z" fill="#F7B66F"/>
<path d="M109.539 19.3694C110.045 19.9038 110.551 20.4456 111.204 20.8048C111.267 20.8391 111.334 20.8693 111.4 20.9002C111.566 20.9787 111.734 21.0546 111.881 21.16C112.15 21.352 112.303 21.5212 112.667 21.538C112.907 21.5494 113.139 21.399 113.259 21.1989L113.291 21.1452C113.431 20.9096 113.438 20.5853 113.291 20.3503C112.992 19.8736 112.569 19.6561 112.078 19.4225C111.672 19.2284 111.341 18.9538 111.021 18.6564C110.889 18.5342 110.759 18.4087 110.627 18.2818C109.913 17.5929 108.858 18.6504 109.539 19.3694H109.539Z" fill="#F7B66F"/>
<path d="M109.129 14.2421C109.174 14.2421 109.213 14.2347 109.255 14.2293C110.279 14.1011 110.241 12.4468 109.129 12.4468C108.769 12.4468 108.522 12.6213 108.386 12.861C108.086 13.3907 108.333 14.2414 109.129 14.2414V14.2421Z" fill="#F7B66F"/>
<path d="M99.6939 21.924C99.6845 21.7139 99.6153 21.4963 99.4562 21.35C99.2971 21.2043 99.1024 21.1123 98.8822 21.1123C98.8761 21.1123 98.8714 21.1136 98.8654 21.1136C98.76 21.1123 98.6613 21.1338 98.5693 21.1821C98.4686 21.215 98.382 21.2708 98.3081 21.35C98.2289 21.4238 98.1732 21.5104 98.1403 21.6111C98.0893 21.7078 98.0657 21.8126 98.0698 21.924C98.0792 22.1342 98.1483 22.3517 98.3075 22.498C98.4666 22.6437 98.6613 22.7357 98.8815 22.7357C98.9936 22.7397 99.0977 22.7169 99.1943 22.6659C99.2951 22.633 99.3823 22.5773 99.4555 22.498C99.4589 22.4954 99.4602 22.4913 99.4636 22.4886C99.5374 22.4168 99.5918 22.3336 99.6234 22.2369C99.6744 22.1402 99.6972 22.0355 99.6932 21.924H99.6939Z" fill="#F7B66F"/>
<path d="M102.096 6.33516C102.829 6.71114 103.365 7.29726 104.052 7.73164C104.331 7.90755 104.442 8.04451 104.67 8.26271C104.881 8.46479 105.13 8.52052 105.407 8.4319C105.61 8.36677 105.733 8.12373 105.611 7.9297C105.474 7.71016 105.561 7.34627 105.428 7.09181C105.266 6.78029 104.999 6.53188 104.737 6.30629C104.104 5.76046 103.419 5.34621 102.646 5.02999C101.897 4.72451 101.381 5.96859 102.095 6.33516H102.096Z" fill="#F7B66F"/>
<path d="M125.926 20.3792C126.314 20.7726 126.726 21.1352 127.133 21.5071C127.218 21.585 127.304 21.6609 127.388 21.7394C127.731 22.0623 128.071 22.4524 128.516 22.6008C128.802 22.8882 129.411 22.7378 129.48 22.3188C129.486 22.2819 129.491 22.2524 129.495 22.2275C129.501 22.2242 129.517 22.1798 129.556 22.0415C129.623 21.7985 129.562 21.6058 129.469 21.3843C129.4 21.2191 129.307 21.0653 129.202 20.919C129.095 20.7706 128.975 20.6303 128.851 20.4967C128.311 19.9112 127.634 19.4493 126.955 19.0451C126.123 18.551 125.25 19.691 125.926 20.3778V20.3792Z" fill="#F7B66F"/>
<path d="M135.037 28.6225C134.596 28.3304 134.114 28.078 133.652 27.8215C132.641 27.2616 131.744 28.791 132.746 29.3711C133.153 29.6074 133.544 29.8786 133.967 30.0854C134.315 30.2546 134.709 30.3681 135.032 30.5587C135.267 30.6971 135.563 30.6313 135.76 30.4634C135.929 30.3197 136.026 30.1022 135.938 29.8625C135.88 29.7054 135.814 29.5611 135.741 29.4228C135.574 29.1072 135.361 28.8373 135.036 28.6225H135.037Z" fill="#F7B66F"/>
<path d="M128.433 28.2962C129.58 28.2962 129.581 26.5137 128.433 26.5137C128.07 26.5137 127.822 26.6923 127.689 26.936C127.506 27.2697 127.538 27.7269 127.786 28.0169C127.93 28.1847 128.145 28.2962 128.433 28.2962Z" fill="#F7B66F"/>
</g>
<defs>
<clipPath id="clip0_203_152760">
<rect width="144.134" height="72" fill="white" transform="translate(0.536133)"/>
</clipPath>
</defs>
</svg>
