<svg width="108" height="92" viewBox="0 0 108 92" fill="none" xmlns="http://www.w3.org/2000/svg">
<g clip-path="url(#clip0_211_167193)">
<path d="M65.9367 59.2961C65.2405 65.0067 59.2966 69.0531 55.542 68.613C51.7869 68.1729 51.6429 63.4134 52.3391 57.7028C53.0352 51.9922 56.6434 47.7192 60.398 48.1593C64.1531 48.5994 66.6328 53.5854 65.9367 59.2961Z" fill="url(#paint0_linear_211_167193)"/>
<path d="M72.1505 62.1168C69.6862 67.3361 58.8186 70.1057 55.3867 68.5477C55.4418 65.8613 57.2587 61.6946 59.723 56.4758C62.1872 51.2564 66.9664 48.2883 70.3983 49.8463C73.8302 51.4042 74.6147 56.898 72.1505 62.1173V62.1168Z" fill="url(#paint1_linear_211_167193)"/>
<path d="M70.3985 49.8458C68.5724 49.0168 66.3647 49.47 64.327 50.8613C63.3395 49.3429 61.983 48.3448 60.398 48.1593C56.6429 47.7192 53.0347 51.9922 52.3391 57.7028C51.6429 63.4134 51.7869 68.1729 55.542 68.613C59.1342 70.0241 69.7222 67.2598 72.1507 62.1168C74.6149 56.8975 73.8304 51.4038 70.3985 49.8458Z" fill="url(#paint2_linear_211_167193)"/>
<path opacity="0.7" d="M64.6166 50.6724C64.5195 50.7337 64.4229 50.7956 64.3268 50.8613C64.2703 50.7743 64.2118 50.6893 64.1529 50.6057C64.0814 50.6666 55.3886 58.0521 53.8471 66.3308C53.1838 65.7415 52.6239 65.1081 52.1572 64.4869C52.379 66.0154 52.8775 67.2168 53.7872 67.9275C53.791 67.9303 53.7944 67.9337 53.7978 67.9366C53.7978 67.9366 53.7978 67.9361 53.7978 67.9357C54.265 68.2975 54.8398 68.5308 55.5408 68.613C56.4452 68.968 57.7925 69.0584 59.3418 68.9134C57.2741 68.6052 55.6258 67.7666 54.3297 66.7376C56.1437 62.8497 60.1659 55.8067 64.6157 50.6729L64.6166 50.6724Z" fill="url(#paint3_linear_211_167193)"/>
<path style="mix-blend-mode:multiply" opacity="0.35" d="M72.1929 51.2975C72.546 53.5434 72.1363 56.2753 70.8798 58.9366C68.4518 64.0796 57.8634 66.8439 54.2711 65.4327C53.3643 65.3265 52.6701 64.9666 52.1455 64.4038C52.4706 66.7661 53.4407 68.3661 55.5421 68.6125C59.1344 70.0236 69.7223 67.2593 72.1508 62.1163C74.1011 57.9854 74.0146 53.6849 72.1929 51.2975Z" fill="url(#paint4_linear_211_167193)"/>
<path d="M99.2349 78.3129C98.8648 77.0849 98.1996 76.0134 97.3252 75.1361C97.4392 74.1443 97.361 73.1284 97.06 72.1294C95.7286 67.7091 90.5803 65.3047 85.561 66.7584C82.5832 67.6207 80.3194 69.6477 79.2494 72.0772V72.0782C79.2363 72.1081 79.2247 72.139 79.2117 72.169C78.9754 72.7183 78.0532 74.6033 77.3547 76.512C77.2933 76.6791 77.2344 76.8463 77.1769 77.0125C76.4948 78.0854 74.1064 79.8951 74.2991 80.5352C74.5271 81.2912 77.9392 83.0849 78.5991 83.0656C79.9571 84.5347 81.6566 86.1323 82.9469 86.7337C82.9479 86.7337 82.9484 86.7342 82.9494 86.7347C85.2209 89.0289 88.9223 90.0009 92.5571 88.9482C97.5764 87.4946 100.566 82.7328 99.2344 78.3129H99.2349Z" fill="url(#paint5_linear_211_167193)"/>
<path style="mix-blend-mode:multiply" opacity="0.35" d="M87.1006 85.5328C87.1006 85.5328 87.0991 85.5318 87.0981 85.5318C85.8078 84.9299 84.1083 83.3328 82.7503 81.8637C82.0904 81.883 80.6498 80.0618 80.4223 79.3053C80.2296 78.6652 80.646 76.883 81.3281 75.8101C81.3851 75.6434 81.4445 75.4763 81.5059 75.3096C82.2044 73.4014 83.1267 71.5159 83.3629 70.9666C83.3759 70.9367 83.387 70.9057 83.4006 70.8758V70.8748C84.2136 69.0294 85.716 67.4169 87.6962 66.37C86.9895 66.426 86.274 66.5521 85.561 66.7584C82.5832 67.6207 80.3194 69.6478 79.2494 72.0772V72.0782C79.2363 72.1082 79.2247 72.1391 79.2117 72.169C78.9754 72.7183 78.0532 74.6033 77.3547 76.512C77.2933 76.6792 77.2344 76.8463 77.1769 77.0125C76.4948 78.0855 74.1064 79.8951 74.2991 80.5352C74.5271 81.2913 77.9392 83.085 78.5991 83.0656C79.9571 84.5347 81.6566 86.1323 82.9469 86.7338C82.9479 86.7338 82.9484 86.7342 82.9494 86.7347C85.2209 89.0289 88.9223 90.0009 92.5571 88.9483C93.2706 88.7415 93.9411 88.4661 94.5658 88.1367C91.6721 88.3637 88.9252 87.3753 87.1006 85.5328Z" fill="url(#paint6_linear_211_167193)"/>
<path opacity="0.7" d="M76.7643 80.4704C82.3291 78.9675 91.416 77.2066 97.8209 75.682C97.6643 75.4926 97.4991 75.3105 97.3252 75.1361C97.3494 74.9255 97.3629 74.7129 97.3696 74.5004C93.4465 75.1675 83.6426 77.4757 76.6445 80.1723C76.2711 78.9187 77.1769 77.0124 77.1769 77.0124C76.4948 78.0854 74.1064 79.895 74.2991 80.5351C74.5271 81.2912 77.9392 83.0849 78.5991 83.0656C78.6291 82.8163 77.4146 81.6917 76.7643 80.4699V80.4704Z" fill="url(#paint7_linear_211_167193)"/>
<path d="M9.28664 13.6758C8.21611 14.3816 7.37988 15.326 6.78954 16.4149C5.80693 16.5898 4.85572 16.9555 3.98471 17.5299C0.131083 20.071 -0.698869 25.6922 2.13108 30.0855C3.81031 32.6917 6.40016 34.2801 9.03446 34.6101C9.03446 34.6101 9.03543 34.6101 9.03591 34.6101C9.06828 34.614 9.10113 34.6164 9.1335 34.6202C9.72722 34.6893 11.7977 35.0333 13.8263 35.156C14.004 35.1666 14.1808 35.1758 14.3567 35.1826C15.5799 35.5289 17.9982 37.299 18.5557 36.9313C19.2151 36.4966 19.9567 32.7135 19.749 32.0869C20.7678 30.3652 21.8118 28.2792 22.0185 26.8705C22.0185 26.8695 22.0185 26.8685 22.0185 26.8681C23.5663 24.0347 23.4378 20.2101 21.3881 17.0289C18.5581 12.6362 13.1398 11.1352 9.28567 13.6763L9.28664 13.6758Z" fill="url(#paint8_linear_211_167193)"/>
<path style="mix-blend-mode:multiply" opacity="0.35" d="M19.6784 23.2343C19.6784 23.2343 19.6784 23.2362 19.6784 23.2367C19.4711 24.6454 18.4277 26.7314 17.4088 28.4531C17.6161 29.0797 16.2837 30.9816 15.6243 31.4164C15.0663 31.7845 13.2397 31.8956 12.0161 31.5492C11.8402 31.542 11.6629 31.5333 11.4856 31.5227C9.45712 31.4 7.38707 31.056 6.79287 30.9869C6.7605 30.983 6.72765 30.9811 6.69529 30.9768C6.69529 30.9768 6.69432 30.9768 6.69384 30.9768C4.69287 30.726 2.71751 29.7487 1.14746 28.1512C1.4035 28.8125 1.7291 29.4618 2.13104 30.0855C3.81026 32.6917 6.40012 34.2801 9.03442 34.6101C9.03442 34.6101 9.03538 34.6101 9.03587 34.6101C9.06823 34.614 9.10108 34.6164 9.13345 34.6202C9.72717 34.6893 11.7977 35.0333 13.8262 35.156C14.004 35.1666 14.1808 35.1758 14.3566 35.1826C15.5798 35.5289 17.9982 37.299 18.5557 36.9314C19.2151 36.4966 19.9566 32.7135 19.7489 32.0869C20.7677 30.3652 21.8117 28.2792 22.0185 26.8705C22.0185 26.8695 22.0185 26.8686 22.0185 26.8681C23.5663 24.0347 23.4378 20.2101 21.388 17.0289C20.9856 16.4048 20.5301 15.841 20.0349 15.3367C21.0813 18.0444 20.9209 20.9594 19.6774 23.2347L19.6784 23.2343Z" fill="url(#paint9_linear_211_167193)"/>
<path opacity="0.7" d="M17.7873 34.5879C14.7539 29.687 10.4646 21.4841 7.16989 15.7841C7.03318 15.9884 6.90564 16.1986 6.78873 16.415C6.57955 16.4522 6.37279 16.5 6.16699 16.5546C7.92979 20.1227 12.9482 28.8551 17.5361 34.7879C16.4414 35.5048 14.3559 35.1826 14.3559 35.1826C15.5791 35.529 17.9974 37.299 18.5549 36.9314C19.2143 36.4966 19.9559 32.7135 19.7482 32.087C19.5008 32.1295 18.7709 33.615 17.7868 34.5884L17.7873 34.5879Z" fill="url(#paint10_linear_211_167193)"/>
<path d="M31.9585 65.8507C31.5884 64.6226 30.9232 63.5511 30.0488 62.6739C30.1628 61.6821 30.0846 60.6661 29.7836 59.6671C28.4522 55.2468 23.3039 52.8425 18.2846 54.2961C15.3068 55.1584 13.043 57.1854 11.973 59.6149V59.6159C11.9599 59.6458 11.9484 59.6768 11.9353 59.7067C11.6991 60.256 10.7769 62.141 10.0783 64.0497C10.017 64.2168 9.95801 64.384 9.90053 64.5502C9.2184 65.6231 6.83 67.4328 7.02275 68.0729C7.25077 68.8289 10.6628 70.6226 11.3227 70.6033C12.6807 72.0724 14.3802 73.67 15.6706 74.2714C15.6715 74.2714 15.672 74.2719 15.673 74.2724C17.9445 76.5666 21.6459 77.5386 25.2807 76.4859C30.3 75.0323 33.2894 70.2705 31.958 65.8507H31.9585Z" fill="url(#paint11_linear_211_167193)"/>
<path style="mix-blend-mode:multiply" opacity="0.35" d="M19.8242 73.0705C19.8242 73.0705 19.8227 73.0696 19.8218 73.0696C18.5314 72.4676 16.8319 70.8705 15.474 69.4014C14.8141 69.4208 13.3735 67.5995 13.1459 66.843C12.9532 66.2029 13.3696 64.4208 14.0517 63.3478C14.1087 63.1811 14.1682 63.014 14.2295 62.8473C14.9281 60.9391 15.8503 59.0536 16.0865 58.5043C16.0996 58.4744 16.1107 58.4435 16.1242 58.4135V58.4125C16.9372 56.5671 18.4397 54.9546 20.4198 53.9077C19.7131 53.9638 18.9976 54.0898 18.2846 54.2961C15.3068 55.1584 13.043 57.1855 11.973 59.615V59.6159C11.9599 59.6459 11.9484 59.6768 11.9353 59.7068C11.6991 60.256 10.7769 62.141 10.0783 64.0497C10.017 64.2169 9.95801 64.384 9.90053 64.5502C9.2184 65.6232 6.83 67.4328 7.02275 68.0729C7.25077 68.829 10.6628 70.6227 11.3227 70.6034C12.6807 72.0724 14.3802 73.67 15.6706 74.2715C15.6715 74.2715 15.672 74.272 15.673 74.2724C17.9445 76.5666 21.6459 77.5386 25.2807 76.486C25.9942 76.2792 26.6648 76.0038 27.2894 75.6744C24.3957 75.9014 21.6488 74.913 19.8242 73.0705Z" fill="url(#paint12_linear_211_167193)"/>
<path opacity="0.7" d="M9.48797 68.0076C15.0527 66.5047 24.1397 64.7439 30.5445 63.2192C30.388 63.0299 30.2227 62.8477 30.0488 62.6733C30.073 62.4627 30.0865 62.2502 30.0933 62.0376C26.1701 62.7047 16.3662 65.013 9.36816 67.7096C8.99473 66.456 9.90053 64.5497 9.90053 64.5497C9.2184 65.6226 6.83 67.4323 7.02275 68.0724C7.25077 68.8284 10.6628 70.6221 11.3227 70.6028C11.3527 70.3535 10.1382 69.2289 9.48797 68.0072V68.0076Z" fill="url(#paint13_linear_211_167193)"/>
<path d="M90.9663 24.9342C90.1509 25.9241 89.6301 27.0729 89.3866 28.2874C88.4987 28.7439 87.6977 29.3734 87.0344 30.1787C84.0996 33.742 84.962 39.3584 88.96 42.7231C91.332 44.7193 94.275 45.4743 96.8895 45.0144H96.8905C96.9228 45.0086 96.9547 45.0014 96.9866 44.9951C97.5745 44.8859 99.6542 44.6052 101.629 44.1251C101.802 44.083 101.974 44.0395 102.144 43.9946C103.415 43.9656 106.247 44.9449 106.672 44.4294C107.174 43.8197 106.769 39.9859 106.386 39.4482C106.853 37.5028 107.236 35.2024 107.019 33.7951C107.019 33.7941 107.019 33.7932 107.019 33.7927C107.664 30.6289 106.415 27.012 103.519 24.5753C99.5209 21.2106 93.9006 21.3719 90.9663 24.9352V24.9342Z" fill="url(#paint14_linear_211_167193)"/>
<path style="mix-blend-mode:multiply" opacity="0.35" d="M103.712 31.0091C103.712 31.0091 103.712 31.011 103.712 31.0115C103.929 32.4188 103.545 34.7192 103.079 36.6647C103.462 37.2023 102.748 39.4125 102.246 40.0221C101.822 40.5381 100.108 41.1821 98.8371 41.2115C98.6671 41.2564 98.4951 41.3004 98.3222 41.342C96.3473 41.8221 94.2676 42.1028 93.6797 42.212C93.6473 42.2183 93.6159 42.2255 93.5835 42.2313H93.5826C91.5966 42.5806 89.4212 42.2284 87.4502 41.1642C87.8898 41.7207 88.3917 42.2453 88.9599 42.7231C91.3318 44.7192 94.2748 45.4743 96.8893 45.0144H96.8903C96.9227 45.0086 96.9545 45.0014 96.9864 44.9951C97.5744 44.8859 99.6541 44.6052 101.629 44.125C101.802 44.083 101.974 44.0395 102.144 43.9946C103.415 43.9656 106.247 44.9449 106.672 44.4294C107.174 43.8197 106.769 39.9859 106.386 39.4482C106.853 37.5028 107.236 35.2023 107.019 33.7951C107.019 33.7941 107.019 33.7932 107.019 33.7927C107.664 30.6289 106.414 27.012 103.519 24.5753C102.951 24.097 102.349 23.6927 101.727 23.3564C103.525 25.6357 104.23 28.469 103.712 31.0096V31.0091Z" fill="url(#paint15_linear_211_167193)"/>
<path opacity="0.7" d="M105.248 42.4159C100.906 38.625 94.3919 32.0492 89.5649 27.5724C89.4944 27.8077 89.4345 28.0463 89.3861 28.2878C89.1973 28.3849 89.0137 28.4912 88.833 28.6043C91.5683 31.4951 98.9359 38.3622 105.067 42.6816C104.232 43.6888 102.144 43.9951 102.144 43.9951C103.415 43.9661 106.248 44.9453 106.672 44.4299C107.174 43.8202 106.769 39.9864 106.386 39.4487C106.162 39.5622 105.902 41.197 105.248 42.4168V42.4159Z" fill="url(#paint16_linear_211_167193)"/>
<path d="M41.2896 0.00575502C39.4519 0.00575502 37.7828 -0.186032 36.5447 1.66856C35.3601 -0.0348246 33.8002 0.259378 32.0901 0.259378C28.3877 0.259378 25.3857 5.10914 25.3857 11.0922C25.3857 17.0753 33.7814 22.9376 37.4843 22.9376C41.1872 22.9376 48.2027 17.0183 48.2027 10.9652C48.2027 4.91203 45.1075 0.00575502 41.2896 0.00575502Z" fill="url(#paint17_linear_211_167193)"/>
<path opacity="0.7" d="M37.3286 22.1975C36.789 19.0024 35.9614 8.38304 36.8943 1.21057C36.7745 1.34729 36.6576 1.49946 36.5445 1.66854C36.4445 1.52458 36.3411 1.39608 36.2358 1.27917C35.5199 4.89028 33.6445 15.4632 36.7938 22.1492C36.8213 22.2077 32.1479 20.5492 30.1895 19.3806C32.7199 21.5255 35.6668 22.9381 37.4837 22.9381C39.0508 22.9381 41.1368 21.9405 43.0523 20.3458C41.302 21.1888 39.0199 22.1178 37.3281 22.198L37.3286 22.1975Z" fill="url(#paint18_linear_211_167193)"/>
<path style="mix-blend-mode:multiply" opacity="0.35" d="M47.7142 6.92077C47.6814 13.2116 41.1002 19.3498 37.4548 19.3498C33.8094 19.3498 25.8988 13.2594 25.8737 7.03478C25.5601 8.2884 25.3857 9.65652 25.3857 11.0918C25.3857 17.0744 33.7814 22.9372 37.4843 22.9372C41.1872 22.9372 48.2027 17.0179 48.2027 10.9647C48.2027 9.53575 48.0283 8.17246 47.7147 6.92029L47.7142 6.92077Z" fill="url(#paint19_linear_211_167193)"/>
<path d="M25.689 61.8043C24.6431 63.2859 23.5325 64.5226 24.3827 66.5762C22.2803 66.5617 21.6393 67.9869 20.6658 69.3661C18.5586 72.3516 20.9175 77.5318 25.9349 80.9366C30.9518 84.3415 40.6465 80.9086 42.7538 77.9231C44.9267 74.8448 43.8895 65.9125 38.8137 62.468C33.7378 59.0236 27.862 58.7265 25.689 61.8047V61.8043Z" fill="url(#paint20_linear_211_167193)"/>
<path opacity="0.7" d="M42.0446 77.6269C39.0582 76.2433 29.6818 70.867 24.1978 66.0332C24.2441 66.2081 24.305 66.3883 24.3828 66.5757C24.205 66.5743 24.0383 66.5844 23.8809 66.6028C26.5016 69.2347 34.3007 76.7641 41.6997 78.0303C41.7644 78.0414 37.7142 80.8656 35.6195 81.7796C38.8582 80.9598 41.72 79.3878 42.7538 77.9226C43.6456 76.6593 43.9963 74.409 43.749 71.9574C43.4601 73.8482 42.9398 76.2173 42.0446 77.6269Z" fill="url(#paint21_linear_211_167193)"/>
<path style="mix-blend-mode:multiply" opacity="0.35" d="M35.1444 60.5598C40.4014 64.1666 41.8028 72.9656 39.7284 75.9052C37.7144 78.7584 28.0444 81.7564 22.8105 78.2342C23.683 79.2004 24.7318 80.1197 25.9352 80.9366C30.9521 84.3415 40.6468 80.9086 42.754 77.9231C44.927 74.8448 43.8898 65.9125 38.8139 62.468C37.6159 61.655 36.3729 61.0192 35.1448 60.5598H35.1444Z" fill="url(#paint22_linear_211_167193)"/>
<path d="M84.8939 70.715C86.6171 71.3411 88.1142 72.0899 89.932 70.773C90.4388 72.7739 92.0059 73.0295 93.6098 73.6121C97.0818 74.8739 101.615 71.3488 103.735 65.7387C105.856 60.1285 100.061 51.7705 96.5886 50.5092C93.0084 49.2082 84.4402 52.4077 82.2953 58.0836C80.1504 63.7589 81.3137 69.4145 84.8934 70.7155L84.8939 70.715Z" fill="url(#paint23_linear_211_167193)"/>
<path opacity="0.7" d="M96.4728 51.256C95.8462 54.4357 92.8588 64.6754 89.4424 71.0831C89.6033 70.9956 89.7665 70.8932 89.9327 70.7729C89.9757 70.942 90.0264 71.0976 90.0839 71.2435C92.0347 68.1014 97.5405 58.8261 96.9569 51.4836C96.9516 51.4193 100.746 54.5667 102.168 56.3299C100.556 53.4565 98.2931 51.128 96.5892 50.5087C95.1197 49.9749 92.81 50.1995 90.4491 51.042C92.3888 50.8478 94.8583 50.7546 96.4733 51.2555L96.4728 51.256Z" fill="url(#paint24_linear_211_167193)"/>
<path style="mix-blend-mode:multiply" opacity="0.35" d="M81.3208 62.0415C83.5812 56.1536 91.9271 52.6411 95.3454 53.8831C98.6638 55.0889 104.023 63.5314 101.841 69.3763C102.579 68.3077 103.227 67.0841 103.736 65.7382C105.856 60.128 100.061 51.7701 96.5889 50.5087C93.0087 49.2077 84.4406 52.4072 82.2957 58.0831C81.7894 59.4232 81.4696 60.7609 81.3203 62.0415H81.3208Z" fill="url(#paint25_linear_211_167193)"/>
<path d="M53.9387 11.6266C54.3353 13.386 54.5044 15.0256 56.6179 15.8106C55.1773 17.3121 55.8068 18.742 56.1759 20.3797C56.9749 23.9247 62.4522 25.7522 68.4097 24.4614C74.3677 23.1705 78.3942 13.8672 77.5957 10.3218C76.772 6.6662 69.3884 1.33673 63.3609 2.64253C57.3334 3.94832 53.115 7.97054 53.9387 11.6256V11.6266Z" fill="url(#paint26_linear_211_167193)"/>
<path opacity="0.7" d="M76.8927 10.631C73.8275 11.8368 63.4309 14.9203 56.0869 15.5749C56.2492 15.6604 56.4256 15.7392 56.6183 15.8112C56.4966 15.9382 56.3908 16.0643 56.2971 16.1904C60.0473 16.0967 70.9811 15.6112 76.9599 11.1532C77.012 11.1141 76.369 15.9464 75.6275 18.074C77.2174 15.1885 77.9884 12.0624 77.5961 10.3223C77.2579 8.82179 75.8144 7.03966 73.813 5.5498C75.0299 7.04352 76.4473 9.02855 76.8922 10.631H76.8927Z" fill="url(#paint27_linear_211_167193)"/>
<path style="mix-blend-mode:multiply" opacity="0.35" d="M59.4395 3.98311C65.711 2.65702 73.2433 7.63384 74.0298 11.1247C74.7936 14.5131 70.4578 23.5034 64.2651 24.8701C65.581 24.9 66.9815 24.7715 68.4105 24.4619C74.3684 23.171 78.395 13.8677 77.5965 10.3222C76.7728 6.66669 69.3892 1.33722 63.3617 2.64301C61.9385 2.95123 60.6187 3.41258 59.4395 3.98311Z" fill="url(#paint28_linear_211_167193)"/>
<path d="M45.8771 37.027C51.3549 39.7965 53.2337 47.0202 51.4124 50.483C49.5916 53.9458 44.7602 52.3366 39.2824 49.5676C33.8047 46.798 30.8404 41.7458 32.6617 38.283C34.4824 34.8202 40.3994 34.2579 45.8771 37.0275V37.027Z" fill="url(#paint29_linear_211_167193)"/>
<path d="M50.9907 32.0652C55.3254 36.3609 54.1138 47.8686 51.2897 50.6087C48.6129 49.5691 45.0974 46.2845 40.7626 41.9889C36.4279 37.6932 35.2037 31.9894 38.0279 29.2493C40.8525 26.5087 46.6559 27.7695 50.9907 32.0652Z" fill="url(#paint30_linear_211_167193)"/>
<path d="M38.0281 29.2493C36.5252 30.7077 36.1687 33.0048 36.8175 35.4826C34.9305 35.8782 33.43 36.8208 32.6614 38.2826C30.8407 41.7454 33.8049 46.798 39.2822 49.5671C44.76 52.3367 49.5909 53.9459 51.4122 50.4826C54.1484 47.5333 55.2624 36.2976 50.9909 32.0647C46.6561 27.7691 40.8523 26.5082 38.0281 29.2488V29.2493Z" fill="url(#paint31_linear_211_167193)"/>
<path opacity="0.7" d="M36.7343 35.1333C36.7604 35.2492 36.7864 35.3657 36.8174 35.4826C36.7091 35.5053 36.6024 35.5304 36.4971 35.5565C36.5319 35.6478 40.7541 46.7517 48.499 51.2802C47.6637 51.7038 46.8222 52.012 46.027 52.2343C47.643 52.5816 49.0323 52.5415 50.0802 51.9246C50.0845 51.9222 50.0889 51.9203 50.0932 51.9174C50.0932 51.9174 50.0932 51.9174 50.0927 51.9169C50.6275 51.599 51.0729 51.1299 51.413 50.4831C52.1019 49.7405 52.6874 48.4729 53.1106 46.9246C52.042 48.8072 50.5942 50.0903 49.0855 50.9632C45.8483 47.784 40.255 41.3145 36.7352 35.1338L36.7343 35.1333Z" fill="url(#paint32_linear_211_167193)"/>
<path style="mix-blend-mode:multiply" opacity="0.35" d="M40.145 28.0502C42.5296 28.5342 45.1218 29.9333 47.332 32.1236C51.6035 36.3564 50.4895 47.5922 47.7532 50.5415C47.3136 51.3777 46.6967 51.9159 45.9392 52.2159C48.43 52.77 50.3928 52.4212 51.4122 50.483C54.1484 47.5337 55.2624 36.298 50.9909 32.0651C47.56 28.6651 43.2107 27.169 40.1445 28.0506L40.145 28.0502Z" fill="url(#paint33_linear_211_167193)"/>
<path d="M96.4077 22.5739C95.6763 28.5744 89.4309 32.8256 85.4855 32.3633C81.5401 31.901 81.3889 26.9 82.1203 20.9C82.8517 14.8995 86.643 10.4101 90.5879 10.8725C94.5333 11.3348 97.1386 16.5739 96.4077 22.5739Z" fill="url(#paint34_linear_211_167193)"/>
<path d="M102.936 25.5377C100.347 31.0217 88.9281 33.9314 85.3223 32.2947C85.3802 29.472 87.2894 25.0942 89.8783 19.6101C92.4672 14.1261 97.4894 11.0077 101.095 12.6444C104.701 14.2811 105.525 20.0536 102.936 25.5377Z" fill="url(#paint35_linear_211_167193)"/>
<path d="M101.095 12.6444C99.1763 11.7734 96.8565 12.2493 94.7159 13.7111C93.6782 12.1159 92.2531 11.0671 90.5879 10.872C86.6425 10.4096 82.8512 14.899 82.1203 20.8995C81.3889 26.9 81.5401 31.9005 85.4855 32.3628C89.2599 33.8454 100.385 30.941 102.936 25.5372C105.525 20.0531 104.701 14.2807 101.095 12.6439V12.6444Z" fill="url(#paint36_linear_211_167193)"/>
<path opacity="0.7" d="M95.021 13.5135C94.9191 13.5783 94.8176 13.643 94.7162 13.7116C94.6567 13.6203 94.5954 13.5309 94.5336 13.443C94.4582 13.5068 85.3249 21.2671 83.7055 29.9652C83.0089 29.3459 82.42 28.6807 81.9297 28.0275C82.163 29.6333 82.6867 30.8957 83.6427 31.6425C83.6466 31.6454 83.65 31.6493 83.6538 31.6522C83.6538 31.6522 83.6538 31.6517 83.6538 31.6512C84.1447 32.0314 84.7485 32.2763 85.4852 32.3628C86.4355 32.7357 87.8514 32.8309 89.479 32.6783C87.3065 32.3546 85.5746 31.4734 84.2128 30.3923C86.1186 26.3072 90.3447 18.9068 95.0205 13.5126L95.021 13.5135Z" fill="url(#paint37_linear_211_167193)"/>
<path style="mix-blend-mode:multiply" opacity="0.35" d="M102.981 14.17C103.352 16.5299 102.922 19.4 101.602 22.1966C99.0503 27.6005 87.9252 30.5048 84.1508 29.0222C83.1982 28.9106 82.4682 28.5324 81.917 27.9411C82.2585 30.4232 83.2779 32.1043 85.4861 32.3633C89.2605 33.8459 100.386 30.9415 102.937 25.5377C104.986 21.1976 104.895 16.6783 102.981 14.17Z" fill="url(#paint38_linear_211_167193)"/>
<path d="M61.4269 36.3173C60.9104 37.5637 60.7414 38.8714 60.8732 40.154C60.1172 40.8956 59.5027 41.7806 59.0829 42.7946C57.224 47.2811 59.8472 52.5632 64.9418 54.5927C67.9645 55.7965 71.1781 55.5849 73.68 54.2767C73.68 54.2767 73.681 54.2767 73.681 54.2762C73.7119 54.2603 73.7418 54.2424 73.7723 54.2255C74.3331 53.926 76.3501 52.9695 78.1988 51.8501C78.3607 51.7521 78.5211 51.653 78.679 51.5526C79.9563 51.1091 83.1273 51.1564 83.3964 50.5067C83.7143 49.739 82.109 46.0738 81.5539 45.6656C81.4196 43.5864 81.0906 41.1825 80.4322 39.8593C80.4322 39.8584 80.4312 39.8579 80.4307 39.8569C80.0969 36.5129 77.7056 33.3371 74.0158 31.8675C68.9211 29.8381 63.2844 31.8299 61.4254 36.3168L61.4269 36.3173Z" fill="url(#paint39_linear_211_167193)"/>
<path style="mix-blend-mode:multiply" opacity="0.35" d="M76.2186 38.1792C76.2186 38.1792 76.2195 38.1806 76.22 38.1816C76.8785 39.5048 77.2075 41.9086 77.3418 43.9879C77.8968 44.3956 77.8635 46.8173 77.5456 47.585C77.2765 48.2342 75.7437 49.4313 74.4669 49.8743C74.3089 49.9743 74.1485 50.0739 73.9867 50.1714C72.1379 51.2908 70.121 52.2473 69.5601 52.5468C69.5292 52.5632 69.4997 52.5811 69.4688 52.5975C69.4688 52.5975 69.4679 52.5975 69.4679 52.598C67.5669 53.5917 65.2558 53.9516 62.9297 53.54C63.548 53.9478 64.2195 54.3038 64.9432 54.5922C67.9659 55.7961 71.1794 55.5845 73.6814 54.2763C73.6814 54.2763 73.6823 54.2763 73.6823 54.2758C73.7133 54.2598 73.7432 54.242 73.7737 54.2251C74.3345 53.9255 76.3514 52.969 78.2002 51.8497C78.3621 51.7516 78.5224 51.6526 78.6804 51.5521C79.9577 51.1086 83.1287 51.156 83.3978 50.5062C83.7157 49.7386 82.1104 46.0734 81.5553 45.6652C81.421 43.5859 81.092 41.1821 80.4336 39.8589C80.4336 39.8579 80.4326 39.8574 80.4321 39.8565C80.0983 36.5125 77.707 33.3367 74.0171 31.8671C73.293 31.5787 72.5582 31.3743 71.8244 31.2439C74.3538 32.9159 75.95 35.4922 76.2181 38.1777L76.2186 38.1792Z" fill="url(#paint40_linear_211_167193)"/>
<path opacity="0.7" d="M81.3295 48.9772C75.7541 46.6381 67.1121 42.2482 60.8319 39.3873C60.8339 39.6434 60.8479 39.8994 60.874 40.154C60.7131 40.3115 60.5604 40.4772 60.4131 40.6477C64.0822 42.6192 73.6783 47.0197 81.2285 49.2989C80.6976 50.569 78.6802 51.553 78.6802 51.553C79.9575 51.1096 83.1285 51.1569 83.3976 50.5071C83.7155 49.7395 82.1102 46.0743 81.5551 45.6661C81.3643 45.8516 81.6102 47.5554 81.329 48.9772H81.3295Z" fill="url(#paint41_linear_211_167193)"/>
<path d="M74.0366 72.9541C72.867 72.2507 71.5786 71.8734 70.267 71.7923C69.6443 70.9396 68.8545 70.201 67.9028 69.629C63.6922 67.0981 57.9492 68.773 55.0752 73.3701C53.3699 76.0976 53.0583 79.2406 53.9656 81.8749V81.8758C53.9767 81.9082 53.9897 81.9401 54.0013 81.9725C54.211 82.5643 54.8438 84.6715 55.668 86.6425C55.74 86.815 55.8139 86.9865 55.8888 87.1556C56.126 88.4633 55.5608 91.5237 56.1704 91.8899C56.8907 92.3227 60.8409 91.3686 61.3419 90.8986C63.4559 91.1082 65.9284 91.1826 67.367 90.7618C67.368 90.7618 67.369 90.7614 67.3699 90.7609C70.7888 90.9845 74.3748 89.1894 76.4559 85.8604C79.3298 81.2633 78.2467 75.485 74.0361 72.9541H74.0366Z" fill="url(#paint42_linear_211_167193)"/>
<path style="mix-blend-mode:multiply" opacity="0.35" d="M69.7472 86.959C69.7472 86.959 69.7453 86.9595 69.7443 86.9599C68.3057 87.3807 65.8332 87.3063 63.7192 87.0967C63.2182 87.5667 60.7873 87.1392 60.0666 86.7063C59.4569 86.3401 58.5033 84.6619 58.2661 83.3537C58.1912 83.1841 58.1178 83.0131 58.0453 82.8406C57.2211 80.8696 56.5883 78.7619 56.3786 78.1706C56.367 78.1382 56.354 78.1063 56.3429 78.0739V78.073C55.6535 76.072 55.6685 73.7773 56.4627 71.5942C55.9511 72.1256 55.4835 72.7174 55.0752 73.3706C53.3699 76.0981 53.0583 79.2411 53.9656 81.8754V81.8764C53.9767 81.9087 53.9897 81.9406 54.0013 81.973C54.211 82.5648 54.8438 84.672 55.668 86.643C55.74 86.8155 55.8139 86.987 55.8888 87.1561C56.126 88.4638 55.5608 91.5242 56.1704 91.8904C56.8907 92.3232 60.8409 91.3691 61.3419 90.8991C63.4559 91.1087 65.9284 91.1831 67.367 90.7624C67.368 90.7624 67.369 90.7619 67.3699 90.7614C70.7888 90.9851 74.3748 89.1899 76.4559 85.8609C76.8646 85.2078 77.1902 84.53 77.4409 83.8416C75.3458 86.0155 72.4926 87.1387 69.7467 86.9595L69.7472 86.959Z" fill="url(#paint43_linear_211_167193)"/>
<path opacity="0.7" d="M58.0483 90.1392C61.3126 85.1276 67.1411 77.4846 71.0454 71.8764C70.7875 71.8368 70.5276 71.8083 70.2672 71.7918C70.1348 71.6107 69.9933 71.4358 69.8459 71.2653C67.2628 74.4923 61.2681 83.057 57.7416 89.9889C56.5507 89.2682 55.8899 87.1556 55.8899 87.1556C56.1271 88.4633 55.5619 91.5237 56.1715 91.8899C56.8918 92.3227 60.842 91.3686 61.343 90.8986C61.1879 90.6836 59.4329 90.6435 58.0488 90.1392H58.0483Z" fill="url(#paint44_linear_211_167193)"/>
<path d="M27.8962 36.015C27.5073 34.7247 26.8088 33.5986 25.8899 32.6768C26.0097 31.6348 25.9276 30.5672 25.6112 29.5179C24.2121 24.8734 18.803 22.3469 13.5291 23.8744C10.4001 24.7807 8.0218 26.9106 6.89717 29.4628V29.4638C6.88316 29.4952 6.87108 29.5275 6.85755 29.5589C6.60924 30.1362 5.64016 32.1169 4.90634 34.1222C4.84209 34.2976 4.77977 34.4734 4.71987 34.6483C4.00296 35.7759 1.4933 37.6773 1.6962 38.3498C1.93533 39.1445 5.52132 41.029 6.21407 41.0087C7.64113 42.5522 9.42664 44.2304 10.7827 44.8628C10.7836 44.8628 10.7846 44.8638 10.7851 44.8638C13.172 47.2744 17.0609 48.2957 20.8803 47.1894C26.1542 45.6618 29.2952 40.6589 27.8962 36.0145V36.015Z" fill="url(#paint45_linear_211_167193)"/>
<path style="mix-blend-mode:multiply" opacity="0.35" d="M15.1469 43.601C15.1469 43.601 15.1455 43.6 15.1445 43.6C13.7885 42.9676 12.003 41.2894 10.5759 39.7459C9.88267 39.7662 8.36915 37.8527 8.12953 37.058C7.92712 36.3855 8.3648 34.5131 9.08171 33.3855C9.14161 33.2106 9.20393 33.0348 9.26818 32.8594C10.002 30.8541 10.9711 28.8734 11.2194 28.2961C11.2329 28.2643 11.245 28.2324 11.259 28.201V28.2C12.1136 26.2614 13.6919 24.5667 15.7725 23.4667C15.03 23.5256 14.2783 23.658 13.5291 23.8749C10.4001 24.7812 8.0218 26.9111 6.89717 29.4633V29.4643C6.88316 29.4957 6.87108 29.528 6.85755 29.5594C6.60924 30.1367 5.64016 32.1174 4.90635 34.1227C4.84209 34.2981 4.77978 34.4739 4.71987 34.6488C4.00296 35.7763 1.4933 37.6778 1.6962 38.3502C1.93533 39.1449 5.52132 41.0295 6.21407 41.0092C7.64113 42.5527 9.42664 44.2309 10.7827 44.8633C10.7836 44.8633 10.7846 44.8643 10.7851 44.8643C13.172 47.2749 17.0609 48.2961 20.8803 47.1899C21.6295 46.973 22.3344 46.6836 22.9909 46.3367C19.9503 46.5754 17.0638 45.5367 15.1469 43.601Z" fill="url(#paint46_linear_211_167193)"/>
<path opacity="0.7" d="M4.28654 38.2816C10.1334 36.7024 19.6812 34.8521 26.4107 33.2502C26.246 33.0512 26.0725 32.8599 25.8899 32.6763C25.9155 32.4546 25.9295 32.2319 25.9368 32.0087C21.8146 32.7096 11.5136 35.1348 4.16045 37.9681C3.76818 36.6507 4.71987 34.6483 4.71987 34.6483C4.00296 35.7758 1.4933 37.6773 1.6962 38.3497C1.93533 39.1444 5.52132 41.029 6.21408 41.0087C6.24548 40.7468 4.96963 39.5652 4.28606 38.2816H4.28654Z" fill="url(#paint47_linear_211_167193)"/>
</g>
<defs>
<linearGradient id="paint0_linear_211_167193" x1="58.507" y1="65.4477" x2="59.9934" y2="48.6906" gradientUnits="userSpaceOnUse">
<stop stop-color="#E5C158"/>
<stop offset="1" stop-color="#E4A64F"/>
</linearGradient>
<linearGradient id="paint1_linear_211_167193" x1="62.7493" y1="68.2392" x2="68.1666" y2="50.8581" gradientUnits="userSpaceOnUse">
<stop stop-color="#E5C158"/>
<stop offset="1" stop-color="#E4A64F"/>
</linearGradient>
<linearGradient id="paint2_linear_211_167193" x1="59.8559" y1="67.3946" x2="65.2882" y2="49.9656" gradientUnits="userSpaceOnUse">
<stop stop-color="#E5C158"/>
<stop offset="1" stop-color="#E4A64F"/>
</linearGradient>
<linearGradient id="paint3_linear_211_167193" x1="55.8291" y1="66.4391" x2="60.6456" y2="50.9858" gradientUnits="userSpaceOnUse">
<stop stop-color="#CB9130"/>
<stop offset="1" stop-color="#DFA03C"/>
</linearGradient>
<linearGradient id="paint4_linear_211_167193" x1="60.8126" y1="67.797" x2="66.0306" y2="51.0571" gradientUnits="userSpaceOnUse">
<stop stop-color="#E5C158"/>
<stop offset="1" stop-color="#E4A64F"/>
</linearGradient>
<linearGradient id="paint5_linear_211_167193" x1="96.2509" y1="75.9342" x2="68.3332" y2="83.3947" gradientUnits="userSpaceOnUse">
<stop stop-color="#E5C158"/>
<stop offset="1" stop-color="#E4A64F"/>
</linearGradient>
<linearGradient id="paint6_linear_211_167193" x1="90.0666" y1="77.5865" x2="70.1279" y2="82.9152" gradientUnits="userSpaceOnUse">
<stop stop-color="#E5C158"/>
<stop offset="1" stop-color="#E4A64F"/>
</linearGradient>
<linearGradient id="paint7_linear_211_167193" x1="95.4456" y1="75.35" x2="68.3095" y2="82.6018" gradientUnits="userSpaceOnUse">
<stop stop-color="#CB9130"/>
<stop offset="1" stop-color="#DFA03C"/>
</linearGradient>
<linearGradient id="paint8_linear_211_167193" x1="7.86419" y1="17.2234" x2="23.0075" y2="41.8367" gradientUnits="userSpaceOnUse">
<stop stop-color="#E5C158"/>
<stop offset="1" stop-color="#E4A64F"/>
</linearGradient>
<linearGradient id="paint9_linear_211_167193" x1="11.2184" y1="22.6748" x2="22.034" y2="40.2541" gradientUnits="userSpaceOnUse">
<stop stop-color="#E5C158"/>
<stop offset="1" stop-color="#E4A64F"/>
</linearGradient>
<linearGradient id="paint10_linear_211_167193" x1="7.53476" y1="18.1623" x2="22.2547" y2="42.0863" gradientUnits="userSpaceOnUse">
<stop stop-color="#CB9130"/>
<stop offset="1" stop-color="#DFA03C"/>
</linearGradient>
<linearGradient id="paint11_linear_211_167193" x1="28.9716" y1="63.4735" x2="1.05412" y2="70.9345" gradientUnits="userSpaceOnUse">
<stop stop-color="#E5C158"/>
<stop offset="1" stop-color="#E4A64F"/>
</linearGradient>
<linearGradient id="paint12_linear_211_167193" x1="22.788" y1="65.1263" x2="2.84931" y2="70.4551" gradientUnits="userSpaceOnUse">
<stop stop-color="#E5C158"/>
<stop offset="1" stop-color="#E4A64F"/>
</linearGradient>
<linearGradient id="paint13_linear_211_167193" x1="28.167" y1="62.8898" x2="1.0309" y2="70.1416" gradientUnits="userSpaceOnUse">
<stop stop-color="#CB9130"/>
<stop offset="1" stop-color="#DFA03C"/>
</linearGradient>
<linearGradient id="paint14_linear_211_167193" x1="90.6457" y1="28.745" x2="112.363" y2="47.8093" gradientUnits="userSpaceOnUse">
<stop stop-color="#E5C158"/>
<stop offset="1" stop-color="#E4A64F"/>
</linearGradient>
<linearGradient id="paint15_linear_211_167193" x1="95.4556" y1="32.9678" x2="110.966" y2="46.5833" gradientUnits="userSpaceOnUse">
<stop stop-color="#E5C158"/>
<stop offset="1" stop-color="#E4A64F"/>
</linearGradient>
<linearGradient id="paint16_linear_211_167193" x1="90.6071" y1="29.7391" x2="111.716" y2="48.269" gradientUnits="userSpaceOnUse">
<stop stop-color="#CB9130"/>
<stop offset="1" stop-color="#DFA03C"/>
</linearGradient>
<linearGradient id="paint17_linear_211_167193" x1="25.3862" y1="11.4686" x2="48.2026" y2="11.4686" gradientUnits="userSpaceOnUse">
<stop stop-color="#FFDC67"/>
<stop offset="1" stop-color="#FFC35A"/>
</linearGradient>
<linearGradient id="paint18_linear_211_167193" x1="37.0523" y1="3.37337" x2="36.5663" y2="21.9772" gradientUnits="userSpaceOnUse">
<stop stop-color="#EAB22F"/>
<stop offset="1" stop-color="#FBBE3E"/>
</linearGradient>
<linearGradient id="paint19_linear_211_167193" x1="0.449994" y1="14.9295" x2="0.498304" y2="14.9295" gradientUnits="userSpaceOnUse">
<stop stop-color="#FFDC67"/>
<stop offset="1" stop-color="#FFC35A"/>
</linearGradient>
<linearGradient id="paint20_linear_211_167193" x1="26.3486" y1="81.2314" x2="39.1632" y2="62.7178" gradientUnits="userSpaceOnUse">
<stop stop-color="#FFDC67"/>
<stop offset="1" stop-color="#FFC35A"/>
</linearGradient>
<linearGradient id="paint21_linear_211_167193" x1="26.1979" y1="67.0116" x2="41.4189" y2="78.1465" gradientUnits="userSpaceOnUse">
<stop stop-color="#EAB22F"/>
<stop offset="1" stop-color="#FBBE3E"/>
</linearGradient>
<linearGradient id="paint22_linear_211_167193" x1="29.2254" y1="83.2228" x2="42.04" y2="64.7092" gradientUnits="userSpaceOnUse">
<stop stop-color="#FFDC67"/>
<stop offset="1" stop-color="#FFC35A"/>
</linearGradient>
<linearGradient id="paint23_linear_211_167193" x1="103.821" y1="65.4695" x2="82.4756" y2="57.5608" gradientUnits="userSpaceOnUse">
<stop stop-color="#FFDC67"/>
<stop offset="1" stop-color="#FFC35A"/>
</linearGradient>
<linearGradient id="paint24_linear_211_167193" x1="90.143" y1="69.0442" x2="97.079" y2="51.7269" gradientUnits="userSpaceOnUse">
<stop stop-color="#EAB22F"/>
<stop offset="1" stop-color="#FBBE3E"/>
</linearGradient>
<linearGradient id="paint25_linear_211_167193" x1="105.019" y1="62.2387" x2="83.673" y2="54.33" gradientUnits="userSpaceOnUse">
<stop stop-color="#FFDC67"/>
<stop offset="1" stop-color="#FFC35A"/>
</linearGradient>
<linearGradient id="paint26_linear_211_167193" x1="68.7256" y1="24.3879" x2="63.8937" y2="2.52019" gradientUnits="userSpaceOnUse">
<stop stop-color="#FFDC67"/>
<stop offset="1" stop-color="#FFC35A"/>
</linearGradient>
<linearGradient id="paint27_linear_211_167193" x1="58.2125" y1="15.0054" x2="76.8299" y2="11.3992" gradientUnits="userSpaceOnUse">
<stop stop-color="#EAB22F"/>
<stop offset="1" stop-color="#FBBE3E"/>
</linearGradient>
<linearGradient id="paint28_linear_211_167193" x1="72.1543" y1="23.6303" x2="67.3224" y2="1.76265" gradientUnits="userSpaceOnUse">
<stop stop-color="#FFDC67"/>
<stop offset="1" stop-color="#FFC35A"/>
</linearGradient>
<linearGradient id="paint29_linear_211_167193" x1="49.2782" y1="46.507" x2="33.0924" y2="38.777" gradientUnits="userSpaceOnUse">
<stop stop-color="#FFDC67"/>
<stop offset="1" stop-color="#FFC35A"/>
</linearGradient>
<linearGradient id="paint30_linear_211_167193" x1="53.5564" y1="43.4096" x2="38.3522" y2="31.6282" gradientUnits="userSpaceOnUse">
<stop stop-color="#FFDC67"/>
<stop offset="1" stop-color="#FFC35A"/>
</linearGradient>
<linearGradient id="paint31_linear_211_167193" x1="51.629" y1="45.9682" x2="36.3933" y2="34.1623" gradientUnits="userSpaceOnUse">
<stop stop-color="#FFDC67"/>
<stop offset="1" stop-color="#FFC35A"/>
</linearGradient>
<linearGradient id="paint32_linear_211_167193" x1="49.3393" y1="49.4054" x2="35.7934" y2="38.9091" gradientUnits="userSpaceOnUse">
<stop stop-color="#EAB22F"/>
<stop offset="1" stop-color="#FBBE3E"/>
</linearGradient>
<linearGradient id="paint33_linear_211_167193" x1="52.421" y1="45.1278" x2="37.819" y2="33.8134" gradientUnits="userSpaceOnUse">
<stop stop-color="#FFDC67"/>
<stop offset="1" stop-color="#FFC35A"/>
</linearGradient>
<linearGradient id="paint34_linear_211_167193" x1="88.604" y1="29.038" x2="90.1658" y2="11.4313" gradientUnits="userSpaceOnUse">
<stop stop-color="#FFDC67"/>
<stop offset="1" stop-color="#FFC35A"/>
</linearGradient>
<linearGradient id="paint35_linear_211_167193" x1="93.0608" y1="31.9707" x2="98.7529" y2="13.7082" gradientUnits="userSpaceOnUse">
<stop stop-color="#FFDC67"/>
<stop offset="1" stop-color="#FFC35A"/>
</linearGradient>
<linearGradient id="paint36_linear_211_167193" x1="90.0209" y1="31.0836" x2="95.7288" y2="12.7705" gradientUnits="userSpaceOnUse">
<stop stop-color="#FFDC67"/>
<stop offset="1" stop-color="#FFC35A"/>
</linearGradient>
<linearGradient id="paint37_linear_211_167193" x1="85.7907" y1="30.0794" x2="90.8512" y2="13.8428" gradientUnits="userSpaceOnUse">
<stop stop-color="#EAB22F"/>
<stop offset="1" stop-color="#FBBE3E"/>
</linearGradient>
<linearGradient id="paint38_linear_211_167193" x1="91.0267" y1="31.5065" x2="96.5088" y2="13.9176" gradientUnits="userSpaceOnUse">
<stop stop-color="#FFDC67"/>
<stop offset="1" stop-color="#FFC35A"/>
</linearGradient>
<linearGradient id="paint39_linear_211_167193" x1="62.3552" y1="40.1227" x2="90.0646" y2="52.233" gradientUnits="userSpaceOnUse">
<stop stop-color="#FFDC67"/>
<stop offset="1" stop-color="#FFC35A"/>
</linearGradient>
<linearGradient id="paint40_linear_211_167193" x1="68.5926" y1="42.8487" x2="88.2539" y2="51.4417" gradientUnits="userSpaceOnUse">
<stop stop-color="#FFDC67"/>
<stop offset="1" stop-color="#FFC35A"/>
</linearGradient>
<linearGradient id="paint41_linear_211_167193" x1="62.6576" y1="40.9843" x2="89.632" y2="52.7736" gradientUnits="userSpaceOnUse">
<stop stop-color="#EAB22F"/>
<stop offset="1" stop-color="#FBBE3E"/>
</linearGradient>
<linearGradient id="paint42_linear_211_167193" x1="69.98" y1="73.1227" x2="53.6324" y2="98.2879" gradientUnits="userSpaceOnUse">
<stop stop-color="#FFDC67"/>
<stop offset="1" stop-color="#FFC35A"/>
</linearGradient>
<linearGradient id="paint43_linear_211_167193" x1="66.3798" y1="78.6645" x2="54.6776" y2="96.6791" gradientUnits="userSpaceOnUse">
<stop stop-color="#FFDC67"/>
<stop offset="1" stop-color="#FFC35A"/>
</linearGradient>
<linearGradient id="paint44_linear_211_167193" x1="68.8895" y1="73.2055" x2="53.0088" y2="97.6528" gradientUnits="userSpaceOnUse">
<stop stop-color="#EAB22F"/>
<stop offset="1" stop-color="#FBBE3E"/>
</linearGradient>
<linearGradient id="paint45_linear_211_167193" x1="24.7572" y1="33.5169" x2="-4.57643" y2="41.356" gradientUnits="userSpaceOnUse">
<stop stop-color="#FFDC67"/>
<stop offset="1" stop-color="#FFC35A"/>
</linearGradient>
<linearGradient id="paint46_linear_211_167193" x1="18.2597" y1="35.2532" x2="-2.69022" y2="40.8521" gradientUnits="userSpaceOnUse">
<stop stop-color="#FFDC67"/>
<stop offset="1" stop-color="#FFC35A"/>
</linearGradient>
<linearGradient id="paint47_linear_211_167193" x1="23.9114" y1="32.903" x2="-4.60102" y2="40.5226" gradientUnits="userSpaceOnUse">
<stop stop-color="#EAB22F"/>
<stop offset="1" stop-color="#FBBE3E"/>
</linearGradient>
<clipPath id="clip0_211_167193">
<rect width="106.734" height="92" fill="white" transform="translate(0.451172)"/>
</clipPath>
</defs>
</svg>
