<svg width="75" height="92" viewBox="0 0 75 92" fill="none" xmlns="http://www.w3.org/2000/svg">
<g clip-path="url(#clip0_206_167079)">
<path d="M48.3284 91.0227C47.4544 92.5232 49.427 87.4123 42.995 76.982C36.562 66.5518 30.0489 61.2073 34.2005 28.393C34.3659 27.111 41.0645 30.8988 41.5968 31.2035C44.4123 32.8163 47.9996 34.845 50.0454 37.5603C56.1797 45.7023 59.6247 56.6808 59.2969 66.8615C59.1817 70.4358 58.5542 74.0432 57.0728 77.3168C54.8315 82.2703 51.0517 86.3458 48.3274 91.0217L48.3284 91.0227Z" fill="#A3CB36"/>
<path d="M50.6184 37.1304C56.8359 45.3816 60.347 56.5065 60.0122 66.8866C59.8829 70.937 59.1132 74.5474 57.7239 77.6136C56.3678 80.6176 54.4433 83.3188 52.583 85.9329C51.33 87.692 50.037 89.5102 48.9445 91.3826C48.8804 91.4979 48.7641 91.6933 48.5877 91.8326C48.4283 91.9589 48.2218 92.0401 47.9542 91.978C47.3799 91.8447 47.3388 91.3204 47.2927 90.712C47.2365 89.9563 47.1223 88.4398 46.4758 86.2206C46.6171 85.8648 46.7604 85.5109 46.9017 85.1561C47.0381 84.8173 47.1724 84.4795 47.3067 84.1418C48.1366 82.0689 48.9655 79.9971 49.7925 77.9243C50.877 75.212 51.9685 72.4696 52.3995 69.5799C52.7884 66.9528 52.617 64.2695 52.2853 61.6344C51.6007 56.2258 50.2365 50.9044 48.2298 45.8367C46.5269 41.5326 44.1072 37.1625 40.4648 34.1996C38.7247 32.7823 36.5557 32.211 34.556 31.4392C34.3235 31.353 34.093 31.2577 33.8674 31.1625C33.6339 31.0643 33.4054 30.959 33.1818 30.8498C32.5985 30.5661 32.0462 30.2384 31.541 29.8384C32.1194 29.4966 32.7458 29.1919 33.4104 28.9273C33.6579 28.8291 33.9115 28.7339 34.1681 28.6467C34.5681 28.5063 34.979 28.379 35.403 28.2648C35.823 28.1485 36.254 28.0443 36.695 27.951C38.0201 28.4602 39.7752 29.3383 41.9512 30.5832L42.0946 30.6644C44.9572 32.3032 48.5165 34.3429 50.6174 37.1304H50.6184Z" fill="#98B729"/>
<path d="M42.0957 30.6653L41.9524 30.5841C39.7763 29.3392 38.0212 28.4612 36.6961 27.952C35.3831 27.4509 34.492 27.3135 34.0309 27.5421C33.7302 27.6924 33.5328 27.9701 33.4907 28.3048C33.4646 28.5143 33.4376 28.7218 33.4115 28.9273C33.3323 29.5808 33.2541 30.2203 33.183 30.8498C30.0346 58.3357 34.8298 65.6988 40.3536 74.1826C41.0182 75.2029 41.7058 76.2594 42.3854 77.3589C44.6256 80.9914 45.8254 83.9683 46.4779 86.2216C47.1234 88.4407 47.2377 89.9572 47.2948 90.713C47.3409 91.3214 47.382 91.8456 47.9563 91.979C48.224 92.0411 48.4304 91.9589 48.5898 91.8336C48.7652 91.6943 48.8815 91.4988 48.9466 91.3836C50.0392 89.5112 51.3322 87.692 52.5851 85.9339C54.4454 83.3198 56.3689 80.6185 57.7261 77.6145C59.1153 74.5484 59.8851 70.938 60.0144 66.8876C60.3492 56.5074 56.837 45.3836 50.6205 37.1314C48.5206 34.3439 44.9604 32.3051 42.0977 30.6653H42.0957ZM51.4174 85.103C50.4652 86.4411 49.4889 87.8143 48.5848 89.2295C48.4274 88.0428 48.0906 86.3298 47.3078 84.1407C46.5621 82.0499 45.4044 79.526 43.6032 76.6062C42.9156 75.4916 42.222 74.4271 41.5544 73.4007C36.207 65.1906 31.5632 58.0651 34.5552 31.4391C34.6494 30.6002 34.7506 29.7412 34.8619 28.8621C35.8311 29.0325 38.5595 30.2905 41.2397 31.827L41.385 31.9102C44.1314 33.4829 47.5504 35.4414 49.4729 37.9924C55.4999 45.993 58.9038 56.7761 58.581 66.8415C58.4568 70.7025 57.7291 74.1304 56.419 77.0242C55.12 79.9009 53.2356 82.546 51.4164 85.103H51.4174Z" fill="#385100"/>
<path d="M30.169 22.1495L27.4717 24.8939C27.4717 24.8939 34.062 32.0345 29.6467 38.4525C25.2315 44.8704 31.1142 49.1012 31.1142 49.1012C31.1142 49.1012 30.7022 41.7331 33.9347 39.3064C33.9347 39.3064 38.4412 50.4824 45.0836 45.9539C45.0836 45.9539 36.0597 42.5059 39.0346 37.9593C42.0095 33.4127 38.5114 30.7636 38.5114 30.7636C38.5114 30.7636 46.6633 34.2928 49.957 37.5293C49.957 37.5293 49.1842 28.0964 30.169 22.1495Z" fill="#A3CB36"/>
<path d="M50.5517 36.7886C50.5196 36.7896 50.4886 36.7896 50.4545 36.7886C50.224 36.7856 50.0014 36.7576 49.7869 36.7114C48.3245 36.3987 47.218 35.1508 46.1705 33.8859C45.8277 33.4719 45.494 33.058 45.1532 32.6741C43.374 30.6584 40.9674 29.206 38.3564 28.5805C37.4422 28.361 36.4419 28.2768 35.4927 28.3851C33.5782 28.6046 31.7109 27.8298 30.3848 26.4325C29.8526 25.8682 29.2221 25.3991 28.5295 25.0583C28.2498 24.917 27.9582 24.7987 27.6585 24.7045C27.5302 24.6654 27.4009 24.6283 27.2686 24.5993C27.1032 24.6484 26.9388 24.6905 26.7744 24.7326C26.7935 24.6564 26.9478 24.7356 26.9889 24.6694C26.9077 24.6544 26.9709 24.3818 26.9709 24.3818L29.6581 21.6484C29.8466 21.456 30.1252 21.3888 30.3828 21.468C46.9263 26.642 49.9944 34.4422 50.5507 36.7906L50.5517 36.7886Z" fill="#98B729"/>
<path d="M30.3835 21.466C30.1259 21.3868 29.8482 21.455 29.6588 21.6464L26.9715 24.3798L26.9615 24.3908C26.9244 24.4289 26.8914 24.471 26.8653 24.5151C26.8232 24.5812 26.7931 24.6544 26.7741 24.7306C26.723 24.9541 26.7791 25.1987 26.9465 25.3791C27.0086 25.4463 33.1008 32.1679 29.0574 38.0446C24.3003 44.9616 30.6311 49.6345 30.6972 49.6796C30.9197 49.841 31.2164 49.859 31.46 49.7277C31.7035 49.5934 31.8459 49.3338 31.8298 49.0602C31.7326 47.3111 31.919 42.7405 33.7032 40.5273C34.6193 42.4077 36.9477 46.4812 40.3306 47.5096C42.0486 48.0298 43.7857 47.705 45.4866 46.5443C45.5026 46.5343 45.5167 46.5243 45.5297 46.5133C45.7222 46.3609 45.8244 46.1163 45.7963 45.8698C45.7663 45.6041 45.5898 45.3786 45.3413 45.2834C43.8999 44.7321 39.9998 42.8046 39.2701 40.5454C39.0316 39.8097 39.1499 39.091 39.636 38.3503C41.2357 35.9026 41.1315 33.919 40.5952 32.5197C43.2294 33.8007 47.38 35.9988 49.4558 38.0395C49.6713 38.25 49.9911 38.3042 50.2617 38.1779C50.5343 38.0496 50.6967 37.7699 50.6717 37.4692C50.6667 37.4121 50.6426 37.1755 50.5524 36.7876C49.9961 34.4402 46.927 26.639 30.3845 21.465L30.3835 21.466ZM46.1712 33.8859C42.7492 31.8281 39.0236 30.2063 38.796 30.1071C38.4663 29.9638 38.0824 30.0901 37.897 30.4018C37.7135 30.7115 37.7927 31.1114 38.0764 31.3309C38.1967 31.4252 40.9942 33.6594 38.4352 37.5664C37.7085 38.678 37.5301 39.8297 37.907 40.9894C38.6758 43.3639 41.6737 45.1391 43.4639 46.0161C42.5488 46.3749 41.6507 46.414 40.7486 46.1384C37.058 45.0218 34.6253 39.097 34.6003 39.0379C34.5171 38.8294 34.3437 38.675 34.1282 38.6139C33.9147 38.5547 33.6852 38.5998 33.5067 38.7322C33.4747 38.7572 33.4436 38.7793 33.4115 38.8043C30.9789 40.7298 30.4787 45.0348 30.3955 47.4384C29.0895 45.9189 27.4657 42.8848 30.2391 38.8564C34.1272 33.2023 30.0667 27.0329 28.5322 25.0553C28.5001 25.0112 28.469 24.9711 28.438 24.9321L29.6247 23.7242L29.744 23.606L30.3765 22.9625C39.655 25.9314 44.2918 29.7302 46.5521 32.4125C47.5103 33.5501 48.1308 34.5835 48.5317 35.4235C47.798 34.8962 46.9951 34.378 46.1742 33.8839L46.1712 33.8859Z" fill="#385100"/>
<path d="M1.12438 87.3182C-0.493381 87.9517 4.2266 85.1702 5.65893 72.9999C7.09126 60.8296 5.3011 52.5964 28.9271 29.4476C29.8522 28.5455 32.753 35.6731 32.9805 36.2424C34.1863 39.2544 35.7399 43.0713 35.6577 46.4712C35.4131 56.6619 31.2986 67.4089 24.7223 75.187C22.4139 77.9173 19.6815 80.357 16.4881 82.0038C11.6559 84.4966 6.1621 85.3446 1.12438 87.3192V87.3182Z" fill="#A3CB36"/>
<path d="M36.3745 46.4882C36.1259 56.8163 31.9743 67.7176 25.2677 75.6481C22.6526 78.7433 19.808 81.0967 16.815 82.6383C13.8872 84.1508 10.7008 85.075 7.61963 85.9701C5.54581 86.5715 3.40282 87.1939 1.38413 87.9838C1.26285 88.0339 1.05035 88.1151 0.825829 88.1151C0.623358 88.1151 0.410864 88.0509 0.238463 87.8354C-0.129393 87.3753 0.16429 86.9383 0.506085 86.4322C0.931074 85.8047 1.78306 84.5448 2.65408 82.4038C2.98585 82.2133 3.31763 82.0239 3.6494 81.8335C3.96714 81.652 4.28187 81.4706 4.5966 81.2892C6.53411 80.1796 8.46961 79.07 10.4051 77.9574C12.939 76.5041 15.498 75.0316 17.6289 73.034C19.5644 71.2158 21.096 69.0056 22.4712 66.7333C25.2917 62.0675 27.5259 57.0488 29.0986 51.8297C30.4347 47.3984 31.2516 42.4699 30.2342 37.8852C29.7501 35.6941 28.404 33.9 27.3154 32.0527C27.1861 31.8402 27.0649 31.6227 26.9476 31.4082C26.8263 31.1867 26.711 30.9621 26.6038 30.7376C26.3221 30.1532 26.0926 29.5539 25.9453 28.9264C26.6108 29.0166 27.2914 29.167 27.976 29.3724C28.2316 29.4486 28.4892 29.5328 28.7448 29.623C29.1457 29.7613 29.5466 29.9167 29.9496 30.0911C30.3505 30.2605 30.7534 30.4469 31.1574 30.6474C31.8801 31.8692 32.711 33.6474 33.6442 35.9738L33.7063 36.1261C34.9332 39.1883 36.4577 42.9971 36.3745 46.4852V46.4882Z" fill="#98B729"/>
<path d="M33.7066 36.1291L33.6445 35.9767C32.7113 33.6503 31.8814 31.8722 31.1577 30.6504C30.439 29.4425 29.8256 28.782 29.3224 28.6748C28.9927 28.6056 28.6659 28.7008 28.4253 28.9374C28.275 29.0857 28.1246 29.231 27.9763 29.3764C27.5082 29.8395 27.0501 30.2925 26.6041 30.7416C7.07368 50.3351 6.26279 59.0845 5.32761 69.1649C5.21535 70.3778 5.09808 71.6327 4.94773 72.9167C4.44857 77.1545 3.54246 80.2337 2.6544 82.4047C1.78337 84.5457 0.931388 85.8056 0.506399 86.4331C0.165607 86.9393 -0.128076 87.3753 0.238777 87.8364C0.410176 88.0509 0.62267 88.116 0.826143 88.116C1.05067 88.116 1.26316 88.0348 1.38444 87.9847C3.40314 87.1949 5.54612 86.5724 7.61995 85.971C10.7011 85.076 13.8865 84.1528 16.8153 82.6393C19.8083 81.0977 22.6529 78.7442 25.268 75.649C31.9736 67.7186 36.1263 56.8172 36.3748 46.4892C36.458 43.0001 34.9335 39.1912 33.7066 36.1301V36.1291ZM7.22202 84.5948C5.64435 85.0529 4.02659 85.523 2.4399 86.0723C3.05332 85.0439 3.85218 83.4923 4.59691 81.2901C5.31057 79.1873 5.96911 76.491 6.37004 73.0831C6.52239 71.782 6.63967 70.5181 6.75393 69.2982C7.65803 59.5426 8.44085 51.0729 27.3158 32.0556C27.9101 31.4562 28.5236 30.8458 29.156 30.2254C29.8096 30.9601 31.1677 33.6403 32.3154 36.509L32.3775 36.6643C33.5543 39.6022 35.0197 43.2607 34.9425 46.4531C34.7019 56.4664 30.6756 67.034 24.1745 74.7249C21.6807 77.6747 18.9814 79.9109 16.1588 81.3663C13.3543 82.8147 10.236 83.7198 7.22202 84.5948Z" fill="#385100"/>
<path d="M29.6416 22.0493L25.8237 22.5264C25.8237 22.5264 26.5584 32.215 19.1121 34.5063C11.6667 36.7976 13.6524 43.7658 13.6524 43.7658C13.6524 43.7658 17.9033 37.7328 21.9437 37.838C21.9437 37.838 18.5387 49.3979 26.5574 49.9703C26.5574 49.9703 21.6229 41.6659 26.7779 39.9469C31.9329 38.229 30.8353 33.9811 30.8353 33.9811C30.8353 33.9811 35.0351 41.8083 35.6084 46.3909C35.6084 46.3909 40.8587 38.5156 29.6426 22.0493H29.6416Z" fill="#A3CB36"/>
<path d="M36.5339 46.1784C36.5078 46.1594 36.4838 46.1403 36.4577 46.1183C36.2783 45.9729 36.1209 45.8126 35.9826 45.6432C35.0304 44.4905 34.9372 42.8246 34.9011 41.1828C34.8891 40.6455 34.8841 40.1133 34.856 39.6011C34.7127 36.9169 33.7274 34.2837 32.0685 32.1718C31.4882 31.4321 30.7565 30.7445 29.9446 30.2413C28.3078 29.225 27.3245 27.4589 27.1521 25.5404C27.0849 24.7676 26.8825 24.0078 26.5507 23.3112C26.4194 23.0276 26.264 22.7529 26.0876 22.4923C26.0114 22.3821 25.9322 22.2728 25.847 22.1676C25.6867 22.1034 25.5323 22.0343 25.377 21.9651C25.4391 21.917 25.5103 22.0753 25.5844 22.0483C25.5293 21.9861 25.7488 21.8117 25.7488 21.8117L29.5527 21.3366C29.8203 21.3036 30.0799 21.4228 30.2332 21.6443C39.9909 35.9697 37.5553 43.9913 36.5339 46.1764V46.1784Z" fill="#98B729"/>
<path d="M30.2344 21.6453C30.0821 21.4238 29.8215 21.3045 29.5538 21.3376L25.75 21.8127L25.736 21.8147C25.6838 21.8217 25.6307 21.8338 25.5836 21.8528C25.5094 21.8789 25.4403 21.917 25.3781 21.9651C25.1987 22.1084 25.0915 22.3349 25.1105 22.5805C25.1175 22.6707 25.7219 31.7228 18.9031 33.8206C10.8794 36.2904 12.9422 43.884 12.9653 43.9602C13.0394 44.2248 13.2609 44.4233 13.5336 44.4704C13.8082 44.5155 14.0798 44.4013 14.2372 44.1767C15.2466 42.7444 18.2295 39.2773 21.0029 38.6499C20.5539 40.6926 19.8503 45.3314 21.864 48.2382C22.8873 49.7126 24.451 50.5365 26.5057 50.6819C26.5248 50.6839 26.5418 50.6839 26.5579 50.6839C26.8034 50.6839 27.035 50.5546 27.1663 50.3451C27.3066 50.1186 27.3096 49.8319 27.1733 49.6034C26.3855 48.2763 24.5241 44.3441 25.3551 42.1199C25.6247 41.3943 26.164 40.9051 27.0039 40.6265C29.7774 39.7003 30.927 38.0806 31.3761 36.6502C32.646 39.2894 34.5354 43.5904 34.8963 46.4771C34.9344 46.7758 35.1519 47.0163 35.4425 47.0855C35.7362 47.1547 36.0369 47.0354 36.2033 46.7848C36.2344 46.7367 36.3627 46.5362 36.5331 46.1764C37.5544 43.9903 39.9911 35.9696 30.2324 21.6443L30.2344 21.6453ZM34.9023 41.1828C33.497 37.4461 31.5826 33.8607 31.4663 33.6412C31.2969 33.3235 30.917 33.1852 30.5782 33.3145C30.2414 33.4438 30.056 33.8056 30.1412 34.1544C30.1773 34.3028 30.9832 37.7909 26.5519 39.2663C25.2919 39.6863 24.4379 40.4791 24.0129 41.6218C23.1419 43.9602 24.3898 47.2128 25.2488 49.013C24.3086 48.7263 23.5809 48.1991 23.0437 47.4233C20.8436 44.2569 22.6137 38.1016 22.6307 38.0395C22.6949 37.825 22.6548 37.5954 22.5235 37.414C22.3922 37.2346 22.1847 37.1273 21.9632 37.1203C21.9221 37.1203 21.884 37.1183 21.8439 37.1183C18.7417 37.1183 15.6776 40.1824 14.1189 42.0157C14.0377 40.013 14.6492 36.6272 19.324 35.1908C25.8823 33.1721 26.5288 25.815 26.5529 23.3112C26.5549 23.2561 26.5549 23.206 26.5549 23.1558L28.2348 22.9453L28.4022 22.9263L29.2972 22.814C34.7289 30.9019 36.0058 36.7585 36.1131 40.2636C36.1582 41.7501 36.0028 42.9459 35.7954 43.853C35.5468 42.984 35.2391 42.0799 34.9033 41.1828H34.9023Z" fill="#385100"/>
<path d="M27.6271 22.8702C27.0748 22.8702 26.5797 22.4853 26.4614 21.924C25.8239 18.907 25.1634 15.7877 25.2877 12.5693C25.431 8.8496 26.6929 5.60205 28.8419 3.42298C32.1496 0.0701779 37.917 -0.920126 43.5341 0.900108C47.0663 2.04577 50.2186 4.01636 53.2677 5.92179C54.2901 6.56128 55.3466 7.22081 56.393 7.83424C61.4738 10.8102 65.5503 11.9498 69.2259 11.4206C69.8794 11.3284 70.4828 11.7794 70.577 12.4319C70.6712 13.0844 70.2182 13.6889 69.5656 13.7831C63.9977 14.5849 58.6924 11.9478 55.1862 9.89403C54.1107 9.26456 53.0392 8.594 52.0028 7.9465C48.9417 6.03305 46.0509 4.22584 42.7984 3.17139C39.178 1.99866 33.7954 1.7992 30.5399 5.10088C28.8098 6.85396 27.7915 9.5392 27.6712 12.6625C27.5589 15.5843 28.1874 18.5572 28.7948 21.4319C28.9311 22.0764 28.5192 22.7098 27.8747 22.8462C27.7915 22.8642 27.7083 22.8722 27.6271 22.8722V22.8702Z" fill="#385100"/>
<path d="M71.1983 39.3525C71.1983 39.3525 79.647 66.6621 61.5779 77.3549C43.5089 88.0478 41.6215 88.7424 20.9414 82.2874C20.9414 82.2874 74.2404 49.6184 71.1983 39.3535V39.3525Z" fill="#98B729"/>
<path d="M38.799 87.1187C34.4018 86.9854 29.2438 85.6102 20.734 82.954L19.2666 82.4959L20.5777 81.6931C20.711 81.6119 34.0319 73.4288 46.8057 64.1021C68.9802 47.9125 71.1874 41.7712 70.5298 39.552L71.866 39.1471C71.9532 39.4308 74.0099 46.1754 73.8626 54.3575C73.6661 65.2939 69.5415 73.4549 61.9339 77.9564C52.7896 83.368 47.7639 86.2256 42.3313 86.9443C41.1756 87.0966 40.0159 87.1558 38.799 87.1187ZM22.6094 82.0739C32.3009 85.0639 37.3176 86.1985 42.1488 85.5601C47.3118 84.8765 52.2403 82.0709 61.2242 76.7546C68.4861 72.4566 72.2689 64.9241 72.4674 54.3665C72.5526 49.8289 71.9191 45.6773 71.3548 42.9319C69.1246 47.9015 61.2843 55.2606 47.6236 65.2328C37.1352 72.8896 26.2829 79.7766 22.6094 82.0729V82.0739Z" fill="#385100"/>
<path d="M20.9412 82.2874C19.2523 82.1561 24.5767 81.7211 31.0076 71.6506C37.4386 61.5792 39.3681 53.5936 69.9402 43.3248C71.136 42.9268 70.6509 50.4142 70.6088 51.0106C70.3862 54.166 70.1266 58.1763 68.6101 61.1242C64.0625 69.9627 55.8835 77.6436 46.8064 81.673C43.62 83.0872 40.185 84.0665 36.6828 84.1547C31.3835 84.288 26.2015 82.6963 20.9412 82.2874Z" fill="#A3CB36"/>
<path d="M35.2124 84.8474C32.5041 84.7652 29.8228 84.3091 27.2158 83.8651C25.1409 83.5123 22.9949 83.1464 20.888 82.9831C20.6445 82.964 20.0731 82.9199 19.9458 82.3646C19.8186 81.8043 20.2626 81.5467 20.7768 81.248C22.0628 80.5013 25.9779 78.231 30.4192 71.2748C31.0978 70.2123 31.7323 69.1609 32.3467 68.1455C37.6069 59.4413 42.1505 51.9228 69.7176 42.6633C70.0303 42.559 70.3571 42.6141 70.6167 42.8166C71.0136 43.1253 71.4386 43.7458 71.4396 47.2379C71.4396 49.1283 71.3103 50.9826 71.3053 51.0608L71.2943 51.2212C71.0688 54.4276 70.7881 58.4189 69.2315 61.445C64.6228 70.4028 56.3455 78.2039 47.09 82.3125C43.4776 83.9162 39.9815 84.7712 36.7008 84.8534C36.2037 84.8654 35.7075 84.8634 35.2124 84.8484V84.8474ZM22.6241 81.7522C24.2509 81.9446 25.8706 82.2203 27.4493 82.4889C30.4673 83.0031 33.5886 83.5343 36.6657 83.4571C39.7619 83.379 43.0787 82.5651 46.5237 81.0355C55.4975 77.0522 63.5222 69.4897 67.9906 60.8055C69.4159 58.035 69.6856 54.2021 69.9021 51.1229L69.9131 50.9626C70.1035 48.2633 70.0975 45.0879 69.8118 44.1056C43.0436 53.1466 38.6383 60.4356 33.5415 68.8682C32.923 69.8916 32.2835 70.9501 31.5959 72.0266C27.9074 77.803 24.5295 80.4993 22.6241 81.7532V81.7522Z" fill="#385100"/>
<path d="M46.1816 79.1596C51.3797 76.0178 53.8629 70.6076 51.7282 67.0758C49.5934 63.5439 43.649 63.2278 38.451 66.3696C33.2529 69.5115 30.7696 74.9216 32.9044 78.4535C35.0391 81.9853 40.9836 82.3015 46.1816 79.1596Z" fill="#A3CB36"/>
<path d="M52.4012 73.5861C51.2887 76.0057 49.2229 78.2179 46.5767 79.8176C43.9336 81.4153 41.0118 82.2162 38.3526 82.0749C37.4856 82.0298 36.6757 81.8854 35.938 81.6499C34.3222 81.1337 33.0502 80.1774 32.2474 78.8504C31.5016 77.6135 31.2561 76.1741 31.4485 74.6787C31.6941 74.6666 31.9477 74.6696 32.2013 74.6917C32.4518 74.7107 32.7014 74.7468 32.949 74.7989C33.7218 74.9583 34.4625 75.268 35.0489 75.7191C35.9209 76.3916 36.5714 77.3218 37.4645 77.9663C38.3566 78.6128 39.6847 78.9005 40.5186 78.1798C41.5791 77.2707 41.1551 75.4615 41.968 74.3268C43.3783 72.3542 47.1611 73.8247 48.5242 71.82C49.3361 70.6262 48.6946 69.0385 48.5503 67.6022C48.4781 66.9026 48.5563 66.2069 48.7578 65.5404C48.8309 65.2978 48.9192 65.0573 49.0234 64.8237C49.1306 64.5892 49.2499 64.3606 49.3832 64.1401C50.6722 64.6864 51.6986 65.5494 52.3822 66.679C53.5509 68.6105 53.5559 71.0632 52.4003 73.5841L52.4012 73.5861Z" fill="#98B729"/>
<path d="M52.3831 66.6821C51.6985 65.5525 50.6721 64.6895 49.3841 64.1432C48.471 63.7513 47.4265 63.5178 46.2789 63.4556C43.6187 63.3163 40.6979 64.1171 38.0547 65.7149C34.2699 68.0032 31.8543 71.4702 31.4494 74.6797C31.2569 76.1742 31.5035 77.6135 32.2482 78.8514C33.0501 80.1775 34.3231 81.1347 35.9388 81.6509C36.6765 81.8865 37.4864 82.0308 38.3534 82.0759C41.0126 82.2172 43.9334 81.4164 46.5776 79.8187C49.2237 78.2189 51.2895 76.0068 52.4021 73.5872C53.5568 71.0663 53.5518 68.6146 52.3841 66.6821H52.3831ZM51.0089 72.9457C50.0256 75.0917 48.1703 77.0653 45.7847 78.5066C43.4022 79.946 40.7911 80.6707 38.4346 80.5444C36.1884 80.4251 34.4584 79.542 33.5593 78.0576C32.9789 77.0973 32.7925 75.9777 32.9489 74.799C33.3057 72.0847 35.4788 69.0606 38.8466 67.0249C41.2301 65.5836 43.8412 64.8589 46.1967 64.9842C46.9284 65.0253 47.606 65.1445 48.2164 65.339C48.4028 65.3981 48.5832 65.4663 48.7576 65.5415C49.764 65.9634 50.5558 66.619 51.072 67.4729C51.9701 68.9574 51.9471 70.9019 51.0089 72.9447V72.9457Z" fill="#385100"/>
<path d="M39.2386 67.3877C39.2497 67.3837 39.2607 67.3797 39.2717 67.3747C40.5387 66.8986 41.4187 68.6647 40.2921 69.4154C39.5033 69.9407 38.538 70.0599 37.7161 70.517C37.3593 70.7155 37.0315 70.9731 36.7839 71.2998C36.5374 71.6246 36.389 72.0285 36.0322 72.2601C35.3285 72.7161 34.4786 71.9353 34.8655 71.1916C35.7615 69.4706 37.5657 68.0352 39.2376 67.3877H39.2386Z" fill="#BED87F"/>
<path d="M61.5298 67.6469C66.0998 63.6462 67.6009 57.8857 64.8826 54.7806C62.1643 51.6755 56.2559 52.4015 51.6859 56.4022C47.1159 60.403 45.6148 66.1634 48.3331 69.2686C51.0514 72.3737 56.9598 71.6477 61.5298 67.6469Z" fill="#A3CB36"/>
<path d="M66.6818 61.074C66.0082 63.65 64.3604 66.1899 62.0339 68.2267C59.7095 70.2614 56.9732 71.5594 54.33 71.8842C53.468 71.9914 52.6461 71.9904 51.8783 71.8872C50.1974 71.6607 48.7771 70.941 47.7557 69.7753C46.8055 68.6868 46.3124 67.3126 46.2412 65.807C46.4808 65.7529 46.7304 65.7108 46.9849 65.6888C47.2345 65.6637 47.4871 65.6557 47.7397 65.6637C48.5285 65.6858 49.3124 65.8612 49.9679 66.204C50.9441 66.7132 51.747 67.517 52.7393 67.9951C53.7306 68.4763 55.0888 68.5274 55.7834 67.6724C56.6685 66.5919 55.9358 64.8849 56.5382 63.625C57.5826 61.4369 61.5639 62.2247 62.5572 60.0126C63.1475 58.6955 62.2404 57.2441 61.8475 55.8549C61.6551 55.1783 61.61 54.4797 61.6911 53.7891C61.7202 53.5375 61.7663 53.2849 61.8275 53.0373C61.8916 52.7878 61.9698 52.5422 62.063 52.3016C63.4272 52.6144 64.5879 53.2849 65.4589 54.2782C66.9464 55.9772 67.3794 58.3898 66.6818 61.074Z" fill="#98B729"/>
<path d="M65.4592 54.2783C64.5882 53.285 63.4275 52.6144 62.0633 52.3017C61.0961 52.0752 60.0266 52.0271 58.886 52.1674C56.2428 52.4942 53.5064 53.7922 51.182 55.8269C47.8543 58.7407 46.0812 62.5756 46.2425 65.8071C46.3147 67.3126 46.8079 68.6868 47.7571 69.7754C48.7784 70.9411 50.1988 71.6607 51.8797 71.8873C52.6474 71.9905 53.4694 71.9915 54.3314 71.8843C56.9745 71.5595 59.7109 70.2615 62.0353 68.2268C64.3617 66.19 66.0095 63.6511 66.6831 61.0741C67.3807 58.3909 66.9477 55.9773 65.4603 54.2783H65.4592ZM65.1986 60.6862C64.6043 62.9705 63.1228 65.2388 61.0249 67.0741C58.9301 68.9073 56.4854 70.0761 54.1439 70.3637C51.9117 70.6384 50.0534 70.071 48.9097 68.766C48.171 67.922 47.7921 66.8516 47.741 65.6638C47.6187 62.9284 49.2315 59.5716 52.1914 56.9796C54.2863 55.1443 56.7309 53.9756 59.0734 53.6879C59.8011 53.6007 60.4897 53.5997 61.1232 53.6849C61.3166 53.711 61.5071 53.7461 61.6915 53.7902C62.756 54.0297 63.65 54.5379 64.3076 55.2887C65.4512 56.5937 65.768 58.5122 65.1996 60.6872L65.1986 60.6862Z" fill="#385100"/>
<path d="M52.6392 57.2672C52.6492 57.2611 52.6592 57.2551 52.6692 57.2491C53.833 56.5585 55.0087 58.1452 54.0304 59.0804C53.3448 59.7359 52.4157 60.0216 51.686 60.6139C51.3692 60.8715 51.0916 61.1823 50.9051 61.5471C50.7187 61.91 50.6435 62.3339 50.3328 62.6236C49.7194 63.196 48.7461 62.5755 48.9977 61.7756C49.5791 59.9243 51.1056 58.1963 52.6392 57.2672Z" fill="#BED87F"/>
<path d="M70.4072 38.231C70.326 38.229 70.2438 38.2169 70.1616 38.1969C69.5382 38.0425 69.1573 37.4111 69.3117 36.7876C70.0343 33.8688 70.7821 30.8498 72.2585 28.0804C72.5602 27.513 73.2649 27.2975 73.8322 27.6013C74.3995 27.903 74.614 28.6076 74.3113 29.1749C72.9712 31.6908 72.2585 34.5665 71.5699 37.3479C71.4356 37.8892 70.9425 38.248 70.4062 38.231H70.4072Z" fill="#385100"/>
<path d="M72.205 37.6697L69.2281 37.0422C69.2281 37.0422 67.2806 44.4735 61.1252 44.267C54.9699 44.0606 54.6582 49.7809 54.6582 49.7809C54.6582 49.7809 59.3902 46.3669 62.3832 47.4865C62.3832 47.4865 56.8593 55.2496 62.7049 57.7434C62.7049 57.7434 61.1563 50.265 65.4523 50.3081C69.7483 50.3522 70.0219 46.8942 70.0219 46.8942C70.0219 46.8942 71.1446 53.8273 70.3918 57.3996C70.3918 57.3996 76.3457 52.866 72.205 37.6687V37.6697Z" fill="#A3CB36"/>
<path d="M71.1389 57.4808C71.1239 57.4597 71.1108 57.4397 71.0968 57.4166C71.0006 57.2613 70.9244 57.1019 70.8643 56.9395C70.4493 55.833 70.8091 54.564 71.2061 53.3271C71.3354 52.9232 71.4687 52.5233 71.5799 52.1334C72.1643 50.0896 72.1061 47.8684 71.4105 45.8628C71.168 45.1601 70.7971 44.4575 70.321 43.8721C69.3598 42.6904 69.0791 41.1167 69.446 39.6383C69.5953 39.0429 69.6394 38.4235 69.5713 37.8171C69.5462 37.5705 69.5011 37.3259 69.4359 37.0864C69.4069 36.9841 69.3768 36.8819 69.3397 36.7816C69.2365 36.6924 69.1382 36.6002 69.041 36.509C69.1002 36.489 69.1122 36.6253 69.1743 36.6253C69.1493 36.5651 69.3588 36.491 69.3588 36.491L72.3247 37.1164C72.5331 37.1605 72.6965 37.3169 72.7537 37.5214C76.356 50.7431 72.468 56.1106 71.1409 57.4808H71.1389Z" fill="#98B729"/>
<path d="M72.7512 37.5203C72.694 37.3148 72.5307 37.1585 72.3222 37.1154L69.3563 36.4899L69.3453 36.4879C69.3042 36.4799 69.2621 36.4749 69.221 36.4769C69.1588 36.4769 69.0977 36.4879 69.0385 36.508C68.8681 36.5691 68.7288 36.7104 68.6797 36.8989C68.6617 36.968 66.7803 43.8901 61.1442 43.7007C54.5107 43.4792 54.0948 49.6866 54.0938 49.7498C54.0807 49.9673 54.196 50.1717 54.3865 50.278C54.5799 50.3822 54.8124 50.3672 54.9879 50.2399C56.1115 49.43 59.2347 47.6068 61.4689 47.8523C60.6069 49.2636 58.8859 52.5493 59.6417 55.2415C60.0266 56.6077 60.9828 57.6261 62.4813 58.2646C62.4953 58.2716 62.5073 58.2756 62.5204 58.2796C62.7038 58.3427 62.9103 58.3067 63.0626 58.1834C63.226 58.0501 63.3022 57.8366 63.2591 57.6301C63.0125 56.4353 62.6346 53.0164 63.8284 51.568C64.2173 51.0949 64.7466 50.8684 65.4462 50.8764C67.7576 50.8984 69.0345 49.9843 69.7382 49.0311C70.0068 51.3314 70.3115 55.032 69.8364 57.2833C69.7883 57.5158 69.8885 57.7524 70.088 57.8787C70.2894 58.006 70.545 57.9939 70.7345 57.8496C70.7696 57.8215 70.9179 57.7053 71.1374 57.4797C72.4645 56.1096 76.3526 50.7421 72.7502 37.5203H72.7512ZM71.2056 53.3261C71.1184 50.1707 70.6112 46.9984 70.5801 46.8039C70.535 46.5233 70.2874 46.3218 70.0008 46.3308C69.7161 46.3408 69.4836 46.5633 69.4575 46.846C69.4465 46.9663 69.1498 49.7818 65.4572 49.7417C64.4068 49.7307 63.5648 50.1026 62.9524 50.8483C61.6985 52.3719 61.7937 55.1243 61.9721 56.6909C61.3426 56.2348 60.9347 55.6525 60.7332 54.9348C59.9043 52.001 62.8141 47.8574 62.8421 47.8153C62.9454 47.6709 62.9744 47.4895 62.9233 47.3201C62.8712 47.1527 62.7439 47.0184 62.5795 46.9563C62.5494 46.9462 62.5214 46.9342 62.4913 46.9242C60.1729 46.1243 57.0928 47.6258 55.4559 48.5941C55.911 47.0765 57.2401 44.703 61.1051 44.8343C66.5267 45.0147 68.9062 39.6823 69.5688 37.818C69.5848 37.7779 69.5978 37.7398 69.6109 37.7027L70.9209 37.9784L71.0502 38.0074L71.7478 38.1538C73.7234 45.5981 73.1681 50.305 72.3452 52.9522C71.9964 54.0748 71.5724 54.9288 71.1835 55.5533C71.2216 54.8396 71.2246 54.0848 71.2046 53.3271L71.2056 53.3261Z" fill="#385100"/>
</g>
<defs>
<clipPath id="clip0_206_167079">
<rect width="74.381" height="92" fill="white" transform="translate(0.0693359)"/>
</clipPath>
</defs>
</svg>
