<svg width="160" height="80" viewBox="0 0 160 80" fill="none" xmlns="http://www.w3.org/2000/svg">
<path d="M81.2193 76.6016C124.369 74.9236 158.826 60.1087 158.181 43.5117C157.535 26.9146 122.032 14.8204 78.882 16.4984C35.732 18.1764 1.27518 32.9913 1.9206 49.5883C2.56603 66.1854 38.0693 78.2796 81.2193 76.6016Z" fill="#ABABAB"/>
<path d="M81.1373 74.2583C124.287 72.5803 158.744 57.7654 158.099 41.1684C157.453 24.5714 121.95 12.4771 78.8 14.1551C35.6499 15.8332 1.19314 30.648 1.83857 47.2451C2.484 63.8421 37.9872 75.9363 81.1373 74.2583Z" fill="#DCDDDB"/>
<path d="M74.2445 20.8658C68.857 25.5604 54.8354 16.7606 45.7323 19.9088C36.6293 23.057 24.2875 25.3727 22.8674 34.157C22.5309 36.0708 20.0817 48.897 25.8124 55.1244C30.7546 60.5208 33.6468 62.8916 48.3557 63.3735C63.0646 63.8555 85.0499 65.6722 88.8989 64.0577C92.748 62.4431 116.029 64.0933 121.023 58.5264C126.017 52.9596 139.54 51.253 138.932 44.1959C138.325 37.1388 130.531 26.5058 121.451 28.6129C112.372 30.72 104.452 24.1077 100.737 20.7477C97.0223 17.3877 92.5904 4.91604 74.2445 20.8658Z" fill="#F9D885" stroke="#DBAC40" stroke-width="1.59" stroke-linecap="round" stroke-linejoin="round"/>
<path d="M39.1517 32.0983C39.1517 32.0983 45.8234 51.7134 52.5825 48.7068C59.3415 45.7002 76.7936 48.5336 89.7715 49.8049C102.749 51.0763 100.833 46.7796 103.487 43.0235" stroke="#DBAC3E" stroke-width="1.59" stroke-linecap="round" stroke-linejoin="round"/>
<path d="M32.9912 50.4401C32.9912 50.4401 50.4417 59.7389 60.2188 60.1982C69.9959 60.6575 90.2875 61.0828 103.533 56.9738C114.641 53.5274 118.592 56.5274 122.278 52.7312" stroke="#DBAC3E" stroke-width="1.59" stroke-linecap="round" stroke-linejoin="round"/>
<path d="M63.1591 24.8145C63.1591 24.8145 84.2212 44.4401 93.0346 33.9237C101.848 23.4074 124.831 38.1304 123.298 42.6374C121.765 47.1444 109.871 53.2494 102.438 54.4621" stroke="#DBAC3E" stroke-width="1.59" stroke-linecap="round" stroke-linejoin="round"/>
<path d="M47.0934 21.8511C47.0934 21.8511 33.5773 18.0899 32.5841 27.3992C31.5909 36.7086 27.7038 45.2322 35.2521 48.2486C42.8004 51.265 65.1827 55.1938 68.4316 53.7645" stroke="#DBAC3E" stroke-width="1.59" stroke-linecap="round" stroke-linejoin="round"/>
<path d="M125.493 31.2549C127 31.8952 128.293 32.9497 129.224 34.2959C130.155 35.6421 130.686 37.2248 130.753 38.8602C130.956 44.5585 127.458 48.6646 123.736 49.3948" stroke="#DBAC3E" stroke-width="1.59" stroke-linecap="round" stroke-linejoin="round"/>
<path d="M52.9943 55.3418C52.9943 55.3418 79.5966 58.4205 82.3925 56.4961C85.1884 54.5718 97.0082 56.2487 102.931 51.1082C106.93 47.7587 111.263 44.8298 115.862 42.3682" stroke="#DBAC3E" stroke-width="1.59" stroke-linecap="round" stroke-linejoin="round"/>
<path d="M27.6923 32.1531C27.6923 32.1531 23.9338 43.0946 27.8589 50.1813C31.784 57.268 40.1335 60.0584 41.1936 60.0925C42.2537 60.1266 51.6731 61.596 51.6731 61.596" stroke="#DBAC3E" stroke-width="1.59" stroke-linecap="round" stroke-linejoin="round"/>
<path d="M83.2136 11.3943C83.2136 11.3943 86.4148 11.5349 82.8107 11.4412C79.2067 11.3474 55.6629 15.3623 52.267 16.565C48.8711 17.7678 26.9084 22.9883 25.5178 28.9672C24.1273 34.9462 31.6304 44.9119 36.552 42.946C41.4735 40.98 57.0129 42.4872 63.2217 50.4046C69.4305 58.3221 82.552 56.6904 86.4219 50.9813C90.2917 45.2722 112.036 49.878 114.529 44.9098C117.023 39.9417 129.401 34.3096 127.656 30.0984C125.911 25.8873 118.803 23.9934 118.104 22.2991C117.405 20.6048 102.256 9.31548 83.2136 11.3943Z" fill="#DD653A"/>
<path d="M49.1302 29.0488C41.262 29.3475 40.7991 33.122 43.5719 34.7933C46.3447 36.4647 55.6915 39.8042 57.3474 38.2609C59.0033 36.7176 61.1695 34.0041 59.1698 32.5033C57.17 31.0025 57.0031 28.7233 49.1302 29.0488Z" fill="#F8F2E8"/>
<path d="M91.1693 33.8657C85.6491 34.0788 85.3521 36.7125 87.2696 37.8943C89.187 39.076 95.7685 41.4101 96.9282 40.3264C98.0879 39.2427 99.6069 37.3361 98.205 36.2935C96.803 35.2509 96.6828 33.6514 91.1693 33.8657Z" fill="#F8F2E8"/>
<path d="M64.397 15.6104C57.5458 15.8733 57.1481 18.4893 59.5284 19.6763C61.9088 20.8633 70.0491 23.1115 71.4935 22.0225C72.938 20.9335 74.8473 19.0125 73.1135 17.9669C71.3798 16.9214 71.2414 15.3463 64.397 15.6104Z" fill="#F8F2E8"/>
<path d="M102.955 24.7511C97.8939 26.8033 97.3461 29.5245 99.6143 29.9718C101.882 30.419 107.601 28.607 110.898 28.7922C115.693 29.0816 112.234 25.1298 110.461 24.6241C108.688 24.1185 108.016 22.699 102.955 24.7511Z" fill="#F8F2E8"/>
<path d="M80.8928 26.6798C78.4653 29.3772 75.3497 31.3635 71.8798 32.4259C68.2819 33.327 64.5127 33.2865 60.935 32.3082C63.3625 29.6108 66.4781 27.6244 69.948 26.562C73.5459 25.6609 77.3151 25.7015 80.8928 26.6798Z" fill="#385C2B"/>
<path d="M78.975 24.3973C78.975 24.3973 74.2907 24.2659 71.2494 21.5228C68.2081 18.7797 67.9591 14.5269 67.9591 14.5269C67.9591 14.5269 72.6434 14.6584 75.6767 17.407C78.7101 20.1556 78.975 24.3973 78.975 24.3973Z" fill="#385C2B"/>
<path d="M91.6288 18.6129C91.1693 18.6274 90.7112 18.6693 90.2568 18.7385C91.875 17.3208 93.0534 15.4693 93.6525 13.403C91.3686 13.6933 89.1999 14.5742 87.3604 15.9586C85.708 17.3731 84.5005 19.2357 83.8837 21.3215L83.8766 21.3618L83.9303 21.3712C86.2856 22.8222 88.9962 23.5935 91.7625 23.5999C94.554 23.4261 97.2429 22.4829 99.5313 20.8747C97.1584 19.4013 94.4219 18.6181 91.6288 18.6129Z" fill="#385C2B"/>
</svg>
