<svg width="108" height="82" viewBox="0 0 108 82" fill="none" xmlns="http://www.w3.org/2000/svg">
<g clip-path="url(#clip0_236_172877)">
<path d="M107.194 22.6056V58.3869C107.194 59.3945 107.065 60.3762 106.781 61.358C106.497 62.3397 106.109 63.2956 105.567 64.2256C105.024 65.1557 104.378 66.0599 103.603 66.9641C102.828 67.8425 101.924 68.6951 100.942 69.5476L98.2556 68.9793L95.5687 68.4109L92.0552 67.6617L88.5416 66.9125L82.3413 65.5949L76.1409 64.2773L68.0029 62.5464L59.8649 60.8154L61.9317 63.2181L63.9985 65.6207L66.0653 68.0234L68.132 70.426L70.173 72.8028L72.214 75.1796L72.8857 75.9547L73.5574 76.7297L74.9525 78.3315L76.3476 79.9333C74.6424 80.2949 72.9115 80.605 71.1289 80.8633C69.3463 81.1217 67.512 81.3542 65.6519 81.535C63.7918 81.7159 61.88 81.8709 59.9682 81.9484C58.0306 82.0517 56.0672 82.0776 54.0779 82.0776C46.7408 82.0776 39.7395 81.4058 33.3583 80.2174C27.0029 79.029 21.2675 77.2981 16.4622 75.1538C11.6569 73.0095 7.75587 70.4777 5.06904 67.6617C2.38221 64.8457 0.883789 61.7455 0.883789 58.4644V22.6831H107.272L107.194 22.6056Z" fill="#F9BA55"/>
<path d="M75.9336 45.1077H75.9594H75.9853L76.0111 45.0819L75.9853 45.1077H75.9594H75.9336Z" fill="#C99645"/>
<path d="M100.942 69.5217L98.2296 68.9534L95.5428 68.385L92.0292 67.6358L88.5157 66.8866L82.3153 65.5432L76.1149 64.2256V63.3472L76.0891 62.4688L76.0632 59.5495L76.0374 56.656V56.1909V55.7517L76.0116 53.0649L75.9857 50.4039L75.9599 47.7429L75.9341 45.1078L72.6014 44.0744L69.2428 43.0668L67.5119 42.5501L65.7551 42.0076L60.6915 40.4575L55.602 38.9074L54.3619 40.5608L53.1477 42.1884L52.5276 42.9893L51.9334 43.7902L51.3134 44.6169L50.6934 45.4694V44.5911L50.7192 43.7127L50.7967 38.8815L50.9 34.0504L51.0034 28.3409L51.1067 22.6056V22.2697V21.908V21.5463L51.1326 21.1846L52.5018 21.5463L53.8711 21.908L55.2403 22.2697L56.6096 22.6056L67.5636 25.4732L78.5176 28.3409L87.4048 30.666L96.3178 32.9654L98.3588 33.5079L100.4 34.0504L100.426 34.5671V35.0838L100.555 43.4285L100.684 51.799L100.761 57.7152L100.839 63.6314L100.891 66.5766L100.942 69.5217Z" fill="#FEE17A"/>
<path d="M86.5518 55.3126C86.5518 55.7518 86.6293 56.1651 86.8101 56.5527C86.9651 56.9402 87.1976 57.276 87.4818 57.5602C87.766 57.8444 88.1019 58.0769 88.4894 58.2319C88.8769 58.3869 89.2903 58.4903 89.7295 58.4903C90.1686 58.4903 90.582 58.4128 90.9695 58.2319C91.3571 58.0769 91.6929 57.8444 91.9771 57.5602C92.2613 57.276 92.4938 56.9402 92.6488 56.5527C92.8038 56.1651 92.9072 55.7518 92.9072 55.3126C92.9072 54.8734 92.8296 54.46 92.6488 54.0725C92.4938 53.685 92.2613 53.3491 91.9771 53.0649C91.6929 52.7808 91.3571 52.5482 90.9695 52.3932C90.582 52.2382 90.1686 52.1349 89.7295 52.1349C89.2903 52.1349 88.8769 52.2124 88.4894 52.3932C88.1019 52.5482 87.766 52.7808 87.4818 53.0649C87.1976 53.3491 86.9651 53.685 86.8101 54.0725C86.6551 54.46 86.5518 54.8734 86.5518 55.3126Z" fill="#FFB748"/>
<path d="M88.1019 52.5999C87.9727 52.7291 87.8693 52.8841 87.7918 53.0391C87.6885 53.1941 87.611 53.3491 87.5593 53.53C87.4818 53.7108 87.456 53.8917 87.4043 54.0725C87.3785 54.2533 87.3526 54.46 87.3526 54.6409C87.3526 55.0801 87.4301 55.4934 87.611 55.8809C87.766 56.2685 87.9985 56.6043 88.2827 56.8885C88.5669 57.1727 88.9027 57.4052 89.2903 57.5602C89.6778 57.7152 90.0911 57.8186 90.5303 57.8186C90.6853 57.8186 90.8145 57.8186 90.9695 57.7927C91.0987 57.7927 91.2537 57.7411 91.3829 57.7152C91.5121 57.6894 91.6412 57.6377 91.7704 57.5861C91.8996 57.5344 92.0288 57.4569 92.1321 57.4052C91.9771 57.586 91.8221 57.7411 91.6412 57.8702C91.4604 57.9994 91.2795 58.1286 91.0729 58.2319C90.8662 58.3353 90.6595 58.4128 90.427 58.4644C90.1945 58.5161 89.962 58.5419 89.7295 58.5419C89.2903 58.5419 88.8769 58.4644 88.4894 58.2836C88.1019 58.1286 87.766 57.8961 87.4818 57.6119C87.1976 57.3277 86.9651 56.9918 86.8101 56.6043C86.6551 56.2168 86.5518 55.8034 86.5518 55.3642C86.5518 55.0801 86.5776 54.7959 86.6551 54.5375C86.7326 54.2792 86.8359 54.0208 86.9651 53.7883C87.0943 53.5558 87.2751 53.3491 87.456 53.1424C87.6368 52.9616 87.8693 52.7808 88.1019 52.6516V52.5999Z" fill="#FFCC7B"/>
<path d="M92.1064 41.4909C92.1064 41.7751 92.1581 42.0593 92.2615 42.2918C92.3648 42.5501 92.5198 42.7568 92.7006 42.9377C92.8815 43.1185 93.114 43.2735 93.3724 43.3769C93.6307 43.4802 93.8891 43.5319 94.1732 43.5319C94.4574 43.5319 94.7416 43.4802 94.9741 43.3769C95.2325 43.2735 95.4392 43.1185 95.62 42.9377C95.8008 42.7568 95.9558 42.5243 96.0592 42.2918C96.1625 42.0334 96.2142 41.7751 96.2142 41.4909C96.2142 41.2067 96.1625 40.9225 96.0592 40.69C95.9558 40.4317 95.8008 40.225 95.62 40.0442C95.4392 39.8633 95.2066 39.7083 94.9741 39.605C94.7158 39.5016 94.4574 39.45 94.1732 39.45C93.8891 39.45 93.6049 39.5016 93.3724 39.605C93.114 39.7083 92.9073 39.8633 92.7006 40.0442C92.5198 40.225 92.3648 40.4575 92.2615 40.69C92.1581 40.9484 92.1064 41.2067 92.1064 41.4909Z" fill="#FFB748"/>
<path d="M93.1139 39.7083C93.1139 39.7083 92.9589 39.8891 92.9072 39.9924C92.8556 40.0958 92.8039 40.1991 92.7522 40.3283C92.7006 40.4316 92.6747 40.5608 92.6489 40.69C92.6489 40.8192 92.6231 40.9483 92.6231 41.0775C92.6231 41.3617 92.6747 41.6459 92.7781 41.8784C92.8814 42.1367 93.0364 42.3434 93.2173 42.5243C93.3981 42.7051 93.6306 42.8601 93.8631 42.9634C94.1215 43.0668 94.3798 43.1185 94.664 43.1185C94.7674 43.1185 94.8449 43.1185 94.9482 43.1185C95.0515 43.1185 95.129 43.0926 95.2065 43.0668C95.2841 43.041 95.3874 43.0151 95.4649 42.9634C95.5424 42.9376 95.6199 42.8859 95.6974 42.8343C95.5941 42.9376 95.4907 43.041 95.3874 43.1443C95.2582 43.2218 95.1549 43.2993 94.9999 43.3768C94.8707 43.4285 94.7157 43.4801 94.5865 43.5318C94.4315 43.5577 94.2765 43.5835 94.1215 43.5835C93.8373 43.5835 93.5531 43.5318 93.3206 43.4285C93.0623 43.3251 92.8556 43.1701 92.6489 42.9893C92.4422 42.8084 92.313 42.5759 92.2097 42.3434C92.1064 42.0851 92.0547 41.8267 92.0547 41.5425C92.0547 41.3617 92.0805 41.1808 92.1322 41C92.1839 40.8192 92.2614 40.6641 92.3389 40.5091C92.4164 40.3541 92.5455 40.225 92.6489 40.0958C92.7781 39.9666 92.9072 39.8633 93.0622 39.7599L93.1139 39.7083Z" fill="#FFCC7B"/>
<path d="M73.2734 38.339C73.2734 38.8299 73.3768 39.3207 73.5576 39.7599C73.7385 40.1991 73.9968 40.5866 74.3327 40.9225C74.6685 41.2584 75.056 41.5167 75.4952 41.6975C75.9344 41.8784 76.3995 41.9817 76.9162 41.9817C77.4329 41.9817 77.8979 41.8784 78.3371 41.6975C78.7763 41.5167 79.1638 41.2584 79.4997 40.9225C79.8355 40.5866 80.0939 40.1991 80.2747 39.7599C80.4555 39.3207 80.5589 38.8557 80.5589 38.339C80.5589 37.8223 80.4555 37.3573 80.2747 36.9181C80.0939 36.4789 79.8355 36.0914 79.4997 35.7555C79.1638 35.4197 78.7763 35.1613 78.3371 34.9805C77.8979 34.7996 77.4329 34.6963 76.9162 34.6963C76.3995 34.6963 75.9344 34.7996 75.4952 34.9805C75.056 35.1613 74.6685 35.4197 74.3327 35.7555C73.9968 36.0914 73.7385 36.4789 73.5576 36.9181C73.3768 37.3573 73.2734 37.8223 73.2734 38.339Z" fill="#FFB748"/>
<path d="M75.0554 35.213C74.9262 35.368 74.7971 35.5489 74.6937 35.7297C74.5904 35.9106 74.4871 36.0914 74.4096 36.2981C74.332 36.5048 74.2804 36.7114 74.2287 36.9181C74.177 37.1248 74.177 37.3573 74.177 37.564C74.177 38.0549 74.2804 38.5457 74.4612 38.9849C74.6421 39.4241 74.9004 39.8116 75.2363 40.1475C75.5721 40.4833 75.9596 40.7417 76.3988 40.9225C76.838 41.1034 77.3031 41.2067 77.8198 41.2067C78.0006 41.2067 78.1556 41.2067 78.3106 41.1809C78.4656 41.1809 78.6206 41.1292 78.7757 41.0775C78.9307 41.0259 79.0857 40.9742 79.2148 40.9225C79.3699 40.8709 79.499 40.7934 79.6282 40.7158C79.4732 40.9225 79.2665 41.0775 79.0598 41.2584C78.8532 41.4134 78.6465 41.5426 78.3881 41.6717C78.1556 41.7751 77.8973 41.8784 77.6389 41.9301C77.3806 41.9818 77.1222 42.0076 76.838 42.0076C76.3472 42.0076 75.8563 41.9043 75.4171 41.7234C74.9779 41.5426 74.5904 41.2842 74.2545 40.9484C73.9187 40.6125 73.6603 40.225 73.4795 39.7858C73.2986 39.3466 73.1953 38.8816 73.1953 38.3649C73.1953 38.029 73.247 37.719 73.3245 37.409C73.402 37.099 73.5312 36.8148 73.6862 36.5564C73.8412 36.2981 74.022 36.0397 74.2545 35.833C74.4612 35.6264 74.7196 35.4197 74.9779 35.2647L75.0554 35.213Z" fill="#FFCC7B"/>
<path d="M73.3242 53.5299C73.3242 53.9691 73.4017 54.3825 73.5826 54.77C73.7376 55.1575 73.9701 55.4934 74.2543 55.7776C74.5385 56.0617 74.8743 56.2943 75.2618 56.4493C75.6494 56.6043 76.0627 56.7076 76.5019 56.7076C76.9411 56.7076 77.3545 56.6301 77.742 56.4493C78.1295 56.2943 78.4654 56.0617 78.7496 55.7776C79.0337 55.4934 79.2662 55.1575 79.4213 54.77C79.5763 54.3825 79.6796 53.9691 79.6796 53.5299C79.6796 53.0907 79.6021 52.6774 79.4213 52.2899C79.2662 51.9023 79.0337 51.5665 78.7496 51.2823C78.4654 50.9981 78.1295 50.7656 77.742 50.6106C77.3545 50.4556 76.9411 50.3522 76.5019 50.3522C76.0627 50.3522 75.6494 50.4297 75.2618 50.6106C74.8743 50.7656 74.5385 50.9981 74.2543 51.2823C73.9701 51.5665 73.7376 51.9023 73.5826 52.2899C73.4276 52.6774 73.3242 53.0907 73.3242 53.5299Z" fill="#FFB748"/>
<path d="M74.8743 50.8173C74.7451 50.9464 74.6418 51.1014 74.5643 51.2565C74.461 51.4115 74.3834 51.5665 74.3318 51.7473C74.2801 51.9282 74.2284 52.109 74.1768 52.2898C74.1509 52.4707 74.1251 52.6774 74.1251 52.8582C74.1251 53.2974 74.2026 53.7108 74.3834 54.0983C74.5385 54.4858 74.771 54.8217 75.0552 55.1059C75.3393 55.39 75.6752 55.6226 76.0627 55.7776C76.4502 55.9326 76.8636 56.0359 77.3028 56.0359C77.4578 56.0359 77.587 56.0359 77.742 56.0101C77.8712 56.0101 78.0262 55.9584 78.1553 55.9326C78.2845 55.9067 78.4137 55.8551 78.5429 55.8034C78.672 55.7517 78.8012 55.6742 78.9046 55.6226C78.7495 55.8034 78.5945 55.9584 78.4137 56.0876C78.2329 56.2168 78.052 56.3459 77.8453 56.4493C77.6386 56.5526 77.432 56.6301 77.1995 56.6818C76.9669 56.7335 76.7344 56.7593 76.5019 56.7593C76.0627 56.7593 75.6494 56.6818 75.2618 56.5009C74.8743 56.3459 74.5385 56.1134 74.2543 55.8292C73.9701 55.5451 73.7376 55.2092 73.5826 54.8217C73.4276 54.4341 73.3242 54.0208 73.3242 53.5816C73.3242 53.2974 73.3759 53.0132 73.4276 52.7549C73.5051 52.4965 73.6084 52.2382 73.7376 52.0057C73.8668 51.7731 74.0476 51.5665 74.2284 51.3598C74.4093 51.1789 74.6418 50.9981 74.8743 50.8689V50.8173Z" fill="#FFCC7B"/>
<path d="M76.2695 79.8299L70.0949 79.7782L63.9204 79.7007L57.7458 79.6491L51.5713 79.5716V62.3397V45.1078H63.7395H75.9336L75.9594 47.7429L75.9853 50.4039L76.0111 53.0649L76.037 55.7518V56.191V56.656L76.0628 59.5495L76.0886 62.4688L76.1145 63.3472V64.2256L76.1661 70.2193L76.2178 76.213L76.2436 78.0215L76.2695 79.8299Z" fill="#F9BA55"/>
<path d="M107.194 23.6131C107.194 24.6465 107.039 25.6799 106.755 26.6875C106.471 27.695 106.031 28.6768 105.437 29.6327C104.869 30.5886 104.145 31.5444 103.319 32.4487C102.492 33.3529 101.536 34.2313 100.477 35.0838L97.8933 34.5413L95.3099 33.9988L87.7402 32.3712L80.1706 30.7436L70.0175 28.5734L59.8644 26.4033L63.8946 31.0794L67.9248 35.7555L70.715 38.9849L73.5052 42.2143L74.7453 43.661L75.9853 45.1078C74.3061 45.4436 72.601 45.7536 70.8442 46.012C69.0874 46.2703 67.279 46.5029 65.4447 46.6837C63.6104 46.8645 61.7503 46.9937 59.8385 47.0971C57.9267 47.2004 56.015 47.2262 54.0515 47.2262C46.7144 47.2262 39.7131 46.5545 33.3319 45.3661C26.9765 44.1777 21.2412 42.4468 16.4359 40.3025C11.6306 38.1582 7.72951 35.6264 5.04268 32.8104C2.35585 29.9943 0.857422 26.8942 0.857422 23.6131C0.857422 20.3321 2.35585 17.2577 5.04268 14.4159C7.72951 11.5999 11.6306 9.04224 16.4359 6.89794C21.2412 4.75364 26.9765 3.0227 33.3319 1.8343C39.6873 0.64589 46.6885 -0.0258179 54.0515 -0.0258179C61.4144 -0.0258179 68.3899 0.64589 74.7711 1.8343C81.1265 3.0227 86.8618 4.75364 91.693 6.89794C96.4983 9.04224 100.399 11.5741 103.086 14.4159C105.773 17.2319 107.271 20.3579 107.271 23.6131H107.194Z" fill="#FECB66"/>
<path d="M82.2373 46.2962C82.2373 46.4512 82.2631 46.6062 82.3148 46.7354C82.3665 46.8645 82.4698 46.9937 82.5732 47.0971C82.6765 47.2004 82.8057 47.2779 82.9348 47.3554C83.064 47.4071 83.219 47.4588 83.374 47.4588C83.529 47.4588 83.6841 47.4329 83.8132 47.3554C83.9424 47.3037 84.0716 47.2004 84.1749 47.0971C84.2783 46.9937 84.3558 46.8645 84.4333 46.7354C84.4849 46.6062 84.5108 46.4512 84.5108 46.2962C84.5108 46.1412 84.4849 45.9862 84.4333 45.857C84.3816 45.7278 84.2783 45.5986 84.1749 45.4953C84.0716 45.392 83.9424 45.3145 83.8132 45.2369C83.6841 45.1853 83.529 45.1336 83.374 45.1336C83.219 45.1336 83.064 45.1594 82.9348 45.2369C82.8057 45.2886 82.6765 45.3661 82.5732 45.4953C82.4698 45.5986 82.3923 45.7278 82.3148 45.857C82.2631 45.9862 82.2373 46.1412 82.2373 46.2962Z" fill="#FFB748"/>
<path d="M82.8063 45.2886C82.8063 45.2886 82.7288 45.3919 82.703 45.4436C82.6771 45.4953 82.6513 45.5728 82.6255 45.6245C82.6255 45.6761 82.5738 45.7536 82.5738 45.8311C82.5738 45.9086 82.5738 45.9603 82.5738 46.0378C82.5738 46.1928 82.5996 46.3478 82.6771 46.477C82.7288 46.6062 82.8063 46.7354 82.9355 46.8387C83.0388 46.942 83.168 47.0195 83.2972 47.0971C83.4263 47.1487 83.5813 47.1746 83.7363 47.1746C83.788 47.1746 83.8397 47.1746 83.8914 47.1746C83.943 47.1746 83.9947 47.1746 84.0464 47.1487C84.098 47.1487 84.1497 47.1229 84.2014 47.0971C84.253 47.0971 84.3047 47.0454 84.3306 47.0195C84.2789 47.0712 84.2272 47.1487 84.1497 47.1746C84.098 47.2262 84.0205 47.2779 83.943 47.3037C83.8655 47.3296 83.788 47.3554 83.7105 47.3812C83.633 47.3812 83.5555 47.4071 83.4522 47.4071C83.2972 47.4071 83.1421 47.3812 83.013 47.3037C82.8838 47.2521 82.7546 47.1487 82.6513 47.0454C82.5479 46.942 82.4704 46.8129 82.3929 46.6837C82.3413 46.5545 82.3154 46.3995 82.3154 46.2445C82.3154 46.1412 82.3154 46.0378 82.3671 45.9345C82.3929 45.8311 82.4446 45.7536 82.4704 45.6503C82.5221 45.5728 82.5738 45.4953 82.6513 45.4178C82.7288 45.3403 82.8063 45.2886 82.8838 45.2369L82.8063 45.2886Z" fill="#FFCC7B"/>
<path d="M95.3877 63.5281C95.3877 63.7347 95.4394 63.9414 95.5169 64.1223C95.5944 64.3031 95.6977 64.484 95.8527 64.6131C95.9819 64.7423 96.1627 64.8715 96.3436 64.949C96.5244 65.0265 96.7311 65.0782 96.9378 65.0782C97.1445 65.0782 97.3511 65.0265 97.532 64.949C97.7128 64.8715 97.8937 64.7681 98.0229 64.6131C98.152 64.484 98.2812 64.3031 98.3587 64.1223C98.4362 63.9414 98.4879 63.7347 98.4879 63.5281C98.4879 63.3214 98.4362 63.1147 98.3587 62.9339C98.2812 62.753 98.1779 62.5722 98.0229 62.443C97.8937 62.3138 97.7128 62.1846 97.532 62.1071C97.3511 62.0296 97.1445 61.978 96.9378 61.978C96.7311 61.978 96.5244 62.0296 96.3436 62.1071C96.1627 62.1846 96.0077 62.288 95.8527 62.443C95.7235 62.5722 95.5944 62.753 95.5169 62.9339C95.4394 63.1147 95.3877 63.3214 95.3877 63.5281Z" fill="#FFB748"/>
<path d="M96.1628 62.2105C96.1628 62.2105 96.0595 62.3396 96.0078 62.4171C95.9561 62.4947 95.9303 62.5722 95.9045 62.6497C95.8786 62.7272 95.8528 62.8305 95.827 62.908C95.827 62.9855 95.827 63.0889 95.827 63.1922C95.827 63.3989 95.8786 63.6056 95.9562 63.7864C96.0337 63.9672 96.137 64.1481 96.292 64.2773C96.4212 64.4064 96.602 64.5356 96.7829 64.6131C96.9637 64.6906 97.1704 64.7423 97.3771 64.7423C97.4546 64.7423 97.5062 64.7423 97.5837 64.7423C97.6613 64.7423 97.7129 64.7423 97.7904 64.6906C97.8679 64.6906 97.9196 64.6389 97.9713 64.6131C98.0229 64.5873 98.1004 64.5614 98.1521 64.5098C98.0746 64.5873 97.9971 64.6648 97.9196 64.7423C97.8421 64.8198 97.7388 64.8715 97.6354 64.9231C97.5321 64.9748 97.4287 65.0006 97.3254 65.0265C97.2221 65.0265 97.0929 65.0523 96.9895 65.0523C96.7829 65.0523 96.5762 65.0006 96.3953 64.9231C96.2145 64.8456 96.0595 64.7423 95.9045 64.5873C95.7753 64.4581 95.6461 64.2773 95.5686 64.0964C95.4911 63.9156 95.4395 63.7089 95.4395 63.5022C95.4395 63.373 95.4395 63.218 95.4911 63.0889C95.517 62.9597 95.5686 62.8305 95.6461 62.7272C95.7236 62.6238 95.8011 62.5205 95.8786 62.4171C95.982 62.3138 96.0853 62.2363 96.1887 62.1846L96.1628 62.2105Z" fill="#FFCC7B"/>
<path d="M99.7019 24.5948C99.7019 26.4808 99.2628 28.2117 98.4877 29.7876C97.7127 31.3636 96.6276 32.7587 95.31 33.9987L87.7404 32.3711L80.1708 30.7435L70.0176 28.5734L59.8645 26.4033L63.8948 31.0794L67.925 35.7555L70.7152 38.9849L73.5053 42.2142C59.4512 45.5986 44.7769 43.7127 33.2287 40.4833C21.6805 37.2539 13.2842 32.707 11.8116 30.821C10.3907 29.0126 9.43478 26.9458 9.07309 24.8015C8.7114 22.6572 8.89224 20.4354 9.79646 18.3428C10.7007 16.1985 12.1474 14.4417 13.8784 12.9691C15.6093 11.4965 17.6244 10.334 19.6912 9.40391C22.9464 7.95715 26.5375 6.94959 30.206 6.20038C33.8488 5.45117 37.569 4.98614 41.1084 4.59862C44.9061 4.18526 48.7297 3.97858 52.5791 3.92691C56.4026 3.87524 60.2262 3.95274 64.0498 4.13359C68.3125 4.31443 72.8078 4.59862 77.1997 5.45117C81.5658 6.27788 85.8028 7.67297 89.4455 10.0498C91.8998 11.6515 94.4833 13.7183 96.4468 16.1727C98.4102 18.627 99.7794 21.4688 99.8053 24.5948H99.7019Z" fill="#FFD378"/>
<g style="mix-blend-mode:multiply">
<path d="M76.2182 76.213V78.0215L76.244 79.8299C74.5389 80.1916 72.808 80.5016 71.0254 80.76C69.2428 81.0183 67.4085 81.2508 65.5484 81.4317C63.6883 81.6125 61.7765 81.7675 59.8647 81.845C57.9271 81.9484 55.9636 81.9742 53.9743 81.9742C46.6372 81.9742 39.636 81.3025 33.2548 80.1141C26.8994 78.9257 21.164 77.1948 16.3587 75.0505C11.5534 72.9062 7.65236 70.3743 4.96553 67.5583C2.2787 64.7423 0.780273 61.6421 0.780273 58.3611V56.0101C1.50365 57.3794 2.17536 58.3611 2.8729 59.2395C3.59628 60.1179 4.34549 60.8929 5.24971 61.8747C10.1842 67.2225 16.0487 70.5552 21.7582 72.777C27.4677 74.9988 32.9964 76.0839 37.2592 76.9364C39.8685 77.4531 42.3745 77.8148 44.7513 78.0215C47.1281 78.254 49.4016 78.3573 51.5459 78.3573C54.2327 78.3573 56.7645 78.254 59.1155 78.0731C61.4665 77.8923 63.6883 77.6598 65.7292 77.4531C67.1243 77.2981 68.4677 77.1689 69.7595 77.0139C71.0512 76.8589 72.2655 76.7297 73.4539 76.5747C73.9189 76.523 74.3839 76.4455 74.849 76.368C75.314 76.2905 75.7532 76.2389 76.1924 76.1614L76.2182 76.213Z" fill="#F9EFDE"/>
</g>
<g style="mix-blend-mode:multiply">
<path d="M107.194 55.2867V58.4128C107.194 59.4203 107.065 60.4021 106.781 61.3838C106.497 62.3655 106.109 63.3214 105.567 64.2515C105.024 65.1815 104.378 66.0857 103.603 66.99C102.828 67.8683 101.924 68.7209 100.942 69.5734L100.891 67.2483L100.839 64.9232C100.839 64.9232 101.924 64.2515 103.242 62.7272C104.585 61.2029 106.161 58.8003 107.194 55.3384V55.2867Z" fill="#F9EFDE"/>
</g>
</g>
<defs>
<clipPath id="clip0_236_172877">
<rect width="106.388" height="82" fill="white" transform="translate(0.805664)"/>
</clipPath>
</defs>
</svg>
