<svg width="93" height="92" viewBox="0 0 93 92" fill="none" xmlns="http://www.w3.org/2000/svg">
<path d="M31.0676 83.2181C32.4847 82.0742 27.965 74.1244 20.9726 65.4618C13.9801 56.7992 7.16281 50.7041 5.74566 51.848C4.32851 52.9919 8.84819 60.9417 15.8406 69.6043C22.8331 78.2669 29.6504 84.3621 31.0676 83.2181Z" fill="#9EC63D"/>
<path d="M27.1198 72.8818C28.8138 72.2097 26.8564 63.2704 22.7477 52.9153C18.6391 42.5602 13.9351 34.7107 12.2411 35.3828C10.5471 36.055 12.5045 44.9943 16.6131 55.3494C20.7218 65.7044 25.4257 73.554 27.1198 72.8818Z" fill="#B7E546"/>
<path d="M74.6475 21.7154V84.0237C74.6475 86.4561 72.6761 88.4274 70.2455 88.4274H24.7563C22.3241 88.4274 20.3525 86.4561 20.3525 84.0237C20.3525 84.0237 20.3525 21.6302 20.3543 21.5896L47.5966 16.0364L74.6455 21.5894C74.6475 21.6302 74.6475 21.6728 74.6475 21.7154Z" fill="#5EA570"/>
<path d="M74.6476 21.7154V84.0237C74.6476 86.4561 72.6763 88.4275 70.2456 88.4275H64.6924C67.1228 88.4275 69.0944 86.4561 69.0944 84.0237C69.0944 84.0237 69.0944 21.6303 69.0926 21.5897H74.6456C74.6476 21.6303 74.6476 21.6729 74.6476 21.7154Z" fill="#518F60"/>
<path d="M88.1917 62.2619V65.1813L74.7443 70.7343L61.0898 65.1813V62.2619C61.0898 58.0635 65.6749 55.6535 67.7149 54.7891C68.2962 54.5429 68.6737 53.9745 68.6737 53.3433V46.5552H80.6079V53.3433C80.6079 53.9745 80.9854 54.5429 81.5667 54.7891C83.6068 55.6535 88.1917 58.0637 88.1917 62.2619Z" fill="#91DAFA"/>
<path d="M88.1921 62.2619V65.1813H83.1941V62.2619C83.1941 58.0635 78.6092 55.6535 76.5692 54.7891C75.9879 54.5429 75.6104 53.9745 75.6104 53.3433V46.5552H80.6084V53.3433C80.6084 53.9745 80.9859 54.5429 81.5672 54.7891C83.6072 55.6535 88.1921 58.0637 88.1921 62.2619Z" fill="#75CFF9"/>
<path d="M61.0898 65.1815V89.337C61.0898 90.8078 62.2823 92 63.753 92H85.5281C86.9988 92 88.1917 90.8078 88.1917 89.337V65.1815H61.0898Z" fill="#F0E9E6"/>
<path d="M88.192 89.337V65.1815H83.194V89.337C83.194 90.8078 82.001 92 80.5303 92H85.5283C86.999 92 88.192 90.8078 88.192 89.337Z" fill="#DCD2CD"/>
<path d="M80.8693 39.7437H68.4125C66.2699 39.7437 64.5332 41.4805 64.5332 43.6229V44.565C64.5332 46.7076 66.2701 48.4443 68.4125 48.4443H80.8693C83.0117 48.4443 84.7486 46.7074 84.7486 44.565V43.6229C84.7488 41.4805 83.0119 39.7437 80.8693 39.7437Z" fill="#F0E9E6"/>
<path d="M80.8691 39.7437H75.8711C78.0137 39.7437 79.7504 41.4805 79.7504 43.6229V44.565C79.7504 46.7076 78.0135 48.4443 75.8711 48.4443H80.8691C83.0117 48.4443 84.7484 46.7074 84.7484 44.565V43.6229C84.7486 41.4805 83.0117 39.7437 80.8691 39.7437Z" fill="#DCD2CD"/>
<path d="M31.3058 10.1308L22.3644 17.4633C21.1673 18.4449 20.4434 19.8824 20.3604 21.4193H74.6396C74.5566 19.8824 73.8327 18.4451 72.6356 17.4633L63.6941 10.1308L47.5965 6.4285L31.3058 10.1308Z" fill="#F0E9E6"/>
<path d="M69.0871 21.4191H74.6403C74.5573 19.8822 73.8333 18.4449 72.6363 17.4631L63.6948 10.1308H58.1416L67.083 17.4633C68.2801 18.4449 69.0041 19.8824 69.0871 21.4191Z" fill="#DCD2CD"/>
<path d="M31.3066 1.56005V10.1308H63.695V1.56005C63.695 0.698445 62.9965 0 62.1349 0H32.8669C32.0053 0 31.3066 0.698445 31.3066 1.56005Z" fill="#5EA570"/>
<path d="M62.1343 0H56.5811C57.4427 0 58.1411 0.698445 58.1411 1.56005V10.1308H63.6943V1.56005C63.6943 0.698445 62.9959 0 62.1343 0Z" fill="#518F60"/>
<path d="M37.7759 88.0584C46.7646 82.8687 50.4011 72.3391 45.2115 63.3505L42.6585 58.9285L10.1074 77.7219L12.6604 82.1438C17.8502 91.1325 28.7872 93.2479 37.7759 88.0584Z" fill="#B57F5F"/>
<path d="M45.2116 63.3505L45.0989 63.1552C47.3504 71.2957 43.163 79.9831 34.9272 84.738C28.5411 88.425 21.3243 88.8212 15.6426 86.0069C21.384 91.6286 30.2605 92.3975 37.7759 88.0586C46.7646 82.8687 50.4013 72.3392 45.2116 63.3505Z" fill="#9F6E50"/>
<path d="M31.6935 77.5226C40.682 72.3329 45.5906 64.0073 42.6572 58.9268C39.7239 53.8462 30.0594 53.9346 21.0709 59.1243C12.0825 64.3139 7.17384 72.6395 10.1072 77.7201C13.0405 82.8006 22.7051 82.7122 31.6935 77.5226Z" fill="#F0E9E6"/>
<path d="M28.4821 71.9608C32.0362 69.9088 33.9771 66.6168 32.8172 64.6079C31.6574 62.5991 27.836 62.6341 24.2819 64.6861C20.7278 66.7381 18.7869 70.0301 19.9468 72.0389C21.1066 74.0478 24.928 74.0128 28.4821 71.9608Z" fill="#DCD2CD"/>
</svg>
