<svg width="133" height="92" viewBox="0 0 133 92" fill="none" xmlns="http://www.w3.org/2000/svg">
<g clip-path="url(#clip0_256_178290)">
<path d="M23.9453 72.9008C24.0028 72.9196 24.7636 74.8727 24.8608 75.0393C25.8379 76.7132 27.2444 78.2293 28.5661 79.6299C34.5731 85.9935 42.2728 89.3521 50.8459 90.7462C54.5576 91.3498 58.3154 91.6414 62.0698 91.8184C69.7259 92.179 76.1688 92.1855 83.5436 90.095C90.243 88.1965 96.676 85.6007 102.24 81.3181C103.828 80.0961 105.298 78.7387 106.586 77.2017C107.372 76.2633 108.92 72.7852 109.93 72.383C109.915 72.3889 70.3632 88.1479 23.9453 72.9013V72.9008Z" fill="#9B672A"/>
<path d="M30.2021 81.3638C30.2021 81.3638 62.5289 94.7297 91.4088 84.894C91.4088 84.894 62.8597 92.8154 30.2021 81.3638Z" fill="#7C4721"/>
<path d="M46.0537 88.3046C46.0537 88.3046 58.5969 93.8107 85.2921 89.2757C85.2921 89.2757 57.3635 92.3179 46.0537 88.3046Z" fill="#7C4721"/>
<path d="M41.1348 86.3704C41.1348 86.3704 61.6216 93.5598 87.9409 87.643C87.9409 87.643 52.819 91.265 41.1348 86.3704Z" fill="#7C4721"/>
<path d="M0.311043 28.5645C0.379484 28.5907 0.353695 31.7083 0.36659 31.8789C0.591257 34.8571 1.14375 37.8125 1.90802 40.697C4.50781 50.5079 9.38056 60.1622 16.4727 67.4785C19.1176 70.2072 22.079 72.6027 25.2099 74.7517C37.7174 83.3356 53.2457 85.803 68.1328 85.8973C82.5125 85.9885 97.955 83.6144 109.19 73.8813C112.656 70.8788 115.911 67.2137 118.615 63.5139C121.771 59.1961 124.63 54.3461 126.743 49.4248C128.564 45.1819 130.168 40.6791 131.031 36.1332C131.21 35.1884 131.505 29.6283 132.503 29.3595C132.502 29.3595 54.9548 49.7645 0.310547 28.5649L0.311043 28.5645Z" fill="#D68A38"/>
<path d="M66.9648 50.4696C103.684 49.7133 133.243 39.0394 132.987 26.6288C132.732 14.2182 102.758 4.77052 66.0391 5.52685C29.3202 6.28318 -0.239059 16.9571 0.0165719 29.3677C0.272203 41.7783 30.246 51.2259 66.9648 50.4696Z" fill="#AF732E"/>
<path d="M6.81453 21.8135C2.51411 24.9951 -0.552373 29.8778 3.68853 34.0463C5.96496 36.284 9.07707 37.5735 11.8931 38.9775C24.7968 45.412 39.5435 47.9236 53.8409 48.5385C58.0759 48.7206 62.3182 48.7349 66.5557 48.6442C82.6697 48.299 99.8129 46.2026 115.013 40.6142C119.028 39.1382 122.892 37.2124 126.398 34.7465C129.264 32.73 132.418 29.7191 130.857 25.9334C129.493 22.6239 125.792 20.7071 122.666 19.4186C119.412 18.0775 115.408 17.6312 112.977 14.8389C109.954 11.3668 107.348 8.32756 103.107 6.22174C100.819 5.08601 98.2134 5.07212 95.7361 4.50624C93.5772 4.01326 91.8965 3.05904 89.9275 2.17476C88.154 1.37825 86.4053 1.58953 84.5082 1.82908C81.3817 2.22385 78.2642 2.93704 75.099 2.93009C73.5536 2.92662 71.9973 2.76147 70.5228 2.28139C69.0697 1.80825 67.8576 0.489999 66.4416 0.120017C64.2673 -0.448346 61.9984 1.12978 60.1678 2.01903C58.1076 3.01986 55.8079 3.90415 53.5552 4.34604C50.3395 4.9769 47.9698 3.78165 45.1151 2.51597C40.6465 0.535131 34.2086 1.46405 29.499 6.98154C27.2865 9.5729 24.2121 9.74599 21.1903 10.7324C19.2312 11.3722 17.5187 12.6523 16.3061 14.3147C15.2105 15.816 14.7617 17.5781 13.1355 18.6345C11.1526 19.9225 8.75272 20.3807 6.81602 21.8135H6.81453Z" fill="#EBECED"/>
<path d="M30.249 11.2086C30.249 11.2086 58.4887 35.434 110.877 16.615C110.877 16.615 60.035 33.0782 30.249 11.2086Z" fill="white"/>
<path d="M33.1211 19.1215C33.1211 19.1215 66.2117 46.6321 115.774 22.193C115.774 22.193 71.5947 44.7991 33.1211 19.1215Z" fill="white"/>
<path d="M20.1904 18.4763C20.1904 18.4763 44.0587 47.08 95.0051 35.6899C95.0051 35.6899 52.0267 47.206 20.1904 18.4763Z" fill="white"/>
<path d="M13.8184 26.3724C13.8184 26.3724 55.4026 63.7862 121.747 33.5657C121.747 33.5657 63.0165 61.8728 13.8184 26.3724Z" fill="white"/>
<path d="M35.5078 11.101C35.5078 11.101 88.9801 6.24111 106.886 16.3645C106.886 16.3645 94.2933 8.77841 35.5078 11.101Z" fill="white"/>
<path d="M20.3528 26.2395C19.9228 25.9761 62.928 63.5694 130.856 25.934C130.856 25.934 69.4399 56.3231 20.3528 26.2395Z" fill="#CCCCCC"/>
<path d="M22.6602 10.303C22.6602 10.303 34.7074 51.615 109.056 29.8406C109.056 29.8406 44.687 46.2577 22.6602 10.303Z" fill="#CCCCCC"/>
<path d="M42.1084 21.9668C42.1084 21.9668 82.6874 40.1991 115.034 16.5302C115.034 16.5302 82.5257 33.5736 42.1084 21.9668Z" fill="#CCCCCC"/>
<path d="M34.6885 10.056C34.6885 10.056 93.5354 -3.00449 108.758 15.3374C108.758 15.3374 93.2537 4.76314 34.6885 10.056Z" fill="#CCCCCC"/>
<path d="M35.5342 12.3755C35.5342 12.3755 85.5462 9.84664 105.139 16.733C105.139 16.733 84.7933 12.0026 35.5342 12.3755Z" fill="#CCCCCC"/>
<path d="M48.1094 81.2879C48.1094 81.2879 108.12 96.0272 125.916 42.4091C125.916 42.4091 98.9367 87.3926 48.1094 81.2879Z" fill="#B76B34"/>
<path d="M4.59668 43.1451C4.59668 43.1451 29.5829 103.06 94.2652 69.5259C94.2652 69.5259 36.8937 94.1411 4.59668 43.1451Z" fill="#B76B34"/>
<path d="M34.0898 66.2808C34.0898 66.2808 90.648 88.4351 120.727 45.8014C120.727 45.8014 93.9882 81.9173 34.0898 66.2808Z" fill="#B76B34"/>
<g clip-path="url(#clip1_256_178290)">
<mask id="mask0_256_178290" style="mask-type:luminance" maskUnits="userSpaceOnUse" x="70" y="47" width="41" height="48">
<path d="M97.891 47.9819L70.2598 89.6637L81.0558 95L94.2842 93.9961L104.541 87.1092L108.71 81.489L110.952 73.2901L109.938 63.0208L103.518 53.2742L97.891 47.9819Z" fill="white"/>
</mask>
<g mask="url(#mask0_256_178290)">
<path d="M105.782 83.7861C112.889 73.1985 109.457 58.4449 98.1164 50.833C86.776 43.2212 71.8218 45.6336 64.7152 56.2213C57.6087 66.809 61.0409 81.5626 72.3813 89.1744C83.7216 96.7862 98.6759 94.3738 105.782 83.7861Z" fill="#B17C46"/>
<path d="M74.9199 85.1355C78.1943 88.1089 82.5238 88.6584 86.7553 89.0688C87.018 89.0944 87.0436 88.684 86.7809 88.6599C82.6743 88.2623 78.4158 87.7596 75.2308 84.8685C75.0377 84.6925 74.7253 84.9594 74.9199 85.1355Z" fill="#895E3E"/>
<path d="M69.7959 64.2122C72.0977 66.0383 74.3114 67.961 76.4428 69.983C76.633 70.1633 76.9454 69.8978 76.7537 69.7161C74.5954 67.6685 72.3547 65.7217 70.0245 63.8729C69.8172 63.7082 69.59 64.0504 69.7959 64.2137V64.2122Z" fill="#895E3E"/>
<path d="M74.6573 55.1826C77.3978 55.61 79.975 56.4734 82.4202 57.7826C82.6503 57.9061 82.8817 57.5667 82.6488 57.4418C80.144 56.0999 77.4901 55.211 74.6842 54.7737C74.423 54.7325 74.3988 55.1428 74.6587 55.1826H74.6573Z" fill="#895E3E"/>
<path d="M93.5143 63.0436C97.2233 65.5697 100.271 68.8157 102.551 72.6809C102.685 72.9067 103.055 72.7292 102.92 72.502C100.604 68.5758 97.5101 65.2672 93.743 62.7014C93.5243 62.5523 93.2957 62.893 93.5143 63.0421V63.0436Z" fill="#895E3E"/>
<path d="M92.2229 84.9636C95.2361 86.2899 98.4978 86.5128 101.663 85.6097C101.916 85.5373 101.839 85.134 101.583 85.2065C98.4822 86.0911 95.3029 85.8724 92.3522 84.5732C92.1108 84.4667 91.9815 84.8571 92.2215 84.9622L92.2229 84.9636Z" fill="#895E3E"/>
<path d="M84.5493 62.8448C87.3268 64.9832 90.5487 66.5438 92.8292 69.273C92.9996 69.476 93.3091 69.2077 93.1401 69.0046C90.8355 66.2456 87.5866 64.6652 84.7779 62.504C84.5692 62.3421 84.3406 62.6843 84.5493 62.8448Z" fill="#895E3E"/>
<path d="M80.0993 48.7516C83.1125 48.7559 86.1015 48.8169 88.9358 49.9614C89.18 50.0594 89.3107 49.6703 89.065 49.5723C86.2052 48.4179 83.1693 48.3469 80.1249 48.3427C79.8622 48.3427 79.8352 48.7516 80.0993 48.7516Z" fill="#895E3E"/>
<path d="M93.7167 54.1546C95.05 54.8049 96.4018 55.5021 97.6258 56.347C98.9095 57.2331 99.6266 58.3918 100.676 59.4951C100.858 59.6868 101.169 59.4198 100.987 59.2281C99.9091 58.0936 99.1764 56.8965 97.8545 56.0062C96.585 55.1514 95.219 54.4357 93.8459 53.7641C93.6102 53.649 93.4809 54.0381 93.7167 54.1531V54.1546Z" fill="#895E3E"/>
<path d="M104.936 66.6461C105.744 68.0107 106.587 69.4122 106.976 70.9656C107.324 72.3529 107.063 73.7899 107.435 75.1673C107.503 75.4215 107.907 75.3434 107.838 75.0892C107.429 73.5713 107.726 71.9937 107.262 70.4672C106.827 69.0401 106.062 67.7423 105.307 66.4672C105.172 66.2414 104.802 66.4189 104.937 66.6461H104.936Z" fill="#895E3E"/>
<path d="M80.8387 75.0011C83.2214 76.8002 85.678 78.5227 88.7635 78.5894C89.0262 78.5951 89.0546 78.1861 88.7891 78.1804C85.7731 78.1165 83.3833 76.4112 81.0659 74.6618C80.8557 74.5027 80.6271 74.8435 80.8373 75.0025L80.8387 75.0011Z" fill="#895E3E"/>
<path d="M81.6566 66.1292C83.5196 67.3802 85.3811 68.6297 87.2441 69.8807C87.4628 70.0284 87.6929 69.6876 87.4728 69.5399C85.6098 68.2904 83.7482 67.0394 81.8852 65.7898C81.6665 65.6421 81.4365 65.9829 81.6566 66.1306V66.1292Z" fill="#895E3E"/>
<path d="M97.3797 76.725C99.5735 78.0356 101.652 79.4968 103.628 81.117C103.831 81.2845 104.059 80.9423 103.856 80.7762C101.88 79.156 99.8007 77.6948 97.6083 76.3842C97.3825 76.2493 97.1525 76.5887 97.3797 76.725Z" fill="#895E3E"/>
<path d="M71.1158 75.9426C73.0527 78.4247 75.3629 80.4624 78.068 82.074C78.2938 82.2089 78.5238 81.8682 78.2966 81.7333C75.6256 80.1415 73.3409 78.1265 71.4268 75.6742C71.2635 75.4655 70.9539 75.7353 71.1158 75.9426Z" fill="#895E3E"/>
<path d="M86.8122 93.0689C88.8101 93.1711 90.8691 93.2251 92.681 92.2496C92.9138 92.1246 92.7349 91.7554 92.502 91.8804C90.7512 92.8232 88.7675 92.7579 86.8378 92.6599C86.5751 92.6472 86.5481 93.0561 86.8122 93.0703V93.0689Z" fill="#895E3E"/>
</g>
<path d="M96.8813 50.0054C102.233 53.5979 100.81 65.094 93.7034 75.6813C86.5964 86.2686 76.4962 91.9385 71.1429 88.346C65.791 84.7535 67.2138 73.2574 74.3208 62.6701C81.4292 52.0842 91.5294 46.4128 96.8813 50.0054Z" fill="#895E3E"/>
<path d="M96.3333 50.8233C101.458 54.2624 100.095 65.2672 93.2918 75.4044C86.4873 85.5401 76.8187 90.9687 71.694 87.5295C66.5708 84.0903 67.9325 73.0841 74.7356 62.9484C81.5401 52.8126 91.2087 47.3841 96.3333 50.8233Z" fill="#F9FFFF"/>
<path d="M79.6729 83.3704C79.7495 83.3193 79.8305 83.2739 79.9142 83.2469C80.2636 83.1347 80.5902 82.9615 80.9494 82.8067C81.2888 82.6604 81.6409 82.544 81.986 82.3608C82.314 82.1876 82.828 82.3154 83.1603 82.1095C83.477 81.9135 83.6218 81.4364 83.9399 81.2135C84.2452 80.9991 84.6811 80.9465 84.9864 80.7066C85.2803 80.4765 85.4621 80.096 85.7546 79.8432C86.0372 79.599 86.2388 79.2625 86.5199 78.9969C86.7926 78.7399 87.2555 78.6689 87.5253 78.3934C87.7866 78.1251 88.0819 77.8723 88.3389 77.5869C88.5903 77.3072 88.9453 77.1013 89.1923 76.8059C89.4337 76.5162 89.1938 75.8361 89.4295 75.5322C89.6609 75.234 90.077 75.0792 90.3013 74.7682C90.5214 74.463 90.8707 74.2414 91.0852 73.9234C91.2982 73.6053 91.274 73.1395 91.4742 72.8186C91.6773 72.4935 92.0323 72.2663 92.2197 71.9397C92.4114 71.6074 92.6102 71.2808 92.7849 70.9485C92.9638 70.6092 93.0348 70.2201 93.1981 69.8807C93.3656 69.5342 93.3656 69.1224 93.5147 68.7788C93.6681 68.4252 93.7746 68.0702 93.9109 67.7209C94.0501 67.3617 94.3227 67.0663 94.4434 66.7113C94.5669 66.345 94.628 65.9744 94.7302 65.6151C94.8367 65.2431 95.0114 64.9037 95.0937 64.5402C95.1803 64.1625 95.6702 63.8657 95.7313 63.4994C95.7966 63.1145 95.382 62.6715 95.4189 62.3023C95.4572 61.9133 95.8165 61.554 95.8236 61.1848C95.8307 60.7929 95.7739 60.3996 95.7469 60.0332C95.7384 59.9267 95.6915 59.8273 95.6276 59.7322C91.9797 61.1763 87.8803 64.6921 84.6044 69.5712C81.364 74.3976 79.6672 79.4641 79.6757 83.369L79.6729 83.3704Z" fill="#DFE3E2"/>
<path d="M92.3918 54.5805C92.0439 54.4584 91.5838 54.6998 91.2018 54.6572C90.8412 54.6174 90.4876 54.7182 90.0999 54.7466C89.7393 54.7736 89.3644 54.6927 88.9838 54.7765C88.6303 54.8531 88.1588 54.6188 87.7911 54.7438C87.4474 54.8617 87.3069 55.5347 86.9533 55.6923C86.621 55.8414 86.1354 55.6909 85.796 55.8755C85.4737 56.0502 85.2223 56.364 84.8972 56.5685C84.5862 56.7644 84.119 56.7502 83.8081 56.9732C83.5084 57.1876 83.4701 57.7598 83.1705 57.997C82.8822 58.227 82.5528 58.4045 82.266 58.6558C81.9876 58.8986 81.6781 59.1074 81.4026 59.3701C81.1342 59.6257 80.7281 59.7492 80.4626 60.0218C80.2042 60.2888 80.2425 60.8312 79.9883 61.1138C79.7398 61.3893 79.3934 61.5753 79.1505 61.8678C78.912 62.1532 78.371 62.2015 78.1381 62.5011C77.9095 62.795 78.1296 63.4269 77.9081 63.7336C77.6894 64.0361 77.2606 64.1866 77.0504 64.5018C76.8403 64.8157 76.6429 65.1337 76.4469 65.4504C76.2467 65.7713 75.8392 65.9687 75.6532 66.291C75.4643 66.619 75.3351 66.9854 75.1619 67.3134C74.9844 67.6485 75.0894 68.1228 74.9276 68.4565C74.7614 68.7987 74.1878 68.9492 74.0387 69.2886C73.8867 69.6365 74.0884 70.1306 73.9535 70.4757C73.8143 70.8306 73.4778 71.1075 73.3585 71.4569C73.235 71.8175 73.4323 72.2719 73.3301 72.6269C73.2236 72.9933 72.6613 73.2375 72.5775 73.5953C72.4895 73.9688 72.6357 74.3905 72.5718 74.7526C72.5051 75.1317 72.7181 75.535 72.6769 75.8985C72.6357 76.2819 72.2069 76.627 72.1955 76.9905C72.1828 77.3767 72.2296 77.7672 72.2509 78.1293C72.2736 78.5169 72.586 78.8592 72.6485 79.217C72.7152 79.6004 72.9581 79.8957 73.0702 80.2394C73.1909 80.6086 72.8672 81.1496 73.0404 81.4676C73.2236 81.8056 73.5715 82.0598 73.8157 82.3352C74.0642 82.6164 74.4036 82.8124 74.7174 83.0225C75.0199 83.2256 75.3564 83.3534 75.6986 83.4755C76.0337 83.5948 76.3887 83.5891 76.7579 83.6345C77.1072 83.6771 77.4622 83.9583 77.8357 83.937C78.185 83.9171 78.574 83.9086 78.9418 83.8347C79.2045 83.7822 79.4246 83.5337 79.6731 83.3676C79.6646 79.4626 81.3629 74.3948 84.6018 69.5697C87.8777 64.6907 91.9771 61.1748 95.625 59.7307C95.466 59.4908 95.2005 59.2721 95.1536 59.025C95.0826 58.6558 95.3354 58.2355 95.2218 57.9047C95.0997 57.5511 94.9449 57.2188 94.7731 56.9121C94.5913 56.5883 94.3513 56.3157 94.1128 56.0502C93.87 55.7804 93.5263 55.6568 93.2239 55.4538C92.9101 55.2436 92.7468 54.7026 92.3918 54.5791V54.5805Z" fill="#E9F2EE"/>
<path d="M96.9136 87.964C85.453 80.5362 81.7838 65.8381 88.7189 55.1386C95.6555 44.4377 110.569 41.7852 122.03 49.213C133.491 56.6409 137.16 71.3376 130.225 82.0385C123.29 92.7394 108.376 95.3919 96.9136 87.964Z" fill="#B17C46"/>
<path d="M126.006 85.5799C125.664 85.3584 125.806 84.5305 126.324 83.7325C126.842 82.9331 127.538 82.4659 127.882 82.6874C128.224 82.9089 128.082 83.7368 127.564 84.5348C127.045 85.3328 126.348 85.8014 126.006 85.5799Z" fill="#895E3E"/>
<path d="M129.369 80.3928C129.027 80.1712 129.189 79.3122 129.731 78.4758C130.273 77.6394 130.99 77.141 131.333 77.3625C131.675 77.5841 131.513 78.4431 130.971 79.2795C130.428 80.1159 129.711 80.6143 129.369 80.3928Z" fill="#895E3E"/>
<path d="M126.409 81.8653C126.067 81.6437 126.258 80.7392 126.838 79.8446C127.417 78.9501 128.164 78.4062 128.506 78.6277C128.848 78.8492 128.657 79.7538 128.077 80.6483C127.498 81.5415 126.751 82.0868 126.409 81.8653Z" fill="#895E3E"/>
<path d="M130.794 67.9339C130.295 64.0248 127.251 59.2153 125.368 57.8962" stroke="#895E3E" stroke-miterlimit="10" stroke-linecap="round"/>
<path d="M119.555 53.294C116.234 50.3746 111.896 49.8932 107.657 49.551C107.395 49.5297 107.375 49.94 107.639 49.9613C111.751 50.2936 116.018 50.7267 119.248 53.5666C119.444 53.7385 119.753 53.4673 119.555 53.294Z" fill="#895E3E"/>
<path d="M125.016 74.1321C122.686 72.343 120.441 70.4572 118.277 68.4693C118.084 68.2918 117.776 68.563 117.97 68.7419C120.161 70.754 122.433 72.6639 124.793 74.4758C125.002 74.6362 125.225 74.2912 125.016 74.1321Z" fill="#895E3E"/>
<path d="M120.3 83.2384C117.554 82.855 114.963 82.0342 112.498 80.7648C112.265 80.6455 112.039 80.9877 112.275 81.1098C114.801 82.4105 117.469 83.2568 120.282 83.6487C120.543 83.6857 120.562 83.2753 120.3 83.2384Z" fill="#895E3E"/>
<path d="M101.319 75.6841C97.5705 73.219 94.4708 70.0213 92.1292 66.193C91.9915 65.9687 91.6251 66.1519 91.7629 66.3776C94.1413 70.2669 97.288 73.5243 101.096 76.0277C101.316 76.1726 101.541 75.8289 101.319 75.6827V75.6841Z" fill="#895E3E"/>
<path d="M102.257 53.7456C99.2238 52.469 95.9578 52.2986 92.8069 53.2514C92.5556 53.3281 92.6394 53.7299 92.8921 53.6533C95.9791 52.7189 99.1613 52.8865 102.132 54.1375C102.375 54.2397 102.498 53.8478 102.255 53.7456H102.257Z" fill="#895E3E"/>
<path d="M110.286 75.7367C107.475 73.6437 104.229 72.1356 101.904 69.4434C101.731 69.2432 101.426 69.5158 101.598 69.716C103.946 72.4367 107.221 73.966 110.064 76.0803C110.277 76.2379 110.498 75.8929 110.286 75.7353V75.7367Z" fill="#895E3E"/>
<path d="M114.963 89.7574C111.951 89.8015 108.961 89.7901 106.108 88.691C105.861 88.5959 105.739 88.9878 105.985 89.083C108.863 90.192 111.899 90.2132 114.943 90.1678C115.206 90.1635 115.227 89.7532 114.962 89.7574H114.963Z" fill="#895E3E"/>
<path d="M101.262 84.5746C99.9185 83.9455 98.5553 83.2696 97.3171 82.4446C96.0192 81.5798 95.2837 80.4325 94.2159 79.3448C94.0313 79.1574 93.7231 79.4286 93.9092 79.6174C95.0054 80.7335 95.758 81.9192 97.0942 82.7882C98.3778 83.6218 99.7538 84.3161 101.138 84.965C101.377 85.0772 101.499 84.6853 101.262 84.5731V84.5746Z" fill="#895E3E"/>
<path d="M88.1837 72.2805C87.5575 70.8648 86.8986 69.4121 86.6899 67.8644C86.4925 66.4046 86.9227 64.9747 86.7097 63.5235C86.6714 63.2622 86.271 63.3489 86.3079 63.6087C86.5408 65.1962 86.0494 66.7511 86.3562 68.35C86.6316 69.7856 87.228 71.136 87.8173 72.4651C87.9238 72.7079 88.2902 72.5205 88.1837 72.2805Z" fill="#895E3E"/>
<path d="M113.8 63.5235C111.388 61.7627 108.905 60.0801 105.818 60.0645C105.555 60.0645 105.534 60.4734 105.799 60.4748C108.817 60.4904 111.234 62.1575 113.578 63.8686C113.791 64.0248 114.014 63.6797 113.801 63.5235H113.8Z" fill="#895E3E"/>
<path d="M113.126 72.4068C111.243 71.1871 109.361 69.9673 107.478 68.7461C107.257 68.6027 107.034 68.9464 107.256 69.0912C109.138 70.311 111.02 71.5307 112.903 72.7519C113.124 72.8953 113.349 72.5517 113.126 72.4068Z" fill="#895E3E"/>
<path d="M97.2346 62.0666C95.0208 60.7915 92.9179 59.3644 90.9171 57.7755C90.7112 57.6122 90.4883 57.9572 90.6942 58.1191C92.6963 59.7066 94.7979 61.1351 97.0116 62.4103C97.2403 62.5409 97.4646 62.1987 97.2346 62.0652V62.0666Z" fill="#895E3E"/>
<path d="M123.508 62.4245C121.532 59.9736 119.189 57.9743 116.458 56.4052C116.23 56.2746 116.005 56.6182 116.235 56.7489C118.932 58.298 121.249 60.2761 123.202 62.6957C123.368 62.9016 123.673 62.6275 123.508 62.4231V62.4245Z" fill="#895E3E"/>
<path d="M107.295 45.9727C105.296 45.9031 103.237 45.8818 101.441 46.8857C101.21 47.0149 101.395 47.3813 101.625 47.2521C103.36 46.2808 105.345 46.3149 107.275 46.3816C107.539 46.3916 107.559 45.9812 107.294 45.9712L107.295 45.9727Z" fill="#895E3E"/>
</g>
</g>
<defs>
<clipPath id="clip0_256_178290">
<rect width="132.974" height="92" fill="white" transform="translate(0.0126953)"/>
</clipPath>
<clipPath id="clip1_256_178290">
<rect width="72.7195" height="50" fill="white" transform="translate(61.0127 45)"/>
</clipPath>
</defs>
</svg>
