<svg width="48" height="92" viewBox="0 0 48 92" fill="none" xmlns="http://www.w3.org/2000/svg">
<g clip-path="url(#clip0_226_171633)">
<path d="M27.004 91.9969L1.83664 89.8475C1.33367 89.8069 0.946289 89.3852 0.946289 88.8791L0.958785 14.1988L27.0164 15.8389L27.004 91.9969Z" fill="#F1F2F2"/>
<path d="M20.334 37.5541C20.334 37.5541 22.2428 39.3942 23.4861 39.3942C24.7295 39.3942 25.4355 38.6694 25.4355 37.5541C25.4355 36.4389 24.7295 35.7141 23.4861 35.7141C22.2428 35.7141 20.334 37.5541 20.334 37.5541ZM24.5796 38.4133C23.8392 39.516 22.5864 38.6226 22.5864 38.6226C23.861 38.7788 24.1922 37.8478 24.1922 37.8478L24.5796 38.4101V38.4133Z" fill="#00AEEF"/>
<path d="M46.4827 89.2321L27.0137 91.9969V15.8389L47.2294 12.9586V88.373C47.2294 88.8073 46.9107 89.1728 46.4796 89.2353L46.4827 89.2321Z" fill="#E6E7E8"/>
<path d="M27.0135 15.8389L0.958984 14.1988L10.1749 5.79822L35.9233 7.10407L27.0135 15.8389Z" fill="#F1F2F2"/>
<path d="M47.2325 12.9586L35.9234 7.1041L27.0137 15.8389L47.2325 12.9586Z" fill="#97999C"/>
<path d="M35.9234 7.10408L10.1562 5.80448L11.5808 0.412379C11.6464 0.159332 11.8807 -0.00936667 12.14 5.46774e-06L35.058 0.86849C35.3454 0.877862 35.5766 1.10592 35.5922 1.39333L35.9234 7.10408Z" fill="#00AEEF"/>
<path d="M1.79291 89.8444L27.0133 91.9969L27.004 75.8799L0.946289 73.6869V88.9228C0.946289 89.4039 1.3118 89.8069 1.79291 89.8475V89.8444Z" fill="#00AEEF"/>
<path d="M0.946289 31.7872L27.0133 33.3992V15.8389L0.958785 14.1988L0.946289 31.7872Z" fill="#00AEEF"/>
<path d="M27.0133 92L46.4323 89.2415C46.8885 89.1759 47.229 88.7854 47.229 88.323V73.0527L27.0039 75.8831L27.0133 92Z" fill="#0098D1"/>
<path d="M27.0137 33.3992V15.8389L47.2325 12.9586V30.5501L27.0137 33.3992Z" fill="#0098D1"/>
<path d="M29.3376 4.59236C29.3376 4.59236 29.3157 4.59236 29.3064 4.59236L16.7102 4.11438C16.2635 4.09876 15.9136 3.72075 15.9292 3.27401C15.9448 2.82728 16.326 2.48051 16.7696 2.493L29.3657 2.97098C29.8125 2.9866 30.1624 3.36461 30.1467 3.81135C30.1311 4.24872 29.7719 4.59236 29.3376 4.59236Z" fill="#F1F2F2"/>
<path d="M27.0137 15.8389L47.2325 12.9585L31.4686 11.4715L27.0137 15.8389Z" fill="#CCCECF"/>
<path d="M9.17773 70.4816V67.6543L12.9141 65.2644L9.17773 62.8745V59.9817H18.7842V63.0932H13.567L17.3627 65.3363V65.9954L13.567 68.3104H18.7842V70.4847H9.17773V70.4816Z" fill="#00AEEF"/>
<path d="M9.17773 57.6574V54.6146H18.7842V57.6574H9.17773Z" fill="#00AEEF"/>
<path d="M9.17793 52.2965V49.2537H16.8256V45.9922H18.7812V52.2965H9.1748H9.17793Z" fill="#00AEEF"/>
<path d="M14.72 41.4405H18.7812V44.4833H9.1748V41.4405H13.4079L9.1748 39.2661V35.7141L13.7796 38.4664L18.7781 35.7141V39.2661L14.2545 41.2218L14.7169 41.4405H14.72Z" fill="#00AEEF"/>
</g>
<defs>
<clipPath id="clip0_226_171633">
<rect width="46.2859" height="92" fill="white" transform="translate(0.946289)"/>
</clipPath>
</defs>
</svg>
