<svg width="103" height="92" viewBox="0 0 103 92" fill="none" xmlns="http://www.w3.org/2000/svg">
<g clip-path="url(#clip0_232_171716)">
<path d="M5.24316 21.738L16.2375 77.3335C16.2375 77.3335 17.5619 90.0019 25.0561 90.1869L61.299 91.4809C61.299 91.4809 70.8035 93.0472 77.6809 86.2598L86.2171 77.9255C86.2171 77.9255 88.9801 75.0765 89.944 68.4415C90.9079 61.8074 99.6075 6.71274 99.6075 6.71274L5.24316 21.738Z" fill="white"/>
<path d="M63.7602 92C62.2351 92 61.2804 91.8449 61.2404 91.8388L25.0435 90.5488C17.3234 90.3581 15.9321 77.9016 15.8774 77.3708L4.88655 21.8088C4.86788 21.712 4.88873 21.6116 4.94519 21.5313C5.00166 21.4505 5.0881 21.3949 5.18627 21.3801L99.5501 6.35439C99.6652 6.33615 99.7816 6.37394 99.8633 6.45603C99.9454 6.53856 99.9827 6.65454 99.9649 6.76965C99.8776 7.32 91.2545 61.9368 90.3024 68.4936C89.332 75.1673 86.5933 78.058 86.4769 78.1779L77.9337 86.5191C73.1026 91.2885 66.9797 92 63.7602 92ZM5.67146 22.0378L16.5928 77.2636C16.6106 77.4199 17.9763 89.6487 25.0648 89.8238L61.3121 91.1187C61.3664 91.1247 62.299 91.2746 63.7598 91.2746C66.8686 91.2746 72.7773 90.59 77.4263 86.0018L85.9639 77.6671C85.983 77.6458 88.6522 74.8094 89.5852 68.3889C90.4896 62.1635 98.3026 12.6558 99.1718 7.14929L5.67146 22.0378Z" fill="#C2CED1"/>
<path d="M75.3774 37.9566C69.7002 40.7157 64.6142 40.4915 64.6142 40.4915L8.37109 37.5548L16.1055 76.6667L64.6142 77.2566C64.6142 77.2566 69.7002 77.4812 75.3774 74.7229C78.5444 73.1835 85.7185 65.3249 91.4435 58.6751C92.9729 48.8454 95.3107 33.9738 97.0942 22.6524C90.3506 27.788 79.232 36.084 75.3774 37.957V37.9566Z" fill="#B4DEEC"/>
<path d="M64.9009 77.6241C64.7032 77.6241 64.5981 77.6202 64.5981 77.6202L16.1011 77.0299C15.93 77.0277 15.7832 76.9061 15.7497 76.7371L8.01446 37.6247C7.99318 37.5152 8.02359 37.4014 8.09699 37.3172C8.16997 37.2325 8.2803 37.1777 8.38976 37.1925L64.6329 40.1293C64.6329 40.1293 64.7289 40.1327 64.9009 40.1327C66.1141 40.1327 70.4421 39.952 75.2193 37.6303C79.0826 35.753 90.4457 27.2598 96.8753 22.364C96.9921 22.2745 97.1541 22.2654 97.2805 22.341C97.4082 22.4178 97.4764 22.5625 97.453 22.7089C95.6699 34.0303 93.3312 48.9014 91.8023 58.7312C91.7918 58.7976 91.7627 58.8606 91.7184 58.9119C86.1324 65.4005 78.7903 73.468 75.5368 75.0487C70.6198 77.4386 66.1531 77.6245 64.9017 77.6245L64.9009 77.6241ZM16.4043 76.3084L64.6181 76.8943C64.6346 76.8943 64.7284 76.8987 64.9009 76.8987C66.1132 76.8987 70.4413 76.7176 75.2189 74.3959C77.6987 73.1909 83.1904 67.7009 91.1008 58.5166C92.5902 48.9426 94.8376 34.6484 96.5955 23.4873C90.0483 28.4599 79.3137 36.4471 75.536 38.2823C70.6189 40.6727 66.1523 40.8577 64.9 40.8577C64.7028 40.8577 64.5977 40.8538 64.5977 40.8538L8.81674 37.9405L16.4039 76.3079L16.4043 76.3084Z" fill="#75B3BB"/>
<g style="mix-blend-mode:screen">
<path d="M11.5646 37.7215L8.37109 37.5547L16.1055 76.6667L19.4345 76.7484C16.7379 63.7633 14.1526 50.7309 11.5641 37.7215H11.5646Z" fill="#B4DEEC"/>
</g>
<g style="mix-blend-mode:multiply">
<path d="M5.24316 21.7381L5.94554 25.2882C10.9538 26.8202 16.191 27.3953 21.3952 28.023C29.6617 29.0237 60.525 32.5322 63.4157 38.9899C66.7048 46.3369 67.9058 82.9034 68.7298 91.0787C71.5971 90.4206 74.8601 89.0446 77.6813 86.2598L86.2176 77.9256C86.2176 77.9256 88.9806 75.0765 89.9445 68.4415C90.9083 61.8074 99.6079 6.71277 99.6079 6.71277L5.24316 21.7381Z" fill="#E0E0E0"/>
</g>
<g style="mix-blend-mode:multiply">
<path d="M28.1688 27.2728C38.0811 28.6141 48.0599 29.8429 58.0591 30.2612C68.2155 30.6856 76.9042 25.7959 85.6281 21.2177C89.7021 19.0797 94.1635 17.3483 98.2818 15.1195C99.0849 10.0266 99.6075 6.71231 99.6075 6.71231L5.24316 21.738L5.71532 24.1249C12.922 26.4114 20.7176 26.2642 28.1688 27.2728Z" fill="#E0E0E0"/>
</g>
<path d="M62.3873 1.86344L48.2833 1.35957C48.2833 1.35957 37.6551 0.876551 30.0936 3.52534C22.5316 6.17326 3.23389 17.8522 3.23389 17.8522C3.23389 17.8522 -4.32502 23.1033 6.5642 24.2096L53.2603 25.8772C53.2603 25.8772 66.7792 26.9205 73.8881 22.9921L97.9795 10.315C97.9795 10.315 108.914 5.19115 96.633 3.08489L62.3877 1.86257L62.3873 1.86344Z" fill="white"/>
<path d="M57.3125 26.3654H57.3116C54.9026 26.3654 53.2489 26.2399 53.2324 26.2381L6.5507 24.5727C2.76908 24.1883 0.757508 23.2896 0.378303 21.821C-0.147285 19.7873 2.89721 17.6441 3.02666 17.5546C3.2395 17.4252 22.4625 5.81274 29.9737 3.18306C35.4902 1.25098 42.5522 0.962128 46.2708 0.962128C47.5357 0.962128 48.2993 0.997746 48.2993 0.997746L96.6451 2.72263C100.61 3.39981 102.611 4.44273 102.81 5.91568C103.123 8.23435 98.645 10.404 98.1333 10.6438L74.057 23.3135C69.4939 25.8355 62.4315 26.3658 57.312 26.3658L57.3125 26.3654ZM46.2712 1.68709C42.5986 1.68709 35.6296 1.97073 30.2139 3.86719C22.7736 6.47255 3.61479 18.0455 3.4215 18.1623C2.67178 18.6853 0.748386 20.3563 1.08111 21.6399C1.28092 22.4122 2.40116 23.4217 6.60065 23.8491L53.2733 25.514C53.3037 25.5166 54.933 25.6391 57.3116 25.6404C61.4325 25.6404 69.0444 25.2551 73.7126 22.675L97.8105 9.99398C99.0811 9.39716 102.297 7.53371 102.091 6.01211C101.988 5.25327 100.948 4.19341 96.5708 3.44325L48.2702 1.72184C48.2624 1.72054 47.5114 1.68666 46.2708 1.68666L46.2712 1.68709Z" fill="#C2CED1"/>
<path d="M62.4218 0.901328L48.3174 0.397459C48.3174 0.397459 37.6897 -0.0855604 30.1277 2.56236C22.5658 5.21115 3.26844 16.8901 3.26844 16.8901C3.26844 16.8901 -4.29134 22.1416 6.59875 23.2479L53.2953 24.9155C53.2953 24.9155 66.8137 25.9593 73.9222 22.0291L98.0136 9.3533C98.0136 9.3533 108.947 4.22991 96.6662 2.12278L62.4214 0.901328H62.4218Z" fill="white"/>
<path d="M57.3446 25.4033C54.9369 25.4033 53.2832 25.2782 53.2667 25.2769L6.58497 23.6106C2.80335 23.2262 0.792217 22.3275 0.412578 20.8589C-0.113444 18.8252 2.93105 16.682 3.06093 16.5925C3.27334 16.4631 22.4968 4.85061 30.0075 2.22007C35.5249 0.28929 42.586 0 46.3042 0C47.5691 0 48.3336 0.0356183 48.3336 0.0356183L96.6794 1.76007C100.644 2.43725 102.645 3.48017 102.844 4.95356C103.157 7.27266 98.6788 9.4419 98.1671 9.68167L74.0909 22.3509C69.5269 24.8733 62.4654 25.4033 57.3446 25.4033ZM46.3042 0.725398C42.632 0.725398 35.663 1.00861 30.2473 2.90507C22.807 5.51085 3.6482 17.0838 3.45534 17.2002C2.70562 17.7232 0.782227 19.3938 1.11495 20.6777C1.3152 21.4501 2.43457 22.4604 6.63536 22.8874L53.3076 24.5523C53.3384 24.5554 54.9664 24.6774 57.3446 24.6774C61.4668 24.6774 69.0778 24.2921 73.7468 21.712L97.8444 9.03272C99.1158 8.4359 102.331 6.57245 102.125 5.05042C102.022 4.29201 100.981 3.23128 96.6047 2.48025L48.304 0.760148C48.2967 0.759279 47.5452 0.725832 46.3042 0.725832V0.725398Z" fill="#C2CED1"/>
<path d="M57.321 3.47062L46.1772 3.07274C46.1772 3.07274 37.7796 2.69223 31.8048 4.78372C25.8305 6.87652 10.5828 16.1043 10.5828 16.1043C10.5828 16.1043 4.61021 20.2534 13.2133 21.1265L55.908 22.6507C55.908 22.6507 67.0913 22.7449 72.709 19.6396L94.7133 8.08624C94.7133 8.08624 99.9297 4.28159 92.1236 4.36586L57.321 3.47019V3.47062Z" fill="white"/>
<path d="M56.0133 23.0147H55.9047L13.2005 21.49C10.1725 21.1834 8.56185 20.4545 8.25301 19.26C7.83124 17.6298 10.1139 15.9887 10.3753 15.8076C11.0186 15.4175 25.7429 6.52337 31.6847 4.44231C36.054 2.91245 41.6435 2.68484 44.5868 2.68484C45.5884 2.68484 46.1935 2.71178 46.1935 2.71178L57.3338 3.10879L92.1325 4.00446L92.3753 4.00316C94.9919 4.00316 96.4141 4.46272 96.7225 5.40834C97.1477 6.71363 95.1561 8.21394 94.9272 8.38117L72.8768 19.961C67.5089 22.9287 57.1739 23.0147 56.0129 23.0147H56.0133ZM44.5872 3.40894C41.6904 3.40894 36.1934 3.63221 31.9249 5.126C26.0544 7.18231 10.9231 16.3223 10.7711 16.4148C10.1946 16.8175 8.70389 18.1076 8.95539 19.0784C9.08005 19.5593 9.80371 20.4167 13.25 20.7668L56.0129 22.2893C57.154 22.2893 67.3173 22.2059 72.5328 19.3234L94.5445 7.76654C95.0892 7.36431 96.2399 6.26753 96.0327 5.63248C95.9436 5.36056 95.4094 4.72812 92.3753 4.72812L92.1273 4.72986L57.3112 3.83375L46.1644 3.43717C46.1566 3.4363 45.5641 3.40937 44.5868 3.40937L44.5872 3.40894Z" fill="#C2CED1"/>
<g style="mix-blend-mode:multiply">
<path d="M38.3657 10.4592C38.2684 7.18145 39.0598 4.62735 41.7425 3.11618C38.8244 3.26083 34.9741 3.67478 31.8063 4.78373C29.571 5.56646 26.0383 7.34825 22.4912 9.27207C23.9207 8.78732 25.3859 8.41072 26.8883 8.27128C28.2683 8.14401 30.3598 7.89859 31.5096 8.93326C32.556 9.87324 32.6516 11.3883 32.8509 12.6953C33.3066 15.6712 33.9521 18.6223 34.5498 21.5713C34.5715 21.6781 34.5932 21.785 34.6153 21.8914L39.8634 22.0786C39.2909 18.2236 38.4808 14.3242 38.3657 10.4592Z" fill="#E0E0E0"/>
</g>
<path d="M47.041 8.05061C38.1429 8.00457 29.7492 10.4127 21.6968 14.0358C20.4319 14.6053 12.8661 18.0046 10.8467 20.7173C11.4739 20.8875 12.2475 21.0287 13.214 21.1265L55.9087 22.6507C55.9087 22.6507 67.0919 22.7449 72.7097 19.6396L89.4511 10.8501C85.8854 7.62189 57.8881 8.10534 47.041 8.04974V8.05061Z" fill="white"/>
<path d="M56.0143 23.0147H55.9053L13.201 21.49C12.2476 21.3936 11.4314 21.2515 10.7516 21.0674C10.6361 21.0365 10.5436 20.9501 10.5045 20.8358C10.465 20.7229 10.4845 20.5974 10.5562 20.5009C12.3558 18.0832 18.2072 15.209 21.5353 13.7109C30.5476 9.6556 38.805 7.68747 46.79 7.68747L47.0424 7.68834C47.8177 7.69225 48.6787 7.69268 49.6143 7.69268L54.4123 7.69051C70.2799 7.69051 86.8798 8.0341 89.6945 10.5812C89.7822 10.662 89.8261 10.7784 89.8109 10.8966C89.7966 11.0143 89.7244 11.1173 89.6198 11.1716L72.8774 19.961C67.5095 22.9286 57.1767 23.0147 56.0143 23.0147ZM11.5031 20.5027C12.0204 20.613 12.606 20.7012 13.251 20.7672L56.0134 22.2897H56.0139C57.1563 22.2897 67.3175 22.2063 72.5334 19.3238L88.7554 10.8071C84.4482 8.41591 63.5471 8.41591 54.4119 8.41591L49.6139 8.41895C48.6769 8.41895 47.8147 8.41808 47.0385 8.41417H46.7891C38.9084 8.41417 30.7492 10.3615 21.8446 14.3681C16.7412 16.665 13.0408 18.8664 11.5022 20.5031L11.5031 20.5027Z" fill="#C2CED1"/>
<path d="M24.6217 56.0885C24.1156 56.7205 24.0813 57.0662 24.0813 57.8729C24.0813 58.9305 24.1387 59.391 24.242 59.6099C24.4036 59.9439 25.0131 59.8744 25.0131 60.4157C25.0131 61.2444 23.1948 61.2444 22.6301 61.2444C20.374 61.2444 20.0756 60.7267 20.0756 60.4157C20.0756 59.7941 20.7315 60.0243 20.9382 59.5517C21.0533 59.2872 21.122 58.7581 21.122 57.6409C21.122 56.985 21.019 56.7669 20.6164 56.2483L19.315 54.741C18.7512 54.0847 18.0032 54.2685 18.0032 53.7046C18.0032 53.4397 17.9224 52.9219 20.6042 52.9219C22.998 52.9219 22.9759 53.371 22.9759 53.6238C22.9759 53.9231 22.654 54.0382 22.654 54.2802C22.654 54.5221 23.114 55.2588 23.4015 55.2588C23.6891 55.2588 24.1843 54.6485 24.1843 54.3836C24.1843 54.0617 23.8502 54.0382 23.8502 53.6013C23.8502 52.9219 25.1851 52.9219 25.6229 52.9219C27.062 52.9219 27.4416 53.0948 27.4416 53.6013C27.4416 54.338 26.6124 53.9123 26.0369 54.5339L24.6213 56.088L24.6217 56.0885Z" fill="#60C3DB"/>
<path d="M26.1645 58.4588C26.1645 56.399 27.9719 55.2354 29.8714 55.2354C31.8851 55.2354 33.0362 56.8121 33.0362 58.2403C33.0362 60.1277 31.0103 61.2796 29.3185 61.2796C27.6266 61.2796 26.1641 60.278 26.1641 58.4588H26.1645ZM29.3758 56.5945C28.9962 56.5945 28.7894 56.9516 28.812 57.2851C28.8585 58.0092 29.0652 59.7828 29.8592 59.8284C30.2967 59.851 30.3887 59.4831 30.3887 59.1138C30.3887 58.5965 30.1585 56.5941 29.3754 56.5941L29.3758 56.5945Z" fill="#60C3DB"/>
<path d="M36.3393 63.4545C34.2105 63.4545 33.4043 62.6483 33.4043 61.9116C33.4043 61.2444 34.0372 61.2327 34.0372 61.0603C34.0372 60.9117 33.4152 60.5881 33.4152 60.0825C33.4152 59.265 34.3469 59.0231 34.3469 58.8623C34.3469 58.7242 33.5654 58.1938 33.5654 57.3425C33.5654 55.9499 35.3029 55.3053 36.4653 55.3053C37.0526 55.3053 37.8466 55.5233 38.2493 55.5233C39.1241 55.5233 39.5619 54.9135 39.7348 54.9135C39.9989 54.9135 40.1149 55.2597 40.1149 55.4786C40.1149 56.1228 39.4703 56.5832 39.4703 56.7092C39.4703 56.8256 39.5042 56.952 39.5042 57.0667C39.5042 58.6208 37.6972 59.1503 36.431 59.1503C36.236 59.1503 36.0396 59.1151 35.8324 59.1151C35.6365 59.1151 35.5219 59.2424 35.5219 59.427C35.5219 59.7841 36.0283 59.8523 36.2929 59.8523C36.649 59.8523 37.9852 59.6568 38.4456 59.6568C39.6427 59.6568 40.1483 60.3357 40.1483 61.0272C40.1483 62.0628 39.1584 63.4558 36.3389 63.4558L36.3393 63.4545ZM36.4544 62.4641C36.8341 62.4641 37.6976 62.4072 37.6976 61.8773C37.6976 61.6358 37.4674 61.532 37.2493 61.532C37.076 61.532 36.6273 61.6015 36.259 61.6015C35.994 61.6015 35.3729 61.509 35.246 61.509C35.1431 61.509 35.1083 61.6132 35.1083 61.6936C35.1083 62.3043 36.0057 62.4646 36.4549 62.4646L36.4544 62.4641ZM36.5239 56.1454C36.0748 56.1454 35.8793 56.5715 35.8793 56.9741C35.8793 57.4124 35.994 58.3667 36.5813 58.3667C37.099 58.3667 37.2715 57.9176 37.2715 57.4698C37.2715 56.9972 37.1681 56.1454 36.5239 56.1454Z" fill="#60C3DB"/>
<path d="M43.6947 58.6321C43.6947 59.0917 43.729 59.8062 44.3506 59.8062C45.1798 59.8062 45.0651 58.7238 45.0651 58.1717C45.0651 57.7921 45.0764 57.2969 45.0178 56.9285C44.9257 56.3521 44.3619 56.5489 44.3619 56.0646C44.3619 55.3861 46.6753 55.271 47.1136 55.271C47.528 55.271 47.7009 55.5116 47.7009 55.916C47.7009 56.2839 47.6774 56.641 47.6774 57.0093V59.3232C47.6774 60.013 48.3103 59.6907 48.3103 60.2436C48.3103 61.0268 46.2736 61.2453 45.6398 61.2453C44.7537 61.2453 45.341 60.5546 44.881 60.5546C44.7541 60.5546 44.5695 60.7275 44.2933 60.8995C44.0174 61.072 43.6491 61.2453 43.1426 61.2453C40.9551 61.2453 41.1397 59.5187 41.1397 57.7925C41.1397 56.0663 40.3457 56.8021 40.3457 56.0428C40.3457 55.2836 43.246 55.2714 43.3381 55.2714C43.6608 55.2714 43.6951 55.4204 43.6951 55.7079V58.6326L43.6947 58.6321Z" fill="#60C3DB"/>
<path d="M49.323 57.6296C49.323 56.5024 48.6098 57.1353 48.6098 56.4325C48.6098 55.5233 51.3037 55.271 51.4075 55.271C51.8445 55.271 51.8567 55.3861 51.9018 55.777C51.9136 55.916 51.9018 56.1805 52.0982 56.1805C52.3744 56.1805 52.5464 55.271 53.5368 55.271C54.3078 55.271 54.8143 55.8465 54.8143 56.6058C54.8143 57.3651 54.1584 57.9871 53.3987 57.9871C52.639 57.9871 52.4435 57.3312 52.1447 57.3312C51.8219 57.3312 51.8797 58.1018 51.8797 58.3098C51.8797 58.6538 51.914 59.1382 51.9718 59.5747C52.0413 60.0821 52.9152 59.7706 52.9152 60.4617C52.9152 61.1871 51.9023 61.2444 50.6365 61.2444C50.1075 61.2444 48.542 61.267 48.542 60.473C48.542 59.9904 49.0711 59.9904 49.1979 59.5869C49.29 59.2984 49.3239 58.6425 49.3239 58.3207V57.6296H49.323Z" fill="#60C3DB"/>
<path d="M58.8669 58.6321C58.8669 59.4027 59.1888 59.5873 59.4998 59.5873C59.8568 59.5873 60.0636 59.3228 60.2708 59.3228C60.5015 59.3228 60.6622 59.6447 60.6622 59.8514C60.6622 60.6111 59.3504 61.2796 58.1876 61.2796C57.6003 61.2796 56.1273 61.026 56.1273 59.1955V56.8252C56.1273 56.6171 56.1273 56.5363 56.07 56.5024C56.0127 56.4677 55.8854 56.4911 55.6217 56.4911C55.3225 56.4911 55.173 56.5024 55.1148 56.4442C55.0349 56.3647 55.0575 56.2483 55.0575 55.9838C55.0575 55.8231 55.0232 55.6958 55.1613 55.6042L57.7853 53.9357C58.0499 53.7746 58.0386 53.8089 58.3843 53.8089C58.8443 53.8089 58.8678 53.7624 58.8678 54.2928C58.8678 54.6494 58.8448 55.006 58.9021 55.1442C58.9364 55.2358 59.0172 55.2358 59.3165 55.2358H60.1218C60.617 55.2358 60.617 55.271 60.617 55.7888C60.617 56.4447 60.5362 56.4916 60.0875 56.4916H59.2935C58.8899 56.4916 58.8678 56.5029 58.8678 56.9177V58.6326L58.8669 58.6321Z" fill="#60C3DB"/>
<g style="mix-blend-mode:multiply" opacity="0.4">
<path d="M57.2314 8.05626C58.5545 8.48846 59.8906 9.07746 60.6152 10.2585C61.308 11.3887 60.2976 12.7844 59.3138 13.3004C57.7726 14.1075 55.9778 14.3538 54.2573 14.4367C51.5868 14.5657 47.6006 14.6261 45.3184 12.9903C44.3311 12.2827 44.2207 11.4274 45.0765 10.5382C46.2128 9.35676 47.8929 9.69123 49.4688 9.95706C46.9008 9.08311 43.4658 8.92109 41.4082 10.0418C39.1112 11.2914 39.7046 14.0176 41.8491 15.1152C43.504 15.9627 45.3275 16.2819 47.0611 16.9126C47.4147 17.0416 47.3955 17.4769 47.0611 17.612C44.3211 18.7179 41.2514 18.6992 38.342 18.8147C35.665 18.9216 32.6157 19.1197 30.0968 18.0111C28.3185 17.2302 27.0353 15.9627 28.2894 14.0957C29.4717 12.3326 31.8369 11.8583 33.8467 11.2828C31.6492 10.8449 29.013 11.6246 27.2169 12.7318C26.0554 13.4485 24.4447 14.67 24.6437 16.2567C24.8791 18.1289 26.6062 19.0019 28.2633 19.3299C28.6733 19.4111 28.5673 20.0392 28.1673 20.0423C25.863 20.0566 23.4461 20.2833 21.1791 19.7551C20.025 19.4854 17.977 18.9646 17.5456 17.6445C17.3558 17.0655 17.4245 16.5121 17.6516 15.9896C15.0584 17.34 12.02 19.1427 10.8477 20.7173C11.4749 20.8875 12.2485 21.0287 13.215 21.1265L55.9096 22.6507C55.9096 22.6507 67.0929 22.7449 72.7106 19.6396L89.4521 10.8501C86.7408 8.39507 69.9142 8.08623 57.2319 8.05539L57.2314 8.05626Z" fill="#CED8DA"/>
</g>
<path d="M32.7212 19.4741C30.3865 19.1692 22.7594 17.2054 27.474 14.0397C28.8497 13.1162 30.5016 12.5637 32.1774 12.2062C31.4407 12.3126 30.7057 12.4373 29.9716 12.5832C26.521 13.7621 23.4348 15.8549 26.6969 18.3699C28.0617 19.4224 30.0746 19.693 31.7082 19.9866C33.9604 20.3919 36.3126 20.5061 38.5974 20.5835C42.6348 20.7199 46.6719 20.3867 50.6885 19.9619C51.2154 19.8103 51.724 19.6287 52.2109 19.4176C45.7015 19.9276 39.2333 20.3246 32.7208 19.475L32.7212 19.4741Z" fill="white"/>
<path d="M76.8585 12.4386C76.4585 10.5526 73.8861 10.1686 72.0687 9.9449C70.088 9.81416 68.0656 9.95533 66.0762 10.1903C68.5629 10.2616 71.0445 10.2298 73.5135 10.851C74.3266 11.056 77.4428 11.88 75.6853 13.5493C74.847 14.3464 73.6138 14.8324 72.5461 15.2216C70.7682 15.8701 68.8296 16.0978 66.9731 16.4205C66.9328 16.4279 66.8893 16.4635 66.8507 16.5078C67.5317 16.5647 68.2128 16.5777 68.8935 16.556C70.6553 16.3241 72.3771 15.9422 74.0134 15.1639C74.7375 14.8203 77.1018 13.5875 76.8585 12.4382V12.4386Z" fill="white"/>
<path d="M56.7167 16.8627C57.4803 16.8058 58.2426 16.7328 58.9989 16.6225C54.696 16.5525 50.2276 16.5386 46.0907 15.295C45.1186 15.0023 38.8867 13.002 41.4594 11.1055C43.2156 9.81067 46.4451 9.93577 48.7034 10.2481C48.491 10.106 48.2704 9.97703 48.0428 9.86019C45.9765 9.48315 43.5679 9.49879 41.8287 10.4453C40.3435 11.2541 39.7902 12.3613 41.1167 13.6787C43.1509 15.7012 47.0068 16.2181 49.6821 16.5421C52.0094 16.8249 54.3654 16.877 56.7167 16.8622V16.8627Z" fill="white"/>
</g>
<defs>
<clipPath id="clip0_232_171716">
<rect width="102.543" height="92" fill="white" transform="translate(0.317383)"/>
</clipPath>
</defs>
</svg>
