<svg width="72" height="92" viewBox="0 0 72 92" fill="none" xmlns="http://www.w3.org/2000/svg">
<g clip-path="url(#clip0_236_172108)">
<path d="M13.2553 20.3326C13.2004 19.4984 13.114 18.6658 13.0998 17.8301C13.0841 16.787 12.8155 15.7957 12.5359 14.8107C12.4212 14.4086 12.2767 13.9907 12.0819 13.6215C11.8541 13.1927 11.4928 12.8345 11.1896 12.4465C11.1503 12.3962 11.1157 12.3161 11.0655 12.3035C10.6602 12.2077 10.3947 11.8621 9.99094 11.7427C9.41598 11.5715 8.86459 11.3217 8.29905 11.1143C8.09797 11.0405 7.88747 10.9934 7.6801 10.9321C7.27795 10.8159 6.93234 10.6116 6.66528 10.2833C6.48777 10.065 6.48463 9.95813 6.62601 9.70207C6.79724 9.39103 7.06744 9.18366 7.35335 8.99515C7.63926 8.80507 7.94088 8.63698 8.22522 8.44376C8.45457 8.28981 8.66822 8.11072 8.89129 7.94734C9.01225 7.85937 9.13165 7.76197 9.26517 7.69756C9.91868 7.38024 10.5989 7.11161 11.2288 6.75186C12.1274 6.23974 13.0998 5.90199 14.0345 5.4747C14.6393 5.19978 15.2661 4.97514 15.8835 4.72379C15.9621 4.69237 16.0343 4.64367 16.1097 4.6044C16.6643 4.31378 17.2345 4.07343 17.855 3.95718C18.02 3.92576 18.1708 3.82522 18.3342 3.77809C19.0945 3.55345 19.8344 3.2534 20.6261 3.13872C20.6686 3.13244 20.7173 3.13715 20.7534 3.1183C21.5986 2.68787 22.5443 2.70043 23.4428 2.50092C24.1796 2.33755 24.9336 2.32969 25.6735 2.2213C26.2689 2.13333 26.8675 2.10348 27.4628 2.0375C27.9938 1.9778 28.5374 1.99508 29.073 2.01708C29.6087 2.03907 30.1413 2.02022 30.6754 1.98409C31.2519 1.94482 31.8316 1.93539 32.4097 1.92439C32.7962 1.91654 33.1826 1.91025 33.569 1.93068C34.609 1.98409 35.649 1.87884 36.6905 1.95267C37.1303 1.98409 37.5828 1.94953 38.0305 1.95424C38.3918 1.95738 38.7311 2.09248 39.1082 2.03907C39.438 1.99194 39.7868 2.08306 40.1277 2.11605C40.2769 2.13019 40.4277 2.14275 40.5754 2.1726C41.0797 2.27471 41.5839 2.34383 42.1023 2.3454C42.4652 2.3454 42.8297 2.40039 43.1926 2.44594C44.1713 2.56847 45.15 2.69415 46.1286 2.82925C46.8717 2.93136 47.6163 3.00048 48.3531 3.16857C48.961 3.30681 49.5517 3.51418 50.1581 3.63042C50.6796 3.73096 51.1383 3.92419 51.5923 4.16454C52.0573 4.41275 52.4375 4.7505 52.659 5.24691C52.7187 5.38358 52.8271 5.49669 52.8962 5.63022C53.0345 5.89728 53.1538 6.16434 53.1319 6.48481C53.1114 6.78328 53.1303 7.08647 53.1476 7.38652C53.1853 8.03531 53.0659 8.66683 52.9041 9.2842C52.549 10.6336 52.2019 11.9815 51.9741 13.3592C51.9285 13.6341 51.8484 13.9043 51.7809 14.1745C51.5295 15.1721 51.352 16.1822 51.2467 17.208C51.187 17.7845 51.1132 18.3563 51.1242 18.9376C51.1446 20.0042 51.1446 21.0709 51.1556 22.1376C51.1603 22.6513 51.1525 23.165 51.1855 23.6771C51.2106 24.0604 51.2829 24.4405 51.3551 24.8191C51.4997 25.5779 51.6458 26.3367 51.8154 27.0891C51.9002 27.463 52.0228 27.8306 52.15 28.1935C52.3291 28.7009 52.4909 29.2068 52.5836 29.7409C52.7014 30.4164 52.8994 31.0793 53.0643 31.7454C53.1161 31.9543 53.1664 32.1632 53.2324 32.3675C53.4759 33.1231 53.7539 33.8693 53.966 34.6327C54.1451 35.28 54.4687 35.8628 54.6902 36.488C54.7326 36.609 54.7923 36.7237 54.841 36.843C55.2071 37.7353 55.5951 38.6198 55.9265 39.5262C56.0821 39.9519 56.2941 40.3462 56.4732 40.7578C56.6099 41.072 56.7104 41.4019 56.8455 41.7176C57.133 42.3884 57.4315 43.0529 57.7253 43.7206C57.9311 44.1903 58.1211 44.6679 58.3505 45.125C58.5123 45.4486 58.7479 45.7345 58.916 46.055C59.2334 46.6629 59.5585 47.2709 59.8177 47.904C60.1571 48.735 60.3958 49.6084 60.7509 50.4332C61.2897 51.6852 61.607 53.0001 61.9259 54.3149C62.1836 55.3785 62.4098 56.453 62.603 57.5306C62.7758 58.5015 62.9627 59.4723 63.0004 60.4636C63.0177 60.9097 63.0931 61.3543 63.1355 61.8004C63.1497 61.9497 63.145 62.102 63.1513 62.2513C63.1623 62.5073 63.1607 62.765 63.189 63.0179C63.2314 63.4028 63.2926 63.7861 63.1921 64.1725C63.1717 64.2526 63.1591 64.3422 63.1701 64.4239C63.3099 65.5157 63.2549 66.6075 63.1748 67.6993C63.1371 68.2114 63.1513 68.7235 63.0554 69.2356C62.8936 70.0997 62.7884 70.9747 62.6595 71.845C62.5496 72.588 62.4475 73.3326 62.3249 74.0741C62.2715 74.3899 62.2024 74.7103 62.0846 75.0072C61.9809 75.2712 61.9322 75.5398 61.8678 75.81C61.7484 76.3111 61.6259 76.8044 61.3384 77.2537C61.1342 77.5726 61.0462 77.9622 60.8891 78.3125C60.6598 78.823 60.3958 79.3132 60.0015 79.7247C59.8272 79.907 59.7188 80.1505 59.5664 80.3547C59.2616 80.7663 58.9789 81.192 58.7212 81.635C58.4636 82.0811 58.1761 82.51 57.8933 82.942C57.7881 83.1022 57.6624 83.2499 57.5415 83.3992C57.488 83.4651 57.4048 83.5123 57.3639 83.5845C56.8785 84.447 56.0836 85.0251 55.4066 85.71C54.9856 86.1357 54.5206 86.519 54.054 86.896C53.7367 87.1505 53.4036 87.4019 53.0407 87.5794C51.9458 88.1135 50.832 88.6068 49.7292 89.1236C49.5564 89.2053 49.4087 89.3404 49.2359 89.4205C48.4175 89.7928 47.5959 90.1604 46.7727 90.5186C46.5764 90.6034 46.3674 90.6977 46.1601 90.7071C45.3369 90.7432 44.5609 91.0292 43.7487 91.125C42.7888 91.2381 41.8321 91.3858 40.8755 91.5224C40.7702 91.5381 40.6697 91.5853 40.566 91.6088C40.1073 91.7157 39.6595 91.8398 39.171 91.8193C38.728 91.8005 38.2787 91.9026 37.8326 91.9529C37.7053 91.967 37.5781 91.9969 37.4524 91.9937C36.7439 91.9764 36.0386 91.9811 35.3301 91.9953C34.8227 92.0063 34.309 91.9717 33.8015 91.9859C33.2831 92 32.7742 91.8869 32.2667 91.8995C31.7358 91.912 31.2048 91.8005 30.6738 91.8995C30.5701 91.9183 30.4586 91.8995 30.3518 91.8853C29.4202 91.7534 28.4745 91.7534 27.5492 91.5476C27.1549 91.4596 26.7355 91.4989 26.3333 91.4392C25.3358 91.2915 24.343 91.1234 23.3486 90.96C22.6699 90.8485 21.9929 90.7338 21.3158 90.6129C21.1053 90.5752 20.8948 90.5249 20.689 90.4621C19.9931 90.2484 19.2893 90.0583 18.6091 89.8007C17.2863 89.298 15.9322 88.8723 14.6566 88.247C14.2906 88.068 13.956 87.8276 13.5947 87.6375C12.6238 87.1254 11.752 86.4625 10.8345 85.8687C10.2879 85.5152 9.804 85.1099 9.34058 84.659C9.02011 84.3464 8.6368 84.0982 8.28334 83.8186C7.69267 83.3505 7.2104 82.7786 6.77054 82.1723C6.19243 81.3727 5.67088 80.5275 5.0378 79.775C4.50682 79.1435 4.10938 78.4492 3.69465 77.7485C3.33491 77.1406 2.97202 76.5373 2.71596 75.8807C2.44262 75.1816 2.19756 74.47 1.96977 73.7536C1.65873 72.7734 1.36339 71.7868 1.08377 70.7971C0.967517 70.3856 0.892112 69.9614 0.818278 69.5388C0.742874 69.1147 0.68632 68.6874 0.634479 68.2617C0.603061 68.0056 0.598348 67.748 0.581068 67.4903C0.554362 67.1055 0.540224 66.7174 0.499379 66.3341C0.414549 65.5408 0.419262 64.7569 0.560646 63.9636C0.66904 63.3541 0.66904 62.7273 0.720881 62.1083C0.752299 61.7234 0.785289 61.3386 0.827704 60.9553C0.873261 60.528 0.929814 60.1038 0.980084 59.6765C1.03821 59.1833 1.12618 58.701 1.30684 58.2328C1.61003 57.4521 1.81739 56.6415 1.99333 55.823C2.07816 55.4272 2.24783 55.0486 2.39078 54.6668C2.51017 54.3464 2.63585 54.029 2.77723 53.718C3.07099 53.0723 3.21238 52.3748 3.50143 51.7245C3.6491 51.3914 3.82818 51.0773 3.98685 50.7521C4.22092 50.2698 4.51625 49.8189 4.77545 49.3477C4.90898 49.1057 5.01895 48.8512 5.13834 48.5999C5.4054 48.0391 5.64261 47.4625 5.94266 46.919C6.4485 46 6.79567 44.9977 7.38634 44.1227C7.45703 44.0191 7.51359 43.8902 7.53087 43.7677C7.62041 43.1252 7.82934 42.5141 8.05084 41.9109C8.2425 41.3925 8.43572 40.8709 8.67607 40.3745C9.10494 39.4822 9.48982 38.5758 9.80558 37.6379C9.85427 37.4966 9.92182 37.3599 9.98152 37.2216C10.3224 36.433 10.5628 35.602 10.9147 34.8244C11.32 33.9258 11.4158 32.9628 11.6797 32.0376C11.9091 31.2348 12.0929 30.4179 12.2625 29.6011C12.3489 29.1848 12.3631 28.7528 12.407 28.3286C12.4227 28.1794 12.4227 28.027 12.4495 27.8793C12.6914 26.5487 12.8579 25.2072 12.9616 23.8609C13.0511 22.6858 13.3072 21.5218 13.2632 20.3326H13.2553Z" fill="#EFEFEF"/>
<path d="M7.50774 11.4976C7.27524 11.3233 7.03646 11.2306 6.73327 11.2416C6.35153 11.2541 6.04991 11.0185 5.78757 10.7546C5.74515 10.7122 5.71216 10.6478 5.69959 10.5881C5.59906 10.0885 5.63047 9.61723 5.91324 9.16637C6.35624 8.46103 6.94063 7.90963 7.63341 7.45406C8.45815 6.91366 9.26875 6.35127 10.0872 5.79987C10.1579 5.75274 10.2317 5.70404 10.3118 5.6742C10.9528 5.4307 11.5152 5.02697 12.1514 4.77405C12.508 4.63267 12.8442 4.43473 13.1945 4.2745C13.7003 4.04357 14.2062 3.81107 14.7199 3.599C16.008 3.06645 17.2868 2.50877 18.6629 2.21972C19.1845 2.10975 19.6856 1.92281 20.215 1.81599C21.4309 1.57092 22.6499 1.34157 23.869 1.10593C24.9451 0.898566 26.029 0.75404 27.1192 0.650359C28.4844 0.521543 29.8464 0.366021 31.2099 0.232491C31.7661 0.177509 32.3237 0.158658 32.8814 0.11153C33.9481 0.0188449 35.0179 -0.00629002 36.0893 -6.30046e-06C36.7098 0.00313556 37.3319 -0.00629002 37.9524 0.00470649C38.2524 0.00941928 38.5525 0.039267 38.8525 0.0722565C39.3207 0.124097 39.7857 0.199502 40.2554 0.24663C40.5538 0.276478 40.8539 0.270194 41.1539 0.282761C41.5828 0.303183 42.0117 0.326747 42.439 0.347169C42.5458 0.351882 42.6526 0.359737 42.7594 0.355024C43.5559 0.318893 44.3414 0.433571 45.1221 0.557674C46.0521 0.703771 46.9805 0.873431 47.8932 1.09493C48.5169 1.24731 49.1138 1.50966 49.7234 1.72016C50.1082 1.85369 50.49 1.99665 50.8811 2.10975C51.5959 2.31712 52.2321 2.65172 52.7615 3.18584C52.9783 3.4042 53.159 3.64141 53.2784 3.91947C53.7559 5.03168 53.9256 6.14705 53.2831 7.26241C53.2297 7.35509 53.1826 7.45249 53.1401 7.54989C52.8087 8.30865 52.2384 8.84119 51.5127 9.20408C50.9754 9.47271 50.4099 9.68635 49.8663 9.94241C49.4563 10.1341 49.0259 10.2236 48.5876 10.3179C47.8964 10.4671 47.2193 10.6855 46.5297 10.8473C45.7583 11.0279 45.0074 11.2856 44.189 11.2573C43.5732 11.2369 42.9542 11.3563 42.3353 11.4002C41.6079 11.4521 40.879 11.4866 40.1517 11.5322C39.96 11.5448 39.7699 11.5715 39.5783 11.5919C39.4715 11.6029 39.3631 11.6343 39.2594 11.6249C38.3357 11.5416 37.4167 11.6971 36.4946 11.661C35.896 11.6375 35.2975 11.6092 34.699 11.5809C34.5073 11.5715 34.3141 11.5526 34.1224 11.5495C32.7039 11.5243 31.2916 11.3971 29.8856 11.2353C28.8017 11.1096 27.7162 10.9887 26.637 10.8347C26.3196 10.7891 26.0133 10.6808 25.6975 10.6163C24.6277 10.3996 23.5752 10.0822 22.4646 10.0995C22.1033 10.1058 21.7419 10.0351 21.3806 10.021C20.3517 9.98169 19.3227 9.9377 18.2922 9.92513C17.7376 9.91728 17.1831 9.98797 16.6286 9.99268C15.4237 10.0021 14.2203 9.9864 13.0154 9.9974C12.7169 10.0005 12.4185 10.0555 12.1231 10.1026C11.5293 10.1969 10.9449 10.332 10.3794 10.5488C9.67876 10.8174 8.97499 11.0829 8.2665 11.3311C8.02614 11.4144 7.76694 11.4442 7.51088 11.4992L7.50774 11.4976ZM13.0798 7.0142L13.1285 7.14773C14.0711 7.14773 15.0168 7.10688 15.9578 7.15873C16.9208 7.21214 17.8853 7.15873 18.8483 7.26084C19.9762 7.3818 21.1104 7.43364 22.2431 7.48077C22.4787 7.49019 22.7143 7.4949 22.95 7.50747C23.4637 7.53261 23.9774 7.5436 24.4879 7.59387C25.1069 7.65357 25.7211 7.77139 26.3416 7.82323C27.446 7.91591 28.5284 8.17355 29.6343 8.25681C30.0836 8.2898 30.5313 8.4249 30.9759 8.40447C31.9389 8.35892 32.8971 8.43118 33.8585 8.4139C34.9063 8.39505 35.9526 8.36677 36.9988 8.31336C37.1701 8.30393 37.3397 8.3055 37.5109 8.29294C37.8518 8.2678 38.1912 8.22382 38.5336 8.20811C38.8729 8.19397 39.2264 8.26152 39.5532 8.19397C40.7345 7.9489 41.9268 7.86407 43.1302 7.85151C43.3847 7.84836 43.6407 7.81223 43.8936 7.78238C44.2958 7.73526 44.6948 7.65357 45.0985 7.63315C46.1087 7.58131 47.1078 7.50433 48.088 7.21528C48.685 7.03933 49.1892 6.75185 49.5867 6.28057C49.7218 6.11877 49.8443 5.93654 49.9323 5.74646C50.1067 5.36629 49.9967 4.72692 49.6935 4.49757C49.2489 4.16139 48.7635 3.88176 48.22 3.73095C46.7465 3.32251 45.2509 3.06802 43.7177 3.02718C42.7516 3.00204 41.7855 2.93606 40.8225 2.9015C39.4966 2.8528 38.1723 2.74912 36.8386 2.76954C35.5096 2.78997 34.1821 2.84181 32.8531 2.85909C31.865 2.87166 30.8785 2.96434 29.8935 3.0476C28.9745 3.12457 28.0602 3.23925 27.1428 3.33508C26.9747 3.35236 26.8003 3.34293 26.6354 3.37435C25.7054 3.55658 24.7613 3.588 23.8219 3.66812C23.6098 3.6854 23.3899 3.66026 23.1809 3.69639C22.7379 3.77023 22.2965 3.8582 21.8613 3.96502C20.2778 4.35304 18.6975 4.75206 17.1171 5.14793C16.971 5.18407 16.8202 5.20763 16.6835 5.26732C15.6781 5.7009 14.6775 6.14547 13.6736 6.58062C13.4364 6.68273 13.2605 6.84925 13.083 7.01891L13.0798 7.0142Z" fill="#DCDDDD"/>
<path d="M71.5413 43.0482C71.5256 44.1227 71.4502 45.103 71.3748 46.0848C71.3214 46.7713 71.2522 47.4531 71.1501 48.1333C71.1156 48.3674 71.0449 48.5952 71.0119 48.8292C70.8988 49.6398 70.4841 50.3169 70.0678 50.9924C69.5132 51.891 68.8581 52.7141 68.1936 53.531C67.815 53.996 67.4082 54.439 66.995 54.8726C66.6164 55.27 66.4012 55.7649 66.1341 56.2283C66.1122 56.2644 66.0854 56.3084 66.087 56.3477C66.1012 56.7828 65.8718 57.1944 65.8954 57.6123C65.9284 58.2171 65.7053 58.7418 65.5435 59.2901C65.5262 59.3513 65.4759 59.4079 65.4728 59.4676C65.4508 59.9938 65.1178 60.3284 64.7517 60.6363C64.5067 60.8437 64.2349 61.0165 63.9898 61.2239C63.8453 61.3448 63.6851 61.3778 63.5123 61.3857C62.9734 61.4077 62.4849 61.2254 62.0859 60.8908C61.8314 60.6772 61.6696 60.3504 61.4685 60.0739C61.225 59.7378 61.1135 59.3403 60.9894 58.9554C60.7301 58.148 60.6752 57.3013 60.7333 56.4702C60.8071 55.4256 61.1826 54.4547 61.8235 53.6174C62.3451 52.9356 62.909 52.2868 63.4636 51.6302C63.9757 51.0222 64.4988 50.4221 65.0188 49.8205C65.3754 49.4058 65.5592 48.8921 65.7917 48.4114C66.0525 47.871 66.2473 47.2991 66.4688 46.7383C66.4923 46.6786 66.508 46.6158 66.5143 46.5529C66.5693 45.9984 66.6321 45.4439 66.6746 44.8878C66.717 44.3316 66.7688 43.7724 66.7641 43.2163C66.7578 42.5973 66.8097 41.9768 66.684 41.3594C66.6368 41.1317 66.6557 40.8897 66.6447 40.6557C66.6039 39.7571 66.4672 38.868 66.4688 37.9631C66.4703 37.2577 66.3478 36.5508 66.2912 35.8439C66.2048 34.7458 65.9723 33.6776 65.6079 32.6408C65.3722 31.9731 65.113 31.3055 64.6669 30.7462C64.4878 30.5216 64.227 30.3441 63.9741 30.2011C63.3725 29.8618 62.7347 29.612 62.0403 29.5272C61.1669 29.4219 60.3107 29.1643 59.4231 29.1957C58.7602 29.2193 58.0941 29.2539 57.4359 29.3371C56.6724 29.4345 55.9121 29.5775 55.1565 29.7251C54.7575 29.8037 54.3726 29.9482 53.9767 30.0377C53.2289 30.2074 52.4749 30.1509 51.7413 29.9781C51.2056 29.8524 50.7783 29.5303 50.5332 29.0009C50.1421 28.1573 49.82 27.3012 49.8483 26.3476C49.8624 25.8544 49.8499 25.3579 49.842 24.8647C49.831 24.142 50.2285 23.7148 50.8521 23.4461C50.9103 23.421 50.9794 23.4194 51.0375 23.3927C51.3674 23.245 51.6109 23.3629 51.8183 23.6284C52.211 24.1279 52.764 24.3274 53.3625 24.4515C53.9799 24.5803 54.5878 24.585 55.2036 24.4264C55.4502 24.3635 55.7204 24.3384 55.9718 24.3667C56.3268 24.406 56.6457 24.3133 56.9772 24.2316C57.9135 23.9975 58.8497 23.7807 59.8316 23.8184C60.4317 23.842 61.0349 23.7996 61.6366 23.7839C62.4346 23.7619 63.2295 23.8106 63.9977 24.0352C64.5711 24.2033 65.146 24.3965 65.6393 24.7469C66.1357 25.0987 66.5285 25.5575 66.8364 26.079C67.0893 26.5063 67.3689 26.91 67.6815 27.2949C67.98 27.6625 68.2015 28.0772 68.3476 28.5312C68.379 28.6286 68.4387 28.7182 68.4921 28.8077C68.5455 28.8973 68.6209 28.9758 68.6665 29.0669C69.1896 30.1037 69.5745 31.1971 69.9138 32.3015C70.2091 33.2629 70.4683 34.2384 70.671 35.2218C70.8831 36.2508 71.0307 37.2939 71.169 38.337C71.3795 39.9315 71.4643 41.537 71.5444 43.0513L71.5413 43.0482Z" fill="#DCDDDD"/>
<path d="M13.0793 7.01421C13.2568 6.84454 13.4328 6.6796 13.67 6.57592C14.6738 6.14077 15.6745 5.69777 16.6799 5.26262C16.8166 5.20449 16.9674 5.17936 17.1135 5.14323C18.6954 4.74735 20.2757 4.34834 21.8577 3.96032C22.2928 3.85349 22.7358 3.76709 23.1773 3.69169C23.3862 3.65713 23.6046 3.68226 23.8182 3.66341C24.7576 3.58329 25.7017 3.55187 26.6317 3.36965C26.7967 3.33666 26.9711 3.34765 27.1391 3.33037C28.0566 3.23455 28.9709 3.12144 29.8898 3.04289C30.8748 2.95963 31.8629 2.86852 32.8495 2.85438C34.1785 2.8371 35.5059 2.78526 36.8349 2.76484C38.1671 2.74442 39.4929 2.8481 40.8188 2.8968C41.7818 2.93136 42.7479 2.99734 43.714 3.02247C45.2473 3.06331 46.7444 3.31623 48.2163 3.72625C48.7599 3.87706 49.2453 4.15668 49.6899 4.49286C49.9946 4.72222 50.1046 5.36159 49.9286 5.74175C49.8407 5.9334 49.7197 6.11563 49.583 6.27587C49.1856 6.74715 48.6813 7.03463 48.0844 7.21057C47.1041 7.49962 46.105 7.5766 45.0949 7.62844C44.6912 7.64886 44.2921 7.72898 43.89 7.77768C43.6355 7.80753 43.381 7.84366 43.1265 7.8468C41.9247 7.8578 40.7324 7.9442 39.5495 8.18926C39.2227 8.25681 38.8693 8.18926 38.53 8.2034C38.1891 8.21911 37.8482 8.26152 37.5073 8.28823C37.3376 8.3008 37.1664 8.3008 36.9952 8.30865C35.9489 8.36206 34.9027 8.39034 33.8549 8.40919C32.8935 8.42647 31.9352 8.35264 30.9722 8.39977C30.5292 8.42176 30.0799 8.28666 29.6306 8.2521C28.5247 8.17041 27.4423 7.91121 26.338 7.81852C25.7175 7.76668 25.1048 7.64886 24.4843 7.58917C23.9737 7.5389 23.4585 7.52947 22.9463 7.50276C22.7107 7.49177 22.4751 7.48706 22.2394 7.47606C21.1052 7.42736 19.971 7.37552 18.8446 7.25613C17.8816 7.15245 16.9171 7.20743 15.9541 7.15402C15.0147 7.10218 14.069 7.14302 13.1249 7.14302L13.0762 7.00949L13.0793 7.01421Z" fill="#EFEFEF"/>
<path d="M47.9245 22.3481C48.1837 22.4015 48.2827 22.5963 48.2968 22.835C48.3156 23.1602 48.3204 23.4854 48.3156 23.8106C48.3078 24.274 48.3361 24.7264 48.4759 25.1789C48.589 25.5433 48.6157 25.9361 48.666 26.3194C48.7539 27.0043 48.9 27.6751 49.0713 28.3427C49.1765 28.7543 49.2064 29.1832 49.2818 29.6026C49.3792 30.1383 49.475 30.6756 49.5928 31.2081C49.775 32.0218 49.9761 32.8309 50.1709 33.6399C50.2605 34.0154 50.3453 34.3908 50.4443 34.7631C50.5856 35.2925 50.7349 35.8188 50.8841 36.345C51.0616 36.9687 51.2627 37.5861 51.4167 38.216C51.5769 38.8727 51.8659 39.4775 52.1079 40.1011C52.3419 40.706 52.62 41.2951 52.8902 41.8873C53.2955 42.7717 53.7087 43.653 54.1218 44.5343C54.4061 45.1375 54.6936 45.7376 54.9858 46.3362C55.1633 46.6991 55.256 47.0918 55.4178 47.4625C55.8498 48.4475 56.2347 49.4545 56.6541 50.4457C56.8678 50.95 57.1191 51.4386 57.3532 51.935C57.4145 52.0638 57.4757 52.1942 57.5213 52.3277C57.8308 53.2278 58.156 54.1217 58.4372 55.0297C58.6037 55.5701 58.7105 56.1309 58.8267 56.6855C59.0058 57.5369 59.1755 58.3899 59.3373 59.2445C59.3907 59.5226 59.4143 59.8085 59.4441 60.0912C59.496 60.5719 59.5431 61.0542 59.5934 61.5365C59.6075 61.6779 59.6593 61.824 59.6373 61.9575C59.5211 62.6424 59.7505 63.3336 59.5839 64.0138C59.6641 64.4773 59.6373 64.9423 59.5934 65.4073C59.5289 66.0953 59.4645 66.7834 59.3907 67.4715C59.3279 68.0574 59.2556 68.6434 59.1786 69.2278C59.1441 69.4901 59.0907 69.7493 59.0404 70.0085C59.0137 70.1483 58.9666 70.2834 58.943 70.4248C58.7702 71.4711 58.4953 72.489 58.156 73.4944C57.8952 74.2642 57.6957 75.0544 57.4302 75.8225C57.1097 76.7462 56.6526 77.6118 56.1876 78.4696C55.9519 78.9047 55.611 79.255 55.2403 79.5771C54.6292 80.1096 54.0228 80.6453 53.4117 81.1778C53.2279 81.3381 53.0426 81.4967 52.8478 81.6444C52.1503 82.1691 51.4874 82.7362 50.8448 83.3269C50.4411 83.6992 49.9651 83.971 49.486 84.2302C48.8969 84.5491 48.2921 84.8428 47.6826 85.124C47.0369 85.4225 46.3897 85.7272 45.7205 85.9645C45.0921 86.1875 44.4323 86.3289 43.7867 86.5049C43.6107 86.5536 43.4316 86.5897 43.2588 86.6478C42.8928 86.7704 42.5252 86.8693 42.145 86.9432C41.4475 87.0767 40.7595 87.2558 40.0683 87.4113C39.7321 87.4867 39.3943 87.548 39.0597 87.6281C38.7644 87.7003 38.4738 87.793 38.18 87.8716C38.0229 87.914 37.8642 87.9548 37.704 87.9784C37.283 88.0412 36.8604 88.1041 36.4363 88.1496C36.1346 88.181 35.8283 88.1826 35.5251 88.1999C35.1811 88.2188 34.8371 88.2533 34.4946 88.2565C33.7421 88.2612 32.9881 88.2439 32.2356 88.247C31.7894 88.2502 31.3449 88.324 30.8987 88.2439C30.7008 88.2077 30.5013 88.1779 30.3018 88.1638C29.8556 88.1339 29.4095 88.1135 28.9633 88.0931C28.822 88.0868 28.6743 88.1166 28.5376 88.0884C27.9171 87.9611 27.2887 87.9375 26.6588 87.9281C26.4216 87.925 26.1812 87.8543 25.9534 87.7805C25.5466 87.6454 25.1366 87.5542 24.7093 87.4993C24.1264 87.4223 23.5499 87.2888 22.9702 87.1772C22.9105 87.1662 22.854 87.1317 22.7943 87.127C21.6648 87.0311 20.628 86.5913 19.5582 86.2724C19.3445 86.2095 19.145 86.1027 18.9377 86.0179C18.713 85.9252 18.4915 85.8184 18.2606 85.7461C17.8333 85.6142 17.4233 85.4555 17.0117 85.2733C16.553 85.069 16.0786 84.8852 15.6104 84.6936C14.858 84.3841 14.1196 84.0636 13.4881 83.5342C13.1472 83.2483 12.7812 82.9954 12.4639 82.6781C12.2235 82.4377 11.9235 82.2586 11.6501 82.0528C11.3752 81.8455 11.2134 81.5282 10.9133 81.3349C10.3808 80.9925 9.95822 80.5212 9.54349 80.0483C9.50265 80.0028 9.45081 79.9635 9.4241 79.9101C9.13505 79.365 8.67477 78.9534 8.3166 78.4617C7.95685 77.97 7.58611 77.483 7.27507 76.9599C7.07085 76.6143 6.8462 76.2765 6.70639 75.8869C6.59014 75.5665 6.37021 75.2868 6.22726 74.9742C5.89108 74.2359 5.56118 73.4944 5.25171 72.7451C5.12918 72.4466 5.06634 72.123 4.98151 71.8088C4.78828 71.0877 4.65161 70.3541 4.44896 69.6346C4.23532 68.8743 4.08922 68.0951 3.91171 67.3254C3.85201 67.0677 3.81588 66.8023 3.72476 66.5556C3.55825 66.1079 3.53154 65.6492 3.52211 65.1779C3.5064 64.405 3.54254 63.6353 3.63365 62.8671C3.64779 62.7461 3.66664 62.6251 3.68863 62.5058C3.80959 61.8271 3.90228 61.1422 4.06094 60.4745C4.29501 59.4896 4.57307 58.514 4.8417 57.5353C4.97051 57.0656 5.12918 56.6022 5.26114 56.1341C5.55333 55.0972 5.84709 54.0651 6.23825 53.0535C6.75823 51.7072 7.39132 50.4127 7.938 49.0806C8.27732 48.2527 8.68105 47.461 9.08792 46.6676C9.16176 46.5247 9.19475 46.3629 9.24816 46.2089C9.64403 45.0763 10.1499 43.9955 10.6824 42.921C11.0877 42.1041 11.3878 41.2354 11.7648 40.4028C12.1135 39.6361 12.3178 38.835 12.467 38.0118C12.5235 37.696 12.6477 37.3897 12.7592 37.085C13.1079 36.1298 13.2745 35.1291 13.5368 34.152C13.6578 33.7027 13.7206 33.2362 13.8588 32.7932C14.2877 31.4155 14.5469 29.9985 14.8752 28.5972C15.0339 27.9201 15.1203 27.2368 15.2397 26.5566C15.2743 26.3571 15.2884 26.1497 15.2743 25.9486C15.2256 25.2181 15.3622 24.4845 15.2193 23.7556C15.1957 23.6409 15.2271 23.5137 15.2397 23.3927C15.2601 23.1854 15.3292 23.0974 15.5256 23.0518C15.8461 22.978 16.1697 22.9529 16.4917 23.0471C16.6677 23.099 16.8499 23.1414 17.0117 23.2215C17.5332 23.476 18.0988 23.5325 18.6596 23.6174C19.3021 23.7148 19.9415 23.8404 20.5824 23.9535C20.7427 23.9818 20.9029 24.0227 21.0631 24.0305C21.9586 24.0698 22.8351 24.2363 23.7117 24.4123C23.8484 24.4405 23.9929 24.4233 24.1343 24.4311C24.2757 24.4374 24.4186 24.4374 24.5585 24.4594C24.7768 24.4939 24.992 24.5756 25.2104 24.5866C26.3258 24.64 27.4364 24.7751 28.558 24.75C29.2257 24.7343 29.8933 24.805 30.5625 24.8317C30.7228 24.838 30.8846 24.8191 31.0448 24.8223C31.4517 24.8286 31.857 24.8537 32.2623 24.8458C33.5018 24.8223 34.7412 24.7971 35.9791 24.7516C36.6295 24.728 37.2783 24.6558 37.9271 24.6071C38.1879 24.5866 38.4486 24.5552 38.711 24.5536C39.6268 24.5458 40.5301 24.395 41.4412 24.3149C42.1293 24.2536 42.8174 24.2033 43.4929 24.0494C44.0851 23.9143 44.6962 23.8232 45.2586 23.6079C45.9168 23.3566 46.6049 23.1602 47.2144 22.7895C47.4359 22.656 47.6559 22.5177 47.9261 22.3512L47.9245 22.3481Z" fill="#FFEDC6"/>
<path d="M29.4692 27.1818C28.7293 27.1818 27.9894 27.1834 27.2511 27.1818C26.5929 27.1787 25.9394 27.1457 25.2874 27.0137C24.7612 26.9069 24.2176 26.888 23.6898 26.7891C22.7472 26.6131 21.8031 26.4341 20.8731 26.1984C20.5448 26.1152 20.2227 26.0178 19.8866 25.9801C19.7876 25.9691 19.6918 25.9361 19.5959 25.9046C18.7791 25.6392 17.9606 25.3815 17.1484 25.0988C16.5201 24.8804 15.9482 24.5489 15.4503 24.0981C15.3513 24.0085 15.2696 23.875 15.2319 23.7462C15.1753 23.553 15.1455 23.3472 15.1392 23.1461C15.1314 22.9372 15.2099 22.7439 15.3733 22.6057C15.7833 22.2569 16.0975 21.8092 16.5499 21.4966C17.15 21.0819 17.7658 20.7221 18.4727 20.5352C18.7225 20.4692 18.9629 20.3703 19.2111 20.2964C19.5739 20.1896 19.9353 20.0655 20.3076 19.9979C21.2297 19.8314 22.1534 19.6492 23.0834 19.5581C23.7793 19.4905 24.4643 19.3711 25.1539 19.2769C25.8844 19.1763 26.6196 19.0962 27.3548 19.0334C28.3696 18.9454 29.386 18.8653 30.4039 18.8103C30.9192 18.7836 31.4439 18.7805 31.956 18.8449C32.2624 18.8842 32.5451 18.7742 32.8452 18.8135C33.1201 18.8496 33.4028 18.8292 33.6825 18.8339C33.9213 18.8386 34.16 18.8465 34.3972 18.8512C34.4962 18.8527 34.5936 18.8575 34.6926 18.8559C35.0115 18.8496 35.3288 18.8292 35.6461 18.8355C36.4457 18.8512 37.2453 18.8716 38.045 18.9014C39.0205 18.9376 39.9976 18.9784 40.9653 19.1214C41.9707 19.2706 42.9777 19.4167 43.9768 19.6036C44.4261 19.6869 44.8581 19.8628 45.2964 19.9995C45.4283 20.0404 45.5587 20.0906 45.6907 20.1346C46.2201 20.3106 46.7243 20.5352 47.1925 20.8462C47.5899 21.1102 47.8696 21.4621 48.0345 21.9098C48.0769 22.0244 48.0911 22.1501 48.1429 22.2585C48.5231 23.0456 48.1932 24.1845 47.2176 24.8317C46.6332 25.2197 45.9907 25.4271 45.3294 25.5748C44.3554 25.7915 43.3673 25.9455 42.387 26.1293C42.0728 26.1874 41.7586 26.255 41.446 26.3178C40.5647 26.4953 39.685 26.6744 38.7817 26.7121C38.323 26.731 37.8659 26.7938 37.4087 26.8488C36.95 26.9038 36.4929 26.9069 36.0326 26.8676C35.8975 26.8551 35.7561 26.8818 35.6194 26.9053C34.9895 27.0153 34.3595 27.0986 33.7186 27.0797C33.6196 27.0766 33.5112 27.0609 33.4201 27.0907C32.9316 27.2462 32.4289 27.2054 31.9293 27.2085C31.1093 27.2132 30.2893 27.2085 29.4692 27.2085C29.4692 27.1991 29.4692 27.1881 29.4692 27.1787V27.1818Z" fill="#FFE4AA"/>
<path d="M17.9241 28.382C18.1441 28.558 18.1928 28.7323 18.2352 28.9051C18.4206 29.678 18.5792 30.4588 18.5824 31.2553C18.5855 31.926 18.5274 32.5953 18.4975 33.266C18.4881 33.4891 18.4724 33.7138 18.4755 33.9368C18.4913 35.3004 18.463 36.6624 18.3813 38.026C18.2965 39.4508 18.1142 40.8599 17.8629 42.2596C17.6948 43.1975 17.4199 44.1165 17.1842 45.0417C17.0994 45.3764 16.9989 45.7078 16.8905 46.0361C16.7082 46.5938 16.5103 47.1452 16.3296 47.7029C16.2684 47.8946 16.2495 48.0988 16.2008 48.2936C15.9463 49.3178 15.6369 50.3311 15.4484 51.3663C15.2881 52.246 15.0902 53.1163 14.9378 53.9976C14.8451 54.538 14.7462 55.08 14.6268 55.6157C14.4775 56.2912 14.399 56.9761 14.3361 57.661C14.2607 58.4701 14.1932 59.2822 14.1932 60.096C14.1932 60.6254 14.1602 61.1532 14.179 61.681C14.1963 62.1476 14.2403 62.6157 14.3173 63.0745C14.5906 64.7192 14.9991 66.3357 15.4468 67.9396C15.7751 69.1147 16.1034 70.2897 16.4805 71.4507C16.6548 71.9895 16.9313 72.4953 17.1811 73.0075C17.4937 73.6468 17.8173 74.2799 18.1535 74.9083C18.3829 75.3356 18.6358 75.7519 18.884 76.1697C19.3364 76.9332 20.0433 77.4626 20.6497 78.0831C21.231 78.6785 21.9253 79.1608 22.4311 79.8332C22.8946 80.1615 23.2716 80.5998 23.7759 80.8794C24.3477 81.1951 24.8488 81.6162 25.3594 82.0199C26.0474 82.565 26.7748 83.0441 27.5995 83.3599C27.6938 83.396 27.7817 83.4494 27.8681 83.5044C28.176 83.6961 28.4557 83.9459 28.8484 83.9506C29.216 84.2223 29.6684 84.2836 30.0784 84.447C30.2167 84.502 30.3266 84.5789 30.3738 84.7297C30.4382 84.9355 30.3581 85.1178 30.1554 85.1507C29.8554 85.1994 29.5506 85.2277 29.2474 85.2576C28.905 85.2921 28.5625 85.3078 28.2295 85.4288C28.0708 85.4869 27.8697 85.4539 27.6922 85.4288C27.3702 85.3817 27.0528 85.3675 26.7261 85.3613C26.038 85.3487 25.3468 85.2811 24.6807 85.0675C24.4906 85.0062 24.2896 84.9701 24.09 84.9418C23.3046 84.835 22.516 84.7722 21.7399 84.5836C21.1053 84.4281 20.4926 84.2239 19.8957 83.9678C19.0364 83.5987 18.1865 83.2107 17.3319 82.8336C16.2103 82.3388 15.1844 81.6884 14.2544 80.8904C13.6544 80.3751 13.0307 79.8787 12.4793 79.3147C11.3702 78.1774 10.3318 76.9772 9.5715 75.5681C9.11593 74.7245 8.71692 73.8558 8.58496 72.8912C8.57082 72.7922 8.53155 72.6964 8.50641 72.599C8.45457 72.4026 8.37131 72.2079 8.35717 72.0083C8.30847 71.2543 8.07755 70.5348 7.9503 69.7965C7.80578 68.9576 7.62355 68.1234 7.4209 67.2971C7.14913 66.1865 7.03759 65.0617 7.04859 63.9212C7.05487 63.3117 7.07372 62.7021 7.10514 62.0926C7.17269 60.8107 7.3612 59.5509 7.76493 58.3224C8.23464 56.896 8.6478 55.4507 9.1018 54.018C9.28559 53.4384 9.52595 52.8775 9.7176 52.2994C10.0852 51.1951 10.6083 50.1614 11.1126 49.1167C11.4818 48.3501 11.7928 47.5552 12.1337 46.7745C12.4589 46.0299 12.7809 45.2821 13.1202 44.5438C13.6716 43.3451 14.1979 42.1402 14.5278 40.8552C14.7697 39.9095 15.0525 38.9748 15.3478 38.0448C15.5882 37.2908 15.8819 36.554 16.1427 35.8062C16.2495 35.4999 16.3202 35.1794 16.4333 34.8762C16.9486 33.4938 17.1183 32.7476 17.2816 31.2835C17.335 30.7997 17.4482 30.3221 17.5424 29.843C17.6178 29.4644 17.7011 29.0874 17.789 28.7103C17.811 28.6145 17.8644 28.5265 17.9257 28.382H17.9241Z" fill="#FFE4AA"/>
<path d="M34.3269 21.1981C33.7567 21.1981 33.188 21.1981 32.6177 21.1981C32.4135 21.1981 32.2077 21.2107 32.0066 21.184C31.8291 21.1604 31.6438 21.1133 31.4851 21.0332C31.24 20.9091 31.1992 20.6075 31.3971 20.4189C31.5118 20.309 31.6516 20.2084 31.7977 20.1535C32.0066 20.0765 32.2297 20.0089 32.4496 20.0042C33.0183 19.9901 33.5917 19.9807 34.1572 20.0278C35.2113 20.1173 36.2592 20.265 37.3117 20.3592C38.0594 20.4268 38.8056 20.5101 39.5612 20.4849C39.8629 20.4755 40.1692 20.5399 40.4692 20.5917C41.3694 20.7473 42.268 20.9106 43.1665 21.0787C43.4886 21.1384 43.7886 21.2641 44.062 21.4495C44.3322 21.6317 44.4814 21.8956 44.5144 22.2114C44.5725 22.7581 44.4264 23.2105 43.9096 23.4995C43.2812 23.8514 42.5994 24.0525 41.9161 24.252C41.3081 24.4295 40.6845 24.5191 40.0608 24.6149C39.1764 24.75 38.2935 24.9118 37.4059 25.0202C36.4367 25.138 35.4831 25.3799 34.5029 25.3941C33.9734 25.4019 33.444 25.3941 32.9146 25.3752C32.4795 25.3595 32.0726 25.2197 31.7082 24.9841C31.427 24.8034 31.3767 24.5081 31.5699 24.2457C31.6375 24.1546 31.7522 24.0792 31.8621 24.0462C32.0553 23.9881 32.258 23.9598 32.4591 23.9331C32.6005 23.9143 32.7434 23.9064 32.8864 23.908C34.2327 23.9284 35.5679 23.7745 36.9048 23.6456C37.4106 23.5969 37.9149 23.5215 38.4176 23.4414C38.9203 23.3613 39.4167 23.2545 39.9179 23.1649C40.1503 23.1241 40.331 23.0016 40.4834 22.8303C40.6515 22.6402 40.6468 22.4015 40.4551 22.2381C40.1519 21.9804 39.7828 21.8312 39.3979 21.8139C38.7412 21.7841 38.1129 21.6333 37.4829 21.473C36.6283 21.2547 35.7502 21.2515 34.8752 21.2248C34.6914 21.2185 34.5091 21.2248 34.3253 21.2248C34.3253 21.217 34.3253 21.2075 34.3253 21.1997L34.3269 21.1981Z" fill="#FFEDC6"/>
<path d="M70.0791 41.2055C70.1137 41.5794 70.1781 41.9611 70.1797 42.3444C70.1844 43.1173 70.1954 43.8934 70.1357 44.6631C70.0226 46.121 69.7854 47.5615 69.3031 48.9471C69.1916 49.2675 69.0156 49.5723 68.8302 49.8598C68.4579 50.4332 68.0212 50.9689 67.6788 51.5595C67.2782 52.2523 66.7566 52.8414 66.2461 53.4446C66.1628 53.542 66.0984 53.6551 66.0309 53.7635C65.5439 54.5521 65.1574 55.3926 64.8542 56.2645C64.7285 56.6242 64.6783 57.0201 64.661 57.4034C64.639 57.9375 64.3719 58.3805 64.207 58.8628C64.1803 58.9413 64.1206 59.012 64.0656 59.078C63.874 59.3121 63.5331 59.3105 63.3398 59.0733C63.1105 58.7921 63.0304 58.4528 63.0398 58.1072C63.0555 57.4851 63.0964 56.863 63.1466 56.2425C63.1623 56.054 63.233 55.8654 63.2959 55.6848C63.4577 55.2182 63.6116 54.7469 63.8033 54.2929C63.9195 54.0196 64.0766 53.7557 64.2557 53.5185C64.8385 52.7471 65.426 51.979 66.0937 51.2768C66.2696 51.0914 66.3937 50.8573 66.5493 50.6515C66.7032 50.4457 66.8493 50.2289 67.0284 50.0452C67.6473 49.4074 68.1045 48.6533 68.5789 47.9118C69.1429 47.0337 69.278 46.0314 69.4115 45.0292C69.4398 44.8171 69.4429 44.6003 69.4728 44.3882C69.6016 43.4881 69.5246 42.5879 69.4916 41.6862C69.4885 41.6014 69.4618 41.5166 69.4586 41.4302C69.4508 41.1662 69.5733 41.0673 69.8702 41.1003C69.9095 41.105 69.9456 41.1364 70.0791 41.204V41.2055Z" fill="#EFEFEF"/>
<path d="M54.1423 26.7781C53.5249 26.7027 52.9076 26.6383 52.2933 26.544C52.108 26.5157 51.9257 26.4231 51.7592 26.3319C51.4859 26.1811 51.4026 25.9031 51.3901 25.6203C51.3759 25.2951 51.7325 25.0563 52.0766 25.138C52.3059 25.193 52.5306 25.2653 52.7568 25.3328C53.0678 25.4271 53.3804 25.4742 53.7072 25.4208C53.8753 25.3925 54.0512 25.3674 54.2193 25.3847C54.8665 25.4554 55.4933 25.3297 56.1296 25.2464C56.3668 25.215 56.5757 25.1208 56.8051 25.0878C57.4601 24.9919 58.1168 24.8993 58.7719 24.8066C58.8567 24.794 58.9462 24.8003 59.0248 24.7736C59.6092 24.5725 60.214 24.6306 60.8125 24.6196C61.0261 24.6165 61.2414 24.6369 61.4534 24.6243C62.0284 24.5913 62.5547 24.7783 63.0825 24.9605C63.2427 25.0155 63.3181 25.1475 63.3668 25.2904C63.4721 25.6015 63.3637 25.8874 63.2145 26.1497C63.139 26.2848 62.9804 26.3524 62.8217 26.3115C62.5939 26.2518 62.3646 26.1858 62.1509 26.0884C61.8697 25.9612 61.5838 25.9109 61.2775 25.9094C60.8282 25.9078 60.3789 25.8669 59.9296 25.8559C59.2133 25.8387 58.5268 26.0397 57.8293 26.1529C56.9386 26.2958 56.0557 26.478 55.1666 26.6288C54.832 26.6854 54.4895 26.7011 54.1502 26.7357L54.1439 26.7749L54.1423 26.7781Z" fill="#EFEFEF"/>
<path d="M11.268 7.09903C11.3906 7.13202 11.4754 7.14459 11.5524 7.17758C11.6875 7.2357 11.7142 7.48862 11.5854 7.5546C11.4157 7.641 11.235 7.73526 11.0512 7.75568C10.3805 7.8248 9.75366 8.02431 9.15042 8.31964C8.84252 8.47045 8.51891 8.58984 8.21257 8.74379C7.96437 8.8679 7.73344 9.02185 7.49152 9.15695C7.37998 9.21979 7.2653 9.27634 7.14748 9.32504C7.11606 9.33761 7.04851 9.32504 7.03123 9.30147C6.99824 9.25435 6.96683 9.18523 6.97782 9.13338C7.01553 8.92916 7.16162 8.79092 7.32343 8.68724C7.59363 8.51287 7.8654 8.33378 8.15916 8.20654C8.84723 7.90649 9.54158 7.62215 10.2438 7.36138C10.5815 7.2357 10.9444 7.18072 11.2665 7.1006L11.268 7.09903Z" fill="#EFEFEF"/>
</g>
<defs>
<clipPath id="clip0_236_172108">
<rect width="71.1035" height="92" fill="white" transform="translate(0.438477)"/>
</clipPath>
</defs>
</svg>
