<svg width="118" height="92" viewBox="0 0 118 92" fill="none" xmlns="http://www.w3.org/2000/svg">
<g clip-path="url(#clip0_232_171790)">
<path d="M75.8417 0.136823C75.8417 0.136823 76.0606 0.0273647 76.1701 0C76.3069 0 76.4437 0 76.6079 0C76.7447 0 76.9089 0.0273647 77.0457 0.0547293C77.1826 0.082094 77.3194 0.109459 77.4288 0.136823C77.593 0.164188 77.7572 0.191553 77.9214 0.218917C78.0856 0.218917 78.2498 0.246282 78.414 0.273647C78.5782 0.273647 78.7423 0.273647 78.9065 0.301011C79.0707 0.301011 79.2349 0.301011 79.3991 0.301011C80.5484 0.301011 81.7251 0.355741 82.9018 0.383105C84.0785 0.41047 85.2278 0.465199 86.4045 0.547293C87.5538 0.629387 88.7031 0.711481 89.8524 0.848305C91.0017 0.985128 92.151 1.14932 93.273 1.34087C93.8476 1.45033 94.3949 1.55979 94.9696 1.69661C95.5443 1.83343 96.1189 1.97026 96.6662 2.13444C97.2409 2.29863 97.7882 2.46282 98.3628 2.65437C98.9101 2.84593 99.4848 3.03748 100.032 3.2564C100.607 3.47531 101.154 3.72159 101.701 3.96788C102.249 4.21416 102.796 4.4878 103.343 4.76145C103.89 5.0351 104.438 5.30874 104.958 5.58239C105.505 5.85604 106.052 6.12968 106.572 6.37597C106.654 6.40333 106.873 6.54015 107.147 6.70434C107.448 6.86853 107.804 7.06008 108.159 7.25164C108.515 7.44319 108.871 7.60738 109.144 7.71684C109.418 7.82629 109.61 7.88102 109.664 7.82629C109.664 7.82629 105.587 12.4236 99.2932 19.5384C92.9993 26.6532 84.4889 36.2582 75.6501 46.2463C65.9904 57.1374 55.8929 68.5758 48.2034 77.2504C40.5139 85.9524 35.2325 91.9179 35.2325 91.9179L26.7768 90.0297L18.3212 88.1416L9.45502 86.1713L0.588867 84.2011C0.588867 84.2011 5.89761 78.2629 13.6418 69.6157C21.386 60.9685 31.5657 49.5848 41.3075 38.6936C50.2831 28.6508 58.903 19.0184 65.3063 11.8763C71.6823 4.78882 75.8417 0.136823 75.8417 0.136823Z" fill="#FFDC61"/>
<path d="M116.56 48.7638L115.192 56.4259L113.823 64.088L112.428 71.9691L111.032 79.8501L108.597 80.2332L106.161 80.6163L103.671 81.0268L101.181 81.4372C101.181 81.4372 101.181 81.3825 101.181 81.3551C101.181 81.3551 101.181 81.3004 101.181 81.2731C101.181 81.2731 101.181 81.2183 101.181 81.191C101.181 81.191 101.181 81.1362 101.181 81.1089C101.181 81.0815 101.181 81.0268 101.181 80.9994C101.181 80.972 101.181 80.9173 101.181 80.8899C101.181 80.8626 101.181 80.8079 101.181 80.7805C101.181 80.7531 101.181 80.6984 101.181 80.671C101.181 80.671 101.181 80.6163 101.181 80.5889C101.181 80.5889 101.181 80.5342 101.181 80.5068C101.181 80.5068 101.181 80.4521 101.181 80.4247C101.181 80.4247 101.181 80.37 101.181 80.3427C101.181 80.3153 101.181 80.2879 101.181 80.2606C101.181 80.2332 101.181 80.2058 101.181 80.1785C101.181 80.1511 101.181 80.1237 101.181 80.0964C101.181 80.069 101.181 80.0416 101.181 80.0143C101.181 80.0143 101.181 79.9595 101.181 79.9322C101.181 79.9322 101.181 79.8775 101.181 79.8501C101.181 79.8227 101.181 79.7954 101.181 79.768C101.181 79.7406 101.181 79.7133 101.181 79.6859C101.181 79.6312 101.154 79.5491 101.126 79.4943C101.126 79.4396 101.099 79.3575 101.071 79.3028C101.071 79.2481 101.044 79.166 101.017 79.1112C101.017 79.0565 100.989 79.0018 100.962 78.9197C100.962 78.9197 100.962 78.865 100.962 78.8376C100.962 78.8376 100.962 78.7829 100.962 78.7555C100.962 78.7555 100.962 78.7008 100.935 78.6734C100.935 78.6734 100.935 78.6187 100.907 78.5913C100.907 78.5639 100.907 78.5366 100.88 78.5092C100.88 78.5092 100.88 78.4545 100.853 78.4271C100.853 78.3998 100.853 78.3724 100.825 78.345C100.825 78.345 100.825 78.2903 100.798 78.2629C100.798 78.2629 100.798 78.2082 100.77 78.1808C100.77 78.1808 100.77 78.1261 100.743 78.0988C100.743 78.0988 100.743 78.044 100.716 78.0167C100.716 78.0167 100.716 77.9619 100.688 77.9346C100.606 77.743 100.497 77.5788 100.387 77.4146C100.278 77.2505 100.168 77.1136 100.032 76.9494C99.9221 76.8126 99.7853 76.6758 99.6485 76.539C99.5116 76.4021 99.3748 76.2927 99.238 76.1832C99.0738 76.0464 98.8823 75.9369 98.7181 75.8275C98.5265 75.718 98.335 75.6359 98.1434 75.5538C97.9519 75.4717 97.7329 75.417 97.5414 75.3896C97.3225 75.3623 97.1309 75.3349 96.912 75.3076C96.2826 75.3076 95.6532 75.417 95.1059 75.6907C94.5586 75.9643 94.0387 76.3748 93.6009 76.8673C93.163 77.3599 92.8073 77.9893 92.561 78.646C92.3147 79.3302 92.1779 80.069 92.1505 80.8626C92.1505 81.0268 92.1505 81.191 92.1505 81.3551C92.1505 81.5193 92.1505 81.6835 92.2053 81.8477C92.2053 82.0119 92.26 82.1761 92.2874 82.3129C92.3147 82.4771 92.3421 82.6139 92.3968 82.7781L85.583 83.8727L78.7692 84.9673L71.5997 86.1166L64.4301 87.2659C64.4301 87.2659 64.4301 87.1838 64.4028 87.1565C64.4028 87.1291 64.4028 87.0744 64.3754 87.047C64.3754 87.0196 64.3754 86.9649 64.348 86.9375C64.348 86.9102 64.3207 86.8554 64.2933 86.8281C64.2933 86.8281 64.2933 86.8007 64.2933 86.7733C64.2933 86.7733 64.2933 86.746 64.2933 86.7186C64.2933 86.7186 64.2933 86.6913 64.2933 86.6639C64.2933 86.6639 64.2933 86.6365 64.2933 86.6092C64.2933 86.6092 64.2933 86.6092 64.2933 86.5544C64.2933 86.5544 64.2933 86.5271 64.2933 86.4997C64.2933 86.4997 64.2933 86.4723 64.2933 86.445C64.2933 86.445 64.2933 86.4176 64.2933 86.3902C64.2933 86.3629 64.266 86.3082 64.2386 86.2808C64.2386 86.2534 64.2112 86.1987 64.1839 86.1713C64.1839 86.144 64.1291 86.0892 64.1291 86.0619C64.1291 86.0345 64.0744 85.9798 64.0744 85.9524C64.0744 85.9524 64.047 85.925 64.0197 85.8977C64.0197 85.8977 63.9923 85.8703 63.9649 85.8429C63.9649 85.8429 63.9376 85.7882 63.9102 85.7882C63.9102 85.7882 63.8829 85.7335 63.8555 85.7335C63.8555 85.7335 63.8281 85.7061 63.8008 85.6788C63.8008 85.6788 63.7734 85.6514 63.746 85.624C63.746 85.624 63.7187 85.5967 63.6913 85.5693C63.6913 85.5693 63.6639 85.5419 63.6366 85.5146C63.6366 85.5146 63.6366 85.4872 63.6092 85.4598C63.6092 85.4598 63.6092 85.4325 63.5818 85.4051C63.5818 85.4051 63.5818 85.3778 63.5545 85.3504C63.5545 85.3504 63.5545 85.323 63.5271 85.2957C63.5271 85.2957 63.4997 85.2683 63.4724 85.2409C63.4724 85.2409 63.445 85.2136 63.4176 85.1862C63.4176 85.1862 63.3903 85.1588 63.3629 85.1315C63.3629 85.1315 63.3356 85.1041 63.3082 85.0767C63.2808 85.0494 63.2261 85.022 63.1987 84.9673C63.1714 84.9399 63.1166 84.9126 63.0893 84.8852C63.0619 84.8578 63.0072 84.8305 62.9798 84.8031C62.9524 84.7757 62.8977 84.7484 62.8704 84.721C62.7062 84.6115 62.542 84.5021 62.3778 84.42C62.2136 84.3379 62.022 84.2558 61.8579 84.2011C61.6663 84.1463 61.5021 84.0916 61.3106 84.0642C61.119 84.0369 60.9275 84.0095 60.7359 84.0095C60.1613 84.0095 59.614 84.119 59.094 84.3379C58.5741 84.5568 58.1089 84.8852 57.7258 85.2957C57.3153 85.7061 56.987 86.1987 56.7133 86.7733C56.467 87.3206 56.2755 87.95 56.2207 88.6068L51.1856 89.4277L46.1505 90.2213L40.9239 91.0696L35.7246 91.8905L55.9471 69.0684L76.1696 46.2463L93.1904 27.0363L110.211 7.82629C111.935 10.9185 113.386 14.1202 114.535 17.4587C115.684 20.7698 116.56 24.1904 117.162 27.6383C117.737 31.1136 118.038 34.6163 118.038 38.1463C118.038 41.6764 117.737 45.2064 117.107 48.6817L116.56 48.7638Z" fill="#FEE17A"/>
<path d="M109.664 7.88101C109.664 7.88101 109.418 7.88101 109.144 7.77155C108.871 7.66209 108.515 7.47054 108.159 7.30635C107.804 7.1148 107.448 6.92325 107.147 6.75906C106.846 6.59487 106.627 6.48541 106.572 6.43068C106.025 6.1844 105.478 5.91076 104.93 5.63711C104.383 5.36346 103.836 5.08982 103.316 4.81617C102.768 4.54252 102.221 4.26888 101.674 4.02259C101.127 3.77631 100.579 3.53003 100.005 3.31111C99.4574 3.0922 98.9101 2.90064 98.3354 2.70909C97.7881 2.51754 97.2135 2.35335 96.6388 2.18916C96.0641 2.02497 95.4895 1.88815 94.9422 1.75133C94.3675 1.6145 93.7929 1.50505 93.2456 1.39559C92.1236 1.17667 90.9743 1.01248 89.825 0.903023C88.6757 0.766199 87.5264 0.684105 86.3771 0.602011C85.2277 0.519917 84.0511 0.465188 82.8744 0.437823C81.6977 0.410459 80.5484 0.383094 79.3717 0.355729C79.2075 0.355729 79.0433 0.355729 78.8791 0.355729C78.7149 0.355729 78.5508 0.355729 78.3866 0.328365C78.2224 0.328365 78.0582 0.301 77.894 0.273635C77.7298 0.273635 77.5656 0.218906 77.4014 0.191541C77.292 0.191541 77.1552 0.136812 77.0183 0.109447C76.8815 0.109447 76.7173 0.054718 76.5805 0.054718C76.4437 0.054718 76.2795 0.054718 76.1427 0.054718C76.0058 0.054718 75.8964 0.109447 75.8143 0.191541C75.8143 0.191541 75.8143 0.191541 75.7322 0.273635C75.6775 0.328365 75.6227 0.410459 75.5406 0.492553C75.4585 0.602011 75.3491 0.71147 75.2123 0.875658C75.0754 1.01248 74.9386 1.20403 74.7471 1.39559C74.8839 1.39559 75.0207 1.42295 75.1575 1.45032C75.2944 1.45032 75.4312 1.47768 75.568 1.47768C75.7048 1.47768 75.8417 1.47768 75.9785 1.47768C76.1153 1.47768 76.2521 1.47768 76.389 1.47768C77.5656 1.47768 78.7423 1.53241 79.919 1.55977C81.0957 1.58714 82.2724 1.64187 83.449 1.72396C84.6257 1.80606 85.775 1.88815 86.9243 2.02497C88.0737 2.1618 89.223 2.32599 90.3723 2.51754C90.947 2.627 91.5216 2.73645 92.0963 2.87328C92.6709 3.0101 93.2456 3.14693 93.8202 3.31111C94.3949 3.4753 94.9696 3.63949 95.5168 3.83104C96.0915 4.02259 96.6388 4.21415 97.2135 4.43306C97.7881 4.65198 98.3354 4.89826 98.9101 5.17191C99.4574 5.41819 100.032 5.69184 100.579 5.96549C101.127 6.23913 101.674 6.51278 102.221 6.78643C102.768 7.06007 103.316 7.33372 103.863 7.58C103.945 7.60737 104.164 7.74419 104.465 7.90838C104.766 8.07257 105.122 8.26412 105.478 8.45567C105.833 8.64722 106.189 8.81141 106.49 8.92087C106.764 9.03033 106.983 9.08506 107.01 9.03033C108.734 12.1225 110.184 15.3789 111.361 18.7174C112.538 22.0559 113.413 25.4765 113.988 28.9518C114.59 32.4271 114.864 35.9845 114.864 39.5419C114.864 43.0993 114.535 46.6567 113.906 50.1594L112.565 57.6026L111.224 65.0458L109.856 72.6805L108.488 80.3153L109.117 80.2058L109.746 80.0964L110.376 79.9869L111.005 79.8774L112.401 71.9964L113.796 64.1154L115.165 56.4533L116.533 48.7912C117.162 45.3159 117.463 41.7858 117.463 38.2558C117.463 34.7257 117.162 31.1957 116.588 27.7478C116.013 24.2998 115.137 20.8792 113.961 17.5681C112.811 14.257 111.361 11.0279 109.637 7.93574L109.664 7.88101Z" fill="#F9BE5F"/>
<path d="M74.4734 71.887C74.4734 72.5437 74.3366 73.1731 74.0903 73.7478C73.8714 74.3224 73.543 74.815 73.1599 75.2528C72.7768 75.6907 72.3116 76.019 71.819 76.2653C71.3265 76.4842 70.7792 76.6211 70.2045 76.5937C69.6299 76.5937 69.0826 76.4295 68.59 76.1559C68.0974 75.9096 67.6596 75.5265 67.2765 75.0886C66.9208 74.6234 66.6198 74.1035 66.4282 73.5015C66.2366 72.8995 66.1272 72.2701 66.1546 71.586C66.1546 70.9292 66.3187 70.2724 66.5377 69.6978C66.7566 69.1231 67.085 68.6032 67.4954 68.1927C67.8785 67.7823 68.3437 67.4265 68.8637 67.2076C69.3562 66.9887 69.9309 66.8792 70.5055 66.9066C71.0802 66.9066 71.6275 67.0982 72.0927 67.3444C72.5852 67.6181 73.0231 67.9738 73.3788 68.4117C73.7346 68.8495 74.0356 69.3968 74.2271 69.9714C74.4187 70.5461 74.5281 71.1755 74.5008 71.8596L74.4734 71.887Z" fill="#FFB748"/>
<path d="M72.5579 67.7002C72.6948 67.9191 72.8316 68.138 72.941 68.3843C73.0505 68.6306 73.16 68.8769 73.242 69.1505C73.3241 69.4242 73.3789 69.6978 73.4062 69.9715C73.4336 70.2451 73.461 70.5461 73.461 70.8471C73.461 71.5039 73.3241 72.1333 73.0779 72.7079C72.8589 73.2826 72.5306 73.7752 72.1475 74.213C71.7644 74.6508 71.2992 74.9792 70.8066 75.1981C70.314 75.417 69.7394 75.5539 69.1647 75.5265C68.9732 75.5265 68.7816 75.4991 68.5901 75.4718C68.3985 75.4444 68.2343 75.3897 68.0428 75.3349C67.8786 75.2802 67.687 75.1981 67.5228 75.116C67.3586 75.0339 67.1945 74.9245 67.0303 74.815C67.2218 75.0887 67.4134 75.3349 67.6597 75.5539C67.8786 75.7728 68.1522 75.9643 68.3985 76.1285C68.6722 76.2927 68.9458 76.4022 69.2468 76.4843C69.5478 76.5663 69.8488 76.6211 70.1772 76.6211C70.7519 76.6211 71.2992 76.5116 71.7917 76.2927C72.2843 76.0738 72.7495 75.718 73.1326 75.2802C73.5157 74.8697 73.8441 74.3498 74.063 73.7751C74.2819 73.2005 74.4187 72.5711 74.4461 71.9144C74.4461 71.4765 74.4187 71.0387 74.3366 70.6282C74.2545 70.2177 74.1177 69.8346 73.9535 69.4789C73.7893 69.1232 73.5704 68.7948 73.3515 68.4938C73.1052 68.1928 72.8316 67.9465 72.5306 67.7002H72.5579Z" fill="#FFCC7B"/>
<path d="M104.766 33.9322C104.766 34.5342 104.657 35.1089 104.465 35.6014C104.274 36.094 104 36.5592 103.672 36.9149C103.343 37.2707 102.933 37.5717 102.495 37.7359C102.057 37.9274 101.565 37.9822 101.072 37.9548C100.552 37.9001 100.087 37.7359 99.6492 37.4622C99.2113 37.1886 98.8282 36.8329 98.4725 36.395C98.1441 35.9572 97.8705 35.4646 97.7063 34.9173C97.5147 34.37 97.4326 33.768 97.4326 33.166C97.4326 32.564 97.5421 31.9893 97.7336 31.4694C97.9252 30.9494 98.1988 30.5116 98.5546 30.1559C98.8829 29.8001 99.2934 29.5265 99.7312 29.3349C100.169 29.1707 100.662 29.0887 101.154 29.1434C101.647 29.1981 102.139 29.3623 102.577 29.6359C103.015 29.9096 103.398 30.2653 103.726 30.7032C104.055 31.141 104.301 31.6336 104.493 32.1809C104.684 32.7282 104.766 33.3028 104.766 33.9048V33.9322Z" fill="#FFB748"/>
<path d="M103.014 29.9917C103.151 30.1832 103.261 30.4021 103.37 30.6484C103.48 30.8673 103.562 31.1136 103.644 31.3599C103.726 31.6062 103.781 31.8525 103.808 32.1261C103.835 32.3724 103.863 32.646 103.863 32.9197C103.863 33.5217 103.753 34.0964 103.562 34.5889C103.37 35.0815 103.096 35.5467 102.768 35.9024C102.44 36.2582 102.029 36.5592 101.591 36.7234C101.154 36.9149 100.661 36.9697 100.168 36.9423C100.004 36.9423 99.8401 36.8876 99.6759 36.8602C99.5117 36.8055 99.3475 36.7507 99.1833 36.696C99.0191 36.6413 98.8823 36.5592 98.7181 36.4497C98.5813 36.3676 98.4171 36.2582 98.2803 36.1487C98.4445 36.395 98.636 36.6413 98.8276 36.8602C99.0465 37.0791 99.2654 37.2707 99.4843 37.4075C99.7306 37.5717 99.9769 37.6811 100.223 37.7906C100.497 37.9001 100.77 37.9548 101.044 37.9822C101.564 38.0369 102.029 37.9548 102.467 37.7632C102.905 37.5717 103.315 37.298 103.644 36.9423C103.972 36.5866 104.246 36.1214 104.437 35.6288C104.629 35.1362 104.738 34.5616 104.738 33.9595C104.738 33.5491 104.711 33.166 104.629 32.7829C104.547 32.3998 104.437 32.044 104.273 31.7156C104.109 31.3873 103.945 31.0589 103.726 30.7852C103.507 30.5116 103.261 30.238 103.014 30.019V29.9917Z" fill="#FFCC7B"/>
<path d="M93.1091 52.5949C93.1091 53.3885 92.9449 54.1547 92.6987 54.8388C92.4524 55.5229 92.0693 56.1249 91.6314 56.6175C91.1662 57.1101 90.6463 57.5205 90.0443 57.7942C89.4423 58.0678 88.7855 58.1773 88.1014 58.1499C87.4173 58.1225 86.7605 57.9036 86.1585 57.5753C85.5565 57.2469 85.0366 56.7817 84.5987 56.207C84.1609 55.6324 83.8051 54.9756 83.5589 54.2641C83.3126 53.5526 83.2031 52.7591 83.2031 51.9381C83.2031 51.1172 83.3673 50.351 83.641 49.6669C83.9146 48.9827 84.2977 48.3807 84.7629 47.8882C85.2281 47.3956 85.7754 47.0125 86.3774 46.7662C86.9794 46.5199 87.6362 46.4105 88.3203 46.4652C89.0044 46.5199 89.6338 46.7388 90.2358 47.0672C90.8379 47.3956 91.3304 47.8608 91.7683 48.4355C92.2061 48.9827 92.5618 49.6395 92.7808 50.351C93.027 51.0625 93.1365 51.8287 93.1365 52.6496L93.1091 52.5949Z" fill="#FFB748"/>
<path d="M90.7833 47.423C90.9474 47.6966 91.1116 47.9702 91.2485 48.2713C91.3853 48.5723 91.4947 48.8733 91.6042 49.2017C91.6863 49.53 91.7684 49.8584 91.8231 50.2142C91.8778 50.5699 91.9052 50.9256 91.8778 51.2814C91.8778 52.0749 91.7137 52.8412 91.4674 53.5253C91.2211 54.2094 90.838 54.8114 90.4001 55.304C89.9349 55.7965 89.415 56.207 88.813 56.4533C88.211 56.7269 87.5542 56.8364 86.8701 56.809C86.6512 56.809 86.4049 56.7543 86.186 56.6996C85.9671 56.6448 85.7482 56.5901 85.5292 56.508C85.3103 56.4259 85.1188 56.3165 84.8999 56.207C84.7083 56.0976 84.5167 55.9607 84.3252 55.8239C84.5441 56.1523 84.7904 56.4533 85.0914 56.7269C85.365 57.0006 85.6661 57.2469 85.9944 57.4384C86.3228 57.63 86.6512 57.7942 87.0069 57.9036C87.3627 58.0131 87.7184 58.0952 88.1015 58.1225C88.7856 58.1499 89.4424 58.0404 90.0444 57.7668C90.6464 57.4932 91.1664 57.11 91.6316 56.5901C92.0694 56.0976 92.4525 55.4682 92.6988 54.8114C92.9451 54.1273 93.1093 53.3611 93.1093 52.5675C93.1093 52.0476 93.0545 51.5277 92.9451 51.0077C92.8356 50.5152 92.6714 50.05 92.4799 49.5848C92.2883 49.1469 92.0147 48.7365 91.741 48.3534C91.44 47.9702 91.139 47.6419 90.7833 47.3682V47.423Z" fill="#FFCC7B"/>
<path d="M90.8098 75.1981C90.8098 75.6086 90.7277 75.9643 90.5909 76.32C90.454 76.6758 90.2899 76.9768 90.0709 77.2231C89.852 77.4694 89.5784 77.6883 89.3047 77.8251C89.0037 77.9619 88.7027 78.044 88.347 78.044C88.0186 78.044 87.6902 77.9346 87.4166 77.7977C87.1156 77.6335 86.8693 77.4146 86.6504 77.141C86.4314 76.8673 86.2673 76.539 86.1304 76.2106C86.021 75.8548 85.9389 75.4717 85.9662 75.0613C85.9662 74.6508 86.0483 74.2677 86.1852 73.9393C86.322 73.5836 86.4862 73.2826 86.7324 73.0363C86.9514 72.79 87.225 72.5711 87.526 72.4343C87.827 72.2974 88.128 72.2153 88.4838 72.2427C88.8122 72.2427 89.1405 72.3522 89.4142 72.489C89.6878 72.6532 89.9615 72.8721 90.1804 73.1457C90.3993 73.4194 90.5635 73.7204 90.673 74.0761C90.7824 74.4319 90.8371 74.815 90.8371 75.1981H90.8098Z" fill="#FFB748"/>
<path d="M89.6606 72.6532C89.6606 72.6532 89.8248 72.9268 89.9069 73.0637C89.989 73.2005 90.0437 73.3647 90.0711 73.5289C90.1258 73.693 90.1532 73.8572 90.1805 74.0214C90.1805 74.1856 90.2079 74.3772 90.2079 74.5413C90.2079 74.9518 90.1258 75.3076 89.989 75.6633C89.8522 76.019 89.688 76.3201 89.4691 76.5663C89.2501 76.8126 88.9765 77.0315 88.7028 77.1684C88.4018 77.3052 88.1008 77.3873 87.7451 77.3599C87.6356 77.3599 87.5262 77.3599 87.4167 77.3325C87.3072 77.3325 87.1978 77.2778 87.0883 77.2504C86.9789 77.2231 86.8968 77.1684 86.7873 77.1136C86.6779 77.0589 86.5958 77.0042 86.5137 76.9221C86.6231 77.0863 86.7326 77.2231 86.8694 77.3599C87.0062 77.4967 87.1431 77.6062 87.3072 77.6883C87.4714 77.7704 87.6356 77.8525 87.7998 77.9072C87.964 77.9619 88.1556 77.9893 88.3471 77.9893C88.6755 77.9893 89.0039 77.9346 89.3049 77.7704C89.6059 77.6336 89.8522 77.4146 90.0711 77.1684C90.29 76.9221 90.4815 76.5937 90.591 76.2653C90.7278 75.9369 90.7826 75.5538 90.8099 75.1434C90.8099 74.8697 90.8099 74.6234 90.7278 74.3772C90.6731 74.1309 90.591 73.912 90.5089 73.693C90.3995 73.4741 90.29 73.2826 90.1532 73.091C90.0163 72.8995 89.8522 72.7626 89.688 72.6258L89.6606 72.6532Z" fill="#FFCC7B"/>
<path d="M104.383 65.0458C104.383 65.7847 104.246 66.4961 104.027 67.1255C103.808 67.7549 103.48 68.3296 103.069 68.7948C102.659 69.26 102.194 69.6431 101.646 69.9167C101.126 70.163 100.524 70.2998 99.895 70.2725C99.2656 70.2725 98.691 70.0809 98.1437 69.7799C97.5964 69.4789 97.1312 69.0684 96.7207 68.5485C96.3102 68.0286 95.9819 67.4265 95.7629 66.7698C95.544 66.113 95.4346 65.3742 95.4346 64.6353C95.4346 63.8691 95.5714 63.1576 95.8177 62.5283C96.064 61.8989 96.3923 61.3242 96.8028 60.859C97.2133 60.3938 97.7058 60.0107 98.2531 59.7644C98.8004 59.5181 99.3751 59.4087 100.004 59.4361C100.606 59.4634 101.209 59.655 101.728 59.956C102.248 60.257 102.714 60.6675 103.124 61.1874C103.507 61.7073 103.836 62.282 104.054 62.9387C104.273 63.5955 104.383 64.307 104.383 65.0458Z" fill="#FFB748"/>
<path d="M102.249 60.3117C102.413 60.558 102.55 60.8043 102.686 61.0779C102.823 61.3516 102.933 61.6252 103.015 61.9262C103.097 62.2272 103.179 62.5283 103.206 62.8566C103.261 63.185 103.261 63.5134 103.261 63.8418C103.261 64.5806 103.124 65.2921 102.905 65.9215C102.686 66.5509 102.358 67.1255 101.947 67.5907C101.537 68.0559 101.044 68.439 100.525 68.6853C99.9772 68.9316 99.4026 69.0684 98.7732 69.041C98.5543 69.041 98.3627 69.0137 98.1712 68.959C97.9796 68.9042 97.7607 68.8495 97.5965 68.7948C97.405 68.7127 97.2134 68.6306 97.0492 68.5211C96.8577 68.4117 96.6935 68.3022 96.5293 68.1654C96.7208 68.4664 96.9671 68.74 97.2134 68.9863C97.4597 69.2326 97.7333 69.4515 98.0344 69.6157C98.3354 69.7799 98.6364 69.9441 98.9374 70.0262C99.2658 70.1356 99.5941 70.1904 99.9225 70.1904C100.552 70.1904 101.127 70.0809 101.674 69.8346C102.221 69.5883 102.686 69.2052 103.097 68.7127C103.507 68.2475 103.836 67.6728 104.055 67.0434C104.273 66.414 104.41 65.7026 104.41 64.9637C104.41 64.4711 104.356 63.9786 104.273 63.5407C104.164 63.0755 104.027 62.6377 103.836 62.2546C103.644 61.8441 103.425 61.461 103.152 61.1327C102.878 60.8043 102.604 60.5033 102.276 60.257L102.249 60.3117Z" fill="#FFCC7B"/>
<path d="M105.505 51.2267C105.505 51.6098 105.422 51.9655 105.313 52.2939C105.203 52.6223 105.012 52.8959 104.82 53.1422C104.601 53.3885 104.355 53.58 104.082 53.6895C103.808 53.8263 103.507 53.881 103.179 53.8537C102.85 53.8537 102.549 53.7442 102.275 53.58C102.002 53.4158 101.756 53.1969 101.537 52.9233C101.318 52.6496 101.154 52.3486 101.044 51.9929C100.935 51.6371 100.88 51.2814 100.88 50.8983C100.88 50.5152 100.962 50.1594 101.071 49.8311C101.181 49.5027 101.372 49.2017 101.564 48.9828C101.783 48.7365 102.029 48.5723 102.303 48.4355C102.576 48.326 102.877 48.2713 103.206 48.2713C103.534 48.2713 103.835 48.4081 104.109 48.5449C104.383 48.6817 104.629 48.928 104.82 49.2017C105.012 49.4753 105.203 49.7763 105.313 50.1321C105.422 50.4604 105.477 50.8435 105.477 51.2267H105.505Z" fill="#FFB748"/>
<path d="M104.383 48.7365C104.383 48.7365 104.547 49.0101 104.602 49.1469C104.657 49.2837 104.712 49.4479 104.766 49.5848C104.821 49.7489 104.848 49.9131 104.876 50.0773C104.876 50.2415 104.903 50.4057 104.903 50.5972C104.903 50.9804 104.821 51.3361 104.712 51.6645C104.602 51.9928 104.411 52.2665 104.219 52.5128C104 52.7591 103.754 52.9506 103.48 53.0601C103.206 53.1695 102.905 53.2516 102.577 53.2243C102.468 53.2243 102.358 53.2243 102.249 53.1695C102.139 53.1695 102.057 53.1148 101.948 53.0601C101.838 53.0327 101.756 52.978 101.674 52.9232C101.592 52.8685 101.482 52.8138 101.4 52.7317C101.51 52.8959 101.619 53.0327 101.756 53.1695C101.893 53.3064 102.03 53.4158 102.167 53.4979C102.303 53.6074 102.468 53.6621 102.632 53.7168C102.796 53.7715 102.96 53.7989 103.152 53.8263C103.48 53.8263 103.781 53.7989 104.055 53.6621C104.328 53.5253 104.575 53.3611 104.794 53.1148C105.013 52.8685 105.177 52.5949 105.286 52.2665C105.396 51.9381 105.478 51.5824 105.478 51.1993C105.478 50.953 105.478 50.7067 105.396 50.4604C105.341 50.2141 105.259 49.9952 105.177 49.7763C105.067 49.5574 104.958 49.3658 104.821 49.2016C104.684 49.0375 104.52 48.8733 104.356 48.7365H104.383Z" fill="#FFCC7B"/>
<path d="M100.415 77.9893C100.333 77.8251 100.224 77.6336 100.114 77.4967C100.005 77.3325 99.8952 77.1957 99.7584 77.0315C99.649 76.8947 99.5121 76.7579 99.3753 76.6211C99.2385 76.4842 99.1017 76.3748 98.9648 76.2653C99.1017 76.3748 99.2658 76.4842 99.3753 76.6211C99.5121 76.7579 99.649 76.8947 99.7584 77.0315C99.8679 77.1684 100.005 77.3325 100.114 77.4967C100.224 77.6609 100.333 77.8251 100.415 78.0167V77.9893Z" fill="#FFB748"/>
<path d="M71.4905 50.652C71.6273 50.8709 71.7642 51.0898 71.8736 51.3361C71.9831 51.5824 72.0925 51.8287 72.1746 52.1023C72.2567 52.376 72.3114 52.6496 72.3388 52.9233C72.3662 53.1969 72.3935 53.4979 72.3935 53.7716C72.3935 54.4283 72.2567 55.0304 72.0104 55.5776C71.7915 56.1249 71.4631 56.6175 71.08 57.028C70.6969 57.4384 70.2317 57.7668 69.7392 57.9857C69.2466 58.2047 68.6993 58.3141 68.1247 58.2594C67.9331 58.2594 67.7416 58.232 67.55 58.1773C67.3584 58.1499 67.1943 58.0952 67.0027 58.0131C66.8385 57.9584 66.647 57.8763 66.4828 57.7668C66.3186 57.6847 66.1544 57.5753 66.0176 57.4658C66.2091 57.7395 66.4007 57.9857 66.647 58.2047C66.8659 58.4236 67.1122 58.6151 67.3858 58.7793C67.6595 58.9435 67.9331 59.0803 68.2341 59.1624C68.5351 59.2445 68.8361 59.3266 69.1645 59.3266C69.7392 59.354 70.2865 59.2445 70.779 59.053C71.2716 58.834 71.7368 58.5057 72.1199 58.0952C72.503 57.6847 72.804 57.1922 73.0229 56.6449C73.2418 56.0976 73.3787 55.4682 73.3787 54.8388C73.3787 54.401 73.3513 53.9905 73.2692 53.58C73.1871 53.1696 73.0503 52.7865 72.8861 52.4307C72.7219 52.075 72.503 51.7466 72.2841 51.4456C72.0378 51.1446 71.7642 50.8709 71.4905 50.652Z" fill="#FEE17A"/>
<path d="M67.7968 36.8055C67.7968 37.4622 67.6052 38.0095 67.3042 38.5021C67.0032 38.9947 66.6201 39.3778 66.1275 39.6788C65.635 39.9798 65.0877 40.1713 64.513 40.2534C63.911 40.3355 63.309 40.2808 62.6796 40.1166C62.187 39.9798 61.7218 39.7609 61.3387 39.4872C60.9282 39.2136 60.5999 38.8852 60.2989 38.5295C60.0252 38.1737 59.8063 37.7632 59.6421 37.3528C59.5053 36.9423 59.4232 36.5045 59.4506 36.0666C59.4506 35.6288 59.56 35.2183 59.7242 34.8352C59.8884 34.4521 60.1347 34.0964 60.4357 33.768C60.7367 33.467 61.1198 33.1933 61.5303 33.0018C61.9407 32.8102 62.4059 32.6734 62.8985 32.6187C63.5279 32.564 64.1573 32.6187 64.7319 32.8102C65.3066 33.0018 65.8539 33.2754 66.3191 33.6585C66.7843 34.0416 67.14 34.5068 67.4137 35.0268C67.66 35.5467 67.7968 36.1487 67.7968 36.8055Z" fill="#FFB748"/>
<path d="M65.1699 32.9744C65.3615 33.1386 65.5256 33.3302 65.6625 33.5491C65.7993 33.768 65.9361 33.9869 66.0456 34.2058C66.155 34.4521 66.2371 34.671 66.2645 34.9447C66.3192 35.191 66.3466 35.4646 66.3192 35.7383C66.3192 36.3403 66.155 36.8876 65.8814 37.3528C65.6351 37.818 65.252 38.2011 64.8415 38.5021C64.4037 38.8031 63.9111 39.022 63.3912 39.1041C62.8713 39.2136 62.2966 39.1862 61.7493 39.0494C61.5851 39.022 61.4209 38.9673 61.2841 38.9126C61.1473 38.8578 60.9831 38.8031 60.8463 38.721C60.7095 38.6389 60.5726 38.5568 60.4358 38.4747C60.299 38.3926 60.1895 38.2832 60.0801 38.2011C60.2169 38.42 60.3811 38.6115 60.5453 38.8031C60.7368 38.9947 60.9284 39.1862 61.1473 39.3504C61.3662 39.5146 61.6125 39.6514 61.8588 39.7882C62.1051 39.9251 62.3787 40.0071 62.6797 40.0892C63.3091 40.2534 63.9385 40.3082 64.5132 40.2261C65.1152 40.144 65.6625 39.9524 66.1277 39.6514C66.5929 39.3504 67.0033 38.9673 67.3043 38.4747C67.578 37.9822 67.7695 37.4075 67.7969 36.7781C67.7969 36.3403 67.7422 35.9298 67.6327 35.5467C67.5233 35.1636 67.3317 34.8079 67.0854 34.4795C66.8391 34.1511 66.5655 33.8501 66.2371 33.6038C65.9088 33.3575 65.553 33.1386 65.1699 32.9744Z" fill="#FFCC7B"/>
<path d="M31.5927 74.9792C31.4832 75.5538 31.2643 76.0738 30.9633 76.4842C30.6623 76.9221 30.2518 77.2778 29.7866 77.5241C29.3214 77.7977 28.8015 77.9619 28.2816 78.0167C27.7343 78.0714 27.187 78.0167 26.6397 77.8525C26.1745 77.7157 25.7366 77.4694 25.3535 77.1957C24.9704 76.9221 24.6694 76.5663 24.4505 76.1832C24.2042 75.8001 24.04 75.3897 23.9579 74.9518C23.8758 74.514 23.8485 74.0761 23.9579 73.6109C24.04 73.1731 24.2042 72.7353 24.4505 72.3795C24.6968 71.9964 24.9978 71.6681 25.3535 71.3944C25.7093 71.1208 26.1197 70.9019 26.5576 70.765C26.9954 70.6282 27.488 70.5735 27.9805 70.6008C28.5552 70.6282 29.1025 70.765 29.5677 71.0113C30.0603 71.2576 30.4707 71.586 30.8265 71.9691C31.1548 72.3795 31.4285 72.8174 31.5653 73.3373C31.7021 73.8572 31.7569 74.4045 31.6474 74.9792H31.5927Z" fill="#FFB748"/>
<path d="M29.8969 71.2302C30.0337 71.4218 30.1432 71.6133 30.2526 71.8049C30.3621 72.0238 30.4168 72.2427 30.4715 72.4616C30.5263 72.6805 30.5536 72.9268 30.581 73.1731C30.581 73.4194 30.581 73.6657 30.5263 73.912C30.4168 74.4592 30.2253 74.9518 29.9243 75.3896C29.6232 75.8001 29.2401 76.1559 28.8297 76.4295C28.3918 76.7031 27.8993 76.8673 27.4067 76.9494C26.8868 77.0315 26.3668 77.0042 25.8469 76.84C25.6827 76.7852 25.5459 76.7305 25.3817 76.6758C25.2449 76.6211 25.1081 76.539 24.9712 76.4569C24.8344 76.3748 24.725 76.2927 24.5881 76.2106C24.4787 76.1285 24.3692 76.019 24.2598 75.9096C24.3692 76.1285 24.506 76.3474 24.6702 76.539C24.8344 76.7305 24.9986 76.9221 25.2175 77.0863C25.4091 77.2504 25.628 77.4146 25.8743 77.5241C26.1206 77.6609 26.3668 77.7704 26.6405 77.8525C27.1878 78.0167 27.7624 78.0714 28.2824 78.0167C28.8297 77.9619 29.3496 77.7977 29.7874 77.5241C30.2526 77.2778 30.6357 76.9221 30.9641 76.4842C31.2651 76.0464 31.5114 75.5538 31.5935 74.9792C31.6482 74.5961 31.6756 74.213 31.5935 73.8572C31.5388 73.5015 31.4293 73.1457 31.2925 72.8174C31.1283 72.489 30.9367 72.188 30.7178 71.9143C30.4715 71.6407 30.1979 71.3944 29.8969 71.2029V71.2302Z" fill="#FFCC7B"/>
<path d="M78.3044 12.1499C78.2223 12.5056 78.0855 12.8066 77.8666 13.0256C77.6476 13.2445 77.4014 13.4087 77.1003 13.5181C76.7993 13.6002 76.471 13.6276 76.1152 13.6002C75.7868 13.5455 75.4311 13.436 75.0754 13.2445C74.8017 13.0803 74.5554 12.9161 74.3639 12.6972C74.1723 12.4783 74.0081 12.2594 73.8713 12.0131C73.7345 11.7668 73.6524 11.5205 73.625 11.2469C73.5703 11.0006 73.5703 10.7269 73.625 10.508C73.6798 10.2617 73.7619 10.0428 73.8987 9.85126C74.0355 9.65971 74.1997 9.49552 74.4186 9.3587C74.6102 9.22188 74.8564 9.13978 75.1027 9.08505C75.349 9.03032 75.6227 9.03032 75.9237 9.08505C76.2794 9.13978 76.6351 9.27661 76.9362 9.46816C77.2372 9.65971 77.5382 9.90599 77.7571 10.1796C77.976 10.4533 78.1402 10.7817 78.2497 11.11C78.3591 11.4384 78.3591 11.7942 78.3044 12.1499Z" fill="#FFB748"/>
<path d="M77.1549 9.63237C77.1549 9.63237 77.3191 9.87865 77.3738 10.0155C77.4286 10.1523 77.4833 10.2891 77.5107 10.4259C77.538 10.5628 77.5654 10.727 77.5654 10.8638C77.5654 11.0006 77.5654 11.1648 77.538 11.3016C77.4833 11.63 77.3191 11.931 77.1275 12.1499C76.936 12.3688 76.6897 12.533 76.4161 12.6425C76.1424 12.7519 75.8414 12.7793 75.5404 12.7519C75.2394 12.7519 74.911 12.6425 74.61 12.4783C74.5279 12.4236 74.4458 12.3688 74.3637 12.3415C74.2816 12.2867 74.1995 12.232 74.1448 12.1773C74.0627 12.1226 74.008 12.0405 73.9532 11.9857C73.8985 11.931 73.8438 11.8489 73.7891 11.7668C73.8438 11.9036 73.9259 12.0405 74.008 12.1773C74.0901 12.3141 74.1995 12.4509 74.309 12.5604C74.4185 12.6972 74.5279 12.8067 74.6647 12.9161C74.8016 13.0256 74.9384 13.135 75.1026 13.2171C75.4309 13.4087 75.7867 13.5181 76.1424 13.5729C76.4982 13.6276 76.8265 13.5729 77.1275 13.4908C77.4286 13.4087 77.7022 13.2445 77.8938 12.9982C78.1127 12.7793 78.2495 12.4783 78.3316 12.1226C78.3863 11.8763 78.3863 11.6574 78.3316 11.4111C78.3042 11.1648 78.2221 10.9459 78.1127 10.727C78.0032 10.508 77.8664 10.2891 77.7296 10.0976C77.5654 9.90601 77.3738 9.74182 77.1823 9.57764L77.1549 9.63237Z" fill="#FFCC7B"/>
<path d="M93.6565 16.3367C93.4923 16.9661 93.1913 17.4586 92.8082 17.8144C92.4251 18.1701 91.9325 18.4164 91.4126 18.5259C90.8653 18.6353 90.2907 18.6353 89.6887 18.4985C89.0866 18.3617 88.4846 18.088 87.9373 17.7049C87.4721 17.4039 87.089 17.0208 86.7606 16.6103C86.4323 16.1999 86.1586 15.762 85.9671 15.2968C85.7755 14.8316 85.6387 14.3664 85.6113 13.9012C85.5566 13.436 85.6113 12.9982 85.7208 12.5877C85.8302 12.1773 86.0218 11.7942 86.2954 11.4932C86.5417 11.1648 86.8701 10.9185 87.2532 10.7269C87.6089 10.5354 88.0468 10.4259 88.4846 10.3712C88.9224 10.3438 89.415 10.3712 89.9076 10.508C90.537 10.6722 91.1116 10.9732 91.6315 11.3563C92.1515 11.7394 92.6167 12.2046 92.9724 12.7519C93.3281 13.2719 93.6018 13.8739 93.7113 14.4759C93.8481 15.0779 93.8481 15.7073 93.6839 16.3367H93.6565Z" fill="#FFB748"/>
<path d="M91.9598 11.7121C92.0966 11.9583 92.2061 12.2046 92.3155 12.4509C92.425 12.6972 92.4797 12.9708 92.5345 13.2171C92.5892 13.4908 92.5892 13.7371 92.5892 14.0107C92.5892 14.2843 92.5345 14.5306 92.4797 14.8043C92.3156 15.3789 92.0419 15.8715 91.6862 16.2272C91.3304 16.583 90.8926 16.8293 90.4 16.9661C89.9075 17.1029 89.3875 17.1303 88.8402 17.0482C88.2929 16.9661 87.7456 16.7472 87.2257 16.4188C87.0889 16.3367 86.9247 16.2272 86.7879 16.1178C86.6511 16.0083 86.5142 15.8989 86.4048 15.762C86.2953 15.6526 86.1859 15.5158 86.0764 15.3789C85.9669 15.2421 85.8848 15.1053 85.7754 14.9685C85.8575 15.2147 85.9669 15.4884 86.1038 15.7347C86.2406 15.981 86.4048 16.2272 86.569 16.4735C86.7332 16.7198 86.9521 16.9387 87.171 17.1576C87.3899 17.3766 87.6362 17.5681 87.8825 17.7597C88.4571 18.1428 89.0592 18.4164 89.6338 18.5532C90.2358 18.6901 90.8105 18.6901 91.3578 18.5806C91.8777 18.4711 92.3703 18.2249 92.7534 17.8691C93.1365 17.5134 93.4375 17.0208 93.6017 16.3914C93.7112 15.981 93.7385 15.5705 93.7111 15.1326C93.6838 14.7222 93.5743 14.3117 93.4375 13.9012C93.2733 13.4908 93.0818 13.1077 92.8081 12.7519C92.5618 12.3962 92.2608 12.0404 91.9051 11.7668L91.9598 11.7121Z" fill="#FFCC7B"/>
<path d="M78.9613 28.6782C78.9066 28.8971 78.7971 29.0886 78.6329 29.2255C78.4961 29.3623 78.3045 29.4718 78.113 29.4991C77.9214 29.5538 77.7025 29.5538 77.4836 29.4991C77.2647 29.4444 77.0458 29.3623 76.8268 29.2255C76.6627 29.116 76.4985 28.9792 76.389 28.8424C76.2795 28.7055 76.1701 28.5414 76.088 28.3772C76.0059 28.213 75.9785 28.0488 75.9512 27.8846C75.9512 27.7204 75.9512 27.5562 75.9785 27.392C76.0333 27.2278 76.088 27.091 76.1974 26.9816C76.2795 26.8721 76.4164 26.7626 76.5532 26.6806C76.69 26.5985 76.8542 26.5437 77.0184 26.5437C77.1826 26.5437 77.3741 26.5437 77.5657 26.5711C77.812 26.6258 78.0309 26.7353 78.2224 26.8721C78.414 27.0089 78.5782 27.1731 78.715 27.3647C78.8518 27.5562 78.9613 27.7751 78.9886 27.9941C79.0434 28.213 79.0434 28.4593 78.9886 28.6782H78.9613Z" fill="#FFB748"/>
<path d="M78.3319 26.9816C78.3319 26.9816 78.4413 27.1458 78.4687 27.2552C78.4961 27.3373 78.5234 27.4468 78.5508 27.5289C78.5508 27.6383 78.5508 27.7204 78.5508 27.8299C78.5508 27.9393 78.5508 28.0214 78.4961 28.1309C78.4413 28.3498 78.3319 28.514 78.1951 28.6508C78.0582 28.7876 77.894 28.8971 77.7025 28.9518C77.5109 29.0066 77.3194 29.0339 77.1278 29.0066C76.9363 28.9792 76.7174 28.8971 76.5258 28.7876C76.4711 28.7603 76.4164 28.7055 76.3616 28.6782C76.3069 28.6508 76.2522 28.5961 76.2248 28.5414C76.1701 28.4866 76.1427 28.4593 76.088 28.4045C76.0606 28.3498 76.0059 28.3224 75.9785 28.2677C76.0059 28.3498 76.0606 28.4593 76.088 28.5414C76.1427 28.6234 76.1974 28.7329 76.2522 28.815C76.3069 28.8971 76.389 28.9792 76.4711 29.0613C76.5532 29.1434 76.6353 29.1981 76.7447 29.2802C76.9636 29.417 77.1826 29.4991 77.4015 29.5538C77.6204 29.6086 77.8393 29.6086 78.0309 29.5538C78.2224 29.4991 78.414 29.417 78.5508 29.2802C78.6876 29.1434 78.8244 28.9518 78.8792 28.7329C78.9339 28.5687 78.9339 28.4319 78.9339 28.2677C78.9339 28.1035 78.8792 27.9667 78.8244 27.8025C78.7697 27.6657 78.6876 27.5015 78.6055 27.392C78.4961 27.2552 78.3866 27.1458 78.2771 27.0363L78.3319 26.9816Z" fill="#FFCC7B"/>
<path d="M55.5366 62.3094C55.3177 62.9387 54.9346 63.4313 54.4968 63.8144C54.059 64.1701 53.5117 64.4164 52.937 64.5533C52.3623 64.6627 51.733 64.6627 51.1036 64.5259C50.4742 64.3891 49.8722 64.1154 49.2975 63.7323C48.8323 63.4039 48.4492 63.0482 48.1482 62.6377C47.8472 62.2273 47.6009 61.7621 47.4367 61.3242C47.2725 60.859 47.1904 60.3938 47.1904 59.9286C47.1904 59.4634 47.2452 58.9982 47.4093 58.5878C47.5735 58.1773 47.7925 57.7942 48.0935 57.4658C48.3945 57.1374 48.7502 56.8911 49.1607 56.6996C49.5712 56.508 50.009 56.3986 50.5016 56.3439C50.9941 56.3165 51.4867 56.3439 52.0066 56.4807C52.6634 56.6449 53.238 56.9459 53.7853 57.329C54.3052 57.7121 54.7431 58.2047 55.0988 58.7246C55.4272 59.2719 55.6735 59.8465 55.7556 60.4759C55.8377 61.0779 55.7829 61.7347 55.564 62.3641L55.5366 62.3094Z" fill="#FFB748"/>
<path d="M54.1419 57.63C54.2788 57.8763 54.3882 58.1225 54.443 58.3688C54.5251 58.6151 54.5798 58.8888 54.6071 59.1624C54.6071 59.436 54.6071 59.6823 54.6071 59.956C54.5798 60.2296 54.4977 60.4759 54.4156 60.7495C54.1967 61.3242 53.8683 61.8168 53.4578 62.1725C53.0474 62.5282 52.5548 62.8019 52.0349 62.9387C51.5149 63.0755 50.9403 63.1029 50.3656 62.9934C49.791 62.884 49.2437 62.6924 48.7237 62.3367C48.5596 62.2272 48.4227 62.1451 48.2859 62.0357C48.1491 61.9262 48.0396 61.8168 47.9028 61.6799C47.7933 61.5705 47.6839 61.4337 47.5744 61.2968C47.465 61.16 47.3829 61.0232 47.3008 60.8864C47.3555 61.1327 47.465 61.4063 47.5744 61.6526C47.6839 61.8989 47.8481 62.1451 48.0123 62.3914C48.1765 62.6377 48.368 62.8566 48.5869 63.0755C48.8058 63.2945 49.0521 63.486 49.2984 63.6776C49.8731 64.0607 50.4751 64.3343 51.1045 64.4711C51.7339 64.608 52.3359 64.6353 52.9379 64.4985C53.5126 64.389 54.0599 64.1428 54.4977 63.7597C54.9355 63.4039 55.3186 62.884 55.5375 62.2546C55.7017 61.8441 55.7565 61.4063 55.7565 60.9958C55.7565 60.558 55.7017 60.1475 55.5649 59.7371C55.4281 59.3266 55.2365 58.9435 55.0176 58.5604C54.7713 58.2046 54.4977 57.8489 54.1693 57.5479L54.1419 57.63Z" fill="#FFCC7B"/>
<path d="M36.4638 60.3665C36.3817 60.7496 36.1901 61.0506 35.9439 61.2969C35.6976 61.5431 35.4239 61.7073 35.0955 61.8168C34.7672 61.9262 34.4114 61.981 34.0283 61.9536C33.6726 61.9262 33.2895 61.8168 32.9337 61.6526C32.6601 61.5158 32.4138 61.3242 32.1949 61.1327C31.976 60.9138 31.8118 60.6948 31.7023 60.4486C31.5655 60.2023 31.5108 59.9286 31.456 59.6823C31.4287 59.4087 31.456 59.1624 31.5108 58.9161C31.5655 58.6699 31.675 58.4509 31.8392 58.232C32.0033 58.0405 32.1949 57.8489 32.4138 57.7121C32.6327 57.5753 32.879 57.4658 33.18 57.4111C33.4537 57.3563 33.7547 57.329 34.0557 57.3563C34.4388 57.4111 34.7945 57.5205 35.1229 57.6847C35.4513 57.8489 35.7523 58.0952 35.9712 58.3688C36.1901 58.6425 36.3817 58.9709 36.4638 59.2992C36.5459 59.6276 36.5459 60.0107 36.4638 60.3665Z" fill="#FFB748"/>
<path d="M35.3691 57.8215C35.3691 57.8215 35.5333 58.0678 35.588 58.2046C35.6427 58.3415 35.6975 58.4783 35.7248 58.6425C35.7522 58.7793 35.7796 58.9435 35.7796 59.1077C35.7796 59.2719 35.7796 59.4087 35.7248 59.5729C35.6427 59.9286 35.4786 60.2296 35.2596 60.4485C35.0407 60.6948 34.7671 60.859 34.4661 60.9958C34.1651 61.1053 33.8367 61.16 33.5083 61.16C33.1799 61.16 32.8242 61.0779 32.5232 60.9411C32.4411 60.8864 32.3316 60.859 32.2495 60.8043C32.1674 60.7496 32.0853 60.6948 32.0032 60.6401C31.9211 60.5854 31.8664 60.5306 31.7843 60.4485C31.7296 60.3938 31.6475 60.3117 31.5928 60.2296C31.6475 60.3664 31.7296 60.5033 31.8117 60.6401C31.8938 60.7769 32.0032 60.9137 32.1127 61.0232C32.2222 61.1327 32.359 61.2695 32.4958 61.3516C32.6326 61.461 32.7968 61.5431 32.961 61.6252C33.3167 61.7894 33.6999 61.8989 34.0556 61.9262C34.4113 61.9536 34.7944 61.9262 35.1228 61.7894C35.4512 61.68 35.7522 61.4884 35.9711 61.2695C36.2174 61.0232 36.3816 60.7222 36.491 60.3391C36.5458 60.0928 36.5731 59.8465 36.5458 59.6002C36.5458 59.354 36.4637 59.135 36.3542 58.9161C36.2448 58.6972 36.1079 58.4783 35.9711 58.3141C35.8069 58.1225 35.6154 57.9584 35.3965 57.8215H35.3691Z" fill="#FFCC7B"/>
</g>
<defs>
<clipPath id="clip0_232_171790">
<rect width="116.902" height="92" fill="white" transform="translate(0.588867)"/>
</clipPath>
</defs>
</svg>
