<svg width="165" height="92" viewBox="0 0 165 92" fill="none" xmlns="http://www.w3.org/2000/svg">
<g clip-path="url(#clip0_236_171902)">
<path d="M54.9376 20.771C55.2956 20.771 55.4212 20.763 55.5468 20.771C56.1292 20.8218 56.7144 20.942 57.2915 20.9099C57.8713 20.8752 58.435 20.6561 59.0148 20.5786C59.5145 20.5118 60.0248 20.5118 60.5298 20.5092C62.3413 20.5038 64.1528 20.4958 65.9643 20.5225C66.5495 20.5305 67.1319 20.6427 67.7144 20.7042C68.003 20.7336 68.2915 20.7657 68.5827 20.779C69.8839 20.8405 71.1825 20.9206 72.4543 21.2252C72.5772 21.2546 72.7028 21.2626 72.8283 21.276C74.7975 21.455 76.7666 21.634 78.7358 21.8157C79.0297 21.8424 79.3209 21.8878 79.6122 21.9413C81.3035 22.2485 83.0134 22.342 84.7288 22.4142C86.3239 22.4837 87.9163 22.676 89.5061 22.8497C90.842 22.994 92.1833 23.1329 93.5031 23.368C94.8177 23.6032 96.1884 23.523 97.4495 24.0601C98.8415 24.0601 100.159 24.573 101.551 24.6452C102.932 24.7173 104.305 24.9738 105.676 25.1796C107.629 25.4708 109.58 25.7861 111.53 26.0987C112.027 26.1788 112.519 26.3044 113.018 26.3792C114.803 26.6491 116.588 26.9002 118.373 27.1728C119.45 27.3384 120.518 27.5361 121.595 27.7018C122.669 27.8701 123.749 28.0117 124.825 28.1801C125.28 28.2522 125.726 28.3751 126.183 28.4472C128.512 28.8079 130.845 29.1366 133.17 29.5187C135.203 29.8526 137.239 30.1813 139.248 30.6275C141.046 31.0256 142.892 31.1512 144.667 31.6775C146.077 32.097 147.509 32.447 148.936 32.8077C149.871 33.0455 150.814 33.2486 151.755 33.4596C152.164 33.5505 152.586 33.5986 152.992 33.7081C154.536 34.1223 156.086 34.515 157.612 34.9879C158.95 35.4021 160.142 36.1235 161.232 37.0079C162.669 38.1728 163.412 39.7866 163.866 41.4912C164.251 42.9421 164.542 44.4517 164.347 45.9826C164.107 47.8583 163.765 49.7206 163.14 51.508C162.91 52.168 162.509 52.7959 162.074 53.3516C161.245 54.407 160.364 55.425 159.453 56.4109C157.662 58.348 156.017 60.4374 153.778 61.9149C152.869 63.0023 151.504 63.4886 150.475 64.4184C150.008 64.8406 149.471 65.1933 149.048 65.6555C147.833 66.9941 146.483 68.1911 145.177 69.4335C144.568 70.0106 144.031 70.6679 143.411 71.2317C142.265 72.279 141.089 73.2917 139.913 74.307C138.099 75.87 136.207 77.3449 134.497 79.0255C133.509 79.998 132.563 81.016 131.54 81.9511C129.707 83.6211 127.802 85.2001 125.667 86.4986C124.411 87.2628 123.171 88.0323 121.822 88.6148C121.635 88.6949 121.488 88.8606 121.314 88.9728C120.927 89.2213 120.534 89.4617 120.142 89.7022C119.784 89.9213 119.38 90.0896 119.07 90.3622C117.2 92.0027 115.078 92.3206 112.719 91.7141C111.421 91.3801 110.095 91.1557 108.778 90.9126C108.113 90.7896 107.45 90.6854 106.836 90.3835C106.723 90.3274 106.606 90.2499 106.486 90.2419C104.749 90.1324 103.124 89.4965 101.436 89.1652C99.0953 88.7056 96.7601 88.2193 94.4169 87.7785C93.057 87.522 91.6783 87.351 90.3156 87.0998C88.1621 86.7017 86.0139 86.2662 83.8658 85.8467C83.497 85.7746 83.1283 85.7051 82.7596 85.633C80.7824 85.2402 78.7759 85.0532 76.7987 84.6257C74.8349 84.2009 72.839 83.915 70.8886 83.4153C69.053 82.9451 67.2067 82.571 65.3204 82.3599C64.4921 82.2664 63.6452 82.1569 62.9024 81.7053C62.7634 81.6225 62.5844 81.5931 62.4214 81.5691C60.8023 81.3233 59.1778 81.0988 57.5613 80.837C55.7792 80.5484 53.9998 80.2545 52.2257 79.9152C50.9058 79.664 49.6046 79.3167 48.2873 79.0495C46.4357 78.6754 44.5708 78.3548 42.7192 77.9728C41.4875 77.7189 40.2691 77.401 39.0427 77.1097C38.9198 77.0804 38.7996 77.0109 38.6793 77.0162C37.1297 77.075 35.7029 76.4952 34.2334 76.1586C32.1867 75.691 30.1615 75.1326 28.0694 74.8894C26.8163 74.7425 25.5819 74.4993 24.3582 74.1734C23.6314 73.9783 22.8753 73.8795 22.1299 73.7673C20.8394 73.5722 19.5595 73.3371 18.3145 72.9443C17.1549 72.581 15.998 72.1989 14.8357 71.8462C13.791 71.5282 12.7356 71.2343 11.6856 70.9378C10.7558 70.6759 9.82597 70.4061 8.88815 70.1763C8.35912 70.0454 7.80338 70.0186 7.27168 69.8957C6.45409 69.706 5.64452 69.4816 4.83762 69.2518C4.39142 69.1262 3.94789 68.9846 3.52039 68.8056C2.52379 68.3915 1.73559 67.785 1.34817 66.7029C0.747004 65.0196 0.356913 63.331 0.535928 61.5195C0.672192 60.1408 0.696239 58.7514 0.733645 57.3647C0.752348 56.6647 0.907315 56.0422 1.36153 55.4918C1.81842 54.9387 2.22187 54.3429 2.68677 53.8005C2.92724 53.5173 3.21847 53.2287 3.54978 53.0844C3.96125 52.9054 4.23912 52.6062 4.52768 52.3069C5.60978 51.1874 6.76937 50.1721 8.06789 49.3011C10.0932 47.9464 11.9635 46.3807 13.9219 44.9379C14.5979 44.4383 15.2712 43.9253 16.0006 43.5112C18.2396 42.2447 20.3397 40.7805 22.373 39.2095C23.57 38.285 24.7857 37.3873 26.0201 36.5162C26.8778 35.9124 27.7915 35.3914 28.6652 34.8089C30.4821 33.5932 32.2989 32.3775 34.0918 31.1271C34.6395 30.745 35.1124 30.2561 35.6254 29.8206C35.8178 29.6576 36.0155 29.4946 36.2319 29.3637C36.7957 29.019 37.3862 28.7118 37.9392 28.3484C38.4629 28.0037 38.9519 27.6029 39.4595 27.2315C40.0019 26.8334 40.5416 26.43 41.0974 26.0506C41.4768 25.7887 41.8856 25.567 42.273 25.3185C43.1894 24.7334 44.1914 24.2898 44.9876 23.507C45.3082 23.1917 45.733 22.9112 46.1605 22.7936C47.3281 22.4756 48.3808 21.7676 49.6393 21.7703C50.3179 21.4122 51.0794 21.3508 51.8062 21.1584C52.915 20.8645 54.0238 20.6802 54.9403 20.763L54.9376 20.771Z" fill="#E0A850"/>
<path d="M3.46914 59.1602C3.79511 59.1201 4.17985 58.9865 4.53254 59.0426C5.6093 59.2217 6.69407 59.2885 7.76014 59.6011C11.1106 60.5843 14.4799 61.5168 17.8651 62.3798C19.4094 62.7752 21.0099 62.9542 22.5783 63.2562C23.3584 63.4058 24.1226 63.6356 24.9028 63.7772C27.4731 64.2341 29.9766 64.9555 32.4935 65.6368C34.0699 66.0643 35.7077 66.2513 37.3109 66.5826C38.214 66.7696 39.1063 67.0181 39.9987 67.2639C41.3774 67.646 42.7989 67.7716 44.1962 68.0495C45.102 68.2312 46.0051 68.3968 46.8975 68.6693C47.7231 68.9205 48.6075 69.0274 49.4625 69.2304C50.8919 69.5724 52.332 69.8663 53.7695 70.1763C54.702 70.3767 55.6131 70.6652 56.5509 70.8442C57.4593 71.0152 58.3678 71.2049 59.2655 71.4347C60.5293 71.758 61.7744 72.1454 63.0408 72.4634C64.9566 72.947 66.891 73.3665 68.8014 73.8714C70.677 74.3684 72.6087 74.5341 74.5058 74.9001C75.1604 75.0257 75.7963 75.2475 76.4348 75.4505C77.9471 75.9341 79.4514 76.4845 81.0358 76.725C81.0785 76.7303 81.1186 76.7383 81.1587 76.749C83.8386 77.5399 86.6333 77.6762 89.3613 78.1865C90.8068 78.4563 92.2362 78.793 93.6763 79.0842C94.0878 79.1671 94.5073 79.2098 94.9214 79.2686C96.1318 79.4396 97.3635 79.5224 98.5471 79.803C99.4475 80.0167 100.351 80.1049 101.254 80.2438C102.125 80.3774 102.993 80.5404 103.861 80.7034C105.344 80.9812 106.827 81.2645 108.31 81.5584C109.376 81.7694 110.445 81.9805 111.503 82.2237C112.569 82.4695 112.892 82.8676 112.989 83.9711C113.01 84.2222 113.039 84.4814 113.01 84.7299C112.892 85.6517 112.876 86.5708 112.964 87.4979C112.989 87.7437 112.932 88.0029 112.876 88.2487C112.649 89.2426 112.222 89.5152 111.246 89.3121C110.669 89.1919 110.098 89.0583 109.518 88.9487C107.53 88.5747 105.542 88.214 103.557 87.8346C101.986 87.5326 100.417 87.2093 98.8464 86.9021C98.6433 86.862 98.4322 86.854 98.2238 86.8433C97.254 86.7952 96.3081 86.6643 95.3623 86.3998C94.3523 86.1166 93.3023 85.9856 92.2683 85.7879C92.1454 85.7639 92.0091 85.7692 91.8942 85.7238C90.561 85.1974 89.1262 85.0665 87.7689 84.623C86.6574 84.2596 85.4657 84.1394 84.3542 83.792C82.9836 83.3645 81.5461 83.3458 80.1835 82.8783C79.1227 82.5149 77.9658 82.4347 76.8543 82.2103C75.7829 81.9912 74.7142 81.7614 73.6508 81.5103C72.7931 81.3072 71.9461 81.0668 71.0617 81.0026C70.8533 80.9866 70.6289 80.9812 70.4392 80.9038C69.0632 80.3507 67.5937 80.1824 66.1589 79.8778C65.2959 79.6961 64.4008 79.672 63.5351 79.4984C61.6328 79.1216 59.7518 78.6407 57.8441 78.3041C55.2738 77.8498 52.7488 77.2219 50.2426 76.5059C49.3957 76.2628 48.514 76.1318 47.6456 75.9715C46.1547 75.6963 44.6611 75.4452 43.1702 75.1673C41.9332 74.9375 40.7014 74.6757 39.4644 74.4379C38.1044 74.1734 36.7498 73.9062 35.3551 73.8287C34.444 73.7779 33.5435 73.4894 32.6485 73.2623C30.2892 72.6611 27.922 72.108 25.5307 71.6431C24.7505 71.4908 23.997 71.2236 23.2222 71.0393C21.5042 70.6278 19.7835 70.2217 18.0575 69.8423C16.4544 69.4896 14.8058 69.2892 13.2455 68.8029C11.7679 68.3434 10.2744 67.8865 8.88232 67.1517C8.26779 66.8284 7.52234 66.7456 6.83033 66.5826C6.33871 66.4677 5.82572 66.441 5.34211 66.3021C4.9066 66.1765 4.47109 65.9975 4.08634 65.7624C3.01225 65.1078 2.81186 64.0337 2.87599 62.9008C2.89469 62.5668 2.90271 62.2489 2.884 61.9149C2.83324 60.9824 2.90805 60.0606 3.47716 59.1629L3.46914 59.1602Z" fill="#CC8E44"/>
<path d="M162.074 43.92C162.782 44.1577 162.939 44.6253 163.014 45.2211C163.156 46.37 162.985 47.4896 162.79 48.6037C162.587 49.766 162.207 50.8721 161.673 51.9409C161.09 53.1031 160.257 54.0169 159.284 54.8425C158.389 55.6066 157.518 56.4002 156.639 57.183C155.789 57.9392 154.983 58.7461 154.087 59.4408C152.725 60.4988 151.485 61.6878 150.192 62.8233C149.69 63.2642 149.171 63.6944 148.621 64.0684C147.429 64.8753 146.422 65.8746 145.428 66.9033C144.61 67.7502 143.761 68.5678 142.895 69.3667C141.813 70.3633 140.739 71.3733 139.59 72.2924C138.382 73.2596 137.225 74.2829 135.98 75.2127C133.928 76.7437 131.989 78.4296 130.067 80.1289C129.148 80.9412 128.181 81.6759 127.177 82.368C126.134 83.0867 125.223 83.9524 124.251 84.7513C122.888 85.8708 121.485 86.9502 119.941 87.8185C119.134 88.2728 118.311 88.6976 117.491 89.1304C117.307 89.2293 117.122 89.3362 116.925 89.3949C116.377 89.5606 115.971 89.2881 116.003 88.7243C116.051 87.8773 116.027 87.041 115.891 86.2074C115.77 85.462 115.642 84.7165 115.533 83.9684C115.509 83.8081 115.551 83.6371 115.567 83.4233C116.847 82.4294 118.135 81.4194 119.436 80.4309C119.701 80.2305 120.029 80.1129 120.313 79.9339C121.127 79.4182 121.988 78.9533 122.739 78.3522C124.355 77.0616 126.054 75.894 127.746 74.7077C127.917 74.5875 128.101 74.4806 128.259 74.3444C129.552 73.2088 130.853 72.0813 132.127 70.9244C133.028 70.1068 133.856 69.2064 134.783 68.4182C136.52 66.9433 138.072 65.2868 139.619 63.6249C140.167 63.0371 140.72 62.46 141.436 62.0672C141.546 62.0057 141.655 61.9363 141.746 61.8508C142.724 60.9236 143.699 59.9938 144.669 59.0587C145.938 57.835 147.205 56.6139 148.688 55.636C149.102 55.3635 149.441 54.9707 149.812 54.6341C150.561 53.9608 151.298 53.2714 152.06 52.6142C152.984 51.8153 153.932 51.0431 154.862 50.2522C155.725 49.5175 156.562 48.7533 157.435 48.0346C158.186 47.4174 158.926 46.7975 159.527 46.028C159.966 45.4696 160.564 45.0582 160.933 44.4303C161.173 44.0188 161.676 44.0936 162.076 43.9226L162.074 43.92Z" fill="#CC8E44"/>
<path d="M150.403 20.5947C150.443 21.3054 150.502 22.0134 150.523 22.7241C150.552 23.6913 150.561 24.6559 150.304 25.6097C150.13 26.2563 149.991 26.9243 149.927 27.5923C149.772 29.1847 149.406 30.7397 149.222 32.3321C148.944 34.7502 148.404 37.1361 147.99 39.5381C147.889 40.1179 147.846 40.7084 147.755 41.2909C147.611 42.202 147.456 43.1131 147.29 44.0215C147.213 44.4383 147.018 44.7937 146.753 45.1437C146.221 45.8571 145.594 46.4689 144.968 47.0915C144.164 47.893 143.392 48.7266 142.577 49.5175C141.369 50.6905 140.052 51.7619 138.933 53.0123C137.888 54.1826 136.731 55.2086 135.542 56.2105C135.16 56.5338 134.73 56.8037 134.369 57.1483C133.153 58.3079 131.964 59.4969 130.751 60.6565C130.156 61.2256 129.557 61.8027 128.9 62.2943C127.04 63.6864 125.573 65.4925 123.831 67.0075C123.166 67.5873 122.477 68.1377 121.814 68.7201C120.775 69.6339 119.778 70.6011 118.709 71.4748C117.606 72.3752 116.449 73.2169 115.284 74.0398C114.514 74.5822 113.622 74.5875 112.73 74.4032C110.341 73.9089 107.955 73.3932 105.561 72.9176C104.784 72.7626 103.985 72.7172 103.199 72.605C102.494 72.5035 101.794 72.3699 101.088 72.2657C100.885 72.2363 100.674 72.2523 100.469 72.2443C100.092 72.2283 99.7044 72.2657 99.3464 72.1802C98.9402 72.084 98.5555 71.9851 98.1253 72.0546C97.8902 72.092 97.631 71.9851 97.3852 71.9397C96.9738 71.8649 96.5596 71.7206 96.1481 71.7233C94.8256 71.7286 93.5591 71.4802 92.306 71.0821C91.9587 70.9725 91.5606 71.0286 91.1945 70.9618C90.5346 70.8416 89.88 70.692 89.228 70.5397C86.8073 69.9786 84.3546 69.5992 81.9179 69.1236C79.4811 68.648 77.0497 68.1377 74.6183 67.6434C72.8068 67.2747 70.9953 66.9166 69.1891 66.5372C68.4063 66.3716 67.6341 66.1552 66.8539 65.9788C66.3623 65.8666 65.8653 65.7864 65.3684 65.6983C65.2027 65.6689 65.021 65.6956 64.8687 65.6368C63.4446 65.0864 61.9217 64.9742 60.4468 64.6509C59.3433 64.4104 58.2372 64.202 57.1444 63.8814C56.065 63.5661 54.9081 63.5207 53.7912 63.3257C51.3064 62.8928 48.8296 62.4333 46.3448 61.9977C44.771 61.7199 43.1973 61.4607 41.6209 61.2015C39.6731 60.8809 37.72 60.587 35.7749 60.2423C34.1184 59.9484 32.4645 59.6332 30.824 59.2698C29.0258 58.8717 27.2063 58.551 25.4669 57.9151C24.3634 57.5117 23.2679 57.0842 22.1511 56.7262C21.1118 56.3922 20.0591 56.0849 18.993 55.8605C17.7559 55.5987 16.8902 54.8318 16.1154 53.9314C15.5303 53.2528 15.3993 52.4058 15.5757 51.5508C15.6719 51.0886 15.6211 50.6477 15.6398 50.1962C15.7119 48.4327 15.6398 46.6586 15.9257 44.9086C15.939 44.8257 15.9898 44.7402 15.9765 44.6627C15.7333 42.9741 16.2864 41.3283 16.2436 39.6423C16.2009 38.0018 16.2971 36.3533 16.4146 34.7154C16.5135 33.3287 16.7085 31.9501 16.8956 30.5714C17.0318 29.5721 17.2215 28.5782 17.4032 27.5869C17.5876 26.5689 18.2235 25.8689 19.0384 25.2945C21.2747 23.7261 23.5645 22.2325 25.7501 20.5893C26.7921 19.8038 27.8796 19.0824 29.0659 18.5213C29.4025 18.361 29.6831 18.0911 29.9957 17.8801C30.9014 17.2629 31.8767 16.7285 32.6996 16.0178C34.0756 14.8315 35.636 13.9177 37.0601 12.8089C37.191 12.7073 37.3486 12.6379 37.4929 12.547C38.4868 11.9192 39.4915 11.3073 40.3732 10.5191C40.6243 10.2973 40.9049 10.105 41.1934 9.92862C43.8439 8.29879 46.3047 6.39375 48.9204 4.71583C49.9491 4.05855 50.9965 3.43334 52.0331 2.78942C52.8507 2.28177 53.7057 1.84358 54.4084 1.15157C55.373 0.205735 56.6207 -0.029388 57.9086 0.00267425C58.6166 0.0187054 59.322 0.173673 60.0327 0.245813C60.4468 0.288563 60.8663 0.264516 61.2804 0.312609C62.6164 0.470249 63.947 0.694685 65.2882 0.806903C67.2654 0.969886 69.2078 1.35998 71.1369 1.76343C72.6572 2.08138 74.1828 2.38597 75.7111 2.66651C77.6509 3.02454 79.612 3.27035 81.5598 3.57762C82.5992 3.7406 83.6385 3.87419 84.6939 3.85549C86.0085 3.83412 87.2883 4.13871 88.5681 4.37116C90.2647 4.68109 91.956 5.01508 93.674 5.21012C95.5978 5.42921 97.5161 5.68304 99.4292 5.98496C100.754 6.19336 102.061 6.51666 103.378 6.77316C104.733 7.03767 106.09 7.27814 107.447 7.53731C107.902 7.62548 108.348 7.74838 108.802 7.83388C110.656 8.18924 112.516 8.53391 114.37 8.88659C115.447 9.09233 116.518 9.31676 117.592 9.51982C118.789 9.74426 119.989 9.94999 121.189 10.1664C123.342 10.5538 125.498 10.9359 127.649 11.3313C129.594 11.6894 131.537 12.0661 133.482 12.4268C134.965 12.7047 136.456 12.9371 137.931 13.2524C140.728 13.8482 143.515 14.4868 146.304 15.1067C146.47 15.1441 146.633 15.1788 146.799 15.2109C148.169 15.4834 149.094 16.3892 149.906 17.4285C150.422 18.0885 150.448 18.9141 150.507 19.7103C150.528 20.0015 150.488 20.2981 150.478 20.5947C150.451 20.5947 150.424 20.5973 150.4 20.6L150.403 20.5947Z" fill="#FCF0BE"/>
<path d="M17.7828 44.5772C18.0553 42.7069 17.9751 40.8072 18.3572 38.9316C18.6485 37.5075 18.7259 36.0246 18.7313 34.5471C18.734 33.5879 18.9718 32.6287 19.124 31.6722C19.2095 31.1324 19.3164 30.5954 19.4393 30.0637C19.5141 29.7377 19.621 29.4144 19.7359 29.0992C20.0779 28.14 20.7539 27.7045 21.7745 27.8167C22.3597 27.8808 22.9822 27.8354 23.5219 28.0278C24.6281 28.4232 25.7796 28.4419 26.8858 28.3484C28.2645 28.2335 29.563 28.5194 30.8909 28.7117C32.3016 28.9148 33.675 29.3049 35.1231 29.3316C36.0342 29.3503 36.956 29.5988 37.8377 29.858C38.6072 30.0824 39.3821 30.2614 40.1622 30.4351C40.8997 30.5981 41.6264 30.8118 42.3665 30.9748C43.0612 31.1271 43.7666 31.2367 44.4666 31.3702C46.035 31.6748 47.6007 32.0008 49.1717 32.2867C49.7889 32.3989 50.4222 32.4684 51.05 32.4791C51.8596 32.4924 52.6371 32.5886 53.4013 32.8692C53.8288 33.0268 54.2964 33.0722 54.7479 33.1711C56.6823 33.5959 58.6381 33.8364 60.6206 33.9085C61.5825 33.9432 62.5444 34.1089 63.4929 34.2959C65.5128 34.694 67.5194 35.1536 69.5366 35.5677C70.8084 35.8296 72.0936 36.038 73.3654 36.2998C74.5517 36.5456 75.7781 36.6124 76.935 36.9037C78.4873 37.2937 80.0798 37.4487 81.6161 37.8816C81.8539 37.9484 82.1077 37.9671 82.3562 37.9991C83.5612 38.1487 84.7635 38.3224 85.9712 38.432C86.6392 38.4934 87.2484 38.7713 87.9243 38.814C88.5843 38.8568 89.2282 39.0919 89.8881 39.1988C90.2488 39.2576 90.6336 39.1881 90.9943 39.2495C92.9421 39.5782 94.8845 39.9389 96.8323 40.2729C97.7461 40.4278 98.6652 40.5481 99.579 40.687C100.33 40.8019 101.075 40.9408 101.826 41.0343C103.074 41.1893 104.34 41.2454 105.575 41.4725C107.397 41.8065 109.144 42.421 110.838 43.1772C111.354 43.407 111.677 43.7917 111.824 44.3902C112.099 45.5044 112.003 46.6452 112.19 47.7648C112.377 48.8869 112.201 50.0251 112.153 51.158C112.07 53.1325 111.677 55.0696 111.613 57.0414C111.552 59.0186 111.49 60.9958 111.367 62.9703C111.314 63.836 111.068 64.6856 111.047 65.5647C111.028 66.3609 110.969 67.1598 110.873 67.9506C110.814 68.4449 110.686 68.9392 110.528 69.4148C110.186 70.4541 108.944 71.1595 107.926 70.7774C106.694 70.3152 105.404 70.1442 104.145 69.8396C102.63 69.4709 101.094 69.1984 99.5709 68.8617C98.8736 68.7068 98.1816 68.5251 97.4976 68.314C96.2846 67.9373 95.0582 67.6914 93.7864 67.5979C92.1138 67.475 90.4359 67.3628 88.7927 66.9754C88.7125 66.9567 88.6244 66.9353 88.5442 66.9407C86.7968 67.101 85.1403 66.5399 83.4463 66.286C82.3214 66.1177 81.1993 65.9227 80.0691 65.8238C78.4312 65.6795 76.8121 65.4524 75.2063 65.0944C74.5998 64.9608 73.9479 65.0543 73.3226 64.9849C72.3608 64.8807 71.4042 64.7417 70.4504 64.5868C69.3282 64.4051 68.2167 64.1058 67.0892 64.0176C65.6491 63.9054 64.3105 63.4191 62.9211 63.1252C60.2439 62.5588 57.54 62.1073 54.8655 61.5275C52.565 61.0305 50.2966 60.4 48.0041 59.8656C45.4685 59.2724 42.9543 58.5617 40.3439 58.34C39.7588 58.2892 39.179 58.1609 38.5965 58.0835C37.135 57.8857 35.6735 57.7094 34.2147 57.501C33.5521 57.4048 32.8868 57.2926 32.2429 57.1136C30.9363 56.7502 29.571 56.8464 28.2564 56.5471C26.99 56.2586 25.7502 55.9486 24.5346 55.433C23.1906 54.8639 21.8654 54.1745 20.3771 53.9795C20.0084 53.9314 19.6477 53.7711 19.295 53.6321C18.3839 53.2714 17.9003 52.5981 17.8229 51.6149C17.6385 49.2717 17.5289 46.9285 17.7774 44.5826L17.7828 44.5772Z" fill="#FFE473"/>
<path d="M115.111 70.016C114.689 69.5457 114.44 69.0915 114.373 68.4449C114.192 66.7163 114.379 65.0009 114.408 63.2802C114.424 62.3584 114.467 61.4367 114.445 60.5149C114.389 58.2064 114.478 55.9032 114.665 53.6028C114.726 52.8547 114.654 52.0985 114.678 51.3477C114.713 50.2977 114.726 49.2503 114.932 48.2056C115.087 47.4254 115.113 46.6105 115.095 45.8116C115.079 45.0341 115.231 44.3047 115.447 43.5753C115.53 43.2948 115.589 43.0089 115.658 42.7257C115.792 42.1913 116.086 41.9134 116.701 41.868C116.978 41.8466 117.168 41.7478 117.366 41.5821C118.435 40.6977 119.509 39.8187 120.583 38.9423C121.104 38.5175 121.643 38.114 122.159 37.6839C122.8 37.1468 123.42 36.5831 124.061 36.0433C124.737 35.4742 125.429 34.9238 126.111 34.3654C127.412 33.2993 128.716 32.2386 130.004 31.1592C130.455 30.7825 130.856 30.3469 131.294 29.9542C131.919 29.3931 132.585 28.8988 133.322 28.4766C134.121 28.0198 134.872 27.4613 135.585 26.8762C137.402 25.38 139.182 23.833 140.988 22.3234C141.37 22.0054 141.813 21.7569 142.233 21.4817C142.898 21.0435 143.622 20.7042 144.199 20.1298C144.493 19.8385 144.889 19.6515 145.228 19.4004C146.027 18.8099 146.941 18.8232 147.881 18.882C148.472 19.3042 148.747 19.8786 148.675 20.6187C148.661 20.7443 148.709 20.8752 148.685 20.9955C148.383 22.497 148.696 24.028 148.488 25.5296C148.268 27.1113 148.172 28.7038 147.943 30.2882C147.694 31.9928 147.483 33.7055 147.24 35.4128C147.061 36.6579 146.917 37.911 146.697 39.1507C146.457 40.516 146.128 41.8653 145.874 43.228C145.655 44.4036 145.025 45.3147 144.143 46.0655C143.28 46.8002 142.401 47.5216 141.498 48.2056C138.783 50.263 136.245 52.5447 133.477 54.5406C132.149 55.4971 130.982 56.6727 129.75 57.7602C128.235 59.0961 126.816 60.5362 125.168 61.7225C124.358 62.305 123.714 63.1199 123.003 63.8333C122.795 64.0417 122.624 64.2875 122.408 64.4826C120.807 65.9093 119.418 67.5579 117.724 68.8885C117.179 69.316 116.618 69.6553 115.982 69.8797C115.712 69.9732 115.41 69.9759 115.116 70.0213L115.111 70.016Z" fill="#FFDB43"/>
</g>
<defs>
<clipPath id="clip0_236_171902">
<rect width="163.921" height="92" fill="white" transform="translate(0.490234)"/>
</clipPath>
</defs>
</svg>
