<svg width="74" height="92" viewBox="0 0 74 92" fill="none" xmlns="http://www.w3.org/2000/svg">
<g clip-path="url(#clip0_236_172242)">
<path d="M40.2605 17.129V85.1062L16.0518 92V19.6941L40.2605 17.129Z" fill="#F2F2F2"/>
<path d="M16.0518 19.6941L7.46484 6.25895L30.654 4.41211L40.2606 17.129L16.0518 19.6941Z" fill="#F2F2F2"/>
<path d="M16.0515 19.6941V92L0.692383 84.4327V17.129L16.0515 19.6941Z" fill="#DBD9D9"/>
<path d="M7.46456 6.25894H7.0798L0.692383 17.129L16.0515 19.6941L7.46456 6.25894Z" fill="#C4C4C4"/>
<path d="M7.27696 6.63239L1.2666 16.8608L15.3139 19.2069L7.27696 6.63239Z" fill="#B2B1B1"/>
<path d="M30.654 4.41211V0L7.46484 1.23123V6.25895L30.654 4.41211Z" fill="#EAEAEA"/>
<path d="M7.46484 1.23123L7.08008 6.25895H7.46484V1.23123Z" fill="#C4C4C4"/>
<path d="M40.2603 17.129L16.7011 20.2306L16.0515 92L15.3138 20.0897L0.692383 17.129L16.0515 19.6941L40.2603 17.129Z" fill="white"/>
<path d="M1.2666 16.8608L10.3168 11.3884L7.27695 6.63239L1.2666 16.8608Z" fill="#8E8E8E"/>
<path d="M29.0788 14.2195C29.9276 12.7063 28.553 10.3225 26.0084 8.8951C23.4638 7.46774 20.7129 7.53733 19.8641 9.05055C19.0153 10.5638 20.3899 12.9476 22.9345 14.3749C25.4791 15.8023 28.23 15.7327 29.0788 14.2195Z" fill="#DBD9D9"/>
<path d="M29.0788 13.9873C29.9276 12.4741 28.553 10.0903 26.0084 8.66289C23.4638 7.23553 20.7129 7.30512 19.8641 8.81834C19.0153 10.3316 20.3899 12.7154 22.9345 14.1427C25.4791 15.5701 28.23 15.5005 29.0788 13.9873Z" fill="white"/>
<path opacity="0.44" d="M29.2556 13.4276C30.0593 11.995 28.7577 9.73807 26.3485 8.38666C23.9393 7.03524 21.3348 7.10105 20.5312 8.53365C19.7276 9.96624 21.0292 12.2231 23.4384 13.5746C25.8476 14.926 28.452 14.8602 29.2556 13.4276Z" fill="#444444"/>
<path d="M20.7758 8.45122L20.7773 8.44865C20.7852 8.43369 20.7929 8.41873 20.801 8.40398C20.8363 8.34092 20.8754 8.28064 20.9177 8.22314L22.2458 6.09329L24.7033 7.5402C25.2753 7.69688 25.8649 7.93693 26.4431 8.26119C27.1269 8.64467 27.7185 9.1036 28.1941 9.59545L30.5976 11.0105L29.2717 13.1333C29.2687 13.1389 29.2659 13.1446 29.2627 13.1502C29.2328 13.2036 29.1999 13.2547 29.165 13.3043L29.1629 13.3077C28.2852 14.5424 25.8659 14.5522 23.6211 13.2932C21.3106 11.9974 20.0507 9.84298 20.7762 8.45143L20.7758 8.45122Z" fill="#DBD9D9"/>
<path d="M30.3156 10.8446L28.5895 13.8306C28.4339 13.9246 28.2614 14.0024 28.0752 14.0638L30.0323 10.6781L30.3156 10.8448V10.8446Z" fill="#A0A0A0"/>
<path opacity="0.69" d="M30.3156 10.8446L28.5895 13.8306C28.4339 13.9246 28.2614 14.0024 28.0752 14.0638L30.0323 10.6781L30.3156 10.8448V10.8446Z" fill="white"/>
<path d="M29.7473 10.5101L27.6288 14.1749C27.4973 14.1982 27.3611 14.2147 27.2207 14.2245L29.4643 10.3434L29.7475 10.5101H29.7473Z" fill="#A0A0A0"/>
<path opacity="0.69" d="M29.7473 10.5101L27.6288 14.1749C27.4973 14.1982 27.3611 14.2147 27.2207 14.2245L29.4643 10.3434L29.7475 10.5101H29.7473Z" fill="white"/>
<path d="M29.179 10.1754L26.8324 14.2346C26.7118 14.2326 26.5889 14.2262 26.4639 14.2153L28.8958 10.0084L29.179 10.1752V10.1754Z" fill="#A0A0A0"/>
<path opacity="0.69" d="M29.179 10.1754L26.8324 14.2346C26.7118 14.2326 26.5889 14.2262 26.4639 14.2153L28.8958 10.0084L29.179 10.1752V10.1754Z" fill="white"/>
<path d="M28.6108 9.84083L26.1064 14.173C25.9931 14.1559 25.8783 14.1352 25.7627 14.111L28.3275 9.6741L28.6108 9.84083Z" fill="#A0A0A0"/>
<path opacity="0.69" d="M28.6108 9.84083L26.1064 14.173C25.9931 14.1559 25.8783 14.1352 25.7627 14.111L28.3275 9.6741L28.6108 9.84083Z" fill="white"/>
<path d="M28.0647 9.46654L25.4257 14.0317C25.318 14.0033 25.2094 13.9721 25.1006 13.9376L27.8185 9.23611C27.9036 9.31178 27.9854 9.38874 28.0649 9.46633L28.0647 9.46654Z" fill="#A0A0A0"/>
<path opacity="0.69" d="M28.0647 9.46654L25.4257 14.0317C25.318 14.0033 25.2094 13.9721 25.1006 13.9376L27.8185 9.23611C27.9036 9.31178 27.9854 9.38874 28.0649 9.46633L28.0647 9.46654Z" fill="white"/>
<path d="M27.5619 9.01874L24.7812 13.8289C24.6782 13.7912 24.5749 13.7508 24.4717 13.7079L27.2999 8.81546C27.3896 8.88194 27.4769 8.94991 27.5619 9.01874Z" fill="#A0A0A0"/>
<path opacity="0.69" d="M27.5619 9.01874L24.7812 13.8289C24.6782 13.7912 24.5749 13.7508 24.4717 13.7079L27.2999 8.81546C27.3896 8.88194 27.4769 8.94991 27.5619 9.01874Z" fill="white"/>
<path d="M27.019 8.64125L24.1677 13.5734C24.0692 13.5275 23.9704 13.4789 23.8721 13.4283L26.7345 8.47687L27.019 8.64125Z" fill="#A0A0A0"/>
<path opacity="0.69" d="M27.019 8.64125L24.1677 13.5734C24.0692 13.5275 23.9704 13.4789 23.8721 13.4283L26.7345 8.47687L27.019 8.64125Z" fill="white"/>
<path d="M26.2564 8.64125L23.5804 13.2705C23.4845 13.216 23.3902 13.16 23.2979 13.1027L25.9719 8.47687L26.2564 8.64125Z" fill="#A0A0A0"/>
<path opacity="0.69" d="M26.2564 8.64125L23.5804 13.2705C23.4845 13.216 23.3902 13.16 23.2979 13.1027L25.9719 8.47687L26.2564 8.64125Z" fill="white"/>
<path d="M25.4953 8.64125L23.0209 12.9219C22.9289 12.8595 22.8394 12.7956 22.752 12.7306L25.211 8.47687L25.4955 8.64125H25.4953Z" fill="#A0A0A0"/>
<path opacity="0.69" d="M25.4953 8.64125L23.0209 12.9219C22.9289 12.8595 22.8394 12.7956 22.752 12.7306L25.211 8.47687L25.4955 8.64125H25.4953Z" fill="white"/>
<path d="M24.7338 8.64125L22.4885 12.5254C22.4011 12.4542 22.3165 12.382 22.2344 12.3086L24.4495 8.47687L24.734 8.64125H24.7338Z" fill="#A0A0A0"/>
<path opacity="0.69" d="M24.7338 8.64125L22.4885 12.5254C22.4011 12.4542 22.3165 12.382 22.2344 12.3086L24.4495 8.47687L24.734 8.64125H24.7338Z" fill="white"/>
<path d="M23.9711 8.64125L21.9853 12.0763C21.903 11.9953 21.8239 11.9132 21.748 11.8303L23.6866 8.47665L23.9711 8.64103V8.64125Z" fill="#A0A0A0"/>
<path opacity="0.69" d="M23.9711 8.64125L21.9853 12.0763C21.903 11.9953 21.8239 11.9132 21.748 11.8303L23.6866 8.47665L23.9711 8.64103V8.64125Z" fill="white"/>
<path d="M23.2102 8.64125L21.5198 11.5654C21.4435 11.4718 21.3715 11.3775 21.3037 11.2826L22.9257 8.47665L23.2102 8.64103V8.64125Z" fill="#A0A0A0"/>
<path opacity="0.69" d="M23.2102 8.64125L21.5198 11.5654C21.4435 11.4718 21.3715 11.3775 21.3037 11.2826L22.9257 8.47665L23.2102 8.64103V8.64125Z" fill="white"/>
<path d="M23.4958 6.82923L21.0996 10.9744C21.0316 10.8626 20.9696 10.7506 20.9141 10.6386L23.2126 6.66251L23.4958 6.82923Z" fill="#A0A0A0"/>
<path opacity="0.69" d="M23.4958 6.82923L21.0996 10.9744C21.0316 10.8626 20.9696 10.7506 20.9141 10.6386L23.2126 6.66251L23.4958 6.82923Z" fill="white"/>
<path d="M22.927 6.49473L20.7501 10.2604C20.6961 10.113 20.6539 9.96653 20.624 9.82225L22.6438 6.32822L22.927 6.49495V6.49473Z" fill="#A0A0A0"/>
<path opacity="0.69" d="M22.927 6.49473L20.7501 10.2604C20.6961 10.113 20.6539 9.96653 20.624 9.82225L22.6438 6.32822L22.927 6.49495V6.49473Z" fill="white"/>
<path d="M20.7755 8.45122L20.777 8.44887C20.785 8.43391 20.7926 8.41894 20.8008 8.40419C20.836 8.34114 20.8752 8.28086 20.9175 8.22336L22.2455 6.09351L22.359 6.16041L20.5723 9.25152C20.5817 8.96701 20.6475 8.69747 20.7758 8.45165L20.7755 8.45122Z" fill="#A0A0A0"/>
<path opacity="0.69" d="M20.7755 8.45122L20.777 8.44887C20.785 8.43391 20.7926 8.41894 20.8008 8.40419C20.836 8.34114 20.8752 8.28086 20.9175 8.22336L22.2455 6.09351L22.359 6.16041L20.5723 9.25152C20.5817 8.96701 20.6475 8.69747 20.7758 8.45165L20.7755 8.45122Z" fill="white"/>
<path d="M30.5974 11.0117C31.3768 9.62221 30.1145 7.4333 27.7779 6.1226C25.4413 4.8119 22.9153 4.87574 22.1359 6.2652C21.3564 7.65466 22.6188 9.84357 24.9554 11.1543C27.292 12.465 29.818 12.4011 30.5974 11.0117Z" fill="white"/>
<path d="M28.3343 11.4162C29.2509 11.4162 29.9443 11.1172 30.2368 10.5958C30.5206 10.0899 30.436 9.39346 29.9984 8.63506C29.5119 7.79137 28.6657 7.0024 27.6159 6.4135C26.6085 5.84855 25.5314 5.53732 24.5829 5.53732C23.6345 5.53732 22.9729 5.83637 22.6805 6.35771C22.3967 6.86367 22.4813 7.56008 22.9189 8.31849C23.4054 9.16217 24.2516 9.95114 25.3014 10.54C26.3088 11.105 27.3859 11.4162 28.3341 11.4162H28.3343Z" fill="#F2F2F2"/>
<path opacity="0.4" d="M27.6157 6.52487C26.6083 5.95992 25.5312 5.64869 24.5827 5.64869C23.6343 5.64869 22.9727 5.94773 22.6803 6.46908C22.5784 6.65077 22.5243 6.85726 22.5166 7.08234C22.5076 6.81387 22.5617 6.56912 22.6803 6.35793C22.9727 5.83658 23.6662 5.53754 24.5827 5.53754C25.4993 5.53754 26.6083 5.84876 27.6157 6.41372C28.6655 7.00261 29.5117 7.79158 29.9982 8.63527C30.2784 9.12113 30.4137 9.58156 30.4001 9.98278C30.3877 9.60849 30.2528 9.18804 29.9982 8.74642C29.5117 7.90273 28.6655 7.11376 27.6157 6.52487Z" fill="#444444"/>
<path d="M38.3293 65.5477C37.9811 65.5169 37.6168 65.5246 37.3015 65.6753C36.615 66.0038 36.3993 66.8586 36.2614 67.607C36.0733 68.6266 35.8854 69.6464 35.6975 70.6662C35.5834 71.2844 35.2991 72.0556 34.6702 72.0595C34.4103 72.0612 34.1715 71.915 33.9774 71.7421C33.327 71.1613 33.0474 70.2821 32.5788 69.5466C32.1105 68.8113 31.232 68.163 30.4178 68.4759C29.5448 68.8117 29.3798 69.9608 29.4031 70.8958C29.4262 71.8308 29.411 72.9483 28.6263 73.4574C27.764 74.0175 26.5591 73.3598 26.0809 72.4496C25.6025 71.5392 25.5923 70.4657 25.3789 69.4602C25.1423 68.3455 24.6426 67.2878 23.9316 66.3976C23.4366 65.7775 22.7538 65.2035 21.9608 65.2215C20.7229 65.2495 19.9859 66.6692 19.9229 67.9056C19.8598 69.142 20.1832 70.4149 19.8326 71.6023C19.4821 72.7895 17.9711 73.7608 17.0132 72.9765C16.6456 72.6755 16.3839 72.1565 16.0518 71.8457V91.9998L40.2605 85.106V66.0932C39.653 65.8005 39.0028 65.6073 38.3293 65.5475V65.5477Z" fill="#6FBFDB"/>
<path d="M15.3812 71.5967C14.4687 71.7239 14.6602 73.3116 13.8488 73.7479C13.1957 74.0993 12.4143 73.3926 12.2807 72.6633C12.1471 71.9335 12.3824 71.1848 12.3326 70.4447C12.2747 69.5793 11.8025 68.7507 11.0879 68.2591C10.9368 68.1552 10.7658 68.0631 10.5826 68.0686C10.1373 68.0817 9.92359 68.6094 9.81907 69.0423C9.60018 69.9505 9.3813 70.8588 9.1622 71.7672C9.08995 72.0671 8.99761 72.3965 8.73725 72.5626C8.36682 72.7993 7.8429 72.5502 7.63107 72.165C7.41946 71.7801 7.43249 71.3156 7.4513 70.8763C7.52249 69.212 7.59388 67.5477 7.66485 65.8834C7.68622 65.3775 7.7046 64.8514 7.50453 64.3861C7.30446 63.921 6.8171 63.5373 6.31926 63.6292C5.40418 63.7983 5.40931 65.0917 5.54611 66.0123C5.75815 67.4381 5.71519 68.9012 5.41957 70.3118C5.34967 70.6453 5.22184 71.0259 4.89972 71.1358C4.6648 71.2158 4.4038 71.1159 4.20416 70.9689C2.72113 69.8755 4.01926 67.2538 2.91393 65.7798C2.78162 65.6032 2.60463 65.4437 2.38746 65.4053C1.99522 65.336 1.65578 65.6714 1.42257 65.9942C1.13785 66.3883 0.893098 66.8111 0.692383 67.254V84.4331L16.0515 92.0002V71.8461C15.8619 71.6689 15.6492 71.5595 15.381 71.5969L15.3812 71.5967Z" fill="#62AFC4"/>
<path opacity="0.1" d="M0.692383 83.6813V84.4327L16.0515 92L40.2603 85.1062V84.4771L16.0515 91.2534L16.0438 91.2555L0.692383 83.6813Z" fill="black"/>
<path d="M60.4501 87.4922V88.8217C60.4501 88.8997 60.4398 88.9769 60.4195 89.053C60.0532 90.4445 56.411 91.5368 51.9717 91.5368C50.8861 91.5368 49.8479 91.4716 48.8937 91.3524C45.7329 90.958 43.4932 89.9736 43.4932 88.8217V87.4922H44.5773C46.0302 86.6649 48.7973 86.1064 51.9717 86.1064C53.1604 86.1064 54.2921 86.1848 55.3187 86.3261C57.0339 86.5625 58.4566 86.9749 59.3655 87.4922H60.4501Z" fill="#87B6C9"/>
<path d="M30.5973 66.7806C30.5973 66.7896 30.5967 66.7985 30.5967 66.8077C30.5967 78.7305 38.5471 88.5957 48.8941 90.2491C49.8992 90.4097 50.9267 90.493 51.9719 90.493C63.7772 90.493 73.3474 79.8887 73.3474 66.8077C73.3474 66.7987 73.3472 66.7898 73.347 66.7806H30.5971H30.5973Z" fill="#9DCBE1"/>
<path d="M73.3478 66.8075C73.3478 76.5505 68.0384 84.9194 60.451 88.5562C60.3766 88.5919 60.3018 88.6272 60.2269 88.662C60.3201 88.7892 60.3853 88.9196 60.4204 89.053C60.054 90.4445 56.4119 91.5368 51.9726 91.5368C50.8869 91.5368 49.8487 91.4716 48.8945 91.3523V90.2489C48.8945 90.2489 52.3033 89.4801 55.3196 86.3261C58.1939 83.3207 60.712 78.15 59.5848 69.4151C59.0359 65.1606 59.6177 62.4525 60.8238 60.7968C68.2118 61.836 73.3478 64.1367 73.3478 66.8075Z" fill="#87B6C9"/>
<path d="M51.9721 73.4094C63.7775 73.4094 73.3476 70.4536 73.3476 66.8076C73.3476 63.1615 63.7775 60.2057 51.9721 60.2057C40.1668 60.2057 30.5967 63.1615 30.5967 66.8076C30.5967 70.4536 40.1668 73.4094 51.9721 73.4094Z" fill="#C3ECFC"/>
<path d="M71.5667 66.8075C71.5667 67.203 71.4336 67.5892 71.1798 67.9624C69.3742 70.6194 61.4606 72.62 51.9718 72.62C42.4831 72.62 34.5696 70.6194 32.7638 67.9624C32.5101 67.5892 32.377 67.203 32.377 66.8075C32.377 63.5974 41.1499 60.9951 51.9718 60.9951C62.7938 60.9951 71.5667 63.5974 71.5667 66.8075Z" fill="#9DCBE1"/>
<path d="M71.1797 67.9624C69.3741 70.6194 61.4604 72.6199 51.9717 72.6199C42.4829 72.6199 34.5695 70.6194 32.7637 67.9624C34.5693 65.3055 42.4829 63.3049 51.9717 63.3049C61.4604 63.3049 69.3739 65.3055 71.1797 67.9624Z" fill="white"/>
<path d="M71.9972 50.3577L63.7766 66.3317C63.6315 66.3149 63.4949 66.2926 63.3666 66.2663C62.8626 66.1637 62.4853 66 62.2207 65.8482L69.0286 48.9977C69.3313 48.2483 70.1363 47.8328 70.9227 48.02C71.1642 48.0775 71.3782 48.1844 71.5577 48.3266C72.1462 48.7923 72.3687 49.6352 71.9972 50.3577Z" fill="#BAB9B9"/>
<path d="M71.7069 50.0599L63.3668 66.2665C62.8628 66.1639 62.4855 66.0002 62.2209 65.8484C62.0836 65.77 61.9766 65.6945 61.8975 65.6321L68.7385 48.6997C69.0411 47.9505 69.8461 47.535 70.6325 47.7222C71.022 47.815 71.3399 48.0365 71.5581 48.3265C71.9185 48.8056 72.0093 49.4725 71.7071 50.0596L71.7069 50.0599Z" fill="#DBD9D9"/>
<path d="M45.3915 66.1774C45.294 66.1883 45.1187 66.2201 45.0354 66.2612C44.952 66.3022 44.4804 66.4503 44.5048 66.5249C44.5196 66.5702 44.8562 66.6468 44.9146 66.6572C45.2966 66.7256 45.5539 66.7502 45.847 66.7697C46.2196 66.7945 46.5936 66.8022 46.9675 66.8101C47.4298 66.8197 47.8922 66.8291 48.3545 66.8387C49.0537 66.853 49.7527 66.8676 50.4521 66.8721C50.7227 66.8738 50.9961 66.8738 51.2597 66.8259C51.3896 66.8024 51.5158 66.7673 51.6376 66.725C51.6868 66.7079 51.7436 66.6778 51.7342 66.6363C51.7287 66.6119 51.7011 66.595 51.675 66.5809C51.1143 66.2798 50.3906 66.2584 49.7104 66.2473C48.2707 66.224 46.8311 66.2007 45.3917 66.1774" fill="#EDEDED"/>
<path d="M50.7293 66.4444C50.7293 66.4732 50.7276 66.5019 50.7246 66.5303C49.9093 66.6224 48.9996 66.6739 48.0398 66.6739C47.0801 66.6739 46.1705 66.6224 45.3553 66.5303C45.3523 66.5019 45.3506 66.4732 45.3506 66.4444C45.3506 65.6443 46.5547 64.9955 48.0398 64.9955C49.525 64.9955 50.7291 65.6443 50.7291 66.4444H50.7293Z" fill="#E9BA66"/>
<path d="M50.439 65.789C49.995 66.1582 49.0874 66.4112 48.04 66.4112C46.9927 66.4112 46.085 66.1582 45.6409 65.789C45.4553 65.9859 45.3506 66.2084 45.3506 66.4444C45.3506 66.4732 45.3523 66.5019 45.3553 66.5303C46.1703 66.6224 47.0801 66.6739 48.0398 66.6739C48.9996 66.6739 49.9093 66.6224 50.7246 66.5303C50.7276 66.5019 50.7293 66.4732 50.7293 66.4444C50.7293 66.2086 50.6246 65.9859 50.439 65.789Z" fill="#D6A75B"/>
<path opacity="0.22" d="M48.0403 65.867C48.8532 65.867 49.5122 65.6943 49.5122 65.4812C49.5122 65.2681 48.8532 65.0954 48.0403 65.0954C47.2274 65.0954 46.5684 65.2681 46.5684 65.4812C46.5684 65.6943 47.2274 65.867 48.0403 65.867Z" fill="white"/>
<path d="M60.0946 68.8907C59.9971 68.9016 59.8218 68.9335 59.7385 68.9745C59.6551 69.0156 59.1836 69.1637 59.2079 69.2383C59.2227 69.2836 59.5594 69.3602 59.6177 69.3706C59.9997 69.439 60.2571 69.4636 60.5501 69.4831C60.9227 69.5079 61.2968 69.5156 61.6706 69.5235C62.133 69.5331 62.5953 69.5425 63.0577 69.5521C63.7569 69.5664 64.4558 69.581 65.1552 69.5854C65.4259 69.5872 65.6992 69.5872 65.9628 69.5393C66.0928 69.5158 66.2189 69.4807 66.3407 69.4384C66.3899 69.4213 66.4467 69.3912 66.4373 69.3497C66.4318 69.3253 66.4042 69.3084 66.3781 69.2943C65.8174 68.9931 65.0937 68.9718 64.4135 68.9606C62.9739 68.9373 61.5342 68.914 60.0948 68.8907" fill="#EDEDED"/>
<path d="M65.4324 69.1577C65.4324 69.1866 65.4307 69.2152 65.4277 69.2437C64.6125 69.3358 63.7027 69.3873 62.743 69.3873C61.7832 69.3873 60.8737 69.3358 60.0584 69.2437C60.0554 69.2152 60.0537 69.1866 60.0537 69.1577C60.0537 68.3577 61.2578 67.7089 62.7427 67.7089C64.2277 67.7089 65.432 68.3577 65.432 69.1577H65.4324Z" fill="#E9BA66"/>
<path d="M65.1421 68.5024C64.6982 68.8715 63.7906 69.1246 62.7432 69.1246C61.6958 69.1246 60.7882 68.8715 60.344 68.5024C60.1584 68.6992 60.0537 68.9218 60.0537 69.1578C60.0537 69.1866 60.0554 69.2153 60.0584 69.2437C60.8735 69.3358 61.7832 69.3873 62.743 69.3873C63.7027 69.3873 64.6125 69.3358 65.4277 69.2437C65.4307 69.2153 65.4324 69.1866 65.4324 69.1578C65.4324 68.922 65.3277 68.6992 65.1421 68.5024Z" fill="#D6A75B"/>
<path opacity="0.22" d="M62.7434 68.5804C63.5563 68.5804 64.2153 68.4076 64.2153 68.1945C64.2153 67.9815 63.5563 67.8087 62.7434 67.8087C61.9305 67.8087 61.2715 67.9815 61.2715 68.1945C61.2715 68.4076 61.9305 68.5804 62.7434 68.5804Z" fill="white"/>
<path d="M53.5767 68.8262C53.5205 68.8324 53.4194 68.8508 53.3713 68.8745C53.3232 68.8983 53.0509 68.9838 53.065 69.0267C53.0735 69.0528 53.2678 69.0971 53.3014 69.103C53.5218 69.1426 53.6703 69.1567 53.8396 69.168C54.0547 69.1823 54.2706 69.1868 54.4862 69.1913C54.753 69.1969 55.02 69.2022 55.2868 69.2078C55.6903 69.2161 56.0937 69.2245 56.4975 69.227C56.6535 69.2281 56.8115 69.2281 56.9634 69.2005C57.0385 69.1868 57.1114 69.1667 57.1817 69.1424C57.2101 69.1325 57.2428 69.115 57.2375 69.0913C57.2343 69.0772 57.2182 69.0673 57.2033 69.0594C56.8796 68.8857 56.462 68.8733 56.0693 68.8668C55.2384 68.8534 54.4076 68.8399 53.5767 68.8267" fill="#EDEDED"/>
<path d="M56.6579 68.9804C56.6579 68.997 56.657 69.0135 56.6553 69.03C56.1848 69.0832 55.6596 69.1129 55.1058 69.1129C54.5519 69.1129 54.0268 69.0832 53.5563 69.03C53.5546 69.0135 53.5537 68.997 53.5537 68.9804C53.5537 68.5185 54.2486 68.1442 55.1058 68.1442C55.9629 68.1442 56.6579 68.5187 56.6579 68.9804Z" fill="#E9BA66"/>
<path d="M56.4895 68.6022C56.2332 68.8153 55.7095 68.9613 55.105 68.9613C54.5005 68.9613 53.9766 68.8153 53.7203 68.6022C53.6132 68.7157 53.5527 68.8444 53.5527 68.9804C53.5527 68.997 53.5536 69.0135 53.5553 69.03C54.0258 69.0832 54.5508 69.1129 55.1048 69.1129C55.6589 69.1129 56.1838 69.0832 56.6543 69.03C56.656 69.0135 56.6569 68.997 56.6569 68.9804C56.6569 68.8442 56.5964 68.7157 56.4893 68.6022H56.4895Z" fill="#D6A75B"/>
<path opacity="0.22" d="M55.1053 68.6474C55.5745 68.6474 55.9548 68.5477 55.9548 68.4246C55.9548 68.3016 55.5745 68.2019 55.1053 68.2019C54.6362 68.2019 54.2559 68.3016 54.2559 68.4246C54.2559 68.5477 54.6362 68.6474 55.1053 68.6474Z" fill="white"/>
<path d="M38.6402 69.7261C38.584 69.7323 38.4829 69.7507 38.4348 69.7744C38.3867 69.7982 38.1144 69.8837 38.1285 69.9266C38.137 69.9527 38.3313 69.997 38.3649 70.0029C38.5853 70.0425 38.7338 70.0566 38.9031 70.0679C39.1181 70.0823 39.334 70.0867 39.5497 70.0912C39.8165 70.0968 40.0835 70.1021 40.3502 70.1077C40.7538 70.116 41.1572 70.1244 41.5609 70.1269C41.717 70.128 41.8749 70.128 42.0269 70.1004C42.1019 70.0867 42.1748 70.0666 42.2452 70.0423C42.2736 70.0324 42.3063 70.0149 42.301 69.9912C42.2977 69.9771 42.2817 69.9672 42.2667 69.9593C41.9431 69.7856 41.5254 69.7732 41.1328 69.7668L38.6402 69.7266" fill="#EDEDED"/>
<path d="M41.7213 69.8803C41.7213 69.8969 41.7205 69.9134 41.7188 69.9299C41.2483 69.9829 40.7231 70.0128 40.1693 70.0128C39.6154 70.0128 39.0904 69.9831 38.6198 69.9299C38.618 69.9134 38.6172 69.8969 38.6172 69.8803C38.6172 69.4183 39.3121 69.0441 40.1693 69.0441C41.0264 69.0441 41.7213 69.4186 41.7213 69.8803Z" fill="#E9BA66"/>
<path d="M41.553 69.5021C41.2967 69.7152 40.773 69.8612 40.1685 69.8612C39.564 69.8612 39.0401 69.7152 38.7838 69.5021C38.6767 69.6156 38.6162 69.7443 38.6162 69.8803C38.6162 69.8969 38.6171 69.9134 38.6188 69.9299C39.0892 69.9829 39.6142 70.0128 40.1683 70.0128C40.7223 70.0128 41.2473 69.9831 41.7178 69.9299C41.7195 69.9134 41.7204 69.8969 41.7204 69.8803C41.7204 69.7441 41.6599 69.6156 41.5528 69.5021H41.553Z" fill="#D6A75B"/>
<path opacity="0.22" d="M40.1688 69.5473C40.6379 69.5473 41.0183 69.4475 41.0183 69.3245C41.0183 69.2015 40.6379 69.1018 40.1688 69.1018C39.6997 69.1018 39.3193 69.2015 39.3193 69.3245C39.3193 69.4475 39.6997 69.5473 40.1688 69.5473Z" fill="white"/>
<path d="M51.0562 64.5943C51 64.6005 50.8989 64.6189 50.8508 64.6426C50.8027 64.6663 50.5304 64.7518 50.5445 64.7948C50.553 64.8209 50.7473 64.8651 50.7809 64.8711C51.0013 64.9107 51.15 64.9248 51.3191 64.9361C51.5342 64.9504 51.7501 64.9549 51.9657 64.9594C52.2325 64.965 52.4995 64.9703 52.7662 64.9759C53.1698 64.9842 53.5732 64.9925 53.9769 64.9951C54.133 64.9962 54.291 64.9962 54.4429 64.9686C54.518 64.9549 54.5909 64.9348 54.6612 64.9104C54.6896 64.9006 54.7223 64.8831 54.717 64.8594C54.7138 64.8453 54.6977 64.8354 54.6828 64.8275C54.3591 64.6537 53.9415 64.6413 53.5488 64.6349L51.0562 64.5947" fill="#EDEDED"/>
<path d="M54.1373 64.7484C54.1373 64.7651 54.1365 64.7816 54.1348 64.798C53.6643 64.8513 53.1391 64.881 52.5853 64.881C52.0314 64.881 51.5062 64.8513 51.0358 64.798C51.0341 64.7816 51.0332 64.7651 51.0332 64.7484C51.0332 64.2865 51.7281 63.9122 52.5853 63.9122C53.4424 63.9122 54.1373 64.2867 54.1373 64.7484Z" fill="#E9BA66"/>
<path d="M53.969 64.3703C53.7127 64.5834 53.189 64.7294 52.5845 64.7294C51.98 64.7294 51.4561 64.5834 51.1998 64.3703C51.0927 64.4838 51.0322 64.6125 51.0322 64.7484C51.0322 64.7651 51.0331 64.7816 51.0348 64.798C51.5053 64.8512 52.0302 64.881 52.5843 64.881C53.1383 64.881 53.6633 64.8512 54.1338 64.798C54.1355 64.7816 54.1364 64.7651 54.1364 64.7484C54.1364 64.6123 54.0759 64.4838 53.9688 64.3703H53.969Z" fill="#D6A75B"/>
<path opacity="0.22" d="M52.5848 64.4154C53.054 64.4154 53.4343 64.3157 53.4343 64.1927C53.4343 64.0697 53.054 63.97 52.5848 63.97C52.1157 63.97 51.7354 64.0697 51.7354 64.1927C51.7354 64.3157 52.1157 64.4154 52.5848 64.4154Z" fill="white"/>
<path d="M38.6861 67.4626C38.6299 67.4688 38.5288 67.4872 38.4807 67.511C38.4326 67.5347 38.1602 67.6202 38.1744 67.6631C38.1829 67.6892 38.3772 67.7335 38.4108 67.7395C38.6312 67.779 38.7799 67.7931 38.949 67.8044C39.164 67.8188 39.3799 67.8232 39.5956 67.8277C39.8624 67.8333 40.1294 67.8386 40.3961 67.8442C40.7997 67.8525 41.203 67.8609 41.6068 67.8634C41.7629 67.8645 41.9208 67.8645 42.0728 67.8369C42.1478 67.8233 42.2207 67.8032 42.2911 67.7788C42.3195 67.769 42.3522 67.7514 42.3468 67.7277C42.3436 67.7136 42.3276 67.7038 42.3126 67.6959C41.989 67.5221 41.5713 67.5097 41.1787 67.5033L38.6861 67.4631" fill="#EDEDED"/>
<path d="M41.7672 67.6168C41.7672 67.6335 41.7664 67.6499 41.7647 67.6664C41.2942 67.7196 40.769 67.7493 40.2152 67.7493C39.6613 67.7493 39.1361 67.7196 38.6657 67.6664C38.6639 67.6499 38.6631 67.6335 38.6631 67.6168C38.6631 67.1549 39.358 66.7806 40.2152 66.7806C41.0723 66.7806 41.7672 67.1551 41.7672 67.6168Z" fill="#E9BA66"/>
<path d="M41.5989 67.2385C41.3426 67.4516 40.8189 67.5976 40.2144 67.5976C39.6099 67.5976 39.086 67.4516 38.8297 67.2385C38.7226 67.352 38.6621 67.4806 38.6621 67.6166C38.6621 67.6333 38.663 67.6497 38.6647 67.6662C39.1351 67.7194 39.6601 67.7491 40.2142 67.7491C40.7682 67.7491 41.2932 67.7194 41.7637 67.6662C41.7654 67.6497 41.7663 67.6333 41.7663 67.6166C41.7663 67.4804 41.7058 67.352 41.5987 67.2385H41.5989Z" fill="#D6A75B"/>
<path opacity="0.22" d="M40.2147 67.2835C40.6838 67.2835 41.0642 67.1838 41.0642 67.0608C41.0642 66.9378 40.6838 66.8381 40.2147 66.8381C39.7456 66.8381 39.3652 66.9378 39.3652 67.0608C39.3652 67.1838 39.7456 67.2835 40.2147 67.2835Z" fill="white"/>
<path d="M56.0486 65.7913C56.0162 65.795 55.9578 65.8056 55.93 65.8193C55.9022 65.833 55.7451 65.8824 55.7532 65.9072C55.7582 65.9224 55.8704 65.9478 55.8898 65.9512C56.017 65.9741 56.1027 65.9822 56.2004 65.9886C56.3246 65.997 56.4492 65.9995 56.5736 66.0021C56.7277 66.0053 56.8816 66.0085 57.0358 66.0117C57.2685 66.0164 57.5015 66.0213 57.7345 66.0228C57.8247 66.0235 57.9158 66.0235 58.0034 66.0074C58.0466 65.9995 58.0887 65.988 58.1293 65.9739C58.1458 65.9681 58.1646 65.9581 58.1614 65.9444C58.1595 65.9362 58.1503 65.9307 58.1417 65.926C57.9549 65.8257 57.7138 65.8185 57.4872 65.8148C57.0078 65.8071 56.5281 65.7992 56.0486 65.7915" fill="#EDEDED"/>
<path d="M57.8268 65.8802C57.8268 65.8899 57.8262 65.8995 57.8254 65.9089C57.5539 65.9394 57.2508 65.9568 56.931 65.9568C56.6112 65.9568 56.3083 65.9397 56.0366 65.9089C56.0356 65.8995 56.0352 65.8899 56.0352 65.8802C56.0352 65.6137 56.4362 65.3976 56.931 65.3976C57.4258 65.3976 57.8268 65.6137 57.8268 65.8802Z" fill="#E9BA66"/>
<path d="M57.73 65.662C57.5821 65.7849 57.2798 65.8693 56.931 65.8693C56.5822 65.8693 56.2797 65.7851 56.1318 65.662C56.07 65.7276 56.0352 65.8018 56.0352 65.8802C56.0352 65.8898 56.0358 65.8995 56.0366 65.9089C56.3081 65.9394 56.6112 65.9568 56.931 65.9568C57.2508 65.9568 57.5537 65.9397 57.8254 65.9089C57.8264 65.8995 57.8268 65.8898 57.8268 65.8802C57.8268 65.8016 57.792 65.7276 57.7302 65.662H57.73Z" fill="#D6A75B"/>
<path opacity="0.22" d="M56.9308 65.6878C57.2016 65.6878 57.4211 65.6303 57.4211 65.5594C57.4211 65.4884 57.2016 65.4309 56.9308 65.4309C56.66 65.4309 56.4404 65.4884 56.4404 65.5594C56.4404 65.6303 56.66 65.6878 56.9308 65.6878Z" fill="white"/>
<path d="M58.4578 71.042C58.4253 71.0456 58.367 71.0563 58.3392 71.07C58.3114 71.0837 58.1543 71.133 58.1624 71.1578C58.1673 71.173 58.2795 71.1985 58.299 71.2019C58.4262 71.2248 58.5119 71.2329 58.6096 71.2393C58.7338 71.2476 58.8584 71.2502 58.9828 71.2528C59.1369 71.256 59.2908 71.2592 59.4449 71.2624C59.6777 71.2671 59.9107 71.272 60.1437 71.2735C60.2339 71.2741 60.325 71.2741 60.4126 71.2581C60.4558 71.2502 60.4979 71.2386 60.5385 71.2245C60.555 71.2188 60.5738 71.2087 60.5706 71.195C60.5686 71.1869 60.5595 71.1814 60.5509 71.1767C60.3641 71.0764 60.123 71.0691 59.8964 71.0655C59.4169 71.0578 58.9373 71.0499 58.4578 71.0422" fill="#EDEDED"/>
<path d="M60.236 71.1309C60.236 71.1405 60.2354 71.1501 60.2345 71.1596C59.9631 71.1901 59.66 71.2074 59.3402 71.2074C59.0204 71.2074 58.7175 71.1903 58.4458 71.1596C58.4448 71.1501 58.4443 71.1405 58.4443 71.1309C58.4443 70.8644 58.8453 70.6483 59.3402 70.6483C59.835 70.6483 60.236 70.8644 60.236 71.1309Z" fill="#E9BA66"/>
<path d="M60.1392 70.9127C59.9913 71.0356 59.689 71.12 59.3402 71.12C58.9913 71.12 58.6889 71.0358 58.541 70.9127C58.4792 70.9783 58.4443 71.0525 58.4443 71.1309C58.4443 71.1405 58.445 71.1501 58.4458 71.1595C58.7173 71.1901 59.0204 71.2074 59.3402 71.2074C59.66 71.2074 59.9628 71.1903 60.2345 71.1595C60.2356 71.1501 60.236 71.1405 60.236 71.1309C60.236 71.0522 60.2012 70.9781 60.1394 70.9127H60.1392Z" fill="#D6A75B"/>
<path opacity="0.22" d="M59.34 70.9385C59.6108 70.9385 59.8303 70.881 59.8303 70.81C59.8303 70.7391 59.6108 70.6816 59.34 70.6816C59.0691 70.6816 58.8496 70.7391 58.8496 70.81C58.8496 70.881 59.0691 70.9385 59.34 70.9385Z" fill="white"/>
<path d="M52.6443 72.0424C52.6119 72.0461 52.5535 72.0567 52.5257 72.0704C52.4979 72.0841 52.3408 72.1335 52.3489 72.1583C52.3539 72.1734 52.4661 72.1989 52.4855 72.2023C52.6127 72.2252 52.6984 72.2333 52.7961 72.2397C52.9203 72.2481 53.0449 72.2506 53.1693 72.2532C53.3234 72.2564 53.4773 72.2596 53.6315 72.2628C53.8642 72.2675 54.0972 72.2724 54.3302 72.2739C54.4204 72.2746 54.5115 72.2746 54.5991 72.2585C54.6423 72.2506 54.6844 72.2391 54.725 72.225C54.7415 72.2192 54.7603 72.2091 54.7571 72.1955C54.7552 72.1873 54.746 72.1818 54.7374 72.1771C54.5506 72.0768 54.3095 72.0696 54.0829 72.0659C53.6035 72.0582 53.1238 72.0503 52.6443 72.0426" fill="#EDEDED"/>
<path d="M54.4225 72.1313C54.4225 72.141 54.4219 72.1506 54.4211 72.16C54.1496 72.1906 53.8465 72.2079 53.5267 72.2079C53.2069 72.2079 52.904 72.1908 52.6324 72.16C52.6313 72.1506 52.6309 72.141 52.6309 72.1313C52.6309 71.8648 53.0319 71.6487 53.5267 71.6487C54.0215 71.6487 54.4225 71.8648 54.4225 72.1313Z" fill="#E9BA66"/>
<path d="M54.3257 71.9131C54.1778 72.036 53.8756 72.1204 53.5267 72.1204C53.1779 72.1204 52.8754 72.0362 52.7275 71.9131C52.6657 71.9787 52.6309 72.0529 52.6309 72.1313C52.6309 72.1409 52.6315 72.1506 52.6324 72.16C52.9038 72.1905 53.2069 72.2079 53.5267 72.2079C53.8465 72.2079 54.1494 72.1908 54.4211 72.16C54.4221 72.1506 54.4225 72.1409 54.4225 72.1313C54.4225 72.0527 54.3877 71.9785 54.3259 71.9131H54.3257Z" fill="#D6A75B"/>
<path opacity="0.22" d="M53.5265 71.9389C53.7973 71.9389 54.0168 71.8814 54.0168 71.8105C54.0168 71.7395 53.7973 71.682 53.5265 71.682C53.2557 71.682 53.0361 71.7395 53.0361 71.8105C53.0361 71.8814 53.2557 71.9389 53.5265 71.9389Z" fill="white"/>
<path d="M44.7996 70.483C44.7671 70.4867 44.7088 70.4974 44.681 70.511C44.6532 70.5247 44.4961 70.5741 44.5042 70.5989C44.5091 70.6141 44.6213 70.6395 44.6408 70.6429C44.768 70.6658 44.8537 70.6739 44.9514 70.6803C45.0756 70.6887 45.2002 70.6912 45.3246 70.6938C45.4787 70.697 45.6326 70.7002 45.7867 70.7034C46.0195 70.7081 46.2525 70.713 46.4855 70.7145C46.5757 70.7152 46.6668 70.7152 46.7544 70.6991C46.7976 70.6912 46.8397 70.6797 46.8803 70.6656C46.8968 70.6598 46.9156 70.6498 46.9124 70.6361C46.9104 70.628 46.9013 70.6224 46.8927 70.6177C46.7059 70.5174 46.4648 70.5102 46.2382 70.5065C45.7587 70.4989 45.2791 70.4909 44.7996 70.4832" fill="#EDEDED"/>
<path d="M46.5778 70.572C46.5778 70.5816 46.5772 70.5912 46.5763 70.6006C46.3049 70.6312 46.0018 70.6485 45.682 70.6485C45.3622 70.6485 45.0593 70.6314 44.7876 70.6006C44.7866 70.5912 44.7861 70.5816 44.7861 70.572C44.7861 70.3054 45.1871 70.0893 45.682 70.0893C46.1768 70.0893 46.5778 70.3054 46.5778 70.572Z" fill="#E9BA66"/>
<path d="M46.481 70.3535C46.3331 70.4764 46.0308 70.5609 45.682 70.5609C45.3331 70.5609 45.0307 70.4766 44.8828 70.3535C44.821 70.4191 44.7861 70.4933 44.7861 70.5718C44.7861 70.5814 44.7868 70.591 44.7876 70.6004C45.0591 70.631 45.3622 70.6483 45.682 70.6483C46.0018 70.6483 46.3046 70.6312 46.5763 70.6004C46.5774 70.591 46.5778 70.5814 46.5778 70.5718C46.5778 70.4931 46.543 70.4189 46.4812 70.3535H46.481Z" fill="#D6A75B"/>
<path opacity="0.22" d="M45.6818 70.3796C45.9526 70.3796 46.1721 70.322 46.1721 70.2511C46.1721 70.1801 45.9526 70.1226 45.6818 70.1226C45.4109 70.1226 45.1914 70.1801 45.1914 70.2511C45.1914 70.322 45.4109 70.3796 45.6818 70.3796Z" fill="white"/>
<path d="M41.6678 65.512C41.6353 65.5156 41.5769 65.5263 41.5491 65.54C41.5214 65.5536 41.3643 65.603 41.3724 65.6278C41.3773 65.643 41.4895 65.6684 41.509 65.6719C41.6361 65.6947 41.7219 65.7028 41.8195 65.7093C41.9437 65.7176 42.0684 65.7202 42.1928 65.7227C42.3469 65.7259 42.5008 65.7291 42.6549 65.7323C42.8877 65.737 43.1207 65.742 43.3537 65.7435C43.4439 65.7441 43.5349 65.7441 43.6226 65.7281C43.6657 65.7202 43.7079 65.7086 43.7485 65.6945C43.7649 65.6887 43.7837 65.6787 43.7805 65.665C43.7786 65.6569 43.7694 65.6513 43.7609 65.6466C43.574 65.5464 43.3329 65.5391 43.1064 65.5355C42.6269 65.5278 42.1472 65.5199 41.6678 65.5122" fill="#EDEDED"/>
<path d="M43.446 65.6009C43.446 65.6105 43.4453 65.6201 43.4445 65.6295C43.173 65.6601 42.8699 65.6774 42.5501 65.6774C42.2304 65.6774 41.9275 65.6603 41.6558 65.6295C41.6547 65.6201 41.6543 65.6105 41.6543 65.6009C41.6543 65.3343 42.0553 65.1182 42.5501 65.1182C43.045 65.1182 43.446 65.3343 43.446 65.6009Z" fill="#E9BA66"/>
<path d="M43.3492 65.3826C43.2012 65.5055 42.899 65.59 42.5501 65.59C42.2013 65.59 41.8988 65.5058 41.7509 65.3826C41.6891 65.4483 41.6543 65.5224 41.6543 65.6009C41.6543 65.6105 41.6549 65.6201 41.6558 65.6295C41.9273 65.6601 42.2304 65.6774 42.5501 65.6774C42.8699 65.6774 43.1728 65.6603 43.4445 65.6295C43.4456 65.6201 43.446 65.6105 43.446 65.6009C43.446 65.5222 43.4111 65.448 43.3494 65.3826H43.3492Z" fill="#D6A75B"/>
<path opacity="0.22" d="M42.5499 65.4085C42.8207 65.4085 43.0403 65.351 43.0403 65.28C43.0403 65.2091 42.8207 65.1516 42.5499 65.1516C42.2791 65.1516 42.0596 65.2091 42.0596 65.28C42.0596 65.351 42.2791 65.4085 42.5499 65.4085Z" fill="white"/>
</g>
<defs>
<clipPath id="clip0_236_172242">
<rect width="72.6548" height="92" fill="white" transform="translate(0.692383)"/>
</clipPath>
</defs>
</svg>
