<svg width="96" height="92" viewBox="0 0 96 92" fill="none" xmlns="http://www.w3.org/2000/svg">
<g clip-path="url(#clip0_258_178627)">
<path d="M33.9335 68.689C33.2778 68.7115 32.6174 68.6994 31.9648 68.7653C30.951 68.8677 29.9388 68.7584 28.9281 68.7896C28.122 68.8156 27.3191 68.8365 26.5161 68.7688C25.5674 68.689 24.6156 68.656 23.6747 68.4513C22.7617 68.2517 21.8347 68.1286 20.9139 67.9793C20.7899 67.9585 20.6612 67.9845 20.5357 67.9741C20.4349 67.9655 20.314 67.9707 20.2411 67.9099C20.0412 67.7434 19.8149 67.7087 19.5823 67.6757C19.1405 67.6132 18.6988 67.5577 18.257 67.4866C17.9438 67.4362 17.6292 67.3807 17.3222 67.2957C16.8494 67.1656 16.3875 67.0025 15.9039 66.907C15.321 66.7925 14.7506 66.5947 14.1832 66.4021C13.3322 66.1141 12.4827 65.8157 11.6425 65.4877C11.224 65.3246 10.8241 65.0956 10.4226 64.8787C9.79479 64.5386 9.17163 64.1951 8.51593 63.9192C8.02453 63.7127 7.57034 63.3987 7.10065 63.1315C6.98749 63.0673 6.87898 62.9927 6.76582 62.9302C6.44185 62.7498 6.15197 62.5242 5.92875 62.1963C5.78769 61.9898 5.62647 61.7989 5.46836 61.6081C4.96147 61.0025 4.43907 60.4126 3.94768 59.7914C3.68416 59.4565 3.44699 59.0922 3.30127 58.6601C3.18966 58.3305 3.0238 58.0234 2.90289 57.6972C2.80678 57.4352 2.70912 57.1662 2.67037 56.8886C2.52155 55.8475 2.56961 54.8394 2.87189 53.8071C3.22532 52.6012 3.82522 51.5775 4.51348 50.6249C5.01417 49.9309 5.65593 49.3583 6.34264 48.8777C7.45873 48.0969 8.57948 47.3247 9.69868 46.5509C9.8971 46.4138 10.1079 46.2976 10.2986 46.1484C11.0395 45.5723 11.9138 45.3155 12.7075 44.8713C13.1245 44.6388 13.5322 44.3855 13.946 44.1495C14.0577 44.0853 14.1786 44.0454 14.2964 43.9934C14.8482 43.7505 15.397 43.4971 15.9535 43.2698C16.1689 43.1813 16.4015 43.1432 16.6278 43.0928C17.6462 42.869 18.6724 42.6799 19.6831 42.4196C20.6798 42.1628 21.7045 42.1455 22.6997 41.9043C22.74 41.8939 22.7834 41.8939 22.8268 41.8904C23.6282 41.8245 24.4296 41.7655 25.2295 41.6926C25.6713 41.6527 26.1115 41.5833 26.5533 41.5365C26.8029 41.5104 27.054 41.4844 27.3036 41.4844C28.2972 41.4844 29.2908 41.4671 30.2845 41.5035C31.2347 41.5382 32.1818 41.6336 33.1305 41.6996C34.4838 41.7933 35.8371 41.8991 37.1919 41.972C38.5668 42.0466 39.9263 42.2305 41.2749 42.5324C41.9787 42.6903 42.6809 42.8499 43.3847 43.0096C43.4668 43.0287 43.566 43.013 43.6327 43.0581C44.2233 43.4624 44.9255 43.4867 45.5486 43.7852C45.9362 43.9708 46.3687 43.9951 46.7655 44.1738C47.3344 44.4306 47.9188 44.644 48.497 44.8783C48.5559 44.9026 48.6257 44.9234 48.6675 44.9702C48.9636 45.2964 49.348 45.4578 49.7123 45.64C50.3525 45.9575 50.9462 46.3722 51.5415 46.7695C52.2638 47.2519 52.9474 47.8158 53.6186 48.3849C54.0387 48.7406 54.417 49.1622 54.7936 49.5769C54.9719 49.7747 55.13 50.0107 55.2494 50.2588C55.5408 50.8643 55.826 51.4751 56.0725 52.1049C56.2911 52.6602 56.5391 53.2206 56.5794 53.8348C56.6197 54.4473 56.6011 55.065 56.6073 55.6792C56.6089 55.8441 56.5856 56.0124 56.6104 56.1737C56.7298 56.9615 56.5143 57.6711 56.1826 58.3391C55.9159 58.877 55.5904 59.3785 55.3052 59.9042C54.9037 60.6451 54.3891 61.268 53.7721 61.785C53.149 62.3073 52.5227 62.8278 51.8949 63.3432C51.126 63.973 50.3029 64.4901 49.4085 64.8683C48.9729 65.0522 48.5296 65.2309 48.1203 65.4756C47.57 65.8053 46.9717 65.9684 46.3873 66.1748C45.1146 66.626 43.8032 66.9122 42.5042 67.2471C41.4346 67.523 40.3572 67.7607 39.2799 67.9915C38.5529 68.1476 37.8119 68.217 37.0896 68.3888C36.0463 68.6352 34.9891 68.6491 33.935 68.689H33.9335Z" fill="#D3E9F2"/>
<path d="M54.031 60.9157C54.1628 61.7035 53.9597 62.4704 53.9117 63.246C53.9039 63.3605 53.8605 63.4785 53.8156 63.5843C53.473 64.3807 53.0684 65.1199 52.4344 65.6855C51.7337 66.3084 50.9649 66.8116 50.2069 67.3321C49.0861 68.1025 47.9204 68.7775 46.7175 69.3743C46.2726 69.5947 45.851 69.8914 45.3921 70.0597C44.5706 70.3616 43.7474 70.6635 42.8825 70.7971C42.4655 70.8613 42.0594 71.014 41.6486 71.1268C41.5664 71.1493 41.4843 71.1806 41.4005 71.1962C40.5619 71.335 39.7264 71.5102 38.8831 71.6005C37.6244 71.7358 36.3595 71.8052 35.0992 71.9128C34.783 71.9388 34.4699 72.0134 34.1537 72.0429C33.3088 72.121 32.4625 72.1817 31.613 72.1349C31.4859 72.1279 31.3526 72.1245 31.2332 72.1626C30.5047 72.3951 29.7621 72.3153 29.0212 72.3188C28.474 72.3223 27.9268 72.3726 27.3796 72.3986C26.2588 72.4524 25.1396 72.4802 24.0158 72.383C23.1911 72.3119 22.3757 72.2078 21.5588 72.0637C20.8675 71.9423 20.1684 71.8868 19.4739 71.7931C19.2026 71.7566 18.922 71.7341 18.6632 71.6438C17.8338 71.3558 16.9534 71.3003 16.1426 70.9533C15.4916 70.6739 14.8204 70.4796 14.1538 70.2592C13.6702 70.0979 13.1896 69.9087 12.7277 69.678C12.4502 69.5409 12.1635 69.4819 11.8782 69.3952C11.176 69.18 10.5389 68.7966 9.91731 68.3905C9.07869 67.8423 8.24936 67.2749 7.38904 66.77C6.8837 66.4733 6.3985 66.1314 5.92416 65.7775C5.73505 65.6369 5.56608 65.4305 5.44362 65.2136C5.10724 64.6132 4.76311 64.0129 4.72436 63.2668C4.71196 63.036 4.6236 62.8105 4.57399 62.5814C4.44843 61.995 4.48099 61.3998 4.52904 60.8116C4.5895 60.0708 4.83442 59.3889 5.1894 58.7694C5.66839 57.9349 6.16443 57.1107 6.68528 56.3091C7.16117 55.5769 7.75642 54.9782 8.40283 54.4265C9.32051 53.644 10.3281 53.0592 11.3589 52.4971C12.3882 51.9366 13.4082 51.3571 14.4794 50.9077C15.6497 50.4167 16.8588 50.0714 18.085 49.8077C18.2911 49.7625 18.5082 49.7695 18.719 49.7591C19.4181 49.7244 20.1187 49.7209 20.8148 49.655C21.5108 49.589 22.2037 49.4554 22.8981 49.3652C23.2562 49.3184 23.6174 49.2958 23.977 49.2663C24.3584 49.2351 24.7397 49.2004 25.121 49.1813C25.6884 49.1518 26.2557 49.0598 26.8262 49.1449C26.9083 49.157 26.9951 49.1397 27.0789 49.131C27.8803 49.0425 28.6817 48.954 29.4831 48.8638C29.6939 48.8395 29.9047 48.8221 30.114 48.7892C31.582 48.5532 33.0515 48.3311 34.5086 48.0275C34.5707 48.0153 34.6358 47.9685 34.6931 47.9789C35.1489 48.0622 35.555 47.8297 35.9813 47.729C36.4153 47.6266 36.8478 47.5052 37.2849 47.4184C37.891 47.297 38.4971 47.1391 39.1079 47.1061C40.0767 47.0541 41.0332 47.1339 41.9818 47.4809C43.5211 48.0431 44.9767 48.803 46.4214 49.5994C46.6664 49.7348 46.9113 49.8996 47.1128 50.1044C48.0568 51.0569 48.9916 52.0199 49.8333 53.0939C50.1774 53.5329 50.4735 54.0326 50.9044 54.3866C51.0036 54.4699 51.0718 54.6017 51.1555 54.7076C51.5214 55.1674 51.8175 55.6896 52.205 56.1321C52.3941 56.349 52.5228 56.6318 52.6762 56.8869C52.7708 57.0447 52.8467 57.22 52.9568 57.3605C53.6404 58.242 53.9349 59.2813 53.9799 60.4282C53.9861 60.593 54.014 60.7561 54.031 60.9209V60.9157Z" fill="white"/>
<path d="M24.3018 59.9562C25.0133 59.8937 25.7108 60.0013 26.3867 60.2026C27.4129 60.508 28.4608 60.6659 29.4963 60.9018C30.0776 61.0337 30.6604 61.1621 31.2386 61.3113C31.7765 61.4518 32.3098 61.5247 32.8663 61.4241C33.2615 61.3512 33.6708 61.3824 34.0723 61.3408C34.4908 61.2974 34.9186 61.2731 35.3186 61.1482C35.7201 61.0233 36.1029 60.8029 36.4765 60.586C36.8703 60.357 37.2547 60.1019 37.6221 59.8226C38.0065 59.5311 38.377 59.2101 38.7366 58.877C39.2218 58.4276 39.2203 57.8706 39.0327 57.1835C38.9614 56.9215 38.78 56.7515 38.5367 56.6734C37.7817 56.4287 37.0206 56.1824 36.2316 56.1806C35.7697 56.1806 35.3015 56.2761 34.8489 56.3923C34.1467 56.571 33.446 56.774 32.7593 57.0204C31.9858 57.2963 31.1828 57.3935 30.3953 57.5808C29.1924 57.8654 27.9864 58.143 26.782 58.4189C26.5324 58.4762 26.2797 58.5126 26.0271 58.5525C24.5777 58.7798 23.1252 58.9932 21.6572 58.929C20.8264 58.8926 20.0172 58.6965 19.2266 58.4224C18.7089 58.2419 18.3245 57.8099 17.9106 57.4438C17.4734 57.0569 17.1929 56.5259 16.92 55.9984C16.7805 55.7278 16.7945 55.3877 16.9448 55.1118C17.013 54.9869 17.1665 54.9001 17.2967 54.8429C17.5726 54.7231 17.8858 54.8706 18.1663 54.7041C18.219 54.6728 18.326 54.737 18.402 54.7735C18.7507 54.9452 19.115 55.0893 19.4405 55.3079C19.9598 55.6549 20.5551 55.7538 21.0992 56.0158C21.1364 56.0331 21.1813 56.0401 21.2232 56.0401C22.5718 56.0626 23.9251 56.2309 25.266 55.9412C26.0348 55.7746 26.799 55.5976 27.54 55.2957C28.5538 54.8828 29.5676 54.4611 30.5984 54.1055C31.5905 53.7636 32.6058 53.5155 33.6537 53.4999C34.2474 53.4912 34.8427 53.4548 35.4333 53.4964C36.1696 53.5485 36.9028 53.6665 37.6391 53.755C37.7445 53.7671 37.8499 53.7741 37.9554 53.7827C38.9955 53.8799 40.0077 54.128 40.9797 54.5479C41.53 54.7856 42.1004 54.9921 42.581 55.3998C42.7825 55.5716 42.9917 55.7382 43.17 55.9377C43.3808 56.1737 43.5343 56.4548 43.6072 56.7914C43.8133 57.7422 43.6552 58.6115 43.1669 59.4114C42.7732 60.0568 42.3934 60.7127 42.0803 61.4137C41.809 62.021 41.3998 62.512 40.8991 62.8729C40.1876 63.3847 39.4481 63.8272 38.6188 64.0944C38.1584 64.2419 37.7027 64.431 37.2361 64.582C36.1665 64.9255 35.0768 65.0799 33.9731 65.1181C33.1561 65.1476 32.3826 64.9012 31.6246 64.5733C31.2309 64.4032 30.8247 64.2558 30.414 64.1482C30.0667 64.0562 29.704 64.0163 29.3475 63.9868C28.5677 63.9226 27.7849 63.8324 27.0083 64.0094C26.6564 64.0892 26.3076 64.195 25.9666 64.3217C24.9978 64.6791 23.9995 64.9047 22.9997 65.0938C21.9766 65.2881 20.9349 65.3662 19.9009 65.0973C19.2359 64.9238 18.6221 64.6375 18.0966 64.1343C17.8269 63.8758 17.6703 63.5513 17.5726 63.18C17.4362 62.656 17.5354 62.2431 17.9431 61.9325C18.3276 61.641 18.7244 61.3425 19.1538 61.1604C19.7847 60.8914 20.4233 60.6242 21.0992 60.508C21.665 60.4108 22.223 60.2703 22.7888 60.1714C23.2911 60.0829 23.798 60.0273 24.3018 59.9562Z" fill="#F7F8F8"/>
<path d="M32.7236 91.9774C32.2911 91.8178 31.7935 92.0208 31.2913 92C30.3814 91.9601 29.4714 91.9028 28.56 91.8507C28.5181 91.849 28.4747 91.8247 28.4344 91.8299C27.6004 91.9392 26.7928 91.6911 25.9759 91.5801C25.0722 91.4586 24.1746 91.2799 23.2771 91.1116C22.8849 91.037 22.4912 90.9468 22.1099 90.8218C21.3363 90.5668 20.5303 90.4766 19.7568 90.2406C18.8391 89.9612 17.9291 89.6437 17.0332 89.2897C16.5573 89.1024 16.1263 88.7796 15.6582 88.5593C14.6351 88.0786 13.7004 87.4176 12.8044 86.7114C12.1921 86.229 11.6216 85.6565 11.2124 84.8982C10.8311 84.1903 10.3552 83.5414 9.89014 82.8959C9.71653 82.6565 9.54291 82.424 9.4034 82.155C9.22203 81.808 9.03447 81.4645 8.83295 81.1296C8.33226 80.2985 8.00208 79.3702 7.59594 78.4853C7.48898 78.2545 7.38202 78.0255 7.27352 77.7947C6.94024 77.0799 6.63796 76.3494 6.38529 75.5929C6.24423 75.1713 6.05821 74.7687 5.90165 74.354C5.78539 74.0487 5.65983 73.745 5.57767 73.4275C5.40095 72.7456 5.14518 72.0984 4.92971 71.4321C4.59798 70.4067 4.33136 69.3587 3.96398 68.3471C3.5904 67.3165 3.24006 66.2754 2.93159 65.2188C2.56421 63.9573 2.25418 62.6768 1.9209 61.4033C1.84804 61.1257 1.82169 60.8463 1.9116 60.5635C1.98601 60.3275 2.26038 60.2165 2.41384 60.4368C2.55646 60.6398 2.70837 60.8359 2.83548 61.0493C2.98894 61.3078 3.15326 61.5369 3.39818 61.7034C3.92367 62.0609 4.43677 62.4409 4.94676 62.8243C5.20874 63.0204 5.45831 63.239 5.70788 63.4542C6.28143 63.9487 6.93559 64.2835 7.57269 64.6514C8.56943 65.2274 9.54291 65.8538 10.5893 66.3171C11.0202 66.5079 11.4356 66.7439 11.8619 66.9521C11.9952 67.0163 12.1394 67.0528 12.2774 67.1065C12.4773 67.1846 12.6742 67.2679 12.8726 67.3495C13.1501 67.464 13.4213 67.601 13.7035 67.6947C14.353 67.9064 15.0071 68.1025 15.6613 68.2968C16.5201 68.5536 17.3866 68.7844 18.2392 69.0637C18.791 69.2442 19.3444 69.3865 19.9164 69.4541C20.4791 69.5201 21.0155 69.7474 21.5906 69.7612C22.161 69.7769 22.733 69.8463 23.2988 69.9365C23.9514 70.0406 24.604 70.1031 25.2613 70.1083C25.3031 70.1083 25.3465 70.1187 25.3884 70.1152C25.6814 70.0892 25.9232 70.3651 26.2487 70.2453C26.5014 70.1516 26.7897 70.1742 27.0641 70.1638C28.2701 70.1187 29.4776 70.0683 30.6852 70.0441C31.5734 70.0267 32.4617 70.0579 33.3499 70.0458C33.7932 70.0389 34.2366 69.9833 34.6799 69.9486C34.9341 69.9278 35.1868 69.8931 35.441 69.8827C35.9092 69.8653 36.3618 69.7352 36.8206 69.6571C37.2175 69.5895 37.619 69.5565 38.0204 69.5149C38.6513 69.4489 39.2822 69.3743 39.9147 69.3257C40.8835 69.2494 41.8446 69.0984 42.7995 68.9076C43.9451 68.6768 45.086 68.4096 46.2284 68.1597C46.6051 68.0765 46.9554 67.922 47.3026 67.7364C47.6266 67.5629 47.9723 67.4379 48.3133 67.3043C49.0574 67.0146 49.7612 66.6346 50.4138 66.1366C50.6587 65.951 50.9253 65.8 51.1904 65.6543C51.643 65.4061 52.0895 65.1511 52.4832 64.7902C52.9575 64.3547 53.4799 63.9955 54.0132 63.6537C54.6379 63.2546 55.2223 62.7861 55.6966 62.1598C55.8718 61.9273 56.1105 61.7572 56.3105 61.5473C56.6655 61.1742 57.0111 60.7891 57.3677 60.4177C57.4901 60.2893 57.6358 60.1887 57.7692 60.0742C57.8901 59.9718 58.0094 60.0048 58.1241 60.0846C58.245 60.1679 58.2993 60.2876 58.2574 60.4472C58.2218 60.5843 58.197 60.7266 58.1427 60.8533C57.8172 61.6219 57.5459 62.4148 57.27 63.2078C56.9879 64.025 56.7058 64.8388 56.4624 65.6716C56.2795 66.2997 56.078 66.9209 55.8981 67.549C55.5881 68.6352 55.1634 69.6675 54.7557 70.7103C54.6379 71.014 54.5154 71.3141 54.3899 71.6143C53.9946 72.5565 53.5931 73.4986 53.2676 74.4738C52.9172 75.5235 52.3437 76.4414 51.9205 77.4477C51.5872 78.2406 51.2214 79.018 50.8742 79.8022C50.4696 80.7114 49.9689 81.5703 49.4852 82.4326C49.2729 82.8109 48.9737 83.1284 48.7644 83.5084C48.5319 83.93 48.3474 84.3864 48.163 84.8375C48.0638 85.0821 47.9305 85.2851 47.7615 85.4708C47.5972 85.653 47.4313 85.8386 47.2871 86.0416C47.0732 86.3436 46.8113 86.5795 46.5322 86.7981C45.9943 87.218 45.4611 87.6431 44.9247 88.0648C44.8379 88.1324 44.7527 88.207 44.6566 88.2539C43.8815 88.6339 43.1669 89.1509 42.3453 89.4285C41.7392 89.6333 41.1657 89.956 40.5673 90.1972C40.1286 90.3742 39.6791 90.5217 39.2264 90.6501C38.1584 90.952 37.0919 91.2695 36.013 91.5124C35.2038 91.6928 34.3761 91.7675 33.5561 91.8854C33.3034 91.9219 33.0507 91.9444 32.7236 91.9826V91.9774Z" fill="#D3E9F2"/>
<path d="M33.3867 89.5205C33.4782 89.1648 33.6378 88.9011 33.8099 88.6252C34.1478 88.0873 34.5137 87.5581 34.7183 86.9266C34.7477 86.8381 34.7958 86.7583 34.8407 86.6767C35.4437 85.5819 35.7615 84.3482 36.2064 83.177C36.3444 82.2661 36.7381 81.4332 36.8373 80.5067C36.8823 80.0868 36.9892 79.6687 37.1039 79.2626C37.3597 78.3552 37.4403 77.4148 37.5426 76.4778C37.6279 75.6988 37.7178 74.9249 37.6837 74.1354C37.6573 73.516 37.7302 73.3841 38.1611 72.8584C38.2913 72.8463 38.4402 72.8098 38.5859 72.822C39.2044 72.8723 39.8151 72.7855 40.4228 72.6988C40.9033 72.6294 41.3746 72.468 41.852 72.3604C42.4752 72.2199 43.103 72.0967 43.7277 71.9596C44.4144 71.8104 45.0825 71.5848 45.7382 71.3072C45.7971 71.2812 45.856 71.2448 45.918 71.2361C46.5288 71.1424 47.0915 70.8544 47.6867 70.6965C48.2184 70.5559 48.7393 70.3668 49.2182 70.0545C49.3996 69.9365 49.6058 69.8636 49.8026 69.7734C50.7808 69.3223 51.7047 68.7445 52.6735 68.2691C52.9804 68.1181 53.2486 67.87 53.5338 67.6635C53.7617 67.4987 53.8841 67.4744 53.988 67.5802C54.1864 67.785 54.2407 68.04 54.1306 68.2847C54.0547 68.453 53.9648 68.6126 53.8826 68.7775C53.6764 69.1939 53.5679 69.6537 53.4052 70.0892C53.1618 70.7433 52.8812 71.3853 52.5743 72.003C51.8023 73.5559 51.0009 75.0915 50.2196 76.6392C49.8988 77.276 49.5918 77.9197 49.2973 78.5738C49.0338 79.1603 48.7051 79.7172 48.3626 80.2534C48.0665 80.7167 47.8107 81.2025 47.5549 81.69C47.1178 82.5264 46.6745 83.3609 46.2358 84.1973C46.0343 84.5807 45.8482 84.9624 45.5754 85.3095C45.2545 85.7172 44.8763 85.9948 44.4702 86.2325C43.6068 86.7357 42.7061 87.1504 41.7698 87.4575C41.573 87.5217 41.3808 87.6223 41.2025 87.7369C40.384 88.2643 39.4803 88.5194 38.5812 88.7831C38.2557 88.8785 37.9116 88.8924 37.5814 88.9774C37.1892 89.0781 36.811 89.2429 36.4172 89.3279C35.6282 89.498 34.833 89.6281 34.0424 89.786C33.7882 89.8363 33.5851 89.7704 33.3883 89.5188L33.3867 89.5205Z" fill="#C1E0EA"/>
<path d="M39.2927 71.1077C38.7672 71.1788 38.2448 71.2708 37.7177 71.3159C37.2961 71.3523 36.8714 71.3315 36.4466 71.3402C36.2792 71.3437 36.1118 71.3575 35.9444 71.3697C35.2251 71.4235 34.5074 71.4963 33.7881 71.5276C32.4116 71.5883 31.0351 71.6352 29.6586 71.6699C29.2804 71.6803 28.9006 71.6282 28.5208 71.6022C27.3783 71.5276 26.2436 71.3679 25.1043 71.2465C24.7896 71.2135 24.4672 71.2725 24.151 71.2465C23.6239 71.2014 23.0969 71.1302 22.5714 71.0539C21.7312 70.9324 20.8926 70.8075 20.0555 70.6635C19.5316 70.5733 19.0185 70.398 18.493 70.3373C17.8559 70.2644 17.2436 70.0753 16.622 69.9296C15.8546 69.7491 15.0842 69.5877 14.32 69.3986C13.8643 69.2858 13.4147 69.147 12.9652 69.0065C12.5777 68.885 12.1715 68.7965 11.8165 68.5987C11.3717 68.3523 10.9066 68.2413 10.4307 68.1441C10.3067 68.1198 10.1858 68.0661 10.068 68.0088C8.97979 67.4848 7.8885 66.9677 6.80495 66.4316C6.02524 66.0447 5.32148 65.5172 4.67352 64.8943C3.98526 64.2315 3.28615 63.5826 2.61029 62.9042C2.20105 62.4929 1.82282 62.0453 1.66161 61.4224C1.62285 61.2732 1.50039 61.15 1.41669 61.0146C1.07566 60.4698 0.750129 59.9146 0.584264 59.2657C0.543961 59.1078 0.516058 58.9464 0.480405 58.7868C0.4246 58.5369 0.351744 58.2888 0.291289 58.0441C0.159527 57.5011 0.0727198 56.9372 0.0401669 56.375C-0.0063371 55.5716 -0.00788724 54.7631 0.128525 53.9632C0.144026 53.8695 0.145576 53.7706 0.176579 53.6838C0.41685 53.0002 0.661771 52.3183 0.908242 51.6364C1.0431 51.2651 1.27562 50.9493 1.35778 50.5433C1.39808 50.3473 1.5252 50.1547 1.65076 50.0002C2.50488 48.9436 3.40861 47.9476 4.41 47.0575C5.09516 46.4485 5.84387 45.9679 6.57553 45.4473C7.21884 44.991 7.86525 44.5468 8.5349 44.1408C8.75812 44.0055 8.99064 43.8875 9.22316 43.7747C10.4261 43.19 11.6259 42.5966 12.8381 42.0344C13.2659 41.8366 13.717 41.6857 14.1712 41.585C14.6471 41.4792 15.078 41.1894 15.5741 41.1877C15.8221 40.9864 16.1275 40.9621 16.4018 40.8459C16.8638 40.6481 17.3428 40.5683 17.8233 40.4798C18.3674 40.3809 18.9115 40.2698 19.4572 40.1831C20.1904 40.0668 20.9189 39.9211 21.6692 39.9297C22.1296 39.9349 22.59 39.7961 23.0519 39.7371C23.6162 39.6643 24.1835 39.6053 24.7493 39.5445C25.0454 39.5116 25.3399 39.4856 25.636 39.4561C26.0576 39.4144 26.4777 39.3728 26.8993 39.3346C27.1536 39.312 27.4078 39.3051 27.662 39.2808C27.9131 39.2548 28.1643 39.2149 28.4154 39.1784C28.5192 39.1628 28.6262 39.1194 28.7285 39.1299C29.2788 39.1819 29.8245 39.0691 30.3732 39.0795C30.6476 39.0847 30.9204 39.1212 31.1948 39.1333C31.4691 39.1437 31.7451 39.1472 32.0194 39.142C32.2318 39.1385 32.4504 39.0726 32.6535 39.1125C33.3619 39.2496 34.0827 39.1628 34.7911 39.3346C35.3879 39.4803 36.0033 39.5151 36.6171 39.5116C36.7644 39.5116 36.9132 39.5255 37.0605 39.5411C37.7766 39.6209 38.4928 39.699 39.209 39.7875C39.4198 39.8135 39.6259 39.869 39.8352 39.9089C40.3995 40.013 40.9606 40.1414 41.528 40.2108C42.0333 40.2716 42.5309 40.3548 43.0254 40.4798C43.292 40.5474 43.5679 40.5596 43.8361 40.6151C44.1864 40.6862 44.5383 40.7574 44.8809 40.8632C45.3708 41.0142 45.8544 41.1877 46.3349 41.3664C46.7132 41.5069 47.0991 41.6353 47.4541 41.8297C47.9455 42.1003 48.4416 42.345 48.9655 42.5272C49.3081 42.6452 49.646 42.7979 49.9654 42.9818C50.4536 43.2646 50.99 43.4138 51.4628 43.74C52.1634 44.2241 52.9044 44.6319 53.571 45.1784C53.9802 45.515 54.4034 45.8308 54.8111 46.1709C54.9444 46.2819 55.0436 46.4398 55.166 46.5682C55.2389 46.6446 55.3273 46.7053 55.4094 46.7695C55.5644 46.8909 55.735 46.9951 55.8745 47.1356C56.3488 47.6093 56.8185 48.0864 57.2758 48.5809C57.7021 49.0407 58.1299 49.5005 58.4384 50.0766C58.9484 51.0326 59.4258 52.0008 59.5638 53.1338C59.6351 53.7168 59.7777 54.2894 59.8382 54.8724C59.8924 55.3894 59.9017 55.9152 59.8878 56.4357C59.8723 57.0031 59.8087 57.5687 59.7622 58.1326C59.7545 58.2263 59.7343 58.32 59.7064 58.4103C59.618 58.7 59.5545 59.0071 59.4258 59.2743C59.215 59.7081 59.1623 60.213 58.8662 60.6086C58.5686 61.006 58.333 61.4623 58.0431 61.8683C57.7951 62.2171 57.5068 62.5328 57.2401 62.866C57.0851 63.0603 56.9348 63.2598 56.7828 63.4576C56.7146 63.5461 56.6588 63.6537 56.5798 63.7248C55.8869 64.3477 55.2715 65.0765 54.5181 65.6144C53.9476 66.0221 53.3772 66.4385 52.7773 66.7873C51.6302 67.4518 50.4676 68.0834 49.3003 68.7011C48.8818 68.9232 48.4369 69.0984 47.9905 69.239C46.7876 69.6172 45.58 69.9712 44.3694 70.32C44.0206 70.4206 43.6641 70.4987 43.306 70.5351C42.548 70.6132 41.8116 70.837 41.0583 70.9463C40.4708 71.0313 39.8833 71.1112 39.2958 71.1927L39.2865 71.1042L39.2927 71.1077ZM33.9339 68.689C34.9895 68.6491 36.0467 68.6352 37.0884 68.3888C37.8107 68.2187 38.5533 68.1476 39.2787 67.9914C40.3561 67.7607 41.4334 67.5212 42.503 67.2471C43.8036 66.9122 45.1134 66.6242 46.3861 66.1748C46.9705 65.9683 47.5688 65.8052 48.1191 65.4756C48.5284 65.2309 48.9717 65.0522 49.4073 64.8683C50.3017 64.49 51.1249 63.973 51.8937 63.3431C52.5215 62.8278 53.1478 62.3073 53.7709 61.785C54.3879 61.268 54.9025 60.6451 55.304 59.9042C55.5892 59.3784 55.9132 58.877 56.1814 58.3391C56.5131 57.6728 56.7286 56.9632 56.6092 56.1737C56.5844 56.0141 56.6092 55.844 56.6061 55.6792C56.5999 55.0632 56.6185 54.4473 56.5782 53.8348C56.5379 53.2188 56.2899 52.6601 56.0713 52.1049C55.8233 51.4768 55.5396 50.8643 55.2482 50.2588C55.1288 50.0106 54.9723 49.7747 54.7925 49.5769C54.4158 49.1605 54.0376 48.7406 53.6175 48.3849C52.9447 47.8157 52.2626 47.2518 51.5403 46.7695C50.9435 46.3721 50.3513 45.9592 49.7111 45.6399C49.3468 45.4595 48.9624 45.2964 48.6663 44.9702C48.6229 44.9233 48.5547 44.9025 48.4958 44.8782C47.9176 44.644 47.3332 44.4323 46.7643 44.1738C46.3675 43.9951 45.935 43.9708 45.5475 43.7851C44.9243 43.4867 44.2221 43.4624 43.6315 43.0581C43.5648 43.013 43.4656 43.0286 43.3835 43.0095C42.6797 42.8516 41.9775 42.6903 41.2737 42.5324C39.9251 42.2305 38.5657 42.0466 37.1907 41.9719C35.8359 41.8991 34.4826 41.7932 33.1293 41.6995C32.1807 41.6336 31.232 41.5382 30.2833 41.5035C29.2912 41.467 28.296 41.4826 27.3024 41.4844C27.0528 41.4844 26.8017 41.5104 26.5521 41.5364C26.1103 41.5833 25.6701 41.6527 25.2283 41.6926C24.4284 41.7655 23.627 41.8245 22.8256 41.8904C22.7837 41.8939 22.7403 41.8939 22.6985 41.9043C21.7033 42.1455 20.6787 42.1628 19.6819 42.4196C18.6712 42.6799 17.645 42.869 16.6266 43.0928C16.4003 43.1431 16.1678 43.1813 15.9523 43.2698C15.3958 43.4971 14.8471 43.7504 14.2952 43.9933C14.1789 44.0454 14.0565 44.0853 13.9449 44.1495C13.531 44.3872 13.1218 44.6388 12.7063 44.8713C11.9111 45.3155 11.0368 45.5723 10.2974 46.1483C10.1067 46.2975 9.89592 46.4138 9.6975 46.5509C8.57831 47.3247 7.45756 48.0968 6.34146 48.8776C5.65475 49.3583 5.013 49.9326 4.51231 50.6249C3.82405 51.5774 3.22414 52.6011 2.87071 53.807C2.56844 54.8394 2.52038 55.8458 2.6692 56.8886C2.7095 57.1644 2.80561 57.4351 2.90172 57.6971C3.02263 58.0233 3.19004 58.3304 3.3001 58.6601C3.44581 59.0921 3.68298 59.4565 3.94651 59.7914C4.43635 60.4126 4.96029 61.0025 5.46719 61.608C5.62685 61.7989 5.78652 61.9898 5.92758 62.1962C6.1508 62.5242 6.44067 62.7497 6.76465 62.9302C6.87781 62.9926 6.98632 63.0672 7.09948 63.1314C7.56917 63.3987 8.02491 63.7127 8.51475 63.9192C9.17046 64.1951 9.79361 64.5386 10.4214 64.8787C10.8229 65.0956 11.2228 65.3246 11.6414 65.4877C12.4815 65.8156 13.3295 66.1141 14.182 66.4021C14.7494 66.5947 15.3214 66.7925 15.9027 66.907C16.3863 67.0024 16.8483 67.1655 17.3211 67.2957C17.628 67.3807 17.9427 67.4362 18.2558 67.4865C18.696 67.5577 19.1394 67.6149 19.5812 67.6757C19.8137 67.7086 20.04 67.7433 20.24 67.9099C20.3128 67.9706 20.4337 67.9654 20.5345 67.9741C20.6601 67.9845 20.7887 67.9585 20.9127 67.9793C21.8335 68.1285 22.7605 68.2517 23.6735 68.4513C24.6145 68.656 25.5662 68.689 26.5149 68.7688C27.3179 68.8364 28.1209 68.8139 28.9269 68.7896C29.9376 68.7584 30.9499 68.8659 31.9636 68.7653C32.6162 68.6994 33.2751 68.7115 33.9323 68.689H33.9339Z" fill="#AFD9EF"/>
<path d="M30.2588 32.7239C30.4619 32.1374 30.6618 31.5805 30.8494 31.0183C30.992 30.5897 31.2261 30.2496 31.5532 29.9738C31.7082 29.8436 31.826 29.6562 31.9608 29.4949C32.0755 29.3561 32.1779 29.1982 32.3096 29.0837C33.0707 28.4243 33.7822 27.673 34.6488 27.1959C35.9416 26.4827 37.1848 25.6464 38.5861 25.1849C39.1519 24.9975 39.6759 24.6574 40.2339 24.4371C40.8478 24.1959 41.4787 23.9998 42.1065 23.8072C43.035 23.5227 43.9682 23.2555 44.8998 22.9848C45.2005 22.898 45.5044 22.8165 45.8082 22.7453C46.8716 22.492 47.8528 21.9906 48.8356 21.4909C49.0418 21.385 49.2371 21.241 49.4526 21.1681C50.6059 20.7795 51.5979 20.016 52.6768 19.4591C52.9838 19.3012 53.2969 19.1554 53.6069 19.001C53.7092 18.949 53.8193 18.9038 53.9076 18.8292C54.5416 18.2931 55.2733 17.9357 55.9166 17.4047C56.5739 16.8616 57.2978 16.4123 58.0171 15.9715C58.7859 15.4996 59.5827 15.0866 60.364 14.6407C60.488 14.5696 60.5949 14.4603 60.7174 14.3839C61.0631 14.1705 61.4134 13.964 61.7622 13.7558C61.8629 13.6968 61.9699 13.6517 62.0707 13.5927C63.4999 12.7564 64.9229 11.9062 66.3583 11.0855C67.0652 10.6812 67.8046 10.3498 68.5177 9.95596C69.4834 9.42328 70.4259 8.84376 71.3699 8.2625C72.4364 7.6049 73.5603 7.06008 74.6763 6.50832C75.7924 5.95656 76.9209 5.43777 78.0572 4.9398C79.0586 4.50082 80.091 4.14165 81.0862 3.68359C81.7636 3.37127 82.4224 3.01557 83.1153 2.74316C84.7398 2.10465 86.3225 1.3308 87.9765 0.78424C88.9004 0.478863 89.8305 0.197778 90.8179 0.234215C91.2612 0.249831 91.7154 0.15787 92.1526 0.0537647C92.7664 -0.0919834 93.3415 0.109288 93.9135 0.256771C94.4189 0.386903 94.6932 0.891816 94.8808 1.38285C95.0591 1.84959 95.1118 2.37012 94.7475 2.80736C94.7289 2.82992 94.7072 2.85594 94.6979 2.88544C94.3925 3.7929 93.7601 4.218 92.9788 4.57543C92.3262 4.87386 91.6937 5.23476 91.0086 5.44297C89.7762 5.81775 88.5935 6.35043 87.3906 6.82411C86.4264 7.20236 85.4405 7.50774 84.4655 7.85129C83.7369 8.10982 83.0083 8.37182 82.2844 8.64596C80.8087 9.20293 79.333 9.76163 77.8619 10.3325C76.6295 10.8114 75.3972 11.2937 74.1741 11.8004C73.1107 12.2393 72.0597 12.7148 71.0025 13.1694C70.4755 13.3967 69.9484 13.6292 69.4136 13.8304C68.1177 14.318 66.8978 15.0034 65.6546 15.628C64.9586 15.9785 64.2548 16.3134 63.5665 16.6829C62.9558 17.0109 62.3419 17.3405 61.7622 17.7292C59.8896 18.9871 57.8651 19.9588 56.1135 21.4388C55.2361 22.1814 54.32 22.8963 53.796 24.0397C53.7061 24.2358 53.6069 24.4284 53.5387 24.6331C53.176 25.7245 52.759 26.7916 52.4195 27.8969C51.987 29.3023 51.4739 30.6695 50.5578 31.8251C50.054 32.4602 49.5983 33.1368 48.9984 33.6626C48.6651 33.9541 48.3055 34.2161 47.9412 34.4572C46.6453 35.3109 45.3478 36.1646 43.8612 36.555C42.4273 36.9315 41.0322 37.5058 39.5379 37.5596C38.6605 37.5908 37.7831 37.6533 36.9058 37.6949C36.7647 37.7019 36.619 37.6949 36.4826 37.662C35.737 37.4781 34.996 37.2681 34.2488 37.0981C33.5373 36.9367 32.9111 36.607 32.3701 36.0639C32.1593 35.8523 31.9422 35.6336 31.6958 35.4827C30.9315 35.0142 30.62 34.2143 30.3952 33.3451C30.3409 33.1334 30.3053 32.9165 30.2665 32.7274L30.2588 32.7239Z" fill="#DCDDDD"/>
<path d="M53.2412 21.628C53.3218 21.4788 53.3637 21.3209 53.4582 21.2411C53.8644 20.8958 54.2659 20.5349 54.7045 20.2468C56.0036 19.3966 57.3134 18.5673 58.631 17.7518C59.1751 17.4152 59.7502 17.141 60.3083 16.8287C60.84 16.5303 61.3515 16.178 61.9003 15.9265C62.6381 15.5864 63.3217 15.1353 64.027 14.7275C65.4144 13.9276 66.7878 13.0982 68.2419 12.4493C69.265 11.993 70.288 11.5297 71.3049 11.056C71.8258 10.8131 72.3327 10.5286 72.852 10.2787C73.5542 9.93864 74.261 9.6107 74.9663 9.2793C76.2731 8.66508 77.5613 7.98839 78.8944 7.45572C80.4957 6.81546 82.0753 6.11102 83.6409 5.38054C85.1616 4.67089 86.7055 4.04625 88.2634 3.46846C89.4694 3.02254 90.6956 2.59918 91.9899 2.55233C92.2829 2.54192 92.5526 2.56621 92.8037 2.74666C92.9898 2.88027 93.027 3.16829 92.8472 3.3019C92.6596 3.4407 92.4581 3.57083 92.2457 3.64197C91.6753 3.83457 91.1032 4.06187 90.5173 4.15036C89.6043 4.28743 88.7687 4.68824 87.9022 4.9832C86.6001 5.42739 85.3011 5.88719 84.0052 6.35913C83.1712 6.66278 82.3434 6.99244 81.5172 7.32385C80.5313 7.72118 79.5532 8.14455 78.5658 8.53842C77.4977 8.96351 76.4669 9.48404 75.4314 9.99763C74.3432 10.5372 73.2255 11.0075 72.125 11.5176C71.1825 11.9548 70.2415 12.3973 69.3053 12.8553C67.9535 13.5147 66.6003 14.1723 65.261 14.8628C64.0503 15.4875 62.8598 16.1572 61.6569 16.8027C61.2213 17.0369 60.7764 17.2451 60.3424 17.4828C59.6293 17.8732 58.9194 18.2636 58.2512 18.7547C57.7568 19.119 57.2034 19.3845 56.681 19.7038C55.7586 20.2659 54.8425 20.8402 53.9186 21.3989C53.7295 21.5135 53.559 21.7269 53.2428 21.6245L53.2412 21.628Z" fill="#EFEFEF"/>
<path d="M32.2891 33.09C32.6705 32.9911 32.9634 33.057 33.2285 33.2843C33.8238 33.7961 34.4965 34.1206 35.2282 34.2941C35.3119 34.3132 35.4034 34.3149 35.4762 34.3583C36.7334 35.1166 38.1021 35.0177 39.4523 34.9691C40.2971 34.9396 41.1264 34.7799 41.9527 34.485C42.7541 34.1987 43.5695 33.9488 44.36 33.6209C44.5988 33.522 44.839 33.4127 45.0529 33.2617C46.586 32.1808 47.9114 30.876 48.7082 28.9986C48.8771 28.5995 49.0678 28.2057 49.2926 27.843C49.4321 27.6175 49.6336 27.4179 49.8444 27.2722C50.2071 27.0206 50.5559 27.2236 50.7016 27.6886C50.8473 28.1501 50.7202 28.5822 50.5823 28.9865C50.4536 29.3647 50.2428 29.7187 50.0211 30.0414C49.4166 30.9246 48.6632 31.6516 47.9517 32.4202C46.9844 33.4647 45.8854 34.2993 44.6887 34.9621C44.1353 35.2692 43.5323 35.4636 42.9432 35.6822C41.7295 36.1333 40.4707 36.3485 39.2012 36.4127C38.4695 36.4508 37.7425 36.3051 37.0124 36.1802C36.0777 36.0205 35.1956 35.703 34.3012 35.3924C33.9679 35.2762 33.6703 35.1166 33.3897 34.8962C33.1123 34.6758 32.8255 34.4711 32.548 34.2507C32.1357 33.9228 32.1078 33.7979 32.2891 33.0848V33.09Z" fill="#EFEFEF"/>
<path d="M43.9807 18.2375C44.4675 18.588 44.8348 18.8778 45.2239 19.1277C45.9246 19.577 46.4439 20.2555 47.0267 20.8541C47.2748 21.1091 47.4747 21.4249 47.6902 21.7199C47.7801 21.8413 47.8778 21.968 47.9274 22.112C48.4389 23.573 48.8001 25.0634 48.394 26.6371C48.1521 27.5741 47.7383 28.3757 46.9058 28.8373C46.5291 29.0472 46.1742 29.3196 45.8378 29.6059C44.7201 30.555 43.4227 31.0911 42.1283 31.6186C41.6276 31.8234 41.0758 31.8633 40.5487 31.9847C39.6884 32.1843 38.8312 32.3959 37.9693 32.5885C37.574 32.677 37.1818 32.6527 36.7943 32.4983C36.6408 32.4376 36.4672 32.4341 36.3029 32.4098C35.8534 32.3439 35.4038 32.2797 34.9527 32.2172C33.9948 32.0819 33.3809 31.4364 32.9283 30.5359C32.4431 29.5695 32.2757 28.5215 32.2555 27.4301C32.2416 26.6961 32.4663 26.0021 32.5252 25.282C32.533 25.1901 32.5748 25.0981 32.6167 25.0166C33.122 24.0154 33.6956 23.0889 34.6396 22.5267C35.0643 22.2734 35.4612 21.9663 35.8813 21.7025C37.0609 20.9616 38.2669 20.2798 39.5132 19.6864C40.1906 19.3636 40.865 19.0322 41.547 18.7251C42.0756 18.4874 42.6275 18.3503 43.201 18.326C43.48 18.3139 43.7575 18.2636 43.9807 18.2375Z" fill="#F7F8F8"/>
<path d="M43.7049 22.4053C43.911 23.5227 43.6088 24.5741 43.2336 25.551C42.8631 26.514 42.2307 27.3104 41.2665 27.6418C41.0231 27.7251 40.7782 27.7979 40.5364 27.8864C40.2403 27.994 39.9225 28.0634 39.659 28.2334C38.9165 28.7123 38.1042 28.99 37.309 29.3161C36.9494 29.4636 36.7138 29.4012 36.475 29.1079C36.2735 28.8598 36.3138 28.5857 36.3991 28.3046C36.5339 27.8587 36.8393 27.5637 37.1711 27.3243C37.8361 26.8436 38.5166 26.4047 39.2932 26.1531C39.69 26.0247 40.0714 25.7696 40.4046 25.4903C40.7751 25.1797 40.9968 24.7164 41.0247 24.182C41.0557 23.5903 41.2526 23.0872 41.544 22.5996C41.7951 22.1797 41.9889 21.7164 42.1873 21.2601C42.2803 21.0484 42.395 20.8905 42.5919 20.8038C43.0166 20.6181 43.4119 20.8003 43.5313 21.2861C43.6212 21.6505 43.6491 22.0322 43.7049 22.407V22.4053Z" fill="#EFEFEF"/>
<g clip-path="url(#clip1_258_178627)">
<path fill-rule="evenodd" clip-rule="evenodd" d="M53.8926 89.0624C54.4802 90.1521 54.0726 90.7815 52.6586 90.9567C51.2098 91.1318 49.4671 90.8691 47.4288 90.1765L44.79 89.1255C44.8249 89.262 44.689 89.4127 44.3732 89.5879C43.7507 89.8893 42.6305 90.0645 41.0237 90.1052C39.417 90.1928 37.9112 90.1521 36.4972 89.9769L34.8556 89.651C33.4416 90.4311 31.5631 90.6939 29.2163 90.4311C27.4093 90.2152 25.6667 89.8506 23.9883 89.3251C22.2585 88.712 21.3624 88.1946 21.2834 87.7567C21.2044 87.3677 21.2614 87.0418 21.456 86.779L21.8067 86.5244C21.8857 85.785 22.2383 84.9804 22.8681 84.1127C23.4135 83.3244 23.9093 82.8478 24.339 82.6726L25.0992 82.3467C25.2939 81.917 25.5161 81.4566 25.7456 80.978C26.2543 79.984 26.7281 79.3322 27.1578 79.0287C27.7821 78.5031 28.8435 78.1385 30.3291 77.9145L31.3335 76.6822C32.1507 75.8144 33.0542 75.2502 34.0311 74.9875C35.0484 74.7247 36.0106 74.851 36.9141 75.3765C37.3805 75.6393 37.7533 75.9183 38.025 76.2279L38.9083 75.902C39.6539 75.7676 40.4141 75.79 41.2037 75.9652C42.4157 76.2279 43.3559 76.8329 44.0224 77.7882L45.3134 78.1141C46.2958 78.3769 46.9991 78.7028 47.4288 79.0918C48.1321 79.7456 48.391 80.5726 48.1964 81.5666L49.3735 81.7662C50.2347 82.029 50.8223 82.3549 51.1308 82.7439C51.6395 83.3978 51.9204 83.8744 51.9553 84.1759L53.3693 84.5669C54.3444 84.9173 54.853 85.4184 54.8971 86.0702C55.0109 87.1518 54.2507 87.6528 52.6017 87.5673L53.8926 89.0624Z" fill="#CCB664"/>
<path fill-rule="evenodd" clip-rule="evenodd" d="M32.2148 74.5332C33.3845 74.0566 34.389 73.9201 35.2061 74.1442C35.9958 74.3112 36.2896 74.6839 36.0894 75.2502C35.8948 75.7676 35.3861 76.2442 34.5616 76.6821C33.6636 77.1995 32.6243 77.4847 31.4472 77.5254C30.2352 77.5722 29.8055 77.1832 30.1563 76.3562C30.4721 75.5272 31.1534 74.9223 32.2148 74.5332Z" fill="#B09A4A"/>
<path fill-rule="evenodd" clip-rule="evenodd" d="M31.1534 75.0506C32.2148 74.4457 33.1917 74.0953 34.0952 74.0077C34.8774 73.969 35.3641 74.0729 35.5642 74.3337C35.7166 74.5964 35.6579 74.9223 35.3861 75.3134C35.1125 75.7513 34.7195 76.0772 34.209 76.2911C32.7602 76.9449 31.5849 77.1833 30.687 77.0081C30.1342 76.9205 29.9782 76.619 30.2132 76.0935C30.4079 75.6637 30.7237 75.3134 31.1534 75.0506Z" fill="#E3CE7F"/>
<path fill-rule="evenodd" clip-rule="evenodd" d="M30.8598 77.334C30.3934 77.2871 30.1345 77.1201 30.0996 76.8085C30.0996 76.6414 30.4871 76.3155 31.2767 75.8389C32.0149 75.3521 33.1332 74.8368 34.6188 74.2705L31.6843 76.0283C30.9388 76.4663 30.566 76.7922 30.566 77.0081C30.566 77.0957 30.667 77.2077 30.8598 77.334Z" fill="#B09A4A"/>
<path fill-rule="evenodd" clip-rule="evenodd" d="M35.0332 74.5332L34.855 74.1442C34.7761 74.0077 35.013 74.0485 35.5583 74.2705C35.7163 74.3581 35.7365 74.6208 35.6226 75.0506C35.4647 75.5761 34.8771 76.0528 33.8579 76.4825C33.3842 76.6985 32.9398 76.8573 32.5082 76.9449L31.9775 77.0081L33.0977 76.619C33.4852 76.4825 33.9718 76.1159 34.5612 75.5048C34.9542 75.2502 35.1121 74.9223 35.0332 74.5332Z" fill="#FFF0B8"/>
<path fill-rule="evenodd" clip-rule="evenodd" d="M16.2902 83.6606C17.6178 83.4854 18.6572 83.5873 19.4045 83.9865C20.1501 84.3287 20.3429 84.7422 19.9922 85.2188C19.6414 85.7443 18.9877 86.1334 18.0475 86.3961C17.0302 86.6507 15.8972 86.6996 14.6412 86.5245C13.4292 86.3493 13.1133 85.8706 13.701 85.0925C14.2537 84.3124 15.1149 83.8276 16.2902 83.6606Z" fill="#B09A4A"/>
<path fill-rule="evenodd" clip-rule="evenodd" d="M15.0584 83.9864C16.3053 83.5872 17.4034 83.4609 18.3436 83.5872C19.1314 83.6748 19.5757 83.8988 19.6988 84.241C19.7777 84.5506 19.6198 84.8521 19.225 85.1556C18.8376 85.5059 18.3638 85.7442 17.8184 85.8705C16.1694 86.2209 14.9207 86.1985 14.054 85.8074C13.5435 85.5854 13.4645 85.2595 13.8244 84.8297C14.1329 84.4386 14.5406 84.1534 15.0584 83.9864Z" fill="#E3CE7F"/>
<path fill-rule="evenodd" clip-rule="evenodd" d="M14.175 86.1985C13.7013 86.0233 13.4864 85.785 13.5286 85.4815C13.5654 85.3063 14.0538 85.068 14.9922 84.7666C15.8534 84.4631 17.1094 84.2003 18.7585 83.9864L15.3521 85.0273C14.4835 85.29 14.0171 85.5304 13.9381 85.7443C13.9032 85.8705 13.9749 86.0233 14.175 86.1985Z" fill="#B09A4A"/>
<path fill-rule="evenodd" clip-rule="evenodd" d="M19.1105 84.3124L19.0517 83.85C19.0095 83.683 19.2243 83.7868 19.6981 84.1759C19.8487 84.2635 19.812 84.5038 19.5751 84.8929C19.2684 85.4184 18.5431 85.785 17.4027 86.007C16.5415 86.1741 15.8529 86.2209 15.3516 86.1333C15.739 86.007 16.1467 85.9358 16.5856 85.9358C17.0153 85.9358 17.6176 85.6811 18.4072 85.1556C18.8736 84.9805 19.1105 84.7014 19.1105 84.3124Z" fill="#FFF0B8"/>
<path fill-rule="evenodd" clip-rule="evenodd" d="M57.0692 84.7666C58.5548 84.5507 59.7741 84.6139 60.7143 84.9561C61.5755 85.3064 61.8473 85.7443 61.5314 86.2617C61.1807 86.7872 60.4774 87.1763 59.416 87.439C58.283 87.7894 56.9902 87.877 55.5414 87.6936C54.1293 87.5266 53.6996 87.05 54.2431 86.2617C54.7958 85.4816 55.736 84.9805 57.0692 84.7666Z" fill="#B09A4A"/>
<path fill-rule="evenodd" clip-rule="evenodd" d="M55.6568 85.0925C57.0689 84.7014 58.3029 84.5507 59.3588 84.6301C60.2972 84.7177 60.8499 84.9397 61.0078 85.2819C61.1584 85.5447 61.0446 85.8482 60.6571 86.1985C60.2623 86.5489 59.7518 86.7872 59.1293 86.9135C57.3205 87.3045 55.8496 87.327 54.7166 86.9766C54.129 86.7627 54.0133 86.4368 54.3659 85.9989C54.6744 85.6099 55.1114 85.3064 55.6568 85.0925Z" fill="#E3CE7F"/>
<path fill-rule="evenodd" clip-rule="evenodd" d="M54.8971 87.3046C54.3443 87.1762 54.0928 86.9542 54.1295 86.6507C54.2084 86.4837 54.7391 86.2209 55.7142 85.8706C56.6966 85.5691 58.1033 85.2901 59.9469 85.0273L56.1311 86.1985C55.1486 86.4613 54.6381 86.6996 54.6032 86.9135C54.6032 87.0011 54.6951 87.1375 54.8971 87.3046Z" fill="#B09A4A"/>
<path fill-rule="evenodd" clip-rule="evenodd" d="M60.3618 85.3553L60.2406 84.8929C60.2406 84.8521 60.5198 84.9397 61.0652 85.1556C61.2231 85.2432 61.201 85.506 61.0082 85.9358C60.6924 86.4613 59.9101 86.8259 58.6559 87.0499C58.0316 87.1762 57.4641 87.2394 56.9481 87.2394H56.3018L57.7157 87.0499C58.1821 87.0011 58.834 86.722 59.653 86.1985C60.0478 86.0621 60.2829 85.9358 60.3545 85.8074C60.3618 85.7606 60.3618 85.6099 60.3618 85.3553Z" fill="#FFF0B8"/>
<path fill-rule="evenodd" clip-rule="evenodd" d="M48.1394 86.396C49.2302 86.7382 49.9408 87.5265 50.2493 88.7446C50.6074 90.0013 50.1777 90.7163 48.9566 90.8914C47.7446 91.0585 46.6832 90.8914 45.7871 90.368C44.9626 89.8506 44.4319 89.1968 44.2023 88.4166C44.0004 87.6304 44.2942 87.001 45.0838 86.5244C45.9009 86.0457 46.9201 86.007 48.1394 86.396Z" fill="#B09A4A"/>
<path fill-rule="evenodd" clip-rule="evenodd" d="M49.2523 86.9135C49.682 87.1762 50.0199 87.6528 50.255 88.3454C50.4496 89.0868 50.2917 89.5879 49.783 89.8506C48.8061 90.368 47.5868 90.2804 46.1379 89.5879C45.6293 89.372 45.2418 88.9829 44.9627 88.4167C44.6891 87.8932 44.6322 87.3921 44.7901 86.9135C44.948 86.4368 45.4365 86.1578 46.261 86.062C47.1571 85.9826 48.1542 86.2617 49.2523 86.9135Z" fill="#E3CE7F"/>
<path fill-rule="evenodd" clip-rule="evenodd" d="M49.5454 90.368C49.7822 90.1134 49.8961 89.8894 49.8961 89.7142C49.8961 89.4127 49.5086 89.0217 48.7208 88.545L45.7295 86.5876L47.0204 87.1131C47.9588 87.5021 48.6621 87.8443 49.1359 88.156C49.9181 88.6713 50.3129 89.0868 50.3129 89.3883C50.3129 89.8731 50.054 90.199 49.5454 90.368Z" fill="#B09A4A"/>
<path fill-rule="evenodd" clip-rule="evenodd" d="M45.3135 87.1131C45.2787 87.4553 45.2566 87.6773 45.2566 87.7568C45.2989 88.0195 45.4715 88.2578 45.7873 88.4819C45.9012 88.5695 46.1601 88.8465 46.5475 89.3252C46.8267 89.5879 47.0782 89.7386 47.3151 89.7773C47.7099 89.8262 48.0827 89.977 48.4334 90.2397C47.9248 90.2805 47.2784 90.1521 46.4906 89.8507C45.4788 89.4127 44.8838 88.7833 44.7333 87.9564C44.6102 87.3046 44.6323 86.9135 44.7902 86.7872C44.904 86.7383 45.084 86.612 45.3209 86.388C45.4715 86.2617 45.5357 86.2861 45.4935 86.4613L45.3135 87.1131Z" fill="#FFF0B8"/>
<path fill-rule="evenodd" clip-rule="evenodd" d="M30.2128 88.4167C31.8563 88.1071 33.2115 88.1947 34.2655 88.6713C35.2498 89.15 35.5583 89.7631 35.2057 90.5024C34.8182 91.2337 34.0507 91.8081 32.9177 92.1971C31.6267 92.6738 30.1779 92.8021 28.5711 92.5862C26.9992 92.3234 26.5126 91.6329 27.1002 90.5024C27.7246 89.4127 28.7639 88.7202 30.2128 88.4167Z" fill="#B09A4A"/>
<path fill-rule="evenodd" clip-rule="evenodd" d="M28.6855 88.8709C30.2133 88.3067 31.585 88.0908 32.8043 88.2191C33.8584 88.3454 34.468 88.657 34.6186 89.1336C34.7765 89.5227 34.6407 89.9769 34.2091 90.5024C33.7794 91.0198 33.212 91.3702 32.5087 91.5453C30.3933 92.0627 28.7865 92.0627 27.6884 91.5453C27.0218 91.2826 26.8859 90.8039 27.2734 90.1134C27.5892 89.539 28.063 89.1255 28.6855 88.8709Z" fill="#E3CE7F"/>
<path fill-rule="evenodd" clip-rule="evenodd" d="M27.8608 92.0627C27.2365 91.8957 26.9427 91.5841 26.9867 91.1543C27.0216 90.9791 27.1006 90.8284 27.2163 90.694C27.4532 90.5656 27.9618 90.3436 28.7441 90.0401C29.8055 89.5635 31.348 89.1256 33.3844 88.7447L29.216 90.4312C28.1546 90.8691 27.589 91.2174 27.5101 91.4802C27.5101 91.6085 27.6313 91.8081 27.8608 92.0627Z" fill="#B09A4A"/>
<path fill-rule="evenodd" clip-rule="evenodd" d="M33.9152 89.262L33.7426 88.6082C33.7003 88.433 33.9941 88.5695 34.6185 88.9993C34.8186 89.1337 34.8976 89.262 34.8554 89.3883C34.8186 89.5227 34.7397 89.7387 34.6185 90.0401C34.3449 90.7815 33.4634 91.3213 31.9779 91.6717C31.3113 91.8468 30.6869 91.9589 30.0993 91.9976H29.3887L30.9165 91.6085C31.2323 91.6085 31.5849 91.4802 31.9779 91.2174C32.4884 90.8284 32.8758 90.5901 33.1549 90.5025C33.5424 90.2805 33.8013 90.0646 33.9152 89.8507V89.262Z" fill="#FFF0B8"/>
<path fill-rule="evenodd" clip-rule="evenodd" d="M20.639 86.0702C22.2807 85.8482 23.6157 86.0233 24.633 86.5876C25.6099 87.1518 25.9037 87.7812 25.5163 88.4819C25.0847 89.1744 24.3043 89.6979 23.164 90.0401C21.829 90.4312 20.3801 90.478 18.8156 90.1765C17.2529 89.8262 16.8011 89.1092 17.4604 88.0195C18.0921 86.9379 19.1461 86.2861 20.639 86.0702Z" fill="#B09A4A"/>
<path fill-rule="evenodd" clip-rule="evenodd" d="M19.1106 86.4612C20.6733 85.9826 22.0432 85.8481 23.2202 86.0702C24.2816 86.2453 24.8692 86.5712 24.9849 87.0499C25.1428 87.4797 24.9849 87.94 24.5112 88.4166C24.0815 88.8464 23.514 89.1581 22.8107 89.3251C20.6953 89.763 19.0665 89.6978 17.9335 89.1336C17.3091 88.8322 17.1879 88.3311 17.5828 87.6386C17.9684 87.0642 18.4789 86.6751 19.1106 86.4612Z" fill="#E3CE7F"/>
<path fill-rule="evenodd" clip-rule="evenodd" d="M18.1137 89.5879C17.5243 89.372 17.2451 89.0461 17.2874 88.6081C17.3241 88.3454 17.9338 88.0195 19.1108 87.6304C20.1649 87.2394 21.7349 86.889 23.8081 86.5876L19.5185 88.0195C18.4222 88.3698 17.8548 88.6957 17.8181 88.9992C17.7758 89.1255 17.8768 89.3251 18.1137 89.5879Z" fill="#B09A4A"/>
<path fill-rule="evenodd" clip-rule="evenodd" d="M22.2235 89.4595C21.1253 89.6754 20.2641 89.7141 19.6416 89.5878L21.2263 89.3251C21.5348 89.3719 21.8856 89.2619 22.2804 88.9992C22.789 88.657 23.1838 88.4329 23.4575 88.3535C23.8523 88.1783 24.102 87.9807 24.225 87.7648C24.2599 87.6385 24.282 87.4145 24.282 87.113L24.1608 86.5244C24.124 86.3573 24.4178 86.4836 25.0422 86.9216C25.2001 87.0499 25.257 87.2006 25.2222 87.3758C25.1781 87.4634 25.0844 87.6772 24.9283 88.0276C24.6547 88.6712 23.7513 89.1499 22.2235 89.4595Z" fill="#FFF0B8"/>
<path fill-rule="evenodd" clip-rule="evenodd" d="M26.9207 78.1773C28.2134 77.3971 29.3887 77.0325 30.4501 77.0712C31.3902 77.1588 31.7997 77.5499 31.6841 78.2486C31.5702 78.99 31.0524 79.6968 30.1562 80.3975C29.1738 81.2245 27.9618 81.8131 26.513 82.1553C25.099 82.5057 24.5114 82.1166 24.7483 80.9861C24.9852 79.8557 25.7087 78.9167 26.9207 78.1773Z" fill="#B09A4A"/>
<path fill-rule="evenodd" clip-rule="evenodd" d="M25.6886 79.0918C26.8638 78.0978 27.9968 77.4623 29.0949 77.2077C29.9984 76.945 30.5879 76.9837 30.8596 77.334C31.0965 77.5968 31.0965 78.0102 30.8596 78.5745C30.5879 79.1407 30.1784 79.5929 29.6256 79.9433C28.0978 81.0737 26.7279 81.6379 25.516 81.6379C24.8843 81.5911 24.6547 81.2407 24.8053 80.5971C24.9283 79.984 25.2222 79.4829 25.6886 79.0918Z" fill="#E3CE7F"/>
<path fill-rule="evenodd" clip-rule="evenodd" d="M25.8093 81.9659C25.2216 82.0046 24.8838 81.8539 24.8048 81.5035C24.7699 81.3283 24.8048 81.1776 24.9278 81.0493C25.0417 80.923 25.4145 80.5727 26.0388 80.0084C26.8284 79.3159 28.0624 78.44 29.7482 77.3971L26.5126 80.1347C25.6881 80.8741 25.3006 81.3528 25.3355 81.5667C25.3355 81.7031 25.4934 81.8294 25.8093 81.9659Z" fill="#B09A4A"/>
<path fill-rule="evenodd" clip-rule="evenodd" d="M30.2719 77.6598L29.9781 77.2077C29.8991 77.0712 29.9781 77.0325 30.2131 77.0712C30.3288 77.0712 30.551 77.1201 30.8595 77.2077C31.0523 77.2464 31.1386 77.5498 31.0964 78.1141C31.0174 78.8066 30.3931 79.5297 29.216 80.2691C28.6651 80.6602 28.1546 80.9616 27.6882 81.1775L27.1006 81.3751L28.3346 80.597C28.801 80.373 29.3317 79.8169 29.9193 78.9023C30.2352 78.6396 30.3931 78.4013 30.3931 78.1854C30.3931 78.0978 30.3509 77.9226 30.2719 77.6598Z" fill="#FFF0B8"/>
<path fill-rule="evenodd" clip-rule="evenodd" d="M27.158 84.3124C28.3351 83.349 29.4534 82.9436 30.5092 83.0699C31.4917 83.1982 31.9783 83.7237 31.9783 84.6302C32.015 85.5936 31.6643 86.5245 30.9169 87.439C30.0998 88.433 29.0016 89.1093 27.6317 89.4596C26.2619 89.8507 25.5732 89.2844 25.5732 87.7649C25.5732 86.3248 26.1039 85.1801 27.158 84.3124Z" fill="#B09A4A"/>
<path fill-rule="evenodd" clip-rule="evenodd" d="M26.1602 85.4184C27.1371 84.2411 28.1416 83.4854 29.1589 83.135C30.0201 82.8723 30.6224 82.9599 30.9805 83.3978C31.289 83.7868 31.368 84.3286 31.21 85.0273C31.0962 85.7606 30.7803 86.3492 30.2717 86.7872C29.4894 87.5673 28.8228 88.1071 28.2774 88.4167C27.7247 88.7202 27.1224 88.824 26.4558 88.7446C25.8241 88.6957 25.5156 88.2435 25.5156 87.3677C25.5505 86.5875 25.7672 85.9357 26.1602 85.4184Z" fill="#E3CE7F"/>
<path fill-rule="evenodd" clip-rule="evenodd" d="M26.8066 89.1968C26.2539 89.2376 25.9032 89.0216 25.7526 88.545C25.6736 88.3311 25.6736 88.156 25.7526 88.0276C25.8242 87.7649 26.118 87.3127 26.6267 86.6589C27.2951 85.7443 28.3565 84.679 29.8053 83.4609L27.2161 86.9135C26.5128 87.7893 26.197 88.3698 26.2759 88.6794C26.3182 88.8465 26.4908 89.0216 26.8066 89.1968Z" fill="#B09A4A"/>
<path fill-rule="evenodd" clip-rule="evenodd" d="M30.4496 83.7869L30.0419 83.1982C29.9189 83.023 30.2127 83.0475 30.916 83.2614C31.118 83.3102 31.2318 83.4365 31.2759 83.6606L31.3328 84.4387C31.4834 85.2677 31.039 86.1986 29.9776 87.2394C29.1954 87.9401 28.5269 88.3699 27.9834 88.545L28.2772 88.156C28.549 87.8932 28.8226 87.7018 29.0944 87.5673C29.5241 87.3127 29.9409 86.612 30.3284 85.4816C30.6075 85.1394 30.7232 84.8135 30.6865 84.5039C30.6865 84.4163 30.6075 84.1759 30.4496 83.7869Z" fill="#FFF0B8"/>
<path fill-rule="evenodd" clip-rule="evenodd" d="M36.6766 75.7676C38.1255 75.513 39.3227 75.6006 40.2629 76.0284C41.1242 76.4194 41.3812 76.9205 41.0305 77.5255C40.7147 78.1773 40.0481 78.6784 39.0289 79.0287C37.8959 79.4198 36.6197 79.5298 35.2131 79.3546C33.8009 79.1407 33.3694 78.5521 33.9148 77.5968C34.4675 76.6333 35.3857 76.0284 36.6766 75.7676Z" fill="#B09A4A"/>
<path fill-rule="evenodd" clip-rule="evenodd" d="M35.3293 76.1567C36.6992 75.6801 37.8965 75.4886 38.9156 75.5762C39.854 75.6638 40.3994 75.9184 40.5573 76.3563C40.673 76.7046 40.5371 77.0957 40.1496 77.5255C39.7897 77.9634 39.3031 78.2649 38.6788 78.44C36.9141 78.9167 35.4872 78.9411 34.3891 78.5113C33.8364 78.2486 33.7225 77.8351 34.0366 77.2709C34.3451 76.7046 34.7766 76.3319 35.3293 76.1567Z" fill="#E3CE7F"/>
<path fill-rule="evenodd" clip-rule="evenodd" d="M34.5619 78.9023C34.0165 78.7659 33.7576 78.5031 33.8017 78.1141C33.8366 77.9389 33.9155 77.8106 34.0367 77.723C34.1873 77.5967 34.6188 77.3971 35.3295 77.1343C36.3046 76.7453 37.6965 76.3786 39.4961 76.0283L35.7959 77.4623C34.819 77.8513 34.3103 78.1609 34.2663 78.3768C34.2663 78.552 34.3673 78.7272 34.5619 78.9023Z" fill="#B09A4A"/>
<path fill-rule="evenodd" clip-rule="evenodd" d="M39.9128 76.4826L39.7898 75.9652C39.7182 75.7514 39.9697 75.839 40.5574 76.228C40.7153 76.3563 40.7722 76.4826 40.7373 76.6191C40.7373 76.6578 40.6584 76.8574 40.5004 77.2077C40.3003 77.8107 39.54 78.2649 38.205 78.5745C37.6174 78.7415 37.072 78.8291 36.5615 78.8291H35.917L37.2648 78.5745C37.7753 78.5276 38.4199 78.1773 39.2022 77.5255C39.597 77.3585 39.8338 77.1833 39.9128 77.0081V76.4826Z" fill="#FFF0B8"/>
<path fill-rule="evenodd" clip-rule="evenodd" d="M45.9012 77.723C47.2362 78.1609 48.1397 78.8534 48.6061 79.8087C49.0799 80.7233 49.0229 81.4403 48.4335 81.9577C47.8036 82.5219 46.9644 82.7439 45.9012 82.6095C44.7682 82.4811 43.6921 81.9577 42.6748 81.0492C41.6557 80.0878 41.6336 79.1956 42.616 78.3768C43.593 77.5498 44.6892 77.3339 45.9012 77.723Z" fill="#B09A4A"/>
<path fill-rule="evenodd" clip-rule="evenodd" d="M44.5532 77.5255C45.9671 77.6599 47.0634 78.0734 47.8457 78.7659C48.5049 79.3322 48.7859 79.872 48.6628 80.3975C48.5912 80.8741 48.2754 81.2408 47.7245 81.5035C47.1791 81.8131 46.6117 81.8926 46.024 81.7663C45.0416 81.5504 44.3016 81.2876 43.7856 80.9861C43.2769 80.6847 42.8454 80.2468 42.4946 79.6805C42.1788 79.1163 42.3147 78.5908 42.9041 78.1141C43.455 77.6844 44.0078 77.4847 44.5532 77.5255Z" fill="#E3CE7F"/>
<path fill-rule="evenodd" clip-rule="evenodd" d="M42.3786 80.1979C42.2996 80.1103 42.2225 79.984 42.1435 79.8088C42.0646 79.5053 42.1068 79.2283 42.2574 78.9656C42.3786 78.7904 42.4943 78.6784 42.6081 78.6397C42.8101 78.5908 43.2765 78.5908 44.0221 78.6397C45.0045 78.6784 46.3322 78.9656 48.0179 79.4829C46.9987 79.4422 45.7299 79.3546 44.202 79.2283C43.2178 79.1407 42.6302 79.2283 42.4373 79.4829C42.4373 79.8333 42.4153 80.0716 42.3786 80.1979Z" fill="#B09A4A"/>
<path fill-rule="evenodd" clip-rule="evenodd" d="M45.493 81.7031C44.9402 81.5666 44.4518 81.3915 44.0221 81.1776L43.5557 80.8517L44.7897 81.1776C45.1771 81.3996 45.9006 81.3528 46.9639 81.0493C47.3495 81.0493 47.6231 80.9617 47.7884 80.7865L48.1391 80.206L48.3117 79.5542C48.3539 79.379 48.4256 79.4035 48.5486 79.6173C48.5835 79.7457 48.6624 79.9677 48.7855 80.2691C48.8204 80.4851 48.8002 80.6602 48.7212 80.7865C48.6845 80.8354 48.5045 81.0106 48.196 81.312C47.6451 81.8701 46.7472 82.0046 45.493 81.7031Z" fill="#FFF0B8"/>
<path fill-rule="evenodd" clip-rule="evenodd" d="M51.3104 83.3326C52.9172 83.5872 54.1071 84.1535 54.8967 85.0273C55.679 85.8074 55.7929 86.4613 55.2401 86.9766C54.6948 87.5021 53.8354 87.7567 52.6583 87.7567C51.3251 87.7567 49.9754 87.3677 48.6055 86.5875C47.2357 85.8074 46.9767 85.0049 47.838 84.1759C48.7065 83.3489 49.8616 83.0698 51.3104 83.3326Z" fill="#B09A4A"/>
<path fill-rule="evenodd" clip-rule="evenodd" d="M49.7823 83.1982C51.345 83.245 52.658 83.5241 53.7193 84.0496C54.6173 84.5262 55.0892 85.0273 55.1333 85.5446C55.1682 85.9826 54.9111 86.3492 54.3657 86.6588C53.813 86.9623 53.1887 87.0642 52.4853 86.9847C50.4856 86.7627 49.0221 86.2209 48.0745 85.3552C47.5659 84.8297 47.5861 84.3286 48.1388 83.85C48.6052 83.4202 49.1579 83.1982 49.7823 83.1982Z" fill="#E3CE7F"/>
<path fill-rule="evenodd" clip-rule="evenodd" d="M48.1391 85.8706C48.0179 85.7851 47.9022 85.6567 47.7884 85.4816C47.5864 85.2188 47.5294 84.956 47.6084 84.7014C47.6874 84.5263 47.8031 84.4163 47.9591 84.3755C48.1538 84.3287 48.6625 84.2879 49.4888 84.2411C50.5851 84.2411 52.1349 84.4163 54.1292 84.7666L49.8395 84.8298C48.7065 84.8298 48.0748 84.9397 47.9591 85.1557C47.9243 85.3308 47.9812 85.5691 48.1391 85.8706Z" fill="#B09A4A"/>
<path fill-rule="evenodd" clip-rule="evenodd" d="M54.2432 85.9357L54.4231 85.4184L54.4801 84.7666C54.4801 84.5914 54.717 84.8053 55.1834 85.4184C55.3046 85.5447 55.3266 85.6974 55.2403 85.8706C55.2054 85.9195 55.0695 86.0946 54.8326 86.3961C54.3221 86.9623 53.3691 87.1518 51.9551 86.9766C51.2886 86.889 50.6862 86.7627 50.1335 86.5876L49.5459 86.3248H50.0197C50.3704 86.3737 50.7009 86.4368 51.0168 86.5244C51.5254 86.6996 52.3077 86.612 53.3691 86.2617C53.7988 86.2209 54.0926 86.1109 54.2432 85.9357Z" fill="#FFF0B8"/>
<path fill-rule="evenodd" clip-rule="evenodd" d="M39.854 82.2917C41.4607 82.7215 42.6158 83.4365 43.3191 84.4386C43.9857 85.3939 44.0077 86.174 43.376 86.7871C42.7094 87.3921 41.7692 87.6528 40.5573 87.5673C39.1874 87.4308 37.8175 86.8666 36.4403 85.8705C35.1126 84.8684 34.9987 83.9151 36.0895 82.9985C37.1509 82.0921 38.3978 81.8538 39.854 82.2917Z" fill="#B09A4A"/>
<path fill-rule="evenodd" clip-rule="evenodd" d="M38.2616 82.029C39.9124 82.1552 41.2382 82.5687 42.2574 83.2613C43.1186 83.8744 43.5336 84.4793 43.4914 85.0924C43.4547 85.5691 43.1186 85.9826 42.4943 86.3248C41.8699 86.6344 41.2034 86.7219 40.5001 86.5875C39.323 86.3736 38.4195 86.1109 37.7952 85.8074C37.1286 85.5059 36.5612 85.0273 36.0892 84.3755C35.6228 83.7623 35.7165 83.1981 36.383 82.6808C36.9707 82.2041 37.595 81.9801 38.2616 82.029Z" fill="#E3CE7F"/>
<path fill-rule="evenodd" clip-rule="evenodd" d="M36.0307 85.0273C35.9168 84.8929 35.8158 84.7422 35.7368 84.567C35.544 84.2248 35.522 83.8989 35.6799 83.5873C35.7589 83.4202 35.8948 83.3102 36.0894 83.2614C36.2822 83.2227 36.835 83.2227 37.7311 83.2614C38.9082 83.3102 40.5149 83.5873 42.5514 84.1128L38.0249 83.9213C36.857 83.8745 36.1886 83.9865 36.0307 84.2411C35.9168 84.3755 35.9168 84.6302 36.0307 85.0273Z" fill="#B09A4A"/>
<path fill-rule="evenodd" clip-rule="evenodd" d="M42.788 84.8928L42.9092 84.1127C42.9459 83.9375 43.0469 83.962 43.2048 84.1759C43.2838 84.351 43.3977 84.6138 43.5556 84.956C43.6713 85.1312 43.6713 85.3063 43.5556 85.4815C43.5133 85.5222 43.3407 85.7198 43.0249 86.062C42.4373 86.7159 41.3961 86.889 39.9123 86.5875C39.2439 86.4124 38.6343 86.1985 38.0907 85.9357L37.4443 85.6098L39.0291 85.9989C39.3027 86.1333 39.6755 86.1333 40.1492 85.9989C40.7717 85.8706 41.2253 85.8074 41.4971 85.8074C41.9708 85.8074 42.2995 85.6974 42.5015 85.4815C42.5364 85.4347 42.6301 85.2432 42.788 84.8928Z" fill="#FFF0B8"/>
<path fill-rule="evenodd" clip-rule="evenodd" d="M41.7338 89.3251C43.4122 89.2843 44.7674 89.5634 45.7866 90.1765C46.7268 90.7407 46.9765 91.3049 46.5542 91.8712C46.1171 92.4761 45.2981 92.8896 44.0788 93.1116C42.7089 93.3276 41.2252 93.2155 39.6184 92.7857C38.0465 92.3091 37.637 91.6084 38.3844 90.6939C39.0859 89.7854 40.206 89.3251 41.7338 89.3251Z" fill="#B09A4A"/>
<path fill-rule="evenodd" clip-rule="evenodd" d="M40.1491 89.5227C41.7559 89.2213 43.1607 89.2213 44.3726 89.5227C45.4359 89.7387 46.0235 90.089 46.1373 90.5656C46.2604 90.9567 46.0584 91.3458 45.5497 91.7429C45.0833 92.134 44.4736 92.3479 43.7281 92.3886C41.5759 92.5638 39.9471 92.3479 38.8564 91.7429C38.2265 91.3926 38.1329 90.9404 38.5625 90.3742C38.9941 89.8894 39.5174 89.6103 40.1491 89.5227Z" fill="#E3CE7F"/>
<path fill-rule="evenodd" clip-rule="evenodd" d="M38.9719 92.1971C38.3842 91.9344 38.1253 91.6085 38.2043 91.2174C38.2465 90.9954 38.8709 90.7571 40.0828 90.5025C41.2177 90.2804 42.8446 90.1277 44.9619 90.0401L40.4923 90.9567C39.3593 91.1319 38.7497 91.3457 38.6781 91.6085C38.634 91.7348 38.735 91.9344 38.9719 92.1971Z" fill="#B09A4A"/>
<path fill-rule="evenodd" clip-rule="evenodd" d="M46.1375 90.5025C46.2954 90.6288 46.3542 90.7571 46.3174 90.8915C46.2752 90.8915 46.1595 91.0586 45.9667 91.4089C45.6068 92.0628 44.6684 92.4111 43.1406 92.4518C42.4795 92.4987 41.8277 92.4987 41.2033 92.4518L40.5 92.3235L42.1435 92.2603C42.4575 92.3011 42.8101 92.2359 43.2049 92.0628C43.7852 91.8081 44.202 91.6472 44.4389 91.6085C44.9035 91.4802 45.1991 91.3213 45.3203 91.1543C45.357 91.0667 45.3772 90.8691 45.3772 90.5656L45.313 89.977C45.2781 89.6755 45.5499 89.8507 46.1375 90.5025Z" fill="#FFF0B8"/>
<path fill-rule="evenodd" clip-rule="evenodd" d="M23.6354 82.3549C24.9282 81.7907 26.0245 81.6542 26.9206 81.9658C27.7818 82.2205 28.1197 82.6808 27.9251 83.3326C27.7249 84.0251 27.1942 84.6545 26.333 85.2188C25.3579 85.8706 24.2249 86.2209 22.9266 86.2616C21.6357 86.3085 21.1472 85.785 21.4557 84.7014C21.7716 83.6117 22.4951 82.8315 23.6354 82.3549Z" fill="#B09A4A"/>
<path fill-rule="evenodd" clip-rule="evenodd" d="M22.5172 83.0066C23.6502 82.2673 24.7116 81.8538 25.6885 81.7662C26.5552 81.6786 27.0786 81.8293 27.2732 82.2204C27.4734 82.5687 27.4312 82.9842 27.1575 83.4609C26.8858 83.9864 26.4763 84.3917 25.9235 84.7013C24.3608 85.5222 23.0626 85.8074 22.0434 85.5446C21.498 85.4183 21.3199 85.0272 21.5201 84.3754C21.7147 83.7623 22.0434 83.3101 22.5172 83.0066Z" fill="#E3CE7F"/>
<path fill-rule="evenodd" clip-rule="evenodd" d="M22.2805 85.9358C21.7718 85.8951 21.4982 85.6812 21.456 85.2901C21.4193 85.1149 21.456 84.9642 21.5772 84.8298C21.6929 84.7014 22.0656 84.4163 22.6973 83.9865C23.4778 83.4202 24.6695 82.7929 26.2763 82.0922L23.105 84.2411C22.3172 84.8053 21.9298 85.2188 21.9298 85.4816C21.9298 85.6099 22.0436 85.7606 22.2805 85.9358Z" fill="#B09A4A"/>
<path fill-rule="evenodd" clip-rule="evenodd" d="M26.7502 82.4812L26.5133 81.9659C26.4766 81.7907 26.7282 81.8294 27.2736 82.0922C27.4737 82.2205 27.5105 82.5464 27.3948 83.0699C27.3158 83.7237 26.6915 84.3511 25.5162 84.956C25.0057 85.2188 24.5118 85.394 24.0453 85.4815L23.5146 85.6099L24.6917 85.0925C25.1214 84.956 25.6521 84.4794 26.2765 83.6606C26.5923 83.4365 26.7649 83.2226 26.8072 83.0067C26.8072 82.9191 26.7851 82.744 26.7502 82.4812Z" fill="#FFF0B8"/>
<path fill-rule="evenodd" clip-rule="evenodd" d="M34.2092 79.0919C35.737 79.1794 36.8921 79.5929 37.6743 80.3344C38.4199 81.0737 38.5558 81.7418 38.0912 82.355C37.6174 82.9599 36.8131 83.3327 35.6801 83.461C34.424 83.5873 33.1331 83.349 31.8 82.744C30.465 82.1329 30.1932 81.3528 30.9736 80.3975C31.7632 79.4422 32.8393 79.0043 34.2092 79.0919Z" fill="#B09A4A"/>
<path fill-rule="evenodd" clip-rule="evenodd" d="M32.7384 79.2201C34.2313 79.0531 35.4874 79.157 36.5047 79.546C37.3659 79.8964 37.8323 80.3343 37.9113 80.8517C37.9903 81.2876 37.7754 81.7031 37.2649 82.0921C36.7563 82.4812 36.1686 82.6808 35.5002 82.6808C33.6217 82.7215 32.1949 82.3549 31.2106 81.5666C30.7019 81.1368 30.7019 80.6358 31.2106 80.0715C31.6421 79.5929 32.1508 79.3158 32.7384 79.2201Z" fill="#E3CE7F"/>
<path fill-rule="evenodd" clip-rule="evenodd" d="M31.3331 82.0922C31.21 82.0046 31.0962 81.8925 30.9805 81.7663C30.7455 81.5035 30.6665 81.2407 30.7455 80.9861C30.8226 80.811 30.9162 80.6989 31.0393 80.6602C31.2321 80.5726 31.7205 80.4606 32.5083 80.3343C33.5642 80.1592 35.0332 80.1184 36.9136 80.206L32.8609 80.8517C31.7995 80.9861 31.2321 81.1776 31.1531 81.4404C31.1182 81.5666 31.1752 81.7907 31.3331 82.0922Z" fill="#B09A4A"/>
<path fill-rule="evenodd" clip-rule="evenodd" d="M37.2641 80.1346C37.2641 79.9595 37.3431 79.9595 37.501 80.1346C37.6167 80.2691 37.7746 80.4605 37.9674 80.7233C38.0904 80.8516 38.1033 81.0024 38.0243 81.1775C37.9105 81.3914 37.7948 81.591 37.6736 81.7662C37.2439 82.418 36.3606 82.7439 35.033 82.7439C34.4105 82.7439 33.821 82.6808 33.2683 82.5463L32.6807 82.3549L33.1544 82.2917C33.5052 82.2917 33.821 82.3304 34.0946 82.418C34.6033 82.5463 35.3286 82.3549 36.267 81.8293C36.6618 81.7417 36.9354 81.591 37.0933 81.3751L37.2641 80.7864C37.2292 80.6602 37.2292 80.4381 37.2641 80.1346Z" fill="#FFF0B8"/>
<path fill-rule="evenodd" clip-rule="evenodd" d="M42.6747 74.6615C43.5709 74.963 44.2154 75.6637 44.6102 76.7453C44.9628 77.8757 44.6469 78.5744 43.6719 78.829C42.6876 79.0918 41.7915 78.9899 40.967 78.5031C40.2637 78.0733 39.7899 77.4847 39.553 76.7453C39.3235 76.0527 39.5181 75.4641 40.1425 74.9874C40.809 74.4619 41.6556 74.358 42.6747 74.6615Z" fill="#B09A4A"/>
<path fill-rule="evenodd" clip-rule="evenodd" d="M43.6128 75.1138C43.9654 75.3766 44.2592 75.8145 44.4961 76.4195C44.733 77.0713 44.6467 77.5499 44.2592 77.8514C43.5137 78.3769 42.5166 78.3525 41.2605 77.7882C40.8308 77.6131 40.4783 77.2709 40.2065 76.7454C39.9274 76.2198 39.8337 75.7677 39.9127 75.3766C40.0633 74.8999 40.4581 74.5964 41.0879 74.462C41.7912 74.3337 42.6304 74.5496 43.6128 75.1138Z" fill="#E3CE7F"/>
<path fill-rule="evenodd" clip-rule="evenodd" d="M44.0792 78.3137C44.2371 78.0978 44.3161 77.8982 44.3161 77.723C44.2812 77.4684 43.9213 77.1201 43.2621 76.6822L40.6729 74.9875L41.7342 75.3765C42.5165 75.7269 43.1188 76.0283 43.5559 76.2911C44.2592 76.729 44.6319 77.0957 44.6687 77.3971C44.6687 77.8351 44.474 78.1385 44.0792 78.3137Z" fill="#B09A4A"/>
<path fill-rule="evenodd" clip-rule="evenodd" d="M40.3794 75.513C40.3794 76.0772 40.5373 76.4826 40.8513 76.7453C40.967 76.8329 41.2039 77.0712 41.5546 77.4623C41.7915 77.723 42.0064 77.8758 42.201 77.9226C42.5517 77.9226 42.8676 78.0265 43.1412 78.2485C42.7464 78.328 42.223 78.2485 41.5546 77.9858C40.6144 77.5499 40.0837 77.0081 39.9699 76.3563C39.812 75.79 39.7899 75.4254 39.913 75.2502C40.3004 74.8123 40.4932 74.684 40.4932 74.8592L40.3794 75.513Z" fill="#FFF0B8"/>
<path fill-rule="evenodd" clip-rule="evenodd" d="M56.072 86.7871C57.1701 87.0886 57.9304 87.7811 58.3619 88.8709C58.7916 90.0014 58.4188 90.6939 57.2418 90.9567C56.1088 91.1705 55.0768 91.0442 54.1292 90.5656C53.268 90.1765 52.7024 89.6103 52.4288 88.8709C52.1919 88.1315 52.4288 87.5265 53.1321 87.0499C53.8776 86.5244 54.8527 86.4368 56.072 86.7871Z" fill="#B09A4A"/>
<path fill-rule="evenodd" clip-rule="evenodd" d="M57.1852 87.2393C57.6149 87.5021 57.9528 87.9156 58.1824 88.4818C58.4615 89.1255 58.3623 89.6103 57.8959 89.9138C57.0273 90.4311 55.8503 90.4148 54.3665 89.8506C53.856 89.6754 53.4484 89.3251 53.1325 88.8077C52.8167 88.323 52.723 87.8687 52.8387 87.4308C52.9966 86.9542 53.4484 86.6751 54.1939 86.5875C55.0478 86.4612 56.0522 86.6751 57.1852 87.2393Z" fill="#E3CE7F"/>
<path fill-rule="evenodd" clip-rule="evenodd" d="M57.7725 90.4312C57.9671 90.1765 58.0461 89.9525 58.0094 89.7855C57.9671 89.5227 57.5576 89.1744 56.7754 88.7446L53.7197 87.1131L55.0107 87.5021C55.9508 87.8056 56.6542 88.0826 57.1279 88.3454C57.7523 88.6957 58.125 88.934 58.2389 89.0624C58.3619 89.15 58.4188 89.2844 58.4188 89.4514C58.4611 89.9382 58.2389 90.2641 57.7725 90.4312Z" fill="#B09A4A"/>
<path fill-rule="evenodd" clip-rule="evenodd" d="M54.774 89.5879C55.055 89.8507 55.3047 89.9769 55.5416 89.9769C55.9364 90.0177 56.3092 90.1277 56.6618 90.3028C56.188 90.3904 55.5637 90.3028 54.7814 90.0401C53.6851 89.6979 53.0534 89.15 52.8955 88.4167C52.7816 88.0684 52.7229 87.8443 52.7229 87.7649C52.688 87.5897 52.7229 87.439 52.8386 87.3046C53.3123 86.9135 53.5272 86.8096 53.4831 86.9848L53.3693 87.5673C53.3693 87.9156 53.3913 88.1315 53.4262 88.2191C53.4629 88.433 53.641 88.6326 53.9569 88.8078C54.1075 88.8954 54.3866 89.15 54.774 89.5879Z" fill="#FFF0B8"/>
<path fill-rule="evenodd" clip-rule="evenodd" d="M20.9328 92.3886C22.4166 92.0382 23.7075 91.9975 24.8056 92.2602C25.7091 92.523 26.2196 92.8652 26.3408 93.3031C26.4565 93.6535 26.2985 94.0425 25.867 94.4723C25.4006 94.8695 24.8277 95.1098 24.1666 95.1974C22.2091 95.452 20.7382 95.2769 19.7558 94.6719C19.1681 94.3684 19.0671 93.9325 19.462 93.3663C19.8494 92.8489 20.3434 92.523 20.9328 92.3886Z" fill="#E3CE7F"/>
</g>
</g>
<defs>
<clipPath id="clip0_258_178627">
<rect width="95" height="92" fill="white" transform="translate(0.0126953)"/>
</clipPath>
<clipPath id="clip1_258_178627">
<rect width="48.2436" height="22" fill="white" transform="translate(13.4141 74)"/>
</clipPath>
</defs>
</svg>
