<svg width="62" height="92" viewBox="0 0 62 92" fill="none" xmlns="http://www.w3.org/2000/svg">
<g clip-path="url(#clip0_236_172504)">
<path d="M5.7077 18.3571C5.7077 18.3571 4.35116 20.139 2.68248 23.6855C1.01381 27.2321 1.60891 25.536 1.90731 35.1467C2.20572 44.7575 2.26574 76.3645 2.26574 76.3645C2.26574 76.3645 2.01879 84.6907 9.02619 88.1859C16.0336 91.681 45.015 90.6966 49.8907 89.7791C54.7664 88.8615 58.6594 83.4062 59.5203 79.9625C60.3812 76.5189 60.9163 41.5196 60.9163 41.5196L60.5596 27.0778C60.5596 27.0778 59.9113 23.6735 58.9509 22.6137C57.9905 21.5538 57.0953 17.4379 57.0953 17.4379C57.0953 17.4379 48.0882 20.2041 32.2624 20.3962C16.4366 20.5883 5.7077 18.3571 5.7077 18.3571Z" fill="#C67B3E"/>
<path d="M3.31162 14.2034V16.3591C3.31162 16.3591 3.28075 17.3109 4.32346 17.7654C5.36616 18.2199 10.1338 21.3377 32.6429 20.921C55.152 20.5059 57.7347 17.7654 57.7347 17.7654C57.7347 17.7654 58.9009 17.2921 59.189 16.2974C59.5629 15.006 59.3983 13.9136 59.3983 13.9136C59.3983 13.9136 57.3969 17.7654 31.7477 17.7654C7.6368 17.7654 3.44367 15.253 3.31162 14.2034Z" fill="#D3DEE2"/>
<path d="M61.4015 26.92C61.3586 24.2652 59.5767 22.0357 58.9216 21.1354C58.2682 20.235 57.656 18.3966 57.68 17.7654L56.2908 18.3571C56.2908 18.3571 56.4932 19.9829 57.0694 20.9399C57.6474 21.8968 58.9885 23.1505 59.3726 25.8053C59.7568 28.46 59.467 74.4129 58.6969 78.8084C57.9269 83.2039 55.5465 84.948 49.8717 86.0267C44.1968 87.1054 33.3136 87.5222 31.0052 87.5222C28.6968 87.5222 17.8084 87.1054 12.1319 86.0267C6.457 84.948 4.06975 83.2039 3.29972 78.8084C2.5297 74.4129 2.23986 28.46 2.62402 25.8053C3.00817 23.1505 4.351 21.8968 4.92724 20.9399C5.50518 19.9829 5.70584 18.3571 5.70584 18.3571L4.3167 17.7654C4.339 18.3966 3.72847 20.235 3.07506 21.1354C2.42337 22.0357 0.641505 24.2669 0.598631 26.92C0.555756 29.5748 1.23146 75.5688 1.45612 79.7482C1.68078 83.9276 6.41241 89.8425 11.5625 90.8424C16.7108 91.8422 31.0069 91.9983 31.0069 91.9983C31.0069 91.9983 45.2961 91.8422 50.4445 90.8424C55.5928 89.8425 60.3227 83.9276 60.5474 79.7482C60.7721 75.5688 61.4461 29.5731 61.4032 26.92H61.4015Z" fill="#D3DEE2"/>
<path d="M4.02205 13.4145C4.02205 13.4145 3.30176 13.8176 3.30176 14.2034C3.30176 14.5893 5.57753 18.129 31.935 18.129C58.2925 18.129 59.3987 13.9136 59.3987 13.9136C59.3987 13.9136 59.7194 13.1127 58.3954 13.1058C58.3954 13.1058 54.5436 15.7469 31.6006 15.9698C8.65763 16.1945 4.02205 13.4145 4.02205 13.4145Z" fill="#E5E5E5"/>
<path d="M4.10252 15.6251V16.9868C4.10252 16.9868 3.16614 18.2353 18.0487 19.4272C32.933 20.6191 46.7557 19.4272 46.7557 19.4272C46.7557 19.4272 28.1105 19.314 21.9314 18.9728C15.7524 18.6315 6.26168 17.1566 5.5431 16.5889C4.82624 16.0213 4.1008 15.6234 4.1008 15.6234L4.10252 15.6251Z" fill="white"/>
<path d="M8.33105 85.0097C8.33105 85.0097 16.1771 87.4519 31.0065 87.5205C45.8342 87.5908 53.8449 85.2807 55.1843 84.2997C56.5219 83.3171 58.6022 81.9725 58.8252 77.6834C59.0481 73.3942 59.849 27.6317 59.3757 25.8036C58.9023 23.9771 58.6485 23.2174 58.1306 22.4679C57.6144 21.7202 56.9181 21.2383 56.2921 18.3554C56.2921 18.3554 50.4149 20.9587 31.238 20.9416C31.238 20.9416 42.9616 21.4629 45.4518 24.0886C47.4634 26.21 47.1839 66.7727 39.8918 75.8998C34.9012 82.1457 26.9626 86.8465 8.33277 85.008L8.33105 85.0097Z" fill="#B26830"/>
<path d="M3.80176 80.7257C3.80176 80.7257 4.89077 85.1075 9.2794 87.5222C13.668 89.9369 27.3776 90.1632 31.6256 90.2387C35.8718 90.3142 50.6172 89.7088 53.2497 88.1962C55.8822 86.6818 58.1871 80.8252 58.1871 80.8252C58.1871 80.8252 56.9712 88.1344 31.0047 87.5205C5.03826 86.9048 3.80176 80.7257 3.80176 80.7257Z" fill="white"/>
<path d="M56.2905 18.3571C56.2905 18.3571 56.4672 20.0378 57.2029 21.1234C57.9386 22.209 59.2043 23.6427 59.4358 26.4004C59.6673 29.158 59.5318 41.7769 59.5215 44.1915C59.5113 46.6062 59.2969 65.3629 59.1786 69.2182C59.0602 73.0735 58.9625 77.2272 58.7652 78.4122C58.568 79.5973 58.8527 83.7784 50.2452 85.8912C41.636 88.0041 23.0028 88.2236 11.6514 85.2876C11.6514 85.2876 15.2614 87.2444 33.2618 85.4865C49.8062 83.871 53.111 77.9577 54.3029 63.5159C55.4948 49.0741 54.8397 32.9361 54.8397 28.6195C54.8397 24.3029 52.4044 23.2174 50.9055 22.1438C48.2713 20.2573 38.8338 20.7992 38.7446 20.8027C38.6571 20.8061 47.0296 20.2282 50.7632 19.6897C54.4967 19.1494 56.2922 18.3588 56.2922 18.3588L56.2905 18.3571Z" fill="#934B1B"/>
<path d="M41.3436 28.9145C41.3007 31.0428 38.8757 67.884 33.9589 75.4384C29.0403 82.9929 14.1766 85.7935 7.50875 82.7751C0.842628 79.755 3.33621 33.8777 3.29676 29.7274C3.2556 25.5772 4.3549 22.8761 9.19972 24.0886C15.3565 25.6303 41.3453 26.6387 41.3453 26.6387C41.3453 26.6387 41.395 26.4107 41.3453 28.9128L41.3436 28.9145Z" fill="#D38A48"/>
<path opacity="0.67" d="M8.72063 24.9289C8.72063 24.9289 6.28365 25.1501 5.77087 29.4633C5.25809 33.7765 5.77087 68.4996 5.77087 68.4996C5.77087 68.4996 9.61928 67.7262 11.029 59.7635C12.4404 51.8009 10.259 30.9004 19.8783 27.0297C19.8783 27.0297 11.6704 26.8085 8.72063 24.9289Z" fill="white"/>
<path opacity="0.67" d="M5.5498 70.1032V79.5578C5.5498 79.5578 6.73485 81.151 10.8165 82.1474V66.5377C10.8165 66.5377 8.18401 71.5969 5.5498 70.1049V70.1032Z" fill="white"/>
<path opacity="0.67" d="M21.9307 29.9058C21.9307 29.9058 22.1227 26.8102 26.676 26.9749C31.2293 27.1412 43.2204 27.0692 48.8644 25.5206C48.8644 25.5206 36.8081 31.2863 21.9307 29.9041V29.9058Z" fill="white"/>
<path opacity="0.51" d="M51.4406 24.9289C51.4406 24.9289 39.9074 27.2561 21.1318 25.8687C9.67747 25.0232 7.63151 23.1693 6.20121 24.6339C4.77092 26.0985 4.59256 28.611 4.23413 30.1304C3.8757 31.6499 3.51556 77.2615 4.77092 80.1392C6.02629 83.0186 18.7188 84.9257 23.4573 84.4987C28.1958 84.0716 26.9439 57.3214 29.1802 43.5981C31.4148 29.8766 51.4423 24.9289 51.4423 24.9289H51.4406Z" fill="#FFFDFD"/>
<path d="M60.24 4.63385C60.24 4.63385 60.1714 3.04578 57.923 2.40952C55.6833 1.77498 48.8988 -0.0737647 31.2208 0.00169431C13.7332 -0.0737647 6.77725 1.77498 4.53749 2.40952C2.28915 3.04578 2.24113 4.63385 2.24113 4.63385L2.23084 14.4813C2.21369 15.1295 2.78993 15.1724 2.78993 15.1724C9.69957 17.834 28.187 18.0364 31.1025 18.0518C31.1025 18.0518 31.1488 18.0518 31.274 18.0518C31.3992 18.0518 31.4455 18.0518 31.4455 18.0518C34.361 18.0347 52.8176 17.834 59.7272 15.1707C59.7272 15.1707 60.2691 15.1278 60.252 14.4795L60.24 4.63213V4.63385Z" fill="#0D52BF"/>
<path d="M2.23163 14.4795C2.23163 14.4795 2.079 14.9306 2.75298 15.1707C3.42697 15.4108 7.84304 17.2235 24.8282 17.9198C41.8133 18.6161 52.0483 16.9337 53.5987 16.6953C55.149 16.4569 59.5376 15.5 60.047 15.018C60.047 15.018 60.2459 14.9683 60.2459 14.2377C60.2459 13.5072 60.2408 4.63214 60.2408 4.63214C60.2408 4.63214 60.1722 3.14011 58.1536 2.47813C56.1334 1.81615 51.364 0.864333 45.1678 0.423584C45.1678 0.423584 55.5366 1.6961 58.2497 3.30475C58.2497 3.30475 51.6624 4.9134 32.7239 4.64586C13.7854 4.37832 6.18122 3.0818 6.18122 3.0818C6.18122 3.0818 14.5126 4.55668 32.4341 5.58395C50.3556 6.61123 51.906 5.89608 51.906 5.89608C51.906 5.89608 50.2785 12.5399 33.0326 14.9512C15.7868 17.3624 2.23506 14.4778 2.23506 14.4778L2.23163 14.4795Z" fill="#003A8E"/>
<path d="M3.14844 4.46924V13.5843C3.14844 13.5843 15.0058 14.9049 23.675 13.1059C32.3459 11.3069 35.4809 7.37441 35.4809 7.37441C35.4809 7.37441 19.9552 8.00038 3.14844 4.47095V4.46924Z" fill="#1B69DB"/>
<path d="M6.88086 2.34606C6.88086 2.34606 20.0553 -0.0206132 34.5863 0.313808C49.1173 0.648228 45.1369 3.7249 35.9669 3.90326C26.7969 4.08161 11.4427 3.2327 6.88086 2.34777V2.34606Z" fill="#1B69DB"/>
<path d="M54.1905 1.54004C54.1905 1.54004 57.358 2.18144 58.5551 2.63248C59.7521 3.08352 60.2426 3.88098 60.2426 4.63386C60.2426 5.38674 60.2478 14.4813 60.2478 14.4813C60.2478 14.4813 60.3112 14.7488 60.0917 14.9889C59.8722 15.229 58.0406 15.8635 54.9845 16.4432C51.9284 17.0246 43.1614 18.1856 31.028 18.0518C18.8945 17.9181 13.8044 17.0554 9.49814 16.6884C5.19183 16.3232 2.4873 15.0386 2.4873 15.0386C2.4873 15.0386 4.65504 16.3506 19.5736 17.2029C34.4922 18.0553 48.531 14.7162 52.4378 12.0357C56.3445 9.3552 56.7646 5.48277 56.7646 5.48277C56.7646 5.48277 38.8466 6.02985 24.3773 4.82765C24.3773 4.82765 45.7545 5.22896 51.7603 4.87224C57.7662 4.51553 59.2514 3.69577 59.284 3.45738C59.3165 3.219 57.7388 2.24661 54.1922 1.54175L54.1905 1.54004Z" fill="#00295B"/>
<path d="M4.17632 5.2581C3.69956 5.21694 3.66011 12.9138 3.78874 13.0321C3.91736 13.1504 12.1201 14.7008 13.1851 11.3051C14.2501 7.90945 8.71415 5.64568 4.17632 5.2581Z" fill="#2F88F2"/>
<path d="M19.3864 0.968939C15.5106 1.05297 8.42429 2.16085 8.3917 2.32377C8.35912 2.48841 16.2875 3.17269 20.3708 3.35104C24.4559 3.5294 24.3427 2.35293 24.0031 1.74239C23.6636 1.13186 21.6673 0.919205 19.3847 0.967224L19.3864 0.968939Z" fill="#2F88F2"/>
<path d="M0.727539 40.8628C0.727539 40.8628 2.48539 44.2276 15.8451 45.4932L15.3237 67.9886C15.3237 67.9886 6.66136 66.9493 1.1014 62.9414L0.727539 40.8628Z" fill="#1B69DB"/>
<path d="M61.264 40.8628C61.264 40.8628 59.5062 44.2276 46.1465 45.4932L46.6678 67.9886C46.6678 67.9886 55.3302 66.9493 60.8902 62.9414L61.264 40.8628Z" fill="#003A8E"/>
<path d="M15.3232 67.9886L13.3184 45.2137C13.3184 45.2137 17.4189 38.6299 31.2296 38.0468C45.0403 37.4637 50.0463 45.0216 50.0463 45.0216L46.6661 67.9886C46.6661 67.9886 32.7045 70.8972 15.3215 67.9886H15.3232Z" fill="#1B69DB"/>
<path d="M26.567 38.5115C26.567 38.5115 31.0843 37.5186 37.5103 38.3761C43.9363 39.2353 48.8497 43.082 50.0468 45.0216L48.3198 67.7245C48.3198 67.7245 41.4668 69.4703 29.2184 69.28C16.97 69.0896 7.51877 67.354 1.09961 62.9397C1.09961 62.9397 3.6172 65.6219 17.2856 67.6713C30.9522 69.7207 41.8869 67.5547 44.2519 66.5343C46.6168 65.5156 46.9324 49.851 46.5654 45.5395C46.1984 41.2281 38.1088 37.0487 26.567 38.5081V38.5115Z" fill="#003A8E"/>
<path d="M20.6856 58.894L20.5947 47.498C20.5947 47.498 21.7129 40.2676 31.6769 40.2676C41.6409 40.2676 42.1589 47.0812 42.1589 47.0812L42.4333 59.0518L40.7663 61.9501L22.1296 62.041L20.6856 58.894Z" fill="white"/>
<path d="M31.5179 63.1232C32.3445 62.8436 33.9755 62.384 35.9734 62.9482C38.6213 63.696 42.3154 63.7937 42.4818 59.1633C42.4818 59.1633 42.4818 59.0895 42.4818 59.0775C42.4818 59.0655 42.4818 58.9918 42.4818 58.9918C42.5726 54.5328 38.8752 54.2756 36.1912 54.8741C34.1658 55.3252 32.5623 54.7832 31.7529 54.4574C29.9864 53.7491 28.3246 53.0288 25.6338 53.0477C22.6377 53.07 20.8267 55.0473 20.6038 58.4773H20.6003C20.6003 58.4773 20.6003 58.551 20.6003 58.563C20.6003 58.575 20.5986 58.6488 20.5986 58.6488H20.6021C20.6295 62.0787 22.3376 64.0801 25.3285 64.2705C28.0142 64.442 29.7137 63.7337 31.5162 63.1249L31.5179 63.1232Z" fill="#EDC994"/>
<path d="M42.48 59.2062C42.48 59.2062 42.6001 61.2881 41.0377 62.6001C39.4754 63.912 36.6714 63.1249 36.2529 63.0117C35.8345 62.8985 34.7626 62.5932 33.6239 62.6876C32.4851 62.7819 31.4767 63.1437 30.8868 63.3392C30.2968 63.5348 28.2405 64.3339 25.4417 64.2156C22.6429 64.0956 20.6689 62.3634 20.6072 58.6899C20.6072 58.6899 20.3808 60.0739 22.0306 61.8764C23.6804 63.6788 26.5461 63.8109 28.8974 63.3392C31.2469 62.8676 31.6533 62.2537 33.8622 62.0839C36.0711 61.9141 37.0624 62.6378 39.1752 62.6567C41.2881 62.6773 42.4388 61.1955 42.4834 59.2062H42.48Z" fill="#D8A368"/>
<path d="M42.3013 58.3006C42.4539 56.939 41.5981 55.1005 39.0137 54.8707C36.4292 54.6409 35.9421 55.2548 34.0608 55.2274C32.1795 55.2 30.0015 54.0149 28.0035 53.4473C26.0056 52.8796 23.2393 53.3169 22.2172 54.5723C20.6428 56.5068 21.087 58.9026 24.4724 59.412C27.8595 59.9213 29.9603 59.1924 33.3114 59.3125C36.6624 59.4325 38.2642 59.4943 39.9586 59.5989C41.653 59.7035 42.1881 59.3193 42.3013 58.2989V58.3006Z" fill="#F9DDAA"/>
<path d="M41.9225 57.1344C41.9482 56.9081 41.4732 55.994 40.9569 55.6716C40.4407 55.3491 40.4922 56.4519 40.6037 56.5393C40.7151 56.6285 41.3651 56.8755 41.5658 56.9921C41.7664 57.1087 41.9225 57.1327 41.9225 57.1327V57.1344Z" fill="url(#paint0_linear_236_172504)"/>
<path d="M40.1595 55.3989C40.096 55.2377 39.3209 55.0559 38.7532 55.0593C38.1838 55.0627 38.1513 55.3577 38.1616 55.6596C38.1718 55.9614 38.2833 56.0471 38.8321 56.1072C39.3809 56.1672 39.9468 56.2804 40.0497 56.2049C40.1526 56.1295 40.2367 55.5961 40.1595 55.4006V55.3989Z" fill="url(#paint1_linear_236_172504)"/>
<path d="M37.7619 55.3749C37.6847 55.2308 37.0776 55.2823 36.6026 55.4366C36.1275 55.591 36.2579 56.0506 36.4602 56.1329C36.6626 56.2152 37.4738 56.1792 37.6607 56.0952C37.8476 56.0112 37.7602 55.3749 37.7602 55.3749H37.7619Z" fill="url(#paint2_linear_236_172504)"/>
<path d="M35.8824 55.6235C35.8138 55.4538 35.2032 55.6681 34.8139 55.6698C34.4246 55.6698 34.4126 55.8088 34.4092 56.0883C34.4058 56.3678 34.8654 56.4261 35.373 56.4004C35.8806 56.3747 36.1139 56.1998 35.8824 55.6235Z" fill="url(#paint3_linear_236_172504)"/>
<path d="M34.0847 55.7796C34.0607 55.6133 33.9235 55.5876 33.5651 55.5533C33.2049 55.519 32.6733 55.3766 32.3492 55.3029C32.025 55.2291 31.857 55.958 32.6218 56.2787C33.3867 56.5994 34.2099 56.6474 34.0864 55.7796H34.0847Z" fill="url(#paint4_linear_236_172504)"/>
<path d="M31.8009 55.1983C31.7495 55.013 30.5421 54.5397 29.851 54.3768C29.1599 54.2139 29.057 55.2326 29.9059 55.8105C30.7565 56.3885 31.5728 56.3524 31.6877 56.0935C31.8026 55.8345 31.8009 55.1983 31.8009 55.1983Z" fill="url(#paint5_linear_236_172504)"/>
<path d="M28.9952 54.1075C28.8718 54.0218 28.16 53.6342 27.3094 53.6857C26.4588 53.7371 26.4331 54.4711 26.5034 54.6992C26.5737 54.9273 27.095 55.0422 27.9388 55.26C28.7826 55.4778 28.8598 55.6064 28.9832 55.4589C29.1067 55.3115 29.1513 54.2156 28.997 54.1075H28.9952Z" fill="url(#paint6_linear_236_172504)"/>
<path d="M21.9244 55.5207C21.8077 55.3955 21.1972 56.0986 21.1115 56.6629C21.0257 57.2288 21.2778 57.1791 21.6757 56.8944C22.0736 56.6097 22.3514 55.9786 21.9244 55.5207Z" fill="url(#paint7_linear_236_172504)"/>
<path d="M26.2631 54.6769C26.2546 54.3219 26.3283 53.8914 26.2254 53.7508C26.1225 53.6102 25.1004 53.7456 24.73 53.8983C24.3595 54.0526 24.4213 55.26 24.6545 55.2926C24.8877 55.3251 26.0522 55.272 26.1757 55.1776C26.2992 55.0833 26.2649 54.6752 26.2649 54.6752L26.2631 54.6769Z" fill="url(#paint8_linear_236_172504)"/>
<path d="M24.1637 54.2636C24.1037 54.0458 23.6389 54.0321 23.049 54.3631C22.459 54.694 22.2464 55.2446 22.2738 55.4041C22.3013 55.5618 22.4179 55.946 22.5499 55.9494C22.682 55.9528 24.114 55.6321 24.186 55.5241C24.258 55.4143 24.2786 54.6803 24.1637 54.2653V54.2636Z" fill="url(#paint9_linear_236_172504)"/>
<path d="M41.6702 60.9108C41.6891 61.1372 41.1849 62.0359 40.6584 62.3411C40.1319 62.6464 40.2193 61.5454 40.3342 61.4613C40.4492 61.3773 41.106 61.1509 41.3101 61.0395C41.5124 60.9297 41.6702 60.9108 41.6702 60.9108Z" fill="url(#paint10_linear_236_172504)"/>
<path d="M40.0536 62.4354C39.985 62.5949 39.2047 62.751 38.637 62.7287C38.0677 62.7064 38.0437 62.4114 38.0642 62.1096C38.0848 61.8078 38.198 61.7254 38.7485 61.6843C39.299 61.6431 39.8684 61.5471 39.9679 61.6277C40.0673 61.7083 40.1359 62.2416 40.0519 62.4354H40.0536Z" fill="url(#paint11_linear_236_172504)"/>
<path d="M37.6536 62.42C37.573 62.5623 36.9659 62.4903 36.4978 62.3205C36.0296 62.1507 36.1736 61.6963 36.3777 61.6208C36.5818 61.5454 37.393 61.6071 37.5765 61.6963C37.7617 61.7855 37.6536 62.4183 37.6536 62.4183V62.42Z" fill="url(#paint12_linear_236_172504)"/>
<path d="M35.7832 62.0719C35.7094 62.24 35.1058 62.005 34.7165 61.9913C34.3272 61.9776 34.3186 61.8387 34.3254 61.5591C34.3323 61.2796 34.7919 61.2367 35.2978 61.2779C35.8055 61.319 36.0319 61.5025 35.7832 62.0719Z" fill="url(#paint13_linear_236_172504)"/>
<path d="M33.9944 61.818C33.9653 61.9827 33.8281 62.0033 33.4679 62.0273C33.1078 62.0513 32.571 62.1748 32.2434 62.2382C31.9159 62.3 31.7718 61.5677 32.547 61.271C33.3204 60.9743 34.1454 60.9537 33.9944 61.818Z" fill="url(#paint14_linear_236_172504)"/>
<path d="M31.6894 62.4406C31.6311 62.6241 30.41 63.0563 29.7137 63.1986C29.0174 63.3409 28.9471 62.3171 29.8149 61.7666C30.6827 61.2161 31.499 61.2795 31.6053 61.5419C31.7117 61.8043 31.6894 62.4406 31.6894 62.4406Z" fill="url(#paint15_linear_236_172504)"/>
<path d="M28.8169 63.2809C28.69 63.3615 27.9663 63.7268 27.1173 63.6479C26.2684 63.569 26.2667 62.8333 26.3439 62.6087C26.4211 62.384 26.9458 62.2845 27.7965 62.0959C28.6471 61.9055 28.7277 61.7803 28.846 61.9312C28.9644 62.0822 28.9747 63.1797 28.8169 63.2809Z" fill="url(#paint16_linear_236_172504)"/>
<path d="M21.8813 61.9141C21.7647 62.029 21.1885 61.3396 21.1199 60.7994C21.0513 60.2592 21.2965 60.314 21.6755 60.5987C22.0546 60.8834 22.3101 61.4939 21.8796 61.9141H21.8813Z" fill="url(#paint17_linear_236_172504)"/>
<path d="M26.1432 62.6241C26.1226 62.9774 26.1843 63.4113 26.0763 63.5485C25.9683 63.6857 24.9513 63.5176 24.586 63.3513C24.2207 63.1849 24.3202 61.981 24.5551 61.9553C24.7883 61.9296 25.9511 62.0204 26.0711 62.1199C26.1912 62.2194 26.1449 62.6241 26.1449 62.6241H26.1432Z" fill="url(#paint18_linear_236_172504)"/>
<path d="M24.0666 63.0477C23.9997 63.2638 23.5349 63.2621 22.9553 62.9105C22.3756 62.5606 22.1818 62.0033 22.2144 61.8455C22.247 61.6877 22.3756 61.3087 22.5077 61.3104C22.6397 61.3104 24.0614 61.6774 24.13 61.7906C24.1986 61.9021 24.1952 62.6361 24.0666 63.0477Z" fill="url(#paint19_linear_236_172504)"/>
<path d="M41.9539 57.7553C41.664 57.4071 41.2507 57.1053 40.8443 56.999C40.4378 56.8926 40.3126 57.8239 40.5407 57.9817C40.7688 58.1394 41.628 58.3469 41.8458 58.3126C42.2729 58.2458 41.9539 57.7553 41.9539 57.7553Z" fill="url(#paint20_linear_236_172504)"/>
<path d="M41.8779 60.4821C41.9893 60.3226 42.0888 60.0242 41.7218 59.9659C41.3548 59.9059 40.5745 59.815 40.4596 60.0533C40.3464 60.2917 40.3035 60.9417 40.5899 61.0017C40.8746 61.0635 41.8024 60.5901 41.8779 60.4821Z" fill="url(#paint21_linear_236_172504)"/>
<path d="M42.2386 59.0021C42.2198 58.6573 40.8512 58.4173 40.7243 58.6745C40.5974 58.9317 40.6557 59.4548 40.7243 59.4754C40.7912 59.4977 41.9162 59.6263 42.1014 59.46C42.2849 59.2936 42.2403 59.0021 42.2403 59.0021H42.2386Z" fill="url(#paint22_linear_236_172504)"/>
<path d="M40.0532 57.3505C40.0686 57.1259 39.9863 56.9561 39.5764 56.8566C39.1666 56.7572 38.5217 56.6851 38.3417 56.704C38.1616 56.7229 38.0295 57.0933 38.0398 57.2665C38.0501 57.438 37.8992 57.7982 38.4497 57.9371C39.0002 58.076 39.7308 58.1943 39.8646 58.1051C39.9983 58.016 40.0549 57.3523 40.0549 57.3523L40.0532 57.3505Z" fill="url(#paint23_linear_236_172504)"/>
<path d="M37.7025 57.0332C37.6613 56.9544 37.4281 56.8806 36.9668 56.9115C36.5054 56.9406 36.3562 56.9767 36.2962 57.1053C36.2362 57.2339 36.1916 57.5014 36.4505 57.6438C36.7095 57.7861 37.2103 57.8153 37.4641 57.793C37.7179 57.7707 37.8037 57.2253 37.7025 57.0332Z" fill="url(#paint24_linear_236_172504)"/>
<path d="M35.9411 57.2133C35.9411 57.2133 35.9394 57.2031 35.9376 57.1962C35.8999 57.0487 35.7027 57.0093 35.334 57.0178C34.9515 57.0264 34.8161 57.6026 35.1316 57.757C35.4489 57.9096 35.7061 57.9268 35.8811 57.8599C36.0577 57.793 35.9394 57.2133 35.9394 57.2133H35.9411Z" fill="url(#paint25_linear_236_172504)"/>
<path d="M34.7013 57.3196C34.6808 57.1722 34.2812 57.0727 33.885 57.1344C33.4889 57.1979 33.1733 57.0264 33.0395 57.1259C32.9058 57.2253 33.0018 57.7844 33.3825 57.9079C33.7633 58.0314 34.4784 58.0073 34.6619 57.889C34.8454 57.7707 34.7013 57.3196 34.7013 57.3196Z" fill="url(#paint26_linear_236_172504)"/>
<path d="M32.5677 57.3145C32.5111 57.0967 32.0635 56.9218 31.6657 56.8618C31.2695 56.8018 30.7945 56.7143 30.6607 56.8C30.5269 56.8841 30.3606 57.6524 31.182 58.0091C32.0035 58.3658 32.4923 58.0828 32.5489 57.9902C32.6055 57.8976 32.5677 57.3163 32.5677 57.3163V57.3145Z" fill="url(#paint27_linear_236_172504)"/>
<path d="M30.2023 57.0127C30.2315 56.8275 30.1148 56.6371 29.7941 56.5051C29.4717 56.373 28.5302 55.9837 28.1906 55.9734C27.8511 55.9631 27.7756 56.9407 28.1118 57.2545C28.4479 57.5683 29.4632 57.769 29.8199 57.7158C30.1766 57.6627 30.204 57.0144 30.204 57.0144L30.2023 57.0127Z" fill="url(#paint28_linear_236_172504)"/>
<path d="M27.3637 56.2941C27.3363 56.1586 26.7326 56.0146 26.1101 56.0231C25.4876 56.0317 24.8599 56.2444 24.8907 56.7366C24.9233 57.2288 25.1171 57.4894 25.7517 57.5014C26.3862 57.5134 27.0893 57.414 27.1768 57.2785C27.2643 57.143 27.3946 56.445 27.362 56.2941H27.3637Z" fill="url(#paint29_linear_236_172504)"/>
<path d="M24.3218 56.8138C24.2738 56.5874 24.0166 56.5188 23.286 56.6868C22.5554 56.8549 22.2073 57.6129 22.2416 57.8565C22.2759 58.1 22.8675 58.2149 23.6633 58.0674C24.4573 57.9199 24.4659 57.6438 24.4882 57.5135C24.5105 57.3831 24.3218 56.8155 24.3218 56.8155V56.8138Z" fill="url(#paint30_linear_236_172504)"/>
<path d="M21.8435 57.7655C21.8435 57.7655 21.8435 57.7552 21.8418 57.7501C21.8212 57.6695 21.6943 57.5615 21.3908 57.6729C21.0666 57.7913 20.8145 58.2509 20.8488 58.4207C20.8831 58.5922 21.3856 58.6024 21.6532 58.5356C21.9207 58.467 21.9756 58.2303 21.9841 58.1548C21.9927 58.0794 21.8452 57.7638 21.8452 57.7638L21.8435 57.7655Z" fill="url(#paint31_linear_236_172504)"/>
<path d="M39.9645 58.8306C39.9525 58.5733 39.5941 58.5047 39.0144 58.3916C38.4348 58.2766 38.0609 58.6505 38.0695 58.906C38.0781 59.1616 38.4073 59.436 39.0693 59.4943C39.7313 59.5526 39.9834 59.2147 39.9645 58.8306Z" fill="url(#paint32_linear_236_172504)"/>
<path d="M37.6319 58.4395C37.553 58.1223 36.5309 58.2389 36.3628 58.2989C36.1948 58.3589 35.9392 58.9232 36.0524 59.141C36.1656 59.3588 37.114 59.5406 37.3592 59.4462C37.6045 59.3519 37.6302 58.4378 37.6302 58.4378L37.6319 58.4395Z" fill="url(#paint33_linear_236_172504)"/>
<path d="M35.6462 58.5116C35.6239 58.3452 34.8539 58.3023 34.7716 58.4481C34.691 58.5939 34.6944 59.1924 35.0134 59.261C35.3324 59.3296 35.744 59.2181 35.6462 58.5116Z" fill="url(#paint34_linear_236_172504)"/>
<path d="M34.3781 58.5751C34.3335 58.2646 33.9888 58.3178 33.4709 58.3521C32.9547 58.3864 32.5894 58.2595 32.4264 58.5202C32.2635 58.7809 32.3733 59.3948 33.2651 59.484C34.1569 59.5715 34.4501 59.0793 34.3781 58.5751Z" fill="url(#paint35_linear_236_172504)"/>
<path d="M39.9842 60.5559C39.9894 60.3689 39.8985 60.1614 39.5349 60.0911C39.1731 60.0208 38.3139 59.9385 38.1355 60.0911C37.9571 60.2437 37.7685 60.8869 38.1869 61.0498C38.6054 61.211 38.8798 61.3173 39.3926 61.2093C39.9054 61.1012 39.9842 60.5576 39.9842 60.5576V60.5559Z" fill="url(#paint36_linear_236_172504)"/>
<path d="M37.51 60.2489C37.4946 60.0911 37.4586 59.9779 37.2013 59.9384C36.9424 59.899 36.5479 59.8647 36.4622 60.1803C36.3764 60.4958 36.6045 61.259 37.0436 61.2881C37.4843 61.3173 37.5478 60.6536 37.51 60.2489Z" fill="url(#paint37_linear_236_172504)"/>
<path d="M36.066 60.1802C36.0523 60.0036 35.8962 59.8012 35.5189 59.7515C35.1416 59.7018 34.3836 59.6606 34.1418 59.7772C33.9 59.8938 33.8862 60.6656 34.3304 60.8542C34.7729 61.0429 35.4109 61.2144 35.7264 61.06C36.042 60.9074 36.066 60.1802 36.066 60.1802Z" fill="url(#paint38_linear_236_172504)"/>
<path d="M33.6527 60.2952C33.7025 60.0534 33.5121 59.7412 33.1057 59.7001C32.6992 59.6589 32.1367 59.5543 32.0715 60.1631C32.0064 60.7702 32.7249 60.7908 33.0662 60.7805C33.4075 60.7702 33.5979 60.5696 33.6527 60.2952Z" fill="url(#paint39_linear_236_172504)"/>
<path d="M31.83 59.8424C31.7957 59.5269 31.5934 59.4514 30.6296 59.5114C29.6657 59.5732 29.8578 60.9383 30.1374 60.9297C30.4169 60.9211 31.6791 60.82 31.7632 60.7033C31.8455 60.5884 31.8575 60.0791 31.8318 59.8407L31.83 59.8424Z" fill="url(#paint40_linear_236_172504)"/>
<path d="M29.518 61.0669C29.5831 60.976 29.5917 60.1425 29.4048 59.8715C29.2178 59.6006 28.4993 59.8475 28.501 60.3432C28.501 60.8388 28.8491 61.271 29.0206 61.2761C29.1921 61.2813 29.3859 61.2504 29.518 61.0652V61.0669Z" fill="url(#paint41_linear_236_172504)"/>
<path d="M28.0386 61.3996C28.229 61.2813 28.4279 61.1286 28.325 60.6742C28.2204 60.2197 28.0163 60.1288 27.7145 60.1528C27.4127 60.1768 26.4128 60.2334 26.2911 60.6673C26.1693 61.0995 26.4283 61.5402 26.8159 61.59C27.2034 61.6397 27.8346 61.5282 28.0403 61.4013L28.0386 61.3996Z" fill="url(#paint42_linear_236_172504)"/>
<path d="M26.0216 60.4718C25.989 60.2694 25.2378 60.1871 25.1366 60.3363C25.0355 60.4838 24.9034 61.2607 25.2224 61.4785C25.5397 61.698 25.8792 61.6414 25.9684 61.4408C26.0576 61.2401 26.049 60.6501 26.0216 60.4718Z" fill="url(#paint43_linear_236_172504)"/>
<path d="M24.7915 60.2986C24.7572 60.0739 23.5344 59.8304 23.1657 59.8321C22.797 59.8355 22.6683 60.6296 23.164 60.8697C23.6596 61.1098 24.3867 61.3944 24.5394 61.3293C24.692 61.2641 24.8464 60.657 24.7915 60.2986Z" fill="url(#paint44_linear_236_172504)"/>
<path d="M22.6773 59.9847C22.6653 59.7155 21.9364 59.3348 21.4665 59.2421C20.9966 59.1495 21.0052 59.4582 21.024 59.532C21.0429 59.604 21.9021 60.4083 22.2108 60.4889C22.5195 60.5695 22.6773 59.9847 22.6773 59.9847Z" fill="url(#paint45_linear_236_172504)"/>
<path d="M31.5329 59.1684C31.5844 59.069 31.6684 58.5288 31.6135 58.4327C31.5586 58.3367 31.0579 58.1566 30.269 58.0314C29.4801 57.9062 29.36 58.5511 29.4286 58.8683C29.4972 59.1856 29.9123 59.2851 30.5245 59.2833C31.1367 59.2816 31.4592 59.3091 31.5329 59.1684Z" fill="url(#paint46_linear_236_172504)"/>
<path d="M29.0121 58.1875C28.9538 57.9542 28.5473 57.8359 27.7996 57.7947C27.0518 57.7536 27.2388 58.9455 27.2937 59.1702C27.3485 59.3948 27.7241 59.6349 28.2626 59.6298C28.8011 59.6246 29.115 58.5939 29.0121 58.1875Z" fill="url(#paint47_linear_236_172504)"/>
<path d="M26.851 58.3641C26.7961 58.2063 26.3382 58.1274 25.8855 58.1274C25.431 58.1274 25.2098 58.4499 25.2201 59.0072C25.2304 59.5646 25.5082 59.875 26.129 59.9144C26.7498 59.9539 26.8219 59.412 26.8253 59.3331C26.827 59.2542 26.9368 58.6025 26.851 58.3641Z" fill="url(#paint48_linear_236_172504)"/>
<path d="M24.7177 58.8614C24.6988 58.6728 24.6714 58.4344 24.0745 58.4241C23.4777 58.4138 23.1725 58.6779 23.1553 58.9403C23.1382 59.2044 23.2188 59.4428 23.9168 59.6126C24.6148 59.7824 24.7622 59.3279 24.7177 58.8614Z" fill="url(#paint49_linear_236_172504)"/>
<path d="M22.7751 58.8065C22.6842 58.5681 22.06 58.659 21.9622 58.906C21.8645 59.1547 22.583 59.4102 22.7597 59.3828C22.9346 59.3553 22.7751 58.8065 22.7751 58.8065Z" fill="url(#paint50_linear_236_172504)"/>
<path d="M39.7944 56.481C38.5682 55.3011 33.4781 57.2768 31.2915 59.6126C29.5097 61.5162 29.4308 64.0664 29.7241 65.4367C29.7241 65.4367 29.7361 65.9717 29.6503 66.2204C29.5646 66.4691 29.4994 66.5531 29.5285 66.5977C29.5577 66.6423 29.7309 66.608 29.9178 66.5926C30.1048 66.5771 30.573 66.6114 30.573 66.6114L30.5541 66.5823C31.8472 67.083 34.9342 66.8841 38.0263 64.574C41.8335 61.7289 41.8181 58.431 39.7927 56.481H39.7944Z" fill="#AD592F"/>
<path d="M39.8096 56.8275C39.362 56.2427 36.2356 56.1809 32.9772 58.4859C29.7187 60.7908 29.8319 64.8467 30.2298 65.4675C30.6259 66.0901 34.9168 64.7644 37.6162 62.0445C40.3173 59.3245 40.2693 57.426 39.8096 56.8258V56.8275Z" fill="#BF692E"/>
<path d="M39.1741 56.9766C38.6681 56.3575 35.1387 57.1807 32.9092 58.9849C30.6781 60.789 30.3162 63.9789 30.5477 64.5088C30.7809 65.0388 34.7185 62.8727 36.9634 60.4769C39.2084 58.0794 39.1741 56.9766 39.1741 56.9766Z" fill="#D88145"/>
<path d="M39.6233 56.3507C39.6233 56.3507 40.0487 56.5634 40.594 57.4946C41.1394 58.4241 41.4875 59.6623 40.8032 61.2573C40.1173 62.8522 38.2085 65.0474 34.8471 66.289C31.4858 67.5307 30.1121 66.5205 29.9697 66.1415C29.9697 66.1415 31.0193 66.8327 34.7511 65.4264C38.061 64.1796 40.119 61.0909 40.3471 59.3879C40.5751 57.685 40.2767 57.011 39.6233 56.3524V56.3507Z" fill="#873A18"/>
<path d="M37.44 57.4294C37.3405 57.0178 34.8847 57.7433 34.3462 58.3933C33.806 59.0432 34.4439 59.5646 35.1128 59.3176C35.7816 59.069 37.548 57.8753 37.44 57.4312V57.4294Z" fill="#ED9254"/>
<path d="M33.3886 59.2953C33.1382 59.1907 32.0852 59.851 31.4575 61.295C30.8298 62.7407 31.0545 63.3838 31.2997 63.521C31.545 63.6582 34.1243 60.7719 34.0437 60.1117C33.9631 59.4514 33.3868 59.2953 33.3868 59.2953H33.3886Z" fill="#ED9254"/>
<path d="M29.5318 66.5926C29.5661 66.6114 29.9142 66.4245 29.9708 66.1415L30.5041 66.6132C30.5041 66.6132 30.1714 66.5669 29.9211 66.5891C29.6707 66.6132 29.5781 66.6372 29.5283 66.5926H29.5318Z" fill="#873A18"/>
<path d="M40.3841 57.3934C40.3841 57.3934 40.5247 60.2352 35.6953 64.3014C35.6953 64.3014 37.4189 63.1283 38.9435 61.1784C40.4664 59.2285 40.5418 57.9422 40.5418 57.9422L40.3858 57.3934H40.3841Z" fill="#873A18"/>
<path d="M34.0085 64.4146C34.0085 64.4146 31.6967 65.7197 29.9697 66.1415C29.9697 66.1415 30.1138 66.3611 30.3247 66.3079C30.5357 66.2547 32.6845 65.3887 34.0085 64.4146Z" fill="#873A18"/>
<path d="M39.7601 56.4416C39.7601 56.4416 37.9525 57.5855 35.1982 60.5884C35.1982 60.5884 36.9887 58.8494 38.0485 57.9422C39.1084 57.035 39.8767 56.5977 39.8767 56.5977L39.7618 56.4416H39.7601Z" fill="#873A18"/>
<path d="M35.4229 62.4817C35.4229 62.4817 36.9852 61.1629 38.1119 59.8012C39.2387 58.4395 39.7223 57.0538 39.7223 57.0538C39.7223 57.0538 40.0927 57.4826 38.7499 59.237C37.4071 60.9914 36.6971 61.4407 35.4246 62.48L35.4229 62.4817Z" fill="#AD592F"/>
<path d="M30.2656 65.3886C30.2656 65.3886 31.996 64.8381 34.4313 63.1832C34.4313 63.1832 32.7661 64.4111 31.6085 64.9805C30.3908 65.579 30.2656 65.3886 30.2656 65.3886Z" fill="#AD592F"/>
<path d="M34.1455 63.8434C34.1455 63.8434 35.3151 63.154 37.0027 61.7529C38.6919 60.3534 39.3007 59.2044 39.3007 59.2044C39.3007 59.2044 39.3042 59.9624 37.1381 61.7683C34.9721 63.5742 34.1455 63.8417 34.1455 63.8417V63.8434Z" fill="#873A18"/>
<path d="M39.8751 56.5977C39.8751 56.5977 40.2473 57.1705 39.4189 58.9112C39.4189 58.9112 40.213 57.7158 40.2216 57.0333L39.8751 56.5977Z" fill="#873A18"/>
<path d="M31.7029 66.1175C31.7029 66.1175 32.0596 66.054 33.1246 65.4967C34.1913 64.9393 35.3832 64.1436 35.3832 64.1436C35.3832 64.1436 34.3697 65.001 33.128 65.6167C31.8864 66.2324 31.7012 66.1175 31.7012 66.1175H31.7029Z" fill="#873A18"/>
<path d="M30.448 64.809C30.448 64.809 30.9282 64.2208 32.271 63.2244C33.6139 62.2279 34.3804 61.7786 34.3804 61.7786L30.4463 64.8107L30.448 64.809Z" fill="#AD592F"/>
<path d="M32.0321 64.0938C32.5072 62.6378 29.3224 59.1787 26.8306 58.2526C24.3387 57.3265 22.0029 58.8974 21.4644 59.6177C20.9259 60.338 21.0614 62.9173 25.354 65.6819C29 68.0297 31.2484 66.5017 32.0321 64.0938Z" fill="#FFE9C2"/>
<path d="M31.5471 65.1383C31.5471 65.1383 30.9622 66.4022 29.4291 66.7675C27.8959 67.1328 25.994 66.4348 23.5347 64.3219C21.0754 62.2091 21.1063 60.4992 21.3155 59.9144C21.3155 59.9144 20.9811 61.2024 22.3788 62.8419C23.8279 64.5397 26.505 65.9357 28.5904 65.6888C29.6657 65.5619 30.0893 65.2703 30.0893 65.2703L27.2425 63.2518C27.2425 63.2518 30.928 64.5071 31.5471 65.1383Z" fill="#F2D4A7"/>
<path d="M22.0514 62.3977C22.0514 62.3977 21.0808 61.0086 21.4666 59.7892C21.4666 59.7892 22.7546 58.3624 24.8126 58.1103C26.8705 57.8582 29.2869 59.6812 30.4085 60.9743C31.5301 62.2674 32.1149 63.3392 31.9812 64.0389C31.8474 64.7387 30.9831 63.9498 30.9831 63.9498C30.9831 63.9498 30.3176 61.9278 27.7795 60.6656C25.2413 59.4051 22.6311 59.9076 22.1869 60.1682C21.7428 60.4289 21.4649 61.1955 22.0514 62.3994V62.3977Z" fill="#FFF2D7"/>
<path d="M30.029 64.6478C30.029 64.6478 28.1237 63.8006 26.1326 62.6155C24.1415 61.4322 23.1211 60.5953 23.1211 60.5953C23.1211 60.5953 24.7863 60.8834 26.4722 61.7083C28.158 62.5332 29.9398 64.0235 29.9398 64.0235L30.0273 64.6478H30.029Z" fill="#FFF2D7"/>
<path d="M23.1211 60.5953C23.1211 60.5953 25.083 60.8885 29.7632 63.9875L30.3223 63.6531C30.3223 63.6531 28.0842 61.8626 26.1 61.0275C24.1158 60.1905 23.1211 60.5953 23.1211 60.5953Z" fill="#F2D4A7"/>
<path d="M29.6208 63.8966C29.6208 63.8966 30.1919 63.5862 30.54 63.6582C30.8882 63.7303 31.9412 63.9841 32.1264 64.1024C32.3116 64.2208 32.1778 64.761 31.5484 65.1366C31.5484 65.1366 30.6481 65.0114 30.077 64.6769C29.5059 64.3408 29.6208 63.8966 29.6208 63.8966Z" fill="#FFE9C2"/>
<path d="M31.8697 64.7421C32.0361 64.6872 32.2247 64.3596 32.0773 64.1899C31.9298 64.0201 30.7001 63.7097 30.316 63.7834C29.9301 63.8572 29.6763 63.9652 29.6797 63.9926C29.6832 64.0184 31.6897 64.8021 31.8715 64.7421H31.8697Z" fill="#FFF2D7"/>
<path d="M32.125 64.1024C32.125 64.1024 32.3479 64.2207 32.1147 64.6632C31.8814 65.104 31.547 65.1383 31.547 65.1383C31.547 65.1383 31.0257 65.0954 30.3791 64.8261C29.7309 64.5569 29.5817 64.2808 29.6211 63.8966C29.6211 63.8966 29.6623 64.3082 30.0636 64.5003C30.4649 64.6924 31.5041 64.9908 31.7442 64.8947C31.9843 64.797 32.113 64.6032 32.1644 64.4283C32.2159 64.2533 32.125 64.1041 32.125 64.1041V64.1024Z" fill="#F2D4A7"/>
<path d="M31.3774 63.2758C31.4666 63.305 31.5454 63.1335 31.4408 62.7836C31.3379 62.4337 30.5662 60.9812 28.6934 59.6555C26.927 58.4053 26.5634 59.0844 26.7281 59.2233C26.8927 59.3605 28.1224 59.6521 29.4172 60.9623C30.712 62.2725 31.1784 63.2123 31.3774 63.2758Z" fill="#FFF8E9"/>
<path d="M26.0782 59.2215C26.284 59.1992 26.6013 58.9197 26.555 58.8099C26.5104 58.7002 25.3288 58.1994 24.0117 58.6436C22.6928 59.0895 22.1115 59.6434 22.1303 59.688C22.1492 59.7326 22.8489 59.2713 24.0923 59.0809C25.3356 58.8888 26.0782 59.2215 26.0782 59.2215Z" fill="#FFF8E9"/>
<path d="M24.8178 44.0715C24.8761 43.8022 25.0991 43.7079 25.3049 43.7079C25.4095 43.7079 25.5107 43.737 25.581 43.7833L25.1711 45.7178C25.7799 45.6887 26.2618 45.1193 26.2618 44.3047C26.2618 43.876 26.0269 43.5192 25.4352 43.5192C24.4508 43.5192 24.1164 44.0354 24.1164 44.4745C24.1164 44.6271 24.1627 44.7317 24.233 44.814C24.1455 44.8552 24.0632 44.8724 23.9809 44.8724C23.6825 44.8724 23.5059 44.6082 23.5059 44.315C23.5059 43.6239 24.4079 43.2363 25.5518 43.2363C26.5842 43.2363 26.9821 43.7045 26.9821 44.2567C26.9821 45.3114 26.1675 45.9922 25.2003 45.9922H25.1128L24.8144 47.4225C24.7561 47.6986 24.528 47.7981 24.3102 47.7981C24.1747 47.7981 24.0632 47.769 23.9998 47.7226L24.8212 44.0715H24.8178Z" fill="#873A18"/>
<path d="M27.6968 46.8549C27.7551 47.1722 27.9729 47.2888 28.2422 47.2888C28.664 47.2888 29.2043 46.9904 29.4547 46.6559C29.6073 46.6268 29.6656 46.7503 29.6004 46.8549C29.1957 47.4466 28.5166 47.7981 27.9472 47.7981C27.5596 47.7981 27.22 47.6403 27.0554 47.2888C27.0314 47.3008 27.0091 47.3128 26.9851 47.3179C26.757 47.3762 26.546 47.2065 26.5872 46.9784C26.7227 46.9955 26.8393 46.9664 26.9628 46.9132C26.9576 46.86 26.9508 46.8069 26.9508 46.7486C26.9508 45.9871 27.455 44.7678 28.4222 44.7678C28.9556 44.7678 29.0911 45.0662 29.0911 45.3303C29.0911 45.8293 28.827 46.2272 27.6968 46.8549ZM27.6796 46.6028C28.249 46.2461 28.6349 45.8345 28.6349 45.4538C28.6349 45.3183 28.5646 45.2257 28.4651 45.2257C27.8854 45.2257 27.6968 46.1929 27.6796 46.6028Z" fill="#873A18"/>
<path d="M31.467 44.9616C31.5665 44.8449 31.7191 44.7918 31.8649 44.7918C31.9695 44.7918 32.0707 44.8209 32.141 44.8672L31.7311 46.8069C31.6608 47.1344 31.7551 47.2408 31.9077 47.2408C32.1238 47.2408 32.3759 47.095 32.5234 46.9475C32.5886 46.9767 32.6229 47.0298 32.6229 47.0881C32.6229 47.1293 32.6057 47.1756 32.5697 47.2168C32.2936 47.5272 31.8717 47.7964 31.5562 47.7964C31.2801 47.7964 31.0057 47.6678 31.0108 47.2048C30.7638 47.5512 30.4534 47.7964 30.119 47.7964C29.5102 47.7964 29.3867 47.1876 29.3867 46.812C29.3867 45.7865 30.0487 44.7661 30.8633 44.7661C31.1274 44.7661 31.3212 44.8312 31.467 44.9598V44.9616ZM31.3504 45.2548C31.2509 45.2205 31.1634 45.2085 31.0743 45.2085C30.3643 45.2085 30.1122 46.1346 30.1122 46.7743C30.1122 47.0676 30.2476 47.1962 30.4294 47.1962C30.6112 47.1962 30.8633 47.0435 31.0211 46.8275L31.3487 45.2565L31.3504 45.2548Z" fill="#873A18"/>
<path d="M32.6034 45.073C32.8023 44.9152 33.0132 44.7917 33.2602 44.7917C33.4711 44.7917 33.5946 44.8912 33.5414 45.1142L33.4831 45.3783C33.7301 45.0267 34.104 44.7917 34.4452 44.7917C34.7557 44.7917 34.9786 45.0387 34.8431 45.6527L34.5567 47.0006C34.5207 47.1704 34.5979 47.2407 34.7145 47.2407C34.9306 47.2407 35.1827 47.095 35.3302 46.9475C35.3953 46.9766 35.4296 47.0298 35.4296 47.0881C35.4296 47.1293 35.4125 47.1756 35.3765 47.2167C35.1004 47.5271 34.7076 47.7964 34.3149 47.7964C34.0216 47.7964 33.7112 47.6506 33.857 46.9646L34.104 45.7984C34.1571 45.5515 34.0748 45.452 33.9462 45.452C33.7884 45.452 33.5535 45.5978 33.4248 45.7573L33.0681 47.4277C33.0098 47.6969 32.7869 47.7964 32.5759 47.7964C32.4696 47.7964 32.3701 47.7672 32.2998 47.7209L32.78 45.4692C32.804 45.3748 32.7749 45.3234 32.7217 45.3234C32.6925 45.3234 32.6565 45.3474 32.6051 45.3937C32.5296 45.3474 32.4885 45.1656 32.6051 45.0713L32.6034 45.073Z" fill="#873A18"/>
<path d="M35.5883 45.4726C35.6123 45.3783 35.5832 45.3268 35.53 45.3268C35.5009 45.3268 35.4649 45.3508 35.4134 45.3971C35.3379 45.3508 35.2968 45.169 35.4134 45.0747C35.6123 44.9169 35.8233 44.7935 36.0702 44.7935C36.2812 44.7935 36.4047 44.8929 36.3515 45.1159L35.9948 46.7811C35.9416 47.0212 36.0188 47.1275 36.1937 47.1275C36.3995 47.1275 36.5744 47.0109 36.7322 46.8223L37.0838 45.1639C37.1421 44.8946 37.3651 44.7952 37.576 44.7952C37.6823 44.7952 37.7818 44.8243 37.8521 44.8706L37.4422 46.8103C37.3719 47.1378 37.4662 47.2442 37.6189 47.2442C37.835 47.2442 38.0871 47.0984 38.2345 46.9509C38.2997 46.9801 38.334 47.0332 38.334 47.0915C38.334 47.1327 38.3169 47.179 38.2808 47.2201C38.0047 47.5306 37.5829 47.7998 37.2673 47.7998C36.9792 47.7998 36.6928 47.654 36.7219 47.1378C36.487 47.5186 36.2006 47.7998 35.8662 47.7998C35.2162 47.7998 35.2162 47.1138 35.3157 46.6748L35.5918 45.4726H35.5883Z" fill="#873A18"/>
<path d="M39.2564 45.1605L38.9099 46.8068C38.8448 47.1052 38.9219 47.2356 39.0386 47.2356C39.1449 47.2356 39.2787 47.1653 39.3661 46.9543C39.4776 46.9543 39.5428 47.0126 39.5428 47.1121C39.5428 47.522 39.0626 47.7981 38.7333 47.7981C38.44 47.7981 38.0302 47.6283 38.1759 46.9303L38.5515 45.1605H38.2582C38.2291 44.9735 38.3234 44.8209 38.5052 44.8209H38.6218L38.7281 44.3407C38.7865 44.0715 39.0094 43.972 39.2203 43.972C39.3267 43.972 39.4261 44.0011 39.4965 44.0474L39.3318 44.8209H39.7588C39.788 45.0078 39.6937 45.1605 39.5136 45.1605H39.2564Z" fill="#873A18"/>
<path d="M26.5598 48.0485C25.9853 48.0485 25.2941 48.4241 25.2941 49.0106C25.2941 49.1632 25.3404 49.2679 25.4107 49.3502C25.3233 49.3913 25.241 49.4085 25.1586 49.4085C24.8602 49.4085 24.6836 49.1444 24.6836 48.8511C24.6836 48.2011 25.7383 47.7724 26.6524 47.7724C27.3795 47.7724 27.9129 47.9422 27.9129 48.623C27.9129 49.0741 27.5785 49.6023 26.992 49.9127L26.9971 49.9178C27.6128 49.9178 27.882 50.2454 27.882 50.6621C27.882 51.3721 27.1086 52.3325 25.9887 52.3325C25.3439 52.3325 24.8054 52.1559 24.8054 51.8866C24.8054 51.758 24.8757 51.6345 25.0403 51.5814C25.1278 51.6568 25.217 51.7168 25.3096 51.7683L25.9784 48.6145C26.0367 48.3383 26.2648 48.2389 26.4826 48.2389C26.5872 48.2389 26.6935 48.268 26.7639 48.3143L26.4243 49.9024C26.9045 49.7566 27.2681 49.1632 27.2681 48.6882C27.2681 48.2131 27.04 48.0434 26.5581 48.0434L26.5598 48.0485ZM26.3608 50.206L25.9853 51.9587H25.9904C26.5941 51.9587 27.1326 51.319 27.1326 50.693C27.1326 50.3877 26.9679 50.1717 26.6232 50.1717C26.5409 50.1717 26.4535 50.1837 26.3591 50.2077L26.3608 50.206Z" fill="#873A18"/>
<path d="M28.4047 50.007C28.4287 49.9127 28.3996 49.8612 28.3464 49.8612C28.3173 49.8612 28.2813 49.8852 28.2298 49.9316C28.1544 49.8852 28.1132 49.7035 28.2298 49.6091C28.4288 49.4514 28.6397 49.3279 28.8867 49.3279C29.0976 49.3279 29.2211 49.4274 29.1679 49.6503L28.8112 51.3155C28.758 51.5556 28.8352 51.662 29.0101 51.662C29.2159 51.662 29.3909 51.5453 29.5486 51.3567L29.9002 49.6983C29.9585 49.4291 30.1815 49.3296 30.3924 49.3296C30.4987 49.3296 30.5982 49.3587 30.6685 49.4051L30.2586 51.3447C30.1883 51.6723 30.2826 51.7786 30.4353 51.7786C30.6514 51.7786 30.9035 51.6328 31.051 51.4853C31.1161 51.5145 31.1504 51.5676 31.1504 51.626C31.1504 51.6671 31.1333 51.7134 31.0973 51.7546C30.8211 52.065 30.3993 52.3342 30.0837 52.3342C29.7956 52.3342 29.5092 52.1885 29.5383 51.6723C29.3034 52.053 29.017 52.3342 28.6826 52.3342C28.0326 52.3342 28.0326 51.6482 28.1321 51.2092L28.4082 50.007H28.4047Z" fill="#873A18"/>
<path d="M32.0748 49.6949L31.7283 51.3413C31.658 51.6688 31.7523 51.7752 31.905 51.7752C32.1211 51.7752 32.3732 51.6294 32.5206 51.4819C32.5858 51.5111 32.6201 51.5642 32.6201 51.6225C32.6201 51.6637 32.603 51.71 32.567 51.7512C32.2908 52.0616 31.8467 52.3308 31.4539 52.3308C31.0972 52.3308 30.8623 52.1079 30.996 51.463L31.3716 49.6932H31.0784C31.0492 49.5063 31.1435 49.3536 31.3253 49.3536H31.4419L31.5483 48.8734C31.6066 48.6042 31.8295 48.5047 32.0405 48.5047C32.1468 48.5047 32.2463 48.5339 32.3166 48.5802L32.1519 49.3536H32.579C32.6081 49.5405 32.5138 49.6932 32.3337 49.6932H32.0765L32.0748 49.6949Z" fill="#873A18"/>
<path d="M33.5464 49.6949L33.2 51.3413C33.1297 51.6688 33.224 51.7752 33.3767 51.7752C33.5927 51.7752 33.8448 51.6294 33.9923 51.4819C34.0575 51.5111 34.0918 51.5642 34.0918 51.6225C34.0918 51.6637 34.0746 51.71 34.0386 51.7512C33.7625 52.0616 33.3183 52.3308 32.9256 52.3308C32.5689 52.3308 32.3339 52.1079 32.4677 51.463L32.8433 49.6932H32.55C32.5209 49.5063 32.6152 49.3536 32.797 49.3536H32.9136L33.0199 48.8734C33.0782 48.6042 33.3012 48.5047 33.5121 48.5047C33.6185 48.5047 33.7179 48.5339 33.7882 48.5802L33.6236 49.3536H34.0506C34.0798 49.5405 33.9855 49.6932 33.8054 49.6932H33.5481L33.5464 49.6949Z" fill="#873A18"/>
<path d="M34.6718 51.3893C34.7301 51.7066 34.9479 51.8232 35.2172 51.8232C35.639 51.8232 36.1793 51.5248 36.4297 51.1904C36.5823 51.1612 36.6406 51.2847 36.5754 51.3893C36.1707 51.981 35.4916 52.3325 34.9222 52.3325C34.3528 52.3325 33.9258 52.005 33.9258 51.283C33.9258 50.5215 34.43 49.3022 35.3972 49.3022C35.9306 49.3022 36.0661 49.6006 36.0661 49.8647C36.0661 50.362 35.802 50.7616 34.6718 51.3893ZM34.6546 51.1372C35.224 50.7788 35.6099 50.3689 35.6099 49.9882C35.6099 49.8527 35.5396 49.7601 35.4401 49.7601C34.8604 49.7601 34.6718 50.7273 34.6546 51.1372Z" fill="#873A18"/>
<path d="M37.3816 49.9659C37.6165 49.4908 37.8686 49.3262 38.1379 49.3262C38.4071 49.3262 38.5666 49.5491 38.5666 49.7892C38.5666 50.0533 38.402 50.3397 38.0984 50.3397C38.0452 50.3397 37.9818 50.3346 37.9286 50.3157C37.9698 50.2797 37.9938 50.2042 37.9938 50.1339C37.9938 50.0516 37.9355 49.9882 37.812 49.9882C37.6182 49.9882 37.3438 50.2523 37.0437 51.6054L36.9734 51.9638C36.9151 52.2331 36.6921 52.3325 36.4812 52.3325C36.3749 52.3325 36.2754 52.3034 36.2051 52.2571L36.6853 50.0053C36.7024 49.911 36.6801 49.8595 36.627 49.8595C36.5978 49.8595 36.5618 49.8835 36.5103 49.9298C36.4349 49.8835 36.3937 49.7018 36.5103 49.6074C36.7093 49.4497 36.9202 49.3262 37.1672 49.3262C37.3781 49.3262 37.4947 49.4256 37.4484 49.6486L37.3833 49.9659H37.3816Z" fill="#873A18"/>
<path d="M28.1685 68.0777C27.5957 68.0777 27.016 68.0023 26.4467 67.8531C23.6461 67.1191 19.4941 63.2449 19.4941 59.3965L19.2832 47.0915V47.0727C19.2866 47.0521 19.573 44.9512 21.4321 42.8813C23.0339 41.0994 26.1826 38.9745 32.0958 38.9745C37.4157 38.9745 40.2145 41.1251 41.6259 42.931C43.1608 44.8947 43.4215 46.8394 43.4318 46.92V46.9543L43.617 59.496C43.617 59.5354 43.6891 63.8263 40.0173 64.3151C39.6366 64.8158 38.0211 66.7315 35.0439 67.5787C34.068 67.8565 33.1694 67.9971 32.3736 67.9971C31.3566 67.9971 30.7564 67.7707 30.4837 67.6318C30.1459 67.7776 29.3141 68.0777 28.1685 68.0777ZM19.9143 47.1224L20.1235 59.3914C20.1235 62.9036 24.056 66.5737 26.6062 67.2425C27.1241 67.378 27.6489 67.4466 28.1668 67.4466C29.4822 67.4466 30.3414 67.0024 30.35 66.9973L30.5249 66.9047L30.6844 67.0213C30.6844 67.0213 31.1937 67.366 32.3702 67.366C33.1076 67.366 33.948 67.234 34.8689 66.9716C38.009 66.0798 39.5662 63.8623 39.5817 63.84L39.664 63.72L39.8081 63.7045C43.0391 63.3684 42.9876 59.6658 42.9842 59.508L42.8024 46.9835C42.775 46.8034 42.48 45.0336 41.108 43.2946C39.1804 40.8473 36.1483 39.6057 32.0941 39.6057C21.2726 39.6057 19.9692 46.7588 19.9126 47.1224H19.9143Z" fill="white"/>
<path d="M59.0517 42.5383L58.7601 64.267L57.6797 64.8158L57.8169 43.1196L59.0517 42.5383Z" fill="#EAEAEA"/>
<path d="M55.1728 43.972L54.8539 65.9872L53.7803 66.3542L53.9518 44.2859L55.1728 43.972Z" fill="#EAEAEA"/>
<path d="M51.3655 44.9478L51.266 67.0968L49.9678 67.4055V45.0439L51.3655 44.9478Z" fill="#EAEAEA"/>
<path d="M13.3135 45.2188C13.3135 45.2188 14.2379 42.7218 19.4943 39.6726C24.7507 36.6234 33.6343 36.1689 39.0399 37.6403L34.0973 38.0691C34.0973 38.0691 19.7206 37.3659 14.526 45.9134L13.3135 45.2188Z" fill="white"/>
<path d="M34.0971 38.0691C34.0971 38.0691 38.2697 38.1308 42.5794 39.796C46.8891 41.4613 49.8423 44.8604 49.9127 45.1056L51.3327 44.9478C51.3327 44.9478 48.0673 38.7122 36.8994 37.1859C36.8994 37.1859 32.636 37.582 29.0791 38.3212C29.0791 38.3212 31.4595 38.0073 34.0971 38.0691Z" fill="#EAEAEA"/>
<path opacity="0.5" d="M61.2645 40.8628L60.8906 62.9414C60.8906 62.9414 55.9223 67.7794 39.3008 68.949C39.3008 68.949 48.7572 67.2083 54.679 60.7823C60.6008 54.3562 58.9356 43.96 53.9501 44.2876C53.9501 44.2876 59.2271 43.106 61.2628 40.8645L61.2645 40.8628Z" fill="#00295B"/>
<path d="M1.10156 41.854L1.74982 59.6915C1.74982 59.6915 10.5597 63.0854 12.9778 56.0232C15.3959 48.9609 8.90128 46.7846 5.55193 45.0593C2.20258 43.3357 1.10328 41.854 1.10328 41.854H1.10156Z" fill="#2F88F2"/>
<path d="M1.74902 41.854L2.07315 63.5828L3.13301 64.1419L2.96151 42.5503L1.74902 41.854Z" fill="white"/>
<path d="M5.54297 43.5913L5.85681 65.1777L6.91667 65.507L6.77947 43.9617L5.54297 43.5913Z" fill="white"/>
<path d="M9.42383 44.5877L9.74624 66.253L10.8164 66.4966L10.6449 44.8124L9.42383 44.5877Z" fill="white"/>
<path d="M13.3135 45.2188L13.6496 67.0676L14.6957 67.2563L14.526 45.9134L13.3135 45.2188Z" fill="white"/>
</g>
<defs>
<linearGradient id="paint0_linear_236_172504" x1="41.3672" y1="55.7074" x2="41.1533" y2="57.0105" gradientUnits="userSpaceOnUse">
<stop stop-color="#D8A368"/>
<stop offset="0.49" stop-color="#E4B981"/>
<stop offset="0.92" stop-color="#EDC994"/>
</linearGradient>
<linearGradient id="paint1_linear_236_172504" x1="39.2587" y1="55.0955" x2="39.0846" y2="56.1566" gradientUnits="userSpaceOnUse">
<stop stop-color="#D8A368"/>
<stop offset="0.49" stop-color="#E4B981"/>
<stop offset="0.92" stop-color="#EDC994"/>
</linearGradient>
<linearGradient id="paint2_linear_236_172504" x1="37.121" y1="55.2227" x2="36.9566" y2="56.2245" gradientUnits="userSpaceOnUse">
<stop stop-color="#D8A368"/>
<stop offset="0.49" stop-color="#E4B981"/>
<stop offset="0.92" stop-color="#EDC994"/>
</linearGradient>
<linearGradient id="paint3_linear_236_172504" x1="35.2731" y1="55.4807" x2="35.1167" y2="56.4335" gradientUnits="userSpaceOnUse">
<stop stop-color="#D8A368"/>
<stop offset="0.49" stop-color="#E4B981"/>
<stop offset="0.92" stop-color="#EDC994"/>
</linearGradient>
<linearGradient id="paint4_linear_236_172504" x1="33.1411" y1="55.4333" x2="32.9781" y2="56.4267" gradientUnits="userSpaceOnUse">
<stop stop-color="#D8A368"/>
<stop offset="0.49" stop-color="#E4B981"/>
<stop offset="0.92" stop-color="#EDC994"/>
</linearGradient>
<linearGradient id="paint5_linear_236_172504" x1="30.6552" y1="54.5091" x2="30.3844" y2="56.1591" gradientUnits="userSpaceOnUse">
<stop stop-color="#D8A368"/>
<stop offset="0.49" stop-color="#E4B981"/>
<stop offset="0.92" stop-color="#EDC994"/>
</linearGradient>
<linearGradient id="paint6_linear_236_172504" x1="27.9444" y1="53.7235" x2="27.6805" y2="55.3313" gradientUnits="userSpaceOnUse">
<stop stop-color="#D8A368"/>
<stop offset="0.49" stop-color="#E4B981"/>
<stop offset="0.92" stop-color="#EDC994"/>
</linearGradient>
<linearGradient id="paint7_linear_236_172504" x1="21.7722" y1="55.4861" x2="21.4998" y2="57.1462" gradientUnits="userSpaceOnUse">
<stop stop-color="#D8A368"/>
<stop offset="0.49" stop-color="#E4B981"/>
<stop offset="0.92" stop-color="#EDC994"/>
</linearGradient>
<linearGradient id="paint8_linear_236_172504" x1="25.5418" y1="53.6108" x2="25.2493" y2="55.3928" gradientUnits="userSpaceOnUse">
<stop stop-color="#D8A368"/>
<stop offset="0.49" stop-color="#E4B981"/>
<stop offset="0.92" stop-color="#EDC994"/>
</linearGradient>
<linearGradient id="paint9_linear_236_172504" x1="23.463" y1="54.0344" x2="23.1327" y2="56.0465" gradientUnits="userSpaceOnUse">
<stop stop-color="#D8A368"/>
<stop offset="0.49" stop-color="#E4B981"/>
<stop offset="0.92" stop-color="#EDC994"/>
</linearGradient>
<linearGradient id="paint10_linear_236_172504" x1="41.0459" y1="60.8094" x2="40.7773" y2="62.4459" gradientUnits="userSpaceOnUse">
<stop offset="0.05" stop-color="#D8A368"/>
<stop offset="1" stop-color="#E6BD86"/>
</linearGradient>
<linearGradient id="paint11_linear_236_172504" x1="39.1865" y1="61.4896" x2="38.9721" y2="62.796" gradientUnits="userSpaceOnUse">
<stop offset="0.05" stop-color="#D8A368"/>
<stop offset="1" stop-color="#E6BD86"/>
</linearGradient>
<linearGradient id="paint12_linear_236_172504" x1="37.0117" y1="61.5846" x2="36.872" y2="62.4359" gradientUnits="userSpaceOnUse">
<stop offset="0.05" stop-color="#D8A368"/>
<stop offset="1" stop-color="#E6BD86"/>
</linearGradient>
<linearGradient id="paint13_linear_236_172504" x1="35.1659" y1="61.2504" x2="35.0339" y2="62.0542" gradientUnits="userSpaceOnUse">
<stop offset="0.05" stop-color="#D8A368"/>
<stop offset="1" stop-color="#E6BD86"/>
</linearGradient>
<linearGradient id="paint14_linear_236_172504" x1="33.1206" y1="61.0259" x2="32.9018" y2="62.3595" gradientUnits="userSpaceOnUse">
<stop offset="0.05" stop-color="#D8A368"/>
<stop offset="1" stop-color="#E6BD86"/>
</linearGradient>
<linearGradient id="paint15_linear_236_172504" x1="30.6442" y1="61.2573" x2="30.3032" y2="63.3355" gradientUnits="userSpaceOnUse">
<stop offset="0.05" stop-color="#D8A368"/>
<stop offset="1" stop-color="#E6BD86"/>
</linearGradient>
<linearGradient id="paint16_linear_236_172504" x1="27.8012" y1="61.7118" x2="27.4732" y2="63.7105" gradientUnits="userSpaceOnUse">
<stop offset="0.05" stop-color="#D8A368"/>
<stop offset="1" stop-color="#E6BD86"/>
</linearGradient>
<linearGradient id="paint17_linear_236_172504" x1="21.6967" y1="60.4563" x2="21.4657" y2="61.8643" gradientUnits="userSpaceOnUse">
<stop offset="0.05" stop-color="#D8A368"/>
<stop offset="1" stop-color="#E6BD86"/>
</linearGradient>
<linearGradient id="paint18_linear_236_172504" x1="25.3904" y1="61.9784" x2="25.1379" y2="63.5167" gradientUnits="userSpaceOnUse">
<stop offset="0.05" stop-color="#D8A368"/>
<stop offset="1" stop-color="#E6BD86"/>
</linearGradient>
<linearGradient id="paint19_linear_236_172504" x1="23.3117" y1="61.4408" x2="23.0417" y2="63.0857" gradientUnits="userSpaceOnUse">
<stop offset="0.05" stop-color="#D8A368"/>
<stop offset="1" stop-color="#E6BD86"/>
</linearGradient>
<linearGradient id="paint20_linear_236_172504" x1="41.3661" y1="57.0836" x2="41.1775" y2="58.2327" gradientUnits="userSpaceOnUse">
<stop stop-color="#D8A368"/>
<stop offset="0.49" stop-color="#E4B981"/>
<stop offset="0.92" stop-color="#EDC994"/>
</linearGradient>
<linearGradient id="paint21_linear_236_172504" x1="41.2442" y1="59.8878" x2="41.0486" y2="61.0792" gradientUnits="userSpaceOnUse">
<stop offset="0.05" stop-color="#D8A368"/>
<stop offset="1" stop-color="#E6BD86"/>
</linearGradient>
<linearGradient id="paint22_linear_236_172504" x1="41.5168" y1="58.6116" x2="41.3577" y2="59.5814" gradientUnits="userSpaceOnUse">
<stop stop-color="#D8A368"/>
<stop offset="0.49" stop-color="#E4B981"/>
<stop offset="0.92" stop-color="#EDC994"/>
</linearGradient>
<linearGradient id="paint23_linear_236_172504" x1="39.1313" y1="56.7726" x2="38.9221" y2="58.0469" gradientUnits="userSpaceOnUse">
<stop stop-color="#D8A368"/>
<stop offset="0.49" stop-color="#E4B981"/>
<stop offset="0.92" stop-color="#EDC994"/>
</linearGradient>
<linearGradient id="paint24_linear_236_172504" x1="37.0665" y1="56.8611" x2="36.9162" y2="57.7767" gradientUnits="userSpaceOnUse">
<stop stop-color="#D8A368"/>
<stop offset="0.49" stop-color="#E4B981"/>
<stop offset="0.92" stop-color="#EDC994"/>
</linearGradient>
<linearGradient id="paint25_linear_236_172504" x1="35.5505" y1="57.0121" x2="35.4099" y2="57.8684" gradientUnits="userSpaceOnUse">
<stop stop-color="#D8A368"/>
<stop offset="0.49" stop-color="#E4B981"/>
<stop offset="0.92" stop-color="#EDC994"/>
</linearGradient>
<linearGradient id="paint26_linear_236_172504" x1="33.9344" y1="57.0648" x2="33.7828" y2="57.9889" gradientUnits="userSpaceOnUse">
<stop stop-color="#D8A368"/>
<stop offset="0.49" stop-color="#E4B981"/>
<stop offset="0.92" stop-color="#EDC994"/>
</linearGradient>
<linearGradient id="paint27_linear_236_172504" x1="31.6613" y1="56.8622" x2="31.4541" y2="58.1247" gradientUnits="userSpaceOnUse">
<stop stop-color="#D8A368"/>
<stop offset="0.49" stop-color="#E4B981"/>
<stop offset="0.92" stop-color="#EDC994"/>
</linearGradient>
<linearGradient id="paint28_linear_236_172504" x1="29.1506" y1="56.1252" x2="28.9042" y2="57.6263" gradientUnits="userSpaceOnUse">
<stop stop-color="#D8A368"/>
<stop offset="0.49" stop-color="#E4B981"/>
<stop offset="0.92" stop-color="#EDC994"/>
</linearGradient>
<linearGradient id="paint29_linear_236_172504" x1="26.2231" y1="55.9802" x2="25.9642" y2="57.5575" gradientUnits="userSpaceOnUse">
<stop stop-color="#D8A368"/>
<stop offset="0.49" stop-color="#E4B981"/>
<stop offset="0.92" stop-color="#EDC994"/>
</linearGradient>
<linearGradient id="paint30_linear_236_172504" x1="23.5473" y1="56.5195" x2="23.2704" y2="58.2067" gradientUnits="userSpaceOnUse">
<stop stop-color="#D8A368"/>
<stop offset="0.49" stop-color="#E4B981"/>
<stop offset="0.92" stop-color="#EDC994"/>
</linearGradient>
<linearGradient id="paint31_linear_236_172504" x1="21.5181" y1="57.6046" x2="21.354" y2="58.6048" gradientUnits="userSpaceOnUse">
<stop stop-color="#D8A368"/>
<stop offset="0.49" stop-color="#E4B981"/>
<stop offset="0.92" stop-color="#EDC994"/>
</linearGradient>
<linearGradient id="paint32_linear_236_172504" x1="39.0952" y1="58.4037" x2="38.9191" y2="59.4766" gradientUnits="userSpaceOnUse">
<stop stop-color="#D8A368"/>
<stop offset="0.49" stop-color="#E4B981"/>
<stop offset="0.92" stop-color="#EDC994"/>
</linearGradient>
<linearGradient id="paint33_linear_236_172504" x1="36.9249" y1="58.1883" x2="36.7213" y2="59.4288" gradientUnits="userSpaceOnUse">
<stop stop-color="#D8A368"/>
<stop offset="0.49" stop-color="#E4B981"/>
<stop offset="0.92" stop-color="#EDC994"/>
</linearGradient>
<linearGradient id="paint34_linear_236_172504" x1="35.2494" y1="58.3599" x2="35.0989" y2="59.2772" gradientUnits="userSpaceOnUse">
<stop stop-color="#D8A368"/>
<stop offset="0.49" stop-color="#E4B981"/>
<stop offset="0.92" stop-color="#EDC994"/>
</linearGradient>
<linearGradient id="paint35_linear_236_172504" x1="33.4591" y1="58.2296" x2="33.2528" y2="59.4871" gradientUnits="userSpaceOnUse">
<stop stop-color="#D8A368"/>
<stop offset="0.49" stop-color="#E4B981"/>
<stop offset="0.92" stop-color="#EDC994"/>
</linearGradient>
<linearGradient id="paint36_linear_236_172504" x1="39.0459" y1="60.012" x2="38.8434" y2="61.2457" gradientUnits="userSpaceOnUse">
<stop offset="0.05" stop-color="#D8A368"/>
<stop offset="1" stop-color="#E6BD86"/>
</linearGradient>
<linearGradient id="paint37_linear_236_172504" x1="37.065" y1="59.918" x2="36.845" y2="61.2583" gradientUnits="userSpaceOnUse">
<stop offset="0.05" stop-color="#D8A368"/>
<stop offset="1" stop-color="#E6BD86"/>
</linearGradient>
<linearGradient id="paint38_linear_236_172504" x1="35.1029" y1="59.6846" x2="34.8779" y2="61.0554" gradientUnits="userSpaceOnUse">
<stop offset="0.05" stop-color="#D8A368"/>
<stop offset="1" stop-color="#E6BD86"/>
</linearGradient>
<linearGradient id="paint39_linear_236_172504" x1="32.9494" y1="59.6736" x2="32.7675" y2="60.7821" gradientUnits="userSpaceOnUse">
<stop offset="0.05" stop-color="#D8A368"/>
<stop offset="1" stop-color="#E6BD86"/>
</linearGradient>
<linearGradient id="paint40_linear_236_172504" x1="31.019" y1="59.4401" x2="30.7574" y2="61.0343" gradientUnits="userSpaceOnUse">
<stop offset="0.05" stop-color="#D8A368"/>
<stop offset="1" stop-color="#E6BD86"/>
</linearGradient>
<linearGradient id="paint41_linear_236_172504" x1="29.1643" y1="59.758" x2="28.9174" y2="61.2624" gradientUnits="userSpaceOnUse">
<stop offset="0.05" stop-color="#D8A368"/>
<stop offset="1" stop-color="#E6BD86"/>
</linearGradient>
<linearGradient id="paint42_linear_236_172504" x1="27.435" y1="60.0806" x2="27.1775" y2="61.6494" gradientUnits="userSpaceOnUse">
<stop offset="0.05" stop-color="#D8A368"/>
<stop offset="1" stop-color="#E6BD86"/>
</linearGradient>
<linearGradient id="paint43_linear_236_172504" x1="25.6367" y1="60.2773" x2="25.4209" y2="61.5923" gradientUnits="userSpaceOnUse">
<stop offset="0.05" stop-color="#D8A368"/>
<stop offset="1" stop-color="#E6BD86"/>
</linearGradient>
<linearGradient id="paint44_linear_236_172504" x1="23.8986" y1="59.9261" x2="23.687" y2="61.2157" gradientUnits="userSpaceOnUse">
<stop offset="0.05" stop-color="#D8A368"/>
<stop offset="1" stop-color="#E6BD86"/>
</linearGradient>
<linearGradient id="paint45_linear_236_172504" x1="21.9101" y1="59.3164" x2="21.7301" y2="60.4131" gradientUnits="userSpaceOnUse">
<stop offset="0.05" stop-color="#D8A368"/>
<stop offset="1" stop-color="#E6BD86"/>
</linearGradient>
<linearGradient id="paint46_linear_236_172504" x1="30.6128" y1="58.0893" x2="30.4109" y2="59.3196" gradientUnits="userSpaceOnUse">
<stop stop-color="#D8A368"/>
<stop offset="0.49" stop-color="#E4B981"/>
<stop offset="0.92" stop-color="#EDC994"/>
</linearGradient>
<linearGradient id="paint47_linear_236_172504" x1="28.2314" y1="57.8287" x2="27.9403" y2="59.6023" gradientUnits="userSpaceOnUse">
<stop stop-color="#D8A368"/>
<stop offset="0.49" stop-color="#E4B981"/>
<stop offset="0.92" stop-color="#EDC994"/>
</linearGradient>
<linearGradient id="paint48_linear_236_172504" x1="26.1763" y1="58.1293" x2="25.8883" y2="59.8843" gradientUnits="userSpaceOnUse">
<stop stop-color="#D8A368"/>
<stop offset="0.49" stop-color="#E4B981"/>
<stop offset="0.92" stop-color="#EDC994"/>
</linearGradient>
<linearGradient id="paint49_linear_236_172504" x1="24.0377" y1="58.4005" x2="23.8399" y2="59.6054" gradientUnits="userSpaceOnUse">
<stop stop-color="#D8A368"/>
<stop offset="0.49" stop-color="#E4B981"/>
<stop offset="0.92" stop-color="#EDC994"/>
</linearGradient>
<linearGradient id="paint50_linear_236_172504" x1="22.4648" y1="58.6584" x2="22.3545" y2="59.3302" gradientUnits="userSpaceOnUse">
<stop offset="0.05" stop-color="#D8A368"/>
<stop offset="1" stop-color="#E6BD86"/>
</linearGradient>
<clipPath id="clip0_236_172504">
<rect width="60.8063" height="92" fill="white" transform="translate(0.59668)"/>
</clipPath>
</defs>
</svg>
