<svg width="55" height="92" viewBox="0 0 55 92" fill="none" xmlns="http://www.w3.org/2000/svg">
<g clip-path="url(#clip0_236_171989)">
<path d="M22.7595 0.564863C22.7612 0.5378 22.7693 0.515919 22.7808 0.496918C22.0512 0.669084 21.6113 0.890769 21.6113 1.13203V5.27611C21.9516 5.28129 22.2919 5.28647 22.6317 5.29223C22.634 3.71567 22.6748 2.13912 22.7589 0.564863H22.7595Z" fill="#86AD58"/>
<path d="M28.8544 3.34199C28.8648 4.04851 28.8855 4.75444 28.9045 5.46038C29.2886 5.47363 29.6726 5.48399 30.0567 5.49896C30.0601 3.82336 30.0503 2.14834 30.0193 0.472749C30.0187 0.439352 30.0296 0.414017 30.0446 0.392712C29.6669 0.325918 29.239 0.270641 28.7715 0.228607C28.779 0.244154 28.7853 0.260277 28.7876 0.279854C28.8924 1.29155 28.8389 2.32627 28.8544 3.34199Z" fill="#86AD58"/>
<path d="M26.0651 5.36826C26.5102 5.38035 26.9547 5.39705 27.3998 5.4103C27.2967 3.65581 27.2218 1.90018 27.1677 0.143396C27.0048 0.140517 26.8395 0.138214 26.6725 0.138214C26.4203 0.138214 26.175 0.142821 25.9326 0.150306C25.9418 0.168156 25.9482 0.188885 25.9493 0.213645C26.0109 1.93127 26.0461 3.64948 26.0651 5.36826Z" fill="#86AD58"/>
<path d="M30.3437 5.50874C30.8067 5.52659 31.2691 5.55077 31.7314 5.57092V1.13261C31.7314 0.863132 31.1844 0.619566 30.2988 0.440491C30.3017 0.451431 30.3057 0.460644 30.3063 0.473312C30.3374 2.15179 30.3466 3.83026 30.3437 5.50874Z" fill="#86AD58"/>
<path d="M24.509 0.359884C24.3823 2.0136 24.3178 3.67134 24.3086 5.32909C24.798 5.34003 25.2875 5.34867 25.7769 5.36134C25.7573 3.64486 25.7228 1.92838 25.6612 0.213053C25.6606 0.191748 25.6646 0.173898 25.6704 0.157776C25.2391 0.17505 24.8297 0.203265 24.4456 0.240692C24.4848 0.261421 24.5136 0.3 24.509 0.359884Z" fill="#86AD58"/>
<path d="M23.0472 0.564866C22.9631 2.14142 22.9222 3.71971 22.9199 5.29857C23.2873 5.30548 23.6547 5.31469 24.022 5.32275C24.0312 3.66673 24.0957 2.01129 24.2224 0.359879C24.2259 0.31439 24.2466 0.280418 24.2748 0.257385C23.794 0.308056 23.3633 0.37485 22.9919 0.452008C23.0259 0.474464 23.0501 0.51074 23.0472 0.565442V0.564866Z" fill="#86AD58"/>
<path d="M27.6867 5.42006C27.9971 5.42985 28.3069 5.44079 28.6172 5.45115C28.5982 4.74809 28.5781 4.04561 28.5671 3.34255C28.5516 2.32683 28.6057 1.2921 28.5003 0.280413C28.4975 0.251047 28.5038 0.228014 28.5142 0.207861C28.1767 0.18195 27.822 0.162948 27.4541 0.152008C27.5082 1.90879 27.5831 3.66558 27.6867 5.42006Z" fill="#86AD58"/>
<path d="M22.6318 5.29282C22.7274 5.29455 22.8236 5.29742 22.9192 5.29915C22.9215 3.72029 22.9623 2.14201 23.0464 0.565449C23.0493 0.510748 23.0251 0.474472 22.9911 0.452015C22.9266 0.409982 22.8247 0.424377 22.781 0.497504C22.7695 0.516506 22.7608 0.538386 22.7597 0.565449C22.6756 2.1397 22.6347 3.71626 22.6324 5.29282H22.6318Z" fill="#50732B"/>
<path d="M24.0215 5.32334C24.1171 5.32565 24.2132 5.32738 24.3088 5.32968C24.3174 3.67136 24.3825 2.01419 24.5092 0.360472C24.5138 0.300588 24.485 0.262585 24.4459 0.24128C24.394 0.213641 24.3226 0.217672 24.2743 0.257402C24.246 0.280435 24.2253 0.314407 24.2219 0.359896C24.0958 2.01131 24.0307 3.66675 24.0215 5.32277V5.32334Z" fill="#50732B"/>
<path d="M25.7769 5.36192C25.8725 5.36422 25.9687 5.36538 26.0643 5.36825C26.0447 3.64947 26.0101 1.93127 25.9485 0.213637C25.9479 0.188878 25.941 0.168149 25.9318 0.150299C25.8783 0.0483808 25.7101 0.0506841 25.6704 0.15836C25.6646 0.174482 25.6606 0.192908 25.6612 0.213637C25.7228 1.92896 25.7573 3.64544 25.7769 5.36192Z" fill="#50732B"/>
<path d="M27.3991 5.41028C27.4953 5.41316 27.5909 5.41662 27.687 5.42007C27.5834 3.66559 27.5091 1.90881 27.4544 0.152022C27.4544 0.147415 27.4544 0.143385 27.4544 0.138778C27.4486 -0.0454797 27.1613 -0.0466313 27.1671 0.138778C27.1671 0.140506 27.1671 0.142233 27.1671 0.14396C27.2212 1.90017 27.2961 3.65638 27.3991 5.41086V5.41028Z" fill="#50732B"/>
<path d="M28.5667 3.342C28.5771 4.04506 28.5978 4.74812 28.6168 5.4506C28.7124 5.45406 28.8086 5.45693 28.9041 5.46039C28.8851 4.75445 28.8644 4.04794 28.854 3.342C28.8385 2.32628 28.8926 1.29155 28.7872 0.279862C28.7855 0.260284 28.7786 0.244162 28.7711 0.228615C28.7199 0.123243 28.561 0.116333 28.5137 0.20731C28.5034 0.227464 28.4965 0.250496 28.4999 0.279862C28.6047 1.29155 28.5512 2.32628 28.5667 3.342Z" fill="#50732B"/>
<path d="M30.057 5.49953C30.1526 5.50298 30.2487 5.50529 30.3443 5.50932C30.3478 3.83084 30.338 2.15237 30.3069 0.473892C30.3069 0.461225 30.3023 0.452012 30.2994 0.441071C30.27 0.321304 30.1071 0.305181 30.0449 0.393855C30.0299 0.41516 30.019 0.440496 30.0196 0.473892C30.0501 2.14891 30.0599 3.82451 30.057 5.5001V5.49953Z" fill="#50732B"/>
<path d="M47.7475 86.6197C46.5849 85.342 45.4224 84.0648 44.2598 82.7871C43.9713 82.4699 43.6823 82.1526 43.3938 81.8353C43.3086 81.7415 43.2562 81.6574 43.1318 81.7541C43.0564 81.8123 42.9982 81.8935 42.9372 81.966C42.8117 82.1163 42.6856 82.266 42.5595 82.4157C42.0251 83.0497 41.4867 83.6796 40.9437 84.3055C38.7804 86.7999 36.5475 89.2333 34.25 91.6044C42.5652 92.0841 43.3644 91.6672 51.6647 90.9158C51.6578 90.9106 51.6509 90.9077 51.6439 90.9008C50.3449 89.4734 49.0459 88.0465 47.7475 86.6191V86.6197Z" fill="#F8D6B6"/>
<path d="M46.8004 14.2218C46.4768 14.5074 46.1469 14.7861 45.81 15.0568C45.4905 15.3141 45.1669 15.602 44.815 15.8139C44.7408 15.8589 44.6722 15.8807 44.606 15.8928C44.5202 20.6478 44.431 25.4034 44.3394 30.1584C44.1747 38.7443 44.0037 47.3295 43.835 55.9148C43.668 64.4235 43.5033 72.9322 43.3496 81.4415C43.5062 81.5054 43.6364 81.6752 43.7648 81.8163C44.0694 82.1508 44.374 82.486 44.6786 82.8205C47.0123 85.3851 49.3461 87.9492 51.6798 90.5138C51.6936 81.2411 52.0178 71.9723 52.3437 62.7053C52.5372 57.204 52.7301 51.7034 52.9235 46.2021C53.3796 33.2332 53.835 20.2643 54.2905 7.29604C54.306 6.84807 54.3061 6.35921 54.127 5.9642C52.9212 7.50276 51.7132 9.04131 50.4291 10.516C49.2937 11.8207 48.0971 13.0754 46.7998 14.2207L46.8004 14.2218Z" fill="#F8D6B6"/>
<path d="M33.9598 91.582C33.95 91.5405 33.9569 91.4956 33.9949 91.4559C35.3412 90.0676 36.6655 88.658 37.9663 87.2266C39.1121 85.9655 40.2401 84.689 41.3497 83.3957C41.6347 83.0641 41.918 82.7307 42.2007 82.3967C42.3493 82.2211 42.4979 82.0449 42.6458 81.8687C42.7535 81.7403 42.8549 81.5952 42.9942 81.4979C43.0184 81.4812 43.0403 81.4731 43.0633 81.4616C43.1497 76.6951 43.2389 71.9291 43.3305 67.1626C43.4951 58.5768 43.6662 49.9915 43.8349 41.4056C44.0024 32.89 44.1671 24.3744 44.3209 15.8583C44.1648 15.7886 44.026 15.6487 43.8867 15.5053C43.5452 15.1535 43.2038 14.8017 42.8623 14.4499C40.1215 11.6267 37.3812 8.8035 34.6404 5.98032C34.5114 5.84731 34.7147 5.64462 34.8437 5.77706C36.3431 7.32195 37.8425 8.86626 39.3419 10.4111C40.6662 11.7758 41.9906 13.1399 43.3155 14.5046C43.642 14.8408 43.9564 15.2007 44.3019 15.518C44.5224 15.7207 44.6928 15.5577 44.8874 15.4126C45.0469 15.2934 45.2047 15.1731 45.3613 15.0498C46.0241 14.5293 46.6615 13.9777 47.2765 13.4019C49.7507 11.0866 51.8495 8.41137 53.9345 5.75057C53.9472 5.73445 53.961 5.72409 53.9748 5.71602C53.9466 5.67975 53.9201 5.64232 53.8873 5.60892C53.4831 5.20298 52.8451 5.17649 52.2722 5.17765C43.2309 5.19665 43.4261 5.10337 34.4941 5.69357L33.6396 91.5267C33.7439 91.552 33.8521 91.5693 33.9604 91.5808L33.9598 91.582Z" fill="#F8D6B6"/>
<path d="M16.7498 33.6323C16.8598 33.535 16.9427 33.4106 17.0268 33.2914C17.2404 32.9874 17.4569 32.6949 17.6297 32.3638C18.0304 31.5951 18.2539 30.7463 18.4324 29.9028C18.7922 28.2047 19.106 26.4646 19.1032 24.724C19.1026 24.2898 19.0859 23.8522 19.0329 23.4209C18.988 23.057 18.8619 22.5756 18.4473 22.4772C18.0667 22.3868 17.7327 22.8221 17.522 23.08C17.2894 23.3651 17.0982 23.6835 16.937 24.014C16.6059 24.6946 16.4101 25.4339 16.2535 26.171C16.0692 27.0404 15.9408 27.9208 15.87 28.807C15.7433 30.3922 15.661 32.1858 16.4596 33.6219C16.5552 33.7342 16.6307 33.7388 16.7493 33.6334L16.7498 33.6323Z" fill="#FEEEE3"/>
<path d="M17.1059 71.518L17.0915 71.5497L17.0799 71.5762L17.0753 71.5865L17.0707 71.5975L17.0615 71.6193C17.0794 71.7276 17.1001 71.8353 17.1151 71.9441C17.1024 71.803 17.0995 71.6608 17.1059 71.518Z" fill="#FEEEE3"/>
<path d="M0.132624 91.8094C15.5844 91.8094 20.9135 92.2373 33.6359 91.8094L33.6388 91.5279L34.4933 5.69474C33.5731 5.6481 32.653 5.6101 31.7323 5.57037C31.2693 5.55022 30.807 5.52661 30.3446 5.50818C30.249 5.50473 30.1529 5.50242 30.0573 5.49839C29.6732 5.48342 29.2891 5.47306 28.9051 5.45982C28.8095 5.45636 28.7133 5.45348 28.6178 5.45003C28.3074 5.43966 27.9976 5.42872 27.6873 5.41893C27.5911 5.41605 27.4955 5.41202 27.3993 5.40914C26.9542 5.39533 26.5097 5.3792 26.0646 5.36711C25.969 5.36481 25.8729 5.36308 25.7773 5.36078C25.2879 5.34811 24.7984 5.33947 24.309 5.32853C24.2134 5.32623 24.1173 5.3245 24.0217 5.3222C23.6543 5.31414 23.2869 5.30492 22.9196 5.29801C22.824 5.29629 22.7278 5.29341 22.6322 5.29168C22.2919 5.28592 21.9516 5.28074 21.6119 5.27556C14.9464 5.17767 8.27855 5.26289 1.6182 5.53697C-0.690203 33.9662 0.360643 63.2886 0.132624 91.8094ZM13.8668 79.4135C13.5771 79.9092 12.4123 79.9864 11.613 79.52C10.8133 79.0536 10.3998 78.2734 10.6895 77.777C10.9791 77.2813 11.8618 77.2571 12.661 77.7241C13.4608 78.1905 14.1564 78.9177 13.8668 79.4135ZM12.114 75.0702C12.5355 74.6418 13.1545 74.5663 13.4965 74.9032C13.8391 75.2395 13.7746 75.8596 13.3537 76.2886C12.9322 76.717 12.3265 77.0032 11.9844 76.6663C11.6424 76.33 11.6931 75.4991 12.114 75.0702ZM14.0608 74.3861C14.0608 73.9905 14.5779 73.6692 15.2159 73.6692C15.8539 73.6692 16.5206 73.8604 16.5206 74.256C16.5206 74.6516 15.8539 75.1018 15.2159 75.1018C14.5779 75.1018 14.0608 74.7811 14.0608 74.3855V74.3861ZM16.687 78.2325C15.7612 78.2325 15.0109 77.7672 15.0109 77.1932C15.0109 76.6191 15.7612 76.1533 16.687 76.1533C17.6129 76.1533 18.3632 76.6185 18.3632 77.1932C18.3632 77.7678 17.6129 78.2325 16.687 78.2325ZM17.8318 74.8727C17.8318 74.2986 18.582 73.8328 19.5079 73.8328C20.4338 73.8328 21.4012 74.1103 21.4012 74.6844C21.4012 75.2585 20.4338 75.9126 19.5079 75.9126C18.582 75.9126 17.8318 75.4467 17.8318 74.8727ZM24.3683 78.0615C23.9601 78.6315 23.3578 79.0323 22.7324 79.349C22.0443 79.6973 21.2543 79.9611 20.5087 79.763C20.2231 79.687 19.9404 79.5292 19.8079 79.2655C19.6824 79.0162 19.7118 78.7162 19.7906 78.449C19.9559 77.8899 20.3181 77.4068 20.735 76.9997C21.2589 76.489 21.8825 76.0761 22.5689 75.8216C22.8821 75.7053 23.2242 75.6218 23.5495 75.6978C23.8138 75.76 24.0366 75.9298 24.1956 76.1498C24.48 76.3629 24.6861 76.6813 24.7138 77.0331C24.7426 77.401 24.5831 77.7609 24.3683 78.0609V78.0615ZM24.8405 73.1447C24.8537 73.409 24.7685 73.679 24.5796 73.8621C24.3821 74.0539 24.0994 74.1333 23.8247 74.1523C23.3036 74.1892 22.7866 74.0337 22.3069 73.8247C21.7795 73.595 21.252 73.2667 21.0114 72.7439C20.9192 72.5435 20.8755 72.3063 20.9641 72.1048C21.0476 71.9142 21.2336 71.7887 21.4248 71.7069C21.8244 71.5359 22.2741 71.5146 22.7065 71.5606C23.2489 71.6188 23.7827 71.7806 24.2554 72.0541C24.4714 72.179 24.6821 72.3351 24.7927 72.5585C24.8831 72.7399 24.8911 72.9483 24.8399 73.1447H24.8405ZM19.5787 33.63C20.9077 31.4943 22.1088 29.2815 23.1793 27.0059C22.4319 25.4052 21.7236 23.7866 21.0568 22.1507C20.9866 21.9791 21.2647 21.9054 21.3338 22.0741C21.9632 23.6167 22.6322 25.1426 23.3336 26.6535C24.3153 24.8478 25.2234 23.0023 26.0508 21.1206C26.1251 20.9513 26.3727 21.0981 26.299 21.2657C25.452 23.1923 24.5215 25.0816 23.5127 26.9287C23.5144 26.9524 23.5121 26.9765 23.5 27.0025C22.4117 29.331 21.1852 31.5928 19.8269 33.7751C19.7296 33.9317 19.4809 33.7872 19.5787 33.63ZM22.5603 42.5889C22.7526 42.9454 22.9512 43.2983 23.1464 43.6525C23.9399 45.092 24.7328 46.5315 25.5262 47.9704C25.6155 48.1328 25.3673 48.2773 25.2781 48.1155C24.8123 47.2708 24.347 46.4261 23.8812 45.5808C23.4672 44.83 23.0537 44.0791 22.6397 43.3277C22.5303 43.1296 22.4192 42.9327 22.3121 42.7329C22.243 42.6045 22.1728 42.4692 22.1705 42.32C22.1681 42.1525 22.247 42.0022 22.3328 41.8634C22.437 41.6941 22.5453 41.526 22.6518 41.3579C23.5633 39.9114 24.4754 38.4656 25.3875 37.0192C25.4859 36.8631 25.7347 37.0077 25.6357 37.1643C25.1416 37.9474 24.6476 38.731 24.1541 39.5141C23.7234 40.197 23.2933 40.88 22.8626 41.5629C22.7543 41.7345 22.6369 41.9032 22.5384 42.0805C22.4336 42.2688 22.4618 42.4035 22.5614 42.5884L22.5603 42.5889ZM22.1204 37.2984C22.1204 38.0873 22.1204 38.8756 22.1204 39.6639C22.1204 42.46 22.1204 45.2555 22.1204 48.051C22.1204 48.2365 21.833 48.2359 21.833 48.051V45.6856C21.833 42.8895 21.833 40.094 21.833 37.2984C21.833 37.113 22.1204 37.1136 22.1204 37.2984ZM20.6486 47.5777C20.8329 47.5593 20.8305 47.8466 20.6486 47.8651C20.1551 47.914 19.6617 47.9624 19.1688 48.0113C18.8314 48.0447 18.2498 48.2284 18.1703 47.7493C18.1018 47.3353 18.1174 46.8902 18.1087 46.4716C18.1001 46.0518 18.1007 45.6321 18.107 45.2123C18.1208 44.3365 18.16 43.4613 18.1945 42.5866C18.2636 40.8529 18.3125 39.1128 18.115 37.3854C18.0937 37.2017 18.3816 37.204 18.4024 37.3854C18.5066 38.2992 18.544 39.2188 18.5434 40.1383C18.5423 41.7609 18.43 43.3807 18.3978 45.0027C18.3816 45.8186 18.3857 46.6351 18.434 47.4499C18.441 47.5645 18.407 47.7476 18.5486 47.7844C18.6195 47.8029 18.7421 47.7666 18.8164 47.7591C19.0162 47.7395 19.216 47.72 19.4152 47.6998C19.8263 47.6589 20.2375 47.6186 20.6486 47.5777ZM15.6972 27.7372C15.8153 26.8378 15.9765 25.9343 16.2345 25.0637C16.4619 24.2973 16.7826 23.5493 17.2842 22.92C17.5128 22.6332 17.8081 22.2785 18.1836 22.1939C18.555 22.1098 18.9143 22.3407 19.1008 22.6517C19.3191 23.015 19.3352 23.4768 19.3634 23.8885C19.3962 24.3745 19.3991 24.8622 19.3789 25.3487C19.3375 26.3391 19.2004 27.3232 19.0312 28.2986C18.8768 29.1848 18.7196 30.0778 18.4772 30.9444C18.2532 31.7459 17.9394 32.5383 17.4414 33.2114C17.1909 33.5494 16.6957 34.3849 16.2425 33.8067C16.2408 33.8044 16.2402 33.8016 16.2385 33.7993C16.2322 33.7918 16.2253 33.7872 16.2201 33.778C15.7393 32.9206 15.5694 31.944 15.5291 30.9721C15.4842 29.8941 15.5573 28.8059 15.6978 27.7372H15.6972ZM16.2431 48.0516C16.2448 48.237 15.9575 48.2365 15.9558 48.0516C15.9477 47.242 15.9431 46.433 15.9414 45.6234C15.9362 42.7433 15.973 39.8625 16.0514 36.9835C16.0565 36.7986 16.3439 36.7986 16.3387 36.9835C16.3168 37.7925 16.2978 38.6015 16.2823 39.4111C16.2276 42.2907 16.2149 45.1714 16.2431 48.0516ZM15.0731 66.1037C15.0679 66.1193 15.061 66.1337 15.0558 66.1492C15.2498 66.4745 15.4341 66.805 15.604 67.143C15.7122 67.0883 15.87 67.2081 15.7934 67.3417C15.7761 67.3716 15.7617 67.4027 15.7456 67.4327C15.9057 67.7666 16.0519 68.1069 16.1878 68.4513C16.2201 68.3885 16.28 68.3459 16.3554 68.3666C16.4239 68.3856 16.4849 68.4714 16.4556 68.5434C16.4164 68.639 16.3773 68.7357 16.337 68.8325C16.6197 69.6075 16.8414 70.4038 16.9963 71.214C17.0314 71.2054 17.0694 71.2094 17.1045 71.2278C17.1143 71.233 17.1212 71.2416 17.1287 71.2491C17.1425 71.1271 17.1604 71.0061 17.1851 70.8869C17.2577 70.5345 17.37 70.1931 17.5064 69.8614C17.5087 69.7371 17.5145 69.6121 17.5272 69.4866C17.5387 69.3731 17.6544 69.33 17.7356 69.3576C17.9285 68.9776 18.1531 68.6119 18.3966 68.2607C18.4122 68.1565 18.4266 68.0522 18.4479 67.9486C18.472 67.8306 18.5964 67.8231 18.6707 67.8812C18.8653 67.621 19.0692 67.3676 19.2822 67.1206C19.2926 67.0492 19.3012 66.9772 19.3133 66.9064C19.3335 66.7878 19.4578 66.7809 19.5333 66.8396C19.7607 66.5897 19.9974 66.3484 20.2432 66.1164C20.2547 66.0479 20.264 65.9799 20.2766 65.9114C20.3002 65.7818 20.4459 65.7853 20.5167 65.8624C20.8294 65.5838 21.1553 65.3206 21.4922 65.0742C21.4979 65.0517 21.5014 65.0293 21.5077 65.0068C21.5348 64.906 21.6332 64.8882 21.7064 64.9222C21.9574 64.7465 22.2136 64.5801 22.4768 64.4247C22.5015 64.3176 22.5228 64.2087 22.5499 64.1028C22.596 63.9237 22.8729 63.9997 22.8269 64.1794C22.8228 64.1961 22.8194 64.2133 22.8154 64.23C23.0796 64.0849 23.3503 63.9531 23.6249 63.8299C23.6347 63.7919 23.6416 63.7527 23.6532 63.7153C23.6958 63.5742 23.8783 63.5955 23.9244 63.6992C24.1558 63.6036 24.3913 63.5178 24.6291 63.4383C24.6435 63.3796 24.6579 63.3208 24.6775 63.2627C24.7345 63.09 25.0046 63.1619 24.955 63.3329C25.1658 63.2702 25.3788 63.2166 25.5936 63.1677C25.5936 63.1671 25.5936 63.166 25.5942 63.1648C25.6201 63.0917 25.6915 63.0427 25.771 63.0646C25.7992 63.0721 25.8228 63.0917 25.8418 63.1147C25.8953 63.1038 25.9477 63.0905 26.0013 63.0807C26.265 63.0324 26.6001 63.026 26.7308 63.2604C26.8218 63.4245 26.7619 63.6283 26.6969 63.8039C26.6612 63.9001 26.6197 63.994 26.5823 64.089C26.6203 64.1039 26.6514 64.1327 26.6663 64.1794C26.6882 64.2473 26.6404 64.3441 26.5662 64.3561C26.5345 64.3613 26.5022 64.3625 26.4706 64.3665C26.3439 64.6705 26.2092 64.9711 26.0629 65.2659C26.1936 65.3103 26.1763 65.5389 26.0117 65.5446C25.9806 65.5458 25.9489 65.5435 25.9178 65.5435C25.7658 65.8331 25.6046 66.1175 25.4341 66.3974C25.4882 66.4826 25.4514 66.6242 25.3213 66.6214C25.3138 66.6214 25.3063 66.6202 25.2988 66.6196C25.0357 67.0359 24.7518 67.4379 24.4512 67.8277C24.5002 67.8501 24.5359 67.8927 24.5359 67.9549C24.5359 68.0263 24.4696 68.1075 24.3925 68.0983C24.3476 68.0931 24.3038 68.0845 24.2595 68.0787C24.0551 68.3327 23.8414 68.5785 23.6221 68.8192C23.6514 68.905 23.6088 69.0156 23.4925 69.0098C23.477 69.0092 23.4608 69.0069 23.4453 69.0058C23.1862 69.281 22.9184 69.5482 22.6403 69.8044C22.7232 69.8931 22.6472 70.0785 22.4975 70.0417C22.4653 70.0336 22.4319 70.0278 22.399 70.0209C22.1215 70.2662 21.8342 70.5 21.5405 70.7251C21.6102 70.739 21.6672 70.7862 21.6672 70.8645C21.6672 70.9359 21.601 71.0165 21.5238 71.0079C21.4213 70.9963 21.3183 70.9848 21.2146 70.9733C20.5467 71.457 19.8407 71.8883 19.1043 72.2591C19.1227 72.2913 19.1285 72.3305 19.1198 72.3691C19.1026 72.4445 19.0156 72.4894 18.9431 72.4692C18.9143 72.4612 18.8855 72.4554 18.8561 72.4502L18.8026 72.4416L18.7772 72.4387C18.7623 72.437 18.7473 72.4359 18.7323 72.4341C18.4191 72.5815 18.1012 72.7191 17.7776 72.8441C17.7229 72.9132 17.6671 72.9817 17.6129 73.0514C17.5058 73.1884 17.3245 73.0157 17.3964 72.8752C17.2629 72.6414 17.1805 72.384 17.1391 72.1151C17.1621 72.2925 17.1805 72.4698 17.1966 72.6478C17.2479 72.7186 17.298 72.7906 17.3498 72.8614C17.4529 73.003 17.2364 73.136 17.1212 73.0243C16.4677 73.185 15.756 72.9978 15.1519 72.6829C14.833 72.5165 14.5353 72.3155 14.2537 72.0933C14.1345 72.057 14.0165 72.0173 13.9001 71.9712C13.7942 71.9291 13.7833 71.8059 13.8316 71.7351C13.519 71.446 13.2293 71.1299 12.9581 70.8C12.8625 70.7568 12.767 70.7142 12.6737 70.6658C12.5666 70.61 12.5919 70.4873 12.6668 70.4303C12.4698 70.1724 12.2827 69.9075 12.1036 69.6357C12.0386 69.6063 11.9724 69.5787 11.9079 69.5476C11.7985 69.4952 11.8244 69.3726 11.901 69.315C11.7236 69.0282 11.556 68.7351 11.4006 68.4357C11.3384 68.4064 11.2762 68.3787 11.2146 68.3482C11.096 68.2895 11.1374 68.1484 11.2301 68.1012C11.0476 67.7246 10.8847 67.34 10.7395 66.9484C10.7205 66.9369 10.7004 66.9277 10.6814 66.9162C10.5916 66.8626 10.6002 66.7619 10.652 66.6997C10.5518 66.4106 10.4626 66.1187 10.3843 65.8233C10.2887 65.7703 10.1908 65.7208 10.0969 65.6661C9.93745 65.5728 10.082 65.3246 10.2421 65.4179C10.2576 65.4271 10.2737 65.4346 10.2893 65.4438C10.2225 65.1502 10.1695 64.8536 10.1263 64.556C10.0929 64.5364 10.0584 64.5197 10.0255 64.4989C9.90117 64.4189 9.9697 64.2462 10.082 64.2312C10.0532 63.9824 10.0353 63.7331 10.0238 63.4832C9.972 63.4539 9.92018 63.4239 9.87008 63.3899C9.71865 63.2874 9.85972 63.0422 10.0117 63.1406C10.0094 62.9212 10.0158 62.7013 10.0273 62.4813C9.96163 62.4347 9.93688 62.3587 9.97603 62.285C9.98985 62.2591 10.0158 62.2401 10.0446 62.228C10.0486 62.1738 10.0503 62.1197 10.0555 62.0656C10.0814 61.7984 10.1666 61.4748 10.428 61.4132C10.6106 61.3706 10.7902 61.484 10.9417 61.5946C11.0246 61.655 11.1029 61.7207 11.1846 61.7829C11.2088 61.7506 11.2445 61.7287 11.2935 61.7264C11.3649 61.723 11.4461 61.795 11.4369 61.8698C11.4328 61.9021 11.4259 61.9332 11.4207 61.9654C11.6787 62.171 11.9309 62.3823 12.1745 62.604C12.2533 62.4917 12.4681 62.5683 12.4284 62.7283C12.4209 62.7589 12.41 62.7888 12.4013 62.8193C12.6386 63.045 12.8683 63.2782 13.0906 63.5183C13.1873 63.4896 13.3134 63.5621 13.2748 63.6871C13.2725 63.6945 13.2691 63.7015 13.2668 63.7095C13.595 64.0763 13.9042 64.4598 14.1967 64.8559C14.2312 64.8151 14.2813 64.792 14.3406 64.8087C14.4092 64.8277 14.4702 64.9135 14.4408 64.9855C14.4236 65.0275 14.4028 65.0678 14.385 65.1093C14.5733 65.3753 14.7518 65.6483 14.9234 65.9258C15.0138 65.9206 15.1088 65.9909 15.0713 66.1008L15.0731 66.1037ZM9.12384 33.1377C9.51136 33.7826 10.2507 34.124 10.9889 34.1332C11.7754 34.143 12.494 33.7503 13.0186 33.1814C14.0758 32.0367 14.3971 30.1849 13.6111 28.8093C13.2437 28.1656 12.6771 27.6612 12.0823 27.231C11.4749 26.7923 10.7747 26.4526 10.2259 25.9384C9.15032 24.9313 9.4152 23.2424 10.4706 22.3246C11.0228 21.845 11.7259 21.5668 12.4422 21.4476C12.9944 21.3555 13.8575 21.2432 14.1714 21.8473C14.2566 22.0114 14.0084 22.1565 13.9232 21.9924C13.7418 21.6423 13.2714 21.6486 12.9305 21.6751C12.5102 21.7079 12.0927 21.7937 11.696 21.9388C10.9186 22.2238 10.2277 22.7789 9.94839 23.5781C9.7077 24.2662 9.78198 25.0372 10.2847 25.59C10.7931 26.148 11.5244 26.4854 12.1347 26.9167C12.7174 27.3284 13.2708 27.7948 13.6813 28.3838C14.127 29.023 14.3458 29.7888 14.3332 30.5661C14.3107 31.982 13.5529 33.4745 12.2528 34.1217C11.1098 34.6912 9.56145 34.4246 8.87509 33.2822C8.7795 33.1233 9.02825 32.9787 9.12326 33.1371L9.12384 33.1377ZM8.69947 45.6954C8.88891 44.2605 9.09274 42.8279 9.33919 41.4016C9.57066 40.0589 9.76701 38.6527 10.3641 37.4142C10.4321 37.2731 10.6198 37.3589 10.6319 37.4867C10.8449 39.8061 11.0585 42.1248 11.2716 44.4436C11.8998 41.9348 12.7065 39.4715 13.6871 37.0779C13.7453 36.9368 13.971 36.942 13.9692 37.1159C13.9606 37.9289 13.9664 38.742 13.9871 39.555C14.0608 42.4283 14.3211 45.2964 14.765 48.1363C14.7932 48.3176 14.5163 48.3948 14.488 48.2128C14.3625 47.4084 14.2508 46.6017 14.1535 45.7939C13.838 43.1642 13.6825 40.516 13.6802 37.8679C12.7232 40.3013 11.9418 42.802 11.3464 45.3488C11.3067 45.5175 11.0781 45.4616 11.0643 45.3108C10.842 42.8953 10.6198 40.4792 10.3975 38.0637C10.1966 38.5946 10.0612 39.1491 9.94666 39.7053C9.37201 42.4922 9.02825 45.324 8.67356 48.1455C8.6511 48.3269 8.3632 48.3286 8.38623 48.1455C8.4893 47.329 8.59179 46.5119 8.69947 45.696V45.6954ZM7.078 74.8565C7.24325 74.2974 7.60544 73.8143 8.02232 73.4078C8.5463 72.8965 9.1699 72.4842 9.85626 72.2297C10.1695 72.1134 10.5115 72.0293 10.8369 72.1059C11.1012 72.1681 11.324 72.338 11.4829 72.5585C11.7674 72.771 11.9735 73.0894 12.0011 73.4418C12.0299 73.8097 11.8704 74.1696 11.6557 74.4696C11.248 75.0397 10.6451 75.441 10.0198 75.7571C9.33113 76.1055 8.5417 76.3692 7.79603 76.1711C7.51043 76.0951 7.22771 75.9373 7.0947 75.6736C6.96917 75.4243 6.99854 75.1243 7.078 74.8571V74.8565Z" fill="#FEEEE3"/>
<path d="M47.2749 13.403C46.6599 13.9789 46.0225 14.531 45.3597 15.051C45.2031 15.1736 45.0453 15.2946 44.8858 15.4138C44.6912 15.5594 44.5202 15.7218 44.3002 15.5191C43.9553 15.2013 43.6409 14.842 43.3139 14.5057C41.9895 13.1411 40.6652 11.777 39.3402 10.4123C37.8408 8.868 36.3414 7.32311 34.842 5.77822C34.7131 5.64521 34.5098 5.84847 34.6388 5.98148C37.3796 8.80466 40.1199 11.6278 42.8607 14.451C43.2022 14.8028 43.5436 15.1546 43.8851 15.5065C44.0244 15.6498 44.1632 15.7898 44.3192 15.8594C44.1655 24.3756 44.0008 32.8912 43.8333 41.4068C43.6646 49.9926 43.4935 58.5779 43.3289 67.1638C43.2373 71.9303 43.1481 76.6962 43.0617 81.4628C43.0386 81.4743 43.0168 81.4823 42.9926 81.499C42.8532 81.5958 42.7519 81.7409 42.6442 81.8699C42.4962 82.046 42.3477 82.2222 42.1991 82.3979C41.9164 82.7318 41.6331 83.0652 41.3481 83.3969C40.2385 84.6901 39.1105 85.9667 37.9646 87.2277C36.6639 88.6586 35.3395 90.0682 33.9933 91.457C33.9547 91.4967 33.9484 91.5417 33.9582 91.5831C33.9812 91.6804 34.1062 91.7541 34.1966 91.6603C34.2138 91.6424 34.2311 91.624 34.249 91.6056C36.5464 89.2344 38.7794 86.8005 40.9427 84.3067C41.4857 83.6808 42.0241 83.0508 42.5584 82.4169C42.6845 82.2672 42.8106 82.1174 42.9362 81.9672C42.9972 81.8946 43.0553 81.8134 43.1308 81.7553C43.2557 81.6591 43.3075 81.7432 43.3928 81.8365C43.6812 82.1537 43.9703 82.471 44.2588 82.7883C45.4213 84.066 46.5839 85.3431 47.7464 86.6208C49.0455 88.0482 50.3445 89.4751 51.6429 90.9025C51.6493 90.9094 51.6567 90.9123 51.6636 90.9175C51.7886 91.0148 51.9642 90.8288 51.8462 90.6993C51.7903 90.6382 51.7351 90.5772 51.6792 90.5162C49.3455 87.9515 47.0117 85.3875 44.678 82.8228C44.3734 82.4883 44.0688 82.1531 43.7642 81.8186C43.6358 81.6775 43.5056 81.5071 43.349 81.4438C43.5027 72.9345 43.6674 64.4258 43.8344 55.9171C44.0031 47.3313 44.1741 38.746 44.3388 30.1607C44.4298 25.4057 44.5196 20.6507 44.6054 15.8951C44.6716 15.883 44.7402 15.8612 44.8144 15.8162C45.1663 15.6038 45.4893 15.3159 45.8094 15.0591C46.1457 14.7884 46.4756 14.5097 46.7998 14.2241C48.0971 13.0789 49.2936 11.8236 50.4291 10.5194C51.7132 9.04477 52.9206 7.50621 54.1269 5.96766C54.1298 5.9642 54.1327 5.96075 54.135 5.9573C54.2352 5.82947 54.0866 5.65442 53.9726 5.71949C53.9582 5.72755 53.9444 5.73791 53.9323 5.75404C51.8473 8.41484 49.7485 11.0895 47.2743 13.4053L47.2749 13.403Z" fill="#D39E71"/>
<path d="M12.2521 34.1228C13.5517 33.4756 14.3095 31.9831 14.3325 30.5672C14.3452 29.7899 14.1264 29.0241 13.6807 28.3849C13.2701 27.7959 12.7162 27.3295 12.1341 26.9178C11.5237 26.4865 10.7924 26.1491 10.284 25.5911C9.78074 25.0389 9.70704 24.2673 9.94773 23.5793C10.227 22.7806 10.918 22.225 11.6953 21.9399C12.0915 21.7948 12.5089 21.709 12.9298 21.6762C13.2707 21.6497 13.7406 21.6434 13.9225 21.9935C14.0077 22.1576 14.2559 22.0125 14.1707 21.8484C13.8575 21.2444 12.9943 21.3566 12.4415 21.4488C11.7258 21.568 11.0222 21.8461 10.47 22.3257C9.41453 23.243 9.14966 24.9324 10.2253 25.9395C10.774 26.4537 11.4742 26.7934 12.0817 27.2322C12.6765 27.6617 13.2431 28.1667 13.6104 28.8105C14.3964 30.1861 14.0751 32.0379 13.0179 33.1826C12.4934 33.7509 11.7748 34.1436 10.9882 34.1344C10.25 34.1251 9.51069 33.7837 9.12317 33.1388C9.02817 32.9804 8.77942 33.125 8.875 33.2839C9.56136 34.4263 11.1097 34.6929 12.2527 34.1234L12.2521 34.1228Z" fill="#50732B"/>
<path d="M16.2186 33.7785C16.2238 33.7877 16.2313 33.7929 16.237 33.7998C16.2388 33.8021 16.2388 33.805 16.2411 33.8073C16.6942 34.386 17.1894 33.5505 17.4399 33.2119C17.9386 32.5388 18.2524 31.7465 18.4758 30.945C18.7176 30.0784 18.8754 29.1853 19.0297 28.2991C19.1996 27.3237 19.336 26.3391 19.3775 25.3493C19.3976 24.8627 19.3953 24.375 19.362 23.889C19.3337 23.4773 19.317 23.0161 19.0994 22.6522C18.9134 22.3413 18.5541 22.1104 18.1821 22.1944C17.8067 22.2797 17.5113 22.6338 17.2827 22.9205C16.7812 23.5499 16.4599 24.2979 16.233 25.0643C15.9751 25.9349 15.8138 26.8383 15.6958 27.7377C15.5553 28.8064 15.4816 29.8947 15.5271 30.9726C15.568 31.9446 15.7378 32.9217 16.218 33.7785H16.2186ZM15.8703 28.8064C15.9411 27.9203 16.0695 27.0398 16.2537 26.1704C16.4104 25.4333 16.6061 24.694 16.9372 24.0134C17.0979 23.6829 17.289 23.3645 17.5222 23.0794C17.733 22.8215 18.067 22.3862 18.4476 22.4766C18.8616 22.575 18.9883 23.0558 19.0332 23.4203C19.0861 23.8516 19.1028 24.2892 19.1034 24.7234C19.1057 26.4646 18.7919 28.2041 18.4326 29.9022C18.2535 30.7463 18.0307 31.5945 17.6299 32.3632C17.4572 32.6943 17.2413 32.9868 17.0271 33.2908C16.943 33.41 16.8595 33.5344 16.7501 33.6317C16.6315 33.737 16.5555 33.7324 16.4605 33.6202C15.6618 32.1841 15.7436 30.391 15.8708 28.8053L15.8703 28.8064Z" fill="#50732B"/>
<path d="M8.67145 48.1461C9.02673 45.3246 9.36991 42.4928 9.94456 39.7059C10.0591 39.1497 10.1945 38.5952 10.3954 38.0643C10.6177 40.4798 10.8399 42.8959 11.0622 45.3114C11.076 45.4628 11.3046 45.5181 11.3443 45.3494C11.9397 42.8026 12.7217 40.3024 13.6781 37.8685C13.6798 40.5172 13.8359 43.1648 14.1514 45.7945C14.2487 46.6029 14.3604 47.4096 14.4859 48.2134C14.5142 48.3954 14.7911 48.3182 14.7629 48.1368C14.319 45.297 14.0593 42.4289 13.985 39.5556C13.9643 38.7426 13.9585 37.9295 13.9671 37.1165C13.9689 36.9426 13.7426 36.9374 13.685 37.0785C12.7044 39.4727 11.8983 41.9354 11.2695 44.4442C11.0564 42.1254 10.8428 39.8061 10.6298 37.4873C10.6183 37.3595 10.43 37.2737 10.362 37.4148C9.76433 38.6533 9.56856 40.0594 9.33708 41.4022C9.09122 42.8285 8.88738 44.2611 8.69736 45.696C8.58969 46.5119 8.48719 47.329 8.38413 48.1455C8.36109 48.3286 8.64842 48.3269 8.67145 48.1455V48.1461Z" fill="#50732B"/>
<path d="M16.3372 36.9846C16.3424 36.7998 16.0551 36.7998 16.0499 36.9846C15.9716 39.8637 15.9348 42.7444 15.9399 45.6246C15.9417 46.4342 15.9463 47.2432 15.9543 48.0528C15.9561 48.2376 16.2434 48.2382 16.2417 48.0528C16.2129 45.1726 16.2255 42.2918 16.2808 39.4122C16.2964 38.6032 16.3154 37.7936 16.3372 36.9846Z" fill="#50732B"/>
<path d="M18.548 47.785C18.4063 47.7481 18.4403 47.5644 18.4334 47.4504C18.385 46.6357 18.381 45.8192 18.3971 45.0033C18.4293 43.3812 18.5416 41.7615 18.5428 40.1389C18.5428 39.2193 18.5059 38.2997 18.4017 37.3859C18.381 37.2045 18.0937 37.2022 18.1144 37.3859C18.3119 39.1133 18.2629 40.8534 18.1938 42.5872C18.1593 43.4624 18.1196 44.3371 18.1063 45.2129C18.1 45.6326 18.0994 46.0524 18.108 46.4721C18.1167 46.8908 18.1017 47.3364 18.1697 47.7499C18.2491 48.2289 18.8301 48.0452 19.1681 48.0118C19.6616 47.9629 20.155 47.914 20.6479 47.8656C20.8299 47.8477 20.8322 47.5598 20.6479 47.5783C20.2368 47.6186 19.8257 47.6595 19.4146 47.7003C19.2147 47.7199 19.0149 47.7401 18.8157 47.7596C18.742 47.7671 18.6188 47.8034 18.548 47.785Z" fill="#50732B"/>
<path d="M21.832 37.299C21.832 40.0951 21.832 42.8906 21.832 45.6862V48.0516C21.832 48.2364 22.1194 48.237 22.1194 48.0516C22.1194 45.2555 22.1194 42.4599 22.1194 39.6644C22.1194 38.8761 22.1194 38.0873 22.1194 37.299C22.1194 37.1142 21.832 37.1136 21.832 37.299Z" fill="#50732B"/>
<path d="M22.8611 41.564C23.2918 40.8811 23.7225 40.1982 24.1526 39.5153C24.6467 38.7322 25.1407 37.9485 25.6342 37.1654C25.7332 37.0088 25.4845 36.8643 25.386 37.0203C24.4745 38.4668 23.5624 39.9126 22.6503 41.359C22.5438 41.5277 22.4361 41.6953 22.3314 41.8646C22.2461 42.0034 22.1672 42.1542 22.169 42.3212C22.1707 42.4709 22.2415 42.6062 22.3106 42.7341C22.4177 42.9333 22.5294 43.1302 22.6383 43.3289C23.0523 44.0797 23.4657 44.8306 23.8797 45.582C24.3455 46.4267 24.8108 47.2714 25.2766 48.1167C25.3658 48.2785 25.614 48.134 25.5248 47.9716C24.7313 46.5321 23.9384 45.0931 23.145 43.6536C22.9492 43.2989 22.7511 42.946 22.5588 42.5901C22.4592 42.4053 22.431 42.2705 22.5358 42.0822C22.6348 41.9049 22.7517 41.7362 22.8599 41.5646L22.8611 41.564Z" fill="#50732B"/>
<path d="M19.8263 33.7757C21.184 31.5934 22.4111 29.331 23.4993 27.003C23.5114 26.9777 23.5137 26.9529 23.512 26.9293C24.5208 25.0821 25.4513 23.1929 26.2983 21.2663C26.372 21.0987 26.1244 20.9525 26.0502 21.1212C25.2233 23.0029 24.3153 24.8484 23.3329 26.6541C22.631 25.1432 21.9625 23.6173 21.3332 22.0747C21.2641 21.906 20.9865 21.9797 21.0562 22.1513C21.723 23.7872 22.4312 25.4058 23.1786 27.0065C22.1076 29.2821 20.9065 31.4955 19.5781 33.6306C19.4802 33.7878 19.7284 33.9323 19.8263 33.7757Z" fill="#50732B"/>
<path d="M24.2557 72.0541C23.7829 71.7812 23.2497 71.6188 22.7067 71.5606C22.2743 71.5146 21.8246 71.5359 21.425 71.7069C21.2338 71.7886 21.0478 71.9147 20.9643 72.1048C20.8757 72.3063 20.9194 72.5441 21.0116 72.7439C21.2522 73.2662 21.7797 73.5944 22.3071 73.8247C22.7862 74.0337 23.3033 74.1886 23.825 74.1523C24.0996 74.1333 24.3823 74.0539 24.5798 73.8621C24.7687 73.679 24.8539 73.409 24.8407 73.1447C24.8913 72.9483 24.8833 72.7399 24.7935 72.5585C24.6829 72.3351 24.4722 72.179 24.2562 72.0541H24.2557Z" fill="#F8D6B6"/>
<path d="M23.9296 63.7935C23.8168 64.1667 23.807 64.5651 23.8035 64.9521C23.8012 65.2037 23.8047 65.4553 23.8047 65.707C24.0241 65.4928 24.244 65.2791 24.4657 65.0672C24.5469 64.5277 24.4991 63.9715 24.6287 63.44C24.3908 63.5195 24.1553 63.6053 23.9239 63.7008C23.9354 63.7273 23.9406 63.7573 23.9296 63.7935Z" fill="#86AD58"/>
<path d="M22.584 67.3388C23.1581 67.5835 23.7707 67.7447 24.3909 67.8133C24.4116 67.8156 24.4312 67.8213 24.4496 67.83C24.7507 67.4401 25.0346 67.0382 25.2972 66.6219C24.726 66.6081 24.1605 66.4924 23.632 66.2764C23.279 66.6265 22.9295 66.9806 22.584 67.3382V67.3388Z" fill="#86AD58"/>
<path d="M21.402 68.5946C21.1446 68.8739 20.8895 69.1549 20.6367 69.4376C21.2586 69.6455 21.9386 69.6098 22.5726 69.767C22.6019 69.7745 22.6227 69.7894 22.6388 69.8067C22.9169 69.5505 23.1847 69.2833 23.4438 69.0081C22.7643 68.9701 22.0929 68.8422 21.4492 68.6217C21.4302 68.6154 21.4152 68.605 21.402 68.5941V68.5946Z" fill="#86AD58"/>
<path d="M17.1554 71.4259C17.1398 71.4512 17.126 71.4777 17.1128 71.5048L17.1064 71.518C17.1001 71.6608 17.103 71.803 17.1157 71.9441C17.1001 71.8353 17.08 71.7276 17.0621 71.6193L17.0592 71.6268L17.0373 71.6815C17.0224 71.719 17.008 71.757 16.9936 71.7944C16.9469 71.9142 16.9003 72.038 16.8398 72.1525C16.9579 72.3189 17.0765 72.4848 17.1957 72.65C17.1796 72.4721 17.1606 72.2942 17.1381 72.1174C17.1796 72.3857 17.2619 72.6431 17.3955 72.8775C17.4001 72.8688 17.4024 72.8596 17.4087 72.851C17.5619 72.6552 17.7185 72.4623 17.874 72.2677C17.8711 72.2602 17.8665 72.255 17.8642 72.247C17.6828 71.4645 17.4922 70.6693 17.5055 69.8637C17.3684 70.1954 17.2567 70.5363 17.1842 70.8892C17.1594 71.0078 17.1421 71.1293 17.1277 71.2514C17.1744 71.2952 17.1882 71.3717 17.1548 71.4264L17.1554 71.4259Z" fill="#86AD58"/>
<path d="M24.4966 65.4334C24.283 65.6384 24.0717 65.8469 23.8604 66.0542C24.3291 66.2269 24.8196 66.3259 25.32 66.3357C25.3741 66.3369 25.411 66.3634 25.4329 66.3991C25.6027 66.1192 25.7645 65.8354 25.9166 65.5451C25.4669 65.5498 25.0166 65.4841 24.5882 65.3465C24.5577 65.3753 24.5266 65.4041 24.496 65.4329L24.4966 65.4334Z" fill="#86AD58"/>
<path d="M20.4439 69.6553C20.2337 69.8925 20.0247 70.1315 19.8174 70.3716C20.3489 70.6008 20.9552 70.6607 21.5223 70.7228C21.5281 70.7234 21.5333 70.7263 21.539 70.7269C21.8333 70.5017 22.12 70.268 22.3976 70.0227C21.7728 69.8874 21.1089 69.9156 20.5037 69.6968C20.4773 69.6876 20.4588 69.672 20.4433 69.6547L20.4439 69.6553Z" fill="#86AD58"/>
<path d="M18.1585 72.3673C18.0307 72.5268 17.9034 72.6863 17.7773 72.8464C18.1004 72.7214 18.4182 72.5838 18.732 72.4364C18.6693 72.4295 18.6065 72.4232 18.5437 72.4174C18.4165 72.4053 18.2852 72.3944 18.1591 72.3673H18.1585Z" fill="#86AD58"/>
<path d="M19.0868 71.2307C19.335 71.3798 19.6172 71.4748 19.8941 71.4979C19.9747 71.5048 20.034 71.5583 20.0375 71.6412C20.041 71.7144 19.969 71.7909 19.8941 71.7846C19.5417 71.7552 19.2009 71.6458 18.9014 71.4558C18.9014 71.4558 18.9014 71.4558 18.9009 71.4558C18.7201 71.6741 18.5393 71.8917 18.3613 72.1117C18.4298 72.1197 18.4978 72.1261 18.5663 72.1324C18.716 72.1462 18.8721 72.1543 19.0177 72.1946C19.0557 72.205 19.0851 72.2297 19.1024 72.2614C19.8388 71.8906 20.5448 71.4593 21.2127 70.9756C20.6703 70.9128 20.1187 70.8265 19.6229 70.5984C19.4433 70.8086 19.2642 71.0188 19.0868 71.2307Z" fill="#86AD58"/>
<path d="M25.6775 64.3291C25.3937 64.5888 25.1133 64.8525 24.834 65.1168C25.2175 65.2221 25.6119 65.2722 26.0115 65.259C26.0311 65.2584 26.0472 65.2625 26.0628 65.2676C26.2096 64.9728 26.3437 64.6723 26.4704 64.3682C26.205 64.3999 25.9384 64.3878 25.6775 64.3285V64.3291Z" fill="#86AD58"/>
<path d="M22.3823 67.5513C22.122 67.8225 21.8641 68.0948 21.6084 68.3701C22.2182 68.571 22.8498 68.6925 23.4913 68.7248C23.5598 68.7282 23.603 68.7702 23.6208 68.8215C23.8408 68.5808 24.0544 68.3349 24.2583 68.081C23.622 67.9981 23.0047 67.8317 22.414 67.5772C22.4007 67.5714 22.3915 67.5611 22.3823 67.5513Z" fill="#86AD58"/>
<path d="M18.7245 68.0269C18.5161 69.0432 18.6249 70.0998 18.8143 71.1132C18.956 70.9428 19.0959 70.7712 19.2393 70.6019C19.2807 70.553 19.3228 70.5058 19.3642 70.4568C19.3136 70.439 19.2715 70.3964 19.2658 70.3296C19.18 69.262 19.1281 68.1853 19.2819 67.1223C19.0688 67.3688 18.8644 67.6227 18.6704 67.883C18.7107 67.9141 18.7372 67.9636 18.7245 68.0269Z" fill="#86AD58"/>
<path d="M17.8133 69.4889C17.728 70.3359 17.9083 71.165 18.0983 71.9856C18.2566 71.7892 18.4161 71.594 18.5762 71.3994C18.3724 70.3721 18.2422 69.304 18.3954 68.2624C18.1518 68.6136 17.9273 68.9793 17.7344 69.3593C17.7839 69.376 17.8202 69.4192 17.8133 69.4883V69.4889Z" fill="#86AD58"/>
<path d="M19.5902 66.9847C19.4047 68.0614 19.4612 69.1618 19.547 70.2461C19.7663 69.9904 19.9869 69.7359 20.2103 69.4837C20.0479 68.3637 20.0594 67.2334 20.2437 66.1181C19.9978 66.3502 19.7612 66.5914 19.5337 66.8413C19.574 66.8724 19.6011 66.9219 19.5907 66.9847H19.5902Z" fill="#86AD58"/>
<path d="M25.8711 63.2437C25.8584 63.28 25.848 63.3168 25.8406 63.3543L25.8296 63.4147L25.8273 63.4303L25.8256 63.4464C25.8164 63.5304 25.8123 63.6151 25.8089 63.6997C25.8072 63.7423 25.8054 63.785 25.8037 63.8276C26.011 63.6399 26.2171 63.4516 26.4262 63.2667C26.5644 63.1447 26.7682 63.3473 26.6294 63.47C26.4002 63.6727 26.174 63.88 25.9471 64.0855C26.1296 64.108 26.3156 64.1086 26.4895 64.0815C26.5229 64.0763 26.554 64.0809 26.5822 64.0913C26.6196 63.9957 26.6611 63.9024 26.6968 63.8063C26.7619 63.6301 26.8223 63.4262 26.7308 63.2627C26.6006 63.0283 26.2655 63.0347 26.0012 63.0831C25.9477 63.0928 25.8947 63.1061 25.8417 63.117C25.8711 63.1527 25.8872 63.1994 25.8711 63.2437Z" fill="#86AD58"/>
<path d="M24.7818 64.7702C25.0191 64.5468 25.2563 64.3239 25.4964 64.104C25.497 64.1011 25.4981 64.0936 25.4987 64.089L25.5033 64.0452C25.5073 64.0055 25.5096 63.9652 25.5119 63.9249C25.5166 63.8397 25.5183 63.7544 25.5217 63.6692C25.5286 63.5028 25.5373 63.3278 25.5926 63.1694C25.3778 63.2184 25.1647 63.2719 24.954 63.3347C24.9534 63.337 24.954 63.3381 24.9534 63.3404C24.802 63.8005 24.8141 64.2894 24.7812 64.7702H24.7818Z" fill="#86AD58"/>
<path d="M20.5535 65.9897C20.3583 67.0486 20.3278 68.1346 20.4614 69.2033C20.6768 68.9626 20.8927 68.7231 21.1109 68.4852C21.1052 68.4697 21.1 68.4536 21.0994 68.4346C21.0735 67.3025 21.2076 66.1722 21.4927 65.0765C21.1552 65.3229 20.8293 65.5861 20.5173 65.8648C20.546 65.8958 20.5633 65.9379 20.5541 65.9903L20.5535 65.9897Z" fill="#86AD58"/>
<path d="M21.7847 65.0857C21.5152 66.0985 21.3874 67.1384 21.3897 68.1847C21.6183 67.9388 21.848 67.6947 22.0795 67.4523C22.0783 67.4442 22.0755 67.4379 22.0755 67.4292C22.1083 66.4273 22.2482 65.4081 22.4768 64.4276C22.2142 64.583 21.9574 64.7494 21.7064 64.925C21.7634 64.9515 21.8054 65.008 21.7847 65.0863V65.0857Z" fill="#86AD58"/>
<path d="M23.5163 65.9897C23.5325 65.2751 23.4473 64.5283 23.6258 63.8316C23.3511 63.9548 23.0805 64.0867 22.8162 64.2318C22.5772 65.1767 22.4321 66.163 22.3809 67.1396C22.7551 66.7527 23.1329 66.3686 23.5163 65.9897Z" fill="#86AD58"/>
<path d="M17.8738 72.2677C17.7189 72.4617 17.5617 72.6546 17.4086 72.851C17.4017 72.8596 17.3999 72.8688 17.3953 72.8775C17.3234 73.0186 17.5047 73.1907 17.6118 73.0537C17.666 72.984 17.7224 72.9161 17.7765 72.8464C17.9026 72.6857 18.0305 72.5262 18.1577 72.3673C18.2838 72.3938 18.4151 72.4053 18.5423 72.4174C18.6051 72.4232 18.6679 72.4295 18.7306 72.4364C18.7456 72.4381 18.7606 72.4393 18.7755 72.441L18.8009 72.4439L18.8544 72.4525C18.8838 72.4577 18.9126 72.4635 18.9414 72.4715C19.0139 72.4917 19.1009 72.4468 19.1182 72.3713C19.1268 72.3328 19.1205 72.2936 19.1026 72.2614C19.0848 72.2303 19.056 72.2049 19.018 72.1946C18.8723 72.1543 18.7168 72.1462 18.5665 72.1324C18.498 72.1261 18.4301 72.1191 18.3615 72.1117C18.5395 71.8917 18.7203 71.674 18.9011 71.4558C18.9011 71.4558 18.9011 71.4558 18.9016 71.4558C19.2011 71.6458 19.5419 71.7552 19.8943 71.7846C19.9692 71.7909 20.0412 71.7138 20.0377 71.6412C20.0343 71.5583 19.9744 71.5042 19.8943 71.4978C19.6174 71.4748 19.3352 71.3798 19.0871 71.2307C19.2644 71.0188 19.4435 70.8086 19.6231 70.5984C20.1189 70.8265 20.6705 70.9128 21.2129 70.9756C21.3166 70.9877 21.4197 70.9992 21.5221 71.0101C21.5993 71.0188 21.6655 70.9382 21.6655 70.8668C21.6655 70.7885 21.6085 70.7412 21.5388 70.7274C21.5331 70.7263 21.5279 70.724 21.5221 70.7234C20.955 70.6606 20.3481 70.6007 19.8172 70.3721C20.0245 70.132 20.2335 69.8931 20.4437 69.6558C20.4592 69.6731 20.4776 69.6887 20.5041 69.6979C21.1093 69.9161 21.7732 69.8885 22.3979 70.0238C22.4308 70.0307 22.4636 70.0364 22.4964 70.0445C22.6461 70.0819 22.7221 69.896 22.6392 69.8073C22.6231 69.79 22.6024 69.775 22.573 69.7676C21.939 69.6104 21.259 69.6461 20.6371 69.4382C20.8899 69.1549 21.145 68.8739 21.4024 68.5952C21.4156 68.6062 21.4306 68.6165 21.4496 68.6228C22.0933 68.8434 22.7653 68.9706 23.4442 69.0092C23.4597 69.0104 23.4759 69.0127 23.4914 69.0132C23.6071 69.019 23.6503 68.9084 23.621 68.8227C23.6037 68.7714 23.5605 68.7294 23.4914 68.7259C22.8494 68.6937 22.2183 68.5716 21.6085 68.3712C21.8642 68.096 22.1227 67.8236 22.3824 67.5524C22.3916 67.5622 22.4008 67.5726 22.4141 67.5783C23.0048 67.8328 23.6215 67.9992 24.2584 68.0822C24.3033 68.0879 24.347 68.0971 24.3914 68.1017C24.4685 68.1104 24.5348 68.0298 24.5348 67.9584C24.5348 67.8968 24.4991 67.8536 24.4501 67.8311C24.4317 67.8231 24.4121 67.8167 24.3914 67.8144C23.7712 67.7453 23.1592 67.5841 22.5845 67.34C22.93 66.9824 23.2795 66.6283 23.6325 66.2782C24.1611 66.4941 24.7265 66.6093 25.2977 66.6237C25.3052 66.6237 25.3127 66.6248 25.3202 66.6254C25.4509 66.6277 25.4871 66.4866 25.433 66.4014C25.4106 66.3657 25.3743 66.3392 25.3202 66.338C24.8198 66.3283 24.3286 66.2286 23.8605 66.0565C24.0718 65.8486 24.2826 65.6408 24.4968 65.4358C24.5273 65.4064 24.5584 65.3782 24.5889 65.3494C25.0173 65.487 25.4676 65.5526 25.9173 65.548C25.9484 65.548 25.98 65.5503 26.0111 65.5492C26.1758 65.544 26.1931 65.3148 26.0624 65.2705C26.0468 65.2653 26.0307 65.2613 26.0111 65.2619C25.6115 65.2751 25.2171 65.2244 24.8336 65.1196C25.1129 64.8554 25.3933 64.5916 25.6772 64.3319C25.938 64.3912 26.2046 64.4028 26.47 64.3717C26.5017 64.3676 26.534 64.3665 26.5656 64.3613C26.6399 64.3492 26.6877 64.2525 26.6658 64.1845C26.6508 64.1379 26.6198 64.1091 26.5818 64.0941C26.5541 64.0832 26.523 64.0786 26.489 64.0843C26.3152 64.112 26.1297 64.1108 25.9466 64.0884C26.1735 63.8828 26.3992 63.6755 26.629 63.4728C26.7677 63.3502 26.5639 63.1475 26.4257 63.2696C26.2167 63.4544 26.01 63.6427 25.8033 63.8304C25.805 63.7878 25.8067 63.7452 25.8084 63.7026C25.8119 63.6179 25.8159 63.5333 25.8251 63.4492L25.8269 63.4331L25.8292 63.4176L25.8401 63.3571C25.8482 63.3197 25.858 63.2828 25.8706 63.2465C25.8862 63.2022 25.8706 63.1556 25.8413 63.1199C25.8223 63.0968 25.7987 63.0773 25.7704 63.0698C25.691 63.0479 25.6196 63.0968 25.5937 63.17C25.5937 63.1705 25.5937 63.1717 25.5931 63.1728C25.5378 63.3312 25.5292 63.5062 25.5223 63.6726C25.5188 63.7579 25.5165 63.8431 25.5125 63.9283C25.5102 63.9686 25.5079 64.0083 25.5038 64.0486L25.4992 64.0924C25.4987 64.097 25.4975 64.1045 25.4969 64.1074C25.2568 64.3273 25.0196 64.5502 24.7824 64.7736C24.8152 64.2928 24.8025 63.8045 24.9545 63.3439C24.9551 63.3416 24.9545 63.3404 24.9551 63.3381C25.0046 63.1665 24.7346 63.0945 24.6776 63.2679C24.6586 63.326 24.6436 63.3847 24.6292 63.4435C24.4996 63.9749 24.5474 64.5312 24.4662 65.0707C24.244 65.282 24.0246 65.4956 23.8052 65.7104C23.8052 65.4588 23.8018 65.2072 23.8041 64.9555C23.8075 64.5686 23.8173 64.1701 23.9302 63.797C23.9411 63.7613 23.9359 63.7308 23.9244 63.7043C23.8783 63.6007 23.6958 63.5794 23.6532 63.7204C23.6417 63.7584 23.6348 63.797 23.625 63.835C23.4465 64.5317 23.5317 65.2786 23.5156 65.9931C23.1327 66.3714 22.7549 66.7555 22.3801 67.143C22.4313 66.1665 22.5764 65.1807 22.8154 64.2352C22.8194 64.2185 22.8229 64.2012 22.8269 64.1845C22.873 64.0055 22.596 63.9289 22.55 64.108C22.5229 64.2139 22.5016 64.3227 22.4768 64.4298C22.2482 65.4104 22.1083 66.4296 22.0755 67.4315C22.0755 67.4401 22.0784 67.4465 22.0795 67.4545C21.8475 67.6969 21.6177 67.9417 21.3897 68.187C21.3874 67.1407 21.5158 66.1002 21.7847 65.088C21.8054 65.0097 21.7634 64.9532 21.7064 64.9267C21.6333 64.8928 21.5342 64.9106 21.5077 65.0114C21.502 65.0339 21.498 65.0563 21.4922 65.0788C21.2078 66.1745 21.0736 67.3048 21.0989 68.4369C21.0989 68.4564 21.1047 68.4726 21.1104 68.4875C20.8922 68.7253 20.6763 68.9649 20.4609 69.2056C20.3273 68.1369 20.3579 67.0509 20.5531 65.992C20.5629 65.9402 20.545 65.8981 20.5162 65.8665C20.4454 65.7893 20.2997 65.7859 20.2761 65.9154C20.2634 65.9834 20.2536 66.0519 20.2427 66.1204C20.0584 67.2357 20.0469 68.366 20.2093 69.486C19.9865 69.7382 19.7659 69.9927 19.546 70.2483C19.4602 69.1641 19.4038 68.0637 19.5892 66.987C19.6001 66.9242 19.5725 66.8753 19.5322 66.8436C19.4562 66.7849 19.3324 66.7912 19.3122 66.9104C19.3001 66.9818 19.2915 67.0532 19.2811 67.1246C19.1274 68.1875 19.1792 69.2643 19.265 70.3318C19.2702 70.3992 19.3128 70.4412 19.3634 70.4591C19.322 70.5075 19.2794 70.5553 19.2385 70.6042C19.0951 70.7729 18.9558 70.9451 18.8136 71.1155C18.6241 70.1021 18.5147 69.0455 18.7237 68.0292C18.737 67.9659 18.7099 67.9163 18.6696 67.8852C18.5947 67.8277 18.4704 67.8351 18.4468 67.9526C18.4255 68.0563 18.4105 68.1605 18.3955 68.2647C18.2424 69.3069 18.3725 70.3745 18.5763 71.4017C18.4162 71.5963 18.2562 71.7915 18.0984 71.9879C17.9084 71.1673 17.7282 70.3382 17.8134 69.4912C17.8203 69.4215 17.7834 69.3789 17.7345 69.3622C17.6533 69.3345 17.5376 69.3777 17.526 69.4912C17.5134 69.6161 17.507 69.7411 17.5053 69.866C17.4921 70.6716 17.6827 71.4668 17.864 72.2493C17.8658 72.2579 17.871 72.2625 17.8738 72.27V72.2677Z" fill="#50732B"/>
<path d="M10.825 66.6709C11.7256 67.2075 12.6918 67.6158 13.7 67.9002C13.5261 67.6134 13.354 67.3255 13.1841 67.0365C13.1766 67.0353 13.1697 67.0365 13.1617 67.0342C12.2064 66.7284 11.2638 66.3156 10.3828 65.8267C10.4605 66.1215 10.5504 66.414 10.6506 66.7031C10.6903 66.6553 10.7554 66.63 10.825 66.6714V66.6709Z" fill="#86AD58"/>
<path d="M11.3578 68.1029C12.3235 68.5808 13.3605 68.9085 14.4257 69.0726C14.253 68.7996 14.0814 68.5261 13.9127 68.2515C13.8966 68.2526 13.8805 68.2532 13.862 68.2486C12.7657 67.9641 11.7143 67.5254 10.7383 66.9513C10.8828 67.3423 11.0463 67.7275 11.2289 68.1041C11.2663 68.0851 11.3106 68.0799 11.3578 68.1035V68.1029Z" fill="#86AD58"/>
<path d="M12.1708 65.255C11.4879 65.0442 10.7457 64.9221 10.125 64.5594C10.1682 64.8571 10.2212 65.1536 10.288 65.4473C11.1315 65.9356 12.0407 66.3455 12.966 66.6617C12.696 66.1953 12.4305 65.7271 12.1708 65.255Z" fill="#86AD58"/>
<path d="M11.3444 63.702C11.1947 63.4135 11.0456 63.1245 10.8999 62.8337L10.8792 62.8239C10.8763 62.8228 10.8769 62.8228 10.8751 62.8216L10.8481 62.8107C10.8106 62.7963 10.7726 62.7825 10.7346 62.7698C10.654 62.7422 10.5723 62.7168 10.4911 62.6903C10.3322 62.6379 10.1646 62.5827 10.027 62.4842C10.0149 62.7041 10.0086 62.9235 10.0114 63.1435C10.0126 63.1441 10.0137 63.1441 10.0149 63.1446C10.4162 63.4176 10.8907 63.5385 11.3444 63.702Z" fill="#86AD58"/>
<path d="M10.1697 64.2536C10.4979 64.4644 10.8779 64.583 11.2493 64.6924C11.4917 64.7638 11.7353 64.8294 11.9783 64.8985C11.8326 64.6291 11.6869 64.3596 11.5447 64.0884C11.0484 63.8627 10.4991 63.7567 10.0234 63.4861C10.0344 63.736 10.0528 63.9859 10.0816 64.2341C10.1092 64.2306 10.1392 64.2341 10.1703 64.2536H10.1697Z" fill="#86AD58"/>
<path d="M12.0508 69.3018C13.0366 69.7756 14.1105 70.0227 15.1775 70.2369C14.992 69.9559 14.8072 69.6743 14.6258 69.3904C13.5047 69.2407 12.4199 68.9206 11.3984 68.438C11.5539 68.7375 11.7215 69.0305 11.8988 69.3173C11.9391 69.2868 11.9932 69.2741 12.0508 69.3018Z" fill="#86AD58"/>
<path d="M14.857 69.2136C15.0275 69.4802 15.1996 69.7462 15.3735 70.0105C15.7386 69.562 15.962 68.9965 16.1773 68.4679C16.1796 68.4622 16.1837 68.4576 16.1866 68.4518C16.0507 68.1075 15.9044 67.7672 15.7443 67.4332C15.4438 67.9964 15.2895 68.6418 14.914 69.1635C14.8985 69.1848 14.8783 69.201 14.8564 69.213L14.857 69.2136Z" fill="#86AD58"/>
<path d="M10.1718 62.2366C10.2029 62.2585 10.2351 62.2786 10.2691 62.2959L10.3238 62.3229L10.3468 62.3333C10.3503 62.335 10.3497 62.3345 10.352 62.3356C10.3532 62.3356 10.352 62.3356 10.3537 62.3362C10.4326 62.3673 10.5127 62.3955 10.5933 62.422C10.6347 62.4358 10.6762 62.4496 10.7176 62.4629C10.5944 62.2135 10.47 61.9642 10.3497 61.7132C10.2702 61.5473 10.5178 61.4017 10.5979 61.5681C10.7309 61.8456 10.8691 62.1208 11.0055 62.3966C11.0222 62.3569 11.0395 62.3183 11.0539 62.2763C11.0764 62.2095 11.0959 62.1421 11.1121 62.0736C11.1207 62.0368 11.1282 61.9999 11.1351 61.9631L11.1437 61.9112L11.1483 61.8813V61.8744C11.1529 61.8398 11.1656 61.8111 11.184 61.7869C11.1029 61.7247 11.024 61.659 10.9411 61.5986C10.7896 61.488 10.61 61.374 10.4274 61.4172C10.166 61.4782 10.0808 61.8024 10.0549 62.0696C10.0497 62.1237 10.048 62.1778 10.0439 62.232C10.086 62.2141 10.1355 62.2112 10.1718 62.2371V62.2366Z" fill="#86AD58"/>
<path d="M12.8167 70.4199C13.7374 70.899 14.7848 71.0844 15.8121 71.1794C15.6819 70.9894 15.5501 70.8005 15.4217 70.6094C15.3911 70.5639 15.3618 70.5172 15.3313 70.4717C15.3007 70.5149 15.2489 70.5443 15.1827 70.531C14.1324 70.3215 13.0816 70.0773 12.1016 69.6385C12.2801 69.9103 12.4678 70.1758 12.6647 70.4332C12.705 70.4026 12.7591 70.3906 12.8167 70.4205V70.4199Z" fill="#86AD58"/>
<path d="M14.0977 68.0004C14.2957 68.3246 14.4967 68.6471 14.6999 68.9678C15.0696 68.4271 15.2205 67.7638 15.5447 67.1978C15.5602 67.1707 15.5809 67.1551 15.6028 67.1436C15.4324 66.8056 15.2487 66.4751 15.0546 66.1498C14.8324 66.7918 14.5266 67.4022 14.1385 67.9607C14.1264 67.978 14.1126 67.9901 14.0977 67.9998V68.0004Z" fill="#86AD58"/>
<path d="M16.6656 72.3996C16.6581 72.4002 16.6523 72.403 16.6443 72.403C15.8416 72.3633 15.0245 72.3293 14.2529 72.0961C14.5345 72.3184 14.8316 72.5193 15.1512 72.6858C15.7552 73.0007 16.4669 73.1879 17.1204 73.0272C17.1141 73.0209 17.1066 73.0168 17.1009 73.0094C16.954 72.8078 16.8107 72.6034 16.6656 72.4002V72.3996Z" fill="#86AD58"/>
<path d="M13.9747 71.6965C14.7664 72.0109 15.6134 72.0639 16.4552 72.1059C16.3095 71.8998 16.1656 71.693 16.0222 71.4852C14.9794 71.4005 13.9159 71.2341 12.9561 70.8017C13.2273 71.1316 13.5175 71.4478 13.8296 71.7368C13.8589 71.6942 13.9096 71.6706 13.9747 71.6959V71.6965Z" fill="#86AD58"/>
<path d="M16.0003 70.948C16.0481 70.9037 16.0953 70.8587 16.1385 70.8098L16.1771 70.7643L16.1938 70.7436L16.207 70.7269L16.2162 70.7154L16.2358 70.6889L16.2663 70.6457C16.3112 70.5801 16.3521 70.5121 16.3895 70.4419C16.408 70.4067 16.4252 70.371 16.4419 70.3348L16.4529 70.3106C16.4546 70.3065 16.4546 70.3065 16.4557 70.3042C16.4557 70.3031 16.4557 70.3042 16.4563 70.3019L16.4782 70.2467C16.5064 70.1712 16.5732 70.1275 16.655 70.1465C16.7258 70.1626 16.7817 70.2524 16.7552 70.3232C16.6314 70.6532 16.4327 70.952 16.169 71.187C16.1678 71.1875 16.1673 71.1881 16.1661 71.1887C16.3268 71.4225 16.4868 71.6562 16.6498 71.8877L16.6584 71.8658L16.6803 71.8111C16.6953 71.7737 16.7097 71.7357 16.7246 71.6983C16.7788 71.5583 16.8289 71.4104 16.9072 71.2814C16.9279 71.2468 16.9602 71.225 16.9959 71.2163C16.841 70.4067 16.6193 69.6098 16.3366 68.8348C16.1281 69.3392 15.8943 69.8465 15.5391 70.2605C15.6917 70.4908 15.8448 70.7205 16.0003 70.9486V70.948Z" fill="#86AD58"/>
<path d="M11.6929 63.7487C11.8984 63.409 12.0551 63.0433 12.1518 62.6558C12.1564 62.6362 12.165 62.6213 12.1748 62.6074C11.9313 62.3858 11.6785 62.1744 11.4211 61.9689C11.3791 62.2332 11.295 62.4865 11.166 62.7215C11.3382 63.0652 11.515 63.4072 11.6929 63.7487Z" fill="#86AD58"/>
<path d="M13.2138 66.5195C13.6059 66.0341 13.929 65.4905 14.1645 64.913C14.1725 64.8928 14.1841 64.8755 14.1967 64.86C13.9042 64.4638 13.595 64.0804 13.2668 63.7136C13.0969 64.2606 12.8286 64.7667 12.4785 65.2193C12.7192 65.6552 12.9639 66.0888 13.2138 66.5195Z" fill="#86AD58"/>
<path d="M13.3619 66.7722C13.5513 67.0964 13.7431 67.4194 13.9377 67.7407C14.297 67.2098 14.5878 66.6352 14.7939 66.0277C14.8158 65.9626 14.8688 65.9321 14.9229 65.9292C14.7513 65.6517 14.5728 65.3788 14.3845 65.1127C14.1312 65.7012 13.803 66.2494 13.397 66.7463C13.3872 66.7584 13.3746 66.7653 13.3613 66.7716L13.3619 66.7722Z" fill="#86AD58"/>
<path d="M11.9164 64.1828C12.0511 64.4373 12.1899 64.6895 12.3281 64.9423C12.6234 64.541 12.852 64.0913 12.9977 63.6151C13.0138 63.5627 13.0495 63.535 13.0904 63.5229C12.8682 63.2828 12.6384 63.0491 12.4012 62.8239C12.2826 63.2581 12.0966 63.6732 11.8467 64.0469C11.8703 64.0918 11.8927 64.1373 11.9169 64.1828H11.9164Z" fill="#86AD58"/>
<path d="M14.7941 66.0283C14.5879 66.6357 14.2977 67.2104 13.9378 67.7413C13.7432 67.42 13.5515 67.097 13.362 66.7728C13.3753 66.7659 13.3879 66.759 13.3977 66.7475C13.8037 66.25 14.1313 65.7018 14.3852 65.1139C14.4031 65.0724 14.4238 65.0321 14.4411 64.9901C14.4704 64.9181 14.4094 64.8323 14.3409 64.8133C14.281 64.7972 14.2309 64.8197 14.1969 64.8605C14.1837 64.8761 14.1728 64.8939 14.1647 64.9135C13.9292 65.491 13.6056 66.0346 13.214 66.52C12.9647 66.0893 12.7194 65.6557 12.4787 65.2198C12.8288 64.7673 13.0972 64.2611 13.267 63.7141C13.2693 63.7066 13.2728 63.6997 13.2751 63.6917C13.3131 63.5667 13.1876 63.4947 13.0908 63.5229C13.0499 63.535 13.0142 63.5627 12.9981 63.6151C12.8524 64.0913 12.6244 64.541 12.3285 64.9423C12.1903 64.6895 12.0515 64.4373 11.9167 64.1828C11.8931 64.1379 11.8701 64.0924 11.8465 64.0469C12.0964 63.6727 12.2824 63.2575 12.401 62.8239C12.4096 62.7934 12.42 62.7635 12.4281 62.7329C12.4678 62.5729 12.253 62.4963 12.1741 62.6086C12.1643 62.6224 12.1563 62.6374 12.1511 62.6569C12.0549 63.0439 11.8983 63.4095 11.6922 63.7498C11.5143 63.4089 11.3375 63.0669 11.1653 62.7226C11.2937 62.4876 11.3778 62.2343 11.4204 61.97C11.4256 61.9383 11.4331 61.9067 11.4365 61.8744C11.4457 61.7996 11.364 61.7276 11.2932 61.731C11.2442 61.7333 11.2091 61.7552 11.1843 61.7875C11.1659 61.8116 11.1532 61.8404 11.1492 61.875V61.8819L11.1446 61.9118L11.136 61.9637C11.129 62.0011 11.1216 62.0379 11.1129 62.0742C11.0968 62.1427 11.0772 62.2107 11.0548 62.2769C11.0404 62.3189 11.0231 62.3581 11.0064 62.3972C10.8699 62.1214 10.7317 61.8462 10.5987 61.5687C10.5187 61.4022 10.2711 61.5474 10.3506 61.7138C10.4709 61.9648 10.5953 62.2136 10.7185 62.4635C10.677 62.4502 10.6356 62.4358 10.5941 62.4226C10.5135 62.3961 10.4335 62.3679 10.3546 62.3368C10.3529 62.3362 10.3534 62.3368 10.3529 62.3362C10.3511 62.3351 10.3511 62.3356 10.3477 62.3339L10.3246 62.3235L10.2699 62.2965C10.236 62.2786 10.2037 62.259 10.1726 62.2372C10.1364 62.2113 10.0868 62.2136 10.0448 62.232C10.016 62.2441 9.9901 62.2631 9.97628 62.289C9.93713 62.3627 9.96246 62.4387 10.0275 62.4853C10.1651 62.5832 10.3327 62.6385 10.4916 62.6915C10.5728 62.7185 10.654 62.7433 10.7352 62.7709C10.7732 62.7842 10.8112 62.7974 10.8486 62.8118L10.8757 62.8228C10.8757 62.8228 10.8768 62.8233 10.8797 62.8251L10.9005 62.8349C11.0461 63.1256 11.1953 63.4147 11.345 63.7032C10.8912 63.5396 10.4168 63.4187 10.0154 63.1458C10.0143 63.1452 10.0131 63.1452 10.012 63.1446C9.85997 63.0468 9.71947 63.2915 9.87033 63.394C9.92043 63.4279 9.97225 63.4579 10.0241 63.4872C10.4991 63.7579 11.049 63.8638 11.5454 64.0895C11.6882 64.3607 11.8333 64.6302 11.9789 64.8997C11.7359 64.8306 11.4924 64.765 11.25 64.6936C10.8786 64.5842 10.4985 64.4655 10.1703 64.2548C10.1392 64.2346 10.1093 64.2318 10.0817 64.2352C9.96937 64.2502 9.90085 64.4229 10.0252 64.503C10.058 64.5237 10.0926 64.541 10.126 64.56C10.7467 64.9227 11.4889 65.0448 12.1718 65.2555C12.4309 65.7277 12.697 66.1958 12.967 66.6622C12.0417 66.3461 11.1331 65.9361 10.2889 65.4479C10.2734 65.4386 10.2573 65.4312 10.2417 65.422C10.0817 65.3287 9.93713 65.5768 10.0966 65.6701C10.1905 65.7248 10.2889 65.7743 10.384 65.8273C11.2649 66.3162 12.2075 66.729 13.1628 67.0348C13.1709 67.0371 13.1772 67.0359 13.1853 67.0371C13.3551 67.3261 13.5273 67.614 13.7012 67.9008C12.6935 67.6169 11.7267 67.2081 10.8262 66.6715C10.7571 66.63 10.692 66.6553 10.6517 66.7031C10.5999 66.7653 10.5912 66.8661 10.6811 66.9196C10.7001 66.9311 10.7202 66.9404 10.7392 66.9519C11.7152 67.5259 12.7666 67.9647 13.863 68.2492C13.8814 68.2538 13.8975 68.2532 13.9136 68.252C14.0824 68.5273 14.2539 68.8008 14.4267 69.0731C13.362 68.9096 12.3244 68.582 11.3588 68.1035C11.3116 68.0799 11.2667 68.0856 11.2298 68.1041C11.1371 68.1513 11.0956 68.2923 11.2143 68.3511C11.2759 68.3816 11.3381 68.4092 11.4003 68.4386C12.4217 68.9211 13.5066 69.2413 14.6276 69.391C14.809 69.6749 14.9939 69.9564 15.1793 70.2374C14.1123 70.0232 13.0378 69.7762 12.0526 69.3023C11.9951 69.2747 11.9415 69.2879 11.9006 69.3179C11.824 69.3749 11.7981 69.4981 11.9075 69.5505C11.972 69.5816 12.0382 69.6092 12.1033 69.6386C13.0833 70.0779 14.1342 70.3215 15.1844 70.5311C15.2507 70.5443 15.3019 70.515 15.333 70.4718C15.3635 70.5173 15.3929 70.5639 15.4234 70.6094C15.5512 70.8006 15.6837 70.9894 15.8138 71.1794C14.7866 71.0844 13.7392 70.8996 12.8185 70.4199C12.7615 70.39 12.7068 70.4027 12.6664 70.4326C12.5916 70.489 12.5663 70.6123 12.6734 70.6681C12.7666 70.7165 12.8622 70.7591 12.9578 70.8023C13.9177 71.2347 14.9812 71.4011 16.024 71.4858C16.1673 71.6931 16.3119 71.9003 16.457 72.1065C15.6152 72.0645 14.7681 72.0115 13.9764 71.6971C13.9113 71.6712 13.8607 71.6948 13.8313 71.738C13.7829 71.8088 13.7939 71.932 13.8998 71.974C14.0167 72.0201 14.1348 72.0604 14.2534 72.0961C15.025 72.3299 15.842 72.3633 16.6447 72.403C16.6528 72.403 16.6585 72.4007 16.666 72.3996C16.8111 72.6028 16.9539 72.8072 17.1013 73.0088C17.1071 73.0168 17.1146 73.0203 17.1209 73.0266C17.236 73.1383 17.4525 73.0053 17.3495 72.8637C17.2977 72.7928 17.2481 72.7209 17.1963 72.65C17.0765 72.4848 16.9585 72.319 16.8405 72.1525C16.9009 72.038 16.9476 71.9147 16.9942 71.7944C17.0086 71.757 17.0236 71.719 17.038 71.6815L17.0598 71.6268L17.0627 71.6194L17.0719 71.5975L17.0765 71.5865L17.0812 71.5762L17.0927 71.5497L17.1071 71.518L17.1134 71.5048C17.1266 71.4777 17.1405 71.4512 17.156 71.4259C17.1894 71.3712 17.1756 71.2946 17.1289 71.2508C17.1209 71.2434 17.1146 71.2347 17.1048 71.2295C17.0702 71.2111 17.0316 71.2071 16.9965 71.2157C16.9608 71.2244 16.9291 71.2462 16.9078 71.2808C16.8295 71.4098 16.7794 71.5577 16.7253 71.6977C16.7109 71.7357 16.6959 71.7731 16.681 71.8105L16.6591 71.8652L16.6505 71.8871C16.4875 71.6556 16.3268 71.4213 16.1668 71.1881C16.1679 71.1875 16.1685 71.1869 16.1697 71.1863C16.4334 70.9514 16.632 70.6526 16.7558 70.3226C16.7823 70.2524 16.7265 70.162 16.6556 70.1459C16.5739 70.1274 16.5071 70.1706 16.4789 70.2461L16.457 70.3013C16.457 70.3013 16.457 70.3025 16.4564 70.3036C16.4553 70.3059 16.4553 70.3054 16.4535 70.31L16.4426 70.3342C16.4265 70.3704 16.4086 70.4061 16.3902 70.4413C16.3533 70.5115 16.3125 70.58 16.267 70.6451L16.2364 70.6883L16.2169 70.7148L16.2077 70.7263L16.1944 70.743L16.1777 70.7637L16.1391 70.8092C16.0959 70.8581 16.0487 70.903 16.0009 70.9474C15.8455 70.7188 15.6923 70.489 15.5397 70.2593C15.895 69.8453 16.1288 69.338 16.3372 68.8336C16.3769 68.7369 16.4167 68.6401 16.4558 68.5445C16.4852 68.4726 16.4242 68.3868 16.3556 68.3678C16.2796 68.347 16.2203 68.3891 16.1881 68.4524C16.1852 68.4582 16.1812 68.4628 16.1789 68.4685C15.9635 68.9971 15.7401 69.5626 15.375 70.0111C15.2011 69.7468 15.029 69.4808 14.8585 69.2142C14.8804 69.2021 14.9006 69.186 14.9161 69.1647C15.2915 68.643 15.4459 67.9981 15.7464 67.4344C15.7626 67.4039 15.7775 67.3728 15.7942 67.3434C15.8708 67.2098 15.713 67.0901 15.6048 67.1448C15.5829 67.1557 15.5622 67.1718 15.5466 67.1989C15.2225 67.7649 15.071 68.4277 14.7019 68.9689C14.4987 68.6482 14.2983 68.3257 14.0996 68.0016C14.1146 67.9918 14.1284 67.9791 14.1405 67.9624C14.5286 67.4045 14.8344 66.7935 15.0566 66.1515C15.0618 66.1359 15.0687 66.1216 15.0739 66.106C15.1113 65.996 15.0163 65.9258 14.9259 65.931C14.8718 65.9338 14.8188 65.9644 14.7969 66.0294L14.7941 66.0283Z" fill="#50732B"/>
<path d="M24.1947 76.1504C24.0352 75.9298 23.8129 75.76 23.5486 75.6984C23.2233 75.6218 22.8818 75.7059 22.568 75.8222C21.8822 76.0767 21.2581 76.4895 20.7341 77.0003C20.3166 77.4074 19.9544 77.8905 19.7898 78.4496C19.7109 78.7173 19.6815 79.0167 19.807 79.2661C19.9395 79.5298 20.2228 79.6876 20.5078 79.7636C21.2535 79.9616 22.0435 79.6973 22.7316 79.3496C23.3569 79.0334 23.9598 78.6321 24.3674 78.0621C24.5822 77.7621 24.7417 77.4022 24.7129 77.0342C24.6853 76.6824 24.4791 76.364 24.1947 76.151V76.1504Z" fill="#F8D6B6"/>
<path d="M7.794 76.1711C8.53967 76.3692 9.3291 76.1049 10.0178 75.7571C10.6431 75.441 11.246 75.0391 11.6536 74.4696C11.8684 74.1696 12.0279 73.8097 11.9991 73.4418C11.9715 73.09 11.7653 72.7715 11.4809 72.5585C11.322 72.338 11.0991 72.1681 10.8348 72.1059C10.5095 72.0293 10.1675 72.1134 9.85424 72.2297C9.16788 72.4842 8.54428 72.8965 8.0203 73.4078C7.60284 73.8149 7.24066 74.2974 7.07597 74.8565C6.99709 75.1243 6.96772 75.4237 7.09267 75.673C7.22568 75.9367 7.50841 76.0945 7.794 76.1705V76.1711Z" fill="#F8D6B6"/>
<path d="M21.4005 74.6844C21.4005 74.1103 20.4331 73.8328 19.5072 73.8328C18.5813 73.8328 17.8311 74.2986 17.8311 74.8727C17.8311 75.4468 18.5813 75.9126 19.5072 75.9126C20.4331 75.9126 21.4005 75.259 21.4005 74.6844Z" fill="#F8D6B6"/>
<path d="M16.5204 74.2565C16.5204 73.861 15.8536 73.6698 15.2156 73.6698C14.5776 73.6698 14.0605 73.9905 14.0605 74.3867C14.0605 74.7828 14.5776 75.103 15.2156 75.103C15.8536 75.103 16.5204 74.6527 16.5204 74.2571V74.2565Z" fill="#F8D6B6"/>
<path d="M12.6606 77.7241C11.8608 77.2577 10.9781 77.2813 10.6891 77.777C10.3995 78.2728 10.8135 79.053 11.6127 79.52C12.4119 79.9864 13.5773 79.9098 13.8664 79.4135C14.156 78.9177 13.4599 78.1905 12.6606 77.7241Z" fill="#F8D6B6"/>
<path d="M13.3528 76.2885C13.7743 75.8596 13.8382 75.2394 13.4956 74.9032C13.1536 74.5669 12.5346 74.6417 12.1131 75.0701C11.6916 75.4991 11.6409 76.33 11.9836 76.6663C12.3256 77.0025 12.9313 76.7169 13.3528 76.2885Z" fill="#F8D6B6"/>
<path d="M16.6869 76.1533C15.761 76.1533 15.0107 76.6185 15.0107 77.1932C15.0107 77.7678 15.761 78.2325 16.6869 78.2325C17.6128 78.2325 18.3631 77.7672 18.3631 77.1932C18.3631 76.6191 17.6128 76.1533 16.6869 76.1533Z" fill="#F8D6B6"/>
</g>
<defs>
<clipPath id="clip0_236_171989">
<rect width="54.2121" height="92" fill="white" transform="translate(0.0859375)"/>
</clipPath>
</defs>
</svg>
