<svg width="81" height="92" viewBox="0 0 81 92" fill="none" xmlns="http://www.w3.org/2000/svg">
<g clip-path="url(#clip0_258_178803)">
<path d="M68.4888 68.3879C84.1319 52.7447 84.1319 27.3822 68.4888 11.7391C52.8457 -3.90404 27.4831 -3.90404 11.84 11.7391C-3.80311 27.3822 -3.80311 52.7447 11.84 68.3879C27.4831 84.031 52.8457 84.031 68.4888 68.3879Z" fill="url(#paint0_linear_258_178803)"/>
<path d="M67.9042 67.803C83.2243 52.4829 83.2243 27.6441 67.9042 12.3239C52.584 -2.99619 27.7452 -2.99619 12.4251 12.3239C-2.89504 27.6441 -2.89504 52.4829 12.4251 67.803C27.7452 83.1231 52.584 83.1231 67.9042 67.803Z" fill="url(#paint1_linear_258_178803)"/>
<g style="mix-blend-mode:lighten" opacity="0.65">
<path d="M32.703 2.28211C11.8382 6.4024 -1.73795 26.6578 2.38233 47.5242C6.50262 68.3907 26.758 81.9651 47.6244 77.8449C68.4909 73.7246 82.0654 53.4692 77.9451 32.6027C73.8248 11.738 53.5694 -1.83817 32.703 2.28211ZM47.4151 76.7848C27.1344 80.7903 7.44618 67.5956 3.44068 47.3132C-0.56314 27.0342 12.6316 7.34596 32.9123 3.34046C53.193 -0.665047 72.8812 12.5297 76.8867 32.8121C80.8923 53.0928 67.6975 72.781 47.4151 76.7865V76.7848Z" fill="white"/>
</g>
<path d="M40.164 76.6465C60.3682 76.6465 76.7469 60.2677 76.7469 40.0635C76.7469 19.8593 60.3682 3.48059 40.164 3.48059C19.9598 3.48059 3.58105 19.8593 3.58105 40.0635C3.58105 60.2677 19.9598 76.6465 40.164 76.6465Z" fill="url(#paint2_linear_258_178803)"/>
<path d="M64.3164 64.2152C77.655 50.8766 77.655 29.2504 64.3164 15.9118C50.9778 2.57316 29.3516 2.57317 16.013 15.9118C2.67441 29.2504 2.67441 50.8766 16.013 64.2152C29.3516 77.5538 50.9778 77.5538 64.3164 64.2152Z" fill="#DDC9AC"/>
<path d="M71.6119 33.6763C72.2854 37.0893 72.4053 40.4686 72.0356 43.7483C70.4607 57.5523 60.144 69.373 45.7762 72.2105C28.0071 75.7197 10.7529 64.1556 7.24365 46.3865C6.77609 44.0167 6.57016 41.6502 6.62755 39.3292C6.93138 24.244 17.6667 10.8839 33.0659 7.84391C50.8451 4.33297 68.0993 15.8971 71.6102 33.6763H71.6119Z" fill="#F9DDAF"/>
<path style="mix-blend-mode:color-burn" opacity="0.35" d="M42.5031 17.9598L38.9551 20.4444C40.0809 19.5549 41.2456 18.635 42.5031 17.9598Z" fill="url(#paint3_linear_258_178803)"/>
<path d="M70.9822 47.3825C70.4994 50.0393 69.6656 52.632 68.457 55.1031C64.9613 62.228 58.8931 67.9687 51.5589 71.0036C48.87 72.1261 46.0191 72.8739 43.1276 73.2486C26.3663 75.4311 10.4759 64.1776 6.9076 47.6576C6.35564 45.0852 6.11089 42.5178 6.17503 40.0112C7.98789 46.0338 13.494 55.7918 20.1546 59.5981C24.7796 62.2415 31.3255 63.6847 36.0382 63.3893C37.4426 63.2981 38.8942 63.0551 40.3358 62.7057C44.1336 61.7688 47.9417 60.0438 51.142 58.1313C58.6618 53.6481 62.1829 43.0495 59.8181 34.6182C57.4533 26.1886 49.3494 20.0613 40.7139 18.5607C37.3143 17.9733 33.6886 18.1202 30.5254 19.4452C29.8755 19.7051 29.2476 20.014 28.6535 20.3837C25.0007 22.6152 22.5988 26.6359 21.9236 30.8608C21.2602 35.0959 22.2038 39.4845 24.1719 43.2976C24.4572 43.8546 24.7864 44.4134 25.1425 44.9451C27.8314 48.9776 32.3602 52.1222 36.9177 50.8714C40.0741 50.0072 42.4119 47.1596 43.4028 44.0319C44.5809 40.2981 43.8855 35.7829 40.9282 33.2155C37.8089 30.4945 35.0322 31.9495 31.6631 32.7901C28.775 33.5143 27.3419 31.9681 27.4044 29.6252C27.4263 28.9636 27.5698 28.2462 27.8162 27.4967C27.9259 27.1693 28.0627 26.857 28.2213 26.5532C28.2298 26.5413 28.2281 26.5295 28.2365 26.5177C28.9691 25.0154 30.1422 23.7562 31.55 22.843C36.3674 19.7473 42.8879 20.3516 47.4285 23.6701C51.2939 26.5076 53.6435 31.1933 53.9946 35.977C54.95 48.986 45.9566 55.6213 36.8282 56.8873C36.0602 56.9835 35.2803 57.0291 34.5073 56.9953C19.8829 56.3708 13.575 46.0929 12.1234 39.2432C9.40745 26.4283 18.3181 17.7421 27.1326 13.166C27.2913 13.0799 27.4516 13.004 27.6221 12.9263C36.4383 8.58156 49.6482 8.69803 57.4853 14.4708C62.3787 18.0797 66.6576 22.2354 68.9111 27.9947C71.3147 34.1304 72.1857 40.9176 70.9889 47.3808L70.9822 47.3825Z" fill="#EFCA9A"/>
<path d="M72.5541 39.5824C72.6233 41.9 72.4579 44.2175 72.041 46.4946C71.5532 49.148 70.7193 51.7424 69.5175 54.2102C66.0201 61.3418 59.9536 67.0741 52.6144 70.1124C49.9272 71.2298 47.0762 71.9826 44.1864 72.354C27.4184 74.5365 11.5297 63.2846 7.96136 46.763C7.40771 44.1888 7.16465 41.6265 7.22879 39.1216C9.03996 45.1408 14.5444 54.9023 21.2135 58.7069C25.8351 61.3435 32.3809 62.7884 37.092 62.4997C38.4997 62.4018 39.9514 62.1604 41.3912 61.8127C45.1891 60.8725 48.9937 59.1458 52.1958 57.2401C57.8301 53.8878 61.2212 47.0938 61.569 40.3488C61.655 38.7233 61.5588 37.0995 61.2769 35.528C61.174 34.9152 61.0372 34.311 60.8752 33.7202C60.4904 32.3681 59.9637 31.0735 59.3088 29.8565C57.6985 26.8232 55.3151 24.2221 52.4929 22.1881C49.3229 19.906 45.5976 18.3295 41.7727 17.6661C38.3698 17.0821 34.7474 17.2205 31.5775 18.5506C30.9344 18.8139 30.298 19.1194 29.7123 19.4874C26.0511 21.7189 23.6576 25.7412 22.9841 29.9662C22.3207 34.1979 23.2609 38.5916 25.2325 42.403C25.5143 42.9617 25.8418 43.5204 26.198 44.0454C28.8919 48.0846 33.4156 51.2293 37.9731 49.9768C41.1262 49.1109 43.464 46.2633 44.4531 43.1322C45.6313 39.4035 44.9393 34.8882 41.9837 32.3192C38.8627 29.5931 36.0877 31.0532 32.7135 31.8921C29.8304 32.6146 28.3974 31.0735 28.4581 28.7306C28.4801 28.0672 28.6286 27.3515 28.8683 26.5987C28.9831 26.2696 29.1131 25.9624 29.2785 25.6602C29.2835 25.6417 29.2819 25.6332 29.2886 25.6214C30.0229 24.1208 31.1909 22.8616 32.602 21.9501C37.4178 18.8493 43.9434 19.457 48.4806 22.7704C50.5517 24.2947 52.1941 26.3455 53.3183 28.653C54.2922 30.6549 54.8897 32.8593 55.0467 35.0773C55.0839 35.5854 55.1109 36.085 55.1075 36.5745C55.2948 48.5961 46.6509 54.774 37.8769 55.9927C37.1106 56.0906 36.3324 56.1345 35.5576 56.099C20.9366 55.4728 14.6254 45.1932 13.1737 38.3435C10.4545 25.5302 19.3702 16.8407 28.1864 12.2731C28.3417 12.1887 28.4986 12.1127 28.6725 12.0334C37.4887 7.69031 50.6986 7.80171 58.534 13.5796C59.6531 14.3965 60.7334 15.2506 61.7681 16.1385C65.2723 19.1582 68.2212 22.6506 69.9665 27.1017C71.5279 31.0752 72.4394 35.322 72.5575 39.5791L72.5541 39.5824Z" fill="#FFEFCC"/>
<g style="mix-blend-mode:color-burn">
<path d="M32.7094 31.8989C36.0785 31.0583 38.8552 29.6016 41.9745 32.3243C42.4134 32.7058 42.7864 33.1396 43.1274 33.5987C42.9434 31.1562 41.9813 28.81 40.1448 27.2148C37.0255 24.4939 34.2488 25.9489 30.8797 26.7895C30.061 26.9954 29.3656 27.0089 28.7815 26.8823C27.7823 30.189 29.1174 32.8003 32.7094 31.8989Z" fill="url(#paint4_linear_258_178803)"/>
<path d="M69.9625 27.1068C69.792 26.6713 69.5877 26.2611 69.3936 25.8425C70.7862 30.8996 71.1558 36.2403 70.2089 41.3835C69.7211 44.0319 68.8889 46.6263 67.6787 49.0991C64.188 56.2273 58.1232 61.9613 50.7873 65.003C48.0917 66.1204 45.2475 66.8715 42.3544 67.2479C27.9258 69.1232 14.1453 61.038 8.31348 48.2129C12.4709 63.9362 27.919 74.4724 44.1841 72.3574C47.0772 71.9809 49.9214 71.2298 52.6171 70.1124C59.9529 67.0707 66.0177 61.3367 69.5084 54.2085C70.7187 51.7357 71.5508 49.1413 72.0386 46.4929C73.2303 40.0247 72.3678 33.2357 69.9625 27.1051V27.1068Z" fill="url(#paint5_linear_258_178803)"/>
</g>
<path d="M26.9606 38.752C27.7387 41.9472 29.1617 45.3046 32.0717 46.8339C34.9328 48.3378 38.8893 47.4145 40.6465 44.7003C42.4036 41.9861 41.5208 37.8641 38.7222 36.247C36.749 35.1077 34.2998 35.2343 32.1477 34.4899C28.6519 33.2796 27.1243 30.2244 26.412 26.8654C24.8861 30.1468 26.1487 35.4216 26.9606 38.752Z" fill="#FFEFCC"/>
<path style="mix-blend-mode:color-burn" d="M41.5194 61.8076C41.4755 61.806 41.4334 61.8144 41.3895 61.811C45.1874 60.8742 48.9954 59.1491 52.1957 57.2367C59.7155 52.7535 63.2366 42.1548 60.8718 33.7235C58.507 25.2939 50.4031 19.1667 41.7676 17.6661C38.368 17.0787 34.7423 17.2255 31.5791 18.5506C31.6281 18.4088 31.6567 18.3379 31.6567 18.3379C31.6567 18.3379 44.0666 10.9632 57.2342 20.4006C70.4019 29.8379 68.7494 60.2598 41.5211 61.806L41.5194 61.8076Z" fill="url(#paint6_linear_258_178803)"/>
<path style="mix-blend-mode:color-burn" d="M37.877 55.9944C37.109 56.0906 36.3291 56.1362 35.5561 56.1024C20.9317 55.4779 14.6238 45.1999 13.1722 38.3502C10.4562 25.5353 19.3669 16.8491 28.1814 12.2731C28.3401 12.187 28.5004 12.1111 28.6709 12.0351C25.7322 14.4438 14.1714 24.6711 16.2138 35.0148C18.555 46.8744 23.683 54.8803 37.5765 55.9674C37.6778 55.9809 37.7757 55.9826 37.877 55.9961V55.9944Z" fill="url(#paint7_linear_258_178803)"/>
<path style="mix-blend-mode:overlay" opacity="0.5" d="M31.7241 42.2561C32.4331 43.5879 33.5184 44.7796 34.9312 45.3096C36.344 45.8397 38.1012 45.5848 39.1022 44.4555C40.466 42.9178 39.9512 40.3606 38.5299 38.8769C37.1087 37.3932 35.0545 36.7281 33.0762 36.1677C32.5462 36.0175 32.001 35.8706 31.4524 35.9246C28.5136 36.22 31.0388 40.9682 31.7241 42.2561Z" fill="url(#paint8_linear_258_178803)"/>
<g style="mix-blend-mode:lighten" opacity="0.65">
<path d="M46.492 49.8334C46.492 49.8334 53.3349 44.9282 53.367 36.848C53.4024 28.0183 47.6668 21.832 42.8747 22.5038C38.0826 23.1756 39.5005 24.8112 43.2038 27.6368C46.9072 30.4625 52.8572 41.1894 46.492 49.8317V49.8334Z" fill="white"/>
</g>
<path d="M44.115 10.0839C44.115 10.0839 57.3012 10.3522 65.2734 21.6379C73.2473 32.9218 66.8432 46.9082 66.8432 46.9082C66.8432 46.9082 75.3049 19.7929 44.1133 10.0839H44.115Z" fill="white"/>
<path d="M27.8878 16.5723C27.8878 16.5723 16.3945 24.1765 19.9983 35.5027C23.6021 46.8288 29.2297 49.0012 29.2297 49.0012C29.2297 49.0012 3.86658 34.8579 27.8878 16.5723Z" fill="white"/>
<path style="mix-blend-mode:overlay" opacity="0.5" d="M21.1455 61.4042C21.1455 61.4042 37.8258 74.5263 58.4205 58.9685C58.4205 58.9685 40.7865 69.427 21.1455 61.4042Z" fill="url(#paint9_linear_258_178803)"/>
<g style="mix-blend-mode:lighten" opacity="0.65">
<path d="M72.5543 39.5824C72.5475 39.5926 72.5391 39.5943 72.5323 39.6044C71.2698 40.5766 69.3404 39.4035 68.9269 37.9958C68.5133 36.5863 68.9235 35.052 68.6298 33.6105C68.38 32.3952 67.0482 31.1326 65.8143 31.7453C64.9737 32.1555 64.7779 33.1784 64.8994 34.0223C65.0682 35.29 65.7012 36.4378 66.1215 37.6464C66.5503 38.8532 66.7494 40.2323 66.1013 41.3902C65.4447 42.5499 63.6689 43.252 62.5633 42.5043C61.8459 42.0317 61.6434 41.186 61.5691 40.3521C61.5438 40.1766 61.537 40.0061 61.5235 39.8458C61.4476 38.4059 61.3615 36.9695 61.2771 35.5314C61.2315 34.6097 61.1741 33.6814 61.1184 32.7631C61.0813 32.0289 61.0323 31.271 60.6222 30.6566C60.3403 30.2329 59.8339 29.9088 59.309 29.8599C59.0676 29.8261 58.8194 29.848 58.5865 29.9493C57.6193 30.3578 57.5619 31.5782 57.67 32.5336C57.9299 34.9034 58.1898 37.2716 58.4498 39.6415C58.5595 40.6577 58.335 42.0755 57.2159 42.1785C56.144 42.2815 55.6748 41.056 55.5566 40.0854C55.4081 38.9225 55.2579 37.751 55.1076 36.5796C54.9321 35.187 54.7566 33.7945 54.581 32.4019C53.3252 32.2162 52.4322 33.6847 52.5504 34.8359C52.6686 35.9871 53.3336 37.0657 53.2745 38.2253C53.2053 39.3866 51.7723 40.6357 50.7409 39.9892C49.7957 39.4086 50.2514 38.0616 50.5924 37.037C51.6052 34.0274 50.5468 30.5874 48.0031 28.5871C47.3076 28.0386 46.494 27.5761 45.9522 26.8958C45.4104 26.2088 45.2095 25.191 45.8054 24.504C46.6375 23.5452 48.3592 23.8997 49.2488 24.7454C50.1316 25.6012 50.5519 26.7726 51.379 27.6672C51.8583 28.177 52.5977 28.5736 53.3184 28.658C53.8636 28.7222 54.3936 28.6175 54.8123 28.2631C56.0782 27.2182 55.0131 25.3952 53.9109 24.2947C53.3269 23.714 52.7496 22.9426 52.493 22.1898C52.2685 21.5113 52.3175 20.8428 52.8897 20.3145C53.8602 19.4182 55.5668 19.9212 56.4175 20.8462C57.2682 21.7712 57.648 23.0068 58.4582 23.9571C59.2701 24.9175 60.899 25.5252 61.9624 24.7285C63.2874 23.7529 62.4755 21.8809 61.5624 20.6436C60.6424 19.4165 59.7765 17.5918 61.034 16.547C61.2737 16.3461 61.5202 16.2162 61.7666 16.1402C65.2708 19.1599 68.2196 22.6523 69.965 27.1034C71.5263 31.0769 72.4378 35.3237 72.556 39.5808L72.5543 39.5824Z" fill="white"/>
</g>
<path d="M45.3271 69.5436C45.8032 69.3444 46.2741 69.1216 46.7332 68.8684C50.1732 66.9846 52.16 64.7228 53.112 62.4407C51.9473 65.1194 48.8938 67.9974 45.3271 69.5419V69.5436Z" fill="#DBA052"/>
<path d="M34.6523 69.8153C36.5125 70.5664 38.6646 70.8618 40.8606 70.661C38.4384 70.8078 36.3555 70.4736 34.6523 69.8153Z" fill="#DBA052"/>
<path d="M42.8288 48.7058C43.4044 48.6805 43.9783 48.6923 44.5488 48.748C43.9159 48.6788 43.2626 48.6653 42.5908 48.7109C42.6634 48.7075 42.741 48.7058 42.8288 48.7058Z" fill="#DBA052"/>
<path d="M28.9404 60.697C29.0063 65.506 32.7704 70.1343 38.793 69.925C44.8223 69.7157 50.1731 66.6403 52.2426 62.7276C54.3137 58.8133 52.7692 53.3882 49.0051 50.8039C46.3027 48.9489 43.9446 48.6991 42.8289 48.7058C42.6331 48.7143 42.4356 48.7261 42.2398 48.743C40.3628 48.9286 38.3507 49.5633 36.2526 50.6925C31.4167 53.2954 29.2493 57.1793 28.9404 60.6953V60.697ZM50.7015 54.7453C52.5245 58.2461 52.0282 63.4669 45.4081 67.091C39.8226 70.1495 32.7383 68.7688 30.4883 64.0206C28.7801 60.4168 29.9194 54.5478 36.2189 51.1567C42.5183 47.7656 47.9332 49.4299 50.7015 54.7453Z" fill="#DBA052"/>
<path d="M53.3853 61.703C53.3701 61.7553 53.3499 61.8077 53.333 61.86C53.3516 61.8077 53.3685 61.7553 53.3853 61.703Z" fill="#DBA052"/>
<path d="M34.6157 69.8001C34.5364 69.768 34.4621 69.7326 34.3828 69.7005C34.4605 69.7343 34.5364 69.768 34.6157 69.8001Z" fill="#DBA052"/>
<path d="M29.7149 65.3675C29.8061 65.5583 29.904 65.7423 30.007 65.9229C29.2626 64.4847 28.9993 63.1546 28.9199 62.1925C28.9925 63.3437 29.266 64.424 29.7133 65.3675H29.7149Z" fill="#DBA052"/>
<path d="M53.2334 55.8239C53.2621 55.9032 53.2925 55.9809 53.3195 56.0619C53.2925 55.9826 53.2638 55.9032 53.2334 55.8239Z" fill="#DBA052"/>
<path d="M50.6055 51.7407C50.8418 51.9889 51.0663 52.2437 51.2823 52.5054C51.0646 52.237 50.8401 51.9821 50.6055 51.7407Z" fill="#DBA052"/>
<path d="M50.2646 51.4031C50.2984 51.4352 50.3322 51.469 50.3642 51.501C50.3305 51.469 50.2984 51.4352 50.2646 51.4031Z" fill="#DBA052"/>
<path d="M53.4039 61.6439C53.9896 59.7737 53.9102 57.9203 53.3887 56.2762C53.9035 57.9237 53.9727 59.7247 53.4039 61.6439Z" fill="#DBA052"/>
<path d="M30.4888 64.0206C32.7388 68.7688 39.8232 70.1478 45.4086 67.091C52.0287 63.4669 52.525 58.2461 50.702 54.7453C47.9338 49.4316 42.5188 47.7656 36.2194 51.1567C29.92 54.5478 28.7806 60.4168 30.4888 64.0206ZM43.2345 50.2115C46.2475 50.6031 48.2173 53.5604 47.3092 56.4603C46.9902 57.4798 46.3471 58.5837 45.1301 59.5745C40.6148 63.2509 34.3762 63.7623 32.619 62.3225C30.8618 60.8827 30.1816 55.4357 35.1678 52.2927C37.9006 50.571 40.8714 49.9043 43.2345 50.2115Z" fill="#F4C27A"/>
<path d="M32.619 62.3225C34.3762 63.7623 40.6148 63.2509 45.1301 59.5745C46.3471 58.5837 46.9902 57.4798 47.3092 56.4602C48.219 53.562 46.2475 50.6048 43.2345 50.2115C40.8714 49.9043 37.8989 50.571 35.1678 52.2927C30.1816 55.4357 30.8618 60.8827 32.619 62.3225ZM41.7305 51.3002C43.7055 50.7854 44.9579 52.0716 44.5849 53.6616C44.2118 55.25 40.9119 56.0349 40.468 54.6812C40.024 53.3274 40.4089 51.6445 41.7305 51.3002ZM39.8333 54.5748C40.0865 56.1801 38.2567 57.9456 35.6286 58.5601C33.0022 59.1762 32.2257 57.4899 33.1389 55.7733C34.0521 54.0566 36.3426 52.8784 37.3554 52.6894C38.3344 52.5071 39.5784 52.9679 39.8316 54.5731L39.8333 54.5748Z" fill="#FFD797"/>
<path d="M33.1385 55.775C32.2254 57.4916 33.0018 59.1762 35.6283 58.5618C38.2547 57.9457 40.0861 56.1818 39.8329 54.5765C39.5797 52.9713 38.3357 52.5105 37.3567 52.6928C36.3423 52.8818 34.0534 54.06 33.1402 55.7767L33.1385 55.775Z" fill="#FFEEC0"/>
<path d="M44.583 53.6616C44.956 52.0733 43.7036 50.7854 41.7287 51.3002C40.407 51.6445 40.0205 53.3274 40.4661 54.6812C40.91 56.0349 44.21 55.25 44.583 53.6616Z" fill="#FFEEC0"/>
<path d="M42.5909 48.7126C42.3022 48.7244 42.1436 48.7514 42.1436 48.7514C42.1756 48.748 42.2077 48.7463 42.2398 48.7447C42.4356 48.7278 42.6331 48.716 42.8289 48.7075C42.7411 48.7075 42.6634 48.7109 42.5909 48.7126Z" fill="#C17523"/>
<path d="M42.8291 48.7058C43.9449 48.6991 46.3046 48.9489 49.0053 50.804C52.7695 53.3882 54.3123 58.8133 52.2428 62.7276C50.1717 66.642 44.8226 69.7157 38.7932 69.925C32.7706 70.1343 29.0065 65.506 28.9407 60.697C28.9407 60.6903 28.9407 60.6852 28.9407 60.6785C28.9407 60.6785 28.8462 61.2642 28.9221 62.1925C29.0014 63.1547 29.2631 64.4848 30.0092 65.9229C30.0142 65.9314 30.0176 65.9415 30.0227 65.9499C30.8227 67.4843 32.3065 68.8346 34.3843 69.7005C34.462 69.7326 34.5362 69.7697 34.6173 69.8001C34.6291 69.8052 34.6426 69.8103 34.6544 69.8153C36.3575 70.4719 38.4405 70.8062 40.8627 70.661C40.8812 70.661 40.8998 70.661 40.9201 70.6593C42.4139 70.5648 43.9128 70.1597 45.3307 69.5453C48.8973 68.0008 51.9508 65.1211 53.1155 62.444C53.1256 62.4187 53.1358 62.3951 53.1459 62.3698C53.1746 62.3023 53.1999 62.2364 53.2252 62.1689C53.2657 62.0659 53.3012 61.963 53.3366 61.8617C53.3535 61.8094 53.3721 61.7571 53.3889 61.7047C53.3923 61.6929 53.3974 61.6828 53.4008 61.671C53.4041 61.6625 53.4058 61.6524 53.4075 61.644C53.9764 59.7248 53.9071 57.9237 53.3923 56.2763C53.3704 56.2037 53.3451 56.1328 53.3214 56.0619C53.2944 55.9826 53.264 55.9032 53.2353 55.8239C52.7948 54.6255 52.1196 53.5148 51.2858 52.5054C51.0697 52.2438 50.8452 51.9889 50.6089 51.7408C50.592 51.7222 50.5768 51.7036 50.5583 51.6867C50.4958 51.6209 50.4317 51.5635 50.3675 51.5011C50.3338 51.4673 50.3 51.4352 50.2679 51.4032C48.5057 49.7017 46.5544 48.9455 44.5525 48.7497C43.982 48.694 43.4064 48.6822 42.8325 48.7075L42.8291 48.7058Z" fill="#C17523"/>
<path d="M72.4141 69.1587C72.8901 68.9595 73.361 68.7367 73.8201 68.4835C77.2602 66.5997 79.2469 64.3379 80.1989 62.0558C79.0342 64.7346 75.9807 67.6125 72.4141 69.157V69.1587Z" fill="#DBA052"/>
<path d="M61.7393 69.4304C63.5994 70.1816 65.7515 70.477 67.9475 70.2761C65.5253 70.4229 63.4424 70.0887 61.7393 69.4304Z" fill="#DBA052"/>
<path d="M69.9157 48.3226C70.4913 48.2973 71.0652 48.3091 71.6358 48.3648C71.0028 48.2956 70.3495 48.2821 69.6777 48.3277C69.7503 48.3243 69.828 48.3226 69.9157 48.3226Z" fill="#DBA052"/>
<path d="M56.0273 60.3121C56.0932 65.1211 59.8573 69.7495 65.8799 69.5401C71.9093 69.3308 77.2601 66.2554 79.3295 62.3427C81.4006 58.4284 79.8561 53.0033 76.092 50.4191C73.3896 48.564 71.0315 48.3142 69.9158 48.3209C69.72 48.3294 69.5225 48.3412 69.3267 48.3581C67.4497 48.5437 65.4377 49.1784 63.3395 50.3077C58.5036 52.9105 56.3362 56.7944 56.0273 60.3104V60.3121ZM77.7884 54.3604C79.6114 57.8612 79.1151 63.0821 72.495 66.7061C66.9096 69.7646 59.8252 68.3839 57.5752 63.6357C55.867 60.0319 57.0064 54.1629 63.3058 50.7718C69.6052 47.3807 75.0202 49.0451 77.7884 54.3604Z" fill="#DBA052"/>
<path d="M80.4722 61.3198C80.4571 61.3722 80.4368 61.4245 80.4199 61.4768C80.4385 61.4245 80.4554 61.3722 80.4722 61.3198Z" fill="#DBA052"/>
<path d="M61.7017 69.417C61.6224 69.3849 61.5481 69.3495 61.4688 69.3174C61.5464 69.3511 61.6224 69.3849 61.7017 69.417Z" fill="#DBA052"/>
<path d="M56.8019 64.9827C56.893 65.1734 56.9909 65.3574 57.0939 65.538C56.3495 64.0999 56.0862 62.7698 56.0068 61.8077C56.0794 62.9589 56.3529 64.0391 56.8002 64.9827H56.8019Z" fill="#DBA052"/>
<path d="M80.3184 55.4407C80.3471 55.5201 80.3774 55.5977 80.4044 55.6787C80.3774 55.5994 80.3487 55.5201 80.3184 55.4407Z" fill="#DBA052"/>
<path d="M77.6924 51.3576C77.9287 51.6057 78.1532 51.8606 78.3693 52.1222C78.1515 51.8539 77.927 51.599 77.6924 51.3576Z" fill="#DBA052"/>
<path d="M77.3506 51.0183C77.3843 51.0504 77.4181 51.0841 77.4502 51.1162C77.4164 51.0841 77.3843 51.0504 77.3506 51.0183Z" fill="#DBA052"/>
<path d="M80.4908 61.2591C81.0765 59.3889 80.9972 57.5355 80.4756 55.8914C80.9904 57.5389 81.0596 59.3399 80.4908 61.2591Z" fill="#DBA052"/>
<path d="M57.5747 63.6357C59.8248 68.3839 66.9091 69.763 72.4945 66.7061C79.1147 63.0821 79.6109 57.8612 77.7879 54.3604C75.0197 49.0468 69.6048 47.3808 63.3053 50.7718C57.0059 54.1629 55.8665 60.0319 57.5747 63.6357ZM70.3204 49.8266C73.3334 50.2182 75.3033 53.1755 74.3952 56.0754C74.0761 57.0949 73.433 58.1988 72.216 59.1896C67.7007 62.866 61.4621 63.3774 59.7049 61.9376C57.9478 60.4978 57.2675 55.0508 62.2537 51.9078C64.9865 50.1861 67.9573 49.5194 70.3204 49.8266Z" fill="#F4C27A"/>
<path d="M59.7049 61.9393C61.4621 63.3791 67.7007 62.8677 72.216 59.1913C73.433 58.2005 74.0761 57.0966 74.3952 56.0771C75.305 53.1789 73.3334 50.2216 70.3205 49.8283C67.9573 49.5211 64.9848 50.1878 62.2537 51.9095C57.2675 55.0525 57.9478 60.4995 59.7049 61.9393ZM68.8165 50.917C70.7914 50.4022 72.0438 51.6884 71.6708 53.2785C71.2978 54.8668 67.9978 55.6517 67.5539 54.298C67.11 52.9442 67.4948 51.2613 68.8165 50.917ZM66.9192 54.1916C67.1724 55.7969 65.3427 57.5625 62.7146 58.1769C60.0881 58.793 59.3116 57.1067 60.2248 55.3901C61.138 53.6734 63.4286 52.4952 64.4413 52.3062C65.4203 52.1239 66.6644 52.5847 66.9175 54.1899L66.9192 54.1916Z" fill="#FFD797"/>
<path d="M60.2254 55.3901C59.3123 57.1067 60.0887 58.7913 62.7152 58.1769C65.3416 57.5608 67.173 55.7969 66.9198 54.1916C66.6667 52.5864 65.4226 52.1256 64.4436 52.3079C63.4292 52.4969 61.1403 53.6751 60.2271 55.3918L60.2254 55.3901Z" fill="#FFEEC0"/>
<path d="M71.669 53.2768C72.042 51.6884 70.7895 50.4005 68.8146 50.9153C67.493 51.2597 67.1064 52.9425 67.552 54.2963C67.996 55.65 71.2959 54.8651 71.669 53.2768Z" fill="#FFEEC0"/>
<path d="M69.6778 48.3277C69.3891 48.3395 69.2305 48.3665 69.2305 48.3665C69.2625 48.3631 69.2946 48.3615 69.3267 48.3598C69.5225 48.3429 69.72 48.3311 69.9158 48.3226C69.828 48.3226 69.7504 48.326 69.6778 48.3277Z" fill="#C17523"/>
<path d="M69.916 48.3226C71.0318 48.3159 73.3915 48.5657 76.0923 50.4208C79.8564 53.005 81.3992 58.4301 79.3297 62.3444C77.2586 66.2588 71.9095 69.3326 65.8802 69.5419C59.8576 69.7512 56.0934 65.1228 56.0276 60.3138C56.0276 60.3071 56.0276 60.302 56.0276 60.2953C56.0276 60.2953 55.9331 60.881 56.009 61.8094C56.0884 62.7715 56.35 64.1016 57.0961 65.5397C57.1011 65.5482 57.1045 65.5583 57.1096 65.5667C57.9097 67.1011 59.3934 68.4514 61.4712 69.3174C61.5489 69.3494 61.6231 69.3866 61.7042 69.417C61.716 69.422 61.7295 69.4271 61.7413 69.4321C63.4444 70.0888 65.5274 70.423 67.9496 70.2778C67.9682 70.2778 67.9867 70.2778 68.007 70.2761C69.5008 70.1816 70.9997 69.7765 72.4176 69.1621C75.9842 67.6176 79.0377 64.738 80.2024 62.0609C80.2125 62.0356 80.2227 62.0119 80.2328 61.9866C80.2615 61.9191 80.2868 61.8533 80.3121 61.7857C80.3526 61.6828 80.3881 61.5798 80.4235 61.4785C80.4404 61.4262 80.459 61.3739 80.4759 61.3215C80.4792 61.3097 80.4843 61.2996 80.4877 61.2878C80.491 61.2793 80.4927 61.2692 80.4944 61.2608C81.0633 59.3416 80.9941 57.5405 80.4792 55.8931C80.4573 55.8205 80.432 55.7496 80.4083 55.6787C80.3813 55.5994 80.351 55.5201 80.3223 55.4407C79.8817 54.2423 79.2065 53.1316 78.3727 52.1222C78.1566 51.8606 77.9321 51.6057 77.6958 51.3576C77.6789 51.339 77.6637 51.3204 77.6452 51.3036C77.5827 51.2377 77.5186 51.1803 77.4544 51.1179C77.4207 51.0841 77.3869 51.0521 77.3548 51.02C75.5926 49.3185 73.6414 48.5623 71.6394 48.3665C71.0689 48.3108 70.4933 48.299 69.9194 48.3243L69.916 48.3226Z" fill="#C17523"/>
<path d="M41.8516 90.8218C42.3276 90.6226 42.7985 90.3998 43.2576 90.1466C46.6977 88.2629 48.6844 86.001 49.6364 83.7189C48.4717 86.3977 45.4182 89.2757 41.8516 90.8201V90.8218Z" fill="#DBA052"/>
<path d="M31.1768 91.0936C33.0369 91.8448 35.189 92.1402 37.385 91.9393C34.9628 92.0861 32.8799 91.7519 31.1768 91.0936Z" fill="#DBA052"/>
<path d="M39.3532 69.9858C39.9288 69.9605 40.5027 69.9723 41.0733 70.028C40.4403 69.9588 39.787 69.9453 39.1152 69.9909C39.1878 69.9875 39.2655 69.9858 39.3532 69.9858Z" fill="#DBA052"/>
<path d="M25.4648 81.9753C25.5307 86.7842 29.2948 91.4126 35.3174 91.2033C41.3468 90.994 46.6976 87.9185 48.767 84.0059C50.8381 80.0915 49.2936 74.6665 45.5295 72.0822C42.8271 70.2271 40.469 69.9773 39.3533 69.9841C39.1575 69.9925 38.96 70.0043 38.7642 70.0212C36.8872 70.2069 34.8752 70.8416 32.777 71.9708C27.9411 74.5736 25.7737 78.4576 25.4648 81.9736V81.9753ZM47.2259 76.0236C49.0489 79.5244 48.5526 84.7452 41.9325 88.3692C36.3471 91.4278 29.2627 90.047 27.0127 85.2988C25.3045 81.6951 26.4439 75.8261 32.7433 72.435C39.0427 69.0439 44.4577 70.7082 47.2259 76.0236Z" fill="#DBA052"/>
<path d="M49.9097 82.983C49.8946 83.0354 49.8743 83.0877 49.8574 83.14C49.876 83.0877 49.8929 83.0354 49.9097 82.983Z" fill="#DBA052"/>
<path d="M31.1402 91.0801C31.0608 91.0481 30.9866 91.0126 30.9072 90.9805C30.9849 91.0143 31.0608 91.0481 31.1402 91.0801Z" fill="#DBA052"/>
<path d="M26.2403 86.6459C26.3315 86.8366 26.4294 87.0206 26.5324 87.2012C25.788 85.7631 25.5246 84.433 25.4453 83.4708C25.5179 84.622 25.7913 85.7023 26.2387 86.6459H26.2403Z" fill="#DBA052"/>
<path d="M49.7568 77.1039C49.7855 77.1832 49.8159 77.2609 49.8429 77.3419C49.8159 77.2625 49.7872 77.1832 49.7568 77.1039Z" fill="#DBA052"/>
<path d="M47.1299 73.0208C47.3662 73.2689 47.5907 73.5238 47.8068 73.7854C47.589 73.517 47.3645 73.2621 47.1299 73.0208Z" fill="#DBA052"/>
<path d="M46.7891 72.6815C46.8228 72.7135 46.8566 72.7473 46.8887 72.7794C46.8549 72.7473 46.8228 72.7135 46.7891 72.6815Z" fill="#DBA052"/>
<path d="M49.9283 82.9222C50.514 81.052 50.4347 79.1986 49.9131 77.5546C50.4279 79.202 50.4971 81.003 49.9283 82.9222Z" fill="#DBA052"/>
<path d="M27.0132 85.2988C29.2633 90.0471 36.3476 91.4261 41.933 88.3692C48.5531 84.7452 49.0494 79.5244 47.2264 76.0236C44.4582 70.7099 39.0432 69.0439 32.7438 72.435C26.4444 75.8261 25.305 81.6951 27.0132 85.2988ZM39.7589 71.4897C42.7719 71.8813 44.7418 74.8386 43.8336 77.7385C43.5146 78.758 42.8715 79.862 41.6545 80.8528C37.1392 84.5291 30.9006 85.0406 29.1434 83.6008C27.3863 82.161 26.706 76.7139 31.6922 73.571C34.425 71.8493 37.3958 71.1825 39.7589 71.4897Z" fill="#F4C27A"/>
<path d="M29.1415 83.6025C30.8986 85.0423 37.1373 84.5308 41.6525 80.8545C42.8696 79.8637 43.5127 78.7597 43.8317 77.7402C44.7415 74.842 42.77 71.8847 39.757 71.4914C37.3938 71.1842 34.4214 71.851 31.6903 73.5727C26.7041 76.7156 27.3843 82.1626 29.1415 83.6025ZM38.253 72.5802C40.2279 72.0653 41.4804 73.3515 41.1073 74.9416C40.7343 76.53 37.4344 77.3149 36.9904 75.9611C36.5465 74.6074 36.9313 72.9245 38.253 72.5802ZM36.3558 75.8548C36.6089 77.46 34.7792 79.2256 32.1511 79.84C29.5246 80.4561 28.7482 78.7699 29.6613 77.0532C30.5745 75.3366 32.8651 74.1584 33.8778 73.9693C34.8569 73.787 36.1009 74.2478 36.3541 75.8531L36.3558 75.8548Z" fill="#FFD797"/>
<path d="M29.661 77.0532C28.7478 78.7699 29.5243 80.4544 32.1507 79.84C34.7772 79.2239 36.6086 77.46 36.3554 75.8548C36.1022 74.2495 34.8582 73.7887 33.8792 73.971C32.8647 74.1601 30.5759 75.3383 29.6627 77.0549L29.661 77.0532Z" fill="#FFEEC0"/>
<path d="M41.1074 74.9399C41.4805 73.3515 40.228 72.0636 38.2531 72.5785C36.9314 72.9228 36.5449 74.6057 36.9905 75.9594C37.4344 77.3132 40.7344 76.5283 41.1074 74.9399Z" fill="#FFEEC0"/>
<path d="M39.1153 69.9908C38.8266 70.0027 38.668 70.0297 38.668 70.0297C38.7 70.0263 38.7321 70.0246 38.7642 70.0229C38.96 70.006 39.1575 69.9942 39.3533 69.9858C39.2655 69.9858 39.1879 69.9892 39.1153 69.9908Z" fill="#C17523"/>
<path d="M39.3535 69.9858C40.4693 69.979 42.829 70.2289 45.5298 72.0839C49.2939 74.6682 50.8367 80.0932 48.7672 84.0076C46.6961 87.9219 41.347 90.9957 35.3177 91.205C29.2951 91.4143 25.5309 86.786 25.4651 81.977C25.4651 81.9702 25.4651 81.9652 25.4651 81.9584C25.4651 81.9584 25.3706 82.5441 25.4465 83.4725C25.5259 84.4346 25.7875 85.7647 26.5336 87.2029C26.5386 87.2113 26.542 87.2215 26.5471 87.2299C27.3472 88.7642 28.8309 90.1146 30.9087 90.9805C30.9864 91.0126 31.0606 91.0497 31.1417 91.0801C31.1535 91.0852 31.167 91.0902 31.1788 91.0953C32.8819 91.7519 34.9649 92.0861 37.3871 91.941C37.4057 91.941 37.4242 91.941 37.4445 91.9393C38.9383 91.8447 40.4372 91.4396 41.8551 90.8252C45.4217 89.2808 48.4752 86.4011 49.6399 83.724C49.65 83.6987 49.6602 83.6751 49.6703 83.6497C49.699 83.5822 49.7243 83.5164 49.7496 83.4489C49.7901 83.3459 49.8256 83.243 49.861 83.1417C49.8779 83.0893 49.8965 83.037 49.9134 82.9847C49.9167 82.9729 49.9218 82.9628 49.9252 82.9509C49.9285 82.9425 49.9302 82.9324 49.9319 82.9239C50.5008 81.0047 50.4316 79.2037 49.9167 77.5562C49.8948 77.4837 49.8695 77.4128 49.8458 77.3419C49.8188 77.2625 49.7885 77.1832 49.7598 77.1039C49.3192 75.9054 48.644 74.7948 47.8102 73.7854C47.5941 73.5237 47.3696 73.2689 47.1333 73.0207C47.1164 73.0022 47.1012 72.9836 47.0827 72.9667C47.0202 72.9009 46.9561 72.8435 46.8919 72.781C46.8582 72.7473 46.8244 72.7152 46.7923 72.6831C45.0301 70.9817 43.0788 70.2255 41.0769 70.0297C40.5064 69.974 39.9308 69.9622 39.3569 69.9875L39.3535 69.9858Z" fill="#C17523"/>
<path d="M16.6504 72.9076C17.1264 72.7085 17.5973 72.4857 18.0565 72.2325C21.4965 70.3487 23.4832 68.0869 24.4352 65.8047C23.2705 68.4835 20.217 71.3615 16.6504 72.906V72.9076Z" fill="#DBA052"/>
<path d="M5.97559 73.1794C7.83571 73.9305 9.98784 74.2259 12.1839 74.025C9.76166 74.1719 7.67873 73.8377 5.97559 73.1794Z" fill="#DBA052"/>
<path d="M14.1521 52.0699C14.7277 52.0446 15.3016 52.0564 15.8721 52.1121C15.2391 52.0429 14.5859 52.0294 13.9141 52.075C13.9866 52.0716 14.0643 52.0699 14.1521 52.0699Z" fill="#DBA052"/>
<path d="M0.265625 64.0611C0.331455 68.8701 4.09558 73.4984 10.1182 73.2891C16.1475 73.0798 21.4983 70.0044 23.5678 66.0917C25.6389 62.1773 24.0944 56.7523 20.3303 54.168C17.6279 52.313 15.2698 52.0631 14.1541 52.0699C13.9583 52.0783 13.7608 52.0901 13.565 52.107C11.688 52.2927 9.67594 52.9274 7.57782 54.0566C2.74185 56.6594 0.57452 60.5434 0.265625 64.0594V64.0611ZM22.0267 58.1094C23.8497 61.6102 23.3534 66.831 16.7333 70.455C11.1478 73.5136 4.06351 72.1329 1.81347 67.3847C0.10527 63.7809 1.24464 57.9119 7.54406 54.5208C13.8435 51.1297 19.2584 52.794 22.0267 58.1094Z" fill="#DBA052"/>
<path d="M24.7105 65.0671C24.6953 65.1194 24.6751 65.1717 24.6582 65.2241C24.6768 65.1717 24.6936 65.1194 24.7105 65.0671Z" fill="#DBA052"/>
<path d="M5.93899 73.1642C5.85966 73.1321 5.78539 73.0966 5.70605 73.0646C5.7837 73.0983 5.85966 73.1321 5.93899 73.1642Z" fill="#DBA052"/>
<path d="M1.03916 68.7317C1.13031 68.9224 1.22822 69.1064 1.33118 69.287C0.586794 67.8489 0.323474 66.5188 0.244141 65.5566C0.316722 66.7078 0.59017 67.7881 1.03748 68.7317H1.03916Z" fill="#DBA052"/>
<path d="M24.5566 59.188C24.5853 59.2673 24.6157 59.345 24.6427 59.426C24.6157 59.3467 24.587 59.2673 24.5566 59.188Z" fill="#DBA052"/>
<path d="M21.9287 55.1048C22.165 55.3529 22.3895 55.6078 22.6056 55.8694C22.3878 55.6011 22.1633 55.3462 21.9287 55.1048Z" fill="#DBA052"/>
<path d="M21.5898 54.7672C21.6236 54.7993 21.6574 54.833 21.6894 54.8651C21.6557 54.833 21.6236 54.7993 21.5898 54.7672Z" fill="#DBA052"/>
<path d="M24.7271 65.008C25.3128 63.1378 25.2335 61.2844 24.7119 59.6403C25.2267 61.2878 25.2959 63.0888 24.7271 65.008Z" fill="#DBA052"/>
<path d="M1.81178 67.3847C4.06181 72.1329 11.1461 73.5119 16.7316 70.455C23.3517 66.831 23.848 61.6102 22.025 58.1094C19.2567 52.7957 13.8418 51.1297 7.54236 54.5208C1.24463 57.9102 0.103571 63.7792 1.81178 67.3847ZM14.5575 53.5755C17.5705 53.9672 19.5403 56.9244 18.6322 59.8243C18.3132 60.8439 17.6701 61.9478 16.453 62.9386C11.9378 66.615 5.69912 67.1264 3.94197 65.6866C2.18481 64.2468 1.50457 58.7998 6.49077 55.6568C9.22356 53.9351 12.1944 53.2683 14.5575 53.5755Z" fill="#F4C27A"/>
<path d="M3.94224 65.6866C5.69939 67.1264 11.9381 66.6149 16.4533 62.9386C17.6703 61.9478 18.3134 60.8438 18.6325 59.8243C19.5423 56.9261 17.5707 53.9688 14.5578 53.5755C12.1946 53.2683 9.22215 53.9351 6.49104 55.6568C1.50484 58.7997 2.18508 64.2468 3.94224 65.6866ZM13.0538 54.6643C15.0287 54.1494 16.2811 55.4357 15.9081 57.0257C15.5351 58.6141 12.2351 59.399 11.7912 58.0452C11.3473 56.6915 11.7321 55.0086 13.0538 54.6643ZM11.1565 57.9389C11.4097 59.5441 9.57999 61.3097 6.95185 61.9241C4.3254 62.5402 3.54895 60.854 4.46213 59.1373C5.37531 57.4207 7.66586 56.2425 8.67863 56.0534C9.65764 55.8711 10.9017 56.332 11.1548 57.9372L11.1565 57.9389Z" fill="#FFD797"/>
<path d="M4.46177 59.1373C3.54859 60.854 4.32505 62.5385 6.9515 61.9241C9.57795 61.308 11.4094 59.5441 11.1562 57.9389C10.903 56.3336 9.65897 55.8728 8.67996 56.0551C7.6655 56.2442 5.37664 57.4224 4.46346 59.139L4.46177 59.1373Z" fill="#FFEEC0"/>
<path d="M15.9082 57.0257C16.2812 55.4374 15.0288 54.1495 13.0539 54.6643C11.7322 55.0086 11.3457 56.6915 11.7913 58.0452C12.2352 59.399 15.5352 58.6141 15.9082 57.0257Z" fill="#FFEEC0"/>
<path d="M13.9161 52.0767C13.6274 52.0885 13.4688 52.1155 13.4688 52.1155C13.5008 52.1121 13.5329 52.1104 13.565 52.1087C13.7608 52.0918 13.9583 52.08 14.1541 52.0716C14.0663 52.0716 13.9886 52.075 13.9161 52.0767Z" fill="#C17523"/>
<path d="M14.1524 52.0699C15.2681 52.0632 17.6279 52.313 20.3286 54.168C24.0927 56.7523 25.6355 62.1773 23.5661 66.0917C21.495 70.0061 16.1458 73.0798 10.1165 73.2891C4.09388 73.4984 0.329755 68.8701 0.263925 64.0611C0.263925 64.0543 0.263925 64.0493 0.263925 64.0425C0.263925 64.0425 0.169399 64.6283 0.245357 65.5566C0.324691 66.5188 0.586323 67.8489 1.3324 69.287C1.33746 69.2954 1.34084 69.3056 1.3459 69.314C2.14599 70.8483 3.6297 72.1987 5.70756 73.0646C5.78521 73.0967 5.85948 73.1338 5.9405 73.1642C5.95231 73.1693 5.96582 73.1743 5.97763 73.1794C7.68078 73.836 9.7637 74.1702 12.1859 74.0251C12.2045 74.0251 12.223 74.0251 12.2433 74.0234C13.7371 73.9289 15.236 73.5237 16.6539 72.9093C20.2206 71.3649 23.2741 68.4852 24.4387 65.8081C24.4489 65.7828 24.459 65.7592 24.4691 65.7339C24.4978 65.6663 24.5231 65.6005 24.5485 65.533C24.589 65.43 24.6244 65.3271 24.6599 65.2258C24.6767 65.1735 24.6953 65.1211 24.7122 65.0688C24.7156 65.057 24.7206 65.0469 24.724 65.035C24.7274 65.0266 24.7291 65.0165 24.7308 65.008C25.2996 63.0888 25.2304 61.2878 24.7156 59.6404C24.6936 59.5678 24.6683 59.4969 24.6447 59.426C24.6177 59.3467 24.5873 59.2673 24.5586 59.188C24.118 57.9895 23.4429 56.8789 22.609 55.8695C22.3929 55.6078 22.1684 55.353 21.9321 55.1048C21.9153 55.0863 21.9001 55.0677 21.8815 55.0508C21.819 54.985 21.7549 54.9276 21.6908 54.8652C21.657 54.8314 21.6232 54.7993 21.5912 54.7672C19.8289 53.0658 17.8777 52.3096 15.8758 52.1138C15.3052 52.0581 14.7297 52.0463 14.1557 52.0716L14.1524 52.0699Z" fill="#C17523"/>
<path d="M65.0762 86.8433C65.4762 86.6762 65.8712 86.4889 66.2577 86.2762C69.1458 84.6946 70.8152 82.7956 71.6136 80.8798C70.6363 83.1282 68.0706 85.5453 65.0762 86.8433Z" fill="#DBA052"/>
<path d="M56.1133 87.0712C57.6746 87.7025 59.4807 87.949 61.3257 87.7802C59.2917 87.9034 57.543 87.6232 56.1133 87.0712Z" fill="#DBA052"/>
<path d="M62.9795 69.3478C63.4622 69.3258 63.945 69.3359 64.4243 69.3832C63.8926 69.3258 63.344 69.314 62.7803 69.3528C62.841 69.3494 62.9069 69.3478 62.9795 69.3478Z" fill="#DBA052"/>
<path d="M51.3181 79.4164C51.3738 83.4539 54.5336 87.3413 59.5907 87.1657C64.6529 86.9902 69.1445 84.4076 70.8831 81.1212C72.6217 77.8348 71.3254 73.2807 68.1655 71.11C65.8969 69.552 63.9153 69.3427 62.9784 69.3477C62.813 69.3545 62.6493 69.3646 62.4839 69.3798C60.9073 69.5351 59.2194 70.0685 57.4555 71.0171C53.3943 73.203 51.5747 76.4641 51.3164 79.4164H51.3181ZM69.5901 74.4183C71.1211 77.3571 70.7042 81.7407 65.1458 84.784C60.4567 87.3514 54.5083 86.1935 52.6178 82.2065C51.1831 79.18 52.1401 74.2529 57.4302 71.4054C62.7185 68.5578 67.2658 69.9554 69.5901 74.4183Z" fill="#DBA052"/>
<path d="M71.7062 80.6503C71.6842 80.706 71.6623 80.7617 71.6387 80.8191C71.6623 80.7634 71.6842 80.7077 71.7062 80.6503Z" fill="#DBA052"/>
<path d="M56.0825 87.0594C56.015 87.0324 55.9525 87.0037 55.8867 86.975C55.9509 87.0037 56.0167 87.0324 56.0825 87.0594Z" fill="#DBA052"/>
<path d="M51.9678 83.3375C52.0437 83.4978 52.1265 83.6531 52.2142 83.805C51.588 82.5981 51.3686 81.4807 51.3027 80.6722C51.3635 81.6377 51.5931 82.5458 51.9695 83.3375H51.9678Z" fill="#DBA052"/>
<path d="M71.7148 75.3248C71.7385 75.3906 71.7638 75.4564 71.7874 75.5239C71.7638 75.4564 71.7402 75.3906 71.7148 75.3248Z" fill="#DBA052"/>
<path d="M69.5088 71.8965C69.7063 72.1042 69.8953 72.3185 70.0776 72.538C69.8953 72.3135 69.7063 72.0991 69.5088 71.8965Z" fill="#DBA052"/>
<path d="M69.2236 71.6113C69.2523 71.6383 69.2793 71.6653 69.308 71.694C69.2793 71.667 69.2523 71.6383 69.2236 71.6113Z" fill="#DBA052"/>
<path d="M71.8585 80.2114C72.3497 78.6416 72.2839 77.0853 71.8467 75.7046C72.2788 77.087 72.3362 78.5994 71.8585 80.2114Z" fill="#DBA052"/>
<path d="M52.6172 82.2065C54.506 86.1934 60.456 87.3514 65.1451 84.784C70.7036 81.7406 71.1205 77.357 69.5895 74.4183C67.2652 69.9554 62.7179 68.5577 57.4295 71.4053C52.1412 74.2529 51.1824 79.18 52.6172 82.2065ZM63.3205 70.612C65.849 70.9411 67.5049 73.4241 66.7419 75.8581C66.4736 76.7139 65.9334 77.6406 64.9122 78.4728C61.1211 81.56 55.8834 81.9888 54.4064 80.7802C52.9311 79.5716 52.3606 74.9973 56.5467 72.359C58.8407 70.9124 61.3354 70.3537 63.3205 70.612Z" fill="#F4C27A"/>
<path d="M54.4046 80.7802C55.8799 81.9888 61.1193 81.5583 64.9104 78.4728C65.9333 77.6406 66.4718 76.7139 66.7402 75.8581C67.5031 73.4241 65.8489 70.9411 63.3187 70.612C61.3337 70.3537 58.8389 70.9141 56.5449 72.359C52.3588 74.9973 52.9294 79.5716 54.4046 80.7802ZM62.0544 71.5252C63.712 71.0931 64.7636 72.1734 64.4513 73.5068C64.1373 74.8403 61.3674 75.5003 60.9944 74.3626C60.6213 73.2266 60.9454 71.8138 62.0544 71.5235V71.5252ZM60.461 74.2748C60.6737 75.6218 59.1359 77.1055 56.9315 77.622C54.7253 78.1386 54.0738 76.7241 54.8418 75.2826C55.6081 73.841 57.5307 72.8519 58.3831 72.6932C59.2051 72.5396 60.25 72.9262 60.4627 74.2748H60.461Z" fill="#FFD797"/>
<path d="M54.8422 75.2826C54.0759 76.7241 54.7274 78.1386 56.9319 77.6221C59.138 77.1055 60.6758 75.6235 60.4614 74.2748C60.2487 72.9279 59.2039 72.5396 58.3818 72.6932C57.5294 72.8519 55.6085 73.841 54.8405 75.2826H54.8422Z" fill="#FFEEC0"/>
<path d="M64.4517 73.5085C64.7656 72.175 63.7123 71.0948 62.0548 71.5269C60.9458 71.8155 60.6217 73.23 60.9948 74.366C61.3678 75.502 64.1377 74.8437 64.4517 73.5102V73.5085Z" fill="#FFEEC0"/>
<path d="M62.779 69.3528C62.5376 69.3629 62.4043 69.3849 62.4043 69.3849C62.4313 69.3832 62.4583 69.3815 62.4853 69.3798C62.6507 69.3663 62.8145 69.3562 62.9799 69.3477C62.9073 69.3477 62.8398 69.3494 62.7807 69.3528H62.779Z" fill="#C17523"/>
<path d="M62.9799 69.3477C63.9167 69.3427 65.8967 69.552 68.167 71.1099C71.3268 73.279 72.6231 77.8347 70.8846 81.1212C69.146 84.4076 64.6543 86.9885 59.5922 87.1657C54.5351 87.3413 51.3752 83.4556 51.3195 79.4163C51.3195 79.4113 51.3195 79.4062 51.3195 79.4011C51.3195 79.4011 51.2402 79.8923 51.3043 80.6722C51.3702 81.4807 51.5913 82.5964 52.2158 83.805C52.2192 83.8134 52.2226 83.8202 52.2276 83.8269C52.8994 85.1149 54.1452 86.2492 55.8888 86.9767C55.9546 87.0037 56.0171 87.0341 56.0846 87.0611C56.0947 87.0644 56.1049 87.0695 56.1167 87.0729C57.5464 87.6248 59.2951 87.905 61.3291 87.7818C61.3459 87.7818 61.3611 87.7818 61.3763 87.7801C62.6305 87.7008 63.888 87.3598 65.0797 86.845C68.0741 85.5487 70.6381 83.1315 71.6171 80.8815C71.6256 80.8612 71.634 80.841 71.6424 80.819C71.6661 80.7633 71.688 80.7059 71.71 80.6502C71.7437 80.5641 71.7741 80.4781 71.8028 80.392C71.818 80.3481 71.8332 80.3042 71.8467 80.2603C71.8501 80.2502 71.8534 80.2417 71.8568 80.2316C71.8585 80.2249 71.8602 80.2164 71.8619 80.2097C72.3396 78.5977 72.2822 77.0853 71.8501 75.7028C71.8315 75.6421 71.8112 75.583 71.791 75.5222C71.769 75.4547 71.7437 75.3889 71.7184 75.3231C71.3487 74.317 70.7816 73.3853 70.0811 72.5363C69.8988 72.3168 69.7114 72.1024 69.5122 71.8948C69.4987 71.8796 69.4852 71.8644 69.47 71.8493C69.4177 71.7952 69.3637 71.7463 69.3097 71.6923C69.281 71.6653 69.254 71.6366 69.2253 71.6096C67.745 70.1799 66.1077 69.5452 64.4265 69.3815C63.9471 69.3342 63.4643 69.3241 62.9816 69.346L62.9799 69.3477Z" fill="#C17523"/>
</g>
<defs>
<linearGradient id="paint0_linear_258_178803" x1="0.871142" y1="47.8202" x2="79.462" y2="32.3016" gradientUnits="userSpaceOnUse">
<stop offset="0.01" stop-color="#9BA1B2"/>
<stop offset="1" stop-color="#B5B9C6"/>
</linearGradient>
<linearGradient id="paint1_linear_258_178803" x1="1.68115" y1="47.6603" x2="78.6525" y2="32.4614" gradientUnits="userSpaceOnUse">
<stop stop-color="#EBEFFC"/>
<stop offset="0.99" stop-color="#D5DBEF"/>
</linearGradient>
<linearGradient id="paint2_linear_258_178803" x1="4.2767" y1="47.1473" x2="76.0549" y2="32.9738" gradientUnits="userSpaceOnUse">
<stop stop-color="#9BA1B2"/>
<stop offset="1" stop-color="#B5B9C6"/>
</linearGradient>
<linearGradient id="paint3_linear_258_178803" x1="38.7862" y1="19.5831" x2="42.6728" y2="18.8157" gradientUnits="userSpaceOnUse">
<stop stop-color="#CCCCCC"/>
<stop offset="1" stop-color="#999999"/>
</linearGradient>
<linearGradient id="paint4_linear_258_178803" x1="28.9106" y1="31.6276" x2="42.3008" y2="28.9835" gradientUnits="userSpaceOnUse">
<stop stop-color="#CCCCCC"/>
<stop offset="1" stop-color="#999999"/>
</linearGradient>
<linearGradient id="paint5_linear_258_178803" x1="10.3104" y1="58.3109" x2="74.2559" y2="45.6842" gradientUnits="userSpaceOnUse">
<stop stop-color="#CCCCCC"/>
<stop offset="1" stop-color="#999999"/>
</linearGradient>
<linearGradient id="paint6_linear_258_178803" x1="35.7934" y1="39.8967" x2="64.9767" y2="34.1342" gradientUnits="userSpaceOnUse">
<stop stop-color="#CCCCCC"/>
<stop offset="1" stop-color="#999999"/>
</linearGradient>
<linearGradient id="paint7_linear_258_178803" x1="13.1041" y1="37.9938" x2="33.5289" y2="33.9607" gradientUnits="userSpaceOnUse">
<stop stop-color="#CCCCCC"/>
<stop offset="1" stop-color="#999999"/>
</linearGradient>
<linearGradient id="paint8_linear_258_178803" x1="30.7532" y1="41.4098" x2="39.4852" y2="39.6856" gradientUnits="userSpaceOnUse">
<stop stop-color="#E6E6E6"/>
<stop offset="1" stop-color="white"/>
</linearGradient>
<linearGradient id="paint9_linear_258_178803" x1="22.0036" y1="65.7351" x2="58.3406" y2="58.5599" gradientUnits="userSpaceOnUse">
<stop stop-color="#E6E6E6"/>
<stop offset="1" stop-color="white"/>
</linearGradient>
<clipPath id="clip0_258_178803">
<rect width="80.7988" height="92" fill="white" transform="translate(0.100586)"/>
</clipPath>
</defs>
</svg>
