<svg width="43" height="92" viewBox="0 0 43 92" fill="none" xmlns="http://www.w3.org/2000/svg">
<g clip-path="url(#clip0_156_69020)">
<path d="M8.46688 0C3.53962 5.56994 1.48599 10.8813 0.562589 14.7891C0.030712 17.0644 -0.523327 20.662 0.998433 34.4834C1.4786 38.8788 2.24687 44.855 3.48053 51.9541C3.04468 56.7927 2.90433 62.5325 3.48053 68.9446C4.31528 78.2525 6.40585 86.0533 8.48904 91.9926C10.7274 91.7636 12.9657 91.5272 15.1966 91.2982C15.1892 79.4639 15.3517 67.312 15.7211 54.872C16.1496 40.334 16.8366 26.2023 17.723 12.5213L16.94 1.01943C14.1107 0.679621 11.2888 0.339811 8.45949 0L8.46688 0Z" fill="#FC2454"/>
<path d="M36.294 49.1248C38.2959 63.1531 40.3052 77.1887 42.3071 91.217C39.3227 91.4386 36.3383 91.6676 33.3539 91.8892C32.9919 89.5622 32.3197 85.7948 31.0269 81.259C28.6852 73.0297 26.5577 70.1118 25.7081 63.9361C25.3388 61.2767 25.095 57.2064 26.0997 51.9984C24.7404 48.4452 23.4033 44.7664 22.1106 40.9841C19.4881 33.3162 17.2646 25.8995 15.3809 18.8004C15.9053 12.8759 16.4298 6.95136 16.9469 1.01945C19.466 0.73135 21.9924 0.450637 24.5114 0.162537C25.9889 1.69168 27.7248 3.79703 29.2983 6.53029C30.7019 8.97545 31.8764 11.7752 33.0215 16.4661C34.2182 21.3859 34.6023 25.1903 35.1711 32.5923C35.5331 37.261 35.9172 42.8309 36.2866 49.1248H36.294Z" fill="#FC2454"/>
<path d="M17.1101 24.3186C17.1101 24.3186 17.0658 24.3186 17.051 24.3039C16.9993 24.2669 16.9846 24.2004 17.0215 24.1487L19.0751 20.987C19.1121 20.9353 19.1786 20.9205 19.2303 20.9575C19.282 20.9944 19.2967 21.0609 19.2598 21.1126L17.2062 24.2743C17.2062 24.2743 17.1471 24.326 17.1101 24.326V24.3186Z" fill="#00030A"/>
<path d="M19.1637 21.1569C19.1046 21.1569 19.0603 21.1126 19.0529 21.0535L17.2578 2.423C17.2578 2.36391 17.2947 2.30481 17.3612 2.30481C17.4203 2.30481 17.4794 2.34175 17.4794 2.40084L19.2745 21.0313C19.2745 21.0904 19.2376 21.1495 19.1711 21.1495C19.1711 21.1495 19.1711 21.1495 19.1637 21.1495V21.1569Z" fill="#00030A"/>
<path d="M26.7577 52.2422C26.7134 52.2422 26.6765 52.22 26.6543 52.1757C26.6248 52.124 26.6543 52.0575 26.706 52.0279L27.3487 51.7251C27.4004 51.6955 27.4669 51.7251 27.4965 51.7768C27.526 51.8359 27.4965 51.895 27.4447 51.9245L26.8021 52.2274C26.8021 52.2274 26.7725 52.2348 26.7577 52.2348V52.2422Z" fill="#00030A"/>
</g>
<defs>
<clipPath id="clip0_156_69020">
<rect width="42.299" height="92" fill="white" transform="translate(0.00878906)"/>
</clipPath>
</defs>
</svg>
