<svg width="54" height="92" viewBox="0 0 54 92" fill="none" xmlns="http://www.w3.org/2000/svg">
<g clip-path="url(#clip0_156_67377)">
<path d="M48.8805 5.11362L47.5901 0.158508H47.5003H6.91148L5.44585 5.11362L0.907227 90.7638L16.5677 91.7883L17.5618 91.8534L27.1634 26.8791L36.7645 91.8534L53.4191 90.7638L48.8805 5.11362Z" fill="#0F0F0F"/>
<path d="M16.5635 91.7781L27.1587 23.7612L37.7545 91.7781" stroke="#404040" stroke-width="0.132518"/>
<path d="M36.5 90.0866L53.3214 89.0036" stroke="#404040" stroke-width="0.132518"/>
<path d="M17.7238 90.0866L0.902344 89.0036" stroke="#404040" stroke-width="0.132518"/>
<path d="M48.8883 5.32937L27.2351 5.33333L5.44141 5.10352" stroke="#404040" stroke-width="0.212205"/>
<path d="M48.8879 5.75508L27.2346 5.75904L5.41895 5.5213" stroke="#404040" stroke-width="0.132518"/>
<path d="M48.876 5.10349L47.5852 0.148376H47.4958H6.90659L5.44097 5.10349L0.902344 90.7536L16.5632 91.7781L17.5569 91.8433L27.1585 26.869L36.7601 91.8433L53.4147 90.7536L48.876 5.10349Z" stroke="#404040" stroke-width="0.296734"/>
<path d="M27.1582 27.3709V5.28357" stroke="#404040" stroke-width="0.212205"/>
<path d="M9.96875 1.07953V2.3576" stroke="#404040" stroke-width="0.225853" stroke-linecap="round"/>
<path d="M11.2002 1.07953V2.3576" stroke="#404040" stroke-width="0.225853" stroke-linecap="round"/>
<path d="M12.4326 1.07953V2.3576" stroke="#404040" stroke-width="0.225853" stroke-linecap="round"/>
<path d="M13.665 1.07953V2.3576" stroke="#404040" stroke-width="0.225853" stroke-linecap="round"/>
<path d="M14.8965 1.07953V2.3576" stroke="#404040" stroke-width="0.225853" stroke-linecap="round"/>
<path d="M16.1279 1.07953V2.3576" stroke="#404040" stroke-width="0.225853" stroke-linecap="round"/>
<path d="M17.3604 1.07953V2.3576" stroke="#404040" stroke-width="0.225853" stroke-linecap="round"/>
<path d="M18.5928 1.07953V2.3576" stroke="#404040" stroke-width="0.225853" stroke-linecap="round"/>
<path d="M19.8242 1.07953V2.3576" stroke="#404040" stroke-width="0.225853" stroke-linecap="round"/>
<path d="M21.0566 1.07953V2.3576" stroke="#404040" stroke-width="0.225853" stroke-linecap="round"/>
<path d="M22.2881 1.07953V2.3576" stroke="#404040" stroke-width="0.225853" stroke-linecap="round"/>
<path d="M23.5205 1.07953V2.3576" stroke="#404040" stroke-width="0.225853" stroke-linecap="round"/>
<path d="M24.752 1.07953V2.3576" stroke="#404040" stroke-width="0.225853" stroke-linecap="round"/>
<path d="M25.9844 1.07953V2.3576" stroke="#404040" stroke-width="0.225853" stroke-linecap="round"/>
<path d="M27.2168 1.07953V2.3576" stroke="#404040" stroke-width="0.225853" stroke-linecap="round"/>
<path d="M28.4482 1.07953V2.3576" stroke="#404040" stroke-width="0.225853" stroke-linecap="round"/>
<path d="M29.6807 1.07953V2.3576" stroke="#404040" stroke-width="0.225853" stroke-linecap="round"/>
<path d="M30.9121 1.07953V2.3576" stroke="#404040" stroke-width="0.225853" stroke-linecap="round"/>
<path d="M32.1445 1.07953V2.3576" stroke="#404040" stroke-width="0.225853" stroke-linecap="round"/>
<path d="M33.376 1.07953V2.3576" stroke="#404040" stroke-width="0.225853" stroke-linecap="round"/>
<path d="M34.6084 1.07953V2.3576" stroke="#404040" stroke-width="0.225853" stroke-linecap="round"/>
<path d="M35.8398 1.07953V2.3576" stroke="#404040" stroke-width="0.225853" stroke-linecap="round"/>
<path d="M37.0723 1.07953V2.3576" stroke="#404040" stroke-width="0.225853" stroke-linecap="round"/>
<path d="M38.3047 1.07953V2.3576" stroke="#404040" stroke-width="0.225853" stroke-linecap="round"/>
<path d="M39.5361 1.07953V2.3576" stroke="#404040" stroke-width="0.225853" stroke-linecap="round"/>
<path d="M40.7676 1.07953V2.3576" stroke="#404040" stroke-width="0.225853" stroke-linecap="round"/>
<path d="M42 1.07953V2.3576" stroke="#404040" stroke-width="0.225853" stroke-linecap="round"/>
<path d="M43.2324 1.07953V2.3576" stroke="#404040" stroke-width="0.225853" stroke-linecap="round"/>
<path d="M44.4639 1.07953V2.3576" stroke="#404040" stroke-width="0.225853" stroke-linecap="round"/>
<path d="M9.96875 3.18134V4.45941" stroke="#404040" stroke-width="0.225853" stroke-linecap="round"/>
<path d="M11.2012 3.18134V4.45941" stroke="#404040" stroke-width="0.225853" stroke-linecap="round"/>
<path d="M7.50488 1.07953V2.3576" stroke="#404040" stroke-width="0.225853" stroke-linecap="round"/>
<path d="M8.73633 1.07953V2.3576" stroke="#404040" stroke-width="0.225853" stroke-linecap="round"/>
<path d="M7.50488 3.18134V4.45941" stroke="#404040" stroke-width="0.225853" stroke-linecap="round"/>
<path d="M8.73633 3.18134V4.45941" stroke="#404040" stroke-width="0.225853" stroke-linecap="round"/>
<path d="M12.4326 3.18134V4.45941" stroke="#404040" stroke-width="0.225853" stroke-linecap="round"/>
<path d="M13.665 3.18134V4.45941" stroke="#404040" stroke-width="0.225853" stroke-linecap="round"/>
<path d="M14.8965 3.18134V4.45941" stroke="#404040" stroke-width="0.225853" stroke-linecap="round"/>
<path d="M16.1289 3.18134V4.45941" stroke="#404040" stroke-width="0.225853" stroke-linecap="round"/>
<path d="M17.3613 3.18134V4.45941" stroke="#404040" stroke-width="0.225853" stroke-linecap="round"/>
<path d="M18.5928 3.18134V4.45941" stroke="#404040" stroke-width="0.225853" stroke-linecap="round"/>
<path d="M19.8242 3.18134V4.45941" stroke="#404040" stroke-width="0.225853" stroke-linecap="round"/>
<path d="M21.0566 3.18134V4.45941" stroke="#404040" stroke-width="0.225853" stroke-linecap="round"/>
<path d="M22.2891 3.18134V4.45941" stroke="#404040" stroke-width="0.225853" stroke-linecap="round"/>
<path d="M23.5205 3.18134V4.45941" stroke="#404040" stroke-width="0.225853" stroke-linecap="round"/>
<path d="M24.7529 3.18134V4.45941" stroke="#404040" stroke-width="0.225853" stroke-linecap="round"/>
<path d="M25.9844 3.18134V4.45941" stroke="#404040" stroke-width="0.225853" stroke-linecap="round"/>
<path d="M27.2168 3.18134V4.45941" stroke="#404040" stroke-width="0.225853" stroke-linecap="round"/>
<path d="M28.4482 3.18134V4.45941" stroke="#404040" stroke-width="0.225853" stroke-linecap="round"/>
<path d="M29.6807 3.18134V4.45941" stroke="#404040" stroke-width="0.225853" stroke-linecap="round"/>
<path d="M30.9121 3.18134V4.45941" stroke="#404040" stroke-width="0.225853" stroke-linecap="round"/>
<path d="M32.1445 3.18134V4.45941" stroke="#404040" stroke-width="0.225853" stroke-linecap="round"/>
<path d="M33.377 3.18134V4.45941" stroke="#404040" stroke-width="0.225853" stroke-linecap="round"/>
<path d="M34.6084 3.18134V4.45941" stroke="#404040" stroke-width="0.225853" stroke-linecap="round"/>
<path d="M35.8408 3.18134V4.45941" stroke="#404040" stroke-width="0.225853" stroke-linecap="round"/>
<path d="M37.0723 3.18134V4.45941" stroke="#404040" stroke-width="0.225853" stroke-linecap="round"/>
<path d="M38.3047 3.18134V4.45941" stroke="#404040" stroke-width="0.225853" stroke-linecap="round"/>
<path d="M39.5361 3.18134V4.45941" stroke="#404040" stroke-width="0.225853" stroke-linecap="round"/>
<path d="M40.7686 3.18134V4.45941" stroke="#404040" stroke-width="0.225853" stroke-linecap="round"/>
<path d="M42 3.18134V4.45941" stroke="#404040" stroke-width="0.225853" stroke-linecap="round"/>
<path d="M43.2324 3.18134V4.45941" stroke="#404040" stroke-width="0.225853" stroke-linecap="round"/>
<path d="M44.4639 3.18134V4.45941" stroke="#404040" stroke-width="0.225853" stroke-linecap="round"/>
<path d="M45.6963 1.07953V2.3576" stroke="#404040" stroke-width="0.225853" stroke-linecap="round"/>
<path d="M46.9287 1.07953V2.3576" stroke="#404040" stroke-width="0.225853" stroke-linecap="round"/>
<path d="M45.6963 3.18134V4.45941" stroke="#404040" stroke-width="0.225853" stroke-linecap="round"/>
<path d="M46.9287 3.18134V4.45941" stroke="#404040" stroke-width="0.225853" stroke-linecap="round"/>
<path d="M21.4397 10.4456V21.4441C21.4397 22.2018 20.8097 22.8181 20.0353 22.8181H12.045C11.6637 22.8181 11.3071 22.6711 11.0408 22.4043C10.7744 22.1379 10.6322 21.7853 10.641 21.4124L10.8893 10.4456" stroke="#404040" stroke-width="0.132518"/>
<path d="M10.5569 10.4456H21.7796V21.4437C21.7796 22.3863 20.9985 23.1506 20.0348 23.1506H12.0446C11.0654 23.1506 10.2782 22.3625 10.3003 21.4045L10.5565 10.4451L10.5569 10.4456Z" stroke="#404040" stroke-width="0.212205"/>
<path d="M10.5068 12.5936H21.7797" stroke="#404040" stroke-width="0.132518"/>
<path d="M43.6799 10.4456V21.4441C43.6799 22.2018 43.0499 22.8181 42.2755 22.8181H34.2852C33.904 22.8181 33.5474 22.6711 33.281 22.4043C33.0146 22.1379 32.8724 21.7853 32.8812 21.4124L33.1296 10.4456" stroke="#404040" stroke-width="0.132518"/>
<path d="M32.7972 10.4456H44.0198V21.4437C44.0198 22.3863 43.2388 23.1506 42.2751 23.1506H34.2848C33.3057 23.1506 32.5185 22.3625 32.5405 21.4045L32.7967 10.4451L32.7972 10.4456Z" stroke="#404040" stroke-width="0.212205"/>
<path d="M32.7471 12.5936H44.0199" stroke="#404040" stroke-width="0.132518"/>
</g>
<defs>
<clipPath id="clip0_156_67377">
<rect width="52.824" height="92" fill="white" transform="translate(0.746094)"/>
</clipPath>
</defs>
</svg>
