<svg width="73" height="92" viewBox="0 0 73 92" fill="none" xmlns="http://www.w3.org/2000/svg">
<g clip-path="url(#clip0_156_67468)">
<path d="M72.7678 86.278C65.0588 88.6535 54.9744 90.9691 43.0374 91.7311C28.3813 92.6723 16.0111 90.9243 7.07702 88.9523C4.80615 82.3339 2.55023 73.9227 1.38491 64.0175C-0.0343787 51.9909 0.563218 41.6077 1.62395 33.7343C2.17673 30.1487 3.3271 25.2783 5.89677 19.9597C9.43753 12.6242 14.1137 7.72394 17.266 4.88535L15.7272 0C21.3895 1.10555 28.3216 1.97207 36.2547 1.94219C42.3352 1.91231 47.7883 1.37447 52.4645 0.627476C52.1358 1.88243 51.8221 3.12244 51.4934 4.3774C54.8847 7.709 59.4115 12.9977 62.8627 20.4976C64.7451 24.5911 65.8656 28.4008 66.5678 31.5979C68.6295 49.8246 70.7061 68.0513 72.7678 86.278Z" fill="#6B6BCD"/>
<path d="M54.4071 7.44008C48.5955 8.27671 41.9771 8.88925 34.6864 9.02371C27.0521 9.15817 20.1349 8.72491 14.0693 8.03767C14.8163 6.11042 15.5633 4.18318 16.3103 2.25593C22.0771 2.91328 28.6059 3.3316 35.7472 3.24196C41.6634 3.1822 47.1314 2.77882 52.0765 2.19617C52.8534 3.94414 53.6452 5.69211 54.4221 7.44008H54.4071Z" fill="#56291D"/>
<path d="M34.5669 9.90514C37.3722 9.90514 39.6464 8.50048 39.6464 6.76775C39.6464 5.03503 37.3722 3.63037 34.5669 3.63037C31.7615 3.63037 29.4873 5.03503 29.4873 6.76775C29.4873 8.50048 31.7615 9.90514 34.5669 9.90514Z" fill="white"/>
</g>
<defs>
<clipPath id="clip0_156_67468">
<rect width="72.2196" height="92" fill="white" transform="translate(0.548828)"/>
</clipPath>
</defs>
</svg>
