<svg width="28" height="28" viewBox="0 0 28 28" fill="none" xmlns="http://www.w3.org/2000/svg">
<mask id="mask0_51_36189" style="mask-type:alpha" maskUnits="userSpaceOnUse" x="0" y="0" width="28" height="28">
<rect width="28" height="28" fill="#D9D9D9"/>
</mask>
<g mask="url(#mask0_51_36189)">
<path d="M3.85898 23.9166C3.26966 23.9166 2.77083 23.7124 2.3625 23.3041C1.95417 22.8958 1.75 22.3969 1.75 21.8076V8.52565C1.75 7.93633 1.95417 7.4375 2.3625 7.02917C2.77083 6.62083 3.26966 6.41667 3.85898 6.41667H7.42178L9.58011 4.08333H16.1089V5.8333H10.3429L8.20254 8.16664H3.85898C3.75428 8.16664 3.66826 8.2003 3.60095 8.26761C3.53363 8.33493 3.49997 8.42094 3.49997 8.52565V21.8076C3.49997 21.9123 3.53363 21.9983 3.60095 22.0657C3.66826 22.133 3.75428 22.1666 3.85898 22.1666H21.8076C21.9123 22.1666 21.9983 22.133 22.0657 22.0657C22.133 21.9983 22.1666 21.9123 22.1666 21.8076V11.891H23.9166V21.8076C23.9166 22.3969 23.7124 22.8958 23.3041 23.3041C22.8958 23.7124 22.3969 23.9166 21.8076 23.9166H3.85898ZM22.1666 8.16664V5.8333H19.8333V4.08333H22.1666V1.75H23.9166V4.08333H26.2499V5.8333H23.9166V8.16664H22.1666ZM12.8333 19.9679C14.172 19.9679 15.3069 19.5023 16.2379 18.5713C17.169 17.6402 17.6345 16.5053 17.6345 15.1666C17.6345 13.828 17.169 12.6931 16.2379 11.762C15.3069 10.8309 14.172 10.3654 12.8333 10.3654C11.4946 10.3654 10.3598 10.8309 9.42868 11.762C8.4976 12.6931 8.03206 13.828 8.03206 15.1666C8.03206 16.5053 8.4976 17.6402 9.42868 18.5713C10.3598 19.5023 11.4946 19.9679 12.8333 19.9679ZM12.8333 18.2179C11.9718 18.2179 11.2478 17.9248 10.6615 17.3384C10.0752 16.7521 9.782 16.0282 9.782 15.1666C9.782 14.3051 10.0752 13.5812 10.6615 12.9948C11.2478 12.4085 11.9718 12.1153 12.8333 12.1153C13.6948 12.1153 14.4188 12.4085 15.0051 12.9948C15.5914 13.5812 15.8846 14.3051 15.8846 15.1666C15.8846 16.0282 15.5914 16.7521 15.0051 17.3384C14.4188 17.9248 13.6948 18.2179 12.8333 18.2179Z" fill="#0097A7"/>
</g>
</svg>
