<svg width="24" height="24" viewBox="0 0 24 24" fill="none" xmlns="http://www.w3.org/2000/svg">
<path d="M12 6.6C12 8.03217 11.431 9.40568 10.4183 10.4184C9.40563 11.4311 8.03212 12 6.59995 12C5.16778 12 3.79427 11.4311 2.78157 10.4184C1.76888 9.40568 1.19995 8.03217 1.19995 6.6C1.19995 5.16783 1.76888 3.79432 2.78157 2.78162C3.79427 1.76892 5.16778 1.2 6.59995 1.2C8.03212 1.2 9.40563 1.76892 10.4183 2.78162C11.431 3.79432 12 5.16783 12 6.6ZM7.19995 4.2C7.19995 4.04087 7.13674 3.88825 7.02422 3.77573C6.91169 3.66321 6.75908 3.6 6.59995 3.6C6.44082 3.6 6.28821 3.66321 6.17569 3.77573C6.06317 3.88825 5.99995 4.04087 5.99995 4.2V6H4.19995C4.04082 6 3.88821 6.06321 3.77569 6.17573C3.66317 6.28826 3.59995 6.44087 3.59995 6.6C3.59995 6.75913 3.66317 6.91174 3.77569 7.02426C3.88821 7.13678 4.04082 7.2 4.19995 7.2H5.99995V9C5.99995 9.15913 6.06317 9.31174 6.17569 9.42426C6.28821 9.53678 6.44082 9.6 6.59995 9.6C6.75908 9.6 6.91169 9.53678 7.02422 9.42426C7.13674 9.31174 7.19995 9.15913 7.19995 9V7.2H8.99995C9.15908 7.2 9.31169 7.13678 9.42422 7.02426C9.53674 6.91174 9.59995 6.75913 9.59995 6.6C9.59995 6.44087 9.53674 6.28826 9.42422 6.17573C9.31169 6.06321 9.15908 6 8.99995 6H7.19995V4.2ZM16.8 4.8H12.9516C12.8341 4.38548 12.6762 3.98354 12.48 3.6H16.8C17.7547 3.6 18.6704 3.97928 19.3455 4.65441C20.0207 5.32954 20.4 6.24522 20.4 7.2V16.8C20.4 17.7548 20.0207 18.6705 19.3455 19.3456C18.6704 20.0207 17.7547 20.4 16.8 20.4H7.19995C6.24517 20.4 5.3295 20.0207 4.65437 19.3456C3.97924 18.6705 3.59995 17.7548 3.59995 16.8V12.48C3.98035 12.6744 4.38115 12.8328 4.79995 12.9516V16.8C4.79995 17.2476 4.92235 17.6664 5.13595 18.024L10.7388 12.5184C11.0753 12.1879 11.5282 12.0027 12 12.0027C12.4717 12.0027 12.9246 12.1879 13.2612 12.5184L18.8652 18.024C19.0851 17.6537 19.2008 17.2307 19.2 16.8V7.2C19.2 6.56348 18.9471 5.95303 18.497 5.50294C18.0469 5.05285 17.4365 4.8 16.8 4.8ZM16.8 9C16.8 9.23638 16.7534 9.47044 16.6629 9.68883C16.5725 9.90721 16.4399 10.1056 16.2727 10.2728C16.1056 10.4399 15.9072 10.5725 15.6888 10.663C15.4704 10.7534 15.2363 10.8 15 10.8C14.7636 10.8 14.5295 10.7534 14.3111 10.663C14.0927 10.5725 13.8943 10.4399 13.7272 10.2728C13.56 10.1056 13.4274 9.90721 13.337 9.68883C13.2465 9.47044 13.2 9.23638 13.2 9C13.2 8.52261 13.3896 8.06477 13.7272 7.7272C14.0647 7.38964 14.5226 7.2 15 7.2C15.4773 7.2 15.9352 7.38964 16.2727 7.7272C16.6103 8.06477 16.8 8.52261 16.8 9ZM15.6 9C15.6 8.84087 15.5367 8.68826 15.4242 8.57573C15.3117 8.46321 15.1591 8.4 15 8.4C14.8408 8.4 14.6882 8.46321 14.5757 8.57573C14.4632 8.68826 14.4 8.84087 14.4 9C14.4 9.15913 14.4632 9.31174 14.5757 9.42426C14.6882 9.53678 14.8408 9.6 15 9.6C15.1591 9.6 15.3117 9.53678 15.4242 9.42426C15.5367 9.31174 15.6 9.15913 15.6 9ZM5.98555 18.8712C6.35368 19.0874 6.77304 19.2009 7.19995 19.2H16.8C17.244 19.2 17.658 19.08 18.0144 18.8712L12.42 13.3752C12.3078 13.2653 12.157 13.2037 12 13.2037C11.8429 13.2037 11.6921 13.2653 11.58 13.3752L5.98555 18.8712Z" fill="#707070"/>
</svg>
