<svg width="38" height="41" viewBox="0 0 38 41" fill="none" xmlns="http://www.w3.org/2000/svg">
<path d="M18.2111 0.760849L15.4659 3.72927C15.3043 3.90401 15.2103 4.13065 15.2009 4.36846L14.9325 11.1132C14.9188 11.4575 14.7287 11.7705 14.4296 11.9416L1.68534 19.2272C1.37385 19.4053 1.18164 19.7366 1.18164 20.0953V24.7379C1.18164 25.4364 1.87947 25.9197 2.53331 25.674L14.0672 21.3411C14.7211 21.0955 15.4189 21.5788 15.4189 22.2772V29.489C15.4189 29.8099 15.2649 30.1114 15.0048 30.2994L9.18544 34.507C8.79138 34.792 8.6594 35.3191 8.87272 35.7561L10.4564 39.0005C10.7171 39.5345 11.3831 39.7247 11.8865 39.409L18.4001 35.3228C18.7163 35.1245 19.1166 35.1187 19.4383 35.3079L26.4874 39.4523C26.9898 39.7477 27.6373 39.5527 27.8929 39.029L29.4948 35.7473C29.7062 35.3142 29.5787 34.7919 29.1914 34.505L23.5144 30.2998C23.2598 30.1112 23.1096 29.8131 23.1096 29.4963V22.26C23.1096 21.5663 23.7986 21.0833 24.4507 21.32L35.8405 25.4528C36.4926 25.6894 37.1816 25.2064 37.1816 24.5127V19.8689C37.1816 19.5016 36.9803 19.1639 36.6571 18.9892L23.6341 11.9502C23.311 11.7755 23.1096 11.4378 23.1096 11.0704V4.58286C23.1096 4.31647 23.0033 4.0611 22.8143 3.87337L19.6499 0.730315C19.2482 0.331257 18.5955 0.345108 18.2111 0.760849Z" stroke="black" stroke-width="0.843636"/>
</svg>
