<svg width="45" height="26" viewBox="0 0 45 26" fill="none" xmlns="http://www.w3.org/2000/svg">
<g clip-path="url(#clip0_61_2679)">
<path d="M23.9433 20.9791L23.9561 21.0657C20.0675 21.5833 15.2582 22.1449 12.6587 22.1452V22.0577C12.2202 22.0577 11.8486 22.0424 11.5567 22.0072L11.5565 22.0072L8.68098 20.4261C9.78272 20.7614 10.7628 20.9759 11.675 21.0831C13.2006 21.2618 17.5396 20.8942 23.8943 20.0465L24.03 20.9676C24.0012 20.9714 23.9723 20.9753 23.9433 20.9791ZM23.9433 20.9791L23.8204 20.1447C20.6798 20.5626 18.0342 20.8628 15.9812 21.0369C13.9123 21.2123 12.4377 21.2605 11.6648 21.17L11.6648 21.17C10.7464 21.062 9.76109 20.8463 8.6555 20.5098M23.9433 20.9791C20.0528 21.4969 15.2489 22.0577 12.6569 22.0577L8.6555 20.5098M8.6555 20.5098C7.18348 20.0634 5.83797 19.4456 4.65354 18.6696C3.49717 17.9126 2.68566 17.1922 2.17944 16.4678L2.17933 16.4677C1.9186 16.0929 1.74145 15.7151 1.65617 15.3464L1.65615 15.3463C1.30044 13.7996 1.78951 12.0835 2.9331 10.8619C5.48837 8.1318 7.93458 6.36356 10.2025 5.61837L10.2027 5.61832C11.0526 5.34077 12.3269 4.97334 13.4978 5.02517L13.4981 5.02518C15.2554 5.10768 16.9735 5.81524 18.6189 6.49287L18.6209 6.49368L18.621 6.49375L19.1322 6.70297L8.6555 20.5098ZM8.35725 21.3963C9.52338 21.7503 10.5679 21.9784 11.5462 22.0941C11.8427 22.1298 12.2177 22.1451 12.6569 22.1452L37.9439 10.4184L37.8421 10.539L37.842 10.5392C36.7432 11.8348 34.9916 12.0035 32.3927 11.1392L32.3927 11.1392C30.8838 10.6367 29.6356 10.1868 28.4605 9.72144L28.4604 9.72142C26.8153 9.06895 25.1615 8.35355 23.5645 7.66088C23.5644 7.66087 23.5644 7.66086 23.5644 7.66086L23.4528 7.61253C22.155 7.05051 20.8173 6.4712 19.4848 5.92892L19.4844 5.92878L18.9765 5.71944C17.2374 5.00356 15.4575 4.27154 13.54 4.18215L13.5399 4.18215C12.2175 4.11998 10.8374 4.51522 9.90663 4.82125L9.90662 4.82125C7.5026 5.61143 4.93012 7.45183 2.26139 10.3041C0.933307 11.7241 0.367023 13.7252 0.782166 15.5249C0.890132 15.9922 1.10841 16.4637 1.43226 16.9294C1.9976 17.7389 2.88365 18.535 4.14486 19.3606L4.14488 19.3606C5.40007 20.1829 6.82678 20.8399 8.38267 21.3125C8.38267 21.3125 8.38268 21.3125 8.38268 21.3125L8.35725 21.3963ZM8.35725 21.3963C6.79406 20.9214 5.35965 20.261 4.09694 19.4338L8.35725 21.3963ZM39.1563 8.89682L39.1562 8.89696C38.7904 9.42173 38.3584 9.93036 37.9441 10.4182L39.1563 8.89682ZM39.1563 8.89682C39.4194 8.51783 39.6283 8.10725 39.846 7.67953L39.851 7.66962L39.8511 7.66957M39.1563 8.89682L39.8511 7.66957M39.8511 7.66957C39.9817 7.41247 40.1132 7.15544 40.2551 6.90552C40.7731 5.99376 41.3101 5.51409 41.8042 5.28562C42.2973 5.05762 42.7571 5.07534 43.1304 5.17659C43.8308 5.36713 44.1677 5.82494 44.3296 6.35206C44.4934 6.88555 44.4763 7.4854 44.4628 7.94738L44.4628 7.94755L44.4625 7.95908C44.459 8.08583 44.4556 8.2107 44.4556 8.32609V14.4229C44.4556 15.394 44.1617 16.2079 43.6049 16.8392C43.0474 17.4713 42.2204 17.9268 41.1436 18.1689L41.1435 18.1689C40.5367 18.3061 39.9152 18.4061 39.3103 18.5032L39.3241 18.5896L39.8511 7.66957ZM33.3593 18.5572C34.9636 18.3002 36.6216 18.033 38.0399 17.7726M33.3593 18.5572C33.1412 18.5926 32.9254 18.6272 32.7131 18.6613C32.4044 18.7108 32.1031 18.7591 31.8127 18.8068L31.8282 18.8929M33.3593 18.5572L33.3732 18.6436C33.3732 18.6436 33.3733 18.6436 33.3733 18.6436M33.3593 18.5572L33.3733 18.6436M38.0399 17.7726L33.6301 19.5464L33.5364 19.5614M38.0399 17.7726C38.4066 17.7045 38.7768 17.6449 39.1471 17.5853L38.0399 17.7726ZM31.8282 18.8929C31.7993 18.8977 31.7706 18.9024 31.7419 18.9072L31.907 19.8253M31.8282 18.8929L31.9779 19.7249M31.8282 18.8929C32.118 18.8453 32.4185 18.7971 32.7265 18.7477C32.9389 18.7137 33.1548 18.679 33.3733 18.6436M31.907 19.8253C32.4221 19.7402 32.9712 19.6516 33.5364 19.5614M31.907 19.8253L31.9931 19.8098L31.9779 19.7249M31.907 19.8253L31.8928 19.7389C31.921 19.7343 31.9494 19.7296 31.9779 19.7249M33.5364 19.5614L33.5225 19.475L33.5225 19.475C33.5226 19.475 33.5226 19.475 33.5226 19.475L33.5364 19.5614ZM31.9779 19.7249L19.1324 6.70303C20.4927 7.25662 21.8653 7.851 23.1923 8.42623L23.1923 8.42624C24.7968 9.12248 26.4553 9.84187 28.1153 10.4983L28.1153 10.4983C29.3047 10.969 30.5694 11.4246 32.0957 11.9332C32.6537 12.1187 33.7693 12.4894 34.9963 12.5183C36.2217 12.547 37.548 12.2348 38.542 11.0642L38.5422 11.064L38.6439 10.9452L38.6442 10.9449L38.6678 10.917C39.09 10.418 39.5234 9.90595 39.9052 9.35855L39.9052 9.35847C40.1986 8.93887 40.4258 8.49262 40.6482 8.05594L40.6591 8.03448L40.6593 8.03416C40.677 7.99968 40.6947 7.96509 40.7125 7.93045C40.8196 7.72153 40.928 7.51023 41.0456 7.30404C41.2433 6.95524 41.5017 6.57733 41.8075 6.31083C42.1136 6.04403 42.4802 5.87864 42.8847 5.98809L42.8848 5.98811C43.0405 6.03038 43.1676 6.10199 43.2678 6.20754C43.3675 6.31253 43.4361 6.44639 43.4829 6.6065C43.5754 6.92304 43.5869 7.35962 43.57 7.92362L43.5699 7.92428C43.5646 8.06673 43.561 8.20168 43.561 8.32609V14.4229C43.561 15.192 43.3404 15.8286 42.8965 16.3218C42.4537 16.8138 41.7962 17.1549 40.937 17.349L40.9369 17.349C40.3844 17.4731 39.8029 17.5675 39.2418 17.6586L39.1611 17.6717L39.161 17.6717C38.7906 17.7313 38.4214 17.7907 38.0559 17.8586L38.0557 17.8586C36.6363 18.1192 34.9774 18.3866 33.3733 18.6436" fill="#272525" stroke="#CCCCCC" stroke-width="0.175"/>
<path d="M31.6722 25.0435L31.6721 25.0435C30.2737 24.734 29.5205 24.4188 28.2495 23.781C26.9412 23.1242 25.3253 22.0073 24.2329 21.2523L24.1896 21.2224C24.1896 21.2224 24.1895 21.2224 24.1895 21.2223C23.9899 21.083 23.7586 20.9263 23.5094 20.7575C23.4564 20.7216 23.4025 20.6851 23.348 20.6481L23.348 20.6481L23.346 20.6468C22.3412 19.9667 21.0972 19.1247 20.3673 18.4977C19.5496 17.7942 18.9014 17.1927 18.2755 16.6107L18.2754 16.6106L18.2582 16.5946C17.6912 16.0686 17.1046 15.5243 16.381 14.8947L16.381 14.8947C16.2461 14.7777 16.2025 14.5944 16.2669 14.4337C16.3334 14.2725 16.497 14.1632 16.6849 14.1632H27.1944C27.3212 14.1632 27.4432 14.215 27.5284 14.3032C27.5284 14.3032 27.5285 14.3032 27.5285 14.3033L31.76 18.7131C31.9489 18.91 32.1447 19.1015 32.3397 19.2904C32.3615 19.3118 32.3833 19.3332 32.405 19.3546C32.605 19.5509 32.8033 19.7455 32.9957 19.9469C33.4879 20.466 34.0494 21.2131 34.4994 21.9426C34.8075 22.4428 34.9221 22.9433 34.8593 23.3952C34.7965 23.8462 34.5559 24.2569 34.1379 24.5778L34.1378 24.5779C33.6759 24.9338 33.0622 25.1248 32.4133 25.1248H32.4098C32.1657 25.1248 31.9181 25.0983 31.6722 25.0435ZM26.9583 15.0077H18.0746L17.9495 14.8939V15.0918V15.0952V15.1827H18.0069C18.315 15.4633 18.6025 15.7304 18.8853 15.993L18.9022 16.0087L18.9022 16.0087L18.9301 16.0346C19.569 16.6276 20.1758 17.1907 20.9705 17.873C21.6622 18.468 22.8847 19.296 23.8617 19.9577L23.8687 19.9624L23.8688 19.9624C24.1836 20.1752 24.4747 20.3724 24.7192 20.5422L24.7192 20.5422C25.7819 21.2799 27.397 22.3987 28.6682 23.037L28.6682 23.037C29.9174 23.6638 30.5933 23.9392 31.8757 24.2237L31.8758 24.2238C32.5046 24.3624 33.1391 24.2577 33.5685 23.9268C33.8766 23.6895 33.9865 23.4056 33.9793 23.1231C33.9722 22.8467 33.8534 22.58 33.722 22.3665L33.7219 22.3665C33.3081 21.6952 32.7733 20.9839 32.3249 20.509C32.1196 20.2913 31.9054 20.0824 31.6926 19.8764L31.6911 19.875C31.4894 19.6779 31.2871 19.4803 31.0938 19.2795L27.0214 15.0346L26.9956 15.0077H26.9583Z" fill="#272525" stroke="#CCCCCC" stroke-width="0.175"/>
<path d="M35.8692 3.79133L35.8692 3.79141L35.7853 4.03443C35.7853 4.0345 35.7852 4.03456 35.7852 4.03463C34.8726 6.71575 33.7105 9.45603 32.7707 11.6692L33.5981 11.9876C34.5458 9.75732 35.7139 7.00151 36.6373 4.2912L36.6374 4.29104L36.7196 4.05105L36.7197 4.05083C36.9042 3.51737 37.0919 2.97108 37.2086 2.40895L35.8692 3.79133ZM35.8692 3.79133C36.0424 3.28845 36.2232 2.76067 36.33 2.2471L36.3301 2.24702M35.8692 3.79133L36.3301 2.24702M36.3301 2.24702C36.3564 2.11997 36.3515 2.02587 36.3318 1.95513C36.3117 1.88311 36.2779 1.84242 36.2617 1.82291L36.2616 1.82279L36.2616 1.82278M36.3301 2.24702L36.2616 1.82278M36.2616 1.82278L36.2609 1.8219M36.2616 1.82278L36.2609 1.8219M36.2609 1.8219C36.1795 1.72636 36.0301 1.63474 35.768 1.56456C35.5049 1.49414 35.1201 1.44315 34.5573 1.43543M36.2609 1.8219L30.8317 2.21293M30.8317 2.21293L30.8317 2.2129C31.303 1.79897 31.9481 1.6019 32.6127 1.50903C33.2782 1.41604 33.9751 1.42609 34.5573 1.43543M30.8317 2.21293C30.3786 2.61138 29.9864 3.07779 29.5948 3.55592C29.2639 3.95885 28.927 4.3548 28.5891 4.75205C28.5551 4.79202 28.5211 4.832 28.487 4.87201C28.3028 5.08815 28.1185 5.30444 27.9342 5.52245L27.9341 5.52249M30.8317 2.21293L27.9341 5.52249M34.5573 1.43543C34.5573 1.43543 34.5574 1.43543 34.5574 1.43543L34.556 1.52292L34.5572 1.43543C34.5572 1.43543 34.5573 1.43543 34.5573 1.43543ZM27.9341 5.52249L25.0565 8.92928L24.3622 8.39753L27.2343 4.99717C27.2343 4.99716 27.2343 4.99715 27.2344 4.99714C27.3263 4.88837 27.4188 4.77959 27.5113 4.67072L27.5114 4.67054L27.5115 4.67043C27.604 4.56154 27.6966 4.45257 27.7888 4.34358L27.7889 4.34343C28.1571 3.91137 28.526 3.47855 28.886 3.0388C29.3062 2.52663 29.7208 2.03625 30.2211 1.59543C30.8131 1.07506 31.5607 0.818549 32.3332 0.69532C33.105 0.572199 33.8941 0.583169 34.5679 0.592536L34.5709 0.592577L34.5721 0.505086M27.9341 5.52249L34.5721 0.505086M34.5721 0.505086L34.5709 0.592577C35.0001 0.59851 35.4727 0.625244 35.9023 0.726625C36.3327 0.828168 36.71 1.00231 36.9593 1.29538L36.9595 1.29561M34.5721 0.505086L36.9595 1.29561M36.9595 1.29561C37.1346 1.49997 37.322 1.85949 37.2086 2.40893L36.9595 1.29561Z" fill="#272525" stroke="#CCCCCC" stroke-width="0.175"/>
<path d="M13.7587 12.6793H1.5499V11.8365H13.7587C14.2679 11.8365 14.6903 11.4405 14.6903 10.9456V9.53801C14.6903 9.04311 14.2679 8.64713 13.7587 8.64713H5.08765V7.8043H13.7587C14.7698 7.8043 15.5867 8.5862 15.5867 9.53971V10.9473C15.5867 11.8717 14.818 12.6372 13.8462 12.6808V12.6793H13.7587Z" fill="#272525" stroke="#CCCCCC" stroke-width="0.175"/>
<path d="M6.30381 11.8232V8.3115H7.19836V11.8232H6.30381Z" fill="#272525" stroke="#CCCCCC" stroke-width="0.175"/>
<path d="M10.1385 11.8232V8.3115H11.0331V11.8232H10.1385Z" fill="#272525" stroke="#CCCCCC" stroke-width="0.175"/>
</g>
<defs>
<clipPath id="clip0_61_2679">
<rect width="44" height="24.7123" fill="white" transform="translate(0.561035 0.5)"/>
</clipPath>
</defs>
</svg>
