<svg width="32" height="32" viewBox="0 0 32 32" fill="none" xmlns="http://www.w3.org/2000/svg">
<mask id="mask0_96_7644" style="mask-type:alpha" maskUnits="userSpaceOnUse" x="0" y="0" width="32" height="32">
<rect width="32" height="32" fill="#D9D9D9"/>
</mask>
<g mask="url(#mask0_96_7644)">
<path d="M22.1487 17.0001H7C6.71624 17.0001 6.47864 16.9044 6.2872 16.713C6.09573 16.5215 6 16.2839 6 16.0002C6 15.7164 6.09573 15.4788 6.2872 15.2874C6.47864 15.0959 6.71624 15.0002 7 15.0002H22.1487L17.7589 10.6104C17.5606 10.4121 17.4628 10.1801 17.4654 9.91426C17.4679 9.64846 17.5658 9.41213 17.7589 9.20529C17.9658 8.99847 18.2034 8.89163 18.4717 8.88479C18.7401 8.87794 18.9777 8.97794 19.1845 9.18479L25.1563 15.1566C25.2811 15.2814 25.3691 15.413 25.4204 15.5515C25.4717 15.6899 25.4974 15.8395 25.4974 16.0002C25.4974 16.1608 25.4717 16.3104 25.4204 16.4489C25.3691 16.5873 25.2811 16.7189 25.1563 16.8437L19.1845 22.8155C18.9863 23.0138 18.7508 23.1117 18.4782 23.1091C18.2055 23.1065 17.9658 23.0018 17.7589 22.795C17.5658 22.5882 17.4658 22.354 17.4589 22.0925C17.4521 21.8309 17.5521 21.5967 17.7589 21.3899L22.1487 17.0001Z" fill="#1C1B1F"/>
</g>
</svg>
