<svg width="32" height="32" viewBox="0 0 32 32" fill="none" xmlns="http://www.w3.org/2000/svg">
<mask id="mask0_96_7645" style="mask-type:alpha" maskUnits="userSpaceOnUse" x="0" y="0" width="32" height="32">
<rect x="32" y="32" width="32" height="32" transform="rotate(-180 32 32)" fill="#D9D9D9"/>
</mask>
<g mask="url(#mask0_96_7645)">
<path d="M9.85126 14.9999L25 14.9999C25.2838 14.9999 25.5214 15.0956 25.7128 15.287C25.9043 15.4785 26 15.7161 26 15.9998C26 16.2836 25.9043 16.5212 25.7128 16.7126C25.5214 16.9041 25.2838 16.9998 25 16.9998H9.85126L14.2411 21.3896C14.4394 21.5879 14.5372 21.8199 14.5346 22.0857C14.5321 22.3515 14.4342 22.5879 14.2411 22.7947C14.0342 23.0015 13.7966 23.1084 13.5283 23.1152C13.2599 23.1221 13.0223 23.0221 12.8155 22.8152L6.84367 16.8434C6.71889 16.7186 6.63085 16.587 6.57957 16.4485C6.52828 16.3101 6.50263 16.1605 6.50263 15.9998C6.50263 15.8392 6.52828 15.6896 6.57957 15.5511C6.63085 15.4127 6.71889 15.2811 6.84367 15.1563L12.8155 9.18448C13.0137 8.98619 13.2492 8.88832 13.5218 8.89088C13.7945 8.89345 14.0342 8.99815 14.2411 9.20498C14.4342 9.41182 14.5342 9.64601 14.5411 9.90754C14.5479 10.1691 14.4479 10.4033 14.2411 10.6101L9.85126 14.9999Z" fill="#1C1B1F"/>
</g>
</svg>
