<svg width="20" height="20" viewBox="0 0 20 20" fill="none" xmlns="http://www.w3.org/2000/svg">
<mask id="mask0_29_4333" style="mask-type:alpha" maskUnits="userSpaceOnUse" x="0" y="0" width="20" height="20">
<rect width="20" height="20" fill="#D9D9D9"/>
</mask>
<g mask="url(#mask0_29_4333)">
<path d="M10.0004 12.2179C9.89996 12.2179 9.80648 12.2019 9.71996 12.1698C9.63341 12.1378 9.55115 12.0828 9.47316 12.0048L5.72798 8.25959C5.61259 8.14421 5.55142 8.00132 5.54448 7.83092C5.53753 7.66052 5.5987 7.51068 5.72798 7.3814C5.8487 7.26068 5.99506 7.20032 6.16706 7.20032C6.33906 7.20032 6.48542 7.26068 6.60614 7.3814L10.0004 10.7628L13.3946 7.3814C13.51 7.26602 13.6529 7.20486 13.8233 7.19792C13.9937 7.19097 14.1435 7.25213 14.2728 7.3814C14.3935 7.50212 14.4539 7.64849 14.4539 7.8205C14.4539 7.9925 14.3935 8.13886 14.2728 8.25959L10.5276 12.0048C10.4496 12.0828 10.3674 12.1378 10.2808 12.1698C10.1943 12.2019 10.1008 12.2179 10.0004 12.2179Z" fill="#919191"/>
</g>
</svg>
