<svg width="24" height="24" viewBox="0 0 24 24" fill="none" xmlns="http://www.w3.org/2000/svg">
<mask id="mask0_20_2626" style="mask-type:alpha" maskUnits="userSpaceOnUse" x="0" y="0" width="24" height="24">
<rect width="24" height="24" fill="#D9D9D9"/>
</mask>
<g mask="url(#mask0_20_2626)">
<path d="M6.58423 11.1327V6.58466H11.1323V11.1327H6.58423ZM6.58423 17.4154V12.8673H11.1323V17.4154H6.58423ZM12.8669 11.1327V6.58466H17.4149V11.1327H12.8669ZM12.8669 17.4154V12.8673H17.4149V17.4154H12.8669ZM5.30731 21.15C4.62343 21.15 4.04284 20.9113 3.56556 20.434C3.08826 19.9568 2.84961 19.3762 2.84961 18.6923V5.30774C2.84961 4.62385 3.08826 4.04327 3.56556 3.56599C4.04284 3.08869 4.62343 2.85004 5.30731 2.85004H18.6919C19.3757 2.85004 19.9563 3.08869 20.4336 3.56599C20.9109 4.04327 21.1496 4.62385 21.1496 5.30774V18.6923C21.1496 19.3762 20.9109 19.9568 20.4336 20.434C19.9563 20.9113 19.3757 21.15 18.6919 21.15H5.30731ZM5.30731 19H18.6919C18.7688 19 18.8393 18.968 18.9034 18.9039C18.9675 18.8397 18.9996 18.7692 18.9996 18.6923V5.30774C18.9996 5.2308 18.9675 5.16028 18.9034 5.09616C18.8393 5.03206 18.7688 5.00001 18.6919 5.00001H5.30731C5.23038 5.00001 5.15985 5.03206 5.09573 5.09616C5.03163 5.16028 4.99958 5.2308 4.99958 5.30774V18.6923C4.99958 18.7692 5.03163 18.8397 5.09573 18.9039C5.15985 18.968 5.23038 19 5.30731 19Z" fill="white"/>
</g>
</svg>
