<svg width="20" height="20" viewBox="0 0 20 20" fill="none" xmlns="http://www.w3.org/2000/svg">
<mask id="mask0_29_4254" style="mask-type:alpha" maskUnits="userSpaceOnUse" x="0" y="0" width="20" height="20">
<rect width="20" height="20" fill="#D9D9D9"/>
</mask>
<g mask="url(#mask0_29_4254)">
<path d="M7.9588 12.6378L15.1367 5.45995C15.3125 5.28047 15.5212 5.18938 15.7629 5.1867C16.0046 5.18404 16.2179 5.27366 16.4027 5.45556C16.5875 5.63746 16.6799 5.84846 16.6799 6.08856C16.6799 6.32865 16.5875 6.54112 16.4027 6.72595L8.67353 14.4551C8.46986 14.6613 8.23225 14.7644 7.96069 14.7644C7.68914 14.7644 7.45026 14.6613 7.24407 14.4551L3.6399 10.851C3.46042 10.6752 3.37147 10.4664 3.37307 10.2247C3.37468 9.98303 3.46644 9.76977 3.64834 9.58495C3.83024 9.40012 4.04124 9.3077 4.28134 9.3077C4.52144 9.3077 4.73389 9.40012 4.91871 9.58495L7.9588 12.6378Z" fill="#434343"/>
</g>
</svg>
