<svg width="54" height="42" viewBox="0 0 54 42" fill="none" xmlns="http://www.w3.org/2000/svg">
<path d="M11.1484 27.8467C7.83733 27.565 1.17292 25.522 1.00384 19.6043C0.834767 13.6866 6.28747 11.2209 9.03495 10.7278C9.52808 9.53019 10.8948 6.9236 12.4164 6.07822C13.9381 5.23284 17.1365 5.72598 18.5454 6.07822C20.2362 4.31701 24.8013 0.836868 29.5354 1.00594C34.2695 1.17502 38.4119 4.45791 39.8913 6.07822C41.4412 5.72598 44.7945 5.48645 45.8089 7.34628C46.8234 9.20612 47.2179 11.08 47.2884 11.7845C49.2609 11.9959 53.1638 13.8557 52.9947 19.6043C52.8256 25.3529 46.8657 27.4945 43.9068 27.8467" stroke="black" stroke-width="0.84538"/>
<path d="M19.5494 22.231C18.828 22.231 18.1607 22.1138 17.5475 21.8794C16.9344 21.6359 16.4023 21.2977 15.9515 20.8649C15.5006 20.4231 15.1489 19.9091 14.8964 19.3229C14.644 18.7278 14.5177 18.0785 14.5177 17.3752C14.5177 16.6718 14.644 16.0271 14.8964 15.441C15.1489 14.8458 15.5006 14.3318 15.9515 13.899C16.4114 13.4571 16.9479 13.119 17.5611 12.8845C18.1743 12.6411 18.8415 12.5193 19.5629 12.5193C20.3114 12.5193 21.0012 12.6501 21.6324 12.9116C22.2636 13.1641 22.7957 13.5428 23.2285 14.0478L22.2276 15.0216C21.8759 14.6429 21.4791 14.3634 21.0373 14.183C20.6044 13.9937 20.1355 13.899 19.6306 13.899C19.1166 13.899 18.6432 13.9846 18.2103 14.156C17.7775 14.3273 17.3988 14.5708 17.0741 14.8864C16.7585 15.193 16.5105 15.5582 16.3302 15.982C16.1589 16.4058 16.0732 16.8702 16.0732 17.3752C16.0732 17.8802 16.1589 18.3446 16.3302 18.7684C16.5105 19.1922 16.7585 19.5619 17.0741 19.8775C17.3988 20.1841 17.7775 20.4231 18.2103 20.5944C18.6432 20.7657 19.1166 20.8514 19.6306 20.8514C20.1355 20.8514 20.6044 20.7612 21.0373 20.5809C21.4791 20.3915 21.8759 20.1029 22.2276 19.7152L23.2285 20.6891C22.7957 21.194 22.2636 21.5773 21.6324 21.8388C21.0012 22.1003 20.3069 22.231 19.5494 22.231ZM29.193 22.231C28.4626 22.231 27.7863 22.1093 27.1641 21.8658C26.5509 21.6224 26.0143 21.2842 25.5545 20.8514C25.1036 20.4095 24.7519 19.8955 24.4994 19.3094C24.2469 18.7143 24.1207 18.0695 24.1207 17.3752C24.1207 16.6718 24.2469 16.0271 24.4994 15.441C24.7519 14.8548 25.1036 14.3453 25.5545 13.9125C26.0143 13.4707 26.5509 13.128 27.1641 12.8845C27.7863 12.6411 28.4626 12.5193 29.193 12.5193C29.9234 12.5193 30.5952 12.6411 31.2084 12.8845C31.8215 13.119 32.3536 13.4571 32.8044 13.899C33.2643 14.3318 33.6205 14.8458 33.873 15.441C34.1255 16.0271 34.2517 16.6718 34.2517 17.3752C34.2517 18.0785 34.1255 18.7278 33.873 19.3229C33.6205 19.9091 33.2643 20.4231 32.8044 20.8649C32.3536 21.2977 31.8215 21.6359 31.2084 21.8794C30.5952 22.1138 29.9234 22.231 29.193 22.231ZM29.193 20.8514C29.6979 20.8514 30.1623 20.7657 30.5862 20.5944C31.01 20.414 31.3797 20.1706 31.6953 19.864C32.0109 19.5484 32.2544 19.1787 32.4257 18.7548C32.6061 18.331 32.6962 17.8711 32.6962 17.3752C32.6962 16.8702 32.6061 16.4103 32.4257 15.9955C32.2544 15.5717 32.0109 15.2065 31.6953 14.8999C31.3797 14.5843 31.01 14.3408 30.5862 14.1695C30.1623 13.9892 29.6979 13.899 29.193 13.899C28.688 13.899 28.2236 13.9892 27.7998 14.1695C27.376 14.3408 27.0017 14.5843 26.6771 14.8999C26.3615 15.2155 26.1135 15.5807 25.9332 15.9955C25.7619 16.4103 25.6762 16.8702 25.6762 17.3752C25.6762 17.8711 25.7619 18.331 25.9332 18.7548C26.1135 19.1696 26.3615 19.5394 26.6771 19.864C26.9927 20.1796 27.3624 20.4231 27.7863 20.5944C28.2191 20.7657 28.688 20.8514 29.193 20.8514ZM35.4802 17.6863V16.9965L37.9419 14.8458C38.2575 14.5663 38.4649 14.3453 38.5641 14.183C38.6633 14.0117 38.7129 13.8494 38.7129 13.6961C38.7129 13.4797 38.6137 13.2948 38.4153 13.1415C38.2169 12.9882 37.8968 12.9116 37.455 12.9116C37.1394 12.9116 36.8508 12.9657 36.5893 13.0739C36.3368 13.1731 36.1339 13.3219 35.9806 13.5203L35.2232 12.9386C35.4576 12.6411 35.7687 12.4111 36.1565 12.2488C36.5442 12.0775 37.0041 11.9918 37.5361 11.9918C38.2665 11.9918 38.8256 12.1496 39.2134 12.4652C39.6011 12.7718 39.795 13.1596 39.795 13.6285C39.795 13.899 39.7274 14.1605 39.5921 14.413C39.4659 14.6655 39.1863 14.9811 38.7535 15.3598L36.6434 17.1993L36.3594 16.8071H40.0385V17.6863H35.4802Z" fill="black"/>
<path d="M13.8085 35.9653C13.9736 36.1304 14.2412 36.1304 14.4063 35.9653L17.0963 33.2754C17.2614 33.1103 17.2614 32.8427 17.0963 32.6776C16.9312 32.5125 16.6636 32.5125 16.4985 32.6776L14.1074 35.0687L11.7163 32.6776C11.5513 32.5125 11.2836 32.5125 11.1186 32.6776C10.9535 32.8427 10.9535 33.1103 11.1186 33.2754L13.8085 35.9653ZM13.6847 24.6765V35.6665H14.5301V24.6765H13.6847Z" fill="black"/>
<path d="M40.6494 35.9653C40.8144 36.1304 41.0821 36.1304 41.2471 35.9653L43.9371 33.2754C44.1022 33.1103 44.1022 32.8427 43.9371 32.6776C43.772 32.5125 43.5044 32.5125 43.3393 32.6776L40.9482 35.0687L38.5571 32.6776C38.3921 32.5125 38.1244 32.5125 37.9594 32.6776C37.7943 32.8427 37.7943 33.1103 37.9594 33.2754L40.6494 35.9653ZM40.5256 24.6765V35.6665H41.3709V24.6765H40.5256Z" fill="black"/>
<path d="M33.8857 41.4603C34.0508 41.6254 34.3184 41.6254 34.4835 41.4603L37.1734 38.7703C37.3385 38.6053 37.3385 38.3376 37.1734 38.1726C37.0084 38.0075 36.7407 38.0075 36.5757 38.1726L34.1846 40.5636L31.7935 38.1726C31.6284 38.0075 31.3608 38.0075 31.1957 38.1726C31.0306 38.3376 31.0306 38.6053 31.1957 38.7703L33.8857 41.4603ZM33.7619 24.6765V41.1614H34.6073V24.6765H33.7619Z" fill="black"/>
<path d="M26.7001 35.9653C26.8652 36.1304 27.1328 36.1304 27.2979 35.9653L29.9879 33.2754C30.153 33.1103 30.153 32.8427 29.9879 32.6776C29.8228 32.5125 29.5552 32.5125 29.3901 32.6776L26.999 35.0687L24.6079 32.6776C24.4429 32.5125 24.1752 32.5125 24.0102 32.6776C23.8451 32.8427 23.8451 33.1103 24.0102 33.2754L26.7001 35.9653ZM26.5763 24.6765V35.6665H27.4217V24.6765H26.5763Z" fill="black"/>
<path d="M20.3603 41.4603C20.5254 41.6254 20.793 41.6254 20.9581 41.4603L23.648 38.7703C23.8131 38.6053 23.8131 38.3376 23.648 38.1726C23.483 38.0075 23.2153 38.0075 23.0503 38.1726L20.6592 40.5636L18.2681 38.1726C18.103 38.0075 17.8354 38.0075 17.6703 38.1726C17.5052 38.3376 17.5052 38.6053 17.6703 38.7703L20.3603 41.4603ZM20.2365 24.6765V41.1614H21.0819V24.6765H20.2365Z" fill="black"/>
</svg>
