<svg width="24" height="24" viewBox="0 0 24 24" fill="none" xmlns="http://www.w3.org/2000/svg">
<mask id="mask0_20_2751" style="mask-type:alpha" maskUnits="userSpaceOnUse" x="0" y="0" width="24" height="24">
<rect width="24" height="24" fill="#D9D9D9"/>
</mask>
<g mask="url(#mask0_20_2751)">
<path d="M12.2996 21.5846L12.0958 18.75H11.4996C9.16258 18.75 7.17834 17.9398 5.54686 16.3192C3.91536 14.6987 3.09961 12.7215 3.09961 10.3875C3.09961 8.05357 3.9182 6.07217 5.55538 4.44334C7.19255 2.81449 9.17636 2.00006 11.5068 2.00006C12.672 2.00006 13.761 2.21563 14.7737 2.64679C15.7864 3.07794 16.6734 3.67024 17.4346 4.42371C18.1959 5.17718 18.797 6.06134 19.238 7.07619C19.679 8.09102 19.8996 9.18229 19.8996 10.35C19.8996 11.5679 19.7101 12.7282 19.3313 13.8308C18.9524 14.9333 18.4246 15.9686 17.7476 16.9365C17.0707 17.9044 16.2674 18.7799 15.3376 19.5628C14.4078 20.3457 13.3951 21.0197 12.2996 21.5846ZM11.5271 15.8981C11.8062 15.8981 12.0438 15.8004 12.24 15.6051C12.4361 15.4099 12.5342 15.1727 12.5342 14.8936C12.5342 14.6145 12.4365 14.3769 12.2413 14.1808C12.046 13.9846 11.8088 13.8866 11.5297 13.8866C11.2507 13.8866 11.0131 13.9842 10.8169 14.1795C10.6208 14.3748 10.5227 14.612 10.5227 14.891C10.5227 15.1701 10.6203 15.4077 10.8156 15.6038C11.0109 15.8 11.2481 15.8981 11.5271 15.8981ZM10.8227 12.6731H12.165C12.1778 12.268 12.2589 11.9266 12.4082 11.649C12.5576 11.3715 12.8727 10.9923 13.3534 10.5115C13.697 10.168 13.9483 9.83133 14.1073 9.50166C14.2662 9.17201 14.3457 8.80736 14.3457 8.40771C14.3457 7.57181 14.065 6.9404 13.5034 6.51349C12.9419 6.08657 12.2803 5.87311 11.5188 5.87311C10.8009 5.87311 10.1951 6.08048 9.70151 6.49521C9.20793 6.90996 8.86113 7.38849 8.66113 7.93079L9.91036 8.41539C10.0275 8.12564 10.2092 7.84295 10.4554 7.56731C10.7015 7.29168 11.056 7.15386 11.5188 7.15386C12.0098 7.15386 12.3749 7.28494 12.614 7.54711C12.8531 7.80929 12.9727 8.10642 12.9727 8.43849C12.9727 8.74745 12.9086 9.00354 12.7804 9.20674C12.6522 9.40995 12.4201 9.66285 12.0842 9.96541C11.5355 10.4769 11.1881 10.8981 11.0419 11.2289C10.8958 11.5596 10.8227 12.041 10.8227 12.6731Z" fill="white"/>
</g>
</svg>
