<svg width="24" height="24" viewBox="0 0 24 24" fill="none" xmlns="http://www.w3.org/2000/svg">
<mask id="mask0_29_4251" style="mask-type:alpha" maskUnits="userSpaceOnUse" x="0" y="0" width="24" height="24">
<rect width="24" height="24" fill="#D9D9D9"/>
</mask>
<g mask="url(#mask0_29_4251)">
<path d="M14.5027 8.84999C14.1608 8.84999 13.8748 8.73502 13.6449 8.50509C13.415 8.27515 13.3 7.98725 13.3 7.64139V3.90861C13.3 3.56276 13.4156 3.27487 13.6469 3.04494C13.8782 2.81499 14.1648 2.70001 14.5068 2.70001H20.0973C20.4392 2.70001 20.7251 2.81499 20.955 3.04494C21.185 3.27487 21.3 3.56276 21.3 3.90861V7.64139C21.3 7.98725 21.1843 8.27515 20.953 8.50509C20.7217 8.73502 20.4351 8.84999 20.0932 8.84999H14.5027ZM3.95268 13.1C3.61078 13.1 3.32486 12.985 3.09492 12.7549C2.86497 12.5249 2.75 12.2399 2.75 11.8999V3.89984C2.75 3.55984 2.86565 3.27487 3.09695 3.04494C3.32825 2.81499 3.61486 2.70001 3.95678 2.70001H10.0973C10.4392 2.70001 10.7251 2.81502 10.9551 3.04504C11.185 3.27504 11.2999 3.56004 11.2999 3.90004V11.9001C11.2999 12.2401 11.1843 12.5251 10.953 12.755C10.7217 12.985 10.4351 13.1 10.0932 13.1H3.95268ZM14.5027 21.25C14.1608 21.25 13.8748 21.135 13.6449 20.9049C13.415 20.6749 13.3 20.3899 13.3 20.0499V12.0498C13.3 11.7098 13.4156 11.4249 13.6469 11.1949C13.8782 10.965 14.1648 10.85 14.5068 10.85H20.0973C20.4392 10.85 20.7251 10.965 20.955 11.195C21.185 11.425 21.3 11.71 21.3 12.05V20.0501C21.3 20.3901 21.1843 20.6751 20.953 20.905C20.7217 21.135 20.4351 21.25 20.0932 21.25H14.5027ZM3.95268 21.25C3.61078 21.25 3.32486 21.135 3.09492 20.905C2.86497 20.6751 2.75 20.3872 2.75 20.0414V16.3086C2.75 15.9627 2.86565 15.6748 3.09695 15.4449C3.32825 15.215 3.61486 15.1 3.95678 15.1H10.0973C10.4392 15.1 10.7251 15.215 10.9551 15.4449C11.185 15.6748 11.2999 15.9627 11.2999 16.3086V20.0414C11.2999 20.3872 11.1843 20.6751 10.953 20.905C10.7217 21.135 10.4351 21.25 10.0932 21.25H3.95268Z" fill="#434343"/>
</g>
</svg>
