<svg width="24" height="24" viewBox="0 0 24 24" fill="none" xmlns="http://www.w3.org/2000/svg">
<mask id="mask0_20_2644" style="mask-type:alpha" maskUnits="userSpaceOnUse" x="0" y="0" width="24" height="24">
<rect width="24" height="24" fill="#D9D9D9"/>
</mask>
<g mask="url(#mask0_20_2644)">
<path d="M5.1579 21.3C4.47401 21.3 3.89343 21.0613 3.41615 20.584C2.93885 20.1067 2.7002 19.5261 2.7002 18.8423V5.15771C2.7002 4.47383 2.93885 3.89325 3.41615 3.41596C3.89343 2.93866 4.47401 2.70001 5.1579 2.70001H18.8424C19.5263 2.70001 20.1069 2.93866 20.5842 3.41596C21.0615 3.89325 21.3001 4.47383 21.3001 5.15771V18.8423C21.3001 19.5261 21.0615 20.1067 20.5842 20.584C20.1069 21.0613 19.5263 21.3 18.8424 21.3H5.1579ZM11.9502 11.6076L14.6002 10.0115L17.2501 11.6076V4.84999H11.9502V11.6076Z" fill="white"/>
</g>
</svg>
