<svg width="24" height="24" viewBox="0 0 24 24" fill="none" xmlns="http://www.w3.org/2000/svg">
<mask id="mask0_29_4320" style="mask-type:alpha" maskUnits="userSpaceOnUse" x="0" y="0" width="24" height="24">
<rect width="24" height="24" fill="#D9D9D9"/>
</mask>
<g mask="url(#mask0_29_4320)">
<path d="M11.3962 12L7.41538 6.43073C7.23975 6.18074 7.2186 5.92146 7.35193 5.65288C7.48527 5.38429 7.70638 5.25 8.01528 5.25C8.13883 5.25 8.25621 5.27817 8.36741 5.3345C8.47863 5.39083 8.56512 5.46908 8.62688 5.56923L13.2307 12L8.62688 18.4307C8.56493 18.5309 8.47818 18.6091 8.36663 18.6655C8.2551 18.7218 8.13738 18.75 8.01346 18.75C7.71603 18.75 7.49808 18.6157 7.35961 18.3471C7.22116 18.0785 7.23975 17.8192 7.41538 17.5692L11.3962 12ZM17.2692 12L13.2885 6.43073C13.1128 6.18074 13.0917 5.92146 13.225 5.65288C13.3583 5.38429 13.5794 5.25 13.8883 5.25C14.0119 5.25 14.1293 5.27817 14.2405 5.3345C14.3517 5.39083 14.4382 5.46908 14.5 5.56923L19.1038 12L14.5 18.4307C14.438 18.5309 14.3512 18.6091 14.2397 18.6655C14.1282 18.7218 14.0104 18.75 13.8865 18.75C13.5891 18.75 13.3712 18.6157 13.2327 18.3471C13.0942 18.0785 13.1128 17.8192 13.2885 17.5692L17.2692 12Z" fill="#1C1B1F"/>
</g>
</svg>
