<svg width="24" height="24" viewBox="0 0 24 24" fill="none" xmlns="http://www.w3.org/2000/svg">
<mask id="mask0_29_4317" style="mask-type:alpha" maskUnits="userSpaceOnUse" x="0" y="0" width="24" height="24">
<rect x="24" y="24" width="24" height="24" transform="rotate(-180 24 24)" fill="#D9D9D9"/>
</mask>
<g mask="url(#mask0_29_4317)">
<path d="M12.6038 12L16.5846 17.5693C16.7602 17.8193 16.7814 18.0785 16.6481 18.3471C16.5147 18.6157 16.2936 18.75 15.9847 18.75C15.8612 18.75 15.7438 18.7218 15.6326 18.6655C15.5214 18.6092 15.4349 18.5309 15.3731 18.4308L10.7693 12L15.3731 5.56927C15.4351 5.46912 15.5218 5.39088 15.6334 5.33455C15.7449 5.27822 15.8626 5.25005 15.9865 5.25005C16.284 5.25005 16.5019 5.38434 16.6404 5.65292C16.7788 5.92151 16.7602 6.18079 16.5846 6.43077L12.6038 12ZM6.73077 12L10.7115 17.5693C10.8872 17.8193 10.9083 18.0785 10.775 18.3471C10.6417 18.6157 10.4206 18.75 10.1117 18.75C9.9881 18.75 9.87072 18.7218 9.75952 18.6655C9.64832 18.6092 9.56182 18.5309 9.50004 18.4308L4.89619 12L9.50004 5.56927C9.56201 5.46912 9.64876 5.39088 9.76029 5.33455C9.87182 5.27822 9.98956 5.25005 10.1135 5.25005C10.4109 5.25005 10.6288 5.38434 10.7673 5.65292C10.9058 5.92151 10.8872 6.18079 10.7115 6.43077L6.73077 12Z" fill="#1C1B1F"/>
</g>
</svg>
