<svg width="24" height="24" viewBox="0 0 24 24" fill="none" xmlns="http://www.w3.org/2000/svg">
<mask id="mask0_96_14163" style="mask-type:alpha" maskUnits="userSpaceOnUse" x="0" y="0" width="24" height="24">
<rect width="24" height="24" fill="#D9D9D9"/>
</mask>
<g mask="url(#mask0_96_14163)">
<path d="M3 24C2.73205 24 2.4984 23.9035 2.29905 23.7106C2.09968 23.5176 2 23.2808 2 23C2 22.732 2.09968 22.4984 2.29905 22.299C2.4984 22.0997 2.73205 22 3 22H21C21.268 22 21.5016 22.0965 21.701 22.2894C21.9003 22.4824 22 22.7192 22 23C22 23.2679 21.9003 23.5016 21.701 23.7009C21.5016 23.9003 21.268 24 21 24H3ZM5.80768 19C5.57563 19 5.383 18.9234 5.2298 18.7702C5.0766 18.617 5 18.4243 5 18.1923V16.9634C5 16.8557 5.01859 16.7554 5.05578 16.6625C5.09294 16.5695 5.15512 16.4795 5.2423 16.3923L13.8192 7.85381L16.1462 10.1807L7.6077 18.7577C7.52052 18.8448 7.43045 18.907 7.3375 18.9442C7.24455 18.9814 7.14423 19 7.03655 19H5.80768ZM6 18H6.9L14.7308 10.1807L13.8192 9.26921L6 17.1V18ZM17.0404 9.19614L14.7135 6.90766L15.8596 5.76151C16.043 5.57433 16.2699 5.48169 16.5404 5.48361C16.8109 5.48554 17.0378 5.57818 17.2212 5.76151L18.1481 6.68844C18.3314 6.87177 18.4295 7.09773 18.4423 7.36631C18.4551 7.63491 18.3699 7.8628 18.1866 8.04999L17.0404 9.19614Z" fill="#1C1C1C"/>
</g>
</svg>
