<svg width="24" height="24" viewBox="0 0 24 24" fill="none" xmlns="http://www.w3.org/2000/svg">
<mask id="mask0_20_2620" style="mask-type:alpha" maskUnits="userSpaceOnUse" x="0" y="0" width="24" height="24">
<rect width="24" height="24" fill="#D9D9D9"/>
</mask>
<g mask="url(#mask0_20_2620)">
<path d="M22.2136 8.49999H7.61455C6.57163 8.49999 5.6835 8.87466 4.95017 9.62401C4.21684 10.3734 3.85017 11.2756 3.85017 12.3307V17.5173C3.85017 17.5878 3.8678 17.6455 3.90307 17.6904C3.93832 17.7352 3.9848 17.7737 4.0425 17.8058L5.58865 12.4577C5.7425 11.9359 6.04068 11.5112 6.4832 11.1837C6.92571 10.8561 7.41663 10.6923 7.95595 10.6923H20.1675C20.9977 10.6923 21.655 11.0192 22.1392 11.6731C22.6234 12.3269 22.747 13.05 22.5098 13.8423L21.2867 18.0577C21.0559 18.8833 20.7005 19.4634 20.2203 19.798C19.7402 20.1327 19.0175 20.3 18.0521 20.3H4.1002C3.43555 20.3 2.86938 20.0661 2.4017 19.5984C1.93403 19.1308 1.7002 18.5646 1.7002 17.9V6.15771C1.7002 5.49306 1.94365 4.91729 2.43057 4.43039C2.91747 3.94347 3.49325 3.70001 4.1579 3.70001H8.12517C8.45667 3.70001 8.77463 3.7642 9.07905 3.89259C9.38348 4.02095 9.64884 4.19907 9.87514 4.42694L11.7982 6.35001H19.8424C20.4686 6.35001 21.0075 6.55821 21.4592 6.97461C21.9108 7.391 22.1623 7.89945 22.2136 8.49999Z" fill="white"/>
</g>
</svg>
