<svg width="24" height="24" viewBox="0 0 24 24" fill="none" xmlns="http://www.w3.org/2000/svg">
<mask id="mask0_20_2632" style="mask-type:alpha" maskUnits="userSpaceOnUse" x="0" y="0" width="24" height="24">
<rect width="24" height="24" fill="#D9D9D9"/>
</mask>
<g mask="url(#mask0_20_2632)">
<path d="M6.86563 17.8153C6.57248 17.8153 6.32675 17.7162 6.12845 17.5179C5.93015 17.3196 5.831 17.0738 5.831 16.7807V14.8807H19.106L19.4233 15.1981V5.39999H21.315C21.6212 5.39999 21.8715 5.49914 22.0661 5.69744C22.2606 5.89574 22.3579 6.14145 22.3579 6.43459V19.0441C22.3579 19.5879 22.1063 19.9655 21.6031 20.1769C21.0999 20.3884 20.656 20.3018 20.2714 19.9172L18.1695 17.8153H6.86563ZM5.831 12.8807L3.7291 14.9826C3.3445 15.3673 2.90059 15.4538 2.39738 15.2424C1.89418 15.0309 1.64258 14.6533 1.64258 14.1096V2.23464C1.64258 1.94149 1.74173 1.69576 1.94003 1.49746C2.13833 1.29916 2.38405 1.20001 2.6772 1.20001H16.3887C16.6818 1.20001 16.9276 1.29916 17.1259 1.49746C17.3242 1.69576 17.4233 1.94149 17.4233 2.23464V11.8461C17.4233 12.1393 17.3242 12.385 17.1259 12.5833C16.9276 12.7816 16.6818 12.8807 16.3887 12.8807H5.831Z" fill="white"/>
</g>
</svg>
