<svg width="24" height="24" viewBox="0 0 24 24" fill="none" xmlns="http://www.w3.org/2000/svg">
<mask id="mask0_20_2596" style="mask-type:alpha" maskUnits="userSpaceOnUse" x="0" y="0" width="24" height="24">
<rect width="24" height="24" fill="#D9D9D9"/>
</mask>
<g mask="url(#mask0_20_2596)">
<path d="M0.323242 19.6038V17.8346C0.323242 17.2026 0.474492 16.648 0.776992 16.171C1.07946 15.6939 1.48316 15.3238 1.98809 15.0607C3.00511 14.5459 4.04629 14.15 5.11164 13.8731C6.17701 13.5962 7.3392 13.4577 8.59822 13.4577C9.85157 13.4577 11.0082 13.5962 12.068 13.8731C13.1279 14.15 14.1663 14.5459 15.1833 15.0607C15.6883 15.3238 16.092 15.6939 16.3945 16.171C16.6969 16.648 16.8482 17.2026 16.8482 17.8346V19.6038C16.8482 19.9432 16.7282 20.2329 16.4883 20.4728C16.2484 20.7127 15.9588 20.8327 15.6193 20.8327H1.55209C1.21268 20.8327 0.923009 20.7127 0.683092 20.4728C0.443192 20.2329 0.323242 19.9432 0.323242 19.6038ZM18.6347 20.8327C18.7416 20.7114 18.8247 20.5598 18.8841 20.3778C18.9435 20.1959 18.9732 19.9494 18.9732 19.6384V17.6115C18.9732 16.9885 18.8249 16.3004 18.5285 15.5473C18.2321 14.7942 17.7553 14.1548 17.0982 13.6289C17.9687 13.7289 18.7927 13.9004 19.5703 14.1433C20.3478 14.3863 21.077 14.6924 21.7578 15.0616C22.3717 15.4 22.8451 15.7947 23.1778 16.2458C23.5106 16.6968 23.677 17.1521 23.677 17.6115V19.6105C23.677 19.9455 23.557 20.2329 23.3171 20.4728C23.0772 20.7127 22.7911 20.8327 22.4587 20.8327H18.6347ZM8.57322 11.5173C7.41823 11.5173 6.42949 11.1061 5.60699 10.2836C4.78449 9.46107 4.37324 8.47233 4.37324 7.31735C4.37324 6.16235 4.78449 5.1736 5.60699 4.35112C6.42949 3.52862 7.41823 3.11737 8.57322 3.11737C9.7282 3.11737 10.7169 3.52862 11.5394 4.35112C12.3619 5.1736 12.7732 6.16235 12.7732 7.31735C12.7732 8.47233 12.3619 9.46107 11.5394 10.2836C10.7169 11.1061 9.7282 11.5173 8.57322 11.5173ZM19.3327 7.31735C19.3327 8.47233 18.9215 9.46107 18.099 10.2836C17.2765 11.1061 16.2878 11.5173 15.1328 11.5173C14.9533 11.5173 14.7014 11.4961 14.377 11.4538C14.0527 11.4115 13.8008 11.3583 13.6213 11.2942C14.049 10.7201 14.3687 10.0954 14.5805 9.42007C14.7923 8.74474 14.8982 8.04343 14.8982 7.31615C14.8982 6.58888 14.7902 5.88995 14.5741 5.21937C14.3581 4.5488 14.0405 3.9225 13.6213 3.34045C13.8649 3.25583 14.1168 3.1975 14.377 3.16545C14.6373 3.1334 14.8892 3.11737 15.1328 3.11737C16.2878 3.11737 17.2765 3.52862 18.099 4.35112C18.9215 5.1736 19.3327 6.16235 19.3327 7.31735Z" fill="white"/>
</g>
</svg>
