<svg width="24" height="24" viewBox="0 0 24 24" fill="none" xmlns="http://www.w3.org/2000/svg">
<mask id="mask0_29_4257" style="mask-type:alpha" maskUnits="userSpaceOnUse" x="0" y="0" width="24" height="24">
<rect width="24" height="24" fill="#D9D9D9"/>
</mask>
<g mask="url(#mask0_29_4257)">
<path d="M16.6248 21.3V11.0788C16.6248 10.6776 16.5353 10.3023 16.3565 9.9529C16.1776 9.60355 15.926 9.31349 15.6017 9.08273L9.9671 5.05968V4.31922C10.0504 3.83719 10.2899 3.43848 10.6854 3.1231C11.0809 2.80772 11.5414 2.65002 12.0671 2.65002H21.1748C21.7837 2.65002 22.2943 2.85612 22.7065 3.2683C23.1187 3.68047 23.3248 4.19103 23.3248 4.8V19.15C23.3248 19.759 23.1187 20.2695 22.7065 20.6817C22.2943 21.0939 21.7837 21.3 21.1748 21.3H16.6248ZM17.2402 17.4346H19.6594V15.0154H17.2402V17.4346ZM17.2402 13.1846H19.6594V10.7654H17.2402V13.1846ZM17.2402 8.9346H19.6594V6.5154H17.2402V8.9346ZM0.674805 20.0711V12.2038C0.674805 11.809 0.76263 11.4353 0.93828 11.0827C1.11391 10.7302 1.36391 10.4385 1.68828 10.2077L6.48053 6.7885C6.91515 6.48082 7.39655 6.32697 7.92475 6.32697C8.45295 6.32697 8.93436 6.48082 9.36898 6.7885L14.1613 10.2077C14.4856 10.4385 14.7356 10.7302 14.9113 11.0827C15.0869 11.4353 15.1748 11.809 15.1748 12.2038V20.0711C15.1748 20.4121 15.0552 20.7022 14.8161 20.9413C14.577 21.1804 14.2869 21.3 13.9459 21.3H9.97285V14.7115H5.8767V21.3H1.90365C1.56264 21.3 1.27257 21.1804 1.03345 20.9413C0.794355 20.7022 0.674805 20.4121 0.674805 20.0711Z" fill="white"/>
</g>
</svg>
