<svg width="49" height="49" viewBox="0 0 49 49" fill="none" xmlns="http://www.w3.org/2000/svg">
<path d="M5.07994 48.8333C3.68001 48.8333 2.51112 48.3644 1.57327 47.4266C0.635428 46.4887 0.166504 45.3198 0.166504 43.9199V5.0801C0.166504 3.68018 0.635428 2.51129 1.57327 1.57344C2.51112 0.635595 3.68001 0.166672 5.07994 0.166672H43.9197C45.3197 0.166672 46.4886 0.635595 47.4264 1.57344C48.3642 2.51129 48.8332 3.68018 48.8332 5.0801V43.9199C48.8332 45.3198 48.3642 46.4887 47.4264 47.4266C46.4886 48.3644 45.3197 48.8333 43.9197 48.8333H5.07994ZM5.07994 45.7917H43.9197C44.3876 45.7917 44.8166 45.5967 45.2066 45.2068C45.5965 44.8168 45.7915 44.3878 45.7915 43.9199V5.0801C45.7915 4.61219 45.5965 4.18324 45.2066 3.79325C44.8166 3.40331 44.3876 3.20834 43.9197 3.20834H5.07994C4.61203 3.20834 4.18308 3.40331 3.79308 3.79325C3.40314 4.18324 3.20817 4.61219 3.20817 5.0801V43.9199C3.20817 44.3878 3.40314 44.8168 3.79308 45.2068C4.18308 45.5967 4.61203 45.7917 5.07994 45.7917ZM13.269 38.1875H36.1985C36.6899 38.1875 37.0487 37.9672 37.2748 37.5266C37.501 37.0859 37.4699 36.6511 37.1813 36.2221L31.0394 27.9686C30.7742 27.6411 30.4467 27.4773 30.0567 27.4773C29.6668 27.4773 29.3392 27.6411 29.074 27.9686L22.1016 36.7836L17.7614 31.5367C17.4962 31.2482 17.1784 31.1039 16.8079 31.1039C16.4374 31.1039 16.1196 31.2677 15.8545 31.5952L12.3449 36.2221C12.0173 36.6511 11.9666 37.0859 12.1928 37.5266C12.4189 37.9672 12.7777 38.1875 13.269 38.1875Z" fill="#EFEFEF"/>
</svg>
