<svg width="7" height="14" viewBox="0 0 7 14" fill="none" xmlns="http://www.w3.org/2000/svg">
<path d="M5.2694 7.00295L1.19633 1.91158C1.05786 1.73851 0.987029 1.52097 0.983829 1.25895C0.980613 0.996951 1.05145 0.775409 1.19633 0.594326C1.3412 0.413222 1.51683 0.32267 1.72323 0.32267C1.92963 0.32267 2.10526 0.413222 2.25013 0.594326L6.74435 6.21211C6.83795 6.32909 6.90398 6.45248 6.94243 6.58229C6.9809 6.71209 7.00013 6.8523 7.00013 7.00295C7.00013 7.1536 6.9809 7.29381 6.94243 7.42361C6.90398 7.55342 6.83795 7.67681 6.74435 7.79379L2.25013 13.4116C2.11168 13.5847 1.93765 13.6732 1.72803 13.6772C1.51843 13.6812 1.3412 13.5927 1.19633 13.4116C1.05145 13.2305 0.979004 13.0109 0.979004 12.7529C0.979004 12.4949 1.05145 12.2754 1.19633 12.0943L5.2694 7.00295Z" fill="#303030"/>
</svg>
