<svg width="61" height="61" viewBox="0 0 61 61" fill="none" xmlns="http://www.w3.org/2000/svg">
<path d="M13 8H45.5C47.4891 8 49.3968 8.79018 50.8033 10.1967C52.2098 11.6032 53 13.5109 53 15.5V48C53 49.9891 52.2098 51.8968 50.8033 53.3033C49.3968 54.7098 47.4891 55.5 45.5 55.5H13C11.0109 55.5 9.10322 54.7098 7.6967 53.3033C6.29018 51.8968 5.5 49.9891 5.5 48V15.5C5.5 13.5109 6.29018 11.6032 7.6967 10.1967C9.10322 8.79018 11.0109 8 13 8ZM13 10.5C11.6739 10.5 10.4021 11.0268 9.46447 11.9645C8.52678 12.9021 8 14.1739 8 15.5V44.475L18.725 33.725L24.975 39.975L37.475 27.475L50.5 40.5V15.5C50.5 14.1739 49.9732 12.9021 49.0355 11.9645C48.0979 11.0268 46.8261 10.5 45.5 10.5H13ZM24.975 43.525L18.725 37.275L8 48C8 49.3261 8.52678 50.5979 9.46447 51.5355C10.4021 52.4732 11.6739 53 13 53H45.5C46.8261 53 48.0979 52.4732 49.0355 51.5355C49.9732 50.5979 50.5 49.3261 50.5 48V44.025L37.475 31.025L24.975 43.525ZM19.25 15.5C20.9076 15.5 22.4973 16.1585 23.6694 17.3306C24.8415 18.5027 25.5 20.0924 25.5 21.75C25.5 23.4076 24.8415 24.9973 23.6694 26.1694C22.4973 27.3415 20.9076 28 19.25 28C17.5924 28 16.0027 27.3415 14.8306 26.1694C13.6585 24.9973 13 23.4076 13 21.75C13 20.0924 13.6585 18.5027 14.8306 17.3306C16.0027 16.1585 17.5924 15.5 19.25 15.5ZM19.25 18C18.2554 18 17.3016 18.3951 16.5983 19.0983C15.8951 19.8016 15.5 20.7554 15.5 21.75C15.5 22.7446 15.8951 23.6984 16.5983 24.4017C17.3016 25.1049 18.2554 25.5 19.25 25.5C20.2446 25.5 21.1984 25.1049 21.9017 24.4017C22.6049 23.6984 23 22.7446 23 21.75C23 20.7554 22.6049 19.8016 21.9017 19.0983C21.1984 18.3951 20.2446 18 19.25 18Z" fill="#CCCCCC"/>
</svg>
