<svg width="16" height="16" viewBox="0 0 16 16" fill="none" xmlns="http://www.w3.org/2000/svg">
<path d="M7.83331 2C7.95414 2.00001 8.07087 2.04376 8.16193 2.12318C8.25299 2.20259 8.31221 2.3123 8.32865 2.432L8.33331 2.5L8.33398 7.33333H13.1693C13.296 7.33337 13.4179 7.3815 13.5105 7.46798C13.6031 7.55447 13.6594 7.67287 13.668 7.79925C13.6766 7.92564 13.637 8.05059 13.557 8.14887C13.4771 8.24714 13.3628 8.3114 13.2373 8.32867L13.1693 8.33333H8.33398L8.33531 13.1667C8.33511 13.2933 8.28686 13.4151 8.20032 13.5076C8.11379 13.6 7.9954 13.6562 7.86906 13.6647C7.74272 13.6733 7.61785 13.6336 7.51965 13.5536C7.42145 13.4737 7.35724 13.3594 7.33998 13.234L7.33531 13.166L7.33398 8.33333H2.50131C2.37463 8.33329 2.25269 8.28517 2.16012 8.19868C2.06755 8.1122 2.01126 7.9938 2.00263 7.86741C1.99399 7.74103 2.03366 7.61607 2.1136 7.5178C2.19355 7.41953 2.30781 7.35527 2.43331 7.338L2.50131 7.33333H7.33465L7.33331 2.5C7.33331 2.36739 7.38599 2.24021 7.47976 2.14645C7.57353 2.05268 7.7007 2 7.83331 2Z" fill="#006B6B"/>
</svg>
