<svg width="24" height="24" viewBox="0 0 24 24" fill="none" xmlns="http://www.w3.org/2000/svg">
<mask id="mask0_20_2614" style="mask-type:alpha" maskUnits="userSpaceOnUse" x="0" y="0" width="24" height="24">
<rect width="24" height="24" fill="#D9D9D9"/>
</mask>
<g mask="url(#mask0_20_2614)">
<path d="M21.3116 15.8173V9.73076L13.1885 14.1557C12.8164 14.3596 12.4208 14.4615 12.0017 14.4615C11.5827 14.4615 11.186 14.3596 10.8116 14.1557L2.54436 9.61346C2.33026 9.48654 2.16648 9.33102 2.05301 9.14688C1.93955 8.96275 1.88281 8.76371 1.88281 8.54976C1.88281 8.33582 1.93955 8.13688 2.05301 7.95291C2.16648 7.76893 2.33026 7.61347 2.54436 7.48656L10.8112 2.94933C10.9969 2.8406 11.1905 2.76322 11.392 2.71718C11.5935 2.67115 11.7962 2.64813 12.0001 2.64813C12.2039 2.64813 12.4066 2.67152 12.608 2.71831C12.8094 2.76511 13.0029 2.84363 13.1885 2.95388L22.8096 8.19423C23.011 8.30358 23.17 8.45547 23.2866 8.64988C23.4032 8.84428 23.4615 9.05009 23.4615 9.26731V15.8173C23.4615 16.1131 23.3563 16.3662 23.1458 16.5766C22.9353 16.7871 22.6821 16.8923 22.3862 16.8923C22.0903 16.8923 21.8372 16.7871 21.6269 16.5766C21.4167 16.3662 21.3116 16.1131 21.3116 15.8173ZM10.8116 20.4192L6.01931 17.8076C5.62445 17.5935 5.3142 17.2934 5.08856 16.9072C4.86291 16.5209 4.75009 16.1038 4.75009 15.6557V12.2019L10.8116 15.5057C11.1838 15.7096 11.5794 15.8115 11.9984 15.8115C12.4175 15.8115 12.8142 15.7096 13.1885 15.5057L19.25 12.2019V15.6575C19.25 16.1076 19.1372 16.5249 18.9116 16.9096C18.6859 17.2942 18.3757 17.5935 17.9808 17.8076L13.1885 20.4192C13.0022 20.5294 12.8079 20.6038 12.6057 20.6422C12.4034 20.6807 12.2015 20.6999 12.0001 20.6999C11.7986 20.6999 11.5967 20.6807 11.3945 20.6422C11.1922 20.6038 10.9979 20.5294 10.8116 20.4192Z" fill="white"/>
</g>
</svg>
