<svg width="20" height="20" viewBox="0 0 20 20" fill="none" xmlns="http://www.w3.org/2000/svg">
<mask id="mask0_93_9755" style="mask-type:alpha" maskUnits="userSpaceOnUse" x="0" y="0" width="20" height="20">
<rect width="20" height="20" fill="#D9D9D9"/>
</mask>
<g mask="url(#mask0_93_9755)">
<path d="M7.93255 13.0128C6.50948 13.0128 5.30436 12.5192 4.3172 11.5321C3.33002 10.5449 2.83643 9.33975 2.83643 7.91668C2.83643 6.49361 3.33002 5.28849 4.3172 4.30131C5.30436 3.31414 6.50948 2.82056 7.93255 2.82056C9.35562 2.82056 10.5607 3.31414 11.5479 4.30131C12.5351 5.28849 13.0287 6.49361 13.0287 7.91668C13.0287 8.51177 12.9288 9.08014 12.729 9.62181C12.5292 10.1635 12.2627 10.6346 11.9293 11.0353L16.7242 15.8301C16.8396 15.9455 16.8986 16.0906 16.9013 16.2652C16.904 16.4399 16.8449 16.5876 16.7242 16.7083C16.6035 16.8291 16.4571 16.8894 16.2851 16.8894C16.1131 16.8894 15.9668 16.8291 15.846 16.7083L11.0511 11.9135C10.6345 12.2575 10.1553 12.5267 9.61363 12.7211C9.07197 12.9156 8.51161 13.0128 7.93255 13.0128ZM7.93255 11.7628C9.00627 11.7628 9.91573 11.3903 10.6609 10.6451C11.4061 9.89986 11.7787 8.9904 11.7787 7.91668C11.7787 6.84296 11.4061 5.9335 10.6609 5.18831C9.91573 4.44311 9.00627 4.07051 7.93255 4.07051C6.85883 4.07051 5.94937 4.44311 5.20418 5.18831C4.459 5.9335 4.08641 6.84296 4.08641 7.91668C4.08641 8.9904 4.459 9.89986 5.20418 10.6451C5.94937 11.3903 6.85883 11.7628 7.93255 11.7628Z" fill="#434343"/>
</g>
</svg>
