<svg width="24" height="24" viewBox="0 0 24 24" fill="none" xmlns="http://www.w3.org/2000/svg">
<mask id="mask0_20_2638" style="mask-type:alpha" maskUnits="userSpaceOnUse" x="0" y="0" width="24" height="24">
<rect width="24" height="24" fill="#D9D9D9"/>
</mask>
<g mask="url(#mask0_20_2638)">
<path d="M13.8099 22.3H10.1811C9.87344 22.3 9.60837 22.2038 9.38594 22.0115C9.16351 21.8192 9.02729 21.5692 8.97729 21.2615L8.68691 19.0788C8.51896 19.0057 8.32345 18.9093 8.10036 18.7894C7.87728 18.6695 7.68817 18.5423 7.53304 18.4077L5.49459 19.2634C5.21382 19.3968 4.92632 19.4093 4.63209 19.3009C4.33786 19.1926 4.11381 19.0064 3.95996 18.7423L2.13116 15.4731C1.97731 15.209 1.93211 14.9314 1.99556 14.6404C2.05903 14.3494 2.21448 14.1103 2.46191 13.9231L4.14461 12.6308C4.1382 12.5154 4.13018 12.3994 4.12056 12.2827C4.11095 12.166 4.10614 12.05 4.10614 11.9346C4.10614 11.8423 4.11095 11.7394 4.12056 11.626C4.13018 11.5125 4.1382 11.3936 4.14461 11.2692L2.46191 10.0269C2.19781 9.8564 2.04237 9.6173 1.99559 9.3096C1.94879 9.00192 2.00231 8.71603 2.15614 8.45193L3.95996 5.27697C4.12023 5.01927 4.34011 4.83049 4.61959 4.71062C4.89907 4.59076 5.1792 4.59749 5.45996 4.73082L7.42341 5.55197C7.61445 5.41094 7.82599 5.27793 8.05804 5.15293C8.29011 5.02791 8.50486 4.91732 8.70229 4.82117L8.97729 2.6885C9.01062 2.3808 9.14267 2.1308 9.37344 1.9385C9.60421 1.74618 9.87344 1.65002 10.1811 1.65002H13.8099C14.1176 1.65002 14.3884 1.74618 14.6224 1.9385C14.8564 2.1308 14.9901 2.3808 15.0234 2.6885L15.2888 4.8558C15.5054 4.96477 15.7186 5.07534 15.9282 5.18752C16.1378 5.29971 16.3414 5.42952 16.5388 5.57697L18.5157 4.75582C18.7965 4.62249 19.0824 4.60838 19.3734 4.7135C19.6644 4.81863 19.8869 5.00325 20.0407 5.26735L21.8445 8.45193C21.9984 8.71603 22.0477 9.00192 21.9926 9.3096C21.9375 9.6173 21.7862 9.8564 21.5388 10.0269L19.7676 11.3481C19.7868 11.4596 19.7981 11.5731 19.8013 11.6885C19.8045 11.8038 19.8061 11.9077 19.8061 12C19.8061 12.0859 19.8029 12.1865 19.7965 12.3019C19.79 12.4173 19.7836 12.5404 19.7772 12.6712L21.4791 13.9481C21.733 14.1289 21.89 14.3664 21.9503 14.6606C22.0106 14.9548 21.9638 15.234 21.8099 15.4981L19.9811 18.7519C19.8272 19.016 19.6048 19.199 19.3138 19.3009C19.0228 19.4028 18.7369 19.3871 18.4561 19.2538L16.4138 18.398C16.233 18.5288 16.0513 18.6493 15.8686 18.7596C15.6859 18.8698 15.5009 18.9647 15.3138 19.0442L15.0234 21.2615C14.9734 21.5692 14.8356 21.8192 14.6099 22.0115C14.3843 22.2038 14.1176 22.3 13.8099 22.3ZM11.9369 15.65C12.9689 15.65 13.8436 15.2913 14.5609 14.574C15.2782 13.8567 15.6368 12.982 15.6368 11.95C15.6368 10.918 15.2782 10.0433 14.5609 9.32598C13.8436 8.60868 12.9689 8.25002 11.9369 8.25002C10.9112 8.25002 10.0382 8.60868 9.31766 9.32598C8.59716 10.0433 8.23691 10.918 8.23691 11.95C8.23691 12.982 8.59716 13.8567 9.31766 14.574C10.0382 15.2913 10.9112 15.65 11.9369 15.65Z" fill="white"/>
</g>
</svg>
