<svg width="24" height="24" viewBox="0 0 24 24" fill="none" xmlns="http://www.w3.org/2000/svg">
<mask id="mask0_20_2608" style="mask-type:alpha" maskUnits="userSpaceOnUse" x="0" y="0" width="24" height="24">
<rect width="24" height="24" fill="#D9D9D9"/>
</mask>
<g mask="url(#mask0_20_2608)">
<path d="M10.3477 16.0865L15.8707 12.5115C16.0579 12.3894 16.1515 12.2201 16.1515 12.0036C16.1515 11.7871 16.0579 11.6154 15.8707 11.4885L10.3477 7.9135C10.1272 7.79298 9.91403 7.7909 9.70826 7.90725C9.50249 8.02358 9.39961 8.2013 9.39961 8.4404V15.5596C9.39961 15.7987 9.50249 15.9764 9.70826 16.0927C9.91403 16.2091 10.1272 16.207 10.3477 16.0865ZM4.30731 20.1C3.62343 20.1 3.04284 19.8613 2.56556 19.384C2.08826 18.9067 1.84961 18.3262 1.84961 17.6423V6.35773C1.84961 5.67384 2.08826 5.09326 2.56556 4.61597C3.04284 4.13867 3.62343 3.90002 4.30731 3.90002H19.6919C20.3757 3.90002 20.9563 4.13867 21.4336 4.61597C21.9109 5.09326 22.1496 5.67384 22.1496 6.35773V17.6423C22.1496 18.3262 21.9109 18.9067 21.4336 19.384C20.9563 19.8613 20.3757 20.1 19.6919 20.1H4.30731Z" fill="white"/>
</g>
</svg>
