<svg width="61" height="61" viewBox="0 0 61 61" fill="none" xmlns="http://www.w3.org/2000/svg">
<path d="M58.2481 16.2191C54.7438 9.23562 52.3803 5.345 51.2225 4.65594C50.3066 4.11406 48.7231 3.96219 45.7691 3.71937C43.5575 3.53844 40.8069 3.3125 39.5741 2.82969L38.4116 2.375L37.6072 3.33312C37.5462 3.40344 34.6344 6.73344 30.5009 6.73344C26.3412 6.73344 23.4191 3.36687 23.39 3.33219L22.5809 2.38437L21.425 2.83063C20.1922 3.31437 17.4425 3.53937 15.2319 3.71937C12.2769 3.96219 10.6925 4.11406 9.77937 4.655C8.61781 5.345 6.25437 9.23562 2.75187 16.2191L2.375 16.9691L2.705 17.7425C5.79875 25.0109 13.0944 26.6094 13.4037 26.6741L14.3712 26.8756L13.3831 53.165L13.3428 54.245L14.2644 54.7841C23.0094 59.9037 37.9878 59.9037 46.7338 54.7841L47.6553 54.245L47.6141 53.165L46.6259 26.8756L47.5934 26.6741C47.9028 26.6094 55.1984 25.0109 58.2931 17.7425L58.625 16.9691L58.2481 16.2191ZM53.5287 18.9594C51.5234 21.53 49.0569 22.9522 46.1834 23.1997L44.6356 20.7453L45.8572 53.2325C37.3644 58.2041 23.6356 58.205 15.1419 53.2325L16.3625 20.7453L14.8681 23.1406C11.9966 22.8931 9.52812 21.4691 7.52562 18.9012C6.62275 17.7285 5.88261 16.439 5.32531 15.0678L5.26625 15.1803C6.79156 12.2375 9.7175 6.76344 10.6653 6.2C11.8194 5.51562 17.6984 5.555 20.9441 4.81625C21.8142 5.70203 22.7698 6.49965 23.7969 7.1975C24.7476 7.84136 25.7705 8.37154 26.8447 8.77719C28.1431 9.25906 29.4472 9.50281 30.7297 9.50281H30.7672C32.3188 9.49531 33.8422 9.1325 35.2972 8.42C36.9031 7.63437 38.4416 6.40812 39.8816 4.78062C43.0897 5.55781 49.1591 5.50344 50.3337 6.2C51.2778 6.7625 54.1888 12.2019 55.7188 15.1522C55.1639 16.5143 54.4272 17.795 53.5287 18.9594Z" fill="#303030"/>
</svg>
