<svg width="37" height="43" viewBox="0 0 37 43" fill="none" xmlns="http://www.w3.org/2000/svg">
<path d="M25.3886 29.1875C25.3886 30.5417 24.6974 33.0736 23.8261 34.1875C22.9108 35.3576 20.4329 36.6718 19.1386 37M1.01364 24.8125C0.953726 15.418 8.29613 10.9018 15.5187 2.57682C15.7763 2.27993 16.243 2.28661 16.4926 2.59021C23.3802 10.9673 30.6262 15.1835 31.0137 24.8125C31.0137 30.75 26.2637 42 16.0136 42C5.76364 42 0.701084 31.375 1.01364 24.8125Z" stroke="black" stroke-width="0.843636"/>
<path d="M34.5467 8.90549C34.5467 9.29925 34.3457 10.0355 34.0924 10.3594C33.8262 10.6996 33.1057 11.0818 32.7294 11.1772M27.459 7.63334C27.8379 4.93074 29.731 3.60436 31.6724 1.18671C31.7475 1.09327 31.8914 1.09519 31.9642 1.19039C33.8103 3.60499 35.7395 4.82691 36.1801 7.61925C36.1816 7.6285 36.1824 7.6377 36.1823 7.64707C36.175 9.3771 34.7933 12.6311 31.8207 12.6311C28.8402 12.6311 27.3682 9.54157 27.459 7.63334Z" stroke="black" stroke-width="0.727273"/>
</svg>
