<svg width="124" height="92" viewBox="0 0 124 92" fill="none" xmlns="http://www.w3.org/2000/svg">
<g clip-path="url(#clip0_163_72449)">
<g opacity="0.4">
<path d="M0.563477 72.7927C1.08525 77.2229 10.1523 75.0669 17.664 70.8139C4.06824 67.8703 1.41998 75.4705 0.563477 72.7927Z" fill="#434343"/>
</g>
<path d="M80.1295 4.02653C82.7383 4.41048 84.855 4.72552 85.1011 3.0322C85.3472 1.33889 83.2306 1.0337 80.6316 0.649754C78.0227 0.265806 75.906 -0.0492291 75.6599 1.64408C75.4138 3.33739 77.5304 3.64259 80.1295 4.02653ZM115.915 24.5038C105.441 9.10647 90.5059 5.91674 79.6077 3.96746C70.2354 2.29384 53.3417 5.20791 44.7865 12.7589C35.9557 20.5462 26.3964 38.8773 27.3119 53.93C21.8874 56.1451 -0.184709 69.1797 0.563498 72.7927C1.23295 77.3115 10.6545 74.8503 17.664 70.8139C18.9733 71.0994 20.3713 71.4735 21.8874 71.9658C34.0458 75.9628 44.8456 91.0647 58.6874 91.6357C71.6235 92.1674 83.2897 81.5448 96.4916 67.6143H96.4621C104.22 68.9139 121.803 70.8927 122.049 70.0263C125.426 60.6836 122.521 34.2108 115.915 24.4939V24.5038Z" fill="#0F0F0F"/>
<g opacity="0.3">
<path d="M107.291 22.8794C106.858 23.8639 105.371 24.1592 103.983 23.539C102.595 22.9188 101.827 21.6193 102.26 20.6348C102.703 19.6503 104.18 19.355 105.568 19.9752C106.956 20.5954 107.734 21.8949 107.291 22.8794Z" fill="#434343"/>
</g>
<g opacity="0.3">
<path d="M80.7102 19.5322C80.1885 20.5757 78.6625 20.8809 77.3039 20.2115C75.9453 19.542 75.2562 18.144 75.778 17.0906C76.2998 16.0471 77.8257 15.7419 79.1843 16.4114C80.5429 17.0808 81.232 18.4788 80.7102 19.5322Z" fill="#434343"/>
</g>
<g opacity="0.3">
<path d="M51.4715 13.8615C51.6191 14.7476 50.7233 15.6434 49.473 15.86C48.2128 16.0766 47.0708 15.5253 46.9232 14.6294C46.7755 13.7434 47.6714 12.8475 48.9217 12.6309C50.1818 12.4143 51.3238 12.9657 51.4715 13.8615Z" fill="#434343"/>
</g>
<path d="M120.542 70.5776C115.945 70.5776 101.621 68.904 95.3789 67.762C93.2032 67.3682 87.9855 65.8915 81.3697 64.0308C68.5419 60.4178 50.9689 55.456 41.4981 54.3632C39.2831 54.1072 36.8711 53.9792 34.3311 53.9792C31.3383 53.9792 28.9558 54.1565 27.6662 54.2549L26.977 54.3041L26.9573 53.9596C26.0713 39.2317 35.3353 20.6446 44.5501 12.5128C51.8254 6.09396 64.8206 3.17004 73.8286 3.17004C75.9846 3.17004 77.9437 3.32756 79.6666 3.63275C92.0317 5.83799 106.07 9.44121 116.191 24.3069C122.935 34.2108 125.711 60.8805 122.364 70.1445C122.265 70.4792 121.842 70.5875 120.542 70.5875V70.5776ZM34.3311 53.2901C36.8908 53.2901 39.3323 53.4181 41.5769 53.6839C51.1067 54.7865 68.7093 59.7483 81.5568 63.3811C88.1528 65.2417 93.3608 66.7086 95.4971 67.1024C101.709 68.2346 115.974 69.9082 120.542 69.9082C121.34 69.9082 121.645 69.859 121.763 69.8294C125.002 60.5654 122.255 34.4372 115.63 24.7007C105.657 10.0516 91.7757 6.4976 79.5484 4.31205C77.865 4.0167 75.9452 3.85918 73.8286 3.85918C64.9485 3.85918 52.1404 6.72403 45.0029 13.0247C35.985 20.9892 26.9081 39.1037 27.6268 53.5756C28.9164 53.4772 31.3186 53.3 34.341 53.3L34.3311 53.2901Z" fill="#7C7C7C"/>
<path d="M121.695 67.8014C121.557 67.8014 121.409 67.8014 121.252 67.8014V67.4568C121.419 67.4568 121.567 67.4568 121.695 67.4568C122.354 67.4568 122.492 67.4076 122.512 67.3978L122.719 67.6636C122.64 67.7325 122.492 67.8014 121.695 67.8014ZM120.563 67.7719C120.159 67.7522 119.696 67.7226 119.194 67.6931L119.214 67.3584C119.716 67.3879 120.169 67.4174 120.573 67.4371L120.553 67.7817L120.563 67.7719ZM118.515 67.6439C118.082 67.6143 117.629 67.575 117.147 67.5356L117.176 67.2009C117.649 67.2402 118.111 67.2796 118.535 67.3092L118.505 67.6537L118.515 67.6439ZM116.467 67.4765C116.024 67.4371 115.571 67.3978 115.109 67.3485L115.138 67.0138C115.601 67.063 116.054 67.1024 116.497 67.1418L116.467 67.4864V67.4765ZM114.429 67.2895C113.986 67.2501 113.533 67.2009 113.071 67.1516L113.11 66.8071C113.573 66.8563 114.026 66.9055 114.469 66.9449L114.439 67.2796L114.429 67.2895ZM112.391 67.0827C111.948 67.0335 111.496 66.9843 111.033 66.935L111.072 66.6003C111.535 66.6495 111.988 66.6988 112.431 66.748L112.391 67.0827ZM110.354 66.8661L108.995 66.7086L109.034 66.3739L110.393 66.5314L110.354 66.8661ZM108.316 66.6299C107.863 66.5806 107.41 66.5216 106.957 66.4723L106.997 66.1376C107.449 66.1967 107.902 66.2459 108.355 66.2951L108.316 66.6299ZM106.278 66.3837C105.825 66.3247 105.372 66.2754 104.919 66.2164L104.959 65.8816C105.411 65.9407 105.854 65.9899 106.317 66.049L106.278 66.3837ZM104.24 66.1278C103.777 66.0687 103.334 66.0096 102.881 65.9506L102.921 65.6158C103.364 65.6749 103.817 65.734 104.279 65.793L104.24 66.1278ZM102.212 65.862C101.749 65.8029 101.296 65.7438 100.853 65.6749L100.903 65.3402C101.346 65.3993 101.798 65.4682 102.251 65.5272L102.202 65.862H102.212ZM100.184 65.5863C99.7212 65.5174 99.2683 65.4583 98.8351 65.3894L98.8844 65.0547C99.3175 65.1236 99.7704 65.1827 100.233 65.2516L100.184 65.5863ZM98.1558 65.291C97.6833 65.222 97.2304 65.1531 96.8071 65.0744L96.8662 64.7396C97.2895 64.8086 97.7424 64.8775 98.2149 64.9562L98.1657 65.291H98.1558ZM96.1278 64.9661C95.8423 64.9169 95.5667 64.8676 95.3107 64.8184C95.1532 64.7889 94.976 64.7495 94.7791 64.7101L94.848 64.3754C95.035 64.4148 95.2122 64.4541 95.3698 64.4837C95.6257 64.5329 95.9014 64.5821 96.1869 64.6314L96.1278 64.9661ZM94.1096 64.5624C93.7158 64.464 93.263 64.3557 92.7806 64.2277L92.8692 63.893C93.3516 64.021 93.7946 64.1293 94.1982 64.2179L94.1195 64.5526L94.1096 64.5624ZM92.1111 64.0604C91.6976 63.9521 91.2546 63.8339 90.7919 63.7059L90.8805 63.3811C91.3432 63.509 91.7862 63.6272 92.1997 63.7355L92.1111 64.0604ZM90.1323 63.5189C89.709 63.4007 89.2758 63.2826 88.8131 63.1448L88.9017 62.8199C89.3546 62.9479 89.7976 63.0759 90.2209 63.1842L90.1323 63.509V63.5189ZM88.1535 62.9676L86.8441 62.5935L86.9327 62.2686L88.2421 62.6427L88.1535 62.9676ZM86.1845 62.4064L86.2337 62.2391L86.155 62.3966L84.8752 62.0323L84.9736 61.7074L86.2534 62.0717V62.2489L86.1944 62.4163L86.1845 62.4064ZM84.2156 61.8354L82.9062 61.4515L83.0046 61.1266L84.314 61.5105L84.2156 61.8354ZM82.2466 61.2644L80.9372 60.8805L81.0357 60.5556L82.345 60.9395L82.2466 61.2644ZM80.2776 60.6934L78.9683 60.3193L79.0667 59.9944L80.3761 60.3685L80.2776 60.6934ZM78.3087 60.1224L76.9993 59.7483L77.0977 59.4234L78.4071 59.7975L78.3087 60.1224ZM76.3397 59.5613L75.0303 59.1872L75.1189 58.8623L76.4283 59.2364L76.3397 59.5613ZM74.3707 59.0001L73.0614 58.626L73.15 58.3011L74.4692 58.6752L74.3806 59.0001H74.3707ZM72.4017 58.4488C71.9686 58.3307 71.5256 58.2027 71.0825 58.0845L71.1711 57.7597C71.6142 57.8778 72.0473 58.0058 72.4903 58.1239L72.4017 58.4488ZM70.4328 57.8975C69.9996 57.7793 69.5566 57.6514 69.1136 57.5332L69.2022 57.2083C69.6452 57.3265 70.0784 57.4446 70.5214 57.5726L70.4328 57.8975ZM68.4638 57.356C68.0208 57.2379 67.5876 57.1197 67.1446 57.0016L67.2332 56.6767C67.6762 56.7949 68.1094 56.913 68.5524 57.0311L68.4638 57.356ZM66.485 56.8244L65.1658 56.47L65.2544 56.1451L66.5736 56.4995L66.485 56.8244ZM64.5062 56.3026L63.187 55.9581L63.2756 55.6233L64.5948 55.9679L64.5062 56.3026ZM62.5274 55.7907C62.0844 55.6725 61.6413 55.5643 61.2082 55.456L61.2968 55.1212C61.7398 55.2295 62.1828 55.3477 62.616 55.456L62.5274 55.7907ZM60.5387 55.2886C60.0957 55.1803 59.6527 55.072 59.2195 54.9637L59.2983 54.629C59.7413 54.7373 60.1843 54.8456 60.6273 54.9637L60.5387 55.2984V55.2886ZM58.5501 54.7964C58.107 54.6881 57.664 54.5798 57.221 54.4715L57.2998 54.1368C57.7428 54.2451 58.1858 54.3533 58.6288 54.4616L58.5501 54.7964ZM56.5614 54.3238C56.1184 54.2155 55.6754 54.1171 55.2324 54.0186L55.3111 53.6839C55.7541 53.7823 56.1971 53.8906 56.6402 53.9891L56.5614 54.3238ZM54.5629 53.8611C54.1199 53.7627 53.667 53.6642 53.2339 53.5658L53.3028 53.231C53.7458 53.3295 54.1888 53.4279 54.6318 53.5264L54.5531 53.8611H54.5629ZM52.5644 53.4181C52.1115 53.3196 51.6685 53.231 51.2255 53.1424L51.2944 52.8077C51.7374 52.8963 52.1805 52.9948 52.6333 53.0932L52.5644 53.4279V53.4181ZM50.5561 53.0046C50.1032 52.916 49.6602 52.8274 49.2172 52.7388L49.2762 52.4041C49.7192 52.4927 50.1623 52.5714 50.6151 52.6699L50.5462 53.0046H50.5561ZM48.5477 52.6207C48.0948 52.532 47.642 52.4533 47.2088 52.3844L47.2679 52.0496C47.7109 52.1284 48.1539 52.2072 48.6166 52.2859L48.5576 52.6207H48.5477ZM46.5295 52.2662C46.0668 52.1875 45.6238 52.1186 45.1808 52.0595L45.23 51.7248C45.673 51.7937 46.1259 51.8626 46.5787 51.9315L46.5197 52.2662H46.5295ZM44.5113 51.961C44.0486 51.902 43.5958 51.8429 43.1626 51.7838L43.202 51.4491C43.645 51.4983 44.0978 51.5574 44.5605 51.6263L44.5113 51.961ZM42.4833 51.7149C42.1584 51.6854 41.8335 51.6559 41.5185 51.6263L41.1247 51.5968L41.1542 51.2621L41.548 51.2916C41.8631 51.3211 42.1879 51.3507 42.5227 51.3802L42.4833 51.7149ZM27.2632 51.6657L27.2041 51.331C27.4601 51.2916 27.7849 51.2424 28.1689 51.2128L28.1984 51.5476C27.8243 51.5869 27.5093 51.6263 27.2533 51.6657H27.2632ZM40.4454 51.5476C39.9925 51.518 39.5397 51.4885 39.0868 51.4688L39.1065 51.1242C39.5594 51.1439 40.0122 51.1735 40.4749 51.2128L40.4553 51.5476H40.4454ZM28.8876 51.4885L28.858 51.1538C29.2715 51.1242 29.7244 51.0947 30.2265 51.0652L30.2462 51.4097C29.7539 51.4294 29.3011 51.459 28.8876 51.4885ZM38.4075 51.4294C37.9448 51.4097 37.492 51.39 37.0489 51.3704V51.0258C37.5116 51.0356 37.9645 51.0553 38.4272 51.0849L38.4075 51.4294ZM30.9255 51.3704V51.0258C31.3488 51.0061 31.8016 50.9963 32.284 50.9864V51.331C31.8115 51.331 31.3586 51.3507 30.9255 51.3704ZM36.3696 51.3507C35.9069 51.3408 35.4541 51.331 35.0111 51.3211V50.9766C35.4639 50.9766 35.9168 50.9864 36.3795 51.0061V51.3507H36.3696ZM32.9633 51.3211V50.9766C33.2488 50.9766 33.554 50.9766 33.8592 50.9766H34.3219V51.3211H33.8592C33.554 51.3211 33.2488 51.3211 32.9633 51.3211Z" fill="#7C7C7C"/>
<path d="M91.1159 66.3739L90.6138 66.2656C92.573 56.9425 95.4674 38.4441 93.8922 28.2252C92.0217 16.0471 89.1667 8.61424 79.499 4.20375L79.7156 3.74104C90.5745 8.693 92.8585 18.1145 94.4041 28.1464C95.9891 38.4441 93.0849 57.0213 91.1159 66.3739Z" fill="#7C7C7C"/>
<path d="M59.5931 92C59.288 92 58.9729 92 58.6677 91.9803C50.5261 91.6456 43.4378 86.3491 36.5759 81.2298C31.555 77.4887 26.8197 73.9446 21.7791 72.2906C10.1819 68.4807 5.02321 71.5818 2.54231 73.0782C1.7055 73.5803 1.20341 73.8855 0.750551 73.6886C0.405981 73.5409 0.287843 73.1472 0.228774 72.8617C-0.608037 68.8646 21.917 55.7612 27.1741 53.615L27.4301 54.2451C20.9718 56.8835 0.248464 69.5932 0.898223 72.7238C0.957292 73.0192 1.02621 73.0684 1.02621 73.0684C1.16403 73.1176 1.72519 72.773 2.1879 72.4974C4.55066 71.0699 10.0835 67.7325 21.9859 71.6409C27.1347 73.3342 31.9193 76.9079 36.9795 80.6784C43.7528 85.7387 50.7623 90.9663 58.6874 91.2912C71.909 91.8425 83.9985 80.2847 96.2258 67.3781L96.718 67.8506C84.6581 80.58 72.736 92 59.5833 92H59.5931Z" fill="#7C7C7C"/>
<path d="M4.51102 75.569C3.47731 75.569 2.58143 75.4115 1.8726 75.0767C0.937344 74.6239 0.376188 73.8757 0.228516 72.8518L0.907809 72.7534C1.02595 73.5508 1.43943 74.1021 2.17779 74.4565C5.18047 75.9037 12.318 73.5114 17.5062 70.5186L17.8508 71.1093C13.5683 73.5803 8.21268 75.569 4.52086 75.569H4.51102Z" fill="#7C7C7C"/>
<path d="M60.0957 87.7864C59.6231 87.7864 59.1604 87.747 58.7174 87.6781L58.7666 87.3434C59.1998 87.4025 59.6527 87.4418 60.1055 87.4418V87.7864H60.0957ZM60.7848 87.7864V87.4418C61.2081 87.4222 61.661 87.3828 62.1139 87.3237L62.1631 87.6584C61.7004 87.7175 61.2377 87.7569 60.7947 87.7766L60.7848 87.7864ZM58.0283 87.5698L57.8707 87.5305C57.4769 87.4419 57.0832 87.3434 56.6992 87.245L56.7878 86.9102C57.1718 87.0087 57.5557 87.0973 57.9593 87.1859L58.107 87.2154L58.0381 87.5501L58.0283 87.5698ZM62.8325 87.56L62.7735 87.2253C63.1968 87.1465 63.6398 87.0579 64.0927 86.9398L64.1813 87.2745C63.7186 87.3926 63.2657 87.4911 62.8325 87.5698V87.56ZM64.8409 87.0874L64.7424 86.7626C65.1559 86.6444 65.5989 86.4967 66.0321 86.3491L66.1503 86.674C65.7072 86.8315 65.2642 86.9693 64.8409 87.0973V87.0874ZM56.0298 87.0874C55.5867 86.9693 55.1437 86.8413 54.7105 86.7035L54.809 86.3786C55.2323 86.5066 55.6655 86.6346 56.1085 86.7527L56.0199 87.0776L56.0298 87.0874ZM54.0608 86.5066C53.6178 86.3688 53.1944 86.2112 52.7711 86.0636L52.8893 85.7387C53.3126 85.8864 53.7359 86.034 54.1691 86.1817L54.0608 86.5066ZM66.7902 86.4377L66.672 86.1226C67.0855 85.9651 67.499 85.7879 67.9223 85.6107L68.0602 85.9257C67.6368 86.1128 67.2037 86.29 66.7902 86.4475V86.4377ZM52.1214 85.8273C51.6882 85.6599 51.2649 85.4926 50.8514 85.3154L50.9892 85.0003C51.4027 85.1775 51.8162 85.3449 52.2493 85.5123L52.1312 85.8273H52.1214ZM68.6804 85.6402L68.5327 85.3351C68.9363 85.148 69.3498 84.9511 69.7535 84.7345L69.911 85.0397C69.4975 85.2464 69.0939 85.4532 68.6804 85.6402ZM50.2213 85.0496C49.798 84.8625 49.3845 84.6656 48.9809 84.4687L49.1285 84.1635C49.5322 84.3604 49.9358 84.5475 50.3591 84.7345L50.2213 85.0496ZM70.5214 84.7247L70.3638 84.4195C70.7576 84.2029 71.1514 83.9863 71.5551 83.7599L71.7224 84.0552C71.3188 84.2817 70.925 84.5081 70.5214 84.7247ZM48.3705 84.1635C47.957 83.9568 47.5534 83.7402 47.1596 83.5236L47.3269 83.2283C47.7207 83.4448 48.1145 83.6516 48.528 83.8583L48.3705 84.1635ZM72.3033 83.7107L72.1261 83.4153C72.51 83.1889 72.9038 82.9428 73.2878 82.7065L73.4748 82.992C73.081 83.2381 72.6971 83.4744 72.3033 83.7107ZM46.559 83.1889C46.1652 82.9624 45.7714 82.7262 45.3875 82.4899L45.5647 82.1945C45.9486 82.4308 46.3326 82.6573 46.7362 82.8837L46.5689 83.179L46.559 83.1889ZM74.0458 82.6277L73.8588 82.3422C74.2427 82.0961 74.6168 81.8401 74.9909 81.5842L75.178 81.8697C74.8039 82.1256 74.4199 82.3816 74.036 82.6277H74.0458ZM44.7968 82.1355C44.4128 81.8894 44.0289 81.6432 43.645 81.3971L43.832 81.1116C44.2061 81.3577 44.5901 81.6039 44.974 81.85L44.7968 82.1355ZM75.749 81.4759L75.5521 81.2002C75.9262 80.9443 76.2904 80.6784 76.6645 80.4126L76.8614 80.6883C76.4972 80.9541 76.1231 81.2199 75.749 81.4857V81.4759ZM43.0838 81.0033C42.7097 80.7474 42.3356 80.4914 41.9615 80.2256L42.1584 79.9499C42.5226 80.2059 42.8967 80.4717 43.2709 80.7277L43.0838 81.0132V81.0033ZM77.4127 80.265L77.206 79.9893C77.5703 79.7137 77.9345 79.4478 78.2889 79.1623L78.4957 79.4282C78.1314 79.7038 77.7672 79.9795 77.4029 80.2551L77.4127 80.265ZM41.4003 79.8219C41.0262 79.5561 40.662 79.2903 40.2977 79.0147L40.5044 78.739C40.8687 79.0048 41.233 79.2706 41.6071 79.5364L41.4102 79.8121L41.4003 79.8219ZM79.0371 79.0147L78.8206 78.7489C79.175 78.4634 79.5294 78.1877 79.8838 77.8924L80.1004 78.1582C79.746 78.4437 79.3916 78.7292 79.0371 79.0147ZM39.7464 78.611C39.3821 78.3354 39.0179 78.0696 38.6536 77.7939L38.8604 77.5183C39.2246 77.7939 39.5889 78.0597 39.9531 78.3354L39.7464 78.611ZM80.632 77.725L80.4154 77.4592C80.7698 77.1638 81.1144 76.8783 81.459 76.583L81.6854 76.839C81.3408 77.1343 80.9963 77.4296 80.6419 77.725H80.632ZM38.1023 77.3903C37.7381 77.1245 37.3738 76.8488 37.0095 76.583L37.2064 76.3073C37.5707 76.5732 37.9349 76.8488 38.2992 77.1146L38.0925 77.3903H38.1023ZM82.1875 76.3959L81.9611 76.14C82.3056 75.8348 82.6502 75.5394 82.9849 75.2343L83.2114 75.4902C82.8766 75.7954 82.5321 76.0908 82.1875 76.3959ZM36.4582 76.1794C36.094 75.9135 35.7297 75.6477 35.3556 75.3819L35.5525 75.1063C35.9266 75.3721 36.2909 75.6379 36.6551 75.9037L36.4582 76.1794ZM83.7233 75.0374L83.4969 74.7814C83.8316 74.4762 84.1663 74.1612 84.501 73.856L84.7373 74.1021C84.4026 74.4073 84.0679 74.7223 83.7331 75.0275L83.7233 75.0374ZM34.8043 74.998C34.4302 74.742 34.0659 74.486 33.682 74.2301L33.869 73.9446C34.253 74.2005 34.6271 74.4565 34.9913 74.7125L34.7944 74.9881L34.8043 74.998ZM33.111 73.856C32.7369 73.6099 32.3529 73.3637 31.9591 73.1275L32.1363 72.842C32.5301 73.0782 32.9141 73.3244 33.2882 73.5705L33.1011 73.856H33.111ZM85.2197 73.6492L84.9834 73.4031C85.3182 73.0881 85.643 72.773 85.9679 72.458L86.2042 72.7041C85.8793 73.0192 85.5544 73.3342 85.2197 73.6492ZM31.3783 72.7829C30.9943 72.5565 30.6005 72.33 30.2067 72.1036L30.3741 71.8083C30.7778 72.0347 31.1715 72.2611 31.5555 72.4875L31.3783 72.7829ZM86.6866 72.2217L86.4503 71.9756C86.7752 71.6507 87.1001 71.3258 87.4151 71.0108L87.6612 71.2471C87.3462 71.5621 87.0213 71.887 86.6964 72.2217H86.6866ZM29.6062 71.7787C29.2124 71.572 28.8088 71.3652 28.3953 71.1585L28.543 70.8533C28.9565 71.06 29.3601 71.2668 29.7637 71.4735L29.6062 71.7787ZM27.7849 70.8631C27.3813 70.6761 26.9678 70.489 26.5445 70.3118L26.6823 69.9968C27.1056 70.174 27.5191 70.3611 27.9326 70.558L27.7849 70.8631ZM88.1239 70.7549L87.8778 70.5186C88.2027 70.1838 88.5177 69.8491 88.8131 69.5341L89.0592 69.7704C88.754 70.0952 88.439 70.43 88.1141 70.7647L88.1239 70.7549ZM25.9144 70.046C25.5009 69.8787 25.0776 69.7211 24.6444 69.5636L24.7626 69.2387C25.1957 69.3963 25.6191 69.5636 26.0424 69.731L25.9144 70.046ZM2.8381 69.6424L2.69043 69.3372C3.07438 69.1501 3.49771 68.9729 3.96041 68.7957L4.07855 69.1108C3.62569 69.2781 3.21221 69.4652 2.8381 69.6424ZM24.0045 69.3372C23.5812 69.1895 23.1578 69.0517 22.7148 68.9237L22.8133 68.5988C23.2563 68.7367 23.6895 68.8745 24.1128 69.0222L24.0045 69.347V69.3372ZM89.5219 69.2584L89.2659 69.032C89.581 68.6874 89.8862 68.3429 90.1815 68.018L90.4375 68.2444C90.152 68.5693 89.8369 68.9139 89.5219 69.2584ZM4.70862 68.8745L4.60033 68.5496C5.02366 68.4019 5.46667 68.2641 5.90969 68.1361L5.9983 68.461C5.55528 68.589 5.1221 68.7268 4.70862 68.8646V68.8745ZM22.0651 68.717C21.6417 68.5988 21.1987 68.4807 20.7557 68.3626L20.8443 68.0278C21.2972 68.1361 21.7402 68.2641 22.1635 68.3822L22.0749 68.7071L22.0651 68.717ZM6.6579 68.2936L6.5693 67.9589C7.01231 67.8506 7.45533 67.7423 7.90819 67.6537L7.97711 67.9884C7.53409 68.0771 7.09107 68.1755 6.6579 68.2936ZM20.0961 68.205C19.6531 68.1066 19.2101 68.0081 18.767 67.9294L18.8261 67.5947C19.2691 67.6734 19.722 67.7719 20.165 67.8703L20.0863 68.205H20.0961ZM8.64656 67.8605L8.58749 67.5257C9.04035 67.447 9.49321 67.3781 9.94607 67.319L9.98545 67.6537C9.54244 67.7128 9.08957 67.7719 8.64656 67.8506V67.8605ZM18.0976 67.8112C17.6447 67.7423 17.1919 67.6734 16.7489 67.6242L16.7882 67.2895C17.2313 67.3387 17.694 67.3978 18.1468 67.4765L18.0976 67.8112ZM90.8903 67.7128L90.6344 67.4864C90.9494 67.1221 91.2447 66.7775 91.5106 66.4428L91.7764 66.6594C91.5007 66.9941 91.2054 67.3387 90.8903 67.7029V67.7128ZM10.6647 67.5848L10.6254 67.2501C11.0782 67.2009 11.5311 67.1713 11.9938 67.1516L12.0135 67.4962C11.5606 67.5159 11.1078 67.5553 10.6647 67.5947V67.5848ZM16.0794 67.5651C15.6265 67.5257 15.1638 67.4962 14.7307 67.4765V67.132C15.1934 67.1516 15.6561 67.1812 16.1188 67.2206L16.0893 67.5651H16.0794ZM12.6928 67.4568V67.1123C12.9684 67.1123 13.2638 67.1123 13.5591 67.1024C13.7265 67.1024 13.8939 67.1024 14.0612 67.1024V67.447C13.8643 67.447 13.6773 67.447 13.4902 67.447C13.2244 67.447 12.9586 67.447 12.6928 67.4568Z" fill="#7C7C7C"/>
<path d="M60.5583 84.5573V84.2127C60.9914 84.2127 61.4345 84.1832 61.8972 84.1241L61.9365 84.4589C61.464 84.5179 61.0013 84.5475 60.5583 84.5573ZM59.8691 84.5376C59.3966 84.5081 58.9339 84.4392 58.4908 84.3407L58.5696 84.006C58.9929 84.1045 59.436 84.1635 59.8888 84.1931L59.8691 84.5278V84.5376ZM62.6257 84.3604L62.5666 84.0257C62.9899 83.9469 63.433 83.8485 63.876 83.7304L63.9646 84.0552C63.5019 84.1832 63.049 84.2817 62.6158 84.3604H62.6257ZM57.8312 84.1734C57.3882 84.0552 56.9452 83.9272 56.512 83.7993L56.6105 83.4744C57.0338 83.6024 57.4768 83.7303 57.9198 83.8485L57.8312 84.1734ZM64.634 83.8583L64.5356 83.5335C64.9491 83.4055 65.3822 83.248 65.8056 83.0806L65.9335 83.3956C65.5004 83.563 65.0672 83.7205 64.634 83.8583ZM55.8623 83.5925C55.4193 83.4547 54.9861 83.307 54.5628 83.1594L54.6809 82.8345C55.1042 82.9821 55.5276 83.1298 55.9706 83.2676L55.8623 83.5925ZM66.5636 83.1397L66.4258 82.8246C66.8393 82.6474 67.2528 82.4604 67.6564 82.2635L67.8041 82.5687C67.3906 82.7656 66.9673 82.9625 66.5538 83.1397H66.5636ZM53.9228 82.9231C53.4897 82.7656 53.0663 82.5982 52.6529 82.421L52.7808 82.106C53.1943 82.2733 53.6177 82.4407 54.041 82.5982L53.9228 82.9132V82.9231ZM68.4341 82.2635L68.2766 81.9583C68.6704 81.7515 69.0741 81.535 69.4777 81.3184L69.6451 81.6137C69.2414 81.8401 68.8378 82.0567 68.4341 82.2635ZM52.0228 82.1552C51.5995 81.978 51.186 81.7909 50.7725 81.594L50.9202 81.2888C51.3238 81.4759 51.7373 81.6629 52.1606 81.8401L52.0228 82.1552ZM50.1621 81.2987C49.7486 81.1018 49.345 80.895 48.9414 80.6784L49.0989 80.3733C49.4927 80.58 49.8963 80.7867 50.3098 80.9836L50.1621 81.2888V81.2987ZM70.2357 81.2691L70.0585 80.9738C70.4425 80.7474 70.8363 80.5111 71.2202 80.265L71.4073 80.5505C71.0135 80.7966 70.6295 81.0329 70.2357 81.2691ZM48.331 80.3634C47.9273 80.1468 47.5335 79.9204 47.1398 79.694L47.3071 79.3986C47.7009 79.6251 48.0947 79.8416 48.4983 80.0582L48.3408 80.3536L48.331 80.3634ZM71.9783 80.1862L71.7912 79.9007C72.1653 79.6546 72.5493 79.3986 72.9234 79.1427L73.1203 79.4282C72.7462 79.694 72.3622 79.9401 71.9881 80.1961L71.9783 80.1862ZM46.5392 79.3494C46.1454 79.1131 45.7516 78.8768 45.3677 78.6406L45.5449 78.3452C45.9288 78.5815 46.3128 78.8178 46.7066 79.0541L46.5294 79.3494H46.5392ZM73.6716 79.0245L73.4747 78.7489C73.839 78.4831 74.2131 78.2172 74.5773 77.9514L74.7841 78.2271C74.4198 78.5027 74.0457 78.7686 73.6814 79.0344L73.6716 79.0245ZM44.7868 78.2763C44.4029 78.0302 44.0189 77.7841 43.635 77.5379L43.822 77.2524C44.1961 77.4986 44.5801 77.7447 44.964 77.9908L44.777 78.2763H44.7868ZM75.3255 77.8038L75.1188 77.5281C75.483 77.2524 75.8375 76.9768 76.1919 76.6913L76.4085 76.9571C76.054 77.2426 75.6898 77.5183 75.3255 77.8038ZM43.0738 77.1638C42.6899 76.9079 42.3158 76.6519 41.9417 76.3959L42.1287 76.1104C42.5028 76.3664 42.8769 76.6224 43.2609 76.8685L43.0738 77.154V77.1638ZM76.9401 76.5338L76.7235 76.268C77.0779 75.9825 77.4225 75.697 77.7769 75.4016L77.9935 75.6674C77.6489 75.9628 77.2945 76.2483 76.9401 76.5338ZM41.3805 76.012C41.0064 75.756 40.6323 75.4902 40.2582 75.2343L40.4551 74.9586C40.8292 75.2146 41.1935 75.4804 41.5774 75.7363L41.3805 76.0218V76.012ZM78.5251 75.2343L78.3085 74.9783C78.6531 74.6829 78.9976 74.3876 79.3422 74.0824L79.5686 74.3384C79.2241 74.6337 78.8795 74.9389 78.5349 75.2343H78.5251ZM39.6971 74.8405L38.5747 74.0529L38.7716 73.7772L39.894 74.5648L39.6971 74.8405ZM80.0707 73.8855L79.8443 73.6295C80.1889 73.3244 80.5236 73.0192 80.8583 72.714L81.0848 72.9699C80.75 73.2751 80.4153 73.5803 80.0707 73.8855ZM38.0234 73.6689C37.6493 73.413 37.2752 73.1472 36.9011 72.8912L37.0882 72.6057C37.4623 72.8617 37.8364 73.1176 38.2105 73.3834L38.0136 73.6591L38.0234 73.6689ZM36.34 72.5072C35.9659 72.2513 35.5819 72.0051 35.2078 71.7492L35.3949 71.4637C35.7788 71.7098 36.1529 71.9658 36.527 72.2217L36.34 72.5072ZM81.5967 72.5072L81.3604 72.2611C81.6951 71.9461 82.0299 71.631 82.3547 71.3259L82.591 71.572C82.2661 71.8772 81.9314 72.1922 81.5967 72.5072ZM34.6368 71.3948C34.2529 71.1486 33.8689 70.9124 33.485 70.6761L33.6622 70.3906C34.0461 70.6269 34.4399 70.873 34.814 71.1191L34.627 71.4046L34.6368 71.3948ZM83.0833 71.0994L82.847 70.8533C83.1817 70.5284 83.5066 70.2134 83.8216 69.8984L84.0579 70.1445C83.7429 70.4595 83.418 70.7745 83.0734 71.0994H83.0833ZM32.9041 70.3217C32.5103 70.0953 32.1264 69.8688 31.7227 69.6424L31.8901 69.347C32.2839 69.5735 32.6875 69.7999 33.0715 70.0263L32.8943 70.3217H32.9041ZM84.5501 69.6621L84.3139 69.4258C84.6486 69.0911 84.9636 68.7662 85.2787 68.461L85.5248 68.6973C85.2196 69.0123 84.8947 69.3372 84.56 69.6719L84.5501 69.6621ZM31.132 69.3175C30.7383 69.1009 30.3346 68.8942 29.931 68.6973L30.0885 68.3921C30.502 68.5988 30.9056 68.8056 31.2994 69.0222L31.1419 69.3175H31.132ZM29.3206 68.3921C28.917 68.1952 28.5035 68.0081 28.09 67.8309L28.2278 67.5159C28.6511 67.6931 29.0646 67.89 29.4781 68.0771L29.3304 68.3822L29.3206 68.3921ZM85.9875 68.1952L85.7414 67.9589C86.0761 67.6144 86.3911 67.2895 86.6865 66.9744L86.9326 67.2107C86.6372 67.5257 86.3222 67.8506 85.9875 68.1952ZM27.4599 67.5651C27.0464 67.3978 26.6231 67.2304 26.1998 67.0827L26.3179 66.7578C26.7511 66.9154 27.1744 67.0827 27.5977 67.2501L27.4698 67.5651H27.4599ZM25.5599 66.8563C25.1267 66.7086 24.6935 66.5708 24.2702 66.4527L24.3686 66.1278C24.8018 66.2558 25.235 66.3936 25.678 66.5413L25.5697 66.8661L25.5599 66.8563ZM87.4051 66.7086L87.159 66.4723C87.5036 66.1081 87.8088 65.7734 88.0844 65.4682L88.3404 65.6946C88.0647 65.9998 87.7497 66.3345 87.415 66.6988L87.4051 66.7086ZM23.6106 66.2656C23.1774 66.1475 22.7442 66.0392 22.2914 65.9407L22.3701 65.606C22.823 65.7045 23.266 65.8226 23.6992 65.9407L23.6106 66.2656ZM7.06142 66.1869L6.95312 65.862C7.11064 65.8029 7.26816 65.7537 7.42568 65.7045L7.52413 66.0293C7.36661 66.0786 7.20909 66.1278 7.06142 66.1869ZM8.17389 65.8521L8.08528 65.5174C8.50861 65.4091 8.96147 65.3008 9.42418 65.2122L9.48325 65.5469C9.02054 65.6355 8.57752 65.734 8.16404 65.8423L8.17389 65.8521ZM21.6318 65.8029C21.1986 65.7143 20.7556 65.6257 20.3027 65.5568L20.3618 65.2221C20.8147 65.3008 21.2675 65.3796 21.7105 65.4682L21.6416 65.8029H21.6318ZM19.6333 65.4485C19.1903 65.3894 18.7472 65.3303 18.2845 65.2811L18.3239 64.9464C18.7866 64.9956 19.2395 65.0547 19.6825 65.1138L19.6333 65.4485ZM10.1724 65.4386L10.1232 65.1039C10.5662 65.035 11.019 64.9759 11.4818 64.9267L11.5211 65.2713C11.0584 65.3205 10.6154 65.3796 10.1724 65.4485V65.4386ZM17.6151 65.2221C17.1721 65.1827 16.7192 65.1531 16.2565 65.1335V64.7889C16.729 64.8086 17.1918 64.8381 17.6446 64.8775L17.6151 65.2122V65.2221ZM12.1906 65.2024L12.161 64.8578C12.6139 64.8184 13.0766 64.7987 13.5295 64.779V65.1236C13.0963 65.1433 12.6336 65.163 12.1906 65.2024ZM15.5772 65.1138C15.1243 65.1039 14.6715 65.1039 14.2186 65.1138V64.7692C14.6715 64.7692 15.1243 64.7692 15.587 64.7692V65.1138H15.5772Z" fill="#7C7C7C"/>
<path d="M60.4299 81.151V80.8064C60.8434 80.8064 61.2963 80.767 61.759 80.6883L61.8181 81.023C61.3357 81.1018 60.8729 81.1411 60.4398 81.1411L60.4299 81.151ZM59.7309 81.1215C59.534 81.1018 59.3371 81.0722 59.1501 81.0329C58.8843 80.9836 58.6283 80.9246 58.3724 80.8655L58.4511 80.5308C58.7071 80.5898 58.963 80.6391 59.219 80.6981C59.3962 80.7375 59.5833 80.7572 59.7605 80.7769L59.7309 81.1215ZM62.4875 80.9049L62.4087 80.5701C62.8222 80.4815 63.2554 80.3536 63.7083 80.2059L63.8166 80.5308C63.3538 80.6784 62.9108 80.8064 62.4875 80.9049ZM57.7029 80.708C57.2599 80.5997 56.8169 80.4717 56.3837 80.3437L56.4821 80.0188C56.9153 80.1468 57.3485 80.2748 57.7817 80.3831L57.6931 80.7178L57.7029 80.708ZM64.4663 80.3043L64.3482 79.9893C64.7518 79.8416 65.1751 79.6644 65.5985 79.4675L65.7363 79.7826C65.3031 79.9795 64.8798 80.1567 64.4663 80.3142V80.3043ZM55.7339 80.137C55.3008 79.9893 54.8676 79.8416 54.4443 79.6743L54.5624 79.3592C54.9759 79.5167 55.4091 79.6743 55.8422 79.8121L55.7339 80.137ZM66.3664 79.4872L66.2187 79.182C66.6223 78.9851 67.026 78.7784 67.4296 78.5618L67.597 78.8571C67.1933 79.0737 66.7798 79.2903 66.3762 79.4872H66.3664ZM53.8043 79.4183C53.381 79.2411 52.9577 79.0639 52.5442 78.8768L52.682 78.5618C53.0955 78.7489 53.509 78.9261 53.9225 79.1033L53.7945 79.4183H53.8043ZM51.924 78.5815C51.5105 78.3846 51.1069 78.1779 50.7032 77.9613L50.8607 77.6561C51.2644 77.8628 51.668 78.0696 52.0717 78.2665L51.924 78.5716V78.5815ZM68.1877 78.5224L68.0203 78.2271C68.4141 78.0105 68.798 77.7742 69.1918 77.5379L69.369 77.8234C68.9752 78.0696 68.5815 78.296 68.1877 78.5224ZM50.1027 77.6364C49.6991 77.4198 49.3053 77.1934 48.9115 76.9571L49.0788 76.6617C49.4726 76.8882 49.8664 77.1146 50.2602 77.3312L50.0928 77.6265L50.1027 77.6364ZM69.9499 77.4592L69.7628 77.1737C70.1468 76.9374 70.5209 76.6814 70.9048 76.4255L71.0919 76.711C70.7079 76.9669 70.324 77.2131 69.9499 77.4592ZM48.3208 76.6125C47.927 76.3762 47.543 76.14 47.1591 75.8938L47.3461 75.6084C47.7301 75.8545 48.114 76.0907 48.498 76.327L48.3208 76.6224V76.6125ZM71.6629 76.327L71.466 76.0415C71.8401 75.7856 72.2142 75.5197 72.5785 75.2539L72.7753 75.5296C72.4012 75.7954 72.0271 76.0612 71.653 76.3172L71.6629 76.327ZM46.5881 75.5296C46.2041 75.2835 45.83 75.0373 45.4461 74.7814L45.6331 74.4959C46.0072 74.7518 46.3912 74.998 46.7653 75.2441L46.5782 75.5296H46.5881ZM73.3365 75.1358L73.1298 74.8601C73.494 74.5943 73.8583 74.3187 74.2225 74.043L74.4293 74.3088C74.065 74.5845 73.7008 74.8601 73.3365 75.1259V75.1358ZM44.8751 74.3974C44.501 74.1415 44.1269 73.8855 43.7429 73.6295L43.9398 73.344C44.3139 73.6 44.688 73.856 45.0621 74.1119L44.8751 74.3974ZM74.9707 73.8953L74.764 73.6295C75.1283 73.3539 75.4827 73.0684 75.8371 72.7829L76.0537 73.0487C75.6993 73.3342 75.3448 73.6197 74.9806 73.8953H74.9707ZM43.1818 73.2456L42.0595 72.4777L42.2465 72.1922L43.3688 72.9601L43.1719 73.2456H43.1818ZM76.5755 72.6155L76.3589 72.3497C76.7133 72.0642 77.0677 71.7689 77.4123 71.4834L77.6289 71.7492C77.2843 72.0347 76.9299 72.33 76.5755 72.6155ZM41.4983 72.0839C41.1242 71.8279 40.7501 71.572 40.376 71.316L40.563 71.0305C40.9371 71.2865 41.3211 71.5424 41.6952 71.7984L41.4983 72.0839ZM78.1506 71.3062L77.934 71.0502C78.2885 70.7548 78.633 70.4595 78.9678 70.1641L79.1942 70.4201C78.8496 70.7155 78.505 71.0108 78.1506 71.316V71.3062ZM39.805 70.9419C39.4309 70.6958 39.0469 70.4398 38.663 70.1937L38.85 69.9082C39.234 70.1543 39.6179 70.4004 39.992 70.6564L39.805 70.9419ZM79.7061 69.9673L79.4797 69.7113C79.8242 69.4061 80.1688 69.1009 80.5035 68.8056L80.73 69.0615C80.3953 69.3569 80.0605 69.6621 79.7061 69.9673ZM38.092 69.8393C37.708 69.603 37.3241 69.3569 36.9401 69.1206L37.1174 68.8253C37.5111 69.0615 37.8951 69.3077 38.279 69.5439L38.092 69.8294V69.8393ZM36.3495 68.776C35.9655 68.5496 35.5717 68.3232 35.1681 68.0967L35.3354 67.8014C35.7391 68.0278 36.1329 68.2543 36.5168 68.4807L36.3396 68.776H36.3495ZM81.2321 68.6087L81.0056 68.3527C81.3502 68.0377 81.6948 67.7325 82.0098 67.4273L82.2461 67.6734C81.9212 67.9688 81.5865 68.2838 81.2321 68.5988V68.6087ZM34.5675 67.7719C34.1737 67.5553 33.7701 67.3485 33.3665 67.1418L33.524 66.8366C33.9375 67.0433 34.3411 67.2599 34.7349 67.4667L34.5675 67.762V67.7719ZM82.7383 67.2205L82.502 66.9744C82.8565 66.6495 83.1912 66.3345 83.4964 66.0392L83.7327 66.2853C83.4275 66.5806 83.0927 66.8957 82.7383 67.2205ZM32.7561 66.8464C32.3525 66.6495 31.939 66.4625 31.5255 66.2754L31.6633 65.9604C32.0866 66.1475 32.5001 66.3444 32.9038 66.5412L32.7561 66.8464ZM30.9053 65.9998C30.4918 65.8226 30.0783 65.6552 29.655 65.4879L29.7829 65.1728C30.2161 65.3402 30.6296 65.5174 31.0529 65.6946L30.9151 66.0096L30.9053 65.9998ZM84.2347 65.8226L83.9985 65.5765L84.9829 64.6314L85.2192 64.8775L84.2347 65.8226ZM29.0151 65.2516C28.5917 65.0941 28.1684 64.9464 27.7352 64.7987L27.8435 64.4738C28.2865 64.6215 28.7099 64.7692 29.1332 64.9267L29.0151 65.2417V65.2516ZM27.0855 64.592C26.6621 64.4541 26.229 64.3262 25.7859 64.208L25.8745 63.8831C26.3176 64.0111 26.7606 64.1391 27.1839 64.2769L27.0855 64.6018V64.592ZM25.1263 64.0308C24.6932 63.9225 24.2501 63.8142 23.8071 63.7158L23.8859 63.3811C24.3388 63.4795 24.7818 63.5878 25.2149 63.7059L25.1263 64.0407V64.0308ZM10.615 63.7059L10.5166 63.3811C10.6544 63.3417 10.8119 63.2925 10.9793 63.2432L11.0679 63.5681C10.9005 63.6173 10.7529 63.6567 10.6052 63.7059H10.615ZM23.1377 63.5681C22.7045 63.4795 22.2516 63.3909 21.8086 63.3121L21.8677 62.9774C22.3206 63.0562 22.7734 63.1448 23.2164 63.2334L23.1475 63.5681H23.1377ZM11.7275 63.4008L11.6488 63.066C12.0918 62.9577 12.5446 62.8593 12.9975 62.7805L13.0566 63.1152C12.6136 63.194 12.1705 63.2826 11.7374 63.3909L11.7275 63.4008ZM21.1392 63.2038C20.6962 63.1349 20.2531 63.066 19.7904 63.007L19.8298 62.6722C20.2925 62.7313 20.7454 62.8002 21.1884 62.8691L21.1392 63.2038ZM13.726 63.0168L13.6768 62.6821C14.1198 62.6132 14.5825 62.5639 15.0452 62.5246L15.0748 62.8593C14.6219 62.8987 14.169 62.9479 13.726 63.007V63.0168ZM19.1013 62.9282C18.6583 62.879 18.2153 62.8396 17.7722 62.8199L17.7919 62.4753C18.2448 62.495 18.6878 62.5344 19.1308 62.5836V62.7608L19.1013 62.9282ZM15.7442 62.8199L15.7245 62.4753C16.0888 62.4556 16.4629 62.4458 16.8468 62.4458C16.9354 62.4458 17.0142 62.4458 17.1028 62.4458V62.7904C16.9847 62.7904 16.8764 62.7904 16.7681 62.7904C16.4137 62.7904 16.0789 62.7904 15.7442 62.8199Z" fill="#7C7C7C"/>
<path d="M82.9942 4.66646C82.1574 4.66646 81.1532 4.51878 80.0801 4.36127C77.363 3.95763 75.0199 3.61306 75.3152 1.58502C75.5515 -0.00984192 77.2153 -0.00984192 77.7568 -0.00984192C78.5936 -0.00984192 79.5978 0.137831 80.6708 0.295348C81.9704 0.4824 83.201 0.669452 84.0575 1.02387C85.101 1.45704 85.5637 2.14618 85.4357 3.07159C85.1995 4.66646 83.5357 4.66646 82.9844 4.66646H82.9942ZM77.7666 0.679297C76.3391 0.679297 76.0733 1.16169 75.9945 1.68347C75.8075 2.97314 77.4614 3.28818 80.1786 3.68197C81.2222 3.83949 82.2066 3.97732 82.9942 3.97732C84.4217 3.97732 84.6875 3.49492 84.7663 2.97314C84.8549 2.36276 84.5694 1.96897 83.8113 1.65394C83.0238 1.32906 81.8424 1.16169 80.5822 0.974642C79.5387 0.817124 78.5542 0.679297 77.7666 0.679297Z" fill="#7C7C7C"/>
<path d="M105.441 24.553C104.87 24.553 104.27 24.425 103.708 24.1691C102.911 23.8147 102.251 23.2535 101.858 22.5841C101.424 21.8555 101.346 21.0483 101.641 20.369C102.025 19.5026 102.95 18.9809 104.122 18.9809C104.693 18.9809 105.293 19.1088 105.855 19.3648C106.652 19.7192 107.312 20.2804 107.705 20.9498C108.139 21.6783 108.217 22.4856 107.922 23.1649C107.538 24.0313 106.613 24.553 105.451 24.553H105.441ZM104.112 20.3394C103.511 20.3394 103.039 20.5659 102.881 20.9203C102.724 21.2845 102.901 21.6783 103.019 21.8851C103.265 22.3084 103.718 22.6825 104.26 22.9188C105.254 23.3618 106.406 23.1846 106.672 22.6037C106.829 22.2395 106.652 21.8457 106.534 21.639C106.288 21.2156 105.835 20.8415 105.293 20.6052C104.909 20.4379 104.496 20.3394 104.112 20.3394Z" fill="#7C7C7C"/>
<path d="M78.7804 21.2452C78.1799 21.2452 77.5597 21.0975 76.9985 20.812C76.2011 20.4182 75.571 19.8078 75.2166 19.0793C74.8327 18.3114 74.813 17.4648 75.1575 16.7756C75.6006 15.8896 76.5457 15.358 77.6877 15.358C78.2882 15.358 78.9084 15.5056 79.4696 15.7911C80.267 16.1849 80.8971 16.7953 81.2515 17.5238C81.6354 18.2917 81.6551 19.1384 81.3106 19.8275C80.8675 20.7135 79.9224 21.2452 78.7804 21.2452ZM77.6877 16.7362C77.0674 16.7362 76.5752 16.9824 76.3783 17.386C76.2208 17.701 76.2405 18.085 76.4374 18.4788C76.654 18.9316 77.0773 19.3353 77.5991 19.5912C77.983 19.7783 78.3866 19.8767 78.7804 19.8767C79.4007 19.8767 79.8929 19.6306 80.0898 19.2171C80.2473 18.9021 80.2276 18.5181 80.0307 18.1244C79.8142 17.6813 79.3908 17.2777 78.869 17.0119C78.4851 16.8248 78.0815 16.7264 77.6877 16.7264V16.7362Z" fill="#7C7C7C"/>
<path d="M48.9315 16.5886C47.5335 16.5886 46.4309 15.8305 46.2438 14.7476C46.1355 14.1077 46.3816 13.4284 46.9133 12.8967C47.3858 12.4242 48.0651 12.0895 48.8133 11.9615C49.0299 11.9221 49.2465 11.9024 49.4631 11.9024C50.861 11.9024 51.9637 12.6605 52.1409 13.7434C52.3575 15.0232 51.2352 16.244 49.5812 16.5295C49.3646 16.5689 49.148 16.5886 48.9315 16.5886ZM49.4631 13.2709C49.3253 13.2709 49.1776 13.2807 49.0398 13.3102C48.577 13.389 48.1537 13.5957 47.8781 13.8615C47.7501 13.9895 47.5433 14.2356 47.5926 14.5211C47.6713 15.0035 48.4884 15.3383 49.3548 15.1906C50.2999 15.0331 50.8709 14.4227 50.802 13.9797C50.7331 13.576 50.1621 13.2807 49.4631 13.2807V13.2709Z" fill="#7C7C7C"/>
</g>
<defs>
<clipPath id="clip0_163_72449">
<rect width="123.582" height="92" fill="white" transform="translate(0.208984)"/>
</clipPath>
</defs>
</svg>
