<svg width="38" height="92" viewBox="0 0 38 92" fill="none" xmlns="http://www.w3.org/2000/svg">
<g clip-path="url(#clip0_169_89891)">
<g clip-path="url(#clip1_169_89891)">
<path d="M11.6156 -0.193981C16.9891 -1.56336 22.8653 -1.10401 29.0622 0.542713C31.9657 2.9088 32.9797 6.34092 32.0003 10.9084C23.316 6.78294 14.883 6.23692 6.78809 10.5444C7.31677 5.6129 8.78149 1.84276 11.6069 -0.193981H11.6156Z" fill="#A67162"/>
<path d="M11.6158 -0.193971C11.6158 -0.193971 6.64098 -0.930664 5.77428 4.85888C4.89892 10.6398 -2 12.4945 -2 16.0653C-2 20.6935 0.903438 22.5395 6.12963 25.4343C11.3558 28.3291 15.8453 33.1999 14.8746 40.3155C13.9039 47.4398 10.8618 56.0981 10.6538 67.6511C10.4545 79.2042 8.01903 88.7726 12.0752 89.9513C16.1313 91.13 30.3278 92.092 31.1339 88.2439C31.9486 84.3958 30.1198 71.9673 30.3192 65.5711C30.5185 59.1748 28.4904 38.2008 23.6283 32.2292C18.7661 26.2577 22.3889 17.816 17.1367 12.0178C13.8259 8.36034 8.2357 5.10155 11.6072 -0.202638L11.6158 -0.193971Z" fill="#FFAE96"/>
<mask id="mask0_169_89891" style="mask-type:luminance" maskUnits="userSpaceOnUse" x="-2" y="-1" width="34" height="92">
<path d="M11.6158 -0.193971C11.6158 -0.193971 6.64098 -0.930664 5.77428 4.85888C4.89892 10.6398 -2 12.4945 -2 16.0653C-2 20.6935 0.903438 22.5395 6.12963 25.4343C11.3558 28.3291 15.8453 33.1999 14.8746 40.3155C13.9039 47.4398 10.8618 56.0981 10.6538 67.6511C10.4545 79.2042 8.01903 88.7726 12.0752 89.9513C16.1313 91.13 30.3278 92.092 31.1339 88.2439C31.9486 84.3958 30.1198 71.9673 30.3192 65.5711C30.5185 59.1748 28.4904 38.2008 23.6283 32.2292C18.7661 26.2577 22.3889 17.816 17.1367 12.0178C13.8259 8.36034 8.2357 5.10155 11.6072 -0.202638L11.6158 -0.193971Z" fill="white"/>
</mask>
<g mask="url(#mask0_169_89891)">
<g style="mix-blend-mode:multiply" opacity="0.2">
<path d="M11.6163 -0.193974C8.66953 -0.0899706 5.71409 3.91418 6.79747 7.90099C7.80284 11.5845 11.1656 14.0112 10.2296 14.2279C9.71824 14.3492 8.38352 13.7165 6.93614 12.7978C5.48009 11.8791 4.49205 10.8218 4.24938 10.9778C3.79002 11.2724 3.82469 12.7198 4.68272 13.4739C6.29478 14.8779 4.98607 14.9732 3.92003 14.4186C2.96666 13.9245 1.44994 13.3699 0.687245 13.8985C-0.439462 14.6872 -1.86951 18.2667 0.106558 21.3955C2.38597 25.0096 0.366568 24.9923 -6.74902 17.712L8.30552 -3.71277L11.6163 -0.193974Z" fill="#CB8B79"/>
</g>
<g style="mix-blend-mode:multiply" opacity="0.3">
<path d="M26.3678 32.8619C23.2217 35.2713 18.6195 37.4901 16.8081 39.5268C14.9967 41.5635 12.8213 64.7477 14.676 66.6458C16.5307 68.5352 20.6216 57.7101 21.9303 57.6928C23.239 57.6755 16.1494 71.612 17.7095 74.1601C19.2695 76.6995 21.3496 70.8406 22.9963 71.4126C24.643 71.9846 14 83.6071 16.1667 88.0532C17.5534 90.896 27.0871 91 36.5688 91.832L5.19434 93.6348L5.80102 33.8933L26.0298 29.9585L26.3764 32.8706L26.3678 32.8619Z" fill="#CB8B79"/>
</g>
<g style="mix-blend-mode:multiply" opacity="0.2">
<path d="M25.1804 44.5797C24.539 44.5797 25.683 51.1492 24.8857 56.4794C23.967 62.6156 21.1849 67.6338 21.9216 67.6338C23.2996 67.6338 26.1771 62.1476 26.8357 56.1067C27.4078 50.8545 26.5671 44.5797 25.1804 44.5797Z" fill="#CB8B79"/>
</g>
<g style="mix-blend-mode:multiply" opacity="0.3">
<path d="M14.2769 8.60301C15.7763 10.9431 17.3884 14.5572 15.6203 15.8139C14.6149 16.5333 13.1329 15.8573 11.7115 15.5193C9.34542 14.9559 6.86666 14.9906 7.8807 15.9353C9.50143 17.452 10.2988 18.076 9.63143 19.1854C7.20468 23.2155 2.94919 23.3542 0.115087 21.3955C-2.72768 19.4367 0.141087 27.107 5.69662 27.2197C11.2522 27.3324 20.2138 21.5515 20.0925 17.0967C19.9711 12.6418 14.2943 8.60301 14.2943 8.60301H14.2769Z" fill="#CB8B79"/>
</g>
</g>
<path d="M29.0624 0.542709C31.3418 4.27818 29.8857 10.1804 23.2728 13.6559C16.6599 17.1313 4.34415 22.4182 4.45682 28.2424C4.57816 34.0753 9.96035 31.6658 11.3471 34.2833C12.8898 37.204 13.9472 38.9894 18.194 36.97C22.4408 34.9506 34.6439 27.419 38.0327 18.4747C41.0315 10.5617 39.4454 4.34751 29.0624 0.542709Z" fill="#FFAE96"/>
<mask id="mask1_169_89891" style="mask-type:luminance" maskUnits="userSpaceOnUse" x="4" y="0" width="36" height="38">
<path d="M29.0624 0.542709C31.3418 4.27818 29.8857 10.1804 23.2728 13.6559C16.6599 17.1313 4.34415 22.4182 4.45682 28.2424C4.57816 34.0753 9.96035 31.6658 11.3471 34.2833C12.8898 37.204 13.9472 38.9894 18.194 36.97C22.4408 34.9506 34.6439 27.419 38.0327 18.4747C41.0315 10.5617 39.4454 4.34751 29.0624 0.542709Z" fill="white"/>
</mask>
<g mask="url(#mask1_169_89891)">
<g style="mix-blend-mode:multiply" opacity="0.2">
<path d="M40.0432 8.49901C39.8092 17.4693 32.4249 25.8243 31.6275 25.0876C30.8302 24.3422 36.091 16.4726 34.895 16.1173C33.6989 15.7619 26.8 27.9044 20.9845 30.4265C15.9316 32.6192 17.2403 29.7764 15.2729 29.1004C10.5754 27.4884 8.09667 33.9279 3.52051 29.4558C3.52051 29.4558 7.10864 40.7922 18.2024 39.5441C29.2961 38.2961 43.1113 23.8656 43.7526 19.4627C44.394 15.0599 40.0518 8.49901 40.0518 8.49901H40.0432Z" fill="#CB8B79"/>
</g>
<g style="mix-blend-mode:multiply" opacity="0.2">
<path d="M31.9912 7.45896C31.3412 7.43296 32.1645 11.7231 29.1831 15.6319C27.129 18.3187 19.5801 21.3435 19.5801 22.1235C19.5801 22.9035 27.025 20.4074 30.2318 16.4813C32.8059 13.3265 32.6412 7.48497 31.9912 7.45896Z" fill="#CB8B79"/>
</g>
</g>
</g>
</g>
<defs>
<clipPath id="clip0_169_89891">
<rect width="36.8" height="92" fill="white" transform="translate(0.599609)"/>
</clipPath>
<clipPath id="clip1_169_89891">
<rect width="41.3848" height="92" fill="white" transform="translate(-2 -1)"/>
</clipPath>
</defs>
</svg>
