<svg width="97" height="92" viewBox="0 0 97 92" fill="none" xmlns="http://www.w3.org/2000/svg">
<g clip-path="url(#clip0_167_78601)">
<path d="M43.2374 65.2273C43.2374 65.2273 51.2653 91.9923 72.6835 91.9923C72.6835 91.9923 86.066 78.6098 86.066 59.8728C86.066 41.1357 83.3926 14.363 43.2374 14.363H43.2067C3.05918 14.3707 0.385742 41.1357 0.385742 59.8728C0.385742 78.6098 13.7683 91.9923 13.7683 91.9923C35.1864 91.9923 43.2144 65.2273 43.2144 65.2273H43.245H43.2374Z" fill="#81C7C9"/>
<path opacity="0.1" d="M86.0656 59.8804C86.0656 78.6175 72.6831 92 72.6831 92C70.5153 92 68.5083 91.7319 66.6085 91.2263C66.823 91.2493 67.0605 91.2493 67.3056 91.2493C67.3056 91.2493 80.6881 77.8668 80.6881 59.1297C80.6881 42.6371 78.6275 19.9397 50.79 14.7231C83.7446 17.9097 86.0733 42.3997 86.0733 59.8804H86.0656Z" fill="black"/>
<path opacity="0.1" d="M80.3435 81.245C76.7279 87.963 72.6909 92.0077 72.6909 92.0077C51.2728 92.0077 43.2448 65.2426 43.2448 65.2426H43.2218C43.2218 65.2426 35.1938 92.0077 13.7757 92.0077C13.7757 92.0077 9.73104 87.963 6.12305 81.245C33.0796 80.1189 43.2218 54.5336 43.2218 54.5336H43.2448C43.2448 54.5336 53.387 80.1266 80.3435 81.245Z" fill="black"/>
<path d="M43.2139 57.1993C46.1711 57.1993 48.5685 51.808 48.5685 45.1574C48.5685 38.5068 46.1711 33.1154 43.2139 33.1154C40.2567 33.1154 37.8594 38.5068 37.8594 45.1574C37.8594 51.808 40.2567 57.1993 43.2139 57.1993Z" fill="#E72A5C"/>
<path opacity="0.15" d="M46.0943 42.8516C46.0943 39.2973 44.5163 36.417 42.5706 36.417C40.6249 36.417 39.0469 39.2973 39.0469 42.8516C39.0469 46.406 40.6249 49.2863 42.5706 49.2863C44.5163 49.2863 46.0943 46.406 46.0943 42.8516Z" fill="white"/>
<path opacity="0.15" d="M42.1339 46.1685C43.3523 46.1685 44.3401 44.3645 44.3401 42.1392C44.3401 39.9139 43.3523 38.1099 42.1339 38.1099C40.9155 38.1099 39.9277 39.9139 39.9277 42.1392C39.9277 44.3645 40.9155 46.1685 42.1339 46.1685Z" fill="white"/>
<path d="M96.6146 2.67344C96.6146 2.78068 96.6146 3.23264 96.561 3.98335C96.4001 6.4423 95.7567 11.9883 93.0832 18.2238C92.3861 19.8861 91.5282 21.5714 90.517 23.2796C88.962 25.9301 86.9856 28.5805 84.496 31.0701C77.0809 38.4853 69.5891 40.0403 64.6099 40.0403C63.0549 40.0403 61.7756 39.8794 60.8334 39.7186C59.7916 39.5347 59.1482 39.3432 59.0409 39.2896C58.2366 39.0215 57.6238 38.4087 57.3557 37.6043C57.3327 37.4971 57.1412 36.9379 56.9573 35.9957C56.2372 32.1655 55.6168 22.0999 65.5751 12.1415C66.2416 11.4751 66.9387 10.8316 67.6357 10.2112C69.4053 8.70974 71.1978 7.39983 72.9903 6.32739C81.4932 1.14904 90.0344 0.214488 92.9223 0.053622C93.5122 0 93.8569 0 93.9412 0C94.6612 0 95.3353 0.291091 95.8409 0.80433C96.3465 1.31757 96.6146 1.98401 96.6146 2.6811V2.67344Z" fill="#B95FB4"/>
<g opacity="0.1">
<path d="M96.6143 2.67344C96.6143 2.78068 96.6143 3.23264 96.5606 3.98335C96.3998 6.4423 95.7563 11.9883 93.0829 18.2238C92.3858 19.8861 91.5278 21.5714 90.5167 23.2796C88.9616 25.9301 86.9853 28.5805 84.4957 31.0701C77.0805 38.4853 69.5888 40.0403 64.6096 40.0403C63.0546 40.0403 61.7753 39.8794 60.8331 39.7186C59.7913 39.5347 59.1478 39.3432 59.0406 39.2896C58.4277 39.0751 57.9145 38.6768 57.5928 38.1099C57.6158 38.1329 57.6464 38.1329 57.6694 38.1329C58.6039 38.2938 59.8909 38.4546 61.4459 38.4546C66.4251 38.4546 73.9168 36.8996 81.332 29.4844C83.8216 26.9948 85.8056 24.3444 87.353 21.6939C88.3718 19.978 89.2297 18.2928 89.9192 16.6381C92.5926 10.4027 93.2361 4.85662 93.3969 2.39767C93.4506 1.64696 93.4506 1.195 93.4506 1.08776C93.4506 0.712407 93.374 0.367694 93.2361 0.0153209C93.6344 -0.00765991 93.8795 -0.00765991 93.9332 -0.00765991C94.6532 -0.00765991 95.3273 0.283431 95.8329 0.79667C96.3385 1.30991 96.6066 1.97635 96.6066 2.67344H96.6143Z" fill="black"/>
</g>
<path opacity="0.2" d="M96.5606 3.99101L83.63 16.8909L93.0828 18.2315C92.3857 19.8938 91.5277 21.579 90.5166 23.2873L78.8959 21.625L60.8253 39.7186C59.7835 39.5347 59.1401 39.3432 59.0328 39.2896C58.2285 39.0215 57.6157 38.4087 57.3476 37.6043C57.3246 37.4971 57.1331 36.9379 56.9492 35.9957L67.6277 25.3402V10.2265C69.3972 8.72506 71.1897 7.41515 72.9822 6.34271V19.9933L92.9219 0.053622C93.5118 0 93.8565 0 93.9407 0C94.6608 0 95.3349 0.291091 95.8405 0.80433C96.3461 1.31757 96.6142 1.98401 96.6142 2.6811C96.6142 2.78834 96.6142 3.2403 96.5606 3.99101Z" fill="black"/>
<path opacity="0.15" d="M29.5398 45.4509C34.4385 37.1808 34.0839 27.9142 28.7476 24.7533C23.4114 21.5924 15.1143 25.7343 10.2156 34.0043C5.31689 42.2744 5.67158 51.541 11.0078 54.7019C16.3441 57.8628 24.6411 53.721 29.5398 45.4509Z" fill="white"/>
<path opacity="0.15" d="M25.1058 42.2005C28.1852 36.9992 27.9631 31.1697 24.6079 29.1857C21.2527 27.2017 16.036 29.7985 12.9489 34.9998C9.86949 40.2012 10.0916 46.0306 13.4468 48.0147C16.802 50.0063 22.0187 47.4018 25.1058 42.2005Z" fill="white"/>
<path d="M11.6846 83.4128C10.3823 83.4128 9.3252 82.3557 9.3252 81.0535C9.3252 79.7512 10.3823 78.6941 11.6846 78.6941C12.9868 78.6941 14.0439 79.7512 14.0439 81.0535C14.0439 82.3557 12.9868 83.4128 11.6846 83.4128ZM21.7502 78.6864C21.7502 77.3842 20.6931 76.3271 19.3908 76.3271C18.0886 76.3271 17.0314 77.3842 17.0314 78.6864C17.0314 79.9887 18.0886 81.0458 19.3908 81.0458C20.6931 81.0458 21.7502 79.9887 21.7502 78.6864ZM29.2113 74.4273C29.2113 73.1251 28.1542 72.0679 26.8519 72.0679C25.5497 72.0679 24.4926 73.1251 24.4926 74.4273C24.4926 75.7296 25.5497 76.7867 26.8519 76.7867C28.1542 76.7867 29.2113 75.7296 29.2113 74.4273ZM35.3625 69.3485C35.3625 68.0463 34.3054 66.9892 33.0031 66.9892C31.7009 66.9892 30.6438 68.0463 30.6438 69.3485C30.6438 70.6508 31.7009 71.7079 33.0031 71.7079C34.3054 71.7079 35.3625 70.6508 35.3625 69.3485ZM40.9315 62.7913C40.9315 61.4891 39.8744 60.432 38.5722 60.432C37.2699 60.432 36.2128 61.4891 36.2128 62.7913C36.2128 64.0936 37.2699 65.1507 38.5722 65.1507C39.8744 65.1507 40.9315 64.0936 40.9315 62.7913Z" fill="#F7D823"/>
<path d="M72.5001 81.0458C72.5001 79.7436 73.5572 78.6864 74.8594 78.6864C76.1617 78.6864 77.2188 79.7436 77.2188 81.0458C77.2188 82.348 76.1617 83.4052 74.8594 83.4052C73.5572 83.4052 72.5001 82.348 72.5001 81.0458ZM67.1608 81.0458C68.4631 81.0458 69.5202 79.9887 69.5202 78.6864C69.5202 77.3842 68.4631 76.3271 67.1608 76.3271C65.8586 76.3271 64.8015 77.3842 64.8015 78.6864C64.8015 79.9887 65.8586 81.0458 67.1608 81.0458ZM59.6997 76.7867C61.002 76.7867 62.0591 75.7296 62.0591 74.4273C62.0591 73.1251 61.002 72.0679 59.6997 72.0679C58.3975 72.0679 57.3404 73.1251 57.3404 74.4273C57.3404 75.7296 58.3975 76.7867 59.6997 76.7867ZM53.5485 71.7079C54.8508 71.7079 55.9079 70.6508 55.9079 69.3485C55.9079 68.0463 54.8508 66.9892 53.5485 66.9892C52.2463 66.9892 51.1891 68.0463 51.1891 69.3485C51.1891 70.6508 52.2463 71.7079 53.5485 71.7079ZM47.9795 65.1507C49.2817 65.1507 50.3389 64.0936 50.3389 62.7913C50.3389 61.4891 49.2817 60.432 47.9795 60.432C46.6772 60.432 45.6201 61.4891 45.6201 62.7913C45.6201 64.0936 46.6772 65.1507 47.9795 65.1507Z" fill="#F7D823"/>
</g>
<defs>
<clipPath id="clip0_167_78601">
<rect width="96.2285" height="92" fill="white" transform="translate(0.385742)"/>
</clipPath>
</defs>
</svg>
