<svg width="84" height="92" viewBox="0 0 84 92" fill="none" xmlns="http://www.w3.org/2000/svg">
<g clip-path="url(#clip0_236_173294)">
<path opacity="0.3" d="M83.4369 88.2464C83.4369 90.3193 55.8573 92 40.9749 92C21.4186 92 12.79 90.3193 12.79 88.2464C12.79 86.1734 26.0926 84.4927 40.9749 84.4927C55.8573 84.4927 83.4369 86.1734 83.4369 88.2464Z" fill="black"/>
<path d="M48.0074 61.5654C47.7069 69.2028 45.9532 77.2178 41.0873 83.315C36.0308 89.6543 27.1935 91.8337 19.4247 90.5357C10.4406 89.0317 5.60247 82.4385 3.11141 74.5953H3.10863C1.26521 68.791 0.708008 62.2979 0.708008 56.6807C0.708703 10.4059 23.6743 0.642761 23.6743 0.642761C29.9802 3.24651 35.1056 9.21572 39.0053 16.8809C45.4962 29.6415 48.5779 47.1005 48.0074 61.5654Z" fill="#BB7C3A"/>
<path opacity="0.6" d="M3.11239 74.596H3.10961C1.26618 68.7917 0.708984 62.2986 0.708984 56.6814C0.708984 10.4059 23.6745 0.642761 23.6745 0.642761C24.078 0.809713 24.4794 0.989881 24.8724 1.18535C20.387 3.75849 2.12251 20.7931 2.12251 61.1154L3.11239 74.5953V74.596Z" fill="white"/>
<path d="M5.71661 57.3972C5.71661 57.3972 5.72496 57.5273 5.74026 57.7722C5.75348 58.0156 5.78548 58.3732 5.81887 58.8247C5.89191 59.7283 6.00599 61.0117 6.19381 62.5331C6.28703 63.2941 6.4025 64.1142 6.53954 64.9754C6.67589 65.8373 6.84353 66.7388 7.03622 67.664C7.13779 68.1252 7.23865 68.5941 7.35413 69.065C7.41117 69.3002 7.4703 69.5367 7.5343 69.7725C7.59412 70.0097 7.65951 70.2462 7.72351 70.4834C7.99063 71.4316 8.29114 72.3825 8.64035 73.3119C8.97773 74.2468 9.37772 75.1532 9.80205 76.0276C9.9064 76.2474 10.0212 76.4603 10.1332 76.6732C10.2403 76.8895 10.3613 77.0954 10.474 77.3055C10.5909 77.5128 10.7133 77.7145 10.8316 77.9176C10.9589 78.1145 11.0758 78.3169 11.2017 78.5103C11.7046 79.2859 12.2354 80.0073 12.7814 80.6605C13.3261 81.3144 13.8826 81.9029 14.4266 82.4212C14.972 82.9373 15.5027 83.3846 15.9876 83.77C16.2325 83.9585 16.4648 84.1338 16.6818 84.2938C16.9024 84.4482 17.1034 84.5964 17.2898 84.7223C17.4776 84.8461 17.6453 84.9588 17.7907 85.0597C17.9382 85.1564 18.0661 85.2343 18.1691 85.2997C18.375 85.4325 18.4849 85.5042 18.4849 85.5042C18.4849 85.5042 18.3576 85.4743 18.1204 85.411C18.0022 85.3783 17.8547 85.3414 17.6836 85.2906C17.5131 85.2385 17.3183 85.1745 17.0992 85.1014C16.8801 85.0291 16.645 84.9303 16.3841 84.8308C16.2526 84.7828 16.1226 84.7188 15.9848 84.6583C15.8478 84.5957 15.7038 84.5338 15.5577 84.4635C14.9769 84.1797 14.3348 83.8229 13.6642 83.3783C12.9978 82.9297 12.3077 82.3885 11.6295 81.7561C10.9533 81.1224 10.289 80.3969 9.67336 79.592C9.51893 79.391 9.36868 79.1844 9.21842 78.975C9.07512 78.7614 8.92764 78.5479 8.78643 78.3295C8.5047 77.8912 8.23201 77.439 7.98437 76.9702C7.47656 76.038 7.03831 75.0523 6.66337 74.0485C6.29746 73.0406 5.98234 72.0173 5.74513 70.9954C5.6227 70.4855 5.51627 69.977 5.42792 69.472C5.37993 69.2202 5.34236 68.9683 5.29993 68.7193C5.26097 68.4696 5.22897 68.2212 5.19698 67.975C5.07107 66.99 4.99802 66.0342 4.96533 65.1285C4.93472 64.2228 4.94237 63.3671 4.97855 62.5804C5.01611 61.7929 5.07733 61.0736 5.15315 60.4392C5.22897 59.8048 5.31454 59.2546 5.3994 58.8038C5.48079 58.353 5.56636 58.0017 5.62201 57.7631C5.67974 57.5245 5.7187 57.3993 5.7187 57.3993L5.71661 57.3972Z" fill="#9B6123"/>
<path d="M36.082 25.577C36.082 25.577 36.1022 25.6076 36.1405 25.6674C36.1787 25.7272 36.2372 25.8163 36.3074 25.9345C36.4486 26.171 36.6608 26.5168 36.907 26.9689C37.4058 27.8698 38.0722 29.1831 38.7679 30.806C38.9466 31.2102 39.1129 31.638 39.2952 32.0783C39.4698 32.5208 39.6457 32.9806 39.821 33.4557C39.997 33.9301 40.1675 34.4212 40.3365 34.9256C40.5125 35.4278 40.6683 35.9481 40.8325 36.4754C41.156 37.5321 41.4586 38.6347 41.7278 39.7651C41.8572 40.3313 42.0019 40.8996 42.1118 41.4777C42.1702 41.7657 42.2286 42.0551 42.2878 42.3438L42.4464 43.2154C42.6488 44.3792 42.8164 45.5506 42.9416 46.7082C43.0098 47.2862 43.0516 47.8629 43.0989 48.4312C43.1392 49.0003 43.1684 49.5644 43.1935 50.1181C43.2088 50.6726 43.222 51.2179 43.2262 51.7515C43.2227 52.2857 43.2129 52.8081 43.1997 53.316C43.1566 54.3323 43.0982 55.2908 42.9966 56.1722C42.9159 57.0543 42.7733 57.857 42.6662 58.5659C42.5291 59.2733 42.406 59.8862 42.2891 60.3877C42.1632 60.8886 42.0512 61.2781 41.9803 61.5439C41.9045 61.8089 41.8648 61.9501 41.8648 61.9501C41.8648 61.9501 41.8648 61.8027 41.8634 61.5265C41.8676 61.251 41.8641 60.8476 41.8773 60.3377C41.8759 59.8285 41.8739 59.21 41.8711 58.5005C41.862 58.1471 41.853 57.7715 41.8432 57.375C41.8363 57.1774 41.8398 56.975 41.83 56.7677C41.8203 56.5604 41.8106 56.3482 41.8008 56.1312C41.7793 55.6985 41.7758 55.2484 41.7368 54.783C41.7027 54.3177 41.6881 53.837 41.6457 53.3438C41.606 52.8513 41.565 52.3449 41.5233 51.828C41.4648 51.3118 41.4252 50.7839 41.3674 50.2489C41.3048 49.714 41.2415 49.1707 41.1775 48.6204C41.14 48.3457 41.1024 48.0695 41.0648 47.7919C41.0287 47.5144 40.9988 47.2347 40.9542 46.9551C40.7873 45.8372 40.6217 44.7006 40.413 43.5709L40.2676 42.7215C40.2134 42.4398 40.1591 42.158 40.1056 41.877C39.9998 41.3142 39.8885 40.7542 39.7758 40.1998C39.6597 39.6454 39.5442 39.0952 39.4301 38.5519C39.3084 38.0093 39.1873 37.4736 39.0691 36.9464C38.8263 35.8932 38.5828 34.8748 38.3414 33.9113C38.1014 32.9472 37.867 32.0359 37.6423 31.1956C37.4232 30.3532 37.2076 29.5845 37.0225 28.8993C36.8305 28.2148 36.6636 27.6186 36.5258 27.1268C36.3853 26.6343 36.2747 26.2469 36.1996 25.9832C36.1224 25.7189 36.082 25.5777 36.082 25.5777V25.577Z" fill="#9B6123"/>
<path d="M27.625 84.4921C27.625 84.4921 27.705 84.4656 27.8546 84.4162C28.0034 84.3703 28.2198 84.2889 28.4918 84.1943C28.7637 84.0969 29.0914 83.9773 29.4615 83.8347C29.8308 83.6893 30.2447 83.5279 30.6865 83.3345C31.1303 83.1481 31.5998 82.9276 32.0889 82.6904C32.3302 82.5631 32.5828 82.449 32.8304 82.3092C32.9542 82.2403 33.0822 82.1763 33.2074 82.1054C33.3327 82.0344 33.4586 81.962 33.5859 81.8897C33.7146 81.8208 33.837 81.7374 33.9643 81.6622C34.0902 81.585 34.2203 81.512 34.3455 81.4299C34.47 81.3471 34.5952 81.2643 34.7204 81.1809C34.8484 81.1009 34.9723 81.0139 35.0947 80.9256C35.2185 80.8379 35.3423 80.7503 35.4668 80.6619C35.5858 80.5673 35.7061 80.4734 35.8286 80.3823L36.0115 80.2438C36.0714 80.1965 36.1284 80.1458 36.1875 80.0971L36.5381 79.8014C36.6557 79.704 36.7649 79.5969 36.879 79.4953C36.9903 79.391 37.1085 79.2943 37.2136 79.1844C37.3193 79.0752 37.425 78.9667 37.5336 78.8616L37.695 78.7023L37.8452 78.534C38.0435 78.3086 38.2508 78.0929 38.433 77.8599C38.5269 77.7451 38.6201 77.6317 38.7127 77.5191C38.8017 77.4036 38.8859 77.2853 38.9728 77.1698C39.0591 77.0537 39.1446 76.9389 39.2295 76.8248C39.3081 76.7059 39.386 76.5883 39.4626 76.4721C39.5405 76.356 39.6177 76.2405 39.6942 76.1264C39.7707 76.0123 39.8312 75.8913 39.9036 75.7772C40.1916 75.3222 40.4177 74.8631 40.6479 74.443C40.7509 74.2266 40.8489 74.0186 40.9429 73.8211C40.9915 73.7216 41.0389 73.6249 41.0848 73.531C41.1258 73.435 41.1648 73.3411 41.2037 73.2507C41.2823 73.0691 41.3533 72.8973 41.4256 72.7394C41.4611 72.6601 41.4945 72.5836 41.5272 72.5112C41.5557 72.4368 41.5828 72.3665 41.6086 72.299C41.7108 72.0298 41.8047 71.8184 41.8632 71.6723C41.9237 71.5269 41.9599 71.449 41.9599 71.449C41.9599 71.449 41.9675 71.5324 41.9738 71.6897C41.978 71.8469 41.9926 72.0792 41.994 72.3749C41.994 72.4493 41.9953 72.5272 41.996 72.6093C41.9912 72.6907 41.9856 72.7755 41.98 72.8646C41.9696 73.0427 41.9515 73.2347 41.9348 73.4413C41.9265 73.5449 41.9174 73.6513 41.9035 73.7613C41.8854 73.8698 41.8674 73.9818 41.8486 74.0959C41.8103 74.3254 41.7644 74.5668 41.7171 74.8207C41.6538 75.069 41.5821 75.3271 41.5091 75.597C41.4903 75.6645 41.4715 75.732 41.4521 75.8002C41.4305 75.8676 41.4048 75.9337 41.3804 76.0019C41.331 76.1375 41.2809 76.2753 41.2308 76.4151C41.1787 76.5549 41.13 76.6982 41.0667 76.8373C41.0027 76.9765 40.938 77.1177 40.8726 77.2596C40.8065 77.4022 40.7411 77.5476 40.6674 77.6902C40.5881 77.83 40.5088 77.9712 40.4281 78.1138C40.3453 78.255 40.2695 78.4032 40.1784 78.5423C40.0844 78.6801 39.9905 78.8192 39.8959 78.959C39.7985 79.0974 39.7102 79.2442 39.6017 79.3764C39.4946 79.5099 39.3867 79.6442 39.2782 79.7785L39.1147 79.9809L38.9394 80.1736C38.8233 80.303 38.7036 80.4303 38.5833 80.5569C38.4643 80.6849 38.3315 80.7997 38.2055 80.9214C38.0769 81.0396 37.9537 81.1656 37.8195 81.2782L37.4125 81.6101C37.3444 81.665 37.2776 81.7214 37.208 81.7742L36.9972 81.9287C36.8574 82.0323 36.7155 82.1325 36.5736 82.2313C36.4275 82.3238 36.2821 82.4156 36.1374 82.5074C35.558 82.874 34.9556 83.1773 34.3615 83.4354C34.0624 83.5599 33.7709 83.6865 33.476 83.7825C33.1845 83.8883 32.8951 83.978 32.612 84.0601C32.0443 84.2173 31.5031 84.339 30.9988 84.4176C30.4952 84.5011 30.0298 84.5442 29.6187 84.5686C29.2062 84.5901 28.8472 84.5915 28.5509 84.579C28.2552 84.5693 28.0236 84.5421 27.8664 84.5254C27.7878 84.5178 27.7273 84.5067 27.6869 84.5004C27.6466 84.4934 27.6257 84.49 27.6257 84.49L27.625 84.4921Z" fill="#9B6123"/>
<path d="M23.5954 9.06754C23.5954 9.06754 23.6838 9.13779 23.841 9.27901C23.9947 9.42231 24.2278 9.6296 24.5011 9.91273C24.7773 10.1938 25.1049 10.5437 25.4618 10.9603C25.8207 11.3756 26.2089 11.8584 26.6138 12.4003C27.0207 12.9408 27.4339 13.5453 27.8562 14.1957C28.268 14.8517 28.6951 15.5508 29.0923 16.2979C29.3003 16.6666 29.4895 17.0534 29.6857 17.4422C29.8804 17.8318 30.0669 18.2318 30.2498 18.6373C30.6123 19.4498 30.9524 20.2874 31.2606 21.1367L31.486 21.776C31.5562 21.991 31.6258 22.2052 31.6953 22.4188C31.8407 22.8445 31.9597 23.2779 32.08 23.7057C32.1385 23.92 32.2052 24.1314 32.2567 24.3457C32.3082 24.5599 32.3604 24.7728 32.4112 24.985C32.5176 25.4072 32.6059 25.8288 32.6873 26.2448C32.7729 26.6594 32.848 27.0684 32.9085 27.4712C32.9405 27.6722 32.9718 27.8711 33.0031 28.0673C33.0296 28.2642 33.0553 28.4589 33.0769 28.6516C33.1186 29.037 33.1743 29.4092 33.1972 29.7737C33.2236 30.1368 33.2494 30.4874 33.2744 30.8248C33.2883 31.1629 33.2988 31.4856 33.3064 31.7931C33.3127 32.1006 33.3224 32.3914 33.312 32.6661C33.305 32.9402 33.3023 33.1962 33.2925 33.4334C33.2856 33.6699 33.2779 33.887 33.2591 34.0838C33.2313 34.4762 33.1965 34.7843 33.1777 34.9937C33.1569 35.2031 33.1423 35.3144 33.1423 35.3144C33.1423 35.3144 33.113 35.2052 33.0644 35C33.0184 34.7948 32.9433 34.4949 32.8633 34.1137C32.7861 33.7325 32.6664 33.2734 32.5538 32.7468C32.4974 32.4832 32.432 32.2042 32.359 31.9114C32.2901 31.6185 32.2185 31.3103 32.1433 30.989C31.9785 30.3497 31.8178 29.6568 31.6188 28.9313C31.5722 28.7497 31.5242 28.5654 31.4762 28.379C31.4241 28.1939 31.3705 28.0061 31.3169 27.8169C31.2627 27.6277 31.2098 27.4364 31.1583 27.2423C31.1068 27.0482 31.0449 26.8555 30.9879 26.6593C30.7618 25.8747 30.51 25.0712 30.2477 24.2573C30.1817 24.0542 30.1149 23.8504 30.0481 23.6459C29.9785 23.4421 29.909 23.2382 29.8387 23.0337C29.7691 22.8292 29.6989 22.624 29.6293 22.4188L29.4053 21.8073C29.1194 20.9872 28.798 20.1802 28.4899 19.3824C28.3285 18.9858 28.1678 18.5928 28.0099 18.2047C27.845 17.8193 27.6871 17.4353 27.5236 17.061C27.2023 16.3098 26.8725 15.5919 26.5602 14.9088C26.3995 14.5693 26.2465 14.2368 26.0913 13.9189C26.0148 13.7589 25.9397 13.6017 25.866 13.4472C25.7901 13.2935 25.7157 13.1432 25.6434 12.9958C25.0632 11.8125 24.5498 10.8337 24.1832 10.1472C23.9989 9.8049 23.8549 9.53291 23.7519 9.34996C23.6497 9.16631 23.5947 9.06823 23.5947 9.06823L23.5954 9.06754Z" fill="#9B6123"/>
<path d="M5.97896 50.21C5.97896 50.21 5.95183 50.0834 5.91288 49.8441C5.87601 49.6048 5.81758 49.2535 5.7654 48.8048C5.71254 48.3561 5.65689 47.8094 5.61515 47.1819C5.58941 46.8675 5.57898 46.5336 5.5588 46.1809C5.54419 45.8282 5.53515 45.4574 5.5275 45.07C5.51776 44.2957 5.52402 43.4554 5.56298 42.5678C5.56854 42.3452 5.58106 42.1205 5.59706 41.893C5.61167 41.6655 5.62558 41.4346 5.64019 41.2023C5.67358 40.7362 5.7181 40.2618 5.7668 39.7783C5.81827 39.2955 5.87184 38.8044 5.94557 38.3098C5.98035 38.0622 6.01444 37.8124 6.04992 37.562C6.09235 37.3123 6.13478 37.0619 6.17791 36.81C6.26139 36.3064 6.35947 35.8 6.46451 35.2936C6.56816 34.7864 6.69338 34.2814 6.80676 33.7743C6.94033 33.2714 7.07041 32.7677 7.21301 32.269C7.28675 32.0199 7.35979 31.7716 7.43701 31.5253L7.55109 31.1559C7.59213 31.0342 7.63387 30.9118 7.67491 30.7907C7.75769 30.548 7.83978 30.3059 7.92186 30.0652C8.00325 29.8245 8.09925 29.5894 8.18968 29.3543C8.28081 29.1198 8.37124 28.8861 8.46097 28.6545C8.54932 28.4228 8.65645 28.1988 8.75314 27.9741C8.85192 27.7501 8.94931 27.5282 9.046 27.3077C9.14617 27.0893 9.2533 26.8757 9.35834 26.6643C9.46338 26.4535 9.56703 26.2448 9.66929 26.0382C9.77711 25.8344 9.88702 25.6347 9.99693 25.4386C10.1068 25.2431 10.2147 25.0497 10.3211 24.8591C10.4289 24.6699 10.5451 24.4883 10.6571 24.3089C10.8859 23.9527 11.0898 23.6014 11.3235 23.2849C11.5524 22.9663 11.7617 22.6567 11.9781 22.3736C12.2021 22.0954 12.4115 21.8296 12.6125 21.5855C12.8087 21.3371 13.0146 21.1215 13.2003 20.9197C13.3874 20.7201 13.5586 20.5364 13.7137 20.3709C14.0392 20.0537 14.3084 19.8186 14.4851 19.6537C14.6639 19.4909 14.762 19.4067 14.762 19.4067C14.762 19.4067 14.6966 19.518 14.5728 19.7274C14.4476 19.9326 14.2646 20.2331 14.0309 20.6157C13.9217 20.8105 13.8006 21.0262 13.6692 21.2606C13.5405 21.4964 13.3847 21.7378 13.2504 22.0174C13.1099 22.2929 12.9554 22.5809 12.7961 22.8863C12.6424 23.1951 12.4894 23.5235 12.3252 23.8623C12.1548 24.1975 12.0052 24.5621 11.8404 24.9314C11.761 25.1186 11.6699 25.3022 11.5913 25.4963C11.5127 25.6904 11.4334 25.8872 11.3527 26.0869C11.2713 26.2858 11.1885 26.4869 11.1051 26.6907C11.0279 26.8973 10.9499 27.1067 10.8713 27.3181C10.792 27.5289 10.7113 27.7425 10.6306 27.9574C10.5555 28.1752 10.4797 28.395 10.4025 28.6162C10.0894 29.499 9.80633 30.4255 9.5232 31.3681C9.48773 31.4857 9.45225 31.6039 9.41677 31.7222L9.31938 32.0804C9.25539 32.3204 9.18721 32.559 9.11904 32.799C8.98687 33.2797 8.86931 33.7667 8.7434 34.2515C8.5041 35.2247 8.27942 36.2027 8.07629 37.1711C7.8683 38.138 7.68882 39.0966 7.51422 40.0252C7.43144 40.4913 7.35005 40.949 7.27075 41.397C7.19632 41.8471 7.12328 42.2874 7.05232 42.7159C7.01754 42.9309 6.98276 43.1424 6.94937 43.3511C6.91737 43.5604 6.88607 43.7663 6.85476 43.9688C6.78729 44.3736 6.73581 44.766 6.67668 45.143C6.56468 45.8971 6.4659 46.5899 6.38173 47.2062C6.29756 47.824 6.22383 48.3624 6.16331 48.8055C6.04505 49.698 5.97757 50.2086 5.97757 50.2086L5.97896 50.21Z" fill="#9B6123"/>
<path d="M34.7934 41.9431C34.7934 41.9431 34.8643 42.037 34.9868 42.2213C35.1078 42.4056 35.2831 42.679 35.4848 43.038C35.6894 43.3962 35.9217 43.8393 36.1666 44.359C36.4149 44.8772 36.6632 45.4755 36.9185 46.1363C37.1634 46.7993 37.4131 47.5262 37.6323 48.3081C37.6921 48.5029 37.7436 48.7018 37.7936 48.9042C37.8451 49.1067 37.8966 49.3112 37.9488 49.5178C37.9968 49.7258 38.0448 49.9359 38.0893 50.1494C38.1122 50.2558 38.1352 50.363 38.1582 50.4708C38.1783 50.5786 38.1992 50.6871 38.2194 50.7963C38.2597 51.0148 38.3035 51.2346 38.3418 51.4565C38.3752 51.6798 38.4086 51.9045 38.442 52.1306C38.515 52.5827 38.5623 53.0432 38.6103 53.5079C38.6374 53.7403 38.6507 53.974 38.6694 54.2084C38.6875 54.4429 38.7063 54.678 38.7188 54.9145C38.7341 55.3868 38.7585 55.8619 38.7564 56.3371C38.7501 56.8122 38.7578 57.2873 38.7265 57.7603C38.7147 57.9968 38.7021 58.2326 38.6903 58.4678C38.6778 58.7029 38.652 58.9366 38.6312 59.1697C38.6089 59.4027 38.5867 59.6343 38.5644 59.8646C38.5324 60.0942 38.5004 60.3223 38.4691 60.5498C38.4371 60.7766 38.4051 61.002 38.3731 61.2253C38.3348 61.4479 38.2903 61.6684 38.2493 61.8868C38.2075 62.1052 38.1658 62.3216 38.1241 62.5358C38.0782 62.7494 38.0267 62.9595 37.9752 63.1675C37.8722 63.5827 37.7804 63.9904 37.6566 64.3792C37.5982 64.574 37.5404 64.766 37.4834 64.9552C37.4263 65.1444 37.3735 65.3309 37.3046 65.5103C37.1752 65.87 37.0493 66.2171 36.929 66.5503C36.8003 66.88 36.6646 67.1917 36.538 67.488C36.4072 67.783 36.2932 68.0647 36.1589 68.32C36.0288 68.5767 35.9113 68.8174 35.7958 69.0365C35.6824 69.257 35.5788 69.4587 35.4695 69.634C35.0522 70.345 34.792 70.7345 34.792 70.7345C34.792 70.7345 34.8713 70.2657 35.0487 69.474C35.0946 69.2765 35.1384 69.0567 35.1829 68.816C35.2275 68.5753 35.2831 68.3193 35.3381 68.0445C35.3986 67.7718 35.4487 67.4776 35.5022 67.1687C35.5544 66.8599 35.6254 66.5406 35.6782 66.2025C35.7325 65.8658 35.7888 65.5152 35.8473 65.1521C35.9092 64.7911 35.9516 64.4133 36.0073 64.0293C36.0302 63.836 36.0685 63.644 36.0873 63.445C36.1095 63.2475 36.1318 63.0471 36.1547 62.8447C36.1763 62.6423 36.202 62.4384 36.2271 62.2332C36.2459 62.0266 36.2639 61.8186 36.2827 61.6085C36.3022 61.3985 36.3189 61.187 36.3426 60.9748C36.3572 60.7613 36.3718 60.5463 36.3864 60.3307C36.401 60.115 36.4156 59.8973 36.4302 59.6789C36.4399 59.4604 36.4497 59.2406 36.4594 59.0201C36.4671 58.7996 36.4859 58.5791 36.4893 58.3565C36.4942 58.1346 36.4998 57.912 36.5046 57.6887C36.522 57.2428 36.5137 56.7941 36.5172 56.3461C36.522 56.1221 36.5144 55.8981 36.5102 55.6741C36.5067 55.4501 36.5032 55.2261 36.4998 55.0035C36.4775 54.5576 36.4747 54.1117 36.4476 53.6707C36.3968 52.7886 36.3419 51.9184 36.2591 51.0774C36.2292 50.6551 36.1666 50.2447 36.1332 49.8378C36.0838 49.4336 36.0379 49.0364 35.9871 48.6503C35.962 48.4569 35.937 48.2663 35.912 48.0785C35.8841 47.8907 35.857 47.7064 35.8306 47.5248C35.784 47.1596 35.7179 46.8111 35.6699 46.4716C35.5572 45.7975 35.4528 45.1757 35.3471 44.6261C35.2448 44.0752 35.1482 43.5945 35.0654 43.1973C34.9005 42.4029 34.792 41.9444 34.792 41.9444L34.7934 41.9431Z" fill="#9B6123"/>
<path d="M16.771 39.3831C16.771 39.3831 16.757 39.5271 16.7306 39.7963C16.7014 40.0642 16.6708 40.4593 16.6249 40.9587C16.5804 41.4582 16.5282 42.0634 16.4725 42.7556C16.4155 43.4477 16.3591 44.2275 16.2993 45.0755C16.2444 45.9249 16.1818 46.8417 16.1345 47.8114C16.0788 48.7804 16.0419 49.8016 16.0023 50.8562C15.9745 51.9115 15.9425 53.0001 15.9376 54.1055C15.9279 55.2108 15.9348 56.3329 15.9571 57.4542C15.971 58.0149 15.9828 58.5756 16.003 59.1335C16.0364 59.6907 16.0412 60.2479 16.076 60.7981C16.0927 61.0736 16.1087 61.3477 16.1254 61.6211C16.1372 61.8945 16.1512 62.1665 16.1734 62.4357C16.1929 62.7056 16.2124 62.9741 16.2318 63.2405C16.2409 63.3741 16.2499 63.5069 16.259 63.6391C16.2701 63.7713 16.2819 63.9027 16.2931 64.0335C16.3786 65.0825 16.4802 66.0961 16.5838 67.0581C16.6402 67.5395 16.6944 68.0077 16.7473 68.4598C16.8078 68.9127 16.8663 69.3495 16.9219 69.7697C16.9678 70.1926 17.0402 70.5926 17.0951 70.9766C17.1522 71.3599 17.2009 71.7265 17.2558 72.0688C17.3671 72.756 17.4645 73.3543 17.5438 73.8475C17.6349 74.3393 17.692 74.7323 17.7372 74.9988C17.7803 75.2659 17.7991 75.4106 17.7991 75.4106C17.7991 75.4106 17.7302 75.2833 17.6085 75.0419C17.4895 74.7991 17.3059 74.4457 17.0903 73.9873C16.9755 73.7605 16.8753 73.5004 16.7536 73.2207C16.6325 72.9404 16.5101 72.6343 16.3751 72.3081C16.2409 71.9811 16.124 71.6256 15.9863 71.2542C15.8527 70.8813 15.7129 70.4883 15.587 70.0723C15.4583 69.657 15.3282 69.2236 15.1954 68.7729C15.0743 68.32 14.9568 67.8498 14.8322 67.3663C14.7655 67.1249 14.7209 66.8773 14.6653 66.6275C14.6117 66.3771 14.5575 66.1239 14.5025 65.8679C14.4754 65.7399 14.4462 65.6112 14.4211 65.4811C14.3982 65.3511 14.3759 65.2196 14.3529 65.0881C14.307 64.8245 14.2611 64.5587 14.2145 64.2902C14.1916 64.156 14.1679 64.021 14.1443 63.8861C14.1255 63.7504 14.106 63.6141 14.0872 63.477C14.0503 63.2029 14.0128 62.9268 13.9759 62.6492C13.8938 62.0941 13.8486 61.5293 13.7916 60.9602C13.761 60.6757 13.7436 60.3898 13.722 60.1025C13.6997 59.8159 13.6824 59.5272 13.665 59.2385C13.6378 58.6612 13.6163 58.081 13.5975 57.5009C13.5975 56.9207 13.5857 56.3405 13.5961 55.7625C13.6038 55.1844 13.6211 54.6091 13.6517 54.0394C13.6664 53.7542 13.6803 53.4704 13.6949 53.1879C13.7171 52.9062 13.7394 52.6259 13.7617 52.3469C13.8006 51.789 13.8618 51.2402 13.921 50.7004C14.0462 49.6214 14.1985 48.5829 14.3766 47.6048C14.5491 46.6254 14.7529 45.7071 14.954 44.864C15.1634 44.0223 15.3727 43.2557 15.5821 42.5823C15.7901 41.909 15.9877 41.3274 16.1651 40.853C16.3376 40.3779 16.4969 40.0113 16.5998 39.7616C16.652 39.6364 16.6965 39.5424 16.7257 39.4784C16.7557 39.4151 16.771 39.3824 16.771 39.3824V39.3831Z" fill="#9B6123"/>
<path d="M24.392 25.577C24.392 25.577 24.4101 25.6243 24.4449 25.7168C24.479 25.8093 24.5318 25.9457 24.5937 26.1258C24.7176 26.4862 24.9068 27.0127 25.1127 27.6938C25.3249 28.3727 25.5718 29.2012 25.8306 30.1577C26.0838 31.1156 26.3607 32.2001 26.6229 33.3917C26.7613 33.9865 26.8824 34.6097 27.018 35.2546C27.0862 35.5767 27.1432 35.9064 27.2065 36.2403C27.2678 36.5749 27.3352 36.913 27.393 37.258C27.5126 37.9474 27.6309 38.6569 27.738 39.3839C27.793 39.747 27.8507 40.1143 27.9001 40.4864C27.9481 40.8586 27.9968 41.2342 28.0455 41.6127C28.2389 43.1284 28.3933 44.7006 28.5102 46.3019C28.6228 47.9039 28.7028 49.5338 28.7279 51.1665C28.7328 51.5748 28.7418 51.9824 28.7411 52.3908C28.7383 52.7984 28.7355 53.206 28.7321 53.613C28.7369 54.4262 28.6917 55.2366 28.6667 56.04C28.6048 57.6469 28.4782 59.226 28.3223 60.7502C28.2896 61.1314 28.234 61.5084 28.1902 61.882C28.1449 62.2555 28.0976 62.6249 28.0489 62.9901C28.0051 63.356 27.9411 63.7156 27.8862 64.0718C27.8284 64.4273 27.7721 64.7786 27.7157 65.125C27.6865 65.2982 27.6573 65.47 27.6281 65.6404C27.5947 65.8102 27.562 65.9792 27.5286 66.1462C27.4625 66.4808 27.3971 66.8098 27.3324 67.134C27.2079 67.7823 27.0584 68.4028 26.9144 68.9976C26.6431 70.1906 26.3133 71.266 26.0407 72.2197C25.8925 72.6941 25.7429 73.1345 25.6052 73.5414C25.4654 73.9477 25.345 74.3226 25.2205 74.6558C24.9652 75.3215 24.7517 75.8391 24.6118 76.1925C24.4671 76.5445 24.3906 76.7323 24.3906 76.7323C24.3906 76.7323 24.4282 76.5326 24.4991 76.1577C24.5743 75.7848 24.6765 75.236 24.8219 74.5452C24.945 73.8496 25.0946 73.0058 25.2664 72.0375C25.3409 71.5526 25.4202 71.0365 25.5029 70.4925C25.5948 69.9513 25.6643 69.3767 25.7408 68.7791C25.7805 68.4807 25.8215 68.1767 25.8633 67.8665C25.9099 67.5576 25.9328 67.2383 25.9704 66.9162C26.0059 66.5942 26.0421 66.2665 26.0789 65.9333C26.0977 65.7671 26.1165 65.5994 26.1353 65.4311C26.152 65.262 26.1645 65.0916 26.1791 64.9198C26.232 64.2325 26.3127 63.5306 26.3586 62.8092C26.3982 62.0872 26.4671 61.3526 26.5026 60.6027C26.52 60.2277 26.538 59.85 26.5561 59.4695C26.5749 59.089 26.6006 58.7064 26.6076 58.3203C26.6187 57.9342 26.6299 57.5461 26.641 57.1558C26.6479 56.9611 26.6549 56.7656 26.6619 56.5694C26.6646 56.3733 26.6674 56.1764 26.6709 55.9795C26.6806 55.1914 26.6966 54.3984 26.6918 53.6005C26.6918 53.2019 26.6918 52.8026 26.6918 52.4026C26.6897 52.0026 26.6765 51.6026 26.6709 51.2019C26.6639 50.8019 26.6639 50.4013 26.6521 50.0013C26.6396 49.6013 26.6264 49.202 26.6139 48.8027C26.593 48.0048 26.552 47.2111 26.5206 46.4223C26.4775 45.6341 26.4351 44.8522 26.3927 44.0801C26.3662 43.694 26.3398 43.31 26.314 42.9288C26.3015 42.7382 26.2897 42.5483 26.2779 42.3591C26.2633 42.1699 26.2493 41.9813 26.2347 41.7942C26.2062 41.4193 26.1777 41.0471 26.1499 40.6784C26.1186 40.3097 26.0873 39.9452 26.0567 39.5842C26.0024 38.8607 25.9238 38.1561 25.864 37.4674C25.729 36.0921 25.5934 34.7906 25.4529 33.5906C25.32 32.3893 25.1767 31.2902 25.055 30.3128C24.9235 29.3382 24.8191 28.484 24.7155 27.7842C24.6139 27.0823 24.5339 26.5314 24.479 26.1557C24.4219 25.7794 24.3913 25.5784 24.3913 25.5784L24.392 25.577Z" fill="#9B6123"/>
<path opacity="0.2" d="M48.0083 61.5654C47.7078 69.2028 45.9541 77.2178 41.0882 83.315C36.0317 89.6543 27.1944 91.8337 19.4255 90.5357C10.4415 89.0317 5.60336 82.4385 3.1123 74.5953C49.3029 89.6432 43.8485 40.1059 39.0055 16.8802C45.4964 29.6408 48.5781 47.0998 48.0076 61.5647L48.0083 61.5654Z" fill="black"/>
<path d="M23.7951 91.5416C22.3043 91.5416 20.8053 91.4177 19.3201 91.1694C12.1085 89.9632 6.82307 85.4736 3.61134 77.8258C0.681344 70.8514 0.0664062 62.4781 0.0664062 56.6814C0.0664062 46.0654 1.28237 36.4907 3.68021 28.2231C5.60502 21.5882 8.29155 15.7734 11.6654 10.9402C17.4467 2.65939 23.1829 0.153726 23.4243 0.0514685C23.5829 -0.0160077 23.7617 -0.0167033 23.921 0.048686C28.0419 1.75159 31.84 4.91463 35.2083 9.45084C38.2691 13.5718 40.9201 18.7389 43.0891 24.8083C47.1029 36.0427 49.13 49.4496 48.6493 61.5912C48.2827 70.8619 45.9078 78.3058 41.59 83.7164C39.1219 86.8099 35.6194 89.1222 31.4623 90.4042C29.0095 91.1604 26.4141 91.5423 23.7944 91.5423L23.7951 91.5416ZM23.6914 1.34673C22.5617 1.91019 17.5817 4.67533 12.6573 11.7666C7.49922 19.1925 1.35193 33.0133 1.35193 56.6814C1.35193 62.3598 1.94948 70.5509 4.796 77.3284C7.82617 84.5428 12.7839 88.773 19.5322 89.902C27.8277 91.2897 36.0924 88.5469 40.5862 82.915C44.7294 77.7229 47.0104 70.5314 47.3658 61.5404C48.3042 37.8145 39.5233 8.17018 23.6914 1.34673Z" fill="#650000"/>
<path opacity="0.6" d="M17.2214 26.7239C19.7158 20.0095 20.4031 14.0706 18.7565 13.4589C17.11 12.8472 13.7531 17.7944 11.2587 24.5088C8.7643 31.2232 8.07698 37.1622 9.72353 37.7739C11.3701 38.3856 14.727 33.4384 17.2214 26.7239Z" fill="white"/>
<path opacity="0.6" d="M8.78368 43.5229C8.37535 45.0122 7.55937 46.0863 6.96043 45.9221C6.3615 45.7579 6.20637 44.4182 6.61471 42.9288C7.02234 41.4395 7.83902 40.3654 8.43795 40.5296C9.03689 40.6937 9.19202 42.0335 8.78368 43.5229Z" fill="white"/>
<path d="M81.4564 67.8727L81.4334 67.9319C81.0174 68.9357 80.5917 69.9123 80.1521 70.8716C76.971 77.823 72.3019 84.57 65.4833 88.3591C58.3976 92.2998 49.3941 90.958 42.7021 86.8036C37.9634 83.8632 35.3889 79.7465 34.262 75.1136C32.3121 67.1263 34.6662 57.6101 37.6393 49.9366C37.6448 50.2767 38.4914 50.9432 39.9912 51.8412C40.4914 52.1396 41.066 52.4624 41.7046 52.8116C43.8436 53.9706 46.7187 55.3764 50.0765 56.9019C52.7275 58.1047 55.6833 59.3826 58.8115 60.6688C59.7736 61.0646 60.7189 61.4479 61.6504 61.8187C65.0645 63.1807 68.261 64.3737 71.049 65.3441C72.1794 65.7392 73.2424 66.0954 74.2246 66.4105C74.6705 66.5552 75.0997 66.6895 75.5115 66.8168C78.8533 67.8359 81.0321 68.2748 81.4105 67.9291C81.4327 67.9138 81.448 67.895 81.4564 67.8727Z" fill="#BB7C3A"/>
<path d="M42.6697 53.2387C42.6697 53.2387 42.6168 53.3479 42.518 53.5518C42.4158 53.7611 42.2836 54.0408 42.1111 54.4185C41.9399 54.7948 41.7354 55.2547 41.5163 55.7882C41.2923 56.3204 41.06 56.929 40.8144 57.5961C40.5793 58.2667 40.3254 58.9951 40.0979 59.7776C40.0374 59.9724 39.9804 60.1707 39.9261 60.3724C39.8704 60.5741 39.8148 60.778 39.7584 60.9846C39.6576 61.3999 39.5435 61.8228 39.4531 62.2576C39.2548 63.1243 39.0976 64.03 38.9703 64.9552C38.9411 65.1869 38.9119 65.4192 38.8826 65.6529C38.8611 65.8867 38.8395 66.1218 38.818 66.3569L38.7867 66.7103L38.7679 67.0644C38.7567 67.3009 38.74 67.5381 38.7331 67.7746C38.7296 68.2483 38.7115 68.7235 38.7345 69.1951C38.7442 69.4309 38.7414 69.6681 38.7616 69.9019C38.779 70.1363 38.7964 70.3707 38.8138 70.6031C38.8256 70.8375 38.8653 71.0664 38.8903 71.2966C38.9042 71.4114 38.9188 71.5262 38.9327 71.6409C38.9453 71.7557 38.9613 71.8698 38.9828 71.9818C39.0635 72.4326 39.131 72.8826 39.2409 73.3146C39.2931 73.5317 39.3362 73.7494 39.3939 73.9609C39.4552 74.1716 39.5157 74.3803 39.5755 74.5869C39.6054 74.6906 39.6353 74.7935 39.6645 74.8958C39.7 74.996 39.7348 75.0961 39.7696 75.1949C39.8398 75.3932 39.9094 75.5893 39.9776 75.7827C40.0103 75.8801 40.0464 75.9754 40.0875 76.0679C40.1271 76.1612 40.1661 76.2537 40.205 76.3455C40.283 76.5291 40.3595 76.7107 40.4353 76.8888C40.6009 77.238 40.7734 77.5705 40.9327 77.8933C41.1066 78.2077 41.2854 78.5033 41.4495 78.7879C41.5281 78.9325 41.622 79.0626 41.7083 79.192C41.7953 79.3214 41.8794 79.4466 41.9615 79.5683C42.0436 79.6901 42.1236 79.8077 42.2001 79.921C42.2836 80.0296 42.365 80.1346 42.4422 80.2348C42.598 80.4365 42.7406 80.6215 42.87 80.7885C43.1406 81.1127 43.3667 81.3568 43.5149 81.5286C43.6651 81.6991 43.7451 81.7895 43.7451 81.7895C43.7451 81.7895 43.6588 81.7046 43.4982 81.5446C43.3389 81.3833 43.0954 81.1544 42.8018 80.8476C42.6606 80.689 42.5048 80.513 42.3351 80.321C42.2502 80.225 42.1612 80.1249 42.0693 80.0219C41.9845 79.9127 41.8961 79.8 41.8043 79.6831C41.7132 79.5663 41.6193 79.4452 41.5226 79.3207C41.4266 79.1955 41.3229 79.0703 41.2332 78.9298C41.0481 78.6529 40.8464 78.3656 40.6475 78.0574C40.4631 77.7409 40.2649 77.4147 40.0708 77.069C39.9811 76.8923 39.8899 76.7128 39.7981 76.5305C39.7522 76.4394 39.7049 76.3469 39.6583 76.2544C39.6096 76.1625 39.5658 76.0672 39.5254 75.9699C39.4419 75.7765 39.3564 75.5803 39.2708 75.3813C39.2284 75.2819 39.1852 75.1817 39.1421 75.0808C39.1046 74.9779 39.067 74.8742 39.0287 74.7706C38.9529 74.5619 38.8757 74.3511 38.7978 74.139C38.7234 73.9247 38.6635 73.7042 38.5947 73.4844C38.4507 73.0447 38.3484 72.587 38.2336 72.1251C38.203 72.0096 38.1787 71.8935 38.1578 71.7759C38.1348 71.6583 38.1126 71.5408 38.0896 71.4225C38.0472 71.186 37.9902 70.9495 37.9616 70.7088C37.9269 70.4681 37.8921 70.2267 37.8573 69.9846C37.8197 69.7426 37.8058 69.4977 37.7787 69.2535C37.7216 68.7645 37.7063 68.2713 37.6764 67.7774C37.6674 67.5305 37.6674 67.2842 37.6618 67.0373L37.6562 66.6672L37.6639 66.2978C37.6695 66.0515 37.6757 65.806 37.6813 65.5611C37.6952 65.317 37.7091 65.0728 37.7223 64.83C37.7884 63.8603 37.8886 62.9066 38.0326 61.9918C38.0959 61.5327 38.1835 61.0861 38.2594 60.6465C38.3032 60.4281 38.347 60.2117 38.3901 59.9982C38.4319 59.7839 38.4778 59.5738 38.5265 59.3672C38.7073 58.5373 38.9188 57.7624 39.1164 57.048C39.3244 56.3364 39.5233 55.6859 39.7188 55.1155C39.9094 54.5437 40.0903 54.0491 40.2419 53.6429C40.3943 53.2387 40.5243 52.9062 40.6078 52.7024C40.6927 52.4923 40.7379 52.3796 40.7379 52.3796C40.9563 51.8391 41.572 51.5776 42.1125 51.796C42.653 52.0144 42.9145 52.63 42.6961 53.1705C42.6878 53.1921 42.6766 53.2158 42.6669 53.2366L42.6697 53.2387Z" fill="#9B6123"/>
<path d="M76.4089 67.3301L74.3262 68.8953L74.6169 66.3055C74.6865 65.6884 75.2423 65.2446 75.8593 65.3135C76.4764 65.3831 76.9202 65.9389 76.8513 66.5559C76.8158 66.8745 76.6461 67.15 76.4089 67.3294V67.3301Z" fill="#9B6123"/>
<path d="M52.5859 84.3314C52.5859 84.3314 52.6701 84.3369 52.8273 84.3481C52.9831 84.362 53.2134 84.3689 53.5014 84.3849C53.7901 84.3981 54.1386 84.4121 54.5351 84.4204C54.9323 84.4267 55.3768 84.4343 55.8582 84.4232C56.3396 84.4197 56.8578 84.394 57.3997 84.3606C57.671 84.3348 57.9486 84.3251 58.2303 84.2896C58.3708 84.2729 58.5134 84.2625 58.6567 84.2444C58.7993 84.2263 58.9433 84.2076 59.0887 84.1888C59.2341 84.1735 59.3788 84.1429 59.5249 84.122C59.6709 84.0983 59.8184 84.0803 59.9659 84.0524C60.112 84.0232 60.2594 83.994 60.4076 83.9641C60.5565 83.9383 60.704 83.9056 60.8514 83.8702C60.9989 83.8361 61.1471 83.802 61.2959 83.7679C61.442 83.7255 61.5888 83.6844 61.737 83.6469L61.9589 83.5884C62.0326 83.5676 62.1043 83.5418 62.1773 83.5189L62.6142 83.3784C62.7602 83.3331 62.9015 83.2754 63.0454 83.2253C63.1881 83.1711 63.3341 83.1265 63.4733 83.0646C63.6124 83.0041 63.7515 82.9436 63.892 82.8872L64.1021 82.8017L64.3052 82.7036C64.5744 82.5707 64.8485 82.4497 65.1045 82.3036C65.2346 82.2334 65.364 82.1638 65.4927 82.0942C65.6193 82.0212 65.7417 81.944 65.8662 81.8702C65.9901 81.7958 66.1132 81.7221 66.2349 81.649C66.3525 81.569 66.4693 81.4897 66.5848 81.4118C66.701 81.3339 66.8165 81.2567 66.9305 81.1802C67.0446 81.1036 67.1469 81.0146 67.2568 80.9367C67.6957 80.625 68.0797 80.2863 68.4526 79.9858C68.63 79.8244 68.7997 79.67 68.9618 79.5232C69.0446 79.4501 69.1253 79.3785 69.2032 79.3089C69.2776 79.2352 69.35 79.1635 69.4195 79.0947C69.5614 78.9569 69.6922 78.8248 69.8188 78.7065C69.8814 78.6467 69.9419 78.5889 69.9997 78.534C70.0539 78.4762 70.1061 78.4213 70.1555 78.3691C70.3524 78.159 70.5193 77.999 70.6292 77.8864C70.7405 77.7751 70.8038 77.7166 70.8038 77.7166C70.8038 77.7166 70.7788 77.7966 70.7252 77.9448C70.6696 78.0916 70.5944 78.3121 70.4831 78.5862C70.4553 78.655 70.4261 78.7274 70.3955 78.8039C70.36 78.8769 70.3224 78.9541 70.2842 79.0341C70.207 79.1948 70.1172 79.3653 70.0233 79.5503C69.976 79.6428 69.9273 79.7381 69.8731 79.8341C69.8153 79.928 69.7555 80.024 69.695 80.1228C69.5719 80.3204 69.4383 80.527 69.2978 80.7426C69.1447 80.9485 68.9799 81.16 68.8108 81.3819C68.7677 81.4369 68.7246 81.4925 68.6808 81.5482C68.6348 81.6024 68.5861 81.6539 68.5382 81.7074C68.4408 81.8146 68.3427 81.9231 68.2425 82.033C68.1416 82.1422 68.0422 82.257 67.9302 82.3613C67.8182 82.4657 67.7048 82.5714 67.59 82.6786C67.4745 82.7857 67.3591 82.8949 67.2366 82.9985C67.11 83.098 66.9827 83.1982 66.854 83.2997C66.7239 83.3992 66.5973 83.5071 66.4596 83.601C66.3205 83.6928 66.1807 83.7853 66.0394 83.8792C65.8968 83.9696 65.7591 84.0719 65.6088 84.1533C65.4593 84.2361 65.3083 84.3188 65.1574 84.4023L64.9292 84.5275L64.6941 84.6395C64.5376 84.7154 64.3783 84.787 64.2183 84.8587C64.059 84.9317 63.8934 84.9874 63.7306 85.0527C63.5665 85.1133 63.4044 85.1828 63.2374 85.2357L62.7345 85.388C62.6503 85.4124 62.5676 85.4395 62.4834 85.4625L62.2295 85.5251C62.0604 85.5675 61.8914 85.6065 61.7224 85.644C61.5519 85.6739 61.3822 85.7038 61.2139 85.7338C60.5384 85.8527 59.8657 85.9042 59.2188 85.9174C58.8946 85.9188 58.5774 85.9251 58.2672 85.9021C57.9569 85.8896 57.6557 85.8625 57.3628 85.8305C56.7785 85.7602 56.2317 85.667 55.7351 85.548C55.2377 85.4339 54.7911 85.2969 54.4008 85.1633C54.0113 85.0263 53.6781 84.8914 53.4096 84.7675C53.1397 84.6465 52.9358 84.5324 52.7967 84.458C52.7272 84.4211 52.6757 84.3877 52.6402 84.3669C52.6054 84.3453 52.5873 84.3342 52.5873 84.3342L52.5859 84.3314Z" fill="#9B6123"/>
<path d="M72.091 65.7685C72.091 65.7685 71.9929 65.9166 71.8211 66.1754C71.7383 66.3027 71.6242 66.4683 71.4976 66.6533C71.3717 66.8411 71.2256 67.0449 71.0677 67.2669C70.9112 67.4901 70.7317 67.726 70.5474 67.9778C70.3561 68.2247 70.1606 68.4891 69.9464 68.7527C69.7363 69.0198 69.5123 69.2897 69.2841 69.5631C69.0525 69.8337 68.8201 70.1099 68.5774 70.3763C68.3388 70.6462 68.0925 70.9092 67.8504 71.1673C67.6056 71.4232 67.3649 71.6737 67.1256 71.9102C66.887 72.1474 66.6553 72.3742 66.4306 72.5836C66.2094 72.7964 65.9931 72.9905 65.7948 73.17C65.5987 73.3515 65.4109 73.5094 65.2481 73.6527C65.0853 73.796 64.9406 73.9178 64.8203 74.0166C64.5817 74.2155 64.4453 74.3296 64.4453 74.3296C64.4453 74.3296 64.5566 74.1912 64.7514 73.9498C64.8495 73.8294 64.967 73.6827 65.0978 73.5108C65.2286 73.339 65.3802 73.1498 65.5361 72.9349C65.694 72.7213 65.8651 72.4924 66.0383 72.2434C66.215 71.9978 66.3945 71.7335 66.5788 71.4601C66.7632 71.1867 66.9468 70.9001 67.1318 70.6087C67.3141 70.3158 67.4984 70.0181 67.6744 69.7155C67.8546 69.4164 68.0222 69.1096 68.1906 68.8105C68.3548 68.5086 68.5148 68.2122 68.6622 67.9214C68.8139 67.6335 68.9481 67.3482 69.081 67.0818C69.2062 66.8112 69.33 66.5587 69.4344 66.3208C69.5408 66.0836 69.6382 65.8665 69.7175 65.6759C69.7989 65.4839 69.8685 65.3226 69.9276 65.1751C70.0451 64.8878 70.1119 64.7229 70.1119 64.7229C70.347 64.1476 71.003 63.8722 71.5783 64.1073C72.1536 64.3424 72.4291 64.9984 72.1939 65.5737C72.1661 65.6419 72.1293 65.71 72.0903 65.7699L72.091 65.7685Z" fill="#9B6123"/>
<path d="M51.1978 57.2783C51.1978 57.2783 51.1025 57.5043 50.9356 57.9002C50.85 58.0998 50.7561 58.3328 50.6455 58.6034C50.5335 58.872 50.4131 59.1815 50.2817 59.5189C50.1474 59.8556 50.0145 60.225 49.8678 60.6138C49.7286 61.0048 49.5763 61.4166 49.4323 61.8472C49.36 62.0621 49.2855 62.2812 49.2111 62.5025C49.1394 62.7251 49.0671 62.9504 48.9947 63.1779C48.9196 63.4047 48.8535 63.6356 48.7826 63.8673C48.7123 64.0989 48.6407 64.3313 48.576 64.565C48.5099 64.7987 48.4431 65.0325 48.377 65.2655C48.3151 65.4999 48.2532 65.733 48.1913 65.9639C48.0696 66.4272 47.9583 66.8856 47.8532 67.3301C47.7517 67.7753 47.6515 68.2066 47.5701 68.6177C47.4818 69.0282 47.408 69.4184 47.3419 69.7788C47.2717 70.1391 47.2188 70.4709 47.1694 70.7652C47.1179 71.0594 47.079 71.3168 47.0491 71.529C46.9865 71.954 46.951 72.1961 46.951 72.1961C46.951 72.1961 46.9496 71.9505 46.9475 71.5213C46.9454 71.3064 46.9454 71.0455 46.9524 70.7457C46.9572 70.4459 46.9593 70.1071 46.9753 69.7384C46.9872 69.369 47.0018 68.969 47.0275 68.5461C47.047 68.1225 47.0818 67.6766 47.1158 67.2147C47.1541 66.7535 47.1958 66.2756 47.2473 65.7914C47.2738 65.5493 47.3009 65.3052 47.3273 65.0596C47.3586 64.8147 47.3892 64.5692 47.4205 64.3236C47.4504 64.0774 47.4866 63.8325 47.5221 63.5876C47.5583 63.3435 47.5903 63.0986 47.6306 62.8579C47.6696 62.6165 47.7078 62.3772 47.7461 62.1407C47.7878 61.9049 47.8289 61.6712 47.8692 61.4423C47.9492 60.9825 48.0403 60.5415 48.1217 60.1213C48.2108 59.7032 48.2894 59.3053 48.3742 58.9415C48.4556 58.577 48.5315 58.2424 48.6052 57.944C48.6768 57.6469 48.7395 57.3833 48.793 57.1788C48.8988 56.7628 48.9593 56.5249 48.9593 56.5249C49.1207 55.8912 49.7648 55.5079 50.3985 55.6693C51.0322 55.8307 51.4155 56.4748 51.2542 57.1085C51.2396 57.1649 51.2187 57.2254 51.1971 57.2776L51.1978 57.2783Z" fill="#9B6123"/>
<path d="M62.5672 62.2861C62.5672 62.2861 62.4336 62.5129 62.1999 62.9101C62.0851 63.1077 61.9376 63.3518 61.7686 63.6315C61.6009 63.9118 61.4096 64.2248 61.1982 64.5629C60.9895 64.9031 60.7557 65.2669 60.5102 65.6523C60.2639 66.037 59.9975 66.439 59.722 66.8543C59.4431 67.2675 59.1565 67.6947 58.8553 68.1218C58.5596 68.5524 58.2459 68.9816 57.937 69.4122C57.6219 69.8393 57.3089 70.2664 56.9896 70.6796C56.6766 71.0963 56.3545 71.497 56.0491 71.8872C55.7347 72.2712 55.4383 72.6482 55.1434 72.994C54.9973 73.1679 54.8554 73.3369 54.7184 73.5011C54.5785 73.6625 54.4436 73.819 54.3142 73.9685C54.0568 74.2691 53.8147 74.5397 53.5991 74.7783C53.3855 75.0183 53.197 75.2256 53.0391 75.3939C52.7254 75.732 52.5459 75.9247 52.5459 75.9247C52.5459 75.9247 52.7003 75.7111 52.9709 75.3382C53.1073 75.1525 53.2687 74.9243 53.4509 74.6607C53.6353 74.3985 53.8419 74.1021 54.0596 73.7731C54.1695 73.6096 54.2836 73.4392 54.4018 73.2625C54.5173 73.0844 54.637 72.9001 54.7601 72.7108C55.0084 72.3345 55.2554 71.9276 55.5176 71.5123C55.7708 71.0907 56.0387 70.6594 56.2954 70.2128C56.5583 69.7697 56.8136 69.3127 57.071 68.8571C57.3221 68.3979 57.5767 67.9416 57.8146 67.4853C58.0574 67.0317 58.2862 66.5803 58.5089 66.1441C58.728 65.7058 58.9387 65.2829 59.1328 64.8787C59.3262 64.4739 59.5099 64.0927 59.6726 63.7365C59.8382 63.3817 59.9864 63.0562 60.1137 62.7682C60.2431 62.4802 60.3551 62.2298 60.4469 62.0162C60.6305 61.5933 60.7356 61.3519 60.7356 61.3519C60.9623 60.8295 61.5696 60.5909 62.092 60.8176C62.6145 61.0444 62.8531 61.6517 62.6263 62.1741C62.6103 62.211 62.5887 62.252 62.5692 62.2861H62.5672Z" fill="#9B6123"/>
<path d="M37.6393 50.5786C37.6163 50.5786 37.5933 50.5772 37.5697 50.5751C37.272 50.5431 37.0361 50.3094 37.0007 50.0124C36.9847 49.8795 37.0034 49.7432 37.0549 49.618C37.0967 49.5157 37.1607 49.4225 37.2448 49.3418C37.464 49.1324 37.8006 49.1046 38.0511 49.2757C38.3015 49.4468 38.3982 49.7703 38.2827 50.0513C38.2695 50.0833 38.2563 50.1146 38.2451 50.1473C38.1547 50.4075 37.9092 50.5786 37.6386 50.5786H37.6393ZM37.7951 49.9171L38.1331 50.2711C38.1596 50.2454 38.2097 50.1905 38.2445 50.1056C38.2758 50.0298 38.2876 49.9442 38.2771 49.8593L37.7951 49.9171Z" fill="#650000"/>
<path d="M81.463 67.8595L81.4575 67.8734C81.2502 68.3165 79.0227 67.8873 75.5133 66.8175C74.1958 66.4119 72.6932 65.9166 71.0494 65.3441C68.2627 64.3744 65.0656 63.18 61.6514 61.818C60.72 61.4465 59.7746 61.0632 58.814 60.6688C55.685 59.3833 52.7307 58.1047 50.0789 56.9012C46.7204 55.3764 43.844 53.9692 41.7056 52.8095C39.1492 51.4224 37.648 50.3887 37.6396 49.9352C37.655 49.8914 37.6723 49.8489 37.6897 49.8058C38.2664 49.2145 43.7689 50.7699 51.3304 53.558C54.0913 54.5757 57.1264 55.759 60.2957 57.0619C61.3231 57.4842 62.3311 57.9043 63.3154 58.3224C66.6857 59.7519 69.7799 61.1432 72.4226 62.4072C74.0121 63.1661 75.4395 63.8777 76.6652 64.5261C79.8088 66.1824 81.6237 67.406 81.4623 67.8595H81.463Z" fill="#E8D4B4"/>
<path opacity="0.4" d="M70.5302 62.8982C69.9828 62.6137 69.1856 62.2318 68.1623 61.7665C66.065 60.81 63.247 59.603 60.2259 58.3655C55.129 56.2779 49.5298 54.1486 48.6909 54.1187C48.4725 54.111 48.3862 54.2154 48.3542 54.2794C48.2311 54.5263 48.4627 54.6981 49.2724 55.1197C49.8213 55.4056 50.6185 55.7861 51.6404 56.2529C53.7377 57.208 56.5571 58.4163 59.5782 59.6538C64.6751 61.7414 70.2742 63.8707 71.1118 63.9006C71.3302 63.9083 71.4172 63.8026 71.4485 63.7393C71.573 63.4923 71.3413 63.3219 70.5302 62.8989V62.8982ZM59.7048 59.411C53.929 56.9875 49.3351 54.8435 49.4436 54.6209C49.5521 54.399 54.3227 56.1833 60.0986 58.6069C65.8744 61.0305 70.4683 63.1744 70.3598 63.397C70.2513 63.6189 65.4806 61.8332 59.7048 59.411Z" fill="white"/>
<path opacity="0.6" d="M70.3595 63.397C70.251 63.6189 65.4804 61.8332 59.7045 59.4111C53.9287 56.9875 49.3348 54.8435 49.4433 54.6209C49.5518 54.399 54.3224 56.1833 60.0983 58.6069C65.8741 61.0305 70.468 63.1744 70.3595 63.397Z" fill="white"/>
<path opacity="0.2" d="M81.4331 67.9332C81.0185 68.9356 80.5914 69.9137 80.1532 70.873C76.972 77.8223 72.3037 84.5699 65.4851 88.3597C58.3987 92.3012 49.3958 90.9579 42.7039 86.8043C37.9652 83.8618 34.8168 76.3253 33.6885 71.6924C64.4451 96.8395 74.2243 66.4098 74.2243 66.4098C74.6709 66.5545 75.1015 66.6894 75.5133 66.8174C78.8551 67.8351 81.0345 68.2748 81.4123 67.9297L81.4331 67.9325V67.9332Z" fill="black"/>
<path opacity="0.6" d="M41.8897 60.7675C42.5521 57.847 42.1852 55.2744 41.0702 55.0215C39.9552 54.7686 38.5143 56.9311 37.8518 59.8517C37.1894 62.7722 37.5562 65.3448 38.6713 65.5977C39.7863 65.8506 41.2272 63.6881 41.8897 60.7675Z" fill="white"/>
<path opacity="0.6" d="M34.263 75.1136C32.3131 67.1263 34.6671 57.6101 37.6403 49.9366C37.6458 50.2767 37.8114 50.5223 39.3112 51.4204C39.3112 51.4204 34.4897 59.528 34.263 75.1129V75.1136Z" fill="white"/>
<path d="M56.0156 91.3558C55.3137 91.3558 54.6035 91.3231 53.8877 91.2577C49.878 90.8918 45.8935 89.5409 42.3645 87.3504C36.3835 83.6364 33.2079 77.7771 32.9269 69.9346C32.7175 64.0947 34.1004 57.2915 37.036 49.7133C37.0541 49.6625 37.0743 49.6124 37.0951 49.5623C37.1264 49.4865 37.1717 49.4169 37.2294 49.3585C37.5939 48.9842 38.2381 48.7366 42.0619 49.7967C44.4911 50.4701 47.7724 51.5629 51.5524 52.9563C54.392 54.0032 57.4159 55.1851 60.54 56.4685C61.646 56.9228 62.6359 57.336 63.5667 57.7318C66.8967 59.1446 69.97 60.5227 72.7003 61.8277C74.319 62.6005 75.7548 63.3177 76.9666 63.9584C78.5805 64.8085 79.8264 65.534 80.6688 66.1148C81.6802 66.8119 82.3049 67.4115 82.0691 68.0751C82.0663 68.0835 82.0628 68.0918 82.0593 68.1002L82.0538 68.1148C81.6378 69.12 81.1954 70.1363 80.7376 71.1401C76.8762 79.5753 71.8496 85.5577 65.7976 88.9218C62.9107 90.5273 59.5633 91.3558 56.0163 91.3558H56.0156ZM38.1796 50.3198C35.3449 57.6768 34.01 64.2603 34.2117 69.8886C34.4768 77.2769 37.4478 82.785 43.0428 86.2589C50.1911 90.6957 58.8774 91.3002 65.1722 87.7984C70.98 84.5699 75.8237 78.7858 79.5683 70.6058C79.9877 69.6876 80.3933 68.7575 80.7759 67.84C80.5331 67.5792 79.6309 66.8154 76.3663 65.0958C75.1691 64.4627 73.75 63.7539 72.1459 62.988C69.4329 61.6906 66.3777 60.3202 63.0644 58.9151C62.1379 58.5213 61.1528 58.1095 60.051 57.6574C56.9415 56.3795 53.9322 55.2039 51.1072 54.1625C42.5976 51.0252 39.0561 50.2872 38.1789 50.3205L38.1796 50.3198Z" fill="#650000"/>
<path d="M80.8825 68.6915C80.5249 68.6915 80.0978 68.6344 79.6081 68.5454C78.5688 68.3569 77.1281 67.9819 75.3251 67.4324C73.9818 67.0192 72.4723 66.5211 70.8375 65.9514C67.966 64.9518 64.707 63.7289 61.4131 62.4155C60.4879 62.0461 59.5308 61.6587 58.5694 61.2635C55.5135 60.0079 52.5675 58.737 49.8135 57.487C46.4717 55.9698 43.5618 54.5479 41.3991 53.3751C40.0844 52.6614 39.0576 52.0471 38.3474 51.5491C37.3839 50.8729 37.0055 50.4235 36.9972 49.947C36.9958 49.8712 37.0076 49.7961 37.0327 49.7244C37.0521 49.6695 37.0737 49.6152 37.096 49.5616C37.1273 49.4858 37.1725 49.4162 37.2302 49.3578C37.5947 48.9836 38.2389 48.7359 42.0628 49.7961C44.4919 50.4694 47.7732 51.5623 51.5533 52.9556C54.3928 54.0025 57.4167 55.1844 60.5408 56.4679C61.6469 56.9221 62.6368 57.3353 63.5675 57.7311C66.8975 59.144 69.9708 60.522 72.7011 61.827C74.3199 62.5998 75.7557 63.317 76.9674 63.9577C78.5813 64.8078 79.8272 65.5333 80.6696 66.1142C81.681 66.8112 82.3057 67.4108 82.0699 68.0745C82.0671 68.0828 82.0636 68.0912 82.0602 68.0995L82.0546 68.1141C82.0504 68.1245 82.0456 68.135 82.0407 68.1454C81.8543 68.5433 81.4591 68.6908 80.8846 68.6908L80.8825 68.6915ZM38.9282 50.386C39.4535 50.7679 40.38 51.3612 42.0106 52.2454C44.1469 53.4036 47.0289 54.8116 50.3436 56.3162C53.0836 57.56 56.015 58.8247 59.057 60.0747C60.0149 60.4684 60.9672 60.8545 61.8883 61.2218C65.1647 62.5282 68.4049 63.7442 71.2591 64.7375C72.8792 65.3017 74.3734 65.7949 75.7007 66.2032C78.0714 66.926 79.4182 67.2223 80.1729 67.3378C79.5719 66.9009 78.4498 66.1928 76.365 65.0951C75.1678 64.4621 73.7488 63.7532 72.1446 62.9873C69.4317 61.69 66.3765 60.3196 63.0632 58.9144C62.1366 58.5207 61.1516 58.1089 60.0497 57.6567C56.9402 56.3788 53.9309 55.2032 51.106 54.1618C44.1337 51.5915 40.4955 50.6301 38.9269 50.386H38.9282Z" fill="#650000"/>
<path opacity="0.6" d="M39.031 70.3805C38.8745 71.6758 38.3055 72.6726 37.7601 72.6072C37.214 72.5411 36.8982 71.4379 37.0547 70.1426C37.2112 68.8473 37.7803 67.8505 38.3256 67.9159C38.8717 67.982 39.1875 69.0852 39.031 70.3805Z" fill="white"/>
</g>
<defs>
<clipPath id="clip0_236_173294">
<rect width="83.3707" height="92" fill="white" transform="translate(0.0664062)"/>
</clipPath>
</defs>
</svg>
