<svg width="111" height="92" viewBox="0 0 111 92" fill="none" xmlns="http://www.w3.org/2000/svg">
<g clip-path="url(#clip0_236_173707)">
<path d="M109.03 25.2509C107.797 28.705 105.554 31.7216 102.99 34.3431C92.021 45.5504 75.922 49.5672 61.581 55.9138C47.2376 62.2592 34.1035 71.3273 23.0868 82.4898C20.1701 85.4455 17.3132 88.6114 13.5973 90.4659C9.88141 92.3204 2.63224 94.2357 0.822533 84.9403C-0.279827 77.4936 0.877651 70.1388 3.17883 62.9666C4.53381 58.7386 6.28725 54.5749 8.2095 50.4927C9.77921 47.1581 11.4615 43.8774 13.1311 40.6622C15.4483 36.1999 17.7759 31.725 20.6306 27.5866C28.478 16.2139 40.3479 7.67863 53.6256 3.85711C61.1607 1.68914 69.023 1.01049 76.8544 0.463908C77.548 0.41568 78.2415 0.3686 78.9351 0.32152C84.5434 -0.0608614 90.4662 -0.369752 95.7955 1.07135C97.8188 1.61794 99.7571 2.41715 101.56 3.5597C108.537 7.98177 111.805 17.4736 109.03 25.2532V25.2509Z" fill="#9A482E"/>
<path opacity="0.05" d="M109.03 25.2509C107.797 28.705 105.554 31.7216 102.99 34.3431C92.021 45.5504 75.922 49.5672 61.5809 55.9138C47.2376 62.2592 34.1035 71.3273 23.0868 82.4898C20.1701 85.4455 17.3132 88.6114 13.5973 90.4659C9.88141 92.3204 2.63224 94.2357 0.822533 84.9403C-0.279827 77.4936 0.877651 70.1388 3.17883 62.9666C4.53381 58.7386 6.28725 54.5749 8.20949 50.4927C12.6075 55.0101 21.8799 60.8491 34.4629 48.9827C52.3636 32.1017 40.2572 29.7362 61.2721 16.9809C70.1851 11.5713 74.6577 5.5761 76.8532 0.463908C77.5468 0.41568 78.2404 0.3686 78.9339 0.32152C84.5422 -0.0608614 90.4651 -0.369752 95.7943 1.07135C97.8176 1.61794 99.7559 2.41715 101.559 3.5597C108.536 7.98177 111.804 17.4736 109.028 25.2532L109.03 25.2509Z" fill="black"/>
<path d="M101.166 16.0474C99.5663 14.0046 96.7185 11.4749 95.1201 9.43206C95.3004 8.43534 93.8914 7.90713 92.9142 8.17468C91.937 8.44223 90.9977 9.09446 90.0044 8.89466C89.1696 8.72701 88.4657 7.96914 87.6206 8.07019C87.1417 8.12645 86.741 8.45371 86.2851 8.61103C85.4905 8.88662 84.6212 8.62826 83.8105 8.40434C81.499 7.76474 79.1117 7.40188 76.7141 7.32609C76.2686 7.31231 75.776 7.3238 75.4441 7.62235C75.1122 7.91976 75.1478 8.60299 75.5842 8.69601C73.794 9.27245 72.9741 11.4967 71.2161 12.1673C70.3755 12.4888 69.4431 12.4027 68.544 12.3602C66.0534 12.2419 63.2883 12.614 61.637 14.4822C60.7919 15.4388 60.2706 16.7524 59.1338 17.3335C57.8993 17.965 56.4135 17.4977 55.0275 17.5574C53.6415 17.6171 52.0304 18.8859 52.662 20.1204C53.1925 20.3167 53.7242 20.5131 54.2547 20.7083C53.0983 21.8428 51.7422 22.7729 50.2678 23.4435C49.6385 23.7294 48.9691 23.9809 48.4799 24.4689C48.0539 24.8938 47.8059 25.4576 47.505 25.9778C46.3096 28.0493 44.144 29.5341 41.7808 29.9004C40.9069 30.0359 39.9768 30.0382 39.2109 30.4791C38.445 30.9212 37.9707 32.0373 38.5541 32.7022C38.894 33.0903 39.4658 33.1914 39.8425 33.5427C40.7462 34.3867 39.9676 35.9289 38.9709 36.6604C37.9742 37.3918 36.6812 37.974 36.3505 39.1648C36.2116 39.6631 36.2724 40.204 36.1105 40.6955C35.6133 42.2009 33.5085 42.3685 32.4119 43.5134C30.2335 45.7847 33.1043 50.2573 30.8835 52.4861C30.5091 52.8616 30.028 53.1142 29.6422 53.4782C28.5743 54.4853 28.4342 56.1974 28.9371 57.5765C29.4412 58.9556 30.4689 60.0706 31.5104 61.1063C32.6978 62.2868 34.0206 64.0793 33.0308 65.4297C34.3146 64.3503 36.316 64.6121 37.6917 63.6521C38.8871 62.8185 39.9745 61.0397 41.287 61.6759C41.2859 60.4289 41.2847 59.1818 41.2824 57.9348C42.8969 59.0991 45.2279 59.1588 46.8999 58.0795C47.2788 57.8349 47.6417 57.5306 48.0849 57.4502C48.4546 57.3824 48.8359 57.4789 49.2102 57.4479C50.9395 57.3021 51.2898 54.9239 52.4587 53.6402C53.3693 52.64 54.8552 52.2967 55.7107 51.2494C56.371 50.441 56.6029 49.2709 57.4756 48.6991C59.0132 47.6909 61.1456 49.3031 62.8646 48.6508C63.6465 48.3546 64.3125 47.599 65.1416 47.7104C65.563 47.7666 65.9397 48.0514 66.3657 48.0514C67.3624 48.0514 67.6483 46.7274 68.1582 45.8708C69.0493 44.3723 71.0875 44.107 72.8306 44.1426C74.5737 44.1782 76.5223 44.2816 77.8291 43.1264C78.3734 42.6453 78.7695 41.9666 79.4333 41.6715C79.9247 41.4533 80.4851 41.4843 81.0225 41.4751C85.4446 41.4005 89.2408 38.477 92.6754 35.6923C92.5341 34.9207 92.394 34.1502 92.2528 33.3785C95.4611 31.6722 98.4122 29.4824 100.974 26.9056C101.412 26.4658 101.855 25.9835 101.995 25.3784C102.267 24.1945 101.314 23.13 100.592 22.154C99.8694 21.1779 99.4021 19.6209 100.372 18.8905C100.778 18.5851 101.359 18.5128 101.661 18.1051C102.114 17.4931 101.634 16.6456 101.165 16.0462L101.166 16.0474Z" fill="#FAC477"/>
<path opacity="0.05" d="M8.79827 57.8578C8.79827 57.8578 15.9246 43.3078 19.823 34.7014C23.7215 26.0961 33.7507 8.32511 56.4042 7.25145C79.0577 6.1778 35.5581 22.7924 28.2825 37.9338C21.0069 53.0752 5.03876 70.899 8.79827 57.8567V57.8578Z" fill="white"/>
<g opacity="0.08">
<path d="M109.03 25.251C107.797 28.705 105.554 31.7216 102.99 34.3431C92.021 45.5505 75.922 49.5672 61.581 55.9138C47.2376 62.2593 34.1035 71.3273 23.0868 82.4899C20.1701 85.4456 17.3132 88.6114 13.5973 90.4659C9.88141 92.3204 2.63224 94.2357 0.822533 84.9403C-0.279827 77.4936 0.877651 70.1388 3.17883 62.9666C7.65946 67.2842 14.6801 69.0089 20.967 67.9548C28.8983 66.6262 35.78 61.7322 41.6604 56.2479C47.5431 50.7637 52.7609 44.5446 59.1156 39.6161C66.9596 33.5347 76.2343 29.6478 85.3012 25.6092C89.3937 23.7869 93.585 21.8359 96.5993 18.5231C99.6147 15.2091 101.176 10.1612 99.1887 6.14682C98.2987 4.34974 96.7531 2.79036 95.7955 1.07022C97.8188 1.61681 99.7571 2.41602 101.56 3.55857C108.537 7.98064 111.805 17.4724 109.03 25.2521V25.251Z" fill="black"/>
</g>
</g>
<defs>
<clipPath id="clip0_236_173707">
<rect width="109.614" height="92" fill="white" transform="translate(0.401367)"/>
</clipPath>
</defs>
</svg>
