<svg width="94" height="92" viewBox="0 0 94 92" fill="none" xmlns="http://www.w3.org/2000/svg">
<g clip-path="url(#clip0_236_173691)">
<path d="M92.288 37.8715C92.9233 40.3055 93.4463 42.7964 93.3985 45.3118C93.3481 47.9046 92.6935 50.4445 91.9949 52.9418C90.3705 58.7422 88.4323 64.5735 84.911 69.461C81.3781 74.3639 76.4248 78.0686 71.2559 81.1986C61.1492 87.3205 49.7008 91.5842 37.8922 91.9729C26.0823 92.3616 13.9057 88.6027 5.34459 80.4587C3.81573 79.0047 2.38889 77.3945 1.48758 75.486C0.792883 74.0153 0.454572 72.3909 0.461028 70.7652C0.467484 68.8967 0.928466 67.027 1.81944 65.387C2.05445 64.9532 2.32045 64.5361 2.61486 64.1384C4.99724 60.9348 9.21193 59.198 13.1593 59.7933C16.4779 59.6551 21.2478 61.0432 24.5431 61.4642C26.7822 61.7496 28.9863 62.2906 31.2331 62.5088C39.3668 63.2991 47.4295 59.7494 53.7954 54.6257C55.8756 52.9522 57.8603 51.0514 59.0354 48.6536C59.9057 46.8794 60.2956 44.9076 60.4919 42.9423C60.8121 39.74 60.643 36.4886 59.9896 33.3392C59.1141 29.118 57.3916 25.1267 56.1662 20.996C55.0557 17.2487 54.3597 13.2393 55.1138 9.43269C55.1913 9.04015 55.2842 8.65147 55.394 8.2641C55.7013 7.17814 56.1662 6.1206 56.7627 5.14569C58.4388 2.3953 61.1582 0.295704 64.3283 0.0297038C69.1782 -0.375753 73.3309 3.35084 76.4481 7.08775C83.8987 16.022 89.3504 26.6155 92.2893 37.8702L92.288 37.8715Z" fill="#FCCC84"/>
<g opacity="0.56">
<path d="M70.6117 1.73416C71.4678 2.66904 72.3381 3.58713 73.1981 4.50134C75.1931 6.6216 77.192 8.76639 78.8668 11.1552C79.7487 12.4129 80.4847 13.7532 81.2337 15.0923C82.0355 16.5269 82.8271 17.9679 83.6057 19.4154C85.1681 22.3182 86.7422 25.2313 88.1664 28.2051C89.1762 30.3124 90.0194 32.4998 90.6095 34.7621C91.6864 38.8955 91.862 43.2431 90.9194 47.4204C89.8799 52.0276 87.6745 56.2203 85.0054 60.0877C81.8534 64.6549 78.0881 68.8308 73.8773 72.4464C71.7906 74.2386 69.5903 75.9057 67.2557 77.3622C64.9121 78.8239 62.4367 79.9977 59.9342 81.156C57.1451 82.4472 54.3379 83.6985 51.4971 84.8709C48.7119 86.0201 45.8814 87.2068 42.9877 88.0591C40.5407 88.7809 38.0176 89.0908 35.4674 89.0055C32.9274 88.9203 30.4185 88.4994 27.929 88.0087C25.2612 87.4832 22.5986 86.9576 19.9967 86.1506C17.4026 85.3461 14.8665 84.3402 12.4596 83.0799C8.00605 80.7479 4.00829 77.6282 0.84082 73.7273C1.00352 74.3303 1.21658 74.9192 1.48516 75.486C2.38646 77.3945 3.81331 79.0047 5.34217 80.4587C13.9033 88.6027 26.0799 92.3615 37.8898 91.9729C49.6984 91.5842 61.1467 87.3204 71.2535 81.1986C76.4224 78.0673 81.3757 74.3639 84.9086 69.461C88.4299 64.5735 90.368 58.7422 91.9925 52.9418C92.691 50.4445 93.3457 47.9046 93.3961 45.3117C93.4438 42.7964 92.9222 40.3055 92.2856 37.8715C89.3467 26.6155 83.8949 16.0233 76.4443 7.08903C74.7773 5.09145 72.8159 3.09645 70.6091 1.73416H70.6117Z" fill="#CA944E"/>
</g>
<path d="M58.6062 13.384C60.6219 16.8885 60.6774 21.1393 61.6678 25.0596C62.6996 29.1426 64.7733 32.9363 65.4719 37.0877C66.35 42.3147 64.8702 47.8943 61.5155 51.9979C59.7671 54.1376 57.5719 55.8575 55.5485 57.7376C52.7633 60.3253 50.2427 63.2681 46.9926 65.2411C41.5228 68.561 34.6352 68.7017 28.3765 67.373C23.4374 66.3245 18.6842 64.4354 13.687 63.7239C9.67249 63.1519 5.30673 63.4682 1.82031 65.3883C2.05532 64.9545 2.32132 64.5374 2.61573 64.1397C4.99811 60.9361 9.2128 59.1993 13.1602 59.7946C16.4787 59.6564 21.2487 61.0445 24.544 61.4655C26.783 61.7509 28.9872 62.2919 31.234 62.5101C39.3677 63.3004 47.4303 59.7507 53.7963 54.6269C55.8765 52.9535 57.8612 51.0527 59.0362 48.6549C59.9065 46.8807 60.2965 44.9089 60.4928 42.9436C60.813 39.7413 60.6439 36.4899 59.9905 33.3405C59.115 29.1193 57.3925 25.128 56.167 20.9973C55.0566 17.25 54.3606 13.2406 55.1147 9.43399C56.5015 10.5393 57.7256 11.8512 58.6062 13.3853V13.384Z" fill="#FFDEB6"/>
<g opacity="0.22">
<path d="M6.22475 70.2435C7.72262 74.1767 9.40643 78.3526 12.8761 80.7363C14.6089 81.9269 16.6517 82.5647 18.67 83.1536C23.1842 84.4694 27.8496 85.625 32.5381 85.2596C39.0345 84.7534 44.8994 81.4026 50.856 78.762C54.7053 77.0562 58.6811 75.6203 62.409 73.6615C67.5353 70.9666 72.0986 67.3343 76.6271 63.7226C78.8571 61.9445 81.1413 60.1032 82.5411 57.6188C83.4901 55.935 83.9821 54.0381 84.465 52.1671C85.1752 49.4115 85.8906 46.6147 85.8351 43.7687C85.7795 40.8956 84.9389 38.0988 84.6161 35.2425C84.2365 31.8904 84.5645 28.4466 83.7342 25.1771C83.1454 22.8618 81.9987 20.7326 80.7901 18.6717C78.2799 14.3873 75.2467 10.0938 70.757 7.97357C68.7129 7.0077 66.0322 6.64357 64.3807 8.18792C62.8686 9.60056 62.8674 11.9842 63.2418 14.0193C64.0992 18.6769 66.3112 22.96 67.778 27.4626C69.0912 31.4914 69.8092 35.7125 69.8996 39.9492C69.959 42.7163 69.7472 45.5145 68.9311 48.1603C66.9658 54.5301 61.7698 59.3142 56.5841 63.5031C52.7684 66.5841 48.7267 69.5811 44.0252 70.9808C38.4418 72.6427 32.4348 71.8989 26.7404 70.6722C21.0459 69.4455 15.4005 67.7436 9.57946 67.5138C8.67945 67.4776 7.74457 67.4854 6.9272 67.8624C6.10983 68.2407 6.11499 69.3512 6.22475 70.2448" fill="white"/>
</g>
<path d="M63.0267 50.4303C63.0267 50.4303 57.114 63.8401 47.5367 66.4872C37.9594 69.1343 41.0597 64.7685 46.7606 63.5573C55.7427 61.6488 64.7312 45.6785 63.0254 50.4303H63.0267Z" fill="white"/>
<path d="M33.8479 69.1846C37.6404 68.7766 37.6197 68.8864 38.7819 68.4899C38.7819 68.4899 39.8291 67.3446 37.7321 66.2871C35.6363 65.2295 33.1248 67.5835 30.04 66.5518C26.9552 65.52 30.0542 69.5927 33.8467 69.1846H33.8479Z" fill="white"/>
<path d="M64.6151 48.314C64.6151 48.314 68.0951 42.3767 68.25 40.7484C68.405 39.1202 61.4438 48.762 64.6151 48.314Z" fill="white"/>
<path d="M77.2613 12.0243C73.6445 7.65591 73.7981 7.67141 72.3519 6.35561C72.3519 6.35561 70.0715 5.23479 70.4783 7.75276C70.885 10.2707 75.8654 12.9927 77.1154 16.656C78.3653 20.3193 80.8794 16.3926 77.2613 12.0243Z" fill="white"/>
<g opacity="0.22">
<path d="M67.3819 10.0318C66.8473 12.8429 67.7589 15.7392 69.045 18.2946C70.3311 20.8501 71.9981 23.2092 73.1448 25.8318C76.6712 33.8983 74.8208 43.3013 71.6882 51.5292C70.0961 55.7116 68.0908 59.9069 64.6909 62.8161C62.9438 64.3114 60.8958 65.4064 58.866 66.4885C54.0418 69.0607 49.2164 71.6342 44.2824 73.9882C41.6031 75.2665 38.7558 76.5074 35.7911 76.3357C31.2936 76.0761 27.6329 72.6762 23.3355 71.3256C20.1203 70.3145 13.7414 70.1325 13.6433 72.0823C13.5942 75.1593 16.0154 77.88 18.8871 78.9867C21.7589 80.0933 24.9742 79.8673 27.9918 79.2643C31.0108 78.6613 33.9626 77.6993 37.0229 77.3687C39.3446 77.1182 41.6947 77.2344 44.0126 76.9542C49.9408 76.2376 55.222 73.0016 60.2902 69.8432C62.8844 68.2265 65.5289 66.566 67.4568 64.1952C68.2845 63.1777 68.9637 62.0466 69.7952 61.0316C71.2001 59.3168 73.0092 57.9726 74.4489 56.2875C77.8773 52.2717 78.8728 46.7722 79.5701 41.5374C80.4727 34.7686 80.9776 27.42 77.4576 21.568C76.0837 19.2825 74.1662 17.3701 72.7057 15.1388C71.3073 13.0043 69.9231 10.2978 67.3844 10.0305L67.3819 10.0318Z" fill="white"/>
</g>
</g>
<defs>
<clipPath id="clip0_236_173691">
<rect width="92.94" height="92" fill="white" transform="translate(0.460938)"/>
</clipPath>
</defs>
</svg>
