<svg width="67" height="92" viewBox="0 0 67 92" fill="none" xmlns="http://www.w3.org/2000/svg">
<g clip-path="url(#clip0_236_172966)">
<path d="M66.3115 27.6487L66.0535 30.7133L65.3519 38.9558L62.3102 74.9652L61.4687 84.8775C61.2842 87.0511 59.8448 88.9234 57.7688 89.9059C57.4951 90.0373 57.207 90.1483 56.9128 90.2399C56.4547 90.3966 55.9676 90.5087 55.4661 90.5738C52.9995 90.8945 49.8325 91.2417 46.1844 91.5106C42.382 91.7987 38.0552 92.0012 33.4619 92.0012C28.8687 92.0012 24.2393 91.7782 20.3404 91.4647C20.2813 91.4587 20.2295 91.4587 20.1777 91.4515C18.649 91.3333 17.2095 91.1959 15.8798 91.0585C15.4 91.0066 14.9346 90.9608 14.4922 90.9078C13.1998 90.7643 12.0256 90.6196 10.9924 90.4822C10.6235 90.4364 10.2618 90.358 9.91459 90.2459C9.69276 90.1868 9.47214 90.1085 9.26478 90.0168C9.22741 90.0036 9.19124 89.9843 9.15387 89.971C9.10203 89.9517 9.05019 89.9252 9.00679 89.9059C7.03567 89.0222 5.66131 87.2609 5.49253 85.2186L4.63657 74.9664L1.63468 38.9558L0.689512 27.6487C0.394145 23.5895 2.49908 19.5955 6.39792 17.4616C6.84881 17.2132 7.32862 16.9902 7.82291 16.8009C9.43236 16.1789 10.5258 14.8371 10.6874 13.3048C10.7018 13.1734 10.7091 13.0359 10.7091 12.9057V10.2607H56.2907V12.9057C56.2907 13.2529 56.3353 13.5869 56.4306 13.9136C56.7778 15.1903 57.782 16.2645 59.1769 16.8009C59.6796 16.9902 60.151 17.2132 60.6019 17.4616C64.5079 19.5955 66.6056 23.5895 66.3103 27.6487H66.3115Z" fill="url(#paint0_linear_236_172966)"/>
<g style="mix-blend-mode:lighten" opacity="0.65">
<path d="M14.4895 90.9065C13.1971 90.763 12.0229 90.6184 10.9897 90.4809C10.6208 90.4351 10.2591 90.3568 9.9119 90.2446C9.69007 90.1856 9.46945 90.1072 9.26209 90.0156C9.22472 90.0023 9.18855 89.983 9.15118 89.9698C9.09934 89.9505 9.0475 89.924 9.0041 89.9047L8.49414 80.2022L13.4189 79.4366L14.4895 90.9077V90.9065Z" fill="white"/>
</g>
<path d="M57.7675 89.9047C57.4576 90.0554 57.1249 90.1796 56.7849 90.2845C56.3642 90.4159 55.9205 90.5135 55.4636 90.5726C53.0344 90.8873 49.9324 91.2272 46.3591 91.4961C42.5121 91.7902 38.1262 92 33.4594 92C24.1849 92 15.9894 91.1489 10.9899 90.481C10.3401 90.3954 9.7204 90.2254 9.15137 89.9698C13.5746 86.8016 22.819 84.6207 33.504 84.6207C38.289 84.6207 42.7858 85.0595 46.6918 85.8323C50.9005 86.6569 54.4232 87.8685 56.8669 89.3224C57.184 89.5117 57.4866 89.7082 57.7675 89.9047Z" fill="#6B7CAF"/>
<g style="mix-blend-mode:soft-light" opacity="0.8">
<path d="M21.911 75.7826L20.1762 91.4503C18.5523 91.3188 17.0308 91.1814 15.6348 91.0307C13.8843 90.8475 12.3267 90.657 10.9897 90.481C10.3616 90.3954 9.79376 90.2386 9.2621 90.0156L7.69727 77.4185L21.911 75.7814V75.7826Z" fill="#FFFFEE"/>
</g>
<g style="mix-blend-mode:soft-light" opacity="0.8">
<path d="M58.5878 76.7651L56.912 90.2386C56.4539 90.3954 55.9669 90.5075 55.4653 90.5726C52.9987 90.8933 49.8317 91.2405 46.1836 91.5093L44.374 75.1279L58.5878 76.7651Z" fill="#FFFFEE"/>
</g>
<path d="M65.0786 27.105L60.3153 82.6375C60.0935 85.1776 57.9151 87.2138 55.0205 87.5803C50.0438 88.2084 42.2606 88.9619 33.4587 88.9619C24.6568 88.9619 16.5276 88.1626 11.4401 87.4887C8.81913 87.1487 6.83957 85.2825 6.64789 82.9642L1.92323 27.105C1.77615 25.1797 2.2186 23.3207 3.1493 21.704C4.0571 20.1126 5.43869 18.7575 7.19522 17.8088C7.6232 17.5725 8.06685 17.3699 8.50206 17.206C10.5033 16.4525 11.7885 14.7442 11.7885 12.8454V10.9141H55.2133V12.8454C55.2133 14.7442 56.5057 16.4525 58.4998 17.206C58.935 17.3699 59.3786 17.5725 59.8066 17.8088C61.7186 18.8431 63.1882 20.3489 64.0816 22.1235C64.8568 23.6353 65.2112 25.3448 65.0786 27.1062V27.105Z" fill="url(#paint1_linear_236_172966)"/>
<path d="M55.7746 86.7618C50.6244 87.3899 42.5711 88.1397 33.4557 88.1397C24.3404 88.1397 15.9375 87.3416 10.6715 86.6726C9.57084 86.5327 8.58468 86.1421 7.78418 85.5755C8.64858 86.5785 9.93131 87.2922 11.4443 87.4911C16.5318 88.1602 24.4814 88.9583 33.4569 88.9583C42.4325 88.9583 50.0445 88.2085 55.0211 87.5804C56.7053 87.367 58.1423 86.5882 59.0972 85.4766C58.1894 86.1469 57.0513 86.6062 55.7758 86.763L55.7746 86.7618Z" fill="white"/>
<path d="M62.6572 21.7715C63.1309 21.8885 63.6023 21.9994 64.0797 22.1224C63.1864 20.3478 61.7168 18.842 59.8048 17.8076C59.3768 17.5713 58.9331 17.3688 58.4979 17.2048C56.5039 16.4513 55.2115 14.743 55.2115 12.8442V10.9129H11.7866V12.8442C11.7866 14.743 10.5015 16.4513 8.50022 17.2048C8.06501 17.3688 7.62136 17.5713 7.19338 17.8076C5.43565 18.7564 4.05526 20.1127 3.14746 21.7028C9.58765 19.786 24.7659 16.4284 45.3282 18.6816C49.1149 19.0964 52.112 21.8993 52.1638 25.2822C52.165 25.3991 52.1638 25.5112 52.1554 25.6161L47.3921 85.2982C47.2897 86.5641 46.7616 87.7106 45.9406 88.6196C49.0329 88.3712 51.7395 88.0735 53.9119 87.7986C56.8065 87.4321 58.985 85.3959 59.2068 82.8557L63.97 27.3232C64.1026 25.5619 63.7482 23.8536 62.973 22.3406C62.8754 22.1477 62.7681 21.9584 62.6572 21.7715Z" fill="#E8CE9E"/>
<path style="mix-blend-mode:color-burn" d="M56.4309 13.9124C48.3017 12.4066 14.1357 13.2179 10.6865 13.3035C10.701 13.1721 10.7082 13.0347 10.7082 12.9045V10.9599L36.9874 10.2595H56.2887V12.9045C56.2887 13.2517 56.3333 13.5856 56.4285 13.9124H56.4309Z" fill="url(#paint2_linear_236_172966)"/>
<path style="mix-blend-mode:overlay" opacity="0.35" d="M64.0808 22.1224C63.1875 20.3477 61.7179 18.842 59.8058 17.8076C59.3778 17.5713 58.9342 17.3688 58.499 17.2048C56.5049 16.4513 55.2126 14.743 55.2126 12.8442V10.9129H53.4898V12.8442C53.4898 14.743 54.7822 16.4513 56.7762 17.2048C57.2114 17.3688 57.6551 17.5713 58.083 17.8076C59.9951 18.842 61.4647 20.3477 62.358 22.1224C63.1332 23.6342 63.4877 25.3437 63.355 27.105L58.5918 82.6375C58.37 85.1777 56.1915 87.2139 53.2969 87.5804C48.4867 88.188 41.0543 88.9089 32.6152 88.9571C32.8961 88.9583 33.1746 88.962 33.4579 88.962C42.2599 88.962 50.0419 88.2085 55.0197 87.5804C57.9143 87.2139 60.0927 85.1777 60.3146 82.6375L65.0778 27.105C65.2104 25.3437 64.856 23.6354 64.0808 22.1224Z" fill="url(#paint3_linear_236_172966)"/>
<path d="M56.3695 7.28412H10.6504V10.8852H56.3695V7.28412Z" fill="#6F80B5"/>
<path d="M56.4704 11.3228L10.7332 11.3204C10.2968 11.3204 9.94238 10.9659 9.94238 10.5295C9.94238 10.0931 10.2968 9.73865 10.7332 9.73865L56.4704 9.74106C56.9068 9.74106 57.2613 10.0955 57.2613 10.5319C57.2613 10.9683 56.9068 11.3228 56.4704 11.3228Z" fill="url(#paint4_linear_236_172966)"/>
<path style="mix-blend-mode:overlay" opacity="0.5" d="M22.0608 9.73749H14.2535C14.0644 9.73749 13.9111 9.89078 13.9111 10.0799V10.9768C13.9111 11.1659 14.0644 11.3192 14.2535 11.3192H22.0608C22.2499 11.3192 22.4032 11.1659 22.4032 10.9768V10.0799C22.4032 9.89078 22.2499 9.73749 22.0608 9.73749Z" fill="url(#paint5_linear_236_172966)"/>
<path d="M56.4704 8.37637L10.7332 8.37395C10.2968 8.37395 9.94238 8.01951 9.94238 7.5831C9.94238 7.14668 10.2968 6.79224 10.7332 6.79224L56.4704 6.79465C56.9068 6.79465 57.2613 7.14909 57.2613 7.58551C57.2613 8.02192 56.9068 8.37637 56.4704 8.37637Z" fill="url(#paint6_linear_236_172966)"/>
<path style="mix-blend-mode:overlay" opacity="0.5" d="M22.2404 6.79224H14.1968C14.0051 6.79224 13.8496 6.94769 13.8496 7.13944V8.02675C13.8496 8.2185 14.0051 8.37395 14.1968 8.37395H22.2404C22.4322 8.37395 22.5876 8.2185 22.5876 8.02675V7.13944C22.5876 6.94769 22.4322 6.79224 22.2404 6.79224Z" fill="url(#paint7_linear_236_172966)"/>
<path d="M49.2179 39.1837C46.9816 34.7966 40.7873 31.5933 33.4924 31.5897C26.1974 31.5933 20.0032 34.7966 17.7668 39.1837C12.3875 39.133 7.00946 39.0571 1.63379 38.9558C2.63201 50.9778 3.62781 63.0915 4.62121 75.2835C23.7911 77.2268 43.1478 77.2281 62.3189 75.2883C63.3268 63.0939 64.3371 50.9778 65.3509 38.9558C59.9753 39.0583 54.5972 39.1342 49.2179 39.1837Z" fill="url(#paint8_linear_236_172966)"/>
<path d="M48.092 45.3213C46.016 42.2627 40.2654 40.03 33.4937 40.0276C26.7219 40.03 20.9713 42.2627 18.8953 45.3213C13.9018 45.2863 9.57019 45.2984 4.5791 45.2272C5.0758 53.952 5.56406 62.1511 6.69127 70.4865C24.488 71.8416 42.4571 71.8416 60.2539 70.4901C61.1894 61.9896 61.328 53.7085 62.2684 45.3273C57.2785 45.3984 53.0855 45.2863 48.0908 45.3213H48.092Z" fill="#FFEFCC"/>
<path style="mix-blend-mode:overlay" opacity="0.5" d="M17.3554 23.3532C16.4693 26.0573 19.4748 77.1774 20.338 91.4635C20.279 91.4575 20.2271 91.4575 20.1753 91.4502C18.6466 91.3321 17.2071 91.1946 15.8774 91.0572C14.0317 90.8679 12.3848 90.6642 10.9888 90.481C10.6199 90.4351 10.2582 90.3568 9.91099 90.2447C8.75123 76.1358 4.80176 27.5751 4.80176 24.2236C4.80176 20.2959 10.9008 19.628 13.1383 17.1855C14.1498 16.0788 14.6742 13.2119 14.9395 10.2582C15.3011 6.21835 15.1757 2.04102 15.1757 2.04102C15.1757 2.04102 16.8672 -0.872858 20.3079 4.14234C21.4086 5.73973 21.622 7.92062 21.3712 10.257C20.8323 15.2529 18.1366 20.9879 17.3542 23.3508L17.3554 23.3532Z" fill="url(#paint9_linear_236_172966)"/>
<g style="mix-blend-mode:lighten" opacity="0.15">
<path d="M66.0519 30.7121L61.4658 84.8763C61.2814 87.0499 59.8419 88.9222 57.7659 89.9047C57.4923 90.0361 57.2041 90.147 56.91 90.2387C56.4519 90.3954 55.9648 90.5075 55.4633 90.5726C52.9967 90.8933 49.8296 91.2405 46.1815 91.5093C42.3792 91.7975 38.0523 92 33.4591 92C28.6368 92 24.111 91.771 20.1748 91.4503C18.6462 91.3321 17.2067 91.1947 15.877 91.0573C16.4966 90.8547 17.1247 90.6715 17.7372 90.5003C23.9616 88.792 30.4596 87.4948 35.9534 84.3856C44.5854 79.5018 49.4812 70.8988 53.491 62.5514C56.8798 55.4939 59.9299 48.3183 62.6328 41.0379C63.261 39.3489 64.1688 33.9346 66.0519 30.7133V30.7121Z" fill="white"/>
</g>
<g style="mix-blend-mode:lighten" opacity="0.65">
<path d="M5.81515 20.8758C5.12315 21.6425 4.55894 22.7625 5.21116 23.5546C5.60297 24.0296 6.32873 24.208 6.99059 24.1586C7.65245 24.1104 8.27453 23.8741 8.8954 23.6655C15.3127 21.5147 22.4196 22.2116 29.2769 22.4057C29.8604 22.4225 30.4596 22.4334 31.0093 22.261C31.5602 22.0886 32.0594 21.692 32.145 21.1808C32.2956 20.2839 31.2179 19.6389 30.2787 19.2784C27.0116 18.0246 23.5022 17.2735 19.953 17.0457C16.8124 16.8431 12.9305 16.766 10.0178 17.9631C8.39026 18.6322 6.93513 19.634 5.81394 20.877L5.81515 20.8758Z" fill="white"/>
</g>
<path d="M16.4959 26.0525C16.4959 26.9109 14.995 27.6077 13.142 27.6077C11.289 27.6077 9.78809 26.9121 9.78809 26.0525C9.78809 25.1929 11.289 24.4973 13.142 24.4973C14.995 24.4973 16.4959 25.1929 16.4959 26.0525Z" fill="white"/>
<path style="mix-blend-mode:color-burn" d="M61.8957 24.2249C61.8957 27.5113 58.1078 74.1466 56.8673 89.3224C56.8371 89.6624 56.8082 89.9831 56.7865 90.2845C56.3657 90.4159 55.9221 90.5135 55.4652 90.5726C53.0359 90.8873 49.934 91.2272 46.3606 91.4961C46.4487 89.9831 46.5668 88.065 46.6934 85.8323C47.8158 66.9565 50.1341 25.7692 49.3445 23.3532C48.2004 19.8836 42.9428 9.166 46.3908 4.14356C49.8315 -0.871637 51.5229 2.04224 51.5229 2.04224C51.5229 2.04224 51.154 14.567 53.5531 17.1855C55.7979 19.628 61.8969 20.2959 61.8969 24.2237L61.8957 24.2249Z" fill="url(#paint10_linear_236_172966)"/>
<g style="mix-blend-mode:lighten" opacity="0.25">
<path d="M55.0574 18.854C57.3238 18.9842 59.7688 19.2591 61.4107 20.6503C62.0714 21.2097 62.5729 21.9716 62.5536 22.7818C62.5343 23.5919 61.8785 24.4117 60.9731 24.5154C59.958 24.6324 59.1069 23.9054 58.3124 23.3327C56.3268 21.9005 53.7915 21.182 51.2574 20.8673C48.7221 20.5527 46.1506 20.6118 43.5911 20.5672C42.6869 20.5515 41.4126 20.1343 42.1288 19.1759C42.6146 18.5237 45.1258 18.7503 45.807 18.7299C48.8908 18.6358 51.9795 18.6768 55.0586 18.854H55.0574Z" fill="white"/>
</g>
<path d="M58.3726 1.19111V5.78677C58.3726 6.44743 57.7674 6.98511 57.0211 6.98511H10.1772C9.43941 6.98511 8.83301 6.44863 8.83301 5.78677V1.19111C8.83301 0.536482 9.43821 0 10.1772 0H57.0211C57.7674 0 58.3726 0.536482 58.3726 1.19111Z" fill="url(#paint11_linear_236_172966)"/>
<path style="mix-blend-mode:color-burn" d="M57.7165 5.9218H9.48258C9.2475 5.9218 9.02808 5.86514 8.83398 5.77472C8.83398 6.44864 9.43918 6.98512 10.1782 6.98512H57.0221C57.7684 6.98512 58.3736 6.44864 58.3736 5.78677C58.177 5.86393 57.9552 5.92059 57.7165 5.92059V5.9218Z" fill="url(#paint12_linear_236_172966)"/>
<g style="mix-blend-mode:soft-light" opacity="0.8">
<path d="M32.817 0L32.1973 6.98632H12.4596L11.7725 0H32.817Z" fill="#FFFFEE"/>
</g>
<g style="mix-blend-mode:soft-light" opacity="0.5">
<path d="M55.8767 0L55.3523 6.98632H49.9694L49.6885 0H55.8767Z" fill="#FFFFEE"/>
</g>
<g style="mix-blend-mode:soft-light">
<path d="M23.6834 0L23.4832 6.98632H15.8338L15.1611 0H23.6834Z" fill="#FFFFEE"/>
</g>
</g>
<defs>
<linearGradient id="paint0_linear_236_172966" x1="33.5005" y1="92.2243" x2="33.5005" y2="10.2595" gradientUnits="userSpaceOnUse">
<stop stop-color="#B0BEEA"/>
<stop offset="0.99" stop-color="#94A1D3"/>
</linearGradient>
<linearGradient id="paint1_linear_236_172966" x1="1.89429" y1="49.9386" x2="65.1051" y2="49.9386" gradientUnits="userSpaceOnUse">
<stop stop-color="#FFEFCC"/>
<stop offset="0.4" stop-color="#F7E4BC"/>
<stop offset="0.99" stop-color="#E8CE9E"/>
</linearGradient>
<linearGradient id="paint2_linear_236_172966" x1="10.6877" y1="12.0859" x2="56.4309" y2="12.0859" gradientUnits="userSpaceOnUse">
<stop stop-color="#CCCCCC"/>
<stop offset="1" stop-color="#999999"/>
</linearGradient>
<linearGradient id="paint3_linear_236_172966" x1="32.6164" y1="49.9386" x2="65.1043" y2="49.9386" gradientUnits="userSpaceOnUse">
<stop stop-color="#E6E6E6"/>
<stop offset="1" stop-color="white"/>
</linearGradient>
<linearGradient id="paint4_linear_236_172966" x1="9.94359" y1="10.5271" x2="57.2625" y2="10.5271" gradientUnits="userSpaceOnUse">
<stop stop-color="#B0BEEA"/>
<stop offset="0.99" stop-color="#94A1D3"/>
</linearGradient>
<linearGradient id="paint5_linear_236_172966" x1="13.9123" y1="10.5271" x2="22.4044" y2="10.5271" gradientUnits="userSpaceOnUse">
<stop stop-color="#E6E6E6"/>
<stop offset="1" stop-color="white"/>
</linearGradient>
<linearGradient id="paint6_linear_236_172966" x1="9.94359" y1="7.58068" x2="57.2625" y2="7.58068" gradientUnits="userSpaceOnUse">
<stop stop-color="#B0BEEA"/>
<stop offset="0.99" stop-color="#94A1D3"/>
</linearGradient>
<linearGradient id="paint7_linear_236_172966" x1="13.8508" y1="7.58189" x2="22.5888" y2="7.58189" gradientUnits="userSpaceOnUse">
<stop stop-color="#E6E6E6"/>
<stop offset="1" stop-color="white"/>
</linearGradient>
<linearGradient id="paint8_linear_236_172966" x1="1.63499" y1="54.1654" x2="65.3509" y2="54.1654" gradientUnits="userSpaceOnUse">
<stop stop-color="#4F7C0F"/>
<stop offset="0.09" stop-color="#558513"/>
<stop offset="0.25" stop-color="#5E911A"/>
<stop offset="0.48" stop-color="#63981D"/>
<stop offset="0.99" stop-color="#659B1F"/>
</linearGradient>
<linearGradient id="paint9_linear_236_172966" x1="4.80176" y1="46.3327" x2="21.4665" y2="46.3327" gradientUnits="userSpaceOnUse">
<stop stop-color="#E6E6E6"/>
<stop offset="1" stop-color="white"/>
</linearGradient>
<linearGradient id="paint10_linear_236_172966" x1="45.2334" y1="46.3484" x2="61.8957" y2="46.3484" gradientUnits="userSpaceOnUse">
<stop stop-color="#CCCCCC"/>
<stop offset="1" stop-color="#999999"/>
</linearGradient>
<linearGradient id="paint11_linear_236_172966" x1="8.83301" y1="3.49256" x2="58.3726" y2="3.49256" gradientUnits="userSpaceOnUse">
<stop stop-color="#4F7C0F"/>
<stop offset="0.09" stop-color="#558513"/>
<stop offset="0.25" stop-color="#5E911A"/>
<stop offset="0.48" stop-color="#63981D"/>
<stop offset="0.99" stop-color="#659B1F"/>
</linearGradient>
<linearGradient id="paint12_linear_236_172966" x1="8.83278" y1="6.37992" x2="58.3723" y2="6.37992" gradientUnits="userSpaceOnUse">
<stop stop-color="#CCCCCC"/>
<stop offset="1" stop-color="#999999"/>
</linearGradient>
<clipPath id="clip0_236_172966">
<rect width="65.6762" height="92" fill="white" transform="translate(0.662109)"/>
</clipPath>
</defs>
</svg>
