<svg width="66" height="92" viewBox="0 0 66 92" fill="none" xmlns="http://www.w3.org/2000/svg">
<g clip-path="url(#clip0_236_173618)">
<path d="M65.1666 54.6573C64.398 67.2922 59.2197 78.0605 51.7009 84.7399C45.754 90.0227 38.3447 92.7499 30.4964 91.8209C24.103 91.0648 18.2892 87.9857 13.53 83.2986C5.0586 74.9603 -0.0737186 61.5294 0.807991 47.0428C1.19475 40.688 4.1458 34.1927 8.19122 28.1351C12.4555 21.7517 17.9336 15.8559 22.9054 11.1277C30.0101 4.37124 36.0789 0 36.0789 0C36.0789 0 40.0584 4.1847 45.0763 10.5967C47.5946 13.8151 50.3752 17.5969 53.0452 21.692C59.7719 32.0064 65.7946 44.3143 65.1653 54.6573H65.1666Z" fill="#B3672A"/>
<g opacity="0.08">
<path d="M65.1666 54.6573C64.398 67.2922 59.2197 78.0605 51.7009 84.7399C45.754 90.0227 38.3447 92.7499 30.4964 91.8209C24.103 91.0648 18.2892 87.9857 13.53 83.2986C5.0586 74.9602 -0.0737187 61.5294 0.807991 47.0427C0.840325 46.5155 0.890068 45.9869 0.957223 45.4584C1.69219 39.6123 4.48157 33.6903 8.19247 28.1351C8.73592 29.8102 9.46218 31.3759 10.4981 32.7115C12.9878 35.9188 16.7795 37.1611 20.3859 37.8488C26.5741 39.029 33.134 38.9731 38.6767 35.7907C44.3202 32.5511 48.2761 26.4898 53.0465 21.6908C58.134 29.4931 62.8199 38.4358 64.5286 46.8065C65.0783 49.5013 65.3195 52.1378 65.1666 54.656V54.6573Z" fill="black"/>
</g>
<g opacity="0.08">
<path d="M65.1666 54.6573C64.398 67.2922 59.2197 78.0605 51.7009 84.7399C45.754 90.0227 38.3447 92.7499 30.4964 91.8209C24.103 91.0648 18.2892 87.9857 13.53 83.2985C5.0586 74.9602 -0.0737187 61.5294 0.807991 47.0427C0.840325 46.5155 0.890068 45.9869 0.957223 45.4584C6.91281 56.5314 17.4933 64.0178 28.4867 65.3472C40.1616 66.7587 52.0106 61.4274 60.1176 51.7759C61.5415 50.0821 62.9194 48.2142 64.5299 46.8077C65.0795 49.5026 65.3208 52.139 65.1678 54.6573H65.1666Z" fill="black"/>
</g>
<path d="M45.3636 13.9109C45.3313 14.0477 45.2803 14.1957 45.1696 14.2566C45.0316 14.3312 44.8699 14.2392 44.7344 14.1484C43.1214 13.069 41.5073 11.9895 39.8943 10.9113C40.3967 12.2905 40.6094 13.8052 40.5086 15.2813C39.28 14.2715 38.2727 12.8837 37.621 11.3018C37.8324 13.5129 37.7889 15.7477 37.4929 17.9277C37.4432 18.302 37.2678 18.7771 36.9482 18.7074C35.7967 16.1394 34.6451 13.5714 33.4935 11.0046C33.1764 12.2581 32.8593 13.5117 32.5434 14.7665C32.225 13.1361 31.9079 11.5058 31.5896 9.8754C30.8845 11.4224 30.1781 12.9682 29.4717 14.5153C29.1384 15.2465 28.8002 15.9852 28.3251 16.5945C28.3003 14.4755 28.2978 12.3576 28.3189 10.2398C27.5752 11.257 26.8328 12.2743 26.0891 13.2916C26.2657 12.0218 26.3254 10.726 26.2645 9.43392C25.144 9.99851 24.0235 10.5644 22.9043 11.1277C30.0102 4.37124 36.079 0 36.079 0C36.079 0 40.0585 4.1847 45.0764 10.5967C45.2841 11.7147 45.6161 12.8376 45.3636 13.9096V13.9109Z" fill="#C5916D"/>
<path d="M51.7012 84.7399C45.7543 90.0227 38.345 92.7499 30.4967 91.8209C24.1033 91.0648 18.2895 87.9857 13.5303 83.2986C14.218 82.2005 15.3596 81.4841 16.5373 81.6893C17.4551 81.8498 18.5146 82.4193 19.206 81.7242C19.4871 81.4431 19.6214 81.0128 19.8303 80.6559C20.7829 79.0355 22.9381 79.3389 24.4702 80.253C26.0023 81.167 27.4573 82.5462 29.1548 82.5897C31.7291 82.6531 33.8021 79.5939 36.3664 79.952C37.8401 80.1585 39.0625 81.463 40.4977 81.9356C41.4279 82.2427 42.4041 82.1855 43.3629 82.244C46.0242 82.4044 48.6009 83.4577 51.1354 84.5024C51.3219 84.5795 51.5122 84.6578 51.7012 84.7411V84.7399Z" fill="#C5916D"/>
<path opacity="0.2" d="M37.5361 19.8565C37.5361 19.8565 37.6045 20.0679 37.7239 20.4671C37.8408 20.8675 38.0149 21.4545 38.2077 22.2106C38.4054 22.9655 38.6317 23.887 38.8668 24.9515C39.103 26.016 39.3505 27.2211 39.5868 28.5455C39.6502 28.8751 39.7025 29.2146 39.7622 29.559C39.8194 29.9048 39.884 30.2542 39.9375 30.6136C40.0482 31.3312 40.1613 32.0723 40.2596 32.8372C40.4722 34.3655 40.6476 35.9847 40.7981 37.6635C40.8304 38.0839 40.8627 38.5067 40.8963 38.9333C40.9125 39.1472 40.9286 39.3611 40.9461 39.575C40.961 39.7901 40.9722 40.0052 40.9846 40.2216C41.0095 40.6544 41.0356 41.0897 41.0605 41.5274C41.0754 41.7463 41.0804 41.9664 41.0878 42.1865C41.0953 42.4066 41.1027 42.6267 41.1102 42.8481C41.1177 43.0695 41.1251 43.2908 41.1326 43.5122C41.1401 43.7335 41.1488 43.9561 41.15 44.1788C41.1562 44.624 41.1612 45.0704 41.1674 45.5181C41.1699 45.742 41.1724 45.9658 41.1761 46.1896C41.1736 46.4135 41.1724 46.6373 41.1699 46.8624C41.1662 47.3114 41.1612 47.7603 41.1575 48.208C41.1575 48.4331 41.1475 48.6569 41.1388 48.8808L41.1139 49.5523C41.0965 50 41.0804 50.4465 41.063 50.8929C41.0356 51.3381 41.0082 51.7821 40.9821 52.2261C40.9684 52.4474 40.9548 52.6688 40.9411 52.8901L40.9212 53.2209L40.8926 53.5505C40.854 53.9895 40.8167 54.426 40.7794 54.86C40.7595 55.0776 40.7396 55.294 40.7197 55.5092C40.7023 55.7255 40.6712 55.9394 40.6476 56.1533C40.5966 56.5811 40.5469 57.0052 40.4971 57.428C40.4722 57.6394 40.4474 57.8496 40.4225 58.0585C40.3964 58.2675 40.3628 58.4739 40.333 58.6803C40.272 59.0932 40.2123 59.5023 40.1526 59.9078C40.1228 60.1105 40.0929 60.3119 40.0643 60.5134C40.0357 60.7136 39.9947 60.9113 39.9599 61.1078C39.8878 61.502 39.8169 61.8913 39.7472 62.2756C39.7124 62.4683 39.6776 62.6586 39.6428 62.8489C39.6254 62.9434 39.6079 63.0379 39.5905 63.1324C39.5706 63.2257 39.5507 63.3189 39.5308 63.4122C39.3717 64.1546 39.2162 64.8772 39.0657 65.5761C38.8979 66.2687 38.7238 66.9341 38.5633 67.5733C38.4091 68.2162 38.2263 68.8181 38.0584 69.3927C37.9739 69.6799 37.8918 69.9585 37.811 70.2308C37.7301 70.5019 37.658 70.7681 37.5697 71.018C37.4006 71.5205 37.2439 71.9918 37.0971 72.427C37.0238 72.6447 36.9529 72.8523 36.8857 73.0513C36.8509 73.1508 36.8198 73.2491 36.7862 73.3423C36.7502 73.4356 36.7166 73.5264 36.6818 73.6147C36.4131 74.3223 36.1955 74.8744 36.05 75.2525C35.9033 75.6293 35.8262 75.8308 35.8262 75.8308C35.8262 75.8308 35.8921 75.6231 36.0152 75.2338C36.1396 74.8446 36.3161 74.2725 36.5512 73.55C36.5798 73.4592 36.6096 73.3672 36.6407 73.2714C36.6706 73.1757 36.6967 73.0762 36.7253 72.9742C36.7825 72.7715 36.8422 72.5589 36.9056 72.3375C37.0325 71.896 37.168 71.4172 37.3148 70.9061C37.3919 70.6524 37.4528 70.3826 37.5224 70.109C37.5908 69.8341 37.6617 69.5518 37.7338 69.2608C37.8769 68.6801 38.0435 68.0757 38.1741 67.429C38.3134 66.7861 38.4638 66.1183 38.6081 65.4231C38.7399 64.7242 38.8767 64.0029 39.016 63.2605C39.0334 63.1672 39.0508 63.0752 39.0682 62.9807C39.0832 62.8862 39.0981 62.7917 39.113 62.6971C39.1428 62.5081 39.1727 62.3166 39.2038 62.1251C39.2647 61.7408 39.3256 61.3528 39.3878 60.9598C39.4537 60.5681 39.5035 60.1689 39.557 59.766C39.6104 59.3631 39.6639 58.9564 39.7186 58.546C39.7447 58.3408 39.7758 58.1356 39.7982 57.928C39.8194 57.7203 39.8417 57.5113 39.8629 57.3024C39.9064 56.8833 39.9499 56.4618 39.9947 56.0377C40.0146 55.825 40.0432 55.6136 40.0569 55.3985C40.0731 55.1846 40.0905 54.9694 40.1066 54.753C40.1414 54.3228 40.1775 53.89 40.2123 53.4547L40.2384 53.1289L40.2571 52.8006C40.2695 52.5817 40.282 52.3629 40.2944 52.1427C40.3193 51.7038 40.3442 51.2635 40.369 50.822C40.384 50.3793 40.3989 49.9366 40.4138 49.4939L40.4349 48.8286C40.4424 48.6072 40.4499 48.3846 40.4511 48.162C40.4573 47.718 40.4635 47.2728 40.4698 46.8289C40.4722 46.6063 40.476 46.3849 40.4785 46.1635C40.4772 45.9422 40.4747 45.7196 40.4735 45.4982C40.4698 45.0555 40.466 44.6128 40.4623 44.1713C40.4623 43.9512 40.4548 43.7311 40.4486 43.5109C40.4424 43.2908 40.4362 43.072 40.43 42.8531C40.3864 41.1009 40.2919 39.376 40.1812 37.7071C40.0482 36.0407 39.9176 34.429 39.7398 32.9056C39.5719 31.3809 39.3804 29.9433 39.1901 28.6189C39.0906 27.9573 38.9949 27.323 38.8941 26.7211C38.7996 26.118 38.6976 25.5484 38.6044 25.0124C38.4091 23.943 38.2325 23.0103 38.0709 22.2479C37.9117 21.4844 37.7799 20.885 37.6841 20.4783C37.5896 20.0716 37.5336 19.8553 37.5336 19.8553L37.5361 19.8565Z" fill="black"/>
<path opacity="0.2" d="M40.1738 18.2274C40.1738 18.2274 40.2945 18.4276 40.5084 18.8106C40.721 19.1949 41.0332 19.7608 41.4025 20.4982C41.7731 21.2357 42.2121 22.1398 42.6809 23.1981C42.9172 23.7266 43.1597 24.2937 43.4109 24.8943C43.5353 25.1953 43.6621 25.5049 43.7877 25.8233C43.9146 26.1416 44.0402 26.4687 44.1695 26.8032C44.6819 28.1426 45.198 29.6138 45.6892 31.1931C46.1779 32.7737 46.6505 34.4588 47.0609 36.2272C47.1604 36.6699 47.2661 37.1151 47.3593 37.5678C47.4066 37.7941 47.4551 38.0205 47.5036 38.2481C47.5484 38.4769 47.5931 38.7057 47.6379 38.9345C47.7312 39.3934 47.8083 39.8585 47.8941 40.3249C47.9351 40.5587 47.9699 40.7937 48.0085 41.0287C48.0445 41.2638 48.0856 41.4988 48.1179 41.7363C48.394 43.6303 48.6029 45.5691 48.7136 47.5128C48.8156 49.4578 48.8268 51.4065 48.7422 53.3167C48.736 53.5555 48.7173 53.793 48.7049 54.0305C48.69 54.2681 48.6763 54.5043 48.6626 54.7406C48.6241 55.212 48.583 55.6795 48.5395 56.1446C48.5134 56.376 48.4873 56.6073 48.4624 56.8373C48.435 57.0674 48.4151 57.2975 48.3816 57.525C48.3505 57.7526 48.3194 57.979 48.2883 58.2053C48.2572 58.4316 48.2286 58.6567 48.19 58.8793C47.9177 60.6651 47.5496 62.3651 47.1293 63.9457C47.0198 64.3387 46.9116 64.7267 46.8059 65.1097C46.689 65.4878 46.5746 65.8596 46.4615 66.2252C46.3446 66.5896 46.2177 66.9403 46.0996 67.2885C45.9839 67.638 45.8533 67.9725 45.7302 68.3008C45.4902 68.9636 45.2253 69.578 44.9841 70.1687C44.856 70.4597 44.7266 70.7407 44.6048 71.0143C44.5426 71.1511 44.4816 71.2854 44.422 71.4185C44.3623 71.5516 44.2964 71.6784 44.2354 71.8053C43.9867 72.3102 43.7641 72.7877 43.5303 73.2105C43.3015 73.6371 43.0988 74.0325 42.8961 74.3758C42.6983 74.7215 42.5217 75.0311 42.365 75.2973C42.2021 75.5584 42.0641 75.781 41.9522 75.9614C41.7283 76.322 41.6089 76.5135 41.6089 76.5135C41.6089 76.5135 41.7171 76.312 41.9211 75.9352C42.0231 75.7462 42.1474 75.5149 42.2954 75.2413C42.4359 74.9628 42.5976 74.6432 42.7779 74.285C42.9645 73.9306 43.1473 73.5227 43.3549 73.0849C43.5651 72.6497 43.7728 72.1634 43.9979 71.6498C44.0538 71.5205 44.1135 71.3911 44.167 71.2568C44.2217 71.1213 44.2765 70.9845 44.3324 70.8452C44.4443 70.5666 44.5612 70.2819 44.6769 69.9871C44.8945 69.389 45.1408 68.7709 45.3584 68.1056C45.4703 67.7748 45.5897 67.439 45.6942 67.0883C45.7999 66.7388 45.9155 66.3869 46.02 66.0225C46.1232 65.6582 46.2277 65.2876 46.3334 64.9108C46.4304 64.5302 46.5286 64.1447 46.6281 63.753C47.0086 62.1811 47.3307 60.496 47.5819 58.7351C47.6168 58.5162 47.6429 58.2936 47.6702 58.071C47.6976 57.8484 47.7249 57.6245 47.7523 57.3994C47.7822 57.1756 47.7996 56.948 47.8232 56.7217C47.8456 56.4941 47.868 56.2665 47.8903 56.0389C47.9277 55.5813 47.9612 55.1187 47.9936 54.6548C48.006 54.4223 48.0197 54.1897 48.0321 53.9559C48.0445 53.7221 48.0607 53.4883 48.0669 53.2533C48.1415 51.3742 48.1217 49.4566 48.0147 47.5427C47.914 45.6288 47.7162 43.7174 47.4514 41.8483C47.1827 39.9791 46.8519 38.1498 46.4677 36.3951C46.0784 34.6416 45.6519 32.9603 45.1992 31.3822C44.9704 30.5937 44.7403 29.8302 44.5053 29.0952C44.3921 28.7258 44.2702 28.3677 44.1558 28.0133C44.0364 27.6613 43.922 27.3144 43.8039 26.9773C43.3326 25.6293 42.8762 24.4043 42.4459 23.3299C42.0156 22.2567 41.6226 21.3289 41.2856 20.5728C40.9486 19.8167 40.6738 19.2285 40.481 18.8305C40.2882 18.4326 40.1788 18.2249 40.1788 18.2249L40.1738 18.2274Z" fill="black"/>
<path opacity="0.2" d="M45.1748 17.822C45.1748 17.822 45.3327 18.0085 45.6175 18.3729C45.9011 18.7385 46.3164 19.2758 46.8164 19.9871C47.3175 20.6984 47.9157 21.5727 48.5611 22.6123C48.8869 23.1297 49.2227 23.6893 49.5722 24.2825C49.9179 24.8782 50.2748 25.5111 50.6342 26.1827C50.9961 26.8517 51.358 27.5581 51.7236 28.2968C51.9051 28.6674 52.088 29.0442 52.2658 29.4322C52.4474 29.8177 52.6239 30.2144 52.803 30.6174C53.5156 32.2278 54.2033 33.9664 54.8239 35.8081C54.8997 36.0394 54.9756 36.2707 55.0514 36.5045C55.0888 36.6214 55.1273 36.7383 55.1659 36.8552C55.2019 36.9734 55.238 37.0915 55.2741 37.2097C55.3462 37.4459 55.4183 37.6835 55.4917 37.9222C55.5601 38.1623 55.6285 38.4035 55.6969 38.6448C55.7317 38.7654 55.7653 38.886 55.8001 39.0079C55.8324 39.1298 55.8648 39.2516 55.8971 39.3748C55.9618 39.6197 56.0264 39.8647 56.0911 40.111C56.1533 40.3572 56.2092 40.6072 56.2689 40.8559C56.3286 41.1046 56.3883 41.3546 56.4393 41.607C56.8783 43.6179 57.2228 45.691 57.4193 47.784L57.4901 48.5687L57.5411 49.3546C57.5809 49.8782 57.5921 50.4017 57.612 50.924C57.6244 51.1852 57.622 51.4463 57.6257 51.7075C57.6282 51.9687 57.6294 52.2286 57.6319 52.4885C57.6269 52.7484 57.622 53.0071 57.617 53.267C57.612 53.5256 57.6095 53.7843 57.5946 54.0417C57.5685 54.5566 57.5536 55.0702 57.5075 55.5776C57.4864 55.8313 57.4665 56.085 57.4466 56.3374C57.4242 56.5899 57.3919 56.8398 57.3658 57.0898C57.3372 57.3397 57.3123 57.5897 57.2812 57.8372C57.2464 58.0834 57.2116 58.3297 57.1768 58.5746C57.1593 58.6978 57.1419 58.8196 57.1245 58.9415L57.0984 59.1243L57.0673 59.3059C57.025 59.5471 56.984 59.7871 56.9417 60.0272C56.6022 61.9411 56.1346 63.748 55.5999 65.4144C55.0664 67.0821 54.467 68.6105 53.8489 69.9759C53.2234 71.3364 52.6065 72.5551 52.0046 73.5898C51.8554 73.8497 51.7149 74.1034 51.5731 74.3434C51.4276 74.5797 51.2871 74.8085 51.1515 75.0274C51.016 75.2463 50.8866 75.4565 50.7623 75.6567C50.6317 75.8519 50.5086 76.0385 50.3904 76.215C50.1542 76.567 49.949 76.8866 49.7562 77.1527C49.5647 77.4176 49.4005 77.6439 49.2687 77.8268C49.0038 78.1924 48.8633 78.3876 48.8633 78.3876C48.8633 78.3876 48.9939 78.1824 49.2389 77.7982C49.3608 77.6066 49.5125 77.3691 49.6891 77.0905C49.7798 76.9538 49.8669 76.7971 49.9651 76.6341C50.0621 76.4712 50.1666 76.2984 50.276 76.1143C50.3855 75.9315 50.5011 75.7388 50.6218 75.5361C50.7362 75.3284 50.8568 75.112 50.9824 74.8869C51.108 74.6618 51.2386 74.4268 51.3741 74.183C51.5072 73.938 51.6378 73.6781 51.7758 73.412C51.8442 73.2789 51.9151 73.1434 51.986 73.0066C52.0556 72.8685 52.1315 72.7317 52.1986 72.5862C52.3354 72.2977 52.4772 72.0005 52.6227 71.6958C52.6948 71.5429 52.7707 71.3911 52.8416 71.232C52.9112 71.0728 52.9821 70.9124 53.0542 70.7494C53.1264 70.5865 53.1985 70.4224 53.2719 70.2557C53.344 70.0891 53.4223 69.9225 53.4895 69.7483C53.6288 69.4026 53.7705 69.0482 53.9148 68.6876C53.9894 68.5085 54.0528 68.3219 54.1212 68.1354C54.1884 67.9489 54.2568 67.7611 54.3264 67.5708C54.3613 67.4763 54.3948 67.3805 54.4296 67.2848C54.4645 67.189 54.5005 67.0933 54.5304 66.995C54.595 66.7998 54.6597 66.6021 54.7256 66.4031C54.7915 66.2041 54.8574 66.0039 54.9234 65.8024C54.9868 65.5997 55.0452 65.392 55.1062 65.1856C55.5986 63.5291 56.0177 61.7396 56.3348 59.858C56.3734 59.623 56.4107 59.3855 56.4492 59.1479L56.4779 58.9701L56.5015 58.7898C56.5176 58.6692 56.5326 58.5498 56.5487 58.4291C56.5798 58.1879 56.6109 57.9466 56.6432 57.7041C56.6719 57.4604 56.693 57.2154 56.7179 56.9704C56.7415 56.7242 56.7689 56.4792 56.7888 56.2317C56.8062 55.9842 56.8223 55.7355 56.8397 55.4855C56.882 54.9881 56.8945 54.4845 56.9193 53.9808C56.9977 51.9624 56.9181 49.8993 56.7228 47.8499C56.5388 45.7979 56.208 43.7609 55.7839 41.7824C55.3599 39.8026 54.8351 37.8824 54.2506 36.0556C53.9521 35.144 53.6462 34.2536 53.3241 33.3906C53.1686 32.9566 52.9995 32.535 52.8391 32.1159C52.7583 31.907 52.6724 31.7005 52.5891 31.4953C52.5058 31.2901 52.425 31.0849 52.3392 30.8847C51.6626 29.2743 50.9737 27.777 50.2934 26.4239C49.6144 25.0697 48.9541 23.8534 48.3447 22.7926C47.7354 21.7319 47.1795 20.8265 46.7094 20.0903C46.2381 19.3553 45.8563 18.787 45.5902 18.4052C45.324 18.0235 45.176 17.8257 45.176 17.8257L45.1748 17.822Z" fill="black"/>
<path opacity="0.2" d="M33.8056 18.3368C33.8056 18.3368 33.741 18.5507 33.6303 18.9574C33.5196 19.3628 33.3642 19.9622 33.1751 20.7258C32.9886 21.4906 32.7672 22.4208 32.5334 23.4953C32.2984 24.5685 32.0497 25.7847 31.7972 27.1166C31.541 28.4473 31.2985 29.8985 31.0486 31.4344C30.9329 32.2042 30.8048 32.9938 30.6966 33.8059C30.6407 34.2113 30.5835 34.6205 30.525 35.0346C30.4715 35.4487 30.4181 35.8678 30.3634 36.2894C30.336 36.5008 30.3086 36.7122 30.2813 36.9249C30.2564 37.1388 30.2328 37.3527 30.2079 37.5678C30.1594 37.9981 30.1097 38.4309 30.0599 38.8661C30.0164 39.3026 29.9716 39.7416 29.9281 40.1831C29.8858 40.6246 29.8323 41.0673 29.7963 41.5137C29.7204 42.4066 29.6309 43.3045 29.5724 44.2111C29.5401 44.6638 29.5065 45.1177 29.4742 45.5716C29.4443 46.0255 29.422 46.4819 29.3958 46.937C29.371 47.3922 29.3386 47.8474 29.3175 48.3025C29.2976 48.7577 29.2777 49.2128 29.2578 49.6667C29.2118 50.5746 29.1956 51.4811 29.1707 52.379C29.1334 54.1773 29.1086 55.9481 29.1285 57.6631C29.1322 58.0921 29.1285 58.5174 29.1434 58.939C29.1546 59.3606 29.1633 59.7772 29.1707 60.1901C29.1795 60.6029 29.1857 61.0121 29.1969 61.415C29.213 61.8179 29.2279 62.2171 29.2441 62.6101C29.2765 63.396 29.2988 64.1621 29.3473 64.902C29.3884 65.642 29.4269 66.357 29.4655 67.0435C29.5165 67.73 29.565 68.3866 29.6122 69.0121C29.6346 69.3255 29.6557 69.6302 29.6769 69.9262C29.698 70.2221 29.7291 70.5094 29.754 70.788C29.805 71.3451 29.8522 71.8662 29.8958 72.3487C29.9169 72.59 29.9368 72.8213 29.9567 73.0426C29.9803 73.2627 30.0027 73.4741 30.0251 73.6731C30.1146 74.4715 30.1768 75.1008 30.2228 75.5286C30.2676 75.9576 30.2912 76.1852 30.2912 76.1852C30.2912 76.1852 30.2539 75.9589 30.1843 75.5335C30.1159 75.1082 30.0102 74.4864 29.8858 73.6918C29.8547 73.4928 29.8224 73.2839 29.7876 73.065C29.7577 72.8449 29.7266 72.6148 29.6931 72.3748C29.6284 71.8935 29.56 71.3737 29.4854 70.8191C29.4493 70.5405 29.4083 70.2545 29.3747 69.9585C29.3424 69.6625 29.3075 69.3578 29.2727 69.0457C29.2056 68.4202 29.1359 67.7623 29.0626 67.0758C29.0029 66.3881 28.9419 65.6718 28.8773 64.9294C28.8064 64.1882 28.7703 63.4184 28.7193 62.6287C28.6944 62.2333 28.6696 61.8328 28.6447 61.4274C28.6248 61.022 28.6086 60.6116 28.5912 60.1963C28.5552 59.3655 28.5191 58.5174 28.5092 57.6544C28.5004 57.2228 28.493 56.7876 28.4843 56.3498C28.4805 56.131 28.4731 55.9108 28.4743 55.6907C28.4743 55.4706 28.4743 55.2492 28.4743 55.0266C28.4743 54.1387 28.4644 53.2396 28.493 52.3355C28.5129 51.4302 28.5266 50.5186 28.5688 49.6046C28.5863 49.1469 28.6049 48.6893 28.6223 48.2304C28.6422 47.7715 28.6708 47.3139 28.6969 46.8562C28.7255 46.3986 28.7504 45.9397 28.7815 45.4833C28.8163 45.0269 28.8511 44.5705 28.886 44.1153C28.9494 43.2038 29.0439 42.3009 29.1235 41.403C29.2081 40.5052 29.3138 39.6185 29.4132 38.743C29.4692 38.3065 29.5252 37.8712 29.5799 37.4397C29.6072 37.2246 29.6346 37.0094 29.662 36.7955C29.6918 36.5816 29.7229 36.369 29.7527 36.1576C29.8137 35.7347 29.8734 35.3144 29.9331 34.899C29.994 34.4837 30.0636 34.0745 30.1283 33.6691C30.2552 32.8571 30.4007 32.0674 30.535 31.2988C30.6021 30.9146 30.678 30.5365 30.7476 30.1647C30.8185 29.7928 30.8857 29.4247 30.9628 29.0666C31.0374 28.7084 31.1108 28.3552 31.1829 28.0095C31.255 27.6638 31.3334 27.3268 31.4055 26.9947C31.5497 26.3307 31.7015 25.7002 31.8432 25.0995C31.9178 24.801 31.9912 24.5088 32.0621 24.2265C32.0982 24.0847 32.133 23.9454 32.1678 23.8086C32.2039 23.6719 32.2399 23.5375 32.2748 23.4045C32.5484 22.3412 32.8182 21.4272 33.0421 20.6748C33.2659 19.9237 33.4624 19.3416 33.5942 18.9449C33.7285 18.5495 33.8056 18.3406 33.8056 18.3406V18.3368Z" fill="black"/>
<path opacity="0.2" d="M29.4109 18.8952C29.4109 18.8952 29.2965 19.0792 29.0963 19.4362C28.896 19.7931 28.615 20.3253 28.2718 21.013C27.9285 21.7007 27.5343 22.5514 27.1065 23.54C26.6812 24.5312 26.2285 25.6666 25.7734 26.9226C25.547 27.5519 25.3182 28.211 25.0969 28.8999C24.873 29.5876 24.6504 30.3039 24.4353 31.0451C24.005 32.5275 23.6033 34.1131 23.2414 35.7695C23.0586 36.5978 22.8944 37.4459 22.7365 38.3077C22.6631 38.7405 22.5823 39.1733 22.5164 39.6123C22.4816 39.8311 22.4455 40.0512 22.4107 40.2701C22.3784 40.4902 22.346 40.7116 22.3124 40.933C22.1806 41.8196 22.0724 42.7175 21.9705 43.6216C21.8772 44.5269 21.7926 45.4373 21.7317 46.3501C21.5974 48.1757 21.529 50.01 21.5252 51.8182C21.5252 52.7222 21.5389 53.6201 21.5613 54.5068C21.5713 54.9508 21.5949 55.391 21.6111 55.8288C21.6285 56.2665 21.6583 56.7005 21.6819 57.132C21.7926 58.8544 21.9431 60.5183 22.1296 62.0915C22.3149 63.6646 22.5375 65.147 22.7639 66.51C22.8223 66.8507 22.8795 67.184 22.9367 67.5098C22.9977 67.8344 23.0574 68.1528 23.1146 68.4624C23.2252 69.083 23.3484 69.6675 23.4615 70.2184C23.5697 70.7706 23.6928 71.2804 23.7936 71.7555C23.8943 72.2318 23.9988 72.6646 24.092 73.0575C24.138 73.254 24.1828 73.4393 24.2238 73.6147C24.2649 73.79 24.3022 73.9542 24.342 74.1046C24.4179 74.4081 24.4825 74.6667 24.5347 74.8757C24.6392 75.2948 24.6964 75.5186 24.6964 75.5186C24.6964 75.5186 24.628 75.2997 24.4987 74.8894C24.3706 74.4777 24.1753 73.8783 23.9577 73.1023C23.8458 72.7155 23.7202 72.2877 23.5971 71.8164C23.4715 71.3463 23.3309 70.8402 23.2004 70.2918C23.0661 69.7446 22.9193 69.1638 22.7838 68.5458C22.7141 68.2374 22.642 67.9215 22.5724 67.5957C22.5052 67.2698 22.438 66.9366 22.3684 66.5958C22.2963 66.2563 22.2316 65.9069 22.1669 65.5512C22.1023 65.1955 22.0301 64.8336 21.968 64.463C21.907 64.0924 21.8449 63.7156 21.7814 63.3339C21.7205 62.9508 21.6683 62.5603 21.6086 62.1661C21.386 60.5843 21.1907 58.9079 21.0626 57.1681C21.034 56.7328 20.9967 56.2939 20.9743 55.8524C20.9519 55.4097 20.9233 54.9645 20.9072 54.5155C20.8923 54.0666 20.8711 53.6151 20.8624 53.1612C20.8587 52.9349 20.8562 52.7073 20.8525 52.4785C20.8487 52.2509 20.845 52.0221 20.8475 51.7933C20.8425 49.9627 20.9022 48.1035 21.0315 46.2543C21.0974 45.3291 21.1882 44.4088 21.2865 43.4923C21.3934 42.5782 21.5066 41.6679 21.6446 40.7713C21.9108 38.9755 22.2565 37.2308 22.6457 35.5606C22.8385 34.7249 23.0449 33.9104 23.2626 33.1194C23.4827 32.3298 23.709 31.5612 23.944 30.82C24.4104 29.3364 24.9103 27.961 25.409 26.7162C25.6565 26.0919 25.9064 25.5012 26.1514 24.9453C26.3989 24.3906 26.6402 23.8683 26.874 23.3821C27.3415 22.4108 27.7818 21.5863 28.1573 20.921C28.5317 20.2532 28.85 19.7483 29.0689 19.4075C29.289 19.0668 29.4146 18.8927 29.4146 18.8927L29.4109 18.8952Z" fill="black"/>
<path opacity="0.2" d="M23.1492 17.0758C23.1492 17.0758 23.0236 17.2673 22.8034 17.6367C22.5808 18.006 22.2699 18.5594 21.8832 19.2695C21.5001 19.9833 21.0525 20.8626 20.5662 21.8885C20.0787 22.9145 19.5626 24.0934 19.0304 25.3967C18.7692 26.0508 18.4993 26.7348 18.2407 27.4511C18.1076 27.808 17.9808 28.1749 17.8465 28.5455C17.7196 28.9198 17.5841 29.2954 17.4597 29.6834C17.201 30.4544 16.9573 31.2565 16.7148 32.0786C16.481 32.9043 16.2397 33.7475 16.0246 34.6155C15.9114 35.047 15.8107 35.4885 15.7037 35.93C15.6503 36.1513 15.6043 36.3752 15.5533 36.599C15.5048 36.8229 15.4513 37.0467 15.4065 37.2743C15.3133 37.727 15.2163 38.1821 15.1329 38.6423C15.0894 38.8723 15.0446 39.1024 15.0011 39.3337C14.9601 39.565 14.919 39.7976 14.878 40.0313C14.5509 41.8943 14.3059 43.8106 14.1381 45.7382C13.964 47.6645 13.8657 49.6033 13.8595 51.516C13.8595 52.4723 13.8694 53.4224 13.8993 54.3601C13.9304 55.2977 13.9789 56.2255 14.046 57.1358C14.0634 57.3633 14.0821 57.5897 14.0995 57.816C14.1082 57.9292 14.1169 58.0411 14.1256 58.1543C14.1368 58.2662 14.1468 58.3781 14.158 58.49C14.1803 58.7126 14.2015 58.9353 14.2239 59.1566C14.245 59.378 14.2637 59.5981 14.291 59.8157C14.342 60.2522 14.393 60.6838 14.4427 61.1115C14.5012 61.5369 14.5584 61.9572 14.6156 62.3726C14.7424 63.1995 14.8668 64.0054 15.0098 64.7789C15.0434 64.9729 15.0782 65.1657 15.1118 65.3559C15.1454 65.5462 15.1852 65.734 15.2212 65.9205C15.2958 66.2936 15.368 66.6592 15.4389 67.0174C15.5172 67.3743 15.5943 67.7225 15.6689 68.0645C15.7075 68.2349 15.7423 68.404 15.7821 68.5694C15.8219 68.7348 15.8617 68.8989 15.9002 69.0606C15.9773 69.3839 16.0532 69.6998 16.1253 70.0057C16.2049 70.3104 16.282 70.6064 16.3566 70.8924C16.4325 71.1785 16.5021 71.4583 16.5767 71.7232C16.6514 71.9893 16.7247 72.2455 16.7944 72.4929C16.864 72.7392 16.9299 72.9767 16.9946 73.203C17.063 73.4281 17.1277 73.642 17.1898 73.8447C17.252 74.0474 17.3105 74.2402 17.3652 74.4218C17.4199 74.6033 17.4684 74.7737 17.5206 74.9304C17.6214 75.2438 17.7084 75.5111 17.7781 75.7275C17.9173 76.1603 17.992 76.3916 17.992 76.3916C17.992 76.3916 17.9049 76.1665 17.742 75.7437C17.6612 75.5323 17.5604 75.2711 17.4423 74.9652C17.3242 74.658 17.201 74.2999 17.058 73.9007C16.9871 73.7005 16.9125 73.4903 16.8342 73.2689C16.7608 73.0463 16.6825 72.8125 16.6029 72.5688C16.5233 72.3251 16.44 72.0714 16.3529 71.809C16.2671 71.5453 16.1875 71.2692 16.1005 70.9857C16.0146 70.7009 15.9263 70.4074 15.8356 70.1052C15.751 69.8005 15.6639 69.4872 15.5732 69.1663C15.5284 69.0059 15.4836 68.843 15.4376 68.6776C15.3928 68.5122 15.3531 68.3431 15.3095 68.1727C15.2237 67.8319 15.1367 67.4837 15.0471 67.1268C14.965 66.7687 14.8805 66.403 14.7947 66.03C14.7536 65.8434 14.7064 65.6556 14.6678 65.4641C14.628 65.2726 14.5882 65.0799 14.5484 64.8859C14.3818 64.1099 14.2425 63.299 14.0958 62.4671C13.8147 60.7994 13.5822 59.026 13.4267 57.1843C13.3471 56.2628 13.2862 55.3251 13.2427 54.375C13.2365 54.2556 13.2315 54.1375 13.2253 54.0181C13.2215 53.8987 13.2178 53.7793 13.2141 53.6599C13.2066 53.4211 13.1991 53.1811 13.1917 52.9411C13.183 52.7011 13.1842 52.4598 13.1817 52.2186C13.1805 51.9773 13.178 51.7348 13.1768 51.4923C13.1768 49.5523 13.2663 47.5849 13.4354 45.6313C13.6145 43.6776 13.8707 41.7376 14.2102 39.851C14.5447 37.9632 14.9626 36.1327 15.4314 34.3867C15.6615 33.5124 15.9127 32.663 16.1688 31.8373C16.4325 31.014 16.6949 30.2119 16.9722 29.4421C17.5169 27.8963 18.1002 26.4724 18.6685 25.1791C19.2393 23.887 19.8051 22.7304 20.3337 21.7269C20.8585 20.7195 21.3509 19.8702 21.7675 19.18C22.1841 18.4898 22.5323 17.9662 22.7736 17.613C23.0148 17.2599 23.1504 17.0795 23.1504 17.0795L23.1492 17.0758Z" fill="black"/>
<path opacity="0.2" d="M18.2555 18.4575C18.2555 18.4575 18.1125 18.6428 17.8538 19.0022C17.5952 19.3603 17.2258 19.8963 16.7644 20.5865C16.3056 21.2779 15.7633 22.1323 15.1614 23.1272C14.863 23.6271 14.5484 24.1606 14.2275 24.7326C13.9042 25.3022 13.5721 25.9066 13.2339 26.5433C13.0672 26.8642 12.8931 27.1875 12.7252 27.5245C12.6407 27.6924 12.5549 27.8615 12.4678 28.0331C12.3833 28.206 12.2987 28.3789 12.2116 28.5542C12.0388 28.9037 11.8709 29.2656 11.6955 29.6287C11.5264 29.9955 11.3511 30.3674 11.1819 30.7492C10.5017 32.2726 9.83637 33.9104 9.22203 35.644C9.14617 35.8603 9.06907 36.078 8.99321 36.2968C8.91984 36.517 8.84647 36.7383 8.7731 36.9609C8.73579 37.0716 8.69972 37.1835 8.66242 37.2942C8.6276 37.4061 8.59277 37.5193 8.55795 37.6312C8.48831 37.8563 8.41743 38.0826 8.34654 38.309C8.28063 38.5378 8.21348 38.7666 8.14632 38.9967C8.07917 39.2268 8.01201 39.4568 7.95108 39.6906C7.88766 39.9232 7.82423 40.157 7.76081 40.3908C7.69739 40.6246 7.64142 40.8621 7.58173 41.0984C7.45861 41.5697 7.3554 42.0497 7.24596 42.5297C7.18875 42.7685 7.14523 43.0123 7.09424 43.2548C7.04574 43.4973 6.99227 43.7385 6.94874 43.9835C6.86418 44.4722 6.76718 44.9597 6.69629 45.4547L6.58188 46.1946L6.48612 46.9383C6.22372 48.9218 6.09936 50.9327 6.10931 52.915V53.2869L6.1118 53.4722L6.11802 53.6574C6.12672 53.9037 6.13418 54.1499 6.14289 54.3961C6.14662 54.5193 6.14911 54.6411 6.15408 54.7642C6.16154 54.8861 6.16901 55.0092 6.17647 55.1311C6.19139 55.3749 6.20507 55.6186 6.21999 55.8611C6.22621 55.983 6.2374 56.1036 6.2486 56.2242C6.25979 56.3449 6.27098 56.4655 6.28093 56.5861C6.30331 56.8274 6.32446 57.0674 6.34684 57.3062C6.37544 57.5449 6.40529 57.7812 6.43389 58.0187C6.44881 58.1369 6.46249 58.255 6.47742 58.3732C6.4911 58.4913 6.50602 58.6082 6.52592 58.7251C6.79702 60.5955 7.18005 62.385 7.64515 64.0465C7.70609 64.2529 7.76578 64.4593 7.82548 64.6633C7.85532 64.7652 7.88517 64.8672 7.91501 64.968L7.95978 65.1197L8.00953 65.2689C8.14011 65.6656 8.2682 66.0574 8.39504 66.4416C8.53308 66.8209 8.66863 67.194 8.8017 67.5609C8.83528 67.6516 8.86637 67.7449 8.90243 67.8332C8.93849 67.9227 8.97456 68.011 9.01062 68.0993C9.08151 68.2759 9.15239 68.4513 9.22328 68.6241C9.29292 68.797 9.36256 68.9686 9.43096 69.139C9.50557 69.3056 9.57895 69.4698 9.65107 69.6327C9.79782 69.9573 9.93461 70.2794 10.0789 70.5853C10.2256 70.89 10.3699 71.1872 10.5092 71.4769C10.58 71.6212 10.6447 71.7655 10.7181 71.9022C10.7902 72.039 10.8611 72.1746 10.932 72.3077C11.0725 72.5738 11.2081 72.8325 11.3386 73.0812C11.4021 73.2068 11.4742 73.3237 11.5401 73.4418C11.606 73.56 11.6719 73.6744 11.7353 73.7875C11.8634 74.0139 11.9853 74.2303 12.1034 74.4379C12.2203 74.6456 12.3435 74.8346 12.4529 75.0187C12.5648 75.2015 12.6705 75.3756 12.77 75.5385C12.8707 75.7014 12.9603 75.8581 13.0511 75.9962C13.2326 76.2747 13.3868 76.511 13.5124 76.7038C13.7624 77.088 13.8967 77.2932 13.8967 77.2932C13.8967 77.2932 13.7525 77.098 13.4838 76.7324C13.3483 76.5496 13.1829 76.3232 12.9864 76.0571C12.7936 75.7885 12.5822 75.4689 12.3422 75.1157C12.2241 74.9379 12.0923 74.7551 11.9667 74.5536C11.8398 74.3521 11.708 74.142 11.5699 73.9218C11.4331 73.7017 11.2852 73.4766 11.1434 73.2329C11.0029 72.9892 10.8574 72.7355 10.7069 72.4743C10.631 72.3437 10.5552 72.2107 10.4781 72.0751C10.3997 71.9408 10.3288 71.7978 10.253 71.656C10.1025 71.3712 9.94705 71.0777 9.78787 70.7768C9.70579 70.6276 9.63491 70.4684 9.55781 70.3117C9.48195 70.1538 9.40484 69.9933 9.3265 69.8317C9.24815 69.67 9.1698 69.5058 9.09021 69.3404C9.0156 69.1713 8.94098 69.0009 8.86512 68.8281C8.78926 68.6552 8.7134 68.4811 8.63506 68.3045C8.59651 68.2162 8.55795 68.1279 8.51816 68.0384C8.47836 67.9489 8.44479 67.8568 8.40748 67.766C8.26198 67.3992 8.11399 67.0261 7.96352 66.6456C7.82672 66.2588 7.68744 65.8646 7.54567 65.4654L7.49219 65.3149L7.44369 65.162C7.41136 65.06 7.37902 64.9568 7.34669 64.8535C7.28202 64.6471 7.21611 64.4394 7.15145 64.2305C6.64406 62.5529 6.21253 60.7372 5.9178 58.8296C5.89666 58.7114 5.87925 58.5908 5.86432 58.4714C5.84816 58.3508 5.83199 58.2314 5.81582 58.1108C5.78349 57.8695 5.75116 57.627 5.71758 57.3845C5.69271 57.1408 5.66659 56.8958 5.64172 56.6495C5.62928 56.5264 5.61685 56.4033 5.60441 56.2802C5.59198 56.1571 5.5783 56.034 5.57084 55.9096C5.49373 54.9184 5.43653 53.9124 5.43528 52.8989C5.41787 50.873 5.53477 48.8174 5.79593 46.7928L5.89666 46.0342L6.01604 45.2806C6.09066 44.7769 6.19015 44.282 6.27969 43.7833C6.3257 43.5346 6.38042 43.2896 6.43016 43.0434C6.48239 42.7971 6.5284 42.5496 6.5881 42.3071C6.70126 41.8197 6.80946 41.3322 6.9363 40.8534C7.17259 39.8896 7.4524 38.9519 7.73594 38.0304C7.81055 37.8016 7.88392 37.574 7.95854 37.3464C7.99585 37.2333 8.03191 37.1189 8.06922 37.0057C8.10777 36.8938 8.14632 36.7818 8.18612 36.6699C8.26322 36.4461 8.34032 36.2235 8.41743 36.0009C8.49826 35.7808 8.57785 35.5619 8.65744 35.343C9.29541 33.5958 10.008 31.9617 10.7255 30.4445C11.4406 28.9248 12.1855 27.537 12.8993 26.2797C13.6144 25.0224 14.3121 23.9069 14.95 22.9356C15.588 21.9656 16.1712 21.1461 16.6612 20.4808C17.1512 19.8155 17.5541 19.3131 17.8302 18.9723C18.1075 18.6328 18.2605 18.4575 18.2605 18.4575H18.2555Z" fill="black"/>
<g opacity="0.09">
<path d="M12.4378 29.2096C13.2412 30.9108 14.6725 32.1308 16.2183 32.8098C17.7641 33.4888 19.4243 33.6704 21.0584 33.6878C25.2058 33.7326 29.3333 32.7427 33.0902 30.8039C34.3487 30.1547 35.5699 29.3961 36.6593 28.4187C37.7537 27.435 38.6988 26.2449 39.6377 25.0597C41.1549 23.1446 42.6721 21.2307 44.1905 19.3155C45.0424 18.2398 45.9253 17.1007 46.2251 15.6619C46.5571 14.0688 46.0609 12.2494 44.9926 11.1414C43.6831 9.78338 41.8103 9.59435 40.0904 9.57073C35.3647 9.5073 30.6055 10.1938 26.2367 12.1674C21.868 14.1409 17.8984 17.4576 15.2931 22.0054C14.7297 22.9891 14.2311 24.025 13.7349 25.0585C13.0335 26.5185 11.6021 27.5196 12.4403 29.2096" fill="white"/>
</g>
</g>
<defs>
<clipPath id="clip0_236_173618">
<rect width="64.5028" height="92" fill="white" transform="translate(0.709961)"/>
</clipPath>
</defs>
</svg>
