<svg width="101" height="92" viewBox="0 0 101 92" fill="none" xmlns="http://www.w3.org/2000/svg">
<g clip-path="url(#clip0_236_173128)">
<path d="M51.3451 8.99579H49.7149H26.3252V13.6175H49.7149H51.3451H74.7348V8.99579H51.3451Z" fill="#6B7CAF"/>
<path style="mix-blend-mode:color-burn" d="M51.3451 8.99579H49.7149H26.3252V11.1213H49.7149H51.3451H74.7348V8.99579H51.3451Z" fill="url(#paint0_linear_236_173128)"/>
<path d="M93.4301 80.5156C90.8852 83.1698 88.0684 85.1814 85.0709 86.7128C78.512 90.0705 71.0841 91.1203 63.7216 91.6004C63.6942 91.608 63.6745 91.608 63.6487 91.608C59.5222 91.8815 55.3897 91.9924 51.2572 92C47.6686 92.0076 44.0937 91.8967 40.5127 91.6825C38.925 91.5944 37.3434 91.4759 35.7557 91.3497C35.4899 91.327 35.2179 91.3057 34.952 91.2829L30.2938 90.8909C29.0586 90.78 27.9419 90.4397 26.7387 90.2771C22.3327 89.6785 18.068 88.1774 14.2135 85.8104C11.8479 84.3685 9.63584 82.594 7.63492 80.5156C2.97673 75.6644 -0.6377 69.1421 0.87097 61.1262C4.08126 44.0295 22.2202 18.5462 25.5825 13.9396C25.8088 13.6221 26.1476 13.4443 26.5123 13.4443H74.5451C74.9113 13.4443 75.2501 13.6221 75.4825 13.9396C77.1036 16.1654 82.1796 23.2727 87.3498 31.954C92.8907 41.2279 98.5319 52.2975 100.194 61.1277C101.695 69.1436 98.0807 75.666 93.4301 80.5171V80.5156Z" fill="url(#paint1_linear_236_173128)"/>
<path d="M50.5314 90.0644C68.513 90.0644 83.0901 86.5464 83.0901 82.2066C83.0901 77.8668 68.513 74.3488 50.5314 74.3488C32.5497 74.3488 17.9727 77.8668 17.9727 82.2066C17.9727 86.5464 32.5497 90.0644 50.5314 90.0644Z" fill="#6B7CAF"/>
<g style="mix-blend-mode:lighten" opacity="0.15">
<path d="M35.7559 91.3497C35.49 91.3269 35.2181 91.3057 34.9522 91.2829L30.294 90.8909C29.0588 90.78 27.9421 90.4397 26.7388 90.2771C26.3408 90.2254 25.9412 90.1586 25.5432 90.0917C22.2144 89.5144 18.9843 88.4129 15.9624 86.8085C15.3714 86.4986 14.7865 86.1658 14.2152 85.8103C8.11521 72.0849 6.74023 55.4911 6.74023 55.4911C6.74023 55.4911 40.1285 23.5082 30.6602 61.5926C27.2311 75.3909 30.3609 84.8714 35.7559 91.3497Z" fill="white"/>
</g>
<g style="mix-blend-mode:lighten" opacity="0.15">
<path d="M92.9516 55.4911C92.9516 55.4911 91.5098 72.8248 85.071 86.7128C78.5121 90.0704 71.0842 91.1203 63.7217 91.6004C69.2428 85.1145 72.5063 75.5763 69.0301 61.5911C59.5618 23.5067 92.9501 55.4896 92.9501 55.4896L92.9516 55.4911Z" fill="white"/>
</g>
<g style="mix-blend-mode:lighten" opacity="0.65">
<path d="M25.5434 90.0917C22.2146 89.5144 18.9846 88.4129 15.9627 86.8085C12.9256 78.1713 10.5813 67.448 10.7272 66.9527C10.7272 66.9527 18.4817 57.0955 18.9192 69.9108C19.138 76.263 22.3544 83.9538 25.5434 90.0917Z" fill="white"/>
</g>
<path d="M91.994 76.5152C90.5522 77.9646 89.0177 79.2074 87.4087 80.2725C80.2923 84.9899 71.7478 86.2038 63.4083 86.7356C61.0169 86.883 58.5511 86.9863 55.9591 87.0455C54.4368 87.082 52.8689 87.0972 51.2417 87.1048H50.5048C45.6947 87.0972 40.6977 86.8754 35.2495 86.4241L30.6445 86.0473C30.02 85.9957 29.4154 85.8696 28.7773 85.7435C28.2728 85.6402 27.7472 85.5369 27.1957 85.4624C20.3451 84.5675 14.1661 81.5578 9.2952 76.7431C9.2162 76.6687 9.13567 76.5881 9.06275 76.5137C8.97615 76.4317 8.90322 76.3435 8.82422 76.2615C3.66162 70.9515 1.62119 65.2572 2.7713 59.3273C5.49542 45.3072 19.3819 25.1627 25.0762 17.3459C26.0258 16.0438 27.4084 15.2006 28.9231 14.9788C29.1829 14.9423 29.4473 14.9196 29.7131 14.9196H71.3406C71.494 14.9196 71.646 14.9272 71.7994 14.9423C73.1212 15.0457 74.364 15.6382 75.3348 16.5908C75.4473 16.7017 75.5536 16.8202 75.66 16.9387C75.7724 17.0724 75.8787 17.2046 75.9851 17.3459C81.6734 25.1627 95.5598 45.3057 98.2839 59.3273C99.4538 65.3468 97.3344 71.1293 91.991 76.5137L91.994 76.5152Z" fill="url(#paint2_linear_236_173128)"/>
<g style="mix-blend-mode:soft-light" opacity="0.8">
<path d="M91.9944 76.5153C84.1609 84.405 73.6291 86.0838 63.4102 86.7356C59.6089 86.9726 55.636 87.0911 51.2437 87.1048H50.5068C45.6967 87.0972 40.6997 86.8754 35.2514 86.4242L30.6464 86.0474C30.022 85.9957 29.4173 85.8696 28.7792 85.7435C28.2748 85.6402 27.7491 85.5369 27.1976 85.4624C20.3471 84.5676 14.168 81.5578 9.29716 76.7431C9.21815 76.6687 9.13763 76.5882 9.0647 76.5137C8.9781 76.4317 8.90518 76.3436 8.82617 76.2615C8.97203 76.3952 9.11788 76.5274 9.26525 76.6459C13.9158 80.7571 19.6178 83.346 25.8697 84.1665C26.4212 84.2409 26.9454 84.3442 27.4513 84.4475C28.0894 84.5736 28.6941 84.6998 29.3186 84.7514L33.9236 85.1282C39.4584 85.587 44.5283 85.8088 49.4114 85.8088H49.9158C54.3081 85.7936 58.2811 85.6751 62.0824 85.4396C72.3012 84.7894 82.833 83.1105 90.6666 75.2193C96.0085 69.8364 98.1279 64.0524 96.9595 58.0329C94.2354 44.0128 80.349 23.8683 74.6607 16.0515C74.6349 16.0226 74.6136 15.9998 74.5878 15.9694C74.8476 16.1548 75.0998 16.3614 75.3383 16.5908C75.4507 16.7017 75.5571 16.8202 75.6634 16.9387C75.7759 17.0724 75.8822 17.2046 75.9886 17.3459C81.6768 25.1627 95.5633 45.3057 98.2874 59.3274C99.4573 65.3468 97.3378 71.1293 91.9944 76.5137V76.5153Z" fill="#FFFFEE"/>
</g>
<path style="mix-blend-mode:color-burn" d="M51.2083 76.7826C71.2541 76.7826 87.5045 66.1053 87.5045 52.9341C87.5045 39.7629 71.2541 29.0856 51.2083 29.0856C31.1625 29.0856 14.9121 39.7629 14.9121 52.9341C14.9121 66.1053 31.1625 76.7826 51.2083 76.7826Z" fill="url(#paint3_linear_236_173128)"/>
<path d="M50.4642 75.827C70.51 75.827 86.7604 65.1497 86.7604 51.9785C86.7604 38.8073 70.51 28.1299 50.4642 28.1299C30.4183 28.1299 14.168 38.8073 14.168 51.9785C14.168 65.1497 30.4183 75.827 50.4642 75.827Z" fill="url(#paint4_linear_236_173128)"/>
<path d="M50.4637 72.6836C68.0871 72.6836 82.3736 63.4136 82.3736 51.9785C82.3736 40.5434 68.0871 31.2734 50.4637 31.2734C32.8403 31.2734 18.5537 40.5434 18.5537 51.9785C18.5537 63.4136 32.8403 72.6836 50.4637 72.6836Z" fill="url(#paint5_linear_236_173128)"/>
<g style="mix-blend-mode:soft-light" opacity="0.8">
<path d="M21.2405 52.7184C21.2405 39.5475 34.5527 28.8698 50.9748 28.8698C62.6036 28.8698 72.666 34.2269 77.5536 42.0301C72.8513 33.8289 62.5246 28.1299 50.5312 28.1299C34.109 28.1299 20.7969 38.8076 20.7969 51.9785C20.7969 55.8223 21.9379 59.4504 23.9525 62.6668C22.2159 59.6373 21.2405 56.2705 21.2405 52.7184Z" fill="#FFFFEE"/>
</g>
<g style="mix-blend-mode:lighten" opacity="0.65">
<path d="M20.2256 29.4517C20.0235 30.968 20.1162 32.776 21.2374 33.6648C22.111 34.3591 23.3219 34.2284 24.3262 33.8076C26.7373 32.7988 28.4404 30.4423 30.4034 28.5842C33.6456 25.5167 37.7356 23.7407 41.8909 22.7121C46.0446 21.6835 50.3078 21.3523 54.5391 20.8525C55.7606 20.7081 57.2526 20.2949 57.5321 18.964C57.7296 18.025 57.1462 17.0557 56.3865 16.5923C55.6269 16.1289 54.7305 16.056 53.866 15.9983C47.2221 15.5577 40.5599 15.4863 33.9099 15.7856C30.3654 15.9451 27.576 16.8202 24.9536 19.5322C22.4453 22.1272 20.7285 25.6732 20.224 29.4487L20.2256 29.4517Z" fill="white"/>
</g>
<g style="mix-blend-mode:lighten" opacity="0.65">
<path d="M8.30486 73.4964C8.8503 74.2211 9.47473 74.9154 10.2632 75.2664C11.0533 75.6158 12.0424 75.549 12.6486 74.885C13.2684 74.2059 13.3338 73.0862 13.0633 72.1655C12.7944 71.2448 12.2505 70.4593 11.7674 69.6541C8.11039 63.5556 7.74728 55.1979 10.8603 48.7348C11.2143 47.9994 11.5228 46.8873 10.8573 46.4999C10.2177 46.1261 9.57045 46.9708 9.24228 47.6864C5.43642 55.9864 2.06052 65.2921 8.30335 73.4964H8.30486Z" fill="white"/>
</g>
<path style="mix-blend-mode:overlay" opacity="0.35" d="M50.5071 87.1048C45.697 87.0972 40.7 86.8754 35.2518 86.4241L30.6468 86.0473C30.0223 85.9957 29.4177 85.8696 28.7795 85.7435C28.2751 85.6402 27.7495 85.5368 27.1979 85.4624C20.3474 84.5675 14.1684 81.5578 9.29749 76.7431C9.28382 76.7142 9.27774 76.6763 9.26407 76.6474C5.88817 67.3219 5.56304 56.6442 9.22457 47.5041C12.1675 40.1613 17.3316 34.2603 21.8363 27.9734C24.448 24.3423 26.8667 20.4604 28.5137 16.1715C28.6595 15.7795 28.7993 15.3875 28.9254 14.9803C29.8491 12.0298 30.2745 8.71014 31.6237 6.03313C35.0862 -0.83717 42.6204 4.15527 42.1084 11.1213C42.0157 12.4294 41.7164 13.6874 41.3108 14.9226C40.7 16.7564 39.8416 18.5157 39.0181 20.2462C34.9981 28.692 31.5037 37.6468 30.5662 47.141C29.6228 56.6442 31.5097 66.8266 37.1904 73.9917C40.1743 77.7626 44.0273 80.514 47.4503 83.7896C48.1218 84.4262 48.7797 85.0993 49.4102 85.8088C49.7824 86.2296 50.1546 86.6596 50.5071 87.1032V87.1048Z" fill="url(#paint6_linear_236_173128)"/>
<path style="mix-blend-mode:color-burn" opacity="0.35" d="M94.1609 63.0785C93.7826 69.2317 91.1648 75.1403 87.4106 80.271C80.2942 84.9884 71.7496 86.2024 63.4102 86.7341C61.0188 86.8815 58.5529 86.9848 55.961 87.044C56.6523 85.2695 57.769 83.5755 58.7657 81.9863C69.1516 65.4061 69.1182 41.6031 58.6927 25.0594C56.8194 22.0786 54.3536 18.5523 53.556 14.9211C53.0044 12.4143 53.243 9.85575 55.0175 7.39296C58.0804 3.14042 63.5955 2.65273 66.6721 6.80195C68.5728 9.37565 70.1544 12.1712 71.8013 14.9439C73.1307 17.1621 74.4996 19.3803 76.1268 21.4374C80.0466 26.3995 84.6652 32.9811 88.2523 40.1173C92.0005 47.571 94.6243 55.6248 94.1594 63.0785H94.1609Z" fill="url(#paint7_linear_236_173128)"/>
<g style="mix-blend-mode:lighten" opacity="0.15">
<path d="M93.4301 80.5156C90.8853 83.1698 88.0685 85.1814 85.0709 86.7128C78.512 90.0705 71.0842 91.1203 63.7216 91.6004C63.6943 91.608 63.6745 91.608 63.6487 91.608C59.5222 91.8815 55.3897 91.9924 51.2572 92C47.6686 92.0076 44.0937 91.8967 40.5127 91.6825C40.7588 91.5792 40.9974 91.4759 41.2435 91.3786C48.1867 88.6135 55.7012 87.948 62.6186 85.1084C72.5457 81.0489 80.8913 72.4268 85.276 61.7187C87.3696 56.6017 88.5455 51.0259 88.7916 45.4136C88.898 43.01 88.8388 40.5928 88.5987 38.1953C88.4194 36.3099 87.5489 33.9428 87.3498 31.954C92.8907 41.2279 98.5319 52.2975 100.194 61.1277C101.695 69.1436 98.0807 75.666 93.4301 80.5171V80.5156Z" fill="white"/>
</g>
<path d="M77.7021 2.9353L77.1369 8.05232C76.9911 9.36197 75.9868 10.345 74.7911 10.345L72.6185 10.3374L62.7187 10.3085L50.5324 10.2644L46.4059 10.2796L39.8471 10.3024L31.1491 10.3313L27.8734 10.3389L26.266 10.3465C25.0764 10.3465 24.0661 9.36348 23.9202 8.05384L23.355 2.93682C23.1818 1.3765 24.2727 0.00152588 25.6872 0.00152588H75.3684C76.7844 0.00152588 77.8798 1.3765 77.7006 2.93682L77.7021 2.9353Z" fill="url(#paint8_linear_236_173128)"/>
<path style="mix-blend-mode:color-burn" d="M50.5313 8.90918L24.2002 8.98666C24.6043 9.80405 25.3837 10.3464 26.2664 10.3434L50.5313 10.2644L74.7961 10.3434C75.6788 10.3464 76.4582 9.80253 76.8623 8.98666L50.5313 8.90918Z" fill="url(#paint9_linear_236_173128)"/>
<g style="mix-blend-mode:soft-light" opacity="0.8">
<path d="M47.2568 0L46.4059 10.2796L39.8471 10.3024L31.1491 10.3313L27.8735 10.3389C27.401 7.03286 26.8297 2.92922 26.4453 0H47.2552H47.2568Z" fill="#FFFFEE"/>
</g>
<g style="mix-blend-mode:soft-light" opacity="0.8">
<path d="M30.4795 -6.57386e-06H40.2471L39.849 10.3009L31.151 10.3297C30.9246 7.02374 30.6588 2.92769 30.4795 -0.00152588V-6.57386e-06Z" fill="#FFFFEE"/>
</g>
<path style="mix-blend-mode:color-burn" d="M73.6625 0L72.6187 10.3389L62.7189 10.3085L62.3467 0H73.6625Z" fill="url(#paint10_linear_236_173128)"/>
</g>
<defs>
<linearGradient id="paint0_linear_236_173128" x1="26.3252" y1="10.0593" x2="74.7348" y2="10.0593" gradientUnits="userSpaceOnUse">
<stop stop-color="#CCCCCC"/>
<stop offset="1" stop-color="#999999"/>
</linearGradient>
<linearGradient id="paint1_linear_236_173128" x1="50.531" y1="92" x2="50.531" y2="13.4443" gradientUnits="userSpaceOnUse">
<stop stop-color="#B0BEEA"/>
<stop offset="0.99" stop-color="#94A1D3"/>
</linearGradient>
<linearGradient id="paint2_linear_236_173128" x1="2.46137" y1="51.0137" x2="98.5984" y2="51.0137" gradientUnits="userSpaceOnUse">
<stop stop-color="#DD8317"/>
<stop offset="0.03" stop-color="#E79A2D"/>
<stop offset="0.06" stop-color="#F0B041"/>
<stop offset="0.1" stop-color="#F6C04F"/>
<stop offset="0.14" stop-color="#FAC958"/>
<stop offset="0.2" stop-color="#FCCC5B"/>
<stop offset="0.33" stop-color="#FAC857"/>
<stop offset="0.45" stop-color="#F7BC4E"/>
<stop offset="0.56" stop-color="#F2A93E"/>
<stop offset="0.58" stop-color="#F1A53B"/>
<stop offset="0.72" stop-color="#EEA137"/>
<stop offset="0.86" stop-color="#E8962B"/>
<stop offset="0.99" stop-color="#DD8418"/>
<stop offset="1" stop-color="#DD8317"/>
</linearGradient>
<linearGradient id="paint3_linear_236_173128" x1="14.9106" y1="52.9341" x2="87.5045" y2="52.9341" gradientUnits="userSpaceOnUse">
<stop stop-color="#CCCCCC"/>
<stop offset="1" stop-color="#999999"/>
</linearGradient>
<linearGradient id="paint4_linear_236_173128" x1="14.168" y1="51.9785" x2="86.7619" y2="51.9785" gradientUnits="userSpaceOnUse">
<stop stop-color="#202D4C"/>
<stop offset="0.05" stop-color="#253255"/>
<stop offset="0.16" stop-color="#2F3D65"/>
<stop offset="0.29" stop-color="#35436E"/>
<stop offset="0.45" stop-color="#374572"/>
<stop offset="1" stop-color="#202D4C"/>
</linearGradient>
<linearGradient id="paint5_linear_236_173128" x1="50.4637" y1="72.6851" x2="50.4637" y2="31.2734" gradientUnits="userSpaceOnUse">
<stop stop-color="#EDB77D"/>
<stop offset="1" stop-color="#FFD8B0"/>
</linearGradient>
<linearGradient id="paint6_linear_236_173128" x1="28.5547" y1="99.3063" x2="28.5547" y2="14.953" gradientUnits="userSpaceOnUse">
<stop stop-color="#E6E6E6"/>
<stop offset="1" stop-color="white"/>
</linearGradient>
<linearGradient id="paint7_linear_236_173128" x1="53.2931" y1="45.4911" x2="94.2141" y2="45.4911" gradientUnits="userSpaceOnUse">
<stop stop-color="#CCCCCC"/>
<stop offset="1" stop-color="#999999"/>
</linearGradient>
<linearGradient id="paint8_linear_236_173128" x1="23.3383" y1="5.17324" x2="77.7218" y2="5.17324" gradientUnits="userSpaceOnUse">
<stop stop-color="#202D4C"/>
<stop offset="0.05" stop-color="#253255"/>
<stop offset="0.16" stop-color="#2F3D65"/>
<stop offset="0.29" stop-color="#35436E"/>
<stop offset="0.45" stop-color="#374572"/>
<stop offset="1" stop-color="#202D4C"/>
</linearGradient>
<linearGradient id="paint9_linear_236_173128" x1="24.1987" y1="9.62781" x2="76.8624" y2="9.62781" gradientUnits="userSpaceOnUse">
<stop stop-color="#CCCCCC"/>
<stop offset="1" stop-color="#999999"/>
</linearGradient>
<linearGradient id="paint10_linear_236_173128" x1="62.3467" y1="5.16868" x2="73.6625" y2="5.16868" gradientUnits="userSpaceOnUse">
<stop stop-color="#CCCCCC"/>
<stop offset="1" stop-color="#999999"/>
</linearGradient>
<clipPath id="clip0_236_173128">
<rect width="100.014" height="92" fill="white" transform="translate(0.524414)"/>
</clipPath>
</defs>
</svg>
