<svg width="70" height="92" viewBox="0 0 70 92" fill="none" xmlns="http://www.w3.org/2000/svg">
<g clip-path="url(#clip0_251_177407)">
<path d="M61.8379 23.8586C63.0398 25.4421 64.4623 26.9009 65.7617 28.408L61.8379 23.8586Z" fill="#6A1205"/>
<path d="M64.5207 86.8314C64.3765 86.9138 64.229 86.9962 64.0762 87.0775C64.229 86.9962 64.3765 86.9144 64.5207 86.8314Z" fill="#6A1205"/>
<path d="M63.8863 87.1763C63.7308 87.2565 63.5719 87.3357 63.4082 87.4148C63.5719 87.3362 63.7308 87.2565 63.8863 87.1763Z" fill="#6A1205"/>
<path d="M65.2319 86.3999C65.0568 86.5148 64.8725 86.6281 64.6816 86.7404C64.8725 86.6281 65.0573 86.5148 65.2319 86.3999Z" fill="#6A1205"/>
<path d="M62.5306 87.8143C61.7755 88.1385 60.9498 88.4481 60.0586 88.7424C60.9493 88.4481 61.776 88.1385 62.5306 87.8143Z" fill="#6A1205"/>
<path d="M63.2277 87.501C63.0391 87.5893 62.845 87.6772 62.6455 87.7639C62.8445 87.6772 63.0385 87.5899 63.2277 87.501Z" fill="#6A1205"/>
<path d="M2.28321 83.8568C4.16002 88.4394 18.0691 91.9994 34.9582 91.9994C44.4919 91.9994 53.0704 90.8643 59.076 89.0519C56.5296 89.8196 53.5214 90.4658 50.1733 90.9553C50.2167 90.6219 50.259 90.2901 50.3007 89.9562C50.3007 89.9562 50.3007 89.9551 50.3007 89.9546C47.9777 90.3498 45.6363 90.6235 43.2911 90.829C40.5177 91.0578 37.7355 91.157 34.9544 91.1711C32.1728 91.1543 29.3912 91.0583 26.6178 90.8258C23.8459 90.584 21.0795 90.2452 18.3429 89.7231C15.6074 89.2027 12.893 88.5261 10.2751 87.5497C8.97131 87.0526 7.68812 86.4812 6.49655 85.7418C5.90618 85.3661 5.32828 84.9638 4.82249 84.4754C4.32266 83.9897 3.87866 83.4248 3.63417 82.7731L3.42708 82.7374C0.616743 69.3899 2.38459 44.137 3.13705 35.2284C3.31215 33.1548 4.13996 31.1918 5.49905 29.6164L9.74274 24.6967C9.1643 24.4202 8.63682 24.134 8.16301 23.8385L4.22236 28.4075C2.80419 30.0517 1.94059 32.0993 1.7579 34.2629C0.972914 43.5575 -0.870827 69.9033 2.0604 83.8286L2.28321 83.8568Z" fill="#6A1205"/>
<path d="M3.647 82.7563L3.64971 82.7618C3.94788 83.3885 4.42873 83.8964 4.9535 84.3296C5.47773 84.7681 6.06972 85.1194 6.66985 85.4436C7.87931 86.0844 9.16359 86.5772 10.4723 86.9865C11.7782 87.405 13.1097 87.7476 14.4519 88.0393C15.7942 88.3304 17.1446 88.5868 18.5032 88.7977C21.2224 89.2048 23.958 89.5171 26.7043 89.6916C29.4496 89.8836 32.2019 89.9741 34.9548 89.9676C37.7071 89.9714 40.46 89.8852 43.2048 89.69C45.6226 89.5382 48.0301 89.2715 50.4268 88.9338C50.4523 88.7202 50.4778 88.5077 50.5033 88.2941C45.9462 89.0021 40.6476 89.4076 34.9922 89.4076C17.9573 89.4076 4.14846 85.7282 4.14846 81.1896C4.14846 80.2474 4.74587 79.3421 5.84149 78.4991C5.84149 78.4991 5.84149 78.4986 5.84149 78.498C5.50863 77.6756 5.32485 76.767 5.32485 75.8189V41.5619C5.32485 38.7923 6.85742 36.4866 8.97005 35.5097C8.97168 35.5092 8.9733 35.5087 8.97493 35.5076C7.50633 34.8841 6.52781 33.7874 6.52781 32.5351C6.52781 30.5917 8.87681 27.5601 11.7739 27.5601C14.671 27.5601 17.0199 30.5917 17.0199 32.5351C17.0199 33.8368 15.9639 34.9703 14.3977 35.5791L14.4042 35.5808L30.2357 39.0845C30.5864 39.162 30.9242 39.2731 31.2473 39.4141C31.2484 39.4141 31.2489 39.4152 31.25 39.4157C31.1708 39.1202 31.1275 38.8167 31.1275 38.506C31.1275 35.6816 34.5412 31.2753 38.7529 31.2753C42.9646 31.2753 46.3783 35.6816 46.3783 38.506C46.3783 41.3305 42.9641 43.6204 38.7529 43.6204C37.1471 43.6204 35.6579 43.287 34.429 42.7183C34.429 42.7183 34.429 42.7194 34.4295 42.7199C34.7916 43.571 34.9922 44.5186 34.9922 45.5102V52.4314C34.9922 49.607 38.4059 45.2006 42.6176 45.2006C46.8293 45.2006 50.2425 49.607 50.2425 52.4314C50.2425 55.2558 46.8288 57.5457 42.6176 57.5457C38.4065 57.5457 34.9922 55.2558 34.9922 52.4314V67.1705C34.9922 64.346 38.4059 59.9397 42.6176 59.9397C46.8293 59.9397 50.2425 64.3455 50.2425 67.1705C50.2425 69.9954 46.8288 72.2848 42.6176 72.2848C38.4065 72.2848 34.9922 69.9949 34.9922 67.1705V72.9727C40.5999 72.9727 45.8579 73.3717 50.3894 74.0684C50.8226 73.7984 51.2807 73.5685 51.7588 73.3902C51.7588 73.3902 51.7588 73.3902 51.7588 73.3896C51.8911 70.7381 51.9735 68.0861 52.0044 65.4319V65.4292C51.3826 64.6887 51.0264 63.8343 51.0264 62.9241C51.0264 62.0139 51.3788 60.9513 51.9936 59.918V59.9153C51.909 54.5321 51.6065 49.1516 51.0682 43.7824C51.0682 43.7814 51.0682 43.7797 51.0682 43.7787C50.5418 43.0842 50.2436 42.2987 50.2436 41.466C50.2436 40.9179 50.3737 40.3096 50.6117 39.6857C50.6117 39.6846 50.6117 39.684 50.6117 39.683C50.1872 36.228 49.6635 32.7807 49.0352 29.3415C48.9452 28.8471 48.8525 28.3532 48.7582 27.8599C48.7582 27.8599 48.7582 27.8599 48.7582 27.8594C44.6441 28.4969 39.9618 28.858 34.9933 28.858C24.3228 28.858 14.9702 27.1942 9.74365 24.6978L5.49996 29.6175C4.14087 31.1934 3.31306 33.1559 3.13795 35.2295C2.38549 44.1381 0.617651 69.3904 3.42799 82.7384L3.64266 82.7563H3.64754H3.647Z" fill="#81160D"/>
<path d="M50.8811 84.8684C48.2269 84.0683 46.3777 82.2809 46.3777 80.2024C46.3777 78.2552 48.0008 75.556 50.3889 74.0673C45.8578 73.3707 40.5999 72.9717 34.9917 72.9717V79.766C34.9917 83.4546 32.2735 86.3202 29.0875 86.3202C28.7026 86.3202 28.3106 86.2785 27.9159 86.1912L26.8962 85.9657H26.894C25.8722 86.3061 24.7207 86.4991 23.502 86.4991C20.5404 86.4991 17.9751 85.3661 16.7125 83.7116H16.7093L10.0814 82.244C8.15577 81.8179 6.60531 80.3846 5.84147 78.4991C4.74531 79.3421 4.14844 80.2474 4.14844 81.1896C4.14844 85.7282 17.9578 89.4076 34.9922 89.4076C40.6476 89.4076 45.9462 89.0015 50.5033 88.2941C50.6377 87.1529 50.7635 86.0129 50.8806 84.8706C50.8806 84.8706 50.8806 84.8695 50.8806 84.869L50.8811 84.8684ZM40.2388 85.4366C37.3412 85.4366 34.9927 83.8612 34.9927 81.9177C34.9927 79.9742 37.3417 76.9427 40.2388 76.9427C43.1359 76.9427 45.4854 79.9742 45.4854 81.9177C45.4854 83.8612 43.1364 85.4366 40.2388 85.4366Z" fill="#8E1812"/>
<path d="M64.4795 21.0537C64.4795 21.0537 64.4795 21.0526 64.48 21.0521C64.4621 21.0618 64.4437 21.0716 64.4258 21.0813C64.4431 21.0721 64.4621 21.0634 64.4795 21.0542V21.0537Z" fill="#FBDDC3"/>
<path d="M61.8223 23.838C62.0506 23.6954 62.2663 23.5507 62.4691 23.4037C62.2138 23.5718 61.979 23.6981 61.7871 23.7908C61.799 23.8065 61.811 23.8223 61.8229 23.838H61.8223Z" fill="#FBDDC3"/>
<path d="M34.9924 28.8569C39.9609 28.8569 44.6431 28.4958 48.7573 27.8583C48.587 26.9698 48.4103 26.0829 48.2276 25.1976C48.2574 25.1943 48.2856 25.19 48.3154 25.1867C47.5543 25.2767 46.7737 25.3564 45.9832 25.4312C45.8976 25.4394 45.8119 25.4475 45.7257 25.4556C45.3848 25.4871 45.0421 25.5169 44.6963 25.5456C44.6252 25.5516 44.5531 25.557 44.4821 25.5624C41.5373 25.7988 38.4213 25.93 35.1913 25.9349C35.1382 25.9349 35.0856 25.9359 35.0325 25.9359C35.0189 25.9359 35.0059 25.9359 34.9924 25.9359C25.8387 25.9359 17.5633 24.9384 11.6033 23.33C11.58 23.3246 11.5572 23.3181 11.5339 23.3116C11.3702 23.2671 11.2091 23.2221 11.0487 23.1766C10.9712 23.1543 10.8936 23.1327 10.8172 23.1104C10.6649 23.0665 10.5136 23.0221 10.364 22.9771C10.2805 22.9521 10.1986 22.9267 10.1162 22.9012C9.97637 22.8578 9.83596 22.815 9.69881 22.7711C9.60502 22.7412 9.51395 22.7103 9.42179 22.68C9.29818 22.6393 9.1735 22.5987 9.05206 22.5575C8.87859 22.4984 8.7089 22.4382 8.54085 22.3775C8.44435 22.3428 8.35002 22.3076 8.25569 22.2723C8.11366 22.2197 7.97217 22.1666 7.83447 22.1129C7.76128 22.0842 7.69026 22.0555 7.61871 22.0267C7.49239 21.9763 7.36716 21.9259 7.24519 21.8749C7.17254 21.8446 7.10153 21.8137 7.03051 21.7833C6.96274 21.7541 6.89335 21.7259 6.82721 21.6966V21.6939C6.35503 21.4852 5.91104 21.2716 5.50391 21.0526C5.86604 22.0397 6.78385 22.9782 8.16299 23.839C8.63626 24.1345 9.16428 24.4207 9.74272 24.6972C14.9693 27.1937 24.3219 28.8574 34.9924 28.8574V28.8569Z" fill="#FBDDC3"/>
<path d="M46.3779 80.2025C46.3779 82.281 48.2271 84.0678 50.8813 84.8685C51.2732 81.0493 51.5682 77.2203 51.759 73.3892C51.2808 73.5675 50.8227 73.7979 50.3896 74.0673C48.0016 75.556 46.3785 78.2547 46.3785 80.2025H46.3779Z" fill="#751409"/>
<path d="M42.6176 72.2843C46.8288 72.2843 50.2425 69.9944 50.2425 67.17C50.2425 64.3455 46.8288 59.9392 42.6176 59.9392C38.4064 59.9392 34.9922 64.345 34.9922 67.17C34.9922 69.9949 38.4059 72.2843 42.6176 72.2843Z" fill="#751409"/>
<path d="M50.2432 41.4649C50.2432 42.2976 50.5419 43.0826 51.0677 43.7776C50.9311 42.4136 50.7788 41.047 50.6113 39.6846C50.3733 40.3086 50.2432 40.9163 50.2432 41.4649Z" fill="#751409"/>
<path d="M51.9935 59.9169C51.3782 60.9502 51.0264 62.0176 51.0264 62.923C51.0264 63.8283 51.3825 64.6876 52.0043 65.4281C52.0255 63.5914 52.0222 61.7536 51.9935 59.9169Z" fill="#751409"/>
<path d="M42.6176 57.5447C46.8288 57.5447 50.2425 55.2548 50.2425 52.4303C50.2425 49.6059 46.8288 45.1996 42.6176 45.1996C38.4064 45.1996 34.9922 49.6059 34.9922 52.4303C34.9922 55.2548 38.4059 57.5447 42.6176 57.5447Z" fill="#751409"/>
<path d="M12.4001 35.1368L14.3973 35.5786C15.9634 34.9698 17.0195 33.8363 17.0195 32.5346C17.0195 30.5912 14.6705 27.5596 11.7734 27.5596C8.87634 27.5596 6.52734 30.5912 6.52734 32.5346C6.52734 33.7869 7.50587 34.8836 8.97446 35.5071C9.67379 35.1845 10.4366 35.0072 11.2286 35.0072C11.6135 35.0072 12.0054 35.049 12.4001 35.1363V35.1368Z" fill="#751409"/>
<path d="M40.2383 76.9427C37.3406 76.9427 34.9922 79.9743 34.9922 81.9178C34.9922 83.8612 37.3412 85.4366 40.2383 85.4366C43.1353 85.4366 45.4849 83.8612 45.4849 81.9178C45.4849 79.9743 43.1359 76.9427 40.2383 76.9427Z" fill="#751409"/>
<path d="M34.4284 42.7177C35.6574 43.2864 37.1461 43.6198 38.7524 43.6198C42.9635 43.6198 46.3778 41.3299 46.3778 38.5055C46.3778 35.681 42.9635 31.2747 38.7524 31.2747C34.5412 31.2747 31.127 35.681 31.127 38.5055C31.127 38.8161 31.1703 39.1197 31.2495 39.4151C32.6649 40.0337 33.7942 41.228 34.4284 42.7177Z" fill="#751409"/>
<path d="M23.5019 86.4991C24.7206 86.4991 25.8721 86.3061 26.894 85.9651L16.7119 83.7115C17.975 85.3661 20.5398 86.4991 23.5014 86.4991H23.5019Z" fill="#751409"/>
<path d="M69.041 46.0566C69.0432 46.0951 69.0454 46.1347 69.047 46.1732C69.0448 46.1347 69.0426 46.0951 69.041 46.0566Z" fill="#E1C8BE"/>
<path d="M69.1379 47.9383C69.1368 47.9123 69.1352 47.8863 69.1341 47.8608C69.1314 47.8061 69.1287 47.7524 69.126 47.6976C69.1309 47.7963 69.1357 47.8944 69.1406 47.9936C69.1395 47.9752 69.139 47.9568 69.1379 47.9389V47.9383Z" fill="#E1C8BE"/>
<path d="M69.0944 47.0774C69.0944 47.0774 69.0944 47.0736 69.0944 47.0715C69.0922 47.0281 69.0901 46.9864 69.0879 46.9435C69.0928 47.04 69.0976 47.1365 69.1031 47.2341C69.1004 47.1821 69.0976 47.1295 69.0949 47.078L69.0944 47.0774Z" fill="#E1C8BE"/>
<path d="M69.1724 48.6664C69.1692 48.5949 69.1654 48.5244 69.1621 48.4534C69.1664 48.5444 69.1708 48.6355 69.1751 48.7266C69.174 48.7065 69.1735 48.6859 69.1724 48.6659V48.6664Z" fill="#E1C8BE"/>
<path d="M68.9814 44.9746C68.9858 45.0532 68.9901 45.1313 68.995 45.2099C68.9907 45.1313 68.9863 45.0527 68.9814 44.9746Z" fill="#E1C8BE"/>
<path d="M68.6279 39.4466C68.6382 39.5908 68.6485 39.7361 68.6588 39.883C68.6485 39.7355 68.6382 39.5913 68.6279 39.4466Z" fill="#E1C8BE"/>
<path d="M69.2543 50.4874C69.2516 50.4294 69.2494 50.3708 69.2473 50.3123C69.2467 50.2944 69.2457 50.277 69.2451 50.2592C69.2495 50.3627 69.2538 50.4673 69.2581 50.5714C69.257 50.5432 69.256 50.515 69.2549 50.4868L69.2543 50.4874Z" fill="#E1C8BE"/>
<path d="M69.4464 56.3113C69.4464 56.2978 69.4459 56.2837 69.4453 56.2701C69.4469 56.3292 69.448 56.3883 69.4496 56.4469C69.4486 56.4019 69.4475 56.3563 69.4464 56.3113Z" fill="#E1C8BE"/>
<path d="M69.4248 55.4337C69.4248 55.4309 69.4248 55.4277 69.4248 55.425C69.4275 55.5226 69.4297 55.6202 69.4324 55.7177C69.4302 55.6229 69.4275 55.5285 69.4248 55.4337Z" fill="#E1C8BE"/>
<path d="M68.749 41.2198C68.7566 41.3294 68.7637 41.4389 68.7707 41.55C68.7637 41.4389 68.7561 41.3299 68.749 41.2198Z" fill="#E1C8BE"/>
<path d="M68.5059 37.7704C68.5416 38.2442 68.5774 38.7391 68.6143 39.2515C68.578 38.7391 68.5416 38.2453 68.5059 37.7704Z" fill="#E1C8BE"/>
<path d="M69.4836 58.0721C69.4831 58.0315 69.482 57.9908 69.4814 57.9501C69.4825 58.0119 69.4836 58.0743 69.4847 58.1361C69.4847 58.1149 69.4842 58.0933 69.4836 58.0721Z" fill="#E1C8BE"/>
<path d="M68.5056 37.7672C68.4053 36.4319 68.3099 35.2496 68.227 34.2629C68.3104 35.2501 68.4059 36.4303 68.5062 37.7672H68.5056Z" fill="#E1C8BE"/>
<path d="M69.3735 53.6983C69.3719 53.6544 69.3708 53.6105 69.3691 53.5666C69.3708 53.6203 69.3729 53.6739 69.3746 53.7281C69.3746 53.7184 69.374 53.7081 69.3735 53.6983Z" fill="#E1C8BE"/>
<path d="M69.4665 57.1869C69.4665 57.1614 69.4654 57.1364 69.4648 57.111C69.4665 57.1766 69.4676 57.2427 69.4692 57.3083C69.4686 57.2676 69.4676 57.227 69.467 57.1869H69.4665Z" fill="#E1C8BE"/>
<path d="M69.4562 67.8314C69.4562 67.8254 69.4562 67.8194 69.4562 67.8135C69.4562 67.8265 69.4556 67.8395 69.4551 67.852C69.4551 67.8449 69.4551 67.8384 69.4556 67.8314H69.4562Z" fill="#E1C8BE"/>
<path d="M69.314 51.9901C69.3124 51.9424 69.3102 51.8952 69.3086 51.8475C69.3124 51.9522 69.3167 52.0573 69.3205 52.162C69.3184 52.1045 69.3162 52.047 69.314 51.9896V51.9901Z" fill="#E1C8BE"/>
<path d="M69.3443 52.8478C69.3427 52.7963 69.3405 52.7453 69.3389 52.6943C69.3421 52.7789 69.3448 52.8635 69.3481 52.948C69.347 52.9144 69.3459 52.8808 69.3448 52.8478H69.3443Z" fill="#E1C8BE"/>
<path d="M69.2886 51.3456C69.2859 51.2805 69.2837 51.2149 69.281 51.1498C69.2799 51.1255 69.2789 51.1011 69.2783 51.0767C69.2821 51.1688 69.2859 51.261 69.2892 51.3537C69.2892 51.351 69.2892 51.3483 69.2892 51.345L69.2886 51.3456Z" fill="#E1C8BE"/>
<path d="M61.838 23.858C61.8331 23.8515 61.8282 23.8456 61.8234 23.8391L61.8223 23.8396L61.838 23.858Z" fill="#E1C8BE"/>
<path d="M68.7044 78.993C68.7196 78.8689 68.7342 78.7431 68.7489 78.6179C68.764 78.4888 68.7792 78.3598 68.7933 78.2297C68.7971 78.1939 68.8009 78.1576 68.8052 78.1218C68.7673 78.4644 68.7283 78.8044 68.6865 79.1388C68.6925 79.0906 68.6979 79.0413 68.7039 78.993H68.7044Z" fill="#E1C8BE"/>
<path d="M68.8357 77.847C68.8498 77.7163 68.8639 77.5857 68.8775 77.4539C68.891 77.3244 68.9035 77.1948 68.9165 77.0642C68.9241 76.9861 68.9322 76.9091 68.9398 76.8311C68.9062 77.1818 68.8699 77.5282 68.833 77.8725C68.8341 77.8638 68.8346 77.8557 68.8357 77.847Z" fill="#E1C8BE"/>
<path d="M62.4888 23.3913C62.7219 23.2362 62.9713 23.046 63.2218 22.8123C63.5741 22.4838 64.0897 22.0035 64.4166 21.2169C64.0886 21.9764 63.4316 22.705 62.4883 23.3913H62.4888Z" fill="#E1C8BE"/>
<path d="M50.6103 39.6824C51.6002 37.0944 54.4751 34.2347 57.8677 34.2347C62.0788 34.2347 65.4931 38.641 65.4931 41.4655C65.4931 44.2899 62.0794 46.5798 57.8677 46.5798C54.8996 46.5798 52.3272 45.4424 51.0673 43.7819C51.6057 49.1516 51.9082 54.5316 51.9927 59.9148C53.2976 57.7257 55.7903 55.6922 58.651 55.6922C62.8622 55.6922 66.2759 60.0986 66.2759 62.923C66.2759 65.7474 62.8622 68.0373 58.651 68.0373C55.7984 68.0373 53.3117 66.9867 52.0036 65.4308C51.9727 68.0845 51.8903 70.7371 51.758 73.3886C52.4676 73.1235 53.2212 72.9722 54.0024 72.9722C56.5292 72.9722 58.7687 74.5579 60.1565 76.4369C63.7328 77.7786 65.8357 79.4191 65.8357 81.1896C65.8357 84.2212 59.6729 86.8699 50.503 88.2941C50.4781 88.5077 50.4526 88.7202 50.4266 88.9338C50.4266 88.9354 50.4266 88.937 50.426 88.9387C50.7529 88.8926 51.0793 88.8454 51.4056 88.7966C52.7642 88.5852 54.1151 88.3309 55.4569 88.0382C56.7986 87.7471 58.1306 87.4055 59.4365 86.9865C60.7452 86.5777 62.03 86.0866 63.2395 85.4458C63.8402 85.1222 64.4322 84.7714 64.9569 84.3339C65.4811 83.9008 65.9636 83.395 66.2634 82.7699L66.2667 82.7629H66.2732L66.5567 82.739C69.367 69.391 67.5992 44.1386 66.8467 35.23C66.6716 33.1564 65.8438 31.1934 64.4842 29.618L60.2416 24.6989C57.4491 26.0325 53.4765 27.1286 48.7568 27.8599C48.8512 28.3533 48.9433 28.8471 49.0339 29.3415C49.6616 32.7813 50.1859 36.2281 50.6103 39.683V39.6824Z" fill="#80160E"/>
<path d="M59.635 87.5568C60.9393 87.0602 62.2225 86.4883 63.4152 85.7499C64.0061 85.3742 64.584 84.972 65.0909 84.4841C65.5923 83.9999 66.0363 83.4351 66.2835 82.7845L66.5573 82.7374L66.2738 82.7612H66.2673L66.264 82.7688C65.9642 83.3939 65.4823 83.8997 64.9575 84.3328C64.4327 84.7703 63.8407 85.121 63.2401 85.4447C62.0312 86.0855 60.7458 86.5766 59.4371 86.9854C58.1312 87.4044 56.7997 87.746 55.4574 88.0371C54.1157 88.3304 52.7647 88.5841 51.4062 88.7955C51.0798 88.8443 50.7535 88.8915 50.4266 88.9376C50.4266 88.9359 50.4266 88.9343 50.4271 88.9327C48.0304 89.2704 45.6229 89.5366 43.205 89.6889C40.4603 89.8841 37.7074 89.9703 34.9551 89.9665C32.2022 89.9725 29.4494 89.8825 26.7046 89.6905C23.9583 89.516 21.2227 89.2043 18.5035 88.7966C17.1449 88.5852 15.7945 88.3293 14.4522 88.0382C13.1099 87.7465 11.7785 87.4039 10.4725 86.9854C9.16388 86.5761 7.87906 86.0833 6.67014 85.4425C6.07001 85.1183 5.47802 84.767 4.95379 84.3285C4.42902 83.8953 3.94817 83.3874 3.65 82.7607L3.64729 82.7552H3.64241L3.42773 82.7368L3.63482 82.7726C3.87932 83.4242 4.32331 83.9891 4.82314 84.4748C5.32894 84.9633 5.90738 85.3655 6.4972 85.7412C7.68878 86.4807 8.97197 87.0521 10.2758 87.5492C12.8936 88.525 15.6086 89.2016 18.3435 89.7225C21.0796 90.2451 23.8466 90.5834 26.6184 90.8252C29.3919 91.0578 32.1735 91.1537 34.9551 91.1705C37.7362 91.1564 40.5183 91.0572 43.2918 90.8285C45.637 90.6224 47.9784 90.3492 50.3014 89.954C50.3014 89.954 50.3014 89.9551 50.3014 89.9556C50.7242 89.8835 51.146 89.8076 51.5672 89.7274C54.3022 89.207 57.0176 88.532 59.6361 87.5562L59.635 87.5568Z" fill="#7B170F"/>
<path d="M65.8361 81.1896C65.8361 79.4185 63.7332 77.7786 60.1568 76.4369C61.0817 77.6897 61.6287 79.0727 61.6287 80.203C61.6287 83.0274 58.215 85.3173 54.0033 85.3173C52.8908 85.3173 51.8343 85.1574 50.8812 84.8706C50.7641 86.0134 50.6384 87.1529 50.5039 88.2941C59.6738 86.8699 65.8366 84.2212 65.8366 81.1896H65.8361Z" fill="#8A1811"/>
<path d="M63.8388 21.3811C63.8133 21.3936 63.7873 21.4055 63.7613 21.418C63.546 21.5215 63.3249 21.624 63.095 21.7243C63.0912 21.7259 63.0874 21.7275 63.0836 21.7292C62.8505 21.8311 62.6087 21.9314 62.361 22.0306C62.3404 22.0387 62.3208 22.0468 62.3002 22.055C62.0601 22.1504 61.8113 22.2442 61.5576 22.3369C61.5218 22.3499 61.4865 22.3629 61.4508 22.3759C61.2003 22.4659 60.9439 22.5548 60.6809 22.6426C60.6408 22.6562 60.6002 22.6692 60.5595 22.6828C60.2933 22.7706 60.0217 22.8568 59.7431 22.9413C59.7078 22.9522 59.6715 22.9625 59.6363 22.9733C59.3468 23.0606 59.0519 23.1468 58.7494 23.2308C58.7347 23.2346 58.7201 23.239 58.7055 23.2428C58.3965 23.3284 58.081 23.4124 57.7595 23.4948C57.7443 23.4986 57.7297 23.503 57.7139 23.5068C57.3984 23.587 57.0759 23.6656 56.7484 23.7426C56.7072 23.7523 56.6671 23.7621 56.6259 23.7719C56.3082 23.8456 55.9851 23.9182 55.6571 23.9887C55.6056 23.9996 55.5541 24.0109 55.5026 24.0218C55.1752 24.0917 54.8429 24.16 54.5051 24.2262C54.4553 24.2359 54.4049 24.2457 54.355 24.2554C54.0086 24.3227 53.6578 24.3888 53.3016 24.4528C53.2686 24.4587 53.235 24.4641 53.2019 24.4701C52.8327 24.5357 52.4592 24.5997 52.0797 24.6609C52.0716 24.662 52.064 24.6636 52.0559 24.6647C51.678 24.726 51.2947 24.7845 50.9071 24.842C50.861 24.8491 50.815 24.8561 50.7689 24.8626C50.3986 24.9168 50.0235 24.9689 49.6451 25.0187C49.5806 25.0274 49.516 25.0361 49.451 25.0442C49.0769 25.093 48.6985 25.1402 48.3163 25.1852C48.2871 25.1884 48.2583 25.1928 48.2285 25.196C48.4118 26.0818 48.5885 26.9687 48.7582 27.8567C48.7582 27.8567 48.7582 27.8567 48.7582 27.8573C53.4784 27.1259 57.4505 26.0298 60.2429 24.6962C60.8214 24.4197 61.3488 24.1335 61.8226 23.838C61.8226 23.838 61.8237 23.838 61.8237 23.8375C61.8237 23.8375 61.8237 23.8369 61.8232 23.8364C61.8113 23.8207 61.7993 23.8049 61.7874 23.7892C61.9799 23.6965 62.2146 23.5707 62.4694 23.4021C62.4759 23.3978 62.4819 23.394 62.4889 23.3897C63.4322 22.7039 64.0892 21.9747 64.4172 21.2152C64.4172 21.2152 64.4172 21.2147 64.4172 21.2142C64.4329 21.1757 64.4481 21.1361 64.4633 21.096C64.4687 21.0813 64.4752 21.0672 64.4806 21.0521C64.4633 21.0613 64.4443 21.07 64.427 21.0792C64.2378 21.1805 64.0421 21.2803 63.8388 21.3795V21.3811Z" fill="#DDAD91"/>
<path d="M50.8804 84.8701C51.8335 85.1574 52.8901 85.3168 54.0025 85.3168C58.2142 85.3168 61.6279 83.0269 61.6279 80.2024C61.6279 79.0727 61.0814 77.6892 60.1561 76.4363C58.7688 74.5574 56.5293 72.9717 54.0019 72.9717C53.2207 72.9717 52.4672 73.1235 51.7576 73.388C51.7576 73.388 51.7576 73.388 51.7576 73.3886C51.5667 77.2197 51.2718 81.0487 50.8799 84.8679C50.8799 84.8679 50.8799 84.869 50.8799 84.8695L50.8804 84.8701Z" fill="#76150A"/>
<path d="M57.8677 46.5798C62.0788 46.5798 65.4931 44.2899 65.4931 41.4654C65.4931 38.641 62.0794 34.2347 57.8677 34.2347C54.4751 34.2347 51.6003 37.0938 50.6104 39.6824C50.6104 39.6835 50.6104 39.684 50.6104 39.6851C50.7779 41.0475 50.9302 42.4136 51.0668 43.7781C51.0668 43.7792 51.0668 43.7808 51.0668 43.7819C52.3267 45.4424 54.899 46.5798 57.8671 46.5798H57.8677Z" fill="#76150A"/>
<path d="M58.6505 68.0374C62.8616 68.0374 66.2754 65.7474 66.2754 62.923C66.2754 60.0986 62.8616 55.6923 58.6505 55.6923C55.7897 55.6923 53.2971 57.7252 51.9922 59.9148V59.9175C52.0209 61.7542 52.0242 63.592 52.003 65.4287V65.4314C53.3106 66.9873 55.7979 68.0379 58.6505 68.0379V68.0374Z" fill="#76150A"/>
<path d="M34.9926 67.1699V45.5091C34.9926 44.5181 34.792 43.5705 34.4298 42.7188C32.7889 41.9599 31.613 40.7808 31.2476 39.4135C30.9245 39.2726 30.5862 39.1615 30.236 39.0839L14.4046 35.5802C13.6315 35.8811 12.7327 36.0535 11.7742 36.0535C10.7431 36.0535 9.7814 35.854 8.97039 35.5092C6.85776 36.4861 5.3252 38.7923 5.3252 41.5614V75.8183C5.3252 76.7665 5.50897 77.6751 5.84183 78.4975C10.0254 75.2811 21.4966 72.9717 34.9931 72.9717V67.1694L34.9926 67.1699ZM17.7299 37.4473C21.9411 37.4473 25.3553 41.8536 25.3553 44.678C25.3553 47.5025 21.9411 49.7924 17.7299 49.7924C13.5188 49.7924 10.1045 47.5025 10.1045 44.678C10.1045 41.8536 13.5182 37.4473 17.7299 37.4473ZM11.7737 51.4453C14.6713 51.4453 17.0197 54.4768 17.0197 56.4203C17.0197 58.3638 14.6708 59.9392 11.7737 59.9392C8.8766 59.9392 6.52761 58.3638 6.52761 56.4203C6.52761 54.4768 8.8766 51.4453 11.7737 51.4453ZM14.4832 74.2099C10.272 74.2099 6.85776 71.92 6.85776 69.0955C6.85776 66.2711 10.272 61.8648 14.4832 61.8648C18.6943 61.8648 22.1086 66.2711 22.1086 69.0955C22.1086 71.92 18.6949 74.2099 14.4832 74.2099ZM25.3553 63.7172C21.1442 63.7172 17.7299 61.4273 17.7299 58.6029C17.7299 55.7784 21.1436 51.3721 25.3553 51.3721C29.567 51.3721 32.9802 55.7784 32.9802 58.6029C32.9802 61.4273 29.5665 63.7172 25.3553 63.7172Z" fill="#963C29"/>
<path d="M10.0813 82.244L16.7092 83.711C16.1768 83.0133 15.8765 82.2224 15.8765 81.3848C15.8765 78.5604 19.2902 74.1546 23.5019 74.1546C27.7136 74.1546 31.1273 78.5604 31.1273 81.3848C31.1273 83.3917 29.4039 85.1281 26.8967 85.9657L27.9164 86.1912C28.311 86.2785 28.703 86.3202 29.0879 86.3202C32.2739 86.3202 34.9921 83.4541 34.9921 79.766V72.9717C21.4955 72.9717 10.0238 75.2811 5.84082 78.4975C5.84082 78.4975 5.84082 78.498 5.84082 78.4986C6.60466 80.384 8.15512 81.8174 10.0807 82.2435L10.0813 82.244Z" fill="#A2402C"/>
<path d="M25.3549 51.3721C21.1437 51.3721 17.7295 55.7785 17.7295 58.6029C17.7295 61.4273 21.1432 63.7172 25.3549 63.7172C29.5666 63.7172 32.9798 61.4273 32.9798 58.6029C32.9798 55.7785 29.5661 51.3721 25.3549 51.3721Z" fill="#8D3825"/>
<path d="M17.7289 49.7924C21.9401 49.7924 25.3544 47.5025 25.3544 44.678C25.3544 41.8536 21.9401 37.4473 17.7289 37.4473C13.5178 37.4473 10.1035 41.8536 10.1035 44.678C10.1035 47.5025 13.5172 49.7924 17.7289 49.7924Z" fill="#8D3825"/>
<path d="M11.7734 59.9392C14.671 59.9392 17.0195 58.3638 17.0195 56.4203C17.0195 54.4768 14.6705 51.4453 11.7734 51.4453C8.87634 51.4453 6.52734 54.4768 6.52734 56.4203C6.52734 58.3638 8.87634 59.9392 11.7734 59.9392Z" fill="#8D3825"/>
<path d="M14.4039 35.5802L14.3974 35.5786L12.4002 35.1368C12.0056 35.0495 11.6136 35.0078 11.2287 35.0078C10.4367 35.0078 9.67394 35.185 8.97461 35.5076C8.97298 35.5081 8.97135 35.5087 8.96973 35.5098C9.78073 35.8545 10.7424 36.054 11.7736 36.054C12.732 36.054 13.6303 35.8816 14.4039 35.5808V35.5802Z" fill="#8D3825"/>
<path d="M34.4293 42.7189C34.4293 42.7189 34.4293 42.7178 34.4288 42.7172C33.7945 41.2275 32.6658 40.0332 31.2498 39.4146C31.2487 39.4146 31.2482 39.4136 31.2471 39.413C31.6125 40.7802 32.7883 41.9599 34.4293 42.7183V42.7189Z" fill="#8D3825"/>
<path d="M14.4828 61.8648C10.2717 61.8648 6.85742 66.2711 6.85742 69.0956C6.85742 71.92 10.2717 74.2099 14.4828 74.2099C18.694 74.2099 22.1083 71.92 22.1083 69.0956C22.1083 66.2711 18.6946 61.8648 14.4828 61.8648Z" fill="#8D3825"/>
<path d="M31.1268 81.3848C31.1268 78.5603 27.7126 74.1545 23.5014 74.1545C19.2902 74.1545 15.876 78.5603 15.876 81.3848C15.876 82.2223 16.1763 83.0133 16.7087 83.711H16.7119L26.894 85.9651H26.8961C29.404 85.1281 31.1268 83.3917 31.1268 81.3848Z" fill="#8D3825"/>
<path d="M10.8175 23.1105C10.6651 23.0666 10.5139 23.0221 10.3643 22.9771C10.5133 23.0221 10.6646 23.0666 10.8175 23.1105Z" fill="#D71A20"/>
<path d="M10.1166 22.9012C9.97624 22.8579 9.83637 22.815 9.69922 22.7711C9.83637 22.815 9.97624 22.8584 10.1166 22.9012Z" fill="#D71A20"/>
<path d="M7.24495 21.8745C7.17231 21.8441 7.10129 21.8132 7.03027 21.7828C7.10129 21.8137 7.17231 21.8441 7.24495 21.8745Z" fill="#D71A20"/>
<path d="M6.82699 13.277C3.8383 11.9574 2.11816 10.4113 2.11816 8.75787V17.1775C2.11816 18.5686 3.33739 19.8837 5.50369 21.052C5.91082 21.2716 6.35481 21.4852 6.82699 21.6933V13.277Z" fill="#D71A20"/>
<path d="M11.534 23.3116C11.3703 23.2671 11.2093 23.2221 11.0488 23.1766C11.2088 23.2221 11.3703 23.2671 11.534 23.3116Z" fill="#D71A20"/>
<path d="M9.42148 22.68C9.29788 22.6394 9.17319 22.5987 9.05176 22.5575C9.17265 22.5987 9.29734 22.6394 9.42148 22.68Z" fill="#D71A20"/>
<path d="M42.2087 17.3044C39.9486 17.4394 37.6001 17.512 35.1904 17.5158V25.9343C38.4204 25.9295 41.5365 25.7983 44.4812 25.5619C43.7342 25.6221 42.9769 25.6757 42.2087 25.7213V17.3038V17.3044Z" fill="#D71A20"/>
<path d="M30.4145 25.8498V17.4318C27.9794 17.3412 25.6304 17.1802 23.3963 16.9558V25.3743C21.7353 25.2073 20.1409 25.0051 18.6202 24.772V16.3557C16.0398 15.9599 13.6805 15.4736 11.6025 14.9131V23.3311C17.5626 24.9395 25.838 25.937 34.9916 25.937C33.4374 25.937 31.9113 25.9061 30.4145 25.8508V25.8498Z" fill="#D71A20"/>
<path d="M64.3129 12.7224V21.1371C63.6087 21.5063 62.8107 21.8603 61.9249 22.1975V13.7812C60.3408 14.3829 58.4797 14.9294 56.391 15.407V23.8239C55.625 23.999 54.828 24.1649 54.0029 24.321V15.9046C51.8426 16.3134 49.4887 16.6544 46.9852 16.9157V25.3326C46.654 25.3673 46.3195 25.3998 45.9834 25.4312C46.7733 25.3564 47.5545 25.2767 48.3156 25.1868C48.6978 25.1418 49.0756 25.0946 49.4502 25.0458C49.5153 25.0371 49.5798 25.0285 49.6443 25.0203C50.0233 24.9699 50.3979 24.9179 50.7681 24.8642C50.8147 24.8577 50.8603 24.8506 50.9064 24.8436C51.294 24.7861 51.6778 24.7276 52.0551 24.6663C52.0632 24.6652 52.0714 24.6636 52.079 24.6625C52.4584 24.6007 52.832 24.5373 53.2011 24.4717C53.2342 24.4657 53.2678 24.4603 53.3009 24.4544C53.6571 24.3904 54.0078 24.3248 54.3542 24.257C54.4041 24.2473 54.4545 24.2375 54.5044 24.2278C54.8421 24.1611 55.1745 24.0933 55.5019 24.0234C55.5534 24.0125 55.6049 24.0011 55.6564 23.9903C55.9844 23.9198 56.3075 23.8472 56.6252 23.7735C56.6664 23.7637 56.707 23.7539 56.7477 23.7442C57.0751 23.6672 57.3977 23.5886 57.7132 23.5084C57.7284 23.5046 57.7435 23.5002 57.7587 23.4964C58.0802 23.414 58.3957 23.33 58.7047 23.2444C58.7194 23.2406 58.734 23.2362 58.7486 23.2324C59.0511 23.1484 59.346 23.0622 59.6355 22.9749C59.6713 22.9641 59.7071 22.9538 59.7423 22.9429C60.021 22.8584 60.2926 22.7716 60.5588 22.6843C60.5994 22.6708 60.6401 22.6578 60.6802 22.6442C60.9431 22.5569 61.1995 22.468 61.45 22.3775C61.4858 22.3645 61.521 22.3515 61.5568 22.3385C61.8105 22.2458 62.0593 22.152 62.2995 22.0566C62.3201 22.0484 62.3396 22.0403 62.3602 22.0322C62.6085 21.933 62.8503 21.8327 63.0829 21.7308C63.0867 21.7291 63.0904 21.7275 63.0942 21.7259C63.3246 21.625 63.5458 21.5226 63.7605 21.4196C63.786 21.4071 63.8125 21.3952 63.838 21.3827C64.0413 21.2841 64.237 21.1838 64.4262 21.0824C64.4441 21.0726 64.4626 21.0629 64.4804 21.0531C66.6467 19.8849 67.866 18.5702 67.866 17.1791V8.75952C67.866 10.1864 66.5844 11.533 64.3129 12.7235V12.7224Z" fill="#D71A20"/>
<path d="M45.7248 25.4556C45.3843 25.4871 45.0412 25.5169 44.6953 25.5456C45.0412 25.5174 45.3838 25.4871 45.7248 25.4556Z" fill="#D71A20"/>
<path d="M8.54101 22.3775C8.44452 22.3428 8.35019 22.3076 8.25586 22.2723C8.35019 22.3076 8.44506 22.3428 8.54101 22.3775Z" fill="#D71A20"/>
<path d="M7.8349 22.1129C7.76172 22.0842 7.6907 22.0555 7.61914 22.0267C7.69124 22.0555 7.76172 22.0847 7.8349 22.1129Z" fill="#D71A20"/>
<path d="M34.9922 0C36.6955 0 38.3685 0.0346955 40.0019 0.100834C38.3685 0.0341534 36.6955 0 34.9922 0Z" fill="#EB5B4F"/>
<path d="M6.82754 13.277V21.6961C6.89367 21.7253 6.96361 21.7541 7.03083 21.7828C7.10185 21.8137 7.17286 21.8441 7.24551 21.8744C7.36749 21.9254 7.49271 21.9763 7.61903 22.0262C7.69113 22.055 7.7616 22.0842 7.83479 22.1124C7.97249 22.1661 8.11398 22.2187 8.25601 22.2718C8.35034 22.307 8.44467 22.3423 8.54117 22.377C8.70923 22.4377 8.87891 22.4979 9.05238 22.557C9.17328 22.5982 9.29797 22.6388 9.42211 22.6795C9.51427 22.7098 9.60589 22.7402 9.69913 22.7705C9.83629 22.8145 9.97615 22.8578 10.1166 22.9007C10.199 22.9261 10.2808 22.9516 10.3643 22.9766C10.5134 23.0215 10.6646 23.066 10.8175 23.1099C10.8945 23.1321 10.9715 23.1544 11.049 23.1761C11.2089 23.2216 11.3705 23.2666 11.5342 23.311C11.5575 23.3175 11.5803 23.324 11.6036 23.3306V14.912C13.6821 15.4726 16.0408 15.9594 18.6213 16.3546V24.771C20.1419 25.0041 21.7363 25.2063 23.3973 25.3733V16.9547C25.6309 17.1792 27.9804 17.3402 30.4156 17.4307V25.8487C31.9124 25.9045 33.4384 25.9349 34.9927 25.9349C35.0062 25.9349 35.0193 25.9349 35.0328 25.9349C35.0859 25.9349 35.1385 25.9338 35.1917 25.9338V17.5147C37.6014 17.5109 39.9493 17.4383 42.2099 17.3033V25.7207C42.9786 25.6747 43.736 25.621 44.4825 25.5614C44.554 25.5554 44.6256 25.55 44.6966 25.5446C45.0419 25.5164 45.3851 25.486 45.7261 25.4546C45.8123 25.4464 45.8979 25.4383 45.9836 25.4302C46.3197 25.3982 46.6547 25.3657 46.9854 25.3315V16.9146C49.4889 16.6533 51.8428 16.3123 54.0031 15.9035V24.3199C54.8282 24.1638 55.6251 23.9979 56.3911 23.8228V15.4059C58.4799 14.9283 60.341 14.3818 61.9251 13.7801V22.1964C62.8109 21.8598 63.6089 21.5058 64.3131 21.1361V12.7213C66.5846 11.5308 67.8661 10.1842 67.8661 8.75736C67.8661 4.37434 55.7813 0.743243 40.004 0.100292L37.6388 2.50079L33.8944 6.30103L29.7407 10.5165L25.9713 14.3417L23.3968 16.9547L18.624 16.353H18.6208L19.9316 15.0421C17.2931 14.7 14.9013 14.243 12.8494 13.696L11.603 14.9115H11.6025L6.82699 13.277L8.13783 11.9873C6.35156 11.076 5.29768 10.0465 5.18492 8.95415C5.17842 8.8891 5.17462 8.82404 5.17462 8.75899C5.17462 7.27521 6.91211 5.89986 9.87315 4.76846C11.4019 4.1846 13.2565 3.6658 15.367 3.23102C15.5502 3.19307 15.7345 3.17464 15.9183 3.17464C16.2571 3.17464 16.5922 3.23752 16.905 3.35896L19.2296 1.07122C21.5314 0.735653 24.0007 0.471642 26.5948 0.289491L25.3089 1.54341L21.2576 5.4949L20.1501 6.57534C21.1486 7.73384 22.1288 8.90861 23.0992 10.0942C23.2965 10.3355 23.4938 10.5772 23.6906 10.819C23.7622 10.9069 23.8267 10.9968 23.8847 11.0879L24.7722 10.2005L28.9844 5.98823L32.8437 2.12889L34.9737 0H34.9927C16.8366 0 2.11816 3.92113 2.11816 8.75844C2.11816 10.4119 3.8383 11.958 6.82699 13.2775L6.82754 13.277ZM67.356 7.22751C67.6238 7.63193 67.7875 8.0461 67.839 8.46787L64.3136 12.717L61.9256 13.7774L62.8803 12.6259L66.4041 8.37625L67.3566 7.22751H67.356ZM65.1192 5.25203L62.6396 8.1361L58.9922 12.3787L56.3911 15.4043L54.0031 15.9014L57.1371 12.2605L60.7893 8.01791L63.7894 4.53264C64.273 4.76629 64.7148 5.00645 65.1187 5.25203H65.1192ZM56.2095 2.07035C57.3691 2.33165 58.4609 2.61355 59.4747 2.91496L58.4046 4.11467L55.2375 7.66391L51.4584 11.8995L48.1764 15.5777L46.9849 16.913L42.2088 17.3028L44.0076 15.3457L47.4121 11.642L51.299 7.41291L54.6016 3.81976L56.209 2.07089L56.2095 2.07035ZM36.4255 10.9421L40.3434 6.71304L43.801 2.98002L46.0866 0.512301C47.5096 0.648372 48.8844 0.810465 50.2088 0.994785L48.0751 3.31179L44.6874 6.99006L40.7917 11.2197L37.3341 14.9738L34.9921 17.5163C34.9954 17.5163 34.9987 17.5163 35.0024 17.5163C34.9992 17.5163 34.9959 17.5163 34.9921 17.5163C34.9905 17.5163 34.9889 17.5163 34.9867 17.5163H34.99L30.4151 17.4302L32.918 14.7282L36.425 10.9421H36.4255Z" fill="#EB5B4F"/>
<path d="M19.0868 5.35612C19.444 5.75999 19.798 6.16658 20.1504 6.57534L21.2579 5.4949L25.3092 1.54341L26.5951 0.28949C24.001 0.471641 21.5312 0.735652 19.2299 1.07122L16.9053 3.35896C17.2837 3.50587 17.6295 3.7379 17.9109 4.04636C18.3061 4.48006 18.6975 4.917 19.0862 5.35666L19.0868 5.35612Z" fill="#ED6D67"/>
<path d="M8.13799 11.9867L6.82715 13.2764L11.6027 14.9109H11.6032L12.8495 13.6955C12.7189 13.6608 12.5893 13.6256 12.4614 13.5898C10.7515 13.1144 9.29216 12.5749 8.13799 11.9862V11.9867Z" fill="#ED6D67"/>
<path d="M32.8446 2.1289L28.9853 5.98823L24.773 10.2005L23.8856 11.0879C24.5443 12.1223 24.3735 13.3637 23.698 14.2154C23.2199 14.8177 22.4891 15.2243 21.6201 15.2243C21.5165 15.2243 21.4108 15.2183 21.3035 15.2064C20.8394 15.1549 20.3824 15.0996 19.9319 15.0416L18.6211 16.3524H18.6243L23.3971 16.9542L25.9717 14.3412L29.741 10.516L33.8947 6.30049L37.6391 2.50025L40.0038 0.101383C40.0038 0.101383 40.0022 0.101383 40.0017 0.101383C38.3683 0.0347027 36.6953 0.000549316 34.9919 0.000549316H34.973L32.8441 2.12944L32.8446 2.1289Z" fill="#ED6D67"/>
<path d="M34.9904 17.5169H34.9926L37.3345 14.9743L40.7921 11.2202L44.6878 6.99058L48.0755 3.31231L50.2093 0.995302C48.8849 0.81044 47.5101 0.648889 46.087 0.512817L43.8014 2.98053L40.3438 6.71355L36.4259 10.9426L32.919 14.7288L30.416 17.4307L34.9909 17.5169H34.9904Z" fill="#ED6D67"/>
<path d="M47.4122 11.6414L44.0077 15.3452L42.209 17.3022L46.985 16.9125L48.1766 15.5772L51.4586 11.899L55.2377 7.66339L58.4047 4.11415L59.4749 2.91444C58.4611 2.61303 57.3693 2.33112 56.2097 2.06982L54.6023 3.81869L51.2997 7.41185L47.4128 11.6409L47.4122 11.6414Z" fill="#ED6D67"/>
<path d="M57.1369 12.2605L54.0029 15.9014L56.391 15.4043L58.992 12.3787L62.6394 8.13611L65.119 5.25204C64.7152 5.00646 64.2733 4.76631 63.7898 4.53265L60.7897 8.01793L57.1375 12.2605H57.1369Z" fill="#ED6D67"/>
<path d="M61.9244 13.7779L64.3124 12.7175L67.8378 8.46839C67.7863 8.04662 67.6226 7.63245 67.3548 7.22803L66.4023 8.37677L62.8785 12.6264L61.9238 13.7779H61.9244Z" fill="#ED6D67"/>
<path d="M15.1319 5.10402L16.9051 3.35894C16.5923 3.23751 16.2573 3.17462 15.9185 3.17462C15.7347 3.17462 15.5504 3.19305 15.3672 3.231C13.2567 3.66578 11.4021 4.18459 9.87333 4.76845C6.91175 5.8993 5.1748 7.2752 5.1748 8.75897C5.1748 8.82403 5.17806 8.88962 5.18511 8.95413C5.29732 10.0465 6.3512 11.076 8.13802 11.9873L10.8535 9.31518L15.1324 5.10456L15.1319 5.10402Z" fill="#F0816E"/>
<path d="M23.8859 11.0879C23.8279 10.9963 23.7629 10.9063 23.6918 10.819C23.4951 10.5772 23.2977 10.3354 23.1004 10.0942C22.13 8.90913 21.1499 7.73382 20.1513 6.57532L16.9452 9.70225L12.9319 13.6163L12.8506 13.696C14.9025 14.243 17.2943 14.6995 19.9328 15.0421L20.914 14.0609L23.8865 11.0884L23.8859 11.0879Z" fill="#F0816E"/>
<path d="M16.9438 9.70225L20.1499 6.57532C19.7976 6.16657 19.4435 5.76052 19.0863 5.3561C18.6976 4.91644 18.3062 4.4795 17.911 4.0458C17.6296 3.73734 17.2838 3.50531 16.9054 3.3584L15.1321 5.10347L10.8532 9.3141L8.1377 11.9862C9.29186 12.5749 10.7518 13.1143 12.4611 13.5898C12.589 13.6256 12.7186 13.6608 12.8492 13.6955L12.9306 13.6158L16.9438 9.70171V9.70225Z" fill="#F28E83"/>
<path d="M21.6198 15.2243C22.4888 15.2243 23.2196 14.8177 23.6977 14.2154C24.3732 13.3643 24.544 12.1229 23.8853 11.088L20.9129 14.0604L19.9316 15.0416C20.3816 15.1002 20.8386 15.1549 21.3032 15.2064C21.4105 15.2183 21.5162 15.2243 21.6198 15.2243Z" fill="#F28E83"/>
</g>
<defs>
<clipPath id="clip0_251_177407">
<rect width="69.063" height="92" fill="white" transform="translate(0.460938)"/>
</clipPath>
</defs>
</svg>
