<svg width="47" height="92" viewBox="0 0 47 92" fill="none" xmlns="http://www.w3.org/2000/svg">
<g clip-path="url(#clip0_236_173158)">
<path d="M46.091 45.1585C46.0201 45.7209 45.7315 47.2665 45.2959 49.4682C43.4004 59.0865 38.7076 81.207 37.1672 88.446C36.9083 89.6732 36.0336 90.7631 34.8772 91.1777C34.6944 91.2425 34.5037 91.2923 34.306 91.3221C33.3229 91.469 32.0711 91.6134 30.6323 91.7279C28.5776 91.8898 26.1284 91.9991 23.5104 91.9991C22.7599 91.9991 22.0234 91.9842 21.3052 91.9606C19.5917 91.9072 17.9901 91.7962 16.5687 91.6571C15.4849 91.5539 14.5053 91.4367 13.6629 91.3247C13.1801 91.26 12.7235 91.1244 12.2966 90.9241C10.9688 90.3092 9.97079 89.0933 9.65327 87.6063C7.55484 77.7309 1.27794 48.0966 0.909689 45.1585C0.467962 41.6256 1.79314 39.5647 5.03131 37.7987C6.92156 36.7683 9.36199 33.3858 10.9487 27.7037C11.3878 26.1345 11.7613 24.3921 12.0377 22.4721C12.4261 19.8077 12.6325 16.8049 12.5765 13.4696C12.5652 12.6832 13.195 12.0386 13.9804 12.0386H33.0281C33.8109 12.0447 34.4355 12.6859 34.4232 13.4696C34.3673 16.8084 34.5737 19.8112 34.9621 22.4782C35.242 24.3947 35.6128 26.138 36.0546 27.7063C37.6413 33.3849 40.0791 36.7683 41.9693 37.7978C45.2075 39.5639 46.5327 41.6247 46.091 45.1576V45.1585Z" fill="url(#paint0_linear_236_173158)"/>
<g style="mix-blend-mode:soft-light" opacity="0.8">
<path d="M16.569 91.6589C16.1185 91.6143 15.689 91.5705 15.2761 91.5233C14.6962 91.4586 14.1548 91.3912 13.6632 91.3265C13.4629 91.3002 13.2661 91.2618 13.0745 91.2084C12.8069 91.1375 12.5479 91.044 12.2969 90.9259L11.752 85.7117L13.0588 85.5674L14.5309 85.403L16.4001 85.1965L16.5681 91.6589H16.569Z" fill="#FFFFEE"/>
</g>
<path d="M15.2765 91.5233C14.6966 91.4586 14.1552 91.3912 13.6636 91.3265C13.4633 91.3003 13.2665 91.2618 13.0749 91.2084L12.6865 85.7852L13.06 85.5674L14.4526 84.7548L14.5322 85.4021L15.2765 91.5224V91.5233Z" fill="white"/>
<path d="M23.5745 10.4204H23.4266H13.7812V12.1375H23.4266H23.5745H33.2199V10.4204H23.5745Z" fill="#6F80B5"/>
<path style="mix-blend-mode:color-burn" d="M23.5745 10.4204H23.4266H13.7812V11.3765H23.4266H23.5745H33.2199V10.4204H23.5745Z" fill="url(#paint1_linear_236_173158)"/>
<path d="M36.6014 87.3352C36.6014 90.3433 30.7356 91.183 23.5009 91.183C16.2662 91.183 10.4004 90.3433 10.4004 87.3352C10.4004 84.3271 16.2662 80.2903 23.5009 80.2903C30.7356 80.2903 36.6014 84.3271 36.6014 87.3352Z" fill="#6B7CAF"/>
<g style="mix-blend-mode:soft-light" opacity="0.8">
<path d="M35.4516 85.6619L34.8778 91.1787C34.695 91.2434 34.5043 91.2933 34.3066 91.323C33.3234 91.47 32.0717 91.6143 30.6328 91.7289L30.8034 85.1458L35.4516 85.661V85.6619Z" fill="#FFFFEE"/>
</g>
<path d="M45.4784 45.344C45.1102 48.2524 38.64 78.3519 36.7996 86.8891C36.5346 88.1163 35.6187 89.2062 34.4151 89.5596C34.2857 89.6007 34.1501 89.6304 34.0119 89.6506C32.5336 89.871 30.4352 90.0748 27.9825 90.192C26.5874 90.2593 25.0794 90.2978 23.5075 90.2978C19.7043 90.2978 16.2798 89.9619 13.9304 89.6506C11.9929 89.3978 10.526 88.7295 10.0265 86.0826C8.22902 76.557 1.87777 48.1675 1.52176 45.344C1.09228 41.9554 2.3781 39.9768 5.53142 38.2816C8.62264 36.6179 13.2332 28.5575 12.8615 14.3706C12.8501 13.9262 13.2061 13.5606 13.6566 13.5606H33.3428C33.7932 13.5606 34.1492 13.9254 34.1379 14.3706C33.767 28.5575 38.3776 36.6179 41.4688 38.2816C44.6221 39.9777 45.9079 41.9554 45.4784 45.344Z" fill="url(#paint2_linear_236_173158)"/>
<g style="mix-blend-mode:overlay" opacity="0.5">
<path d="M33.6483 13.9787C33.2958 27.444 37.4305 35.3863 40.4955 37.5818C37.4996 34.9297 33.8057 27.1291 34.139 14.3714C34.1486 13.9997 33.9002 13.6866 33.5547 13.593C33.6159 13.7084 33.6518 13.8387 33.6483 13.9787Z" fill="url(#paint3_linear_236_173158)"/>
<path style="mix-blend-mode:lighten" d="M43.0189 39.2534C44.6721 40.68 45.308 42.4233 44.9879 44.9512C44.6196 47.8596 38.1494 77.9592 36.309 86.4963C36.044 87.7235 35.1281 88.8134 33.9245 89.1668C33.7951 89.2079 33.6595 89.2376 33.5213 89.2578C32.0431 89.4782 29.9446 89.682 27.4919 89.7992C26.0968 89.8666 24.5888 89.905 23.0169 89.905C19.2137 89.905 15.7892 89.5692 13.4398 89.2578C12.5817 89.1458 11.8172 88.9507 11.1865 88.5405C11.8915 89.2306 12.8353 89.5071 13.9305 89.6505C16.2799 89.9628 19.7036 90.2978 23.5077 90.2978C25.0795 90.2978 26.5866 90.2593 27.9827 90.192C30.4353 90.0739 32.5338 89.8709 34.012 89.6505C34.1502 89.6295 34.2858 89.6007 34.4153 89.5595C35.6197 89.2062 36.5347 88.1171 36.7997 86.8891C38.6401 78.3519 45.1103 48.2523 45.4786 45.3439C45.8293 42.579 45.036 40.7526 43.0189 39.2534Z" fill="url(#paint4_linear_236_173158)"/>
</g>
<path d="M35.1555 6.47898V0.666548C34.9211 0.342031 34.6211 0.1356 34.2843 0.131227L33.6091 0.125979L29.2084 0.0717466L24.2952 0.00701827L23.577 0.00177002H23.4205L13.3727 0.125979L12.7193 0.131227C11.974 0.141723 11.3906 1.09253 11.3644 2.24802C11.3591 2.37223 11.3644 2.50168 11.3749 2.63114L11.9364 9.15908C12.0283 10.2498 12.6056 11.0598 13.2861 11.0598H33.7175C34.3928 11.0598 34.9753 10.2498 35.0672 9.15908L35.1555 6.47898Z" fill="url(#paint5_linear_236_173158)"/>
<g style="mix-blend-mode:soft-light" opacity="0.8">
<path d="M24.2945 0.00962178L23.4881 11.0589H14.4147L13.3721 0.123334L14.8529 0.10409L17.8235 0.0664778L23.4233 0H23.579L24.2945 0.00962178Z" fill="#FFFFEE"/>
</g>
<path style="mix-blend-mode:color-burn" opacity="0.5" d="M33.6115 0.123344C33.2879 3.19182 32.8138 7.72543 32.4692 11.0589H28.833L29.2074 0.0708618L33.6115 0.123344Z" fill="url(#paint6_linear_236_173158)"/>
<g style="mix-blend-mode:soft-light">
<path d="M17.9375 11.0589H15.8146C15.5198 7.72016 15.1201 3.22504 14.8516 0.10408L17.8221 0.0664673L17.9367 11.0589H17.9375Z" fill="#FFFFEE"/>
</g>
<path style="mix-blend-mode:color-burn" d="M42.3531 49.1778C42.2324 50.2519 41.9289 51.3357 41.7198 52.3958C41.5169 53.4087 41.4251 54.5389 41.1014 55.5194C40.3124 59.4967 39.5234 63.474 38.7371 67.4539C37.9131 71.6105 37.0883 75.768 36.2669 79.9246C35.631 83.1392 34.9925 86.3485 34.3592 89.5604C34.2297 89.6015 34.0941 89.6313 33.9559 89.6514C32.4777 89.8718 30.3792 90.0756 27.9266 90.1928C29.6078 79.9771 34.9067 45.5766 30.8822 40.5453C25.4153 33.7121 25.6829 17.2265 25.9567 12.0386H32.9719C32.9509 14.1317 32.9334 17.6498 33.0252 19.4194C33.243 23.6057 33.655 27.9128 34.9715 31.9137C35.5042 33.5354 36.2109 35.2078 37.3918 36.4709C38.5429 37.7042 40.0885 38.4967 41.4014 39.5236C42.5788 40.4447 43.1998 41.9728 43.3004 43.4362C43.4386 45.4524 42.57 47.2368 42.3522 49.1769L42.3531 49.1778Z" fill="url(#paint7_linear_236_173158)"/>
<path style="mix-blend-mode:overlay" opacity="0.5" d="M19.0536 90.1929C16.6009 90.0748 14.5025 89.8718 13.0243 89.6514C12.8861 89.6304 12.7505 89.6016 12.621 89.5605C11.9877 86.3485 11.3492 83.1392 10.7133 79.9247C9.89193 75.7681 9.06795 71.6106 8.2431 67.454C7.45674 63.474 6.66775 59.4967 5.87877 55.5195C5.55513 54.5389 5.46328 53.4088 5.26035 52.3959C5.05129 51.3357 4.74777 50.2528 4.62706 49.1778C4.40926 47.2377 3.54067 45.4533 3.67888 43.4371C3.7786 41.9737 4.40051 40.4456 5.57787 39.5245C6.89081 38.4968 8.43641 37.7052 9.58753 36.4718C10.7684 35.2087 11.4743 33.5363 12.0078 31.9146C13.3234 27.9137 13.7363 23.6066 13.9541 19.4203C14.045 17.6184 14.0074 14.1064 13.9803 12.0395H20.9955C21.2692 17.1854 21.578 33.6981 16.0971 40.5462C12.0726 45.5775 17.3716 79.978 19.0527 90.1937L19.0536 90.1929Z" fill="url(#paint8_linear_236_173158)"/>
<path style="mix-blend-mode:color-burn" d="M32.6061 83.7987L37.8247 52.2909C37.9375 51.7249 37.8859 51.1398 37.6698 50.6053C36.8397 48.5576 33.8902 43.9339 24.1678 43.9094C24.1495 43.9077 24.1337 43.9085 24.1171 43.9085C14.3134 43.933 11.5913 48.611 10.8697 50.6403C10.6895 51.1476 10.6492 51.6917 10.7551 52.2191L15.8249 83.7987H32.6053H32.6061Z" fill="url(#paint9_linear_236_173158)"/>
<path d="M32.0183 83.2835L37.2368 51.7757C37.3496 51.2106 37.298 50.6246 37.0819 50.0901C36.2518 48.0424 33.3023 43.4187 23.5799 43.3942C23.5625 43.3925 23.5458 43.3933 23.5292 43.3933C13.7255 43.4178 11.0034 48.0958 10.2818 50.1251C10.1016 50.6324 10.0613 51.1765 10.1672 51.7039L15.237 83.2835H32.0174H32.0183Z" fill="url(#paint10_linear_236_173158)"/>
<path d="M34.8102 59.1136C34.372 61.8453 33.9355 64.5779 33.4973 67.307C32.7144 72.1914 31.9307 77.0749 31.1452 81.9592H16.1247C15.7626 79.6246 15.4005 77.2874 15.0357 74.9528C14.7969 73.416 14.559 71.8791 14.3237 70.3422C13.7228 66.4323 13.1227 62.5232 12.5069 58.6168C12.1833 56.556 11.6602 53.8741 11.9139 51.7836C12.1492 49.861 13.0309 48.5393 14.636 47.515C16.0311 46.6228 17.6214 46.0429 19.2195 45.6484C19.9971 45.4568 20.7861 45.3125 21.5803 45.2154C22.0719 45.1568 23.1233 45.295 23.5265 45.0859H23.7469C27.3831 45.1183 31.384 45.9187 33.9863 48.66C34.9843 49.7114 35.4698 50.8179 35.6526 51.969C36.0173 54.2389 35.2021 56.6706 34.8102 59.1136Z" fill="url(#paint11_linear_236_173158)"/>
<g style="mix-blend-mode:overlay" opacity="0.5">
<path d="M10.462 52.1947C10.3561 51.6672 10.3964 51.1223 10.5765 50.6158C11.2973 48.5856 14.0203 43.9077 23.7986 43.8841C23.8406 43.8841 23.8564 43.8841 23.873 43.8841C31.7891 43.9051 35.2153 46.9736 36.663 49.2181C35.4104 46.9613 32.0891 43.4161 23.58 43.3951C23.5625 43.3934 23.5458 43.3943 23.5292 43.3943C13.7255 43.4188 11.0034 48.0967 10.2818 50.126C10.1016 50.6333 10.0613 51.1774 10.1672 51.7049L15.237 83.2844H15.453L10.462 52.1956V52.1947Z" fill="white"/>
</g>
<path d="M36.0547 27.7072C33.476 28.0553 30.8878 28.309 28.2969 28.4647C28.3152 28.1507 28.3336 27.8375 28.352 27.5235C28.3677 27.2585 28.3826 26.9943 28.3983 26.7293C28.4499 25.8135 28.5016 24.8994 28.554 23.9862C28.5698 23.7212 28.5847 23.4561 28.6004 23.1911C28.6118 22.9943 28.6231 22.7983 28.6345 22.6024C30.7443 22.5595 32.8541 22.5167 34.9639 22.4791C34.9936 22.6899 35.026 22.898 35.0584 23.1019C35.0995 23.366 35.1415 23.6267 35.1852 23.8812C35.333 24.7201 35.4948 25.5126 35.6742 26.2604C35.7363 26.5193 35.8001 26.7713 35.8648 27.0188C35.9261 27.255 35.9908 27.4833 36.0555 27.7081L36.0547 27.7072Z" fill="url(#paint12_linear_236_173158)"/>
<path d="M19.0578 28.4805C16.3488 28.3283 13.6442 28.0676 10.9492 27.7037C11.0253 27.4361 11.1014 27.1614 11.1723 26.8815C11.2195 26.7057 11.2632 26.5264 11.307 26.3462C11.5038 25.5353 11.6805 24.6729 11.837 23.7518C11.8694 23.5663 11.9018 23.3774 11.9315 23.1858C11.9674 22.9514 12.0024 22.7135 12.0382 22.473C14.2661 22.5123 16.4931 22.5569 18.721 22.6024C18.7332 22.8123 18.7464 23.0232 18.7586 23.2331C18.7709 23.4658 18.7831 23.6975 18.7962 23.9302C18.8513 24.8784 18.9056 25.8275 18.9607 26.7774C18.9738 27.0109 18.9878 27.2436 19.0009 27.4772C19.0201 27.8113 19.0394 28.1463 19.0586 28.4805H19.0578Z" fill="url(#paint13_linear_236_173158)"/>
<path d="M35.1837 23.8812C32.9742 23.9363 30.7638 23.9704 28.5526 23.9862C25.3004 24.008 22.0474 23.9879 18.7952 23.9311C16.4746 23.89 14.1549 23.8305 11.8369 23.7535C11.8693 23.5681 11.9016 23.3791 11.9314 23.1876C14.2065 23.2138 16.4816 23.2296 18.7576 23.2339C22.0378 23.2401 25.3188 23.2252 28.5981 23.1919C30.7516 23.1701 32.9042 23.1403 35.0569 23.1027C35.098 23.3669 35.14 23.6275 35.1837 23.8821V23.8812Z" fill="url(#paint14_linear_236_173158)"/>
<path d="M35.864 27.018C33.3658 27.2681 30.8598 27.4361 28.3511 27.5235C25.2354 27.6311 22.1153 27.6145 18.9996 27.4772C16.386 27.3626 13.775 27.1632 11.1719 26.8824C11.2191 26.7066 11.2628 26.5272 11.3066 26.3471C13.852 26.5622 16.4044 26.7057 18.9594 26.7774C22.104 26.8675 25.2529 26.8509 28.3975 26.7293C30.8266 26.6348 33.2521 26.4783 35.6733 26.2596C35.7354 26.5185 35.7993 26.7704 35.864 27.018Z" fill="url(#paint15_linear_236_173158)"/>
<g style="mix-blend-mode:lighten" opacity="0.65">
<path d="M25.8953 38.474C26.5015 38.4451 26.6966 39.2787 26.1411 39.5228C24.4853 40.2497 22.6624 40.6345 20.8632 40.9022C18.281 41.2862 15.6473 41.469 13.1605 42.2632C10.4638 43.1239 7.87637 44.834 6.85559 47.522C6.71651 47.8876 6.43311 48.1903 6.06748 48.3302C5.15341 48.6792 4.63033 47.8089 4.41865 47.0531C3.63667 44.2497 4.79653 39.8447 7.68044 38.5134C8.46855 38.1495 8.81231 38.4705 9.64678 38.6078C10.7839 38.7941 12.0347 38.7233 13.185 38.7487C15.5029 38.7994 17.8218 38.7731 20.1389 38.7058C22.058 38.6507 23.9771 38.5667 25.8953 38.474Z" fill="white"/>
</g>
<g style="mix-blend-mode:lighten" opacity="0.25">
<path d="M36.23 38.3997C37.9156 38.2431 39.6738 38.216 41.2351 38.8703C42.7965 39.5246 44.1138 41.0168 44.0893 42.7094C44.0797 43.3846 43.6161 44.2086 42.9557 44.0643C42.381 43.9383 42.2218 43.2202 42.0049 42.6735C41.5448 41.5145 40.3866 40.7544 39.1839 40.4229C37.9812 40.0922 36.7146 40.1194 35.4673 40.0896C34.9582 40.0774 31.518 39.9164 31.853 39.1196C32.1819 38.3376 35.5731 38.46 36.2292 38.3988L36.23 38.3997Z" fill="white"/>
</g>
<g style="mix-blend-mode:lighten" opacity="0.5">
<path d="M15.028 12.3605C14.5775 12.3343 14.0824 12.3212 13.7264 12.5993C13.2488 12.9737 13.2453 13.6822 13.2847 14.2875C13.3713 15.6127 13.4588 16.937 13.5454 18.2622C13.5716 18.6628 13.6731 19.1596 14.0623 19.2593C14.3606 19.3354 14.6632 19.1045 14.7953 18.8272C14.9274 18.5499 14.9388 18.2324 14.9886 17.9289C15.1784 16.7655 15.9587 15.7561 16.9287 15.0861C17.681 14.5665 18.5399 14.2341 19.4164 13.991C19.8914 13.8589 21.4947 13.774 21.0985 12.9623C20.8133 12.3789 18.9528 12.5897 18.3895 12.5573C17.269 12.4917 16.1485 12.4261 15.0271 12.3614L15.028 12.3605Z" fill="white"/>
</g>
<g style="mix-blend-mode:lighten" opacity="0.15">
<path d="M45.2963 49.4691C43.4008 59.0874 38.708 81.2078 37.1676 88.4469C36.9087 89.6741 36.034 90.764 34.8776 91.1786C34.6948 91.2434 34.5041 91.2932 34.3064 91.323C33.3233 91.4699 32.0716 91.6142 30.6327 91.7288C28.578 91.8907 26.1288 92 23.5108 92C22.7603 92 22.0238 91.9851 21.3057 91.9615C22.4454 91.4874 23.7347 91.4139 24.9471 91.1253C28.571 90.2628 31.4794 87.4393 33.3023 84.1923C35.1278 80.9419 36.0191 77.2682 36.8938 73.6469C38.3721 67.523 39.8468 61.3966 41.3242 55.271C41.7038 53.693 43.1908 50.1365 45.2954 49.4682L45.2963 49.4691Z" fill="white"/>
</g>
<mask id="mask0_236_173158" style="mask-type:luminance" maskUnits="userSpaceOnUse" x="11" y="45" width="25" height="37">
<path d="M34.8101 59.1136C34.3719 61.8453 33.9354 64.5779 33.4972 67.307C32.7143 72.1914 31.9306 77.0748 31.1451 81.9592H16.1246C15.7625 79.6246 15.4004 77.2874 15.0356 74.9528C14.7968 73.4159 14.5589 71.8791 14.3236 70.3422C13.7227 66.4323 13.1226 62.5232 12.5068 58.6168C12.1832 56.556 11.3295 54.133 11.5823 52.0433C11.8176 50.1207 13.0308 48.5401 14.635 47.5159C16.0301 46.6236 17.6204 46.0437 19.2185 45.6492C19.9961 45.4577 20.7851 45.3133 21.5793 45.2162C22.0709 45.1576 23.1223 45.2958 23.5255 45.0868H23.7459C27.3821 45.1192 31.383 45.9195 33.9853 48.6608C34.9833 49.7122 35.4688 50.8188 35.6516 51.9699C36.0163 54.2397 35.2011 56.6714 34.8092 59.1145L34.8101 59.1136Z" fill="white"/>
</mask>
<g mask="url(#mask0_236_173158)">
<path d="M39.9435 72.222C41.4226 78.512 37.5223 84.8099 31.2323 86.289C24.9422 87.7681 18.6443 83.8678 17.1652 77.5778C15.6861 71.2878 20.2188 67.6822 26.5088 66.2031C32.7989 64.724 38.4635 65.9319 39.9426 72.222H39.9435Z" fill="url(#paint16_linear_236_173158)"/>
<path d="M29.7731 67.0831C30.7292 67.9193 31.6826 68.7537 32.6352 69.5873C30.4335 69.0984 30.1772 67.9945 27.6187 68.1379C27.2225 68.1589 26.8306 68.3111 26.5577 68.6015C25.0733 70.1988 26.3504 72.9523 25.4319 74.944C24.9482 74.0658 24.5843 73.1238 24.3499 72.1502C24.2423 71.705 24.2528 69.8279 23.9047 69.6145C23.0387 69.0853 21.0636 72.019 21.1712 72.7713C20.9832 71.447 21.4188 70.0544 22.2874 69.0415C22.5533 68.7345 22.3486 68.2525 21.948 68.1896C20.6613 67.9884 19.3746 67.7846 18.0879 67.5834C19.9379 67.6184 19.6256 66.8906 22.9688 66.4541C22.7763 65.8908 22.499 65.3555 22.1404 64.8797C22.9145 64.9024 23.679 65.1902 24.2791 65.6791C24.4138 65.7894 24.5555 65.8943 24.7103 65.973C24.7365 65.8401 24.7672 65.7036 24.7742 65.5786C24.7969 65.0852 24.7217 64.5866 24.5581 64.1222C24.5354 64.0522 24.3455 63.6297 24.1654 63.2982C24.028 63.0472 24.126 62.7349 24.3779 62.6002L24.9369 62.3089C25.2176 62.1585 25.5771 62.3002 25.6699 62.6037C25.8754 63.2851 26.0302 63.984 26.13 64.6899C26.1536 64.8534 26.1728 65.0144 26.1903 65.1788C26.8148 64.4624 27.561 63.8554 28.3954 63.4032C28.3884 63.4137 28.3849 63.4233 28.3788 63.4347C28.1444 63.8851 28.0079 64.4231 28.1785 64.9015C28.2922 65.2304 28.5844 65.4998 28.9133 65.5908C30.9925 65.2917 30.7239 64.6103 35.1421 64.5027C33.8099 65.799 31.8969 66.1637 30.0154 66.3413C29.6437 66.3745 29.4932 66.8381 29.774 67.0822L29.7731 67.0831Z" fill="url(#paint17_linear_236_173158)"/>
<g style="mix-blend-mode:color-burn">
<path d="M30.0141 66.3413C31.8965 66.1655 33.8104 65.7981 35.1408 64.5035C34.8346 64.5105 34.5547 64.5219 34.2914 64.5342C32.9899 65.5637 31.2571 65.89 29.5453 66.05C29.1727 66.085 29.0231 66.5469 29.3047 66.7926C30.259 67.6271 31.2133 68.4616 32.1677 69.2961C29.966 68.8062 29.7106 67.7032 27.1486 67.8467C26.7532 67.8685 26.3605 68.019 26.0902 68.3094C24.6933 69.813 25.7412 72.3409 25.1035 74.2933C25.2067 74.5128 25.3161 74.7297 25.4333 74.9423C26.3517 72.9506 25.0738 70.1961 26.5582 68.5989C26.8284 68.3085 27.2203 68.1581 27.6166 68.1362C30.1786 67.9928 30.434 69.0958 32.6356 69.5856C31.6813 68.7511 30.727 67.9166 29.7727 67.0822C29.491 66.8355 29.6406 66.3737 30.0132 66.3387L30.0141 66.3413Z" fill="url(#paint18_linear_236_173158)"/>
</g>
<path style="mix-blend-mode:overlay" opacity="0.5" d="M20.5328 70.7183C20.9509 71.0603 20.9684 71.7006 20.8171 72.2184C20.6658 72.7363 20.3815 73.2174 20.3098 73.7527C20.2704 74.0475 20.3037 74.3676 20.4812 74.6064C20.6579 74.8461 21.0052 74.9729 21.2693 74.8356C21.4705 74.7315 21.5781 74.511 21.6734 74.3055C22.0592 73.4684 22.4441 72.6313 22.8298 71.7942C24.2127 70.7664 23.6188 73.3162 23.6905 75.2668C23.7194 76.0479 24.7568 76.599 25.5265 76.4651C26.1248 76.3611 26.5499 75.8135 26.7739 75.2493C27.0634 74.5172 27.1106 73.6915 26.9068 72.9305C26.7109 72.2009 26.2884 71.4592 26.5132 70.7384C26.7153 70.0912 27.4334 69.6905 28.1104 69.7316C28.7874 69.7728 29.4015 70.1856 29.8179 70.7209C30.2342 71.2563 30.4774 71.9044 30.6724 72.5543C31.1535 74.1629 31.3407 76.0068 30.4599 77.4361C29.8616 78.4061 28.8513 79.0473 27.82 79.5319C26.2342 80.2762 24.4629 80.7346 22.7275 80.4923C20.9921 80.25 19.31 79.2179 18.5936 77.6189C17.9306 76.1389 17.83 74.6563 17.914 73.087C17.9638 72.1511 19.2628 69.6792 20.5346 70.7192L20.5328 70.7183Z" fill="url(#paint19_linear_236_173158)"/>
<path d="M20.2139 67.4312C20.646 67.579 21.1174 67.5038 21.5749 67.4907C22.0315 67.4776 22.5406 67.5554 22.8275 67.9114C23.0392 68.1738 23.0829 68.5403 23.0208 68.8719C22.9587 69.2034 22.8039 69.5086 22.6508 69.8087C22.8441 69.5847 23.0427 69.3556 23.3007 69.2104C23.5587 69.0652 23.892 69.0171 24.1474 69.1658C24.4667 69.3512 24.5647 69.7641 24.59 70.1332C24.6154 70.5023 24.6075 70.8986 24.8157 71.2038C24.744 70.7394 24.6723 70.2705 24.7002 69.8017C24.7282 69.3328 24.8638 68.857 25.1647 68.4966C25.4464 68.159 25.8505 67.9473 26.2625 67.7916C26.9946 67.5143 27.8352 67.3971 28.5481 67.7199C28.2122 67.3175 27.662 67.1399 27.1381 67.1557C26.6141 67.1714 26.1103 67.3586 25.6362 67.5808C25.2636 67.7557 24.8726 67.9587 24.4649 67.9079C24.0827 67.8607 23.7704 67.5983 23.5483 67.2983C23.3549 67.0376 23.2876 66.7787 22.929 66.7761C22.0543 66.7708 21.0317 67.1478 20.2147 67.4312H20.2139Z" fill="#7CB729"/>
<path d="M27.2643 65.0957C27.1514 65.3485 27.0701 65.6809 27.2669 65.876C27.5118 66.1226 27.9833 65.9486 28.2326 66.1882C27.8249 66.0824 27.3972 66.2399 27.0342 66.4515C26.6712 66.6632 26.3362 66.9326 25.9452 67.0787C25.5516 67.2257 25.0617 67.2204 24.7617 66.9291C25.1632 67.0612 25.6364 66.9554 25.9487 66.6685C26.6257 66.036 26.0904 65.3748 26.1289 64.6907C26.1525 64.8543 26.1717 65.0153 26.1892 65.1797C26.8138 64.4633 27.5599 63.8563 28.3944 63.4041C28.3874 63.4145 28.3839 63.4242 28.3778 63.4355C27.9255 63.9341 27.524 64.4983 27.2643 65.0966V65.0957Z" fill="#3F600B"/>
<path d="M25.4331 62.427C25.4978 62.5494 25.28 62.7926 24.9468 62.9702C24.6126 63.1477 24.2899 63.1932 24.2243 63.0708C24.1595 62.9483 24.3774 62.7051 24.7106 62.5276C25.0448 62.35 25.3675 62.3045 25.4331 62.427Z" fill="#7CB729"/>
<g style="mix-blend-mode:lighten" opacity="0.5">
<path d="M18.3798 74.428C18.4008 74.7429 18.4751 75.0779 18.706 75.2922C19.0341 75.5975 19.586 75.545 19.9402 75.2703C20.2945 74.9957 20.4799 74.5557 20.5788 74.1192C20.7607 73.3215 20.6986 72.4704 20.403 71.7076C20.033 70.7516 19.3297 71.6674 19.0131 72.1328C18.56 72.8002 18.3255 73.6198 18.3798 74.4271V74.428Z" fill="white"/>
</g>
<g style="mix-blend-mode:lighten" opacity="0.5">
<path d="M20.817 75.0228C20.719 75.1943 20.6508 75.3954 20.733 75.5931C20.8502 75.873 21.2508 76.0506 21.5937 76.0392C21.9357 76.0278 22.2217 75.8678 22.4465 75.678C22.8568 75.3307 23.1183 74.8654 23.1865 74.3589C23.2723 73.7247 22.4597 73.9399 22.0748 74.065C21.5228 74.2434 21.0689 74.5828 20.817 75.0228Z" fill="white"/>
</g>
</g>
<g style="mix-blend-mode:soft-light" opacity="0.8">
<path d="M35.1554 0.666548C34.921 0.342031 34.621 0.1356 34.2842 0.131227L33.6089 0.125979L29.2083 0.0717466L24.2951 0.00701827L23.5769 0.00177002H23.4204L13.3726 0.125979L12.7192 0.131227C11.9739 0.141723 11.3905 1.09253 11.3643 2.24802H35.1554V0.666548Z" fill="#FFFFEE"/>
</g>
<path d="M18.9569 2.26636C19.061 4.30005 21.0527 5.92351 23.501 5.92351C25.9493 5.92351 27.9411 4.30005 28.0451 2.26636H18.9561H18.9569Z" fill="url(#paint20_linear_236_173158)"/>
<path d="M29.7932 26.2837C30.3637 22.8075 28.0082 19.527 24.532 18.9565C21.0558 18.386 17.7753 20.7416 17.2048 24.2177C16.6343 27.6939 18.9899 30.9744 22.466 31.5449C25.9422 32.1154 29.2227 29.7598 29.7932 26.2837Z" fill="url(#paint21_linear_236_173158)"/>
<path d="M28.8115 26.9485C29.7482 24.0152 28.1297 20.878 25.1964 19.9413C22.2631 19.0046 19.1259 20.6232 18.1892 23.5565C17.2525 26.4897 18.8711 29.627 21.8043 30.5636C24.7376 31.5003 27.8748 29.8818 28.8115 26.9485Z" fill="url(#paint22_linear_236_173158)"/>
<path d="M27.5856 25.1767C27.5856 27.4124 25.7732 29.2248 23.5374 29.2248C21.3017 29.2248 19.4893 27.4124 19.4893 25.1767C19.4893 22.9409 21.3017 22.0854 23.5374 22.0854C25.7732 22.0854 27.5856 22.9409 27.5856 25.1767Z" fill="url(#paint23_linear_236_173158)"/>
<path d="M26.58 22.1965C25.0843 21.8825 25.121 22.1336 24.3959 22.0688C24.2927 22.0129 24.2157 21.8992 24.2026 21.7793C24.1842 21.6 24.2752 21.4259 24.395 21.2921C24.0784 21.3787 23.7784 21.5239 23.5116 21.7146C23.5501 21.4137 23.5597 21.1093 23.5396 20.8066C23.5326 20.6964 23.4232 20.6212 23.3156 20.6483L23.1048 20.7025C23.0095 20.727 22.9509 20.825 22.9771 20.9204C23.0121 21.0472 23.0419 21.2038 23.0454 21.2291C23.0628 21.3988 23.0489 21.572 23.0025 21.7365C22.9902 21.7784 22.9693 21.8222 22.9491 21.865C22.9036 21.8265 22.8643 21.7793 22.8275 21.7312C22.664 21.5187 22.4296 21.3621 22.1706 21.293C22.2537 21.4819 22.3045 21.684 22.3255 21.8887C21.1647 21.7714 21.2128 22.0409 20.5918 21.8825C21.009 22.0522 21.4263 22.2228 21.8444 22.3925C21.9747 22.445 22.0045 22.6243 21.8907 22.7065C21.5172 22.9785 21.2609 23.4124 21.219 23.8734C21.2426 23.6118 22.1409 22.78 22.3902 23.0275C22.4899 23.1264 22.3377 23.7579 22.3395 23.9171C22.3421 24.2635 22.3893 24.6099 22.4829 24.944C22.95 24.3457 22.7375 23.3171 23.3646 22.8963C23.4783 22.8202 23.6227 22.8001 23.7574 22.8246C24.6312 22.9794 24.6303 23.3713 25.3336 23.7107C25.0782 23.3538 24.8228 22.9969 24.5673 22.6409C24.4921 22.5359 24.5787 22.3916 24.7073 22.41C25.3555 22.5001 26.029 22.5281 26.5792 22.1974L26.58 22.1965Z" fill="url(#paint24_linear_236_173158)"/>
<g style="mix-blend-mode:color-burn">
<path d="M22.6923 21.5974C22.729 21.6455 22.7684 21.6927 22.8139 21.7312C22.7675 21.6595 22.7106 21.6035 22.6494 21.551C22.6634 21.5668 22.6792 21.5808 22.6923 21.5974Z" fill="url(#paint25_linear_236_173158)"/>
<path d="M24.7066 22.4091C25.3548 22.4992 26.0283 22.5272 26.5785 22.1966C26.4744 22.1747 26.3799 22.1563 26.2898 22.1397C25.7703 22.3838 25.1606 22.3558 24.571 22.2744C24.4425 22.2569 24.3559 22.4004 24.4311 22.5053C24.6865 22.8622 24.9419 23.2191 25.1973 23.5751C24.4949 23.2357 24.4958 22.8439 23.6211 22.689C23.4864 22.6654 23.3421 22.6847 23.2284 22.7608C22.6388 23.1561 22.7919 24.0912 22.4219 24.6982C22.4394 24.7805 22.4586 24.8618 22.4814 24.9431C22.9484 24.3448 22.7359 23.3162 23.3631 22.8955C23.4768 22.8194 23.6211 22.7992 23.7558 22.8237C24.6296 22.9786 24.6288 23.3704 25.332 23.7098C25.0766 23.3529 24.8212 22.996 24.5658 22.64C24.4906 22.5351 24.5772 22.3908 24.7057 22.4091H24.7066Z" fill="url(#paint26_linear_236_173158)"/>
</g>
<path style="mix-blend-mode:overlay" opacity="0.5" d="M21.1667 23.1333C21.2804 23.2812 21.2358 23.499 21.1439 23.6608C21.0521 23.8235 20.9183 23.9626 20.8518 24.1375C20.815 24.2337 20.801 24.3439 20.8422 24.4384C20.8833 24.5329 20.99 24.6028 21.0897 24.5775C21.1658 24.5582 21.2192 24.4926 21.2673 24.4305C21.4632 24.1795 21.6591 23.9276 21.8559 23.6765C22.4026 23.4395 22.0011 24.2521 21.8708 24.9142C21.8183 25.1793 22.1245 25.4478 22.3948 25.4636C22.6047 25.4758 22.791 25.3254 22.9108 25.153C23.0665 24.9291 23.1479 24.6553 23.1391 24.3824C23.1313 24.1209 23.0473 23.8375 23.1803 23.6127C23.3001 23.4106 23.573 23.3328 23.7978 23.4001C24.0226 23.4675 24.1967 23.6555 24.2946 23.869C24.3926 24.0824 24.4232 24.3194 24.4372 24.5539C24.4722 25.1338 24.3891 25.7697 23.9789 26.1817C23.7007 26.4607 23.3097 26.5972 22.924 26.6785C22.3309 26.8036 21.6976 26.8176 21.1326 26.5989C20.5675 26.3803 20.0829 25.8992 19.9675 25.3035C19.8616 24.7524 19.9447 24.2451 20.0969 23.7229C20.1879 23.4115 20.8212 22.682 21.1667 23.1333Z" fill="url(#paint27_linear_236_173158)"/>
</g>
<defs>
<linearGradient id="paint0_linear_236_173158" x1="0.827467" y1="52.0197" x2="46.1732" y2="52.0197" gradientUnits="userSpaceOnUse">
<stop stop-color="#B0BEEA"/>
<stop offset="0.99" stop-color="#94A1D3"/>
</linearGradient>
<linearGradient id="paint1_linear_236_173158" x1="13.7812" y1="10.8989" x2="33.2199" y2="10.8989" gradientUnits="userSpaceOnUse">
<stop stop-color="#CCCCCC"/>
<stop offset="1" stop-color="#999999"/>
</linearGradient>
<linearGradient id="paint2_linear_236_173158" x1="-7.58307" y1="36.4867" x2="32.0438" y2="55.8825" gradientUnits="userSpaceOnUse">
<stop offset="0.01" stop-color="#E93400"/>
<stop offset="1" stop-color="#C92005"/>
</linearGradient>
<linearGradient id="paint3_linear_236_173158" x1="27.0871" y1="20.7148" x2="39.4975" y2="26.7888" gradientUnits="userSpaceOnUse">
<stop stop-color="#E6E6E6"/>
<stop offset="1" stop-color="white"/>
</linearGradient>
<linearGradient id="paint4_linear_236_173158" x1="20.7497" y1="60.8788" x2="37.3062" y2="68.982" gradientUnits="userSpaceOnUse">
<stop stop-color="#E6E6E6"/>
<stop offset="1" stop-color="white"/>
</linearGradient>
<linearGradient id="paint5_linear_236_173158" x1="11.3617" y1="5.5308" x2="35.494" y2="5.5308" gradientUnits="userSpaceOnUse">
<stop offset="0.01" stop-color="#659B1F"/>
<stop offset="0.99" stop-color="#4F7C0F"/>
</linearGradient>
<linearGradient id="paint6_linear_236_173158" x1="31.2227" y1="11.0589" x2="31.2227" y2="0.0708618" gradientUnits="userSpaceOnUse">
<stop stop-color="#CCCCCC"/>
<stop offset="0.85" stop-color="#CCCCCC"/>
<stop offset="0.99" stop-color="#CCCCCC"/>
</linearGradient>
<linearGradient id="paint7_linear_236_173158" x1="34.577" y1="90.1928" x2="34.577" y2="12.0394" gradientUnits="userSpaceOnUse">
<stop stop-color="#CCCCCC"/>
<stop offset="1" stop-color="#999999"/>
</linearGradient>
<linearGradient id="paint8_linear_236_173158" x1="12.3927" y1="90.1929" x2="12.3927" y2="12.0395" gradientUnits="userSpaceOnUse">
<stop stop-color="#E6E6E6"/>
<stop offset="1" stop-color="white"/>
</linearGradient>
<linearGradient id="paint9_linear_236_173158" x1="13.0276" y1="82.1831" x2="33.8036" y2="46.1977" gradientUnits="userSpaceOnUse">
<stop stop-color="#CCCCCC"/>
<stop offset="1" stop-color="#999999"/>
</linearGradient>
<linearGradient id="paint10_linear_236_173158" x1="12.4397" y1="81.6679" x2="33.2157" y2="45.6825" gradientUnits="userSpaceOnUse">
<stop stop-color="#C18627"/>
<stop offset="0.02" stop-color="#C98D2A"/>
<stop offset="0.1" stop-color="#DD9E32"/>
<stop offset="0.18" stop-color="#ECA937"/>
<stop offset="0.28" stop-color="#F4B03B"/>
<stop offset="0.44" stop-color="#F7B33C"/>
<stop offset="0.58" stop-color="#F1AE39"/>
<stop offset="0.76" stop-color="#E1A133"/>
<stop offset="0.95" stop-color="#C78B29"/>
<stop offset="0.99" stop-color="#C18627"/>
</linearGradient>
<linearGradient id="paint11_linear_236_173158" x1="23.795" y1="81.9584" x2="23.795" y2="45.0851" gradientUnits="userSpaceOnUse">
<stop stop-color="#EDB77D"/>
<stop offset="1" stop-color="#FFD8B0"/>
</linearGradient>
<linearGradient id="paint12_linear_236_173158" x1="32.1753" y1="28.4647" x2="32.1753" y2="22.4782" gradientUnits="userSpaceOnUse">
<stop stop-color="#F9C38A"/>
<stop offset="1" stop-color="#FFDEBB"/>
</linearGradient>
<linearGradient id="paint13_linear_236_173158" x1="15.0026" y1="28.4805" x2="15.0026" y2="22.473" gradientUnits="userSpaceOnUse">
<stop stop-color="#F9C38A"/>
<stop offset="1" stop-color="#FFDEBB"/>
</linearGradient>
<linearGradient id="paint14_linear_236_173158" x1="11.8369" y1="23.5479" x2="35.1837" y2="23.5479" gradientUnits="userSpaceOnUse">
<stop stop-color="#C18627"/>
<stop offset="0.02" stop-color="#C98D2A"/>
<stop offset="0.1" stop-color="#DD9E32"/>
<stop offset="0.18" stop-color="#ECA937"/>
<stop offset="0.28" stop-color="#F4B03B"/>
<stop offset="0.44" stop-color="#F7B33C"/>
<stop offset="0.58" stop-color="#F1AE39"/>
<stop offset="0.76" stop-color="#E1A133"/>
<stop offset="0.95" stop-color="#C78B29"/>
<stop offset="0.99" stop-color="#C18627"/>
</linearGradient>
<linearGradient id="paint15_linear_236_173158" x1="11.171" y1="26.9261" x2="35.864" y2="26.9261" gradientUnits="userSpaceOnUse">
<stop stop-color="#C18627"/>
<stop offset="0.02" stop-color="#C98D2A"/>
<stop offset="0.1" stop-color="#DD9E32"/>
<stop offset="0.18" stop-color="#ECA937"/>
<stop offset="0.28" stop-color="#F4B03B"/>
<stop offset="0.44" stop-color="#F7B33C"/>
<stop offset="0.58" stop-color="#F1AE39"/>
<stop offset="0.76" stop-color="#E1A133"/>
<stop offset="0.95" stop-color="#C78B29"/>
<stop offset="0.99" stop-color="#C18627"/>
</linearGradient>
<linearGradient id="paint16_linear_236_173158" x1="17.4783" y1="78.9218" x2="40.2549" y2="73.567" gradientUnits="userSpaceOnUse">
<stop offset="0.01" stop-color="#E93400"/>
<stop offset="1" stop-color="#C92005"/>
</linearGradient>
<linearGradient id="paint17_linear_236_173158" x1="18.6859" y1="70.1429" x2="35.5318" y2="66.1824" gradientUnits="userSpaceOnUse">
<stop offset="0.01" stop-color="#659B1F"/>
<stop offset="0.99" stop-color="#4F7C0F"/>
</linearGradient>
<linearGradient id="paint18_linear_236_173158" x1="24.3338" y1="71.0373" x2="36.0265" y2="68.2883" gradientUnits="userSpaceOnUse">
<stop stop-color="#CCCCCC"/>
<stop offset="1" stop-color="#999999"/>
</linearGradient>
<linearGradient id="paint19_linear_236_173158" x1="18.1742" y1="76.4543" x2="30.9023" y2="73.4619" gradientUnits="userSpaceOnUse">
<stop stop-color="#E6E6E6"/>
<stop offset="1" stop-color="white"/>
</linearGradient>
<linearGradient id="paint20_linear_236_173158" x1="18.9473" y1="4.0945" x2="28.0565" y2="4.0945" gradientUnits="userSpaceOnUse">
<stop stop-color="#2F4A09"/>
<stop offset="0.99" stop-color="#65AF1F"/>
</linearGradient>
<linearGradient id="paint21_linear_236_173158" x1="23.4981" y1="31.6307" x2="23.4981" y2="18.8749" gradientUnits="userSpaceOnUse">
<stop stop-color="#C18627"/>
<stop offset="0.05" stop-color="#C78B29"/>
<stop offset="0.24" stop-color="#E1A133"/>
<stop offset="0.42" stop-color="#F1AE39"/>
<stop offset="0.56" stop-color="#F7B33C"/>
</linearGradient>
<linearGradient id="paint22_linear_236_173158" x1="23.5" y1="30.8292" x2="23.5" y2="19.6776" gradientUnits="userSpaceOnUse">
<stop stop-color="#F9C38A"/>
<stop offset="1" stop-color="#FFDEBB"/>
</linearGradient>
<linearGradient id="paint23_linear_236_173158" x1="19.4893" y1="25.6551" x2="27.5856" y2="25.6551" gradientUnits="userSpaceOnUse">
<stop offset="0.01" stop-color="#E93400"/>
<stop offset="1" stop-color="#C92005"/>
</linearGradient>
<linearGradient id="paint24_linear_236_173158" x1="20.5918" y1="22.794" x2="26.58" y2="22.794" gradientUnits="userSpaceOnUse">
<stop offset="0.01" stop-color="#659B1F"/>
<stop offset="0.99" stop-color="#4F7C0F"/>
</linearGradient>
<linearGradient id="paint25_linear_236_173158" x1="22.6503" y1="21.6402" x2="22.8139" y2="21.6402" gradientUnits="userSpaceOnUse">
<stop stop-color="#CCCCCC"/>
<stop offset="1" stop-color="#999999"/>
</linearGradient>
<linearGradient id="paint26_linear_236_173158" x1="22.4227" y1="23.5419" x2="26.5794" y2="23.5419" gradientUnits="userSpaceOnUse">
<stop stop-color="#CCCCCC"/>
<stop offset="1" stop-color="#999999"/>
</linearGradient>
<linearGradient id="paint27_linear_236_173158" x1="19.9193" y1="24.8793" x2="24.4433" y2="24.8793" gradientUnits="userSpaceOnUse">
<stop stop-color="#E6E6E6"/>
<stop offset="1" stop-color="white"/>
</linearGradient>
<clipPath id="clip0_236_173158">
<rect width="45.3457" height="92" fill="white" transform="translate(0.827148)"/>
</clipPath>
</defs>
</svg>
