<svg width="32" height="92" viewBox="0 0 32 92" fill="none" xmlns="http://www.w3.org/2000/svg">
<g clip-path="url(#clip0_251_177271)">
<path d="M31.2154 86.995C31.2154 89.3378 27.8122 92 16.8689 92C4.18836 92 0.785156 89.3159 0.785156 86.995V32.3406C0.785156 29.6184 2.79602 25.3039 5.27377 25.0006C11.7008 24.2153 21.9532 22.2488 27.6788 25.1653C29.8372 26.2642 31.2154 29.5512 31.2154 32.3406V86.995Z" fill="#FFD424"/>
<path d="M13.3516 89.0329C10.8874 85.6157 9.67589 81.509 8.96461 77.3987C8.03448 72.0247 7.58843 66.5539 7.38938 61.1075C7.17417 55.2193 6.95635 49.1377 7.56081 43.2666C7.87034 40.2657 8.5144 33.9064 11.8144 34.0398C17.1592 34.256 20.8443 33.7407 21.3008 33.7053C21.6191 33.6808 27.4261 32.7949 27.3787 32.4541C27.3313 32.1128 21.4284 32.3166 20.4837 32.4041C13.9915 33.0049 3.77983 32.8215 3.28792 30.8862C2.31714 27.0661 5.38477 25.4518 5.54734 24.9667C1.92737 25.1517 0.785156 30.9482 0.785156 32.3405V86.995C0.785156 89.2773 4.0831 91.9088 16.252 91.9958C15.14 91.1589 14.1551 90.147 13.3511 89.0324L13.3516 89.0329Z" fill="#FDC423"/>
<path d="M24.4893 24.4545C29.2864 26.6691 29.1962 35.0585 29.2082 38.3846C29.2311 44.5886 28.7752 50.8406 28.524 57.0389C28.2072 64.8536 28.9695 73.8439 28.7126 81.6565C28.6006 85.0753 28.7126 87.2623 27.2567 90.7171C30.1394 89.7281 31.2154 88.3118 31.2154 86.9955V32.3406C31.2154 31.5636 30.6651 27.1219 28.1353 25.4685C26.0275 24.0913 25.8951 24.7708 24.4893 24.4545Z" fill="#FFE066"/>
<path d="M26.4528 19.5599H5.54688V25.1658C5.54688 27.0344 10.9224 27.3012 16.1791 27.3012C21.4358 27.3012 26.4528 26.5018 26.4528 25.1658V19.5599Z" fill="#E99B12"/>
<path d="M27.3783 17.1244V22.7302C27.3783 23.0626 27.0454 23.3951 26.4539 23.715C26.2106 23.8432 25.9235 23.9714 25.6009 24.0913C25.1887 24.2512 24.7125 24.3997 24.1888 24.5357C23.9204 24.6076 23.6364 24.6759 23.3399 24.74C22.8381 24.852 22.304 24.9521 21.7412 25.0401C21.4656 25.0844 21.1821 25.1282 20.8919 25.1642C20.3182 25.2402 19.7236 25.3043 19.1145 25.3523C18.8346 25.3726 18.5486 25.3924 18.2614 25.4086C17.6382 25.4445 16.9999 25.4648 16.359 25.4685H16.2084C15.9754 25.4685 15.7384 25.4685 15.5054 25.4607C14.9359 25.4565 14.3695 25.4409 13.8067 25.4164L12.9537 25.3726C12.3372 25.3366 11.7317 25.2887 11.1476 25.2241C10.8574 25.196 10.5744 25.1642 10.2951 25.1277C9.78601 25.0636 9.30193 24.9917 8.83973 24.9078C8.54635 24.8557 8.26288 24.7994 7.99088 24.7395C7.3958 24.6071 6.85804 24.4591 6.39949 24.2872C6.07642 24.1668 5.78982 24.0386 5.54647 23.9026C4.95921 23.5665 4.62207 23.1741 4.62207 22.7297V17.1238H27.3794L27.3783 17.1244Z" fill="#FFD424"/>
<path d="M15.0302 25.0178C14.062 24.8912 12.8651 24.8005 12.0465 24.1429C10.9423 23.255 10.798 21.4562 12.2273 20.8194C14.5185 19.7991 17.3819 20.4818 19.7658 20.5099C22.1539 20.5386 24.2497 20.007 26.0287 18.1093C26.3237 17.795 26.5983 17.4647 26.8619 17.126H4.62207V22.7318C4.62207 24.6004 10.4879 25.4675 16.2094 25.4675C16.5387 25.4675 16.8665 25.4623 17.1927 25.4534C16.4647 25.2908 15.7394 25.1105 15.0302 25.0178Z" fill="#FAC300"/>
<path d="M16.0005 19.5276C22.2846 19.5276 27.3789 18.4521 27.3789 17.1254C27.3789 15.7987 22.2846 14.7232 16.0005 14.7232C9.71635 14.7232 4.62207 15.7987 4.62207 17.1254C4.62207 18.4521 9.71635 19.5276 16.0005 19.5276Z" fill="#FFE64A"/>
<path d="M11.4233 18.7804C10.7406 18.4328 9.67711 18.178 9.24721 17.4021C8.83503 16.6575 8.91789 15.8707 9.26076 15.1901C6.44795 15.6273 4.62207 16.3313 4.62207 17.1254C4.62207 18.2468 8.26028 19.1884 13.1804 19.4531C12.5832 19.2666 11.9892 19.0686 11.4233 18.7799V18.7804Z" fill="#FFD74A"/>
<path d="M17.1052 18.9774C10.589 18.9774 5.30782 17.9013 5.30782 16.5752C5.30782 16.4611 5.3495 16.349 5.42506 16.2391C4.90867 16.5137 4.62207 16.8123 4.62207 17.1254C4.62207 18.4521 9.71567 19.5276 16.0005 19.5276C20.8189 19.5276 24.935 18.895 26.5941 18.0019C24.4452 18.5933 20.9951 18.9774 17.1052 18.9774Z" fill="#FFF26B"/>
<path d="M19.8384 16.126C19.8384 16.7148 18.0896 17.1922 15.9329 17.1922C13.7761 17.1922 12.0273 16.7148 12.0273 16.126C12.0273 15.5372 13.7756 15.0599 15.9329 15.0599C18.0902 15.0599 19.8384 15.5372 19.8384 16.126Z" fill="#F8AD0F"/>
<path d="M17.8705 0.488281H14.5038C14.5038 0.488281 12.9541 13.789 12.9541 15.657C12.9541 16.558 14.7091 16.792 16.2411 16.792C17.7731 16.792 19.0471 16.3251 19.0471 15.657C19.0471 14.321 17.8711 0.488281 17.8711 0.488281H17.8705Z" fill="#FFD424"/>
<path d="M15.386 12.6275C15.3157 10.1804 15.3667 7.56356 15.5684 5.12853C15.6215 4.48343 15.8248 3.56059 16.3823 3.19583C17.0769 2.74093 16.4141 2.60232 16.0321 2.16044C15.5908 1.64926 15.5772 1.04376 15.7815 0.488281H14.5038C14.5038 0.488281 12.9541 13.789 12.9541 15.657C12.9541 16.558 14.7091 16.792 16.2411 16.792C16.3125 16.792 16.3813 16.7899 16.4511 16.7883C15.5986 15.7128 15.4261 13.9943 15.387 12.6275H15.386Z" fill="#FCBF20"/>
<path d="M17.8706 0.488256C17.8706 0.757656 17.1166 0.97599 16.187 0.97599C15.2574 0.97599 14.5039 0.757135 14.5039 0.488256C14.5039 0.219376 15.2579 0 16.187 0C17.1161 0 17.8706 0.218334 17.8706 0.488256Z" fill="#F49716"/>
<path d="M17.5254 0.40073C17.5254 0.566435 16.9261 0.700875 16.1867 0.700875C15.4473 0.700875 14.8496 0.566435 14.8496 0.40073C14.8496 0.235026 15.4483 0.100586 16.1867 0.100586C16.9251 0.100586 17.5254 0.235026 17.5254 0.40073Z" fill="#B96212"/>
<path d="M18.3075 8.55987C18.1767 6.14986 17.9886 3.90034 17.7702 1.61799C17.7093 0.981744 17.3221 1.3762 17.306 1.93793C17.2476 3.96599 17.1819 6.1113 17.2549 8.13362C17.343 10.5692 17.1528 12.951 17.5686 15.3657C17.7369 16.3417 18.6884 15.5012 18.6884 15.3157C18.6884 12.468 18.3773 9.836 18.3075 8.56039V8.55987Z" fill="#FFE64A"/>
<path d="M6.39891 19.2186V24.2877C6.07584 24.1673 5.78924 24.0392 5.5459 23.9032V19.2186C5.5459 18.9544 5.73609 18.7418 5.97215 18.7418C6.2082 18.7418 6.39891 18.9539 6.39891 19.2186Z" fill="#E99B12"/>
<path d="M8.83908 20.0029V24.9078C8.54571 24.8557 8.26224 24.7995 7.99023 24.7395V20.0029C7.99023 19.7387 8.17991 19.5266 8.41283 19.5266C8.64576 19.5266 8.83908 19.7387 8.83908 20.0029Z" fill="#E99B12"/>
<path d="M11.1484 20.3113V25.2241C10.8581 25.196 10.5752 25.1642 10.2959 25.1277V20.3108C10.2959 20.0466 10.4861 19.8345 10.7221 19.8345C10.9582 19.8345 11.1484 20.0466 11.1484 20.3108V20.3113Z" fill="#E99B12"/>
<path d="M12.9541 25.3727V20.5839C12.9541 20.3233 13.1443 20.1113 13.3803 20.1113C13.6164 20.1113 13.8071 20.3233 13.8071 20.5839V25.4164L12.9541 25.3727Z" fill="#E99B12"/>
<path d="M16.3584 20.5839V25.4685H16.2078C15.9749 25.4685 15.7378 25.4685 15.5049 25.4607V20.5839C15.5049 20.3233 15.6987 20.1113 15.9317 20.1113C16.1646 20.1113 16.3584 20.3233 16.3584 20.5839Z" fill="#E99B12"/>
<path d="M19.1147 20.5839V25.3523C18.8349 25.3727 18.5488 25.3925 18.2617 25.4086V20.5839C18.2617 20.3233 18.4519 20.1113 18.688 20.1113C18.924 20.1113 19.1147 20.3233 19.1147 20.5839Z" fill="#E99B12"/>
<path d="M21.7419 20.3114V25.0402C21.4663 25.0845 21.1828 25.1283 20.8926 25.1642V20.3114C20.8926 20.0472 21.0823 19.8351 21.3157 19.8351C21.5491 19.8351 21.7419 20.0472 21.7419 20.3114Z" fill="#E99B12"/>
<path d="M24.1887 20.0029V24.5353C23.9203 24.6072 23.6363 24.6754 23.3398 24.7395V20.0029C23.3398 19.7387 23.5295 19.5266 23.7661 19.5266C24.0027 19.5266 24.1887 19.7387 24.1887 20.0029Z" fill="#E99B12"/>
<path d="M26.4546 19.4025V23.715C26.2112 23.8432 25.9241 23.9714 25.6016 24.0913V19.4025C25.6016 19.1384 25.7918 18.9263 26.0283 18.9263C26.2649 18.9263 26.4546 19.1384 26.4546 19.4025Z" fill="#E99B12"/>
<path d="M11.9425 21.5734C11.8946 21.9486 11.8633 22.318 11.8622 22.6969C11.8612 22.9845 11.8305 23.2925 12.0618 23.4733C12.092 23.4967 12.1442 23.4967 12.1744 23.4733C12.376 23.3185 12.3713 23.084 12.3891 22.8292C12.4141 22.4676 12.45 22.1028 12.4959 21.7438C12.548 21.3395 11.9951 21.1649 11.9425 21.5734Z" fill="#FFE64A"/>
<path d="M15.1127 20.8538C15.0085 20.6557 14.7881 20.6896 14.6776 20.8538C14.3847 21.2894 14.4577 21.9407 14.4447 22.4644C14.4275 23.1298 14.465 23.777 14.516 24.4331C14.5301 24.6129 14.7339 24.641 14.7907 24.4748C15.0085 23.8448 15.1028 23.2523 15.1877 22.577C15.256 22.0335 15.3706 21.3441 15.1122 20.8543L15.1127 20.8538Z" fill="#FFE64A"/>
<path d="M17.5252 20.8538C17.4705 20.8163 17.396 20.8168 17.3418 20.8538C16.8937 21.1555 16.9817 21.8538 16.9385 22.3712C16.8681 23.207 16.8551 24.0569 17.1089 24.8537C17.1604 25.0173 17.3559 25.06 17.4413 24.9021C17.8212 24.2049 17.8842 23.4462 17.9108 22.6427C17.929 22.0961 17.9973 21.1748 17.5252 20.8538Z" fill="#FFE64A"/>
<path d="M20.5218 21.7938C20.5145 21.1722 19.6746 21.1737 19.66 21.7938C19.6381 22.7052 19.5193 23.8167 19.9101 24.6515C19.9784 24.7979 20.2082 24.812 20.2728 24.6515C20.6162 23.7979 20.5333 22.7099 20.5218 21.7938Z" fill="#FFE64A"/>
<path d="M22.6771 20.9742C21.983 20.761 22.1644 23.9412 22.2488 24.3617C22.291 24.5712 22.5385 24.578 22.6328 24.418C22.9429 23.8907 22.9694 23.1195 22.9908 22.5025C23.0054 22.0893 23.1841 21.1305 22.6766 20.9747L22.6771 20.9742Z" fill="#FFE64A"/>
<path d="M24.9594 19.8017C24.4565 19.8017 24.5024 20.675 24.4941 21.0205C24.4743 21.9022 24.4899 22.7661 24.7937 23.5921C24.8807 23.8281 25.172 23.7963 25.1923 23.5316C25.2575 22.6948 25.3273 21.8589 25.3737 21.0205C25.3924 20.6808 25.4727 19.8017 24.9594 19.8017Z" fill="#FFE64A"/>
<path d="M27.0518 18.5938C27.0429 18.4875 26.8924 18.4458 26.8731 18.5667C26.6516 19.9408 26.7188 21.2076 26.8293 22.5978C26.833 22.6473 26.9007 22.6651 26.9122 22.6103C27.1857 21.2456 27.167 19.9705 27.0518 18.5938Z" fill="#FFE64A"/>
<path d="M25.7959 16.126C24.489 15.5257 21.8122 15.0598 20.3907 15.3569C20.2443 15.3876 20.5392 15.829 21.5559 16.126C22.1786 16.3084 23.3176 16.3172 23.945 16.5006C24.9403 16.7919 24.7037 17.856 25.3905 17.7262C26.9293 17.4355 26.6911 16.5366 25.7964 16.126H25.7959Z" fill="#FFF377"/>
<path d="M25.781 27.8941C22.7197 28.1365 19.7354 28.8238 16.6464 29.0093C13.5455 29.1948 10.5049 28.767 7.42377 28.806C7.30236 28.8076 7.23931 28.9608 7.35916 29.0103C9.9156 30.0645 12.9947 30.2724 15.8002 30.4C19.0705 30.5491 22.938 30.4975 26.0379 29.5074C26.9863 29.2047 26.941 27.8024 25.7816 27.8947L25.781 27.8941Z" fill="#FFE066"/>
<path d="M26.4533 82.324C26.4533 84.314 25.2631 85.9278 23.7942 85.9278H22.7108C21.2419 85.9278 20.0518 84.3145 20.0518 82.324V42.4173C20.0518 40.4268 21.2424 38.8135 22.7108 38.8135H23.7942C25.2626 38.8135 26.4533 40.4268 26.4533 42.4173V82.324Z" fill="#FFE066"/>
</g>
<defs>
<clipPath id="clip0_251_177271">
<rect width="30.4303" height="92" fill="white" transform="translate(0.785156)"/>
</clipPath>
</defs>
</svg>
