<svg width="91" height="92" viewBox="0 0 91 92" fill="none" xmlns="http://www.w3.org/2000/svg">
<g clip-path="url(#clip0_251_177197)">
<path d="M88.3498 87.233C86.4279 89.164 83.8065 90.1953 81.0984 90.2998C80.9939 90.3088 80.9001 90.3179 80.7956 90.3179L61.5817 90.6009L53.1007 90.7343V90.9615L45.4996 90.8479L37.8984 90.9615V90.7343L32.0389 90.6406L26.0099 90.545L10.2036 90.3179C7.39281 90.271 4.63793 89.2289 2.6493 87.233C0.566911 85.1507 -0.994428 81.9504 1.08796 77.4467C3.57781 72.0325 4.45764 70.6785 4.83625 68.4447C4.89395 68.1129 4.94082 67.7632 4.97868 67.3755C5.10128 66.0883 5.14816 64.3935 5.2347 61.7161C5.2347 61.5827 5.24372 61.4511 5.24372 61.3177C5.28158 60.2395 5.31042 59.0172 5.32845 57.683C5.33747 57.2467 5.33747 56.8032 5.34829 56.3488C5.40418 51.2375 5.36631 44.8587 5.31944 38.8946C5.31944 38.4493 5.31042 37.995 5.31042 37.5514C5.30141 36.1686 5.28158 34.8164 5.27256 33.5183C5.22569 28.6341 5.19684 24.4892 5.22569 22.2824C5.24372 21.3359 5.77378 20.4849 6.61755 20.0576C6.82669 19.962 7.00518 19.8394 7.16744 19.6988C7.70652 19.2264 8.01843 18.5341 8.01843 17.7967V11.7299H82.9753V17.7967C82.9753 18.7631 83.5252 19.6321 84.3762 20.0594C84.4609 20.1063 84.5475 20.1532 84.6322 20.2108C85.3335 20.6562 85.7681 21.4314 85.7771 22.2842C85.8149 24.4423 85.8059 28.663 85.7771 33.6337C85.7771 34.93 85.768 36.284 85.7572 37.6668C85.7572 38.1122 85.7482 38.5575 85.7482 39.01C85.7392 39.9187 85.7392 40.8454 85.7284 41.7649C85.7104 47.0277 85.6905 52.3373 85.7104 56.4552V57.7894C85.7194 59.1524 85.7284 60.3441 85.7482 61.3195C85.7482 61.489 85.7572 61.6603 85.7572 61.8207C85.833 65.1994 85.8528 66.9789 86.089 68.3996C86.1178 68.5132 86.1358 68.6268 86.1557 68.7494C86.5812 70.8228 87.5277 72.2903 89.913 77.4485C91.9954 81.954 90.434 85.1525 88.3516 87.2348L88.3498 87.233Z" fill="url(#paint0_linear_251_177197)"/>
<path d="M39.2845 89.3605L10.2248 88.9116C7.64842 88.8719 5.30641 87.8983 3.62788 86.1675C1.28767 83.7624 0.867589 80.9985 2.34419 77.7118C2.99325 76.264 3.53232 75.1029 3.98125 74.1329C5.29559 71.2969 5.89597 70.0024 6.20607 68.1111C6.26737 67.7343 6.31965 67.3359 6.35752 66.8978C6.4711 65.6898 6.51978 64.188 6.59009 61.9145L6.63156 60.6001C6.84972 54.0555 6.74695 42.4735 6.66582 33.1685C6.61714 27.6588 6.57567 22.9008 6.61173 20.4741C6.61894 20.036 6.85873 19.6429 7.23915 19.4464C7.53844 19.2986 7.83231 19.093 8.09554 18.846C8.91948 18.1086 9.40627 17.0052 9.40627 15.8423V11.0411H81.5884V15.8423C81.5884 17.3784 82.4196 18.7595 83.7556 19.4464C83.7844 19.4626 83.8205 19.4825 83.8565 19.5077C84.1919 19.7295 84.3848 20.0864 84.3902 20.4759C84.4317 23.3029 84.3974 29.7411 84.3614 36.558L84.3415 40.456C84.3055 48.7242 84.2802 56.484 84.3632 60.5821L84.383 61.6368C84.4443 64.8208 84.4785 66.575 84.7201 68.0553L84.785 68.4321C85.124 70.1376 85.7136 71.3943 86.8891 73.8968C87.3668 74.9118 87.9456 76.1468 88.6505 77.7136C90.1271 81.0003 89.707 83.7642 87.3686 86.1675C85.7532 87.8334 83.5068 88.8034 81.0422 88.9007C80.9196 88.908 80.8565 88.9134 80.7897 88.9134L61.5579 89.2127L51.7103 89.3623V89.5552L45.5172 89.4615L39.2827 89.5552V89.3623L39.2845 89.3605Z" fill="#B0BEEA"/>
<g style="mix-blend-mode:soft-light" opacity="0.8">
<path d="M88.3531 87.2349C86.3627 89.2325 83.6096 90.2728 80.7934 90.3143L53.1004 90.7308V90.9597L45.4992 90.848L37.8981 90.9597V90.7308L10.205 90.3143C7.38885 90.2728 4.63578 89.2325 2.64534 87.2349C0.564757 85.1543 -0.994779 81.9505 1.084 77.4432C3.94886 71.2284 4.68987 70.3684 4.97473 67.3738C20.6476 71.3889 58.1756 78.9901 86.0904 68.3924C86.4726 70.6677 87.394 71.9911 89.9126 77.4432C91.9932 81.9505 90.4337 85.1543 88.3513 87.2349H88.3531Z" fill="#FFFFEE"/>
</g>
<path d="M86.8853 74.2916C84.5758 69.5012 84.5289 69.2777 84.3846 62.349L84.363 61.3466C84.2656 56.6734 84.3179 46.8077 84.363 38.1032C84.3991 31.4035 84.4315 25.077 84.39 22.3005C84.3846 21.8768 84.1412 21.4946 83.7554 21.3017C82.7981 20.8221 82.1057 19.9945 81.7866 19.0137H9.2078C8.88868 19.9927 8.19816 20.8221 7.239 21.3017C6.85858 21.4928 6.61879 21.875 6.61158 22.3005C6.57552 24.6641 6.61699 29.2959 6.66567 34.6596C6.7468 43.7175 6.84957 54.993 6.63141 61.3664L6.57913 62.9241C6.36818 69.4237 6.3195 69.6419 3.96307 74.5819C3.51775 75.5176 2.98228 76.6372 2.34224 78.0237C0.865636 81.2239 1.28572 83.9157 3.62592 86.2559C5.30445 87.9416 7.64826 88.89 10.2247 88.9278L39.2825 89.3659V89.5534L45.517 89.4633L51.7101 89.5534V89.3659L80.7698 88.9278C83.3444 88.89 85.6882 87.9416 87.3685 86.2559C89.7069 83.9157 90.127 81.2239 88.6504 78.0255C87.9418 76.4912 87.3613 75.285 86.8835 74.2934L86.8853 74.2916Z" fill="url(#paint1_linear_251_177197)"/>
<path style="mix-blend-mode:color-burn" opacity="0.35" d="M82.9784 11.7317H8.02148V16.239H82.9784V11.7317Z" fill="url(#paint2_linear_251_177197)"/>
<g style="mix-blend-mode:lighten" opacity="0.15">
<path d="M88.3533 87.352C86.3647 89.438 83.6116 90.5937 80.7972 90.7379C71.568 91.2157 62.3352 91.5601 53.1024 91.771V92C50.5675 91.9838 48.0344 91.9567 45.4994 91.9189C42.9645 91.9567 40.4314 91.9838 37.8965 92V91.771C28.6637 91.5601 19.4309 91.2157 10.2016 90.7379C7.38727 90.5937 4.63419 89.438 2.64556 87.352C0.566777 85.1777 -0.992759 81.8982 1.08602 77.4882C3.57407 72.193 4.46111 70.875 4.83612 68.6592C31.9306 69.9033 59.0611 70.0024 86.1574 68.9585C86.581 71.0139 87.5294 72.4382 89.9147 77.49C91.9934 81.9 90.4339 85.1795 88.3551 87.3538L88.3533 87.352Z" fill="url(#paint3_linear_251_177197)"/>
</g>
<g style="mix-blend-mode:multiply">
<path d="M84.6287 20.2054C58.8161 19.1579 32.9747 18.9921 7.16211 19.6916C7.70299 19.2192 8.02211 18.5341 8.02211 17.7913V11.7299H82.979V17.7913C82.979 18.7559 83.5199 19.6285 84.3799 20.0594C84.4628 20.1009 84.5457 20.1495 84.6305 20.2054H84.6287Z" fill="url(#paint4_linear_251_177197)"/>
</g>
<path style="mix-blend-mode:overlay" opacity="0.53" d="M9.38611 22.0408C9.61689 22.2283 9.9306 22.3239 10.2371 22.3455C19.9261 23.0018 28.2484 21.8461 39.0119 22.0138C47.0764 22.14 55.1247 22.7133 63.1892 22.8251C63.6796 22.8323 64.197 22.8305 64.6261 22.6123C65.057 22.3942 65.3509 21.884 65.1292 21.4837C64.9272 21.1177 64.4242 21.0077 63.9825 20.941C56.8393 19.8647 49.5608 19.8737 42.3221 19.8881C32.5376 19.9061 22.6629 19.5636 12.8892 19.9512C12.1049 19.9819 7.45337 20.4596 9.38611 22.0426V22.0408Z" fill="url(#paint5_linear_251_177197)"/>
<path style="mix-blend-mode:overlay" opacity="0.53" d="M4.33276 77.0772C4.21557 78.4438 4.93134 79.9673 6.24387 80.3603C7.82504 80.8345 9.3377 79.5941 10.7332 78.7124C13.3727 77.0447 16.5819 76.4984 19.7046 76.4714C22.8272 76.4443 25.9319 76.9005 29.0492 77.0754C30.1399 77.1367 31.2686 77.1565 32.2818 76.7472C33.2951 76.338 34.1659 75.3932 34.1587 74.3007C34.1478 72.5698 32.179 71.6107 30.5095 71.1527C24.76 69.5752 18.758 69.0884 12.8264 69.6347C8.82206 70.0043 4.724 72.5194 4.33096 77.079L4.33276 77.0772Z" fill="url(#paint6_linear_251_177197)"/>
<g style="mix-blend-mode:lighten" opacity="0.15">
<path d="M88.3535 87.2348C86.4316 89.1622 83.8101 90.1971 81.0985 90.2998C80.9939 90.307 80.8966 90.3142 80.7938 90.3142L61.5836 90.6063L53.1026 90.7307V90.9597L45.5014 90.8479L37.9003 90.9597V90.7307L32.0461 90.6406L26.0117 90.5504C29.1668 89.7247 32.2463 88.56 35.1796 87.1591C42.7952 83.5118 49.549 78.2887 55.9512 72.7825C62.1371 67.4567 68.0669 61.8171 73.6993 55.9017C77.8875 51.4971 81.5366 46.2199 85.732 41.7613C85.6978 49.4796 85.6689 57.3026 85.7537 61.3195C85.8294 65.0227 85.8438 66.9086 86.0926 68.3942C86.1142 68.5114 86.1341 68.6304 86.1557 68.7476C86.5794 70.8209 87.5295 72.2849 89.9148 77.4449C91.9954 81.9522 90.4359 85.1561 88.3535 87.2366V87.2348Z" fill="white"/>
</g>
<path d="M85.7281 41.7613C85.71 47.0241 85.6902 52.3337 85.71 56.4516V57.7858C85.7191 59.1488 85.7281 60.3405 85.7479 61.3159C85.7479 61.4854 85.7569 61.6567 85.7569 61.8171C58.9329 62.8773 32.0602 62.8484 5.23438 61.7126C5.23438 61.5791 5.24339 61.4475 5.24339 61.3141C5.28125 60.236 5.3101 59.0136 5.32813 57.6794C5.33714 57.2431 5.33714 56.7996 5.34796 56.3452C5.40385 51.2339 5.36599 44.8552 5.31911 38.8911C5.31911 38.4457 5.3101 37.9914 5.3101 37.5479C5.30108 36.165 5.28125 34.8128 5.27224 33.5147C32.0872 34.6884 58.9509 34.7263 85.7749 33.6283C85.7749 34.9246 85.7659 36.2786 85.7551 37.6615C85.7551 38.1068 85.7461 38.5521 85.7461 39.0046C85.7371 39.9133 85.7371 40.84 85.7263 41.7595L85.7281 41.7613Z" fill="url(#paint7_linear_251_177197)"/>
<path d="M85.7565 37.6633C85.7565 38.1086 85.7475 38.5539 85.7475 39.0065C58.9505 40.0954 32.1157 40.0576 5.32054 38.8929C5.32054 38.4475 5.31152 37.9932 5.31152 37.5497C32.1175 38.7144 58.9433 38.7522 85.7583 37.6633H85.7565Z" fill="url(#paint8_linear_251_177197)"/>
<path d="M85.7092 56.4516V57.7858C58.9321 58.8549 32.1062 58.8261 5.3291 57.6812C5.33812 57.2449 5.33812 56.8014 5.34893 56.347C32.1171 57.4829 58.9321 57.5117 85.7092 56.4516Z" fill="url(#paint9_linear_251_177197)"/>
<path style="mix-blend-mode:overlay" opacity="0.35" d="M34.9507 19.7619C32.6412 20.2271 33.3353 22.771 33.3353 22.771V69.6959C30.3298 73.6281 27.7877 80.564 28.7126 84.031C29.3923 86.5804 31.3737 88.34 32.0462 90.6406L10.2073 90.3142C6.98187 87.2673 5.75047 86.007 5.36464 83.3369C4.37122 76.4641 9.32207 69.9375 9.98555 68.7728C10.768 67.4116 9.90803 35.2184 9.61595 25.095C9.57268 23.5823 10.0667 22.0949 11.0529 20.9464C11.2837 20.6778 11.4856 20.3623 11.6064 19.9963C11.9111 19.0606 12.3943 13.7059 11.9507 10.8626C11.729 9.48339 10.4489 9.35719 10.4489 9.35719L30.5606 3.35162C30.5606 3.35162 34.5956 6.8421 35.0679 11.2088C35.5295 15.4854 36.074 19.5383 34.9507 19.7601V19.7619Z" fill="url(#paint10_linear_251_177197)"/>
<path style="mix-blend-mode:color-burn" opacity="0.65" d="M81.2529 90.0547C81.1104 90.1358 80.9355 90.2332 80.7913 90.3143L61.5811 90.6064C63.5715 82.9637 65.4934 71.791 60.4092 69.696V22.7729C60.4092 22.7729 61.033 20.2271 58.9668 19.7638C57.9608 19.542 57.5768 14.5677 58.7631 10.6355C60.0179 6.47436 62.8918 3.35529 62.8918 3.35529L80.8742 9.36085C80.8742 9.36085 80.721 10.3525 80.5209 11.7335C80.126 14.5767 79.5635 19.0642 79.8412 20C79.9097 20.2307 80.0088 20.4435 80.1242 20.6364C81.0545 22.1941 81.6513 23.9231 81.6044 25.7369C81.3304 36.5058 80.6038 67.4423 81.2907 68.7765C82.1111 70.3811 88.6485 78.2238 81.2529 90.0565V90.0547Z" fill="url(#paint11_linear_251_177197)"/>
<path d="M87.4231 3.83121L86.6532 9.13003L86.5847 9.60239C86.4044 10.823 85.3569 11.7317 84.1219 11.7317H6.88434C5.64212 11.7317 4.59642 10.823 4.41612 9.60239L4.34761 9.13003L3.58497 3.83121C3.52908 3.44358 3.56334 3.06136 3.67512 2.71519C3.99424 1.71637 4.92275 0.980774 6.04778 0.980774H84.9567C86.0799 0.980774 87.0156 1.72358 87.3347 2.71519C87.4465 3.06857 87.4808 3.44358 87.4249 3.83121H87.4231Z" fill="url(#paint12_linear_251_177197)"/>
<path style="mix-blend-mode:color-burn" d="M86.6533 9.13L86.5848 9.60237C86.4045 10.823 85.357 11.7316 84.122 11.7316H6.88438C5.64216 11.7316 4.59646 10.823 4.41617 9.60237L4.34766 9.13H86.6551H86.6533Z" fill="url(#paint13_linear_251_177197)"/>
<g style="mix-blend-mode:soft-light" opacity="0.8">
<path d="M87.3325 2.71519H3.67285C3.99197 1.71637 4.92048 0.980774 6.04551 0.980774H84.9544C86.0776 0.980774 87.0134 1.72358 87.3325 2.71519Z" fill="#FFFFEE"/>
</g>
<path style="mix-blend-mode:color-burn" d="M82.7841 0.980774L80.0364 11.7317H62.1928L61.5762 0.980774H82.7841Z" fill="url(#paint14_linear_251_177197)"/>
<g style="mix-blend-mode:soft-light" opacity="0.8">
<path d="M43.044 0.980774L42.4833 11.7317H9.67898L8.14648 0.980774H43.044Z" fill="#FFFFEE"/>
</g>
<g style="mix-blend-mode:soft-light" opacity="0.8">
<path d="M34.4387 0.980774L34.125 11.7317H16.1497L15.3096 0.980774H34.4387Z" fill="#FFFFEE"/>
</g>
<path style="mix-blend-mode:color-burn" d="M55.0745 0H40.166V31.2358H55.0745V0Z" fill="url(#paint15_linear_251_177197)"/>
<path d="M52.9563 1.33417V31.2358H38.0479V1.33417C38.0479 0.59677 38.6446 0 39.382 0H51.6203C52.3577 0 52.9545 0.59677 52.9545 1.33417H52.9563Z" fill="url(#paint16_linear_251_177197)"/>
<path d="M40.4154 0H39.7051V31.2358H40.4154V0Z" fill="url(#paint17_linear_251_177197)"/>
<path d="M51.3012 0H50.5908V31.2358H51.3012V0Z" fill="url(#paint18_linear_251_177197)"/>
</g>
<defs>
<linearGradient id="paint0_linear_251_177197" x1="20.4298" y1="97.8956" x2="73.3765" y2="6.18585" gradientUnits="userSpaceOnUse">
<stop stop-color="#B0BEEA"/>
<stop offset="0.99" stop-color="#94A1D3"/>
</linearGradient>
<linearGradient id="paint1_linear_251_177197" x1="1.48404" y1="54.2827" x2="89.514" y2="54.2827" gradientUnits="userSpaceOnUse">
<stop stop-color="#B7B02E"/>
<stop offset="0.07" stop-color="#CBC443"/>
<stop offset="0.15" stop-color="#DBD554"/>
<stop offset="0.23" stop-color="#E4DE5E"/>
<stop offset="0.34" stop-color="#E8E262"/>
<stop offset="0.57" stop-color="#D0CA49"/>
<stop offset="0.82" stop-color="#BDB735"/>
<stop offset="0.99" stop-color="#B7B02E"/>
</linearGradient>
<linearGradient id="paint2_linear_251_177197" x1="35.1538" y1="31.9047" x2="55.8443" y2="-3.93398" gradientUnits="userSpaceOnUse">
<stop stop-color="#CCCCCC"/>
<stop offset="1" stop-color="#999999"/>
</linearGradient>
<linearGradient id="paint3_linear_251_177197" x1="45.4994" y1="92" x2="45.4994" y2="68.6592" gradientUnits="userSpaceOnUse">
<stop stop-color="#808080"/>
<stop offset="0.01" stop-color="#838383"/>
<stop offset="0.15" stop-color="#A9A9A9"/>
<stop offset="0.3" stop-color="#C8C8C8"/>
<stop offset="0.45" stop-color="#E0E0E0"/>
<stop offset="0.61" stop-color="#F1F1F1"/>
<stop offset="0.79" stop-color="#FBFBFB"/>
<stop offset="1" stop-color="white"/>
</linearGradient>
<linearGradient id="paint4_linear_251_177197" x1="45.8945" y1="20.2054" x2="45.8945" y2="11.7317" gradientUnits="userSpaceOnUse">
<stop stop-color="white"/>
<stop offset="1" stop-color="#999999"/>
</linearGradient>
<linearGradient id="paint5_linear_251_177197" x1="8.91915" y1="21.2962" x2="65.2067" y2="21.2962" gradientUnits="userSpaceOnUse">
<stop stop-color="#E6E6E6"/>
<stop offset="1" stop-color="white"/>
</linearGradient>
<linearGradient id="paint6_linear_251_177197" x1="4.32014" y1="74.9425" x2="34.1605" y2="74.9425" gradientUnits="userSpaceOnUse">
<stop stop-color="#E6E6E6"/>
<stop offset="1" stop-color="white"/>
</linearGradient>
<linearGradient id="paint7_linear_251_177197" x1="45.5047" y1="62.5906" x2="45.5047" y2="33.5165" gradientUnits="userSpaceOnUse">
<stop stop-color="#202D4C"/>
<stop offset="0.05" stop-color="#253255"/>
<stop offset="0.16" stop-color="#2F3D65"/>
<stop offset="0.29" stop-color="#35436E"/>
<stop offset="0.45" stop-color="#374572"/>
<stop offset="1" stop-color="#202D4C"/>
</linearGradient>
<linearGradient id="paint8_linear_251_177197" x1="45.5331" y1="39.7961" x2="45.5331" y2="37.5497" gradientUnits="userSpaceOnUse">
<stop stop-color="#C18627"/>
<stop offset="0.02" stop-color="#C98D2A"/>
<stop offset="0.1" stop-color="#DD9E32"/>
<stop offset="0.18" stop-color="#ECA937"/>
<stop offset="0.28" stop-color="#F4B03B"/>
<stop offset="0.44" stop-color="#F7B33C"/>
<stop offset="0.58" stop-color="#F1AE39"/>
<stop offset="0.76" stop-color="#E1A133"/>
<stop offset="0.95" stop-color="#C78B29"/>
<stop offset="0.99" stop-color="#C18627"/>
</linearGradient>
<linearGradient id="paint9_linear_251_177197" x1="45.5183" y1="58.5647" x2="45.5183" y2="56.347" gradientUnits="userSpaceOnUse">
<stop stop-color="#C18627"/>
<stop offset="0.02" stop-color="#C98D2A"/>
<stop offset="0.1" stop-color="#DD9E32"/>
<stop offset="0.18" stop-color="#ECA937"/>
<stop offset="0.28" stop-color="#F4B03B"/>
<stop offset="0.44" stop-color="#F7B33C"/>
<stop offset="0.58" stop-color="#F1AE39"/>
<stop offset="0.76" stop-color="#E1A133"/>
<stop offset="0.95" stop-color="#C78B29"/>
<stop offset="0.99" stop-color="#C18627"/>
</linearGradient>
<linearGradient id="paint10_linear_251_177197" x1="5.23122" y1="46.997" x2="35.6142" y2="46.997" gradientUnits="userSpaceOnUse">
<stop stop-color="white"/>
<stop offset="1" stop-color="#B3B3B3"/>
</linearGradient>
<linearGradient id="paint11_linear_251_177197" x1="58.0293" y1="46.979" x2="84.7415" y2="46.979" gradientUnits="userSpaceOnUse">
<stop stop-color="white"/>
<stop offset="0.19" stop-color="#DDDDDD"/>
<stop offset="0.4" stop-color="#BFBFBF"/>
<stop offset="0.61" stop-color="#AAAAAA"/>
<stop offset="0.81" stop-color="#9D9D9D"/>
<stop offset="1" stop-color="#999999"/>
</linearGradient>
<linearGradient id="paint12_linear_251_177197" x1="3.55612" y1="6.35712" x2="87.4501" y2="6.35712" gradientUnits="userSpaceOnUse">
<stop stop-color="#C18627"/>
<stop offset="0.02" stop-color="#C98D2A"/>
<stop offset="0.1" stop-color="#DD9E32"/>
<stop offset="0.18" stop-color="#ECA937"/>
<stop offset="0.28" stop-color="#F4B03B"/>
<stop offset="0.44" stop-color="#F7B33C"/>
<stop offset="0.58" stop-color="#F1AE39"/>
<stop offset="0.76" stop-color="#E1A133"/>
<stop offset="0.95" stop-color="#C78B29"/>
<stop offset="0.99" stop-color="#C18627"/>
</linearGradient>
<linearGradient id="paint13_linear_251_177197" x1="34.7036" y1="28.1798" x2="55.9404" y2="-8.60183" gradientUnits="userSpaceOnUse">
<stop stop-color="#CCCCCC"/>
<stop offset="1" stop-color="#999999"/>
</linearGradient>
<linearGradient id="paint14_linear_251_177197" x1="61.5762" y1="6.35712" x2="82.7841" y2="6.35712" gradientUnits="userSpaceOnUse">
<stop stop-color="#CCCCCC"/>
<stop offset="1" stop-color="#999999"/>
</linearGradient>
<linearGradient id="paint15_linear_251_177197" x1="40.166" y1="15.617" x2="55.0745" y2="15.617" gradientUnits="userSpaceOnUse">
<stop stop-color="#CCCCCC"/>
<stop offset="1" stop-color="#999999"/>
</linearGradient>
<linearGradient id="paint16_linear_251_177197" x1="38.0497" y1="15.617" x2="52.9563" y2="15.617" gradientUnits="userSpaceOnUse">
<stop stop-color="#202D4C"/>
<stop offset="0.05" stop-color="#253255"/>
<stop offset="0.16" stop-color="#2F3D65"/>
<stop offset="0.29" stop-color="#35436E"/>
<stop offset="0.45" stop-color="#374572"/>
<stop offset="1" stop-color="#202D4C"/>
</linearGradient>
<linearGradient id="paint17_linear_251_177197" x1="39.7051" y1="15.617" x2="40.4154" y2="15.617" gradientUnits="userSpaceOnUse">
<stop stop-color="#C18627"/>
<stop offset="0.02" stop-color="#C98D2A"/>
<stop offset="0.1" stop-color="#DD9E32"/>
<stop offset="0.18" stop-color="#ECA937"/>
<stop offset="0.28" stop-color="#F4B03B"/>
<stop offset="0.44" stop-color="#F7B33C"/>
<stop offset="0.58" stop-color="#F1AE39"/>
<stop offset="0.76" stop-color="#E1A133"/>
<stop offset="0.95" stop-color="#C78B29"/>
<stop offset="0.99" stop-color="#C18627"/>
</linearGradient>
<linearGradient id="paint18_linear_251_177197" x1="50.5908" y1="15.617" x2="51.3012" y2="15.617" gradientUnits="userSpaceOnUse">
<stop stop-color="#C18627"/>
<stop offset="0.02" stop-color="#C98D2A"/>
<stop offset="0.1" stop-color="#DD9E32"/>
<stop offset="0.18" stop-color="#ECA937"/>
<stop offset="0.28" stop-color="#F4B03B"/>
<stop offset="0.44" stop-color="#F7B33C"/>
<stop offset="0.58" stop-color="#F1AE39"/>
<stop offset="0.76" stop-color="#E1A133"/>
<stop offset="0.95" stop-color="#C78B29"/>
<stop offset="0.99" stop-color="#C18627"/>
</linearGradient>
<clipPath id="clip0_251_177197">
<rect width="90.792" height="92" fill="white" transform="translate(0.103516)"/>
</clipPath>
</defs>
</svg>
