<svg width="88" height="92" viewBox="0 0 88 92" fill="none" xmlns="http://www.w3.org/2000/svg">
<g clip-path="url(#clip0_240_174705)">
<path d="M14.1201 24.1339C19.1128 29.5961 20.9472 36.047 20.9472 36.047C20.9472 36.047 14.6869 33.6414 9.69425 28.1792C4.70162 22.717 2.86719 16.2661 2.86719 16.2661C2.86719 16.2661 9.1275 18.6716 14.1201 24.1339Z" fill="#7EB341"/>
<path d="M20.8437 36.0053C20.9113 36.0328 20.9472 36.0467 20.9472 36.0467C20.9472 36.0467 19.1128 29.5961 14.1201 24.1336C9.1275 18.6713 2.86719 16.2658 2.86719 16.2658C2.86719 16.2658 2.90131 16.3852 2.97244 16.6053L20.8437 36.0053Z" fill="#8BC447"/>
<path d="M12.996 38.015C19.2144 42.0268 22.63 47.7985 22.63 47.7985C22.63 47.7985 15.9637 47.0654 9.74527 43.0536C3.52689 39.0415 0.111328 33.2699 0.111328 33.2699C0.111328 33.2699 6.77762 34.0029 12.996 38.0147V38.015Z" fill="#7EB341"/>
<path d="M22.5192 47.7846C22.5918 47.7941 22.63 47.7982 22.63 47.7982C22.63 47.7982 19.2144 42.0268 12.996 38.0147C6.77762 34.0029 0.111328 33.2699 0.111328 33.2699C0.111328 33.2699 0.174654 33.3769 0.299571 33.5715L22.5195 47.7846H22.5192Z" fill="#8BC447"/>
<path d="M15.0531 53.5547C22.2885 55.1078 27.5249 59.298 27.5249 59.298C27.5249 59.298 21.0304 60.9702 13.795 59.4171C6.55964 57.8641 1.32324 53.6738 1.32324 53.6738C1.32324 53.6738 7.81777 52.0016 15.0531 53.5547Z" fill="#7EB341"/>
<path d="M27.4167 59.3243C27.4879 59.3076 27.5249 59.298 27.5249 59.298C27.5249 59.298 22.2885 55.1078 15.0531 53.5547C7.81777 52.0016 1.32324 53.6738 1.32324 53.6738C1.32324 53.6738 1.4204 53.7516 1.60575 53.8893L27.4165 59.3243H27.4167Z" fill="#8BC447"/>
<path d="M20.0459 63.6415C27.4455 63.5414 33.4844 66.4582 33.4844 66.4582C33.4844 66.4582 27.5265 69.5369 20.1269 69.6369C12.7273 69.737 6.68848 66.8202 6.68848 66.8202C6.68848 66.8202 12.6463 63.7415 20.0459 63.6415Z" fill="#7EB341"/>
<path d="M33.3846 66.5079C33.4502 66.4755 33.4844 66.4579 33.4844 66.4579C33.4844 66.4579 27.4452 63.5411 20.0459 63.6412C12.6463 63.7412 6.68848 66.8199 6.68848 66.8199C6.68848 66.8199 6.80038 66.874 7.01205 66.9668L33.3849 66.5076L33.3846 66.5079Z" fill="#8BC447"/>
<path d="M31.8187 26.7915C27.0872 32.4813 20.9463 35.1769 20.9463 35.1769C20.9463 35.1769 22.4768 28.6474 27.2086 22.9576C31.9402 17.2678 38.081 14.5722 38.081 14.5722C38.081 14.5722 36.5505 21.1017 31.8187 26.7915Z" fill="#7EB341"/>
<path d="M20.9732 35.069C20.9553 35.1399 20.9463 35.1772 20.9463 35.1772C20.9463 35.1772 27.0872 32.4816 31.8187 26.7918C36.5502 21.102 38.081 14.5725 38.081 14.5725C38.081 14.5725 37.9671 14.6225 37.7592 14.7228L20.9732 35.069Z" fill="#8BC447"/>
<path d="M33.5023 38.3756C28.7708 44.0654 22.6299 46.7609 22.6299 46.7609C22.6299 46.7609 24.1604 40.2314 28.8922 34.5416C33.6237 28.8518 39.7646 26.1562 39.7646 26.1562C39.7646 26.1562 38.2341 32.6858 33.5023 38.3756Z" fill="#7EB341"/>
<path d="M22.6568 46.6531C22.6388 46.7239 22.6299 46.7612 22.6299 46.7612C22.6299 46.7612 28.7708 44.0657 33.5023 38.3759C38.2338 32.6861 39.7646 26.1566 39.7646 26.1566C39.7646 26.1566 39.6507 26.2066 39.4428 26.3069L22.6568 46.6531Z" fill="#8BC447"/>
<path d="M38.6341 51.0949C33.9026 56.7847 27.7617 59.4802 27.7617 59.4802C27.7617 59.4802 29.2922 52.9507 34.0241 47.2609C38.7556 41.5711 44.8965 38.8755 44.8965 38.8755C44.8965 38.8755 43.3659 45.4051 38.6341 51.0949Z" fill="#7EB341"/>
<path d="M27.7886 59.3724C27.7707 59.4432 27.7617 59.4805 27.7617 59.4805C27.7617 59.4805 33.9026 56.785 38.6341 51.0952C43.3657 45.4054 44.8965 38.8759 44.8965 38.8759C44.8965 38.8759 44.7825 38.9259 44.5746 39.0262L27.7886 59.3724Z" fill="#8BC447"/>
<path d="M46.6494 60.5163C41.3349 65.6659 34.9404 67.6877 34.9404 67.6877C34.9404 67.6877 37.1623 61.36 42.4768 56.2104C47.7913 51.0607 54.1858 49.0389 54.1858 49.0389C54.1858 49.0389 51.9639 55.3666 46.6494 60.5163Z" fill="#7EB341"/>
<path d="M34.9786 67.5831C34.9532 67.6516 34.9404 67.6877 34.9404 67.6877C34.9404 67.6877 41.3349 65.6662 46.6494 60.5163C51.9639 55.3666 54.1858 49.0389 54.1858 49.0389C54.1858 49.0389 54.0672 49.0765 53.8495 49.154L34.9786 67.5831Z" fill="#8BC447"/>
<path d="M62.8665 76.5511C58.2396 76.981 53.5587 76.4577 49.1143 75.1157C44.6633 73.7717 40.4621 71.6189 36.7525 68.8175C33.0492 66.021 29.8355 62.5528 27.4028 58.5971C24.5834 54.0128 22.9561 48.8186 22.1001 43.5284C21.1737 37.8039 21.117 31.9756 21.2367 26.1913C21.2512 25.4935 21.2685 24.7958 21.2873 24.098C21.2957 23.7814 20.8041 23.7817 20.7955 24.098C20.6373 29.9729 20.5878 35.8807 21.3449 41.7203C22.0533 47.1857 23.487 52.6156 26.1695 57.4604C28.4371 61.5558 31.5242 65.1856 35.1329 68.1605C38.7511 71.1432 42.8887 73.4857 47.3123 75.0434C51.7243 76.597 56.4309 77.359 61.109 77.1623C61.6957 77.1378 62.2818 77.0973 62.8665 77.0429C63.1791 77.014 63.182 76.5219 62.8665 76.5511Z" fill="#7EB341"/>
<path d="M22.4533 12.983C23.2759 20.3372 20.9632 26.6325 20.9632 26.6325C20.9632 26.6325 17.3169 21.004 16.4942 13.6495C15.6719 6.29501 17.9843 0 17.9843 0C17.9843 0 21.6306 5.6285 22.4533 12.983Z" fill="#7EB341"/>
<path d="M20.9036 26.5379C20.942 26.6001 20.9629 26.6322 20.9629 26.6322C20.9629 26.6322 23.2753 20.3372 22.4529 12.9827C21.6302 5.6285 17.9839 0 17.9839 0C17.9839 0 17.9411 0.116531 17.8691 0.336293L20.9033 26.5379H20.9036Z" fill="#8BC447"/>
<path d="M60.6265 26.2251V9.62036H47.2525V26.2251C47.2525 27.0564 46.6395 27.8519 45.554 28.4302C42.2232 30.2036 40.3428 32.6447 40.3428 35.1948V76.1795C40.3428 78.2979 43.464 80.0152 47.3141 80.0152H60.5652C64.4153 80.0152 67.5365 78.2979 67.5365 76.1795V35.1948C67.5365 32.6447 65.6561 30.2036 62.3253 28.4302C61.2395 27.8522 60.6268 27.0564 60.6268 26.2251H60.6265Z" fill="#DEE0DF"/>
<path d="M42.7122 34.02V76.0922C42.7122 77.5365 44.7765 78.7114 47.3136 78.7114H60.5646C63.102 78.7114 65.1661 77.5365 65.1661 76.0922V34.0202H42.7119L42.7122 34.02Z" fill="#FCF279"/>
<path d="M53.9387 36.4839C60.1385 36.4839 65.1644 35.3808 65.1644 34.02C65.1644 32.6592 60.1385 31.556 53.9387 31.556C47.7388 31.556 42.7129 32.6592 42.7129 34.02C42.7129 35.3808 47.7388 36.4839 53.9387 36.4839Z" fill="#EBE384"/>
<path opacity="0.64" d="M63.3134 42.1616H44.5625V66.1375H63.3134V42.1616Z" fill="white"/>
<g opacity="0.74">
<path d="M52.372 51.2108C52.359 51.2195 52.331 51.2432 52.2879 51.2819C52.0591 51.4719 51.8585 51.6185 51.6858 51.722C51.5132 51.8255 51.3319 51.8773 51.1422 51.8773C51.0213 51.8773 50.8918 51.8588 50.7539 51.8224C50.6157 51.7856 50.4766 51.7359 50.3363 51.6734C50.1961 51.611 50.0654 51.5419 49.9448 51.4664C49.8239 51.3909 49.7224 51.3166 49.6406 51.2432C49.5241 51.1397 49.4368 50.9841 49.3783 50.7771C49.3202 50.57 49.291 50.352 49.291 50.1233C49.291 49.9937 49.2997 49.8752 49.317 49.7673C49.3387 49.5947 49.3613 49.4382 49.385 49.298C49.4087 49.1578 49.4411 49.0088 49.4821 48.8512C49.5232 48.6937 49.5738 48.5502 49.6342 48.4207C49.6947 48.2911 49.7658 48.1899 49.8479 48.1165C49.878 48.0905 49.9127 48.0627 49.9515 48.0323C50.0593 47.9332 50.1597 47.8458 50.2525 47.7701C50.3453 47.6946 50.4445 47.6223 50.5503 47.5532C50.6561 47.4841 50.7649 47.4271 50.8773 47.3817C50.9895 47.3363 51.0951 47.3138 51.1946 47.3138C51.3111 47.3138 51.432 47.3441 51.5572 47.4043C51.6824 47.4647 51.8073 47.5477 51.9325 47.6535C52.0577 47.7594 52.1774 47.8802 52.2916 48.0162C52.4058 48.1521 52.5062 48.2911 52.5926 48.4337C52.7005 48.6063 52.7815 48.8426 52.8352 49.1424C52.889 49.4423 52.9162 49.7326 52.9162 50.0131C52.9162 50.5223 52.7349 50.9216 52.3726 51.2108H52.372ZM49.8991 51.9033L49.7762 51.8192L49.4914 51.4762L49.7956 51.6509L50.0804 51.7932L50.4234 51.9484L49.8991 51.903V51.9033ZM52.0805 49.4501C52.0458 49.2127 52.0265 49.0424 52.0221 48.9386C52.0135 48.7746 51.9918 48.6075 51.9574 48.4369C51.9227 48.2666 51.87 48.109 51.7989 47.9644C51.7278 47.8198 51.6358 47.7033 51.5239 47.6148C51.4117 47.5263 51.2822 47.4821 51.1356 47.4821C51.0578 47.4821 50.965 47.5058 50.8571 47.5532C50.7492 47.6006 50.6379 47.6622 50.5237 47.7377C50.4092 47.8132 50.3037 47.8909 50.2065 47.9708C50.1093 48.0506 50.0307 48.1229 49.9703 48.1876C49.7976 48.3646 49.7115 48.5826 49.7115 48.8414C49.7115 48.9623 49.7308 49.0939 49.7696 49.2361C49.8213 49.4218 49.8763 49.6149 49.9347 49.8156C49.9928 50.0163 50.0521 50.2083 50.1128 50.3916C50.1732 50.5749 50.2282 50.7325 50.2779 50.8641C50.3274 50.9959 50.3696 51.096 50.4043 51.1651C50.4691 51.286 50.5272 51.382 50.5789 51.4531C50.6307 51.5242 50.6793 51.576 50.7247 51.6084C50.7701 51.6408 50.8152 51.6601 50.8606 51.6665C50.906 51.6729 50.9696 51.6784 51.0514 51.6827H51.2651C51.3082 51.687 51.3386 51.6891 51.3556 51.6891C51.4418 51.6891 51.5132 51.6772 51.5693 51.6535C51.6254 51.6298 51.6922 51.5769 51.77 51.495C51.8174 51.4433 51.8648 51.3666 51.9125 51.2652C51.96 51.1639 52.003 51.0483 52.0421 50.9187C52.0808 50.7892 52.1112 50.6576 52.1326 50.524C52.154 50.3904 52.165 50.2649 52.165 50.1487V50.0709C52.1606 50.0365 52.1586 50.0125 52.1586 49.9998C52.1413 49.8402 52.1155 49.6568 52.0808 49.4495L52.0805 49.4501ZM51.4074 48.039L51.2521 47.6119L51.6341 47.9549L51.6925 48.5632L51.4077 48.039H51.4074Z" fill="#706F2E"/>
<path d="M54.7408 52.7968L53.0967 53.0753V53.0172C53.1268 53.0128 53.1658 52.9998 53.2132 52.9784C53.2606 52.9567 53.3104 52.931 53.3621 52.9006C53.4139 52.8703 53.457 52.8434 53.4917 52.8197C53.5261 52.796 53.5455 52.7778 53.5501 52.7647C53.688 52.5404 53.7788 52.1746 53.8219 51.6677C53.865 51.1608 53.8867 50.387 53.8867 49.3472V48.6286C53.8867 48.5725 53.8844 48.3201 53.8803 47.8713C53.876 47.6339 53.8739 47.5046 53.8739 47.4829C53.8739 47.3881 53.8609 47.2834 53.8352 47.1689C53.8092 47.0547 53.7531 46.9694 53.6669 46.9133C53.6282 46.8873 53.5784 46.8746 53.518 46.8746C53.4662 46.8746 53.4145 46.8821 53.3627 46.8971C53.3109 46.9121 53.2679 46.9263 53.2332 46.939V46.8743C53.3066 46.8529 53.4489 46.8075 53.6603 46.7384C53.8199 46.6823 53.9387 46.6412 54.0162 46.6155L54.094 46.5894C54.1284 46.5808 54.1738 46.568 54.2299 46.5507C54.286 46.5336 54.3184 46.525 54.3271 46.525C54.3531 46.4989 54.3907 46.4689 54.4404 46.4344C54.4899 46.4 54.53 46.3827 54.5601 46.3827H54.5731L54.5795 46.3891C54.5882 46.3977 54.5925 46.4408 54.5925 46.5186C54.5925 46.5573 54.5913 46.6071 54.5893 46.6675C54.587 46.7279 54.5838 46.7797 54.5795 46.8228V46.8488L54.4112 48.5708L54.0552 51.7816C54.0552 51.8203 54.0584 51.8788 54.0651 51.9562C54.0714 52.034 54.079 52.1214 54.0876 52.2185C54.0963 52.3157 54.1058 52.4018 54.1168 52.4773C54.1275 52.5528 54.1394 52.6144 54.1524 52.6618C54.1567 52.6791 54.1923 52.6953 54.2591 52.7104C54.3259 52.7254 54.4005 52.7329 54.4823 52.7329C54.5945 52.7329 54.683 52.7179 54.7478 52.6875L54.7414 52.7977L54.7408 52.7968Z" fill="#706F2E"/>
<path d="M55.9967 49.2948C55.958 49.3726 55.9331 49.4232 55.9224 49.4469C55.9117 49.4707 55.8944 49.5074 55.8707 49.5568C55.8469 49.6066 55.8351 49.6335 55.8351 49.6378L55.4855 52.0586C55.4812 52.0974 55.4705 52.1471 55.4531 52.2076C55.4358 52.2853 55.4271 52.3391 55.4271 52.3695C55.4271 52.3865 55.4314 52.3996 55.4401 52.4082C55.4488 52.4212 55.4919 52.4276 55.5696 52.4276C55.6515 52.4276 55.7217 52.4331 55.7801 52.4438C55.8383 52.4545 55.8848 52.4794 55.9192 52.5181L55.8611 52.6153L54.3916 52.3628L54.4627 52.1622C54.4974 52.2096 54.533 52.2399 54.5694 52.2527C54.6062 52.2657 54.6568 52.2744 54.7215 52.2787C54.7906 52.283 54.8488 52.2894 54.8962 52.2981C54.9349 52.2981 54.9598 52.2819 54.9705 52.2495C54.9812 52.2171 54.9867 52.1642 54.9867 52.091C54.991 52.0176 54.9974 51.9638 55.0061 51.9291L55.0839 51.5862C55.0882 51.5645 55.0946 51.5084 55.1032 51.4179C55.1119 51.3274 55.1194 51.2314 55.1258 51.1299C55.1321 51.0284 55.1376 50.9399 55.142 50.8644C55.1463 50.7889 55.1483 50.747 55.1483 50.7383C55.1483 50.4365 55.146 50.2465 55.142 50.1687C55.1376 50.0909 55.129 50.0308 55.1159 49.9874C55.1159 49.983 55.0998 49.9712 55.0674 49.9518C55.035 49.9324 54.9994 49.9099 54.9607 49.8839C54.9219 49.8578 54.8904 49.8385 54.8667 49.8257C54.843 49.8127 54.8288 49.8064 54.8248 49.8064C54.8207 49.8064 54.8161 49.802 54.8118 49.7934C54.7987 49.7589 54.7869 49.7416 54.7762 49.7416C54.7655 49.7416 54.7577 49.7439 54.7536 49.748H54.7406L54.6695 49.5603L54.8962 49.6638C54.9523 49.6898 55.0084 49.7026 55.0645 49.7026C55.1506 49.7026 55.2565 49.6702 55.3817 49.6054C55.4204 49.5883 55.4441 49.5774 55.4528 49.573C55.4658 49.573 55.5023 49.5568 55.563 49.5244C55.6234 49.4921 55.6966 49.4522 55.783 49.4047C55.8649 49.3616 55.9201 49.3324 55.9482 49.3174C55.9762 49.3024 55.9924 49.2948 55.9967 49.2948ZM55.9256 48.7576C55.8738 48.8481 55.8036 48.916 55.7151 48.9614C55.6266 49.0068 55.5263 49.0294 55.4141 49.0294C55.2198 49.0294 55.0471 48.9713 54.8962 48.8547C54.7666 48.7556 54.7019 48.598 54.7019 48.3823C54.7019 48.2874 54.7149 48.1903 54.7406 48.0911C54.7536 48.0306 54.7794 47.9821 54.8184 47.9453C54.8571 47.9086 54.9112 47.871 54.9803 47.832C55.0147 47.8103 55.0408 47.7932 55.0581 47.7802C55.1055 47.7415 55.2177 47.7221 55.3947 47.7221C55.4118 47.7221 55.4314 47.7244 55.4528 47.7285H55.537C55.5456 47.7285 55.5607 47.7435 55.5824 47.7739C55.5954 47.7956 55.6061 47.8126 55.6147 47.8256C55.6234 47.8343 55.6428 47.856 55.6729 47.8904C55.729 47.9552 55.7634 48.0006 55.7764 48.0263C55.8455 48.1342 55.8973 48.2261 55.9317 48.3013C55.9661 48.3768 55.9834 48.4534 55.9834 48.5312C55.9834 48.609 55.9641 48.6844 55.9253 48.7579L55.9256 48.7576ZM55.6601 48.8999C55.7637 48.8264 55.8154 48.7339 55.8154 48.6214C55.8154 48.5523 55.7961 48.48 55.7573 48.4045C55.7186 48.3291 55.6645 48.2568 55.5954 48.1877C55.4615 48.0454 55.358 47.974 55.2845 47.974C55.2498 47.974 55.2209 47.9881 55.1972 48.0159C55.1735 48.0439 55.1463 48.0862 55.1162 48.1423C55.0859 48.2027 55.0601 48.2458 55.0385 48.2718C54.952 48.3713 54.9089 48.4725 54.9089 48.576C54.9089 48.6708 54.9477 48.7637 55.0254 48.8545C55.1116 48.9539 55.2198 49.0034 55.349 49.0034C55.4569 49.0034 55.5604 48.969 55.6599 48.8999H55.6601Z" fill="#706F2E"/>
<path d="M58.6119 48.4921H58.5471C58.4867 48.4965 58.4393 48.5008 58.4049 48.5051C58.3702 48.5095 58.3488 48.5181 58.3401 48.5312C58.3314 48.5442 58.2947 48.6509 58.2299 48.8515C58.1651 49.0522 58.1047 49.2454 58.0486 49.431C57.9925 49.6167 57.9387 49.7968 57.8867 49.9715C57.8349 50.1461 57.8069 50.2508 57.8025 50.2855L57.3882 51.3924L57.3234 51.6061C57.2977 51.7139 57.2803 51.7874 57.2716 51.8261C57.263 51.8649 57.2479 51.9265 57.2262 52.0106C57.2046 52.0948 57.1915 52.141 57.1875 52.1497C57.1832 52.1497 57.1777 52.1355 57.1713 52.1078C57.1649 52.0797 57.1571 52.0375 57.1487 51.9817C57.1357 51.9039 57.1262 51.8522 57.1195 51.8264C57.1132 51.8004 57.1077 51.7877 57.1033 51.7877C57.099 51.7877 57.0892 51.7683 57.0741 51.7296C57.0591 51.6908 57.0472 51.6604 57.0386 51.639C57.0342 51.6347 57.0256 51.6003 57.0128 51.5355L57.0065 51.4968L56.3463 49.9237C56.3116 49.8376 56.274 49.7534 56.233 49.6713C56.1919 49.5895 56.1587 49.5377 56.1326 49.516C56.111 49.4943 56.0592 49.4836 55.9774 49.4836C55.9039 49.4836 55.8501 49.4987 55.8154 49.529V49.4062L57.0065 49.1083L56.9935 49.2572C56.9547 49.2616 56.903 49.2671 56.8382 49.2734C56.7734 49.2798 56.7324 49.2876 56.7153 49.296C56.6679 49.3263 56.6442 49.3671 56.6442 49.4189C56.6442 49.4836 56.6462 49.5224 56.6505 49.5354C56.6505 49.5484 56.6679 49.5851 56.7023 49.6453C56.7193 49.6713 56.7303 49.6884 56.7347 49.697C56.7477 49.7187 56.7659 49.7456 56.7896 49.778C56.8133 49.8104 56.8943 49.9333 57.0325 50.147C57.1704 50.3607 57.2569 50.4954 57.2913 50.5515C57.3 50.5689 57.3063 50.5819 57.3107 50.5903C57.3407 50.6333 57.3581 50.6701 57.3624 50.7004C57.3711 50.7351 57.3818 50.7577 57.3948 50.7684C57.4078 50.7791 57.4208 50.7846 57.4336 50.7846L57.8737 49.5418C57.878 49.5247 57.9341 49.3798 58.042 49.108C58.072 49.0346 58.0894 48.9938 58.0937 48.9851C58.1024 48.9591 58.1154 48.8955 58.1325 48.7943C58.1495 48.6931 58.1585 48.6358 58.1585 48.6228C58.1585 48.5667 58.1304 48.5257 58.0743 48.4999H57.9384L57.9124 48.4221L58.6504 48.3961L58.6116 48.4933L58.6119 48.4921Z" fill="#706F2E"/>
<path d="M60.9517 50.5313C60.8718 50.6261 60.7854 50.7244 60.6929 50.8259C60.6 50.9274 60.5084 51.0257 60.4179 51.1206C60.3274 51.2154 60.2516 51.2912 60.1912 51.347C60.1524 51.3817 60.0897 51.4236 60.0035 51.4733C59.917 51.5231 59.8242 51.5682 59.725 51.6092C59.6256 51.6503 59.5275 51.6859 59.4304 51.7159C59.3332 51.746 59.2566 51.7634 59.2005 51.7677C59.1227 51.7677 59.0441 51.7492 58.9643 51.7128C58.8844 51.676 58.7861 51.6231 58.6696 51.5543C58.5273 51.4681 58.4215 51.4141 58.3524 51.3924C58.2963 51.3753 58.2477 51.3319 58.2067 51.2628C58.1656 51.1937 58.1323 51.1139 58.1063 51.0234C58.0806 50.9329 58.0609 50.8412 58.0482 50.7484C58.0352 50.6556 58.0268 50.5703 58.0225 50.4928V50.4087C58.0225 50.3268 58.0288 50.2328 58.0418 50.127C58.0548 50.0215 58.0731 49.9133 58.0968 49.8034C58.1205 49.6933 58.1485 49.5921 58.1809 49.4992C58.2133 49.4064 58.2466 49.3341 58.2813 49.2824C58.32 49.2263 58.3729 49.1638 58.4397 49.0947C58.5065 49.0256 58.5776 48.9611 58.6534 48.9004C58.7289 48.84 58.8055 48.7902 58.8833 48.7515C58.9611 48.7127 59.0322 48.691 59.097 48.6867C59.1531 48.6867 59.2187 48.6965 59.2945 48.7159C59.3699 48.7353 59.4454 48.7613 59.5212 48.7937C59.5967 48.8261 59.6646 48.8608 59.725 48.8972C59.7855 48.9339 59.8329 48.9695 59.8673 49.0039C59.9321 49.0687 59.9838 49.1485 60.0226 49.2433C60.0613 49.3382 60.0917 49.4397 60.1131 49.5475C60.1388 49.6858 60.1562 49.8778 60.1648 50.1235C60.1692 50.2401 60.1735 50.3135 60.1779 50.3436L59.5888 50.2207C59.5501 50.2164 59.4853 50.212 59.3945 50.2077C59.304 50.2033 59.2476 50.2013 59.2262 50.2013H59.1808C59.1591 50.2057 59.1377 50.2077 59.1161 50.2077C59.0383 50.2077 58.9747 50.1947 58.9252 50.1689C58.8755 50.1429 58.8509 50.0935 58.8509 50.02C58.8509 49.99 58.8552 49.9576 58.8639 49.9229C58.8683 49.9012 58.881 49.8711 58.9027 49.8324C58.9241 49.7936 58.9674 49.7589 59.0322 49.7288C59.0105 49.8066 58.9998 49.8711 58.9998 49.9232C58.9998 49.9923 59.0204 50.0365 59.0614 50.0559C59.1025 50.0753 59.1768 50.0851 59.2846 50.0851C59.3234 50.0851 59.3795 50.0938 59.4529 50.1111C59.5264 50.1285 59.5825 50.1435 59.6212 50.1565V50.1241C59.6169 50.094 59.6149 50.068 59.6149 50.0463C59.6149 49.9772 59.6192 49.85 59.6279 49.6644C59.6409 49.479 59.6472 49.3515 59.6472 49.2824C59.6472 49.2133 59.6429 49.1722 59.6342 49.1595C59.5912 49.0904 59.5154 49.0204 59.4075 48.949C59.2997 48.8778 59.2045 48.8423 59.1227 48.8423C59.0406 48.8466 58.9481 48.8909 58.8443 48.975C58.7407 49.0591 58.6696 49.1424 58.6306 49.2243C58.6219 49.2416 58.6112 49.289 58.5982 49.3668C58.5852 49.4446 58.5724 49.5287 58.5594 49.6192C58.5464 49.7098 58.5346 49.7951 58.5239 49.8749C58.5132 49.9547 58.5077 50.0056 58.5077 50.027C58.512 50.0443 58.514 50.0831 58.514 50.1435C58.5227 50.2687 58.5354 50.3679 58.5528 50.4413C58.5615 50.5104 58.5872 50.5859 58.6306 50.668C58.6737 50.7502 58.7245 50.8311 58.7827 50.9106C58.8408 50.9904 58.8969 51.0607 58.951 51.1211C59.0047 51.1816 59.047 51.2203 59.077 51.2377C59.1288 51.2764 59.1782 51.3218 59.2259 51.3736C59.2647 51.4083 59.2959 51.4317 59.3199 51.4447C59.3436 51.4577 59.3815 51.4641 59.4333 51.4641C59.4807 51.4598 59.5345 51.4415 59.5952 51.4091C59.6556 51.3768 59.7311 51.3325 59.8219 51.2764C59.8867 51.2377 59.9321 51.2117 59.9578 51.1986C60.2687 51.0347 60.4982 50.8933 60.6472 50.7747C60.7961 50.6562 60.8704 50.5255 60.8704 50.3832C60.8704 50.3098 60.8487 50.2343 60.8056 50.1568L61.1358 50.3057C61.0928 50.3618 61.0312 50.4376 60.9514 50.5324L60.9517 50.5313Z" fill="#706F2E"/>
<path d="M52.372 58.9788C52.359 58.9875 52.331 59.0112 52.2879 59.0499C52.0591 59.2399 51.8585 59.3865 51.6858 59.49C51.5132 59.5936 51.3319 59.6453 51.1422 59.6453C51.0213 59.6453 50.8918 59.6268 50.7539 59.5904C50.6157 59.5536 50.4766 59.5039 50.3363 59.4414C50.1961 59.379 50.0654 59.3099 49.9448 59.2344C49.8239 59.1589 49.7224 59.0846 49.6406 59.0112C49.5241 58.9077 49.4368 58.7521 49.3783 58.5451C49.3202 58.338 49.291 58.12 49.291 57.8913C49.291 57.7617 49.2997 57.6432 49.317 57.5353C49.3387 57.3627 49.3613 57.2062 49.385 57.066C49.4087 56.9258 49.4411 56.7768 49.4821 56.6193C49.5232 56.4617 49.5738 56.3182 49.6342 56.1887C49.6947 56.0591 49.7658 55.9579 49.8479 55.8845C49.878 55.8585 49.9127 55.8307 49.9515 55.8003C50.0593 55.7012 50.1597 55.6138 50.2525 55.5381C50.3453 55.4626 50.4445 55.3903 50.5503 55.3212C50.6561 55.2521 50.7649 55.1951 50.8773 55.1497C50.9895 55.1043 51.0951 55.0818 51.1946 55.0818C51.3111 55.0818 51.432 55.1121 51.5572 55.1723C51.6824 55.2327 51.8073 55.3157 51.9325 55.4216C52.0577 55.5274 52.1774 55.6483 52.2916 55.7842C52.4058 55.9201 52.5062 56.0591 52.5926 56.2017C52.7005 56.3743 52.7815 56.6106 52.8352 56.9104C52.889 57.2103 52.9162 57.5006 52.9162 57.7811C52.9162 58.2903 52.7349 58.6896 52.3726 58.9788H52.372ZM49.8991 59.6713L49.7762 59.5872L49.4914 59.2442L49.7956 59.4189L50.0804 59.5612L50.4234 59.7164L49.8991 59.671V59.6713ZM52.0805 57.2181C52.0458 56.9807 52.0265 56.8104 52.0221 56.7066C52.0135 56.5426 51.9918 56.3755 51.9574 56.2049C51.9227 56.0346 51.87 55.877 51.7989 55.7324C51.7278 55.5878 51.6358 55.4713 51.5239 55.3828C51.4117 55.2943 51.2822 55.2501 51.1356 55.2501C51.0578 55.2501 50.965 55.2738 50.8571 55.3212C50.7492 55.3686 50.6379 55.4302 50.5237 55.5057C50.4092 55.5812 50.3037 55.6589 50.2065 55.7388C50.1093 55.8186 50.0307 55.8909 49.9703 55.9556C49.7976 56.1326 49.7115 56.3506 49.7115 56.6094C49.7115 56.7303 49.7308 56.8619 49.7696 57.0041C49.8213 57.1898 49.8763 57.3829 49.9347 57.5836C49.9928 57.7843 50.0521 57.9763 50.1128 58.1596C50.1732 58.3429 50.2282 58.5005 50.2779 58.6321C50.3274 58.764 50.3696 58.864 50.4043 58.9331C50.4691 59.054 50.5272 59.15 50.5789 59.2211C50.6307 59.2922 50.6793 59.344 50.7247 59.3764C50.7701 59.4088 50.8152 59.4281 50.8606 59.4345C50.906 59.4409 50.9696 59.4464 51.0514 59.4507H51.2651C51.3082 59.455 51.3386 59.4571 51.3556 59.4571C51.4418 59.4571 51.5132 59.4452 51.5693 59.4215C51.6254 59.3978 51.6922 59.3449 51.77 59.263C51.8174 59.2113 51.8648 59.1347 51.9125 59.0332C51.96 58.932 52.003 58.8163 52.0421 58.6867C52.0808 58.5572 52.1112 58.4256 52.1326 58.292C52.154 58.1584 52.165 58.033 52.165 57.9167V57.8389C52.1606 57.8045 52.1586 57.7805 52.1586 57.7678C52.1413 57.6082 52.1155 57.4248 52.0808 57.2175L52.0805 57.2181ZM51.4074 55.807L51.2521 55.3799L51.6341 55.7229L51.6925 56.3312L51.4077 55.807H51.4074Z" fill="#706F2E"/>
<path d="M54.4567 57.0625C54.4179 57.1403 54.3931 57.1909 54.3824 57.2146C54.3717 57.2384 54.3543 57.2751 54.3306 57.3245C54.3069 57.3743 54.295 57.4012 54.295 57.4055L53.9455 59.8263C53.9411 59.8651 53.9304 59.9148 53.9131 59.9753C53.8957 60.053 53.887 60.1068 53.887 60.1372C53.887 60.1542 53.8914 60.1673 53.9001 60.1759C53.9087 60.1889 53.9518 60.1953 54.0296 60.1953C54.1114 60.1953 54.1817 60.2008 54.2401 60.2115C54.2982 60.2222 54.3448 60.2471 54.3792 60.2858L54.3211 60.383L52.8516 60.1305L52.9227 59.9299C52.9574 59.9773 52.993 60.0076 53.0294 60.0204C53.0661 60.0334 53.1167 60.0421 53.1815 60.0464C53.2506 60.0507 53.3087 60.0571 53.3561 60.0658C53.3949 60.0658 53.4198 60.0496 53.4305 60.0172C53.4412 59.9848 53.4467 59.9319 53.4467 59.8584C53.451 59.785 53.4574 59.7312 53.466 59.6965L53.5438 59.3536C53.5481 59.3319 53.5545 59.2758 53.5632 59.1853C53.5719 59.0948 53.5794 58.9988 53.5857 58.8973C53.5921 58.7958 53.5976 58.7073 53.6019 58.6318C53.6063 58.5563 53.6083 58.5144 53.6083 58.5057C53.6083 58.2039 53.606 58.0139 53.6019 57.9361C53.5976 57.8583 53.5889 57.7982 53.5759 57.7548C53.5759 57.7505 53.5597 57.7386 53.5273 57.7192C53.4949 57.6999 53.4594 57.6773 53.4206 57.6513C53.3819 57.6253 53.3504 57.6059 53.3267 57.5932C53.3029 57.5801 53.2888 57.5738 53.2844 57.5738C53.2801 57.5738 53.2758 57.5694 53.2714 57.5608C53.2584 57.5264 53.2466 57.509 53.2359 57.509C53.2252 57.509 53.2174 57.5113 53.2133 57.5154H53.2003L53.1292 57.3277L53.3559 57.4312C53.412 57.4573 53.4681 57.47 53.5241 57.47C53.6103 57.47 53.7162 57.4376 53.8414 57.3728C53.8801 57.3558 53.9038 57.3448 53.9125 57.3404C53.9255 57.3404 53.9619 57.3242 54.0227 57.2919C54.0831 57.2595 54.1563 57.2196 54.2427 57.1721C54.3245 57.1291 54.3798 57.0999 54.4078 57.0848C54.4359 57.0698 54.4521 57.0623 54.4564 57.0623L54.4567 57.0625ZM54.3856 56.5253C54.3338 56.6158 54.2635 56.6837 54.175 56.7291C54.0866 56.7745 53.9862 56.7971 53.874 56.7971C53.6797 56.7971 53.5071 56.739 53.3561 56.6224C53.2266 56.5233 53.1618 56.3657 53.1618 56.15C53.1618 56.0551 53.1748 55.958 53.2006 55.8588C53.2136 55.7983 53.2393 55.7498 53.2784 55.713C53.3171 55.6763 53.3712 55.6387 53.4403 55.5997C53.4747 55.578 53.5007 55.5609 53.5181 55.5479C53.5655 55.5092 53.6777 55.4898 53.8547 55.4898C53.8717 55.4898 53.8914 55.4921 53.9128 55.4962H53.9969C54.0056 55.4962 54.0206 55.5112 54.0423 55.5416C54.0553 55.5633 54.066 55.5803 54.0747 55.5933C54.0834 55.602 54.1028 55.6237 54.1328 55.6581C54.1889 55.7229 54.2233 55.7683 54.2364 55.794C54.3055 55.9019 54.3572 55.9938 54.3916 56.069C54.426 56.1445 54.4434 56.2211 54.4434 56.2989C54.4434 56.3767 54.424 56.4521 54.385 56.5256L54.3856 56.5253ZM54.1201 56.6676C54.2236 56.5941 54.2754 56.5016 54.2754 56.3891C54.2754 56.32 54.256 56.2477 54.2173 56.1722C54.1785 56.0968 54.1244 56.0245 54.0553 55.9554C53.9215 55.8131 53.8179 55.7417 53.7445 55.7417C53.7098 55.7417 53.6809 55.7558 53.6572 55.7836C53.6335 55.8116 53.6063 55.8539 53.5762 55.91C53.5458 55.9704 53.5201 56.0135 53.4984 56.0395C53.412 56.139 53.3689 56.2402 53.3689 56.3437C53.3689 56.4385 53.4076 56.5314 53.4854 56.6222C53.5716 56.7213 53.6797 56.7711 53.809 56.7711C53.9168 56.7711 54.0203 56.7367 54.1198 56.6676H54.1201Z" fill="#706F2E"/>
<path d="M56.0944 60.5645L54.4502 60.843V60.7849C54.4803 60.7805 54.5193 60.7675 54.5667 60.7461C54.6141 60.7244 54.6639 60.6987 54.7156 60.6683C54.7674 60.638 54.8105 60.6111 54.8452 60.5874C54.8796 60.5637 54.899 60.5454 54.9033 60.5324C55.0412 60.308 55.132 59.9423 55.1751 59.4354C55.2182 58.9285 55.2399 58.1547 55.2399 57.1149V56.3963C55.2399 56.3402 55.2376 56.0878 55.2335 55.639C55.2292 55.4016 55.2272 55.2723 55.2272 55.2506C55.2272 55.1558 55.2142 55.0511 55.1884 54.9366C55.1627 54.8224 55.1063 54.7371 55.0201 54.681C54.9814 54.655 54.9316 54.6422 54.8712 54.6422C54.8195 54.6422 54.7677 54.6498 54.7159 54.6648C54.6642 54.6798 54.6211 54.694 54.5864 54.7067V54.642C54.6598 54.6206 54.8021 54.5752 55.0135 54.5061C55.1731 54.45 55.2919 54.4089 55.3694 54.3832L55.4472 54.3571C55.4816 54.3485 55.527 54.3357 55.5831 54.3184C55.6392 54.3013 55.6716 54.2927 55.6803 54.2927C55.7063 54.2666 55.7439 54.2366 55.7936 54.2021C55.8431 54.1677 55.8833 54.1504 55.9133 54.1504H55.9264L55.9327 54.1568C55.9414 54.1654 55.9457 54.2085 55.9457 54.2863C55.9457 54.325 55.9446 54.3748 55.9426 54.4352C55.9402 54.4956 55.9371 54.5474 55.9327 54.5905V54.6165L55.7644 56.3385L55.4085 59.5493C55.4085 59.588 55.4117 59.6465 55.4183 59.7239C55.4247 59.8017 55.4322 59.8891 55.4409 59.9862C55.4495 60.0834 55.4591 60.1695 55.4701 60.245C55.4808 60.3205 55.4926 60.3821 55.5056 60.4295C55.51 60.4468 55.5455 60.463 55.6123 60.4781C55.6791 60.4931 55.7537 60.5006 55.8356 60.5006C55.9478 60.5006 56.0362 60.4856 56.101 60.4552L56.0946 60.5654L56.0944 60.5645Z" fill="#706F2E"/>
</g>
<g style="mix-blend-mode:multiply">
<path d="M47.3141 80.0152H60.5651C64.4153 80.0152 67.5365 78.2979 67.5365 76.1795V35.1948C67.5365 34.7998 67.4911 34.4074 67.4026 34.02C67.393 34.0709 60.5018 70.5984 43.7412 79.4736C44.7862 79.8174 46.0082 80.0152 47.3141 80.0152Z" fill="#F2F2F2"/>
</g>
<path d="M50.0469 10.1721L50.3086 12.8219C50.5173 14.9365 51.7046 16.4997 53.1018 16.4997H55.2451C56.6423 16.4997 57.8296 14.9363 58.0384 12.8219L58.3001 10.1721C55.5666 10.842 52.7806 10.842 50.0472 10.1721H50.0469Z" fill="#C4B099"/>
<path d="M54.1674 16.0313C53.899 16.1279 53.1359 16.0741 53.2707 15.6062C53.3788 15.2306 54.3362 15.2647 54.4247 15.6372C54.4716 15.8344 54.349 15.9662 54.1674 16.0316V16.0313Z" fill="#B89E82"/>
<path d="M52.5511 14.5097C52.3002 14.6 51.5862 14.5499 51.712 14.1119C51.8132 13.7605 52.709 13.7923 52.7917 14.1408C52.8354 14.3253 52.7209 14.4484 52.5511 14.5097Z" fill="#B89E82"/>
<path d="M56.2435 14.5011C56.1594 14.5291 56.0677 14.5395 55.9787 14.545C55.2176 14.5904 54.9131 13.7863 55.8731 13.871C56.3239 13.9109 57.0182 14.2434 56.2438 14.5014L56.2435 14.5011Z" fill="#B89E82"/>
<path style="mix-blend-mode:screen" opacity="0.67" d="M48.49 76.1795V35.1948C48.49 33.0102 49.7152 30.8863 51.8509 29.3671C53.0023 28.5479 53.6631 27.4028 53.6631 26.2251L51.907 10.9242H50.9068L51.0285 26.2251C51.0285 27.4028 50.3681 28.5479 49.2164 29.3671C47.0803 30.8863 45.8555 33.0102 45.8555 35.1948V76.1795C45.8555 77.5755 47.4007 78.7111 49.3002 78.7111H51.9351C50.0356 78.7111 48.4903 77.5752 48.4903 76.1795H48.49Z" fill="url(#paint0_linear_240_174705)"/>
<path d="M49.2133 8.49521C52.4918 9.15565 55.8544 9.15565 59.1326 8.49521L59.717 4.29661C59.9356 2.72503 58.8148 1.31046 57.3505 1.31046H50.9954C49.5311 1.31046 48.4103 2.72503 48.6289 4.29661L49.2133 8.49521Z" fill="#B18759"/>
<path d="M54.1731 6.03505C56.7608 6.03505 58.9555 5.26676 59.7278 4.20178C59.8898 2.66837 58.7855 1.31018 57.3507 1.31018H50.9955C49.5607 1.31018 48.4564 2.66837 48.6183 4.20178C49.3904 5.26676 51.5854 6.03505 54.1731 6.03505Z" fill="#CEA77C"/>
<path d="M54.1729 5.49057C51.5719 5.49057 49.7653 4.72893 49.1057 3.98116C49.0883 3.45489 49.2589 2.93758 49.5848 2.54056C49.9483 2.09844 50.4491 1.85468 50.9954 1.85468H57.3505C57.8967 1.85468 58.3979 2.09815 58.761 2.54056C59.0869 2.93729 59.2578 3.45489 59.2402 3.98087C58.5806 4.72864 56.7739 5.49028 54.1729 5.49028V5.49057Z" fill="#B18759"/>
<path d="M50.406 6.57059C50.107 6.67816 49.2572 6.6183 49.4073 6.09694C49.5276 5.67882 50.594 5.7167 50.6926 6.13135C50.7446 6.35083 50.6081 6.49772 50.406 6.57059Z" fill="#9E794F"/>
<path d="M53.1795 7.06389C52.9762 7.13705 52.3982 7.09628 52.5003 6.74177C52.5821 6.45723 53.3073 6.48326 53.3744 6.76519C53.41 6.9144 53.3171 7.01444 53.1795 7.06389Z" fill="#9E794F"/>
<path d="M56.0209 7.12201C55.7699 7.21223 55.0559 7.1622 55.1817 6.72413C55.2829 6.3728 56.1787 6.4046 56.2614 6.75304C56.3051 6.93753 56.1906 7.06071 56.0209 7.12201Z" fill="#9E794F"/>
<path d="M54.1459 5.28931C53.8949 5.37952 53.1809 5.3295 53.3067 4.89142C53.4079 4.54009 54.3038 4.5719 54.3865 4.92034C54.4301 5.10482 54.3156 5.228 54.1459 5.28931Z" fill="#9E794F"/>
<path d="M56.7855 3.08823C56.5345 3.17844 55.8206 3.12842 55.9464 2.69034C56.0476 2.33901 56.9434 2.37082 57.0261 2.71926C57.0698 2.90374 56.9553 3.02692 56.7855 3.08823Z" fill="#9E794F"/>
<path d="M51.895 4.67716C51.8095 4.70579 51.7163 4.7162 51.6255 4.72169C50.8515 4.76767 50.5418 3.94992 51.518 4.03609C51.9763 4.07657 52.6827 4.41489 51.895 4.67716Z" fill="#9E794F"/>
<path d="M54.1616 3.08448C54.0761 3.1131 53.9829 3.12351 53.8922 3.12901C53.1181 3.17498 52.8084 2.35724 53.7846 2.44341C54.2429 2.48389 54.9493 2.82221 54.1616 3.08448Z" fill="#9E794F"/>
<path d="M51.021 8.13175C50.9354 8.16038 50.8423 8.17079 50.7515 8.17628C49.9774 8.22226 49.6678 7.40451 50.644 7.49068C51.1023 7.53116 51.8087 7.86948 51.021 8.13175Z" fill="#9E794F"/>
<path d="M51.4731 3.19869C51.3685 3.23801 51.2548 3.25276 51.1438 3.26028C50.1977 3.32389 49.8191 2.19501 51.0125 2.31386C51.5729 2.36967 52.436 2.83695 51.4731 3.19869Z" fill="#9E794F"/>
<path d="M57.3728 6.90456C57.4544 6.93521 57.5431 6.94678 57.6293 6.95256C58.3664 7.00201 58.6616 6.12267 57.7317 6.2152C57.295 6.25858 56.6224 6.62263 57.3728 6.90456Z" fill="#9E794F"/>
<path d="M55.9222 4.30934C55.8381 4.33739 55.7464 4.3478 55.6574 4.3533C54.8963 4.39869 54.5918 3.59454 55.5518 3.67926C56.0026 3.71917 56.6969 4.0517 55.9225 4.30963L55.9222 4.30934Z" fill="#9E794F"/>
<path d="M57.544 3.69605C57.6282 3.72409 57.7198 3.7345 57.8089 3.73971C58.57 3.78511 58.8744 2.98095 57.9144 3.06568C57.4636 3.10558 56.7694 3.43812 57.5437 3.69605H57.544Z" fill="#9E794F"/>
<path d="M54.6341 8.47353C54.55 8.50158 54.4583 8.51199 54.3693 8.51748C53.6082 8.56288 53.3037 7.75872 54.2637 7.84345C54.7145 7.88335 55.4088 8.21589 54.6344 8.47382L54.6341 8.47353Z" fill="#9E794F"/>
<path d="M58.1683 8.39894C58.0842 8.42699 57.9925 8.4374 57.9035 8.44289C57.1424 8.48829 56.8379 7.68414 57.7979 7.76886C58.2487 7.80877 58.943 8.1413 58.1686 8.39923L58.1683 8.39894Z" fill="#9E794F"/>
<path d="M60.1845 13.0353C56.2193 13.8513 52.1285 13.8513 48.1633 13.0353C46.8791 12.7728 45.8555 11.4154 45.8555 10.1264C45.8555 8.83411 46.8791 8.09849 48.1633 8.36104C52.1285 9.17705 56.2193 9.17705 60.1845 8.36104C61.469 8.09849 62.4923 8.83411 62.4923 10.1264C62.4923 11.4154 61.4687 12.7728 60.1845 13.0353Z" fill="#E6E6E6"/>
<path d="M48.0558 81.0221C50.0292 77.8194 47.9792 72.9742 43.477 70.2001C38.9748 67.426 33.7253 67.7734 31.7519 70.9761C29.7785 74.1788 31.8285 79.024 36.3307 81.7981C40.8329 84.5722 46.0824 84.2248 48.0558 81.0221Z" fill="#A6A437"/>
<g style="mix-blend-mode:screen">
<path d="M37.6592 73.8867C39.7451 73.4094 41.3135 72.487 41.1623 71.8264C41.0111 71.1659 39.1977 71.0174 37.1118 71.4948C35.0259 71.9721 33.4575 72.8945 33.6087 73.5551C33.7598 74.2156 35.5733 74.3641 37.6592 73.8867Z" fill="#333333"/>
</g>
<g style="mix-blend-mode:screen">
<path d="M39.0577 72.5039C39.79 72.446 40.3661 72.1772 40.3445 71.9036C40.3229 71.6299 39.7116 71.455 38.9793 71.5129C38.247 71.5707 37.6709 71.8395 37.6925 72.1132C37.7141 72.3869 38.3253 72.5618 39.0577 72.5039Z" fill="#4D4D4D"/>
</g>
<g style="mix-blend-mode:screen">
<path d="M36.4619 71.1378C37.5392 70.9897 38.3551 70.452 38.2842 69.9369C38.2134 69.4217 37.2827 69.1242 36.2054 69.2724C35.1282 69.4205 34.3123 69.9582 34.3831 70.4733C34.454 70.9884 35.3847 71.286 36.4619 71.1378Z" fill="#4D4D4D"/>
</g>
<g style="mix-blend-mode:multiply">
<path d="M33.6699 79.6387C34.599 80.6273 35.7438 81.5139 37.0606 82.2154C41.719 84.6973 46.768 83.9252 48.3381 80.4912C48.9037 79.2544 48.9408 77.841 48.5391 76.4227C48.5391 76.4227 46.31 83.9909 33.6699 79.6384V79.6387Z" fill="#E6E6E6"/>
</g>
<g style="mix-blend-mode:multiply">
<path d="M46.2385 72.465C45.9265 79.386 40.2006 81.2528 33.2891 79.2122C34.2791 80.3717 35.5578 81.4142 37.0614 82.2154C41.7198 84.6973 46.7688 83.9252 48.339 80.4912C49.4491 78.0634 48.5226 74.9549 46.2388 72.4647L46.2385 72.465Z" fill="#E6E6E6"/>
</g>
<path d="M38.2591 84.3019C38.6628 80.5618 34.7278 77.0698 29.47 76.5023C24.2123 75.9349 19.6229 78.5068 19.2192 82.247C18.8155 85.9871 22.7505 89.4791 28.0082 90.0466C33.266 90.614 37.8554 88.0421 38.2591 84.3019Z" fill="#A6A437"/>
<g style="mix-blend-mode:screen">
<path d="M25.8001 82.3326C27.4777 81.0043 28.4967 79.4969 28.0761 78.9657C27.6555 78.4344 25.9545 79.0805 24.2769 80.4088C22.5993 81.737 21.5802 83.2444 22.0008 83.7757C22.4215 84.3069 24.1224 83.6609 25.8001 82.3326Z" fill="#333333"/>
</g>
<g style="mix-blend-mode:screen">
<path d="M26.4753 80.4633C27.1494 80.0741 27.5935 79.5815 27.4674 79.3629C27.3412 79.1444 26.6925 79.2828 26.0184 79.672C25.3443 80.0612 24.9001 80.5538 25.0263 80.7723C25.1525 80.9908 25.8012 80.8525 26.4753 80.4633Z" fill="#4D4D4D"/>
</g>
<g style="mix-blend-mode:screen">
<path d="M23.5369 80.3661C24.4457 79.769 24.9509 78.9326 24.6653 78.498C24.3798 78.0635 23.4116 78.1953 22.5028 78.7925C21.5941 79.3896 21.0889 80.226 21.3745 80.6605C21.66 81.0951 22.6282 80.9633 23.5369 80.3661Z" fill="#4D4D4D"/>
</g>
<g style="mix-blend-mode:multiply">
<path d="M24.6768 89.2365C25.9407 89.7289 27.3555 90.0369 28.8464 90.1036C34.1193 90.3399 38.3451 87.4706 38.2849 83.695C38.2632 82.3354 37.6887 81.0434 36.7159 79.9359C36.7159 79.9359 37.9599 87.727 24.677 89.2365H24.6768Z" fill="#E6E6E6"/>
</g>
<g style="mix-blend-mode:multiply">
<path d="M32.9351 77.3531C35.6313 83.7352 31.2655 87.8841 24.1484 89.0158C25.541 89.6367 27.1438 90.0276 28.8458 90.1037C34.1187 90.3399 38.3445 87.4706 38.2843 83.695C38.2418 81.0258 36.0682 78.6185 32.9349 77.3531H32.9351Z" fill="#E6E6E6"/>
</g>
<path d="M46.2325 89.7206C50.8773 87.1924 53.1846 82.4644 51.3862 79.1603C49.5877 75.8562 44.3644 75.2272 39.7197 77.7554C35.0749 80.2836 32.7675 85.0116 34.566 88.3157C36.3644 91.6199 41.5877 92.2488 46.2325 89.7206Z" fill="#A6A437"/>
<g style="mix-blend-mode:screen">
<path d="M40.5422 83.79C42.2896 82.555 43.3892 81.1053 42.9981 80.5519C42.607 79.9986 40.8734 80.5511 39.126 81.7861C37.3785 83.0211 36.2789 84.4708 36.67 85.0242C37.0611 85.5775 38.7947 85.025 40.5422 83.79Z" fill="#333333"/>
</g>
<g style="mix-blend-mode:screen">
<path d="M41.3187 81.9601C42.0129 81.6082 42.4833 81.1404 42.3692 80.9154C42.2551 80.6903 41.5998 80.7932 40.9055 81.1451C40.2113 81.497 39.7409 81.9647 39.855 82.1898C39.9691 82.4149 40.6244 82.312 41.3187 81.9601Z" fill="#4D4D4D"/>
</g>
<g style="mix-blend-mode:screen">
<path d="M38.39 81.7026C39.3299 81.1558 39.8798 80.3481 39.6183 79.8987C39.3569 79.4492 38.3829 79.5282 37.443 80.075C36.5032 80.6218 35.9532 81.4294 36.2147 81.8789C36.4761 82.3283 37.4501 82.2494 38.39 81.7026Z" fill="#4D4D4D"/>
</g>
<g style="mix-blend-mode:multiply">
<path d="M43.04 90.9544C44.3595 90.6395 45.6977 90.0866 46.9613 89.2926C51.43 86.4837 53.2694 81.7186 51.0694 78.6495C50.2771 77.5443 49.0693 76.8096 47.6388 76.4533C47.6388 76.4533 53.0985 82.1489 43.04 90.9547V90.9544Z" fill="#E6E6E6"/>
</g>
<g style="mix-blend-mode:multiply">
<path d="M43.0608 76.4831C48.9117 80.1933 47.6862 86.0899 42.4805 91.0735C43.9789 90.7907 45.5187 90.1991 46.9613 89.2926C51.43 86.4837 53.2693 81.7186 51.0694 78.6495C49.5143 76.4796 46.3567 75.7388 43.0605 76.4834L43.0608 76.4831Z" fill="#E6E6E6"/>
</g>
<path d="M80.5791 73.7286C75.3462 78.9612 68.9844 81.0831 68.9844 81.0831C68.9844 81.0831 71.1065 74.7213 76.3394 69.4887C81.5724 64.256 87.9342 62.1342 87.9342 62.1342C87.9342 62.1342 85.812 68.496 80.5791 73.7286Z" fill="#7EB341"/>
<path d="M69.0211 80.9778C68.9965 81.0467 68.9844 81.0831 68.9844 81.0831C68.9844 81.0831 75.3462 78.9612 80.5791 73.7286C85.812 68.496 87.9342 62.1342 87.9342 62.1342C87.9342 62.1342 87.8162 62.1735 87.5999 62.2544L69.0214 80.9778H69.0211Z" fill="#8BC447"/>
<path d="M75.1816 69.2602C74.6796 76.6433 71.2817 82.4251 71.2817 82.4251C71.2817 82.4251 68.6975 76.2365 69.1995 68.8533C69.7014 61.4702 73.0994 55.6885 73.0994 55.6885C73.0994 55.6885 75.6836 61.8771 75.1816 69.2602Z" fill="#7EB341"/>
<path d="M71.2395 82.3219C71.2664 82.3898 71.2812 82.4254 71.2812 82.4254C71.2812 82.4254 74.6791 76.6436 75.1811 69.2605C75.6831 61.8774 73.0988 55.6888 73.0988 55.6888C73.0988 55.6888 73.0358 55.7961 72.9259 55.9993L71.2393 82.3221L71.2395 82.3219Z" fill="#8BC447"/>
<path d="M79.2259 81.3695C79.6296 77.6294 75.6946 74.1374 70.4368 73.5699C65.1791 73.0024 60.5897 75.5744 60.186 79.3145C59.7823 83.0547 63.7173 86.5467 68.975 87.1141C74.2328 87.6816 78.8222 85.1096 79.2259 81.3695Z" fill="#A6A437"/>
<g style="mix-blend-mode:screen">
<path d="M66.7678 79.3839C68.578 78.243 69.7527 76.8535 69.3914 76.2802C69.0301 75.7069 67.2697 76.1671 65.4595 77.308C63.6492 78.4489 62.4745 79.8384 62.8358 80.4117C63.1971 80.9849 64.9575 80.5248 66.7678 79.3839Z" fill="#333333"/>
</g>
<g style="mix-blend-mode:screen">
<path d="M67.633 77.6131C68.345 77.2985 68.8395 76.8564 68.7375 76.6256C68.6355 76.3948 67.9757 76.4627 67.2637 76.7773C66.5518 77.0919 66.0573 77.5341 66.1593 77.7649C66.2613 77.9957 66.9211 77.9277 67.633 77.6131Z" fill="#4D4D4D"/>
</g>
<g style="mix-blend-mode:screen">
<path d="M64.7216 77.2007C65.6891 76.7045 66.2811 75.9271 66.0439 75.4645C65.8066 75.0018 64.8299 75.0289 63.8623 75.5251C62.8947 76.0213 62.3027 76.7987 62.54 77.2613C62.7773 77.724 63.754 77.6969 64.7216 77.2007Z" fill="#4D4D4D"/>
</g>
<g style="mix-blend-mode:multiply">
<path d="M65.6396 86.3038C66.9036 86.7963 68.3184 87.1042 69.8093 87.171C75.0822 87.4073 79.308 84.5379 79.2478 80.7624C79.2261 79.4027 78.6516 78.1108 77.6788 77.0033C77.6788 77.0033 78.9228 84.7944 65.6399 86.3038H65.6396Z" fill="#E6E6E6"/>
</g>
<g style="mix-blend-mode:multiply">
<path d="M73.899 74.4205C76.5951 80.8026 72.2294 84.9515 65.1123 86.0832C66.5049 86.7041 68.1077 87.095 69.8097 87.171C75.0825 87.4073 79.3083 84.538 79.2482 80.7624C79.2057 78.0932 77.0321 75.6859 73.8987 74.4205H73.899Z" fill="#E6E6E6"/>
</g>
<path d="M55.9023 91.6748C61.0604 90.5086 64.5693 86.5887 63.7397 82.9195C62.9101 79.2502 58.0562 77.2211 52.8981 78.3873C47.74 79.5535 44.2311 83.4734 45.0607 87.1427C45.8903 90.8119 50.7443 92.841 55.9023 91.6748Z" fill="#A6A437"/>
<g style="mix-blend-mode:screen">
<path d="M52.1907 84.746C54.208 84.0324 55.6602 82.9361 55.4342 82.2973C55.2083 81.6584 53.3897 81.719 51.3724 82.4326C49.3551 83.1462 47.9029 84.2425 48.1289 84.8813C48.3548 85.5202 50.1734 85.4595 52.1907 84.746Z" fill="#333333"/>
</g>
<g style="mix-blend-mode:screen">
<path d="M53.436 83.1953C54.1998 83.0453 54.7795 82.723 54.7309 82.4754C54.6823 82.2278 54.0237 82.1487 53.2599 82.2987C52.4961 82.4487 51.9164 82.771 51.965 83.0186C52.0136 83.2662 52.6722 83.3453 53.436 83.1953Z" fill="#4D4D4D"/>
</g>
<g style="mix-blend-mode:screen">
<path d="M50.6863 82.1514C51.7395 81.8806 52.4882 81.2529 52.3587 80.7493C52.2292 80.2457 51.2705 80.057 50.2174 80.3277C49.1643 80.5985 48.4155 81.2263 48.545 81.7299C48.6745 82.2335 49.6332 82.4222 50.6863 82.1514Z" fill="#4D4D4D"/>
</g>
<g style="mix-blend-mode:multiply">
<path d="M52.4961 91.9893C53.8517 92.046 55.2897 91.8788 56.7219 91.4593C61.7871 89.9747 64.8557 85.8915 63.5758 82.3389C63.1149 81.0593 62.1529 80.0236 60.8739 79.2908C60.8739 79.2908 64.5743 86.259 52.4964 91.9893H52.4961Z" fill="#E6E6E6"/>
</g>
<g style="mix-blend-mode:multiply">
<path d="M56.4613 78.0715C61.0791 83.2361 58.2925 88.5755 51.9258 91.9511C53.4444 92.0873 55.0875 91.9381 56.7224 91.459C61.7876 89.9744 64.8561 85.8912 63.5763 82.3386C62.6715 79.8269 59.8355 78.2536 56.4613 78.0712V78.0715Z" fill="#E6E6E6"/>
</g>
</g>
<defs>
<linearGradient id="paint0_linear_240_174705" x1="49.7591" y1="78.7111" x2="49.7591" y2="10.9245" gradientUnits="userSpaceOnUse">
<stop stop-color="white"/>
<stop offset="0.15" stop-color="#FBFBFB"/>
<stop offset="0.28" stop-color="#F1F1F1"/>
<stop offset="0.4" stop-color="#E0E0E0"/>
<stop offset="0.52" stop-color="#C7C7C7"/>
<stop offset="0.63" stop-color="#A8A8A8"/>
<stop offset="0.73" stop-color="#818181"/>
<stop offset="0.84" stop-color="#535353"/>
<stop offset="0.94" stop-color="#1F1F1F"/>
<stop offset="0.99"/>
</linearGradient>
<clipPath id="clip0_240_174705">
<rect width="87.8225" height="92" fill="white" transform="translate(0.111328)"/>
</clipPath>
</defs>
</svg>
