<svg width="64" height="92" viewBox="0 0 64 92" fill="none" xmlns="http://www.w3.org/2000/svg">
<path d="M59.5922 0.897365C59.6645 0.970881 59.7323 1.05014 59.7966 1.1317C60.0666 1.47631 60.2641 1.88869 60.3583 2.35505C60.6294 3.68524 60.9384 5.35658 61.2371 7.32544C61.2486 7.4024 61.2601 7.47936 61.2715 7.55632C61.2842 7.63788 61.2957 7.71944 61.3083 7.80214C63.3059 21.3532 64.7165 48.1821 51.4996 74.9672C51.3698 75.2303 51.2377 75.491 51.101 75.7483C51.0769 75.7931 51.0539 75.8379 51.0298 75.8827C51.0195 75.9011 51.0103 75.9195 50.9999 75.9379C50.9724 75.9884 50.9448 76.039 50.9184 76.0895C50.8966 76.1297 50.8747 76.1699 50.8529 76.2101C50.8173 76.2767 50.7805 76.3422 50.7438 76.4077C50.7047 76.4778 50.6657 76.5478 50.6266 76.6167C50.5887 76.6834 50.5508 76.75 50.5129 76.8155C50.4991 76.8396 50.4853 76.8649 50.4704 76.889C50.4084 76.9958 50.3463 77.1026 50.2832 77.2095C50.1637 77.4105 50.0419 77.6104 49.9179 77.8079C49.8834 77.8631 49.849 77.9182 49.8134 77.9734C49.7846 78.0193 49.7559 78.0641 49.7272 78.1089C49.6916 78.1652 49.6548 78.2215 49.6181 78.2778C49.5859 78.3271 49.5549 78.3754 49.5227 78.4248C49.4699 78.5052 49.4159 78.5856 49.3631 78.666C49.2999 78.7614 49.2356 78.8567 49.1712 78.9497C49.0862 79.0749 48.9989 79.199 48.9116 79.3231C48.8347 79.4322 48.7566 79.5402 48.6784 79.6493C48.6371 79.7044 48.5969 79.7607 48.5567 79.8158C48.5222 79.8629 48.4866 79.91 48.4522 79.9571C48.4016 80.0249 48.3511 80.0927 48.3005 80.1593C48.1799 80.319 48.0582 80.4775 47.9341 80.6349C47.8916 80.6889 47.8491 80.7417 47.8066 80.7957C47.5091 81.169 47.2047 81.5354 46.8922 81.8915C46.8474 81.9421 46.8026 81.9938 46.7578 82.0443C46.713 82.0948 46.6682 82.1454 46.6234 82.1959C44.6155 84.437 42.3354 86.3301 39.8818 87.8372C39.7508 87.9176 39.6199 87.9968 39.4878 88.0749C39.4223 88.114 39.3557 88.153 39.2902 88.1909C39.2247 88.23 39.1581 88.2679 39.0915 88.3058C38.9628 88.3793 38.833 88.4517 38.7032 88.5241C38.6952 88.5287 38.6883 88.5321 38.6802 88.5367C38.6205 88.5689 38.5608 88.6022 38.5022 88.6343C38.4976 88.6366 38.493 88.6389 38.4884 88.6424C38.4229 88.678 38.3563 88.7136 38.2908 88.7481C38.1564 88.8193 38.022 88.8894 37.8865 88.9594C37.751 89.0284 37.6154 89.0961 37.4799 89.1639C37.4132 89.1972 37.3466 89.2294 37.2788 89.2615C37.2053 89.2971 37.1307 89.3327 37.0571 89.3672C36.9928 89.3971 36.9296 89.4269 36.8653 89.4568C36.7275 89.52 36.5908 89.5832 36.4518 89.6441C36.3829 89.6751 36.3139 89.7049 36.2439 89.7348C36.1072 89.7945 35.9705 89.852 35.8338 89.9094C35.6925 89.968 35.5512 90.0254 35.4088 90.0817C35.2824 90.1322 35.1549 90.1816 35.0263 90.2299C35.0079 90.2368 34.9895 90.2437 34.9711 90.2506C34.8367 90.3011 34.7012 90.3516 34.5656 90.3999C34.4944 90.4252 34.4243 90.4504 34.3531 90.4757C34.2118 90.5262 34.0705 90.5745 33.9281 90.6216C33.7857 90.6698 33.6432 90.7158 33.5019 90.7606C33.4893 90.7652 33.4755 90.7686 33.4617 90.7732C33.3319 90.8134 33.2033 90.8536 33.0723 90.8915C33.0011 90.9134 32.9287 90.934 32.8575 90.9547C32.7863 90.9754 32.7139 90.9961 32.6427 91.0156C32.5704 91.0351 32.4991 91.0558 32.4268 91.0753C32.3567 91.0948 32.2855 91.1132 32.2143 91.1316C32.1247 91.1557 32.0351 91.1787 31.9455 91.2005C31.8938 91.2132 31.8432 91.2258 31.7915 91.2384C31.7824 91.2407 31.772 91.243 31.7628 91.2453C31.6962 91.2614 31.6296 91.2775 31.563 91.2936C31.5078 91.3062 31.4527 91.32 31.3975 91.3326C31.3573 91.3418 31.3171 91.351 31.2781 91.3602C31.2241 91.3728 31.169 91.3843 31.115 91.3969C31.0472 91.4119 30.9794 91.4257 30.9116 91.4406C30.8611 91.4509 30.8117 91.4613 30.7612 91.4716H30.76C30.6658 91.4911 30.5716 91.5095 30.4763 91.5279C30.3304 91.5555 30.1857 91.5819 30.0398 91.6083C29.9915 91.6163 29.9433 91.6244 29.8939 91.6336C29.8526 91.6405 29.8101 91.6474 29.7687 91.6543C29.678 91.6692 29.5861 91.6841 29.4953 91.6991C29.3552 91.7209 29.2139 91.7416 29.0726 91.7611C29.014 91.7691 28.9554 91.7772 28.898 91.7841C28.8429 91.7921 28.7866 91.799 28.7314 91.8047C28.4144 91.8438 28.0974 91.8771 27.7803 91.9047C27.6884 91.9127 27.5965 91.9208 27.5058 91.9276C27.4529 91.9311 27.4013 91.9357 27.3484 91.9391C27.2439 91.946 27.1393 91.9529 27.0348 91.9587C26.9521 91.9632 26.8683 91.9678 26.7856 91.9713C26.7787 91.9713 26.7729 91.9713 26.766 91.9713C26.7499 91.9713 26.735 91.9724 26.7189 91.9736C26.6661 91.9759 26.6144 91.9782 26.5616 91.9805C26.5443 91.9805 26.5271 91.9805 26.511 91.9828C26.5099 91.9828 26.5076 91.9828 26.5064 91.9828C26.4432 91.9851 26.3812 91.9874 26.318 91.9885C26.2422 91.9908 26.1664 91.9931 26.0894 91.9943C26.0251 91.9943 25.9608 91.9966 25.8965 91.9966C25.8838 91.9966 25.8723 91.9966 25.8609 91.9966C25.7942 91.9966 25.7288 91.9977 25.6633 91.9977C25.6013 91.9977 25.5404 91.9977 25.4783 91.9977C25.4703 91.9977 25.4623 91.9977 25.4542 91.9977C25.4462 91.9977 25.4393 91.9977 25.4312 91.9977C25.2624 91.9977 25.0924 91.9954 24.9235 91.9908C24.8638 91.9885 24.8041 91.9874 24.7443 91.9851C24.7202 91.9851 24.6961 91.9828 24.672 91.9828C24.6191 91.9816 24.5674 91.9793 24.5146 91.977C24.4238 91.9736 24.3342 91.969 24.2435 91.9644C24.1792 91.961 24.116 91.9575 24.0517 91.9541C23.9965 91.9506 23.9414 91.9472 23.8863 91.9426C23.8644 91.9414 23.8415 91.9391 23.8196 91.938C23.7921 91.9368 23.7645 91.9345 23.7358 91.9322C23.7048 91.9299 23.6738 91.9276 23.6439 91.9253C23.6393 91.9253 23.6358 91.9253 23.6313 91.9253C23.6152 91.9253 23.5979 91.923 23.5819 91.9219C23.5784 91.9219 23.5761 91.9219 23.5715 91.9219C23.4681 91.9139 23.3659 91.9047 23.2637 91.8955C23.1982 91.8897 23.1327 91.884 23.0661 91.8771C23.0259 91.8737 22.9845 91.8691 22.9443 91.8645C22.9099 91.861 22.8743 91.8564 22.8387 91.853C22.7686 91.8461 22.6997 91.838 22.6307 91.8288C22.5963 91.8243 22.5618 91.8208 22.5285 91.8162C22.4826 91.8105 22.4366 91.8047 22.3895 91.799C22.3286 91.7909 22.2666 91.7829 22.2057 91.7749C22.0518 91.7542 21.8979 91.7312 21.744 91.7071C21.7072 91.7013 21.6716 91.6956 21.6348 91.6899C21.6268 91.6887 21.6187 91.6876 21.6107 91.6864C21.5475 91.6761 21.4855 91.6657 21.4223 91.6543C21.3568 91.6428 21.2914 91.6324 21.227 91.6198H21.2247C21.1374 91.6037 21.0501 91.5876 20.9628 91.5715C20.9468 91.5693 20.9295 91.5658 20.9134 91.5624C20.8985 91.5601 20.8847 91.5566 20.8698 91.5532C20.7928 91.5394 20.717 91.5233 20.6412 91.5084C20.5769 91.4946 20.5114 91.482 20.4471 91.4682C20.3437 91.4463 20.2403 91.4234 20.1381 91.4004C20.0439 91.3797 19.9508 91.3579 19.8578 91.3349C19.7912 91.3188 19.7234 91.3028 19.6568 91.2867C19.6258 91.2786 19.5948 91.2706 19.5637 91.2637C19.3673 91.2143 19.172 91.1626 18.9768 91.1086C18.9274 91.0948 18.8791 91.0811 18.8309 91.0673C18.7861 91.0546 18.7424 91.042 18.6988 91.0294C18.6494 91.0144 18.5988 91.0006 18.5494 90.9857C18.4001 90.9409 18.2508 90.895 18.1015 90.8467C16.9643 90.4837 15.8443 90.0323 14.7473 89.4913C14.5945 89.4155 14.4429 89.3396 14.2935 89.2615C14.2315 89.2294 14.1706 89.1972 14.1086 89.1639C1.44315 82.4452 -3.13553 65.7478 3.90479 51.4811C18.7183 21.4612 45.7321 5.59206 55.6969 0.548163C55.7234 0.534379 55.7498 0.521743 55.7751 0.509108C55.9095 0.440186 56.0415 0.374711 56.1702 0.310384C57.3706 -0.288083 58.7398 0.0174683 59.591 0.896217L59.5922 0.897365Z" fill="#383334"/>
<path opacity="0.38" d="M59.5921 0.897367C59.6645 0.970883 59.7322 1.05014 59.7966 1.1317C60.0665 1.47631 60.2641 1.88869 60.3583 2.35506C60.6294 3.68524 60.9384 5.35658 61.237 7.32544C61.2485 7.4024 61.26 7.47936 61.2715 7.55633C61.2841 7.63788 61.2956 7.71944 61.3082 7.80215C63.3058 21.3532 64.7164 48.1821 51.4996 74.9672C51.3698 75.2303 51.2377 75.491 51.101 75.7483C51.0769 75.7931 51.0539 75.8379 51.0298 75.8827C51.0194 75.9011 51.0102 75.9195 50.9999 75.9379C50.9723 75.9884 50.9448 76.0389 50.9183 76.0895C50.8965 76.1297 50.8747 76.1699 50.8529 76.2101C50.8173 76.2767 50.7805 76.3422 50.7437 76.4077C50.7047 76.4777 50.6656 76.5478 50.6266 76.6167C50.5887 76.6834 50.5508 76.75 50.5128 76.8155C50.4991 76.8396 50.4853 76.8649 50.4703 76.889C50.4083 76.9958 50.3463 77.1026 50.2831 77.2095C50.1636 77.4105 50.0419 77.6104 49.9178 77.8079C49.8834 77.8631 49.8489 77.9182 49.8133 77.9733C49.7846 78.0193 49.7559 78.0641 49.7271 78.1089C49.6915 78.1652 49.6548 78.2215 49.618 78.2777C49.5859 78.3271 49.5548 78.3754 49.5227 78.4248C49.4698 78.5052 49.4158 78.5856 49.363 78.666C49.2998 78.7613 49.2355 78.8555 49.1712 78.9497C49.0862 79.0749 48.9989 79.199 48.9116 79.3231C48.8346 79.4322 48.7565 79.5402 48.6784 79.6493C48.637 79.7044 48.5968 79.7607 48.5566 79.8158C48.5222 79.8629 48.4866 79.91 48.4521 79.9571C48.4016 80.0249 48.351 80.0927 48.3005 80.1593C48.1799 80.319 48.0569 80.4775 47.934 80.6349C47.8915 80.6888 47.849 80.7417 47.8065 80.7957C47.509 81.1702 47.2035 81.5354 46.8922 81.8915C46.8474 81.9421 46.8026 81.9938 46.7578 82.0443C46.713 82.0948 46.6682 82.1454 46.6234 82.1959C45.6321 83.3021 44.5741 84.3233 43.4622 85.2549C42.3215 86.2118 41.1246 87.0733 39.8829 87.8371C39.7519 87.9176 39.621 87.9968 39.4889 88.0749C39.4234 88.114 39.3568 88.153 39.2913 88.1909C39.2258 88.23 39.1592 88.2679 39.0926 88.3058C38.9639 88.3793 38.8341 88.4517 38.7043 88.5241C38.6963 88.5287 38.6894 88.5321 38.6813 88.5367C38.6216 88.5689 38.5619 88.6022 38.5033 88.6343C38.4987 88.6366 38.4941 88.6389 38.4895 88.6424C38.424 88.678 38.3574 88.7136 38.2919 88.7481C38.1575 88.8193 38.0231 88.8894 37.8876 88.9594C37.752 89.0283 37.6165 89.0961 37.481 89.1639C37.4143 89.1972 37.3477 89.2294 37.2799 89.2615C37.2064 89.2971 37.1318 89.3327 37.0582 89.3672C36.9939 89.3971 36.9307 89.4269 36.8664 89.4568C36.7286 89.52 36.5919 89.5832 36.4529 89.644C36.384 89.6751 36.315 89.7049 36.245 89.7348C36.1083 89.7945 35.9716 89.852 35.8349 89.9094C35.6936 89.968 35.5523 90.0254 35.4099 90.0817C35.2824 90.1322 35.1549 90.1816 35.0274 90.2299C35.009 90.2368 34.9906 90.2437 34.9722 90.2505C34.8378 90.3011 34.7023 90.3516 34.5667 90.3999C34.4955 90.4251 34.4254 90.4504 34.3542 90.4757C34.2129 90.5251 34.0716 90.5745 33.9292 90.6216C33.7868 90.6687 33.6455 90.7146 33.503 90.7606C33.4904 90.7652 33.4766 90.7686 33.4628 90.7732C33.333 90.8134 33.2044 90.8536 33.0734 90.8915C33.0022 90.9133 32.9298 90.934 32.8586 90.9547C32.7874 90.9754 32.715 90.996 32.6438 91.0156C32.5715 91.0351 32.5002 91.0558 32.4279 91.0753C32.3578 91.0948 32.2866 91.1132 32.2154 91.1316C32.1258 91.1557 32.0362 91.1787 31.9466 91.2005C31.8949 91.2132 31.8443 91.2258 31.7926 91.2384C31.7835 91.2407 31.7731 91.243 31.7639 91.2453C31.6973 91.2614 31.6307 91.2775 31.5641 91.2936C31.5089 91.3062 31.4538 91.32 31.3986 91.3326C31.3584 91.3418 31.3182 91.351 31.2792 91.3602C31.2252 91.3728 31.1701 91.3843 31.1161 91.3969C31.0483 91.4119 30.9805 91.4257 30.9127 91.4406C30.8622 91.4509 30.8128 91.4613 30.7623 91.4716H30.7611C30.6669 91.4911 30.5727 91.5095 30.4774 91.5279C30.3315 91.5555 30.1868 91.5819 30.0409 91.6083C29.9926 91.6163 29.9444 91.6244 29.895 91.6336C29.6216 91.6795 29.3482 91.722 29.0737 91.7599C29.0151 91.768 28.9565 91.776 28.8991 91.7829C28.844 91.7909 28.7877 91.7978 28.7325 91.8036C28.4155 91.8426 28.0985 91.8759 27.7814 91.9035C27.6895 91.9116 27.5976 91.9196 27.5069 91.9265C27.454 91.9299 27.4023 91.9345 27.3495 91.938C27.3105 91.9414 27.2702 91.9437 27.2312 91.946C27.1657 91.9506 27.1002 91.954 27.0359 91.9575C26.9532 91.9621 26.8694 91.9667 26.7866 91.9701C26.7832 91.9701 26.7798 91.9701 26.7763 91.9701C26.7579 91.9701 26.7396 91.9713 26.7212 91.9724C26.6683 91.9747 26.6166 91.977 26.5638 91.9793C26.5466 91.9793 26.5293 91.9793 26.5133 91.9816C26.5121 91.9816 26.5098 91.9816 26.5087 91.9816C26.4535 91.9839 26.3984 91.9851 26.3433 91.9862C26.3352 91.9862 26.3283 91.9862 26.3203 91.9862C26.3053 91.9862 26.2916 91.9862 26.2766 91.9862C26.2146 91.9885 26.1537 91.9897 26.0917 91.9908C26.0274 91.9908 25.963 91.9931 25.8987 91.9931C25.8861 91.9931 25.8746 91.9931 25.8631 91.9931C25.7965 91.9931 25.731 91.9943 25.6655 91.9943C25.6035 91.9943 25.5426 91.9943 25.4806 91.9943C25.4725 91.9943 25.4645 91.9943 25.4565 91.9943C25.4484 91.9943 25.4415 91.9943 25.4335 91.9943C25.2646 91.9943 25.0946 91.992 24.9258 91.9874C24.866 91.9851 24.8063 91.9839 24.7466 91.9816C24.7225 91.9816 24.6983 91.9793 24.6742 91.9793C24.642 91.9793 24.6087 91.977 24.5766 91.9747C24.557 91.9747 24.5364 91.9736 24.5168 91.9724C24.4261 91.969 24.3365 91.9644 24.2457 91.9598C24.1814 91.9564 24.1182 91.9529 24.0539 91.9495C23.9988 91.946 23.9436 91.9426 23.8885 91.938C23.8391 91.9345 23.7886 91.9311 23.738 91.9276C23.707 91.9253 23.676 91.923 23.6461 91.9207C23.6255 91.9196 23.6048 91.9173 23.5841 91.9161C23.5807 91.9161 23.5772 91.9161 23.5749 91.9161C23.4715 91.9081 23.3693 91.8989 23.2671 91.8897C23.2016 91.884 23.1361 91.8782 23.0695 91.8713C23.0293 91.8679 22.9879 91.8633 22.9477 91.8587L22.842 91.8472C22.7731 91.8392 22.7042 91.8311 22.6353 91.8231C22.6008 91.8185 22.5664 91.8151 22.533 91.8105C22.4871 91.8047 22.4412 91.799 22.3941 91.7932C22.3332 91.7852 22.2711 91.7772 22.2103 91.7691C22.0563 91.7484 21.9024 91.7255 21.7485 91.7013C21.7117 91.6956 21.6761 91.6898 21.6394 91.6841C21.6313 91.683 21.6233 91.6818 21.6152 91.6807C21.5521 91.6703 21.49 91.66 21.4269 91.6485C21.3614 91.637 21.2959 91.6267 21.2316 91.614H21.2293C21.142 91.598 21.0547 91.5819 20.9674 91.5658C20.9513 91.5635 20.9341 91.5601 20.918 91.5566C20.9031 91.5543 20.8893 91.5509 20.8743 91.5474C20.7974 91.5336 20.7216 91.5176 20.6458 91.5026C20.5814 91.4888 20.5159 91.4762 20.4516 91.4624C20.3482 91.4406 20.2449 91.4176 20.1426 91.3946C20.0484 91.374 19.9554 91.3521 19.8623 91.3292C19.7957 91.3131 19.7279 91.297 19.6613 91.2809C19.6303 91.2729 19.5993 91.2648 19.5683 91.2579C19.3719 91.2086 19.1766 91.1569 18.9813 91.1029C18.9319 91.0891 18.8837 91.0753 18.8354 91.0615C18.7906 91.0489 18.747 91.0362 18.7033 91.0236C18.6539 91.0087 18.6034 90.9938 18.554 90.9788C18.4047 90.934 18.2553 90.8881 18.106 90.8398L15.1688 85.5857L13.0518 73.4027L16.2773 57.6381L20.1771 48.506L22.0782 48.4865C22.0782 48.4865 21.1546 61.4265 27.1485 66.5783C27.1485 66.5783 45.3794 55.6164 59.4715 1.3936C59.514 1.22704 59.5576 1.06163 59.6013 0.893921L59.5921 0.897367Z" fill="black"/>
<path opacity="0.48" d="M31.7661 86.3829C37.1511 78.3271 39.2739 69.2375 39.2739 69.2375C30.9528 84.3118 24.8291 87.9968 24.7051 88.0623C28.2293 83.6215 30.3038 72.9409 30.3038 72.9409C26.4672 81.0484 20.649 86.4863 20.649 86.4863C18.4436 83.8719 17.7015 76.3158 17.7015 76.3158C16.16 83.9603 18.3138 90.0449 18.6928 91.0271C19.2729 91.1959 19.8565 91.3429 20.4434 91.467C21.4819 91.6876 22.5295 91.838 23.5794 91.9219H23.5782C23.6196 91.9265 23.6621 91.9288 23.7034 91.9311C23.7792 91.9368 23.8539 91.9426 23.9297 91.9472C23.9986 91.9518 24.0676 91.9563 24.1365 91.9598C24.218 91.9644 24.2996 91.969 24.38 91.9724C24.4443 91.9759 24.5075 91.9782 24.5718 91.9805C24.6591 91.9839 24.7453 91.9862 24.8326 91.9897C24.8923 91.992 24.9509 91.9931 25.0106 91.9943C25.1025 91.9965 25.1944 91.9977 25.2863 91.9989C25.3415 91.9989 25.3966 92 25.4517 92C25.5494 92 25.6459 92 25.7435 92C25.794 92 25.8446 92 25.894 92C25.9974 91.9988 26.1007 91.9965 26.2041 91.9943C26.2478 91.9943 26.2926 91.992 26.3362 91.9908C26.4499 91.9874 26.5637 91.9828 26.6762 91.9782C26.7107 91.977 26.7452 91.9759 26.7796 91.9736C26.9278 91.9667 27.076 91.9586 27.2242 91.9483C28.1155 91.8897 29.0046 91.7852 29.8891 91.6347C30.0832 91.6025 30.2774 91.5669 30.4715 91.5302C35.1283 90.6331 39.6197 88.4793 43.4597 85.2572C45.872 77.731 46.8794 69.5776 46.8794 69.5776C39.5783 82.428 34.199 85.6098 31.7649 86.3841L31.7661 86.3829Z" fill="#010101"/>
<path d="M22.835 91.8507C22.835 91.8507 44.6417 83.9982 52.4057 35.1479C52.4057 35.1479 49.3651 84.2877 22.835 91.8507Z" fill="#565254"/>
<path d="M61.2508 7.4162C63.284 20.8076 66.5612 48.475 51.8924 75.1614C47.0622 83.9477 39.3349 89.8198 30.7565 91.4728C30.7565 91.4728 62.6901 80.5774 61.2519 7.4162H61.2508Z" fill="#565254"/>
<path d="M55.7746 0.509094C-22.8647 53.8715 10.7184 86.1394 14.0508 89.0559C14.1725 89.1627 14.2541 89.2294 14.2874 89.2569C14.2989 89.2673 14.3058 89.2719 14.3058 89.2719C14.2403 89.2397 14.1748 89.2064 14.1093 89.1742C1.1142 82.6175 -3.65286 65.6984 3.46787 51.2663C18.4824 20.8398 46.0694 5.36231 55.6965 0.54815C55.7229 0.534365 55.7494 0.52173 55.7746 0.509094Z" fill="#565254"/>
<path d="M18.0969 90.8433C18.0969 90.8433 -8.4781 64.1282 50.5198 11.2919C50.5198 11.2919 0.150863 59.0062 18.0969 90.8433Z" fill="#565254"/>
<path d="M7.40181 64.4027C7.40181 64.4027 0.460269 46.5073 47.4727 8.56833C47.4727 8.56833 33.0808 20.8421 28.6193 27.6653L33.1187 25.631C33.1187 25.631 10.9501 44.6912 7.40181 64.4027Z" fill="#565254"/>
<path d="M28.9405 54.1909C28.9405 54.1909 24.8833 35.8233 49.9076 17.8061C49.9076 17.8061 48.9427 25.8331 42.8351 37.9645C42.8351 37.9645 43.2693 34.2174 43.3175 33.4042C43.3175 33.4042 39.4729 43.7263 28.9405 54.1909Z" fill="#565254"/>
</svg>
