<svg width="60" height="92" viewBox="0 0 60 92" fill="none" xmlns="http://www.w3.org/2000/svg">
<g clip-path="url(#clip0_251_177552)">
<path d="M54.2129 46.2221V72.2518C54.2129 73.1429 54.4354 74.0164 54.8522 74.7816C55.1489 75.3184 55.5373 75.7976 56.0175 76.1977C57.177 77.163 58.5356 78.8075 58.884 81.3715C58.9465 81.7824 58.9758 82.2167 58.9758 82.6734C58.9758 84.318 58.3989 85.7859 57.5762 87.042C55.509 90.2003 51.894 91.999 48.1139 91.999H11.9641C8.18315 91.999 4.56905 90.2003 2.50189 87.042C1.67913 85.7859 1.10232 84.318 1.10232 82.6734C1.10232 81.96 1.17649 81.309 1.31313 80.7088C1.78161 78.5216 3.00355 77.0771 4.05958 76.1968C4.64224 75.7117 5.09315 75.1007 5.40157 74.4263C5.70412 73.7529 5.86419 73.0101 5.86419 72.2508V46.2211C5.86419 45.7926 5.79001 45.37 5.64166 44.9757C5.47574 44.519 5.22491 44.1022 4.8882 43.7421L2.47847 41.1547C1.78161 40.412 1.27897 39.5219 0.99984 38.5674C0.817329 37.9622 0.725586 37.3337 0.725586 36.6944V29.3559C0.725586 26.5119 2.74687 24.0387 5.54504 23.5595C9.70862 22.8461 15.5558 20.653 18.84 14.1422C18.9659 13.8962 19.086 13.6454 19.2002 13.3828C19.4627 12.8119 19.6969 12.2068 19.9136 11.5724C20.1195 10.9838 20.302 10.3621 20.4621 9.71604C20.5539 9.36175 20.6388 8.99673 20.7129 8.62H39.3642C39.4383 8.99673 39.5242 9.36273 39.615 9.71604C39.7751 10.3612 39.9576 10.9838 40.1635 11.5724C40.3802 12.2058 40.6144 12.8119 40.877 13.3828C40.9911 13.6454 41.1112 13.8972 41.2371 14.1422C44.5203 20.652 50.3685 22.8451 54.5321 23.5595C57.3302 24.0387 59.3515 26.5119 59.3515 29.3559V36.6944C59.3515 37.4655 59.2198 38.2248 58.9572 38.9392C58.6605 39.7561 58.2038 40.5096 57.5977 41.1547L55.1879 43.7421C54.7712 44.1871 54.4794 44.7298 54.331 45.3124C54.251 45.6033 54.211 45.9117 54.211 46.2201L54.2129 46.2221Z" fill="url(#paint0_linear_251_177552)"/>
<path d="M53.6423 72.2518C53.6423 73.9763 54.3792 75.575 55.6528 76.6379C56.9089 77.6832 58.4051 79.5785 58.4051 82.6744C58.4051 84.0447 57.965 85.4101 57.0973 86.7287C55.1727 89.6752 51.8152 91.429 48.1143 91.429H11.9645C8.26351 91.429 4.9061 89.6762 2.98144 86.7287C2.11378 85.4091 1.67361 84.0447 1.67361 82.6744C1.67361 79.5795 3.16981 77.6832 4.42591 76.6379C5.69958 75.576 6.43645 73.9763 6.43645 72.2518V46.222C6.43645 45.1543 6.0363 44.1373 5.30528 43.3555L2.89555 40.7682C1.86197 39.6604 1.29688 38.215 1.29688 36.6963V29.3579C1.29688 26.7598 3.12393 24.555 5.64297 24.1265C10.4117 23.3096 18.7037 20.2772 21.1759 9.19287H38.9019C41.375 20.2772 49.6671 23.3096 54.4348 24.1265C56.9529 24.555 58.7809 26.7588 58.7809 29.3579V36.6963C58.7809 38.215 58.2158 39.6604 57.1822 40.7682L54.7725 43.3555C54.0415 44.1383 53.6413 45.1543 53.6413 46.222V72.2518H53.6423Z" fill="#B0BEEA"/>
<path d="M53.2532 46.0054V71.8867C53.2532 73.6055 53.9725 75.1934 55.2286 76.2494C56.4622 77.2889 57.9301 79.1677 57.9301 82.2518C57.9301 83.6114 57.5016 84.9699 56.6506 86.2836C54.7542 89.2077 51.4534 90.9547 47.8159 90.9547H12.2615C11.9189 90.9547 11.5763 90.9371 11.2396 90.903C8.01296 90.6121 5.14647 88.9325 3.42774 86.2826C2.57668 84.969 2.14822 83.6104 2.14822 82.2508C2.14822 79.1667 3.61611 77.2879 4.84977 76.2485C6.10587 75.1924 6.82517 73.6045 6.82517 71.8858V46.0044C6.82517 44.9484 6.43087 43.9373 5.71742 43.1604L3.34771 40.5847C2.33073 39.4828 1.77148 38.0432 1.77148 36.5353V29.2427C1.77148 27.0096 3.10762 25.0791 5.06644 24.3091C5.38071 24.189 5.70571 24.0924 6.04828 24.0348C10.1084 23.3321 16.7676 20.9741 20.0567 13.1896H40.0216C43.3107 20.9731 49.9699 23.3321 54.03 24.0348C54.5493 24.1265 55.0412 24.2973 55.4921 24.5374C57.1884 25.4051 58.3078 27.199 58.3078 29.2427V36.5353C58.3078 38.0432 57.7486 39.4818 56.7316 40.5847L54.3619 43.1604C53.6484 43.9373 53.2541 44.9474 53.2541 46.0044L53.2532 46.0054Z" fill="url(#paint1_linear_251_177552)"/>
<path style="mix-blend-mode:overlay" opacity="0.35" d="M54.3612 43.1613L56.7309 40.5857C57.7479 39.4838 58.3071 38.0442 58.3071 36.5363V29.2437C58.3071 27.199 57.1876 25.4061 55.4914 24.5384C55.0405 24.2983 54.5495 24.1275 54.0293 24.0358C49.9692 23.3331 43.31 20.9751 40.0209 13.1906H39.0215C42.3106 20.9741 48.9698 23.3331 53.0299 24.0358C53.5491 24.1275 54.041 24.2983 54.4919 24.5384C56.1882 25.4061 57.3077 27.2 57.3077 29.2437V36.5363C57.3077 38.0442 56.7484 39.4828 55.7315 40.5857L53.3617 43.1613C52.6483 43.9382 52.254 44.9484 52.254 46.0054V71.8868C52.254 73.6055 52.9733 75.1934 54.2304 76.2494C55.464 77.2889 56.9319 79.1677 56.9319 82.2518C56.9319 83.6114 56.5035 84.9699 55.6524 86.2836C53.756 89.2077 50.4552 90.9547 46.8177 90.9547H47.8171C51.4547 90.9547 54.7555 89.2077 56.6518 86.2836C57.5029 84.9699 57.9313 83.6114 57.9313 82.2518C57.9313 79.1677 56.4635 77.2889 55.2298 76.2494C53.9737 75.1934 53.2544 73.6055 53.2544 71.8868V46.0054C53.2544 44.9494 53.6487 43.9382 54.3621 43.1613H54.3612Z" fill="url(#paint2_linear_251_177552)"/>
<path style="mix-blend-mode:color-burn" d="M41.2379 14.1451H18.8398C18.9657 13.8991 19.0858 13.6483 19.2 13.3857H40.8778C40.992 13.6483 41.112 13.9001 41.2379 14.1451Z" fill="url(#paint3_linear_251_177552)"/>
<g style="mix-blend-mode:color-burn">
<path d="M58.9584 38.9411C58.6617 39.758 58.2049 40.5115 57.5988 41.1566L55.1891 43.744C54.7723 44.189 54.4805 44.7317 54.3321 45.3144C38.1131 46.1654 21.855 46.0512 5.64182 44.9776C5.4759 44.5209 5.22507 44.1041 4.88836 43.744L2.47863 41.1566C1.78177 40.4139 1.27913 39.5238 1 38.5693C20.2964 40.0596 39.662 40.1797 58.9584 38.9402V38.9411Z" fill="url(#paint4_linear_251_177552)"/>
</g>
<g style="mix-blend-mode:lighten" opacity="0.15">
<path d="M58.8844 81.3725C39.7237 82.6598 20.4742 82.4392 1.31445 80.7098C1.78195 78.5597 3.00194 77.2089 4.05797 76.4037C4.63966 75.9596 5.09057 75.3789 5.39898 74.726C21.8669 75.9557 38.3905 76.0718 54.8584 75.0763C55.1551 75.5926 55.5435 76.0465 56.0218 76.4125C57.1803 77.2967 58.5369 78.8359 58.8844 81.3725Z" fill="url(#paint5_linear_251_177552)"/>
</g>
<path style="mix-blend-mode:multiply" d="M55.4921 24.5384L5.06543 24.31C5.3797 24.19 5.7047 24.0934 6.04728 24.0358C10.1074 23.3331 16.7666 20.9751 20.0557 13.1906H40.0206C43.3097 20.9741 49.9689 23.3331 54.029 24.0358C54.5483 24.1275 55.0402 24.2983 55.4911 24.5384H55.4921Z" fill="url(#paint6_linear_251_177552)"/>
<path d="M41.2698 13.6688H18.903C18.5877 13.6688 18.332 13.4131 18.332 13.0978C18.332 12.7826 18.5877 12.5269 18.903 12.5269H41.2698C41.5851 12.5269 41.8408 12.7826 41.8408 13.0978C41.8408 13.4131 41.5851 13.6688 41.2698 13.6688Z" fill="url(#paint7_linear_251_177552)"/>
<g style="mix-blend-mode:soft-light" opacity="0.8">
<path d="M27.8946 12.5405H21.5711C21.4019 12.5405 21.2646 12.6777 21.2646 12.847V13.3486C21.2646 13.5179 21.4019 13.6551 21.5711 13.6551H27.8946C28.0638 13.6551 28.201 13.5179 28.201 13.3486V12.847C28.201 12.6777 28.0638 12.5405 27.8946 12.5405Z" fill="#FFFFEE"/>
</g>
<path style="mix-blend-mode:color-burn" d="M40.1649 11.5753H19.9141C20.12 10.9867 20.3025 10.365 20.4626 9.71893H39.6164C39.7765 10.3641 39.959 10.9867 40.1649 11.5753Z" fill="url(#paint8_linear_251_177552)"/>
<g style="mix-blend-mode:lighten" opacity="0.27">
<path d="M10.7599 23.9684C9.55748 24.2505 8.31309 24.3491 7.13018 24.7033C5.94728 25.0576 4.7839 25.7242 4.20416 26.8154C3.79327 27.5884 3.71519 28.4892 3.64589 29.3627C3.60197 29.92 3.55903 30.4929 3.71811 31.0297C3.8772 31.5665 4.28517 32.0662 4.83563 32.1668C5.45928 32.2809 6.07026 31.8544 6.42649 31.3303C6.78273 30.8062 6.96134 30.1835 7.2473 29.6165C8.06519 27.9954 9.74877 26.9208 11.5241 26.5411C13.2994 26.1615 15.1587 26.4084 16.9038 26.912C17.4874 27.0809 18.194 27.2526 18.6401 26.8398C19.0334 26.4757 18.9934 25.8296 18.7669 25.3436C18.5405 24.8575 18.1677 24.4506 17.951 23.9606C17.3654 22.6372 18.0389 21.1175 18.7572 19.8605C18.9865 19.4584 20.8029 16.2142 19.4023 16.6914C18.8001 16.8964 17.8378 19.2671 17.3508 19.8497C15.6623 21.8691 13.3316 23.3662 10.7619 23.9684H10.7599Z" fill="white"/>
</g>
<g style="mix-blend-mode:lighten" opacity="0.27">
<path d="M5.0785 84.9816C5.34494 85.5682 5.70313 86.1421 6.24774 86.4876C6.79234 86.8321 7.5585 86.8907 8.05723 86.4827C8.71017 85.9489 8.6477 84.9397 9.02639 84.1862C9.60906 83.0267 11.0809 82.6929 12.3662 82.5202C15.7744 82.0595 19.2099 81.8019 22.6483 81.7492C23.3666 81.7384 24.206 81.674 24.6003 81.0728C24.9683 80.5116 24.7301 79.7152 24.2431 79.2526C23.7561 78.7899 23.0865 78.584 22.4395 78.4025C18.7931 77.3796 15.0531 76.6906 11.2809 76.3441C10.0356 76.2299 8.00452 75.7175 6.80698 76.2172C5.63481 76.7072 4.97699 78.542 4.68127 79.6654C4.2206 81.4144 4.32601 83.3264 5.07752 84.9807L5.0785 84.9816Z" fill="white"/>
</g>
<path d="M50.2411 73.4103C36.7802 74.2467 23.2978 74.2467 9.83691 73.4103V45.4578C23.2978 46.2943 36.7802 46.2943 50.2411 45.4578V73.4103Z" fill="url(#paint9_linear_251_177552)"/>
<path style="mix-blend-mode:color-burn" opacity="0.35" d="M50.6209 73.8866C37.1601 74.723 23.6777 74.723 10.2168 73.8866V45.9341C23.6777 46.7706 37.1601 46.7706 50.6209 45.9341V73.8866Z" fill="url(#paint10_linear_251_177552)"/>
<path d="M50.244 45.4568V73.4112C47.7484 73.5654 45.2528 73.6913 42.763 73.788C39.1479 73.9305 35.5328 74.0105 31.9178 74.0339C26.4298 74.0622 20.9535 73.9539 15.4655 73.7079C13.5925 73.6279 11.7137 73.5254 9.83496 73.4112V45.4568C12.4672 45.6228 15.1004 45.7536 17.7327 45.8512C22.6839 46.0395 27.6351 46.1137 32.5863 46.0737C36.2297 46.0454 39.8672 45.9536 43.5057 45.8053C45.7505 45.7135 48.0002 45.5945 50.244 45.4568Z" fill="url(#paint11_linear_251_177552)"/>
<path d="M30.1842 72.7993C25.3296 72.7993 20.3959 72.689 15.5199 72.4704C14.1584 72.4128 12.6953 72.3377 11.0723 72.244V46.7725C13.2692 46.9014 15.4877 47.0068 17.6866 47.0887C21.7711 47.2439 25.9113 47.322 29.9909 47.322C30.8615 47.322 31.7282 47.3181 32.5958 47.3113C36.1787 47.2839 39.866 47.1932 43.5553 47.0419C45.2769 46.9716 47.0708 46.8828 49.0042 46.7706V72.243C46.9049 72.365 44.7948 72.4675 42.7139 72.5495C39.1711 72.689 35.5355 72.771 31.9097 72.7935C31.3349 72.7964 30.759 72.7983 30.1832 72.7983L30.1842 72.7993Z" fill="url(#paint12_linear_251_177552)"/>
<g style="mix-blend-mode:lighten" opacity="0.15">
<path d="M58.405 82.6744C58.405 84.0447 57.9648 85.4101 57.0971 86.7287C55.1725 89.6752 51.8151 91.429 48.1141 91.429H27.7891C41.004 84.1989 49.2843 68.2375 53.6421 57.2791V72.2527C53.6421 73.9773 54.379 75.576 55.6527 76.6388C56.9088 77.6841 58.405 79.5795 58.405 82.6754V82.6744Z" fill="white"/>
</g>
<path d="M43.0311 59.4555C35.6126 53.6044 25.0865 53.6044 17.668 59.4555C16.6402 60.2597 15.1997 60.3905 14.3584 59.5844C13.9309 59.1569 13.5044 58.7304 13.0769 58.3029C12.2366 57.5016 12.5694 55.8004 13.9426 54.719C23.5405 47.1483 37.1595 47.1483 46.7584 54.719C48.1316 55.7995 48.4635 57.5016 47.6241 58.3029C47.1966 58.7304 46.7701 59.1569 46.3426 59.5844C45.5003 60.3905 44.0607 60.2597 43.033 59.4555H43.0311Z" fill="#393D2C"/>
<path d="M36.0552 61.1703C36.0552 61.1703 42.366 57.3698 36.5217 53.3897C36.5217 53.3897 37.203 57.4772 34.2984 58.0149C34.2984 58.0149 32.1649 57.5074 30.4979 57.4781C30.4745 57.4772 30.4501 57.4781 30.4257 57.4781C30.4013 57.4781 30.3779 57.4781 30.3535 57.4781C28.6865 57.5084 26.553 58.0159 26.553 58.0159C23.6484 57.4781 24.3296 53.3907 24.3296 53.3907C18.4844 57.3708 24.7962 61.1713 24.7962 61.1713C20.7087 62.1034 20.8522 64.5775 20.8522 64.5775C24.1871 65.7253 25.7292 63.7889 25.9439 63.9675C26.1587 64.1471 27.3064 67.9476 27.3064 67.9476C26.3382 69.7766 28.6689 70.1348 28.6689 70.1348C29.0408 71.0962 29.9416 70.8697 30.4257 70.8883C30.8376 70.8883 31.8097 71.0971 32.1825 70.1348C32.1825 70.1348 34.5132 69.7766 33.545 67.9476C33.545 67.9476 34.6927 64.1471 34.9075 63.9675C35.1222 63.7879 36.6642 65.7243 39.9992 64.5775C39.9992 64.5775 40.1427 62.1034 36.0552 61.1713V61.1703Z" fill="url(#paint13_linear_251_177552)"/>
<path d="M22.6392 71.3265C19.6029 71.2602 16.5676 71.1557 13.5322 71.0123C13.5635 70.3418 13.5957 69.6722 13.6269 69.0017C16.6447 69.1442 19.6634 69.2477 22.6822 69.314C22.6675 69.9845 22.6529 70.655 22.6382 71.3265H22.6392Z" fill="#393D2C"/>
<path d="M47.397 71.0123C44.3626 71.1557 41.3273 71.2602 38.29 71.3265C38.2754 70.656 38.2607 69.9855 38.2461 69.314C41.2658 69.2486 44.2846 69.1442 47.3014 69.0017C47.3326 69.6722 47.3648 70.3418 47.396 71.0123H47.397Z" fill="#393D2C"/>
<path style="mix-blend-mode:overlay" opacity="0.35" d="M22.4494 10.4324C22.4318 11.3977 22.3576 12.3171 22.2434 13.1906C21.8325 16.3713 20.8673 18.9645 19.9479 20.8375C19.0285 22.6997 17.6465 24.2925 15.9161 25.4344C15.3393 25.817 14.7849 26.222 14.5224 26.5197C13.9797 27.1424 14.3223 35.2568 14.4706 38.2101C14.5048 38.907 14.7049 39.5804 15.0592 40.1856L17.3264 44.0349C17.9832 45.1543 18.3258 46.428 18.3199 47.73L18.194 74.0681C18.194 75.0851 17.9481 76.1011 17.423 76.9746C14.0597 82.6168 16.3094 87.9106 18.3248 90.9547H12.26C11.9174 90.9547 11.5749 90.9372 11.2381 90.903C8.48585 87.4763 7.44056 83.2102 8.05153 81.1489C8.81085 78.5792 11.0957 76.0611 11.3348 75.2042C11.5749 74.3473 12.1917 47.7924 12.1917 45.7419C12.1917 44.3257 10.593 41.6476 9.66777 40.248C9.1993 39.5453 8.95432 38.7235 8.94847 37.8783C8.94847 34.9201 8.99434 28.0159 9.47941 26.8964C9.94203 25.8287 11.8784 24.8917 12.8202 24.4867C13.3629 24.2583 13.888 23.9841 14.3789 23.6698C19.6268 20.3114 20.8439 15.0069 21.4256 13.5732C21.4773 13.4473 21.5173 13.3165 21.5573 13.1906C21.9516 11.752 21.4714 10.1923 21.4714 10.1923L22.4484 10.4324H22.4494Z" fill="url(#paint14_linear_251_177552)"/>
<path style="mix-blend-mode:color-burn" opacity="0.35" d="M34.416 10.4324C34.4443 11.3976 34.5653 12.317 34.7527 13.1905C35.4262 16.3713 37.0053 18.9645 38.5103 20.8374C40.0153 22.6996 42.2776 24.2924 45.11 25.4343C46.0538 25.8169 46.9614 26.222 47.3909 26.5196C48.279 27.1423 47.7178 35.2567 47.4748 38.2101C47.4192 38.9069 47.0912 39.5804 46.5115 40.1865L42.7998 44.0358C41.7242 45.1553 41.164 46.4289 41.1728 47.7309L41.3787 74.069C41.3787 75.086 41.7809 76.102 42.6407 76.9755C48.1473 82.6178 44.4639 87.9115 41.164 90.9557L49.4063 90.8132C49.9675 90.8132 49.1877 90.8951 49.7391 90.861C54.2453 87.4343 56.4491 85.5311 55.7356 80.1534C55.3598 77.323 52.9989 76.063 52.6066 75.2061C52.2142 74.3491 51.2041 47.7943 51.2041 45.7438C51.2041 44.3276 53.8217 41.6495 55.3364 40.2499C56.1026 39.5472 56.5047 38.7254 56.5144 37.8802C56.5144 34.922 56.4559 28.0061 55.6448 26.8983C53.9749 24.6155 51.7184 24.8936 50.1763 24.4886C49.2882 24.2602 48.4283 23.986 47.6241 23.6717C39.0325 20.3133 37.0414 15.0088 36.0879 13.5751C36.004 13.4491 35.9386 13.3184 35.8732 13.1925C35.228 11.7539 36.0137 10.1942 36.0137 10.1942L34.415 10.4343L34.416 10.4324Z" fill="url(#paint15_linear_251_177552)"/>
<path d="M17.8882 1.49034L19.276 9.81556C19.3356 10.1718 19.644 10.4334 20.0051 10.4334H40.0725C40.4336 10.4334 40.742 10.1718 40.8016 9.81556L42.1894 1.49034C42.2646 1.03943 41.9171 0.629517 41.4604 0.629517H18.6182C18.1615 0.629517 17.814 1.03943 17.8892 1.49034H17.8882Z" fill="url(#paint16_linear_251_177552)"/>
<path d="M42.1902 1.49229L42.1101 1.96272L40.8033 9.81556C40.7418 10.1689 40.4314 10.4353 40.0723 10.4353H20.0068C19.6477 10.4353 19.3383 10.1689 19.2758 9.81556L17.969 1.96272L17.8889 1.49229C17.8148 1.04041 18.1612 0.62561 18.62 0.62561H41.4601C41.9189 0.62561 42.2653 1.04041 42.1912 1.49229H42.1902Z" fill="url(#paint17_linear_251_177552)"/>
<path style="mix-blend-mode:color-burn" d="M19.2441 9.62329L19.2763 9.81459C19.3359 10.1708 19.6443 10.4324 20.0054 10.4324H40.0728C40.4339 10.4324 40.7423 10.1708 40.8019 9.81459L40.8341 9.62329H19.2441Z" fill="url(#paint18_linear_251_177552)"/>
<g style="mix-blend-mode:soft-light" opacity="0.8">
<path d="M31.2676 0.627563L30.8499 10.4324H20.8391L19.6455 0.627563H31.2676Z" fill="#FFFFEE"/>
</g>
<g style="mix-blend-mode:soft-light" opacity="0.8">
<path d="M27.5785 0.627563L27.2984 10.4324H22.4496L21.502 0.627563H27.5785Z" fill="#FFFFEE"/>
</g>
<path style="mix-blend-mode:color-burn" d="M40.3299 0.627563L38.7947 10.4324H35.3104L35.002 0.627563H40.3299Z" fill="url(#paint19_linear_251_177552)"/>
<g style="mix-blend-mode:soft-light" opacity="0.8">
<path d="M42.1902 1.49229L42.1101 1.96272H17.9699L17.8899 1.49229C17.8157 1.04041 18.1622 0.62561 18.6209 0.62561H41.4611C41.9198 0.62561 42.2663 1.04041 42.1921 1.49229H42.1902Z" fill="#FFFFEE"/>
</g>
<path style="mix-blend-mode:color-burn" d="M27.2594 0.00195312H33.8522C34.226 0.00195312 34.5295 0.305487 34.5295 0.679292V18.336H26.582V0.679292C26.582 0.305487 26.8856 0.00195312 27.2594 0.00195312Z" fill="url(#paint20_linear_251_177552)"/>
<path d="M33.9104 0.681243V18.337H25.9648V0.681243C25.9648 0.303534 26.2684 0 26.6402 0H33.236C33.6078 0 33.9114 0.303534 33.9114 0.681243H33.9104Z" fill="url(#paint21_linear_251_177552)"/>
<path d="M27.7173 0H26.8936V18.337H27.7173V0Z" fill="url(#paint22_linear_251_177552)"/>
<path d="M32.981 0H32.1572V18.337H32.981V0Z" fill="url(#paint23_linear_251_177552)"/>
</g>
<defs>
<linearGradient id="paint0_linear_251_177552" x1="30.0395" y1="92" x2="30.0395" y2="8.62194" gradientUnits="userSpaceOnUse">
<stop stop-color="#B0BEEA"/>
<stop offset="0.99" stop-color="#94A1D3"/>
</linearGradient>
<linearGradient id="paint1_linear_251_177552" x1="1.77051" y1="52.0731" x2="58.3068" y2="52.0731" gradientUnits="userSpaceOnUse">
<stop stop-color="#59170C"/>
<stop offset="0.18" stop-color="#822D12"/>
<stop offset="0.47" stop-color="#772710"/>
<stop offset="0.96" stop-color="#5B180C"/>
<stop offset="0.99" stop-color="#59170C"/>
</linearGradient>
<linearGradient id="paint2_linear_251_177552" x1="39.0225" y1="52.0731" x2="58.3071" y2="52.0731" gradientUnits="userSpaceOnUse">
<stop stop-color="#E6E6E6"/>
<stop offset="1" stop-color="white"/>
</linearGradient>
<linearGradient id="paint3_linear_251_177552" x1="18.8398" y1="13.7644" x2="44.934" y2="13.7644" gradientUnits="userSpaceOnUse">
<stop stop-color="#CCCCCC"/>
<stop offset="1" stop-color="#999999"/>
</linearGradient>
<linearGradient id="paint4_linear_251_177552" x1="1" y1="42.2234" x2="68.525" y2="42.2234" gradientUnits="userSpaceOnUse">
<stop stop-color="#CCCCCC"/>
<stop offset="1" stop-color="#999999"/>
</linearGradient>
<linearGradient id="paint5_linear_251_177552" x1="30.0994" y1="82.1962" x2="30.0994" y2="73.4933" gradientUnits="userSpaceOnUse">
<stop stop-color="#333333"/>
<stop offset="1" stop-color="white"/>
</linearGradient>
<linearGradient id="paint6_linear_251_177552" x1="30.2783" y1="24.5384" x2="30.2783" y2="11.3176" gradientUnits="userSpaceOnUse">
<stop stop-color="#CCCCCC"/>
<stop offset="1" stop-color="#999999"/>
</linearGradient>
<linearGradient id="paint7_linear_251_177552" x1="18.3311" y1="13.0978" x2="41.8408" y2="13.0978" gradientUnits="userSpaceOnUse">
<stop stop-color="#B0BEEA"/>
<stop offset="0.99" stop-color="#94A1D3"/>
</linearGradient>
<linearGradient id="paint8_linear_251_177552" x1="19.9141" y1="10.6471" x2="43.5067" y2="10.6471" gradientUnits="userSpaceOnUse">
<stop stop-color="#CCCCCC"/>
<stop offset="1" stop-color="#999999"/>
</linearGradient>
<linearGradient id="paint9_linear_251_177552" x1="30.04" y1="74.0388" x2="30.04" y2="45.4588" gradientUnits="userSpaceOnUse">
<stop stop-color="#EDB77D"/>
<stop offset="1" stop-color="#FFD8B0"/>
</linearGradient>
<linearGradient id="paint10_linear_251_177552" x1="30.4198" y1="74.5141" x2="30.4198" y2="45.9351" gradientUnits="userSpaceOnUse">
<stop stop-color="#CCCCCC"/>
<stop offset="1" stop-color="#999999"/>
</linearGradient>
<linearGradient id="paint11_linear_251_177552" x1="30.039" y1="74.0378" x2="30.039" y2="45.4568" gradientUnits="userSpaceOnUse">
<stop stop-color="#EDB77D"/>
<stop offset="1" stop-color="#FFD8B0"/>
</linearGradient>
<linearGradient id="paint12_linear_251_177552" x1="30.0387" y1="72.7993" x2="30.0387" y2="46.7715" gradientUnits="userSpaceOnUse">
<stop offset="0.01" stop-color="#E93400"/>
<stop offset="1" stop-color="#C92005"/>
</linearGradient>
<linearGradient id="paint13_linear_251_177552" x1="20.8512" y1="62.1483" x2="40.0002" y2="62.1483" gradientUnits="userSpaceOnUse">
<stop stop-color="#EDB77D"/>
<stop offset="1" stop-color="#FFD8B0"/>
</linearGradient>
<linearGradient id="paint14_linear_251_177552" x1="7.88366" y1="50.574" x2="22.4494" y2="50.574" gradientUnits="userSpaceOnUse">
<stop stop-color="#E6E6E6"/>
<stop offset="1" stop-color="white"/>
</linearGradient>
<linearGradient id="paint15_linear_251_177552" x1="56.5154" y1="50.574" x2="34.416" y2="50.574" gradientUnits="userSpaceOnUse">
<stop stop-color="#CCCCCC"/>
<stop offset="1" stop-color="#999999"/>
</linearGradient>
<linearGradient id="paint16_linear_251_177552" x1="17.8784" y1="5.53095" x2="46.2134" y2="5.53095" gradientUnits="userSpaceOnUse">
<stop stop-color="#4F7C0F"/>
<stop offset="0.03" stop-color="#538212"/>
<stop offset="0.11" stop-color="#5D9019"/>
<stop offset="0.21" stop-color="#63981D"/>
<stop offset="0.39" stop-color="#659B1F"/>
<stop offset="0.99" stop-color="#4F7C0F"/>
</linearGradient>
<linearGradient id="paint17_linear_251_177552" x1="17.8782" y1="5.52997" x2="46.2142" y2="5.52997" gradientUnits="userSpaceOnUse">
<stop stop-color="#372B42"/>
<stop offset="0.14" stop-color="#43354D"/>
<stop offset="0.28" stop-color="#473951"/>
<stop offset="0.64" stop-color="#43354D"/>
<stop offset="0.99" stop-color="#372B42"/>
<stop offset="1" stop-color="#372B42"/>
</linearGradient>
<linearGradient id="paint18_linear_251_177552" x1="19.2441" y1="10.0283" x2="44.3974" y2="10.0283" gradientUnits="userSpaceOnUse">
<stop stop-color="#CCCCCC"/>
<stop offset="1" stop-color="#999999"/>
</linearGradient>
<linearGradient id="paint19_linear_251_177552" x1="35.002" y1="5.52997" x2="40.3299" y2="5.52997" gradientUnits="userSpaceOnUse">
<stop stop-color="#CCCCCC"/>
<stop offset="1" stop-color="#999999"/>
</linearGradient>
<linearGradient id="paint20_linear_251_177552" x1="26.582" y1="9.16945" x2="35.8422" y2="9.16945" gradientUnits="userSpaceOnUse">
<stop stop-color="#CCCCCC"/>
<stop offset="1" stop-color="#999999"/>
</linearGradient>
<linearGradient id="paint21_linear_251_177552" x1="29.9371" y1="18.337" x2="29.9371" y2="-3.02655" gradientUnits="userSpaceOnUse">
<stop stop-color="#EDB77D"/>
<stop offset="1" stop-color="#FFD8B0"/>
</linearGradient>
<linearGradient id="paint22_linear_251_177552" x1="27.3054" y1="18.337" x2="27.3054" y2="-3.02655" gradientUnits="userSpaceOnUse">
<stop stop-color="#4F7C0F"/>
<stop offset="0.03" stop-color="#538212"/>
<stop offset="0.11" stop-color="#5D9019"/>
<stop offset="0.21" stop-color="#63981D"/>
<stop offset="0.39" stop-color="#659B1F"/>
<stop offset="0.99" stop-color="#4F7C0F"/>
</linearGradient>
<linearGradient id="paint23_linear_251_177552" x1="32.5691" y1="18.337" x2="32.5691" y2="-3.02655" gradientUnits="userSpaceOnUse">
<stop stop-color="#4F7C0F"/>
<stop offset="0.03" stop-color="#538212"/>
<stop offset="0.11" stop-color="#5D9019"/>
<stop offset="0.21" stop-color="#63981D"/>
<stop offset="0.39" stop-color="#659B1F"/>
<stop offset="0.99" stop-color="#4F7C0F"/>
</linearGradient>
<clipPath id="clip0_251_177552">
<rect width="58.6269" height="92" fill="white" transform="translate(0.725586)"/>
</clipPath>
</defs>
</svg>
