<svg width="138" height="82" viewBox="0 0 138 82" fill="none" xmlns="http://www.w3.org/2000/svg">
<g clip-path="url(#clip0_240_173774)">
<path d="M0.0634766 38.6549C1.6012 37.4391 2.00228 35.1343 2.88155 33.4649C5.37015 28.741 7.01602 23.5495 10.2903 19.2668C13.7452 14.7473 18.1606 11.1516 23.0372 8.24341C26.8322 5.98014 31.0513 4.26866 35.2538 2.92172C35.2538 2.92172 51.5344 -4.59965 63.6198 6.18493C63.6198 6.18493 69.8704 26.0436 42.2069 38.8912C34.7531 42.3527 26.0005 46.027 17.6809 43.6356C15.1438 42.9065 12.7809 41.7178 10.3403 40.7349C7.06359 39.415 3.60409 38.6318 0.0634766 38.6549Z" fill="#6D422D"/>
<path d="M5.36426 34.0397C5.36426 34.0397 17.5729 -6.69569 63.6194 6.18543C63.6194 6.18543 23.499 -7.07574 5.36426 34.0397Z" fill="#4C2C1F"/>
<path d="M7.31738 36.7892C7.31738 36.7892 52.5197 54.2599 63.6197 6.18494C63.6197 6.18494 55.3453 50.2907 7.31738 36.7892Z" fill="#4C2C1F"/>
<path d="M8.09766 34.8729C8.09766 34.8729 27.719 4.50903 63.6199 6.18545C63.6199 6.18545 31.1084 5.33071 8.09766 34.8729Z" fill="#4C2C1F"/>
<path d="M10.0967 35.2209C10.0967 35.2209 43.3763 33.5029 63.62 6.18494C63.62 6.18494 47.9354 28.9358 10.0967 35.2209Z" fill="#4C2C1F"/>
<path d="M13.8017 32.3968C13.2594 32.7638 35.6002 16.9335 63.6197 6.18542C63.6197 6.18542 27.4934 23.1279 13.8017 32.3968Z" fill="#4C2C1F"/>
<path d="M7.38672 33.1875C7.38672 33.1875 17.4838 5.33922 51.5876 4.94916C51.5876 4.94916 25.6731 6.56199 7.38672 33.1875Z" fill="#8C523B"/>
<path d="M11.3877 32.3212C11.3877 32.3212 28.8384 12.5051 53.2757 8.95596C53.2757 8.95596 32.672 14.3813 11.3877 32.3212Z" fill="#8C523B"/>
<path d="M15.2178 32.9311C15.2178 32.9311 44.3083 25.0397 58.1203 10.0906C58.1203 10.0906 40.8829 22.2491 15.2178 32.9311Z" fill="#8C523B"/>
<path d="M11.9297 36.4332C11.9297 36.4332 46.6914 45.4547 60.5069 11.9879C60.5069 11.9879 43.1633 36.7682 11.9297 36.4332Z" fill="#8C523B"/>
<path d="M58.3438 76.7744C58.4024 77.1039 58.1831 77.4183 57.8536 77.4769C57.5241 77.5355 57.2097 77.3162 57.1511 76.9867C57.0925 76.6572 57.3118 76.3428 57.6413 76.2842C57.9708 76.2256 58.2852 76.4449 58.3438 76.7744Z" stroke="#FF0000" stroke-width="7" stroke-miterlimit="10"/>
<path d="M88.7501 43.8554C88.9614 39.3483 88.5367 34.7832 86.644 31.0769C85.2195 28.2879 82.8651 27.2218 79.8302 27.1983C77.5879 27.1813 74.8445 28.3209 72.6558 27.668C71.3139 27.2679 70.5513 25.8223 69.1032 25.4487C67.5054 25.0362 66.0883 25.8518 64.9421 26.9129C62.404 29.2628 60.5538 32.3913 59.0026 35.4477C58.3727 36.689 57.7678 37.9523 57.223 39.2337C54.3779 45.9238 53.7755 52.4918 53.4636 59.6286C53.1671 66.4144 51.8888 78.0558 59.8037 81.304C61.7716 82.1116 64.854 82.4722 66.6001 80.9469C68.4327 79.3461 67.7076 76.3959 67.3431 74.3259C68.6465 76.165 69.3615 79.5339 71.6694 80.3441C75.1354 81.5608 79.4151 77.3482 81.0289 74.8061C84.918 68.6807 86.3521 60.3136 87.5954 53.2815C88.1031 50.4088 88.5963 47.1476 88.7506 43.8554H88.7501Z" fill="#AF7541"/>
<path d="M71.1232 26.7221C71.1232 26.7221 56.3639 53.7447 62.6019 76.0153C62.6019 76.0153 62.1333 47.7235 71.1232 26.7221Z" fill="#7F522D"/>
<path d="M75.6802 27.7536C75.6802 27.7536 81.5622 48.8271 70.8828 70.0042C70.8828 70.0042 77.1043 48.4585 75.6802 27.7536Z" fill="#7F522D"/>
<path d="M61.9541 79.5319C61.9541 79.5319 52.6096 57.4991 69.4409 27.022C69.4409 27.022 55.659 52.1699 61.9541 79.5319Z" fill="#C9844B"/>
<path d="M71.5189 28.9363C71.5189 28.9363 61.597 60.0392 65.1136 78.9691C65.1136 78.9691 65.1171 49.3513 71.5189 28.9363Z" fill="#C9844B"/>
<path d="M69.873 68.7669C69.873 68.7669 76.5322 40.4805 74.1272 29.3754C74.1272 29.3754 74.2794 45.4487 69.873 68.7669Z" fill="#C9844B"/>
<path d="M71.4229 73.0255C71.4229 73.0255 83.268 56.0019 77.8361 28.7145C77.8361 28.7145 82.0737 49.3032 71.4229 73.0255Z" fill="#C9844B"/>
<path d="M73.7754 78.2746C73.7754 78.2746 85.1749 76.2422 87.3285 41.4219C87.3285 41.4219 82.3463 71.5028 73.7754 78.2746Z" fill="#C9844B"/>
<path d="M55.3932 71.3486C55.3932 71.3486 49.9939 46.6283 66.7091 27.5092C66.7091 27.5092 56.618 41.6537 55.3932 71.3486Z" fill="#C9844B"/>
<path d="M87.376 38.2408C87.4346 38.5702 87.2153 38.8847 86.8858 38.9433C86.5563 39.0019 86.2419 38.7826 86.1833 38.4531C86.1247 38.1236 86.344 37.8091 86.6735 37.7506C87.003 37.692 87.3174 37.9113 87.3765 38.2408H87.376Z" fill="#E8A370"/>
<path d="M72.5 75.6192C72.5586 75.9487 72.3393 76.2632 72.0098 76.3218C71.6804 76.3803 71.3659 76.161 71.3073 75.8315C71.2487 75.5021 71.468 75.1876 71.7975 75.129C72.127 75.0705 72.4415 75.2898 72.5 75.6192Z" fill="#E8A370"/>
<path d="M69.9156 49.7248C69.9747 50.0543 69.7549 50.3688 69.4254 50.4279C69.0959 50.4864 68.7814 50.2671 68.7224 49.9376C68.6638 49.6082 68.8831 49.2937 69.2126 49.2346C69.542 49.176 69.8565 49.3954 69.9151 49.7248H69.9156Z" fill="#E8A370"/>
<path d="M68.5455 27.1021C68.6041 27.4316 68.3847 27.7461 68.0553 27.8052C67.7258 27.8637 67.4113 27.6444 67.3522 27.315C67.2937 26.9855 67.513 26.671 67.8425 26.6124C68.1719 26.5539 68.4864 26.7732 68.545 27.1026L68.5455 27.1021Z" fill="#E8A370"/>
<path d="M58.3164 75.2732C58.375 75.6027 58.1557 75.9172 57.8262 75.9757C57.4968 76.0343 57.1823 75.815 57.1237 75.4855C57.0651 75.1561 57.2845 74.8416 57.6139 74.783C57.9434 74.7244 58.2579 74.9438 58.3169 75.2732H58.3164Z" fill="#E8A370"/>
<path d="M87.347 4.37681C87.347 4.37681 75.2325 17.6825 94.8709 33.6621C94.8709 33.6621 115.639 53.4783 126.08 47.2903C126.08 47.2903 131.583 43.4653 136.142 43.595C136.142 43.595 135.242 39.2252 136.92 34.4478C136.92 34.4478 140.469 19.1602 116.993 6.5855C116.993 6.5855 95.6095 -6.62609 87.347 4.37681Z" fill="#6D422D"/>
<path d="M133.691 41.6542C133.691 41.6542 119.095 57.0525 87.5205 23.3533C87.5205 23.3533 115.099 53.1193 133.691 41.6542Z" fill="#4C2B1E"/>
<path d="M134.232 37.4621C134.232 37.4621 124.215 45.5578 105.493 35.2014C105.493 35.2014 120.651 43.3091 134.232 37.4621Z" fill="#4C2B1E"/>
<path d="M116.092 36.352C116.092 36.352 142.808 41.9141 132.566 21.9517C132.566 21.9517 140.939 38.7695 116.092 36.352Z" fill="#4C2B1E"/>
<path d="M92.8166 2.24373C90.4992 2.88867 88.1618 5.47641 87.3537 7.66407C85.9852 11.3689 85.7058 13.0018 85.4684 14.0813C85.2311 15.1609 85.1284 17.3776 86.2741 18.3525C87.4198 19.3274 88.989 22.5671 93.4585 24.1844C97.9274 25.8023 97.5814 28.7606 100.433 28.5978C103.285 28.4351 105.214 37.1677 116.028 35.2499C126.842 33.3322 134.324 23.1514 127.406 15.8739C127.406 15.8739 107.539 -1.84668 92.8166 2.24373Z" fill="#44271B"/>
<path d="M93.8825 3.43344C91.7814 4.01828 89.6619 6.36468 88.9293 8.34804C87.6885 11.7074 87.4352 13.1875 87.2198 14.1665C87.0045 15.1454 86.9119 17.1548 87.9504 18.039C88.9889 18.9228 90.412 21.8601 94.4643 23.3267C98.5162 24.7933 98.2027 27.4757 100.788 27.328C103.373 27.1803 105.123 35.0982 114.927 33.3592C124.733 31.6202 131.516 22.3898 125.243 15.7913C125.243 15.7913 107.23 -0.275921 93.8815 3.43294L93.8825 3.43344Z" fill="#AF7541"/>
<path d="M119.149 32.0854C119.149 32.0854 99.8924 22.9201 88.2852 10.1817C88.2852 10.1817 100.282 19.6424 119.149 32.0854Z" fill="#7F522D"/>
<path d="M124.885 28.0165C124.885 28.0165 104.594 5.53347 92.0664 4.34875C92.0664 4.34875 105.595 10.6864 124.885 28.0165Z" fill="#7F522D"/>
<path d="M133.592 39.9291C133.592 39.9291 124.094 48.9642 106.403 37.4901C106.403 37.4901 121.435 45.6554 133.592 39.9291Z" fill="#8C523B"/>
<path d="M120.962 35.0987C120.962 35.0987 135.179 35.8468 131.38 23.9696C131.38 23.9696 130.517 33.9035 120.962 35.0987Z" fill="#8C523B"/>
<path d="M123.846 46.8978C123.846 46.8978 115.416 50.2836 97.7773 34.4573C97.7773 34.4573 114.939 48.0564 123.846 46.8978Z" fill="#8C523B"/>
<path d="M115.787 32.2225C115.787 32.2225 99.7612 24.0998 88.3652 12.7864C88.3652 12.7864 105.555 26.1097 115.787 32.2225Z" fill="#C9844B"/>
<path d="M119.502 30.0178C119.502 30.0178 100.387 16.3761 90.084 9.03201C90.084 9.03201 112.478 27.726 119.502 30.0178Z" fill="#C9844B"/>
<path d="M122.775 28.1371C122.775 28.1371 100.33 9.4872 92.1553 5.92255C92.1553 5.92255 119.1 25.26 122.775 28.1371Z" fill="#C9844B"/>
<path d="M124.742 25.5194C124.742 25.5194 111.247 8.43667 96.0459 4.12143C96.0459 4.12143 113.488 12.3553 124.742 25.5194Z" fill="#C9844B"/>
<path d="M125.917 21.143C125.917 21.143 125.999 14.7844 106.642 5.6156C106.642 5.6156 122.918 15.6626 125.917 21.143Z" fill="#C9844B"/>
<path d="M103.529 5.0568C103.821 5.04028 104.072 5.2636 104.088 5.55552C104.105 5.84794 103.881 6.0983 103.589 6.11483C103.297 6.13135 103.047 5.90803 103.03 5.61611C103.014 5.32369 103.237 5.07332 103.529 5.0568Z" fill="#E8A370"/>
<path d="M119.086 27.355C119.378 27.3385 119.628 27.5618 119.645 27.8538C119.661 28.1462 119.438 28.3966 119.146 28.4131C118.854 28.4296 118.603 28.2063 118.587 27.9144C118.57 27.6219 118.794 27.3716 119.086 27.355Z" fill="#E8A370"/>
<path d="M100.018 24.235C100.311 24.2185 100.561 24.4418 100.577 24.7337C100.594 25.0261 100.371 25.2765 100.079 25.293C99.7869 25.3095 99.536 25.0862 99.5195 24.7943C99.5024 24.5024 99.7263 24.2515 100.018 24.235Z" fill="#E8A370"/>
</g>
<defs>
<clipPath id="clip0_240_173774">
<rect width="137.048" height="82" fill="white" transform="translate(0.0634766)"/>
</clipPath>
</defs>
</svg>
