<svg width="120" height="92" viewBox="0 0 120 92" fill="none" xmlns="http://www.w3.org/2000/svg">
<g clip-path="url(#clip0_236_173588)">
<path d="M0.4375 71.7955L2.56869 70.063C2.56869 70.063 48.4573 67.2771 57.5566 63.793L59.545 66.9376L46.037 73.7752L25.0002 74.5186L6.29132 74.6579L0.4375 71.7955Z" fill="#CCA880"/>
<path d="M102.545 53.057C102.423 55.7924 100.662 58.2614 98.5938 60.0966C98.357 60.3072 98.1167 60.511 97.873 60.706C91.0162 66.269 81.3736 67.0195 72.4728 66.9341C55.3484 66.7705 38.0324 64.5 22.2104 57.948C18.5835 56.4453 14.9915 54.685 12.1046 52.0262C7.67335 47.9432 5.22353 41.7969 5.63444 35.7846C5.72324 34.4822 5.94611 33.1902 6.29086 31.9331C7.5358 27.3852 10.3774 23.269 14.2515 20.572L14.6102 20.0078C14.7147 19.9225 14.8191 19.8407 14.9253 19.7606C18.6027 16.9852 23.6173 16.7849 28.2557 16.7153C33.6238 16.6352 39.0022 16.5533 44.3494 17.0113C45.8033 17.1349 47.2554 17.3003 48.7006 17.5093C66.2063 20.0078 82.8205 28.4577 95.1672 41.1126C96.4731 42.448 97.7285 43.8305 98.9316 45.2566C100.725 47.3808 102.484 49.8045 102.553 52.5851C102.557 52.7419 102.553 52.9003 102.546 53.0553L102.545 53.057Z" fill="#BAC146"/>
<path d="M107.22 59.8893C105.768 61.1987 103.635 61.4076 101.686 61.2666C100.403 61.1726 99.1355 60.9584 97.8731 60.7059C95.735 60.2776 93.6107 59.7378 91.4447 59.4906C86.7714 58.9613 81.8282 59.7744 77.5084 57.9148C74.6006 56.6629 72.0446 54.2288 68.8774 54.1887C67.1032 54.1661 65.3602 54.927 63.5982 54.7111C62.2505 54.5474 61.0387 53.8266 59.7293 53.4714C54.8732 52.1533 49.4024 55.9403 44.8736 53.7517C41.7883 52.263 40.2543 48.408 37.0244 47.2641C33.913 46.1619 30.159 47.9466 27.2913 46.3117C25.8757 45.5055 24.9686 43.9942 23.5512 43.1932C20.8594 41.6715 16.8686 42.9634 14.8297 40.6389C13.4768 39.0945 13.6788 36.575 12.2302 35.1212C11.1106 33.9999 9.36767 33.8675 7.91205 33.2494C7.28871 32.9848 6.69323 32.499 6.29102 31.9313C7.53595 27.3834 10.3775 23.2673 14.2516 20.5702L14.6103 20.0061C14.7148 19.9207 14.8193 19.8389 14.9255 19.7588C18.6028 16.9834 23.6174 16.7832 28.2559 16.7135C33.6239 16.6334 39.0024 16.5516 44.3495 17.0095C45.8034 17.1331 47.2555 17.2985 48.7007 17.5075C53.9904 19.226 59.2313 21.096 64.2372 23.511C70.6656 26.6121 76.6291 30.5785 82.8259 34.1183C86.9177 36.4549 91.1557 38.6366 95.1656 41.1125C98.7124 43.3029 102.083 45.7232 105.015 48.6849C106.518 50.2032 107.927 51.9148 108.538 53.9624C109.149 56.0083 108.806 58.4598 107.218 59.8911L107.22 59.8893Z" fill="#9D7258"/>
<path d="M14.3218 27.2041C16.2667 28.3881 18.1767 29.5599 19.9405 31.0103C23.7084 34.1113 27.2308 37.6737 31.4671 40.1566C35.0469 42.2548 39.1265 42.9094 43.1974 43.3465C47.3553 43.7922 51.4784 44.2693 55.5858 45.0807C59.7159 45.8955 63.8006 46.9751 67.72 48.5282C69.7885 49.3483 71.8466 50.1928 73.9029 51.0424C75.9471 51.8887 77.9999 52.8446 80.1085 53.5149C84.3639 54.8695 88.7795 55.6113 93.1446 56.5115C97.4766 57.4047 101.802 58.5121 106.003 59.8963C106.289 59.9903 106.573 60.0861 106.855 60.1836C106.98 60.0913 107.102 59.9956 107.218 59.8911C108.805 58.4598 109.149 56.01 108.538 53.9624C107.929 51.9148 106.52 50.2032 105.016 48.6849C102.084 45.7232 98.7129 43.3029 95.1661 41.1125C91.1562 38.6366 86.9182 36.4549 82.8264 34.1183C76.6296 30.5802 70.6643 26.6138 64.2377 23.511C59.2318 21.096 53.9909 19.2278 48.7012 17.5075C47.256 17.3003 45.8039 17.1349 44.35 17.0095C39.0011 16.5533 33.6244 16.6334 28.2564 16.7135C23.6179 16.7832 18.6051 16.9834 14.926 19.7588C14.8198 19.8389 14.7153 19.9208 14.6108 20.0061L14.2521 20.5702C12.76 21.6097 11.421 22.8599 10.2666 24.265C11.475 25.4194 12.894 26.3317 14.3218 27.2023V27.2041Z" fill="#805944"/>
<path opacity="0.1" d="M102.545 53.057C102.423 55.7924 100.662 58.2613 98.5938 60.0965C91.7023 66.215 81.6888 67.0229 72.4728 66.9341C55.3484 66.7704 38.0324 64.5 22.2104 57.9479C18.5835 56.4453 14.9915 54.685 12.1046 52.0262C7.67335 47.9432 5.22353 41.7968 5.63444 35.7846C6.04362 29.7723 9.30483 24.016 14.2515 20.5719L14.6102 20.0078C14.7147 19.9225 14.8191 19.8407 14.9253 19.7606L15.587 20.8505C15.587 20.8505 4.3808 39.1346 23.0496 50.5584C41.7185 61.9822 84.4903 47.4939 84.4903 47.4939L102.546 53.0552L102.545 53.057Z" fill="black"/>
<path d="M9.2497 16.3461L8.4209 19.771C8.4209 19.771 25.7943 32.8872 44.3918 37.4839C62.9892 42.0806 98.7233 58.5904 98.7233 58.5904L102.275 56.2921L92.0354 46.0017C92.0354 46.0017 72.1826 37.9036 64.2428 33.9337C56.3014 29.9638 32.6876 21.6045 32.6876 21.6045C32.6876 21.6045 15.7617 15.6897 15.1349 16.3496C14.508 17.0078 9.24795 16.3496 9.24795 16.3496L9.2497 16.3461Z" fill="#E0BC8B"/>
<path d="M111.912 75.1699C104.169 83.712 92.0682 86.5536 80.6774 88.3209C64.6674 90.8038 48.4623 92.0348 32.2607 91.9983C26.2832 91.9844 20.0847 91.7458 14.7306 89.087C7.8895 85.6883 3.44081 78.8194 0.435547 71.7955C4.54123 71.7328 8.64691 71.5935 12.7491 71.3776C28.4405 70.5592 44.0745 68.6265 59.4943 65.6021C65.7399 64.3763 71.9489 62.973 78.1562 61.5696C85.2706 59.9607 92.3816 58.3519 99.4943 56.743C71.5833 38.9587 35.2903 36.7735 9.24936 16.3461C11.3301 9.9038 17.9448 4.69073 24.2913 2.33667C30.6379 -0.0173968 37.5765 -0.226337 44.334 0.146273C59.0991 0.9594 73.7127 4.44522 87.2538 10.3844C91.363 12.1865 95.413 14.2358 98.8622 17.107C104.714 21.9753 108.456 28.8564 112.057 35.5634C114.827 40.7225 117.637 45.9931 118.658 51.7598C118.88 53.0152 119.009 54.2845 119.049 55.5573C119.276 62.677 116.704 69.8837 111.912 75.1699Z" fill="#FFD69E"/>
<path d="M111.912 75.1698C104.169 83.712 92.0682 86.5536 80.6774 88.3209C64.6674 90.8038 48.4623 92.0348 32.2607 91.9982C26.2832 91.9843 20.0847 91.7458 14.7306 89.087C7.8895 85.6882 3.44081 78.8193 0.435547 71.7954C4.54123 71.7328 8.64691 71.5935 12.7491 71.3776C14.7602 73.3851 16.7799 75.3753 19.1009 76.9981C29.3668 84.1682 43.1134 82.7683 55.5175 81.0689C64.051 79.9006 72.5862 78.7305 81.1197 77.5622C92.7263 75.9725 105.606 73.6637 112.591 64.2579C114.696 61.425 116.156 58.0506 118.826 55.7418C118.9 55.6774 118.974 55.6165 119.049 55.5555C119.276 62.6752 116.704 69.8819 111.912 75.1681V75.1698Z" fill="#E0BC8B"/>
<path opacity="0.21" d="M109.309 34.1984C107.072 30.5767 104.585 27.1083 101.874 23.8262C100.232 21.8395 98.4964 19.9121 96.4714 18.3189C94.5787 16.8319 92.4615 15.6601 90.3146 14.5736C84.9065 11.8365 79.2442 9.5991 73.4252 7.89972C62.4245 4.68726 50.9519 3.41272 39.5177 2.67098C35.5374 2.41329 31.4769 2.2235 27.6185 3.23164C24.5488 4.23455 21.5105 7.38607 22.4368 10.3078C23.2952 13.0205 26.1751 14.4674 28.7903 15.5905C32.9517 17.3769 37.1601 19.0972 41.5409 20.2498C47.3808 21.7873 53.4349 22.294 59.3792 23.3561C67.0769 24.7334 74.5744 27.0422 82.0475 29.344C83.1445 29.6818 84.2484 30.023 85.2669 30.5489C86.4213 31.1444 87.4399 31.9662 88.5264 32.6783C93.6193 36.0161 100.201 36.986 104.557 41.2397C105.397 42.058 106.208 43.0296 107.35 43.2942C109.297 43.7469 111.123 41.7533 111.257 39.7597C111.391 37.766 110.362 35.896 109.313 34.1966L109.309 34.1984Z" fill="white"/>
</g>
<defs>
<clipPath id="clip0_236_173588">
<rect width="118.626" height="92" fill="white" transform="translate(0.4375)"/>
</clipPath>
</defs>
</svg>
