<svg width="41" height="92" viewBox="0 0 41 92" fill="none" xmlns="http://www.w3.org/2000/svg">
<g clip-path="url(#clip0_244_175224)">
<path d="M36.3123 88.2975C35.6388 89.9228 34.3467 91.0483 32.846 91.3055C30.227 91.7502 25.8308 92 20.5443 92C19.8708 92 19.2174 91.9927 18.5787 91.9863C14.5431 91.9241 11.1948 91.6733 8.91714 91.3265C8.68745 91.2917 8.466 91.257 8.25735 91.2222C7.47952 91.0831 6.75751 90.7152 6.14623 90.1662C5.5624 89.6519 5.0838 88.9711 4.75712 88.1658C3.29113 84.5054 0.679451 76.8579 0.895414 69.1345C1.04823 63.633 4.54207 50.7558 8.0359 39.1487C9.87616 33.0359 11.71 27.2781 13.0579 23.1382C13.801 20.8459 14.3565 18.4703 14.7042 16.0535C14.8918 14.734 15.0236 13.3997 15.0931 12.06C15.1352 11.3097 15.1553 10.5593 15.1553 9.80983V3.89832H25.9562V9.80892C25.9562 10.5593 25.9773 11.3088 26.0184 12.0591C26.088 13.3997 26.2134 14.733 26.4 16.0526C26.7478 18.4694 27.3032 20.845 28.0463 23.1373C29.4006 27.2772 31.2345 33.0349 33.0747 39.1478C33.9642 42.1072 34.8528 45.149 35.6864 48.1285C38.1242 56.8457 40.0972 65.0349 40.2079 69.1327C40.4303 77.1828 37.7838 84.747 36.3114 88.2966L36.3123 88.2975Z" fill="url(#paint0_linear_244_175224)"/>
<g style="mix-blend-mode:lighten" opacity="0.15">
<path d="M36.3123 88.2975C35.6388 89.9227 34.3467 91.0483 32.846 91.3054C30.227 91.7502 25.8308 92 20.5443 92C15.2578 92 10.848 91.6806 8.25735 91.2222C6.73647 90.9513 5.42331 89.812 4.7562 88.1658C3.29113 84.5054 0.679451 76.8579 0.895414 69.1345C0.916461 68.4189 0.992414 67.5853 1.11778 66.6409C8.05695 69.7595 22.5255 73.9205 39.841 65.648C40.056 67.0024 40.1814 68.1828 40.2088 69.1345C40.4312 77.1846 37.7847 84.7488 36.3123 88.2984V88.2975Z" fill="white"/>
</g>
<path d="M36.3123 88.2975C35.6388 89.9228 34.3467 91.0483 32.846 91.3055C30.227 91.7502 25.8308 92 20.5443 92C15.2578 92 10.848 91.6806 8.25735 91.2222C6.73647 90.9513 5.42331 89.812 4.7562 88.1658C3.29113 84.5054 0.679451 76.8579 0.895414 69.1345C0.916461 68.4189 0.992414 67.5853 1.11778 66.6409C2.4584 56.4861 9.48724 34.1202 13.0579 23.1382C14.4407 18.8876 15.1553 14.3725 15.1553 9.80892V3.89832H25.9562V9.80892C25.9562 14.3725 26.6645 18.8876 28.0472 23.1382C31.5136 33.7789 38.2093 55.0897 39.8419 65.6471C40.0569 67.0014 40.1823 68.1819 40.2097 69.1336C40.4321 77.1837 37.7856 84.7479 36.3133 88.2975H36.3123Z" fill="url(#paint1_linear_244_175224)"/>
<path d="M35.6739 88.034C35.1048 89.4093 34.035 90.361 32.8051 90.6035C32.7777 90.6109 32.7566 90.6109 32.7282 90.6173C30.5403 90.9925 27.1086 91.2285 22.9065 91.2844C22.1424 91.2981 21.3573 91.3054 20.5447 91.3054C15.5849 91.3054 11.154 91.0272 8.37573 90.534C7.08362 90.3043 5.97269 89.3252 5.40259 87.9013C3.88811 84.1366 1.38075 76.684 1.58939 69.1473C1.81816 60.7358 10.1464 34.3206 13.7171 23.3532C15.1273 19.0193 15.8493 14.4621 15.8493 9.80888V4.59283H25.2611V9.80888C25.2611 14.4631 25.9767 19.0193 27.3868 23.3532C30.9566 34.3206 39.2849 60.7358 39.521 69.1473C39.7296 76.9961 37.2012 84.3452 35.673 88.033L35.6739 88.034Z" fill="#B0BEEA"/>
<path d="M34.0467 88.3488C34.0467 90.0115 27.8671 90.9824 20.4154 90.9824C12.9638 90.9824 7.06055 90.0115 7.06055 88.3488C7.06055 86.6861 13.102 85.3391 20.5536 85.3391C28.0052 85.3391 34.0467 86.687 34.0467 88.3488Z" fill="#6B7CAF"/>
<path d="M34.0467 88.3488C34.0467 90.0115 27.8671 90.9824 20.4154 90.9824C12.9638 90.9824 7.06055 90.0115 7.06055 88.3488C7.06055 86.6861 13.102 85.3391 20.5536 85.3391C28.0052 85.3391 34.0467 86.687 34.0467 88.3488Z" fill="#6B7CAF"/>
<path d="M27.3873 23.3249C27.3251 23.1373 27.2647 22.9487 27.2061 22.7602C26.9609 21.9733 26.2215 21.4361 25.3851 21.4361H15.7199C14.8825 21.4361 14.1441 21.9723 13.8988 22.7602C13.8402 22.9487 13.7799 23.1373 13.7176 23.3249C10.1469 34.1166 1.81773 60.1117 1.58712 68.3951C1.38123 75.8101 3.88859 83.141 5.40216 86.8508C5.97226 88.2472 7.0841 89.2154 8.37713 89.4414C11.1508 89.9236 15.5853 90.2009 20.5461 90.2009C25.8152 90.2009 30.1408 89.9603 32.7269 89.5238C33.9888 89.3105 35.0897 88.3597 35.6708 86.9798C37.199 83.3514 39.731 76.113 39.5178 68.3951C39.2881 60.1117 30.958 34.1166 27.3873 23.3249Z" fill="url(#paint2_linear_244_175224)"/>
<path style="mix-blend-mode:overlay" opacity="0.88" d="M39.5179 68.3951C39.2882 60.1117 30.9581 34.1166 27.3874 23.3249C27.3252 23.1373 27.2648 22.9488 27.2062 22.7603C27.0433 22.2377 26.6617 21.8305 26.1804 21.6127C26.4092 21.8287 26.5876 22.0996 26.6855 22.4134C26.7441 22.6019 26.8045 22.7905 26.8667 22.9781C30.4374 33.7698 38.7666 59.7649 38.9972 68.0483C39.2114 75.7671 36.6793 83.0056 35.1502 86.633C34.5691 88.013 33.4682 88.9637 32.2063 89.177C29.6202 89.6135 25.2937 89.8541 20.0255 89.8541C15.0657 89.8541 10.6302 89.5768 7.85654 89.0946C7.47312 89.0278 7.10982 88.8887 6.76758 88.6993C7.24617 89.0772 7.79157 89.3389 8.37723 89.4414C11.1509 89.9237 15.5854 90.2009 20.5462 90.2009C25.8153 90.2009 30.1409 89.9603 32.727 89.5238C33.9889 89.3106 35.0898 88.3598 35.6709 86.9798C37.1991 83.3515 39.7311 76.1131 39.5179 68.3951Z" fill="url(#paint3_linear_244_175224)"/>
<path style="mix-blend-mode:color-burn" d="M26.018 12.0591H15.0918C15.1339 11.3087 15.154 10.5583 15.154 9.80888V7.31525H25.9549V9.80888C25.9549 10.5593 25.9759 11.3087 26.0171 12.0591H26.018Z" fill="url(#paint4_linear_244_175224)"/>
<path d="M20.5457 0.0347917C19.5949 -0.0301801 16.1679 0.0128294 14.0632 0.0466879C13.181 0.0613294 12.5322 0.874849 12.7116 1.7387L14.4356 10.0688C14.5711 10.7222 15.1466 11.1907 15.8137 11.1907H25.2777C25.9448 11.1907 26.5204 10.7222 26.6558 10.0688L28.3798 1.7387C28.5583 0.874849 27.9104 0.0604143 27.0282 0.0466879C24.9244 0.0119143 21.4965 -0.0310952 20.5457 0.0347917Z" fill="url(#paint5_linear_244_175224)"/>
<path d="M28.4011 1.5575H12.6899C12.6276 0.765942 13.2453 0.0640643 14.0653 0.0503379C14.2391 0.0503379 14.4267 0.0430171 14.6207 0.0430171C15.9256 0.0219699 17.5509 0.00183781 18.8082 0.00183781C19.5796 0.00183781 20.211 0.00915857 20.545 0.0366114C21.4967 -0.0329358 24.9283 0.0155642 27.0257 0.0503379C27.4632 0.0576586 27.8457 0.258979 28.0955 0.571027C28.1513 0.640574 28.1998 0.710121 28.241 0.793395C28.2831 0.870263 28.3169 0.953537 28.3453 1.03681C28.3938 1.19695 28.4149 1.37723 28.4011 1.5575Z" fill="#F94A21"/>
<path d="M33.0759 39.1487C24.7476 39.9339 16.3644 39.9339 8.03613 39.1487C8.91096 36.3146 9.78671 33.5291 10.6057 30.9321C10.7164 30.5779 10.8281 30.2302 10.9388 29.8898C11.7166 27.4309 12.4396 25.1807 13.0573 23.2562C13.3556 22.3183 13.6264 21.3602 13.8635 20.3947C13.9541 20.047 14.03 19.7002 14.1069 19.3524C14.3503 18.269 14.5443 17.1645 14.7044 16.0535H26.4012C26.5613 17.1645 26.7553 18.269 26.9987 19.3524C27.0756 19.7002 27.1516 20.047 27.2421 20.3947C27.4782 21.3602 27.7491 22.3183 28.0474 23.2562C28.6724 25.1807 29.3954 27.4309 30.1732 29.8898C30.2839 30.2302 30.3956 30.577 30.5063 30.9321C31.3262 33.53 32.201 36.3156 33.0759 39.1487Z" fill="url(#paint6_linear_244_175224)"/>
<g style="mix-blend-mode:lighten" opacity="0.15">
<path d="M36.3126 88.2976C35.6391 89.9228 34.347 91.0483 32.8462 91.3055C30.2272 91.7502 25.8311 92 20.5446 92C19.8711 92 19.2177 91.9927 18.579 91.9863C14.5434 91.9241 11.1951 91.6733 8.91739 91.3265C8.6877 91.2917 8.46625 91.257 8.25761 91.2222C7.47978 91.0831 6.75777 90.7152 6.14648 90.1662C8.67489 89.0269 11.5227 88.5968 14.1966 87.7558C20.3442 85.825 25.7405 81.5808 29.0541 76.0518C32.999 69.4805 33.9096 61.5969 35.0763 54.019C35.3124 52.4981 35.3609 50.171 35.6876 48.1359C38.1254 56.8457 40.0983 65.0349 40.2091 69.1336C40.4314 77.1837 37.785 84.7479 36.3126 88.2976Z" fill="white"/>
</g>
<path d="M30.5051 30.9312C23.8817 31.4528 17.228 31.4528 10.6055 30.9312C10.7162 30.5853 10.8269 30.2467 10.9386 29.9154C11.7155 27.516 12.4375 25.3125 13.0552 23.4256C13.3535 22.5059 13.6244 21.5624 13.8605 20.6089C13.9511 20.2666 14.027 19.9226 14.1039 19.5794C18.4002 19.7981 22.7049 19.7981 27.0012 19.5794C27.0772 19.9226 27.154 20.2657 27.2446 20.6089C27.4807 21.5615 27.7516 22.505 28.0499 23.4256C28.6749 25.3125 29.3969 27.516 30.1729 29.9154C30.2837 30.2476 30.3953 30.5862 30.506 30.9312H30.5051Z" fill="url(#paint7_linear_244_175224)"/>
<path d="M30.1719 29.8898C23.7709 30.394 17.3396 30.394 10.9385 29.8898C11.7154 27.4922 12.4365 25.2905 13.0551 23.4045C13.3534 22.4848 13.6243 21.5423 13.8604 20.5897C18.3178 20.8331 22.7862 20.834 27.2436 20.5897C27.4797 21.5423 27.7506 22.4848 28.0489 23.4045C28.6739 25.2905 29.395 27.4913 30.1719 29.8889V29.8898Z" fill="url(#paint8_linear_244_175224)"/>
<path style="mix-blend-mode:overlay" opacity="0.56" d="M18.982 21.2631C18.2875 23.5207 14.9885 50.4364 14.8147 63.9807C14.6893 73.7393 17.1829 85.9366 18.5794 91.9863C14.5438 91.924 11.1955 91.6733 8.9178 91.3265C4.38167 83.2828 4.23617 69.4886 4.56927 64.8482C4.917 59.9863 12.904 30.6392 14.9885 22.6513C17.0722 14.6635 16.2038 9.28088 16.2038 9.28088L19.6766 8.23859C19.6766 8.23859 19.6766 19.0047 18.982 21.2622V21.2631Z" fill="url(#paint9_linear_244_175224)"/>
<path style="mix-blend-mode:screen" opacity="0.35" d="M6.67737 62.0215C5.65338 70.4788 6.03223 79.2473 9.11701 87.204C9.38971 87.9077 9.91498 88.5135 10.6141 88.7972C12.0627 89.3838 12.9943 88.207 13.1169 87.0622C13.202 86.2679 12.9787 85.4772 12.7673 84.7076C11.5374 80.2228 10.6434 75.6445 10.1172 71.0233C9.3467 64.2498 9.39063 57.2905 10.3661 50.5453C10.6827 48.3537 11.2172 46.1922 11.4551 43.9978C11.4935 43.6409 11.6875 43.3874 11.2528 43.2053C10.9463 43.0772 10.604 43.263 10.5107 43.5705C8.69241 49.5506 7.42043 55.8776 6.67737 62.0215Z" fill="url(#paint10_linear_244_175224)"/>
<path style="mix-blend-mode:color-burn" opacity="0.5" d="M32.8044 90.6035C32.7769 90.6109 32.7559 90.6109 32.7275 90.6173C30.5395 90.9925 27.1079 91.2286 22.9058 91.2844C24.3297 85.0334 26.6284 73.3778 26.5103 63.9798C26.3365 50.4355 23.0376 23.5198 22.343 21.2622C21.6484 19.0047 21.6484 8.23859 21.6484 8.23859L25.1212 9.28088C25.1212 9.28088 24.2528 14.6644 26.3365 22.6513C28.4201 30.6392 36.8665 59.7218 37.2142 64.5837C37.5336 69.0915 37.0193 82.4482 32.8034 90.6035H32.8044Z" fill="url(#paint11_linear_244_175224)"/>
<path d="M28.4011 1.55749C28.4011 1.61972 28.3938 1.67554 28.38 1.73777L28.3727 1.78627L26.6917 9.89218L26.6569 10.066C26.5251 10.6911 26.0108 11.1358 25.3858 11.1843C25.3511 11.1916 25.3099 11.1916 25.2751 11.1916H15.8149C15.5714 11.1916 15.3427 11.1294 15.1413 11.0177C14.7872 10.8302 14.5227 10.4897 14.4395 10.066L14.4257 9.9965L12.7173 1.78627L12.7099 1.73777C12.6962 1.67554 12.6889 1.6124 12.6889 1.55749C12.6267 0.765937 13.2444 0.0640588 14.0643 0.0503323C14.2381 0.0503323 14.4257 0.0430116 14.6197 0.0430116C14.8632 0.0356908 15.113 0.0356908 15.3765 0.0356908C16.1544 0.0219644 16.988 0.00823797 17.7658 0.00823797C18.1273 0.000917206 18.4814 0.000917205 18.8081 0.000917205C19.5796 0.000917205 20.211 0.00823796 20.545 0.0356908C21.1563 -0.00640356 22.8089 -0.00640355 24.4625 0.00823797C25.3026 0.0219644 26.1435 0.0356908 26.8518 0.0503323H27.0257C27.4631 0.0576531 27.8456 0.258974 28.0954 0.571021C28.1513 0.640569 28.1998 0.716522 28.2409 0.79339C28.283 0.870257 28.3169 0.953531 28.3453 1.0368C28.3938 1.19695 28.4148 1.37722 28.4011 1.55749Z" fill="url(#paint12_linear_244_175224)"/>
<path style="mix-blend-mode:color-burn" d="M25.7873 10.1493H15.131C14.8766 10.1493 14.6359 10.0916 14.4209 9.99556L14.4365 10.0688C14.5719 10.7221 15.1475 11.1907 15.8146 11.1907H25.2785C25.9456 11.1907 26.5212 10.7221 26.6566 10.0688L26.6932 9.89032C26.4343 10.0514 26.1231 10.1484 25.7873 10.1484V10.1493Z" fill="url(#paint13_linear_244_175224)"/>
<g style="mix-blend-mode:lighten" opacity="0.25">
<path d="M19.343 1.52272V1.55749L19.1554 10.1493L19.1343 11.1916H15.8144C15.5709 11.1916 15.3422 11.1294 15.1408 11.0177C15.0987 10.7606 15.0576 10.4687 15.0091 10.1429C14.5781 7.35096 13.814 2.40487 13.6685 1.78718C13.6547 1.71763 13.6474 1.64168 13.6685 1.55841C13.7105 1.07249 14.1965 0.474935 14.6202 0.0439254C14.8636 0.0366047 15.1134 0.0366047 15.3769 0.0366047C16.1548 0.0228782 16.9884 0.00915181 17.7663 0.00915181C18.1277 0.00183105 18.4819 0.00183105 18.8085 0.00183105C19.1975 0.668935 19.343 1.52272 19.343 1.52272Z" fill="#FFFFEE"/>
</g>
<g style="mix-blend-mode:lighten" opacity="0.15">
<path d="M18.0301 1.43945L17.9048 11.1916H16.1331C15.8348 8.88558 14.9874 2.4122 14.8895 1.69659C14.8273 1.20335 15.1119 0.529844 15.3754 0.0366081C16.1533 0.0228817 16.9869 0.00915527 17.7647 0.00915527C17.9523 0.661618 18.0283 1.44036 18.0283 1.44036L18.0301 1.43945Z" fill="#FFFFEE"/>
</g>
<path style="mix-blend-mode:color-burn" d="M27.8386 1.69659C27.4844 2.30055 25.8034 9.39254 25.387 11.1843C25.3523 11.1916 25.3111 11.1916 25.2763 11.1916H23.5889C23.9851 9.41359 25.5472 2.33533 25.2909 1.52272C25.1729 1.15485 24.8325 0.571023 24.4646 0.00823975C25.3047 0.0219662 26.1456 0.0356926 26.8539 0.0503341C27.4515 0.605797 28.0628 1.31408 27.8404 1.69659H27.8386Z" fill="url(#paint14_linear_244_175224)"/>
<path d="M28.4074 1.43945C28.4074 1.47423 28.4074 1.51632 28.4001 1.5575C28.4001 1.61973 28.3928 1.67555 28.3791 1.73777L28.3717 1.78627H12.7154L12.7081 1.73777C12.6943 1.67555 12.687 1.61241 12.687 1.5575C12.687 1.51541 12.6797 1.48063 12.6797 1.43945H28.4056H28.4074Z" fill="#891A0B"/>
<path style="mix-blend-mode:overlay" opacity="0.35" d="M16.2794 1.14113C16.9688 1.14113 17.5276 0.946932 17.5276 0.707376C17.5276 0.467819 16.9688 0.273621 16.2794 0.273621C15.5901 0.273621 15.0312 0.467819 15.0312 0.707376C15.0312 0.946932 15.5901 1.14113 16.2794 1.14113Z" fill="url(#paint15_linear_244_175224)"/>
</g>
<defs>
<linearGradient id="paint0_linear_244_175224" x1="20.5526" y1="92" x2="20.5526" y2="3.89832" gradientUnits="userSpaceOnUse">
<stop stop-color="#B0BEEA"/>
<stop offset="0.99" stop-color="#94A1D3"/>
</linearGradient>
<linearGradient id="paint1_linear_244_175224" x1="20.5526" y1="92" x2="20.5526" y2="3.89832" gradientUnits="userSpaceOnUse">
<stop stop-color="#B0BEEA"/>
<stop offset="0.99" stop-color="#94A1D3"/>
</linearGradient>
<linearGradient id="paint2_linear_244_175224" x1="1.57523" y1="55.819" x2="39.5306" y2="55.819" gradientUnits="userSpaceOnUse">
<stop stop-color="#330C1B"/>
<stop offset="0.05" stop-color="#3D0E16"/>
<stop offset="0.21" stop-color="#5A170C"/>
<stop offset="0.41" stop-color="#661A0E"/>
<stop offset="0.59" stop-color="#59170C"/>
<stop offset="1" stop-color="#330C1B"/>
</linearGradient>
<linearGradient id="paint3_linear_244_175224" x1="6.76849" y1="55.9068" x2="39.5307" y2="55.9068" gradientUnits="userSpaceOnUse">
<stop stop-color="#E6E6E6"/>
<stop offset="1" stop-color="white"/>
</linearGradient>
<linearGradient id="paint4_linear_244_175224" x1="15.0918" y1="9.68717" x2="26.018" y2="9.68717" gradientUnits="userSpaceOnUse">
<stop stop-color="#CCCCCC"/>
<stop offset="1" stop-color="#999999"/>
</linearGradient>
<linearGradient id="paint5_linear_244_175224" x1="12.6823" y1="5.59582" x2="28.41" y2="5.59582" gradientUnits="userSpaceOnUse">
<stop offset="0.01" stop-color="#E93400"/>
<stop offset="1" stop-color="#C92005"/>
</linearGradient>
<linearGradient id="paint6_linear_244_175224" x1="8.03613" y1="27.8958" x2="33.0759" y2="27.8958" gradientUnits="userSpaceOnUse">
<stop stop-color="#C18627"/>
<stop offset="0.02" stop-color="#C98D2A"/>
<stop offset="0.1" stop-color="#DD9E32"/>
<stop offset="0.18" stop-color="#ECA937"/>
<stop offset="0.28" stop-color="#F4B03B"/>
<stop offset="0.44" stop-color="#F7B33C"/>
<stop offset="0.58" stop-color="#F1AE39"/>
<stop offset="0.76" stop-color="#E1A133"/>
<stop offset="0.95" stop-color="#C78B29"/>
<stop offset="0.99" stop-color="#C18627"/>
</linearGradient>
<linearGradient id="paint7_linear_244_175224" x1="10.6055" y1="25.4507" x2="30.5051" y2="25.4507" gradientUnits="userSpaceOnUse">
<stop stop-color="#C18627"/>
<stop offset="0.02" stop-color="#C98D2A"/>
<stop offset="0.1" stop-color="#DD9E32"/>
<stop offset="0.18" stop-color="#ECA937"/>
<stop offset="0.28" stop-color="#F4B03B"/>
<stop offset="0.44" stop-color="#F7B33C"/>
<stop offset="0.58" stop-color="#F1AE39"/>
<stop offset="0.76" stop-color="#E1A133"/>
<stop offset="0.95" stop-color="#C78B29"/>
<stop offset="0.99" stop-color="#C18627"/>
</linearGradient>
<linearGradient id="paint8_linear_244_175224" x1="10.9385" y1="25.4287" x2="30.1719" y2="25.4287" gradientUnits="userSpaceOnUse">
<stop stop-color="#C92005"/>
<stop offset="0.09" stop-color="#D32603"/>
<stop offset="0.28" stop-color="#E33000"/>
<stop offset="0.42" stop-color="#E93400"/>
<stop offset="1" stop-color="#C92005"/>
</linearGradient>
<linearGradient id="paint9_linear_244_175224" x1="4.45763" y1="50.1124" x2="19.6766" y2="50.1124" gradientUnits="userSpaceOnUse">
<stop stop-color="#E6E6E6"/>
<stop offset="1" stop-color="white"/>
</linearGradient>
<linearGradient id="paint10_linear_244_175224" x1="6.16858" y1="66.0589" x2="13.1361" y2="66.0589" gradientUnits="userSpaceOnUse">
<stop stop-color="#E6E6E6"/>
<stop offset="1" stop-color="white"/>
</linearGradient>
<linearGradient id="paint11_linear_244_175224" x1="21.6494" y1="49.7619" x2="37.2929" y2="49.7619" gradientUnits="userSpaceOnUse">
<stop stop-color="#E6E6E6"/>
<stop offset="0.26" stop-color="#D6D6D6"/>
<stop offset="0.77" stop-color="#ADADAD"/>
<stop offset="1" stop-color="#999999"/>
</linearGradient>
<linearGradient id="paint12_linear_244_175224" x1="12.6843" y1="5.59581" x2="28.4047" y2="5.59581" gradientUnits="userSpaceOnUse">
<stop stop-color="#C92005"/>
<stop offset="0.09" stop-color="#D32603"/>
<stop offset="0.28" stop-color="#E33000"/>
<stop offset="0.42" stop-color="#E93400"/>
<stop offset="1" stop-color="#C92005"/>
</linearGradient>
<linearGradient id="paint13_linear_244_175224" x1="14.4209" y1="10.541" x2="26.6932" y2="10.541" gradientUnits="userSpaceOnUse">
<stop stop-color="#CCCCCC"/>
<stop offset="1" stop-color="#999999"/>
</linearGradient>
<linearGradient id="paint14_linear_244_175224" x1="23.587" y1="5.59947" x2="27.8852" y2="5.59947" gradientUnits="userSpaceOnUse">
<stop stop-color="#CCCCCC"/>
<stop offset="1" stop-color="#999999"/>
</linearGradient>
<linearGradient id="paint15_linear_244_175224" x1="15.0312" y1="0.707376" x2="17.5276" y2="0.707376" gradientUnits="userSpaceOnUse">
<stop stop-color="#E6E6E6"/>
<stop offset="1" stop-color="white"/>
</linearGradient>
<clipPath id="clip0_244_175224">
<rect width="39.3399" height="92" fill="white" transform="translate(0.882812)"/>
</clipPath>
</defs>
</svg>
