<svg width="92" height="92" viewBox="0 0 92 92" fill="none" xmlns="http://www.w3.org/2000/svg">
<g clip-path="url(#clip0_244_175181)">
<path d="M89.8787 48.8011C89.8077 49.3164 89.8094 50.0923 89.8012 51.0534C89.7797 53.8902 89.6839 58.3235 87.4582 62.2897C84.4795 67.5965 79.544 70.1691 77.3099 70.4829C75.0759 70.795 67.7217 64.4313 67.7217 64.4313L68.9022 58.1916L69.6764 54.0967C69.6764 54.0967 69.8613 48.6975 78.2411 45.5321C86.6209 42.3652 90.6233 43.6695 91.2755 44.4143C91.9277 45.1589 90.1578 46.7639 89.8785 48.8014L89.8787 48.8011Z" fill="#A8BF41"/>
<path d="M88.2009 47.364C87.0428 47.1594 85.7163 47.2558 84.4867 47.4983C85.5969 46.624 86.7489 45.8106 87.9443 45.0115C88.0158 44.9639 87.972 44.8262 87.8818 44.8629C86.2532 45.527 84.7455 46.5632 83.3634 47.7009C83.5441 46.8014 83.8316 45.9303 83.991 45.0307C84.0111 44.9174 83.8744 44.8583 83.8071 44.9532C83.1963 45.8126 82.9216 47.0047 82.7538 48.0259C82.7433 48.0901 82.7531 48.147 82.7762 48.1957C82.4923 48.4407 82.214 48.6883 81.9413 48.9362C80.5898 50.1651 79.3091 51.4825 78.0673 52.8292C78.1089 51.8065 78.1371 50.79 78.2777 49.7729C78.4137 48.7902 78.7316 47.7943 78.764 46.8048C78.7652 46.7654 78.7114 46.7537 78.692 46.7853C78.1519 47.6622 77.9719 48.8289 77.8189 49.8333C77.6572 50.8948 77.5567 51.9778 77.6285 53.0512C77.6336 53.1262 77.6669 53.1809 77.7131 53.2152C77.3765 53.5837 77.0425 53.954 76.7107 54.3247C76.2468 54.843 75.78 55.3777 75.3195 55.9275C74.2845 54.2784 73.4983 52.557 72.8617 50.7175C72.851 50.6864 72.8084 50.6992 72.8133 50.7309C73.1074 52.6834 73.8513 54.5733 74.9043 56.241C74.9281 56.279 74.9573 56.3067 74.9889 56.3264C74.0198 57.5076 73.0879 58.7579 72.2784 60.0722C71.4791 58.5602 70.8982 56.9795 70.2815 55.3772C70.2672 55.3402 70.2003 55.3405 70.2056 55.3874C70.4066 57.2111 71.1091 58.9817 71.9605 60.603C70.8872 62.4461 70.0704 64.4109 69.7374 66.4841C69.7118 66.6432 69.9349 66.713 69.9836 66.552C70.534 64.731 71.2117 63.0326 72.1188 61.3972C72.9712 61.505 73.8576 61.4179 74.7177 61.4855C75.745 61.5663 76.7644 61.737 77.7586 62.0097C79.6971 62.5417 81.3651 63.5009 82.9511 64.7122C83.0848 64.8144 83.2301 64.6013 83.1245 64.4875C81.7783 63.0314 79.8978 62.1187 78.0126 61.5799C77.0649 61.3089 76.0919 61.1335 75.1115 61.0343C74.3363 60.956 73.4584 60.8625 72.6496 60.9518C72.6817 60.8832 72.6839 60.8005 72.6345 60.7154C72.6146 60.6808 72.5949 60.6463 72.5749 60.6118C72.6596 60.4726 72.7457 60.334 72.834 60.1958C73.6433 58.9284 74.5533 57.7324 75.5141 56.5777C76.2521 56.6971 77.113 56.52 77.8476 56.5589C78.8995 56.6146 79.9401 56.7781 80.9695 56.9965C82.7976 57.3845 84.5959 58.1714 86.4454 58.4089C86.5916 58.4276 86.6327 58.2072 86.5176 58.142C84.8059 57.1712 82.5993 56.6711 80.6827 56.2877C79.7482 56.1009 78.7995 55.9678 77.8476 55.916C77.3276 55.8876 76.6898 55.819 76.1038 55.881C76.4669 55.4585 76.8355 55.0408 77.2072 54.6263C77.5662 54.2261 77.9279 53.8275 78.2923 53.4314C78.8778 53.2281 79.4339 52.9218 80.0279 52.735C80.8204 52.4857 81.6392 52.3137 82.4626 52.2079C84.2172 51.9824 86.0039 52.1865 87.7492 51.9668C87.8436 51.9549 87.8862 51.8082 87.7738 51.7844C86.0511 51.4168 84.1009 51.4971 82.3646 51.7289C81.4015 51.8574 80.1795 52.0556 79.1593 52.5003C80.1206 51.4815 81.1053 50.4845 82.1242 49.5253C82.6025 49.0753 83.0892 48.6452 83.5845 48.2302C84.3035 48.0901 85.0172 47.9354 85.7443 47.8323C86.5595 47.7167 87.3928 47.6839 88.2002 47.5246C88.2788 47.509 88.2805 47.3784 88.2002 47.364H88.2009Z" fill="#B2CC49"/>
<path d="M66.6277 48.0201C67.1644 49.6431 67.214 52.3081 65.7263 54.5801C64.2402 56.8504 62.3348 56.8586 62.3348 56.8586L60.9709 56.5928C60.9709 56.5928 61.7848 56.2345 61.2203 55.313C61.2203 55.313 60.6357 54.5864 60.2643 53.4307C59.8746 52.2254 59.7177 50.5543 60.6968 48.7596C62.6153 45.2458 67.3757 44.1826 67.3757 44.1826C67.3757 44.1826 66.0894 46.3983 66.6277 48.0199V48.0201Z" fill="#FFD21F"/>
<path d="M77.4043 50.2789C77.4043 50.2789 75.9134 51.0235 75.6342 52.8861C75.55 53.4558 75.2956 54.1807 74.9059 54.9435C74.0241 56.6723 72.4408 58.6008 70.5137 59.4033C70.1637 59.5502 69.8302 59.6775 69.5395 59.7847C69.5384 59.7847 69.5372 59.7853 69.5361 59.7864C68.9019 60.0175 68.466 60.1481 68.466 60.1481C68.466 60.1481 67.9063 58.2856 66.4169 58.099C66.4169 58.099 66.2583 56.6658 66.871 54.9353L66.8744 54.9287C67.3087 53.7034 68.1325 52.3281 69.6765 51.2103C73.3999 48.5107 77.4038 50.2792 77.4038 50.2792L77.4043 50.2789Z" fill="#FFD21F"/>
<path d="M83.8273 59.0301C83.8273 59.0301 82.3378 60.1479 81.5932 61.6373C81.3539 62.1177 81.0352 62.6263 80.609 63.1051C79.7141 64.1124 78.3388 64.9857 76.1938 65.1756C73.0286 65.4546 71.9006 65.1756 71.9006 65.1756C71.9006 65.1756 71.6316 63.034 70.7926 62.4743C70.7926 62.4743 70.7216 61.2559 72.0904 59.8868C72.2786 59.6969 72.4966 59.502 72.7476 59.3089C74.7968 57.727 77.1232 57.2614 79.5438 57.8195C81.9644 58.3792 83.827 59.0299 83.827 59.0299L83.8273 59.0301Z" fill="#FFD21F"/>
<path d="M85.5037 74.2061C85.5037 74.2061 82.5251 75.3239 80.3835 76.6267C78.2419 77.9296 74.2395 74.7642 73.0293 73.7406C73.0293 73.7406 74.6112 71.7855 73.4932 70.2022C73.4932 70.2022 74.8834 69.507 76.6849 69.0959C77.3502 68.9456 78.0719 68.8317 78.8 68.8069C81.5013 68.7128 84.5726 73.275 85.5037 74.2061Z" fill="#FFD21F"/>
<path d="M80.383 85.657C80.383 85.657 78.149 84.7258 75.6342 85.2855C74.8218 85.4655 73.9813 85.4804 73.1922 85.2904C71.5393 84.8907 70.1178 83.5881 69.6768 81.0024C69.6768 81.0024 72.1718 79.6995 71.9008 77.7445C71.9008 77.7445 73.1326 77.4803 74.8383 78.1573C75.6177 78.466 76.4978 78.9729 77.4041 79.7919C80.2903 82.3991 80.3828 85.657 80.3828 85.657H80.383Z" fill="#FFD21F"/>
<path d="M74.1434 88.1734C74.0476 88.241 70.6034 90.6764 66.3995 90.1267C62.1363 89.567 60.7194 89.9401 60.1696 87.6119C59.6213 85.2855 61.5763 85.4704 61.3915 83.8885C61.3915 83.8885 63.7179 85.0048 64.8359 83.4229C64.8359 83.4229 65.1049 85.2855 67.0651 85.2855C68.8598 85.2855 69.9481 87.2356 71.0476 87.9934C71.1483 88.0644 71.2507 88.1238 71.3531 88.1717C72.5387 88.7183 74.0792 88.1948 74.1434 88.1734Z" fill="#FFD21F"/>
<path d="M75.0897 71.6318C75.0863 72.0743 75.0648 72.4888 75.0303 72.8702C74.9379 73.8741 74.7396 75.139 74.3088 76.4747V76.4764C74.2147 76.7736 74.1074 77.0741 73.9885 77.3747C73.1959 79.3694 71.8452 81.4251 69.5387 82.9325H69.5369C69.309 83.0843 69.0714 83.2281 68.8237 83.365C67.5953 84.052 66.1273 84.5918 64.3705 84.9121C55.7117 86.4957 51.9883 81.6759 51.9883 81.6759L55.7018 66.4372L55.7562 66.2092V66.2075L55.8635 65.7682L56.0105 65.1671L58.0793 56.6784L58.3369 55.6217L58.5052 54.9282C58.5052 54.9282 62.9782 53.6436 68.2852 57.6774C68.4997 57.8409 68.7162 58.0126 68.9325 58.1926C68.9424 58.2009 68.9507 58.2092 68.9604 58.2174C70.841 59.7893 72.1818 61.5677 73.1198 63.369C73.2485 63.6184 73.3708 63.866 73.4847 64.1153C74.5547 66.4452 74.9855 68.7733 75.0731 70.7118C75.088 71.0288 75.0928 71.336 75.0897 71.6316V71.6318Z" fill="#7D90B3"/>
<path d="M68.9606 58.2177C68.505 58.5281 68.0491 58.8368 67.5918 59.1457C66.0892 60.1613 64.5784 61.1652 63.0593 62.1557C62.8297 62.3075 62.602 62.4561 62.3724 62.6047H62.3707C60.5115 63.8152 58.6406 65.0071 56.7584 66.1827C56.5752 66.2983 56.3918 66.4121 56.2086 66.5262C56.1507 66.5624 56.0931 66.5824 56.0369 66.5872H56.0352C55.8997 66.6038 55.781 66.5393 55.7017 66.4369C55.6092 66.3231 55.5696 66.1628 55.6192 66.0207C55.6472 65.9414 55.7034 65.8689 55.7926 65.8127C55.8157 65.7979 55.8406 65.7831 55.8637 65.7682C55.9992 65.6841 56.1344 65.5999 56.2682 65.5155C57.1831 64.9441 58.096 64.3695 59.0043 63.7916C59.9668 63.179 60.9245 62.5614 61.8805 61.9407H61.8822C62.1118 61.792 62.3395 61.6417 62.5691 61.4916C64.4862 60.2401 66.3916 58.9686 68.2856 57.6774C68.5001 57.8409 68.7166 58.0126 68.9329 58.1926C68.9428 58.2009 68.9511 58.2092 68.9608 58.2174L68.9606 58.2177Z" fill="#677FAB"/>
<path d="M73.4842 64.1158C72.9113 64.479 72.3334 64.8407 71.7554 65.1973C70.3039 66.0939 68.8395 66.9689 67.3615 67.8244C67.1222 67.9631 66.8828 68.1003 66.6418 68.2389C66.0027 68.6038 65.362 68.9655 64.7198 69.3238C63.3807 70.0684 62.0334 70.795 60.676 71.5051C60.4301 71.6337 60.1856 71.761 59.9397 71.8882C59.1306 72.3075 58.3182 72.7186 57.5043 73.1249C57.0287 73.3625 56.611 72.6493 57.0866 72.4131C57.8759 72.02 58.6619 71.6206 59.4444 71.2161C59.6904 71.0889 59.9365 70.9619 60.1808 70.833C60.5208 70.6564 60.8611 70.4764 61.2012 70.2963C62.859 69.4163 64.5036 68.5097 66.1334 67.5785C66.3727 67.4415 66.6121 67.3043 66.85 67.1657C67.3404 66.8833 67.8308 66.5977 68.3178 66.3087C69.9342 65.3544 71.5343 64.3751 73.1193 63.3698C73.248 63.6191 73.3703 63.8667 73.4842 64.116V64.1158Z" fill="#677FAB"/>
<path d="M75.09 71.6318C74.3123 72.0363 73.5346 72.4408 72.757 72.8488C72.4252 73.0222 72.0931 73.1971 71.763 73.3722C71.5154 73.5009 71.2678 73.6315 71.0216 73.7619C69.0221 74.8169 67.0291 75.8821 65.0393 76.9585C64.9731 76.9947 64.9072 77.0295 64.8411 77.0658C64.5983 77.1979 64.3555 77.3282 64.113 77.462C61.8724 78.6773 59.6384 79.9074 57.4126 81.1507C56.9487 81.41 56.5325 80.6965 56.9964 80.4375C58.428 79.6384 59.8646 78.8442 61.3027 78.0548C62.069 77.6338 62.8367 77.2144 63.6044 76.7967C63.8488 76.6647 64.0916 76.5326 64.3358 76.4022C65.8846 75.5618 67.4382 74.7279 68.9953 73.9006C69.494 73.6364 69.9926 73.3722 70.493 73.1098C70.7389 72.9777 70.9868 72.8473 71.2344 72.7184C72.5125 72.0448 73.792 71.3759 75.0734 70.7123C75.0883 71.0292 75.0931 71.3365 75.09 71.632V71.6318Z" fill="#677FAB"/>
<path d="M74.3086 76.4747V76.4764C74.2145 76.7737 74.1072 77.0741 73.9883 77.3747C73.1147 76.328 72.248 75.2745 71.3877 74.2161C71.2655 74.0641 71.1417 73.914 71.0211 73.762C70.8428 73.544 70.6676 73.3278 70.4927 73.1098C69.1933 71.4966 67.9104 69.8736 66.6423 68.2389C66.4723 68.0193 66.3022 67.7982 66.1337 67.5785C65.3577 66.5746 64.5883 65.5658 63.8252 64.552C63.3382 63.9047 62.8527 63.2557 62.3723 62.6052H62.3706C62.2071 62.3839 62.0436 62.1627 61.8819 61.9414H61.8802C60.5955 60.1995 59.3275 58.4459 58.0791 56.6791L58.3367 55.6224C59.3275 57.0292 60.3297 58.4279 61.3418 59.818C61.7498 60.3778 62.1575 60.9358 62.5686 61.4923C62.732 61.7137 62.8955 61.9348 63.059 62.1562C64.3073 63.8387 65.5703 65.5079 66.85 67.1657C67.0201 67.3854 67.1901 67.605 67.3618 67.8244C67.7929 68.3842 68.2288 68.9407 68.6664 69.497C69.5151 70.5768 70.3704 71.65 71.2339 72.7184C71.4088 72.9381 71.5857 73.156 71.7623 73.3723C72.6044 74.4124 73.4531 75.4462 74.3084 76.4747H74.3086Z" fill="#677FAB"/>
<path d="M69.5365 82.9325C69.3086 83.0843 69.071 83.2281 68.8233 83.365C68.1101 82.518 67.4083 81.661 66.7165 80.7958C65.8347 79.6944 64.968 78.5815 64.1125 77.462C63.9408 77.2407 63.7725 77.0196 63.6039 76.7965C62.5817 75.4525 61.573 74.0986 60.5691 72.7395C60.3594 72.4554 60.1497 72.1715 59.94 71.8874C59.7749 71.6646 59.6097 71.4398 59.4448 71.2153C58.3071 69.6731 57.1711 68.1309 56.0368 66.587H56.0351C55.9427 66.4598 55.8502 66.3342 55.7561 66.209V66.2073C55.7116 66.1445 55.6654 66.0817 55.6191 66.0207C55.6471 65.9414 55.7033 65.8689 55.7926 65.8127C55.8157 65.7979 55.8405 65.783 55.8636 65.7682L56.0105 65.1671C56.0964 65.2844 56.1823 65.3999 56.2681 65.5155C56.4316 65.7383 56.5951 65.9613 56.7585 66.1824C57.3744 67.0195 57.9921 67.8567 58.6077 68.6923C59.1329 69.4055 59.6579 70.119 60.1813 70.8322C60.3482 71.0567 60.5131 71.2812 60.6766 71.5043H60.6783C61.887 73.1455 63.1006 74.7802 64.3356 76.4017C64.4346 76.5338 64.5338 76.6659 64.6345 76.7963C64.7039 76.8855 64.7715 76.9763 64.8411 77.0653C66.3633 79.0548 67.9204 81.0181 69.537 82.932L69.5365 82.9325Z" fill="#677FAB"/>
<path d="M25.5232 83.0201C23.4954 85.0775 21.1607 86.4101 21.1607 86.4101C21.1607 86.4101 12.4129 88.441 6.17467 80.9926C3.04086 77.2495 1.7959 74.3813 1.27242 71.9772C1.27242 71.9755 1.27071 71.9755 1.27071 71.9738C0.752346 69.5977 0.937217 67.6792 0.689587 65.8266C0.562366 64.8821 4.41304 66.3863 9.44081 65.8266C12.327 65.5062 15.8573 65.9835 19.3808 67.6644C21.6727 68.7558 23.9612 70.3574 26.0663 72.58C26.3619 72.8921 26.654 73.2173 26.943 73.5542C29.9367 77.0546 27.9503 80.5584 25.5229 83.0204L25.5232 83.0201Z" fill="#A8BF41"/>
<path d="M23.8936 80.6017C23.593 78.8476 22.1763 77.122 20.8729 76.0191C20.6513 75.8315 20.4227 75.6564 20.1884 75.492C20.2047 75.4246 20.1986 75.3487 20.1597 75.2691C19.6328 74.1928 19.2254 73.0692 18.9588 71.8962C18.7126 70.813 18.7437 69.668 18.4783 68.6028C18.4652 68.5496 18.3883 68.5418 18.3706 68.5968C18.0342 69.6374 18.2176 70.9597 18.4003 72.02C18.573 73.0232 18.8724 73.9865 19.2679 74.915C17.9464 74.175 16.4898 73.6987 15.0266 73.2876C14.4389 73.1225 13.8585 72.9449 13.2857 72.7544C13.3054 72.7138 13.3119 72.6656 13.2985 72.6136C13.1942 72.2078 12.9531 71.9069 12.7648 71.5372C12.4939 71.0057 12.2832 70.4389 12.1105 69.8673C11.8135 68.8845 11.6099 67.8753 11.3973 66.8706C11.3873 66.8232 11.3102 66.8264 11.3112 66.8777C11.3321 68.0125 11.373 69.1623 11.6415 70.2691C11.813 70.9765 12.0633 71.9169 12.5729 72.509C10.3669 71.7257 8.2715 70.7454 6.27757 69.5466C6.28341 69.5423 6.28924 69.5381 6.29508 69.5338C6.35249 69.4914 6.32962 69.4075 6.28365 69.3705C5.97423 69.1219 5.93507 68.6432 5.87888 68.2667C5.81052 67.8064 5.79447 67.3377 5.79204 66.8728C5.79155 66.7887 5.65728 66.749 5.63879 66.8429C5.53468 67.372 5.51814 67.894 5.58503 68.4294C5.61641 68.6809 5.64122 68.9706 5.73877 69.2158C4.56508 68.48 3.4269 67.6666 2.32254 66.7707C2.20651 66.6765 2.08707 66.8699 2.19653 66.9645C3.36293 67.9718 4.60059 68.8845 5.8942 69.7048C4.73122 69.669 3.30722 70.0079 2.39259 70.6391C2.35148 70.6676 2.36876 70.7357 2.423 70.7257C3.07297 70.6082 3.69472 70.3603 4.34688 70.2387C5.0022 70.1163 5.66506 70.1137 6.32135 70.0171C6.34033 70.0144 6.35614 70.0083 6.37 70.0006C8.23477 71.1385 10.2105 72.0881 12.2545 72.8544C10.8986 72.9247 9.5892 73.0633 8.23939 73.3523C6.77648 73.6656 5.17004 74.0205 3.84773 74.7515C3.81537 74.7695 3.83435 74.8147 3.8684 74.8106C5.36878 74.6326 6.86162 74.1531 8.34837 73.8668C8.76774 73.786 9.18832 73.7058 9.60987 73.627C8.86406 74.6729 8.18539 75.7408 7.65753 76.9184C7.6444 76.9478 7.68843 76.9661 7.70546 76.9422C8.48046 75.862 9.20364 74.7442 9.98497 73.6678C10.0137 73.6282 10.0215 73.5883 10.0149 73.552C10.9604 73.3786 11.9088 73.2163 12.8529 73.083C12.8587 73.0823 12.8643 73.0809 12.8697 73.0792C13.0886 73.1567 13.3083 73.2329 13.5287 73.3063C15.5017 73.9646 17.5717 74.4555 19.3633 75.5525C17.7016 75.8731 15.9775 77.2251 14.7887 78.3854C13.4924 79.6508 12.3827 81.2113 11.7461 82.9253C11.7147 83.0097 11.84 83.0731 11.8865 82.9948C12.8062 81.4419 13.8283 80.0247 15.1691 78.8182C15.8198 78.2327 16.5002 77.6946 17.2419 77.2324C18.0008 76.7595 18.8517 76.4419 19.5958 75.9546C19.6657 75.9089 19.7004 75.841 19.7065 75.7729C19.7158 75.7792 19.7253 75.7853 19.7347 75.7917C20.6139 76.3869 21.392 77.1186 22.0809 77.9315C22.7888 78.7671 23.2242 79.7262 23.8236 80.627C23.8462 80.6613 23.9009 80.6467 23.8934 80.6015L23.8936 80.6017Z" fill="#BBD64D"/>
<path d="M59.1313 54.9072C59.1033 50.9775 59.0157 48.0218 58.8309 47.2061C58.1325 44.1351 50.3587 32.0319 50.0962 31.1931C49.8337 30.3561 56.2254 19.8347 54.4883 16.5769C52.7513 13.319 45.704 8.66266 45.704 8.66266V6.24206L45.5951 5.40503L36.8438 4.7215L33.7891 6.24231V8.6629C33.7891 8.6629 26.7418 13.3192 25.0048 16.5771C23.2677 19.835 29.6594 30.3561 29.3969 31.1934C29.1345 32.0321 21.3589 44.1353 20.6622 47.2064C20.294 48.8245 20.3139 58.8438 20.4146 68.1927C20.5053 76.6004 20.6622 84.465 20.6622 85.1916C20.6622 85.4789 20.8174 85.9065 21.1609 86.4103C22.6486 88.5898 27.6681 92.1861 38.8631 91.9929H40.6281C54.4071 92.2306 58.8306 86.729 58.8306 85.1918C58.8306 84.0641 59.2072 65.7658 59.131 54.9077L59.1313 54.9072Z" fill="#C8E6F7"/>
<path d="M49.9902 16.4117C48.0732 15.1502 43.2568 14.2801 39.8323 14.2801C35.6284 14.2801 30.9324 14.635 29.3408 16.6593C31.2662 13.636 36.345 9.84998 36.345 9.84998V7.54663L36.2229 5.77649L43.3609 6.24207L43.1478 7.54639V9.84974C43.1478 9.84974 47.9559 13.4345 49.9902 16.4115V16.4117Z" fill="#D9F1FF"/>
<path d="M54.2255 82.7129C54.2255 84.1164 50.791 88.9922 40.2499 89.187H40.6279C40.329 89.1936 40.0351 89.1953 39.7462 89.1919C39.4572 89.1953 39.1616 89.1936 38.8629 89.187H39.2409C35.6644 89.1209 32.9071 88.5149 30.8232 87.6893H30.8215C26.7662 86.0826 25.2668 83.6389 25.2668 82.7126C25.2668 81.2497 24.6774 49.473 25.2668 46.5469C25.8562 43.6228 32.4165 32.0993 32.6376 31.3016C32.8604 30.504 27.4661 20.4864 28.9324 17.3854C29.0431 17.1492 29.18 16.9067 29.3403 16.6588C30.9322 14.6345 35.6279 14.2796 39.8318 14.2796C43.2563 14.2796 48.0727 15.1497 49.9897 16.4112C50.2177 16.7464 50.4108 17.0733 50.5594 17.3854C50.6336 17.5423 50.6915 17.7189 50.7312 17.9106C51.4908 21.482 46.6428 30.5454 46.8525 31.3016C46.9763 31.7424 49.0369 35.4642 50.9557 39.1976C52.5062 42.2158 53.9625 45.2392 54.225 46.5469C54.8144 49.4728 54.225 81.2497 54.225 82.7126L54.2255 82.7129Z" fill="#FAC132"/>
<path d="M46.891 6.24233C41.026 7.73176 32.7868 6.24233 32.7868 6.24233C32.5409 5.87916 32.3905 5.34741 32.3047 4.7546C32.0488 2.99614 32.3526 0.702759 32.3526 0.702759C35.8909 1.47703 42.9992 1.20629 45.8081 1.05937C46.5478 1.02142 46.9886 0.991742 46.9886 0.991742C47.5466 2.24838 46.891 6.24257 46.891 6.24257V6.24233Z" fill="#9DA9BF"/>
<path d="M50.7317 17.9094V17.9111C49.7195 19.9238 45.159 20.4869 39.6985 20.4869C34.238 20.4869 28.4557 18.7019 28.9329 17.3859C29.0288 17.1218 29.1657 16.8807 29.3409 16.6593C30.9327 14.635 35.6284 14.2801 39.8323 14.2801C43.2568 14.2801 48.0732 15.1502 49.9903 16.4117C50.6855 16.8673 50.9993 17.3743 50.7317 17.9094Z" fill="#FFCF54"/>
<path d="M67.4294 61.5026C67.318 61.7251 67.2148 61.936 67.1278 62.1674C67.073 62.3128 66.9828 62.4327 66.9404 62.5862C66.8881 62.7762 66.8884 63.0063 66.8672 63.2039C66.8108 63.729 67.3705 64.2326 67.8733 64.2099C68.37 64.1878 68.94 63.7643 68.8794 63.2039C68.8587 63.0119 68.8646 62.7667 68.8062 62.5862C68.759 62.4403 68.6719 62.3102 68.6189 62.1674C68.5328 61.9363 68.4282 61.7242 68.3173 61.5026C68.1494 61.1671 67.5975 61.1671 67.4294 61.5026Z" fill="#93A6C9"/>
<path d="M60.7542 65.804C60.3698 66.2032 60.2134 66.8711 60.3358 67.4075C60.5089 68.1672 61.6999 68.1679 61.8731 67.4075C61.9955 66.8709 61.8398 66.2039 61.4547 65.804C61.2718 65.6138 60.9373 65.6138 60.7542 65.804Z" fill="#93A6C9"/>
<path d="M63.3211 58.3383C63.5943 57.8501 63.6398 57.1848 63.5503 56.647C63.4817 56.2345 63.0013 55.9922 62.6247 56.0428C62.2418 56.0943 61.855 56.4524 61.8932 56.8713C61.9424 57.4091 62.1596 58.0399 62.5432 58.4386C62.7619 58.6658 63.1674 58.6132 63.3211 58.3383Z" fill="#93A6C9"/>
<path d="M64.9313 71.3696C64.6 71.6924 64.5506 72.2869 64.3993 72.707C64.2176 73.2115 64.6864 73.7357 65.1831 73.7357C65.6798 73.7357 66.1481 73.2107 65.9669 72.707C65.8155 72.2869 65.7664 71.6924 65.4349 71.3696C65.2957 71.2341 65.071 71.2336 64.9313 71.3696Z" fill="#93A6C9"/>
<path d="M71.0788 67.8772C70.64 68.3562 70.5398 69.2127 70.6704 69.8303C70.8441 70.6515 72.197 70.4785 72.1452 69.6308C72.126 69.3168 72.0285 69.0237 71.964 68.7176C71.9068 68.4462 71.8419 68.19 71.6867 67.9558C71.5553 67.7575 71.2559 67.6843 71.0788 67.8775V67.8772Z" fill="#93A6C9"/>
<path d="M69.8288 76.6012C69.6267 76.87 69.5749 77.1763 69.4936 77.4964C69.4068 77.8391 69.2528 78.2074 69.2954 78.5633C69.3545 79.0571 69.6766 79.4842 70.2163 79.4842C70.7561 79.4842 71.0782 79.0593 71.1373 78.5633C71.1798 78.2074 71.0259 77.8391 70.939 77.4964C70.8578 77.1763 70.8062 76.87 70.6038 76.6012C70.3888 76.3154 70.0436 76.3154 69.8286 76.6012H69.8288Z" fill="#93A6C9"/>
<path d="M62.5057 79.8783C62.2868 80.0758 62.1871 80.3757 62.0941 80.6474C61.9861 80.9634 61.8643 81.2602 61.8643 81.6005C61.8643 82.1106 62.3128 82.5993 62.8395 82.5757C63.3678 82.5521 63.8146 82.1471 63.8146 81.6005C63.8146 81.2599 63.693 80.9634 63.5848 80.6474C63.4919 80.376 63.3921 80.0758 63.1732 79.8783C62.9766 79.7007 62.7032 79.7 62.5055 79.8783H62.5057Z" fill="#93A6C9"/>
<path d="M59.7 74.5403C59.573 74.7705 59.5739 75.0122 59.5265 75.2638C59.4732 75.5469 59.3801 75.8442 59.418 76.1334C59.4652 76.4927 59.6586 76.8016 60.0488 76.8481C60.4093 76.8909 60.7411 76.6812 60.8471 76.327C61.0264 75.7272 60.7644 74.7768 60.2611 74.3934C60.0875 74.2611 59.797 74.3645 59.7 74.5406V74.5403Z" fill="#93A6C9"/>
<g style="mix-blend-mode:screen" opacity="0.52">
<path d="M36.637 12.1514C34.0875 12.3365 32.0372 15.2533 31.4658 17.5318C31.161 18.7474 31.8591 20.0505 33.0875 20.3881C34.3383 20.7318 35.5641 19.9663 35.9438 18.7663C36.2525 17.7912 36.5054 16.7948 36.8008 15.8147C37.0793 14.8904 37.5006 14.0344 37.5349 13.0492C37.5509 12.5892 37.1099 12.1171 36.637 12.1514Z" fill="white"/>
</g>
<g style="mix-blend-mode:screen" opacity="0.52">
<path d="M33.7712 35.4957C32.978 35.8414 32.4842 36.5245 31.9121 37.1474C31.2614 37.8555 30.7554 38.632 30.2217 39.4269C29.3178 40.7728 28.3915 42.1854 27.8622 43.7301C26.8193 46.7741 26.7872 50.2234 27.0327 53.3966C27.1647 55.104 28.4474 56.762 30.3144 56.6783C32.1473 56.5961 33.5272 55.2366 33.5961 53.3966C33.6515 51.9109 33.618 50.4268 33.6688 48.9412C33.8622 43.291 34.5825 41.7853 34.8342 41.021C35.0785 40.279 35.2663 39.5914 35.394 38.822C35.5426 37.9261 35.7586 37.1056 35.5183 36.2068C35.3013 35.3955 34.4574 35.1973 33.7712 35.496V35.4957Z" fill="white"/>
</g>
<path d="M55.9807 72.9449C54.988 77.5431 57.3006 83.9133 52.9624 87.3096C52.257 87.862 53.159 88.9496 53.9004 88.5251C56.1695 87.2262 57.3011 84.726 57.5927 82.1991C57.7657 80.701 57.7058 79.1882 57.6735 77.6841C57.6402 76.1259 57.6981 74.4679 57.3361 72.9446C57.179 72.2835 56.1274 72.2657 55.9809 72.9446L55.9807 72.9449Z" fill="#E6F6FF"/>
<path d="M32.3525 0.70323C32.3525 0.70323 33.4155 1.99855 39.8659 2.02603C46.0921 2.05255 46.9883 0.991483 46.9883 0.991483C46.9883 0.991483 39.9094 -1.03286 32.3525 0.70323Z" fill="#AEBAD4"/>
<g style="mix-blend-mode:multiply" opacity="0.22">
<path d="M47.8584 74.7014C47.7608 74.5793 47.6883 74.4883 47.6504 74.4372C47.6932 74.4883 47.7676 74.581 47.8584 74.7014Z" fill="#D4D4D4"/>
</g>
<g style="mix-blend-mode:multiply" opacity="0.22">
<path d="M49.217 45.147C49.1543 45.086 49.136 45.0183 49.1674 44.9405C49.2022 44.8563 49.2136 44.9371 49.217 45.147Z" fill="#D4D4D4"/>
</g>
<g style="mix-blend-mode:multiply" opacity="0.22">
<path d="M47.8584 74.7014C47.7608 74.5793 47.6883 74.4883 47.6504 74.4372C47.6932 74.4883 47.7676 74.581 47.8584 74.7014Z" fill="#D4D4D4"/>
</g>
</g>
<defs>
<clipPath id="clip0_244_175181">
<rect width="90.7329" height="92" fill="white" transform="translate(0.686523)"/>
</clipPath>
</defs>
</svg>
