<svg width="49" height="92" viewBox="0 0 49 92" fill="none" xmlns="http://www.w3.org/2000/svg">
<g clip-path="url(#clip0_242_174980)">
<path d="M37.325 2.42953C34.9535 0.199776 26.2085 0.0193331 24.6682 0H24.4362C22.9025 0.0193331 14.151 0.199776 11.7795 2.42953C10.6324 3.50574 11.019 5.94172 11.1415 7.37237C11.2768 8.89325 12.1726 12.6568 13.571 15.0992C14.499 16.7167 19.6481 17.0196 19.9058 16.8069C20.3183 16.4718 20.3956 15.3119 20.0025 14.951C19.487 14.487 16.7674 15.0992 15.3046 13.907C14.3895 13.1594 12.6881 5.70328 13.5259 4.2984C14.7954 2.1782 23.2505 2.19109 24.4749 2.20398H24.6296C25.854 2.19109 34.3026 2.17176 35.5786 4.2984C36.4228 5.70328 34.7215 13.1594 33.7999 13.907C32.3371 15.0992 29.6175 14.487 29.102 14.951C28.7089 15.3119 28.7862 16.4654 29.1986 16.8069C29.4629 17.0196 34.6119 16.7232 35.5335 15.0992C36.9255 12.6568 37.8212 8.89325 37.963 7.37237C38.0919 5.94172 38.4721 3.50574 37.3315 2.42953H37.325Z" fill="#FF9100"/>
<path d="M35.5793 4.29196C35.8242 4.7044 35.85 5.63239 35.7469 6.76016C36.4687 5.25217 36.3269 3.4993 34.8124 2.77108C32.9758 1.88176 27.5174 1.40487 24.6174 1.41776C21.9881 1.43065 11.9736 1.05688 13.14 5.49706C13.2495 5.91594 13.2947 6.30905 13.3526 6.7086C13.2495 5.60661 13.2818 4.69795 13.5266 4.29196C14.7962 2.17176 23.2512 2.18464 24.4757 2.19753H24.6303C25.8548 2.18464 34.3033 2.16531 35.5793 4.29196Z" fill="#E06C03"/>
<path d="M37.5957 2.77109C38.1241 4.74307 37.6988 6.29617 37.4217 8.01682C36.9899 10.7363 35.5399 15.0928 33.0008 15.6727C32.3499 15.821 31.8731 15.357 31.8022 14.7705C31.7893 14.7576 31.7828 14.7512 31.77 14.7383C31.7442 14.7061 31.7313 14.6739 31.7055 14.6416C30.5391 14.777 29.4178 14.661 29.102 14.9445C28.7089 15.3054 28.7862 16.459 29.1986 16.8005C29.4629 17.0132 34.6119 16.7167 35.5335 15.0928C36.9255 12.6503 37.8212 8.88681 37.963 7.36594C38.079 6.06417 38.3948 3.95041 37.5957 2.76465V2.77109Z" fill="#E06C03"/>
<path d="M17.3928 14.6416C14.3511 16.8585 12.9784 13.1787 12.5144 11.4452C11.5864 7.92012 10.536 5.29081 11.7733 2.4295C10.6327 3.50572 11.0129 5.94169 11.1418 7.3659C11.2771 8.88678 12.1729 12.6503 13.5713 15.0927C14.4993 16.7103 19.6484 17.0131 19.9061 16.8005C20.3186 16.4654 20.3959 15.3054 20.0028 14.9445C19.687 14.6609 18.5593 14.7769 17.3928 14.6416Z" fill="#E06C03"/>
<path d="M11.47 5.65817C11.3798 4.25974 11.6826 2.77108 12.8362 2.08798C14.4086 1.1471 20.2923 -0.277109 29.9009 0.72177C36.5386 1.41776 36.5386 2.64864 34.1413 2.02998C30.3134 1.04399 22.7283 0.876435 19.1646 1.12777C14.9693 1.41776 12.92 2.43598 12.398 4.09218C11.702 6.29616 13.2293 10.3883 12.7975 10.5043C12.166 10.6783 11.5666 7.06304 11.47 5.66461V5.65817Z" fill="#FFC627"/>
<path d="M45.51 26.1127C40.6638 22.6842 32.995 20.6478 31.6868 17.851C30.9779 16.3365 30.7781 12.5923 30.7781 12.5923H18.334C18.334 12.5923 18.1278 16.3365 17.4254 17.851C16.1172 20.6478 8.44834 22.6842 3.60861 26.1127C0.263974 28.4777 0.36064 31.3326 0.36064 31.3326C0.36064 31.3326 0.36064 31.8159 0.36064 32.6666C0.541083 33.2401 0.721526 33.6784 1.19841 34.1681C1.61085 34.5935 2.04907 35.2701 1.82996 35.8372C1.60441 36.4172 1.01152 36.7846 0.669971 37.2808C0.41864 37.6417 0.425084 38.0477 0.367085 38.4472C0.367085 39.3881 0.367085 40.3999 0.367085 41.4696C0.541083 42.0303 0.72797 42.4621 1.19197 42.9454C1.60441 43.3707 2.04262 44.0474 1.82352 44.6145C1.59796 45.2009 1.00508 45.5618 0.663526 46.058C0.425084 46.406 0.41864 46.7927 0.367085 47.1793C0.367085 48.1911 0.367085 49.2222 0.367085 50.2727C0.541083 50.8204 0.72797 51.2458 1.18552 51.7226C1.59796 52.148 2.03618 52.8246 1.81707 53.3917C1.59152 53.9782 0.998634 54.3391 0.657082 54.8353C0.431528 55.1639 0.412195 55.5313 0.367085 55.8922C0.367085 56.949 0.367085 58.0124 0.367085 59.0757C0.541083 59.6106 0.72797 60.0359 1.17908 60.4999C1.59152 60.9252 2.02974 61.6019 1.81063 62.1754C1.58507 62.7619 0.99219 63.1227 0.650637 63.619C0.437973 63.9283 0.412195 64.2698 0.367085 64.6178C0.367085 65.7263 0.367085 66.8218 0.367085 67.8851C0.534639 68.4071 0.72797 68.826 1.17263 69.2836C1.58507 69.7089 2.02329 70.3856 1.80418 70.9527C1.57863 71.5327 0.985745 71.9 0.644193 72.3962C0.444417 72.6862 0.405751 73.0084 0.373529 73.3371C0.373529 74.5293 0.373529 75.6506 0.373529 76.6882C0.541083 77.2037 0.734414 77.6162 1.17263 78.0673C1.58507 78.4926 2.02329 79.1693 1.80418 79.7364C1.57863 80.3228 0.985745 80.6837 0.644193 81.1864C0.457306 81.4635 0.412195 81.7663 0.373529 82.0692C0.373529 83.2421 0.373529 83.9123 0.373529 83.9059C0.908413 88.9261 7.24324 91.9098 24.5206 91.9871C41.624 92.0645 48.1329 88.9261 48.6677 83.9059C48.6677 83.9059 48.6677 83.2486 48.6677 82.0692C48.6291 81.7599 48.5904 81.457 48.4035 81.1864C48.062 80.6837 47.4691 80.3228 47.2435 79.7364C47.0244 79.1693 47.4691 78.4926 47.8815 78.0673C48.3197 77.6162 48.5131 77.2037 48.6742 76.6882C48.6742 75.6506 48.6742 74.5293 48.6742 73.3371C48.6355 73.0149 48.6033 72.6927 48.3971 72.3962C48.0555 71.9 47.4626 71.5327 47.2371 70.9527C47.018 70.3791 47.4626 69.7089 47.8751 69.2836C48.3197 68.826 48.5066 68.4071 48.6806 67.8851C48.6806 66.8218 48.6806 65.7263 48.6806 64.6178C48.6355 64.2763 48.6097 63.9283 48.3971 63.619C48.0555 63.1163 47.4626 62.7554 47.2371 62.1754C47.018 61.6019 47.4626 60.9317 47.8751 60.4999C48.3262 60.0359 48.5131 59.6106 48.6871 59.0757C48.6871 58.0124 48.6871 56.9555 48.6871 55.8922C48.642 55.5248 48.6226 55.1639 48.3971 54.8353C48.0555 54.3391 47.4626 53.9717 47.2371 53.3917C47.018 52.8182 47.4626 52.148 47.8751 51.7226C48.3326 51.2458 48.5195 50.8204 48.6935 50.2727C48.6935 49.2222 48.6935 48.1847 48.6935 47.1793C48.642 46.7927 48.6355 46.406 48.3971 46.058C48.0555 45.5554 47.4626 45.1945 47.2371 44.6145C47.018 44.0474 47.4626 43.3707 47.8751 42.9454C48.3391 42.4621 48.526 42.0303 48.7 41.4696C48.7 40.3999 48.7 39.3881 48.7 38.4472C48.6355 38.0477 48.642 37.6417 48.3971 37.2808C48.0555 36.7846 47.4626 36.4172 47.2371 35.8372C47.018 35.2637 47.4626 34.5935 47.8751 34.1681C48.3455 33.6784 48.5324 33.2401 48.7128 32.6666C48.7128 31.8095 48.7128 31.3326 48.7128 31.3326C48.7128 31.3326 48.8095 28.4777 45.4778 26.1191L45.51 26.1127Z" fill="#D8EFDF"/>
<path d="M45.51 26.1126C40.6638 22.6842 32.995 20.6478 31.6868 17.8509C31.6223 17.7156 31.5643 17.548 31.5063 17.3805C31.5063 17.3805 31.4935 17.3805 31.487 17.3869C31.5063 17.3998 31.5128 17.4063 31.5128 17.4063C31.5579 17.7414 29.8372 18.5727 24.2564 18.5791C18.682 18.5791 17.6831 17.606 17.5671 17.4643C17.522 17.5996 17.4705 17.7285 17.4189 17.8445C16.1107 20.6414 8.4419 22.6778 3.60217 26.1062C0.263976 28.4777 0.360641 31.3326 0.360641 31.3326C0.360641 31.3326 0.360641 31.8159 0.360641 32.6666C0.541084 33.2401 0.721527 33.6783 1.19841 34.1681C1.61085 34.5934 2.04907 35.2701 1.82996 35.8372C1.60441 36.4172 1.01152 36.7845 0.669972 37.2807C0.418641 37.6416 0.425085 38.0476 0.367086 38.4472C0.367086 39.3881 0.367086 40.3998 0.367086 41.4696C0.541084 42.0303 0.727971 42.462 1.19197 42.9454C1.60441 43.3707 2.04263 44.0473 1.82352 44.6145C1.59796 45.2009 1.00508 45.5618 0.663527 46.058C0.425085 46.406 0.418641 46.7927 0.367086 47.1793C0.367086 48.1911 0.367086 49.2222 0.367086 50.2726C0.541084 50.8204 0.727971 51.2457 1.18552 51.7226C1.59796 52.1479 2.03618 52.8246 1.81707 53.3917C1.59152 53.9781 0.998635 54.339 0.657083 54.8352C0.431529 55.1639 0.412196 55.5312 0.367086 55.8921C0.367086 56.949 0.367086 58.0123 0.367086 59.0756C0.541084 59.6105 0.727971 60.0359 1.17908 60.4999C1.59152 60.9252 2.02974 61.6018 1.81063 62.1754C1.58507 62.7618 0.992191 63.1227 0.650638 63.6189C0.437974 63.9283 0.412196 64.2698 0.367086 64.6178C0.367086 65.7262 0.367086 66.8218 0.367086 67.8851C0.53464 68.4071 0.727971 68.826 1.17263 69.2836C1.58507 69.7089 2.02329 70.3855 1.80418 70.9526C1.57863 71.5326 0.985746 71.9 0.644194 72.3962C0.444418 72.6862 0.405752 73.0084 0.37353 73.3371C0.37353 74.5293 0.37353 75.6506 0.37353 76.6881C0.541084 77.2037 0.734415 77.6161 1.17263 78.0672C1.58507 78.4926 2.02329 79.1692 1.80418 79.7363C1.57863 80.3228 0.985746 80.6837 0.644194 81.1863C0.457307 81.4634 0.412196 81.7663 0.37353 82.0692C0.37353 83.2421 0.37353 83.9123 0.37353 83.9059C0.908414 88.926 7.24324 91.9098 24.5206 91.9871C41.624 92.0644 48.1329 88.926 48.6677 83.9059C48.6677 83.9059 48.6677 83.2485 48.6677 82.0692C48.6291 81.7599 48.5904 81.457 48.4035 81.1863C48.062 80.6837 47.4691 80.3228 47.2435 79.7363C47.0244 79.1692 47.4691 78.4926 47.8815 78.0672C48.3197 77.6161 48.5131 77.2037 48.6742 76.6881C48.6742 75.6506 48.6742 74.5293 48.6742 73.3371C48.6355 73.0149 48.6033 72.6926 48.3971 72.3962C48.0555 71.9 47.4626 71.5326 47.2371 70.9526C47.018 70.3791 47.4626 69.7089 47.8751 69.2836C48.3197 68.826 48.5066 68.4071 48.6806 67.8851C48.6806 66.8218 48.6806 65.7262 48.6806 64.6178C48.6355 64.2763 48.6097 63.9283 48.3971 63.6189C48.0555 63.1163 47.4626 62.7554 47.2371 62.1754C47.018 61.6018 47.4626 60.9316 47.8751 60.4999C48.3262 60.0359 48.5131 59.6105 48.6871 59.0756C48.6871 58.0123 48.6871 56.9554 48.6871 55.8921C48.642 55.5248 48.6226 55.1639 48.3971 54.8352C48.0555 54.339 47.4626 53.9717 47.2371 53.3917C47.018 52.8182 47.4626 52.1479 47.8751 51.7226C48.3326 51.2457 48.5195 50.8204 48.6935 50.2726C48.6935 49.2222 48.6935 48.1846 48.6935 47.1793C48.642 46.7927 48.6355 46.406 48.3971 46.058C48.0555 45.5553 47.4626 45.1945 47.2371 44.6145C47.018 44.0473 47.4626 43.3707 47.8751 42.9454C48.3391 42.462 48.526 42.0303 48.7 41.4696C48.7 40.3998 48.7 39.3881 48.7 38.4472C48.6355 38.0476 48.642 37.6416 48.3971 37.2807C48.0555 36.7845 47.4626 36.4172 47.2371 35.8372C47.018 35.2637 47.4626 34.5934 47.8751 34.1681C48.3455 33.6783 48.5324 33.2401 48.7128 32.6666C48.7128 31.8095 48.7128 31.3326 48.7128 31.3326C48.7128 31.3326 48.8095 28.4777 45.4778 26.1191L45.51 26.1126Z" fill="url(#paint0_linear_242_174980)"/>
<path d="M18.3145 17.6319C18.6045 17.6577 18.8881 17.6834 19.1716 17.7479C19.3005 17.4579 19.3972 17.1614 19.5067 16.8521C19.5712 16.6652 19.6292 16.4719 19.6743 16.2786C19.9643 15.0735 19.9192 13.8168 20.177 12.5988H18.3274C18.3274 12.5988 18.3145 12.805 18.2888 13.1337C18.2888 13.1401 18.2888 13.1466 18.2888 13.153C18.2565 13.5397 18.2114 14.0875 18.1341 14.6868C18.1341 14.6868 18.1341 14.6868 18.1341 14.6932C18.0697 15.183 18.0439 15.763 17.8828 16.2528C17.7925 16.7039 17.683 17.1292 17.5605 17.4901C17.8119 17.5417 18.0568 17.6061 18.3145 17.6319Z" fill="#BAC6BD"/>
<path d="M18.3143 17.6319C18.3595 17.6319 18.4046 17.6383 18.4497 17.6447C18.4948 17.503 18.527 17.3547 18.5592 17.2259C18.6881 16.6523 18.8299 16.0788 18.9137 15.4923C19.0426 14.5257 19.0683 13.559 19.1779 12.5923H18.3401C18.3401 12.6117 18.1597 15.821 17.5732 17.4901C17.8246 17.5416 18.0695 17.6061 18.3272 17.6319H18.3143Z" fill="#A1AFA5"/>
<path d="M28.3034 18.1152C29.2443 17.6512 30.4494 17.4063 31.532 17.445C30.952 15.7565 30.778 12.5923 30.778 12.5923L27.2336 12.8695C27.1176 14.4483 27.3174 17.1099 28.3034 18.1087V18.1152Z" fill="#BAC6BD"/>
<path d="M30.314 17.4707C30.7135 17.4127 31.1131 17.387 31.5126 17.3999C30.9455 15.705 30.778 12.5923 30.778 12.5923L29.0831 12.7212C29.0766 14.1519 29.4762 15.8145 29.8693 17.1421C29.9144 17.3032 30.1271 17.3805 30.314 17.4707Z" fill="#A1AFA5"/>
<path opacity="0.36" d="M45.51 26.1126C40.6638 22.6842 32.995 20.6478 31.6868 17.8509C31.6417 17.7607 31.603 17.6576 31.5643 17.548C31.545 17.4965 31.5257 17.4385 31.5063 17.3805C31.5063 17.3805 31.4935 17.3805 31.487 17.3869C31.5063 17.3998 31.5128 17.4063 31.5128 17.4063C31.545 17.6512 30.6235 18.1603 27.9426 18.418C28.1617 19.4105 28.4066 20.3836 28.6708 21.2987C30.5203 27.6593 36.5072 27.6593 38.1247 32.0157C39.1107 34.6772 37.3901 35.3797 36.3332 37.4225C36.6747 36.7523 40.1869 39.7941 40.3674 40.5609C40.9023 42.8487 39.0269 45.652 36.8938 46.3738C39.7036 46.3287 41.9656 46.4447 42.1202 49.7442C42.1718 50.9042 42.1202 52.1737 41.3662 53.1082C40.9667 53.6044 39.2009 54.9061 38.5114 54.7128C40.4447 55.2541 41.7658 56.5752 41.7916 58.6374C41.798 59.5525 41.566 60.7061 41.1278 61.5181C40.9538 61.8467 39.3169 63.8445 39.0334 63.5545C40.2385 64.7531 41.2696 65.7714 41.4436 67.5693C41.6176 69.348 41.276 71.2555 39.6972 72.3382C42.1654 73.9622 42.3587 77.7128 40.8507 80.0263C40.3867 80.7417 39.9227 80.9092 40.0387 81.6503C40.3609 83.777 37.3127 84.9821 36.1785 85.4332C32.9048 86.7285 29.457 86.9347 25.9835 86.9347C21.2533 86.9347 4.97482 86.9089 4.14349 82.7652C3.81483 81.1154 5.35504 80.6128 5.27126 80.4903C3.87283 78.4603 2.4164 74.0588 5.27126 71.0558C2.77084 68.3169 3.0995 65.9518 5.27126 62.9358C3.02217 61.1121 1.90729 57.471 3.96949 54.5195C5.23259 52.715 3.48617 50.5562 3.51194 48.5649C3.53128 47.0762 3.93083 45.8775 4.67838 44.8078C3.98883 43.8025 3.5635 42.7005 3.49905 41.3214C3.42817 39.7361 4.47216 38.4085 4.90393 36.9585C5.50326 34.9285 3.94372 34.3614 3.92438 32.4668C3.9115 30.9395 4.42705 29.3864 5.61926 28.3553C9.44722 25.0364 16.5876 22.6649 19.0751 18.128C17.9538 17.8509 17.6316 17.5416 17.5736 17.4643C17.5671 17.49 17.5607 17.5094 17.5543 17.5287C17.5156 17.6383 17.4705 17.7478 17.4254 17.8445C16.1172 20.6414 8.44834 22.6778 3.60861 26.1062C0.263974 28.4777 0.36064 31.3326 0.36064 31.3326C0.36064 31.3326 0.36064 31.8159 0.36064 32.6666C0.541083 33.2401 0.721526 33.6783 1.19841 34.1681C1.61085 34.5934 2.04907 35.2701 1.82996 35.8372C1.60441 36.4172 1.01152 36.7845 0.669971 37.2807C0.41864 37.6416 0.425084 38.0476 0.367085 38.4472C0.367085 39.3881 0.367085 40.3998 0.367085 41.4696C0.541083 42.0303 0.72797 42.462 1.19197 42.9454C1.60441 43.3707 2.04262 44.0473 1.82352 44.6145C1.59796 45.2009 1.00508 45.5618 0.663526 46.058C0.425084 46.406 0.41864 46.7927 0.367085 47.1793C0.367085 48.1911 0.367085 49.2222 0.367085 50.2726C0.541083 50.8204 0.72797 51.2457 1.18552 51.7226C1.59796 52.1479 2.03618 52.8246 1.81707 53.3917C1.59152 53.9781 0.998634 54.339 0.657082 54.8352C0.431528 55.1639 0.412195 55.5312 0.367085 55.8921C0.367085 56.949 0.367085 58.0123 0.367085 59.0756C0.541083 59.6105 0.72797 60.0359 1.17908 60.4999C1.59152 60.9252 2.02974 61.6018 1.81063 62.1754C1.58507 62.7618 0.99219 63.1227 0.650637 63.6189C0.437973 63.9283 0.412195 64.2698 0.367085 64.6178C0.367085 65.7262 0.367085 66.8218 0.367085 67.8851C0.534639 68.4071 0.72797 68.826 1.17263 69.2835C1.58507 69.7089 2.02329 70.3855 1.80418 70.9526C1.57863 71.5326 0.985745 71.9 0.644193 72.3962C0.444417 72.6862 0.405751 73.0084 0.373529 73.3371C0.373529 74.5293 0.373529 75.6506 0.373529 76.6881C0.541083 77.2037 0.734414 77.6161 1.17263 78.0672C1.22419 78.1188 1.27574 78.1768 1.3273 78.2348C1.37885 78.2928 1.42396 78.3508 1.46907 78.4152C1.46907 78.4152 1.49485 78.4539 1.50774 78.4668C1.52063 78.4797 1.52707 78.499 1.53996 78.5183C1.57218 78.5699 1.60441 78.6215 1.63663 78.6795C1.66241 78.7246 1.68174 78.7632 1.70752 78.8083C1.75263 78.905 1.79129 79.0017 1.81707 79.1048C1.82996 79.1499 1.8364 79.195 1.84285 79.2337C1.84285 79.2337 1.85574 79.2917 1.85574 79.3175C1.85574 79.3626 1.85574 79.4077 1.85574 79.4528C1.85574 79.5043 1.84285 79.5623 1.82996 79.6139C1.82352 79.6526 1.81707 79.6848 1.80418 79.7234C1.80418 79.7234 1.80418 79.7234 1.80418 79.7299C1.5593 80.3614 0.972857 80.819 0.541083 81.3603C0.489528 81.4699 0.457306 81.5794 0.431528 81.6954C0.431528 81.7083 0.431528 81.7212 0.425084 81.7341C0.405751 81.8437 0.386418 81.9532 0.373529 82.0628C0.373529 83.2356 0.373529 83.9059 0.373529 83.8994C0.908413 88.9196 7.24324 91.9033 24.5206 91.9807C41.624 92.058 48.1329 88.9196 48.6677 83.8994C48.6677 83.8994 48.6677 83.2421 48.6677 82.0628C48.6291 81.7534 48.5904 81.4505 48.4035 81.1799C48.062 80.6772 47.4691 80.3163 47.2435 79.7299C47.1855 79.5817 47.1791 79.427 47.1984 79.2723C47.1984 79.2723 47.1984 79.2595 47.1984 79.253C47.2177 79.1048 47.2693 78.9566 47.3402 78.8083C47.366 78.7568 47.3917 78.7117 47.4175 78.6601C47.482 78.5506 47.5529 78.4475 47.6237 78.3508C47.7011 78.2477 47.7849 78.151 47.8686 78.0608C48.3069 77.6097 48.5002 77.1972 48.6613 76.6817C48.6613 75.6441 48.6613 74.5228 48.6613 73.3306C48.6226 73.0084 48.5904 72.6862 48.3842 72.3897C48.0426 71.8935 47.4497 71.5262 47.2242 70.9462C47.0051 70.3726 47.4497 69.7024 47.8622 69.2771C48.3068 68.8195 48.4937 68.4007 48.6677 67.8787C48.6677 66.8153 48.6677 65.7198 48.6677 64.6114C48.6226 64.2698 48.5968 63.9218 48.3842 63.6125C48.0426 63.1098 47.4497 62.7489 47.2242 62.1689C47.0051 61.5954 47.4497 60.9252 47.8622 60.4934C48.3133 60.0294 48.5002 59.6041 48.6742 59.0692C48.6742 58.0059 48.6742 56.949 48.6742 55.8857C48.6291 55.5183 48.6097 55.1575 48.3842 54.8288C48.0426 54.3326 47.4497 53.9652 47.2242 53.3853C47.0051 52.8117 47.4497 52.1415 47.8622 51.7162C48.3197 51.2393 48.5066 50.8139 48.6806 50.2662C48.6806 49.2157 48.6806 48.1782 48.6806 47.1729C48.6291 46.7862 48.6226 46.3995 48.3842 46.0515C48.0426 45.5489 47.4497 45.188 47.2242 44.608C47.0051 44.0409 47.4497 43.3642 47.8622 42.9389C48.3262 42.4556 48.5131 42.0238 48.6871 41.4631C48.6871 40.3934 48.6871 39.3816 48.6871 38.4407C48.6226 38.0412 48.6291 37.6352 48.3842 37.2743C48.0426 36.7781 47.4497 36.4108 47.2242 35.8308C47.0051 35.2572 47.4497 34.587 47.8622 34.1617C48.3326 33.6719 48.5195 33.2337 48.7 32.6601C48.7 31.803 48.7 31.3261 48.7 31.3261C48.7 31.3261 48.7966 28.4713 45.4649 26.1126H45.51Z" fill="#EF8903"/>
<path opacity="0.36" d="M45.5097 26.1126C40.6635 22.6842 32.9947 20.6478 31.6865 17.8509C31.6414 17.7607 31.6027 17.6576 31.5641 17.548C31.5447 17.4965 31.5254 17.4385 31.5061 17.3805C31.5061 17.3805 31.4932 17.3805 31.4867 17.3869C31.5061 17.3998 31.5125 17.4063 31.5125 17.4063C31.5383 17.5996 30.9905 17.9476 29.4825 18.2183C29.6952 18.8498 29.9465 19.4685 30.2365 20.0485C32.2923 22.3491 34.9796 23.5993 37.5767 25.0686C37.6024 25.0815 37.6347 25.0944 37.6604 25.1009C40.2769 26.1964 43.4797 27.6464 44.8782 30.3208C45.5935 31.687 45.9221 32.9695 45.9286 34.5097C45.935 36.1014 45.2584 36.9521 46.0381 38.4858C47.1143 40.6125 46.7341 42.9711 45.6837 44.9882C47.3335 47.4951 47.0241 51.3811 45.0908 53.6237C44.2917 54.5452 45.0328 54.571 45.7804 55.3572C46.341 55.9501 46.6117 56.6783 46.8695 57.4388C47.6041 59.5912 46.0188 61.2281 45.6128 63.1421C46.9081 64.6629 47.5075 66.2031 46.7148 68.42C46.4699 69.1031 46.051 69.6573 45.6128 70.2309C44.9297 71.1266 44.5688 70.4693 45.3035 71.1395C46.2057 71.958 46.8952 73.002 46.9017 74.2779C46.9146 76.0373 46.5408 77.5904 46.1155 79.2917C45.7546 80.7288 46.3732 81.9661 45.9801 83.3839C45.2455 86.0712 41.2757 88.3589 38.7238 88.9905C34.7089 90.7562 30.1527 91.0849 25.7126 90.9818C20.6924 90.8658 6.90785 90.3245 3.35699 86.2065C2.32589 85.0079 1.15946 83.9832 0.392578 82.6879V82.7459C0.392578 82.7974 0.392578 82.849 0.392578 82.9005V83.9123C0.927462 88.9325 7.26229 91.9162 24.5397 91.9936C41.6431 92.0709 48.1519 88.9325 48.6868 83.9123C48.6868 83.9123 48.6868 83.255 48.6868 82.0757C48.6481 81.7663 48.6094 81.4634 48.4226 81.1928C48.081 80.6901 47.4881 80.3292 47.2626 79.7428C47.2046 79.5946 47.1981 79.4399 47.2175 79.2852C47.2175 79.2852 47.2175 79.2723 47.2175 79.2659C47.2368 79.1177 47.2883 78.9695 47.3592 78.8212C47.385 78.7697 47.4108 78.7246 47.4366 78.673C47.501 78.5635 47.5719 78.4604 47.6428 78.3637C47.7201 78.2606 47.8039 78.1639 47.8877 78.0737C48.3259 77.6226 48.5192 77.2101 48.6803 76.6946C48.6803 75.657 48.6803 74.5357 48.6803 73.3435C48.6417 73.0213 48.6094 72.6991 48.4032 72.4026C48.0617 71.9064 47.4688 71.5391 47.2432 70.9591C47.0241 70.3855 47.4688 69.7153 47.8812 69.29C48.3259 68.8324 48.5128 68.4136 48.6868 67.8916C48.6868 66.8282 48.6868 65.7327 48.6868 64.6243C48.6417 64.2827 48.6159 63.9347 48.4032 63.6254C48.0617 63.1227 47.4688 62.7618 47.2432 62.1818C47.0241 61.6083 47.4688 60.9381 47.8812 60.5063C48.3323 60.0423 48.5192 59.617 48.6932 59.0821C48.6932 58.0188 48.6932 56.9619 48.6932 55.8986C48.6481 55.5312 48.6288 55.1704 48.4032 54.8417C48.0617 54.3455 47.4688 53.9781 47.2432 53.3981C47.0241 52.8246 47.4688 52.1544 47.8812 51.729C48.3388 51.2522 48.5257 50.8268 48.6997 50.2791C48.6997 49.2286 48.6997 48.1911 48.6997 47.1858C48.6481 46.7991 48.6417 46.4124 48.4032 46.0644C48.0617 45.5618 47.4688 45.2009 47.2432 44.6209C47.0241 44.0538 47.4688 43.3771 47.8812 42.9518C48.3452 42.4685 48.5321 42.0367 48.7061 41.476C48.7061 40.4063 48.7061 39.3945 48.7061 38.4536C48.6417 38.0541 48.6481 37.6481 48.4032 37.2872C48.0617 36.791 47.4688 36.4236 47.2432 35.8436C47.0241 35.2701 47.4688 34.5999 47.8812 34.1746C48.3517 33.6848 48.5386 33.2466 48.719 32.673C48.719 31.8159 48.719 31.339 48.719 31.339C48.719 31.339 48.8157 28.4842 45.4839 26.1255L45.5097 26.1126Z" fill="#E27E05"/>
<path opacity="0.33" d="M48.4358 81.1992C48.4358 81.1992 48.3972 81.1541 48.3778 81.1283C48.3585 81.167 48.3392 81.2121 48.3263 81.2507C47.6496 82.8038 46.9859 84.1958 45.6261 85.3816C42.8615 87.8047 38.4986 88.0496 35.0057 88.5458C31.5709 89.0356 28.1811 89.274 24.7012 89.274C22.9032 89.274 11.6771 89.5189 5.61936 86.7607C3.31227 85.7103 1.72696 84.2409 0.412303 82.0176C0.412303 82.0434 0.405858 82.0627 0.399414 82.0885C0.399414 83.2614 0.399414 83.9316 0.399414 83.9252C0.934298 88.9453 7.26912 91.9291 24.5465 92.0064C41.6499 92.0837 48.1587 88.9453 48.6936 83.9252C48.6936 83.9252 48.6936 83.2678 48.6936 82.0885C48.655 81.7792 48.6163 81.4763 48.4294 81.2056L48.4358 81.1992Z" fill="#ED8203"/>
<path opacity="0.52" d="M24.5526 92C41.656 92.0773 48.1648 88.9389 48.6997 83.9188C48.6997 83.9188 48.6997 83.4354 48.6997 82.5654C48.6803 82.617 48.661 82.6621 48.6417 82.7137C48.371 83.4677 48.1519 84.2152 47.9328 84.6212C46.8888 86.5803 45.0908 88.1398 42.8933 88.6103C33.1494 90.6789 33.0592 90.4082 24.617 90.5114C16.5293 90.608 5.87675 90.9238 1.15946 85.0659C0.972577 84.8339 0.708358 84.4407 0.424805 84.0863C1.07569 89.0034 7.46207 91.9227 24.5526 92Z" fill="#ED7906"/>
<path opacity="0.33" d="M45.5099 26.1127C43.4928 24.682 40.9859 23.4962 38.653 22.4007C40.2835 23.1805 44.9621 26.6089 44.2854 29.7215C43.2286 34.5935 35.1086 35.3539 30.8424 36.1015C24.5721 37.2034 13.7648 36.2626 7.06912 34.4968C4.02737 33.6977 1.89428 32.3766 0.927622 29.1737C0.334739 30.4046 0.360517 31.3326 0.360517 31.3326C0.360517 31.3326 0.360517 31.8159 0.360517 32.6666C0.540959 33.2401 0.721402 33.6784 1.19829 34.1681C1.46251 34.4452 1.73961 34.8255 1.84272 35.2121C7.55245 37.2679 15.6079 38.5503 24.5527 38.5503C33.4975 38.5503 41.553 37.2679 47.2627 35.2121C47.3658 34.8255 47.643 34.4452 47.9072 34.1681C48.3776 33.6784 48.5645 33.2401 48.7449 32.6666C48.7449 31.8095 48.7449 31.3326 48.7449 31.3326C48.7449 31.3326 48.8416 28.4777 45.5099 26.1191V26.1127Z" fill="#ED8203"/>
<path opacity="0.52" d="M47.2047 27.6657C47.5785 28.6324 47.7009 29.6635 47.4431 30.7268C46.3798 35.1799 40.161 36.3399 36.4748 36.7845C28.5482 37.7447 13.217 38.8918 3.20246 34.7868C0.785819 33.7943 0.470044 31.7966 0.760041 29.5281C0.341156 30.5721 0.36049 31.3326 0.36049 31.3326C0.36049 31.3326 0.36049 31.8159 0.36049 32.6666C0.540932 33.2401 0.721375 33.6783 1.19826 34.1681C1.46248 34.4452 1.73959 34.8254 1.8427 35.2121C7.55242 37.2678 15.6079 38.5503 24.5527 38.5503C33.4975 38.5503 41.553 37.2678 47.2627 35.2121C47.3658 34.8254 47.6429 34.4452 47.9071 34.1681C48.3776 33.6783 48.5645 33.2401 48.7449 32.6666C48.7449 31.8094 48.7449 31.3326 48.7449 31.3326C48.7449 31.3326 48.7965 29.5668 47.2047 27.6722V27.6657Z" fill="#ED7906"/>
<path opacity="0.33" d="M48.3646 37.2034C47.4172 39.2205 47.0692 40.3934 43.7633 41.9529C39.0718 44.1634 32.2536 44.8142 21.1564 44.8142C15.0213 44.8142 1.46234 44.086 0.37324 38.3828C0.37324 38.4085 0.37324 38.4343 0.360352 38.4601C0.360352 39.401 0.360352 40.4127 0.360352 41.4825C0.53435 42.0432 0.721237 42.4749 1.18523 42.9583C1.48812 43.274 1.81678 43.7316 1.86834 44.1827C7.57162 46.232 15.6142 47.508 24.5397 47.508C33.4651 47.508 41.5077 46.232 47.211 44.1827C47.2626 43.7316 47.5912 43.274 47.8941 42.9583C48.3581 42.4749 48.545 42.0432 48.719 41.4825C48.719 40.4127 48.719 39.401 48.719 38.4601C48.6546 38.0605 48.661 37.6545 48.4161 37.2937C48.3968 37.2679 48.371 37.2421 48.3452 37.2099L48.3646 37.2034Z" fill="#ED8203"/>
<path opacity="0.52" d="M44.7694 44.028C36.0759 47.16 18.7921 47.6369 8.76461 45.4587C4.83354 44.6016 1.81757 43.7574 0.374023 40.1099C0.374023 40.5545 0.374023 41.0056 0.374023 41.4761C0.548022 42.0367 0.734909 42.4685 1.1989 42.9518C1.50179 43.2676 1.83045 43.7252 1.88201 44.1763C7.58529 46.2256 15.6279 47.5016 24.5533 47.5016C33.4788 47.5016 41.5214 46.2256 47.2247 44.1763C47.2762 43.7252 47.6049 43.2676 47.9078 42.9518C48.3718 42.4685 48.5587 42.0367 48.7327 41.4761C48.7327 41.0185 48.7327 40.5739 48.7327 40.1356C48.0431 41.9916 46.664 43.3385 44.7629 44.028H44.7694Z" fill="#ED7906"/>
<path opacity="0.33" d="M29.2642 53.7268C22.7167 54.1972 14.2423 53.7848 7.86884 52.1866C4.44043 51.3231 1.61779 50.7366 0.374023 47.2824C0.374023 48.262 0.374023 49.2673 0.374023 50.2855C0.548022 50.8333 0.734909 51.2586 1.19246 51.7355C1.49535 52.0513 1.81757 52.5088 1.87556 52.9535C7.57884 55.0028 15.6214 56.2788 24.5469 56.2788C33.4724 56.2788 41.515 55.0028 47.2182 52.9535C47.2762 52.5088 47.5985 52.0513 47.9013 51.7355C48.3589 51.2586 48.5458 50.8333 48.7198 50.2855C48.7198 49.2351 48.7198 48.1975 48.7198 47.1922C48.694 46.9989 48.6747 46.8055 48.6425 46.6187C46.0325 51.4519 36.005 53.2499 29.2577 53.7333L29.2642 53.7268Z" fill="#ED8203"/>
<path opacity="0.52" d="M43.1255 53.237C37.4222 54.8675 29.8629 55.5377 23.9212 55.4217C18.0697 55.3057 14.1129 55.4217 8.17114 54.0168C5.16161 53.3015 1.81698 52.4895 0.379883 49.8602V50.2855C0.553881 50.8333 0.740768 51.2586 1.19832 51.7355C1.50121 52.0513 1.82342 52.5088 1.88142 52.9535C7.5847 55.0028 15.6273 56.2788 24.5528 56.2788C33.4782 56.2788 41.5208 55.0028 47.2241 52.9535C47.2821 52.5088 47.6043 52.0513 47.9072 51.7355C48.3648 51.2586 48.5516 50.8333 48.7256 50.2855C48.7256 49.9117 48.7256 49.5508 48.7256 49.1771C47.6301 50.9557 45.7226 52.4959 43.119 53.2435L43.1255 53.237Z" fill="#ED7906"/>
<path opacity="0.33" d="M43.7059 59.2045C38.4086 61.5052 30.3338 62.9487 21.0087 62.4332C6.66355 61.6405 1.82382 58.8114 0.386719 56.5623C0.386719 57.4001 0.386719 58.2443 0.386719 59.0885C0.560717 59.6234 0.747604 60.0487 1.19871 60.5127C1.54026 60.8672 1.90115 61.4021 1.88182 61.8983C7.58509 63.9476 15.6277 65.2236 24.5532 65.2236C33.4786 65.2236 41.5212 63.9476 47.218 61.8983C47.1987 61.4021 47.5596 60.8672 47.9076 60.5127C48.3587 60.0487 48.5456 59.6234 48.7196 59.0885C48.7196 58.1154 48.7196 57.1359 48.7196 56.1628C47.1923 57.4839 45.3234 58.5021 43.6994 59.2045H43.7059Z" fill="#ED8203"/>
<path opacity="0.52" d="M23.9989 64.4696C5.87089 64.0765 1.18582 60.8414 0.386719 58.7277V59.0885C0.560717 59.6234 0.747604 60.0488 1.19871 60.5128C1.54026 60.8672 1.90115 61.4021 1.88182 61.8983C7.58509 63.9476 15.6277 65.2236 24.5532 65.2236C33.4786 65.2236 41.5212 63.9476 47.218 61.8983C47.1987 61.4021 47.5596 60.8672 47.9076 60.5128C48.3587 60.0488 48.5456 59.6234 48.7196 59.0885V58.3088C46.9989 60.893 40.2066 64.824 23.9989 64.4696Z" fill="#ED7906"/>
<path opacity="0.33" d="M43.3256 67.8658C37.9768 70.1664 32.0673 70.9913 26.2867 71.2298C19.7328 71.494 13.1917 71.3844 6.81821 69.6444C4.45957 69 1.66915 67.8142 0.386719 65.7005C0.386719 66.4416 0.386719 67.1762 0.386719 67.898C0.554273 68.42 0.747604 68.8389 1.19227 69.2964C1.49515 69.6122 1.81093 70.0569 1.87537 70.5015C7.57865 72.5509 15.6277 73.8268 24.5532 73.8268C33.4786 73.8268 41.5212 72.5509 47.2245 70.5015C47.2825 70.0569 47.6047 69.6122 47.9076 69.2964C48.3523 68.8389 48.5391 68.42 48.7131 67.898C48.7131 66.8347 48.7131 65.7391 48.7131 64.6307C48.6745 64.3149 48.6423 63.9992 48.4747 63.7092C46.9345 65.5329 45.143 67.086 43.3256 67.8658Z" fill="#ED8203"/>
<path opacity="0.52" d="M24.6625 73.1373C21.2599 73.3435 5.87716 72.7699 0.676541 68.362C0.63143 68.3233 0.579875 68.304 0.52832 68.2718C0.676541 68.6326 0.863428 68.9549 1.19854 69.3029C1.50142 69.6186 1.8172 70.0633 1.88164 70.508C7.58492 72.5573 15.634 73.8333 24.5594 73.8333C33.4849 73.8333 41.5275 72.5573 47.2308 70.508C47.2888 70.0633 47.611 69.6186 47.9139 69.3029C48.3585 68.8453 48.5454 68.4264 48.7194 67.9044C48.7194 67.6982 48.7194 67.492 48.7194 67.2858C44.7497 72.6926 30.572 72.7828 24.669 73.1437L24.6625 73.1373Z" fill="#ED7906"/>
<path opacity="0.33" d="M26.8472 79.8652C21.7239 80.3228 12.7275 80.0392 7.7589 78.5183C5.16826 77.7257 1.3854 76.0437 0.418747 73.2211C0.418747 73.2662 0.405858 73.3113 0.399414 73.3564C0.399414 74.5486 0.399414 75.6699 0.399414 76.7075C0.566968 77.223 0.7603 77.6355 1.19852 78.0866C1.54007 78.441 1.89451 78.9695 1.88162 79.4592C7.5849 81.5021 15.6275 82.7845 24.553 82.7845C33.4784 82.7845 41.521 81.5085 47.2243 79.4592C47.2114 78.963 47.5723 78.4346 47.9074 78.0866C48.3456 77.6355 48.539 77.223 48.7001 76.7075C48.7001 75.6699 48.7001 74.5486 48.7001 73.3564C48.7001 73.3564 44.8077 78.2606 26.8343 79.8652H26.8472Z" fill="#ED8203"/>
<path opacity="0.52" d="M24.553 82.0434C10.5042 81.863 2.73229 79.6848 0.463867 76.8815C0.618532 77.3133 0.811864 77.6806 1.19853 78.0802C1.54008 78.4346 1.89452 78.963 1.88163 79.4528C7.58491 81.4957 15.6275 82.7781 24.553 82.7781C33.4784 82.7781 41.521 81.5021 47.2243 79.4528C47.2114 78.9566 47.5723 78.4282 47.9074 78.0802C48.3456 77.629 48.539 77.2166 48.7001 76.7011C48.7001 76.3659 48.7001 76.0115 48.7001 75.6635C47.3274 77.1779 39.955 82.2432 24.5465 82.0434H24.553Z" fill="#ED7906"/>
<path style="mix-blend-mode:screen" opacity="0.75" d="M15.2985 34.6708C15.4403 34.6837 15.5821 34.6966 15.7303 34.7094C18.089 34.9285 20.5056 35.0703 22.9029 34.9543C26.4087 34.7803 30.3397 35.051 33.7101 34.181C34.7348 33.9168 36.2299 33.7299 36.1203 32.3057C35.9979 30.7784 34.0066 30.3015 32.8015 30.0502C29.212 29.3026 24.9458 30.2564 21.7687 27.9428C20.5829 27.0793 20.8923 25.7002 21.2532 24.4822C21.8074 22.6069 22.6258 20.7896 22.8707 18.8305C22.9802 17.9218 23.1027 14.1647 21.1436 15.4343C20.3896 15.9176 20.2865 17.8123 19.9965 18.6114C19.5067 19.9454 18.843 21.2149 17.9536 22.3298C15.9623 24.8302 12.9657 25.2555 10.3621 26.8666C8.84127 27.8075 5.66419 29.1286 6.06375 31.4228C6.30219 32.8083 8.22906 33.6397 9.44705 33.8459C11.3481 34.1617 13.3652 34.4646 15.305 34.6579L15.2985 34.6708Z" fill="url(#paint1_linear_242_174980)"/>
<path opacity="0.48" d="M7.23738 41.8434C8.98381 42.8874 11.974 43.0807 13.5658 42.7585C14.6226 42.5458 14.932 42.011 15.1382 41.0314C15.4153 39.7554 15.2349 39.3043 14.0233 38.7565C12.7151 38.1637 7.1536 36.7266 6.30939 38.2861C5.40073 39.9616 6.01295 41.1087 7.23738 41.8434Z" fill="#FFFFDE"/>
<path opacity="0.48" d="M6.62479 50.4338C8.35833 51.3682 11.3292 51.5422 12.9145 51.2522C13.9649 51.0589 14.2678 50.582 14.4805 49.6991C14.7512 48.552 14.5772 48.1525 13.3721 47.6627C12.0703 47.1278 6.54746 45.8389 5.70324 47.2438C4.80103 48.7454 5.4068 49.7765 6.62479 50.4338Z" fill="#FFFFDE"/>
<path opacity="0.48" d="M6.62479 59.2368C8.35833 60.1712 11.3292 60.3452 12.9145 60.0617C13.9649 59.8683 14.2678 59.385 14.4805 58.5086C14.7512 57.3615 14.5772 56.9619 13.3721 56.4721C12.0703 55.9437 6.54746 54.6548 5.70324 56.0533C4.80103 57.5548 5.4068 58.5859 6.62479 59.2368Z" fill="#FFFFDE"/>
<path opacity="0.48" d="M6.62479 68.2911C8.35833 69.2256 11.3292 69.3996 12.9145 69.116C13.9649 68.9227 14.2678 68.4458 14.4805 67.5629C14.7512 66.4158 14.5772 66.0163 13.3721 65.5201C12.0703 64.9916 6.54746 63.7027 5.70324 65.1012C4.80103 66.6027 5.4068 67.6338 6.62479 68.2911Z" fill="#FFFFDE"/>
<path opacity="0.48" d="M6.62479 77.1457C8.35833 78.0801 11.3292 78.2541 12.9145 77.9641C13.9649 77.7772 14.2678 77.2939 14.4805 76.411C14.7512 75.2639 14.5772 74.8644 13.3721 74.3746C12.0703 73.8397 6.54746 72.5509 5.70324 73.9557C4.80103 75.4573 5.4068 76.4884 6.62479 77.1457Z" fill="#FFFFDE"/>
<path opacity="0.48" d="M6.90841 84.183C8.25529 84.7114 10.5817 84.879 11.8255 84.7758C12.6504 84.7114 12.9017 84.4665 13.0821 84.0219C13.3141 83.4419 13.1852 83.2292 12.2508 82.9456C11.239 82.6363 6.93419 81.8243 6.24464 82.5203C5.50998 83.2679 5.96753 83.8092 6.90841 84.183Z" fill="#FFFFDE"/>
<path opacity="0.48" d="M7.94566 33.7879C9.81453 34.935 13.0109 35.1477 14.7187 34.7997C15.8465 34.5677 16.1751 33.9748 16.4007 32.8921C16.6907 31.4873 16.5038 30.9911 15.2085 30.3917C13.81 29.7408 7.86188 28.1555 6.95322 29.8762C5.98012 31.7257 6.63745 32.9888 7.94566 33.7879Z" fill="#FFFFDE"/>
<path opacity="0.8" d="M7.40409 40.3548C8.68008 40.8059 10.8647 40.8897 12.0247 40.7479C12.798 40.6577 13.0171 40.4257 13.1718 40.0003C13.3716 39.4526 13.2427 39.2592 12.3598 39.0208C11.4061 38.763 7.34609 38.1508 6.72099 38.821C6.05722 39.5428 6.50188 40.0326 7.39765 40.3483L7.40409 40.3548Z" fill="#FFFFDE"/>
<path opacity="0.8" d="M6.76647 49.1707C7.99734 49.7249 10.1047 49.828 11.226 49.654C11.9671 49.5444 12.1862 49.2544 12.3344 48.7389C12.5277 48.0622 12.3989 47.8238 11.5482 47.5338C10.6267 47.218 6.70847 46.4576 6.10914 47.2889C5.4647 48.1782 5.89647 48.7904 6.76647 49.1771V49.1707Z" fill="#FFFFDE"/>
<path opacity="0.8" d="M6.79181 58.5795C8.11935 59.1401 10.3878 59.2497 11.5993 59.0757C12.3984 58.9597 12.6304 58.6697 12.7915 58.1412C12.9977 57.4517 12.8624 57.2133 11.9473 56.9168C10.9549 56.5946 6.73381 55.8213 6.08937 56.6655C5.39982 57.5677 5.86381 58.1864 6.79181 58.5795Z" fill="#FFFFDE"/>
<path opacity="0.8" d="M6.59877 67.3631C7.95853 67.9109 10.2785 68.014 11.5158 67.8465C12.3343 67.7369 12.5727 67.4534 12.7338 66.9378C12.9465 66.2676 12.8112 66.0292 11.8703 65.7392C10.8521 65.4298 6.53432 64.6694 5.877 65.4943C5.16812 66.3771 5.645 66.9765 6.59877 67.3631Z" fill="#FFFFDE"/>
<path opacity="0.8" d="M7.17237 76.3208C8.40324 76.8686 10.5106 76.9717 11.6383 76.8041C12.3859 76.6946 12.5985 76.411 12.7468 75.889C12.9401 75.2124 12.8112 74.9804 11.9605 74.6904C11.039 74.3811 7.11437 73.6206 6.52149 74.4455C5.87705 75.3284 6.30882 75.9342 7.17237 76.3208Z" fill="#FFFFDE"/>
<path opacity="0.8" d="M7.20455 83.4741C8.17765 83.719 9.85963 83.8221 10.7618 83.7899C11.3547 83.7706 11.5352 83.661 11.6641 83.4677C11.8252 83.2099 11.7285 83.1197 11.0518 82.9779C10.3172 82.8297 7.1981 82.4301 6.70833 82.733C6.18634 83.0552 6.52144 83.3065 7.20455 83.4805V83.4741Z" fill="#FFFFDE"/>
<path opacity="0.8" d="M8.00398 32.3766C9.4153 33.0662 11.8577 33.2466 13.1724 33.079C14.0424 32.9695 14.3001 32.6344 14.487 32.0222C14.7319 31.2231 14.5901 30.9395 13.6106 30.5722C12.5473 30.1726 8.01687 29.1609 7.30154 30.1211C6.52821 31.1586 7.01799 31.8933 8.01042 32.3766H8.00398Z" fill="#FFFFDE"/>
<path style="mix-blend-mode:screen" opacity="0.75" d="M11.8186 43.4223C15.8335 43.5512 19.4359 43.1838 23.4185 42.5716C25.4098 42.2623 27.4978 41.8434 29.4762 41.3536C31.2355 40.909 32.8853 40.2581 34.6124 39.7039C36.0946 39.2334 38.2793 38.9628 39.4392 37.8479C34.606 39.0723 29.6309 39.2592 24.6945 39.2592C20.5443 39.2592 15.943 39.343 11.8444 38.6856C10.6522 38.4923 9.56953 37.8801 8.32576 37.7641C5.03912 37.4612 3.4667 40.5094 6.49556 42.1205C8.17109 43.0098 9.96908 43.3707 11.8122 43.4287L11.8186 43.4223Z" fill="url(#paint2_linear_242_174980)"/>
<path style="mix-blend-mode:screen" opacity="0.75" d="M11.1165 52.0062C15.1313 52.1351 18.7337 51.7677 22.7164 51.1555C24.7077 50.8526 26.7956 50.4273 28.7741 49.9375C30.5334 49.4929 32.1832 48.842 33.9102 48.2878C35.3925 47.8109 37.5771 47.5467 38.7371 46.4318C33.9102 47.6562 28.9287 47.8431 23.9923 47.8431C19.8422 47.8431 15.2409 47.9269 11.1422 47.2696C9.94359 47.0762 8.86738 46.464 7.62361 46.348C4.33698 46.0451 2.76455 49.0933 5.79341 50.7044C7.46895 51.5938 9.26693 51.9546 11.11 52.0126L11.1165 52.0062Z" fill="url(#paint3_linear_242_174980)"/>
<path style="mix-blend-mode:screen" opacity="0.75" d="M11.1165 60.545C15.1313 60.6675 18.7337 60.3066 22.7164 59.6879C24.7077 59.3786 26.7956 58.9597 28.7741 58.4635C30.5334 58.0188 32.1832 57.3679 33.9102 56.8137C35.3925 56.3433 37.5771 56.0726 38.7371 54.9513C33.9102 56.1757 28.9287 56.3626 23.9923 56.3626C19.8422 56.3626 15.2409 56.4464 11.1422 55.7955C9.94359 55.6086 8.86738 54.99 7.62361 54.874C4.33698 54.5711 2.76455 57.6193 5.79341 59.2304C7.46895 60.1197 9.26693 60.4806 11.11 60.5386L11.1165 60.545Z" fill="url(#paint4_linear_242_174980)"/>
<path style="mix-blend-mode:screen" opacity="0.75" d="M11.1165 69.5156C15.1313 69.638 18.7337 69.2707 22.7164 68.6585C24.7077 68.3491 26.7956 67.9302 28.7741 67.434C30.5334 66.9894 32.1832 66.3385 33.9102 65.7843C35.3925 65.3138 37.5771 65.0432 38.7371 63.9283C33.9102 65.1527 28.9287 65.3396 23.9923 65.3396C19.8422 65.3396 15.2409 65.4234 11.1422 64.7725C9.94359 64.5792 8.86738 63.967 7.62361 63.851C4.33698 63.5481 2.76455 66.5963 5.79341 68.2074C7.46895 69.0967 9.26693 69.4576 11.11 69.5156H11.1165Z" fill="url(#paint5_linear_242_174980)"/>
<path style="mix-blend-mode:screen" opacity="0.75" d="M11.8186 78.3057C15.8335 78.4281 19.4359 78.0608 23.4185 77.4486C25.4034 77.1393 27.4978 76.7204 29.4762 76.2242C31.2355 75.7795 32.8853 75.1286 34.6124 74.5744C36.0946 74.104 38.2793 73.8333 39.4392 72.712C34.6124 73.9364 29.6309 74.1233 24.6945 74.1233C20.5443 74.1233 15.943 74.2071 11.8444 73.5562C10.6522 73.3693 9.56953 72.7506 8.32576 72.6346C5.03912 72.3318 3.4667 75.38 6.49556 76.991C8.17109 77.8804 9.96908 78.2413 11.8122 78.2993L11.8186 78.3057Z" fill="url(#paint6_linear_242_174980)"/>
<path style="mix-blend-mode:screen" opacity="0.75" d="M11.058 85.169C15.0664 85.4074 18.6753 85.3172 22.6708 85.0852C26.3828 84.8725 29.6694 84.0283 33.3169 83.3452C34.4383 83.1325 35.5982 82.9585 36.5133 82.2174C32.2858 82.7072 28.2903 83.2099 24.037 83.0487C19.8868 82.8876 15.2856 82.7588 11.2127 82.1852C10.0205 82.0176 8.95717 81.5859 7.71985 81.4634C4.43966 81.1412 2.79634 83.0101 5.78009 84.1443C7.43629 84.7758 9.22139 85.0723 11.058 85.1818V85.169Z" fill="url(#paint7_linear_242_174980)"/>
<path style="mix-blend-mode:screen" opacity="0.75" d="M23.0128 41.0121C23.7797 40.9218 29.3541 40.6125 29.2187 39.6716C28.3745 39.4396 27.3176 39.5814 26.4283 39.5814C25.0492 39.5814 23.6637 39.5814 22.2975 39.6394C21.6401 39.6716 17.3353 39.1238 18.0506 40.4449C18.6371 41.5276 21.9946 41.1281 23.0063 41.0121H23.0128Z" fill="url(#paint8_linear_242_174980)"/>
<path style="mix-blend-mode:screen" opacity="0.75" d="M21.5754 49.828C22.3423 49.7377 27.9167 49.4284 27.7813 48.4875C26.9371 48.2555 25.8802 48.4038 24.9909 48.4038C23.6118 48.4038 22.2263 48.4038 20.8601 48.4618C20.1963 48.494 15.8979 47.9462 16.6132 49.2673C17.1997 50.3435 20.5572 49.9504 21.5689 49.8344L21.5754 49.828Z" fill="url(#paint9_linear_242_174980)"/>
<path style="mix-blend-mode:screen" opacity="0.75" d="M20.88 58.457C21.6469 58.3668 27.2212 58.0575 27.0859 57.1166C26.2417 56.8781 25.1848 57.0264 24.2955 57.0264C22.9164 57.0264 21.5309 57.0264 20.1646 57.0844C19.5073 57.1166 15.2025 56.5688 15.9178 57.8899C16.5042 58.9726 19.8618 58.573 20.8735 58.457H20.88Z" fill="url(#paint10_linear_242_174980)"/>
<path style="mix-blend-mode:screen" opacity="0.75" d="M20.8736 67.3438C21.6405 67.2536 27.2149 66.9442 27.0796 66.0033C26.2354 65.7713 25.1785 65.9196 24.2956 65.9196C22.9165 65.9196 21.531 65.9196 20.1648 65.9776C19.501 66.0098 15.2026 65.462 15.9179 66.7831C16.5043 67.8658 19.8619 67.4662 20.8736 67.3502V67.3438Z" fill="url(#paint11_linear_242_174980)"/>
<path style="mix-blend-mode:screen" opacity="0.75" d="M20.8736 76.3595C21.6405 76.2693 27.2149 75.9599 27.0796 75.0191C26.2354 74.7806 25.1785 74.9288 24.2956 74.9288C22.9165 74.9288 21.531 74.9288 20.1648 74.9868C19.501 75.019 15.2026 74.4713 15.9179 75.7924C16.5043 76.875 19.8619 76.4755 20.8736 76.3595Z" fill="url(#paint12_linear_242_174980)"/>
<path style="mix-blend-mode:screen" opacity="0.75" d="M18.7405 85.285C19.3656 85.2141 23.8895 85.1497 23.8767 83.8994C23.2193 83.5386 22.3558 83.6674 21.6405 83.6159C20.532 83.5321 19.4171 83.4419 18.3087 83.4354C17.7738 83.4354 14.3647 82.4495 14.8094 84.2346C15.1703 85.691 17.9156 85.3752 18.7405 85.285Z" fill="url(#paint13_linear_242_174980)"/>
<path style="mix-blend-mode:screen" opacity="0.75" d="M22.9545 34.3808C23.7278 34.2261 29.3151 33.7428 29.2185 31.8868C28.3871 31.4035 27.3238 31.6741 26.4345 31.6483C25.0554 31.6161 23.6698 31.5775 22.3036 31.6677C21.6399 31.7128 17.3672 30.5399 18.0246 33.1563C18.5659 35.2894 21.9363 34.587 22.9545 34.3808Z" fill="url(#paint14_linear_242_174980)"/>
<path opacity="0.48" d="M43.7319 27.4595C40.3228 24.9655 33.7753 22.0398 32.7056 21.2729C31.6165 20.4867 30.8496 19.288 30.276 18.0571C30.0891 18.1022 29.8765 18.1538 29.6445 18.1989C29.6445 18.2182 29.6509 18.2311 29.6574 18.2505C29.8507 18.9787 30.1278 19.8293 30.4951 20.4867C31.1525 21.666 31.9129 22.4844 32.9633 23.3029C34.7678 24.7077 36.7397 25.6808 38.628 26.9053C39.7622 27.6399 41.0833 28.7484 41.9339 30.0372C42.3786 30.7075 42.6944 31.4292 42.7846 32.1768C42.965 33.6203 41.7341 34.4839 40.5484 34.9736C39.1242 35.5665 37.7515 36.2238 36.2178 36.5074C35.4702 36.6427 34.7098 36.7974 33.9687 36.9456C33.5562 37.0294 33.2018 37.1196 32.7765 37.1389C31.8098 37.1776 30.7916 37.3967 29.7991 37.4869C29.2449 37.5385 28.6907 37.5836 28.1429 37.6287C27.6983 37.6609 27.0281 37.8414 26.5898 37.7383C29.4834 38.4149 34.1813 37.938 36.6044 37.4741C37.0877 37.3838 37.5711 37.3065 38.0544 37.2227C39.5817 36.9649 41.1219 36.6943 42.5912 36.1916C43.8092 35.7727 45.575 35.1476 46.1743 33.8459C47.1796 31.6612 46.7736 29.6828 43.7383 27.4659L43.7319 27.4595Z" fill="#D66600"/>
<path opacity="0.48" d="M45.0011 40.5674C44.7755 41.0507 44.3953 41.5341 43.8282 42.0367C42.2622 43.4158 40.1549 44.3051 38.2087 44.9947C35.3925 45.9936 32.2476 46.5542 29.3799 46.8507C30.8621 47.276 32.7825 46.8313 34.2776 46.6638C37.2485 46.3351 40.2709 46.1805 43.0291 44.9754C45.1364 44.0538 48.2168 42.3847 48.1395 39.691C48.0879 37.8801 46.0966 36.6299 44.434 36.733C45.1944 38.241 45.5488 39.4139 45.0075 40.5738L45.0011 40.5674Z" fill="#D66600"/>
<path opacity="0.48" d="M44.9884 49.3318C44.7628 49.8151 44.3826 50.2984 43.8155 50.8011C42.2495 52.1802 40.1422 53.0695 38.196 53.7591C35.3798 54.7579 32.2349 55.3186 29.3672 55.615C30.8494 56.0404 32.7698 55.5957 34.2714 55.4282C37.2422 55.0995 40.2646 54.9448 43.0228 53.7397C45.1301 52.8182 48.2106 51.1491 48.1332 48.4553C48.0752 46.6445 46.0904 45.3878 44.4277 45.4974C45.1881 47.0054 45.5361 48.1782 45.0013 49.3382L44.9884 49.3318Z" fill="#D66600"/>
<path opacity="0.48" d="M44.9884 58.0123C44.7628 58.4957 44.3826 58.979 43.8155 59.4817C42.2495 60.8608 40.1422 61.7501 38.196 62.4396C35.3798 63.4385 32.2349 63.9992 29.3672 64.2956C30.8494 64.7209 32.7698 64.2763 34.2714 64.1087C37.2422 63.7801 40.2646 63.6318 43.0228 62.4203C45.1301 61.4988 48.2106 59.8297 48.1332 57.1359C48.0752 55.325 46.0904 54.0748 44.4277 54.1779C45.1881 55.6859 45.5361 56.8588 45.0013 58.0188L44.9884 58.0123Z" fill="#D66600"/>
<path opacity="0.48" d="M44.9884 66.8605C44.7628 67.3438 44.3826 67.8271 43.8155 68.3298C42.2495 69.7089 40.1422 70.5982 38.196 71.2878C35.3798 72.2867 32.2349 72.8473 29.3672 73.1438C30.8494 73.5691 32.7698 73.1244 34.2714 72.9569C37.2422 72.6282 40.2646 72.4735 43.0228 71.2684C45.1301 70.3469 48.2106 68.6778 48.1332 65.984C48.0752 64.1732 46.0904 62.923 44.4277 63.0261C45.1881 64.5341 45.5361 65.7069 45.0013 66.8669L44.9884 66.8605Z" fill="#D66600"/>
<path opacity="0.48" d="M45.0011 75.5733C44.7755 76.0566 44.3953 76.5399 43.8282 77.0426C42.2622 78.4217 40.1549 79.311 38.2087 80.0006C35.3925 80.9995 32.2476 81.5601 29.3799 81.8566C30.8621 82.2819 32.7825 81.8308 34.2776 81.6697C37.2485 81.341 40.2709 81.1863 43.0291 79.9812C45.1364 79.0597 48.2168 77.3906 48.1395 74.6969C48.0879 72.886 46.0966 71.6293 44.434 71.7389C45.1944 73.2469 45.5488 74.4197 45.0075 75.5797L45.0011 75.5733Z" fill="#D66600"/>
<path opacity="0.48" d="M44.9884 84.8467C44.7628 85.3623 44.3826 85.8714 43.8155 86.4063C42.2495 87.8756 40.1422 88.8165 38.196 89.5511C35.3798 90.6144 32.2349 91.2073 29.3672 91.5295C30.8494 91.9807 32.7698 91.5038 34.2714 91.3298C37.2422 90.9818 40.2646 90.8207 43.0228 89.5382C45.1301 88.5587 48.2106 86.7865 48.1332 83.9123C48.0752 81.9854 46.0904 80.6514 44.4277 80.761C45.1881 82.3656 45.5361 83.6158 45.0013 84.8467H44.9884Z" fill="#D66600"/>
<path d="M31.332 5.29083C31.332 6.21238 28.2967 6.95993 24.5461 6.95993C20.7955 6.95993 17.7666 6.21238 17.7666 5.29083V8.62902H17.7924C17.7924 9.55057 20.8277 10.2981 24.5719 10.2981C28.3161 10.2981 31.3578 9.55057 31.3578 8.62902V5.29083H31.332Z" fill="#E27B00"/>
<path d="M18.1662 5.85149C17.9148 5.6775 17.7666 5.49061 17.7666 5.29083V8.62902H17.7924C17.7924 8.80302 17.8955 8.96413 18.0888 9.1188C18.0566 8.02969 18.1597 6.94704 18.1662 5.85149Z" fill="#DB6309"/>
<path d="M31.3324 5.29083C31.3324 5.70327 30.7137 6.08349 29.6891 6.37993C29.7664 7.53348 29.8244 8.64836 29.6504 9.73101C30.7073 9.43457 31.3517 9.05435 31.3517 8.62902V5.29083H31.3259H31.3324Z" fill="#DB6309"/>
<path d="M31.3642 5.29086C31.3642 6.21241 28.3161 6.95996 24.5654 6.95996C20.8148 6.95996 17.7666 6.21241 17.7666 5.29086C17.7666 4.36931 20.8084 3.62177 24.5654 3.62177C28.3225 3.62177 31.3642 4.36931 31.3642 5.29086Z" fill="url(#paint15_linear_242_174980)"/>
<path d="M24.6428 6.5733C22.6579 6.49596 18.5979 6.48952 17.7924 5.17487C17.7795 5.21353 17.7666 5.2522 17.7666 5.29086C17.7666 6.21241 20.8084 6.95996 24.5654 6.95996C28.3225 6.95996 31.2611 6.23819 31.3578 5.33598C30.578 6.07063 27.3172 6.67641 24.6428 6.5733Z" fill="#FFF576"/>
<path d="M24.5719 9.87924C20.8277 9.87924 17.7924 9.13169 17.7924 8.21014H17.7666V8.62903H17.7924C17.7924 9.55058 20.8277 10.2981 24.5719 10.2981C28.3161 10.2981 31.3578 9.55058 31.3578 8.62903V8.21014C31.3578 9.13169 28.3225 9.87924 24.5719 9.87924Z" fill="#BF3C02"/>
<path d="M31.3457 8.58392C31.3457 9.50547 28.3104 10.253 24.5662 10.253C20.822 10.253 17.7803 9.50547 17.7803 8.58392V12.6374C17.7803 13.559 20.8414 14.3065 24.5855 14.3065C28.3297 14.3065 31.365 13.559 31.365 12.6374V8.58392H31.3457Z" fill="#FFA21A"/>
<g opacity="0.56">
<path d="M31.3453 8.58392C31.3453 9.22192 29.8824 9.77613 27.7365 10.0597C27.8331 10.6397 27.7622 11.2261 27.3627 11.8126C26.3767 13.2432 25.0556 13.733 23.3478 13.559C22.0332 13.4237 20.2674 13.1594 19.4619 11.9543C18.9656 11.2132 18.5919 10.3046 18.7208 9.42814C18.1214 9.17681 17.7734 8.89325 17.7734 8.58392V12.6374C17.7734 13.559 20.8345 14.3065 24.5787 14.3065C28.3229 14.3065 31.3582 13.559 31.3582 12.6374V8.58392H31.3389H31.3453Z" fill="#F27E00"/>
</g>
<path d="M31.3453 8.58392C31.3453 9.0157 30.6815 9.40236 29.5989 9.6988C29.6827 10.5688 29.6118 11.4388 29.2767 12.1541C28.5291 13.7394 26.7633 13.8748 25.178 13.9714C23.1545 14.1003 20.6605 14.1905 18.9399 12.9339C17.8959 12.1734 17.9732 10.3368 18.0505 9.05436C17.8765 8.90614 17.7734 8.75148 17.7734 8.59037V12.6439C17.7734 13.5654 20.8345 14.313 24.5787 14.313C28.3229 14.313 31.3582 13.5654 31.3582 12.6439V8.59037H31.3389L31.3453 8.58392Z" fill="#EA7B03"/>
<g opacity="0.67">
<path d="M31.107 9.01572C30.9201 9.18328 30.6237 9.34439 30.2434 9.48616C30.2177 11.0006 30.0114 12.4506 29.4766 13.7846C30.2048 13.5977 30.7654 13.3721 31.0812 13.1143C31.0554 11.7417 31.0425 10.369 31.1134 9.00928L31.107 9.01572Z" fill="#D86C00"/>
<path d="M18.1025 12.9403C17.8125 11.7223 17.8898 10.253 18.0187 9.00925C17.8705 8.87392 17.7803 8.73214 17.7803 8.58392V12.6374C17.7803 12.8372 17.9349 13.0305 18.2056 13.211C18.1734 13.1208 18.1283 13.0434 18.1089 12.9403H18.1025Z" fill="#D86C00"/>
</g>
<path d="M31.3641 9.10592V8.58392H31.3447C31.3447 9.50547 28.3094 10.253 24.5652 10.253C20.821 10.253 17.7793 9.50547 17.7793 8.58392V9.1317C20.0026 11.0263 28.9925 10.8975 31.3705 9.10592H31.3641Z" fill="#FFFDD9"/>
<path d="M18.05 9.05442C17.876 8.9062 17.7793 8.75154 17.7793 8.58398V9.13176C17.8566 9.1962 17.9469 9.26709 18.0435 9.32509V9.04798L18.05 9.05442Z" fill="#FFC043"/>
<path d="M31.3447 8.58396C31.3447 8.77729 31.2093 8.96418 30.9644 9.13173L30.8936 9.39595C31.074 9.30573 31.2287 9.20906 31.364 9.09951V8.57751H31.3447V8.58396Z" fill="#FFC043"/>
<path d="M24.4176 10.1757C24.5658 10.1693 24.7204 10.1693 24.8687 10.1757V7.55929C24.8687 7.3144 24.7462 7.11462 24.5916 7.11462C24.4369 7.11462 24.3145 7.3144 24.3145 7.55929V10.1757C24.3145 10.1757 24.3402 10.1757 24.3596 10.1757C24.3789 10.1757 24.3982 10.1757 24.4176 10.1757Z" fill="#FC8900"/>
<path d="M24.6172 7.12103C24.6172 7.12103 24.6494 7.1597 24.6559 7.19192C24.7976 7.79125 24.7074 9.77612 24.701 10.137C24.7654 10.137 24.7912 10.1757 24.8621 10.1757V7.55925C24.8621 7.32725 24.7525 7.14681 24.6172 7.12103Z" fill="#BF3C02"/>
<path d="M24.418 10.1757C24.4502 9.82124 24.418 8.2037 24.4566 7.44971C24.4631 7.26282 24.5597 7.12749 24.5984 7.10815C24.4502 7.10815 24.3213 7.30793 24.3213 7.55282V10.1692C24.3213 10.1692 24.4051 10.1692 24.4244 10.1692L24.418 10.1757Z" fill="#FFD506"/>
<path d="M25.4865 10.1242C25.6347 10.1113 25.7894 10.1177 25.9312 10.1242V7.50777C25.9312 7.26289 25.8087 7.06311 25.6541 7.06311C25.4994 7.06311 25.377 7.26289 25.377 7.50777V10.1242C25.377 10.1242 25.4027 10.1177 25.4221 10.1242C25.4414 10.1242 25.4607 10.1242 25.4801 10.1242H25.4865Z" fill="#FC8900"/>
<path d="M25.6865 7.06952C25.6865 7.06952 25.7187 7.11463 25.7252 7.14041C25.867 7.73973 25.7832 9.7246 25.7703 10.0855C25.8347 10.0855 25.8605 10.1242 25.9314 10.1242V7.50774C25.9314 7.27574 25.8219 7.0953 25.6865 7.06952Z" fill="#BF3C02"/>
<path d="M25.4869 10.1242C25.5191 9.76973 25.4869 8.15219 25.5256 7.39819C25.532 7.21131 25.6287 7.07597 25.6609 7.05664C25.5127 7.05664 25.3838 7.25642 25.3838 7.5013V10.1177C25.3838 10.1177 25.4676 10.1177 25.4869 10.1177V10.1242Z" fill="#FFD506"/>
<path d="M23.3346 10.1757C23.4828 10.1693 23.631 10.1693 23.7857 10.1757V7.55929C23.7857 7.3144 23.6632 7.11462 23.5086 7.11462C23.3539 7.11462 23.2314 7.3144 23.2314 7.55929V10.1757C23.2314 10.1757 23.2572 10.1757 23.2701 10.1757C23.2894 10.1757 23.3088 10.1757 23.3281 10.1757H23.3346Z" fill="#FC8900"/>
<path d="M23.541 7.12103C23.541 7.12103 23.5732 7.1597 23.5797 7.19192C23.7215 7.79125 23.6377 9.77612 23.6248 10.137C23.6892 10.137 23.715 10.1757 23.7859 10.1757V7.55925C23.7859 7.32725 23.6763 7.14681 23.541 7.12103Z" fill="#BF3C02"/>
<path d="M23.3349 10.1757C23.3672 9.82124 23.3349 8.2037 23.3736 7.44971C23.3801 7.26282 23.4767 7.12749 23.5154 7.10815C23.3607 7.10815 23.2383 7.30793 23.2383 7.55282V10.1692C23.2383 10.1692 23.3221 10.1692 23.3414 10.1692L23.3349 10.1757Z" fill="#FFD506"/>
<path d="M26.5699 10.1242C26.7181 10.1177 26.8663 10.1177 27.021 10.1242V7.50777C27.021 7.26289 26.8986 7.06311 26.7439 7.06311C26.5892 7.06311 26.4668 7.26289 26.4668 7.50777V10.1242C26.4668 10.1242 26.4926 10.1242 26.5119 10.1242C26.5312 10.1242 26.5506 10.1242 26.5699 10.1242Z" fill="#FC8900"/>
<path d="M26.7764 7.06952C26.7764 7.06952 26.8086 7.11463 26.815 7.14041C26.9568 7.73973 26.873 9.7246 26.8666 10.0855C26.931 10.0855 26.9568 10.1242 27.0277 10.1242V7.50774C27.0277 7.27574 26.9181 7.0953 26.7828 7.06952H26.7764Z" fill="#BF3C02"/>
<path d="M26.5703 10.1242C26.6025 9.76973 26.5703 8.14574 26.609 7.39819C26.6154 7.21131 26.7121 7.07597 26.7507 7.05664C26.5961 7.05664 26.4736 7.25642 26.4736 7.5013V10.1177C26.4736 10.1177 26.5574 10.1177 26.5767 10.1177L26.5703 10.1242Z" fill="#FFD506"/>
<path d="M27.6197 9.95659C27.7679 9.95015 27.9226 9.95015 28.0708 9.95659V7.34017C28.0708 7.09528 27.9484 6.89551 27.7937 6.89551C27.639 6.89551 27.5166 7.09528 27.5166 7.34017V9.95659C27.5166 9.95659 27.5424 9.95015 27.5553 9.95659C27.5746 9.95659 27.5939 9.95659 27.6133 9.95659H27.6197Z" fill="#FC8900"/>
<path d="M27.8262 6.90192C27.8262 6.90192 27.8584 6.94703 27.8648 6.9728C28.0066 7.57213 27.9228 9.557 27.9164 9.91789C27.9808 9.91789 28.0066 9.95655 28.0775 9.95655V7.34013C28.0775 7.10814 27.9679 6.92769 27.8326 6.90192H27.8262Z" fill="#BF3C02"/>
<path d="M27.6201 9.95656C27.6523 9.60212 27.6201 7.98458 27.6588 7.23059C27.6652 7.0437 27.7619 6.90837 27.8005 6.88904C27.6459 6.88904 27.5234 7.08881 27.5234 7.3337V9.95012C27.5234 9.95012 27.6072 9.95012 27.6265 9.95012L27.6201 9.95656Z" fill="#FFD506"/>
<path d="M28.6314 9.81487C28.7797 9.80842 28.9279 9.80842 29.0825 9.81487V7.19845C29.0825 6.95356 28.9601 6.75378 28.8054 6.75378C28.6508 6.75378 28.5283 6.95356 28.5283 7.19845V9.81487C28.5283 9.81487 28.5541 9.81487 28.567 9.81487C28.5863 9.81487 28.6057 9.81487 28.625 9.82131L28.6314 9.81487Z" fill="#FC8900"/>
<path d="M28.8379 6.75378C28.8379 6.75378 28.8701 6.7989 28.8766 6.82467C29.0183 7.424 28.9281 9.40887 28.9217 9.76976C28.9861 9.76976 29.0119 9.80198 29.0828 9.80842V7.192C29.0828 6.96 28.9732 6.77956 28.8379 6.75378Z" fill="#BF3C02"/>
<path d="M28.6314 9.81484C28.6637 9.4604 28.6314 7.83641 28.6701 7.08887C28.6765 6.90198 28.7732 6.76665 28.8054 6.74731C28.6572 6.74731 28.5283 6.94709 28.5283 7.19198V9.8084C28.5283 9.8084 28.6121 9.8084 28.6314 9.8084V9.81484Z" fill="#FFD506"/>
<path d="M29.4951 9.64726C29.6304 9.64082 29.7658 9.64082 29.9011 9.64726V7.03084C29.9011 6.78596 29.7915 6.58618 29.6498 6.58618C29.508 6.58618 29.3984 6.78596 29.3984 7.03084V9.64726C29.3984 9.64726 29.4242 9.64082 29.4371 9.64726C29.4564 9.64726 29.4693 9.64726 29.4887 9.64726H29.4951Z" fill="#FC8900"/>
<path d="M29.6822 6.58618C29.6822 6.58618 29.708 6.63129 29.7144 6.65707C29.8433 7.2564 29.766 9.24127 29.7596 9.60215C29.8176 9.60215 29.8433 9.63437 29.9013 9.64082V7.0244C29.9013 6.7924 29.8047 6.61196 29.6758 6.58618H29.6822Z" fill="#AA370B"/>
<path d="M29.4955 9.64724C29.5213 9.2928 29.4955 7.67526 29.5277 6.92126C29.5342 6.73438 29.6179 6.59905 29.6566 6.57971C29.5148 6.57971 29.4053 6.77949 29.4053 7.02437V9.64079C29.4053 9.64079 29.4826 9.64079 29.4955 9.64079V9.64724Z" fill="#FFD506"/>
<path d="M30.2945 9.32506C30.3976 9.31861 30.5072 9.31861 30.6103 9.32506V6.70864C30.6103 6.46375 30.5265 6.26398 30.417 6.26398C30.3074 6.26398 30.2236 6.46375 30.2236 6.70864V9.32506C30.2236 9.32506 30.243 9.32506 30.2559 9.32506C30.2687 9.32506 30.2816 9.32506 30.301 9.3315L30.2945 9.32506Z" fill="#FC8900"/>
<path d="M30.4361 6.27039C30.4361 6.27039 30.4555 6.30905 30.4619 6.34127C30.5586 6.9406 30.5006 8.92547 30.4941 9.28636C30.5392 9.28636 30.5586 9.31858 30.6037 9.32502V6.7086C30.6037 6.47661 30.5264 6.29616 30.4297 6.27039H30.4361Z" fill="#AA370B"/>
<path d="M30.2945 9.32503C30.3139 8.97059 30.2945 7.35305 30.3203 6.59906C30.3267 6.41217 30.3912 6.27684 30.417 6.25751C30.3074 6.25751 30.2236 6.45728 30.2236 6.70217V9.31859C30.2236 9.31859 30.2816 9.31859 30.2945 9.31859V9.32503Z" fill="#FFD506"/>
<path d="M30.9195 9.04146C30.9195 9.04146 30.9517 9.04146 30.9646 9.04146C31.0484 8.95769 31.1322 8.8868 31.2353 8.82235V6.4186C31.2353 6.17371 31.1515 5.97394 31.042 5.97394C30.9324 5.97394 30.8486 6.17371 30.8486 6.4186V9.03502C30.8486 9.03502 30.868 9.03502 30.8809 9.03502C30.8937 9.03502 30.9066 9.03502 30.926 9.03502L30.9195 9.04146Z" fill="#FC8900"/>
<path d="M31.126 8.89968C31.1582 8.8739 31.1969 8.84812 31.2355 8.82879V6.42503C31.2355 6.19304 31.1582 6.01259 31.0615 5.98682C31.0744 6.01259 31.0873 6.02548 31.0873 6.0577C31.1775 6.61837 31.1324 8.37768 31.126 8.89968Z" fill="#AA370B"/>
<path d="M30.9195 9.04149C30.9389 8.68705 30.9195 7.06951 30.9453 6.32196C30.9517 6.13507 31.0162 5.99974 31.042 5.98041C30.9324 5.98041 30.8486 6.18018 30.8486 6.42507V9.04149C30.8486 9.04149 30.9066 9.04149 30.9195 9.04149Z" fill="#FFD506"/>
<path d="M19.5839 9.64726C19.5839 9.64726 19.6419 9.64726 19.6677 9.64726V7.03084C19.6677 6.78596 19.5581 6.58618 19.4164 6.58618C19.2746 6.58618 19.165 6.78596 19.165 7.03084V9.38949C19.3004 9.4926 19.4357 9.56993 19.5839 9.64726Z" fill="#FC8900"/>
<path d="M19.4424 6.59265C19.4424 6.59265 19.4746 6.63776 19.481 6.66354C19.6099 7.26287 19.5326 9.24774 19.5262 9.60862C19.5842 9.60862 19.6099 9.64729 19.6679 9.64729V7.03087C19.6679 6.79887 19.5713 6.61843 19.4424 6.59265Z" fill="#AA370B"/>
<path d="M19.2685 9.45393C19.2814 8.89327 19.2685 7.57862 19.2943 6.92773C19.3008 6.74085 19.3845 6.60551 19.4232 6.58618C19.2879 6.58618 19.1719 6.78596 19.1719 7.03084V9.38949C19.2041 9.41527 19.2363 9.42815 19.2685 9.45393Z" fill="#FFD506"/>
<path d="M18.7335 9.37016C18.7335 9.37016 18.7915 9.37016 18.8173 9.37016V6.75374C18.8173 6.50886 18.7335 6.30908 18.624 6.30908C18.5144 6.30908 18.4307 6.50886 18.4307 6.75374V9.17683C18.5467 9.22839 18.6498 9.29283 18.7335 9.37016Z" fill="#FC8900"/>
<path d="M18.6432 6.31555C18.6432 6.31555 18.6625 6.36066 18.6689 6.38644C18.7656 6.98577 18.7076 8.97064 18.7012 9.33152C18.7463 9.33152 18.7656 9.36374 18.8107 9.37019V6.75377C18.8107 6.52822 18.7334 6.34133 18.6367 6.31555H18.6432Z" fill="#AA370B"/>
<path d="M18.508 9.2155C18.5209 8.68061 18.508 7.32085 18.5273 6.65063C18.5273 6.46375 18.5982 6.32842 18.624 6.30908C18.5144 6.30908 18.4307 6.50886 18.4307 6.75374V9.17683C18.4307 9.17683 18.4822 9.20261 18.508 9.2155Z" fill="#FFD506"/>
<path d="M17.9402 8.83527C18.0111 8.90616 18.1013 8.96416 18.1916 9.0286C18.2109 9.01571 18.2238 8.99638 18.2431 8.98993V6.45085C18.2431 6.19307 18.1593 5.98041 18.0498 5.98041C17.9402 5.98041 17.8564 6.19307 17.8564 6.45085V8.78371C17.8564 8.78371 17.9144 8.81594 17.9402 8.84171V8.83527Z" fill="#FC8900"/>
<path d="M18.1334 8.98345C18.1334 8.98345 18.1656 9.00923 18.1849 9.02212C18.2043 9.00923 18.2236 8.99634 18.2365 8.98345V6.44437C18.2365 6.19948 18.1592 6.01259 18.0625 5.98682C18.0689 6.01259 18.0883 6.03193 18.0883 6.0577C18.1785 6.63125 18.1398 8.36479 18.1269 8.98345H18.1334Z" fill="#AA370B"/>
<path d="M17.9338 8.8288C17.9338 8.17147 17.9338 6.96637 17.9531 6.33482C17.9531 6.13505 18.024 5.99327 18.0498 5.97394C17.9402 5.97394 17.8564 6.1866 17.8564 6.44438V8.77724C17.8564 8.77724 17.908 8.80302 17.9338 8.8288Z" fill="#FFD506"/>
<path d="M22.2584 10.1177C22.4066 10.1113 22.5613 10.1113 22.7095 10.1177V7.5013C22.7095 7.25642 22.587 7.05664 22.4324 7.05664C22.2777 7.05664 22.1553 7.25642 22.1553 7.5013V10.1177C22.1553 10.1177 22.1811 10.1177 22.1939 10.1177C22.2133 10.1177 22.2326 10.1177 22.2519 10.1177H22.2584Z" fill="#FC8900"/>
<path d="M22.4648 7.06311C22.4648 7.06311 22.4971 7.10178 22.5035 7.134C22.6453 7.73333 22.5615 9.7182 22.5551 10.0791C22.6195 10.0791 22.6453 10.1177 22.7097 10.1177V7.50133C22.7097 7.26933 22.6002 7.08889 22.4648 7.06311Z" fill="#BF3C02"/>
<path d="M22.2588 10.1177C22.291 9.76328 22.2588 8.14574 22.2974 7.39819C22.3039 7.21131 22.4005 7.07597 22.4392 7.05664C22.2846 7.05664 22.1621 7.25642 22.1621 7.5013V10.1177C22.1621 10.1177 22.2459 10.1177 22.2588 10.1177Z" fill="#FFD506"/>
<path d="M21.1822 10.0275C21.3304 10.0211 21.4851 10.0211 21.6333 10.0275V7.41109C21.6333 7.16621 21.5109 6.96643 21.3562 6.96643C21.2015 6.96643 21.0791 7.16621 21.0791 7.41109V10.0275C21.0791 10.0275 21.1049 10.0211 21.1178 10.0211C21.1371 10.0211 21.1564 10.0211 21.1758 10.0275H21.1822Z" fill="#FC8900"/>
<path d="M21.3824 6.97284C21.3824 6.97284 21.4146 7.01795 21.4211 7.04373C21.5629 7.64306 21.4726 9.62792 21.4662 9.98881C21.5306 9.98881 21.5564 10.0275 21.6209 10.0275V7.41106C21.6209 7.17906 21.5113 6.99862 21.376 6.97284H21.3824Z" fill="#BF3C02"/>
<path d="M21.1822 10.0275C21.2144 9.67305 21.1822 8.04906 21.2209 7.30151C21.2273 7.11463 21.324 6.97929 21.3562 6.95996C21.2015 6.95996 21.0791 7.15974 21.0791 7.40462V10.021H21.1822V10.0275Z" fill="#FFD506"/>
<path d="M20.1441 9.87926C20.2923 9.87281 20.4406 9.87281 20.5952 9.87926V7.26284C20.5952 7.01795 20.4728 6.81818 20.3181 6.81818C20.1635 6.81818 20.041 7.01795 20.041 7.26284V9.87926C20.041 9.87926 20.0668 9.87926 20.0797 9.87926C20.099 9.87926 20.1183 9.87926 20.1377 9.87926H20.1441Z" fill="#FC8900"/>
<path d="M20.3438 6.82465C20.3438 6.82465 20.376 6.86331 20.3824 6.89553C20.5242 7.49486 20.4404 9.47973 20.434 9.84062C20.4984 9.84062 20.5242 9.87928 20.5886 9.87928V7.26286C20.5886 7.03087 20.4791 6.85042 20.3438 6.82465Z" fill="#BF3C02"/>
<path d="M20.1441 9.87926C20.1763 9.52482 20.1441 7.90728 20.1828 7.15973C20.1957 6.97284 20.2859 6.83751 20.3181 6.81818C20.1699 6.81818 20.041 7.01795 20.041 7.26284V9.87926C20.041 9.87926 20.1248 9.87926 20.1441 9.87926Z" fill="#FFD506"/>
<path d="M24.5719 10.0146C20.8277 10.0146 17.7924 9.26707 17.7924 8.34552H17.7666V8.62907H17.7924C17.7924 9.55062 20.8277 10.2982 24.5719 10.2982C28.3161 10.2982 31.3578 9.55062 31.3578 8.62907V8.34552C31.3578 9.26707 28.3225 10.0146 24.5719 10.0146Z" fill="#FFD506"/>
<path d="M17.5547 17.4579C17.5547 17.4579 18.2507 18.5921 24.2568 18.5856C29.8377 18.5856 31.5583 17.7479 31.5132 17.4128C31.5132 17.4128 31.0686 16.8392 24.3213 16.865C22.446 16.865 17.8382 16.9423 17.5547 17.4579Z" fill="url(#paint16_linear_242_174980)"/>
<path d="M17.5543 17.4578C17.5543 17.4578 17.5543 17.4643 17.5672 17.4772C17.5672 17.4643 17.5801 17.445 17.5801 17.4321C17.5736 17.4385 17.5543 17.4514 17.5479 17.4578H17.5543Z" fill="url(#paint17_linear_242_174980)"/>
<path opacity="0.27" d="M18.4118 17.6512C21.1635 17.0067 23.9604 17.1549 26.7702 17.3612C28.0333 17.4514 29.2641 17.5932 30.3661 18.0378C31.2103 17.8123 31.5326 17.5674 31.5132 17.4192C31.5132 17.4192 31.0686 16.8456 24.3213 16.8714C22.446 16.8714 17.8382 16.9487 17.5547 17.4643C17.5547 17.4643 17.6514 17.6189 18.0638 17.8058C18.1605 17.7414 18.2765 17.6898 18.4118 17.6576V17.6512Z" fill="#E27E05"/>
</g>
<defs>
<linearGradient id="paint0_linear_242_174980" x1="0.360641" y1="54.6935" x2="50.2853" y2="54.6935" gradientUnits="userSpaceOnUse">
<stop stop-color="#F7CF28"/>
<stop offset="0.19" stop-color="#FFF576"/>
<stop offset="0.39" stop-color="#F7E248"/>
<stop offset="0.88" stop-color="#F7B10F"/>
<stop offset="0.92" stop-color="#F7B411"/>
<stop offset="0.95" stop-color="#F7BD19"/>
<stop offset="0.97" stop-color="#F7CD26"/>
<stop offset="1" stop-color="#F7EA3E"/>
</linearGradient>
<linearGradient id="paint1_linear_242_174980" x1="8.59194" y1="33.7544" x2="24.98" y2="17.2965" gradientUnits="userSpaceOnUse">
<stop offset="0.27" stop-color="#E7FF83"/>
<stop offset="0.34" stop-color="#E1F97F"/>
<stop offset="0.43" stop-color="#D2E877"/>
<stop offset="0.53" stop-color="#B9CD69"/>
<stop offset="0.64" stop-color="#97A655"/>
<stop offset="0.76" stop-color="#6A753C"/>
<stop offset="0.89" stop-color="#353A1E"/>
<stop offset="1"/>
</linearGradient>
<linearGradient id="paint2_linear_242_174980" x1="4.88446" y1="40.5932" x2="39.4392" y2="40.5932" gradientUnits="userSpaceOnUse">
<stop stop-color="#E7FF83"/>
<stop offset="0.09" stop-color="#E1F97F"/>
<stop offset="0.22" stop-color="#D2E877"/>
<stop offset="0.36" stop-color="#B9CD69"/>
<stop offset="0.51" stop-color="#97A655"/>
<stop offset="0.68" stop-color="#6A753C"/>
<stop offset="0.85" stop-color="#353A1E"/>
<stop offset="1"/>
</linearGradient>
<linearGradient id="paint3_linear_242_174980" x1="4.18231" y1="49.1771" x2="38.7435" y2="49.1771" gradientUnits="userSpaceOnUse">
<stop stop-color="#E7FF83"/>
<stop offset="0.09" stop-color="#E1F97F"/>
<stop offset="0.22" stop-color="#D2E877"/>
<stop offset="0.36" stop-color="#B9CD69"/>
<stop offset="0.51" stop-color="#97A655"/>
<stop offset="0.68" stop-color="#6A753C"/>
<stop offset="0.85" stop-color="#353A1E"/>
<stop offset="1"/>
</linearGradient>
<linearGradient id="paint4_linear_242_174980" x1="4.18592" y1="57.7217" x2="38.7471" y2="57.7157" gradientUnits="userSpaceOnUse">
<stop stop-color="#E7FF83"/>
<stop offset="0.09" stop-color="#E1F97F"/>
<stop offset="0.22" stop-color="#D2E877"/>
<stop offset="0.36" stop-color="#B9CD69"/>
<stop offset="0.51" stop-color="#97A655"/>
<stop offset="0.68" stop-color="#6A753C"/>
<stop offset="0.85" stop-color="#353A1E"/>
<stop offset="1"/>
</linearGradient>
<linearGradient id="paint5_linear_242_174980" x1="4.18749" y1="66.6923" x2="38.7423" y2="66.6862" gradientUnits="userSpaceOnUse">
<stop stop-color="#E7FF83"/>
<stop offset="0.09" stop-color="#E1F97F"/>
<stop offset="0.22" stop-color="#D2E877"/>
<stop offset="0.36" stop-color="#B9CD69"/>
<stop offset="0.51" stop-color="#97A655"/>
<stop offset="0.68" stop-color="#6A753C"/>
<stop offset="0.85" stop-color="#353A1E"/>
<stop offset="1"/>
</linearGradient>
<linearGradient id="paint6_linear_242_174980" x1="4.88473" y1="75.4823" x2="39.4395" y2="75.4762" gradientUnits="userSpaceOnUse">
<stop stop-color="#E7FF83"/>
<stop offset="0.09" stop-color="#E1F97F"/>
<stop offset="0.22" stop-color="#D2E877"/>
<stop offset="0.36" stop-color="#B9CD69"/>
<stop offset="0.51" stop-color="#97A655"/>
<stop offset="0.68" stop-color="#6A753C"/>
<stop offset="0.85" stop-color="#353A1E"/>
<stop offset="1"/>
</linearGradient>
<linearGradient id="paint7_linear_242_174980" x1="4.2443" y1="81.7793" x2="36.4736" y2="83.0456" gradientUnits="userSpaceOnUse">
<stop stop-color="#E7FF83"/>
<stop offset="0.09" stop-color="#E1F97F"/>
<stop offset="0.22" stop-color="#D2E877"/>
<stop offset="0.36" stop-color="#B9CD69"/>
<stop offset="0.51" stop-color="#97A655"/>
<stop offset="0.68" stop-color="#6A753C"/>
<stop offset="0.85" stop-color="#353A1E"/>
<stop offset="1"/>
</linearGradient>
<linearGradient id="paint8_linear_242_174980" x1="17.9733" y1="40.3612" x2="29.2187" y2="40.3612" gradientUnits="userSpaceOnUse">
<stop stop-color="#E7FF83"/>
<stop offset="0.09" stop-color="#E1F97F"/>
<stop offset="0.22" stop-color="#D2E877"/>
<stop offset="0.36" stop-color="#B9CD69"/>
<stop offset="0.51" stop-color="#97A655"/>
<stop offset="0.68" stop-color="#6A753C"/>
<stop offset="0.85" stop-color="#353A1E"/>
<stop offset="1"/>
</linearGradient>
<linearGradient id="paint9_linear_242_174980" x1="16.5359" y1="49.1771" x2="27.7813" y2="49.1771" gradientUnits="userSpaceOnUse">
<stop stop-color="#E7FF83"/>
<stop offset="0.09" stop-color="#E1F97F"/>
<stop offset="0.22" stop-color="#D2E877"/>
<stop offset="0.36" stop-color="#B9CD69"/>
<stop offset="0.51" stop-color="#97A655"/>
<stop offset="0.68" stop-color="#6A753C"/>
<stop offset="0.85" stop-color="#353A1E"/>
<stop offset="1"/>
</linearGradient>
<linearGradient id="paint10_linear_242_174980" x1="15.8405" y1="57.8061" x2="27.0859" y2="57.8061" gradientUnits="userSpaceOnUse">
<stop stop-color="#E7FF83"/>
<stop offset="0.09" stop-color="#E1F97F"/>
<stop offset="0.22" stop-color="#D2E877"/>
<stop offset="0.36" stop-color="#B9CD69"/>
<stop offset="0.51" stop-color="#97A655"/>
<stop offset="0.68" stop-color="#6A753C"/>
<stop offset="0.85" stop-color="#353A1E"/>
<stop offset="1"/>
</linearGradient>
<linearGradient id="paint11_linear_242_174980" x1="15.8406" y1="66.6865" x2="27.086" y2="66.6865" gradientUnits="userSpaceOnUse">
<stop stop-color="#E7FF83"/>
<stop offset="0.09" stop-color="#E1F97F"/>
<stop offset="0.22" stop-color="#D2E877"/>
<stop offset="0.36" stop-color="#B9CD69"/>
<stop offset="0.51" stop-color="#97A655"/>
<stop offset="0.68" stop-color="#6A753C"/>
<stop offset="0.85" stop-color="#353A1E"/>
<stop offset="1"/>
</linearGradient>
<linearGradient id="paint12_linear_242_174980" x1="15.8406" y1="75.7086" x2="27.086" y2="75.7086" gradientUnits="userSpaceOnUse">
<stop stop-color="#E7FF83"/>
<stop offset="0.09" stop-color="#E1F97F"/>
<stop offset="0.22" stop-color="#D2E877"/>
<stop offset="0.36" stop-color="#B9CD69"/>
<stop offset="0.51" stop-color="#97A655"/>
<stop offset="0.68" stop-color="#6A753C"/>
<stop offset="0.85" stop-color="#353A1E"/>
<stop offset="1"/>
</linearGradient>
<linearGradient id="paint13_linear_242_174980" x1="14.7531" y1="84.1075" x2="23.8131" y2="84.8015" gradientUnits="userSpaceOnUse">
<stop stop-color="#E7FF83"/>
<stop offset="0.09" stop-color="#E1F97F"/>
<stop offset="0.22" stop-color="#D2E877"/>
<stop offset="0.36" stop-color="#B9CD69"/>
<stop offset="0.51" stop-color="#97A655"/>
<stop offset="0.68" stop-color="#6A753C"/>
<stop offset="0.85" stop-color="#353A1E"/>
<stop offset="1"/>
</linearGradient>
<linearGradient id="paint14_linear_242_174980" x1="17.9925" y1="34.7541" x2="29.235" y2="35.0112" gradientUnits="userSpaceOnUse">
<stop stop-color="#E7FF83"/>
<stop offset="0.09" stop-color="#E1F97F"/>
<stop offset="0.22" stop-color="#D2E877"/>
<stop offset="0.36" stop-color="#B9CD69"/>
<stop offset="0.51" stop-color="#97A655"/>
<stop offset="0.68" stop-color="#6A753C"/>
<stop offset="0.85" stop-color="#353A1E"/>
<stop offset="1"/>
</linearGradient>
<linearGradient id="paint15_linear_242_174980" x1="24.5654" y1="6.95996" x2="24.5654" y2="3.62177" gradientUnits="userSpaceOnUse">
<stop stop-color="#FFDC4A"/>
<stop offset="0.75" stop-color="#FF8B00"/>
</linearGradient>
<linearGradient id="paint16_linear_242_174980" x1="24.534" y1="18.5856" x2="24.534" y2="16.865" gradientUnits="userSpaceOnUse">
<stop stop-color="#FFFB83"/>
<stop offset="0.9" stop-color="#FFBD30"/>
<stop offset="1" stop-color="#FFB727"/>
</linearGradient>
<linearGradient id="paint17_linear_242_174980" x1="17.5736" y1="17.4772" x2="17.5736" y2="17.4256" gradientUnits="userSpaceOnUse">
<stop stop-color="#FFFB83"/>
<stop offset="0.9" stop-color="#FFBD30"/>
<stop offset="1" stop-color="#FFB727"/>
</linearGradient>
<clipPath id="clip0_242_174980">
<rect width="48.3844" height="92" fill="white" transform="translate(0.360352)"/>
</clipPath>
</defs>
</svg>
