<svg width="133" height="92" viewBox="0 0 133 92" fill="none" xmlns="http://www.w3.org/2000/svg">
<g clip-path="url(#clip0_236_173515)">
<path d="M109.312 48.3774C99.1692 67.8534 66.61 68.8147 34.9395 60.107C11.6465 53.7036 6.31912 43.187 1.84411 39.6908C0.537437 38.6687 -0.0187192 37.143 0.121784 35.683C0.135834 35.546 0.154567 35.4102 0.180326 35.2732C0.234186 34.984 0.316146 34.6995 0.425035 34.4243C0.806734 33.4619 1.52564 32.6142 2.55951 32.0779C5.27706 30.6729 14.028 21.7943 17.4856 19.058C36.4288 4.05701 102.662 -16.8428 111.255 23.0108C111.605 24.6289 111.879 26.1955 112.081 27.7083C112.17 28.3769 112.248 29.0349 112.31 29.6824C112.396 30.5827 112.456 31.4632 112.49 32.325C112.499 32.5451 112.506 32.7629 112.512 32.9795C112.662 39.0457 111.516 44.1483 109.313 48.3786L109.312 48.3774Z" fill="#B57051"/>
<g opacity="0.8">
<path d="M46.7134 33.0158C45.3271 32.949 43.9408 32.8811 42.5545 32.8144C41.2583 32.7512 39.9564 32.6891 38.6672 32.8273C38.0689 32.8917 37.4578 32.9982 36.8712 32.8636C36.0199 32.668 35.2179 31.9749 34.3796 32.2243C34.1032 32.3062 33.8667 32.4854 33.5986 32.5919C33.2321 32.7371 32.8258 32.7371 32.4313 32.7371C31.4946 32.7348 30.4876 32.709 29.736 32.1505C29.4901 31.9679 29.2746 31.7302 28.9854 31.6318C27.8474 31.2454 26.9739 33.209 25.7995 32.9525C25.4904 32.8846 25.2399 32.6692 25.0022 32.4608C24.2622 31.8098 23.5234 31.16 22.7834 30.509C22.2905 31.7395 21.7519 32.9514 21.17 34.1421C20.8246 33.8927 20.4792 33.6434 20.1338 33.3928C19.6865 34.2452 18.7311 34.6796 17.8436 35.0542C17.7171 35.1069 17.5836 35.162 17.4478 35.1432C17.2687 35.1186 17.1329 34.9758 17.0134 34.8411C16.5509 34.3236 16.0885 33.8061 15.626 33.2886C14.5394 34.7369 12.8101 35.683 11.0046 35.8188C9.89229 35.9019 8.74485 35.697 7.6782 36.0225C7.12907 36.1993 7.17708 36.6009 7.25201 36.8117C7.32695 37.0224 7.54239 37.1477 7.74963 37.2332C8.45565 37.5259 9.2612 37.5739 9.9965 37.3667C10.2143 37.3046 10.4414 37.2215 10.6615 37.2765C10.87 37.328 11.0269 37.4943 11.2048 37.6137C11.7762 37.9978 12.5443 37.8912 13.1941 37.6641C13.8439 37.4358 14.4727 37.0985 15.16 37.0564C16.3753 36.9815 17.4572 37.8374 18.6632 38.0036C19.7649 38.1558 21.0236 37.7542 21.9193 38.4158C22.2881 38.6886 22.5235 39.1007 22.8267 39.4438C23.13 39.7868 23.5726 40.0807 24.021 39.9835C24.4343 39.8934 24.7048 39.5093 24.9343 39.1557C25.8827 40.6427 27.0687 41.9775 28.434 43.0933C28.5546 43.1917 28.7021 43.2935 28.852 43.2537C29.0124 43.2116 29.0861 43.0313 29.1377 42.8744C29.8367 40.7493 30.5146 38.6171 31.1703 36.4768C31.34 35.9242 31.6035 35.2814 32.1702 35.1725C32.4477 35.1186 32.7287 35.2146 33.0073 35.2545C34.088 35.409 35.1032 34.7358 36.1815 34.5683C36.733 34.4829 37.2962 34.5309 37.8535 34.566C39.3581 34.6585 40.8673 34.6468 42.373 34.5707C43.9267 34.4911 45.4758 34.3424 47.0154 34.1257C47.2765 34.0894 47.5821 34.0169 47.6805 33.7721C47.8608 33.3237 47.1934 33.0404 46.7122 33.0169L46.7134 33.0158Z" fill="#3F2721"/>
</g>
<g opacity="0.8">
<path d="M85.9464 45.4339C84.9172 45.4819 83.7721 45.4936 83.0017 44.8098C82.86 44.6845 82.7125 44.5288 82.5228 44.5347C82.3671 44.5405 82.2394 44.6576 82.1317 44.77C81.661 45.2606 81.2407 45.8086 80.6951 46.2148C80.1495 46.6211 79.4306 46.8717 78.7831 46.6644C78.4904 46.5708 78.2 46.387 77.9014 46.4549C77.6579 46.5099 77.4846 46.7195 77.2773 46.86C76.5444 47.3599 75.5679 46.949 74.7284 46.6633C73.8889 46.3776 72.6923 46.3963 72.416 47.2393C72.0108 46.6164 71.0706 46.7218 70.3763 46.9853C69.6808 47.2487 68.8847 47.5918 68.2383 47.2253C68.0452 47.1152 67.8836 46.9478 67.674 46.8729C67.0862 46.6633 66.5429 47.2522 66.194 47.7697C65.502 45.8636 64.5115 44.0652 63.2692 42.4622C62.9976 43.8286 62.589 45.1681 62.0527 46.4537C61.678 47.3529 60.9228 48.3844 59.9815 48.1315C59.677 48.0496 59.4171 47.8365 59.1068 47.7814C58.5273 47.6796 57.9254 48.1538 57.3751 47.9442C57.1925 47.8751 57.0391 47.7346 56.8506 47.6866C56.4993 47.5965 56.161 47.8412 55.8238 47.977C55.3601 48.1643 54.8438 48.1514 54.3438 48.128C52.762 48.0531 51.1837 47.902 49.6159 47.6772C47.7109 47.5894 49.8863 48.8001 50.4694 48.9968C51.467 49.3352 52.5219 49.5155 53.5745 49.4792C54.0967 49.4616 54.6892 49.4136 55.0709 49.7696C55.3379 50.019 55.4245 50.3983 55.5404 50.7449C55.7968 51.5083 56.2617 52.1991 56.8717 52.7236C57.1457 52.9601 57.4594 53.1674 57.8142 53.24C58.9347 53.4706 59.8187 52.3677 60.773 51.7378C60.8877 51.6617 61.0188 51.5891 61.1558 51.6031C61.4146 51.6301 61.5422 51.931 61.7588 52.0738C62.1382 52.3232 62.6428 52.0223 62.9344 51.6745C63.2259 51.3268 63.4905 50.8912 63.9331 50.7894C64.7059 51.5996 66.0664 51.2308 67.0406 50.6781C67.1729 50.6032 67.3122 50.5236 67.4644 50.5271C67.8332 50.5365 67.9971 50.9861 68.0791 51.3455C68.503 53.1931 69.3214 54.9483 70.463 56.461C71.3259 54.5139 72.1888 52.5667 73.0517 50.6196C73.3784 49.8843 73.7671 49.0834 74.5094 48.772C75.082 48.5308 75.7377 48.642 76.35 48.5355C77.4787 48.3399 78.4365 47.4126 79.5816 47.4478C79.8895 47.4571 80.1904 47.5379 80.4972 47.5637C80.9644 47.6035 81.4327 47.5145 81.8929 47.4267C83.6199 47.0965 85.3469 46.7675 87.0739 46.4373C87.5727 46.3425 88.0715 46.2465 88.5703 46.1516C87.9848 45.4105 86.8889 45.3859 85.9452 45.4292L85.9464 45.4339Z" fill="#3F2721"/>
</g>
<g opacity="0.8">
<path d="M100.188 54.453C100.15 54.3616 100.017 54.3745 99.9224 54.4026C98.5666 54.8113 97.2107 55.2211 95.8549 55.6297C95.6769 55.6835 95.4966 55.7386 95.3408 55.8393C95.02 56.0477 94.8163 56.4434 94.4451 56.5359C94.2039 56.5956 93.9499 56.509 93.7016 56.5312C92.9242 56.5992 92.6315 57.5932 92.0016 58.0534C91.6948 58.277 91.3143 58.3671 90.9443 58.4526C89.8425 58.7055 88.7407 58.9584 87.6378 59.2113C87.1086 59.3331 86.5629 59.4619 86.1297 59.7886C86.0501 59.8483 85.9658 59.9174 85.8675 59.915C85.7738 59.9127 85.6942 59.8459 85.6251 59.7827C85.0736 59.2863 84.521 58.7887 83.9695 58.2922C83.7412 58.9081 83.4391 59.4982 83.0738 60.0438C83.0106 60.1375 82.9403 60.2347 82.8361 60.2792C82.6933 60.34 82.5305 60.285 82.376 60.2721C82.2015 60.2569 82.027 60.2955 81.8584 60.3447C81.2285 60.5262 80.6173 60.8529 79.9617 60.8259C79.6654 60.8142 79.3715 60.7288 79.0777 60.7662C78.7838 60.8025 78.4934 61.3318 78.0941 61.457C77.9384 61.5015 77.7733 61.5507 77.6691 61.6736C77.5649 61.7966 77.5579 62.0167 77.6984 62.0975C77.7593 62.1326 77.8319 62.1338 77.9021 62.1338C78.9102 62.1373 79.9183 61.9687 80.8714 61.6409C81.0693 61.573 81.28 61.4968 81.4826 61.5472C81.636 61.5858 81.7624 61.6935 81.9088 61.7544C82.3268 61.9289 82.7998 61.7006 83.1651 61.4324C83.5293 61.1643 83.8887 60.8353 84.3383 60.7838C84.8558 60.7241 85.3488 61.0496 85.8698 61.0484C86.4646 61.0472 86.9763 60.6269 87.557 60.4993C88.1553 60.3681 88.7876 60.5543 89.3894 60.4407C89.7793 60.367 90.134 60.1726 90.4818 59.9806C91.4723 59.4338 92.4617 58.887 93.4523 58.3414C93.6876 58.2114 93.9253 58.0791 94.115 57.8894C94.3152 57.688 94.4533 57.4293 94.6594 57.2349C95.1512 56.7724 95.8993 56.7678 96.5457 56.5734C97.007 56.4352 97.4273 56.1917 97.8441 55.9505C98.5783 55.5255 99.3124 55.1016 100.045 54.6766C100.13 54.6274 100.228 54.5431 100.191 54.453H100.188Z" fill="#3F2721"/>
</g>
<g opacity="0.8">
<path d="M99.5481 9.49913C99.2812 9.13968 98.8866 8.73457 98.4604 8.87507C98.3117 8.92424 98.1091 9.01908 98.033 8.88209C97.9956 8.81535 98.0225 8.73339 98.033 8.65729C98.0869 8.28496 97.7216 7.98288 97.3668 7.85877C97.0109 7.73465 96.6104 7.6925 96.3236 7.44779C96.0051 7.17499 95.8388 6.668 95.4232 6.61297C95.1937 6.58253 94.9747 6.71367 94.7453 6.74645C94.5568 6.77338 94.3647 6.73357 94.1786 6.69259C93.5955 6.56731 93.0124 6.44203 92.4305 6.31675C91.6015 6.13878 90.7456 5.9491 90.0583 5.45149C89.7363 5.21848 89.3921 4.90352 89.0034 4.98666C88.7224 5.04754 88.4098 5.30513 88.1955 5.11311C88.1089 5.03583 88.0831 4.90821 88.0023 4.82625C87.7318 4.55344 87.3173 5.00773 86.9333 5.02412C86.794 5.02998 86.6605 4.97495 86.527 4.93514C86.088 4.80751 85.6196 4.85552 85.1677 4.91992C85.0178 4.94099 84.8644 4.96441 84.7169 4.9328C84.5904 4.90587 84.4769 4.84147 84.3586 4.78995C83.7509 4.52885 82.9945 4.6635 82.5133 5.11896C81.874 5.59199 82.895 5.80508 83.3505 5.8086C83.806 5.81211 84.3364 5.75708 84.6455 6.09311C84.8059 6.26874 84.8785 6.53101 85.0857 6.6481C85.2824 6.75933 85.5412 6.69142 85.7156 6.54741C85.8901 6.40339 85.999 6.19732 86.1032 5.9971C86.9157 6.19498 87.7576 6.26523 88.5912 6.20435C88.8242 6.18795 89.1006 6.17976 89.2399 6.36709C89.3464 6.51228 89.3347 6.73826 89.4846 6.84012C89.6029 6.92091 89.7633 6.87876 89.9038 6.90569C90.2468 6.9736 90.3721 7.41033 90.6695 7.59415C91.0161 7.80842 91.5125 7.62928 91.845 7.86462C92.0429 8.00395 92.1659 8.27793 92.4059 8.30018C92.5054 8.30954 92.6073 8.27091 92.7033 8.29549C92.8906 8.34467 92.9339 8.58352 92.9597 8.77554C93.0065 9.13266 93.1131 9.48157 93.2723 9.80473C93.3637 9.99089 93.5276 10.1946 93.7301 10.1513C93.8296 10.1302 93.9058 10.0541 93.976 9.98036C94.4689 9.46518 94.963 8.95 95.456 8.43483C95.5625 8.3236 95.689 8.20417 95.8424 8.21002C95.9512 8.21471 96.0461 8.28379 96.1304 8.35404C96.6362 8.78023 97.0027 9.37619 97.5799 9.69935C97.9721 9.91947 98.4545 10.0108 98.7449 10.3539C98.9416 10.5869 99.0564 10.9346 99.3514 11.0072C99.6769 11.0868 99.9731 10.7274 99.9649 10.3913C99.9556 10.0565 99.7483 9.76375 99.5481 9.49562V9.49913Z" fill="#3F2721"/>
</g>
<g opacity="0.8">
<path d="M54.2754 9.40666C53.8878 9.54833 53.4605 9.45817 53.0495 9.45466C52.1924 9.44529 51.381 9.8106 50.586 10.1338C48.0804 11.1512 45.4331 11.8198 42.7436 12.1125C42.5141 12.1383 42.2835 12.1605 42.0528 12.1804C41.6395 12.2155 41.1969 12.253 40.8808 12.52C40.6735 12.6944 40.5494 12.9473 40.4324 13.192C40.3785 13.3068 40.3223 13.4227 40.2684 13.5386C39.1702 15.8862 38.2007 18.3192 36.654 20.3963C36.5053 20.5954 36.325 20.8085 36.0768 20.8366C35.8531 20.8623 35.6447 20.7288 35.4621 20.5965C34.6226 19.9877 33.865 19.2676 33.2164 18.4597C33.0852 18.297 32.9436 18.119 32.741 18.0675C32.2926 17.9539 31.9764 18.4796 31.6064 18.7559C31.0081 19.2044 30.1546 18.9983 29.4743 18.6845C28.7952 18.3707 28.0974 17.9574 27.3562 18.0523C26.779 18.126 26.2826 18.4995 25.7159 18.6283C25.2545 18.7349 24.7733 18.6728 24.3003 18.6541C23.8612 18.6365 23.4222 18.6552 22.9866 18.7114C21.8509 18.8566 20.7456 19.2465 19.7761 19.8542C18.6708 20.5462 17.7213 21.518 16.4895 21.9477C15.6594 22.2369 14.7684 22.2533 13.875 22.2381C14.6185 21.5531 15.3187 20.9162 15.9474 20.36C17.1101 20.2066 18.021 19.0007 19.1673 18.5241C19.9599 18.1951 20.851 18.2291 21.6916 18.0581C22.6271 17.8673 23.4901 17.4258 24.3389 16.9891C24.5532 16.8791 24.7651 16.769 24.9782 16.6601C25.525 16.3791 26.0718 16.0981 26.6174 15.8159C27.1326 15.5513 27.6478 15.2867 28.1641 15.0209C29.8607 14.1475 31.6544 13.1827 32.5712 11.5083C33.1789 12.39 33.6496 13.3665 33.961 14.391C34.6296 14.0257 34.9258 13.1616 35.6201 12.849C36.0487 12.6558 36.5404 12.7143 37.0111 12.7061C39.1842 12.6745 41.04 11.2297 43.0399 10.3796C43.4052 10.2251 43.7845 10.0881 44.1814 10.0612C44.5198 10.0389 44.857 10.0986 45.1954 10.1314C45.7972 10.19 46.4061 10.1595 47.0009 10.0471C47.6331 9.92886 48.2478 9.7181 48.8204 9.42422C49.4163 9.1198 49.9666 8.72522 50.4397 8.25102C50.5521 8.13862 50.6668 8.01802 50.8155 7.96182C50.9771 7.90094 51.1562 7.92552 51.3272 7.95011C51.977 8.04495 52.628 8.13745 53.2778 8.23229C53.7462 8.3002 54.2145 8.36811 54.6828 8.43602C54.951 8.74981 54.6653 9.26498 54.2777 9.40783L54.2754 9.40666Z" fill="#3F2721"/>
</g>
<g opacity="0.44">
<path d="M112.081 27.7083C111.158 26.2459 110.798 24.4978 110.256 22.8492C106.891 12.6183 96.2348 6.17859 85.5718 4.65414C74.9088 3.13085 64.1229 5.60956 53.6554 8.14095C53.529 8.17256 53.4013 8.20183 53.2749 8.23345C51.7821 8.59641 50.2845 8.96757 48.8186 9.42538C48.2063 9.61623 47.5986 9.82113 46.9991 10.0483C46.3247 10.3035 45.6585 10.5834 45.0075 10.8983C44.2417 11.2671 43.4912 11.684 42.743 12.1148C41.9164 12.5902 41.0968 13.0808 40.2679 13.5409C38.3886 14.5865 36.4673 15.4728 34.3422 15.659C31.7686 15.8838 29.0066 15.063 26.6157 15.8183C26.3066 15.9154 26.0033 16.0395 25.7083 16.1964C25.4507 16.3323 25.2071 16.4892 24.9765 16.6624C24.2201 17.2268 23.5937 17.9633 22.986 18.7149C22.7062 19.0615 22.4287 19.4128 22.1454 19.7523C18.8752 23.6735 14.365 26.3197 9.95206 28.8873C6.7767 30.735 3.60134 32.5814 0.424805 34.4278C0.806504 33.4654 1.52541 32.6177 2.55927 32.0814C4.56261 31.0452 9.84902 25.9438 13.8733 22.2416C14.6167 21.5566 15.3169 20.9197 15.9457 20.3635C16.5288 19.8507 17.0486 19.4081 17.4853 19.0615C36.4286 4.06052 102.662 -16.8393 111.255 23.0143C111.605 24.6325 111.879 26.1991 112.081 27.7118V27.7083Z" fill="#FFDDB5"/>
</g>
<g opacity="0.8">
<path d="M112.511 32.9783C112.506 32.7617 112.498 32.5439 112.488 32.3238C112.454 31.4621 112.395 30.5816 112.308 29.6812C112.262 29.9388 112.166 30.1776 111.956 30.3228C111.569 30.5874 111.018 30.3849 110.593 30.5816C110.427 30.6577 110.295 30.7888 110.146 30.8918C109.178 31.5709 107.68 31.0464 106.779 31.811C107.154 31.8683 107.527 31.9257 107.903 31.9831C107.967 31.9936 108.034 32.0053 108.084 32.0463C108.237 32.1763 108.081 32.4198 107.924 32.5439C106.879 33.3729 105.578 33.7932 104.308 34.1995C105.721 34.3845 107.16 34.3669 108.567 34.1457C108.287 34.9629 107.543 35.5144 106.838 36.0132C107.798 36.0869 108.771 35.9617 109.681 35.6467C109.396 37.5622 108.829 39.4344 108.006 41.1884C108.582 40.9319 109.096 40.5409 109.497 40.0538C109.657 40.7165 109.389 41.4108 109.03 41.9916C108.669 42.5723 108.212 43.0968 107.934 43.7197C107.608 44.4492 107.547 45.2688 107.268 46.0158C106.936 46.9033 106.305 47.6667 106.062 48.5823C106.048 48.6338 106.036 48.6912 106.06 48.7392C106.092 48.7989 106.166 48.8177 106.231 48.8247C106.834 48.8832 107.352 48.3856 107.949 48.2849C108.399 48.21 108.856 48.3622 109.311 48.3774C111.514 44.1471 112.659 39.0445 112.509 32.9783H112.511Z" fill="#3F2721"/>
</g>
<g opacity="0.44">
<path d="M8.11085 38.5317C13.7368 40.3336 19.2796 42.3967 24.7148 44.7126C26.8094 45.6048 28.8959 46.538 31.0901 47.1457C34.1156 47.984 37.2839 48.1901 40.3281 48.9581C45.3078 50.2156 49.8858 52.9636 54.9767 53.6392C60.6858 54.3956 66.4031 52.4707 72.1613 52.3829C74.1647 52.3525 76.1786 52.5445 78.169 52.3056C80.1548 52.0679 82.0621 51.4076 83.9507 50.7519C89.3764 48.8692 94.8022 46.9852 100.228 45.1025C102.465 44.3262 104.87 43.4212 106.138 41.4202C107.083 39.9297 107.231 38.0622 108.039 36.4932C108.294 35.9979 108.855 35.4722 109.329 35.7649C109.507 35.875 109.606 36.074 109.679 36.2707C110.416 38.2577 109.197 40.4132 107.85 42.0501C103.652 47.1539 97.6497 50.7425 91.1667 52.027C89.2172 52.4133 87.2338 52.5972 85.2597 52.829C73.3662 54.2247 61.2174 57.3637 49.6142 54.4073C44.2657 53.0444 39.2907 50.4299 33.9153 49.1783C31.3535 48.5823 28.7226 48.3013 26.1795 47.6292C23.5064 46.9232 20.9657 45.7957 18.439 44.674C15.8303 43.516 13.2228 42.3569 10.6141 41.1989C9.21028 40.5748 3.79273 37.3877 8.11202 38.5328" fill="#FFDDB5"/>
</g>
<path d="M112.511 32.9783C112.463 32.9186 112.417 32.8589 112.37 32.7992C109.101 28.6134 103.661 25.2916 96.2025 22.9253C89.6481 20.8471 81.5235 19.5486 72.7046 19.1739C56.336 18.4761 38.9652 20.9841 29.4825 25.4169C15.7132 31.8519 4.82189 34.6632 0.12207 35.6818C0.136121 35.5448 0.154854 35.409 0.180613 35.272C4.9296 34.2323 15.712 31.4246 29.3197 25.0633C38.854 20.607 56.2962 18.0827 72.7233 18.7829C81.575 19.1599 89.7347 20.4642 96.3208 22.553C103.717 24.8982 109.156 28.186 112.49 32.3226C112.5 32.5427 112.507 32.7605 112.513 32.9771L112.511 32.9783Z" fill="#66423A"/>
<g opacity="0.8">
<path d="M56.3946 59.8787C55.9707 59.9139 55.5328 60.0544 55.1312 59.9139C54.5786 59.7207 54.3362 59.0931 54.1208 58.5486C53.9054 58.0042 53.5424 57.3977 52.9581 57.3661C52.7263 57.3532 52.5027 57.4387 52.2872 57.5218L49.2126 58.7102C48.7255 58.8987 48.2045 59.0907 47.6928 58.9842C47.0359 58.8484 46.5817 58.27 46.0431 57.8695C45.1427 57.201 43.8945 57.0312 42.8478 57.4328C42.6523 57.5077 42.4462 57.6026 42.2425 57.5558C41.8502 57.4633 41.7659 56.9574 41.554 56.6156C41.143 55.9552 40.2087 55.9119 39.4347 55.9892C38.6608 56.0664 37.7663 56.1496 37.2148 55.6004C37.0743 55.4599 36.9666 55.2866 36.8097 55.1649C36.2769 54.7527 35.5159 55.1192 34.9515 55.4869C34.7478 55.0115 34.5441 54.5349 34.3404 54.0596C34.276 53.9097 34.2034 53.7493 34.0605 53.6697C33.8439 53.5479 33.577 53.6662 33.3498 53.7669C31.2528 54.6942 28.8163 54.0701 26.6595 53.2903C26.2088 53.1276 25.7556 52.9555 25.3611 52.6838C24.7218 52.2436 24.0087 51.5141 23.3203 51.8736C22.8273 52.0984 22.0873 52.3127 21.9141 52.5644C22.4246 53.466 23.6903 53.5292 24.5497 54.1076C24.9524 54.3781 25.2651 54.7656 25.6538 55.056C26.1455 55.4225 26.7403 55.6203 27.3328 55.7772C28.4697 56.0793 29.6405 56.2526 30.8161 56.2936C31.9003 56.331 33.0278 56.2643 34.0254 56.6917C34.4481 56.8731 34.8309 57.1378 35.2489 57.3298C36.1833 57.7571 37.2429 57.7993 38.2709 57.7993C38.5414 57.7993 38.8165 57.7993 39.0741 57.8824C39.3633 57.9773 39.6069 58.1728 39.8445 58.3625C41.2051 59.4467 42.8747 60.518 44.5643 60.1024C45.0525 59.9829 45.5103 59.7417 46.0091 59.675C47.1378 59.524 48.1752 60.2815 49.2934 60.5005C50.1856 60.6749 51.1058 60.5005 52.0144 60.5192C54.2683 60.5695 56.5784 61.8048 58.6778 60.9829C58.186 60.244 57.2774 59.8038 56.3934 59.8776L56.3946 59.8787Z" fill="#3F2721"/>
</g>
<path d="M96.7962 61.5425C96.5679 62.6361 95.8548 63.5751 95.0212 64.3198C90.4747 68.3744 83.0539 67.035 78.011 70.4527C75.9772 71.8308 74.475 73.8997 72.3956 75.2087C70.2786 76.5423 67.7297 76.9884 65.4606 78.0422C63.6305 78.8934 62.0077 80.1275 60.2596 81.1356C57.6275 82.6519 54.7309 83.6412 51.8552 84.6201C51.3705 84.7852 50.8741 84.9526 50.3624 84.9479C49.784 84.9432 49.2325 84.7208 48.6998 84.4983C47.3978 83.955 46.0185 83.3169 45.3055 82.0992C44.5877 80.8722 44.7669 79.1873 45.7258 78.1382C46.3077 77.5013 47.214 76.7262 46.7655 75.9885C46.6508 75.8 46.4623 75.67 46.3089 75.512C45.6462 74.827 45.7176 73.7487 45.59 72.8038C45.5666 72.6293 45.5279 72.4642 45.4717 72.3097C45.3699 72.0252 45.2071 71.7746 44.9624 71.5533C44.617 71.2407 44.1077 70.9901 43.3724 70.7981C41.2836 70.2033 40.0073 67.6391 40.7942 65.6147C41.5388 63.6957 43.6569 62.6689 45.6813 62.3C47.7057 61.9312 49.8109 62.0319 51.7932 61.4758C56.2413 60.2288 59.1871 55.9903 63.3296 53.946C66.4312 52.4157 70.1756 52.1312 72.8323 49.9147C73.7011 49.19 74.4094 48.2884 75.2805 47.5672C76.4854 46.5696 77.9524 45.9537 79.3961 45.3507C80.8245 44.7548 82.2928 44.1506 83.8395 44.1073C85.3862 44.0651 87.0512 44.7103 87.7841 46.072C88.174 46.7956 88.2653 47.6749 88.0312 48.4629C87.8251 49.1584 87.3872 49.7602 87.0547 50.4053C86.947 50.6137 86.8498 50.828 86.7748 51.0505C86.6952 51.2893 86.6531 51.5469 86.6472 51.8068C86.6285 52.6815 87.0312 53.5713 87.8485 53.8125C88.1354 53.8968 88.4585 53.8992 88.6974 54.0795C89.161 54.4296 88.9959 55.166 88.6962 55.6648C88.6669 55.714 88.6365 55.7632 88.6049 55.8123C88.3215 56.2655 88.0019 56.7432 88.1119 57.2548C88.1986 57.6588 88.544 57.962 88.9152 58.1447C89.4198 58.3929 89.9666 58.4678 90.5333 58.4573C92.3235 58.4222 94.3093 57.5276 95.7658 58.5486C96.6814 59.1891 97.0257 60.4477 96.7974 61.5413L96.7962 61.5425Z" fill="#D1581B"/>
<g opacity="0.34">
<path d="M46.1504 69.9504C50.8959 70.0125 54.8581 66.4718 59.3729 65.0106C61.6748 64.2659 64.2413 64.013 66.1182 62.4862C67.2434 61.5706 68.0232 60.2616 69.2327 59.4619C70.3672 58.7114 71.7617 58.4866 73.0157 57.9585C74.7439 57.2291 76.1642 55.9423 77.7202 54.8944C79.0702 53.9858 80.5361 53.2517 82.0711 52.7143C82.7877 52.4637 83.5487 52.2389 84.099 51.7167C84.5615 51.2776 84.8261 50.6734 85.0779 50.0868C85.4163 49.2989 85.7546 48.512 86.093 47.7241C86.1996 47.4758 86.3084 47.2183 86.2991 46.949C86.2686 46.0638 85.1294 45.7336 84.2442 45.702C81.4787 45.6048 78.5082 46.0954 76.4932 47.9922C75.759 48.683 75.1865 49.5295 74.4746 50.2426C71.7453 52.9753 67.5115 53.3371 63.9791 54.8991C59.9326 56.4949 56.1507 60.6819 51.8361 62.2614C50.6688 62.6888 49.4921 63.1185 48.2662 63.3269C46.9934 63.5435 45.6762 63.5201 44.4433 63.9018C43.2104 64.2835 42.0185 65.2155 41.8639 66.4976C41.7398 67.5267 42.3393 68.5536 43.1929 69.1425C44.0464 69.7315 45.1131 69.9375 46.1504 69.9516V69.9504Z" fill="#FD8826"/>
</g>
<g opacity="0.34">
<path d="M84.029 54.2762C83.1345 54.3324 82.3008 54.7351 81.521 55.1766C79.3409 56.4083 77.3563 58.0018 75.0474 58.9701C73.2372 59.7288 71.2327 60.1024 69.6369 61.2463C68.7728 61.8657 68.0714 62.6841 67.2483 63.3573C65.0096 65.1874 62.0556 65.8161 59.4083 66.9776C56.5666 68.2257 53.9216 70.153 50.8341 70.4691C49.7382 70.5815 48.3472 70.6646 47.9725 71.6997C47.2981 73.7698 47.7465 74.5858 48.4467 75.7227C48.6106 75.9885 48.7851 76.266 49.0567 76.4217C49.6246 76.7496 50.3283 76.4241 50.9207 76.1431C53.1887 75.0659 55.699 74.642 58.1262 73.9992C59.8871 73.5332 61.6165 72.9466 63.299 72.2465C64.2111 71.8659 65.1337 71.4362 65.814 70.7197C66.2882 70.2209 66.6242 69.6038 67.1055 69.1121C67.9602 68.2375 69.1744 67.8452 70.3054 67.3804C72.0125 66.679 73.6166 65.7552 75.216 64.8338C77.8235 63.3316 80.431 61.8305 83.0385 60.3283C83.7983 59.8904 84.5629 59.4502 85.2256 58.8753C86.2326 58.0018 86.9948 56.5195 86.3368 55.3592C85.8954 54.5794 84.9235 54.2188 84.029 54.275V54.2762Z" fill="#FD8826"/>
</g>
<g opacity="0.34">
<path d="M94.796 60.8166C94.2012 59.9138 92.994 59.6504 91.9121 59.6504C89.2239 59.6527 86.6702 60.7885 84.3203 62.094C81.9704 63.3995 79.7036 64.9064 77.157 65.7669C76.0037 66.1568 74.7708 66.4273 73.8107 67.1743C73.0567 67.7609 72.5216 68.6086 71.7125 69.1179C70.8602 69.6554 69.8122 69.7514 68.8486 70.0464C65.8302 70.9702 63.7835 73.7733 60.9887 75.2392C57.6002 77.0154 54.2972 77.4052 49.7239 78.7072C48.9476 78.9367 48.1467 79.1791 47.5309 79.7036C46.915 80.2294 46.5345 81.1192 46.8447 81.8674C47.018 82.2854 47.3786 82.5992 47.7615 82.8404C49.8714 84.1658 52.6416 83.5909 54.9494 82.6495C59.3389 80.8581 63.1934 77.931 67.5864 76.1466C69.2549 75.4687 71.037 74.9347 72.4033 73.7615C73.3131 72.9806 73.9852 71.9573 74.8657 71.1423C76.314 69.8029 78.2307 69.1074 80.1017 68.4822C83.4094 67.3769 86.7592 66.3816 90.1723 65.6686C91.4742 65.397 92.8395 65.1417 93.8885 64.3256C94.9376 63.5095 95.5289 61.9254 94.7971 60.8154L94.796 60.8166Z" fill="#FD8826"/>
</g>
<path d="M41.9043 68.0771C41.8235 67.974 41.7544 67.8604 41.7005 67.7387C41.6467 67.6169 41.6116 67.4881 41.587 67.3581C41.5401 67.0959 41.5507 66.8231 41.6092 66.5608C41.6373 66.4297 41.6806 66.3009 41.7357 66.1779C41.7895 66.0538 41.8539 65.9356 41.9289 65.8232C42.0752 65.596 42.2567 65.3935 42.4569 65.2131C42.6571 65.0328 42.8749 64.8736 43.1044 64.7343C43.218 64.6628 43.3374 64.602 43.4545 64.5387C43.5716 64.472 43.6945 64.4205 43.8151 64.3631C44.3033 64.143 44.8138 63.9779 45.3302 63.8503C46.3664 63.5974 47.4202 63.4826 48.4529 63.321C48.9692 63.2402 49.4797 63.1478 49.989 63.0354C50.4972 62.9241 51.0006 62.7906 51.5006 62.6443C53.4957 62.0507 55.423 61.2229 57.2577 60.2393C58.171 59.7429 59.0585 59.2031 59.8828 58.5802C60.7094 57.9597 61.4857 57.2595 62.283 56.5675C63.0827 55.8791 63.9082 55.1976 64.8214 54.6228C65.7347 54.0479 66.7135 53.5994 67.7041 53.2166C68.6946 52.8337 69.6969 52.5058 70.6839 52.1558C71.1768 51.9813 71.6663 51.7998 72.1486 51.6043C72.631 51.4111 73.1064 51.2027 73.5666 50.9673C74.0267 50.7332 74.474 50.4744 74.8978 50.184C75.3228 49.8925 75.7198 49.5705 76.1003 49.2169C76.4808 48.8645 76.8485 48.4886 77.2337 48.1233C77.4269 47.9407 77.6236 47.7615 77.8296 47.5894C77.8823 47.5473 77.9327 47.5028 77.9854 47.463L78.1458 47.3412L78.3062 47.2194L78.4724 47.107C80.2439 45.8999 82.4686 45.4081 84.5468 45.7559C84.0235 45.702 83.4966 45.6997 82.9755 45.7465C82.4545 45.791 81.9393 45.8823 81.437 46.0193C80.9359 46.1586 80.4453 46.3343 79.9782 46.5614C79.511 46.7862 79.0661 47.0543 78.6516 47.3611C77.8121 47.9618 77.1435 48.7685 76.3871 49.5166C76.0113 49.8937 75.5956 50.2437 75.1613 50.5575C74.7257 50.8713 74.2667 51.1523 73.796 51.4052C73.3253 51.6593 72.8418 51.8853 72.3524 52.0937C71.863 52.3021 71.3689 52.4918 70.8736 52.6756C69.883 53.0433 68.8902 53.384 67.9254 53.7727C67.443 53.9682 66.9653 54.1696 66.5016 54.3968C66.0368 54.6228 65.586 54.8686 65.1539 55.1438C64.2875 55.6929 63.489 56.358 62.6987 57.0441C61.9048 57.7267 61.1145 58.4327 60.2551 59.072C59.3969 59.7113 58.4824 60.271 57.541 60.7639C57.0704 61.0098 56.5938 61.2439 56.1114 61.4641C55.6302 61.6854 55.1443 61.8984 54.6514 62.0963C54.1596 62.2942 53.662 62.4815 53.1597 62.6525C52.6574 62.8234 52.1481 62.9756 51.6352 63.115C50.6107 63.3925 49.564 63.602 48.5114 63.7273C47.4623 63.8561 46.4179 63.9393 45.4004 64.1488C44.8923 64.2519 44.3912 64.3912 43.9123 64.5844C43.794 64.6359 43.6723 64.6804 43.5575 64.7401C43.4416 64.7963 43.3233 64.8513 43.2121 64.9146C42.9873 65.041 42.7707 65.1804 42.5717 65.3431C42.3726 65.5059 42.1911 65.6885 42.0413 65.8969C41.9663 66 41.8984 66.11 41.8422 66.2248C41.7848 66.3395 41.738 66.4589 41.704 66.583C41.6326 66.8301 41.6069 67.0924 41.6361 67.35C41.6525 67.4787 41.6795 67.6064 41.7251 67.7293C41.7708 67.8511 41.8317 67.9682 41.9066 68.0759L41.9043 68.0771Z" fill="#FD8826"/>
<path d="M52.5381 66.6065C53.1493 66.6193 53.7546 66.5889 54.3365 66.4683C54.9173 66.3512 55.4758 66.1533 55.9675 65.8571C56.4593 65.5632 56.8831 65.1593 57.3046 64.7343C57.7261 64.3081 58.1453 63.8514 58.6488 63.4533C58.9005 63.2566 59.1698 63.0716 59.4672 62.9265C59.7634 62.7813 60.0737 62.6736 60.3852 62.5986C60.6966 62.5237 61.0092 62.4745 61.3172 62.4406C61.6251 62.4054 61.9307 62.3832 62.2316 62.3598C62.5325 62.3363 62.8311 62.3106 63.125 62.2708C63.4189 62.2321 63.7104 62.1748 64.0008 62.1045C64.585 61.9675 65.1599 61.7685 65.7418 61.5811C65.2173 61.8961 64.6705 62.1736 64.0933 62.4007C63.8041 62.512 63.5067 62.608 63.2011 62.6794C62.8978 62.752 62.5922 62.8059 62.289 62.8539C61.6848 62.9499 61.0888 63.0213 60.535 63.1794C59.9777 63.3316 59.4883 63.5857 59.0387 63.951C58.8115 64.1289 58.5938 64.3256 58.3783 64.5329C58.1605 64.7378 57.9463 64.9532 57.7215 65.164C57.4967 65.3747 57.2637 65.5855 57.0131 65.7775C56.889 65.8758 56.7567 65.966 56.6244 66.055L56.4183 66.1791C56.3492 66.2201 56.2766 66.2552 56.2052 66.2927C55.628 66.5807 55.0004 66.7329 54.3775 66.7751C53.7534 66.8137 53.1317 66.7587 52.5381 66.6076V66.6065Z" fill="#FD8826"/>
<path d="M76.86 55.0478C76.9747 54.9834 77.0859 54.9143 77.189 54.8382C77.2943 54.7632 77.3939 54.6825 77.4864 54.5958C77.6714 54.4225 77.8341 54.2282 77.9664 54.0198C78.0999 53.8137 78.1982 53.5854 78.3071 53.3453C78.361 53.2259 78.4184 53.103 78.4839 52.9812C78.5507 52.8594 78.6233 52.7353 78.7146 52.6206C78.8949 52.3876 79.1221 52.1967 79.3633 52.0457C79.6044 51.8923 79.8609 51.7776 80.1184 51.6816C80.376 51.5855 80.6336 51.5141 80.8842 51.4415C81.1348 51.3701 81.3795 51.3034 81.6113 51.2202C81.7284 51.1793 81.8396 51.1371 81.9532 51.0879C82.0668 51.0388 82.1815 50.9849 82.2974 50.9299C82.5316 50.821 82.7751 50.7027 83.0397 50.6091C83.3067 50.5154 83.5643 50.4545 83.7996 50.3842C83.9179 50.3491 84.0279 50.3093 84.1357 50.2625C84.2445 50.2156 84.3534 50.1606 84.4623 50.0997C84.6789 49.9791 84.9026 49.8386 85.1285 49.7063C85.3533 49.5728 85.5793 49.4417 85.8065 49.3117L86.146 49.1197C86.2573 49.0565 86.3615 48.9909 86.4551 48.9125C86.5488 48.834 86.6284 48.7415 86.6799 48.6291C86.735 48.5191 86.7584 48.3903 86.7314 48.2603C86.7935 48.3774 86.8005 48.5238 86.7701 48.6596C86.7396 48.7954 86.6682 48.9242 86.5816 49.0331C86.4949 49.1443 86.3896 49.2356 86.2877 49.3211C86.1847 49.4066 86.0828 49.4862 85.9798 49.5682C85.7749 49.7297 85.5688 49.8913 85.3615 50.0494L85.0489 50.2871C84.9436 50.3655 84.837 50.4463 84.7234 50.5224C84.611 50.5985 84.4928 50.6723 84.3675 50.7402C84.241 50.8069 84.1076 50.8643 83.9799 50.9123C83.7212 51.0107 83.473 51.0786 83.2517 51.1711C83.028 51.2612 82.8032 51.3748 82.5691 51.4942C82.4508 51.5528 82.3302 51.6101 82.2049 51.6663C82.0796 51.7225 81.9485 51.7741 81.8185 51.8197C81.2975 51.9989 80.7835 52.0984 80.3128 52.2494C79.8445 52.4005 79.4042 52.6089 79.0916 52.9426C78.9359 53.1088 78.8047 53.3184 78.6701 53.5409C78.5366 53.7622 78.3938 53.9999 78.21 54.2083C77.847 54.6227 77.3681 54.9225 76.8564 55.0501L76.86 55.0478Z" fill="#FD8826"/>
<path d="M86.5712 55.7011C86.5396 55.9587 86.5033 56.2163 86.4576 56.4727C86.4096 56.7291 86.3511 56.9844 86.2738 57.2373C86.1954 57.489 86.0923 57.7372 85.9612 57.9726C85.8289 58.2079 85.665 58.4304 85.4671 58.6224C85.268 58.8121 85.0432 58.9737 84.8056 59.1083C84.5667 59.2406 84.3173 59.3483 84.0632 59.4373C83.808 59.5251 83.5504 59.593 83.2905 59.6516C83.0317 59.7101 82.7741 59.7558 82.52 59.8038C82.0119 59.8998 81.5131 59.9888 81.0506 60.1504C80.8188 60.23 80.5952 60.3213 80.4043 60.4407C80.3083 60.5005 80.2205 60.566 80.1432 60.6386C80.0671 60.7112 80.0015 60.7908 79.9336 60.8857C79.8001 61.0742 79.6796 61.3118 79.4934 61.5484C79.3997 61.6666 79.285 61.7837 79.1456 61.8785C78.9993 61.9757 78.8283 62.0425 78.6586 62.0694C78.4876 62.0963 78.3178 62.0846 78.1551 62.0495C77.9923 62.0144 77.8401 61.95 77.6996 61.8622C77.5603 61.7732 77.4303 61.6631 77.3296 61.5214C77.2278 61.3821 77.1517 61.2182 77.1154 61.0426L77.7008 61.1315C77.5825 61.3446 77.4456 61.5472 77.2933 61.7334C77.1376 61.9172 76.969 62.0881 76.7899 62.245C76.6096 62.3996 76.4211 62.5424 76.2267 62.6724C76.03 62.8 75.8298 62.9183 75.626 63.026C75.2174 63.2414 74.7912 63.4159 74.3697 63.5739C73.947 63.7308 73.5244 63.8725 73.1087 64.0224C72.693 64.1723 72.2856 64.3303 71.8934 64.5188C71.699 64.6137 71.5046 64.7155 71.322 64.8279C71.1382 64.9415 70.9637 65.0644 70.801 65.2026C70.6394 65.3419 70.493 65.4953 70.3736 65.6709C70.3127 65.7576 70.2577 65.8513 70.205 65.9461C70.1523 66.0409 70.1031 66.1393 70.0551 66.2388C69.9603 66.4379 69.8725 66.6451 69.7729 66.8465C69.6722 67.0479 69.561 67.2446 69.4229 67.4214C69.6453 67.0315 69.7554 66.6018 69.9041 66.1779C69.9778 65.9648 70.061 65.7517 70.1781 65.5492C70.2916 65.3443 70.4392 65.1593 70.6007 64.9919C70.7623 64.8232 70.9426 64.6757 71.13 64.5422C71.3173 64.4076 71.5117 64.2882 71.7095 64.1734C71.9074 64.0587 72.11 63.9556 72.3149 63.8573C72.5198 63.7601 72.727 63.67 72.9342 63.581C73.7632 63.2309 74.5992 62.937 75.3474 62.5155C75.5347 62.4101 75.715 62.2977 75.8895 62.1771C76.0616 62.0542 76.2279 61.9266 76.3836 61.7872C76.537 61.6467 76.6798 61.498 76.8098 61.34C76.9362 61.1795 77.0498 61.0109 77.147 60.8341L77.5451 60.1106L77.7324 60.9231C77.75 61.0016 77.7851 61.0765 77.8354 61.1468C77.8846 61.217 77.9572 61.2779 78.0357 61.3271C78.1926 61.4301 78.3916 61.4723 78.5626 61.4488C78.648 61.4348 78.7218 61.4055 78.7932 61.361C78.8681 61.3107 78.9384 61.2416 79.0075 61.1585C79.1468 60.991 79.2674 60.7651 79.4348 60.5332C79.518 60.4173 79.6187 60.2967 79.7334 60.1937C79.8482 60.0918 79.9711 60.0052 80.0964 59.9314C80.3493 59.7839 80.6116 59.6855 80.8715 59.6036C81.1326 59.5228 81.396 59.4642 81.6583 59.4162C81.9194 59.3671 82.1793 59.3296 82.4369 59.2945C82.9509 59.223 83.452 59.1563 83.9321 59.0217C84.1721 58.9549 84.4063 58.8741 84.6288 58.7699C84.85 58.6645 85.0596 58.5358 85.247 58.3812C85.432 58.2243 85.5994 58.0428 85.7387 57.8368C85.8804 57.6319 85.9951 57.407 86.097 57.174C86.1989 56.941 86.2832 56.6975 86.3569 56.4505C86.4342 56.2046 86.4998 55.9528 86.5689 55.7035L86.5712 55.7011Z" fill="#FD8826"/>
<path d="M47.6299 80.083C49.0747 78.8747 50.7209 77.8712 52.5287 77.2331C52.9807 77.0762 53.4408 76.9369 53.9104 76.8339C54.3787 76.7238 54.8517 76.6512 55.3177 76.5798C55.7849 76.5095 56.245 76.4451 56.7028 76.3632C57.1607 76.2836 57.6173 76.1946 58.0716 76.0939C58.5259 75.9944 58.9778 75.8855 59.4274 75.7637C59.877 75.6455 60.3184 75.5131 60.7517 75.3598C61.1849 75.2064 61.6064 75.0319 62.0092 74.8188C62.2141 74.7181 62.4096 74.5987 62.6086 74.4851C62.8042 74.3634 63.0009 74.2439 63.1917 74.1116L63.3357 74.0156L63.4786 73.9161C63.5734 73.8494 63.6694 73.7838 63.7643 73.7147L64.3298 73.3002C64.708 73.0227 65.0827 72.737 65.4667 72.4607C65.5627 72.3916 65.6611 72.3249 65.7571 72.257C65.8543 72.1891 65.9514 72.1223 66.051 72.0579C66.1505 71.9935 66.2477 71.9256 66.3484 71.8636L66.6516 71.6774C66.7535 71.6165 66.8577 71.5603 66.9607 71.5018C67.0122 71.4737 67.0637 71.4432 67.1164 71.4163L67.2745 71.3355C67.4841 71.2266 67.703 71.1341 67.9196 71.0428L67.6176 71.2266C67.5157 71.2852 67.4209 71.3543 67.3225 71.4187L67.1762 71.5158C67.127 71.5486 67.0801 71.5837 67.0333 71.6177C66.9385 71.6868 66.8425 71.7524 66.75 71.8238C66.3765 72.1048 66.0147 72.4022 65.6587 72.7066C64.9422 73.3108 64.2478 73.9489 63.4798 74.5191C63.2901 74.6631 63.091 74.7989 62.8932 74.9347C62.6894 75.0635 62.488 75.1958 62.2738 75.3106C61.8546 75.5541 61.4073 75.7497 60.9589 75.9229C60.055 76.2637 59.1359 76.5013 58.2086 76.7109C57.7437 76.8116 57.2766 76.9018 56.8071 76.9779C56.3375 77.054 55.8657 77.1149 55.4009 77.1722C54.936 77.2308 54.4759 77.2917 54.0251 77.3783L53.6867 77.4462L53.3507 77.5247C53.2383 77.5493 53.1271 77.582 53.0158 77.6101L52.8484 77.6546L52.6821 77.705C52.5721 77.7389 52.4597 77.7694 52.3508 77.8069L52.0206 77.9157C51.8028 77.9942 51.5839 78.0715 51.3684 78.1569C50.9352 78.3255 50.509 78.5117 50.0899 78.7178C49.6683 78.9192 49.2539 79.1369 48.8452 79.3664C48.7422 79.4226 48.6415 79.4823 48.5396 79.5409C48.4378 79.5983 48.3371 79.6591 48.2364 79.72C48.0327 79.8371 47.8348 79.9636 47.6322 80.0853L47.6299 80.083Z" fill="#FD8826"/>
<path d="M47.4258 82.605C48.5276 83.1354 49.7429 83.3918 50.9383 83.3356C51.5355 83.3087 52.1268 83.2057 52.7063 83.0511C53.2859 82.8977 53.8585 82.7045 54.424 82.4914C54.9883 82.2772 55.5398 82.0395 56.0667 81.7632C56.3301 81.6238 56.5854 81.4751 56.8336 81.3136C57.083 81.152 57.3265 80.9787 57.5701 80.7996C58.0572 80.4413 58.5442 80.0643 59.0676 79.7189C59.5933 79.3746 60.1471 79.0796 60.7045 78.8126C61.2641 78.5468 61.8296 78.3056 62.3893 78.0644C62.9513 77.8256 63.5145 77.5856 64.0812 77.3537C65.2158 76.8912 66.3655 76.4522 67.5434 76.0927C68.1312 75.9136 68.7143 75.7473 69.2716 75.5354C69.8289 75.3235 70.3593 75.0518 70.8031 74.6666C71.2527 74.2849 71.6262 73.7955 72.0489 73.3471C72.2608 73.1234 72.4856 72.9068 72.7385 72.7253C72.9914 72.5462 73.2736 72.4045 73.5733 72.3366C73.2841 72.4396 73.0242 72.6024 72.7982 72.8003C72.5699 72.997 72.3709 73.2241 72.1824 73.4606C71.995 73.6983 71.8147 73.943 71.6262 74.1866C71.4377 74.4301 71.241 74.6713 71.015 74.8938C70.5595 75.3399 70.0011 75.663 69.432 75.9171C68.8606 76.1723 68.2705 76.3585 67.6992 76.5611C67.4135 76.6629 67.1289 76.766 66.8456 76.8748C66.5622 76.9814 66.2789 77.0915 65.9979 77.205C65.4347 77.4322 64.8739 77.6652 64.3154 77.9064C63.7569 78.1476 63.1972 78.3911 62.6387 78.637C62.079 78.8817 61.5205 79.1217 60.9784 79.3816C60.434 79.6392 59.9071 79.9202 59.4083 80.2411C58.9072 80.5607 58.4248 80.9295 57.9202 81.2843C57.6673 81.4623 57.4108 81.6367 57.1439 81.803C56.8781 81.9692 56.5994 82.1191 56.3196 82.2584C56.0386 82.3966 55.7529 82.5231 55.4637 82.6378C55.1745 82.7525 54.8818 82.8567 54.5891 82.9551C54.0025 83.1471 53.4112 83.3286 52.8012 83.4527C52.1923 83.578 51.5683 83.6553 50.943 83.6447C49.6949 83.6166 48.4632 83.2595 47.427 82.6062L47.4258 82.605Z" fill="#FD8826"/>
<path d="M91.8045 59.1083C92.0234 59.0778 92.2435 59.0591 92.4648 59.0427C92.6861 59.0287 92.9074 59.0216 93.1299 59.0216C93.3523 59.0193 93.5748 59.0275 93.7973 59.0415C94.0209 59.0544 94.248 59.0802 94.474 59.127C94.5876 59.1528 94.7 59.182 94.8112 59.2242C94.9225 59.264 95.0325 59.3132 95.1391 59.3752C95.2468 59.4338 95.3463 59.5134 95.44 59.5989C95.5313 59.689 95.6121 59.7921 95.6765 59.9056C95.8064 60.1328 95.858 60.4044 95.8463 60.6573C95.8322 60.9114 95.7713 61.1538 95.6823 61.3751C95.5934 61.5975 95.4833 61.8059 95.3615 62.0026C95.2386 62.1982 95.111 62.3808 94.9775 62.5646C94.7105 62.9311 94.4131 63.2754 94.0923 63.5997C93.7715 63.9228 93.4226 64.2214 93.0491 64.4884C92.6744 64.753 92.274 64.9848 91.8536 65.1757C91.431 65.363 90.9942 65.507 90.5516 65.6171C90.1091 65.7248 89.663 65.8021 89.218 65.8571C88.7731 65.9121 88.3294 65.9508 87.8891 65.9812C87.4489 66.014 87.0098 66.0398 86.5742 66.076C84.8367 66.2048 83.119 66.569 81.4424 67.124C82.2292 66.72 83.0593 66.3992 83.9094 66.1381C84.3356 66.0105 84.7676 65.9016 85.2032 65.8067C85.6387 65.7119 86.0801 65.6393 86.5216 65.5808C87.402 65.4602 88.2802 65.3923 89.1361 65.2623C89.5634 65.1967 89.9861 65.1195 90.3983 65.0106C90.8104 64.9052 91.2108 64.7694 91.5937 64.5984C92.3594 64.2565 93.0584 63.7613 93.672 63.1723C93.9799 62.8784 94.2668 62.5611 94.5337 62.2274C94.666 62.06 94.7972 61.8856 94.9166 61.7146C95.036 61.5437 95.1402 61.3645 95.2245 61.1819C95.3088 60.9992 95.3674 60.8107 95.3896 60.6257C95.3978 60.5332 95.4002 60.4407 95.3849 60.3529C95.3744 60.2639 95.3463 60.1784 95.31 60.0965C95.2714 60.0157 95.2222 59.9396 95.1613 59.8693C95.0981 59.8014 95.029 59.7359 94.947 59.682C94.7866 59.5696 94.5946 59.4911 94.3956 59.4268C94.1953 59.3635 93.9858 59.3179 93.7715 59.2851C93.5561 59.25 93.3394 59.223 93.1217 59.1973C92.9039 59.1715 92.6849 59.1539 92.466 59.1399C92.247 59.1235 92.0269 59.1165 91.8056 59.1106L91.8045 59.1083Z" fill="#FD8826"/>
<path d="M46.0576 79.1206C46.177 78.8571 46.3269 78.6124 46.4908 78.3759C46.6536 78.1394 46.8444 77.9181 47.0189 77.7085C47.1055 77.6031 47.1887 77.4989 47.2636 77.3947C47.3385 77.2893 47.4029 77.1863 47.4591 77.0762C47.5142 76.9674 47.5645 76.855 47.6008 76.7402C47.6383 76.6266 47.6664 76.5107 47.6804 76.3948C47.6968 76.2789 47.7003 76.1641 47.6886 76.0517L47.6793 75.9674C47.6757 75.9393 47.6687 75.9124 47.664 75.8843C47.65 75.8293 47.6348 75.7743 47.6172 75.7181C47.5411 75.4956 47.4135 75.2731 47.2659 75.0436C47.1184 74.8141 46.9545 74.5776 46.8187 74.3165C46.6852 74.0554 46.581 73.7627 46.5857 73.4724C46.7168 73.7311 46.8866 73.9395 47.0728 74.1386C47.2613 74.3364 47.4626 74.5261 47.6593 74.7404C47.7074 74.7942 47.7565 74.8504 47.8045 74.9066C47.8502 74.9664 47.8982 75.0226 47.9415 75.0881L48.0071 75.183C48.0282 75.2158 48.0469 75.2509 48.0668 75.2848C48.1078 75.3516 48.1406 75.4277 48.1757 75.5003C48.1944 75.5366 48.205 75.5775 48.2202 75.6162C48.2331 75.656 48.2483 75.6946 48.2588 75.7344C48.2682 75.7754 48.2799 75.8164 48.2881 75.8574C48.2951 75.8984 48.3033 75.9405 48.3092 75.9815C48.3291 76.1478 48.3279 76.3152 48.3068 76.4779C48.2834 76.6407 48.2436 76.7976 48.1886 76.9486C48.1312 77.0985 48.0621 77.2425 47.9778 77.376C47.8935 77.5095 47.7975 77.6371 47.6933 77.7471C47.5903 77.8607 47.4814 77.9602 47.3725 78.0551C47.1512 78.2436 46.9346 78.4087 46.718 78.5855C46.5002 78.7599 46.2848 78.9414 46.0576 79.1194V79.1206Z" fill="#FD8826"/>
<path d="M87.0536 50.4065C86.9459 50.6149 86.8487 50.8292 86.7738 51.0516C86.6941 51.2905 86.652 51.5481 86.6461 51.808C85.7621 52.027 84.8934 52.2963 84.0761 52.6932C82.7507 53.3371 81.5529 54.3652 81.0085 55.7362C80.9125 55.9786 80.8223 56.2479 80.6034 56.3872C80.4418 56.4903 80.2404 56.5008 80.0484 56.5125C77.9221 56.6366 75.8227 57.2103 73.9283 58.1845C73.3464 58.4831 72.7727 58.8296 72.35 59.3284C71.9589 59.7909 71.7084 60.3716 71.2564 60.7756C70.2905 61.6385 68.7133 61.4406 67.6994 62.2474C67.3657 62.512 67.1163 62.8703 66.8036 63.1606C66.4149 63.5213 65.9372 63.7695 65.4665 64.013C63.4433 65.0598 61.42 66.1065 59.3968 67.1521C58.5983 67.5654 57.7974 67.9799 56.9556 68.296C54.3118 69.2901 51.0357 69.1507 49.002 67.1919C50.4351 67.4261 51.8787 67.6614 53.3294 67.6064C54.7801 67.5513 56.2554 67.1849 57.4216 66.3196C57.8993 65.9648 58.3161 65.5328 58.7809 65.1605C59.5268 64.561 60.3956 64.1172 61.3182 63.862C62.6319 63.499 64.0709 63.5084 65.2546 62.834C66.1995 62.2954 66.895 61.3657 67.8914 60.9301C68.547 60.6445 69.3421 60.5602 69.7975 60.0075C69.9919 59.771 70.1066 59.4631 70.356 59.2828C70.623 59.0884 70.9883 59.086 71.2693 58.9116C71.658 58.6704 71.7856 58.1775 72.0011 57.7735C72.357 57.1073 73.0326 56.6214 73.7773 56.4973C74.207 56.4247 74.6484 56.468 75.0839 56.4387C76.4609 56.3439 77.6739 55.5407 78.8131 54.7621C79.2276 54.4799 79.6514 54.1872 79.9301 53.7704C80.1116 53.4999 80.238 53.1697 80.5167 52.9999C80.7275 52.8723 80.9862 52.8618 81.2309 52.8337C83.3291 52.603 85.0456 50.9697 87.0513 50.4088L87.0536 50.4065Z" fill="#A23611"/>
<path d="M55.0465 69.8579C53.9869 70.633 52.8547 71.435 51.5468 71.5439C51.0949 71.5814 50.6371 71.5322 50.1886 71.5978C49.4463 71.7055 48.7789 72.1165 48.0424 72.2593C47.3704 72.3881 46.6796 72.2874 45.9958 72.2851C45.8225 72.2839 45.6457 72.291 45.4712 72.3109C45.3694 72.0263 45.2066 71.7758 44.9619 71.5545C45.3893 71.5334 45.8237 71.4514 46.2428 71.3671C47.0659 71.2021 47.8891 71.037 48.7122 70.8719C49.0833 70.7969 49.4627 70.7208 49.7952 70.537C49.9732 70.4387 50.1359 70.311 50.3268 70.2396C50.7986 70.0628 51.3173 70.2654 51.8067 70.3813C52.8991 70.64 53.981 70.0324 55.0465 69.8591V69.8579Z" fill="#A23611"/>
<path d="M90.5319 58.4573C89.7767 59.1294 89.0227 59.8295 88.1188 60.2253C86.7641 60.8177 85.1811 60.6737 83.8147 61.2404C82.3032 61.8668 81.2728 63.2613 80.0012 64.2928C79.7284 64.5141 79.4299 64.7249 79.0845 64.7823C78.6559 64.8525 78.2309 64.6757 77.8036 64.6031C76.4395 64.369 75.1199 65.1886 74.0966 66.1194C73.0733 67.0502 72.1495 68.1543 70.8826 68.7093C69.6357 69.2561 68.1885 69.2058 66.9462 69.7666C65.8304 70.2701 64.9885 71.2138 64.0718 72.024C62.0649 73.7979 59.5733 75.005 56.9518 75.5541C56.0362 75.7462 55.1007 75.8597 54.2038 76.1279C53.3608 76.3808 52.5646 76.766 51.7719 77.1488C50.2416 77.89 48.7113 78.63 47.181 79.37C47.0335 78.4274 47.9374 77.6863 48.7359 77.1652C49.8892 76.4124 51.0659 75.6501 52.3901 75.2708C53.7788 74.8739 55.3255 74.8985 56.5408 74.1175C57.0302 73.8037 57.104 73.7007 57.0255 72.6891C59.0605 73.5157 61.586 72.9373 63.0566 71.3051C63.7626 70.5218 64.2673 69.5067 65.1946 69.0044C66.5587 68.2656 68.3992 68.8814 69.6907 68.0232C70.3522 67.5829 70.7339 66.8371 71.2795 66.2611C73.0405 64.4017 76.3318 64.4439 77.7485 62.3106C78.0401 63.0072 78.8245 63.0529 79.3198 62.608C79.8163 62.1631 80.0317 61.4699 80.5246 61.0226C81.5011 60.1363 83.0666 60.5531 84.3135 60.1258C86.133 59.5029 86.8379 57.3157 88.2933 56.0594C88.3928 55.9739 88.497 55.892 88.6035 55.8135C88.3202 56.2666 88.0005 56.7443 88.1106 57.256C88.1972 57.6599 88.5426 57.9632 88.9138 58.1458C89.4184 58.3941 89.9652 58.469 90.5319 58.4585V58.4573Z" fill="#A23611"/>
<path d="M132.394 68.5934C132.166 69.687 131.452 70.626 130.619 71.3707C126.072 75.4253 118.652 74.0859 113.609 77.5036C111.575 78.8817 110.073 80.9506 107.993 82.2596C105.876 83.5932 103.327 84.0393 101.058 85.0931C99.2282 85.9443 97.6054 87.1784 95.8573 88.1865C93.2252 89.7028 90.3285 90.6921 87.4529 91.671C86.9681 91.8361 86.4717 92.0035 85.96 91.9988C85.3816 91.9941 84.8302 91.7717 84.2974 91.5492C82.9954 91.0059 81.6162 90.3678 80.9031 89.1501C80.1854 87.9231 80.3645 86.2382 81.3235 85.1891C81.9054 84.5522 82.8116 83.7771 82.3632 83.0394C82.2484 82.8509 82.0599 82.721 81.9065 82.5629C81.2438 81.8779 81.3153 80.7996 81.1876 79.8547C81.1642 79.6802 81.1256 79.5151 81.0694 79.3606C80.9675 79.0761 80.8048 78.8255 80.5601 78.6042C80.2147 78.2916 79.7053 78.041 78.97 77.849C76.8812 77.2542 75.605 74.6901 76.3918 72.6656C77.1365 70.7466 79.2546 69.7198 81.279 69.3509C83.3034 68.9821 85.4086 69.0828 87.3908 68.5267C91.8389 67.2797 94.7848 63.0412 98.9273 60.9969C102.029 59.4666 105.773 59.1821 108.43 56.9656C109.299 56.2409 110.007 55.3393 110.878 54.6181C112.083 53.6205 113.55 53.0046 114.994 52.4016C116.422 51.8057 117.89 51.2015 119.437 51.1582C120.984 51.116 122.649 51.7612 123.382 53.1229C123.772 53.8465 123.863 54.7258 123.629 55.5138C123.423 56.2093 122.985 56.8111 122.652 57.4562C122.545 57.6646 122.447 57.8789 122.372 58.1014C122.293 58.3402 122.251 58.5978 122.245 58.8577C122.226 59.7324 122.629 60.6222 123.446 60.8634C123.733 60.9477 124.056 60.9501 124.295 61.1304C124.759 61.4805 124.594 62.2169 124.294 62.7157C124.265 62.7649 124.234 62.8141 124.203 62.8632C123.919 63.3164 123.6 63.7941 123.71 64.3057C123.796 64.7097 124.142 65.0129 124.513 65.1956C125.017 65.4438 125.564 65.5187 126.131 65.5082C127.921 65.4731 129.907 64.5785 131.363 65.5995C132.279 66.24 132.623 67.4987 132.395 68.5922L132.394 68.5934Z" fill="#D1581B"/>
<g opacity="0.34">
<path d="M81.7481 77.0013C86.4936 77.0634 90.4557 73.5227 94.9706 72.0615C97.2725 71.3168 99.839 71.0639 101.716 69.5371C102.841 68.6215 103.621 67.3125 104.83 66.5128C105.965 65.7623 107.359 65.5375 108.613 65.0094C110.342 64.28 111.762 62.9932 113.318 61.9453C114.668 61.0367 116.134 60.3026 117.669 59.7652C118.385 59.5146 119.146 59.2898 119.697 58.7676C120.159 58.3285 120.424 57.7244 120.676 57.1378C121.014 56.3498 121.352 55.563 121.691 54.775C121.797 54.5267 121.906 54.2692 121.897 53.9999C121.866 53.1147 120.727 52.7845 119.842 52.7529C117.076 52.6557 114.106 53.1463 112.091 55.0431C111.357 55.7339 110.784 56.5804 110.072 57.2935C107.343 60.0263 103.109 60.388 99.5767 61.95C95.5302 63.5458 91.7484 67.7328 87.4338 69.3123C86.2664 69.7397 85.0897 70.1694 83.8638 70.3778C82.5911 70.5944 81.2739 70.571 80.041 70.9527C78.8081 71.3344 77.6161 72.2664 77.4616 73.5485C77.3375 74.5776 77.937 75.6045 78.7905 76.1934C79.6441 76.7824 80.7107 76.9884 81.7481 77.0025V77.0013Z" fill="#FD8826"/>
</g>
<g opacity="0.34">
<path d="M119.627 61.3271C118.732 61.3833 117.898 61.786 117.119 62.2275C114.939 63.4592 112.954 65.0527 110.645 66.021C108.835 66.7797 106.83 67.1533 105.235 68.2972C104.37 68.9166 103.669 69.735 102.846 70.4082C100.607 72.2383 97.6532 72.867 95.0059 74.0285C92.1642 75.2767 89.5193 77.2039 86.4317 77.52C85.3358 77.6324 83.9448 77.7155 83.5702 78.7506C82.8957 80.8207 83.3442 81.6367 84.0444 82.7736C84.2083 83.0394 84.3827 83.3169 84.6544 83.4726C85.2222 83.8005 85.9259 83.475 86.5184 83.194C88.7863 82.1168 91.2966 81.6929 93.7238 81.0501C95.4848 80.5841 97.2141 79.9975 98.8967 79.2974C99.8088 78.9168 100.731 78.4871 101.412 77.7706C101.886 77.2718 102.222 76.6547 102.703 76.163C103.558 75.2884 104.772 74.8961 105.903 74.4313C107.61 73.7299 109.214 72.8061 110.814 71.8847C113.421 70.3825 116.029 68.8814 118.636 67.3792C119.396 66.9413 120.161 66.5011 120.823 65.9262C121.83 65.0527 122.592 63.5704 121.934 62.4101C121.493 61.6303 120.521 61.2697 119.627 61.3259V61.3271Z" fill="#FD8826"/>
</g>
<g opacity="0.34">
<path d="M130.394 67.8675C129.799 66.9647 128.592 66.7013 127.51 66.7013C124.822 66.7036 122.268 67.8394 119.918 69.1449C117.568 70.4504 115.301 71.9573 112.755 72.8178C111.601 73.2077 110.368 73.4782 109.408 74.2252C108.654 74.8118 108.119 75.6595 107.31 76.1688C106.458 76.7063 105.41 76.8023 104.446 77.0973C101.428 78.0211 99.3812 80.8242 96.5863 82.2901C93.1979 84.0663 89.8949 84.4562 85.3215 85.7581C84.5452 85.9876 83.7444 86.23 83.1285 86.7545C82.5126 87.2803 82.1321 88.1701 82.4424 88.9183C82.6157 89.3363 82.9763 89.6501 83.3592 89.8913C85.4691 91.2167 88.2393 90.6418 90.547 89.7004C94.9366 87.909 98.791 84.9819 103.184 83.1975C104.853 82.5196 106.635 81.9856 108.001 80.8125C108.911 80.0315 109.583 79.0082 110.463 78.1932C111.912 76.8538 113.828 76.1583 115.699 75.5331C119.007 74.4278 122.357 73.4325 125.77 72.7195C127.072 72.4479 128.437 72.1926 129.486 71.3765C130.535 70.5604 131.127 68.9763 130.395 67.8663L130.394 67.8675Z" fill="#FD8826"/>
</g>
<path d="M77.5019 75.128C77.4211 75.0249 77.3521 74.9114 77.2982 74.7896C77.2443 74.6678 77.2092 74.539 77.1846 74.4091C77.1378 74.1468 77.1483 73.874 77.2069 73.6117C77.235 73.4806 77.2783 73.3518 77.3333 73.2288C77.3872 73.1047 77.4516 72.9865 77.5265 72.8741C77.6729 72.6469 77.8544 72.4444 78.0546 72.264C78.2548 72.0837 78.4726 71.9245 78.7021 71.7852C78.8156 71.7137 78.935 71.6529 79.0521 71.5896C79.1692 71.5229 79.2922 71.4714 79.4128 71.414C79.901 71.1939 80.4115 71.0288 80.9278 70.9012C81.9641 70.6483 83.0178 70.5335 84.0505 70.3719C84.5669 70.2912 85.0774 70.1987 85.5867 70.0863C86.0948 69.975 86.5983 69.8415 87.0983 69.6952C89.0934 69.1016 91.0206 68.2738 92.8554 67.2903C93.7686 66.7938 94.6561 66.254 95.4804 65.6311C96.307 65.0106 97.0833 64.3104 97.8807 63.6184C98.6804 62.93 99.5058 62.2485 100.419 61.6737C101.332 61.0988 102.311 60.6503 103.302 60.2675C104.292 59.8846 105.295 59.5567 106.282 59.2067C106.774 59.0322 107.264 58.8507 107.746 58.6552C108.229 58.462 108.704 58.2536 109.164 58.0182C109.624 57.7841 110.072 57.5253 110.495 57.2349C110.92 56.9434 111.317 56.6214 111.698 56.2678C112.078 55.9154 112.446 55.5395 112.831 55.1742C113.025 54.9916 113.221 54.8124 113.427 54.6403C113.48 54.5982 113.53 54.5537 113.583 54.5139L113.743 54.3921L113.904 54.2703L114.07 54.1579C115.842 52.9508 118.066 52.459 120.144 52.8068C119.621 52.7529 119.094 52.7506 118.573 52.7974C118.052 52.8419 117.537 52.9332 117.035 53.0702C116.534 53.2095 116.043 53.3852 115.576 53.6123C115.109 53.8371 114.664 54.1052 114.249 54.412C113.41 55.0127 112.741 55.8194 111.985 56.5676C111.609 56.9446 111.193 57.2947 110.759 57.6084C110.323 57.9222 109.864 58.2032 109.394 58.4561C108.923 58.7102 108.439 58.9362 107.95 59.1446C107.461 59.353 106.967 59.5427 106.471 59.7265C105.481 60.0942 104.488 60.4349 103.523 60.8236C103.041 61.0191 102.563 61.2205 102.099 61.4477C101.634 61.6737 101.184 61.9195 100.752 62.1947C99.8852 62.7438 99.0866 63.4089 98.2963 64.095C97.5025 64.7776 96.7122 65.4836 95.8527 66.1229C94.9945 66.7622 94.0801 67.3219 93.1387 67.8148C92.668 68.0607 92.1915 68.2948 91.7091 68.515C91.2279 68.7363 90.742 68.9494 90.249 69.1472C89.7573 69.3451 89.2597 69.5324 88.7574 69.7034C88.2551 69.8743 87.7457 70.0265 87.2329 70.1659C86.2084 70.4434 85.1617 70.6529 84.1091 70.7782C83.06 70.907 82.0156 70.9902 80.9981 71.1997C80.4899 71.3028 79.9888 71.4421 79.5099 71.6353C79.3917 71.6868 79.2699 71.7313 79.1552 71.791C79.0393 71.8472 78.921 71.9023 78.8098 71.9655C78.585 72.0919 78.3684 72.2313 78.1693 72.394C77.9703 72.5568 77.7888 72.7394 77.6389 72.9478C77.564 73.0509 77.4961 73.1609 77.4399 73.2757C77.3825 73.3904 77.3357 73.5098 77.3017 73.6339C77.2303 73.881 77.2045 74.1433 77.2338 74.4009C77.2502 74.5297 77.2771 74.6573 77.3228 74.7802C77.3684 74.902 77.4293 75.0191 77.5043 75.1268L77.5019 75.128Z" fill="#FD8826"/>
<path d="M88.1357 73.6585C88.7469 73.6714 89.3523 73.641 89.9342 73.5204C90.5149 73.4033 91.0734 73.2054 91.5652 72.9092C92.0569 72.6153 92.4808 72.2113 92.9023 71.7863C93.3238 71.3601 93.743 70.9035 94.2464 70.5054C94.4982 70.3087 94.7675 70.1237 95.0649 69.9785C95.3611 69.8333 95.6714 69.7256 95.9828 69.6507C96.2943 69.5757 96.6069 69.5266 96.9148 69.4926C97.2228 69.4575 97.5283 69.4352 97.8293 69.4118C98.1302 69.3884 98.4287 69.3627 98.7226 69.3228C99.0165 69.2842 99.3081 69.2268 99.5984 69.1566C100.183 69.0196 100.758 68.8205 101.339 68.6332C100.815 68.9482 100.268 69.2257 99.6909 69.4528C99.4017 69.564 99.1043 69.6601 98.7987 69.7315C98.4955 69.8041 98.1899 69.8579 97.8866 69.9059C97.2825 70.0019 96.6865 70.0734 96.1327 70.2314C95.5754 70.3836 95.0859 70.6377 94.6363 71.003C94.4092 71.181 94.1914 71.3777 93.976 71.5849C93.7582 71.7898 93.5439 72.0053 93.3191 72.216C93.0943 72.4268 92.8613 72.6375 92.6107 72.8296C92.4866 72.9279 92.3543 73.0181 92.222 73.1071L92.016 73.2312C91.9469 73.2721 91.8743 73.3073 91.8029 73.3447C91.2256 73.6328 90.5981 73.785 89.9752 73.8271C89.3511 73.8658 88.7294 73.8107 88.1357 73.6597V73.6585Z" fill="#FD8826"/>
<path d="M112.458 62.0987C112.572 62.0343 112.684 61.9652 112.787 61.8891C112.892 61.8142 112.992 61.7334 113.084 61.6467C113.269 61.4734 113.432 61.2791 113.564 61.0707C113.698 60.8646 113.796 60.6363 113.905 60.3962C113.959 60.2768 114.016 60.1539 114.082 60.0321C114.148 59.9103 114.221 59.7862 114.312 59.6715C114.493 59.4385 114.72 59.2476 114.961 59.0966C115.202 58.9432 115.459 58.8285 115.716 58.7325C115.974 58.6364 116.231 58.565 116.482 58.4924C116.732 58.421 116.977 58.3543 117.209 58.2711C117.326 58.2302 117.437 58.188 117.551 58.1388C117.664 58.0897 117.779 58.0358 117.895 57.9808C118.129 57.8719 118.373 57.7536 118.637 57.66C118.904 57.5663 119.162 57.5054 119.397 57.4352C119.516 57.4 119.626 57.3602 119.733 57.3134C119.842 57.2665 119.951 57.2115 120.06 57.1506C120.277 57.03 120.5 56.8895 120.726 56.7572C120.951 56.6237 121.177 56.4926 121.404 56.3626L121.744 56.1706C121.855 56.1074 121.959 56.0418 122.053 55.9634C122.146 55.8849 122.226 55.7924 122.278 55.68C122.333 55.57 122.356 55.4412 122.329 55.3112C122.391 55.4283 122.398 55.5747 122.368 55.7105C122.337 55.8463 122.266 55.9751 122.179 56.084C122.093 56.1952 121.987 56.2865 121.885 56.372C121.782 56.4575 121.68 56.5371 121.577 56.6191C121.373 56.7806 121.166 56.9422 120.959 57.1003L120.647 57.338C120.541 57.4164 120.435 57.4972 120.321 57.5733C120.209 57.6494 120.09 57.7232 119.965 57.7911C119.839 57.8578 119.705 57.9152 119.578 57.9632C119.319 58.0616 119.071 58.1295 118.849 58.222C118.626 58.3121 118.401 58.4257 118.167 58.5451C118.048 58.6037 117.928 58.661 117.803 58.7172C117.677 58.7734 117.546 58.825 117.416 58.8706C116.895 59.0498 116.381 59.1493 115.91 59.3003C115.442 59.4514 115.002 59.6598 114.689 59.9935C114.534 60.1597 114.402 60.3693 114.268 60.5918C114.134 60.8131 113.991 61.0508 113.808 61.2592C113.445 61.6737 112.966 61.9734 112.454 62.101L112.458 62.0987Z" fill="#FD8826"/>
<path d="M122.169 62.7532C122.137 63.0108 122.101 63.2683 122.055 63.5248C122.007 63.7812 121.949 64.0364 121.871 64.2893C121.793 64.5411 121.69 64.7893 121.559 65.0246C121.427 65.26 121.263 65.4824 121.065 65.6745C120.866 65.8641 120.641 66.0257 120.403 66.1604C120.164 66.2927 119.915 66.4004 119.661 66.4894C119.406 66.5772 119.148 66.6451 118.888 66.7036C118.629 66.7622 118.372 66.8078 118.118 66.8559C117.61 66.9519 117.111 67.0408 116.648 67.2024C116.416 67.282 116.193 67.3734 116.002 67.4928C115.906 67.5525 115.818 67.6181 115.741 67.6907C115.665 67.7633 115.599 67.8429 115.531 67.9377C115.398 68.1262 115.277 68.3639 115.091 68.6004C114.997 68.7187 114.883 68.8358 114.743 68.9306C114.597 69.0278 114.426 69.0945 114.256 69.1215C114.085 69.1484 113.915 69.1367 113.753 69.1016C113.59 69.0664 113.438 69.002 113.297 68.9142C113.158 68.8252 113.028 68.7152 112.927 68.5735C112.825 68.4342 112.749 68.2702 112.713 68.0946L113.298 68.1836C113.18 68.3967 113.043 68.5993 112.891 68.7854C112.735 68.9692 112.567 69.1402 112.388 69.2971C112.207 69.4516 112.019 69.5945 111.824 69.7244C111.628 69.8521 111.427 69.9703 111.224 70.078C110.815 70.2935 110.389 70.4679 109.967 70.626C109.545 70.7829 109.122 70.9246 108.706 71.0744C108.291 71.2243 107.883 71.3824 107.491 71.5709C107.297 71.6657 107.102 71.7676 106.92 71.88C106.736 71.9936 106.561 72.1165 106.399 72.2547C106.237 72.394 106.091 72.5474 105.971 72.723C105.91 72.8097 105.855 72.9033 105.803 72.9982C105.75 73.093 105.701 73.1914 105.653 73.2909C105.558 73.4899 105.47 73.6972 105.371 73.8986C105.27 74.0999 105.159 74.2966 105.021 74.4734C105.243 74.0835 105.353 73.6538 105.502 73.23C105.575 73.0169 105.659 72.8038 105.776 72.6012C105.889 72.3963 106.037 72.2113 106.198 72.0439C106.36 71.8753 106.54 71.7278 106.728 71.5943C106.915 71.4597 107.109 71.3402 107.307 71.2255C107.505 71.1107 107.708 71.0077 107.913 70.9094C108.117 70.8122 108.325 70.722 108.532 70.633C109.361 70.2829 110.197 69.9891 110.945 69.5675C111.132 69.4622 111.313 69.3498 111.487 69.2292C111.659 69.1062 111.826 68.9786 111.981 68.8393C112.135 68.6988 112.277 68.5501 112.407 68.392C112.534 68.2316 112.647 68.063 112.745 67.8862L113.143 67.1626L113.33 67.9752C113.348 68.0536 113.383 68.1286 113.433 68.1988C113.482 68.2691 113.555 68.33 113.633 68.3791C113.79 68.4822 113.989 68.5243 114.16 68.5009C114.246 68.4869 114.319 68.4576 114.391 68.4131C114.466 68.3627 114.536 68.2937 114.605 68.2105C114.744 68.0431 114.865 67.8171 115.032 67.5853C115.116 67.4694 115.216 67.3488 115.331 67.2457C115.446 67.1439 115.569 67.0572 115.694 66.9835C115.947 66.8359 116.209 66.7376 116.469 66.6556C116.73 66.5748 116.994 66.5163 117.256 66.4683C117.517 66.4191 117.777 66.3817 118.035 66.3465C118.549 66.2751 119.05 66.2084 119.53 66.0737C119.77 66.007 120.004 65.9262 120.226 65.822C120.448 65.7166 120.657 65.5878 120.845 65.4333C121.03 65.2764 121.197 65.0949 121.336 64.8888C121.478 64.6839 121.593 64.4591 121.695 64.2261C121.797 63.9931 121.881 63.7496 121.955 63.5025C122.032 63.2566 122.097 63.0049 122.167 62.7555L122.169 62.7532Z" fill="#FD8826"/>
<path d="M83.2275 87.1339C84.6724 85.9256 86.3186 84.9222 88.1264 84.284C88.5783 84.1271 89.0385 83.9878 89.508 83.8848C89.9763 83.7747 90.4494 83.7021 90.9154 83.6307C91.3825 83.5605 91.8427 83.496 92.3005 83.4141C92.7583 83.3345 93.2149 83.2455 93.6692 83.1448C94.1235 83.0453 94.5755 82.9364 95.0251 82.8146C95.4747 82.6964 95.9161 82.564 96.3493 82.4107C96.7825 82.2573 97.204 82.0828 97.6068 81.8697C97.8117 81.769 98.0073 81.6496 98.2063 81.536C98.4018 81.4143 98.5985 81.2948 98.7894 81.1625L98.9334 81.0665L99.0762 80.967C99.1711 80.9003 99.2671 80.8347 99.3619 80.7656L99.9275 80.3511C100.306 80.0736 100.68 79.788 101.064 79.5116C101.16 79.4426 101.259 79.3758 101.355 79.3079C101.452 79.24 101.549 79.1733 101.649 79.1089C101.748 79.0445 101.845 78.9765 101.946 78.9145L102.249 78.7283C102.351 78.6674 102.455 78.6112 102.558 78.5527C102.61 78.5246 102.661 78.4942 102.714 78.4672L102.872 78.3864C103.082 78.2775 103.301 78.185 103.517 78.0937L103.215 78.2775C103.113 78.3361 103.019 78.4052 102.92 78.4696L102.774 78.5667C102.725 78.5995 102.678 78.6347 102.631 78.6686C102.536 78.7377 102.44 78.8033 102.348 78.8747C101.974 79.1557 101.612 79.4531 101.256 79.7575C100.54 80.3617 99.8455 80.9998 99.0774 81.57C98.8877 81.714 98.6887 81.8498 98.4908 81.9856C98.2871 82.1144 98.0857 82.2467 97.8714 82.3615C97.4523 82.605 97.005 82.8006 96.5566 82.9738C95.6527 83.3146 94.7335 83.5523 93.8062 83.7618C93.3414 83.8625 92.8742 83.9527 92.4047 84.0288C91.9352 84.1049 91.4633 84.1658 90.9985 84.2232C90.5337 84.2817 90.0735 84.3426 89.6228 84.4292L89.2844 84.4971L88.9483 84.5756C88.8359 84.6002 88.7247 84.633 88.6135 84.6611L88.446 84.7055L88.2798 84.7559C88.1697 84.7898 88.0573 84.8203 87.9484 84.8578L87.6182 84.9666C87.4005 85.0451 87.1815 85.1224 86.9661 85.2078C86.5329 85.3764 86.1067 85.5626 85.6875 85.7687C85.266 85.9701 84.8515 86.1878 84.4429 86.4173C84.3399 86.4735 84.2392 86.5333 84.1373 86.5918C84.0354 86.6492 83.9347 86.7101 83.834 86.7709C83.6303 86.888 83.4324 87.0145 83.2299 87.1362L83.2275 87.1339Z" fill="#FD8826"/>
<path d="M83.0234 89.6559C84.1252 90.1863 85.3406 90.4427 86.536 90.3865C87.1331 90.3596 87.7244 90.2566 88.304 90.102C88.8836 89.9486 89.4561 89.7554 90.0216 89.5423C90.586 89.3281 91.1375 89.0904 91.6644 88.8141C91.9278 88.6747 92.183 88.526 92.4313 88.3645C92.6807 88.2029 92.9242 88.0296 93.1677 87.8505C93.6548 87.4922 94.1419 87.1152 94.6653 86.7698C95.191 86.4255 95.7448 86.1305 96.3021 85.8635C96.8618 85.5977 97.4273 85.3565 97.987 85.1153C98.549 84.8765 99.1122 84.6365 99.6789 84.4046C100.813 83.9421 101.963 83.5031 103.141 83.1436C103.729 82.9645 104.312 82.7982 104.869 82.5863C105.427 82.3744 105.957 82.1027 106.401 81.7175C106.85 81.3358 107.224 80.8464 107.647 80.398C107.858 80.1743 108.083 79.9577 108.336 79.7762C108.589 79.5971 108.871 79.4554 109.171 79.3875C108.882 79.4905 108.622 79.6533 108.396 79.8512C108.168 80.0479 107.969 80.275 107.78 80.5115C107.593 80.7492 107.412 80.9939 107.224 81.2375C107.035 81.481 106.839 81.7222 106.613 81.9447C106.157 82.3908 105.599 82.7139 105.03 82.968C104.458 83.2232 103.868 83.4094 103.297 83.612C103.011 83.7138 102.727 83.8169 102.443 83.9257C102.16 84.0323 101.877 84.1424 101.596 84.2559C101.032 84.4831 100.472 84.7161 99.913 84.9573C99.3545 85.1985 98.7949 85.442 98.2364 85.6879C97.6767 85.9326 97.1182 86.1726 96.5761 86.4325C96.0316 86.6901 95.5048 86.9711 95.006 87.292C94.5049 87.6116 94.0225 87.9804 93.5178 88.3352C93.2649 88.5132 93.0085 88.6876 92.7415 88.8539C92.4758 89.0201 92.1971 89.17 91.9173 89.3093C91.6363 89.4475 91.3506 89.574 91.0614 89.6887C90.7722 89.8034 90.4795 89.9076 90.1867 90.006C89.6001 90.198 89.0089 90.3795 88.3988 90.5036C87.79 90.6289 87.1659 90.7062 86.5407 90.6956C85.2926 90.6675 84.0608 90.3104 83.0246 89.6571L83.0234 89.6559Z" fill="#FD8826"/>
<path d="M127.402 66.1604C127.621 66.1299 127.841 66.1112 128.062 66.0948C128.284 66.0808 128.505 66.0737 128.728 66.0737C128.95 66.0714 129.172 66.0796 129.395 66.0936C129.619 66.1065 129.846 66.1323 130.072 66.1791C130.185 66.2049 130.298 66.2341 130.409 66.2763C130.52 66.3161 130.63 66.3653 130.737 66.4273C130.844 66.4859 130.944 66.5655 131.038 66.651C131.129 66.7411 131.21 66.8442 131.274 66.9577C131.404 67.1849 131.456 67.4565 131.444 67.7094C131.43 67.9635 131.369 68.2059 131.28 68.4271C131.191 68.6496 131.081 68.858 130.959 69.0547C130.836 69.2503 130.709 69.4329 130.575 69.6167C130.308 69.9832 130.011 70.3274 129.69 70.6518C129.369 70.9749 129.02 71.2735 128.647 71.5405C128.272 71.8051 127.872 72.0369 127.451 72.2277C127.029 72.4151 126.592 72.5591 126.149 72.6692C125.707 72.7769 125.261 72.8542 124.816 72.9092C124.371 72.9642 123.927 73.0029 123.487 73.0333C123.047 73.0661 122.607 73.0918 122.172 73.1281C120.434 73.2569 118.717 73.6211 117.04 74.1761C117.827 73.7721 118.657 73.4513 119.507 73.1902C119.933 73.0626 120.365 72.9537 120.801 72.8588C121.236 72.764 121.678 72.6914 122.119 72.6329C123 72.5123 123.878 72.4444 124.734 72.3144C125.161 72.2488 125.584 72.1715 125.996 72.0627C126.408 71.9573 126.808 71.8215 127.191 71.6505C127.957 71.3086 128.656 70.8134 129.27 70.2244C129.578 69.9305 129.864 69.6132 130.131 69.2795C130.264 69.1121 130.395 68.9376 130.514 68.7667C130.634 68.5958 130.738 68.4166 130.822 68.234C130.906 68.0513 130.965 67.8628 130.987 67.6778C130.995 67.5853 130.998 67.4928 130.983 67.405C130.972 67.316 130.944 67.2305 130.908 67.1486C130.869 67.0678 130.82 66.9917 130.759 66.9214C130.696 66.8535 130.627 66.788 130.545 66.7341C130.384 66.6217 130.192 66.5432 129.993 66.4788C129.793 66.4156 129.583 66.37 129.369 66.3372C129.154 66.302 128.937 66.2751 128.719 66.2494C128.502 66.2236 128.283 66.206 128.064 66.192C127.845 66.1756 127.625 66.1686 127.403 66.1627L127.402 66.1604Z" fill="#FD8826"/>
<path d="M81.6553 86.1715C81.7747 85.908 81.9246 85.6633 82.0885 85.4268C82.2512 85.1903 82.4421 84.969 82.6165 84.7594C82.7032 84.654 82.7863 84.5498 82.8613 84.4456C82.9362 84.3402 83.0006 84.2372 83.0568 84.1272C83.1118 84.0183 83.1622 83.9059 83.1985 83.7911C83.2359 83.6775 83.264 83.5616 83.2781 83.4457C83.2945 83.3298 83.298 83.2151 83.2863 83.1027L83.2769 83.0183C83.2734 82.9902 83.2664 82.9633 83.2617 82.9352C83.2476 82.8802 83.2324 82.8252 83.2148 82.769C83.1387 82.5465 83.0111 82.324 82.8636 82.0945C82.7161 81.8651 82.5521 81.6285 82.4163 81.3674C82.2829 81.1063 82.1786 80.8136 82.1833 80.5233C82.3145 80.782 82.4842 80.9904 82.6704 81.1895C82.8589 81.3873 83.0603 81.577 83.257 81.7913C83.305 81.8452 83.3542 81.9014 83.4022 81.9576C83.4479 82.0173 83.4959 82.0735 83.5392 82.139L83.6047 82.2339C83.6258 82.2667 83.6446 82.3018 83.6645 82.3357C83.7054 82.4025 83.7382 82.4786 83.7733 82.5512C83.7921 82.5875 83.8026 82.6285 83.8178 82.6671C83.8307 82.7069 83.8459 82.7455 83.8565 82.7853C83.8658 82.8263 83.8776 82.8673 83.8858 82.9083C83.8928 82.9493 83.901 82.9914 83.9068 83.0324C83.9267 83.1987 83.9256 83.3661 83.9045 83.5288C83.8811 83.6916 83.8413 83.8485 83.7862 83.9995C83.7289 84.1494 83.6598 84.2934 83.5755 84.4269C83.4912 84.5604 83.3952 84.688 83.291 84.7981C83.1879 84.9116 83.079 85.0111 82.9701 85.106C82.7489 85.2945 82.5322 85.4596 82.3156 85.6364C82.0979 85.8108 81.8824 85.9923 81.6553 86.1703V86.1715Z" fill="#FD8826"/>
<path d="M122.651 57.4586C122.544 57.667 122.446 57.8812 122.371 58.1037C122.292 58.3426 122.25 58.6001 122.244 58.8601C121.36 59.079 120.491 59.3483 119.674 59.7452C118.348 60.3892 117.151 61.4172 116.606 62.7883C116.51 63.0307 116.42 63.3 116.201 63.4393C116.039 63.5423 115.838 63.5529 115.646 63.5646C113.52 63.6887 111.42 64.2624 109.526 65.2366C108.944 65.5351 108.37 65.8817 107.948 66.3805C107.557 66.843 107.306 67.4237 106.854 67.8277C105.888 68.6906 104.311 68.4927 103.297 69.2994C102.963 69.564 102.714 69.9223 102.401 70.2127C102.013 70.5733 101.535 70.8215 101.064 71.0651C99.0409 72.1118 97.0177 73.1586 94.9945 74.2041C94.1959 74.6175 93.3951 75.0319 92.5532 75.3481C89.9094 76.3421 86.6334 76.2028 84.5996 74.2439C86.0327 74.4781 87.4764 74.7135 88.9271 74.6584C90.3778 74.6034 91.8531 74.2369 93.0192 73.3717C93.4969 73.0169 93.9138 72.5848 94.3786 72.2125C95.1244 71.613 95.9932 71.1693 96.9158 70.914C98.2295 70.5511 99.6685 70.5604 100.852 69.886C101.797 69.3474 102.493 68.4178 103.489 67.9822C104.145 67.6965 104.94 67.6122 105.395 67.0596C105.59 66.8231 105.704 66.5151 105.954 66.3348C106.221 66.1405 106.586 66.1381 106.867 65.9637C107.256 65.7225 107.383 65.2295 107.599 64.8256C107.955 64.1594 108.63 63.6735 109.375 63.5494C109.805 63.4768 110.246 63.5201 110.682 63.4908C112.059 63.396 113.272 62.5928 114.411 61.8141C114.825 61.532 115.249 61.2392 115.528 60.8224C115.709 60.552 115.836 60.2218 116.114 60.052C116.325 59.9244 116.584 59.9138 116.829 59.8857C118.927 59.6551 120.643 58.0217 122.649 57.4609L122.651 57.4586Z" fill="#A23611"/>
<path d="M90.6451 76.91C89.5855 77.6851 88.4533 78.4871 87.1454 78.596C86.6935 78.6335 86.2357 78.5843 85.7872 78.6499C85.0449 78.7576 84.3775 79.1686 83.6411 79.3114C82.969 79.4402 82.2782 79.3395 81.5944 79.3372C81.4211 79.336 81.2443 79.343 81.0699 79.3629C80.968 79.0784 80.8053 78.8279 80.5605 78.6066C80.9879 78.5855 81.4223 78.5035 81.8415 78.4192C82.6646 78.2541 83.4877 78.0891 84.3108 77.924C84.682 77.849 85.0613 77.7729 85.3938 77.5891C85.5718 77.4907 85.7346 77.3631 85.9254 77.2917C86.3973 77.1149 86.916 77.3175 87.4054 77.4334C88.4978 77.6921 89.5797 77.0845 90.6451 76.9112V76.91Z" fill="#A23611"/>
<path d="M126.13 65.5094C125.374 66.1814 124.62 66.8816 123.716 67.2774C122.362 67.8698 120.779 67.7258 119.412 68.2925C117.901 68.9189 116.87 70.3134 115.599 71.3449C115.326 71.5662 115.028 71.777 114.682 71.8343C114.254 71.9046 113.829 71.7278 113.401 71.6552C112.037 71.421 110.718 72.2406 109.694 73.1714C108.671 74.1023 107.747 75.2064 106.48 75.7614C105.233 76.3082 103.786 76.2578 102.544 76.8187C101.428 77.3221 100.586 78.2658 99.6694 79.0761C97.6626 80.8499 95.171 82.0571 92.5494 82.6062C91.6338 82.7982 90.6983 82.9118 89.8014 83.1799C88.9584 83.4328 88.1622 83.818 87.3696 84.2009C85.8393 84.9421 84.309 85.682 82.7786 86.422C82.6311 85.4795 83.535 84.7383 84.3335 84.2173C85.4868 83.4644 86.6635 82.7022 87.9878 82.3229C89.3764 81.9259 90.9231 81.9505 92.1385 81.1696C92.6279 80.8558 92.7017 80.7527 92.6232 79.7411C94.6582 80.5677 97.1837 79.9893 98.6543 78.3572C99.3603 77.5739 99.8649 76.5587 100.792 76.0564C102.156 75.3176 103.997 75.9335 105.288 75.0753C105.95 74.635 106.332 73.8892 106.877 73.3131C108.638 71.4538 111.929 71.4959 113.346 69.3626C113.638 70.0593 114.422 70.105 114.917 69.6601C115.414 69.2151 115.629 68.522 116.122 68.0747C117.099 67.1884 118.664 67.6052 119.911 67.1778C121.731 66.5549 122.436 64.3678 123.891 63.1115C123.99 63.026 124.095 62.944 124.201 62.8656C123.918 63.3187 123.598 63.7964 123.708 64.3081C123.795 64.712 124.14 65.0153 124.511 65.1979C125.016 65.4461 125.563 65.5211 126.13 65.5105V65.5094Z" fill="#A23611"/>
</g>
<defs>
<clipPath id="clip0_236_173515">
<rect width="132.361" height="92" fill="white" transform="translate(0.100586)"/>
</clipPath>
</defs>
</svg>
