<svg width="102" height="92" viewBox="0 0 102 92" fill="none" xmlns="http://www.w3.org/2000/svg">
<g clip-path="url(#clip0_251_177646)">
<path d="M91.4377 14.202C90.6241 12.8956 89.5124 11.8469 87.9897 11.1915C86.15 10.4 84.155 10.0659 82.3806 9.11072C80.2351 7.95528 78.5067 5.94032 76.2628 5.04098C72.1128 3.37779 67.6067 5.93701 63.1918 6.03269C62.1121 6.05592 61.0065 5.92207 60.033 5.40768C58.3798 4.53433 57.3278 2.70245 55.8361 1.52821C52.5451 -1.06197 47.9687 0.0597225 44.2458 1.79923C40.5223 3.5393 36.718 5.84906 32.703 5.31753C30.4735 5.02272 28.1643 3.86342 26.0824 4.79153C24.5697 5.46576 23.5945 7.09244 22.2339 8.08526C19.8766 9.80597 16.7985 9.39556 13.9766 9.19866C13.1005 9.13727 12.1469 9.12731 11.4401 9.70088C11.1077 9.97024 10.8615 10.3464 10.6215 10.7164C9.64746 12.2153 8.78075 13.7806 8.14744 15.3641C3.1048 17.9698 0.181641 21.0661 0.181641 24.3869V37.0015C0.181641 37.4678 0.239163 37.9302 0.35255 38.3871C1.57712 53.9094 9.78131 67.4682 21.8279 75.9235C21.2472 76.9273 20.9385 77.9777 20.9385 79.059C20.9385 86.2057 34.4088 91.9994 51.0246 91.9994C67.6404 91.9994 81.1107 86.2057 81.1107 79.059C81.1107 77.9534 80.7882 76.8798 80.1815 75.8554C92.0152 67.5085 100.12 54.2291 101.508 39.0076C101.745 38.35 101.867 37.6802 101.867 37.0015V24.3869C101.867 20.5567 97.9798 17.0262 91.4372 14.202H91.4377Z" fill="#F2A422"/>
<path d="M93.2649 19.784C93.235 19.5334 93.1963 19.2779 93.1482 19.0168C92.9861 18.1379 92.7765 17.29 92.5027 16.4913C92.3993 16.1893 92.287 15.8945 92.1642 15.608C91.9529 15.1136 91.7123 14.6434 91.4374 14.202C90.6238 12.8956 89.5121 11.8469 87.9894 11.1915C86.1497 10.4 84.1547 10.0659 82.3803 9.11072C80.2348 7.95528 78.5064 5.94032 76.2625 5.04098C72.1125 3.37779 67.6064 5.93701 63.1915 6.03269C62.1118 6.05592 61.0062 5.92207 60.0327 5.40768C58.3795 4.53433 57.3275 2.70245 55.8358 1.52821C52.5448 -1.06197 47.9684 0.0597225 44.2455 1.79923C40.522 3.5393 36.7177 5.84906 32.7027 5.31753C30.4732 5.02272 28.164 3.86342 26.0821 4.79153C24.5694 5.46576 23.5942 7.09244 22.2336 8.08526C19.8763 9.80597 16.7982 9.39556 13.9763 9.19866C13.1002 9.13727 12.1466 9.12731 11.4398 9.70088C11.1074 9.97024 10.8612 10.3464 10.6212 10.7164C9.64717 12.2153 8.78045 13.7806 8.14715 15.3641C7.35178 17.3531 6.92534 19.3708 7.11837 21.321C7.2915 23.0661 7.96075 24.7575 9.30645 26.3255C9.56862 26.6308 9.85624 26.9323 10.1715 27.2276C14.0349 30.856 19.3741 32.6226 24.2314 33.8671C32.9649 36.1044 42.058 36.3146 50.9845 36.3146C62.7474 36.3146 76.633 35.6907 87.329 29.5922C89.1802 28.5363 90.7814 27.3062 91.8644 25.7614C92.9872 24.1596 93.553 22.2193 93.2643 19.784H93.2649Z" fill="#FBC171"/>
<path d="M82.8562 25.232C80.6383 24.2337 77.9845 24.9732 75.6714 24.2204C73.3401 23.4621 71.647 21.2851 69.2748 20.6656C67.3632 20.1662 65.3466 20.7652 63.3726 20.685C59.4046 20.524 56.1297 17.7209 52.8918 15.4216C48.8746 12.5698 44.0129 10.2418 39.1666 11.1307C33.5326 12.1644 29.0453 17.3492 23.3174 17.3392C20.7659 17.3348 18.3344 16.2701 15.7985 15.9852C13.9345 15.7756 11.643 16.1346 10.2835 17.5461C8.67061 19.2209 9.67284 21.7635 10.5274 23.6148C11.1568 24.9782 11.9162 26.2973 12.9422 27.3936C15.7996 30.4462 20.1497 31.616 24.1044 32.4594C29.1681 33.5391 34.3711 34.1674 39.5272 34.5911C45.5095 35.0828 51.524 35.1923 57.5208 34.9186C59.0169 34.85 60.5119 34.7582 62.0059 34.642C68.9164 34.1044 76.0254 33.2061 82.1084 29.6204C83.3225 28.9047 84.6665 27.6154 84.0963 26.3261C83.8679 25.8106 83.3706 25.4627 82.8562 25.2315V25.232Z" fill="#F6AD58"/>
<path d="M88.5971 18.2613C89.7669 16.1689 88.7907 13.2137 86.6601 12.1152C84.935 11.2258 82.8011 11.4631 81.0666 10.5931C79.6086 9.8624 78.6296 8.45309 77.374 7.41215C75.02 5.45969 71.2954 4.98513 68.921 6.91325C67.9608 7.69313 67.2296 8.82146 66.0647 9.23684C64.7489 9.70532 63.0802 9.18042 62.0365 10.108C61.5708 10.5217 61.2771 11.197 60.6697 11.3359C59.4264 11.6207 58.9264 9.68762 57.9385 9.301C56.1564 8.60354 54.866 10.254 54.9269 11.8298C55.0369 14.6921 59.6548 17.8702 62.2964 17.9997C63.5686 18.0622 64.8009 17.5987 66.0597 17.4051C72.5139 16.4134 78.7468 22.4909 85.0522 20.7934C86.4925 20.4057 87.8692 19.5627 88.5971 18.2607V18.2613Z" fill="#F6AD58"/>
<path d="M23.2788 16.1799C24.9309 16.0184 26.4486 15.1567 27.6936 14.0582C28.3192 13.5062 28.9121 12.8762 29.6892 12.5737C30.3607 12.3121 31.1035 12.3226 31.8093 12.1788C34.4537 11.6406 36.5876 8.9669 39.2579 9.35407C39.9012 9.44699 40.54 9.72188 41.1789 9.60186C41.8177 9.48184 42.3647 8.67043 41.9311 8.18647C41.5008 6.81422 39.7513 6.3485 38.3265 6.54043C36.9017 6.73236 35.5217 7.35128 34.087 7.25227C32.3381 7.1317 30.697 5.95193 28.9691 6.24784C25.8916 6.77495 24.9657 11.4127 21.9071 12.0416C21.1454 12.1981 20.3246 12.0748 19.6067 12.3751C16.36 13.7335 21.8042 16.3232 23.2782 16.1794L23.2788 16.1799Z" fill="#F6AD58"/>
<path d="M52.3599 11.1838C53.376 11.0068 53.8196 9.7695 53.7897 8.73852C53.7659 7.92379 53.5469 7.07257 52.9695 6.49734C51.8644 5.39721 50.9506 6.18926 50.5364 7.41715C49.9755 9.07867 50.3284 11.5378 52.3599 11.1838Z" fill="#F6AD58"/>
<path d="M13.9779 14.608C15.6687 16.1623 16.2119 12.5798 15.3324 11.4653C14.9336 10.9603 14.3125 10.5698 13.6748 10.6567C13.1819 10.7236 12.8899 11.0698 12.7478 11.5046C12.5752 12.0311 12.6222 12.6871 12.797 13.1351C13.0282 13.7269 13.5105 14.1783 13.9779 14.608Z" fill="#F6AD58"/>
<path d="M88.4355 22.7995C88.2209 22.6386 87.9504 22.5252 87.6871 22.5744C87.545 22.6009 87.4123 22.6889 87.3282 22.805L87.4471 22.3255C86.4664 22.5567 85.6927 23.4815 85.6379 24.487C85.5831 25.4931 86.2513 26.4965 87.201 26.8333C87.4316 26.9152 87.6816 26.9605 87.9211 26.9124C88.4261 26.8112 88.7624 26.3305 88.9598 25.8549C89.3863 24.8266 89.3277 23.4671 88.4366 22.7995H88.4355Z" fill="#F6AD58"/>
<path d="M24.1758 77.4761C25.5447 82.9175 37.0432 87.1659 51.0251 87.1659C65.007 87.1659 76.6465 82.8655 77.8988 77.376C70.0912 82.2748 60.8554 85.1078 50.9571 85.1078C41.0587 85.1078 31.9497 82.3135 24.1758 77.4761Z" fill="#E29B20"/>
<path d="M51.0246 41.1697C22.9452 41.1697 0.181641 33.6558 0.181641 24.3869V37.0015C0.181641 37.4678 0.239163 37.9302 0.35255 38.3871C0.633527 39.5215 1.25632 40.6244 2.18664 41.6836C2.16839 41.4507 2.40567 41.2068 2.66231 41.3661C8.79181 45.1687 15.5911 47.5487 22.6166 49.0681C26.2074 49.8446 29.8418 50.3988 33.4934 50.7982C35.2285 50.9879 36.9669 51.1444 38.707 51.2755C40.3823 51.4016 42.1606 51.3308 43.774 51.8408C44.1031 51.9448 44.1578 52.4901 43.774 52.5642C42.0417 52.8989 40.2125 52.5886 38.4697 52.4392C36.5715 52.2766 34.6749 52.0841 32.7832 51.8502C29.2782 51.4171 25.7848 50.8546 22.3401 50.0708C15.3505 48.4796 8.5584 45.9104 2.50855 42.0353C8.98595 48.8446 28.2583 53.7844 51.0252 53.7844C77.0482 53.7844 98.5047 47.3308 101.509 39.0082C101.746 38.3506 101.868 37.6808 101.868 37.0021V24.3875C101.868 33.6564 79.1052 41.1703 51.0252 41.1703L51.0246 41.1697Z" fill="#E29B20"/>
<path d="M91.8648 25.7613C92.9683 26.4267 93.8787 27.1242 94.5761 27.846C95.6397 26.7447 96.2061 25.5866 96.2061 24.3874C96.2061 22.7657 95.1652 21.2143 93.2642 19.7839C93.5529 22.2193 92.9871 24.1595 91.8643 25.7613H91.8648Z" fill="#CB8C1C"/>
<path d="M7.11878 21.321C6.2847 22.3039 5.84277 23.331 5.84277 24.388C5.84277 25.5871 6.4097 26.7453 7.47332 27.8466C7.9761 27.3255 8.59004 26.8183 9.30686 26.3261C7.96116 24.758 7.29191 23.0666 7.11878 21.3216V21.321Z" fill="#CB8C1C"/>
<path d="M58.4702 42.433C48.2937 42.8208 38.085 42.4126 27.9704 41.1128C18.5914 39.9076 9.12007 37.1841 1.74996 31.0037C1.63547 30.908 1.47119 31.0656 1.58347 31.1702C8.56199 37.636 17.8541 40.3816 27.0882 41.6863C32.226 42.4126 37.4141 42.7677 42.5884 43.1217C47.8412 43.4812 53.3308 43.9054 58.5576 43.0791C58.9254 43.021 58.8369 42.4187 58.4702 42.4325V42.433Z" fill="#FBBA46"/>
<path d="M99.9634 34.5115C99.9601 35.9695 99.8588 37.4667 100.013 38.917C100.056 39.3246 100.604 39.3252 100.648 38.917C100.802 37.4667 100.701 35.9695 100.698 34.5115C100.695 33.2205 100.762 31.882 100.467 30.6193C100.435 30.4849 100.226 30.4849 100.195 30.6193C99.8998 31.8826 99.9667 33.2205 99.9634 34.5115Z" fill="#FBBA46"/>
<path d="M92.6331 15.889C92.4782 15.7939 92.3217 15.7004 92.1641 15.608C92.2863 15.8945 92.3991 16.1893 92.5026 16.4913C92.7708 16.4858 92.8942 16.0494 92.6331 15.889Z" fill="#FBBA46"/>
<path d="M24.8371 77.5728C32.419 80.3926 40.4457 81.996 48.5376 82.1813C52.4851 82.272 56.4359 82.0464 60.348 81.5137C62.3176 81.2455 64.2756 80.9025 66.217 80.4772C68.1103 80.0624 70.3542 79.7493 72.0163 78.7117C72.3316 78.5153 72.2182 77.9761 71.8205 77.9888C69.9997 78.0463 68.1496 78.7947 66.3774 79.1934C64.4388 79.6298 62.4813 79.9877 60.514 80.2643C56.5504 80.8201 52.5371 81.0397 48.537 80.944C40.5414 80.7526 32.6248 79.3444 25.0838 76.6746C24.5152 76.4738 24.2807 77.366 24.836 77.5728H24.8371Z" fill="#FBBA46"/>
<path d="M2.33587 41.9247C2.3934 41.9618 2.45092 41.9988 2.50844 42.0353C8.55829 45.9104 15.3504 48.4795 22.34 50.0708C25.7847 50.8551 29.2781 51.4171 32.7831 51.8502C34.6748 52.0841 36.5708 52.2766 38.4696 52.4392C40.2124 52.5886 42.0416 52.8988 43.7739 52.5642C44.1577 52.4901 44.103 51.9447 43.7739 51.8408C42.1605 51.3308 40.3822 51.4021 38.7069 51.2755C36.9668 51.1438 35.2284 50.9879 33.4933 50.7982C29.8417 50.3988 26.2073 49.8446 22.6165 49.068C15.591 47.5487 8.7917 45.1687 2.66221 41.3661C2.40556 41.2068 2.16828 41.4507 2.18654 41.6836C2.19373 41.7737 2.23853 41.8617 2.33587 41.9247Z" fill="#FBBA46"/>
<path d="M92.3188 45.2854C90.3918 45.4734 88.4908 46.7234 86.6722 47.3794C84.5593 48.141 82.4039 48.7832 80.2191 49.3025C75.7832 50.3579 71.2997 51.0155 66.7383 51.1322C66.4888 51.1383 66.4877 51.5166 66.7383 51.5205C71.2466 51.5869 75.8097 51.2229 80.2113 50.2135C82.4807 49.693 84.7208 49.0409 86.9139 48.2588C88.6595 47.6366 91.1479 47.021 92.4831 45.683C92.6153 45.5508 92.5268 45.2654 92.3182 45.2854H92.3188Z" fill="#FBBA46"/>
</g>
<defs>
<clipPath id="clip0_251_177646">
<rect width="101.686" height="92" fill="white" transform="translate(0.181641)"/>
</clipPath>
</defs>
</svg>
