<svg width="152" height="72" viewBox="0 0 152 72" fill="none" xmlns="http://www.w3.org/2000/svg">
<g clip-path="url(#clip0_172_101224)">
<path d="M144.347 24.7919C148.703 13.8368 127.694 1.1439 80.1123 2.28781C31.9804 3.45371 1.18292 9.41521 4.90061 25.1659C2.52481 23.692 1.00693 22.1302 0.500977 20.5023C2.43682 9.06324 16.3837 1.89184 76.6146 0.153986C132.6 -1.45188 153.322 9.01925 150.77 18.3905V18.4345C150.594 19.1384 150.264 19.8203 149.825 20.5023C148.813 22.0422 146.789 23.494 144.347 24.7919Z" fill="#33211E"/>
<path d="M144.347 24.7919C140.761 26.6838 136.252 28.2456 132.754 29.3016L132.688 29.1036C143.445 22.1961 129.388 4.39963 77.8687 5.78552C26.3489 7.1714 2.45893 15.4207 10.0923 27.7397C8.06846 26.9258 6.33061 26.0678 4.90073 25.1659C1.18303 9.41521 31.9805 3.45371 80.1125 2.30981C127.695 1.1659 148.703 13.8588 144.347 24.8139V24.7919Z" fill="#331B17"/>
<g style="mix-blend-mode:multiply">
<path d="M144.347 24.7919C140.761 26.6838 136.252 28.2456 132.754 29.3016L132.688 29.1036C143.445 22.1961 129.388 4.39963 77.8687 5.78552C26.3489 7.1714 2.45893 15.4207 10.0923 27.7397C8.06846 26.9258 6.33061 26.0678 4.90073 25.1659C1.18303 9.41521 31.9805 3.45371 80.1125 2.30981C127.695 1.1659 148.703 13.8588 144.347 24.8139V24.7919Z" fill="#BA7C72"/>
</g>
<path d="M77.8689 5.80751C129.389 4.42163 143.445 22.2181 132.688 29.1256L132.754 29.3236C129.499 30.3355 127.123 30.8854 127.123 30.8854C126.969 30.2695 126.793 29.6755 126.595 29.1256C142.28 15.8167 106.532 8.99725 78.0668 8.68927C49.6232 8.4033 12.7323 17.9945 29.5829 32.9313C21.6416 31.5234 15.0201 29.7635 10.0925 27.7617C2.45915 15.4207 26.3492 7.1714 77.8689 5.80751Z" fill="#331B17"/>
<g style="mix-blend-mode:multiply">
<path d="M77.8683 5.80751C64.8894 6.15948 53.6483 6.92942 44.2331 8.11732C30.5283 11.2851 13.9636 18.4125 15.1295 29.5435C19.2432 30.8194 24.0828 31.9633 29.5603 32.9313C12.7317 17.9945 49.6227 8.3813 78.0663 8.66727C106.532 8.97525 142.279 15.7947 126.594 29.1036C126.792 29.6535 126.968 30.2475 127.122 30.8634C127.122 30.8634 129.498 30.3135 132.754 29.3016L132.688 29.1036C143.445 22.1961 129.388 4.39963 77.8683 5.78552V5.80751Z" fill="#BA7C72"/>
</g>
<path d="M78.0662 8.66727C106.532 8.97525 142.279 15.7947 126.594 29.1036C126.396 28.4876 126.11 28.0257 125.758 27.6957C129.674 20.6343 118.807 16.6306 110.975 14.9807C91.1551 11.505 71.5988 11.835 66.5612 11.989C54.7262 12.385 50.9865 19.5784 51.1185 27.3217C50.2605 27.4757 49.6446 27.6297 49.3146 27.8497C47.4228 29.0596 45.4209 30.4895 44.299 34.9771C39.0195 34.4051 34.0919 33.7232 29.5822 32.9093C12.7317 17.9945 49.6226 8.3813 78.0662 8.66727Z" fill="#331B17"/>
<g style="mix-blend-mode:multiply">
<path d="M83.192 8.79927C83.566 8.86526 83.9399 8.88726 84.2919 8.95326C83.9399 8.88726 83.544 8.84327 83.192 8.79927C81.4541 8.73328 79.7383 8.68928 78.0664 8.66728C72.8969 8.62328 67.4413 8.88726 62.0958 9.45922C57.6081 10.3831 53.2085 11.703 49.0948 13.3529C40.9995 16.8286 37.8318 25.7379 39.4376 34.4051C41.0215 34.6031 42.6274 34.8011 44.2772 34.9771C45.3991 30.4895 47.401 29.0596 49.2928 27.8497C49.6228 27.6297 50.2387 27.4757 51.0967 27.3437C50.9647 19.5784 54.7044 12.385 66.5394 11.989C71.577 11.835 91.1333 11.505 110.954 14.9808C118.785 16.6306 129.652 20.6343 125.736 27.6957C126.088 28.0257 126.374 28.4876 126.572 29.1036C141.333 16.5866 110.58 9.81119 83.17 8.79927H83.192Z" fill="#BA7C72"/>
</g>
<path d="M58.5977 33.3932C63.3933 32.6453 84.0716 32.7553 90.297 34.3171C90.165 34.5371 90.1211 34.7791 90.1211 35.0651C90.1211 35.0651 90.143 35.549 90.165 36.407C77.7361 36.8689 65.9231 36.649 55.21 35.945C56.1119 34.4931 57.2338 33.6132 58.5977 33.3932Z" fill="#110D0C"/>
<path d="M111.856 29.3236C110.184 29.4995 108.6 31.0614 108.182 33.2612C105.542 33.4592 102.924 33.5472 100.284 33.4592C99.5146 33.3492 98.7666 33.2392 98.0407 33.1512C97.4027 30.9514 95.0049 28.2896 89.3954 27.8497C82.642 27.3437 58.4 26.1118 51.1186 27.3437C50.9866 19.5784 54.7263 12.385 66.5613 11.989C71.5989 11.835 91.1553 11.505 110.976 14.9807C118.807 16.6306 129.674 20.6343 125.758 27.6957C124.087 26.0898 120.479 27.1237 111.834 29.1036V29.3236H111.856Z" fill="#331B17"/>
<g style="mix-blend-mode:multiply">
<path d="M125.363 21.6462C116.498 21.7122 107.522 23.714 99.691 27.6077C85.6782 22.3721 66.4958 22.7461 51.361 23.736C51.163 24.9019 51.0751 26.1118 51.097 27.3437C58.3784 26.1338 82.6204 27.3437 89.3739 27.8717C94.9834 28.3116 97.3812 30.9734 98.0191 33.1512C98.7451 33.2612 99.493 33.3712 100.263 33.4812C102.903 33.5692 105.521 33.4812 108.16 33.2832C108.226 32.9093 108.358 32.5573 108.49 32.2053C109.15 30.5775 110.448 29.4775 111.834 29.3456V29.1256C120.457 27.1457 124.065 26.1118 125.737 27.7177C127.035 25.3639 126.683 23.3401 125.341 21.6462H125.363Z" fill="#CFCFCF"/>
</g>
<path d="M90.4516 52.7516C77.6266 53.1916 61.414 53.0156 53.2307 52.8616C52.0868 52.8616 51.0969 52.8176 50.3049 52.7956C49.029 52.7736 47.9951 51.7177 47.9951 50.4198V50.1338C47.9951 48.8579 49.029 47.846 50.3049 47.912C51.0529 47.934 51.9548 47.978 52.9887 48C60.908 48.242 76.8127 48.594 90.4296 48C91.7055 47.934 92.9594 47.868 94.1913 47.802C94.1913 47.802 96.7871 49.6719 94.1913 52.5756C92.9814 52.6416 91.7495 52.6856 90.4516 52.7296V52.7516Z" fill="#C9C5BC"/>
<path d="M89.3958 27.8497C95.0054 28.2896 97.4032 30.9514 98.0411 33.1292C94.0814 32.6893 91.0017 32.8433 90.2977 34.2951C84.0723 32.7333 63.394 32.6233 58.5984 33.3712C57.2345 33.5912 56.1126 34.4711 55.2107 35.923C53.7148 38.4528 52.9229 42.6324 52.9889 48C51.9549 48 51.053 47.934 50.3051 47.912C49.0292 47.846 47.9953 48.8579 47.9953 50.1338V50.4198C47.9953 51.7177 49.0292 52.7736 50.3051 52.7956C51.097 52.7956 52.0869 52.8396 53.2308 52.8616C53.8908 61.1329 55.3867 65.1146 61.5021 65.9065C67.2877 66.6764 84.1823 66.7644 90.1218 65.2686C90.1218 65.2686 89.1978 69.9762 97.1172 68.6783C95.6653 70.5041 92.7175 70.9881 86.778 71.428C78.9467 72.022 54.8147 72.308 50.767 71.428C49.2712 71.1201 47.9953 70.3941 46.9394 68.7223C45.1575 65.9285 44.0356 60.429 43.4856 49.6939C43.1337 42.6764 43.4856 38.1008 44.2996 34.9771C45.4215 30.4895 47.4233 29.0596 49.3152 27.8497C49.6451 27.6297 50.2611 27.4757 51.119 27.3437C58.4004 26.1118 82.6424 27.3437 89.3958 27.8497Z" fill="#D8D1CB"/>
<path d="M89.3958 27.8497C95.0054 28.2896 97.4032 30.9514 98.0411 33.1292C94.0814 32.6893 91.0017 32.8433 90.2977 34.2951C84.0723 32.7333 63.394 32.6233 58.5984 33.3712C57.2345 33.5912 56.1126 34.4711 55.2107 35.923C53.7148 38.4528 52.9229 42.6324 52.9889 48C51.9549 48 51.053 47.934 50.3051 47.912C49.0292 47.846 47.9953 48.8579 47.9953 50.1338V50.4198C47.9953 51.7177 49.0292 52.7736 50.3051 52.7956C51.097 52.7956 52.0869 52.8396 53.2308 52.8616C53.8908 61.1329 55.3867 65.1146 61.5021 65.9065C67.2877 66.6764 84.1823 66.7644 90.1218 65.2686C90.1218 65.2686 89.1978 69.9762 97.1172 68.6783C95.6653 70.5041 92.7175 70.9881 86.778 71.428C78.9467 72.022 54.8147 72.308 50.767 71.428C49.2712 71.1201 47.9953 70.3941 46.9394 68.7223C45.1575 65.9285 44.0356 60.429 43.4856 49.6939C43.1337 42.6764 43.4856 38.1008 44.2996 34.9771C45.4215 30.4895 47.4233 29.0596 49.3152 27.8497C49.6451 27.6297 50.2611 27.4757 51.119 27.3437C58.4004 26.1118 82.6424 27.3437 89.3958 27.8497Z" fill="#D8D1CB"/>
<g style="mix-blend-mode:multiply">
<path d="M90.298 34.3171C91.0019 32.8653 94.0817 32.7113 98.0413 33.1732C97.6674 31.8533 96.6334 30.3795 94.6756 29.3016C91.6179 30.1595 88.7361 31.6774 86.4043 33.6792C87.9662 33.8552 89.3301 34.0532 90.298 34.2951V34.3171Z" fill="#EDE5DF"/>
</g>
<g style="mix-blend-mode:multiply">
<path d="M97.1165 68.6783C89.1971 69.9762 90.1211 65.2686 90.1211 65.2686C89.3291 65.4665 88.3392 65.6425 87.1953 65.7745C88.1632 68.0183 89.3511 69.7562 90.737 71.0541C94.1027 70.6581 96.0386 70.0422 97.1165 68.6783Z" fill="#EDE5DF"/>
</g>
<g style="mix-blend-mode:screen">
<path d="M65.4175 66.2585C67.1334 68.1723 68.8712 70.0862 70.6091 71.978C77.0765 71.912 83.412 71.714 86.7557 71.45C87.4817 71.406 88.1416 71.34 88.7796 71.2961C87.3497 69.5362 85.8978 67.8203 84.4239 66.1045C78.5944 66.5884 70.7191 66.5664 65.3955 66.2805L65.4175 66.2585Z" fill="#6E6A67"/>
</g>
<g style="mix-blend-mode:screen">
<path d="M70.8507 26.9697C67.199 26.8598 63.5033 26.8158 60.2256 26.8378C62.1834 28.8616 64.1413 30.9074 66.0991 32.9752C69.3548 32.9093 73.1825 32.9532 76.8562 33.0632C74.8984 30.9954 72.8965 28.9496 70.8507 26.9697Z" fill="#6E6A67"/>
</g>
<g style="mix-blend-mode:screen">
<path d="M44.2993 34.9771C43.8814 36.6269 43.5954 38.6728 43.4414 41.2466C45.4872 43.4904 47.4891 45.7562 49.4909 48.022C49.7329 47.934 49.9969 47.89 50.2828 47.89C51.0308 47.912 51.9327 47.956 52.9666 47.978C52.9006 42.6104 53.6926 38.4308 55.1884 35.901C55.3424 35.659 55.5184 35.439 55.6724 35.2411C53.4286 32.8653 51.1848 30.4675 48.9629 28.0477C47.1811 29.2136 45.3332 30.7314 44.2773 34.9551L44.2993 34.9771Z" fill="#6E6A67"/>
</g>
<path d="M115.001 69.6022C113.615 70.0862 112.097 69.5362 111.063 67.7324C113.043 67.4904 115.265 67.1164 117.729 66.5885C117.157 68.1503 116.145 69.2062 115.045 69.6022H115.001Z" fill="#1C110F"/>
<path d="M125.758 27.7177C126.11 28.0477 126.396 28.5096 126.594 29.1256C126.792 29.6755 126.968 30.2695 127.122 30.8854C129.894 40.7846 130.114 56.7333 129.344 63.0907C129.234 63.9267 129.124 64.5866 128.992 65.0486C128.134 68.0403 115.881 69.4922 115.045 69.6022C116.145 69.2062 117.157 68.1503 117.729 66.5885C118.059 65.7305 118.235 64.7406 118.235 63.5967C118.235 57.7232 117.487 47.824 116.805 37.1769C116.673 35.1971 116.321 33.6572 115.859 32.4693H115.837C114.869 30.0495 113.329 29.1696 111.855 29.3456V29.1256C120.479 27.1457 124.086 26.1118 125.758 27.7177Z" fill="#553C2F"/>
<g style="mix-blend-mode:multiply">
<path d="M118.17 64.4546C118.104 65.2246 117.972 65.9505 117.73 66.5885C117.158 68.1503 116.146 69.2062 115.046 69.6022C115.882 69.4922 128.135 68.0403 128.993 65.0486C129.125 64.5866 129.235 63.9267 129.345 63.0907C129.411 62.6068 129.455 62.0348 129.499 61.4189C125.803 62.5848 122.019 63.6187 118.17 64.4546Z" fill="#E0E0E0"/>
</g>
<g style="mix-blend-mode:screen">
<path d="M126.595 29.1036C126.397 28.4876 126.111 28.0257 125.759 27.6957C124.087 26.0898 120.479 27.1237 111.834 29.1036V29.3236C113.33 29.1476 114.87 30.0275 115.838 32.4473H115.86C116.036 32.9313 116.212 33.4812 116.344 34.0752C119.995 33.1732 123.625 32.2053 127.277 31.5014C127.233 31.3034 127.167 31.0834 127.123 30.8854C126.969 30.2695 126.793 29.6755 126.595 29.1256V29.1036Z" fill="#0F0A09"/>
</g>
<path d="M118.236 63.5747C118.236 64.7186 118.06 65.7085 117.73 66.5665C115.266 67.0944 113.044 67.4684 111.064 67.7104C104.003 68.5903 100.285 67.9523 100.285 67.9523C101.737 45.8662 100.285 33.4592 100.285 33.4592C102.925 33.5472 105.543 33.4592 108.182 33.2612C110.734 33.1072 113.308 32.8213 115.838 32.4473H115.86C116.322 33.6352 116.674 35.1751 116.806 37.1549C117.488 47.802 118.236 57.7012 118.236 63.5747Z" fill="#472B21"/>
<g style="mix-blend-mode:multiply">
<path d="M116.805 37.1549C116.673 35.1751 116.321 33.6352 115.859 32.4473H115.837C113.33 32.8213 110.778 33.1072 108.248 33.2612C112.34 44.2383 112.076 56.0953 109.722 67.8643C110.162 67.8204 110.602 67.7764 111.086 67.7104C113.066 67.4684 115.287 67.0944 117.751 66.5665C118.081 65.7085 118.257 64.7186 118.257 63.5747C118.257 57.7012 117.509 47.802 116.827 37.1549H116.805Z" fill="#CFCFCF"/>
</g>
<path d="M111.855 29.3236C113.329 29.1476 114.869 30.0275 115.837 32.4473C113.307 32.8213 110.733 33.1072 108.182 33.2612C108.6 31.0614 110.183 29.4995 111.855 29.3236Z" fill="#1C110F"/>
<path d="M144.347 24.7919C146.788 23.494 148.812 22.0422 149.824 20.5023C150.264 19.8203 150.594 19.1384 150.77 18.4345C150.77 19.5124 150.99 39.5527 151.43 49.3859C151.584 52.5536 140.937 59.549 129.344 63.0687C130.114 56.7113 129.894 40.7626 127.122 30.8634C127.122 30.8634 129.498 30.3135 132.754 29.3016C136.251 28.2456 140.761 26.6838 144.347 24.7919Z" fill="#472B21"/>
<path style="mix-blend-mode:screen" d="M144.347 24.7919C146.788 23.494 148.812 22.0422 149.824 20.5023C150.264 19.8203 150.594 19.1384 150.77 18.4345C150.77 19.5124 150.99 39.5527 151.43 49.3859C151.584 52.5536 140.937 59.549 129.344 63.0687C130.114 56.7113 129.894 40.7626 127.122 30.8634C127.122 30.8634 129.498 30.3135 132.754 29.3016C136.251 28.2456 140.761 26.6838 144.347 24.7919Z" fill="url(#paint0_linear_172_101224)"/>
<g style="mix-blend-mode:multiply">
<path d="M130.048 30.1155C128.266 30.5995 127.122 30.8854 127.122 30.8854C129.894 40.7846 130.114 56.7333 129.344 63.0907C130.29 62.8048 131.236 62.4748 132.16 62.1668C133.018 51.6517 132.116 40.7846 130.048 30.1375V30.1155Z" fill="#CFCFCF"/>
</g>
<path d="M94.1916 52.5976C96.7874 49.6939 94.1916 47.824 94.1916 47.824C92.9597 47.89 91.7058 47.956 90.4299 48.022C90.3639 42.9624 90.2319 38.5188 90.1659 36.385C90.1659 35.527 90.1219 35.0431 90.1219 35.0431C90.1219 34.7571 90.1659 34.5151 90.2979 34.2951C91.0019 32.8433 94.0816 32.6893 98.0413 33.1512C98.7672 33.2392 99.5152 33.3492 100.285 33.4592C100.285 33.4592 101.737 45.8662 100.285 67.9523C99.0972 68.2823 98.0413 68.5243 97.1173 68.6783C89.198 69.9762 90.1219 65.2686 90.1219 65.2686C90.3639 61.7269 90.4519 57.2172 90.4519 52.7516C91.7498 52.7076 92.9817 52.6636 94.1916 52.5976Z" fill="#553C2F"/>
<path style="mix-blend-mode:screen" d="M94.1916 52.5976C96.7874 49.6939 94.1916 47.824 94.1916 47.824C92.9597 47.89 91.7058 47.956 90.4299 48.022C90.3639 42.9624 90.2319 38.5188 90.1659 36.385C90.1659 35.527 90.1219 35.0431 90.1219 35.0431C90.1219 34.7571 90.1659 34.5151 90.2979 34.2951C91.0019 32.8433 94.0816 32.6893 98.0413 33.1512C98.7672 33.2392 99.5152 33.3492 100.285 33.4592C100.285 33.4592 101.737 45.8662 100.285 67.9523C99.0972 68.2823 98.0413 68.5243 97.1173 68.6783C89.198 69.9762 90.1219 65.2686 90.1219 65.2686C90.3639 61.7269 90.4519 57.2172 90.4519 52.7516C91.7498 52.7076 92.9817 52.6636 94.1916 52.5976Z" fill="url(#paint1_linear_172_101224)"/>
<g style="mix-blend-mode:screen">
<path d="M92.8275 52.6636C92.0575 52.7076 91.2876 52.7296 90.4516 52.7516C90.4516 57.2172 90.3637 61.7269 90.1217 65.2686C90.1217 65.2686 89.4837 68.6343 94.1033 68.8763C93.3334 63.4647 92.7175 57.7892 92.8275 52.6416V52.6636Z" fill="#0F0A09"/>
</g>
<g style="mix-blend-mode:screen">
<path d="M98.0404 33.1512C94.0808 32.6893 91.001 32.8433 90.2971 34.2951C90.1651 34.5151 90.1211 34.7571 90.1211 35.0431C90.1211 35.0431 90.1431 35.527 90.1651 36.385C90.2311 38.5188 90.3631 42.9624 90.4291 48C91.375 47.978 92.2989 47.934 93.2228 47.868C94.0148 42.4345 96.1266 38.0788 100.504 35.967C100.394 34.3171 100.284 33.4372 100.284 33.4372C99.5143 33.3272 98.7664 33.2172 98.0404 33.1292V33.1512Z" fill="#0F0A09"/>
</g>
<path d="M90.4291 48C76.8122 48.5939 60.9075 48.242 52.9882 48C52.9222 42.6324 53.7141 38.4528 55.21 35.923C65.9231 36.6269 77.7361 36.8469 90.1651 36.385C90.2311 38.5188 90.3631 42.9624 90.4291 48Z" fill="#33211E"/>
<path d="M90.4514 52.7516C90.4514 57.2172 90.3634 61.7269 90.1214 65.2686C84.1819 66.7644 67.2873 66.6764 61.5018 65.9065C55.3863 65.1146 53.8904 61.1329 53.2305 52.8616C61.4138 53.0156 77.6264 53.1916 90.4514 52.7516Z" fill="#33211E"/>
<g style="mix-blend-mode:multiply">
<path d="M90.4298 48C90.3638 42.9624 90.2318 38.5188 90.1658 36.385C89.2419 36.429 88.3399 36.429 87.416 36.451C87.966 40.3886 88.252 44.2603 88.3399 48.088C89.0439 48.066 89.7478 48.044 90.4298 48Z" fill="#CFCFCF"/>
</g>
<g style="mix-blend-mode:multiply">
<path d="M90.4515 52.7516C89.7696 52.7736 89.0656 52.7956 88.3617 52.8176C88.2957 57.1292 88.0317 61.4189 87.6357 65.7305C88.5817 65.5985 89.4396 65.4445 90.1435 65.2686C90.3855 61.7269 90.4735 57.2172 90.4735 52.7516H90.4515Z" fill="#CFCFCF"/>
</g>
<g style="mix-blend-mode:multiply">
<path d="M53.2305 52.8616C53.2965 53.6755 53.3845 54.4235 53.4724 55.1714C65.6594 55.2154 78.0224 55.3914 90.4514 55.4794C90.4514 54.5774 90.4514 53.6755 90.4514 52.7516C77.6264 53.1916 61.4138 53.0156 53.2305 52.8616Z" fill="#BFBFBF"/>
</g>
<g style="mix-blend-mode:multiply">
<path d="M55.21 35.923C53.7141 38.4528 52.9222 42.6324 52.9882 48C54.3521 48.044 55.9799 48.088 57.7618 48.132C57.8498 44.0403 58.7517 39.9487 60.5776 36.209C58.7737 36.121 56.9479 36.033 55.21 35.923Z" fill="#BFBFBF"/>
</g>
<g style="mix-blend-mode:multiply">
<path d="M53.2305 52.8616C53.8904 61.1329 55.3863 65.1146 61.5018 65.9065C62.0077 65.9725 62.6237 66.0385 63.2836 66.0825C60.4899 62.3428 58.686 57.7452 58.0261 52.9276C56.2442 52.9056 54.6164 52.8836 53.2305 52.8396V52.8616Z" fill="#BFBFBF"/>
</g>
<path d="M29.5826 32.9313C34.0922 33.7452 39.0198 34.4271 44.2993 34.9991C43.5074 38.1228 43.1334 42.6984 43.4854 49.7159C44.0354 60.451 45.1573 65.9505 46.9391 68.7443C9.30024 64.2786 1.07293 53.2356 1.3809 49.7159C2.52481 35.791 0.500977 20.5243 0.500977 20.5243C1.00693 22.1522 2.52481 23.714 4.90061 25.1879C6.33049 26.0898 8.06835 26.9478 10.0922 27.7617C15.0198 29.7635 21.6412 31.5234 29.5826 32.9313Z" fill="#33211E"/>
<path style="mix-blend-mode:screen" d="M29.5826 32.9313C34.0922 33.7452 39.0198 34.4271 44.2993 34.9991C43.5074 38.1228 43.1334 42.6984 43.4854 49.7159C44.0354 60.451 45.1573 65.9505 46.9391 68.7443C9.30024 64.2786 1.07293 53.2356 1.3809 49.7159C2.52481 35.791 0.500977 20.5243 0.500977 20.5243C1.00693 22.1522 2.52481 23.714 4.90061 25.1879C6.33049 26.0898 8.06835 26.9478 10.0922 27.7617C15.0198 29.7635 21.6412 31.5234 29.5826 32.9313Z" fill="url(#paint2_linear_172_101224)"/>
<g style="mix-blend-mode:screen">
<path d="M9.49823 41.9725C11.5441 36.8689 15.0198 33.1952 19.2654 30.7094C15.7677 29.8075 12.688 28.8176 10.0922 27.7617C8.06835 26.9478 6.33049 26.0898 4.90061 25.1879C2.52481 23.714 1.00693 22.1522 0.500977 20.5243C0.500977 20.5243 2.52481 35.791 1.3809 49.7159C1.24891 51.3437 2.89878 54.5335 8.33232 57.9432C7.87036 52.5976 8.20033 47.2081 9.52022 41.9945L9.49823 41.9725Z" fill="#0F0A09"/>
</g>
<g style="mix-blend-mode:multiply">
<path d="M43.485 49.7159C43.1331 42.6984 43.485 38.1228 44.299 34.9991C43.2651 34.8891 42.2531 34.7571 41.2632 34.6471C39.2834 45.5142 39.1954 57.1512 41.4832 68.0183C43.2431 68.2823 45.0469 68.5243 46.9387 68.7443C45.1569 65.9505 44.035 60.451 43.485 49.7159Z" fill="#CFCFCF"/>
</g>
<g style="mix-blend-mode:screen">
<path d="M90.1878 66.5005C90.0118 65.8405 90.1218 65.2906 90.1218 65.2906C84.1823 66.7864 67.2877 66.6984 61.5022 65.9285C60.4463 65.7965 59.5883 65.5325 58.7744 65.2026C59.8743 66.0385 61.2602 66.6104 63.1081 66.8524C68.4536 67.5564 83.3024 67.6884 90.1878 66.5225V66.5005Z" fill="#D8D1CB"/>
<path d="M48.5449 69.6462C46.763 66.8524 45.6411 61.3529 45.0912 50.6178C44.7392 43.6004 45.0912 39.0247 45.9051 35.901C47.027 31.4134 49.0288 29.9835 50.9207 28.7736C51.2506 28.5536 51.8666 28.3996 52.7245 28.2676C60.0059 27.0357 84.2479 28.2676 91.0013 28.7736C92.9152 28.9276 94.433 29.3455 95.6429 29.8955C94.2571 28.8836 92.2552 28.0697 89.3955 27.8497C82.642 27.3437 58.4001 26.1118 51.1187 27.3437C50.2607 27.4757 49.6448 27.6297 49.3148 27.8497C47.423 29.0596 45.4211 30.4895 44.2992 34.9771C43.5073 38.1008 43.1333 42.6764 43.4853 49.6939C44.0352 60.429 45.1572 65.9285 46.939 68.7223C47.7969 70.0642 48.7868 70.7901 49.9088 71.1861C49.4248 70.7901 48.9628 70.3061 48.5449 69.6462Z" fill="#D8D1CB"/>
</g>
<g style="mix-blend-mode:screen">
<path d="M90.2095 37.6829C90.2095 37.1989 90.1875 36.7589 90.1655 36.407C77.7365 36.8689 65.9235 36.6489 55.2104 35.945C54.9024 36.451 54.6385 37.0449 54.3965 37.7049C64.7576 38.3428 76.6366 38.4088 90.2095 37.7049V37.6829Z" fill="#1A110F"/>
</g>
<g style="mix-blend-mode:screen">
<path d="M29.5826 32.9313C21.6412 31.5234 15.0198 29.7635 10.0922 27.7617C8.06835 26.9478 6.33049 26.0898 4.90061 25.1879C2.52481 23.714 1.00693 22.1522 0.500977 20.5243C0.500977 20.5243 0.69896 22.0642 0.94094 24.6159C7.84836 30.4235 21.3992 34.4051 43.9254 36.8249C44.0353 36.165 44.1673 35.549 44.2993 34.9991C39.0198 34.4271 34.0922 33.7452 29.5826 32.9313Z" fill="#1A110F"/>
</g>
<g style="mix-blend-mode:screen">
<path d="M66.5613 11.989C54.7263 12.385 50.9866 19.5784 51.1186 27.3217C51.5146 27.2777 51.9985 27.2117 52.4825 27.1677C52.6365 19.7544 56.5081 13.0669 67.9032 12.6929C72.9408 12.539 92.4971 12.209 112.317 15.6847C115.353 16.3226 118.851 17.3346 121.755 18.7204C118.631 16.9606 114.495 15.7287 110.954 14.9807C91.1333 11.505 71.5769 11.835 66.5393 11.989H66.5613Z" fill="#331B17"/>
</g>
<g style="mix-blend-mode:screen">
<path d="M78.0662 8.66728C49.6226 8.3813 12.7317 17.9725 29.5823 32.9093C29.7582 32.9313 29.9562 32.9753 30.1542 32.9973C15.6574 18.2585 51.0305 8.84327 78.4622 9.12924C104.486 9.41522 136.669 15.4647 128.486 27.2337C138.847 15.1567 105.19 8.95326 78.0882 8.66728H78.0662Z" fill="#331B17"/>
</g>
<g style="mix-blend-mode:screen">
<path d="M77.8689 5.80752C26.3492 7.1714 2.45915 15.4207 10.0925 27.7397C10.3345 27.8497 10.5985 27.9377 10.8625 28.0257C4.70297 16.1247 28.329 8.16132 78.1988 6.81943C120.941 5.65353 137.572 18.0165 135.504 26.0898C139.376 18.0825 123.009 4.57562 77.8469 5.78552L77.8689 5.80752Z" fill="#331B17"/>
</g>
<g style="mix-blend-mode:screen">
<path d="M80.1125 2.30981C31.9805 3.45371 1.18303 9.41521 4.90073 25.1659C5.1647 25.3419 5.51667 25.4959 5.80265 25.6719C2.8109 10.2731 33.4544 4.42163 81.1024 3.27773C113.814 2.48579 133.964 8.24931 141.949 15.4647C134.734 7.78735 114.276 1.47388 80.1125 2.28781V2.30981Z" fill="#331B17"/>
</g>
<g style="mix-blend-mode:screen">
<path d="M76.6146 0.153988C16.3837 1.89184 2.43682 9.06325 0.500977 20.5023C0.610967 20.8763 0.786953 21.2282 1.00693 21.5802C3.31674 10.4491 18.0335 2.96975 77.2526 1.2539C122.943 -0.065994 145.139 6.68744 150.374 14.3208C146.613 6.26948 124.549 -1.2099 76.6146 0.153988Z" fill="#33211E"/>
</g>
<path d="M115.023 69.5362C116.541 68.9423 117.465 67.4464 117.861 65.9285C118.279 64.3886 118.147 62.7608 118.125 61.1549C118.037 57.9432 117.839 54.7534 117.641 51.5417L117.025 41.9285C116.739 38.7388 116.937 35.461 115.793 32.4473L115.859 32.4913H115.793V32.4473C115.441 31.6114 114.979 30.7974 114.319 30.2035C113.659 29.5875 112.757 29.2576 111.855 29.3456V29.2356C112.757 29.0376 113.791 29.3236 114.539 29.9395C115.309 30.5335 115.859 31.3694 116.299 32.2273L115.837 31.9193H115.859L116.167 31.8973L116.321 32.2493C117.003 33.7892 117.333 35.461 117.531 37.0669C117.729 38.6948 117.861 40.2566 117.993 41.8625C118.235 45.0522 118.587 48.264 118.675 51.4757C118.807 54.6874 119.005 57.8992 118.895 61.1329C118.829 62.7168 118.939 64.3886 118.345 66.0825C117.795 67.6224 116.651 69.1622 115.045 69.6242L115.001 69.5362H115.023Z" fill="#73513F"/>
<path d="M49.5793 51.4757C49.2933 51.4757 49.0293 51.2337 49.0293 50.9478C49.0293 50.5078 49.0513 49.9578 49.4693 49.5179C50.2832 48.7039 51.9771 48.7259 57.6306 48.8139C58.7305 48.8139 59.9624 48.8579 61.3483 48.8579C71.9294 48.9679 85.0843 49.0339 92.9156 48.462C93.2016 48.418 93.4876 48.6599 93.5096 48.9679C93.5096 49.2759 93.3116 49.5399 93.0036 49.5619C85.1063 50.1338 71.9294 50.0898 61.3263 49.9798C59.9184 49.9798 58.6865 49.9358 57.5866 49.9358C53.011 49.8698 50.7232 49.8258 50.2392 50.3098C50.1732 50.3758 50.1072 50.5078 50.1072 50.9258C50.1072 51.2337 49.8872 51.4757 49.5793 51.4977V51.4757Z" fill="white"/>
</g>
<defs>
<linearGradient id="paint0_linear_172_101224" x1="156.622" y1="39.0467" x2="125.956" y2="42.2145" gradientUnits="userSpaceOnUse">
<stop stop-color="#825C39"/>
<stop offset="0.29" stop-color="#2D1F14"/>
<stop offset="0.58" stop-color="#060403"/>
<stop offset="1"/>
</linearGradient>
<linearGradient id="paint1_linear_172_101224" x1="90.0779" y1="50.9258" x2="100.923" y2="50.9258" gradientUnits="userSpaceOnUse">
<stop stop-color="#5E4229"/>
<stop offset="0.24" stop-color="#2D1F14"/>
<stop offset="0.38" stop-color="#060403"/>
<stop offset="1"/>
</linearGradient>
<linearGradient id="paint2_linear_172_101224" x1="0.500977" y1="44.6123" x2="46.9391" y2="44.6123" gradientUnits="userSpaceOnUse">
<stop stop-color="#825C39"/>
<stop offset="0.29" stop-color="#2D1F14"/>
<stop offset="0.58" stop-color="#060403"/>
<stop offset="1"/>
</linearGradient>
<clipPath id="clip0_172_101224">
<rect width="150.929" height="72" fill="white" transform="translate(0.500977)"/>
</clipPath>
</defs>
</svg>
