<svg width="123" height="92" viewBox="0 0 123 92" fill="none" xmlns="http://www.w3.org/2000/svg">
<g clip-path="url(#clip0_172_101435)">
<path d="M39.6307 76.2455C38.845 74.6944 38.0095 73.1293 36.7683 71.9136C35.6663 70.8356 34.2977 70.083 32.9451 69.3484C24.4115 64.707 15.8143 60.1835 7.15742 55.7797C5.41093 54.8914 3.6147 53.9711 2.34362 52.4779C1.07254 50.9847 0.449928 48.7529 1.36893 47.0181C2.45501 44.9659 5.42087 44.8342 6.40949 44.7883C9.3296 44.6505 11.3864 45.8842 14.0658 47.3455C16.5523 48.701 20.103 50.5395 24.6502 52.5677C23.6576 50.1902 22.0941 46.6967 19.8563 42.6223C18.6906 40.5003 17.2326 37.8452 14.9968 34.5354C12.739 31.1917 7.91927 24.5641 7.55923 20.9448C7.51547 20.4997 7.40209 19.3678 8.00481 18.208C8.17787 17.8746 8.62543 16.9703 9.57228 16.5411C11.1656 15.8184 13.0812 16.1518 14.6029 17.0142C16.1246 17.8766 17.3241 19.2061 18.444 20.5536C22.3149 25.2009 25.611 30.3273 28.2367 35.7811C27.0571 29.8881 25.0321 24.1668 22.2433 18.8468C21.1314 16.7247 19.8563 14.3532 20.5426 12.0555C21.1592 9.99132 23.4985 8.6119 25.5951 9.07703C28.1313 9.63998 29.5794 12.2551 30.7053 14.6027C33.5796 20.5935 36.452 26.5843 39.3263 32.5771C40.0365 31.6947 39.6088 30.3952 39.1513 29.3571C36.8816 24.1908 34.612 19.0224 32.3423 13.8561C31.9664 13.0017 31.5825 12.0954 31.6919 11.1671C31.8908 9.48626 33.7387 8.37434 35.4216 8.49611C37.1044 8.61789 38.5804 9.66792 39.7739 10.8637C44.6335 15.7326 45.9841 22.989 48.8266 29.2633C48.4706 25.1949 47.7346 21.1584 46.6346 17.2258C46.2626 15.8943 45.8449 14.5009 46.1532 13.1534C46.4635 11.8059 47.8161 10.5902 49.1369 10.9775C49.8192 11.1771 50.3265 11.7401 50.78 12.289C53.8652 16.028 56.2005 20.3879 57.6068 25.0332C59.3891 30.9242 59.6676 37.1466 60.5588 43.2372C62.1919 54.4083 65.9355 65.266 71.533 75.0617C72.3506 76.493 73.2398 78.118 72.7822 79.703C72.46 80.8169 71.535 81.6374 70.628 82.358C65.2254 86.656 58.9237 89.8141 52.252 91.5628C50.6408 91.986 48.4288 92.3274 46.8892 91.469C45.5843 90.7424 45.5107 89.5805 45.0353 88.259C43.5573 84.1467 41.602 80.1382 39.6287 76.2475L39.6307 76.2455Z" fill="#396687"/>
<path d="M65.5234 62.3195C64.9943 63.0401 64.4592 63.7568 63.8863 64.4435C62.9992 65.5115 61.9668 66.4538 60.9085 67.3481C59.2615 68.7395 57.4812 69.9891 55.6531 71.127C53.6043 72.4006 51.46 73.5405 49.2182 74.4308C46.2085 75.6266 42.5664 76.6188 39.3896 75.7683C39.4712 75.9261 39.5528 76.0858 39.6323 76.2435C41.6036 80.1342 43.5609 84.1427 45.0389 88.255C45.5143 89.5785 45.5899 90.7384 46.8928 91.465C48.4304 92.3234 50.6444 91.982 52.2556 91.5588C58.9273 89.8101 65.227 86.654 70.6316 82.354C71.5387 81.6334 72.4636 80.8129 72.7859 79.699C73.2434 78.114 72.3542 76.489 71.5367 75.0577C69.2054 70.9773 67.1963 66.7113 65.5274 62.3175L65.5234 62.3195Z" fill="#BCB5A4"/>
<g style="mix-blend-mode:multiply">
<path d="M11.3488 16.1478C10.7381 16.1638 10.1334 16.2856 9.57243 16.5411C8.62757 16.9703 8.17802 17.8746 8.00496 18.208C7.40224 19.3658 7.51562 20.4997 7.55938 20.9448C7.91942 24.5661 12.7372 31.1917 14.9969 34.5354C17.2327 37.8452 18.6908 40.5003 19.8565 42.6223C22.0943 46.6967 23.6578 50.1882 24.6504 52.5677C22.8024 51.7433 21.1176 50.9487 19.6018 50.2061C21.0579 52.1924 23.8487 53.512 26.0507 54.0649C25.0283 50.6593 24.0198 46.9103 25.4122 43.6404C24.3301 43.6883 23.2361 43.4188 22.2972 42.8738C22.9059 42.3029 23.5265 41.746 24.161 41.205C22.4046 40.143 20.6223 39.061 19.2219 37.5578C18.1617 36.4199 17.3501 35.0744 16.5485 33.7389C14.8338 30.8843 13.1171 28.0316 11.4025 25.1769C10.3562 23.4362 9.27405 21.5617 9.35163 19.5295C9.40335 18.174 10.2229 16.7926 11.3488 16.1498V16.1478Z" fill="#C7D3D8"/>
</g>
<g style="mix-blend-mode:multiply">
<path d="M48.1822 81.6853C46.3044 78.3355 43.8895 75.0617 43.6011 71.2288C43.4698 69.4721 43.7761 67.5836 42.9228 66.0445C41.5522 63.5692 38.1627 63.4194 35.356 63.116C34.9323 63.0701 34.4807 63.0002 34.1704 62.7088C32.957 61.5669 35.4634 59.5307 34.7254 58.0355C31.9525 58.5525 29.5277 60.4869 26.711 60.6346C24.694 60.7404 22.7605 59.91 20.9106 59.0975C16.8785 57.3248 12.8465 55.5541 8.81641 53.7815C5.6775 52.402 3.36807 50.9567 1.2496 48.2558C1.17003 48.154 1.09245 48.0621 1.01885 47.9763C0.68666 49.5174 1.29336 51.2462 2.34165 52.4779C3.61273 53.9711 5.41095 54.8934 7.15545 55.7797C15.8123 60.1835 24.4095 64.707 32.9451 69.3484C34.2977 70.083 35.6663 70.8356 36.7683 71.9135C38.0095 73.1293 38.845 74.6944 39.6307 76.2455C41.602 80.1362 43.5593 84.1447 45.0373 88.257C45.5127 89.5805 45.5883 90.7404 46.8912 91.467C48.393 92.3054 50.5373 91.998 52.1366 91.5908C52.1128 91.473 52.0849 91.3552 52.0531 91.2394C51.1699 87.9076 49.865 84.6877 48.1802 81.6833L48.1822 81.6853Z" fill="#C7D3D8"/>
</g>
<g style="mix-blend-mode:multiply">
<path d="M49.0296 14.5867C48.9599 13.5946 49.2643 12.5086 50.0699 11.9297C50.1515 11.8718 50.237 11.8179 50.3185 11.762C49.9804 11.4127 49.5985 11.1112 49.139 10.9775C47.8162 10.5902 46.4635 11.8059 46.1552 13.1534C45.8449 14.5009 46.2626 15.8943 46.6366 17.2258C47.7366 21.1584 48.4726 25.1929 48.8287 29.2633C48.7093 28.9998 48.5919 28.7323 48.4766 28.4648C48.8724 29.6206 49.4035 30.7286 50.054 31.7606C51.4365 27.1193 51.3469 22.0488 49.7994 17.4614C49.4811 16.5191 49.1012 15.5809 49.0315 14.5887L49.0296 14.5867Z" fill="#C7D3D8"/>
</g>
<g style="mix-blend-mode:multiply">
<path d="M63.2118 87.2429C63.6375 87.0133 64.0592 86.7798 64.4789 86.5382C64.2601 86.0811 64.0055 85.6379 63.7608 85.1947C63.0328 83.8772 62.2928 82.5656 61.5369 81.2641C60.0371 78.6769 58.4557 76.1417 56.8206 73.6383C56.3193 72.8718 55.8061 72.1112 55.2889 71.3546C55.0423 71.5063 54.7936 71.654 54.543 71.8018C55.6669 73.6523 56.7509 75.5268 57.8231 77.4073C59.2891 79.9805 60.7472 82.5597 62.1416 85.1728C62.5056 85.8535 62.8776 86.5322 63.2058 87.2309C63.2078 87.2349 63.2098 87.2409 63.2118 87.2449V87.2429Z" fill="#C7D3D8"/>
<path d="M64.3323 64.697C64.2507 64.5294 64.1712 64.3617 64.0916 64.196C64.024 64.2798 63.9563 64.3637 63.8887 64.4475C63.7316 64.6372 63.5685 64.8228 63.4014 65.0065C63.6978 65.5854 63.9961 66.1643 64.2985 66.7392C64.9848 68.0428 65.679 69.3424 66.3931 70.63C67.8193 73.2051 69.3032 75.7584 70.9065 78.2278C71.4018 78.9923 71.917 79.7349 72.4521 80.4636C72.5675 80.2679 72.663 80.0603 72.7385 79.8427C71.7121 78.072 70.6479 76.3273 69.6136 74.5606C68.1495 72.0613 66.7412 69.524 65.4383 66.9369C65.0643 66.1943 64.6963 65.4476 64.3323 64.699V64.697Z" fill="#C7D3D8"/>
<path d="M56.208 90.3451C56.1782 90.2772 56.1504 90.2094 56.1205 90.1415C55.486 88.6622 54.8435 87.185 54.199 85.7098C52.9299 82.8052 51.6767 79.8926 50.3619 77.008C49.972 76.1536 49.5662 75.3052 49.1664 74.4528C48.7745 74.6085 48.3707 74.7582 47.9609 74.904C48.2096 75.5488 48.4622 76.1896 48.7208 76.8304C49.3255 78.3256 49.9322 79.8188 50.5588 81.306C51.812 84.2745 53.0492 87.2509 54.3243 90.2094C54.4198 90.4329 54.5173 90.6565 54.6127 90.8801C55.1478 90.7104 55.6789 90.5328 56.208 90.3451Z" fill="#C7D3D8"/>
<path d="M51.9629 73.2012C52.7605 75.1675 53.598 77.1158 54.4832 79.0502C55.7562 81.829 57.1308 84.5599 58.5431 87.2689C58.8534 87.8657 59.1776 88.4566 59.5019 89.0455C59.9375 88.8559 60.3711 88.6602 60.8008 88.4566C60.57 88.0234 60.3393 87.5903 60.1105 87.1571C59.3885 85.7836 58.6505 84.4202 57.9384 83.0408C56.538 80.3278 55.1595 77.6009 53.8327 74.8501C53.4965 74.1534 53.1504 73.4607 52.8023 72.768C52.5238 72.9157 52.2454 73.0594 51.9629 73.1992V73.2012Z" fill="#C7D3D8"/>
<path d="M71.1927 80.5275C70.3692 79.186 69.5178 77.8644 68.6525 76.5509C66.918 73.9178 65.1556 71.2887 63.2718 68.7575C62.7606 68.0707 62.2454 67.39 61.7282 66.7093C61.7183 66.6953 61.7063 66.6833 61.6964 66.6694C61.4358 66.9009 61.1732 67.1285 60.9087 67.3521C60.9007 67.3601 60.8908 67.3661 60.8828 67.374C61.2389 67.921 61.6148 68.454 61.9749 68.997C62.8441 70.3066 63.7413 71.5962 64.6165 72.9017C66.369 75.5168 68.0995 78.1479 69.844 80.767C70.1663 81.2501 70.4806 81.7372 70.7988 82.2203C71.1191 81.9608 71.4374 81.6853 71.7258 81.3898C71.5468 81.1024 71.3677 80.8149 71.1907 80.5275H71.1927Z" fill="#C7D3D8"/>
<path d="M68.4577 82.7752C67.6501 81.4837 66.7908 80.224 65.9255 78.9724C64.2128 76.493 62.4226 74.0735 60.513 71.7439C59.8267 70.9074 59.1066 70.1069 58.3686 69.3204C58.11 69.5041 57.8514 69.6857 57.5889 69.8654C58.1299 70.614 58.669 71.3646 59.2279 72.0992C60.1231 73.277 60.9963 74.4688 61.8755 75.6566C63.636 78.0361 65.3128 80.4775 66.9081 82.9689C67.2185 83.452 67.5248 83.9371 67.845 84.4142C68.225 84.1527 68.6009 83.8872 68.9709 83.6177C68.8038 83.3342 68.6308 83.0527 68.4557 82.7733L68.4577 82.7752Z" fill="#C7D3D8"/>
</g>
<path d="M41.7655 16.7926C41.0255 15.6328 40.2398 14.5009 39.4103 13.4029C38.6445 12.3888 37.807 11.3727 36.6752 10.7978C36.0884 10.5004 35.2907 10.3686 34.8412 10.8497C34.3558 11.3687 34.6064 12.2132 34.9267 12.85C36.8224 16.6269 40.1125 19.5395 42.1116 23.2625C42.2727 23.562 42.6367 23.9113 42.8794 23.6737C42.9629 23.5939 42.9848 23.4701 43.0027 23.3563C43.3827 20.845 43.14 18.9446 41.7655 16.7926Z" fill="#5788AD"/>
<path d="M26.4986 12.0575C26.0431 11.746 25.4364 11.4745 24.9689 11.766C24.7123 11.9257 24.5711 12.2231 24.5114 12.5206C24.3563 13.3171 24.7064 14.1156 25.0624 14.8442C27.1391 19.0903 29.7131 23.0888 32.7168 26.734C32.8381 26.8817 32.9952 27.0434 33.1842 27.0195C33.4428 26.9856 33.5224 26.6542 33.5303 26.3947C33.6716 21.6555 30.4173 14.7325 26.4966 12.0575H26.4986Z" fill="#5788AD"/>
<path d="M22.1022 29.1954C19.9639 25.674 17.736 22.0528 14.3862 19.6632C14.0918 19.4536 13.7596 19.246 13.4016 19.278C12.8327 19.3299 12.4885 19.9547 12.413 20.5236C12.2359 21.8651 12.952 23.1487 13.7079 24.2686C16.4251 28.2991 20.0017 31.7447 24.1292 34.3019C24.344 34.4336 24.0059 32.2777 23.8885 32.0161C23.4628 31.0559 22.6532 30.0997 22.1022 29.1954Z" fill="#5788AD"/>
<path d="M57.0304 60.3751C58.4825 58.1194 59.9585 55.8117 60.6129 53.2065C61.0466 51.4758 61.1023 49.6771 61.154 47.8925C61.4384 38.1886 61.7249 28.4828 62.0093 18.7789C62.071 16.6549 62.1565 14.439 63.167 12.5725C64.1775 10.704 66.4173 9.32058 68.4224 10.0093C70.889 10.8577 71.5176 14.0018 71.7503 16.607C72.1124 20.6694 72.4744 24.7338 72.8364 28.7962C73.7514 27.307 75.7446 24.057 78.2669 19.8968C86.9337 5.60552 90.0169 0.0858428 94.403 3.25602e-06C94.8048 -0.00798182 97.3928 -0.0119745 98.5624 1.64692C98.9244 2.16196 99.5212 3.31181 98.813 5.85306C96.9969 12.3529 91.654 17.1879 88.4335 23.1148C92.4318 18.3517 96.438 13.5826 100.844 9.19881C101.974 8.07291 103.163 6.95301 104.621 6.3122C106.079 5.6714 107.88 5.59355 109.191 6.49985C110.987 7.74153 111.261 10.4145 110.438 12.4427C109.614 14.469 107.965 16.0201 106.424 17.5712C103.016 21.0007 99.921 24.7417 97.1899 28.7343C100.856 25.2748 104.522 21.8172 108.188 18.3577C109.586 17.0382 111.08 15.6667 112.952 15.2395C114.619 14.8602 116.735 16.0121 117.529 17.639C117.678 18.2319 117.853 19.1782 117.768 20.314C117.491 23.9592 114.772 26.2809 110.442 30.2475C108.61 31.9263 105.612 34.7011 101.761 38.4182C103.523 37.1765 111.725 31.4352 117.038 28.8201C118.007 28.343 119.618 27.6084 120.988 28.2711C122.232 28.874 122.826 30.4072 122.918 31.5011C123.192 34.8029 119.174 37.6536 117.219 39.059C99.2984 52.6296 93.2453 58.6084 91.5705 61.3813C91.2223 61.9602 89.81 64.4775 86.9217 66.5895C84.8908 68.0747 84.5029 67.6236 82.8042 68.7834C78.2171 71.9176 75.7147 79.2039 74.3303 81.8151C74.006 82.4259 73.6619 83.0667 73.0851 83.446C72.4843 83.8393 71.7225 83.8852 71.0064 83.8273C67.8814 83.5758 65.1642 81.6474 62.7155 79.683C60.046 77.541 57.478 75.2693 55.0234 72.8798C53.4579 71.3566 51.598 69.2505 52.6085 66.9968C53.6309 64.715 55.6718 62.4852 57.0324 60.3731L57.0304 60.3751Z" fill="#427099"/>
<path d="M93.8065 1.57705C92.8855 1.54711 91.9148 1.83258 91.3001 2.52329C90.6497 3.25392 90.4388 4.37183 89.6113 4.89086C91.3777 3.93065 93.4604 3.56733 95.4456 3.87077C96.3745 4.0125 97.5322 3.64918 96.9096 2.52927C96.5277 1.84256 94.457 1.59702 93.8065 1.57705Z" fill="#5788AD"/>
<path d="M102.532 9.87953C102.936 10.2389 103.557 10.0672 104.088 9.96138C105.697 9.63998 109.93 12.2092 108.526 8.8794C106.91 5.04856 102.66 9.99332 102.53 9.87953H102.532Z" fill="#5788AD"/>
<path d="M115.707 19.4237C115.498 18.3297 114.535 17.4234 113.433 17.2837C112.331 17.144 111.176 17.7828 110.702 18.7909C111.81 18.0423 113.549 18.5793 114.044 19.8249C114.193 20.2022 114.279 20.6634 114.639 20.849C115.05 21.0606 115.619 20.6214 115.518 20.1663L115.707 19.4237Z" fill="#5788AD"/>
<path d="M112.989 34.5594C114.316 34.1601 115.267 33.0762 116.532 32.5711C117.461 32.2018 118.927 32.4953 118.392 31.0859C117.041 27.5325 113.339 34.4516 112.989 34.5574V34.5594Z" fill="#5788AD"/>
<path d="M82.6011 68.9311C80.9978 68.7355 79.4224 68.3921 77.9405 67.6895C75.8021 66.6754 73.799 65.3079 71.8854 63.9225C69.0509 61.8723 66.9582 60.0597 65.5439 58.9757C65.526 58.9618 64.5394 58.2072 63.7656 57.4925C63.0933 56.8717 62.4687 56.2009 61.9217 55.4663C61.4085 54.7756 60.9629 54.047 60.5929 53.2824C59.9305 55.8556 58.4685 58.1413 57.0303 60.3751C55.6697 62.4872 53.6288 64.717 52.6064 66.9987C51.5959 69.2525 53.4577 71.3586 55.0212 72.8818C57.4739 75.2713 60.0419 77.541 62.7134 79.685C65.162 81.6494 67.8792 83.5778 71.0042 83.8293C71.7203 83.8872 72.4822 83.8413 73.0829 83.448C73.6618 83.0707 74.0039 82.4299 74.3281 81.817C75.6927 79.2459 78.1414 72.1351 82.5991 68.9291L82.6011 68.9311Z" fill="#CEC8B6"/>
<g style="mix-blend-mode:multiply">
<path d="M77.4236 26.6142C77.5609 26.3088 77.7041 25.9934 77.9547 25.7718C78.7564 25.0611 80.2701 25.5882 80.9067 24.7258C80.0533 24.5741 79.0866 24.1608 78.9155 23.3084C78.8459 22.9631 78.9274 22.6077 79.007 22.2644L80.1189 17.5113C80.2045 17.1479 80.29 16.7846 80.3756 16.4193C79.7112 17.5173 79.011 18.6751 78.269 19.8988C76.1247 23.4342 74.3643 26.3108 73.3219 28.0096C73.304 29.6246 73.6541 31.2675 74.5234 33.0662L77.4236 26.6142Z" fill="#C7D3D8"/>
</g>
<g style="mix-blend-mode:multiply">
<path d="M85.8253 26.0373C86.5474 24.8456 88.0015 23.9173 88.8151 22.6996C88.8548 22.6397 88.8946 22.5798 88.9344 22.5199C88.7673 22.7195 88.6002 22.9172 88.4331 23.1168C91.6536 17.1899 96.9965 12.3549 98.8126 5.85506C99.5228 3.31381 98.926 2.16396 98.562 1.64892C98.4606 1.50519 98.3472 1.37343 98.2258 1.25366C98.4983 2.49134 98.0945 3.94063 97.3725 5.03858C96.352 6.58968 94.8283 7.74153 93.7223 9.23274C92.1409 11.3668 91.5144 14.0417 90.4382 16.4732C89.3621 18.9027 87.5201 21.3122 84.9023 21.7234C85.7756 21.7234 86.6488 21.947 87.4167 22.3662C87.0487 23.6518 86.5116 24.8895 85.8253 26.0373Z" fill="#C7D3D8"/>
</g>
<g style="mix-blend-mode:multiply">
<path d="M62.0267 57.8119C61.3623 59.1075 60.684 60.3971 59.9958 61.6827C58.6193 64.2499 57.1891 66.7891 55.7489 69.3204C55.3351 70.047 54.9015 70.7637 54.4997 71.4943C54.4022 71.674 54.2988 71.8537 54.1934 72.0353C54.4539 72.3188 54.7205 72.5883 54.9791 72.8418C55.0905 72.6682 55.1999 72.4945 55.3133 72.3268C55.7111 71.7319 56.0731 71.1111 56.4431 70.4982C57.195 69.2505 57.933 67.9969 58.6491 66.7273C60.0813 64.19 61.4678 61.6288 62.8105 59.0416C63.0949 58.4927 63.3774 57.9397 63.6579 57.3887C63.3336 57.0853 63.0213 56.7679 62.7229 56.4385C62.4922 56.8956 62.2595 57.3548 62.0247 57.8099L62.0267 57.8119Z" fill="#C7D3D8"/>
<path d="M69.7036 76.2574C71.4203 73.3888 73.0196 70.4523 74.4518 67.4299C74.6606 66.9868 74.8675 66.5416 75.0724 66.0964C74.7064 65.8669 74.3444 65.6313 73.9863 65.3918C73.857 65.6772 73.7257 65.9627 73.5925 66.2462C72.8962 67.7414 72.1702 69.2226 71.4262 70.6938C69.9383 73.6363 68.3271 76.517 66.6005 79.3257C66.143 80.0683 65.6775 80.8069 65.2041 81.5376C65.4647 81.7112 65.7273 81.8789 65.9918 82.0406C66.3419 81.5296 66.688 81.0145 67.0302 80.4975C67.9511 79.1021 68.8443 77.6888 69.7016 76.2534L69.7036 76.2574Z" fill="#C7D3D8"/>
<path d="M53.2229 70.4223C53.6347 69.8594 54.0046 69.2685 54.3806 68.6796C55.1305 67.5058 55.8446 66.308 56.5707 65.1183C58.0228 62.7387 59.4192 60.3252 60.8156 57.9117C61.2015 57.245 61.5894 56.5822 61.9613 55.9095C62.0011 55.8376 62.0449 55.7638 62.0906 55.6859C62.0329 55.612 61.9773 55.5402 61.9216 55.4643C61.7505 55.2347 61.5894 55.0012 61.4342 54.7636C61.3745 54.8654 61.3149 54.9632 61.2552 55.0531C60.8772 55.64 60.5073 56.2289 60.1393 56.8198C59.4013 58.0036 58.6633 59.1834 57.9213 60.3632C56.4374 62.7227 54.9773 65.0963 53.5173 67.4719C53.1573 68.0588 52.7833 68.6477 52.4551 69.2545C52.5864 69.7197 52.8052 70.1708 53.0777 70.604C53.1274 70.5421 53.1752 70.4802 53.2229 70.4184V70.4223Z" fill="#C7D3D8"/>
<path d="M65.5613 58.9877C65.247 59.5686 64.9327 60.1516 64.6065 60.7245C63.9003 61.9562 63.2081 63.1939 62.4721 64.4096C61.0001 66.841 59.4207 69.2066 57.7518 71.5063C57.2784 72.1571 56.8129 72.8139 56.3335 73.4607C56.2341 73.5944 56.1346 73.7262 56.0352 73.8579C56.427 74.2292 56.8229 74.5985 57.2207 74.9639C57.3003 74.8501 57.3759 74.7403 57.4495 74.6405C57.8871 74.0516 58.3167 73.4587 58.7424 72.8598C59.5759 71.684 60.3537 70.4643 61.1155 69.2406C62.6273 66.8111 64.0615 64.3178 65.3365 61.7546C65.6846 61.0539 66.0347 60.3452 66.3649 59.6245C66.0526 59.375 65.7662 59.1494 65.5593 58.9897L65.5613 58.9877Z" fill="#C7D3D8"/>
<path d="M58.7705 76.3632C59.0053 76.5709 59.24 76.7745 59.4747 76.9801C60.1709 76.2355 60.8532 75.4769 61.4997 74.6824C62.4863 73.4706 63.4093 72.213 64.2865 70.9194C66.0251 68.3582 67.5309 65.6213 68.8497 62.8206C68.9869 62.5271 69.1222 62.2317 69.2575 61.9362C68.8775 61.6388 68.4976 61.3393 68.1197 61.0359C68.0202 61.2595 67.9188 61.4811 67.8153 61.7026C67.1828 63.0681 66.5025 64.4116 65.7784 65.7291C64.3164 68.3862 62.6554 70.9214 60.9149 73.4028C60.2187 74.3969 59.5085 75.3911 58.7686 76.3593L58.7705 76.3632Z" fill="#C7D3D8"/>
<path d="M62.8921 79.8288C63.3138 79.2279 63.7036 78.6031 64.0955 77.9802C65.661 75.4869 67.1051 72.9257 68.4279 70.2926C69.1719 68.8114 69.8959 67.3162 70.5524 65.793C70.8647 65.0704 71.167 64.3437 71.4634 63.6131C71.169 63.3955 70.8746 63.1779 70.5822 62.9563C70.2878 63.5732 69.9894 64.186 69.6851 64.7969C69.0227 66.1204 68.3563 67.4419 67.6541 68.7455C66.2717 71.3127 64.7858 73.828 63.2203 76.2874C62.8165 76.9222 62.4047 77.553 61.985 78.1798C61.8716 78.3495 61.7204 78.5472 61.5732 78.7588C61.9512 79.0702 62.3291 79.3796 62.7091 79.685C62.7687 79.7329 62.8284 79.7809 62.8881 79.8288H62.8921Z" fill="#C7D3D8"/>
</g>
<g style="mix-blend-mode:multiply">
<path d="M105.433 15.9502C101.984 19.0085 99.9387 23.3004 98.0391 27.5186C100.557 23.9812 103.364 20.6494 106.421 17.5712C107.961 16.022 109.61 14.4709 110.436 12.4427C111.064 10.8976 111.052 8.97922 110.217 7.60179C110.084 8.08489 110.207 8.71172 110.251 9.24472C110.37 10.676 109.634 12.0595 108.667 13.1195C107.7 14.1795 106.505 14.998 105.433 15.9482V15.9502Z" fill="#C7D3D8"/>
</g>
<g style="mix-blend-mode:multiply">
<path d="M110.441 30.2494C114.712 26.3388 117.411 24.0251 117.751 20.4677C117.222 21.7992 116.102 22.9032 114.724 23.2665C113.89 23.4861 113.007 23.4402 112.168 23.6338C110.811 23.9452 109.675 24.8515 108.633 25.7778C105.407 28.6464 102.417 32.074 98.3271 33.4475C100.229 34.0104 101.571 36.0606 101.329 38.0369C101.852 37.8572 102.355 37.6316 102.845 37.3761C106.174 34.1821 108.782 31.7686 110.439 30.2514L110.441 30.2494Z" fill="#C7D3D8"/>
</g>
<g style="mix-blend-mode:multiply">
<path d="M122.916 31.5031C122.86 30.8423 122.621 30.0199 122.166 29.3391C121.854 30.7705 121.489 32.1778 120.652 33.4155C119.566 35.0205 117.941 36.1644 116.359 37.2823C109.021 42.4686 101.832 47.9084 95.3498 54.1368C92.4356 56.9376 89.6687 59.892 87.0648 62.9842C86.1001 64.1301 84.9046 65.4097 83.4147 65.272C82.7304 65.2101 82.1138 64.8448 81.531 64.4755C76.5978 61.3513 72.2236 57.3408 68.6809 52.6915C68.8341 54.3883 69.3652 56.0492 70.2265 57.5165C68.0842 56.6361 65.916 55.7418 64.0601 54.3544C62.8168 53.4261 61.7148 52.2403 60.9987 50.8729C60.9231 51.6574 60.8058 52.438 60.6128 53.2025C60.4875 53.6996 60.3323 54.1867 60.1533 54.6638C60.2408 54.8455 60.3363 55.0231 60.4378 55.1948C61.5955 57.1571 63.4374 58.5984 65.2376 59.9898C69.1046 62.9803 72.9696 65.9687 76.8365 68.9591C74.8812 72.9975 72.9278 77.036 70.9724 81.0764C70.7914 81.4517 70.5985 81.839 70.2762 82.1025C69.9599 82.36 69.5502 82.4678 69.1543 82.5696C68.669 82.6934 68.1856 82.8192 67.7002 82.9429C68.7505 83.4101 69.8486 83.7335 71.0043 83.8273C71.7204 83.8852 72.4822 83.8393 73.0829 83.446C73.6618 83.0687 74.0039 82.4279 74.3282 81.815C75.7126 79.2039 78.215 71.9175 82.802 68.7834C84.4988 67.6236 84.8887 68.0747 86.9196 66.5895C89.8059 64.4775 91.2182 61.9602 91.5683 61.3812C93.2412 58.6084 99.2963 52.6296 117.217 39.059C119.172 37.6536 123.192 34.8029 122.916 31.5011V31.5031Z" fill="#C7D3D8"/>
</g>
<path d="M70.2738 16.587C70.1922 15.5429 70.0649 14.423 69.3806 13.6325C68.6964 12.84 67.2542 12.6424 66.6773 13.5147C66.3511 14.0078 66.3989 14.6506 66.4605 15.2375C66.8345 18.735 67.3198 22.2225 67.9126 25.69C68.2468 27.6423 68.2488 31.545 69.5617 33.0362C70.5503 31.7207 70.3434 28.9878 70.4329 27.4068C70.6358 23.8035 70.5523 20.1843 70.2738 16.587Z" fill="#5788AD"/>
<path d="M91.4172 54.3624C89.983 55.7937 88.4712 57.2749 86.5398 57.8778C83.4665 58.838 80.1664 57.3268 77.5567 55.4364C76.4009 54.5999 75.2691 53.6357 74.6783 52.3342C74.0875 51.0326 74.187 49.3198 75.2532 48.3736C76.1682 47.5611 77.5427 47.4972 78.7303 47.7867C79.9178 48.0761 81.0158 48.661 82.1874 49.0104C84.9265 49.8288 87.9183 49.3058 90.546 48.1779C92.7201 47.2437 94.6775 45.9142 96.6229 44.5807C97.8462 43.7402 98.7951 43.1014 99.0039 45.0119C99.2048 46.8544 97.7667 48.0222 96.607 49.1801C94.8764 50.9068 93.1478 52.6356 91.4172 54.3644V54.3624Z" fill="#5788AD"/>
</g>
<defs>
<clipPath id="clip0_172_101435">
<rect width="122" height="92" fill="white" transform="translate(0.929688)"/>
</clipPath>
</defs>
</svg>
