<svg width="91" height="92" viewBox="0 0 91 92" fill="none" xmlns="http://www.w3.org/2000/svg">
<g clip-path="url(#clip0_172_101587)">
<path d="M87.6908 45.5645C97.9996 57.4854 79.2149 71.0052 43.3092 83.0041C43.3092 83.0041 40.3323 76.1402 28.3854 71.2132C16.4255 66.2863 13.8776 65.9613 13.8776 65.9613C13.8256 65.0773 17.1145 63.1013 21.4825 61.7493C24.8754 60.6963 28.9314 60.0074 32.5844 60.4883C32.5844 60.4883 35.5093 58.7464 40.0333 56.3284C44.4532 53.9754 50.3682 51.0115 56.6081 48.4245C57.1801 48.1775 57.7781 47.9305 58.3761 47.6965C70.2709 42.9515 82.8418 39.9356 87.6908 45.5645Z" fill="#303C47"/>
<path style="mix-blend-mode:multiply" d="M87.6908 45.5645C97.9996 57.4854 79.2149 71.0052 43.3092 83.0041C43.3092 83.0041 40.3323 76.1402 28.3854 71.2132C16.4255 66.2863 13.8776 65.9613 13.8776 65.9613C13.8256 65.0773 17.1145 63.1013 21.4825 61.7493C24.8754 60.6963 28.9314 60.0074 32.5844 60.4883C32.5844 60.4883 35.5093 58.7464 40.0333 56.3284C44.4532 53.9754 50.3682 51.0115 56.6081 48.4245C57.1801 48.1775 57.7781 47.9305 58.3761 47.6965C70.2709 42.9515 82.8418 39.9356 87.6908 45.5645Z" fill="url(#paint0_linear_172_101587)"/>
<g style="mix-blend-mode:multiply">
<path d="M89.5887 48.4375C90.7717 60.7353 62.796 74.9182 42.4902 81.6001C43.0752 82.4581 43.3092 82.9911 43.3092 82.9911C76.3419 71.9412 94.8797 59.6173 89.5887 48.4375Z" fill="#B9CCCC"/>
</g>
<g style="mix-blend-mode:screen">
<path d="M58.3634 47.6965C57.7654 47.9305 57.1674 48.1775 56.5954 48.4245C50.3555 51.0115 44.4275 53.9754 40.0206 56.3284C35.4966 58.7464 32.5717 60.4883 32.5717 60.4883C28.9187 60.0074 24.8627 60.6963 21.4698 61.7493C17.1018 63.1013 13.8129 65.0773 13.8649 65.9613C13.8649 65.9613 14.6709 66.0653 17.4528 67.0143C19.7668 65.4023 33.7937 63.5953 33.7937 63.5953C33.7937 63.5953 60.2224 47.8005 81.5811 45.2655C83.2451 44.9795 84.9221 44.7455 86.5991 44.5505C81.1391 40.3386 69.4653 43.2635 58.3634 47.6835V47.6965Z" fill="#101212"/>
</g>
<path d="M67.2551 24.2577C66.0981 28.7167 63.5891 35.9706 58.3762 47.6965C57.7782 47.9305 57.1802 48.1775 56.6082 48.4245L48.8213 30.7577L66.9691 24.1927L67.2421 24.2707L67.2551 24.2577Z" fill="#4E5656"/>
<path d="M67.2556 24.2577L66.9826 24.1797L48.8348 30.7447L41.0479 13.0909C43.5828 8.51491 45.0518 7.07192 45.0518 7.07192C45.0518 7.07192 52.8257 15.0148 67.8536 17.2248C67.8536 17.2248 68.8415 18.0698 67.2686 24.2577H67.2556Z" fill="#2F3640"/>
<path d="M48.8214 30.7577L56.6083 48.4245C50.3684 51.0114 44.4404 53.9754 40.0335 56.3284L31.5186 37.0106L48.8344 30.7447L48.8214 30.7577Z" fill="#2F3640"/>
<path d="M71.0118 9.81489C71.0118 9.81489 69.9848 13.1299 67.8398 17.2248C52.812 15.0148 45.0381 7.07192 45.0381 7.07192C46.6111 2.93797 48.0671 0 48.0671 0C48.0671 0 56.166 6.07093 71.0118 9.81489Z" fill="#303C47"/>
<path style="mix-blend-mode:multiply" d="M71.0118 9.81489C71.0118 9.81489 69.9848 13.1299 67.8398 17.2248C52.812 15.0148 45.0381 7.07192 45.0381 7.07192C46.6111 2.93797 48.0671 0 48.0671 0C48.0671 0 56.166 6.07093 71.0118 9.81489Z" fill="url(#paint1_linear_172_101587)"/>
<g style="mix-blend-mode:screen">
<path d="M52.318 2.62597C49.523 1.09199 48.0671 0 48.0671 0C48.0671 0 46.6111 2.93797 45.0381 7.07192C45.0381 7.07192 46.2991 8.35891 48.769 10.0229C49.822 7.48792 51.005 5.00495 52.331 2.62597H52.318Z" fill="#232626"/>
</g>
<g style="mix-blend-mode:multiply">
<path d="M71.0124 9.81489C69.6864 9.4769 68.4385 9.1259 67.2295 8.76191C66.3715 11.4009 65.3445 14.0008 64.1875 16.5488C65.3575 16.8088 66.5665 17.0428 67.8405 17.2378C69.9854 13.1429 71.0124 9.82789 71.0124 9.82789V9.81489Z" fill="#B9CCCC"/>
</g>
<path d="M48.8219 30.7577L31.5061 37.0236L31.0381 35.9576C31.9871 33.5006 32.9621 30.9917 33.9371 28.5347C36.771 21.3328 39.189 16.4058 41.035 13.1039L48.8219 30.7577Z" fill="#D0D0C3"/>
<path d="M31.5056 37.0236L40.0205 56.3414C35.4966 58.7594 32.5716 60.5013 32.5716 60.5013C28.9186 60.0204 24.8627 60.7093 21.4697 61.7623C23.0817 57.3034 26.8257 46.9555 31.0376 35.9576L31.5056 37.0236Z" fill="#4E5656"/>
<path style="mix-blend-mode:multiply" d="M67.2552 24.2577C68.8412 18.0828 67.8402 17.2248 67.8402 17.2248C52.8124 15.0148 45.0385 7.07192 45.0385 7.07192C45.0385 7.07192 43.5695 8.52791 41.0345 13.0909C39.1885 16.3928 36.7836 21.3198 33.9366 28.5217C32.9616 30.9917 31.9996 33.4876 31.0376 35.9446C26.8257 46.9425 23.0817 57.2904 21.4697 61.7493C24.8627 60.6963 28.9186 60.0073 32.5716 60.4883C32.5716 60.4883 35.4966 58.7464 40.0205 56.3284C44.4405 53.9754 50.3554 51.0114 56.5953 48.4245C57.1673 48.1775 57.7653 47.9305 58.3633 47.6965C63.5763 35.9706 66.0852 28.7167 67.2422 24.2577H67.2552Z" fill="url(#paint2_linear_172_101587)"/>
<g style="mix-blend-mode:multiply">
<path d="M34.3136 53.3254C31.1156 55.0414 27.2807 55.6784 23.4327 56.3284C22.6137 58.5644 21.9377 60.4233 21.4697 61.7493C24.8627 60.6963 28.9186 60.0073 32.5716 60.4883C32.5716 60.4883 35.4966 58.7464 40.0205 56.3284C44.4405 53.9754 50.3554 51.0114 56.5953 48.4245C57.1673 48.1775 57.7653 47.9305 58.3633 47.6965C59.1953 45.8375 59.9493 44.0955 60.6383 42.4445C51.8504 45.4345 43.0885 49.1525 34.3006 53.3254H34.3136Z" fill="#B9CCCC"/>
</g>
<g style="mix-blend-mode:screen">
<path d="M50.9014 11.3879C47.0144 9.0999 45.0385 7.08492 45.0385 7.08492C45.0385 7.08492 43.5695 8.54091 41.0345 13.1039C39.1885 16.4058 36.7836 21.3328 33.9366 28.5347C32.9616 31.0047 31.9996 33.5006 31.0376 35.9576C26.8257 46.9555 23.0817 57.3034 21.4697 61.7623C24.0567 60.9563 27.0337 60.3713 29.9196 60.3583C36.0426 43.6275 41.6195 26.5197 50.9014 11.4009V11.3879Z" fill="#232626"/>
</g>
<path d="M53.3842 13.8059L52.8643 12.6229L53.1633 12.4799L53.6833 13.6759L53.3842 13.8059Z" fill="#B5B5B5"/>
<path d="M62.1592 33.6956L61.1842 31.4857L61.4832 31.3557L62.4582 33.5656L62.1592 33.6956ZM60.7032 30.3807L59.7282 28.1707L60.0272 28.0407L61.0022 30.2507L60.7032 30.3807ZM59.2472 27.0657L58.2723 24.8557L58.5712 24.7257L59.5462 26.9357L59.2472 27.0657ZM57.7913 23.7507L56.8163 21.5408L57.1153 21.4108L58.0903 23.6207L57.7913 23.7507ZM56.3353 20.4358L55.3603 18.2258L55.6593 18.0958L56.6343 20.3058L56.3353 20.4358ZM54.8793 17.1208L53.9043 14.9108L54.2033 14.7808L55.1783 16.9908L54.8793 17.1208Z" fill="#B5B5B5"/>
<path d="M63.1606 35.9966L62.6406 34.8006L62.9396 34.6706L63.4596 35.8666L63.1606 35.9966Z" fill="#B5B5B5"/>
<path d="M36.394 24.6997L35.874 23.5037L36.173 23.3737L36.693 24.5697L36.394 24.6997Z" fill="#B5B5B5"/>
<path d="M47.4049 49.6855L46.352 47.3065L46.651 47.1765L47.7039 49.5555L47.4049 49.6855ZM45.832 46.1105L44.779 43.7315L45.078 43.6015L46.131 45.9805L45.832 46.1105ZM44.259 42.5355L43.206 40.1566L43.505 40.0266L44.558 42.4055L44.259 42.5355ZM42.686 38.9606L41.633 36.5816L41.932 36.4516L42.985 38.8306L42.686 38.9606ZM41.113 35.3856L40.06 33.0066L40.359 32.8766L41.412 35.2556L41.113 35.3856ZM39.54 31.8107L38.487 29.4317L38.786 29.3017L39.839 31.6807L39.54 31.8107ZM37.9671 28.2357L36.9141 25.8567L37.2131 25.7267L38.266 28.1057L37.9671 28.2357Z" fill="#B5B5B5"/>
<path d="M48.4575 52.0644L47.9375 50.8685L48.2365 50.7384L48.7565 51.9344L48.4575 52.0644Z" fill="#B5B5B5"/>
<path d="M61.6655 37.7516L61.5615 37.4526L62.7835 37.0106L62.8875 37.3096L61.6655 37.7516Z" fill="#B5B5B5"/>
<path d="M28.0347 49.9195L27.9307 49.6075L30.4266 48.7105L30.5306 49.0225L28.0347 49.9195ZM31.7656 48.5675L31.6616 48.2555L34.1576 47.3585L34.2616 47.6705L31.7656 48.5675ZM35.4966 47.2155L35.3926 46.9035L37.8886 46.0065L37.9926 46.3185L35.4966 47.2155ZM39.2275 45.8635L39.1235 45.5515L41.6195 44.6545L41.7235 44.9665L39.2275 45.8635ZM42.9585 44.5115L42.8545 44.1995L45.3505 43.3025L45.4545 43.6145L42.9585 44.5115ZM46.6895 43.1595L46.5855 42.8475L49.0814 41.9505L49.1854 42.2625L46.6895 43.1595ZM50.4204 41.8076L50.3164 41.4956L52.8124 40.5986L52.9164 40.9106L50.4204 41.8076ZM54.1514 40.4556L54.0474 40.1436L56.5434 39.2466L56.6474 39.5586L54.1514 40.4556ZM57.8823 39.1036L57.7783 38.7916L60.2743 37.8946L60.3783 38.2066L57.8823 39.1036Z" fill="#B5B5B5"/>
<path d="M25.5649 50.8164L25.4609 50.5044L26.6829 50.0625L26.7869 50.3745L25.5649 50.8164Z" fill="#B5B5B5"/>
<path d="M58.6108 15.9378L58.5068 15.6388L59.7288 15.1968L59.8328 15.4958L58.6108 15.9378Z" fill="#B5B5B5"/>
<path d="M38.1743 23.3347L38.0703 23.0227L40.3453 22.2038L40.4493 22.5158L38.1743 23.3347ZM41.5803 22.0998L41.4763 21.7878L43.7512 20.9688L43.8553 21.2808L41.5803 22.0998ZM44.9862 20.8648L44.8822 20.5528L47.1572 19.7338L47.2612 20.0458L44.9862 20.8648ZM48.3922 19.6298L48.2882 19.3178L50.5632 18.4988L50.6672 18.8108L48.3922 19.6298ZM51.7982 18.3948L51.6942 18.0828L53.9691 17.2638L54.0731 17.5758L51.7982 18.3948ZM55.2041 17.1598L55.1001 16.8478L57.3751 16.0288L57.4791 16.3408L55.2041 17.1598Z" fill="#B5B5B5"/>
<path d="M35.8221 24.1927L35.7051 23.8807L36.9271 23.4388L37.0441 23.7507L35.8221 24.1927Z" fill="#B5B5B5"/>
<path d="M26.8384 49.3475L26.3184 48.1645L26.6174 48.0345L27.1373 49.2175L26.8384 49.3475Z" fill="#B5B5B5"/>
<path d="M30.6086 57.8754L29.3606 55.0284L29.6596 54.8984L30.9075 57.7454L30.6086 57.8754ZM28.7236 53.6114L27.4756 50.7644L27.7746 50.6345L29.0226 53.4814L28.7236 53.6114Z" fill="#B5B5B5"/>
<path d="M31.7524 60.4883L31.2324 59.2924L31.5314 59.1624L32.0514 60.3583L31.7524 60.4883Z" fill="#B5B5B5"/>
<g style="mix-blend-mode:multiply">
<path d="M71.0249 43.5885C66.709 44.5895 62.484 46.0585 58.3761 47.6965C59.1561 45.9415 59.8711 44.3035 60.534 42.7435C60.5861 42.6265 60.6381 42.5095 60.6901 42.3925C61.457 40.5986 62.146 38.9216 62.757 37.3616L62.9 37.3096L62.848 37.1406C62.848 37.1406 62.874 37.0756 62.887 37.0366C63.03 36.6596 63.173 36.2956 63.316 35.9446L63.472 35.8796L63.407 35.7236C63.407 35.7236 63.407 35.6976 63.42 35.6846C65.383 30.6407 66.566 26.9487 67.255 24.2707C68.841 18.0958 67.84 17.2378 67.84 17.2378C66.826 17.0948 65.864 16.9128 64.915 16.7178C64.057 22.8928 62.263 28.8467 59.7541 34.5016C52.7731 35.5416 46.0132 37.8556 39.7603 41.2096C39.5393 34.6706 38.6813 28.2227 36.6793 21.9438C36.4583 22.4248 36.2503 22.9318 36.0293 23.4387L35.8733 23.5037L35.9383 23.6467C35.9383 23.6467 35.8863 23.7637 35.8603 23.8287L35.7043 23.8807L35.7693 24.0497C32.4154 31.9537 29.4514 40.0396 26.4744 48.0995L26.3314 48.1645L26.3964 48.3205C26.1234 49.0485 25.8634 49.7635 25.6034 50.4655L25.4734 50.5175L25.5254 50.6735C24.1734 54.3654 22.8215 58.0574 21.4825 61.7623C17.1145 63.1143 13.8256 65.0903 13.8776 65.9743C23.9525 68.1583 38.3173 73.2802 43.3092 83.0041C48.3272 81.3271 53.2931 79.5201 58.2071 77.5312C65.526 68.3403 70.5959 57.9664 71.0249 46.6695C71.1419 49.3345 71.3499 51.6224 71.0249 43.5755V43.5885Z" fill="#B9CCCC"/>
</g>
<path d="M60.8205 40.1176C74.9903 47.0205 63.0304 66.8453 34.7428 92C34.7428 92 29.3088 86.8651 16.387 87.0341C3.45209 87.216 0.982118 87.918 0.982118 87.918C0.579122 87.1251 2.8281 84.0181 6.31206 81.0541C9.01603 78.7531 12.474 76.5302 16.023 75.5292C16.023 75.5292 18.0249 72.7732 21.2359 68.7693C24.3689 64.8693 28.6458 59.8124 33.3648 54.9764C33.7938 54.5214 34.2488 54.0664 34.7038 53.6114C43.7777 44.5635 54.1385 36.8546 60.8205 40.1176Z" fill="#303C47"/>
<path style="mix-blend-mode:multiply" d="M60.8205 40.1176C74.9903 47.0205 63.0304 66.8453 34.7428 92C34.7428 92 29.3088 86.8651 16.387 87.0341C3.45209 87.216 0.982118 87.918 0.982118 87.918C0.579122 87.1251 2.8281 84.0181 6.31206 81.0541C9.01603 78.7531 12.474 76.5302 16.023 75.5292C16.023 75.5292 18.0249 72.7732 21.2359 68.7693C24.3689 64.8693 28.6458 59.8124 33.3648 54.9764C33.7938 54.5214 34.2488 54.0664 34.7038 53.6114C43.7777 44.5635 54.1385 36.8546 60.8205 40.1176Z" fill="url(#paint3_linear_172_101587)"/>
<g style="mix-blend-mode:screen">
<path d="M63.6934 42.0285C69.6083 52.8704 49.4845 76.9072 33.4297 91.051C34.3007 91.61 34.7297 92.013 34.7297 92.013C60.7554 68.8603 72.9493 50.2445 63.6804 42.0285H63.6934Z" fill="#070808"/>
</g>
<g style="mix-blend-mode:screen">
<path d="M34.7038 53.6114C34.2488 54.0664 33.7938 54.5214 33.3648 54.9764C28.6458 59.8124 24.3689 64.8693 21.2359 68.7693C18.0249 72.7732 16.023 75.5292 16.023 75.5292C12.474 76.5302 9.01603 78.7531 6.31206 81.0541C2.8281 84.0181 0.579122 87.125 0.982118 87.918C0.982118 87.918 1.76211 87.697 4.70008 87.4761C6.19506 85.0841 18.3759 77.8951 18.3759 77.8951C18.3759 77.8951 36.4717 52.9744 55.1005 42.2495C56.5175 41.3396 57.9605 40.4556 59.4295 39.6106C52.7606 37.8946 43.1667 45.1615 34.7038 53.6114Z" fill="#101212"/>
</g>
<path d="M33.6506 28.5737C34.3396 33.1236 34.8856 40.7806 34.7036 53.6114C34.2486 54.0664 33.7936 54.5214 33.3646 54.9764L19.2598 41.7946L33.3646 28.6127L33.6506 28.5737Z" fill="#4E5656"/>
<path d="M33.651 28.5737L33.365 28.6127L19.2601 41.7946L5.15527 28.6257C5.68827 23.4258 6.46826 21.5148 6.46826 21.5148C6.46826 21.5148 16.7381 25.7657 31.428 21.8788C31.428 21.8788 32.676 22.2688 33.651 28.5737Z" fill="#2F3640"/>
<path d="M19.2595 41.7945L33.3644 54.9764C28.6454 59.8124 24.3685 64.8693 21.2355 68.7693L5.80469 54.3654L19.2595 41.7945Z" fill="#2F3640"/>
<path d="M31.4273 13.8189C31.4273 13.8189 31.7913 17.2638 31.4273 21.8788C16.7375 25.7657 6.46761 21.5148 6.46761 21.5148C6.28561 17.0948 6.46761 13.8189 6.46761 13.8189C6.46761 13.8189 16.2955 16.2108 31.4273 13.8189Z" fill="#303C47"/>
<path style="mix-blend-mode:multiply" d="M31.4273 13.8189C31.4273 13.8189 31.7913 17.2638 31.4273 21.8788C16.7375 25.7657 6.46761 21.5148 6.46761 21.5148C6.28561 17.0948 6.46761 13.8189 6.46761 13.8189C6.46761 13.8189 16.2955 16.2108 31.4273 13.8189Z" fill="url(#paint4_linear_172_101587)"/>
<g style="mix-blend-mode:screen">
<path d="M6.46761 13.8189C6.46761 13.8189 6.28561 17.0948 6.46761 21.5148C6.46761 21.5148 8.05359 22.1648 10.8616 22.7238C10.8486 20.0068 10.9396 17.2768 11.1476 14.5338C8.15759 14.2218 6.46761 13.8189 6.46761 13.8189Z" fill="#232626"/>
</g>
<g style="mix-blend-mode:multiply">
<path d="M31.4282 13.8189C30.2712 14.0008 29.1532 14.1568 28.0742 14.2868C28.3992 17.0948 28.3992 19.8638 28.2302 22.6198C29.2702 22.4118 30.3362 22.1778 31.4282 21.8788C31.7922 17.2638 31.4282 13.8189 31.4282 13.8189Z" fill="#B9CCCC"/>
</g>
<path d="M19.2598 41.7946L5.80491 54.3654L4.95992 53.5724C4.86892 50.9335 4.77792 48.2555 4.69993 45.6035C4.47893 37.8686 4.75192 32.3827 5.15492 28.6257L19.2598 41.7946Z" fill="#D0D0C3"/>
<path d="M5.80495 54.3654L21.2358 68.7693C18.0248 72.7732 16.0228 75.5292 16.0228 75.5292C12.4739 76.5302 9.01592 78.7531 6.31195 81.0541C6.03895 76.3222 5.41496 65.3373 4.95996 53.5724L5.80495 54.3654Z" fill="#4E5656"/>
<path style="mix-blend-mode:multiply" d="M33.6506 28.5737C32.6756 22.2688 31.4276 21.8788 31.4276 21.8788C16.7378 25.7657 6.46791 21.5148 6.46791 21.5148C6.46791 21.5148 5.68791 23.4258 5.15492 28.6257C4.75192 32.3827 4.47893 37.8686 4.69993 45.6035C4.77792 48.2555 4.86892 50.9335 4.95992 53.5724C5.41492 65.3373 6.03891 76.3222 6.31191 81.0541C9.01588 78.7532 12.4738 76.5302 16.0228 75.5292C16.0228 75.5292 18.0248 72.7732 21.2357 68.7693C24.3687 64.8693 28.6457 59.8124 33.3646 54.9764C33.7936 54.5214 34.2486 54.0664 34.7036 53.6114C34.8856 40.7806 34.3396 33.1236 33.6506 28.5737Z" fill="url(#paint5_linear_172_101587)"/>
<g style="mix-blend-mode:multiply">
<path d="M33.651 28.3917C32.676 22.0868 31.428 21.6968 31.428 21.6968C30.414 21.9698 29.4261 22.1908 28.4511 22.3858C30.167 31.9797 30.674 41.7556 30.544 51.6224C25.1491 56.7704 19.9232 62.2693 14.8012 68.0803C12.5262 70.9142 9.26327 73.0202 5.9873 75.1262C6.1173 77.5052 6.2343 79.4811 6.3123 80.8851C9.01627 78.5842 12.4742 76.3612 16.0232 75.3602C16.0232 75.3602 18.0252 72.6042 21.2361 68.6003C23.6931 65.5453 26.8521 61.7753 30.375 57.9664C31.35 56.9134 32.338 55.8604 33.365 54.8074C33.794 54.3524 34.249 53.8974 34.704 53.4424C34.717 52.4804 34.73 51.5574 34.73 50.6605C34.73 50.5045 34.73 50.3615 34.73 50.2055C34.782 39.3116 34.275 32.5647 33.651 28.4047V28.3917Z" fill="#B9CCCC"/>
</g>
<g style="mix-blend-mode:screen">
<path d="M13.5528 23.1788C9.08088 22.6068 6.46791 21.5278 6.46791 21.5278C6.46791 21.5278 5.68791 23.4388 5.15492 28.6387C4.75192 32.3957 4.47893 37.8816 4.69993 45.6165C4.77792 48.2685 4.86892 50.9465 4.95992 53.5854C5.41492 65.3503 6.03891 76.3352 6.31191 81.0671C8.37888 79.3121 10.8749 77.6092 13.5268 76.4522C12.5778 58.6684 10.9659 40.7416 13.5658 23.1788H13.5528Z" fill="#232626"/>
</g>
<path d="M16.7898 24.4267L15.8408 23.5297L16.0618 23.2957L17.0108 24.1797L16.7898 24.4267Z" fill="#B5B5B5"/>
<path d="M32.6753 39.2596L30.9073 37.6086L31.1283 37.3746L32.8963 39.0256L32.6753 39.2596ZM30.0233 36.7896L28.2553 35.1386L28.4763 34.9046L30.2443 36.5556L30.0233 36.7896ZM27.3714 34.3196L25.6034 32.6686L25.8244 32.4346L27.5924 34.0856L27.3714 34.3196ZM24.7194 31.8497L22.9514 30.1987L23.1724 29.9647L24.9404 31.6157L24.7194 31.8497ZM22.0674 29.3797L20.2994 27.7287L20.5204 27.4947L22.2884 29.1457L22.0674 29.3797ZM19.4154 26.9097L17.6475 25.2587L17.8685 25.0247L19.6364 26.6757L19.4154 26.9097Z" fill="#B5B5B5"/>
<path d="M34.5086 40.9756L33.5596 40.0916L33.7806 39.8446L34.7296 40.7416L34.5086 40.9756Z" fill="#B5B5B5"/>
<path d="M5.45387 41.1186L4.50488 40.2346L4.72588 39.9876L5.67487 40.8846L5.45387 41.1186Z" fill="#B5B5B5"/>
<path d="M25.4085 59.7604L23.5105 57.9794L23.7315 57.7454L25.6295 59.5264L25.4085 59.7604ZM22.5615 57.0954L20.6636 55.3144L20.8846 55.0804L22.7825 56.8614L22.5615 57.0954ZM19.7146 54.4304L17.8166 52.6494L18.0376 52.4154L19.9356 54.1964L19.7146 54.4304ZM16.8676 51.7654L14.9696 49.9845L15.1906 49.7505L17.0886 51.5314L16.8676 51.7654ZM14.0206 49.1005L12.1226 47.3195L12.3436 47.0855L14.2416 48.8665L14.0206 49.1005ZM11.1737 46.4355L9.27568 44.6545L9.49668 44.4205L11.3947 46.2015L11.1737 46.4355ZM8.32669 43.7705L6.42871 41.9895L6.64971 41.7555L8.54769 43.5365L8.32669 43.7705Z" fill="#B5B5B5"/>
<path d="M27.3064 61.5283L26.3574 60.6443L26.5784 60.4103L27.5274 61.2943L27.3064 61.5283Z" fill="#B5B5B5"/>
<path d="M33.8196 43.1855L33.5986 42.9385L34.5476 42.0545L34.7686 42.3015L33.8196 43.1855Z" fill="#B5B5B5"/>
<path d="M7.68975 67.5993L7.46875 67.3653L9.40573 65.5583L9.62673 65.7923L7.68975 67.5993ZM10.5887 64.8823L10.3677 64.6483L12.3047 62.8413L12.5257 63.0753L10.5887 64.8823ZM13.4877 62.1653L13.2667 61.9313L15.2037 60.1243L15.4247 60.3583L13.4877 62.1653ZM16.3867 59.4484L16.1657 59.2144L18.1026 57.4074L18.3236 57.6414L16.3867 59.4484ZM19.2856 56.7314L19.0646 56.4974L21.0016 54.6904L21.2226 54.9244L19.2856 56.7314ZM22.1846 54.0144L21.9636 53.7804L23.9006 51.9734L24.1216 52.2074L22.1846 54.0144ZM25.0836 51.2974L24.8626 51.0634L26.7995 49.2565L27.0205 49.4905L25.0836 51.2974ZM27.9825 48.5805L27.7615 48.3465L29.6985 46.5395L29.9195 46.7735L27.9825 48.5805ZM30.8815 45.8635L30.6605 45.6295L32.5975 43.8225L32.8185 44.0565L30.8815 45.8635Z" fill="#B5B5B5"/>
<path d="M5.76592 69.3933L5.54492 69.1463L6.49391 68.2623L6.71491 68.4963L5.76592 69.3933Z" fill="#B5B5B5"/>
<path d="M22.4319 24.3357L22.2109 24.0887L23.1599 23.2048L23.3809 23.4387L22.4319 24.3357Z" fill="#B5B5B5"/>
<path d="M6.55889 39.1686L6.33789 38.9346L8.10587 37.2836L8.32687 37.5176L6.55889 39.1686ZM9.21086 36.6986L8.98986 36.4646L10.7578 34.8136L10.9788 35.0476L9.21086 36.6986ZM11.8628 34.2286L11.6418 33.9946L13.4098 32.3436L13.6308 32.5776L11.8628 34.2286ZM14.5148 31.7587L14.2938 31.5247L16.0618 29.8737L16.2828 30.1077L14.5148 31.7587ZM17.1668 29.2887L16.9458 29.0547L18.7138 27.4037L18.9348 27.6377L17.1668 29.2887ZM19.8187 26.8187L19.5977 26.5847L21.3657 24.9337L21.5867 25.1677L19.8187 26.8187Z" fill="#B5B5B5"/>
<path d="M4.72588 40.8846L4.50488 40.6376L5.45387 39.7536L5.67487 39.9876L4.72588 40.8846Z" fill="#B5B5B5"/>
<path d="M6.36403 67.5473L5.41504 66.6503L5.63604 66.4163L6.58503 67.3003L6.36403 67.5473Z" fill="#B5B5B5"/>
<path d="M13.1761 73.9042L10.9011 71.7852L11.1221 71.5512L13.3971 73.6702L13.1761 73.9042ZM9.77009 70.7192L7.49512 68.6003L7.71611 68.3663L9.99109 70.4852L9.77009 70.7192Z" fill="#B5B5B5"/>
<path d="M15.2556 75.8542L14.3066 74.9572L14.5276 74.7232L15.4766 75.6072L15.2556 75.8542Z" fill="#B5B5B5"/>
</g>
<defs>
<linearGradient id="paint0_linear_172_101587" x1="89.5833" y1="47.6113" x2="30.6149" y2="73.6412" gradientUnits="userSpaceOnUse">
<stop stop-color="white"/>
<stop offset="0.35" stop-color="#EBEDEE"/>
<stop offset="0.67" stop-color="#D3D7DA"/>
<stop offset="1" stop-color="#9CA5AD"/>
</linearGradient>
<linearGradient id="paint1_linear_172_101587" x1="58.9425" y1="6.09802" x2="55.8361" y2="14.186" gradientUnits="userSpaceOnUse">
<stop stop-color="white"/>
<stop offset="0.35" stop-color="#EBEDEE"/>
<stop offset="0.67" stop-color="#D3D7DA"/>
<stop offset="1" stop-color="#9CA5AD"/>
</linearGradient>
<linearGradient id="paint2_linear_172_101587" x1="56.3007" y1="13.9604" x2="36.7054" y2="60.5942" gradientUnits="userSpaceOnUse">
<stop stop-color="white"/>
<stop offset="0.35" stop-color="#EBEDEE"/>
<stop offset="0.67" stop-color="#D3D7DA"/>
<stop offset="1" stop-color="#9CA5AD"/>
</linearGradient>
<linearGradient id="paint3_linear_172_101587" x1="63.3814" y1="41.2616" x2="19.3899" y2="88.386" gradientUnits="userSpaceOnUse">
<stop stop-color="white"/>
<stop offset="0.35" stop-color="#EBEDEE"/>
<stop offset="0.67" stop-color="#D3D7DA"/>
<stop offset="1" stop-color="#9CA5AD"/>
</linearGradient>
<linearGradient id="paint4_linear_172_101587" x1="18.8695" y1="15.1448" x2="19.1945" y2="23.8157" gradientUnits="userSpaceOnUse">
<stop stop-color="white"/>
<stop offset="0.35" stop-color="#EBEDEE"/>
<stop offset="0.67" stop-color="#D3D7DA"/>
<stop offset="1" stop-color="#9CA5AD"/>
</linearGradient>
<linearGradient id="paint5_linear_172_101587" x1="19.5458" y1="23.4128" x2="19.8708" y2="74.0082" gradientUnits="userSpaceOnUse">
<stop stop-color="white"/>
<stop offset="0.35" stop-color="#EBEDEE"/>
<stop offset="0.67" stop-color="#D3D7DA"/>
<stop offset="1" stop-color="#9CA5AD"/>
</linearGradient>
<clipPath id="clip0_172_101587">
<rect width="89.569" height="92" fill="white" transform="translate(0.929688)"/>
</clipPath>
</defs>
</svg>
