<svg width="81" height="92" viewBox="0 0 81 92" fill="none" xmlns="http://www.w3.org/2000/svg">
<g clip-path="url(#clip0_172_101305)">
<path d="M10.3835 5.29675C10.9523 5.43895 11.7166 6.55873 12.6231 8.38949C10.6323 8.7272 9.17484 9.18933 8.10838 9.74034C8.10838 9.74034 7.78844 7.30525 10.0458 5.3323C10.0458 5.3323 10.1524 5.31453 10.3657 5.29675H10.3835Z" fill="#1A2434"/>
<path d="M15.1291 52.1855C12.1963 52.3099 9.6368 52.1322 9.6368 52.1322C0.429688 39.8145 0.429688 15.7303 0.429688 15.7303L6.54406 14.1306C7.4861 21.8802 11.041 39.8145 15.1291 52.1855Z" fill="#1A2434"/>
<path style="mix-blend-mode:screen" d="M15.1291 52.1855C12.1963 52.3099 9.6368 52.1322 9.6368 52.1322C0.429688 39.8145 0.429688 15.7303 0.429688 15.7303L6.54406 14.1306C7.4861 21.8802 11.041 39.8145 15.1291 52.1855Z" fill="url(#paint0_linear_172_101305)"/>
<g style="mix-blend-mode:multiply">
<path d="M11.2895 52.2033C12.3026 52.2388 13.6535 52.2388 15.1287 52.1855C11.0407 39.8145 7.48578 21.8802 6.54374 14.1306L4.74853 14.5927C4.58856 27.7458 7.0592 40.2411 11.2895 52.2033Z" fill="#9DA6B0"/>
</g>
<path d="M12.623 8.38949C16.64 16.619 23.3587 39.2991 27.0202 53.092C20.8703 54.585 15.8046 54.1584 15.8046 54.1584C15.5735 53.5185 15.3602 52.8609 15.1292 52.1855C11.0411 39.8145 7.4862 21.8802 6.54416 14.1306C6.40196 12.8331 6.31309 11.8022 6.31309 11.1623L6.25977 11.109C6.70412 10.6291 7.29068 10.1669 8.1083 9.74034C9.17476 9.18933 10.6323 8.7272 12.623 8.38949Z" fill="#0F1721"/>
<path style="mix-blend-mode:screen" d="M12.623 8.38949C16.64 16.619 23.3587 39.2991 27.0202 53.092C20.8703 54.585 15.8046 54.1584 15.8046 54.1584C15.5735 53.5185 15.3602 52.8609 15.1292 52.1855C11.0411 39.8145 7.4862 21.8802 6.54416 14.1306C6.40196 12.8331 6.31309 11.8022 6.31309 11.1623L6.25977 11.109C6.70412 10.6291 7.29068 10.1669 8.1083 9.74034C9.17476 9.18933 10.6323 8.7272 12.623 8.38949Z" fill="url(#paint1_linear_172_101305)"/>
<g style="mix-blend-mode:multiply">
<path d="M27.0202 53.092C23.3587 39.2991 16.64 16.619 12.623 8.38949C11.2189 8.62055 10.0991 8.92272 9.1748 9.27821C16.1779 23.5688 20.106 38.5525 22.6655 53.8918C23.9986 53.7141 25.4739 53.4652 27.0025 53.092H27.0202Z" fill="#9DA6B0"/>
</g>
<path d="M27.0206 53.092C23.3591 39.2991 16.6404 16.619 12.6234 8.38949C11.7169 6.55873 10.9526 5.43895 10.3838 5.29676C12.4812 5.01237 24.2656 3.466 36.832 1.59969C50.3583 -0.426583 62.036 -1.79521 65.0754 5.67002C68.1326 13.1352 80.237 51.7944 80.9124 55.8648C81.5878 59.9351 68.7014 88.4096 67.0128 91.4668C65.3243 94.524 55.4773 84.0015 42.5909 74.1723C29.7045 64.3431 29.7045 64.3431 29.3846 62.7434C29.0113 60.8771 28.1581 57.4289 27.0206 53.092Z" fill="#283544"/>
<g style="mix-blend-mode:screen">
<path d="M43.5504 0.657652C38.0226 13.2597 30.5573 30.5008 24.4785 43.8849C25.4206 47.1909 26.2737 50.3192 27.0202 53.092C27.5357 55.0827 27.9978 56.8779 28.3889 58.4243C36.8139 40.5788 47.7274 16.4235 54.9793 0.0888732C51.6733 -0.142193 47.7807 0.142196 43.5682 0.675427L43.5504 0.657652Z" fill="#283544"/>
</g>
<g style="mix-blend-mode:screen">
<path d="M10.3838 5.29676C10.9526 5.43895 11.7169 6.55873 12.6234 8.38949C13.8676 10.949 15.3962 14.9304 16.9958 19.6051C19.3421 14.3083 21.7771 8.7983 24.1234 3.43045C17.1203 4.40804 11.7346 5.11901 10.3838 5.29676Z" fill="#283544"/>
</g>
<g style="mix-blend-mode:screen">
<path d="M66.675 10.007C59.7608 25.755 47.7098 52.9498 38.9648 71.4173C40.0491 72.2527 41.2222 73.1414 42.5908 74.1723C44.1905 75.381 45.7369 76.6252 47.2299 77.8339C54.6063 62.1924 64.2044 40.7566 71.4563 24.3686C69.6789 18.823 67.9726 13.6862 66.6928 10.007H66.675Z" fill="#283544"/>
</g>
<g style="mix-blend-mode:screen">
<path d="M80.9117 55.8648C80.7162 54.6739 79.5075 50.4436 77.8545 44.9158C71.2958 59.5796 64.0438 75.6121 58.4805 87.2187C63.0485 90.9513 66.1412 93.0487 67.0122 91.4668C68.7007 88.4096 81.5871 59.9351 80.9117 55.8648Z" fill="#283544"/>
</g>
<g style="mix-blend-mode:screen">
<path d="M71.3676 24.1376C56.7748 17.3655 38.6094 9.26043 25.0832 3.28825C17.6002 4.33694 11.788 5.10124 10.3838 5.29675C10.9348 5.43895 11.6813 6.50541 12.5523 8.26507C27.145 14.8238 56.1172 28.119 75.5268 37.3083C74.1937 33.0247 72.7717 28.4745 71.3676 24.1553V24.1376Z" fill="#283544"/>
</g>
<g style="mix-blend-mode:screen">
<path d="M65.0751 5.67002C63.2621 1.20866 58.3564 -0.0888711 51.8154 6.47269e-07C56.2946 2.0085 60.7915 4.03478 65.2351 6.06105C65.1817 5.91886 65.1284 5.77666 65.0751 5.65224V5.67002Z" fill="#283544"/>
</g>
<g style="mix-blend-mode:screen">
<path d="M80.9116 55.8648C80.8582 55.5271 80.716 54.9227 80.5027 54.1584C64.3992 46.3377 34.5738 32.7403 19.0391 25.8083C20.4788 30.3053 21.9363 35.0866 23.2694 39.7257C34.6983 44.6847 62.1418 56.6468 78.6364 64.432C80.1295 60.3261 81.0893 57.0556 80.8938 55.8825L80.9116 55.8648Z" fill="#283544"/>
</g>
<path style="mix-blend-mode:screen" d="M27.0206 53.092C23.3591 39.2991 16.6404 16.619 12.6234 8.38949C11.7169 6.55873 10.9526 5.43895 10.3838 5.29676C12.4812 5.01237 24.2656 3.466 36.832 1.59969C50.3583 -0.426583 62.036 -1.79521 65.0754 5.67002C68.1326 13.1352 80.237 51.7944 80.9124 55.8648C81.5878 59.9351 68.7014 88.4096 67.0128 91.4668C65.3243 94.524 55.4773 84.0015 42.5909 74.1723C29.7045 64.3431 29.7045 64.3431 29.3846 62.7434C29.0113 60.8771 28.1581 57.4289 27.0206 53.092Z" fill="url(#paint2_linear_172_101305)"/>
</g>
<defs>
<linearGradient id="paint0_linear_172_101305" x1="1.85163" y1="13.9706" x2="11.6275" y2="52.1855" gradientUnits="userSpaceOnUse">
<stop/>
<stop offset="0.32" stop-color="#444444"/>
<stop offset="0.49" stop-color="#4E4E4E"/>
<stop offset="0.67" stop-color="#454545"/>
<stop offset="1"/>
</linearGradient>
<linearGradient id="paint1_linear_172_101305" x1="10.2234" y1="5.38562" x2="21.1724" y2="55.1538" gradientUnits="userSpaceOnUse">
<stop/>
<stop offset="0.33" stop-color="#4E4E4E"/>
<stop offset="0.46" stop-color="#5C5C5C"/>
<stop offset="0.63" stop-color="#4F4F4F"/>
<stop offset="1"/>
</linearGradient>
<linearGradient id="paint2_linear_172_101305" x1="35.3923" y1="-4.47913" x2="63.8312" y2="91.9467" gradientUnits="userSpaceOnUse">
<stop stop-color="#697682"/>
<stop offset="0.23" stop-color="#272B30"/>
<stop offset="0.65" stop-color="#0C0D0F"/>
<stop offset="1"/>
</linearGradient>
<clipPath id="clip0_172_101305">
<rect width="80.5" height="92" fill="white" transform="translate(0.429688)"/>
</clipPath>
</defs>
</svg>
