<svg width="58" height="92" viewBox="0 0 58 92" fill="none" xmlns="http://www.w3.org/2000/svg">
<g clip-path="url(#clip0_214_167544)">
<path d="M31.2885 45.0761C28.245 44.2613 26.7535 46.0818 24.3562 47.9463C21.959 49.8109 19.3801 50.3999 18.6441 49.3266C17.9082 48.2533 14.7726 49.3437 13.4936 46.8755C12.2147 44.4072 12.5976 41.1932 10.3301 39.9677C8.06257 38.7421 4.77515 37.2325 4.85055 33.9956C4.92595 30.7586 6.08444 28.113 4.72667 26.6025C3.36891 25.092 2.81806 22.5929 2.9439 20.2764C3.06974 17.9594 0.446747 15.5259 0.97066 14.6186C1.49457 13.7108 4.24536 12.2698 8.35782 15.3359C12.4703 18.4021 14.868 15.2703 19.7101 17.1765C24.5521 19.0827 25.5054 24.6303 29.47 27.3977C33.4346 30.1651 38.3359 33.0574 35.5342 37.7902C32.7325 42.5231 31.2885 45.0765 31.2885 45.0765V45.0761Z" fill="#70A012"/>
<path d="M35.8068 42.15C33.744 40.3687 32.2697 41.5815 30.1216 42.5328C27.9736 43.4842 25.9587 43.1772 25.6429 41.9233C25.3271 40.6693 22.7991 40.6473 22.3761 37.9009C21.9535 35.1545 22.9054 32.2627 21.4977 30.3541C20.0899 28.446 17.9933 25.9297 18.7248 22.9131C19.4559 19.8964 20.8587 17.7973 20.1781 15.925C19.4975 14.0526 19.615 11.5207 20.1913 9.38535C20.7676 7.25053 19.3516 4.08796 19.9254 3.4103C20.4993 2.73264 22.8187 2.29638 25.1954 6.55035C27.5721 10.8043 29.9855 8.66167 33.1393 12.0691C36.2935 15.4764 35.8342 21.0074 38.1649 24.9309C40.4956 28.8548 43.4873 33.2087 40.4432 36.7204C37.3991 40.232 35.8068 42.1495 35.8068 42.1495V42.15Z" fill="#70A012"/>
<path d="M35.3098 51.4477L34.8505 50.6947L34.6204 50.3181L34.3795 49.948L33.8962 49.2076L33.3929 48.4795C33.3082 48.3586 33.2264 48.2357 33.1392 48.1162L32.8778 47.7583C32.7025 47.5203 32.5311 47.2794 32.3519 47.0439C31.9901 46.5758 31.6346 46.1023 31.2571 45.6455L30.9775 45.2998L30.8374 45.127L30.694 44.9571L30.1191 44.2775C30.0242 44.1634 29.9248 44.0532 29.8268 43.9416L29.5321 43.6076L29.2373 43.2737C29.1384 43.1631 29.0366 43.0544 28.9367 42.9447L28.3325 42.2886L27.7165 41.6432C27.5128 41.4263 27.3003 41.2177 27.0917 41.0052C26.8822 40.7937 26.6736 40.5812 26.4591 40.3746C25.612 39.5368 24.7366 38.726 23.8459 37.9318C22.9543 37.1381 22.0436 36.3644 21.1142 35.6128C20.1849 34.8612 19.237 34.1312 18.2714 33.4242C17.7891 33.0697 17.3009 32.7235 16.8083 32.3827C16.3153 32.0429 15.8188 31.708 15.3115 31.3887C15.8364 31.6781 16.3525 31.9836 16.8651 32.2951C17.3773 32.6074 17.886 32.9252 18.3894 33.2523C19.3976 33.904 20.39 34.5807 21.3669 35.2814C22.3432 35.982 23.3039 36.7062 24.2479 37.4529C25.1909 38.2006 26.1213 38.9669 27.0261 39.7635C27.2553 39.9598 27.4785 40.1621 27.7023 40.3638C27.9256 40.5665 28.1533 40.7648 28.3721 40.9724L29.0341 41.5903L29.6858 42.22C29.794 42.3253 29.9037 42.4296 30.0105 42.5363L30.3297 42.858L30.6489 43.1802C30.7552 43.2879 30.8629 43.3942 30.9662 43.5043L31.5915 44.1624L31.7482 44.3269L31.9009 44.4949L32.2065 44.8312C32.6187 45.2758 33.0105 45.7385 33.409 46.1964C33.6063 46.427 33.7963 46.664 33.9907 46.8975L34.2806 47.2496C34.377 47.3671 34.4686 47.4885 34.5626 47.608L35.1242 48.3278C35.3069 48.5716 35.4861 48.8174 35.6672 49.0627L35.9385 49.4309L36.1995 49.8069L36.7204 50.56L35.3103 51.4472L35.3098 51.4477Z" fill="#B81C46"/>
<path d="M36.8825 50.8866L36.6749 50.0332L36.5706 49.6062L36.4541 49.1822L36.2196 48.3332L35.962 47.4895C35.9184 47.349 35.8783 47.2075 35.8313 47.0679L35.6913 46.6488C35.5968 46.3697 35.5071 46.0887 35.4082 45.811C35.206 45.2568 35.0116 44.6991 34.7918 44.1502L34.6312 43.7369L34.5509 43.5303L34.4657 43.3256L34.1254 42.5055C34.0701 42.3679 34.0084 42.2332 33.9491 42.0976L33.7699 41.6907L33.5907 41.2838C33.53 41.1487 33.4663 41.0145 33.4042 40.8799L33.0281 40.073L32.6379 39.2719C32.5101 39.0036 32.371 38.7412 32.2369 38.4758C32.1017 38.2109 31.968 37.9455 31.8265 37.6835C31.2747 36.6293 30.6876 35.5918 30.0805 34.5655C29.4724 33.5392 28.8402 32.5262 28.1836 31.5283C27.527 30.5299 26.8455 29.5467 26.1404 28.5802C25.7888 28.0959 25.4284 27.6181 25.0632 27.1436C24.6969 26.6701 24.3248 26.2001 23.9385 25.7422C24.3571 26.1717 24.762 26.6143 25.1626 27.0613C25.5621 27.5089 25.9568 27.9613 26.3436 28.4206C27.1192 29.3377 27.8732 30.2738 28.6052 31.2286C29.3367 32.1834 30.0462 33.1563 30.7337 34.1464C31.4201 35.1369 32.0885 36.1417 32.724 37.1684C32.8866 37.423 33.0418 37.6821 33.1975 37.9411C33.3527 38.2001 33.5129 38.4567 33.6622 38.7196L34.1176 39.5045L34.5592 40.2977C34.6322 40.4304 34.7071 40.5621 34.7786 40.6953L34.9911 41.0968L35.2036 41.4988C35.2741 41.633 35.3465 41.7661 35.4136 41.9023L35.822 42.7155L35.9243 42.9192L36.0218 43.1249L36.2171 43.5367C36.483 44.0831 36.7244 44.6418 36.9736 45.1975C37.096 45.4766 37.2091 45.7591 37.3276 46.0402L37.5034 46.4627C37.5622 46.6038 37.6141 46.7472 37.6699 46.8892L37.9994 47.7441C38.1037 48.0315 38.2041 48.3204 38.3064 48.6088L38.4597 49.0417L38.6007 49.4789L38.8817 50.3549L36.883 50.8866H36.8825Z" fill="#B81C46"/>
<path d="M38.2255 50.3274L37.9062 49.4647L37.7476 49.0333L37.6012 48.598C37.5042 48.3077 37.4048 48.0183 37.3099 47.728L37.042 46.8515C36.9984 46.7051 36.951 46.5602 36.9103 46.4133L36.7879 45.9726C36.7076 45.6783 36.6224 45.386 36.5465 45.0912C36.3996 44.5003 36.2449 43.9117 36.1176 43.3173L36.0172 42.8727L35.9673 42.6504L35.9222 42.4271L35.742 41.535C35.7107 41.3867 35.6857 41.2368 35.6583 41.088L35.5775 40.6404L35.4972 40.1934C35.4713 40.0441 35.4487 39.8942 35.4248 39.7449L35.2828 38.8479L35.1569 37.9494C35.1124 37.6502 35.0805 37.3496 35.0428 37.0499C35.0061 36.7503 34.9684 36.4506 34.939 36.15C34.8059 34.9494 34.7123 33.7463 34.6413 32.5433C34.5713 31.3403 34.5297 30.1367 34.517 28.9342C34.5042 27.7311 34.5199 26.5291 34.5649 25.329C34.586 24.7287 34.6178 24.1294 34.656 23.5305C34.6957 22.9317 34.7412 22.3334 34.8058 21.7375C34.7843 22.3363 34.7814 22.9356 34.7853 23.5345C34.7902 24.1333 34.8014 24.7316 34.8235 25.3295C34.8646 26.5257 34.9346 27.7194 35.0335 28.9102C35.1324 30.101 35.2593 31.2884 35.414 32.4708C35.5692 33.6533 35.7469 34.8319 35.9629 36.0021C36.0128 36.2954 36.0711 36.5872 36.1284 36.879C36.1866 37.1704 36.239 37.4632 36.3041 37.753L36.4907 38.6241L36.6929 39.4913C36.7272 39.6357 36.7595 39.7801 36.7952 39.9241L36.9054 40.355L37.0156 40.7859C37.0528 40.9293 37.0876 41.0733 37.1287 41.2158L37.3667 42.0712L37.4259 42.2851L37.49 42.4976L37.6183 42.9222C37.7833 43.4896 37.9748 44.0488 38.1574 44.6094C38.2509 44.889 38.3538 45.1657 38.4517 45.4433L38.6001 45.8595C38.6495 45.9981 38.7053 46.1347 38.7572 46.2718L39.075 47.0944L39.4143 47.9072L39.5842 48.3131L39.7654 48.7136L40.1282 49.5132L38.2269 50.3274H38.2255Z" fill="#B81C46"/>
<path d="M40.6368 50.1115L40.4797 49.2047L40.4018 48.7517L40.3367 48.2974C40.2941 47.9943 40.2491 47.6917 40.2084 47.3891L40.1041 46.4788C40.0875 46.3271 40.0674 46.1758 40.0542 46.024L40.014 45.5681C39.9886 45.2645 39.9577 44.961 39.9372 44.6574C39.8999 44.0493 39.8549 43.4426 39.8378 42.835L39.8201 42.3796L39.8113 42.1519L39.8074 41.9242L39.7922 41.014C39.7883 40.8622 39.7908 40.7109 39.7912 40.5591L39.7932 40.1043L39.7952 39.6499C39.7966 39.4986 39.802 39.3473 39.805 39.1955L39.8285 38.2877L39.8681 37.3814C39.8789 37.0793 39.9019 36.7777 39.919 36.476C39.9376 36.1744 39.9548 35.8728 39.9807 35.5722C40.0679 34.3677 40.1942 33.1676 40.3436 31.9719C40.4934 30.7762 40.6711 29.5854 40.8768 28.4C41.0824 27.215 41.3165 26.0355 41.5789 24.8633C41.7087 24.2772 41.8492 23.6931 41.9956 23.1114C42.143 22.5297 42.2972 21.95 42.4691 21.3756C42.3388 21.9607 42.2272 22.5493 42.1224 23.1388C42.0186 23.7283 41.9207 24.3188 41.8335 24.9113C41.6568 26.0947 41.5089 27.2816 41.3894 28.4705C41.27 29.6593 41.1794 30.8501 41.1162 32.0409C41.054 33.2317 41.0148 34.423 41.0144 35.6133C41.0104 35.9105 41.0144 36.2082 41.0178 36.5054C41.0222 36.8026 41.0207 37.0998 41.0315 37.397L41.057 38.2877L41.0981 39.1769C41.1054 39.3252 41.1113 39.4731 41.1201 39.621L41.15 40.0646L41.1799 40.5082C41.1901 40.6561 41.1985 40.8039 41.2127 40.9513L41.291 41.8361L41.3106 42.0569L41.3351 42.2773L41.384 42.7179C41.4433 43.306 41.5295 43.8906 41.6073 44.4753C41.6484 44.7671 41.6994 45.0579 41.7449 45.3488L41.8149 45.785C41.8384 45.9305 41.8683 46.0744 41.8947 46.2193L42.0578 47.086L42.2438 47.9468L42.3374 48.3767L42.4426 48.8036L42.6542 49.6561L40.6364 50.111L40.6368 50.1115Z" fill="#B81C46"/>
<path d="M34.4915 30.7218C34.0396 33.9804 36.0623 32.9722 33.878 36.1353C33.0378 37.3515 32.7195 38.6031 32.7719 39.9172C32.7817 40.165 32.8042 40.4147 32.8395 40.6669C33.1014 42.5564 34.0435 44.582 35.2353 46.8236C35.2353 46.8236 31.5527 43.9749 29.2955 42.5368C29.1158 42.4222 28.9425 42.3268 28.774 42.2479C27.8016 41.793 27.0133 41.9057 26.2925 42.2234C25.5718 42.5402 24.9201 43.0622 24.2204 43.426C22.7005 44.2168 21.8407 45.4741 20.5794 46.5352C19.3176 47.5962 18.7609 45.7312 17.5442 46.1964C16.3264 46.662 15.3384 44.9884 14.93 43.0103C14.5211 41.0317 12.3736 41.845 11.2768 38.841C10.1795 35.8376 8.62836 37.0431 7.06494 34.7002C5.50055 32.3572 7.32837 31.1723 6.12974 28.6012C4.9311 26.0306 6.48521 24.7791 5.58673 22.4857C4.68873 20.1922 5.36101 19.3383 5.93633 17.8512C6.51116 16.3637 4.19371 16.2868 4.44147 13.5928C4.68922 10.8984 5.59799 8.67101 6.46906 8.17941C7.34061 7.68831 10.3915 8.75082 10.6222 9.3942C10.8518 10.0376 13.7945 10.2721 15.6052 11.1726C17.4169 12.0735 18.6483 12.8192 18.9186 14.7876C19.1889 16.7554 21.7413 16.1111 22.8993 16.4376C24.0573 16.7642 24.2855 16.5106 25.752 18.2899C27.2189 20.0688 27.3986 19.5263 29.8013 20.8885C32.2039 22.2506 29.461 23.5761 29.5476 24.2777C29.6343 24.9799 32.5883 25.4788 33.9994 26.1408C35.4111 26.8028 34.9444 27.4638 34.4915 30.7223V30.7218Z" fill="#8CC240"/>
<path d="M30.2025 31.1375C30.4625 33.0966 30.3382 31.988 30.9272 34.6531C31.5167 37.3172 30.8195 38.2573 31.3258 39.3174C31.5681 39.8247 32.2238 40.3045 32.8402 40.6664C33.1022 42.5559 34.0442 44.5815 35.236 46.8231C35.236 46.8231 31.5534 43.9744 29.2962 42.5363C29.1165 42.4217 28.9432 42.3262 28.7747 42.2474C29.5058 41.4806 28.9647 40.6869 28.1274 40.2051C27.0404 39.5789 26.2477 38.5839 22.8545 39.3179C19.4623 40.0519 18.6676 40.3652 15.554 39.4207C12.4409 38.4767 12.0017 38.0894 14.9023 38.2338C17.8025 38.3793 21.0634 38.7088 20.021 37.8828C18.9786 37.0572 15.814 36.3527 17.6076 35.7553C19.4011 35.1575 21.0835 37.0142 22.831 36.7958C24.5785 36.5779 24.2735 35.3944 22.3507 34.5474C20.4279 33.6998 18.0698 36.2033 13.8423 34.9944C9.61424 33.785 8.32747 32.2035 7.75949 30.8594C7.19102 29.5158 7.71885 28.6365 9.04185 29.8126C10.3639 30.9882 7.45885 27.1945 9.31018 27.4427C11.162 27.691 11.3965 30.6851 15.3122 31.3882C19.2273 32.0913 20.9797 32.3293 19.714 30.8912C18.4473 29.4527 16.3815 27.7247 11.9013 26.2377C7.42115 24.7507 7.26153 25.5841 6.77091 23.9418C6.2803 22.2996 9.29842 24.121 8.86754 23.131C8.43666 22.1409 6.27197 19.4112 7.91618 20.1726C9.56087 20.9349 10.1352 22.5444 12.5452 23.5403C14.9552 24.5362 13.7154 22.702 10.9735 18.6043C8.23101 14.5065 6.90116 11.0683 7.69143 10.6178C8.48122 10.1673 9.34298 10.0268 12.3141 15.9646C15.2857 21.9015 16.4143 23.3929 16.2753 22.0004C16.1357 20.6088 14.9924 13.5301 16.8814 13.8117C18.771 14.0937 18.673 19.0004 19.2856 22.8607C19.8981 26.722 21.3039 30.854 21.9291 30.2268C22.5539 29.5996 21.7264 27.4603 21.0013 24.4633C20.2756 21.4657 19.2719 20.4556 19.9471 19.6648C20.6223 18.8731 20.6854 22.1267 21.4806 21.5783C22.2763 21.0299 22.4447 16.4812 23.613 18.0054C24.7813 19.5302 23.2232 27.3066 24.2289 30.735C25.2352 34.164 27.4806 36.8658 28.3302 36.314C29.1792 35.7626 29.2061 33.4638 28.3018 31.8725C27.3969 30.2816 26.2428 26.3763 26.6096 24.7047C26.9768 23.0325 29.3599 21.0378 28.8962 23.8204C28.4325 26.603 28.2484 28.1204 28.8242 28.1145C29.4005 28.1086 29.5234 25.7466 30.4429 26.5966C31.362 27.4466 29.9425 29.178 30.2025 31.1375Z" fill="#76B512"/>
<path d="M9.30225 12.7908C10.1958 14.5824 11.1531 16.3402 12.1774 18.0569C13.2012 19.7736 14.2936 21.4467 15.4496 23.0727C16.6052 24.6988 17.8283 26.2755 19.1077 27.8021C19.7472 28.566 20.4018 29.3166 21.0697 30.055C21.7371 30.7938 22.4177 31.5205 23.11 32.2368C24.4933 33.6705 25.923 35.0576 27.3684 36.4408C28.0906 37.1332 28.8163 37.8255 29.5351 38.534C30.2534 39.244 30.9668 39.9677 31.6449 40.7531C31.7301 40.8505 31.8129 40.9519 31.8971 41.0513C31.9798 41.1526 32.0626 41.254 32.1443 41.3573L32.6139 41.9654L33.0742 42.5647L33.5295 43.168C34.1347 43.9739 34.7331 44.7857 35.3192 45.6059C35.9062 46.426 36.485 47.252 37.0534 48.0869C37.3374 48.5045 37.62 48.9232 37.8986 49.3457L38.3152 49.9813L38.5224 50.302L38.7305 50.63L36.7758 51.7694L36.601 51.4521L36.4203 51.13L36.0531 50.4856C35.8068 50.0562 35.5552 49.6287 35.302 49.2018C34.7952 48.3483 34.2767 47.5008 33.7494 46.6581C33.223 45.8149 32.6834 44.9796 32.137 44.1482L31.7252 43.5264L31.3085 42.9075C31.1695 42.7023 31.0294 42.4898 30.8933 42.3028C30.8238 42.2068 30.7523 42.1113 30.6808 42.0154C30.6069 41.9204 30.5359 41.8249 30.46 41.7304C29.8612 40.9739 29.1997 40.2409 28.5244 39.5143C27.8478 38.7882 27.1549 38.0684 26.4621 37.3447C25.0749 35.8993 23.6912 34.4377 22.3575 32.9311C21.6896 32.1785 21.0335 31.4152 20.3916 30.6406C19.7492 29.866 19.1205 29.0801 18.5079 28.282C17.2829 26.6863 16.1185 25.045 15.0256 23.3597C13.9328 21.6743 12.9075 19.9469 11.9541 18.1827C11.0008 16.4186 10.1185 14.6182 9.30176 12.7903L9.30225 12.7908Z" fill="#B81C46"/>
<path d="M16.4355 39.2705C17.0016 39.2421 17.5671 39.2048 18.1312 39.1544C18.6952 39.103 19.2578 39.0374 19.818 38.9546C20.3776 38.8724 20.9348 38.772 21.4867 38.6506C22.0395 38.5311 22.5859 38.3876 23.1343 38.2427C23.409 38.1707 23.6841 38.0997 23.9647 38.0405C24.2448 37.9812 24.5317 37.9367 24.8221 37.9235C25.1124 37.9093 25.4057 37.9274 25.6931 37.9754C25.7651 37.9866 25.8361 38.0023 25.9071 38.016C25.9781 38.0307 26.0466 38.0483 26.1167 38.0645L26.3257 38.1134C26.3953 38.1306 26.4638 38.1502 26.5333 38.1688C27.0861 38.3176 27.6301 38.5003 28.1599 38.7186C28.4253 38.8273 28.6868 38.9458 28.9448 39.0717C29.0736 39.1353 29.2019 39.2004 29.3282 39.2695C29.456 39.3385 29.5789 39.408 29.7077 39.4879L29.5182 39.7758C29.408 39.7033 29.2861 39.6299 29.1661 39.5613C29.0452 39.4918 28.9228 39.4252 28.7989 39.3601C28.5507 39.2313 28.2985 39.1094 28.0424 38.9963C27.5298 38.7701 27.0014 38.5776 26.4638 38.418C26.3962 38.3984 26.3297 38.3774 26.2621 38.3588L26.0584 38.3054C25.9908 38.2882 25.9223 38.2687 25.8547 38.253C25.7871 38.2388 25.7201 38.2217 25.6525 38.2094C25.3817 38.1575 25.1065 38.1335 24.8309 38.1399C24.2781 38.1507 23.7277 38.2833 23.1769 38.4111C22.626 38.5419 22.0718 38.6726 21.5136 38.7784C20.9554 38.8861 20.3938 38.9728 19.8302 39.0413C19.2666 39.1099 18.7016 39.1613 18.1356 39.1985C17.5695 39.2347 17.003 39.2577 16.4365 39.2714L16.4355 39.2705Z" fill="#B81C46"/>
<path d="M8.07666 24.2562L8.73816 24.3149L9.06916 24.3443L9.23466 24.3595L9.39966 24.3805C9.83887 24.4378 10.2805 24.4848 10.7168 24.5656L11.0448 24.6205L11.2089 24.6479L11.3719 24.6822L12.0241 24.8192C12.2401 24.8707 12.455 24.9279 12.6704 24.9823L12.832 25.0234L12.9916 25.0714L13.3114 25.1674C14.1624 25.4279 14.9923 25.7628 15.7973 26.1383C16.1998 26.3249 16.5993 26.5163 17.0013 26.6892C17.4043 26.8591 17.8126 27.0045 18.2303 27.0985L18.1524 27.4344C17.7083 27.3188 17.2858 27.1519 16.8784 26.9644C16.473 26.7739 16.0798 26.5692 15.6851 26.3704C14.8973 25.9719 14.0924 25.6159 13.258 25.3304L12.9446 25.2252L12.788 25.1728L12.6293 25.1267C12.4173 25.066 12.2058 25.0024 11.9933 24.9441L11.3499 24.7869L11.1888 24.7478L11.0262 24.715L10.7011 24.6498C10.2688 24.5553 9.83103 24.4941 9.39379 24.4226L9.22976 24.3967L9.06524 24.3761L8.73571 24.336L8.07617 24.2557L8.07666 24.2562Z" fill="#B81C46"/>
<path d="M23.0925 19.6536C22.9295 20.2088 22.8017 20.7739 22.7155 21.3448C22.6724 21.6302 22.6406 21.9172 22.6161 22.2046C22.5946 22.4925 22.5794 22.7804 22.576 23.0688C22.5681 23.6456 22.5975 24.2219 22.6519 24.7957C22.7067 25.3701 22.786 25.9415 22.8707 26.5134C22.954 27.0858 23.0431 27.6587 23.096 28.2403C23.1444 28.8181 23.1993 29.3895 23.2722 29.9624C23.3442 30.5343 23.4289 31.1047 23.5259 31.6732C23.6228 32.2407 23.73 32.8096 23.8549 33.3673L23.518 33.4418C23.403 32.8674 23.309 32.2965 23.2243 31.7217C23.14 31.1473 23.0676 30.571 23.0083 29.9932C22.9486 29.4165 22.905 28.8353 22.8707 28.2585C22.8335 27.6861 22.7601 27.1127 22.6915 26.5384C22.622 25.9635 22.5569 25.3867 22.5167 24.808C22.4771 24.2287 22.4624 23.6475 22.4859 23.0673C22.4966 22.7775 22.5197 22.4881 22.5485 22.1992C22.5804 21.9108 22.62 21.6234 22.6705 21.3384C22.7718 20.7675 22.9148 20.2054 23.092 19.6545L23.0925 19.6536Z" fill="#B81C46"/>
<path d="M17.3189 14.9448C17.1779 15.4256 17.0937 15.9211 17.0452 16.4181C16.9963 16.9156 16.9855 17.416 16.9953 17.9154C17.0173 18.9147 17.1241 19.9102 17.2709 20.8983C17.4183 21.8868 17.6054 22.8696 17.8012 23.8513C17.8987 24.3424 17.9985 24.8335 18.0911 25.3275C18.1831 25.8221 18.2727 26.3171 18.3193 26.8297L17.9755 26.8528C17.9462 26.3661 17.8717 25.8715 17.7944 25.3789C17.716 24.8859 17.6308 24.3923 17.5471 23.8983C17.3796 22.9102 17.22 21.9187 17.1006 20.9213C16.9816 19.9244 16.9027 18.9206 16.9096 17.9159C16.914 17.414 16.9395 16.9111 17.0026 16.4132C17.0658 15.9152 17.1642 15.4212 17.3194 14.9443L17.3189 14.9448Z" fill="#B81C46"/>
<path d="M19.3394 36.1221C19.6375 36.3302 19.9372 36.5353 20.2442 36.7297C20.5493 36.927 20.8607 37.1136 21.1745 37.2967C21.4884 37.4789 21.8071 37.6527 22.1288 37.8201C22.4505 37.9866 22.7771 38.1472 23.1071 38.2912L23.0611 38.3964C22.7286 38.2412 22.4074 38.0718 22.0882 37.896C21.7694 37.7198 21.4546 37.5371 21.1447 37.3462C20.8352 37.1547 20.5282 36.9594 20.228 36.7542C19.9259 36.5515 19.6317 36.338 19.3389 36.1226L19.3394 36.1221Z" fill="#B81C46"/>
<path d="M20.7129 21.6459C20.8534 21.9813 20.9964 22.3153 21.1516 22.6438C21.3034 22.9738 21.4664 23.2985 21.6334 23.6206C21.8009 23.9428 21.9771 24.2601 22.1593 24.574C22.3419 24.8868 22.5314 25.1978 22.7331 25.496L22.6377 25.5601C22.4403 25.2511 22.2597 24.9358 22.0839 24.6161C21.9091 24.2963 21.7411 23.9737 21.582 23.6466C21.4234 23.319 21.2686 22.99 21.1252 22.6556C20.9788 22.3226 20.8441 21.9848 20.7129 21.6459Z" fill="#B81C46"/>
<path d="M9.04834 21.739C9.28386 22.0161 9.52182 22.2908 9.7686 22.5566C10.0134 22.825 10.267 23.085 10.5241 23.3415C10.7812 23.5976 11.0456 23.8468 11.3139 24.0902C11.5827 24.3331 11.8574 24.5715 12.1404 24.7948L12.0689 24.8849C11.7874 24.6498 11.5195 24.4045 11.2551 24.1534C10.9917 23.9017 10.7337 23.6451 10.483 23.3817C10.2323 23.1178 9.98551 22.8509 9.74705 22.5757C9.50664 22.303 9.27602 22.0215 9.04785 21.739H9.04834Z" fill="#B81C46"/>
<path d="M29.8534 39.8864C29.7795 39.3644 29.734 38.8386 29.7046 38.3122C29.6757 37.7854 29.6664 37.2575 29.6816 36.7297C29.6894 36.4658 29.7026 36.2019 29.7247 35.9384C29.7428 35.676 29.7829 35.4096 29.7996 35.1531C29.8285 34.6336 29.7389 34.114 29.6331 33.6014C29.5249 33.0878 29.3951 32.5761 29.3006 32.0532C29.2071 31.5312 29.1459 30.9965 29.1689 30.4594C29.1719 30.3252 29.1856 30.1911 29.1978 30.0574C29.2056 29.9908 29.2164 29.9242 29.2252 29.8571C29.2301 29.8238 29.234 29.7905 29.2399 29.7573L29.2595 29.6579C29.307 29.3925 29.3834 29.133 29.4715 28.8779C29.6551 28.3706 29.9102 27.8908 30.2138 27.4481L30.4488 27.6136C30.1472 28.0327 29.8931 28.4857 29.707 28.9655C29.6174 29.2064 29.5386 29.4522 29.4877 29.7044L29.4666 29.7989C29.4603 29.8302 29.4558 29.8625 29.4505 29.8939C29.4402 29.9575 29.4284 30.0207 29.4196 30.0848C29.4054 30.2131 29.3888 30.3409 29.3834 30.4702C29.3496 30.9862 29.3966 31.5072 29.4769 32.0233C29.5582 32.5404 29.6762 33.0535 29.7731 33.5735C29.8211 33.8335 29.8642 34.0959 29.8906 34.3608C29.9176 34.6252 29.9274 34.8936 29.9063 35.1604C29.8823 35.4292 29.8373 35.6843 29.8133 35.9468C29.7854 36.2077 29.7663 36.4702 29.7526 36.7326C29.7251 37.258 29.7227 37.7844 29.7393 38.3107C29.757 38.8371 29.7903 39.363 29.8525 39.8864H29.8534Z" fill="#B81C46"/>
<path d="M9.79883 31.7726C9.98734 32.0057 10.1945 32.224 10.4217 32.4194C10.6488 32.6143 10.8942 32.7881 11.1541 32.935C11.6741 33.2307 12.249 33.4207 12.8361 33.5255C13.4241 33.6303 14.0239 33.6548 14.6203 33.6327C15.2172 33.6107 15.8121 33.5412 16.4031 33.452C16.9945 33.3629 17.5831 33.2513 18.1751 33.1475C18.4708 33.0961 18.768 33.0461 19.0682 33.0079C19.3693 32.9693 19.6734 32.9477 19.9769 32.9462C20.5846 32.9428 21.1912 33.004 21.7871 33.1161C22.0853 33.1715 22.3811 33.24 22.6739 33.3198C22.8203 33.36 22.9662 33.4026 23.1106 33.4491C23.256 33.4961 23.398 33.5441 23.5449 33.6014L23.4343 33.8663C23.3035 33.8114 23.162 33.7595 23.023 33.7115C22.8834 33.6631 22.7424 33.618 22.6004 33.5759C22.3164 33.4912 22.029 33.4178 21.7386 33.3571C21.1584 33.2342 20.5674 33.1607 19.9755 33.1504C19.6792 33.145 19.3835 33.1592 19.0887 33.1906C18.793 33.2229 18.4972 33.2665 18.2015 33.3125C17.61 33.405 17.0176 33.5059 16.4212 33.5847C15.8253 33.6636 15.225 33.7223 14.6223 33.7336C14.0205 33.7444 13.4148 33.7086 12.8228 33.5916C12.2318 33.4746 11.655 33.2714 11.1365 32.9639C10.877 32.8111 10.6342 32.6319 10.4094 32.4321C10.1852 32.2319 9.98196 32.0096 9.79785 31.7731L9.79883 31.7726Z" fill="#B81C46"/>
<path d="M27.7605 24.8251C27.6978 25.4945 27.669 26.1687 27.7145 26.8395C27.7591 27.5088 27.8824 28.1762 28.1336 28.7971C28.1963 28.9523 28.2658 29.1041 28.3407 29.2539L28.5714 29.7029C28.6096 29.7783 28.6453 29.8557 28.6781 29.935C28.7109 30.0153 28.7369 30.0941 28.7658 30.1735C28.8216 30.3326 28.8764 30.4917 28.9298 30.6513C29.1433 31.2898 29.3474 31.9313 29.5482 32.5737L29.4385 32.607C29.2446 31.9631 29.0473 31.3202 28.8407 30.6802C28.7893 30.5201 28.7364 30.361 28.682 30.2019C28.6541 30.123 28.6282 30.0417 28.5983 29.9658C28.5679 29.889 28.5341 29.8131 28.4979 29.7382C28.351 29.438 28.1924 29.1374 28.0729 28.8201C27.8286 28.1875 27.716 27.5128 27.6817 26.8405C27.6469 26.1672 27.6866 25.493 27.7605 24.8242V24.8251Z" fill="#B81C46"/>
<path d="M9.625 28.2575C9.93886 28.8603 10.2841 29.4488 10.6983 29.9869C10.9054 30.2557 11.1292 30.5113 11.374 30.7454C11.6198 30.9779 11.8866 31.1885 12.1755 31.3628C12.32 31.4504 12.4688 31.5298 12.6216 31.6027C12.7739 31.6762 12.9301 31.7427 13.0853 31.8142C13.1626 31.851 13.24 31.8882 13.3159 31.9313C13.3923 31.9748 13.4618 32.0233 13.5333 32.0698C13.6748 32.1648 13.8158 32.2603 13.9554 32.3577C14.514 32.7465 15.0649 33.1451 15.6138 33.5471L15.5452 33.6391C15.0012 33.2322 14.4548 32.8278 13.9015 32.4341C13.7634 32.3357 13.6239 32.2388 13.4838 32.1428C13.4133 32.0958 13.3433 32.0468 13.2728 32.0047C13.2013 31.9626 13.1259 31.9244 13.0505 31.8872C12.8982 31.8137 12.7425 31.7447 12.5898 31.6678C12.437 31.5915 12.2867 31.5087 12.1417 31.4176C11.8509 31.236 11.5845 31.0186 11.3402 30.7801C11.0969 30.5402 10.876 30.2792 10.6723 30.0065C10.2654 29.4596 9.92907 28.8651 9.625 28.2575Z" fill="#B81C46"/>
<path d="M19.3154 42.3689C19.8291 42.3983 19.8633 42.2734 19.3154 42.3689V42.3689Z" fill="#76B512"/>
<path d="M34.492 30.7218C34.0401 33.9804 36.0628 32.9722 33.8785 36.1353C33.0383 37.3515 32.72 38.6031 32.7724 39.9172C32.2597 39.4648 31.6937 38.8655 31.5747 38.3396C31.3471 37.3349 32.7176 36.0178 32.1236 33.9011C31.5297 31.7844 32.0585 31.114 32.2225 29.2965C32.3871 27.4785 31.9669 26.393 30.6709 25.8661C30.4148 25.7618 29.2671 26.8909 28.9415 26.3792C28.6149 25.8681 29.7024 22.4479 28.7931 21.6748C27.8829 20.9022 26.0345 21.9387 25.5517 24.7605C25.0684 27.5828 27.7037 33.7307 27.2635 34.2546C26.8238 34.7785 26.4615 34.3403 25.4033 31.731C24.3462 29.1222 24.9206 24.4584 24.9064 22.7608C24.8927 21.0623 24.1778 17.3861 23.5682 17.2681C22.9591 17.1501 22.1056 17.9305 21.9617 18.8863C21.8167 19.8416 21.0505 19.6883 20.931 18.9637C20.8115 18.2385 19.9165 18.5847 19.2711 18.8986C18.6263 19.2119 18.9328 16.0405 18.6165 15.0064C18.2997 13.9713 17.3278 12.805 15.7673 12.9265C14.2078 13.0479 15.0431 16.8705 14.9422 17.8414C14.8409 18.8124 11.4252 12.0025 10.5644 10.8572C9.70311 9.71198 8.87024 9.55236 7.24072 9.41085C5.61121 9.26984 5.15242 12.404 6.07147 14.0414C6.99101 15.6782 10.8562 19.8392 11.409 21.2968C11.9613 22.755 8.49615 18.8883 7.67209 18.1788C6.84803 17.4688 6.13659 19.351 6.75353 21.3619C7.37048 23.3729 6.9063 22.5885 6.22521 22.5302C5.54413 22.4729 5.80804 23.2387 6.52096 24.6655C7.23387 26.0928 9.41422 26.2466 9.10526 26.912C8.7963 27.5779 6.42107 26.5687 6.60517 27.879C6.78879 29.1903 6.95037 29.9311 7.27059 32.0889C7.59179 34.2472 7.76268 33.8594 9.47053 35.2877C11.1779 36.716 15.1665 36.7165 14.7762 37.285C14.3855 37.8534 11.6421 36.8262 11.3752 37.7971C11.1079 38.7681 12.3457 39.0609 15.8784 41.1311C17.5393 42.1045 20.0222 41.9698 20.6029 42.0036C20.4511 42.03 18.9685 42.4389 18.7252 42.5069C16.6085 43.1004 16.0356 44.0292 17.1613 44.4474C18.287 44.865 18.638 45.6901 20.3116 45.364C21.6189 45.1099 23.9036 42.7713 26.2935 42.2234C25.5728 42.5402 24.9211 43.0622 24.2214 43.426C22.7015 44.2168 21.8417 45.4741 20.5804 46.5352C19.3186 47.5962 18.7619 45.7312 17.5451 46.1964C16.3274 46.662 15.3393 44.9884 14.931 43.0103C14.5221 41.0317 12.3746 41.845 11.2778 38.841C10.1805 35.8376 8.62934 37.0431 7.06592 34.7002C5.50153 32.3572 7.32935 31.1723 6.13071 28.6012C4.93208 26.0306 6.48619 24.7791 5.58771 22.4857C4.68971 20.1922 5.36198 19.3383 5.93731 17.8512C6.51214 16.3637 4.19469 16.2868 4.44244 13.5928C4.6902 10.8984 5.59897 8.67101 6.47003 8.17941C7.34159 7.68831 10.3925 8.75082 10.6231 9.3942C10.8528 10.0376 13.7955 10.2721 15.6062 11.1726C17.4178 12.0735 18.6493 12.8192 18.9196 14.7876C19.1898 16.7554 21.7423 16.1111 22.9003 16.4376C24.0583 16.7642 24.2865 16.5106 25.7529 18.2899C27.2199 20.0688 27.3996 19.5263 29.8023 20.8885C32.2049 22.2506 29.462 23.5761 29.5486 24.2777C29.6353 24.9799 32.5893 25.4788 34.0004 26.1408C35.412 26.8028 34.9454 27.4638 34.4925 30.7223L34.492 30.7218Z" fill="#76B512"/>
<path d="M17.6641 43.5675C20.2239 42.7704 20.0271 42.6974 21.5219 42.7601C23.0168 42.8228 21.1988 44.6589 19.8958 44.7529C18.5929 44.8469 17.6641 43.5675 17.6641 43.5675Z" fill="#A8D65F"/>
<path d="M20.1 35.346C22.129 36.4173 22.4586 36.7478 23.0153 36.267C23.5725 35.7862 23.2557 34.6556 21.8612 34.6644C20.4667 34.6737 19.0512 35.1261 19.4747 35.2872C19.8983 35.4478 20.1 35.346 20.1 35.346Z" fill="#A8D65F"/>
<path d="M10.2652 26.8709C11.9241 29.228 13.0033 30.5221 15.3085 30.8115C17.6137 31.1009 19.8646 31.4353 19.1243 30.8301C18.3839 30.2244 15.6738 29.6016 13.6805 28.6864C11.6871 27.7713 9.12193 25.4117 9.27617 25.9342C9.4304 26.4566 10.2652 26.8709 10.2652 26.8709Z" fill="#A8D65F"/>
<path d="M6.80475 9.94848C6.17655 10.5047 5.87787 11.4159 6.02035 12.4696C6.16284 13.5233 7.68512 15.4652 8.77603 16.8514C9.86646 18.2376 11.9807 21.3967 11.9807 21.3967C11.9807 21.3967 7.68169 15.0809 7.22192 13.3309C6.76166 11.5804 7.50542 10.4494 7.38987 9.96366C7.27431 9.47794 6.80573 9.94848 6.80573 9.94848H6.80475Z" fill="#A8D65F"/>
<path d="M13.5459 17.344C14.911 20.6245 15.6425 21.643 15.6983 21.1636C15.7542 20.6843 15.5475 15.2444 15.5475 15.2444C15.5475 15.2444 15.6876 19.0229 15.0501 18.8354C14.4126 18.6483 13.5464 17.344 13.5464 17.344H13.5459Z" fill="#A8D65F"/>
<path d="M19.5219 21.6371C20.0042 25.8132 21.0442 29.6236 21.4417 29.2798C21.8393 28.9361 20.9736 25.3902 20.4928 23.648C20.0115 21.9059 19.3818 20.7753 19.3818 20.7753L19.5224 21.6371H19.5219Z" fill="#A8D65F"/>
<path d="M25.9365 26.1946C26.0374 28.3251 27.7213 33.266 27.616 34.1018C27.5107 34.9381 26.9349 34.8201 26.9349 34.8201C26.9349 34.8201 27.5822 36.1475 28.2403 35.7161C28.8983 35.2853 29.0682 34.4485 28.4254 32.9404C27.3859 30.5025 25.9365 26.1942 25.9365 26.1942V26.1946Z" fill="#A8D65F"/>
<path d="M16.78 40.163C20.6075 40.8142 22.7154 39.1955 24.8986 39.7326C27.0819 40.2702 28.5083 41.1325 27.7013 41.1232C26.8944 41.1139 23.6246 43.4069 22.6576 42.3209C21.6905 41.2343 21.5916 41.6001 18.8159 41.0781C16.0401 40.5557 13.5439 39.0873 13.5439 39.0873L16.7805 40.163H16.78Z" fill="#A8D65F"/>
<path d="M31.2208 27.7047C30.6582 29.8234 30.0334 30.949 30.7091 32.4473C31.3848 33.9456 31.4612 36.5515 31.4612 36.5515C31.4612 36.5515 31.8113 35.1305 31.7315 33.8438C31.6517 32.557 30.6685 32.0096 31.2017 30.5637C31.7354 29.1178 31.3545 27.1362 31.3545 27.1362L31.2208 27.7052V27.7047Z" fill="#A8D65F"/>
<path d="M29.2559 33.5872C31.6429 35.5766 29.5889 36.1578 33.125 36.9794C34.4852 37.2952 35.5027 37.9675 36.3013 38.9189C36.4521 39.0981 36.5951 39.2871 36.7302 39.4854C37.7482 40.9719 38.3774 42.9858 38.9693 45.3091C38.9693 45.3091 39.7312 40.9783 40.3947 38.5389C40.4476 38.3445 40.5078 38.1678 40.5754 38.0057C40.9656 37.07 41.5884 36.6474 42.2935 36.4114C42.9986 36.1749 43.7854 36.125 44.5057 35.9345C46.0701 35.5208 47.4699 35.8532 49.0255 35.7925C50.5816 35.7318 49.785 34.0754 50.9307 33.6269C52.0774 33.1783 51.7038 31.3809 50.7319 29.7396C49.76 28.0974 51.7773 27.3007 50.6345 24.5049C49.4922 21.7091 51.342 21.5656 50.9449 18.9353C50.5483 16.304 48.5188 16.6379 47.7221 14.08C46.926 11.5222 45.0448 11.6353 44.2143 9.46225C43.3844 7.28924 42.3718 7.11983 41.0244 6.44657C39.6774 5.77234 41.2476 4.24614 39.3625 2.52115C37.4779 0.796155 35.4273 -0.182142 34.5063 0.0284025C33.5853 0.238947 32.1291 2.92069 32.3769 3.51658C32.6251 4.11247 30.7185 6.14594 30.0256 7.92626C29.3328 9.70707 28.9465 11.0105 30.0085 12.5577C31.0705 14.104 28.8779 15.2762 28.2761 16.2403C27.6744 17.2044 27.3542 17.1721 27.4604 19.3476C27.5662 21.5225 27.0956 21.2576 26.2828 23.7367C25.47 26.2152 28.2287 25.398 28.614 25.9435C28.9993 26.4889 27.2528 28.7148 26.6878 30.0745C26.1222 31.4343 26.8684 31.5993 29.2559 33.5882V33.5872Z" fill="#8CC240"/>
<path d="M32.5172 31.1522C33.5807 32.6862 32.9633 31.8328 34.2451 34.069C35.5265 36.3047 36.6111 36.5181 36.9313 37.5807C37.0846 38.0894 36.9313 38.841 36.731 39.4853C37.749 40.9719 38.3782 42.9858 38.9701 45.3091C38.9701 45.3091 39.732 40.9783 40.3955 38.5389C40.4484 38.3445 40.5086 38.1677 40.5762 38.0057C39.5783 37.9342 39.4519 37.0362 39.7301 36.1676C40.0914 35.0394 40.0131 33.8403 42.85 32.1966C45.6865 30.5534 46.441 30.2669 48.0157 27.6288C49.5909 24.9911 49.6516 24.4407 47.717 26.3851C45.783 28.3299 43.7142 30.6327 43.9179 29.3929C44.1216 28.1537 45.8848 25.6501 44.2519 26.3728C42.6189 27.0951 42.6238 29.4615 41.2641 30.4197C39.9049 31.3784 39.3658 30.3575 40.1707 28.5434C40.9752 26.7293 44.2137 26.9795 46.3989 23.4482C48.5842 19.9165 48.4779 17.9932 48.0206 16.6937C47.5638 15.3937 46.6364 15.1151 46.4596 16.7774C46.2834 18.4392 45.9019 13.9424 44.766 15.2923C43.63 16.6428 45.3692 18.8838 43.0807 21.8633C40.7926 24.8427 39.7193 26.1231 39.6894 24.3134C39.66 22.5032 40.0052 19.9831 42.19 16.0968C44.3748 12.2106 45.0162 12.6909 44.315 11.2318C43.6139 9.77266 42.663 12.9636 42.3349 11.9976C42.0069 11.032 41.7841 7.74899 41.1197 9.32611C40.4552 10.9037 41.0771 12.3937 40.0263 14.6211C38.9755 16.8484 38.6759 14.7792 37.9874 10.1737C37.299 5.56814 36.0431 2.32037 35.2043 2.5079C34.3666 2.69544 33.6752 3.14492 35.3733 9.18167C37.0704 15.2179 37.23 16.9777 36.4421 15.9161C35.6553 14.8551 31.9551 9.18314 30.8142 10.5806C29.6734 11.9785 32.8604 15.3442 34.8856 18.4309C36.9117 21.5181 38.5559 25.2981 37.7201 25.2575C36.8848 25.2163 36.1038 23.1961 34.7054 20.6411C33.3075 18.0857 33.3667 16.7422 32.3919 16.6188C31.417 16.4949 33.4407 18.8079 32.5363 18.9304C31.6319 19.0528 28.6231 15.9822 28.7759 17.7895C28.9287 19.5972 34.9595 24.0402 36.4358 27.0745C37.912 30.1093 38.0604 33.4241 37.1159 33.5788C36.1719 33.7331 34.6922 32.1442 34.3127 30.4579C33.9337 28.7711 32.2582 25.3098 30.9391 24.3746C29.62 23.4399 26.6871 23.5604 28.7798 25.21C30.872 26.8591 31.9654 27.8026 31.559 28.1644C31.1526 28.5263 29.5657 26.9545 29.4633 28.1326C29.3615 29.3107 31.4532 29.6177 32.5177 31.1522H32.5172Z" fill="#76B512"/>
<path d="M35.458 5.05109C36.0524 6.8461 36.5832 8.66412 37.042 10.5017C37.5008 12.3398 37.8861 14.198 38.197 16.0699C38.5085 17.9423 38.7415 19.8288 38.9031 21.7233C38.9844 22.6702 39.0466 23.6191 39.0911 24.569C39.1367 25.5189 39.1651 26.4693 39.1788 27.4202C39.2077 29.3215 39.1734 31.2227 39.1264 33.1147C39.1038 34.0607 39.0789 35.0037 39.0696 35.9404C39.0613 36.8766 39.0666 37.8079 39.1308 38.7137C39.1376 38.8273 39.1494 38.9389 39.1582 39.0515C39.169 39.1632 39.1802 39.2748 39.193 39.386C39.217 39.6014 39.2547 39.8394 39.2884 40.071L39.3922 40.7677L39.5019 41.4635C39.6508 42.3904 39.8075 43.3163 39.9779 44.2388C40.1473 45.1617 40.326 46.0822 40.5169 46.9998C40.6129 47.4581 40.7099 47.9164 40.8117 48.3723L40.9659 49.0548L41.0453 49.3942L41.1256 49.7256L38.8585 50.2099L38.7964 49.8471L38.7381 49.4906L38.6269 48.7806C38.5545 48.3076 38.4869 47.8347 38.4208 47.3622C38.2901 46.4167 38.1716 45.4702 38.0629 44.5232C37.9532 43.5763 37.8577 42.6283 37.7706 41.6799L37.7074 40.9685L37.6496 40.2565L37.5928 39.5319C37.5845 39.4075 37.5781 39.2831 37.5718 39.1593C37.5679 39.0359 37.561 38.912 37.559 38.7896C37.5355 37.8069 37.5757 36.8467 37.6281 35.8934C37.6815 34.9405 37.7505 33.9955 37.8166 33.0535C37.9508 31.1689 38.0717 29.2921 38.13 27.4124C38.1603 26.4727 38.1755 25.5326 38.174 24.593C38.173 23.6529 38.1549 22.7128 38.1182 21.7732C38.0453 19.894 37.9008 18.0157 37.6785 16.1453C37.4562 14.2749 37.1595 12.4108 36.7869 10.5605C36.4148 8.71015 35.9697 6.87254 35.4585 5.05207L35.458 5.05109Z" fill="#B81C46"/>
<path d="M47.3037 28.0837C46.8992 28.4343 46.4889 28.779 46.0707 29.1134C45.6521 29.4473 45.2247 29.771 44.7874 30.0819C44.3502 30.3928 43.9031 30.6895 43.4448 30.9691C42.9875 31.2502 42.5179 31.5116 42.0498 31.7707C41.5842 32.0316 41.1156 32.2892 40.7234 32.6329C40.5271 32.8038 40.3508 32.9947 40.1951 33.2033C40.1559 33.2552 40.1197 33.3096 40.0815 33.3625C40.0443 33.4163 40.009 33.4731 39.9728 33.5285L39.8646 33.6949C39.8293 33.7507 39.796 33.808 39.7613 33.8648C39.4876 34.3182 39.2413 34.7883 39.0273 35.2721C38.9201 35.5139 38.8217 35.7592 38.7306 36.007C38.6855 36.1309 38.6425 36.2552 38.6023 36.3806C38.5622 36.5045 38.524 36.6337 38.4931 36.7537L38.1592 36.6685C38.1984 36.5304 38.24 36.4036 38.286 36.2743C38.331 36.1456 38.379 36.0187 38.429 35.8924C38.5293 35.6403 38.6371 35.3915 38.7536 35.1467C38.9857 34.6571 39.2501 34.1836 39.5424 33.7287C39.5791 33.6719 39.6149 33.6146 39.6526 33.5583L39.7676 33.3914C39.8063 33.3355 39.8435 33.2797 39.8837 33.2244C39.9253 33.1695 39.965 33.1132 40.0081 33.0599C40.1784 32.8439 40.3728 32.6447 40.5848 32.4699C40.7969 32.2941 41.0255 32.1428 41.2596 32.0067C41.4931 31.8696 41.7316 31.7447 41.9691 31.6203C42.4445 31.3736 42.9175 31.1268 43.3797 30.8594C43.8429 30.5936 44.2958 30.3101 44.7394 30.0124C45.183 29.7147 45.6183 29.4033 46.0453 29.0811C46.4718 28.7584 46.8909 28.425 47.3046 28.0851L47.3037 28.0837Z" fill="#B81C46"/>
<path d="M43.6006 12.2826L43.1913 12.758L42.9866 12.9955L42.8848 13.1145L42.7868 13.2369C42.5273 13.5645 42.2605 13.8862 42.0191 14.2269L41.8335 14.4791L41.741 14.6049L41.6538 14.7347L41.3047 15.2537C41.1931 15.4295 41.0863 15.6087 40.9766 15.7855L40.8949 15.9186L40.819 16.0553L40.6672 16.328C40.2662 17.0575 39.9308 17.8184 39.635 18.5975C39.4857 18.9872 39.3413 19.3799 39.1797 19.7716C39.0147 20.1618 38.8252 20.5482 38.5882 20.9115L38.3047 20.7151C38.5363 20.3846 38.7297 20.0243 38.903 19.6502C39.0739 19.2741 39.2316 18.8868 39.3951 18.5005C39.7202 17.7269 40.0875 16.965 40.5174 16.2423L40.6799 15.972L40.7612 15.8369L40.8484 15.7057C40.9649 15.5309 41.0785 15.3546 41.197 15.1813L41.5662 14.6715L41.6582 14.5442L41.7557 14.4208L41.9505 14.1741C42.2047 13.8406 42.4833 13.5273 42.754 13.2085L42.8559 13.089L42.9621 12.9735L43.1751 12.7429L43.6006 12.2816V12.2826Z" fill="#B81C46"/>
<path d="M30.1851 18.6102C30.659 18.8819 31.1168 19.1835 31.5507 19.518C31.7676 19.6849 31.9781 19.8602 32.1838 20.0414C32.3875 20.2245 32.5877 20.412 32.7797 20.6074C33.165 20.9976 33.5249 21.4129 33.8652 21.8428C34.2055 22.2727 34.5272 22.7168 34.844 23.1623C35.1617 23.6069 35.4751 24.054 35.813 24.477C36.1557 24.901 36.4955 25.3349 36.8206 25.776C37.1467 26.2172 37.4625 26.6657 37.7691 27.1206C38.0756 27.5764 38.3733 28.0347 38.6582 28.5092L38.3591 28.681C38.0927 28.212 37.8063 27.7463 37.5135 27.288C37.2202 26.8297 36.9176 26.3768 36.6042 25.9317C36.2913 25.4852 35.9672 25.0509 35.6342 24.6161C35.3018 24.1759 35.0002 23.7186 34.6951 23.2656C34.391 22.8122 34.0836 22.3623 33.7575 21.926C33.4309 21.4902 33.0857 21.0686 32.714 20.6706C32.5285 20.4713 32.3351 20.2793 32.1372 20.0918C31.938 19.9062 31.7333 19.7261 31.5218 19.5537C31.0992 19.209 30.6507 18.8956 30.1846 18.6107L30.1851 18.6102Z" fill="#B81C46"/>
<path d="M31.2266 11.6505C31.6379 11.885 32.0212 12.167 32.3821 12.4745C32.7435 12.782 33.0808 13.1164 33.4035 13.4646C34.0474 14.1618 34.631 14.9129 35.1823 15.6846C35.7332 16.4567 36.2527 17.2509 36.7644 18.0471C37.0204 18.4452 37.2746 18.8442 37.5336 19.2379C37.7931 19.6311 38.0555 20.0233 38.3439 20.3812L38.0741 20.5956C37.7804 20.2074 37.5287 19.8039 37.279 19.3999C37.0302 18.9955 36.7884 18.5891 36.5445 18.1837C36.0578 17.3728 35.5648 16.5674 35.0403 15.7825C34.5155 14.9981 33.9582 14.2348 33.3393 13.5223C33.0294 13.1669 32.7038 12.8241 32.3537 12.5073C32.0041 12.1905 31.6305 11.8977 31.2266 11.6509V11.6505Z" fill="#B81C46"/>
<path d="M43.2735 27.7302C43.2064 28.0665 43.1364 28.4029 43.0546 28.7369C42.9758 29.0713 42.8857 29.4028 42.7912 29.7333C42.6967 30.0638 42.5924 30.3913 42.4822 30.7174C42.3711 31.0431 42.2546 31.3662 42.1214 31.6859L42.0166 31.6389C42.1561 31.329 42.282 31.0088 42.4015 30.6886C42.5204 30.3674 42.6331 30.0437 42.7364 29.7166C42.8397 29.3895 42.9386 29.0615 43.0267 28.7295C43.1178 28.3985 43.1971 28.0646 43.2735 27.7302Z" fill="#B81C46"/>
<path d="M33.1143 18.4897C33.2381 18.8099 33.3591 19.1311 33.4688 19.4567C33.5814 19.7813 33.6827 20.1094 33.7802 20.4394C33.8771 20.7689 33.9652 21.1014 34.0465 21.4358C34.1273 21.7707 34.2017 22.1057 34.2605 22.4469L34.1469 22.4636C34.0984 22.1272 34.0333 21.7894 33.9628 21.4549C33.8908 21.12 33.8125 20.7861 33.7253 20.4546C33.6372 20.1231 33.5451 19.7931 33.4418 19.4655C33.3414 19.1375 33.2293 18.8128 33.1147 18.4897H33.1143Z" fill="#B81C46"/>
<path d="M41.3229 11.1407C41.3434 11.4835 41.3616 11.8262 41.3674 12.17C41.3762 12.5132 41.3733 12.8569 41.3665 13.2007C41.3591 13.5444 41.342 13.8876 41.318 14.2309C41.2935 14.5741 41.2627 14.9159 41.2152 15.2596L41.1016 15.241C41.1574 14.9056 41.198 14.5643 41.2318 14.224C41.2651 13.8832 41.2915 13.5414 41.3087 13.1987C41.3253 12.8564 41.3376 12.5137 41.3385 12.1705C41.3425 11.8272 41.3341 11.4845 41.3229 11.1412V11.1407Z" fill="#B81C46"/>
<path d="M30.1343 28.7148C30.621 28.8176 31.0979 28.9758 31.5449 29.199C31.7667 29.3136 31.9841 29.4385 32.1859 29.5868L32.2627 29.6412C32.2882 29.6598 32.3122 29.6799 32.3367 29.699C32.3856 29.7381 32.4356 29.7758 32.4836 29.816C32.5776 29.8987 32.673 29.98 32.7617 30.0686C33.123 30.4168 33.4276 30.8192 33.7028 31.2359C33.9779 31.6536 34.2232 32.0889 34.4837 32.51C34.7452 32.9291 35.0228 33.3419 35.3773 33.6738C35.4209 33.7155 35.4679 33.7536 35.5129 33.7938L35.6549 33.9147C35.7504 33.996 35.8474 34.0758 35.9394 34.161C36.127 34.3275 36.3086 34.5003 36.4868 34.6761C36.8428 35.0287 37.1821 35.3978 37.5077 35.7783C37.8329 36.1602 38.1448 36.549 38.4395 36.9613L38.202 37.1228C37.9274 36.7184 37.6257 36.3223 37.3148 35.9389C37.0029 35.5555 36.6763 35.1829 36.3336 34.8269C36.1622 34.6492 35.9869 34.4744 35.8062 34.3064C35.6265 34.1341 35.44 33.9828 35.2525 33.8026C35.0698 33.6234 34.9102 33.4251 34.7648 33.219C34.6194 33.0128 34.4872 32.7993 34.3603 32.5839C34.1077 32.1525 33.8741 31.7143 33.6117 31.2937C33.3487 30.8746 33.0584 30.4711 32.7103 30.1191C32.6251 30.0295 32.533 29.9467 32.4419 29.863C32.3954 29.8223 32.347 29.7837 32.2999 29.744C32.276 29.7244 32.2529 29.7039 32.228 29.6852L32.1535 29.6299C31.9577 29.4786 31.7452 29.3494 31.5278 29.2309C31.0896 28.9988 30.618 28.8294 30.1338 28.7148H30.1343Z" fill="#B81C46"/>
<path d="M47.1753 18.6283C47.1973 18.9108 47.1968 19.1953 47.1674 19.4778C47.1376 19.7598 47.0822 20.0399 46.998 20.3117C46.8315 20.8561 46.5578 21.3649 46.2195 21.8227C45.8807 22.281 45.4801 22.6913 45.0532 23.0664C44.6252 23.4419 44.1684 23.7827 43.7023 24.1069C43.2356 24.431 42.7578 24.7375 42.2857 25.0494C42.0502 25.2056 41.8157 25.3633 41.589 25.5283C41.3633 25.6938 41.1483 25.872 40.9451 26.0639C40.5382 26.4473 40.173 26.8743 39.8464 27.3287C39.6823 27.5554 39.5286 27.7899 39.3841 28.0293C39.3122 28.1493 39.2422 28.2702 39.1756 28.3927C39.1095 28.5146 39.0434 28.6404 38.9871 28.7618L38.7266 28.6404C38.7932 28.5062 38.8617 28.3829 38.9337 28.2575C39.0057 28.1331 39.0801 28.0102 39.1574 27.8893C39.3117 27.6474 39.4747 27.4114 39.6486 27.1832C39.9942 26.7259 40.3796 26.2975 40.807 25.9141C41.0205 25.7222 41.2472 25.5439 41.4822 25.3799C41.7163 25.2164 41.9557 25.0621 42.1952 24.9103C42.6745 24.6068 43.1568 24.311 43.6273 23.9977C44.0974 23.6848 44.5572 23.3557 44.9881 22.9919C45.4189 22.6286 45.8224 22.2306 46.1666 21.784C46.5098 21.338 46.7909 20.84 46.9667 20.3033C47.0553 20.0355 47.1165 19.7584 47.1513 19.4778C47.186 19.1973 47.1919 18.9133 47.1758 18.6303L47.1753 18.6283Z" fill="#B81C46"/>
<path d="M30.2109 25.1899C30.6874 25.61 31.1442 26.0556 31.5481 26.5477C31.9521 27.0388 32.3022 27.5818 32.5338 28.1791C32.6518 28.4763 32.7326 28.7873 32.8207 29.0903C32.8432 29.1662 32.8677 29.2407 32.8956 29.3131C32.923 29.3846 32.9568 29.4585 32.9872 29.531C33.0503 29.6764 33.115 29.8214 33.1806 29.9658C33.443 30.5441 33.7143 31.1184 33.988 31.6913L33.8842 31.7403C33.6164 31.1635 33.3515 30.5857 33.0949 30.0035C33.0308 29.8581 32.9676 29.7117 32.9059 29.5653C32.8755 29.4909 32.8437 29.4199 32.8158 29.3425C32.7884 29.2661 32.7644 29.1892 32.7429 29.1124C32.6586 28.8039 32.5852 28.4974 32.4736 28.2012C32.2547 27.6077 31.9173 27.0632 31.5232 26.5667C31.129 26.0693 30.6805 25.6164 30.2114 25.1884L30.2109 25.1899Z" fill="#B81C46"/>
<path d="M45.0628 16.0611C45.2367 16.679 45.3801 17.3077 45.4438 17.9487C45.4751 18.2689 45.4869 18.5915 45.4697 18.9137C45.4511 19.2354 45.4031 19.5571 45.3155 19.869C45.2724 20.0247 45.22 20.1785 45.1617 20.3288C45.104 20.4796 45.0388 20.627 44.9796 20.7748C44.9502 20.8488 44.9218 20.9232 44.8988 20.9981C44.8763 21.0721 44.8587 21.1509 44.8391 21.2282C44.8023 21.3839 44.7666 21.5401 44.7328 21.6968C44.5967 22.3236 44.4718 22.9532 44.3509 23.5834L44.2383 23.5614C44.3666 22.9317 44.4983 22.303 44.6417 21.6763C44.6775 21.5196 44.7152 21.3634 44.7539 21.2067C44.7744 21.1288 44.7925 21.051 44.818 20.9717C44.8435 20.8933 44.8738 20.8184 44.9047 20.7435C44.9674 20.5947 45.0344 20.4492 45.0942 20.3014C45.1544 20.1535 45.2083 20.0037 45.2533 19.8504C45.3449 19.5449 45.3973 19.2286 45.4212 18.9103C45.4438 18.5915 45.4379 18.2703 45.4119 17.9511C45.3596 17.3121 45.2269 16.681 45.0633 16.0606L45.0628 16.0611Z" fill="#B81C46"/>
<path d="M47.2607 32.0791C46.8176 32.3606 46.9209 32.4258 47.2607 32.0791V32.0791Z" fill="#76B512"/>
<path d="M29.2559 33.5872C31.6429 35.5766 29.5889 36.1578 33.125 36.9794C34.4852 37.2952 35.5027 37.9675 36.3013 38.9189C36.3718 38.2769 36.3865 37.4984 36.1358 37.0553C35.6565 36.2087 33.8619 36.1593 32.9316 34.303C32.0013 32.4468 31.2061 32.3146 29.936 31.1488C28.6654 29.9835 28.2688 28.9582 28.8402 27.7659C28.9528 27.5304 30.4722 27.5896 30.3747 27.0251C30.2778 26.4605 27.3444 24.7625 27.4888 23.6441C27.6333 22.5258 29.584 22.0753 31.7149 23.7396C33.8463 25.4039 35.9125 31.374 36.553 31.4602C37.1929 31.5464 37.168 31.0102 36.2484 28.515C35.3289 26.0203 31.9636 23.1276 30.8947 21.9323C29.8249 20.7371 27.9878 17.7141 28.3383 17.2446C28.6889 16.775 29.7808 16.7779 30.4893 17.3537C31.1978 17.9291 31.6356 17.3351 31.2585 16.7525C30.8815 16.1698 31.7266 15.8432 32.3769 15.6518C33.0266 15.4608 30.7968 13.4401 30.3605 12.5161C29.9238 11.5917 29.8621 10.159 31.0289 9.2522C32.1957 8.34588 34.0416 11.5476 34.7291 12.1616C35.417 12.7756 33.4751 5.84726 33.3488 4.49978C33.2225 3.15229 33.7033 2.51136 34.7516 1.37687C35.8004 0.242864 38.113 2.1407 38.5115 3.86863C38.9096 5.59656 38.8538 10.9605 39.3939 12.3301C39.9349 13.6996 39.8982 8.79635 40.023 7.77692C40.1474 6.75701 41.8411 7.62024 42.6881 9.41721C43.5352 11.2142 43.3609 10.371 43.7996 9.89754C44.2393 9.42455 44.5414 10.1272 44.9503 11.577C45.3596 13.0273 43.9338 14.5202 44.5723 14.789C45.2113 15.0578 46.2292 12.8432 46.9338 13.8758C47.6389 14.9085 47.9968 15.5289 49.1445 17.2402C50.2917 18.9519 49.926 18.7899 49.6405 20.8733C49.3555 22.9562 46.569 25.4915 47.2031 25.6409C47.8372 25.7902 49.1014 23.3283 49.9049 23.837C50.7089 24.3453 50.0303 25.3368 48.8777 29.0282C48.3361 30.7639 46.5161 32.248 46.1313 32.6402C46.2542 32.5624 47.5498 31.9053 47.7632 31.7985C49.6195 30.8677 50.6095 31.1527 50.089 32.1604C49.568 33.1676 49.8471 33.9672 48.4703 34.803C47.3955 35.4561 44.3133 35.2745 42.295 36.4109C43 36.1744 43.7869 36.1245 44.5072 35.934C46.0715 35.5203 47.4714 35.8527 49.027 35.792C50.5831 35.7313 49.7864 34.0749 50.9322 33.6264C52.0789 33.1779 51.7053 31.3804 50.7334 29.7391C49.7615 28.0969 51.7788 27.3002 50.6359 24.5044C49.4936 21.7086 51.3435 21.5651 50.9464 18.9348C50.5498 16.3035 48.5202 16.6374 47.7236 14.0795C46.9274 11.5217 45.0462 11.6348 44.2158 9.46176C43.3859 7.28875 42.3733 7.11934 41.0258 6.44608C39.6788 5.77185 41.2491 4.24565 39.364 2.52066C37.4779 0.796155 35.4273 -0.182141 34.5063 0.0284029C33.5853 0.238947 32.1291 2.92069 32.3769 3.51658C32.6251 4.11247 30.7185 6.14594 30.0256 7.92626C29.3328 9.70707 28.9465 11.0105 30.0085 12.5577C31.0705 14.104 28.8779 15.2762 28.2761 16.2403C27.6744 17.2044 27.3542 17.1721 27.4604 19.3476C27.5662 21.5225 27.0956 21.2576 26.2828 23.7367C25.47 26.2152 28.2287 25.398 28.614 25.9435C28.9993 26.4889 27.2528 28.7148 26.6878 30.0745C26.1222 31.4343 26.8684 31.5993 29.2559 33.5882V33.5872Z" fill="#76B512"/>
<path d="M49.1767 31.8671C46.8812 32.937 46.9728 32.7612 45.9686 33.7547C44.9643 34.7486 47.4012 34.876 48.3712 34.1136C49.3412 33.3512 49.1767 31.8666 49.1767 31.8666V31.8671Z" fill="#A8D65F"/>
<path d="M42.2491 27.6714C41.5122 29.7093 41.4922 30.1495 40.7979 30.1681C40.1031 30.1862 39.6061 29.1947 40.5858 28.3148C41.5661 27.4349 42.8426 26.8513 42.6487 27.2332C42.4548 27.6146 42.2491 27.6714 42.2491 27.6714Z" fill="#A8D65F"/>
<path d="M43.7345 15.5C44.0738 18.2013 44.1424 19.7912 42.7155 21.4584C41.2887 23.1256 39.929 24.7899 40.0617 23.8963C40.1939 23.0027 41.6917 20.8449 42.5026 18.9387C43.3134 17.0325 43.6057 13.7539 43.8305 14.2166C44.0552 14.6793 43.735 15.4995 43.735 15.4995L43.7345 15.5Z" fill="#A8D65F"/>
<path d="M35.3963 1.47776C36.189 1.46698 36.9764 1.91402 37.5468 2.74053C38.1167 3.56704 38.2876 5.89184 38.4066 7.55318C38.5256 9.21452 39.0569 12.7654 39.0569 12.7654C39.0569 12.7654 38.0462 5.62058 37.2555 4.10564C36.4642 2.59021 35.2259 2.27244 34.9982 1.85967C34.7701 1.44691 35.3968 1.47776 35.3968 1.47776H35.3963Z" fill="#A8D65F"/>
<path d="M35.387 10.9292C36.518 14.0888 36.6546 15.2654 36.3109 14.9658C35.9672 14.6661 32.6543 10.7343 32.6543 10.7343C32.6543 10.7343 34.958 13.4631 35.2846 12.9269C35.6112 12.3908 35.3875 10.9292 35.3875 10.9292H35.387Z" fill="#A8D65F"/>
<path d="M33.9407 17.7263C36.2577 20.9506 37.9528 24.2733 37.4568 24.286C36.9608 24.2983 35.3117 21.2713 34.5405 19.7481C33.7693 18.2253 33.4912 17.035 33.4912 17.035L33.9407 17.7263Z" fill="#A8D65F"/>
<path d="M32.3555 24.9872C33.6388 26.5398 35.6027 31.0616 36.2079 31.5787C36.8126 32.0957 37.1402 31.6477 37.1402 31.6477C37.1402 31.6477 37.5314 32.9864 36.7975 33.1034C36.064 33.2204 35.4133 32.744 34.904 31.282C34.081 28.9185 32.3555 24.9872 32.3555 24.9872Z" fill="#A8D65F"/>
<path d="M47.6295 28.9269C45.3693 31.8142 42.8677 32.0228 41.6843 33.786C40.5008 35.5492 40.0523 37.0583 40.61 36.5388C41.1682 36.0193 44.9095 35.5433 44.8948 34.1699C44.8802 32.7965 45.1818 32.9889 46.7888 30.8599C48.3958 28.731 49.2066 26.1183 49.2066 26.1183L47.6295 28.9269Z" fill="#A8D65F"/>
<path d="M29.6228 29.4008C31.3625 30.5235 32.5146 30.9128 32.9945 32.389C33.4743 33.8653 35.0774 35.7342 35.0774 35.7342C35.0774 35.7342 33.9297 34.964 33.1678 34.0141C32.4059 33.0642 32.7448 32.0571 31.4531 31.3858C30.1614 30.715 29.168 29.0879 29.168 29.0879L29.6228 29.4003V29.4008Z" fill="#A8D65F"/>
<path d="M36.4121 49.0637C35.5792 47.6515 34.7224 46.2497 33.7681 44.913C33.3083 44.2329 32.8059 43.5831 32.3178 42.9221C32.2575 42.8389 32.1939 42.7586 32.1297 42.6783L31.9388 42.4369L31.5569 41.9536L31.1745 41.4704L30.7798 40.9974L30.3852 40.5244C30.2535 40.3667 30.1227 40.2081 29.9856 40.0553L29.1723 39.1289L28.339 38.2206C28.2014 38.0684 28.0579 37.921 27.9154 37.7726L27.4885 37.328L27.2745 37.1062L27.0566 36.8883L26.6208 36.4521C26.4769 36.3057 26.3275 36.1642 26.1797 36.0212L25.7356 35.5932C25.1358 35.0311 24.5296 34.4754 23.8975 33.9485C24.5369 34.4661 25.1514 35.0135 25.76 35.5673L26.2105 35.9889C26.3603 36.1299 26.5121 36.2689 26.6585 36.4134L27.1012 36.8433L27.3225 37.0582L27.5399 37.2776L27.9737 37.7163C28.1181 37.8627 28.2641 38.0081 28.4041 38.1585L29.2521 39.0555L30.0801 39.9716C30.2197 40.1229 30.3528 40.2796 30.487 40.4358L30.8895 40.9039L31.292 41.3719L31.6822 41.8508L32.072 42.3297L32.2668 42.5691C32.332 42.6489 32.3971 42.7287 32.4588 42.811C32.9577 43.4661 33.4709 44.111 33.9424 44.7872C34.9197 46.1146 35.801 47.51 36.6594 48.9182L36.4111 49.0627L36.4121 49.0637Z" fill="#E5126B"/>
<path d="M35.9254 49.6116C35.4128 48.6479 34.8707 47.6946 34.3106 46.7555C34.0281 46.2869 33.7436 45.8193 33.4478 45.3591C33.3024 45.1275 33.1496 44.9007 33.0003 44.6711C32.8461 44.4454 32.6967 44.2162 32.5376 43.9939C31.9099 43.0979 31.2474 42.2244 30.5712 41.3626C29.8926 40.5023 29.1992 39.6528 28.4834 38.8229C29.2174 39.6371 29.9293 40.4715 30.627 41.3176C31.3228 42.1656 32.0044 43.0249 32.6541 43.9107C32.8187 44.1305 32.9739 44.3573 33.1335 44.5805C33.2882 44.8072 33.4464 45.032 33.5977 45.2611C33.9052 45.7165 34.2004 46.1792 34.4942 46.6429C35.0774 47.5737 35.6404 48.5153 36.1785 49.4754L35.9254 49.6116Z" fill="#E5126B"/>
<path d="M37.0988 49.0245C36.4437 47.984 35.7733 46.9504 35.0908 45.9266C34.749 45.4149 34.4053 44.9042 34.0547 44.3984C33.8799 44.1453 33.7036 43.8926 33.5259 43.6419L33.2581 43.2659L32.9834 42.8962C32.6113 42.4075 32.2264 41.9272 31.8269 41.4596C31.728 41.3416 31.6281 41.2246 31.5267 41.109L31.2236 40.7609C31.0185 40.5312 30.8158 40.3001 30.6072 40.0734C30.1939 39.6171 29.7728 39.1676 29.3473 38.7225C28.9214 38.2779 28.4914 37.8363 28.0537 37.4034C28.4988 37.8289 28.936 38.2632 29.3699 38.7005C29.8032 39.1382 30.2321 39.5809 30.6537 40.0303C30.8657 40.2536 31.0733 40.4818 31.2824 40.708L31.5918 41.0517C31.6956 41.1658 31.7975 41.2814 31.8983 41.3979C32.3072 41.8596 32.7014 42.3346 33.0838 42.8193L33.3663 43.1866L33.6424 43.5572C33.8261 43.805 34.0077 44.0537 34.1889 44.3034C34.5512 44.8024 34.9067 45.3057 35.2602 45.811C35.9667 46.8216 36.6596 47.8406 37.3402 48.8703L37.0983 49.0255L37.0988 49.0245Z" fill="#E5126B"/>
<path d="M39.408 48.1534C39.0951 46.5342 38.8082 44.9091 38.6378 43.2693C38.5315 42.4521 38.4777 41.6295 38.4057 40.8088C38.3959 40.7065 38.39 40.6037 38.3851 40.5009L38.368 40.1924L38.3342 39.5755L38.3004 38.959L38.2833 38.3416L38.2662 37.7241C38.2603 37.5185 38.2534 37.3128 38.2549 37.1067L38.251 35.8718L38.2745 34.6375C38.2769 34.4318 38.2867 34.2262 38.295 34.0205L38.3205 33.4041L38.3337 33.0956L38.3528 32.7876L38.391 32.1716C38.4018 31.9665 38.4204 31.7613 38.4366 31.5562L38.486 30.9412C38.5639 30.122 38.65 29.3038 38.7744 28.4905C38.6618 29.3053 38.5874 30.1245 38.5217 30.9441L38.4811 31.5596C38.4679 31.7647 38.4527 31.9694 38.4444 32.1751L38.4155 32.791L38.4008 33.099L38.392 33.407L38.3753 34.0234C38.37 34.2286 38.3631 34.4343 38.3636 34.6399L38.3582 35.8723L38.3798 37.1047C38.3812 37.3104 38.391 37.5155 38.3998 37.7207L38.4263 38.3362L38.4527 38.9517L38.4953 39.5661L38.5379 40.1806L38.5595 40.4876C38.5663 40.59 38.5732 40.6923 38.5844 40.7946C38.6681 41.6114 38.7338 42.43 38.8513 43.2428C39.0447 44.8738 39.3541 46.4872 39.6886 48.0922L39.4075 48.1529L39.408 48.1534Z" fill="#E5126B"/>
<path d="M40.1389 48.2406C39.8906 47.1683 39.6737 46.093 39.4788 45.0119C39.3838 44.4714 39.2908 43.9298 39.212 43.3863C39.1694 43.1151 39.1356 42.8423 39.0974 42.5706C39.0656 42.2978 39.0274 42.0256 39.0014 41.7524C38.8864 40.66 38.8124 39.5657 38.7561 38.4699C38.7027 37.3745 38.668 36.2782 38.6631 35.1819C38.692 36.2778 38.7507 37.3726 38.8281 38.4655C38.9079 39.5578 39.0058 40.6502 39.1444 41.7353C39.1762 42.007 39.2203 42.2768 39.258 42.5476C39.3021 42.8174 39.3417 43.0881 39.3902 43.3574C39.4808 43.897 39.5851 44.4341 39.6913 44.9708C39.9087 46.0426 40.1491 47.1125 40.4184 48.1706L40.1398 48.2401L40.1389 48.2406Z" fill="#E5126B"/>
<path d="M38.8705 48.575C38.681 47.3553 38.5081 46.1356 38.3505 44.9125C38.2721 44.3009 38.1962 43.6894 38.1287 43.0764C38.0944 42.7698 38.0611 42.4633 38.0307 42.1568L37.9857 41.6966L37.9475 41.2348C37.9039 40.6189 37.876 40.0024 37.8677 39.386C37.8638 39.2317 37.8618 39.0775 37.8618 38.9237L37.8594 38.4615C37.8618 38.1535 37.8618 37.8451 37.8682 37.5371C37.8775 36.9211 37.8966 36.3052 37.923 35.6897C37.9495 35.0742 37.9808 34.4587 38.0239 33.8447C37.9916 34.4597 37.9705 35.0752 37.9549 35.6912C37.9392 36.3066 37.9309 36.9226 37.9318 37.5381C37.9304 37.846 37.9358 38.1535 37.9387 38.4615L37.949 38.9228C37.9519 39.0765 37.9568 39.2303 37.9627 39.384C37.9818 39.999 38.02 40.613 38.0738 41.225L38.1194 41.6833L38.1742 42.1416C38.2114 42.4472 38.2516 42.7522 38.2922 43.0573C38.3735 43.6674 38.4626 44.2765 38.5542 44.8851C38.7383 46.1018 38.938 47.3176 39.1535 48.528L38.8705 48.576V48.575Z" fill="#E5126B"/>
<path d="M56.4115 53.5762C53.4375 45.8874 46.0258 45.2518 38.337 48.2259C30.6482 51.2 25.5932 56.657 28.5673 64.3462C32.0094 73.2454 43.3005 74.869 47.3341 75.1653C47.7694 75.1971 48.1596 75.4463 48.3687 75.8292C48.4035 75.8929 48.4383 75.9565 48.4735 76.0197C48.9627 76.9025 49.4826 77.7711 50.0173 78.6158C50.5491 79.4633 51.0901 80.2776 51.5288 81.1242C51.7487 81.5477 51.9465 81.982 52.1203 82.4295C52.1624 82.5422 52.2055 82.6543 52.2467 82.7674L52.3666 83.1111L52.6163 83.8235C52.9601 84.7671 53.34 85.6905 53.7347 86.6057C54.1303 87.5203 54.5431 88.4257 54.9681 89.3246C55.3936 90.2231 55.8298 91.1157 56.2823 91.9995C55.9126 91.078 55.5605 90.1502 55.2197 89.2189C54.8794 88.2876 54.5528 87.3519 54.2449 86.4118C53.9379 85.4717 53.6475 84.5272 53.3973 83.5778L53.2186 82.8653L53.1265 82.4961C53.0942 82.3723 53.0595 82.2494 53.0257 82.1255C52.8851 81.6324 52.7147 81.1438 52.5199 80.6669C52.326 80.189 52.1061 79.7258 51.8814 79.2743C51.6566 78.8224 51.427 78.3807 51.2032 77.941C50.7542 77.0631 50.3332 76.1847 49.9395 75.2911C49.9385 75.2882 49.937 75.2857 49.9361 75.2828C49.727 74.8064 49.8293 74.2516 50.1907 73.8775C53.2308 70.7316 59.8669 62.5081 56.4115 53.5752V53.5762Z" fill="#A21F59"/>
<path d="M52.6721 81.2074C52.7715 81.4116 52.8817 81.6104 53.0026 81.8038C53.123 81.9977 53.2552 82.1847 53.3899 82.3752C53.5226 82.5666 53.6621 82.761 53.762 82.9843C53.789 83.0386 53.808 83.0974 53.8301 83.1542C53.8467 83.2125 53.8658 83.2737 53.8786 83.328C53.906 83.4401 53.9363 83.5513 53.9672 83.6629C54.0294 83.8857 54.0964 84.107 54.1699 84.3264C54.2438 84.5453 54.3217 84.7636 54.4162 84.9732C54.4627 85.0785 54.5146 85.1813 54.5763 85.2763C54.6057 85.3233 54.6444 85.3723 54.6718 85.4237C54.687 85.4491 54.7012 85.4751 54.7139 85.5015C54.7276 85.5275 54.7398 85.5544 54.7516 85.5813C54.8456 85.7963 54.9043 86.0235 54.9381 86.2531C54.8926 86.0254 54.8221 85.8027 54.7193 85.5965C54.7065 85.5706 54.6933 85.5451 54.6786 85.5206C54.6649 85.4956 54.6502 85.4712 54.6341 85.4472C54.6189 85.4227 54.6027 85.3997 54.5851 85.3772L54.5327 85.3071C54.4632 85.2107 54.4044 85.1083 54.352 85.0041C54.2448 84.7955 54.1552 84.5795 54.069 84.3626C53.9838 84.1452 53.9045 83.9259 53.8306 83.7046C53.7938 83.5939 53.7576 83.4827 53.7238 83.3706C53.7072 83.3128 53.6886 83.2639 53.6705 83.2115C53.6479 83.1611 53.6284 83.1101 53.6014 83.0617C53.501 82.8648 53.3595 82.6856 53.218 82.503C53.0751 82.3213 52.9292 82.1358 52.794 81.9419C52.6584 81.748 52.5325 81.5462 52.418 81.3381L52.6731 81.2064L52.6721 81.2074Z" fill="#A21F59"/>
<path d="M49.2231 76.2175C49.2706 76.5226 49.3107 76.8306 49.3274 77.1425C49.3352 77.2982 49.3391 77.4548 49.3352 77.6096C49.3332 77.7638 49.3235 77.9185 49.3239 78.0556C49.3244 78.1942 49.3406 78.3098 49.3905 78.4282C49.4405 78.5467 49.5169 78.6662 49.5991 78.7837C49.7764 79.0295 49.9512 79.2836 50.103 79.5539C50.1774 79.69 50.2474 79.8296 50.3062 79.9745C50.363 80.1204 50.4119 80.2703 50.4428 80.425C50.4721 80.5797 50.4873 80.7374 50.4834 80.8946C50.4829 80.9337 50.4785 80.9729 50.4761 81.0116L50.4717 81.0698L50.4628 81.1276L50.4457 81.2422L50.432 81.3489C50.4202 81.4919 50.4242 81.6393 50.4516 81.7842C50.4609 81.8572 50.4819 81.9287 50.4981 82.0011C50.5201 82.0721 50.5392 82.1441 50.5657 82.2136C50.6151 82.3546 50.6758 82.4917 50.7439 82.6254C50.8124 82.7591 50.8869 82.8903 50.9716 83.0147C50.8776 82.8967 50.7938 82.7704 50.7155 82.6411C50.6372 82.5118 50.5657 82.3772 50.5054 82.2376C50.4731 82.1686 50.4482 82.0966 50.4207 82.0251C50.3987 81.9517 50.3718 81.8797 50.3566 81.8038C50.3174 81.6545 50.3008 81.4988 50.3027 81.3411L50.3096 81.2226L50.3179 81.1124L50.3223 81.0581V81.0037C50.3223 80.9675 50.3238 80.9313 50.3223 80.895C50.316 80.7506 50.291 80.6081 50.2547 80.4691C50.217 80.33 50.1622 80.1963 50.1 80.0656C50.0364 79.9353 49.9619 79.81 49.8826 79.6871C49.721 79.4423 49.5364 79.2112 49.3445 78.9815C49.2456 78.8591 49.1472 78.7313 49.0684 78.5766C49.0507 78.5365 49.0326 78.4963 49.0155 78.4557C49.0023 78.4131 48.9876 78.3705 48.9763 78.3279C48.968 78.2853 48.9577 78.2412 48.9513 78.1991C48.9464 78.1575 48.9406 78.1144 48.9376 78.0737C48.9254 77.9102 48.9254 77.7633 48.9161 77.6164C48.9092 77.47 48.895 77.3261 48.8774 77.1811C48.8412 76.8927 48.7829 76.6048 48.7168 76.3189L49.2236 76.217L49.2231 76.2175Z" fill="#A21F59"/>
<path d="M48.0815 47.2045C45.1642 46.6312 42.8042 47.3024 39.9667 48.1911C37.7673 48.8801 35.8024 49.8495 33.6695 51.3165C29.9879 53.8494 28.5308 56.1531 28.4162 60.8688C28.3545 63.4164 30.7865 67.8902 34.1254 70.359C37.4642 72.8277 42.2651 74.1738 45.0521 74.2634C49.1073 74.3941 49.7938 76.8002 49.7938 76.8002C49.7938 76.8002 49.2302 73.5152 46.4412 72.2798C42.3082 70.4496 35.1565 69.2852 33.5833 61.3124C32.5164 55.9068 34.6478 54.4727 39.8336 51.6955C45.0193 48.9183 51.6162 48.1505 51.6162 48.1505L48.0815 47.2035V47.2045Z" fill="#721C47"/>
<path d="M35.2979 59.4729C35.4222 59.4097 35.5471 59.3652 35.6714 59.3245C35.7958 59.2824 35.9192 59.2452 36.0436 59.2148C36.1679 59.1835 36.2913 59.1512 36.4162 59.1277C36.5406 59.1017 36.6649 59.0773 36.7932 59.0714C37.0483 59.0533 37.3171 59.0758 37.5698 59.0234C37.8224 58.973 38.0623 58.8731 38.2881 58.7428C38.4022 58.6816 38.5118 58.6106 38.6254 58.5509C38.739 58.4917 38.8516 58.4329 38.9657 58.3766C39.1924 58.2615 39.4128 58.1372 39.6429 58.0329C39.7589 57.9824 39.8725 57.9271 39.991 57.8806C40.1085 57.8321 40.2251 57.7802 40.3455 57.7352C40.465 57.6882 40.5845 57.6392 40.7093 57.5971C40.8327 57.553 40.9566 57.508 41.0903 57.4747L41.1196 57.5173C41.0369 57.626 40.9463 57.7259 40.8518 57.8213C40.7554 57.9134 40.6564 58.0045 40.5526 58.0872C40.3441 58.2527 40.1232 58.402 39.8897 58.5274C39.6561 58.6527 39.4059 58.7448 39.1542 58.8275C39.0279 58.8677 38.904 58.9127 38.7733 58.9397C38.7087 58.9548 38.6431 58.9671 38.5774 58.9788C38.5123 58.9921 38.4462 59.0009 38.3801 59.0102C38.2484 59.0288 38.1187 59.0523 37.9904 59.0787C37.8626 59.1057 37.7377 59.1434 37.6138 59.1835C37.3671 59.2667 37.1315 59.4078 36.8799 59.4935C36.754 59.5346 36.6253 59.5664 36.494 59.5806C36.3633 59.5968 36.2321 59.6105 36.0994 59.6129C35.9667 59.6144 35.8345 59.6124 35.7013 59.5992C35.5681 59.5831 35.435 59.5625 35.3018 59.5233L35.2979 59.4719V59.4729Z" fill="#721C47"/>
<path d="M29.6367 57.5707C29.7131 57.5295 29.79 57.4997 29.8664 57.4737C29.9427 57.4463 30.0186 57.4223 30.095 57.4032C30.1714 57.3831 30.2473 57.3626 30.3237 57.3484C30.4001 57.3322 30.4769 57.3175 30.5558 57.3146C30.7129 57.3048 30.8794 57.3234 31.0351 57.2916C31.1908 57.2617 31.3382 57.1985 31.4763 57.1163C31.5463 57.0776 31.6134 57.0326 31.6824 56.9949C31.752 56.9576 31.821 56.9209 31.891 56.8862C32.0301 56.8142 32.1652 56.7373 32.3067 56.6732C32.3782 56.6423 32.4482 56.609 32.5212 56.5806C32.5936 56.5512 32.6656 56.5204 32.7405 56.4935C32.8145 56.4656 32.8884 56.4362 32.9663 56.4122C33.0426 56.3857 33.12 56.3598 33.2037 56.3412L33.2233 56.3696C33.1234 56.5072 33.0049 56.6232 32.8786 56.7285C32.7513 56.8328 32.6147 56.9248 32.4712 57.0032C32.3273 57.081 32.1726 57.1368 32.0168 57.1873C31.9385 57.2113 31.8621 57.2392 31.7808 57.2548C31.7005 57.2715 31.6193 57.2857 31.5375 57.2955C31.374 57.3165 31.2163 57.3464 31.0645 57.3998C30.9127 57.4517 30.7683 57.5428 30.6135 57.5971C30.5362 57.6231 30.4569 57.6431 30.3756 57.6515C30.2948 57.6613 30.2135 57.6691 30.1317 57.6701C30.05 57.6701 29.9682 57.6681 29.8859 57.6583C29.8037 57.647 29.7214 57.6324 29.6392 57.6059L29.6367 57.5716V57.5707Z" fill="#A21F59"/>
<path d="M41.8721 49.0725C41.9485 49.0314 42.0253 49.0015 42.1017 48.9755C42.1781 48.9481 42.254 48.9241 42.3304 48.905C42.4068 48.885 42.4826 48.8644 42.559 48.8502C42.6354 48.834 42.7123 48.8194 42.7911 48.8164C42.9483 48.8066 43.1148 48.8252 43.2705 48.7934C43.4262 48.7635 43.5736 48.7004 43.7116 48.6181C43.7817 48.5794 43.8487 48.5344 43.9178 48.4967C43.9873 48.4595 44.0563 48.4227 44.1264 48.388C44.2654 48.316 44.4006 48.2391 44.5421 48.175C44.6136 48.1441 44.6836 48.1109 44.7565 48.0825C44.829 48.0531 44.901 48.0222 44.9759 47.9953C45.0498 47.9674 45.1238 47.938 45.2016 47.914C45.278 47.8876 45.3554 47.8616 45.4391 47.843L45.4587 47.8714C45.3588 48.009 45.2403 48.1251 45.114 48.2303C44.9867 48.3346 44.85 48.4267 44.7066 48.505C44.5626 48.5829 44.4079 48.6387 44.2522 48.6891C44.1739 48.7131 44.0975 48.741 44.0162 48.7567C43.9359 48.7733 43.8546 48.7875 43.7728 48.7973C43.6093 48.8184 43.4516 48.8482 43.2999 48.9016C43.1481 48.9535 43.0036 49.0446 42.8489 49.0989C42.7715 49.1249 42.6922 49.145 42.6109 49.1533C42.5301 49.1631 42.4489 49.1709 42.3671 49.1719C42.2853 49.1719 42.2036 49.1699 42.1213 49.1601C42.039 49.1489 41.9568 49.1342 41.8745 49.1078L41.8721 49.0735V49.0725Z" fill="#A21F59"/>
<path d="M50.1787 56.9968C50.2903 56.9287 50.403 56.8778 50.5156 56.8323C50.6277 56.7838 50.7408 56.7432 50.8539 56.7079C50.9665 56.6692 51.0796 56.6354 51.1942 56.607C51.3073 56.5732 51.4224 56.5497 51.5414 56.538C51.6589 56.5223 51.7808 56.5209 51.9027 56.515C52.0237 56.5071 52.1446 56.4944 52.2611 56.468C52.3767 56.4386 52.4893 56.398 52.599 56.3505C52.7077 56.3005 52.8115 56.2383 52.9148 56.1757C53.117 56.0405 53.3192 55.9147 53.5278 55.806C53.6302 55.7467 53.7315 55.687 53.8348 55.6312C53.9362 55.571 54.04 55.5171 54.1458 55.4662C54.2505 55.4133 54.3573 55.3643 54.4665 55.3183C54.5737 55.2689 54.6834 55.2233 54.795 55.1797C54.9052 55.1337 55.0178 55.0906 55.1338 55.0515C55.2484 55.0103 55.3654 54.9707 55.4908 54.9413L55.5202 54.9839C55.4462 55.0882 55.3635 55.1822 55.2788 55.2742C55.1916 55.3629 55.101 55.4471 55.0075 55.5288C54.9125 55.6072 54.8151 55.6831 54.7152 55.7551C54.6139 55.8251 54.51 55.8912 54.4048 55.9539C54.2971 56.0126 54.1869 56.0675 54.0748 56.1164C53.9612 56.1634 53.8456 56.2065 53.731 56.2501C53.615 56.2902 53.4994 56.3319 53.3805 56.3642C53.2605 56.394 53.1381 56.4161 53.0171 56.4391C52.8947 56.4597 52.7738 56.4812 52.6573 56.514C52.5393 56.5434 52.4242 56.5791 52.3126 56.6261C52.1994 56.6692 52.0907 56.727 51.982 56.7887C51.8724 56.846 51.7627 56.9082 51.6486 56.9552C51.4199 57.0467 51.1751 57.0805 50.9313 57.1025C50.8084 57.1094 50.685 57.1114 50.5611 57.1055C50.4367 57.0957 50.3119 57.08 50.1861 57.0477L50.1792 56.9963L50.1787 56.9968Z" fill="#721C47"/>
<path d="M32.4814 67.0299C32.5706 66.9756 32.6602 66.9349 32.7503 66.8992C32.8399 66.8605 32.9295 66.8282 33.02 66.7998C33.1097 66.7689 33.2002 66.742 33.2913 66.7195C33.3814 66.6926 33.4735 66.674 33.568 66.6647C33.6615 66.6519 33.7589 66.6509 33.8559 66.6465C33.9523 66.6402 34.0488 66.6304 34.1418 66.6088C34.2339 66.5853 34.3235 66.553 34.4111 66.5153C34.4978 66.4752 34.5805 66.4257 34.6628 66.3758C34.8239 66.268 34.985 66.1677 35.1514 66.081C35.2327 66.034 35.314 65.986 35.3963 65.9415C35.477 65.8935 35.5598 65.8504 35.644 65.8102C35.7277 65.7681 35.8129 65.729 35.8996 65.6927C35.9848 65.6536 36.0724 65.6168 36.1616 65.5826C36.2492 65.5458 36.3388 65.5116 36.4314 65.4802C36.5229 65.4474 36.6159 65.4161 36.7158 65.3926L36.7393 65.4264C36.6801 65.5096 36.6145 65.5845 36.5469 65.658C36.4774 65.7285 36.4049 65.796 36.331 65.8607C36.2551 65.9233 36.1777 65.9836 36.0979 66.0409C36.0171 66.0967 35.9344 66.1491 35.8506 66.199C35.765 66.2455 35.6773 66.2896 35.5877 66.3288C35.4971 66.3665 35.4051 66.4002 35.314 66.435C35.2215 66.4673 35.1294 66.5001 35.0349 66.5261C34.9394 66.5496 34.8415 66.5672 34.745 66.5858C34.6476 66.6025 34.5511 66.6191 34.4581 66.6456C34.3641 66.6686 34.2725 66.6975 34.1834 66.7352C34.0933 66.7694 34.0067 66.8155 33.92 66.8644C33.8324 66.91 33.7452 66.9594 33.6546 66.9971C33.472 67.0701 33.2771 67.097 33.0827 67.1146C32.9848 67.1205 32.8864 67.1215 32.7875 67.1166C32.6881 67.1088 32.5887 67.0965 32.4883 67.0706L32.4829 67.0299H32.4814Z" fill="#A21F59"/>
<path d="M39.6729 71.5645C39.762 71.5101 39.8516 71.4695 39.9417 71.4337C40.0313 71.3951 40.1209 71.3627 40.2115 71.3343C40.3011 71.3035 40.3916 71.2766 40.4827 71.254C40.5728 71.2271 40.6649 71.2085 40.7594 71.1992C40.8529 71.1865 40.9503 71.1855 41.0473 71.1811C41.1437 71.1747 41.2402 71.1649 41.3332 71.1434C41.4253 71.1199 41.5149 71.0876 41.6025 71.0499C41.6892 71.0097 41.7719 70.9603 41.8542 70.9103C42.0153 70.8026 42.1764 70.7022 42.3428 70.6156C42.4241 70.5685 42.5054 70.5206 42.5877 70.476C42.6685 70.428 42.7512 70.3849 42.8354 70.3448C42.9191 70.3027 43.0043 70.2635 43.091 70.2273C43.1762 70.1881 43.2639 70.1514 43.353 70.1171C43.4406 70.0804 43.5302 70.0461 43.6228 70.0148C43.7143 69.982 43.8074 69.9501 43.9072 69.9271L43.9307 69.9609C43.8715 70.0441 43.8059 70.1191 43.7383 70.1925C43.6688 70.263 43.5963 70.3306 43.5224 70.3952C43.4465 70.4579 43.3691 70.5181 43.2893 70.5754C43.2085 70.6312 43.1258 70.6836 43.042 70.7336C42.9564 70.7801 42.8687 70.8241 42.7791 70.8633C42.6885 70.901 42.5965 70.9348 42.5054 70.9696C42.4129 71.0019 42.3208 71.0347 42.2263 71.0606C42.1308 71.0841 42.0329 71.1018 41.9364 71.1204C41.839 71.137 41.7426 71.1537 41.6495 71.1801C41.5555 71.2031 41.4639 71.232 41.3748 71.2697C41.2847 71.304 41.1981 71.35 41.1114 71.399C41.0238 71.4445 40.9366 71.494 40.846 71.5317C40.6634 71.6046 40.4685 71.6316 40.2741 71.6492C40.1762 71.6551 40.0778 71.656 39.9789 71.6511C39.8795 71.6433 39.7801 71.6311 39.6797 71.6051L39.6743 71.5645H39.6729Z" fill="#E5126B"/>
<path d="M47.3848 68.9542C47.4607 68.8852 47.539 68.8328 47.6183 68.7858C47.6972 68.7378 47.7775 68.6971 47.8587 68.6619C47.9395 68.6247 48.0218 68.5933 48.1045 68.5659C48.1873 68.5365 48.2715 68.5145 48.3606 68.5076C48.4487 68.4969 48.5413 68.5003 48.6333 68.4993C48.7254 68.4983 48.8165 68.492 48.9031 68.4724C48.9893 68.4518 49.0716 68.419 49.1519 68.3803C49.2312 68.3407 49.3061 68.2888 49.38 68.2364C49.453 68.182 49.5255 68.1257 49.5999 68.0772C49.6738 68.0263 49.7507 67.9852 49.8276 67.9421C49.9035 67.898 49.9789 67.853 50.0557 67.8119C50.1316 67.7683 50.2095 67.7296 50.2898 67.6963C50.3696 67.6611 50.4514 67.6307 50.5356 67.6033C50.6183 67.5734 50.703 67.5475 50.7902 67.5244C50.8764 67.5 50.9645 67.4784 51.0556 67.4618C51.1467 67.4441 51.2392 67.4285 51.3391 67.4241L51.365 67.4686C51.2549 67.6336 51.1222 67.7653 50.9816 67.8853C50.8401 68.0033 50.6893 68.1076 50.5297 68.1938C50.4494 68.2359 50.3662 68.2721 50.281 68.3039C50.1958 68.3353 50.1086 68.3622 50.022 68.3901C49.9348 68.4161 49.8481 68.4435 49.758 68.4616C49.6675 68.4787 49.5744 68.4885 49.4824 68.4998C49.2968 68.5174 49.1205 68.5542 48.9575 68.6291C48.8757 68.6658 48.7979 68.7152 48.721 68.7701C48.6431 68.822 48.5663 68.8778 48.4845 68.9199C48.321 69.0036 48.1398 69.0311 47.9591 69.0511C47.7765 69.0653 47.5904 69.0619 47.3955 69.0036L47.3848 68.9532V68.9542Z" fill="#721C47"/>
</g>
<defs>
<clipPath id="clip0_214_167544">
<rect width="56.4817" height="92" fill="white" transform="translate(0.901367)"/>
</clipPath>
</defs>
</svg>
