<svg width="74" height="74" viewBox="0 0 74 74" fill="none" xmlns="http://www.w3.org/2000/svg">
<path d="M51.0526 29.2035C51.3501 29.3087 51.4026 29.598 51.4026 29.8873C51.4026 30.317 51.1314 30.5888 50.8602 30.8693C50.0816 31.6935 49.9679 31.6935 49.2594 30.808C49.1719 30.7028 49.0932 30.5888 49.0407 30.466C48.857 30.0539 48.9357 29.8611 49.4081 29.7909C49.7405 29.7383 49.9417 29.6682 49.863 29.2824C49.8455 29.1947 49.863 29.0982 49.9417 29.0719C50.3178 28.958 50.7027 29.0807 51.0526 29.2035Z" fill="#13751E"/>
<path d="M13.2478 43.8938C14.0084 45.1654 14.4862 46.5087 14.4472 48.04C13.9889 47.9236 13.8524 47.6549 13.8816 47.3684C13.9889 46.1326 13.4136 45.1207 12.6823 44.1625C12.575 44.0192 12.2922 43.858 12.5848 43.6789C12.8675 43.5088 13.0723 43.5983 13.2478 43.8938Z" fill="#13751E"/>
<path d="M13.7452 57.0378C14.0589 57.359 14.2245 57.7352 14.1025 58.3133C13.5796 58.0931 13.2746 57.7077 13.0916 57.2397C12.8388 56.5973 12.5425 55.9825 12.1329 55.4228C11.7669 54.9364 11.8017 54.3583 11.9412 53.56C12.4379 54.2207 12.8214 54.6979 12.926 55.3677C13.0218 56.0009 13.292 56.5698 13.7452 57.0378Z" fill="#13751E"/>
<path d="M4.43974 51.6478C4.96082 52.0447 4.87855 52.64 4.94254 53.2533C4.11064 52.5859 2.93135 49.411 3.12333 48.3467C3.58956 48.9961 4.03751 49.5553 3.92781 50.3671C3.86381 50.8812 4.00094 51.3141 4.43974 51.6478Z" fill="#13751E"/>
<path d="M19.5664 42.2633C19.8906 42.9597 20.0797 43.6652 19.8996 44.425C19.8366 44.6782 19.7465 44.9224 19.6475 45.1576C18.9901 46.7766 18.675 48.4589 18.675 50.2045C18.675 50.9553 18.666 51.6969 18.675 52.4476C18.684 53.6506 18.9721 54.7812 19.6655 55.7761C19.7465 55.8936 19.8366 56.0022 19.8186 56.1921C19.4224 56.4997 18.9451 56.6896 18.4589 56.8253C17.4684 57.1056 16.4959 57.4584 15.5684 57.8925C14.9741 58.1729 14.9651 58.1548 14.749 57.5579C14.632 57.2323 14.4879 56.9247 14.2267 56.6805C13.7855 56.2735 13.5784 55.7399 13.4704 55.1701C13.4073 54.8535 13.3173 54.5641 13.1282 54.3018C12.6329 53.6234 12.1917 52.927 12.1287 52.0587C12.1107 51.8597 12.0476 51.6246 11.7775 51.6698C11.5884 51.6969 11.5074 51.8869 11.5164 52.0587C11.5434 52.8637 11.3633 53.6596 11.3363 54.4556C11.3183 55.0254 11.5164 55.5228 11.8856 55.957C12.1287 56.2464 12.3538 56.5358 12.4799 56.8976C12.696 57.5036 12.9931 58.0553 13.5064 58.4624C13.7765 58.6794 13.7675 58.8694 13.4884 59.0774C12.1557 60.0271 10.796 60.9316 9.29224 61.5737C8.91405 61.7365 8.5989 61.7275 8.23872 61.5195C6.18568 60.3527 4.45681 58.8513 3.27721 56.762C2.35875 55.152 1.56634 53.5149 1.34123 51.6426C1.26919 51.0728 1.25118 50.494 1.26919 49.9242C1.2962 49.3362 1.59335 48.9021 2.0886 48.6127C2.33173 48.468 2.54783 48.4861 2.58385 48.8207C2.72793 50.1322 3.4483 51.2537 3.76346 52.5019C3.81748 52.719 3.89852 52.9541 4.0426 53.126C4.42079 53.5963 4.74495 54.1028 4.99708 54.6545C5.12314 54.9349 5.32124 55.152 5.66342 55.0163C5.96957 54.8987 6.17667 54.6003 6.0416 54.3289C5.62739 53.4968 5.71744 52.4567 5.22219 51.7421C4.72694 51.0276 4.53784 50.3764 4.51083 49.5533C4.49282 49.074 4.08762 48.685 3.86251 48.2599C3.69142 47.9434 3.70042 47.7263 4.0516 47.5816C4.23169 47.5002 4.41178 47.4007 4.59187 47.3193C6.79799 46.2972 9.0041 45.2752 11.2102 44.2531C11.8045 43.9727 11.7685 44.018 12.2367 44.5064C12.9931 45.2933 13.3893 46.1887 13.3443 47.2922C13.3263 47.7625 13.4794 48.1966 13.8666 48.5132C14.1277 48.7212 14.2177 49.0287 14.2808 49.3453C14.3258 49.5714 14.3888 49.7975 14.5239 49.9875C14.668 50.1864 14.8661 50.3131 15.1092 50.1865C15.3343 50.0779 15.3343 49.8608 15.2713 49.6619C14.821 48.2057 14.9651 46.6409 14.3978 45.1938C14.2448 44.7958 14.0917 44.4069 13.8666 44.0361C13.5694 43.5386 13.6414 43.3668 14.1727 43.1225C15.2893 42.607 16.3158 41.9196 17.4594 41.4493C17.7655 41.3227 18.0267 41.1689 18.3058 41.4583C18.3418 41.4945 18.3959 41.5488 18.4499 41.5488C18.9541 41.5488 19.3233 41.7478 19.5664 42.2633Z" fill="#B1C092"/>
<path d="M73.0184 39.5541C73.0455 40.3697 72.9462 41.1671 72.6844 41.9282C72.0794 43.6499 71.9982 45.4078 72.26 47.2019C72.3864 48.0809 72.4496 48.978 72.3774 49.866C72.3503 50.2375 72.3142 50.609 71.9711 50.9533C71.7815 50.6271 71.8627 50.319 71.8537 50.0291C71.8266 48.2349 71.4113 46.5586 70.3639 45.0816C69.6597 44.0758 68.6846 43.4505 67.4928 43.1515C65.6238 42.6894 63.809 42.0732 61.9852 41.457C61.3351 41.2396 60.694 40.9949 60.0891 40.6506C59.1321 40.1069 58.5452 39.3095 58.3556 38.2131C58.2292 37.4882 58.2924 36.9173 58.9605 36.4099C59.8453 35.7303 60.351 34.7426 60.6489 33.6643C60.8385 32.9665 61.0281 32.2507 60.983 31.5439C60.9198 30.529 61.3622 29.5867 61.3441 28.5899C61.3351 28.2456 61.5969 28.0915 61.8859 28.0009C62.6804 27.7472 63.4569 27.421 64.2875 27.3395C65.7592 27.1945 67.1136 26.8501 68.0255 25.5C68.0977 25.5362 68.1699 25.5815 68.2422 25.6269C68.2422 26.2249 68.2512 26.823 68.2422 27.421C68.2151 28.7258 68.6123 29.8404 69.6055 30.7284C70.4362 31.4624 70.9869 32.4047 71.4294 33.4196C72.269 35.3859 72.9552 37.3885 73.0184 39.5541Z" fill="#429C4D"/>
<path d="M71.4781 51.2589C71.5324 51.768 71.3967 52.2226 71.053 52.6227C70.5645 53.1864 70.0941 53.7774 69.5966 54.332C68.0316 56.0322 66.7923 57.8961 66.3219 60.2237C65.9419 62.0876 64.7388 63.2241 62.9387 63.8333C62.7849 63.5696 62.8301 63.3605 62.8301 63.1696C62.8663 62.4513 62.6673 61.833 62.2511 61.2329C61.5003 60.1237 60.9666 58.8963 60.9847 57.5234C61.0028 55.8322 60.2158 54.6139 58.886 53.6774C57.7824 52.8955 56.7421 52.0317 55.4214 51.5953C55.4575 51.2043 55.738 50.9679 55.9189 50.6952C56.733 49.4677 56.9502 48.1584 56.5159 46.7401C55.9641 44.9489 55.6747 43.0941 54.9148 41.3575C54.4806 40.3574 54.6163 39.2663 54.7791 38.1935C54.8243 37.9207 54.951 37.7843 55.2133 37.757C55.9551 37.6752 56.6969 37.6479 57.4296 37.4752C57.6648 37.4206 57.8186 37.5116 57.8638 37.7661C57.8728 37.8207 57.8819 37.8752 57.8909 37.9389C58.0266 39.9301 59.2207 41.0484 60.9756 41.6939C62.8301 42.3849 64.7026 43.0396 66.6114 43.5669C67.1903 43.7306 67.7873 43.8579 68.3301 44.1306C69.5875 44.758 70.3293 45.8218 70.7725 47.1219C71.252 48.4403 71.3244 49.8587 71.4781 51.2589Z" fill="#13751E"/>
<path d="M62.1149 62.5763C62.2145 63.5686 61.9791 64.2696 60.9473 64.6884C59.6529 65.2164 58.7569 66.2269 58.2047 67.547C57.6798 68.8215 56.8289 69.8775 55.8152 70.797C55.2812 71.2795 54.7471 71.762 54.2222 72.2536C53.5976 72.8454 52.8826 73.1367 52.2309 73.0001C50.4478 72.8271 48.8819 72.6451 47.2979 72.5904C46.7096 72.5722 46.3566 72.2536 46.0851 71.762C45.4696 70.6149 44.845 69.477 44.2024 68.3481C43.3697 66.8824 42.4102 65.5259 40.9711 64.57C40.428 64.215 40.2108 63.6414 40.0841 63.0315C39.9754 62.4943 39.9121 61.9481 39.8216 61.411C39.6677 60.5279 39.4867 59.6449 39.0069 58.871C38.6992 58.3703 38.8169 57.9424 39.1608 57.5237C39.8397 56.7134 40.6814 56.1217 41.7404 56.1399C43.8041 56.1945 45.714 55.7393 47.5695 54.8472C48.4293 54.4284 49.4069 54.3829 50.3482 54.2918C51.896 54.1371 53.2265 53.5726 54.2855 52.3891C54.7924 51.8338 55.5074 52.0159 56.0053 52.2799C57.2815 52.9445 58.4582 53.7729 59.4629 54.829C60.0512 55.448 60.2503 56.2309 60.2684 57.0594C60.2865 58.2702 60.5852 59.3991 61.1374 60.4642C61.3365 60.8466 61.5537 61.2198 61.7981 61.584C62.0063 61.9117 62.0787 62.2303 62.1149 62.5763Z" fill="#13751E"/>
<path d="M41.9194 51.3233C41.7382 51.2146 41.5388 51.3142 41.3576 51.3142C41.1854 51.3142 40.9951 51.3505 40.9135 51.1421C40.8411 50.9609 40.9498 50.8069 41.0585 50.671C41.4845 50.1455 42.0372 49.8918 42.7078 49.8737C42.9344 49.8647 43.17 49.91 43.3421 49.6925C43.8949 48.9859 44.5745 48.3517 44.9461 47.5725C45.2904 46.8478 45.6257 46.5941 46.396 46.7934C46.9578 46.9384 47.5831 46.6122 48.154 46.9746C48.3262 47.0833 48.5437 46.9021 48.6524 46.73C48.7611 46.5578 48.8065 46.3585 48.9061 46.1864C49.1055 45.8421 49.2233 45.8331 49.477 46.132C49.8576 46.585 50.0389 47.1286 50.2382 47.6722C50.347 47.9712 50.347 48.3607 50.7366 48.4966C50.7819 48.4151 50.8363 48.3607 50.8272 48.3245C50.6007 47.4638 50.3923 46.585 49.7942 45.8874C49.4317 45.4707 49.3773 45.0539 49.5405 44.5375C49.7489 43.8762 49.8757 43.1967 49.8757 42.4991C49.8757 42.182 50.0207 41.6927 49.5767 41.6293C49.1327 41.5659 49.1327 42.0823 49.0511 42.3904C48.8336 43.2239 48.6977 44.0755 48.8065 44.9452C48.8699 45.4707 48.743 46.0596 48.2537 46.1864C47.3475 46.431 46.3688 46.5488 45.4626 46.1592C44.8192 45.8874 44.6017 45.2985 44.8917 44.7187C45.0367 44.4288 45.0458 44.2385 44.7286 44.1026C44.3571 43.9486 44.1124 44.0483 44.0218 44.4288C43.9765 44.6281 43.9583 44.8093 43.8224 44.9814C43.0703 45.9146 43.1156 46.0867 44.1758 46.576C44.2302 46.6031 44.2846 46.6122 44.3389 46.6394C44.8011 46.8659 44.8736 47.0199 44.5927 47.4366C44.2121 47.9802 43.759 48.4604 43.3693 48.9949C43.1156 49.3392 42.8165 49.5476 42.3816 49.5929C41.7926 49.6563 41.2851 49.9371 40.8954 50.3901C40.6508 50.671 40.3698 50.9881 40.5964 51.3867C40.8229 51.7944 41.2488 51.6675 41.6113 51.6132C41.7201 51.5679 41.8832 51.5498 41.9194 51.3233ZM56.0469 47.3279C56.3006 48.1796 56.0922 49.0402 55.6391 49.8194C55.041 50.8431 54.307 51.7582 53.4461 52.5735C52.5671 53.4161 51.4616 53.7332 50.3017 53.8419C48.7883 53.9778 47.3747 54.3855 46.0063 55.0378C45.1092 55.4726 44.1668 55.672 43.17 55.6538C42.7078 55.6448 42.2547 55.6901 41.7926 55.7263C40.7414 55.8079 39.8624 56.2518 39.1374 57.0037C39.0015 57.1396 38.9018 57.339 38.6209 57.3933C38.4125 57.1668 38.4034 56.8407 38.3581 56.5508C38.1044 54.9472 37.461 53.5429 36.4098 52.3017C35.6848 51.4501 35.0414 50.526 34.3437 49.6472C33.2744 48.3064 32.5766 46.7572 31.906 45.1989C31.6614 44.6372 31.7429 44.3654 32.3229 44.0845C34.5431 43.0064 36.7088 41.7833 39.228 41.5115C40.3064 41.4028 40.9951 40.7687 41.4391 39.8083C42.001 38.5853 42.1732 37.2807 42.3 35.9579C42.3272 35.659 42.2819 35.3419 42.4269 35.0067C42.7259 35.1154 42.7803 35.2875 42.8256 35.4506C42.9162 35.7767 43.0703 35.9579 43.4418 35.822C43.5324 35.7858 43.6774 35.822 43.7771 35.8764C44.7195 36.3203 45.7345 36.3022 46.7403 36.3203C48.4983 36.3566 50.2292 36.6012 51.9237 37.1266C52.549 37.3259 53.2015 37.4528 53.872 37.6249C53.9355 38.4131 54.0352 39.2194 54.0352 40.0348C54.0442 40.7324 54.2526 41.4028 54.5426 42.028C55.3129 43.7221 55.5213 45.5613 56.0469 47.3279Z" fill="#13751E"/>
<path d="M38.0327 57.4296C38.0778 57.7291 38.132 57.9923 37.7167 58.0831C37.2563 58.1829 37.2292 58.5641 37.4007 58.8999C37.6896 59.4808 37.5091 59.9618 37.1931 60.4338C36.3535 61.7317 35.2792 62.8027 33.9791 63.6378C33.4014 64.0099 32.7694 64.1642 32.0923 64.137C30.5485 64.0643 29.0048 63.9645 27.461 63.8919C26.5582 63.8465 25.8901 63.4199 25.3755 62.6938C24.8519 61.9405 24.3373 61.169 23.7956 60.4338C23.4074 59.8983 22.9922 59.381 22.5498 58.8908C21.963 58.2555 21.3671 57.6383 21.1956 56.7398C21.1685 56.6127 21.0602 56.4856 20.9609 56.3949C19.6699 55.2694 19.2456 53.7809 19.2095 52.1381C19.2004 51.7659 19.2095 51.3847 19.2095 50.9491C19.1553 48.9432 19.4442 46.9283 20.2477 45.0132C20.672 44.0057 20.5546 43.0345 20.04 42.1088C19.8053 41.6912 19.6699 41.2102 19.2907 40.8653C19.1192 40.711 19.2636 40.5476 19.4713 40.5295C19.6518 40.5113 19.8143 40.5839 19.9498 40.6838C20.4463 41.0287 21.006 41.0831 21.5928 41.0559C22.5949 41.0196 23.597 41.1285 24.5991 41.2193C25.1408 41.2647 25.6735 41.3917 26.179 41.6005C26.9193 41.9 27.6686 42.2086 28.3999 42.5353C29.8263 43.1707 30.9096 44.2417 31.4874 45.6485C32.5618 48.2534 34.1868 50.468 35.9743 52.5737C37.175 53.9987 37.7528 55.6415 38.0327 57.4296Z" fill="#145A1C"/>
<path d="M43.0195 29.6666C43.2557 30.9381 43.0922 32.1461 42.4562 33.2633C42.0111 34.0444 41.8112 34.8527 41.8021 35.7337C41.784 36.8963 41.5932 38.0225 41.2389 39.1306C40.8392 40.3749 40.0942 41.147 38.7043 41.2378C37.7231 41.3014 36.7874 41.6283 35.8789 42.0189C34.4254 42.6546 32.9628 43.2723 31.6091 44.1079C31.3003 44.2986 31.1458 44.1896 30.9641 43.9807C29.2835 42.037 26.9941 41.2741 24.6049 40.7836C23.6782 40.5929 22.7152 40.6292 21.7614 40.5929C20.9256 40.5566 20.0807 40.5838 19.6446 39.6483C19.572 39.4848 19.3993 39.5575 19.2631 39.6211C19.0541 39.7119 18.9179 39.9299 18.5999 39.948C18.4818 39.6029 18.6271 39.3668 18.7452 39.0943C19.0541 38.3858 19.3448 37.6683 19.363 36.86C19.3721 36.1061 19.1359 35.5067 18.509 35.0707C18.4364 35.0253 18.3728 34.9617 18.3001 34.9163C16.8102 34.0171 16.5195 32.682 16.9011 31.0925C16.9737 30.7837 17.0555 30.4749 17.1827 30.1843C17.3371 29.821 17.4098 29.4577 17.2372 29.0944C17.0646 28.7583 17.1827 28.4859 17.3462 28.2043C18.0003 27.0962 18.9088 26.3696 20.2533 26.3151C20.6258 26.306 20.9982 26.2334 21.3707 26.2152C22.4155 26.1607 23.3421 25.8156 24.187 25.2071C24.7502 24.8074 25.3044 24.3896 25.8131 23.9264C26.7307 23.109 27.7391 22.4732 28.8928 22.0554C30.1465 21.6013 31.2912 20.9201 32.4177 20.2298C32.9173 19.921 33.3352 19.5486 33.5896 18.9946C33.8258 18.495 34.1892 18.4587 34.4254 18.9492C34.6252 19.3669 34.8705 19.4124 35.243 19.376C36.206 19.2943 36.9782 19.6758 37.6323 20.366C38.1501 20.911 38.6316 21.4923 39.0313 22.128C39.967 23.6176 40.9028 25.1071 41.8203 26.6058C42.3836 27.5685 42.8196 28.5676 43.0195 29.6666ZM31.382 30.5476C31.4456 30.1389 31.2003 29.8482 31.1549 29.5122C31.1095 29.167 31.1095 28.8219 31.0731 28.4858C31.055 28.3405 30.9641 28.2134 30.7915 28.2225C30.6643 28.2315 30.5826 28.3314 30.5644 28.4495C30.5371 28.5948 30.5281 28.7311 30.5281 28.8764C30.519 29.5667 30.1283 29.9936 29.556 30.2842C29.1835 30.4658 28.7838 30.484 28.375 30.4386C28.1479 30.4113 27.8753 30.3296 27.7572 30.593C27.6119 30.9018 27.8935 31.0653 28.0661 31.2288C28.4477 31.5739 28.8656 31.8918 29.2471 32.2369C29.4742 32.4458 29.8285 32.6366 29.765 32.9817C29.6832 33.3904 29.2562 33.3904 28.9292 33.4631C28.3932 33.5812 27.8481 33.6357 27.3212 33.7719C26.876 33.89 26.8306 34.1261 27.1667 34.444C27.4938 34.7437 28.0025 34.9617 27.5301 35.5248C27.4938 35.5702 27.521 35.6883 27.5483 35.7701C27.7209 36.3059 28.9292 37.0598 29.6014 37.0416C29.5378 36.7691 29.2653 36.751 29.0836 36.642C28.7838 36.4694 28.484 36.2969 28.2387 36.0516C28.057 35.8791 27.9299 35.7065 28.1297 35.4613C28.3932 35.1434 28.2387 34.88 28.0025 34.6257C27.8935 34.5076 27.7209 34.4077 27.7481 34.1897C27.8844 34.0262 28.0934 34.0353 28.2841 33.999C28.6203 33.9354 28.9655 33.89 29.3016 33.7901C30.3827 33.4813 30.5371 32.9272 29.7468 32.1461C29.4833 31.8827 29.1835 31.6557 28.911 31.4014C28.7838 31.2742 28.5385 31.1924 28.6748 30.8927C29.4924 30.8927 30.1738 30.4931 30.7279 29.9481C31.0005 30.1116 30.955 30.4931 31.382 30.5476Z" fill="#13751E"/>
<path d="M60.7819 26.8542C60.945 27.1725 60.9903 27.4453 60.6822 27.6999C60.6188 27.7545 60.5372 27.8727 60.5644 27.9182C60.9178 28.6366 60.3197 29.2641 60.3831 29.9734C60.501 31.1829 60.356 32.3923 60.0388 33.5745C59.8032 34.4566 59.3682 35.2296 58.7429 35.8934C58.1629 36.5027 57.4651 36.8665 56.6495 36.9938C55.1271 37.2302 53.6137 37.2484 52.1275 36.7392C50.1066 36.0571 48.0133 35.8934 45.9109 35.8844C44.8868 35.8753 44.0078 35.557 43.2013 34.9477C42.5125 34.4202 42.44 34.2747 42.8478 33.5381C43.745 31.9195 43.8084 30.2462 43.2556 28.5184C43.0019 27.7181 42.6394 26.9633 42.1954 26.2449C41.2891 24.7717 40.3829 23.2985 39.4676 21.8344C39.0508 21.1706 38.5614 20.5704 38.0358 19.9975C37.5012 19.4155 36.8215 19.0517 36.0693 18.7152C36.305 18.4151 36.5134 18.4606 36.7037 18.4606C37.9905 18.4606 39.1324 18.0514 40.1292 17.2329C41.3435 16.2326 42.875 15.9416 44.2615 15.3232C44.4609 15.2323 44.5696 15.3232 44.6875 15.4778C45.494 16.5418 46.1193 16.7419 47.3427 16.269C48.0133 16.0144 48.6839 15.7234 49.3092 15.3778C50.0794 14.9413 50.7501 14.9504 51.4297 15.5597C52.1819 16.2326 53.0337 16.3781 53.9852 15.9143C54.5833 15.6233 54.6468 15.6688 55.0455 16.2326C55.3355 16.6509 55.698 16.9601 56.1692 17.142C56.7855 17.3784 57.2476 17.7968 57.6011 18.3424C57.8639 18.7607 58.2445 19.079 58.5616 19.4427C59.4135 20.4613 60.075 21.5343 60.2653 22.9439C60.4103 24.026 60.5372 25.09 60.5825 26.1812C60.5916 26.4177 60.6731 26.6541 60.7819 26.8542ZM51.6291 30.7464C52.3903 29.9097 51.9644 28.8094 50.8679 28.6093C50.6685 28.5729 50.4691 28.5547 50.2698 28.5456C49.7441 28.5093 49.3454 28.3001 49.0826 27.809C48.9557 27.5544 48.7745 27.318 48.5933 27.0997C48.4301 26.8997 48.2036 26.6905 47.9317 26.8815C47.678 27.0634 47.7595 27.3453 47.8683 27.5908C48.0133 27.9454 48.2851 28.2092 48.5933 28.4274C48.847 28.6093 49.1642 28.7184 49.291 29.1367C48.4211 29.7369 48.3848 29.837 48.7926 30.7645C48.8832 30.9828 48.992 31.1738 48.9195 31.4193C48.8108 31.8467 49.0554 32.0377 49.3998 32.2104C49.871 32.4378 49.871 32.4651 49.436 32.8652C49.3454 32.947 49.2548 33.0016 49.3092 33.1289C49.3726 33.2744 49.5085 33.3381 49.6626 33.3108C49.8529 33.2835 49.9526 33.138 50.0341 32.9834C50.451 32.1559 51.0038 31.4284 51.6291 30.7464Z" fill="#13751E"/>
<path d="M67.9028 23.3301C68.0115 23.9838 68.0024 24.5467 67.6219 25.1277C67.2142 25.7451 66.7884 26.2989 66.0726 26.5713C65.6921 26.7165 65.3115 26.8527 64.9038 26.8346C64.0522 26.7983 63.2549 27.0161 62.4485 27.2431C61.8052 27.4247 61.769 27.3884 61.4337 26.8073C61.1076 26.2444 61.1891 25.6362 61.1891 24.928C61.1982 24.465 61.2435 23.8839 60.8992 23.3664C60.8448 23.2757 60.8357 23.1485 60.8357 23.0305C60.8176 21.2874 59.8935 20.0073 58.7156 18.8452C58.5979 18.7271 58.462 18.6091 58.3714 18.4639C57.8459 17.6104 57.1663 16.9295 56.1969 16.5845C55.8617 16.4665 55.6714 16.1578 55.4721 15.8764C55.0009 15.2227 54.6838 15.0774 54.0224 15.4315C53.1254 15.9036 52.3734 15.7674 51.6577 15.1228C50.9419 14.4873 50.1808 14.451 49.3564 14.914C48.7765 15.2318 48.1695 15.4951 47.5715 15.7765C47.2091 15.949 46.8285 16.0852 46.4208 16.1124C45.995 16.1397 45.6054 16.0489 45.4061 15.6222C45.2067 15.2045 45.2067 14.8232 45.5329 14.4238C46.8285 12.8803 47.3903 11.0736 47.3812 9.07629C47.3812 8.52248 47.3178 7.98682 47.1456 7.46025C47.0822 7.26959 47.0188 7.07894 46.9916 6.87921C46.8738 6.07119 47.1003 5.82606 47.9067 5.88053C48.9396 5.95316 49.9725 6.05302 50.9963 6.14381C51.404 6.18013 51.7845 6.32541 52.1379 6.52514C53.1254 7.06987 54.1674 7.47841 55.2274 7.85064C56.2875 8.23196 57.2932 8.72222 58.2536 9.31235C59.3046 9.95695 60.3646 10.5925 61.4156 11.2462C63.9978 12.835 65.7827 15.023 66.5981 17.9827C67.0783 19.744 67.6129 21.4962 67.9028 23.3301Z" fill="#429C4D"/>
<path d="M44.7626 2.52673C46.3228 2.91756 47.0666 4.23546 46.5496 5.77151C46.3409 6.38048 46.3681 6.93491 46.5314 7.54388C47.1845 10.007 46.6403 12.2156 45.0801 14.1971C44.7354 14.6333 44.2728 14.9333 43.7557 15.1423C43.2478 15.3423 42.7398 15.5422 42.2228 15.724C41.352 16.0421 40.5265 16.4511 39.8099 17.0419C38.8303 17.8509 37.7055 18.1962 36.4447 18.1326C35.7825 18.0963 35.1203 18.1326 34.4672 18.0236C34.0863 17.9599 33.8323 17.8236 33.8504 17.36C33.8958 16.024 33.2608 14.9878 32.3265 14.0971C31.7188 13.5154 31.0657 12.9973 30.3944 12.5065C29.9227 12.1702 29.4601 11.8248 28.9975 11.4885C28.1902 10.9068 27.8092 10.107 27.7911 9.11629C27.782 8.53459 27.8002 7.96196 27.909 7.39844C28.1358 6.23505 28.2991 5.06256 28.036 3.88099C28.0088 3.74465 27.9635 3.57195 28.0723 3.46288C28.3444 3.1993 28.0814 2.99934 27.9816 2.71758C28.6982 2.84483 29.2787 3.02663 29.8139 3.2993C31.7006 4.26274 33.6509 4.19911 35.6192 3.63559C37.4243 3.11751 39.2385 2.69033 41.098 2.45401C42.1049 2.32676 43.1117 2.32676 44.1186 2.38129C44.3091 2.42674 44.5358 2.47219 44.7626 2.52673Z" fill="#13751E"/>
<path d="M32.5182 15.0357C33.4316 16.1395 33.4497 17.397 33.097 18.6997C32.9613 19.1973 32.5635 19.5049 32.1384 19.7673C31.0352 20.4458 29.9319 21.1153 28.7202 21.5676C27.5175 22.02 26.4594 22.6713 25.519 23.5398C25.1392 23.8927 24.7232 24.2003 24.3253 24.526C23.3306 25.3221 22.2002 25.7654 20.9161 25.7744C20.7985 25.7744 20.69 25.7925 20.5725 25.7925C19.0171 25.8468 17.8415 26.5253 17.0547 27.9005C16.7111 28.5066 16.6749 28.4975 16.0419 28.2714C15.5265 28.0904 15.0291 27.9185 14.7488 27.3576C14.5679 26.9958 14.1429 26.8329 13.7993 26.6429C12.8407 26.1001 12.3976 25.3402 12.6327 24.2183C12.7503 23.6574 12.7865 23.0784 12.8136 22.5085C12.8588 21.5133 12.3976 20.7986 11.4843 20.4006C11.0683 20.2196 10.6252 20.0749 10.2002 19.903C9.30491 19.5501 9.04266 19.1611 9.08787 18.2022C9.09692 17.9488 9.14213 17.6865 9.18734 17.4332C9.35916 16.3204 9.68471 15.2529 10.0736 14.2034C10.381 13.3621 10.9417 12.8011 11.8008 12.5478C12.0178 12.4845 12.2348 12.4121 12.4519 12.3307C13.6094 11.9417 14.2333 11.1275 14.3599 9.92423C14.4232 9.32714 14.4775 8.721 14.5408 8.12391C14.5951 7.63537 14.6855 7.14684 14.8844 6.70355C15.7164 4.85798 16.9734 3.3562 18.5649 2.11677C18.9538 1.80917 19.433 1.66441 19.9033 1.55584C20.8799 1.32967 21.8746 1.16683 23.0593 1.13064C23.8008 1.06731 24.6418 1.28444 25.3924 1.83631C25.6456 2.02629 25.9259 2.22531 26.2153 2.2796C26.8935 2.4153 27.1829 2.75909 27.3457 3.44666C27.5808 4.45087 27.6622 5.41888 27.4813 6.42308C27.3366 7.24635 27.201 8.06059 27.21 8.90195C27.2191 10.1685 27.6893 11.1818 28.7292 11.9236C29.3442 12.3579 29.941 12.7921 30.5469 13.2354C31.2703 13.7692 31.9395 14.3482 32.5182 15.0357Z" fill="#13751E"/>
<path d="M73.5791 39.2308C73.6788 40.0651 73.6698 40.9175 73.3707 41.7065C72.5914 43.8012 72.5914 45.9323 72.9176 48.0905C72.972 48.4351 72.972 48.7797 72.9901 49.1243C73.0626 50.2397 72.7364 51.21 72.0386 52.0896C71.2865 53.0327 70.5525 53.9939 69.7279 54.8826C68.3414 56.3879 67.2631 58.0656 66.8462 60.1059C66.4566 62.0374 65.2876 63.3161 63.5115 64.1141C62.6506 64.495 61.8079 64.9574 60.9742 65.3927C60.0227 65.8824 59.3068 66.6169 58.89 67.6144C57.9204 69.9722 56.0265 71.541 54.1416 73.1098C53.5616 73.5995 52.8458 73.7083 52.1027 73.6176C50.535 73.4181 48.9582 73.2821 47.3724 73.2095C46.5025 73.1642 45.9316 72.7652 45.5329 72.0125C44.8623 70.743 44.1555 69.4825 43.4305 68.2401C42.7147 67.0069 41.8538 65.9005 40.6486 65.1025C39.9508 64.64 39.6518 63.9327 39.5068 63.1438C39.3709 62.4092 39.2712 61.6657 39.1262 60.9311C39.0175 60.3961 38.9903 60.3961 38.3106 60.4958C38.2381 59.9699 38.5191 59.4077 38.1113 58.9089C38.2744 59.5528 38.0388 60.1059 37.7126 60.6228C36.8154 62.0284 35.6555 63.171 34.251 64.0597C33.6982 64.4043 33.1001 64.6038 32.4567 64.5766C30.735 64.504 29.0132 64.4315 27.2915 64.3226C26.4125 64.2682 25.7057 63.8511 25.1801 63.1347C24.9445 62.8083 24.6998 62.4909 24.4733 62.1463C23.4584 60.6047 22.235 59.2354 21.0207 57.8479C20.2777 56.9955 19.6977 56.9502 18.6919 57.2676C16.6167 57.9296 14.6594 58.782 12.8923 60.0696C11.7686 60.8858 10.5453 61.5115 9.29478 62.1009C8.90512 62.2823 8.59702 62.2823 8.24361 62.0828C6.5853 61.176 5.0901 60.0606 3.92113 58.5643C2.72497 57.0318 1.82786 55.327 1.22978 53.477C0.894493 52.4251 0.767628 51.346 0.77669 50.2397C0.77669 49.9586 0.81293 49.6684 0.713251 49.3873C0.522953 48.8613 0.767628 48.3988 1.3204 48.2991C1.58319 48.2537 1.8188 48.1812 2.04534 48.0633C5.09917 46.4582 8.25267 45.0436 11.379 43.5927C12.1039 43.2571 12.847 42.9488 13.6172 42.7221C14.0522 42.5951 14.4781 42.3775 14.8678 42.1508C15.5384 41.7609 16.1999 41.3619 16.9248 41.0717C17.8219 40.709 18.2388 40.0016 18.1935 39.0404C18.1844 38.7593 18.2569 38.5417 18.4381 38.3331C18.8822 37.8525 18.9184 37.2449 18.9275 36.6373C18.9275 36.1748 18.7372 35.803 18.3928 35.5128C18.2841 35.4222 18.1663 35.3315 18.0485 35.2499C16.4173 34.0347 15.9914 32.8649 16.4627 30.8971C16.8614 29.2648 16.8614 29.2648 15.2574 28.5666C14.9131 28.4215 14.5687 28.2583 14.3694 27.9137C14.2063 27.6235 13.9344 27.4603 13.6716 27.288C13.3635 27.0794 13.0464 26.8708 12.7564 26.635C12.1221 26.1272 11.8502 25.4652 11.9589 24.6491C12.0224 24.1685 12.0858 23.6788 12.1402 23.1891C12.3214 21.711 12.0224 21.2032 10.645 20.6954C10.3731 20.5956 10.1013 20.4959 9.82942 20.4052C8.89606 20.0787 8.40672 19.3986 8.45202 18.4373C8.52452 16.6328 8.99573 14.9189 9.81129 13.3047C10.1466 12.6337 10.7628 12.1893 11.4877 12.0352C13.146 11.6815 13.7894 10.6568 13.8166 9.00638C13.871 5.81435 15.6924 3.51103 18.0757 1.74273C19.9152 0.382492 22.2169 0.337151 24.4642 0.69988C24.8629 0.763358 25.2163 0.990055 25.5426 1.2349C26.0863 1.64297 26.7025 1.84247 27.3731 1.94222C28.2883 2.07825 29.1945 2.29589 30.0191 2.71303C31.7771 3.60171 33.5804 3.52009 35.3927 3.02134C36.8064 2.6314 38.22 2.24147 39.6699 2.0057C41.147 1.76992 42.6331 1.6067 44.1374 1.74273C44.663 1.78807 45.1614 1.90595 45.6326 2.12359C46.2578 2.41377 46.7834 2.84904 46.9556 3.52009C47.1096 4.11859 47.5084 4.54481 47.8074 5.04356C47.9433 5.2612 48.1427 5.234 48.333 5.25213C49.1304 5.34281 49.9369 5.42442 50.7344 5.49697C51.3506 5.55138 51.9214 5.72368 52.4561 6.02293C53.2626 6.46728 54.1144 6.82095 54.9843 7.1202C56.407 7.60988 57.7391 8.28092 59.0078 9.07893C59.9049 9.65022 60.8292 10.1853 61.7354 10.7475C64.4086 12.407 66.2391 14.7012 67.1181 17.7663C67.8702 20.3961 68.5589 23.0349 68.7583 25.7826C68.8126 26.5262 68.8217 27.2789 68.8308 28.0225C68.8398 28.8114 69.1298 29.4734 69.6826 30.0266C72.2471 32.5747 73.1895 35.794 73.5791 39.2308ZM72.6639 41.9966C72.9358 41.2258 73.0264 40.4369 72.9992 39.6208C72.9358 37.4535 72.2471 35.4403 71.3952 33.4816C70.9512 32.4659 70.3894 31.5319 69.5648 30.7883C68.568 29.8996 68.1693 28.7842 68.1964 27.4784C68.2055 26.8799 68.1964 26.2814 68.1964 25.6829C68.1239 25.6466 68.0514 25.6013 67.979 25.5559C67.0637 26.9071 65.7044 27.2426 64.2274 27.3968C63.3937 27.4784 62.6144 27.8139 61.8169 28.0588C61.536 28.1494 61.2732 28.3036 61.2732 28.6482C61.2913 29.6457 60.8564 30.5888 60.9108 31.6045C60.9561 32.3118 60.7658 33.0372 60.5755 33.7264C60.2764 34.8055 59.769 35.803 58.8809 36.4741C58.2103 36.9819 58.1469 37.5532 58.2738 38.2787C58.4731 39.3759 59.0531 40.1739 60.0136 40.718C60.6208 41.0536 61.2642 41.2984 61.9166 41.5251C63.738 42.1417 65.5685 42.7674 67.4443 43.2209C68.6405 43.511 69.6101 44.1458 70.326 45.1524C71.3681 46.6305 71.794 48.3172 71.8212 50.1037C71.8302 50.3938 71.7487 50.7022 71.9389 51.0286C72.2833 50.684 72.3195 50.3122 72.3467 49.9404C72.4192 49.0427 72.3558 48.154 72.2289 47.2743C71.9752 45.4788 72.0568 43.7196 72.6639 41.9966ZM70.9693 52.5158C71.3137 52.1259 71.4496 51.6634 71.3952 51.1556C71.2412 49.7591 71.1687 48.3535 70.7066 47.0023C70.2625 45.7055 69.5195 44.6446 68.2599 44.0189C67.7162 43.7468 67.1271 43.6199 66.5381 43.4566C64.6261 42.9307 62.7503 42.2868 60.8926 41.5886C59.1346 40.9357 57.9475 39.8293 57.8026 37.8434C57.8026 37.789 57.7844 37.7255 57.7754 37.6711C57.7301 37.4263 57.576 37.3265 57.3404 37.3809C56.6064 37.5532 55.8633 37.5713 55.1203 37.662C54.8575 37.6892 54.7216 37.8253 54.6853 38.0973C54.5131 39.1583 54.3863 40.2465 54.8212 41.2531C55.5734 42.9851 55.8724 44.835 56.4252 46.6214C56.8601 48.0452 56.6517 49.3419 55.8271 50.5661C55.6459 50.8382 55.3649 51.083 55.3287 51.4639C56.6517 51.9082 57.6938 52.7697 58.7994 53.5405C60.1314 54.4745 60.9108 55.6988 60.9017 57.3764C60.8836 58.7457 61.4182 59.9699 62.1703 61.0762C62.5872 61.6838 62.7865 62.2914 62.7503 63.0077C62.7412 63.2072 62.705 63.4068 62.859 63.6697C64.6623 63.0622 65.8676 61.9286 66.2482 60.0696C66.7194 57.7572 67.9608 55.8892 69.5285 54.1934C70.0179 53.6675 70.48 53.078 70.9693 52.5158ZM67.5893 25.1025C67.9699 24.5312 67.9699 23.969 67.8702 23.307C67.5802 21.4843 67.0365 19.725 66.5563 17.9477C65.7498 14.9824 63.9555 12.7969 61.3729 11.219C60.3217 10.5752 59.2615 9.93134 58.2103 9.2875C57.2498 8.69806 56.2439 8.20837 55.1837 7.8275C54.1235 7.44664 53.0814 7.04765 52.0936 6.50355C51.7402 6.31312 51.3596 6.15897 50.9518 6.12269C49.9188 6.03201 48.8948 5.92318 47.8618 5.8597C47.0462 5.80529 46.8287 6.0592 46.9465 6.85721C46.9737 7.05671 47.0371 7.24715 47.1006 7.43759C47.2728 7.96355 47.3362 8.49855 47.3362 9.05172C47.3452 11.0558 46.7834 12.8604 45.4876 14.3929C45.1614 14.7829 45.1523 15.1728 45.3607 15.5899C45.5691 16.0071 45.9497 16.0977 46.3756 16.0796C46.7834 16.0524 47.164 15.9164 47.5265 15.7441C48.1246 15.463 48.7317 15.2 49.3117 14.8826C50.1453 14.4201 50.8975 14.4564 51.6134 15.0912C52.3292 15.735 53.0814 15.871 53.9785 15.3995C54.6491 15.0458 54.9572 15.1909 55.4284 15.8438C55.6368 16.125 55.818 16.4333 56.1533 16.5512C57.1229 16.9048 57.8026 17.5759 58.3281 18.4283C58.4188 18.5734 58.5547 18.6913 58.6725 18.8092C59.8505 19.9608 60.7748 21.2395 60.7929 22.9896C60.7929 23.0984 60.802 23.2345 60.8564 23.3251C61.2007 23.842 61.1554 24.4224 61.1464 24.8849C61.1554 25.6013 61.0648 26.1998 61.391 26.762C61.7263 27.3424 61.7626 27.3786 62.4059 27.1973C63.2124 26.9706 64.0099 26.762 64.8617 26.7892C65.2695 26.8073 65.6591 26.6713 66.0307 26.5262C66.7466 26.2723 67.1815 25.7191 67.5893 25.1025ZM60.9833 64.7035C62.0163 64.2864 62.2519 63.5881 62.1522 62.5997C62.116 62.246 62.0525 61.9286 61.8441 61.6294C61.5995 61.2757 61.382 60.8948 61.1826 60.514C60.6208 59.453 60.3308 58.3195 60.3127 57.1225C60.2946 56.2973 60.1043 55.5174 59.5062 54.9007C58.5003 53.8488 57.3132 53.0236 56.0446 52.3616C55.5462 52.0987 54.8303 51.9173 54.3228 52.4705C53.2535 53.6403 51.9305 54.2116 50.381 54.3657C49.4385 54.4564 48.4689 54.5108 47.599 54.9189C45.7504 55.8076 43.8293 56.261 41.7632 56.2066C40.7029 56.1794 39.8602 56.7779 39.1806 57.585C38.8362 58.0021 38.7094 58.4283 39.0265 58.927C39.5068 59.6978 39.688 60.5775 39.8421 61.4571C39.9327 61.9921 39.9961 62.5362 40.1049 63.0712C40.2317 63.6788 40.4492 64.241 40.9929 64.6038C42.4247 65.5559 43.3943 66.9071 44.228 68.3671C44.8714 69.4915 45.4966 70.6251 46.1128 71.7677C46.3756 72.2574 46.7381 72.5748 47.3271 72.5929C48.9039 72.6473 50.4806 72.8287 52.2658 73.001C52.9182 73.1279 53.6341 72.8468 54.2594 72.2574C54.785 71.7677 55.3196 71.2871 55.8543 70.8064C56.8692 69.8815 57.7119 68.8386 58.2466 67.5691C58.7903 66.2451 59.6784 65.2386 60.9833 64.7035ZM60.6933 27.7142C60.9923 27.4603 60.9561 27.1882 60.7929 26.8708C60.6933 26.6713 60.6027 26.4355 60.5936 26.2179C60.5573 25.1297 60.4305 24.0687 60.2764 22.9896C60.0861 21.584 59.4156 20.514 58.5728 19.4983C58.2647 19.1266 57.8841 18.8092 57.6123 18.4011C57.2588 17.8479 56.7967 17.4399 56.1805 17.2041C55.7093 17.0227 55.3468 16.7144 55.0568 16.2973C54.6672 15.735 54.5947 15.6897 53.9966 15.9799C53.0451 16.4423 52.1933 16.2972 51.4412 15.6262C50.7525 15.0186 50.091 15.0096 49.3207 15.4448C48.6955 15.7985 48.0249 16.0796 47.3543 16.3335C46.1219 16.8051 45.4966 16.6056 44.6992 15.5446C44.5814 15.3814 44.4727 15.2997 44.2733 15.3904C42.8868 16.0071 41.3554 16.2973 40.1411 17.2948C39.1443 18.1109 38.0116 18.519 36.7158 18.519C36.5255 18.519 36.308 18.4736 36.0814 18.7729C36.8336 19.1084 37.5132 19.4621 38.0478 20.0515C38.5734 20.6228 39.0718 21.2213 39.4796 21.8833C40.3949 23.3433 41.3101 24.8123 42.2072 26.2814C42.6422 26.9978 43.0047 27.7504 43.2674 28.5484C43.8202 30.2714 43.7568 31.949 42.8597 33.5541C42.4428 34.2977 42.5244 34.4428 43.2131 34.9597C44.0196 35.5673 44.8895 35.8846 45.9225 35.8937C48.0249 35.9028 50.1182 36.066 52.1389 36.7461C53.6251 37.2449 55.1293 37.2358 56.6608 37.0001C57.4854 36.8731 58.1831 36.5104 58.754 35.9028C59.3793 35.2408 59.8143 34.47 60.0499 33.5904C60.367 32.4115 60.512 31.2054 60.3942 29.9994C60.3308 29.283 60.9198 28.6663 60.5755 27.9499C60.5483 27.8865 60.6298 27.7595 60.6933 27.7142ZM55.6187 49.877C56.0718 49.0971 56.2802 48.2356 56.0264 47.3832C55.5099 45.6239 55.2924 43.774 54.5131 42.0873C54.2232 41.4616 54.0147 40.7906 54.0057 40.0923C53.9966 39.2762 53.8969 38.4691 53.8426 37.6802C53.172 37.5079 52.5195 37.3809 51.8943 37.1814C50.2088 36.6555 48.478 36.4197 46.7109 36.3743C45.7051 36.3562 44.6992 36.3743 43.7477 35.93C43.648 35.8847 43.5121 35.8484 43.4124 35.8756C43.0409 36.0116 42.8868 35.8393 42.7962 35.5038C42.7509 35.3406 42.6965 35.1683 42.3975 35.0594C42.2525 35.3859 42.2978 35.7033 42.2706 36.0116C42.1528 37.3356 41.9716 38.6414 41.4098 39.8656C40.9748 40.8178 40.2771 41.4526 39.1987 41.5704C36.6795 41.8334 34.5047 43.0667 32.2936 44.1458C31.7136 44.4269 31.6321 44.699 31.8768 45.2612C32.5473 46.8209 33.2542 48.3626 34.3144 49.7137C35.0121 50.5933 35.6555 51.5183 36.3805 52.3707C37.4316 53.6131 38.0841 55.0186 38.3288 56.6237C38.3741 56.9139 38.3831 57.2404 38.5915 57.4671C38.8725 57.4127 38.9722 57.2132 39.1081 57.0771C39.8421 56.3245 40.7211 55.8801 41.7632 55.7985C42.2163 55.7622 42.6784 55.726 43.1406 55.726C44.1374 55.7441 45.0889 55.5355 45.9769 55.1093C47.3362 54.4473 48.7589 54.0483 50.2722 53.9123C51.4321 53.8035 52.5377 53.4861 53.4167 52.6428C54.2866 51.8176 55.0296 50.9017 55.6187 49.877ZM46.5387 5.68741C47.0553 4.15488 46.3213 2.83999 44.7536 2.45006C44.5361 2.39565 44.3005 2.34123 44.0739 2.33216C43.0681 2.27775 42.0622 2.27776 41.0564 2.40471C39.1987 2.64049 37.3863 3.0667 35.583 3.58359C33.6257 4.14582 31.6774 4.20928 29.7835 3.24804C29.2488 2.976 28.6689 2.78557 27.953 2.66768C28.0527 2.9488 28.3155 3.13923 28.0436 3.41128C27.9349 3.52009 27.9802 3.68333 28.0074 3.82842C28.2792 5.00729 28.1161 6.17709 27.8805 7.33783C27.7718 7.90913 27.7446 8.48042 27.7627 9.05172C27.7808 10.0402 28.1614 10.8291 28.9679 11.4185C29.4301 11.7541 29.8922 12.0986 30.3634 12.4342C31.0431 12.9239 31.6955 13.4408 32.2936 14.0211C33.227 14.9098 33.8613 15.9436 33.816 17.2766C33.7979 17.7391 34.0516 17.8751 34.4322 17.9386C35.0846 18.0474 35.7552 18.0112 36.4077 18.0474C37.6672 18.1109 38.7909 17.7663 39.7696 16.9592C40.4855 16.3698 41.3101 15.9617 42.18 15.6443C42.6966 15.463 43.204 15.2635 43.7115 15.064C44.228 14.8554 44.6901 14.5562 45.0345 14.1209C46.5931 12.144 47.1368 9.93135 46.4844 7.48293C46.3575 6.85722 46.3303 6.29498 46.5387 5.68741ZM42.4247 33.2095C43.059 32.0941 43.2221 30.888 42.9865 29.6185C42.7781 28.5212 42.3431 27.5237 41.7722 26.5897C40.8661 25.0844 39.9327 23.5972 38.9903 22.1191C38.5916 21.4843 38.1113 20.913 37.5948 20.3598C36.9423 19.6706 36.1721 19.2898 35.2115 19.3714C34.849 19.4077 34.5953 19.3623 34.3959 18.9452C34.1603 18.4555 33.7979 18.4918 33.5623 18.9905C33.2995 19.5346 32.8917 19.9155 32.3933 20.2238C31.2606 20.913 30.1278 21.5931 28.8773 22.0465C27.7265 22.4636 26.7115 23.0984 25.8054 23.9146C25.2888 24.3771 24.7361 24.7942 24.1833 25.1932C23.3496 25.7917 22.4162 26.1454 21.3741 26.1998C21.0026 26.2179 20.6311 26.2814 20.2595 26.2995C18.9184 26.3449 18.0122 27.0703 17.3598 28.1857C17.1967 28.4668 17.0788 28.7298 17.251 29.0744C17.4232 29.4281 17.3507 29.7999 17.1967 30.1626C17.0698 30.4528 16.9882 30.7611 16.9157 31.0694C16.5351 32.6473 16.8251 33.9894 18.3113 34.8871C18.3838 34.9325 18.4472 34.9869 18.5197 35.0413C19.1449 35.4766 19.3805 36.0751 19.3715 36.8277C19.3624 37.6348 19.0634 38.3422 18.7553 39.0585C18.6375 39.3306 18.4925 39.5664 18.6103 39.9109C18.9275 39.9019 19.0634 39.6843 19.2718 39.5845C19.4077 39.521 19.5799 39.4575 19.6524 39.6117C20.0874 40.5457 20.9301 40.5185 21.7638 40.5548C22.7153 40.5911 23.6849 40.5548 24.6001 40.7452C26.9834 41.2349 29.267 41.9967 30.9434 43.9373C31.1246 44.1549 31.2787 44.2637 31.5868 44.0642C32.937 43.2299 34.3959 42.6133 35.8458 41.9785C36.743 41.5886 37.6854 41.2621 38.664 41.1986C40.0414 41.1079 40.7936 40.3372 41.1923 39.0948C41.5457 37.9885 41.736 36.855 41.7541 35.7033C41.7813 34.7874 41.9807 33.9803 42.4247 33.2095ZM37.776 58.0565C38.2019 57.9658 38.1475 57.7028 38.0932 57.4036C37.8122 55.6171 37.2323 53.9758 36.0271 52.5521C34.2419 50.4392 32.6017 48.2265 31.5234 45.633C30.9434 44.2184 29.856 43.1574 28.4242 42.5226C27.6902 42.1961 26.9472 41.8878 26.195 41.5886C25.6876 41.38 25.1529 41.2621 24.6092 41.2077C23.6033 41.117 22.6065 41.0082 21.5916 41.0445C21.0026 41.0717 20.4408 41.0173 19.9424 40.6727C19.7974 40.5729 19.6433 40.4913 19.4621 40.5185C19.2446 40.5457 19.1087 40.6999 19.2809 40.8541C19.6615 41.1987 19.8065 41.6702 20.033 42.0964C20.5495 43.0214 20.6673 43.9917 20.2414 44.9982C19.4349 46.9116 19.1449 48.9248 19.1993 50.9289C19.1993 51.3641 19.1902 51.7359 19.1993 52.1168C19.2356 53.7582 19.6615 55.2453 20.9573 56.3698C21.066 56.4605 21.1748 56.5874 21.1929 56.7144C21.3651 57.6122 21.9632 58.2288 22.5522 58.8636C23.0053 59.3442 23.413 59.8701 23.8027 60.4052C24.3464 61.1488 24.8629 61.9105 25.3885 62.6632C25.896 63.3886 26.5666 63.8148 27.4818 63.8602C29.0314 63.9327 30.5809 64.0325 32.1305 64.105C32.8101 64.1413 33.4445 63.9781 34.0244 63.6063C35.3293 62.772 36.4077 61.711 37.2504 60.4052C37.5585 59.9246 37.7488 59.453 37.4588 58.8726C37.2776 58.5371 37.3048 58.1563 37.776 58.0565ZM33.1001 18.7094C33.4535 17.4036 33.4354 16.1431 32.5201 15.0368C31.9493 14.3476 31.2696 13.7672 30.5537 13.2322C29.9557 12.7878 29.3485 12.3526 28.7323 11.9173C27.6812 11.1828 27.2099 10.1671 27.2099 8.88851C27.2099 8.04516 27.3368 7.229 27.4818 6.40379C27.663 5.39722 27.5815 4.41786 27.3459 3.42035C27.1828 2.73117 26.8928 2.37749 26.2131 2.25054C25.9232 2.19613 25.6332 1.98757 25.3885 1.8062C24.6364 1.24397 23.7936 1.0354 23.0506 1.09887C21.8635 1.13515 20.8667 1.29837 19.888 1.52508C19.4077 1.6339 18.9365 1.78807 18.5469 2.08733C16.9611 3.32967 15.6924 4.835 14.8587 6.68492C14.6594 7.12926 14.5687 7.61894 14.5144 8.10863C14.4509 8.70713 14.3966 9.3147 14.3331 9.9132C14.1972 11.1193 13.581 11.9354 12.4211 12.3254C12.2036 12.3979 11.9861 12.4704 11.7686 12.543C10.9078 12.7969 10.3369 13.3682 10.0378 14.2025C9.64818 15.2544 9.33103 16.3335 9.14979 17.4398C9.10448 17.6938 9.05916 17.9477 9.0501 18.2106C9.01385 19.1719 9.26759 19.5618 10.1647 19.9155C10.5906 20.0878 11.0256 20.2329 11.4515 20.4142C12.3667 20.8132 12.8289 21.5296 12.7836 22.5271C12.7564 23.0984 12.7201 23.6788 12.6023 24.241C12.3758 25.3655 12.8108 26.1272 13.7713 26.6713C14.1157 26.8708 14.5416 27.025 14.7228 27.3877C15.0037 27.9499 15.5021 28.1222 16.0186 28.3036C16.6529 28.5303 16.6801 28.5394 17.0336 27.9318C17.8129 26.5534 18.9909 25.8733 20.5586 25.8189C20.6764 25.8098 20.7851 25.8008 20.9029 25.8008C22.1897 25.7917 23.3224 25.3474 24.3192 24.5494C24.727 24.2229 25.1348 23.9146 25.5154 23.5609C26.4578 22.6904 27.518 22.0375 28.7233 21.584C29.9375 21.1306 31.0521 20.4596 32.1486 19.7794C32.5655 19.5165 32.9642 19.2081 33.1001 18.7094ZM19.9877 44.3725C20.178 43.6108 19.9786 42.9035 19.6524 42.2052C19.4168 41.6883 19.0362 41.4979 18.5106 41.4888C18.4653 41.4888 18.4109 41.4344 18.3656 41.3982C18.0757 41.108 17.8219 41.2621 17.5138 41.3891C16.363 41.8606 15.3299 42.5498 14.2063 43.0667C13.6716 43.3115 13.5991 43.4838 13.8982 43.9826C14.1247 44.3544 14.2697 44.7443 14.4328 45.1433C14.9946 46.5852 14.8587 48.1631 15.3118 49.623C15.3752 49.8225 15.3752 50.0402 15.1487 50.149C14.895 50.2669 14.7047 50.1399 14.5597 49.9495C14.4147 49.759 14.3603 49.5414 14.315 49.3056C14.2606 48.9883 14.161 48.6799 13.8982 48.4714C13.4994 48.154 13.3545 47.7278 13.3726 47.2472C13.4179 46.1408 13.0192 45.2431 12.258 44.4541C11.7958 43.9645 11.8321 43.9282 11.2249 44.2002C9.00479 45.2249 6.78465 46.2496 4.56451 47.2743C4.38328 47.356 4.20204 47.4557 4.02081 47.5373C3.6674 47.6915 3.65834 47.9001 3.83051 48.2175C4.06612 48.6437 4.4739 49.0245 4.48297 49.5142C4.51015 50.3304 4.69138 50.9923 5.19884 51.7087C5.69724 52.4161 5.61569 53.468 6.02347 54.3022C6.15034 54.5652 5.94191 54.8645 5.64287 54.9914C5.28946 55.1275 5.09916 54.9098 4.97229 54.6287C4.71856 54.0755 4.4014 53.5677 4.01175 53.0962C3.87582 52.9239 3.79426 52.6881 3.73083 52.4705C3.41367 51.219 2.68873 50.0946 2.54374 48.7797C2.50749 48.4442 2.28095 48.426 2.04534 48.5711C1.54694 48.8704 1.24791 49.3056 1.22072 49.886C1.19353 50.4573 1.22071 51.0377 1.29321 51.609C1.51975 53.477 2.31719 55.1275 3.24149 56.7416C4.43765 58.8364 6.17751 60.3326 8.23454 61.5115C8.59701 61.7201 8.92324 61.7201 9.29478 61.5659C10.8172 60.9221 12.1764 60.0152 13.5176 59.0631C13.8075 58.8636 13.8075 58.6641 13.5357 58.4464C13.0192 58.0384 12.7201 57.4852 12.5027 56.8776C12.3758 56.524 12.1492 56.2247 11.9046 55.9345C11.533 55.4992 11.3337 55.0005 11.3518 54.4292C11.379 53.6221 11.5602 52.8332 11.533 52.0261C11.524 51.8448 11.6055 51.6634 11.7958 51.6362C12.0677 51.5999 12.1311 51.8266 12.1492 52.0261C12.2127 52.9057 12.6567 53.604 13.1551 54.2751C13.3545 54.538 13.4451 54.8282 13.4995 55.1456C13.6082 55.726 13.8166 56.2519 14.2606 56.66C14.5234 56.9048 14.6684 57.2041 14.7862 57.5396C14.9946 58.1472 15.0128 58.1563 15.6108 57.8751C16.5533 57.4308 17.5229 57.0771 18.5197 56.8051C19.0181 56.6691 19.4984 56.4786 19.888 56.1703C19.9061 55.9799 19.8155 55.862 19.734 55.7532C19.0362 54.7466 18.7462 53.6221 18.7372 52.4161C18.7372 51.6725 18.7372 50.9198 18.7372 50.1671C18.7372 48.417 19.0453 46.7303 19.7158 45.1071C19.8336 44.8713 19.9243 44.6264 19.9877 44.3725ZM14.3603 48.0996C14.3966 46.5489 13.9435 45.1887 13.2457 43.901C13.0826 43.6108 12.8923 43.511 12.6295 43.6833C12.3486 43.8647 12.6204 44.0279 12.7201 44.173C13.3998 45.1524 13.9344 46.168 13.8347 47.4195C13.8075 47.7096 13.9435 47.9726 14.3603 48.0996ZM14.2425 58.3104C14.3694 57.7391 14.1972 57.3673 13.871 57.0499C13.3998 56.5874 13.1189 56.0252 13.0101 55.3995C12.9014 54.7375 12.5026 54.275 11.9861 53.6131C11.8411 54.3929 11.814 54.9642 12.1855 55.4539C12.6205 56.0071 12.9195 56.6056 13.1823 57.2494C13.3907 57.7119 13.6988 58.0928 14.2425 58.3104ZM4.94512 53.2413C4.88168 52.6337 4.96324 52.0352 4.44672 51.6271C4.01175 51.2916 3.86676 50.8472 3.93926 50.3394C4.048 49.5233 3.59491 48.9611 3.14182 48.3081C2.95152 49.3873 4.12049 52.5702 4.94512 53.2413Z" fill="black"/>
<path d="M50.8561 28.6646C51.9655 28.8625 52.3964 29.9506 51.6263 30.7779C50.9936 31.4614 50.4344 32.1718 50.0126 32.9902C49.9301 33.1431 49.8292 33.2869 49.6367 33.3139C49.4808 33.3409 49.3433 33.2779 49.2791 33.134C49.2241 33.0081 49.3158 32.9542 49.4075 32.8733C49.8476 32.4776 49.8476 32.4506 49.3708 32.2258C49.0224 32.0549 48.7657 31.8661 48.8849 31.4434C48.9491 31.2006 48.8482 31.0028 48.7565 30.7959C48.3531 29.8787 48.3806 29.7887 49.2608 29.1862C49.1416 28.7725 48.8115 28.6646 48.5548 28.4848C48.2431 28.2689 47.968 28.0082 47.8213 27.6574C47.7205 27.4146 47.6379 27.1358 47.8855 26.956C48.1606 26.7671 48.3806 26.965 48.5548 27.1718C48.7382 27.3876 48.9215 27.6215 49.0499 27.8733C49.3066 28.3589 49.71 28.5657 50.251 28.6017C50.4527 28.6107 50.6544 28.6287 50.8561 28.6646ZM51.5346 29.9056C51.5346 29.6089 51.4796 29.3121 51.1678 29.2042C50.7919 29.0693 50.3977 28.9524 49.9943 29.0693C49.9118 29.0963 49.8934 29.1952 49.9118 29.2851C49.9943 29.6718 49.7834 29.7528 49.435 29.8067C48.9491 29.8787 48.8574 30.0765 49.0499 30.4991C49.1049 30.625 49.1966 30.742 49.2791 30.8499C50.0218 31.7582 50.141 31.7582 50.957 30.9128C51.2504 30.6251 51.5346 30.3373 51.5346 29.9056Z" fill="black"/>
<path d="M50.788 48.3736C50.797 48.4101 50.7429 48.4648 50.6979 48.5469C50.3015 48.4101 50.3015 48.0179 50.2024 47.7169C50.0132 47.1696 49.824 46.6223 49.4456 46.1662C49.1933 45.856 49.0672 45.8743 48.878 46.2209C48.7789 46.3942 48.7248 46.604 48.6257 46.7682C48.5176 46.9415 48.3014 47.1331 48.1302 47.0145C47.5627 46.6496 46.941 46.978 46.3824 46.8321C45.6167 46.6314 45.2833 46.8868 44.941 47.6165C44.5716 48.4101 43.8869 49.0486 43.3463 49.751C43.1751 49.9699 42.9409 49.9243 42.7157 49.9334C42.049 49.9517 41.4904 50.1979 41.076 50.7361C40.9679 50.8729 40.8598 51.028 40.9318 51.2105C41.0129 51.4203 41.2021 51.3838 41.3733 51.3838C41.5625 51.3838 41.7517 51.2834 41.9319 51.3929C41.9048 51.6209 41.7337 51.6392 41.6075 51.6574C41.2472 51.7121 40.8327 51.8398 40.5985 51.4294C40.3733 51.028 40.6525 50.7088 40.8958 50.426C41.2832 49.9699 41.7877 49.6871 42.3733 49.6233C42.8148 49.5777 43.1031 49.3679 43.3553 49.0213C43.7427 48.4831 44.2022 47.9996 44.5716 47.4523C44.8599 47.0418 44.7788 46.8868 44.3193 46.6496C44.2653 46.6223 44.2112 46.604 44.1571 46.5858C43.0941 46.1023 43.049 45.929 43.8058 44.9804C43.9409 44.8071 43.9589 44.6246 44.004 44.4239C44.0941 44.0499 44.3463 43.9405 44.7067 44.0956C45.022 44.2324 45.013 44.4239 44.8689 44.7158C44.5806 45.2996 44.7968 45.8925 45.4365 46.1662C46.3464 46.5584 47.3104 46.4398 48.2113 46.1935C48.7068 46.0567 48.8239 45.4638 48.7609 44.9439C48.6528 44.0682 48.7879 43.2108 49.0041 42.3716C49.0852 42.0614 49.0852 41.5415 49.5267 41.6054C49.9681 41.6692 49.824 42.1618 49.824 42.481C49.824 43.1834 49.6978 43.8675 49.4906 44.5334C49.3285 45.0533 49.3825 45.4729 49.7429 45.8925C50.3465 46.6131 50.5537 47.4979 50.788 48.3736ZM44.5355 46.1935C44.5806 45.929 44.3914 45.7739 44.3013 45.5824C44.2112 45.3999 44.0581 45.3635 43.8959 45.5003C43.7247 45.6462 43.6526 45.8195 43.8598 45.9929C44.0581 46.1388 44.2743 46.2574 44.5355 46.1935Z" fill="black"/>
<path d="M31.2325 29.4167C31.2777 29.7464 31.522 30.0486 31.4587 30.4607C31.0334 30.4058 31.0877 30.0303 30.7891 29.8471C30.2372 30.4058 29.5676 30.7996 28.7442 30.7996C28.6085 31.1018 28.8437 31.1842 28.9794 31.3124C29.2509 31.5689 29.5495 31.7978 29.8119 32.0634C30.5991 32.851 30.4453 33.4096 29.3685 33.721C29.0337 33.8126 28.6989 33.8676 28.3551 33.9317C28.1651 33.9683 27.957 33.9683 27.8212 34.124C27.7941 34.3529 27.966 34.4445 28.0746 34.5636C28.3099 34.82 28.4546 35.0856 28.2013 35.4061C28.0022 35.6534 28.1379 35.8365 28.3099 36.0014C28.5632 36.2395 28.8528 36.4227 29.1514 36.5967C29.3323 36.7066 29.6038 36.7249 29.6671 36.9996C28.9975 37.018 27.7941 36.2578 27.6222 35.7175C27.595 35.6351 27.5679 35.516 27.6041 35.4702C28.0746 34.9024 27.5679 34.6826 27.2421 34.3804C26.9073 34.0599 26.9526 33.8218 27.396 33.7027C27.9208 33.5653 28.4637 33.5104 28.9975 33.3913C29.3233 33.3181 29.7486 33.3181 29.83 32.906C29.9024 32.558 29.5404 32.3656 29.3142 32.155C28.9342 31.807 28.518 31.4864 28.1379 31.1384C27.957 30.9736 27.6765 30.7996 27.8303 30.4974C27.957 30.2318 28.2284 30.3142 28.4456 30.3417C28.8528 30.3875 29.2599 30.3691 29.6219 30.186C30.1919 29.9021 30.5901 29.4625 30.5901 28.7665C30.5901 28.6199 30.5991 28.4734 30.6263 28.336C30.6444 28.217 30.7258 28.1162 30.8525 28.1071C31.0244 28.0979 31.1149 28.2262 31.133 28.3727C31.1873 28.7207 31.1873 29.0687 31.2325 29.4167Z" fill="black"/>
</svg>
