<svg width="82" height="76" viewBox="0 0 82 76" fill="none" xmlns="http://www.w3.org/2000/svg">
<path d="M76.2746 41.7624C76.638 42.7716 76.7651 43.7718 76.002 44.6728C75.893 44.808 75.7295 45.0152 75.8748 45.1143C76.3745 45.4567 76.002 45.7991 75.9566 46.1596C75.8385 46.9435 75.7658 47.7364 75.6841 48.5203C75.5841 49.4304 75.4933 50.3405 75.3752 51.2505C75.2117 52.512 74.6575 53.6474 73.8126 54.5394C72.6407 55.7738 71.1781 56.6479 69.4429 56.9903C68.8706 57.0984 68.5163 56.8101 68.1529 56.4767C68.0166 56.3505 67.8985 56.1883 67.7259 56.3415C67.3535 56.6659 66.9537 56.4046 66.5631 56.4316C66.1725 56.4586 65.9181 56.2334 65.7364 55.909C65.4275 55.3503 65.2731 54.7376 65.1732 54.1159C65.0278 53.2148 64.937 52.3048 64.9279 51.2505C64.8189 49.8539 65.1913 48.4302 65.9272 47.0967C66.8538 45.4117 67.9258 43.8078 69.343 42.4833C70.5331 41.375 71.9957 40.7712 73.5855 40.4919C74.1306 40.3928 74.6757 40.4919 75.1935 40.7082C75.7022 40.9154 76.0929 41.2488 76.2746 41.7624Z" fill="#BDEAC8"/>
<path d="M65.749 60.908C66.203 61.0263 66.3119 61.3173 66.2847 61.7447C66.2484 62.2086 66.0305 62.5632 65.7399 62.8906C65.0499 63.6455 64.2508 64.2548 63.361 64.7368C62.9797 64.946 62.5983 65.1552 62.2442 65.3916C61.8629 65.6372 61.6177 65.9828 61.6177 66.4648C61.6087 67.5743 61.082 68.4383 60.1922 69.0022C58.2946 70.1936 56.3879 71.4031 54.1724 71.9488C53.1373 72.2034 52.0841 72.349 51.049 72.64C50.0957 72.9037 49.1877 73.2584 48.3796 73.8313C47.2537 74.6226 45.9735 74.8681 44.6206 74.9409C42.959 75.0227 41.4064 74.7044 39.9446 73.9405C38.0469 72.9492 36.113 72.8128 34.0882 73.4949C33.0894 73.8314 32.0453 73.8041 31.0102 73.704C30.184 73.6222 29.6119 73.2311 29.3759 72.3944C29.2487 71.9488 29.0944 71.5123 28.9219 71.0848C28.5405 70.1663 27.8777 69.5933 26.8699 69.4205C26.5703 69.3659 26.2252 69.4296 25.9619 69.0749C26.4522 68.6748 26.879 68.2109 27.0969 67.6016C27.1695 67.4015 27.3329 67.3833 27.5145 67.4106C27.8232 67.4652 28.141 67.538 28.4497 67.5652C29.3577 67.6289 29.7754 67.2924 29.9388 66.3829C30.0296 65.9009 29.9479 65.4189 29.8934 64.8732C31.3008 66.192 32.2269 68.5656 32.0453 70.2754C32.018 70.5028 31.9273 70.7574 32.1815 70.8938C32.4266 71.0211 32.6173 70.8393 32.7898 70.6847C33.0713 70.4391 33.2983 70.139 33.489 69.8116C34.515 68.0563 34.8055 66.201 34.2063 64.2366C34.1518 64.0729 34.1064 63.9092 34.061 63.7364C34.0519 63.7182 34.07 63.6819 34.0973 63.5818C34.8055 63.691 35.2504 64.1457 35.5864 64.7186C35.9949 65.4007 36.1947 66.1556 36.34 66.9195C36.4671 67.5743 36.567 68.2291 36.6941 68.8748C36.7576 69.184 36.8121 69.5024 36.9211 69.7934C37.2116 70.6028 37.7019 70.8575 38.5463 70.6392C38.9277 70.5391 39.2999 70.3754 39.763 70.2117C39.8629 70.8211 39.8084 71.3758 39.7812 71.9397C39.7448 72.8128 39.99 73.031 40.7799 72.7673C41.7424 72.449 42.7139 72.2216 43.7217 72.0943C44.5571 71.9852 44.7568 71.6487 44.3845 70.9211C43.4857 69.1386 42.7684 67.2833 41.9875 65.4553C41.8513 65.1461 41.6606 64.8551 41.4518 64.464C42.2145 64.2275 42.8319 64.3549 43.3767 64.8642C43.8307 65.2916 44.094 65.8373 44.3028 66.4102C44.5571 67.1196 44.7659 67.8381 45.002 68.5474C45.3288 69.5206 45.7737 70.4209 46.6363 71.0302C46.7271 71.0939 46.8451 71.1667 46.8815 71.2667C47.063 71.7487 47.2628 71.8397 47.6805 71.4486C48.0437 71.1121 48.4613 71.294 48.7609 71.5941C49.3874 72.2216 50.1592 72.2034 50.9401 72.1762C51.1217 72.1671 51.2851 72.1034 51.3214 71.8942C51.3486 71.7214 51.2306 71.6305 51.0944 71.5759C50.6223 71.4122 50.7675 71.103 50.931 70.8211C51.1035 70.521 51.3033 70.239 51.4939 69.948C52.0478 69.0931 51.9842 68.2564 51.4213 67.4379C51.1217 67.0105 50.7494 66.6467 50.359 66.3011C50.0775 66.0464 49.8051 65.7918 49.5236 65.5463C49.2694 65.328 49.2058 65.0915 49.4238 64.8005C49.6144 64.5458 49.7143 64.2366 49.796 63.9274C49.8959 63.5727 49.905 63.2089 49.5418 63.0089C49.2422 62.8543 49.3148 62.6633 49.3784 62.4359C49.6508 61.5265 49.9141 61.3628 50.813 61.5992C51.5938 61.7993 52.3747 61.9994 53.1373 62.2631C54.0635 62.5905 54.2905 63.0089 54.127 63.9911C54.0816 64.273 54.0181 64.564 53.9182 64.8278C53.5459 65.7827 53.6095 66.7467 53.8092 67.7198C53.9091 68.2382 54.3449 68.5202 54.5992 68.9294C54.69 69.0658 54.8716 68.984 54.9442 68.8475C55.0532 68.6566 55.035 68.4201 55.2438 68.2473C56.6239 67.0923 56.8055 65.5826 56.4877 63.9183C56.3515 63.2089 56.0338 62.5541 55.8068 61.8721C56.0156 61.6811 56.1336 61.8721 56.2517 61.963C57.205 62.7451 57.9405 63.7001 58.4217 64.8369C58.7667 65.6645 58.8303 66.4648 58.0767 67.1378C57.9314 67.2651 57.768 67.4379 57.886 67.6653C58.0222 67.9199 58.2673 67.8744 58.4943 67.8563C58.5761 67.8472 58.6668 67.829 58.7486 67.8108C60.3466 67.3651 62.7799 64.4731 61.4362 62.536C61.4089 62.4996 61.4271 62.4268 61.418 62.3177C62.0717 62.254 62.5802 62.4996 63.0433 62.9361C63.5063 63.3817 63.7787 63.2908 63.8967 62.6451C63.9875 62.1358 64.0329 61.6174 64.0693 61.099C64.1237 60.2805 64.1328 60.2623 64.9318 60.5715C65.2133 60.6898 65.4766 60.8262 65.749 60.908Z" fill="#8ADD9E"/>
<path d="M71.2197 56.9661C71.3469 56.9207 71.465 56.8118 71.6557 56.8935C71.5104 57.4382 71.1924 57.8105 70.6655 58.0466C69.3755 58.6186 68.1581 59.3449 66.8135 59.808C66.6773 59.8534 66.4774 59.8806 66.4229 59.9805C66.0958 60.5888 65.687 60.2801 65.2691 60.1167C63.7247 59.4993 63.6974 59.5174 63.6429 61.1517C63.6338 61.5512 63.6793 61.9598 63.4249 62.3593C62.6799 61.869 61.8714 61.7328 61.0265 61.7691C60.8266 61.7782 60.5995 61.7691 60.5268 62.0143C60.4632 62.205 60.5995 62.3321 60.6995 62.4773C61.5898 63.6577 61.6079 64.384 60.7812 65.6007C60.3724 66.1999 59.9 66.7175 59.1187 67.1533C59.691 65.6733 59.1459 64.5475 58.4373 63.467C57.9649 62.7406 57.3926 62.0869 56.7021 61.5512C56.475 61.3697 56.2388 61.1971 55.9481 61.1336C55.5665 61.0519 55.3303 61.2425 55.3212 61.633C55.3121 62.0234 55.4938 62.3593 55.6301 62.7043C55.9663 63.5669 56.2479 64.4385 56.2025 65.3918C56.1752 65.982 56.0208 66.5268 55.7482 67.0443C55.5756 67.3712 55.3576 67.6708 55.0033 67.8251C54.2856 67.1079 54.2311 66.3089 54.4945 65.4191C54.6762 64.8198 54.867 64.2115 54.8761 63.5669C54.8852 62.8224 54.5763 62.2776 53.904 61.978C52.7957 61.4695 51.6055 61.2335 50.4245 60.9701C49.9521 60.8612 49.5706 61.1063 49.3434 61.524C48.8347 62.4683 48.5258 63.4852 48.4077 64.5565C48.3623 64.956 48.5167 65.2557 48.8165 65.5462C49.2889 66.0093 49.7795 66.4632 50.2701 66.9081C50.588 67.1987 50.8969 67.5074 51.1331 67.8796C51.5147 68.4698 51.5329 69.069 51.1695 69.6683C50.8243 70.2312 50.37 70.7306 50.3064 71.4297C50.2792 71.6748 50.0884 71.6476 49.9067 71.5931C49.6251 71.5023 49.4161 71.3026 49.189 71.121C48.8074 70.8214 48.3895 70.6489 47.908 70.7851C47.5537 70.894 47.2993 70.7578 47.0359 70.5581C46.4908 70.1404 46.1183 69.5956 45.8912 68.9601C45.6368 68.261 45.4188 67.5437 45.1826 66.8264C44.9464 66.1182 44.6738 65.41 44.2014 64.8199C43.4383 63.8574 42.2664 63.5578 41.1762 64.0209C40.5584 64.2842 40.513 64.4839 41.0217 64.8925C41.3306 65.1376 41.5214 65.4463 41.6668 65.7914C42.3935 67.5437 43.0658 69.3323 43.9652 71.012C44.1106 71.2844 44.1469 71.5477 43.7563 71.5841C42.6661 71.6839 41.6213 71.9835 40.5221 72.3467C40.5221 71.5659 40.5221 70.8759 40.5221 70.1949C40.5221 69.4776 40.3585 69.3777 39.7044 69.6683C39.3592 69.8226 39.0322 70.0042 38.6779 70.1223C37.9874 70.3583 37.7421 70.2312 37.5241 69.523C37.3878 69.0599 37.306 68.5697 37.2243 68.0885C37.0426 67.0716 36.8881 66.0365 36.4702 65.0741C36.0705 64.1389 35.48 63.3853 34.4262 63.1129C34.2354 63.0584 34.0264 63.0221 33.8356 63.0312C33.5177 63.0493 33.3632 63.2309 33.4813 63.5578C33.554 63.7485 33.663 63.921 33.7266 64.1117C34.4807 66.1909 34.1536 68.1157 32.9453 69.9407C32.8454 69.868 32.7727 69.8408 32.7727 69.8136C32.7727 68.5878 32.3185 67.5074 31.7371 66.4632C31.1102 65.3283 30.3289 64.2842 29.6385 63.1856C29.593 63.1129 29.5476 63.0403 29.484 62.9767C29.4022 62.895 29.3023 62.8224 29.1842 62.8768C29.057 62.9313 29.0298 63.0493 29.057 63.1674C29.1025 63.358 29.1751 63.5487 29.2387 63.7394C29.5022 64.5384 29.6566 65.3555 29.593 66.1999C29.5385 66.9717 29.2478 67.2078 28.4665 67.1351C27.767 67.0625 27.1674 66.8446 26.6586 66.2726C26.0045 65.5371 25.3413 64.8199 24.7781 64.0209C23.6152 62.3775 22.4433 60.725 21.2804 59.0725C20.8898 58.5096 20.5082 57.9376 20.1357 57.1749C20.808 57.3384 21.344 57.4836 21.8891 57.5926C22.3888 57.6925 22.525 57.529 22.3615 57.0297C22.1889 56.4849 21.9709 55.9492 21.7892 55.4044C21.6983 55.1411 21.6256 54.8688 21.662 54.5601C21.8528 54.8415 22.0436 55.123 22.2253 55.4044C22.6068 55.9764 22.9793 56.5666 23.3881 57.1295C24.0513 58.0647 24.9416 58.6731 26.1045 58.782C27.449 58.9091 28.5755 59.5084 29.6657 60.2347C30.5288 60.8067 31.3827 61.406 32.264 61.9507C32.6455 62.1868 33.0816 62.5409 33.5358 62.2413C33.981 61.9507 33.8538 61.4241 33.7993 60.9611C33.7902 60.8794 33.8175 60.7976 33.8266 60.7069C34.1627 60.7159 34.3353 60.9702 34.5533 61.1427C35.4346 61.7964 36.3067 62.4501 37.2788 62.9767C37.733 63.2219 38.2054 63.4579 38.7233 63.5487C39.6772 63.7212 40.1587 63.3217 40.1678 62.3502C40.1768 61.6693 39.9316 61.0519 39.6227 60.4617C39.4955 60.2166 39.3592 59.9714 39.3047 59.6082C39.7589 59.8261 40.2041 60.0531 40.6674 60.271C41.1398 60.4889 41.6032 60.725 42.0847 60.9157C43.0567 61.2879 44.0106 61.2879 44.8828 60.6433C45.4642 60.2075 46.0911 60.1802 46.7724 60.3527C47.5719 60.5616 48.3713 60.5707 49.1436 60.2256C49.5615 60.044 49.8976 59.7807 49.9521 59.2995C50.0339 58.6549 50.4609 58.437 51.0332 58.3825C52.405 58.2554 53.7405 58.2554 54.8488 59.2904C55.3031 59.7172 55.8572 59.6718 56.3751 59.354C56.9474 59.009 57.438 58.5641 57.8559 58.0466C58.4192 57.3474 58.5827 57.3202 59.364 57.7923C59.9091 58.1192 60.4178 58.4915 60.9992 58.7548C62.262 59.3268 62.9797 59.0907 63.6429 57.8741C63.7156 57.747 63.7701 57.6198 63.8337 57.4927C64.3152 56.5212 64.3606 56.5031 65.4326 56.8027C65.6234 56.8572 65.8415 56.8753 66.0141 56.9752C67.7402 58.0738 69.4754 57.5835 71.2197 56.9661Z" fill="#6CC080"/>
<path d="M24.2988 64.3829C24.859 65.1832 25.4824 65.9291 26.2684 66.7385C25.0216 66.8204 24.4343 67.457 24.3621 68.6667C23.3321 68.2392 22.4015 67.8936 21.5974 67.2751C20.2241 66.211 19.0495 65.0013 18.1641 63.4552C17.1883 61.7635 16.059 60.1628 15.1013 58.4529C14.3062 57.0249 13.2672 56.8067 11.8306 57.5979C11.5054 57.7708 11.2072 58.0072 10.9091 58.2255C10.4754 58.5347 10.2044 58.4984 9.93331 58.0527C9.77068 57.7798 9.65323 57.4797 9.56288 57.1796C9.27376 56.1882 8.98465 55.1877 8.72264 54.1873C8.37028 52.8139 7.90949 51.486 7.24995 50.2218C6.41873 48.6484 5.98506 46.9476 5.76822 45.1922C5.69594 44.5556 5.42489 44.0644 4.95508 43.6733C5.60559 43.6824 6.2561 43.7097 6.90661 43.6915C8.00887 43.6551 8.86719 44.3009 9.13824 45.3923C9.21052 45.6743 9.27377 45.9471 9.35508 46.2291C9.39122 46.3655 9.47254 46.4928 9.71648 46.4655C9.6713 45.6743 9.62612 44.8921 9.37315 44.0099C9.80682 44.2372 9.87007 44.5374 9.99656 44.7829C10.7736 46.2654 11.5325 47.748 12.3005 49.2305C13.0955 50.7584 14.1255 52.0772 15.4265 53.205C16.7456 54.351 18.0286 55.5606 19.3296 56.7248C19.5284 56.8976 19.5374 57.0613 19.5374 57.316C19.5464 57.8708 19.4922 58.4893 20.2421 58.7075C20.459 58.7712 20.5403 59.0441 20.6668 59.2351C21.8865 60.9358 23.0972 62.6548 24.2988 64.3829ZM13.3575 56.0154C13.5563 55.879 13.5382 55.6607 13.5021 55.4697C13.3304 54.5056 13.0594 53.5688 12.5263 52.723C12.4269 52.5683 12.3366 52.3501 12.0113 52.4683C12.0294 52.9685 12.4269 53.3141 12.5625 53.7689C12.7161 54.2509 12.9419 54.7148 12.96 55.3696C12.3456 54.8694 11.8216 54.4874 11.3879 53.9963C11.2705 53.8689 11.1078 53.7325 10.9543 53.9053C10.8007 54.0781 10.9543 54.2236 11.0807 54.3328C11.659 54.8421 12.2372 55.3605 12.8245 55.8608C12.9781 55.9972 13.1407 56.1609 13.3575 56.0154Z" fill="#8ADD9E"/>
<path d="M67.6555 42.514C68.3359 42.9583 67.7553 43.2665 67.5285 43.5748C66.8481 44.5086 66.2039 45.4606 65.6233 46.4579C64.5528 48.2892 64.199 50.2657 64.453 52.36C64.5981 53.5839 64.6889 54.8169 65.1969 55.9593C65.1062 56.0137 65.0518 56.0772 65.0155 56.0681C64.0447 55.8596 63.5367 56.3582 63.1557 57.1923C62.4843 58.661 62.0398 58.7789 60.6245 57.972C60.1709 57.7181 59.7536 57.4099 59.2999 57.156C58.4471 56.6755 57.9482 56.7662 57.3585 57.5368C56.9865 58.0264 56.551 58.4344 56.043 58.7698C55.6619 59.0237 55.29 59.069 54.9362 58.7426C53.7114 57.6003 52.2054 57.6456 50.6994 57.8088C50.0008 57.8813 49.4202 58.1896 49.2932 58.9874C49.2206 59.4589 48.8849 59.6493 48.4858 59.7852C47.9505 59.9575 47.3971 59.9484 46.8618 59.7943C45.9455 59.5404 45.1109 59.613 44.3216 60.2023C43.7228 60.6556 43.0424 60.6556 42.3438 60.4289C41.6815 60.2204 41.0828 59.885 40.4568 59.5858C39.6493 59.205 38.8419 58.8333 38.0254 58.4616C37.844 58.38 37.6262 58.2984 37.4811 58.5069C37.3269 58.7336 37.5174 58.8786 37.6625 59.0146C38.098 59.4317 38.4881 59.894 38.8147 60.4108C39.105 60.8823 39.3318 61.3809 39.4316 61.9249C39.604 62.8859 39.2592 63.1942 38.352 62.8678C37.9165 62.7136 37.4992 62.5142 37.1091 62.2694C35.5759 61.3446 34.1788 60.2295 32.8451 59.0418C32.6002 58.8242 32.3824 58.2349 31.9833 58.6248C31.6748 58.924 32.1919 59.1959 32.3734 59.4498C32.7635 59.9938 33.0901 60.5649 33.1264 61.254C33.1445 61.6348 33.0084 61.7254 32.6546 61.5532C32.3189 61.39 32.0014 61.1814 31.693 60.982C30.9762 60.5015 30.2686 60.0028 29.5428 59.5314C28.5177 58.8696 27.4471 58.3437 26.1952 58.2349C25.0883 58.1442 24.2537 57.564 23.6368 56.6574C23.2194 56.0409 22.8112 55.4062 22.3939 54.7897C22.158 54.4271 21.9221 54.0644 21.659 53.729C21.4685 53.4933 21.2598 53.1669 20.8879 53.3573C20.5703 53.5295 20.661 53.8559 20.7336 54.137C20.8516 54.5812 20.9786 55.0254 21.1147 55.4606C21.2689 55.9502 21.4413 56.4307 21.6318 57.02C20.6066 56.9203 19.8899 56.5033 19.2548 55.9411C17.8124 54.6537 16.388 53.3573 14.9637 52.0608C14.1018 51.272 13.4486 50.3291 12.8952 49.3137C12.124 47.8994 11.3892 46.4669 10.6362 45.0435C10.4366 44.6627 10.2461 44.2729 10.0283 43.9012C9.88317 43.6564 9.7743 43.3391 9.43862 43.33C9.03944 43.3209 9.14832 43.7652 8.96687 43.9646C8.75821 43.9828 8.64934 43.8286 8.54048 43.7017C7.97799 43.0852 8.05057 42.8586 8.86708 42.6047C9.69265 42.3418 10.5092 42.0516 11.1533 41.4351C11.371 41.2266 11.5978 41.2176 11.87 41.2357C12.6139 41.281 13.2944 41.0453 13.9113 40.6555C14.7913 40.1024 15.6259 39.495 16.2973 38.6881C16.4606 38.4886 16.6057 38.2348 16.8598 38.1622C17.4132 38.0172 17.7307 37.6455 17.9303 37.1377C18.8375 37.6545 18.8375 37.6545 18.6289 38.407C19.1823 38.3889 19.6994 38.2257 20.2256 38.1894C21.287 38.0988 22.3122 38.262 23.292 38.5611C27.2022 39.767 31.2303 40.5195 35.1767 41.5711C37.0456 42.0607 38.9599 42.2964 40.8741 42.5231C44.9566 43.0127 48.894 44.0734 52.7497 45.4606C55.3535 46.3944 57.9391 47.3645 60.4793 48.4524C60.8785 48.6247 60.8876 48.6156 61.3412 48.6066C61.314 48.3527 61.0872 48.3164 60.9148 48.2439C56.6327 46.3944 52.2689 44.7534 47.7781 43.4569C45.0837 42.6772 42.3257 42.2511 39.5496 41.9247C38.0345 41.7434 36.5285 41.4805 35.0588 41.0634C32.2282 40.2656 29.3251 39.8123 26.5036 38.9691C24.8887 38.4886 23.2739 37.9718 21.6318 37.7089C21.5864 37.446 21.7316 37.3644 21.8495 37.31C22.539 37.0108 22.8475 36.3853 23.2194 35.805C23.664 35.0978 23.664 35.0888 24.4623 35.3517C25.4512 35.6872 26.4492 35.9229 27.5016 35.9229C27.9915 35.9229 28.3634 35.7869 28.7263 35.4333C30.0872 34.1006 31.4843 32.8222 32.8724 31.5167C32.9903 31.3988 33.0992 31.2447 33.3169 31.2537C33.6072 31.4713 33.6526 31.834 33.7887 32.1422C34.959 34.7714 36.6827 35.4968 39.3772 34.4904C39.5133 34.436 39.6493 34.3997 39.7764 34.3272C40.5838 33.8648 41.4185 33.5657 42.3801 33.6291C42.9517 33.6654 43.5051 33.4024 44.0313 33.1577C44.5302 32.931 45.0111 32.6771 45.5101 32.4414C46.6895 31.8975 47.0614 31.9518 47.9777 32.8403C48.4132 33.2574 48.8214 33.7107 49.2569 34.1187C49.5926 34.436 49.9283 34.7533 50.3093 35.0072C51.1349 35.5693 51.5703 35.4333 51.9786 34.5357C52.0421 34.4088 52.0693 34.2638 52.2598 34.1731C52.6046 34.2819 52.8405 34.572 53.1308 34.8077C53.5572 35.1522 53.9564 35.5239 54.4463 35.7869C54.8999 36.0317 55.3626 36.1405 55.8434 35.8685C56.3061 35.5965 56.7234 35.7144 57.1317 35.9863C57.9028 36.4941 58.5742 37.1287 59.2636 37.7452C59.7082 38.1532 60.1618 38.5521 60.6245 38.951C60.9602 39.2321 61.3503 39.3318 61.7495 39.1051C62.3119 38.7878 62.82 38.9329 63.2645 39.3046C64.5256 40.3381 65.9136 41.136 67.3924 41.7978C67.6011 41.8885 68.0366 41.97 67.6102 42.3599C67.6192 42.3871 67.6283 42.4959 67.6555 42.514Z" fill="#BDEAC8"/>
<path d="M80.7002 36.758C80.7274 37.8774 80.4187 38.8967 79.6743 39.7158C78.712 40.7806 77.9312 41.9365 77.3865 43.2561C77.3411 43.3562 77.2957 43.4745 77.096 43.52C77.3592 42.6554 76.8962 41.9729 76.5694 41.2812C76.1972 40.4803 75.4255 40.1891 74.6175 39.9979C73.8549 39.825 73.8549 39.8159 74.0455 39.0605C74.0909 38.8876 74.1908 38.7602 73.9003 38.6874C73.6642 38.6328 73.8095 38.4053 73.8276 38.2506C73.9003 37.7955 74.0001 37.3405 74.0455 36.8854C74.1363 36.0026 73.8912 35.2745 73.0287 34.8741C72.0119 34.4099 71.6397 33.5635 71.5943 32.4987C71.558 31.5977 71.6397 30.7058 71.7032 29.8139C71.7486 29.2496 71.6306 28.8037 71.095 28.5033C70.5956 28.2212 70.3324 27.7298 70.0963 27.2292C69.7513 26.5011 69.4971 25.7275 69.2429 24.9631C68.4622 22.6059 67.6814 20.2487 66.9006 17.8916C66.7281 17.3728 66.5284 16.8631 66.3287 16.3444C65.9655 15.3706 65.3663 14.5788 64.5402 13.9417C63.9047 13.4503 63.2601 12.9497 62.6337 12.4491C61.9528 11.894 61.5987 11.1659 61.5352 10.2467C63.1058 11.3934 64.8489 12.2489 66.4195 13.3866C67.173 13.9326 67.7994 14.6061 68.3714 15.3433C69.1158 16.2989 69.8694 17.2454 70.641 18.1828C71.9938 19.8483 72.8199 21.7777 73.4826 23.789C73.6915 24.417 73.8549 25.0632 74.0365 25.7002C74.209 26.3282 74.3905 26.9471 74.218 27.6388C74.0637 28.2394 74.2453 28.8583 74.6084 29.3679C75.4618 30.5693 75.716 31.9526 75.8885 33.3633C76.0428 34.6283 76.2335 35.8752 76.6239 37.0947C76.9779 38.196 77.0778 39.3518 76.8236 40.5167C76.7782 40.7078 76.6057 41.0355 76.9507 41.0901C77.2503 41.1356 77.2594 40.7806 77.2866 40.5713C77.4409 39.2426 77.3683 37.9229 76.9507 36.6306C76.5512 35.3837 76.3878 34.1187 76.3969 32.8081C76.406 32.0983 76.297 31.3429 76.0156 30.633C75.6615 29.7229 75.4527 28.7582 75.1985 27.8117C75.1077 27.4567 75.2348 27.3566 75.6071 27.4294C75.9066 27.4841 76.1336 27.657 76.3424 27.8572C77.6134 29.0949 78.7301 30.4419 79.3747 32.1256C79.5926 32.6898 79.8559 33.2359 80.101 33.7911C80.5277 34.7467 80.6729 35.7296 80.7002 36.758Z" fill="#8ADD9E"/>
<path d="M70.1432 37.4215C70.9233 37.7552 71.1048 38.4857 70.624 39.1621C70.1523 39.8295 69.6806 40.4879 69.5718 41.3357C69.5173 41.7596 68.9549 41.958 68.583 41.7506C66.914 40.8036 65.1089 40.0821 63.6303 38.8104C63.077 38.3414 62.4148 38.161 61.7072 38.5398C61.3263 38.7473 61.0451 38.5398 60.782 38.2963C60.1833 37.7552 59.5846 37.2231 58.9859 36.6819C58.5143 36.258 58.0335 35.8522 57.4892 35.5185C56.9541 35.1848 56.4007 35.0044 55.7839 35.3652C55.3848 35.5997 54.9947 35.5005 54.65 35.257C54.2509 34.9774 53.8699 34.6617 53.4889 34.3641C53.2168 34.1567 52.9628 33.9132 52.6635 33.7418C52.219 33.4712 51.9922 33.5614 51.7745 34.0124C51.6294 34.31 51.6929 34.7609 51.2666 34.8421C50.8312 34.9233 50.5137 34.5896 50.2234 34.328C49.7517 33.9041 49.3163 33.4532 48.8537 33.0203C48.5453 32.7227 48.2278 32.425 47.9012 32.1455C47.3479 31.6765 46.7129 31.5773 46.0417 31.8568C45.4339 32.1184 44.8443 32.425 44.2456 32.6956C43.5109 33.0293 42.7761 33.363 41.8691 33.2818C41.8781 32.903 42.114 32.4972 41.7874 32.1635C41.6241 32.0012 41.479 31.7757 41.2159 31.8839C40.9438 31.9921 40.9982 32.2266 41.0436 32.4701C41.1797 33.1105 41.1524 33.1646 40.59 33.4893C39.8099 33.9312 38.9845 34.2649 38.0955 34.4182C36.7712 34.6527 35.7189 34.2198 34.9479 33.1105C34.4671 32.425 34.2404 31.6133 33.8413 30.8828C33.7052 30.6303 33.8231 30.504 34.0045 30.3958C35.5466 29.521 36.0273 28.0689 36.2178 26.4365C36.3448 25.3182 36.3358 24.2088 36.2088 23.0905C36.1634 22.6756 36.0999 22.2518 36.1725 21.7467C36.5263 21.9451 36.626 22.2517 36.744 22.5223C36.9979 23.0995 37.2156 23.6948 37.4424 24.281C37.5785 24.6327 37.7145 24.9754 37.9413 25.2731C38.4039 25.8864 38.9663 25.9765 39.5832 25.5076C40.0911 25.1198 40.4358 24.5876 40.8531 24.1096C41.0527 23.8842 41.2069 23.4693 41.5516 23.5685C41.8691 23.6587 41.8691 24.0916 41.9144 24.3892C42.0142 25.0115 42.0233 25.6428 41.8509 26.2651C41.4337 27.7262 40.717 29.0159 39.6194 30.0801C39.429 30.2695 39.0571 30.4679 39.2929 30.7656C39.556 31.0903 39.8009 30.7566 40.0004 30.5672C40.3361 30.2425 40.7442 30.026 41.1615 29.8366C41.8146 29.53 42.4224 29.1512 43.0211 28.7453C44.3726 27.8434 45.5428 26.7702 46.4499 25.4084C46.7129 25.0115 47.0848 24.6688 47.4205 24.3171C47.62 24.1096 47.8559 23.9473 48.1462 23.8661C48.9353 23.6407 49.534 24.1457 49.4252 24.9574C49.3526 25.4895 49.0623 25.9134 48.7448 26.3283C48.2732 26.9506 47.6835 27.4556 47.1483 28.0148C46.9216 28.2583 46.5587 28.5018 46.7674 28.8806C47.0123 29.3225 47.4386 29.0971 47.7742 28.9979C48.8537 28.6732 49.8515 28.1591 50.8402 27.627C51.2938 27.3835 51.7473 27.1219 52.2281 26.9326C52.7542 26.7161 52.9628 26.8784 53.0173 27.4466C53.0535 27.8795 52.981 28.3034 52.8358 28.7183C52.7723 28.9077 52.6907 29.088 52.6363 29.2865C52.6 29.4037 52.6181 29.521 52.7088 29.6021C52.8358 29.7104 52.9719 29.6743 53.0989 29.5841C53.2622 29.4668 53.4164 29.3406 53.5887 29.2324C54.1058 28.9077 54.6682 28.7093 55.2669 28.574C55.6841 28.4748 55.9472 28.6371 56.0379 29.034C56.0923 29.2865 56.1286 29.539 56.1377 29.8006C56.1649 30.2876 56.1558 30.7746 56.183 31.2616C56.2102 31.7396 56.3826 32.1274 56.7817 32.4431C57.589 33.0834 57.5981 33.2007 57.0448 34.0484C57.0176 34.0935 56.9722 34.1386 56.9359 34.1837C56.8633 34.2829 56.8452 34.4002 56.9087 34.4994C56.9994 34.6347 57.1445 34.6888 57.2897 34.6166C57.6979 34.4092 58.097 34.1837 58.5052 33.9763C58.9315 33.7598 59.0404 33.7959 59.2127 34.2378C59.3488 34.5806 59.4395 34.9503 59.5756 35.293C60.1652 36.7992 61.1267 36.9525 62.1971 35.7079C62.3876 35.4915 62.569 35.266 62.7141 35.0225C62.8955 34.7339 63.1042 34.7429 63.3672 34.8601C63.8933 35.0946 64.2471 35.4914 64.5102 35.9875C64.8458 36.6278 65.0181 37.3223 65.127 38.0348C65.2449 38.7923 65.2812 38.8014 66.0704 38.8014C66.4695 38.8014 66.8777 38.7563 67.2677 38.8735C67.4219 38.9186 67.5671 38.8825 67.6124 38.7112C67.6578 38.5398 67.5399 38.4496 67.4129 38.3775C67.0954 38.1881 66.7416 38.2061 66.3969 38.2332C65.889 38.2783 65.6894 38.0979 65.6168 37.5838C65.5261 36.9074 65.2993 36.249 64.9637 35.6358C64.5737 34.9233 63.9841 34.4543 63.2221 34.1747C62.8683 34.0484 62.6234 34.1116 62.4057 34.4272C62.1608 34.779 61.9159 35.1397 61.6256 35.4554C60.9453 36.1949 60.5189 36.1138 60.1198 35.1668C59.9656 34.797 59.8658 34.4092 59.7298 34.0304C59.4486 33.2818 59.2581 33.1736 58.4326 33.345C58.1877 33.39 58.0426 33.381 57.9881 33.1195C57.8974 32.6325 57.5981 32.2988 57.199 32.0462C56.8452 31.8298 56.7182 31.4961 56.7001 31.0993C56.6819 30.6393 56.6819 30.1884 56.6729 29.7284C56.6638 29.4127 56.6366 29.0971 56.5368 28.7995C56.31 28.1321 55.929 27.8795 55.2215 27.9968C54.9403 28.0419 54.6591 28.1321 54.387 28.2132C54.1148 28.2944 53.8518 28.3936 53.5525 28.5018C53.5525 28.0779 53.5797 27.7082 53.5434 27.3474C53.5071 26.9235 53.3801 26.6259 53.1624 26.4455L53.3982 26.3914C53.9062 26.9957 54.5956 27.3384 55.4846 27.4286C55.7748 27.4556 56.056 27.4737 56.3463 27.4917C57.4076 27.5729 58.2693 28.0238 58.9678 28.8265C59.4032 29.3226 59.8477 29.8096 60.274 30.3146C61.6256 31.8749 63.34 32.6956 65.4173 32.7587C65.5624 32.7587 65.7075 32.7678 65.8527 32.7768C66.5149 32.8309 66.5874 32.903 66.6328 33.5344C66.6509 33.8771 66.6781 34.2198 66.7598 34.5535C67.0138 35.6358 67.6487 36.3933 68.6647 36.8443C69.1726 37.0697 69.6715 37.2141 70.1432 37.4215Z" fill="#8ADD9E"/>
<path d="M15.1522 13.6927C15.1158 13.7562 15.0976 13.8288 15.0885 13.9196C15.0522 14.2918 15.0158 14.6821 15.3613 14.9453C15.4794 15.0361 15.5795 14.9272 15.6249 14.8182C15.7158 14.6004 15.5522 14.3553 15.7249 14.083C16.4613 14.1193 17.234 14.1284 18.0068 14.201C18.6341 14.2555 19.1795 14.555 19.5159 15.0996C19.7704 15.499 20.0977 15.617 20.5341 15.5989C20.9977 15.5898 21.4614 15.6352 21.9159 15.608C23.3614 15.5172 24.6251 16.0346 25.8433 16.7426C26.1069 16.8969 26.2706 17.0059 26.1706 17.4053C25.9433 18.2948 26.2888 18.8939 27.1161 19.2842C27.7797 19.602 28.4615 19.5838 29.1343 19.3205C29.5343 19.1662 29.9252 18.9665 30.307 18.7578C31.0343 18.3674 31.7798 18.3039 32.5616 18.6035C32.7525 18.6761 32.9344 18.7578 33.1344 18.8032C33.7616 18.9756 34.0435 18.8304 34.2435 18.195C34.4344 17.6231 34.5798 17.0331 34.7617 16.4612C34.8071 16.3069 34.8617 16.1072 35.0889 16.1163C35.2526 16.1254 35.3344 16.2797 35.389 16.3977C35.6071 16.8697 35.8071 17.3508 36.0253 17.8137C36.1072 17.9953 36.2253 18.2041 36.4799 18.077C36.6617 17.9862 36.6526 17.7956 36.5981 17.6231C36.4708 17.1783 36.3072 16.7426 36.2162 16.2978C36.1162 15.8167 36.2435 15.7169 36.7163 15.8349C37.0799 15.9257 37.4344 16.0346 37.789 16.1617C39.2436 16.6519 40.7163 16.7608 42.2255 16.4975C42.3982 16.4703 42.5709 16.4521 42.7436 16.4431C43.4437 16.3977 43.4437 16.3977 43.6437 17.0603C44.0982 18.5671 44.6891 19.0664 46.2437 19.0664C47.3346 19.0664 48.2074 19.4386 48.9074 20.2555C49.2256 20.6277 49.562 20.9908 49.8983 21.3448C50.5165 21.9983 51.1711 22.5521 52.2257 22.1527C52.2984 22.6338 52.3711 23.0513 52.4348 23.4779C52.5439 24.2223 52.7257 24.9485 53.0439 25.6383C53.1893 25.956 53.362 26.2284 53.562 26.4644L53.3257 26.5188C53.0711 26.31 52.6984 26.2737 52.2347 26.428C51.6802 26.6096 51.1984 26.9273 50.6893 27.1996C49.7802 27.6898 48.871 28.1709 47.8165 28.5158C47.8892 28.1618 48.1256 28.0347 48.2983 27.8622C48.7438 27.4084 49.1892 26.9636 49.5438 26.428C49.7983 26.0468 50.0256 25.6383 50.1074 25.1754C50.2074 24.6035 50.1529 24.077 49.6711 23.6867C49.1529 23.2601 48.571 23.1965 47.9619 23.4325C47.4347 23.6322 47.0346 24.0135 46.6892 24.4401C46.2164 25.0211 45.771 25.6202 45.3073 26.2102C44.271 27.5173 42.8709 28.3343 41.3527 29.3055C41.4891 28.7064 41.7527 28.4069 41.9254 28.0529C42.5436 26.773 42.8891 25.4568 42.5164 24.0407C42.3982 23.5959 42.3255 23.0876 41.78 22.9605C41.2709 22.8425 41.0072 23.2601 40.7254 23.5778C40.3436 24.0044 40.0072 24.4764 39.6072 24.894C39.0617 25.4568 38.689 25.4114 38.3436 24.7124C38.0617 24.1497 37.8708 23.5415 37.6345 22.9514C37.4072 22.3887 37.1799 21.8259 36.7799 21.3629C36.589 21.1451 36.3708 20.9363 36.0344 21.0362C35.689 21.1451 35.6526 21.4446 35.6708 21.7442C35.6981 22.3161 35.7344 22.897 35.789 23.4689C35.9162 24.8305 35.8617 26.1739 35.5799 27.5082C35.3071 28.7881 34.5798 29.6868 33.4071 30.2132C33.1253 30.0862 33.1889 29.8229 33.1253 29.6142C33.0253 29.2601 32.8525 28.9515 32.4343 28.9515C32.0889 28.9515 32.0707 28.7518 32.0616 28.5067C32.0525 27.6807 31.7161 27.0181 31.0889 26.4734C30.507 25.9651 30.2616 25.2389 30.0434 24.5128C29.8434 23.8229 29.6797 23.1239 29.4979 22.425C29.407 22.0619 29.2797 21.7079 29.0706 21.3902C28.7797 20.9545 28.3888 20.8001 27.9615 20.9091C27.5615 21.018 27.2706 21.3902 27.2251 21.8713C27.1888 22.198 27.2979 22.4976 27.3888 22.7971C27.4706 23.0422 27.5615 23.2873 27.6888 23.5143C29.0797 26.0468 28.4888 28.534 27.4797 30.9939C27.4615 31.0302 27.3888 31.0484 27.3251 31.0847C27.1342 30.8487 27.3979 30.3948 27.016 30.2859C26.5888 30.1588 26.4342 30.5764 26.2251 30.8214C25.8251 31.2753 25.4887 31.7836 25.016 32.1739C24.3887 32.7004 24.0069 32.5733 23.7523 31.7927C23.6069 31.3479 23.5887 30.885 23.5978 30.422C23.6069 29.0967 23.6342 27.7715 23.6251 26.4462C23.616 24.9394 23.3523 23.4689 22.8796 22.0347C22.7796 21.7351 22.6705 21.4356 22.5251 21.1542C22.1978 20.5188 21.6614 20.2555 20.9614 20.319C19.1432 20.4643 17.4886 22.1163 17.3522 23.9499C17.2795 24.9303 17.3613 25.9106 17.4068 26.891C17.4795 28.6792 17.4249 30.4674 17.0249 32.2193C16.8704 32.891 16.6704 33.5537 16.4067 34.1982C15.9067 35.4054 15.0885 36.2678 13.834 36.7307C13.3703 36.9032 12.8521 37.003 12.543 37.466C14.1794 37.0484 15.6885 36.4675 16.5067 34.8063C17.2249 33.3267 17.5431 31.7564 17.7068 30.1406C17.834 28.8789 17.8522 27.6081 17.7522 26.3464C17.6977 25.6565 17.6886 24.9666 17.7068 24.2767C17.7613 22.5793 18.9068 21.1905 20.5523 20.7911C21.5068 20.5551 22.0069 20.8183 22.3523 21.7805C22.9069 23.3145 23.1796 24.9031 23.2069 26.5279C23.2251 27.7079 23.1796 28.888 23.1705 30.068C23.1614 30.7307 23.1342 31.3933 23.3523 32.0378C23.6978 33.0454 24.3705 33.2541 25.216 32.6097C25.4615 32.419 25.6706 32.1739 25.8978 31.9561C26.1251 31.7382 26.2524 31.4296 26.5979 31.2662C26.7433 31.4659 26.6524 31.711 26.7251 31.9016C26.8524 32.2466 27.107 32.3373 27.3888 32.1104C27.5979 31.947 27.7252 31.711 27.8342 31.475C28.607 29.8683 29.0434 28.18 29.0434 26.3917C29.0434 25.4205 28.7615 24.5218 28.3434 23.6504C28.1161 23.1875 27.8706 22.7245 27.7888 22.1981C27.7433 21.9076 27.7342 21.5899 28.0797 21.4719C28.4343 21.3448 28.607 21.6171 28.7343 21.8894C28.9615 22.3614 29.0525 22.8698 29.1888 23.369C29.3616 24.0044 29.5343 24.6489 29.7343 25.2752C29.9434 25.9106 30.2707 26.4916 30.7889 26.9364C31.3161 27.3902 31.5252 27.953 31.507 28.6157C31.507 28.7881 31.507 28.9606 31.5161 29.1331C31.5343 29.5052 31.6616 29.7775 32.098 29.6323C32.4616 29.5143 32.5343 29.7049 32.6071 29.9954C32.8798 31.1119 32.898 31.121 32.0798 31.8925C30.9707 32.9455 29.8252 33.9622 28.7161 35.0151C28.3524 35.3601 27.9524 35.4781 27.4615 35.4599C26.5251 35.4145 25.6433 35.1876 24.7615 34.8971C23.7251 34.5522 23.4432 34.6066 22.9523 35.5961C22.4978 36.5129 21.6705 36.9758 20.925 37.5477C20.4795 37.8835 19.925 37.7564 19.4613 37.4569C19.125 37.239 18.825 36.9577 18.4977 36.7216C18.034 36.3949 17.7704 36.4493 17.5522 36.9667C17.3886 37.3298 17.2249 37.6021 16.8068 37.7292C16.4704 37.8291 16.2522 38.1377 16.034 38.4009C15.3976 39.1634 14.6067 39.7444 13.7794 40.2708C13.3885 40.5159 12.9612 40.7066 12.4976 40.761C12.1612 40.7973 11.7976 40.8609 11.6066 40.4342C11.5339 40.2708 11.3794 40.171 11.1794 40.2255C10.9794 40.2799 10.9066 40.4524 10.9521 40.6339C11.0884 41.1241 10.743 41.3057 10.4157 41.5054C9.87024 41.8321 9.27933 42.0681 8.66113 42.2134C8.2884 42.3042 7.93384 42.404 7.77929 42.8125C7.67019 43.0848 7.42474 43.1756 7.14291 43.1846C6.47926 43.1846 5.80653 43.2845 5.16106 43.112C4.36104 42.9032 3.5792 42.8306 2.7701 43.0212C2.57918 43.0666 2.37009 43.0576 2.17009 43.0666C1.83372 43.0757 1.67007 42.9396 1.60643 42.5765C1.15188 40.2345 1.57007 38.0832 2.85192 36.0499C3.5883 34.879 4.17921 33.6263 4.82468 32.4009C5.59742 30.9213 5.82471 29.2874 6.11562 27.6716C6.19744 27.1905 6.27016 26.7004 6.3338 26.2193C6.56108 24.4855 7.07928 22.8607 7.93384 21.3175C8.65204 20.0377 9.2975 18.7124 9.94297 17.3962C10.2066 16.8515 10.5521 16.552 11.1975 16.5429C12.2703 16.5248 13.1158 15.9983 13.834 15.2267C14.2976 14.7366 14.6885 14.201 15.0158 13.6201L15.1522 13.6927Z" fill="#6CC080"/>
<path d="M70.5436 40.8306C71.479 40.304 71.3155 39.3235 71.479 38.4972C71.597 37.898 71.2883 37.4259 70.7343 37.1626C70.2893 36.9538 69.8353 36.7813 69.3721 36.6178C68.0191 36.1457 67.338 35.1833 67.2835 33.7578C67.2835 33.6126 67.2835 33.4673 67.2653 33.322C67.1836 32.6501 66.9566 32.4141 66.2846 32.3233C65.8033 32.2597 65.3129 32.2416 64.8225 32.1962C63.3786 32.0782 62.1799 31.4335 61.181 30.4076C60.6361 29.8446 60.1185 29.2726 59.6191 28.6734C58.7019 27.5566 57.5213 26.9937 56.0865 26.9483C55.9684 26.9483 55.8595 26.9392 55.7414 26.9302C54.6244 26.8575 53.8707 26.2946 53.4257 25.2596C53.0443 24.3698 52.9263 23.4346 52.7901 22.4904C52.7719 22.3451 52.7719 22.1998 52.7537 22.0636C52.6538 21.4462 52.4722 21.3101 51.882 21.5734C51.3643 21.8094 50.9829 21.6551 50.6288 21.31C50.1565 20.847 49.7025 20.3567 49.2666 19.8664C48.4584 18.9494 47.4867 18.4682 46.2335 18.4864C44.8895 18.5045 44.4536 18.1141 44.1085 16.8158C43.8633 15.9078 43.7271 15.808 42.7827 15.8624C42.5193 15.8806 42.2651 15.9078 42.0108 15.9442C40.7394 16.153 39.4862 16.1076 38.2512 15.7172C37.7608 15.5628 37.2614 15.4175 36.7619 15.2723C36.3896 15.1633 36.0173 15.1088 35.7085 15.4085C35.5541 15.5537 35.427 15.5447 35.2454 15.4811C34.7459 15.2904 34.4916 15.6082 34.3009 15.9896C34.0194 16.5343 33.9195 17.1336 33.7379 17.7146C33.5472 18.3502 33.529 18.3774 32.9115 18.1323C31.8127 17.6965 30.7775 17.7873 29.7604 18.3865C29.3608 18.6226 28.9431 18.8041 28.489 18.9131C27.9714 19.0311 27.5083 18.904 27.0905 18.6316C26.6183 18.3139 26.5366 17.9779 26.7364 17.4423C26.9725 16.8067 26.9543 16.7795 26.4004 16.4254C24.793 15.3994 23.0585 14.8819 21.1515 15.0544C20.5522 15.1089 20.0618 15.0181 19.6622 14.4551C19.3262 13.983 18.7541 13.7288 18.1638 13.6652C17.3102 13.5744 16.4384 13.5381 15.5757 13.4836C15.3487 13.4655 15.1943 13.5472 15.1126 13.7016L14.9219 13.6289C15.1761 13.184 15.385 12.7119 15.5576 12.2216C15.9026 11.2138 16.4838 10.3785 17.2103 9.61586C18.5362 8.2358 19.971 7.01916 21.6419 6.06583C23.3401 5.09434 24.9656 3.98665 26.8726 3.42373C27.7353 3.16951 28.5889 2.94253 29.497 2.95161C30.4596 2.95161 31.3768 2.70647 32.2759 2.36145C33.7561 1.78945 35.2545 1.28101 36.8527 1.13574C37.0253 1.11758 37.1978 1.08126 37.3704 1.09034C40.1401 1.16298 42.9007 0.845213 45.6705 0.899689C46.3879 0.908769 46.406 0.908755 46.5513 1.58971C46.6785 2.19802 47.078 2.53396 47.6048 2.75187C48.4402 3.09688 49.3211 3.32387 50.211 3.30572C52.5812 3.2694 54.5972 4.11377 56.3771 5.61186C57.6303 6.67414 58.9561 7.64563 60.1003 8.83503C60.3455 9.08925 60.4727 9.36164 60.5816 9.70665C61.072 11.1593 61.6714 12.5122 62.9972 13.4927C65.6398 15.4448 65.6035 15.4902 66.6478 18.6135C67.4833 21.1012 68.3097 23.589 69.1451 26.0676C69.3449 26.6669 69.581 27.257 69.8807 27.8199C70.1168 28.2558 70.3801 28.6825 70.816 28.9367C71.2701 29.2 71.3155 29.5723 71.2792 30.0444C71.2065 30.9069 71.152 31.7695 71.1884 32.632C71.2429 33.8486 71.6969 34.811 72.8502 35.3467C73.4859 35.6463 73.6947 36.1548 73.6403 36.8267C73.5585 37.8345 73.2316 38.7969 73.1136 39.8047C73.0954 40.0044 72.9501 40.0861 72.7685 40.1406C72.0238 40.3676 71.3155 40.6854 70.5164 41.0667C70.5436 40.876 70.5345 40.8306 70.5436 40.8306Z" fill="#BDEAC8"/>
<path d="M13.5174 55.4822C13.5533 55.6851 13.5802 55.9064 13.3741 56.0355C13.159 56.183 12.9977 56.0171 12.8543 55.888C12.2718 55.3716 11.6983 54.8552 11.1248 54.3388C10.9993 54.2282 10.847 54.0714 10.9993 53.9054C11.1517 53.7302 11.313 53.8686 11.4295 53.9977C11.8686 54.4956 12.3883 54.8829 12.9887 55.39C12.9708 54.7169 12.7378 54.2466 12.5944 53.7671C12.4511 53.3153 12.0657 52.9557 12.0478 52.4485C12.3704 52.3286 12.46 52.5407 12.5586 52.7067C13.0783 53.555 13.3472 54.5048 13.5174 55.4822Z" fill="#8ADD9E"/>
<path d="M5.00956 43.6824C5.00048 43.6824 4.99141 43.6824 4.98233 43.6824C4.97324 43.6733 4.96416 43.6733 4.95508 43.6733C4.96416 43.6733 4.98232 43.6733 4.9914 43.6733C5.00048 43.6733 5.00956 43.6824 5.00956 43.6824Z" fill="#8ADD9E"/>
<path d="M2.81233 44.1468C3.48391 43.8201 4.1918 43.684 4.93599 43.684C4.94506 43.684 4.95414 43.6931 4.96322 43.6931C4.9723 43.6931 4.98136 43.6931 4.99044 43.6931C5.47144 44.0833 5.73463 44.5732 5.80723 45.2084C6.01597 46.9595 6.46067 48.6562 7.29561 50.2259C7.95812 51.478 8.41189 52.8118 8.77491 54.1818C9.0381 55.1799 9.32851 56.178 9.61892 57.167C9.70968 57.4664 9.82767 57.7658 9.99102 58.038C10.2542 58.4916 10.5355 58.5189 10.9712 58.2104C11.2797 57.9926 11.5702 57.7567 11.8969 57.5843C13.3399 56.804 14.3745 57.0218 15.1822 58.4372C16.1442 60.143 17.2877 61.7399 18.2588 63.4275C19.1482 64.97 20.328 66.1767 21.7074 67.2383C22.5061 67.8553 23.4408 68.2001 24.4845 68.6265C24.5571 67.4198 25.138 66.7846 26.3994 66.703C25.6099 65.8954 24.9837 65.1515 24.421 64.353C23.214 62.6381 21.9978 60.9142 20.7908 59.1994C20.6638 59.0179 20.5821 58.7366 20.3643 58.6731C19.611 58.4644 19.6564 57.8384 19.6564 57.2849C19.6564 57.0309 19.6382 56.8766 19.4476 56.6952C18.1317 55.5338 16.8521 54.3361 15.5271 53.1838C14.2202 52.0587 13.1765 50.7431 12.3869 49.2188C11.6155 47.7398 10.8441 46.2609 10.0727 44.7819C9.94564 44.5369 9.88212 44.2375 9.4465 44.0107C9.70061 44.8908 9.74598 45.6802 9.79136 46.4605C9.5554 46.4786 9.47372 46.3607 9.42834 46.2246C9.34666 45.9524 9.28313 45.6711 9.21053 45.3898C8.94734 44.301 8.08517 43.6568 6.96889 43.6931C6.31546 43.7113 5.66203 43.6841 5.0086 43.675C5.0086 43.6659 4.99951 43.6659 4.99044 43.6659C4.98136 43.6659 4.96322 43.6659 4.95415 43.6659C4.0829 43.2395 3.17536 43.4844 2.28596 43.5842C2.05907 43.6115 1.70513 43.4935 1.7142 43.9109C1.7142 44.2194 2.03185 44.3736 2.43117 44.2738C2.54915 44.2557 2.68527 44.2103 2.81233 44.1468ZM81.2787 36.0534C81.433 37.5959 81.1154 39.0113 80.0535 40.1455C78.5107 41.7786 77.7302 43.8383 76.7864 45.7981C76.3598 46.6782 76.3235 47.6945 76.2055 48.6653C76.0875 49.6089 76.0512 50.5616 75.8697 51.4962C75.2163 54.8442 73.4103 57.3393 70.3065 58.8364C69.2719 59.3355 68.2554 59.898 67.1755 60.2882C66.876 60.397 66.7671 60.5513 66.8306 60.8689C67.1119 62.2208 66.5129 63.1916 65.5237 64.0354C64.7705 64.6706 63.9537 65.1968 63.0733 65.6505C62.5288 65.9318 62.1567 66.2675 62.1477 66.957C62.1295 67.7645 61.7302 68.436 61.1584 69.0076C60.623 69.5339 60.0421 70.0238 59.3524 70.3323C58.4086 70.7587 57.501 71.2668 56.5935 71.7659C55.568 72.3375 54.4426 72.5734 53.3082 72.773C51.5112 73.0997 49.7778 73.5624 48.2441 74.633C47.5816 75.1049 46.792 75.3045 45.9843 75.4224C44.0058 75.7037 42.0818 75.622 40.2395 74.7419C39.9037 74.5786 39.5498 74.4516 39.214 74.2882C37.771 73.5805 36.2735 73.4898 34.7579 73.9707C33.6144 74.3245 32.4528 74.4425 31.2639 74.3518C29.8118 74.2338 29.2673 73.8255 28.8135 72.4645C28.6683 72.029 28.5231 71.5935 28.3325 71.167C28.0603 70.541 27.552 70.2053 26.8895 70.0419C24.185 69.3887 21.7437 68.2273 19.7471 66.2402C19.2117 65.7049 18.7216 65.1515 18.3586 64.4891C17.8413 63.5546 17.2605 62.6654 16.6524 61.7943C16.0353 60.9233 15.5815 59.9525 15.0551 59.027C14.1113 57.3484 13.2128 57.1579 11.6246 58.2376C11.1345 58.5733 10.7443 59.0361 10.2905 59.4353C10.0001 59.1631 10.1453 58.9272 9.99102 58.7548C9.36482 58.038 9.15608 57.1216 8.90197 56.2415C8.65693 55.4158 8.4482 54.572 8.22131 53.7373C7.94905 52.7301 7.62232 51.7502 7.12317 50.8338C6.17025 49.0917 5.62573 47.2136 5.36254 45.2628C5.23549 44.3101 4.83616 44.0651 3.87417 44.2647C3.48392 44.3464 3.1209 44.546 2.73973 44.673C1.83219 44.9725 1.35119 44.7184 1.15153 43.802C0.534398 41.0074 0.688683 38.3399 2.27689 35.8356C3.012 34.6743 3.59283 33.404 4.23718 32.1791C4.95414 30.8 5.18102 29.2847 5.44421 27.7876C5.58942 26.962 5.69833 26.1363 5.82539 25.3106C6.02505 24.0767 6.36992 22.9062 6.95075 21.7902C7.78569 20.1842 8.61155 18.5692 9.41927 16.9451C9.72783 16.319 10.1453 15.9561 10.8895 15.9561C11.9695 15.9561 12.7953 15.4026 13.4851 14.6041C14.1476 13.8238 14.6649 12.9619 14.9916 12.0001C15.3728 10.8841 16.0262 9.95863 16.8339 9.11481C18.1771 7.71752 19.6564 6.50172 21.3444 5.5218C23.1141 4.48745 24.8203 3.3805 26.8169 2.79981C27.6791 2.54576 28.5322 2.33708 29.4397 2.34615C30.3745 2.35522 31.2639 2.09208 32.126 1.76545C33.5509 1.21198 34.9939 0.722022 36.5276 0.567777C36.7818 0.540557 37.0449 0.495186 37.2991 0.495186C40.2123 0.540552 43.1074 0.232056 46.0206 0.286496C46.919 0.304642 46.9372 0.295573 47.0098 1.17568C47.0552 1.71101 47.3274 2.01043 47.7994 2.20097C48.5526 2.50946 49.3513 2.71815 50.1499 2.7C52.7727 2.64556 54.9599 3.66176 56.9111 5.32217C58.2271 6.43819 59.5974 7.4907 60.8045 8.74282C61.7302 9.70459 62.8374 10.4395 63.9627 11.1382C64.6434 11.5646 65.3331 11.982 66.0229 12.4084C67.1845 13.1343 68.1647 14.0507 68.9905 15.1485C69.6712 16.0468 70.3791 16.9178 71.096 17.7798C72.4392 19.4039 73.3014 21.2821 73.9639 23.251C74.2997 24.2309 74.5629 25.238 74.8261 26.2361C74.9259 26.59 75.0802 26.7805 75.4613 26.8077C76.0694 26.844 76.5322 27.1707 76.9588 27.588C78.2566 28.8855 79.3819 30.2919 80.0263 32.0249C80.1897 32.4604 80.3984 32.8687 80.589 33.2861C80.952 34.1843 81.1789 35.1007 81.2787 36.0534ZM79.6996 39.6827C80.4438 38.8661 80.7523 37.859 80.7251 36.7339C80.7069 35.7086 80.5618 34.7287 80.1443 33.7851C79.8992 33.2316 79.6361 32.6872 79.4182 32.1247C78.7648 30.4461 77.6576 29.1033 76.387 27.8693C76.1783 27.6697 75.9514 27.4973 75.6519 27.4429C75.2708 27.3703 75.1437 27.4701 75.2435 27.8239C75.4977 28.7675 75.7064 29.7293 76.0603 30.6366C76.3417 31.3534 76.4415 32.0975 76.4415 32.8052C76.4324 34.1208 76.5958 35.382 76.9951 36.616C77.4126 37.9044 77.4852 39.2109 77.3309 40.5447C77.3037 40.7443 77.2946 41.1072 76.9951 41.0619C76.6593 41.0074 76.8317 40.6808 76.868 40.4902C77.1221 39.3289 77.0223 38.1765 76.6684 37.0787C76.2691 35.8629 76.0785 34.6198 75.9333 33.3586C75.7699 31.9523 75.5158 30.5731 74.6536 29.3755C74.2906 28.8674 74.1091 28.2504 74.2634 27.6515C74.4358 26.962 74.2543 26.3541 74.0819 25.7189C73.9004 25.0838 73.737 24.4396 73.5283 23.8135C72.8658 21.8083 72.0399 19.8848 70.6877 18.2244C69.9253 17.2899 69.163 16.3462 68.4188 15.3935C67.847 14.6677 67.2208 13.9872 66.4676 13.4428C64.9066 12.3086 63.1641 11.4557 61.585 10.3125C61.6485 11.2289 62.0024 11.9548 62.6831 12.5082C63.3093 13.0163 63.9446 13.5154 64.589 13.9962C65.4148 14.6223 66.0047 15.4207 66.3768 16.3916C66.5674 16.8997 66.7671 17.4078 66.9486 17.934C67.7381 20.284 68.5095 22.634 69.29 24.984C69.5441 25.7462 69.7983 26.5174 70.1431 27.2432C70.3791 27.7423 70.6423 28.2322 71.1414 28.5135C71.6769 28.8129 71.7949 29.2575 71.7495 29.82C71.686 30.7092 71.5952 31.5984 71.6406 32.4967C71.686 33.5582 72.049 34.393 73.0745 34.8648C73.9367 35.264 74.1817 35.9899 74.0909 36.87C74.0456 37.3237 73.9367 37.7773 73.8731 38.231C73.855 38.3853 73.7098 38.603 73.9457 38.6665C74.2362 38.7391 74.1273 38.8661 74.0909 39.0385C73.9004 39.8007 73.9004 39.8007 74.6627 39.9731C75.4795 40.1545 76.2418 40.4539 76.6139 41.2524C76.9406 41.942 77.4126 42.6225 77.1403 43.4844C77.34 43.4391 77.3853 43.3211 77.4307 43.2213C77.9571 41.8966 78.7376 40.7352 79.6996 39.6827ZM75.9423 44.673C76.7138 43.7566 76.5776 42.7586 76.2146 41.7424C76.0331 41.2252 75.6428 40.8895 75.1437 40.6808C74.6264 40.463 74.0819 40.3723 73.5373 40.463C71.9491 40.7443 70.488 41.3522 69.2991 42.4682C67.8833 43.802 66.8215 45.408 65.8867 47.1138C65.1516 48.4566 64.7795 49.8902 64.8884 51.2965C64.8975 52.349 64.9883 53.2745 65.1335 54.1818C65.2333 54.8079 65.3785 55.4249 65.6962 55.9874C65.8777 56.3141 66.1318 56.5409 66.522 56.5137C66.9032 56.4865 67.3116 56.7496 67.6837 56.423C67.8561 56.2687 67.9741 56.432 68.1102 56.5591C68.4642 56.8948 68.8272 57.1851 69.3989 57.0762C71.1324 56.7314 72.5844 55.8604 73.7642 54.6083C74.6082 53.71 75.1618 52.5668 75.3252 51.2965C75.4432 50.3801 75.5339 49.4637 75.6338 48.5473C75.7245 47.7489 75.7971 46.9595 75.906 46.1701C75.9605 45.8072 76.3326 45.4624 75.8244 45.1176C75.6701 45.0178 75.8334 44.8091 75.9423 44.673ZM73.5555 36.7702C73.6099 36.0988 73.4012 35.5816 72.7659 35.2912C71.6133 34.7559 71.1596 33.8032 71.1051 32.5783C71.0688 31.7073 71.1233 30.8453 71.1959 29.9925C71.2322 29.5297 71.1868 29.1577 70.733 28.8855C70.2974 28.6315 70.0342 28.205 69.7983 27.7695C69.4988 27.207 69.2628 26.6172 69.0631 26.0184C68.2282 23.5323 67.4023 21.0462 66.5674 18.5692C65.5237 15.448 65.5509 15.4026 62.9191 13.4518C61.594 12.4719 60.9951 11.12 60.505 9.66829C60.387 9.3235 60.26 9.0513 60.024 8.79725C58.8805 7.60864 57.5555 6.6378 56.3031 5.57623C54.5243 4.07006 52.5095 3.22625 50.1408 3.27162C49.2514 3.28977 48.3711 3.06293 47.5362 2.71814C47.0098 2.50038 46.6105 2.16467 46.4834 1.55676C46.3382 0.87626 46.3201 0.885346 45.6031 0.867199C42.8351 0.821833 40.0762 1.13031 37.3081 1.05773C37.1357 1.04865 36.9633 1.09402 36.7908 1.10309C35.1936 1.24826 33.6961 1.75637 32.2168 2.32799C31.3274 2.67277 30.4017 2.91775 29.4397 2.91775C28.5322 2.91775 27.6791 3.1446 26.8169 3.38958C24.9111 3.95212 23.2866 5.04998 21.5894 6.02989C19.9196 6.99166 18.4766 8.19842 17.1606 9.57756C16.4346 10.3397 15.8538 11.1745 15.5089 12.1816C15.3365 12.6715 15.1277 13.1434 14.8736 13.5879C14.5469 14.1596 14.1566 14.6949 13.6938 15.1939C12.9768 15.9651 12.1237 16.4823 11.0619 16.5095C10.4176 16.5186 10.0727 16.818 9.80951 17.3624C9.16516 18.6781 8.52079 20.0028 7.80383 21.2821C6.95074 22.8155 6.43344 24.4487 6.20655 26.1817C6.14302 26.6626 6.07042 27.1525 5.98874 27.6334C5.69832 29.2484 5.47144 30.8816 4.70003 32.3606C4.06475 33.5855 3.46577 34.8467 2.73066 36.008C1.45102 38.0405 1.03354 40.1908 1.48732 42.5317C1.55992 42.8947 1.71421 43.0398 2.05 43.0217C2.24966 43.0126 2.45839 43.0217 2.64898 42.9763C3.45669 42.7858 4.24625 42.8584 5.03582 43.0671C5.68925 43.2394 6.35176 43.1396 7.01427 43.1396C7.28653 43.1396 7.54065 43.0489 7.64955 42.7677C7.81291 42.3594 8.16685 42.2505 8.52987 42.1688C9.147 42.0236 9.73691 41.7877 10.2814 41.4611C10.5991 41.2705 10.9439 41.08 10.8169 40.5901C10.7715 40.4086 10.8441 40.2453 11.0438 40.1818C11.2434 40.1273 11.3977 40.218 11.4703 40.3904C11.6609 40.8078 12.0239 40.7534 12.3597 40.7171C12.8226 40.6626 13.2491 40.4721 13.6394 40.2271C14.4743 39.7009 15.2548 39.1202 15.8901 38.358C16.1079 38.0949 16.3257 37.7864 16.6615 37.6866C17.0699 37.5596 17.2423 37.2964 17.4057 36.9244C17.6326 36.4073 17.8957 36.3619 18.3495 36.6795C18.6762 36.9154 18.9757 37.1967 19.3115 37.4144C19.7744 37.7138 20.328 37.8409 20.7727 37.5051C21.5168 36.9426 22.3336 36.4708 22.7965 35.5544C23.2866 34.5654 23.577 34.5109 24.6025 34.8557C25.4828 35.1461 26.3631 35.382 27.2979 35.4183C27.788 35.4364 28.1873 35.3185 28.5503 34.9737C29.6575 33.9212 30.801 32.905 31.9082 31.8525C32.725 31.0812 32.7069 31.0722 32.4346 29.9561C32.362 29.6658 32.2894 29.4753 31.9264 29.5932C31.4908 29.7384 31.3637 29.4662 31.3456 29.0942C31.3365 28.9218 31.3365 28.7494 31.3365 28.577C31.3456 27.9056 31.1459 27.343 30.6195 26.8985C30.1022 26.4539 29.7755 25.8732 29.5668 25.238C29.3671 24.612 29.1947 23.9678 29.0222 23.3326C28.8861 22.8336 28.7954 22.3165 28.5685 21.8537C28.4414 21.5906 28.269 21.3184 27.915 21.4363C27.5702 21.5543 27.5792 21.8809 27.6246 22.1622C27.7063 22.6794 27.9513 23.1421 28.1782 23.6139C28.5957 24.485 28.877 25.3832 28.877 26.3541C28.877 28.1415 28.4414 29.8291 27.67 31.4351C27.5611 31.671 27.434 31.8978 27.2253 32.0702C26.944 32.2971 26.6808 32.2154 26.5628 31.8615C26.4902 31.6619 26.5809 31.4169 26.4357 31.2264C26.0909 31.3897 25.9547 31.6982 25.7369 31.916C25.51 32.1337 25.3013 32.3787 25.0563 32.5693C24.2213 33.2135 23.5498 32.9957 23.1958 31.9976C22.978 31.3534 23.0052 30.6911 23.0143 30.0287C23.0234 28.8492 23.0778 27.6697 23.0506 26.4902C23.0234 24.866 22.7511 23.2782 22.1975 21.7448C21.8526 20.7831 21.3626 20.5199 20.4006 20.7558C18.7579 21.1551 17.6053 22.5433 17.5599 24.24C17.5418 24.9295 17.5509 25.6282 17.6053 26.3087C17.7052 27.579 17.6779 28.8401 17.5599 30.1013C17.3966 31.7164 17.0789 33.286 16.362 34.765C15.5543 36.4254 14.0387 37.0152 12.4051 37.4235C12.7046 36.9607 13.231 36.8609 13.6938 36.6885C14.9371 36.2258 15.763 35.3638 16.2622 34.1571C16.5253 33.5129 16.725 32.8596 16.8793 32.1791C17.2786 30.4189 17.3331 28.6405 17.2605 26.8531C17.2242 25.8732 17.1425 24.8933 17.206 23.9134C17.3421 22.0805 18.9939 20.4383 20.809 20.284C21.5168 20.2296 22.0523 20.4836 22.3699 21.1188C22.5151 21.4 22.624 21.6995 22.7239 21.9989C23.1958 23.4325 23.459 24.9023 23.4681 26.4085C23.4771 27.7332 23.4499 29.0579 23.4408 30.3826C23.4408 30.8453 23.4499 31.3081 23.5951 31.7527C23.8492 32.533 24.2304 32.6509 24.8566 32.1337C25.3285 31.7436 25.6643 31.2355 26.0637 30.7818C26.2724 30.5368 26.4267 30.1195 26.8532 30.2465C27.2344 30.3554 26.9803 30.809 27.1618 31.0449C27.2253 31.0086 27.2979 30.9905 27.3161 30.9542C28.3325 28.4863 28.9224 26.0093 27.5248 23.4778C27.3977 23.251 27.307 23.006 27.2253 22.761C27.1255 22.4616 27.0256 22.1622 27.062 21.8356C27.1164 21.3547 27.3977 20.9736 27.7971 20.8738C28.2236 20.7649 28.6138 20.9192 28.9043 21.3547C29.113 21.6723 29.2401 22.0261 29.3308 22.389C29.5123 23.0877 29.6757 23.7863 29.8753 24.4759C30.0841 25.2018 30.3291 25.9186 30.919 26.4357C31.5452 26.9801 31.881 27.6425 31.8901 28.4681C31.8901 28.7131 31.9082 28.9127 32.2622 28.9127C32.6796 28.9036 32.843 29.2121 32.9519 29.5751C33.0154 29.7838 32.9519 30.0469 33.2333 30.1739C34.4131 29.6386 35.13 28.7403 35.4023 27.4701C35.6927 26.1363 35.7472 24.7935 35.611 23.4325C35.5566 22.8608 35.5203 22.2802 35.493 21.7085C35.484 21.4182 35.5112 21.1097 35.8561 21.0008C36.1828 20.901 36.4097 21.1097 36.6003 21.3275C36.9996 21.7902 37.2265 22.3527 37.4533 22.9153C37.6893 23.5051 37.889 24.113 38.1612 24.6755C38.5061 25.3741 38.8691 25.4195 39.4227 24.857C39.822 24.4396 40.1578 23.9678 40.539 23.5413C40.8203 23.2238 41.0926 22.8064 41.5918 22.9244C42.1363 23.0423 42.2089 23.5595 42.3269 24.0041C42.699 25.4195 42.3632 26.7351 41.737 28.0145C41.5645 28.3683 41.2923 28.6768 41.1652 29.2666C42.6808 28.2957 44.0875 27.4791 45.113 26.1726C45.5759 25.5828 46.0206 24.984 46.4925 24.4033C46.8374 23.9769 47.2458 23.5958 47.7631 23.3962C48.3711 23.1603 48.9519 23.2238 49.4692 23.6502C49.9502 24.0494 50.0047 24.5757 49.9049 25.1382C49.8232 25.601 49.5963 26.0093 49.3422 26.3904C48.9882 26.9257 48.5435 27.3703 48.0988 27.8239C47.9355 27.9963 47.6905 28.1234 47.6179 28.4772C48.6797 28.1324 49.5872 27.6516 50.4857 27.1616C50.9939 26.8894 51.4749 26.5718 52.0285 26.3904C52.4914 26.2361 52.8635 26.2724 53.1176 26.4811C53.3354 26.6535 53.4715 26.962 53.4987 27.3884C53.526 27.7604 53.5078 28.1233 53.5078 28.5498C53.8073 28.4409 54.0796 28.3411 54.3428 28.2594C54.615 28.1778 54.8964 28.0871 55.1777 28.0417C55.8765 27.9237 56.2668 28.1778 56.4936 28.8492C56.5935 29.1577 56.6207 29.4662 56.6298 29.7838C56.6388 30.2465 56.6389 30.7092 56.657 31.1629C56.6661 31.5621 56.8022 31.8888 57.1562 32.1156C57.5555 32.3696 57.855 32.7054 57.9457 33.1953C57.9911 33.4585 58.1454 33.4675 58.3904 33.4222C59.2163 33.2498 59.4069 33.3677 59.6882 34.1117C59.8334 34.4928 59.9242 34.883 60.0784 35.255C60.4778 36.2077 60.8952 36.2893 61.585 35.5453C61.8754 35.2277 62.1204 34.8648 62.3655 34.511C62.5742 34.1934 62.8283 34.1299 63.1823 34.2569C63.9446 34.5382 64.5345 35.0009 64.9247 35.7268C65.2605 36.3438 65.4874 36.997 65.5782 37.6866C65.6417 38.2038 65.8504 38.3852 66.3587 38.3399C66.6945 38.3036 67.0575 38.2945 67.3751 38.485C67.5022 38.5576 67.6202 38.6575 67.5748 38.8208C67.5294 38.9932 67.3842 39.0294 67.2299 38.9841C66.8306 38.8661 66.4313 38.9115 66.032 38.9115C65.2424 38.9115 65.197 38.8934 65.0881 38.1403C64.9792 37.4235 64.7977 36.7339 64.471 36.0806C64.2169 35.5816 63.8538 35.1824 63.3275 34.9465C63.0552 34.8194 62.8465 34.8194 62.674 35.1098C62.5288 35.3548 62.3473 35.5816 62.1567 35.7994C61.0858 37.0515 60.1238 36.8972 59.5339 35.382C59.3978 35.0372 59.307 34.6652 59.1709 34.3204C58.9894 33.8758 58.8896 33.8395 58.463 34.0573C58.0546 34.266 57.6553 34.4928 57.2469 34.7015C57.1017 34.7741 56.9565 34.7196 56.8657 34.5835C56.7931 34.4837 56.8204 34.3658 56.893 34.266C56.9293 34.2206 56.9656 34.1752 57.0019 34.1299C57.5555 33.277 57.5464 33.159 56.7387 32.5148C56.3394 32.1973 56.1669 31.8071 56.1397 31.3262C56.1125 30.8363 56.1216 30.3463 56.0943 29.8564C56.0853 29.6023 56.058 29.3392 55.9945 29.0851C55.9037 28.6768 55.6496 28.5226 55.2231 28.6224C54.6332 28.7585 54.0614 28.9672 53.5441 29.2847C53.3717 29.3936 53.2174 29.5206 53.0541 29.6386C52.927 29.7293 52.7909 29.7656 52.6638 29.6567C52.573 29.5751 52.5549 29.4571 52.5912 29.3392C52.6547 29.1486 52.7273 28.9581 52.7909 28.7676C52.927 28.3502 53.0087 27.9328 52.9724 27.4882C52.9179 26.9166 52.7092 26.7533 52.1828 26.971C51.7018 27.1616 51.248 27.4247 50.7943 27.6697C49.805 28.205 48.8067 28.7222 47.7268 29.0488C47.391 29.1486 46.9553 29.3755 46.7194 28.9309C46.5106 28.5498 46.8827 28.3048 47.1005 28.0598C47.636 27.4973 48.2259 26.9801 48.6978 26.3631C49.0155 25.9458 49.3059 25.5193 49.3785 24.984C49.4874 24.1674 48.8884 23.6593 48.0988 23.8861C47.8175 23.9678 47.5725 24.1311 47.3728 24.3398C47.037 24.6937 46.674 25.0384 46.4017 25.4377C45.4942 26.8077 44.3235 27.8875 42.9712 28.7948C42.3722 29.194 41.7642 29.5841 41.1107 29.8926C40.6933 30.0832 40.2849 30.3009 39.9491 30.6276C39.7585 30.8181 39.5044 31.1538 39.2412 30.8272C38.9962 30.5278 39.3683 30.3282 39.5679 30.1376C40.666 29.067 41.3739 27.7695 41.8005 26.2996C41.9729 25.6736 41.9638 25.0384 41.864 24.4124C41.8186 24.113 41.8186 23.6774 41.501 23.5867C41.1561 23.4869 41.0019 23.9043 40.8022 24.1311C40.3847 24.6029 40.0399 25.1473 39.5316 25.5375C38.9145 26.0002 38.3518 25.9186 37.889 25.3016C37.6621 24.9931 37.5259 24.6483 37.3898 24.3035C37.1629 23.7137 36.9451 23.1149 36.691 22.5342C36.573 22.262 36.4732 21.9535 36.1192 21.7539C36.0466 22.262 36.1102 22.6794 36.1556 23.1058C36.2826 24.2309 36.2917 25.3469 36.1646 26.472C35.974 28.1143 35.493 29.566 33.9502 30.4552C33.7687 30.5641 33.6417 30.6911 33.7869 30.9452C34.1862 31.6801 34.4131 32.4967 34.8941 33.1862C35.6655 34.3023 36.7182 34.7378 38.0433 34.5019C38.9326 34.3476 39.7585 34.021 40.539 33.5673C41.1017 33.2407 41.1289 33.1862 40.9928 32.542C40.9474 32.2971 40.8839 32.0612 41.1652 31.9523C41.4284 31.8525 41.5736 32.0702 41.737 32.2336C42.0637 32.5693 41.8277 32.9776 41.8186 33.3586C42.7353 33.4403 43.4704 33.1046 44.1964 32.7689C44.7954 32.4967 45.3853 32.1882 45.9933 31.9251C46.6649 31.6438 47.3002 31.7436 47.8538 32.2154C48.1805 32.4967 48.4982 32.7961 48.8067 33.0955C49.2696 33.531 49.7052 33.9938 50.1771 34.4111C50.4766 34.6743 50.7852 35.01 51.2208 34.9283C51.6473 34.8467 51.5838 34.393 51.729 34.0936C51.9468 33.6399 52.1737 33.5492 52.6184 33.8214C52.9088 34.0028 53.172 34.2387 53.4443 34.4474C53.8255 34.7468 54.2066 35.0644 54.6059 35.3457C54.9508 35.5907 55.3411 35.6905 55.7404 35.4546C56.3484 35.0916 56.902 35.2731 57.4466 35.6088C57.9911 35.9445 58.4721 36.3528 58.944 36.7793C59.543 37.3146 60.142 37.859 60.741 38.4034C61.0041 38.6393 61.2855 38.848 61.6666 38.6484C62.3745 38.2673 63.0461 38.4397 63.5906 38.9206C65.0699 40.1999 66.876 40.9258 68.5458 41.8785C68.927 42.0962 69.4806 41.8875 69.5351 41.4611C69.644 40.5991 70.1159 39.9368 70.5878 39.2744C71.0688 38.5939 70.8873 37.859 70.1068 37.5233C69.6349 37.3146 69.1358 37.1694 68.6638 36.9607C67.6474 36.5162 67.0121 35.7449 66.758 34.6561C66.6763 34.3113 66.6491 33.9756 66.6309 33.6308C66.5946 32.9866 66.5129 32.9231 65.8504 32.8687C65.7052 32.8596 65.56 32.8505 65.4148 32.8505C63.3365 32.787 61.6304 31.9613 60.269 30.3917C59.8334 29.8926 59.3887 29.4027 58.9622 28.8946C58.2724 28.0871 57.4012 27.6425 56.3394 27.5517C56.0489 27.5336 55.7676 27.5154 55.4772 27.4882C54.5969 27.3975 53.8981 27.0527 53.3898 26.4448C53.1902 26.2089 53.0177 25.9276 52.8725 25.6191C52.564 24.9296 52.3734 24.2128 52.2645 23.4597C52.201 23.0332 52.1374 22.6159 52.0558 22.135C51.003 22.5342 50.3496 21.9898 49.7324 21.3275C49.3966 20.9736 49.0699 20.6107 48.7432 20.2387C48.0444 19.4221 47.1732 19.0501 46.0841 19.0501C44.5322 19.0501 43.9423 18.5601 43.4885 17.0449C43.2889 16.3825 43.2889 16.3825 42.59 16.4279C42.4176 16.437 42.2452 16.4551 42.0728 16.4823C40.5662 16.7454 39.0869 16.6366 37.6439 16.1466C37.29 16.0287 36.936 15.9107 36.573 15.82C36.1011 15.702 35.974 15.8109 36.0739 16.2827C36.1646 16.7273 36.328 17.1628 36.455 17.6074C36.5004 17.7798 36.5186 17.9703 36.3371 18.0611C36.0829 18.1881 35.965 17.9794 35.8833 17.7979C35.6655 17.3261 35.4658 16.8543 35.248 16.3825C35.1936 16.2555 35.1119 16.1103 34.9485 16.1012C34.7307 16.0922 34.6763 16.2918 34.6218 16.446C34.4403 17.0176 34.2951 17.6074 34.1045 18.179C33.8958 18.8142 33.6235 18.9503 32.9973 18.7869C32.8067 18.7325 32.6161 18.6509 32.4255 18.5873C31.6541 18.2879 30.9099 18.3514 30.1748 18.7416C29.7937 18.9412 29.4034 19.1408 29.0041 19.3041C28.3325 19.5672 27.6519 19.5854 26.9893 19.2678C26.1635 18.8686 25.8186 18.2698 26.0455 17.3896C26.1453 16.9904 25.982 16.8816 25.7188 16.7273C24.5027 16.0196 23.2412 15.5115 21.7982 15.5932C21.3353 15.6204 20.8725 15.575 20.4187 15.5841C19.9831 15.6022 19.6473 15.4843 19.4023 15.085C19.0665 14.5406 18.5219 14.2412 17.8957 14.1868C17.1243 14.1142 16.3529 14.1051 15.6178 14.0688C15.4454 14.341 15.6087 14.586 15.518 14.8038C15.4635 14.9126 15.3728 15.0215 15.2548 14.9308C14.9099 14.6677 14.9462 14.2775 14.9825 13.9055C14.9916 13.8148 15.0097 13.7422 15.046 13.6787C15.1277 13.5244 15.282 13.4428 15.5089 13.4609C16.3711 13.5154 17.2332 13.5426 18.0954 13.6424C18.6762 13.7059 19.2571 13.9509 19.5928 14.4318C19.9922 14.9943 20.4822 15.085 21.0812 15.0306C22.9961 14.8673 24.7296 15.3754 26.3268 16.4007C26.8804 16.7545 26.8986 16.7908 26.6626 17.4169C26.463 17.9522 26.5446 18.2879 27.0166 18.6055C27.434 18.8868 27.8969 19.0047 28.4142 18.8867C28.868 18.7869 29.2945 18.5964 29.6848 18.3605C30.6921 17.7617 31.7267 17.6709 32.8339 18.1064C33.4601 18.3514 33.4692 18.3151 33.6598 17.6891C33.8322 17.1084 33.9411 16.5095 34.2225 15.9651C34.4221 15.5841 34.6672 15.2665 35.1663 15.4571C35.3478 15.5296 35.484 15.5296 35.6292 15.3845C35.9377 15.085 36.3098 15.1395 36.6819 15.2484C37.1811 15.3935 37.6802 15.5387 38.1703 15.6929C39.4046 16.0831 40.657 16.1285 41.9275 15.9198C42.1817 15.8744 42.4448 15.8472 42.699 15.8381C43.6428 15.7837 43.788 15.8926 44.024 16.7908C44.3688 18.0883 44.7954 18.4784 46.1476 18.4603C47.4 18.4422 48.3711 18.923 49.1788 19.8394C49.6144 20.3294 50.0682 20.8194 50.5401 21.2821C50.885 21.6269 51.2753 21.772 51.7926 21.5452C52.3825 21.2821 52.564 21.4182 52.6638 22.0352C52.682 22.1804 52.682 22.3255 52.7001 22.4616C52.8362 23.4052 52.9542 24.3398 53.3354 25.229C53.771 26.2543 54.5243 26.8259 55.6496 26.8985C55.7676 26.9075 55.8765 26.9166 55.9945 26.9166C57.4284 26.962 58.6082 27.5245 59.5248 28.6405C60.0149 29.2394 60.5413 29.8201 61.0858 30.3735C62.0841 31.3988 63.2821 32.043 64.7251 32.161C65.2152 32.2063 65.7052 32.2245 66.1862 32.288C66.8578 32.3787 67.0847 32.6146 67.1664 33.2861C67.1845 33.4312 67.1845 33.5764 67.1845 33.7216C67.2299 35.1461 67.9106 36.1078 69.2719 36.5797C69.7347 36.743 70.1976 36.9154 70.6332 37.124C71.1868 37.3872 71.4954 37.8499 71.3774 38.4578C71.214 39.2835 71.3774 40.2634 70.4426 40.7897C70.4245 40.7987 70.4335 40.8441 70.4154 40.9984C71.214 40.6173 71.931 40.2997 72.6661 40.0729C72.8385 40.0184 72.9837 39.9368 73.011 39.7372C73.1471 38.7391 73.4738 37.7773 73.5555 36.7702ZM71.5317 56.9401C71.3411 56.8585 71.2231 56.9674 71.096 57.0127C69.3626 57.6388 67.6292 58.1196 65.8777 57.049C65.7143 56.9492 65.4965 56.9311 65.2968 56.8766C64.2169 56.5681 64.1805 56.5863 63.6996 57.5662C63.636 57.6932 63.5725 57.8293 63.509 57.9472C62.8465 59.1631 62.1295 59.399 60.868 58.8274C60.2872 58.5642 59.7699 58.1922 59.2344 57.8656C58.4449 57.3847 58.2906 57.4119 57.7279 58.1197C57.3104 58.6459 56.8204 59.0814 56.2486 59.4262C55.7313 59.7438 55.1777 59.7891 54.7239 59.3627C53.6167 58.3193 52.2826 58.3283 50.9122 58.4554C50.3496 58.5098 49.9139 58.7276 49.8323 59.3718C49.7687 59.8527 49.442 60.1158 49.0245 60.2972C48.2531 60.642 47.4545 60.6329 46.6559 60.4243C45.9843 60.2519 45.3581 60.2791 44.7682 60.7146C43.8969 61.3679 42.944 61.3679 41.9729 60.9868C41.4919 60.7963 41.0291 60.5694 40.5571 60.3426C40.1034 60.1249 39.6496 59.9071 39.1958 59.6803C39.2503 60.0432 39.3864 60.2791 39.5135 60.5331C39.822 61.132 40.0671 61.7399 40.058 62.4204C40.0489 63.3822 39.5679 63.7814 38.615 63.6181C38.0977 63.5273 37.6258 63.2914 37.172 63.0465C36.21 62.5202 35.3297 61.8669 34.4494 61.2136C34.2316 61.0503 34.0591 60.7872 33.7233 60.7781C33.7143 60.8689 33.687 60.9505 33.6961 61.0322C33.7506 61.4949 33.8776 62.0121 33.4329 62.3115C32.9791 62.6109 32.5344 62.248 32.1624 62.0212C31.282 61.4768 30.4289 60.8779 29.5668 60.3063C28.4777 59.5804 27.3433 58.9816 26.0092 58.8546C24.8475 58.7457 23.9581 58.1378 23.2956 57.2032C22.8963 56.6407 22.5242 56.06 22.134 55.4793C21.9434 55.198 21.7528 54.9168 21.5713 54.6355C21.535 54.9531 21.6076 55.2162 21.6984 55.4793C21.8889 56.0237 22.0977 56.5591 22.2701 57.1035C22.4244 57.6025 22.2883 57.7658 21.7982 57.666C21.2537 57.5571 20.7182 57.4119 20.0466 57.2486C20.4187 58.0017 20.7908 58.5824 21.1901 59.1449C22.3518 60.7963 23.5134 62.4385 24.6842 64.0899C25.2469 64.8883 25.9094 65.6142 26.5628 66.34C27.071 66.9117 27.67 67.1294 28.3688 67.202C29.1493 67.2746 29.4397 67.0387 29.4942 66.2675C29.5577 65.4237 29.4034 64.607 29.1402 63.8086C29.0767 63.6181 29.0041 63.4275 28.9587 63.237C28.9315 63.1281 28.9587 63.0011 29.0858 62.9466C29.2128 62.8922 29.3127 62.9557 29.3853 63.0465C29.4488 63.11 29.4942 63.1825 29.5395 63.2551C30.2293 64.353 31.0098 65.3964 31.636 66.5306C32.2168 67.574 32.6706 68.6537 32.6706 69.8786C32.6706 69.9058 32.7432 69.9421 32.843 70.0057C34.05 68.1819 34.3677 66.2584 33.6235 64.1806C33.5509 63.9901 33.442 63.8177 33.3785 63.6271C33.2605 63.3005 33.4148 63.119 33.7324 63.1009C33.9321 63.0918 34.1317 63.1281 34.3223 63.1826C35.366 63.4548 35.9559 64.2078 36.3643 65.1424C36.7818 66.1041 36.936 67.1294 37.1175 68.1547C37.1992 68.6356 37.2809 69.1255 37.417 69.5883C37.6349 70.296 37.8799 70.423 38.5696 70.1871C38.9236 70.0692 39.2503 69.8877 39.5951 69.7335C40.2577 69.434 40.4119 69.5339 40.4119 70.2597C40.4119 70.9493 40.4119 71.6298 40.4119 72.4101C41.501 72.0471 42.5537 71.7477 43.6428 71.6479C44.033 71.6116 43.9967 71.3485 43.8515 71.0763C42.9531 69.3978 42.2906 67.6194 41.5554 65.8592C41.4102 65.5144 41.2106 65.2059 40.9111 64.9609C40.4029 64.5526 40.4482 64.353 41.0654 64.0899C42.1544 63.6181 43.3161 63.9175 44.0875 64.8883C44.5594 65.4872 44.8317 66.1858 45.0677 66.8935C45.3036 67.6012 45.5214 68.318 45.7755 69.0257C46.0115 69.6609 46.3745 70.1962 46.919 70.6227C47.1822 70.8223 47.4363 70.9584 47.7903 70.8495C48.2713 70.7043 48.6978 70.8767 49.0699 71.1852C49.2968 71.3667 49.5055 71.5663 49.7869 71.657C49.9593 71.7114 50.159 71.7386 50.1862 71.4937C50.2497 70.795 50.7126 70.296 51.0484 69.7335C51.4205 69.1346 51.3932 68.5358 51.0121 67.946C50.7761 67.574 50.4766 67.2655 50.1499 66.9752C49.6598 66.5306 49.1698 66.0769 48.6978 65.6142C48.3983 65.3238 48.2441 65.0335 48.2894 64.6252C48.4074 63.5546 48.716 62.5383 49.2242 61.5947C49.442 61.1774 49.8232 60.9414 50.3042 61.0412C51.484 61.3044 52.6729 61.5403 53.7801 62.0484C54.4426 62.3569 54.7602 62.8922 54.7512 63.6362C54.7421 64.2804 54.5515 64.8883 54.37 65.4872C54.0977 66.3763 54.1613 67.1748 54.8782 67.8916C55.2231 67.7373 55.4409 67.4379 55.6224 67.1113C55.8947 66.5941 56.0399 66.0406 56.0762 65.4599C56.1306 64.5163 55.8402 63.6453 55.5044 62.7743C55.3683 62.4295 55.1868 62.0938 55.1959 61.7036C55.2049 61.3134 55.4409 61.1229 55.8221 61.2046C56.1125 61.2681 56.3484 61.4405 56.5753 61.6219C57.2651 62.1573 57.8277 62.8105 58.3087 63.5364C59.0166 64.6161 59.5611 65.7503 58.9894 67.2202C59.7699 66.7846 60.2509 66.2584 60.6502 65.6686C61.4761 64.4528 61.4579 63.727 60.5685 62.5474C60.4596 62.4113 60.3326 62.2752 60.3961 62.0847C60.4687 61.8397 60.6956 61.8488 60.8952 61.8397C61.7393 61.8034 62.556 61.9395 63.2912 62.4295C63.5453 62.0302 63.4908 61.6129 63.509 61.2227C63.5725 59.5895 63.5906 59.5714 65.1335 60.1884C65.5419 60.3517 65.9503 60.6511 66.2861 60.0523C66.3405 59.9525 66.5402 59.9252 66.6763 59.8799C68.0195 59.4171 69.2356 58.7003 70.5243 58.1197C71.0688 57.8565 71.3865 57.4845 71.5317 56.9401ZM67.5475 43.6568C67.7744 43.3483 68.3553 43.0308 67.6746 42.5952C67.6474 42.5771 67.6292 42.4591 67.6564 42.441C68.083 42.0599 67.6383 41.9783 67.4386 41.8785C65.9684 41.207 64.5708 40.4086 63.3093 39.3833C62.8555 39.0113 62.3564 38.8661 61.7937 39.1837C61.3944 39.4105 61.0041 39.3107 60.6683 39.0294C60.2055 38.6393 59.7608 38.231 59.307 37.8227C58.6264 37.2057 57.9548 36.5706 57.1743 36.0625C56.7568 35.7903 56.3484 35.6814 55.8856 35.9445C55.4137 36.2167 54.9417 36.1078 54.488 35.8629C54.007 35.5997 53.5986 35.2277 53.172 34.8829C52.8907 34.647 52.6456 34.3567 52.3008 34.2478C52.1102 34.3386 52.083 34.4837 52.0194 34.6108C51.602 35.509 51.1754 35.6451 50.3496 35.0826C49.9684 34.8285 49.6326 34.511 49.2968 34.1934C48.8612 33.776 48.4528 33.3314 48.0172 32.9141C47.1006 32.0339 46.7285 31.9704 45.5486 32.5148C45.0495 32.7417 44.5685 32.9957 44.0694 33.2316C43.543 33.4766 42.9894 33.7397 42.4176 33.7034C41.4556 33.6399 40.6207 33.9393 39.813 34.4021C39.6859 34.4746 39.5498 34.52 39.4136 34.5654C36.7182 35.5725 34.9939 34.8467 33.8232 32.2154C33.687 31.9069 33.6326 31.544 33.3512 31.3262C33.1334 31.3172 33.0336 31.4714 32.9065 31.5893C31.518 32.8868 30.1204 34.1752 28.7591 35.509C28.396 35.8629 28.0239 35.999 27.5339 35.999C26.4811 35.9899 25.4828 35.754 24.4936 35.4273C23.695 35.1642 23.695 35.1733 23.2503 35.881C22.8872 36.4617 22.5696 37.0968 21.8799 37.3872C21.7619 37.4416 21.6167 37.5142 21.6621 37.7864C23.3047 38.0586 24.9201 38.5667 26.5356 39.0476C29.349 39.8914 32.2622 40.3451 35.0937 41.1435C36.5639 41.5609 38.0705 41.824 39.5861 42.0055C42.3632 42.3321 45.1221 42.7677 47.8175 43.5389C52.3099 44.8273 56.6752 46.4786 60.9588 48.3296C61.1312 48.4021 61.3581 48.4384 61.3853 48.6925C60.9225 48.7016 60.9225 48.7106 60.5231 48.5382C57.982 47.4495 55.3955 46.4786 52.7909 45.5441C48.9247 44.1558 44.986 43.0943 40.9111 42.6043C38.9962 42.3775 37.0812 42.1416 35.2117 41.6516C31.2639 40.6082 27.2344 39.8461 23.3229 38.6393C22.3427 38.3399 21.3263 38.1766 20.2554 38.2673C19.729 38.3127 19.2026 38.476 18.6581 38.485C18.8668 37.732 18.8668 37.732 17.9593 37.2148C17.7596 37.7229 17.442 38.0949 16.8884 38.2401C16.6343 38.3036 16.489 38.5667 16.3257 38.7663C15.6541 39.5738 14.8192 40.1818 13.9388 40.7352C13.3126 41.1254 12.6411 41.3613 11.8969 41.3159C11.6337 41.2978 11.3977 41.3159 11.1799 41.5155C10.5355 42.1325 9.72783 42.4319 8.89289 42.686C8.07609 42.94 8.00349 43.1669 8.56617 43.7839C8.67508 43.9109 8.79306 44.056 8.99272 44.047C9.17423 43.8474 9.05625 43.4028 9.46464 43.4118C9.80044 43.4209 9.90934 43.7385 10.0545 43.9835C10.2724 44.3555 10.4629 44.7456 10.6626 45.1267C11.4159 46.5512 12.16 47.9848 12.9224 49.4002C13.476 50.4164 14.1294 51.3601 14.9916 52.1494C16.4164 53.456 17.8413 54.7535 19.2843 56.0328C19.9196 56.5953 20.6275 57.0127 21.6621 57.1125C21.4624 56.5227 21.29 56.0328 21.1447 55.5519C21.0086 55.1164 20.8816 54.6718 20.7636 54.2272C20.691 53.9459 20.6002 53.6193 20.9179 53.4469C21.29 53.2473 21.4987 53.5739 21.6893 53.8189C21.9525 54.1546 22.1884 54.5266 22.4244 54.8805C22.8419 55.5065 23.2412 56.1326 23.6677 56.7496C24.2849 57.6569 25.1198 58.2285 26.227 58.3283C27.4794 58.4372 28.5503 58.9635 29.5758 59.6258C30.3019 60.0885 31.0098 60.5966 31.7267 61.0775C32.0353 61.2862 32.3529 61.4858 32.6887 61.6492C33.0427 61.8215 33.1788 61.7308 33.1607 61.3497C33.1243 60.6602 32.7976 60.0886 32.4074 59.5442C32.2259 59.2901 31.7086 59.0179 32.0171 58.7185C32.4165 58.3374 32.6343 58.9181 32.8793 59.1359C34.2134 60.3245 35.611 61.4405 37.1448 62.366C37.535 62.6019 37.9616 62.8105 38.3881 62.9648C39.3047 63.2914 39.6405 62.9829 39.4681 62.0212C39.3683 61.4768 39.1414 60.9777 38.851 60.5059C38.5333 59.9888 38.1431 59.526 37.6984 59.1086C37.5532 58.9725 37.3626 58.8183 37.5169 58.6005C37.6621 58.3919 37.8799 58.4735 38.0614 58.5552C38.8691 58.9272 39.6859 59.2992 40.4936 59.6803C41.1198 59.9797 41.7188 60.3154 42.3813 60.5241C43.0801 60.7509 43.7608 60.7509 44.3598 60.2972C45.1403 59.7075 45.9752 59.644 46.9009 59.8889C47.4273 60.0341 47.9809 60.0523 48.5254 59.8799C48.9247 59.7528 49.2605 59.5623 49.3331 59.0814C49.4511 58.283 50.041 57.9835 50.7398 57.9019C52.2463 57.7386 53.7438 57.6932 54.978 58.8364C55.332 59.1631 55.7041 59.1268 56.0852 58.8637C56.5935 58.5189 57.02 58.1106 57.4012 57.6297C57.9911 56.8585 58.4812 56.7677 59.3433 57.2486C59.7971 57.5027 60.2146 57.8112 60.6683 58.0652C62.0841 58.8727 62.5288 58.7548 63.2004 57.2849C63.5816 56.4502 64.0807 55.9511 65.0609 56.1598C65.0972 56.1689 65.1516 56.1054 65.2424 56.0509C64.7342 54.9168 64.6434 53.6737 64.4982 52.4488C64.2441 50.3529 64.6071 48.3749 65.6689 46.5421C66.2225 45.5441 66.8669 44.5914 67.5475 43.6568ZM66.2951 61.8397C66.3314 61.4042 66.2135 61.1229 65.7597 61.005C65.4874 60.9324 65.2242 60.7872 64.952 60.6874C64.1533 60.388 64.1443 60.397 64.0898 61.2136C64.0535 61.7308 64.0172 62.248 63.9174 62.7561C63.7994 63.3912 63.5271 63.482 63.0643 63.0465C62.6014 62.6019 62.0932 62.366 61.4398 62.4295C61.4488 62.5383 61.4307 62.6018 61.4579 62.6472C62.8011 64.5798 60.3689 67.4651 58.7716 67.9097C58.6899 67.9279 58.5991 67.946 58.5175 67.9551C58.2906 67.9732 58.0365 68.0186 57.9094 67.7646C57.7914 67.5377 57.9548 67.3744 58.1 67.2383C58.8533 66.5669 58.7988 65.7684 58.4449 64.9428C57.9639 63.8086 57.2288 62.8559 56.2758 62.0756C56.1669 61.9849 56.0399 61.7943 55.8311 61.9849C56.058 62.6654 56.3757 63.3096 56.5118 64.0264C56.8294 65.6777 56.657 67.1929 55.2685 68.3452C55.0597 68.5176 55.0779 68.7445 54.969 68.9441C54.8873 69.0893 54.7058 69.1709 54.6241 69.0257C54.37 68.6174 53.9344 68.3362 53.8345 67.819C53.6349 66.8481 53.5804 65.8864 53.9434 64.9337C54.0433 64.6706 54.1068 64.3802 54.1522 64.0989C54.3155 63.119 54.0886 62.6926 53.163 62.375C52.4006 62.1119 51.6201 61.9123 50.8396 61.7127C49.9412 61.4768 49.678 61.631 49.4057 62.5474C49.3422 62.7743 49.2696 62.9648 49.5691 63.119C49.9412 63.3096 49.923 63.6725 49.8232 64.0354C49.7415 64.3439 49.6417 64.6433 49.4511 64.9065C49.2333 65.1968 49.2968 65.4237 49.5509 65.6505C49.8323 65.8955 50.1045 66.1495 50.3859 66.4036C50.767 66.7484 51.1482 67.1113 51.4477 67.5377C52.0104 68.3543 52.0739 69.1891 51.5203 70.0419C51.3297 70.3323 51.13 70.6136 50.9576 70.913C50.7943 71.2033 50.6491 71.5028 51.121 71.6661C51.2662 71.7205 51.3842 71.8112 51.3479 71.9836C51.3116 72.1833 51.1482 72.2558 50.9667 72.2649C50.1862 72.2921 49.4148 72.3103 48.7886 71.6842C48.4891 71.3848 48.0716 71.2033 47.7086 71.539C47.2911 71.9201 47.0915 71.8294 46.91 71.3576C46.8737 71.2578 46.7557 71.1852 46.6649 71.1217C45.7937 70.5047 45.3581 69.6155 45.0313 68.6447C44.7954 67.937 44.5776 67.2202 44.3325 66.5124C44.1329 65.9408 43.8606 65.3964 43.4068 64.97C42.8623 64.4619 42.2452 64.3348 41.4828 64.5707C41.6916 64.9609 41.8822 65.2422 42.0183 65.5598C42.7988 67.3835 43.5157 69.2344 44.4142 71.0128C44.7863 71.7477 44.5776 72.0834 43.7517 72.1833C42.7443 72.3103 41.7733 72.5462 40.8113 72.8547C40.0217 73.1178 39.7767 72.891 39.813 72.029C39.8402 71.4755 39.8946 70.913 39.7948 70.3051C39.332 70.4684 38.9689 70.6317 38.5787 70.7315C37.7347 70.9493 37.2446 70.7043 36.9542 69.8877C36.8453 69.5883 36.7818 69.2798 36.7273 68.9713C36.6003 68.318 36.5004 67.6647 36.3734 67.0205C36.2191 66.2584 36.0194 65.5053 35.6201 64.8248C35.2752 64.2532 34.8305 63.8086 34.1317 63.6906C34.1045 63.7995 34.0864 63.8267 34.0954 63.8449C34.1408 64.0082 34.1953 64.1715 34.2406 64.3439C34.8396 66.3037 34.5583 68.1547 33.5237 69.9058C33.3331 70.2325 33.1062 70.5319 32.8249 70.7769C32.6524 70.9311 32.4618 71.1126 32.2168 70.9856C31.9627 70.8495 32.0534 70.5863 32.0807 70.3686C32.2622 68.6628 31.3365 66.2947 29.9298 64.979C29.9752 65.5234 30.0568 66.0043 29.9752 66.4852C29.8118 67.3925 29.4034 67.7283 28.4868 67.6647C28.1692 67.6466 27.8606 67.574 27.552 67.5105C27.3614 67.4742 27.1981 67.5014 27.1345 67.701C26.9258 68.318 26.4993 68.7808 26.0001 69.1709C26.2724 69.5248 26.6172 69.4613 26.9077 69.5157C27.906 69.6881 28.5776 70.2597 28.9587 71.1761C29.1312 71.6026 29.2854 72.0381 29.4125 72.4827C29.6485 73.3083 30.2111 73.7076 31.0461 73.7892C32.0807 73.889 33.1243 73.9162 34.1226 73.5805C36.1465 72.9 38.0795 73.0361 39.9763 74.0251C41.4375 74.7873 42.9894 75.1049 44.6502 75.0232C46.0024 74.9506 47.273 74.7056 48.4074 73.9162C49.2242 73.3537 50.1317 72.9998 51.0756 72.7276C52.1011 72.4373 53.163 72.2921 54.1976 72.0381C56.412 71.4937 58.3178 70.2869 60.2146 69.0983C61.104 68.5449 61.6304 67.6738 61.6394 66.5669C61.6394 66.086 61.8845 65.7412 62.2656 65.4962C62.6287 65.2603 63.0098 65.0516 63.3819 64.8429C64.2713 64.353 65.079 63.7542 65.7597 63.0011C66.041 62.6563 66.2588 62.3024 66.2951 61.8397ZM48.9156 64.471C49.2151 64.2169 49.2514 64.0354 49.2514 63.6725C49.1244 63.8812 49.0699 63.9356 49.0427 64.0082C48.9973 64.1171 48.9792 64.226 48.9156 64.471ZM26.2996 68.2545C26.4993 67.9914 26.7988 67.7283 26.59 67.3563C26.472 67.1476 25.7551 67.1929 25.4647 67.4016C25.1017 67.6557 24.9837 68.0186 24.9746 68.4088C24.9927 68.8715 25.1833 69.0076 25.5736 68.8443C25.8731 68.7172 26.109 68.5086 26.2996 68.2545Z" fill="black"/>
</svg>
