<svg width="93" height="92" viewBox="0 0 93 92" fill="none" xmlns="http://www.w3.org/2000/svg">
<path d="M89.8984 16.6433C90.1467 16.8473 90.0019 17.1005 89.8841 17.312C89.6362 17.7718 89.2801 18.1529 88.9118 18.5218C88.0228 19.4169 87.0281 20.1916 86.0285 20.9515C84.8914 21.8147 83.7444 22.673 82.6048 23.5288C82.3297 23.7354 82.0448 23.9125 82.0918 24.3476C82.1165 24.5935 81.8733 24.773 81.7039 24.9525C81.2791 25.3976 80.7952 25.7886 80.3163 26.1698C80.11 26.3371 79.9062 26.5116 79.5894 26.7649C80.0292 26.6837 80.233 26.4599 80.4614 26.3099C82.6622 24.8539 84.8506 23.3857 87.0514 21.9297C87.4812 21.6469 87.9356 21.3886 88.3827 21.1329C88.5816 21.0173 88.82 20.9705 88.9946 21.1745C89.1692 21.3785 89.0464 21.5998 88.9286 21.7867C88.7126 22.1211 88.4154 22.3842 88.1035 22.6277C87.74 22.913 87.3667 23.1933 87.0204 23.5056C87.8434 23.2719 88.6123 22.925 89.3861 22.5684C89.4721 22.5315 89.5556 22.4626 89.6391 22.4183C89.7644 22.3519 89.9265 22.2486 90.0347 22.401C90.1749 22.6001 89.9809 22.7059 89.8507 22.8067C89.7353 22.9026 89.6149 22.9838 89.497 23.0723C88.549 23.7413 87.628 24.4422 86.6602 25.0767C83.8085 26.9385 81.1536 29.0706 78.3511 31.0062C78.2308 31.0873 78.1276 31.1955 77.9557 31.3431C78.3316 31.2422 78.6289 31.102 78.9581 31.1068C79.0884 31.1043 79.2014 31.1485 79.2531 31.2788C79.3122 31.4067 79.2631 31.5296 79.1599 31.6132C79.0052 31.7386 78.848 31.8567 78.6687 31.9329C78.3543 32.0707 78.03 32.2281 77.6983 32.2897C76.8777 32.4324 76.2711 32.9218 75.6817 33.4628C75.5 33.6301 75.2936 33.7481 75.4757 34.0726C75.5814 34.2668 75.3555 34.4242 75.1983 34.5422C74.7685 34.8742 74.3387 35.2062 73.9064 35.5309C73.6829 35.6956 73.4619 35.8678 73.2233 35.5212C73.1274 35.3811 73.0095 35.4942 72.926 35.5876C72.6559 35.9319 72.3883 36.2835 72.0667 36.6942C72.9416 36.9841 73.76 37.2027 74.5858 37.3942C74.8242 37.4458 75.0157 37.3327 75.2098 37.2269C76.0474 36.7916 76.8088 36.2505 77.5678 35.7021C77.8846 35.4733 78.1769 35.1955 78.6093 35.1904C78.6757 35.1929 78.7494 35.1437 78.8108 35.1068C81.385 33.6163 84.0109 32.207 86.5334 30.6108C87.8844 29.75 89.3115 28.9211 90.9405 28.5987C91.1542 28.5519 91.3729 28.4953 91.5965 28.5518C91.6948 28.5764 91.7833 28.6206 91.8104 28.7263C91.8375 28.832 91.7884 28.9304 91.7074 28.982C91.587 29.0632 91.4519 29.1247 91.3168 29.1862C90.5184 29.5674 89.7151 29.9585 88.9168 30.3398C87.4503 31.0261 86.1756 31.9926 84.9476 33.0254C84.2428 33.6132 83.4174 34.0116 82.6019 34.6117C82.8575 34.6903 83.0025 34.6092 83.1376 34.5477C83.8844 34.2328 84.6361 33.9081 85.3829 33.5932C85.6335 33.485 85.8398 33.3178 86.0387 33.1284C86.6182 32.5825 87.2937 32.1767 88.0504 31.9159C88.2125 31.8618 88.3771 31.815 88.5467 31.783C88.7481 31.7485 88.9619 31.7509 89.0603 31.9722C89.1391 32.159 89.0139 32.2992 88.8812 32.4172C88.756 32.5328 88.6209 32.6435 88.4834 32.7468C87.9922 33.1156 87.4911 33.4796 86.9901 33.8436C86.6413 34.0994 86.2434 34.2814 86.1945 34.8223C86.1726 35.0509 85.895 35.201 85.6985 35.3485C83.6084 36.8905 81.4494 38.2997 79.0616 39.3427C78.7619 39.4756 78.5138 39.5912 78.3789 39.9477C78.2415 40.3214 77.8706 40.5354 77.5317 40.7469C77.485 40.7789 77.3695 40.7764 77.3252 40.742C77.2367 40.6732 77.2563 40.5601 77.33 40.4864C77.5215 40.2995 77.7254 40.1249 77.9268 39.9429C77.8381 39.6774 77.5876 39.761 77.4401 39.7119C76.8846 39.5203 76.3738 39.9531 76.438 40.5382C76.5641 41.6765 76.3633 42.7681 75.8455 43.7688C74.8907 45.5957 73.5943 47.2088 72.1602 48.6547C70.8292 49.9925 69.2524 51.0844 67.6165 52.0731C65.9659 53.0668 64.239 53.9055 62.4973 54.7247C62.4334 54.7542 62.3573 54.7714 62.2983 54.8157C60.6208 56.0478 58.6161 56.6924 56.855 57.7721C55.5261 58.5764 54.2022 59.3954 52.7946 60.062C52.6816 60.1161 52.5736 60.1849 52.463 60.2219C50.7015 60.7361 49.2204 61.7469 47.7418 62.7897C47.2383 63.1463 46.7004 63.4488 46.1575 63.7366C45.0792 64.3097 44.1262 65.0376 43.2003 65.8221C42.6895 66.2549 42.3532 66.8426 41.867 67.3C41.7344 67.418 41.6829 67.5828 41.6781 67.7647C41.6567 69.0013 41.2422 70.1397 40.7785 71.2535C40.1504 72.7583 39.6157 74.2974 39.1547 75.8611C38.6962 77.4322 37.9525 78.8854 37.3023 80.3729C37.2753 80.4393 37.2434 80.5155 37.1943 80.5647C36.6688 81.0516 36.2366 81.5729 36.1585 82.3449C36.1316 82.608 35.8197 82.7531 35.5863 82.8884C34.9599 83.245 34.2277 83.3337 33.5768 83.6166C33.3483 83.7174 33.1884 83.5085 33.3185 83.2847C33.4363 83.0733 33.4903 82.8913 33.4459 82.6602C33.2734 81.7998 33.3687 80.9319 33.5377 80.0886C33.7238 79.1249 33.5538 78.2964 33.0912 77.4016C32.2646 75.8087 31.858 74.0756 32.255 72.2464C32.2721 72.1751 32.2966 72.1013 32.3064 72.0325C32.348 71.6661 32.2226 71.5605 31.8885 71.713C31.2867 71.9958 30.6897 72.2935 30.11 72.6181C29.5623 72.9157 29.0071 73.1912 28.3929 73.2897C27.2848 73.4793 26.2727 73.9319 25.2606 74.3845C24.3394 74.7904 23.3984 75.0143 22.3858 74.7048C22.1573 74.6336 21.8869 74.6091 21.656 74.6534C20.6142 74.8454 19.5428 74.7522 18.511 75.0475C18.4275 75.0672 18.3046 75.0672 18.2308 75.0181C17.7785 74.7428 17.4789 74.974 17.1572 75.2863C15.8852 76.5306 14.3253 77.33 12.7802 78.1491C11.8689 78.6336 10.8912 78.9928 9.96508 79.4577C8.84248 80.0209 7.66073 80.3089 6.42484 80.4591C5.84252 80.5306 5.25531 80.6365 4.67055 80.7251C4.48382 80.7546 4.2995 80.7178 4.27725 80.5039C4.24271 80.2778 4.40976 80.2138 4.6088 80.2211C4.96511 80.2333 5.20332 80.0145 5.43907 79.7882C5.74359 79.498 6.0358 79.1956 6.31818 78.8882C6.85105 78.3251 7.45525 77.8775 8.21193 77.6413C8.81137 77.4494 9.30749 77.0706 9.73968 76.6231C10.2038 76.1485 10.6532 75.6542 11.105 75.1673C11.8441 74.3632 12.6177 73.6132 13.5732 73.0647C14.0694 72.7843 14.4696 72.3638 14.8576 71.9556C15.8251 70.9277 16.8516 69.9785 17.9912 69.1473C18.8288 68.5398 19.5901 67.8267 20.3489 67.1307C21.1249 66.4126 21.9083 65.6921 22.709 64.9986C22.8882 64.8486 23.129 64.7354 23.2099 64.4379C22.1607 64.5587 21.1953 64.9056 20.3774 65.4737C18.7047 66.6468 16.8672 67.4733 15.0445 68.344C14.5581 68.5802 14.0816 68.8458 13.6026 69.1041C13.2047 69.3107 12.7993 69.4952 12.3595 69.5764C12.0426 69.633 11.7281 69.6478 11.416 69.5225C10.917 69.3284 10.7989 69.122 10.9731 68.613C11.3532 67.5189 11.9055 66.5231 12.8339 65.8197C14.4254 64.6245 15.9456 63.3138 17.6675 62.2881C18.9448 61.5257 20.0007 60.4683 20.9436 59.3175C21.8226 58.2453 22.8368 57.3084 23.9027 56.428C24.6861 55.7812 25.4253 55.1 26.0957 54.3353C26.8323 53.4992 27.6403 52.7541 28.5245 52.0655C29.7058 51.1384 30.7888 50.0883 31.7365 48.9031C33.1753 47.1031 34.8846 45.5735 36.5201 43.9702C37.0628 43.4366 37.544 42.8415 38.1851 42.4062C38.3595 42.2906 38.4109 41.9784 38.4894 41.7472C39.1541 39.8368 39.5902 37.8552 40.1369 35.9104C40.4091 34.9343 40.6738 33.9607 40.9828 32.9968C41.4709 31.4651 42.3448 30.157 43.4843 29.0307C43.8723 28.6471 44.3021 28.3151 44.7835 28.0642C45.0832 27.9068 45.1691 27.7224 45.1025 27.3512C44.8856 26.235 44.7325 25.114 44.5696 23.9881C44.5375 23.7447 44.5448 23.4964 44.552 23.2481C44.5593 23.0981 44.6255 22.953 44.8073 22.9333C44.9425 22.921 45.0359 23.0045 45.0998 23.1225C45.2376 23.388 45.373 23.6461 45.5034 23.9141C45.6338 24.182 45.742 24.4573 46.0248 24.7646C46.0049 24.4352 46.0024 24.2065 45.9752 23.9779C45.9011 23.3387 45.8294 22.7069 45.8118 22.0652C45.7691 20.6614 45.3088 19.3561 44.76 18.0803C44.6493 17.8221 44.2608 17.4436 44.6956 17.2739C45.0494 17.1312 45.1161 17.6499 45.2538 17.9154C45.4999 18.4071 45.7336 18.911 46.0312 19.3854C46.0748 18.3872 45.9022 17.4285 45.8058 16.4525C45.7242 15.6191 45.6254 14.7832 45.615 13.9424C45.6148 13.6474 45.622 13.3499 45.7324 13.0671C45.8305 12.8213 46.0024 12.6491 46.285 12.6614C46.5406 12.6662 46.666 12.8457 46.7497 13.0718C46.8457 13.3349 46.8532 13.6028 46.8608 13.8708C46.8886 15.132 46.8894 16.3858 46.9246 17.6446C46.9573 18.9205 47.0196 20.1866 47.1973 21.4552C47.2632 20.7446 47.3291 20.0341 47.3876 19.3261C47.5096 17.9984 47.5972 16.6659 47.8225 15.353C47.9278 14.7359 48.092 14.1483 48.4406 13.6221C48.5413 13.4819 48.6395 13.3344 48.7647 13.2188C49.0373 12.9557 49.2757 13.0319 49.3202 13.4105C49.3671 13.821 49.3453 14.2463 49.3455 14.6643C49.3433 14.9765 49.3263 15.2937 49.3094 15.7583C49.5794 15.4141 49.5621 15.1166 49.6504 14.8658C49.7117 14.6814 49.7336 14.4528 49.9916 14.4404C50.2423 14.4305 50.2989 14.6493 50.3556 14.8435C50.4024 15.0082 50.4418 15.1754 50.5157 15.4458C50.7439 15.0499 50.7609 14.6836 50.8639 14.3541C50.9178 14.1722 50.957 13.9214 51.2323 14.0099C51.4412 14.0713 51.3995 14.2901 51.3652 14.4573C51.2061 15.3055 51.0297 16.1512 50.8877 17.0019C50.6037 18.6787 50.2853 20.3505 49.7998 21.988C49.6086 22.642 49.6729 23.3501 49.3268 24.0066C49.9411 23.9818 49.9854 24.0162 49.8358 24.476C49.7058 24.8964 49.5439 25.3193 49.3943 25.7299C49.2765 26.0643 49.0138 26.3815 49.3777 26.7355C49.4367 26.7895 49.3901 26.969 49.373 27.0895C49.3412 27.3132 49.3266 27.5394 49.2457 27.7386C48.8237 28.7565 49.1338 29.6366 49.7192 30.4821C50.0389 30.9492 50.3046 31.4506 50.5998 31.9423C50.8357 32.011 50.9486 31.8094 51.0911 31.6963C51.656 31.2536 52.1987 30.7938 52.7661 30.3585C53.9941 29.4239 55.4018 28.9294 56.9153 28.7029C57.3452 28.6413 57.7557 28.6928 58.1465 28.8575C58.4881 28.9975 58.7583 28.9237 59.0211 28.6802C59.6252 28.1343 60.2441 27.608 60.8483 27.0621C61.3468 26.617 61.865 26.2063 62.4914 25.948C62.8378 25.8078 63.1129 25.552 63.4027 25.316C64.8812 24.1257 66.2908 22.8518 67.5824 21.4453C67.715 21.3026 67.8403 21.1379 67.9901 21.0223C68.1964 20.8551 68.3681 20.3879 68.6631 20.6583C68.9139 20.8942 68.5234 21.1721 68.3663 21.3885C68.0446 21.8238 67.6861 22.2221 67.3326 22.6598C67.625 22.7261 67.7281 22.5196 67.8582 22.3942C68.2487 22.0179 68.617 21.6245 68.9952 21.2359C69.1475 21.0786 69.2972 20.84 69.5381 20.9236C70.0345 21.0857 70.2874 20.7636 70.5231 20.4636C71.0682 19.7653 71.5788 19.0374 72.1214 18.3317C72.3424 18.0366 72.583 17.7514 72.8261 17.4735C72.9464 17.3432 73.1036 17.2497 73.2905 17.3677C73.4675 17.4807 73.4553 17.6651 73.4284 17.8298C73.372 18.1273 73.2297 18.388 73.0677 18.6388C72.7436 19.1404 72.3507 19.583 71.9431 20.006C70.6981 21.2822 69.3056 22.3864 67.8491 23.3972C67.5912 23.5817 67.3259 23.7686 67.0729 23.9678C66.8126 24.1695 66.6211 24.4301 66.5205 24.7424C66.4641 24.9169 66.3242 25.1358 66.5356 25.2783C66.693 25.3815 66.8673 25.2413 67.0073 25.1454C67.5821 24.7568 68.0634 24.2601 68.5791 23.7929C68.8001 23.5961 69.0211 23.3994 69.2446 23.21C69.3404 23.1289 69.478 23.0994 69.5764 23.1977C69.6772 23.3034 69.6379 23.4312 69.5569 23.532C69.3875 23.7361 69.2058 23.9279 69.0929 24.2033C69.6431 23.8885 70.1933 23.5737 70.746 23.2662C71.2643 22.9785 71.7802 22.6833 72.3304 22.4668C72.4901 22.4053 72.6498 22.3438 72.8218 22.2946C73.0159 22.238 73.2223 22.2183 73.3649 22.4002C73.5026 22.5919 73.4192 22.7837 73.3112 22.9509C73.0436 23.3763 72.6457 23.6812 72.2356 23.9493C71.1303 24.6626 69.9216 25.1644 68.7351 25.708C68.3519 25.8851 68.1161 26.0868 67.9616 26.5072C67.6329 27.4612 66.8248 27.9604 65.9503 28.3589C65.6801 28.4819 65.3975 28.568 65.115 28.6542C64.803 28.7501 64.5377 28.9124 64.3044 29.1461C64.1031 29.3526 63.9239 29.601 63.5675 29.5642C63.3906 29.5495 63.2801 29.7339 63.1672 29.8618C62.8578 30.2109 62.5287 30.5503 62.2439 30.9241C61.8241 31.4822 61.4067 32.0232 60.7263 32.2913C60.5322 32.3725 60.4217 32.5324 60.3678 32.7389C60.2893 33.0437 60.2183 33.3462 60.1497 33.656C60.3463 33.7051 60.442 33.5748 60.5624 33.4936C61.4048 32.8517 62.2325 32.1902 63.0724 31.5409C64.7646 30.2301 66.4962 28.9636 68.2253 27.6897C68.8417 27.2298 69.569 27.0772 70.3184 27.0647C70.7263 27.0597 71.0555 26.917 71.424 26.7448C73.5513 25.7806 75.2458 24.2313 76.9576 22.7091C77.4193 22.3009 77.9228 21.9442 78.4386 21.5999C79.0207 21.2089 79.534 20.7589 79.7497 20.0557C79.8086 19.8639 79.8945 19.6549 80.1451 19.6942C80.4327 19.7457 80.4427 19.9965 80.4354 20.2202C80.4234 20.5767 80.2909 20.8914 80.124 21.2012C79.7976 21.8184 79.3482 22.3373 78.8694 22.8414C78.1155 23.6258 77.2805 24.3144 76.4504 25.0177C76.2711 25.1677 76.05 25.2907 75.9077 25.6005C76.738 25.2414 77.3889 24.7618 78.0914 24.3634C78.3591 24.2084 78.6121 23.96 78.9685 24.1689C79.1307 24.2623 79.1872 24.1369 79.2092 24.0066C79.2729 23.6821 79.516 23.5026 79.7445 23.3279C80.4542 22.7795 81.051 22.1377 81.6231 21.4467C82.394 20.5172 82.9118 19.4673 83.1642 18.2847C83.2818 17.7045 83.3969 17.1169 83.6914 16.6005C83.8314 16.3571 83.9785 15.9883 84.3349 16.1234C84.6888 16.2512 84.5908 16.62 84.5197 16.8978C84.4168 17.301 84.2892 17.7043 84.1322 18.0927C83.5924 19.3713 82.9027 20.5687 82.0483 21.6654C81.761 22.0318 81.5474 22.349 81.9016 22.821C82.8079 22.1742 83.7265 21.515 84.6377 20.8584C85.0135 20.5854 85.2221 20.2043 85.3545 19.7667C85.612 18.8938 86.1054 18.1636 86.7783 17.5537C87.3874 16.9979 87.6405 17.0446 88.0832 17.7328C88.3191 17.6295 88.427 17.3885 88.6137 17.2361C88.8372 17.0467 89.0557 16.8426 89.294 16.6729C89.4635 16.5918 89.6944 16.4737 89.8984 16.6433ZM89.3239 17.3269C89.0462 17.354 88.9112 17.5384 88.7663 17.6933C88.5306 17.9442 88.3169 18.2122 88.091 18.4679C87.9904 18.5835 87.8676 18.6819 87.7078 18.6204C87.5382 18.5541 87.5652 18.3894 87.5577 18.2443C87.5453 18.0599 87.6484 17.8534 87.3878 17.6617C86.2309 18.3676 85.7967 19.5207 85.4928 20.7697C86.8903 19.754 88.2976 18.7432 89.3239 17.3269ZM88.4911 21.6294C88.1152 21.6812 87.9457 21.8361 87.7714 21.9517C83.8169 24.6324 79.7542 27.1607 75.9105 30.0012C75.4242 30.3603 75.4588 30.7586 75.4763 31.2281C75.4838 31.3486 75.4519 31.4986 75.6092 31.528C75.7591 31.56 75.963 31.4837 75.9678 31.3509C75.9848 30.9109 76.3558 30.8936 76.6162 30.7411C77.1099 30.4533 77.5766 30.1336 78.0113 29.7672C78.5712 29.2852 79.1311 28.8032 79.6788 28.3089C80.4254 27.6252 81.2039 26.9883 82.1472 26.575C82.3487 26.4914 82.5943 26.393 82.6507 26.1693C82.7414 25.7783 83.0582 25.6234 83.3309 25.434C84.6695 24.5117 86.013 23.6042 87.3492 22.6746C87.7495 22.4016 88.1671 22.1311 88.4911 21.6294ZM87.7136 23.9382C87.8266 23.8595 87.9789 23.8004 88.023 23.589C87.8953 23.6234 87.7847 23.6357 87.6766 23.68C86.9519 23.9383 86.301 24.3442 85.6525 24.7573C84.3016 25.6181 82.9999 26.5527 81.5579 27.2635C81.2484 27.416 80.9758 27.63 80.7056 27.8513C79.5096 28.8326 78.4316 29.9465 76.9971 30.9008C77.889 30.726 78.5474 30.4898 79.1565 30.0324C81.9589 27.9248 84.7883 25.8737 87.7136 23.9382ZM87.8224 32.7297C87.9403 32.6412 88.1516 32.6116 88.1243 32.3092C87.7043 32.5724 87.1859 32.6389 86.9404 33.0569C86.7293 33.4061 86.4296 33.5635 86.1005 33.7307C84.4596 34.5326 82.7596 35.1821 81.0719 35.8684C80.8115 35.9717 80.5904 36.0947 80.3817 36.2791C79.252 37.312 78.0559 38.244 76.7885 39.1343C78.2774 38.7603 79.6555 38.1527 80.8786 37.2034C81.0358 37.0854 81.2004 36.9649 81.3699 36.8837C83.6986 35.762 85.7568 34.2471 87.8224 32.7297ZM81.8062 23.5167C81.6416 23.5389 81.5556 23.625 81.5238 23.775C81.6884 23.7528 81.7645 23.6618 81.8062 23.5167ZM82.9749 33.7659C83.6775 33.4166 84.3406 32.9985 84.9742 32.2707C83.574 33.0823 82.3656 33.9283 81.0391 34.5433C80.9335 34.5949 80.8328 34.6859 80.7665 34.7818C80.4056 35.2711 79.9021 35.5786 79.428 35.9253C78.9712 36.25 78.5021 36.5623 78.0428 36.8796C78.3769 36.8008 78.3698 37.295 78.5958 37.2113C78.7924 37.1375 78.9569 36.9678 79.1288 36.8203C79.6495 36.3678 80.1603 35.9104 80.6662 35.4383C81.3587 34.7891 82.1053 34.2037 82.9749 33.7659ZM80.2644 25.597C80.677 25.3363 81.0528 25.0387 81.3326 24.6256C80.9151 24.8716 80.5098 25.1544 80.2644 25.597ZM79.5586 24.7588C79.4849 24.7343 79.4357 24.7097 79.4161 24.7244C79.3301 24.7613 79.2515 24.8204 79.2442 24.9212C79.2442 24.9703 79.2909 24.9875 79.3351 24.9482C79.4063 24.8916 79.4702 24.8375 79.5586 24.7588ZM79.5198 25.6242C79.7605 25.3882 79.9864 25.1324 80.2246 24.889C79.6449 25.2382 79.0947 25.6022 78.5864 26.1653C79.132 26.2537 79.2841 25.8505 79.5198 25.6242ZM79.3232 21.5997C78.5101 22.0843 77.7291 22.6155 76.9997 23.2278C76.5772 23.5819 76.2777 23.9606 76.3493 24.5924C77.4496 23.6678 78.5204 22.7775 79.3232 21.5997ZM76.9353 26.2985C77.6207 26.0697 77.9595 25.6369 78.2664 25.182C77.8144 25.4722 77.3526 25.7575 76.9353 26.2985ZM78.02 27.9774C78.0396 27.9626 78.0494 27.9429 78.101 27.8766C78.0125 27.8815 77.988 27.8815 77.9707 27.879C77.8504 27.911 77.7423 27.9553 77.676 28.0758C77.6465 28.1348 77.6736 28.1913 77.7252 28.1741C77.8259 28.1323 77.9217 28.0512 78.02 27.9774ZM80.3094 34.6639C79.9482 34.6615 79.7567 34.873 79.5577 35.0132C78.73 35.6256 77.9023 36.2379 77.0795 36.865C76.7652 37.1011 76.4508 37.3372 76.1364 37.5733C75.5347 38.0283 75.5396 38.0922 76.1052 38.7313C76.3385 38.4977 76.8643 38.4041 76.4216 37.8879C76.3528 37.8044 76.4756 37.6568 76.5615 37.5708C76.7678 37.3789 76.9741 37.1871 77.1976 37.0224C77.2295 36.9953 77.2639 36.9756 77.2958 36.9486C78.0155 36.4297 78.7474 35.9476 79.4671 35.4287C79.752 35.2271 80.086 35.0499 80.3094 34.6639ZM81.2033 37.7835C81.0362 37.7246 80.9257 37.8106 80.8201 37.9115C80.9798 37.9729 81.0953 37.877 81.2033 37.7835ZM76.4633 25.9888C76.2176 25.9889 76.021 26.0627 75.8196 26.1217C75.6107 26.1833 75.3774 26.2694 75.2126 26.0457C75.0626 25.8417 75.205 25.6794 75.313 25.5122C75.34 25.4704 75.426 25.4089 75.2957 25.3376C74.3524 25.8 73.6476 26.5599 72.7832 27.4058C73.8325 27.5064 74.6215 27.8086 75.0963 28.7402C75.4842 28.2091 75.801 27.7837 76.1152 27.3509C76.0292 27.3141 75.9849 27.2797 75.953 27.2821C75.7638 27.3043 75.5353 27.4297 75.4246 27.1962C75.3065 26.9406 75.5472 26.8028 75.702 26.6528C75.9549 26.429 76.2103 26.2126 76.4633 25.9888ZM75.5021 29.3179C76.0819 29.0178 76.2636 28.8506 76.5901 28.3072C76.1357 28.6146 75.6738 28.777 75.5021 29.3179ZM74.7974 30.0777C74.9614 29.0476 74.4129 28.2143 73.4078 28.0006C72.6656 27.8386 71.9086 27.6814 71.1518 27.6226C70.0239 27.5319 68.9551 27.6919 68.0218 28.4543C66.7987 29.4528 65.4699 30.3062 64.2149 31.2579C62.3728 32.6597 60.5578 34.0935 58.7994 35.5985C56.5621 37.5093 54.2264 39.2726 51.7578 40.8589C51.0087 41.3385 50.3038 41.8771 49.6309 42.4624C49.0709 42.9444 48.6462 43.4878 48.5017 44.2574C48.2348 45.6907 47.7073 47.0553 47.1307 48.3954C46.6572 49.5042 46.1959 50.6254 45.7322 51.7392C45.4231 52.4818 45.2049 53.2513 45.1906 54.0676C45.4118 54.0921 45.5002 53.9642 45.6082 53.8708C47.6319 52.1297 49.872 50.6934 52.0949 49.23C53.9886 47.9831 55.9635 46.8566 57.8302 45.5778C59.5446 44.4071 61.3599 43.4159 63.1456 42.3853C64.1134 41.8246 65.0394 41.2367 65.8916 40.526C67.0336 39.5792 68.2248 38.7062 69.571 38.0765C70.3792 37.7001 71.1038 37.2451 71.6316 36.4952C72.1693 35.7255 72.7758 35.0149 73.2716 34.2182C73.6987 33.5346 74.1308 32.8412 74.6169 32.1872C74.9729 31.7077 75.0807 31.2208 74.8715 30.6677C74.8198 30.4637 74.7631 30.2941 74.7974 30.0777ZM72.0707 23.5781C72.3384 23.3986 72.6381 23.2412 72.8221 22.7617C71.046 23.5513 69.442 24.4884 67.9585 25.5656C66.8705 26.355 65.8513 27.2281 64.8714 28.1699C65.5595 28.1452 66.1392 27.8942 66.6599 27.5155C67.0209 27.2474 67.4139 26.9523 67.4972 26.5147C67.5731 26.1041 67.7671 25.8508 68.0225 25.659C68.2263 25.509 68.4597 25.3983 68.7176 25.2876C69.8648 24.7735 71.0293 24.2864 72.0707 23.5781ZM72.9302 26.5945C72.5543 26.6708 72.3383 27.0298 71.9919 27.1454C72.5423 27.1994 72.6234 27.1477 72.9302 26.5945ZM75.033 33.4581C74.7306 33.2148 74.4922 33.1878 74.286 33.5271C74.1019 33.8345 73.8465 34.1 73.8591 34.5303C74.2569 34.1762 74.6376 33.8196 75.033 33.4581ZM75.7666 39.4837C75.5868 38.847 75.2719 38.2718 74.6623 38.0162C73.8709 37.6821 73.0304 37.4708 72.1801 37.3039C71.8213 37.2351 71.5142 37.3212 71.2318 37.5795C70.9076 37.8844 70.5269 38.118 70.124 38.3099C68.6452 39.0085 67.3066 39.9307 66.0516 40.9808C65.4696 41.4702 64.8654 41.9424 64.1948 42.3138C62.9224 43.0172 61.6672 43.7477 60.3825 44.4388C59.2108 45.0759 58.1769 45.9292 57.0249 46.6007C54.1338 48.2953 51.3362 50.1472 48.5558 52.0262C47.4529 52.7714 46.4263 53.6223 45.412 54.4854C45.2205 54.6478 45.0461 54.8125 44.9947 55.0756C44.86 55.7517 44.7081 56.4254 44.5537 57.0917C44.1052 59.061 43.6863 61.0451 42.6898 62.845C42.2505 63.6392 41.9439 64.512 41.7159 65.3996C41.5982 65.8569 41.4953 66.3093 41.6358 66.9755C41.9082 66.4665 42.1808 66.1543 42.5 65.8837C43.5708 64.9689 44.649 64.0762 45.9018 63.4121C46.8205 62.9251 47.69 62.3644 48.525 61.7495C49.3601 61.1347 50.2419 60.5863 51.2246 60.2418C52.5585 59.7719 53.8089 59.125 54.9879 58.3626C57.0609 57.0148 59.2816 55.9375 61.4629 54.8159C63.7228 53.6598 66.0369 52.6169 68.1762 51.247C69.5124 50.3911 70.7724 49.4295 71.8971 48.3327C73.0022 47.2507 73.8761 45.9426 74.782 44.6812C75.931 43.0927 76.2911 41.3741 75.7666 39.4837ZM69.5262 21.5259C69.278 21.494 69.2142 21.6465 69.1234 21.8407C69.347 21.8234 69.4526 21.7226 69.5262 21.5259ZM66.0194 24.8851C66.0488 24.7277 66.1691 24.5728 66.078 24.3983C65.3607 24.6787 65.3263 24.6984 65.4717 25.3056C65.5604 25.694 65.45 25.9768 65.1847 26.2375C64.8606 26.5424 64.4922 26.7883 64.1213 27.0269C63.2714 27.5729 62.3871 28.0648 61.734 28.8566C61.5941 29.0262 61.4049 29.1713 61.2035 29.255C60.6139 29.501 60.1816 29.7764 60.5851 30.5188C60.6761 30.6933 60.6001 30.9564 60.6076 31.1752C60.6126 31.4112 60.4777 31.6448 60.6326 31.9128C61.3304 31.77 61.561 31.1848 61.9293 30.693C61.7302 30.6365 61.6492 30.7619 61.5509 30.8111C61.3839 30.8997 61.2242 30.9366 61.0841 30.7867C60.9414 30.6294 61.0077 30.4597 61.096 30.3073C61.2482 30.0515 61.4668 29.8474 61.6878 29.6507C62.4737 28.9375 63.3505 28.3497 64.22 27.7398C64.8856 27.2799 65.5463 26.8053 66.2095 26.338C66.4551 26.1658 66.541 25.9814 66.2533 25.7578C65.9387 25.5268 65.9655 25.2145 66.0194 24.8851ZM65.054 25.4041C64.9751 25.0697 64.808 24.9862 64.5526 25.2026C64.1228 25.5592 63.7102 25.9428 63.2977 26.3264C63.0472 26.5576 62.809 26.801 62.5732 27.0519C62.4947 27.1355 62.4087 27.2461 62.5218 27.3641C62.5981 27.4452 62.6939 27.4378 62.9125 27.3074C63.4848 26.9361 64.2168 26.5278 64.848 25.9892C65.0174 25.8343 65.1131 25.6548 65.054 25.4041ZM61.9688 27.1061C62.0744 26.9315 62.3225 26.8405 62.2706 26.4643C61.0769 27.2071 60.2175 28.2153 59.1442 29.049C59.3679 29.2284 59.4908 29.2775 59.6014 29.216C60.2474 28.8692 60.8983 28.5126 61.5419 28.1584C61.7777 28.0305 62.0283 27.9223 61.7995 27.556C61.6913 27.4036 61.878 27.2512 61.9688 27.1061ZM60.1454 30.7967C60.1427 30.3714 60.0171 29.9707 59.6091 29.8282C58.8226 29.558 58.0141 29.3689 57.2178 29.1429C57.1465 29.1257 57.0679 29.1355 56.9966 29.1429C55.9991 29.3202 55.0114 29.5024 54.105 30.0017C52.9898 30.6116 52.032 31.4232 51.0742 32.2347C50.863 32.4118 50.7599 32.5937 50.8461 32.8764C51.0504 33.4885 50.9329 34.0934 50.8079 34.7006C50.6315 35.5464 50.4453 36.3872 50.3107 37.2355C50.1785 38.0665 49.9825 38.8778 49.6881 39.6646C49.3668 40.5178 49.215 41.4127 49.0779 42.3273C50.3427 41.2821 51.6666 40.3894 53.0176 39.5286C55.2331 38.1169 57.1609 36.3586 59.1674 34.6888C59.4818 34.4281 59.7765 34.133 59.7664 33.7101C59.7538 33.2553 59.8838 32.8349 59.9351 32.3997C59.9962 31.8711 60.1482 31.345 60.1454 30.7967ZM49.9588 16.9431C49.9856 16.6309 50.069 16.3162 49.9385 15.9008C49.7422 16.4171 49.6147 16.8449 49.416 17.2309C49.1288 17.7694 49.021 18.33 48.9673 18.9299C48.8527 20.255 48.7135 21.5802 48.5742 22.9053C48.5572 23.0996 48.5327 23.2962 48.4911 23.4905C48.4862 23.5249 48.4715 23.5544 48.4641 23.5815C48.3709 23.8421 48.1963 23.6872 47.9333 23.4636C48.0888 24.592 46.9071 24.9291 46.7406 25.8535C46.7063 26.0207 46.4728 26.0331 46.2984 26.0503C46.0134 26.0799 45.9766 26.2889 45.9842 26.5814C46.3453 26.4855 46.6548 26.3084 46.9988 26.2837C47.1266 26.2738 47.2199 26.1853 47.269 26.0624C47.5708 25.3223 48.1208 24.737 48.4644 24.024C48.5233 23.906 48.5797 23.7806 48.6312 23.665C49.4214 21.9094 49.8649 20.0482 50.193 18.16C50.22 18.0199 50.3058 17.8355 50.1534 17.747C49.824 17.5209 49.9393 17.2283 49.9588 16.9431ZM48.7546 16.6239C48.8867 15.6945 49.0016 14.7627 48.9346 13.7277C48.5147 14.2121 48.3109 14.5097 48.3971 14.694C48.6997 15.3061 48.5748 15.9871 48.7546 16.6239ZM48.6328 18.394C48.6523 18.1334 48.5048 18.0105 48.2172 17.9098C48.2595 18.7235 48.2944 19.466 48.3293 20.2084C48.371 20.2109 48.4128 20.2133 48.4546 20.2158C48.5132 19.6061 48.5816 19.0012 48.6328 18.394ZM46.3218 16.4524C46.3949 15.4198 46.4016 14.3847 46.2142 13.3571C45.9962 14.3971 46.159 15.4247 46.3218 16.4524ZM47.6732 20.1816C47.5461 21.3469 47.4117 22.5147 47.2847 23.6801C47.3437 23.685 47.4026 23.6899 47.4543 23.6973C47.7509 22.5491 47.8779 21.3837 47.6732 20.1816ZM46.5435 21.2144C46.5336 21.1111 46.4672 21.0349 46.3517 21.0325C46.2215 21.035 46.1945 21.1506 46.1995 21.2391C46.2563 21.7283 46.2566 22.22 46.2815 22.7117C46.3336 23.4812 46.4397 24.2408 46.5386 25.1013C46.8037 24.7423 46.7347 24.4374 46.7223 24.1547C46.6899 23.395 46.6329 22.6354 46.5931 21.8782C46.5831 21.652 46.5682 21.4357 46.5435 21.2144ZM50.4438 34.0271C50.5394 33.5526 50.4433 33.0929 50.2783 32.6479C49.8796 31.5515 49.1934 30.6003 48.6153 29.6047C48.325 29.1033 47.8113 28.8157 47.2755 28.6094C47.1428 28.5553 46.9855 28.5504 46.8651 28.4595C46.2947 28.0024 45.71 28.1402 45.1401 28.4452C44.5186 28.7674 43.9807 29.1928 43.5166 29.7166C42.6228 30.7199 41.8766 31.8215 41.4646 33.1147C41.1629 34.0515 40.8981 35.0005 40.6358 35.957C39.9543 38.4549 39.3342 40.9652 38.4364 43.4043C37.8206 45.0688 37.2811 46.7653 37.3068 48.5846C37.3146 49.1476 37.165 49.7057 37.0229 50.2614C36.4296 52.5086 36.178 54.8221 35.8625 57.1159C35.4588 59.9802 34.7971 62.783 34.2092 65.6104C33.9471 66.8619 33.6259 68.1084 33.3908 69.3672C33.239 70.1884 33.1019 71.0292 32.869 71.8283C32.3222 73.7239 32.6797 75.5308 33.526 77.2073C34.0304 78.2029 34.171 79.1395 33.9579 80.1943C33.8403 80.7745 33.7424 81.3646 33.7772 81.9595C33.8517 83.1396 33.9106 83.0461 34.8834 82.7214C35.4657 82.527 35.9004 82.2343 35.868 81.5238C35.8531 81.2091 36.079 80.978 36.332 80.8034C36.5776 80.6312 36.7863 80.4222 36.9066 80.1444C37.2844 79.2887 37.736 78.4576 38.0476 77.575C38.9894 74.8999 39.8674 72.2052 40.8929 69.5596C40.9444 69.4194 40.9787 69.2768 41.013 69.1342C41.1895 68.5097 41.253 67.8656 41.1543 67.2264C41.0334 66.4225 41.1534 65.653 41.3839 64.8957C41.7076 63.8532 42.1566 62.8672 42.6327 61.8886C43.0106 61.1068 43.3345 60.3101 43.5281 59.4668C44.001 57.4237 44.474 55.3806 44.7798 53.3031C44.8777 52.6393 45.0935 52.0098 45.356 51.3976C45.8811 50.1486 46.3939 48.8872 46.9288 47.6431C47.3999 46.5514 47.753 45.4253 48.0225 44.2698C48.2088 43.4781 48.4221 42.6938 48.5985 41.8972C48.8681 40.717 49.2826 39.5787 49.589 38.4108C49.9542 36.9528 50.1597 35.4826 50.4438 34.0271ZM48.16 28.437C48.3343 28.1739 48.1941 27.9748 47.9901 27.8298C47.8327 27.7266 47.651 27.8201 47.5503 27.9602C47.4668 28.0783 47.5824 28.179 47.693 28.2405C47.8331 28.3167 47.9585 28.4469 48.16 28.437ZM46.6999 27.6458C46.6727 27.3434 46.7757 27.0385 47.0606 26.7385C46.7091 26.6673 46.4905 26.7731 46.2817 26.8837C46.0754 27.0018 45.7953 27.0953 45.8102 27.3854C45.8326 27.7468 46.1691 27.6262 46.3854 27.6852C46.4788 27.7196 46.5771 27.7441 46.6999 27.6458ZM45.3921 26.82C45.5982 26.2349 46.0182 25.8979 45.7672 25.3916C45.5556 24.954 45.2949 24.541 45.0563 24.1207C45.0273 24.991 45.1654 25.822 45.3921 26.82ZM37.8074 43.606C37.7607 43.5888 37.7116 43.5643 37.6649 43.5471C37.4168 43.7856 37.1664 44.0168 36.9282 44.2602C35.219 45.9619 33.4164 47.58 31.9015 49.471C30.9857 50.6046 29.9199 51.6079 28.7754 52.4981C27.955 53.1326 27.1888 53.831 26.5062 54.6081C25.7868 55.422 24.9911 56.1549 24.1487 56.8459C23.1024 57.7116 22.1054 58.6263 21.246 59.6837C20.3007 60.8271 19.2448 61.8846 17.965 62.6396C16.2751 63.6382 14.7966 64.9022 13.2198 66.0433C12.3577 66.6754 11.8054 67.5483 11.4276 68.5269C11.278 68.9129 11.3665 69.0555 11.7671 69.1758C12.2316 69.3158 12.6468 69.1609 13.0447 68.9542C13.8775 68.5287 14.6905 68.0688 15.538 67.6629C16.8227 67.0455 18.1616 66.5166 19.3135 65.6485C20.3328 64.8738 21.48 64.3843 22.7084 64.0644C23.7943 63.7839 24.6933 63.2133 25.4176 62.3649C25.6239 62.1239 25.8252 61.8682 26.0905 61.6813C26.761 61.2115 27.3307 60.6361 27.8857 60.041C28.9293 58.9222 29.9631 57.7984 31.0092 56.6869C31.8392 55.8115 32.6544 54.9164 33.6639 54.2351C34.4007 53.7432 35.0614 53.1456 35.7392 52.5751C35.8915 52.4423 36.0486 52.3243 36.0854 52.1153C36.3106 50.7287 36.8331 49.3985 36.8421 47.9775C36.8464 47.0826 37.0154 46.2147 37.2876 45.3615C37.4789 44.7813 37.6358 44.1961 37.8074 43.606ZM35.8946 53.556C35.9191 53.4331 35.9338 53.3052 35.7961 53.261C33.9639 54.5448 32.2496 55.9367 30.796 57.6433C30.5726 57.9064 30.3368 58.1572 30.1035 58.4154C29.0059 59.6179 27.8493 60.7663 26.7 61.9122C24.3573 64.2435 21.8351 66.3805 19.3915 68.606C18.9888 68.97 18.5762 69.329 18.1292 69.634C17.1025 70.3374 16.211 71.1759 15.3663 72.0809C14.7377 72.7497 14.0623 73.3522 13.2567 73.8097C12.8022 74.068 12.4314 74.4295 12.0729 74.8032C11.5621 75.3344 11.044 75.868 10.548 76.4188C9.84325 77.2033 9.04505 77.8304 8.03289 78.1846C7.05759 78.5266 6.47574 79.3356 5.81518 80.0315C5.92586 80.1913 6.02904 80.1568 6.11749 80.1519C7.02661 80.0533 7.92832 79.9081 8.78076 79.5661C11.0973 78.6289 13.3622 77.5859 15.4205 76.1693C16.6731 75.3086 17.8545 74.3322 18.7604 73.0708C19.33 72.2741 20.0815 71.6298 21.1208 71.5779C22.7008 71.5013 24.0052 70.82 25.2455 69.9224C26.9083 68.7197 28.3694 67.2812 29.983 66.0294C30.1402 65.9113 30.2802 65.7663 30.4005 65.6113C31.3604 64.2909 32.645 63.3293 33.959 62.4071C34.2906 62.1734 34.4477 61.9079 34.5506 61.5292C35.2345 58.8911 35.3926 56.199 35.8946 53.556ZM34.1856 63.3314C34.2126 63.1913 34.2788 63.0462 34.1338 62.8815C33.0874 63.5996 32.0436 64.3252 31.2481 65.353C30.7619 65.9825 30.1873 66.5186 29.5487 66.9859C29.2122 67.2293 28.8856 67.5023 28.5884 67.79C27.6061 68.7245 26.5304 69.5508 25.4374 70.3501C24.1946 71.265 22.8485 71.9684 21.2464 72.0032C20.8975 72.0131 20.5683 72.1312 20.2662 72.3058C19.404 72.815 18.8885 73.6264 18.314 74.4575C19.184 74.5851 19.9678 74.5038 20.7393 74.3856C21.4715 74.2723 22.1988 74.2181 22.9336 74.4318C23.3416 74.5497 23.7642 74.466 24.172 74.3626C24.6462 74.2371 25.1105 74.0576 25.5527 73.8362C26.3019 73.455 27.0855 73.1524 27.9111 72.9997C28.6776 72.8668 29.3679 72.5544 30.0385 72.183C30.6379 71.8436 31.2347 71.4476 31.8931 71.2852C32.4852 71.1449 32.6423 70.8056 32.7304 70.2844C33.0217 68.5068 33.3499 66.7415 33.8623 65.0131C34.0143 64.4624 34.0853 63.8895 34.1856 63.3314Z" fill="black"/>
<path d="M88.7313 17.6868C88.8777 17.5336 89.0143 17.3514 89.2928 17.3227C88.2538 18.7214 86.836 19.7246 85.4207 20.735C85.7346 19.5061 86.1783 18.3704 87.3429 17.6686C87.6025 17.8549 87.4927 18.0682 87.5087 18.2394C87.5225 18.3794 87.4869 18.5438 87.6564 18.6077C87.8184 18.674 87.9398 18.5693 88.0415 18.455C88.2698 18.2022 88.4932 17.9349 88.7313 17.6868Z" fill="#13751E"/>
<path d="M87.7816 21.9724C87.9642 21.8544 88.1322 21.6924 88.5044 21.6496C88.1705 22.1522 87.7583 22.4201 87.3658 22.6978C86.023 23.6267 84.6729 24.5337 83.3276 25.4553C83.0462 25.647 82.7353 25.7997 82.6432 26.1889C82.586 26.4117 82.3369 26.503 82.1371 26.5941C81.1898 27.0081 80.4071 27.6442 79.6563 28.3266C79.1056 28.82 78.5426 29.3013 77.9796 29.7825C77.545 30.1557 77.0735 30.4679 76.5775 30.7557C76.3159 30.9082 75.9438 30.9265 75.9255 31.3644C75.9227 31.5039 75.7155 31.573 75.5653 31.5417C75.4076 31.5129 75.4376 31.3562 75.4329 31.2437C75.4192 30.7839 75.3832 30.3804 75.872 30.0217C79.733 27.1767 83.8076 24.6514 87.7816 21.9724Z" fill="#13751E"/>
<path d="M88.0329 23.5942C87.9915 23.8122 87.8471 23.8686 87.7247 23.9421C84.8174 25.8679 81.991 27.9137 79.1989 30.0134C78.5994 30.4666 77.9361 30.7044 77.0475 30.8785C78.4694 29.9303 79.5508 28.8181 80.7424 27.8406C81.0043 27.6225 81.2832 27.4069 81.5916 27.255C83.0307 26.5542 84.3252 25.6158 85.6712 24.7582C86.3173 24.3466 86.9609 23.9521 87.6878 23.6849C87.7955 23.6408 87.9032 23.6212 88.0329 23.5942Z" fill="#13751E"/>
<path d="M88.1704 32.2617C88.2053 32.5621 87.9895 32.6013 87.8694 32.6824C85.809 34.1998 83.7559 35.7147 81.4346 36.8181C81.2582 36.9017 81.0915 37.0148 80.9446 37.1378C79.7246 38.0871 78.3421 38.6965 76.8634 39.0669C78.1277 38.1767 79.3281 37.2421 80.4473 36.2114C80.6555 36.0269 80.8761 35.904 81.1359 35.8008C82.8201 35.1154 84.5166 34.467 86.1539 33.6658C86.4848 33.506 86.7838 33.3487 86.9917 32.9919C87.2338 32.5907 87.7489 32.5174 88.1704 32.2617Z" fill="#13751E"/>
<path d="M84.8961 32.282C84.267 32.9982 83.6095 33.4105 82.9132 33.7554C82.049 34.1805 81.3084 34.7572 80.6066 35.4013C80.1046 35.8661 79.5953 36.3093 79.0811 36.7622C78.9179 36.9051 78.7546 37.0721 78.5526 37.1476C78.3287 37.2303 78.3372 36.7454 78.0063 36.8237C78.4618 36.511 78.9269 36.203 79.38 35.883C79.8525 35.5485 80.3566 35.2356 80.7079 34.7568C80.7738 34.6625 80.8713 34.5656 80.9784 34.5219C82.3074 33.9095 83.4985 33.078 84.8961 32.282Z" fill="#13751E"/>
<path d="M80.297 24.8222C80.055 25.0715 79.8304 25.3231 79.5737 25.5532C79.332 25.7784 79.173 26.1765 78.6184 26.0888C79.1404 25.5293 79.7026 25.1651 80.297 24.8222Z" fill="#13751E"/>
<path d="M77.0602 23.2527C77.8075 22.6455 78.6058 22.1167 79.4359 21.6329C78.6064 22.7923 77.5096 23.6751 76.3824 24.592C76.3212 23.9844 76.6224 23.6135 77.0602 23.2527Z" fill="#13751E"/>
<path d="M78.3196 25.2259C77.9907 25.6748 77.6216 26.1056 76.9139 26.3418C77.3541 25.8164 77.8392 25.5282 78.3196 25.2259Z" fill="#13751E"/>
<path d="M79.6061 35.0718C79.8055 34.9186 80.0017 34.7059 80.3712 34.7124C80.1471 35.1165 79.8073 35.2992 79.5207 35.5162C78.7903 36.0546 78.0469 36.554 77.3165 37.0923C77.2815 37.1127 77.2492 37.1408 77.2168 37.1689L77.0942 37.0019C77.9263 36.343 78.7662 35.7074 79.6061 35.0718Z" fill="#13751E"/>
<path d="M75.8739 26.1982C76.0778 26.1384 76.2767 26.0637 76.5255 26.0641C76.2697 26.2912 76.0089 26.5034 75.7557 26.7381C75.5968 26.8829 75.3558 27.03 75.4758 27.2902C75.5808 27.5304 75.8194 27.4007 76.0109 27.3785C76.0507 27.3736 76.0881 27.4111 76.1753 27.4487C75.8504 27.8908 75.5378 28.3205 75.1459 28.86C74.6536 27.9067 73.8567 27.6055 72.8016 27.499C73.6754 26.6401 74.3803 25.871 75.3421 25.3998C75.4816 25.47 75.3947 25.5324 75.3599 25.5774C75.2583 25.7447 75.1094 25.9196 75.2592 26.1198C75.4264 26.3476 75.6625 26.2604 75.8739 26.1982Z" fill="#13751E"/>
<path d="M76.6488 28.2364C76.3127 28.7824 76.1265 28.9509 75.5341 29.2551C75.7125 28.7126 76.184 28.5471 76.6488 28.2364Z" fill="#13751E"/>
<path d="M77.1777 36.851L77.3005 37.0165C77.0733 37.1955 76.8614 37.3952 76.647 37.5871C76.5562 37.669 76.4328 37.8306 76.5044 37.9185C76.9566 38.464 76.422 38.5565 76.1825 38.7998C75.5951 38.1274 75.5972 38.0579 76.2082 37.5874C76.5314 37.342 76.8546 37.0965 77.1777 36.851Z" fill="#13751E"/>
<path d="M73.4336 27.9408C74.4383 28.154 74.979 28.9887 74.8222 30.0153C74.7879 30.2314 74.8444 30.4008 74.9133 30.5825C75.1149 31.1374 75.0144 31.6213 74.6584 32.1003C74.1797 32.7514 73.7452 33.4368 73.3132 34.1295C72.8174 34.9254 72.2061 35.6453 71.6734 36.4044C71.148 37.1611 70.4236 37.6157 69.6132 37.9845C68.2577 38.6089 67.0668 39.4814 65.9348 40.4323C65.0828 41.1425 64.1497 41.7323 63.1896 42.2903C61.397 43.3226 59.5896 44.3107 57.8756 45.4805C56.0094 46.7585 54.0351 47.8842 52.1419 49.1302C49.9196 50.5925 47.6801 52.0278 45.6569 53.7676C45.5489 53.8609 45.4605 53.9887 45.2394 53.9642C45.2539 53.1489 45.4722 52.3801 45.7814 51.6383C46.2452 50.5256 46.7065 49.4055 47.1801 48.2977C47.7568 46.959 48.2868 45.6031 48.5515 44.1639C48.6961 43.3951 49.1233 42.8596 49.6807 42.3706C50.3534 41.7858 51.0581 41.2476 51.8071 40.7683C54.2749 39.1831 56.6101 37.4212 58.8469 35.5119C60.6049 34.0081 62.4195 32.5754 64.2611 31.1747C65.5158 30.2237 66.8443 29.3709 68.0671 28.3732C68.9928 27.6139 70.0685 27.4513 71.1959 27.5416C71.9352 27.6223 72.6844 27.7815 73.4336 27.9408ZM71.6841 32.34C71.5243 31.9349 71.34 31.6771 71.0231 31.5127C70.9741 31.9548 71.1658 32.2101 71.6841 32.34ZM66.8831 34.614C67.0084 34.5722 66.9715 34.4617 66.9469 34.3389C66.7675 34.0468 66.6077 33.7153 66.2834 33.5043C66.1704 33.4356 66.0427 33.4455 65.9518 33.5413C65.8782 33.615 65.8414 33.7501 65.9298 33.7942C66.2689 33.9758 66.4335 34.322 66.6891 34.5724C66.7284 34.6165 66.834 34.6386 66.8831 34.614ZM65.8798 37.6917C65.833 37.5517 65.8084 37.4535 65.7716 37.3675C65.7273 37.2595 65.688 37.1171 65.5332 37.1442C65.349 37.1811 65.3442 37.3383 65.3663 37.4782C65.3811 37.5716 65.4057 37.6698 65.4426 37.7557C65.536 37.962 65.5877 38.3131 65.8775 38.2C66.1354 38.1139 65.897 37.8414 65.8798 37.6917ZM60.8717 37.9225C60.8103 37.812 60.7415 37.704 60.5941 37.7532C60.4689 37.795 60.4885 37.903 60.5279 37.9963C60.577 38.1191 60.6655 38.2124 60.8055 38.1657C60.9258 38.1337 60.9037 38.0183 60.8717 37.9225ZM61.5332 40.0514C61.3316 39.3491 60.9138 38.7845 60.3953 38.2862C60.2725 38.1635 60.103 38.0972 59.9213 38.1415C59.8623 38.1612 59.7788 38.2055 59.7567 38.262C59.7077 38.3602 59.7544 38.451 59.8698 38.478C60.4249 38.5956 60.5848 39.099 60.8748 39.477C61.0591 39.7102 61.1059 40.0712 61.44 40.1889C61.4915 40.1226 61.5406 40.0735 61.5332 40.0514ZM56.3253 44.3197C56.3743 43.8531 56.1384 43.6862 56.0155 43.4652C55.8951 43.2516 55.6936 43.0896 55.6641 42.8293C55.6123 42.3063 55.6123 42.3063 54.927 42.3385C55.2933 43.0432 55.6791 43.684 56.3253 44.3197ZM53.5773 45.4581C53.5477 45.0259 53.3437 44.7828 53.0317 44.6332C52.9728 44.6038 52.8696 44.6873 52.8918 44.7536C52.9852 45.0826 53.1696 45.3404 53.5773 45.4581ZM50.756 47.5052C50.6944 47.1246 50.5912 46.8888 50.3946 46.6925C50.3455 46.6434 50.2644 46.6213 50.1981 46.668C50.1318 46.7147 50.0901 46.7859 50.1294 46.8547C50.2474 47.0855 50.3433 47.3482 50.756 47.5052Z" fill="#DE6311"/>
<path d="M72.9088 22.7855C72.7211 23.2574 72.4154 23.425 72.154 23.6022C71.0986 24.3065 69.9399 24.7997 68.7886 25.315C68.5297 25.426 68.2955 25.5369 68.0908 25.6871L68.0293 25.6012C69.5163 24.5155 71.1264 23.577 72.9088 22.7855Z" fill="#13751E"/>
<path d="M72.0259 27.1668C72.3752 27.0502 72.6106 26.7409 72.9849 26.6499C72.6511 27.1344 72.5681 27.1825 72.0259 27.1668Z" fill="#13751E"/>
<path d="M74.1904 33.4954C74.38 33.1732 74.6077 33.1992 74.9038 33.4298C74.5264 33.7755 74.156 34.1188 73.7903 34.4527C73.771 34.0433 74.0147 33.7894 74.1904 33.4954Z" fill="#13751E"/>
<path d="M74.7079 38.0668C75.3099 38.3232 75.6291 38.8864 75.8106 39.5283C76.3329 41.4122 75.9704 43.1259 74.8411 44.7036C73.9332 45.9623 73.0573 47.2675 71.9504 48.3476C70.8263 49.4498 69.5647 50.41 68.2244 51.2577C66.0751 52.6286 63.7589 53.6713 61.504 54.8243C59.3205 55.9452 57.0903 57.0246 55.0221 58.3684C53.8417 59.13 52.5925 59.7839 51.255 60.2467C50.2716 60.5913 49.3887 61.1392 48.5526 61.7533C47.7164 62.3673 46.8459 62.9274 45.9262 63.4141C44.6697 64.0704 43.585 64.9716 42.5201 65.8825C42.2003 66.1526 41.9273 66.4643 41.6541 66.972C41.5218 66.3056 41.6253 65.8545 41.7363 65.4009C41.9655 64.5157 42.2659 63.6477 42.7138 62.8529C43.713 61.0573 44.1371 59.0861 44.5858 57.1149C44.7387 56.4431 44.8841 55.7738 45.0296 55.1045C45.0814 54.8422 45.256 54.6777 45.4479 54.5156C46.4636 53.6538 47.4917 52.8042 48.5959 52.0599C51.3797 50.1831 54.1709 48.3284 57.0751 46.6402C58.2284 45.9693 59.254 45.1124 60.4367 44.4807C61.7154 43.7924 62.9794 43.0601 64.2531 42.3572C64.9244 41.9861 65.5294 41.5146 66.1123 41.026C67.3667 39.9702 68.702 39.0588 70.1897 38.358C70.5929 38.1662 70.9716 37.9255 71.2988 37.6284C71.5816 37.3706 71.8889 37.2844 72.2478 37.3524C73.076 37.5252 73.919 37.742 74.7079 38.0668ZM69.9853 46.2919C70.2512 45.6395 70.0235 44.2208 69.5278 43.0304C69.41 42.7512 69.334 42.4254 68.7957 42.36C69.1468 43.0188 69.3873 43.6164 69.5393 44.2436C69.6888 44.888 69.7105 45.5668 69.9853 46.2919ZM65.8351 47.5874C65.9016 47.4917 65.9115 47.3741 65.8648 47.259C65.5924 46.6638 65.3126 46.0711 64.927 45.5301C64.8607 45.4297 64.7747 45.3441 64.6838 45.2682C64.5806 45.1801 64.4504 45.1828 64.3618 45.2859C64.2905 45.3669 64.3174 45.4722 64.3985 45.5432C64.8898 46.0081 65.1008 46.6401 65.4224 47.2106C65.5157 47.3674 65.5623 47.5805 65.8351 47.5874ZM63.3904 49.6451C63.5035 49.6155 63.5011 49.5101 63.4569 49.4023C63.3661 49.2775 63.2949 49.0888 63.0884 49.1823C62.9949 49.2217 63.0121 49.3466 63.0661 49.4348C63.1397 49.5572 63.2183 49.6943 63.3904 49.6451ZM60.3828 51.6864C60.341 51.586 60.319 51.5198 60.2748 51.4611C60.1765 51.3142 60.0685 51.1624 59.8767 51.2999C59.7316 51.4055 59.761 51.5672 59.8764 51.6676C60.0189 51.7997 60.0285 52.0987 60.3235 52.0492C60.3555 52.0467 60.3973 51.9756 60.3998 51.9339C60.4023 51.8432 60.3876 51.7501 60.3828 51.6864ZM56.6719 54.0768C56.6035 53.4544 56.1298 52.3547 55.8055 52.0218C55.7171 51.9288 55.6311 51.8432 55.5033 51.8287C55.4001 51.8141 55.3042 51.8462 55.2648 51.9492C55.2303 52.0178 55.2254 52.1012 55.2966 52.1427C55.8864 52.4849 55.972 53.1343 56.242 53.6731C56.323 53.8421 56.3622 54.0577 56.6719 54.0768ZM53.595 56.7947C53.3056 55.7805 52.9154 54.8081 52.3064 53.9414C52.2401 53.841 52.1394 53.7603 52.0435 53.6942C51.9133 53.5989 51.7536 53.5869 51.6527 53.7267C51.542 53.8862 51.5516 54.1116 51.7458 54.153C52.2423 54.265 52.3477 54.7035 52.522 55.0537C52.7552 55.5313 52.9121 56.0507 53.1109 56.5479C53.1992 56.7634 53.2015 57.0404 53.4915 57.1233C53.6268 57.0373 53.6342 56.9123 53.595 56.7947ZM49.8855 57.0773C49.9571 56.6532 49.8786 56.3936 49.6378 56.1881C49.5838 56.1489 49.4781 56.1761 49.4706 56.252C49.436 56.5658 49.5415 56.8083 49.8855 57.0773Z" fill="#DE6311"/>
<path d="M70.9779 31.5582C71.292 31.7034 71.4778 31.9369 71.6202 32.3137C71.1028 32.206 70.9169 31.9726 70.9779 31.5582Z" fill="black"/>
<path d="M68.0594 25.6295L68.1197 25.7109C67.859 25.8995 67.6615 26.153 67.5753 26.5411C67.4836 26.9623 67.0825 27.2524 66.7141 27.516C66.1852 27.8956 65.5946 28.1397 64.9013 28.1758C65.8999 27.2644 66.942 26.4088 68.0594 25.6295Z" fill="#13751E"/>
<path d="M66.0557 24.4556C66.146 24.6285 66.0265 24.7822 65.9972 24.9382C65.9363 25.2673 65.9169 25.5745 66.2218 25.8058C66.5072 26.0274 66.4219 26.2103 66.178 26.3811C65.5195 26.8447 64.8635 27.3156 64.2026 27.7718C63.3368 28.3696 62.4661 28.9528 61.6882 29.6675C61.4687 29.8626 61.2517 30.0651 61.1005 30.3187C61.0127 30.4699 60.9469 30.6381 61.0884 30.794C61.2299 30.9499 61.3933 30.9035 61.5518 30.8181C61.6567 30.7668 61.7298 30.6449 61.9274 30.7008C61.5641 31.1959 61.3325 31.7688 60.6398 31.9107C60.4885 31.6524 60.6202 31.4135 60.6153 31.1795C60.6079 30.9625 60.6908 30.6992 60.5932 30.5287C60.193 29.7928 60.6223 29.5195 61.2076 29.2754C61.4076 29.1924 61.5954 29.0484 61.7344 28.8801C62.3904 28.0924 63.2684 27.6043 64.1049 27.065C64.4731 26.8283 64.839 26.5843 65.1609 26.2819C65.4243 26.0233 65.534 25.7429 65.4461 25.3578C65.3167 24.751 65.3435 24.7339 66.0557 24.4556Z" fill="#13751E"/>
<path d="M64.5258 25.2702C64.7825 25.0542 64.9523 25.1442 65.0279 25.4692C65.0864 25.7185 64.99 25.8973 64.8098 26.047C64.1779 26.592 63.4404 26.9929 62.8656 27.364C62.646 27.4943 62.5499 27.502 62.4738 27.4215C62.3583 27.2971 62.4472 27.1941 62.5262 27.1107C62.7633 26.8605 63.0028 26.6177 63.2546 26.387C63.6693 26.0042 64.0865 25.6287 64.5258 25.2702Z" fill="#13751E"/>
<path d="M66.9189 34.4119C66.9455 34.5374 66.9834 34.6509 66.8662 34.69C66.811 34.7084 66.72 34.6883 66.6817 34.6423C66.4334 34.3806 66.2684 34.024 65.9431 33.83C65.8558 33.7751 65.8894 33.6462 65.957 33.5733C66.0471 33.4759 66.1675 33.4693 66.2693 33.5446C66.572 33.7629 66.7415 34.1097 66.9189 34.4119Z" fill="black"/>
<path d="M69.433 42.9618C69.9307 44.1627 70.1584 45.5937 69.9083 46.2454C69.6247 45.5166 69.6055 44.8313 69.4461 44.1845C69.2916 43.5526 69.05 42.9497 68.6989 42.2846C69.2375 42.3519 69.322 42.6777 69.433 42.9618Z" fill="black"/>
<path d="M65.7347 37.376C65.7706 37.4586 65.7939 37.5533 65.8388 37.688C65.8516 37.8256 66.0901 38.0926 65.8237 38.1895C65.5298 38.3033 65.4806 37.9573 65.392 37.7662C65.3561 37.6836 65.3328 37.589 65.3193 37.4989C65.3042 37.3542 65.3041 37.2046 65.4927 37.1731C65.6468 37.1375 65.6843 37.2746 65.7347 37.376Z" fill="black"/>
<path d="M62.2621 26.3862C62.3173 26.7754 62.0685 26.8754 61.96 27.0475C61.8688 27.1968 61.6878 27.3506 61.7938 27.5191C62.0335 27.8891 61.7824 28.0069 61.5363 28.1399C60.8853 28.5016 60.2343 28.8633 59.5733 29.2198C59.4615 29.2826 59.3264 29.2258 59.108 29.044C60.1969 28.1795 61.0626 27.1433 62.2621 26.3862Z" fill="#13751E"/>
<path d="M65.9451 47.2663C66.0008 47.3821 65.9901 47.5032 65.9131 47.6045C65.622 47.6009 65.5744 47.3817 65.4857 47.2181C65.1484 46.6421 64.9366 45.9822 64.4279 45.5054C64.3439 45.4326 64.3163 45.3243 64.3907 45.2406C64.483 45.1342 64.6184 45.131 64.7253 45.2213C64.8195 45.2991 64.911 45.3945 64.977 45.49C65.3654 46.0406 65.6617 46.6471 65.9451 47.2663Z" fill="black"/>
<path d="M59.6755 29.7996C60.0835 29.9402 60.2082 30.3382 60.2098 30.761C60.2112 31.306 60.0577 31.8294 59.9976 32.3623C59.9451 32.7951 59.8139 33.2133 59.8253 33.6654C59.8392 34.076 59.5386 34.3799 59.2232 34.6398C57.2104 36.3049 55.2785 38.0651 53.0547 39.4669C51.7001 40.3261 50.3726 41.217 49.1038 42.2593C49.2434 41.3498 49.3977 40.4598 49.7215 39.6108C50.0183 38.8279 50.2166 38.0209 50.3511 37.1944C50.488 36.3509 50.684 35.5121 50.8554 34.6734C50.982 34.0694 51.1013 33.4678 50.8983 32.8599C50.8054 32.5815 50.9165 32.3979 51.1283 32.2214C52.0892 31.4122 53.0525 30.6102 54.168 29.9937C55.0766 29.495 56.0657 29.3113 57.0647 29.1325C57.1336 29.1177 57.2123 29.1076 57.2861 29.1319C58.0801 29.3471 58.889 29.533 59.6755 29.7996Z" fill="#DE6311"/>
<path d="M60.583 37.8342C60.7117 37.7913 60.7769 37.901 60.8357 38.0129C60.8678 38.109 60.8895 38.2169 60.7865 38.2512C60.6643 38.292 60.5822 38.1962 60.5338 38.0726C60.4978 37.986 60.4736 37.8707 60.583 37.8342Z" fill="black"/>
<path d="M60.4326 38.3884C60.9686 38.8888 61.3988 39.4577 61.6018 40.1687C61.6118 40.1985 61.5575 40.2415 61.5054 40.3168C61.1578 40.2009 61.1051 39.8374 60.9229 39.6C60.6241 39.2192 60.4602 38.7023 59.8842 38.5963C59.7639 38.5702 59.7161 38.4784 59.7684 38.3781C59.7998 38.3179 59.8773 38.2672 59.9415 38.2541C60.1346 38.1896 60.3056 38.2651 60.4326 38.3884Z" fill="black"/>
<path d="M63.4734 49.4294C63.5241 49.5524 63.5258 49.6732 63.3926 49.7083C63.1987 49.7638 63.0992 49.6103 63.0139 49.4708C62.9514 49.3703 62.9355 49.2357 63.0428 49.1812C63.2951 49.0689 63.3708 49.2956 63.4734 49.4294Z" fill="black"/>
<path d="M49.9955 15.9595C50.1277 16.3802 50.0438 16.6937 50.014 16.9972C49.9866 17.2836 49.8708 17.5751 50.2097 17.78C50.362 17.8678 50.2684 18.054 50.2486 18.1911C49.9098 20.0738 49.4702 21.925 48.677 23.674L48.505 23.6009C48.5124 23.574 48.5198 23.547 48.5322 23.5103C48.5742 23.3169 48.5989 23.121 48.6164 22.9276C48.7505 21.6107 48.8995 20.2888 49.0164 18.9694C49.0712 18.3721 49.1799 17.8139 49.4681 17.2773C49.6774 16.8975 49.7983 16.4739 49.9955 15.9595Z" fill="#13751E"/>
<path d="M48.9107 13.7668C48.9893 14.8254 48.8864 15.7764 48.7665 16.7247C48.5809 16.0718 48.6966 15.3773 48.3896 14.7481C48.3021 14.5587 48.5004 14.257 48.9107 13.7668Z" fill="#13751E"/>
<path d="M60.208 51.526C60.2446 51.5917 60.268 51.6618 60.3176 51.7665C60.3252 51.8332 60.3432 51.9311 60.3454 52.0256C60.3452 52.069 60.3079 52.1334 60.2815 52.1422C60.0147 52.1793 59.9912 51.8668 59.8547 51.7218C59.7484 51.6014 59.707 51.4334 59.8368 51.3381C60.005 51.204 60.1177 51.3656 60.208 51.526Z" fill="black"/>
<path d="M48.1855 17.8932C48.4781 17.9962 48.6358 18.1192 48.6087 18.3874C48.5572 19.0066 48.4882 19.6233 48.4266 20.2375C48.3841 20.235 48.3416 20.2324 48.2991 20.2299C48.263 19.4727 48.2268 18.7156 48.1855 17.8932Z" fill="#13751E"/>
<path d="M56.0118 43.5936C56.1327 43.8128 56.3631 43.9792 56.3182 44.4402C55.6787 43.8103 55.3067 43.1721 54.9463 42.4734C55.6127 42.4456 55.6127 42.4456 55.6661 42.9629C55.6965 43.2204 55.8934 43.3818 56.0118 43.5936Z" fill="black"/>
<path d="M46.3121 13.3554C46.4866 14.3665 46.4588 15.3888 46.3619 16.4101C46.2131 15.3985 46.0642 14.3869 46.3121 13.3554Z" fill="#13751E"/>
<path d="M47.2038 23.6889C47.3535 22.5316 47.5108 21.3718 47.6605 20.2145C47.8454 21.4056 47.7034 22.5603 47.3787 23.7032C47.3255 23.6967 47.2647 23.6928 47.2038 23.6889Z" fill="#13751E"/>
<path d="M48.4493 23.6361L48.6201 23.7139C48.5636 23.834 48.5169 23.9592 48.4604 24.0792C48.1313 24.8045 47.5992 25.4038 47.3091 26.1498C47.2624 26.275 47.169 26.3568 47.0456 26.3727C46.7064 26.3931 46.4107 26.5678 46.0484 26.6634C46.0368 26.3637 46.0702 26.1503 46.3511 26.1239C46.5302 26.1063 46.7604 26.0969 46.7847 25.9286C46.9361 24.9843 48.0904 24.658 47.9285 23.4979C48.189 23.7482 48.3635 23.9092 48.4493 23.6361Z" fill="#13751E"/>
<path d="M46.3299 20.9741C46.4443 20.9775 46.5082 21.0477 46.5213 21.1598C46.5476 21.384 46.5641 21.6032 46.5759 21.8322C46.6313 22.6042 46.6843 23.3687 46.7226 24.1381C46.7373 24.4244 46.8082 24.7336 46.5485 25.0949C46.4435 24.2229 46.3321 23.453 46.2742 22.6735C46.2382 22.178 46.2411 21.6777 46.1808 21.182C46.1679 21.0947 46.1936 20.978 46.3299 20.9741Z" fill="#13751E"/>
<path d="M50.2194 32.7044C50.3917 33.1471 50.4805 33.6095 50.3849 34.0843C50.1079 35.538 49.8948 37.0114 49.5269 38.4382C49.2276 39.6041 48.8053 40.7456 48.5355 41.9263C48.3565 42.7159 48.1381 43.5105 47.9591 44.3001C47.6893 45.4562 47.3359 46.5829 46.8644 47.6751C46.3316 48.9272 45.8234 50.1794 45.2905 51.4315C45.0303 52.0515 44.8118 52.6738 44.7138 53.338C44.4077 55.4165 43.9343 57.4606 43.461 59.5048C43.2697 60.3559 42.9431 61.1456 42.5649 61.9278C42.0885 62.9069 41.6391 63.8934 41.3151 64.9364C41.0795 65.7039 40.957 66.4665 41.0854 67.2683C41.1841 67.9078 41.1181 68.5449 40.9439 69.177C40.9021 69.3222 40.8752 69.4624 40.8236 69.6026C39.7974 72.2495 38.9187 74.9456 37.9761 77.6221C37.6643 78.5052 37.2198 79.3342 36.8342 80.1928C36.7066 80.4732 36.4977 80.6824 36.2593 80.8521C36.0086 81.0342 35.7874 81.2557 35.795 81.573C35.82 82.2863 35.385 82.5791 34.8097 82.7711C33.8338 83.0887 33.7822 83.1798 33.7028 82.009C33.6681 81.4137 33.7661 80.8234 33.8838 80.2428C34.0971 79.1876 33.9514 78.2603 33.4517 77.2545C32.6049 75.5772 32.2474 73.7694 32.7946 71.8728C33.0253 71.066 33.1575 70.2346 33.3169 69.4105C33.5522 68.1511 33.8736 66.9039 34.1359 65.6519C34.7269 62.8304 35.3867 60.0188 35.7907 57.1531C36.1066 54.8581 36.3683 52.5484 36.9522 50.2952C37.0969 49.7466 37.2466 49.1882 37.2364 48.6176C37.2108 46.7974 37.7507 45.1001 38.3669 43.4347C39.2679 41.0018 39.8861 38.4828 40.5681 35.9836C40.8331 35.0341 41.0981 34.0846 41.3976 33.1399C41.8099 31.846 42.5493 30.7463 43.4511 29.74C43.918 29.2234 44.4636 28.7952 45.0756 28.4679C45.6484 28.1701 46.231 28.0248 46.8017 28.4821C46.9247 28.5805 47.0747 28.5878 47.2124 28.632C47.7559 28.836 48.2626 29.1261 48.553 29.6278C49.1437 30.6607 49.8204 31.6075 50.2194 32.7044ZM44.4296 38.1224C44.5231 38.1322 44.6017 38.0485 44.5525 37.9256C44.3974 37.6575 43.704 37.5446 43.5148 37.7635C43.4312 37.857 43.4117 38.044 43.5739 38.039C43.8665 38.0315 44.1444 38.1028 44.4296 38.1224ZM42.7508 43.1849C42.7384 42.9759 42.6228 42.9242 42.5047 42.8898C41.8408 42.6933 41.1645 42.5828 40.4785 42.5904C40.3384 42.5879 40.1909 42.6372 40.0606 42.6889C39.9573 42.7233 39.9205 42.834 39.9525 42.9299C39.992 43.048 40.0903 43.048 40.1886 43.0234C40.8082 42.8412 41.3984 43.0377 42.0008 43.1237C42.2418 43.158 42.4656 43.2883 42.7508 43.1849ZM41.3968 48.8033C41.4091 48.791 41.4164 48.7639 41.4164 48.7393C41.0549 48.6386 40.9713 48.6337 40.9247 48.7395C40.905 48.7788 40.9124 48.8502 40.9346 48.8674C41.1018 48.9755 41.2616 48.9386 41.3968 48.8033ZM41.0278 52.7561C40.4447 52.1635 40.1398 52.1341 39.8499 52.5425C40.2507 52.6137 40.6368 52.6898 41.0278 52.7561ZM39.0262 56.7045C39.5523 56.6847 40.0835 56.8272 40.6293 56.645C40.1324 56.3352 39.5841 56.3379 39.0285 56.3921C38.9399 56.3971 38.8392 56.4635 38.8663 56.5939C38.8835 56.6701 38.9549 56.7119 39.0262 56.7045ZM36.838 65.3485C37.0591 65.0779 37.3641 65.3533 37.5976 65.2179C37.3319 64.8392 36.845 64.7557 36.614 65.0461C36.5502 65.1248 36.5355 65.2281 36.5921 65.324C36.6659 65.4224 36.7741 65.4272 36.838 65.3485ZM37.2927 69.338C37.0293 68.8929 36.6235 68.7085 36.176 68.5955C36.0432 68.566 35.935 68.6349 35.9081 68.7751C35.8934 68.8785 35.9598 69.0039 36.0606 68.9866C36.5302 68.9201 36.8378 69.3504 37.2927 69.338ZM36.3525 71.9234C36.0227 71.4513 35.6292 71.3038 35.2038 71.208C35.413 71.6384 35.7672 71.8646 36.3525 71.9234Z" fill="#DE6311"/>
<path d="M47.9296 27.8554C48.1258 28.0039 48.2681 28.2219 48.1101 28.4888C47.9185 28.4928 47.7976 28.3619 47.6592 28.271C47.552 28.2041 47.4414 28.104 47.5147 27.9767C47.6037 27.8271 47.7765 27.7437 47.9296 27.8554Z" fill="#13751E"/>
<path d="M55.711 51.9514C56.0298 52.3002 56.5216 53.4341 56.5978 54.0746C56.2905 54.0508 56.2487 53.8287 56.1686 53.6615C55.8936 53.1043 55.7927 52.4384 55.2106 52.0763C55.1394 52.0327 55.1504 51.9447 55.1764 51.877C55.2213 51.7693 55.316 51.7377 55.4113 51.7565C55.5357 51.7655 55.6319 51.8598 55.711 51.9514Z" fill="black"/>
<path d="M52.9684 44.7359C53.2689 44.8831 53.4679 45.1027 53.4873 45.5138C53.0973 45.4043 52.9219 45.1613 52.8244 44.8459C52.8129 44.7878 52.9121 44.7084 52.9684 44.7359Z" fill="black"/>
<path d="M47.0992 26.6819C46.8192 26.9751 46.7209 27.2825 46.7532 27.5963C46.6333 27.6946 46.5362 27.6687 46.4464 27.6404C46.2328 27.5786 45.9026 27.6972 45.8769 27.3313C45.852 27.04 46.1341 26.9458 46.3361 26.8284C46.5381 26.7111 46.7524 26.6063 47.0992 26.6819Z" fill="#13751E"/>
<path d="M45.6836 25.316C45.9256 25.8104 45.5285 26.1426 45.3449 26.6992C45.1206 25.7276 44.9816 24.9192 44.9974 24.0672C45.2292 24.4851 45.4794 24.8888 45.6836 25.316Z" fill="#13751E"/>
<path d="M50.3828 46.7428C50.5802 46.9159 50.6802 47.137 50.7332 47.5049C50.3044 47.3704 50.221 47.1207 50.0896 46.9101C50.0508 46.8459 50.0974 46.7764 50.1689 46.7294C50.2562 46.6771 50.3329 46.6978 50.3828 46.7428Z" fill="black"/>
<path d="M52.2574 53.8701C52.8765 54.7277 53.2597 55.6965 53.5531 56.7034C53.582 56.8156 53.575 56.9479 53.4413 57.0332C53.1419 56.9544 53.1434 56.6777 53.0549 56.4635C52.8558 55.9694 52.7003 55.4526 52.4653 54.9787C52.2896 54.6311 52.1941 54.1918 51.6735 54.0894C51.4728 54.0507 51.4659 53.8256 51.5829 53.6647C51.6894 53.5235 51.8548 53.5333 51.9884 53.6268C52.0893 53.6987 52.1848 53.7806 52.2574 53.8701Z" fill="black"/>
<path d="M44.6127 37.8257C44.6578 37.9358 44.5755 38.0149 44.4816 38.0094C44.1927 37.9954 43.9174 37.9473 43.62 37.9583C43.4563 37.9687 43.4829 37.7979 43.5705 37.7097C43.7714 37.5101 44.4684 37.594 44.6127 37.8257Z" fill="black"/>
<path d="M49.6391 56.245C49.8525 56.4464 49.9225 56.6957 49.8816 57.0911C49.5863 56.8235 49.4865 56.5842 49.4979 56.2999C49.5068 56.2269 49.5928 56.2059 49.6391 56.245Z" fill="black"/>
<path d="M42.5631 42.8062C42.6753 42.8456 42.8 42.8979 42.8147 43.115C42.5277 43.2193 42.2929 43.0842 42.0565 43.0436C41.447 42.9482 40.8487 42.738 40.2248 42.9207C40.1283 42.9529 40.0189 42.9467 39.9853 42.8213C39.952 42.7214 39.9955 42.6045 40.092 42.5722C40.2231 42.52 40.3741 42.4781 40.5132 42.4743C41.2061 42.4736 41.8903 42.5953 42.5631 42.8062Z" fill="black"/>
<path d="M41.4929 48.6511C41.4842 48.6704 41.4872 48.7023 41.476 48.7142C41.3527 48.8458 41.2041 48.879 41.0521 48.7654C41.031 48.7478 41.0225 48.6766 41.04 48.6379C41.0744 48.5361 41.1527 48.5428 41.4929 48.6511Z" fill="black"/>
<path d="M37.645 43.5231C37.6917 43.5404 37.741 43.5651 37.7878 43.5823C37.6162 44.1741 37.4521 44.7633 37.2707 45.3501C36.9986 46.2057 36.8299 47.076 36.8261 47.9736C36.818 49.3988 36.2979 50.74 36.0708 52.1232C36.0341 52.3328 35.8867 52.456 35.7244 52.5842C35.046 53.156 34.3823 53.7476 33.6472 54.2479C32.6367 54.9306 31.8208 55.8278 30.9902 56.7053C29.936 57.822 28.9014 58.9485 27.8644 60.0676C27.309 60.6641 26.7388 61.2409 26.0676 61.7116C25.8021 61.899 25.5982 62.1479 25.3942 62.3969C24.6694 63.2473 23.7695 63.8191 22.6822 64.0998C21.4498 64.4125 20.3038 64.9102 19.2835 65.6866C18.1306 66.5566 16.7901 67.0863 15.504 67.7048C14.6556 68.1113 13.8416 68.5722 13.008 68.9984C12.6096 69.2054 12.194 69.3606 11.7287 69.2199C11.3349 69.0965 11.2461 68.9534 11.3884 68.5688C11.7636 67.5802 12.3162 66.705 13.1816 66.079C14.7575 64.928 16.2373 63.6611 17.9314 62.668C19.2125 61.9115 20.2693 60.8516 21.2152 59.7053C22.085 58.6502 23.0805 57.7259 24.1203 56.8608C24.9634 56.1682 25.7598 55.4337 26.4798 54.6177C27.1703 53.8363 27.9297 53.1388 28.7508 52.5029C29.9038 51.6082 30.9631 50.605 31.8795 49.4686C33.4053 47.5779 35.1996 45.9511 36.9101 44.2453C37.146 43.9939 37.3967 43.7622 37.645 43.5231ZM33.2225 51.0348C33.1608 50.8745 33.0254 50.8375 32.8704 50.8646C32.7769 50.8793 32.6712 50.9311 32.7205 51.0544C32.7921 51.2196 32.9594 51.2049 33.0972 51.2C33.1784 51.1976 33.2201 51.1261 33.2225 51.0348ZM31.6712 54.2003C31.6757 53.8453 31.5008 53.6652 31.284 53.5073C31.1978 53.4457 31.0896 53.4653 31.0257 53.5442C30.9618 53.6231 30.9546 53.7489 31.0383 53.8031C31.2206 53.9314 31.3709 54.1361 31.6712 54.2003ZM26.9469 58.3264C27.075 58.4399 27.1589 58.6668 27.4073 58.551C27.1531 57.9369 27.1112 57.9098 26.5109 57.9786C26.6121 58.2326 26.8212 58.2204 26.9469 58.3264Z" fill="#DE6311"/>
<path d="M39.9696 52.4355C40.2626 52.0076 40.5834 52.0395 41.1808 52.674C40.7788 52.5997 40.3818 52.5151 39.9696 52.4355Z" fill="black"/>
<path d="M40.6883 56.6198C40.1328 56.8053 39.5927 56.6624 39.0574 56.6837C38.9824 56.6839 38.9124 56.6492 38.8926 56.5647C38.8653 56.4329 38.9629 56.3755 39.058 56.3603C39.6258 56.3116 40.1811 56.3003 40.6883 56.6198Z" fill="black"/>
<path d="M35.8063 53.334C35.9439 53.3784 35.9293 53.5063 35.9049 53.6294C35.4045 56.275 35.2481 58.97 34.566 61.5861C34.4633 61.9651 34.3089 62.2382 33.9751 62.4645C32.6621 63.3871 31.3787 64.349 30.4199 65.6703C30.3022 65.8327 30.1599 65.9705 30.0029 66.0886C28.3906 67.3408 26.926 68.79 25.2695 69.9832C24.0375 70.8786 22.7268 71.5624 21.1475 71.6382C20.1086 71.6895 19.3578 72.3341 18.7889 73.1314C17.8767 74.3962 16.7038 75.3704 15.4522 76.2314C13.3956 77.6484 11.1346 78.6986 8.8171 79.6282C7.96521 79.97 7.06395 80.1149 6.15527 80.2131C6.06932 80.2254 5.96374 80.2524 5.85302 80.0924C6.51044 79.3887 7.09158 78.5792 8.06875 78.2447C9.08275 77.898 9.8778 77.2633 10.5818 76.4784C11.0773 75.9273 11.5875 75.3958 12.1052 74.8619C12.4633 74.4879 12.8411 74.1238 13.2879 73.8679C14.0929 73.4104 14.7677 72.8076 15.3957 72.1384C16.2395 71.233 17.1301 70.394 18.156 69.6904C18.6026 69.3854 19.0148 69.0261 19.4172 68.662C21.8585 66.4354 24.3809 64.3048 26.7189 61.965C27.8744 60.816 29.0225 59.6694 30.119 58.4662C30.352 58.2079 30.5899 57.9643 30.8107 57.6937C32.2554 56.0131 33.9755 54.6182 35.8063 53.334ZM32.6296 60.8864C32.5753 60.6255 32.3171 60.3424 32.182 60.4039C32.1059 60.4457 32.0864 60.5097 32.111 60.5836C32.1579 60.7485 32.2391 60.8937 32.3621 61.0168C32.4113 61.066 32.4752 61.1104 32.5513 61.0686C32.62 61.0292 32.6469 60.9627 32.6296 60.8864Z" fill="#DE6311"/>
<path d="M32.895 50.8518C33.0458 50.8299 33.1808 50.8793 33.2503 51.0639C33.2531 51.1669 33.2161 51.2454 33.1436 51.2413C33.0085 51.2391 32.845 51.2465 32.7655 51.0557C32.696 50.9183 32.8041 50.8633 32.895 50.8518Z" fill="black"/>
<path d="M37.6108 65.2978C37.3958 65.4332 37.0913 65.117 36.8952 65.4004C36.8344 65.4934 36.7313 65.4824 36.667 65.3586C36.6082 65.251 36.6167 65.1392 36.6734 65.0567C36.8778 64.7523 37.3382 64.8711 37.6108 65.2978Z" fill="black"/>
<path d="M36.2784 68.4625C36.7522 68.5536 37.1774 68.7334 37.436 69.1697C36.957 69.1929 36.6435 68.7749 36.1476 68.852C36.049 68.8688 35.9742 68.749 35.9921 68.6465C36.0161 68.5099 36.1394 68.4366 36.2784 68.4625Z" fill="black"/>
<path d="M31.2759 53.466C31.5152 53.6333 31.6993 53.8278 31.6978 54.2079C31.3753 54.1479 31.2106 53.9292 31.0011 53.7961C30.9086 53.7387 30.9183 53.603 30.9905 53.5171C31.06 53.4233 31.1808 53.4006 31.2759 53.466Z" fill="black"/>
<path d="M34.1733 62.9333C34.3203 63.1036 34.2537 63.2477 34.224 63.3795C34.1222 63.9335 34.0571 64.4996 33.8915 65.0343C33.3748 66.7506 33.0445 68.5103 32.7462 70.2674C32.6592 70.7921 32.4989 71.1219 31.9068 71.2627C31.241 71.4281 30.6509 71.8201 30.051 72.1584C29.3799 72.5287 28.6892 72.8405 27.9228 72.9745C27.095 73.1209 26.3135 73.4305 25.5637 73.8108C25.1213 74.0316 24.6642 74.2086 24.1826 74.3368C23.7772 74.4478 23.3523 74.5246 22.9449 74.4087C22.2111 74.1987 21.4866 74.2618 20.7522 74.3688C19.9735 74.4906 19.1974 74.5709 18.3284 74.4466C18.9047 73.6205 19.422 72.814 20.2849 72.3066C20.5873 72.1325 20.9166 72.0144 21.2653 72.0037C22.8664 71.9648 24.2136 71.2632 25.4579 70.3522C26.5523 69.5562 27.6296 68.7335 28.6137 67.8037C28.9188 67.515 29.241 67.253 29.5755 67.0032C30.2149 66.5379 30.7882 65.9972 31.2781 65.3786C32.0807 64.3713 33.1258 63.6486 34.1733 62.9333ZM30.1142 70.0898C30.2495 70.004 30.2473 69.8503 30.1838 69.709C30.152 69.6384 30.0882 69.5947 30.0145 69.6193C29.8204 69.676 29.8717 69.8295 29.8984 69.9587C29.9473 70.0561 30.0183 70.1461 30.1142 70.0898Z" fill="#DE6311"/>
<path d="M32.2362 60.3683C32.3832 60.3025 32.674 60.5828 32.7259 60.8506C32.7426 60.9289 32.7096 60.9987 32.6301 61.042C32.5422 61.0881 32.4798 61.0418 32.4174 60.9955C32.2826 60.8728 32.1959 60.7257 32.1489 60.5568C32.1322 60.4786 32.1458 60.4069 32.2362 60.3683Z" fill="black"/>
<path d="M35.3193 71.1467C35.7703 71.241 36.1945 71.3865 36.5319 71.8735C35.9212 71.824 35.5473 71.5941 35.3193 71.1467Z" fill="black"/>
<path d="M27.4028 58.4907C27.1753 58.5973 27.0948 58.3787 26.9789 58.2792C26.863 58.1798 26.6777 58.188 26.5791 57.96C27.1278 57.8919 27.1596 57.9197 27.4028 58.4907Z" fill="black"/>
<path d="M30.132 69.6425C30.1851 69.7801 30.1972 69.9236 30.0799 70.0016C29.9966 70.0527 29.9317 69.9656 29.8862 69.8721C29.8594 69.749 29.8104 69.6023 29.9804 69.5533C30.0449 69.5318 30.1087 69.5726 30.132 69.6425Z" fill="black"/>
</svg>
