<svg width="82" height="76" viewBox="0 0 82 76" fill="none" xmlns="http://www.w3.org/2000/svg">
<path d="M80.9933 31.7945C81.569 33.4778 81.7754 35.1938 81.7754 36.9531C81.7754 37.8545 81.5908 38.7234 81.2323 39.5487C80.5805 41.0366 80.1677 42.5788 80.0699 44.2078C80.0265 44.9897 79.8092 45.7608 79.6245 46.5319C79.3855 47.5419 79.2117 48.5519 79.2334 49.5836C79.266 50.5719 78.9075 51.3865 78.2014 52.0598C77.7343 52.5159 77.2672 52.972 76.8435 53.4608C76.094 54.3404 75.1163 54.6445 74.0625 54.373C73.2695 54.1667 72.835 54.449 72.4004 55.0138C71.8573 55.7306 71.3793 56.4691 70.9556 57.2619C70.0214 58.9778 69.1849 60.748 68.4679 62.5617C67.6858 64.5274 66.5017 66.2542 65.2198 67.9049C63.9923 69.4905 62.2107 69.8815 60.3096 69.6317C59.1038 69.4797 57.9306 69.4797 56.7247 69.5883C55.5624 69.6969 54.4 69.6643 53.2268 69.6751C52.6402 69.686 52.0753 69.5122 51.543 69.2516C50.8369 68.9041 50.1633 68.9475 49.5007 69.3711C48.3274 70.1204 47.0347 70.5657 45.6551 70.7286C45.025 70.8046 44.4601 71.0544 44.0147 71.5105C42.1028 73.5088 39.5173 74.3451 37.1057 75.4745C36.3018 75.8546 35.4219 75.7352 34.5854 75.5071C33.5317 75.2139 32.4779 74.8989 31.4242 74.584C30.3161 74.2473 29.1972 74.117 28.0783 74.432C26.8073 74.8012 25.8405 74.3776 24.9171 73.498C23.733 72.3576 22.9183 71.0761 22.701 69.4362C22.6684 69.1647 22.5598 68.8498 22.8857 68.7194C23.1572 68.6 23.2659 68.9367 23.4614 69.0561C23.6787 68.9149 23.5809 68.6869 23.5918 68.5131C23.6244 66.8841 23.4723 66.7211 21.8211 66.5691C21.7233 66.5582 21.6147 66.5474 21.5169 66.5365C19.7462 66.2976 19.2247 65.6351 19.3768 63.8323C19.3877 63.7346 19.4094 63.626 19.4094 63.5282C19.442 62.9201 19.3551 62.7897 18.8119 62.9309C17.5735 63.2459 16.3025 63.2567 15.0424 63.387C14.5644 63.4413 14.0864 63.4522 13.6084 63.4739C11.6096 63.5608 10.3277 62.4639 9.41521 60.8457C8.99154 60.0964 9.08932 59.7163 9.69767 59.1081C11.1751 57.6637 11.1642 57.6854 9.61075 56.3387C8.6222 55.4808 7.56845 54.7205 6.37349 54.1667C5.62393 53.8191 5.11336 53.2653 4.72228 52.5485C4.01617 51.2561 3.35351 49.9312 2.82121 48.5519C2.53877 47.8351 2.19115 47.1944 1.55021 46.7165C1.31122 46.5319 1.10481 46.2821 0.941861 46.0215C0.44215 45.2069 0.615963 44.5119 1.43071 44.0232C1.89783 43.7408 2.39754 43.5019 2.88639 43.263C4.40725 42.5245 5.04818 41.3515 4.79832 39.6682C4.60278 38.3433 4.38553 37.0291 3.99445 35.7476C3.53819 34.2381 3.84236 32.9131 4.88523 31.7402C5.62393 30.9148 6.53644 30.5239 7.62277 30.5456C8.75255 30.5673 9.88234 30.4261 11.0121 30.3718C11.5661 30.3501 11.8377 30.0895 11.9138 29.579C11.9789 29.112 11.8051 28.8405 11.3163 28.6667C9.87147 28.1455 9.75198 27.6785 10.8926 26.6359C12.294 25.3652 13.326 23.8665 14.2711 22.0963C13.2391 21.9334 12.3374 22.1723 11.4249 22.2049C10.9578 22.2266 10.3929 22.4764 10.1105 21.9551C9.80629 21.4012 10.2951 20.9885 10.621 20.6193C11.4575 19.6745 12.4243 18.9142 13.6845 18.6536C14.4884 18.4907 14.9555 18.0237 15.2053 17.2852C15.3031 16.9919 15.4117 16.7096 15.5095 16.4164C15.8463 15.3629 16.4763 14.5375 17.4432 13.9728C18.2145 13.5275 18.9749 13.0497 19.7462 12.6044C20.2785 12.3003 20.8542 12.0831 21.4734 11.9745C22.386 11.8225 23.1464 12.018 23.7873 12.7347C24.3957 13.4189 24.6021 13.4081 25.2973 12.7782C25.6558 12.4524 25.96 12.094 26.2098 11.6704C26.5249 11.1383 26.6335 10.6495 26.2207 10.0631C25.7101 9.33545 25.8731 8.86846 26.6987 8.54265C27.9371 8.05394 29.1755 7.52179 30.4899 7.23942C31.3264 7.06565 31.9239 6.60953 32.3258 5.89276C32.6626 5.29544 32.9885 4.68727 33.3253 4.10081C34.542 2.01564 36.4865 1.15767 38.7786 0.918745C39.0502 0.886164 39.3435 0.90789 39.5934 1.00563C41.0708 1.61381 42.6894 1.93962 43.8952 3.10167C44.2646 3.46006 44.5688 3.37318 44.8403 3.02565C45.1554 2.62382 45.4487 2.20026 45.7637 1.78757C46.7523 0.516915 48.4795 -0.0261045 50.0004 0.451748C50.7825 0.701534 51.0324 1.22284 50.663 1.96134C50.3915 2.50436 49.9895 3.00391 49.7071 3.54693C49.3486 4.22026 49.4355 4.43748 50.1742 4.67641C51.3474 5.04566 52.5315 5.39317 53.7265 5.71898C54.6064 5.95791 55.4212 6.25114 56.0295 6.97878C56.1816 7.15255 56.388 7.31544 56.5944 7.40232C57.3114 7.71727 57.9088 7.41318 58.0609 6.6421C58.1152 6.33802 58.0935 6.02307 58.137 5.71898C58.213 5.18683 58.4629 4.96964 58.9843 5.11082C60.2119 5.44749 61.4177 5.86016 62.4714 6.5878C63.4708 7.272 63.4382 8.23857 62.4497 8.93363C61.7436 9.4332 60.918 9.683 60.0924 9.94364C59.8099 10.0305 59.4623 9.95449 59.245 10.3129C59.4623 10.8016 59.9077 11.0731 60.3531 11.3012C61.3308 11.8116 62.0369 12.5067 62.4605 13.571C63.0146 14.9719 64.1987 15.352 65.7956 14.7113C66.4582 14.4398 67.0448 14.0054 67.7292 13.7665C68.9459 13.3538 69.4456 13.5167 69.9236 14.6896C70.2604 15.515 70.6189 15.7756 71.5857 15.1783C72.2049 14.7982 72.7155 14.2877 73.2586 13.8099C74.1386 13.0388 74.7035 13.0388 75.6051 13.7882C75.8115 13.9619 76.0288 14.1574 76.1809 14.3746C77.4845 16.1883 79.0705 17.7739 80.3849 19.5767C81.2866 20.8039 81.5582 22.0854 80.6782 23.4864C80.0265 24.529 79.4724 25.6367 79.2986 26.8965C79.2334 27.3961 79.2334 27.8522 79.6788 28.1997C79.8092 28.2975 79.9613 28.4713 79.9613 28.6124C79.9721 29.7636 80.6239 30.7411 80.9933 31.7945ZM80.537 39.1469C80.8738 38.3432 81.0041 37.507 81.0041 36.6382C81.0041 35.9757 80.9498 35.3241 80.8629 34.6725C80.8412 34.5096 80.8195 34.3467 80.7869 34.1838C80.5479 32.6633 79.983 31.2406 79.2878 29.6985C78.6468 30.4478 78.1145 31.0669 77.5931 31.6859C77.2889 32.0443 77.3867 32.2724 77.8103 32.457C78.5708 32.7719 79.2769 33.1955 79.9178 33.7276C80.3632 34.1077 80.6131 34.401 80.6674 34.7051C80.7326 35.0417 80.5479 35.3893 80.146 35.8671C79.5159 36.6056 79.2226 37.4093 79.1791 38.3867C79.1139 39.7985 78.5708 41.0475 77.4193 41.9597C77.0934 42.2204 76.7783 42.481 76.4959 42.7851C75.8224 43.491 75.8224 43.8277 76.4524 44.5445C76.6371 44.7508 76.8435 44.9354 77.0065 45.1526C77.4953 45.8151 77.441 46.3256 76.7892 46.836C76.4959 47.0641 76.1483 47.2378 75.8224 47.4224C75.5834 47.5528 75.3335 47.6722 75.0945 47.8025C74.9425 47.8894 74.8012 48.0089 74.8664 48.2044C74.9099 48.3456 75.0511 48.4107 75.1923 48.4216C75.4965 48.4433 75.8115 48.4433 76.1157 48.4759C76.7023 48.5411 76.8218 48.7365 76.5828 49.2904C75.931 50.7783 75.2575 52.2444 73.7801 53.1132C73.704 53.1567 73.6714 53.2761 73.6171 53.3521C74.66 53.83 75.4313 53.7323 76.1483 53.0263C76.6371 52.5485 77.0934 52.0272 77.5822 51.5602C78.1362 51.0389 78.4187 50.4199 78.4296 49.6488C78.4404 48.2369 78.6794 46.8577 79.0488 45.4893C79.1683 45.0223 79.3203 44.5553 79.3203 44.0775C79.3095 42.3398 79.8744 40.7325 80.537 39.1469ZM79.9721 23.1606C80.7217 22.0094 80.4936 20.9668 79.7223 19.9351C78.4296 18.2083 76.8978 16.6661 75.6486 14.8959C75.4965 14.6787 75.2792 14.4832 75.0728 14.3203C74.5188 13.8859 74.3775 13.8859 73.8344 14.3638C73.2369 14.8851 72.672 15.4389 71.9985 15.8408C70.7166 16.601 69.9128 16.3621 69.2827 15.0371C68.9025 14.2334 68.7938 14.1683 67.9356 14.5267C67.3056 14.7873 66.719 15.1457 66.0889 15.4281C64.2204 16.2643 62.58 15.6561 61.7218 13.8208C61.6784 13.723 61.6458 13.6253 61.6132 13.5275C61.4068 12.9519 61.0266 12.5284 60.4834 12.246C59.3537 11.6378 58.3325 10.9319 58.0066 9.65042C57.6916 9.59612 57.4852 9.69385 57.3331 9.80245C56.3011 10.5084 55.193 10.5409 53.9872 10.3346C52.7379 10.1283 51.543 10.5192 50.424 11.0948C50.0004 11.312 49.6528 11.6596 49.794 12.1591C49.9243 12.637 49.8592 13.3103 50.6413 13.3538C50.8694 13.3646 50.8803 13.4841 50.8586 13.6904C50.7499 14.5593 51.141 15.1131 51.9884 15.2869C52.8791 15.4715 53.7699 15.4172 54.639 15.2217C55.2147 15.0914 55.8014 15.048 56.3771 15.0914C58.0066 15.2217 59.2668 15.9168 59.8316 17.535C59.9511 17.8608 60.1467 17.9477 60.4183 18.002C61.233 18.1866 61.8196 18.6753 62.3302 19.3161C62.6995 19.7722 63.0689 20.2283 63.4708 20.641C63.9162 21.108 64.1878 21.6401 64.253 22.2809C64.3616 23.2692 64.492 24.2575 64.5897 25.2458C64.6658 26.0603 64.9048 26.7771 65.5783 27.3201C65.8716 27.5481 66.1106 27.8631 66.317 28.1672C67.0992 29.3075 67.9682 30.2958 69.1849 31.056C70.6949 31.99 70.8144 33.6299 69.6194 34.9766C69.2501 35.4001 68.9242 35.8237 68.9351 36.421C68.9459 36.9857 69.1523 37.4962 69.413 37.9849C69.8367 38.7668 70.2821 39.5379 70.7275 40.309C71.0643 40.8954 71.1077 41.4819 70.684 42.0358C69.8367 43.1652 69.576 44.4359 69.7715 45.9237C70.4885 45.7717 71.0425 45.4567 71.5857 45.0983C72.3787 44.5988 72.7046 43.9472 72.4656 43.0132C72.118 41.6556 72.4548 40.4393 73.3021 39.3424C73.4868 39.1035 73.6606 38.8428 73.867 38.6039C74.1386 38.2889 74.1603 38.0174 73.8344 37.7134C72.6394 36.6056 72.7372 35.2807 73.2912 33.9231C73.5302 33.315 73.867 32.7502 74.1386 32.1637C74.3667 31.6642 74.5731 31.1212 74.3341 30.5782C73.867 29.503 73.5737 28.3844 73.313 27.2441C73.2152 26.8205 73.0522 26.2775 72.5091 26.3209C72.0637 26.3535 72.0745 26.8748 71.9659 27.2223C71.7921 27.7762 71.7378 28.3735 71.4336 28.8839C70.8904 29.7745 69.9019 29.8722 69.337 29.0251C68.7504 28.1455 68.2181 27.1789 68.2289 26.082C68.2398 25.4847 68.0334 25.2566 67.5228 25.0394C66.4365 24.5833 65.9151 23.6493 66.0128 22.4873C66.078 21.7162 66.3387 20.9668 66.9253 20.4672C68.4462 19.1749 70.054 18.0888 72.2375 18.8599C73.0088 19.1314 73.3564 18.9359 73.704 18.1866C73.8778 17.8065 74.0408 17.4372 74.3993 17.1874C74.8555 16.8834 75.2575 16.9485 75.3661 17.4481C75.4965 18.0888 75.8441 18.621 76.0939 19.2075C76.6045 20.3912 76.8544 21.6184 76.7457 22.9108C76.6806 23.6602 76.9739 24.3444 77.5062 24.8656C77.8864 25.2349 78.2775 25.5933 78.6034 26.2449C78.9727 25.0177 79.3964 24.0511 79.9721 23.1606ZM79.6028 35.2915C79.907 34.9874 79.8418 34.6942 79.5159 34.4118C78.8858 33.8688 78.1797 33.467 77.4193 33.1195C76.3547 32.6307 76.2352 32.1855 76.9521 31.2298C77.3975 30.6216 77.919 30.0786 78.4078 29.4921C78.5816 29.2858 78.8532 29.0469 78.7446 28.7753C78.3101 27.711 77.995 26.5381 77.3106 25.6693C76.5285 24.6919 76.0505 23.7362 76.1374 22.509C76.2352 21.108 75.6377 19.9242 74.9859 18.7513C74.9099 18.6101 74.7578 18.5015 74.5948 18.3278C73.7258 19.7396 73.2043 19.9459 71.716 19.4898C71.0534 19.2835 70.4342 19.3269 69.8041 19.5658C69.1306 19.8265 68.5005 20.174 67.9139 20.5976C67.512 20.8799 67.2295 21.2601 67.0231 21.7053C66.48 22.9325 66.8819 23.9425 68.1203 24.4421C68.3376 24.529 68.5657 24.6159 68.783 24.7245C69.0654 24.8656 69.2175 25.1046 69.1089 25.3978C68.6635 26.6033 69.413 27.5155 69.891 28.4713C70.1409 28.9708 70.5537 28.9383 70.8144 28.4387C70.9665 28.1346 71.0425 27.7979 71.1403 27.4721C71.2598 27.0811 71.3358 26.6684 71.4988 26.2992C71.9007 25.3869 72.7807 25.2566 73.4759 25.9843C73.8127 26.3427 73.9865 26.7879 74.0951 27.2658C74.3015 28.2432 74.5296 29.1989 74.9424 30.1112C75.2683 30.8388 75.1814 31.5882 74.8664 32.3049C74.6274 32.8371 74.345 33.3475 74.0951 33.8797C73.5085 35.1503 73.313 36.3667 74.5188 37.4418C74.9424 37.822 74.9316 38.2781 74.5731 38.7234C74.4645 38.8537 74.3667 39.0057 74.2581 39.1252C73.2043 40.2872 72.7046 41.6122 73.0848 43.1869C73.1935 43.6322 73.2152 44.1318 72.9327 44.4793C72.3896 45.1635 72.2918 45.9672 72.1506 46.7817C72.0528 47.3573 71.7921 47.8786 71.5205 48.3999C70.8144 49.7357 70.1083 51.0715 69.4565 52.429C69.0654 53.2435 68.5874 53.982 67.903 54.5685C67.6749 54.764 67.3708 54.9378 67.2838 55.3722C68.0551 55.0464 68.6743 54.6337 69.3913 54.5468C71.1946 54.3187 72.5308 53.2544 73.9104 52.2227C74.8664 51.5059 75.3987 50.5068 75.7572 49.3556C75.377 49.2578 75.1054 49.1927 74.8447 49.1166C74.4319 48.9863 74.0951 48.7583 74.0082 48.3021C73.9104 47.7808 74.2037 47.455 74.5948 47.2052C74.9099 46.9989 75.2466 46.836 75.5834 46.6622C76.8001 46.054 76.6914 45.7608 75.9093 45.0658C75.8332 45.0006 75.7681 44.9137 75.7029 44.8377C75.0619 44.034 75.0511 43.3173 75.6811 42.5027C76.0179 42.0683 76.4524 41.7208 76.8761 41.3841C77.7995 40.6674 78.2992 39.6899 78.3644 38.5605C78.4404 37.3224 78.6903 36.2038 79.6028 35.2915ZM70.9991 47.8568C71.2924 47.2812 71.4988 46.6839 71.4879 45.8586C70.4016 46.4559 69.3153 46.6188 68.2398 46.8034C67.588 46.912 67.2838 47.2921 67.11 47.846C66.9797 48.237 66.8928 48.6388 66.8059 49.0406C66.4365 50.7783 65.4371 52.1684 64.2856 53.4499C63.9271 53.8626 63.2318 53.9277 63.0906 54.5902C63.0689 54.7097 62.8842 54.7531 62.7321 54.7097C62.58 54.6662 62.5257 54.5359 62.5257 54.3947C62.5257 54.0364 62.6561 53.6562 62.3411 53.3304C61.787 53.6345 61.5372 54.1124 61.3199 54.6228C61.1352 55.0681 61.0049 55.5351 60.8311 55.9803C60.4943 56.8274 59.9946 57.5659 59.2124 58.0547C58.3325 58.5977 57.7785 58.4999 57.0724 57.718C56.5618 57.1532 56.388 57.1315 55.8014 57.6202C54.7585 58.4999 53.9112 59.4882 53.8351 60.9326C53.8242 61.1064 53.7917 61.3345 53.5744 61.291C52.9552 61.1498 53.0638 61.5517 53.1073 61.8775C53.205 62.7463 53.683 63.3327 54.5086 63.6042C54.9323 63.7346 55.3777 63.8106 55.8122 63.8757C56.3989 63.9626 56.9529 64.1038 57.4852 64.3753C58.9408 65.1247 60.3205 65.0052 61.6567 64.0712C61.9391 63.8758 62.2324 63.6911 62.504 63.4956C63.4491 62.8006 64.4268 62.2033 65.4805 61.6711C66.6103 61.1064 67.8053 60.5308 68.7178 59.6945C69.4022 59.0538 69.6738 57.9786 70.1517 57.1098C70.4668 56.5451 70.8253 55.9912 71.1512 55.4265C71.2707 55.231 71.4771 55.0681 71.4445 54.7966C71.4119 54.7749 71.3793 54.7423 71.3576 54.7423C68.7069 55.1007 66.4691 56.2518 64.6441 58.2067C64.3833 58.4782 64.1335 58.7714 63.8728 59.0321C63.699 59.2058 63.4708 59.3579 63.2427 59.1624C62.9603 58.9343 63.0906 58.6628 63.2644 58.4348C63.3948 58.2719 63.536 58.1198 63.7098 58.0112C64.1878 57.6745 64.5789 57.2293 64.9591 56.7949C65.8825 55.7305 66.7841 54.6554 67.827 53.7105C68.1638 53.4065 68.3919 53.0263 68.5874 52.6245C69.3913 51.0281 70.1952 49.4424 70.9991 47.8568ZM69.891 41.8511C70.2387 41.3516 70.1952 40.928 69.9019 40.4393C69.4782 39.7442 69.0654 39.0274 68.6852 38.2998C67.9248 36.8445 67.9139 35.4978 69.1958 34.2815C69.8367 33.6733 69.8258 33.315 69.4348 32.533C69.2175 32.0877 68.9133 31.7294 68.4679 31.5013C67.5228 31.0234 66.8276 30.2849 66.2301 29.4161C65.763 28.7319 65.285 28.0694 64.6549 27.5264C64.2204 27.1463 64.014 26.6359 63.9271 26.082C63.8402 25.539 63.775 24.996 63.7098 24.453C63.6229 23.7253 63.536 22.9868 63.4382 22.118C62.9603 22.5524 62.8299 22.9868 62.5909 23.3452C62.2324 23.8882 61.9717 24.4964 61.8088 25.1263C61.6567 25.6802 61.3525 25.93 60.755 25.8105C60.1467 25.691 59.5275 25.7453 58.9083 25.8214C58.0827 25.9191 57.8654 26.2884 58.0718 27.0703C58.2673 27.7979 58.4194 28.5364 58.6041 29.2641C58.8865 30.4152 58.9083 30.437 60.0924 30.5347C61.6023 30.6542 62.3411 31.2732 62.6561 32.7176C62.7865 33.3367 62.9711 33.9014 63.4491 34.3467C63.7859 34.6616 63.938 35.1069 63.938 35.563C63.938 36.2581 64.2638 36.7468 64.8179 37.0943C65.6326 37.5939 66.0346 38.365 66.3279 39.2229C66.556 39.9071 66.7624 40.5913 66.9797 41.2755C67.4576 42.7525 67.6966 44.2078 66.7298 45.6088C66.632 45.7391 66.5995 45.9237 66.5669 46.0975C66.5126 46.3256 66.4474 46.5753 66.7841 46.7165C67.1969 46.1518 67.7292 45.7391 68.4353 45.5979C68.8264 45.5219 68.9351 45.2721 68.9133 44.9354C68.8373 43.7734 69.261 42.7634 69.891 41.8511ZM68.2289 61.0304C68.0117 61.0629 67.903 61.0521 67.827 61.1064C66.0889 62.2793 64.0792 62.9852 62.4497 64.321C62.2107 64.5165 61.9282 64.6577 61.6675 64.8206C60.2988 65.6786 58.8865 65.722 57.4526 65.0161C56.8225 64.712 56.1816 64.5274 55.4972 64.4079C55.1278 64.3428 54.7476 64.2776 54.3891 64.169C53.1616 63.7672 52.5532 62.9201 52.5424 61.6277C52.5424 61.1933 52.5858 60.7589 52.6184 60.2484C51.8037 60.5091 51.065 60.7914 50.2611 60.7589C49.4355 60.7263 48.7077 60.357 47.9472 60.0964C48.8163 60.8566 48.8054 61.1498 47.8277 61.7689C47.0456 62.2684 46.2417 62.7246 45.4813 63.2459C44.7317 63.7672 43.9387 64.1473 43.0479 64.2993C42.3635 64.4188 41.7226 64.6577 41.1251 65.0052C39.9301 65.6786 38.7135 66.2976 37.4533 66.8732C37.1817 66.9927 36.8558 67.047 36.7255 67.3619C36.7581 67.4922 36.8558 67.5248 36.9645 67.5465C39.2566 67.9918 41.5488 68.4154 43.9061 68.0678C44.3732 68.0027 44.8621 68.0352 45.34 68.057C45.6442 68.0678 45.9592 68.1221 46.2417 68.2199C46.6545 68.3502 46.7414 68.6434 46.5459 69.0344C46.4155 69.295 46.0896 69.4471 46.0896 69.7729C46.2743 69.8923 46.4372 69.8272 46.6002 69.7838C47.5344 69.5448 48.4143 69.1538 49.2291 68.6326C49.9352 68.1873 50.7065 68.0244 51.4778 68.4154C52.3686 68.8715 53.3137 68.9041 54.2805 68.8932C56.5401 68.8715 58.7888 68.4914 61.0483 68.8932C61.2765 68.9367 61.5263 68.8824 61.7653 68.8606C62.9928 68.752 64.014 68.2416 64.7418 67.2316C65.6435 65.9827 66.5017 64.6903 67.2295 63.3327C67.6315 62.6377 67.8813 61.8666 68.2289 61.0304ZM66.2844 44.8703C66.5125 44.4467 66.8059 43.9906 66.7081 43.5127C66.2736 41.3081 66.0454 39.0057 64.1118 37.4418C63.5795 37.0074 63.2536 36.4753 63.2427 35.7694C63.2318 35.3458 63.1123 34.9548 62.7864 34.6616C62.2976 34.2163 62.0912 33.6516 62.0369 33.0217C61.9391 31.6533 61.1244 31.2406 60.0163 31.1429C59.8425 31.132 59.6687 31.1103 59.5057 31.0995C58.8322 31.0669 58.4194 30.7085 58.2565 30.0677C58.0935 29.4704 57.9632 28.8731 57.8111 28.2758C57.7024 27.8197 57.7133 27.3092 57.0181 27.2766C56.7465 27.2658 56.7356 26.9291 56.7139 26.6902C56.627 25.7996 56.1273 25.1263 55.3994 24.7027C53.8568 23.7905 52.1622 23.3995 50.3697 23.6384C49.9895 23.6927 49.6202 23.8122 49.555 24.29C49.5224 24.4964 49.4681 24.7353 49.2291 24.7462C48.9249 24.7679 48.8706 24.4747 48.7728 24.2683C48.3818 23.4538 47.7517 22.9434 46.8718 22.661C45.8723 22.3461 44.9164 21.9551 43.9604 21.4664C42.5156 20.7279 40.9621 20.8691 39.5934 21.8682C39.1371 22.2049 38.746 22.5741 38.1268 22.433C37.3773 22.2809 36.7363 22.7479 36.0085 22.7696C34.1835 22.8348 32.793 23.8448 31.5002 25.0068C31.1092 25.3652 31.1635 25.5498 31.6632 25.7345C32.1738 25.93 32.7061 26.082 33.2166 26.2775C33.5643 26.4078 33.9227 26.549 34.2378 26.7554C35.0742 27.2984 35.0851 28.3084 34.2812 28.8839C34.1183 29.0034 33.9119 29.0686 33.7598 29.1989C33.3144 29.5899 33.3687 30.0786 33.9119 30.3175C34.4442 30.5564 34.9873 30.7628 35.5305 30.98C36.1389 31.2298 36.7146 31.5339 37.1491 32.0443C37.6488 32.6308 38.2355 32.7719 38.985 32.6633C40.1474 32.5004 41.3098 32.4135 42.4287 32.924C42.7763 33.0869 42.9936 32.9022 43.2434 32.685C44.0582 31.9683 45.0141 31.5339 46.0679 31.2841C46.7631 31.1212 47.4475 31.1538 48.0884 31.447C49.8048 32.2398 51.1736 33.3475 51.4235 35.3784C51.4452 35.5087 51.4561 35.6499 51.4886 35.7802C51.5538 36.0626 51.7168 36.1712 52.021 36.0843C52.9986 35.7911 53.922 36.0843 54.8345 36.3775C56.0404 36.7576 57.2245 37.2138 58.4955 37.3767C59.0169 37.4418 59.4732 37.6591 59.8425 38.0718C60.0272 38.2672 60.2444 38.4519 60.4726 38.5822C62.0152 39.4944 63.0037 40.852 63.7424 42.4484C63.9597 42.9154 64.1118 43.4259 64.4159 43.8277C65.1546 44.816 65.046 46.0541 65.5023 47.1184C65.5674 47.2704 65.5023 47.4659 65.3176 47.5419C65.1221 47.6179 64.97 47.4985 64.9048 47.3464C64.6549 46.7817 64.4051 46.2169 64.3508 45.5871C64.3073 45.1309 64.1769 44.7182 63.8945 44.3598C63.6446 44.034 63.4708 43.6539 63.3405 43.263C62.58 40.9823 60.7985 39.5922 58.9734 38.2347C58.8105 38.1152 58.5932 38.05 58.3977 38.0283C57.0941 37.8654 55.8774 37.3984 54.6281 36.9966C54.1393 36.8445 53.6287 36.7468 53.129 36.6382C52.8248 36.573 52.5098 36.6056 52.2274 36.7359C52.097 36.7902 51.9992 36.9097 51.9992 37.0509C51.9992 37.2029 52.1187 37.2789 52.2599 37.3115C52.5967 37.3767 52.9335 37.431 53.2702 37.5179C53.9003 37.6699 54.4435 37.9849 54.7259 38.5713C55.7362 40.6891 56.7247 42.8285 55.6601 45.2504C55.4212 45.7825 55.5189 46.2387 55.9752 46.6297C56.4314 47.0098 56.8116 47.4659 56.8225 48.0958C56.8334 48.5411 57.0506 48.6931 57.4743 48.6496C58.3325 48.5628 59.1147 48.8125 59.7882 49.323C60.9288 50.1809 62.1998 50.9194 62.9711 52.201C63.058 52.3421 63.221 52.429 63.3296 52.5593C63.5903 52.8634 63.8293 52.8526 64.0792 52.5268C64.7418 51.6471 65.4154 50.7783 65.7847 49.7248C66.0672 48.9429 66.2192 48.0958 65.9802 47.3138C65.7087 46.4233 65.8607 45.6522 66.2844 44.8703ZM62.667 21.4664C62.7647 21.26 62.7647 21.0863 62.6126 20.9016C61.8088 20.0002 61.2113 18.8273 59.8099 18.6536C59.4406 18.6101 59.2233 18.3712 59.1038 18.002C58.6475 16.5901 57.7893 15.9494 56.3337 15.8951C55.6819 15.8734 55.0301 15.9276 54.3891 16.0688C53.5418 16.2426 52.6836 16.2317 51.8363 16.0688C51.1953 15.9494 50.6304 15.6453 50.3589 15.0588C49.9787 14.2443 49.3051 13.9402 48.5121 13.7665C47.9798 13.6579 47.4475 13.5167 46.8935 13.4624C45.9484 13.3646 45.503 12.8976 45.3618 11.9528C45.3183 11.6813 45.3075 11.4098 45.2857 11.1383C45.1988 10.0522 45.0359 9.87848 43.9387 10.074C42.3635 10.3672 40.7557 10.5735 39.3218 11.3989C38.8764 11.6596 38.355 11.7573 37.8444 11.8225C36.4756 11.9854 35.1503 12.3329 33.8358 12.713C32.5214 13.0931 31.4242 13.8316 30.6746 15.2109C31.4133 15.3846 31.8696 15.8082 32.2824 16.2643C32.869 16.9159 33.5969 17.3503 34.4116 17.6544C35.5088 18.0563 36.5951 18.469 37.7575 18.6644C38.6374 18.8165 39.4196 19.164 39.6803 20.1306C39.8324 20.6845 40.1583 20.641 40.6254 20.565C41.8203 20.3587 43.0588 20.3152 44.1451 20.9125C45.1011 21.4338 46.0787 21.7596 47.1325 21.9334C47.6648 22.0203 48.0559 22.2809 48.3709 22.7588C48.8489 23.4647 48.8815 23.4321 49.6853 23.1497C49.9461 23.0628 50.2176 22.9651 50.4784 22.9543C53.1833 22.8782 55.6927 23.2801 57.344 25.8757C58.0501 25.0394 59.0169 25.0394 59.9729 25.0177C60.1467 25.0177 60.3205 25.0068 60.4834 25.0286C60.8854 25.0829 61.1244 24.9417 61.233 24.529C61.4177 23.8665 61.7653 23.2692 62.1347 22.6936C62.3954 22.3135 62.4931 21.8791 62.667 21.4664ZM61.8957 8.33632C62.5801 7.90191 62.5909 7.55438 61.9174 7.11997C61.1895 6.65298 60.3857 6.35974 59.5709 6.07737C58.9843 5.87103 58.8757 5.89276 58.8865 6.52266C58.8974 8.27116 56.8116 8.83588 55.7362 7.70642C54.9432 6.88104 53.9981 6.55523 52.9552 6.29458C51.858 6.01221 50.7825 5.67556 49.7071 5.30631C48.6751 4.94792 48.4578 4.39404 48.9141 3.39489C49.077 3.02564 49.316 2.67811 49.5333 2.33058C49.6528 2.12424 49.8048 1.92877 49.9243 1.72242C50.0656 1.47263 50.0221 1.27714 49.7179 1.16854C48.6751 0.831868 47.252 1.23371 46.5459 2.10253C46.1548 2.58038 45.8289 3.11254 45.4269 3.56867C44.7426 4.31803 44.1342 4.33974 43.3955 3.64468C43.037 3.30802 42.6785 3.01477 42.2223 2.84101C41.6139 2.60208 41.0165 2.35231 40.4298 2.06994C39.4739 1.61381 38.5179 1.62467 37.5294 1.90704C35.5305 2.47177 34.2269 3.77501 33.4339 5.65383C33.1297 6.35975 33.4882 6.92449 34.2704 6.90277C34.9982 6.88105 35.6935 6.68557 36.3996 6.55524C37.0079 6.44664 37.6163 6.29459 38.2246 6.25115C38.9416 6.19685 39.2132 6.53351 39.1806 7.25029C39.1697 7.55438 38.9416 7.82588 39.0502 8.14083C39.4196 8.33631 39.7889 8.17342 40.1583 8.1517C40.6036 8.11912 41.049 8.08654 41.4944 8.07568C41.8855 8.07568 42.1136 8.2603 42.2114 8.66213C42.3961 9.44407 42.4504 9.45494 43.2 9.37891C43.7105 9.32461 44.2211 9.27031 44.7426 9.27031C45.6008 9.29203 45.981 9.63954 46.0896 10.4975C46.1439 10.8993 46.1113 11.3229 46.1548 11.7247C46.1982 12.2134 46.4264 12.561 46.9478 12.6587C47.7517 12.7999 48.5447 12.9411 49.3377 13.0931C49.3594 12.9737 49.4029 12.9085 49.392 12.8542C49.077 11.3772 49.3269 10.8776 50.6848 10.2912C51.9015 9.76987 53.1833 9.50923 54.4978 9.72644C55.356 9.86762 56.1273 9.76986 56.8442 9.24857C57.1267 9.05308 57.4309 8.8902 57.7785 8.8359C58.2239 8.77074 58.7236 8.46664 58.9952 9.15084C59.0712 9.33546 59.2993 9.28117 59.4623 9.23773C60.277 9.07482 61.1352 8.82503 61.8957 8.33632ZM61.7218 52.7223C62.2107 52.2987 62.2107 52.201 61.711 51.7665C61.0157 51.1584 60.2879 50.5828 59.5492 50.0289C58.528 49.2795 57.4417 49.0298 56.3228 49.866C56.2685 49.9094 56.2033 49.942 56.149 49.9638C56.0186 50.0181 55.8883 50.0289 55.7688 49.9312C55.6493 49.8334 55.6276 49.6922 55.671 49.5619C55.7253 49.399 55.8231 49.2578 55.8991 49.1058C56.2793 48.2695 56.2685 47.846 55.595 47.2704C54.7476 46.5319 54.6933 45.7282 55.117 44.7834C55.4429 44.0449 55.5515 43.2521 55.4211 42.4702C55.2147 41.319 54.8454 40.2112 54.3566 39.1469C54.0741 38.5387 53.607 38.1803 52.966 38.0283C51.5973 37.7025 50.2394 37.7351 48.9141 38.2347C47.7843 38.6582 46.7957 39.2121 46.6002 40.5805C46.5459 40.9823 46.1656 41.08 45.8072 40.8846C45.4704 40.6891 45.3726 40.3741 45.3726 40.0157C45.3726 39.5705 45.3944 39.1252 45.3944 38.6799C45.3835 38.0935 45.1554 37.5722 44.5905 37.3441C43.993 37.1052 43.8844 36.7033 43.9495 36.1277C44.0473 35.2263 43.6454 34.5313 42.9393 33.9991C42.2983 33.5104 41.5705 33.2064 40.7557 33.2172C40.0388 33.2281 39.3218 33.2715 38.594 33.3149C37.9748 33.3475 37.4207 33.2281 37.0079 32.7393C36.1606 31.7402 34.9548 31.4035 33.825 30.9366C33.5099 30.8062 33.2275 30.7954 33.0102 31.1103C32.3584 32.0551 31.3807 32.1529 30.3596 32.0986C29.773 32.066 29.1972 32.0008 28.6106 31.9791C27.2636 31.914 26.1446 32.457 25.1126 33.2498C24.6998 33.5756 24.5803 34.086 24.3522 34.5096C24.2327 34.7376 24.6238 35.096 24.8519 35.3567C25.4711 36.0843 25.4494 36.2146 24.6564 36.7902C24.5695 36.8554 24.4826 36.8988 24.3957 36.964C23.7547 37.431 23.7113 37.6156 24.2544 38.1695C25.1778 39.1252 26.2641 39.8202 27.6112 40.0157C27.9805 40.07 28.3499 40.1461 28.7084 40.2764C29.1103 40.4176 29.3819 40.7977 29.2081 41.1669C28.7518 42.1335 28.7844 43.1326 28.7627 44.1426C28.7518 44.5553 28.502 44.9246 28.263 45.2612C27.9805 45.6522 27.709 46.054 27.3722 46.3907C26.9268 46.8468 26.8725 47.2595 27.1658 47.846C27.5243 48.5519 27.8936 48.7474 28.578 48.313C28.8387 48.1501 29.0995 47.9872 29.371 47.8568C29.7295 47.6831 29.9685 47.6722 30.2075 48.0849C30.403 48.4216 30.7072 48.7257 31.1092 48.8994C31.4459 49.0515 31.7392 49.1166 31.9891 48.7257C32.4562 47.998 33.2058 47.6505 33.9879 47.3464C34.8896 46.9989 35.7043 46.4885 36.3344 45.7282C36.7363 45.2504 36.7363 45.2504 37.1274 45.7825C37.1709 45.8368 37.2252 45.9129 37.2686 45.9129C37.9965 45.8911 38.3115 46.5102 38.7786 46.8794C39.778 47.6614 40.6145 47.6831 41.6791 46.9337C42.0159 46.6948 42.3418 46.4233 42.722 46.2713C43.754 45.8586 44.71 46.3147 44.6665 47.5419C44.6013 49.2252 45.6877 50.2787 47.3606 50.3873C47.9364 50.4199 48.5338 50.4416 49.0987 50.5611C50.0656 50.7565 50.663 51.3539 50.8477 52.3421C50.9781 53.0263 50.9672 53.7106 50.8803 54.3947C50.8586 54.6337 50.7282 54.916 50.8803 55.1007C51.5538 55.9152 51.0215 56.4908 50.5327 57.0772C49.8917 57.8483 49.1313 58.4782 48.2948 59.0429C49.5876 60.1072 50.5761 60.2484 52.021 59.6185C52.9443 59.2058 53.7048 58.5651 54.4326 57.8809C54.8128 57.5334 55.1604 57.1424 55.5624 56.8383C56.2685 56.2953 56.8442 56.3604 57.4852 56.9795C58.2347 57.7288 58.5932 57.7288 59.3211 56.9903C59.8642 56.4365 60.1358 55.7306 60.3639 55.0138C60.6355 54.1232 61.0266 53.3413 61.7218 52.7223ZM50.4784 37.3441C50.9889 37.2464 51.065 37.0618 50.9455 36.5839C50.7065 35.5848 50.1851 34.6725 50.0221 33.6516C50.0004 33.4996 49.8483 33.3584 49.7288 33.2389C48.1319 31.4904 45.7528 31.3167 43.9061 32.8371C43.4607 33.2064 43.4172 33.391 43.7649 33.8688C44.0039 34.2055 44.3406 34.4987 44.4058 34.9114C44.547 35.8997 44.8512 36.7359 45.6877 37.4093C46.2091 37.822 46.1005 38.6039 46.1222 39.3858C47.7082 38.0717 48.4469 37.7134 50.4784 37.3441ZM50.3697 53.83C50.3697 53.7323 50.3697 53.6237 50.3697 53.5259C50.3806 51.5711 49.8483 51.0281 47.882 50.9738C47.8169 50.9738 47.7408 50.9738 47.6756 50.9738C45.4161 50.9195 44.1994 49.79 44.0147 47.5636C43.9604 46.8794 43.6454 46.6514 42.9936 46.8686C42.559 47.0098 42.244 47.3356 41.8747 47.5962C40.9513 48.2478 39.9736 48.3456 38.9742 47.7917C38.6157 47.5962 38.3006 47.3138 37.9856 47.0532C37.3121 46.4885 36.682 46.4016 35.965 46.8794C35.2481 47.3573 34.5202 47.7917 33.6946 48.0523C33.2384 48.2044 32.8473 48.4976 32.5322 48.8777C32.3258 49.1275 32.3041 49.3447 32.6192 49.5619C33.2166 49.9638 33.7707 50.4307 34.3899 50.7891C35.8455 51.6579 36.845 52.8634 37.2795 54.5033C37.5293 55.4265 38.1051 56.0564 38.8873 56.5451C39.626 57.0012 39.941 57.0012 40.658 56.4582C41.1251 56.1107 41.5488 55.7088 42.0159 55.3613C42.961 54.6771 44.0147 54.3404 45.2097 54.4816C46.535 54.6445 47.8712 54.764 49.1965 54.8943C50.3154 55.0029 50.3371 54.9812 50.3697 53.83ZM50.3263 56.0346C50.0873 55.7523 49.8809 55.7414 49.6745 55.7197C48.2079 55.5785 46.7414 55.459 45.2749 55.2744C44.1016 55.1332 43.1022 55.4482 42.2114 56.1758C41.7878 56.5234 41.375 56.8926 40.9404 57.2184C40.2017 57.7614 39.4304 57.7723 38.6374 57.2944C37.638 56.6863 36.8776 55.9152 36.5408 54.7423C36.3235 54.0038 36.0954 53.9169 35.411 54.2427C34.5854 54.6445 33.6946 54.6988 32.8147 54.84C32.0543 54.9595 31.4459 54.6228 31.1417 53.9169C30.8158 53.1567 30.2618 52.9612 29.5014 52.9829C28.6106 53.0155 28.4803 53.1132 28.6649 54.0038C28.817 54.7423 29.1864 55.4156 29.5448 56.0781C30.1532 57.1533 30.6529 58.2827 31.0548 59.4556C31.4351 60.5525 31.3807 61.5842 30.8267 62.6268C30.2727 63.6803 29.7621 64.7772 29.3384 65.8958C28.8605 67.1773 28.4911 68.5023 28.0892 69.8163C27.8067 70.7395 27.6764 71.6843 27.6981 72.6617C27.7198 73.5849 27.7307 73.6174 28.6215 73.5631C29.7621 73.4871 30.881 73.5957 31.9674 73.965C32.8147 74.2473 33.6729 74.4754 34.5311 74.7469C35.5196 75.0618 36.4647 75.0184 37.4316 74.5623C38.6374 73.9975 39.7889 73.3025 41.0382 72.8246C41.2555 72.7377 41.4293 72.564 41.6248 72.4119C42.7003 71.6191 43.6345 70.6417 44.8295 70.0118C45.2749 69.7837 45.6551 69.4145 45.8506 68.9475C45.6985 68.6869 45.4813 68.6977 45.2749 68.6977C44.5905 68.7086 43.8952 68.6543 43.2217 68.7629C40.7449 69.1321 38.3875 68.3719 35.9759 68.0895C35.726 68.057 35.4979 67.9701 35.4219 67.7094C35.335 67.3945 35.5305 67.1773 35.7695 67.0252C36.052 66.8297 36.3453 66.6451 36.6603 66.504C38.1486 65.8089 39.626 65.0813 41.0599 64.2667C41.5053 64.0061 41.9833 63.7889 42.4939 63.7237C44.3623 63.4739 45.6768 62.2141 47.1759 61.2693C47.1977 61.2584 47.1651 61.1498 47.1433 61.0304C46.7088 61.0304 46.2634 61.0086 45.818 61.0304C45.34 61.0521 44.8621 61.0955 44.3841 61.0086C44.1125 60.9652 43.7866 60.9326 43.7649 60.5851C43.7431 60.1724 44.1016 60.1181 44.4058 60.0855C44.7426 60.0421 45.0902 60.0638 45.4378 60.0312C45.8072 59.9878 46.1874 59.9226 46.5459 59.8466C46.7088 59.814 46.9044 59.7489 46.8066 59.5099C46.5676 58.9235 47.0347 58.8149 47.3932 58.6194C48.5664 57.9895 49.5441 57.1532 50.3263 56.0346ZM41.1685 9.00965C40.9078 8.77072 40.6688 8.9119 40.4407 8.92276C39.9627 8.94448 39.4847 9.00964 39.0068 8.97706C38.2029 8.94448 37.9639 8.59696 38.1703 7.8476C38.192 7.78244 38.2246 7.71728 38.2463 7.65211C38.4527 6.96792 38.3767 6.87017 37.638 7.0005C36.9971 7.1091 36.3561 7.2503 35.7152 7.36976C34.6397 7.56525 33.5534 7.80417 32.4671 7.42407C32.2824 7.3589 32.1303 7.40234 31.9891 7.50008C31.4894 7.83675 30.9028 7.91278 30.3487 8.07568C29.1429 8.43407 27.9805 8.90105 26.7095 9.36804C27.7633 10.6387 27.2853 11.6596 26.514 12.637C26.2424 12.9845 25.9165 13.3103 25.5798 13.5818C24.6672 14.3095 24.1349 14.2986 23.3854 13.4081C22.7553 12.6587 22.0492 12.561 21.1801 12.8433C20.2459 13.1366 19.4855 13.7339 18.6273 14.1574C17.2911 14.8308 16.4112 15.8408 16.0418 17.3069C15.7485 18.469 15.0098 19.1857 13.7931 19.4464C12.6742 19.6853 11.8595 20.3912 11.0664 21.3578C11.5336 21.499 11.8377 21.3904 12.1419 21.3469C12.8915 21.26 13.6519 21.2166 14.4015 21.2818C15.1836 21.3469 15.4661 21.8248 15.0424 22.4764C14.0756 23.9642 13.3151 25.615 11.892 26.7662C11.5879 27.016 11.262 27.2766 11.099 27.6893C11.5227 28.026 12.0333 28.026 12.4243 28.3301C13.0653 28.8297 13.1956 28.8079 13.7714 28.2649C14.2711 27.7871 14.6622 27.2223 15.0315 26.6467C16.0635 25.0611 17.3671 23.6927 18.7142 22.3678C19.1922 21.9008 19.7136 21.5207 20.4088 21.499C20.713 21.4881 21.0172 21.4664 21.2888 21.6727C21.5603 21.8899 21.4083 22.2158 21.5169 22.6502C21.9406 21.7705 22.5489 21.26 23.1029 20.7062C23.6135 20.1849 24.1024 19.631 24.1567 18.8708C24.2436 17.5241 25.0583 16.8616 26.2424 16.525C26.7964 16.3729 27.3831 16.2643 27.9588 16.1991C28.6106 16.1123 29.1212 15.8191 29.5231 15.3195C29.7404 15.048 29.9577 14.7873 30.1532 14.505C31.1526 13.0388 32.5648 12.2026 34.2704 11.8116C35.5414 11.5184 36.8124 11.236 38.0942 10.9971C39.3652 10.7473 40.419 10.0848 41.1685 9.00965ZM39.2023 20.9777C39.2349 20.1306 38.67 19.3486 37.8444 19.3161C36.5408 19.2618 35.4219 18.6427 34.2269 18.2626C33.2927 17.9585 32.4997 17.4481 31.837 16.7204C31.522 16.3621 31.1743 16.0363 30.6855 15.8842C30.3922 15.7973 30.164 15.7647 29.9468 16.0145C29.3059 16.7313 28.4585 16.9485 27.5569 17.0354C27.1875 17.068 26.8073 17.1549 26.4488 17.2635C25.6015 17.5132 24.9931 17.9911 24.928 18.9685C24.8845 19.7179 24.5043 20.3369 24.0154 20.8799C23.7221 21.2057 23.4071 21.5315 23.0703 21.8248C22.7662 22.0963 22.6249 22.4221 22.6467 22.7914C22.538 23.1823 22.7444 23.3235 23.0486 23.3887C23.3528 23.4647 23.6461 23.5624 23.9503 23.595C25.8948 23.8339 27.8176 24.1054 29.5883 25.0177C30.1532 25.3109 30.6095 25.1372 31.0548 24.7027C32.3367 23.4647 33.8032 22.585 35.574 22.194C36.4213 22.0094 37.2578 21.8899 38.116 21.8465C38.7678 21.7922 39.1806 21.4447 39.2023 20.9777ZM35.7586 53.1024C35.4001 52.5159 34.9439 52.0706 34.379 51.7231C33.1623 50.9629 32.1194 49.9203 30.6529 49.6162C30.5877 49.6054 30.5117 49.5619 30.4791 49.5185C29.8925 48.5953 29.1212 48.7148 28.263 49.0841C27.9588 49.2144 27.5786 49.1275 27.2527 49.2252C26.753 49.3773 26.5466 49.1818 26.4597 48.7257C26.3945 48.389 26.3293 47.9872 25.9274 47.922C24.8628 47.7265 24.6672 46.9772 24.689 46.0866C24.7107 45.2395 24.4065 44.6313 23.5918 44.3055C23.4071 44.2295 23.2333 44.11 23.0595 44.0014C22.0601 43.3498 21.8428 42.6656 22.2882 41.5362C22.5598 40.8628 22.9291 40.233 23.3745 39.6791C23.7764 39.1795 23.809 38.7994 23.4071 38.2455C22.8857 37.5396 23.0378 37.0617 23.733 36.4861C23.9394 36.3232 24.2436 36.2581 24.2979 35.8888C23.6787 35.1503 23.2659 34.3141 23.5049 33.2715C23.6026 32.8262 23.2985 32.5764 22.9509 32.381C22.2882 32.0008 21.5604 31.7836 20.8325 31.6207C20.1264 31.4687 19.4094 31.3818 18.7142 31.2298C17.9103 31.056 17.6713 30.7628 17.6822 29.9483C17.6822 29.6116 17.7365 29.2641 17.7908 28.9274C18.0298 27.2441 18.334 25.5824 19.8983 24.5398C20.0503 24.4312 20.1373 24.3009 19.9852 24.1271C19.6484 23.747 19.8983 23.4321 20.0938 23.1063C20.2568 22.8456 20.4957 22.6284 20.5175 22.1723C19.844 22.118 19.4529 22.5198 19.0618 22.8891C17.5953 24.2901 16.2699 25.8105 15.1619 27.5156C14.7056 28.1998 14.2059 28.9057 13.4129 29.2206C12.533 29.5682 12.3374 30.3827 12.1636 31.0777C11.9138 32.1529 12.1853 33.2498 12.7068 34.2381C13.0544 34.9114 13.4238 35.563 13.804 36.2146C14.6187 37.6482 15.0858 39.1795 15.0858 40.8194C15.0858 42.4267 15.6073 43.8385 16.4438 45.1744C16.8131 45.7608 17.1825 46.3364 17.5192 46.9337C18.1058 47.9763 18.4209 49.0949 18.2688 50.2896C18.1601 51.1584 18.3883 51.8969 18.8228 52.6245C19.681 54.0472 20.3328 55.5459 20.4957 57.2293C20.5175 57.4682 20.5827 57.7071 20.6696 57.9243C21.1367 59.1081 21.6473 59.3688 22.8748 59.0321C23.0052 58.9995 23.1355 58.9561 23.2767 58.9235C24.3305 58.6628 24.9171 58.0112 25.0583 56.9252C25.1561 56.1758 25.1669 55.4265 25.2213 54.6663C25.3082 53.4499 25.7862 52.8743 26.9703 52.5593C27.8067 52.3313 28.6649 52.353 29.5231 52.3204C30.5008 52.2878 31.283 52.5268 31.6958 53.5042C31.8479 53.8626 32.1412 54.1775 32.554 54.1232C33.6729 54.0364 34.8135 53.9603 35.7586 53.1024ZM33.8684 28.3083C34.3138 28.102 34.2704 27.6024 33.8358 27.3201C33.5534 27.1355 33.2275 27.0051 32.9016 26.8965C31.2178 26.3318 29.61 25.5716 27.9697 24.9091C27.2962 24.6376 26.6009 24.4638 25.8839 24.3878C24.7216 24.2575 23.5592 24.1271 22.462 23.7253C22.0709 23.5733 21.8319 23.6602 21.5929 23.986C21.2345 24.4964 20.7565 24.8874 20.2459 25.2458C19.6376 25.6802 19.2139 26.2558 18.9858 26.9617C18.7142 27.8088 18.5621 28.6885 18.4752 29.579C18.3991 30.3827 18.4643 30.437 19.2573 30.5782C20.4414 30.7845 21.6255 30.9691 22.7444 31.447C23.4614 31.7511 24.1024 32.1203 24.3305 32.9566C24.689 32.9457 24.8302 32.7937 24.9931 32.6742C26.4054 31.599 27.9805 31.1972 29.7404 31.5013C30.1097 31.5664 30.4899 31.5773 30.8702 31.5664C31.9348 31.523 32.3584 31.2081 32.63 30.1981C32.8364 29.4161 33.0211 28.6885 33.8684 28.3083ZM30.1206 62.3771C30.7181 61.4757 30.7072 60.5091 30.3596 59.5208C29.9794 58.413 29.4797 57.3596 28.9256 56.3387C28.3933 55.3504 27.8719 54.3404 27.9154 53.0915C26.1881 53.2979 25.9057 53.5694 25.7862 55.1007C25.7318 55.7523 25.6993 56.4039 25.6232 57.0446C25.4603 58.2936 24.7867 59.119 23.5483 59.4448C23.179 59.5425 22.7879 59.5859 22.462 59.7488C21.506 60.2158 20.3545 60.5308 20.3871 61.9535C20.3871 62.0512 20.3219 62.149 20.2894 62.2467C20.0721 62.9418 20.0286 63.6586 19.996 64.3753C19.9634 65.331 20.2676 65.6786 21.191 65.8741C21.4952 65.9392 21.7993 65.9609 22.1144 65.9827C23.6787 66.1347 24.1893 66.656 24.1893 68.1981C24.1893 68.7846 24.1241 69.3602 24.1024 69.9467C24.0698 70.5223 23.9068 71.1304 24.2979 71.6408C24.8954 72.4336 25.5363 73.2047 26.4271 73.6935C26.8399 73.9215 27.0572 73.7586 27.0463 73.2699C27.0354 72.2382 27.0246 71.2064 27.3396 70.2073C27.8502 68.5674 28.3608 66.9384 28.9474 65.331C29.295 64.3319 29.5231 63.2785 30.1206 62.3771ZM28.2739 41.6882C28.5889 41.0149 28.5454 40.8954 27.861 40.7868C26.753 40.6239 25.7318 40.2873 24.8193 39.6248C24.6129 39.4727 24.3739 39.3533 24.1784 39.5922C23.5049 40.4176 22.8965 41.2864 22.6901 42.2421C22.6467 42.7742 22.8205 43.0892 23.1572 43.3173C23.5266 43.5562 23.9177 43.7734 24.3088 43.9906C24.928 44.3381 25.2756 44.8377 25.3082 45.5545C25.3299 45.9237 25.3516 46.3147 25.4494 46.6731C25.5689 47.0966 25.9491 47.1727 26.2207 46.836C26.7747 46.1409 27.3179 45.435 27.8176 44.6965C28.1 44.2947 28.2847 43.806 28.0674 43.339C27.8067 42.7199 28.0349 42.2204 28.2739 41.6882ZM20.5283 59.9118C20.8868 59.7163 20.9303 59.4882 20.6478 59.1841C20.0612 58.5434 19.8548 57.7614 19.757 56.9252C19.6267 55.85 19.2573 54.8617 18.7576 53.9169C18.5078 53.4282 18.2471 52.9503 17.9755 52.4725C17.6604 51.9186 17.4975 51.3321 17.5953 50.7023C17.8234 49.1601 17.3671 47.7917 16.5306 46.5102C16.0853 45.826 15.629 45.1309 15.2814 44.3816C14.8251 43.415 14.4775 42.405 14.4992 41.319C14.5427 39.375 13.9887 37.6048 12.9784 35.954C12.1745 34.6508 11.5444 33.2932 11.4684 31.7402C11.4466 31.2949 11.2294 31.1429 10.8057 31.1755C10.2191 31.2081 9.64335 31.2298 9.05673 31.2624C9.05673 31.2949 9.05673 31.3166 9.05673 31.3492C8.47011 31.3492 7.89436 31.3384 7.30775 31.3492C6.53645 31.3601 5.94983 31.7294 5.43926 32.2941C4.57019 33.2498 4.41812 34.3467 4.75488 35.5522C5.13509 36.9423 5.41753 38.3541 5.58048 39.7877C5.77602 41.547 5.16767 42.872 3.60336 43.7299C3.03847 44.0449 2.441 44.3164 1.87611 44.6422C1.34381 44.9572 1.30035 45.2287 1.63711 45.7282C1.75661 45.902 1.88697 46.0649 2.04992 46.1844C2.81035 46.7382 3.21229 47.5093 3.53818 48.3564C4.07048 49.7357 4.73314 51.0498 5.45012 52.3421C5.7217 52.8417 6.0802 53.2327 6.60163 53.4608C8.22026 54.1884 9.55643 55.3179 10.8818 56.469C11.6965 57.1641 11.7617 57.8592 11.0882 58.7063C10.8166 59.0538 10.469 59.3362 10.1431 59.6511C9.92579 59.8575 9.83888 60.0638 9.95837 60.3787C10.382 61.5408 11.8269 62.692 13.087 62.7246C14.8034 62.768 16.5198 62.6486 18.2036 62.3445C18.8445 62.2359 19.5289 62.2033 19.3225 61.2041C19.2573 60.8892 19.5506 60.5742 19.8439 60.357C20.0612 60.205 20.2893 60.0421 20.5283 59.9118Z" fill="black"/>
<path d="M81.0084 36.7182C81.0084 37.5893 80.8786 38.4277 80.543 39.2334C79.8828 40.8231 79.32 42.4346 79.3308 44.1986C79.3308 44.6668 79.1793 45.1459 79.0602 45.6141C78.703 46.986 78.4649 48.3689 78.4433 49.7844C78.4324 50.5575 78.151 51.1781 77.599 51.7008C77.1011 52.169 76.6466 52.6916 76.1703 53.1707C75.456 53.8785 74.6983 53.9764 73.6484 53.4974C73.7026 53.4102 73.735 53.3014 73.8108 53.2578C75.2936 52.3758 75.9647 50.9059 76.6033 49.4251C76.8414 48.8698 76.7223 48.6738 76.1378 48.6084C75.8348 48.5758 75.5209 48.5867 75.2178 48.554C75.0771 48.5431 74.9364 48.4778 74.8931 48.3362C74.8282 48.1402 74.9689 48.0205 75.1204 47.9333C75.3586 47.8027 75.6075 47.6829 75.8456 47.5522C76.1703 47.3671 76.5167 47.2038 76.8089 46.9643C77.4475 46.4525 77.5124 45.9298 77.0254 45.2765C76.863 45.0588 76.6574 44.8737 76.4734 44.6668C75.8456 43.9373 75.8456 43.6106 76.5167 42.9028C76.7981 42.6088 77.112 42.3367 77.4367 42.0753C78.584 41.1607 79.1252 39.9085 79.1901 38.493C79.2334 37.513 79.5148 36.7073 80.1534 35.9669C80.5647 35.4878 80.7379 35.1393 80.6729 34.8018L80.8677 34.78C80.9543 35.3898 81.0084 36.054 81.0084 36.7182Z" fill="#13751E"/>
<path d="M81.0091 34.7581L80.8093 34.78C80.7538 34.4727 80.4985 34.1763 80.0434 33.7922C79.3996 33.2543 78.6782 32.8263 77.8901 32.508C77.4572 32.3324 77.3462 32.1018 77.6681 31.7287C78.2009 31.103 78.7448 30.4774 79.3996 29.72C80.11 31.2786 80.6872 32.7165 80.9314 34.2532C80.9647 34.4288 80.9869 34.5934 81.0091 34.7581Z" fill="#13751E"/>
<path d="M79.6905 19.9589C80.4619 20.9921 80.6792 22.0362 79.9404 23.189C79.3645 24.0808 78.9408 25.0487 78.5714 26.2668C78.2454 25.6142 77.8542 25.2554 77.474 24.8856C76.9416 24.3636 76.6591 23.6784 76.7134 22.928C76.822 21.6229 76.5721 20.4048 76.0615 19.2194C75.8116 18.6321 75.4639 18.1101 75.3335 17.4575C75.2248 16.9573 74.8228 16.892 74.3665 17.1965C74.0079 17.4358 73.8449 17.8056 73.6711 18.1971C73.3342 18.9584 72.9866 19.1541 72.2042 18.8714C70.0203 18.0992 68.4122 19.1868 66.8911 20.481C66.3043 20.9812 66.0436 21.7208 65.9784 22.5038C65.8806 23.6566 66.4021 24.5919 67.4887 25.0596C67.9993 25.2771 68.2058 25.5055 68.1949 26.1036C68.184 27.2021 68.7165 28.1591 69.3032 29.0509C69.8682 29.8992 70.8569 29.8014 71.4002 28.9096C71.7044 28.3984 71.7588 27.8002 71.9326 27.2456C72.0413 26.8976 72.0304 26.3755 72.4759 26.3429C73.0191 26.3103 73.1821 26.8432 73.2799 27.2673C73.5407 28.4093 73.8341 29.5294 74.3013 30.6061C74.5294 31.1499 74.3339 31.6937 74.1057 32.194C73.8341 32.7921 73.5081 33.3577 73.2582 33.9558C72.7149 35.3153 72.6063 36.6312 73.8015 37.7514C74.1274 38.045 74.0948 38.3278 73.8341 38.6432C73.6385 38.8825 73.4646 39.1326 73.2691 39.3827C72.4216 40.4812 72.0956 41.7101 72.4324 43.0587C72.6715 44.0049 72.3346 44.6465 71.5523 45.1468C70.9982 45.4948 70.4441 45.8211 69.7378 45.9734C69.5422 44.4834 69.803 43.211 70.6505 42.0799C71.0742 41.5144 71.0308 40.938 70.694 40.3507C70.2485 39.5785 69.7921 38.8063 69.3792 38.0233C69.1185 37.5448 68.912 37.0336 68.9012 36.4572C68.8903 35.8591 69.2163 35.4349 69.5857 35.0108C70.77 33.6622 70.6614 32.02 69.1511 31.0847C67.9341 30.3343 67.054 29.3446 66.2826 28.1918C66.0762 27.8872 65.8263 27.5718 65.5437 27.3435C64.8701 26.7997 64.6419 26.0819 64.555 25.2662C64.4572 24.2765 64.3268 23.2869 64.2182 22.2972C64.153 21.6555 63.8814 21.1226 63.4359 20.655C63.0339 20.2308 62.6644 19.7849 62.295 19.3281C61.7843 18.6974 61.1976 18.1971 60.3827 18.0122C60.1111 17.9469 59.9155 17.8708 59.796 17.5446C59.231 15.9241 57.9706 15.228 56.3408 15.0975C55.7649 15.054 55.1782 15.0975 54.6023 15.228C53.7222 15.4238 52.8312 15.4782 51.9511 15.2933C51.1036 15.1193 50.7125 14.5755 50.8211 13.6946C50.8429 13.4771 50.832 13.3574 50.6038 13.3574C49.8215 13.3139 49.8867 12.6397 49.7563 12.1611C49.626 11.6609 49.9736 11.3128 50.3865 11.0953C51.5057 10.5189 52.7009 10.1274 53.9504 10.334C55.1673 10.5407 56.2647 10.508 57.2969 9.8011C57.4599 9.69235 57.6555 9.59448 57.9706 9.64885C58.2965 10.9322 59.3179 11.6391 60.4479 12.2481C60.9803 12.5418 61.3606 12.955 61.5779 13.5314C61.6105 13.6293 61.6431 13.7272 61.6865 13.8251C62.5449 15.6631 64.1856 16.2721 66.0544 15.4347C66.6738 15.1519 67.2714 14.793 67.9015 14.532C68.7599 14.1731 68.8686 14.2384 69.2489 15.0432C69.8791 16.37 70.6831 16.6092 71.9652 15.8479C72.6497 15.4347 73.2147 14.88 73.8015 14.3689C74.3447 13.9012 74.486 13.8903 75.0401 14.3254C75.2574 14.4885 75.4639 14.6843 75.616 14.9018C76.8655 16.6854 78.3975 18.2297 79.6905 19.9589Z" fill="#13751E"/>
<path d="M79.5022 34.4736C79.8178 34.7455 79.894 35.0393 79.5893 35.3547C78.6751 36.2685 78.4247 37.389 78.3486 38.64C78.2833 39.7714 77.7826 40.7505 76.8575 41.4685C76.4222 41.8057 75.9977 42.1538 75.6603 42.589C75.0291 43.4048 75.04 44.1228 75.6821 44.9278C75.7474 45.004 75.8127 45.091 75.8889 45.1563C76.6725 45.8525 76.7813 46.1462 75.5624 46.7554C75.225 46.9295 74.8876 47.0927 74.572 47.2994C74.1802 47.5496 73.8755 47.8868 73.9843 48.3981C74.0714 48.855 74.4087 49.0835 74.8223 49.214C75.0835 49.2901 75.3447 49.3554 75.7365 49.4533C75.3774 50.6064 74.8441 51.6073 73.8863 52.3252C72.515 53.3478 71.1655 54.4248 69.3588 54.6533C68.6405 54.7403 68.0093 55.1537 67.2474 55.48C67.3345 55.0449 67.6392 54.8708 67.8678 54.675C68.5643 54.0767 69.0323 53.3478 69.4241 52.532C70.0771 51.1721 70.7846 49.8341 71.492 48.496C71.7641 47.9738 72.0253 47.4517 72.1232 46.8751C72.2647 46.0701 72.3627 45.2651 72.9068 44.5688C73.1898 44.2207 73.168 43.7094 73.0592 43.2743C72.6783 41.686 73.1789 40.3697 74.2346 39.2057C74.3543 39.0752 74.4414 38.9338 74.5502 38.8032C74.9094 38.3572 74.9203 37.9003 74.4958 37.5196C73.2877 36.4426 73.4728 35.2242 74.0714 33.9514C74.3217 33.4184 74.6046 32.9071 74.8441 32.374C75.1706 31.656 75.2577 30.9054 74.9203 30.1766C74.5067 29.2628 74.2781 28.2946 74.0714 27.3264C73.9734 26.8477 73.7993 26.4017 73.451 26.0427C72.7653 25.3139 71.8729 25.4335 71.4702 26.3582C71.307 26.7281 71.2308 27.1414 71.1111 27.5331C71.0131 27.8594 70.9369 28.2075 70.7846 28.5013C70.5234 29.0017 70.1098 29.0343 69.8595 28.5339C69.3806 27.5766 68.6405 26.6628 69.0758 25.4553C69.1847 25.1615 69.0323 24.9113 68.7493 24.7808C68.5317 24.672 68.3031 24.5959 68.0855 24.4979C66.8447 23.9975 66.4421 22.9858 66.9862 21.7566C67.1821 21.3105 67.476 20.9298 67.8787 20.647C68.4664 20.2227 69.0976 19.8746 69.7724 19.6135C70.3927 19.3742 71.024 19.3415 71.6879 19.5373C73.1898 19.9942 73.7013 19.7876 74.572 18.3734C74.7352 18.5474 74.8876 18.6562 74.9638 18.7976C75.6168 19.9725 76.2154 21.1583 76.1174 22.5616C76.0304 23.7909 76.5092 24.7482 77.2929 25.7272C77.9894 26.5975 78.2941 27.7833 78.7295 28.8385C78.8383 29.1105 78.5662 29.3498 78.3921 29.5565C77.9132 30.133 77.3908 30.6878 76.9337 31.297C76.2154 32.2543 76.3351 32.7004 77.4017 33.1899C78.1635 33.5271 78.871 33.9297 79.5022 34.4736Z" fill="#13751E"/>
<path d="M71.5021 45.82C71.513 46.6451 71.3067 47.2422 71.0135 47.8176C70.2101 49.4026 69.4066 50.9984 68.6032 52.5943C68.3969 52.996 68.1797 53.376 67.8431 53.6799C66.8008 54.6244 65.8996 55.6992 64.9768 56.7631C64.5967 57.1974 64.2059 57.6425 63.7281 57.979C63.5653 58.0985 63.4133 58.2504 63.283 58.4024C63.0984 58.6304 62.979 58.9018 63.2613 59.1298C63.5001 59.3252 63.7173 59.1732 63.891 58.9995C64.1516 58.7281 64.4013 58.4459 64.6619 58.1745C66.4859 56.2203 68.7226 55.0695 71.3718 54.7113C71.3936 54.7113 71.4261 54.7439 71.4587 54.7656C71.4913 55.037 71.285 55.189 71.1655 55.3952C70.8398 55.9598 70.4815 56.5026 70.1667 57.078C69.6889 57.9465 69.4175 59.0212 68.7335 59.6618C67.8214 60.5085 66.6271 61.0731 65.4979 61.6376C64.4447 62.1696 63.4676 62.7667 62.523 63.4615C62.2515 63.6677 61.9584 63.8414 61.6761 64.0368C60.3514 64.9813 58.9617 65.0899 57.5068 64.3408C56.9856 64.0694 56.421 63.9283 55.8347 63.8414C55.3896 63.7763 54.9444 63.7003 54.5318 63.57C53.7066 63.2986 53.2289 62.7124 53.1312 61.8439C53.0986 61.5182 52.99 61.1056 53.5981 61.2576C53.8152 61.3119 53.8478 61.0839 53.8586 60.8994C53.9346 59.4446 54.7815 58.4567 55.8238 57.5882C56.4102 57.0997 56.5947 57.1214 57.0942 57.6859C57.7891 58.4676 58.3537 58.5653 59.2331 58.0225C60.0257 57.5339 60.5143 56.7957 60.8509 55.9489C61.0246 55.5038 61.1549 55.037 61.3395 54.5919C61.5458 54.0925 61.7955 53.6039 62.3601 53.3C62.675 53.6365 62.5555 54.0056 62.5447 54.3639C62.5447 54.505 62.599 54.6353 62.751 54.6787C62.8921 54.7222 63.0767 54.6787 63.1093 54.5593C63.2504 53.8971 63.9453 53.8211 64.3036 53.4194C65.4545 52.1275 66.4534 50.7487 66.8225 49.0117C66.9094 48.6101 66.9963 48.2084 67.1266 47.8176C67.3111 47.2747 67.6043 46.8839 68.2557 46.7754C69.3306 46.58 70.4164 46.4171 71.5021 45.82Z" fill="#13751E"/>
<path d="M69.8838 40.3369C70.187 40.8243 70.2195 41.2468 69.873 41.745C69.2342 42.6549 68.8227 43.6622 68.8877 44.8103C68.9093 45.1569 68.8011 45.406 68.4113 45.471C67.7074 45.601 67.1769 46.0234 66.7654 46.5867C66.4298 46.4567 66.4947 46.2076 66.5489 45.9693C66.5813 45.8068 66.6138 45.6227 66.7113 45.4819C67.675 44.0954 67.4367 42.6332 66.9603 41.1601C66.7329 40.4777 66.538 39.7845 66.3107 39.1129C66.0183 38.2573 65.6177 37.4882 64.8056 36.99C64.2534 36.6542 63.9285 36.156 63.9285 35.4627C63.9285 35.0186 63.7769 34.5637 63.4413 34.2496C62.9648 33.8055 62.7808 33.2423 62.6508 32.6249C62.3477 31.1843 61.6005 30.5777 60.0955 30.4478C58.9152 30.3503 58.8936 30.3394 58.6121 29.1805C58.428 28.4548 58.2764 27.7182 58.0815 26.9925C57.8758 26.2126 58.0923 25.8444 58.9152 25.7469C59.5216 25.671 60.1496 25.6169 60.756 25.7361C61.3515 25.8552 61.6547 25.6061 61.8063 25.0537C61.9795 24.4254 62.2286 23.8297 62.5859 23.2773C62.8241 22.9199 62.9432 22.4758 63.4304 22.0533C63.5279 22.9199 63.6145 23.6456 63.7011 24.3821C63.7661 24.9237 63.8311 25.4653 63.9177 26.0068C64.0043 26.5592 64.2209 27.0683 64.6432 27.4474C65.2712 27.989 65.7476 28.6606 66.2132 29.3321C66.7979 30.1878 67.4909 30.9243 68.4437 31.4117C68.8877 31.6392 69.1909 31.9966 69.4074 32.4407C69.7972 33.2206 69.808 33.5781 69.1692 34.1846C67.8915 35.4086 67.9023 36.7517 68.6603 38.1923C69.0501 38.918 69.4616 39.6329 69.8838 40.3369Z" fill="#DEF8AB"/>
<path d="M67.7273 61.0862C67.8033 61.0425 67.9117 61.0534 68.1286 61.0096C67.7816 61.8409 67.5321 62.6283 67.1525 63.3392C66.4366 64.7172 65.5797 66.0078 64.6686 67.2655C63.9419 68.2717 62.9223 68.7857 61.6966 68.9061C61.458 68.9279 61.2085 68.9717 60.9808 68.9389C58.7247 68.5342 56.4686 68.917 54.2234 68.9389C53.258 68.9498 52.3144 68.917 51.4249 68.4577C50.6548 68.0639 49.8847 68.228 49.1797 68.6764C48.3554 69.1904 47.4876 69.5841 46.5548 69.8357C46.3921 69.8794 46.2294 69.9451 46.045 69.8248C46.0559 69.4857 46.3704 69.3435 46.5006 69.0811C46.6958 68.6873 46.5982 68.392 46.1969 68.2608C45.904 68.1624 45.6003 68.1186 45.2966 68.0967C44.8194 68.0749 44.3313 68.0421 43.8649 68.1077C41.5112 68.4577 39.2226 68.0311 36.9339 67.5827C36.8363 67.5608 36.7387 67.528 36.6953 67.3968C36.8255 67.0796 37.1617 67.0249 37.422 66.9046C38.6694 66.3359 39.895 65.7125 41.0882 65.0235C41.6847 64.6844 42.3247 64.4329 43.008 64.3126C43.8974 64.1595 44.6892 63.7657 45.4376 63.2517C46.1969 62.7158 46.9995 62.2565 47.7805 61.7643C48.7458 61.1518 48.7675 60.8456 47.8998 60.08C48.6591 60.3425 49.3966 60.7253 50.2101 60.7472C51.0128 60.78 51.7503 60.4956 52.5638 60.2331C52.5313 60.7472 52.4879 61.1846 52.4879 61.6221C52.4988 62.9236 53.1062 63.7767 54.3318 64.1813C54.6898 64.3016 55.0585 64.3673 55.4382 64.4219C56.1215 64.5422 56.7614 64.7282 57.3905 65.0344C58.8223 65.7344 60.2324 65.6906 61.599 64.8375C61.8593 64.6735 62.1413 64.5313 62.38 64.3345C63.9853 62.9783 65.9919 62.2674 67.7273 61.0862Z" fill="#13751E"/>
<path d="M66.5765 43.4454C66.6741 43.9226 66.3813 44.378 66.1535 44.8009C65.7306 45.5817 65.5788 46.3516 65.8499 47.2625C66.0885 48.0433 65.9366 48.8891 65.6547 49.6699C65.2751 50.7109 64.6028 51.5893 63.9521 52.4676C63.7135 52.793 63.4749 52.8038 63.2038 52.5002C63.0954 52.37 62.9219 52.2833 62.846 52.1423C62.076 50.8627 60.818 50.1253 59.6685 49.2687C58.9962 48.759 58.2153 48.5096 57.3586 48.5963C56.9357 48.6397 56.7188 48.4987 56.708 48.0433C56.6863 47.4035 56.3067 46.9589 55.8621 46.5794C55.4066 46.189 55.309 45.7335 55.5476 45.2022C56.6104 42.784 55.6235 40.6586 54.615 38.5331C54.333 37.9476 53.7799 37.6331 53.1618 37.4813C52.8256 37.3945 52.4894 37.3403 52.1533 37.2752C52.0123 37.2427 51.893 37.1668 51.893 37.015C51.893 36.874 51.9906 36.7656 52.1207 36.7005C52.4135 36.5704 52.7172 36.5378 53.0208 36.6029C53.5197 36.7113 54.0294 36.8089 54.5174 36.9608C55.7536 37.3511 56.9682 37.8283 58.2804 37.9909C58.4756 38.0126 58.6925 38.0777 58.8552 38.197C60.6771 39.5416 62.4556 40.9297 63.2147 43.2177C63.3448 43.6081 63.5183 43.9876 63.7677 44.313C64.0497 44.6708 64.1907 45.0829 64.2232 45.5383C64.2883 46.1564 64.5269 46.7312 64.7763 47.2951C64.8414 47.4469 64.9932 47.5662 65.1884 47.4902C65.3727 47.4143 65.4378 47.23 65.3727 47.0673C64.9173 46.0046 65.0257 44.7684 64.2883 43.7816C63.9846 43.3804 63.8328 42.8707 63.6159 42.4044C62.8785 40.8212 61.8916 39.4549 60.3517 38.544C60.124 38.403 59.8963 38.2295 59.7227 38.0343C59.354 37.6331 58.8986 37.4054 58.378 37.3403C57.1092 37.1776 55.9272 36.7222 54.7234 36.3426C53.8125 36.0498 52.8798 35.7571 51.9147 36.0499C51.611 36.1366 51.4592 36.0282 51.3833 35.7462C51.3508 35.6161 51.3291 35.4751 51.3182 35.345C51.0688 33.3063 49.7024 32.2002 47.989 31.4195C47.3491 31.1267 46.6659 31.0942 45.9719 31.2568C44.92 31.5062 43.9656 31.94 43.1523 32.6557C42.9029 32.8726 42.6968 33.0569 42.339 32.8943C41.2328 32.3846 40.0616 32.4605 38.9013 32.634C38.153 32.7424 37.5674 32.6015 37.0685 32.0159C36.6347 31.5062 36.06 31.2026 35.4527 30.9532C34.9105 30.7363 34.3682 30.5303 33.8369 30.2917C33.3055 30.0532 33.2404 29.5652 33.685 29.1748C33.8369 29.0447 34.0429 28.9796 34.2056 28.8603C35.0081 28.2747 34.9972 27.2771 34.1622 26.7349C33.8477 26.5289 33.4898 26.3879 33.1428 26.2577C32.6331 26.0625 32.1017 25.9216 31.592 25.7155C31.104 25.5203 31.039 25.336 31.4294 24.989C32.7199 23.8287 34.0971 22.8202 35.9299 22.7552C36.6564 22.7335 37.2963 22.2672 38.0445 22.419C38.6627 22.56 39.0639 22.1913 39.5085 21.8551C40.8641 20.8466 42.4257 20.7056 43.868 21.4539C44.8224 21.9419 45.7767 22.3322 46.7744 22.6467C47.6528 22.9287 48.2709 23.4275 48.6722 24.2516C48.7698 24.4576 48.824 24.7504 49.1276 24.7288C49.3662 24.7071 49.4313 24.4793 49.453 24.2733C49.518 23.807 49.8867 23.6769 50.2663 23.6227C52.0665 23.3841 53.7474 23.7853 55.2873 24.6854C56.0139 25.1083 56.5128 25.7806 56.5995 26.6698C56.6212 26.9084 56.6321 27.2446 56.9032 27.2554C57.5972 27.2879 57.5864 27.8084 57.6948 28.253C57.8358 28.8495 57.9768 29.4567 58.1394 30.0423C58.313 30.6713 58.7142 31.0291 59.3866 31.0725C59.5601 31.0833 59.7227 31.0942 59.8963 31.1158C61.0024 31.2026 61.8157 31.6147 61.9133 32.9919C61.9567 33.6208 62.1736 34.1956 62.6616 34.6293C62.9869 34.9221 63.1171 35.3233 63.1171 35.7354C63.1279 36.4402 63.4533 36.9716 63.9846 37.4054C65.915 38.956 66.1427 41.255 66.5765 43.4454Z" fill="#DEF8AB"/>
<path d="M62.6369 20.8909C62.7998 21.0654 62.789 21.2399 62.6912 21.4581C62.5174 21.8617 62.4197 22.3089 62.1699 22.6907C61.8006 23.2688 61.4422 23.8687 61.2684 24.5341C61.1598 24.9486 60.9208 25.0904 60.519 25.0359C60.356 25.014 60.1714 25.0249 60.0085 25.0249C59.0527 25.0468 58.0752 25.0468 57.3801 25.8867C55.7292 23.2797 53.2202 22.8761 50.5158 22.9525C50.2443 22.9634 49.9727 23.0506 49.7229 23.1488C48.9192 23.4324 48.8866 23.4651 48.4087 22.7561C48.0937 22.2762 47.7027 22.0253 47.1705 21.9271C46.117 21.7417 45.1395 21.4254 44.1837 20.9018C43.1085 20.3018 41.8594 20.3455 40.6647 20.5527C40.1976 20.6291 39.8718 20.6727 39.7198 20.1164C39.4591 19.1456 38.6771 18.7857 37.7973 18.6439C36.6352 18.4475 35.5491 18.033 34.4521 17.6294C33.6266 17.324 32.9098 16.8877 32.3233 16.2333C31.9106 15.7751 31.4544 15.3497 30.7158 15.1752C31.4652 13.7899 32.5514 13.0481 33.8764 12.6664C35.1906 12.2846 36.5157 11.9356 37.8842 11.7719C38.3947 11.7065 38.9052 11.6083 39.3613 11.3465C40.795 10.5175 42.4025 10.3103 43.9773 10.0158C45.0743 9.80855 45.2372 9.98305 45.3241 11.0847C45.3459 11.3574 45.3567 11.641 45.4002 11.9028C45.5414 12.8518 45.9867 13.3209 46.9316 13.419C47.4855 13.4736 48.0068 13.6154 48.5499 13.7245C49.3428 13.8881 50.0162 14.1935 50.3963 15.0225C50.6678 15.6115 51.2326 15.906 51.8734 16.0369C52.7206 16.2005 53.5787 16.2223 54.4258 16.0369C55.0666 15.906 55.7183 15.8406 56.37 15.8624C57.8254 15.9278 58.6834 16.5714 59.1396 17.9785C59.2591 18.3494 59.4763 18.5893 59.8456 18.633C61.2358 18.8075 61.8332 19.9746 62.6369 20.8909Z" fill="#DEF8AB"/>
<path d="M61.9573 7.11928C62.6307 7.55623 62.6198 7.90577 61.9356 8.34272C61.1753 8.83428 60.3173 9.08553 59.4484 9.28216C59.2855 9.31493 59.0574 9.38046 58.9814 9.19476C58.7098 8.50658 58.2102 8.81242 57.7649 8.87796C57.4174 8.93258 57.1024 9.08552 56.8309 9.29306C56.1141 9.80647 55.343 9.91572 54.4849 9.77372C53.1599 9.55525 51.8892 9.81741 50.6727 10.3417C49.3151 10.9316 49.0653 11.4341 49.3803 12.9197C49.3911 12.9743 49.3586 13.0399 49.326 13.16C48.5331 13.018 47.7294 12.8651 46.9366 12.7231C46.4044 12.6357 46.1872 12.2752 46.1437 11.7836C46.1111 11.3685 46.1329 10.9534 46.0786 10.5493C45.9699 9.68631 45.5898 9.32583 44.7318 9.31491C44.2213 9.30398 43.7109 9.36952 43.1895 9.42414C42.4401 9.50061 42.3858 9.4897 42.2012 8.7032C42.1034 8.29903 41.8754 8.10239 41.4844 8.11331C41.0391 8.11331 40.5938 8.15703 40.1485 8.1898C39.7792 8.21165 39.4099 8.37549 39.0406 8.17886C38.932 7.85116 39.1601 7.57807 39.171 7.28314C39.2036 6.56218 38.932 6.22355 38.2152 6.27817C37.607 6.32187 36.9988 6.46385 36.3906 6.58401C35.6846 6.71509 34.9895 6.91174 34.2618 6.93359C33.4798 6.95543 33.1323 6.38741 33.4255 5.67738C34.2184 3.7876 35.5217 2.48769 37.5201 1.90874C38.5193 1.62473 39.4751 1.6138 40.42 2.07259C41.0065 2.35661 41.6038 2.60783 42.2121 2.84815C42.6682 3.02293 43.0375 3.31788 43.385 3.65651C44.1236 4.35562 44.7318 4.34468 45.416 3.58003C45.8288 3.12124 46.1546 2.58598 46.5347 2.10534C47.2407 1.23146 48.6635 0.827302 49.7061 1.16593C50.0211 1.26424 50.0537 1.46085 49.9125 1.72302C49.793 1.93057 49.6518 2.1272 49.5215 2.33475C49.3151 2.6843 49.0762 3.03386 48.9024 3.40527C48.4462 4.41023 48.6635 4.96732 49.6952 5.3278C50.7596 5.6992 51.8457 6.03784 52.9427 6.32186C53.9853 6.59494 54.9302 6.91173 55.7231 7.74192C56.8092 8.87797 58.8836 8.30996 58.8728 6.55126C58.8728 5.91769 58.9814 5.89584 59.557 6.10338C60.415 6.35463 61.2296 6.63864 61.9573 7.11928Z" fill="#13751E"/>
<path d="M61.6236 51.7285C62.123 52.1735 62.1121 52.2603 61.6345 52.6836C60.9397 53.3023 60.5488 54.0837 60.2774 54.9411C60.0495 55.6575 59.778 56.3629 59.2352 56.9165C58.5079 57.6545 58.1605 57.6545 57.4005 56.9056C56.7709 56.2761 56.1955 56.2219 55.479 56.7645C55.0773 57.0793 54.719 57.4591 54.3499 57.8064C53.6226 58.4902 52.8735 59.1414 51.9398 59.543C50.496 60.1833 49.508 60.0423 48.2162 58.9678C49.0521 58.4034 49.812 57.7739 50.4525 57.0033C50.9411 56.4172 51.473 55.842 50.7999 55.028C50.648 54.8435 50.7674 54.5613 50.7999 54.3225C50.8759 53.6387 50.8868 52.955 50.7674 52.2712C50.5828 51.2727 49.9857 50.6758 49.0195 50.4912C48.455 50.3827 47.8579 50.361 47.2825 50.3176C45.6107 50.209 44.525 49.1563 44.5902 47.474C44.6336 46.2584 43.6783 45.7917 42.6469 46.2042C42.2669 46.3561 41.9413 46.6274 41.6047 46.8662C40.5408 47.6151 39.7049 47.6042 38.7061 46.812C38.2393 46.4429 37.9244 45.8243 37.1971 45.846C37.1536 45.846 37.0994 45.77 37.056 45.7157C36.6543 45.1948 36.6543 45.1948 36.2634 45.6615C35.6338 46.4104 34.8304 46.9313 33.9185 47.2786C33.1368 47.5825 32.3986 47.9299 31.9209 48.657C31.6713 49.0478 31.3781 48.9826 31.0416 48.8307C30.6508 48.657 30.3468 48.3531 30.1405 48.0167C29.9017 47.6042 29.652 47.6151 29.3046 47.7888C29.0223 47.919 28.7726 48.0818 28.5121 48.2446C27.8281 48.6787 27.459 48.4834 27.1008 47.7779C26.8077 47.1918 26.8619 46.7794 27.307 46.3235C27.6436 45.9871 27.915 45.5855 28.1973 45.1948C28.4361 44.8583 28.6858 44.4893 28.6967 44.0769C28.7292 43.0675 28.6858 42.0581 29.1418 41.103C29.3155 40.734 29.0441 40.3542 28.6424 40.2131C28.295 40.0828 27.915 40.0068 27.5459 39.9526C26.1889 39.7572 25.1141 39.0626 24.1913 38.1075C23.6485 37.554 23.6919 37.3803 24.3324 36.9028C24.4193 36.8377 24.5061 36.7942 24.593 36.7291C25.3855 36.143 25.4072 36.0128 24.7884 35.2965C24.5604 35.036 24.1696 34.6778 24.289 34.4499C24.517 34.0266 24.6364 33.5165 25.049 33.1909C26.0803 32.3878 27.1985 31.8451 28.5447 31.921C29.1309 31.9536 29.7063 32.0187 30.2925 32.0404C31.313 32.0947 32.2901 31.997 32.9414 31.0528C33.1586 30.738 33.4408 30.7489 33.7557 30.8791C34.8847 31.3567 36.1006 31.6931 36.9365 32.6808C37.3491 33.1583 37.9027 33.2886 38.5215 33.256C39.2381 33.2126 39.9546 33.1692 40.6819 33.1584C41.4962 33.1475 42.2235 33.4514 42.864 33.9398C43.5697 34.4716 43.9714 35.1662 43.8737 36.0671C43.8085 36.6423 43.9062 37.0439 44.5142 37.2826C45.0787 37.5106 45.2958 38.0207 45.3175 38.6176C45.3284 39.0626 45.3067 39.5076 45.2958 39.9526C45.2958 40.3107 45.3827 40.6363 45.7301 40.8208C46.0883 41.0162 46.4574 40.9185 46.5226 40.517C46.7288 39.1494 47.7168 38.5959 48.835 38.1726C50.1594 37.6734 51.5164 37.6408 52.8843 37.9664C53.5248 38.1184 53.9917 38.4765 54.2739 39.0843C54.7625 40.1479 55.1316 41.255 55.3379 42.4055C55.479 43.1978 55.3704 43.9792 55.0339 44.7172C54.6105 45.6615 54.6648 46.4755 55.5115 47.2027C56.1738 47.7779 56.1846 48.2012 55.8155 49.0369C55.7504 49.1888 55.6418 49.3408 55.5875 49.4927C55.5441 49.623 55.5658 49.7641 55.6852 49.8617C55.8047 49.9594 55.9349 49.9486 56.0652 49.8943C56.1304 49.8726 56.1846 49.8292 56.2389 49.7966C57.3571 48.9609 58.4319 49.2106 59.4632 49.9594C60.2014 50.5347 60.9179 51.1207 61.6236 51.7285Z" fill="#DEF8AB"/>
<path d="M51.0593 36.6023C51.1798 37.076 51.1031 37.259 50.5882 37.3559C48.5394 37.722 47.7945 38.0773 46.2059 39.38C46.184 38.6048 46.2935 37.8297 45.7676 37.4205C44.9241 36.753 44.6173 35.924 44.4749 34.9442C44.4201 34.5351 44.0805 34.2444 43.8285 33.9107C43.4779 33.4369 43.5217 33.2431 43.9709 32.8878C45.8334 31.3913 48.2327 31.5528 49.8432 33.2862C49.9527 33.4046 50.1061 33.5446 50.139 33.6953C50.2924 34.7074 50.8073 35.6118 51.0593 36.6023Z" fill="#DEF8AB"/>
<path d="M50.3423 53.5212C50.3423 53.6186 50.3423 53.7268 50.3423 53.8242C50.3098 54.9711 50.299 54.9928 49.1927 54.8846C47.8695 54.7547 46.5354 54.6249 45.2122 54.4734C44.0192 54.3327 42.9779 54.6682 42.0235 55.3499C41.5571 55.6853 41.1233 56.0857 40.6677 56.4427C39.9628 56.9837 39.6482 56.9837 38.8998 56.5293C38.1081 56.0532 37.5333 55.4148 37.2946 54.4951C36.8608 52.8612 35.863 51.6601 34.4096 50.7945C33.7914 50.4266 33.2383 49.9614 32.6417 49.5718C32.3272 49.3663 32.3489 49.139 32.555 48.8902C32.8586 48.5115 33.2491 48.2193 33.7155 48.0678C34.5398 47.7973 35.2665 47.3753 35.9823 46.8992C36.6981 46.4231 37.3163 46.4989 37.9996 47.0723C38.3142 47.332 38.6287 47.6134 38.9866 47.8081C39.9844 48.36 40.9606 48.2626 41.8825 47.6134C42.2404 47.3645 42.5658 47.0291 42.9996 46.8884C43.6395 46.672 43.9541 46.8992 44.0192 47.5809C44.2035 49.7991 45.4183 50.9352 47.6742 50.9785C47.7393 50.9785 47.8152 50.9785 47.8803 50.9785C49.8109 51.0326 50.3423 51.5736 50.3423 53.5212Z" fill="#DEF8AB"/>
<path d="M49.6879 55.7712C49.895 55.7929 50.102 55.8146 50.3418 56.0856C49.5572 57.2023 48.5764 58.0263 47.4104 58.6551C47.0507 58.8503 46.5931 58.9587 46.8219 59.5441C46.92 59.7827 46.7238 59.8477 46.5604 59.8802C46.1898 59.9561 45.8193 60.0212 45.4488 60.0645C45.111 60.1079 44.7623 60.0754 44.4136 60.1187C44.1084 60.1513 43.7488 60.2055 43.7706 60.6175C43.7924 60.9644 44.1193 60.9969 44.3918 61.0403C44.8713 61.127 45.3508 61.0837 45.8302 61.062C46.277 61.0403 46.7238 61.062 47.1597 61.062C47.1815 61.1812 47.2142 61.2788 47.1924 61.3005C45.6995 62.2437 44.37 63.5013 42.4956 63.7507C41.9835 63.8158 41.504 64.0434 41.0572 64.2928C39.6187 65.1059 38.1367 65.8323 36.6437 66.5262C36.3277 66.6671 36.0444 66.8515 35.7501 67.0466C35.5104 67.1984 35.3251 67.4152 35.4014 67.7296C35.4777 67.9898 35.7065 68.0874 35.9572 68.1091C38.3764 68.391 40.7411 69.1607 43.2258 68.7813C43.9014 68.6837 44.5988 68.7271 45.2854 68.7162C45.4815 68.7162 45.7104 68.7054 45.8629 68.9656C45.6668 69.4318 45.2854 69.8004 44.8386 70.0281C43.6399 70.6569 42.7027 71.6326 41.6238 72.4241C41.4277 72.565 41.2533 72.7493 41.0354 72.8361C39.7713 73.3131 38.627 74.007 37.4174 74.5708C36.4585 75.0261 35.5104 75.0586 34.5078 74.7551C33.6578 74.484 32.786 74.2563 31.936 73.9745C30.8463 73.6058 29.7239 73.5083 28.5796 73.5733C27.6969 73.6275 27.686 73.595 27.6533 72.6735C27.6206 71.7085 27.7514 70.7545 28.0456 69.8329C28.4489 68.5211 28.8194 67.1984 29.2988 65.9191C29.7238 64.8024 30.2251 63.7182 30.7918 62.6557C31.3476 61.6149 31.3912 60.5741 31.0206 59.4899C30.6174 58.319 30.1162 57.2023 29.5059 56.1181C29.1354 55.4568 28.7758 54.7846 28.6232 54.0474C28.438 53.1583 28.5687 53.0608 29.4623 53.0283C30.2251 53.0066 30.7809 53.2017 31.1078 53.9607C31.413 54.6654 32.0232 55.0015 32.786 54.8822C33.6578 54.7413 34.5623 54.6871 35.3905 54.2859C36.0661 53.9498 36.3059 54.0365 36.5238 54.7846C36.8617 55.9555 37.6245 56.7253 38.627 57.3324C39.4226 57.8095 40.1963 57.7986 40.9373 57.2565C41.3841 56.9313 41.7873 56.5626 42.2123 56.2157C43.1059 55.4893 44.1084 55.1641 45.2854 55.3159C46.7456 55.511 48.2168 55.6303 49.6879 55.7712Z" fill="#13751E"/>
<path d="M40.4155 8.85468C40.6433 8.84381 40.8819 8.70239 41.1422 8.94171C40.383 10.0295 39.3418 10.6822 38.0729 10.9215C36.7931 11.1609 35.5241 11.4546 34.2552 11.7374C32.5524 12.129 31.1425 12.9558 30.1447 14.4352C29.9495 14.718 29.7326 14.9791 29.5157 15.2511C29.1144 15.7515 28.6046 16.0561 27.9539 16.1322C27.3791 16.2083 26.8042 16.3062 26.2403 16.4585C25.0581 16.7958 24.2338 17.4593 24.1579 18.8082C24.1145 19.5697 23.6156 20.1245 23.1059 20.6466C22.5527 21.2014 21.9454 21.7127 21.5224 22.5938C21.4031 22.1587 21.5658 21.8324 21.2946 21.6148C21.0235 21.4081 20.7198 21.4299 20.4161 21.4408C19.722 21.4625 19.1906 21.8432 18.7242 22.311C17.3794 23.6381 16.0887 25.0088 15.0475 26.597C14.6679 27.1735 14.2883 27.7501 13.7894 28.2178C13.2038 28.7726 13.0845 28.7835 12.4446 28.2831C12.0541 27.9785 11.5444 27.9785 11.1214 27.6413C11.2841 27.2388 11.5986 26.9669 11.9131 26.7167C13.3339 25.5636 14.0931 23.9101 15.0584 22.4198C15.4814 21.7671 15.1994 21.2885 14.4185 21.2232C13.6701 21.1688 12.9109 21.2014 12.1626 21.2884C11.8589 21.3211 11.5661 21.4407 11.0889 21.2993C11.8806 20.3421 12.694 19.6241 13.8111 19.3848C15.0258 19.1346 15.7525 18.4057 16.0562 17.2418C16.4249 15.7732 17.3034 14.7724 18.6374 14.0871C19.4943 13.652 20.2535 13.0645 21.1862 12.7708C22.0538 12.4989 22.7588 12.5968 23.3879 13.3365C24.1362 14.2176 24.6676 14.2394 25.5787 13.5105C25.9257 13.2277 26.2403 12.9123 26.5114 12.5642C27.2814 11.5851 27.7587 10.5626 26.7066 9.28981C27.9756 8.82205 29.1361 8.3543 30.3399 7.99532C30.893 7.83215 31.4787 7.75599 31.9776 7.41877C32.1186 7.32087 32.2704 7.27736 32.4548 7.34263C33.5394 7.72336 34.624 7.48404 35.6977 7.28824C36.3376 7.16858 36.9775 7.02717 37.6174 6.91839C38.3549 6.79873 38.4199 6.88575 38.2247 7.57108C38.203 7.63635 38.1705 7.7016 38.1488 7.76687C37.9427 8.51746 38.1705 8.86558 38.9839 8.89821C39.4611 8.93085 39.9383 8.86556 40.4155 8.85468Z" fill="#13751E"/>
<path d="M37.7917 19.2773C38.6263 19.3099 39.1899 20.0928 39.1465 20.9408C39.1249 21.4084 38.713 21.7563 38.0519 21.7998C37.1956 21.8542 36.3611 21.9629 35.5157 22.1477C33.7491 22.5391 32.2859 23.4198 31.007 24.6593C30.5518 25.0942 30.1074 25.2682 29.5438 24.9746C27.7772 24.0613 25.8479 23.7895 23.9187 23.5503C23.6152 23.5177 23.3226 23.409 23.0191 23.3437C22.7157 23.2676 22.5097 23.1263 22.6181 22.7457C22.5856 22.3652 22.7373 22.0499 23.0408 21.7781C23.366 21.4845 23.6803 21.1583 23.9837 20.8321C24.4715 20.2885 24.8508 19.6687 24.8942 18.9185C24.9592 17.94 25.5661 17.4616 26.4115 17.2115C26.7692 17.1028 27.1377 17.0158 27.517 16.9832C28.4274 16.8962 29.2728 16.6787 29.9015 15.9611C30.1182 15.7111 30.3458 15.7437 30.6385 15.8306C31.1262 15.9829 31.4622 16.3091 31.7873 16.6679C32.4485 17.3963 33.2397 17.9073 34.1717 18.2118C35.3748 18.5923 36.4911 19.2121 37.7917 19.2773Z" fill="#DEF8AB"/>
<path d="M34.2465 51.6814C34.7989 52.0285 35.2647 52.4732 35.6221 53.0589C34.6798 53.9158 33.5425 53.9917 32.4377 54.1218C32.0153 54.176 31.7336 53.8615 31.582 53.5036C31.1704 52.5274 30.3905 52.2888 29.4157 52.3213C28.56 52.3539 27.7043 52.3322 26.8703 52.5599C25.6897 52.8745 25.2131 53.4385 25.1265 54.6641C25.0723 55.4125 25.0615 56.1718 24.964 56.9202C24.8232 58.0048 24.2383 58.6556 23.1876 58.916C23.0577 58.9485 22.9277 58.981 22.7869 59.0244C21.5737 59.3607 21.0647 59.1003 20.5881 57.9181C20.5014 57.7011 20.4364 57.4625 20.4148 57.2239C20.2415 55.5536 19.5916 54.0459 18.7467 52.625C18.3026 51.8983 18.086 51.1608 18.1943 50.293C18.346 49.0999 18.0319 47.9827 17.447 46.9415C17.1112 46.3449 16.7429 45.7701 16.3746 45.1844C15.5406 43.8503 15.0207 42.4402 15.0207 40.8349C15.0207 39.1971 14.5658 37.6569 13.7426 36.2361C13.3635 35.5853 13.0061 34.9236 12.6486 34.262C12.1287 33.275 11.8471 32.1795 12.1071 31.1057C12.2695 30.4115 12.4753 29.5981 13.3527 29.251C14.1434 28.9364 14.6416 28.2422 15.0965 27.5481C16.2013 25.8452 17.5336 24.3267 18.985 22.9275C19.3641 22.5587 19.7541 22.1574 20.4364 22.2116C20.4148 22.6672 20.1657 22.8841 20.014 23.1444C19.8082 23.4698 19.5699 23.7843 19.9057 24.164C20.0682 24.3375 19.9707 24.4785 19.8191 24.5761C18.2593 25.6282 17.9669 27.2769 17.7178 28.9581C17.6636 29.2943 17.6203 29.6414 17.6094 29.9777C17.5986 30.7803 17.8261 31.084 18.6384 31.2576C19.3425 31.4094 20.0573 31.4962 20.7506 31.648C21.4871 31.8107 22.2128 32.0276 22.8627 32.4073C23.2093 32.6025 23.5126 32.8628 23.4151 33.2967C23.1768 34.3379 23.5992 35.1623 24.2058 35.9107C24.1516 36.2794 23.8375 36.3445 23.6425 36.5072C22.9385 37.0821 22.7977 37.5593 23.3176 38.2643C23.7184 38.8175 23.6859 39.1971 23.2851 39.6961C22.8302 40.2601 22.4619 40.8783 22.202 41.5508C21.7579 42.6788 21.9745 43.3622 22.971 44.0129C23.1443 44.1214 23.3176 44.2407 23.5017 44.3166C24.3141 44.642 24.6174 45.2386 24.5957 46.0955C24.5741 46.974 24.769 47.7333 25.8305 47.9285C26.2204 47.9936 26.2854 48.3949 26.3612 48.7311C26.4479 49.1758 26.6645 49.3819 27.1519 49.2301C27.466 49.1325 27.856 49.2192 28.1593 49.0891C29.0149 48.7095 29.7731 48.5901 30.3689 49.5229C30.4014 49.5772 30.4772 49.6097 30.5422 49.6205C31.9936 49.8809 33.0334 50.933 34.2465 51.6814Z" fill="#13751E"/>
<path d="M33.8943 27.2858C34.3305 27.5696 34.3742 28.0826 33.927 28.2791C33.0764 28.6721 32.9019 29.3925 32.6838 30.1675C32.4111 31.1826 31.9749 31.5101 30.917 31.5428C30.5353 31.5537 30.1536 31.5428 29.7828 31.4773C28.016 31.1608 26.4347 31.5647 25.0169 32.6562C24.8533 32.7763 24.7115 32.9291 24.3516 32.94C24.1226 32.1104 23.4683 31.7284 22.7594 31.4227C21.6361 30.9534 20.4473 30.7569 19.2586 30.5495C18.4624 30.4185 18.397 30.353 18.4733 29.5453C18.5606 28.6502 18.7133 27.7661 18.9859 26.9147C19.215 26.2052 19.6403 25.6267 20.251 25.1901C20.7527 24.8299 21.2435 24.4369 21.6033 23.9239C21.8324 23.5855 22.0723 23.5091 22.4758 23.6619C23.5773 24.0767 24.7443 24.2077 25.9112 24.3277C26.631 24.4041 27.3289 24.5788 28.0051 24.8517C29.6628 25.5066 31.266 26.2816 32.9564 26.8492C33.2836 26.9693 33.6108 27.1003 33.8943 27.2858Z" fill="#DEF8AB"/>
<path d="M30.3278 59.4651C30.6631 60.4531 30.6848 61.4195 30.0898 62.3206C29.4948 63.2218 29.2677 64.275 28.8999 65.263C28.3157 66.8699 27.8073 68.5093 27.2989 70.1379C26.996 71.126 26.996 72.1683 27.0068 73.1997C27.0068 73.6992 26.7905 73.8512 26.3902 73.6232C25.514 73.1237 24.865 72.3637 24.27 71.5711C23.8914 71.0608 24.0428 70.4528 24.0753 69.8774C24.1077 69.3019 24.1726 68.7156 24.1618 68.1293C24.151 66.5876 23.6534 66.0664 22.0957 65.9144C21.7928 65.8819 21.4791 65.871 21.1762 65.8059C20.2567 65.5996 19.943 65.263 19.9863 64.3075C20.0079 63.5909 20.062 62.8743 20.2784 62.1795C20.3108 62.0817 20.3757 61.984 20.3757 61.8863C20.3433 60.464 21.4899 60.1491 22.4419 59.6823C22.7772 59.5194 23.1666 59.476 23.5236 59.3782C24.7676 59.0634 25.4275 58.2274 25.5897 56.9788C25.6763 56.3382 25.7087 55.6867 25.752 55.0353C25.871 53.5044 26.1522 53.2221 27.8722 53.0267C27.8289 54.2753 28.3482 55.285 28.8782 56.2731C29.4624 57.3154 29.96 58.3685 30.3278 59.4651Z" fill="#13751E"/>
<path d="M27.958 40.8368C28.661 40.9336 28.694 41.0627 28.3754 41.7295C28.1228 42.2672 27.9031 42.762 28.1887 43.375C28.4084 43.8375 28.2107 44.3214 27.9361 44.7194C27.4198 45.44 26.8816 46.1498 26.3214 46.8381C26.0468 47.1715 25.6624 47.0962 25.5416 46.6768C25.4427 46.3219 25.4098 45.9455 25.3988 45.569C25.3549 44.8592 25.0034 44.3644 24.3883 44.0203C23.9929 43.8052 23.5974 43.5901 23.224 43.3535C22.8835 43.1384 22.6968 42.8157 22.7517 42.2887C22.9604 41.3316 23.5755 40.4819 24.2565 39.6645C24.4542 39.4279 24.7068 39.557 24.9045 39.6968C25.8052 40.3421 26.8377 40.6755 27.958 40.8368Z" fill="#DEF8AB"/>
<path d="M20.7205 59.2775C21.0038 59.5818 20.9493 59.8101 20.6006 60.0057C20.3609 60.1362 20.1321 60.2992 19.9142 60.4623C19.6309 60.6797 19.3258 60.9949 19.3912 61.3101C19.5982 62.3101 18.9117 62.3427 18.2689 62.4514C16.5691 62.7449 14.8584 62.8753 13.1368 62.8318C11.8729 62.7992 10.4237 61.6471 9.99876 60.484C9.8898 60.1688 9.96608 59.9623 10.184 59.7558C10.5109 59.4514 10.8596 59.1579 11.132 58.8101C11.7966 57.9622 11.7312 57.2666 10.9249 56.5709C9.59561 55.4188 8.2663 54.2883 6.63189 53.5601C6.10888 53.3209 5.7493 52.9296 5.4769 52.4405C4.75776 51.147 4.0931 49.8318 3.55919 48.4513C3.23231 47.6035 2.82916 46.8317 2.06644 46.2774C1.903 46.1578 1.76134 45.9947 1.65238 45.8208C1.30371 45.31 1.3473 45.0491 1.8921 44.7339C2.4587 44.4078 3.04707 44.136 3.62457 43.8208C5.1936 42.9621 5.80379 41.636 5.60766 39.8751C5.44422 38.4403 5.16092 37.0273 4.77956 35.636C4.44178 34.4294 4.60521 33.3316 5.466 32.3751C5.97812 31.8098 6.56651 31.4403 7.34013 31.4294C7.92852 31.4185 8.50601 31.4294 9.0944 31.4294C9.0944 31.3968 9.0944 31.3751 9.0944 31.3425C9.68278 31.3098 10.2603 31.2881 10.8487 31.2555C11.2627 31.2338 11.4915 31.3751 11.5133 31.8207C11.5787 33.3751 12.2216 34.7338 13.0279 36.0381C14.0412 37.6795 14.5969 39.4512 14.5533 41.4078C14.5315 42.4947 14.8802 43.5056 15.3378 44.473C15.6865 45.223 16.1441 45.9078 16.5909 46.6035C17.4299 47.8861 17.8766 49.2556 17.6587 50.7991C17.5715 51.4405 17.7241 52.0165 18.0401 52.5709C18.3125 53.0492 18.574 53.5383 18.8246 54.0166C19.3258 54.9622 19.6963 55.9622 19.827 57.0275C19.9251 57.8536 20.1321 58.647 20.7205 59.2775Z" fill="#13751E"/>
</svg>
