<svg width="147" height="92" viewBox="0 0 147 92" fill="none" xmlns="http://www.w3.org/2000/svg">
<g clip-path="url(#clip0_214_169805)">
<path d="M95.2445 32.7568C95.2445 32.7568 99.2333 28.3149 94.587 19.6514C94.587 19.6514 93.4957 21.6593 92.0199 22.47C92.0199 22.47 94.102 17.4412 86.8859 11.2901C80.5366 18.3336 83.2595 23.0464 83.2595 23.0464C81.6902 22.436 80.3453 20.5889 80.3453 20.5889C76.8734 29.7858 81.4096 33.6672 81.4096 33.6672C78.7636 33.7393 78.582 34.067 78.582 34.067C79.0435 41.08 88.8086 40.5188 88.8086 40.5188C88.8086 40.5188 98.5619 39.7969 98.1011 32.7831C98.1011 32.7831 97.878 32.4817 95.2452 32.7575L95.2445 32.7568Z" fill="#628428"/>
<path d="M89.8903 19.4859C89.8903 19.4859 88.0972 11.8367 98.9389 4.77863C98.9389 4.77863 98.9285 7.78631 100.119 9.65494C100.119 9.65494 100.898 2.53447 113.116 0.000701904C115.988 12.1451 109.865 15.8615 109.865 15.8615C112.062 16.1498 114.782 14.8687 114.782 14.8687C112.971 27.6782 105.281 29.2877 105.281 29.2877C108.289 31.0441 108.292 31.5374 108.292 31.5374C103.323 39.3389 92.4088 32.5143 92.4088 32.5143C92.4088 32.5143 81.61 25.5109 86.5784 17.7094C86.5784 17.7094 87.0267 17.5029 89.8903 19.4859Z" fill="#7AA440"/>
<path d="M100.04 56.2459C100.04 56.2459 103.133 63.4683 116.047 62.7214C116.047 62.7214 114.255 60.3061 114.105 58.0952C114.105 58.0952 118.955 63.3664 130.296 58.1603C125.406 46.679 118.272 47.3178 118.272 47.3178C119.869 45.7825 122.82 45.2005 122.82 45.2005C113.765 35.9612 106.618 39.2253 106.618 39.2253C107.999 36.0271 107.708 35.6287 107.708 35.6287C99.0808 32.294 94.341 44.2616 94.341 44.2616C94.341 44.2616 89.7994 56.3048 98.4275 59.6395C98.4275 59.6395 98.9104 59.5398 100.04 56.2453L100.04 56.2459Z" fill="#628428"/>
<path d="M14.6651 90.1757C10.8537 89.8854 9.56497 86.7669 11.8486 83.225C17.6076 74.2927 23.6729 68.3813 34.0255 61.565C46.8648 53.1115 61.103 47.1411 75.0536 42.4554C84.3254 39.341 93.6366 36.713 102.847 32.7055C107.975 30.4745 113.14 27.7364 117.799 24.516C119.38 23.4233 120.723 24.4536 119.393 25.7389C112.915 31.9981 102.209 40.1676 85.7984 46.9028C85.7984 46.9028 52.7679 55.7727 24.3352 85.9119C21.7467 88.6556 17.7885 90.4134 14.6644 90.1757H14.6651Z" fill="#7A9F40"/>
<path d="M1.54119 84.6114C-0.596266 87.7798 1.04926 90.7258 5.2438 91.1332C15.8216 92.1601 28.4025 90.1404 40.1713 86.2521C54.7677 81.4298 68.2853 73.9699 80.6167 65.9376C88.8125 60.5991 96.6514 54.9288 105.51 50.1932C110.441 47.5569 115.794 45.2053 121.21 43.5501C123.047 42.9889 123.073 41.2962 121.239 41.5415C112.311 42.7374 99.2614 46.0631 83.7969 54.7515C83.7969 54.7515 52.1632 76.0803 10.8857 79.6734C7.12768 80.0005 3.29273 82.0139 1.54119 84.6107V84.6114Z" fill="#7A9F40"/>
<path d="M121.211 43.5508C123.049 42.9889 123.075 41.2969 121.241 41.5415C120.525 41.6385 119.773 41.7535 119.005 41.8782C113.923 43.5106 108.913 45.7146 104.279 48.1915C95.4207 52.9279 87.5824 58.5982 79.3866 63.9366C67.0545 71.9689 53.5376 79.4289 38.9412 84.2504C27.1724 88.138 14.5915 90.1584 4.01373 89.1316C2.58021 88.9923 1.45155 88.551 0.663086 87.9122C0.970713 89.6083 2.59892 90.8762 5.24563 91.1326C15.8241 92.1594 28.405 90.1397 40.1738 86.2521C54.7695 81.4291 68.2871 73.9699 80.6192 65.9383C88.815 60.5998 96.6532 54.9295 105.512 50.1932C110.443 47.5562 115.796 45.2053 121.212 43.5501L121.211 43.5508Z" fill="#69932C"/>
<path d="M114.756 34.7488C114.756 34.7488 117.458 27.3712 130.395 27.4253C130.395 27.4253 128.734 29.9334 128.703 32.1485C128.703 32.1485 133.264 26.625 144.867 31.2159C140.599 42.9425 133.44 42.6868 133.44 42.6868C135.118 44.1342 138.096 44.5575 138.096 44.5575C129.549 54.2685 122.238 51.3918 122.238 51.3918C123.787 54.511 123.518 54.9254 123.518 54.9254C115.081 58.7174 109.707 47.0206 109.707 47.0206C109.707 47.0206 104.528 35.2379 112.964 31.4459C112.964 31.4459 113.452 31.5194 114.756 34.7495V34.7488Z" fill="#69932C"/>
<path d="M6.51744 91.4928C2.21412 90.403 0.194451 86.0969 2.07902 81.9072C6.832 71.3405 15.6936 61.8698 25.9631 54.9184C38.6992 46.2979 53.459 41.175 68.1392 37.6733C77.8953 35.346 87.7858 33.6596 97.3077 30.1565C102.608 28.2068 107.856 25.6024 112.449 22.2746C114.007 21.1459 115.697 22.7395 114.454 24.1668C108.4 31.1154 97.9888 39.7636 80.9501 45.4776C80.9501 45.4776 42.5757 53.7683 16.5029 87.7417C14.1291 90.8346 10.0441 92.3866 6.51675 91.4935L6.51744 91.4928Z" fill="#A4B740"/>
<path d="M1.42074 82.7054C-0.445114 86.471 0.655832 91.1513 4.89472 91.6647C15.5841 92.9589 27.0377 90.4002 38.4919 85.8398C52.6975 80.1841 66.398 70.2187 78.0546 60.7183C85.8014 54.4043 93.1616 47.692 101.625 42.1006C106.336 38.9883 111.495 36.2183 116.778 34.2804C118.571 33.6229 118.449 31.6039 116.633 31.8845C107.791 33.2522 95.0039 37.1329 80.2648 47.3954C80.2648 47.3954 50.427 72.6299 9.37679 76.6443C5.63953 77.0094 2.94918 79.6187 1.42074 82.7047V82.7054Z" fill="#A4B740"/>
<path d="M78.0551 60.7183C85.8019 54.4043 93.1628 47.692 101.626 42.1013C106.337 38.9883 111.497 36.219 116.78 34.2804C118.476 33.6582 118.438 31.8401 116.892 31.8824C116.689 32.2171 116.348 32.5309 115.823 32.7242C110.539 34.6628 105.38 37.4329 100.668 40.5452C92.2059 46.1365 84.8457 52.8489 77.0975 59.1622C65.4416 68.6633 51.7411 78.6272 37.5355 84.2844C26.0813 88.8441 14.6277 91.4042 3.93763 90.1092C2.66486 89.9547 1.681 89.4198 0.96875 88.6515C1.5847 90.2319 2.88103 91.4208 4.89516 91.6654C15.5845 92.9589 27.0381 90.4002 38.4931 85.8405C52.6987 80.1834 66.3992 70.2194 78.0551 60.7183Z" fill="#C5D06A"/>
<g style="mix-blend-mode:multiply">
<path d="M86.1411 43.5688C86.1411 43.5688 80.6876 45.761 77.1915 46.4795C77.1915 46.4795 52.5944 53.0297 31.8379 72.449L35.7477 71.0543C35.7477 71.0543 47.8657 61.5788 66.4335 52.1664C66.4335 52.1664 78.1815 47.931 86.1418 43.5681L86.1411 43.5688Z" fill="#D4D5D5"/>
</g>
<path d="M5.82948 84.3932C8.74224 84.1819 11.6453 83.8451 14.5276 83.358C19.5722 82.5696 24.5594 81.3993 29.444 79.8855C39.2154 76.8805 48.6527 72.7033 57.4645 67.4799C66.3316 62.3729 74.2606 55.7388 82.6241 49.6555C86.8131 46.6215 91.0956 43.6748 95.6082 41.1078C100.142 38.592 104.883 36.4012 109.84 34.9732C105.014 36.8038 100.409 39.138 96.0724 41.8935C91.7046 44.5963 87.5565 47.6393 83.4943 50.7973C75.363 57.0878 67.3855 63.7399 58.4067 69.0956C49.392 74.2706 39.8133 78.5233 29.8175 81.2823C24.8192 82.6458 19.7392 83.6698 14.6253 84.2788C11.6529 84.5955 8.67226 84.7985 5.69922 84.8414L5.82948 84.3932Z" fill="#7AA440"/>
<path d="M4.684 86.584C5.03874 85.6819 5.72744 84.1507 6.1487 83.2721C7.40207 80.7196 8.92219 78.2843 10.6349 75.9812C14.1318 71.4222 18.381 67.4369 22.9851 63.9685C27.5925 60.4834 32.6095 57.6032 37.7048 54.9496C42.827 52.3369 48.0893 49.9687 53.524 48.0973C64.388 44.2111 75.6967 42.411 86.5565 39.2426C91.9095 37.5534 97.0214 34.9414 102.014 32.2323C106.966 29.4352 111.834 26.3957 116.098 22.5961C112.067 26.6534 107.257 29.8745 102.399 32.8967C99.9522 34.394 97.4427 35.7894 94.8666 37.0643C92.2913 38.337 89.664 39.5246 86.912 40.4523C81.4668 42.2711 75.9164 43.6616 70.3999 45.0217C64.8813 46.3915 59.4313 47.8984 54.1081 49.8398C43.4797 53.6796 33.1257 58.6508 23.8788 65.1748C19.2575 68.4305 14.9764 72.1968 11.404 76.5563C9.62821 78.7381 7.99308 81.0397 6.62469 83.498C6.1681 84.3433 5.44199 85.8121 5.04013 86.6837L4.68262 86.5853L4.684 86.584Z" fill="#7AA440"/>
<path d="M36.8302 61.6814C35.3995 62.4664 33.9639 63.2264 32.5699 64.0662C31.1557 64.8609 29.7589 65.6875 28.3822 66.5431C25.6337 68.258 22.9198 70.0171 20.2966 71.901C17.6596 73.7675 15.1605 75.8059 12.7147 77.9073C11.5286 78.9972 10.3181 80.0704 9.22827 81.258C8.03172 82.3603 7.06033 83.6442 5.93652 84.8338C7.64372 82.0825 9.7299 79.539 12.0426 77.2173C14.372 74.9135 16.9023 72.8079 19.5629 70.8894C22.2442 69.0028 25.017 67.2443 27.909 65.7117C30.7955 64.1743 33.7526 62.7622 36.8309 61.68L36.8302 61.6814Z" fill="#7AA440"/>
<path d="M42.8762 71.6176C40.2683 73.5881 37.456 75.2717 34.5793 76.8293C31.7033 78.393 28.7094 79.7302 25.6574 80.9213C22.5929 82.0769 19.446 83.0185 16.2464 83.683C13.0419 84.3246 9.78134 84.6495 6.55957 84.5456C8.1663 84.2698 9.76679 84.1728 11.343 83.7862C12.9318 83.5361 14.4921 83.1225 16.051 82.7372C19.1494 81.8628 22.2222 80.9095 25.232 79.7448C28.2487 78.6016 31.212 77.3129 34.158 75.9694C35.6317 75.2974 37.0902 74.5899 38.5355 73.8493C40.0037 73.1516 41.4316 72.3763 42.8762 71.6169V71.6176Z" fill="#7AA440"/>
<path d="M5.07891 86.0248C5.72395 86.1481 6.38286 86.2216 7.02998 86.3304C7.79559 86.3976 8.55565 86.4856 9.32056 86.5348C12.3809 86.7308 15.4655 86.6532 18.5397 86.365C21.6208 86.1488 24.6791 85.5987 27.7491 85.0985L32.3323 84.1541C33.8573 83.8111 35.376 83.4252 36.9204 83.1162C35.4571 83.6975 33.964 84.2026 32.4799 84.7507L27.9286 86.047C24.8613 86.7807 21.7504 87.3731 18.6048 87.6232C15.4662 87.8844 12.2943 87.9315 9.18476 87.4978C7.72076 87.2941 6.24706 87.026 4.82324 86.6269L5.07891 86.0248Z" fill="#7AA440"/>
<path d="M27.0216 72.5024C25.2327 73.4017 23.4943 74.3516 21.7532 75.287C20.0231 76.2403 18.2938 77.1882 16.6073 78.2081C13.1964 80.1931 9.92615 82.3693 6.55957 84.5456C7.93281 83.0975 9.3982 81.7181 10.998 80.5097C12.5708 79.264 14.2537 78.1637 15.9741 77.1314C17.7041 76.1149 19.4924 75.1948 21.3361 74.4084C23.1715 73.6096 25.0726 72.9451 27.021 72.5017L27.0216 72.5024Z" fill="#7AA440"/>
<path d="M3.23286 83.7807C7.98585 73.2132 16.8475 63.7433 27.1176 56.7919C39.8537 48.1714 54.6129 43.0484 69.2931 39.5468C79.0492 37.2195 88.9397 35.5324 98.4609 32.0293C103.761 30.0789 109.01 27.4745 113.602 24.1474C113.981 23.873 114.367 23.7614 114.719 23.7677C115.377 22.4672 113.862 21.2492 112.448 22.2732C107.856 25.601 102.608 28.2054 97.3073 30.1558C87.7854 33.6582 77.8949 35.3453 68.1388 37.6726C53.4586 41.1743 38.6994 46.2972 25.9633 54.9177C16.2779 61.4735 7.84589 70.27 2.93009 80.1134C2.93009 80.1134 -0.872992 84.7514 0.975544 88.8281L3.23217 83.7814L3.23286 83.7807Z" fill="#C5D06A"/>
<path d="M121.517 28.177C121.517 28.177 129.374 28.2539 133.89 16.1304C133.89 16.1304 130.958 16.7983 128.873 16.0458C128.873 16.0458 135.651 13.7282 135.451 1.2513C122.973 1.1058 120.685 7.8937 120.685 7.8937C119.923 5.81305 120.579 2.87743 120.579 2.87743C108.476 7.4468 108.587 15.3024 108.587 15.3024C106.215 12.7513 105.733 12.8573 105.733 12.8573C99.2068 19.4124 108.253 28.5692 108.253 28.5692C108.253 28.5692 117.449 37.5749 123.975 31.0198C123.975 31.0198 124.078 30.5376 121.517 28.177H121.517Z" fill="#A4B740"/>
<path d="M116.216 22.9869C116.216 22.9869 119.686 15.9384 132.544 17.3678C132.544 17.3678 130.627 19.6847 130.36 21.8845C130.36 21.8845 135.482 16.8773 146.531 22.6765C141.041 33.8827 133.95 32.867 133.95 32.867C135.464 34.4848 138.38 35.222 138.38 35.222C128.848 43.9693 121.885 40.3311 121.885 40.3311C123.094 43.5979 122.783 43.9804 122.783 43.9804C113.991 46.8543 109.891 34.6525 109.891 34.6525C109.891 34.6525 105.993 22.3862 114.786 19.5122C114.786 19.5122 115.263 19.6376 116.216 22.9876L116.216 22.9869Z" fill="#7AA440"/>
</g>
<defs>
<clipPath id="clip0_214_169805">
<rect width="146.063" height="92" fill="white" transform="translate(0.46875)"/>
</clipPath>
</defs>
</svg>
