<svg width="157" height="92" viewBox="0 0 157 92" fill="none" xmlns="http://www.w3.org/2000/svg">
<g clip-path="url(#clip0_223_171122)">
<path d="M7.28401 63.5204C7.28401 63.5204 14.7751 66.3741 26.1902 62.0935C37.6052 57.8128 83.6217 42.8306 83.6217 42.8306C83.6217 42.8306 38.3182 79.2161 38.3182 83.4967C38.3182 87.7774 39.7451 89.9177 45.4526 90.9878C51.1602 92.058 58.2946 93.8416 65.0723 86.7072C71.8499 79.5728 71.4932 78.1459 76.844 76.0056C82.1948 73.8653 86.4755 73.5085 92.8964 68.1577C99.3174 62.8069 102.642 63.2058 102.642 63.2058C102.642 63.2058 112.873 59.2397 126.071 52.8188C139.27 46.3978 158.533 35.6962 155.679 26.4215C152.825 17.1467 140.697 10.369 108.592 13.2228C76.4873 16.0766 29.0439 28.9185 29.0439 28.9185C29.0439 28.9185 -3.06088 49.965 7.28401 63.5204Z" fill="#D0D2D3"/>
<path d="M66.8566 43.544C66.8566 43.544 25.8338 59.5964 12.6352 60.3099C-0.563499 61.0233 -3.06054 44.2575 5.50075 34.9827C14.062 25.708 101.815 1.80776 115.37 0.380881C128.926 -1.046 138.914 8.94217 138.914 8.94217C138.914 8.94217 142.481 13.2228 132.493 19.2871C122.505 25.3513 66.8566 43.544 66.8566 43.544Z" fill="#7CA022"/>
<path d="M7.28418 53.8889C7.28418 53.8889 25.1202 54.2457 47.2369 46.7545C69.3535 39.2634 139.984 12.1527 139.984 12.1527C139.984 12.1527 137.13 6.44514 130.352 7.5153C123.575 8.58546 74.7039 23.211 51.8742 32.4857C29.0441 41.7604 27.2605 43.9008 27.2605 43.9008C27.2605 43.9008 73.2774 26.7782 94.3235 20.7139C115.37 14.6497 130.352 12.1527 130.352 12.1527L55.0847 42.4739C55.0847 42.4739 14.4186 53.8889 7.28418 53.8889Z" fill="#5B770E"/>
<mask id="mask0_223_171122" style="mask-type:luminance" maskUnits="userSpaceOnUse" x="0" y="0" width="140" height="61">
<path d="M66.8566 43.544C66.8566 43.544 25.8338 59.5964 12.6352 60.3099C-0.563499 61.0233 -3.06054 44.2575 5.50075 34.9827C14.062 25.708 101.815 1.80776 115.37 0.380881C128.926 -1.046 138.914 8.94217 138.914 8.94217C138.914 8.94217 142.481 13.2228 132.493 19.2871C122.505 25.3513 66.8566 43.544 66.8566 43.544Z" fill="white"/>
</mask>
<g mask="url(#mask0_223_171122)">
<path d="M129.639 0.0241547C129.639 0.0241547 106.809 1.80776 96.1077 5.73168C85.4061 9.6556 12.9923 31.0588 9.42512 34.626C5.85791 38.1932 0.150391 52.8188 0.150391 52.8188C0.150391 52.8188 9.42512 37.1231 12.6356 34.9827C15.8461 32.8424 61.863 20.0005 65.0735 18.2169C68.284 16.4333 101.459 6.80184 101.459 6.80184L118.225 3.59136C118.225 3.59136 65.7869 18.9303 55.7992 24.2811C45.811 29.6319 24.4078 35.6962 24.4078 35.6962L16.56 40.3335L9.42556 43.1873L3.36131 52.8188L11.9226 43.9007L20.8406 40.6903C20.8406 40.6903 26.5481 37.1231 27.6183 37.1231C28.6885 37.1231 70.7814 21.7841 70.7814 21.7841L116.442 6.44512L125.716 4.3048C125.716 4.3048 105.383 12.5094 100.389 14.6497C95.3951 16.79 26.1919 39.6201 17.6306 45.6843C9.06928 51.7486 3.71847 56.0292 3.71847 56.0292C3.71847 56.0292 24.4082 42.4739 32.2561 40.3335C40.1039 38.1932 100.746 16.0766 112.518 12.1526C124.289 8.22872 139.272 3.94808 139.272 3.94808L129.639 0.0241547Z" fill="#668C13"/>
</g>
<path d="M99.6745 21.0707C99.6745 21.0707 59.7218 34.626 52.5874 37.4798C45.453 40.3336 25.4766 48.1814 18.699 49.2516C11.9213 50.3217 43.3127 43.1873 47.2366 42.1172C51.1605 41.047 74.704 31.4156 74.704 31.4156L99.6745 21.0707Z" fill="#668C13"/>
<path d="M7.64062 56.386C7.64062 56.386 39.032 51.3919 44.0261 49.965C49.0202 48.5381 62.5755 44.6142 62.5755 44.6142C62.5755 44.6142 42.9559 52.462 36.1782 53.8889C29.4006 55.3158 7.64062 56.386 7.64062 56.386Z" fill="#668C13"/>
<g style="mix-blend-mode:multiply">
<path d="M21.4307 49.5033C21.4307 49.5033 46.1621 48.1665 59.5303 40.4799C72.8985 32.7932 106.653 24.438 106.653 24.438L139.406 10.7354C139.406 10.7354 143.751 7.39317 133.724 9.06431C123.698 10.7354 84.5961 24.438 70.2249 31.456C55.8542 38.4744 21.4307 45.8267 21.4307 49.5033Z" fill="#7D8223"/>
</g>
<path d="M90.3809 28.1787C90.3809 28.1787 131.075 9.92359 138.914 8.94217C146.754 7.96075 154.127 12.4799 155.554 21.2807C156.982 30.0814 143.661 38.8825 133.196 44.3532C122.73 49.824 104.177 58.6247 104.177 58.6247C104.177 58.6247 110.836 46.0182 105.604 36.5036C100.371 26.9891 90.3809 28.1787 90.3809 28.1787Z" fill="#688732"/>
<path d="M91.332 27.941C91.332 27.941 87.5262 26.2761 83.7205 35.0768C79.9147 43.8775 89.1912 61.0036 98.23 60.052C107.269 59.1005 106.555 53.8678 106.555 53.8678C106.555 53.8678 110.123 45.0671 105.603 36.5041C101.084 27.941 91.332 27.941 91.332 27.941Z" fill="#DDE4B5"/>
<path d="M67.5336 43.5093C67.5336 43.5093 70.9233 35.8376 77.8815 33.6964C84.8398 31.5557 91.2625 31.734 96.2579 36.016C101.253 40.298 102.502 44.5799 101.432 51.5377C100.361 58.496 97.6848 60.9935 92.6894 64.0265C87.694 67.0595 85.196 67.2378 85.196 67.2378C85.196 67.2378 75.7403 68.4868 71.28 59.5661C66.8197 50.6455 67.5331 43.5089 67.5331 43.5089L67.5336 43.5093Z" fill="#7D973F"/>
<path d="M70.7447 39.9408C71.0052 39.4404 78.0596 33.3397 84.8391 33.3397C91.6185 33.3397 94.4732 35.1238 96.9711 41.1898C99.469 47.2558 97.6845 54.3924 94.6515 58.6743C91.6185 62.9563 87.3366 64.0269 87.3366 64.0269C87.3366 64.0269 59.504 61.529 70.7442 39.9412L70.7447 39.9408Z" fill="#BFD268"/>
<mask id="mask1_223_171122" style="mask-type:luminance" maskUnits="userSpaceOnUse" x="90" y="8" width="67" height="51">
<path d="M90.9648 28.1787C90.9648 28.1787 131.659 9.92359 139.498 8.94217C147.338 7.96075 154.711 12.4799 156.138 21.2807C157.566 30.0814 144.245 38.8825 133.78 44.3532C123.314 49.824 104.761 58.6247 104.761 58.6247C104.761 58.6247 111.42 46.0182 106.188 36.5036C100.955 26.9891 90.9648 28.1787 90.9648 28.1787Z" fill="white"/>
</mask>
<g mask="url(#mask1_223_171122)">
<path d="M158.405 18.5736C158.405 18.5736 155.551 23.9244 146.276 30.7021C137.001 37.4798 105.253 53.5322 105.253 53.5322L129.154 38.55C129.154 38.55 137.358 33.5559 138.428 32.8424C139.498 32.129 150.557 24.2811 150.913 23.211C151.27 22.1408 143.422 26.7782 143.422 26.7782L131.651 32.8424C131.651 32.8424 121.306 37.1231 120.236 37.8365C119.165 38.55 109.534 43.9008 109.534 43.9008L104.897 47.1112L107.75 42.4739C107.75 42.4739 114.885 36.7664 115.955 36.7664C117.025 36.7664 125.23 31.7723 126.3 31.0588C127.37 30.3454 132.364 27.8484 133.791 27.1349C135.218 26.4215 137.001 26.4215 139.855 24.6379C142.709 22.8543 145.919 22.1408 146.99 21.0707C148.06 20.0005 151.27 17.1467 151.27 17.1467C151.27 17.1467 148.773 16.0766 141.995 20.0005C135.218 23.9244 128.44 26.0648 128.44 26.0648L109.177 33.5559L102.043 38.9067C102.043 38.9067 105.253 34.626 112.031 30.7021C118.809 26.7782 125.943 24.9946 128.44 23.9244C130.937 22.8543 138.428 19.2871 139.498 18.9303C140.569 18.5736 148.416 13.2228 148.416 13.2228C148.416 13.2228 139.855 14.6497 132.721 17.5035C125.586 20.3572 116.668 21.7841 116.668 21.7841L109.534 26.0648L102.756 30.3454L98.4756 33.1992L103.826 27.4916C103.826 27.4916 113.101 20.7139 116.668 18.9303C120.236 17.1467 128.083 15.7199 128.083 15.7199L140.569 12.1527C140.569 12.1527 148.773 8.22874 151.27 8.58546C153.767 8.94218 158.405 18.5736 158.405 18.5736Z" fill="#536620"/>
</g>
<path d="M88.9531 29.8863C88.9531 29.8863 92.4614 29.8863 95.9702 30.638C99.4785 31.3896 104.491 38.4067 105.493 41.4138C106.496 44.4209 105.994 50.4355 105.994 50.4355L103.739 59.4572C103.739 59.4572 108.751 56.9509 108.501 43.6692C108.25 30.3876 92.7127 27.1292 91.2089 27.1292C89.7052 27.1292 85.4452 29.8859 85.1943 32.1413C85.1943 32.1413 87.5262 31.5935 88.9535 29.8859L88.9531 29.8863Z" fill="#C4D65C"/>
<path d="M98.2295 60.052C98.2295 60.052 103.528 59.7968 104.761 58.6247L105.994 57.4526L105.242 54.1947C105.242 54.1947 101.742 59.8943 98.2295 60.0516V60.052Z" fill="#ADC34B"/>
<path d="M72.4135 39.4093C72.4135 39.4093 80.4327 36.1513 84.6931 36.4022C88.9535 36.6526 90.7077 37.6551 90.7077 37.6551L93.2135 40.1614L94.7173 42.6672C94.7173 42.6672 95.7198 45.1735 95.7198 45.9251C95.7198 46.6768 95.9702 49.183 95.9702 49.183V51.6889C95.9702 51.6889 95.469 53.9443 95.2186 54.696C94.9681 55.4476 89.7052 62.7151 89.7052 62.7151L78.9293 52.1897L72.1631 42.9172L72.4135 39.4088V39.4093Z" fill="#DDE4B5"/>
<path d="M72.8858 72.7687C72.8858 72.7687 82.877 71.8765 87.5157 66.1677C92.1544 60.4584 93.9384 52.6083 93.225 48.6831C92.5116 44.7579 85.1966 40.6547 81.093 39.4057C78.1439 38.5082 73.1683 39.914 69.0787 41.7697C67.4774 42.4963 66.0123 43.2914 64.8574 44.0444C60.7538 46.7207 59.6836 46.8991 58.0775 51.5377C56.4718 56.1764 56.8286 63.8481 62.5378 67.595C68.2471 71.3419 72.8858 72.7687 72.8858 72.7687Z" fill="#7D973F"/>
<path d="M59.6834 50.2888C59.6834 50.2888 66.82 42.4387 75.3839 41.3681C83.9478 40.2975 89.2999 47.4341 89.2999 47.4341C89.2999 47.4341 90.7273 59.2094 83.5907 64.3832C76.4541 69.557 71.1019 69.0219 71.1019 69.0219C71.1019 69.0219 54.688 66.7023 59.6834 50.2883V50.2888Z" fill="#BFD268"/>
<path d="M63.1406 49.4334C63.1406 49.4334 71.6611 44.1709 75.1698 44.1709C78.6786 44.1709 82.9386 45.9251 82.9386 45.9251L85.4444 47.6793L86.4469 51.4384C86.4469 51.4384 86.4469 54.1951 85.9457 54.9468C85.4444 55.6984 84.9432 56.7009 84.6928 57.4526C84.4424 58.2043 82.9386 60.4597 82.9386 60.4597L81.9361 61.4622L79.4303 63.4672L73.9169 65.4722L65.1456 55.9493L63.1406 49.4334Z" fill="#DDE4B5"/>
<path d="M38.9873 65.8109C38.9873 65.8109 38.6306 56.8903 44.6966 52.6083C50.7626 48.3264 60.7539 49.0403 66.8199 50.6459C72.8859 52.2516 76.8111 59.2099 75.3838 65.2759C73.9565 71.3419 74.3132 72.7692 66.8199 76.8728C59.3266 80.9764 56.8286 81.6898 48.9786 78.8352C41.1286 75.9805 38.9873 65.8109 38.9873 65.8109Z" fill="#7D973F"/>
<path d="M40.7715 62.2424C40.7715 62.2424 44.6967 53.3218 52.5468 51.0022C60.3968 48.6827 70.388 54.3919 70.388 54.3919C70.388 54.3919 74.4916 59.5657 70.9231 66.3456C67.355 73.1255 66.8195 75.0879 60.7535 76.3368C54.6875 77.5858 37.5597 70.6275 40.7715 62.2424Z" fill="#BFD268"/>
<path d="M42.0898 62.2143C42.0898 62.2143 45.5982 56.1997 48.3549 55.1972C51.1115 54.1947 52.6153 52.9418 52.6153 52.9418C52.6153 52.9418 57.8778 52.1901 59.1311 52.6914C60.3841 53.1926 64.6445 54.1951 64.6445 54.1951L67.9024 55.6989L70.1578 57.4531L70.4082 60.9614L69.6566 64.4697L68.1528 68.2289L64.6445 72.4893L57.6274 73.4918L43.5936 68.2293L42.0898 62.2147V62.2143Z" fill="#DDE4B5"/>
<path d="M33.4564 68.8439C33.4564 68.8439 35.2426 66.5771 38.1754 64.2593C39.9691 62.8421 42.1912 61.406 44.6966 60.4584C51.2976 57.9605 60.3971 58.8527 62.8946 59.7449C65.3925 60.6372 68.7822 65.6326 69.1389 70.2713C69.4957 74.9099 69.4957 77.0511 65.5709 82.0465C61.6456 87.0419 54.5094 90.0749 45.5888 89.0048C36.6682 87.9342 29.5316 80.9764 33.4568 68.8439H33.4564Z" fill="#7D973F"/>
<path d="M35.0625 72.412C35.0625 72.412 37.0249 65.2754 43.6264 62.4208C50.2275 59.5661 58.078 59.3878 61.4677 61.1718C64.8574 62.9559 68.6043 66.8811 67.8904 73.1255C67.177 79.3698 57.3641 84.0085 51.8332 84.544C46.3023 85.0791 35.0625 83.1167 35.0625 72.412Z" fill="#BFD268"/>
<path d="M38.0805 75.4964L39.3334 71.236C39.3334 71.236 40.0851 68.2289 40.5863 67.4768C41.0876 66.7251 43.5934 64.971 44.3455 64.4697C45.0972 63.9685 48.8564 62.966 48.8564 62.966L52.3647 62.4647H55.1214L57.3768 63.2164C57.3768 63.2164 59.6322 63.968 60.3839 64.2189C61.1355 64.4693 62.8902 64.7201 63.1406 65.4718C63.391 66.2234 64.6443 67.7272 64.6443 68.4789C64.6443 69.2305 64.6443 70.4839 64.8947 71.2355C65.1451 71.9872 64.6443 73.9922 64.3935 74.7439C64.1431 75.4955 62.138 77.2497 62.138 77.2497L60.133 79.2547C60.133 79.2547 57.8776 80.0064 57.126 80.2572C56.3743 80.5076 54.1189 81.2597 54.1189 81.2597C54.1189 81.2597 53.3672 81.2597 52.1139 81.5101C50.8605 81.7605 47.603 81.5101 46.8514 81.5101C46.0997 81.5101 42.5909 81.0089 42.0897 80.2572C41.5884 79.5056 40.0847 79.2547 39.8342 78.2522C39.5838 77.2497 38.0801 75.4955 38.0801 75.4955L38.0805 75.4964Z" fill="#DDE4B5"/>
<path d="M44.3234 77.0753C44.3234 77.0753 43.6548 77.4096 43.9891 78.5791C44.3234 79.749 46.1615 76.2397 46.1615 76.2397L44.3234 77.0753Z" fill="#BFD268"/>
<path d="M44.5742 71.3116C44.5742 71.3116 43.906 71.6459 44.2399 72.8153C44.5742 73.9852 46.4123 70.476 46.4123 70.476L44.5742 71.3116Z" fill="#BFD268"/>
<path d="M51.6842 68.5821C51.6842 68.5821 52.3814 68.851 53.0206 67.8155C53.6598 66.7805 49.8281 67.787 49.8281 67.787L51.6842 68.5821Z" fill="#BFD268"/>
<path d="M47.5812 73.3161C47.5812 73.3161 46.9126 73.6504 47.2469 74.8199C47.5812 75.9893 49.4193 72.4806 49.4193 72.4806L47.5812 73.3161Z" fill="#BFD268"/>
<path d="M49.8371 75.3211C49.8371 75.3211 49.1685 75.6555 49.5028 76.8249C49.8371 77.9943 51.6752 74.4856 51.6752 74.4856L49.8371 75.3211Z" fill="#BFD268"/>
<path d="M52.4322 70.1105C52.4322 70.1105 51.7359 69.839 51.0923 70.8714C50.4487 71.9037 54.2844 70.914 54.2844 70.914L52.4318 70.1109L52.4322 70.1105Z" fill="#BFD268"/>
<path d="M49.358 69.4818C49.358 69.4818 48.6265 69.3294 48.1631 70.454C47.6996 71.5786 51.3182 69.9668 51.3182 69.9668L49.358 69.4818Z" fill="#BFD268"/>
<path d="M54.8748 74.4381C54.8748 74.4381 55.5184 74.0586 55.1041 72.9146C54.6898 71.7706 53.0986 75.3985 53.0986 75.3985L54.8748 74.4377V74.4381Z" fill="#BFD268"/>
<path d="M57.6551 70.2335C57.6551 70.2335 57.7351 69.4906 56.57 69.1396C55.405 68.789 57.3648 72.2315 57.3648 72.2315L57.6547 70.2335H57.6551Z" fill="#BFD268"/>
<path d="M55.5044 77.3841C55.5044 77.3841 56.2091 77.135 56.0215 75.9331C55.8339 74.7311 53.5771 77.9869 53.5771 77.9869L55.5044 77.3846V77.3841Z" fill="#BFD268"/>
<path d="M76.9088 53.5138C76.9088 53.5138 76.5745 52.3439 77.2431 52.1769C77.9113 52.01 77.7443 52.8456 77.5774 54.1824C77.4105 55.5192 76.9088 53.5138 76.9088 53.5138Z" fill="#BFD268"/>
<path d="M62.8515 58.0176C62.8515 58.0176 61.7291 57.5488 62.0155 56.9219C62.302 56.295 62.8507 56.9474 63.7908 57.9121C64.7309 58.8769 62.8515 58.0171 62.8515 58.0171V58.0176Z" fill="#BFD268"/>
<path d="M61.1816 58.2684C61.1816 58.2684 60.0592 57.7997 60.3456 57.1728C60.632 56.5463 61.1807 57.1983 62.1209 58.163C63.061 59.1277 61.1816 58.268 61.1816 58.268V58.2684Z" fill="#BFD268"/>
<path d="M58.6758 67.0397C58.6758 67.0397 57.5533 66.5709 57.8398 65.944C58.1262 65.3176 58.6749 65.9695 59.615 66.9343C60.5551 67.899 58.6758 67.0393 58.6758 67.0393V67.0397Z" fill="#BFD268"/>
<path d="M54.4896 58.0764C54.4896 58.0764 53.3083 57.7865 53.4945 57.1231C53.6808 56.4598 54.3235 57.0195 55.4016 57.8273C56.4796 58.6352 54.4896 58.0764 54.4896 58.0764Z" fill="#BFD268"/>
<path d="M76.0045 56.534C76.0045 56.534 75.6702 55.3641 76.3388 55.1972C77.007 55.0303 76.84 55.8658 76.6731 57.2027C76.5062 58.5395 76.0049 56.534 76.0049 56.534H76.0045Z" fill="#BFD268"/>
<path d="M78.2691 55.5267C78.2691 55.5267 78.7414 54.4056 79.3669 54.6937C79.9925 54.9819 79.3393 55.5289 78.3715 56.4664C77.4037 57.4038 78.2691 55.5267 78.2691 55.5267Z" fill="#BFD268"/>
<path d="M50.3599 56.4505C50.3599 56.4505 50.8322 55.3294 51.4578 55.6176C52.0833 55.9058 51.4301 56.4527 50.4623 57.3902C49.4945 58.3277 50.3599 56.4505 50.3599 56.4505Z" fill="#BFD268"/>
<path d="M77.9263 58.706C77.9263 58.706 78.3986 57.5848 79.0242 57.873C79.6497 58.1612 78.9965 58.7082 78.0287 59.6456C77.0609 60.5831 77.9263 58.706 77.9263 58.706Z" fill="#BFD268"/>
<path d="M78.9288 52.1901C78.9288 52.1901 78.0559 51.3427 78.5519 50.8647C79.0479 50.3867 79.3198 51.1942 79.8412 52.4366C80.3627 53.6789 78.9288 52.1906 78.9288 52.1906V52.1901Z" fill="#BFD268"/>
<path d="M66.4884 61.2162C66.4884 61.2162 65.6155 60.3688 66.1114 59.8908C66.6074 59.4128 66.8794 60.2203 67.4008 61.4626C67.9223 62.705 66.4884 61.2166 66.4884 61.2166V61.2162Z" fill="#BFD268"/>
<path d="M55.1212 65.2218C55.1212 65.2218 54.2483 64.3744 54.7443 63.8964C55.2402 63.4184 55.5122 64.2259 56.0336 65.4683C56.5551 66.7106 55.1212 65.2223 55.1212 65.2223V65.2218Z" fill="#BFD268"/>
<path d="M65.4864 58.7104C65.4864 58.7104 64.6135 57.8629 65.1095 57.385C65.6055 56.907 65.8774 57.7144 66.3989 58.9568C66.9203 60.1992 65.4864 58.7108 65.4864 58.7108V58.7104Z" fill="#BFD268"/>
<path d="M75.5719 51.6757C75.5719 51.6757 75.2375 50.5058 75.9062 50.3389C76.5744 50.1719 76.4074 51.0075 76.2405 52.3443C76.0736 53.6811 75.5719 51.6757 75.5719 51.6757Z" fill="#BFD268"/>
<path d="M77.7957 48.2719C77.7957 48.2719 78.7476 47.5145 79.1584 48.0676C79.5691 48.6207 78.7336 48.7868 77.435 49.1457C76.1364 49.5042 77.7957 48.2719 77.7957 48.2719Z" fill="#BFD268"/>
<path d="M74.6724 47.8177C74.6724 47.8177 75.8243 47.4258 76.0241 48.0852C76.224 48.7446 75.3814 48.619 74.038 48.5184C72.6946 48.4178 74.6724 47.8177 74.6724 47.8177Z" fill="#BFD268"/>
<path d="M73.0649 51.279C73.0649 51.279 73.4572 50.1275 74.1012 50.3709C74.7457 50.6147 74.1319 51.2061 73.2327 52.209C72.3334 53.2124 73.0644 51.279 73.0644 51.279H73.0649Z" fill="#BFD268"/>
<path d="M58.2483 56.2709C58.2483 56.2709 59.199 55.5122 59.6106 56.0644C60.0222 56.617 59.1867 56.7844 57.8889 57.1451C56.5912 57.5058 58.2483 56.2709 58.2483 56.2709Z" fill="#BFD268"/>
<path d="M45.2065 65.3497C45.2065 65.3497 46.1572 64.591 46.5688 65.1432C46.9804 65.6958 46.1449 65.8632 44.8471 66.2239C43.549 66.5846 45.2065 65.3497 45.2065 65.3497Z" fill="#BFD268"/>
<path d="M89.1495 40.6947C89.1495 40.6947 88.4181 39.7225 88.9822 39.3271C89.5462 38.9313 89.6899 39.7712 90.0132 41.0791C90.3366 42.3869 89.1495 40.6947 89.1495 40.6947Z" fill="#BFD268"/>
<path d="M96.9771 36.1157C96.9771 36.1157 95.9267 35.5025 96.2936 34.9195C96.6604 34.3365 97.1181 35.0552 97.9221 36.1359C98.7265 37.2167 96.9771 36.1157 96.9771 36.1157Z" fill="#BFD268"/>
<path d="M91.4591 43.1684C91.4591 43.1684 90.7277 42.1962 91.2917 41.8009C91.8558 41.405 91.9995 42.245 92.3228 43.5528C92.6461 44.8607 91.4591 43.1684 91.4591 43.1684Z" fill="#BFD268"/>
<path d="M102.875 43.7865C102.875 43.7865 102.144 42.8143 102.708 42.419C103.272 42.0236 103.415 42.8631 103.739 44.1709C104.062 45.4788 102.875 43.7865 102.875 43.7865Z" fill="#BFD268"/>
<path d="M103.237 50.6868C103.237 50.6868 102.506 49.7146 103.07 49.3192C103.634 48.9234 103.778 49.7634 104.101 51.0712C104.424 52.379 103.237 50.6868 103.237 50.6868Z" fill="#BFD268"/>
<path d="M103.297 47.1956C103.297 47.1956 103.149 45.9879 103.835 45.9273C104.521 45.8667 104.226 46.6658 103.852 47.96C103.478 49.2542 103.297 47.1956 103.297 47.1956Z" fill="#BFD268"/>
<path d="M87.9503 41.9155C87.9503 41.9155 87.2189 40.9433 87.783 40.5479C88.347 40.1521 88.4907 40.9921 88.814 42.2999C89.1373 43.6077 87.9503 41.9155 87.9503 41.9155Z" fill="#BFD268"/>
<path d="M87.0069 39.8055C87.0069 39.8055 85.7905 39.7989 85.8168 39.1105C85.8432 38.4221 86.5988 38.8162 87.8355 39.3508C89.0721 39.885 87.0069 39.8055 87.0069 39.8055Z" fill="#BFD268"/>
<path d="M93.552 32.0855C93.552 32.0855 94.7496 31.8707 94.8485 32.5525C94.9473 33.2343 94.1328 32.9839 92.8197 32.6834C91.5066 32.3829 93.552 32.0855 93.552 32.0855Z" fill="#BFD268"/>
<path d="M96.471 32.8938C96.471 32.8938 97.6686 32.679 97.7674 33.3608C97.8662 34.0426 97.0518 33.7922 95.7387 33.4917C94.4256 33.1912 96.471 32.8938 96.471 32.8938Z" fill="#BFD268"/>
<path d="M54.3727 55.8048C54.3727 55.8048 55.4359 55.2134 55.7504 55.8263C56.065 56.4391 55.2136 56.4664 53.8737 56.6074C52.5338 56.7484 54.3727 55.8048 54.3727 55.8048Z" fill="#BFD268"/>
<path d="M71.06 49.7748C71.06 49.7748 71.4523 48.6234 72.0963 48.8667C72.7408 49.1105 72.1271 49.7019 71.2278 50.7048C70.3285 51.7082 71.0595 49.7748 71.0595 49.7748H71.06Z" fill="#BFD268"/>
<g style="mix-blend-mode:multiply">
<path d="M130.716 3.02949C130.716 3.02949 120.49 -1.27575 115.488 0.37869C110.485 2.03313 74.9997 10.3357 68.0353 12.6601C61.0709 14.9849 14.0282 29.5863 10.3547 34.4068C6.68118 39.2274 -0.399186 45.8157 1.15114 52.4845C1.15114 52.4845 5.68614 37.8989 14.6406 33.2497C23.5951 28.6004 103.521 4.35753 110.486 3.36161C117.45 2.36525 126.073 0.372979 130.716 3.02949H130.716Z" fill="#86AA24"/>
</g>
<g style="mix-blend-mode:multiply">
<path d="M5.38803 47.8322C5.38803 47.8322 26.7772 33.4614 41.4822 28.1141C56.1877 22.7668 119.687 0.375172 132.387 4.38564C132.387 4.38564 112.669 7.3936 95.9581 12.4066C79.2476 17.4195 24.4379 37.4719 24.4379 37.4719L5.05371 49.169" fill="#86AA24"/>
</g>
<g style="mix-blend-mode:multiply">
<path d="M4.71973 51.5087C4.71973 51.5087 27.4457 39.4773 42.4851 33.4614C57.5244 27.4455 118.684 6.39065 125.368 7.39316L132.052 8.39566C132.052 8.39566 123.058 9.22508 112.516 12.1522C101.973 15.0798 43.8219 34.4635 43.8219 34.4635L4.71973 51.5087Z" fill="#86AA24"/>
</g>
<g style="mix-blend-mode:multiply">
<path d="M2.71484 54.5163C2.71484 54.5163 7.39394 43.4874 16.7517 37.8058C26.1095 32.1242 41.4831 26.7769 41.4831 26.7769C41.4831 26.7769 3.71779 35.1321 2.71528 54.5158L2.71484 54.5163Z" fill="#86AA24"/>
</g>
<g style="mix-blend-mode:multiply">
<path d="M10.4014 55.1849C10.4014 55.1849 24.1039 55.8535 33.1273 53.1794L42.1508 50.5058C42.1508 50.5058 22.4328 60.1979 10.4014 55.1849Z" fill="#86AA24"/>
</g>
<path d="M156.138 21.2807C156.138 21.2807 151.436 28.448 140.742 35.4664C130.047 42.4849 110.663 52.8451 110.663 52.8451C110.663 52.8451 148.809 38.8443 156.138 21.2807Z" fill="#A1AF1C"/>
<path d="M143.75 13.7434C143.75 13.7434 110.664 27.7802 105.316 32.1246C105.316 32.1246 115.677 21.0957 143.75 13.7434Z" fill="#A1AF1C"/>
<path d="M100.303 27.7798C100.303 27.7798 125.368 15.0798 134.058 13.0748C142.747 11.0693 146.089 10.7354 146.089 10.7354C146.089 10.7354 111.456 14.865 100.303 27.7798Z" fill="#BFD268"/>
<path d="M152.439 20.4275C152.439 20.4275 141.745 30.4539 137.066 32.7932C132.386 35.1326 110.329 48.5008 110.329 48.5008C110.329 48.5008 114.005 44.4903 120.689 39.8112C127.373 35.1321 134.058 31.456 134.058 31.456L152.439 20.4271L152.439 20.4275Z" fill="#A1AF1C"/>
<path d="M149.431 15.7484C149.431 15.7484 147.259 17.9024 141.995 20.0005C136.731 22.0986 129.379 27.1116 129.379 27.1116L125.034 28.1141L118.35 30.7878L109.326 36.8037L127.039 29.1171L149.431 15.7489V15.7484Z" fill="#A1AF1C"/>
<path d="M29.4512 32.4589C29.4512 32.4589 67.2165 18.4221 72.5638 16.417C77.9111 14.4116 111.666 6.05678 115.342 5.05384L119.018 4.05133C119.018 4.05133 46.1612 18.7564 29.4512 32.4589Z" fill="#A1AF1C"/>
<mask id="mask2_223_171122" style="mask-type:luminance" maskUnits="userSpaceOnUse" x="32" y="58" width="38" height="32">
<path d="M69.2224 70.313C68.8657 65.6743 65.4755 60.6789 62.978 59.7867C60.4801 58.8944 51.3811 58.0026 44.78 60.5001C42.2751 61.4482 40.0526 62.8838 38.2589 64.301C35.326 66.6184 33.5398 68.8857 33.5398 68.8857C29.6146 81.0177 36.7512 87.9759 45.6718 89.0465C54.5925 90.1171 61.7291 87.0841 65.6539 82.0883C69.5791 77.0929 69.5791 74.9517 69.2219 70.313H69.2224ZM67.9734 73.1676C67.26 79.412 57.4471 84.0507 51.9162 84.5862C46.3853 85.1213 35.1455 83.1589 35.1455 72.4542C35.1455 72.4542 37.1079 65.3176 43.7094 62.463C50.3105 59.6083 58.161 59.43 61.5507 61.214C64.9404 62.998 68.6873 66.9233 67.9734 73.1676Z" fill="white"/>
</mask>
<g mask="url(#mask2_223_171122)">
<g style="mix-blend-mode:multiply">
<path d="M32.3154 79.0048L31.0625 71.4868L32.5663 69.4818L38.9863 65.8109L37.0771 72.2385L35.3229 75.4964L32.3154 79.0048Z" fill="#86AA24"/>
</g>
<g style="mix-blend-mode:multiply">
<path d="M33.0674 83.5156L36.3253 76.9997L39.082 80.2577L41.3374 81.5106L42.5903 82.2622V90.031C42.5903 90.031 34.0699 85.0189 33.0674 83.5152V83.5156Z" fill="#86AA24"/>
</g>
<g style="mix-blend-mode:multiply">
<path d="M46.5999 90.0314L46.0986 84.0169L50.3591 83.7664L55.6216 83.0148L58.6291 80.7594L59.1299 87.0244L53.8674 91.034L46.5999 90.0314Z" fill="#86AA24"/>
</g>
<g style="mix-blend-mode:multiply">
<path d="M61.3857 86.7735V80.0073L64.8941 76.2481L66.8987 72.4893L68.152 68.2289L69.6553 77.7518L69.1541 80.5085L67.6508 76.4989L66.8987 75.246L67.6508 81.0098L65.6457 84.5181L61.3857 86.7735Z" fill="#86AA24"/>
</g>
</g>
<g style="mix-blend-mode:multiply">
<path d="M69.4062 69.2314L70.1579 74.9952C70.1579 74.9952 74.9196 69.7327 74.9196 66.976C74.9196 64.2193 72.4138 59.7085 72.4138 59.7085L71.9125 65.2218L73.1654 69.4823L70.9236 66.3465L69.4062 69.2319V69.2314Z" fill="#86AA24"/>
</g>
<g style="mix-blend-mode:multiply">
<path d="M71.2265 56.1874C71.2265 56.1874 75.7382 62.7046 75.7382 63.874C75.7382 63.874 75.4039 57.6912 72.8976 54.5163C70.3909 51.3414 66.8193 50.6455 66.8193 50.6455L66.5479 52.3439C66.5479 52.3439 71.0596 54.015 71.227 56.1874H71.2265Z" fill="#86AA24"/>
</g>
<g style="mix-blend-mode:multiply">
<path d="M42.4852 54.1824C42.4852 54.1824 47.3312 51.3418 49.1693 50.3389L52.5467 51.0027C52.5467 51.0027 47.6655 52.3443 44.9919 55.6861L42.3182 59.0284L39.8115 59.6971L42.4852 54.1828V54.1824Z" fill="#86AA24"/>
</g>
<g style="mix-blend-mode:multiply">
<path d="M43.8223 60.6991C43.8223 60.6991 51.5089 59.028 54.3499 58.861C57.1905 58.6941 62.2039 58.861 63.5407 60.0309C64.8776 61.2008 66.3813 63.3732 66.3813 63.3732C66.3813 63.3732 65.2114 60.5326 60.6997 60.1983C56.188 59.864 46.329 61.2008 46.329 61.2008L44.3235 62.0364L43.8223 60.6996V60.6991Z" fill="#86AA24"/>
</g>
<g style="mix-blend-mode:multiply">
<path d="M39.3105 63.3728L40.7717 62.2424L41.8168 59.6966L39.4775 61.3677L39.3105 63.3728Z" fill="#86AA24"/>
</g>
<g style="mix-blend-mode:multiply">
<path d="M74.7361 68.7201L72.8857 72.7687C72.8857 72.7687 76.7416 72.0623 78.0784 71.728C79.4152 71.3937 80.0838 66.715 80.0838 66.715L77.7445 67.8849L77.4102 70.3916L74.7366 68.7205L74.7361 68.7201Z" fill="#86AA24"/>
</g>
<g style="mix-blend-mode:multiply">
<path d="M80.083 66.715L81.5868 70.3912C81.5868 70.3912 87.1269 68.5755 89.7044 62.7156L87.6027 59.3623C87.6027 59.3623 86.7671 63.2058 80.083 66.715Z" fill="#86AA24"/>
</g>
<g style="mix-blend-mode:multiply">
<path d="M87.9375 58.3598L90.2768 61.5347L91.6137 59.3623L89.4413 57.023L92.2818 57.1899L90.6107 53.8476L92.7831 54.5163L90.7781 48.8347L92.9505 51.3414L93.225 48.6831L88.7731 46.3284C88.7731 46.3284 90.9455 54.015 87.9375 58.3598Z" fill="#86AA24"/>
</g>
<g style="mix-blend-mode:multiply">
<path d="M60.5324 49.002C60.5324 49.002 65.7128 43.1535 72.8981 41.8167C72.8981 41.8167 71.1075 41.7227 69.0783 41.7697C67.0496 41.8167 60.1981 46.8296 58.6943 49.1694L60.5324 49.0025V49.002Z" fill="#86AA24"/>
</g>
<g style="mix-blend-mode:multiply">
<path d="M75.3832 41.3681C75.3832 41.3681 78.4122 40.6468 81.9214 42.1505L85.4307 43.6543L89.4411 43.9886L86.4332 41.6493L83.9265 41.8162V40.6463L81.921 39.8108L79.4143 39.3095L75.9051 39.9782L73.2314 40.1451L75.3827 41.3677L75.3832 41.3681Z" fill="#86AA24"/>
</g>
<g style="mix-blend-mode:multiply">
<path d="M89.7049 62.7156C89.7049 62.7156 93.2849 61.7016 95.2899 58.0255L95.7911 61.869C95.7911 61.869 89.9426 66.882 87.1016 66.882L89.7045 62.7156H89.7049Z" fill="#86AA24"/>
</g>
<g style="mix-blend-mode:multiply">
<path d="M96.4594 56.0205L97.6293 60.8665L100.47 55.8535L101.472 51.0075L98.1301 45.1589C98.1301 45.1589 98.7983 52.1774 96.459 56.0205H96.4594Z" fill="#86AA24"/>
</g>
<g style="mix-blend-mode:multiply">
<path d="M97.63 42.6522L101.64 46.8296L101.306 42.8192L100.136 40.8137L96.9767 36.1157L94.9559 35.1321L92.2822 34.4635C92.2822 34.4635 97.4626 37.8058 97.6295 42.6514L97.63 42.6522Z" fill="#86AA24"/>
</g>
<g style="mix-blend-mode:multiply">
<path d="M69.8896 40.9811C69.8896 40.9811 75.07 35.6338 77.4093 35.1326C79.7487 34.6313 83.7591 33.4614 83.7591 33.4614C83.7591 33.4614 74.0671 32.2915 69.8896 40.9811Z" fill="#86AA24"/>
</g>
<g style="mix-blend-mode:multiply">
<path d="M88.9531 29.8863C88.9531 29.8863 95.6241 29.7853 97.9638 31.6234L100.303 33.4614L103.812 32.2915L100.47 32.4585L99.9688 29.9518L96.4596 28.2806L94.9559 29.1162L93.619 27.6124L88.9531 29.8859V29.8863Z" fill="#86AA24"/>
</g>
<g style="mix-blend-mode:multiply">
<path d="M105.65 42.3179H108.324C108.324 42.3179 108.992 49.3364 108.157 52.1769C107.321 55.0175 105.818 58.3598 105.818 58.3598L104.314 59.5297L99.3008 59.864C99.3008 59.864 104.815 56.1878 105.317 52.6786C105.818 49.1694 105.651 42.3184 105.651 42.3184L105.65 42.3179Z" fill="#86AA24"/>
</g>
<g style="mix-blend-mode:multiply">
<path d="M69.4057 69.2314L69.3622 70.3183L69.1553 75.4964C69.1553 75.4964 71.912 74.2435 72.9145 71.9881L70.4086 72.9906" fill="#86AA24"/>
</g>
<g style="mix-blend-mode:multiply">
<path d="M74.7359 68.7201L72.9141 71.9877C72.9141 71.9877 75.9743 72.7209 78.0782 71.7276L74.6682 71.4864L74.7359 68.7196V68.7201Z" fill="#86AA24"/>
</g>
<path d="M5.50195 45.4239C5.50195 45.4239 11.767 37.6551 17.2803 34.8984C17.2803 34.8984 7.00571 36.1513 5.50195 45.4239Z" fill="#DDE4B5"/>
<g style="mix-blend-mode:multiply">
<path d="M87.1016 66.882L89.7045 62.7156C89.7045 62.7156 92.4612 61.713 93.9649 60.2097L95.4687 58.706C95.4687 58.706 94.2724 63.2796 87.102 66.882H87.1016Z" fill="#86AA24"/>
</g>
<g style="mix-blend-mode:multiply">
<path d="M98.2292 60.052C98.2292 60.052 102.485 58.4551 105.242 54.1951C105.242 54.1951 106.642 56.0929 104.313 59.5297C101.984 62.9664 95.791 61.869 95.791 61.869L98.2292 60.052Z" fill="#5F7511"/>
</g>
<g style="mix-blend-mode:multiply">
<path d="M69.1556 75.4964C69.1556 75.4964 68.1531 82.2627 59.1318 87.0239C54.1593 89.6484 47.0253 90.1022 41.8076 88.2681C46.26 88.0827 50.7028 87.6715 55.1135 87.0371C60.379 86.2797 67.5249 80.7976 69.156 75.4964H69.1556Z" fill="#86AA24"/>
</g>
<g style="mix-blend-mode:multiply">
<path d="M156.139 21.2807C156.139 21.2807 156.867 25.3755 150.852 31.6405C144.838 37.9055 105.817 58.3598 105.817 58.3598L107.498 56.1997C107.498 56.1997 146.592 33.6455 149.349 31.3901C152.105 29.1347 154.408 25.7067 156.139 21.2807Z" fill="#6C8413"/>
</g>
<g style="mix-blend-mode:multiply">
<path d="M85.194 32.1417C85.194 32.1417 84.1915 30.3876 93.9653 26.378C103.739 22.3684 119.026 15.6021 119.026 15.6021C119.026 15.6021 85.4449 25.6263 84.4424 32.1422" fill="#7D8223"/>
</g>
<path d="M9.26074 47.4289C9.26074 47.4289 19.0345 40.4118 20.0366 41.6651C21.0391 42.918 9.26074 47.4289 9.26074 47.4289Z" fill="#DDE4B5"/>
<path d="M105.493 27.8817C105.493 27.8817 132.934 11.9681 146.216 11.4673C146.216 11.4673 113.512 23.1205 105.493 27.8817Z" fill="#DDE4B5"/>
<path d="M151.604 24.8742C151.604 24.8742 143.084 32.643 138.823 35.3997C134.563 38.1563 119.526 46.1755 119.526 46.1755C119.526 46.1755 122.992 41.4494 129.153 38.5495C135.315 35.6501 148.597 28.1317 151.604 24.8738V24.8742Z" fill="#DDE4B5"/>
<g style="mix-blend-mode:multiply">
<path d="M150.1 12.0723C150.1 12.0723 152.773 11.7379 154.444 16.0827C156.116 20.4275 154.444 23.1012 154.444 23.1012C154.444 23.1012 154.779 16.417 150.1 12.0723Z" fill="#7D8223"/>
</g>
<g style="mix-blend-mode:multiply">
<path d="M136.533 7.72748C136.533 7.72748 130.108 1.79634 123.929 2.04324C117.751 2.29057 114.538 3.77324 114.538 3.77324C114.538 3.77324 122.941 2.29057 126.153 3.52591C129.366 4.76169 133.815 7.23281 136.533 7.72704V7.72748Z" fill="#7D8223"/>
</g>
<path d="M4.72049 51.5087C4.72049 51.5087 4.16784 52.593 7.28475 53.8889C10.4017 55.1849 16.697 56.1628 16.697 56.1628C16.697 56.1628 3.93896 57.5936 4.72049 51.5087Z" fill="#C4D65C"/>
</g>
<defs>
<clipPath id="clip0_223_171122">
<rect width="155.736" height="92" fill="white" transform="translate(0.508789)"/>
</clipPath>
</defs>
</svg>
