<svg width="74" height="68" viewBox="0 0 74 68" fill="none" xmlns="http://www.w3.org/2000/svg">
<path d="M72.6454 51.26C73.4523 51.8922 73.333 52.5703 72.352 52.9184C71.9761 53.0559 71.5635 53.1292 71.1693 53.1933C70.4174 53.3033 69.6656 53.3766 68.9046 53.3583C68.7396 53.3491 68.5562 53.3033 68.3728 53.4774C68.4828 53.7706 68.7671 53.9447 68.9688 54.1738C70.2524 55.7131 70.124 57.5456 69.253 59.0575C68.8954 59.6714 68.6754 59.7264 67.8777 59.479C67.8135 59.818 67.7585 60.1479 67.676 60.4777C67.621 60.7068 67.5568 60.9267 67.4743 61.1466C67.3918 61.3665 67.2817 61.6048 66.9883 61.5498C66.7316 61.504 66.7225 61.2749 66.6949 61.0733C66.6583 60.7251 66.6308 60.3769 66.6124 60.0287C66.5391 58.7918 66.209 57.6281 65.6956 56.5011C65.6222 56.3453 65.5214 56.2079 65.4388 56.0613C65.1271 56.0338 65.0171 56.272 64.8521 56.4095C63.5868 57.4815 62.1748 58.2237 60.5061 58.4986C58.2139 58.8834 55.9493 59.0575 53.6663 58.4711C53.0153 58.3062 52.3277 58.3886 51.6675 58.4528C50.2464 58.5994 48.8161 58.6177 47.3949 58.6085C45.0936 58.5994 42.7923 58.6727 40.5001 58.7093C38.2996 58.746 36.145 58.4436 34.0912 57.6006C33.0368 57.17 31.9732 56.776 30.928 56.3453C30.6346 56.2262 30.5154 56.2262 30.3229 56.5377C29.3785 58.0221 28.4891 59.5615 27.1964 60.7893C26.8113 61.1466 26.3803 61.449 25.9127 61.6872C25.1976 62.0537 24.6108 62.5577 24.1432 63.2082C22.8413 64.995 21.09 66.2228 19.1738 67.2398C17.3309 68.2202 15.8639 67.7255 14.892 65.8837C13.9018 64.0054 13.4709 61.9621 13.0033 59.9188C12.1964 56.3728 12.2331 52.8268 12.9391 49.2717C12.9666 49.1251 12.9758 48.9785 13.0124 48.841C13.15 48.4195 13.0033 48.1996 12.6274 47.9431C9.95012 46.1014 7.47459 44.0397 5.85174 41.1443C5.72338 40.9152 5.57666 40.7045 5.42079 40.4846C4.88901 39.7241 4.61395 38.8903 4.54977 37.9648C4.44891 36.5721 4.40309 35.1977 4.84318 33.8233C5.20076 32.7054 5.75087 31.7616 6.6219 30.9828C7.97886 29.7642 9.69339 28.6555 11.7013 27.7392C9.91343 26.4289 8.52897 24.8255 7.57543 22.8829C7.26369 23.0204 7.25453 23.3044 7.08033 23.4602C6.92446 23.616 6.71359 23.7442 6.53939 23.5976C6.22765 23.3227 5.99844 23.3777 5.71421 23.6251C5.41164 23.8908 5.09073 23.9458 4.86152 23.506C4.73316 23.2586 4.52226 23.1762 4.27471 23.3136C3.99048 23.4694 4.10969 23.7351 4.20138 23.9275C4.56812 24.7063 4.2197 25.2744 3.70626 25.7967C3.55956 25.9433 3.37619 26.0624 3.16532 25.8975C3.00028 25.7692 3.04612 25.586 3.09196 25.421C3.15614 25.1736 3.34868 24.9629 3.29367 24.6147C2.92692 24.6422 2.7894 24.9354 2.59686 25.1645C2.40432 25.4027 2.22093 25.6684 1.91837 25.2836C1.77167 25.1003 1.60664 25.2011 1.4416 25.2286C1.21239 25.2653 0.98317 25.3477 0.753954 25.3385C0.130485 25.3111 -0.144566 24.8529 0.167168 24.3215C0.506409 23.7534 0.808957 23.1212 1.56996 22.9746C1.65247 22.9563 1.77167 22.9379 1.80835 22.8738C2.39514 21.8567 3.51373 21.93 4.43059 21.591C4.59563 21.536 4.76983 21.5085 4.90736 21.481C5.02655 21.3344 4.93486 21.2611 4.87985 21.1603C4.64147 20.7205 4.67814 20.5556 5.09073 20.3265C5.47582 20.1066 5.89757 20.015 6.34684 19.9875C7.05282 19.9509 7.07117 19.9509 7.18119 19.227C7.36457 18.0908 7.77714 17.0554 8.35476 16.0567C9.26246 14.4899 10.6745 13.5278 12.2698 12.8497C14.0944 12.0801 15.9648 11.4387 17.826 10.7606C18.5136 10.5132 19.238 10.3941 19.9715 10.3941C23.2905 10.3941 26.6004 10.0093 29.9195 10.0917C30.4696 10.1009 31.0197 10.1192 31.5698 10.1834C32.3583 10.275 33.101 10.1375 33.7428 9.5328C35.3656 8.01178 37.2177 6.79314 39.0881 5.6203C40.3534 4.82314 41.802 4.55742 43.2507 4.42915C44.4334 4.32836 45.6345 4.21841 46.8173 4.48413C47.1749 4.5666 47.3307 4.4383 47.2757 4.08096C47.1749 3.42124 47.1474 2.79818 47.8625 2.42251C48.0459 2.32172 48.0092 2.12929 47.9817 1.9552C47.9084 1.54288 47.9726 1.13973 48.1193 0.754895C48.2109 0.5075 48.3393 0.241776 48.6602 0.269264C48.9994 0.296753 49.0269 0.599115 49.0453 0.855672C49.0544 0.974788 49.0453 1.08475 49.0453 1.20386C49.0636 1.71698 49.3937 2.01934 49.8796 1.8819C50.4298 1.72613 51.0074 1.60703 51.3191 1.00228C51.4475 0.75489 51.7042 0.57164 51.9242 0.388385C52.0618 0.269269 52.236 0.195949 52.3918 0.370041C52.5385 0.525808 52.4743 0.699918 52.3643 0.846522C52.2451 1.01145 52.1168 1.17638 51.9884 1.32298C51.8692 1.46959 51.805 1.61618 51.8876 1.79944C52.1259 2.34921 51.8967 2.81651 51.5758 3.32047C52.5019 3.81525 52.5935 4.16343 52.0434 4.91478C52.3185 5.19882 52.7311 5.17134 53.0611 5.33627C53.2995 5.45539 53.5563 5.5745 53.5471 5.88604C53.5288 6.20673 53.272 6.29834 53.0061 6.37165C52.7311 6.45411 52.4377 6.45412 52.181 6.60989C52.3276 6.81147 52.5477 6.78397 52.7402 6.82978C52.9786 6.89392 53.2262 6.97639 53.1712 7.2696C53.1162 7.57197 52.8503 7.56282 52.6119 7.50784C52.1535 7.39789 51.695 7.33374 51.2274 7.31541C51.0899 7.30625 50.934 7.26961 50.7507 7.39789C51.1724 8.10342 51.64 8.79979 51.8417 9.61528C51.8876 9.81686 52.0343 9.88099 52.2452 9.83517C54.0881 9.43201 55.9584 9.56029 57.8197 9.6061C60.3869 9.67024 62.9358 9.90847 65.3655 10.8431C66.4566 11.2554 67.5201 11.7227 68.5562 12.2542C69.3264 12.6482 69.849 13.262 70.3899 13.9309C71.1876 14.9113 71.3068 15.9559 71.2518 17.1104C71.2334 17.5136 71.2518 17.9259 71.2334 18.329C71.1509 19.8042 70.6375 21.0779 69.5647 22.1408C68.1161 23.5793 66.3924 24.578 64.5586 25.4393C62.8258 26.2457 61.1754 27.2261 59.305 27.8583C59.5892 28.1149 59.8643 28.0965 60.121 28.1332C61.1296 28.2706 62.129 28.4905 63.1192 28.7104C65.1454 29.1503 66.9242 30.0574 68.6112 31.276C70.2432 32.4489 71.4443 33.9332 72.3887 35.665C72.8838 36.5629 72.8013 37.3693 72.2878 38.2855C70.6375 41.2451 67.9235 42.1889 64.797 42.4546C64.6503 42.4637 64.5036 42.4637 64.3569 42.4729C64.3111 42.4821 64.2744 42.537 64.2286 42.5645C64.1827 42.7111 64.2836 42.7845 64.3661 42.8578C65.4847 43.774 66.3007 44.9285 67.0067 46.1838C67.3826 46.8435 67.566 47.5124 67.5385 48.2638C67.4926 49.2534 67.5293 49.1251 68.382 49.3541C69.5097 49.6657 70.6008 50.0505 71.646 50.5819C71.9578 50.811 72.3245 51.0126 72.6454 51.26ZM72.5262 52.0388C72.5446 51.9564 72.5079 51.8739 72.4254 51.8373C72.3612 51.8281 72.3062 51.8556 72.3245 51.9105C72.3428 51.9838 72.3887 52.0571 72.4254 52.1213C72.462 52.103 72.5262 52.0755 72.5262 52.0388ZM72.0128 36.5446C72.0128 36.3339 71.9303 36.1506 71.8386 35.9673C70.1974 32.8428 67.621 30.827 64.3478 29.6725C62.5599 29.0403 60.6803 28.7746 58.8007 28.4997C57.9664 28.3806 57.132 28.3623 56.3068 28.6005C52.9695 29.5534 49.5771 30.2131 46.1388 30.6529C45.7262 30.7079 45.4603 30.8454 45.2678 31.2394C44.7452 32.3114 44.085 33.3102 43.4249 34.2997C43.3057 34.483 43.0948 34.6479 43.159 34.9045C43.2782 35.0328 43.4249 35.0144 43.5716 35.0236C46.3955 35.2435 49.1645 35.7933 51.8967 36.4713C55.5184 37.3601 58.7824 39.1377 61.8906 41.1352C62.8533 41.7491 63.7701 42.0423 64.8887 41.9781C66.97 41.8498 68.7854 41.0893 70.4174 39.8524C71.1784 39.2751 71.4993 38.4596 71.5177 37.3601C71.1051 37.8091 71.0501 38.3039 70.7383 38.6337C70.5641 38.8078 70.4083 38.9636 70.1424 38.9178C69.8398 38.8628 69.7114 38.6429 69.6564 38.368C69.5281 37.6808 69.6656 37.0302 69.9957 36.4347C70.2891 35.8941 70.4816 35.8757 71.0042 36.2697C71.1876 36.4072 71.4076 36.508 71.536 36.7187C71.591 36.8103 71.6552 36.9294 71.7927 36.8928C71.9944 36.847 72.0128 36.7004 72.0128 36.5446ZM70.61 16.1117C70.61 15.9284 70.4999 15.8276 70.3624 15.6993C70.0323 15.3878 69.6564 14.9663 69.6839 14.5632C69.7389 13.7477 69.2622 13.3812 68.7029 13.0696C66.8692 12.0526 64.9621 11.1821 62.8899 10.7606C59.7359 10.1192 56.5361 10.0643 53.3362 10.2383C53.0428 10.2567 52.7677 10.33 52.4835 10.4033C52.0984 10.504 51.9792 10.6965 52.0068 11.0905C52.0709 11.9609 51.9426 12.8314 51.7867 13.6927C51.6308 14.554 51.4566 15.4061 51.4475 16.2858C51.4383 17.4403 51.1541 18.5306 50.6406 19.5569C50.1547 20.519 49.6504 21.4719 49.1186 22.4065C48.0184 24.3306 47.1015 26.3281 46.4231 28.4447C46.258 28.967 46.0013 29.4526 45.9279 30.0024C46.2763 30.1765 46.5973 30.0849 46.8998 30.0299C48.5869 29.7367 50.2922 29.4985 51.9609 29.1136C56.261 28.1149 60.5703 27.1436 64.467 24.8896C66.154 23.9092 67.8869 23.0387 69.253 21.6002C69.8031 21.0137 70.1882 20.354 70.4082 19.5844C70.7292 18.4298 70.5916 17.2662 70.61 16.1117ZM70.179 52.5703C70.5091 52.7352 70.775 52.6344 71.0225 52.5245C70.7567 52.4695 70.4908 52.2496 70.179 52.5703ZM68.2536 50.7652C69.3722 50.9026 70.4816 51.0309 71.5727 51.3241C69.8581 50.3804 68.0427 49.739 66.0807 49.5924C65.7047 49.5649 65.3196 49.629 64.9987 49.8581C64.687 50.078 64.6962 50.3071 64.9896 50.527C65.0629 50.5728 65.1546 50.5911 65.2188 50.6369C65.4113 50.7652 65.4847 50.9485 65.3747 51.1592C65.283 51.3333 65.1088 51.3791 64.9254 51.3425C64.7328 51.2966 64.5495 51.1775 64.3478 51.1592C63.9627 51.1317 63.7243 51.3974 63.6968 51.8098C63.6601 52.2954 63.9994 52.2129 64.2744 52.2129C64.9437 52.2129 65.6039 52.2221 66.2548 52.4237C66.4749 52.497 66.7133 52.5061 66.9333 52.3778C67.841 51.8556 68.8221 51.6265 69.8765 51.6998C69.198 51.4249 68.5012 51.4341 67.8135 51.3974C67.5751 51.3791 67.2176 51.4799 67.2451 51.0767C67.2634 50.6736 67.6118 50.7011 67.9052 50.7011C68.0244 50.7011 68.1344 50.7469 68.2536 50.7652ZM69.3263 52.7352C69.3263 52.726 69.3263 52.7169 69.3263 52.7077C69.0788 52.6986 68.8312 52.6802 68.5745 52.6711C68.5745 52.6894 68.5745 52.7169 68.5745 52.7352C68.8312 52.7352 69.0788 52.7352 69.3263 52.7352ZM68.4462 58.9017C69.3172 58.0679 69.6014 56.5652 69.0421 55.4657C68.3636 54.1096 67.3092 53.1658 65.7506 52.9001C65.5305 52.8635 65.2646 52.7627 65.2004 53.12C65.1454 53.4499 65.393 53.5049 65.6222 53.5507C65.7597 53.5782 65.9156 53.5323 66.0531 53.5598C66.8233 53.6698 67.4009 54.0088 67.6943 54.7877C67.9511 55.4749 68.1344 56.1712 68.2169 56.8951C68.2903 57.5365 68.3636 58.187 68.4462 58.9017ZM67.2542 59.2133C67.3092 57.5915 66.9975 56.1896 66.1998 54.8793C65.7506 55.1817 65.8239 55.484 66.0073 55.8139C66.3649 56.4828 66.6308 57.1791 66.8417 57.903C66.97 58.3062 66.97 58.746 67.2542 59.2133ZM66.8783 48.6303C66.9058 48.108 66.9883 47.5399 66.7133 47.0909C66.1265 46.1289 65.6681 45.1026 64.9071 44.2413C63.9535 43.1601 62.7433 42.4088 61.5972 41.6483C58.6082 39.6599 55.4175 38.0473 51.9517 37.0211C50.3564 36.5446 48.6877 36.4346 47.074 36.059C45.8271 35.7749 44.571 35.6008 43.2782 35.5367C42.7189 35.5092 42.508 35.6741 42.2421 36.0498C39.8491 39.4309 37.722 42.9585 36.0258 46.7428C35.2006 48.5753 34.1829 50.3071 33.0093 51.9472C32.395 52.7993 31.8357 53.6881 31.2673 54.5586C31.1206 54.7785 31.0014 55.0076 30.8913 55.2458C30.7905 55.4565 30.7996 55.6398 31.0472 55.7406C32.0649 56.1437 33.0276 56.6752 34.0545 57.0783C36.1541 57.8938 38.318 58.2603 40.5459 58.1687C42.9298 58.0679 45.3136 58.0679 47.7067 58.0496C48.8436 58.0404 49.9713 58.0129 51.1082 57.9121C52.0068 57.8297 52.9236 57.6922 53.8038 57.903C56.096 58.4528 58.3698 58.2603 60.6436 57.8572C62.1198 57.5915 63.3759 56.8859 64.4853 55.9055C65.0538 55.4016 65.0446 55.3741 64.6045 54.7785C64.4394 54.5494 64.1552 54.3387 64.3019 54.018C64.4486 53.6881 64.2469 53.6148 64.0269 53.5049C63.8435 53.4224 63.6693 53.3124 63.4768 53.2391C62.7799 52.9734 62.5232 52.3962 62.5415 51.7365C62.5507 51.3608 62.4407 51.205 62.1381 51.0859C61.8356 50.9759 61.5422 50.8568 61.2396 50.756C58.9291 49.9406 56.5269 49.4549 54.1247 49.0243C53.8497 48.9785 53.5379 48.9968 53.2812 48.6761C53.6479 48.4195 53.9597 48.5661 54.2623 48.6211C57.1412 49.0976 59.9743 49.7207 62.6791 50.8477C63.3484 51.1226 64.0177 50.811 64.2103 50.1147C64.3753 49.5374 64.7512 49.2442 65.3013 49.1159C65.6772 49.0334 66.044 48.9968 66.4291 49.0334C66.7133 49.0609 66.86 48.9143 66.8783 48.6303ZM50.9249 6.6557C51.1357 6.06012 51.7867 6.10593 52.346 5.77607C51.5758 5.61114 50.9799 5.39123 50.3381 5.36374C50.0447 5.35458 49.5587 5.52869 49.5312 5.1072C49.4945 4.62158 50.008 4.73152 50.3289 4.68571C50.7048 4.63073 51.0991 4.65822 51.4291 4.38333C51.3466 4.30087 51.3374 4.26423 51.3099 4.25506C50.5123 3.87023 50.4939 3.81524 50.9707 3.14636C51.1266 2.93562 51.3099 2.74319 51.3649 2.47747C51.4016 2.29422 51.3558 2.04684 51.1357 2.12931C50.5581 2.33089 49.843 2.35837 49.6687 3.17385C49.5954 3.51288 49.3845 3.80609 49.1461 4.07181C49.0086 4.21841 48.8436 4.37418 48.6144 4.25506C48.3943 4.13595 48.3943 3.9252 48.4585 3.72362C48.5502 3.4579 48.6694 3.20133 48.7794 2.93561C48.7886 2.93561 48.7886 2.93561 48.7977 2.93561C48.7977 2.92645 48.7977 2.9173 48.8069 2.89897C48.8803 2.81651 48.9444 2.74321 49.0086 2.65158C49.0545 2.57828 49.0636 2.48664 48.9444 2.47747C48.9169 2.47747 48.8619 2.55078 48.8436 2.5966C48.8161 2.69739 48.8161 2.79818 48.7977 2.89897C48.7886 2.90813 48.7886 2.90813 48.7794 2.91729C48.7794 2.92645 48.7794 2.92645 48.7702 2.93561C48.6877 2.94478 48.6052 2.94479 48.5318 2.95396C47.7617 3.05475 47.6516 3.19217 47.7617 3.97101C47.8533 4.64905 48.0551 5.26296 48.706 5.6478C48.9811 5.80356 49.192 6.06013 49.4395 6.27087C49.843 6.60989 50.4297 6.34417 50.8332 6.68319C50.8515 6.69236 50.9157 6.67403 50.9249 6.6557ZM51.3374 12.7123C51.6675 10.4949 51.1541 8.55239 49.3845 7.0497C48.9628 6.69236 48.5593 6.31667 48.1376 5.95932C47.3491 5.30877 46.4506 4.96059 45.4053 5.0064C44.8827 5.03389 44.3601 4.99723 43.8375 5.04305C42.4163 5.153 40.9769 5.29961 39.7116 6.01431C37.1352 7.48951 34.7147 9.19378 32.7434 11.4387C29.7911 14.7922 27.2789 18.4573 25.3993 22.5348C23.9873 25.5951 22.5295 28.6371 21.09 31.6883C20.1823 33.6034 19.3388 35.555 18.3119 37.4151C17.2942 39.2568 16.0198 40.9519 15.3871 43.0227C14.9379 44.4887 14.3419 45.9089 13.8926 47.3841C13.5442 48.5478 13.7184 49.8214 13.0583 50.9026C13.0033 50.9943 13.0216 51.1317 13.0033 51.2417C12.8016 53.0376 12.7557 54.8335 13.0124 56.6385C13.1775 57.8205 13.4525 58.9842 13.7001 60.1479C13.7368 60.3036 13.7459 60.551 13.9935 60.4594C14.4978 60.2761 14.5345 60.5968 14.562 60.9359C14.5895 61.339 14.5711 61.7605 14.8829 62.3011C14.9379 61.449 14.9837 60.7893 15.0387 60.1204C15.0571 59.8638 15.1029 59.5981 15.1579 59.3507C15.1946 59.2041 15.2954 59.085 15.4697 59.1033C15.6347 59.1216 15.7264 59.2499 15.7264 59.4057C15.7355 59.8363 15.7264 60.2761 15.6989 60.7068C15.6164 62.1912 15.5613 63.6664 15.7722 65.1507C15.8181 65.4806 15.8272 65.8288 16.2582 66.1037C16.2582 65.389 16.249 64.7842 16.2582 64.1795C16.2673 63.9229 16.2123 63.5931 16.4324 63.4373C16.7533 63.2174 16.9 62.9517 16.955 62.5943C16.9733 62.4752 17.0558 62.3744 17.1934 62.3744C17.3676 62.3744 17.4134 62.5119 17.4684 62.6585C17.5509 62.8692 17.3309 63.1532 17.6335 63.3457C17.6885 63.1899 17.7343 63.0525 17.771 62.915C17.881 62.521 17.991 62.127 18.1194 61.7422C18.1836 61.5498 18.2569 61.3115 18.5136 61.3482C18.7795 61.3848 18.7795 61.6322 18.7612 61.8338C18.7429 62.182 18.7154 62.5302 18.6512 62.8692C18.4953 63.6297 18.3028 64.3811 18.1286 65.1507C18.4036 65.1416 18.477 64.9217 18.5778 64.7659C18.9629 64.2253 19.3296 63.6572 19.7239 63.1166C19.8981 62.8784 20.0356 62.4019 20.3932 62.5668C20.8333 62.7776 20.4941 63.1807 20.3749 63.474C20.1915 63.9504 19.9623 64.4085 19.7239 64.9217C20.0906 64.8758 20.2098 64.6559 20.3932 64.5185C20.5766 64.3811 20.7508 64.2161 20.9342 64.0787C21.0809 63.9687 21.2459 63.9138 21.4109 64.0604C21.5393 64.1703 21.5026 64.3169 21.4659 64.4635C21.4109 64.6743 21.1909 64.8484 21.2734 65.0958C21.4935 65.1599 21.5943 64.995 21.7227 64.8942C22.4287 64.3719 23.0063 63.7122 23.5289 63.0158C24.1157 62.237 24.8034 61.5864 25.6744 61.1375C26.4079 60.7618 26.9946 60.1937 27.5173 59.5523C28.3333 58.5627 29.0668 57.509 29.6077 56.3453C30.3687 54.7327 31.2947 53.2208 32.3308 51.7823C33.6328 49.9864 34.7055 48.0622 35.6407 46.0555C36.8601 43.4442 38.1804 40.8878 39.8033 38.4963C40.9493 36.8103 42.0863 35.1244 43.2324 33.4384C44.3509 31.7891 45.2495 30.0391 45.8454 28.1424C46.5239 25.9983 47.4774 23.9733 48.5868 22.0216C49.0911 21.1328 49.5587 20.2349 50.0263 19.3278C50.4297 18.549 50.7415 17.7152 50.7782 16.8355C50.8607 15.452 51.1357 14.0867 51.3374 12.7123ZM31.9457 11.4387C32.0924 11.2737 32.3125 11.1455 32.3033 10.8248C31.5332 10.7973 30.7538 10.7698 29.9836 10.7331C26.8113 10.5957 23.6481 10.953 20.4849 10.9347C19.3021 10.9255 18.1836 11.1363 17.0833 11.5669C15.9739 11.9976 14.8645 12.4557 13.7276 12.8039C11.7472 13.4178 10.1427 14.4898 8.88655 16.1758C7.39206 18.1916 7.07117 21.142 8.32728 23.3136C9.49169 25.3111 11.0595 26.8687 13.1592 27.9408C14.2411 28.4905 15.3229 28.7471 16.4965 28.7379C17.2025 28.7288 17.8902 28.8296 18.5778 28.9395C19.3847 29.077 20.1915 29.0953 21.0075 29.0953C21.5576 29.0953 21.8327 28.8662 22.0528 28.3806C22.8871 26.5572 23.7856 24.7613 24.5925 22.9288C26.472 18.7414 28.9751 14.948 31.9457 11.4387ZM20.329 65.8746C20.4207 65.7738 20.3749 65.6547 20.3015 65.563C20.2374 65.4897 20.1457 65.4989 20.0723 65.5447C19.9715 65.6089 19.8798 65.6822 19.7881 65.7463C19.5956 65.8746 19.4122 66.0212 19.1463 65.9296C18.8437 65.8196 19.0271 65.4806 18.8804 65.2607C18.6145 65.5631 18.3944 65.8288 18.1469 66.0762C17.9544 66.2686 17.7618 66.5801 17.4226 66.4335C17.1292 66.3052 17.2942 66.0304 17.3034 65.8105C17.3126 65.6455 17.2392 65.5172 17.0742 65.4989C16.8083 65.4623 16.8083 65.6822 16.8083 65.8471C16.8083 66.2319 16.7166 66.5893 16.4049 66.9283C17.3492 67.304 17.716 67.3315 18.4495 66.9924C18.9996 66.7359 19.5222 66.4152 20.054 66.1128C20.164 66.0395 20.2557 65.9662 20.329 65.8746ZM17.5876 37.6808C19.0088 35.271 20.0265 32.6779 21.2826 30.0574C19.568 29.6634 17.9727 29.3977 16.3407 29.3518C15.3138 29.3244 14.3052 29.1961 13.37 28.7563C12.4348 28.3073 11.5638 28.4173 10.7019 28.8846C9.75758 29.3977 8.87738 30.0116 7.98802 30.6163C6.08094 31.9083 5.03571 33.6217 5.19158 35.9765C5.19158 36.004 5.19159 36.0315 5.18242 36.0681C4.82484 38.0106 5.4208 39.6691 6.5027 41.3092C8.0522 43.6641 10.0143 45.5516 12.279 47.1642C12.3706 47.2284 12.4715 47.2925 12.5815 47.3475C13.095 47.5949 13.2325 47.5399 13.3884 46.9993C13.5076 46.5778 13.5992 46.1563 13.7093 45.7349C14.0393 44.5254 14.3694 43.3067 14.947 42.2072C15.7447 40.6404 16.6983 39.1743 17.5876 37.6808ZM15.1671 65.1965C15.1763 65.0774 15.2038 64.995 15.1946 64.9217C15.1854 64.83 15.1396 64.7476 15.0387 64.7751C14.9379 64.8026 14.947 64.9033 14.9837 64.9858C15.0204 65.0499 15.0846 65.1049 15.1671 65.1965ZM6.8236 22.4981C6.91529 21.7742 6.90612 21.7101 6.27348 21.7834C5.3016 21.8934 4.35723 22.1591 3.4312 22.4706C2.51433 22.7822 2.5235 22.8096 2.88108 23.7167C2.93609 23.8542 2.9361 24.01 3.14698 23.955C3.28451 23.9183 3.46789 23.8542 3.42204 23.6893C3.27534 23.1578 3.59623 22.9471 3.99965 22.7913C4.40307 22.6447 4.79734 22.6081 5.13658 22.9379C5.46665 23.2678 5.66836 23.0112 5.82423 22.773C6.24599 22.1316 6.23681 22.1224 6.8236 22.4981ZM6.54854 21.2337C6.70441 21.1054 6.69524 20.9221 6.68607 20.7572C6.66773 20.5098 6.45686 20.5373 6.30099 20.5464C6.08094 20.5556 5.83339 20.5373 5.61334 20.7938C5.80588 20.9496 5.97091 21.0595 6.10844 21.197C6.24597 21.3528 6.38351 21.3619 6.54854 21.2337Z" fill="black"/>
<path d="M71.9302 35.8266C72.0219 36.0087 72.1135 36.1909 72.1044 36.4004C72.1044 36.5553 72.0769 36.7011 71.9119 36.7557C71.7744 36.7922 71.7103 36.6828 71.6553 36.5826C71.527 36.3731 71.307 36.2729 71.1237 36.1363C70.6013 35.7446 70.4089 35.7628 70.1156 36.3003C69.7857 36.8924 69.6482 37.5391 69.7765 38.2223C69.8315 38.4956 69.9598 38.7142 70.2622 38.7689C70.5189 38.8144 70.6838 38.6596 70.858 38.4865C71.1696 38.1586 71.2245 37.6666 71.637 37.2203C71.6186 38.3134 71.2979 39.1332 70.5372 39.698C68.9058 40.9278 67.0912 41.6839 65.0108 41.8114C63.8927 41.8751 62.9671 41.5836 62.0139 40.9733C58.8979 38.9875 55.6352 37.2203 52.0243 36.3367C49.2932 35.6717 46.5162 35.1251 43.7026 34.8974C43.5652 34.8883 43.4094 34.9065 43.2902 34.779C43.2261 34.5239 43.4368 34.36 43.556 34.1778C44.2158 33.1849 44.8757 32.201 45.3981 31.1353C45.5906 30.7436 45.8564 30.6069 46.2688 30.5523C49.7056 30.1059 53.0965 29.4501 56.4325 28.5118C57.2574 28.275 58.0822 28.2932 58.9254 28.4116C60.795 28.6849 62.6829 28.949 64.4701 29.5776C67.7144 30.7162 70.2989 32.7203 71.9302 35.8266Z" fill="#0C4C11"/>
<path d="M70.3129 15.6214C70.4504 15.7496 70.5695 15.8411 70.5604 16.0334C70.542 17.1869 70.6704 18.3587 70.3587 19.5031C70.1479 20.2813 69.7538 20.9313 69.2038 21.5172C67.838 22.9545 66.1056 23.8333 64.419 24.8038C60.5325 27.0558 56.2243 28.0263 51.9162 29.0242C50.2479 29.4087 48.543 29.6467 46.8564 29.9396C46.5539 29.9946 46.2331 30.0861 45.8848 29.9122C45.9581 29.3629 46.2148 28.8685 46.3798 28.3558C47.0581 26.2502 47.9747 24.2453 49.0746 22.3228C49.6063 21.389 50.1104 20.4369 50.5962 19.4756C51.1096 18.4503 51.3937 17.3609 51.4029 16.2074C51.412 15.3285 51.5862 14.4771 51.742 13.6165C51.8979 12.756 52.017 11.8954 51.962 11.0165C51.9345 10.6229 52.0537 10.4306 52.4387 10.3299C52.7228 10.2567 52.9978 10.1835 53.2911 10.1651C56.4901 9.9912 59.6892 10.0461 62.8424 10.687C64.9139 11.1081 66.8205 11.9778 68.6538 12.994C69.2038 13.3053 69.6804 13.6715 69.6346 14.4862C69.6071 14.889 69.9829 15.3102 70.3129 15.6214ZM70.0379 18.3313C70.267 17.6538 70.2579 16.9672 70.1021 16.2806C69.9554 15.6397 69.7629 15.3834 69.4238 15.42C69.0571 15.4566 68.9288 15.713 68.9471 16.5003C68.9288 17.0313 69.1396 17.6446 69.1946 18.2763C69.2129 18.5052 69.2496 18.7707 69.5613 18.7707C69.8362 18.7707 69.9646 18.5601 70.0379 18.3313Z" fill="#096410"/>
<path d="M70.2943 16.3156C70.4649 17.0153 70.475 17.6967 70.2241 18.378C70.1438 18.6082 70.0033 18.82 69.7123 18.82C69.3711 18.82 69.331 18.553 69.3109 18.3228C69.2507 17.6875 69.0199 17.0706 69.0399 16.5366C69.0199 15.7447 69.1604 15.4961 69.5618 15.4501C69.9231 15.4133 70.1338 15.6711 70.2943 16.3156Z" fill="black"/>
<path d="M71.4919 51.3936C70.4079 51.0977 69.2965 50.959 68.1943 50.8296C68.085 50.8111 67.9666 50.7741 67.8572 50.7648C67.5657 50.7648 67.2196 50.7371 67.2014 51.144C67.1831 51.5508 67.5293 51.4491 67.7661 51.4676C68.4493 51.5138 69.1417 51.5046 69.8158 51.7728C68.7682 51.6988 67.7935 51.9299 66.8916 52.457C66.673 52.5865 66.4453 52.568 66.2175 52.5032C65.5708 52.2998 64.9149 52.2906 64.2499 52.2906C63.9675 52.2906 63.6305 52.3738 63.676 51.8837C63.7034 51.4769 63.9402 51.1994 64.3228 51.2272C64.5141 51.2457 64.6963 51.3659 64.8967 51.4121C65.0698 51.4491 65.2519 51.4029 65.343 51.2272C65.4615 51.0145 65.3795 50.8296 65.1882 50.7001C65.1153 50.6539 65.0242 50.6354 64.9604 50.5892C64.6598 50.3672 64.6598 50.1361 64.9696 49.9141C65.2884 49.683 65.671 49.6183 66.0445 49.646C67.9848 49.7939 69.7884 50.4412 71.4919 51.3936Z" fill="#096410"/>
<path d="M69.0546 55.4398C69.6139 56.5369 69.3388 58.0149 68.4586 58.84C68.3761 58.1327 68.3028 57.489 68.2294 56.8543C68.1469 56.138 67.9635 55.4489 67.7068 54.7688C67.4226 53.9981 66.8357 53.6626 66.0655 53.5538C65.928 53.5357 65.7721 53.572 65.6346 53.5448C65.4054 53.4994 65.1578 53.445 65.2128 53.1186C65.277 52.765 65.5429 52.8647 65.763 52.901C67.3125 53.1549 68.3669 54.0979 69.0546 55.4398Z" fill="#096410"/>
<path d="M66.1462 54.8533C66.9376 56.1604 67.2468 57.5491 67.1923 59.1467C66.9103 58.6837 66.9103 58.2481 66.792 57.8487C66.5737 57.1316 66.3099 56.4327 65.9643 55.7792C65.7824 55.4524 65.7005 55.1529 66.1462 54.8533Z" fill="#096410"/>
<path d="M66.8396 47.0824C67.1245 47.5402 67.0418 48.0988 67.005 48.6207C66.9866 48.9045 66.8396 49.0419 66.5546 49.0236C66.1685 48.9961 65.8008 49.0236 65.424 49.106C64.8632 49.225 64.4864 49.5272 64.3301 50.104C64.1371 50.7999 63.466 51.1112 62.795 50.8365C60.0832 49.7103 57.2336 49.0877 54.3565 48.6115C54.0623 48.5657 53.7406 48.4101 53.3729 48.6665C53.6303 48.9869 53.9428 48.9686 54.2186 49.0144C56.6361 49.4447 59.0353 49.9392 61.3518 50.745C61.6551 50.8549 61.9585 50.9647 62.2526 51.0746C62.556 51.1845 62.6663 51.3401 62.6571 51.7247C62.6387 52.384 62.8961 52.9608 63.5947 53.2264C63.7877 53.2996 63.9624 53.4003 64.1462 53.4919C64.3669 53.5926 64.5691 53.6659 64.422 54.0047C64.2749 54.3343 64.5599 54.5357 64.7253 54.7646C65.1666 55.369 65.1758 55.3873 64.6059 55.8909C63.4936 56.8706 62.2342 57.5757 60.7543 57.8412C58.4746 58.2441 56.1949 58.4364 53.8968 57.887C53.0052 57.6764 52.086 57.8137 51.1943 57.8961C50.0637 58.006 48.9238 58.0335 47.784 58.0335C45.394 58.0518 43.004 58.0518 40.6048 58.1525C38.3711 58.2441 36.1925 57.8778 34.0967 57.0629C33.0671 56.66 32.1019 56.1289 31.0816 55.7261C30.8242 55.6253 30.815 55.4422 30.9253 55.2316C31.0448 54.9936 31.1643 54.7646 31.3022 54.5449C31.8813 53.6659 32.4421 52.7869 33.0488 51.9353C34.2254 50.2963 35.2457 48.5657 36.073 46.7345C37.7828 42.9529 39.9062 39.4185 42.3054 36.0489C42.5719 35.6826 42.7834 35.5087 43.3441 35.5361C44.6402 35.5911 45.8996 35.765 47.1497 36.058C48.7675 36.4335 50.4405 36.5433 52.04 37.0195C55.5147 38.045 58.7136 39.6565 61.7103 41.6435C62.8685 42.4126 64.0727 43.1634 65.0287 44.2347C65.7916 45.0955 66.2513 46.1301 66.8396 47.0824ZM63.8429 48.7214C63.99 48.8862 64.1279 49.1518 64.468 49.051C63.9716 48.1995 61.508 45.7547 60.5704 45.1687C60.4142 45.068 60.2487 44.8848 59.9638 45.1229C60.2855 45.3793 60.598 45.6265 60.9014 45.8829C61.9401 46.7711 62.9145 47.7233 63.8429 48.7214ZM63.3005 49.0327C63.4292 48.9595 63.3925 48.8313 63.3281 48.7306C63.2454 48.6115 63.1535 48.5016 63.0432 48.4009C61.5081 47.0183 59.927 45.6906 58.0977 44.7109C56.8292 44.0241 55.4687 43.6304 53.952 43.4931C53.8876 43.5022 53.7406 43.5022 53.6027 43.5297C53.4832 43.5572 53.4097 43.6396 53.4097 43.7769C53.4097 43.8868 53.4924 43.9234 53.5751 43.9417C53.6579 43.9601 53.7498 43.9601 53.8325 43.9601C55.7353 44.1157 57.4451 44.7841 59.0169 45.8371C60.2303 46.6429 61.3426 47.5769 62.4365 48.5291C62.6295 48.7031 62.8317 48.8679 63.0432 49.0144C63.1167 49.0602 63.2362 49.0602 63.3005 49.0327ZM61.4253 52.9517C61.4529 52.5946 60.9933 52.7045 60.7267 52.6495C60.6991 52.6404 60.6716 52.6495 60.644 52.6404C58.493 52.503 56.3512 52.2558 54.2186 51.9902C53.8509 51.9445 53.4832 51.862 52.9776 52.0818C53.3821 52.3565 53.6946 52.4023 54.0072 52.4389C56.2317 52.7136 58.4562 52.9517 60.6991 53.1256C60.9473 53.1531 61.3977 53.3271 61.4253 52.9517Z" fill="#096410"/>
<path d="M64.4379 49.1574C64.0913 49.26 63.9601 48.9895 63.8008 48.8215C62.8452 47.8046 61.8521 46.8343 60.7935 45.9293C60.4843 45.6681 60.1658 45.4255 59.8379 45.1549C60.1283 44.9217 60.297 45.099 60.4562 45.2016C61.4212 45.7987 63.932 48.2897 64.4379 49.1574Z" fill="black"/>
<path d="M62.9972 48.8475C63.0606 48.941 63.1058 49.0813 62.97 49.1562C62.9066 49.1936 62.7889 49.1842 62.7346 49.1468C62.5264 48.9972 62.3272 48.8288 62.137 48.6511C61.0596 47.669 59.964 46.7243 58.7689 45.9012C57.2206 44.8255 55.5275 44.1427 53.6624 43.9837C53.5809 43.9743 53.4903 43.9837 53.4089 43.965C53.3274 43.9463 53.2459 43.8995 53.2459 43.7966C53.2368 43.6563 53.3093 43.5721 53.436 43.5441C53.5718 43.516 53.7167 43.516 53.7801 43.5067C55.274 43.647 56.614 44.0492 57.8635 44.7507C59.6652 45.7608 61.2226 47.1171 62.7346 48.5201C62.8251 48.6043 62.9248 48.7259 62.9972 48.8475Z" fill="black"/>
<path d="M60.5207 52.7252C60.7865 52.7857 61.2448 52.6647 61.2173 53.0579C61.1898 53.4712 60.7407 53.2797 60.4841 53.2494C58.2569 53.068 56.0297 52.8058 53.8117 52.4933C53.5001 52.453 53.1884 52.4025 52.7852 52.1001C53.2893 51.8581 53.6559 51.9489 54.0225 51.9993C56.1489 52.2916 58.2844 52.5639 60.4291 52.7151C60.4566 52.7252 60.4932 52.7252 60.5207 52.7252Z" fill="black"/>
<path d="M52.4779 5.79995C51.9189 6.1317 51.2682 6.08563 51.0574 6.68462C51.0483 6.70305 50.9933 6.71226 50.9841 6.70304C50.5809 6.35286 49.9944 6.62932 49.5911 6.28836C49.3437 6.07641 49.1329 5.82759 48.858 5.66172C48.2073 5.27468 48.0057 4.65728 47.914 3.97535C47.8041 3.19206 47.9141 3.05382 48.6839 2.95246C48.7664 2.94324 48.8488 2.93403 48.9221 2.93403C48.8122 3.20127 48.693 3.45928 48.6014 3.72652C48.5372 3.92926 48.5372 4.14121 48.7572 4.26101C48.9863 4.38081 49.1421 4.22415 49.2887 4.07671C49.527 3.80947 49.7378 3.51457 49.8111 3.17361C49.9852 2.35346 50.7 2.32582 51.2774 2.12309C51.4974 2.04015 51.5432 2.28896 51.5065 2.47327C51.4515 2.74051 51.2591 2.93403 51.1124 3.14598C50.6359 3.81869 50.6542 3.87397 51.4515 4.26101C51.4698 4.27023 51.4882 4.29789 51.5707 4.39004C51.2407 4.66649 50.8467 4.64805 50.4709 4.69412C50.1502 4.7402 49.637 4.62962 49.6736 5.11803C49.7103 5.53272 50.1868 5.36685 50.4801 5.37606C51.1124 5.41292 51.7081 5.63407 52.4779 5.79995Z" fill="#096410"/>
<path d="M49.5074 7.04388C51.2801 8.54847 51.7945 10.4934 51.4638 12.7136C51.2618 14.099 50.9862 15.4659 50.9311 16.8696C50.9035 17.7503 50.5821 18.576 50.1779 19.365C49.7095 20.2733 49.2319 21.1724 48.7359 22.0623C47.6245 24.0164 46.6693 26.0439 45.9896 28.1907C45.3926 30.099 44.4833 31.8513 43.3719 33.4935C42.2238 35.1816 41.0849 36.8696 39.9367 38.5577C38.311 40.9522 36.9884 43.5119 35.7668 46.1265C34.8299 48.1357 33.7461 50.0623 32.451 51.8605C31.4039 53.3009 30.4763 54.8055 29.7231 56.4293C29.1812 57.5945 28.4464 58.6495 27.6289 59.6403C27.1054 60.2734 26.5176 60.8422 25.7828 61.2275C24.9102 61.677 24.2213 62.3284 23.6335 63.1082C23.1099 63.8055 22.5313 64.466 21.8241 64.989C21.6955 65.0899 21.5853 65.255 21.374 65.1908C21.2822 64.9339 21.5118 64.7688 21.5669 64.5578C21.6036 64.411 21.6404 64.2734 21.5118 64.1541C21.3465 64.0073 21.1811 64.0715 21.0341 64.1725C20.8413 64.3101 20.6759 64.466 20.4922 64.6128C20.3085 64.7504 20.1891 64.9706 19.8217 65.0165C20.0605 64.5027 20.2902 64.044 20.4739 63.5669C20.5841 63.2734 20.9331 62.8697 20.4922 62.6587C20.134 62.4935 19.9963 62.9706 19.8217 63.2091C19.4268 63.7504 19.0686 64.3192 18.6736 64.8605C18.5634 65.0165 18.4991 65.2367 18.2236 65.2458C18.3981 64.4752 18.591 63.7229 18.7471 62.9614C18.8206 62.622 18.839 62.2734 18.8573 61.9247C18.8665 61.7229 18.8757 61.4752 18.6093 61.4385C18.3522 61.411 18.2787 61.6403 18.2144 61.833C18.095 62.2183 17.9848 62.6128 17.8653 63.0073C17.8286 63.1449 17.7735 63.2825 17.7276 63.4385C17.4245 63.2458 17.6449 62.9706 17.5623 62.7504C17.5072 62.6036 17.4612 62.466 17.2867 62.466C17.1489 62.466 17.0663 62.5669 17.0479 62.6862C16.9928 63.0532 16.8458 63.3192 16.5244 63.5302C16.3039 63.677 16.3498 64.0073 16.3498 64.2734C16.3406 64.8789 16.3498 65.4844 16.3498 66.2C15.9181 65.9248 15.909 65.5761 15.8631 65.2458C15.6518 63.7688 15.7161 62.2825 15.7896 60.7963C15.8079 60.3651 15.8171 59.9247 15.8171 59.4935C15.8171 59.3468 15.7253 59.2091 15.5599 59.1908C15.3854 59.1724 15.2844 59.2917 15.2476 59.4385C15.1925 59.6954 15.1466 59.9523 15.1283 60.2091C15.0731 60.8697 15.0364 61.5394 14.9721 62.3926C14.6598 61.8605 14.6782 61.4385 14.6506 61.0257C14.6231 60.6862 14.5863 60.3651 14.0812 60.5486C13.824 60.6403 13.8148 60.3926 13.7872 60.2367C13.5393 59.0715 13.2637 57.9064 13.0984 56.7229C12.8412 54.9247 12.8779 53.1265 13.0892 51.3192C13.0984 51.1999 13.0892 51.0715 13.1443 50.9798C13.7964 49.8972 13.6311 48.6128 13.9801 47.4568C14.4302 45.9798 15.0272 44.5577 15.4773 43.0898C16.111 41.0164 17.3786 39.3192 18.4073 37.4751C19.4452 35.6128 20.281 33.6586 21.1903 31.7412C22.6323 28.6861 24.0927 25.6403 25.5072 22.576C27.3901 18.4935 29.9068 14.8329 32.8643 11.4659C34.8391 9.2182 37.2639 7.51177 39.8449 6.03471C41.1124 5.30993 42.5544 5.17231 43.9781 5.06222C44.5016 5.01635 45.0252 5.05305 45.5487 5.02553C46.5958 4.97048 47.4959 5.32827 48.2858 5.97965C48.6808 6.30075 49.0849 6.68608 49.5074 7.04388ZM48.9012 13.7411C49.1309 13.7044 49.0849 13.4843 49.1033 13.3375C49.1033 13.0531 49.0298 12.8054 48.7359 12.7136C48.4971 12.6402 48.2491 12.6769 48.1572 12.9338C48.0562 13.2182 48.3318 13.1356 48.4695 13.1815C48.589 13.2182 48.6257 13.3466 48.6532 13.4567C48.69 13.6035 48.7175 13.7687 48.9012 13.7411ZM46.2652 16.0531C46.2652 15.7136 46.3662 15.3742 46.3386 14.8421C45.6957 15.3283 45.264 15.7778 44.915 16.3008C44.8139 16.4476 44.7772 16.6219 44.8231 16.8054C44.8599 16.9522 44.9517 17.0806 45.117 17.0806C45.5304 17.0806 46.2652 16.4659 46.2652 16.0531ZM44.2261 21.1999C44.5108 21.2274 44.9058 20.7503 44.8874 20.4109C44.8782 20.1723 44.7405 20.0439 44.5108 20.0347C44.1526 20.0531 43.7209 20.4751 43.7577 20.7687C43.7852 21.0347 43.9597 21.1815 44.2261 21.1999ZM43.6842 25.9797C43.7393 25.8421 43.776 25.7045 43.7301 25.5577C43.675 25.4017 43.5648 25.3375 43.4086 25.3283C43.1147 25.3559 42.6096 25.943 42.6096 26.2641C42.6096 26.4201 42.683 26.5393 42.8392 26.5944C43.0964 26.6678 43.528 26.3558 43.6842 25.9797ZM41.9115 30.3742C41.9023 30.3192 41.9023 30.1999 41.8564 30.099C41.7554 29.8513 41.5992 29.5944 41.2869 29.7595C41.0389 29.888 41.0206 30.1081 41.2226 30.3375C41.5625 30.732 41.2318 30.8054 40.9379 30.8972C40.7909 30.943 40.6991 31.0715 40.745 31.2366C40.8001 31.4017 40.9563 31.4201 41.1032 31.4109C41.5716 31.365 41.9023 30.9705 41.9115 30.3742ZM41.5625 24.1357C41.7186 23.888 41.6819 23.6402 41.4614 23.4292C41.342 23.31 41.241 23.1265 41.0389 23.1815C40.745 23.2641 40.6715 23.5302 40.644 23.787C40.598 24.1632 40.6807 24.5118 40.993 24.9063C41.2226 24.5944 41.4155 24.3742 41.5625 24.1357ZM39.4775 30.7779C39.7806 30.7595 40.2766 30.8972 40.0469 30.3283C40.0194 29.9981 40.1847 29.6494 39.8449 29.5027C39.5234 29.3559 39.4499 29.7595 39.2479 29.8696C39.156 29.9247 39.0182 29.8971 38.9264 29.9338C38.807 29.9797 38.7794 30.099 38.7886 30.2182C38.7978 30.5852 39.055 30.8054 39.4775 30.7779ZM38.7978 27.5026C38.8162 27.4293 38.7978 27.3192 38.7519 27.2641C38.66 27.1632 38.5314 27.1907 38.4488 27.2824C38.1916 27.5485 37.9528 27.8421 37.6773 28.099C37.117 28.6311 37.1078 28.6953 37.6221 29.5669C37.6221 29.0348 37.5854 28.5394 38.2559 28.6311C38.3202 28.6403 38.4304 28.4843 38.4763 28.3926C38.6049 28.1081 38.706 27.8054 38.7978 27.5026ZM38.6141 34.4935C38.6876 34.2641 38.7151 34.0164 38.5131 33.8421C38.2743 33.6311 38.0171 33.732 37.7966 33.888C37.4384 34.1357 37.2364 34.4843 37.1996 34.9063C37.1721 35.2458 37.1262 35.6036 37.3466 36.1082C37.5762 35.6586 37.7599 35.3467 38.1089 35.1724C38.3661 35.0531 38.5223 34.7871 38.6141 34.4935ZM36.5016 33.3375C36.4648 33.1265 36.4281 32.8605 36.1434 32.8421C35.8311 32.8238 35.7576 33.0715 35.7943 33.3192C35.8403 33.6219 35.7851 33.888 35.7117 34.1724C35.6841 34.2825 35.6933 34.4109 35.8311 34.4568C35.9689 34.5027 36.0515 34.4109 36.125 34.3283C36.3271 34.0348 36.4281 33.7045 36.5016 33.3375ZM36.1893 37.677C36.2168 37.4751 36.1709 37.2641 35.9505 37.1724C35.6841 37.0623 35.4821 37.1999 35.381 37.4201C35.1147 37.9889 35.1514 38.5577 35.4729 39.2183C35.7025 38.8054 35.7852 38.4384 36.0423 38.1632C36.1434 38.0531 36.1709 37.8513 36.1893 37.677ZM35.7209 12.7228C35.7576 12.4843 35.5739 12.365 35.381 12.2733C34.7656 11.9888 34.0951 12.3742 33.8104 13.2916C34.2513 12.9338 34.6646 12.8604 35.1055 13.0622C35.133 13.0714 35.1606 13.0714 35.1881 13.0622C35.4453 13.0622 35.6749 13.0072 35.7209 12.7228ZM34.3248 18.2366C34.6003 18.2182 34.8483 17.8879 34.8207 17.6035C34.7932 17.365 34.6462 17.2274 34.4166 17.2549C34.0951 17.2916 34.0216 17.5577 34.0125 17.8329C34.0033 18.0439 34.0768 18.2274 34.3248 18.2366ZM33.9482 42.7229C34.0125 42.6403 33.939 42.5577 33.8747 42.5027C33.5991 42.3008 33.2042 42.2733 32.9929 41.7871C33.2869 41.8146 33.59 41.9981 33.691 41.6128C33.7553 41.3559 33.6634 41.1449 33.4246 41.0348C33.1123 40.8972 32.8552 40.9981 32.6623 41.2641C32.5245 41.466 32.4969 41.6862 32.5612 41.9247C32.6898 42.3651 33.2685 42.8238 33.7369 42.8329C33.8104 42.8329 33.9022 42.7779 33.9482 42.7229ZM33.1307 37.5118C33.3236 37.4476 33.3603 37.2733 33.3511 37.099C33.342 36.9889 33.3052 36.8513 33.1583 36.8696C32.8919 36.8972 32.8643 37.099 32.8919 37.31C32.9103 37.4384 32.9929 37.5118 33.1307 37.5118ZM32.1479 22.5852C32.3775 22.5485 32.8184 21.8971 32.8092 21.6494C32.7909 21.4568 32.699 21.3191 32.5153 21.2733C32.3224 21.2274 32.1479 21.3008 32.1387 21.5026C32.1296 21.7962 31.9642 22.0439 31.9183 22.3191C31.8999 22.4751 31.9642 22.6219 32.1479 22.5852ZM32.3592 46.2366C32.3959 45.9614 32.3408 45.7045 32.0836 45.5669C31.8632 45.4476 31.707 45.6495 31.5601 45.7779C31.1192 46.1357 30.9355 46.5853 31.1192 47.3467C31.4131 46.9981 31.606 46.7779 31.955 46.7504C32.1938 46.7229 32.3224 46.4843 32.3592 46.2366ZM31.8081 17.4843C31.9826 17.1173 31.9459 16.7411 31.7897 16.365C31.7622 16.2916 31.6244 16.3191 31.5601 16.3742C31.3213 16.5944 31.3672 17.0072 31.6611 17.4751C31.6703 17.4934 31.7162 17.4843 31.8081 17.4843ZM30.2742 26.5944C30.7702 26.5852 31.11 25.9247 30.8345 25.5026C30.7151 25.31 30.5314 25.2274 30.3201 25.3558C30.1548 25.4476 30.0721 25.6036 30.2191 25.7779C30.2558 25.8237 30.3017 25.8513 30.3385 25.888C30.3385 26.0531 30.2099 26.0439 30.0997 26.0714C29.9435 26.1173 29.8425 26.2182 29.916 26.3925C29.9895 26.5393 30.1181 26.5944 30.2742 26.5944ZM30.2375 49.622C30.2375 49.6128 30.2558 49.5027 30.2375 49.3834C30.1824 49.0623 30.0813 48.677 29.7598 48.6311C29.4292 48.5853 29.3465 48.9798 29.2639 49.2458C29.1996 49.466 29.1536 49.6954 29.1536 49.9247C29.1536 50.2275 29.7323 50.7504 29.9803 50.6678C30.3109 50.5577 30.1456 50.2275 30.1915 49.9889C30.2191 49.9064 30.2191 49.8238 30.2375 49.622ZM29.071 21.0164C29.3924 21.0439 29.6863 20.732 29.668 20.365C29.6312 20.1081 29.5027 19.8971 29.1904 19.8879C28.8873 19.8788 28.6117 20.2182 28.6393 20.5485C28.6576 20.8146 28.7954 20.998 29.071 21.0164ZM27.1421 55.6678C27.583 55.6587 27.9596 55.3284 27.9596 54.9522C27.9504 54.3651 27.6198 53.9431 27.1972 53.9706C26.7747 53.9981 26.389 54.4843 26.4165 54.9706C26.4349 55.3834 26.7472 55.677 27.1421 55.6678ZM26.8298 31.9063C26.8115 31.7045 26.738 31.5302 26.5176 31.576C26.242 31.6311 26.1869 31.8604 26.1777 32.099C26.1777 32.2549 26.2328 32.4201 26.3982 32.4201C26.738 32.4201 26.7931 32.154 26.8298 31.9063ZM25.9573 27.3834C25.9848 27.1081 25.7919 26.9797 25.5164 26.9247C25.3511 26.9338 25.1766 26.9981 25.149 27.1999C25.1031 27.5302 25.296 27.7962 25.4521 28.0715C25.4705 28.1081 25.5623 28.1265 25.5991 28.1081C25.9114 27.9705 25.9297 27.6678 25.9573 27.3834ZM25.1214 36.7412C25.4062 36.5944 25.5256 36.3192 25.3786 35.9981C25.2684 35.7595 25.1857 35.5302 25.25 35.255C25.2868 35.1082 25.2133 34.9522 25.0388 34.943C24.8643 34.9338 24.8275 35.0898 24.754 35.2182C24.5703 35.5485 24.6346 35.8788 24.8092 36.1999C24.5428 36.2825 24.304 36.3008 24.1203 36.4201C23.955 36.521 23.9366 36.7779 24.1203 36.8513C24.4509 36.9889 24.8183 36.9063 25.1214 36.7412ZM24.0192 32.3742C24.0744 32.1448 23.955 31.9522 23.707 31.9522C23.3763 31.9522 23.3947 32.2182 23.3855 32.5118C23.3947 32.6127 23.312 32.8421 23.5508 32.8788C23.909 32.9338 23.9641 32.6219 24.0192 32.3742ZM23.6243 41.5577C23.6335 41.5302 23.6243 41.5027 23.6243 41.4568C23.5968 41.3559 23.5784 41.2366 23.4406 41.2091C23.3855 41.1999 23.3212 41.1999 23.2753 41.2274C23.1008 41.3467 22.7977 42.2458 22.8803 42.4018C22.9263 42.4935 23.0273 42.5302 23.0916 42.4935C23.4222 42.2825 23.5417 41.9247 23.6243 41.5577ZM21.2178 39.2275C21.2454 38.7779 21.0525 38.4843 20.7494 38.521C20.3545 38.5669 20.0514 38.8146 19.8585 39.1357C19.6472 39.4843 19.684 39.8605 19.9044 40.1999C20.0973 40.4935 20.3728 40.5302 20.6484 40.3192C21.0158 40.044 21.1536 39.6311 21.2178 39.2275ZM20.1524 48.3009C20.1983 48.1265 20.18 47.9431 19.9963 47.8605C19.7942 47.7687 19.6748 47.9064 19.5921 48.0715C19.5462 48.1724 19.537 48.2917 19.5003 48.4018C19.4268 48.6403 19.2615 48.8513 19.0227 48.833C18.3797 48.7871 18.444 49.2458 18.3981 49.6311C18.3797 49.7687 18.343 49.9339 18.4991 50.0073C18.6736 50.0899 18.7747 49.9522 18.8298 49.8238C18.9584 49.5302 19.2155 49.4109 19.4635 49.2642C19.8218 49.044 20.0606 48.7137 20.1524 48.3009ZM18.6828 46.044C18.6736 45.833 18.6828 45.5669 18.3889 45.5027C18.1777 45.4568 18.0858 45.622 18.049 45.8054C17.9939 46.099 17.8562 46.0073 17.6908 45.8972C17.5623 45.8054 17.4153 45.7963 17.2959 45.9063C17.1489 46.044 17.1673 46.2275 17.25 46.3926C17.3969 46.6862 17.5806 46.9522 17.9664 46.9247C18.343 46.8972 18.6553 46.5027 18.6828 46.044ZM14.7976 54.255C14.9445 54.2733 15.514 53.7137 15.514 53.5761C15.514 53.4018 15.0088 53.0348 14.7884 53.044C14.5496 53.0623 14.4118 53.3284 14.4486 53.7412C14.4577 53.9798 14.4945 54.2183 14.7976 54.255Z" fill="#13751E"/>
<path d="M49.1046 13.3498C49.0842 13.5072 49.1351 13.7201 48.8805 13.7571C48.6767 13.7849 48.6462 13.609 48.6054 13.4701C48.5749 13.3591 48.5443 13.2387 48.4017 13.1924C48.2489 13.1462 47.9434 13.2295 48.0554 12.9425C48.1471 12.6833 48.4323 12.6463 48.6971 12.7204C49.0231 12.8129 49.0944 13.0628 49.1046 13.3498Z" fill="black"/>
<path d="M48.8253 2.87332C48.8253 2.88248 48.8253 2.89162 48.8162 2.90994C48.807 2.90994 48.807 2.90994 48.7979 2.90994C48.7979 2.90078 48.7978 2.90078 48.807 2.89163C48.8161 2.88247 48.8162 2.88248 48.8253 2.87332Z" fill="#096410"/>
<path d="M46.2218 14.8381C46.2493 15.3696 46.1485 15.7086 46.1485 16.0476C46.1485 16.4599 45.415 17.0647 45.0024 17.0647C44.8282 17.0647 44.7456 16.9456 44.709 16.7898C44.6631 16.6157 44.6998 16.4325 44.8007 16.2859C45.1399 15.7727 45.58 15.3329 46.2218 14.8381Z" fill="black"/>
<path d="M44.7725 20.3997C44.7909 20.7388 44.3966 21.2152 44.1124 21.1877C43.8556 21.1694 43.6814 21.0228 43.6448 20.7571C43.6081 20.4639 44.039 20.0424 44.3966 20.024C44.6258 20.0332 44.7634 20.1615 44.7725 20.3997Z" fill="black"/>
<path d="M43.6176 25.5403C43.6634 25.6869 43.6268 25.8243 43.5718 25.9618C43.4159 26.3374 42.985 26.649 42.7282 26.5757C42.5724 26.5298 42.499 26.4107 42.499 26.2458C42.499 25.9251 43.0033 25.3387 43.2967 25.3112C43.4434 25.3204 43.5626 25.3845 43.6176 25.5403Z" fill="black"/>
<path d="M41.7466 30.0756C41.7924 30.1764 41.7924 30.2955 41.8016 30.3505C41.7924 30.9461 41.4623 31.34 40.9947 31.3675C40.848 31.3767 40.6922 31.3675 40.6372 31.1935C40.5821 31.0285 40.6738 30.9094 40.8297 30.8544C41.1231 30.7628 41.4532 30.6987 41.1139 30.2955C40.9214 30.0664 40.9305 29.8465 41.1781 29.7182C41.4898 29.5716 41.6365 29.8282 41.7466 30.0756Z" fill="black"/>
<path d="M41.3532 23.4236C41.5732 23.6344 41.6007 23.8818 41.454 24.1292C41.3073 24.3674 41.1239 24.5873 40.8856 24.8988C40.5738 24.514 40.4913 24.1658 40.5371 23.781C40.5738 23.5244 40.638 23.2587 40.9314 23.1762C41.1331 23.1213 41.234 23.3045 41.3532 23.4236Z" fill="black"/>
<path d="M39.9407 30.3048C40.1699 30.8729 39.6748 30.7354 39.3723 30.7538C38.9505 30.7813 38.6938 30.5613 38.6755 30.1948C38.6663 30.0757 38.6938 29.9566 38.813 29.9108C38.9138 29.8741 39.0422 29.8925 39.1339 29.8467C39.3448 29.7275 39.4089 29.3335 39.7298 29.4802C40.0691 29.6268 39.9132 29.9749 39.9407 30.3048Z" fill="black"/>
<path d="M38.6568 27.2537C38.7026 27.3087 38.721 27.4186 38.7026 27.4919C38.611 27.7943 38.5101 28.0875 38.3817 28.3807C38.3451 28.4815 38.2259 28.6281 38.1617 28.6189C37.5016 28.5365 37.5291 29.0221 37.5291 29.5535C37.0065 28.6831 37.0248 28.6189 37.5841 28.0875C37.85 27.8309 38.0884 27.5377 38.3542 27.272C38.4368 27.1804 38.5651 27.1529 38.6568 27.2537Z" fill="black"/>
<path d="M38.4002 33.8142C38.6019 33.9883 38.5744 34.2357 38.501 34.4647C38.4185 34.7488 38.2535 35.0236 37.9876 35.1428C37.63 35.3169 37.4558 35.6284 37.2266 36.0774C37.0157 35.5643 37.0524 35.2161 37.0799 34.8771C37.1166 34.4556 37.3183 34.0982 37.6759 33.86C37.9142 33.7042 38.1618 33.6034 38.4002 33.8142Z" fill="black"/>
<path d="M36.0443 32.8062C36.3286 32.8245 36.3653 33.0902 36.4019 33.301C36.3194 33.6675 36.2186 33.9973 36.0169 34.2814C35.9527 34.373 35.861 34.4646 35.7234 34.4096C35.5859 34.3638 35.5768 34.2356 35.6043 34.1256C35.6776 33.8416 35.7326 33.5667 35.6868 33.2735C35.6593 33.0444 35.7326 32.7878 36.0443 32.8062Z" fill="black"/>
<path d="M35.8424 37.1492C36.0624 37.2409 36.1083 37.4516 36.0807 37.6532C36.0624 37.8181 36.0349 38.0289 35.9249 38.1388C35.6682 38.4137 35.5856 38.7802 35.3564 39.1925C35.0355 38.5328 34.9988 37.9647 35.2647 37.3966C35.3747 37.1767 35.5765 37.0393 35.8424 37.1492Z" fill="black"/>
<path d="M35.2833 12.2723C35.4758 12.364 35.6592 12.4739 35.6225 12.7213C35.5767 13.0053 35.3475 13.0603 35.0999 13.0695C35.0724 13.0695 35.0357 13.0787 35.0174 13.0695C34.5773 12.8587 34.1647 12.9412 33.7246 13.2986C34.0088 12.3731 34.669 11.9791 35.2833 12.2723Z" fill="black"/>
<path d="M34.715 17.5961C34.7517 17.8893 34.5042 18.21 34.2199 18.2283C33.9815 18.2191 33.9082 18.0359 33.9082 17.816C33.9082 17.5411 33.9815 17.2754 34.3116 17.2387C34.5408 17.2204 34.6875 17.3578 34.715 17.5961Z" fill="black"/>
<path d="M33.779 42.4638C33.8523 42.5187 33.9165 42.6012 33.8524 42.6837C33.8065 42.7386 33.7148 42.7936 33.6415 42.7936C33.1739 42.7845 32.5962 42.3263 32.4679 41.8865C32.3945 41.6483 32.422 41.4192 32.5687 41.2268C32.7521 40.9611 33.018 40.8603 33.3297 40.9977C33.5681 41.1077 33.6598 41.3184 33.5956 41.575C33.4948 41.9598 33.1922 41.7766 32.8988 41.7491C33.1097 42.2347 33.5039 42.2622 33.779 42.4638Z" fill="black"/>
<path d="M33.2573 37.0669C33.2665 37.241 33.239 37.4151 33.0373 37.4793C32.8998 37.4793 32.808 37.3968 32.7897 37.2777C32.7622 37.0669 32.7897 36.8654 33.0556 36.8379C33.2115 36.8195 33.2482 36.957 33.2573 37.0669Z" fill="black"/>
<path d="M32.7158 21.6369C32.7249 21.8843 32.2848 22.5348 32.0556 22.5715C31.8631 22.6081 31.7989 22.4615 31.8264 22.3058C31.8722 22.0309 32.0464 21.7835 32.0464 21.4903C32.0556 21.2887 32.2298 21.2062 32.4223 21.2612C32.6149 21.307 32.7066 21.4445 32.7158 21.6369Z" fill="black"/>
<path d="M32.303 10.8249C32.3122 11.1456 32.083 11.2739 31.9454 11.4388C28.984 14.939 26.4717 18.7324 24.6105 22.9381C23.7945 24.7706 22.896 26.5665 22.0708 28.3899C21.8507 28.8755 21.5665 29.1046 21.0256 29.1046C20.2096 29.1046 19.4027 29.0863 18.5959 28.9488C17.9082 28.8297 17.2206 28.7381 16.5146 28.7473C15.341 28.7564 14.2591 28.509 13.1772 27.9501C11.0776 26.878 9.50974 25.3204 8.34532 23.3229C7.08921 21.1605 7.40093 18.2101 8.90459 16.1851C10.1607 14.4992 11.7652 13.4271 13.7456 12.8132C14.8826 12.4559 15.992 12.0069 17.1014 11.5762C18.2016 11.1456 19.3202 10.9349 20.5029 10.944C23.6753 10.9532 26.8293 10.5958 30.0017 10.7424C30.7535 10.7699 31.5237 10.7974 32.303 10.8249ZM29.5799 12.5017C29.6074 12.0527 29.314 11.787 28.8648 11.9153C28.4063 12.0435 28.0579 12.3551 27.792 12.7491C27.6728 12.9232 27.572 13.1339 27.7829 13.2897C28.0213 13.4729 28.223 13.3263 28.3513 13.1156C28.498 12.8774 28.5255 12.5475 28.9473 12.52C29.0115 12.7399 28.8923 12.8407 28.8281 12.969C28.7089 13.198 28.2688 13.4363 28.6356 13.6654C28.9015 13.8394 29.1123 13.4363 29.2774 13.2164C29.4424 13.0056 29.5616 12.7766 29.5799 12.5017ZM27.6912 15.7728C27.682 15.5529 27.6087 15.3421 27.3153 15.3147C27.0127 15.2872 26.6276 15.6445 26.6276 15.9652C26.6276 16.2584 26.8018 16.3684 27.0769 16.3684C27.462 16.3684 27.682 16.1668 27.6912 15.7728ZM25.6832 13.6012C25.9583 13.6379 26.0317 13.4363 26.0133 13.2072C25.995 12.9598 25.8666 12.6849 25.6007 12.7857C25.2615 12.914 24.9314 12.859 24.6014 12.8957C24.3813 12.9232 24.1521 13.0881 24.1888 13.3722C24.2163 13.6104 24.4455 13.5371 24.6014 13.5646C24.7664 13.592 24.9314 13.6562 25.1148 13.7112C25.2798 13.5921 25.4724 13.5737 25.6832 13.6012ZM23.8495 16.4508C23.8587 16.0752 23.6478 15.8094 23.3269 15.7911C22.9051 15.7636 22.3825 16.3134 22.41 16.7532C22.4284 17.0189 22.5751 17.1747 22.841 17.1838C23.3086 17.193 23.8403 16.8082 23.8495 16.4508ZM21.1173 13.3263C21.1264 13.1248 20.668 12.8957 20.4204 12.9507C20.1362 13.024 19.9712 13.2347 20.0078 13.5187C20.0445 13.7936 20.2554 13.7936 20.5305 13.6837C20.7138 13.6195 21.1081 13.7753 21.1173 13.3263ZM18.7426 17.5229C19.0543 17.5504 19.6961 16.9181 19.6686 16.6066C19.6411 16.2951 19.4394 16.0752 19.1185 16.0477C18.7793 16.011 18.4308 16.4142 18.3942 16.8631C18.3575 17.1747 18.4125 17.4404 18.7426 17.5229ZM17.0831 13.3996C17.0922 13.0148 16.7805 12.8132 16.4504 12.9781C16.1295 13.1431 15.7719 13.7662 15.8086 14.1327C15.8361 14.3526 15.937 14.5267 16.1937 14.4717C16.5237 14.4075 17.0831 13.7203 17.0831 13.3996ZM13.0672 16.1301C13.3056 16.1576 13.9015 15.5071 13.8924 15.2413C13.874 15.0489 13.7823 14.9023 13.5898 14.8748C13.3239 14.8473 13.1497 15.0123 13.0397 15.223C12.9021 15.4796 12.7554 15.7361 12.9388 16.0293C12.9571 16.0843 13.0213 16.1301 13.0672 16.1301ZM9.83064 21.6461C11.591 21.9943 13.3239 22.4708 15.1118 22.5624C14.4883 22.1776 10.5825 21.472 9.83064 21.6461ZM12.0861 19.4562C10.7475 19.3829 8.64788 20.1526 8.27196 20.8306C9.48223 20.2076 10.8484 20.0151 12.0861 19.4562Z" fill="#096410"/>
<path d="M31.9913 45.5242C32.2572 45.6616 32.3122 45.9273 32.2664 46.193C32.2297 46.4313 32.1013 46.6787 31.8538 46.697C31.5054 46.7245 31.3128 46.9444 31.0194 47.2926C30.8452 46.5321 31.0286 46.0831 31.4595 45.7257C31.6154 45.6158 31.7621 45.405 31.9913 45.5242Z" fill="black"/>
<path d="M31.6984 16.3591C31.8543 16.7348 31.8909 17.1105 31.7167 17.477C31.625 17.477 31.5792 17.4861 31.57 17.4678C31.2675 17.0005 31.2308 16.5882 31.4692 16.3683C31.5425 16.3133 31.6709 16.295 31.6984 16.3591Z" fill="black"/>
<path d="M30.7446 25.4851C31.0197 25.9158 30.6713 26.5663 30.1853 26.5755C30.0295 26.5755 29.9011 26.5205 29.8369 26.3739C29.7636 26.209 29.8644 26.099 30.0203 26.0532C30.1211 26.0257 30.2587 26.0349 30.2587 25.87C30.222 25.8333 30.1762 25.7967 30.1395 25.76C29.9928 25.5768 30.0753 25.4302 30.2404 25.3385C30.4421 25.2103 30.6254 25.2927 30.7446 25.4851Z" fill="black"/>
<path d="M30.1483 49.345C30.1666 49.455 30.1483 49.5741 30.1483 49.5833C30.1208 49.7757 30.1208 49.8673 30.1025 49.9498C30.0566 50.188 30.2217 50.5179 29.8916 50.6278C29.6532 50.7103 29.0756 50.188 29.0664 49.8856C29.0664 49.6566 29.1122 49.4275 29.1764 49.2076C29.2589 48.9419 29.3323 48.5479 29.6715 48.5937C30.0016 48.6395 30.1025 49.0243 30.1483 49.345Z" fill="black"/>
<path d="M28.8739 11.915C29.314 11.7867 29.6166 12.0525 29.5891 12.5014C29.5707 12.7672 29.4515 13.0054 29.2957 13.207C29.1306 13.4269 28.9198 13.83 28.6539 13.6559C28.2963 13.4177 28.7272 13.1887 28.8464 12.9596C28.9106 12.8313 29.0206 12.7305 28.9656 12.5106C28.5438 12.5381 28.5163 12.8679 28.3696 13.1062C28.2413 13.3169 28.0396 13.4635 27.8012 13.2803C27.5903 13.1245 27.6912 12.9138 27.8104 12.7397C28.0671 12.3548 28.4063 12.0433 28.8739 11.915Z" fill="black"/>
<path d="M29.5799 20.3632C29.5982 20.7297 29.3048 21.032 28.9839 21.0137C28.7089 20.9954 28.5805 20.8121 28.553 20.5556C28.5163 20.2257 28.8006 19.8867 29.1031 19.8958C29.4149 19.8867 29.5432 20.1066 29.5799 20.3632Z" fill="black"/>
<path d="M27.8747 54.9068C27.8839 55.2825 27.508 55.6123 27.0587 55.6215C26.6645 55.6307 26.3527 55.3375 26.3344 54.9251C26.3069 54.4487 26.692 53.9539 27.1137 53.9264C27.5355 53.8989 27.8656 54.3204 27.8747 54.9068ZM27.3521 54.7327C27.3613 54.5861 27.3063 54.4487 27.1412 54.4303C27.0129 54.412 26.9212 54.4853 26.9212 54.6228C26.9212 54.7694 26.9945 54.8885 27.1412 54.9435C27.2696 54.9343 27.343 54.8518 27.3521 54.7327Z" fill="black"/>
<path d="M27.3068 15.3144C27.6002 15.3419 27.6735 15.5526 27.6827 15.7726C27.6827 16.1666 27.4626 16.3681 27.0684 16.3681C26.8025 16.3681 26.6191 16.249 26.6191 15.965C26.6191 15.6534 27.0042 15.2869 27.3068 15.3144Z" fill="black"/>
<path d="M27.141 54.4302C27.306 54.4486 27.3702 54.586 27.3518 54.7326C27.3427 54.8517 27.2693 54.9342 27.141 54.9342C26.9851 54.8792 26.9209 54.7601 26.9209 54.6135C26.9209 54.4852 27.0126 54.4119 27.141 54.4302Z" fill="#096410"/>
<path d="M26.435 31.5509C26.655 31.5051 26.7283 31.6792 26.7467 31.8808C26.71 32.1282 26.655 32.403 26.3158 32.3939C26.1599 32.3939 26.0957 32.2289 26.0957 32.0732C26.1049 31.8258 26.1691 31.5967 26.435 31.5509Z" fill="black"/>
<path d="M26.014 13.2071C26.0323 13.427 25.959 13.6286 25.6839 13.6011C25.473 13.5736 25.2805 13.5919 25.1155 13.7019C24.9321 13.6469 24.7671 13.5828 24.602 13.5553C24.437 13.5278 24.2169 13.6011 24.1894 13.3628C24.1528 13.0788 24.382 12.9139 24.602 12.8864C24.9321 12.8497 25.2622 12.9047 25.6014 12.7764C25.8673 12.6848 25.9957 12.9597 26.014 13.2071Z" fill="black"/>
<path d="M25.4359 26.9053C25.7109 26.9511 25.9035 27.0886 25.876 27.3635C25.8485 27.6384 25.8301 27.9499 25.5184 28.0873C25.4817 28.1056 25.39 28.0782 25.3717 28.0507C25.225 27.7758 25.0233 27.5101 25.0691 27.1802C25.0966 26.9786 25.2617 26.9145 25.4359 26.9053Z" fill="black"/>
<path d="M25.2986 35.9765C25.4361 36.2881 25.3261 36.563 25.0418 36.7187C24.7393 36.8837 24.3817 36.9661 24.0516 36.8195C23.8683 36.7462 23.8866 36.4897 24.0516 36.3889C24.235 36.2789 24.4734 36.2514 24.7393 36.169C24.5651 35.8391 24.5009 35.5184 24.6843 35.1885C24.7576 35.0603 24.7943 34.9045 24.9685 34.9137C25.1427 34.9228 25.216 35.0786 25.1794 35.2252C25.1152 35.5001 25.1885 35.7291 25.2986 35.9765Z" fill="black"/>
<path d="M23.6293 31.9357C23.8768 31.9357 23.996 32.1281 23.941 32.3572C23.886 32.5954 23.831 32.9161 23.4734 32.8703C23.235 32.8428 23.3176 32.6046 23.3084 32.5038C23.3176 32.2014 23.2992 31.9357 23.6293 31.9357Z" fill="black"/>
<path d="M23.3177 15.7818C23.6386 15.8001 23.8495 16.0658 23.8403 16.4415C23.8312 16.7989 23.2994 17.1929 22.8318 17.1745C22.5567 17.1654 22.41 17.0096 22.4009 16.7439C22.3825 16.3041 22.896 15.7635 23.3177 15.7818Z" fill="black"/>
<path d="M23.5477 41.4282C23.5477 41.4649 23.5568 41.5015 23.5477 41.529C23.4651 41.8955 23.3459 42.2437 23.0159 42.4728C22.9517 42.5094 22.8508 42.4728 22.805 42.3811C22.7225 42.2254 23.025 41.3274 23.1992 41.2083C23.2359 41.1808 23.3093 41.1808 23.3643 41.19C23.5018 41.2083 23.5202 41.3274 23.5477 41.4282Z" fill="black"/>
<path d="M20.677 38.4872C20.9795 38.4505 21.1721 38.7438 21.1446 39.1927C21.0712 39.5959 20.9428 40.0082 20.5761 40.2831C20.301 40.4847 20.026 40.4572 19.8335 40.164C19.6134 39.8341 19.5767 39.4493 19.7876 39.1011C19.9802 38.7804 20.2827 38.5422 20.677 38.4872Z" fill="black"/>
<path d="M20.4208 12.9597C20.6684 12.8955 21.1268 13.1337 21.1177 13.3353C21.1085 13.7843 20.7142 13.6285 20.5217 13.6927C20.2466 13.8026 20.0357 13.8026 19.9991 13.5277C19.9716 13.2345 20.1366 13.033 20.4208 12.9597Z" fill="black"/>
<path d="M20.3016 65.5629C20.3841 65.6546 20.4208 65.7737 20.3291 65.8745C20.2557 65.957 20.1549 66.0302 20.0632 66.0944C19.5314 66.3968 19.0088 66.7175 18.4587 66.974C17.716 67.3222 17.3493 67.2947 16.4141 66.9099C16.7258 66.5709 16.8175 66.2227 16.8175 65.8287C16.8175 65.6637 16.8175 65.4438 17.0834 65.4805C17.2484 65.4988 17.3126 65.6271 17.3126 65.792C17.3034 66.0119 17.1384 66.2868 17.4318 66.4151C17.771 66.5617 17.9544 66.2593 18.1561 66.0577C18.4037 65.8104 18.6237 65.5446 18.8896 65.2422C19.0363 65.453 18.8529 65.8012 19.1555 65.9111C19.4122 66.0028 19.6047 65.8562 19.7973 65.7279C19.8981 65.6637 19.9898 65.5904 20.0815 65.5263C20.1457 65.4988 20.2374 65.4896 20.3016 65.5629Z" fill="#096410"/>
<path d="M19.9259 47.8148C20.1093 47.8972 20.1276 48.0805 20.0818 48.2546C19.9809 48.6669 19.7517 48.9876 19.3941 49.2075C19.1466 49.3633 18.8898 49.4824 18.7615 49.7664C18.7065 49.8947 18.6056 50.0322 18.4314 49.9497C18.2664 49.8764 18.3031 49.7115 18.3306 49.574C18.3764 49.1892 18.3122 48.731 18.954 48.7769C19.2016 48.7952 19.3575 48.5844 19.4308 48.3462C19.4675 48.2363 19.4766 48.1171 19.5225 48.0163C19.605 47.8606 19.7242 47.7231 19.9259 47.8148Z" fill="black"/>
<path d="M21.2821 30.0574C20.026 32.678 19.0083 35.2802 17.5872 37.6808C16.6978 39.1835 15.7443 40.6404 14.9374 42.1889C14.3598 43.2884 14.0297 44.5162 13.6997 45.7166C13.5896 46.1381 13.4979 46.5687 13.3788 46.981C13.2137 47.5216 13.0853 47.5766 12.5719 47.3292C12.471 47.2742 12.3702 47.2192 12.2694 47.1459C10.0047 45.5333 8.04261 43.6458 6.4931 41.291C5.42037 39.6508 4.82439 38.0015 5.1728 36.0499C5.18197 36.0224 5.18198 35.9949 5.18198 35.9582C5.02611 33.6126 6.07134 31.89 7.97842 30.598C8.86778 29.9933 9.74796 29.3794 10.6923 28.8662C11.5542 28.3989 12.4252 28.289 13.3604 28.738C14.2865 29.1778 15.3042 29.3061 16.3311 29.3336C17.9631 29.3885 19.5676 29.6542 21.2821 30.0574ZM18.2748 34.8312C18.3115 34.6571 18.2931 34.4464 18.0731 34.4464C17.8164 34.4555 17.8072 34.6938 17.7889 34.9045C17.7981 35.0603 17.7155 35.2985 17.9539 35.3168C18.2932 35.3535 18.2382 35.0328 18.2748 34.8312ZM17.5322 32.7513C17.5322 32.4397 17.6147 32.1099 17.4405 31.8167C17.3121 31.5968 17.1196 31.4685 16.8628 31.5601C16.5053 31.6792 16.2852 31.9816 16.1935 32.3115C16.111 32.6047 16.3952 32.568 16.6061 32.568C16.9178 32.568 16.927 32.8429 17.0004 33.0536C17.0646 33.2461 17.0737 33.5301 17.3121 33.5026C17.6239 33.466 17.5047 33.1453 17.5322 32.9345C17.5322 32.8704 17.5322 32.8154 17.5322 32.7513ZM15.5059 36.6546C15.5242 36.2514 15.295 35.9857 14.9558 35.9949C14.644 36.004 14.2498 36.3431 14.2223 36.6363C14.2039 36.8012 14.7999 37.2044 15.0841 37.1952C15.4325 37.1769 15.46 36.8928 15.5059 36.6546ZM14.3139 34.3822C14.5615 34.2356 14.6532 33.9974 14.6715 33.75C14.6715 33.2186 14.1673 32.8246 13.663 32.9345C13.3146 33.017 12.9753 33.4018 12.9753 33.7317C12.9753 34.1348 13.2779 34.0615 13.5255 34.0799C13.5896 34.0799 13.663 34.1715 13.718 34.2356C13.883 34.4281 14.0664 34.5288 14.3139 34.3822Z" fill="#096410"/>
<path d="M19.6687 16.6063C19.6962 16.9179 19.0452 17.5501 18.7427 17.5226C18.4126 17.4401 18.3576 17.1652 18.3851 16.8629C18.4218 16.4047 18.7702 16.0107 19.1094 16.0474C19.4395 16.084 19.6412 16.2948 19.6687 16.6063Z" fill="black"/>
<path d="M18.3214 45.4693C18.6148 45.5334 18.6056 45.7899 18.6147 46.0098C18.5872 46.468 18.2755 46.862 17.8996 46.8895C17.5145 46.9261 17.3311 46.6604 17.1844 46.358C17.1111 46.1931 17.0927 46.0098 17.2303 45.8724C17.3495 45.7533 17.4962 45.7716 17.6245 45.8632C17.7896 45.9732 17.9271 46.0648 17.9821 45.7716C18.0188 45.5884 18.1196 45.4234 18.3214 45.4693Z" fill="black"/>
<path d="M18.074 34.4464C18.294 34.4464 18.3124 34.648 18.2757 34.8312C18.2299 35.0328 18.2849 35.3535 17.9456 35.3168C17.7164 35.2985 17.7898 35.0603 17.7806 34.9045C17.8173 34.7029 17.8173 34.4555 18.074 34.4464Z" fill="black"/>
<path d="M17.4407 31.8167C17.6149 32.1099 17.5232 32.4397 17.5324 32.7512C17.5324 32.8062 17.5416 32.8704 17.5324 32.9253C17.5141 33.1361 17.6333 33.4568 17.3123 33.4934C17.074 33.5209 17.0556 33.2277 17.0006 33.0445C16.9273 32.8337 16.9181 32.5588 16.6063 32.5588C16.3955 32.5588 16.1204 32.5955 16.1938 32.3023C16.2854 31.9724 16.4963 31.67 16.8631 31.5509C17.1198 31.4776 17.3123 31.5967 17.4407 31.8167Z" fill="black"/>
<path d="M16.4599 12.9872C16.79 12.8223 17.0925 13.0238 17.0925 13.4087C17.0925 13.7202 16.5332 14.4166 16.2123 14.4899C15.9556 14.5448 15.8456 14.3708 15.8272 14.1508C15.7814 13.7752 16.139 13.1429 16.4599 12.9872Z" fill="black"/>
<path d="M14.9566 35.9948C15.2866 35.9856 15.5159 36.2605 15.5067 36.6545C15.4608 36.8927 15.4333 37.1768 15.0849 37.1951C14.8007 37.2043 14.2047 36.8011 14.2231 36.6362C14.2506 36.3429 14.6448 35.9948 14.9566 35.9948Z" fill="black"/>
<path d="M15.4517 53.5232C15.4517 53.6607 14.8832 54.2196 14.7365 54.2013C14.4339 54.1646 14.3973 53.9264 14.3789 53.6882C14.3423 53.2758 14.4798 53.0101 14.7182 52.9918C14.9474 52.9826 15.4425 53.3491 15.4517 53.5232Z" fill="black"/>
<path d="M14.6718 33.75C14.6535 33.9974 14.5618 34.2357 14.3142 34.3823C14.0666 34.5289 13.8833 34.4281 13.7182 34.2357C13.6632 34.1715 13.5991 34.0799 13.5257 34.0799C13.269 34.0616 12.9756 34.144 12.9756 33.7317C12.9756 33.4019 13.3148 33.017 13.6632 32.9346C14.1675 32.8246 14.6626 33.2094 14.6718 33.75Z" fill="black"/>
<path d="M13.8922 15.2504C13.9014 15.5162 13.3054 16.1667 13.067 16.1392C13.0212 16.1301 12.957 16.0842 12.9295 16.0476C12.7553 15.7544 12.8928 15.4887 13.0303 15.2413C13.1404 15.0305 13.3146 14.8656 13.5805 14.8931C13.7822 14.9022 13.8739 15.058 13.8922 15.2504Z" fill="black"/>
<path d="M15.1122 22.5623C13.3152 22.4707 11.5823 21.9943 9.83105 21.6461C10.5829 21.472 14.4887 22.1775 15.1122 22.5623Z" fill="black"/>
<path d="M8.27246 20.8306C8.64838 20.1525 10.748 19.3829 12.0866 19.4562C10.8489 20.0151 9.48272 20.2075 8.27246 20.8306Z" fill="black"/>
<path d="M6.27378 21.7741C6.91559 21.7008 6.92476 21.7741 6.8239 22.4888C6.23711 22.1131 6.24629 22.1223 5.82453 22.7545C5.66866 22.9927 5.46695 23.2493 5.13688 22.9194C4.79764 22.5896 4.40337 22.6262 3.99995 22.7728C3.58736 22.9194 3.27564 23.1302 3.42234 23.6708C3.46819 23.8357 3.28481 23.8999 3.14728 23.9365C2.94557 23.9915 2.94556 23.8357 2.88138 23.6983C2.5238 22.8003 2.51463 22.7637 3.4315 22.4521C4.35753 22.1589 5.31107 21.8841 6.27378 21.7741Z" fill="#096410"/>
<path d="M6.6864 20.7572C6.69557 20.9221 6.70474 21.1054 6.54887 21.2337C6.38383 21.362 6.25548 21.3436 6.09961 21.197C5.96208 21.0596 5.79703 20.9496 5.60449 20.7939C5.83371 20.5373 6.07209 20.5556 6.29214 20.5465C6.45718 20.5465 6.66806 20.5098 6.6864 20.7572Z" fill="#096410"/>
</svg>
