<svg width="88" height="60" viewBox="0 0 88 60" fill="none" xmlns="http://www.w3.org/2000/svg">
<path d="M87.4978 19.0695C87.8515 21.6166 87.8723 24.1013 87.0089 26.5549C86.6656 27.5425 86.5304 28.603 86.1143 29.5698C85.4174 31.2229 84.3355 32.6264 83.1809 33.9779C82.8376 34.3729 82.4631 34.7472 82.1302 35.1527C80.6219 37.0136 78.6558 38.1364 76.3465 38.677C74.7134 39.0513 73.1738 39.7375 71.5303 40.091C69.7827 40.4652 68.0455 40.7147 66.2563 40.6108C65.3825 40.5588 65.2473 40.7251 65.3097 41.6296C65.3617 42.295 65.5593 42.9188 65.7674 43.5426C66.121 44.6342 66.2147 45.7154 65.9754 46.8382C65.7154 48.065 66.017 49.1982 66.714 50.2066C67.9519 52.0052 69.637 53.3048 71.4886 54.386C72.4561 54.9474 73.5067 54.6459 74.1829 53.7206C74.5781 53.18 74.7966 52.5458 74.911 51.9013C75.3791 48.9799 76.7002 46.3496 77.7612 43.6361C78.0005 43.0228 78.323 42.3678 79.1135 42.3782C80.0185 42.3886 80.8715 42.6173 81.5269 43.3138C81.7661 43.5738 81.7765 43.9168 81.7557 44.2495C81.7245 44.8213 81.5373 45.3515 81.2564 45.8298C80.8507 46.5471 80.5491 47.3061 80.2994 48.0962C79.9353 49.2294 79.4568 50.3002 78.8743 51.3295C78.2085 52.5043 77.626 53.7206 77.1267 54.9682C76.6274 56.2366 75.816 57.3074 74.963 58.3574C74.3805 59.0748 73.6835 59.3243 72.7785 58.9812C71.8839 58.6485 70.9269 58.5446 70.0011 58.3158C67.8166 57.796 65.9234 56.7044 64.2694 55.1865C63.7909 54.7395 63.3332 54.2612 62.7403 53.9597C61.8457 53.5023 60.8471 53.4607 59.9005 53.2424C59.2763 53.0968 58.6834 53.4607 58.2049 53.887C57.1855 54.781 56.01 55.436 54.8241 56.0702C53.2638 56.8915 51.6098 57.3282 49.8726 57.6089C47.3657 58.0039 44.8587 58.1807 42.3206 58.2015C41.0099 58.2119 39.7096 58.451 38.3989 58.5757C35.7359 58.8253 33.0937 58.7837 30.4619 58.2222C28.5063 57.8064 26.509 57.5881 24.6366 56.8084C18.6241 54.3236 12.8924 51.3814 8.14895 46.7862C7.60803 46.256 7.0463 45.7466 6.6094 45.1332C4.57055 42.295 2.79174 39.3216 1.91795 35.8804C1.28341 33.3957 0.596864 30.9318 0.316002 28.3742C0.232783 27.6569 0.201581 26.9395 0.191179 26.2118C0.0975582 24.7771 0.388823 23.4048 0.919341 22.074C1.35624 20.972 1.68911 19.8388 2.21963 18.7784C2.76055 17.7075 3.47831 16.7927 4.42492 16.0337C5.63159 15.0669 6.80705 14.0584 8.14895 13.2891C8.54424 13.0604 8.93952 12.8005 9.36602 12.6549C10.7599 12.1871 12.1747 11.74 13.5894 11.345C14.8584 10.9811 16.0755 10.5028 17.303 10.035C17.4278 9.99342 17.5839 9.95184 17.6463 9.85827C18.104 9.22409 18.7073 8.9642 19.4875 9.01618C19.7683 9.03697 19.9036 8.71467 20.0492 8.50674C21.027 7.00966 22.4729 6.022 23.8668 4.99276C24.8134 4.2962 25.9785 4.09867 27.1332 4.0051C28.5791 3.89074 30.0042 3.63084 31.4085 3.28776C32.896 2.92389 34.394 2.88231 35.9023 2.77835C38.2221 2.6224 40.5626 2.52882 42.7679 1.64513C43.3504 1.41641 43.9745 1.31245 44.6091 1.33324C45.7637 1.38522 46.8976 1.2085 48.0522 1.11493C52.3172 0.761452 56.5821 0.699053 60.8159 1.50997C61.1696 1.58275 61.5232 1.64514 61.8665 1.7595C63.4164 2.27932 64.9768 2.74715 66.6308 2.78873C66.8908 2.79913 67.1509 2.88231 67.4005 2.95508C69.533 3.61006 71.6967 4.18184 73.798 4.94078C78.687 6.71856 82.7232 9.66074 85.615 14.0376C86.5824 15.5763 87.2482 17.2189 87.4978 19.0695ZM86.52 25.5152C86.9673 24.0182 87.0297 22.5003 86.9569 20.9408C86.8008 18.0194 85.8334 15.4515 84.0338 13.1539C81.3188 9.71272 77.8549 7.31116 73.7772 5.7517C71.6031 4.91999 69.325 4.37937 67.0989 3.69321C66.8804 3.62044 66.6516 3.58926 66.4227 3.57887C64.9456 3.50609 63.5101 3.26697 62.137 2.68477C61.7105 2.50803 61.2632 2.39368 60.8159 2.31051C57.6744 1.69713 54.5017 1.55157 51.3082 1.67632C49.0092 1.76989 46.7311 2.15455 44.4322 2.13375C43.9017 2.12336 43.3816 2.22734 42.8927 2.41448C40.5314 3.35015 38.0244 3.44371 35.5383 3.57887C34.2276 3.65164 32.9169 3.7452 31.6374 4.0363C30.3579 4.3274 29.068 4.71206 27.7677 4.71206C24.7614 4.73286 22.8162 6.54184 20.9646 8.54834C20.6421 8.90182 20.4029 9.32806 20.0388 9.83749C21.4327 9.94145 22.5978 10.3573 23.7836 10.742C25.0007 11.137 26.2074 11.5737 27.3724 12.1039C32.1471 14.2663 36.6513 16.8862 40.833 20.0467C41.4364 20.5042 42.0501 20.9616 42.5806 21.4918C44.1826 23.1137 46.003 24.4652 47.8754 25.744C49.0092 26.5237 50.1327 27.3242 51.1937 28.2079C52.6293 29.4035 54.1272 30.5263 55.6251 31.6595C58.2465 33.6348 60.9095 35.5685 63.2812 37.8453C63.7805 38.3236 64.4047 38.6771 64.7583 39.28C65.0704 39.8207 65.5073 39.9246 66.0586 39.9662C68.5968 40.143 71.031 39.6855 73.4235 38.885C74.4221 38.5523 75.4207 38.2404 76.4402 37.9805C78.2294 37.5231 79.7897 36.6394 81.0796 35.319C81.7661 34.6121 82.4007 33.8531 83.0144 33.0942C84.2003 31.6387 85.2925 30.1208 85.8022 28.2703C86.0207 27.345 86.2495 26.4197 86.52 25.5152ZM81.0068 44.1767C81.0068 43.9896 80.934 43.8233 80.7363 43.8545C80.3514 43.9168 79.9353 43.896 79.6232 44.1767C79.54 44.2495 79.3632 44.3535 79.5401 44.4782C79.7377 44.6134 79.9665 44.7278 79.8105 45.0085C79.6961 45.2164 79.4464 45.2684 79.2384 45.3515C78.8015 45.5283 78.2918 45.5907 78.0213 46.1001C78.3854 46.2248 78.635 46.0377 78.9055 45.9441C79.2384 45.8194 79.5817 45.6946 79.9249 45.601C80.2266 45.5179 80.5907 45.6322 80.7363 45.206C80.8507 44.8733 81.0068 44.551 81.0068 44.1767ZM79.6024 47.1605C79.9353 47.1813 79.9457 46.8486 80.0082 46.464C79.1032 46.6823 78.2814 46.7966 77.5636 47.6491C78.3542 47.4412 78.9367 47.1189 79.6024 47.1605ZM78.531 44.2287C78.9679 43.9688 79.4048 43.7505 79.8521 43.3242C78.7911 43.0955 78.531 43.2827 78.531 44.2287ZM78.9159 49.4581C79.2072 49.0838 79.332 48.6472 79.4256 47.9818C78.5934 48.4912 77.7196 48.3665 77.0019 48.9591C77.4804 49.1566 77.8549 49.0215 78.2189 48.9903C78.6038 48.9487 78.8223 49.1046 78.9159 49.4581L78.9055 49.4685C78.9055 49.4789 78.9055 49.4893 78.8951 49.4997C77.9797 50.1547 76.8666 50.5601 76.0344 51.4646C76.669 51.7245 77.1787 51.3399 77.6988 51.4854C77.8861 51.5374 77.9901 51.3606 78.0629 51.2151C78.3542 50.6537 78.7599 50.1339 78.8951 49.4893C78.9055 49.4789 78.9159 49.4789 78.9159 49.4685C78.9159 49.4789 78.9159 49.4685 78.9159 49.4581ZM77.3243 52.3587C76.9395 52.4627 76.6274 52.6602 76.2529 53.0137C77.1579 53.0968 77.1579 53.0968 77.3243 52.3587ZM76.7314 49.9051C76.7418 49.8324 76.6482 49.7388 76.669 49.7596C76.1905 49.6452 76.1489 49.8844 76.1073 50.1235C76.0865 50.2274 76.1281 50.3626 76.2425 50.321C76.4505 50.2378 76.6794 50.1651 76.7314 49.9051ZM76.2737 55.041C76.3985 54.7811 76.4818 54.5108 76.6378 54.1365C76.1905 54.1677 75.9408 54.4068 75.712 54.6355C75.5352 54.8122 75.5872 54.9786 75.7952 55.1033C75.9617 55.1969 76.1489 55.2801 76.2737 55.041ZM75.3167 54.0325C75.4415 53.9182 75.5559 53.783 75.3583 53.6375C75.2127 53.5335 75.1191 53.6582 75.0566 53.7622C74.8902 54.0325 74.7342 54.3028 74.5677 54.5731C74.5573 54.5731 74.5469 54.5731 74.5469 54.5731C74.5469 54.5835 74.5469 54.5835 74.5469 54.5939C73.8812 55.0202 73.2154 55.4568 72.352 55.4256C72.4665 55.644 72.6225 55.6855 72.7577 55.7583C73.5795 56.1846 73.954 56.0598 74.3597 55.2177C74.4533 55.0202 74.5469 54.8226 74.5365 54.5939L74.5469 54.5835C74.5469 54.5731 74.5573 54.5731 74.5573 54.5627C74.911 54.5315 75.0774 54.2301 75.3167 54.0325ZM74.8798 56.9019C73.85 55.9974 73.5483 57.5049 72.7889 57.4529C73.5483 57.4945 74.3701 57.7752 74.8798 56.9019ZM73.6731 58.2638C73.6211 58.2431 73.5691 58.2223 73.5171 58.1911C73.4547 58.2015 73.3403 58.2015 73.3403 58.2222C73.3195 58.3678 73.4443 58.3262 73.5171 58.3262C73.5691 58.3262 73.6211 58.2846 73.6731 58.2638ZM72.4977 56.7044C72.4977 56.6004 72.5081 56.5588 72.4977 56.538C72.144 56.091 71.1454 56.195 71.3846 55.2281C71.3846 55.2177 71.343 55.1865 71.3118 55.1657C70.7501 54.8122 70.1884 54.4588 69.6266 54.1053C69.7515 54.6043 70.0011 54.9786 70.2404 55.3529C70.5732 55.8935 70.5628 55.8935 69.8243 56.4861C70.8645 56.5796 71.6759 56.642 72.4977 56.7044ZM68.9297 57.2346C69.5538 57.5049 70.2092 57.7128 70.9685 57.6816C70.7605 57.2866 70.4484 57.2346 70.126 57.1618C68.9297 56.9019 67.8166 56.4133 66.766 55.7895C66.5684 55.6751 66.3811 55.54 66.2147 55.3841C66.1106 55.3009 66.069 55.1657 66.1419 55.0306C66.2251 54.8538 66.3811 54.8122 66.5475 54.8538C66.8596 54.9266 67.1093 55.1865 67.463 55.1761C67.463 55.1761 67.463 55.1761 67.463 55.1865H67.4734C67.6294 55.4568 67.8998 55.5504 68.368 55.7167C67.9935 55.3529 67.775 55.1865 67.4734 55.1865C67.4734 55.1865 67.4734 55.1865 67.4734 55.1761H67.463C67.1821 54.7395 66.662 54.6355 66.2979 54.3132C66.1419 54.1781 65.9962 54.0221 66.1314 53.8142C66.2667 53.5959 66.4851 53.679 66.662 53.7726C67.2861 54.1365 67.8999 54.5212 68.5344 54.8642C68.8257 55.0202 69.0961 55.2697 69.5642 55.1865C68.8569 53.9909 68.0559 53.0449 66.7556 52.629C67.2549 51.9948 67.2549 51.9948 66.7972 51.4542C66.7348 51.3814 66.6724 51.3087 66.5996 51.2255C65.4137 49.8844 64.9248 48.3353 65.3305 46.5783C65.5593 45.6114 65.4553 44.6966 65.1744 43.7713C64.904 42.898 64.6543 42.0143 64.6647 41.0786C64.6647 40.2989 64.259 39.7063 63.7077 39.2073C61.9601 37.6686 60.2021 36.13 58.4129 34.6433C57.3727 33.7908 56.2597 33.614 55.0322 33.6868C54.8553 33.6972 54.6161 33.6556 54.5849 33.9675C54.8345 34.4145 55.3131 34.4665 55.7395 34.6225C56.3013 34.8304 56.8838 35.0279 57.2583 35.5061C57.9656 36.4106 58.673 37.3255 59.1931 38.3444C59.7236 39.3944 59.4116 40.1637 58.3401 40.6732C57.5808 41.037 56.759 41.089 55.9372 41.1514C55.4483 41.193 54.949 41.1826 54.4601 41.245C54.0024 41.3074 53.4718 41.4529 53.3782 41.9519C53.2846 42.4301 53.8359 42.5237 54.1584 42.7108C54.8658 43.1267 55.6355 43.4386 56.2909 43.948C57.1855 44.6342 57.2271 45.4035 56.4365 46.1936C56.0516 46.5679 55.5939 46.8174 55.0946 46.9838C54.6473 47.1397 54.4601 47.3372 54.6473 47.8571C54.9178 48.616 54.5641 49.2086 53.9295 49.6141C53.5446 49.8532 53.1182 50.0403 52.7021 50.2274C52.234 50.4458 51.7139 50.5705 51.2978 50.9032C51.329 51.1423 51.4954 51.2567 51.6306 51.4022C52.3588 52.13 53.3158 52.2339 54.2624 52.3587C54.7825 52.4315 55.313 52.4731 55.8124 52.6498C56.5301 52.9097 56.7174 53.2944 56.4989 54.0221C56.4573 54.1677 56.2597 54.282 56.4053 54.4795C56.9982 54.2404 57.4455 53.8038 57.924 53.4191C58.6522 52.8369 59.474 52.5874 60.3998 52.6394C62.033 52.7434 63.4893 53.2216 64.6335 54.4484C65.7778 55.7375 67.3173 56.538 68.9297 57.2346ZM57.4351 40.1845C58.7042 39.831 58.933 39.2904 58.2465 38.1884C57.9552 37.7102 57.56 37.2943 57.2999 36.8057C56.8526 35.9636 56.1868 35.4646 55.2818 35.2047C54.8033 35.0695 54.356 34.8616 54.0024 34.4977C53.4302 33.8947 53.5759 33.3125 54.3976 33.1358C54.8449 33.0422 55.313 33.063 55.8124 33.0214C55.8228 32.6887 55.6251 32.5952 55.4691 32.4912C52.4628 30.3703 49.7478 27.8648 46.6791 25.8375C45.4204 25.0058 44.1826 24.1221 43.1215 23.0409C41.7796 21.679 40.2609 20.5354 38.711 19.4334C36.4641 17.8219 34.1547 16.3248 31.7206 15.0253C28.6519 13.3826 25.5312 11.8336 22.1609 10.8771C21.3599 10.6484 20.5485 10.2325 19.7059 10.7732C19.6227 10.8251 19.4459 10.7732 19.3314 10.742C18.5617 10.5132 17.8439 10.6588 17.1262 10.9395C14.8272 11.8336 12.4555 12.4782 10.115 13.2163C9.57406 13.3827 9.07476 13.6218 8.59626 13.9025C7.26476 14.6926 6.07889 15.6803 4.87222 16.6471C4.04004 17.3229 3.39508 18.1234 2.90617 19.0799C2.36525 20.1403 2.05318 21.2839 1.60588 22.3755C0.971337 23.935 0.825725 25.5464 0.950553 27.1994C1.18981 30.4639 2.01158 33.6036 2.94779 36.7121C3.90481 39.8622 5.57958 42.6381 7.62884 45.1956C8.51303 46.2976 9.67808 47.1293 10.7599 48.0442C13.4749 50.3522 16.3876 52.3483 19.6955 53.731C20.3301 53.9909 20.9646 54.282 21.5679 54.6043C24.0229 55.9039 26.6131 56.7564 29.3489 57.2866C32.2095 57.848 35.0805 58.0767 37.962 57.8688C40.084 57.7232 42.2061 57.4841 44.3386 57.4633C45.7117 57.4529 47.0952 57.3801 48.4579 57.1098C49.7166 56.8603 51.0065 56.8395 52.234 56.4445C52.5668 56.3405 52.9517 56.3093 53.1286 55.9143C53.451 55.2073 54.0648 54.8434 54.7201 54.5107C54.9802 54.3756 55.2506 54.23 55.4587 54.0429C55.8436 53.6998 55.7708 53.4087 55.2714 53.2944C54.6993 53.1696 54.1064 53.0968 53.5238 53.0241C52.3692 52.8889 51.381 52.4107 50.6216 51.5166C50.1639 50.976 50.2055 50.6017 50.8088 50.2274C51.1625 49.9987 51.5682 49.8532 51.9635 49.666C52.3796 49.4789 52.8165 49.323 53.2222 49.0942C53.8775 48.7408 53.9607 48.512 53.8047 47.8155C53.5759 46.7966 53.6071 46.7446 54.5433 46.3496C55.0322 46.1521 55.5315 45.9753 55.8956 45.5803C56.2597 45.1852 56.2701 44.9253 55.854 44.5926C55.5523 44.3431 55.1986 44.1559 54.8554 43.9584C54.3456 43.6673 53.8047 43.4178 53.3054 43.1059C52.1299 42.3678 52.1612 41.5049 53.3782 40.8083C53.6383 40.6628 53.9191 40.5796 54.2104 40.5172C54.7617 40.3925 55.3235 40.3925 55.8748 40.3821C56.4053 40.3717 56.9254 40.3301 57.4351 40.1845Z" fill="black"/>
<path d="M86.9308 20.9208C87.014 22.4789 86.9412 23.9954 86.4937 25.4912C86.2231 26.4053 85.9942 27.3297 85.7444 28.2438C85.2345 30.0927 84.1418 31.6093 82.9555 33.0635C82.3311 33.8218 81.6963 34.5904 81.0198 35.2864C79.7294 36.6056 78.1684 37.4885 76.3785 37.9455C75.3587 38.2052 74.3596 38.5168 73.3606 38.8492C70.9775 39.6386 68.532 40.1061 65.9927 39.9295C65.4412 39.8879 65.0041 39.7841 64.6919 39.2439C64.3485 38.6415 63.7137 38.2883 63.2142 37.8105C60.8311 35.5357 58.1774 33.6036 55.555 31.6301C54.0564 30.4979 52.5579 29.376 51.1218 28.1815C50.0603 27.2986 48.9364 26.4988 47.8021 25.7197C45.9289 24.4317 44.1181 23.0917 42.5051 21.4713C41.9744 20.9416 41.3604 20.4846 40.7568 20.0275C36.5734 16.8594 32.0673 14.2418 27.2907 12.0916C26.1252 11.5619 24.918 11.136 23.7005 10.7309C22.5141 10.3466 21.3382 9.93108 19.9541 9.82721C20.3183 9.31823 20.5577 8.88198 20.8803 8.5392C22.7326 6.53446 24.6787 4.72709 27.6862 4.70631C28.9974 4.69593 30.2878 4.32198 31.5574 4.03114C32.8478 3.7403 34.1487 3.63641 35.4599 3.57409C37.9471 3.43905 40.455 3.34557 42.8173 2.41072C43.3064 2.21336 43.8372 2.11988 44.3575 2.13027C46.6574 2.15104 48.9364 1.75631 51.2362 1.67321C54.4415 1.54857 57.6051 1.70439 60.7478 2.30685C61.1953 2.38995 61.6532 2.50422 62.0695 2.6808C63.4431 3.2521 64.8792 3.50138 66.357 3.57409C66.5859 3.58447 66.8149 3.62603 67.0334 3.68836C69.2604 4.3843 71.529 4.91406 73.7144 5.74504C77.7834 7.30313 81.2488 9.70258 83.9753 13.1408C85.8069 15.4363 86.7747 18.002 86.9308 20.9208ZM81.9564 21.6271C82.3727 20.8273 82.4976 19.9548 82.5392 19.2277C82.5392 17.8566 82.0085 16.9321 80.8533 16.5686C79.2091 16.0492 77.7626 15.1559 76.2536 14.3665C73.8393 13.0888 71.2481 12.6318 68.532 13.1615C68.0741 13.255 67.637 13.3796 67.2623 13.6705C66.4923 14.273 66.5963 15.0312 67.5121 15.374C67.7827 15.4779 68.0845 15.509 68.3446 15.6545C70.6757 17.0048 72.9548 18.4279 74.7239 20.5261C75.5772 21.544 76.6179 22.3439 77.7938 22.9567C79.3964 23.7877 81.1239 23.2372 81.9564 21.6271ZM51.0281 9.79607C51.9127 9.24554 51.9543 8.49766 51.2154 7.77055C50.7783 7.34468 50.2476 7.08497 49.6544 6.97071C48.8427 6.80452 48.0206 6.8357 47.2089 6.99151C46.0746 7.19925 44.9611 7.52124 43.8164 7.62512C39.2063 8.06138 34.6169 8.73657 30.0068 9.22477C29.6218 9.26632 29.2055 9.21438 28.8725 9.53639C29.2992 10.17 29.8195 10.4193 30.5272 10.3674C30.8706 10.3362 31.2452 10.4712 31.5886 10.5855C33.8989 11.323 36.2924 11.51 38.6963 11.4996C40.4342 11.4892 42.1825 11.4476 43.9204 11.4372C44.9091 11.4268 45.8873 11.3853 46.8759 11.2607C48.364 11.0737 49.7585 10.5855 51.0281 9.79607Z" fill="#342355"/>
<path d="M82.514 19.2882C82.4724 20.0168 82.3476 20.8912 81.9316 21.6927C81.0995 23.3061 79.3729 23.8578 77.7607 23.0147C76.5854 22.4006 75.5453 21.599 74.6924 20.5789C72.9242 18.4763 70.6567 17.0502 68.3164 15.697C68.0564 15.5513 67.7548 15.5097 67.4843 15.416C66.569 15.0725 66.465 14.3126 67.2347 13.7089C67.6092 13.4174 68.046 13.2821 68.5037 13.1988C71.2184 12.6679 73.8082 13.1155 76.2213 14.4063C77.7295 15.2078 79.1649 16.103 80.8186 16.613C81.9836 16.9878 82.514 17.9142 82.514 19.2882ZM81.8276 19.486C81.9108 18.1224 81.5571 17.5186 80.2674 17.1127C78.9048 16.6859 77.6671 16.0405 76.4606 15.3015C74.682 14.2085 72.7161 13.7713 70.8855 13.6672C69.7206 13.6776 68.8053 13.7609 67.9524 14.1148C67.5155 14.3022 67.4947 14.5416 67.8796 14.8122C68.1188 14.9788 68.3892 15.1037 68.6493 15.2494C71.1039 16.6651 73.465 18.1848 75.3164 20.3916C76.0445 21.2555 76.9598 21.9009 77.9479 22.4318C79.3625 23.1812 80.7875 22.6816 81.4323 21.2035C81.682 20.6622 81.7964 20.0793 81.8276 19.486Z" fill="black"/>
<path d="M80.3272 17.0133C81.6202 17.4162 81.9644 18.0155 81.8914 19.369C81.8601 19.9579 81.7454 20.5365 81.5055 21.0738C80.8485 22.541 79.4303 23.0473 78.0121 22.293C77.0214 21.7661 76.0934 21.1255 75.3738 20.2679C73.5176 18.0775 71.1504 16.5587 68.6894 15.1638C68.4287 15.0192 68.1576 14.8952 67.9178 14.7299C67.5319 14.4612 67.5423 14.2236 67.9907 14.0376C68.8563 13.6863 69.7739 13.6037 70.9315 13.5933C72.7668 13.6966 74.7377 14.1203 76.5209 15.2155C77.7201 15.9594 78.9611 16.5896 80.3272 17.0133Z" fill="#8F7ABA"/>
<path d="M80.8572 43.8038C81.0595 43.7725 81.134 43.9395 81.134 44.1273C81.1234 44.4927 80.9637 44.8267 80.8466 45.1607C80.6975 45.5886 80.3248 45.4738 80.016 45.5573C79.6646 45.6512 79.3132 45.7765 78.9725 45.9017C78.6956 45.9957 78.4507 46.1835 78.0674 46.0583C78.3549 45.5468 78.8767 45.4842 79.3132 45.3068C79.5262 45.2233 79.7818 45.1711 79.8989 44.9623C80.0586 44.6805 79.8243 44.5762 79.622 44.43C79.441 44.3048 79.622 44.2108 79.7072 44.1273C80.048 43.8351 80.4739 43.8664 80.8572 43.8038Z" fill="#BDCB64"/>
<path d="M80.0608 46.4067C79.9981 46.794 79.9877 47.1384 79.6536 47.1276C78.9855 47.0953 78.4113 47.4181 77.6074 47.6333C78.3278 46.751 79.1525 46.6326 80.0608 46.4067Z" fill="#BDCB64"/>
<path d="M79.9073 43.2684C79.4293 43.6731 78.9839 43.8658 78.5277 44.1067C78.5168 43.2299 78.7884 43.0565 79.9073 43.2684Z" fill="#BDCB64"/>
<path d="M79.4475 47.94C79.3523 48.6311 79.2254 49.0846 78.9293 49.4733C78.8447 49.0954 78.6226 48.9442 78.2314 48.9766C77.8507 49.0198 77.47 49.1494 76.9941 48.9442C77.7132 48.3503 78.6015 48.4799 79.4475 47.94Z" fill="#BDCB64"/>
<path d="M78.8444 49.4733C78.8444 49.4837 78.8444 49.4941 78.8548 49.5045C78.8444 49.5149 78.834 49.5149 78.834 49.5253C78.834 49.5149 78.8444 49.5045 78.8444 49.4941C78.834 49.4837 78.834 49.4837 78.8444 49.4733Z" fill="#342355"/>
<path d="M78.8948 49.51C78.7596 50.1546 78.3539 50.664 78.0626 51.2358C77.9898 51.3813 77.8858 51.5581 77.6986 51.5061C77.1784 51.3606 76.6687 51.7348 76.0342 51.4853C76.8664 50.5704 77.969 50.165 78.8948 49.51Z" fill="#BDCB64"/>
<path d="M76.2529 53.0241C76.6274 52.6706 76.9395 52.4627 77.3244 52.3691C77.1579 53.0969 77.1579 53.0969 76.2529 53.0241Z" fill="#BDCB64"/>
<path d="M76.6694 49.7596C76.6486 49.7284 76.7422 49.8219 76.7318 49.9051C76.6902 50.165 76.451 50.2482 76.2429 50.321C76.1285 50.3625 76.0869 50.2378 76.1077 50.1234C76.1493 49.8947 76.1909 49.6452 76.6694 49.7596Z" fill="#BDCB64"/>
<path d="M76.6273 54.1365C76.4817 54.5108 76.3881 54.7811 76.2632 55.041C76.1488 55.2801 75.9512 55.2073 75.7743 55.1034C75.5663 54.989 75.5143 54.8123 75.6911 54.6355C75.9304 54.4068 76.18 54.1677 76.6273 54.1365Z" fill="#BDCB64"/>
<path d="M75.3579 53.6375C75.5556 53.7726 75.4412 53.9182 75.3163 54.0325C75.0875 54.2301 74.9107 54.5316 74.5674 54.5731C74.7234 54.3028 74.8898 54.0325 75.0563 53.7622C75.1187 53.6583 75.2123 53.5335 75.3579 53.6375Z" fill="#BDCB64"/>
<path d="M74.5677 54.5732C74.5677 54.5836 74.5573 54.5836 74.5573 54.594L74.5469 54.6044C74.5469 54.594 74.5469 54.5836 74.5469 54.5836C74.5469 54.5836 74.5573 54.5732 74.5677 54.5732Z" fill="#342355"/>
<path d="M74.5468 54.6043C74.5572 54.833 74.4636 55.0306 74.3699 55.2281C73.9642 56.0702 73.5898 56.195 72.768 55.7687C72.6328 55.6959 72.4663 55.6543 72.3623 55.436C73.2153 55.4672 73.881 55.0306 74.5468 54.6043Z" fill="#BDCB64"/>
<path d="M72.7998 57.453C73.5488 57.4946 73.8608 55.9871 74.8907 56.902C74.3705 57.7753 73.5488 57.4946 72.7998 57.453Z" fill="#BDCB64"/>
<path d="M72.4974 56.5381C72.5078 56.5589 72.4974 56.6005 72.4974 56.7044C71.6756 56.6421 70.8642 56.5797 69.8344 56.4965C70.5729 55.9039 70.5833 55.9039 70.2505 55.3633C70.0216 54.9786 69.7719 54.6147 69.6367 54.1157C70.1984 54.4692 70.7602 54.8227 71.3219 55.1762C71.3531 55.197 71.3947 55.2177 71.3947 55.2385C71.1347 56.195 72.1437 56.091 72.4974 56.5381Z" fill="#BDCB64"/>
<path d="M70.9682 57.6816C70.2088 57.7128 69.5535 57.5049 68.9294 57.2346C67.3274 56.538 65.7775 55.7375 64.5604 54.438C63.4057 53.2112 61.9494 52.733 60.3266 52.629C59.4008 52.577 58.5791 52.8161 57.8509 53.4087C57.3724 53.7934 56.9147 54.23 56.3322 54.4692C56.1865 54.2716 56.3842 54.1572 56.4258 54.0117C56.6442 53.284 56.457 52.8993 55.7392 52.6394C55.2399 52.4626 54.7198 52.4107 54.1893 52.3483C53.2427 52.2235 52.2857 52.1196 51.5575 51.3918C51.4223 51.2567 51.2662 51.1319 51.2246 50.8928C51.6407 50.5601 52.1608 50.4353 52.6289 50.217C53.045 50.0195 53.4715 49.8428 53.8564 49.6036C54.5013 49.1982 54.8446 48.6056 54.5742 47.8467C54.3869 47.3268 54.5846 47.1293 55.0215 46.9734C55.5208 46.807 55.9889 46.5575 56.3634 46.1832C57.1539 45.3931 57.1123 44.6238 56.2177 43.9376C55.5624 43.4386 54.7926 43.1163 54.0852 42.7005C53.7628 42.5133 53.2219 42.4197 53.3051 41.9415C53.3987 41.4425 53.9292 41.2969 54.3869 41.2346C54.8758 41.1722 55.3751 41.1826 55.8641 41.141C56.6858 41.0786 57.5076 41.0266 58.267 40.6628C59.3384 40.1533 59.6505 39.384 59.12 38.334C58.5999 37.3151 57.8821 36.4002 57.1851 35.4958C56.8107 35.0175 56.2281 34.8304 55.6664 34.6121C55.2503 34.4561 54.7614 34.3937 54.5118 33.9571C54.5534 33.6556 54.7822 33.6868 54.9591 33.6764C56.1969 33.6036 57.31 33.7803 58.3398 34.6328C60.1394 36.1195 61.8974 37.6478 63.6346 39.1969C64.1963 39.6959 64.602 40.2885 64.5916 41.0682C64.5916 42.0039 64.8413 42.8876 65.1013 43.7609C65.3822 44.6862 65.4862 45.6114 65.2573 46.5679C64.8517 48.3353 65.3406 49.8739 66.5264 51.2151C66.5888 51.2879 66.6512 51.3606 66.7241 51.4438C67.1818 51.9948 67.1818 51.9948 66.6825 52.6186C67.9827 53.0344 68.7837 53.9805 69.4911 55.1761C69.0334 55.2489 68.7525 55.0098 68.4613 54.8538C67.8267 54.5003 67.2234 54.1157 66.5888 53.7622C66.412 53.6686 66.204 53.5854 66.0583 53.8038C65.9231 54.0117 66.0687 54.1677 66.2248 54.3028C66.5888 54.6251 67.109 54.7291 67.3898 55.1657C67.0465 55.1761 66.7969 54.9162 66.4744 54.8434C66.2976 54.8018 66.152 54.8434 66.0687 55.0202C66.0063 55.1553 66.0479 55.2905 66.1415 55.3736C66.3184 55.5192 66.5056 55.6647 66.6929 55.7791C67.7435 56.4133 68.8461 56.8915 70.0528 57.1514C70.4481 57.2346 70.7602 57.2866 70.9682 57.6816Z" fill="#BDCB64"/>
<path d="M67.4629 55.1762C67.7646 55.1866 67.983 55.3425 68.3575 55.7064C67.8894 55.54 67.6189 55.4569 67.4629 55.1762Z" fill="#BDCB64"/>
<path d="M58.2469 38.1884C58.9335 39.2904 58.7047 39.831 57.4356 40.1845C56.9259 40.3301 56.4057 40.3717 55.8752 40.3821C55.3135 40.3925 54.7622 40.3925 54.2109 40.5172C53.9196 40.5796 53.6387 40.6628 53.3787 40.8083C52.1616 41.5153 52.1304 42.3678 53.3058 43.1059C53.8051 43.4178 54.3461 43.6673 54.8558 43.9584C55.1991 44.1559 55.5423 44.3535 55.8544 44.5926C56.2705 44.9253 56.2601 45.1852 55.896 45.5803C55.5215 45.9753 55.0222 46.152 54.5437 46.3496C53.5971 46.7342 53.5763 46.7966 53.8052 47.8155C53.9612 48.512 53.878 48.7408 53.2226 49.0942C52.8169 49.3126 52.3904 49.4685 51.9639 49.666C51.5791 49.8428 51.1734 49.9987 50.8093 50.2274C50.2059 50.6121 50.1644 50.976 50.6221 51.5166C51.3814 52.4107 52.3592 52.8889 53.5243 53.0241C54.1068 53.0968 54.6998 53.1592 55.2719 53.2944C55.7816 53.4087 55.844 53.6998 55.4591 54.0429C55.2407 54.2404 54.9806 54.3756 54.7206 54.5107C54.0652 54.8434 53.4515 55.2073 53.129 55.9143C52.9522 56.3093 52.5673 56.3405 52.2344 56.4445C51.0069 56.8395 49.7066 56.8603 48.4584 57.1098C47.0957 57.3801 45.7122 57.4529 44.339 57.4633C42.1962 57.4737 40.0845 57.7232 37.9624 57.8688C35.0706 58.0663 32.21 57.8376 29.3493 57.2866C26.6135 56.7564 24.0233 55.9039 21.5684 54.6043C20.9651 54.282 20.3305 53.9909 19.696 53.731C16.388 52.3483 13.4754 50.3522 10.7604 48.0442C9.68893 47.1293 8.52388 46.2976 7.62928 45.1956C5.58003 42.6381 3.89485 39.8622 2.94824 36.7121C2.01203 33.6036 1.19025 30.4639 0.951001 27.1994C0.826173 25.536 0.971786 23.9246 1.60633 22.3755C2.05363 21.2839 2.3657 20.1403 2.90662 19.0799C3.39552 18.1338 4.03008 17.3333 4.87267 16.6471C6.06894 15.6802 7.25481 14.6926 8.5967 13.9025C9.07521 13.6218 9.57451 13.3826 10.1154 13.2163C12.4663 12.4782 14.8381 11.8336 17.1266 10.9395C17.8444 10.6588 18.5725 10.5132 19.3319 10.742C19.4567 10.7731 19.6231 10.8251 19.7064 10.7732C20.5489 10.2325 21.3707 10.6484 22.1613 10.8771C25.5317 11.8336 28.6419 13.3826 31.721 15.0253C34.1552 16.3248 36.4645 17.8219 38.7114 19.4333C40.2614 20.5458 41.7801 21.679 43.122 23.0409C44.183 24.1221 45.4209 25.0058 46.6796 25.8375C49.7587 27.8752 52.4737 30.3703 55.4695 32.4912C55.6152 32.5952 55.8128 32.6887 55.8128 33.0214C55.3135 33.0526 54.8454 33.0318 54.3981 33.1358C53.5867 33.3125 53.4307 33.9051 54.0028 34.4977C54.3565 34.8616 54.8038 35.0695 55.2823 35.2047C56.1769 35.4646 56.853 35.974 57.3003 36.8057C57.5708 37.2943 57.9557 37.7206 58.2469 38.1884ZM53.7844 38.4587C53.8052 37.3879 53.285 36.6394 52.276 36.2963C51.7143 36.1091 51.1318 36.026 50.5284 36.026C48.3335 36.0052 46.1283 36.2027 44.1414 35.8284C43.6421 35.8284 43.3508 35.8077 43.0492 35.8284C42.4666 35.87 42.321 36.1715 42.6227 36.6913C42.9451 37.232 43.4757 37.4607 44.0374 37.679C45.7018 38.3132 47.2829 39.1137 48.6352 40.2781C49.405 40.9435 50.2059 41.1826 51.1734 40.9227C51.423 40.8499 51.6935 40.8291 51.9431 40.7875C53.4931 40.5172 53.5035 40.5068 53.7011 38.9578C53.7427 38.781 53.7739 38.6147 53.7844 38.4587ZM14.1515 17.0942C14.2972 16.7511 14.37 16.3872 14.1099 16.0753C13.8291 15.7218 13.4338 15.6906 13.0385 15.7842C12.7888 15.8466 12.5392 15.9506 12.3103 16.0753C11.967 16.2624 11.6342 16.46 11.2285 16.5016C10.8956 16.5328 10.6148 16.7303 10.3651 16.9382C8.32624 18.612 7.25479 20.7745 7.07796 23.3528C7.09876 23.6959 7.08837 23.9974 7.14038 24.2885C7.27561 25.1825 7.60847 25.9935 8.29502 26.6172C8.95037 27.2098 9.40808 27.0851 9.65773 26.2534C9.77216 25.8791 9.83456 25.484 9.90738 25.0994C10.4067 22.625 11.1869 20.2858 13.1737 18.5392C13.6002 18.165 13.9123 17.6452 14.1515 17.0942Z" fill="#342355"/>
<path d="M52.2654 36.2858C53.2848 36.6289 53.7945 37.3775 53.7737 38.4483C53.7737 38.6146 53.7425 38.7706 53.7217 38.9369C53.524 40.486 53.5032 40.4964 51.9637 40.7667C51.7036 40.8083 51.4436 40.8395 51.1939 40.9018C50.2265 41.1617 49.4151 40.9226 48.6558 40.2573C47.3035 39.0929 45.7119 38.2924 44.0579 37.6582C43.4962 37.4398 42.9553 37.2215 42.6432 36.6705C42.3416 36.1507 42.4872 35.8492 43.0697 35.8076C43.361 35.7868 43.6627 35.8076 44.162 35.8076C46.1488 36.1819 48.3437 35.9947 50.549 36.0051C51.1211 36.0155 51.7036 36.0987 52.2654 36.2858ZM52.8167 39.7478C53.5553 38.5626 52.9519 37.1487 51.5788 36.8576C50.7362 36.6809 49.8832 36.6809 49.0303 36.7433C47.886 36.8265 46.7313 36.8161 45.5871 36.7121C45.1502 36.6705 44.6925 36.5665 44.0371 36.7433C44.3388 36.9408 44.4636 37.0448 44.5989 37.1175C46.2632 38.0428 48.0316 38.781 49.4567 40.0805C49.7376 40.33 50.1017 40.4236 50.4762 40.3612C51.1211 40.2573 51.7661 40.1221 52.411 40.0077C52.5774 39.9558 52.7127 39.9038 52.8167 39.7478Z" fill="black"/>
<path d="M51.5684 36.8576C52.9415 37.1383 53.5448 38.5626 52.8063 39.7478C52.7126 39.9038 52.567 39.9662 52.411 39.9974C51.766 40.1221 51.1211 40.2469 50.4761 40.3508C50.1016 40.4132 49.7376 40.33 49.4567 40.0701C48.0212 38.7706 46.2528 38.022 44.5988 37.1072C44.4636 37.024 44.3284 36.9304 44.0371 36.7329C44.6821 36.5561 45.1397 36.6601 45.587 36.7017C46.7313 36.816 47.886 36.816 49.0302 36.7329C49.8728 36.6809 50.7258 36.6809 51.5684 36.8576Z" fill="#8F7ABA"/>
<path d="M51.2566 7.76854C52.0056 8.50669 51.964 9.25523 51.0694 9.79584C49.8003 10.586 48.4064 11.0642 46.9189 11.2513C45.941 11.3761 44.9528 11.4177 43.9646 11.4281C42.217 11.4385 40.4798 11.48 38.7426 11.4904C36.3293 11.5112 33.9472 11.3137 31.6379 10.5756C31.2946 10.4716 30.9305 10.3364 30.5768 10.3572C29.8695 10.4092 29.3493 10.1701 28.9229 9.52552C29.2557 9.20323 29.6718 9.25522 30.0567 9.21363C34.6649 8.725 39.2524 8.04925 43.8606 7.6126C45.0048 7.50863 46.1179 7.19673 47.2517 6.97841C48.0631 6.82246 48.8849 6.79128 49.6963 6.95762C50.2892 7.08238 50.8197 7.34229 51.2566 7.76854ZM50.6429 9.328C51.2878 8.95373 51.2982 8.58984 50.7469 8.09082C50.3412 7.72694 49.8523 7.5502 49.3114 7.48782C48.5208 7.40465 47.7406 7.45665 46.9605 7.6126C45.6706 7.8829 44.3911 8.15319 43.0804 8.26755C39.3148 8.57944 35.5699 9.06808 31.8147 9.52552C31.6899 9.53592 31.5442 9.54631 31.4402 9.75424C31.8355 9.88939 32.2204 10.0349 32.6157 10.1493C33.4375 10.378 34.28 10.5236 35.133 10.6379C37.7544 10.981 40.3862 10.7731 43.0076 10.7939C44.2871 10.8043 45.5666 10.7939 46.846 10.6379C48.1983 10.4612 49.4674 10.0142 50.6429 9.328Z" fill="black"/>
<path d="M50.7364 8.10135C51.2877 8.58998 51.2773 8.95385 50.6323 9.33851C49.4569 10.0247 48.1878 10.4613 46.8355 10.6381C45.556 10.794 44.2765 10.8148 42.9971 10.794C40.3757 10.7732 37.7439 10.9811 35.1225 10.6381C34.2695 10.5237 33.4373 10.3782 32.6051 10.1494C32.2098 10.0455 31.825 9.88952 31.4297 9.75437C31.5337 9.55684 31.6793 9.54645 31.8042 9.52565C35.5594 9.06821 39.3042 8.57957 43.0699 8.26768C44.3806 8.15332 45.6705 7.88303 46.9499 7.61273C47.7301 7.45678 48.5103 7.40478 49.3008 7.48795C49.8418 7.55033 50.3307 7.73748 50.7364 8.10135Z" fill="#8F7ABA"/>
<path d="M14.1094 16.0753C14.3695 16.3976 14.307 16.7614 14.151 17.0941C13.9118 17.6347 13.5997 18.1545 13.1524 18.5496C11.1655 20.2962 10.3958 22.6354 9.88607 25.1097C9.80285 25.4944 9.74044 25.8895 9.63642 26.2637C9.39717 27.0954 8.92905 27.2202 8.27371 26.6276C7.58715 26.0038 7.26467 25.1929 7.11904 24.2988C7.07743 24.0077 7.07745 23.7166 7.05664 23.3631C7.23348 20.7952 8.3049 18.6328 10.3438 16.9486C10.5934 16.7406 10.8743 16.5431 11.2072 16.5119C11.6128 16.4703 11.9457 16.2728 12.289 16.0857C12.5179 15.9609 12.7675 15.8569 13.0172 15.7946C13.4333 15.6906 13.8286 15.7218 14.1094 16.0753ZM13.5061 16.8966C13.6413 16.5847 13.4853 16.4391 13.1836 16.5015C12.6531 16.6055 12.2058 16.8862 11.8625 17.302C11.5504 17.6763 11.1135 17.9882 10.687 17.8427C10.2501 17.6971 10.0837 17.8635 9.87565 18.113C9.52197 18.5496 9.14751 18.9654 8.85625 19.4437C7.96165 20.9096 7.48313 22.5002 7.70158 24.2364C7.8056 25.0473 8.06566 25.8167 8.89785 26.3053C9.1579 25.8479 9.17872 25.3904 9.27234 24.9538C9.80286 22.417 10.5726 19.9947 12.6011 18.1857C12.9964 17.8323 13.2876 17.3748 13.5061 16.8966Z" fill="black"/>
<path d="M13.1833 16.5017C13.4849 16.4393 13.641 16.5848 13.5058 16.8967C13.2873 17.3853 12.996 17.8324 12.6111 18.1859C10.5827 19.9948 9.81292 22.4068 9.2824 24.9539C9.18878 25.3906 9.16799 25.848 8.90793 26.3054C8.07575 25.8168 7.81569 25.0475 7.71167 24.2366C7.49322 22.5004 7.97171 20.9201 8.86631 19.4438C9.15757 18.9656 9.53206 18.5498 9.88574 18.1131C10.0938 17.8636 10.2602 17.6972 10.6971 17.8428C11.134 17.9883 11.5605 17.6765 11.8726 17.3022C12.2055 16.8863 12.6528 16.6056 13.1833 16.5017Z" fill="#8F7ABA"/>
</svg>
