<svg width="65" height="56" viewBox="0 0 65 56" fill="none" xmlns="http://www.w3.org/2000/svg">
<path d="M22.2554 37.7268C22.2866 38.1997 21.9644 38.2942 21.6526 38.3888C20.6134 38.7041 19.6261 38.7041 18.8258 37.8108C18.7842 37.7583 18.7323 37.7163 18.6803 37.6742C17.8385 36.9386 17.693 36.9806 17.2773 38.042C17.2461 38.1366 17.1838 38.2207 17.1318 38.2942C17.111 38.3153 17.0798 38.3363 17.0486 38.3573C16.872 38.3468 16.7161 38.2732 16.6433 38.1156C15.947 36.5708 14.887 35.2256 14.2842 33.6283C14.5648 33.4706 14.7726 33.4916 14.9805 33.6493C15.1364 33.7649 15.3338 33.9856 15.5001 33.8805C16.2068 33.3866 16.3731 34.0066 16.6537 34.4059C16.8096 34.6266 17.0071 34.9419 17.2461 34.8893C17.8593 34.7422 18.1295 35.0785 18.4309 35.4989C18.618 35.7616 18.9505 35.8877 19.2207 35.709C19.678 35.4148 19.9586 35.6565 20.2392 35.9612C20.5822 36.3501 21.0083 36.5498 21.5279 36.6233C22.0268 36.6969 22.2035 37.0647 22.2554 37.7268Z" fill="#F2B3DF"/>
<path d="M17.3234 42.9405C17.4174 43.4547 17.2817 43.5806 16.8015 43.4232C15.9352 43.1294 14.9958 42.9195 14.5365 41.9646C14.453 41.7862 14.2651 41.6917 14.0772 41.6078C11.9687 40.6213 10.33 39.0473 8.81645 37.3263C8.5555 37.0325 8.36761 36.6652 8.31542 36.2559C8.29454 36.0985 8.28411 35.9096 8.48243 35.8362C8.62857 35.7837 8.74338 35.8677 8.82688 35.9621C9.14002 36.3084 9.47405 36.6337 9.735 37.022C10.403 38.0294 11.2068 38.1973 12.3967 37.4417C13.6493 39.0892 13.8163 39.1207 14.8392 38.5226C15.9874 39.8658 16.0083 39.8658 16.9894 39.1312C17.2504 39.3411 17.1043 39.6244 17.0938 39.8763C17.0521 40.9047 17.1251 41.9226 17.3234 42.9405Z" fill="#13751E"/>
<path d="M19.7949 49.5926C20.2664 50.2341 20.235 50.2761 19.5329 50.5916C19.2918 50.6968 19.0403 50.8019 18.7888 50.886C18.6316 50.9386 18.4744 50.9912 18.2439 51.0543C18.0028 50.2341 17.94 50.192 17.3007 50.4233C17.0178 50.5285 16.7558 50.6652 16.4833 50.7914C16.1584 50.9386 15.8126 51.212 15.6344 50.6231C14.9009 50.6547 14.1987 50.3813 13.4861 50.3918C13.0879 50.3918 12.8993 50.9807 12.5535 51.3067C12.3439 51.1384 12.522 50.9491 12.543 50.8019C12.6163 50.3287 12.4277 50.171 11.9561 50.1079C11.1073 50.0027 10.2794 49.8029 9.21046 49.5926C9.84971 49.5085 10.2689 49.4559 10.6776 49.3823C10.8453 49.3507 11.0129 49.2771 11.0234 49.0773C11.0444 48.8249 10.8558 48.7303 10.6462 48.7092C10.0803 48.6567 9.51436 48.6251 8.95894 48.5831C8.50832 48.541 8.0577 48.4989 7.58612 48.2991C7.96338 48.1309 8.34065 47.9836 8.70743 47.7944C8.9275 47.6892 9.10566 47.5209 9.04279 47.2475C8.99039 47.0372 8.80175 46.9531 8.60264 46.89C8.03674 46.7112 7.41845 46.7638 6.85255 46.5114C7.04118 46.2275 7.31365 46.3852 7.52324 46.3326C7.73284 46.2801 7.92147 46.1959 7.89003 45.9541C7.86907 45.7543 7.69091 45.7017 7.51275 45.7017C6.98877 45.6912 6.47528 45.7017 5.91986 45.7017C6.01418 45.4808 6.16089 45.4914 6.27617 45.4388C6.4648 45.3546 6.66391 45.2705 6.65343 45.0287C6.64295 44.7973 6.45432 44.6921 6.26569 44.6185C5.55308 44.3451 4.81951 44.1243 4.16977 43.6931C4.09641 43.3987 4.55751 43.3146 4.44224 43.0096C4.33744 42.7467 4.10689 42.61 3.88681 42.4628C3.23708 42.0211 2.51399 41.6635 1.86426 41.0431C2.3044 40.8012 2.69214 40.959 3.05892 40.9485C3.54098 40.9379 4.00209 40.9169 4.29552 40.4647C4.42128 40.2649 4.56799 40.2018 4.78806 40.286C4.91381 40.328 5.10245 40.4016 5.17581 40.349C5.93034 39.7602 6.29712 40.4121 6.7687 40.8118C7.35556 41.306 7.63851 41.2429 8.34065 40.5173C8.55024 40.7802 8.73887 41.0431 8.95894 41.285C9.35717 41.7582 9.78683 42.1788 10.489 41.958C10.751 41.8739 10.9396 41.9895 11.0863 42.1999C11.2016 42.3681 11.3064 42.5259 11.4217 42.6941C12.0714 43.609 12.2495 43.63 12.9621 42.7993C13.2241 42.4943 13.4442 42.3576 13.7796 42.6626C14.6075 43.4302 15.6659 43.6405 16.7139 43.8719C17.3845 44.0191 17.7199 44.3661 17.8037 45.0707C18.0133 46.7638 18.7993 48.2255 19.7949 49.5926Z" fill="#13751E"/>
<path d="M18.4301 39.2446C18.0957 38.9411 17.8658 38.5957 17.8135 38.1457C17.803 38.0201 17.8135 37.8631 17.9598 37.8212C18.0434 37.8003 18.1793 37.8212 18.2211 37.884C18.3987 38.0933 18.8899 38.1875 18.4719 38.6271C18.3256 38.7841 18.4614 38.9306 18.6287 39.0144C20.353 39.8831 21.2518 41.3797 21.8057 43.1485C22.0461 43.9126 22.4014 44.6243 22.8194 45.3046C23.4987 46.435 24.4184 47.2409 25.7143 47.5862C26.3309 47.7537 26.8848 48.0363 27.3655 48.4654C28.0553 49.0829 28.8705 49.2609 29.7692 49.1876C30.992 49.0829 32.1938 48.8527 33.4375 48.8631C34.0541 48.8736 34.5871 48.5805 35.0678 48.1933C35.35 47.963 35.6217 47.7328 35.9039 47.5025C35.4545 48.8422 34.7961 50.0354 34.0018 51.1343C32.8731 52.6833 31.1906 53.2276 29.4244 53.4055C27.7 53.5834 25.986 53.2276 24.2826 52.9555C23.4256 52.8194 22.7567 52.3275 22.1506 51.7414C21.1996 50.8099 20.4053 49.7423 19.6633 48.6433C19.5588 48.4863 19.4229 48.2875 19.4229 48.1096C19.4647 47.1048 18.9631 46.2466 18.7123 45.3255C18.2733 43.7765 17.803 42.2275 17.8553 40.5843C17.8657 40.197 17.7821 39.7784 18.3883 39.6947C18.66 39.6633 18.5869 39.3807 18.4301 39.2446Z" fill="#D099C0"/>
<path d="M19.814 39.1335C19.7931 39.1127 19.814 39.0711 19.814 38.9773C21.0066 39.1335 22.1155 38.8524 23.1407 38.2588C23.2767 38.1754 23.4545 38.1234 23.6115 38.1025C25.2853 37.9151 26.9277 37.384 28.6329 37.4569C30.0662 37.5194 31.3948 37.1653 32.6397 36.4675C33.9369 35.7386 35.3073 35.1137 36.1756 33.812C36.3116 33.6037 36.5627 33.4475 36.7824 33.3017C37.0439 33.1246 37.2322 33.2184 37.2531 33.5412C37.3996 35.5719 38.2261 37.4465 38.5922 39.4251C38.655 39.7584 38.7177 40.0708 38.5922 40.3936C38.3516 41.0185 38.2574 41.6746 38.1738 42.3306C37.9645 43.9448 37.0648 45.1945 36.0292 46.3609C35.7258 46.7045 35.3492 46.9857 35.0144 47.3086C34.3658 47.9438 33.6021 48.2562 32.671 48.2042C31.8341 48.1521 31.0181 48.3604 30.2022 48.4853C29.1979 48.6415 28.2877 48.527 27.5031 47.8188C27.1056 47.4544 26.6139 47.2148 26.1013 47.1003C24.5321 46.7566 23.5592 45.736 22.8687 44.3822C22.6176 43.8823 22.377 43.3616 22.2096 42.8305C21.7807 41.5079 21.1217 40.352 20.0755 39.4251C19.9709 39.3522 19.8872 39.2377 19.814 39.1335Z" fill="#F7CAE9"/>
<path d="M61.7656 43.4031C62.5158 44.0924 62.5783 44.2281 62.8908 45.283C61.7031 45.5336 61.6927 45.5441 61.0051 46.86C60.6092 46.4214 60.3487 45.9514 60.1404 45.4501C59.7236 44.4788 59.0881 43.7059 58.2442 43.0793C56.6606 41.92 55.2437 40.6041 54.2018 38.9017C53.7538 38.1602 53.16 37.5335 52.5036 36.9695C51.493 36.1236 50.7637 35.0792 50.1907 33.899C49.7531 32.9799 49.3259 32.04 48.7842 31.1731C49.0238 30.9329 49.1592 31.1627 49.2947 31.2462C50.1386 31.7684 50.9825 32.2906 51.8055 32.8442C52.837 33.523 53.5975 34.5048 54.4414 35.3821C55.3166 36.2907 56.2334 37.1471 57.1711 37.9722C58.0462 38.7346 58.8276 39.5701 59.4319 40.5727C60.0674 41.6485 60.8488 42.578 61.7656 43.4031Z" fill="#F7CAE9"/>
<path d="M60.2535 47.0023C60.5766 47.8509 60.7225 48.8252 60.4411 49.8204C60.1076 50.9938 59.92 52.2195 59.5864 53.4033C59.4405 53.9062 59.1799 54.0948 58.6588 54.0634C56.3761 53.9586 54.1142 53.7072 51.8628 53.2986C50.7475 53.0995 49.7573 52.5757 48.7984 51.9576C46.6512 50.5643 44.8793 48.8252 43.4304 46.709C42.8259 45.8394 42.1171 45.0432 41.4709 44.1946C40.9706 43.5346 40.5745 42.8013 40.168 42.0784C39.5217 40.9365 39.2924 39.7526 39.5113 38.4431C39.8865 36.1488 40.2618 33.8544 40.7829 31.5916C41.2728 29.4648 42.1692 27.5162 43.493 25.5467C44.2643 26.6572 45.2858 27.3591 46.0154 28.3544C46.4427 28.9306 47.0264 29.381 47.5372 29.8944C47.7456 30.1039 48.0167 30.2715 47.8707 30.6487C47.8186 30.7849 47.902 30.9106 47.9958 31.0049C48.715 31.6963 49.0485 32.6078 49.4446 33.4773C50.1638 35.0383 51.0498 36.4421 52.3944 37.5421C52.9885 38.024 53.4576 38.6421 53.8536 39.2917C54.8543 40.9469 56.1884 42.2775 57.7415 43.3565C59.0757 44.2784 59.7219 45.6299 60.2535 47.0023Z" fill="#D099C0"/>
<path d="M44.0312 25.0867C44.3654 25.24 44.5817 25.4919 44.7979 26.0067C44.3458 25.7657 44.1983 25.4043 44.0312 25.0867Z" fill="#F2B3DF"/>
<path d="M34.3711 5.46002C34.6317 5.83926 34.7502 6.22903 34.6317 6.84002C34.5251 6.26063 34.454 5.86033 34.3711 5.46002Z" fill="#F2B3DF"/>
<path d="M35.2652 8.98231C35.1062 8.70675 34.8279 8.45088 35.0963 8.0966C35.1162 8.06708 35.2354 8.05724 35.2553 8.07692C35.4938 8.35248 35.4541 8.66739 35.4143 8.98231C35.3149 8.98231 35.2652 8.99215 35.2652 8.98231Z" fill="#F2B3DF"/>
<path d="M36.0576 8.83334C36.5339 9.563 36.6179 10.0706 36.4125 10.98C35.8802 10.3032 36.1323 9.563 36.0576 8.83334Z" fill="#F2B3DF"/>
<path d="M15.759 22.8306C14.9649 24.1489 14.3589 25.5405 13.9201 27.0157C13.4917 28.4805 13.3454 29.9453 13.8051 31.431C13.8365 31.5357 13.941 31.6717 13.7215 31.7659C13.5857 31.6403 13.4499 31.5043 13.3036 31.3787C13.1782 31.2741 13.0215 31.1799 12.8543 31.2741C12.6453 31.3996 12.6767 31.588 12.7185 31.7972C12.7707 32.0693 13.0215 32.2995 12.9379 32.6552C12.4155 32.3936 12.1647 31.9646 11.9766 31.5043C11.7677 30.9811 11.6005 30.4371 11.4124 29.9139C10.0645 26.2206 11.6527 23.1968 13.5962 20.2463C13.6484 20.1626 13.732 20.0998 13.8051 20.0371C14.9231 19.0326 16.062 18.0805 17.5248 17.5992C18.1831 17.3795 18.81 17.0447 19.3742 16.6471C20.6803 15.7159 22.1118 15.0254 23.5955 14.429C24.5463 14.0419 25.4867 13.6129 26.3539 13.0584C26.6465 12.87 26.9913 12.7131 27.0435 12.2946C26.939 12.2737 26.8555 12.2318 26.8241 12.2527C25.6748 13.1316 24.3478 13.6652 23.0417 14.2197C21.9759 14.6696 20.8788 15.0777 19.9385 15.7787C18.5384 16.825 16.877 17.2853 15.2679 18.091C15.4456 17.3063 15.8008 16.7413 16.3233 16.2704C16.8875 15.7578 17.5144 15.3183 18.1518 14.8998C20.1788 13.592 22.4461 12.8282 24.7135 12.0749C25.6016 11.7819 26.4689 11.4575 27.2107 10.8716C27.4197 10.7042 27.6182 10.5368 27.8585 10.4008C28.1929 10.2125 28.1615 10.9553 28.5272 10.7147C29.0079 9.4173 29.29 8.10945 29.3631 6.72836C29.4258 5.37866 29.6452 4.02896 29.8333 2.68972C29.9587 1.81085 30.2199 1.62251 31.0976 1.66436C31.7559 1.69575 32.4246 1.78992 33.0828 1.6539C33.5948 1.54927 33.7411 1.74807 33.7202 2.21889C33.6366 3.41165 33.9292 4.59395 33.9396 5.78671C33.9501 6.64466 34.0441 7.54447 34.4307 8.31871C35.1516 9.75212 35.5487 11.2064 35.2352 12.8177C35.2039 13.0061 35.2143 13.2467 35.4547 13.3095C35.695 13.3722 35.789 13.1734 35.9249 13.0165C36.301 12.5771 36.301 11.9388 36.6981 11.5203C37.1578 11.0181 37.1682 10.4531 37.0115 9.84628C36.9279 9.52193 36.8652 9.18712 36.7921 8.86277C37.4504 9.36499 37.9937 9.89859 38.6624 10.2648C39.4774 10.7042 40.2715 11.196 41.0969 11.6145C44.242 13.2258 46.8959 15.4439 49.2886 18.0177C49.9991 18.7815 50.1872 19.6918 50.2917 20.7485C49.1841 20.2149 48.3692 19.5034 47.6064 18.7187C46.6033 17.6829 45.4958 16.8145 44.2106 16.1449C43.0717 15.538 41.9746 14.837 41.1178 13.8431C41.0969 13.8221 41.0029 13.864 40.8984 13.8849C40.8984 14.3767 41.2536 14.6382 41.5671 14.9103C42.3508 15.5904 43.218 16.1449 44.127 16.6262C45.2032 17.1912 46.1227 17.9236 46.969 18.771C47.5751 19.3884 48.1497 20.058 48.8916 20.5079C50.2186 21.3031 51.1589 22.433 51.8903 23.7618C52.162 24.2536 52.4546 24.7348 52.768 25.2057C53.1442 25.7707 53.374 26.388 53.5203 27.0367C53.7397 28.0411 53.8965 29.0665 53.9696 30.0918C54.0323 30.9811 54.0114 32.4564 53.6875 33.3353C53.6562 33.4294 53.6353 33.5341 53.6666 33.6178C52.7053 32.697 51.6082 31.7868 50.3335 31.0858C49.8111 30.8033 49.3095 30.4685 48.8289 30.1127C47.7109 29.2652 46.7078 28.3236 46.1018 27.0157C45.6839 26.1159 45.2241 25.2371 44.4405 24.5674C42.0791 22.5167 39.864 20.33 38.2758 17.5783C37.9832 17.0656 37.5862 16.6053 37.2309 16.124C37.1369 15.9879 37.022 15.8729 36.8966 15.7578C36.8548 15.7264 36.7712 15.7159 36.7189 15.7368C36.6145 15.7787 36.5727 15.8833 36.6145 15.9775C36.6772 16.124 36.7816 16.26 36.8757 16.396C38.5788 18.8443 40.1252 21.4181 42.403 23.4165C43.0508 23.9815 42.9463 24.7139 42.7478 25.4254C42.6642 25.7393 42.4552 26.0218 42.2881 26.3043C41.1596 28.2085 40.4178 30.2592 40.0312 32.4355C39.7177 34.2351 39.3729 36.0242 39.049 37.8133C38.537 36.7252 38.2549 35.5848 38.1609 34.3816C37.9101 31.0648 37.5235 27.7586 36.5204 24.5779C35.7995 22.2865 35.2979 19.9533 34.8486 17.6097C34.8173 17.4109 34.7651 17.2226 34.7024 17.0342C34.6919 16.9924 34.6083 16.9401 34.5561 16.9296C34.4412 16.9087 34.368 17.0028 34.3471 17.097C34.3262 17.2226 34.3262 17.3586 34.3576 17.4946C34.7546 19.3779 34.974 21.3031 35.5905 23.134C36.5413 25.9171 36.9802 28.8049 37.3877 31.6926C37.4399 32.0693 37.3877 32.3099 36.9906 32.4669C36.2592 32.7494 35.7159 33.2934 35.2561 33.9107C34.9949 34.2665 34.6919 34.5594 34.3053 34.7791C33.5635 35.2081 32.8216 35.658 32.0589 36.0661C31.0767 36.5997 30.0423 36.8822 28.9138 36.8299C27.9108 36.788 26.9286 36.9031 25.9464 37.1123C25.2986 37.2484 24.6403 37.3111 23.9821 37.4053C23.8254 37.4262 23.6164 37.5309 23.5328 37.3425C23.2089 36.6101 22.373 36.1498 22.4043 35.2081C22.4252 34.7164 22.2894 34.2246 22.2685 33.7224C22.1327 30.7614 22.5611 27.8946 23.6373 25.1324C24.8493 22.0041 26.0614 18.8757 27.2839 15.7578C27.5764 15.0149 27.9317 14.3034 28.3914 13.6443C28.4854 13.4978 28.684 13.3408 28.3601 13.1211C27.7436 13.728 27.357 14.5022 27.0331 15.2974C25.6748 18.6873 24.3269 22.0773 23.0208 25.4882C22.467 26.9425 22.0386 28.4491 21.8819 30.0186C21.7147 31.7345 21.6103 33.4608 21.8715 35.1872C21.9028 35.4069 22.0073 35.6685 21.7565 35.8254C21.4953 35.9928 21.2341 35.8673 21.0147 35.6999C20.7744 35.522 20.5758 35.3023 20.346 35.1035C20.0848 34.8733 19.7922 34.664 19.4474 34.8314C18.8623 35.1349 18.6846 34.7477 18.4757 34.3397C18.3712 34.1304 18.2876 33.9107 18.1518 33.7224C17.9637 33.4504 17.7443 33.4085 17.5144 33.6805C17.4204 33.7956 17.4099 34.0154 17.1173 33.9107C16.9711 33.6596 16.8039 33.3771 16.6367 33.0946C16.5009 32.8644 16.3964 32.6238 16.0829 32.5715C15.7695 32.5192 15.7068 32.9063 15.4038 32.9272C15.3097 32.7598 15.247 32.5087 15.1008 32.4355C14.432 32.1111 14.3589 31.4729 14.1813 30.8765C13.941 30.029 13.941 29.1815 14.0977 28.3131C14.3589 26.8902 14.8291 25.551 15.4769 24.2745C16.6158 22.0564 18.0055 19.9847 19.5832 18.0491C19.7504 17.8399 19.9385 17.662 20.1161 17.4632C20.2101 17.369 20.3042 17.2435 20.1997 17.1179C20.0534 16.9401 19.8862 17.0552 19.7713 17.1702C19.5623 17.3795 19.3638 17.6097 19.1757 17.8399C17.9323 19.4198 16.8039 21.0938 15.759 22.8306Z" fill="#F2B3DF"/>
<path d="M53.6914 33.6733C53.7451 33.727 53.7987 33.773 53.8447 33.8267C53.7604 33.796 53.7144 33.7347 53.6914 33.6733Z" fill="#F2B3DF"/>
<path d="M20.2202 17.4726C20.0424 17.6714 19.8541 17.8493 19.6868 18.0585C18.1178 20.0045 16.7161 22.0656 15.5759 24.2837C14.9274 25.5601 14.4463 26.8993 14.1952 28.3222C14.0383 29.1906 14.0383 30.038 14.2789 30.8855C14.4462 31.4818 14.5195 32.1201 15.1994 32.4444C15.3458 32.5176 15.4086 32.7687 15.5027 32.9361C15.7956 32.9152 15.8688 32.5281 16.1826 32.5804C16.4964 32.6327 16.601 32.8733 16.737 33.1035C16.9044 33.386 17.0717 33.6685 17.2182 33.9196C17.5111 34.0242 17.5215 33.794 17.6157 33.6894C17.8458 33.4069 18.0759 33.4592 18.2537 33.7313C18.3792 33.9196 18.4734 34.1393 18.578 34.3486C18.7767 34.7461 18.965 35.1332 19.5508 34.8403C19.8855 34.6624 20.1889 34.8821 20.4504 35.1123C20.67 35.3111 20.8792 35.5308 21.1198 35.7087C21.329 35.8656 21.601 35.9912 21.8625 35.8342C22.1031 35.6773 22.0089 35.4157 21.9775 35.196C21.716 33.4697 21.8206 31.7539 21.988 30.0276C22.1449 28.4687 22.5738 26.9516 23.1282 25.4973C24.4357 22.0866 25.7955 18.6967 27.1448 15.3069C27.4586 14.5118 27.8457 13.748 28.4733 13.1307C28.7975 13.3504 28.6093 13.5178 28.5046 13.6538C28.0549 14.313 27.6888 15.0244 27.3959 15.7673C26.172 18.8851 24.9587 22.0133 23.7453 25.1416C22.6679 27.9037 22.239 30.7809 22.375 33.7313C22.3959 34.2335 22.5319 34.7252 22.511 35.2169C22.4796 36.1586 23.3164 36.6189 23.6407 37.3513C23.7244 37.5396 23.9336 37.435 24.0905 37.4141C24.7495 37.3199 25.4085 37.2571 26.057 37.1211C27.0402 36.9119 28.0235 36.7968 29.0277 36.8386C30.1573 36.8909 31.2034 36.6084 32.1762 36.0749C32.9398 35.6668 33.672 35.2169 34.4251 34.788C34.8017 34.5683 35.1155 34.2753 35.377 33.9196C35.8372 33.3023 36.3811 32.7583 37.1133 32.4758C37.5108 32.3188 37.5631 32.0782 37.5108 31.7016C37.0924 28.8035 36.6635 25.9263 35.7117 23.1433C35.0841 21.3123 34.8644 19.3873 34.4774 17.504C34.446 17.3785 34.446 17.2424 34.4669 17.1064C34.4774 17.0123 34.5506 16.9181 34.6761 16.939C34.7284 16.9495 34.8121 16.9914 34.8226 17.0437C34.8853 17.232 34.9272 17.4308 34.969 17.6191C35.4083 19.9732 35.9209 22.2958 36.6426 24.5871C37.6468 27.7677 38.0338 31.0738 38.2849 34.3904C38.379 35.5936 38.6614 36.734 39.174 37.8221C39.5087 36.0225 39.8434 34.2335 40.1572 32.4444C40.5443 30.2577 41.2869 28.2176 42.4166 26.3134C42.584 26.0309 42.7932 25.7484 42.8769 25.4346C43.0756 24.7231 43.1698 23.9803 42.5317 23.4258C40.2514 21.4274 38.7033 18.8537 36.9983 16.4055C36.9041 16.2694 36.7995 16.1334 36.7368 15.987C36.6949 15.8928 36.7472 15.7882 36.8414 15.7463C36.8937 15.7254 36.9878 15.7359 37.0192 15.7673C37.1343 15.8823 37.2493 15.9974 37.3539 16.1334C37.7096 16.6147 38.1071 17.0751 38.3999 17.5877C39.9899 20.3289 42.197 22.526 44.5714 24.5766C45.3559 25.2567 45.8162 26.1251 46.2346 27.0248C46.8412 28.3327 47.8454 29.2847 48.9647 30.1217C49.4458 30.4774 49.9479 30.8123 50.4709 31.0947C51.747 31.7957 52.8454 32.706 53.8077 33.6266C53.8286 33.7208 53.9018 33.794 54.0169 33.8359C53.9437 33.7627 53.8704 33.6999 53.8077 33.6266C53.7868 33.5429 53.7972 33.4383 53.8286 33.3442C54.1529 32.4653 54.1738 30.9901 54.111 30.1008C54.0378 29.0755 53.8809 28.0502 53.6612 27.0458C53.5253 26.3971 53.2847 25.7798 52.9081 25.2148C52.5943 24.744 52.3014 24.2628 52.0295 23.771C51.2973 22.4423 50.3559 21.3124 49.0274 20.5172C48.2847 20.0673 47.7199 19.3977 47.1028 18.7804C46.2555 17.9225 45.3245 17.1901 44.2576 16.6356C43.3476 16.1544 42.4794 15.5999 41.6949 14.9198C41.3811 14.6478 41.0254 14.3862 41.0254 13.8945C41.13 13.8735 41.2242 13.8317 41.2451 13.8526C42.1028 14.857 43.2011 15.558 44.3413 16.1544C45.6174 16.824 46.7366 17.6923 47.7408 18.7281C48.5044 19.5233 49.3308 20.2242 50.4291 20.7578C50.3245 19.7011 50.1362 18.7909 49.4249 18.0271C47.0295 15.4534 44.3727 13.2353 41.2242 11.6241C40.3978 11.2056 39.6028 10.7139 38.787 10.2745C38.107 9.90828 37.5631 9.37469 36.9146 8.87249C36.9878 9.19683 37.0506 9.53163 37.1343 9.85597C37.2912 10.4628 37.2807 11.0278 36.8204 11.53C36.423 11.9485 36.4334 12.5867 36.0464 13.0261C35.9209 13.1726 35.8163 13.3818 35.5757 13.319C35.3247 13.2563 35.3142 13.0156 35.356 12.8273C35.6698 11.2161 35.2619 9.76181 34.5506 8.32845C34.1636 7.55423 34.0694 6.66491 34.059 5.79653C34.0485 4.60381 33.7556 3.42156 33.8393 2.22884C33.8707 1.75803 33.7138 1.55924 33.2012 1.66386C32.5423 1.79988 31.8728 1.70571 31.2138 1.67432C30.3352 1.63247 30.0737 1.8208 29.9482 2.69965C29.7599 4.03884 29.5402 5.3885 29.4774 6.73815C29.4147 8.11919 29.1218 9.427 28.6406 10.7243C28.2745 10.9545 28.3059 10.2221 27.9712 10.4105C27.7411 10.536 27.5319 10.7139 27.3227 10.8813C26.58 11.4672 25.7118 11.7915 24.8227 12.0845C22.5528 12.8378 20.283 13.6015 18.2537 14.9093C17.6052 15.3278 16.9881 15.7673 16.4232 16.2799C15.9002 16.7507 15.5341 17.3157 15.3667 18.1004C16.9671 17.2948 18.6408 16.8344 20.0424 15.7882C20.9838 15.0872 22.0821 14.6791 23.1491 14.2293C24.467 13.6748 25.785 13.1412 26.9356 12.2623C26.967 12.2414 27.0507 12.2833 27.1553 12.3042C27.103 12.7227 26.7578 12.8796 26.4649 13.0679C25.5967 13.6224 24.6553 14.0619 23.7035 14.4385C22.2181 15.0349 20.7851 15.7254 19.4776 16.6566C18.9023 17.0646 18.2851 17.3994 17.6261 17.6086C16.1617 18.0899 15.0216 19.042 13.9023 20.0464C13.8291 20.1092 13.7454 20.1719 13.6931 20.2556C11.7475 23.2061 10.1471 26.2297 11.5069 29.9229C11.7057 30.4565 11.8626 30.9901 12.0718 31.5132C12.2601 31.9736 12.5007 32.4025 13.0341 32.6641C13.1178 32.3084 12.8668 32.0782 12.8145 31.8062C12.7726 31.5969 12.7412 31.4086 12.9505 31.2831C13.1283 31.1889 13.2747 31.2831 13.4002 31.3877C13.5467 31.5132 13.6827 31.6492 13.8186 31.7748C14.0383 31.6806 13.9337 31.5446 13.9023 31.44C13.4421 29.9543 13.5885 28.4896 14.0174 27.0248C14.4567 25.5496 15.0634 24.1581 15.8584 22.8399C16.9044 21.1031 18.0341 19.4186 19.3207 17.8493C19.509 17.6191 19.7077 17.3889 19.9169 17.1797C20.032 17.0646 20.1889 16.9495 20.3458 17.1274C20.4085 17.2425 20.3039 17.368 20.2202 17.4726ZM34.2577 0.649011C34.6761 0.366525 35.1678 0.74317 35.0841 1.33953C34.8749 2.83566 35.2514 4.24809 35.7535 5.61867C36.4543 7.55423 37.6573 9.09221 39.5296 10.0548C40.7744 10.693 41.9877 11.3626 43.2011 12.0531C45.7848 13.4969 47.8977 15.5162 49.9061 17.64C50.3245 18.0795 50.6592 18.5712 50.7743 19.178C51.1404 21.1031 51.9249 22.8399 53.0755 24.4197C53.8391 25.4659 54.2366 26.6377 54.4248 27.9142C54.6027 29.0964 54.7596 30.2787 54.77 31.4818C54.77 31.984 54.5817 33.0512 54.3935 33.5325C54.3202 33.7313 54.2156 33.9091 53.9646 33.8359C54.5085 34.3695 55.0001 34.9031 55.4604 35.3948C56.2658 36.2736 57.1445 37.0897 58.1486 37.7489C58.452 37.9476 58.6298 38.1987 58.7867 38.4812C59.8223 40.2703 61.0042 41.9234 62.5419 43.3463C63.6611 44.382 64.1841 45.8573 64.1109 47.4057C64.0377 49.132 63.8285 50.8374 63.8389 52.5741C63.8389 53.9238 63.1277 54.698 61.8097 55.0433C61.1925 55.2002 60.5649 55.2735 59.9373 55.2839C59.6654 55.2944 59.3306 55.3362 59.1946 55.0956C58.9227 54.6039 58.4938 54.698 58.0754 54.6562C56.3286 54.4783 54.5817 54.2795 52.8244 54.0912C50.2512 53.8192 48.2638 52.3754 46.3601 50.806C45.8998 50.4293 45.4396 50.0318 45.0735 49.561C43.0965 47.0604 40.9731 44.675 39.5401 41.7874C39.4669 41.6409 39.3832 41.5049 39.3204 41.4002C39.1531 41.3689 39.0589 41.4316 39.0485 41.5258C38.902 42.6139 38.6196 43.6601 38.2535 44.7064C38.0757 45.219 37.7723 45.648 37.5527 46.1188C36.7891 47.7405 35.9732 49.3308 35.0527 50.8792C33.7661 53.045 31.7264 53.8715 29.4042 54.1017C27.7201 54.2691 26.0256 53.9238 24.3624 53.6309C23.1177 53.4111 22.2077 52.6369 21.4127 51.7267C20.2621 50.4189 20.6491 50.6281 19.1219 51.2036C18.5675 51.4128 18.0131 51.643 17.4588 51.8627C17.2705 51.9359 17.0613 52.0301 16.9148 51.8522C16.7579 51.6535 16.9462 51.4965 17.0717 51.3396C17.1136 51.2873 17.1345 51.2245 17.2391 51.0362C16.7266 51.2559 16.3186 51.4337 15.9107 51.6011C15.5341 51.7581 15.168 51.8941 14.8542 51.4442C14.6031 51.0885 14.1324 51.1931 13.7768 51.0152C13.5467 50.9002 13.3793 51.1931 13.2433 51.371C12.9086 51.7895 12.5948 52.2184 12.2601 52.6264C12.1136 52.8043 11.9254 52.9822 11.6534 52.8462C11.3919 52.7102 11.4233 52.4486 11.4756 52.2289C11.5697 51.8104 11.7057 51.4024 11.8312 50.9734C11.2245 50.5654 10.5865 50.4084 9.88563 50.3561C9.1325 50.2933 8.34799 50.2306 7.99235 49.3517C7.84591 49.0065 7.41704 49.0797 7.1137 48.996C6.68483 48.8704 6.0154 48.9437 5.97355 48.4101C5.92125 47.7719 6.65346 47.9497 7.04048 47.7719C7.23922 47.6777 7.51118 47.73 7.689 47.4475C7.33336 47.3534 6.99864 47.2697 6.66392 47.186C6.30828 47.0918 5.93171 46.9977 5.71205 46.6838C5.50285 46.3804 5.2518 46.2444 4.89616 46.192C4.59281 46.1502 4.26854 46.0351 4.23716 45.6899C4.20578 45.3237 4.54052 45.219 4.82294 45.1144C4.87524 45.0935 4.90661 45.0307 5.01122 44.8947C4.19533 44.5076 3.3899 44.1205 2.69953 43.5764C2.34389 43.2939 1.45478 43.1684 2.16607 42.3523C2.28113 42.2163 2.04054 42.0908 1.92548 41.9861C1.65352 41.7455 1.35018 41.5258 1.13051 41.2433C0.774869 40.783 0.942226 40.3854 1.51753 40.3435C2.00916 40.3122 2.51125 40.3854 3.01333 40.3854C3.756 40.3854 3.92337 40.1029 3.51543 39.4856C3.30622 39.1508 3.01334 38.8683 2.78322 38.544C2.67862 38.408 2.65769 38.2301 2.79367 38.0941C2.94012 37.9476 3.11793 38.0209 3.233 38.136C3.63048 38.5335 3.99659 38.9625 4.41499 39.3496C4.61374 39.5379 4.86478 39.8937 5.15766 39.6635C5.41916 39.4647 5.24135 39.109 5.13674 38.8265C5.01122 38.4917 4.85432 38.1569 4.73926 37.8116C4.68695 37.6442 4.72879 37.4768 4.90661 37.3931C5.08444 37.3094 5.23089 37.3827 5.34595 37.5187C5.55515 37.7802 5.63882 38.115 5.75388 38.4185C6.08861 39.2868 6.60116 39.946 7.38567 40.5005C7.7204 40.3017 7.62625 39.9355 7.72039 39.6321C7.85637 39.2031 8.15972 39.1299 8.43168 39.4961C8.78733 39.9669 9.10113 40.49 9.44631 40.9713C9.64505 41.2433 9.8961 41.5049 10.2831 41.3898C11.0153 41.1701 11.3919 41.599 11.7475 42.1222C11.8731 42.3105 11.9672 42.5302 12.2078 42.6662C12.5425 42.457 12.7412 42.1117 13.0028 41.8292C12.8772 41.4526 12.553 41.327 12.2915 41.1282C11.35 40.3959 10.4086 39.653 9.54045 38.837C9.05929 38.3766 8.59904 37.8953 8.25385 37.3199C8.06557 37.006 7.90867 36.6712 7.87729 36.305C7.85637 35.9598 7.8773 35.625 8.22248 35.4367C8.56766 35.2483 8.88146 35.3739 9.13251 35.6145C9.39401 35.8656 9.62413 36.1586 9.87517 36.4201C9.95885 36.5143 10.0948 36.6294 10.189 36.6294C10.9212 36.5875 10.9212 36.5875 11.35 37.0793C11.4128 37.1525 11.507 37.1839 11.5802 37.2362C11.8312 37.1525 11.8417 36.9432 11.894 36.7549C11.9672 36.5143 11.9567 36.169 12.2915 36.1376C12.6471 36.1062 12.6785 36.441 12.7726 36.6712C12.9609 37.1316 13.1701 37.5919 13.5153 37.9581C13.6617 38.1255 13.8186 38.3557 14.0906 38.2511C14.3103 38.1674 14.2893 37.9267 14.3207 37.7384C14.3521 37.571 14.3626 37.4036 14.3835 37.2467C14.4044 37.1106 14.4672 36.9851 14.6136 36.9537C14.8019 36.9119 14.9379 37.0269 15.0006 37.1943C15.1994 37.7279 15.4086 38.251 15.7538 38.7009C15.8584 38.8474 15.9839 39.0881 16.2245 38.9311C16.4023 38.816 16.465 38.6068 16.3709 38.3975C16.0676 37.7698 15.7538 37.1525 15.419 36.5352C15.0529 35.8656 14.645 35.2169 14.2789 34.5473C13.9651 33.9824 13.7873 33.3965 12.9191 33.3232C12.3961 33.2814 11.9672 32.706 11.7475 32.1828C11.0153 30.5088 10.3563 28.8035 10.4505 26.9098C10.4819 26.3029 10.5446 25.717 10.7329 25.1416C11.1513 23.9175 11.6116 22.7038 12.1764 21.5425C12.553 20.7474 13.076 20.0673 13.7454 19.5023C14.1011 19.1989 14.3626 18.8746 14.4881 18.3724C14.76 17.3157 15.3981 16.4682 16.2349 15.7673C17.6157 14.5955 19.1638 13.7061 20.8269 13.0156C22.239 12.4402 23.6721 11.8961 25.1365 11.4776C26.5068 11.0905 27.4691 10.1071 28.5465 9.30145C28.8289 9.0922 28.8289 8.7051 28.8603 8.38076C28.9963 7.06249 29.1113 5.73376 29.2578 4.41549C29.331 3.72497 29.4356 3.03444 29.582 2.35438C29.8017 1.37091 30.2201 1.06751 31.2138 1.18259C32.2808 1.30814 33.3058 1.29768 34.2577 0.649011ZM63.0754 51.507C63.3787 51.2663 63.2323 50.942 63.1904 50.6386C63.1904 50.6386 63.1381 50.6386 63.0858 50.6386C62.9289 50.8897 62.6883 51.1303 62.8138 51.4756C62.8243 51.5174 63.0231 51.5488 63.0754 51.507ZM61.8097 54.3841C62.772 54.1121 63.0858 53.6832 63.1904 52.5323C62.8975 52.7311 62.7302 52.9089 62.7302 53.1496C62.6988 53.8087 62.249 53.9552 61.7365 54.0598C61.3808 54.1331 61.0147 54.1644 60.6591 54.0494C60.4812 53.997 60.2302 53.8715 60.2093 54.1854C60.1988 54.4155 60.3662 54.6352 60.6591 54.5934C61.0252 54.5411 61.4227 54.4992 61.8097 54.3841ZM63.0021 45.2504C62.6883 44.1937 62.6256 44.0472 61.8724 43.3672C60.9624 42.5302 60.1674 41.6095 59.5294 40.5423C58.9227 39.5379 58.1486 38.7009 57.2595 37.9372C56.3077 37.1106 55.3976 36.2527 54.519 35.3425C53.6717 34.4741 52.9081 33.4802 51.8726 32.8001C51.0462 32.2456 50.1989 31.7225 49.3517 31.1994C49.2157 31.1157 49.0797 30.8855 48.8391 31.1261C49.3831 31.9945 49.8015 32.9361 50.2512 33.8568C50.8161 35.0391 51.5588 36.0853 52.5734 36.9328C53.2324 37.4873 53.8391 38.1255 54.2784 38.8683C55.3139 40.5737 56.747 41.892 58.3369 43.0533C59.1842 43.6811 59.8327 44.4553 60.2407 45.4283C60.4499 45.9305 60.7218 46.4013 61.1089 46.8407C61.7992 45.5015 61.8097 45.5015 63.0021 45.2504ZM61.726 51.7058C62.113 51.0257 62.5314 50.3561 62.5733 49.5505C62.0607 50.1887 61.8097 50.9106 61.726 51.7058ZM61.1298 50.5863C61.998 49.0692 61.9457 47.4266 62.6674 46.0351C61.7678 46.3908 61.7469 47.2697 61.5691 48.023C61.3808 48.7972 61.1402 49.5819 61.1298 50.5863ZM61.1821 53.4634C61.4017 53.4739 61.5273 53.4007 61.5063 53.1914C61.4854 53.0345 61.454 52.8252 61.2658 52.8357C61.0356 52.8357 60.9938 53.0763 60.9624 53.2542C60.931 53.4111 61.067 53.453 61.1821 53.4634ZM60.5336 49.7911C60.816 48.7972 60.68 47.8242 60.3453 46.9767C59.8118 45.6061 59.1633 44.2565 57.8453 43.3463C56.2867 42.2686 54.9374 40.9294 53.9437 39.2868C53.5462 38.6382 53.065 38.0209 52.4793 37.5396C51.1299 36.441 50.2303 35.0286 49.519 33.4802C49.1111 32.6118 48.7764 31.6911 48.0651 31.011C47.9709 30.9169 47.8873 30.7913 47.9396 30.6553C48.086 30.2787 47.814 30.1113 47.6048 29.902C47.0923 29.3894 46.5065 28.9395 46.0777 28.364C45.335 27.3701 44.3204 26.6691 43.5463 25.5601C42.2283 27.527 41.3183 29.4731 40.8267 31.5969C40.3037 33.8568 39.9271 36.1481 39.5505 38.4394C39.3309 39.7576 39.561 40.9399 40.2095 42.0699C40.6175 42.7918 41.015 43.5241 41.517 44.1833C42.1656 45.0307 42.8769 45.8154 43.4836 46.6942C44.9375 48.7972 46.7157 50.5444 48.8705 51.9359C49.8328 52.5637 50.8266 53.0763 51.9458 53.2751C54.1947 53.6832 56.475 53.9343 58.7658 54.0389C59.2888 54.0598 59.5503 53.882 59.6967 53.3798C60.0105 52.187 60.1988 50.9629 60.5336 49.7911ZM44.9166 25.9577C44.6969 25.4659 44.4563 25.2253 44.1007 25.0788C44.2785 25.3822 44.4354 25.7275 44.9166 25.9577ZM38.6614 40.4691C38.787 40.1448 38.7242 39.8204 38.6614 39.4961C38.2953 37.5082 37.469 35.625 37.3225 33.5848C37.3016 33.2605 37.1133 33.1768 36.8518 33.3442C36.6322 33.4906 36.3916 33.6476 36.2451 33.8568C35.3769 35.1646 34.0067 35.7924 32.7096 36.5248C31.4649 37.2257 30.1364 37.5815 28.7034 37.5187C26.9984 37.4454 25.3562 37.979 23.6825 38.1674C23.5256 38.1883 23.3478 38.2406 23.2118 38.3243C22.1763 38.9311 21.078 39.2136 19.8855 39.0462C19.8855 39.1404 19.8751 39.1822 19.8855 39.2031C19.9692 39.3078 20.0424 39.4124 20.1366 39.5065C21.1826 40.4377 21.852 41.599 22.2704 42.9278C22.4378 43.4613 22.6784 43.9845 22.9294 44.4867C23.6198 45.8468 24.5926 46.8721 26.1616 47.2174C26.6846 47.3325 27.1658 47.5731 27.5632 47.9393C28.3477 48.6507 29.2578 48.7658 30.262 48.6089C31.0778 48.4833 31.8937 48.2741 32.7305 48.3264C33.651 48.3892 34.4146 48.0648 35.0736 47.4266C35.4083 47.1023 35.7849 46.8198 36.0882 46.4745C37.1238 45.3027 38.0234 44.0472 38.2326 42.4256C38.3267 41.756 38.4104 41.0864 38.6614 40.4691ZM36.4125 10.965C36.6426 10.0652 36.5485 9.55255 36.015 8.8411C36.1092 9.56301 35.8267 10.2954 36.4125 10.965ZM35.9523 47.5522C35.6698 47.7823 35.3979 48.0125 35.1155 48.2427C34.6447 48.6298 34.1008 48.9227 33.4837 48.9123C32.2494 48.8914 31.036 49.132 29.8122 49.2366C28.9126 49.3203 28.0967 49.132 27.4063 48.5147C26.9252 48.0858 26.3708 47.7928 25.7536 47.6359C24.4566 47.2906 23.5361 46.485 22.8562 45.355C22.4378 44.6645 22.0717 43.9635 21.8416 43.1998C21.2976 41.4212 20.3981 39.925 18.6617 39.0671C18.5048 38.9834 18.3583 38.837 18.5048 38.68C18.9127 38.2511 18.4316 38.1464 18.2537 37.9372C18.2014 37.8744 18.0654 37.8535 17.9922 37.8744C17.8458 37.9162 17.8249 38.0732 17.8458 38.1987C17.8981 38.6486 18.1282 38.9939 18.4629 39.2973C18.6198 39.4333 18.6931 39.7158 18.4211 39.7576C17.8144 39.8309 17.8981 40.2598 17.8876 40.6469C17.8353 42.2896 18.306 43.8275 18.7454 45.3864C19.0069 46.3071 19.4985 47.1651 19.4566 48.1694C19.4462 48.3473 19.5822 48.5461 19.6972 48.703C20.4399 49.8121 21.2349 50.8688 22.1867 51.7999C22.7934 52.3858 23.4629 52.8671 24.3206 53.0136C26.0256 53.2961 27.7411 53.6413 29.467 53.4634C31.2347 53.2751 32.9293 52.7415 34.0485 51.1931C34.8435 50.0841 35.5025 48.8914 35.9523 47.5522ZM35.4397 8.98758C35.4816 8.65278 35.5234 8.31799 35.2724 8.02504C35.2514 8.00411 35.1259 8.01457 35.105 8.04596C34.833 8.42261 35.1259 8.69463 35.2828 8.98758C35.2933 8.99804 35.3456 8.98758 35.4397 8.98758ZM34.6552 6.88463C34.7598 6.27781 34.6552 5.8907 34.4251 5.51405C34.4983 5.91162 34.5611 6.30919 34.6552 6.88463ZM34.5401 2.84613C34.5297 2.60549 34.5192 2.45901 34.5088 2.24976C34.4251 2.45901 34.3728 2.61595 34.5401 2.84613ZM21.7683 38.2929C22.0717 38.1987 22.4064 38.1046 22.375 37.6338C22.3227 36.9746 22.1449 36.598 21.6428 36.5352C21.1198 36.462 20.6909 36.2632 20.3458 35.8761C20.0633 35.5622 19.7914 35.332 19.3207 35.625C19.0382 35.8028 18.714 35.6773 18.5257 35.4157C18.2224 35.0077 17.9399 34.6624 17.3332 34.8089C17.0927 34.8717 16.8939 34.5473 16.737 34.3276C16.4546 33.9301 16.2977 33.3023 15.5759 33.8045C15.419 33.9196 15.2203 33.6999 15.0529 33.5743C14.8542 33.4279 14.6345 33.3965 14.3521 33.5534C14.9693 35.1332 16.0362 36.4829 16.7266 38.0209C16.7998 38.1778 16.9462 38.2615 17.1345 38.2615C17.1659 38.2406 17.1973 38.2301 17.2182 38.1987C17.2705 38.115 17.3332 38.0313 17.3646 37.9476C17.7726 36.8909 17.9295 36.8491 18.7767 37.5815C18.829 37.6233 18.8813 37.6651 18.9232 37.7175C19.7286 38.6068 20.7223 38.6068 21.7683 38.2929ZM19.4776 50.5967C20.1784 50.2829 20.2098 50.2515 19.7391 49.6028C18.7454 48.2427 17.9609 46.7884 17.7516 45.104C17.668 44.403 17.3332 44.0472 16.6638 43.9112C15.6178 43.6915 14.5613 43.4823 13.735 42.7081C13.4002 42.3942 13.1806 42.5406 12.9191 42.8441C12.2078 43.6706 12.03 43.6497 11.3814 42.7394C11.2664 42.572 11.1513 42.4151 11.0467 42.2477C10.9003 42.0385 10.712 41.9234 10.4505 42.0071C9.74965 42.2163 9.32079 41.7978 8.9233 41.3375C8.7141 41.0864 8.51536 40.8248 8.30615 40.5737C7.59487 41.2956 7.3229 41.3689 6.73714 40.8667C6.26643 40.4691 5.90033 39.8204 5.1472 40.4063C5.07398 40.4586 4.88569 40.3959 4.76017 40.3435C4.54051 40.2598 4.39407 40.3122 4.26855 40.5214C3.97567 40.9713 3.51542 40.9922 3.03425 41.0027C2.66815 41.0131 2.28113 40.8562 1.84181 41.0968C2.49033 41.7141 3.21207 42.0594 3.8606 42.5093C4.08026 42.6557 4.31039 42.7917 4.41499 43.0533C4.53006 43.3567 4.06981 43.43 4.14303 43.7334C4.79156 44.1623 5.52377 44.382 6.23506 44.6541C6.42334 44.7273 6.61162 44.8319 6.62208 45.0621C6.63254 45.3027 6.4338 45.3864 6.24552 45.4701C6.13045 45.5225 5.98401 45.512 5.88987 45.7317C6.43379 45.7317 6.9568 45.7212 7.4798 45.7317C7.64716 45.7317 7.825 45.7945 7.85638 45.9828C7.88776 46.2339 7.69947 46.3071 7.49027 46.3595C7.27061 46.4118 6.99864 46.2548 6.82082 46.5373C7.37521 46.7884 8.00281 46.7361 8.56766 46.914C8.7664 46.9767 8.95469 47.0604 9.00699 47.2697C9.06975 47.5417 8.89192 47.7091 8.67226 47.8137C8.30615 47.9916 7.92959 48.1485 7.55303 48.3159C8.02374 48.5147 8.47352 48.567 8.9233 48.5984C9.48815 48.6403 10.053 48.6717 10.6074 48.724C10.8166 48.7449 11.0049 48.8391 10.9839 49.0902C10.9735 49.2889 10.8061 49.3622 10.6388 49.3936C10.2308 49.4668 9.81242 49.5087 9.17435 49.6028C10.2413 49.8121 11.0781 50.0108 11.9149 50.1155C12.3856 50.1782 12.5739 50.3352 12.5007 50.806C12.4797 50.9525 12.3019 51.1408 12.5111 51.3082C12.8563 50.9838 13.0446 50.398 13.4421 50.398C14.1534 50.398 14.8542 50.6595 15.5864 50.6281C15.7642 51.2036 16.1094 50.942 16.4337 50.7955C16.7056 50.67 16.9671 50.534 17.2496 50.4293C17.8772 50.1992 17.9399 50.241 18.191 51.0571C18.4211 50.9838 18.578 50.942 18.7349 50.8897C18.9859 50.806 19.237 50.7118 19.4776 50.5967ZM16.8102 43.4718C17.2914 43.6392 17.4378 43.5032 17.3332 42.9905C17.145 41.9757 17.0613 40.9608 17.0927 39.925C17.1031 39.6844 17.2496 39.4019 16.9881 39.1822C16.0048 39.9146 15.9839 39.9041 14.8333 38.5754C13.8082 39.1717 13.6408 39.1404 12.3856 37.4978C11.2036 38.251 10.3877 38.0836 9.71827 37.0793C9.46723 36.6921 9.12205 36.3678 8.80825 36.0225C8.72456 35.9284 8.6095 35.8342 8.46306 35.897C8.26431 35.9702 8.27478 36.1586 8.2957 36.3155C8.35846 36.7235 8.53628 37.0897 8.79779 37.3827C10.325 39.0985 11.9567 40.6679 14.0697 41.6514C14.258 41.7351 14.4462 41.8397 14.5299 42.0071C15.0111 42.9696 15.942 43.1789 16.8102 43.4718Z" fill="black"/>
</svg>
