<svg width="116" height="92" viewBox="0 0 116 92" fill="none" xmlns="http://www.w3.org/2000/svg">
<g clip-path="url(#clip0_214_170380)">
<path d="M22.0391 12.5913C22.0391 12.5913 26.6849 7.53733 33.2701 4.04944C39.8552 0.561557 46.7891 2.9403 52.3279 1.9602C57.8666 0.976616 66.9177 3.89947 69.1151 5.5876C71.3124 7.27574 75.8153 9.44172 78.1173 9.59519C80.4193 9.74865 86.2824 13.0412 88.3612 15.3083C90.44 17.5755 90.8586 19.6752 94.7162 21.5307C98.5772 23.3863 101.64 27.2334 102.522 30.6655C103.408 34.1011 105.197 35.6462 104.137 37.1948C104.137 37.1948 104.385 38.0005 102.979 37.9587C101.688 37.9203 99.5225 36.6333 94.5557 38.3458C88.6717 40.3758 85.7837 38.1435 83.6386 35.6881C81.4936 33.2326 81.3227 32.0432 77.8173 32.4164C74.312 32.7896 69.5685 30.3551 67.9396 28.1438C66.9456 26.7974 65.7946 25.1721 64.1239 24.6384C62.7776 24.2094 61.3406 24.6175 60.0012 24.8686C58.0899 25.2244 56.4506 25.336 54.5427 24.8338C52.9592 24.4152 51.4106 23.7316 50.0991 22.7445C48.9237 21.8586 47.7657 20.8332 46.2589 20.603C44.8498 20.3902 43.4861 21.0285 42.1886 21.4819C38.5856 22.741 34.6094 22.5457 31.118 20.9308C30.1519 20.4844 29.1753 19.9124 28.3347 19.2566C24.069 15.9397 21.1043 14.3038 21.1043 14.3038C21.1043 14.3038 19.0011 14.6143 22.0356 12.5878L22.0391 12.5913Z" fill="#426726"/>
<path d="M90.3559 39.3294C87.018 39.3294 85.0159 37.5541 83.4987 35.8136C83.129 35.3881 82.8116 34.9975 82.536 34.6557C81.1967 32.9989 80.6351 32.3083 77.8414 32.6083C77.5972 32.6362 77.3391 32.6466 77.0775 32.6466C73.614 32.6466 69.317 30.3307 67.7893 28.2589L67.6846 28.1159C66.7185 26.8044 65.6233 25.3186 64.0712 24.8233C63.6945 24.7047 63.2899 24.6454 62.8365 24.6454C62.1075 24.6454 61.3576 24.7954 60.6321 24.9419C60.4333 24.9837 60.238 25.0221 60.0427 25.057C58.9021 25.2698 58.0162 25.3639 57.1652 25.3639C56.2583 25.3639 55.3898 25.2488 54.5004 25.0151C52.7983 24.5652 51.2392 23.8327 49.9906 22.8945C49.8406 22.7829 49.6906 22.6678 49.5406 22.5527C48.5396 21.7819 47.5037 20.9831 46.2341 20.7913C46.0597 20.7634 45.8749 20.7529 45.69 20.7529C44.7343 20.7529 43.7821 21.1017 42.8648 21.4401C42.659 21.5168 42.4567 21.59 42.2544 21.6598C40.6779 22.2109 39.0281 22.4899 37.347 22.4899C35.1845 22.4899 33.0046 22.0086 31.0409 21.1017C30.0085 20.6239 29.0319 20.0379 28.2192 19.4066C24.3232 16.3756 21.4841 14.7363 21.0655 14.4992C21.0132 14.5061 20.9365 14.5096 20.8528 14.5096C20.4935 14.5096 20.2842 14.4085 20.2215 14.2027C20.1412 13.9446 20.2808 13.5295 21.9131 12.4378C22.22 12.11 26.831 7.23738 33.179 3.87156C36.5413 2.08925 40.0187 1.86254 42.673 1.86254C43.7577 1.86254 44.832 1.9044 45.8714 1.94276C46.8933 1.98113 47.8595 2.0195 48.8152 2.0195C50.1998 2.0195 51.3055 1.93927 52.2926 1.76488C53.0425 1.63234 53.8831 1.56607 54.8004 1.56607C60.1647 1.56607 67.2521 3.90993 69.2298 5.43065C71.4062 7.10135 75.8602 9.2464 78.1308 9.39987C80.4538 9.55682 86.3657 12.8459 88.5003 15.1723C89.1316 15.8594 89.6095 16.5291 90.0699 17.1779C91.1337 18.6672 92.1347 20.0728 94.7995 21.3529C98.5106 23.1387 101.765 26.9439 102.706 30.6132C103.041 31.9072 103.516 32.9536 103.896 33.7942C104.527 35.1893 104.991 36.2078 104.339 37.2297C104.356 37.3657 104.339 37.568 104.206 37.7459C104.011 38.011 103.631 38.1435 103.083 38.1435H102.972C102.661 38.1331 102.309 38.0564 101.897 37.9692C101.224 37.8227 100.391 37.6448 99.2674 37.6448C97.8479 37.6448 96.3271 37.9308 94.6146 38.5237C93.073 39.0539 91.6359 39.3259 90.3489 39.3259L90.3559 39.3294ZM78.9575 32.1618C81.0084 32.1618 81.6571 32.964 82.829 34.4185C83.1046 34.7603 83.415 35.1475 83.7847 35.566C85.2461 37.2402 87.1714 38.9492 90.3559 38.9492C91.6011 38.9492 92.9927 38.6877 94.496 38.168C96.2469 37.5646 97.8095 37.2681 99.2744 37.2681C100.436 37.2681 101.294 37.4529 101.985 37.6029C102.375 37.6866 102.713 37.7599 102.989 37.7669H103.087C103.61 37.7669 103.819 37.6378 103.903 37.5297C104.001 37.4006 103.962 37.2541 103.959 37.2472C103.945 37.1948 103.952 37.1321 103.983 37.0867C104.576 36.2182 104.171 35.3184 103.554 33.9581C103.167 33.1035 102.686 32.0397 102.344 30.7143C101.426 27.1462 98.256 23.4421 94.639 21.7016C91.8871 20.3797 90.8581 18.9358 89.7664 17.4046C89.3095 16.7663 88.8387 16.1071 88.2248 15.4374C86.1809 13.2086 80.3178 9.93351 78.1099 9.78702C75.7765 9.63007 71.2213 7.44316 69.003 5.74107C67.0638 4.25174 60.095 1.95323 54.8073 1.95323C53.9144 1.95323 53.0913 2.0195 52.3658 2.14855C51.3578 2.32643 50.2312 2.41014 48.8221 2.41014C47.8595 2.41014 46.8898 2.37177 45.8644 2.33341C44.8285 2.29504 43.7542 2.25318 42.68 2.25318C40.071 2.25318 36.6529 2.47641 33.3638 4.22035C26.8833 7.65243 22.2305 12.6715 22.1851 12.7238C22.1747 12.7343 22.1642 12.7447 22.1503 12.7517C20.6226 13.7737 20.5947 14.0736 20.5947 14.105C20.6051 14.105 20.6784 14.1364 20.8597 14.1364C20.9783 14.1364 21.0795 14.1225 21.0865 14.1225C21.1248 14.1155 21.1702 14.1225 21.205 14.1434C21.2364 14.1608 24.229 15.8246 28.4598 19.1101C29.2481 19.724 30.2003 20.2925 31.2083 20.7599C33.1231 21.6458 35.2473 22.1132 37.354 22.1132C38.9898 22.1132 40.5977 21.8412 42.1359 21.304C42.3347 21.2343 42.537 21.161 42.7393 21.0843C43.6914 20.7355 44.6715 20.3728 45.697 20.3728C45.9028 20.3728 46.1051 20.3867 46.2969 20.4181C47.6641 20.6239 48.7384 21.454 49.7778 22.2527C49.9278 22.3678 50.0743 22.4829 50.2243 22.5945C51.4311 23.5014 52.9448 24.2129 54.6016 24.6524C55.4561 24.8791 56.2967 24.9872 57.1686 24.9872C57.9953 24.9872 58.8603 24.8931 59.9764 24.6838C60.1682 24.6489 60.3635 24.6071 60.5589 24.5687C61.3018 24.4187 62.0691 24.2618 62.8365 24.2618C63.3317 24.2618 63.7747 24.3245 64.1898 24.4571C65.857 24.9907 66.994 26.5289 67.995 27.8857L68.0997 28.0287C69.5751 30.0272 73.7291 32.2595 77.081 32.2595C77.3286 32.2595 77.5728 32.2455 77.8065 32.2211C78.239 32.1758 78.6191 32.1514 78.9645 32.1514L78.9575 32.1618Z" fill="#405C28"/>
<path d="M21.8424 11.0182C21.8424 11.0182 26.4883 5.9643 33.0734 2.47641C39.6586 -1.01148 46.5925 1.36726 52.1312 0.387165C57.67 -0.592932 66.7211 2.32643 68.9184 4.01457C71.1158 5.70271 75.6187 7.86868 77.9207 8.02215C80.2227 8.1791 86.0858 11.4682 88.1646 13.7353C90.2434 16.0024 90.6619 18.1021 94.5195 19.9577C98.3806 21.8133 101.443 25.6604 102.325 29.0925C103.211 32.528 105.241 35.8799 104.181 37.4285C104.181 37.4285 103.361 38.1435 102.266 37.4599C101.171 36.7763 99.1166 36.1031 94.0975 37.6518C89.0784 39.2004 85.5871 36.574 83.442 34.115C81.297 31.6596 80.9656 31.0248 77.4603 31.4015C73.955 31.7747 69.3719 28.7855 67.743 26.5742C66.1107 24.3664 64.297 22.5422 60.4847 23.8781C56.676 25.2139 52.2324 22.9224 49.906 21.1715C47.5795 19.4206 45.7833 18.873 42.2291 20.3344C38.675 21.7958 32.4072 21.0006 28.1381 17.6836C23.8724 14.3666 20.803 14.1608 20.803 14.1608C20.803 14.1608 18.8045 13.0447 21.8389 11.0148L21.8424 11.0182Z" fill="#69A537"/>
<path d="M91.1646 38.3075C88.301 38.3075 85.6572 36.9402 83.2994 34.2441L82.9611 33.8569C81.4683 32.1374 80.9102 31.4956 79.0233 31.4956C78.6047 31.4956 78.099 31.527 77.4781 31.5933C77.2723 31.6142 77.0561 31.6282 76.8398 31.6282C73.2264 31.6282 69.0758 28.7088 67.583 26.6928C66.4355 25.1372 65.124 23.62 62.8674 23.62C62.1663 23.62 61.3815 23.77 60.541 24.0629C59.7631 24.335 58.9156 24.4745 58.0262 24.4745C54.2558 24.4745 50.7644 22.0679 49.7843 21.3284C48.4763 20.3448 47.2905 19.6891 45.7523 19.6891C44.7652 19.6891 43.6665 19.9507 42.2958 20.5158C41.1588 20.9831 39.7287 21.2308 38.1627 21.2308C34.5422 21.2308 30.7474 19.9612 28.0164 17.8405C23.8553 14.6038 20.8139 14.3596 20.786 14.3561C20.7581 14.3561 20.7302 14.3457 20.7058 14.3317C20.6779 14.3143 19.9943 13.9236 19.9629 13.1703C19.935 12.4448 20.5209 11.6705 21.7103 10.8752C22.0172 10.5474 26.6282 5.67131 32.9762 2.30898C36.349 0.526671 39.8264 0.299958 42.4772 0.299958C43.5584 0.299958 44.6362 0.341813 45.6756 0.38018C46.6975 0.418546 47.6637 0.456913 48.6193 0.456913C50.0075 0.456913 51.1132 0.376692 52.1003 0.19881C52.8467 0.0662699 53.6907 0 54.6046 0C59.9689 0 67.0563 2.34386 69.0374 3.86458C71.2139 5.53877 75.6679 7.68033 77.935 7.83379C80.258 7.99075 86.1699 11.2833 88.3045 13.6062C88.9358 14.2934 89.4137 14.963 89.8776 15.6118C90.9414 17.1011 91.9424 18.5067 94.6037 19.7833C98.3148 21.5656 101.569 25.3744 102.514 29.0436C102.8 30.1563 103.205 31.2515 103.595 32.3083C104.408 34.5092 105.113 36.4135 104.342 37.5366C104.331 37.5506 104.321 37.5611 104.31 37.5715C104.293 37.5855 103.874 37.9447 103.229 37.9447C102.873 37.9447 102.514 37.8366 102.169 37.6204C101.674 37.3099 100.833 36.8984 99.2495 36.8984C97.8788 36.8984 96.1662 37.2123 94.1537 37.8331C93.1387 38.147 92.1342 38.304 91.1646 38.304V38.3075ZM79.0267 31.112C81.0846 31.112 81.7194 31.8409 83.2506 33.6058L83.5854 33.993C86.6408 37.4878 90.1775 38.6632 94.0421 37.4704C96.0895 36.8391 97.8404 36.5182 99.2495 36.5182C100.526 36.5182 101.517 36.7658 102.368 37.296C102.654 37.4739 102.94 37.5645 103.226 37.5645C103.658 37.5645 103.965 37.3553 104.042 37.296C104.673 36.3298 104.007 34.5231 103.236 32.4374C102.842 31.3701 102.434 30.2679 102.144 29.1378C101.224 25.5697 98.0567 21.8656 94.4397 20.1286C91.6913 18.8067 90.6589 17.3627 89.5671 15.835C89.1102 15.1967 88.6394 14.534 88.0255 13.8644C85.9816 11.6356 80.1185 8.36395 77.9106 8.21397C75.5772 8.05702 71.022 5.87011 68.8037 4.16803C66.8645 2.6787 59.8957 0.38018 54.6046 0.38018C53.7117 0.38018 52.892 0.44645 52.1665 0.575501C51.1585 0.753384 50.0285 0.837093 48.6193 0.837093C47.6567 0.837093 46.6871 0.798726 45.6616 0.760359C44.6257 0.721993 43.5549 0.680138 42.4772 0.680138C39.8682 0.680138 36.4501 0.903363 33.161 2.64731C26.6805 6.07939 22.0277 11.0985 21.9824 11.1508C21.9719 11.1612 21.9614 11.1717 21.9475 11.1787C20.8837 11.8902 20.3326 12.5738 20.35 13.1528C20.3675 13.6132 20.7511 13.9027 20.8662 13.9795C21.2918 14.0213 24.232 14.412 28.2571 17.5406C30.9253 19.6124 34.6294 20.8506 38.1696 20.8506C39.6869 20.8506 41.0646 20.6134 42.1563 20.1635C43.5759 19.581 44.7199 19.3089 45.7593 19.3089C47.4997 19.3089 48.8356 20.1321 50.018 21.025C50.9737 21.7435 54.3813 24.0943 58.0297 24.0943C58.8772 24.0943 59.6794 23.9618 60.4189 23.7037C61.3013 23.3933 62.1244 23.2363 62.8709 23.2363C65.3089 23.2363 66.7424 24.9035 67.8934 26.4626C69.3653 28.4577 73.4845 31.2445 76.8433 31.2445C77.0456 31.2445 77.2479 31.234 77.4398 31.2131C78.0746 31.1468 78.5908 31.112 79.0233 31.112H79.0267Z" fill="#658D41"/>
<g style="mix-blend-mode:multiply" opacity="0.5">
<path d="M42.2335 20.3379C45.7876 18.8765 47.5839 19.4241 49.9103 21.175C52.2367 22.9259 56.6803 25.2174 60.4891 23.8816C64.2978 22.5457 66.115 24.3664 67.7473 26.5777C69.3797 28.789 73.9593 31.7782 77.4646 31.4049C80.9699 31.0317 81.3013 31.663 83.4463 34.1185C85.5914 36.574 89.0828 39.2004 94.1018 37.6552C99.1209 36.1066 101.175 36.7763 102.27 37.4634C103.366 38.147 104.185 37.432 104.185 37.432C105.246 35.8834 103.212 32.5315 102.33 29.096C101.444 25.6604 98.385 21.8167 94.5239 19.9612C90.6628 18.1056 90.2477 16.0059 88.1689 13.7388C86.0901 11.4717 80.227 8.18259 77.925 8.02564C75.623 7.87217 71.1201 5.70619 68.9228 4.01805C66.7254 2.32992 57.6743 -0.592934 52.1356 0.390651C46.5968 1.37075 39.6629 -1.00799 33.0777 2.4799C26.4926 5.96778 21.8468 11.0217 21.8468 11.0217C18.8123 13.0482 20.8109 14.1678 20.8109 14.1678C20.8109 14.1678 23.8802 14.3736 28.1459 17.6906C32.4116 21.0076 38.6828 21.8028 42.2369 20.3414L42.2335 20.3379ZM97.377 24.6698C98.4129 25.8383 99.2325 27.3869 99.1558 28.9878C99.0965 30.2749 98.1478 31.9491 96.9584 32.5559C96.2329 32.9257 95.1517 33.0652 94.3495 33.1001C91.2801 33.2221 88.1027 31.0701 86.6133 28.4681C86.1041 27.5787 85.7553 26.5882 85.0194 25.8487C84.2172 25.0465 83.0662 25.4232 82.1174 25.7023C81.2524 25.9569 80.37 26.1731 79.4666 26.2254C75.752 26.4417 71.4201 24.6384 69.3413 21.4854C68.5391 20.2681 68.1485 18.144 67.2137 17.0872C66.8579 16.6861 66.6208 16.4001 66.0208 16.3791C65.0931 16.3442 64.2071 16.7663 63.3456 17.0314C61.4412 17.6208 59.3555 18.1056 57.3465 17.865C54.591 17.5336 52.2158 16.4524 50.3463 14.3562C49.5755 13.4912 48.843 12.7622 47.8559 12.1658C46.548 11.374 44.8912 12.0158 43.6809 12.6331C40.0919 14.4678 34.8112 16.0478 31.5814 12.6331C29.1783 10.094 30.0154 7.76404 32.4674 5.61202C35.4949 2.95076 40.7232 1.59397 44.4762 3.25072C46.3771 4.0913 47.9013 4.93537 50.1231 4.32499C52.167 3.76344 53.8865 2.3055 56.056 2.14506C58.6614 1.95322 61.4203 2.60895 63.6874 3.89598C65.1663 4.73656 66.1115 5.97127 66.8649 7.4606C67.3951 8.50348 67.9566 10.0172 69.1844 10.4218C70.1993 10.7532 71.1899 10.0974 72.1351 9.79399C73.6489 9.30918 75.3684 9.16617 76.9414 9.3615C80.2165 9.76609 83.3905 11.3461 85.5146 13.8992C86.8993 15.5595 87.3772 18.2975 88.6956 20.0065C89.4629 20.9971 90.8511 21.1366 91.9812 21.4226C92.7346 21.611 93.4914 21.8656 94.196 22.1934C94.6215 22.3922 95.0366 22.6259 95.4342 22.891C96.1422 23.3654 96.8154 24.0281 97.377 24.6629V24.6698Z" fill="#BECA00"/>
</g>
<g style="mix-blend-mode:multiply" opacity="0.5">
<path d="M42.2335 20.3379C45.7876 18.8765 47.5839 19.4241 49.9103 21.175C52.2367 22.9259 56.6803 25.2174 60.4891 23.8816C64.2978 22.5457 66.115 24.3664 67.7473 26.5777C69.3797 28.789 73.9593 31.7782 77.4646 31.4049C80.9699 31.0317 81.3013 31.663 83.4463 34.1185C85.5914 36.574 89.0828 39.2004 94.1018 37.6552C99.1209 36.1066 101.175 36.7763 102.27 37.4634C103.366 38.147 104.185 37.432 104.185 37.432C105.246 35.8834 103.212 32.5315 102.33 29.096C101.444 25.6604 98.385 21.8167 94.5239 19.9612C90.6628 18.1056 90.2477 16.0059 88.1689 13.7388C86.0901 11.4717 80.227 8.18259 77.925 8.02564C75.623 7.87217 71.1201 5.70619 68.9228 4.01805C66.7254 2.32992 57.6743 -0.592934 52.1356 0.390651C46.5968 1.37075 39.6629 -1.00799 33.0777 2.4799C26.4926 5.96778 21.8468 11.0217 21.8468 11.0217C18.8123 13.0482 20.8109 14.1678 20.8109 14.1678C20.8109 14.1678 23.8802 14.3736 28.1459 17.6906C32.4116 21.0076 38.6828 21.8028 42.2369 20.3414L42.2335 20.3379ZM26.3984 10.0347C26.531 8.64299 27.4204 7.3455 28.8051 6.19101C30.2351 4.99815 31.9442 4.05642 33.587 3.19142C34.9124 2.49385 36.3459 1.87649 37.8352 1.64629C40.5104 0.885931 43.2973 1.24518 46.0701 1.76488C49.7638 2.45548 53.2656 1.17891 56.9593 1.46492C57.1232 1.47887 57.2837 1.50329 57.4476 1.52073C59.0799 1.59397 60.7193 1.9323 62.2574 2.45199C64.0676 3.06237 65.8255 3.84366 67.4544 4.84468C68.7693 5.65387 69.9377 6.66885 71.2562 7.43618C72.878 8.0361 74.6324 8.14771 76.331 8.42674C78.2494 8.74414 80.1817 9.49752 81.9605 10.2683C83.1359 10.7776 84.3253 11.4368 85.3054 12.2983C86.1878 12.9087 87.0179 13.6063 87.7992 14.405C88.8247 15.4583 89.2641 17.0732 90.1152 18.2626C91.0743 19.5984 92.5811 20.0902 93.917 20.9238C94.2518 21.1087 94.5866 21.2936 94.9075 21.4889C95.0331 21.5656 95.1517 21.6458 95.2703 21.7295C97.0979 22.8352 98.7616 24.0734 99.9964 25.8801C101.179 27.6066 101.866 29.661 102.117 31.7468C102.281 32.5629 102.333 33.3756 102.236 34.1639C102.162 34.7568 101.597 34.7324 101.147 34.6382C99.2534 34.2441 97.5409 34.4917 95.6609 34.8196C92.337 35.4021 88.6433 34.6975 86.2366 32.1304C85.2496 31.0771 84.974 29.5389 83.8893 28.5623C83.0348 27.7915 81.4652 28.3635 80.513 28.5763C79.648 28.7716 78.7621 28.7995 77.8762 28.789C74.8661 28.7611 72.2049 27.488 70.1784 25.3011C69.2367 24.2862 68.4484 23.1317 67.6078 22.033C66.6696 20.8087 65.4732 20.4286 64.1792 20.4041C63.2863 20.596 62.3795 20.8297 61.4273 21.0041C58.3196 21.5726 55.0654 20.8855 52.3588 19.3055C50.9846 18.5032 49.7987 17.3732 48.3442 16.707C46.8026 15.9955 44.9714 16.3512 43.3879 16.6965C40.5941 17.3069 37.9364 17.8266 35.0728 17.3592C32.0174 16.8639 25.4218 14.112 26.3984 10.0381V10.0347Z" fill="#83B235"/>
</g>
<g style="mix-blend-mode:multiply" opacity="0.5">
<path d="M21.8603 10.9973C22.4044 11.081 23.0357 11.1647 23.4263 11.5344C24.0611 12.1379 24.4553 13.2923 23.9739 14.1015C23.803 14.391 23.5868 14.6352 23.3496 14.8619C21.7661 14.2306 20.8069 14.1643 20.8069 14.1643C20.8069 14.1643 18.8084 13.0482 21.8428 11.0182C21.8428 11.0182 21.8498 11.0113 21.8603 10.9973Z" fill="#83B235"/>
</g>
<path d="M12.3558 12.6366C12.3558 12.6366 12.6488 11.0357 14.0683 12.0367C15.4879 13.0342 19.3804 12.8459 20.5872 12.3157C20.5872 12.3157 21.8847 13.5714 20.8069 14.1643C20.8069 14.1643 17.5527 14.3457 16.0494 16.1559C14.5462 17.9661 13.1964 17.4778 12.4151 16.4698C11.6338 15.4618 12.3558 12.6401 12.3558 12.6401V12.6366Z" fill="#6F992E"/>
<path d="M14.0197 17.5615C13.3744 17.5615 12.7536 17.2127 12.2653 16.5849C11.4352 15.5141 12.1397 12.7099 12.1711 12.5913C12.1781 12.5599 12.3769 11.517 13.2349 11.517C13.5174 11.517 13.8348 11.6391 14.1801 11.8797C14.794 12.3122 16.0148 12.5599 17.5285 12.5599C18.7458 12.5599 19.9456 12.3925 20.5141 12.1413C20.5839 12.1099 20.6676 12.1239 20.7234 12.1797C20.7548 12.2111 21.5152 12.954 21.421 13.6411C21.3826 13.9306 21.2082 14.1643 20.9013 14.3317C20.8769 14.3457 20.849 14.3527 20.8211 14.3561C20.7897 14.3561 17.6331 14.5549 16.1996 16.278C15.4916 17.129 14.7591 17.5615 14.0232 17.5615H14.0197ZM13.2349 11.9007C12.6908 11.9007 12.5443 12.668 12.5408 12.675C12.342 13.4493 11.9688 15.5874 12.5652 16.3547C12.9803 16.8883 13.4965 17.1848 14.0197 17.1848C14.6371 17.1848 15.2718 16.7977 15.9032 16.0373C17.3611 14.2794 20.3293 14.0108 20.7513 13.9794C20.9257 13.8748 21.0199 13.7492 21.0408 13.5958C21.0896 13.2365 20.7478 12.7761 20.5386 12.5459C19.8863 12.7901 18.7283 12.9435 17.525 12.9435C16.5903 12.9435 14.8847 12.8459 13.9604 12.1971C13.6849 12.0018 13.4407 11.9042 13.2349 11.9042V11.9007Z" fill="#3A6530"/>
<g style="mix-blend-mode:multiply">
<path d="M12.4151 16.4663C11.6338 15.4583 12.3558 12.6366 12.3558 12.6366C12.3558 12.6366 12.4639 12.0646 12.8545 11.817C14.2288 12.3192 13.3149 13.4318 13.8242 14.4503C13.9497 14.7049 14.166 15.0049 14.5078 14.9386C15.2263 14.8026 17.4934 13.9794 19.213 13.383C19.921 13.2714 20.6186 13.2575 21.2324 13.4493C21.2534 13.7109 21.1592 13.9725 20.8139 14.1608C20.8139 14.1608 17.5597 14.3422 16.0564 16.1524C14.5531 17.9626 13.2033 17.4743 12.422 16.4663H12.4151Z" fill="#6F992E"/>
</g>
<g style="mix-blend-mode:multiply">
<path d="M12.4151 16.4663C11.6338 15.4583 12.3558 12.6366 12.3558 12.6366C12.3558 12.6366 12.3872 12.4797 12.4709 12.2948C12.7115 12.804 12.8755 14.8165 12.9313 15.0851C13.0743 15.7757 13.3115 16.3128 13.9951 16.557C14.7345 16.8186 15.3414 15.9989 15.7913 15.5664C16.754 14.6421 18.0968 14.2934 19.4048 14.3806C18.3375 14.6212 16.9075 15.1235 16.0494 16.1559C14.5462 17.9661 13.1964 17.4778 12.4151 16.4698V16.4663Z" fill="#6F992E"/>
</g>
<g style="mix-blend-mode:multiply" opacity="0.5">
<path d="M44.6299 14.977C45.0414 14.0387 46.0006 13.2086 46.9737 13.3237C47.6748 13.4074 48.7874 14.5131 48.8711 15.2072C48.9095 15.5141 48.3794 15.6641 48.1666 15.6048C47.1446 15.3258 46.1018 15.1758 45.0484 15.3188C44.8531 15.3432 44.5113 15.2456 44.6299 14.977Z" fill="#7BA732"/>
</g>
<g style="mix-blend-mode:multiply" opacity="0.5">
<path d="M65.2083 19.2985C64.7688 19.2252 64.3224 19.3857 63.8724 19.2915C63.7294 19.2601 63.5481 19.145 63.6213 18.9636C64.3259 17.2127 67.0952 16.5779 67.1894 19.5775C67.1964 19.7938 66.8511 19.9472 66.6348 19.86C66.164 19.6682 65.714 19.3787 65.2083 19.2985Z" fill="#7BA732"/>
</g>
<g style="mix-blend-mode:multiply" opacity="0.5">
<path d="M82.4655 27.509C82.1726 27.4427 82.2039 27.1497 82.3853 26.9823C82.8492 26.5602 83.6863 26.3161 84.2409 26.5289C84.7117 26.7102 85.0849 27.3346 85.071 27.8961C85.0431 28.8832 82.8597 27.5962 82.4655 27.509Z" fill="#7BA732"/>
</g>
<g style="mix-blend-mode:multiply" opacity="0.5">
<path d="M46.5892 2.76241C46.5299 2.59848 46.7217 2.45896 46.8508 2.41362C47.2589 2.27062 47.6844 2.34386 48.0925 2.44152C48.225 2.47292 48.3611 2.48338 48.5006 2.49035C49.0691 2.39967 49.6272 2.17296 50.1992 2.39618C50.3038 2.43804 50.4433 2.51128 50.4189 2.6508C50.2794 3.48091 49.2819 3.77739 48.5564 3.84017C47.8065 3.90644 46.8613 3.51579 46.5892 2.7659V2.76241Z" fill="#7BA732"/>
</g>
<g style="mix-blend-mode:multiply" opacity="0.5">
<path d="M70.3033 9.35801C70.6347 9.32314 71.6985 8.97435 71.4299 8.43024C71.3148 8.19655 71.116 8.0954 70.8823 8.02215C70.6033 7.87915 70.2998 7.78847 70.0382 7.61407C69.7034 7.38736 69.4278 7.09438 69.1279 6.8293C68.9395 6.66537 68.5105 6.74559 68.4373 7.00718C68.1025 8.15121 69.086 9.48358 70.3033 9.35801Z" fill="#7BA732"/>
</g>
<g style="mix-blend-mode:multiply" opacity="0.5">
<path d="M88.6396 18.4893C88.6744 18.2173 89.1732 17.9905 89.3685 18.2312C89.5848 18.4998 89.7941 18.7753 90.0277 19.0299C90.0626 19.0648 90.101 19.0962 90.1359 19.1311C90.1777 19.1625 90.2126 19.1973 90.2579 19.2287C90.5928 19.4729 91.0357 19.6333 91.2659 19.9926C91.3741 20.16 91.2555 20.2995 91.1125 20.3972C90.0173 21.1261 88.5035 19.5706 88.6361 18.4928L88.6396 18.4893Z" fill="#7BA732"/>
</g>
<g style="mix-blend-mode:screen" opacity="0.3">
<path d="M74.0151 15.3432C78.783 14.0073 82.25 16.0408 85.1972 19.6438C85.3646 19.8461 85.7937 19.6612 85.8216 19.424C86.1599 16.3303 82.9824 12.7831 80.3909 11.4821C79.0167 10.7915 77.632 10.4113 76.2403 10.3834C74.7859 10.216 73.3838 10.2788 72.0758 11.1682C70.719 12.089 69.4145 13.1284 70.1923 14.9002C70.7818 16.2396 73.035 15.6222 74.0116 15.3502L74.0151 15.3432Z" fill="#74B22C"/>
</g>
<g style="mix-blend-mode:screen" opacity="0.3">
<path d="M93.9652 25.7302C95.5347 26.48 96.5881 27.9833 97.4775 29.4168C97.5821 29.5878 97.9204 29.4134 97.9414 29.2529C98.0739 28.1228 97.5193 26.6684 96.9055 25.7546C95.1615 23.1631 90.7842 20.7006 88.1055 23.5502C87.5858 24.1048 87.5649 25.2384 88.2764 25.7162C89.1135 26.2812 90.2017 25.7615 91.0842 25.5802C91.1539 25.5662 91.2237 25.5523 91.2934 25.5383C92.1968 25.3674 93.1071 25.3186 93.9686 25.7302H93.9652Z" fill="#74B22C"/>
</g>
<g style="mix-blend-mode:screen" opacity="0.3">
<path d="M52.8507 10.1149C54.4377 9.16268 55.3933 7.38386 57.214 6.76999C58.7871 6.23635 60.6461 6.40028 62.1006 7.20598C62.7598 7.57221 63.3806 8.01168 64.0084 8.42674C64.4688 8.73367 65.1559 9.32313 65.7419 9.33359C66.8406 9.35103 65.8396 7.46408 65.5954 7.14669C64.7095 5.98871 63.2934 4.89002 62.0482 4.1471C58.2429 1.87649 52.8088 3.27862 50.7719 7.49896C50.0918 8.90807 50.5487 11.4926 52.8472 10.1149H52.8507Z" fill="#74B22C"/>
</g>
<g style="mix-blend-mode:screen" opacity="0.3">
<path d="M31.8223 10.223C31.8223 11.4193 32.8407 13.4877 34.3022 12.7517C35.8717 11.96 35.8543 9.67539 36.5553 8.29419C38.1807 5.08882 41.965 4.55866 45.0972 5.57713C45.2471 5.62596 45.7215 5.40622 45.5122 5.22136C43.1056 3.07631 39.3875 3.17397 36.6111 4.50983C35.652 4.97023 34.7591 5.5283 33.9673 6.23982C32.7989 7.29317 31.8711 8.48951 31.8223 10.0835C31.8223 10.1288 31.8223 10.1776 31.8223 10.223Z" fill="#74B22C"/>
</g>
<path d="M83.4493 29.7343C83.4493 29.7343 78.8035 24.6803 72.2183 21.1924C65.6332 17.7045 58.6993 20.0833 53.1605 19.1032C47.6218 18.1196 38.5707 21.0424 36.3733 22.7306C34.176 24.4187 29.6731 26.5847 27.3711 26.7382C25.0691 26.8916 19.2059 30.1842 17.1272 32.4513C15.0484 34.7184 14.6298 36.8182 10.7722 38.6737C6.91114 40.5293 3.84878 44.3764 2.96634 47.8085C2.08042 51.2441 0.291134 52.7892 1.35145 54.3378C1.35145 54.3378 1.10381 55.1435 2.50943 55.1017C3.79995 55.0633 5.96593 53.7763 10.9327 55.4888C16.8167 57.5188 19.7047 55.2865 21.8498 52.831C23.9948 50.3756 24.1622 49.1862 27.671 49.5594C31.1764 49.9326 35.9199 47.4981 37.5487 45.2902C38.5428 43.9439 39.6938 42.3186 41.3645 41.7849C42.7108 41.3559 44.1478 41.764 45.4872 42.0151C47.3985 42.3709 49.0378 42.4825 50.9457 41.9802C52.5292 41.5617 54.0778 40.8781 55.3893 39.891C56.5647 39.0051 57.7227 37.9796 59.2294 37.7529C60.6386 37.5401 62.0023 38.1784 63.2998 38.6319C66.9028 39.891 70.879 39.6957 74.3704 38.0808C75.3365 37.6343 76.3131 37.0623 77.1537 36.4066C81.4194 33.0896 84.3841 31.4538 84.3841 31.4538C84.3841 31.4538 86.4873 31.7642 83.4528 29.7377L83.4493 29.7343Z" fill="#426726"/>
<path d="M15.1357 56.4724C13.8487 56.4724 12.4152 56.2038 10.8701 55.6702C9.15751 55.0807 7.63679 54.7912 6.21722 54.7912C5.09412 54.7912 4.26051 54.9726 3.58735 55.1156C3.17927 55.2028 2.82699 55.2795 2.51308 55.29H2.40496C1.85387 55.29 1.47718 55.1575 1.28186 54.8924C1.14932 54.7145 1.13188 54.5122 1.14932 54.3762C0.497083 53.3542 0.957484 52.3358 1.59228 50.9406C1.97246 50.1 2.44681 49.0537 2.78165 47.7596C3.72687 44.0904 6.97758 40.2851 10.6887 38.4993C13.3499 37.2193 14.3545 35.8136 15.4183 34.3243C15.8822 33.6756 16.36 33.0059 16.9878 32.3188C19.1224 29.9924 25.0344 26.6998 27.3573 26.5463C29.6244 26.3929 34.082 24.2478 36.2584 22.5771C38.236 21.0564 45.3234 18.7125 50.6878 18.7125C51.6016 18.7125 52.4457 18.7788 53.1956 18.9113C54.1826 19.0857 55.2883 19.1659 56.673 19.1659C57.6287 19.1659 58.5948 19.1276 59.6168 19.0892C60.6562 19.0508 61.7339 19.009 62.8152 19.009C65.4695 19.009 68.9469 19.2392 72.3092 21.018C78.6572 24.3803 83.2681 29.2564 83.5751 29.5843C85.2039 30.676 85.3434 31.0875 85.2667 31.3491C85.2039 31.5514 84.9912 31.6561 84.6354 31.6561C84.5517 31.6561 84.475 31.6491 84.4226 31.6456C84.0041 31.8828 81.1684 33.5221 77.2725 36.5531C76.4598 37.1844 75.4867 37.7703 74.4508 38.2482C72.4871 39.1585 70.3071 39.6364 68.1447 39.6364C66.467 39.6364 64.8172 39.3573 63.2372 38.8062C63.0349 38.7365 62.8326 38.6597 62.6268 38.5865C61.706 38.2482 60.7573 37.8994 59.8016 37.8994C59.6168 37.8994 59.4319 37.9133 59.2575 37.9378C57.9879 38.1296 56.952 38.9283 55.951 39.6991C55.801 39.8142 55.651 39.9293 55.5046 40.041C54.2594 40.9792 52.7003 41.7117 50.9947 42.1616C50.1088 42.3953 49.2368 42.5104 48.33 42.5104C47.4789 42.5104 46.593 42.4162 45.4525 42.2034C45.2571 42.1686 45.0618 42.1267 44.863 42.0883C44.1375 41.9419 43.3876 41.7919 42.6587 41.7919C42.2018 41.7919 41.8006 41.8512 41.424 41.9698C39.8718 42.465 38.7766 43.9509 37.8105 45.2623L37.7059 45.4053C36.1782 47.4771 31.8811 49.7931 28.4176 49.7931C28.156 49.7931 27.8979 49.7791 27.6538 49.7547C24.86 49.4582 24.2984 50.1454 22.9591 51.8021C22.68 52.1474 22.3661 52.5346 21.9964 52.9601C20.4792 54.6971 18.4771 56.4759 15.1392 56.4759L15.1357 56.4724ZM6.21722 54.4111C7.67864 54.4111 9.24122 54.704 10.9921 55.3109C12.4954 55.8306 13.8871 56.0922 15.1323 56.0922C18.3167 56.0922 20.242 54.3831 21.7034 52.709C22.0697 52.2904 22.3836 51.9033 22.6556 51.5614C24.0264 49.8628 24.6681 49.0502 27.6852 49.3745C27.9154 49.399 28.1595 49.4129 28.4106 49.4129C31.7625 49.4129 35.9166 47.1772 37.392 45.1821L37.4966 45.0391C38.4976 43.6823 39.6312 42.1442 41.3019 41.6105C41.7169 41.478 42.1599 41.4152 42.6552 41.4152C43.4225 41.4152 44.1898 41.5687 44.9328 41.7221C45.1281 41.7605 45.3234 41.8023 45.5152 41.8372C46.6314 42.0465 47.4964 42.1407 48.323 42.1407C49.195 42.1407 50.0355 42.0325 50.8901 41.8058C52.5468 41.3698 54.0606 40.6583 55.2674 39.748C55.4139 39.6364 55.5638 39.5213 55.7138 39.4062C56.7532 38.6039 57.8275 37.7773 59.1947 37.5715C59.3901 37.5436 59.5924 37.5262 59.7947 37.5262C60.8201 37.5262 61.8037 37.8889 62.7524 38.2377C62.9547 38.311 63.157 38.3877 63.3558 38.4575C64.894 38.9946 66.5019 39.2666 68.1377 39.2666C70.2444 39.2666 72.3685 38.7993 74.2833 37.9133C75.2913 37.446 76.2401 36.8774 77.0318 36.2636C81.2626 32.9745 84.2552 31.3108 84.2866 31.2968C84.3215 31.2759 84.3668 31.2689 84.4052 31.2759C84.4087 31.2759 84.5098 31.2898 84.6319 31.2898C84.8168 31.2898 84.8935 31.255 84.904 31.241C84.9005 31.2271 84.8691 30.9236 83.3414 29.9017C83.3274 29.8947 83.317 29.8842 83.3065 29.8738C83.2612 29.8249 78.6048 24.8024 72.1278 21.3703C68.8388 19.6264 65.4206 19.4031 62.8117 19.4031C61.7339 19.4031 60.6631 19.445 59.6272 19.4833C58.6018 19.5217 57.6322 19.5601 56.6695 19.5601C55.2604 19.5601 54.1338 19.4764 53.1258 19.2985C52.4003 19.1694 51.5772 19.1032 50.6843 19.1032C45.3932 19.1032 38.4244 21.4017 36.4886 22.891C34.2703 24.5966 29.7151 26.78 27.3817 26.9404C25.1704 27.0869 19.3107 30.3621 17.2668 32.5908C16.653 33.2605 16.1821 33.9197 15.7252 34.558C14.6335 36.0892 13.6011 37.5332 10.8526 38.8551C7.23568 40.5955 4.06519 44.2997 3.14788 47.8678C2.80606 49.1967 2.32474 50.257 1.93758 51.1115C1.32022 52.4718 0.912141 53.3717 1.50857 54.2401C1.53996 54.289 1.55042 54.3483 1.53299 54.4041C1.53299 54.4076 1.49113 54.5541 1.58879 54.6831C1.6725 54.7912 1.88177 54.9238 2.40496 54.9238H2.50262C2.77816 54.9133 3.11649 54.8401 3.50713 54.7564C4.19773 54.6064 5.05575 54.4215 6.21722 54.4215V54.4111Z" fill="#405C28"/>
<path d="M83.6485 28.1612C83.6485 28.1612 79.0027 23.1073 72.4175 19.6194C65.8324 16.1315 58.8985 18.5102 53.3597 17.5301C47.821 16.55 38.7699 19.4694 36.5725 21.161C34.3752 22.8492 29.8723 25.0151 27.5703 25.1686C25.2683 25.3256 19.4051 28.6146 17.3264 30.8818C15.2476 33.1489 14.829 35.2486 10.9714 37.1042C7.11035 38.9597 4.04798 42.8069 3.16554 46.2389C2.27962 49.6745 0.249671 53.0264 1.30999 54.575C1.30999 54.575 2.12964 55.29 3.22484 54.6064C4.32004 53.9227 6.3744 53.2496 11.3935 54.7982C16.4125 56.3468 19.9039 53.7205 22.049 51.2615C24.194 48.806 24.5219 48.1712 28.0307 48.5479C31.536 48.9246 36.1191 45.932 37.7479 43.7207C39.3803 41.5128 41.194 39.6887 45.0062 41.0245C48.815 42.3604 53.2586 40.0689 55.585 38.3179C57.9114 36.567 59.7077 36.0194 63.2618 37.4808C66.816 38.9423 73.0837 38.147 77.3529 34.8301C81.6186 31.5131 84.6879 31.3073 84.6879 31.3073C84.6879 31.3073 86.6865 30.1912 83.652 28.1612H83.6485Z" fill="#88B838"/>
<path d="M14.3231 55.4469C13.3534 55.4469 12.3489 55.2865 11.334 54.9761C9.32144 54.3552 7.60889 54.0413 6.23815 54.0413C4.65814 54.0413 3.81407 54.4529 3.31879 54.7633C2.97349 54.9796 2.61772 55.0877 2.25847 55.0877C1.61321 55.0877 1.19466 54.7284 1.17723 54.7145C1.16676 54.704 1.1563 54.6901 1.14583 54.6796C0.375011 53.5565 1.07956 51.6521 1.89224 49.4513C2.28289 48.3944 2.68748 47.3027 2.97349 46.1901C3.9187 42.5208 7.1729 38.7121 10.884 36.9297C13.5453 35.6497 14.5498 34.2441 15.6101 32.7582C16.074 32.1095 16.5518 31.4398 17.1831 30.7527C19.3177 28.4263 25.2297 25.1372 27.5526 24.9802C29.8232 24.8268 34.2773 22.6852 36.4537 21.011C38.4314 19.4903 45.5222 17.1465 50.8866 17.1465C51.8004 17.1465 52.6445 17.2127 53.3944 17.3453C54.3815 17.5197 55.4871 17.6034 56.8753 17.6034C57.831 17.6034 58.7971 17.565 59.8191 17.5266C60.8585 17.4883 61.9362 17.4464 63.0175 17.4464C65.6717 17.4464 69.1492 17.6766 72.5115 19.4554C78.8595 22.8178 83.4704 27.6938 83.7774 28.0217C84.9633 28.8204 85.5527 29.5912 85.5248 30.3167C85.4934 31.0701 84.8133 31.4607 84.7819 31.4782C84.7575 31.4921 84.7296 31.4991 84.7017 31.5026C84.6703 31.5026 81.6323 31.7502 77.4713 34.987C74.7403 37.1111 70.9454 38.3772 67.325 38.3772C65.7589 38.3772 64.3289 38.1296 63.1919 37.6622C61.8211 37.0972 60.7224 36.8356 59.7354 36.8356C58.1972 36.8356 57.0113 37.4913 55.7034 38.4749C54.7233 39.2143 51.2319 41.621 47.4615 41.621C46.5721 41.621 45.7245 41.4814 44.9467 41.2094C44.1061 40.9129 43.3249 40.7664 42.6203 40.7664C40.3602 40.7664 39.0522 42.2837 37.9047 43.8393C36.4154 45.8553 32.2613 48.7746 28.6478 48.7746C28.4316 48.7746 28.2153 48.7641 28.0095 48.7432C27.3887 48.677 26.883 48.6456 26.4644 48.6456C24.5809 48.6456 24.0229 49.2873 22.5266 51.0069L22.1883 51.394C19.8339 54.0902 17.1866 55.4574 14.3231 55.4574V55.4469ZM6.23815 53.6611C7.64726 53.6611 9.39818 53.982 11.4456 54.6133C15.3101 55.8062 18.8504 54.6308 21.9023 51.1359L22.2371 50.7488C23.7683 48.9839 24.4031 48.2549 26.4609 48.2549C26.8934 48.2549 27.4131 48.2863 28.0444 48.3561C28.2363 48.377 28.4386 48.3875 28.6409 48.3875C31.9997 48.3875 36.1154 45.6041 37.5908 43.6056C38.7453 42.043 40.1788 40.3793 42.6133 40.3793C43.3597 40.3793 44.1829 40.5362 45.0653 40.8466C45.8013 41.1047 46.607 41.2373 47.4545 41.2373C51.1063 41.2373 54.5105 38.8899 55.4662 38.1679C56.6486 37.2751 57.9844 36.4519 59.7249 36.4519C60.7643 36.4519 61.9083 36.724 63.3279 37.3064C64.4196 37.7564 65.7973 37.9936 67.3145 37.9936C70.8548 37.9936 74.5589 36.7554 77.2271 34.6836C81.2521 31.5549 84.1924 31.1643 84.618 31.1224C84.7331 31.0457 85.1167 30.7562 85.1342 30.2958C85.1551 29.7168 84.604 29.0332 83.5367 28.3216C83.5228 28.3147 83.5123 28.3042 83.5018 28.2937C83.4565 28.2449 78.8002 23.2224 72.3232 19.7903C69.0341 18.0463 65.6194 17.8231 63.007 17.8231C61.9327 17.8231 60.8585 17.865 59.8226 17.9033C58.7971 17.9417 57.8275 17.9801 56.8648 17.9801C55.4557 17.9801 54.3291 17.8963 53.3176 17.7185C52.5922 17.5894 51.769 17.5231 50.8761 17.5231C45.585 17.5231 38.6162 19.8217 36.6769 21.311C34.4586 23.0166 29.9035 25.2 27.5701 25.3569C25.3587 25.5069 19.4991 28.782 17.4552 31.0073C16.8413 31.677 16.3705 32.3362 15.9135 32.978C14.8218 34.5057 13.7929 35.9531 11.041 37.2716C7.42403 39.0085 4.25354 42.7127 3.33623 46.2808C3.04325 47.4143 2.63865 48.513 2.24452 49.5803C1.4737 51.6661 0.807509 53.4728 1.43882 54.4389C1.51206 54.4947 1.819 54.7075 2.25498 54.7075C2.54099 54.7075 2.827 54.6168 3.113 54.4389C3.96405 53.9088 4.95461 53.6611 6.23117 53.6611H6.23815Z" fill="#658D41"/>
<g style="mix-blend-mode:multiply" opacity="0.5">
<path d="M77.3455 34.8301C81.6112 31.5131 84.6805 31.3073 84.6805 31.3073C84.6805 31.3073 86.6791 30.1912 83.6446 28.1612C83.6446 28.1612 78.9988 23.1073 72.4136 19.6194C65.8285 16.1315 58.8946 18.5102 53.3558 17.5301C47.8171 16.55 38.766 19.4694 36.5686 21.161C34.3713 22.8492 29.8684 25.0151 27.5664 25.1686C25.2644 25.3256 19.4012 28.6146 17.3225 30.8818C15.2437 33.1489 14.8251 35.2486 10.9675 37.1042C7.10644 38.9597 4.04407 42.8069 3.16164 46.2389C2.27572 49.6745 0.245765 53.0264 1.30608 54.575C1.30608 54.575 2.12574 55.29 3.22093 54.6064C4.31613 53.9227 6.37049 53.2496 11.3896 54.7982C16.4086 56.3468 19.9 53.7205 22.0451 51.2615C24.1901 48.806 24.518 48.1712 28.0268 48.5479C31.5321 48.9246 36.1152 45.932 37.744 43.7207C39.3764 41.5128 41.1901 39.6887 45.0023 41.0245C48.8111 42.3604 53.2547 40.0689 55.5811 38.3179C57.9075 36.567 59.7038 36.0194 63.2579 37.4808C66.8121 38.9423 73.0798 38.147 77.349 34.8301H77.3455ZM10.0572 40.0375C10.4548 39.7724 10.8699 39.5352 11.2954 39.3399C11.9999 39.012 12.7568 38.7574 13.5102 38.5691C14.6403 38.2831 16.0319 38.1401 16.7958 37.153C18.1177 35.4474 18.5921 32.7094 19.9767 31.0492C22.1044 28.4995 25.2783 26.9195 28.5535 26.5114C30.1265 26.3161 31.8425 26.4591 33.3598 26.9439C34.305 27.2474 35.2955 27.9031 36.3105 27.5683C37.5383 27.1637 38.0998 25.6499 38.63 24.6071C39.3834 23.1177 40.3251 21.883 41.8074 21.0424C44.0746 19.7554 46.8335 19.0997 49.4389 19.2915C51.6084 19.452 53.3279 20.9099 55.3718 21.4714C57.5936 22.0818 59.1178 21.2378 61.0187 20.3972C64.7717 18.7404 70 20.0972 73.0275 22.7585C75.4795 24.914 76.3166 27.2404 73.9134 29.7796C70.6836 33.1942 65.403 31.6142 61.8139 29.7796C60.6037 29.1622 58.9434 28.517 57.639 29.3122C56.6519 29.9121 55.9194 30.6376 55.1486 31.5026C53.2791 33.5988 50.9038 34.6801 48.1484 35.0114C46.1394 35.2521 44.0536 34.7673 42.1492 34.1778C41.2877 33.9093 40.4018 33.4907 39.4775 33.5256C38.8776 33.5465 38.6404 33.8325 38.2847 34.2336C37.3499 35.287 36.9593 37.4146 36.1571 38.6319C34.0748 41.7814 29.7463 43.5881 26.0317 43.3719C25.1284 43.3196 24.2459 43.1033 23.3809 42.8487C22.4287 42.5697 21.2812 42.1895 20.479 42.9952C19.7431 43.7346 19.3943 44.7252 18.885 45.6111C17.3957 48.2131 14.2182 50.3651 11.1489 50.243C10.3467 50.2116 9.26544 50.0686 8.53996 49.6989C7.35059 49.0955 6.40189 47.4178 6.34259 46.1308C6.26586 44.5264 7.08551 42.9812 8.12142 41.8128C8.68296 41.178 9.35613 40.5118 10.0642 40.041L10.0572 40.0375Z" fill="#BECA00"/>
</g>
<g style="mix-blend-mode:multiply" opacity="0.5">
<path d="M77.3455 34.8301C81.6112 31.5131 84.6805 31.3073 84.6805 31.3073C84.6805 31.3073 86.6791 30.1912 83.6446 28.1612C83.6446 28.1612 78.9988 23.1073 72.4136 19.6194C65.8285 16.1315 58.8946 18.5102 53.3558 17.5301C47.8171 16.55 38.766 19.4694 36.5686 21.161C34.3713 22.8492 29.8684 25.0151 27.5664 25.1686C25.2644 25.3256 19.4012 28.6146 17.3225 30.8818C15.2437 33.1489 14.8251 35.2486 10.9675 37.1042C7.10644 38.9597 4.04407 42.8069 3.16164 46.2389C2.27572 49.6745 0.245765 53.0264 1.30608 54.575C1.30608 54.575 2.12574 55.29 3.22093 54.6064C4.31613 53.9227 6.37049 53.2496 11.3896 54.7982C16.4086 56.3468 19.9 53.7205 22.0451 51.2615C24.1901 48.806 24.518 48.1712 28.0268 48.5479C31.5321 48.9246 36.1152 45.932 37.744 43.7207C39.3764 41.5128 41.1901 39.6887 45.0023 41.0245C48.8111 42.3604 53.2547 40.0689 55.5811 38.3179C57.9075 36.567 59.7038 36.0194 63.2579 37.4808C66.8121 38.9423 73.0798 38.147 77.349 34.8301H77.3455ZM70.4151 34.4987C67.5515 34.9626 64.8938 34.4429 62.1 33.836C60.5165 33.4907 58.6853 33.1384 57.1437 33.8465C55.6927 34.5161 54.5068 35.6427 53.1291 36.4449C50.4225 38.0284 47.1683 38.7156 44.0606 38.1435C43.1084 37.9692 42.2016 37.7355 41.3087 37.5436C40.0112 37.568 38.8183 37.9482 37.8801 39.1725C37.0395 40.2677 36.2477 41.4222 35.3095 42.4406C33.2865 44.6275 30.6253 45.9006 27.6117 45.9285C26.7258 45.939 25.8434 45.9076 24.9749 45.7158C24.0227 45.503 22.4497 44.931 21.5986 45.7018C20.5139 46.6784 20.2383 48.2166 19.2513 49.2699C16.8481 51.837 13.1509 52.5415 9.82699 51.9591C7.94702 51.6312 6.23447 51.3836 4.34054 51.7777C3.89061 51.8719 3.32557 51.8963 3.25232 51.3033C3.15466 50.5151 3.20698 49.6989 3.37091 48.8862C3.62204 46.8005 4.30915 44.7461 5.49155 43.0196C6.72975 41.2164 8.38998 39.9782 10.2176 38.869C10.3362 38.7853 10.4583 38.7051 10.5804 38.6284C10.9013 38.4296 11.2361 38.2447 11.5709 38.0633C12.9068 37.2297 14.4136 36.7414 15.3727 35.4021C16.2273 34.2092 16.6633 32.5943 17.6887 31.5445C18.47 30.7457 19.3001 30.0482 20.1825 29.4378C21.1626 28.5763 22.352 27.9171 23.5274 27.4078C25.3027 26.637 27.235 25.8801 29.1569 25.5662C30.8555 25.2872 32.6099 25.1756 34.2317 24.5757C35.5502 23.8083 36.7186 22.7934 38.0335 21.9842C39.6624 20.9866 41.4203 20.2019 43.2305 19.5915C44.7686 19.0718 46.4114 18.7335 48.0403 18.6602C48.2042 18.6428 48.3647 18.6184 48.5286 18.6044C52.2223 18.3219 55.7241 19.5984 59.4178 18.9044C62.1906 18.3847 64.9775 18.0289 67.6527 18.7858C69.142 19.0195 70.5755 19.6333 71.9009 20.3309C73.5437 21.1959 75.2528 22.1376 76.6828 23.3305C78.0675 24.4815 78.9569 25.7825 79.0895 27.1741C80.0626 31.248 73.4705 33.9999 70.4151 34.4952V34.4987Z" fill="#83B235"/>
</g>
<g style="mix-blend-mode:multiply" opacity="0.5">
<path d="M83.6276 28.1403C83.0835 28.224 82.4522 28.3077 82.0616 28.6774C81.4268 29.2843 81.0326 30.4353 81.514 31.2445C81.6849 31.534 81.9011 31.7782 82.1383 32.0049C83.7218 31.3736 84.681 31.3073 84.681 31.3073C84.681 31.3073 86.6795 30.1912 83.6451 28.1612C83.6451 28.1612 83.6381 28.1542 83.6241 28.1403H83.6276Z" fill="#83B235"/>
</g>
<path d="M93.1356 29.7796C93.1356 29.7796 92.8426 28.1786 91.4195 29.1797C89.9999 30.1772 86.1075 29.9889 84.9007 29.4587C84.9007 29.4587 83.6032 30.7143 84.6809 31.3073C84.6809 31.3073 87.9351 31.4852 89.4384 33.2989C90.9417 35.1091 92.2915 34.6208 93.0728 33.6128C93.8541 32.6048 93.1321 29.7831 93.1321 29.7831L93.1356 29.7796Z" fill="#6F992E"/>
<path d="M91.4684 34.7045C90.7324 34.7045 90 34.272 89.2919 33.4209C87.8584 31.6944 84.7019 31.4991 84.6705 31.4991C84.6426 31.4991 84.6147 31.4886 84.5903 31.4747C84.2868 31.3073 84.1124 31.0771 84.0706 30.7841C83.9764 30.097 84.7368 29.3541 84.7681 29.3227C84.824 29.2704 84.9077 29.2529 84.9774 29.2843C85.5459 29.5354 86.7458 29.7029 87.9631 29.7029C89.4768 29.7029 90.6976 29.4552 91.3114 29.0227C91.6532 28.782 91.9706 28.66 92.2566 28.66C93.1147 28.66 93.317 29.7029 93.3239 29.7447C93.3518 29.8493 94.0564 32.6571 93.2263 33.7244C92.738 34.3557 92.1136 34.701 91.4719 34.701L91.4684 34.7045ZM84.7368 31.1189C85.1588 31.1468 88.127 31.4189 89.5849 33.1768C90.2162 33.9371 90.851 34.3243 91.4684 34.3243C91.9916 34.3243 92.5078 34.0313 92.9228 33.4942C93.5193 32.7269 93.1426 30.5888 92.9507 29.8284C92.9472 29.8075 92.7973 29.0436 92.2566 29.0436C92.0544 29.0436 91.8102 29.1413 91.5312 29.3366C90.6069 29.9889 88.9013 30.083 87.9665 30.083C86.7632 30.083 85.6052 29.9296 84.953 29.6854C84.7437 29.9156 84.4019 30.376 84.4542 30.7353C84.4752 30.8887 84.5693 31.0178 84.7437 31.1189H84.7368Z" fill="#3A6530"/>
<g style="mix-blend-mode:multiply">
<path d="M93.076 33.6093C93.8573 32.6013 93.1353 29.7796 93.1353 29.7796C93.1353 29.7796 93.0272 29.2076 92.6365 28.9599C91.2623 29.4622 92.1761 30.5748 91.6669 31.5933C91.5413 31.8479 91.3251 32.1479 90.9833 32.0851C90.2648 31.949 87.9976 31.1259 86.2781 30.5295C85.5701 30.4179 84.8725 30.4039 84.2586 30.5958C84.2377 30.8608 84.3319 31.1189 84.6772 31.3073C84.6772 31.3073 87.9314 31.4852 89.4346 33.2989C90.9379 35.1091 92.2877 34.6208 93.069 33.6128L93.076 33.6093Z" fill="#6F992E"/>
</g>
<g style="mix-blend-mode:multiply">
<path d="M93.0757 33.6093C93.8569 32.6013 93.135 29.7796 93.135 29.7796C93.135 29.7796 93.1036 29.6226 93.0199 29.4378C92.7792 29.947 92.6153 31.9595 92.5595 32.2281C92.4165 32.9187 92.1793 33.4558 91.4956 33.6965C90.7562 33.9581 90.1493 33.1384 89.6994 32.7059C88.7367 31.7816 87.3939 31.4328 86.0859 31.52C87.1532 31.7607 88.5833 32.263 89.4413 33.2954C90.9446 35.1056 92.2944 34.6173 93.0757 33.6093Z" fill="#6F992E"/>
</g>
<g style="mix-blend-mode:multiply" opacity="0.5">
<path d="M60.8585 32.12C60.4469 31.1817 59.4877 30.3516 58.5146 30.4667C57.8136 30.5504 56.7009 31.6561 56.6172 32.3502C56.5788 32.6571 57.109 32.8071 57.3218 32.7478C58.3402 32.4688 59.3866 32.3188 60.4399 32.4618C60.6353 32.4862 60.9771 32.3885 60.8585 32.12Z" fill="#7BA732"/>
</g>
<g style="mix-blend-mode:multiply" opacity="0.5">
<path d="M40.2801 36.4414C40.7195 36.3682 41.166 36.5286 41.6159 36.4345C41.7589 36.4031 41.9403 36.288 41.867 36.1066C41.1625 34.3557 38.3931 33.7209 38.2989 36.7205C38.292 36.9367 38.6373 37.0902 38.8535 37.003C39.3244 36.8111 39.7743 36.5217 40.2801 36.4414Z" fill="#7BA732"/>
</g>
<g style="mix-blend-mode:multiply" opacity="0.5">
<path d="M23.0258 44.6484C23.3152 44.5822 23.2873 44.2892 23.106 44.1218C22.6421 43.6997 21.805 43.4556 21.2504 43.6684C20.7796 43.8497 20.4063 44.4741 20.4203 45.0356C20.4482 46.0227 22.6316 44.7356 23.0258 44.6484Z" fill="#7BA732"/>
</g>
<g style="mix-blend-mode:multiply" opacity="0.5">
<path d="M58.8979 19.9019C58.9572 19.738 58.7654 19.595 58.6364 19.5531C58.2283 19.4101 57.8027 19.4834 57.3947 19.5845C57.2621 19.6159 57.1261 19.6264 56.9866 19.6333C56.4181 19.5426 55.86 19.3159 55.288 19.5392C55.1833 19.5775 55.0438 19.6543 55.0682 19.7938C55.2078 20.6239 56.2053 20.9204 56.9308 20.9831C57.6807 21.0494 58.6259 20.6588 58.8979 19.9089V19.9019Z" fill="#7BA732"/>
</g>
<g style="mix-blend-mode:multiply" opacity="0.5">
<path d="M37.0536 24.1501C36.9769 23.8885 36.5479 23.8083 36.363 23.9722C36.0596 24.2373 35.7875 24.5303 35.4527 24.757C35.1911 24.9314 34.8876 25.0221 34.6121 25.1651C34.3784 25.2383 34.1796 25.3395 34.0645 25.5732C33.7959 26.1173 34.8597 26.4661 35.1911 26.501C36.4084 26.6265 37.3919 25.2941 37.0571 24.1501H37.0536Z" fill="#7BA732"/>
</g>
<g style="mix-blend-mode:multiply" opacity="0.5">
<path d="M16.848 35.6323C16.8132 35.3602 16.3144 35.1335 16.1191 35.3741C15.9028 35.6427 15.6936 35.9183 15.4599 36.1729C15.425 36.2078 15.3866 36.2391 15.3517 36.274C15.3099 36.3054 15.275 36.3403 15.2297 36.3717C14.8948 36.6158 14.4519 36.7763 14.2217 37.1355C14.1135 37.3029 14.2321 37.4425 14.3751 37.5401C15.4703 38.2691 16.9841 36.7135 16.8515 35.6357L16.848 35.6323Z" fill="#7BA732"/>
</g>
<g style="mix-blend-mode:screen" opacity="0.6">
<path d="M35.2957 32.0362C36.0735 30.2644 34.769 29.2285 33.4123 28.3042C32.1043 27.4148 30.7057 27.352 29.2477 27.5194C27.8561 27.5473 26.4714 27.9275 25.0971 28.6181C22.5056 29.9226 19.3282 33.4663 19.6665 36.56C19.6944 36.7972 20.1234 36.9821 20.2908 36.7798C23.2381 33.1803 26.7085 31.1468 31.473 32.4792C32.4496 32.7547 34.7063 33.3721 35.2922 32.0293L35.2957 32.0362Z" fill="#74B22C"/>
</g>
<g style="mix-blend-mode:screen" opacity="0.6">
<path d="M14.198 42.6813C14.2677 42.6952 14.3375 42.7092 14.4072 42.7231C15.2897 42.9045 16.3779 43.4242 17.215 42.8592C17.923 42.3813 17.9056 41.2478 17.3859 40.6932C14.7072 37.8471 10.3299 40.3095 8.58596 42.8975C7.97209 43.8114 7.41751 45.2623 7.55005 46.3959C7.56749 46.5563 7.90582 46.7307 8.01394 46.5598C8.90335 45.1263 9.95669 43.623 11.5262 42.8731C12.3843 42.4615 13.2981 42.5104 14.2015 42.6813H14.198Z" fill="#74B22C"/>
</g>
<g style="mix-blend-mode:screen" opacity="0.6">
<path d="M54.713 24.6384C52.6761 20.4181 47.242 19.016 43.4367 21.2866C42.1915 22.0295 40.7755 23.1282 39.8895 24.2862C39.6454 24.6035 38.6444 26.4905 39.743 26.4731C40.3325 26.4626 41.0161 25.8697 41.4765 25.5662C42.1043 25.1511 42.7252 24.7082 43.3844 24.3454C44.8423 23.5397 46.6979 23.3793 48.2709 23.9095C50.0916 24.5233 51.0473 26.3022 52.6343 27.2543C54.9328 28.6321 55.3862 26.044 54.7096 24.6384H54.713Z" fill="#74B22C"/>
</g>
<g style="mix-blend-mode:screen" opacity="0.6">
<path d="M73.6655 27.2264C73.6167 25.629 72.6889 24.4361 71.5205 23.3828C70.7287 22.6678 69.8358 22.1132 68.8767 21.6528C66.1003 20.3204 62.3857 20.2228 59.9756 22.3643C59.7663 22.5527 60.2372 22.7689 60.3906 22.7201C63.5228 21.7016 67.3036 22.2318 68.9325 25.4372C69.6335 26.8184 69.6161 29.1064 71.1857 29.8947C72.6506 30.6306 73.6655 28.5623 73.6655 27.366C73.6655 27.3206 73.6655 27.2718 73.6655 27.2264Z" fill="#74B22C"/>
</g>
<path d="M105.522 54.4145C105.522 54.4145 101.567 48.8025 95.4873 44.495C89.4079 40.1874 82.2228 41.6524 76.855 39.9642C71.4871 38.2761 62.1361 40.0061 59.7399 41.3977C57.3437 42.7894 52.5967 44.352 50.2947 44.2125C47.9927 44.0695 41.7529 46.5773 39.402 48.5549C37.0477 50.5325 36.3641 52.5625 32.2972 53.9053C28.2303 55.2481 24.6971 58.6663 23.3787 61.9588C22.0568 65.2514 20.0826 66.5524 20.9372 68.2266C20.9372 68.2266 20.5884 68.9939 21.987 69.1334C23.2741 69.2625 25.5865 68.2649 30.2882 70.6053C35.8618 73.3782 39.0149 71.5366 41.4599 69.3776C43.9049 67.2186 44.2258 66.0606 47.6544 66.8837C51.083 67.7069 56.0986 65.9036 58.003 63.9225C59.1609 62.7157 60.5142 61.2508 62.2372 60.9404C63.6254 60.6893 64.9997 61.2787 66.2937 61.7007C68.1422 62.3007 69.7536 62.6215 71.7103 62.3704C73.3322 62.1611 74.9576 61.6833 76.3841 60.8706C77.6642 60.1417 78.9442 59.2732 80.4684 59.2453C81.8915 59.2174 83.1646 60.0231 84.3923 60.6404C87.8035 62.353 91.7727 62.6739 95.4419 61.5194C96.4569 61.202 97.4998 60.759 98.4171 60.2184C103.077 57.4804 106.226 56.2422 106.226 56.2422C106.226 56.2422 108.27 56.8212 105.525 54.418L105.522 54.4145Z" fill="#426726"/>
<path d="M35.457 72.1923C33.8421 72.1923 32.1226 71.7284 30.2008 70.7727C27.3965 69.3776 25.5374 69.2171 24.383 69.2171C23.8737 69.2171 23.4377 69.2555 23.0506 69.2869C22.6216 69.3218 22.2693 69.3531 21.9659 69.3218C21.3624 69.2625 20.9718 69.0776 20.7974 68.7776C20.6858 68.5823 20.6928 68.3765 20.7277 68.237C20.2149 67.1383 20.8009 66.1896 21.6101 64.8886C22.0949 64.1039 22.7018 63.1273 23.2006 61.8856C24.6097 58.3698 28.3278 55.0144 32.2377 53.7239C35.0419 52.7996 36.2208 51.5335 37.466 50.1942C38.0066 49.6117 38.5682 49.0083 39.2797 48.4084C41.6933 46.3784 47.9297 43.8741 50.3084 44.0206C52.586 44.1636 57.3226 42.5801 59.6455 41.2338C61.4034 40.2119 66.6457 39.0748 71.3543 39.0748C73.5517 39.0748 75.4212 39.312 76.914 39.7828C78.8324 40.3862 80.9809 40.5816 83.2585 40.7908C87.1998 41.1501 91.6678 41.5582 95.5986 44.3415C101.462 48.4956 105.403 53.9227 105.665 54.289C107.116 55.5586 107.217 55.9876 107.123 56.2352C107.077 56.3538 106.959 56.4933 106.638 56.4933C106.484 56.4933 106.324 56.4619 106.237 56.441C105.794 56.6224 102.766 57.8815 98.511 60.3823C97.6251 60.902 96.5822 61.3589 95.494 61.7007C91.8247 62.8517 87.723 62.5239 84.3049 60.8078C84.113 60.7136 83.9212 60.6125 83.7294 60.5114C82.7144 59.9812 81.668 59.4336 80.5414 59.4336H80.4717C79.1881 59.4615 78.0615 60.1172 76.9663 60.7555C76.8024 60.8497 76.6385 60.9439 76.478 61.038C75.1213 61.8088 73.4785 62.3355 71.7345 62.5587C69.9731 62.7855 68.4698 62.6076 66.2341 61.8821C66.0458 61.8193 65.8574 61.7565 65.6656 61.6903C64.7727 61.3868 63.8484 61.0694 62.9276 61.0694C62.7009 61.0694 62.4811 61.0903 62.2684 61.1252C60.664 61.4182 59.3874 62.7506 58.2573 63.926L58.1352 64.055C56.4297 65.8339 52.5616 67.2779 49.5167 67.2779C48.8296 67.2779 48.1843 67.2081 47.6053 67.0686C46.8729 66.8942 46.2799 66.807 45.7846 66.807C44.4523 66.807 43.8244 67.4069 42.6874 68.4951C42.3665 68.8021 42.0072 69.1474 41.5817 69.5206C40.0819 70.8425 38.1845 72.1958 35.457 72.1958V72.1923ZM24.383 68.8369C26.2804 68.8369 28.1813 69.3427 30.3717 70.4309C32.2412 71.3587 33.9049 71.8121 35.4605 71.8121C38.059 71.8121 39.8866 70.5076 41.3306 69.2311C41.7491 68.8614 42.1084 68.5195 42.4223 68.2161C43.95 66.7547 44.7801 65.9943 47.6925 66.6954C48.2436 66.8279 48.854 66.8942 49.5132 66.8942C52.8232 66.8942 56.4227 65.2828 57.8597 63.7865L57.9818 63.6574C59.1502 62.4402 60.4721 61.059 62.1986 60.745C62.4323 60.7032 62.6765 60.6823 62.9241 60.6823C63.9077 60.6823 64.8634 61.0066 65.7842 61.3205C65.9725 61.3868 66.1609 61.4496 66.3492 61.5089C68.5291 62.2169 69.9836 62.3878 71.6822 62.1681C73.3808 61.9484 74.9713 61.4391 76.2862 60.6927C76.4467 60.602 76.6106 60.5079 76.771 60.4137C77.9046 59.7545 79.08 59.0709 80.4612 59.043H80.5379C81.7587 59.043 82.8504 59.6115 83.9038 60.1626C84.0956 60.2637 84.2839 60.3614 84.4758 60.4555C87.8067 62.1262 91.8038 62.4471 95.3824 61.324C96.4427 60.9927 97.4577 60.5462 98.3192 60.0405C102.937 57.3269 106.122 56.0608 106.153 56.0503C106.191 56.0364 106.233 56.0329 106.275 56.0434C106.275 56.0434 106.47 56.0992 106.638 56.0992C106.725 56.0992 106.767 56.0817 106.774 56.0782C106.774 56.0643 106.781 55.7574 105.396 54.5506C105.386 54.5401 105.375 54.5296 105.365 54.5157C105.326 54.4599 101.357 48.8792 95.3754 44.6415C91.5318 41.9174 87.3079 41.5338 83.2236 41.1606C80.9251 40.9513 78.7556 40.7525 76.7989 40.1386C75.3445 39.6817 73.5133 39.448 71.3543 39.448C66.705 39.448 61.5534 40.5572 59.8373 41.5547C57.4656 42.9324 52.6314 44.5368 50.284 44.3938C48.0413 44.2543 41.8329 46.7516 39.5239 48.6944C38.8298 49.2769 38.2752 49.8733 37.7416 50.4453C36.4615 51.823 35.2512 53.1205 32.3528 54.0762C28.5405 55.3353 24.9201 58.6 23.5494 62.0181C23.0401 63.2912 22.4228 64.2818 21.931 65.0805C21.1427 66.3501 20.623 67.1907 21.1009 68.1289C21.1288 68.1812 21.1288 68.2405 21.1043 68.2928C21.1043 68.2963 21.045 68.4393 21.1288 68.5823C21.2369 68.7637 21.5473 68.8893 22.0007 68.9346C22.2798 68.9625 22.6111 68.9346 23.0157 68.8997C23.4098 68.8683 23.8528 68.83 24.3795 68.83L24.383 68.8369Z" fill="#405C28"/>
<path d="M105.915 52.8799C105.915 52.8799 101.96 47.2679 95.8808 42.9603C89.8014 38.6528 82.6163 40.1177 77.2519 38.4296C71.8841 36.7414 62.5331 38.4714 60.1369 39.8631C57.7407 41.2547 52.9937 42.8208 50.6917 42.6778C48.3897 42.5348 42.1499 45.0426 39.799 47.0202C37.4447 48.9979 36.7611 51.0278 32.6942 52.3706C28.6273 53.7135 25.0941 57.1316 23.7722 60.4207C22.4538 63.7133 20.0053 66.7756 20.8563 68.4463C20.8563 68.4463 21.5748 69.2625 22.7502 68.7219C23.9256 68.1847 26.0498 67.7836 30.8282 69.967C35.6066 72.1505 39.4049 69.9949 41.8499 67.8359C44.2949 65.6769 44.703 65.091 48.1316 65.9141C51.5602 66.7372 56.4886 64.362 58.3929 62.3809C60.2973 60.3998 62.3308 58.8267 65.9372 60.6439C69.5437 62.4611 74.2454 60.7625 76.7776 59.3255C79.3098 57.8885 81.1619 57.5781 84.4963 59.4859C87.8307 61.3938 94.1508 61.4147 98.8106 58.6733C103.47 55.9353 106.54 56.1236 106.54 56.1236C106.54 56.1236 108.664 55.2726 105.919 52.8729L105.915 52.8799Z" fill="#88B838"/>
<path d="M34.7904 71.0727C33.4545 71.0727 32.0942 70.7623 30.7479 70.1449C28.3482 69.0497 26.3601 68.4916 24.8324 68.4916C24.0721 68.4916 23.4373 68.6207 22.8304 68.8997C22.5409 69.0323 22.2479 69.102 21.9654 69.102C21.1876 69.102 20.7342 68.5998 20.7132 68.5754C20.7028 68.5649 20.6923 68.5509 20.6853 68.537C20.068 67.3232 21.0097 65.5269 22.1014 63.4482C22.6246 62.4506 23.1652 61.4182 23.5942 60.3509C25.0033 56.8351 28.7214 53.4798 32.6314 52.1893C35.4356 51.265 36.611 49.9989 37.8562 48.6595C38.4003 48.077 38.9619 47.4736 39.6734 46.8737C42.087 44.8438 48.3268 42.343 50.7021 42.486C52.9832 42.629 57.7162 41.0489 60.0392 39.6991C61.7971 38.6772 67.0394 37.5401 71.7515 37.5401C73.9489 37.5401 75.8184 37.7773 77.3112 38.2482C79.2295 38.8516 81.3815 39.0469 83.6557 39.2562C87.597 39.6154 92.0649 40.0235 95.9923 42.8068C101.855 46.9609 105.8 52.3881 106.062 52.7543C107.136 53.6995 107.621 54.5401 107.499 55.2551C107.373 55.998 106.644 56.298 106.613 56.3119C106.589 56.3224 106.557 56.3259 106.529 56.3259C106.529 56.3259 106.484 56.3259 106.407 56.3259C105.873 56.3259 102.999 56.448 98.9082 58.8511C96.5085 60.2602 93.5229 61.038 90.4989 61.038C88.1167 61.038 85.9542 60.5497 84.4055 59.6638C82.843 58.7709 81.5769 58.3558 80.4189 58.3558C79.3411 58.3558 78.3122 58.6907 76.8752 59.5068C75.9928 60.0056 72.8537 61.6379 69.5123 61.6379C68.152 61.6379 66.9208 61.3659 65.8535 60.8288C64.8106 60.3021 63.8758 60.0475 62.9934 60.0475C61.0751 60.0475 59.6869 61.3275 58.5324 62.5274C56.7885 64.3445 52.8018 66.2873 49.6487 66.2873C49.0942 66.2873 48.571 66.228 48.0932 66.1129C47.0817 65.8688 46.3771 65.7606 45.8121 65.7606C44.4971 65.7606 43.831 66.3536 42.366 67.6511L41.9824 67.9929C39.6594 70.0438 37.2423 71.0831 34.7973 71.0831L34.7904 71.0727ZM24.8289 68.1115C26.4124 68.1115 28.4563 68.68 30.9048 69.7996C34.5846 71.4773 38.2468 70.7692 41.7208 67.6999L42.1045 67.3616C43.5938 66.0397 44.3402 65.3735 45.8016 65.3735C46.398 65.3735 47.1305 65.4851 48.1734 65.7362C48.6233 65.8443 49.1151 65.9001 49.6418 65.9001C52.7007 65.9001 56.5617 64.0167 58.2534 62.2588C59.4602 61.0032 60.9216 59.6638 62.9899 59.6638C63.9351 59.6638 64.9257 59.9324 66.0209 60.4869C67.0324 60.9962 68.2043 61.2543 69.5088 61.2543C72.756 61.2543 75.8219 59.6603 76.6834 59.172C78.1657 58.3314 79.2818 57.9722 80.4154 57.9722C81.6431 57.9722 82.9685 58.4047 84.5904 59.3325C86.0832 60.187 88.1794 60.6579 90.4954 60.6579C93.4531 60.6579 96.3725 59.901 98.7129 58.5233C102.78 56.1306 105.626 55.9457 106.404 55.9457C106.446 55.9457 106.477 55.9457 106.501 55.9457C106.623 55.8864 107.045 55.6492 107.119 55.1923C107.213 54.6203 106.756 53.8739 105.79 53.0298C105.779 53.0194 105.769 53.0089 105.758 52.995C105.72 52.9392 101.751 47.3585 95.7691 43.1208C91.9254 40.3967 87.7016 40.013 83.6173 39.6398C81.3188 39.4306 79.1493 39.2318 77.1926 38.6179C75.7381 38.161 73.907 37.9273 71.748 37.9273C67.0987 37.9273 61.9436 39.0364 60.2275 40.034C57.9116 41.3803 53.4715 42.8836 50.9986 42.8836C50.887 42.8836 50.7788 42.8836 50.6777 42.8731C48.435 42.7301 42.23 45.2309 39.9175 47.1737C39.2235 47.7596 38.6689 48.3526 38.1352 48.9281C36.8552 50.3023 35.6484 51.6033 32.7499 52.559C28.9377 53.8146 25.3173 57.0828 23.9465 60.5009C23.5105 61.5856 22.9664 62.625 22.4363 63.633C21.4038 65.6037 20.5075 67.3058 21.0097 68.3486C21.083 68.4219 21.4213 68.7288 21.9619 68.7288C22.1886 68.7288 22.4293 68.673 22.6699 68.5614C23.3187 68.2649 24.0267 68.1184 24.8324 68.1184L24.8289 68.1115Z" fill="#658D41"/>
<g style="mix-blend-mode:multiply" opacity="0.5">
<path d="M98.811 58.6802C103.471 55.9422 106.54 56.1306 106.54 56.1306C106.54 56.1306 108.664 55.2795 105.919 52.8799C105.919 52.8799 101.964 47.2679 95.8847 42.9603C89.8053 38.6528 82.6202 40.1177 77.2559 38.4296C71.888 36.7414 62.537 38.4714 60.1408 39.8631C57.7446 41.2547 52.9976 42.8208 50.6956 42.6778C48.3936 42.5348 42.1538 45.0426 39.8029 47.0202C37.4486 48.9979 36.765 51.0278 32.6981 52.3706C28.6312 53.7135 25.098 57.1316 23.7761 60.4207C22.4577 63.7133 20.0092 66.7756 20.8602 68.4463C20.8602 68.4463 21.5787 69.2625 22.7541 68.7219C23.9295 68.1847 26.0537 67.7836 30.8321 69.967C35.6105 72.1505 39.4088 69.9949 41.8538 67.8359C44.2988 65.6769 44.7069 65.091 48.1355 65.9141C51.5641 66.7372 56.4925 64.362 58.3968 62.3809C60.3012 60.3998 62.3347 58.8267 65.9412 60.6439C69.5476 62.4611 74.2493 60.7625 76.7815 59.3255C79.3137 57.8885 81.1658 57.5781 84.5002 59.4859C87.8346 61.3938 94.1547 61.4147 98.8145 58.6733L98.811 58.6802ZM31.4111 55.1679C31.8401 54.9552 32.2795 54.7773 32.7295 54.6343C33.4689 54.4006 34.2537 54.2471 35.028 54.1564C36.186 54.0169 37.5846 54.0588 38.4705 53.1763C39.9982 51.6556 40.8249 49.0013 42.4119 47.5329C44.8499 45.2763 48.2018 44.1183 51.5013 44.1392C53.0848 44.1497 54.7694 44.5124 56.2099 45.1891C57.1063 45.6111 58.0062 46.3889 59.0561 46.1901C60.3256 45.946 61.079 44.5194 61.7382 43.5533C62.6765 42.1721 63.7717 41.0699 65.3482 40.4281C67.7618 39.4445 70.58 39.1481 73.1436 39.6747C75.2747 40.1142 76.792 41.7814 78.7452 42.6011C80.8693 43.494 82.4912 42.8522 84.4828 42.2627C88.4171 41.1013 93.4257 43.1243 96.087 46.1517C98.2425 48.6037 98.7726 51.0208 96.0591 53.2287C92.4177 56.1969 87.3812 53.9507 84.0607 51.6696C82.9376 50.8988 81.3785 50.0477 79.9799 50.6651C78.9231 51.129 78.1034 51.7603 77.228 52.5171C75.1038 54.3553 72.61 55.1226 69.8336 55.0947C67.8107 55.0738 65.8051 54.3273 63.9914 53.4937C63.1718 53.117 62.3486 52.5869 61.4243 52.5032C60.8279 52.4474 60.5558 52.6985 60.1513 53.0508C59.0909 53.9751 58.4282 56.0329 57.476 57.1351C55.0066 59.9917 50.4793 61.2229 46.824 60.5288C45.9346 60.3614 45.0871 60.0335 44.2639 59.6708C43.3571 59.2697 42.2654 58.7465 41.3655 59.4406C40.5389 60.0789 40.0645 61.0171 39.4472 61.8298C37.6335 64.219 34.2049 65.942 31.1774 65.4258C30.3856 65.2898 29.3323 65.0107 28.6591 64.5503C27.5569 63.797 26.835 62.0147 26.9396 60.7311C27.0721 59.1302 28.0836 57.7036 29.2625 56.6782C29.9008 56.1201 30.6577 55.5481 31.418 55.1714L31.4111 55.1679Z" fill="#BECA00"/>
</g>
<g style="mix-blend-mode:multiply" opacity="0.5">
<path d="M98.811 58.6802C103.471 55.9422 106.54 56.1306 106.54 56.1306C106.54 56.1306 108.664 55.2795 105.919 52.8799C105.919 52.8799 101.964 47.2679 95.8847 42.9603C89.8053 38.6528 82.6202 40.1177 77.2559 38.4296C71.888 36.7414 62.537 38.4714 60.1408 39.8631C57.7446 41.2547 52.9976 42.8208 50.6956 42.6778C48.3936 42.5348 42.1538 45.0426 39.8029 47.0202C37.4486 48.9979 36.765 51.0278 32.6981 52.3706C28.6312 53.7135 25.098 57.1316 23.7761 60.4207C22.4577 63.7133 20.0092 66.7756 20.8602 68.4463C20.8602 68.4463 21.5787 69.2625 22.7541 68.7219C23.9295 68.1847 26.0537 67.7836 30.8321 69.967C35.6105 72.1505 39.4088 69.9949 41.8538 67.8359C44.2988 65.6769 44.7069 65.091 48.1355 65.9141C51.5641 66.7372 56.4925 64.362 58.3968 62.3809C60.3012 60.3998 62.3347 58.8267 65.9412 60.6439C69.5476 62.4611 74.2493 60.7625 76.7815 59.3255C79.3137 57.8885 81.1658 57.5781 84.5002 59.4859C87.8346 61.3938 94.1547 61.4147 98.8145 58.6733L98.811 58.6802ZM91.9817 57.4595C89.0833 57.5536 86.5127 56.6921 83.8235 55.7295C82.2993 55.1819 80.5275 54.5959 78.9091 55.1017C77.3814 55.576 76.063 56.5422 74.5946 57.163C71.7066 58.3838 68.3896 58.6454 65.3831 57.6792C64.4623 57.3827 63.5938 57.0339 62.7323 56.7305C61.4418 56.5875 60.2106 56.8107 59.1188 57.9024C58.1422 58.8825 57.211 59.9254 56.1472 60.8113C53.8591 62.7192 51.0548 63.6365 48.0657 63.2773C47.1868 63.1726 46.3148 63.0296 45.4812 62.7262C44.5639 62.3913 43.078 61.624 42.1328 62.2762C40.933 63.1064 40.4586 64.5957 39.3425 65.513C36.6255 67.7487 32.8725 67.9685 29.6497 66.964C27.829 66.3954 26.1618 65.9315 24.233 66.078C23.7761 66.1129 23.211 66.0641 23.2145 65.4677C23.218 64.6724 23.375 63.8702 23.6435 63.0854C24.1597 61.0485 25.1085 59.1023 26.5036 57.5432C27.9615 55.9143 29.7718 54.8994 31.725 54.0379C31.854 53.9716 31.9831 53.9053 32.1156 53.846C32.4574 53.6926 32.8132 53.553 33.1724 53.4135C34.606 52.7613 36.1616 52.4683 37.2847 51.265C38.2857 50.1942 38.9275 48.6491 40.082 47.7387C40.9609 47.0481 41.8747 46.4622 42.8269 45.9704C43.9117 45.2414 45.1743 44.7426 46.4055 44.3869C48.2645 43.8497 50.2805 43.351 52.2233 43.2847C53.9428 43.2289 55.6972 43.344 57.3819 42.9568C58.7875 42.3674 60.078 41.5094 61.4871 40.8781C63.2311 40.0968 65.0762 39.5492 66.9492 39.176C68.5396 38.8586 70.2138 38.7365 71.8392 38.8725C72.0031 38.876 72.1635 38.8725 72.331 38.883C76.0316 39.0783 79.3381 40.7943 83.0911 40.5851C85.9058 40.4281 88.7171 40.4316 91.2737 41.5303C92.7212 41.9523 94.0605 42.7476 95.2847 43.6126C96.7985 44.6833 98.375 45.8378 99.6376 47.2016C100.862 48.5235 101.573 49.9256 101.528 51.3208C101.968 55.4853 95.0755 57.3618 91.9817 57.463V57.4595Z" fill="#83B235"/>
</g>
<g style="mix-blend-mode:multiply" opacity="0.5">
<path d="M105.898 52.8554C105.347 52.8694 104.709 52.8694 104.276 53.1868C103.568 53.7065 103.031 54.7982 103.404 55.6632C103.537 55.9701 103.722 56.2422 103.927 56.4968C105.581 56.0748 106.536 56.1306 106.536 56.1306C106.536 56.1306 108.661 55.2795 105.916 52.8799C105.916 52.8799 105.909 52.8694 105.898 52.8554Z" fill="#83B235"/>
</g>
<path d="M115.117 55.7085C115.117 55.7085 115.033 54.0832 113.495 54.8924C111.957 55.7016 108.123 55.0109 106.997 54.3308C106.997 54.3308 105.549 55.4086 106.54 56.134C106.54 56.134 109.745 56.7305 111.001 58.7221C112.257 60.7136 113.659 60.3997 114.566 59.4999C115.472 58.6 115.12 55.7085 115.12 55.7085H115.117Z" fill="#6F992E"/>
<path d="M113.065 60.3893C112.5 60.3893 111.656 60.1172 110.837 58.8197C109.637 56.9223 106.533 56.3224 106.501 56.3189C106.473 56.3119 106.445 56.3015 106.425 56.284C106.146 56.0782 106.003 55.8271 105.999 55.5341C105.999 54.8401 106.843 54.2018 106.881 54.1739C106.944 54.1285 107.028 54.125 107.094 54.1634C107.799 54.5889 109.766 55.0633 111.465 55.0633C112.309 55.0633 112.982 54.9447 113.407 54.7215C113.718 54.5575 114.004 54.4738 114.251 54.4738C115.036 54.4738 115.284 55.2726 115.308 55.6981C115.322 55.8062 115.66 58.6802 114.698 59.6324C114.349 59.9777 113.784 60.3893 113.065 60.3893ZM106.616 55.9527C107.031 56.0364 109.94 56.6851 111.158 58.6174C111.733 59.5278 112.392 60.0091 113.062 60.0091C113.651 60.0091 114.129 59.6568 114.426 59.3638C115.113 58.6802 115.019 56.5107 114.925 55.7329C114.925 55.6841 114.869 54.8575 114.248 54.8575C114.06 54.8575 113.836 54.9272 113.582 55.0598C113.093 55.3144 112.378 55.4469 111.461 55.4469C109.759 55.4469 107.851 55.0005 107.011 54.5575C106.773 54.7598 106.376 55.1749 106.379 55.5341C106.379 55.6911 106.456 55.8271 106.616 55.9527Z" fill="#3A6530"/>
<g style="mix-blend-mode:multiply">
<path d="M114.562 59.4964C115.468 58.5965 115.116 55.7051 115.116 55.7051C115.116 55.7051 115.085 55.1226 114.726 54.8296C113.295 55.1505 114.063 56.3712 113.425 57.3165C113.268 57.5501 113.016 57.8222 112.685 57.7141C111.988 57.4874 109.846 56.3782 108.221 55.5655C107.533 55.3632 106.843 55.2586 106.212 55.3702C106.156 55.6283 106.219 55.8969 106.536 56.1306C106.536 56.1306 109.741 56.727 110.997 58.7186C112.253 60.7102 113.655 60.3963 114.562 59.4964Z" fill="#6F992E"/>
</g>
<g style="mix-blend-mode:multiply">
<path d="M114.562 59.4964C115.469 58.5965 115.117 55.705 115.117 55.705C115.117 55.705 115.106 55.5446 115.047 55.3493C114.744 55.8236 114.322 57.7978 114.231 58.0559C114.001 58.7255 113.697 59.2243 112.986 59.3778C112.218 59.5417 111.723 58.6523 111.332 58.164C110.499 57.1246 109.208 56.6049 107.9 56.5212C108.929 56.8979 110.279 57.578 110.998 58.7151C112.253 60.7067 113.655 60.3928 114.562 59.4929V59.4964Z" fill="#6F992E"/>
</g>
<g style="mix-blend-mode:multiply" opacity="0.5">
<path d="M82.8081 53.8669C82.5221 52.8833 81.6781 51.9346 80.698 51.9242C79.9934 51.9172 78.7482 52.8694 78.5703 53.546C78.4936 53.846 78.9994 54.0622 79.2191 54.0343C80.2655 53.8879 81.3223 53.8774 82.3477 54.1529C82.5396 54.2052 82.8884 54.1529 82.8047 53.8669H82.8081Z" fill="#7BA732"/>
</g>
<g style="mix-blend-mode:multiply" opacity="0.5">
<path d="M61.8459 55.4958C62.2923 55.4818 62.7144 55.6981 63.1713 55.6597C63.3178 55.6458 63.5131 55.5586 63.4643 55.3702C62.9899 53.5426 60.3287 52.5555 59.8473 55.5202C59.8124 55.7364 60.1368 55.9283 60.36 55.8725C60.8518 55.7434 61.3366 55.5167 61.8459 55.4993V55.4958Z" fill="#7BA732"/>
</g>
<g style="mix-blend-mode:multiply" opacity="0.5">
<path d="M43.6737 61.4112C43.9701 61.3833 43.9806 61.0869 43.8201 60.8985C43.4156 60.4207 42.6168 60.0719 42.0378 60.2114C41.5495 60.33 41.0961 60.902 41.0403 61.4601C40.9392 62.4436 43.2725 61.4496 43.6737 61.4112Z" fill="#7BA732"/>
</g>
<g style="mix-blend-mode:multiply" opacity="0.5">
<path d="M82.4421 41.4989C82.5223 41.3454 82.3514 41.1815 82.2293 41.1187C81.8421 40.9234 81.4131 40.9443 80.9946 40.9862C80.8586 41.0001 80.7225 40.9931 80.583 40.9792C80.0319 40.8153 79.5088 40.5188 78.9123 40.6653C78.8042 40.6932 78.6577 40.7455 78.6612 40.8885C78.6926 41.7291 79.6448 42.1511 80.3563 42.3081C81.0923 42.4685 82.0793 42.2069 82.4455 41.4954L82.4421 41.4989Z" fill="#7BA732"/>
</g>
<g style="mix-blend-mode:multiply" opacity="0.5">
<path d="M60.2271 42.8906C60.1853 42.622 59.7702 42.486 59.5644 42.6255C59.2296 42.8487 58.9192 43.1068 58.5599 43.2847C58.2774 43.4242 57.967 43.4765 57.6705 43.5812C57.4298 43.623 57.2206 43.6998 57.0741 43.916C56.7392 44.4217 57.7472 44.9031 58.0716 44.9798C59.261 45.2623 60.4085 44.066 60.2236 42.8871L60.2271 42.8906Z" fill="#7BA732"/>
</g>
<g style="mix-blend-mode:multiply" opacity="0.5">
<path d="M38.7139 51.6695C38.7139 51.394 38.25 51.108 38.0233 51.3208C37.7722 51.5579 37.5315 51.8056 37.2664 52.0253C37.2281 52.0567 37.1862 52.0811 37.1478 52.109C37.1025 52.1369 37.0606 52.1648 37.0118 52.1927C36.6491 52.3915 36.1887 52.4962 35.9131 52.8206C35.7841 52.974 35.8817 53.1275 36.0143 53.2391C37.0083 54.1041 38.7104 52.7543 38.7139 51.6695Z" fill="#7BA732"/>
</g>
<g style="mix-blend-mode:screen" opacity="0.6">
<path d="M57.469 50.4837C58.4665 48.8269 57.3085 47.6306 56.0808 46.5389C54.9019 45.489 53.5172 45.2484 52.0523 45.224C50.6676 45.0705 49.248 45.2693 47.7936 45.7785C45.0556 46.7377 41.4491 49.8454 41.3828 52.9566C41.3793 53.1938 41.7805 53.4344 41.9723 53.2566C45.359 50.0651 49.0632 48.4956 53.6183 50.4349C54.5496 50.8325 56.7086 51.7358 57.4655 50.4837H57.469Z" fill="#74B22C"/>
</g>
<g style="mix-blend-mode:screen" opacity="0.6">
<path d="M35.1736 58.321C35.2434 58.3419 35.3096 58.3663 35.3759 58.3907C36.2269 58.6872 37.2384 59.3429 38.1418 58.8895C38.9056 58.5093 39.0347 57.3792 38.5882 56.7654C36.3002 53.5949 31.6404 55.4749 29.5755 57.8187C28.8466 58.6453 28.1106 60.0126 28.0967 61.1531C28.0967 61.3136 28.4071 61.5298 28.5327 61.3764C29.6 60.0684 30.8382 58.7151 32.4914 58.171C33.3948 57.8745 34.2947 58.0384 35.1666 58.3245L35.1736 58.321Z" fill="#74B22C"/>
</g>
<g style="mix-blend-mode:screen" opacity="0.6">
<path d="M77.6777 45.653C76.2058 41.2059 70.9949 39.1132 66.9281 40.8746C65.5957 41.4501 64.0506 42.3569 63.0216 43.3928C62.7391 43.6753 61.5009 45.4193 62.5926 45.5448C63.1786 45.6111 63.932 45.1123 64.4307 44.8682C65.1074 44.5368 65.7806 44.1811 66.4816 43.902C68.0302 43.2917 69.8928 43.3684 71.3856 44.1009C73.1121 44.9449 73.8306 46.8319 75.2816 47.9829C77.3813 49.6466 78.166 47.1388 77.6777 45.6564V45.653Z" fill="#74B22C"/>
</g>
<g style="mix-blend-mode:screen" opacity="0.6">
<path d="M96.1388 50.6651C96.2957 49.0746 95.5284 47.7701 94.5064 46.5738C93.8123 45.7646 92.9997 45.0949 92.1068 44.5159C89.5257 42.8347 85.853 42.2592 83.1917 44.0764C82.958 44.2334 83.401 44.5124 83.5579 44.4845C86.7947 43.8776 90.4779 44.8926 91.6778 48.2793C92.1975 49.7408 91.8835 52.0044 93.338 52.9915C94.6948 53.9088 95.9679 51.9904 96.1248 50.8046C96.1318 50.7592 96.1353 50.7104 96.1422 50.6651H96.1388Z" fill="#74B22C"/>
</g>
<path d="M80.6169 65.8897C80.6169 65.8897 80.8506 60.1172 75.3572 57.7455C69.8638 55.3772 63.031 57.4769 59.4943 61.1008C55.9576 64.7247 56.9132 69.9182 59.1804 71.9516C61.4475 73.9851 63.9448 74.9687 68.2907 73.0224C68.2907 73.0224 70.4183 72.1679 72.5181 72.1121C74.6178 72.0563 79.6124 70.3263 80.6169 65.8897Z" fill="#C5D872"/>
<path d="M64.067 74.2641C62.2743 74.2641 60.7291 73.5944 59.0515 72.0911C57.8307 70.9994 57.032 69.0741 56.9657 67.0721C56.889 64.791 57.74 62.6215 59.3549 60.9648C61.9743 58.2791 66.2679 56.5456 70.2894 56.5456C72.1276 56.5456 73.8575 56.8874 75.4271 57.5676C80.9763 59.9638 80.8019 65.8374 80.8019 65.8932C79.8079 70.3019 74.9179 72.2341 72.5182 72.2969C70.4778 72.3492 68.3781 73.1828 68.3571 73.1933C66.7562 73.9083 65.3506 74.2606 64.0636 74.2606L64.067 74.2641ZM70.2929 56.9293C66.369 56.9293 62.1836 58.6174 59.6305 61.2333C58.0853 62.8168 57.2761 64.8852 57.3494 67.0616C57.4122 68.9625 58.1621 70.7832 59.3096 71.8086C60.9105 73.2421 62.3789 73.8839 64.0705 73.8839C65.3018 73.8839 66.6585 73.5456 68.2141 72.848C68.3083 72.8096 70.4045 71.976 72.5147 71.9202C74.2726 71.8749 79.4137 70.3507 80.4322 65.8478C80.4322 65.8269 80.5857 60.2079 75.2841 57.9199C73.7599 57.2641 72.0822 56.9293 70.2964 56.9293H70.2929Z" fill="#6FAA57"/>
<g style="mix-blend-mode:multiply" opacity="0.6">
<path d="M80.6169 65.8897C80.6169 65.8897 80.8506 60.1172 75.3572 57.7455C69.8638 55.3772 63.031 57.4769 59.4943 61.1008C55.9576 64.7247 56.9132 69.9182 59.1804 71.9516C61.4475 73.9851 63.9448 74.9687 68.2907 73.0224C68.2907 73.0224 70.4183 72.1679 72.5181 72.1121C74.6178 72.0563 79.6124 70.3263 80.6169 65.8897ZM76.8395 63.94C76.1768 64.3201 75.3014 64.491 74.6422 64.6061C73.5644 64.798 72.2774 64.7491 71.2485 65.0979C69.515 65.6839 67.9803 66.7372 66.2399 67.3058C64.7017 67.8045 63.1356 67.8324 61.723 66.9674C60.5581 66.2559 59.864 64.9619 59.8849 63.6086C59.9093 61.9588 61.1789 60.609 62.4939 59.7719C64.0146 58.8058 65.7167 58.2652 67.4641 57.8954C68.4442 57.6548 69.4522 57.5188 70.4846 57.5327C72.5704 57.5571 74.6422 58.1605 76.1908 59.5975C77.3313 60.6579 78.8416 62.7924 76.8395 63.94Z" fill="#C5D872"/>
</g>
<g style="mix-blend-mode:multiply">
<path d="M80.6173 65.8897C80.6173 65.8897 80.6313 65.506 80.5615 64.8956C80.5511 64.934 80.5441 64.9724 80.5301 65.0107C79.986 66.6152 78.4514 67.7138 76.9062 68.2614C76.0657 68.5614 75.2007 68.7498 74.3043 68.7463C73.387 68.7463 72.5115 68.4812 71.6081 68.3731C70.3525 68.2231 69.1631 68.4742 68.04 69.0497C67.1611 69.4996 66.3135 70.1065 65.3857 70.4449C63.9452 70.9715 62.4559 70.8285 61.141 70.0403C58.4344 68.4184 57.7263 64.5713 59.2471 61.9135C59.6447 61.2194 60.133 60.5951 60.6841 60.03C60.2585 60.3649 59.8609 60.7206 59.4982 61.0903C55.9615 64.7143 56.9172 69.9077 59.1843 71.9412C61.4514 73.9746 63.9487 74.9582 68.2946 73.0119C68.2946 73.0119 70.4222 72.1574 72.522 72.1016C74.6217 72.0458 79.6163 70.3158 80.6208 65.8792L80.6173 65.8897Z" fill="#C5D872"/>
</g>
<path d="M74.5524 71.6935C74.5524 71.6935 75.9789 70.9436 73.6595 69.9949C71.3366 69.0497 68.5428 69.7752 67.4824 72.1086C67.4824 72.1086 67.036 72.7259 67.5208 73.27C67.5208 73.27 67.6394 73.57 68.3161 73.2421C68.9927 72.9143 70.6076 72.569 71.3017 72.4085C71.9958 72.2481 73.6351 72.3876 74.5559 71.69L74.5524 71.6935Z" fill="#EBD9B3"/>
<path d="M67.7891 73.5909C67.5275 73.5909 67.4089 73.4549 67.3671 73.3851C66.9206 72.8654 67.1473 72.2551 67.3287 72.0005C68.0437 70.41 69.697 69.402 71.6153 69.402C72.3303 69.402 73.0628 69.545 73.7325 69.8205C74.6847 70.2077 75.1555 70.6158 75.1799 71.0692C75.2044 71.561 74.6672 71.8505 74.6463 71.8609C73.9766 72.3702 72.9512 72.4469 72.1315 72.5097C71.8141 72.5341 71.5386 72.555 71.3467 72.5969L71.0886 72.6562C70.3527 72.8236 68.9854 73.134 68.403 73.4165C68.1658 73.5316 67.96 73.5909 67.7926 73.5909H67.7891ZM67.6984 73.1968C67.6984 73.1968 67.8344 73.2666 68.2321 73.0747C68.8529 72.7713 70.1957 72.4678 70.998 72.2865L71.2561 72.2272C71.4723 72.1783 71.7618 72.1539 72.0966 72.1295C72.8675 72.0702 73.8301 72.0005 74.437 71.5401C74.4649 71.5226 74.8067 71.3308 74.7963 71.0866C74.7893 70.9576 74.6568 70.6088 73.586 70.1728C72.9616 69.9182 72.278 69.7856 71.6118 69.7856C69.8156 69.7856 68.3367 70.6855 67.6531 72.1923C67.6217 72.2446 67.2868 72.7294 67.66 73.148C67.674 73.1619 67.6845 73.1828 67.6914 73.2003L67.6984 73.1968Z" fill="#BD7A43"/>
<g style="mix-blend-mode:multiply">
<path d="M74.974 71.0239C74.6322 71.2645 73.8404 71.1599 73.4114 71.0657C71.8244 70.7099 69.6759 69.681 68.4447 71.2959C68.347 71.4215 68.1343 71.3273 68.1622 71.1703C68.1726 71.118 68.1831 71.0727 68.197 71.0239C67.911 71.3343 67.6669 71.697 67.4785 72.1121C67.4785 72.1121 67.0321 72.7294 67.5169 73.2735C67.5169 73.2735 67.6355 73.5735 68.3121 73.2456C68.9888 72.9178 70.6037 72.5725 71.2978 72.412C71.9919 72.2516 73.6312 72.3911 74.552 71.6935C74.552 71.6935 75.0438 71.4319 74.974 71.0239Z" fill="#E9BD79"/>
</g>
<g style="mix-blend-mode:color-dodge" opacity="0.8">
<path d="M75.9856 59.751C71.5246 57.2502 66.7427 57.9059 62.4666 60.5253C62.3759 60.5811 62.5538 60.7032 62.627 60.6718C66.9904 58.7883 71.4653 57.7559 75.9368 59.8452C76.0275 59.887 76.0728 59.7963 75.9856 59.7475V59.751Z" fill="#74B22C"/>
</g>
<path d="M81.2806 76.1406C81.2806 76.1406 81.0644 70.7901 86.1532 68.5928C91.242 66.3954 97.576 68.3416 100.855 71.704C104.133 75.0628 103.247 79.8761 101.148 81.7595C99.0479 83.643 96.732 84.5568 92.7069 82.7501C92.7069 82.7501 90.7328 81.9584 88.7866 81.906C86.8403 81.8537 82.2119 80.2493 81.2806 76.1406Z" fill="#C5D872"/>
<path d="M96.6167 83.9151C95.4239 83.9151 94.1159 83.5907 92.6266 82.921C92.6126 82.9175 90.6699 82.1432 88.7794 82.0944C86.5541 82.0351 82.0129 80.2423 81.0956 76.1789C81.0886 76.0882 80.9282 70.6367 86.0798 68.4149C87.5377 67.7871 89.1422 67.4662 90.8477 67.4662C94.5798 67.4662 98.5629 69.0741 100.991 71.5645C102.494 73.1026 103.282 75.1151 103.209 77.2323C103.146 79.0913 102.403 80.8771 101.273 81.8921C99.7174 83.2872 98.2804 83.9081 96.6167 83.9081V83.9151ZM90.8442 67.8499C89.191 67.8499 87.6354 68.1568 86.2263 68.7672C81.3119 70.8878 81.4653 76.0813 81.4688 76.1336C82.4071 80.2632 87.161 81.6758 88.7864 81.7177C90.7466 81.77 92.6893 82.5408 92.7731 82.5757C94.2205 83.2245 95.4762 83.5384 96.6132 83.5384C98.1758 83.5384 99.5361 82.9454 101.015 81.62C102.072 80.6713 102.766 78.9902 102.825 77.2323C102.891 75.2198 102.142 73.3049 100.715 71.84C98.3537 69.4194 94.4786 67.8568 90.8442 67.8568V67.8499Z" fill="#6FAA57"/>
<g style="mix-blend-mode:multiply" opacity="0.6">
<path d="M88.7866 81.906C90.7328 81.9584 92.7069 82.7501 92.7069 82.7501C96.732 84.5533 99.0479 83.643 101.148 81.7595C103.251 79.8761 104.137 75.0628 100.855 71.704C97.576 68.3451 91.242 66.3989 86.1532 68.5928C81.0644 70.7901 81.2806 76.1406 81.2806 76.1406C82.2119 80.2493 86.8403 81.8572 88.7866 81.906ZM85.3859 70.3088C86.8194 68.9764 88.7412 68.4184 90.6735 68.394C91.6292 68.3835 92.5639 68.5056 93.4708 68.7288C95.0892 69.0706 96.6692 69.5729 98.0783 70.4693C99.2956 71.2436 100.471 72.4957 100.495 74.0234C100.516 75.279 99.8711 76.4789 98.7933 77.1381C97.4819 77.9403 96.0309 77.9159 94.6078 77.452C92.9964 76.9288 91.5734 75.9487 89.9655 75.4081C89.0098 75.0872 87.8169 75.1291 86.8194 74.9512C86.209 74.8431 85.3998 74.6861 84.7825 74.3338C82.9304 73.27 84.329 71.2924 85.3859 70.3123V70.3088Z" fill="#C5D872"/>
</g>
<g style="mix-blend-mode:multiply">
<path d="M81.2804 76.1406C81.2804 76.1406 81.2665 75.7848 81.3327 75.2198C81.3432 75.2547 81.3502 75.293 81.3606 75.3279C81.8664 76.8137 83.286 77.8322 84.7195 78.3414C85.5008 78.617 86.2995 78.7949 87.1296 78.7914C87.9772 78.7914 88.7933 78.5472 89.6269 78.4461C90.7919 78.3066 91.8941 78.5402 92.9334 79.0739C93.7461 79.489 94.5309 80.054 95.3924 80.3679C96.7283 80.8562 98.1095 80.7237 99.3267 79.9947C101.835 78.4914 102.49 74.9233 101.081 72.4643C100.711 71.8226 100.261 71.2436 99.7488 70.7204C100.143 71.0308 100.513 71.3587 100.847 71.704C104.126 75.0628 103.24 79.8761 101.14 81.7596C99.0407 83.643 96.7248 84.5568 92.6998 82.7501C92.6998 82.7501 90.7256 81.9584 88.7794 81.9061C86.8331 81.8537 82.2047 80.2493 81.2734 76.1406H81.2804Z" fill="#C5D872"/>
</g>
<path d="M86.9027 81.5189C86.9027 81.5189 85.5808 80.8213 87.7328 79.9459C89.8848 79.0704 92.4763 79.7436 93.4564 81.906C93.4564 81.906 93.8715 82.4781 93.4181 82.9838C93.4181 82.9838 93.31 83.2628 92.6821 82.9594C92.0543 82.6525 90.558 82.3351 89.9162 82.1886C89.271 82.0386 87.7538 82.1676 86.9027 81.5224V81.5189Z" fill="#EBD9B3"/>
<path d="M93.1709 83.2907C93.0104 83.2907 92.8186 83.2349 92.5989 83.1303C92.0582 82.8687 90.7922 82.5792 90.1085 82.4257L89.8748 82.3734C89.7004 82.3316 89.4458 82.3141 89.1494 82.2932C88.3855 82.2374 87.4368 82.1641 86.7881 81.6724C86.7881 81.6724 86.2893 81.4038 86.3102 80.9434C86.3311 80.5179 86.7706 80.1342 87.66 79.7749C88.2809 79.5203 88.961 79.3878 89.6272 79.3878C91.413 79.3878 92.9477 80.326 93.6313 81.8328C93.7847 82.0386 93.994 82.6141 93.5755 83.0989C93.5336 83.1687 93.422 83.2942 93.1709 83.2942V83.2907ZM89.6272 79.7645C89.0098 79.7645 88.382 79.89 87.803 80.1237C86.8194 80.5248 86.6974 80.8422 86.6904 80.9573C86.6799 81.1771 86.9869 81.348 86.9904 81.3515C87.5728 81.7909 88.4622 81.8572 89.1773 81.9095C89.4877 81.9339 89.7562 81.9514 89.9585 82.0002L90.1922 82.0525C90.9386 82.22 92.1838 82.5025 92.7628 82.785C93.1325 82.9664 93.2372 82.9036 93.2511 82.8896C93.2581 82.8687 93.2581 82.8722 93.2755 82.8547C93.6208 82.4676 93.3139 82.0351 93.2999 82.0142C92.6512 80.5911 91.2839 79.761 89.6237 79.761L89.6272 79.7645Z" fill="#BD7A43"/>
<g style="mix-blend-mode:multiply">
<path d="M86.5089 80.8981C86.8229 81.1213 87.5588 81.0271 87.9564 80.9364C89.4248 80.6086 91.4199 79.6529 92.5604 81.1492C92.6511 81.2678 92.8499 81.1771 92.822 81.0306C92.8116 80.9853 92.8011 80.9399 92.7906 80.8946C93.0557 81.1841 93.2824 81.5189 93.4568 81.9026C93.4568 81.9026 93.8719 82.4746 93.4184 82.9803C93.4184 82.9803 93.3103 83.2594 92.6825 82.9559C92.0547 82.649 90.5584 82.3316 89.9166 82.1851C89.2714 82.0351 87.7541 82.1642 86.9031 81.5189C86.9031 81.5189 86.4462 81.2747 86.5124 80.8981H86.5089Z" fill="#E9BD79"/>
</g>
<g style="mix-blend-mode:color-dodge" opacity="0.8">
<path d="M85.5742 70.4483C89.7109 68.1324 94.137 68.7358 98.1027 71.1668C98.1864 71.2192 98.0225 71.3343 97.9562 71.3029C93.9138 69.5554 89.7632 68.5998 85.6231 70.539C85.5393 70.5774 85.494 70.4937 85.5777 70.4483H85.5742Z" fill="#74B22C"/>
</g>
<path d="M41.5883 73.6223C41.5883 73.6223 38.1457 68.9799 32.3837 70.5809C26.6217 72.1818 22.6176 78.1043 22.1363 83.1477C21.655 88.1912 25.6591 91.6338 28.7005 91.7942C31.7419 91.9547 34.3021 91.1524 36.4645 86.9112C36.4645 86.9112 37.5842 84.9091 39.1851 83.5488C40.786 82.1886 43.5868 77.7066 41.5848 73.6223H41.5883Z" fill="#C5D872"/>
<path d="M29.3839 92C29.1572 92 28.9235 91.993 28.6898 91.9826C27.054 91.8954 25.2264 90.9013 23.9184 89.3841C22.4291 87.6576 21.728 85.4358 21.9478 83.1303C22.4221 78.1566 26.4367 72.0353 32.3312 70.396C33.1509 70.1693 33.9705 70.0542 34.7692 70.0542C39.1291 70.0542 41.7136 73.4758 41.738 73.5107C43.7296 77.5671 41.1346 82.1398 39.307 83.6954C37.7514 85.0173 36.6387 86.9844 36.6283 87.0054C34.8425 90.5072 32.6765 92.0035 29.3804 92.0035L29.3839 92ZM34.7692 70.4344C34.0054 70.4344 33.2171 70.546 32.4323 70.7623C26.6948 72.3562 22.7883 78.3205 22.3245 83.1652C22.1152 85.3661 22.7814 87.4867 24.2044 89.133C25.4461 90.5735 27.1726 91.5187 28.7108 91.5989C28.9375 91.6129 29.1642 91.6164 29.3839 91.6164C31.5918 91.6164 34.1414 91.0478 36.2934 86.8205C36.3423 86.7298 37.4514 84.7661 39.0628 83.3989C40.4022 82.2618 43.4471 77.8497 41.4171 73.7026C41.4102 73.7026 38.9338 70.4309 34.7727 70.4309L34.7692 70.4344Z" fill="#6FAA57"/>
<g style="mix-blend-mode:multiply" opacity="0.6">
<path d="M41.5883 73.6223C41.5883 73.6223 38.1457 68.9799 32.3837 70.5809C26.6217 72.1818 22.6176 78.1043 22.1363 83.1477C21.655 88.1912 25.6591 91.6338 28.7005 91.7942C31.7419 91.9547 34.3021 91.1524 36.4645 86.9112C36.4645 86.9112 37.5842 84.9091 39.1851 83.5488C40.786 82.1886 43.5868 77.7066 41.5848 73.6223H41.5883ZM37.4237 74.4734C37.1447 75.1849 36.5692 75.8685 36.1332 76.3708C35.4147 77.1939 34.3823 77.9682 33.7998 78.8855C32.8162 80.4272 32.2861 82.213 31.285 83.7477C30.4026 85.101 29.1993 86.1055 27.553 86.3182C26.1997 86.4961 24.8464 85.9241 24.0128 84.8533C22.9978 83.5523 23.1373 81.7072 23.6361 80.2319C24.2116 78.5263 25.2022 77.0335 26.3287 75.6523C26.9391 74.8501 27.6402 74.1141 28.4529 73.4758C30.0922 72.1853 32.0838 71.3552 34.1904 71.5052C35.7426 71.6168 38.2573 72.3283 37.4202 74.4769L37.4237 74.4734Z" fill="#C5D872"/>
</g>
<g style="mix-blend-mode:multiply">
<path d="M41.5877 73.6223C41.5877 73.6223 41.3575 73.3119 40.9215 72.8829C40.9355 72.9213 40.9564 72.9561 40.9703 72.9945C41.5528 74.585 41.0471 76.4022 40.189 77.8008C39.7217 78.5612 39.1671 79.2518 38.4695 79.8098C37.7545 80.3819 36.9069 80.7306 36.1361 81.212C35.0619 81.8816 34.298 82.8234 33.7818 83.9779C33.3807 84.8777 33.1017 85.8823 32.5924 86.7298C31.8007 88.0447 30.552 88.8679 29.0313 89.0806C25.9062 89.5166 22.9414 86.9635 22.4601 83.943C22.3346 83.1547 22.3241 82.363 22.3973 81.5747C22.2753 82.1049 22.1881 82.6281 22.1392 83.1443C21.6579 88.1878 25.662 91.6303 28.7034 91.7907C31.7449 91.9512 34.305 91.149 36.4675 86.9077C36.4675 86.9077 37.5871 84.9056 39.188 83.5454C40.789 82.1851 43.5897 77.7032 41.5877 73.6188V73.6223Z" fill="#C5D872"/>
</g>
<path d="M40.5074 81.9479C40.5074 81.9479 41.1491 80.4656 38.746 81.1876C36.3463 81.9096 34.6233 84.229 35.2651 86.7124C35.2651 86.7124 35.3069 87.4727 36.0254 87.5913C36.0254 87.5913 36.3045 87.7518 36.6253 87.0716C36.9462 86.3915 37.9856 85.1114 38.4251 84.5499C38.8646 83.9883 40.2248 83.071 40.5074 81.9479Z" fill="#EBD9B3"/>
<path d="M36.1017 87.7971C36.0459 87.7971 36.0006 87.7866 35.9692 87.7727C35.2995 87.6471 35.0902 87.0298 35.0728 86.7194C34.4519 84.3267 36.0389 81.8014 38.6897 81.0027C39.7396 80.6888 40.3918 80.7376 40.6569 81.1422C40.8941 81.5015 40.7022 81.9689 40.6813 82.0212C40.479 82.8373 39.7326 83.5384 39.1292 84.1034C38.8955 84.3232 38.6932 84.5115 38.5746 84.665L38.4142 84.8673C37.9468 85.4602 37.0713 86.5624 36.7958 87.1484C36.5447 87.682 36.2796 87.7936 36.1017 87.7936V87.7971ZM39.8337 81.1806C39.5687 81.1806 39.2199 81.2434 38.8013 81.3689C36.6493 82.0142 34.8077 84.1697 35.4495 86.6635C35.4564 86.7263 35.4983 87.3123 36.0564 87.403C36.0738 87.403 36.0947 87.4134 36.1122 87.4204C36.1087 87.4204 36.1052 87.4169 36.1052 87.4169C36.1575 87.4169 36.297 87.3262 36.454 86.9879C36.7505 86.3601 37.605 85.2789 38.1177 84.6336L38.2781 84.4313C38.4142 84.2569 38.6269 84.0581 38.8711 83.8279C39.4361 83.2977 40.1407 82.6385 40.322 81.9026C40.3709 81.784 40.4441 81.5154 40.3395 81.355C40.2453 81.212 40.0116 81.1806 39.8337 81.1806Z" fill="#BD7A43"/>
<g style="mix-blend-mode:multiply">
<path d="M40.4164 81.1597C40.3013 81.5608 39.6211 81.9758 39.227 82.1712C37.7691 82.8897 35.4496 83.4373 35.5054 85.4672C35.5089 85.6276 35.2822 85.6869 35.2055 85.5474C35.1811 85.5021 35.1601 85.4567 35.1392 85.4114C35.1148 85.8334 35.1497 86.2694 35.2648 86.7089C35.2648 86.7089 35.3066 87.4693 36.0251 87.5878C36.0251 87.5878 36.3042 87.7483 36.625 87.0681C36.9459 86.388 37.9853 85.108 38.4248 84.5464C38.8643 83.9849 40.2245 83.0675 40.5071 81.9444C40.5071 81.9444 40.7233 81.4317 40.4164 81.1562V81.1597Z" fill="#E9BD79"/>
</g>
<g style="mix-blend-mode:color-dodge" opacity="0.8">
<path d="M31.9366 72.4888C27.7686 74.0688 24.0087 78.2717 23.5866 82.806C23.5727 82.9699 23.775 82.8618 23.8029 82.7641C25.0655 78.324 28.0302 74.8815 31.9576 72.583C32.0099 72.5551 32.0099 72.4609 31.9366 72.4888Z" fill="#74B22C"/>
</g>
<path d="M72.5565 79.0111C72.5565 79.0111 71.3881 73.3502 65.4866 72.3771C59.5851 71.404 53.4603 75.0942 50.9037 79.4645C48.3471 83.8383 50.527 88.6446 53.2197 90.0677C55.9123 91.4942 58.5736 91.843 62.3196 88.9062C62.3196 88.9062 64.1786 87.5634 66.2016 87.0018C68.228 86.4403 72.6542 83.5523 72.5565 79.0076V79.0111Z" fill="#C5D872"/>
<path d="M56.9557 91.3303C55.7523 91.3303 54.5351 90.9815 53.1294 90.2386C51.682 89.4713 50.4438 87.8006 49.8927 85.8718C49.2684 83.6779 49.5683 81.3689 50.7368 79.3704C52.8713 75.722 57.9532 72.0284 63.5443 72.0284C64.2105 72.0284 64.8732 72.0807 65.5149 72.1888C71.4757 73.1724 72.7279 78.9134 72.7418 78.9692C72.843 83.4861 68.5633 86.5449 66.2509 87.1867C64.2837 87.7308 62.4456 89.0492 62.4282 89.0632C60.4854 90.5874 58.6926 91.3303 56.9557 91.3303ZM63.5443 72.4085C58.0997 72.4085 53.1469 76.008 51.0681 79.5587C49.952 81.4666 49.666 83.6709 50.2624 85.7637C50.7821 87.5948 51.9505 89.1783 53.3108 89.8968C54.6606 90.6118 55.8186 90.9432 56.9591 90.9432C58.6054 90.9432 60.3215 90.2247 62.2014 88.7528C62.2852 88.6935 64.1163 87.3785 66.1497 86.8135C67.8448 86.3426 72.4628 83.6221 72.3651 79.0076C72.3582 78.9867 71.1549 73.5002 65.4522 72.5585C64.8313 72.4574 64.186 72.405 63.5408 72.405L63.5443 72.4085Z" fill="#6FAA57"/>
<g style="mix-blend-mode:multiply" opacity="0.6">
<path d="M72.5565 79.0111C72.5565 79.0111 71.3881 73.3502 65.4866 72.3771C59.5851 71.404 53.4603 75.0942 50.9037 79.4645C48.3471 83.8383 50.527 88.6446 53.2197 90.0677C55.9123 91.4942 58.5736 91.843 62.3196 88.9062C62.3196 88.9062 64.1786 87.5634 66.2016 87.0018C68.228 86.4403 72.6542 83.5523 72.5565 79.0076V79.0111ZM68.4199 78.031C67.8688 78.5612 67.0596 78.9378 66.4492 79.2099C65.4517 79.6564 64.1891 79.9214 63.2752 80.5074C61.7336 81.4945 60.4989 82.8896 58.9503 83.8593C57.5795 84.7173 56.0693 85.1184 54.4858 84.6231C53.1848 84.215 52.1977 83.1268 51.8908 81.8049C51.5176 80.2005 52.4209 78.5821 53.4952 77.452C54.7369 76.1475 56.2611 75.2093 57.8655 74.428C58.7584 73.9571 59.7037 73.5839 60.7082 73.3468C62.7381 72.8654 64.8971 72.9526 66.7422 73.9746C68.1025 74.728 70.0836 76.4335 68.4234 78.031H68.4199Z" fill="#C5D872"/>
</g>
<g style="mix-blend-mode:multiply">
<path d="M72.5565 79.0111C72.5565 79.0111 72.4763 78.6344 72.2635 78.0624C72.2635 78.1042 72.2635 78.1426 72.2635 78.1845C72.124 79.8726 70.8998 81.3096 69.5325 82.2165C68.7896 82.7117 67.9978 83.1024 67.1259 83.3152C66.2365 83.5349 65.3226 83.493 64.4193 83.6046C63.1636 83.7616 62.0719 84.2952 61.1197 85.1219C60.3768 85.7706 59.7002 86.5659 58.8805 87.1204C57.6109 87.9785 56.1286 88.2017 54.6637 87.7552C51.6466 86.8344 50.0283 83.2733 50.8619 80.3295C51.0781 79.5622 51.4025 78.8367 51.8001 78.1566C51.4687 78.5856 51.1653 79.0251 50.9037 79.4715C48.3471 83.8453 50.527 88.6516 53.2197 90.0747C55.9123 91.5012 58.5736 91.85 62.3196 88.9132C62.3196 88.9132 64.1786 87.5704 66.2016 87.0088C68.228 86.4473 72.6542 83.5593 72.5565 79.0146V79.0111Z" fill="#C5D872"/>
</g>
<path d="M68.0717 86.1055C68.0717 86.1055 69.275 85.0312 66.7951 84.6754C64.3152 84.3197 61.7761 85.7009 61.3122 88.2191C61.3122 88.2191 61.0296 88.9272 61.633 89.3388C61.633 89.3388 61.8214 89.6003 62.3969 89.119C62.9724 88.6377 64.4547 87.9122 65.093 87.5913C65.7278 87.2669 67.3497 87.0054 68.0752 86.1055H68.0717Z" fill="#EBD9B3"/>
<path d="M61.8146 89.6038C61.6507 89.6038 61.553 89.5306 61.5077 89.4852C60.9496 89.0911 61.0194 88.4424 61.1379 88.1494C61.5356 85.9729 63.5481 84.4278 66.021 84.4278C66.2896 84.4278 66.5581 84.4487 66.8267 84.4836C67.8417 84.6301 68.3997 84.9126 68.5323 85.3486C68.6753 85.8195 68.2253 86.231 68.2044 86.2485C67.6777 86.9042 66.7046 87.2286 65.9198 87.4867C65.6164 87.5878 65.3548 87.675 65.1804 87.7622L64.9432 87.8808C64.2701 88.2191 63.0179 88.8504 62.5191 89.2655C62.2541 89.4887 62.0169 89.6003 61.8146 89.6003V89.6038ZM66.021 84.8115C63.7329 84.8115 61.8739 86.2275 61.5042 88.2575C61.4832 88.3168 61.2775 88.8679 61.7448 89.1853C61.7623 89.1957 61.7762 89.2097 61.7867 89.2236C61.7867 89.2167 61.7972 89.2236 61.8181 89.2236C61.8669 89.2236 62.0134 89.1992 62.2785 88.976C62.8086 88.533 64.0399 87.9122 64.7723 87.5425L65.0095 87.4239C65.2083 87.3227 65.4839 87.2321 65.8013 87.1274C66.5372 86.8833 67.451 86.5833 67.9289 85.9904C67.9533 85.966 68.2393 85.6974 68.166 85.4637C68.1277 85.3381 67.9149 85.0347 66.7709 84.8673C66.5232 84.8324 66.2721 84.815 66.021 84.815V84.8115Z" fill="#BD7A43"/>
<g style="mix-blend-mode:multiply">
<path d="M68.3223 85.3556C68.0502 85.673 67.255 85.7637 66.8155 85.7741C65.1901 85.8125 62.8567 85.3312 62.051 87.1972C61.9883 87.3437 61.7546 87.3018 61.7476 87.1449C61.7476 87.0925 61.7476 87.0437 61.7476 86.9949C61.5453 87.3681 61.3953 87.7762 61.3151 88.2226C61.3151 88.2226 61.0326 88.9307 61.636 89.3422C61.636 89.3422 61.8243 89.6038 62.3998 89.1225C62.9753 88.6412 64.4577 87.9157 65.096 87.5948C65.7308 87.2704 67.3526 87.0088 68.0781 86.109C68.0781 86.109 68.4932 85.7358 68.3257 85.3556H68.3223Z" fill="#E9BD79"/>
</g>
<g style="mix-blend-mode:color-dodge" opacity="0.8">
<path d="M66.5792 74.1699C61.6438 72.8201 57.1653 74.6094 53.6496 78.188C53.5763 78.2647 53.7786 78.3414 53.8414 78.2926C57.6188 75.4081 61.7136 73.3258 66.5582 74.2745C66.6559 74.2955 66.6803 74.1943 66.5826 74.1664L66.5792 74.1699Z" fill="#74B22C"/>
</g>
</g>
<defs>
<clipPath id="clip0_214_170380">
<rect width="114.56" height="92" fill="white" transform="translate(0.814453)"/>
</clipPath>
</defs>
</svg>
