<svg width="88" height="92" viewBox="0 0 88 92" fill="none" xmlns="http://www.w3.org/2000/svg">
<g clip-path="url(#clip0_217_170777)">
<path d="M87.186 48.5943C87.186 72.5667 67.7527 92 43.7797 92C19.8067 92 0.374023 72.5667 0.374023 48.5943C0.374023 24.6219 19.8073 5.18802 43.7797 5.18802C67.7521 5.18802 87.186 24.6213 87.186 48.5943Z" fill="#E1E6EA"/>
<path d="M83.9902 48.5943C83.9902 70.8015 65.9873 88.8045 43.7795 88.8045C21.5717 88.8045 3.56934 70.8015 3.56934 48.5943C3.56934 26.3872 21.5723 8.38293 43.7795 8.38293C65.9866 8.38293 83.9902 26.3859 83.9902 48.5937V48.5943Z" fill="#87939D"/>
<path d="M81.963 48.5943C81.963 69.6814 64.8683 86.7767 43.78 86.7767C22.6917 86.7767 5.59766 69.6814 5.59766 48.5943C5.59766 27.5073 22.6923 10.4107 43.78 10.4107C64.8677 10.4107 81.963 27.506 81.963 48.5937V48.5943Z" fill="#4F575C"/>
<path d="M78.4597 48.5943C78.4597 67.7477 62.9327 83.274 43.7793 83.274C24.6259 83.274 9.09961 67.7471 9.09961 48.5943C9.09961 29.4415 24.6265 13.9134 43.7793 13.9134C62.9321 13.9134 78.4597 29.4403 78.4597 48.5937V48.5943Z" fill="#D3231E"/>
<path d="M39.9941 57.9692C39.2746 57.1971 38.9137 56.3123 38.8889 55.2591C38.8629 54.1743 38.9298 53.2901 39.6195 52.4053C40.5247 51.2437 41.5612 50.1255 42.321 48.8618C42.859 47.9665 43.1655 47.1108 43.2058 46.0631C43.2392 45.1975 42.9476 44.7672 42.4627 44.0837C42.1854 43.693 41.9717 43.2633 41.6987 42.8707C41.4238 42.475 41.087 42.1834 40.765 41.8336C40.4969 41.5426 40.248 41.1983 40.0214 40.8739C39.8003 40.5581 39.7087 40.1847 39.5081 39.8572C39.0716 39.1445 38.8895 38.5148 38.8969 37.6821C38.9 37.3229 38.8914 37.2288 38.6561 36.9533C38.2592 36.4889 37.7292 36.0499 37.1435 35.832C36.7775 35.6958 36.341 35.5125 35.9571 35.4419C35.9404 35.3676 35.9782 35.3373 36.0704 35.3496L31.4 34.2438C31.0663 34.206 30.7097 33.8977 30.4193 33.7516C29.9425 33.5126 29.4843 33.3027 28.945 33.2544C28.4918 33.2135 27.7352 33.1349 27.3426 33.3931C27.0727 33.5708 26.8758 33.8531 26.7216 34.1293C26.6151 34.32 26.5036 34.6599 26.2362 34.5862C26.0325 34.5299 25.9965 33.9237 25.9631 33.7819C25.9049 33.5355 25.8294 33.2024 25.7198 32.9726C25.5154 32.5454 25.1768 32.3597 24.7663 32.1547C24.5211 32.0327 24.2821 31.8649 24.0109 31.8043C23.6394 31.7207 23.2035 31.7851 22.8276 31.7863C21.8704 31.7888 20.819 31.6563 19.8736 31.8074C18.7312 31.9894 17.5672 32.3751 16.5554 32.9219C16.278 33.0717 16.1189 33.2296 15.7988 33.2637C15.3097 33.315 14.7828 33.2606 14.2905 33.2606C13.6757 33.2606 13.1593 33.224 12.5909 33.5039C12.0757 33.7578 11.5965 34.0178 11.1414 34.3732C10.6653 34.7447 10.5414 35.2908 10.1421 35.7187C9.76252 36.1248 9.27771 36.2747 8.9155 36.666C8.58919 37.0183 8.331 37.4183 8.02018 37.7836C7.77065 38.0765 7.4072 38.3569 7.21773 38.6956C6.9552 39.165 7.17068 39.6392 6.83013 40.0745C6.52488 40.4646 6.0958 40.6621 5.71191 40.9668C5.09893 41.454 4.5875 42.1382 4.26243 42.8441C3.94728 43.5276 3.86555 44.3158 3.86926 45.0613C3.87236 45.7164 3.85873 46.1969 4.24076 46.7578C4.44014 47.0513 4.74229 47.2891 4.89089 47.6024C5.08903 48.0203 4.97943 48.5832 4.89089 49.0129C4.76334 49.6364 4.58007 50.2407 4.4519 50.866C4.33735 51.4233 4.18628 52.1155 4.22776 52.6845C4.26986 53.256 4.67604 53.7018 4.97696 54.1594C5.28097 54.6213 5.77692 55.0256 6.17195 55.4138C6.6128 55.8479 6.90381 56.2603 7.10195 56.8571C7.30194 57.4596 7.31061 57.9549 7.31185 58.584C7.31185 59.0391 7.20473 59.6106 7.4202 60.0248C7.52608 60.2285 7.80223 60.4948 7.95207 60.6706C8.23627 61.0049 8.65545 61.2786 9.03004 61.499C9.70432 61.8978 10.4232 62.1882 11.1216 62.5411C11.4912 62.7281 11.8683 62.9015 12.2367 63.0909C12.5736 63.2643 12.8206 63.4934 13.1271 63.7089C14.2986 64.533 14.4521 66.3973 15.9059 66.9428C16.6954 67.2394 17.4291 67.4375 18.2749 67.4282C19.3658 67.4165 20.4587 67.4251 21.5497 67.4257C22.4629 67.4257 23.3818 67.37 24.2796 67.5737C24.9823 67.7322 25.6312 68.087 26.3253 68.2622C27.1377 68.4672 27.9624 68.4059 28.7915 68.409C29.6986 68.4127 30.61 68.4047 31.4942 68.1694C32.1746 67.9879 32.9511 67.7923 33.5981 67.5186C33.9102 67.3867 34.1913 67.053 34.455 66.853C35.299 66.2134 36.1299 65.6215 37.0506 65.0915C38.1403 64.4643 39.2511 63.912 40.3817 63.3652C41.1278 63.0043 41.9036 62.8216 42.3172 62.0551C42.698 61.3461 42.7507 60.5375 42.1699 59.9332C41.49 59.2248 40.6672 58.6905 39.9941 57.9692Z" fill="#D96D32"/>
<path d="M38.3673 57.1884C37.7184 56.4925 37.394 55.695 37.3711 54.7464C37.3475 53.7694 37.4076 52.9725 38.0293 52.175C38.8447 51.1286 39.779 50.1206 40.4632 48.9819C40.948 48.1758 41.2242 47.4043 41.2607 46.4607C41.2904 45.6805 41.0279 45.2929 40.5908 44.6768C40.3406 44.3245 40.1487 43.9376 39.9029 43.5834C39.6552 43.2274 39.3518 42.9642 39.0614 42.6491C38.8205 42.3871 38.5958 42.0769 38.3915 41.7847C38.1927 41.4999 38.1097 41.1637 37.9289 40.8683C37.5352 40.2256 37.3717 39.6585 37.3779 38.908C37.3804 38.5842 37.3723 38.5 37.1606 38.2511C36.8033 37.8325 36.3253 37.4375 35.7971 37.2406C35.4677 37.118 35.0739 36.9527 34.7285 36.8889C34.7136 36.822 34.7476 36.7942 34.8306 36.8053L30.6227 35.8091C30.3218 35.775 30.0005 35.497 29.7386 35.3658C29.3095 35.1503 28.8965 34.9608 28.4098 34.9175C28.0012 34.881 27.3195 34.8104 26.9659 35.0426C26.7226 35.2023 26.5449 35.4574 26.4062 35.7063C26.3102 35.8784 26.2099 36.1843 25.9684 36.1181C25.7852 36.0673 25.753 35.5212 25.7226 35.393C25.67 35.1707 25.6025 34.871 25.5028 34.6636C25.3189 34.2791 25.0137 34.1113 24.644 33.9268C24.423 33.8166 24.2075 33.6661 23.9636 33.611C23.6286 33.5361 23.236 33.5937 22.8974 33.5949C22.0348 33.5968 21.0869 33.4779 20.2349 33.6135C19.2052 33.7776 18.157 34.1256 17.2449 34.6178C16.9948 34.7528 16.8512 34.8952 16.5626 34.9255C16.1224 34.972 15.6469 34.9231 15.2042 34.9231C14.65 34.9231 14.1844 34.8896 13.6717 35.1422C13.2073 35.3713 12.7758 35.606 12.3659 35.9255C11.9368 36.2598 11.8254 36.7527 11.4656 37.1378C11.1238 37.5038 10.6867 37.6387 10.3604 37.991C10.0663 38.3093 9.83348 38.669 9.553 38.9984C9.32824 39.2622 9.0007 39.5148 8.82981 39.8201C8.59328 40.243 8.7877 40.6702 8.4806 41.0627C8.20568 41.4144 7.8187 41.5921 7.47321 41.867C6.92029 42.306 6.46024 42.9221 6.16738 43.5586C5.8838 44.1747 5.8095 44.8849 5.81259 45.5561C5.81569 46.1467 5.8033 46.5795 6.14756 47.0854C6.32774 47.3498 6.59956 47.564 6.7333 47.8464C6.91162 48.2222 6.81317 48.7299 6.7333 49.1169C6.61813 49.6785 6.45343 50.2234 6.33765 50.7868C6.23425 51.289 6.09803 51.9131 6.1358 52.4251C6.17419 52.9397 6.5395 53.3415 6.81131 53.7539C7.08561 54.17 7.53203 54.5346 7.88743 54.8845C8.28432 55.2758 8.54685 55.6467 8.72579 56.1854C8.90658 56.7277 8.91463 57.1742 8.91463 57.7413C8.91525 58.1512 8.81804 58.6664 9.01184 59.0397C9.10781 59.2236 9.35672 59.4632 9.49108 59.6211C9.74742 59.9227 10.1257 60.1691 10.4632 60.3678C11.0712 60.727 11.7182 60.9889 12.3479 61.3065C12.681 61.4749 13.021 61.6316 13.3528 61.8025C13.6562 61.9585 13.8791 62.1647 14.1553 62.3585C15.211 63.1015 15.3497 64.7813 16.6598 65.2729C17.3713 65.5404 18.0319 65.7181 18.7947 65.7107C19.778 65.7001 20.7625 65.7076 21.7457 65.7082C22.5686 65.7082 23.3964 65.658 24.2057 65.8413C24.8384 65.9843 25.4236 66.3038 26.0489 66.4617C26.7808 66.6468 27.5238 66.5911 28.2711 66.5936C29.0884 66.5973 29.9095 66.5905 30.7063 66.3781C31.3193 66.2147 32.019 66.0382 32.6016 65.7918C32.8833 65.6729 33.1366 65.372 33.3743 65.1912C34.1353 64.6154 34.8832 64.0816 35.7136 63.6036C36.6956 63.0389 37.6961 62.5411 38.7153 62.0483C39.3877 61.7232 40.0868 61.5585 40.4589 60.8675C40.8025 60.2285 40.8496 59.4998 40.3264 58.9555C39.7134 58.3172 38.9722 57.8354 38.3661 57.1853L38.3673 57.1884Z" fill="#D75B2F"/>
<path d="M36.8999 56.485C36.3154 55.8578 36.0231 55.1396 36.0021 54.2845C35.981 53.404 36.0349 52.6852 36.5952 51.9676C37.3302 51.0246 38.1716 50.1162 38.7883 49.0903C39.2255 48.3634 39.4744 47.668 39.5072 46.8179C39.5338 46.1146 39.2973 45.7653 38.9035 45.2106C38.6781 44.8935 38.5047 44.545 38.2831 44.2255C38.0596 43.9047 37.7865 43.6676 37.5246 43.3834C37.3067 43.1475 37.1048 42.8676 36.9209 42.6045C36.742 42.3475 36.6664 42.0447 36.5042 41.7785C36.1494 41.2002 36.0021 40.6888 36.0076 40.0126C36.0101 39.721 36.0033 39.6448 35.812 39.4207C35.49 39.0436 35.0597 38.6876 34.5835 38.5105C34.2863 38.3997 33.9316 38.2511 33.6201 38.1941C33.6065 38.1334 33.6368 38.1087 33.7124 38.1186L29.92 37.2208C29.6488 37.1898 29.3596 36.9397 29.1237 36.8214C28.7367 36.627 28.3646 36.4567 27.9268 36.4177C27.5584 36.3849 26.9442 36.3205 26.6253 36.5304C26.4062 36.6741 26.2464 36.9044 26.1207 37.1285C26.034 37.2833 25.9436 37.5595 25.7263 37.4994C25.561 37.4542 25.5319 36.962 25.5047 36.8462C25.457 36.6462 25.3963 36.3762 25.3071 36.1893C25.1412 35.8425 24.8663 35.6914 24.5332 35.5255C24.3338 35.4258 24.14 35.2902 23.9202 35.2407C23.6187 35.1732 23.2645 35.2252 22.9592 35.2264C22.1816 35.2283 21.3277 35.1212 20.56 35.2432C19.6318 35.3911 18.687 35.7044 17.8653 36.1484C17.6406 36.2697 17.5112 36.3985 17.2511 36.4252C16.8542 36.4673 16.4264 36.4227 16.0264 36.4233C15.5273 36.4233 15.1075 36.3936 14.6463 36.6208C14.2283 36.8276 13.8389 37.0388 13.4698 37.3267C13.0829 37.6276 12.9826 38.0715 12.6581 38.4189C12.3498 38.7483 11.956 38.8709 11.6619 39.1879C11.3969 39.474 11.187 39.799 10.9343 40.0956C10.7319 40.3334 10.4365 40.5612 10.283 40.8361C10.0694 41.2175 10.2446 41.6027 9.96782 41.9562C9.72015 42.2732 9.37155 42.433 9.06011 42.6806C8.56168 43.0757 8.14684 43.6317 7.88307 44.205C7.62735 44.7598 7.56048 45.4 7.56358 46.005C7.56605 46.5368 7.55491 46.9269 7.86511 47.3826C8.02734 47.621 8.27253 47.8142 8.39265 48.0693C8.55425 48.408 8.46447 48.8649 8.39327 49.2141C8.28986 49.7206 8.14126 50.211 8.03662 50.7187C7.94375 51.1713 7.82115 51.7335 7.85521 52.1954C7.88926 52.6592 8.21866 53.0214 8.46385 53.3929C8.71028 53.7675 9.11336 54.0963 9.43347 54.4108C9.79135 54.7637 10.0273 55.0975 10.1889 55.5835C10.3517 56.072 10.3585 56.4745 10.3591 56.9853C10.3591 57.3543 10.2718 57.8187 10.4464 58.1549C10.5325 58.3209 10.7573 58.5363 10.878 58.6788C11.1089 58.9506 11.4495 59.1728 11.7535 59.3518C12.3008 59.675 12.8847 59.9115 13.4519 60.1976C13.7522 60.3493 14.0581 60.4904 14.3571 60.644C14.6302 60.7845 14.8314 60.9709 15.0797 61.1461C16.0313 61.8155 16.1564 63.3293 17.3366 63.7727C17.978 64.0129 18.573 64.1739 19.2603 64.1665C20.1464 64.1565 21.033 64.164 21.9197 64.164C22.6614 64.164 23.4075 64.1188 24.1363 64.2841C24.7065 64.4129 25.2341 64.7008 25.7969 64.8426C26.4563 65.0091 27.1263 64.959 27.7999 64.9615C28.5361 64.9646 29.276 64.9584 29.9943 64.7677C30.5466 64.6203 31.1769 64.4612 31.7025 64.2389C31.9558 64.1318 32.1843 63.8606 32.3985 63.6984C33.0839 63.1789 33.7582 62.6984 34.5061 62.2681C35.3909 61.7585 36.2931 61.3108 37.2113 60.8663C37.8168 60.5734 38.4472 60.4254 38.7821 59.8025C39.0917 59.2267 39.1338 58.5704 38.6626 58.0794C38.111 57.5042 37.4422 57.0701 36.8961 56.4844L36.8999 56.485Z" fill="#D43628"/>
<path d="M35.7919 55.3272C35.3126 54.8133 35.073 54.2251 35.0557 53.5248C35.0389 52.8028 35.0835 52.2146 35.5423 51.6264C36.1448 50.8537 36.8345 50.1094 37.3392 49.2686C37.6977 48.6736 37.9008 48.1039 37.928 47.4074C37.9503 46.8303 37.7565 46.5449 37.4333 46.0898C37.2488 45.8297 37.1064 45.5443 36.9249 45.283C36.7423 45.0199 36.5181 44.8254 36.3039 44.5926C36.1262 44.3995 35.9603 44.1704 35.8098 43.9543C35.6625 43.7444 35.6018 43.4961 35.468 43.2781C35.177 42.8039 35.0563 42.3847 35.0612 41.8305C35.0631 41.5915 35.0575 41.529 34.9003 41.3457C34.6365 41.0361 34.2842 40.7445 33.8941 40.5996C33.6508 40.5092 33.3604 40.3872 33.1047 40.3402C33.0935 40.2906 33.1189 40.2702 33.1802 40.2783L30.0732 39.5427C29.8509 39.5173 29.6144 39.3124 29.4206 39.2151C29.1036 39.056 28.7983 38.9167 28.4398 38.8845C28.1383 38.8579 27.6349 38.8053 27.3736 38.9768C27.1941 39.095 27.0628 39.2833 26.96 39.4671C26.8894 39.5941 26.8151 39.8201 26.6368 39.7705C26.5012 39.734 26.4777 39.3303 26.4554 39.2356C26.417 39.0715 26.3669 38.8498 26.2938 38.6969C26.1576 38.4127 25.9328 38.2889 25.6591 38.1526C25.4957 38.0715 25.3366 37.9601 25.1564 37.9192C24.9093 37.8635 24.6196 37.9062 24.3694 37.9075C23.7323 37.9087 23.0326 37.8208 22.4042 37.9211C21.6432 38.0424 20.8692 38.2994 20.1962 38.6628C20.0117 38.7625 19.9052 38.8678 19.6928 38.8901C19.3678 38.9241 19.0167 38.8882 18.6891 38.8882C18.2799 38.8882 17.9362 38.8635 17.5585 39.0498C17.2155 39.2189 16.8966 39.3922 16.5945 39.6281C16.2775 39.8752 16.1951 40.2386 15.9301 40.5228C15.6775 40.7928 15.3549 40.8931 15.1141 41.1531C14.8967 41.3878 14.7252 41.6534 14.5184 41.8968C14.3525 42.0918 14.111 42.2782 13.9847 42.5036C13.8101 42.8156 13.9537 43.1314 13.7271 43.4212C13.524 43.6806 13.2386 43.8119 12.9829 44.015C12.5748 44.3388 12.2349 44.7939 12.0182 45.2638C11.8089 45.7183 11.7544 46.2433 11.7569 46.7387C11.7594 47.1746 11.7501 47.4947 12.0033 47.8674C12.1358 48.0625 12.3371 48.221 12.4361 48.4296C12.568 48.707 12.495 49.0816 12.4361 49.3677C12.3513 49.7825 12.2293 50.1844 12.1445 50.6004C12.0684 50.9713 11.9674 51.432 11.9953 51.8103C12.0232 52.1899 12.2931 52.4864 12.4937 52.7911C12.6962 53.0982 13.0262 53.3669 13.2887 53.6257C13.5822 53.9149 13.7754 54.1885 13.9079 54.586C14.041 54.986 14.0472 55.3167 14.0472 55.7352C14.0472 56.038 13.976 56.4175 14.1191 56.6937C14.1896 56.8293 14.3735 57.0064 14.4726 57.1228C14.6627 57.3457 14.9413 57.5277 15.1902 57.6745C15.6391 57.9395 16.1165 58.1326 16.5815 58.3673C16.8279 58.4911 17.0781 58.6069 17.3239 58.7332C17.5474 58.8484 17.7121 59.0007 17.9158 59.1444C18.6953 59.693 18.7975 60.9332 19.7653 61.296C20.2903 61.4929 20.7782 61.6248 21.341 61.6186C22.0673 61.6111 22.7936 61.6167 23.5199 61.6167C24.1273 61.6167 24.7391 61.5796 25.3366 61.7152C25.804 61.821 26.2362 62.0569 26.6975 62.1727C27.2374 62.3096 27.786 62.2687 28.3383 62.2706C28.942 62.273 29.5481 62.2681 30.1364 62.1114C30.589 61.9907 31.1054 61.8607 31.5357 61.678C31.7437 61.5907 31.9307 61.3684 32.1059 61.2353C32.6675 60.8099 33.2204 60.4161 33.8328 60.0632C34.5579 59.6459 35.2965 59.2787 36.0494 58.9147C36.546 58.6744 37.0624 58.5531 37.3373 58.0429C37.5905 57.5711 37.6258 57.0336 37.2389 56.6312C36.7862 56.16 36.2395 55.8046 35.7919 55.3241V55.3272Z" fill="#D3231E"/>
<path d="M36.7812 55.5662C37.0388 55.9476 37.2989 56.3277 37.5602 56.7079C37.5639 56.4683 37.4908 56.2361 37.302 56.0398C37.1385 55.8696 36.9608 55.7172 36.7812 55.5668V55.5662Z" fill="#D96D32"/>
<path d="M29.3142 53.1743C25.9428 51.9477 22.3553 51.8041 18.8911 50.9781C18.4601 50.8753 18.6428 50.2128 19.0737 50.3156C22.9194 51.2326 27.1768 51.1787 30.7451 53.0548C33.0267 54.2535 34.7815 56.0634 36.3102 58.0738C36.6619 57.9135 37.013 57.7964 37.2557 57.5128C37.177 57.4014 37.0972 57.2906 37.0192 57.1779C35.213 55.3018 33.1735 53.6053 31.1327 51.9824C28.9086 50.2135 26.562 48.7175 23.8544 47.8247C22.847 47.4922 21.8328 47.1777 20.8087 46.9009C20.4923 46.8154 19.3121 46.5294 19.3493 46.5015C18.9982 46.7721 18.6564 46.174 19.0019 45.9084C19.3196 45.6632 20.1653 46.0192 20.4768 46.1009C21.5702 46.3882 22.6569 46.7071 23.7311 47.0606C26.3471 47.9231 28.6696 49.2005 30.8541 50.8952C32.3054 52.0214 33.7642 53.1855 35.1536 54.422C34.4137 53.3062 33.6837 52.1917 32.9518 51.102C32.4782 50.3955 27.0499 42.932 28.3563 42.397C28.7662 42.2286 28.9433 42.8942 28.539 43.0596C28.913 42.906 28.6517 42.7376 28.8641 43.1983C28.9743 43.4379 29.0938 43.6738 29.2201 43.906C29.6325 44.6614 30.0783 45.3994 30.5333 46.13C31.7766 48.1225 33.0781 50.0797 34.4007 52.0202C34.7109 52.4753 35.0198 52.9353 35.3288 53.3978C35.3232 53.3372 35.3183 53.2759 35.3164 53.2121C35.301 52.5564 35.3412 52.0214 35.7585 51.4858C36.3065 50.7837 36.9337 50.107 37.3925 49.3423C37.7176 48.8011 37.9033 48.2829 37.9281 47.6495C37.9479 47.1257 37.7721 46.865 37.478 46.452C37.3102 46.2149 37.1808 45.9554 37.0161 45.7177C36.8501 45.4787 36.6458 45.3022 36.4514 45.0898C36.2898 44.914 36.1393 44.7059 36.0025 44.5097C35.8687 44.3183 35.813 44.093 35.6917 43.8948C35.4273 43.4639 35.3177 43.0825 35.322 42.5791C35.3239 42.3618 35.3183 42.3048 35.1759 42.1382C34.9363 41.8565 34.6155 41.5915 34.2614 41.4596C34.0397 41.3767 33.7753 41.2664 33.5437 41.2237C33.5338 41.1785 33.5568 41.1606 33.6125 41.1674L30.7872 40.4987C30.5854 40.4758 30.3699 40.2894 30.194 40.2009C29.9055 40.056 29.6287 39.9297 29.3018 39.8999C29.0275 39.8758 28.57 39.8281 28.3328 39.9841C28.1694 40.0913 28.0505 40.2628 27.957 40.4293C27.8926 40.5451 27.8257 40.7501 27.6629 40.7055C27.5403 40.672 27.518 40.3055 27.4982 40.2188C27.4629 40.0696 27.4171 39.8684 27.3508 39.729C27.227 39.4709 27.0226 39.3588 26.7737 39.2343C26.6251 39.1606 26.4809 39.0597 26.3168 39.0226C26.092 38.9718 25.8283 39.0108 25.601 39.0114C25.0215 39.0127 24.3856 38.9328 23.8135 39.0238C23.1219 39.134 22.4185 39.3675 21.8061 39.6981C21.6383 39.7885 21.5418 39.8845 21.3486 39.9049C21.0532 39.9358 20.7337 39.903 20.4365 39.9037C20.065 39.9037 19.7524 39.8814 19.4081 40.0504C19.0967 40.204 18.8069 40.3618 18.5314 40.5767C18.2434 40.8015 18.1685 41.1315 17.927 41.3903C17.6973 41.6361 17.4038 41.7271 17.1847 41.9636C16.9871 42.1772 16.8311 42.4187 16.6429 42.6398C16.4918 42.8168 16.2726 42.9865 16.1575 43.1914C15.9989 43.4756 16.129 43.7623 15.9228 44.0261C15.7383 44.262 15.4782 44.3815 15.246 44.566C14.8752 44.8607 14.5662 45.275 14.3693 45.7016C14.1786 46.1152 14.1291 46.5925 14.1309 47.0427C14.1334 47.4396 14.1247 47.73 14.3557 48.0693C14.4764 48.247 14.6591 48.3906 14.7488 48.5807C14.869 48.8327 14.8021 49.1732 14.7488 49.4333C14.6714 49.8104 14.5612 50.1763 14.4832 50.5546C14.4139 50.8914 14.3222 51.3106 14.3476 51.6549C14.3736 52.0004 14.6188 52.2697 14.8009 52.5471C14.9854 52.8264 15.285 53.0709 15.5234 53.3056C15.7897 53.5681 15.9661 53.8176 16.0862 54.1792C16.2076 54.5433 16.2126 54.843 16.2132 55.2238C16.2132 55.4987 16.1482 55.8454 16.2788 56.0956C16.3432 56.2194 16.5098 56.3798 16.6002 56.4856C16.7729 56.6881 17.0261 56.8534 17.2528 56.9872C17.6608 57.228 18.0948 57.4039 18.5177 57.6175C18.7412 57.7308 18.9691 57.8354 19.192 57.95C19.3957 58.0552 19.5456 58.1933 19.7301 58.324C20.439 58.8224 20.5319 59.9505 21.4117 60.2805C21.8891 60.4601 22.3331 60.5796 22.8451 60.574C23.5051 60.5672 24.1658 60.5722 24.8258 60.5728C25.3781 60.5728 25.9348 60.5394 26.4778 60.6619C26.9025 60.7579 27.2957 60.9728 27.7155 61.0787C28.2065 61.2025 28.7056 61.1653 29.2071 61.1672C29.7557 61.1697 30.3073 61.1647 30.8423 61.0229C31.2541 60.9133 31.7234 60.7951 32.1147 60.6291C32.3036 60.5493 32.4738 60.3474 32.6329 60.2267C33.1438 59.8397 33.6459 59.4812 34.2032 59.1605C34.6917 58.8794 35.187 58.6236 35.6892 58.3754C33.9902 56.1395 31.9872 54.1483 29.3123 53.1756L29.3142 53.1743Z" fill="#D96D32"/>
<path d="M52.7591 74.4614C52.1102 73.7654 51.7857 72.968 51.7628 72.0194C51.7393 71.0423 51.8 70.2449 52.4216 69.448C53.237 68.4016 54.1714 67.3936 54.8556 66.2549C55.3404 65.4481 55.6171 64.6773 55.6531 63.7337C55.6828 62.9535 55.4202 62.5653 54.9831 61.9492C54.733 61.5975 54.541 61.2105 54.2946 60.8558C54.0469 60.4997 53.7435 60.2366 53.4531 59.9214C53.2117 59.6589 52.9875 59.3487 52.7832 59.0564C52.5844 58.7716 52.5015 58.4354 52.3207 58.1401C51.9269 57.498 51.7634 56.9308 51.7696 56.1804C51.7721 55.8566 51.7647 55.7717 51.5523 55.5235C51.195 55.1049 50.717 54.7099 50.1889 54.513C49.8595 54.3904 49.4657 54.2251 49.1196 54.1613C49.1047 54.0944 49.1388 54.0666 49.2224 54.0783L45.0139 53.0815C44.7129 53.0474 44.3916 52.7694 44.1303 52.6381C43.7012 52.4227 43.2882 52.2332 42.8016 52.1899C42.3929 52.1533 41.7112 52.0827 41.3577 52.3149C41.1143 52.4747 40.9366 52.7298 40.7979 52.9787C40.702 53.1502 40.6016 53.4567 40.3602 53.3904C40.1769 53.3396 40.1447 52.7935 40.1144 52.6654C40.0617 52.4431 39.9942 52.1434 39.8952 51.936C39.7113 51.5515 39.406 51.3837 39.0364 51.1992C38.8153 51.089 38.5999 50.9385 38.3559 50.8834C38.0216 50.8085 37.6284 50.8661 37.2897 50.8673C36.4272 50.8692 35.4799 50.7503 34.6279 50.8859C33.5982 51.05 32.55 51.3979 31.6373 51.8902C31.3878 52.0252 31.2441 52.1682 30.9556 52.1985C30.5147 52.245 30.0398 52.1954 29.5971 52.196C29.043 52.196 28.5774 52.1626 28.0653 52.4152C27.6009 52.6443 27.1694 52.879 26.7595 53.1985C26.3304 53.5328 26.2189 54.0251 25.8592 54.4108C25.5168 54.7761 25.0797 54.9123 24.754 55.2646C24.4599 55.5829 24.2271 55.9426 23.9466 56.272C23.7212 56.5358 23.3943 56.789 23.2234 57.0943C22.9863 57.5166 23.1807 57.9444 22.8742 58.337C22.5987 58.6887 22.2123 58.8664 21.8662 59.1413C21.3133 59.5796 20.8532 60.1963 20.5604 60.8322C20.2768 61.4483 20.2025 62.1585 20.2062 62.8297C20.2093 63.4204 20.1963 63.8538 20.5405 64.359C20.7207 64.6234 20.9925 64.8376 21.1263 65.12C21.3052 65.4958 21.2061 66.0035 21.1263 66.3905C21.0111 66.9527 20.8464 67.4976 20.7306 68.0604C20.6278 68.5626 20.4916 69.1861 20.5294 69.6987C20.5672 70.2133 20.9331 70.6151 21.2049 71.0275C21.4792 71.4436 21.9256 71.8083 22.281 72.1581C22.6779 72.5494 22.9404 72.9203 23.1194 73.459C23.3002 74.002 23.3082 74.4484 23.3082 75.0149C23.3088 75.4248 23.2116 75.94 23.4054 76.314C23.5014 76.4972 23.7503 76.7368 23.8847 76.8954C24.141 77.1969 24.5193 77.4439 24.8568 77.6427C25.4648 78.0012 26.1118 78.2637 26.7415 78.5814C27.0746 78.7492 27.4146 78.9058 27.7464 79.0767C28.0498 79.2327 28.2727 79.4395 28.5483 79.6339C29.6039 80.3763 29.7426 82.0561 31.0528 82.5484C31.7642 82.8152 32.4255 82.9936 33.1877 82.9855C34.1709 82.975 35.1554 82.983 36.1387 82.983C36.9615 82.983 37.7894 82.9329 38.5986 83.1155C39.2314 83.2586 39.8165 83.5781 40.4419 83.736C41.1738 83.9205 41.9168 83.8654 42.6647 83.8685C43.482 83.8715 44.3037 83.8647 45.0999 83.653C45.7135 83.4895 46.4126 83.3137 46.9958 83.0666C47.2769 82.9477 47.5308 82.6468 47.7679 82.4666C48.5289 81.8908 49.2768 81.3571 50.1071 80.8797C51.0891 80.3144 52.0897 79.8172 53.1089 79.3244C53.7813 78.9993 54.4803 78.8346 54.8525 78.1436C55.1961 77.5052 55.2432 76.7765 54.72 76.2316C54.107 75.5939 53.3658 75.1121 52.7597 74.4614H52.7591Z" fill="#91C46E"/>
<path d="M51.2919 73.758C50.7074 73.1308 50.4152 72.4126 50.3941 71.5575C50.3731 70.6776 50.4275 69.9582 50.9873 69.2406C51.7222 68.2976 52.5637 67.3892 53.181 66.3633C53.6175 65.6364 53.8664 64.941 53.8992 64.0915C53.9265 63.3882 53.69 63.0389 53.2955 62.4836C53.0708 62.1665 52.8974 61.8179 52.6751 61.4985C52.4516 61.1777 52.1786 60.9406 51.9167 60.6564C51.6993 60.4205 51.4975 60.1406 51.3136 59.8775C51.134 59.6205 51.0591 59.3177 50.8963 59.0515C50.5421 58.4732 50.3941 57.9618 50.3997 57.2856C50.4022 56.994 50.3947 56.9178 50.204 56.6937C49.8821 56.316 49.4511 55.9606 48.9756 55.7829C48.6784 55.6727 48.3242 55.5235 48.0128 55.4665C47.9992 55.4058 48.0295 55.3811 48.105 55.3916L44.3132 54.4938C44.042 54.4634 43.7529 54.2127 43.517 54.0944C43.13 53.9 42.7579 53.7297 42.3195 53.6907C41.9511 53.6579 41.3369 53.5935 41.018 53.8034C40.7988 53.9471 40.6391 54.1774 40.5134 54.4015C40.4273 54.5563 40.3363 54.8325 40.119 54.7724C39.9537 54.7272 39.9246 54.235 39.8973 54.1192C39.8496 53.9192 39.789 53.6486 39.6998 53.4616C39.5339 53.1149 39.259 52.9638 38.9258 52.7979C38.7271 52.6988 38.5327 52.5626 38.3129 52.5131C38.0113 52.4456 37.6572 52.4976 37.3519 52.4988C36.5742 52.5007 35.7204 52.3929 34.9526 52.5155C34.0245 52.6635 33.0803 52.9768 32.258 53.4208C32.0332 53.5421 31.9038 53.6703 31.6438 53.6981C31.2463 53.7396 30.8184 53.6957 30.4197 53.6957C29.92 53.6957 29.5008 53.6653 29.0389 53.8926C28.621 54.0994 28.2315 54.3105 27.8619 54.599C27.4755 54.9006 27.3752 55.3439 27.0508 55.6913C26.7424 56.0213 26.3486 56.1432 26.0552 56.4603C25.7895 56.7463 25.5803 57.0714 25.3276 57.368C25.1252 57.6057 24.8298 57.8336 24.6763 58.1085C24.4633 58.4893 24.6379 58.875 24.3617 59.2286C24.1141 59.545 23.7655 59.7053 23.454 59.953C22.9562 60.348 22.5414 60.904 22.277 61.4768C22.0213 62.0322 21.955 62.6718 21.9581 63.2767C21.9606 63.8086 21.9494 64.1987 22.2596 64.6544C22.4219 64.8921 22.6664 65.0853 22.7872 65.3398C22.9482 65.6785 22.859 66.136 22.7872 66.4852C22.6838 66.9917 22.5352 67.4821 22.4312 67.9898C22.3383 68.4418 22.2157 69.004 22.2497 69.4659C22.2838 69.9297 22.6132 70.2919 22.8584 70.6634C23.1054 71.0386 23.5079 71.3668 23.828 71.6819C24.1859 72.0349 24.4218 72.3692 24.5834 72.8547C24.7456 73.3432 24.7537 73.7456 24.7537 74.2565C24.7537 74.6261 24.6664 75.0898 24.841 75.4267C24.927 75.592 25.1518 75.8081 25.2731 75.9505C25.5041 76.2223 25.8446 76.4446 26.1487 76.6235C26.696 76.9467 27.2799 77.1833 27.847 77.4693C28.1473 77.621 28.4538 77.7622 28.7529 77.9157C29.0259 78.0563 29.2272 78.2427 29.4755 78.4173C30.4271 79.0872 30.5516 80.6005 31.7323 81.0438C32.3738 81.2847 32.9688 81.445 33.6561 81.4376C34.5421 81.4289 35.4288 81.4351 36.3148 81.4357C37.056 81.4357 37.8027 81.3905 38.5321 81.5552C39.1023 81.684 39.6298 81.9719 40.1927 82.1143C40.8521 82.2809 41.522 82.2307 42.1957 82.2332C42.9319 82.2363 43.6724 82.2301 44.39 82.0388C44.9423 81.8921 45.5726 81.7335 46.0983 81.5106C46.3522 81.4035 46.58 81.1323 46.7943 80.9701C47.4797 80.4512 48.154 79.9702 48.9019 79.5398C49.7867 79.0303 50.6888 78.5826 51.6071 78.138C52.2132 77.8452 52.8429 77.6972 53.1785 77.0743C53.4875 76.4985 53.5302 75.8421 53.059 75.3511C52.5067 74.7759 51.8393 74.3425 51.2919 73.7562V73.758Z" fill="#C4D772"/>
<path d="M50.1841 72.6002C49.7049 72.0863 49.4653 71.498 49.4485 70.7971C49.4306 70.0758 49.4758 69.487 49.9346 68.8988C50.537 68.126 51.2268 67.3818 51.732 66.5416C52.0905 65.9459 52.2936 65.3763 52.3209 64.6797C52.3432 64.1033 52.1494 63.8172 51.8262 63.3621C51.6416 63.1021 51.4999 62.8167 51.3178 62.5554C51.1352 62.2922 50.911 62.0978 50.6968 61.865C50.5185 61.6712 50.3532 61.4427 50.2021 61.2266C50.0553 61.0167 49.994 60.7678 49.8603 60.5505C49.5699 60.0762 49.4492 59.657 49.4535 59.1035C49.4554 58.8645 49.4498 58.802 49.2925 58.6181C49.0288 58.3091 48.6758 58.0175 48.2864 57.8726C48.043 57.7816 47.7526 57.6596 47.4975 57.6125C47.4864 57.563 47.5112 57.5426 47.5725 57.5506L44.4648 56.815C44.2432 56.7903 44.006 56.5853 43.8129 56.4881C43.4958 56.3284 43.1912 56.1897 42.8321 56.1569C42.5306 56.1302 42.0272 56.0776 41.7665 56.2491C41.5869 56.3674 41.4557 56.5556 41.3529 56.7395C41.2823 56.8664 41.208 57.0924 41.0297 57.0435C40.8947 57.0064 40.8706 56.6033 40.8483 56.5086C40.8093 56.3445 40.7591 56.1234 40.6861 55.9699C40.5498 55.6857 40.3251 55.5625 40.0514 55.4256C39.8886 55.3445 39.7294 55.2331 39.5493 55.1922C39.3022 55.1371 39.0118 55.1798 38.7617 55.1804C38.1245 55.1823 37.4249 55.0937 36.7964 55.1941C36.0361 55.3154 35.2621 55.5718 34.5885 55.9358C34.404 56.0355 34.2981 56.1401 34.0851 56.1631C33.76 56.1971 33.4089 56.1606 33.082 56.1612C32.6728 56.1612 32.3291 56.1371 31.9508 56.3228C31.6078 56.4918 31.2889 56.6652 30.9868 56.9011C30.6697 57.1475 30.5874 57.511 30.3218 57.7958C30.0698 58.0664 29.7466 58.1661 29.5057 58.4261C29.2884 58.6608 29.1162 58.9264 28.9094 59.1697C28.7435 59.3648 28.502 59.5518 28.3757 59.7765C28.2011 60.0886 28.3448 60.4044 28.1181 60.6941C27.9151 60.9542 27.6296 61.0848 27.3745 61.2879C26.9665 61.6118 26.6259 62.0675 26.4098 62.5368C26.2006 62.9919 26.1455 63.5163 26.1486 64.0117C26.151 64.4475 26.1417 64.7677 26.3956 65.1404C26.5281 65.3354 26.7293 65.4939 26.8278 65.7026C26.9597 65.9806 26.8866 66.3546 26.8278 66.6413C26.743 67.0561 26.6216 67.4586 26.5362 67.874C26.46 68.2449 26.3597 68.7056 26.3876 69.0839C26.4154 69.4634 26.686 69.7606 26.886 70.0647C27.0885 70.3718 27.4179 70.6411 27.681 70.8993C27.9739 71.1878 28.1677 71.4621 28.3002 71.8603C28.4333 72.2602 28.4395 72.5903 28.4395 73.0088C28.4395 73.3116 28.3683 73.6918 28.5119 73.9673C28.5825 74.1029 28.7658 74.28 28.8655 74.3964C29.0556 74.6193 29.3342 74.8007 29.5831 74.9481C30.032 75.2131 30.5094 75.4069 30.9744 75.6415C31.2208 75.766 31.4716 75.8811 31.7161 76.0075C31.9403 76.1226 32.105 76.2749 32.3081 76.4186C33.0876 76.9672 33.1904 78.2074 34.1575 78.5708C34.6826 78.7677 35.1705 78.899 35.7333 78.8934C36.4596 78.886 37.1859 78.8909 37.9122 78.8916C38.5196 78.8916 39.1313 78.8544 39.7288 78.9894C40.1963 79.0953 40.6279 79.3312 41.0898 79.4476C41.6297 79.5838 42.1789 79.5429 42.7306 79.5448C43.3342 79.5479 43.9404 79.5423 44.5292 79.3856C44.9812 79.2649 45.4976 79.1349 45.9286 78.9528C46.1366 78.8649 46.323 78.6426 46.4988 78.5095C47.0604 78.0842 47.6127 77.6904 48.2257 77.3374C48.9501 76.9201 49.6894 76.5523 50.4423 76.1889C50.9389 75.9493 51.4547 75.8273 51.7296 75.3177C51.9828 74.8459 52.0181 74.3085 51.6311 73.906C51.1791 73.4348 50.6312 73.0794 50.1835 72.5989L50.1841 72.6002ZM32.4455 60.4811C32.9074 60.9313 33.4702 61.3022 34.0962 61.4743C34.6392 61.6241 34.4083 62.4674 33.8634 62.3176C33.095 62.1052 32.3954 61.6526 31.827 61.0991C31.4226 60.7053 32.0418 60.0874 32.4455 60.4811ZM30.7781 66.3732C30.2289 66.4945 29.9948 65.6518 30.5459 65.5299C31.3366 65.3553 32.1979 65.4457 32.8145 66.011C33.2306 66.3924 32.6108 67.0097 32.196 66.6289C31.822 66.2852 31.2487 66.2685 30.7781 66.3725V66.3732ZM35.2795 71.1494C34.6609 72.1302 33.6863 72.807 32.5056 72.8404C31.9415 72.8565 31.9428 71.9816 32.5056 71.9661C33.3712 71.9414 34.0739 71.4225 34.5247 70.7074C34.8244 70.2318 35.5816 70.6702 35.2795 71.1488V71.1494ZM36.7822 67.2505C36.2794 67.5025 35.8361 66.7478 36.3407 66.4951C37.2007 66.0648 38.0614 65.6351 38.9214 65.2048C39.4242 64.9534 39.8675 65.7076 39.3629 65.9602C38.5029 66.3905 37.6422 66.8202 36.7822 67.2505ZM39.748 73.441C39.5802 74.3054 39.413 75.2075 39.3951 76.0898C39.3833 76.6533 38.5091 76.6545 38.5208 76.0898C38.5406 75.1326 38.7227 74.1468 38.9047 73.2082C39.0124 72.6553 39.8551 72.8899 39.748 73.4404V73.441ZM43.2339 63.7299C44.1695 64.2432 44.5373 65.3045 44.5565 66.3193C44.5676 66.8834 43.6927 66.8821 43.6822 66.3193C43.6686 65.6079 43.455 64.8475 42.7925 64.4847C42.2984 64.2141 42.7392 63.4587 43.2339 63.7299ZM44.741 78.1176C44.741 78.6817 43.8667 78.6817 43.8667 78.1176V76.4582C43.8667 75.8948 44.741 75.8948 44.741 76.4582V78.1176ZM43.8822 74.9152C43.5658 74.1339 43.1968 73.3772 42.8203 72.6237C42.5689 72.1203 43.3231 71.6776 43.5751 72.1822C43.9862 73.0045 44.38 73.8311 44.7255 74.6831C44.9373 75.2056 44.0909 75.431 43.8822 74.9152ZM45.9992 68.5403C45.5459 68.8468 45.1719 69.2207 44.8655 69.6733C44.5515 70.1377 43.793 69.7006 44.1101 69.2319C44.5045 68.6492 44.9744 68.1793 45.5571 67.7849C46.0258 67.4679 46.4629 68.2257 45.9985 68.5403H45.9992Z" fill="#B0CF6D"/>
<path d="M59.4283 56.7884L1.46094 12.093L3.56921 8.38293L60.8028 55.0058L59.4283 56.7884Z" fill="#8D755B"/>
<path d="M59.4289 56.7884L2.83301 9.67948L3.56982 8.38293L60.8034 55.0058L59.4289 56.7884Z" fill="#DABFA2"/>
<path d="M50.0792 73.1104C50.8941 72.051 51.9237 71.4169 53.2333 71.1662C54.5824 70.9074 55.7013 70.8077 56.9489 71.4844C58.5872 72.3736 60.1996 73.4348 61.9357 74.1209C63.1654 74.6069 64.2985 74.8112 65.6142 74.6441C66.7027 74.5054 67.1795 74.0521 67.9324 73.3042C68.3621 72.8763 68.8543 72.5209 69.2884 72.0974C69.7249 71.672 70.019 71.1909 70.3899 70.716C70.6976 70.321 71.0759 69.939 71.4338 69.5879C71.7824 69.2461 72.2294 69.0542 72.5972 68.7353C73.3965 68.0418 74.1445 67.684 75.1866 67.5193C75.6355 67.4487 75.7506 67.4177 76.046 67.0667C76.5438 66.4741 76.9815 65.7212 77.1314 64.9441C77.2255 64.4587 77.3636 63.8755 77.3722 63.382C77.4608 63.3454 77.5078 63.3863 77.5109 63.5046L77.9214 57.4423C77.8985 57.0175 78.2094 56.5079 78.3313 56.1154C78.5307 55.4708 78.6973 54.8548 78.6453 54.1706C78.6019 53.5954 78.5425 52.635 78.1394 52.1979C77.8614 51.8982 77.467 51.7106 77.0905 51.5756C76.8298 51.4828 76.3828 51.414 76.4187 51.0642C76.4466 50.7986 77.1958 50.6277 77.3667 50.5559C77.6626 50.432 78.062 50.2686 78.327 50.0834C78.818 49.7398 78.9802 49.2779 79.1499 48.7225C79.2514 48.3912 79.4105 48.0581 79.431 47.7064C79.4582 47.2253 79.2873 46.6947 79.2075 46.2242C79.005 45.0292 78.9517 43.6887 78.5666 42.5389C78.1016 41.1501 77.3778 39.7767 76.4843 38.6269C76.2398 38.3118 76.0094 38.1458 75.9005 37.7533C75.7345 37.1527 75.6931 36.4834 75.5903 35.8692C75.4621 35.1014 75.4008 34.4488 74.9333 33.7968C74.5086 33.2061 74.0844 32.6619 73.5464 32.1678C72.9836 31.6501 72.2759 31.6093 71.6592 31.1994C71.0734 30.8099 70.7843 30.2353 70.2208 29.8644C69.7125 29.5307 69.1596 29.2911 68.6388 28.9784C68.2209 28.7276 67.7955 28.3326 67.333 28.1661C66.6922 27.9357 66.1448 28.3035 65.53 27.9692C64.9783 27.6695 64.6433 27.1741 64.1833 26.7581C63.4471 26.0937 62.4868 25.5984 61.5376 25.3389C60.6187 25.0882 59.6169 25.1488 58.6869 25.3092C57.8696 25.4498 57.2666 25.5327 56.6455 26.1259C56.3205 26.4361 56.0858 26.8621 55.7254 27.1135C55.2456 27.4478 54.5193 27.4274 53.9639 27.4076C53.1584 27.3779 52.3658 27.2751 51.5584 27.2454C50.8389 27.2181 49.943 27.1735 49.2409 27.3438C48.5363 27.5153 48.0644 28.1153 47.5549 28.5865C47.0416 29.062 46.6391 29.766 46.2367 30.3393C45.7865 30.9796 45.332 31.4291 44.6274 31.8012C43.9179 32.177 43.2993 32.291 42.5142 32.4222C41.9464 32.5176 41.2096 32.5021 40.7372 32.8569C40.5044 33.0321 40.2301 33.4321 40.0419 33.655C39.6834 34.0804 39.4289 34.6605 39.2314 35.1744C38.8735 36.0995 38.6599 37.0573 38.3651 38.0028C38.2091 38.5037 38.0704 39.0108 37.9107 39.5099C37.7645 39.9662 37.5293 40.3228 37.3237 40.7501C36.5374 42.3841 34.2421 42.9642 33.8625 44.8936C33.657 45.9412 33.5616 46.8984 33.7492 47.9529C33.9907 49.3138 34.2068 50.6797 34.4334 52.0425C34.6229 53.183 34.8842 54.3179 34.8173 55.4826C34.7653 56.3928 34.4576 57.277 34.3833 58.1803C34.296 59.2373 34.5442 60.2539 34.7127 61.291C34.8966 62.4241 35.0959 63.5615 35.5739 64.6166C35.9417 65.429 36.3473 66.3577 36.824 67.1088C37.0537 67.471 37.5293 67.7527 37.8339 68.0406C38.8085 68.9613 39.7199 69.8758 40.5737 70.9154C41.5836 72.1457 42.5043 73.4181 43.4225 74.7165C44.0287 75.5734 44.4175 76.5047 45.4615 76.8607C46.4255 77.1888 47.4465 77.0867 48.0805 76.2347C48.8229 75.2385 49.3195 74.1004 50.0811 73.1098L50.0792 73.1104Z" fill="#D96D32"/>
<path d="M50.7157 70.9154C51.45 69.96 52.3781 69.3891 53.5576 69.1631C54.7737 68.931 55.7811 68.8406 56.9061 69.4504C58.3822 70.2516 59.8348 71.2083 61.3994 71.8262C62.5071 72.264 63.5288 72.4485 64.7139 72.298C65.6952 72.1729 66.1243 71.7649 66.8023 71.09C67.1899 70.7043 67.6332 70.3841 68.0246 70.0034C68.4177 69.6195 68.6833 69.1867 69.0165 68.7582C69.2939 68.4022 69.6344 68.0579 69.957 67.7421C70.2709 67.435 70.674 67.2611 71.0052 66.9738C71.7253 66.349 72.3996 66.0264 73.3383 65.8778C73.7432 65.8141 73.8466 65.7862 74.1135 65.4698C74.5617 64.9361 74.9562 64.2575 75.0918 63.5566C75.176 63.12 75.301 62.5938 75.3085 62.1486C75.389 62.1157 75.4305 62.1529 75.4342 62.2594L75.8032 56.7965C75.7828 56.4132 76.0632 55.955 76.1728 55.6008C76.353 55.0194 76.5035 54.4647 76.4564 53.848C76.4168 53.3303 76.3635 52.4641 76.0001 52.071C75.7493 51.8004 75.3952 51.6313 75.0546 51.51C74.8199 51.4258 74.4169 51.3645 74.4497 51.0487C74.4738 50.8091 75.1493 50.6549 75.3035 50.5911C75.5698 50.4791 75.9301 50.3323 76.1685 50.1652C76.6106 49.8556 76.7567 49.4395 76.9103 48.9392C77.0019 48.6408 77.1455 48.3405 77.1629 48.0234C77.187 47.59 77.0335 47.1114 76.9617 46.6885C76.7796 45.6112 76.7313 44.4032 76.3846 43.3673C75.9654 42.1153 75.3134 40.8788 74.5085 39.8423C74.2875 39.5581 74.08 39.4089 73.9822 39.0554C73.833 38.5148 73.7958 37.9112 73.703 37.3582C73.5872 36.666 73.5327 36.0778 73.1104 35.4908C72.7278 34.959 72.3451 34.4679 71.8609 34.0228C71.3545 33.5559 70.7161 33.52 70.1601 33.1504C69.6319 32.7993 69.3719 32.2817 68.8642 31.9473C68.4053 31.6464 67.9075 31.4303 67.4382 31.1492C67.0617 30.9232 66.6785 30.5672 66.2618 30.4173C65.6847 30.2099 65.1906 30.5412 64.6371 30.2396C64.1405 29.9691 63.8384 29.5233 63.4229 29.1487C62.7604 28.5493 61.8948 28.1029 61.0391 27.8695C60.2113 27.6435 59.3085 27.6979 58.4708 27.8422C57.7339 27.9691 57.1903 28.0434 56.6312 28.5778C56.3383 28.8583 56.1272 29.2422 55.8028 29.4682C55.37 29.7691 54.7161 29.7511 54.2158 29.7332C53.4902 29.7065 52.7756 29.6137 52.0481 29.5864C51.3998 29.5623 50.5918 29.5214 49.9597 29.6756C49.325 29.8304 48.899 30.3703 48.4402 30.7957C47.9777 31.2247 47.6155 31.8581 47.2526 32.3745C46.8471 32.9516 46.4372 33.3565 45.8025 33.6921C45.1629 34.0302 44.6063 34.1336 43.8986 34.2519C43.3865 34.3379 42.7234 34.3237 42.2974 34.6432C42.0881 34.8011 41.8405 35.1614 41.6708 35.3627C41.3482 35.7459 41.1185 36.2685 40.9402 36.7316C40.6182 37.565 40.4257 38.4288 40.1594 39.2808C40.0189 39.7315 39.8938 40.1885 39.7489 40.6386C39.6177 41.0497 39.4059 41.3711 39.2208 41.7562C38.5124 43.2292 36.4432 43.7518 36.102 45.4898C35.9163 46.434 35.8314 47.2965 35.9998 48.2476C36.2178 49.4735 36.4122 50.7038 36.6165 51.9323C36.7874 52.9595 37.0227 53.9836 36.9627 55.0324C36.9156 55.8522 36.6388 56.6491 36.5713 57.4627C36.4933 58.4156 36.7168 59.332 36.8685 60.2657C37.0345 61.2873 37.214 62.3114 37.6444 63.2625C37.9756 63.9943 38.3409 64.8314 38.7712 65.5082C38.9781 65.8351 39.4065 66.0884 39.6814 66.3478C40.5594 67.1781 41.381 68.0016 42.1501 68.939C43.0596 70.0473 43.8899 71.194 44.7171 72.3643C45.2632 73.1364 45.6137 73.9753 46.5542 74.2967C47.4235 74.5926 48.343 74.5004 48.9145 73.7326C49.5838 72.8348 50.0315 71.8089 50.7175 70.9166L50.7157 70.9154Z" fill="#D75B2F"/>
<path d="M51.2887 68.9372C51.95 68.0771 52.7865 67.562 53.8496 67.3589C54.9449 67.1496 55.8532 67.0679 56.8662 67.6183C58.1968 68.3403 59.5057 69.2022 60.9156 69.7588C61.9137 70.1538 62.8344 70.3198 63.9025 70.1842C64.7866 70.0715 65.1736 69.7031 65.7841 69.0957C66.1333 68.7483 66.5327 68.4598 66.8856 68.1161C67.2398 67.7706 67.4794 67.3799 67.7797 66.9942C68.0292 66.6735 68.3363 66.3633 68.6273 66.0784C68.9103 65.8011 69.2731 65.645 69.5716 65.3862C70.2205 64.8228 70.8279 64.5318 71.6737 64.3986C72.0383 64.3411 72.1318 64.3163 72.3721 64.0309C72.7764 63.5504 73.1318 62.9386 73.2532 62.3071C73.3293 61.9133 73.442 61.4396 73.4482 61.0384C73.5213 61.0093 73.5584 61.0421 73.5615 61.1381L73.8946 56.2157C73.8767 55.8708 74.1293 55.4572 74.2277 55.1383C74.39 54.6145 74.5256 54.1142 74.4828 53.5594C74.4475 53.0926 74.3999 52.3124 74.0717 51.9577C73.8463 51.7137 73.5262 51.562 73.2203 51.4524C73.0086 51.3763 72.6451 51.3211 72.6749 51.0369C72.6971 50.8215 73.3058 50.6822 73.4445 50.624C73.6847 50.523 74.0092 50.3912 74.224 50.2407C74.6221 49.9608 74.7534 49.5869 74.8921 49.1355C74.9745 48.8661 75.1039 48.5949 75.12 48.3107C75.1422 47.9194 75.0029 47.4885 74.9379 47.1077C74.7745 46.1368 74.7311 45.0483 74.4184 44.1152C74.0401 42.9871 73.4525 41.8726 72.7275 40.9389C72.5287 40.6832 72.3417 40.5482 72.2532 40.2293C72.1182 39.742 72.0848 39.1984 72.0012 38.7C71.8972 38.0765 71.8483 37.5465 71.4681 37.0171C71.1232 36.5378 70.7783 36.0958 70.3418 35.6945C69.8849 35.2747 69.3109 35.2413 68.8094 34.9082C68.3332 34.5918 68.0986 34.1256 67.6416 33.8246C67.2286 33.5534 66.7797 33.3584 66.3568 33.1052C66.0175 32.9015 65.6714 32.5807 65.2962 32.4457C64.7761 32.2588 64.3315 32.5572 63.8319 32.2854C63.3848 32.042 63.1124 31.6396 62.7384 31.3021C62.1415 30.7622 61.3608 30.3598 60.5905 30.1492C59.8444 29.9455 59.0302 29.9951 58.2761 30.1251C57.6117 30.239 57.1219 30.3059 56.6179 30.7876C56.3541 31.0396 56.1634 31.3857 55.8712 31.5894C55.4811 31.8606 54.8923 31.8445 54.4409 31.8284C53.7877 31.8043 53.1431 31.7213 52.488 31.6959C51.9036 31.6736 51.176 31.6383 50.6064 31.7764C50.0349 31.9157 49.651 32.4024 49.2374 32.7857C48.8207 33.172 48.4944 33.7429 48.1675 34.2085C47.8022 34.7286 47.4331 35.0933 46.8604 35.3961C46.284 35.7007 45.7824 35.793 45.1447 35.9001C44.6834 35.9775 44.0853 35.9645 43.7014 36.253C43.5126 36.3954 43.2897 36.7205 43.1367 36.9013C42.8451 37.2468 42.6389 37.718 42.4779 38.1347C42.1882 38.8857 42.0142 39.664 41.7746 40.4318C41.6476 40.8386 41.5349 41.2497 41.4055 41.6559C41.2866 42.0262 41.0959 42.3159 40.9294 42.6627C40.291 43.9902 38.4267 44.4607 38.119 46.0272C37.9518 46.878 37.875 47.655 38.0273 48.5114C38.223 49.616 38.3988 50.7249 38.5827 51.832C38.7363 52.7582 38.9487 53.6808 38.8942 54.625C38.8521 55.3643 38.6025 56.0826 38.5419 56.815C38.4713 57.6738 38.6731 58.4998 38.81 59.3413C38.9592 60.2613 39.1208 61.1845 39.509 62.0415C39.8074 62.7003 40.1368 63.4544 40.5238 64.0643C40.7102 64.3584 41.0966 64.5875 41.3436 64.8209C42.1349 65.5695 42.8754 66.3113 43.5689 67.1558C44.3887 68.1551 45.1366 69.1879 45.8821 70.243C46.3737 70.9383 46.6901 71.6943 47.5372 71.9841C48.3204 72.2509 49.1495 72.1674 49.6646 71.4764C50.2677 70.6677 50.6708 69.7427 51.2887 68.9384V68.9372Z" fill="#D43628"/>
<path d="M52.5045 67.3131C53.0469 66.6078 53.7317 66.1862 54.6029 66.0196C55.5007 65.8481 56.2449 65.7812 57.0752 66.232C58.1656 66.8233 59.238 67.5304 60.3934 67.9861C61.2113 68.3093 61.9648 68.4455 62.8403 68.3341C63.5648 68.2418 63.8818 67.9403 64.3821 67.4425C64.6681 67.1583 64.995 66.9211 65.2842 66.64C65.5746 66.3571 65.7709 66.037 66.0167 65.7206C66.221 65.4574 66.473 65.2036 66.7114 64.9701C66.943 64.7423 67.2402 64.6147 67.4841 64.403C68.016 63.9411 68.5144 63.7033 69.2066 63.5937C69.5051 63.5467 69.5825 63.5262 69.7794 63.2922C70.11 62.8984 70.401 62.3975 70.5013 61.8805C70.5632 61.5579 70.6561 61.1697 70.6611 60.8409C70.7205 60.8174 70.7515 60.844 70.754 60.9226L71.0264 56.8893C71.0115 56.6076 71.2183 56.2683 71.2994 56.0064C71.4319 55.5773 71.5434 55.1674 71.5087 54.713C71.4796 54.3303 71.44 53.6913 71.1713 53.4009C70.9868 53.2009 70.7242 53.0765 70.4735 52.9861C70.3007 52.9242 70.0029 52.879 70.027 52.6456C70.045 52.4691 70.544 52.3552 70.6574 52.3075C70.8543 52.2251 71.1199 52.1162 71.2963 51.9929C71.6226 51.7639 71.7304 51.4574 71.8437 51.0877C71.9118 50.8673 72.0171 50.6456 72.0307 50.4122C72.0486 50.0915 71.9353 49.7385 71.8821 49.4259C71.7477 48.6309 71.7118 47.7386 71.4561 46.9746C71.1471 46.0502 70.6648 45.1369 70.071 44.3716C69.9082 44.1617 69.7546 44.0509 69.6828 43.7902C69.572 43.3908 69.5447 42.9456 69.476 42.537C69.3905 42.0262 69.3503 41.5915 69.0388 41.1581C68.7565 40.7649 68.4742 40.4033 68.1163 40.0745C67.7423 39.7297 67.2711 39.703 66.8606 39.4306C66.4705 39.1712 66.278 38.7891 65.904 38.5421C65.5659 38.3198 65.1975 38.1601 64.8514 37.9526C64.5734 37.7861 64.2898 37.5229 63.9821 37.4121C63.5561 37.2586 63.1914 37.5037 62.7828 37.2815C62.4162 37.0815 62.1927 36.7527 61.8862 36.4759C61.3964 36.0332 60.7574 35.7038 60.1259 35.5311C59.5142 35.3639 58.8479 35.4054 58.2294 35.5113C57.6851 35.6048 57.2839 35.6599 56.8709 36.0543C56.6548 36.2611 56.4994 36.5447 56.2592 36.7112C55.9403 36.9335 55.4573 36.9205 55.0877 36.9069C54.5521 36.8871 54.0246 36.8189 53.4872 36.7985C53.0085 36.7806 52.4123 36.7508 51.9454 36.8641C51.4767 36.9787 51.1628 37.3774 50.8241 37.6914C50.4823 38.0084 50.2148 38.4758 49.9474 38.8573C49.6477 39.2839 49.3455 39.5823 48.8762 39.83C48.4044 40.0795 47.9933 40.1557 47.4707 40.243C47.093 40.3061 46.6032 40.2962 46.2881 40.5321C46.1333 40.6491 45.9506 40.9148 45.8249 41.0634C45.5865 41.3463 45.4175 41.7327 45.2856 42.0745C45.0479 42.6899 44.9055 43.327 44.7098 43.9561C44.6058 44.2899 44.5135 44.6267 44.407 44.9592C44.3098 45.2632 44.1532 45.4997 44.0169 45.7839C43.4944 46.8712 41.9669 47.2575 41.7142 48.5405C41.5774 49.237 41.5149 49.8741 41.6393 50.5757C41.7997 51.4803 41.9433 52.3892 42.0944 53.2957C42.2201 54.0542 42.3941 54.8108 42.3495 55.5847C42.3148 56.1903 42.1099 56.7785 42.0604 57.3797C42.0022 58.0831 42.1675 58.7599 42.2802 59.449C42.4021 60.2031 42.5353 60.9598 42.8529 61.6613C43.0975 62.2018 43.3674 62.8198 43.6844 63.3188C43.8368 63.5603 44.1532 63.7473 44.3563 63.9392C45.0045 64.5528 45.6107 65.1602 46.1791 65.8518C46.8503 66.6704 47.4626 67.5168 48.0744 68.3811C48.4768 68.9508 48.7369 69.5706 49.431 69.8077C50.0724 70.0263 50.7517 69.9575 51.1739 69.3916C51.668 68.7291 51.998 67.9712 52.5045 67.3125V67.3131Z" fill="#D3231E"/>
<path d="M53.9453 59.2379C56.5173 56.3067 58.5284 52.7291 60.5915 49.6203C62.3283 47.0031 64.2768 44.4812 65.7646 41.7054C65.6303 41.5575 65.499 41.4095 65.3244 41.2943C65.0173 41.0925 64.683 40.9476 64.3672 40.7587C64.1146 40.6064 63.8564 40.368 63.5771 40.2671C63.1895 40.1278 62.8583 40.3501 62.4861 40.1476C62.153 39.9662 61.9499 39.6665 61.6713 39.4151C61.2267 39.0133 60.6454 38.713 60.0708 38.5563C59.5147 38.4046 58.9086 38.4412 58.3464 38.5378C57.8517 38.6226 57.487 38.6727 57.1111 39.0319C56.9786 39.1582 56.8703 39.3142 56.7483 39.4504C57.7278 46.0892 56.6468 53.0486 53.9453 59.2379Z" fill="#D96D32"/>
<path d="M53.0139 61.2006C52.9984 61.2316 52.9829 61.2625 52.9668 61.2929C56.1778 58.0082 60.4488 55.5389 64.393 53.4319C66.4108 52.3539 68.5043 51.393 70.6918 50.7181C70.6156 50.1268 70.5562 49.5082 70.3735 48.9621C70.0918 48.1213 69.654 47.2916 69.1135 46.5956C68.9655 46.4049 68.8256 46.3046 68.76 46.0669C68.6597 45.704 68.6343 45.2991 68.5724 44.9276C68.495 44.4632 68.4578 44.0682 68.1749 43.6738C67.9185 43.3165 67.6609 42.9871 67.3353 42.6881C67.022 42.4001 66.635 42.3543 66.2839 42.1556C64.6474 45.0954 62.6042 47.7801 60.7702 50.5986C58.4805 54.1179 56.1543 58.1803 53.0139 61.2006Z" fill="#D96D32"/>
<path d="M52.913 62.335C57.389 61.0774 61.3783 58.4534 65.9205 57.3841C67.3818 57.0398 68.8628 56.8559 70.3513 56.7321C70.4064 56.4937 70.4405 56.2541 70.4206 55.9978C70.394 55.6498 70.3587 55.069 70.1142 54.8052C69.9464 54.6232 69.708 54.5099 69.4801 54.4275C69.3222 54.3712 69.0517 54.3303 69.0739 54.118C69.0907 53.9576 69.5439 53.8536 69.6467 53.8108C69.8256 53.7353 70.0677 53.6369 70.2275 53.5254C70.524 53.3167 70.6219 53.0381 70.7253 52.7019C70.7866 52.5019 70.8825 52.2994 70.8949 52.0871C70.9073 51.8735 70.8541 51.6437 70.8064 51.4246C68.8597 52.032 66.9805 52.8276 65.1676 53.796C60.9207 56.0646 56.2206 58.6837 52.9111 62.335H52.913Z" fill="#D96D32"/>
<path d="M51.0563 46.7374C51.8544 48.8061 52.634 50.9992 52.9689 53.2016C53.3274 55.5525 53.138 57.859 52.7566 60.1573C55.775 53.8703 57.0709 46.6637 56.1069 39.7891C55.8982 39.8201 55.6778 39.8145 55.489 39.8077C55.0017 39.7897 54.5224 39.7278 54.0339 39.7092C53.5986 39.6925 53.0562 39.6659 52.6321 39.7687C52.2055 39.8727 51.9201 40.2349 51.6123 40.5203C51.3015 40.8083 51.0582 41.2336 50.8148 41.5804C50.5424 41.968 50.2675 42.2392 49.8409 42.4652C49.6558 42.5624 49.4812 42.6274 49.3047 42.68C50.0551 44.1177 50.6254 45.6198 51.0569 46.7368L51.0563 46.7374Z" fill="#D96D32"/>
<path d="M66.1028 58.0466C61.282 59.3053 57.0202 62.117 52.1622 63.2371L52.1499 63.294C52.1189 63.442 52.0204 63.5169 51.9084 63.5349C51.8483 63.6104 51.787 63.6847 51.7294 63.7621C51.4675 64.1126 50.8706 63.7708 51.1363 63.4148C51.2007 63.3281 51.2706 63.2457 51.3363 63.1603C51.2391 62.9807 51.2787 62.73 51.5344 62.6773L51.5815 62.6662C51.6 62.5795 51.618 62.4922 51.6366 62.4055C50.8428 63.0383 50.0013 63.6049 49.0955 64.0779C48.7036 64.2829 48.3556 63.6897 48.7488 63.4841C49.8781 62.8947 50.9066 62.1634 51.8588 61.3325C52.4248 58.5351 52.8662 55.6145 52.1994 52.8332C51.7988 51.162 51.3573 49.5163 50.7635 47.9009C50.1301 46.1758 49.4181 44.449 48.4974 42.8503C48.1636 42.898 47.7556 42.9023 47.4881 43.1041C47.347 43.21 47.181 43.4521 47.0671 43.5871C46.8504 43.8447 46.6962 44.1957 46.5761 44.5066C46.3606 45.0657 46.2312 45.6452 46.0523 46.2173C45.9582 46.5201 45.8739 46.8272 45.7767 47.1294C45.6882 47.4055 45.5464 47.621 45.422 47.8792C44.947 48.868 43.5576 49.2191 43.3285 50.3856C43.2041 51.0196 43.1471 51.5985 43.2598 52.2369C43.4059 53.0598 43.5372 53.8857 43.674 54.7105C43.7886 55.4002 43.9471 56.0881 43.9062 56.7921C43.874 57.3426 43.6883 57.8782 43.6437 58.4243C43.5904 59.0632 43.7409 59.6787 43.8424 60.3059C43.9539 60.992 44.0746 61.6799 44.3632 62.3182C44.5861 62.8092 44.8306 63.3708 45.1192 63.8253C45.2585 64.0445 45.5458 64.2154 45.7303 64.3894C46.3204 64.9466 46.8714 65.4995 47.3878 66.1286C47.9983 66.8728 48.5556 67.6425 49.111 68.4282C49.4769 68.9464 49.7134 69.5099 50.3444 69.7254C50.9282 69.9241 51.5449 69.8622 51.9288 69.347C52.3783 68.7446 52.6792 68.0555 53.1393 67.4561C53.6321 66.8153 54.255 66.4314 55.0476 66.2797C55.8636 66.1236 56.5404 66.063 57.2952 66.4729C58.2871 67.0103 59.2623 67.6536 60.3124 68.0685C61.0566 68.3619 61.742 68.4858 62.5377 68.3849C63.1965 68.3013 63.4844 68.0264 63.9395 67.5737C64.2001 67.3149 64.4973 67.1001 64.7605 66.8444C65.0236 66.5868 65.2026 66.2958 65.4261 66.0079C65.6118 65.7695 65.8409 65.5379 66.0576 65.3255C66.2682 65.1194 66.5387 65.0029 66.761 64.8098C66.9592 64.637 67.1536 64.5008 67.3561 64.3906C65.9152 63.9392 64.4596 63.5052 62.9767 63.2278C59.7526 62.6241 56.4091 63.6897 53.1709 63.7386C52.7275 63.7454 52.7282 63.0581 53.1709 63.0513C56.8227 62.9962 60.4213 61.8848 64.0478 62.7572C65.5561 63.1201 67.039 63.5671 68.5158 64.0377C68.6464 64.0042 68.7195 63.9522 68.847 63.7999C69.1492 63.442 69.4129 62.9863 69.504 62.5164C69.5615 62.2223 69.6445 61.8693 69.6495 61.5709C69.7039 61.5486 69.7312 61.5734 69.7337 61.6452L69.9813 57.9772C69.9714 57.7896 70.0686 57.5748 70.1516 57.3803C68.7876 57.5073 67.4341 57.6992 66.1022 58.0466H66.1028Z" fill="#D96D32"/>
<path d="M63.0664 60.1939L17.249 3.10885L20.1715 0L64.8217 58.7846L63.0664 60.1939Z" fill="#8D755B"/>
<path d="M63.0672 60.1939L19.1514 1.08602L20.1724 0L64.8226 58.7846L63.0672 60.1939Z" fill="#DABFA2"/>
</g>
<defs>
<clipPath id="clip0_217_170777">
<rect width="86.812" height="92" fill="white" transform="translate(0.374023)"/>
</clipPath>
</defs>
</svg>
