<svg width="93" height="83" viewBox="0 0 93 83" fill="none" xmlns="http://www.w3.org/2000/svg">
<path d="M65.9675 34.8591C65.8644 34.8242 65.7363 34.7784 65.815 34.6208C65.8603 34.5396 65.9497 34.5382 66.0363 34.5658C66.1403 34.6213 66.2415 34.7059 66.2183 34.8271C66.1819 35.0234 66.0504 34.8953 65.9675 34.8591Z" fill="#6CC080"/>
<path d="M51.7637 59.9467C51.8786 60.7309 51.828 61.5041 51.7484 62.2821C51.5379 61.4911 51.6067 60.7171 51.7637 59.9467Z" fill="#6CC080"/>
<path d="M42.7757 46.1336C42.7998 45.4392 42.8239 44.7449 42.8481 44.0506C42.8983 44.0553 42.9517 44.0528 43.0019 44.0575C43.1713 44.7675 43.0363 45.4565 42.7757 46.1336Z" fill="#6CC080"/>
<path d="M29.9061 48.5274C29.8687 48.5111 29.824 48.4916 29.8007 48.4636C28.5539 46.6191 27.6032 44.6455 27.1557 42.455C27.1277 42.3359 27.0848 42.2103 27.2648 42.0217C28.2966 44.1553 28.8621 46.4419 29.9061 48.5274Z" fill="#6CC080"/>
<path d="M77.8003 74.0245C77.7776 74.2628 77.5836 74.3554 77.4438 74.4894C76.9659 74.9633 76.424 75.3562 75.9017 75.7664C74.6521 76.7456 73.2537 77.2167 71.6338 77.1392C70.8033 77.0959 69.9739 77.1949 69.138 77.2468C68.3682 77.292 67.6363 77.1676 66.926 76.8489C66.0671 76.4564 65.2092 76.0821 64.3373 75.7194C63.1813 75.2416 62.2831 74.38 61.2321 73.7441C58.7462 72.2341 56.5334 70.3469 54.1775 68.6631C53.517 68.1888 52.8272 67.7815 52.0821 67.4387C48.1975 65.6551 44.1775 64.2646 40.0557 63.1486C38.1884 62.6441 36.3861 61.9286 34.5458 61.3207C33.6067 61.0084 32.6546 60.7259 31.7079 60.4104C31.3685 60.2977 30.9976 60.2157 31.0299 59.7069C31.0449 59.4653 30.7749 59.3386 30.5645 59.2202C30.2695 59.0472 29.9951 58.8477 29.79 58.5721C29.6652 58.4024 29.4255 58.2269 29.8059 58.0384C29.9674 57.9582 29.8513 57.748 29.7699 57.6239C29.5084 57.2084 29.2393 56.7897 28.9528 56.3899C28.5329 55.799 28.0989 55.2197 27.6898 54.5005C28.0216 54.6099 28.1551 54.801 28.3156 54.9509C29.0457 55.6594 29.7617 56.3794 30.4917 57.0879C30.7271 57.3147 30.905 57.5076 30.6613 57.8798C30.4176 58.2521 30.5652 58.4937 31 58.5948C31.1464 58.6321 31.3253 58.657 31.4673 58.6214C31.8424 58.5281 32.1883 58.5638 32.5277 58.7385C32.6459 58.7989 32.7674 58.8519 32.8823 58.7336C32.9895 58.612 32.9472 58.4606 32.8539 58.3845C32.2714 57.9176 32.3665 57.2855 32.3705 56.6757C32.3703 56.3654 32.3886 56.0543 32.4112 55.754C32.467 54.8389 32.2215 54.0139 31.614 53.3145C31.0585 52.6822 30.7383 51.9664 30.714 51.1315C30.6831 50.2495 30.2631 49.4725 30.0068 48.6516C30.9669 49.7441 31.8588 50.8688 32.2477 52.2971C32.3802 52.7803 32.5843 53.2239 32.9672 53.5682C33.2721 53.843 33.3286 54.169 33.2594 54.5554C32.9567 56.1604 33.1993 57.6755 34.1152 59.0766C34.2291 59.2504 34.3182 59.4399 34.3963 59.6335C34.6319 60.2327 35.0864 60.5994 35.6861 60.799C36.0787 60.9348 36.4723 61.0888 36.8811 61.1874C38.1076 61.4832 39.2799 61.9238 40.4207 62.457C40.5194 62.5001 40.6073 62.5473 40.7092 62.5829C41.2948 62.7941 41.5441 62.637 41.4278 62.0544C41.181 60.8389 41.022 59.6085 40.8782 58.3847C40.7398 57.1278 40.3131 55.9933 39.8994 54.829C39.5171 53.7583 39.9397 53.3488 40.6734 52.7029C40.7753 52.6144 40.9065 52.583 41.0269 52.6798C41.1201 52.756 41.1115 52.8586 41.0769 52.9587C40.961 53.2449 40.8452 53.5312 40.7369 53.8207C40.4414 54.6224 40.3496 55.4332 40.7849 56.2169C41.5673 57.613 41.8989 59.1314 41.9366 60.6811C41.9831 62.5006 42.9942 63.4558 44.5948 64.0123C44.9646 64.1382 45.3408 64.2492 45.7225 64.3271C46.4187 64.4713 47.1008 64.6271 47.7504 64.9194C47.9629 65.0122 48.1939 65.1661 48.3955 64.9527C48.5905 64.7542 48.4614 64.5118 48.3821 64.2999C48.2138 63.8365 48.0314 63.3847 47.9021 62.894C48.7061 63.9715 49.9913 64.5677 50.6804 65.7635C50.9452 66.2336 51.3845 66.5937 51.8607 66.89C52.045 67.0059 52.2457 67.0846 52.4451 66.9589C52.6586 66.8216 52.6162 66.6082 52.589 66.4013C52.5367 66.024 52.3414 65.664 52.3584 65.0865C52.7382 65.6244 53.0539 66.0192 53.323 66.438C54.3181 67.9889 55.8138 69.0137 57.2781 70.0691C57.5872 70.2926 57.8419 70.1645 57.8634 69.7839C57.8806 69.4546 57.8381 69.117 57.7924 68.7868C57.6966 68.0537 57.5747 67.3181 57.4757 66.5924C57.7684 66.4808 57.8552 66.696 57.98 66.8036C58.6015 67.3673 59.1949 67.9541 59.8577 68.4648C60.3154 68.8241 60.823 69.0899 61.3706 69.2845C61.8879 69.4659 62.1773 69.2997 62.2789 68.7768C62.347 68.4342 62.3588 68.076 62.39 67.7351C62.519 67.7294 62.5603 67.8005 62.5831 67.8725C62.9784 69.0376 63.5991 70.0796 64.3597 71.0495C64.7123 71.5047 64.9403 72.0385 65.1314 72.5739C65.3453 73.1813 65.7348 73.5728 66.3475 73.8046C67.0209 74.063 67.7442 74.2279 68.2877 74.7841C68.5079 75.0043 68.7811 74.8753 68.8763 74.5535C68.9629 74.2722 68.9313 73.9925 68.8368 73.712C68.3123 72.1182 67.8961 70.4831 66.7158 69.1705C66.2286 68.63 66.083 67.9283 65.9893 67.2316C65.8674 66.3099 65.9265 65.3873 65.965 64.3671C66.2839 64.5683 66.3415 64.8505 66.437 65.0872C67.0298 66.5246 67.6659 67.9454 68.392 69.3258C68.9803 70.4421 69.6997 71.4651 70.676 72.2721C71.6793 73.0999 72.7618 73.8292 73.9363 74.4303C74.5122 74.7258 75.0283 74.7029 75.542 74.3332C76.2085 73.7377 76.9739 73.6817 77.8003 74.0245Z" fill="#BDEAC8"/>
<path d="M68.3327 53.5413C68.4277 53.5917 68.5237 53.7226 68.4681 53.9119C68.1299 53.7999 67.7347 53.5296 67.5561 54.0835C67.3104 53.7182 67.1678 53.22 66.5534 53.3078C66.5134 53.3171 66.4518 53.2724 66.4238 53.2335C65.8771 52.5679 65.1257 52.062 64.7969 51.2067C65.9965 51.9436 67.0474 52.9183 68.3327 53.5413Z" fill="#BDEAC8"/>
<path d="M72.6442 43.1361C73.1096 43.4369 72.9922 43.9101 73.2711 44.4139C71.6625 43.9165 70.1631 43.8222 68.6617 44.2425C69.1427 43.8747 69.7014 43.7985 70.2568 43.7298C70.6674 43.6867 71.0725 43.6768 71.4883 43.6627C71.948 43.65 72.4077 43.6373 72.6442 43.1361Z" fill="#6CC080"/>
<path d="M69.517 38.1108C69.7145 38.4655 69.9259 38.8084 70.2162 39.2931C69.37 39.2551 68.7756 38.781 68.0813 38.7376C67.4051 38.6932 66.7288 38.5682 66.0542 38.4798C66.9782 38.0773 67.9007 37.7995 68.8834 37.8075C69.1627 37.813 69.3714 37.8593 69.517 38.1108Z" fill="#6CC080"/>
<path d="M87.4038 58.8373C86.6882 59.5469 86.8333 60.5792 86.4349 61.4095C86.3789 61.5172 86.3381 61.6315 86.2606 61.8091C85.8514 61.2166 85.5267 60.6785 85.4451 60.0175C85.4131 59.7393 85.3508 59.4479 85.2247 59.1991C84.4163 57.6396 83.6792 56.0407 82.6212 54.619C81.523 53.1445 80.3676 51.6978 79.3364 50.1733C78.6059 49.097 77.7555 48.1094 76.7486 47.2737C76.1687 46.7828 75.6558 46.2419 75.24 45.6025C74.9588 45.1715 74.6096 44.7725 74.2614 44.3916C73.4816 43.5316 72.919 42.5462 72.4385 41.5174C72.1537 40.9086 71.9284 40.3083 71.4437 39.8061C71.1476 39.4919 70.9487 39.0792 70.7369 38.6961C70.1188 37.5897 69.3053 36.6622 68.2813 35.9071C67.9259 35.6463 67.5974 35.3444 67.2625 35.0574C66.9666 34.8049 66.6695 34.5344 66.4859 34.19C66.1404 33.5548 65.8134 32.9188 65.172 32.5069C65.1146 32.473 65.0938 32.3759 65.0308 32.2515C65.4216 32.3691 65.6439 32.6247 65.89 32.8466C66.2802 33.193 66.6845 33.528 67.1492 33.7659C67.6214 34.0072 67.7566 33.9869 68.0596 33.5818C68.2333 33.3493 68.3755 33.0854 68.7361 33.2516C69.0859 33.4218 69.105 33.7296 69.0322 34.0414C68.9776 34.2906 68.9078 34.5332 68.8229 34.7692C68.6541 35.2594 68.6868 35.3705 69.1353 35.6455C71.2272 36.9105 73.2663 38.2759 75.3377 39.5672C77.759 41.0905 79.9442 42.9689 81.838 45.1428C82.632 46.053 83.1807 47.1116 83.7543 48.1546C84.2866 49.1268 84.8265 50.1023 85.4485 51.0343C86.204 52.1567 86.7736 53.3742 87.3 54.608C87.9188 56.0231 87.7662 57.4276 87.4038 58.8373Z" fill="#BDEAC8"/>
<path d="M85.0361 61.9073C85.6611 62.3575 85.7845 62.8196 85.4744 63.5096C85.2781 63.9387 85.0082 64.3091 84.708 64.6662C83.5374 66.0458 82.5433 67.5379 81.7757 69.1732C81.4743 69.8226 81.0385 70.3869 80.4684 71.0522C80.7308 70.4922 80.72 70.4964 80.4449 70.0924C80.081 69.5609 79.8028 68.978 79.3316 68.5062C78.3622 67.5418 77.2888 66.754 76.1026 66.059C73.8906 64.7566 71.839 63.2314 69.9349 61.5131C68.9362 60.6159 68.0925 59.591 67.7008 58.2752C67.559 57.814 67.2633 57.5607 66.7876 57.5751C65.9176 57.6037 65.2904 57.1792 64.6177 56.6727C63.1424 55.5853 61.8785 54.2617 60.4205 53.1552C59.7283 52.6313 59.1727 51.9807 58.641 51.2961C58.0529 50.5336 57.4898 49.7554 56.8237 49.0477C56.307 48.4939 55.7416 47.9898 55.0364 47.6821C54.4601 47.4307 54.252 47.473 53.8607 47.9768C53.7198 48.1549 53.5887 48.1865 53.4035 48.1145C52.7264 47.8457 52.2 47.4385 52.158 46.6659C52.1225 45.9404 51.7727 45.3973 51.2853 44.9006C51.0849 44.6978 50.891 44.4801 50.6874 44.2848C49.7397 43.3743 48.9513 42.3469 48.3753 41.1638C48.0093 40.4095 47.5263 39.7373 46.807 39.2548C46.403 38.9809 46.1474 38.5943 45.9233 38.177C45.6537 37.6777 45.3873 37.171 45.096 36.6801C44.7885 36.1643 44.4105 35.7065 43.9231 35.3341C43.3663 34.9137 42.7683 34.7947 42.182 35.1868C41.7377 35.481 41.3455 35.4075 40.9566 35.1402C39.2083 33.9337 37.2138 33.312 35.2411 32.6199C34.5846 32.3867 34.017 32.0325 33.5339 31.5466C32.6858 30.6974 31.6653 30.2433 30.4877 30.0667C29.6903 29.9495 28.8885 29.8216 28.0955 29.6531C27.0674 29.4441 26.076 29.4819 25.1061 29.8841C24.6087 30.0931 24.6174 30.0525 24.3782 29.5665C23.7892 28.351 23.6357 27.0682 23.5387 25.739C23.4017 23.9842 23.6752 22.3641 24.4894 20.829C25.0315 19.8142 25.1641 18.7449 24.7538 17.6163C24.5384 17.0342 24.6329 16.4453 24.8465 15.8729C24.9972 15.4861 25.1523 15.11 25.3333 14.7364C25.7941 13.7837 25.9906 12.7956 25.7948 11.7339C25.757 11.531 25.7484 11.3232 25.7474 11.1186C25.7528 10.9612 25.8374 10.7053 25.9273 10.7268C26.5665 10.8548 26.635 10.2013 27.0176 9.9866C27.4933 9.72381 27.4727 9.6882 27.8344 10.1211C27.9341 10.2445 28.0088 10.3836 28.129 10.4804C28.3857 10.6989 28.3467 10.9126 28.1873 11.1537C27.9293 11.5381 27.7136 11.9499 27.5813 12.398C27.5064 12.6316 27.3763 12.9298 27.8454 12.9304C27.8899 12.932 27.9732 13.0305 27.9841 13.0885C28.051 13.6591 28.2741 14.1824 28.4104 14.7388C28.4786 15.0171 28.2759 15.2126 28.0992 15.4107C27.7177 15.8299 27.3362 16.2492 26.9622 16.6718C26.8235 16.8242 26.6967 16.9908 26.6002 17.1706C26.3476 17.6461 26.484 17.9541 26.9932 18.1319C27.0647 18.1542 27.1503 18.1649 27.2218 18.1872C27.7548 18.331 27.7667 18.3451 27.5574 18.8662C27.3991 19.2497 27.2289 19.6192 27.0402 19.9895C26.6065 20.8386 26.5553 21.6594 27.2073 22.4408C27.4142 22.6908 27.5062 22.9972 27.44 23.3144C27.3434 23.8048 27.574 24.145 27.9076 24.477C28.7861 25.3395 29.7892 25.7505 31.0309 25.5734C31.7926 25.462 32.563 25.3722 33.3701 25.5291C33.3018 25.872 33.0298 26.0196 32.865 26.2317C32.3545 26.9053 32.2827 27.6283 32.7592 28.3155C33.4772 29.3387 34.2862 30.2774 35.5158 30.7695C37.0899 31.4031 38.652 32.0847 40.3562 32.2957C40.8286 32.351 41.2619 32.5578 41.6638 32.7953C42.1383 33.0733 42.5977 33.0962 43.0647 32.8119C43.1287 32.7688 43.2045 32.7398 43.2728 32.7074C44.4291 32.1469 45.0531 32.3304 45.7429 33.439C46.0168 33.8869 46.1824 34.3763 46.3372 34.8698C46.5331 35.4966 46.9046 35.9693 47.5296 36.2332C48.0031 36.4309 48.3551 36.762 48.6139 37.2032C48.9831 37.8258 49.5464 38.2313 50.2669 38.2351C51.6862 38.2509 52.9613 38.8249 54.2895 39.1737C55.0435 39.3696 55.8116 39.5538 56.5624 39.7572C57.1106 39.9076 57.6253 39.8659 58.1584 39.6371C58.7273 39.3883 59.3255 39.1966 59.9128 39.0091C60.1555 38.9287 60.4231 38.8946 60.6766 38.8721C60.9226 38.8463 61.0114 38.9738 60.9257 39.2115C60.8943 39.3043 60.8292 39.3913 60.787 39.4882C60.4335 40.1948 60.4963 40.4441 61.1592 40.9108C61.5676 41.1955 62.003 41.4387 62.4179 41.7085C62.783 41.9477 62.9421 42.2656 62.8239 42.7021C62.6633 43.2977 62.8051 43.8831 62.9902 44.452C63.3159 45.4639 63.8043 46.4135 64.285 47.3599C64.4193 47.6315 64.5774 47.8691 64.9447 47.7099C65.1463 47.6203 65.2264 47.7884 65.3109 47.9051C66.4101 49.4408 67.842 50.6691 69.2035 51.9553C70.201 52.8964 71.3276 53.7074 72.298 54.69C72.4789 54.8754 72.7053 55.0185 72.9241 55.1584C73.3271 55.4141 73.7399 55.4611 74.1799 55.2182C74.6805 54.9396 74.6957 54.9462 74.9913 55.4479C75.2295 55.8536 75.4385 56.2643 75.6659 56.6741C75.8272 56.9664 75.9929 57.2694 76.1791 57.5459C76.5766 58.1453 76.751 58.2214 77.4055 57.9834C78.6603 57.528 79.7686 57.7808 80.7239 58.6946C81.6045 59.5315 82.5588 60.2407 83.6735 60.7271C83.8707 60.8131 84.0299 60.9447 84.1404 61.126C84.41 61.4389 84.7122 61.6773 85.0361 61.9073ZM72.4821 58.2403C72.5526 58.1202 72.4963 57.9803 72.4129 57.8818C72.2851 57.7195 72.1465 57.5614 72.0013 57.4182C71.4836 56.9083 70.9756 56.3761 70.4373 55.8927C69.8481 55.3605 69.3553 54.7727 69.0782 54.0217C68.9202 53.5978 68.6581 53.2261 68.2367 53.0333C67.292 52.6123 66.5349 51.927 65.6997 51.3585C64.5374 50.5673 63.6797 49.5541 63.1037 48.3088C62.4822 46.9816 61.4587 45.9138 60.7874 44.618C60.7787 44.5965 60.7592 44.5791 60.743 44.5543C60.6434 44.4309 60.522 44.3159 60.3454 44.3897C60.133 44.4834 60.1514 44.6689 60.2098 44.8452C60.3137 45.1657 60.4718 45.4654 60.6765 45.7411C61.4335 46.737 61.977 47.8705 62.6701 48.9095C62.812 49.1223 62.9224 49.3657 63.0177 49.6025C63.1129 49.8393 63.2884 50.0578 63.3023 50.481C62.5214 49.5812 61.669 49.0318 60.8056 48.4865C58.8612 47.2742 57.1628 45.7877 55.8611 43.8886C55.6954 43.6477 55.5959 43.0895 55.2036 43.3266C54.9468 43.4808 55.3421 43.8574 55.497 44.1024C56.8723 46.1846 58.7483 47.7397 60.8433 49.0621C62.4086 50.0467 63.6921 51.3256 64.71 52.8613C65.1973 53.6064 65.8072 54.1742 66.6359 54.5092C66.9804 54.6506 67.2361 54.6025 67.4204 54.2835C67.8299 54.5243 68.1418 54.8645 68.4645 55.2006C69.3375 56.0962 70.2138 56.9844 71.1041 57.8609C71.3868 58.144 71.7226 58.326 72.1375 58.3474C72.2784 58.3556 72.416 58.3712 72.4821 58.2403Z" fill="#BDEAC8"/>
<path d="M77.712 49.0934L77.7 49.0793C78.2501 49.4965 78.6106 50.0789 78.9917 50.6349C79.7224 51.7154 80.4563 52.7884 81.2856 53.788C82.6326 55.4031 83.5689 57.2553 84.5518 59.0835C84.769 59.4972 84.9429 59.9273 84.9152 60.5086C83.9738 60.2219 83.1667 59.7723 82.4169 59.2326C82.0383 58.9611 81.6932 58.6334 81.3448 58.3132C80.2369 57.2895 78.9787 56.8999 77.5317 57.42C77.1371 57.5578 76.9472 57.413 76.7811 57.1102C76.4943 56.5865 76.2076 56.0629 75.9101 55.5433C75.757 55.2728 75.6071 54.9949 75.4258 54.7475C75.0925 54.3098 74.7942 54.2062 74.3586 54.521C73.8981 54.8515 73.5391 54.7214 73.1528 54.4466C72.5767 54.0269 72.0948 53.5156 71.6129 53.0042C71.2895 52.6682 71.004 52.2868 70.529 52.1327C70.4834 52.1128 70.4335 52.0821 70.3977 52.0399C68.5929 50.2517 66.5032 48.7022 65.2738 46.4033C65.1489 46.1716 65.0305 45.9251 64.6858 46.0316C64.4679 46.0959 64.4167 45.923 64.357 45.7907C63.8898 44.7277 63.3023 43.692 63.6124 42.4633C63.728 41.9912 63.4328 41.6321 63.078 41.3267C62.6765 40.9833 62.1905 40.7712 61.7619 40.4691C61.2715 40.1223 61.2715 40.1223 61.5172 39.6006C61.5692 39.4816 61.6439 39.3725 61.6774 39.2542C61.8428 38.7507 61.6333 38.4024 61.0943 38.2913C60.7538 38.2224 60.4133 38.2776 60.0946 38.3865C59.402 38.6069 58.718 38.8487 58.0383 39.1013C57.659 39.2458 57.3023 39.2761 56.901 39.1808C55.5215 38.8623 54.1517 38.5215 52.8219 38.0476C52.2514 37.8429 51.6636 37.7193 51.0608 37.7132C50.1879 37.7043 49.4828 37.4144 49.0527 36.5979C48.8724 36.2447 48.561 35.9848 48.1824 35.8373C47.4828 35.5764 47.1007 35.0642 46.918 34.3645C46.7504 33.7334 46.4604 33.1552 46.0338 32.6413C45.2686 31.7229 44.4812 31.5388 43.3909 32.0284C43.2218 32.1052 43.0603 32.1854 42.9064 32.2688C42.6311 32.4232 42.3687 32.4239 42.0921 32.25C41.4845 31.861 40.7948 31.7017 40.0899 31.5979C38.3558 31.3462 36.7808 30.6058 35.235 29.8605C34.3857 29.4456 33.7919 28.6729 33.2816 27.8745C33.0199 27.4592 33.0976 27.0325 33.3434 26.6349C33.5047 26.3687 33.7365 26.1688 33.9597 25.9473C34.1374 25.768 34.3671 25.5936 34.279 25.2983C34.1735 24.96 33.8515 24.9524 33.5717 24.91C32.997 24.8187 32.4277 24.8183 31.8542 24.8692C31.5159 24.8987 31.182 24.939 30.8404 24.976C30.0511 25.0656 29.3516 24.8667 28.7352 24.3321C28.3294 23.9779 27.9659 23.651 28.0911 23.0325C28.1667 22.6314 27.9202 22.2848 27.676 21.9745C27.2754 21.4632 27.2695 20.938 27.5315 20.3792C27.7533 19.8914 27.986 19.3995 28.1851 18.9018C28.5335 18.0619 28.401 17.8269 27.4932 17.608C27.3956 17.5831 27.3013 17.5508 27.2221 17.5251C27.1145 17.2745 27.2966 17.1679 27.4071 17.039C27.6692 16.7282 27.9259 16.3885 28.2238 16.12C28.9649 15.4779 29.2657 14.7677 28.7824 13.804C28.589 13.4185 28.5832 12.9554 28.5568 12.5188C28.5392 12.2276 28.578 11.9523 28.8055 11.7416C28.8402 11.7036 28.89 11.6722 28.9171 11.6308C29.2809 11.0456 29.2733 11.0423 29.8988 10.8723C30.353 10.7428 30.7605 10.5132 31.1561 10.2695C31.7868 9.8804 32.4579 9.79236 33.1737 10.0161C33.5729 10.1371 33.9785 10.2432 34.3744 10.3717C34.9058 10.5416 35.4405 10.642 35.9792 10.443C36.2903 10.3308 36.5343 10.393 36.7178 10.6767C37.1337 11.3187 37.7314 11.6061 38.4829 11.686C38.8808 11.7268 39.3428 11.8486 39.275 12.439C39.26 12.5565 39.3392 12.6442 39.4541 12.65C39.902 12.6594 40.1408 13.0028 40.4262 13.2602C41.264 14.0331 42.1851 14.6564 43.2524 15.069C44.1191 15.4028 44.8742 15.9094 45.5957 16.4722C45.9136 16.7172 46.25 16.9614 46.6564 16.7136C47.0801 16.4468 47.0212 16.0225 46.9221 15.6073C46.8862 15.441 46.7473 15.283 46.8295 15.0532C47.2666 15.2527 47.5933 15.5813 47.9405 15.8833C48.7327 16.5744 49.554 17.1985 50.5227 17.6299C51.5673 18.0946 52.3119 18.9774 53.1854 19.6685C53.36 19.8068 53.3439 19.968 53.2628 20.154C53.003 20.7493 53.2745 21.2043 53.6869 21.6056C53.8909 21.8009 54.1242 21.9913 54.3759 22.1188C56.2179 23.0553 58.0241 24.0737 59.9894 24.7275C60.6836 24.9595 61.3907 25.1617 62.0849 25.3937C62.432 25.5098 62.7725 25.6406 63.1131 25.7715C63.3474 25.856 63.4419 26.0124 63.3564 26.2497C63.2656 26.52 63.3049 26.8029 63.3344 27.108C63.0774 27.0756 62.8757 27.0408 62.6643 27.0282C61.9963 26.9848 61.7656 27.327 62.0578 27.9416C62.211 28.2742 62.4606 28.5514 62.72 28.8062C62.9881 29.0826 63.1325 29.3316 62.7479 29.6332C62.4694 29.8571 62.6226 30.1897 62.7184 30.6743C61.4508 29.395 59.9367 28.9292 58.5157 28.2915C57.6306 27.8965 56.8993 27.356 56.3099 26.594C55.5847 25.6665 54.7058 24.8844 53.7716 24.1668C52.4153 23.1322 51.1468 22.0207 50.0126 20.7464C48.7557 19.3389 47.2021 18.3422 45.5153 17.5266C45.0586 17.3096 44.5912 17.1588 44.0837 17.1411C42.9571 17.0924 41.8359 17.0726 40.7322 17.2819C39.2774 17.5505 37.8138 17.7976 36.3796 18.1639C35.4007 18.4187 34.3989 18.6017 33.3699 18.5778C33.011 18.5718 32.6348 18.5848 32.3331 18.3026C32.243 18.219 32.1042 18.185 31.9773 18.1651C31.794 18.1294 31.5869 18.1276 31.534 18.3525C31.4897 18.5369 31.647 18.6321 31.788 18.7025C32.2219 18.9095 32.6882 18.9801 33.1588 18.9994C34.2117 19.0514 35.2373 18.8966 36.2499 18.6475C37.6082 18.3102 38.9948 18.0738 40.376 17.8084C41.5306 17.5859 42.7048 17.5669 43.8792 17.6098C44.353 17.6217 44.8107 17.7328 45.2414 17.9473C46.2773 18.4524 47.2764 19.0212 48.1846 19.7363C49.4227 20.7105 50.3248 21.9987 51.5792 23.0597C51.2747 23.2191 51.0491 23.1561 50.83 23.1402C49.1926 23.0192 47.5477 22.8949 45.9135 22.7665C45.3117 22.7164 44.7132 22.783 44.1201 22.8166C42.3637 22.927 40.9102 23.586 39.8336 24.9762C39.2747 25.6978 38.5845 26.2646 37.7304 26.6271C37.5863 26.6882 37.4584 26.7741 37.3229 26.8567C37.2341 26.9154 37.1615 26.9988 37.2093 27.1171C37.2745 27.2784 37.4187 27.2793 37.5304 27.2306C38.146 26.959 38.7692 26.6906 39.2622 26.2237C39.6923 25.818 40.079 25.3667 40.482 24.9403C41.5891 23.7493 42.7163 23.258 44.2572 23.3103C44.3918 23.5197 44.2065 23.6336 44.1068 23.7585C43.7029 24.2907 43.2945 24.8123 42.8754 25.338C42.3804 25.9545 42.2878 26.7467 41.9371 27.4262C41.9144 27.4783 41.9503 27.5826 41.9904 27.6355C42.0588 27.7274 42.1781 27.744 42.2713 27.6961C42.5477 27.5598 42.7524 27.3391 42.7077 27.0273C42.6455 26.5485 42.875 26.1881 43.1003 25.8169C43.581 25.0258 44.1854 24.3242 44.7942 23.6332C45.1127 23.2762 45.492 23.1317 45.9746 23.1651C47.8722 23.3111 49.7731 23.4496 51.6784 23.5989C51.9679 23.619 52.2531 23.6903 52.4853 23.8624C53.6777 24.7547 54.8431 25.6883 55.7961 26.8392C56.2824 27.4234 56.2761 27.6864 55.7431 28.2244C55.4961 28.4797 55.1949 28.6937 54.9837 28.9913C54.0978 30.2344 53.5092 31.625 53.0496 33.0719C52.9253 33.4605 52.8877 33.8781 52.9162 34.2891C52.9207 34.4239 52.962 34.5571 53.1355 34.553C53.2906 34.5498 53.3577 34.4374 53.3793 34.3051C53.3814 34.2795 53.3835 34.2538 53.3857 34.2282C53.3305 33.0704 53.8739 32.0941 54.3306 31.0889C54.7213 30.2142 55.4819 29.5895 56.0223 28.8067C56.097 28.6976 56.2163 28.6522 56.3561 28.6424C56.6836 28.617 56.9003 28.5344 56.5509 28.196C56.4956 28.1364 56.5161 28.0479 56.5681 27.9909C56.6471 27.8925 56.7436 27.8992 56.8402 27.9679C58.0424 28.8378 59.4415 29.2977 60.766 29.9288C61.3409 30.2062 61.8195 30.601 62.2644 31.052C63.0556 31.8489 63.8359 32.6499 64.7863 33.2682C64.9826 33.3982 65.127 33.5852 65.2963 33.7565C65.5915 34.0536 65.5602 34.2082 65.183 34.327C64.9727 34.3947 64.7677 34.3673 64.566 34.3324C63.6626 34.1863 62.7475 34.1501 61.8366 34.1247C61.4961 34.1178 61.1632 34.0523 60.8281 34.0124C60.6492 33.9874 60.4692 33.9443 60.2838 33.9343C59.9986 33.925 59.6451 33.8859 59.6129 34.2704C59.5926 34.607 59.9342 34.694 60.1771 34.676C61.6971 34.5687 63.169 35.0691 64.6935 35.0346C65.7788 35.0121 66.8504 35.3734 67.594 36.3001C67.7861 36.5434 68.0097 36.7561 68.2192 36.9803C68.1305 37.225 67.92 37.1686 67.752 37.2016C66.7601 37.4242 65.7757 37.6502 64.7859 37.8472C64.4314 37.9139 64.0573 37.9012 63.7006 37.9316C63.5499 37.9456 63.4698 38.0257 63.4493 38.1762C63.4342 38.2936 63.5167 38.3739 63.6045 38.4211C63.8378 38.5494 64.098 38.5744 64.355 38.6068C65.6737 38.7748 66.9989 38.9278 68.3165 39.1396C69.8802 39.3879 71.0683 40.2074 71.8328 41.6038C72.0316 41.9562 72.0547 42.3383 72.0854 42.7237C72.1051 42.9891 71.9859 43.0966 71.7279 43.108C71.2118 43.1308 70.6848 43.1577 70.1731 43.1913C68.9772 43.2806 67.9627 43.7414 67.1415 44.5877C67.0299 44.6984 66.9259 44.8124 66.8371 44.9331C66.7353 45.0836 66.6195 45.2456 66.7487 45.4259C66.8854 45.6096 67.074 45.5502 67.2431 45.4734C67.4805 45.3644 67.7059 45.2413 67.94 45.1398C69.1702 44.5783 70.4669 44.3823 71.8225 44.6106C72.5057 44.7227 73.1034 45.0101 73.7044 45.352C74.2555 45.6633 74.7426 46.0176 75.141 46.4925C75.484 46.9079 75.6013 47.1362 74.9443 47.2747C74.6375 47.3357 74.3655 47.4827 74.1108 47.6727C73.9624 47.7851 73.8487 47.9215 73.8044 48.1059C73.7752 48.2348 73.7905 48.3655 73.9315 48.4359C74.0302 48.479 74.1441 48.4666 74.2123 48.3724C74.6206 47.7888 75.3503 47.815 75.9085 47.5094C76.0298 47.4383 76.16 47.4508 76.2663 47.5592C76.772 48.0367 77.3611 48.4266 77.6881 49.0652C77.7 49.0793 77.7044 49.0901 77.712 49.0934C76.6873 49.0803 75.6822 49.1466 74.6717 49.246C74.521 49.26 74.3649 49.307 74.224 49.3607C74.1264 49.3978 74.0691 49.4879 74.0724 49.6045C74.0758 49.7211 74.1506 49.7981 74.2526 49.8337C74.5097 49.9281 74.7895 49.9705 75.0138 49.8292C75.4169 49.5889 75.8626 49.6239 76.3006 49.5936C76.6096 49.569 76.9273 49.5659 77.2331 49.5487C77.5313 49.5282 77.7242 49.4176 77.712 49.0934C77.712 49.0934 77.7044 49.0901 77.712 49.0934ZM77.8168 51.1319C77.8611 50.9475 77.8056 50.8259 77.6971 50.7432C77.5734 50.6538 77.4444 50.6595 77.3676 50.7942C77.1868 51.105 76.8495 51.0908 76.5633 51.1873C76.3205 51.2674 76.0658 51.3334 75.823 51.4134C75.7287 51.4431 75.6377 51.5274 75.7039 51.6449C75.7365 51.6945 75.8395 51.7483 75.8981 51.7385C76.4835 51.6396 77.0635 51.5118 77.6195 51.2939C77.7139 51.2642 77.7713 51.1741 77.8168 51.1319ZM48.7469 24.1444C48.865 24.0188 49.0905 24.0198 49.1641 23.8305C49.1282 23.6642 49.0002 23.6261 48.8777 23.6789C48.1916 23.9464 47.7974 24.5184 47.4292 25.0929C47.3036 25.2772 47.4729 25.4485 47.6962 25.4131C48.0258 25.3621 48.3391 25.2242 48.6078 25.0226C48.6999 24.9565 48.7432 24.8159 48.6509 24.758C48.1855 24.4575 48.5877 24.3229 48.7469 24.1444Z" fill="#6CC080"/>
<path d="M23.7869 29.5238C24.1183 30.2447 24.0837 30.2828 23.3567 30.6128C22.6835 30.922 22.0038 31.2461 21.2206 31.6225C21.1849 30.738 20.7531 30.1241 20.2964 29.5258C19.9827 29.1141 19.6441 28.7181 19.3552 28.2906C18.3756 26.8347 18.1161 25.3118 18.8687 23.6896C19.1081 23.1822 19.328 22.6575 19.5146 22.1272C19.7933 21.3444 19.7929 20.564 19.3862 19.8103C19.0363 19.1522 18.5076 18.9659 17.9032 19.3849C16.5 20.3597 15.4023 21.6008 14.9179 23.2868C14.755 23.8453 14.8087 24.4007 15.0456 24.9474C15.3929 25.755 15.6972 26.5793 16.037 27.3837C16.3564 28.1525 16.5992 28.9323 16.552 29.7806C16.5248 30.3982 16.8156 30.9241 17.2166 31.3828C17.4917 31.6979 17.7734 31.9981 18.0411 32.31C18.5537 32.9238 18.6189 33.6172 18.3996 34.346C18.2172 34.9492 18.0467 35.0521 17.435 34.8916C16.9094 34.7598 16.3947 34.5618 15.8681 34.4118C15.2962 34.2421 14.7179 34.0873 14.1438 33.9432C13.8605 33.8729 13.7152 33.774 13.7031 33.4318C13.6542 32.1869 13.1163 31.7749 11.8948 32.0044C11.5929 32.0589 11.2888 32.139 10.9837 32.201C10.6753 32.2703 10.4741 32.1559 10.4263 31.8336C10.2903 30.994 9.78266 30.5332 8.97926 30.2979C8.47094 30.1471 8.08805 29.8115 7.84684 29.2541C8.12803 29.2881 8.351 29.3322 8.57944 29.3432C9.33154 29.3877 9.67208 28.9156 9.39997 28.2028C9.24891 27.8089 8.95645 27.5128 8.67049 27.2019C8.5372 27.055 8.252 26.8863 8.3925 26.7082C8.61189 26.4315 8.40496 25.96 8.8525 25.8183C9.20623 25.7067 9.18093 25.4563 9.01984 25.2086C8.87161 24.9932 8.69531 24.8011 8.52654 24.6122C8.12665 24.1717 7.71922 23.728 7.40029 23.2253C7.25856 22.995 6.98429 22.7601 7.15521 22.4711C7.2991 22.2236 7.61576 22.2997 7.87227 22.2875C8.36697 22.2639 8.85945 22.266 9.34986 22.2317C9.62794 22.2112 9.91045 22.1394 10.1854 22.0643C10.4712 21.9851 10.741 21.8191 10.8364 21.5592C10.999 21.1248 11.1389 20.7425 11.6265 20.5297C11.8951 20.4075 11.7579 20.0639 11.5666 19.8652C11.3322 19.6211 11.0395 19.449 10.7262 19.3034C10.2773 19.0987 9.81859 18.9163 9.37617 18.6967C8.91868 18.4705 8.86206 18.2507 9.16255 17.8499C9.36037 17.5815 9.60443 17.3511 9.82914 17.1033C10.217 16.6874 10.44 16.2173 10.3185 15.6323C10.2514 15.2927 10.2973 15.0024 10.6887 14.9072C11.0402 14.8211 11.1927 15.0473 11.3473 15.3098C11.7316 15.9917 12.0753 16.0264 12.5443 15.4242C13.1268 14.6853 13.5619 13.8733 13.5318 12.8937C13.4972 11.9654 13.8908 11.3924 14.8063 11.1446C15.5266 10.9535 16.1299 10.5783 16.472 9.87642C16.511 9.78704 16.5834 9.70337 16.6525 9.62715C16.7465 9.53515 16.8641 9.47121 17.002 9.50476C17.1958 9.55388 17.1944 9.72169 17.1886 9.87878C17.174 10.1384 17.1368 10.3882 17.1222 10.6478C17.0944 11.0612 17.1992 11.4172 17.5899 11.632C17.9655 11.8403 18.3417 11.8005 18.701 11.5937C19.0959 11.3671 19.3629 11.0225 19.5879 10.6508C19.9708 10.0199 19.9806 9.99752 20.6186 10.4267C21.3062 10.8862 22.0322 11.0523 22.8375 10.9337C23.3549 10.858 23.8381 10.6964 24.2237 10.3061C24.5121 10.0152 25.1015 10.0419 25.4069 10.3081C25.5306 10.4153 25.5045 10.5369 25.445 10.6528C25.2113 11.0651 25.2545 11.5006 25.3343 11.9344C25.5015 12.8054 25.3165 13.6201 24.9946 14.4195C24.8689 14.7282 24.7507 15.0401 24.6024 15.3389C24.138 16.28 24.0421 17.2401 24.39 18.2519C24.6138 18.8904 24.5467 19.5172 24.2726 20.1247C23.9889 20.7545 23.7244 21.4016 23.4482 22.0347C23.121 22.8052 22.9641 23.5968 23.0193 24.4365C23.059 25.0036 23.0728 25.5682 23.0758 26.1369C23.0807 27.3183 23.2807 28.4429 23.7869 29.5238Z" fill="#BDEAC8"/>
<path d="M80.0741 71.2424C80.098 71.3325 80.0612 71.4583 80.0027 71.5302C79.5522 72.0868 79.1677 72.6989 78.5925 73.1479C78.2501 73.415 77.821 73.467 77.4005 73.3545C76.5779 73.1285 75.8509 73.3252 75.1803 73.7858C74.7686 74.0669 74.3817 74.0842 73.946 73.841C71.815 72.6188 69.8487 71.2469 68.7283 68.9504C68.0743 67.5928 67.4279 66.2386 66.8529 64.8447C66.6631 64.3897 66.4733 63.9347 66.1686 63.5359C66.0168 63.3456 65.8509 63.1669 65.5822 63.2446C65.3427 63.3174 65.3082 63.5415 65.3061 63.7533C65.2795 64.9113 65.164 66.0661 65.3108 67.22C65.4173 68.1349 65.6973 68.9837 66.3272 69.6927C67.3496 70.8477 67.633 72.3094 68.2047 73.8348C67.4309 73.5592 66.8088 73.3498 66.1921 73.1073C65.8821 72.9898 65.7248 72.7085 65.6142 72.4032C65.2735 71.466 64.7617 70.6312 64.1458 69.8486C63.7186 69.3166 63.4594 68.6896 63.211 68.0584C63.032 67.5992 62.8638 67.136 62.5949 66.7174C62.4843 66.5362 62.3552 66.3558 62.1028 66.3963C61.8503 66.4368 61.7886 66.6403 61.7681 66.8529C61.7271 67.3401 61.7122 67.8298 61.656 68.3103C61.6128 68.6991 61.5229 68.7396 61.137 68.589C60.619 68.3895 60.1713 68.0701 59.7615 67.7053C58.9972 67.0351 58.2222 66.369 57.5521 65.6071C57.4491 65.4912 57.3418 65.3647 57.2117 65.2902C57.0123 65.1677 56.8584 65.2512 56.774 65.4448C56.6971 65.6416 56.7395 65.8551 56.7623 66.0511C56.8602 66.8204 56.9689 67.5856 57.0775 68.3508C57.1112 68.6047 57.1926 68.8529 57.1277 69.1258C57.0345 69.1118 56.9467 69.1266 56.8969 69.096C55.7262 68.3017 54.6281 67.4238 53.8148 66.2449C53.5318 65.8379 53.2705 65.4225 52.9626 65.0312C52.5549 64.5166 52.3802 63.9442 52.4005 63.2973C52.4294 62.4238 52.4399 61.5511 52.4504 60.6785C52.463 59.7801 52.4344 58.8727 52.2813 57.9818C52.2313 57.703 52.1521 57.4292 52.0512 57.1637C51.9894 56.9949 51.8517 56.8551 51.6382 56.8683C51.4139 56.8856 51.3348 57.0461 51.2905 57.2305C51.2645 57.3521 51.2505 57.4878 51.2505 57.6118C51.2867 58.6466 51.1669 59.6665 51.0806 60.6922C50.9523 62.249 51.2574 63.7645 51.6178 65.2775C51.6721 65.5049 51.7188 65.7291 51.7731 65.9566C51.7742 65.9748 51.7536 66.0013 51.7146 66.0906C51.281 65.7596 50.9688 65.3576 50.6922 64.9356C50.3713 64.45 49.9918 64.0363 49.5029 63.7079C48.7095 63.1667 48.2324 62.418 47.9968 61.5089C47.6669 60.2573 47.4539 58.9858 47.2118 57.7194C47.1618 57.4406 47.0934 57.1626 47.0001 56.9004C46.9122 56.6671 46.7182 56.5116 46.4516 56.5636C46.2035 56.6149 46.1797 56.8349 46.1744 57.0541C46.1638 57.4925 46.19 57.9293 46.2898 58.3627C46.4874 59.1933 46.5972 60.0387 46.6702 60.8857C46.7551 61.8709 47.0806 62.8016 47.4386 63.7198C47.4863 63.8381 47.5633 63.9515 47.4528 64.1425C46.2672 63.8379 45.0328 63.7069 43.8969 63.1227C43.0547 62.6932 42.5419 62.0884 42.4776 61.1388C42.4361 60.5714 42.3471 60.0097 42.284 59.4505C42.1545 58.3395 41.8832 57.2641 41.329 56.278C40.9234 55.5517 40.857 54.8138 41.1655 54.0446C41.4037 53.4573 41.5389 52.8163 41.9667 52.3118C42.0599 52.2018 42.1205 52.0421 42.141 51.8916C42.4275 50.138 43.0629 48.4747 43.4057 46.7368C43.5539 46.004 43.6912 45.2752 43.6497 44.5217C43.6159 44.0816 43.5345 43.6473 43.1897 43.3197C43.0369 43.1732 42.8526 43.0574 42.6272 43.1186C42.3986 43.1872 42.3098 43.3699 42.2969 43.5858C42.2732 43.8679 42.257 44.1533 42.2517 44.4345C42.1865 46.4884 41.9879 48.5373 41.7406 50.5738C41.7201 50.7244 41.7559 50.8906 41.5447 51.0643C41.2952 50.539 41.127 50.0137 40.9621 49.4809C40.8156 49.0094 40.6659 48.5453 40.4977 48.0821C40.4272 47.8918 40.3058 47.7148 40.1919 47.541C40.0824 47.378 39.9241 47.2647 39.7237 47.3722C39.5373 47.4681 39.5081 47.6592 39.5743 47.8387C39.6893 48.1547 39.7935 48.4748 39.941 48.7784C40.352 49.5958 40.6146 50.4636 40.8079 51.3454C40.8426 51.4935 40.9142 51.6399 40.7973 51.8458C40.2607 51.5231 39.8141 51.0979 39.375 50.6759C38.846 50.1704 38.3278 49.6607 37.7262 49.2387C37.4714 49.0567 37.1994 48.8937 36.8818 48.8349C36.5307 48.7703 36.3271 49.0093 36.4507 49.3468C36.5701 49.6736 36.8237 49.8995 37.0915 50.1138C37.6498 50.5523 38.2958 50.8519 38.8941 51.2193C39.2583 51.4402 39.577 51.7033 39.8892 51.9813C40.0843 52.1551 40.1126 52.318 39.9165 52.4983C39.8082 52.6017 39.6966 52.7125 39.6002 52.8299C39.1583 53.346 38.9873 53.9449 39.1242 54.6248C39.1708 54.849 39.2327 55.0798 39.3195 55.2949C39.7165 56.2479 40.0431 57.1968 40.1432 58.2506C40.2423 59.2863 40.4237 60.3402 40.6007 61.3833C40.6257 61.5537 40.7212 61.7282 40.5945 61.8945C40.536 61.9044 40.4785 61.9325 40.4514 61.9118C39.0521 61.2481 37.5641 60.8293 36.0901 60.3988C35.4019 60.196 34.9174 59.8162 34.6245 59.1213C34.3142 58.3834 33.7992 57.7422 33.6764 56.9266C33.5613 56.1763 33.5209 55.441 33.6799 54.704C33.801 54.1365 33.7011 53.641 33.2404 53.2273C32.9433 52.956 32.7676 52.6135 32.6667 52.2238C32.4149 51.2279 31.9258 50.341 31.2796 49.5451C30.307 48.3587 29.6357 47.0202 29.1366 45.5973C28.7406 44.4764 28.3338 43.3596 27.8142 42.2734C27.6581 41.9483 27.5084 41.6083 27.2276 41.3618C26.9034 41.0697 26.5589 41.1763 26.4767 41.5924C26.3999 41.9754 26.4825 42.3658 26.5715 42.7414C26.8983 44.1865 27.4385 45.5565 28.1521 46.8603C28.3885 47.2913 28.6217 47.7297 28.9047 48.1368C29.6214 49.185 30.1139 50.3125 30.1902 51.5864C30.2284 52.2233 30.4812 52.8033 30.9192 53.2691C31.7247 54.1345 31.9841 55.1338 31.8567 56.2744C31.8168 56.6557 31.8072 57.0503 31.8485 57.4317C31.9029 57.9073 31.722 58.0942 31.1303 58.0842C31.3717 57.4895 31.0844 57.1337 30.7277 56.792C29.9201 56.0143 29.1265 55.225 28.3221 54.4398C27.651 53.7837 27.0255 53.0854 26.5516 52.2673C26.4735 52.1357 26.3846 52.0083 26.274 51.8892C26.2024 51.8048 26.0767 51.8031 25.9922 51.8726C25.9467 51.9148 25.9045 52.0115 25.9154 52.0694C25.9664 52.2423 26.0282 52.4111 26.1117 52.5716C26.7549 53.9333 27.4913 55.247 28.4096 56.454C28.582 56.6799 28.8877 56.9107 28.5422 57.2473C28.4653 57.3201 28.5422 57.4335 28.5921 57.5261C29.0671 58.3625 29.489 59.2378 30.4179 59.6962C30.4559 59.7128 30.4819 59.7773 30.5068 59.8236C30.0734 59.8028 29.7081 59.6878 29.2908 59.3816C29.036 59.1996 28.7986 58.9986 28.5677 58.7826C27.7752 58.0115 26.8842 57.3835 25.9412 56.8125C24.7489 56.0885 23.6605 55.2503 22.7855 54.1508C22.0309 53.2102 21.0922 52.4638 20.0602 51.8275C19.838 51.6951 19.6082 51.5594 19.3503 51.5089C18.5754 51.3392 17.9716 50.8808 17.4924 50.2818C16.9123 49.5414 16.2802 48.858 15.5496 48.2556C14.9859 47.7881 14.9696 47.6392 15.3194 47.0032C15.5197 46.6476 15.7504 46.3052 15.9464 45.9388C16.4965 44.9471 16.054 44.1603 14.8847 44.0666C14.4165 44.0218 13.9538 44.006 13.4835 43.9869C13.2201 43.9695 12.9665 43.9297 12.7302 43.8089C12.2381 43.5499 12.0841 43.1991 12.2215 42.6565C12.3914 41.9774 12.3534 41.8989 11.7204 41.5695C11.2554 41.3312 10.7872 41.1003 10.3287 40.8471C10.1759 40.7627 10.0458 40.6262 9.87883 40.4913C10.077 40.2233 10.3534 40.273 10.5994 40.2474C10.8345 40.226 11.0729 40.2591 11.3037 40.2269C11.7578 40.1592 11.9224 39.8854 11.7672 39.4544C11.6609 39.1599 11.4506 38.9175 11.2619 38.6668C11.0537 38.3988 10.8315 38.1423 10.659 37.8544C10.3435 37.3357 10.455 37.1008 11.0282 36.9876C11.1777 36.9553 11.3403 36.9554 11.4898 36.9231C12.1649 36.7835 12.3707 36.5188 12.3271 35.8529C12.3151 35.6527 12.2651 35.436 12.2867 35.2416C12.3201 34.8132 12.5585 34.6602 12.9605 34.5254C13.9562 34.189 14.8861 34.4175 15.8377 34.7618C16.3514 34.9505 16.8749 35.1168 17.4114 35.2534C18.1278 35.4331 18.4994 35.2231 18.7277 34.5341C19.0394 33.5713 18.9589 32.6589 18.2563 31.8472C18.1533 31.7314 18.0568 31.6007 17.9473 31.4998C17.2091 30.8321 16.8067 30.0362 16.9157 29.0205C16.9611 28.6061 16.8114 28.204 16.6551 27.8169C16.2668 26.8233 15.9077 25.8248 15.4727 24.8553C15.1614 24.1612 15.1633 23.5152 15.4405 22.8386C15.9395 21.612 16.8028 20.6683 17.8146 19.8604C18.3823 19.408 18.7269 19.5495 18.9786 20.2353C19.175 20.7995 19.1308 21.3562 18.923 21.8947C18.7216 22.4182 18.4943 22.9393 18.2626 23.4496C17.4961 25.1444 17.7481 26.7608 18.7273 28.3045C19.1025 28.8935 19.5741 29.4272 19.9851 29.9964C20.3396 30.4878 20.6498 30.9775 20.5341 31.636C20.4649 32.0222 20.7229 32.1968 21.1216 32.1316C21.2495 32.1076 21.3763 32.0654 21.4911 32.0092C22.4261 31.5842 23.3774 31.1841 24.2951 30.7161C25.5573 30.0794 26.8457 29.7554 28.2828 30.1255C29.217 30.3647 30.1782 30.5005 31.1233 30.6736C31.818 30.7995 32.4065 31.1272 32.8976 31.6162C33.7465 32.465 34.7708 32.974 35.9066 33.3721C37.4998 33.9432 39.1245 34.4836 40.5293 35.4865C41.1624 35.9399 41.8192 36.1733 42.545 35.6482C42.8494 35.4266 43.193 35.5499 43.503 35.7295C43.9203 35.9736 44.2228 36.3359 44.4755 36.7297C44.7281 37.1235 44.97 37.5215 45.176 37.9392C45.5752 38.7425 46.0468 39.4622 46.824 39.9786C47.2435 40.2591 47.5168 40.6885 47.7283 41.1352C48.4387 42.6325 49.4536 43.9083 50.6526 45.0517C51.1968 45.5638 51.5633 46.1314 51.6438 46.9197C51.7407 47.8569 52.7282 48.6777 53.7025 48.7837C54.0189 48.8243 54.292 48.7574 54.4024 48.4423C54.5149 48.1015 54.7155 48.1801 54.9507 48.2827C55.4861 48.5252 55.9294 48.8959 56.3132 49.3203C56.8163 49.8854 57.3085 50.4546 57.7552 51.066C58.6313 52.2457 59.6526 53.2584 60.7984 54.1925C62.0689 55.2342 63.2906 56.3255 64.5752 57.3557C65.1302 57.8016 65.6971 58.1376 66.4058 58.1278C66.8891 58.1171 67.1428 58.281 67.312 58.7624C67.7547 60.0455 68.6101 61.0656 69.6129 61.955C71.7702 63.8621 74.0813 65.5617 76.5938 66.9858C77.668 67.5874 78.5374 68.4098 79.3158 69.3165C79.8015 69.8386 79.894 70.5789 80.0741 71.2424Z" fill="#6CC080"/>
<path d="M77.6101 50.7161C77.7115 50.7963 77.7611 50.9169 77.714 51.1031C77.6694 51.1466 77.6122 51.2386 77.5286 51.2741C76.9921 51.5076 76.4351 51.6513 75.8737 51.7661C75.8176 51.7775 75.7207 51.7263 75.6909 51.6773C75.6236 51.558 75.7199 51.4741 75.8107 51.4418C76.0479 51.3474 76.2823 51.2789 76.5234 51.1952C76.7991 51.0906 77.1244 51.1067 77.3014 50.7792C77.3712 50.6388 77.5016 50.6328 77.6101 50.7161Z" fill="black"/>
<path d="M77.6578 49.096C77.6813 49.4156 77.4903 49.5213 77.1965 49.5306C76.8843 49.5404 76.5721 49.5503 76.2675 49.5634C75.8312 49.5879 75.3866 49.5485 74.9875 49.7782C74.7611 49.9028 74.4786 49.8655 74.2288 49.7737C74.1268 49.7378 74.0513 49.6618 74.0465 49.5481C74.0418 49.4344 74.098 49.3472 74.1948 49.3121C74.3346 49.2614 74.4865 49.2246 74.6398 49.2055C75.6427 49.1276 76.647 49.0674 77.6578 49.096Z" fill="black"/>
<path d="M77.5345 49.0761C77.5269 49.0728 77.5345 49.0761 77.5345 49.0761C77.5269 49.0728 77.5225 49.0621 77.5225 49.0621C77.5258 49.0547 77.5345 49.0761 77.5345 49.0761Z" fill="#AFD16F"/>
<path d="M72.4939 57.8296C72.5741 57.9353 72.6338 58.0674 72.5636 58.1871C72.4977 58.3174 72.3558 58.2909 72.2227 58.2858C71.8081 58.2641 71.4723 58.0822 71.1895 57.7997C70.302 56.9175 69.4254 56.0311 68.5488 55.1448C68.2259 54.8094 67.9138 54.4699 67.5044 54.2294C67.5076 54.222 67.5076 54.222 67.5108 54.2146C67.5033 54.2113 67.5065 54.2039 67.4989 54.2005C67.6759 53.6502 68.0799 53.9237 68.4113 54.0329C68.4663 53.8447 68.3774 53.7176 68.2745 53.6638C66.9857 53.0396 65.938 52.0698 64.7194 51.326C65.0407 52.1822 65.8055 52.6838 66.3549 53.3478C66.3831 53.3867 66.4481 53.4238 66.4849 53.4222C67.0997 53.3369 67.2442 53.8331 67.4913 54.1972C67.4881 54.2047 67.4849 54.2121 67.4816 54.2195L67.4892 54.2228C67.3055 54.5404 67.0501 54.5881 66.7057 54.4467C65.8773 54.1118 65.2597 53.5418 64.7794 52.8018C63.7711 51.2658 62.4763 49.9937 60.9111 49.0102C58.8162 47.6896 56.9398 46.1372 55.5629 44.0603C55.4047 43.8233 55.0092 43.4474 55.2688 43.2866C55.6604 43.0509 55.7606 43.6073 55.9264 43.8476C57.2295 45.7421 58.9316 47.2184 60.8726 48.4366C61.7391 48.9737 62.5884 49.5299 63.3698 50.4277C63.3553 50.0059 63.1797 49.7879 63.0842 49.5518C62.9811 49.3123 62.878 49.0729 62.736 48.8606C62.0422 47.8242 61.5052 46.6971 60.74 45.7003C60.5319 45.4327 60.3735 45.1338 60.2725 44.8069C60.2171 44.6236 60.1985 44.4387 60.4074 44.353C60.5838 44.2797 60.7008 44.3838 60.8048 44.5176C60.8211 44.5423 60.8406 44.5597 60.8493 44.5812C61.5141 45.8701 62.549 46.9316 63.1684 48.2626C63.7455 49.5044 64.6039 50.5154 65.7662 51.3054C66.6014 51.8731 67.3587 52.5571 68.3031 52.978C68.7243 53.1706 68.9867 53.5414 69.1452 53.9641C69.423 54.713 69.9086 55.2961 70.5055 55.8306C71.0516 56.3164 71.5523 56.8442 72.0702 57.353C72.2241 57.5174 72.3628 57.6752 72.4939 57.8296Z" fill="black"/>
<path d="M67.5151 54.2254C67.5119 54.2328 67.5119 54.2328 67.5086 54.2402C67.501 54.2369 67.501 54.2369 67.501 54.2369C67.5043 54.2295 67.5075 54.2221 67.5107 54.2147C67.5107 54.2147 67.5075 54.2221 67.5151 54.2254Z" fill="#AFD16F"/>
<path d="M65.8575 34.5502C65.7883 34.688 65.9053 34.7302 65.9995 34.7624C66.0785 34.7881 66.1999 34.9029 66.2268 34.7379C66.2429 34.6388 66.1497 34.5628 66.0577 34.505C65.971 34.476 65.8899 34.4759 65.8575 34.5502ZM86.7589 62.1975C86.3875 63.1934 85.9728 64.1439 85.2689 64.9506C83.9919 66.4089 83.0637 68.0812 82.1551 69.7708C81.6613 70.6957 80.9639 71.4875 80.2394 72.2587C79.397 73.1552 78.5969 74.079 77.7036 74.9268C76.9531 75.6336 76.1148 76.2313 75.2483 76.7902C74.4034 77.3409 73.4684 77.6225 72.4617 77.634C71.3662 77.6423 70.2805 77.6901 69.1851 77.7602C68.2369 77.8238 67.3199 77.6712 66.4459 77.2546C65.1311 76.6279 63.7235 76.1728 62.507 75.3415C59.8845 73.5343 57.2284 71.7832 54.7497 69.7912C53.2211 68.5585 51.4894 67.7499 49.6982 66.9949C46.3464 65.5767 42.8857 64.491 39.3937 63.4978C38.2113 63.1675 37.0666 62.73 35.9026 62.337C34.392 61.8282 32.8825 61.3376 31.3741 60.8032C30.0356 60.3341 28.7869 59.7009 27.7888 58.6378C27.2134 58.0332 26.4791 57.6067 25.7664 57.172C24.5359 56.4141 23.406 55.5498 22.5096 54.3985C21.9492 53.6767 21.2418 53.0852 20.5008 52.5497C20.0383 52.2242 19.5823 51.9456 18.9619 51.8783C18.3005 51.8018 17.7316 51.3061 17.3014 50.7825C16.6077 49.9318 15.8698 49.1413 15.0258 48.4284C14.4581 47.9508 14.41 47.5232 14.7601 46.845C14.9772 46.4094 15.2669 46.0143 15.4841 45.5787C15.7941 44.9714 15.6174 44.6733 14.9223 44.591C14.4579 44.5387 13.9848 44.5267 13.5183 44.5C13.0668 44.4798 12.6391 44.3639 12.2751 44.0813C11.7909 43.7021 11.47 43.2173 11.6653 42.6042C11.7991 42.1941 11.6247 42.0561 11.3052 41.8991C10.9749 41.7461 10.6575 41.5634 10.3402 41.3808C10.0759 41.2213 9.80726 41.051 9.56999 40.8503C9.05211 40.4033 9.13831 39.9989 9.80492 39.7948C10.0733 39.7174 10.3677 39.7044 10.6491 39.6593C10.8504 39.6322 11.0659 39.7174 11.2649 39.5302C11.2386 39.2182 10.9862 39.0108 10.8052 38.7638C10.5526 38.4327 10.2752 38.1171 10.1189 37.7307C9.87909 37.1222 10.1179 36.6784 10.7488 36.494C11.1113 36.387 11.5845 36.5227 11.8407 36.1837C12.0731 35.8785 11.8205 35.4854 11.8656 35.1338C11.9386 34.5115 12.3582 34.1289 12.8255 33.8024C13.0981 33.6119 13.1921 33.3966 13.1853 33.1019C13.1718 32.5745 12.8879 32.2738 12.3477 32.3122C11.9364 32.3449 11.5306 32.4684 11.1215 32.5374C10.3325 32.6705 10.0574 32.5151 9.87479 31.7547C9.74108 31.1926 9.45061 30.8448 8.87349 30.6991C8.09066 30.5078 7.57377 29.9552 7.17583 29.2954C7.04463 29.0791 6.88201 28.8313 7.0777 28.5896C7.24961 28.3818 7.49213 28.4257 7.73141 28.4771C7.98909 28.5276 8.23705 28.6005 8.49687 28.6254C8.82382 28.662 8.92218 28.5193 8.78872 28.2047C8.65526 27.8901 8.41145 27.6423 8.16874 27.4127C7.78518 27.0508 7.50445 26.6809 7.84814 26.1413C8.01674 25.879 7.84006 25.6428 7.68722 25.4347C7.57883 25.2901 7.42176 25.1951 7.29173 25.0588C6.92223 24.6854 6.96325 24.5707 7.57465 24.369C7.24513 23.9247 6.87776 23.5257 6.61965 23.0419C6.14896 22.1558 6.40718 21.6674 7.42141 21.5972C8.01673 21.5564 8.62294 21.5734 9.21069 21.5293C9.80602 21.4885 10.3753 21.3833 10.3301 20.5769C10.3179 20.3152 10.6275 20.247 10.7636 19.997C10.5793 19.7575 10.2751 19.6689 10.0086 19.535C9.60576 19.3415 9.18992 19.1778 8.80759 18.9579C8.17288 18.5926 8.06191 18.0403 8.48458 17.4645C8.69971 17.1783 8.969 16.9334 9.20363 16.6645C9.49665 16.3238 9.72578 15.9641 9.61163 15.4812C9.47468 14.9264 9.84869 14.4001 10.2934 14.2494C10.7999 14.0815 11.207 14.2238 11.6373 14.7474C11.7013 14.8283 11.7512 14.9208 11.9569 14.9664C12.4088 14.3857 12.853 13.7397 12.8198 12.9473C12.7664 11.5804 13.348 10.7646 14.6824 10.4363C15.1986 10.308 15.6161 10.0128 15.8473 9.50374C15.9153 9.34779 16.0505 9.20347 16.1803 9.09214C16.495 8.80516 16.9766 8.71474 17.2636 8.88417C17.5929 9.08087 17.6679 9.40531 17.652 9.75196C17.6361 10.0367 17.579 10.3123 17.5814 10.5963C17.5841 11.0659 17.8971 11.2379 18.3147 11.0046C18.7106 10.7796 18.9387 10.4017 19.144 10.014C19.5837 9.1716 19.6887 9.13785 20.5411 9.68658C21.1867 10.1097 21.856 10.4371 22.6667 10.2958C23.1082 10.2144 23.526 10.1049 23.8168 9.72798C24.1141 9.33615 24.4886 9.30508 24.9272 9.47876C25.1654 9.57387 25.4177 9.65743 25.6689 9.72284C26.089 9.83542 26.4689 9.77135 26.8399 9.50009C27.4868 9.03096 27.7412 9.08894 28.2712 9.73563C28.9681 10.5789 29.3385 10.7228 30.258 10.1251C31.5291 9.30076 32.7944 9.23409 34.1784 9.78489C34.787 10.0239 35.4226 10.1598 36.0772 9.87967C36.4191 9.73715 36.7624 9.8604 36.9662 10.1792C37.3739 10.8167 37.9047 11.172 38.696 11.1991C39.1582 11.2151 39.5093 11.5274 39.7619 11.9205C40.4547 13.0006 41.4632 13.7501 42.5863 14.3196C43.6824 14.8686 44.8313 15.3168 45.8009 16.0935C45.8595 16.1455 45.932 16.186 46.0035 16.2084C46.2612 16.3208 46.417 16.212 46.3442 15.9239C46.2746 15.6283 46.139 15.3393 46.0294 15.0528C45.9675 14.8844 45.8688 14.7176 45.8362 14.5442C45.7829 14.2735 45.9711 14.0904 46.2558 14.1616C46.4507 14.2113 46.6381 14.3196 46.8179 14.4245C47.4721 14.8072 48.0452 15.3136 48.6032 15.8134C49.2154 16.3545 49.8848 16.8057 50.6212 17.1447C51.2212 17.4242 51.7596 17.7828 52.2471 18.2165C52.8127 18.7196 53.3642 19.2343 54.0325 19.6054C54.1473 19.6732 54.248 19.7525 54.3423 19.8467C54.4366 19.9409 54.4919 20.0622 54.4076 20.1934C54.3438 20.2982 54.2356 20.2775 54.1328 20.2856C53.5742 20.3248 53.4273 20.5789 53.7168 21.0323C53.8967 21.323 54.1578 21.5518 54.4589 21.7097C56.4128 22.7124 58.3493 23.7341 60.4554 24.3879C61.3769 24.675 62.2983 24.9621 63.2112 25.2897C63.9844 25.5652 64.0267 25.6544 63.8554 26.4813C63.7876 26.8229 63.9761 27.0113 64.1593 27.2326C64.2947 27.3978 64.4486 27.5622 64.3178 27.7791C64.1871 27.9961 63.9499 27.9192 63.7453 27.8918C63.3653 27.832 63.0068 27.6403 62.5641 27.7035C62.6468 28.0931 62.9588 28.3088 63.182 28.583C63.6632 29.1554 63.6731 29.2569 63.2667 29.9194C63.1965 30.039 63.1187 30.1553 63.214 30.2676C63.5435 30.6501 63.701 31.1784 64.2619 31.3613C65.0643 31.6318 65.7597 32.0855 66.3816 32.6663C66.5658 32.8439 66.7922 32.9868 67.0078 33.1339C67.2504 33.3017 67.4323 33.3191 67.6626 33.0395C68.0713 32.5372 68.3808 32.4689 68.8692 32.6732C69.3609 32.87 69.7229 33.302 69.5632 33.8334C69.2698 34.8368 69.7032 35.2911 70.5145 35.8308C71.8371 36.7084 73.1122 37.6536 74.5331 38.3885C76.4036 39.3549 77.9238 40.8137 79.5347 42.1266C80.1013 42.5859 80.616 43.1022 81.1448 43.6069C82.3508 44.7519 83.2593 46.1029 84.0228 47.5587C84.7234 48.8898 85.4954 50.1813 86.3064 51.4456C87.0111 52.5398 87.5373 53.7329 87.9542 54.949C88.471 56.4739 88.3189 58.0429 87.6968 59.4686C87.3535 60.3796 87.0914 61.2906 86.7589 62.1975ZM85.551 63.456C85.8567 62.7762 85.7284 62.3048 85.111 61.8586C84.7871 61.6288 84.4881 61.3835 84.2691 61.0581C84.1477 60.8814 83.9992 60.7459 83.8021 60.6599C82.6878 60.1737 81.7226 59.4697 80.8525 58.6304C79.8968 57.7184 78.7892 57.465 77.5361 57.9171C76.8825 58.1535 76.7006 58.0741 76.3103 57.4795C76.1238 57.2037 75.9579 56.9014 75.7963 56.61C75.5686 56.2012 75.3625 55.7842 75.1207 55.387C74.8322 54.8899 74.8095 54.88 74.3097 55.1569C73.8704 55.3984 73.4579 55.351 73.055 55.0957C72.8362 54.956 72.6098 54.813 72.4288 54.628C71.4579 53.6475 70.3313 52.8377 69.3334 51.8985C67.9714 50.6147 66.5392 49.3887 65.4389 47.8568C65.3543 47.7403 65.2708 47.5801 65.0728 47.6617C64.706 47.8199 64.5477 47.5828 64.4132 47.312C63.9349 46.3608 63.4425 45.4211 63.1157 44.4122C62.93 43.845 62.7876 43.2614 62.9472 42.668C63.0572 42.2299 62.9053 41.9161 62.5403 41.6773C62.1254 41.4078 61.69 41.1648 61.2816 40.8806C60.6154 40.422 60.5556 40.166 60.9078 39.4623C60.9575 39.369 61.0116 39.2866 61.0461 39.1867C61.139 38.9532 61.0393 38.8301 60.7968 38.8481C60.5403 38.8776 60.2762 38.9038 60.0338 38.9837C59.444 39.1772 58.8499 39.3599 58.2819 39.6071C57.7571 39.8378 57.2462 39.8712 56.6875 39.7247C55.9295 39.5177 55.1694 39.3364 54.4158 39.1402C53.0851 38.7982 51.8061 38.2137 50.3956 38.1993C49.679 38.1872 49.1048 37.7865 48.7427 37.1688C48.4835 36.7286 48.1314 36.3982 47.6581 36.2006C47.0333 35.9368 46.6583 35.4726 46.4649 34.8402C46.3097 34.3481 46.1468 33.8528 45.8692 33.4135C45.171 32.3044 44.5549 32.124 43.4004 32.681C43.3323 32.7132 43.2641 32.7453 43.1927 32.7849C42.7264 33.0676 42.2674 33.0441 41.793 32.7664C41.3836 32.5259 40.9471 32.3266 40.4859 32.2668C38.7754 32.0509 37.2213 31.3728 35.6478 30.7393C34.4187 30.2473 33.6016 29.3073 32.8904 28.2899C32.4102 27.6118 32.4766 26.8806 32.9934 26.2133C33.1609 25.9947 33.4325 25.848 33.4971 25.5138C32.7013 25.3522 31.9285 25.4481 31.16 25.5548C29.9273 25.7329 28.9169 25.3186 28.0381 24.4579C27.7044 24.1266 27.4735 23.7872 27.5693 23.2987C27.6275 22.9793 27.5427 22.6771 27.3357 22.4277C26.6789 21.6373 26.7366 20.8227 27.1655 19.9844C27.3502 19.623 27.523 19.2476 27.6807 18.8656C27.8967 18.3499 27.8772 18.3326 27.3445 18.1885C27.273 18.1662 27.195 18.1587 27.116 18.133C26.607 17.9552 26.4703 17.648 26.7221 17.1744C26.8182 16.9954 26.9523 16.8329 27.0831 16.6778C27.4562 16.2572 27.8368 15.8398 28.2174 15.4225C28.3904 15.2328 28.6002 15.0415 28.5274 14.7534C28.3872 14.206 28.1669 13.6768 28.0992 13.108C28.0884 13.0502 28.0082 12.9445 27.9605 12.9503C27.4918 12.9491 27.6214 12.652 27.6959 12.4193C27.8351 11.9762 28.0425 11.5629 28.2997 11.1801C28.4694 10.9359 28.4974 10.7271 28.2406 10.509C28.1236 10.4049 28.0488 10.2662 27.9458 10.1505C27.5838 9.71858 27.6044 9.75409 27.1295 10.0154C26.7476 10.2288 26.68 10.88 26.0412 10.7516C25.9514 10.73 25.8564 10.9891 25.8619 11.1418C25.8556 11.3424 25.8721 11.5529 25.9102 11.7551C26.1072 12.8134 25.9122 13.798 25.4531 14.7468C25.2727 15.1189 25.1183 15.4935 24.9682 15.8789C24.7512 16.4383 24.6652 17.0284 24.878 17.6162C25.2926 18.7341 25.154 19.7963 24.6181 20.8177C23.8035 22.3539 23.5356 23.9607 23.6748 25.7098C23.7811 27.038 23.9285 28.3133 24.5186 29.5254C24.7584 30.0101 24.7421 30.0473 25.2464 29.843C26.2148 29.4434 27.2052 29.4071 28.2327 29.6167C29.0253 29.7857 29.8265 29.9143 30.6233 30.0321C31.7926 30.2064 32.8203 30.6636 33.6687 31.5112C34.152 31.996 34.7272 32.3531 35.3758 32.583C37.3477 33.2755 39.3412 33.8977 41.0896 35.1025C41.4784 35.3694 41.8628 35.4399 42.3139 35.1505C42.8959 34.768 43.4968 34.8799 44.0536 35.2997C44.5411 35.6715 44.9194 36.1282 45.2273 36.6427C45.519 37.1324 45.7858 37.6377 46.0558 38.1356C46.2803 38.5518 46.5329 38.9449 46.9402 39.211C47.6595 39.6928 48.1462 40.3559 48.5096 41.1156C49.0866 42.2955 49.8681 43.3172 50.8238 44.2291C51.0275 44.4241 51.2215 44.6413 51.422 44.8437C51.9096 45.3393 52.2565 45.8885 52.2962 46.6041C52.3392 47.3742 52.8733 47.7841 53.5425 48.0495C53.7353 48.1248 53.863 48.101 53.9992 47.9129C54.3895 47.4114 54.6005 47.362 55.1734 47.6208C55.8784 47.9284 56.444 48.4315 56.9609 48.9841C57.6198 49.687 58.191 50.4667 58.7796 51.2273C59.3118 51.9103 59.8677 52.5595 60.56 53.0825C62.0181 54.1872 63.2827 55.508 64.7581 56.5938C65.4341 57.092 66.0613 57.5159 66.9273 57.496C67.4025 57.4823 67.6982 57.7351 67.8405 58.195C68.2337 59.5068 69.078 60.5293 70.0769 61.4249C71.9849 63.1324 74.0334 64.6627 76.2452 65.9636C77.4312 66.6579 78.5047 67.4445 79.4745 68.4068C79.9535 68.881 80.2279 69.4516 80.5889 69.9892C80.8643 70.3922 80.8751 70.3881 80.6137 70.9458C81.1824 70.2835 81.617 69.7217 81.9173 69.0749C82.6853 67.4387 83.6732 65.9604 84.8409 64.5871C85.0863 64.2522 85.3631 63.8867 85.551 63.456ZM86.3749 61.4642C86.767 60.6276 86.6307 59.5957 87.3477 58.8832C87.7121 57.4687 87.8633 56.0673 87.2611 54.6555C86.736 53.4186 86.1675 52.1982 85.413 51.0735C84.7886 50.1469 84.2571 49.1725 83.7214 48.1874C83.1488 47.142 82.6011 46.0809 81.8078 45.1691C79.9156 42.991 77.7314 41.1099 75.3105 39.5851C73.2427 38.2852 71.2008 36.9258 69.1093 35.6596C68.6652 35.3951 68.6283 35.273 68.7977 34.7812C68.883 34.5443 68.9564 34.2935 69.0081 34.0509C69.077 33.7274 69.0583 33.4187 68.7128 33.2591C68.3554 33.0855 68.2096 33.3577 68.0355 33.5912C67.7242 33.9945 67.5965 34.0184 67.1243 33.777C66.6521 33.5356 66.2555 33.2035 65.8655 32.8565C65.6163 32.6417 65.3974 32.3782 65.0065 32.2607C65.0694 32.3854 65.0933 32.4754 65.1475 32.5167C65.7855 32.9365 66.1119 33.574 66.46 34.2032C66.6466 34.5409 66.9435 34.8119 67.236 35.0721C67.5708 35.3596 67.8991 35.662 68.2544 35.9231C69.2748 36.6865 70.0876 37.6157 70.7079 38.7173C70.9194 39.1013 71.1147 39.5224 71.4138 39.8297C71.8981 40.3327 72.1196 40.942 72.407 41.5448C72.8865 42.5761 73.4483 43.5637 74.2274 44.4252C74.5753 44.8068 74.9243 45.2065 75.2051 45.6384C75.6235 46.2718 76.1329 46.8211 76.7125 47.3127C77.7157 48.157 78.5686 49.1391 79.2982 50.2176C80.3281 51.7454 81.4749 53.1916 82.5794 54.6724C83.6363 56.097 84.3826 57.6956 85.1787 59.2628C85.3046 59.5121 85.3666 59.8044 85.3982 60.0834C85.479 60.7462 85.8032 61.2855 86.2119 61.8792C86.2777 61.687 86.3263 61.5756 86.3749 61.4642ZM79.9874 71.4504C80.0458 71.3787 80.0857 71.2458 80.0586 71.1633C79.8782 70.5012 79.7855 69.7624 79.3368 69.2395C78.5587 68.3343 77.6865 67.5206 76.6163 66.9123C74.1025 65.4972 71.7929 63.8 69.6401 61.8884C68.6379 61.0003 67.7752 59.9786 67.3398 58.7014C67.1705 58.2209 66.917 58.0572 66.4342 58.0676C65.7263 58.0769 65.1674 57.7447 64.6051 57.296C63.3213 56.2674 62.097 55.1852 60.8306 54.1376C59.6963 53.2007 58.6647 52.1937 57.7889 51.016C57.339 50.4132 56.8503 49.8375 56.3474 49.2733C55.9638 48.8496 55.5207 48.4795 54.9857 48.2372C54.7507 48.1347 54.5579 48.0594 54.4381 48.3961C54.328 48.7105 54.051 48.7664 53.7392 48.7364C52.7659 48.63 51.7681 47.8145 51.6816 46.8752C51.6007 46.0885 51.2311 45.5294 50.6904 45.0107C49.4888 43.8765 48.4775 42.5955 47.767 41.101C47.5554 40.6551 47.2822 40.2265 46.863 39.9464C46.0939 39.434 45.6147 38.7122 45.2156 37.9105C45.0095 37.4935 44.7709 37.0889 44.5151 36.7032C44.2625 36.3101 43.9601 35.9484 43.5431 35.7045C43.2333 35.5252 42.8976 35.4052 42.5861 35.6229C41.8614 36.1464 41.2051 35.9132 40.5725 35.4603C39.1686 34.4589 37.5486 33.9112 35.9536 33.3478C34.822 32.9425 33.7952 32.4415 32.9468 31.5939C32.4559 31.1058 31.8678 30.7784 31.1738 30.6524C30.2221 30.4759 29.2694 30.343 28.3361 30.1038C26.9003 29.7337 25.6135 30.0562 24.3531 30.6908C23.4399 31.1498 22.4867 31.5559 21.5529 31.9794C21.4382 32.0355 21.3116 32.0775 21.1839 32.1013C20.7856 32.1662 20.5278 31.9918 20.5967 31.6064C20.7043 30.9462 20.3942 30.4573 20.0473 29.9701C19.6365 29.4019 19.1651 28.8691 18.7899 28.2812C17.8109 26.7402 17.5581 25.1272 18.3228 23.4366C18.5572 22.9201 18.7808 22.4077 18.9816 21.8854C19.1889 21.3482 19.236 20.7853 19.0362 20.2297C18.7952 19.5411 18.44 19.4038 17.8732 19.8549C16.8598 20.6679 16.0012 21.6016 15.5034 22.8252C15.227 23.5002 15.233 24.1481 15.5368 24.8375C15.9719 25.8052 16.3312 26.8018 16.7197 27.7934C16.876 28.1798 17.0258 28.581 16.9807 28.9945C16.8756 30.0006 17.2672 30.799 18.0126 31.469C18.1297 31.5731 18.2186 31.7003 18.3215 31.8159C19.0238 32.6262 19.1048 33.5367 18.794 34.4972C18.5771 35.1804 18.1985 35.3865 17.4795 35.2142C16.9479 35.0883 16.4205 34.9113 15.9072 34.7227C14.9673 34.3744 14.035 34.1533 13.033 34.4852C12.6315 34.6194 12.4011 34.7752 12.3604 35.1994C12.3433 35.4041 12.3889 35.6096 12.4011 35.8094C12.4374 36.4706 12.232 36.7345 11.5654 36.8768C11.416 36.9089 11.2536 36.9087 11.1043 36.9408C10.5285 37.0609 10.4205 37.2877 10.736 37.8055C10.9084 38.0929 11.1382 38.3522 11.3387 38.6165C11.5273 38.8668 11.7408 39.1013 11.8439 39.4027C11.9992 39.8328 11.8349 40.1059 11.3814 40.1732C11.1509 40.2052 10.9127 40.172 10.6778 40.1933C10.4353 40.2113 10.156 40.169 9.9582 40.4362C10.125 40.5709 10.2551 40.7072 10.4078 40.7915C10.8659 41.0444 11.3338 41.2751 11.7984 41.5132C12.4309 41.8422 12.4689 41.9206 12.2996 42.5981C12.1627 43.1395 12.3168 43.4896 12.8085 43.7483C13.0446 43.869 13.2947 43.9162 13.561 43.9264C14.0308 43.9457 14.5006 43.9651 14.9607 44.0067C16.1332 44.1116 16.5713 44.8862 16.0223 45.8754C15.8224 46.2302 15.5922 46.5717 15.3967 46.9372C15.0476 47.5716 15.064 47.7202 15.6274 48.187C16.3576 48.7885 16.9894 49.4707 17.5693 50.2099C18.0483 50.8079 18.6409 51.2697 19.4259 51.4354C19.6803 51.4934 19.9132 51.6215 20.1352 51.7538C21.1664 52.3893 22.1046 53.1346 22.8589 54.0736C23.7336 55.1712 24.8213 56.0082 26.0127 56.7314C26.9551 57.3017 27.8455 57.9288 28.6376 58.6987C28.8608 58.911 29.1056 59.1151 29.3602 59.2969C29.7805 59.5952 30.1346 59.7143 30.5752 59.7386C30.547 59.6998 30.5285 59.6387 30.4863 59.6114C29.5581 59.1534 29.1286 58.2765 28.6612 57.445C28.6113 57.3525 28.5344 57.2394 28.6111 57.1668C28.9529 56.8386 28.6506 56.6006 28.4783 56.3751C27.5634 55.1627 26.8239 53.8589 26.1806 52.4998C26.1079 52.3355 26.0352 52.1711 25.9842 51.9986C25.9657 51.9375 26.0078 51.841 26.0608 51.8022C26.1452 51.7329 26.2632 51.7314 26.3423 51.8189C26.4452 51.9346 26.5417 52.0651 26.6198 52.1964C27.0936 53.0131 27.7189 53.7102 28.3897 54.3652C29.1937 55.1492 29.9868 55.9372 30.7941 56.7137C31.1506 57.0549 31.4378 57.41 31.197 58.0033C31.788 58.0137 31.9686 57.8273 31.914 57.3526C31.8725 56.9721 31.8743 56.5751 31.9215 56.1979C32.0449 55.0672 31.7884 54.0625 30.9832 53.1986C30.5454 52.7335 30.2926 52.1547 30.2541 51.5191C30.1695 50.2447 29.6812 49.13 28.9679 48.0763C28.6925 47.6732 28.4518 47.2323 28.2154 46.8021C27.5018 45.5007 26.9537 44.1301 26.634 42.6912C26.5449 42.3164 26.4698 41.9301 26.5387 41.5447C26.6206 41.1296 26.9615 41.0308 27.2887 41.315C27.566 41.5686 27.719 41.9005 27.8752 42.225C28.3904 43.2984 28.8051 44.4164 29.1981 45.5425C29.705 46.9659 30.3688 48.2986 31.341 49.4829C31.987 50.2775 32.4685 51.1594 32.7282 52.1566C32.8325 52.5381 33.005 52.8873 33.3019 53.1583C33.7623 53.5714 33.8624 54.0658 33.7418 54.632C33.5834 55.3673 33.6241 56.1011 33.7396 56.8498C33.8704 57.667 34.382 58.3145 34.688 59.0403C34.9809 59.7338 35.4576 60.1098 36.1527 60.3158C37.6329 60.7495 39.1121 61.165 40.5102 61.8281C40.5481 61.8446 40.6055 61.8166 40.6531 61.8109C40.7796 61.6451 40.6874 61.4634 40.6591 61.3008C40.4708 60.264 40.2965 59.2156 40.2002 58.1747C40.1028 57.1156 39.7728 56.1761 39.3756 55.2249C39.2888 55.0103 39.2269 54.7799 39.1801 54.5562C39.0322 53.8818 39.2102 53.2876 39.6546 52.7655C39.7508 52.6484 39.8622 52.5379 39.9704 52.4348C40.1661 52.255 40.1378 52.0924 39.9428 51.9189C39.6307 51.6413 39.3122 51.3786 38.9483 51.1579C38.3504 50.791 37.7049 50.4917 37.147 50.0538C36.8794 49.8398 36.6259 49.6143 36.5065 49.2881C36.3827 48.9513 36.5784 48.7096 36.9368 48.7776C37.2464 48.8331 37.5151 49.0033 37.7805 49.181C38.3817 49.6024 38.9028 50.1039 39.4284 50.616C39.8672 51.0373 40.3136 51.4619 40.8498 51.7842C40.9556 51.5829 40.884 51.4368 40.8601 51.2849C40.6665 50.4049 40.4037 49.5388 39.9926 48.723C39.8451 48.42 39.73 48.1046 39.6258 47.7851C39.5628 47.5985 39.5886 47.4153 39.7747 47.3197C39.9716 47.22 40.1298 47.3332 40.2425 47.4884C40.3596 47.6544 40.4778 47.8386 40.5483 48.0285C40.7166 48.4908 40.8664 48.954 41.013 49.4246C41.1781 49.9563 41.3496 50.4731 41.5959 51.0048C41.7992 50.8284 41.7709 50.6657 41.7913 50.5155C42.0372 48.4836 42.2419 46.4426 42.2983 44.3899C42.3034 44.1093 42.3269 43.8279 42.3429 43.5431C42.3589 43.3203 42.4399 43.1346 42.6726 43.077C42.8977 43.0161 43.0818 43.1318 43.2346 43.278C43.5792 43.6052 43.6716 44.0344 43.6948 44.4777C43.7475 45.2255 43.5999 45.9567 43.4524 46.6879C43.111 48.4218 42.4696 50.0778 42.1921 51.8307C42.1641 51.9776 42.1112 52.1402 42.0182 52.2499C41.5912 52.753 41.4565 53.3926 41.2189 53.9784C40.9144 54.7383 40.9812 55.4747 41.3835 56.2071C41.9344 57.1988 42.2094 58.2646 42.3393 59.3732C42.4027 59.9312 42.492 60.4917 42.5337 61.058C42.5985 62.0056 43.1111 62.6093 43.9527 63.0384C45.0834 63.6113 46.3208 63.7534 47.5053 64.0581C47.6123 63.8749 47.5386 63.7544 47.4908 63.6363C47.1251 62.7165 46.807 61.791 46.7216 60.8079C46.6482 59.9626 46.5272 59.1231 46.3402 58.2902C46.2369 57.865 46.2105 57.4292 46.2241 56.9843C46.2261 56.773 46.2529 56.5461 46.5008 56.4951C46.767 56.4433 46.9609 56.5986 47.0488 56.8315C47.1498 57.0965 47.2074 57.378 47.2608 57.6488C47.5034 58.9126 47.7169 60.1814 48.0472 61.4305C48.283 62.3378 48.76 63.0851 49.553 63.6255C50.0307 63.9577 50.4208 64.3666 50.7417 64.8514C51.0182 65.2725 51.3346 65.6847 51.7636 66.0044C51.8025 65.9153 51.8231 65.8889 51.822 65.8708C51.7752 65.647 51.7208 65.42 51.6665 65.193C51.3056 63.6831 50.9999 62.1707 51.1271 60.6174C51.2051 59.5907 51.3318 58.5764 51.2951 57.5438C51.2874 57.4167 51.3089 57.2847 51.3347 57.1634C51.3789 56.9793 51.4578 56.8193 51.6819 56.8021C51.8951 56.7891 52.036 56.9212 52.0946 57.0971C52.1955 57.3621 52.2748 57.6354 52.3249 57.9136C52.4784 58.8027 52.5107 59.7007 52.4954 60.6045C52.4854 61.4753 52.4755 62.346 52.4471 63.2176C52.4272 63.8631 52.6053 64.427 53.0096 64.9481C53.3099 65.3354 53.5787 65.7533 53.8617 66.1596C54.6747 67.3364 55.7613 68.2172 56.942 69.0063C56.9994 69.0402 57.0839 69.0329 57.1726 69.0362C57.2481 68.7598 57.1591 68.5088 57.1221 68.2628C57.013 67.4992 56.904 66.7357 56.8058 65.968C56.7786 65.7616 56.7329 65.5561 56.8171 65.363C56.9014 65.1699 57.0582 65.0792 57.2543 65.209C57.381 65.2908 57.4883 65.4172 57.5945 65.5254C58.2751 66.282 59.0389 66.9511 59.8028 67.6203C60.2123 67.9846 60.6597 68.3036 61.1773 68.5029C61.5552 68.6501 61.6559 68.6056 61.6955 68.2252C61.7513 67.7457 61.766 67.257 61.8067 66.7709C61.827 66.5588 61.8885 66.3558 62.1407 66.3156C62.3929 66.2753 62.511 66.4595 62.6325 66.6362C62.8905 67.0582 63.0664 67.5239 63.2487 67.9747C63.4972 68.6046 63.7598 69.2231 64.1836 69.7615C64.7992 70.5428 65.3186 71.3794 65.6518 72.3115C65.7658 72.6087 65.923 72.8895 66.2295 73.0144C66.8457 73.2567 67.4672 73.466 68.2404 73.7415C67.6684 72.219 67.3844 70.7603 66.3625 69.6073C65.7328 68.8994 65.4559 68.0449 65.3457 67.1394C65.2016 65.9804 65.3163 64.8283 65.339 63.6802C65.3485 63.4722 65.3753 63.2452 65.6145 63.1728C65.8829 63.0954 66.0519 63.2664 66.2004 63.4638C66.505 63.8619 66.6949 64.316 66.8848 64.7701C67.4631 66.1539 68.1064 67.513 68.7605 68.868C69.8702 71.1643 71.8428 72.5376 73.9754 73.751C74.4076 74.0014 74.794 73.9844 75.2083 73.6967C75.8747 73.2449 76.6009 73.049 77.4259 73.2676C77.846 73.3801 78.2747 73.3285 78.6165 73.0622C79.1508 72.6235 79.5377 72.0056 79.9874 71.4504ZM84.8065 60.4882C84.8341 59.9079 84.6637 59.4712 84.4435 59.0657C83.462 57.2409 82.5271 55.3921 81.1821 53.7799C80.3465 52.7788 79.6169 51.7003 78.8916 50.6325C78.5187 50.0808 78.1587 49.4995 77.6019 49.0797C77.2754 48.4423 76.6797 48.0497 76.1823 47.5764C76.0729 47.4756 75.9538 47.459 75.8251 47.5266C75.2679 47.8315 74.5394 47.8054 74.1318 48.3878C74.0637 48.4818 73.9501 48.4941 73.8515 48.4511C73.7183 48.3842 73.6954 48.2504 73.7245 48.1217C73.7687 47.9377 73.8823 47.8016 74.0305 47.6894C74.2814 47.5072 74.5638 47.3564 74.8625 47.2922C75.5183 47.1541 75.4012 46.9262 75.0587 46.5116C74.661 46.0375 74.1746 45.6838 73.6243 45.3731C73.0243 45.0317 72.4243 44.7522 71.7455 44.6328C70.3922 44.4048 69.0977 44.6002 67.8696 45.1605C67.6327 45.2693 67.4076 45.3921 67.1739 45.4934C67.0051 45.57 66.8212 45.64 66.6803 45.446C66.5437 45.2626 66.6593 45.1009 66.7685 44.9541C66.8572 44.8337 66.961 44.7198 67.0724 44.6093C67.8921 43.7648 68.9048 43.305 70.0987 43.216C70.6204 43.1785 71.1357 43.1557 71.6509 43.133C71.9085 43.1217 72.0199 43.0112 72.0077 42.7495C71.9846 42.3682 71.9539 41.9835 71.7555 41.6317C70.9888 40.2453 69.8026 39.4272 68.2447 39.1718C66.9292 38.9603 65.6106 38.8181 64.2898 38.6396C64.0332 38.6072 63.7701 38.5896 63.5405 38.4541C63.4528 38.407 63.3704 38.3269 63.3855 38.2097C63.4027 38.0669 63.4859 37.9795 63.6364 37.9655C64 37.9386 64.3735 37.9513 64.7199 37.8814C65.7155 37.6882 66.6982 37.4628 67.6809 37.2375C67.8411 37.2013 68.0587 37.2609 68.1472 37.0166C67.9381 36.7928 67.7181 36.573 67.523 36.3377C66.773 35.4093 65.7032 35.0486 64.6272 35.0742C63.1085 35.101 61.6358 34.6087 60.1183 34.7157C59.8758 34.7336 59.5315 34.6541 59.555 34.3108C59.587 33.927 59.94 33.9661 60.2247 33.9754C60.4022 33.9821 60.5863 34.0359 60.7682 34.0534C61.1027 34.0933 61.4427 34.1621 61.775 34.1656C62.6843 34.1911 63.598 34.2273 64.4998 34.3733C64.7012 34.4081 64.9134 34.4388 65.1158 34.368C65.4923 34.2495 65.5236 34.0951 65.2288 33.7986C65.0674 33.6309 64.9156 33.441 64.7196 33.3112C63.7707 32.6939 62.9916 31.8943 62.2017 31.0988C61.765 30.6519 61.2796 30.2546 60.7056 29.9776C59.3941 29.3435 57.9896 28.881 56.7861 28.02C56.6897 27.9514 56.5934 27.9447 56.5144 28.0429C56.4625 28.0998 56.4388 28.1955 56.4973 28.2475C56.8462 28.5854 56.6331 28.6603 56.3029 28.6931C56.1633 28.7029 56.0443 28.7482 55.9697 28.8571C55.4335 29.6309 54.6743 30.2543 54.2811 31.1346C53.8361 32.1338 53.2861 33.1049 53.3382 34.2679C53.336 34.2935 53.3339 34.319 53.3318 34.3446C53.307 34.4841 53.2432 34.5889 53.0884 34.5921C52.9153 34.596 52.874 34.4631 52.8695 34.3286C52.8442 33.9109 52.8784 33.5016 53.0025 33.1137C53.4611 31.6697 54.0486 30.2818 54.9328 29.0412C55.1436 28.7442 55.4411 28.5381 55.6909 28.2758C56.2229 27.7389 56.2292 27.4764 55.7436 26.8933C54.7921 25.7444 53.6285 24.8125 52.438 23.9218C52.2061 23.7499 51.9214 23.6787 51.6323 23.6586C49.7378 23.5127 47.8401 23.3742 45.938 23.2249C45.4595 23.1841 45.0775 23.3357 44.7596 23.692C44.1444 24.3782 43.5487 25.0818 43.0688 25.8713C42.844 26.2417 42.6073 26.5981 42.6771 27.0794C42.7142 27.3873 42.5174 27.6108 42.2415 27.7468C42.1485 27.7946 42.0294 27.778 41.9611 27.6863C41.921 27.6334 41.8852 27.5294 41.9078 27.4774C42.2579 26.7992 42.3502 26.0086 42.8443 25.3932C43.2594 24.876 43.6627 24.3448 44.0735 23.8169C44.1729 23.6924 44.3579 23.5786 44.2235 23.3697C42.6852 23.3173 41.5632 23.8001 40.4548 24.996C40.0493 25.429 39.6666 25.8719 39.2372 26.2768C38.7452 26.7428 38.1306 27.0139 37.5084 27.2816C37.3894 27.3269 37.2454 27.326 37.1879 27.1683C37.1401 27.0502 37.2126 26.9669 37.3013 26.9084C37.4289 26.8226 37.5642 26.7402 37.7081 26.6792C38.5683 26.3209 39.2529 25.7445 39.8075 25.0318C40.8897 23.6476 42.3363 22.9794 44.0866 22.8768C44.6787 22.8434 45.2762 22.777 45.877 22.827C47.516 22.9588 49.1507 23.0797 50.7854 23.2007C51.0041 23.2166 51.2293 23.2795 51.5333 23.1204C50.2809 22.0613 49.3724 20.7721 48.1439 19.803C47.2372 19.0891 46.2396 18.5213 45.2053 18.017C44.7721 17.8103 44.3228 17.7026 43.8454 17.68C42.673 17.6369 41.5039 17.6484 40.3481 17.8778C38.9768 18.1457 37.5926 18.3815 36.229 18.7147C35.2182 18.9632 34.1911 19.125 33.1431 19.0656C32.6733 19.0462 32.2078 18.9757 31.7746 18.769C31.6338 18.6987 31.4767 18.6037 31.5209 18.4196C31.5737 18.1952 31.7805 18.197 31.9635 18.2326C32.0869 18.26 32.2255 18.2939 32.3187 18.3699C32.6199 18.6516 32.9879 18.6354 33.3538 18.6448C34.3811 18.6687 35.3736 18.4829 36.3584 18.232C37.7901 17.8666 39.2513 17.6202 40.7037 17.3523C41.813 17.1468 42.9324 17.1667 44.0495 17.2121C44.5529 17.2373 45.0228 17.3805 45.4788 17.5971C47.1629 18.4114 48.714 19.4064 49.9689 20.8114C51.0938 22.0801 52.368 23.1929 53.7221 24.2257C54.6549 24.9421 55.5357 25.7153 56.2565 26.6486C56.845 27.4092 57.5828 27.9521 58.4589 28.3432C59.8776 28.9799 61.3892 29.4449 62.6549 30.722C62.5591 30.2382 62.4061 29.9063 62.6841 29.6829C63.0681 29.3819 62.9239 29.1333 62.6562 28.8574C62.4005 28.5956 62.1588 28.3222 61.995 27.9944C61.7032 27.3809 61.9335 27.0394 62.6003 27.0828C62.8114 27.0954 63.0128 27.1302 63.2694 27.1626C63.2431 26.8506 63.2038 26.5682 63.2912 26.3058C63.3798 26.0616 63.2746 25.9096 63.0483 25.8286C62.7083 25.6979 62.3682 25.5672 62.0217 25.4514C61.3254 25.2271 60.6227 25.0178 59.9297 24.7861C57.96 24.13 56.1642 23.1167 54.3252 22.1817C54.0739 22.0544 53.841 21.8644 53.6373 21.6694C53.2255 21.2688 52.9469 20.8113 53.2137 20.2205C53.2947 20.0349 53.3107 19.8739 53.1363 19.736C52.2566 19.0428 51.5207 18.1648 50.4778 17.7009C49.5107 17.2701 48.6831 16.6438 47.8998 15.9573C47.5531 15.6558 47.2269 15.3278 46.7905 15.1286C46.7084 15.358 46.8396 15.5124 46.883 15.6816C46.9787 16.1035 47.0408 16.5195 46.6178 16.7858C46.2165 17.0438 45.8807 16.8001 45.5589 16.5448C44.8385 15.9829 44.0846 15.4772 43.2193 15.1439C42.1613 14.7353 41.2373 14.1023 40.3976 13.3382C40.1203 13.0846 39.8742 12.7385 39.4271 12.7291C39.3124 12.7232 39.2333 12.6357 39.2483 12.5185C39.3159 11.9292 38.8546 11.8075 38.4573 11.7667C37.6995 11.6836 37.106 11.3893 36.6951 10.7592C36.5119 10.4759 36.2715 10.4064 35.9577 10.5259C35.4199 10.7243 34.8861 10.624 34.3555 10.4544C33.9603 10.3262 33.5553 10.2202 33.1569 10.0994C32.4422 9.87596 31.7755 9.95632 31.1426 10.352C30.7477 10.5952 30.3453 10.8351 29.8875 10.9535C29.2631 11.1231 29.2674 11.1338 28.9076 11.7105C28.8805 11.7517 28.8383 11.7863 28.7962 11.821C28.569 12.0313 28.5304 12.3061 28.548 12.5966C28.5744 13.0325 28.5803 13.4947 28.7733 13.8795C29.2593 14.834 28.959 15.5428 28.216 16.191C27.911 16.4557 27.6624 16.798 27.4007 17.1081C27.2904 17.2368 27.1087 17.3431 27.2161 17.5933C27.2952 17.619 27.3894 17.6512 27.4868 17.6761C28.3974 17.9054 28.5254 18.1292 28.1777 18.9675C27.9714 19.4609 27.7467 19.9552 27.5253 20.442C27.2639 20.9997 27.2774 21.5272 27.6698 22.0343C27.9137 22.344 28.1565 22.6974 28.0844 23.0903C27.967 23.7108 28.3224 24.0339 28.7276 24.3874C29.343 24.9211 30.0446 25.1124 30.8294 25.0304C31.1627 24.9903 31.5037 24.9534 31.8414 24.9239C32.414 24.8732 32.9823 24.8737 33.5561 24.9649C33.8354 25.0072 34.1569 25.0149 34.2622 25.3526C34.3578 25.6506 34.1209 25.8213 33.9436 26.0003C33.7316 26.2172 33.4893 26.4209 33.3283 26.6865C33.0798 27.0907 33.0055 27.5092 33.2668 27.9237C33.7688 28.7173 34.3692 29.492 35.2173 29.9062C36.7681 30.6536 38.3331 31.3894 40.0642 31.6409C40.7679 31.7446 41.449 31.9003 42.0631 32.292C42.3318 32.4623 42.6013 32.465 42.8761 32.3108C43.033 32.2202 43.1942 32.1402 43.3597 32.071C44.4374 31.5866 45.2235 31.7704 45.9984 32.6831C46.4276 33.1886 46.7139 33.7732 46.8813 34.4031C47.0714 35.1048 47.4486 35.6053 48.1438 35.8733C48.525 36.0131 48.8251 36.2766 49.0128 36.6325C49.4422 37.4475 50.1462 37.7369 51.0176 37.7459C51.627 37.7554 52.2063 37.8756 52.7759 38.0799C54.1035 38.5531 55.471 38.8934 56.8482 39.2114C57.2489 39.3067 57.605 39.2764 57.9837 39.1323C58.6578 38.8695 59.345 38.6389 60.0365 38.4191C60.3546 38.3104 60.6945 38.2554 61.0344 38.3242C61.5725 38.4352 61.785 38.7754 61.6167 39.2854C61.5724 39.4075 61.5054 39.5197 61.4568 39.6311C61.2192 40.155 61.2192 40.155 61.7013 40.4979C62.1291 40.7995 62.6143 41.0112 63.0152 41.3541C63.3694 41.6589 63.6643 42.0174 63.5489 42.4886C63.247 43.7182 63.8337 44.752 64.2927 45.8097C64.3523 45.9418 64.4034 46.1144 64.6209 46.0502C64.965 45.944 65.0757 46.1867 65.208 46.4212C66.4357 48.7159 68.5221 50.2627 70.3241 52.0478C70.3631 52.0825 70.4021 52.1172 70.4551 52.1404C70.9262 52.3017 71.2145 52.675 71.5374 53.0104C72.0218 53.5134 72.5073 54.0346 73.0749 54.4502C73.4606 54.7246 73.8157 54.8619 74.2787 54.5246C74.7027 54.2146 75.0114 54.3139 75.3441 54.7508C75.5327 55.0011 75.6748 55.2752 75.8277 55.5452C76.1248 56.0638 76.4111 56.5865 76.6974 57.1092C76.8633 57.4114 77.0529 57.556 77.4468 57.4185C78.8947 56.8922 80.1475 57.2886 81.2538 58.3105C81.594 58.6269 81.9385 58.954 82.3242 59.2283C83.0608 59.753 83.8666 60.2018 84.8065 60.4882ZM77.3556 74.4214C77.4952 74.2878 77.6921 74.1881 77.7113 73.9578C76.8894 73.608 76.1328 73.6669 75.4221 74.1789C74.9094 74.5474 74.3909 74.5775 73.819 74.275C72.6569 73.6707 71.5726 72.9501 70.5629 72.1206C69.5878 71.3151 68.8691 70.2943 68.2813 69.1804C67.5557 67.8031 66.92 66.3854 66.3275 64.9512C66.232 64.7151 66.1743 64.4336 65.8559 64.2328C65.8179 65.2504 65.7593 66.1707 65.8815 67.0903C65.9753 67.7853 66.121 68.4854 66.6076 69.0247C67.7867 70.3347 68.2029 71.966 68.7273 73.5562C68.8174 73.8253 68.8459 74.1117 68.7671 74.3956C68.6755 74.7092 68.3996 74.8451 68.1796 74.6254C67.6367 74.0703 66.9145 73.9055 66.242 73.6474C65.6302 73.4159 65.2444 73.0177 65.0273 72.4191C64.8363 71.8849 64.6084 71.3524 64.2562 70.8982C63.4964 69.9302 62.8794 68.8831 62.4809 67.7281C62.4581 67.6563 62.4137 67.5927 62.2881 67.5909C62.2538 67.9384 62.2379 68.285 62.1777 68.63C62.0764 69.1516 61.7876 69.3172 61.271 69.1361C60.7285 68.9524 60.2173 68.6763 59.7601 68.3177C59.1015 67.8005 58.5055 67.2223 57.8847 66.6597C57.7677 66.5556 57.6809 66.3409 57.3811 66.4488C57.4912 67.1686 57.6023 67.9066 57.6983 68.638C57.7441 68.9674 57.7867 69.3042 57.7697 69.6326C57.7484 70.0123 57.4942 70.14 57.1854 69.9169C55.723 68.8634 54.2368 67.8437 53.235 66.2928C52.9662 65.875 52.6583 65.4843 52.2713 64.9442C52.2589 65.531 52.4498 65.8795 52.5022 66.2559C52.5294 66.4623 52.5718 66.6753 52.3587 66.8121C52.1564 66.9449 51.9594 66.8589 51.7752 66.7432C51.2997 66.4473 50.8685 66.0912 50.5963 65.6189C49.9186 64.4215 48.6244 63.8303 47.8212 62.755C47.9505 63.2446 48.1328 63.6954 48.3011 64.1578C48.3803 64.3691 48.5094 64.6111 48.3147 64.809C48.1136 65.0218 47.8796 64.8755 47.6706 64.7755C47.0219 64.4836 46.3409 64.3279 45.6458 64.1837C45.2646 64.1058 44.8889 63.9949 44.5196 63.8692C42.9213 63.3132 41.9083 62.3674 41.8642 60.5449C41.8258 58.9989 41.4942 57.4841 40.7123 56.091C40.2774 55.309 40.3686 54.5002 40.6633 53.7006C40.7713 53.4118 40.8944 53.1297 41.0024 52.8409C41.0445 52.7443 41.0487 52.6313 40.9523 52.5627C40.8321 52.466 40.7011 52.4973 40.5994 52.5855C39.8672 53.2295 39.4347 53.6419 39.8276 54.7061C40.2488 55.8711 40.6645 57.0071 40.8065 58.2536C40.943 59.4711 41.1099 60.7019 41.3568 61.9146C41.4732 62.4958 41.2244 62.6524 40.6396 62.4415C40.5378 62.4059 40.4469 62.3662 40.3516 62.3158C39.2123 61.7833 38.0417 61.3433 36.8171 61.0477C36.4164 60.9524 36.0233 60.7986 35.6238 60.6596C35.0249 60.4602 34.571 60.0942 34.3355 59.4964C34.2574 59.3032 34.1684 59.1142 34.0546 58.9407C33.1396 57.5426 32.8966 56.0311 33.1981 54.4301C33.2746 54.048 33.2148 53.7302 32.906 53.4452C32.5343 53.0974 32.3196 52.659 32.187 52.1769C31.798 50.7519 30.9071 49.6295 29.948 48.5392C29.9437 48.5285 29.9393 48.5178 29.935 48.507C29.9274 48.5037 29.9198 48.5004 29.9122 48.4971C28.8374 46.4105 28.2451 44.1278 27.1854 41.9859C27.0048 42.1723 27.0493 42.2978 27.0787 42.4167C27.5507 44.6027 28.5377 46.5803 29.8083 48.4252C29.8321 48.4533 29.8776 48.4732 29.9155 48.4897C29.9198 48.5004 29.9198 48.5004 29.9242 48.5112C29.9285 48.5219 29.9437 48.5285 29.948 48.5392C30.2043 49.3582 30.6272 50.1262 30.6552 51.0135C30.6831 51.8389 31.0031 52.5531 31.5548 53.1916C32.1692 53.8928 32.4147 54.7159 32.3518 55.6255C32.3337 55.9358 32.3188 56.2387 32.3116 56.5449C32.3078 57.1532 32.2132 57.7837 32.795 58.2497C32.8881 58.3257 32.9305 58.4768 32.8235 58.598C32.7164 58.7193 32.5951 58.6664 32.4695 58.6027C32.1305 58.4283 31.7851 58.3925 31.4107 58.4855C31.2689 58.5209 31.0979 58.4993 30.9441 58.4587C30.5099 58.3577 30.3625 58.1165 30.6057 57.7453C30.8488 57.3741 30.6679 57.1891 30.436 56.9553C29.71 56.2407 28.9916 55.5295 28.2624 54.8224C28.102 54.6729 27.9687 54.4821 27.6373 54.3729C28.0429 55.0979 28.4873 55.6719 28.8992 56.2583C29.1822 56.6646 29.4543 57.075 29.7156 57.4896C29.7969 57.6134 29.913 57.8232 29.7517 57.9031C29.3796 58.0943 29.619 58.2695 29.736 58.4355C29.9377 58.7179 30.215 58.9096 30.5096 59.0824C30.7197 59.2006 30.9894 59.3271 30.9744 59.5681C30.9425 60.0756 31.3204 60.161 31.6517 60.2702C32.5895 60.5821 33.5478 60.8676 34.4855 61.1795C36.3231 61.7868 38.1229 62.5014 39.9875 63.0055C44.1031 64.1206 48.1173 65.5096 51.9966 67.2906C52.733 67.6296 53.4295 68.0395 54.0892 68.513C56.442 70.1937 58.6522 72.0773 61.1348 73.5848C62.1844 74.2195 63.0848 75.072 64.2359 75.5566C65.1066 75.9188 65.9632 76.2926 66.821 76.6845C67.5271 77.0103 68.2579 77.1347 69.0297 77.0824C69.8642 77.0311 70.6998 76.936 71.5214 76.9763C73.1387 77.0543 74.5315 76.5924 75.7818 75.6087C76.3411 75.2782 76.882 74.8865 77.3556 74.4214ZM73.2478 44.4574C72.9626 43.9529 73.078 43.4817 72.6057 43.1784C72.3702 43.6767 71.9058 43.6863 71.4382 43.7032C71.0258 43.7177 70.6091 43.7215 70.1945 43.7617C69.6295 43.8157 69.0699 43.8986 68.5864 44.2622C70.1036 43.8458 71.6192 43.9502 73.2478 44.4574ZM70.4302 39.1884C70.1277 38.7028 69.9076 38.3593 69.7016 38.0042C69.553 37.7449 69.3365 37.7035 69.0518 37.6942C68.0505 37.6727 67.1144 37.9361 66.1784 38.3233C66.867 38.4204 67.5577 38.5539 68.2473 38.6072C68.9553 38.6598 69.5599 39.1357 70.4302 39.1884ZM51.7891 62.2233C51.8705 61.4368 51.9228 60.6552 51.8083 59.8628C51.6565 60.6451 51.5858 61.4275 51.7891 62.2233ZM42.8803 44.0693C42.8572 44.7841 42.8342 45.4988 42.8111 46.2136C43.0821 45.5098 43.2275 44.8042 43.0395 44.0769C42.9843 44.0793 42.9323 44.0743 42.8803 44.0693ZM23.3603 30.5051C24.0928 30.1706 24.1317 30.1434 23.7889 29.4192C23.2845 28.3417 23.0723 27.2149 23.0678 26.0461C23.0629 25.4782 23.0472 24.9145 23.0055 24.3482C22.9397 23.5063 23.0948 22.7165 23.4285 21.9516C23.7039 21.3204 23.9598 20.6719 24.2504 20.0473C24.5269 19.4343 24.5923 18.8087 24.3622 18.1779C24.0018 17.1632 24.1026 16.2083 24.566 15.2702C24.714 14.9724 24.8317 14.6613 24.957 14.3535C25.2777 13.5565 25.4609 12.7436 25.29 11.8735C25.2052 11.4475 25.1636 11.0051 25.397 10.5942C25.464 10.482 25.4899 10.3607 25.3577 10.25C25.05 9.98316 24.4546 9.96206 24.1691 10.2441C23.783 10.6326 23.3015 10.7849 22.7787 10.8662C21.9702 10.9819 21.2404 10.8138 20.5483 10.3527C19.9059 9.92213 19.8962 9.94441 19.5136 10.5731C19.2856 10.9509 19.0186 11.294 18.6259 11.5116C18.2656 11.7169 17.8911 11.7479 17.5099 11.5462C17.1167 11.3305 16.9994 10.9788 17.0369 10.562C17.0583 10.3062 17.0873 10.0536 17.1011 9.79445C17.1139 9.64094 17.1148 9.47339 16.9124 9.4204C16.7738 9.38645 16.6558 9.44991 16.5617 9.54145C16.4925 9.61733 16.4233 9.69322 16.3812 9.78975C16.0398 10.4894 15.4275 10.8587 14.7122 11.0504C13.7934 11.2949 13.4 11.8657 13.4377 12.7927C13.4744 13.7633 13.0444 14.5834 12.4541 15.3159C11.9773 15.9123 11.6395 15.8798 11.2513 15.1977C11.0984 14.9277 10.9337 14.7056 10.5884 14.7936C10.1956 14.8874 10.1504 15.1771 10.2189 15.5163C10.3429 16.1008 10.1204 16.5695 9.73221 16.9835C9.5073 17.2301 9.2629 17.4594 9.06507 17.7266C8.76454 18.1259 8.82213 18.3455 9.28242 18.5728C9.72754 18.7936 10.1889 18.9772 10.6405 19.1831C10.948 19.3261 11.2426 19.4988 11.4865 19.7466C11.6869 19.949 11.8215 20.2818 11.5488 20.4103C11.0565 20.6286 10.9205 21.0024 10.7586 21.4356C10.6603 21.7022 10.3823 21.8637 10.1063 21.9378C9.83794 22.0151 9.55439 22.0859 9.26755 22.1022C8.77505 22.1348 8.28035 22.1311 7.78351 22.153C7.52589 22.1644 7.20756 22.0873 7.06384 22.334C6.8931 22.6219 7.16613 22.8648 7.31249 23.0878C7.63449 23.5907 8.0452 24.0351 8.44833 24.4762C8.62605 24.6686 8.80377 24.8611 8.94579 25.0733C9.11599 25.3244 9.13464 25.5712 8.7797 25.6815C8.33819 25.8248 8.54 26.2929 8.32053 26.5684C8.17999 26.7458 8.45944 26.9119 8.6014 27.0622C8.88531 27.3629 9.18004 27.6595 9.33741 28.064C9.61308 28.7765 9.28014 29.25 8.51694 29.1999C8.28744 29.1882 8.06332 29.1434 7.78075 29.1085C8.02487 29.6659 8.41058 30.0021 8.92167 30.1544C9.72945 30.3919 10.2517 30.8496 10.3802 31.6924C10.4325 32.0069 10.6318 32.1292 10.9413 32.061C11.2476 32.0001 11.5452 31.9179 11.8559 31.8677C13.0713 31.6467 13.6237 32.0557 13.677 33.2988C13.6903 33.6405 13.8365 33.7396 14.1213 33.8109C14.6984 33.9566 15.2799 34.113 15.8548 34.2844C16.3843 34.4358 16.8944 34.6318 17.4303 34.7684C18.0453 34.9307 18.2119 34.8178 18.3975 34.2269C18.6155 33.5 18.5509 32.8 18.0307 32.1929C17.7641 31.8733 17.4693 31.5767 17.1995 31.2645C16.7877 30.802 16.4938 30.276 16.5267 29.6627C16.5714 28.8159 16.3249 28.0365 16.0015 27.2679C15.6608 26.4562 15.3493 25.6397 14.9977 24.8322C14.758 24.2856 14.7054 23.7234 14.864 23.1738C15.3419 21.4995 16.4404 20.264 17.8499 19.2878C18.459 18.8641 18.9798 19.056 19.341 19.7174C19.7444 20.468 19.7549 21.2505 19.4775 22.031C19.2919 22.56 19.0651 23.0798 18.8339 23.5889C18.0832 25.206 18.3456 26.7349 19.3376 28.1842C19.6292 28.612 19.9706 29.0084 20.2871 29.4206C20.7477 30.0193 21.1803 30.6412 21.2223 31.517C22.0143 31.1288 22.6851 30.8116 23.3603 30.5051Z" fill="black"/>
<path d="M49.1138 23.8681C49.0404 24.0571 48.8152 24.056 48.6974 24.1814C48.5384 24.3596 48.1445 24.4971 48.6016 24.7938C48.6937 24.8516 48.6505 24.9919 48.5586 25.0579C48.2903 25.259 47.9776 25.3966 47.6486 25.4475C47.4257 25.4829 47.2566 25.3119 47.382 25.1279C47.7571 24.5579 48.1462 23.9763 48.8279 23.7168C48.9501 23.6641 49.0779 23.7022 49.1138 23.8681Z" fill="black"/>
<path d="M29.957 48.5607C29.9613 48.5714 29.9657 48.5822 29.97 48.5929C29.9657 48.5822 29.9505 48.5756 29.9462 48.5648C29.9418 48.5541 29.9418 48.5541 29.9375 48.5434C29.9418 48.5541 29.957 48.5607 29.957 48.5607Z" fill="#AFD16F"/>
</svg>
