<svg width="39" height="92" viewBox="0 0 39 92" fill="none" xmlns="http://www.w3.org/2000/svg">
<g clip-path="url(#clip0_222_170880)">
<path d="M11.666 2.44615C11.6819 4.22926 10.0111 5.6987 12.2217 10.6111C12.2971 10.7799 12.3768 10.9536 12.4633 11.1311C12.6343 11.4858 12.3703 11.8935 11.9778 11.8825C9.79334 11.8268 7.8016 11.9895 6.18424 12.2095C5.74424 12.2683 5.43397 11.7835 5.67483 11.4118C5.75031 11.2946 5.82086 11.1751 5.88762 11.0511C7.37754 8.29202 6.70351 3.98499 7.29485 2.14801C7.38171 1.87756 7.60664 1.67615 7.88315 1.60674C8.06218 1.56236 8.29318 1.51419 8.5659 1.47664C9.15686 1.39623 9.9352 1.37309 10.7674 1.56767L10.7693 1.56881C10.8683 1.59195 10.9696 1.6185 11.0701 1.64846C11.4225 1.75391 11.6626 2.08011 11.6656 2.44577L11.666 2.44615Z" fill="#77BD40"/>
<g style="mix-blend-mode:overlay">
<path d="M11.6659 2.44614C11.6818 4.22926 10.011 5.69869 12.2216 10.6111L11.5013 10.8087L11.444 10.4544C9.6453 4.33243 11.9375 2.45259 10.7696 1.56918C10.8686 1.59232 10.9698 1.61887 11.0704 1.64884C11.4227 1.75428 11.6628 2.08049 11.6659 2.44614Z" fill="#B2D499"/>
</g>
<g style="mix-blend-mode:multiply">
<path d="M8.56636 1.47739V1.4789C7.28582 3.01092 8.29326 8.35952 6.92586 10.6873L6.80372 11.1766L5.8877 11.0518C7.37761 8.29276 6.70358 3.98574 7.29492 2.14876C7.38178 1.87831 7.60671 1.6769 7.88323 1.60749C8.06226 1.56311 8.29326 1.51494 8.56598 1.47739H8.56636Z" fill="#CCCCCC"/>
</g>
<path d="M7.93174 1.59573C8.56063 1.44477 9.77214 1.26308 11.0705 1.64922C11.4221 1.7539 11.6626 2.07973 11.666 2.44652C11.6823 4.28995 9.89428 5.79997 12.4629 11.1315C12.6128 11.4421 12.4288 11.7934 12.1163 11.8681C12.0723 11.8787 12.026 11.8837 11.9774 11.8825C9.79376 11.8268 7.80088 11.9895 6.18352 12.2087C5.7439 12.2683 5.43363 11.7843 5.67449 11.4118C7.43978 8.68193 6.67624 4.06729 7.29413 2.14914C7.38137 1.8787 7.60668 1.67615 7.88243 1.60749C7.89837 1.6037 7.9143 1.59953 7.93099 1.59573M7.59985 0.215439L7.53954 0.230232C6.77789 0.419885 6.18087 0.97443 5.94266 1.71408C5.65818 2.5971 5.61304 3.72782 5.56108 5.0368C5.48674 6.90526 5.39418 9.23079 4.48195 10.6414C4.07268 11.2745 4.06965 12.0953 4.47399 12.7325C4.87947 13.3709 5.62518 13.7176 6.37393 13.616C8.25226 13.3611 10.1253 13.2556 11.9406 13.3019C12.1113 13.3064 12.282 13.2882 12.447 13.2488C13.0198 13.1115 13.4939 12.7261 13.7476 12.192C14.0006 11.6591 13.9984 11.048 13.7416 10.5155C12.0696 7.04561 12.4538 5.56214 12.7929 4.25353C12.9393 3.68799 13.0911 3.10348 13.085 2.43438C13.0763 1.43491 12.4292 0.572745 11.4748 0.288645C9.85103 -0.194592 8.35012 0.035268 7.59985 0.215439Z" fill="#18260D"/>
<path d="M36.633 90.3322C36.2677 90.617 35.7427 90.6918 35.2781 90.3682C31.6231 87.8155 28.8094 81.1139 26.7171 78.9223C13.1346 63.7227 3.83435 47.9955 2.17906 15.6949C2.09675 14.1045 3.21684 12.6999 4.7849 12.4261C5.89437 12.2315 7.29135 12.0422 8.87344 11.9428C10.1043 11.8651 11.4482 11.8435 12.8584 11.9167C13.1452 11.9311 13.4221 11.9842 13.6823 12.0707C14.9712 12.4898 15.8853 13.7074 15.8633 15.1256C15.7874 20.0915 17.1768 32.6374 27.3479 60.9477C29.524 67.0974 28.8363 71.5694 34.95 84.7484C35.5512 86.0437 36.218 87.424 36.9599 88.8973C37.2399 89.4564 37.0335 90.0196 36.6326 90.3322H36.633Z" fill="#619934"/>
<path d="M38.2283 88.2604C32.5687 77.0102 31.328 71.2903 30.3319 66.6938C29.879 64.6054 29.4512 62.6333 28.688 60.4747C18.5913 32.3715 17.2091 20.0137 17.2826 15.1476C17.3213 12.6681 15.41 10.6274 12.9324 10.4992C12.0649 10.4548 11.18 10.4423 10.2901 10.4632C9.79059 10.4734 9.28763 10.495 8.78542 10.5261C7.36151 10.6153 5.93342 10.7841 4.54061 11.0276C4.44692 11.0443 4.35209 11.064 4.2584 11.0864C2.11836 11.5996 0.648924 13.5685 0.761957 15.7678C1.17237 23.7704 2.03832 30.8315 3.41255 37.3564C4.70864 43.5144 6.42955 49.0508 8.67125 54.281C10.715 59.0508 13.182 63.5293 16.213 67.9732C18.8185 71.7921 21.8199 75.5715 25.6596 79.8683L25.674 79.8853L25.6911 79.9016C26.3701 80.6132 27.2451 82.0531 28.1729 83.5767C29.9378 86.4792 31.9371 89.7674 34.4656 91.5331C35.0789 91.9598 35.8061 92.1005 36.5158 91.9302C36.8704 91.8452 37.2133 91.6795 37.505 91.4534C37.879 91.1621 38.154 90.7942 38.3205 90.386C38.5928 89.7192 38.5765 88.9523 38.2283 88.2608V88.2604ZM36.6333 90.3322C36.5044 90.4331 36.3542 90.507 36.1945 90.5469L36.1918 90.5476L36.185 90.5491C35.8963 90.6182 35.5751 90.5742 35.2788 90.3678C31.6238 87.8151 28.8101 81.1135 26.7179 78.9219C13.1349 63.7227 3.83472 47.9955 2.17942 15.6949C2.10129 14.1705 3.12428 12.8187 4.58916 12.467C4.65402 12.4515 4.71926 12.4375 4.78526 12.4257C5.89473 12.2311 7.29172 12.0418 8.8738 11.9425C9.33087 11.9133 9.805 11.8928 10.2913 11.8814C11.1128 11.8624 11.9735 11.8704 12.8588 11.9167C14.5619 12.0047 15.8898 13.4202 15.8637 15.126C15.7878 20.0919 17.1772 32.6378 27.3483 60.9481C29.5244 67.0978 28.8367 71.5698 34.9504 84.7488C35.5516 86.0441 36.2184 87.4244 36.9603 88.8976C37.2402 89.4567 37.0339 90.02 36.633 90.3326L36.6333 90.3322Z" fill="#18260D"/>
<path d="M36.6331 90.3322C36.5014 90.4353 36.3486 90.5101 36.1843 90.5491C35.8957 90.6182 35.5744 90.5742 35.2782 90.3678C31.6232 87.8151 28.8095 81.1135 26.7172 78.9219C13.1347 63.7227 3.83444 47.9955 2.17915 15.6949C2.09949 14.1709 3.124 12.8187 4.58888 12.467C4.65374 12.4515 4.71898 12.4375 4.78498 12.4257C5.89445 12.2311 7.29144 12.0418 8.87352 11.9425C8.94332 45.1856 28.9343 77.4642 36.6331 90.3318V90.3322Z" fill="#51802B"/>
<path d="M37.8513 89.6035C37.6146 89.2076 37.3665 88.7941 37.1079 88.3613C36.4554 87.2727 35.7306 86.0654 34.9507 84.7488C26.1702 69.9156 10.355 41.1741 10.2924 11.9398L10.2916 11.8818L10.2901 10.4632C9.79059 10.4734 9.28763 10.495 8.78542 10.5261C7.36151 10.6153 5.93342 10.7841 4.54061 11.0276C4.44692 11.0443 4.35209 11.064 4.2584 11.0864C2.11836 11.5996 0.648924 13.5685 0.761957 15.7678C1.17237 23.7704 2.03832 30.8315 3.41255 37.3564C4.70864 43.5144 6.42955 49.0508 8.67125 54.281C10.715 59.0508 13.182 63.5293 16.213 67.9732C18.8185 71.7921 21.8199 75.5715 25.6596 79.8683L25.674 79.8853L25.6911 79.9016C26.3701 80.6132 27.2451 82.0531 28.1729 83.5767C29.9378 86.4792 31.9371 89.7674 34.4656 91.5331C35.0789 91.9598 35.8061 92.1005 36.5158 91.9302C36.8704 91.8452 37.2133 91.6795 37.505 91.4534C37.879 91.1621 38.154 90.7942 38.3205 90.386L37.8509 89.6039L37.8513 89.6035ZM36.1914 90.5476L36.1846 90.5491C35.896 90.6182 35.5747 90.5742 35.2785 90.3678C31.6235 87.8151 28.8098 81.1135 26.7175 78.9219C13.1349 63.7227 3.83472 47.9955 2.17942 15.6949C2.10129 14.1705 3.12428 12.8187 4.58916 12.467C4.65402 12.4515 4.71926 12.4375 4.78526 12.4257C5.89473 12.2311 7.29172 12.0418 8.8738 11.9425C8.94322 44.8807 28.5693 76.8733 36.4187 89.9734C36.5499 90.1915 36.4407 90.485 36.1941 90.5469L36.1914 90.5476Z" fill="#18260D"/>
<g style="mix-blend-mode:multiply">
<path d="M36.1843 90.5492C35.8957 90.6182 35.5744 90.5742 35.2782 90.3678C31.6232 87.8151 28.8095 81.1135 26.7172 78.9219C13.1347 63.7227 3.83444 47.9955 2.17915 15.6949C2.09949 14.1709 3.124 12.8187 4.58888 12.467C4.58888 12.467 -0.437689 46.2314 26.7499 77.2086C27.6279 78.2092 28.3797 79.3133 28.9961 80.4934C30.4458 83.268 33.4313 88.5305 36.1843 90.5495V90.5492Z" fill="#CCCCCC"/>
</g>
<g style="mix-blend-mode:overlay">
<path d="M34.9503 84.7488C29.7409 75.6185 28.3572 66.2303 27.2144 63.1086C12.1495 24.0404 16.0867 14.9174 13.6826 12.0707C14.9715 12.4898 15.8856 13.7074 15.8636 15.1256C15.7878 20.0915 17.1772 32.6374 27.3483 60.9477C29.5243 67.0974 28.8367 71.5694 34.9503 84.7484V84.7488Z" fill="#A1BF8A"/>
</g>
<g style="mix-blend-mode:multiply">
<path d="M8.11162 30.9715C8.91234 35.725 9.24765 39.6314 8.86075 39.6967C8.47348 39.7619 7.5108 35.9613 6.70971 31.2078C5.90899 26.4543 5.57369 22.5479 5.96058 22.4826C6.34785 22.4174 7.31053 26.218 8.11162 30.9715Z" fill="#CCCCCC"/>
</g>
<g style="mix-blend-mode:multiply">
<path d="M10.1289 43.7048C10.4934 45.2236 10.669 46.4836 10.5211 46.5193C10.3736 46.5545 9.95821 45.3521 9.59408 43.833C9.22957 42.3143 9.05395 41.0542 9.20188 41.0186C9.34943 40.9833 9.76477 42.1857 10.1289 43.7048Z" fill="#CCCCCC"/>
</g>
<g style="mix-blend-mode:multiply">
<path d="M12.0037 50.7368C12.3276 51.7218 12.5123 52.5461 12.4168 52.5775C12.3212 52.609 11.9809 51.836 11.657 50.8509C11.3331 49.8659 11.1484 49.0417 11.2439 49.0102C11.3399 48.9787 11.6798 49.7517 12.0037 50.7368Z" fill="#CCCCCC"/>
</g>
<path d="M27.5994 2.44613C27.5835 4.22925 29.2543 5.69868 27.0437 10.6111C26.9682 10.7799 26.8886 10.9536 26.8021 11.1311C26.631 11.4858 26.895 11.8935 27.2876 11.8825C29.4716 11.8268 31.4638 11.9895 33.0811 12.2095C33.5211 12.2683 33.8314 11.7835 33.5905 11.4118C33.515 11.2946 33.4445 11.1751 33.3777 11.0511C31.8878 8.292 32.5618 3.98498 31.9705 2.148C31.8836 1.87755 31.6587 1.67614 31.3822 1.60672C31.2032 1.56235 30.9722 1.51417 30.6995 1.47662C30.1085 1.39621 29.3302 1.37307 28.498 1.56766L28.4961 1.56879C28.3971 1.59193 28.2958 1.61848 28.1953 1.64845C27.8429 1.7539 27.6028 2.0801 27.5998 2.44575L27.5994 2.44613Z" fill="#77BD40"/>
<g style="mix-blend-mode:overlay">
<path d="M27.5996 2.44614C27.5837 4.22926 29.2545 5.69869 27.0439 10.6111L27.7643 10.8087L27.8215 10.4544C29.6202 4.33243 27.328 2.45259 28.4959 1.56918C28.3969 1.59232 28.2957 1.61887 28.1951 1.64884C27.8428 1.75428 27.6027 2.08049 27.5996 2.44614Z" fill="#B2D499"/>
</g>
<g style="mix-blend-mode:multiply">
<path d="M30.6992 1.47739V1.4789C31.9798 3.01092 30.9723 8.35952 32.3397 10.6873L32.4619 11.1766L33.3779 11.0518C31.888 8.29276 32.562 3.98574 31.9707 2.14876C31.8838 1.87831 31.6589 1.6769 31.3823 1.60749C31.2033 1.56311 30.9723 1.51494 30.6996 1.47739H30.6992Z" fill="#CCCCCC"/>
</g>
<path d="M31.3336 1.59573C31.3502 1.59952 31.3666 1.60369 31.3821 1.60749C31.6579 1.67614 31.8832 1.87869 31.9704 2.14914C32.5887 4.06767 31.8251 8.68193 33.59 11.4118C33.8309 11.7843 33.5206 12.2683 33.081 12.2087C31.4637 11.9895 29.4708 11.8264 27.2871 11.8825C27.2386 11.8837 27.1923 11.8787 27.1483 11.8681C26.8357 11.793 26.6518 11.4418 26.8016 11.1315C29.3703 5.79996 27.5822 4.28994 27.5985 2.44651C27.6019 2.07972 27.8424 1.75352 28.194 1.64921C29.4928 1.2627 30.7043 1.44476 31.3328 1.59573M31.6639 0.215432C30.9137 0.035641 29.4127 -0.194219 27.7889 0.288638C26.8346 0.572739 26.1875 1.4349 26.1788 2.43437C26.1727 3.10309 26.3244 3.68798 26.4708 4.25353C26.8099 5.56213 27.1942 7.0456 25.5222 10.5155C25.2654 11.0484 25.2635 11.6595 25.5161 12.192C25.7695 12.7261 26.2436 13.1115 26.8168 13.2488C26.9818 13.2882 27.1521 13.3061 27.3231 13.3019C29.1385 13.2552 31.0115 13.3611 32.8898 13.6159C33.6386 13.7176 34.3843 13.3705 34.7898 12.7325C35.1945 12.0953 35.1915 11.2745 34.7818 10.6414C33.8696 9.23079 33.777 6.90564 33.7027 5.0368C33.6507 3.72743 33.6056 2.59672 33.3211 1.71407C33.0829 0.974424 32.4859 0.419878 31.7242 0.230225L31.6639 0.215432Z" fill="#18260D"/>
<path d="M2.63165 90.3322C2.99693 90.617 3.52189 90.6918 3.98654 90.3682C7.64153 87.8155 10.4552 81.1139 12.5475 78.9223C26.1301 63.7231 35.4303 47.9955 37.0856 15.6949C37.1679 14.1045 36.0478 12.6999 34.4797 12.4261C33.3703 12.2315 31.9733 12.0422 30.3912 11.9428C29.1603 11.8651 27.8165 11.8435 26.4062 11.9167C26.1194 11.9311 25.8425 11.9842 25.5823 12.0707C24.2935 12.4898 23.3793 13.7074 23.4013 15.1256C23.4772 20.0915 22.0878 32.6374 11.9167 60.9477C9.74061 67.0974 10.4283 71.5694 4.31464 84.7484C3.71344 86.0437 3.04661 87.424 2.30469 88.8973C2.02476 89.4564 2.23111 90.0196 2.63203 90.3322H2.63165Z" fill="#619934"/>
<path d="M0.944606 90.3856C1.11112 90.7934 1.38612 91.1617 1.76012 91.453C2.0518 91.6791 2.39469 91.8448 2.74935 91.9298C3.45903 92.1001 4.18616 91.959 4.7995 91.5327C7.32833 89.767 9.32728 86.4784 11.0926 83.5763C12.02 82.0527 12.8954 80.6132 13.5744 79.9012L13.5914 79.8849L13.6059 79.8679C17.4456 75.5711 20.447 71.7921 23.0525 67.9728C26.0835 63.5289 28.5509 59.0504 30.5942 54.2806C32.8359 49.0504 34.5568 43.514 35.8529 37.356C37.2268 30.8311 38.0931 23.77 38.5035 15.7674C38.6166 13.5681 37.1471 11.5995 35.0075 11.086C34.9138 11.0636 34.8189 11.0439 34.7253 11.0272C33.3324 10.7837 31.9043 10.6149 30.4804 10.5257C29.9786 10.4943 29.4756 10.473 28.9757 10.4628C28.0859 10.4419 27.2009 10.4544 26.3335 10.4988C23.8558 10.627 21.9441 12.6681 21.9832 15.1472C22.0568 20.0133 20.6746 32.3711 10.5779 60.4743C9.81469 62.6329 9.38683 64.605 8.93394 66.6934C7.93788 71.2899 6.69717 77.0098 1.03754 88.26C0.688954 88.9515 0.673023 89.7184 0.945365 90.3853L0.944606 90.3856ZM2.3048 88.8972C3.04672 87.424 3.71354 86.0437 4.31474 84.7484C10.4284 71.569 9.74072 67.0974 11.9168 60.9477C22.0883 32.6374 23.4773 20.0915 23.4014 15.1256C23.3756 13.4198 24.7036 12.0043 26.4063 11.9163C27.292 11.8704 28.1522 11.862 28.9738 11.881C29.4601 11.8924 29.9342 11.9129 30.3913 11.9421C31.9734 12.0414 33.3704 12.2303 34.4798 12.4253C34.5458 12.4367 34.6111 12.4511 34.6759 12.4666C36.1404 12.8179 37.1638 14.1701 37.0857 15.6945C35.4304 47.9951 26.1302 63.7227 12.5476 78.9219C10.4553 81.1135 7.64164 87.8155 3.98664 90.3678C3.6904 90.5742 3.36875 90.6182 3.08048 90.5491L3.07365 90.5476L3.071 90.5468C2.91131 90.507 2.7611 90.4331 2.63214 90.3322C2.23121 90.02 2.02449 89.4563 2.3048 88.8972Z" fill="#18260D"/>
<path d="M2.63184 90.3322C2.76346 90.4353 2.91632 90.5101 3.08056 90.5491C3.36921 90.6182 3.69048 90.5742 3.98672 90.3678C7.64171 87.8151 10.4554 81.1135 12.5477 78.9219C26.1302 63.7227 35.4305 47.9951 37.0857 15.6945C37.1654 14.1705 36.1409 12.8183 34.676 12.4666C34.6112 12.4511 34.5459 12.4371 34.4799 12.4253C33.3704 12.2307 31.9735 12.0414 30.3914 11.9421C30.3216 45.1852 10.3306 77.4638 2.63184 90.3314V90.3322Z" fill="#51802B"/>
<path d="M0.944336 90.3857C1.11085 90.7934 1.38585 91.1617 1.75984 91.453C2.05153 91.6791 2.39442 91.8448 2.74908 91.9298C3.45876 92.1001 4.18589 91.959 4.79923 91.5327C7.32806 89.767 9.32701 86.4784 11.0923 83.5763C12.0197 82.0527 12.8951 80.6132 13.5741 79.9013L13.5912 79.8849L13.6056 79.8679C17.4453 75.5711 20.4468 71.7921 23.0522 67.9728C26.0832 63.5289 28.5506 59.0504 30.594 54.2806C32.8357 49.0504 34.5566 43.514 35.8527 37.356C37.2265 30.8311 38.0928 23.77 38.5033 15.7674C38.6163 13.5682 37.1469 11.5995 35.0072 11.086C34.9135 11.0636 34.8187 11.0439 34.725 11.0272C33.3322 10.7837 31.9041 10.6149 30.4802 10.5257C29.9783 10.4943 29.4754 10.473 28.9755 10.4628L28.9739 11.8814L28.9732 11.9394C28.9106 41.1737 13.0954 69.9156 4.31447 84.7484C3.53424 86.065 2.80976 87.2723 2.15736 88.3609C1.89867 88.7937 1.6506 89.2072 1.41392 89.6031L0.944336 90.3853V90.3857ZM3.07073 90.5469C2.82418 90.4846 2.71494 90.1915 2.84618 89.9734C10.6955 76.8732 30.3216 44.8806 30.391 11.9424C31.9731 12.0418 33.3701 12.2307 34.4796 12.4257C34.5456 12.4371 34.6108 12.4515 34.6757 12.467C36.1402 12.8183 37.1635 14.1705 37.0854 15.6949C35.4301 47.9955 26.1299 63.7231 12.5473 78.9223C10.4551 81.1139 7.64137 87.8158 3.98637 90.3682C3.69013 90.5745 3.36848 90.6185 3.08021 90.5495L3.07338 90.548L3.07073 90.5472V90.5469Z" fill="#18260D"/>
<g style="mix-blend-mode:multiply">
<path d="M3.08008 90.5491C3.36873 90.6182 3.69 90.5742 3.98624 90.3678C7.64124 87.8151 10.4549 81.1135 12.5472 78.9219C26.1298 63.7227 35.43 47.9951 37.0853 15.6945C37.1649 14.1705 36.1404 12.8183 34.6755 12.4666C34.6755 12.4666 39.7021 46.231 12.5146 77.2082C11.6365 78.2088 10.8847 79.313 10.2683 80.493C8.8186 83.2676 5.83308 88.5301 3.08008 90.5491Z" fill="#CCCCCC"/>
</g>
<g style="mix-blend-mode:overlay">
<path d="M4.31445 84.7488C9.52385 75.6185 10.9076 66.2303 12.0504 63.1086C27.1153 24.0404 23.1781 14.9173 25.5822 12.0706C24.2933 12.4898 23.3791 13.7074 23.4011 15.1256C23.477 20.0915 22.0876 32.6374 11.9165 60.9477C9.74043 67.0974 10.4281 71.5694 4.31445 84.7484V84.7488Z" fill="#A1BF8A"/>
</g>
<g style="mix-blend-mode:multiply">
<path d="M31.1531 30.9715C30.3524 35.725 30.017 39.6314 30.4039 39.6967C30.7912 39.7619 31.7539 35.9613 32.555 31.2078C33.3557 26.4543 33.691 22.5478 33.3041 22.4826C32.9168 22.4174 31.9542 26.218 31.1531 30.9715Z" fill="#CCCCCC"/>
</g>
<g style="mix-blend-mode:multiply">
<path d="M29.1361 43.7048C28.7716 45.2236 28.5959 46.4836 28.7439 46.5193C28.8914 46.5545 29.3068 45.3521 29.6709 43.833C30.0354 42.3143 30.211 41.0542 30.0631 41.0186C29.9155 40.9833 29.5002 42.1857 29.1361 43.7048Z" fill="#CCCCCC"/>
</g>
<g style="mix-blend-mode:multiply">
<path d="M27.2615 50.7368C26.9376 51.7218 26.7529 52.5461 26.8484 52.5775C26.9444 52.609 27.2843 51.836 27.6082 50.8509C27.9321 49.8659 28.1168 49.0416 28.0213 49.0102C27.9253 48.9787 27.5854 49.7517 27.2615 50.7368Z" fill="#CCCCCC"/>
</g>
</g>
<defs>
<clipPath id="clip0_222_170880">
<rect width="37.7531" height="92" fill="white" transform="translate(0.755859)"/>
</clipPath>
</defs>
</svg>
