<svg width="66" height="52" viewBox="0 0 66 52" fill="none" xmlns="http://www.w3.org/2000/svg">
<path d="M21.901 16.9533C22.3719 18.4196 23.112 19.797 22.4616 21.3965C22.2934 21.8186 22.2037 22.2296 21.7328 22.4851C21.4188 22.6517 21.2394 23.0516 20.8917 23.4737C20.8469 23.1738 20.8245 23.0294 20.802 22.8961C20.7572 22.6739 20.6563 22.4962 20.3984 22.4962C20.1965 22.4962 20.0844 22.6406 20.0059 22.7961C19.8041 23.2182 19.6919 23.6959 19.3331 24.0069C19.1313 23.9291 19.1424 23.8181 19.12 23.7292C19.0191 23.3293 19.3667 22.6406 18.7164 22.6073C18.1445 22.5851 18.3239 23.3071 18.1669 23.6959C18.0323 24.0513 18.0099 24.4512 17.7408 24.7733C17.4492 24.6623 17.4941 24.3957 17.438 24.1735C17.1128 22.7517 16.9446 21.2854 16.3279 19.9303C16.1373 19.5082 16.5297 19.386 16.7764 19.2305C17.0455 19.0527 17.2362 19.2083 17.3483 19.4637C17.3595 19.4971 17.3707 19.5304 17.3932 19.5637C17.5614 19.9081 17.6399 20.3635 18.122 20.3635C18.6042 20.3635 18.6939 19.9081 18.8173 19.5526C18.907 19.2749 19.0415 19.1527 19.3555 19.2083C19.7256 19.286 19.9386 19.0305 20.118 18.7528C20.8021 17.642 20.8245 17.6198 21.901 16.9533Z" fill="#F7D59E"/>
<path d="M50.9354 34.5839C51.4492 35.258 51.304 35.7861 50.5334 36.0558C49.8409 36.303 49.115 36.494 48.3667 36.4041C48.0093 36.3591 47.7301 36.2917 47.7748 35.7524C47.8194 35.1681 47.194 34.9209 46.8366 34.5726C46.468 34.2131 46.2112 33.9996 46.6021 33.4828C46.9036 33.0895 46.8031 32.685 46.3899 32.3816C46.2782 32.303 46.133 32.1906 46.1218 32.0783C46.0213 31.0895 45.3289 30.5502 44.4912 29.9322C45.7756 29.0895 47.0153 28.6738 48.3779 28.7749C48.4784 28.9772 48.4114 29.0558 48.3444 29.1345C48.1321 29.3592 47.7971 29.5502 47.9535 29.921C48.0986 30.2693 48.4672 30.2356 48.7799 30.2693C48.9586 30.2918 49.1261 30.3142 49.2937 30.3704C49.6511 30.4715 49.7293 30.6738 49.5059 30.9996C49.2155 31.4266 48.7017 31.7749 48.7576 32.3592C48.8134 32.9884 49.5059 33.0446 49.8521 33.4266C50.2095 33.8086 50.6116 34.1681 50.9354 34.5839Z" fill="#F7D59E"/>
<path d="M62.0359 33.6457C62.4609 37.1723 61.2977 40.2637 59.6871 43.3327C58.5798 45.4308 56.9245 46.837 55.0231 48.0981C53.6362 49.0243 52.0256 49.3145 50.4598 49.6605C49.3301 49.9172 48.1558 50.0288 47.0261 50.3189C45.1918 50.7765 43.3687 50.3747 41.5456 50.2743C39.6443 50.1627 38.0113 49.3926 36.4678 48.3324C35.2152 47.4731 34.0072 46.558 32.8552 45.5759C31.7703 44.6496 30.7972 43.6563 30.2268 42.3171C30.0031 41.7814 29.69 41.3462 28.9741 41.19C28.18 41.0114 27.4418 40.5538 26.6701 40.219C26.8826 39.8284 27.2517 39.7168 27.4977 39.4602C28.0793 38.8352 28.057 38.2772 27.3971 37.7638C27.2629 37.6522 27.1063 37.5629 26.9497 37.4848C26.6813 37.3397 26.5918 37.1723 26.8155 36.9045C27.0728 36.5808 27.0504 36.2907 26.7372 35.9782C26.2898 35.5541 26.2674 34.8957 26.7707 34.6167C28.2695 33.7908 28.5379 32.4404 28.5379 30.9338C28.5379 30.5432 28.5491 30.108 28.8064 29.8178C29.4103 29.1259 29.6005 28.2554 29.936 27.4519C30.9202 25.0971 32.3966 23.0883 34.3204 21.4366C35.148 20.7223 36.1099 20.1755 37.0047 19.5505C37.1724 19.4278 37.4409 19.3273 37.4856 19.1599C37.7429 18.2336 38.5705 17.9993 39.2752 17.6645C42.0154 16.3364 44.8898 15.8119 47.9097 16.4703C48.6702 16.6377 49.4308 16.8163 50.1914 16.939C51.6677 17.1734 52.9204 17.8542 54.0389 18.8251C55.4705 20.075 56.9245 21.3138 58.3673 22.5526C59.6312 23.6463 60.47 25.019 60.9845 26.5814C61.5661 28.3335 61.8905 30.1303 61.9688 31.9717C61.9688 32.5297 61.9688 33.0877 62.0359 33.6457ZM50.8736 36.7706C52.2158 36.313 52.5401 35.2416 51.6565 34.1479C51.198 33.5788 50.7059 33.0096 50.0795 32.5967C49.744 32.3846 49.688 32.1838 49.9229 31.8266C50.8848 30.3981 50.8513 30.32 49.442 29.55C49.4756 29.3491 49.6657 29.3044 49.7775 29.1705C50.1802 28.7241 50.0907 28.4228 49.4979 28.3112C47.4959 27.9206 45.6728 28.2777 44.0734 29.5946C43.7267 29.8848 43.7378 30.1526 44.1181 30.4651C44.3865 30.6883 44.7109 30.8445 44.9793 31.0789C45.6057 31.6034 45.5945 31.782 44.9346 32.273C44.778 32.3846 44.655 32.5186 44.7109 32.7083C44.7668 32.8868 44.9458 32.9538 45.1247 32.9873C45.4267 33.0431 45.7623 32.8868 45.9971 33.11C46.0754 33.2663 46.0083 33.3556 45.9412 33.4337C45.2366 34.3153 45.2366 34.3265 46.232 34.8957C46.6794 35.1523 47.1044 35.5206 47.1827 35.967C47.261 36.38 47.3057 36.6924 47.686 36.9045C48.0327 37.0942 48.413 37.1946 48.8045 37.1835C49.5203 37.1612 50.2025 37.0049 50.8736 36.7706Z" fill="#E2A441"/>
<path d="M19.4763 42.3263C19.5657 42.3709 19.6774 42.382 19.6997 42.6049C17.0744 42.7386 14.505 42.8946 11.9914 42.0923C11.6227 41.9697 11.2317 41.9252 10.8519 41.8695C9.74592 41.7135 8.74048 41.29 7.8691 40.6103C6.89718 39.8526 5.89174 39.106 5.0427 38.2257C1.42312 34.5039 0.428847 29.9799 1.17734 24.9767C1.27788 24.3192 1.54601 23.6841 1.82529 23.0824C3.22174 20.0403 4.62936 17.0094 6.36095 14.1457C7.73505 11.8614 8.2601 9.39876 8.00316 6.76901C7.96964 6.36786 7.91378 6.01129 8.47236 5.911C9.07562 5.79957 9.07561 5.29813 9.01975 4.83012C8.98623 4.58498 8.88569 4.36213 8.85218 4.11698C8.81866 3.89412 8.58408 3.6824 8.84102 3.38154C9.06445 3.64897 9.26553 3.92755 9.50013 4.1727C10.0475 4.72985 10.405 4.65185 10.7625 3.94984C10.8072 3.8607 10.8519 3.77154 10.9078 3.66011C11.2988 3.66011 11.5669 4.11698 11.9914 3.94984C12.4494 3.76041 12.3377 3.30354 12.5276 2.84668C13.4884 3.67126 14.4379 4.44012 15.3317 5.27584C16.3706 6.24529 17.566 7.00302 18.7278 7.79417C19.3758 8.23989 20.1578 8.38474 20.951 8.34017C21.8894 8.28445 22.7719 8.50732 23.6321 8.83046C24.5258 9.16475 25.4196 9.4879 26.3133 9.82219C27.207 10.1565 28.0449 10.6022 28.771 11.2485C28.9833 11.4379 29.1955 11.6274 29.4413 11.7722C31.3405 12.8197 32.6699 14.4688 34.0998 16.0288C34.6026 16.5748 35.0159 17.1877 35.3399 17.8563C35.8091 18.8369 35.6527 19.5166 34.7478 20.1517C32.6029 21.6672 30.9942 23.6507 29.81 25.9795C29.2179 27.1384 28.771 28.3641 28.0561 29.4673C27.8215 29.835 27.8103 30.2696 27.7768 30.693C27.7433 31.1165 27.6762 31.5287 27.6651 31.9522C27.6315 32.799 27.2182 33.3785 26.5144 33.8465C25.2967 34.6376 25.2296 34.9385 25.7212 36.4094C25.8106 36.6545 25.643 36.688 25.5201 36.7994C24.9615 37.3342 24.9839 37.468 25.6877 37.8023C26.034 37.9694 26.3915 38.1143 26.7378 38.3037C27.1512 38.5154 27.0953 38.7828 26.7713 39.028C26.492 39.2397 26.2128 39.4514 25.8553 39.5071C25.7324 39.3846 25.8441 39.3177 25.8999 39.2286C26.0452 38.9946 26.5702 38.8831 26.2686 38.4931C26.0564 38.2146 25.6765 38.4597 25.5089 38.5934C24.7828 39.1728 23.6545 39.0057 23.1071 39.8971C23.0847 39.9306 22.9842 39.8971 22.9172 39.9194C22.191 40.1534 22.1128 40.276 22.2469 41.0672C22.3139 41.4794 22.124 41.6466 21.8112 41.4349C20.9286 40.8554 20.1019 41.5352 19.2529 41.524C18.9401 41.5129 18.8619 41.9252 19.1188 42.1592C19.2082 42.226 19.3534 42.2706 19.4763 42.3263ZM23.0065 22.2689C23.9338 20.1963 23.1741 18.2797 22.4368 16.3743C22.258 15.9063 21.9117 15.884 21.5095 16.2294C21.3308 16.3854 21.2526 16.7197 20.9733 16.6974C20.1913 16.6306 20.0684 17.1989 19.8673 17.7226C19.8003 17.9009 19.8114 18.1572 19.521 18.2352C19.4651 18.1683 19.3981 18.1014 19.3534 18.0234C19.2305 17.8117 19.1188 17.5443 18.8172 17.6223C18.5267 17.7003 18.5267 17.9789 18.4821 18.224C18.415 18.5917 18.4039 18.9706 18.2251 19.2937C17.9458 19.2937 17.9011 19.0932 17.8006 18.9594C17.4543 18.5026 17.0297 18.5137 16.5941 18.8034C16.3595 18.9483 16.136 19.1377 15.9349 19.3272C15.6557 19.5946 15.5216 19.8843 15.8009 20.252C16.1807 20.7758 16.3148 21.3998 16.4488 22.0126C16.7281 23.3498 16.9962 24.6981 17.2755 26.0353C17.3202 26.2804 17.3537 26.5701 17.6442 26.6147C18.0129 26.6815 18.091 26.3473 18.1916 26.091C18.2251 25.9907 18.2698 25.8904 18.3033 25.8013C18.4485 25.3555 18.5602 24.9098 19.2194 25.1327C19.3423 25.1772 19.5769 25.0435 19.6774 24.9321C20.0014 24.5532 20.3142 24.3081 20.8169 24.6424C20.8951 24.6869 21.1297 24.609 21.1967 24.5198C21.7441 23.8067 22.258 23.0601 22.9618 22.4695C22.9842 22.4249 22.973 22.3358 23.0065 22.2689Z" fill="#E2A441"/>
<path d="M64.8773 30.3505C65.1899 30.6072 65.0225 30.9197 64.576 30.9756C64.1853 31.0202 63.7946 31.0202 63.4374 30.8416C63.1807 30.7077 62.9239 30.6072 62.4998 30.73C62.6337 31.9131 62.656 33.1409 62.7453 34.3575C62.9797 37.6167 61.8635 40.4852 60.4905 43.3538C59.3966 45.6531 57.5102 47.0036 55.5568 48.3765C53.7262 49.6712 51.6946 50.3744 49.4844 50.6199C48.9598 50.6758 48.4352 50.7762 47.9329 50.9102C45.12 51.658 42.3294 51.1892 39.55 50.6758C38.3667 50.4525 37.3398 49.7717 36.3464 49.102C34.8618 48.0863 33.4553 46.9701 32.1047 45.7758C31.1224 44.9052 30.3075 43.8895 29.582 42.8068C29.448 42.5948 29.3252 42.3715 29.0908 42.2711C28.7336 42.1148 28.7336 42.5055 28.5662 42.6394C28.4099 42.7733 28.2425 42.7399 28.0862 42.6506C27.4835 42.3046 27.0928 42.6394 26.7356 43.0636C26.5793 43.2533 26.4342 43.4542 26.2779 43.644C26.077 43.8895 25.9207 44.1797 25.6305 44.3248C25.2956 44.5034 25.1394 44.1127 24.8938 44.0569C24.4696 43.9676 24.0231 44.0569 23.6548 44.2355C22.8288 44.6373 21.9469 44.615 21.0763 44.7155C20.8307 44.7378 20.5516 44.7713 20.3842 44.5481C20.2056 44.3025 19.8261 44.1239 19.9824 43.7556C20.1275 43.4207 20.4623 43.5658 20.7302 43.5547C21.0763 43.5435 21.4111 43.7333 21.7795 43.5993C21.746 43.2533 21.467 43.3538 21.3107 43.3649C19.7926 43.4096 18.2745 43.298 16.7676 43.4542C16.1314 43.5212 15.5063 43.51 14.87 43.4319C13.1175 43.2198 11.4097 42.7622 9.69066 42.4162C8.96511 42.2711 8.27305 41.9362 7.69261 41.4898C6.35312 40.4629 5.00247 39.436 3.83042 38.2083C1.68725 35.9425 0.738472 33.1297 0.225004 30.1273C-0.310789 27.0244 0.247307 24.1558 1.65376 21.332C3.04906 18.5192 4.45553 15.7288 5.99593 12.9831C7.07868 11.041 7.33542 8.92027 7.16798 6.74376C7.14566 6.53169 7.101 6.33079 7.07868 6.11872C6.97822 5.10301 7.06751 4.99139 8.10561 4.91326C8.15026 4.36635 7.86005 3.89756 7.7261 3.40645C7.62564 3.01579 7.53633 2.6363 8.0498 2.44656C8.40699 2.32378 8.27304 1.96661 8.35118 1.72105C8.40699 1.54247 8.51863 1.40854 8.73071 1.40854C8.93163 1.40854 9.07674 1.53131 9.12139 1.69874C9.28883 2.22333 9.37812 2.78141 9.83577 3.20555C10.0367 2.84838 9.85811 2.52469 9.90276 2.22332C9.96973 1.7657 10.2711 1.64292 10.6506 1.93313C10.885 2.12287 10.9632 2.4912 11.4208 2.56933C11.3092 2.16751 11.1976 1.79919 11.1083 1.43085C11.0525 1.20762 11.1306 1.00671 11.3427 0.895093C11.5213 0.8058 11.6887 0.872778 11.8339 0.973232C11.9455 1.05136 12.0571 1.15182 12.1575 1.25227C13.1622 2.34611 14.3342 3.26136 15.4058 4.2659C16.4216 5.21463 17.5601 5.96245 18.654 6.79957C19.2345 7.24604 19.8931 7.48043 20.6186 7.45811C21.9916 7.41346 23.2641 7.77064 24.5143 8.28407C25.1617 8.55195 25.8314 8.77518 26.5012 9.02073C27.5058 9.38906 28.4211 9.89133 29.2248 10.6057C29.4369 10.7954 29.6489 10.9852 29.8945 11.1191C31.9261 12.2353 33.3102 14.0323 34.8171 15.7065C35.3864 16.3427 35.8106 17.0682 36.1454 17.8607C36.324 18.2737 36.5584 18.3853 36.9603 18.1397C37.4068 17.8607 37.8756 17.604 38.3444 17.3584C41.4253 15.6954 44.6623 15.0257 48.1338 15.8181C48.8259 15.9744 49.5068 16.1195 50.21 16.2311C51.8397 16.4767 53.2015 17.2357 54.4182 18.296C55.8358 19.5126 57.2535 20.7292 58.6822 21.9347C59.2738 22.4369 59.8096 23.0062 60.245 23.6536C60.3231 23.7652 60.3901 23.8991 60.4794 23.9996C60.9259 24.5353 61.3054 24.513 61.6403 23.8991C61.7631 23.6759 61.8412 23.4192 62.1426 23.4303C62.3993 23.4415 62.4774 23.6536 62.4886 23.8768C62.4997 24.1223 62.6337 24.1558 62.8346 24.0554C63.2811 23.8433 63.5713 24.3456 64.0067 24.3233C64.2299 24.3121 64.2299 24.6581 64.1183 24.8479C63.8951 25.2162 63.8392 25.6068 63.7499 26.0198C63.5937 26.7118 63.9286 27.1471 64.2969 27.549C64.5648 27.8503 64.6876 28.0624 64.3527 28.3191C64.0848 28.5312 64.1406 28.7432 64.2522 28.9665C64.4978 29.4129 64.4197 29.971 64.8773 30.3505ZM62.5221 29.2567C62.6225 29.2232 62.656 29.1339 62.656 29.0223C62.6337 28.9218 62.5891 28.8214 62.4551 28.866C62.3547 28.8995 62.3212 28.9888 62.3323 29.1004C62.3435 29.2009 62.3993 29.2902 62.5221 29.2567ZM59.5529 43.3426C61.1715 40.2843 62.3212 37.1814 61.897 33.6543C61.83 33.0963 61.83 32.527 61.8077 31.9689C61.7296 30.1273 61.4058 28.3303 60.8254 26.5779C60.3119 25.0153 59.4748 23.6424 58.2134 22.5486C56.7735 21.3096 55.3224 20.0707 53.8936 18.8206C52.7773 17.8495 51.5383 17.1687 50.0537 16.9343C49.2835 16.8115 48.5357 16.6329 47.7766 16.4655C44.7516 15.7958 41.894 16.3316 39.1593 17.6598C38.4672 17.9946 37.63 18.229 37.3733 19.1555C37.3286 19.3117 37.0608 19.4233 36.8933 19.5461C36.0003 20.1712 35.0404 20.7181 34.2144 21.4324C32.2944 23.0955 30.821 25.0934 29.8387 27.4485C29.5038 28.2521 29.3141 29.1227 28.7113 29.8148C28.4546 30.105 28.4434 30.5403 28.4434 30.9309C28.4322 32.4377 28.1755 33.7994 26.6798 34.6142C26.1775 34.8933 26.1998 35.5518 26.6463 35.976C26.97 36.2885 26.9923 36.5675 26.7244 36.9024C26.5123 37.1702 26.5905 37.3377 26.8584 37.4828C27.0146 37.5721 27.1709 37.6614 27.3049 37.7618C27.9634 38.2752 27.9969 38.8333 27.4053 39.4584C27.1598 39.7151 26.8026 39.8155 26.5793 40.2174C27.3495 40.5522 28.0862 41.021 28.8788 41.1884C29.5932 41.3447 29.9057 41.78 30.1289 42.3157C30.6982 43.6663 31.6693 44.6597 32.7521 45.5749C33.9018 46.5571 35.1074 47.4724 36.3575 48.3318C37.8979 49.381 39.5276 50.1623 41.4252 50.2739C43.2447 50.3856 45.0642 50.7874 46.8948 50.3186C48.0222 50.0395 49.1831 49.9168 50.3216 49.6601C51.8844 49.3141 53.4917 49.0239 54.8759 48.0974C56.7958 46.8473 58.4478 45.441 59.5529 43.3426ZM34.6609 20.1265C35.565 19.4903 35.7213 18.8094 35.2524 17.8272C34.9287 17.1575 34.5046 16.5436 34.0134 15.9967C32.5847 14.4341 31.2563 12.7822 29.3587 11.733C29.1132 11.5991 28.9011 11.3981 28.689 11.2084C27.9746 10.561 27.1374 10.1146 26.2333 9.77972C25.3403 9.44488 24.4473 9.12119 23.5543 8.78634C22.6837 8.46265 21.813 8.23942 20.8754 8.29523C20.0828 8.33987 19.3015 8.19477 18.654 7.74831C17.4931 6.95583 16.2988 6.19685 15.2607 5.22579C14.3677 4.38867 13.4189 3.61852 12.4589 2.79256C12.2692 3.25019 12.3808 3.70781 11.9231 3.89756C11.499 4.06499 11.2311 3.61852 10.8404 3.60736C10.7846 3.71898 10.7399 3.80827 10.6953 3.89756C10.3381 4.60074 9.9809 4.67887 9.43395 4.12079C9.19954 3.87524 8.9986 3.5962 8.77535 3.32832C8.51862 3.62969 8.75304 3.84175 8.78652 4.06499C8.82001 4.31054 8.92047 4.53377 8.95396 4.77933C9.02093 5.25928 9.00975 5.76154 8.40699 5.862C7.83771 5.96245 7.89352 6.31963 7.93817 6.72145C8.19491 9.36674 7.67028 11.8223 6.29731 14.1104C4.56715 16.9901 3.16068 20.0261 1.76539 23.062C1.48633 23.6759 1.21845 24.3009 1.11799 24.9595C0.370114 29.971 1.35239 34.5026 4.98015 38.2306C5.82849 39.1124 6.83311 39.8602 7.80423 40.6192C8.67489 41.3 9.6795 41.7242 10.7846 41.8804C11.1641 41.9362 11.5548 41.9809 11.9231 42.1036C14.4347 42.9073 17.002 42.751 19.6252 42.6171C19.6028 42.3939 19.4912 42.3827 19.4019 42.3381C19.2791 42.2822 19.134 42.2376 19.0336 42.1483C18.7768 41.9139 18.855 41.5121 19.1675 41.5121C20.0159 41.5344 20.8419 40.8536 21.7237 41.4228C22.0362 41.6237 22.2372 41.4674 22.159 41.0545C22.0251 40.262 22.1032 40.1392 22.8288 39.9048C22.8846 39.8825 22.9962 39.916 23.0185 39.8825C23.5655 38.9896 24.6929 39.157 25.4184 38.5766C25.5859 38.4427 25.9654 38.1971 26.1775 38.4761C26.4789 38.8668 25.9542 38.9673 25.8091 39.2128C25.7533 39.3021 25.6528 39.3691 25.7644 39.4918C26.1216 39.436 26.4007 39.224 26.6798 39.0119C27.0035 38.7663 27.0593 38.4985 26.6463 38.2864C26.3003 38.1078 25.9542 37.9515 25.597 37.7841C24.8938 37.4604 24.8603 37.3265 25.4296 36.7796C25.5524 36.668 25.7086 36.6345 25.6305 36.3889C25.1282 34.9044 25.2063 34.6142 26.423 33.8218C27.1263 33.3641 27.5393 32.7837 27.5728 31.9243C27.5839 31.5002 27.6621 31.0872 27.6844 30.663C27.7179 30.2389 27.729 29.8036 27.9635 29.4353C28.6778 28.3303 29.1243 27.1025 29.7159 25.9417C30.9215 23.6312 32.5177 21.6445 34.6609 20.1265ZM25.8426 41.1549C25.8426 40.9763 25.7979 40.8201 25.6305 40.7308C25.4966 40.6638 25.3515 40.6527 25.251 40.7643C25.0724 40.9652 24.9384 41.1996 24.9273 41.4898C25.1617 41.4675 25.3961 41.4451 25.6194 41.4228C25.7756 41.4005 25.8426 41.3112 25.8426 41.1549ZM24.2464 40.7531C24.5254 40.608 24.5366 40.2508 24.8156 40.1057C24.291 40.2955 24.291 40.2955 24.2464 40.7531Z" fill="black"/>
<path d="M51.513 34.1488C52.3915 35.2566 52.069 36.3196 50.7346 36.7784C50.0674 37.0134 49.378 37.17 48.6775 37.1924C48.2883 37.2036 47.9102 37.1141 47.5655 36.9127C47.1874 36.7001 47.1429 36.3867 47.0651 35.9727C46.9873 35.5251 46.5536 35.1559 46.1199 34.8985C45.1303 34.3278 45.1303 34.3166 45.8308 33.4326C45.8975 33.3543 45.9643 33.2648 45.8864 33.1081C45.6529 32.8843 45.3193 33.041 45.0191 32.985C44.83 32.9515 44.6632 32.8843 44.6076 32.7053C44.5409 32.5151 44.6744 32.392 44.83 32.2689C45.4861 31.7654 45.4972 31.5975 44.8745 31.0716C44.6076 30.8478 44.2852 30.6799 44.0183 30.4561C43.6402 30.1428 43.6291 29.8743 43.9738 29.5833C45.5639 28.2629 47.3765 27.9049 49.3669 28.2965C49.9674 28.4084 50.0452 28.7105 49.6449 29.1581C49.5337 29.2812 49.3447 29.3372 49.3113 29.5386C50.7124 30.3107 50.7457 30.389 49.7894 31.8213C49.5559 32.1794 49.6004 32.3696 49.9451 32.5934C50.5678 32.9962 51.0571 33.5669 51.513 34.1488ZM50.5567 36.0734C51.324 35.8049 51.4685 35.2678 50.957 34.6076C50.6345 34.1935 50.2454 33.8355 49.8784 33.4438C49.5337 33.0746 48.8443 33.0074 48.7887 32.3808C48.7331 31.7989 49.2446 31.452 49.5337 31.0268C49.7561 30.7023 49.6782 30.5009 49.3224 30.4002C49.1556 30.3554 48.9777 30.3219 48.8109 30.2995C48.4996 30.2547 48.1326 30.2995 47.988 29.9526C47.8324 29.5721 48.166 29.3931 48.3772 29.1693C48.4551 29.091 48.5218 29.0127 48.4106 28.8112C47.054 28.7105 45.8197 29.1246 44.5409 29.9638C45.3749 30.5792 46.0643 31.1275 46.1644 32.101C46.1755 32.2129 46.3312 32.3136 46.4313 32.4032C46.8427 32.7053 46.9428 33.1193 46.6426 33.4998C46.2423 34.0033 46.5091 34.2159 46.8761 34.5852C47.2319 34.9321 47.8546 35.1782 47.8101 35.7601C47.7657 36.2972 48.0436 36.3644 48.3995 36.4091C49.1445 36.5098 49.8562 36.3196 50.5567 36.0734Z" fill="black"/>
<path d="M22.3305 16.408C23.0694 18.3057 23.8308 20.2146 22.9015 22.2788C22.8791 22.3454 22.8791 22.4342 22.8343 22.4786C22.1401 23.0668 21.6139 23.7992 21.0652 24.5206C20.998 24.6094 20.7629 24.6871 20.6845 24.6427C20.1807 24.3208 19.8672 24.565 19.5425 24.9312C19.4417 25.0533 19.1954 25.1754 19.0834 25.131C18.4228 24.8979 18.2996 25.3529 18.1653 25.7969C18.1317 25.8968 18.0869 25.9966 18.0533 26.0854C17.9526 26.3407 17.8742 26.6625 17.5047 26.607C17.2136 26.5515 17.1912 26.263 17.1352 26.0299C16.8665 24.6982 16.5977 23.3553 16.3066 22.0235C16.1723 21.4132 16.0491 20.7806 15.6572 20.2701C15.3885 19.9038 15.5229 19.6153 15.7916 19.3489C15.9931 19.1603 16.2171 18.9827 16.4522 18.8273C16.8889 18.5499 17.3143 18.5277 17.6614 18.9827C17.7622 19.1159 17.807 19.3156 18.0869 19.3156C18.2661 18.9938 18.2772 18.6165 18.3444 18.2502C18.3892 18.0061 18.4004 17.7286 18.6803 17.6509C18.9938 17.5732 19.0946 17.8285 19.2178 18.0505C19.2626 18.1281 19.3409 18.1947 19.3857 18.2613C19.6768 18.1836 19.6656 17.9395 19.7328 17.7508C19.9344 17.2292 20.0575 16.6521 20.8413 16.7298C21.1212 16.752 21.1996 16.419 21.3787 16.2637C21.8042 15.9307 22.1401 15.9418 22.3305 16.408ZM22.4088 21.5019C23.0694 19.9038 22.3305 18.5388 21.849 17.0627C20.7741 17.7286 20.7405 17.7508 20.0463 18.8717C19.8672 19.1492 19.6656 19.3933 19.285 19.3267C18.9715 19.2712 18.8371 19.3933 18.7475 19.6708C18.6243 20.0259 18.546 20.492 18.0533 20.4809C17.5831 20.4809 17.4935 20.0148 17.3255 19.6819C17.3143 19.6486 17.3031 19.6153 17.2807 19.582C17.1688 19.3156 16.9784 19.1714 16.7097 19.3489C16.4634 19.5043 16.0715 19.6264 16.2618 20.0481C16.8777 21.4021 17.0456 22.867 17.3703 24.2875C17.4151 24.4984 17.3815 24.7758 17.6726 24.8868C17.9525 24.565 17.9637 24.1655 18.0981 23.8103C18.2549 23.4219 18.0869 22.7005 18.6468 22.7227C19.2962 22.7449 18.9379 23.4441 19.0498 23.8436C19.0722 23.9435 19.061 24.0434 19.2626 24.1211C19.6097 23.8103 19.7216 23.3331 19.9344 22.9114C20.0128 22.756 20.1247 22.6117 20.3263 22.6117C20.5838 22.6117 20.6845 22.7893 20.7293 23.0113C20.7517 23.1444 20.7741 23.2776 20.8189 23.5884C21.166 23.1666 21.3451 22.7671 21.6587 22.6006C22.1513 22.3343 22.2409 21.9237 22.4088 21.5019Z" fill="black"/>
</svg>
