<svg width="48" height="92" viewBox="0 0 48 92" fill="none" xmlns="http://www.w3.org/2000/svg">
<g clip-path="url(#clip0_222_170954)">
<path d="M36.0101 23.6336C34.0003 26.0641 31.229 29.3559 29.1133 34.4153C29.1133 34.4153 30.6009 32.4579 33.0782 29.9592C34.4121 28.6141 36.2123 26.6691 37.7625 24.7517C37.1879 24.3641 36.6128 23.9772 36.0101 23.633V23.6336Z" fill="#75BA56"/>
<path d="M36.8499 25.8523C37.1597 25.4873 37.4661 25.1189 37.763 24.7517C37.1884 24.3641 36.6133 23.9772 36.0106 23.633C35.7436 23.9558 35.4625 24.2954 35.1719 24.6508C35.7149 25.0699 36.268 25.4766 36.8499 25.8518V25.8523Z" fill="#2A9844"/>
<path d="M37.3896 25.2209C40.1283 26.7648 44.2115 26.6364 46.3954 16.4444C48.5792 6.25241 47.4673 3.08339 45.7301 5.27568C43.9817 7.48205 41.9792 11.5889 40.6443 13.753C38.7691 16.7936 30.8471 21.5319 37.3902 25.2209H37.3896Z" fill="#75BA56"/>
<path d="M46.3949 16.4444C48.1793 8.11687 47.7631 4.48034 46.6033 4.62341C46.9289 5.79447 47.1102 6.98581 46.9542 8.17039C46.5819 11.0026 45.1224 13.7784 43.8094 16.2822C42.653 18.4891 41.0415 20.9625 38.603 21.9156C37.5181 22.3391 36.0604 22.5926 34.8662 22.2316C34.9907 23.2657 35.7168 24.2779 37.3891 25.2209C40.1278 26.7648 44.211 26.6364 46.3949 16.4444Z" fill="#4FB14D"/>
<path d="M41.1102 14.678C41.1102 14.678 44.2415 11.2031 45.1039 8.27797C45.9662 5.35286 47.4494 11.4966 41.651 17.1451C35.8526 22.7937 39.4514 16.7604 41.1102 14.678Z" fill="#9AC76F"/>
<path d="M42.8366 11.9883C43.4511 10.8364 45.0182 6.28114 45.4378 7.45953C45.8575 8.63791 43.8482 14.0769 41.7348 15.3967C39.622 16.7165 42.0125 13.5328 42.8366 11.9883Z" fill="#CEDD9F"/>
<path d="M27.9282 21.7488C28.1355 24.8959 28.4566 29.1875 27.2112 34.5279C27.2112 34.5279 27.1503 32.0704 26.6034 28.5944C26.3088 26.7226 25.9877 24.0921 25.8525 21.6305C26.5448 21.6519 27.2376 21.6745 27.9282 21.7488Z" fill="#75BA56"/>
<path d="M25.9498 23.0573C25.9121 22.5797 25.8789 22.102 25.8535 21.6305C26.5458 21.6519 27.2386 21.6745 27.9292 21.7488C27.9568 22.1668 27.9861 22.6073 28.0137 23.0658C27.3287 23.0877 26.6415 23.0939 25.9504 23.0573H25.9498Z" fill="#2A9844"/>
<path d="M25.8815 22.2293C22.7575 21.8789 19.5215 19.3853 23.7151 9.84276C27.9082 0.300231 30.6643 -1.61886 30.7905 1.17557C30.9172 3.98803 30.1376 8.49032 29.9534 11.0262C29.6943 14.589 33.3455 23.0675 25.8815 22.2293Z" fill="#75BA56"/>
<path d="M23.7151 9.84276C27.141 2.04583 29.607 -0.659604 30.4638 0.134622C29.5141 0.893923 28.6703 1.75405 28.1036 2.8057C26.7478 5.32074 26.3073 8.42554 25.9063 11.2239C25.5531 13.69 25.4123 16.6393 26.8317 18.8389C27.4632 19.8179 28.4974 20.8757 29.6769 21.2819C28.9705 22.0479 27.7899 22.4433 25.8815 22.2293C22.7575 21.8789 19.5215 19.3853 23.7151 9.84276Z" fill="#4FB14D"/>
<path d="M29.0349 11.5027C29.0349 11.5027 28.5291 6.85174 29.5413 3.97564C30.5541 1.09896 25.7561 5.2126 27.1524 13.1864C28.5488 21.1602 29.1611 14.1614 29.0349 11.5027Z" fill="#9AC76F"/>
<path d="M29.2079 8.3112C29.3836 7.01791 30.7789 2.40634 29.7486 3.1172C28.7184 3.82693 27.1654 9.41354 28.1067 11.7202C29.0473 14.0274 28.9724 10.0455 29.2079 8.31177V8.3112Z" fill="#CEDD9F"/>
<path d="M33.2992 22.2608C32.5714 25.3296 31.6155 29.526 28.8555 34.2638C28.8555 34.2638 29.5201 31.8969 30.0198 28.4135C30.2885 26.5384 30.756 23.9293 31.3502 21.537C32.0059 21.7612 32.661 21.9865 33.2992 22.2603V22.2608Z" fill="#75BA56"/>
<path d="M31.0234 22.9294C31.1276 22.4619 31.2369 21.9955 31.3507 21.5376C32.0064 21.7618 32.6615 21.9871 33.2997 22.2608C33.2033 22.6687 33.1014 23.0979 32.9932 23.544C32.3319 23.3637 31.6735 23.1677 31.0234 22.9294Z" fill="#2A9844"/>
<path d="M31.2021 22.1178C28.3192 20.8639 25.9597 17.5293 32.7742 9.64167C39.5888 1.75462 42.7877 0.731701 42.0858 3.43939C41.38 6.16454 39.3105 10.2382 38.3884 12.6079C37.0935 15.9369 38.0888 25.1144 31.2015 22.1178H31.2021Z" fill="#75BA56"/>
<path d="M32.7738 9.64168C38.3413 3.19775 41.4939 1.33724 42.0792 2.34832C40.9487 2.79501 39.8886 3.36843 39.0375 4.20715C37.0018 6.21186 35.6679 9.05023 34.4614 11.607C33.3985 13.8601 32.3964 16.6371 33.1061 19.1572C33.4221 20.2787 34.0992 21.5939 35.1069 22.329C34.2068 22.8529 32.9619 22.8844 31.2011 22.1178C28.3183 20.8639 25.9587 17.5293 32.7732 9.64168H32.7738Z" fill="#4FB14D"/>
<path d="M37.3695 12.7932C37.3695 12.7932 38.2538 8.19968 40.0681 5.74828C41.8825 3.29689 36.0863 5.817 35.0752 13.8488C34.0647 21.8806 36.7082 15.3719 37.3695 12.7932Z" fill="#9AC76F"/>
<path d="M38.4747 9.79376C39.0239 8.60918 41.713 4.6127 40.5194 4.98785C39.3264 5.36412 36.1985 10.2461 36.4193 12.7279C36.6401 15.2091 37.7391 11.3822 38.4742 9.79376H38.4747Z" fill="#CEDD9F"/>
<path d="M35.4472 44.9148C39.3671 37.515 41.7261 29.7857 31.0035 26.3204C19.6483 22.6512 17.7445 31.7662 16.5385 37.6474C14.8695 45.7885 13.232 58.4308 11.6914 67.5091C11.2515 69.7431 10.5497 73.2287 10.1565 74.8098C9.37411 77.9501 7.21843 84.9748 5.21428 87.1834C3.21013 89.392 -3.27773 93.8093 3.26195 91.199C9.80164 88.5882 14.6785 84.9545 16.0236 78.6508C17.0161 73.9993 19.8399 68.8819 19.9142 68.7467C24.5776 60.9289 31.6749 52.0358 35.4467 44.9148H35.4472Z" fill="#FFD385"/>
<path d="M31.0035 26.3204C29.9299 25.9734 28.9413 25.7408 28.0294 25.609C29.5553 27.0656 30.9804 28.6715 31.7228 30.5884C32.917 33.6706 31.9791 36.7293 30.621 39.5964C29.0106 42.9963 26.7676 45.9011 24.5196 48.8916C22.04 52.1902 20.1536 55.5991 18.8423 59.5207C18.1675 61.5395 17.5304 63.5583 16.9852 65.6137C15.9459 69.5274 14.8667 73.5599 12.9109 77.1333C11.808 79.1476 10.179 81.2098 8.0673 81.5512C7.19703 83.9 6.1882 86.1103 5.21428 87.1834C3.21013 89.392 -3.27773 93.8093 3.26195 91.199C9.80164 88.5882 14.6785 84.9545 16.0236 78.6508C17.0161 73.9993 19.8399 68.8819 19.9142 68.7467C24.5776 60.9289 31.6749 52.0358 35.4467 44.9148C39.3665 37.515 41.7255 29.7857 31.0029 26.3204H31.0035Z" fill="#FCB853"/>
<path d="M33.4778 27.3028C34.3757 28.4462 35.001 29.8043 35.242 31.364C35.9242 35.7661 34.3138 40.3264 32.0922 44.0761C30.6958 46.4329 28.8252 48.3227 27.213 50.5178C24.8157 53.7792 22.9575 57.3667 21.3645 61.0793C19.7918 64.7446 18.4078 68.4887 16.7969 72.1376C15.503 75.0678 14.426 78.4295 12.5452 81.0436C11.1291 83.0112 9.09007 84.0662 6.84032 84.5129C6.30746 85.6389 5.75601 86.5869 5.21526 87.1828C3.21111 89.3915 -3.27675 93.8087 3.26293 91.1985C9.80262 88.5877 14.6795 84.9539 16.0246 78.6503C17.0171 73.9987 19.8408 68.8813 19.9152 68.7461C24.5786 60.9283 31.6759 52.0353 35.4476 44.9143C39.0312 38.1487 41.308 31.1083 33.4778 27.3028Z" fill="#EDA250"/>
<path d="M18.036 40.7623C18.5739 38.2912 22.6487 26.3486 26.8716 28.6884C31.5913 31.3037 28.678 38.0884 24.1138 45.3198C19.5489 52.5512 15.2213 60.7853 16.0397 52.8064C16.8587 44.8275 17.3031 44.1302 18.0365 40.7623H18.036Z" fill="#FFCC71"/>
<path d="M18.5674 36.9591C18.5674 36.9591 20.9929 26.9648 26.2179 28.4558C31.4428 29.9462 25.2868 35.5137 23.446 38.8461C21.6052 42.1784 16.8775 44.124 18.568 36.9591H18.5674Z" fill="#FFE2B6"/>
<path d="M16.7446 46.9826C16.7446 46.9826 17.8548 42.6043 19.183 44.2986C20.5112 45.9924 17.5923 51.3706 17.6024 54.7784C17.6131 58.1857 14.8688 61.5429 15.3121 56.6119C15.7554 51.6804 16.7446 46.9826 16.7446 46.9826Z" fill="#FFE2B6"/>
<path d="M25.7919 36.1023C21.4467 34.2052 18.997 32.3086 18.1695 31.6062C17.8197 32.4838 17.5359 33.3969 17.2959 34.3032C21.4754 35.5396 29.051 37.5257 25.7913 36.1029L25.7919 36.1023Z" fill="#DC9551"/>
<path d="M35.4468 44.9148C35.8552 44.1437 36.2461 43.3692 36.6077 42.5964C35.3854 42.5479 32.3837 42.2764 28.1101 40.8665C24.8087 39.7777 31.3895 43.167 35.3668 45.0641C35.3927 45.0145 35.4209 44.9644 35.4474 44.9148H35.4468Z" fill="#DC9551"/>
<path d="M30.1407 41.48C29.4997 41.3042 28.8243 41.1026 28.1101 40.8665C24.8087 39.7777 31.3895 43.167 35.3668 45.0641C35.3927 45.0145 35.4209 44.9644 35.4474 44.9148C35.555 44.7126 35.6569 44.5093 35.7617 44.3065C34.0183 43.4734 31.8069 42.3688 30.1413 41.48H30.1407Z" fill="#BF6E3C"/>
<path d="M24.825 45.3722C20.8043 44.7921 16.9193 43.0808 15.6339 42.4742C15.4937 43.2785 15.3545 44.1043 15.2148 44.947C21.0527 47.1533 29.5267 46.0504 24.825 45.3722Z" fill="#DC9551"/>
<path d="M24.87 45.379C22.8569 45.5981 18.7004 45.4494 15.3331 44.2406C15.2937 44.4755 15.2543 44.7087 15.2148 44.947C21.033 47.146 29.4687 46.0577 24.87 45.379Z" fill="#BF6E3C"/>
<path d="M25.7913 36.1023C25.6144 36.0252 25.4454 35.948 25.2748 35.8702C23.4773 35.5058 19.9399 34.5516 17.4305 33.8165C17.3849 33.9788 17.3387 34.141 17.2959 34.3032C21.4754 35.5396 29.051 37.5257 25.7913 36.1029V36.1023Z" fill="#BF6E3C"/>
<path d="M16.7227 48.5424C16.7227 48.5424 16.7249 50.0981 19.8511 52.1828C22.0366 53.6412 26.3429 54.8967 28.7386 55.5214C29.2393 54.7931 29.735 54.0698 30.2205 53.3516C27.6486 52.8098 20.7118 51.1718 16.7227 48.5424Z" fill="#DC9551"/>
<path d="M20.5201 51.4303C19.3727 50.6654 18.6472 49.9714 18.1876 49.3997C17.6694 49.127 17.1765 48.8415 16.7236 48.5429C16.7236 48.5429 16.7259 50.0987 19.8521 52.1834C22.0376 53.6417 26.3439 54.8973 28.7395 55.522C28.9215 55.2578 29.0972 54.997 29.2775 54.7339C26.8593 54.0991 22.6679 52.8633 20.5207 51.4309L20.5201 51.4303Z" fill="#BF6E3C"/>
<path d="M22.1142 58.4358C17.5691 57.2079 14.4942 55.522 13.6425 55.0235C13.5005 55.963 13.3586 56.8998 13.2178 57.8297C17.7803 58.8921 22.8454 58.6335 22.1137 58.4358H22.1142Z" fill="#DC9551"/>
<path d="M22.1146 58.4358C21.2894 58.2128 20.5144 57.9745 19.7911 57.7317C18.0872 57.7024 15.6651 57.5194 13.3438 57.0028C13.3021 57.2783 13.2604 57.5554 13.2188 57.8297C17.7813 58.8921 22.8463 58.6335 22.1146 58.4358Z" fill="#BF6E3C"/>
<path d="M22.1344 65.2025C20.1539 65.0279 16.4014 64.459 12.4849 62.6131C12.4274 62.9809 12.37 63.3465 12.3125 63.7081C13.6148 64.5587 16.0893 65.7737 20.6902 67.4736C21.1543 66.7239 21.637 65.9669 22.1344 65.2031V65.2025Z" fill="#DC9551"/>
<path d="M21.1329 66.7358C16.3681 64.9834 13.8029 63.7391 12.4499 62.8722C12.4629 62.7872 12.4759 62.6999 12.4888 62.6148L12.4849 62.6125C12.4274 62.9804 12.37 63.3459 12.3125 63.7076C13.6148 64.5581 16.0893 65.7731 20.6902 67.4731C21.1543 66.7234 21.637 65.9663 22.1344 65.2025L22.122 65.2014C21.7852 65.7157 21.4534 66.2282 21.1329 66.7358Z" fill="#BF6E3C"/>
<path d="M16.8451 72.942C15.825 73.0896 12.8069 71.7399 11.0146 70.8787C10.8586 71.6369 10.7025 72.3832 10.5566 73.0552C15.8768 74.3164 18.1699 72.751 16.8451 72.9425V72.942Z" fill="#DC9551"/>
<path d="M16.8451 72.942C16.582 72.9797 16.1844 72.9172 15.7101 72.7899C14.623 72.9347 12.9342 72.929 10.6924 72.4198C10.6462 72.6361 10.6011 72.8496 10.5566 73.0546C15.8768 74.3158 18.1699 72.7505 16.8451 72.942Z" fill="#BF6E3C"/>
</g>
<defs>
<clipPath id="clip0_222_170954">
<rect width="47.1927" height="92" fill="white" transform="translate(0.412109)"/>
</clipPath>
</defs>
</svg>
