<svg width="80" height="70" viewBox="0 0 80 70" fill="none" xmlns="http://www.w3.org/2000/svg">
<path d="M67.1107 14.4362C68.2573 13.7798 69.1172 12.7258 70.3192 12.0879C70.1528 11.8845 70.0326 11.7273 69.9031 11.5702C69.5333 11.7736 69.3946 12.2174 69.0247 12.3098C68.5531 12.4207 68.3867 12.7628 68.1925 13.1141C67.8966 13.6041 67.6192 14.1126 67.1107 14.4362ZM67.1014 14.4362C67.046 14.464 66.9905 14.501 66.935 14.5287C66.9905 14.501 67.046 14.4732 67.1014 14.4362ZM79.7969 12.0232C79.8524 13.0402 79.6027 14.0109 79.2051 14.9262C78.9647 15.4717 78.4377 15.5919 77.8644 15.2683C77.3188 14.9632 76.8658 14.5379 76.4497 14.0849C75.1367 12.6519 73.8791 12.2451 71.4843 12.5872C72.224 13.0957 72.7603 13.6689 73.3521 14.1589C74.1843 14.843 74.7113 15.6936 74.8685 16.7568C74.9332 17.2283 75.1736 17.5519 75.5158 17.857C76.0983 18.3932 76.6623 18.948 77.2079 19.5212C78.2805 20.6306 78.7336 21.9989 78.8168 23.5152C78.9185 25.3827 78.4562 27.1856 78.2158 29.0161C77.8366 31.8914 76.8565 34.5911 75.8394 37.2815C75.5527 38.0488 75.2014 38.7977 74.7853 39.5004C73.9161 40.9611 72.973 42.3849 72.2148 43.9104C71.9281 44.4928 71.4935 44.9828 71.0127 45.4174C70.4302 45.9536 69.8661 46.5176 69.3946 47.1555C69.3114 47.2757 69.2281 47.4328 69.1079 47.4791C68.1371 47.8951 68.2295 48.7087 68.3312 49.513C68.3682 49.7997 68.2388 50.0215 68.1833 50.2712C67.7672 52.3514 66.861 54.1635 65.5758 55.8738C64.2258 57.6859 62.7186 59.2576 60.7861 60.4503C59.8429 61.0327 59.0015 61.7816 58.1601 62.5212C55.793 64.5829 53.0837 66.1084 50.3005 67.5045C48.4697 68.4198 46.454 68.7064 44.4198 68.882C43.3934 68.9652 42.3763 69.0762 41.3499 69.1687C39.3527 69.3536 37.3369 69.5015 35.3859 69.0392C33.8048 68.6694 32.2606 68.0777 31.188 66.7001C30.2819 65.5352 28.9226 65.1284 27.5726 64.8696C26.1764 64.6107 24.8634 64.1299 23.5134 63.7324C22.9679 63.566 22.5148 63.2609 22.108 62.8633C20.9059 61.6614 20.046 60.3116 20.1107 58.5273C20.12 58.3239 20.0922 58.1112 20.1107 57.9078C20.2864 55.5687 18.9642 54.0155 17.346 52.6102C17.0409 52.3421 16.7635 52.2682 16.4583 52.638C16.1347 53.0263 15.6816 53.1003 15.1823 53.0633C12.695 52.8876 10.633 51.8614 9.21833 49.8181C7.15636 46.8596 5.14987 43.8549 3.51324 40.6283C3.07866 39.7592 2.67181 38.8809 2.42215 37.9471C2.0338 36.5049 1.6547 35.0533 1.30334 33.6018C1.12765 32.8622 1.07218 32.1041 1.05369 31.3367C1.0167 29.5154 0.979706 27.7033 0.628339 25.9005C0.38793 24.6431 0.656078 23.3857 0.767036 22.1284C0.868748 20.9357 1.08143 19.7431 1.23862 18.5504C1.56224 16.1559 2.88448 14.5287 5.03892 13.5302C5.22385 13.447 5.41803 13.373 5.60296 13.2806C7.60021 12.1804 9.76387 12.1434 11.946 12.3838C12.4639 12.4392 12.843 12.3653 13.2313 12.0417C14.5166 10.9692 15.9868 10.2573 17.6419 9.97073C17.7251 9.95224 17.8083 9.92451 17.9008 9.90602C18.169 9.86904 18.807 9.74884 18.9272 10.0354C18.9179 10.1187 18.9179 10.2019 18.9087 10.2943C18.7515 10.4977 18.2244 10.3868 18.0303 10.4238C16.6618 10.6826 15.358 11.0802 14.2114 11.9123C13.8693 12.1526 13.5642 12.4022 13.4902 12.9015C13.8786 13.0402 14.2854 12.9662 14.683 12.994C15.4412 13.0494 16.2087 13.0864 16.9392 13.3268C17.0779 13.373 17.2351 13.4562 17.1796 13.6319C17.1333 13.8168 16.9484 13.7983 16.819 13.7706C15.8666 13.5949 14.8957 13.5209 13.934 13.4377C12.621 13.3175 11.3635 13.5487 10.1337 13.9925C9.44026 14.2421 8.78375 14.5749 8.11801 14.8708C7.17486 15.2868 6.37966 15.8415 6.10226 16.9232C5.78788 16.8308 5.8896 16.6274 5.92659 16.4887C6.18549 15.6844 6.76801 15.1666 7.48924 14.7875C8.97793 14.0202 10.4944 13.336 12.1402 12.9292C10.3926 12.8738 8.63581 12.4762 6.9437 13.2806C5.77865 13.8353 4.5396 14.2051 3.55948 15.1111C2.61633 15.9894 2.02455 17.0342 1.82113 18.2915C1.51599 20.2331 1.25709 22.1838 1.12764 24.1438C1.07216 24.9667 1.11841 25.7803 1.28485 26.5939C1.58074 28.0639 1.54374 29.5708 1.59922 31.0593C1.63621 32.0948 1.72867 33.1118 1.98757 34.1103C2.30195 35.303 2.5886 36.4956 2.92148 37.6883C3.49476 39.713 4.59508 41.4973 5.63994 43.3002C6.86972 45.4081 8.24746 47.4144 9.62519 49.4206C10.9012 51.2697 12.7228 52.2127 14.9327 52.4808C15.5522 52.5548 16.033 52.4253 16.3659 51.8799C16.4861 51.6857 16.6248 51.51 16.8837 51.5933C16.8929 51.6025 16.9114 51.6117 16.9207 51.621C16.9299 51.621 16.9392 51.6302 16.9484 51.6302C17.0594 51.7597 17.1426 51.9076 17.2813 52.0001C18.5573 52.8691 19.4357 54.0433 20.1662 55.3838C20.4528 55.9201 20.6563 56.4378 20.6563 57.0388C20.6563 57.7137 20.6563 58.3886 20.6748 59.0635C20.721 60.4595 21.5254 61.4673 22.4316 62.4011C22.8569 62.8264 23.0419 62.7986 23.4949 62.4011C23.9388 62.022 24.3456 61.5967 24.7525 61.1714C25.6771 60.1822 26.574 59.1744 27.4987 58.1944C27.6836 57.991 27.8408 57.7137 28.2569 57.7322C28.0812 58.3978 27.4987 58.6937 27.1196 59.1467C26.7312 59.6182 26.2966 60.062 25.8805 60.515C25.4645 60.968 25.0391 61.4211 24.6508 61.8926C24.2717 62.3456 23.6891 62.623 23.3932 63.1407C23.5319 63.3164 23.6706 63.3533 23.8186 63.3903C25.0576 63.7509 26.2781 64.1392 27.5634 64.3611C29.2925 64.6662 30.9199 65.2486 32.0202 66.7649C32.0942 66.8666 32.1959 67.0052 32.3901 66.8943C32.3254 66.5892 32.2514 66.2749 32.2051 65.9605C31.937 64.0005 32.1404 62.096 32.9541 60.2839C33.2408 59.6552 33.6383 59.119 34.2301 58.7492C34.3318 58.6844 34.4613 58.6382 34.5537 58.7306C34.7109 58.8878 34.5723 58.9988 34.4521 59.082C33.5829 59.6552 33.213 60.5427 32.9356 61.4858C32.5288 62.9095 32.3808 64.3611 32.6212 65.8403C32.6675 66.1269 32.7507 66.4135 32.8247 66.6909C33.0003 67.3011 33.3887 67.6986 34.0082 67.8835C34.3966 68.0037 34.8127 68.1054 35.164 68.2996C35.913 68.7156 36.7174 68.7711 37.5496 68.7896C39.3157 68.8266 41.0633 68.6324 42.8201 68.429C44.0129 68.2903 45.2242 68.2903 46.4078 68.0777C48.2109 67.7449 49.8937 67.1532 51.5118 66.2471C53.9067 64.9158 56.2183 63.4828 58.2895 61.6799C58.9553 61.1067 59.6118 60.4965 60.37 60.0527C62.4135 58.8416 63.9484 57.1682 65.3354 55.2729C66.3432 53.8953 67.0737 52.4253 67.5175 50.7982C67.5823 50.5485 67.721 50.2712 67.61 50.0215C67.4158 49.5963 67.573 49.2172 67.684 48.8289C68.211 47.0723 68.1463 45.2972 67.8319 43.5128C67.684 42.69 67.2679 42.0428 66.5004 41.6453C65.8717 41.3217 65.2984 40.9149 64.7251 40.5081C64.1703 40.1105 63.56 39.8147 62.9035 39.6483C62.2933 39.4911 61.683 39.26 61.0173 39.5743C60.7306 39.713 60.5364 39.4634 60.6012 39.1305C60.6474 38.8994 60.7953 38.7885 60.9803 38.6775C61.6922 38.2337 62.1083 37.5866 62.3118 36.7822C62.4782 36.1443 62.7741 35.5803 63.1809 35.0718C63.523 34.6373 63.671 34.1473 63.671 33.6018C63.6525 31.2443 63.0977 29.1178 61.0542 27.6571C59.9077 26.8435 58.909 25.8172 57.5313 25.3642C55.3676 24.6431 53.2132 23.8295 50.8553 24.0791C50.541 24.1161 50.2081 24.0421 49.8937 24.0329C48.7749 23.9959 47.6376 24.0329 46.5927 24.4582C45.2797 24.9852 43.939 24.9297 42.6075 24.791C41.4794 24.6801 40.3883 24.7448 39.288 24.9389C38.7702 25.0314 38.2524 25.1423 37.7253 25.2071C35.0253 25.5399 32.4271 26.224 30.0322 27.5461C29.7271 27.7125 29.385 27.8327 29.0706 27.9714C26.759 28.9607 24.6785 30.3382 22.783 31.9746C21.0261 33.4909 20.2956 35.4139 20.9152 37.7437C21.1001 38.4279 21.3682 39.0751 21.6826 39.7037C21.8953 40.129 22.2004 40.4526 22.672 40.6375C23.9573 41.1368 25.224 41.6822 26.5001 42.2092C26.7312 42.3017 27.0271 42.3387 27.0641 42.69C26.7497 42.9026 26.4908 42.69 26.2412 42.5883C25.261 42.1907 24.2994 41.7655 23.3192 41.3494C22.7275 41.0998 22.108 40.8964 21.4607 40.8132C21.2203 40.7854 21.0076 40.7947 20.7857 40.9241C19.7501 41.5528 18.77 42.237 18.1412 43.3187C17.42 44.576 16.9484 44.8996 18.9364 45.6208C20.6748 46.2494 22.5056 46.5545 24.3734 46.61C25.1963 46.6378 26.01 46.61 26.8329 46.4621C27.1658 46.3974 27.3507 46.2864 27.397 45.9259C27.5079 45.1862 27.8501 44.5391 28.1922 43.8919C28.8764 42.5975 29.7826 41.4973 30.9476 40.619C31.1788 40.4434 31.4747 40.2954 31.3452 39.9164C30.8736 38.5573 30.9569 37.1335 30.7904 35.7467C30.587 33.9439 31.1695 32.4646 32.3901 31.1795C33.6199 29.9037 35.0716 28.9052 36.5603 27.9622C36.7267 27.8605 36.9116 27.7218 37.1243 27.9252C37.0873 28.3135 36.7452 28.4152 36.4863 28.5908C35.5339 29.2288 34.5907 29.8667 33.7123 30.6156C33.1021 31.1333 32.5473 31.688 32.0849 32.3445C31.6688 32.9269 31.3267 33.5556 31.2898 34.2767C31.2065 35.9501 31.336 37.6143 31.6411 39.2692C31.6873 39.5188 31.7336 39.8147 32.0387 39.9071C32.3901 40.0088 32.3993 40.2307 32.3161 40.5266C32.1497 41.0536 32.3254 41.5066 32.649 41.9226C33.3055 42.7547 33.962 43.5775 34.7849 44.2525C36.1072 45.3434 37.6051 45.8889 39.3434 45.7594C39.9907 45.7132 40.6195 45.63 41.2575 45.5191C42.6167 45.2879 43.976 45.0013 45.3444 44.8719C47.7578 44.65 50.0971 44.1877 52.381 43.3649C53.3519 43.0136 54.3505 42.7732 55.3769 42.6807C55.6081 42.6623 55.8485 42.5975 56.0704 42.69C56.1443 42.727 56.2368 42.7917 56.2461 42.8564C56.2738 42.9858 56.1721 43.0691 56.0519 43.0968C55.9409 43.1245 55.8207 43.143 55.7098 43.1523C54.3505 43.2724 53.0653 43.6515 51.78 44.0953C50.2173 44.6315 48.6269 45.066 46.9811 45.177C45.1318 45.3064 43.3287 45.7317 41.4886 45.9443C40.9986 45.9998 40.5085 46.1293 40.0184 46.231C38.3911 46.5823 37.5311 47.7287 37.1058 49.208C36.7452 50.4653 36.7359 51.7689 37.0965 53.0355C37.3647 53.997 37.7068 54.9308 38.0304 55.8738C38.0859 56.031 38.1414 56.1789 38.2986 56.3084C38.7239 56.6505 38.7054 56.7799 38.2431 56.974C37.5219 57.2699 36.7637 57.3069 35.9962 57.3346C34.2209 57.3901 32.4086 57.122 30.6795 57.7969C30.4021 57.9078 30.1987 57.7691 30.2356 57.4548C30.3651 56.4748 29.8565 55.7167 29.4127 54.9216C28.8579 53.9231 28.0442 53.4885 26.8977 53.507C25.3073 53.5348 23.7261 53.3868 22.2189 52.8229C20.5176 52.1757 18.696 52.0278 16.9484 51.584C16.9392 51.5748 16.9392 51.5655 16.9299 51.5655C16.9114 51.5563 16.8929 51.5563 16.8744 51.547C16.7542 51.4453 16.634 51.3251 16.4953 51.2604C14.4796 50.3082 13.0371 48.6717 11.4375 47.2017C11.3543 47.1185 11.2803 47.0261 11.1971 46.9428C9.32006 45.0753 8.95944 42.7547 9.22759 40.2677C9.38478 38.8162 10.3372 38.0396 11.7981 38.0211C12.5748 38.0119 13.3053 38.1875 14.0358 38.4464C14.6368 38.659 15.0066 39.0473 15.1823 39.6668C15.4597 40.6283 15.7001 41.5898 15.9128 42.5698C16.0608 43.2632 16.3104 43.9104 16.9669 44.4004C17.1426 44.0675 17.309 43.7625 17.457 43.4666C18.169 42.0798 19.334 41.1645 20.6193 40.3694C21.2758 39.9626 21.2665 39.9441 20.9429 39.223C20.61 38.4649 20.3511 37.6975 20.2402 36.8654C19.9443 34.6835 20.795 32.9362 22.3854 31.5494C24.3549 29.8205 26.5463 28.3967 28.9689 27.352C29.5329 27.1116 30.1154 26.8805 30.6517 26.5939C32.5195 25.5954 34.5168 25.0591 36.5972 24.7818C38.2801 24.5506 39.926 24.0606 41.6458 24.0791C42.0712 24.0884 42.0804 23.8018 42.0896 23.4874C42.1451 21.8325 41.9602 20.2053 41.6551 18.5874C41.4424 17.4687 41.165 16.35 40.8506 15.2498C40.3606 13.5487 39.0383 12.5594 37.6143 11.6996C37.2815 11.4962 36.8746 11.5055 36.4955 11.5332C35.2472 11.6164 33.9712 11.4038 32.7322 11.7458C32.5288 11.8013 32.3993 11.6904 32.3438 11.4962C32.2976 11.3298 32.2791 11.1449 32.2144 10.9877C31.937 10.2758 31.4654 9.84129 30.661 9.75808C28.6268 9.53619 26.5925 10.3128 25.0206 11.6256C24.9559 11.6811 24.8912 11.7458 24.8264 11.8013C24.7987 11.8198 24.7617 11.8383 24.734 11.8383C24.66 11.7736 24.5953 11.7181 24.5306 11.6441C24.5306 11.6072 24.5306 11.5794 24.5398 11.5424C24.6045 11.3298 25.0021 10.9322 25.1685 10.8028C26.8976 9.4345 28.8764 8.98148 31.0401 9.25884C31.8445 9.36054 32.3716 9.88752 32.6675 10.5902C32.8524 11.0247 33.0928 11.1264 33.5366 11.0987C34.5907 11.0432 35.6541 11.0524 36.7082 11.0247C37.1613 11.0155 37.5959 11.0709 37.9842 11.3021C39.7133 12.356 41.1095 13.6504 41.5996 15.7398C42.2006 18.2915 42.7462 20.834 42.6722 23.4782C42.6722 23.6261 42.6722 23.774 42.6907 23.9219C42.7184 24.1346 42.8571 24.2178 43.0605 24.2178C43.2362 24.2178 43.3194 24.0976 43.3472 23.9404C43.3657 23.8295 43.3934 23.7093 43.4119 23.5984C43.791 21.0282 44.9746 18.7538 46.1119 16.4702C46.2321 16.2391 46.38 16.0172 46.5187 15.7953C48.1461 13.1604 50.5225 12.1249 53.5646 12.5409C53.7125 12.5594 53.8605 12.5779 53.9991 12.6149C54.8406 12.8183 55.4878 12.6519 56.0796 11.9215C56.8748 10.9415 58.0584 10.47 59.2327 10.0724C60.1481 9.75808 61.1005 9.57318 62.0898 9.62866C62.2378 9.6379 62.3857 9.62865 62.5337 9.6379C64.0224 9.78582 65.4093 9.58242 66.7501 8.8243C67.9521 8.14015 69.3021 7.78883 70.7261 7.87204C71.1699 7.89978 71.6045 7.91826 72.0298 8.03845C72.825 8.26958 73.6387 8.3528 74.4617 8.38978C76.2925 8.47299 77.7534 9.34205 79.0849 10.5162C79.5287 10.9322 79.7599 11.45 79.7969 12.0232ZM78.7428 14.5379C78.9925 13.8353 79.2144 13.1234 79.1959 12.1989C78.7058 12.7258 78.4839 13.2158 78.3175 13.7428C78.2527 13.9555 78.4099 14.3068 78.1603 14.3715C78.0493 14.3992 77.9753 14.3808 77.9291 14.3438C77.8089 14.2421 77.8181 13.9832 77.7257 13.8538C77.6979 13.8075 77.6517 13.7521 77.5962 13.7428C76.9767 13.5579 77.0045 13.1141 77.1247 12.6241C77.1616 12.467 77.2541 12.2821 77.0414 12.1526C76.6716 12.2266 76.2277 12.6519 75.9226 12.2266C75.5435 11.6904 75.3401 12.0232 74.9332 12.2913C75.9226 12.6704 76.5329 13.3915 77.2079 14.0294C77.3836 14.1959 77.5592 14.3438 77.7534 14.4917C77.8644 14.5749 77.9846 14.6581 78.1048 14.7321C78.3452 14.8893 78.6226 14.8708 78.7428 14.5379ZM78.7613 11.7458C79.0572 11.4592 78.974 11.2558 78.7428 11.0155C78.0678 10.3036 77.2079 9.86904 76.3387 9.44375C76.163 9.36054 75.9781 9.3328 75.8764 9.52695C75.562 10.1002 75.0904 10.6179 75.0904 11.3945C75.488 11.2836 75.6267 10.9785 75.8579 10.7658C76.1076 10.5347 76.1723 9.87828 76.6346 10.1372C76.9952 10.3313 76.5606 10.7473 76.4959 11.0709C76.4497 11.2928 76.2647 11.4962 76.4404 11.7551C76.8195 11.6719 77.0784 11.3853 77.3743 11.1541C77.5592 11.0155 77.7442 10.7936 77.9846 10.9877C78.1788 11.1449 78.0678 11.3575 78.0031 11.5517C77.8551 11.9862 77.6425 12.4023 77.6332 13.0124C78.2065 12.6334 78.3914 12.0972 78.7613 11.7458ZM78.1603 25.5399C78.5209 23.0159 78.0216 20.7508 75.9318 19.0404C75.599 18.7723 75.2754 18.5874 74.85 18.5134C73.3983 18.2546 71.9374 18.2545 70.4764 18.3562V18.347C70.4764 18.3378 70.4672 18.3378 70.4672 18.3285C70.4949 17.9402 70.8 17.9495 71.0867 17.9217C71.9928 17.8385 72.899 17.9125 73.8052 17.9587C74.0548 17.968 74.3137 18.1066 74.6004 17.8847C74.3507 17.4225 74.3322 16.8862 74.1935 16.3778C74.0826 15.9432 73.9254 15.5272 73.6202 15.2036C72.9637 14.5009 72.2795 13.8075 71.4843 13.2528C70.7168 12.7166 70.2268 12.7351 69.4963 13.3268C68.812 13.8815 68.1556 14.4547 67.4898 15.0372C67.1662 15.3145 67.2032 15.4717 67.6008 15.6659C67.7302 15.7306 67.8689 15.7953 68.0169 15.8138C69.2097 15.9617 69.8846 16.6828 70.2268 17.783C70.2822 17.9679 70.3839 18.1436 70.4579 18.3285C70.4579 18.3378 70.4579 18.347 70.4579 18.3562C70.4672 18.3562 70.4672 18.3562 70.4672 18.3562C70.5134 18.6521 70.5319 18.911 70.1805 19.0866C69.5703 19.3825 69.561 19.4102 69.7459 20.0297C70.7261 23.3303 70.8093 26.6586 70.1435 30.0331C69.6073 32.779 68.7843 35.4324 67.6562 37.9934C67.5268 38.2892 67.4436 38.659 66.9997 38.77C66.9165 38.3169 67.1292 37.9841 67.2679 37.642C67.9151 36.0981 68.5069 34.5356 68.96 32.9269C70.162 28.6186 70.6244 24.2918 69.2281 19.928C69.1542 19.7061 69.1634 19.4287 68.9785 19.2808C68.4052 18.8278 68.1001 18.1898 67.721 17.5981C67.2032 16.803 66.5004 16.276 65.6405 15.9062C63.782 15.1019 61.8679 14.9355 59.8707 15.2313C58.4745 15.4347 57.3094 15.9802 56.3663 17.0434C55.8022 17.6813 55.1919 18.273 54.6649 18.948C53.7495 20.1221 53.093 21.4165 52.7416 22.868C52.6862 23.0806 52.5475 23.3025 52.7601 23.6076C53.842 23.4504 54.8036 24.0699 55.8484 24.301C57.7625 24.717 59.4176 25.6138 60.897 26.862C61.7292 27.5554 62.6631 28.1471 63.1717 29.1548C63.9484 30.6803 64.309 32.289 64.1888 33.9994C64.161 34.3877 64.1056 34.7852 63.8559 35.0718C62.8573 36.1813 62.8388 37.79 61.7662 38.9086C62.6169 39.1213 63.3659 39.2692 64.0593 39.5928C64.7528 39.9164 65.3446 40.4156 65.9919 40.8039C66.2138 40.9426 66.4449 41.0813 66.6761 41.1922C67.6562 41.673 68.1556 42.4866 68.3682 43.5221C68.5624 44.4466 68.5901 45.3804 68.5809 46.3234C68.5809 46.5453 68.5254 46.7764 68.6919 47.0908C69.2559 46.3419 69.8107 45.7132 70.4487 45.1493C71.0959 44.576 71.5952 43.8919 71.9651 43.1153C72.3997 42.2185 72.899 41.3494 73.4538 40.5173C75.2476 37.8177 76.237 34.7667 77.0507 31.6788C77.6055 29.6818 77.8644 27.6016 78.1603 25.5399ZM75.3308 9.20336C74.8685 8.94449 74.6096 8.97223 74.4432 9.4345C74.36 9.67487 74.175 9.88752 74.0456 10.1187C73.8699 10.4422 73.6017 10.7473 73.7404 11.2651C74.4801 10.7104 74.9332 10.017 75.3308 9.20336ZM74.5264 11.9862C74.5634 11.9492 74.5171 11.7273 74.4524 11.6811C74.212 11.5055 74.1011 11.7181 73.9993 11.8938C74.1658 11.977 74.3322 12.1526 74.5264 11.9862ZM73.9069 9.09242C73.2504 8.89827 73.2504 8.89827 72.9915 9.40677C72.8065 9.76733 72.6031 10.1187 72.4182 10.4792C72.3257 10.6456 72.1963 10.8306 72.3905 11.0155C73.1024 10.5717 73.3798 10.2204 73.9069 9.09242ZM72.9175 11.8475C73.0007 11.8383 73.0747 11.7643 73.0469 11.6626C73.0192 11.5702 72.9637 11.4777 72.8713 11.524C72.4829 11.6904 72.113 11.7181 71.7062 11.5332C71.549 11.4592 71.3363 11.6441 71.2809 11.9677C71.8357 11.9215 72.3812 11.8938 72.9175 11.8475ZM72.187 9.45299C72.4829 8.78733 72.4829 8.75959 71.7524 8.60241C71.512 8.55619 71.2716 8.51921 71.0405 8.49147C69.6905 8.36204 68.396 8.69487 67.1477 9.29582C66.8888 9.42525 66.8518 9.61017 66.8426 9.85979C66.8056 11.0987 66.4819 12.2913 66.0936 13.4562C66.0289 13.6504 65.8439 13.8538 66.0381 14.0941C66.4912 13.5949 66.4912 13.5949 66.5929 12.957C66.7316 11.9955 66.9997 11.0709 67.3511 10.1649C67.4343 9.94299 67.499 9.71186 67.6932 9.55469C67.8967 9.38827 68.0816 9.4345 68.1648 9.69337C68.2388 9.89677 68.1648 10.1002 68.1278 10.3036C67.9891 11.0247 67.7672 11.7273 67.536 12.4207C67.4806 12.5872 67.3141 12.7998 67.6747 12.9662C67.9984 12.4762 68.2295 11.9585 68.3867 11.3853C68.5347 10.849 68.7103 10.3221 68.8953 9.79507C68.9692 9.59167 69.0617 9.29582 69.3668 9.41601C69.6072 9.51771 69.524 9.76733 69.4686 9.96149C69.3114 10.4885 69.1357 11.0062 68.9045 11.7273C69.5703 11.1079 69.9031 10.507 70.2175 9.88752C70.3747 9.57318 70.5226 9.2496 70.6891 8.9445C70.7631 8.81506 70.874 8.69487 71.022 8.71337C71.0497 8.71337 71.0867 8.73186 71.1237 8.75035C71.2993 8.85205 71.2624 9.05544 71.1976 9.2311C71.1329 9.39752 71.0405 9.54544 70.9757 9.71186C70.837 10.0354 70.6706 10.3498 70.5781 10.6826C70.5042 10.9137 70.3839 11.2466 70.6613 11.3945C70.9017 11.5332 71.0774 11.2558 71.2439 11.1079C71.7339 10.6641 71.9281 10.0354 72.187 9.45299ZM69.3021 18.4302C69.6627 18.5504 69.8384 18.4117 69.7459 18.0512C69.5425 17.2561 69.2374 16.5442 68.3035 16.35C67.9891 16.2853 67.6932 16.1743 67.3881 16.0911C67.3511 16.1374 67.3049 16.1744 67.2679 16.2113C67.8134 16.7198 68.2203 17.3208 68.5994 17.9402C68.7658 18.2176 69.0247 18.3378 69.3021 18.4302ZM66.3802 14.7968C66.1583 14.6396 65.9826 14.7598 65.8069 14.7136C65.6405 14.6766 65.4741 14.6304 65.2984 14.6304C65.1227 14.6211 64.9285 14.6674 64.9008 14.88C64.873 15.0464 65.0302 15.1204 65.1689 15.1666C65.3076 15.2128 65.4371 15.2683 65.5758 15.3238C66.186 15.5457 66.1953 15.5457 66.3802 14.7968ZM66.0658 10.0724C66.0658 10.0262 66.0381 9.95224 66.0011 9.93375C65.9179 9.89676 65.8347 9.9245 65.8069 10.017C65.7792 10.1094 65.8254 10.1741 65.9179 10.2111C66.0289 10.2388 66.0566 10.1556 66.0658 10.0724ZM65.0395 11.7181C65.0765 11.3021 65.3908 10.8768 65.0765 10.3868C64.4662 10.8121 63.9761 11.2651 63.5508 11.7921C63.2734 12.1434 63.0977 12.5409 63.1162 13.0032C63.1255 13.1604 63.144 13.2991 63.3289 13.336C63.4953 13.3638 63.6155 13.2713 63.6802 13.1326C63.7635 12.9477 63.8189 12.7443 63.8744 12.5502C63.9484 12.2728 64.0131 11.9862 64.0963 11.7089C64.1333 11.6072 64.2165 11.5147 64.3552 11.5332C64.5124 11.5517 64.5402 11.6904 64.5309 11.7921C64.4662 12.2266 64.3737 12.6519 64.2998 13.0864C64.2073 13.5672 64.1056 14.0479 64.3922 14.6489C64.8268 14.1404 64.8083 13.6689 64.8546 13.2066C64.9008 12.7074 64.9933 12.2173 65.0395 11.7181ZM63.6433 10.8213C63.782 10.6919 63.9946 10.5994 63.9669 10.2758C63.3751 10.2481 62.7648 10.2111 62.1638 10.1834C60.2683 10.0817 58.5854 10.6826 57.032 11.7089C56.7269 11.9123 56.4032 12.1249 56.2738 12.5779C56.6806 12.6704 57.0505 12.7443 57.4111 12.8368C57.9289 12.957 58.419 13.1511 58.8443 13.484C58.9368 13.5579 59.0292 13.6689 58.9738 13.7891C58.8998 13.9555 58.7426 13.937 58.6039 13.8723C58.419 13.7891 58.2433 13.6781 58.0584 13.5949C57.3834 13.2898 56.6344 13.0217 55.9317 13.1789C55.0902 13.3638 54.3043 13.2713 53.4998 13.1511C50.8091 12.7536 48.6547 13.6134 47.1198 15.9155C46.9903 16.1096 46.8516 16.3038 46.7406 16.5072C45.7883 18.1344 45.0578 19.854 44.392 21.6199C44.1331 22.304 43.9944 23.0344 43.9112 23.7648C43.8742 24.0514 43.939 24.338 44.3181 24.264C45.0116 24.1346 45.7235 24.2548 46.4078 24.0329C47.4804 23.6816 48.5807 23.5521 49.6995 23.5891C50.1988 23.6076 50.6981 23.6076 51.1975 23.6076C52.0851 23.6076 52.0944 23.6076 52.307 22.7755C52.6954 21.2131 53.4166 19.817 54.4245 18.5689C55.1827 17.6259 56.0241 16.7753 56.9211 15.971C57.1152 15.7953 57.3741 15.6659 57.4574 15.407C57.5591 15.0927 57.8087 14.9725 58.0769 14.8338C59.3159 14.1589 60.5549 13.4932 61.9974 13.3638C62.321 13.336 62.5244 13.1604 62.5614 12.7998C62.6354 11.977 63.0977 11.376 63.6433 10.8213ZM63.4676 14.6951C63.6987 14.7321 63.7912 14.5934 63.782 14.3808C63.7727 14.1866 63.8282 13.937 63.5878 13.8445C63.3658 13.7613 63.0792 13.6874 62.922 13.8815C62.4689 14.4362 61.7385 14.0664 61.2392 14.427C61.1837 14.464 61.045 14.4455 60.9895 14.3993C60.3515 13.863 59.9632 14.4917 59.4454 14.6489C59.5008 14.7228 59.5193 14.7598 59.5286 14.7598C60.8416 14.6119 62.1546 14.4732 63.4676 14.6951ZM37.8455 46.8227C37.9565 46.7117 38.1414 46.6193 38.0582 46.3881C34.8404 45.7964 32.9079 43.6423 31.4192 40.8871C29.6901 42.0428 28.6082 43.6885 27.8963 45.593C27.813 45.8242 27.6836 46.1108 27.9055 46.3419C28.1552 46.6008 28.3956 46.3696 28.6268 46.2772C28.9781 46.1385 29.3202 45.9628 29.6716 45.8149C30.1709 45.6115 30.6887 45.5376 31.225 45.593C31.8908 45.667 32.3808 46.0091 32.686 46.5915C32.8524 46.9244 32.8247 47.211 32.4548 47.3774V47.3681C32.4456 47.3681 32.4456 47.3681 32.4363 47.3681C32.1127 46.1662 31.4377 45.7502 30.2449 46.0645C29.7918 46.1847 29.3665 46.3881 28.9411 46.573C28.3216 46.8504 27.6929 47.0076 26.9994 47.063C26.0655 47.137 25.1316 47.2202 24.1977 47.211C23.9573 47.2017 23.6984 47.2295 23.6891 47.553C23.6429 48.718 23.5319 49.8829 23.9388 51.02C24.2994 50.2712 24.3456 49.4576 24.4843 48.6717C24.5213 48.4683 24.5213 48.2649 24.549 48.0615C24.5768 47.8859 24.6323 47.6917 24.8357 47.6732C25.1131 47.6547 25.1593 47.8951 25.1871 48.0985C25.1963 48.1447 25.1963 48.2002 25.2055 48.2464C25.224 48.4868 25.2148 48.7272 25.2518 48.9676C25.3535 49.7997 25.3905 50.6502 25.8066 51.4453C26.3521 50.6502 26.3706 50.5578 26.0655 49.8089C25.8713 49.3466 25.6494 48.9029 25.4645 48.4406C25.4367 48.3759 25.3997 48.3019 25.3997 48.2187C25.3997 48.1355 25.446 48.043 25.6216 47.9783C25.9175 48.5608 26.2134 49.1432 26.5185 49.7534C26.7127 49.5315 26.6387 49.3097 26.6942 49.1247C26.7774 48.8289 26.7312 48.4129 27.1011 48.3112C27.5264 48.2002 27.5449 48.6902 27.7668 48.8936C27.998 48.8012 27.9702 48.4868 28.2014 48.3759C28.5065 48.2464 28.6175 48.6255 28.9042 48.6163C28.9042 48.3019 28.8949 48.0153 28.9042 47.7195C28.9134 47.5623 28.9689 47.4236 29.1445 47.4051C29.311 47.3866 29.4127 47.5068 29.4682 47.6547C29.5421 47.8489 29.5884 48.043 29.6531 48.2464C29.801 48.6995 29.8011 49.1987 30.0969 49.6055C30.1524 48.9768 30.1432 48.3666 30.1524 47.7472C30.1617 47.5161 30.1986 47.2849 30.2541 47.0538C30.2819 46.9151 30.3651 46.7764 30.5315 46.7487C30.7442 46.721 30.8644 46.8504 30.9199 47.0261C31.0308 47.3589 31.1233 47.6917 31.2065 48.0338C31.299 48.3851 31.3637 48.7457 31.4377 49.097C31.5486 48.6717 31.5949 48.2649 31.6411 47.8581C31.7058 47.3774 31.9925 47.2294 32.4363 47.3404C32.4363 47.3496 32.4363 47.3496 32.4456 47.3589C32.4548 47.3589 32.4548 47.3496 32.4641 47.3496C32.538 47.7379 32.464 48.2649 33.176 48.043C33.3332 47.9968 33.4257 48.2649 33.4719 48.4313C33.6014 48.9398 33.7216 49.4576 33.8233 49.9753C33.8695 50.1972 33.9527 50.4283 33.7771 50.5948C33.6014 50.678 33.5089 50.53 33.4164 50.5393C32.8247 50.641 32.6767 50.2989 32.575 49.8181C32.4825 49.3836 32.4363 48.9306 32.1404 48.4221C31.9555 49.5038 32.0202 50.4746 31.9925 51.4361C31.9832 51.7042 31.9832 51.9631 31.9555 52.2312C31.9462 52.3514 31.8908 52.4623 31.7521 52.4808C31.5764 52.5085 31.4747 52.3976 31.4377 52.2497C31.3915 52.0833 31.3822 51.8983 31.3452 51.7319C31.1788 50.7519 31.0308 49.7627 30.8551 48.7827C30.8274 48.644 30.9106 48.4129 30.587 48.4036C30.587 49.0878 30.587 49.7627 30.587 50.4376C30.587 50.9923 30.5963 51.5563 30.587 52.111C30.587 52.2867 30.5778 52.4901 30.3558 52.527C30.1339 52.5548 30.0599 52.3699 30.023 52.1942C29.9305 51.8059 29.8473 51.4084 29.7456 50.9368C29.6069 51.3067 29.7363 51.5933 29.7178 51.8799C29.7086 52.037 29.6624 52.1757 29.4774 52.185C29.3387 52.1942 29.2647 52.074 29.237 51.9631C29.0613 51.2789 28.9134 50.5948 28.7377 49.9106C28.673 49.6795 28.6545 49.4114 28.2846 49.1895C28.2661 49.8921 28.2569 50.4653 28.2199 51.0478C28.2014 51.3067 28.3493 51.7412 27.924 51.7319C27.5911 51.7227 27.7021 51.3159 27.6651 51.0755C27.5726 50.4191 27.5819 49.7442 27.2583 49.1063C26.9994 49.3559 27.0641 49.6332 27.0548 49.8829C27.0364 50.5023 27.0641 51.1125 27.1565 51.7227C27.175 51.8336 27.1473 51.9631 27.0179 52.0185C26.8329 52.0925 26.759 51.9538 26.685 51.8336C26.6295 51.7504 26.6665 51.584 26.4908 51.6117C25.8251 52.3236 25.5292 52.2497 25.1685 51.3344C25.0483 51.02 25.0946 50.641 24.7895 50.3451C24.6785 50.7057 24.6045 51.0108 24.4936 51.3159C24.4011 51.5655 24.2809 51.8244 23.9665 51.8429C23.6984 51.8521 23.5597 51.6487 23.4579 51.4176C23.4025 51.2882 23.3747 51.131 23.1898 51.057C23.1066 51.2419 23.0326 51.4361 22.9402 51.6117C22.82 51.8521 22.672 52.0925 22.3576 52.0833C22.0063 52.074 21.8861 51.7782 21.7659 51.5101C21.6549 51.2697 21.7011 50.9461 21.4515 50.7057C21.3682 50.8536 21.3128 50.9646 21.248 51.057C20.8412 51.6672 20.7765 51.6857 20.2124 51.1957C20.0737 51.0755 20.0182 51.0848 19.8518 51.1402C19.2785 51.3251 19.1676 51.2512 18.9457 50.7057C18.8717 50.5208 18.9087 50.2897 18.7515 50.1325C17.9101 50.4006 17.7713 50.3174 17.5864 49.4298C17.5217 49.134 17.4755 48.8381 17.4015 48.4036C17.2628 48.8196 17.1796 49.097 17.0686 49.3651C16.9577 49.6332 16.8467 49.9568 16.4768 49.9014C16.1717 49.8551 16.0885 49.5685 16.0423 49.3004C15.9775 48.9306 15.9221 48.5515 15.8943 48.1725C15.8666 47.8489 15.8851 47.5253 15.8851 47.1925C15.6354 47.5253 15.5245 47.8581 15.395 48.1817C15.3025 48.4036 15.1731 48.6255 14.8864 48.5885C14.609 48.5515 14.5166 48.3112 14.4796 48.08C14.4056 47.627 14.3501 47.1647 14.2854 46.7025C14.0265 46.7302 14.0358 46.9613 13.9156 47.0815C13.6012 47.3866 13.3423 47.3496 13.1943 46.9336C13.1111 46.721 13.0834 46.4806 13.0741 46.2495C13.0556 45.8149 13.0649 45.3804 13.0649 44.9366C12.2882 45.0013 12.2604 44.9736 12.168 44.3172C12.1402 44.1323 12.242 43.9104 12.057 43.7625C11.8536 43.8272 11.8351 44.0306 11.7149 44.16C11.3173 44.576 10.9474 44.5298 10.8272 43.9843C10.5776 42.8657 10.3742 41.7377 10.6885 40.5913C10.7718 40.3047 10.8365 40.0181 11.0861 39.8239C11.2433 39.7037 11.382 39.4911 11.6132 39.5743C11.8444 39.6575 11.8628 39.8979 11.8351 40.1013C11.7519 40.8224 11.7704 41.5621 11.4283 42.2462C11.1878 42.7362 11.0122 43.254 11.2526 43.8087C11.5577 43.7532 11.5854 43.5221 11.6594 43.3464C11.8813 42.8009 12.057 42.237 12.168 41.6638C12.242 41.2939 12.2882 40.9149 12.3807 40.5358C12.4269 40.3232 12.4176 39.9904 12.7505 40.0551C13.0094 40.1013 12.9169 40.3879 12.8984 40.5821C12.88 40.7854 12.8152 40.9796 12.7875 41.183C12.6765 42.1168 12.4731 43.0506 12.658 44.1692C13.1111 43.143 13.1943 42.2092 13.3885 41.2939C13.4625 40.9704 13.4163 40.3694 13.7676 40.4249C14.2762 40.5081 13.9618 41.0628 13.9063 41.3864C13.6382 42.8379 13.518 44.2894 13.4995 45.7594C13.4995 45.9721 13.4162 46.231 13.6844 46.3789C13.8601 46.231 13.8878 46.0183 13.9433 45.8242C14.2022 44.8904 14.3594 43.9381 14.4796 42.9766C14.5073 42.7455 14.5443 42.5143 14.5906 42.2832C14.6183 42.1723 14.7015 42.0706 14.8402 42.0798C14.9604 42.089 15.0251 42.1723 15.0436 42.274C15.0436 42.2924 15.0436 42.3017 15.0436 42.3202C15.0436 42.579 15.0529 42.8472 15.0159 43.106C14.831 44.3634 14.8402 45.6208 14.8495 46.8874C14.8495 47.1647 14.8864 47.4421 14.9142 47.7472C15.0251 47.6732 15.0991 47.6547 15.1084 47.6178C15.4505 46.5176 15.5984 45.3804 15.8203 44.2617C15.8388 44.1508 15.8481 44.0121 15.8019 43.9196C15.543 43.3741 15.3765 42.8009 15.2378 42.2277C15.0991 41.636 14.9974 41.0351 14.868 40.4434C14.6275 39.3062 13.9526 38.8902 12.9539 38.7237C12.6673 38.6775 12.3714 38.622 12.0847 38.6035C10.6793 38.5203 9.85636 39.2507 9.79163 40.656C9.76389 41.2385 9.83786 41.8302 9.82861 42.4126C9.80087 44.0491 10.5868 45.3249 11.6039 46.5083C11.7981 46.7302 11.9923 46.9521 12.2142 47.1462C13.0741 47.9413 13.9156 48.7642 14.8217 49.513C16.0608 50.53 17.4662 51.2512 19.0659 51.5193C20.0182 51.6765 20.9706 51.8799 21.8768 52.2312C23.5967 52.9061 25.409 53.0725 27.2305 53.128C27.5172 53.1372 27.8223 53.2019 28.035 52.9153C28.1367 52.7767 28.3216 52.7859 28.4141 52.9246C28.8487 53.5533 29.5421 53.5163 30.1617 53.5718C30.9569 53.6365 31.7983 53.8953 32.5195 53.2667C32.5842 53.2112 32.6952 53.2019 32.7414 53.2852C32.7784 53.3499 32.8062 53.4608 32.7784 53.5255C32.6212 53.9416 32.2699 54.0433 31.863 54.0617C31.0586 54.0895 30.2541 54.0155 29.3295 53.9601C29.949 54.9493 30.5408 55.8184 30.7535 56.8723C30.7997 57.1035 30.9938 57.0942 31.1788 57.0388C32.6212 56.6505 34.0914 56.8076 35.5616 56.7706C36.0332 56.7614 36.5048 56.7521 36.9671 56.6967C37.5866 56.632 37.6421 56.5488 37.4664 55.9848C37.3185 55.4763 37.1243 54.9863 36.9486 54.487C36.4678 53.1465 36.2181 51.7782 36.3383 50.3451C36.44 49.023 36.8654 47.8119 37.8455 46.8227ZM23.0789 47.553C23.0789 47.2572 22.9124 47.137 22.6535 47.0908C21.7289 46.9151 20.8135 46.7395 19.8888 46.5638C19.6114 46.5083 19.4542 46.5638 19.408 46.8874C19.2693 47.9044 19.1768 48.9306 19.2785 49.9568C19.297 50.1695 19.2878 50.4191 19.5652 50.5948C19.8426 50.1048 19.8888 49.5963 19.9166 49.0693C19.9535 48.5423 20.0183 48.0246 20.0922 47.4976C20.1107 47.3496 20.2217 47.2295 20.3974 47.2664C20.5176 47.2942 20.6008 47.3959 20.61 47.5161C20.61 47.7749 20.6193 48.043 20.5823 48.3019C20.4898 48.9768 20.4528 49.6425 20.4991 50.3174C20.5083 50.5023 20.4621 50.7427 20.758 50.8351C20.9984 50.4931 21.0631 50.0863 21.1463 49.6887C21.2758 49.0323 21.3682 48.3574 21.4792 47.701C21.5162 47.4976 21.5347 47.2387 21.8121 47.2849C22.0617 47.3219 22.0525 47.5808 22.0432 47.7842C22.0248 48.043 21.997 48.3112 21.9878 48.57C21.9785 49.5315 21.9415 50.4931 22.3669 51.4083C22.9217 50.1695 23.0696 48.8751 23.0789 47.553ZM18.9734 46.4991C19.0196 46.3511 18.8994 46.2864 18.7977 46.2495C18.585 46.1755 18.3816 46.0276 18.0673 46.083C17.8638 47.7195 17.9285 48.9583 18.2337 49.5223C18.2799 49.4853 18.3354 49.4483 18.3539 49.4021C18.7885 48.4868 18.659 47.4421 18.9734 46.4991ZM17.2813 46.3974C17.457 45.5006 17.4385 45.5006 16.4121 44.9828C16.2734 46.4251 16.2179 47.7657 16.5601 49.097C16.9947 48.2372 17.0964 47.3034 17.2813 46.3974Z" fill="black"/>
<path d="M79.3437 12.1533C79.3632 13.0701 79.129 13.776 78.8655 14.4728C78.7387 14.8028 78.4459 14.8211 78.1824 14.6653C78.0555 14.5919 77.9286 14.5094 77.8115 14.4269L77.9969 14.2894C78.0457 14.3353 78.1238 14.3536 78.2409 14.3169C78.5044 14.2528 78.3385 13.9044 78.4068 13.6935C78.5923 13.1618 78.8167 12.6759 79.3437 12.1533Z" fill="#13751E"/>
<path d="M78.6774 11.0484C78.9063 11.2921 78.9888 11.4983 78.6957 11.789C78.3294 12.1452 78.1462 12.689 77.5693 13.0733C77.5784 12.4546 77.7891 12.0327 77.9356 11.5921C77.9997 11.3952 78.1096 11.1702 77.9173 11.0202C77.6792 10.8234 77.496 11.0484 77.3128 11.189C77.0198 11.4234 76.7725 11.714 76.3879 11.7984C76.2139 11.5265 76.397 11.3202 76.4428 11.1046C76.5069 10.7859 76.9374 10.364 76.5802 10.1577C76.1314 9.90462 76.0673 10.5609 75.8109 10.7952C75.5911 11.0109 75.4446 11.3202 75.0508 11.4327C75.0599 10.6452 75.5178 10.1202 75.8292 9.53899C75.93 9.35149 76.1131 9.37025 76.2871 9.45463C77.148 9.88587 77.9997 10.3265 78.6774 11.0484Z" fill="#13751E"/>
<path d="M75.9316 19.0094C78.0305 20.7225 78.5297 22.9912 78.1599 25.5192C77.864 27.5841 77.5959 29.6676 77.0689 31.677C76.2552 34.7698 75.2659 37.8256 73.4721 40.5295C72.9174 41.3629 72.4181 42.2241 71.9835 43.1316C71.6044 43.9001 71.1051 44.5854 70.4672 45.1687C69.8384 45.7336 69.2744 46.3633 68.7104 47.1133C68.5347 46.7985 68.5995 46.5577 68.5995 46.3448C68.5995 45.4002 68.581 44.465 68.3868 43.539C68.1649 42.5019 67.6656 41.687 66.6948 41.2055C66.4544 41.0944 66.2325 40.9462 66.0106 40.8166C65.3541 40.4184 64.7716 39.9276 64.0781 39.6035C63.3847 39.2794 62.6357 39.1313 61.7851 38.9183C62.8669 37.7886 62.8761 36.1866 63.8747 35.0754C64.1336 34.7884 64.1798 34.3902 64.2076 34.0013C64.3278 32.2882 63.9672 30.6677 63.1905 29.1491C62.682 28.1397 61.7389 27.5471 60.916 26.8526C59.4366 25.6118 57.7815 24.7043 55.8676 24.2876C54.8135 24.0561 53.8612 23.4449 52.7794 23.5931C52.5667 23.2875 52.7054 23.0653 52.7609 22.8523C53.1123 21.3985 53.7687 20.1021 54.6841 18.9261C55.2111 18.2594 55.8214 17.6575 56.3854 17.0185C57.3285 15.9537 58.4935 15.4166 59.8896 15.2036C61.8868 14.9073 63.8007 15.074 65.6592 15.8796C66.5191 16.25 67.2218 16.787 67.7396 17.5741C68.1187 18.1575 68.433 18.8057 68.997 19.2595C69.1819 19.4076 69.1727 19.6854 69.2467 19.9077C70.6428 24.2783 70.1805 28.612 68.9785 32.9271C68.5255 34.5476 67.9337 36.1033 67.2865 37.6497C67.1386 37.9923 66.9352 38.3257 67.0184 38.7794C67.4622 38.6683 67.5454 38.2979 67.6749 38.0016C68.7936 35.4366 69.6258 32.779 70.162 30.0288C70.8185 26.6489 70.7353 23.3153 69.7645 20.0095C69.5795 19.3891 69.5888 19.3613 70.199 19.065C70.5504 18.8891 70.5319 18.6298 70.4857 18.3335C71.9465 18.2316 73.4074 18.2316 74.8591 18.4909C75.2751 18.5557 75.5987 18.7409 75.9316 19.0094ZM77.5127 25.4266C77.7161 24.8062 77.7623 24.1672 77.7346 23.6301C77.7346 23.2505 77.7438 22.9912 77.7346 22.7227C77.7068 21.7504 77.1706 21.0744 76.3939 20.5836C75.9131 20.278 75.3861 20.2688 74.896 20.5744C74.406 20.8799 74.3505 21.3707 74.4152 21.8893C74.4337 22.0652 74.4522 22.2412 74.517 22.4078C74.9515 23.6487 75.5063 24.8432 75.7744 26.1488C75.9131 26.8341 76.5696 26.8989 77.0411 26.3618C77.2815 26.0933 77.4017 25.7599 77.5127 25.4266ZM68.3036 22.3245C68.2851 22.0652 68.2851 21.6485 68.2204 21.2503C68.0724 20.4632 67.6656 19.8336 66.9352 19.4632C66.4081 19.1946 66.0383 19.3706 65.8534 19.9262C65.7794 20.1484 65.7239 20.3799 65.8071 20.6114C66.1215 21.5004 66.1677 22.4449 66.4174 23.3523C66.5191 23.7227 66.6208 24.0931 66.8334 24.408C66.9999 24.658 67.2125 24.871 67.5454 24.8247C67.8505 24.7784 67.9615 24.5376 68.0632 24.2876C68.2758 23.7042 68.2573 23.0931 68.3036 22.3245ZM59.9359 19.9354C59.9081 19.3058 59.5938 18.9909 59.1592 18.7502C58.475 18.3798 58.3733 18.3983 57.9572 19.028C57.6151 19.5465 57.3747 20.1114 57.199 20.704C57.1251 20.9633 57.0788 21.2226 57.1158 21.4911C57.2175 22.1949 58.2438 22.806 58.6784 22.3893C59.3904 21.7041 59.7694 20.8151 59.9359 19.9354Z" fill="#F71506"/>
<path d="M77.8108 14.1666L77.64 14.3C77.4511 14.1666 77.2803 14.0155 77.1095 13.8555C76.4531 13.2421 75.8596 12.5486 74.8975 12.1841C75.2931 11.9263 75.4909 11.6063 75.8596 12.1219C76.1563 12.5308 76.5879 12.1219 76.9476 12.0508C77.1544 12.1752 77.0645 12.353 77.0285 12.5042C76.9116 12.9842 76.8847 13.411 77.4871 13.5799C77.5321 13.5977 77.577 13.651 77.613 13.6866C77.7119 13.8199 77.7029 14.0689 77.8108 14.1666Z" fill="#13751E"/>
<path d="M77.6501 23.6674C77.6781 24.1969 77.6315 24.8268 77.4266 25.4385C77.3148 25.7671 77.1937 26.0958 76.9516 26.3605C76.4858 26.8991 75.8245 26.8352 75.6755 26.1505C75.4054 24.8633 74.8465 23.6857 74.4087 22.4623C74.3529 22.298 74.3342 22.1246 74.3063 21.9511C74.2411 21.4399 74.297 20.956 74.7906 20.6548C75.2843 20.3535 75.8152 20.3626 76.2996 20.6639C77.082 21.1477 77.6129 21.8142 77.6501 22.7727C77.6501 23.0375 77.6501 23.2931 77.6501 23.6674ZM76.6908 25.8219C77.0633 25.1372 77.1192 24.3977 77.082 23.64C77.082 23.4118 77.0726 23.1744 77.082 22.9462C77.1192 22.2432 76.756 21.7411 76.253 21.3121C75.8804 21.0017 75.3961 20.9378 75.1166 21.1477C74.772 21.4034 74.8372 21.7503 74.9304 22.0972C74.949 22.1793 74.9583 22.2706 74.9956 22.3528C75.4426 23.4483 75.6755 24.5986 75.9922 25.7306C76.0481 25.9132 76.0574 26.1688 76.3275 26.1597C76.5324 26.1505 76.6069 25.9679 76.6908 25.8219Z" fill="black"/>
<path d="M77.034 23.5482C77.0698 24.3176 77.0251 25.0684 76.6585 25.7637C76.5781 25.912 76.4976 26.1067 76.3099 26.1067C76.0416 26.1067 76.0327 25.8564 75.988 25.671C75.684 24.5215 75.4605 23.3535 75.0314 22.2412C75.0045 22.1577 74.9956 22.0743 74.9688 21.9816C74.8794 21.6294 74.8168 21.2771 75.1476 21.0175C75.4158 20.8043 75.8807 20.8692 76.2383 21.1844C76.7301 21.6201 77.0787 22.1299 77.034 22.8437C77.0251 23.0754 77.034 23.3165 77.034 23.5482Z" fill="#FFA9A3"/>
<path d="M74.5865 9.46752C74.7502 9.0216 75.0294 8.99485 75.5109 9.24456C75.0968 10.0205 74.625 10.6893 73.8642 11.2333C73.7198 10.7339 73.9991 10.4396 74.182 10.1275C74.3072 9.89559 74.4998 9.69939 74.5865 9.46752Z" fill="#13751E"/>
<path d="M74.4886 11.6054C74.5704 11.6542 74.6215 11.898 74.5704 11.9273C74.3558 12.1029 74.1718 11.9176 73.9775 11.82C74.1002 11.6444 74.2126 11.4298 74.4886 11.6054Z" fill="#13751E"/>
<path d="M74.1821 16.3166C74.3123 16.8302 74.3403 17.3623 74.5914 17.8385C74.3031 18.0626 74.0426 17.9225 73.7914 17.9132C72.8797 17.8665 71.968 17.7918 71.0563 17.8759C70.7679 17.9039 70.4609 17.8945 70.433 18.2867C70.3493 18.1093 70.2563 17.9319 70.2005 17.7358C69.8469 16.6247 69.1771 15.8965 67.9771 15.7471C67.8375 15.7284 67.6887 15.6631 67.5584 15.5977C67.1584 15.4016 67.1305 15.2523 67.4468 14.9628C68.1073 14.384 68.7771 13.7957 69.4655 13.2355C70.2098 12.638 70.6935 12.61 71.4657 13.1608C72.2657 13.721 72.9541 14.4213 73.6146 15.1309C73.9123 15.4577 74.0705 15.8778 74.1821 16.3166Z" fill="#F71506"/>
<path d="M73.0231 9.3571C73.3027 8.86097 73.2931 8.86097 73.9777 9.0504C73.4184 10.1509 73.1291 10.4937 72.3963 10.9267C72.1938 10.7463 72.3288 10.5658 72.4252 10.4035C72.6181 10.0517 72.8302 9.7089 73.0231 9.3571Z" fill="#13751E"/>
<path d="M73.0516 11.5457C73.0804 11.6586 73.0036 11.7338 72.9172 11.7338C72.3603 11.7808 71.7939 11.809 71.2178 11.8467C71.2754 11.5175 71.4962 11.3293 71.6594 11.4046C72.0819 11.6021 72.4659 11.5645 72.8692 11.3952C72.9652 11.3575 73.0228 11.4516 73.0516 11.5457Z" fill="#13751E"/>
<path d="M71.7926 8.58325C72.5622 8.73895 72.5622 8.76644 72.2447 9.42589C71.9754 10.0029 71.7733 10.6257 71.2346 11.0654C71.0518 11.2119 70.8691 11.4867 70.6285 11.3493C70.3399 11.1936 70.4746 10.873 70.5419 10.644C70.6478 10.3143 70.8113 10.0029 70.9556 9.68234C71.0326 9.52663 71.1192 9.37093 71.1865 9.20607C71.2538 9.04121 71.2923 8.83971 71.1096 8.7298C71.0711 8.71148 71.0422 8.70232 71.0037 8.69316L71.023 8.47334C71.2923 8.50082 71.5425 8.53745 71.7926 8.58325Z" fill="#13751E"/>
<path d="M71.0649 8.49793L71.0465 8.72165C70.8994 8.703 70.789 8.82418 70.7155 8.95468C70.55 9.26229 70.4121 9.58853 70.2466 9.90546C69.934 10.5207 69.603 11.1266 68.941 11.7604C69.1708 11.0333 69.3455 10.5113 69.5018 9.98003C69.557 9.78428 69.6397 9.5326 69.4007 9.43007C69.0973 9.30889 69.0054 9.60717 68.9318 9.81224C68.7479 10.3436 68.5732 10.8749 68.4261 11.4155C68.2698 11.9841 68.0399 12.5154 67.7181 13.0095C67.3596 12.8417 67.5251 12.6273 67.5802 12.4595C67.8101 11.7604 68.0307 11.052 68.1687 10.3249C68.2054 10.1198 68.279 9.91478 68.2054 9.70971C68.1135 9.45803 67.9388 9.41143 67.7365 9.56989C67.5434 9.72835 67.4791 9.96138 67.3963 10.1851C67.047 11.0986 66.7895 12.0307 66.6424 13.0002C66.5504 13.6527 66.5413 13.6526 66.0907 14.1467C65.8976 13.9136 66.0815 13.7086 66.1459 13.5035C66.5321 12.3197 66.8539 11.1266 66.8907 9.8775C66.8998 9.62582 66.9274 9.43006 67.1941 9.30889C68.4353 8.71232 69.7133 8.37675 71.0649 8.49793Z" fill="#13751E"/>
<path d="M70.4604 18.3144C70.4512 18.3144 70.4512 18.3144 70.4512 18.3144C70.4512 18.3052 70.4512 18.2959 70.4512 18.2867C70.4512 18.2959 70.4604 18.3052 70.4604 18.3052V18.3144Z" fill="#F71506"/>
<path d="M69.894 11.537C70.0235 11.6943 70.1437 11.8515 70.3101 12.055C69.1173 12.6932 68.2574 13.7476 67.1016 14.4043C67.6101 14.0898 67.8875 13.5718 68.1742 13.0816C68.3776 12.7302 68.5348 12.3787 69.0064 12.277C69.3855 12.1937 69.5242 11.7405 69.894 11.537Z" fill="#13751E"/>
<path d="M69.7456 18.03C69.8381 18.3907 69.6624 18.5294 69.3018 18.4092C69.0244 18.3167 68.7655 18.1965 68.5991 17.9282C68.2107 17.3086 67.8039 16.7074 67.2676 16.1986C67.3138 16.1617 67.3508 16.1154 67.3878 16.0784C67.6929 16.1709 67.998 16.2726 68.3032 16.3374C69.2371 16.5224 69.5422 17.2438 69.7456 18.03Z" fill="#13751E"/>
<path d="M68.2198 21.2579C68.2938 21.6556 68.2845 22.0718 68.303 22.3308C68.2568 23.0892 68.2845 23.7089 68.0533 24.2916C67.9516 24.5414 67.8407 24.7818 67.5356 24.8281C67.1934 24.8743 66.99 24.6616 66.8236 24.4119C66.6109 24.0882 66.5092 23.7274 66.4075 23.3575C66.1578 22.451 66.1116 21.5076 65.7972 20.6197C65.714 20.3885 65.7787 20.1573 65.8434 19.9353C66.0284 19.3803 66.3982 19.2046 66.9253 19.4728C67.665 19.8428 68.0718 20.4717 68.2198 21.2579ZM67.6188 24.1344C67.8129 23.6072 67.8407 23.0522 67.8499 22.488C67.8129 22.1088 67.8129 21.7296 67.7482 21.3596C67.6557 20.8602 67.4153 20.4255 66.9992 20.111C66.5924 19.8058 66.3612 19.8983 66.3058 20.3977C66.2873 20.5735 66.2688 20.7492 66.3058 20.9249C66.4814 21.8128 66.6664 22.7008 66.8698 23.5794C66.9253 23.8014 67.0362 24.0234 67.1657 24.2084C67.3321 24.4396 67.5263 24.3934 67.6188 24.1344Z" fill="black"/>
<path d="M67.8132 43.5207C68.1183 45.2965 68.183 47.0816 67.6652 48.839C67.545 49.2274 67.3971 49.6066 67.5913 50.0321C67.7022 50.2818 67.5728 50.5593 67.4988 50.809C67.055 52.4369 66.3245 53.9075 65.3166 55.2856C63.9297 57.1817 62.3947 58.8558 60.3512 60.0674C59.6023 60.5114 58.9365 61.1219 58.2708 61.6953C56.1996 63.4989 53.888 64.9233 51.4931 66.2644C49.875 67.1708 48.1921 67.7628 46.389 68.0957C45.2055 68.3085 43.9942 68.3085 42.8014 68.4472C41.0538 68.6507 39.3062 68.8449 37.5309 68.8079C36.708 68.7894 35.9035 68.7247 35.1453 68.3177C34.7939 68.1235 34.3871 68.0125 33.9895 67.9015C33.37 67.7165 32.9816 67.3188 32.8059 66.7084C32.7227 66.4309 32.6487 66.1442 32.6025 65.8574C32.3621 64.3868 32.51 62.9254 32.9169 61.5011C33.185 60.5576 33.5641 59.6697 34.4333 59.0963C34.5535 59.0223 34.6922 58.9021 34.535 58.7448C34.4426 58.6523 34.3223 58.6986 34.2114 58.7633C33.6196 59.1425 33.2128 59.6697 32.9354 60.2987C32.1217 62.1115 31.9183 64.0169 32.1864 65.9777C32.2326 66.2921 32.3066 66.6066 32.3713 66.9118C32.1679 67.0228 32.0755 66.8841 32.0015 66.7823C30.9012 65.2562 29.2738 64.6828 27.5447 64.3776C26.2687 64.1556 25.0389 63.7671 23.7998 63.4064C23.6611 63.3694 23.5132 63.3232 23.3745 63.1567C23.6704 62.6387 24.2529 62.3705 24.632 61.908C25.0296 61.4363 25.4549 60.9831 25.8618 60.5299C26.2779 60.0767 26.7125 59.6328 27.1008 59.161C27.4707 58.7078 28.0532 58.4119 28.2382 57.7459C27.8221 57.7274 27.6649 58.0049 27.4799 58.2084C26.5553 59.198 25.6584 60.2062 24.7337 61.1866C24.3361 61.6121 23.92 62.0375 23.4762 62.4167C23.0231 62.8145 22.8382 62.8422 22.4129 62.4167C21.5067 61.4918 20.693 60.4744 20.656 59.0778C20.6375 58.4026 20.6375 57.7274 20.6375 57.0522C20.6375 56.451 20.4341 55.9238 20.1475 55.3966C19.417 54.0647 18.5293 52.8809 17.2625 52.0114C17.1331 51.9189 17.0406 51.771 16.9297 51.6415C18.6773 52.0854 20.4896 52.2427 22.2002 52.8808C23.7074 53.445 25.2885 53.6023 26.8789 53.5653C28.0255 53.5468 28.8392 53.9815 29.394 54.9804C29.8378 55.7758 30.3464 56.5343 30.2169 57.5147C30.1707 57.8292 30.3833 57.9679 30.6607 57.8569C32.3898 57.1817 34.1929 57.4499 35.9775 57.3944C36.7449 57.3667 37.5032 57.3297 38.2244 57.0337C38.6867 56.8395 38.7052 56.71 38.2799 56.3678C38.1227 56.2383 38.0672 56.0903 38.0117 55.9331C37.6973 54.9897 37.3552 54.0462 37.0778 53.0936C36.7172 51.8264 36.7264 50.5131 37.0871 49.2644C37.5124 47.7846 38.3723 46.6284 39.9997 46.2862C40.4898 46.1845 40.9706 46.055 41.4699 45.9995C43.31 45.7867 45.1038 45.3613 46.9623 45.2318C48.599 45.1115 50.1986 44.6861 51.7613 44.1496C53.0373 43.7057 54.3318 43.3172 55.691 43.2062C55.8112 43.197 55.9222 43.1785 56.0331 43.1507C56.1533 43.123 56.2551 43.0397 56.2273 42.9102C56.2088 42.8455 56.1256 42.7715 56.0516 42.7438C55.8297 42.642 55.5893 42.7068 55.3581 42.7345C54.3318 42.827 53.3332 43.0675 52.3623 43.419C50.0876 44.2421 47.739 44.7046 45.3257 44.9266C43.9572 45.0468 42.598 45.3428 41.2387 45.574C40.6007 45.685 39.972 45.7682 39.3247 45.8145C37.5864 45.944 36.0884 45.3983 34.7662 44.3069C33.9432 43.6317 33.2868 42.7993 32.6303 41.9761C32.3066 41.5691 32.1309 41.1159 32.2974 40.5795C32.3898 40.2835 32.3713 40.0615 32.02 39.9598C31.7148 39.8673 31.6686 39.5713 31.6224 39.3216C31.3172 37.6752 31.1878 36.0011 31.271 34.327C31.308 33.6148 31.6501 32.9766 32.0662 32.3939C32.5285 31.7465 33.0833 31.1823 33.6936 30.6643C34.5628 29.9244 35.5152 29.277 36.4676 28.6388C36.7265 28.4723 37.0686 28.3613 37.1056 27.9728C36.9021 27.7694 36.7079 27.9081 36.5415 28.0098C35.0436 28.944 33.6011 29.9429 32.3713 31.2285C31.1416 32.5049 30.559 33.9848 30.7717 35.7976C30.9381 37.1943 30.8457 38.6186 31.3265 39.969C31.4559 40.339 31.16 40.4962 30.9289 40.6719C29.7546 41.5506 28.8577 42.6513 28.1734 43.9462C27.8313 44.5936 27.4892 45.2503 27.3782 45.981C27.3228 46.3417 27.1471 46.4619 26.8142 46.5174C26.0005 46.6654 25.1776 46.6932 24.3546 46.6654C22.4961 46.6007 20.6653 46.3047 18.9177 45.6758C16.9204 44.9543 17.392 44.6306 18.1225 43.3727C18.7512 42.2813 19.7314 41.6061 20.767 40.9772C20.9797 40.8477 21.1923 40.8384 21.442 40.8662C22.0892 40.9494 22.6995 41.1437 23.3005 41.4026C24.2714 41.8188 25.2423 42.2443 26.2224 42.642C26.4721 42.7438 26.7402 42.9565 27.0454 42.7438C27.0084 42.4015 26.7125 42.3645 26.4813 42.2628C25.2053 41.7264 23.9385 41.1899 22.6533 40.6904C22.1817 40.5055 21.8766 40.1725 21.6639 39.7563C21.3495 39.1273 21.0814 38.4706 20.8964 37.7955C20.2677 35.4647 20.9981 33.5501 22.7642 32.024C24.6598 30.3869 26.7402 29.018 29.0518 28.0191C29.3755 27.8804 29.7084 27.7601 30.0135 27.5936C32.4176 26.271 35.0066 25.5866 37.7066 25.2536C38.2336 25.1888 38.7422 25.0686 39.2692 24.9854C40.3696 24.7911 41.4607 24.7264 42.5887 24.8374C43.911 24.9669 45.261 25.0316 46.574 24.5044C47.6188 24.0789 48.7469 24.0419 49.875 24.0789C50.1986 24.0882 50.5222 24.1622 50.8366 24.1252C53.1945 23.8755 55.3397 24.6801 57.5126 25.4108C58.8903 25.8733 59.8889 26.8999 61.0355 27.7046C63.0882 29.166 63.6338 31.2933 63.6523 33.6518C63.6523 34.1975 63.5136 34.6877 63.1622 35.1224C62.7554 35.6311 62.4502 36.2046 62.293 36.8335C62.0896 37.6382 61.6643 38.2857 60.9615 38.7296C60.7858 38.8406 60.6286 38.9516 60.5824 39.1828C60.5177 39.525 60.7026 39.7655 60.9985 39.6268C61.655 39.3123 62.2653 39.5528 62.8848 39.7008C63.5413 39.8673 64.1516 40.1632 64.7064 40.561C65.2796 40.9679 65.8622 41.3749 66.4817 41.6986C67.2491 42.0501 67.6653 42.6975 67.8132 43.5207ZM63.1899 48.1175C63.8927 47.3406 63.5783 46.2399 62.5704 45.9625C62.2006 45.8607 61.8215 45.8422 61.4331 45.87C60.5454 45.9162 59.6855 46.129 58.8903 46.5082C57.2722 47.2759 55.5986 47.7106 53.8047 47.6921C53.666 47.6921 53.5089 47.7383 53.3887 47.8123C52.7599 48.1915 52.1773 48.6447 51.6873 49.1997C51.2989 49.6436 51.3452 50.0136 51.8537 50.2726C52.9356 50.8368 54.0636 51.2253 55.3212 50.994C56.0147 50.8645 56.6989 50.698 57.4109 50.7628C58.4557 50.8923 59.3804 50.5686 60.268 50.0691C61.091 49.6066 61.8769 49.1072 62.6536 48.5707C62.8478 48.4412 63.042 48.2933 63.1899 48.1175ZM59.0567 31.6448C59.0752 31.284 58.8163 31.1268 58.539 31.0066C58.0859 30.8031 57.6051 30.6551 57.1057 30.5996C55.5893 30.4331 54.0729 30.2759 52.5657 30.1186C52.39 30.1001 52.2143 30.1186 52.0294 30.1186C50.6332 30.0816 49.3849 30.5626 48.2383 31.321C47.3044 31.9315 46.9901 32.8842 47.2952 33.8461C47.5633 34.6877 48.3678 35.2149 49.4219 35.2612C50.1431 35.2982 50.8181 35.0854 51.4746 34.845C52.6951 34.3918 53.9249 34.0403 55.238 34.0403C55.728 34.0403 56.1626 33.8646 56.5232 33.5408C57.1335 32.9859 57.7345 32.4402 58.5667 32.2275C58.8256 32.1535 59.0382 31.9407 59.0567 31.6448ZM56.2458 58.0049C56.4307 57.9864 56.6712 58.0234 56.8006 57.6719C56.2643 57.5054 55.7743 57.6072 55.2842 57.6534C51.4284 57.9864 47.5634 58.2084 43.6983 57.9031C42.3021 57.7922 40.8781 57.7274 39.6391 56.932C39.5096 56.8487 39.3432 56.7747 39.2507 56.932C39.1213 57.1355 39.3062 57.2465 39.4634 57.3297C40.2401 57.7644 41.0815 58.0141 41.96 58.1344C46.7219 58.7633 51.4839 58.4304 56.2458 58.0049ZM42.4778 53.926C42.7182 53.3803 42.7921 52.7976 42.8291 52.2057C42.7736 50.957 42.2189 49.8934 41.5624 48.876C41.1925 48.3118 40.6562 48.506 40.1292 48.58C39.6206 48.6447 39.6853 49.0517 39.6114 49.3754C39.4172 50.1616 39.6206 50.883 39.9442 51.5952C40.1846 52.1317 40.4713 52.6496 40.573 53.2323C40.6192 53.5468 40.6562 53.8705 40.7394 54.185C40.8874 54.7769 41.3497 54.9619 41.886 54.6567C42.1634 54.4902 42.3391 54.222 42.4778 53.926ZM38.5018 64.5256C38.5203 63.8966 38.2151 63.4064 37.8268 62.9439C37.4754 62.5277 37.0223 62.167 36.9669 61.5566C36.9484 61.4086 36.8282 61.2976 36.6617 61.2976C36.4675 61.2976 36.3196 61.4086 36.2549 61.5843C36.033 62.1578 35.8018 62.7312 35.7463 63.3509C35.6723 64.1648 35.8203 64.3961 36.6063 64.6181C36.8652 64.692 37.1056 64.7383 37.2442 65.0157C37.4107 65.3395 37.6881 65.4875 38.0487 65.3765C38.474 65.2562 38.4925 64.877 38.5018 64.5256ZM38.2983 38.6186C38.3261 38.0544 38.1689 37.4995 37.9747 36.9445C37.6788 36.1214 37.4014 35.2889 37.1148 34.4658C37.0686 34.327 37.0316 34.179 36.9761 34.0495C36.7172 33.5038 36.3011 33.3651 35.8665 33.7721C35.3857 34.2253 34.7015 34.623 35.0343 35.5109C35.1083 35.6959 34.9604 35.9641 34.9234 36.1954C34.7847 37.0555 34.7939 37.8972 35.2655 38.6556C35.6539 39.2753 36.0607 39.8765 36.5138 40.45C37.0131 41.0789 37.5679 40.9864 37.947 40.2557C38.2059 39.7655 38.2983 39.2198 38.2983 38.6186Z" fill="#F71506"/>
<path d="M67.8507 22.488C67.8322 23.043 67.8044 23.6072 67.6195 24.1344C67.527 24.3934 67.3329 24.4396 67.1664 24.1991C67.037 24.0141 66.9168 23.7922 66.8705 23.5702C66.6671 22.6915 66.4822 21.8036 66.3065 20.9157C66.2695 20.7492 66.288 20.5642 66.3065 20.3885C66.362 19.889 66.5932 19.7873 67 20.1018C67.4161 20.4162 67.6565 20.8509 67.749 21.3504C67.8137 21.7296 67.8229 22.1181 67.8507 22.488Z" fill="#FFA9A3"/>
<path d="M66.9346 14.5061C66.99 14.4783 67.0455 14.4413 67.101 14.4136C67.0455 14.4506 66.99 14.4783 66.9346 14.5061Z" fill="#F71506"/>
<path d="M65.8068 14.691C65.9732 14.7372 66.149 14.617 66.3801 14.7742C66.1859 15.5141 66.1859 15.5141 65.5757 15.3014C65.437 15.2552 65.3075 15.1997 65.1688 15.1442C65.0301 15.0887 64.8729 15.0239 64.9007 14.8574C64.9284 14.6447 65.1226 14.6077 65.2983 14.6077C65.4739 14.617 65.6496 14.654 65.8068 14.691Z" fill="#13751E"/>
<path d="M65.9921 9.90925C66.0291 9.92775 66.0569 10.0018 66.0569 10.048C66.0569 10.1313 66.0291 10.2145 65.9089 10.196C65.8257 10.159 65.7795 10.0943 65.798 10.0018C65.835 9.90925 65.9182 9.87224 65.9921 9.90925Z" fill="#13751E"/>
<path d="M65.0675 10.3624C65.3819 10.8526 65.0675 11.2781 65.0305 11.6943C64.9843 12.1845 64.8918 12.6839 64.8363 13.1741C64.7809 13.6274 64.8086 14.1083 64.374 14.617C64.0966 14.0158 64.1983 13.5349 64.2815 13.0539C64.3648 12.6192 64.448 12.1937 64.5127 11.759C64.5312 11.6573 64.4942 11.5185 64.337 11.5C64.1983 11.4816 64.1059 11.574 64.0781 11.6758C63.9949 11.9532 63.9302 12.24 63.8562 12.5175C63.8007 12.7117 63.7453 12.9152 63.662 13.1001C63.5973 13.2389 63.4771 13.3314 63.3107 13.3036C63.135 13.2759 63.1073 13.1279 63.098 12.9707C63.0795 12.5082 63.2552 12.1105 63.5326 11.759C63.9672 11.2411 64.4572 10.7879 65.0675 10.3624Z" fill="#13751E"/>
<path d="M63.9666 10.2514C63.9943 10.5751 63.7816 10.6676 63.6429 10.7971C63.0882 11.352 62.6351 11.944 62.5518 12.7579C62.5149 13.1186 62.3115 13.2944 61.9878 13.3221C60.5454 13.4516 59.3063 14.1176 58.0673 14.7927C57.7991 14.9315 57.5587 15.0517 57.4478 15.3662C57.3646 15.6252 57.1057 15.7639 56.9115 15.9304C56.0146 16.7351 55.1731 17.586 54.4149 18.5294C53.4071 19.7873 52.6858 21.1747 52.2975 22.7378C52.0941 23.5702 52.0756 23.5702 51.1879 23.5702C50.6886 23.5702 50.1893 23.5702 49.69 23.5517C48.5619 23.5147 47.4616 23.6442 46.3982 23.9957C45.714 24.2176 45.002 24.0974 44.3085 24.2269C43.9294 24.3009 43.8647 24.0142 43.9017 23.7274C43.9849 22.9968 44.1236 22.2753 44.3825 21.5816C45.039 19.8243 45.7787 18.0947 46.7311 16.4668C46.8513 16.2634 46.9807 16.0691 47.1102 15.8749C48.6359 13.5719 50.7903 12.7117 53.4903 13.1094C54.304 13.2296 55.0807 13.3221 55.9221 13.1371C56.6248 12.9799 57.3646 13.2481 58.0488 13.5534C58.2337 13.6366 58.4094 13.7476 58.5943 13.8308C58.733 13.8956 58.8902 13.9233 58.9642 13.7476C59.0197 13.6273 58.9272 13.5164 58.8348 13.4424C58.4094 13.1094 57.9194 12.9152 57.4015 12.7949C57.0409 12.7117 56.6711 12.6284 56.2642 12.5359C56.3937 12.0827 56.7173 11.87 57.0224 11.6665C58.5758 10.6399 60.268 10.0387 62.1542 10.1404C62.7738 10.1959 63.3748 10.2237 63.9666 10.2514Z" fill="#F71506"/>
<path d="M63.7819 14.358C63.7912 14.5615 63.6987 14.7095 63.4675 14.6725C62.1545 14.4597 60.8415 14.5892 59.5285 14.7372C59.5193 14.7372 59.5008 14.7002 59.4453 14.6262C59.9631 14.469 60.3515 13.84 60.9895 14.3765C61.045 14.4227 61.1836 14.4412 61.2391 14.4042C61.7384 14.0435 62.4689 14.4135 62.922 13.8585C63.0792 13.6643 63.3658 13.7383 63.5877 13.8215C63.8374 13.914 63.7727 14.1638 63.7819 14.358Z" fill="#13751E"/>
<path d="M62.5707 45.9718C63.5785 46.2492 63.8929 47.3406 63.1902 48.1268C63.033 48.3026 62.8388 48.4413 62.6539 48.58C61.8864 49.1165 61.0912 49.6252 60.2683 50.0784C59.3806 50.5778 58.4467 50.9016 57.4111 50.7721C56.6992 50.7166 56.0149 50.8831 55.3214 51.0033C54.0639 51.2345 52.9358 50.8461 51.854 50.2819C51.3454 50.0136 51.2992 49.6529 51.6875 49.209C52.1776 48.654 52.7601 48.2008 53.3889 47.8216C53.5091 47.7476 53.6663 47.7013 53.805 47.7013C55.5988 47.7198 57.2817 47.2851 58.8906 46.5175C59.6858 46.1382 60.5457 45.9255 61.4334 45.8793C61.8217 45.8515 62.2008 45.87 62.5707 45.9718ZM62.284 48.21C62.7001 47.9326 63.1532 47.6181 62.9775 47.0169C62.8018 46.3972 62.2193 46.4527 61.7385 46.4342C60.6936 46.4065 59.7135 46.7209 58.7796 47.1649C57.7348 47.6644 56.6529 47.9696 55.5064 48.1176C54.554 48.247 53.5738 48.3765 52.8434 49.1165C52.6862 49.2737 52.4827 49.2737 52.2701 49.2645C52.0851 49.2552 51.9557 49.4124 51.891 49.5882C51.817 49.8102 51.9927 49.9119 52.1406 49.9859C52.9173 50.3466 53.7218 50.6148 54.6557 50.6426C54.9608 50.5963 55.3399 50.5593 55.7098 50.4761C56.1998 50.3651 56.6991 50.2911 57.1892 50.3281C58.3265 50.4206 59.3252 50.0784 60.2683 49.4957C60.9618 49.0702 61.6275 48.6448 62.284 48.21Z" fill="black"/>
<path d="M62.9869 47.0168C63.1626 47.618 62.7095 47.9232 62.2934 48.21C61.6369 48.6447 60.9712 49.0701 60.2962 49.4956C59.3531 50.0783 58.3452 50.4205 57.2171 50.328C56.7178 50.291 56.2277 50.365 55.7377 50.476C55.3678 50.5593 54.9887 50.5963 54.6836 50.6425C53.7404 50.6148 52.936 50.3558 52.1685 49.9858C52.0113 49.9118 51.8356 49.8193 51.9189 49.5881C51.9836 49.4124 52.113 49.2644 52.298 49.2644C52.5106 49.2736 52.7141 49.2829 52.8712 49.1164C53.6017 48.3672 54.5819 48.247 55.5342 48.1175C56.6808 47.9602 57.7626 47.655 58.8075 47.1648C59.7414 46.7209 60.7215 46.4064 61.7664 46.4341C62.2287 46.4526 62.802 46.3971 62.9869 47.0168Z" fill="#FFA9A3"/>
<path d="M59.1493 18.7606C59.5838 19.0011 59.9075 19.3156 59.926 19.9445C59.7688 20.8232 59.3804 21.7111 58.6684 22.3956C58.2339 22.8118 57.2075 22.2013 57.1058 21.4984C57.0688 21.2394 57.115 20.9712 57.189 20.7122C57.3647 20.1203 57.6051 19.5561 57.9472 19.0381C58.3633 18.3999 58.465 18.3814 59.1493 18.7606ZM59.3527 19.815C59.3527 19.3988 58.9736 19.2601 58.6407 19.1583C58.2801 19.0474 58.1876 19.3618 58.0767 19.5746C57.79 20.0833 57.5774 20.6197 57.5034 21.1007C57.4664 21.4984 57.5866 21.7111 57.8363 21.8591C58.0212 21.9609 58.2339 22.0903 58.4003 21.9054C58.9181 21.3042 59.3435 20.6382 59.3527 19.815Z" fill="black"/>
<path d="M58.6404 19.1491C58.9826 19.2508 59.3617 19.3988 59.3524 19.8058C59.3432 20.629 58.9178 21.2949 58.3908 21.8961C58.2336 22.0811 58.0117 21.9516 57.8268 21.8498C57.5771 21.7019 57.4569 21.4891 57.4939 21.0914C57.5678 20.6105 57.7805 20.074 58.0672 19.5653C58.1874 19.3526 58.2798 19.0381 58.6404 19.1491Z" fill="#FFA9A3"/>
<path d="M58.5396 31.0064C58.8078 31.1267 59.0759 31.2839 59.0574 31.6446C59.0389 31.9499 58.8262 32.1534 58.5766 32.2181C57.7351 32.4216 57.1341 32.9673 56.5331 33.5315C56.1817 33.8552 55.7379 34.0309 55.2478 34.0309C53.9348 34.0309 52.7051 34.3916 51.4845 34.8356C50.828 35.0853 50.153 35.2888 49.4318 35.2518C48.3777 35.2056 47.5732 34.6784 47.3051 33.8367C47 32.8748 47.3143 31.9221 48.2482 31.3117C49.3948 30.5625 50.6431 30.0723 52.0393 30.1093C52.2242 30.1093 52.3999 30.0908 52.5756 30.1093C54.092 30.2665 55.6084 30.4237 57.1156 30.5902C57.6057 30.655 58.0865 30.803 58.5396 31.0064ZM57.9663 31.8759C58.1143 31.8296 58.3269 31.8296 58.3177 31.5521C57.9201 31.3117 57.4578 31.2099 56.9954 31.1637C55.516 30.9972 54.0273 30.8307 52.5479 30.692C51.6325 30.5995 50.8188 30.8955 50.116 31.4967C50.0051 31.5891 49.8941 31.6909 49.7832 31.7834C49.6722 31.8851 49.5335 31.9591 49.3856 31.8851C49.2099 31.7926 49.2931 31.6354 49.3301 31.4967C49.3486 31.4227 49.3671 31.3394 49.4041 31.1729C48.7753 31.3857 48.3315 31.6631 47.9893 32.0794C47.2219 33.032 47.601 34.3084 48.7568 34.7061C49.2099 34.8633 49.6814 34.8819 50.1438 34.7616C50.6523 34.6229 51.1609 34.4656 51.651 34.2899C52.7328 33.9014 53.8146 33.5685 54.9797 33.587C55.6085 33.5962 56.0985 33.3095 56.5239 32.8655C56.94 32.4308 57.393 32.0609 57.9663 31.8759Z" fill="black"/>
<path d="M58.3171 31.5523C58.3264 31.8298 58.1137 31.8298 57.9658 31.876C57.3925 32.061 56.9394 32.431 56.5326 32.8564C56.1072 33.3004 55.6079 33.5871 54.9884 33.5779C53.8233 33.5594 52.7323 33.9016 51.6597 34.2808C51.1603 34.4565 50.6611 34.6138 50.1525 34.7525C49.6902 34.8728 49.2278 34.8543 48.7655 34.697C47.6097 34.3086 47.2306 33.0229 47.9981 32.0703C48.3402 31.654 48.784 31.3766 49.4128 31.1638C49.3758 31.3303 49.3665 31.4136 49.3388 31.4876C49.3018 31.6263 49.2186 31.7835 49.3943 31.876C49.5422 31.9593 49.6717 31.876 49.7919 31.7743C49.9028 31.6818 50.0138 31.5801 50.1248 31.4876C50.8275 30.8771 51.6319 30.5904 52.5566 30.6829C54.0453 30.8309 55.5247 30.9974 57.0041 31.1546C57.4665 31.2101 57.9195 31.3211 58.3171 31.5523Z" fill="#FFA9A3"/>
<path d="M56.8009 57.672C56.6715 58.0234 56.4311 57.9864 56.2461 58.0049C51.4842 58.4304 46.7222 58.7634 41.951 58.1252C41.0726 58.0049 40.2312 57.7645 39.4545 57.3205C39.3065 57.2373 39.1216 57.1263 39.2418 56.9228C39.3343 56.7748 39.5007 56.8488 39.6302 56.9228C40.8692 57.7182 42.2932 57.7829 43.6894 57.8939C47.5637 58.1992 51.4195 57.9679 55.2752 57.6442C55.7653 57.6072 56.2646 57.5055 56.8009 57.672Z" fill="black"/>
<path d="M42.82 52.2055C42.783 52.7975 42.7183 53.3802 42.4686 53.9259C42.3391 54.2219 42.1542 54.4901 41.8583 54.6566C41.322 54.9618 40.8597 54.7768 40.7118 54.1849C40.6285 53.8704 40.6008 53.5467 40.5453 53.2322C40.4529 52.6402 40.1662 52.1223 39.9166 51.5951C39.5929 50.8922 39.3803 50.1615 39.5837 49.3753C39.6669 49.0516 39.5929 48.6539 40.1015 48.5799C40.6285 48.5059 41.1648 48.3116 41.5347 48.8758C42.2189 49.8932 42.7645 50.9569 42.82 52.2055ZM42.3114 52.3073C42.3669 51.1604 41.8121 50.217 41.2388 49.2921C40.9799 48.8758 40.7025 48.9036 40.4159 49.3013C39.9443 49.958 39.8796 50.6424 40.2679 51.3639C40.6748 52.1223 40.9892 52.8992 41.0816 53.7594C41.1001 53.9814 41.0909 54.2681 41.4052 54.2958C41.6734 54.3236 41.8306 54.1201 41.9508 53.9074C42.2282 53.4172 42.3207 52.8715 42.3114 52.3073Z" fill="black"/>
<path d="M41.2393 49.2922C41.8034 50.2171 42.3674 51.1605 42.312 52.3074C42.3212 52.8716 42.2287 53.4173 41.9421 53.9168C41.8219 54.1202 41.6647 54.3237 41.3965 54.3052C41.0822 54.2775 41.0914 53.9908 41.0729 53.7688C40.9897 52.9086 40.6661 52.1224 40.2592 51.3732C39.8709 50.6518 39.9448 49.9674 40.4072 49.3107C40.7031 48.8945 40.9897 48.876 41.2393 49.2922Z" fill="#FFA9A3"/>
<path d="M41.683 18.6218C41.9882 20.2404 42.1731 21.8683 42.1176 23.5239C42.1084 23.8384 42.0991 24.1251 41.6738 24.1158C39.9539 24.0973 38.308 24.5875 36.6252 24.8188C34.5447 25.1055 32.5475 25.6327 30.6797 26.6316C30.1341 26.9183 29.5609 27.1496 28.9968 27.39C26.5742 28.4259 24.3921 29.8596 22.4133 31.5892C20.8229 32.9765 19.9722 34.7246 20.2681 36.9074C20.3791 37.7306 20.6287 38.5075 20.9709 39.266C21.2852 39.9874 21.2945 40.0059 20.6472 40.4129C19.362 41.2083 18.1877 42.124 17.4849 43.5113C17.3277 43.8166 17.1705 44.1125 16.9949 44.4455C16.3384 43.9553 16.0887 43.2986 15.9408 42.6142C15.7281 41.643 15.4877 40.6718 15.2103 39.7099C15.0346 39.0902 14.6647 38.7018 14.0637 38.489C13.3332 38.2301 12.6028 38.0543 11.8261 38.0636C10.3651 38.0821 9.41273 38.859 9.25554 40.3111C8.98739 42.7899 9.34801 45.1207 11.225 46.989C11.3083 47.0723 11.3822 47.1648 11.4654 47.248C13.0651 48.7094 14.5075 50.3557 16.5233 51.3084C16.662 51.3731 16.7729 51.4934 16.9024 51.5951C16.6435 51.5211 16.5048 51.6876 16.3846 51.8818C16.0517 52.4368 15.5709 52.557 14.9514 52.483C12.7415 52.224 10.9199 51.2806 9.64388 49.4216C8.26616 47.4145 6.88842 45.4074 5.65863 43.2986C4.61378 41.5043 3.51345 39.7192 2.94017 37.6844C2.6073 36.5005 2.32065 35.2981 2.00627 34.1049C1.74736 33.106 1.6549 32.0886 1.61792 31.0527C1.57168 29.5636 1.60868 28.056 1.30354 26.5854C1.13711 25.7714 1.09088 24.9575 1.14636 24.1343C1.27581 22.1735 1.53471 20.2219 1.83985 18.2796C2.04327 17.0217 2.63503 15.9766 3.57817 15.0979C4.5583 14.1822 5.79734 13.8123 6.9624 13.2666C8.66376 12.4526 10.4206 12.8596 12.1589 12.9151C10.5131 13.3128 8.98737 13.9972 7.50793 14.7742C6.77746 15.1534 6.19494 15.6713 5.94528 16.476C5.89905 16.6148 5.79733 16.8182 6.12096 16.9107C6.39835 15.8286 7.19356 15.2736 8.1367 14.8574C8.80245 14.5614 9.45895 14.2285 10.1524 13.9787C11.3822 13.5348 12.6398 13.3036 13.9528 13.4238C14.9144 13.507 15.8853 13.581 16.8377 13.7568C16.9764 13.7845 17.152 13.803 17.1983 13.618C17.2445 13.433 17.0966 13.3591 16.9579 13.3128C16.2274 13.0723 15.4599 13.0353 14.7017 12.9798C14.3041 12.9521 13.8973 13.0261 13.5089 12.8873C13.5737 12.3879 13.888 12.1382 14.2302 11.8977C15.3767 11.0653 16.6805 10.6583 18.0489 10.4086C18.2431 10.3716 18.7702 10.4826 18.9274 10.2791C18.8072 11.463 18.3911 12.5544 17.9565 13.655C17.7253 14.2377 17.374 14.6909 16.8284 14.9499C15.9777 15.3476 15.4692 16.0506 15.0531 16.8367C14.4706 17.9466 14.1469 19.112 14.1007 20.3699C14.0175 22.636 14.2024 24.8835 14.2764 27.1496C14.2856 27.3068 14.2671 27.5103 14.526 27.5288C14.7757 27.3715 14.711 27.1126 14.7017 26.8998C14.6925 26.0767 14.7017 25.2535 14.6277 24.4396C14.5168 23.1169 14.5168 21.8035 14.5445 20.4809C14.5723 19.223 14.8774 18.0299 15.5154 16.9477C16.1257 15.9211 16.8931 15.0794 18.2801 15.2736C18.4558 15.3014 18.6315 15.2736 18.8072 15.2736C20.2219 15.2366 21.6181 15.2644 22.9958 15.6713C23.7633 15.8933 24.5585 15.9118 25.3445 15.7176C25.5941 15.6528 25.8715 15.5696 26.1211 15.7083C28.2294 16.883 30.0232 18.3351 30.6704 20.8046C30.8461 21.4891 30.9848 22.1735 31.068 22.8764C31.105 23.1447 31.0958 23.4499 31.5396 23.6996C31.6043 22.673 31.3732 21.8128 31.179 20.9434C30.6149 18.4831 28.9691 16.8737 26.8516 15.6343C27.0088 15.4586 27.0735 15.3569 27.166 15.2921C28.0074 14.7649 29.0246 14.5984 29.8197 13.9695C29.8752 13.9233 29.9954 13.951 30.0787 13.9417C30.7721 13.84 31.4749 13.7475 32.1684 13.6365C33.2225 13.4608 34.1841 13.6458 35.1273 14.1915C36.9581 15.2551 38.5669 16.5408 39.7413 18.3259C39.8707 18.5293 39.9817 18.8161 40.4255 18.7513C40.3053 17.9836 39.6858 17.5119 39.3436 16.9107C40.2036 17.1235 40.5457 16.809 40.37 15.9581C40.2406 15.3569 39.8892 14.9129 39.3436 14.6262C38.9183 14.4042 38.8259 14.4782 38.7056 14.9314C38.5577 15.4956 38.9183 15.9303 39.0108 16.439C37.9937 15.6066 36.9673 14.7834 35.8577 14.0527C34.48 13.1463 33.056 12.9428 31.4934 13.2666C30.1619 13.544 28.8026 13.3313 27.4619 13.3498C27.1105 13.3498 26.7777 13.1833 26.4725 12.9983C26.0009 12.7116 25.5201 12.4156 25.0671 12.0919C24.9653 12.0179 24.8729 11.9532 24.7804 11.8699C24.8174 11.8699 24.8451 11.8607 24.8729 11.8329C24.9468 11.7774 25.0023 11.7127 25.0671 11.6572C26.639 10.3438 28.6732 9.5669 30.7074 9.78888C31.5119 9.88137 31.9834 10.3161 32.2608 11.019C32.3256 11.1855 32.344 11.3612 32.3903 11.5277C32.4458 11.7219 32.566 11.8422 32.7786 11.7774C34.0177 11.4352 35.2844 11.648 36.542 11.5647C36.9211 11.537 37.3279 11.5277 37.6608 11.7312C39.094 12.5914 40.407 13.5718 40.8971 15.2829C41.1837 16.3835 41.4703 17.5027 41.683 18.6218ZM37.0413 18.9918C37.0598 17.7987 36.5512 17.1142 35.5988 16.8737C35.2844 16.7905 34.9516 16.7442 34.7019 17.031C34.4707 17.2992 34.443 17.6692 34.6094 17.9374C34.9331 18.4553 34.9701 19.038 35.1273 19.593C35.2197 19.926 35.3307 20.2682 35.4694 20.5827C35.5896 20.8509 35.7653 21.1191 36.1074 21.0914C36.4125 21.0729 36.542 20.8139 36.6529 20.5734C36.9118 20 37.0228 19.3988 37.0413 18.9918ZM21.7845 22.266C21.9972 21.6093 21.9047 20.9989 21.5256 20.4254C21.2852 20.0647 21.0448 19.6947 20.8137 19.3155C20.5733 18.9271 20.7397 18.4553 20.5825 17.9374C20.3421 18.0484 20.1941 18.1501 20.0369 18.1871C19.4174 18.3166 19.1678 18.7606 19.0846 19.3063C18.9366 20.3422 19.0014 21.3688 19.5469 22.2845C19.8705 22.8302 20.1202 23.3574 20.0369 24.0141C20.0092 24.2083 20.0277 24.4488 20.2959 24.5043C20.4993 24.5505 20.6287 24.4118 20.7397 24.2731C21.202 23.6719 21.5534 23.0059 21.7845 22.266ZM12.085 18.8623C12.1127 18.0946 12.1127 17.4472 11.6689 16.9107C11.2713 16.4298 10.7905 16.291 10.2727 16.5778C9.64389 16.92 9.12608 17.3454 8.90416 18.0854C8.46958 19.4913 8.65451 20.8786 9.0891 22.229C9.35724 23.0522 10.3374 23.2002 10.9291 22.5527C11.1695 22.2938 11.3268 21.97 11.4562 21.6463C11.8261 20.7121 12.0572 19.7502 12.085 18.8623Z" fill="#F71506"/>
<path d="M40.3421 15.9397C40.5271 16.7906 40.1757 17.1051 39.3158 16.8924C39.1401 16.7814 39.0199 16.6241 38.9829 16.4207C38.8904 15.9212 38.5298 15.4772 38.6778 14.913C38.798 14.4598 38.8904 14.3858 39.3158 14.6078C39.8613 14.8945 40.2127 15.3385 40.3421 15.9397ZM39.926 16.3004C40 15.8102 39.6394 15.32 39.0569 15.135C39.1493 15.7547 39.3065 16.1894 39.5469 16.4022C39.6024 16.4577 39.6949 16.4947 39.7781 16.4947C39.8706 16.4854 39.9168 16.3837 39.926 16.3004Z" fill="#F71506"/>
<path d="M40.3977 18.7329C39.9538 18.7976 39.8429 18.5201 39.7134 18.3074C38.5391 16.5223 36.9302 15.2367 35.0994 14.173C34.1563 13.6273 33.1946 13.4423 32.1405 13.6181C31.447 13.7291 30.7443 13.8216 30.0508 13.9233C29.9676 13.9325 29.8474 13.9048 29.7919 13.951C28.9967 14.58 27.9796 14.7465 27.1382 15.2737C27.0457 15.3292 26.981 15.4402 26.8238 15.6159C28.9412 16.8553 30.5871 18.4739 31.1512 20.9249C31.3453 21.7851 31.5857 22.6545 31.5118 23.6812C31.0679 23.4314 31.0772 23.1262 31.0402 22.858C30.957 22.155 30.8183 21.4706 30.6426 20.7862C29.9953 18.3074 28.1923 16.8645 26.0933 15.6899C25.8436 15.5511 25.5663 15.6344 25.3166 15.6991C24.5307 15.8934 23.7355 15.8841 22.968 15.6529C21.5903 15.2552 20.194 15.2182 18.7793 15.2552C18.6036 15.2644 18.4187 15.2829 18.2523 15.2552C16.8746 15.0517 16.0978 15.9026 15.4876 16.9293C14.8496 18.0114 14.5444 19.2046 14.5167 20.4624C14.4889 21.7851 14.489 23.1077 14.5999 24.4211C14.6739 25.235 14.6646 26.0674 14.6739 26.8814C14.6739 27.1034 14.7478 27.3531 14.4982 27.5103C14.2485 27.4918 14.2578 27.2883 14.2485 27.1311C14.1746 24.8743 13.9896 22.6175 14.0728 20.3515C14.1191 19.0936 14.4427 17.9189 15.0252 16.8183C15.4413 16.0321 15.9591 15.3384 16.8006 14.9315C17.3461 14.6725 17.6975 14.2193 17.9287 13.6366C18.3632 12.5359 18.7793 11.4445 18.8995 10.2606C18.9365 10.2144 18.955 10.1496 18.9365 10.0571C18.9365 10.0386 18.9273 10.0201 18.918 10.0109C18.9273 9.89065 18.9273 9.77967 18.9273 9.65943C18.9365 8.71601 18.7516 7.85584 18.2061 7.07891C17.7345 6.39447 17.1519 6.22798 16.3752 6.52396C15.4598 6.87542 15.2287 6.78293 14.8773 5.84876C14.6924 5.35856 14.5352 4.84986 14.3872 4.34115C13.8602 2.48207 15.3766 0.650739 17.2999 0.817224C17.4756 0.835722 17.6512 0.854216 17.8177 0.928209C19.3064 1.55715 20.6009 2.39883 21.3591 3.92494C21.9416 5.11808 22.3392 6.37597 22.7183 7.63386C22.9865 8.54027 23.3194 9.40969 23.6615 10.2884C23.8742 10.8156 24.1608 11.278 24.5491 11.6572C24.5491 11.7035 24.5676 11.759 24.6139 11.796C24.6601 11.833 24.7063 11.8515 24.7526 11.8515C24.845 11.9255 24.9375 11.9995 25.0392 12.0735C25.4923 12.3972 25.9731 12.6932 26.4447 12.9799C26.7498 13.1649 27.0734 13.3313 27.434 13.3313C28.7748 13.3128 30.134 13.5256 31.4655 13.2481C33.0374 12.9244 34.4614 13.1279 35.8299 14.0343C36.9395 14.765 37.9566 15.5789 38.9829 16.4206C39.0199 16.624 39.1401 16.7813 39.3158 16.8923C39.6672 17.5027 40.2775 17.9652 40.3977 18.7329ZM27.3046 14.2378C27.7854 14.5337 28.109 14.1915 28.4512 13.951C27.6837 13.9233 26.981 13.6458 26.2505 13.4886C26.3152 14.3858 26.3152 14.3858 27.0549 14.2378C27.1289 14.2285 27.2399 14.2008 27.3046 14.2378ZM25.4553 13.2943C25.5015 13.3036 25.631 13.1834 25.6217 13.1464C25.557 12.8689 25.3074 12.7949 24.9652 12.6284C25.0947 12.9799 25.1687 13.2296 25.4553 13.2943ZM25.8159 15.0332C25.3443 14.3857 25.3258 14.395 24.919 15.2182C25.2149 15.2274 25.483 15.1257 25.8159 15.0332ZM24.5676 14.432C25.1132 13.9603 25.1132 13.9603 24.5676 13.5718C24.5676 13.8678 24.4197 14.1453 24.5676 14.432ZM24.1238 12.8504C24.2625 12.5544 24.0868 12.3417 23.8187 12.0827C23.5413 12.9059 23.1529 13.5811 23.1437 14.5707C23.6337 13.951 23.8742 13.3961 24.1238 12.8504ZM23.8187 15.3014C24.2348 15.1534 23.8649 14.8945 23.9111 14.654C23.643 14.7835 23.4766 14.9499 23.5228 15.2367C23.5228 15.2737 23.7355 15.3384 23.8187 15.3014ZM23.4858 11.5832C23.606 11.4353 23.4858 11.3058 23.4303 11.1855C22.6906 9.68717 22.256 8.08706 21.7567 6.4962C21.7105 6.34822 21.6642 6.19099 21.6087 6.043C21.4793 5.63604 21.3961 5.19208 21.017 4.80361C20.416 6.13549 19.9999 7.44888 19.9444 8.87325C20.3697 8.30905 20.4992 7.61536 20.7858 6.98641C20.906 6.71819 20.9615 6.22799 21.3776 6.41297C21.4608 6.44997 21.507 6.50546 21.5255 6.5702C21.5718 6.74594 21.4053 7.00492 21.3499 7.19915C21.1649 7.83734 20.7858 8.41079 20.6564 9.09523C20.9245 9.06748 21.0817 8.70676 21.3314 8.94723C21.507 9.11372 21.4053 9.3357 21.3684 9.52994C21.3499 9.61318 21.3221 9.69642 21.2851 9.77966C20.9338 10.7138 20.5824 11.648 20.0184 12.4804C19.7779 12.8319 19.6947 13.2111 19.6947 13.6366C20.1293 13.1926 20.3882 12.6561 20.6101 12.092C20.8413 11.4908 21.0817 10.8896 21.3314 10.2976C21.4146 10.1126 21.5348 9.9369 21.6457 9.77041C21.7197 9.66867 21.8307 9.63168 21.9509 9.66867C22.0803 9.71492 22.1358 9.83516 22.1081 9.94615C22.0618 10.1774 21.9971 10.3994 21.9047 10.6121C21.6458 11.204 21.3591 11.7867 21.1094 12.3787C20.9338 12.7949 20.7303 13.2203 20.869 13.803C21.2944 13.4146 21.4516 12.9799 21.618 12.5544C21.7937 12.092 21.9324 11.611 22.1266 11.1485C22.2283 10.8988 22.293 10.4641 22.6721 10.6306C23.0142 10.7878 22.7738 11.1485 22.6998 11.4168C22.6351 11.6387 22.5242 11.8515 22.4502 12.0735C22.2838 12.5174 22.0988 12.9429 21.9694 13.3961C21.8677 13.7661 21.8029 14.1638 21.9416 14.6262C22.33 14.2933 22.4594 13.9418 22.6351 13.5996C22.968 12.9521 23.005 12.1752 23.4858 11.5832ZM21.2297 14.7742C21.2759 14.7095 21.3129 14.617 21.3036 14.543C21.3036 14.4505 21.2204 14.3673 21.1279 14.432C20.6749 14.7372 20.3697 14.5985 20.2033 14.099C20.1016 14.1453 20.0368 14.1638 19.9999 14.2008C19.8057 14.3765 19.63 14.6447 19.3341 14.4967C19.0197 14.3395 19.0567 14.0065 19.1122 13.7106C19.1677 13.4238 19.2324 13.1371 19.2879 12.8504C19.4636 11.9625 19.6392 11.0653 19.8149 10.1774C19.8519 10.0016 19.9074 9.80741 19.667 9.75192C19.3896 9.69642 19.4081 9.92765 19.3988 10.0941C19.2879 11.3335 18.881 12.4989 18.391 13.6273C18.243 13.9695 18.1228 14.3303 18.1598 14.8112C19.1307 14.8112 20.0923 14.8112 21.054 14.8112C21.1187 14.8205 21.2019 14.8112 21.2297 14.7742ZM20.5269 4.54463C20.7951 4.11917 20.6841 3.84169 20.4529 3.52722C20.4067 3.46248 20.3605 3.39773 20.3142 3.34224C19.6023 2.42657 18.6314 1.85313 17.568 1.46467C16.7913 1.17794 16.0608 1.46466 15.58 2.0936C16.2458 2.38958 16.2458 2.38958 16.0978 3.10176C16.0516 3.33299 15.9684 3.55498 15.9314 3.7862C15.8852 4.10068 15.6725 4.41514 15.8574 4.8776C16.3105 4.30415 16.5139 3.7307 16.7358 3.1665C16.8653 2.84278 16.9763 2.50057 17.0872 2.17685C17.1334 2.05661 17.2259 1.96412 17.3461 1.98262C17.5218 2.01036 17.5588 2.1676 17.5311 2.31558C17.4941 2.51907 17.4478 2.7133 17.3924 2.91678C17.1982 3.62897 17.041 4.34116 16.9763 5.07184C16.9578 5.25682 16.8653 5.4973 17.1519 5.58055C17.4201 5.50655 17.4941 5.26606 17.605 5.06258C17.9102 4.48913 18.1598 3.89719 18.3447 3.2775C18.4187 3.04627 18.428 2.6393 18.7701 2.74104C19.0937 2.83354 18.918 3.19425 18.8625 3.43473C18.7053 4.21166 18.5297 4.97935 18.6684 5.81177C19.0937 5.45106 19.2047 4.9331 19.3711 4.45214C19.4728 4.14692 19.5653 3.84169 19.6855 3.53647C19.7225 3.43473 19.8242 3.35149 19.9629 3.37924C19.9906 3.38849 20.0184 3.39774 20.0461 3.40699C20.1293 3.46249 20.1478 3.55498 20.1386 3.63822C20.0923 3.92494 20.0184 4.21166 19.9351 4.48914C19.7317 5.18283 19.4728 5.86727 19.4451 6.61645C19.667 6.59795 19.7132 6.44997 19.7687 6.32048C20.0184 5.71928 20.194 5.08108 20.5269 4.54463ZM19.3711 8.2813C19.4543 8.05932 19.6115 7.91133 19.4543 7.6986C19.4358 7.67085 19.3249 7.68011 19.2879 7.70785C19.0567 7.90209 19.2232 8.05932 19.3711 8.2813ZM18.7701 6.96792C18.8718 6.98642 18.8718 6.87542 18.881 6.80143C18.8625 6.70894 18.8348 6.6257 18.7238 6.66269C18.6776 6.68119 18.6221 6.75519 18.6314 6.78294C18.6591 6.84768 18.7146 6.95867 18.7701 6.96792ZM18.1228 5.56204C18.1321 5.50655 18.1043 5.45105 18.0858 5.40481C18.0304 5.42331 17.9564 5.41406 17.9287 5.45105C17.8177 5.62679 17.5865 5.79327 17.7992 6.03375C17.8454 6.08924 17.9749 6.12624 18.0211 6.0985C18.2245 5.95976 18.0951 5.73777 18.1228 5.56204ZM15.8667 6.16324C16.2643 6.11699 16.4677 5.72853 16.4769 4.9331C16.1441 5.25682 15.9037 5.63603 15.4321 5.57129C15.4136 5.83026 15.5153 5.97826 15.6263 6.0985C15.6725 6.15399 15.7835 6.17249 15.8667 6.16324ZM14.9143 3.86019C15.016 3.48098 15.09 3.21276 15.1547 2.95378C14.8496 3.12026 14.7571 3.39773 14.9143 3.86019Z" fill="black"/>
<path d="M39.0566 15.1257C39.6392 15.3199 39.9998 15.8009 39.9258 16.2911C39.9166 16.3836 39.8703 16.4761 39.7686 16.4761C39.6946 16.4761 39.6022 16.4391 39.5375 16.3836C39.3155 16.1893 39.1491 15.7454 39.0566 15.1257Z" fill="#F71506"/>
<path d="M37.8361 62.9439C38.2245 63.4063 38.5296 63.8965 38.5111 64.5255C38.4926 64.8862 38.4834 65.2562 38.0488 65.3764C37.6882 65.4781 37.4108 65.3394 37.2443 65.0157C37.1056 64.7382 36.8652 64.692 36.6063 64.618C35.8204 64.396 35.6724 64.1648 35.7464 63.3508C35.8019 62.7311 36.033 62.1577 36.255 61.5842C36.3197 61.4178 36.4584 61.2975 36.6618 61.2975C36.8282 61.2975 36.9577 61.4085 36.9669 61.5565C37.0317 62.1669 37.4755 62.5277 37.8361 62.9439ZM37.8361 64.8862C38.0765 63.9705 37.494 62.9901 36.4399 62.4444C36.2827 62.7866 36.181 63.1381 36.1625 63.5266C36.144 63.8688 36.2734 64.1093 36.6341 64.137C37.1426 64.1833 37.531 64.4145 37.8361 64.8862Z" fill="black"/>
<path d="M37.9751 36.9445C38.1693 37.4995 38.3265 38.0544 38.2987 38.6186C38.2987 39.2198 38.2155 39.7655 37.9474 40.265C37.5683 40.9957 37.0135 41.0789 36.5142 40.4592C36.0611 39.8858 35.6542 39.2753 35.2659 38.6649C34.7851 37.9064 34.785 37.0555 34.9237 36.2046C34.9607 35.9734 35.0994 35.7144 35.0347 35.5202C34.7111 34.6322 35.3861 34.2345 35.8669 33.7813C36.3015 33.3651 36.7176 33.5038 36.9765 34.0588C37.0412 34.1883 37.0689 34.3363 37.1152 34.475C37.3926 35.2889 37.6699 36.1214 37.9751 36.9445ZM37.5405 39.9783C37.7717 39.4973 37.8734 38.9609 37.8087 38.4336C37.6237 36.9075 36.8285 35.5849 36.4309 34.0403C36.0333 34.3363 36.209 34.6415 35.9963 34.8635C35.1549 35.7329 34.9885 37.259 35.5525 38.3596C35.8761 38.9886 36.32 39.5436 36.7546 40.0893C37.0782 40.4962 37.3186 40.45 37.5405 39.9783Z" fill="black"/>
<path d="M38.0584 46.3786C38.1508 46.6098 37.9567 46.7023 37.8457 46.8133C36.8656 47.803 36.431 49.0146 36.3108 50.3743C36.1813 51.8079 36.4402 53.1767 36.9211 54.5179C37.0967 55.0173 37.2909 55.5076 37.4389 56.0163C37.6145 56.5897 37.5591 56.6637 36.9395 56.7284C36.4772 56.7747 36.0056 56.7839 35.5341 56.8024C34.0731 56.8394 32.5937 56.6914 31.1512 57.0707C30.9663 57.1169 30.7721 57.1261 30.7259 56.9042C30.5132 55.8498 29.9215 54.9803 29.3019 53.9907C30.2173 54.0462 31.0218 54.1294 31.8355 54.0924C32.2423 54.0739 32.5937 53.9722 32.7509 53.556C32.7786 53.4912 32.7509 53.3802 32.7139 53.3155C32.6677 53.2322 32.5567 53.2322 32.492 53.297C31.78 53.9259 30.9293 53.667 30.1341 53.6022C29.5146 53.5467 28.8211 53.593 28.3865 52.9548C28.2941 52.816 28.1184 52.8068 28.0074 52.9455C27.7855 53.2322 27.4804 53.1675 27.203 53.1583C25.3722 53.112 23.5691 52.9455 21.8492 52.2611C20.9431 51.9004 19.9907 51.7061 19.0383 51.5489C17.4294 51.2807 16.0332 50.5592 14.7942 49.5418C13.888 48.7926 13.0466 47.9695 12.1867 47.174C11.974 46.9706 11.7706 46.7578 11.5764 46.5358C10.55 45.3612 9.76407 44.0848 9.80105 42.4385C9.8103 41.8558 9.73633 41.2638 9.76407 40.6811C9.8288 39.2753 10.6517 38.5538 12.0572 38.6278C12.3531 38.6463 12.6397 38.7018 12.9264 38.7481C13.925 38.9145 14.6 39.34 14.8404 40.4684C14.9606 41.0603 15.0716 41.6615 15.2103 42.2535L15.0068 42.2997C14.9883 42.198 14.9236 42.1147 14.8034 42.1055C14.6647 42.0962 14.5815 42.1887 14.5538 42.309C14.4983 42.5402 14.4705 42.7714 14.4428 43.0027C14.3318 43.9646 14.1747 44.9172 13.9065 45.8514C13.851 46.0456 13.8233 46.2584 13.6476 46.4064C13.3795 46.2584 13.4627 45.9994 13.4627 45.7867C13.4812 44.316 13.6014 42.8547 13.8695 41.4118C13.9342 41.0881 14.2394 40.5424 13.7308 40.4499C13.3794 40.3944 13.4257 40.9863 13.3517 41.3193C13.1575 42.2257 13.0743 43.1692 12.6212 44.1958C12.4456 43.0767 12.6397 42.1425 12.7507 41.2083C12.7784 41.0048 12.8432 40.8106 12.8617 40.6071C12.8801 40.4129 12.9726 40.1354 12.7137 40.0799C12.3808 40.0152 12.3901 40.3482 12.3438 40.5609C12.2606 40.9309 12.2051 41.3101 12.1312 41.6893C12.0202 42.2627 11.8445 42.8269 11.6226 43.3726C11.5486 43.5484 11.5209 43.7796 11.2158 43.8351C10.9661 43.2801 11.1418 42.7529 11.3914 42.272C11.7336 41.5875 11.7151 40.8569 11.7983 40.1262C11.8168 39.9227 11.8075 39.6822 11.5764 39.599C11.3452 39.5157 11.2065 39.7192 11.0493 39.8487C10.7997 40.0429 10.7349 40.3297 10.6517 40.6164C10.3373 41.7633 10.5408 42.8917 10.7904 44.0108C10.9106 44.5565 11.2897 44.6028 11.6781 44.1866C11.7983 44.0663 11.8168 43.8536 12.0202 43.7888C12.2051 43.9461 12.1034 44.1588 12.1312 44.3438C12.2236 45.0005 12.2606 45.0282 13.0281 44.9635C13.0281 45.4074 13.0188 45.8422 13.0373 46.2769C13.0466 46.5081 13.0743 46.7486 13.1575 46.9613C13.3055 47.3775 13.5644 47.4145 13.8788 47.1093C13.999 46.9983 13.999 46.7671 14.2486 46.7301C14.3134 47.1925 14.3688 47.655 14.4428 48.1082C14.4798 48.3487 14.5723 48.5892 14.8497 48.6169C15.1363 48.6539 15.2657 48.4319 15.3582 48.2099C15.4877 47.8862 15.5986 47.5533 15.8483 47.2203C15.8483 47.544 15.8298 47.877 15.8575 48.2007C15.8853 48.5799 15.9407 48.9591 16.0055 49.3291C16.0517 49.5973 16.1349 49.8841 16.44 49.9303C16.8192 49.995 16.9209 49.6621 17.0318 49.3938C17.1428 49.1256 17.226 48.8481 17.3647 48.4319C17.4387 48.8666 17.4849 49.1626 17.5496 49.4586C17.7346 50.3465 17.8733 50.4298 18.7147 50.1615C18.8719 50.3188 18.8349 50.55 18.9089 50.735C19.1308 51.2807 19.2417 51.3547 19.815 51.1697C19.9722 51.1142 20.0369 51.1142 20.1756 51.2252C20.7489 51.7154 20.8137 51.6969 21.2113 51.0864C21.276 50.994 21.3222 50.883 21.4147 50.735C21.6643 50.9755 21.6181 51.2899 21.729 51.5396C21.8585 51.8079 21.9695 52.1038 22.3208 52.1131C22.626 52.1223 22.7739 51.8819 22.9033 51.6414C22.9958 51.4657 23.0698 51.2714 23.153 51.0864C23.3379 51.1604 23.3657 51.3177 23.4212 51.4472C23.5229 51.6691 23.6523 51.8819 23.9297 51.8726C24.2441 51.8634 24.3643 51.5952 24.4568 51.3454C24.5677 51.0402 24.6509 50.735 24.7526 50.3743C25.0578 50.6702 25.0116 51.0494 25.1318 51.3639C25.4924 52.2796 25.7883 52.3536 26.454 51.6414C26.6297 51.6229 26.5927 51.7801 26.6482 51.8634C26.7314 51.9929 26.7961 52.1223 26.9811 52.0484C27.1105 51.9929 27.1383 51.8634 27.1198 51.7524C27.0273 51.1419 26.9995 50.5222 27.018 49.9118C27.0273 49.6528 26.9626 49.3846 27.2215 49.1349C27.5359 49.7731 27.5358 50.4482 27.6283 51.1049C27.6653 51.3454 27.5451 51.7524 27.8872 51.7616C28.3126 51.7709 28.1646 51.3362 28.1831 51.0772C28.2201 50.5037 28.2201 49.921 28.2478 49.2181C28.6177 49.4308 28.6454 49.7083 28.7009 49.9395C28.8766 50.624 29.0338 51.3084 29.2002 51.9929C29.228 52.1039 29.3019 52.2241 29.4406 52.2148C29.6256 52.2056 29.6718 52.0668 29.681 51.9096C29.6995 51.6229 29.5701 51.3362 29.7088 50.9662C29.8105 51.4379 29.8937 51.8356 29.9862 52.2241C30.0232 52.3906 30.0971 52.5848 30.3191 52.5571C30.541 52.5293 30.5502 52.3166 30.5502 52.1408C30.5595 51.5859 30.5502 51.0217 30.5502 50.4667C30.5502 49.7916 30.5502 49.1164 30.5502 48.4319C30.8646 48.4412 30.7906 48.6724 30.8184 48.8111C30.994 49.7916 31.1512 50.7812 31.3084 51.7616C31.3362 51.9374 31.3547 52.1131 31.4009 52.2796C31.4379 52.4276 31.5396 52.5386 31.7153 52.5108C31.854 52.4923 31.9094 52.3813 31.9187 52.2611C31.9372 52.0021 31.9464 51.7339 31.9557 51.4656C31.9834 50.5037 31.9187 49.5326 32.1036 48.4504C32.3995 48.9499 32.4458 49.4123 32.5382 49.8471C32.6492 50.328 32.7971 50.6702 33.3796 50.5685C33.4721 50.55 33.5738 50.698 33.7403 50.624C33.9159 50.4575 33.8327 50.217 33.7865 50.0043C33.6755 49.4863 33.5646 48.9684 33.4351 48.4597C33.3889 48.2932 33.2964 48.025 33.1392 48.0712C32.4273 48.2932 32.5012 47.766 32.4272 47.3775C32.8063 47.211 32.8248 46.9243 32.6584 46.5913C32.3533 45.9994 31.8632 45.6664 31.1975 45.5924C30.6612 45.5369 30.1434 45.6109 29.6441 45.8144C29.2927 45.9624 28.9506 46.1381 28.5992 46.2769C28.368 46.3694 28.1276 46.6006 27.878 46.3416C27.656 46.1104 27.7763 45.8237 27.8687 45.5924C28.5807 43.6871 29.6625 42.0408 31.3916 40.8846C32.9081 43.6316 34.8498 45.7774 38.0584 46.3786Z" fill="#13751E"/>
<path d="M36.4404 62.4444C37.4945 62.9901 38.0863 63.9705 37.8366 64.8862C37.5315 64.4145 37.1339 64.174 36.6254 64.137C36.274 64.1092 36.1445 63.8688 36.1538 63.5266C36.1723 63.1473 36.2832 62.7959 36.4404 62.4444Z" fill="#FFA9A3"/>
<path d="M37.8084 38.4429C37.8731 38.9701 37.7714 39.4973 37.5402 39.9875C37.3183 40.4592 37.0779 40.4962 36.7635 40.1077C36.3289 39.5528 35.8851 39.0071 35.5615 38.3781C34.9882 37.2775 35.1639 35.7514 36.0053 34.882C36.2272 34.66 36.0423 34.3548 36.4399 34.0588C36.8375 35.5941 37.6234 36.9168 37.8084 38.4429Z" fill="#FFA9A3"/>
<path d="M35.5898 16.8645C36.5422 17.105 37.06 17.7894 37.0322 18.9826C37.0137 19.3896 36.9028 19.9908 36.6439 20.5549C36.5329 20.7954 36.4035 21.0544 36.0983 21.0729C35.7562 21.0914 35.5805 20.8232 35.4603 20.5642C35.3124 20.2497 35.2107 19.9075 35.1182 19.5745C34.961 19.0196 34.924 18.4369 34.6004 17.9189C34.434 17.6507 34.4525 17.2808 34.6929 17.0125C34.9425 16.735 35.2754 16.7905 35.5898 16.8645ZM36.5144 18.7051C36.5329 17.8449 36.0798 17.4472 35.0905 17.4472C35.3309 18.4831 35.3679 19.556 35.9596 20.6105C36.4775 19.9723 36.5052 19.3433 36.5144 18.7051Z" fill="black"/>
<path d="M35.0898 17.4565C36.0792 17.4473 36.5323 17.8542 36.5138 18.7144C36.5046 19.3434 36.4768 19.9815 35.959 20.629C35.3765 19.5653 35.3303 18.4924 35.0898 17.4565Z" fill="#FFA9A3"/>
<path d="M32.4545 47.3683C32.4545 47.3683 32.4545 47.3775 32.4545 47.3683C32.4545 47.3775 32.4453 47.3775 32.436 47.3868C32.436 47.3775 32.436 47.3775 32.4268 47.3683C32.4452 47.3683 32.4453 47.3683 32.4545 47.3683Z" fill="#F71506"/>
<path d="M32.4367 47.3682C31.9929 47.2573 31.7062 47.4052 31.6415 47.8862C31.586 48.2932 31.5491 48.7001 31.4381 49.1256C31.3641 48.7741 31.2994 48.4134 31.2069 48.0619C31.1237 47.7197 31.0313 47.3867 30.9203 47.0538C30.8648 46.878 30.7446 46.7486 30.5319 46.7763C30.3655 46.804 30.2823 46.9335 30.2545 47.0815C30.1991 47.3128 30.1621 47.544 30.1528 47.7752C30.1436 48.3949 30.1436 49.0053 30.0974 49.6343C29.8107 49.2181 29.8015 48.7279 29.6535 48.2747C29.5888 48.0804 29.5426 47.877 29.4686 47.6827C29.4131 47.5347 29.3114 47.4237 29.145 47.433C28.9693 47.4515 28.9046 47.5995 28.9046 47.7475C28.8953 48.0434 28.9046 48.3302 28.9046 48.6446C28.6179 48.6631 28.507 48.2747 28.2018 48.4042C27.9707 48.5059 27.9984 48.8204 27.7672 48.9221C27.5453 48.7186 27.5268 48.2284 27.1015 48.3394C26.7316 48.4411 26.7779 48.8481 26.6946 49.1533C26.6392 49.3476 26.7131 49.5603 26.519 49.7823C26.2138 49.1718 25.9179 48.5891 25.6221 48.0064C25.4464 48.0712 25.4001 48.1637 25.4001 48.2469L25.2152 48.2654C25.2152 48.2192 25.206 48.1637 25.1967 48.1174C25.169 47.9232 25.1227 47.6735 24.8453 47.692C24.6419 47.7105 24.5865 47.9047 24.5587 48.0804C24.5217 48.2839 24.5217 48.4874 24.494 48.6909C24.3553 49.4863 24.3183 50.291 23.9484 51.0402C23.5416 49.8933 23.6525 48.7279 23.6988 47.5717C23.708 47.248 23.9577 47.2203 24.2073 47.2295C25.1412 47.248 26.0751 47.1648 27.009 47.0815C27.7025 47.026 28.3313 46.8688 28.9508 46.5913C29.3761 46.3971 29.8107 46.1936 30.2545 46.0826C31.4381 45.7496 32.1131 46.1659 32.4367 47.3682Z" fill="#13751E"/>
<path d="M28.4506 13.9604C28.0993 14.2009 27.7757 14.5431 27.3041 14.2471C27.2486 14.2101 27.1377 14.2379 27.0544 14.2564C26.3147 14.4044 26.3147 14.4044 26.25 13.5072C26.9805 13.6552 27.6832 13.9327 28.4506 13.9604Z" fill="#13751E"/>
<path d="M26.0562 49.8193C26.3614 50.5685 26.3429 50.661 25.7973 51.4564C25.3812 50.661 25.3442 49.8101 25.2425 48.9777C25.2148 48.7372 25.224 48.4967 25.1963 48.2562L25.3812 48.2377C25.3812 48.3117 25.4182 48.395 25.4459 48.4597C25.6494 48.9129 25.8713 49.3569 26.0562 49.8193Z" fill="#13751E"/>
<path d="M25.6214 13.1372C25.6306 13.1741 25.5011 13.2944 25.4549 13.2851C25.1683 13.2204 25.0943 12.9707 24.9648 12.6192C25.307 12.7857 25.5566 12.8597 25.6214 13.1372Z" fill="#13751E"/>
<path d="M24.9189 15.2091C25.3257 14.3857 25.3442 14.3857 25.8157 15.024C25.4829 15.1258 25.2148 15.2276 24.9189 15.2091Z" fill="#13751E"/>
<path d="M24.7522 11.8606C24.706 11.8606 24.6505 11.8421 24.6135 11.8052C24.5673 11.7682 24.5488 11.7219 24.5488 11.6665C24.6135 11.7404 24.6875 11.8052 24.7522 11.8606Z" fill="#F71506"/>
<path d="M24.5677 13.5718C25.1132 13.9602 25.1132 13.9602 24.5677 14.4319C24.4198 14.1452 24.5677 13.8677 24.5677 13.5718Z" fill="#13751E"/>
<path d="M23.8186 12.092C24.0867 12.3417 24.2624 12.5637 24.1237 12.8597C23.874 13.4054 23.6336 13.9603 23.1436 14.58C23.1528 13.5904 23.5412 12.9152 23.8186 12.092Z" fill="#13751E"/>
<path d="M23.9015 14.654C23.8645 14.8946 24.2251 15.1536 23.809 15.3016C23.7258 15.3294 23.5132 15.2739 23.5132 15.2276C23.4762 14.9593 23.6334 14.7835 23.9015 14.654Z" fill="#13751E"/>
<path d="M23.4299 11.1856C23.4854 11.3058 23.6056 11.4445 23.4854 11.5833C23.0046 12.166 22.9676 12.9429 22.6347 13.5996C22.4683 13.9326 22.3296 14.2933 21.9412 14.6263C21.8025 14.1638 21.8673 13.7661 21.969 13.3961C22.0984 12.9429 22.2834 12.5174 22.4498 12.0735C22.533 11.8515 22.644 11.6388 22.6994 11.4168C22.7734 11.1486 23.0231 10.7879 22.6717 10.6306C22.2926 10.4641 22.2279 10.9081 22.1262 11.1486C21.932 11.611 21.7933 12.092 21.6176 12.5544C21.4512 12.9799 21.3032 13.4239 20.8686 13.8031C20.7299 13.2204 20.9334 12.7949 21.1091 12.3787C21.3587 11.7868 21.6454 11.2041 21.9043 10.6121C21.9967 10.3994 22.0614 10.1682 22.1077 9.94618C22.1262 9.83519 22.0799 9.71495 21.9505 9.6687C21.8303 9.62245 21.7101 9.6687 21.6454 9.77044C21.5252 9.93692 21.4049 10.1127 21.331 10.2976C21.0813 10.8896 20.8409 11.4908 20.6098 12.092C20.3878 12.6562 20.1289 13.2019 19.6943 13.6366C19.6943 13.2111 19.7776 12.8319 20.018 12.4804C20.5912 11.648 20.9334 10.7139 21.2847 9.77969C21.3125 9.69644 21.3402 9.61321 21.368 9.52996C21.4142 9.33573 21.5066 9.11375 21.331 8.94726C21.0813 8.71603 20.9241 9.06751 20.656 9.09526C20.7762 8.41082 21.1553 7.83737 21.3495 7.19918C21.405 7.00494 21.5714 6.74596 21.5251 6.57023L21.7471 6.49623C22.2556 8.08709 22.6902 9.6872 23.4299 11.1856Z" fill="#13751E"/>
<path d="M22.6631 47.0816C22.922 47.1279 23.0884 47.2481 23.0884 47.5441C23.0699 48.8667 22.9312 50.1523 22.3764 51.401C21.9603 50.4853 21.9881 49.5234 21.9973 48.5615C21.9973 48.3025 22.0343 48.0343 22.0528 47.7753C22.062 47.5718 22.0713 47.3128 21.8216 47.2759C21.5535 47.2296 21.5257 47.4886 21.4888 47.6921C21.3778 48.358 21.2853 49.0239 21.1559 49.6806C21.0819 50.0784 21.0079 50.4853 20.7675 50.8275C20.4716 50.735 20.5179 50.4946 20.5086 50.3096C20.4624 49.6344 20.5086 48.9685 20.5918 48.2933C20.6288 48.0343 20.6196 47.7661 20.6196 47.5071C20.6196 47.3868 20.5363 47.2759 20.4069 47.2574C20.2312 47.2204 20.1203 47.3406 20.1018 47.4886C20.0278 48.0158 19.9631 48.5337 19.9261 49.0609C19.8891 49.5789 19.8521 50.0969 19.5747 50.5871C19.3066 50.4021 19.3158 50.1616 19.2881 49.9489C19.1956 48.9222 19.2788 47.9048 19.4175 46.8781C19.4638 46.5544 19.6209 46.4989 19.8983 46.5544C20.823 46.7302 21.7384 46.9059 22.6631 47.0816Z" fill="#13751E"/>
<path d="M21.5257 20.4255C21.9048 20.9989 21.9973 21.6094 21.7846 22.266C21.5534 22.9967 21.1928 23.6719 20.7305 24.2824C20.6288 24.4211 20.4901 24.5598 20.2867 24.5136C20.0185 24.4581 20 24.2176 20.0278 24.0234C20.1202 23.3667 19.8613 22.8395 19.5377 22.2938C18.9921 21.3781 18.9274 20.3515 19.0754 19.3156C19.1586 18.7699 19.4082 18.3166 20.0278 18.1964C20.1849 18.1594 20.3329 18.0577 20.5733 17.9467C20.7305 18.4646 20.564 18.9363 20.8045 19.3248C21.0449 19.6948 21.2853 20.0647 21.5257 20.4255ZM21.3777 21.9146C21.4517 21.5909 21.4425 21.2671 21.276 20.9804C21.0634 20.6012 20.823 20.2312 20.5641 19.8798C20.2867 19.519 20.3236 19.0103 20.0462 18.6496C19.8058 18.7884 19.7041 18.9641 19.6209 19.1491C19.1493 20.2682 19.3805 21.3226 19.9908 22.3123C20.2219 22.6915 20.4346 23.0615 20.5641 23.5239C20.9802 23.0522 21.239 22.5158 21.3777 21.9146Z" fill="black"/>
<path d="M21.7562 6.4963L21.5343 6.5703C21.5158 6.50556 21.4696 6.45007 21.3863 6.41307C20.9702 6.22809 20.924 6.72754 20.7946 6.98651C20.5079 7.61546 20.3692 8.2999 19.9531 8.87334C20.0086 7.44897 20.4247 6.13559 21.0257 4.80371C21.4048 5.20143 21.488 5.63614 21.6175 6.0431C21.6637 6.20034 21.71 6.34832 21.7562 6.4963Z" fill="#13751E"/>
<path d="M21.2761 20.9805C21.4333 21.2672 21.4518 21.5909 21.3778 21.9146C21.2391 22.5158 20.9802 23.0523 20.5641 23.5332C20.4347 23.0615 20.222 22.6916 19.9908 22.3216C19.3898 21.3319 19.1494 20.2775 19.621 19.1584C19.7042 18.9734 19.7967 18.7977 20.0463 18.6589C20.333 19.0196 20.2867 19.5283 20.5641 19.8891C20.823 20.2313 21.0634 20.6013 21.2761 20.9805Z" fill="#FFA9A3"/>
<path d="M21.3034 14.543C21.3034 14.6263 21.2665 14.7095 21.2295 14.7742C21.2017 14.8112 21.1185 14.8112 21.063 14.8112C20.1014 14.8112 19.1397 14.8112 18.1689 14.8112C18.1319 14.3303 18.2521 13.9788 18.4 13.6274C18.8901 12.4897 19.297 11.3336 19.4079 10.0942C19.4172 9.93693 19.4079 9.69646 19.676 9.75195C19.9165 9.80745 19.861 10.0017 19.824 10.1774C19.6483 11.0653 19.4726 11.9625 19.2969 12.8504C19.2415 13.1371 19.1675 13.4239 19.1213 13.7106C19.0658 14.0066 19.0288 14.3303 19.3432 14.4968C19.6391 14.6448 19.8148 14.3765 20.0089 14.2008C20.0459 14.1638 20.1106 14.1453 20.2124 14.0991C20.3695 14.5985 20.6747 14.728 21.137 14.432C21.2202 14.3673 21.3034 14.4505 21.3034 14.543Z" fill="#13751E"/>
<path d="M20.462 3.52722C20.6839 3.85094 20.8041 4.11917 20.5359 4.54463C20.1938 5.08108 20.0274 5.72853 19.7777 6.32048C19.7223 6.44997 19.676 6.59795 19.4541 6.61645C19.4818 5.86726 19.7407 5.18283 19.9441 4.48914C20.0274 4.21166 20.1014 3.92494 20.1476 3.63822C20.1568 3.55498 20.1383 3.46249 20.0551 3.40699L20.3233 3.34224C20.3695 3.39773 20.4157 3.45323 20.462 3.52722Z" fill="#13751E"/>
<path d="M20.3231 3.333L20.0549 3.39774C20.0364 3.38849 20.0087 3.37 19.9717 3.37C19.833 3.34225 19.7313 3.42549 19.6943 3.52723C19.5741 3.82321 19.4816 4.13768 19.3799 4.4429C19.2135 4.92386 19.1025 5.43256 18.6772 5.80253C18.5385 4.9701 18.7142 4.20242 18.8714 3.42549C18.9176 3.18502 19.1025 2.8243 18.7789 2.73181C18.4368 2.63932 18.4275 3.04628 18.3536 3.26826C18.1686 3.88796 17.9097 4.4799 17.6138 5.05335C17.5029 5.25683 17.4289 5.4973 17.1608 5.5713C16.8741 5.47881 16.9666 5.23833 16.9851 5.06259C17.059 4.33191 17.2162 3.61048 17.4012 2.90754C17.4566 2.71331 17.5029 2.50983 17.5399 2.30635C17.5676 2.14911 17.5306 2.00113 17.3549 1.97338C17.2347 1.95488 17.1423 2.04737 17.0961 2.16761C16.9758 2.50058 16.8741 2.83355 16.7447 3.15727C16.5228 3.72147 16.3193 4.29491 15.8663 4.86836C15.6813 4.4059 15.894 4.09144 15.9402 3.77697C15.968 3.54574 16.0604 3.32376 16.1067 3.09253C16.2546 2.38959 16.2546 2.38959 15.5889 2.08437C16.0697 1.45542 16.8002 1.16869 17.5769 1.45542C18.6402 1.84388 19.6111 2.41734 20.3231 3.333Z" fill="#13751E"/>
<path d="M19.4537 7.6987C19.6202 7.91148 19.4537 8.0595 19.3705 8.28153C19.2226 8.0595 19.0562 7.89298 19.2873 7.70796C19.3243 7.68021 19.4353 7.67095 19.4537 7.6987Z" fill="#13751E"/>
<path d="M18.798 46.2399C18.8997 46.2769 19.0199 46.3416 18.9736 46.4896C18.6593 47.433 18.7887 48.4782 18.3541 49.4031C18.3356 49.4494 18.2709 49.4864 18.2339 49.5234C17.9288 48.9592 17.8641 47.7198 18.0675 46.0827C18.3819 46.0179 18.5761 46.1659 18.798 46.2399Z" fill="#13751E"/>
<path d="M18.9364 10.0756C18.9549 10.1681 18.9364 10.2329 18.8994 10.2791C18.9087 10.1959 18.9179 10.1126 18.9179 10.0201C18.9271 10.0386 18.9271 10.0571 18.9364 10.0756Z" fill="#F71506"/>
<path d="M18.8814 6.79227C18.8721 6.86628 18.8721 6.98654 18.7704 6.95879C18.715 6.94953 18.6595 6.83852 18.6318 6.76451C18.6225 6.73676 18.6872 6.66276 18.7242 6.64425C18.8444 6.62575 18.8721 6.70901 18.8814 6.79227Z" fill="#13751E"/>
<path d="M18.0862 5.39555C18.0954 5.45105 18.1324 5.50654 18.1232 5.55278C18.0954 5.73777 18.2249 5.9505 18.0215 6.08924C17.9752 6.11699 17.8458 6.07074 17.7995 6.02449C17.5961 5.78401 17.8181 5.61753 17.929 5.4418C17.9568 5.41405 18.0307 5.41405 18.0862 5.39555Z" fill="#13751E"/>
<path d="M16.4117 44.9635C17.4381 45.4815 17.4566 45.4907 17.2809 46.3787C17.1052 47.2851 17.0035 48.2192 16.5597 49.0702C16.2176 47.7475 16.273 46.4064 16.4117 44.9635Z" fill="#13751E"/>
<path d="M16.93 51.6044C16.9393 51.6137 16.9393 51.6229 16.9485 51.6229C16.9393 51.6229 16.93 51.6229 16.9208 51.6137C16.9115 51.6044 16.893 51.5952 16.8838 51.586C16.893 51.5952 16.9115 51.5952 16.93 51.6044Z" fill="#F71506"/>
<path d="M16.4681 4.93309C16.4589 5.72852 16.2647 6.11698 15.8578 6.16322C15.7839 6.17247 15.6637 6.15398 15.6174 6.10773C15.4972 5.98749 15.4048 5.83951 15.4233 5.58053C15.8948 5.63603 16.1445 5.25681 16.4681 4.93309Z" fill="#13751E"/>
<path d="M15.7738 43.9647C15.82 44.0572 15.8108 44.1959 15.7923 44.3069C15.5704 45.426 15.4224 46.5637 15.0803 47.6643C15.0711 47.7013 14.9971 47.7198 14.8861 47.7938C14.8584 47.4886 14.8214 47.2111 14.8214 46.9336C14.8122 45.6758 14.8029 44.4086 14.9879 43.1507C15.0248 42.8918 15.0156 42.6235 15.0156 42.3646C15.0156 42.3461 15.0156 42.3368 15.0156 42.3183L15.219 42.2721C15.3485 42.8455 15.5242 43.419 15.7738 43.9647Z" fill="#13751E"/>
<path d="M15.1547 2.9538C15.0807 3.21277 15.016 3.48099 14.9143 3.86021C14.7571 3.39775 14.8496 3.12028 15.1547 2.9538Z" fill="#13751E"/>
<path d="M11.6688 16.9016C12.1126 17.4473 12.1126 18.0855 12.0848 18.8531C12.0664 19.7411 11.826 20.703 11.4561 21.6371C11.3267 21.9609 11.1694 22.2846 10.929 22.5436C10.3373 23.191 9.35714 23.043 9.08899 22.2198C8.65441 20.8695 8.46948 19.4913 8.90406 18.0762C9.13522 17.3363 9.65303 16.9016 10.2725 16.5686C10.7904 16.2819 11.2712 16.4299 11.6688 16.9016ZM11.6225 18.7051C11.641 18.0022 11.5486 17.6045 11.3451 17.3085C11.04 16.8738 10.7164 16.7998 10.3095 17.142C9.79172 17.586 9.35714 18.1317 9.16297 18.7699C8.83009 19.8798 9.12599 20.9897 9.46811 22.0534C9.6253 22.5436 10.1801 22.6176 10.5315 22.2291C10.7071 22.0349 10.8273 21.7944 10.9383 21.5539C11.3729 20.6197 11.5486 19.6116 11.6225 18.7051Z" fill="black"/>
<path d="M11.3454 17.3085C11.5488 17.6045 11.6413 17.9929 11.6228 18.7051C11.5581 19.6115 11.3731 20.6197 10.9386 21.5631C10.8276 21.8036 10.7074 22.0441 10.5317 22.2383C10.1804 22.6268 9.62556 22.562 9.46837 22.0626C9.12625 20.9989 8.83036 19.8983 9.16323 18.7791C9.35741 18.1317 9.79199 17.586 10.3098 17.1513C10.7166 16.7998 11.0403 16.8738 11.3454 17.3085Z" fill="#FFA9A3"/>
</svg>
