<svg width="87" height="56" viewBox="0 0 87 56" fill="none" xmlns="http://www.w3.org/2000/svg">
<path d="M65.1916 35.0194C66.5742 37.1153 66.8235 39.4152 66.1662 41.8057C65.033 45.9522 62.4492 48.8978 58.6303 50.8125C57.8257 51.2203 56.9984 51.5375 56.1485 51.8321C54.97 52.2513 53.7687 52.6251 52.6242 53.1463C50.5957 54.0753 48.4879 54.5058 46.6294 54.3699C43.955 54.3699 41.6886 54.1206 39.4788 53.4522C38.4815 53.1463 37.4616 52.9764 36.4644 52.6818C33.0874 51.6622 31.3762 49.5322 30.9683 46.0428C30.549 42.4061 31.7389 39.2792 33.858 36.4243C34.5039 35.5406 35.3312 34.8495 36.4757 34.7022C36.8157 34.6569 37.0537 34.4643 37.2917 34.2377C37.8696 33.6826 38.5495 33.3313 39.3201 33.0934C41.7112 32.391 43.7964 31.0655 45.8588 29.706C46.0288 29.5927 46.1648 29.3661 46.4028 29.4454C47.366 29.74 48.2613 29.4227 49.1112 29.0829C51.4796 28.1539 53.9274 28.0519 56.4092 28.2105C57.973 28.3125 59.4915 28.777 60.9761 29.2641C61.9506 29.5927 62.7099 30.2611 63.1065 31.2581C63.6731 32.5836 64.3984 33.8185 65.1916 35.0194ZM58.0523 42.3721C58.0863 42.2022 58.075 42.0209 58.0863 41.8283C58.0637 41.6017 58.0523 41.3525 57.9957 41.1146C57.8823 40.6274 57.701 40.1629 57.3157 39.823C57.1571 39.6871 56.9644 39.5398 56.7604 39.7437C56.6018 39.9024 56.7038 40.0836 56.8058 40.2196C57.1004 40.5821 57.3044 40.99 57.3497 41.4545C57.3837 41.7717 57.4064 42.0889 57.4517 42.4061C57.4744 42.5534 57.565 42.6893 57.7124 42.7007C57.939 42.7233 58.0183 42.5534 58.0523 42.3721ZM51.4796 35.8125C51.6383 35.4046 51.6609 34.9854 51.5703 34.5662C51.457 34.0224 51.015 33.7279 50.4824 33.7959C50.2897 33.8185 50.1311 33.8978 50.0971 34.0904C50.0858 34.2377 50.1764 34.3736 50.3237 34.4076C50.9923 34.5209 50.913 34.9854 50.8564 35.4613C50.845 35.5292 50.8337 35.5972 50.8224 35.6765C50.7997 35.8918 50.777 36.141 51.0377 36.1977C51.3096 36.243 51.4116 36.0051 51.4796 35.8125ZM47.9779 47.0172C48.4199 46.462 48.5672 45.8162 48.5899 45.0912C48.5559 44.3548 48.4312 43.6297 47.9326 43.0179C47.7853 42.8366 47.57 42.746 47.366 42.882C47.1394 43.0406 47.23 43.2445 47.3774 43.4258C48.0913 44.2981 48.0233 45.2611 47.6833 46.2581C47.6267 46.428 47.5473 46.5866 47.4907 46.7566C47.4454 46.9039 47.468 47.0625 47.604 47.1304C47.74 47.1984 47.8873 47.1418 47.9779 47.0172ZM42.1872 38.3842C42.2099 38.2823 42.2099 38.169 42.2099 38.1123C42.1985 37.2626 41.5979 36.7868 40.8726 37.002C40.6573 37.07 40.476 37.1833 40.476 37.4326C40.476 37.6818 40.646 37.8971 40.8613 37.8404C41.4279 37.7045 41.5186 38.0217 41.5639 38.4522C41.5866 38.5995 41.6886 38.7241 41.8472 38.7241C42.0739 38.7354 42.1419 38.5542 42.1872 38.3842ZM38.2776 46.2014C38.5155 45.9069 38.5495 45.5443 38.5609 45.1818C38.5609 44.4454 38.1302 43.7996 37.507 43.5957C37.2917 43.5277 37.0763 43.4937 36.963 43.7543C36.8724 43.9582 37.0084 44.1055 37.1783 44.1735C37.9036 44.468 37.9376 45.0459 37.7903 45.6916C37.7676 45.7936 37.7336 45.8955 37.7223 46.0088C37.6996 46.1674 37.7563 46.2921 37.9036 46.3487C38.0623 46.4054 38.1869 46.3147 38.2776 46.2014Z" fill="#966A24"/>
<path d="M83.7054 25.9807C84.9734 27.9378 85.5168 30.0873 84.8828 32.4177C84.5998 33.4698 84.6338 34.5445 84.6677 35.6079C84.6904 36.4111 84.4073 37.0446 83.9092 37.6555C83.0262 38.7415 81.9054 39.4655 80.6374 40.0085C79.3242 40.5628 77.9996 41.0945 76.675 41.6262C75.441 42.1127 74.1617 42.4294 72.8372 42.5878C72.2824 42.6557 71.739 42.6104 71.3315 42.2145C70.4145 41.3547 69.305 41.0832 68.0823 41.0493C67.1313 41.0267 67.0748 40.9927 67.1427 40.0877C67.3238 37.6442 66.554 35.5174 65.1388 33.5829C64.6294 32.8815 64.2445 32.1122 63.9501 31.309C63.2708 29.5103 61.9803 28.4809 60.1236 28.0849C60.0896 28.0736 60.0557 28.0736 60.0217 28.0623C58.5047 27.6664 58.4933 27.6211 58.7198 26.1052C58.8783 25.0757 59.3651 24.216 60.1123 23.5146C60.8368 22.8358 61.6067 22.191 62.3765 21.5575C62.9992 21.0371 63.7577 20.8335 64.5388 20.6864C65.3766 20.5393 66.237 20.4149 67.0634 20.2339C69.271 19.7361 71.5013 19.4646 73.8561 19.7927C74.7618 19.7927 75.7694 19.804 76.7656 19.7927C77.8638 19.7814 78.8034 20.166 79.5506 20.9579C81.0223 22.553 82.5167 24.1594 83.7054 25.9807ZM78.7468 30.5624C78.7581 29.8949 78.7015 29.3972 78.4072 28.9673C78.2826 28.7863 78.1241 28.6166 77.8751 28.7184C77.5694 28.8429 77.5694 29.1144 77.7166 29.3406C78.2487 30.1212 78.0222 30.9018 77.7732 31.6937C77.6826 31.9652 77.5694 32.2254 77.4902 32.4969C77.4335 32.6666 77.4222 32.8702 77.6373 32.9494C77.8524 33.0286 77.977 32.8702 78.0675 32.7231C78.4977 32.0104 78.7128 31.2298 78.7468 30.5624Z" fill="#966A24"/>
<path d="M58.1039 25.465C58.1265 25.6836 58.183 25.8217 58.1604 25.9598C58.0926 26.4547 58.2283 27.0647 57.8778 27.41C57.5274 27.7552 57.0073 27.3639 56.5552 27.3754C56.1256 27.3869 55.7073 27.3409 55.2778 27.3639C54.7691 27.3869 54.5995 27.1683 54.5882 26.6619C54.5769 26.121 54.9047 26.1095 55.2778 26.0979C56.2387 26.0519 57.1317 25.6951 58.1039 25.465Z" fill="#966A24"/>
<path d="M53.7155 26.2427C54.0095 27.0231 53.806 27.3445 52.9804 27.4248C51.5895 27.5625 50.2324 27.8609 48.9206 28.3544C48.3213 28.5725 47.7219 28.8249 46.9869 28.7217C46.9642 28.32 47.2017 28.1249 47.3374 27.8724C47.9933 26.633 48.9093 25.5312 49.3278 24.154C49.4182 23.8442 49.5879 23.7638 49.8819 23.8671C50.9675 24.2458 52.0418 24.6475 52.9804 25.3246C53.3084 25.5542 53.5685 25.864 53.7155 26.2427Z" fill="#966A24"/>
<path d="M70.4378 12.397C71.6612 14.723 70.7549 16.6199 68.5234 17.67C67.5832 18.1103 66.609 18.4378 65.8387 19.1717C65.4762 19.5217 64.9665 19.7024 64.4567 19.6346C64.0376 19.5782 63.7657 19.6233 63.6184 20.0524C63.5958 20.1314 63.4599 20.1879 63.3692 20.233C61.5115 21.1589 60.0276 22.5364 58.7815 24.1624C58.7022 24.2753 58.5889 24.3995 58.4757 24.4447C57.3655 24.8286 56.2667 25.2689 55.066 25.3141C54.5449 25.3367 54.0692 25.1447 53.6614 24.8512C52.6872 24.1624 51.611 23.6769 50.4896 23.3268C49.8326 23.1236 49.4927 22.7849 49.4701 22.0509C49.3681 18.7313 48.1334 15.8182 46.185 13.1648C45.2675 11.9115 44.1234 10.8953 42.9113 9.9468C41.2574 8.63702 39.6942 7.22563 38.2443 5.69003C37.7911 5.20451 37.4627 4.67382 37.3494 4.01893C37.1908 3.18338 37.3607 2.7769 38.097 2.30268C38.7767 1.86232 39.5356 1.68165 40.3399 1.64778C40.9856 1.61391 41.6313 1.63648 42.2656 1.63648C44.8483 1.44453 47.3065 2.18975 49.7646 2.74302C53.2875 3.52211 56.7765 4.48187 60.3447 5.03513C62.7575 5.40774 64.8305 6.41264 66.5184 8.20794C67.3 9.0322 68.1722 9.78872 68.9991 10.5678C69.5429 11.1098 70.0639 11.6969 70.4378 12.397ZM65.1024 15.1746C65.1137 14.994 64.9891 14.8472 64.7286 14.8585C64.5133 14.881 64.434 15.073 64.3548 15.2762C63.9923 16.2021 63.29 16.8457 62.497 17.4102C62.3271 17.5345 62.1345 17.6361 61.9759 17.7716C61.8287 17.8845 61.738 18.0426 61.84 18.2345C61.9759 18.4829 62.1912 18.4378 62.3837 18.3023C63.4032 17.6248 64.3321 16.8683 64.9098 15.773C65.0005 15.5811 65.0911 15.3779 65.1024 15.1746ZM56.2781 11.6856C56.448 11.3695 56.6066 11.0195 56.38 10.6807C56.2441 10.4662 55.9382 10.4888 55.8703 10.7259C55.757 11.1437 55.6097 11.505 55.2586 11.7985C55.1 11.934 55.3039 12.1034 55.4964 12.1486C55.8703 12.1824 56.1081 11.9905 56.2781 11.6856ZM54.7941 20.1201C54.8394 19.9733 54.8054 19.8266 54.6695 19.7475C54.5336 19.6685 54.375 19.6911 54.273 19.7927C53.8313 20.2556 53.4008 20.7186 52.8118 21.0008C52.6758 21.0686 52.6305 21.238 52.7211 21.3622C52.7778 21.4412 52.8911 21.4638 52.959 21.4977C53.4235 21.509 54.6582 20.5605 54.7941 20.1201ZM47.6803 8.68219C47.7483 8.5467 47.7256 8.33215 47.7143 8.16279C47.703 8.016 47.5897 7.91437 47.4084 7.8692C47.3405 7.90308 47.1932 7.92567 47.1705 7.99342C46.8987 8.74993 46.4229 9.33707 45.7999 9.83389C45.7546 9.86776 45.7885 10.0484 45.8339 10.1162C45.9245 10.2517 46.0944 10.2404 46.219 10.1726C46.876 9.84518 47.3518 9.32579 47.6803 8.68219Z" fill="#966A24"/>
<path d="M35.4423 33.8892C35.6672 33.8442 35.9147 33.7428 36.2521 33.9456C33.9803 34.5202 32.8669 36.2554 31.8772 38.0921C31.5398 38.7118 31.2474 39.3654 30.9662 40.0189C30.5051 41.1344 30.2802 41.2696 29.1331 41.0104C27.3112 40.6048 25.7029 39.8611 24.6008 38.2611C24.3196 37.8555 24.016 37.4949 24.1397 36.909C24.2297 36.4357 23.8473 36.0076 23.881 35.478C23.9485 34.5878 24.1622 33.7202 24.2409 32.8413C24.2859 32.3456 24.5558 32.2667 24.9719 32.3568C25.8379 32.5258 26.7151 32.6723 27.5811 32.8639C28.9306 33.1568 30.2802 33.4836 31.6298 33.7991C32.9006 34.0808 34.1602 34.1484 35.4423 33.8892Z" fill="#966A24"/>
<path d="M22.9146 31.5807C23.3105 31.8068 23.4688 32.1006 23.4236 32.5301C23.3897 32.8127 23.4123 33.1065 23.367 33.3778C22.5867 37.6275 21.0485 41.5269 18.1759 44.8272C15.8121 47.5511 12.8037 48.5796 9.26375 48.2066C8.38159 48.1162 7.62382 47.7432 6.96786 47.1442C5.80295 46.093 4.67199 45.008 3.67673 43.7873C1.66359 41.3234 0.939755 38.43 0.928445 34.768C0.849277 33.0048 1.38083 30.9252 3.09992 29.2637C3.22433 29.1394 3.29219 28.9698 3.4166 28.8342C4.88687 27.2067 6.47024 25.7939 8.56255 24.9349C10.4626 24.155 12.4531 23.5221 14.1835 22.3466C14.6472 22.0301 14.9299 22.1997 15.2014 22.6518C16.4341 24.6636 17.9157 26.4946 19.3747 28.3369C20.3813 29.6141 21.5009 30.7669 22.9146 31.5807ZM11.4465 35.0958C11.4918 34.8245 11.0846 34.4289 10.7566 34.4402C10.5531 34.4402 10.3947 34.5759 10.4287 34.768C10.4965 35.141 10.8132 35.2314 11.0054 35.2766C11.2882 35.2992 11.4126 35.2653 11.4465 35.0958ZM9.78401 40.7244C9.84056 40.5322 9.67089 40.4079 9.51256 40.3288C8.82266 39.9784 8.11015 39.6507 7.4768 39.1873C7.42025 39.1421 7.34108 39.142 7.2506 39.1194C7.18274 39.1646 7.06966 39.2099 7.03573 39.289C6.96787 39.4246 7.04704 39.5715 7.14882 39.6732C7.74824 40.2384 8.49467 40.5774 9.25243 40.8713C9.43338 40.9391 9.69353 41.0069 9.78401 40.7244Z" fill="#966A24"/>
<path d="M48.6942 21.3848C48.8529 22.8923 48.8756 24.4566 47.7876 25.7488C47.5836 25.9869 47.4363 26.2929 47.289 26.5763C46.371 28.3446 44.9657 29.5348 43.2205 30.5549C40.6479 32.0512 37.9394 32.8787 35.0382 33.2867C34.0635 33.4227 33.1116 33.3887 32.1596 33.1847C29.8477 32.7086 27.5698 32.0512 25.2239 31.7565C24.5439 31.6771 24.3626 30.793 23.4786 31.0083C22.9233 31.1444 22.368 30.4416 21.892 30.0222C21.4161 29.5914 20.9401 29.1494 20.5208 28.662C18.9342 26.8143 17.4382 24.8873 16.0896 22.8697C14.809 20.9427 13.9477 18.823 13.3697 16.59C13.2677 16.1819 13.2677 15.7398 13.1657 15.3204C13.0184 14.697 13.721 14.6517 13.823 14.3003C13.9364 13.9149 13.0864 13.7788 13.3584 13.1554C13.5737 12.6793 13.5171 12.0785 14.0497 11.7612C14.3217 11.5911 14.3557 11.2964 14.4237 11.0131C14.9337 8.95005 16.0329 7.31777 17.7215 6.01422C19.8748 4.33661 22.1867 3.04438 24.9292 2.65899C25.4279 2.59098 25.9265 2.55698 26.5272 2.50031C28.5898 2.81769 30.7883 2.8177 32.9076 3.41847C34.6302 3.90588 36.1601 4.74469 37.4067 6.02556C39.186 7.85053 41.0786 9.52813 43.0505 11.1491C46.3143 13.7675 48.2749 17.1907 48.6942 21.3848ZM39.6166 24.3432C40.4099 24.6039 41.8152 23.5498 41.7359 22.7336C41.7246 22.643 41.6565 22.5296 41.5772 22.4843C41.4525 22.3936 41.2826 22.4276 41.1919 22.5409C41.0446 22.7336 40.9652 22.983 40.8179 23.1757C40.5573 23.5271 40.2513 23.8105 39.7526 23.7085C39.56 23.6631 39.3107 23.5271 39.22 23.8218C39.118 24.1392 39.3787 24.2639 39.6166 24.3432ZM37.9054 12.7473C38.0527 12.634 37.996 12.3393 37.826 12.1692C37.6674 12.0219 37.4634 12.0445 37.3501 12.1806C36.7948 12.8833 36.2395 13.5748 35.5935 14.1869C35.4575 14.3116 35.5481 14.527 35.7861 14.5836C35.8541 14.5723 35.9335 14.595 35.9901 14.5609C36.7721 14.1075 37.2141 13.2914 37.9054 12.7473ZM31.797 19.1971C31.797 18.9477 31.7176 18.8343 31.5816 18.7663C31.4343 18.6983 31.2757 18.721 31.1963 18.8457C31.0377 19.0837 30.9243 19.3444 30.7883 19.5938C30.4823 20.1379 30.1197 20.6139 29.4057 20.6253C29.1564 20.6253 28.8391 20.6706 28.8957 21.0107C28.9411 21.3281 29.2471 21.4414 29.5417 21.4754C29.8137 21.4981 30.0064 21.3054 30.2217 21.192C31.0377 20.716 31.491 19.9565 31.797 19.1971ZM30.7657 8.03189C30.981 7.82785 30.9357 7.38577 30.6183 7.19307C30.2783 6.9777 30.097 7.27241 29.9837 7.53312C29.6891 8.16789 29.2471 8.55329 28.5104 8.55329C28.2951 8.55329 28.0685 8.65533 28.0798 8.91604C28.0911 9.2561 28.3858 9.24476 28.5218 9.2561C29.587 9.30144 30.1537 8.59865 30.7657 8.03189ZM21.9374 16.76C21.9714 16.6466 21.96 16.5333 21.858 16.4879C21.7787 16.4426 21.6427 16.4199 21.5634 16.4539C21.1894 16.6013 20.9627 16.9414 20.6681 17.1907C20.2488 17.5421 19.8295 17.6895 19.3195 17.3834C19.1042 17.2587 18.8208 16.9187 18.6282 17.3268C18.4808 17.6328 18.8435 17.8028 19.0588 17.9615C19.2855 18.1429 19.5575 18.2336 19.8521 18.2222C20.4641 18.2336 21.7674 17.3268 21.9374 16.76Z" fill="#966A24"/>
<path d="M14.0538 20.6141C14.2575 21.0675 14.2801 21.3621 13.771 21.6455C13.0583 22.0422 12.3683 22.4842 11.599 22.8015C10.1171 23.4136 8.63517 24.0483 7.16455 24.6829C5.62606 25.3516 4.46086 26.519 3.30699 27.6978C2.97893 28.0265 2.68481 28.4005 2.34543 28.7065C1.97212 29.0352 1.67799 28.9218 1.57618 28.4571C1.48568 28.0378 1.50832 27.5958 1.5875 27.1764C1.82506 25.8617 2.24361 24.615 3.06942 23.5382C3.45404 23.0282 3.85 22.5068 4.18937 21.9628C5.73918 19.4694 7.86593 17.6106 10.3886 16.1825C10.9995 15.8312 11.6104 15.4685 12.3683 15.0265C12.6058 17.1119 13.2733 18.8913 14.0538 20.6141Z" fill="#966A24"/>
<path d="M86.0172 30.2813C86.0737 30.8922 86.0398 31.4918 85.8701 32.0914C85.5987 33.0304 85.4403 33.992 85.5421 34.9537C85.7796 37.2277 84.5127 38.6305 82.8499 39.841C82.7594 39.9089 82.6689 39.9655 82.5784 40.0107C79.7505 41.3797 76.9113 42.7146 73.8006 43.3595C72.545 43.6197 71.4251 43.5292 70.4071 42.6015C69.4795 41.7417 68.2579 41.9793 67.1267 41.9906C66.7534 42.0019 66.7421 42.3752 66.6629 42.6241C65.8033 45.5882 63.9707 47.8622 61.6405 49.7968C60.1926 51.0073 58.4959 51.7653 56.7426 52.3988C55.0685 53.0098 53.383 53.6094 51.7315 54.2995C50.4986 54.8086 49.209 55.0009 47.8743 55.0914C43.8021 55.3629 39.9222 54.4579 36.0762 53.3265C32.5469 52.2857 30.7145 49.842 30.2394 46.2896C30.081 45.113 30.0471 43.9365 30.2281 42.7599C30.3072 42.2508 30.1941 42.0132 29.6059 41.9001C28.7349 41.7417 27.8866 41.4362 27.0382 41.1421C25.6242 40.6556 24.6627 39.5921 23.803 38.4269C23.6107 38.1667 23.4524 37.8951 23.2827 37.6236C22.9321 37.782 22.9547 38.1101 22.8642 38.359C21.8914 41.0063 20.5001 43.416 18.6223 45.509C16.6315 47.7264 14.1881 49.0953 11.1114 49.0388C10.7154 49.0388 10.3309 49.0275 9.93496 49.0388C8.57756 49.0727 7.41244 48.6089 6.41702 47.7038C5.41028 46.7874 4.4488 45.8258 3.54387 44.8189C1.47383 42.5223 0.4671 39.7845 0.240867 36.7412C0.139062 35.3836 0.127734 34.026 0.421837 32.6797C0.546265 32.0801 0.704639 31.4918 0.998743 30.9601C1.37203 30.3039 1.73399 29.7948 1.04398 29.0142C0.557577 28.4711 0.783827 27.5661 0.919567 26.8307C1.15711 25.4844 1.6435 24.2173 2.49188 23.1086C2.8991 22.5656 3.31763 22.0338 3.6796 21.4569C5.28586 18.9227 7.49164 17.0334 10.082 15.5739C10.2404 15.4834 10.3874 15.3929 10.5458 15.3137C11.7901 14.7141 12.6384 13.8996 12.8986 12.4062C13.1135 11.1957 13.7131 10.053 14.2108 8.91036C14.799 7.54145 15.7491 6.44406 16.9029 5.49374C19.4254 3.44602 22.1968 1.98662 25.4885 1.69247C25.8052 1.66985 26.1333 1.61326 26.45 1.6472C28.5426 1.87347 30.6466 1.9753 32.7053 2.47308C34.0401 2.78986 35.2391 3.40079 36.506 4.18141C36.7436 2.25814 37.3997 1.46619 39.2322 1.1381C41.4266 0.742137 43.6324 0.776077 45.8382 1.19467C49.4918 1.8961 53.0889 2.77854 56.7087 3.62704C58.0661 3.94381 59.4461 4.11351 60.8261 4.3624C63.1111 4.76968 65.0906 5.73132 66.7308 7.39438C67.6357 8.31076 68.5972 9.17058 69.5248 10.053C70.1469 10.6413 70.7238 11.2862 71.1197 12.0555C72.5224 14.7933 71.4365 17.2822 68.6425 18.538C68.0769 18.7869 67.4208 18.8548 66.9344 19.3639C67.2059 19.5336 67.4208 19.4205 67.6131 19.3639C69.6492 18.8548 71.7192 18.8887 73.7893 18.9566C74.7168 18.9905 75.6444 19.0019 76.5719 19.0132C78.1216 19.0132 79.4225 19.5675 80.4518 20.7441C81.6961 22.1696 82.963 23.5838 84.0942 25.0998C85.2593 26.6497 85.8362 28.3919 86.0172 30.2813ZM84.9199 32.4874C85.5534 30.1568 85.0218 28.0073 83.7435 26.0501C82.5558 24.2286 81.0627 22.6221 79.5808 21.027C78.8343 20.235 77.8954 19.8504 76.7982 19.8617C75.8027 19.873 74.796 19.8617 73.8911 19.8617C71.5383 19.5336 69.3099 19.8051 67.1041 20.3029C66.267 20.4839 65.4186 20.6084 64.5816 20.7554C63.8011 20.8912 63.0432 21.1062 62.4211 21.6266C61.6519 22.2601 60.8827 22.905 60.1587 23.5838C59.4122 24.2852 58.9258 25.145 58.7674 26.1745C58.5298 27.6905 58.5525 27.7358 60.0682 28.1317C60.1022 28.143 60.1361 28.143 60.17 28.1544C62.0251 28.539 63.3147 29.5798 63.9934 31.3787C64.2988 32.1819 64.6721 32.9512 65.1811 33.6526C66.5951 35.5872 67.3642 37.7141 67.1833 40.1578C67.1154 41.0629 67.172 41.0968 68.1221 41.1194C69.3438 41.1534 70.441 41.4136 71.3686 42.2847C71.7871 42.6807 72.3188 42.7259 72.873 42.658C74.1965 42.4997 75.4747 42.1829 76.7077 41.6964C78.0312 41.176 79.3546 40.6329 80.6668 40.0786C81.9337 39.5469 83.0535 38.8115 83.9358 37.7254C84.4335 37.1145 84.7163 36.481 84.6937 35.6777C84.6711 34.6143 84.6372 33.5395 84.9199 32.4874ZM68.4954 17.7121C70.7125 16.6713 71.6174 14.7594 70.4071 12.4288C70.0338 11.7274 69.5135 11.1391 68.9479 10.5961C68.1221 9.80413 67.2512 9.05743 66.4706 8.23156C64.7852 6.43274 62.7152 5.42587 60.3058 5.05253C56.7426 4.49818 53.2586 3.53654 49.7407 2.75592C47.2747 2.21288 44.8314 1.45488 42.2524 1.6472C41.6076 1.6472 40.9628 1.62459 40.3294 1.65853C39.5376 1.69247 38.7684 1.8848 38.0897 2.31471C37.3544 2.78987 37.1961 3.18583 37.3431 4.03433C37.4675 4.6905 37.7843 5.22223 38.2367 5.70871C39.6846 7.24732 41.2456 8.66148 42.8971 9.97383C44.1075 10.9242 45.2387 11.9424 46.1662 13.1981C48.1118 15.8681 49.3448 18.7756 49.4466 22.1017C49.4692 22.8484 49.8086 23.1765 50.4646 23.3801C51.5958 23.7308 52.6591 24.2173 53.6319 24.9074C54.0391 25.2016 54.5029 25.3826 55.0345 25.3713C56.2336 25.326 57.3308 24.8961 58.4394 24.5001C58.5638 24.4549 58.6656 24.3304 58.7448 24.2173C59.9891 22.5769 61.4709 21.208 63.326 20.2803C63.4165 20.235 63.5522 20.1785 63.5748 20.0993C63.7219 19.6694 64.0047 19.6241 64.4119 19.6807C64.9209 19.7486 65.43 19.5675 65.7919 19.2168C66.5951 18.4701 67.5565 18.1534 68.4954 17.7121ZM66.0521 41.7643C66.7082 39.3659 66.4593 37.0806 65.0793 34.9876C64.2875 33.7884 63.5748 32.5665 63.0319 31.2316C62.636 30.236 61.8781 29.5685 60.9053 29.2404C59.4235 28.754 57.9077 28.2901 56.3467 28.1883C53.8808 28.0299 51.4261 28.1204 49.062 29.0594C48.2136 29.3988 47.32 29.7156 46.3585 29.4214C46.121 29.3423 45.9852 29.5685 45.8155 29.6817C43.7568 31.0393 41.6755 32.3629 39.2887 33.0643C38.5082 33.2906 37.8295 33.6413 37.2639 34.207C37.0264 34.4446 36.7888 34.6256 36.4495 34.6708C35.2957 34.8179 34.4813 35.508 33.8365 36.3905C31.7325 39.2414 30.5335 42.3639 30.952 45.9955C31.3592 49.48 33.0673 51.6069 36.4382 52.6251C37.4336 52.9193 38.4516 53.089 39.4471 53.3944C41.6528 54.0619 43.9152 54.3108 46.5847 54.3108C48.4398 54.4352 50.5438 54.0166 52.5686 53.0889C53.6998 52.5685 54.8988 52.2065 56.0865 51.7766C56.9236 51.4711 57.7606 51.1544 58.5638 50.7584C62.3306 48.8465 64.9209 45.905 66.0521 41.7643ZM58.1 25.9483C58.1226 25.8238 58.0774 25.6767 58.0435 25.4618C57.0707 25.688 56.177 26.0388 55.2155 26.0727C54.8423 26.084 54.5142 26.0953 54.5255 26.6271C54.5368 27.1248 54.7178 27.3398 55.2155 27.3172C55.6454 27.2946 56.0639 27.3398 56.4937 27.3285C56.9462 27.3172 57.4666 27.7131 57.8172 27.3624C58.1679 27.023 58.0208 26.4347 58.1 25.9483ZM52.9871 27.3398C53.8129 27.2606 54.0165 26.9325 53.7224 26.1745C53.5753 25.8012 53.3265 25.4957 52.9984 25.2695C52.0483 24.602 50.9737 24.206 49.8991 23.8327C49.605 23.7308 49.4353 23.81 49.3448 24.1155C48.9262 25.4618 48.01 26.5479 47.3539 27.781C47.2295 28.0299 46.9806 28.2222 47.0033 28.6182C47.7385 28.72 48.3381 28.4711 48.9376 28.2562C50.2384 27.7584 51.5958 27.4756 52.9871 27.3398ZM47.648 25.6654C48.7339 24.3757 48.7113 22.8145 48.553 21.3098C48.1231 17.1239 46.1775 13.7072 42.9424 11.0599C40.9742 9.4534 39.0851 7.76772 37.3092 5.94627C36.0649 4.66786 34.5378 3.83068 32.8185 3.3442C30.7032 2.7446 28.5087 2.74461 26.45 2.42784C25.8505 2.48441 25.3527 2.51834 24.855 2.58622C22.1176 2.97087 19.81 4.27191 17.6608 5.93497C15.9867 7.23601 14.8781 8.87643 14.3691 10.9241C14.3013 11.1957 14.2673 11.5011 13.9958 11.6708C13.4642 11.9989 13.5208 12.5872 13.3058 13.0624C13.023 13.6733 13.8714 13.8204 13.7696 14.205C13.6678 14.5557 12.9665 14.601 13.1135 15.2232C13.2153 15.6418 13.204 16.083 13.3171 16.4903C13.894 18.719 14.7537 20.8346 16.0319 22.7579C17.378 24.783 18.8712 26.6949 20.4548 28.539C20.8733 29.0255 21.3371 29.478 21.8235 29.8966C22.2986 30.3152 22.8415 31.028 23.4071 30.8809C24.2894 30.6546 24.4704 31.537 25.1491 31.6275C27.4907 31.9217 29.7643 32.5779 32.0719 33.053C33.022 33.2567 33.9722 33.2906 34.945 33.1548C37.8408 32.7476 40.5443 31.9217 43.1121 30.4283C44.8541 29.4101 46.2454 28.2335 47.1729 26.4574C47.2974 26.2085 47.4444 25.9143 47.648 25.6654ZM36.2798 33.9355C35.9405 33.7318 35.7029 33.8337 35.4654 33.8789C34.1758 34.1391 32.9089 34.0712 31.642 33.7771C30.2846 33.4603 28.9272 33.1322 27.5698 32.8381C26.6988 32.6457 25.8165 32.4987 24.9455 32.329C24.527 32.2498 24.2555 32.3177 24.2103 32.8154C24.1311 33.6979 23.9162 34.569 23.8483 35.4628C23.8031 35.9945 24.199 36.4244 24.1085 36.8996C23.9954 37.4879 24.2894 37.8499 24.5722 38.2572C25.6808 39.8637 27.2983 40.6103 29.1308 41.0176C30.2846 41.2778 30.4996 41.1421 30.9746 40.022C31.2461 39.3659 31.5515 38.7097 31.8909 38.0875C32.8863 36.2434 33.9948 34.5125 36.2798 33.9355ZM23.3845 32.5326C23.4298 32.0914 23.2714 31.8086 22.8755 31.5823C21.4615 30.7677 20.3417 29.6138 19.3463 28.3467C17.887 26.4913 16.4052 24.6585 15.1723 22.6561C14.8895 22.1922 14.618 22.0338 14.1542 22.3506C12.4235 23.5272 10.4327 24.1608 8.53229 24.9414C6.43964 25.8012 4.856 27.2154 3.38549 28.8445C3.26106 28.9802 3.19321 29.1499 3.06878 29.2744C1.34941 30.9374 0.829051 33.0304 0.896921 34.784C0.908233 38.4495 1.63218 41.3457 3.64566 43.812C4.64109 45.0338 5.77226 46.1199 6.93737 47.1721C7.59344 47.7604 8.35133 48.145 9.23364 48.2355C12.7742 48.6089 15.7831 47.5794 18.1472 44.8528C21.0204 41.5494 22.5588 37.6349 23.3393 33.3924C23.3732 33.1096 23.3619 32.8154 23.3845 32.5326ZM13.8035 21.6039C14.3126 21.3211 14.2899 21.027 14.0863 20.5744C13.3058 18.8435 12.6384 17.0786 12.4009 14.9969C11.643 15.4382 11.0435 15.8115 10.4214 16.1509C7.89886 17.5877 5.77226 19.4431 4.22257 21.9207C3.88322 22.4637 3.48729 22.9842 3.10269 23.4933C2.27694 24.568 1.84712 25.8012 1.62088 27.1248C1.5417 27.5434 1.51907 27.9846 1.60956 28.4032C1.71137 28.8671 2.00547 28.9802 2.37876 28.6521C2.72942 28.3467 3.02352 27.9847 3.34025 27.6453C4.48273 26.4687 5.65915 25.3034 7.19754 24.6359C8.66805 23.991 10.1499 23.3688 11.6317 22.7579C12.4009 22.4411 13.0909 21.9999 13.8035 21.6039Z" fill="black"/>
<path d="M78.5314 29.0233C78.838 29.4566 78.897 29.9584 78.8852 30.6312C78.8616 31.304 78.6258 32.1023 78.1777 32.8207C78.0833 32.969 77.9418 33.1286 77.7296 33.0488C77.5055 32.969 77.5291 32.7637 77.5762 32.5927C77.6588 32.319 77.7767 32.0567 77.8711 31.783C78.1305 30.9847 78.3781 30.1978 77.8121 29.411C77.647 29.1829 77.6588 28.9092 77.9772 28.7838C78.2366 28.6697 78.4135 28.8294 78.5314 29.0233Z" fill="black"/>
<path d="M64.6524 14.8779C64.91 14.8665 65.0333 15.015 65.0221 15.1977C64.9997 15.4032 64.91 15.6087 64.8204 15.7914C64.249 16.9104 63.3303 17.6755 62.3219 18.3491C62.1315 18.4747 61.9186 18.5318 61.7841 18.2806C61.6833 18.0865 61.7841 17.9266 61.9186 17.8125C62.0867 17.6754 62.2659 17.5727 62.434 17.4471C63.2182 16.8762 63.9129 16.2367 64.2714 15.289C64.3611 15.0949 64.4395 14.9008 64.6524 14.8779Z" fill="black"/>
<path d="M58.0165 41.8688C58.0056 42.0657 58.0056 42.2511 57.9839 42.4248C57.9513 42.6102 57.8753 42.784 57.6689 42.7608C57.5277 42.7492 57.4408 42.5986 57.4191 42.4596C57.3757 42.1352 57.3539 41.8108 57.3214 41.4864C57.2671 41.0115 57.0824 40.5944 56.8 40.2237C56.6914 40.0847 56.6045 39.8993 56.7566 39.7371C56.9521 39.5286 57.1367 39.6676 57.2888 39.8182C57.6581 40.1658 57.8318 40.6407 57.9404 41.1389C57.973 41.3822 57.9839 41.6371 58.0165 41.8688Z" fill="black"/>
<path d="M56.4082 10.6965C56.6461 11.0388 56.4796 11.3926 56.3012 11.7121C56.1346 12.0202 55.873 12.2142 55.4924 12.1914C55.3021 12.1457 55.0761 11.9746 55.2426 11.8376C55.6113 11.5409 55.754 11.1758 55.8849 10.7535C55.9443 10.5025 56.2655 10.4911 56.4082 10.6965Z" fill="black"/>
<path d="M54.5966 19.8478C54.7291 19.9259 54.7622 20.0708 54.718 20.2158C54.5966 20.6508 53.3825 21.5877 52.9299 21.5877C52.8747 21.5543 52.7533 21.532 52.6981 21.4539C52.6098 21.3312 52.6429 21.1639 52.7864 21.097C53.3604 20.8181 53.7798 20.3609 54.2103 19.9036C54.3207 19.7809 54.4752 19.7697 54.5966 19.8478Z" fill="black"/>
<path d="M51.4083 34.5958C51.4976 35.0091 51.4641 35.4336 51.3189 35.8246C51.2408 36.0145 51.1514 36.2491 50.8946 36.1933C50.6266 36.1263 50.6601 35.8917 50.6824 35.6794C50.6824 35.6124 50.7047 35.5454 50.7159 35.4672C50.7829 35.0091 50.8499 34.5399 50.1911 34.4282C50.0459 34.4059 49.9566 34.2607 49.9677 34.1154C49.9901 33.9144 50.1576 33.8473 50.3474 33.825C50.8611 33.758 51.2966 34.0596 51.4083 34.5958Z" fill="black"/>
<path d="M48.4755 45.0279C48.4531 45.7499 48.3079 46.3929 47.8722 46.9457C47.7828 47.0698 47.6264 47.1262 47.5035 47.0585C47.3695 46.9908 47.3471 46.8216 47.3918 46.6862C47.4477 46.517 47.5259 46.3591 47.5817 46.1899C47.9169 45.2084 47.9839 44.2495 47.2801 43.3696C47.1349 43.1891 47.0455 42.9748 47.269 42.8281C47.47 42.6927 47.6823 42.783 47.8275 42.9635C48.3191 43.5727 48.4419 44.3059 48.4755 45.0279Z" fill="black"/>
<path d="M47.7171 8.16642C47.7284 8.33821 47.7509 8.54436 47.6833 8.69324C47.3454 9.33457 46.8835 9.87283 46.2301 10.2049C46.1062 10.2737 45.9372 10.2851 45.8471 10.1477C45.802 10.079 45.7682 9.89573 45.8133 9.86137C46.4329 9.35747 46.906 8.76194 47.1764 7.99464C47.1989 7.92593 47.3454 7.90301 47.413 7.86865C47.5932 7.92591 47.7059 8.01754 47.7171 8.16642Z" fill="black"/>
<path d="M42.2147 38.1203C42.2029 38.1773 42.2147 38.2914 42.1911 38.394C42.1558 38.5764 42.0852 38.7475 41.8498 38.7361C41.6851 38.7247 41.5791 38.6106 41.5556 38.4624C41.4967 38.0291 41.4026 37.7099 40.8259 37.8467C40.6023 37.8923 40.4258 37.6757 40.4258 37.4362C40.4258 37.1854 40.6141 37.06 40.8377 37.0029C41.5791 36.7749 42.2029 37.2652 42.2147 38.1203Z" fill="black"/>
<path d="M41.6159 22.6327C41.6837 23.4435 40.2934 24.4908 39.5022 24.2318C39.2649 24.1529 39.0049 24.0291 39.1067 23.7138C39.1971 23.421 39.4457 23.5561 39.6379 23.6012C40.1352 23.7025 40.4404 23.421 40.7003 23.0719C40.8473 22.8804 40.9264 22.6327 41.0733 22.4412C41.1637 22.3286 41.322 22.2948 41.4576 22.3849C41.5367 22.43 41.6045 22.5426 41.6159 22.6327Z" fill="black"/>
<path d="M38.4875 45.1581C38.476 45.5221 38.4415 45.8747 38.1999 46.1818C38.1079 46.2956 37.9929 46.3866 37.8318 46.3183C37.6708 46.2615 37.6248 46.125 37.6478 45.9771C37.6593 45.8747 37.6938 45.761 37.7168 45.6586C37.8663 45.0102 37.8433 44.4414 37.0956 44.1343C36.9231 44.066 36.785 43.9182 36.8771 43.7134C36.9921 43.4632 37.2107 43.4859 37.4292 43.5542C38.0504 43.7589 38.4875 44.4187 38.4875 45.1581Z" fill="black"/>
<path d="M37.7232 12.1458C37.8978 12.3171 37.956 12.6139 37.8047 12.728C37.0827 13.276 36.6402 14.1093 35.8251 14.5545C35.7669 14.5888 35.6854 14.5774 35.6155 14.5774C35.3709 14.5203 35.2894 14.3034 35.4175 14.1778C36.0813 13.5499 36.6519 12.8536 37.2224 12.1572C37.3505 12.0203 37.5601 11.9974 37.7232 12.1458Z" fill="black"/>
<path d="M31.4205 18.6477C31.553 18.7142 31.6303 18.8251 31.6303 19.0692C31.3322 19.8235 30.8907 20.5556 30.096 21.0104C29.8863 21.1213 29.6986 21.3099 29.4337 21.2877C29.1467 21.2544 28.8487 21.1546 28.8045 20.8329C28.7493 20.5001 29.0474 20.4558 29.3012 20.4558C29.9966 20.4447 30.3499 19.9899 30.6479 19.4463C30.7803 19.2023 30.8907 18.9472 31.0452 18.7142C31.1335 18.6033 31.2881 18.57 31.4205 18.6477Z" fill="black"/>
<path d="M30.4544 7.19563C30.7733 7.39472 30.8188 7.81504 30.6025 8.01413C29.9876 8.5561 29.4296 9.25291 28.3478 9.20867C28.2112 9.19761 27.9265 9.20867 27.9037 8.87686C27.8923 8.62246 28.1315 8.5229 28.3364 8.5229C29.0766 8.5229 29.5207 8.14684 29.8168 7.52745C29.9306 7.27306 30.1128 6.98548 30.4544 7.19563Z" fill="black"/>
<path d="M21.842 16.4191C21.9459 16.4646 21.9575 16.5896 21.9229 16.6919C21.7381 17.2715 20.4215 18.1693 19.7979 18.1579C19.4976 18.1579 19.2204 18.067 18.9895 17.8965C18.77 17.7374 18.3889 17.5669 18.5506 17.2601C18.7469 16.851 19.0472 17.1919 19.2551 17.3169C19.7748 17.6238 20.2136 17.476 20.6294 17.1237C20.9296 16.8737 21.1606 16.5327 21.5418 16.385C21.6341 16.3509 21.7612 16.3736 21.842 16.4191Z" fill="black"/>
<path d="M10.6563 34.4124C10.9864 34.4003 11.4077 34.8231 11.3508 35.1131C11.3167 35.2943 11.18 35.3305 10.8954 35.2943C10.7018 35.2459 10.383 35.1493 10.3147 34.7507C10.2919 34.5453 10.4513 34.4124 10.6563 34.4124Z" fill="black"/>
<path d="M9.5782 40.3837C9.73925 40.4614 9.91182 40.5836 9.8543 40.7724C9.76227 41.0501 9.49767 40.9834 9.31361 40.9057C8.54288 40.6169 7.78366 40.2837 7.17397 39.7283C7.07044 39.6284 6.98991 39.4951 7.05894 39.3507C7.09345 39.2729 7.20847 39.2285 7.27749 39.1841C7.36952 39.2063 7.45005 39.2174 7.50756 39.2507C8.15176 39.7061 8.87648 40.0393 9.5782 40.3837Z" fill="black"/>
</svg>
