<svg width="78" height="92" viewBox="0 0 78 92" fill="none" xmlns="http://www.w3.org/2000/svg">
<g clip-path="url(#clip0_214_167687)">
<path d="M62.0543 19.1587C64.012 19.8777 65.5845 21.4745 67.5452 22.2801C68.5391 22.6883 69.5387 22.9554 70.5749 23.2225C68.4524 25.1237 66.9795 26.9483 63.9834 27.2977C60.4911 27.7052 57.9934 26.8287 56.0893 23.8032C55.6861 23.1623 53.9439 22.0639 53.9912 21.2798C54.0442 20.3997 55.78 19.8576 56.4731 19.5719C58.1939 18.863 60.2469 18.4949 62.0535 19.158L62.0543 19.1587Z" fill="#E87726"/>
<path d="M67.3822 25.9801C67.0005 26.0875 66.6195 26.1957 66.235 26.2909C65.9328 26.3654 65.6471 26.4921 65.3564 26.6017C65.09 26.7019 64.8057 26.8115 64.5164 26.8072C64.2421 26.8029 63.9736 26.7041 63.7452 26.5558C63.2332 26.2243 62.873 25.6808 62.9625 25.0535C62.9933 24.8394 63.0943 24.6074 63.0613 24.389C63.0241 24.1405 62.8043 23.9099 62.5801 23.8104C62.1369 23.6135 61.6449 23.529 61.1845 23.38C60.9732 23.3113 60.7541 23.239 60.5636 23.1215C60.4727 23.0649 60.3101 22.9539 60.3245 22.8243C60.3517 22.5773 60.5336 22.5021 60.762 22.5143C60.9016 22.5214 61.052 22.558 61.1909 22.5379C61.3427 22.5157 61.5003 22.4813 61.6399 22.4147C61.9249 22.2794 62.1734 22.0846 62.4655 21.9586C62.7155 21.8512 62.9818 21.7696 63.2568 21.7803C63.9579 21.8068 64.5816 22.2687 65.0692 22.7341C65.6421 23.2805 66.182 23.8491 66.9847 24.0324C67.7259 24.2014 68.4556 24.1405 69.1466 23.8161C69.5376 23.6328 69.9021 23.3149 70.3117 23.1559C69.3693 22.9103 68.4541 22.6553 67.5454 22.2816C65.5841 21.476 64.0116 19.8784 62.0545 19.1602C60.2478 18.4971 58.1948 18.8651 56.4741 19.574C55.7802 19.8598 54.0444 20.4018 53.9922 21.2819C53.9449 22.066 55.6871 23.1652 56.0903 23.8054C57.9943 26.8308 60.492 27.7073 63.9844 27.2998C65.3972 27.1351 66.4713 26.6418 67.4351 25.9672C67.418 25.9722 67.4008 25.9772 67.3829 25.9823L67.3822 25.9801Z" fill="#E76827"/>
<path d="M65.5177 26.6962C65.1446 26.7571 64.7737 26.8287 64.4056 26.9153C64.1578 26.974 63.9158 27.0528 63.6659 27.1044C63.2391 27.1924 62.6584 27.2368 62.3562 26.8466C62.0991 26.515 62.3082 26.0868 62.2731 25.7116C62.2137 25.0635 61.5979 24.8072 61.0321 24.7155C60.4292 24.6174 59.8005 24.6403 59.2119 24.4663C58.9312 24.3833 58.6576 24.2472 58.4134 24.0861C58.2917 24.0052 58.1363 23.8999 58.0984 23.7481C58.0404 23.5132 58.3741 23.3428 58.5237 23.2325C58.6505 23.1387 58.788 23.0349 58.8624 22.8924C58.9476 22.7305 58.9569 22.5043 58.8123 22.3711C58.6304 22.2035 58.3633 22.1419 58.1299 22.0832C57.8936 22.0238 57.6444 21.9779 57.4217 21.8762C57.2434 21.7946 57.1145 21.6793 57.0686 21.4817C57.0235 21.2855 57.0908 21.1115 57.2298 20.9711C57.3866 20.8136 57.6078 20.7148 57.8169 20.6482C58.0232 20.5823 58.2552 20.52 58.4736 20.5221C58.7822 20.5243 59.0758 20.5902 59.3658 20.6933C59.6394 20.79 59.9151 20.906 60.2094 20.9131C60.5961 20.9231 60.9269 20.7663 61.262 20.5916C61.5742 20.4283 61.9115 20.2515 62.2745 20.2536C62.5703 20.2558 62.8524 20.2801 63.1346 20.3761C63.4217 20.4742 63.6924 20.6152 63.9452 20.7828C64.9906 21.4752 65.7647 22.5486 66.9455 23.0377C67.4268 23.2368 67.9395 23.3134 68.4579 23.259C68.8668 23.216 69.2649 23.1108 69.6545 22.9804C68.9413 22.7842 68.2402 22.568 67.5435 22.2816C65.5821 21.476 64.0096 19.8784 62.0526 19.1602C60.2459 18.4971 58.1929 18.8651 56.4721 19.574C55.7783 19.8598 54.0425 20.4018 53.9902 21.2819C53.9429 22.066 55.6852 23.1652 56.0883 23.8054C57.9924 26.8308 60.4901 27.7073 63.9824 27.2998C64.9355 27.1881 65.7347 26.9275 66.4493 26.563C66.1378 26.6038 65.827 26.6475 65.517 26.6976L65.5177 26.6962Z" fill="#DD5125"/>
<path d="M66.6229 24.8781C65.6118 24.0102 64.3487 23.4187 63.1227 22.9002C61.8023 22.3417 60.4439 21.9092 59.0554 21.5569C56.4317 20.8909 53.4327 20.7971 50.9945 22.1233C50.94 22.1534 50.8369 22.3037 50.8154 22.3102C52.0901 21.9264 53.3074 21.6349 54.6493 21.6091C56.0271 21.5819 57.4241 21.7481 58.7725 22.0187C61.5387 22.5744 63.9527 24.0574 66.6129 24.8874C66.6151 24.8874 66.6236 24.8781 66.6236 24.8781H66.6229Z" fill="#C95C20"/>
<path d="M57.6851 15.6378C57.0048 15.8383 56.3117 15.9873 55.6192 16.1369C55.3342 16.1985 55.017 16.2329 54.7456 16.3424C54.5143 16.4363 54.2995 16.5694 54.0839 16.6948C53.8519 16.8294 53.6171 16.9705 53.3657 17.0664C53.2103 17.1258 53.0041 17.1967 52.8401 17.1244C52.4663 16.9604 52.5694 16.2794 52.6103 15.9722C52.6439 15.7209 52.6933 15.4724 52.7377 15.2232C52.7878 14.9375 52.7649 14.6661 52.7348 14.3775C52.6919 13.9622 52.6317 13.549 52.5959 13.1337C52.5616 12.7384 52.5845 12.3403 52.5465 11.9464C52.5107 11.5798 52.4413 11.2175 52.4105 10.8501C52.384 10.5372 52.3725 10.2013 52.4799 9.90129C52.689 9.31554 53.2297 8.92671 53.6937 8.55005C53.9329 8.35599 54.1856 8.15764 54.3704 7.90844C54.4534 7.79601 54.5293 7.67356 54.5644 7.53679C54.6088 7.3635 54.5336 7.20023 54.4355 7.06131C54.3604 6.95462 54.2673 6.84864 54.2214 6.72404C54.1763 6.60302 54.1677 6.46625 54.1749 6.33807C54.1799 6.23925 54.1978 6.14473 54.2257 6.0545C54.1863 6.08172 54.147 6.10749 54.1083 6.13614C51.09 8.28939 51.3578 11.2597 51.6335 14.5315C51.7631 16.0696 51.7746 17.6099 51.8218 19.1516C53.4867 17.7639 53.2082 17.8663 54.4613 17.3185C55.6923 16.7807 56.9769 16.2264 58.1312 15.4968C57.983 15.5469 57.8341 15.5941 57.6837 15.6385L57.6851 15.6378Z" fill="#CE3823"/>
<path d="M62.9605 1.51239C60.1663 3.81388 56.9024 4.14327 54.1083 6.13684C51.09 8.2901 51.3578 11.2604 51.6335 14.5322C51.7631 16.0703 51.7746 17.6106 51.8218 19.1523C53.4867 17.7646 53.2082 17.867 54.4613 17.3192C56.6754 16.3517 59.0629 15.3328 60.5502 13.3327C62.0668 11.2941 62.7077 8.53142 62.9605 6.0459C63.113 4.54929 63.04 3.01115 62.9598 1.51239H62.9605Z" fill="#EA8426"/>
<path d="M62.6963 7.91989C62.5137 7.96715 62.3375 8.03374 62.1792 8.13758C61.9157 8.31087 61.7159 8.55935 61.5706 8.8379C61.4531 9.06275 61.3615 9.33916 61.1531 9.49956C60.959 9.64922 60.7206 9.74088 60.5158 9.87694C60.354 9.98435 60.1971 10.0896 60.0818 10.25C59.988 10.3803 59.9171 10.5228 59.8634 10.6739C59.7517 10.9869 59.6887 11.317 59.5598 11.6242C59.4331 11.9264 59.2476 12.2121 59.0063 12.4362C58.5945 12.8172 58.0854 12.8401 57.5519 12.8573C57.5319 12.8573 57.524 12.8351 57.5276 12.8193C57.567 12.6496 57.509 12.4756 57.5333 12.3045C57.0836 12.3739 56.7299 12.6983 56.2859 12.7857C56.2701 12.7892 56.2565 12.7778 56.253 12.7627C56.2064 12.5809 56.2086 12.3818 56.21 12.1956C56.2121 11.9163 56.2279 11.6363 56.2565 11.3578C56.3024 10.9081 56.3518 10.3553 56.6583 9.99509C56.9225 9.68431 57.3299 10.0001 57.6579 9.96C58.2293 9.88983 58.5981 9.33916 58.78 8.84005C58.9691 8.32447 59.0722 7.67642 58.8695 7.14867C58.7814 6.9188 58.6332 6.71257 58.4678 6.53212C58.3718 6.42757 58.2358 6.31801 58.1907 6.17838C58.1456 6.03731 58.2 5.89839 58.2737 5.77665C58.4406 5.50168 58.664 5.24604 58.9189 5.04983C59.4653 4.62878 60.1355 4.4741 60.8029 4.35953C61.1502 4.3001 61.5434 4.30368 61.8649 4.14399C62.2186 3.96855 62.4241 3.62913 62.5695 3.27467C62.7163 2.91591 62.8251 2.53137 62.9949 2.18551C62.9841 1.96066 62.9719 1.73581 62.9605 1.51239C60.1663 3.81388 56.9024 4.14327 54.1083 6.13684C51.09 8.2901 51.3578 11.2604 51.6335 14.5322C51.7631 16.0703 51.7746 17.6106 51.8218 19.1523C53.4867 17.7646 53.2082 17.867 54.4613 17.3192C56.6754 16.3517 59.0629 15.3328 60.5502 13.3327C61.6923 11.7968 62.3382 9.84973 62.6955 7.91989H62.6963Z" fill="#E87726"/>
<path d="M62.6037 8.38533C62.1848 8.97395 61.8389 9.62916 61.6248 10.318C61.5074 10.6968 61.4121 11.0842 61.2575 11.4502C61.1873 11.6156 61.1092 11.8161 60.9896 11.9536C60.8944 12.0631 60.7941 12.1684 60.6896 12.2694C60.1375 12.8014 59.5152 13.2604 58.8908 13.703C58.6366 13.8834 58.3738 14.0424 58.0644 14.1075C57.8059 14.1612 57.5446 14.1584 57.2825 14.1448C57.0097 14.1305 56.7311 14.1125 56.4619 14.1713C56.131 14.2429 55.8482 14.4162 55.5796 14.6174C55.3963 14.7549 55.2273 14.9067 55.0583 15.0606C54.9516 15.158 54.8406 15.2633 54.706 15.3199C54.3387 15.4745 53.8918 15.2526 53.5574 15.1108C53.5417 15.1043 53.5309 15.0828 53.5438 15.0678C53.8116 14.7491 53.9892 14.3761 54.0916 13.9736C54.1904 13.5834 54.2807 13.1623 54.2377 12.7592C54.2091 12.4885 54.1131 12.26 53.9942 12.0194C53.9262 11.882 53.8646 11.7423 53.8124 11.5984C53.778 11.5039 53.7558 11.4086 53.7064 11.3205C53.6563 11.231 53.5589 11.1444 53.5367 11.0413C53.5073 10.9038 53.5968 10.7541 53.6591 10.6388C54.0157 9.97575 54.5678 9.46446 55.1457 8.99257C55.1607 8.98039 55.1808 8.98684 55.1894 9.00259C55.2639 9.13722 55.3741 9.32053 55.5388 9.35634C55.6684 9.38426 55.7844 9.30048 55.8639 9.20524C56.0759 8.95032 56.1826 8.59801 56.2341 8.27505C56.2886 7.93706 56.2857 7.59549 56.1131 7.28973C56.0293 7.14221 55.9112 7.03838 55.7988 6.91521C55.725 6.8343 55.6735 6.74121 55.6756 6.62807C55.6806 6.41038 55.7866 6.12466 55.9298 5.96139C56.1174 5.748 56.3716 5.6012 56.6079 5.44868C56.7168 5.3785 56.8278 5.30904 56.9273 5.22526C56.9832 5.178 57.077 5.15007 57.1421 5.11785C57.2266 5.07632 57.3118 5.03478 57.3971 4.99325C57.7623 4.8171 58.1296 4.6438 58.4955 4.46908C59.7258 3.88046 60.9775 3.26105 62.0473 2.40533C62.0337 2.39531 62.028 2.37454 62.0451 2.36165C62.313 2.1547 62.5485 1.91911 62.7662 1.66705C60.0165 3.82747 56.8392 4.18838 54.1102 6.13469C51.092 8.28794 51.3598 11.2582 51.6355 14.53C51.7651 16.0682 51.7765 17.6085 51.8238 19.1502C53.4887 17.7624 53.2101 17.8648 54.4633 17.317C56.6774 16.3496 59.0648 15.3306 60.5521 13.3306C61.6026 11.9178 62.2328 10.1583 62.6051 8.3839L62.6037 8.38533Z" fill="#DE6025"/>
<path d="M61.1682 4.79923C59.2635 7.58693 57.5069 10.4763 55.6558 13.2998C54.7307 14.7112 53.7826 16.1069 52.8101 17.486C52.3139 18.19 51.8184 18.8982 51.2756 19.567C50.6741 20.3081 50.0525 21.017 49.5104 21.8047C49.4037 21.9601 48.8502 23.0357 49.3901 22.5129C50.6504 21.2935 51.6572 19.7875 52.6547 18.3532C53.7332 16.8036 54.7772 15.2304 55.8076 13.6486C57.7275 10.7019 59.6401 7.72514 61.3709 4.66317C61.6029 4.25358 61.2649 4.65601 61.1675 4.79923H61.1682Z" fill="#C95C20"/>
<path d="M42.2393 0.242752C43.1974 3.38349 41.602 5.76732 40.8508 8.73619C39.8884 12.5429 40.81 14.8795 43.8147 17.36C45.0986 18.4205 46.2952 19.4574 47.3614 20.7449C47.7947 17.4144 49.9988 14.742 50.0274 11.3141C50.0568 7.80672 48.1105 5.11712 45.5619 2.88724C44.4592 1.92196 43.3628 0.945944 42.2422 0" fill="#EEA723"/>
<path d="M42.2393 0.242752C43.1974 3.38349 41.602 5.76732 40.8508 8.73619C39.8884 12.5429 40.81 14.8795 43.8147 17.36C45.0986 18.4205 46.2952 19.4574 47.3614 20.7449C47.7947 17.4144 49.9988 14.742 50.0274 11.3141C50.0568 7.80672 48.1105 5.11712 45.5619 2.88724C44.4592 1.92196 43.3628 0.945944 42.2422 0" fill="#EEA723"/>
<path d="M42.2393 0.242752C43.1974 3.38349 41.602 5.76732 40.8508 8.73619C39.8884 12.5429 40.81 14.8795 43.8147 17.36C45.0986 18.4205 46.2952 19.4574 47.3614 20.7449C47.7947 17.4144 49.9988 14.742 50.0274 11.3141C50.0568 7.80672 48.1105 5.11712 45.5619 2.88724C44.4592 1.92196 43.3628 0.945944 42.2422 0" fill="#EEA723"/>
<path d="M46.554 6.08526C46.5303 6.56289 46.617 7.04338 46.7831 7.49093C46.9414 7.917 47.1648 8.31227 47.3452 8.72832C47.5056 9.09925 47.6775 9.49094 47.6761 9.90269C47.6753 10.2235 47.5823 10.5293 47.414 10.8014C47.0208 11.4358 46.4165 11.9049 46.0298 12.5472C46.0183 12.5665 45.9875 12.5722 45.9718 12.5543C45.4132 11.8841 45.6367 10.9281 45.5579 10.1261C45.545 9.99865 45.5615 9.55253 45.3882 9.49667C45.2106 9.43939 44.9664 9.51744 44.7852 9.52746C44.448 9.54608 44.0649 9.57258 43.7362 9.47591C43.6087 9.43867 43.4476 9.36062 43.4634 9.20093C43.4805 9.02549 43.6116 8.87297 43.7197 8.74264C43.9052 8.51922 44.1085 8.31084 44.2854 8.08098C44.4558 7.85971 44.6413 7.59834 44.6714 7.31191C44.68 7.22669 44.6614 7.25892 44.5718 7.24603C44.5253 7.23958 44.4788 7.23027 44.4336 7.21667C44.3477 7.19089 44.2632 7.1558 44.1895 7.10353C43.855 6.86579 43.7784 6.43184 43.787 6.04588C43.7999 5.47229 43.9517 4.90229 44.1322 4.36094C44.3241 3.78377 44.5582 3.22022 44.821 2.67242C44.8697 2.57073 44.9191 2.46833 44.97 2.36665C44.0656 1.57251 43.1626 0.775516 42.2431 0L42.2403 0.242752C43.1984 3.38349 41.603 5.76732 40.8518 8.73619C39.8894 12.5429 40.811 14.8795 43.8157 17.36C45.0996 18.4205 46.2962 19.4574 47.3624 20.7449C47.7956 17.4144 49.9997 14.742 50.0284 11.3141C50.0506 8.61804 48.9049 6.40535 47.2163 4.51275C46.8433 4.95958 46.584 5.48375 46.5547 6.08526H46.554Z" fill="#EB8A25"/>
<path d="M47.2206 4.51919C47.3273 4.89513 47.472 5.26033 47.636 5.61694C47.9489 6.29579 48.3413 6.94814 48.5912 7.65276C48.723 8.02441 48.8626 8.40178 48.9156 8.79491C48.9586 9.11643 48.9435 9.4401 48.955 9.76377C48.9865 10.6818 49.0846 11.6156 48.9578 12.5307C48.8562 13.2633 48.5941 14.0545 47.8952 14.4147C47.5908 14.5715 47.2514 14.661 46.9585 14.8415C46.6427 15.0363 46.4007 15.3442 46.3191 15.7101C46.279 15.8891 46.3126 16.119 46.2346 16.2873C46.1651 16.4391 45.9711 16.3861 45.8472 16.3446C45.4727 16.2192 45.0781 16.0467 44.7523 15.8211C44.5461 15.6779 44.3592 15.5003 44.2747 15.2575C44.1837 14.9962 44.1887 14.7126 44.1945 14.4398C44.2002 14.1455 44.2081 13.8504 44.2038 13.5554C44.1988 13.2153 44.1844 12.8744 44.1372 12.5372C44.0935 12.2278 44.0376 11.8877 43.8722 11.6163C43.7211 11.3685 43.4283 11.211 43.1619 11.4036C42.9678 11.5439 42.801 11.776 42.5375 11.7781C41.7591 11.7853 41.5206 10.9883 41.4483 10.3638C41.3258 9.3019 41.8701 8.37457 42.2553 7.42505C42.4136 7.03478 42.5375 6.63234 42.5375 6.20771C42.5375 5.75586 42.468 5.29972 42.3513 4.86434C42.3126 4.72184 42.2682 4.56573 42.2267 4.40247C41.8572 5.81386 41.2413 7.19662 40.8518 8.73547C39.8894 12.5422 40.811 14.8787 43.8157 17.3592C45.0996 18.4198 46.2962 19.4566 47.3624 20.7442C47.7956 17.4137 49.9997 14.7413 50.0284 11.3134C50.0506 8.62019 48.9077 6.40964 47.2221 4.51847L47.2206 4.51919Z" fill="#E87526"/>
<path d="M43.9446 3.77803C44.9299 6.94383 45.969 10.0717 46.5726 13.3406C47.0624 15.9937 47.2421 18.6661 47.235 21.3614C47.235 21.4037 47.2336 21.814 47.3159 21.8133C47.399 21.8118 47.3839 21.4022 47.3846 21.3593C47.3846 21.3585 47.3846 21.3571 47.3846 21.3564C47.3846 21.3141 47.3861 20.9038 47.3037 20.9053C47.2207 20.9067 47.2357 21.3163 47.2357 21.3585C47.235 21.7259 47.2257 22.0954 47.255 22.462C47.2593 22.5186 47.3123 22.7793 47.3352 22.5823C47.3796 22.2164 47.3768 21.8455 47.3839 21.4767C47.3868 21.3184 47.4126 21.0642 47.3238 20.921C47.2765 20.8444 47.2364 21.2196 47.2364 21.2382C47.2364 21.239 47.2364 21.2404 47.2364 21.2411C47.2335 21.3994 47.2078 21.6543 47.2966 21.7968C47.3438 21.8734 47.3839 21.4982 47.3839 21.4796C47.4391 18.5701 47.2185 15.6972 46.7058 12.8315C46.4101 11.1787 46.0234 9.54392 45.5672 7.92844C45.1247 6.36165 44.6249 4.76837 43.9517 3.28394C43.9804 3.34623 43.9045 3.64914 43.9446 3.77875V3.77803Z" fill="#C95C20"/>
<path d="M53.1416 20.7248C52.0331 23.2547 48.6174 23.0836 46.3094 23.1602C44.9467 23.2053 43.5668 23.244 42.2392 23.582C41.5769 23.7503 41.0126 24.0617 40.4712 24.4735C40.0437 24.7986 39.6663 25.191 39.3112 25.5927C39.0784 25.8562 38.7684 26.3811 38.4139 26.48C38.3767 26.49 38.3946 26.1742 38.4068 26.1434C38.9932 24.616 40.4855 23.2476 42.0015 22.6575C43.2919 22.1548 44.7527 22.1491 46.1175 22.1469C47.5031 22.1448 48.8909 22.1792 50.2672 21.993C51.3814 21.8419 52.5637 21.3915 53.1387 20.3618C53.1201 20.3954 53.1817 20.6346 53.1423 20.7248H53.1416Z" fill="#673C2A"/>
<path d="M27.5691 30.2802C26.3525 31.673 24.684 32.8073 23.1903 33.9014C21.8448 34.8875 19.1766 36.2051 19.3306 37.8298C19.5734 40.3956 22.9167 39.8585 25.0607 39.7425C28.0847 39.58 31.0507 39.8449 34.1764 39.7425C37.2341 39.643 40.3641 39.315 43.4067 39.0558C46.1436 38.8223 49.0301 38.8367 51.8099 38.5123C54.1909 38.2344 54.9714 36.0174 52.6456 34.9261C51.5743 34.4234 52.6979 34.9541 51.5743 34.4235C50.7301 34.0246 46.4916 31.5613 45.7597 30.9848C43.981 29.5827 42.5453 29.6422 41.4661 27.8513C37.8606 16.7606 35.4109 14.9618 35.4109 14.9618C33.4073 13.4057 30.1227 15.211 28.3375 16.7785C28.3375 16.7785 33.2784 24.5974 27.5698 30.2809L27.5691 30.2802Z" fill="#965C45"/>
<path d="M52.6449 34.9268C51.5736 34.4241 52.6971 34.9548 51.5736 34.4241C50.7293 34.0253 46.4909 31.562 45.759 30.9855C43.9803 29.5834 42.5445 29.6429 41.4654 27.8519C41.3329 27.4459 41.2033 27.0564 41.0751 26.6754C40.6734 26.9712 40.2395 27.1344 39.7855 27.017C38.9713 26.8072 38.2137 26.6411 37.3608 26.833C36.2373 27.0857 35.3014 27.7159 34.2 28.0124C34.0232 28.0596 33.8599 27.8949 33.9057 27.7188C34.1227 26.9024 34.5681 26.2386 34.9075 25.4753C35.489 24.1677 35.3307 22.8809 34.9555 21.5354C34.5624 20.124 33.9981 18.7047 34.1936 17.2167C34.3096 16.3266 34.6218 15.3592 35.1317 14.7813C33.1137 13.574 30.0425 15.2811 28.3368 16.7792C28.3368 16.7792 33.2777 24.5981 27.5691 30.2816C26.3525 31.6744 24.684 32.8087 23.1903 33.9028C21.8448 34.8889 19.1766 36.2065 19.3306 37.8313C19.5734 40.397 22.9167 39.8599 25.0607 39.7439C28.0847 39.5814 31.0507 39.8463 34.1764 39.7439C37.2341 39.6444 40.3641 39.3164 43.4067 39.0572C46.1436 38.8237 49.0301 38.8381 51.8099 38.5137C54.1909 38.2358 54.9714 36.0189 52.6456 34.9275L52.6449 34.9268Z" fill="#824F3A"/>
<path d="M52.6451 34.9268C51.5739 34.4241 52.6974 34.9548 51.5739 34.4241C50.7783 34.0489 46.9781 31.8441 45.9247 31.1065C45.6862 31.4875 45.3669 31.7732 44.8964 31.8534C43.2988 32.1241 41.4757 30.664 40.3751 29.7059C39.9855 29.3672 39.5981 29.0227 39.2451 28.6446C38.9365 28.3131 38.766 28.8781 38.4094 29.0822C37.6382 29.524 36.8792 29.5369 36.0134 29.5892C33.7835 29.7252 32.3635 31.7109 30.1559 31.8419C30.0177 31.8505 29.9282 31.7267 29.9174 31.6035C29.7448 29.6944 30.7101 28.2981 31.7613 26.8057C32.9937 25.0542 33.5386 23.3299 32.7051 21.249C31.9332 19.3263 30.6113 16.6574 31.4269 14.84C30.2619 15.3134 29.1455 16.0688 28.3377 16.7785C28.3377 16.7785 33.2787 24.5974 27.5701 30.2809C26.3535 31.6737 24.685 32.8079 23.1913 33.9021C21.8457 34.8882 19.1776 36.2057 19.3316 37.8305C19.5743 40.3963 22.9177 39.8592 25.0617 39.7432C28.0857 39.5806 31.0517 39.8456 34.1774 39.7432C37.2351 39.6437 40.365 39.3157 43.4077 39.0565C46.1445 38.823 49.0311 38.8374 51.8109 38.513C54.1919 38.2351 54.9724 36.0181 52.6466 34.9268H52.6451Z" fill="#673C2A"/>
<path d="M10.9167 36.934C7.65712 39.1718 4.57009 42.6777 2.78776 46.155C-1.18148 53.9009 -0.110933 63.5035 2.87226 71.3331C4.14832 74.6815 6.03448 78.0006 7.8877 81.0511C9.40507 83.5481 11.0929 86.1883 13.708 87.5638C18.5938 90.1339 24.079 90.4783 25.8384 84.4482C27.6071 78.388 26.2086 70.95 26.0024 64.7309C25.789 58.2625 25.5069 51.7369 24.8846 45.4174C24.5803 42.3326 25.5398 36.6225 22.4213 34.5889C19.5283 32.702 13.249 35.3321 10.916 36.9333L10.9167 36.934Z" fill="#F7941D"/>
<path d="M26.003 64.7323C25.7896 58.264 25.5074 51.7383 24.8852 45.4189C24.5808 42.334 25.5404 36.624 22.4219 34.5903C19.5289 32.7034 13.2496 35.3336 10.9166 36.9348C10.817 37.0035 10.7182 37.0766 10.6187 37.1474C11.8095 36.9892 13.087 37.073 13.2546 38.2094C13.6806 41.0931 11.7744 43.194 10.4189 45.5013C8.44752 48.8554 8.32077 52.9227 8.47616 56.8168C8.63943 60.9156 9.42426 64.2254 10.348 68.1445C10.6831 69.568 11.0154 71.3532 10.4203 72.7575C9.51591 74.8928 7.38128 71.7814 6.86355 70.9171C5.98993 69.4585 5.32684 67.8652 4.53056 66.3614C3.69775 64.7882 2.97666 63.2185 2.58854 61.4756C2.146 59.4899 1.7271 57.0781 0.271303 55.6703C-0.0788613 60.9987 1.03178 66.5039 2.87211 71.3346C4.14817 74.683 6.03433 78.002 7.88755 81.0526C9.40492 83.5495 11.0927 86.1897 13.7079 87.5653C18.5937 90.1353 24.0789 90.4798 25.8383 84.4496C27.607 78.3894 26.2085 70.9515 26.0023 64.7323H26.003Z" fill="#F47D20"/>
<path d="M23.8709 76.0392C21.8343 77.8731 19.182 78.8406 16.4609 79.0096C13.9095 79.1685 11.1332 78.5856 9.72898 76.34C9.72182 76.9429 9.56356 77.5416 9.05944 77.9283C8.40709 78.4288 7.51127 78.4467 6.73433 78.2942C6.55316 78.2591 6.37056 78.2126 6.18652 78.161C6.74507 79.1449 7.31722 80.1123 7.88793 81.0525C9.40531 83.5495 11.0931 86.1897 13.7082 87.5653C18.5941 90.1353 24.0793 90.4797 25.8387 84.4496C26.9099 80.7783 26.819 76.6007 26.5347 72.4954C25.8666 73.8194 24.9951 75.0267 23.8702 76.0392H23.8709Z" fill="#EA6A20"/>
<path d="M24.8849 45.4189C24.582 42.3426 25.5337 36.659 22.4466 34.6096C18.0177 38.8853 14.713 44.3082 12.8834 50.2087C11.3796 55.0602 10.4938 60.299 10.8533 65.3918C11.1476 69.5687 12.4415 73.1348 13.7197 77.0353C14.1057 78.2118 14.6363 79.9612 13.931 81.1119C11.5629 84.9774 7.13896 76.7252 6.2503 74.9329C5.28431 72.9851 4.45795 70.9636 3.67814 68.9343C2.27534 65.2808 0.894014 61.5257 0.208008 57.6753C0.210872 62.3642 1.26208 67.1075 2.87255 71.3339C4.1486 74.6823 6.03476 78.0013 7.88798 81.0518C9.40536 83.5488 11.0932 86.189 13.7083 87.5646C18.5941 90.1346 24.0793 90.479 25.8387 84.4489C27.6074 78.3887 26.2089 70.9508 26.0027 64.7316C25.7893 58.2632 25.5072 51.7376 24.8849 45.4182V45.4189Z" fill="#D25F1C"/>
<path d="M4.64603 55.4161C4.63099 55.4763 4.61667 55.5371 4.60235 55.5973C4.59591 55.6252 4.58588 55.6553 4.58302 55.6832C4.57729 55.7384 4.60951 55.5658 4.58158 55.6933C4.57442 55.7248 4.56655 55.7563 4.5601 55.7878C4.53576 55.9023 4.51069 56.0162 4.49064 56.1315C4.41331 56.559 4.39039 57.0001 4.36604 57.434C4.30732 58.4552 4.30374 59.4799 4.35029 60.501C4.43336 62.3313 4.64174 64.153 4.99691 65.9511C5.32416 67.6088 5.75739 69.248 6.27225 70.8577C6.78712 72.4675 7.33277 73.9018 7.98011 75.3769C8.27585 76.0507 8.59522 76.7067 8.94968 77.3518C9.10865 77.6411 9.27765 77.9197 9.45953 78.1947C9.62638 78.4467 9.78606 78.7188 9.99802 78.9358C10.0789 79.0189 10.1677 79.0948 10.2544 79.1728C10.2852 79.2001 10.3317 78.8499 10.326 78.9036C10.3446 78.7282 10.3511 78.552 10.3539 78.3758C10.3568 78.1811 10.3561 77.9841 10.3417 77.7894C10.3317 77.6533 10.3346 77.4944 10.2816 77.3669C10.1198 76.9766 9.96294 76.5871 9.7789 76.2061C9.61277 75.861 9.45165 75.5137 9.29412 75.1649C9.13658 74.8162 8.96257 74.4725 8.80217 74.1238C8.64177 73.775 8.49282 73.4456 8.336 73.1084C7.68866 71.7163 7.11651 70.2899 6.61526 68.8384C6.35675 68.0901 6.11758 67.3346 5.89917 66.5734C5.84332 66.3801 5.78961 66.186 5.73662 65.9912C5.71156 65.8996 5.68721 65.8079 5.66287 65.7162C5.65069 65.6704 5.63924 65.6246 5.62706 65.5788C5.67432 65.7499 5.62205 65.5587 5.61131 65.5165C5.51464 65.1384 5.4237 64.7596 5.33777 64.3786C5.16519 63.6117 5.01768 62.8397 4.89093 62.0642C4.86086 61.8809 4.83293 61.6976 4.80643 61.5136C4.78853 61.394 4.82362 61.6346 4.8229 61.6274C4.82004 61.6052 4.81646 61.583 4.81359 61.5608C4.80715 61.5164 4.80142 61.472 4.79498 61.4269C4.78137 61.3267 4.76848 61.2271 4.75631 61.1269C4.73339 60.9443 4.71263 60.7624 4.69329 60.5791C4.68398 60.491 4.67539 60.4029 4.6668 60.3148C4.66179 60.2654 4.65749 60.216 4.65319 60.1666C4.65104 60.1444 4.64961 60.1229 4.64746 60.1007C4.63529 59.9589 4.66966 60.3643 4.66035 60.2504C4.64532 60.0699 4.63243 59.8888 4.62097 59.7076C4.61524 59.6202 4.61094 59.5336 4.60593 59.4462C4.6045 59.4247 4.60378 59.4026 4.60235 59.3811C4.59447 59.23 4.61309 59.6231 4.61166 59.588C4.60951 59.5336 4.60665 59.4792 4.6045 59.4248C4.60092 59.3381 4.59805 59.2507 4.59591 59.1641C4.59447 59.1211 4.59376 59.0774 4.59304 59.0345C4.59161 58.9693 4.58875 58.7566 4.59304 59.0388L4.59519 59.1727C4.59519 59.1562 4.59519 59.1405 4.59519 59.124C4.59519 59.1025 4.59519 59.0803 4.59519 59.0588C4.59519 59.0101 4.59519 58.9614 4.59447 58.9128C4.59447 58.8211 4.59447 58.7302 4.59447 58.6385C4.59447 58.5955 4.59447 58.5526 4.59447 58.5103C4.59447 58.4516 4.59805 58.2575 4.59447 58.5246C4.59089 58.7917 4.59376 58.5948 4.59447 58.5361C4.59519 58.4867 4.59662 58.438 4.59805 58.3886C4.6002 58.3019 4.60378 58.2153 4.60665 58.1279C4.60736 58.1064 4.6088 58.085 4.60951 58.0635C4.61524 57.926 4.6002 58.2568 4.60163 58.2332C4.6045 58.1781 4.60736 58.1229 4.61023 58.0678C4.61524 57.9804 4.62097 57.8923 4.6267 57.805C4.62956 57.7613 4.63314 57.7176 4.63601 57.6746C4.64317 57.5794 4.64532 57.4899 4.65033 57.3911C4.64961 57.4111 4.63672 57.6653 4.6446 57.5121C4.65534 57.3059 4.66895 57.0989 4.68398 56.8927L4.68542 56.8748C4.67611 56.9908 4.67611 56.9944 4.68542 56.8848L4.69186 56.8053C4.68398 56.8927 4.68184 56.9135 4.68613 56.8683C4.69114 56.8189 4.69544 56.7702 4.70045 56.7208C4.71048 56.617 4.72122 56.5139 4.73268 56.41C4.76275 56.1358 4.76132 55.8537 4.73841 55.5787C4.73483 55.5329 4.73769 55.3861 4.70189 55.3517C4.66107 55.3116 4.66035 55.3674 4.64818 55.4154L4.64603 55.4161Z" fill="#D17219"/>
<path d="M11.1121 39.6258C10.8658 39.6086 10.5407 39.6566 10.1239 39.7891C6.83067 40.8317 4.53061 44.488 3.33619 47.4411C2.68885 49.0415 1.89257 51.0451 2.07947 52.7988C2.26207 54.5067 4.26137 53.4698 4.89939 54.6964C5.27391 55.4175 6.1733 55.1161 6.4268 54.2725C6.5471 53.8737 6.63374 53.4698 6.74903 53.0709C7.02616 52.1178 7.22594 51.1526 7.40854 50.1787C7.77088 48.2539 8.22488 46.3577 9.3971 44.7243C10.0122 43.8671 10.6452 43.0157 11.1701 42.1027C11.7738 41.0537 12.1977 39.7031 11.1121 39.6265V39.6258Z" fill="#FDB515"/>
<path d="M18.6569 36.3741C17.5405 37.1059 16.5215 37.986 15.6021 38.9734C12.4492 42.3569 10.3002 46.7816 9.80182 51.3889C9.1373 57.5243 10.823 63.298 12.2107 69.205C14.0382 76.9816 15.5126 88.0257 24.4958 90.8979C26.8381 91.647 31.2098 91.7386 33.3989 90.4361C37.3208 88.1024 33.6839 83.7937 33.0623 79.6999C32.3756 75.1771 32.1844 71.051 31.0981 66.5662C29.9889 61.9833 28.7629 58.0771 29.2406 53.2507C29.6008 49.6144 30.6734 46.1579 31.6344 42.6813C32.4658 39.6773 33.0258 35.0701 29.3802 33.7024C27.5213 33.0042 23.3787 34.2459 21.5828 34.8989C20.543 35.277 19.567 35.7761 18.6562 36.3734L18.6569 36.3741Z" fill="#F7941D"/>
<path d="M33.0611 79.7006C32.3743 75.1778 32.1831 71.0517 31.0968 66.5669C29.9876 61.984 28.7617 58.0778 29.2393 53.2514C29.5995 49.6151 30.6722 46.1586 31.6332 42.682C32.4646 39.678 33.0245 35.0708 29.379 33.7031C28.3858 33.33 26.7424 33.5126 25.1519 33.8613C25.7477 34.0547 26.3385 34.263 26.9092 34.5366C28.3922 35.2477 29.109 36.5609 29.321 38.1621C29.5501 39.8893 29.2057 41.6537 28.4789 43.2312C27.6969 44.9276 26.5426 46.3412 25.5193 47.8865C23.2951 51.2471 22.3571 55.2414 22.1644 59.2285C22.0527 61.5493 22.1093 63.8322 22.5125 66.1158C22.8669 68.1258 23.2357 70.1416 23.4147 72.1767C23.4942 73.0861 23.5615 74.0185 23.4591 74.9286C23.4025 75.4327 23.3216 76.1008 22.917 76.4632C22.0649 77.2279 20.9063 76.1302 20.6141 75.3267C19.9675 73.5516 19.7792 71.6353 19.2185 69.833C18.9901 69.0983 18.723 68.1552 18.1064 67.6396C17.3996 67.0481 16.6478 67.7355 16.163 68.2762C16.0964 68.3514 15.9933 68.3156 15.941 68.2476C12.4737 63.752 12.3964 57.4025 13.1046 52.024C13.7634 47.0265 15.1347 42.0204 17.2514 37.4202C16.6707 37.9007 16.1179 38.4185 15.6001 38.9741C12.4472 42.3576 10.2983 46.7823 9.79987 51.3896C9.13534 57.525 10.821 63.2987 12.2088 69.2057C14.0362 76.9823 15.5106 88.0264 24.4939 90.8986C26.8362 91.6477 31.2078 91.7393 33.3969 90.4368C37.3189 88.1031 33.6819 83.7944 33.0603 79.7006H33.0611Z" fill="#F47D20"/>
<path d="M33.0618 79.7006C33.0432 79.5767 33.026 79.4542 33.0081 79.3311C32.5971 79.8903 32.0922 80.3916 31.4757 80.8091C28.2784 82.9752 23.2873 82.441 21.6468 78.7596C21.4319 80.4338 20.4387 81.7113 18.5483 81.735C17.4684 81.7486 16.3778 81.4972 15.3467 81.0891C17.0588 85.5238 19.7126 89.3691 24.4953 90.8987C26.8376 91.6477 31.2093 91.7393 33.3984 90.4368C37.3204 88.1031 33.6834 83.7944 33.0618 79.7006Z" fill="#EA6A20"/>
<path d="M31.0968 66.5669C29.9876 61.984 28.7617 58.0778 29.2393 53.2514C29.5208 50.4121 30.2375 47.6817 30.9944 44.9663C29.0532 46.8775 27.3847 49.0329 26.2189 51.5593C24.4559 55.3824 23.8408 59.6474 24.0177 63.8343C24.1201 66.2783 24.4086 68.7037 24.7166 71.1291C24.8669 72.3192 25.0144 73.3697 25.4226 74.4882C26.0957 76.3328 26.8541 78.1553 27.3804 80.05C27.7048 81.2144 28.3371 83.1256 27.6238 84.2749C27.384 84.6601 26.9708 84.9824 26.4924 84.9795C26.0649 84.9774 25.7341 84.8392 25.3775 84.5978C24.6564 84.1088 24.2103 83.9777 23.3274 84.2548C21.2529 84.905 19.0645 82.7597 18.3449 81.0783C16.8311 77.5337 15.5035 75.0847 14.6434 71.3267C13.391 65.8501 12.574 63.9625 12.0856 60.5812C11.8321 58.8339 11.5256 57.0924 11.3939 55.3309C11.2764 53.7548 11.2392 51.3767 11.4469 49.8127C11.7805 47.2964 11.7805 45.5141 11.2442 45.7769C10.5081 47.5743 10.0082 49.4647 9.79987 51.3888C9.13534 57.5242 10.821 63.298 12.2088 69.205C14.0362 76.9816 15.5106 88.0257 24.4939 90.8979C26.8362 91.6469 31.2078 91.7386 33.3969 90.4361C37.3189 88.1023 33.6819 83.7937 33.0603 79.6998C32.3736 75.1771 32.1824 71.051 31.0961 66.5662L31.0968 66.5669Z" fill="#D25F1C"/>
<path d="M22.0292 39.7045C21.3239 39.5277 20.5154 39.9151 19.8874 40.1936C19.8244 40.2215 19.7635 40.2194 19.7098 40.2022C15.6983 41.933 13.9626 45.9395 13.0324 49.971C12.7581 51.1575 12.0814 53.8615 13.4993 54.6341C15.2665 55.5973 16.8462 54.0455 17.5186 52.5389C18.2383 50.9241 18.539 49.1733 19.1792 47.532C19.5602 46.5539 20.1746 45.7182 20.6901 44.8088C21.3411 43.6623 22.04 42.4307 22.325 41.1317C22.4102 40.7429 22.6021 39.8478 22.0292 39.7038V39.7045Z" fill="#FDB515"/>
<path d="M15.2305 55.0874C15.2305 55.5385 15.2383 55.9897 15.2419 56.4408C15.2426 56.5353 15.2398 56.3112 15.2398 56.3262C15.2412 56.4179 15.2419 56.5074 15.2448 56.5983C15.2462 56.642 15.2477 56.6864 15.2491 56.7301C15.2527 56.8397 15.2562 56.9499 15.2605 57.0595C15.2677 57.2571 15.2756 57.4555 15.2849 57.6531C15.3271 58.5991 15.3866 59.5422 15.4675 60.486C15.6107 62.1616 15.8169 63.8329 16.0898 65.4928C16.3626 67.1527 16.7092 68.7911 17.1338 70.4151C17.5584 72.0392 18.0275 73.5 18.6168 74.9959C18.9068 75.7328 19.2319 76.4546 19.5356 77.1857C19.6945 77.5695 19.8743 77.944 20.0619 78.315C20.2387 78.663 20.4278 79.0368 20.6813 79.3368C20.7837 79.4578 20.8861 79.5774 20.9878 79.6984L20.9512 79.6533C20.9863 79.6991 21.0171 79.7485 21.0493 79.7965C21.0837 79.8474 21.1002 79.8803 21.1596 79.8939C21.2191 79.9075 21.2857 79.9068 21.3465 79.914C21.4718 79.9283 21.421 78.5777 21.3902 78.4539C21.3472 78.2813 21.3043 78.1094 21.2606 77.9369C21.2169 77.7643 21.1818 77.5867 21.1102 77.4227C21.0028 77.1764 20.909 76.925 20.8109 76.6751C20.6362 76.229 20.4292 75.7951 20.2072 75.3704C19.8284 74.6465 19.5148 73.8939 19.1847 73.1463C18.5466 71.7027 18.0089 70.2154 17.5391 68.7087C17.4231 68.3371 17.3128 67.9633 17.2076 67.5888C17.1546 67.4011 17.103 67.2128 17.0529 67.0245C17.04 66.9772 17.0278 66.93 17.0157 66.8827C17.0106 66.8648 17.0085 66.8383 16.9999 66.8218C17.0071 66.8347 17.0314 66.945 17.0056 66.8426C16.9813 66.7474 16.9569 66.6528 16.9333 66.5576C16.7414 65.7964 16.5703 65.0295 16.417 64.2597C16.2638 63.4899 16.1284 62.7137 16.0096 61.9367C15.9945 61.8393 15.9802 61.7427 15.9659 61.6453C15.9594 61.6038 15.9537 61.5622 15.948 61.52C15.9415 61.4756 15.9286 61.3825 15.9573 61.5837C15.9537 61.5558 15.9494 61.5279 15.9451 61.4999C15.9179 61.3044 15.8914 61.1082 15.8656 60.9127C15.8148 60.521 15.7682 60.1293 15.7253 59.7369C15.6823 59.3445 15.6436 58.9528 15.6086 58.5604C15.6043 58.5117 15.6 58.4623 15.5957 58.4136C15.5899 58.3492 15.5756 58.168 15.5978 58.4437C15.5899 58.3449 15.5813 58.2461 15.5735 58.1479C15.567 58.0699 15.5606 57.9918 15.5541 57.9138C15.5327 57.6617 15.552 57.893 15.5563 57.9396C15.5534 57.9124 15.552 57.8851 15.5491 57.8572C15.5412 57.7613 15.5334 57.666 15.5262 57.5701C15.4675 56.8218 15.4252 56.072 15.3816 55.3223C15.3715 55.1447 15.3615 54.9678 15.3529 54.7902C15.3493 54.7143 15.3493 54.6205 15.3221 54.5496C15.3085 54.5146 15.3121 54.4881 15.2799 54.5203C15.2548 54.5453 15.2548 54.6399 15.2512 54.6714C15.2355 54.8081 15.2326 54.9492 15.2326 55.0867L15.2305 55.0874Z" fill="#D17219"/>
<path d="M66.3974 36.934C69.657 39.1718 72.744 42.6777 74.5249 46.155C78.4948 53.9009 77.4243 63.5035 74.4418 71.3331C73.1658 74.6815 71.2796 78.0006 69.4264 81.0511C67.909 83.5481 66.2205 86.1883 63.6068 87.5638C58.7195 90.1339 53.2351 90.4783 51.4749 84.4482C49.7062 78.388 51.1062 70.95 51.3117 64.7309C51.5251 58.2625 51.8072 51.7369 52.4295 45.4174C52.7331 42.3326 51.7735 36.6225 54.8914 34.5889C57.785 32.702 64.0644 35.3321 66.3974 36.9333V36.934Z" fill="#F7941D"/>
<path d="M76.4965 61.3639C75.9774 63.3882 75.2154 65.4327 74.3089 67.3202C73.5756 68.8469 72.596 70.2369 70.9734 70.8849C70.9068 70.9114 70.8108 70.8563 70.7994 70.7861C70.712 70.2562 70.5702 69.0453 69.7632 69.3181C69.3586 69.4549 68.9984 69.7091 68.586 69.8244C67.8742 70.0235 67.0879 69.6833 66.8359 68.9529C66.4413 67.8108 66.8745 66.4481 67.2254 65.3496C67.7345 63.7513 68.2279 62.1501 68.6561 60.5268C69.1803 58.5389 69.6064 56.4938 69.5011 54.4265C69.3916 52.2696 68.8523 50.0455 67.905 48.0992C67.1287 46.5045 66.1069 45.0652 65.1237 43.595C64.2651 42.3118 63.1459 40.8625 62.9998 39.2699C62.8516 37.6559 63.862 36.7378 65.1502 36.1879C62.3081 34.6641 57.365 32.9784 54.8923 34.591C51.7745 36.6247 52.7341 42.3347 52.4304 45.4196C51.8082 51.739 51.526 58.2647 51.3126 64.733C51.1071 70.9515 49.7072 78.3902 51.4759 84.4503C53.236 90.4798 58.7205 90.136 63.6078 87.566C66.2222 86.1904 67.9107 83.551 69.4274 81.0533C71.2799 78.0028 73.1667 74.6837 74.4428 71.3353C76.0217 67.1914 77.0637 62.5519 77.1073 57.9532C76.9806 59.0982 76.7858 60.2368 76.4972 61.3653L76.4965 61.3639Z" fill="#F47D20"/>
<path d="M69.2359 73.1943C65.9856 76.6687 60.3286 74.0027 57.2158 71.563C54.6866 69.5802 52.5662 66.9221 51.3396 63.9282C51.3303 64.196 51.321 64.4645 51.3117 64.7323C51.1062 70.9508 49.7062 78.3894 51.4749 84.4496C53.2351 90.479 58.7195 90.1353 63.6068 87.5653C66.2212 86.1897 67.9097 83.5502 69.4264 81.0525C70.0515 80.0228 70.6795 78.9601 71.2875 77.8789C70.0336 76.5949 69.2137 74.9472 69.2359 73.195V73.1943Z" fill="#EA6A20"/>
<path d="M52.4302 45.4189C52.7331 42.3426 51.7814 36.659 54.8677 34.6096C59.2967 38.8853 62.6007 44.3082 64.431 50.2087C66.204 55.9288 66.8714 62.776 65.5545 68.6765C64.8077 72.0227 63.5531 75.2143 63.2824 78.6773C63.0475 81.6812 64.3257 82.5219 66.9444 80.8592C68.0966 80.1273 68.5571 79.2172 69.286 78.0901C71.1299 75.2372 72.5557 72.7037 73.851 69.5759C75.9943 64.4029 76.4218 61.5257 77.1071 57.6753C77.1028 62.3642 76.0523 67.1075 74.4418 71.3339C73.1658 74.6823 71.2796 78.0013 69.4264 81.0518C67.909 83.5488 66.2205 86.189 63.6068 87.5646C58.7195 90.1346 53.2351 90.479 51.4749 84.4489C49.7062 78.3887 51.1062 70.9508 51.3117 64.7316C51.5251 58.2632 51.8072 51.7376 52.4295 45.4182L52.4302 45.4189Z" fill="#D25F1C"/>
<path d="M72.5672 56.5597C72.5765 56.6571 72.5672 56.7774 72.5958 56.8705C72.5994 56.8834 72.5808 56.6922 72.5873 56.7695C72.5894 56.7939 72.5916 56.8182 72.593 56.8426C72.5944 56.8669 72.5966 56.8927 72.5987 56.9178C72.603 56.9793 72.613 57.3524 72.6052 57.0101C72.6073 57.1054 72.6166 57.2013 72.6216 57.2966C72.6238 57.3417 72.6259 57.3861 72.6281 57.4312C72.608 57.0302 72.6152 57.1533 72.6188 57.2386C72.6202 57.2679 72.6209 57.2966 72.6223 57.3259C72.6231 57.3495 72.6238 57.3725 72.6252 57.3961V57.4133C72.6209 57.0488 72.6209 57.0101 72.6252 57.298C72.6281 57.4942 72.6345 57.6904 72.6481 57.8866C72.6546 57.9811 72.6603 58.0757 72.666 58.1702C72.6682 58.2096 72.6703 58.2482 72.6725 58.2876C72.6739 58.3098 72.6746 58.3327 72.6761 58.3549C72.6789 58.4043 72.6574 57.9317 72.6639 58.0993C72.6675 58.1866 72.671 58.274 72.6732 58.3614C72.6753 58.4437 72.6775 58.5261 72.6789 58.6084C72.6832 58.8519 72.6725 58.1143 72.6753 58.3521C72.6753 58.4 72.6761 58.448 72.6768 58.496C72.6775 58.6628 72.6768 58.829 72.6768 58.9958C72.6768 59.0388 72.676 59.0825 72.6753 59.1254C72.6739 59.2887 72.6825 58.6628 72.6811 58.7631C72.6811 58.7846 72.6811 58.8061 72.6796 58.8275C72.6782 58.9192 72.6753 59.0109 72.6725 59.1025C72.6703 59.1841 72.6667 59.2651 72.6639 59.3467C72.6632 59.3682 72.6617 59.3904 72.661 59.4119C72.6582 59.4777 72.6531 59.5794 72.6675 59.2737C72.6818 58.9679 72.6768 59.081 72.6732 59.1512C72.6718 59.1784 72.6703 59.2049 72.6689 59.2321C72.6596 59.4061 72.6488 59.5794 72.6359 59.7527C72.6302 59.8344 72.6231 59.9167 72.6166 59.9983C72.6059 60.1315 72.646 59.656 72.6395 59.7269C72.6374 59.7484 72.636 59.7706 72.6338 59.7921C72.6295 59.8408 72.6252 59.8902 72.6202 59.9389C72.5873 60.2848 72.5479 60.6299 72.5028 60.9744C72.492 61.0574 72.4806 61.1398 72.4691 61.2228C72.4526 61.3403 72.5128 60.9199 72.4956 61.0374C72.4927 61.0596 72.4892 61.081 72.4863 61.1032C72.4791 61.1527 72.472 61.2021 72.4641 61.2515C72.4383 61.4226 72.4111 61.5931 72.3817 61.7642C72.3216 62.1222 72.2586 62.4796 72.1891 62.8354C72.0301 63.6554 71.8432 64.4695 71.6327 65.2773L71.6828 65.0854C71.2589 66.7059 70.7412 68.3013 70.1383 69.8645C69.8454 70.6228 69.5325 71.374 69.1988 72.1152C69.0391 72.4696 68.8658 72.8183 68.7104 73.175C68.5435 73.5573 68.3724 73.9376 68.1955 74.3157C67.9936 74.7468 67.8081 75.1857 67.6119 75.6189C67.5145 75.8338 67.4086 76.045 67.3241 76.2648C67.2209 76.5327 67.1243 76.8026 67.024 77.0712C66.961 77.2387 66.9538 77.4621 66.9431 77.6347C66.9273 77.8946 66.9231 78.1553 66.9274 78.4159C66.9309 78.6501 66.9352 78.8878 66.9646 79.1199C66.9689 79.1535 67.0219 79.5037 67.0598 79.4786C67.1486 79.4213 67.2417 79.3662 67.3241 79.2989C67.4393 79.2044 67.5231 79.0841 67.6112 78.9645C67.7881 78.7253 67.965 78.4847 68.1289 78.2362C68.3151 77.9534 68.4712 77.6462 68.6331 77.349C68.8092 77.026 68.9703 76.6988 69.1221 76.3637C69.7859 74.8978 70.371 73.3955 70.8787 71.8688C71.4172 70.2512 71.8712 68.6021 72.2256 66.9343C72.6037 65.1556 72.8479 63.3489 72.9632 61.5343C73.0362 60.3814 73.0692 59.22 73.0255 58.0656C73.0047 57.5207 72.9718 56.9779 72.9209 56.4351C72.9138 56.3563 72.9059 56.2776 72.8966 56.1988C72.8859 56.0986 72.878 55.9904 72.8558 55.8945C72.8443 55.8443 72.7942 55.5994 72.8479 55.8658C72.8443 55.8486 72.84 55.8322 72.8365 55.815C72.8071 55.689 72.7763 55.5629 72.7383 55.439C72.7892 55.6059 72.7383 55.4276 72.7298 55.4011C72.772 55.5321 72.7512 55.4842 72.7426 55.4555C72.7269 55.4061 72.7162 55.3531 72.7025 55.3023C72.6889 55.2514 72.6732 55.1984 72.6581 55.1469C72.6359 55.0738 72.6059 55.1669 72.598 55.1891C72.5622 55.2901 72.56 55.434 72.5536 55.5343C72.5328 55.8744 72.535 56.2174 72.5679 56.5568L72.5672 56.5597Z" fill="#D17219"/>
<path d="M66.2025 39.6258C66.4489 39.6086 66.7725 39.6566 67.1907 39.7891C70.4833 40.8317 72.784 44.488 73.9785 47.4411C74.6258 49.0415 75.4221 51.0451 75.2345 52.7988C75.0512 54.5067 73.0533 53.4698 72.4153 54.6964C72.0415 55.4175 71.1414 55.1161 70.8879 54.2725C70.769 53.8737 70.6816 53.4698 70.5649 53.0709C70.2878 52.1178 70.0887 51.1526 69.9061 50.1787C69.5445 48.2539 69.0891 46.3577 67.9176 44.7243C67.3024 43.8671 66.6694 43.0157 66.1445 42.1027C65.5416 41.0537 65.117 39.7031 66.2033 39.6265L66.2025 39.6258Z" fill="#FDB515"/>
<path d="M58.658 36.3741C59.7737 37.1059 60.7919 37.986 61.7128 38.9734C64.8657 42.3569 67.014 46.7816 67.5131 51.3889C68.1769 57.5243 66.4912 63.298 65.1035 69.205C63.2767 76.9816 61.8023 88.0257 52.8191 90.8979C50.4768 91.647 46.1051 91.7386 43.916 90.4361C39.9933 88.1024 43.631 83.7937 44.2519 79.6999C44.9393 75.1771 45.1298 71.051 46.2154 66.5662C47.3253 61.9833 48.5512 58.0771 48.0729 53.2507C47.712 49.6144 46.64 46.1579 45.679 42.6813C44.8484 39.6773 44.2891 35.0701 47.9333 33.7024C49.7922 33.0042 53.9354 34.2459 55.7314 34.8989C56.7704 35.277 57.7457 35.7761 58.658 36.3734V36.3741Z" fill="#F7941D"/>
<path d="M66.9086 61.0065C66.2863 63.6474 65.4821 66.6142 63.7399 68.7567C62.9293 69.7527 61.8752 70.5182 60.5705 70.693C59.7936 70.7968 59.4771 70.4502 59.4126 69.7083C59.3711 69.2293 59.3288 68.6808 58.925 68.3514C58.4008 67.9239 57.7599 67.5472 57.3002 68.2547C56.7237 69.1419 56.4724 70.2239 55.5744 70.8698C55.5257 70.9049 55.4419 70.8913 55.4033 70.8476C54.1938 69.4864 54.4094 67.3832 54.718 65.7284C55.225 63.008 56.4051 60.4795 56.965 57.7827C57.3904 55.7312 57.278 53.6137 56.6514 51.6137C56.0413 49.6652 55.0703 47.6158 53.7613 46.0297C52.0406 43.9452 48.9786 42.3941 48.5676 39.4675C48.2704 37.3536 49.6288 35.1116 51.3553 33.6988C50.0348 33.4653 48.7602 33.3923 47.9345 33.7023C44.2904 35.0708 44.8504 39.6773 45.6803 42.6813C46.6413 46.1579 47.714 49.6151 48.0742 53.2507C48.5518 58.077 47.3266 61.9833 46.2167 66.5662C45.1311 71.051 44.9399 75.1763 44.2532 79.6998C43.6323 83.793 39.9939 88.1023 43.9173 90.4361C46.1064 91.7386 50.4781 91.6469 52.8204 90.8979C61.8036 88.0257 63.278 76.9816 65.1047 69.2049C65.8301 66.1179 66.6336 63.0674 67.1434 59.9825C67.0661 60.3241 66.9888 60.6657 66.9086 61.0065Z" fill="#F47D20"/>
<path d="M63.7525 74.8148C62.5724 76.4037 60.7106 78.262 58.591 78.335C56.6039 78.403 55.6178 76.9379 55.6694 75.1685C54.7936 76.3071 53.567 77.4206 52.051 77.2745C50.5358 77.1291 49.3664 76.0192 48.4764 74.8692C47.3227 73.3776 46.5007 71.5981 45.9171 69.8129C45.8369 69.568 45.761 69.3196 45.6879 69.0696C45.0406 72.6214 44.8093 76.03 44.2522 79.7006C43.6313 83.7937 39.9929 88.1031 43.9163 90.4368C46.1054 91.7393 50.4771 91.6477 52.8194 90.8987C59.847 88.6516 62.2788 81.4041 63.8793 74.6322C63.8356 74.6923 63.7962 74.7553 63.7518 74.8148H63.7525Z" fill="#EA6A20"/>
<path d="M46.2161 66.5669C47.326 61.984 48.5519 58.0778 48.0736 53.2514C47.7922 50.4121 47.0761 47.6817 46.3178 44.9663C48.2591 46.8775 49.9283 49.0329 51.0933 51.5593C52.8577 55.3824 53.4714 59.6474 53.296 63.8343C53.0625 69.3897 51.4127 74.7317 49.9325 80.0507C49.6089 81.2151 48.9766 83.1263 49.6898 84.2756C49.9283 84.6609 50.3414 84.9831 50.8198 84.9802C51.2473 84.9781 51.5788 84.8399 51.9347 84.5986C52.6565 84.1095 53.1012 83.9784 53.9849 84.2556C56.0593 84.9058 58.2491 82.7604 58.9666 81.079C60.4819 77.5344 61.808 75.0854 62.6688 71.3274C63.9219 65.8508 64.7383 63.9632 65.2273 60.5819C65.4801 58.8347 65.7873 57.0931 65.9184 55.3316C66.0351 53.7555 66.0737 51.3774 65.8661 49.8135C65.5317 47.2972 65.5317 45.5148 66.068 45.7776C66.8041 47.575 67.3047 49.4654 67.5131 51.3896C68.1769 57.5249 66.4912 63.2987 65.1035 69.2057C63.2767 76.9823 61.8023 88.0264 52.8191 90.8986C50.4768 91.6477 46.1051 91.7393 43.916 90.4368C39.9933 88.1031 43.631 83.7944 44.2519 79.7006C44.9393 75.1778 45.1298 71.0517 46.2154 66.5669H46.2161Z" fill="#D25F1C"/>
<path d="M55.2855 39.7045C55.9923 39.5277 56.8007 39.9151 57.4287 40.1936C57.4918 40.2215 57.5519 40.2194 57.6056 40.2022C61.6178 41.933 63.3529 45.9395 64.2831 49.971C64.5566 51.1575 65.2333 53.8615 63.8169 54.6341C62.0496 55.5973 60.4692 54.0455 59.7975 52.5389C59.0764 50.9241 58.7771 49.1733 58.1369 47.532C57.7546 46.5539 57.1416 45.7182 56.6246 44.8088C55.9744 43.6623 55.2755 42.4307 54.9912 41.1317C54.906 40.7429 54.7141 39.8478 55.2862 39.7038L55.2855 39.7045Z" fill="#FDB515"/>
<path d="M62.3695 57.1598C62.3587 57.3359 62.348 57.5121 62.3358 57.6882C62.3294 57.7799 62.3229 57.8708 62.3165 57.9618C62.3136 57.9983 62.3108 58.0348 62.3079 58.0713C62.3065 58.0943 62.3014 58.1208 62.3022 58.1444L62.3158 57.984C62.3057 58.0678 62.2993 58.1523 62.295 58.236C62.2721 58.6249 62.2477 59.0137 62.2191 59.4025C62.2119 59.4963 62.2048 59.5909 62.1976 59.6847C62.194 59.7319 62.1897 59.7785 62.1862 59.8257C62.184 59.853 62.1819 59.8794 62.1797 59.9067C62.1683 60.0463 62.194 59.7427 62.1933 59.747C62.1683 60.032 62.1439 60.3177 62.1203 60.6027C62.1067 60.7681 62.1482 60.2769 62.1289 60.4989C62.1246 60.5476 62.1203 60.5962 62.116 60.6449C62.1067 60.7488 62.0974 60.8533 62.0873 60.9572C62.068 61.1584 62.0479 61.3603 62.0272 61.5615C61.9849 61.9647 61.9384 62.3671 61.8883 62.7696C61.8618 62.9779 61.8346 63.1856 61.8059 63.394C61.7995 63.4427 61.7923 63.4914 61.7859 63.5393C61.783 63.5601 61.7801 63.5809 61.7773 63.6016C61.7572 63.7456 61.7959 63.4699 61.7952 63.4749C61.7794 63.578 61.7651 63.6811 61.7501 63.7842C61.6298 64.5884 61.4916 65.3897 61.3333 66.1874C61.155 67.0861 60.9509 67.979 60.7203 68.8656L60.7697 68.6765C60.3945 70.1115 59.9434 71.5287 59.43 72.9207C59.1664 73.6347 58.8822 74.3407 58.5757 75.0375C58.4246 75.3812 58.2692 75.7213 58.1245 76.0672C57.9706 76.436 57.7959 76.7954 57.6133 77.1506C57.3798 77.6039 57.1435 78.0608 56.9709 78.542C56.8657 78.8348 56.7704 79.1334 56.6516 79.4213C56.4854 79.823 56.4253 80.272 56.3372 80.6959C56.2591 81.0719 56.2706 81.4944 56.2842 81.876C56.2899 82.03 56.2971 82.184 56.3136 82.3372C56.3171 82.3708 56.3286 82.6093 56.3952 82.643C56.4704 82.6816 56.547 82.7246 56.6243 82.7582L56.6716 82.701C56.7081 82.6508 56.7439 82.6014 56.7805 82.5513L56.7318 82.6107C56.8249 82.5048 56.9358 82.4117 57.0382 82.3143C57.175 82.1847 57.2703 82.015 57.3734 81.8589C57.5982 81.5173 57.7737 81.1456 57.9477 80.7761C58.1217 80.4066 58.2685 80.0099 58.4382 79.6311C58.6079 79.2523 58.7561 78.9079 58.9065 78.5427C59.5216 77.0482 60.0372 75.518 60.4604 73.9576C60.9079 72.307 61.2789 70.6371 61.5703 68.9522C61.8646 67.2508 62.0895 65.5372 62.2492 63.8179C62.4239 61.9353 62.5349 60.0449 62.5342 58.1537C62.5342 57.9546 62.5335 57.7556 62.5313 57.5565C62.5299 57.3982 62.5263 57.24 62.5127 57.0817C62.5077 57.0216 62.512 56.8476 62.4676 56.801C62.4404 56.7717 62.449 56.7717 62.4217 56.801C62.3738 56.8519 62.373 57.1139 62.3702 57.1612L62.3695 57.1598Z" fill="#D17219"/>
<path d="M52.606 51.4727C52.0245 47.0587 50.7263 42.5388 48.5422 38.6749C47.3922 36.6405 46.0209 34.7035 44.162 33.2885C40.7563 30.6963 35.9686 30.1635 32.0144 32.349C29.942 33.4954 28.3029 35.4195 26.9961 37.4038C24.3143 41.474 22.8321 46.6355 22.1955 51.4727C21.0855 59.8966 21.5753 68.0958 24.4031 75.9777C26.2077 81.0039 30.724 93.1722 37.4007 91.9091C44.0753 93.1722 48.5931 81.0039 50.3962 75.9777C53.2247 68.0958 53.7145 59.8966 52.6053 51.4727H52.606Z" fill="#F7941D"/>
<path d="M52.606 51.4727C52.0245 47.0587 50.7263 42.5388 48.5422 38.6749C47.3922 36.6405 46.0209 34.7035 44.162 33.2885C40.7563 30.6963 35.9686 30.1635 32.0144 32.349C29.942 33.4954 28.3029 35.4195 26.9961 37.4038C24.3143 41.474 22.8321 46.6355 22.1955 51.4727C21.0855 59.8966 21.5753 68.0958 24.4031 75.9777C26.2077 81.0039 30.724 93.1722 37.4007 91.9091C44.0753 93.1722 48.5931 81.0039 50.3962 75.9777C53.2247 68.0958 53.7145 59.8966 52.6053 51.4727H52.606Z" fill="#F7941D"/>
<path d="M52.6063 51.4727C52.0248 47.0588 50.7265 42.5388 48.5425 38.6749C48.5031 38.6047 48.4601 38.5352 48.42 38.4651C48.9471 40.1328 49.4662 41.8034 49.951 43.4841C51.1104 47.5049 52.0978 51.6431 52.2224 55.8444C52.2833 57.8809 52.1687 59.9325 51.7634 61.9318C51.3954 63.7456 50.9063 65.7377 49.9181 67.3289C49.1483 68.5684 48.0584 69.7557 46.6778 70.3099C45.5285 70.7711 43.9266 70.8477 42.9005 70.0249C42.0075 69.3088 41.8471 68.1667 41.4554 67.1577C40.9148 65.7635 39.6889 64.5763 38.1106 65.1849C37.1532 65.5537 36.2803 66.1495 35.2248 65.7728C34.0533 65.3546 33.2814 64.0091 32.8603 62.9164C31.7432 60.0205 31.8557 56.7559 32.0032 53.7083C32.0948 51.81 32.266 49.9395 32.624 48.0706C33.0121 46.0484 33.5205 44.0519 33.918 42.0311C34.6477 38.324 34.1822 34.2717 36.5202 31.0658C36.5446 31.0321 36.5761 31.0157 36.6097 31.0092C35.0393 31.1102 33.4711 31.5448 32.0153 32.349C29.943 33.4955 28.3039 35.4196 26.997 37.4038C24.3153 41.474 22.833 46.6355 22.1964 51.4727C21.0865 59.8967 21.5763 68.0958 24.4041 75.9777C26.2086 81.0039 30.725 93.1722 37.4017 91.9091C44.0763 93.1722 48.5941 81.0039 50.3971 75.9777C53.2257 68.0958 53.7155 59.8967 52.6063 51.4727Z" fill="#F47D20"/>
<path d="M53.0912 61.0918C52.7503 63.5795 52.2956 66.0428 51.7636 68.4954C51.3547 70.3844 50.9351 72.3701 49.9827 74.0643C48.4481 76.7883 45.0854 79.1106 42.1645 76.9802C40.269 75.5975 39.7012 72.4796 39.2715 70.1008C39.023 72.128 38.7359 75.6189 37.1455 76.789C34.8827 78.4539 32.2453 78.8306 29.8909 77.7851C26.3477 76.2119 25.1805 73.0138 23.3222 69.7363C23.0286 69.2186 22.6749 68.6078 22.3262 67.9447C22.7766 70.6558 23.4569 73.3346 24.4042 75.9777C26.2088 81.0039 30.7251 93.1722 37.4018 91.9091C44.0764 93.1722 48.5942 81.0039 50.3973 75.9777C52.1846 70.9974 53.0353 65.8903 53.142 60.6801C53.1241 60.8175 53.1105 60.9543 53.0919 61.0918H53.0912Z" fill="#EA6A20"/>
<path d="M42.8988 88.7211C41.8691 88.5907 40.8451 88.3716 39.8225 88.1933C38.8401 88.2757 37.8526 88.2234 36.8723 87.9921C31.9607 86.8313 29.6721 81.8868 28.101 77.5617C25.1378 69.4026 24.1375 60.4745 25.2137 51.8651C25.7214 47.8049 26.3759 43.5893 27.9921 39.8048C29.1558 37.0808 30.7698 34.624 32.5092 32.248C32.5557 32.1764 32.5973 32.1026 32.6445 32.0325C32.4326 32.132 32.222 32.2351 32.0144 32.3497C29.942 33.4961 28.3029 35.4203 26.9961 37.4045C24.3143 41.4747 22.8321 46.6362 22.1955 51.4734C21.0855 59.8974 21.5753 68.0965 24.4031 75.9784C26.2077 81.0046 30.724 93.1729 37.4007 91.9098C39.9686 92.3953 42.2164 90.8901 44.114 88.5714C43.7159 88.7089 43.307 88.7733 42.8981 88.7218L42.8988 88.7211Z" fill="#D25F1C"/>
<path d="M41.9876 36.8181C41.9582 36.894 41.8995 36.9534 41.8064 36.9556C39.6532 36.9942 37.2658 37.8736 35.8358 39.8471C32.5826 44.3369 36.7731 49.893 39.7334 52.8468C40.9142 54.0248 42.6135 55.6675 44.2698 54.8612C45.4184 54.3012 46.2397 53.0695 46.7925 51.8128C49.132 46.4931 48.6823 36.0297 41.9869 36.8188L41.9876 36.8181Z" fill="#FDB515"/>
<path d="M34.5473 50.0978C34.5329 50.2181 34.5186 50.3384 34.505 50.4587C34.4978 50.5189 34.49 50.579 34.485 50.6392C34.5279 50.1444 34.4534 50.9822 34.4549 50.96C34.4363 51.3531 34.4355 51.3825 34.4513 51.0473C34.4499 51.076 34.4484 51.1046 34.447 51.1333C34.4248 51.5966 34.404 52.0592 34.3868 52.5225C34.3532 53.409 34.346 54.2969 34.3389 55.1841C34.3253 56.8669 34.3403 58.5512 34.3811 60.2332C34.4592 63.452 34.6246 66.6694 34.838 69.8817C34.9497 71.5595 35.08 73.2423 35.3364 74.905C35.3407 74.933 35.3536 75.0303 35.3915 75.0411C35.433 75.0532 35.4545 74.8513 35.4581 74.827C35.5068 74.4825 35.5104 74.1245 35.4975 73.7772C35.5354 74.8313 35.4638 74.8893 35.4832 74.5828C35.4889 74.4904 35.4939 74.4066 35.4975 74.3078C35.5075 73.997 35.4939 73.6884 35.4796 73.3783C35.4746 73.2731 35.4696 73.1678 35.4646 73.0625C35.4552 72.8577 35.4767 73.3304 35.4681 73.132C35.4653 73.0661 35.4617 72.9995 35.4588 72.9336C35.4402 72.519 35.4223 72.1044 35.4051 71.6898C35.3664 70.7668 35.3106 69.843 35.2447 68.9214C35.1344 67.3847 35.0349 65.8466 34.9511 64.3084C34.9304 63.9232 34.9103 63.5387 34.891 63.1534C34.8867 63.061 34.8817 62.9687 34.8774 62.8763C34.8752 62.8297 34.8731 62.7839 34.8709 62.7374L34.8688 62.6908C34.8616 62.5347 34.8659 62.6292 34.8817 62.9737C34.8724 62.7732 34.863 62.572 34.8544 62.3714C34.8215 61.6153 34.7936 60.8584 34.77 60.1015C34.7463 59.3324 34.7256 58.5633 34.7112 57.7935C34.7077 57.6095 34.7048 57.4255 34.7019 57.2414V57.1956C34.6991 57.0323 34.7005 57.134 34.7055 57.5007C34.7055 57.4541 34.7041 57.4083 34.7034 57.3617C34.7019 57.2536 34.7005 57.1455 34.6991 57.0374C34.6948 56.6514 34.6919 56.2654 34.6905 55.8794C34.689 55.4477 34.6898 55.0159 34.6926 54.5841C34.694 54.3685 34.6955 54.153 34.6983 53.9367C34.6998 53.8286 34.7012 53.7212 34.7026 53.6131V53.5672C34.7055 53.4147 34.7041 53.5056 34.6991 53.8408C34.7019 53.6575 34.7062 53.4734 34.7077 53.2901C34.7091 53.0746 34.7098 52.8597 34.7119 52.6442C34.7127 52.5368 34.7141 52.4287 34.7155 52.3212C34.7155 52.2754 34.717 52.2289 34.717 52.183C34.717 52.1522 34.7177 52.1215 34.7184 52.0907C34.7141 52.3792 34.7127 52.4544 34.7148 52.3155C34.7162 52.2045 34.7184 52.0935 34.7205 51.9825C34.727 51.641 34.7256 51.3015 34.7055 50.9607C34.7155 51.2135 34.7191 51.2801 34.7162 51.1605C34.7162 51.134 34.7148 51.1068 34.7148 51.0803C34.7127 50.9872 34.7112 50.8934 34.7098 50.8003C34.7098 50.7602 34.7084 50.7201 34.7077 50.68C34.7105 50.8633 34.7112 50.9034 34.7098 50.8017C34.7098 50.7709 34.7091 50.7401 34.7084 50.7101C34.7062 50.5647 34.7055 50.4193 34.6955 50.274C34.6876 50.1594 34.6876 50.0298 34.6504 49.9202C34.6375 49.8823 34.636 49.8407 34.601 49.8615C34.5601 49.8851 34.5472 50.0899 34.5465 50.0992L34.5473 50.0978Z" fill="#D17219"/>
<path d="M47.13 50.7996C47.1515 50.9729 47.173 51.1462 47.1938 51.3194C47.2031 51.3975 47.2117 51.4756 47.221 51.5529C47.2253 51.5937 47.2296 51.6345 47.2332 51.6753C47.2367 51.7162 47.2539 51.921 47.2396 51.7498C47.2253 51.5787 47.2389 51.7405 47.2417 51.7785C47.2453 51.8236 47.2489 51.8694 47.2532 51.9145C47.2654 52.0699 47.2804 52.2246 47.2976 52.38C47.3148 52.5354 47.3305 52.6886 47.3463 52.8426C47.3621 52.9965 47.3764 53.1469 47.3907 53.2987C47.3979 53.3739 47.4043 53.4491 47.4115 53.525C47.4143 53.5601 47.4179 53.5952 47.4208 53.6302C47.4337 53.777 47.3993 53.3789 47.4029 53.4176C47.405 53.4412 47.4072 53.4655 47.4086 53.4892C47.4279 53.7226 47.4473 53.9561 47.4695 54.1895C47.4759 54.2561 47.4816 54.3227 47.4881 54.3893C47.4909 54.4201 47.4938 54.4509 47.496 54.4824C47.4974 54.5003 47.4988 54.5175 47.5003 54.5354C47.5103 54.6485 47.468 54.1487 47.4809 54.3084C47.5024 54.5683 47.5217 54.829 47.5375 55.0896C47.5461 55.2235 47.5532 55.3574 47.5604 55.4913C47.5618 55.5214 47.5633 55.5515 47.5647 55.5823C47.5762 55.8121 47.5461 55.1705 47.5525 55.3166C47.5554 55.3846 47.5583 55.4534 47.5611 55.5214C47.5711 55.7785 47.5776 56.0356 47.5833 56.2926C47.5848 56.3564 47.5862 56.4208 47.5869 56.4845C47.5869 56.5146 47.5876 56.5447 47.5883 56.5741C47.5769 55.8837 47.5812 56.0527 47.5826 56.196C47.5826 56.2174 47.5826 56.2389 47.5833 56.2604C47.5848 56.3893 47.5855 56.5182 47.5862 56.6471C47.5869 56.776 47.5862 56.9163 47.5848 57.051C47.5848 57.1125 47.5833 57.1734 47.5826 57.235C47.5826 57.2529 47.5826 57.2701 47.5826 57.288C47.5805 57.4319 47.5769 57.6031 47.5883 56.9077C47.5883 56.9428 47.5869 56.9779 47.5869 57.0137C47.5819 57.2873 47.5747 57.5608 47.5654 57.8336C47.5604 57.9761 47.5554 58.1186 47.549 58.2611C47.5461 58.3263 47.5432 58.3915 47.5404 58.4566C47.5318 58.6493 47.564 57.9489 47.554 58.1645C47.5518 58.2067 47.5497 58.249 47.5475 58.2919C47.5332 58.5862 47.516 58.8813 47.4981 59.1756C47.4594 59.8043 47.4129 60.4323 47.3628 61.0596C47.3492 61.2314 47.3348 61.4033 47.3205 61.5752C47.3169 61.6146 47.3141 61.6539 47.3105 61.6933C47.3083 61.7162 47.3069 61.7384 47.3048 61.7613L47.3033 61.7785C47.2933 61.8945 47.3012 61.8014 47.327 61.4985C47.3198 61.5845 47.3119 61.6704 47.3048 61.757C47.2733 62.1201 47.241 62.4832 47.2081 62.8462C47.1358 63.6425 47.0606 64.4388 46.9847 65.2351C46.9431 65.6683 46.9124 66.1037 46.8615 66.5362C46.8558 66.5827 46.8501 66.6293 46.8436 66.6758C46.8243 66.8312 46.8708 66.4925 46.868 66.509C46.8629 66.5355 46.8601 66.5627 46.8558 66.5899C46.84 66.6916 46.8236 66.7925 46.8049 66.8942C46.767 67.1062 46.7233 67.3174 46.676 67.5272C46.6288 67.737 46.5787 67.9383 46.525 68.1431L46.5715 67.9633C46.4956 68.2533 46.4147 68.5412 46.3302 68.8291C46.2199 69.2057 46.1304 69.586 46.0402 69.9676C45.955 70.3264 45.8755 70.6866 45.7981 71.0468C45.7301 71.3669 45.7065 71.6905 45.6814 72.0163C45.6563 72.3422 45.6571 72.6458 45.6757 72.9594C45.6785 73.0053 45.68 73.3053 45.7323 73.3569L45.7573 73.3876C45.806 73.311 45.8296 73.3547 45.8275 73.5194L45.8633 73.4757C45.9492 73.3526 46.0208 73.1986 46.0846 73.0618C46.1583 72.9043 46.2299 72.746 46.3023 72.5878C46.3946 72.3844 46.4512 72.1624 46.5164 71.949C46.5815 71.7356 46.6474 71.5115 46.7076 71.291C46.8407 70.804 46.9639 70.3135 47.0484 69.8158C47.1415 69.2702 47.1945 68.7202 47.2453 68.1688C47.4136 66.3278 47.5826 64.486 47.7201 62.6421C47.8304 61.1606 47.9184 59.6754 47.9478 58.1895C47.9793 56.6106 47.9643 55.0295 47.844 53.4541C47.7888 52.7308 47.7258 52.0083 47.612 51.2915C47.5726 51.0452 47.5296 50.7989 47.4838 50.554C47.4559 50.4043 47.4272 50.2568 47.3814 50.1114C47.3692 50.0735 47.3578 50.0348 47.3449 49.9976C47.342 49.989 47.3399 49.9768 47.3356 49.9689L47.352 50.0291L47.3263 49.9295C47.3635 50.0649 47.3305 49.9403 47.3227 49.9066C47.2947 49.7842 47.2654 49.6624 47.236 49.5407C47.2231 49.4891 47.2167 49.4025 47.168 49.4598L47.1472 49.5407C47.1351 49.6094 47.1265 49.6782 47.1222 49.7476C47.0928 50.0942 47.0856 50.4573 47.1293 50.8032L47.13 50.7996Z" fill="#D17219"/>
</g>
<defs>
<clipPath id="clip0_214_167687">
<rect width="76.9036" height="92" fill="white" transform="translate(0.206055)"/>
</clipPath>
</defs>
</svg>
