<svg width="90" height="92" viewBox="0 0 90 92" fill="none" xmlns="http://www.w3.org/2000/svg">
<g clip-path="url(#clip0_214_167421)">
<path d="M12.886 10.3675C9.56958 9.68712 5.38476 11.1639 4.40044 14.1179C2.43127 21.0102 6.36961 27.6561 4.66535 34.6086C4.37498 35.2343 3.98061 35.7972 3.56077 36.308C2.9925 37.1255 2.36952 37.9332 1.69236 38.7328C0.95399 39.4711 0.707505 40.7019 0.942072 41.8607C1.00166 42.6196 1.15876 43.3759 1.43883 44.1273C1.71891 44.8786 2.12303 45.6246 2.67667 46.363C4.64584 48.8246 7.59987 49.5629 9.56904 51.778C11.5382 54.4856 10.5539 58.178 13.2495 60.6856C13.7457 61.2393 14.3227 61.7474 14.9532 62.1781C16.2149 63.0394 17.6917 63.5936 19.1684 63.5936C19.6608 63.5936 20.3992 62.8552 20.3992 62.1169C20.1532 60.8861 19.9111 59.6574 19.9317 58.6904C20.3992 57.932 19.9068 56.7018 20.3992 55.9629C27.0451 49.6859 28.2916 40.917 26.7834 32.6021C26.616 31.6784 26.4145 30.7597 26.1826 29.8512C25.9519 29.0229 25.7119 28.1827 25.4562 27.3398C25.2005 26.4963 24.9296 25.6501 24.6376 24.8061C22.8608 19.7789 20.8916 14.1173 16.0242 11.3231C15.1618 10.9195 14.1293 10.5896 12.8849 10.367L12.886 10.3675Z" fill="#3B8A00"/>
<path d="M8.00907 34.426C9.72959 37.1417 11.0758 40.2214 12.2296 43.2144C12.7963 44.6836 13.2887 46.1815 13.7042 47.7004C14.1181 49.2119 14.3191 50.8007 14.811 52.2856C14.9356 52.661 15.5271 52.6128 15.5212 52.1897C15.4979 50.5976 15.0217 48.98 14.6116 47.4507C14.1853 45.8613 13.675 44.2935 13.0829 42.7583C11.8884 39.6623 10.2442 36.938 8.43378 34.1779C8.26097 33.9146 7.83788 34.1568 8.00853 34.4266L8.00907 34.426Z" fill="#ADE75B"/>
<path d="M17.8953 48.1079C16.9527 51.1171 16.2571 54.5284 16.8628 57.6823C16.9549 58.1623 17.6548 58.0187 17.6786 57.5718C17.8476 54.4271 17.7404 51.3587 18.3921 48.2449C18.4598 47.9215 17.995 47.7893 17.8953 48.1079Z" fill="#ADE75B"/>
<path d="M36.1908 88.7676C33.2692 88.4133 31.4279 86.2296 30.0102 83.8102C29.4615 82.8698 28.9761 81.8952 28.5162 80.977C27.6841 79.3107 26.8894 77.6194 25.9218 76.0267C24.8313 74.2374 23.4012 72.6816 22.2197 70.9513C19.6275 67.1457 17.673 62.924 16.2038 58.5675C13.1539 49.5115 12.5461 40.047 12.1967 30.5755C12.1745 29.9823 13.0607 29.9996 13.11 30.5755C13.531 35.6856 14.2423 40.8255 15.2417 45.8565C16.9574 54.4964 19.6552 63.1017 24.957 70.2574C25.2474 70.649 25.5502 71.0277 25.8579 71.4042C25.8579 71.4042 25.8579 71.4069 25.8606 71.4069C26.7469 72.4947 27.6673 73.5511 28.4306 74.7396C29.4078 76.2635 30.2199 77.8881 31.0644 79.4878C32.266 81.7598 33.74 85.2626 36.6003 85.7399C38.3132 86.0281 37.8999 88.9745 36.1918 88.7676H36.1908Z" fill="#ADE75B"/>
<path d="M36.191 88.7675C33.2695 88.4132 31.4282 86.2295 30.0105 83.8102C28.8853 79.1432 27.0987 73.6198 25.8604 71.4069C26.7466 72.4946 27.667 73.551 28.4303 74.7396C29.4076 76.2634 30.2196 77.8881 31.0642 79.4878C32.2657 81.7598 33.7397 85.2625 36.6 85.7398C38.313 86.028 37.8996 88.9744 36.1916 88.7675H36.191Z" fill="#9CD939"/>
<path d="M8.68557 46.416C10.4684 48.474 12.0172 50.6886 13.2864 53.0971C14.4934 55.3875 15.4533 57.8367 16.7177 60.0886C17.0682 60.7127 18.0623 60.2923 17.8705 59.6027C17.1609 57.0447 15.6169 54.53 14.0746 52.3929C12.4955 50.2043 10.8276 48.0851 9.0339 46.0682C8.82209 45.8304 8.47972 46.1782 8.68557 46.4166V46.416Z" fill="#ADE75B"/>
<path d="M77.2184 25.9757C71.4653 26.1198 67.8888 31.9742 67.4088 36.9559C66.8015 43.2578 66.9673 45.8136 62.1855 50.2547C56.7049 55.3447 53.337 61.2706 50.1289 67.9377C48.5823 71.1522 49.1083 72.9995 52.6663 71.9405C54.6003 71.3646 56.2038 69.7015 58.1464 69.0953C60.1735 68.4626 62.341 68.5661 64.432 67.9523C74.747 64.9246 75.2411 54.7104 81.2076 47.4843C84.7131 43.2393 89.7718 37.7939 89.0789 31.7483C88.7934 29.2574 87.1547 26.9535 84.9645 25.7433C81.1632 23.6425 78.5158 25.8776 77.2189 25.9746L77.2184 25.9757Z" fill="#3B8A00"/>
<path d="M60.0984 58.7549C59.619 59.5339 59.1547 60.3372 58.769 61.1666C58.3893 61.983 58.0637 62.8221 57.7359 63.6607C57.406 64.5047 57.0918 65.358 56.6975 66.1749C56.2977 67.0032 55.886 67.8288 55.4748 68.6495C55.2261 69.1451 55.9011 69.5346 56.2142 69.0818C56.4824 68.6933 56.7132 68.3223 56.9163 67.8943C57.1157 67.4739 57.2939 67.046 57.4553 66.6093C57.769 65.7615 58.0783 64.9116 58.379 64.0589C58.9841 62.3416 59.5339 60.5404 60.4446 58.9569C60.5735 58.7332 60.2338 58.536 60.0989 58.7549H60.0984Z" fill="#ADE75B"/>
<path d="M44.0499 2.68047C40.092 2.79478 36.6461 5.25637 34.1628 8.11235C33.6796 8.68278 33.2425 9.2776 32.8573 9.88541C32.4456 10.5832 32.101 11.3199 31.8334 12.0756C31.4764 13.1336 30.9845 14.3644 30.9845 15.3487C30.7386 16.8254 31.2305 18.0562 31.2305 19.5335C31.5999 22.1181 32.315 24.7373 32.8703 27.3782C33.0556 28.2623 33.2229 29.1486 33.3318 30.0533C34.1845 35.2869 29.5078 39.2252 29.0154 43.9025C28.9536 44.6408 29.0002 45.3792 29.127 46.1138C29.2537 46.8489 29.4618 47.5802 29.7174 48.3132C30.1747 49.0136 30.6086 49.9059 30.997 50.914C32.7078 54.4861 31.9694 59.4093 35.1688 62.3633C35.6613 62.6093 36.3996 62.1174 36.892 61.625C41.0763 57.9326 42.5536 51.0408 48.4237 50.0017C49.2417 49.6112 49.9985 49.1507 50.6936 48.629C51.3891 48.1073 52.0235 47.5239 52.5961 46.8895C53.1687 46.2552 53.6785 45.5694 54.1259 44.8418C56.1742 41.3921 57.1997 37.5692 57.3421 33.6845C57.3709 32.9033 57.3633 32.1194 57.3194 31.3263C56.9505 30.5289 56.6704 29.7315 56.4608 28.933C56.2517 28.1296 56.1168 27.3246 56.0713 26.4985C56.0919 24.9481 56.3378 23.7178 56.6894 22.3516C56.9256 21.6181 57.2073 20.8943 57.5036 20.1738C58.6894 17.2902 60.112 14.4462 59.7837 11.1639C59.0453 5.00989 52.3995 1.56398 46.6523 2.2563C45.7601 2.35706 44.8949 2.49845 44.0499 2.68047Z" fill="#3B8A00"/>
<path d="M44.0618 16.3086C43.3592 35.1016 34.8439 52.6004 33.5253 71.318C33.1586 76.5235 33.3287 81.9813 34.7214 87.0362C35.2745 89.0449 38.2134 88.1911 37.8147 86.1835C36.9105 81.6314 36.3829 77.1356 36.4333 72.4871C36.4842 67.812 36.9555 63.1483 37.7632 58.5458C39.3505 49.5006 42.0022 40.6689 43.4979 31.6069C44.3376 26.5207 44.8647 21.468 44.8349 16.3086C44.8322 15.8097 44.0803 15.8124 44.0618 16.3086Z" fill="#ADE75B"/>
<path d="M73.2829 48.7953C72.5938 51.5028 71.6512 53.9081 70.1371 56.276C68.6826 58.5501 66.8559 60.6325 64.9089 62.5009C61.1082 66.1413 56.6259 68.6619 52.3924 71.7189C49.1138 74.0868 46.0293 76.861 43.6663 80.1644C42.9647 81.1438 42.364 82.1877 41.7588 83.2289C41.2269 84.1471 40.6879 85.0627 40.0752 85.924C38.9923 87.45 37.5301 88.5162 35.5832 88.3336C35.561 88.3336 35.5415 88.3314 35.5193 88.3287C34.5989 88.2301 33.789 87.6196 33.8009 86.6082C33.8085 85.7517 34.5886 84.7891 35.5193 84.8899C35.7213 84.9094 35.918 84.9094 36.12 84.9142C36.1347 84.9164 36.1471 84.9164 36.1617 84.9164H36.191C36.2528 84.9066 36.3188 84.8942 36.366 84.8698C36.3882 84.8573 36.4077 84.8476 36.4229 84.84C36.3784 84.8573 36.3589 84.8622 36.3541 84.8622C36.3736 84.8427 36.593 84.7441 36.4326 84.8351C36.4472 84.8303 36.4694 84.8227 36.4917 84.8129C36.5334 84.7956 36.5778 84.7712 36.6195 84.7441C36.6217 84.7414 36.6244 84.7393 36.6271 84.7365C36.7576 84.6157 36.8806 84.4879 37.0063 84.3622C37.0529 84.3156 37.0973 84.2615 37.1417 84.2073C37.1515 84.1948 37.1612 84.1802 37.1715 84.1677C37.1764 84.1656 37.1791 84.1629 37.1791 84.158C37.4451 83.7864 37.6883 83.4023 37.9272 83.016C39.2761 80.8275 40.6126 78.6811 42.2691 76.7071C42.8845 75.9736 43.5319 75.2672 44.2112 74.5879V74.5857C46.545 72.2325 49.2032 70.1918 51.9823 68.3998C56.1373 65.7215 60.3757 63.3514 64.0611 60.0063C67.5173 56.8729 70.7243 52.9416 72.4497 48.5651C72.6518 48.058 73.4243 48.2427 73.284 48.7937L73.2829 48.7953Z" fill="#ADE75B"/>
<path d="M44.2105 74.589C42.9505 76.8512 42.1823 80.5284 41.7587 83.2289C41.2267 84.1472 40.6877 85.0627 40.075 85.924C38.9921 87.4501 37.53 88.5162 35.583 88.3336C35.7358 87.3444 35.92 86.1678 36.1144 84.9392C36.1144 84.937 36.1144 84.9343 36.1171 84.9316C36.1171 84.9267 36.1171 84.9218 36.1193 84.9142C36.1339 84.9164 36.1464 84.9164 36.161 84.9164H36.1903C36.252 84.9067 36.3181 84.8942 36.3653 84.8698C36.3875 84.8574 36.407 84.8476 36.4221 84.84C36.3777 84.8574 36.3582 84.8622 36.3533 84.8622C36.3728 84.8427 36.5922 84.7441 36.4319 84.8352C36.4465 84.8303 36.4687 84.8227 36.4909 84.8129C36.5327 84.7956 36.5771 84.7712 36.6188 84.7441C36.621 84.7414 36.6237 84.7393 36.6264 84.7366C36.7569 84.6158 36.8799 84.4879 37.0056 84.3622C37.0522 84.3156 37.0966 84.2615 37.141 84.2073C37.1508 84.1948 37.1605 84.1802 37.1708 84.1677C37.1757 84.1656 37.1784 84.1629 37.1784 84.158C37.4444 83.7864 37.6876 83.4023 37.9265 83.016C39.2754 80.8275 40.6118 78.6812 42.2684 76.7071C42.8838 75.9736 43.5312 75.2672 44.2105 74.5879V74.589Z" fill="#9CD939"/>
<path d="M27.271 0.393836C25.3229 -0.159265 23.1078 -0.159265 21.2335 0.581814C20.332 0.924184 19.4772 1.40199 18.6771 1.98109C17.8769 2.55965 17.1315 3.23951 16.4522 3.98493C15.7149 4.69784 15.112 5.45192 14.625 6.24013C14.138 7.02834 13.7669 7.84959 13.4798 8.69306C12.386 11.1595 10.5469 13.2538 9.13513 15.5014C8.66491 16.2507 8.24237 17.0167 7.92817 17.8173C7.51808 18.6754 7.31277 19.6581 7.36423 20.5801C7.4157 21.5021 7.7234 22.364 8.33771 22.9789C13.2614 28.3945 9.07663 35.5328 9.815 41.9327C10.0609 43.1635 10.7999 43.9019 11.5382 44.8868C14.2458 47.8408 17.9382 49.8099 19.2513 53.6437C19.7708 54.6909 20.2177 55.7846 20.5671 56.9558C20.8873 57.5664 21.2779 58.2164 21.7161 58.8416C23.0314 60.7181 24.7785 62.3774 26.3538 62.1087C28.1925 61.7951 29.0901 55.9921 29.2499 54.2218C29.3274 53.3637 29.4243 52.5955 29.5284 51.8983C29.9991 50.5489 29.7526 49.3181 30.2451 48.0873C30.5798 47.513 30.8989 46.9339 31.2007 46.351C31.7565 45.7671 32.2754 45.1701 32.7597 44.5601C34.4299 42.4257 36.1526 39.2257 35.1682 36.5182C34.7988 35.5333 34.5566 34.5761 34.4228 33.6422C34.4299 31.8409 34.4299 30.1183 35.1682 28.641C37.6298 24.7026 41.3222 21.2567 41.3222 16.826C41.3222 10.9185 37.138 5.01095 31.7283 2.1929C31.0983 1.85974 30.4303 1.55963 29.7228 1.29581C28.9379 0.894931 28.1193 0.586148 27.271 0.39492V0.393836Z" fill="#4A9600"/>
<path d="M26.0671 14.97C27.4008 19.8071 26.9398 25.1165 26.2464 30.0251C25.566 34.8405 24.4479 39.5833 23.8818 44.4165C22.82 53.4866 23.9733 62.755 27.059 71.3391C28.8034 76.1919 31.0369 81.0263 34.0944 85.197C35.3208 86.8704 38.069 85.3899 36.9439 83.5312C34.6177 79.6893 32.3988 75.817 30.7633 71.6219C29.1094 67.3797 27.8857 62.9554 27.143 58.4629C26.4079 54.0137 26.0416 49.5559 26.1944 45.046C26.358 40.2241 27.1717 35.4705 27.7616 30.6908C28.4334 25.2487 28.4166 20.0454 26.7795 14.7739C26.6392 14.3221 25.9403 14.5095 26.0676 14.97H26.0671Z" fill="#C1ED83"/>
<path d="M75.0817 11.3426C74.3075 8.20985 71.1076 6.7331 68.0685 6.06082C67.0907 5.94435 66.0777 5.93189 65.0646 5.99582C63.0386 6.12366 61.0147 6.55704 59.2915 7.08414C58.6024 7.39293 57.9469 7.77159 57.3337 8.22556C56.6609 8.71419 56.0352 9.27704 55.462 9.89894C54.8889 10.5208 54.3688 11.2023 53.9073 11.9277C51.4852 17.6321 50.6028 23.9041 47.301 29.2797C46.7506 30.1757 46.1319 31.0473 45.425 31.8903C42.3084 34.5485 39.8468 38.2409 40.8311 42.4252C42.5544 49.071 46.2462 54.9786 43.2732 61.6239C43.2413 62.2924 43.3041 62.9278 43.5051 63.502C43.7061 64.0763 44.0457 64.5887 44.5674 65.0135C47.9694 61.379 52.1543 60.3942 57.3234 60.3942C61.785 60.2403 64.6118 56.9136 66.3632 52.8647C66.7142 52.0549 67.0219 51.2168 67.2987 50.3793C68.4 46.8565 68.1541 42.9176 70.1233 39.9641C73.5692 34.795 80.7075 33.5642 81.2064 26.4497C81.3765 25.6599 81.4708 24.8549 81.493 24.0455C81.6046 19.9999 79.9193 15.8541 76.9642 13.0036C76.3986 12.353 75.7707 11.7923 75.0817 11.3437V11.3426Z" fill="#4A9600"/>
<path d="M63.1793 26.317C63.0271 28.8089 62.7817 31.2992 62.3402 33.7581C61.9155 36.1211 61.0444 38.3265 60.1814 40.554C58.4652 44.9843 55.865 48.9757 52.7901 52.5798C49.8253 56.0544 46.5316 59.23 43.5359 62.6765C40.7406 65.8927 39.0504 69.39 38.0135 73.5202C36.9447 77.7759 36.3168 82.081 34.897 86.2469C34.3087 87.9723 37.0693 89.1706 37.8705 87.5004C39.5834 83.9299 39.9469 79.8302 40.733 75.9931C41.5894 71.8105 42.8869 68.091 45.6155 64.7561C51.4846 57.5842 58.3558 51.2374 61.3516 42.2133C62.2194 39.5995 62.5623 36.8757 63.0152 34.1682C63.4507 31.563 63.7574 28.9546 63.9182 26.3175C63.9475 25.843 63.2086 25.8446 63.1799 26.3175L63.1793 26.317Z" fill="#C1ED83"/>
<path d="M28.4297 74.7385C30.959 78.3805 30.7921 91.0877 33.2965 91.4729C35.8009 91.858 39.125 92.4361 39.6786 91.4729C40.2317 90.5097 41.3233 87.5557 40.8097 84.9229L40.0616 79.6654L36.665 82.3822L28.4297 74.7385Z" fill="#C1ED83"/>
<path d="M17.7475 40.0231C18.1311 40.3634 18.4133 40.7599 18.7107 41.1732C19.0022 41.5779 19.259 41.9945 19.4849 42.4392C19.9421 43.3401 20.253 44.2979 20.5017 45.2752C21.0288 47.3456 21.3121 49.4909 22.051 51.5039C22.4882 52.6946 23.0537 53.7965 23.8723 54.7705C24.3273 55.3122 25.2954 54.5804 24.8631 54.0061C23.5359 52.2455 22.9373 50.1166 22.4167 48.0076C21.9167 45.9827 21.3489 43.9479 20.272 42.1424C19.9887 41.6678 19.6544 41.2003 19.2812 40.7919C18.9025 40.3769 18.4317 40.0546 17.9713 39.7339C17.8001 39.6147 17.591 39.885 17.7475 40.0237V40.0231Z" fill="#C1ED83"/>
<path d="M18.9332 29.0955C19.5854 29.8436 20.1515 30.7282 20.612 31.6064C21.0817 32.5024 21.4685 33.4515 21.7469 34.4239C22.3531 36.541 22.7876 38.7133 23.287 40.8569C23.4474 41.5454 23.6083 42.2339 23.7686 42.9225C23.9257 43.5958 24.0108 44.3537 24.3857 44.942C24.6284 45.3228 25.169 45.15 25.2026 44.7205C25.253 44.079 25.0032 43.4322 24.8396 42.8152C24.6793 42.2106 24.5189 41.6055 24.358 41.001C24.0395 39.8 23.721 38.5984 23.3976 37.3985C22.8623 35.412 22.2198 33.3935 21.2756 31.5587C21.014 31.0506 20.722 30.5571 20.3937 30.089C20.054 29.6052 19.6591 29.2011 19.2333 28.7937C19.0334 28.6025 18.7534 28.8896 18.9321 29.0949L18.9332 29.0955Z" fill="#C1ED83"/>
<path d="M30.1764 31.6865C29.4098 33.5587 28.4358 35.3557 27.4379 37.1125C26.4352 38.8774 25.3978 40.6494 24.7044 42.5644C24.3203 43.6251 23.9422 44.7573 24.0988 45.8982C24.1426 46.2183 24.6649 46.2725 24.797 45.9892C25.2185 45.0883 25.3973 44.0948 25.7125 43.1554C26.0257 42.2236 26.3919 41.3081 26.7868 40.4083C27.594 38.5708 28.529 36.7928 29.3719 34.9716C29.8513 33.9358 30.2571 32.893 30.5724 31.796C30.6471 31.5354 30.2739 31.4498 30.1769 31.6871L30.1764 31.6865Z" fill="#C1ED83"/>
<path d="M21.6452 18.1619C22.1013 18.9604 22.6154 19.7166 23.0179 20.5471C23.4269 21.3911 23.7595 22.2714 24.0315 23.169C24.6155 25.0992 24.9562 27.0792 25.2189 29.0765C25.2975 29.6746 25.3782 30.2721 25.46 30.8702C25.5006 31.1654 25.5407 31.4607 25.5846 31.7554C25.6317 32.0701 25.6475 32.3919 25.8089 32.672C25.9974 32.9975 26.5391 32.9445 26.6291 32.5647C26.7504 32.0528 26.5673 31.4276 26.5007 30.9097C26.4313 30.3707 26.3658 29.8306 26.291 29.2927C26.1404 28.2114 25.9779 27.1307 25.7677 26.0591C25.3874 24.1203 24.8419 22.1999 23.9177 20.4442C23.4291 19.5162 22.8478 18.546 22.0482 17.852C21.8348 17.6667 21.4951 17.8991 21.6457 18.163L21.6452 18.1619Z" fill="#C1ED83"/>
<path d="M30.2848 21.3418C30.0595 21.7779 29.8233 22.1966 29.6353 22.6511C29.4441 23.1127 29.2659 23.5807 29.0909 24.0488C28.7404 24.9843 28.4132 25.9291 28.1104 26.8815C27.5112 28.7683 27.0004 30.6757 26.6125 32.6172C26.5036 33.1628 26.4012 33.7099 26.3097 34.2581C26.2122 34.8437 26.1244 35.4066 26.1986 35.9987C26.256 36.4554 26.8129 36.5382 26.9895 36.1059C27.3557 35.2067 27.4023 34.1904 27.567 33.2381C27.7344 32.2727 27.924 31.3106 28.1369 30.3539C28.5627 28.44 29.0595 26.5488 29.6738 24.6864C29.8417 24.1766 30.0172 23.669 30.1998 23.1636C30.3959 22.6208 30.5465 22.0742 30.7204 21.5254C30.8011 21.2703 30.4094 21.1002 30.2843 21.3418H30.2848Z" fill="#C1ED83"/>
<path d="M41.3189 20.2069C41.3097 20.6684 41.4495 21.1191 41.5654 21.5633C41.6856 22.0238 41.7924 22.4875 41.8866 22.9545C42.0708 23.8711 42.2084 24.7974 42.2924 25.7287C42.3758 26.6572 42.4083 27.5906 42.3893 28.5223C42.3698 29.4731 42.2897 30.4157 42.3086 31.3675C42.3151 31.6893 42.7832 31.7597 42.8726 31.4439C43.1391 30.504 43.2046 29.5527 43.2193 28.5792C43.2339 27.6085 43.1922 26.6371 43.0952 25.6712C43.0004 24.727 42.8574 23.7877 42.6559 22.8597C42.5508 22.3765 42.4316 21.896 42.2983 21.4198C42.1699 20.9609 42.0345 20.4745 41.7436 20.0909C41.6131 19.9187 41.3232 19.962 41.3184 20.2063L41.3189 20.2069Z" fill="#ADE75B"/>
<path d="M48.4822 18.2258C47.9123 18.936 47.4312 19.7074 46.9431 20.475C46.4534 21.2454 45.9637 22.0141 45.5211 22.8131C44.6359 24.4112 43.8547 26.0613 43.3 27.8051C42.9815 28.8068 42.761 29.8263 42.6695 30.8734C42.6305 31.3193 43.3715 31.4228 43.455 30.9796C43.6679 29.849 43.9225 28.7228 44.2643 27.6236C44.598 26.5516 45.0238 25.5158 45.4734 24.4876C45.9252 23.4551 46.4724 22.4561 47.0135 21.468C47.5731 20.4458 48.2259 19.475 48.7557 18.4371C48.8402 18.2713 48.6127 18.0627 48.4816 18.2258H48.4822Z" fill="#ADE75B"/>
<path d="M37.3663 28.8555C38.356 30.5191 38.7786 32.5387 39.0023 34.4412C39.2531 36.5745 39.3403 38.7354 39.3663 40.8818C39.3821 42.164 39.3701 43.4463 39.3875 44.7285C39.3934 45.1755 40.0419 45.1657 40.0744 44.7285C40.2472 42.4148 40.1508 40.0827 39.9904 37.7701C39.8496 35.7386 39.7098 33.634 39.1215 31.6741C38.7964 30.5917 38.3208 29.6025 37.6756 28.674C37.5456 28.4871 37.2455 28.6534 37.3658 28.8549L37.3663 28.8555Z" fill="#ADE75B"/>
<path d="M34.5856 43.8607C34.9897 44.9063 35.2378 46.0271 35.4339 47.13C35.6355 48.2628 35.7796 49.4026 35.8641 50.55C36.0342 52.855 35.9242 55.1617 35.9014 57.4694C35.896 58.0312 36.7352 58.0225 36.7682 57.4694C36.908 55.1151 36.9426 52.7374 36.7417 50.3853C36.6425 49.2222 36.4751 48.0553 36.168 46.928C35.8624 45.8077 35.4188 44.7654 34.9095 43.7242C34.8229 43.5465 34.5135 43.6722 34.5861 43.8607H34.5856Z" fill="#ADE75B"/>
<path d="M40.98 50.2812C40.6306 50.5705 40.3581 50.9443 40.0823 51.3024C39.7974 51.6724 39.5249 52.0516 39.2671 52.4416C38.7719 53.1903 38.3234 53.9709 37.8894 54.7559C37.4566 55.5397 37.1175 56.3865 36.845 57.2391C36.709 57.6638 36.5758 58.101 36.4918 58.5398C36.4078 58.9802 36.267 59.5133 36.3304 59.9575C36.371 60.243 36.8055 60.2663 36.9301 60.0361C37.1316 59.665 37.1885 59.1715 37.3114 58.7657C37.4366 58.3524 37.539 57.9325 37.669 57.5203C37.9344 56.6806 38.2443 55.8604 38.5639 55.0408C38.8797 54.2309 39.2963 53.4644 39.76 52.7304C40 52.3512 40.2519 51.979 40.5163 51.6166C40.7795 51.2558 41.0797 50.9199 41.3094 50.5364C41.4388 50.3202 41.155 50.136 40.9789 50.2818L40.98 50.2812Z" fill="#ADE75B"/>
<path d="M50.7886 45.3537C50.7544 46.5997 50.5204 47.8532 50.223 49.0618C49.9234 50.278 49.522 51.4568 49.0166 52.6025C47.9976 54.9141 46.7906 57.1384 45.6904 59.4115C45.3881 60.0361 45.095 60.6634 44.822 61.3015C44.6806 61.6325 44.5436 61.9641 44.4206 62.3021C44.2835 62.6791 44.1519 63.0285 44.2348 63.4327C44.2857 63.6813 44.6497 63.8514 44.8637 63.6884C45.3708 63.3021 45.5685 62.5843 45.8155 62.0144C46.0685 61.431 46.3302 60.8514 46.5951 60.2733C47.1335 59.0973 47.7002 57.9347 48.2376 56.7581C49.2929 54.4471 50.2019 52.044 50.7593 49.5597C51.0719 48.1663 51.1819 46.779 51.1369 45.3532C51.1298 45.1289 50.7945 45.1283 50.788 45.3532L50.7886 45.3537Z" fill="#C1ED83"/>
<path d="M59.1713 54.1112C58.0212 55.4341 56.4161 56.2982 54.6994 56.6275C53.7958 56.8009 52.883 56.9119 51.988 57.1389C51.1413 57.354 50.3136 57.6563 49.533 58.0485C49.0996 58.2663 48.683 58.516 48.2929 58.8053C48.1781 58.8903 48.0492 58.9716 47.962 59.0848C47.911 59.1503 47.898 59.2376 47.8493 59.2993C47.8964 59.2392 47.7875 59.3297 47.7805 59.3351C47.5795 59.4971 47.4202 59.743 47.2799 59.9564C47.0437 60.3167 47.5204 60.8107 47.8834 60.5599C48.1369 60.3844 48.3883 60.1455 48.6727 60.0247L48.3812 60.1032C48.7177 60.0767 48.9018 59.9093 49.1695 59.73C49.384 59.5864 49.6055 59.4521 49.8309 59.3264C50.2681 59.0826 50.7242 58.8795 51.189 58.6948C52.1793 58.3015 53.1999 58.0311 54.2302 57.77C54.8012 57.6254 55.3809 57.4867 55.9334 57.2809C56.4383 57.0923 56.8879 56.8383 57.3457 56.5571C58.2336 56.0116 58.9758 55.2716 59.5993 54.44C59.7835 54.1941 59.3739 53.8788 59.1724 54.1107L59.1713 54.1112Z" fill="#C1ED83"/>
<path d="M63.3149 44.332C62.7109 45.1576 61.9975 45.9496 61.278 46.6777C60.5603 47.4036 59.7547 48.0954 58.9107 48.6718C57.2758 49.7877 55.5054 50.7634 54.3424 52.4183C54.1712 52.6621 54.2985 53.031 54.5401 53.1724C54.8245 53.3387 55.1121 53.2114 55.2942 52.9747C56.4708 51.4421 58.1653 50.3446 59.661 49.1517C60.4611 48.5136 61.1778 47.7974 61.8523 47.0287C62.1827 46.6522 62.5013 46.2632 62.7954 45.857C63.1053 45.429 63.3583 44.9691 63.6248 44.514C63.744 44.3103 63.4482 44.1505 63.3149 44.3331V44.332Z" fill="#C1ED83"/>
<path d="M54.5058 34.5252C54.3206 35.8091 54.2404 37.0751 54.3016 38.3715C54.3639 39.683 54.534 40.9869 54.7214 42.286C55.0595 44.6349 55.3818 47.0596 55.0226 49.427C54.9278 50.0527 54.7865 50.6719 54.5871 51.2732C54.4912 51.5619 54.3829 51.8469 54.2561 52.1237C54.1125 52.4368 53.9262 52.7288 53.8249 53.0587C53.7133 53.4227 54.2019 53.7039 54.4636 53.4303C54.8563 53.0191 55.0714 52.4092 55.2702 51.8842C55.4761 51.3414 55.631 50.7802 55.7442 50.2109C55.9717 49.0667 56.0411 47.8944 56.0108 46.7303C55.9441 44.1587 55.3851 41.6256 55.0297 39.086C54.8217 37.599 54.6532 36.0675 54.8282 34.5696C54.8493 34.3876 54.5324 34.3432 54.5058 34.5258V34.5252Z" fill="#C1ED83"/>
<path d="M58.3919 26.1702C58.0657 28.2927 58.932 30.3778 59.4298 32.4109C59.9444 34.5144 60.3854 36.6645 60.478 38.8335C60.503 39.4197 60.5013 40.0075 60.4656 40.5931C60.4466 40.9051 60.4184 41.2166 60.3784 41.5265C60.3383 41.8342 60.2608 42.1429 60.2695 42.4539C60.2787 42.7762 60.7847 42.9788 60.9336 42.6337C61.1433 42.1494 61.1731 41.5823 61.218 41.06C61.263 40.5346 61.2792 40.0064 61.2717 39.4793C61.256 38.3839 61.1362 37.2918 60.9661 36.2105C60.6286 34.0712 60.1124 31.9509 59.4742 29.8821C59.1102 28.7022 58.7532 27.4633 58.7499 26.2189C58.7499 26.0212 58.4244 25.9622 58.3924 26.1707L58.3919 26.1702Z" fill="#C1ED83"/>
<path d="M70.5764 28.0028C68.7037 29.4547 66.8017 31.0143 65.3515 32.9071C64.6386 33.8372 64.1797 34.8919 63.6158 35.9109C63.0405 36.95 62.3958 37.9538 61.7615 38.9576C61.0448 40.0914 60.2408 41.1651 59.5111 42.2892C59.2072 42.7578 59.9321 43.338 60.2966 42.8948C61.7913 41.0779 62.95 38.9446 63.9495 36.8259C64.4473 35.7706 64.8921 34.6801 65.5519 33.7121C66.1917 32.7738 66.994 31.958 67.8158 31.1795C68.3115 30.7098 68.8185 30.2526 69.3218 29.7911C69.851 29.3057 70.3597 28.8008 70.8884 28.3143C71.103 28.1171 70.7942 27.8338 70.5764 28.0023V28.0028Z" fill="#C1ED83"/>
<path d="M63.9551 16.9646C63.7244 18.7875 63.5039 20.6099 63.3024 22.4377C63.1019 24.26 62.9275 26.0856 62.7124 27.9064C62.2915 31.4736 61.7958 35.0387 60.9713 38.5388C60.7433 39.5079 60.493 40.4717 60.2183 41.4284C60.0807 41.9072 59.9404 42.3845 59.8093 42.8656C59.6685 43.384 59.6143 43.9252 59.5038 44.4512C59.4258 44.8223 59.9616 45.1023 60.1506 44.7237C60.3521 44.3206 60.5797 43.9262 60.7622 43.514C60.9513 43.0866 61.09 42.6294 61.2222 42.1814C61.4827 41.3 61.7222 40.4126 61.9421 39.5204C62.3825 37.7354 62.7563 35.9336 63.0678 34.1221C63.6908 30.5039 64.0581 26.85 64.2775 23.1869C64.4021 21.1137 64.4264 19.04 64.4416 16.9646C64.4438 16.6423 63.9925 16.6629 63.9546 16.9646H63.9551Z" fill="#C1ED83"/>
<path d="M77.8581 38.2019C77.6468 38.3709 77.4404 38.5193 77.2573 38.7198C77.0769 38.9169 76.9025 39.125 76.7427 39.3395C76.4285 39.7615 76.1435 40.2084 75.871 40.6575C75.3141 41.5757 74.8255 42.5335 74.3732 43.507C73.4723 45.4469 72.7166 47.4486 71.8531 49.4042C71.6066 49.9622 71.4061 50.5391 71.1694 51.1014C70.931 51.6675 70.6688 52.2222 70.4272 52.7867C70.2403 53.2233 70.7783 53.5451 71.0648 53.1594C72.3504 51.4281 73.1624 49.389 73.9349 47.3938C74.6987 45.422 75.4523 43.4382 76.4631 41.5757C76.7378 41.0697 77.0314 40.5735 77.3472 40.0919C77.5097 39.8444 77.6701 39.5963 77.8304 39.3476C78.0016 39.0805 78.1322 38.8075 78.2844 38.5307C78.4415 38.2457 78.0905 38.015 77.8575 38.2013L77.8581 38.2019Z" fill="#ADE75B"/>
<path d="M72.465 40.0453C72.3209 40.5118 72.1654 40.9755 72.1009 41.4609C72.0349 41.9598 72.024 42.4582 72.0284 42.9609C72.037 43.9902 72.1215 45.0178 72.1194 46.0477C72.1172 47.0547 71.9942 48.0439 71.7705 49.025C71.543 50.0212 71.2071 50.9795 71.0316 51.9877C70.9823 52.2704 71.3761 52.4904 71.5283 52.1973C72.0072 51.2753 72.2933 50.304 72.5251 49.2931C72.7472 48.3234 72.8881 47.3343 72.9054 46.3386C72.9233 45.3266 72.8371 44.3196 72.7889 43.3098C72.7651 42.8081 72.7635 42.3076 72.7673 41.8054C72.7721 41.2545 72.7461 40.6922 72.8409 40.1488C72.8837 39.905 72.5403 39.8016 72.465 40.0453Z" fill="#ADE75B"/>
<path d="M78.7713 44.7486C77.8791 46.5477 76.0985 47.5629 74.5589 48.7352C72.9185 49.9844 71.5756 51.673 70.7717 53.5755C70.5973 53.9877 71.1731 54.3588 71.3914 53.9379C72.3497 52.0912 73.5692 50.3934 75.1039 48.9795C76.488 47.7043 78.2014 46.655 79.0547 44.9139C79.1473 44.7253 78.8656 44.5585 78.7713 44.7481V44.7486Z" fill="#ADE75B"/>
<path d="M72.5078 56.9087C71.997 57.5344 71.166 57.9585 70.4493 58.302C69.7201 58.6514 68.9655 58.9456 68.2184 59.2538C67.4784 59.5588 66.7379 59.8735 66.0499 60.2863C65.3646 60.6975 64.7043 61.2192 64.3847 61.9722C64.2812 62.216 64.5244 62.5995 64.8056 62.3931C65.4453 61.9245 66.0445 61.4115 66.7314 61.0079C67.4156 60.6054 68.1469 60.2901 68.8755 59.9792C69.6118 59.665 70.3485 59.3573 71.043 58.9569C71.4059 58.7478 71.7564 58.5106 72.0641 58.2251C72.4054 57.9082 72.6162 57.562 72.8139 57.146C72.9016 56.9618 72.6579 56.7261 72.5078 56.9098V56.9087Z" fill="#ADE75B"/>
<path d="M68.1163 50.9692C67.6613 52.3983 67.242 53.8247 66.9923 55.3063C66.7512 56.737 66.4012 58.2506 66.69 59.6997C66.7447 59.9743 67.1965 59.9781 67.2485 59.6997C67.5145 58.282 67.365 56.8117 67.5464 55.3816C67.7317 53.9233 67.9917 52.4595 68.4322 51.0565C68.4955 50.8544 68.1797 50.7683 68.1158 50.9692H68.1163Z" fill="#ADE75B"/>
<path d="M66.6664 63.0296C65.2893 64.0112 63.5157 64.1293 61.9062 64.4581C61.1549 64.6115 60.4062 64.8888 59.7231 65.2355C59.378 65.4105 59.0541 65.6229 58.7545 65.8677C58.4598 66.1088 58.2046 66.5042 58.0161 66.8347C57.8011 67.2117 58.2994 67.592 58.612 67.2946C58.8834 67.0368 59.1732 66.8618 59.4712 66.6456C59.7724 66.4273 60.0985 66.2399 60.4317 66.0757C61.0877 65.754 61.7979 65.5562 62.4897 65.3292C64.0271 64.8254 65.584 64.4164 66.889 63.4094C67.1079 63.2404 66.9015 62.8611 66.6664 63.0285V63.0296Z" fill="#ADE75B"/>
<path d="M35.7471 81.5295C35.7471 81.5295 38.6231 85.4695 38.7531 88.1825C38.7531 88.1825 38.0483 82.8687 36.3148 79.7863L35.7471 81.5295Z" fill="#ADE75B"/>
</g>
<defs>
<clipPath id="clip0_214_167421">
<rect width="88.2854" height="92" fill="white" transform="translate(0.857422)"/>
</clipPath>
</defs>
</svg>
