<svg width="93" height="92" viewBox="0 0 93 92" fill="none" xmlns="http://www.w3.org/2000/svg">
<rect width="92" height="92" transform="translate(0.46875)" fill="#FF3F3F"/>
<path d="M21.5151 32V23.456H23.5151V32H21.5151ZM22.5231 22.048C22.1498 22.048 21.8405 21.9307 21.5951 21.696C21.3605 21.4613 21.2431 21.1787 21.2431 20.848C21.2431 20.5067 21.3605 20.224 21.5951 20C21.8405 19.7653 22.1498 19.648 22.5231 19.648C22.8965 19.648 23.2005 19.76 23.4351 19.984C23.6805 20.1973 23.8031 20.4693 23.8031 20.8C23.8031 21.152 23.6858 21.4507 23.4511 21.696C23.2165 21.9307 22.9071 22.048 22.5231 22.048ZM33.778 32.112C32.8393 32.112 32.114 31.872 31.602 31.392C31.09 30.9013 30.834 30.1813 30.834 29.232V21.568H32.834V29.184C32.834 29.5893 32.9353 29.904 33.138 30.128C33.3513 30.352 33.6447 30.464 34.018 30.464C34.466 30.464 34.8393 30.3467 35.138 30.112L35.698 31.536C35.4633 31.728 35.1753 31.872 34.834 31.968C34.4927 32.064 34.1407 32.112 33.778 32.112ZM29.426 25.12V23.52H35.122V25.12H29.426ZM42.1913 23.36C42.8739 23.36 43.4819 23.4933 44.0153 23.76C44.5593 24.0267 44.9859 24.4373 45.2953 24.992C45.6046 25.536 45.7593 26.24 45.7593 27.104V32H43.7593V27.36C43.7593 26.6027 43.5779 26.0373 43.2153 25.664C42.8633 25.2907 42.3673 25.104 41.7273 25.104C41.2579 25.104 40.8419 25.2 40.4793 25.392C40.1166 25.584 39.8339 25.872 39.6313 26.256C39.4393 26.6293 39.3433 27.104 39.3433 27.68V32H37.3433V20.128H39.3433V25.76L38.9113 25.056C39.2099 24.512 39.6419 24.096 40.2073 23.808C40.7833 23.5093 41.4446 23.36 42.1913 23.36ZM48.2964 32V23.456H50.2964V32H48.2964ZM49.3044 22.048C48.931 22.048 48.6217 21.9307 48.3764 21.696C48.1417 21.4613 48.0244 21.1787 48.0244 20.848C48.0244 20.5067 48.1417 20.224 48.3764 20C48.6217 19.7653 48.931 19.648 49.3044 19.648C49.6777 19.648 49.9817 19.76 50.2164 19.984C50.4617 20.1973 50.5844 20.4693 50.5844 20.8C50.5844 21.152 50.467 21.4507 50.2324 21.696C49.9977 21.9307 49.6884 22.048 49.3044 22.048ZM57.7694 23.36C58.452 23.36 59.06 23.4933 59.5934 23.76C60.1374 24.0267 60.564 24.4373 60.8734 24.992C61.1827 25.536 61.3374 26.24 61.3374 27.104V32H59.3374V27.36C59.3374 26.6027 59.156 26.0373 58.7934 25.664C58.4414 25.2907 57.9454 25.104 57.3054 25.104C56.836 25.104 56.42 25.2 56.0574 25.392C55.6947 25.584 55.412 25.872 55.2094 26.256C55.0174 26.6293 54.9214 27.104 54.9214 27.68V32H52.9214V23.456H54.8254V25.76L54.4894 25.056C54.788 24.512 55.22 24.096 55.7854 23.808C56.3614 23.5093 57.0227 23.36 57.7694 23.36ZM65.5065 30.096L65.5545 27.584L70.0185 23.456H72.4185L68.6265 27.264L67.5705 28.144L65.5065 30.096ZM63.8745 32V20.128H65.8745V32H63.8745ZM70.3225 32L67.2025 28.144L68.4665 26.544L72.7545 32H70.3225ZM14.5124 52.112C13.5737 52.112 12.8484 51.872 12.3364 51.392C11.8244 50.9013 11.5684 50.1813 11.5684 49.232V41.568H13.5684V49.184C13.5684 49.5893 13.6697 49.904 13.8724 50.128C14.0857 50.352 14.379 50.464 14.7524 50.464C15.2004 50.464 15.5737 50.3467 15.8724 50.112L16.4324 51.536C16.1977 51.728 15.9097 51.872 15.5684 51.968C15.227 52.064 14.875 52.112 14.5124 52.112ZM10.1604 45.12V43.52H15.8564V45.12H10.1604ZM22.9256 43.36C23.6083 43.36 24.2163 43.4933 24.7496 43.76C25.2936 44.0267 25.7203 44.4373 26.0296 44.992C26.339 45.536 26.4936 46.24 26.4936 47.104V52H24.4936V47.36C24.4936 46.6027 24.3123 46.0373 23.9496 45.664C23.5976 45.2907 23.1016 45.104 22.4616 45.104C21.9923 45.104 21.5763 45.2 21.2136 45.392C20.851 45.584 20.5683 45.872 20.3656 46.256C20.1736 46.6293 20.0776 47.104 20.0776 47.68V52H18.0776V40.128H20.0776V45.76L19.6456 45.056C19.9443 44.512 20.3763 44.096 20.9416 43.808C21.5176 43.5093 22.179 43.36 22.9256 43.36ZM29.0308 52V43.456H31.0308V52H29.0308ZM30.0388 42.048C29.6654 42.048 29.3561 41.9307 29.1108 41.696C28.8761 41.4613 28.7588 41.1787 28.7588 40.848C28.7588 40.5067 28.8761 40.224 29.1108 40C29.3561 39.7653 29.6654 39.648 30.0388 39.648C30.4121 39.648 30.7161 39.76 30.9508 39.984C31.1961 40.1973 31.3188 40.4693 31.3188 40.8C31.3188 41.152 31.2014 41.4507 30.9668 41.696C30.7321 41.9307 30.4228 42.048 30.0388 42.048ZM36.2958 52.112C35.5811 52.112 34.8931 52.0213 34.2318 51.84C33.5811 51.648 33.0638 51.4187 32.6798 51.152L33.4478 49.632C33.8318 49.8773 34.2904 50.08 34.8238 50.24C35.3571 50.4 35.8904 50.48 36.4238 50.48C37.0531 50.48 37.5064 50.3947 37.7838 50.224C38.0718 50.0533 38.2158 49.824 38.2158 49.536C38.2158 49.3013 38.1198 49.1253 37.9278 49.008C37.7358 48.88 37.4851 48.784 37.1758 48.72C36.8664 48.656 36.5198 48.5973 36.1358 48.544C35.7624 48.4907 35.3838 48.4213 34.9998 48.336C34.6264 48.24 34.2851 48.1067 33.9758 47.936C33.6664 47.7547 33.4158 47.5147 33.2238 47.216C33.0318 46.9173 32.9358 46.5227 32.9358 46.032C32.9358 45.488 33.0904 45.0187 33.3997 44.624C33.7091 44.2187 34.1411 43.9093 34.6957 43.696C35.2611 43.472 35.9278 43.36 36.6958 43.36C37.2718 43.36 37.8531 43.424 38.4398 43.552C39.0264 43.68 39.5118 43.8613 39.8958 44.096L39.1278 45.616C38.7224 45.3707 38.3118 45.2053 37.8958 45.12C37.4904 45.024 37.0851 44.976 36.6798 44.976C36.0718 44.976 35.6184 45.0667 35.3198 45.248C35.0318 45.4293 34.8878 45.6587 34.8878 45.936C34.8878 46.192 34.9838 46.384 35.1758 46.512C35.3678 46.64 35.6184 46.7413 35.9278 46.816C36.2371 46.8907 36.5784 46.9547 36.9518 47.008C37.3358 47.0507 37.7144 47.12 38.0878 47.216C38.4611 47.312 38.8024 47.4453 39.1118 47.616C39.4318 47.776 39.6878 48.0053 39.8798 48.304C40.0718 48.6027 40.1678 48.992 40.1678 49.472C40.1678 50.0053 40.0078 50.4693 39.6878 50.864C39.3784 51.2587 38.9358 51.568 38.3598 51.792C37.7838 52.0053 37.0958 52.112 36.2958 52.112ZM46.312 52V43.456H48.312V52H46.312ZM47.32 42.048C46.9467 42.048 46.6373 41.9307 46.392 41.696C46.1573 41.4613 46.04 41.1787 46.04 40.848C46.04 40.5067 46.1573 40.224 46.392 40C46.6373 39.7653 46.9467 39.648 47.32 39.648C47.6933 39.648 47.9973 39.76 48.232 39.984C48.4773 40.1973 48.6 40.4693 48.6 40.8C48.6 41.152 48.4827 41.4507 48.248 41.696C48.0133 41.9307 47.704 42.048 47.32 42.048ZM53.577 52.112C52.8623 52.112 52.1743 52.0213 51.513 51.84C50.8623 51.648 50.345 51.4187 49.961 51.152L50.729 49.632C51.113 49.8773 51.5717 50.08 52.105 50.24C52.6383 50.4 53.1717 50.48 53.705 50.48C54.3343 50.48 54.7877 50.3947 55.065 50.224C55.353 50.0533 55.497 49.824 55.497 49.536C55.497 49.3013 55.401 49.1253 55.209 49.008C55.017 48.88 54.7663 48.784 54.457 48.72C54.1477 48.656 53.801 48.5973 53.417 48.544C53.0437 48.4907 52.665 48.4213 52.281 48.336C51.9077 48.24 51.5663 48.1067 51.257 47.936C50.9477 47.7547 50.697 47.5147 50.505 47.216C50.313 46.9173 50.217 46.5227 50.217 46.032C50.217 45.488 50.3717 45.0187 50.681 44.624C50.9903 44.2187 51.4223 43.9093 51.977 43.696C52.5423 43.472 53.209 43.36 53.977 43.36C54.553 43.36 55.1343 43.424 55.721 43.552C56.3077 43.68 56.793 43.8613 57.177 44.096L56.409 45.616C56.0037 45.3707 55.593 45.2053 55.177 45.12C54.7717 45.024 54.3663 44.976 53.961 44.976C53.353 44.976 52.8997 45.0667 52.601 45.248C52.313 45.4293 52.169 45.6587 52.169 45.936C52.169 46.192 52.265 46.384 52.457 46.512C52.649 46.64 52.8997 46.7413 53.209 46.816C53.5183 46.8907 53.8597 46.9547 54.233 47.008C54.617 47.0507 54.9957 47.12 55.369 47.216C55.7423 47.312 56.0837 47.4453 56.393 47.616C56.713 47.776 56.969 48.0053 57.161 48.304C57.353 48.6027 57.449 48.992 57.449 49.472C57.449 50.0053 57.289 50.4693 56.969 50.864C56.6597 51.2587 56.217 51.568 55.641 51.792C55.065 52.0053 54.377 52.112 53.577 52.112ZM68.8573 52V50.272L68.7453 49.904V46.88C68.7453 46.2933 68.5693 45.84 68.2173 45.52C67.8653 45.1893 67.3319 45.024 66.6173 45.024C66.1373 45.024 65.6626 45.0987 65.1933 45.248C64.7346 45.3973 64.3453 45.6053 64.0253 45.872L63.2413 44.416C63.6999 44.064 64.2439 43.8027 64.8733 43.632C65.5133 43.4507 66.1746 43.36 66.8573 43.36C68.0946 43.36 69.0493 43.6587 69.7213 44.256C70.4039 44.8427 70.7453 45.7547 70.7453 46.992V52H68.8573ZM66.1693 52.112C65.5293 52.112 64.9693 52.0053 64.4893 51.792C64.0093 51.568 63.6359 51.264 63.3693 50.88C63.1133 50.4853 62.9853 50.0427 62.9853 49.552C62.9853 49.072 63.0973 48.64 63.3213 48.256C63.5559 47.872 63.9346 47.568 64.4573 47.344C64.9799 47.12 65.6733 47.008 66.5373 47.008H69.0173V48.336H66.6813C65.9986 48.336 65.5399 48.448 65.3053 48.672C65.0706 48.8853 64.9533 49.152 64.9533 49.472C64.9533 49.8347 65.0973 50.1227 65.3853 50.336C65.6733 50.5493 66.0733 50.656 66.5853 50.656C67.0759 50.656 67.5133 50.544 67.8973 50.32C68.2919 50.096 68.5746 49.7653 68.7453 49.328L69.0813 50.528C68.8893 51.0293 68.5426 51.4187 68.0413 51.696C67.5506 51.9733 66.9266 52.112 66.1693 52.112ZM78.16 43.36C78.8427 43.36 79.4507 43.4933 79.984 43.76C80.528 44.0267 80.9547 44.4373 81.264 44.992C81.5733 45.536 81.728 46.24 81.728 47.104V52H79.728V47.36C79.728 46.6027 79.5467 46.0373 79.184 45.664C78.832 45.2907 78.336 45.104 77.696 45.104C77.2267 45.104 76.8107 45.2 76.448 45.392C76.0853 45.584 75.8027 45.872 75.6 46.256C75.408 46.6293 75.312 47.104 75.312 47.68V52H73.312V43.456H75.216V45.76L74.88 45.056C75.1787 44.512 75.6107 44.096 76.176 43.808C76.752 43.5093 77.4133 43.36 78.16 43.36ZM31.703 72.112C30.7537 72.112 29.9217 71.9253 29.207 71.552C28.503 71.168 27.9537 70.6453 27.559 69.984C27.175 69.3227 26.983 68.5707 26.983 67.728C26.983 66.8747 27.1697 66.1227 27.543 65.472C27.927 64.8107 28.4497 64.2933 29.111 63.92C29.783 63.5467 30.5457 63.36 31.399 63.36C32.231 63.36 32.9723 63.5413 33.623 63.904C34.2737 64.2667 34.7857 64.7787 35.159 65.44C35.5323 66.1013 35.719 66.88 35.719 67.776C35.719 67.8613 35.7137 67.9573 35.703 68.064C35.703 68.1707 35.6977 68.272 35.687 68.368H28.567V67.04H34.631L33.847 67.456C33.8577 66.9653 33.7563 66.5333 33.543 66.16C33.3297 65.7867 33.0363 65.4933 32.663 65.28C32.3003 65.0667 31.879 64.96 31.399 64.96C30.9083 64.96 30.4763 65.0667 30.103 65.28C29.7403 65.4933 29.4523 65.792 29.239 66.176C29.0363 66.5493 28.935 66.992 28.935 67.504V67.824C28.935 68.336 29.0523 68.7893 29.287 69.184C29.5217 69.5787 29.8523 69.8827 30.279 70.096C30.7057 70.3093 31.1963 70.416 31.751 70.416C32.231 70.416 32.663 70.3413 33.047 70.192C33.431 70.0427 33.7723 69.808 34.071 69.488L35.143 70.72C34.759 71.168 34.2737 71.5147 33.687 71.76C33.111 71.9947 32.4497 72.112 31.703 72.112ZM37.6401 72V63.456H39.5441V65.808L39.3201 65.12C39.5761 64.544 39.9761 64.1067 40.5201 63.808C41.0748 63.5093 41.7628 63.36 42.5841 63.36V65.264C42.4988 65.2427 42.4188 65.232 42.3441 65.232C42.2695 65.2213 42.1948 65.216 42.1201 65.216C41.3628 65.216 40.7601 65.44 40.3121 65.888C39.8641 66.3253 39.6401 66.9813 39.6401 67.856V72H37.6401ZM44.2808 72V63.456H46.1848V65.808L45.9608 65.12C46.2168 64.544 46.6168 64.1067 47.1608 63.808C47.7154 63.5093 48.4034 63.36 49.2248 63.36V65.264C49.1394 65.2427 49.0594 65.232 48.9848 65.232C48.9101 65.2213 48.8354 65.216 48.7608 65.216C48.0034 65.216 47.4008 65.44 46.9528 65.888C46.5048 66.3253 46.2808 66.9813 46.2808 67.856V72H44.2808ZM54.6833 72.112C53.8086 72.112 53.0299 71.9253 52.3473 71.552C51.6646 71.168 51.1259 70.6453 50.7313 69.984C50.3366 69.3227 50.1393 68.5707 50.1393 67.728C50.1393 66.8747 50.3366 66.1227 50.7313 65.472C51.1259 64.8107 51.6646 64.2933 52.3473 63.92C53.0299 63.5467 53.8086 63.36 54.6833 63.36C55.5686 63.36 56.3526 63.5467 57.0353 63.92C57.7286 64.2933 58.2673 64.8053 58.6513 65.456C59.0459 66.1067 59.2433 66.864 59.2433 67.728C59.2433 68.5707 59.0459 69.3227 58.6513 69.984C58.2673 70.6453 57.7286 71.168 57.0353 71.552C56.3526 71.9253 55.5686 72.112 54.6833 72.112ZM54.6833 70.4C55.1739 70.4 55.6113 70.2933 55.9953 70.08C56.3793 69.8667 56.6779 69.5573 56.8913 69.152C57.1153 68.7467 57.2273 68.272 57.2273 67.728C57.2273 67.1733 57.1153 66.6987 56.8913 66.304C56.6779 65.8987 56.3793 65.5893 55.9953 65.376C55.6113 65.1627 55.1793 65.056 54.6993 65.056C54.2086 65.056 53.7713 65.1627 53.3873 65.376C53.0139 65.5893 52.7153 65.8987 52.4913 66.304C52.2673 66.6987 52.1553 67.1733 52.1553 67.728C52.1553 68.272 52.2673 68.7467 52.4913 69.152C52.7153 69.5573 53.0139 69.8667 53.3873 70.08C53.7713 70.2933 54.2033 70.4 54.6833 70.4ZM61.1558 72V63.456H63.0598V65.808L62.8358 65.12C63.0918 64.544 63.4918 64.1067 64.0358 63.808C64.5904 63.5093 65.2784 63.36 66.0998 63.36V65.264C66.0144 65.2427 65.9344 65.232 65.8598 65.232C65.7851 65.2213 65.7104 65.216 65.6358 65.216C64.8784 65.216 64.2758 65.44 63.8278 65.888C63.3798 66.3253 63.1558 66.9813 63.1558 67.856V72H61.1558Z" fill="white"/>
</svg>
