<svg width="37" height="92" viewBox="0 0 37 92" fill="none" xmlns="http://www.w3.org/2000/svg">
<g clip-path="url(#clip0_226_171274)">
<path fill-rule="evenodd" clip-rule="evenodd" d="M3.35774 20.9975C2.65898 20.866 1.98165 20.5958 1.4135 20.1646C0.990419 19.8435 0.687518 19.4004 0.56213 18.8821C0.438479 18.3716 0.498422 17.8958 0.67275 17.4591C-0.331226 16.1951 0.151215 14.1889 1.05731 12.9984C1.1911 12.8226 1.34168 12.6665 1.50529 12.5281C1.39641 12.0402 1.44477 11.5146 1.71118 10.9797C2.26255 9.87238 3.45446 9.23965 4.67475 8.93327C4.78798 7.39994 6.00653 6.38235 7.51119 5.9448C8.28321 5.72037 9.10591 5.68244 9.80004 5.99171C9.8177 5.6946 9.88343 5.39691 10.0053 5.10501C10.1299 4.80733 10.2984 4.53078 10.5055 4.28347C10.9957 3.69765 11.6516 3.31917 12.3657 3.12921C12.3695 3.08722 12.3741 3.04523 12.379 3.00382C12.5623 1.51161 13.5278 0.424237 14.9963 0.0842691C15.8824 -0.121043 16.792 0.036778 17.4487 0.70484C18.0496 1.31643 18.2129 2.11597 18.1608 2.92129C18.1944 2.94243 18.2274 2.96415 18.2604 2.98644C18.7191 3.29803 19.0559 3.74543 19.2114 4.27942C19.3287 4.6831 19.3316 5.08185 19.2519 5.46554C19.3513 5.53099 19.4451 5.6028 19.5328 5.68099C20.0865 4.88493 20.9755 4.38686 22.0806 4.29911C23.0449 4.22266 23.9808 4.53251 24.5339 5.37143C24.9306 5.97347 25.0001 6.65108 24.8904 7.31828C24.904 7.3287 24.9173 7.33913 24.9306 7.34984C25.4125 7.73209 25.7316 8.26723 25.8075 8.88114C25.848 9.20982 25.8167 9.52314 25.731 9.81823C25.7507 9.83444 25.7701 9.85124 25.7892 9.86803C26.1179 9.51127 26.563 9.2799 27.0573 9.18433C27.1589 8.88578 27.3165 8.60489 27.5423 8.3544C28.3723 7.43353 29.579 7.44077 30.6521 7.86877C31.9486 8.38567 32.9445 9.39312 32.9975 10.735C34.026 11.1332 34.9721 11.8074 35.3622 12.8273C35.5156 13.2286 35.5565 13.6636 35.4754 14.0858C35.4682 14.1228 35.4603 14.1593 35.4516 14.1955C35.5562 14.3137 35.652 14.4414 35.7372 14.5792C35.9685 14.9534 36.1362 15.3756 36.2434 15.8018C36.4881 16.7766 36.427 17.8741 35.7583 18.6504C35.8513 19.0521 35.8452 19.4728 35.6978 19.8982C35.5284 20.3868 35.1948 20.7881 34.7567 21.0592C34.2539 21.3699 33.6826 21.5541 33.0982 21.6302C33.0392 21.9181 32.9225 22.1984 32.7325 22.463C32.513 22.7691 32.2243 23.0034 31.8936 23.158C31.9674 23.7221 31.8907 24.2903 31.5585 24.8141C31.2223 25.345 30.6967 25.6936 30.0898 25.8378C29.4513 25.9896 28.7907 26.0269 28.1452 25.9374C28.1458 26.1509 28.1447 26.3643 28.1406 26.5777C28.136 26.8125 28.1284 27.0468 28.107 27.2808C28.0349 28.0679 27.9796 28.8567 27.9356 29.6458C27.8982 30.3144 27.8693 30.9834 27.8351 31.652C27.7737 32.8486 27.6935 34.0413 27.4424 35.2159C27.1624 36.5268 26.6788 37.7277 26.022 38.8941C25.588 39.6644 25.0965 40.4037 24.5727 41.1193L25.1194 41.8018C31.2634 44.3235 35.6196 50.1626 35.7392 57.0419L35.7647 58.5152L35.7169 58.5262C35.668 59.5233 35.5472 60.5174 35.3332 61.4915L35.4131 61.5324L34.9122 63.0194C34.909 63.0286 34.9058 63.0379 34.9026 63.0472C34.8939 63.0718 34.8852 63.0964 34.8765 63.121C34.8377 63.2337 34.7978 63.3457 34.7561 63.4575C34.7375 63.507 34.7184 63.556 34.6993 63.6052C34.6643 63.6955 34.6287 63.7853 34.5919 63.8748C34.5707 63.926 34.5493 63.977 34.5276 64.028C34.4902 64.1149 34.4523 64.2014 34.4132 64.2877C34.3921 64.3346 34.3709 64.3815 34.3492 64.4282C34.3038 64.5258 34.2566 64.6225 34.2085 64.7189C34.1928 64.7502 34.1781 64.7815 34.1622 64.8127C34.0982 64.939 34.0318 65.0641 33.9635 65.188C33.9464 65.219 33.9285 65.2497 33.9111 65.2807C33.8598 65.3716 33.808 65.4623 33.7547 65.552C33.7292 65.5949 33.7035 65.6372 33.6774 65.6797C33.6308 65.7562 33.5836 65.8321 33.5355 65.9076C33.5077 65.9511 33.4799 65.9942 33.4518 66.0371C33.4029 66.1118 33.3528 66.1859 33.3024 66.2598C33.276 66.298 33.25 66.3365 33.2233 66.3744C33.1622 66.4619 33.0994 66.5482 33.0363 66.6339C33.02 66.6559 33.0044 66.6779 32.9882 66.6999C32.9086 66.8065 32.8272 66.9113 32.7447 67.0153C32.7215 67.0442 32.698 67.0726 32.6746 67.1016C32.6149 67.1751 32.555 67.2484 32.4939 67.3205C32.4629 67.3573 32.4316 67.3935 32.4003 67.4297C32.3456 67.4931 32.2903 67.5565 32.2344 67.6191C32.2023 67.655 32.1701 67.6909 32.1377 67.7265C32.0798 67.7902 32.021 67.853 31.9619 67.9156C31.9327 67.9463 31.9037 67.9773 31.8745 68.008C31.7995 68.0862 31.723 68.1635 31.6471 68.2391C31.6335 68.2527 31.6199 68.2669 31.606 68.2805C31.5163 68.3691 31.4253 68.4565 31.3335 68.5431C31.3057 68.5695 31.2773 68.5952 31.2493 68.6213C31.185 68.681 31.1207 68.7403 31.0555 68.7988C31.0214 68.8295 30.9872 68.8599 30.9527 68.8903C30.8928 68.9433 30.8326 68.9963 30.7717 69.0484C30.7367 69.0785 30.702 69.1087 30.6666 69.1385C30.6032 69.1924 30.5392 69.2456 30.4752 69.2983C30.4448 69.3235 30.4147 69.3484 30.3843 69.3733C30.2954 69.446 30.2059 69.5176 30.1158 69.5885C30.1098 69.5931 30.104 69.5981 30.0979 69.6027C30.0026 69.6774 29.9068 69.7512 29.81 69.8245C29.7788 69.8483 29.7475 69.8714 29.7159 69.8949C29.6505 69.9441 29.5847 69.9928 29.5187 70.0414C29.4825 70.068 29.4463 70.0944 29.4101 70.1207C29.3479 70.1659 29.2853 70.2108 29.2228 70.2554C29.1872 70.2809 29.1515 70.3061 29.1159 70.3313C29.0487 70.3788 28.9813 70.4257 28.9135 70.4726C28.884 70.4929 28.8547 70.5134 28.8252 70.534C28.7287 70.6003 28.6317 70.666 28.5347 70.7315C28.5249 70.7381 28.515 70.7445 28.5055 70.7509C28.418 70.8094 28.3306 70.8676 28.2428 70.9252C28.2095 70.9472 28.1759 70.9689 28.1423 70.9909C28.0778 71.0329 28.0135 71.0749 27.9486 71.1169C27.9121 71.1407 27.8754 71.1641 27.8386 71.1876C27.776 71.2278 27.7132 71.2678 27.6504 71.3077C27.6153 71.33 27.5806 71.352 27.5455 71.3743C27.4775 71.4175 27.4097 71.4601 27.3417 71.5029C27.3133 71.5209 27.2849 71.5385 27.2565 71.5565C27.1618 71.6159 27.0671 71.6749 26.9722 71.7337L26.9093 71.7728C26.8317 71.8209 26.7541 71.8692 26.6765 71.9173L26.3386 72.1261L26.1341 72.2526L26.0255 72.3198C25.9575 72.3621 25.8894 72.4044 25.8214 72.4467C25.7944 72.4635 25.7675 72.48 25.7406 72.4968C25.6496 72.5532 25.559 72.61 25.4684 72.667C25.4487 72.6795 25.429 72.6919 25.409 72.7044C25.3389 72.7484 25.2691 72.7927 25.1993 72.837C25.1684 72.8567 25.1374 72.8767 25.1064 72.8964C25.0479 72.9337 24.9897 72.9711 24.9315 73.0087C24.8988 73.0299 24.866 73.051 24.8336 73.0721C24.7757 73.1098 24.7181 73.1474 24.6604 73.1854C24.63 73.2054 24.5999 73.2253 24.5695 73.2453C24.5043 73.2885 24.4395 73.3319 24.3746 73.3756C24.3535 73.3898 24.332 73.404 24.3109 73.4185C24.2275 73.4747 24.1447 73.5317 24.0622 73.5891C24.0419 73.6032 24.0216 73.6174 24.0013 73.6316C23.9397 73.6748 23.8783 73.7179 23.8169 73.7616C23.7885 73.7819 23.7604 73.8022 23.732 73.8227C23.679 73.861 23.6261 73.8995 23.5733 73.9383C23.5444 73.9594 23.5157 73.9809 23.4868 74.0023C23.4344 74.0414 23.3819 74.0808 23.3301 74.1204C23.3035 74.1407 23.2768 74.161 23.2502 74.1812C23.1885 74.2287 23.1271 74.2771 23.0663 74.3255C23.0518 74.337 23.0368 74.3486 23.0223 74.3602C22.9487 74.4193 22.8755 74.4789 22.8031 74.5395C22.7834 74.556 22.764 74.5728 22.7443 74.5893C22.6919 74.6336 22.6397 74.6779 22.5882 74.7228C22.5633 74.7442 22.539 74.7662 22.5144 74.7879C22.4686 74.8285 22.4231 74.869 22.3783 74.9101C22.3531 74.933 22.3279 74.9559 22.303 74.979C22.2575 75.0213 22.2123 75.0642 22.1674 75.107C22.1451 75.1285 22.1226 75.1496 22.1003 75.1713C22.0432 75.2266 21.987 75.2831 21.9314 75.3396C21.9225 75.3485 21.9135 75.3575 21.9045 75.3668C21.8431 75.4296 21.7832 75.4936 21.7235 75.5585C21.7058 75.5776 21.6888 75.5973 21.6714 75.6167C21.6288 75.6636 21.5865 75.7111 21.5448 75.7589C21.524 75.7829 21.5034 75.8069 21.4832 75.831C21.4452 75.8759 21.4076 75.921 21.3702 75.9665C21.35 75.9911 21.33 76.0157 21.3103 76.0406C21.2718 76.0893 21.2338 76.1382 21.1959 76.1875C21.1779 76.2106 21.16 76.2338 21.1423 76.2572C21.0908 76.3259 21.0407 76.3954 20.9914 76.4657L20.9868 76.4724L20.9851 76.4747C20.9677 76.4999 20.9512 76.5254 20.9361 76.552C20.933 76.5578 20.9298 76.5636 20.9266 76.5694C20.924 76.5743 20.9214 76.5793 20.9191 76.5839C20.9167 76.5885 20.9144 76.5932 20.9124 76.5975C20.9104 76.6019 20.9081 76.6068 20.906 76.6114C20.9043 76.6152 20.9028 76.6189 20.9011 76.6227C20.8997 76.6262 20.8982 76.6296 20.8968 76.6331C20.8953 76.6366 20.8941 76.6401 20.8927 76.6435C20.8915 76.647 20.8904 76.6502 20.8892 76.6534C20.8881 76.6566 20.8872 76.6598 20.886 76.6632C20.8852 76.6661 20.8843 76.6693 20.8834 76.6722C20.8826 76.6754 20.8817 76.6783 20.8808 76.6815C20.88 76.685 20.8791 76.6884 20.8782 76.6919C20.8774 76.6954 20.8765 76.6989 20.8759 76.7026C20.875 76.7067 20.8745 76.7104 20.8736 76.7145C20.8727 76.7188 20.8721 76.7232 20.8713 76.7275C20.8704 76.7322 20.8698 76.7365 20.8692 76.7411C20.8687 76.7461 20.8678 76.7507 20.8672 76.7556C20.8666 76.7614 20.8661 76.7669 20.8655 76.7727C20.8649 76.7791 20.8643 76.7857 20.8637 76.7921C20.8632 76.7988 20.8626 76.8051 20.8623 76.8118C20.8617 76.8193 20.8614 76.8271 20.8608 76.8347C20.8606 76.8425 20.86 76.8503 20.8597 76.8584C20.8594 76.8671 20.8591 76.8758 20.8588 76.8845C20.8588 76.894 20.8585 76.9036 20.8582 76.9131C20.8582 76.923 20.8582 76.9331 20.8582 76.943C20.8582 76.9656 20.8582 76.9881 20.8588 77.0107C20.8588 77.0235 20.8594 77.0362 20.8597 77.0487C20.86 77.062 20.8606 77.0753 20.8608 77.0883C20.8614 77.1022 20.8617 77.1164 20.8623 77.1303C20.8635 77.1607 20.8649 77.1908 20.8661 77.2213C20.8675 77.2548 20.8692 77.2884 20.871 77.322L20.8736 77.3768L20.8762 77.4335L20.8788 77.4874C20.8817 77.5511 20.884 77.6145 20.886 77.6782C20.8875 77.7237 20.8886 77.7694 20.8892 77.8152C20.8915 77.9412 20.891 78.0674 20.8869 78.1934C20.886 78.2203 20.8849 78.2472 20.8837 78.2742C20.8826 78.302 20.8811 78.3301 20.8794 78.3579C20.8776 78.3859 20.8759 78.4143 20.8739 78.4424C20.8719 78.4714 20.8695 78.5003 20.8672 78.5293C20.8646 78.5588 20.862 78.5881 20.8591 78.6176C20.8562 78.6477 20.853 78.6778 20.8496 78.7077C20.8461 78.7381 20.8423 78.7685 20.8386 78.7989C20.8345 78.8299 20.8302 78.8606 20.8258 78.8913C20.8212 78.9225 20.8165 78.9538 20.8113 78.9854C20.8061 79.0172 20.8006 79.0494 20.7951 79.0812C20.7893 79.1134 20.7832 79.1455 20.7772 79.1774C20.7708 79.2101 20.7641 79.2428 20.7569 79.2755C20.7499 79.3086 20.7424 79.3413 20.7349 79.3743C20.7282 79.4035 20.7213 79.4328 20.714 79.462C20.7071 79.4907 20.6998 79.5194 20.6926 79.5477C20.6854 79.5758 20.6781 79.6039 20.6709 79.6317C20.6636 79.6589 20.6564 79.6862 20.6489 79.7134C20.6416 79.74 20.6341 79.767 20.6263 79.7936C20.6188 79.82 20.6112 79.8463 20.6034 79.8727C20.5959 79.8979 20.5884 79.9233 20.5808 79.9485C20.5733 79.9734 20.5658 79.9983 20.5579 80.0229C20.5504 80.0473 20.5429 80.0716 20.5351 80.0956C20.5275 80.1191 20.52 80.1428 20.5125 80.1663C20.505 80.1895 20.4974 80.2123 20.4899 80.2355C20.4827 80.2578 20.4751 80.2804 20.4676 80.3027C20.4604 80.3244 20.4531 80.3461 20.4459 80.3681C20.4386 80.3898 20.4314 80.4116 20.4239 80.4333L20.4033 80.4938L20.383 80.5535L20.3442 80.6667L20.3245 80.7246C20.3188 80.7417 20.313 80.7591 20.3072 80.7761C20.3014 80.7932 20.2956 80.8106 20.2901 80.8277C20.2846 80.8445 20.2791 80.8613 20.2736 80.8781C20.2684 80.894 20.2632 80.9102 20.2579 80.9264C20.253 80.9421 20.2478 80.9577 20.2429 80.9734C20.238 80.9887 20.2333 81.0038 20.2287 81.0191C20.2241 81.0339 20.2197 81.0486 20.2151 81.0637C20.2107 81.0782 20.2064 81.0927 20.2023 81.1071C20.1983 81.1213 20.1942 81.1355 20.1902 81.15C20.1864 81.1636 20.1827 81.1772 20.1792 81.1905C20.1757 81.2039 20.1722 81.2172 20.1688 81.2305C20.1653 81.2435 20.1621 81.2566 20.1589 81.2696C20.1557 81.2823 20.1528 81.2948 20.1499 81.3075C20.147 81.3203 20.1441 81.3327 20.1415 81.3455C20.1389 81.3579 20.1363 81.3701 20.1337 81.3825C20.1311 81.395 20.1288 81.4071 20.1265 81.4196C20.1242 81.4315 20.1221 81.4436 20.1198 81.4555C20.1178 81.4677 20.1158 81.4801 20.1137 81.4923C20.1117 81.5042 20.11 81.516 20.1082 81.5282C20.1065 81.5401 20.1048 81.5522 20.1033 81.5641C20.1019 81.5763 20.1004 81.5884 20.099 81.6003C20.0975 81.6127 20.0964 81.6252 20.0952 81.6376C20.094 81.6498 20.0929 81.6623 20.092 81.6744C20.0911 81.6872 20.0903 81.6999 20.0894 81.7127C20.0885 81.7257 20.088 81.7387 20.0874 81.7517C20.0868 81.7651 20.0862 81.7787 20.0859 81.792C20.0856 81.8053 20.0854 81.8189 20.0851 81.8325C20.0851 81.8467 20.0851 81.8609 20.0851 81.8748C20.0851 81.8893 20.0854 81.9038 20.0856 81.9183C20.0859 81.9336 20.0865 81.9487 20.0871 81.964C20.0877 81.9794 20.0885 81.995 20.0894 82.0103C20.0903 82.0266 20.0914 82.0428 20.0926 82.059C20.0938 82.0761 20.0952 82.0932 20.0969 82.1102C20.0984 82.1276 20.1001 82.1453 20.1021 82.1627C20.1042 82.1809 20.1062 82.1991 20.1085 82.2174C20.1108 82.2362 20.1134 82.255 20.1158 82.2736C20.1184 82.2933 20.1213 82.3132 20.1244 82.3329C20.1276 82.3535 20.1308 82.3741 20.1343 82.3946C20.1378 82.4158 20.1415 82.4369 20.1456 82.458C20.1496 82.48 20.154 82.5021 20.1583 82.5241C20.163 82.5472 20.1676 82.5701 20.1725 82.5933C20.1777 82.617 20.1829 82.641 20.1882 82.6648C20.1937 82.6897 20.1994 82.7143 20.2055 82.7389C21.2657 87.1255 20.6173 86.7351 19.4312 92.0012C17.7366 88.9226 16.516 86.8886 16.0107 83.3375C15.9927 83.2121 15.9762 83.0867 15.9609 82.9607C15.9487 82.8608 15.9371 82.7609 15.9261 82.6607C15.9087 82.5009 15.8963 82.3408 15.889 82.18C15.8838 82.0645 15.8812 81.9489 15.8812 81.8331C15.8812 81.7955 15.8815 81.7578 15.8821 81.7202C15.8827 81.6831 15.8835 81.646 15.8847 81.6087C15.8859 81.5719 15.8873 81.5351 15.889 81.4987C15.8908 81.4625 15.8925 81.4263 15.8948 81.3901C15.8969 81.3542 15.8995 81.3182 15.9021 81.2823C15.9047 81.2473 15.9076 81.212 15.9108 81.1769C15.9139 81.1422 15.9171 81.1077 15.9206 81.073C15.9241 81.0388 15.9278 81.0043 15.9319 80.9702C15.9357 80.9366 15.9397 80.903 15.9441 80.8697C15.9484 80.8364 15.9528 80.8034 15.9574 80.7701C15.962 80.7376 15.9667 80.7052 15.9716 80.6728C15.9765 80.6406 15.9814 80.6085 15.9869 80.5766C15.9921 80.5451 15.9973 80.5138 16.0028 80.4825C16.0084 80.4515 16.0139 80.4208 16.0196 80.3898C16.0254 80.3594 16.0312 80.3287 16.037 80.2983C16.0428 80.2685 16.0489 80.2384 16.055 80.2086C16.0611 80.1793 16.0671 80.1501 16.0735 80.1208C16.0796 80.0922 16.086 80.0635 16.0923 80.0348C16.0987 80.0067 16.1051 79.9784 16.1114 79.9503C16.1178 79.9225 16.1245 79.8947 16.1308 79.8672C16.1372 79.8402 16.1439 79.8133 16.1502 79.7864C16.1569 79.7597 16.1633 79.7331 16.1699 79.7064C16.1766 79.6804 16.183 79.6543 16.1896 79.6283C16.196 79.6028 16.2027 79.5776 16.209 79.5524C16.2154 79.5275 16.2221 79.5026 16.2284 79.4774C16.2348 79.4531 16.2412 79.4287 16.2475 79.4047C16.2539 79.3804 16.2606 79.356 16.2669 79.3317L16.2855 79.2622L16.3217 79.1276L16.3399 79.0595C16.3454 79.0387 16.3509 79.0175 16.3567 78.9967C16.3622 78.9758 16.3677 78.9547 16.3732 78.9335C16.3787 78.913 16.3839 78.8924 16.3891 78.8719C16.3944 78.8519 16.3993 78.8319 16.4045 78.8116C16.4094 78.7919 16.4143 78.772 16.4193 78.7523C16.4239 78.7332 16.4285 78.7141 16.4332 78.6946C16.4378 78.6758 16.4421 78.657 16.4465 78.6382C16.4508 78.6196 16.4552 78.6014 16.4592 78.5829C16.4633 78.5649 16.4673 78.5467 16.4711 78.5287C16.4749 78.5111 16.4786 78.4934 16.4824 78.4757C16.4862 78.4581 16.4896 78.4407 16.4931 78.423C16.4966 78.4062 16.4998 78.3894 16.503 78.3726C16.5061 78.3561 16.509 78.3393 16.5119 78.3228C16.5148 78.3063 16.5177 78.2898 16.5203 78.2733C16.5229 78.2571 16.5255 78.2409 16.5281 78.2247C16.5305 78.209 16.5328 78.1931 16.5351 78.1775C16.5374 78.1615 16.5394 78.1459 16.5415 78.13C16.5435 78.1146 16.5452 78.0993 16.547 78.0839C16.5487 78.0683 16.5504 78.0527 16.5519 78.037C16.5533 78.0219 16.5548 78.0066 16.5559 77.9915C16.5571 77.9765 16.5583 77.9614 16.5591 77.9464C16.56 77.9313 16.5609 77.9163 16.5617 77.9012C16.5626 77.8861 16.5632 77.8714 16.5635 77.8563C16.5641 77.8413 16.5643 77.8262 16.5646 77.8108C16.5646 77.7958 16.5649 77.7807 16.5649 77.7657C16.5649 77.7506 16.5649 77.7355 16.5646 77.7205C16.5646 77.7057 16.5632 77.6904 16.562 77.6756C16.5603 77.6646 16.5588 77.6536 16.5574 77.6426C16.5554 77.627 16.5533 77.6107 16.5507 77.5954C16.549 77.5873 16.547 77.5789 16.5452 77.5708C16.5415 77.5546 16.5377 77.5378 16.5331 77.5216C16.5305 77.5123 16.5279 77.5033 16.525 77.494C16.5195 77.4764 16.5131 77.459 16.5067 77.4413C16.5024 77.4295 16.498 77.4173 16.4934 77.4051C16.4853 77.3852 16.476 77.3655 16.467 77.3461C16.4601 77.3307 16.4534 77.3157 16.4465 77.3003C16.4349 77.2766 16.4227 77.2534 16.4097 77.2302C16.4048 77.2218 16.3999 77.2137 16.3949 77.2053C16.3747 77.1706 16.3538 77.1361 16.3318 77.1022C16.3225 77.0886 16.313 77.075 16.3037 77.0611C16.2837 77.0319 16.2638 77.0023 16.2429 76.9737C16.231 76.9575 16.2189 76.9415 16.2067 76.9256C16.1844 76.8961 16.1615 76.8668 16.1384 76.8379C16.1239 76.8199 16.1094 76.8022 16.0946 76.7846C16.0686 76.7533 16.0419 76.7226 16.015 76.6922C15.9988 76.674 15.9829 76.6551 15.9664 76.6369C15.9336 76.6007 15.8998 76.5651 15.8662 76.5297C15.8508 76.5138 15.8358 76.4973 15.8204 76.4814C15.7706 76.4298 15.7196 76.3797 15.6681 76.3299C15.6577 76.3204 15.6475 76.3108 15.6374 76.301C15.5879 76.2538 15.5378 76.2072 15.4871 76.1611C15.466 76.142 15.4445 76.1232 15.4231 76.1043C15.3802 76.0661 15.3374 76.0282 15.2942 75.9908C15.2685 75.9685 15.2424 75.9465 15.2163 75.9245C15.1729 75.8877 15.1292 75.851 15.0852 75.8148C15.0571 75.7916 15.0287 75.7684 15.0006 75.7456C14.9531 75.707 14.9056 75.6691 14.8578 75.6312C14.8298 75.6089 14.8014 75.5863 14.7733 75.5643C14.7165 75.5197 14.6592 75.476 14.6016 75.4319C14.5787 75.4146 14.5561 75.3969 14.5335 75.3798C14.451 75.3173 14.3682 75.2556 14.2848 75.1939C14.2659 75.1803 14.2471 75.1667 14.2283 75.1528C14.1591 75.1021 14.0896 75.0514 14.0201 75.0013C13.9879 74.9782 13.9555 74.9553 13.9231 74.9321C13.8634 74.8896 13.8038 74.847 13.7438 74.8047C13.7073 74.7789 13.6706 74.7532 13.6341 74.7277C13.5744 74.686 13.5151 74.6443 13.4554 74.6029C13.4175 74.5765 13.3795 74.5502 13.3413 74.5238C13.2788 74.4807 13.2159 74.4375 13.1531 74.3944C13.1163 74.3692 13.0792 74.3437 13.0425 74.3185C12.9675 74.2673 12.8925 74.2163 12.8172 74.1653C12.7914 74.1477 12.7653 74.1303 12.7396 74.1126C12.6362 74.0425 12.5328 73.9727 12.4294 73.903C12.3848 73.8728 12.3399 73.8427 12.2951 73.8126L11.8002 73.479L11.6693 73.3907C11.5975 73.3423 11.5259 73.2937 11.4541 73.2453C11.4095 73.2152 11.3649 73.1848 11.3203 73.1547C11.2485 73.1057 11.1764 73.0568 11.1046 73.0079C11.0614 72.9786 11.0186 72.9494 10.9754 72.9198C10.8883 72.8602 10.8011 72.8002 10.714 72.7403C10.6862 72.7212 10.6584 72.7021 10.6308 72.683C10.5147 72.6027 10.3989 72.5222 10.2833 72.4412C10.2547 72.4212 10.2263 72.4009 10.1979 72.3809C10.1102 72.3192 10.0221 72.2573 9.93469 72.195C9.89241 72.1649 9.85042 72.1348 9.80843 72.1047C9.73227 72.0502 9.65611 71.9958 9.58024 71.9408C9.53449 71.9077 9.48903 71.8747 9.44356 71.8414C9.36885 71.787 9.29443 71.7326 9.22029 71.6778C9.17483 71.6442 9.12937 71.6109 9.08419 71.577C9.00601 71.5188 8.92811 71.4603 8.8505 71.4018C8.80909 71.3706 8.76768 71.3396 8.72656 71.3083C8.62926 71.2345 8.53254 71.1598 8.43582 71.0848C8.41381 71.0677 8.39181 71.0509 8.3698 71.0338C8.2502 70.9406 8.13147 70.8464 8.01303 70.7517C7.98147 70.7263 7.94991 70.7005 7.91834 70.675C7.83147 70.6046 7.74459 70.5343 7.65859 70.463C7.61573 70.4277 7.57316 70.3921 7.53059 70.3565C7.45472 70.2931 7.37914 70.2296 7.30385 70.1653C7.2581 70.1263 7.21263 70.0872 7.16717 70.0481C7.09391 69.9846 7.02064 69.9209 6.94796 69.8569C6.90278 69.817 6.85732 69.777 6.81243 69.7371C6.7357 69.6684 6.65954 69.5992 6.58367 69.5297C6.54428 69.4938 6.50461 69.4579 6.46552 69.4217C6.36648 69.3299 6.26831 69.2369 6.17072 69.1437C6.15422 69.1278 6.13742 69.1124 6.12092 69.0965C6.00682 68.9865 5.89388 68.8753 5.78211 68.7626C5.74852 68.729 5.71579 68.6949 5.68249 68.661C5.60402 68.5808 5.52554 68.5005 5.44822 68.4192C5.40681 68.3757 5.36627 68.332 5.32544 68.2883C5.25594 68.2139 5.18673 68.1391 5.11839 68.0639C5.07553 68.0169 5.03325 67.9697 4.99097 67.9223C4.92379 67.847 4.85719 67.7708 4.79116 67.6946C4.75033 67.6474 4.7095 67.6002 4.66896 67.5525C4.59859 67.4693 4.52938 67.3854 4.46046 67.3014C4.42629 67.2597 4.39183 67.2183 4.35824 67.1766C4.26442 67.0602 4.17204 66.942 4.08111 66.823C4.07156 66.8108 4.062 66.7987 4.05273 66.7862C3.95283 66.6548 3.85495 66.5213 3.75881 66.3869C3.7284 66.3446 3.69915 66.3018 3.66933 66.2592C3.60359 66.1651 3.53786 66.071 3.47386 65.9757C3.43824 65.9227 3.40349 65.8694 3.36874 65.8161C3.31112 65.7278 3.25378 65.6392 3.19789 65.55C3.16256 65.4935 3.12752 65.4371 3.09277 65.38C3.03746 65.2894 2.98331 65.1982 2.93003 65.1067C2.89702 65.0502 2.86429 64.994 2.83215 64.9373C2.7751 64.8368 2.72008 64.7354 2.66535 64.6338C2.63958 64.586 2.61323 64.5382 2.58803 64.4901C2.50637 64.3355 2.42761 64.1791 2.35203 64.0216L2.35058 64.0184C2.27587 63.8626 2.20376 63.7054 2.13455 63.5467C2.11225 63.496 2.0914 63.4448 2.06969 63.3941C2.03407 63.3107 1.99787 63.2279 1.96399 63.1439L1.32199 61.5552L1.41465 61.5109C1.07034 60.2539 0.893699 58.96 0.871112 57.6474C0.743407 50.2984 5.49137 43.9427 12.212 41.5273C11.7582 40.9296 11.3299 40.3131 10.943 39.6719C10.2654 38.5492 9.75457 37.3854 9.43574 36.1113C9.14414 34.9463 9.02251 33.757 8.91942 32.5633C8.86179 31.8961 8.80967 31.2286 8.74915 30.562C8.67762 29.775 8.59509 28.9887 8.49547 28.2046C8.46304 27.9477 8.44712 27.6903 8.43408 27.4317C8.41729 27.1036 8.40744 26.7752 8.39991 26.4468C7.64932 26.492 6.89641 26.3816 6.17652 26.1361C5.56318 25.9267 5.05439 25.517 4.75989 24.9343C4.43237 24.2862 4.44251 23.6164 4.63131 22.9747C4.2288 22.783 3.88999 22.4816 3.66035 22.0854C3.45533 21.7319 3.3644 21.365 3.35658 20.9978L3.35774 20.9975Z" fill="white"/>
<path fill-rule="evenodd" clip-rule="evenodd" d="M33.9175 57.1134C34.1335 69.5569 23.7969 69.2978 19.4961 75.465C18.6511 76.6766 19.3029 77.5297 18.9621 79.0013C18.6212 80.4732 17.9013 81.2186 18.4889 83.407C19.0765 85.5956 18.9412 88.3464 18.9412 88.3464C18.9412 88.3464 18.7484 87.7999 18.5431 86.5208C18.3377 85.2418 17.9584 84.5152 17.7403 82.5035C17.5223 80.4918 18.4188 79.3766 18.3902 77.728C18.3015 72.6204 2.91151 70.1459 2.69461 57.6549C2.5504 49.3445 9.42417 42.4835 18.0447 42.3338C26.6652 42.184 33.7733 48.8021 33.9175 57.1125V57.1134Z" fill="#B65C92"/>
<path fill-rule="evenodd" clip-rule="evenodd" d="M13.2224 43.1559C16.1049 44.1636 19.349 44.7222 22.8058 42.9622L22.824 42.9674L23.1 43.0681C19.8295 45.3156 15.8445 44.3044 12.3652 43.4985L12.722 43.3314C12.8873 43.27 13.0544 43.2121 13.2227 43.1562L13.2224 43.1559Z" fill="#C579A7"/>
<path fill-rule="evenodd" clip-rule="evenodd" d="M15.7935 42.5307C16.176 42.6468 16.8748 42.8148 17.2811 42.6442C17.6306 42.4974 17.8536 42.3949 17.9758 42.337C17.9891 42.3367 18.0024 42.3361 18.0154 42.3358C17.0699 43.0082 16.3353 42.9118 15.3779 42.6016C15.5158 42.5762 15.6542 42.5527 15.7935 42.531V42.5307Z" fill="#8F00B3"/>
<path fill-rule="evenodd" clip-rule="evenodd" d="M20.912 42.5382C20.003 43.4 19.0259 43.3786 17.3701 43.4333C18.8806 43.6076 20.0962 43.4449 21.779 42.7024C21.6519 42.6746 21.5241 42.6485 21.3956 42.6239L21.0663 42.564C21.0148 42.555 20.9632 42.5466 20.9117 42.5382H20.912Z" fill="#C579A7"/>
<path fill-rule="evenodd" clip-rule="evenodd" d="M19.8542 42.4041C19.0518 42.7838 17.7832 43.2622 16.4189 42.957C17.6439 43.5095 19.4998 42.9135 20.5605 42.4858C20.3265 42.4534 20.0911 42.4262 19.8542 42.4041Z" fill="#8F00B3"/>
<path fill-rule="evenodd" clip-rule="evenodd" d="M14.1129 42.8872C14.951 43.2109 16.6375 43.8089 18.1306 43.6334C16.6071 44.0275 14.7761 43.4104 13.5332 43.056C13.7249 42.9963 13.9181 42.9399 14.1129 42.8875V42.8872Z" fill="#C579A7"/>
<path fill-rule="evenodd" clip-rule="evenodd" d="M21.5383 42.0679C26.818 35.7171 25.6411 34.3692 26.2927 27.1548C26.4725 25.4808 25.8936 16.1954 25.8936 16.1954C25.8936 16.1954 25.2131 27.6825 24.7648 29.3745C23.4855 36.5902 21.2157 38.8936 18.6133 42.0144C19.4395 43.2216 20.4707 42.7922 21.5386 42.0679H21.5383Z" fill="#89A829"/>
<path fill-rule="evenodd" clip-rule="evenodd" d="M30.6017 12.1317C31.8993 12.1563 33.3634 12.7389 33.6617 13.5182C33.96 14.2977 32.1834 14.7935 32.1834 14.7935C32.1834 14.7935 33.724 14.8259 34.1887 15.5774C34.6535 16.3289 34.8406 17.9082 33.7373 17.6557C32.634 17.4029 31.8153 16.8576 31.8153 16.8576C31.8153 16.8576 34.7778 18.9441 33.7993 19.5493C32.8208 20.1542 31.1484 19.9 30.6767 19.1986C30.205 18.4972 30.6281 19.5487 30.6281 19.5487C30.6281 19.5487 31.9115 21.431 30.9953 21.5862C30.0793 21.7414 28.5182 20.6868 28.5182 20.6868C28.5182 20.6868 31.0989 23.7656 29.6693 24.1053C28.2396 24.4446 27.185 23.8417 26.7619 23.3764C25.027 23.9941 25.9647 23.0353 25.645 22.6377C25.645 22.6377 23.1331 21.4023 23.5568 20.696C23.9802 19.9897 24.8614 20.0847 24.8614 20.0847C24.8614 20.0847 22.6617 18.9432 23.474 18.3663C24.286 17.7895 25.1741 17.8347 25.1741 17.8347C25.1741 17.8347 22.2879 15.7839 23.6828 15.6947C25.0777 15.6052 25.8407 15.9643 25.8407 15.9643C25.8407 15.9643 23.593 13.4151 24.7727 13.7038C25.9525 13.9925 26.5421 14.4301 26.5421 14.4301C26.5421 14.4301 24.6757 12.6463 25.9111 12.5351C27.1461 12.4239 27.9998 12.7189 27.9998 12.7189C27.9998 12.7189 26.3417 11.1929 27.4241 11.0098C28.5066 10.8268 28.9922 11.428 28.9922 11.428C28.9922 11.428 27.9622 8.79745 29.9782 9.60132C32.2323 10.5002 30.6023 12.1323 30.6023 12.1323H30.6017V12.1317Z" fill="#4E9209"/>
<path fill-rule="evenodd" clip-rule="evenodd" d="M16.3007 42.1311C14.7575 35.2066 13.647 35.5376 14.0796 28.3068C14.1517 26.6246 15.8556 15.8983 15.8556 15.8983C15.8556 15.8983 16.7898 26.9501 16.9801 28.6902C17.1683 36.0163 17.0939 39.0407 19.2012 42.5145C18.2041 43.5848 17.2488 43.0065 16.3007 42.1308V42.1311Z" fill="#89A829"/>
<path fill-rule="evenodd" clip-rule="evenodd" d="M14.4385 5.00076C13.3743 4.62634 12.0726 4.92605 11.6872 5.84808C11.3017 6.76981 12.6625 7.97244 12.6625 7.97244C12.6625 7.97244 11.3985 7.53199 10.8821 8.36511C10.3658 9.19823 9.92595 11.1972 10.8729 11.2134C11.8198 11.2299 12.5878 10.7764 12.5878 10.7764C12.5878 10.7764 9.78869 12.5661 10.4779 13.6604C11.1671 14.755 12.5791 14.9479 13.0919 14.1819C13.6048 13.416 13.0679 14.6531 13.0679 14.6531C13.0679 14.6531 11.6773 16.703 12.3972 17.1915C13.1171 17.6803 14.5839 16.7962 14.5839 16.7962C14.5839 16.7962 11.9162 19.9981 13.0219 20.8877C14.1278 21.7779 15.0987 21.323 15.529 20.8492C16.8336 22.1975 18.2337 20.6141 16.5759 20.237C16.5759 20.237 18.852 19.4149 18.6345 18.3623C18.417 17.3097 17.68 17.1574 17.68 17.1574C17.68 17.1574 19.6842 16.3596 19.1259 15.3538C18.5676 14.3481 17.8341 14.1286 17.8341 14.1286C17.8341 14.1286 20.5646 12.3619 19.4416 11.8085C18.3186 11.2551 17.6299 11.4836 17.6299 11.4836C17.6299 11.4836 19.9295 8.86753 18.9134 8.8739C17.8975 8.88027 17.3363 9.26542 17.3363 9.26542C17.3363 9.26542 19.185 7.52678 18.1964 6.99482C17.2077 6.46286 16.4571 6.57985 16.4571 6.57985C16.4571 6.57985 18.0889 5.11167 17.2381 4.53396C16.3874 3.95625 15.8812 4.58753 15.8812 4.58753C15.8812 4.58753 17.2011 1.4841 15.4083 1.89936C13.4035 2.36356 14.4382 5.00076 14.4382 5.00076H14.4385Z" fill="#4E9209"/>
<path fill-rule="evenodd" clip-rule="evenodd" d="M20.4059 42.3216C21.7078 35.3474 22.8291 35.6398 22.1457 28.4287C22.0154 26.75 19.94 16.0894 19.94 16.0894C19.94 16.0894 19.3903 27.167 19.2603 28.9126C19.3263 36.2407 19.5059 39.2607 17.5205 42.8055C18.5543 43.8407 19.4888 43.2292 20.4062 42.3216H20.4059Z" fill="#89A829"/>
<path fill-rule="evenodd" clip-rule="evenodd" d="M20.8559 8.88491C19.803 8.40276 18.4252 8.51048 17.9181 9.30944C17.4111 10.1084 18.671 11.3909 18.671 11.3909C18.671 11.3909 17.42 10.8222 16.7885 11.5224C16.1569 12.2226 15.4654 14.0056 16.4401 14.1431C17.4148 14.2807 18.2604 13.9621 18.2604 13.9621C18.2604 13.9621 15.161 15.2479 15.7413 16.3445C16.3217 17.4411 17.7548 17.8008 18.3748 17.1623C18.9948 16.5235 18.294 17.5929 18.294 17.5929C18.294 17.5929 16.6162 19.3 17.3004 19.8429C17.9847 20.3859 19.6023 19.7616 19.6023 19.7616C19.6023 19.7616 16.4705 22.364 17.5046 23.326C18.539 24.2883 19.5945 23.9949 20.0943 23.6144C21.279 25.0241 22.9111 23.7473 21.2465 23.1861C21.2465 23.1861 23.6915 22.7237 23.5924 21.7266C23.4937 20.7296 22.7518 20.4942 22.7518 20.4942C22.7518 20.4942 24.9132 20.0187 24.4571 19.0208C24.001 18.0229 23.2707 17.7261 23.2707 17.7261C23.2707 17.7261 26.2963 16.4525 25.2042 15.7981C24.1122 15.1436 23.375 15.2649 23.375 15.2649C23.375 15.2649 26.0573 13.1539 25.0091 13.0285C23.9608 12.9034 23.3362 13.1849 23.3362 13.1849C23.3362 13.1849 25.4492 11.8233 24.4933 11.2059C23.5371 10.5885 22.7492 10.5992 22.7492 10.5992C22.7492 10.5992 24.6066 9.45857 23.7978 8.81686C22.9892 8.17515 22.3924 8.69089 22.3924 8.69089C22.3924 8.69089 24.1227 6.00445 22.2248 6.15533C20.1024 6.32386 20.8556 8.88462 20.8556 8.88462L20.8559 8.88491Z" fill="#6BB000"/>
<path fill-rule="evenodd" clip-rule="evenodd" d="M15.5734 42.7542C10.0766 36.5905 11.2057 35.2026 10.3042 28.0155C10.0664 26.3486 10.3227 17.0488 10.3227 17.0488C10.3227 17.0488 11.4017 28.5051 11.9085 30.1807C13.4375 37.3478 15.4547 38.5325 18.495 42.599C17.7111 43.8341 16.6657 43.4408 15.5734 42.7542Z" fill="#89A829"/>
<path fill-rule="evenodd" clip-rule="evenodd" d="M7.02126 10.5764C5.52384 10.4608 3.77304 10.9684 3.34301 11.832C2.91298 12.6955 4.90414 13.4629 4.90414 13.4629C4.90414 13.4629 3.12611 13.3294 2.50757 14.1422C1.88874 14.9551 1.49809 16.7514 2.79686 16.5828C4.09563 16.4143 5.09903 15.878 5.09903 15.878C5.09903 15.878 1.45524 17.9496 2.5151 18.7538C3.57525 19.5583 5.52934 19.4511 6.15078 18.6968C6.77193 17.9424 6.16787 19.1048 6.16787 19.1048C6.16787 19.1048 4.48077 21.1278 5.51863 21.4075C6.55648 21.6873 8.47177 20.6477 8.47177 20.6477C8.47177 20.6477 5.15781 23.9031 6.76672 24.4519C8.37563 25.0009 9.65731 24.4244 10.1965 23.9359C10.4172 24.3473 11.1014 23.2319 11.5651 23.2102C11.5651 23.2102 14.5952 22.0678 14.1858 21.2086C13.7766 20.3491 12.7509 20.3607 12.7509 20.3607C12.7509 20.3607 15.411 19.2916 14.5396 18.5381C13.6683 17.7846 12.6403 17.738 12.6403 17.738C12.6403 17.738 16.1923 15.6993 14.5955 15.4416C12.9988 15.1842 12.0799 15.5125 12.0799 15.5125C12.0799 15.5125 14.9517 12.8293 13.5611 13.0308C12.1703 13.2321 11.4426 13.6696 11.4426 13.6696C11.4426 13.6696 13.7902 11.8247 12.3797 11.5598C10.9691 11.2948 9.95355 11.5395 9.95355 11.5395C9.95355 11.5395 12.0327 9.96794 10.8061 9.63724C9.57941 9.30654 8.95334 9.94449 8.95334 9.94449C8.95334 9.94449 10.4317 7.03305 8.0206 7.73383C5.32432 8.51772 7.02097 10.5761 7.02097 10.5761L7.02126 10.5764Z" fill="#6BB000"/>
<path fill-rule="evenodd" clip-rule="evenodd" d="M5.74836 48.4564C9.12024 49.624 12.2526 49.6633 15.8727 49.5359C12.7843 50.6253 8.53905 50.3242 5.16602 49.2695C5.35106 48.9921 5.54537 48.721 5.74836 48.4564Z" fill="#C579A7"/>
<path fill-rule="evenodd" clip-rule="evenodd" d="M32.7963 51.9238C29.2628 53.7256 25.9428 54.0959 22.0381 54.3262C25.3877 55.1636 29.8727 54.3415 33.1953 52.8264C33.0992 52.5337 32.9952 52.2441 32.8814 51.9594L32.7963 51.9241V51.9238Z" fill="#C579A7"/>
<path fill-rule="evenodd" clip-rule="evenodd" d="M2.71096 56.6828C7.51278 58.2378 11.8904 58.1527 16.9603 57.8046C12.9085 59.3877 7.30776 59.2308 2.71646 58.0444L2.70661 57.9888C2.70227 57.8779 2.69648 57.7681 2.69445 57.6558C2.68866 57.3291 2.69532 57.0048 2.71096 56.6831V56.6828Z" fill="#C579A7"/>
<path fill-rule="evenodd" clip-rule="evenodd" d="M3.65556 62.501C7.05784 70.9203 18.3147 73.3626 18.3906 77.7286C18.4192 79.3772 17.5224 80.4921 17.7405 82.5041C17.9585 84.5158 18.3376 85.2421 18.5432 86.5214C18.7485 87.8005 18.9414 88.3469 18.9414 88.3469C18.9414 88.3469 19.0769 85.5962 18.489 83.4076C17.9015 81.2189 18.6214 80.4735 18.9622 79.0019C19.303 77.5302 18.6515 76.6768 19.4965 75.4655C23.0621 70.3527 30.7756 69.6566 33.1861 62.4784C31.8236 61.7846 30.5179 60.0691 29.1166 60.0691C27.3603 60.0691 25.4543 62.7645 23.698 62.7645C21.9417 62.7645 20.3351 60.0691 18.5788 60.0691C16.8225 60.0691 14.9165 62.7645 13.1602 62.7645C11.4039 62.7645 9.79727 60.0691 8.04097 60.0691C6.62405 60.0691 5.10984 61.8231 3.65527 62.5013L3.65556 62.501Z" fill="#ECD8BD"/>
<path fill-rule="evenodd" clip-rule="evenodd" d="M32.8739 63.302C28.4016 65.0357 24.1685 65.2743 19.2764 65.3195C22.9981 66.4492 27.8462 66.0956 32.037 64.9074C32.3486 64.4125 32.6301 63.8806 32.8739 63.302Z" fill="#F9EAD7"/>
<path fill-rule="evenodd" clip-rule="evenodd" d="M7.34961 67.7859C9.63092 68.4282 11.7605 68.3827 14.1991 68.2202C12.5108 68.8758 10.3059 68.9482 8.27077 68.6303C7.95773 68.3578 7.6499 68.0769 7.34961 67.7859Z" fill="#F9EAD7"/>
<path fill-rule="evenodd" clip-rule="evenodd" d="M24.3637 71.2501C22.6358 71.7111 20.9081 71.8186 18.9824 71.8715C20.2097 72.2196 21.6645 72.2555 23.1153 72.069C23.523 71.7887 23.9406 71.5174 24.3637 71.2501Z" fill="#F9EAD7"/>
</g>
<defs>
<clipPath id="clip0_226_171274">
<rect width="36.2621" height="92" fill="white" transform="translate(0.113281)"/>
</clipPath>
</defs>
</svg>
