<svg width="44" height="44" viewBox="0 0 44 44" fill="none" xmlns="http://www.w3.org/2000/svg">
<path d="M11.001 27C11.1977 27.0003 11.3901 26.9422 11.5537 26.833L23.71 18.748L26.16 22.543C26.2318 22.654 26.325 22.7496 26.434 22.8243C26.543 22.8991 26.6657 22.9515 26.7951 22.9786C26.9245 23.0056 27.058 23.0068 27.1878 22.982C27.3177 22.9572 27.4413 22.9069 27.5516 22.834L36.115 17.171L37.9822 19.6494C38.0754 19.7732 38.1961 19.8736 38.3347 19.9427C38.4733 20.0119 38.6262 20.0479 38.7811 20.0479C38.8208 20.048 38.8605 20.0457 38.9 20.041C39.0741 20.0201 39.2397 19.9538 39.3801 19.8488C39.5205 19.7437 39.6308 19.6036 39.7 19.4424L42.9187 11.9551C42.9882 11.7932 43.0137 11.6158 42.9926 11.4409C42.9716 11.266 42.9047 11.0997 42.7987 10.959C42.6919 10.819 42.5504 10.7093 42.3882 10.6407C42.226 10.5722 42.0487 10.5473 41.8739 10.5684L33.789 11.5967C33.6153 11.6189 33.4504 11.6863 33.3109 11.7921C33.1714 11.898 33.0622 12.0386 32.9941 12.2C32.9259 12.3613 32.9014 12.5377 32.9228 12.7115C32.9442 12.8853 33.0108 13.0504 33.1161 13.1904L34.9093 15.5704L27.292 20.6084L24.84 16.8115C24.7682 16.7002 24.6751 16.6044 24.5659 16.5294C24.4568 16.4545 24.3339 16.402 24.2043 16.375C23.9422 16.3221 23.6699 16.3747 23.4465 16.5215L10.4465 25.167C10.2675 25.2859 10.1316 25.4593 10.0588 25.6614C9.98606 25.8636 9.98038 26.0839 10.0426 26.2895C10.1048 26.4952 10.2316 26.6754 10.4042 26.8033C10.5769 26.9313 10.7861 27.0003 11.001 27ZM40.39 12.7734L38.543 17.07L35.751 13.363L40.39 12.7734Z" fill="#94E8B4"/>
<path d="M41 38H6V1C6 0.734784 5.89464 0.48043 5.70711 0.292893C5.51957 0.105357 5.26522 0 5 0C4.73478 0 4.48043 0.105357 4.29289 0.292893C4.10536 0.48043 4 0.734784 4 1V38H3C2.20435 38 1.44129 38.3161 0.87868 38.8787C0.316071 39.4413 0 40.2043 0 41C0 41.7957 0.316071 42.5587 0.87868 43.1213C1.44129 43.6839 2.20435 44 3 44H41C41.7957 44 42.5587 43.6839 43.1213 43.1213C43.6839 42.5587 44 41.7957 44 41C44 40.2043 43.6839 39.4413 43.1213 38.8787C42.5587 38.3161 41.7957 38 41 38ZM41 42H3C2.73478 42 2.48043 41.8946 2.29289 41.7071C2.10536 41.5196 2 41.2652 2 41C2 40.7348 2.10536 40.4804 2.29289 40.2929C2.48043 40.1054 2.73478 40 3 40H41C41.2652 40 41.5196 40.1054 41.7071 40.2929C41.8946 40.4804 42 40.7348 42 41C42 41.2652 41.8946 41.5196 41.7071 41.7071C41.5196 41.8946 41.2652 42 41 42Z" fill="#94E8B4"/>
</svg>
