<svg width="99" height="92" viewBox="0 0 99 92" fill="none" xmlns="http://www.w3.org/2000/svg">
<g clip-path="url(#clip0_156_45153)">
<path d="M66.0305 45.7278C63.3856 47.0243 59.9888 48.2948 55.9307 48.9431C43.6269 50.9138 33.7475 45.7796 30.0395 43.5885C29.3394 40.6066 28.6393 37.6246 27.9392 34.6426C27.1742 40.6584 26.0074 47.2317 24.2052 54.2069C20.2639 69.5705 14.5463 82.2373 9.12687 92C6.30049 90.8202 3.47411 89.6274 0.634766 88.4476C1.91831 81.1483 3.61673 73.3174 5.85968 65.0457C7.5581 58.7706 9.39914 52.8715 11.305 47.3743C14.1055 32.1145 14.9871 24.5429 15.3242 20.4589C15.4409 19.0587 15.6483 17.0231 16.0113 14.5598C16.8151 9.15335 17.2171 6.45662 18.5395 4.57669C19.1878 3.65617 21.5993 0.622348 28.0947 -0.0129395C32.1009 4.58965 40.1652 12.5502 52.871 17.4251C60.4685 20.3422 67.34 21.2368 72.3056 21.4572C72.2148 24.7892 71.7999 29.0028 70.5812 33.7351C69.3236 38.6618 67.5863 42.681 66.0175 45.7148L66.0305 45.7278Z" fill="#FFA600"/>
<path d="M88.8616 46C91.2083 54.168 92.6344 55.5163 94.7866 62.8675C96.0831 67.2756 97.5222 73.46 98.1575 81.226C95.5515 82.6003 92.9585 83.9746 90.3526 85.3619C87.8892 79.7091 85.4388 73.9526 83.0143 68.0794C80.3046 61.5191 77.6987 55.0366 75.2094 48.6578C73.122 39.5174 71.0346 30.3901 68.9473 21.2497C72.4608 16.7508 75.9743 12.2519 79.5008 7.74011C82.3402 16.2711 84.0904 23.363 85.1536 28.3156C86.9946 36.8337 86.852 39.0118 88.8616 46.0129V46Z" fill="#FFA600"/>
<path d="M28.1988 34.2796C27.8617 32.2441 27.2783 30.6105 26.5004 28.7176C25.4891 26.2672 25.0223 23.6612 24.8538 21.0293C24.8279 20.6533 24.2444 20.6533 24.2704 21.0293C24.426 23.4408 24.8149 25.6189 25.5669 27.9267C25.9818 29.1973 26.7856 30.3641 27.1097 31.6477C27.3301 32.5423 27.4727 33.5406 27.6283 34.4481C27.6931 34.8112 28.2506 34.6556 28.1858 34.2926L28.1988 34.2796Z" fill="#00030A"/>
<path d="M25.5013 19.305C25.6699 20.6663 25.7865 22.0147 25.9292 23.376C25.968 23.752 26.5515 23.752 26.5126 23.376C26.37 22.0147 26.2533 20.6533 26.0847 19.305C26.0329 18.942 25.4494 18.929 25.5013 19.305Z" fill="#00030A"/>
<path d="M71.3071 30.5327C71.735 28.1472 71.9943 25.6449 72.0591 23.2334C72.0591 22.8574 71.4887 22.8574 71.4757 23.2334C71.4109 25.5801 71.1516 28.0694 70.7367 30.3771C70.6719 30.7402 71.2294 30.8958 71.2942 30.5327H71.3071Z" fill="#00030A"/>
<path d="M11.3695 48.4115C11.3177 49.0987 11.7455 49.6821 12.0956 50.2396C12.29 50.5507 12.7957 50.2655 12.6012 49.9414C12.303 49.4746 11.9141 48.982 11.953 48.4115C11.9789 48.0355 11.3955 48.0355 11.3695 48.4115Z" fill="#00030A"/>
<path d="M88.0321 46.8817C87.9154 47.128 87.8247 47.3743 87.7728 47.6336C87.708 47.9966 88.2655 48.1522 88.3303 47.7892C88.3692 47.5688 88.434 47.3614 88.5248 47.1669C88.6933 46.8298 88.1877 46.5316 88.0192 46.8687L88.0321 46.8817Z" fill="#00030A"/>
</g>
<defs>
<clipPath id="clip0_156_45153">
<rect width="97.4972" height="92" fill="white" transform="translate(0.647461)"/>
</clipPath>
</defs>
</svg>
