<svg width="79" height="92" viewBox="0 0 79 92" fill="none" xmlns="http://www.w3.org/2000/svg">
<g clip-path="url(#clip0_156_29702)">
<path d="M31.5549 6.48609L26.085 7.99874L29.9204 86.3381C36.0834 88.1223 42.7147 88.0521 49.7628 86.3381L53.0317 7.99874L47.5852 6.48609C42.6679 2.35089 37.3619 1.97624 31.5502 6.48609H31.5549Z" fill="#344D66"/>
<path d="M26.0896 7.9987C26.0896 7.9987 18.0534 9.59565 14.4521 12.5367C10.8554 15.4683 0.983398 73.4641 0.983398 73.4641C3.55912 75.0376 6.88414 75.7542 10.64 75.9743C13.4171 60.726 16.7515 46.7703 20.8773 34.6457C21.7343 53.1206 18.3999 70.2047 17.5944 84.6615C22.1745 88.881 27.4103 91.4426 33.4281 91.9999L37.3853 39.4693C35.9617 26.1692 32.2526 15.6088 26.0896 7.99402V7.9987Z" fill="#416080"/>
<mask id="mask0_156_29702" style="mask-type:luminance" maskUnits="userSpaceOnUse" x="0" y="7" width="38" height="85">
<path d="M26.0896 7.9987C26.0896 7.9987 18.0534 9.59565 14.4521 12.5367C10.8554 15.4683 0.983398 73.4641 0.983398 73.4641C3.55912 75.0376 6.88414 75.7542 10.64 75.9743C13.4171 60.726 16.7515 46.7703 20.8773 34.6457C21.7343 53.1206 18.3999 70.2047 17.5944 84.6615C22.1745 88.881 27.4103 91.4426 33.4281 91.9999L37.3853 39.4693C35.9617 26.1692 32.2526 15.6088 26.0896 7.99402V7.9987Z" fill="white"/>
</mask>
<g mask="url(#mask0_156_29702)">
<g style="mix-blend-mode:multiply" opacity="0.2">
<path d="M20.0767 28.9884C20.1189 35.8024 15.904 45.932 15.4404 46.3207C14.9768 46.7094 13.5531 45.1405 13.2628 45.3372C12.9724 45.5339 13.984 47.1824 14.6958 47.9645C14.2322 48.0862 13.6234 47.5851 13.3939 47.9036C13.1597 48.2267 14.1619 50.4325 13.5953 54.9142C12.7944 61.2833 10.1532 73.7544 9.2821 74.4101C8.41104 75.0657 3.76069 74.4475 0.988281 73.4594L10.3358 79.7535L13.4126 76.8313L20.8775 36.9498C20.8541 34.1165 20.8213 31.6719 20.0767 28.9838V28.9884Z" fill="#3A5773"/>
</g>
<g style="mix-blend-mode:multiply" opacity="0.5">
<path d="M24.736 61.4706L19.1865 60.2248L20.8116 57.9629L24.736 61.4706Z" fill="#3A5773"/>
</g>
</g>
<path d="M53.032 7.9987C53.032 7.9987 61.0683 9.59565 64.6696 12.5367C66.4679 14.0072 69.8351 29.2367 72.7527 44.1009C75.6703 58.9652 78.1383 73.4641 78.1383 73.4641C75.5625 75.0376 72.2375 75.7542 68.4817 75.9743C65.7046 60.726 62.3702 46.7703 58.2443 34.6457C57.3873 53.1206 60.7217 70.2047 61.5272 84.6615C56.9471 88.881 51.7114 91.4426 45.6936 91.9999L41.7363 39.4693C42.4856 29.6863 46.5318 19.1305 53.032 7.99402V7.9987Z" fill="#416080"/>
<mask id="mask1_156_29702" style="mask-type:luminance" maskUnits="userSpaceOnUse" x="41" y="7" width="38" height="85">
<path d="M53.032 7.9987C53.032 7.9987 61.0683 9.59565 64.6696 12.5367C66.4679 14.0072 69.8351 29.2367 72.7527 44.1009C75.6703 58.9652 78.1383 73.4641 78.1383 73.4641C75.5625 75.0376 72.2375 75.7542 68.4817 75.9743C65.7046 60.726 62.3702 46.7703 58.2443 34.6457C57.3873 53.1206 60.7217 70.2047 61.5272 84.6615C56.9471 88.881 51.7114 91.4426 45.6936 91.9999L41.7363 39.4693C42.4856 29.6863 46.5318 19.1305 53.032 7.99402V7.9987Z" fill="white"/>
</mask>
<g mask="url(#mask1_156_29702)">
<g style="mix-blend-mode:multiply" opacity="0.2">
<path d="M59.0459 28.9884C59.0038 35.8024 63.2186 45.932 63.6822 46.3207C64.1459 46.7094 65.5695 45.1405 65.8599 45.3372C66.1502 45.5339 65.1387 47.1824 64.4268 47.9645C64.8905 48.0862 65.4993 47.5851 65.7288 47.9036C65.9629 48.2267 64.9607 50.4325 65.5274 54.9142C66.3282 61.2833 68.9695 73.7544 69.8405 74.4101C70.7116 75.0657 75.3619 74.4475 78.1344 73.4594L68.7868 79.7535L65.71 76.8313L58.2451 36.9498C58.2685 34.1165 58.3013 31.6719 59.0459 28.9838V28.9884Z" fill="#3A5773"/>
</g>
<g style="mix-blend-mode:multiply" opacity="0.5">
<path d="M54.3857 61.4706L59.9399 60.2248L58.3102 57.9629L54.3857 61.4706Z" fill="#3A5773"/>
</g>
</g>
<path d="M54.3855 61.4707L59.3777 59.6817C59.8319 59.5178 60.1129 59.0167 60.0333 58.4969L59.5463 55.2937C59.4479 54.6521 58.8532 54.2587 58.2912 54.4601L53.299 56.249C52.8447 56.4129 52.5637 56.914 52.6433 57.4338L53.1304 60.6371C53.2287 61.2787 53.8235 61.6721 54.3855 61.4707Z" fill="#537DA6"/>
<path d="M24.7365 61.4707L19.7443 59.6817C19.29 59.5178 19.009 59.0167 19.0886 58.4969L19.5757 55.2937C19.674 54.6521 20.2688 54.2587 20.8308 54.4601L25.823 56.249C26.2772 56.4129 26.5582 56.914 26.4786 57.4338L25.9916 60.6371C25.8932 61.2787 25.2985 61.6721 24.7365 61.4707Z" fill="#537DA6"/>
<path d="M35.4937 38.2892C35.4937 39.2165 34.7444 39.9658 33.8172 39.9658C32.8899 39.9658 32.1406 39.2165 32.1406 38.2892C32.1406 37.362 32.8899 36.6127 33.8172 36.6127C34.7444 36.6127 35.4937 37.362 35.4937 38.2892Z" fill="#273A4D"/>
<path d="M33.3484 48.3346C34.2744 48.3346 35.025 47.5839 35.025 46.658C35.025 45.7321 34.2744 44.9814 33.3484 44.9814C32.4225 44.9814 31.6719 45.7321 31.6719 46.658C31.6719 47.5839 32.4225 48.3346 33.3484 48.3346Z" fill="#273A4D"/>
<path d="M32.6228 55.7058C33.5488 55.7058 34.2994 54.9552 34.2994 54.0292C34.2994 53.1033 33.5488 52.3527 32.6228 52.3527C31.6969 52.3527 30.9463 53.1033 30.9463 54.0292C30.9463 54.9552 31.6969 55.7058 32.6228 55.7058Z" fill="#273A4D"/>
<path d="M58.249 34.6457C58.2818 32.8942 58.441 31.1428 58.6846 29.4053C58.9234 27.6679 59.2793 25.9445 59.7102 24.2398C60.1504 22.5398 60.6749 20.8586 61.3024 19.2195C61.6209 18.4 61.9534 17.5898 62.3046 16.7843C62.6746 15.9882 63.0445 15.1967 63.4567 14.4193C63.3021 14.8314 63.1429 15.2389 62.979 15.6416L62.52 16.8686L62.0705 18.1002L61.649 19.3366C61.101 20.9944 60.6 22.6616 60.1691 24.3522C59.7289 26.0381 59.3683 27.7428 59.0452 29.4568C58.7267 31.1709 58.4832 32.9036 58.2584 34.641L58.249 34.6457Z" fill="#2D4459"/>
<path d="M20.8731 34.6457C20.6483 32.9082 20.4001 31.1802 20.0863 29.4615C19.7632 27.7474 19.4026 26.0428 18.9624 24.3569C18.5362 22.6663 18.0304 20.9991 17.4825 19.3412L17.061 18.1049L16.6114 16.8732L16.1525 15.6462C15.9886 15.2435 15.8293 14.8314 15.6748 14.424C16.0869 15.1967 16.4569 15.9928 16.8269 16.7889C17.1781 17.5944 17.5106 18.4046 17.829 19.2242C18.4566 20.8632 18.9811 22.5445 19.4213 24.2445C19.8522 25.9491 20.2081 27.6725 20.4469 29.41C20.6904 31.1474 20.8497 32.8989 20.8824 34.6504L20.8731 34.6457Z" fill="#2D4459"/>
<path d="M47.5903 6.48611C42.4389 4.14923 37.072 4.42553 31.5553 6.48611C30.9793 4.09303 31.2883 2.1027 33.3208 0.899139C37.8588 -0.398086 41.3898 -0.192029 45.8201 0.899139C47.6793 2.28534 48.171 4.18201 47.5856 6.48611H47.5903Z" fill="#406080"/>
<path d="M33.3208 0.89917C22.6761 4.22419 23.1163 13.2814 20.0723 17.7444C28.7829 21.3691 35.1613 29.9861 37.3811 39.4741C38.7298 22.9614 27.1813 11.0616 33.3161 0.903853L33.3208 0.89917Z" fill="#537DA6"/>
<path d="M45.8017 0.89917C56.4465 4.22419 56.0063 13.2814 59.0503 17.7444C50.3397 21.3691 43.9613 29.9861 41.7415 39.4741C40.3927 22.9614 51.9413 11.0616 45.8064 0.903853L45.8017 0.89917Z" fill="#537DA6"/>
</g>
<defs>
<clipPath id="clip0_156_29702">
<rect width="77.1545" height="92" fill="white" transform="translate(0.983398)"/>
</clipPath>
</defs>
</svg>
