<svg width="44" height="92" viewBox="0 0 44 92" fill="none" xmlns="http://www.w3.org/2000/svg">
<g clip-path="url(#clip0_156_68998)">
<path d="M7.60433 14.0254C8.87351 17.0212 10.2329 21.4859 9.5822 26.64C9.05391 30.8083 7.48836 33.2952 6.31581 35.7627C3.11385 42.4887 3.24914 49.9815 3.52618 64.954C3.65503 72.1246 4.22197 76.4282 3.64214 85.3576C3.46175 88.1151 3.23626 90.37 3.0752 91.8582C8.20349 92.3092 11.9531 91.6069 14.4528 90.8596C16.611 90.2153 18.1895 89.5131 20.6119 89.7966C23.685 90.1574 23.8847 91.8195 26.3909 91.8518C29.4575 91.884 29.8119 89.3971 33.001 89.3456C35.5071 89.3069 36.2416 90.8467 39.2309 90.7887C40.8996 90.7565 42.2332 90.254 43.0578 89.861C42.7486 88.9655 42.2976 87.6061 41.8337 85.931C39.3727 77.0725 39.6948 70.9778 39.3791 65.4758C38.9861 58.5436 37.5172 53.0095 34.3281 42.0249C31.6094 32.6574 29.8699 29.8291 29.7281 22.9162C29.6508 19.1666 30.1082 17.3627 28.8906 15.5459C25.7724 10.8815 15.664 12.1893 7.61077 14.0254H7.60433Z" fill="#00030A"/>
<path d="M18.7495 21.6277C18.5949 21.6277 18.4338 21.6277 18.2792 21.6277C14.6005 21.5247 11.3921 20.2748 9.49151 18.1874C7.50075 16.0034 6.94025 13.2202 6.9338 13.188C6.65033 11.7255 6.70187 10.1728 7.08842 8.70393C7.08842 8.70393 7.08842 8.69749 7.09487 8.69104C7.7198 8.18852 10.0069 6.57788 13.1573 6.97732C16.3142 7.37676 18.1246 9.50925 18.6271 10.1922C19.4324 9.35463 20.3472 8.67172 21.3523 8.15631C25.1405 6.19777 29.1156 7.20925 30.6425 7.73754C30.6425 7.73754 30.6554 7.73754 30.6554 7.75043C31.422 8.99384 31.8215 10.3017 31.8344 11.6417C31.8795 14.9275 29.5537 17.2146 28.787 17.9684C26.429 20.2877 22.7052 21.6471 18.743 21.6471L18.7495 21.6277ZM7.13352 8.71681C6.75341 10.1793 6.70187 11.7255 6.9789 13.1751C6.9789 13.2008 7.5394 15.9712 9.52372 18.1487C11.4178 20.2297 14.6069 21.4731 18.2792 21.5762C22.396 21.6922 26.3131 20.3199 28.7548 17.9233C29.515 17.1759 31.8344 14.8952 31.7893 11.6353C31.7699 10.3081 31.3769 9.01317 30.6167 7.7762C29.0834 7.25435 25.1405 6.24931 21.3716 8.19496C20.3666 8.71037 19.4517 9.39973 18.64 10.2437C18.64 10.2437 18.6271 10.2501 18.6206 10.2501C18.6142 10.2501 18.6078 10.2501 18.6013 10.2373C18.1246 9.58656 16.3206 7.42186 13.1444 7.01597C10.0262 6.62298 7.75845 8.20785 7.12708 8.71681H7.13352Z" fill="white"/>
<path d="M7.11406 8.70397C7.5135 8.38184 9.84571 6.57148 13.1572 6.99669C16.5202 7.4219 18.3306 9.81854 18.6269 10.2244C19.2905 9.53506 20.186 8.78128 21.365 8.16924C25.3788 6.09473 29.5213 7.37036 30.6359 7.75047C31.1062 8.51069 31.7891 9.87652 31.8149 11.6289C31.86 14.9017 29.56 17.1631 28.774 17.9362C23.8325 22.7939 13.7177 22.7874 9.5107 18.1617C7.50062 15.9583 6.95944 13.1751 6.95944 13.1751C6.58577 11.2359 6.87569 9.61882 7.11406 8.69753V8.70397Z" fill="#00030A"/>
<path d="M10.6255 9.17423C10.0714 6.11401 9.52378 3.05378 8.96972 0C7.96468 0.0966387 5.27168 0.508964 3.21005 2.68011C0.562155 5.47619 0.0660766 10.0569 2.05039 14.135C1.72182 14.6891 1.37392 15.488 1.67672 16.1C2.08905 16.9311 3.48064 16.9762 5.60669 17.0148C7.88736 17.0535 9.02126 17.0793 9.71061 16.6154C11.3341 15.5266 11.6498 12.4857 10.6255 9.17423Z" fill="#00030A"/>
<path d="M28.2652 9.32879C28.3811 6.22347 28.4907 3.11815 28.6066 0.0128277C29.6117 -0.0322704 32.3433 -0.00650007 34.682 1.8554C37.7035 4.25204 38.8439 8.71031 37.4587 13.0333C37.8646 13.5358 38.3156 14.2767 38.103 14.9274C37.8131 15.81 36.4408 16.0484 34.3405 16.3834C32.0921 16.7442 30.9646 16.931 30.2237 16.5703C28.4649 15.7198 27.7176 12.7562 28.2716 9.33524L28.2652 9.32879Z" fill="#00030A"/>
<path d="M9.39491 17.4529C10.8445 18.6061 13.0414 18.793 14.7874 18.4257C15.7409 18.226 16.7459 17.833 17.5705 17.3047C18.1761 16.9117 19.0137 16.6218 19.4647 16.0356C19.5226 15.9647 19.3938 15.8874 19.3423 15.9647C18.917 16.5123 18.0731 16.8087 17.4997 17.1823C16.8168 17.6269 16.0243 17.9361 15.2383 18.1616C13.428 18.6834 11.0249 18.5739 9.498 17.3563C9.42713 17.2983 9.32405 17.4014 9.39491 17.4594V17.4529Z" fill="white"/>
<path d="M20.2116 16.4286C21.513 16.9375 23.1301 17.2661 24.5217 17.3499C25.4108 17.4014 26.2934 17.2983 27.1825 17.2661C27.7301 17.2468 28.1296 17.1952 28.587 16.886C28.6643 16.8344 28.587 16.7056 28.5161 16.7636C27.8783 17.1952 27.1181 17.1308 26.3707 17.1823C25.5912 17.2339 24.8116 17.2661 24.0385 17.163C22.8016 17.002 21.41 16.7507 20.2503 16.2997C20.1601 16.2675 20.1279 16.4028 20.2116 16.4414V16.4286Z" fill="white"/>
<path d="M8.62822 16.3899C8.10637 16.0742 7.74559 14.7728 7.70049 14.2574C7.64251 13.568 7.79069 12.7756 7.89377 12.0927C8.09993 10.7397 8.89237 9.72179 9.382 8.49126C9.41421 8.40751 9.27892 8.36885 9.24027 8.45261C8.92458 9.2386 8.44139 9.94084 8.11926 10.7333C7.80357 11.5064 7.72626 12.2537 7.64251 13.0784C7.5652 13.8322 7.50721 14.4442 7.79069 15.1593C7.95175 15.5717 8.14503 16.2675 8.55091 16.5187C8.62822 16.5703 8.70553 16.4414 8.62178 16.3963L8.62822 16.3899Z" fill="white"/>
<path d="M29.7915 16.319C29.959 15.5395 30.2489 14.8308 30.2554 14.0255C30.2554 13.2974 30.2618 12.5179 30.1652 11.7963C30.075 11.1263 29.9268 10.4627 29.6627 9.83779C29.4179 9.27084 28.9475 8.79409 28.7285 8.22714C28.6963 8.14339 28.5545 8.1756 28.5868 8.2658C28.7221 8.62658 28.9991 8.93582 29.1988 9.2644C29.624 9.95375 29.8431 10.7204 29.9784 11.5129C30.1008 12.2473 30.0814 12.9946 30.1008 13.742C30.1265 14.6439 29.8366 15.4171 29.6562 16.2868C29.6369 16.377 29.7786 16.4157 29.798 16.3255L29.7915 16.319Z" fill="white"/>
<path d="M19.1614 15.591C19.0583 17.0728 17.5894 18.4193 17.7633 19.9333C17.86 20.7451 18.4656 20.919 18.8457 20.1717C19.1614 19.5596 19.2193 18.8058 19.2709 18.1358C19.3095 17.6397 19.3224 17.1437 19.3868 16.6476C19.4642 16.0484 19.5608 15.9711 19.7605 16.5638C20.2179 17.9168 20.8235 19.3857 21.7835 20.4616C21.7964 20.4809 21.8286 20.4873 21.8544 20.4809C22.7434 20.1717 20.044 15.8873 19.5093 15.6619C19.4255 15.6296 19.3868 15.7649 19.4706 15.8036C19.9409 15.9969 20.1922 16.7378 20.4305 17.1501C20.6238 17.4787 20.8235 17.8008 21.0233 18.1229C21.281 18.5352 21.5838 18.9476 21.7191 19.4179C21.8415 19.8431 21.9639 20.5002 21.5258 19.8495C20.9911 19.0571 20.5401 18.226 20.1922 17.3369C19.9925 16.828 19.9216 16.1451 19.5737 15.7198C19.5415 15.6812 19.4835 15.6941 19.4577 15.7327C19.2129 16.1837 19.2193 16.7958 19.1807 17.2918C19.1485 17.7428 19.142 18.1938 19.084 18.6383C19.0518 18.9669 18.9874 19.289 18.9037 19.6112C18.8972 19.9333 18.7233 20.0815 18.3754 20.0493C17.86 20.3327 17.7118 20.1266 17.9308 19.4179C17.9824 19.2117 18.0468 19.012 18.1177 18.8123C18.253 18.4128 18.4333 18.0263 18.5944 17.6397C18.8586 16.9955 19.2516 16.2997 19.3031 15.5974C19.3031 15.5072 19.1614 15.5072 19.1549 15.5974L19.1614 15.591Z" fill="white"/>
<path d="M19.3609 16.2482C19.3287 19.3728 20.6366 22.3751 19.9794 25.4997C19.3481 28.5213 19.1032 31.414 19.7282 34.4614C19.7475 34.5451 19.8635 34.5193 19.8699 34.442C19.8699 34.4291 19.8699 34.4163 19.8699 34.4034C19.8828 34.3132 19.7346 34.3132 19.7282 34.4034C19.8377 33.4821 19.4962 32.4835 19.4511 31.5493C19.4189 30.8149 19.4511 30.0868 19.5091 29.3524C19.6509 27.716 20.0954 26.1569 20.308 24.5398C20.6752 21.7824 19.4769 19.0056 19.5027 16.2482C19.5027 16.158 19.3609 16.158 19.3609 16.2482Z" fill="white"/>
<path d="M19.542 16.0807C20.051 17.2468 20.2249 18.6642 20.4762 19.9012C20.7081 21.0608 20.9852 22.1689 21.391 23.2835C21.8098 24.4496 21.8807 25.635 22.074 26.8463C22.2737 28.0703 22.6022 29.2622 22.7826 30.4863C22.7955 30.5765 22.9373 30.5379 22.9244 30.4477C22.744 29.2236 22.409 28.0317 22.2157 26.8076C21.9966 25.4418 21.8871 24.237 21.4168 22.9292C20.6115 20.7 20.6179 18.1745 19.6709 16.0098C19.6322 15.9261 19.5098 15.997 19.5485 16.0807H19.542Z" fill="white"/>
<path d="M18.5621 10.4628C18.5428 10.8493 18.7038 11.2681 18.7425 11.6547C18.7812 12.0541 18.8649 12.4535 18.9036 12.853C18.91 12.9432 19.0582 12.9432 19.0453 12.853C19.0066 12.4535 18.9293 12.0541 18.8842 11.6547C18.8456 11.2681 18.6845 10.8429 18.7038 10.4628C18.7038 10.3726 18.5621 10.3726 18.5557 10.4628H18.5621Z" fill="white"/>
<path d="M8.59583 7.76975C8.14485 7.58292 7.72608 7.16415 7.35241 6.86135C6.9723 6.55211 6.59863 6.24931 6.18631 5.97872C6.109 5.92718 6.03813 6.04959 6.11544 6.10113C6.65662 6.45547 7.13981 6.88068 7.64877 7.28012C7.9258 7.49917 8.2286 7.76975 8.55718 7.90505C8.64093 7.9437 8.67958 7.80197 8.59583 7.76331V7.76975Z" fill="white"/>
<path d="M7.63572 8.36248C7.01723 8.42046 6.41807 8.5622 5.81891 8.70394C5.72872 8.72327 5.76737 8.865 5.85757 8.84567C6.44384 8.70394 7.03012 8.5622 7.63572 8.50422C7.72592 8.49778 7.72592 8.3496 7.63572 8.35604V8.36248Z" fill="white"/>
<path d="M29.0891 7.57643C29.5981 7.0868 30.2488 6.80333 30.5322 6.12041C30.5709 6.03666 30.4291 5.998 30.3905 6.08176C30.1199 6.73246 29.4692 7.00949 28.986 7.47335C28.9216 7.53778 29.0182 7.64086 29.0891 7.57643Z" fill="white"/>
<path d="M29.9975 8.16272C30.5 7.963 31.1249 7.97589 31.6532 7.84703C31.7434 7.82771 31.7048 7.68597 31.6146 7.7053C31.0863 7.83415 30.4678 7.81482 29.9588 8.02098C29.8751 8.0532 29.9137 8.19493 29.9975 8.16272Z" fill="white"/>
</g>
<defs>
<clipPath id="clip0_156_68998">
<rect width="42.2118" height="92" fill="white" transform="translate(0.838867)"/>
</clipPath>
</defs>
</svg>
