<svg width="71" height="92" viewBox="0 0 71 92" fill="none" xmlns="http://www.w3.org/2000/svg">
<g clip-path="url(#clip0_156_29114)">
<path d="M70.6474 24.1753C70.6474 32.063 69.1111 49.3748 68.912 60.3352C68.7342 69.745 67.5748 78.7707 66.2804 81.3383H57.468C57.091 79.1477 57.2831 75.4065 57.5391 61.8715C57.7952 48.4431 56.835 37.2196 56.5078 33.8909C58.5278 23.7414 61.9986 12.3615 61.9986 12.3615C66.9489 13.8551 70.6474 16.949 70.6474 24.1753Z" fill="#85A9D4"/>
<g style="mix-blend-mode:screen">
<path d="M58.6202 24.6305C57.8734 27.5964 57.1266 30.797 56.5078 33.8909C56.835 37.2196 57.7952 48.4431 57.5391 61.8715C57.2831 75.4065 57.091 79.1477 57.468 81.3383H59.303C60.69 62.4831 60.9602 43.5568 58.6202 24.6305Z" fill="#1C1C1C"/>
</g>
<g style="mix-blend-mode:multiply">
<path d="M57.2686 78.8774C57.297 79.9585 57.3539 80.7124 57.4677 81.3383H66.2801C66.6855 80.5275 67.0838 79.0694 67.4394 77.1704C64.4095 78.7565 60.9884 79.482 57.2757 78.8774H57.2686Z" fill="#E4EAF2"/>
</g>
<g style="mix-blend-mode:multiply">
<path d="M61.9982 12.3544C61.9982 12.3544 61.4861 14.0471 60.7393 16.693C64.388 18.0657 66.9058 21.2023 67.4961 25.2991C68.2074 39.5241 63.5914 60.8757 64.8289 66.0963C66.0594 71.2955 65.846 76.4805 65.974 81.3384H66.2799C67.5744 78.7708 68.7337 69.745 68.9115 60.3352C69.1107 49.3749 70.6469 32.0631 70.6469 24.1753C70.6469 16.949 66.9485 13.8551 61.9982 12.3544Z" fill="#F0F7FF"/>
</g>
<path d="M66.28 81.3384H67.0623C66.344 86.0966 66.2444 90.862 66.2444 90.862H57.3324C57.1262 88.6073 56.9199 81.3384 56.9199 81.3384H66.28Z" fill="#A0C0E3"/>
<path d="M56.5071 33.891C55.9026 36.9209 55.4331 39.8371 55.2198 42.3051C54.2951 53.0663 54.601 84.2972 54.601 84.2972C54.601 84.2972 53.527 88.8279 38.3205 92L36.201 71.0893V71.0609C36.1725 69.3254 36.1299 67.5189 36.073 65.6625C35.6178 50.7049 35.7031 36.1599 34.9919 27.0986C34.8283 25.0715 34.8994 23.3148 35.1199 21.7785C35.8667 16.4654 38.349 13.72 38.982 10.8608C39.1811 9.95751 39.5367 9.2107 39.9848 8.57057H39.9991C42.7516 6.50795 43.6975 12.7172 43.6975 12.7172C45.7104 10.8252 47.1044 9.07556 48.6976 7.36145L48.847 7.5037C48.847 7.5037 54.9779 10.6545 60.611 11.9846C61.0805 12.0984 61.5428 12.2193 61.998 12.3544C61.998 12.3544 58.5271 23.7415 56.5071 33.891Z" fill="#86A8C8"/>
<g style="mix-blend-mode:multiply">
<path d="M54.6009 84.2972C54.6009 84.2972 54.2951 53.0662 55.2197 42.305C55.4331 39.837 55.9025 36.9209 56.5071 33.891C57.0547 31.1527 57.702 28.3361 58.3634 25.6689C48.5695 45.4488 51.1585 64.4249 48.7402 88.8563C54.0888 86.4736 54.6009 84.3043 54.6009 84.3043V84.2972Z" fill="#E4EAF2"/>
</g>
<g style="mix-blend-mode:multiply">
<path d="M61.9979 12.3544C61.5427 12.2193 61.0804 12.0984 60.611 11.9846C54.9779 10.6545 48.8469 7.5037 48.8469 7.5037L48.6975 7.36145C47.3746 8.78395 46.1868 10.2278 44.6719 11.7641C49.1385 15.0145 55.0063 16.188 60.6323 17.0771C61.436 14.2108 61.9979 12.3615 61.9979 12.3615V12.3544Z" fill="#F0F7FF"/>
</g>
<path d="M43.1285 10.4909C42.7088 9.31731 42.0331 8.12952 41.0303 8.15797C41.6704 9.01858 42.3674 9.79384 43.1285 10.4909Z" fill="#86A8C8"/>
<g style="mix-blend-mode:multiply">
<path d="M40.4688 11.0742C41.8131 12.4184 42.311 14.6091 42.6737 16.9349C45.4333 14.2534 47.944 11.3302 50.2129 8.16516C49.3665 7.76686 48.8473 7.5037 48.8473 7.5037L48.698 7.36145C47.1048 9.07556 45.7107 10.8252 43.6979 12.7172C43.6979 12.7172 42.7519 6.50795 39.9994 8.57769H39.9852C39.5869 9.14668 39.2668 9.80814 39.0605 10.5834C39.6367 10.1709 40.1772 10.1922 40.4688 11.0742Z" fill="#E4EAF2"/>
</g>
<g style="mix-blend-mode:screen">
<path d="M44.5297 11.9063C44.2594 12.1766 43.9892 12.4397 43.6975 12.7171C43.6975 12.7171 42.7516 6.50793 39.9991 8.57767H39.9848C39.5367 9.21068 39.1811 9.95749 38.982 10.8608C38.349 13.72 35.8667 16.4654 35.1199 21.7784C34.8994 23.3147 34.8283 25.0715 34.9919 27.0986C35.7031 36.1599 35.6178 50.7049 36.073 65.6625C36.1299 67.5188 36.1725 69.3254 36.201 71.0609V71.0893L38.3205 92C39.8355 91.6871 41.2011 91.3528 42.4457 91.0185C39.4514 64.7023 39.7146 24.4172 44.5297 11.9063Z" fill="#121212"/>
</g>
<path d="M45.5615 2.29016L48.8475 7.19778C48.7977 7.25468 48.7479 7.30446 48.6981 7.36136C47.1049 9.07547 45.7109 10.8251 43.6981 12.7171C43.6981 12.7171 42.7521 6.50786 39.9996 8.5776H39.9854C40.6753 7.58185 41.5857 6.82793 42.5316 6.08823C43.4776 5.34853 44.4449 4.60883 45.2628 3.66287C45.7038 3.15077 45.7749 2.68846 45.5615 2.29016Z" fill="#A0C0E3"/>
<path d="M45.5615 2.29022C45.7749 2.68852 45.7038 3.15083 45.2628 3.66293C44.4449 4.60889 43.4776 5.34859 42.5316 6.08829C37.2115 3.69849 29.53 5.04275 27.7092 5.4126H27.7021C26.2724 4.19637 24.9282 3.10104 24.7433 2.35423C24.6935 2.14086 24.7219 1.94171 24.8357 1.75678C25.5683 0.540549 29.722 0 34.8857 0C39.6084 0 44.7507 0.718361 45.5615 2.29022Z" fill="#4F70A6"/>
<path style="mix-blend-mode:multiply" d="M45.5615 2.29022C45.7749 2.68852 45.7038 3.15083 45.2628 3.66293C44.4449 4.60889 43.4776 5.34859 42.5316 6.08829C37.2115 3.69849 29.53 5.04275 27.7092 5.4126H27.7021C26.2724 4.19637 24.9282 3.10104 24.7433 2.35423C24.6935 2.14086 24.7219 1.94171 24.8357 1.75678C25.5683 0.540549 29.722 0 34.8857 0C39.6084 0 44.7507 0.718361 45.5615 2.29022Z" fill="url(#paint0_linear_156_29114)"/>
<path d="M42.5317 6.08826C41.5857 6.82796 40.6753 7.58189 39.9854 8.57052C39.5373 9.21064 39.1817 9.95746 38.9826 10.8607C38.3495 13.72 35.8673 16.4654 35.1205 21.7784C34.4021 17.9875 33.1432 16.7001 31.7136 15.4696C30.2769 14.2392 31.7136 12.6033 31.4006 9.93612C31.3509 9.46669 31.1161 8.97593 30.7676 8.47095C30.0564 7.44675 28.8473 6.38699 27.7021 5.41969H27.7093C29.5301 5.04273 37.2115 3.69847 42.5317 6.08826Z" fill="#7293B3"/>
<path style="mix-blend-mode:multiply" d="M42.5317 6.08826C41.5857 6.82796 40.6753 7.58189 39.9854 8.57052C39.5373 9.21064 39.1817 9.95746 38.9826 10.8607C38.3495 13.72 35.8673 16.4654 35.1205 21.7784C34.4021 17.9875 33.1432 16.7001 31.7136 15.4696C30.2769 14.2392 31.7136 12.6033 31.4006 9.93612C31.3509 9.46669 31.1161 8.97593 30.7676 8.47095C30.0564 7.44675 28.8473 6.38699 27.7021 5.41969H27.7093C29.5301 5.04273 37.2115 3.69847 42.5317 6.08826Z" fill="url(#paint1_linear_156_29114)"/>
<path d="M40.5325 10.3202C40.8312 10.3202 41.073 10.562 41.073 10.8607C41.073 11.1595 40.8312 11.3942 40.5325 11.3942C40.2337 11.3942 39.999 11.1595 39.999 10.8607C39.999 10.562 40.2337 10.3202 40.5325 10.3202Z" fill="#4F70A6"/>
<path d="M38.5276 38.8982C38.8263 38.8982 39.0681 39.14 39.0681 39.4387C39.0681 39.7375 38.8263 39.9793 38.5276 39.9793C38.2289 39.9793 37.9941 39.7375 37.9941 39.4387C37.9941 39.14 38.2289 38.8982 38.5276 38.8982Z" fill="#4F70A6"/>
<path d="M38.5276 55.7263C38.8263 55.7263 39.0681 55.9681 39.0681 56.2669C39.0681 56.5656 38.8263 56.8003 38.5276 56.8003C38.2289 56.8003 37.9941 56.5585 37.9941 56.2669C37.9941 55.9753 38.2289 55.7263 38.5276 55.7263Z" fill="#4F70A6"/>
<path d="M38.5276 71.6797C38.8263 71.6797 39.0681 71.9215 39.0681 72.2202C39.0681 72.519 38.8263 72.7537 38.5276 72.7537C38.2289 72.7537 37.9941 72.519 37.9941 72.2202C37.9941 71.9215 38.2289 71.6797 38.5276 71.6797Z" fill="#4F70A6"/>
<path d="M37.9937 23.9193C38.2853 23.9193 38.5271 24.1611 38.5271 24.4599C38.5271 24.7586 38.2853 24.9933 37.9937 24.9933C37.7021 24.9933 37.4531 24.7586 37.4531 24.4599C37.4531 24.1611 37.6949 23.9193 37.9937 23.9193Z" fill="#4F70A6"/>
<path d="M36.201 71.0893C36.4215 83.2872 36.073 92 36.073 92C23.5265 89.7524 17.4169 83.4863 17.4169 83.4863C17.4169 83.4863 17.1111 63.358 15.5748 46.6081C15.2618 43.2226 14.6857 39.8512 13.9531 36.6293V36.6151C11.0797 23.8908 5.91602 13.4639 5.91602 13.4639C7.18204 12.8096 8.59742 12.3402 10.0982 11.9845C15.5961 10.6829 21.5706 7.65302 21.8551 7.50366C22.7086 8.44962 24.5294 10.5407 25.9661 12.7171C25.9661 12.7171 28.2777 7.31162 30.7599 8.47096C31.1084 8.97595 31.3431 9.46671 31.3929 9.93613C31.7059 12.6033 30.2692 14.2392 31.7059 15.4696C33.1355 16.7001 34.3944 17.9875 35.1128 21.7784C34.8923 23.3147 34.8212 25.0715 34.9847 27.0986C35.696 36.1599 35.6106 50.7049 36.0658 65.6625C36.1227 67.5188 36.1654 69.3254 36.1939 71.0608V71.0893H36.201Z" fill="#A0C0E3"/>
<path d="M19.8494 8.46387C17.5805 9.50229 13.7397 11.1168 10.0982 11.9845C8.59742 12.3402 7.18204 12.8096 5.91602 13.4639C5.91602 13.4639 11.0797 23.8908 13.9531 36.6151V36.6293C14.6857 39.8513 15.2618 43.2226 15.5748 46.6081C17.1111 63.358 17.4169 83.4864 17.4169 83.4864C17.4169 83.4864 23.5265 89.7525 36.073 92C36.073 92 36.4215 83.2872 36.201 71.0893V71.0609C36.1725 69.3254 36.1299 67.5188 36.073 65.6625C35.6178 50.7049 35.7031 36.1599 34.9919 27.0986C34.8283 25.0715 34.8994 23.3147 35.1199 21.7784C35.0203 21.2379 34.9065 20.7542 34.7785 20.3133C28.9249 17.9021 23.7115 14.3388 19.8494 8.47098V8.46387Z" fill="#A0C0E3"/>
<g style="mix-blend-mode:multiply">
<path d="M25.9732 12.7171C24.5365 10.5407 22.7157 8.44962 21.8622 7.50366C21.7697 7.55345 21.0087 7.93752 19.8564 8.46385C21.8124 11.4298 24.1168 13.8124 26.6702 15.747C27.2463 13.9405 28.1709 12.3046 29.0956 11.0741C29.7357 10.6474 30.5038 10.0926 31.3431 9.58762C31.2435 9.22488 31.0444 8.85503 30.7812 8.47096C28.299 7.31162 25.9874 12.7171 25.9874 12.7171H25.9732Z" fill="#E4EAF2"/>
</g>
<g style="mix-blend-mode:screen">
<path d="M31.4007 9.93613C31.351 9.46671 31.1163 8.97595 30.7677 8.47096C28.2855 7.31162 25.9739 12.7171 25.9739 12.7171C24.5372 10.5407 22.7164 8.44962 21.8629 7.50366C21.5784 7.65302 15.6039 10.6829 10.106 11.9845C8.60524 12.3402 7.18985 12.8096 5.92383 13.4639C5.92383 13.4639 7.14006 15.9248 8.71903 19.9078C15.8884 16.1596 23.513 13.5208 31.3723 11.8423C31.4505 11.2662 31.4861 10.6403 31.4079 9.93613H31.4007Z" fill="#242424"/>
</g>
<g style="mix-blend-mode:screen">
<path d="M22.268 58.5215C21.9053 53.5712 21.5852 48.6493 21.2652 43.7915C20.0916 35.5766 15.0489 26.878 13.3205 17.6958C11.77 18.3928 10.2337 19.1183 8.71875 19.9078C10.3973 24.1326 12.4813 30.0644 13.9607 36.615V36.6292C14.6932 39.8512 15.2693 43.2225 15.5823 46.6081C17.1186 63.358 17.4244 83.4863 17.4244 83.4863C17.4244 83.4863 19.3306 85.4209 23.1713 87.5262C22.7872 77.8461 22.6237 68.1447 22.2751 58.5215H22.268Z" fill="#242424"/>
</g>
<path d="M30.7677 8.47102C28.2854 7.31169 25.9738 12.7172 25.9738 12.7172C24.5371 10.5408 22.7163 8.44968 21.8628 7.50372C21.557 7.16232 21.3721 6.97029 21.3721 6.97029L24.843 1.75684C24.7292 1.94176 24.7007 2.14091 24.7505 2.35428C24.9354 3.1011 26.2797 4.19642 27.7093 5.41977C28.8544 6.38706 30.0635 7.44682 30.7748 8.47102H30.7677Z" fill="#C4E1FF"/>
<path d="M13.9535 36.6151V36.6294C13.548 41.5868 12.9648 51.0037 13.1711 61.8716C13.4271 75.4066 13.6121 79.1478 13.2422 81.3384H4.42984C3.13537 78.7708 1.97604 69.7451 1.79822 60.3353C1.59196 49.3749 0.0556641 32.0631 0.0556641 24.1754C0.0556641 18.3929 2.42412 15.2563 5.91635 13.464C5.91635 13.464 11.08 23.8909 13.9535 36.6151Z" fill="#85A9D4"/>
<g style="mix-blend-mode:multiply">
<path d="M3.59082 78.7068C3.85398 79.8519 4.13848 80.7623 4.43009 81.3384H13.2425C13.342 80.741 13.3989 80.0368 13.4274 79.0482C10.1912 79.4394 6.91235 79.3754 3.59082 78.7068Z" fill="#E4EAF2"/>
</g>
<g style="mix-blend-mode:multiply">
<path d="M10.9873 81.3384H13.242C13.6118 79.1478 13.4269 75.4066 13.1709 61.8715C12.9646 51.0037 13.5478 41.5867 13.9532 36.6293V36.6151C13.4838 34.5454 12.9575 32.5539 12.4027 30.6406C11.03 47.1131 9.7142 64.4463 10.9944 81.3384H10.9873Z" fill="#E4EAF2"/>
</g>
<g style="mix-blend-mode:screen">
<path d="M7.75137 66.5516C1.49239 50.9041 2.94333 34.709 8.71867 19.9008C7.1397 15.9178 5.92346 13.464 5.92346 13.464C2.42412 15.2563 0.0556641 18.3929 0.0556641 24.1754C0.0556641 32.0631 1.59196 49.3749 1.79822 60.3353C1.97603 69.7451 3.13537 78.7708 4.42984 81.3384H7.53089C7.18237 80.1862 6.79119 79.0482 6.32888 77.9315C4.90638 74.3753 8.46262 70.1078 7.75137 66.5516Z" fill="#1C1C1C"/>
</g>
<path d="M13.2425 81.3384H13.783C13.783 81.3384 13.5839 88.6073 13.3776 90.862H4.46567C4.46567 90.862 4.35899 86.0966 3.64062 81.3384H13.2425Z" fill="#A0C0E3"/>
<g style="mix-blend-mode:screen">
<path d="M4.43011 81.3384H3.64062C4.35899 86.0966 4.46567 90.862 4.46567 90.862H6.43583C6.05887 87.6756 5.75303 84.4963 5.6179 81.3384H4.43722H4.43011Z" fill="#383838"/>
</g>
<g style="mix-blend-mode:multiply">
<path d="M13.7832 81.3384H11.3223C11.3507 84.4892 11.3863 87.6685 11.3792 90.862H13.3778C13.584 88.6073 13.7832 81.3384 13.7832 81.3384Z" fill="#E4EAF2"/>
</g>
<path d="M37.4527 6.18079H32.9434V8.20784H37.4527V6.18079Z" fill="#0C0C0C"/>
<path d="M34.0029 7.63882V6.72131H34.1452V7.51791H34.323V7.63882H34.01H34.0029Z" fill="#596F85"/>
<path d="M34.7358 7.58196C34.7073 7.62463 34.6504 7.64597 34.5793 7.64597C34.5082 7.64597 34.4584 7.62463 34.4228 7.58196C34.3873 7.53928 34.373 7.46816 34.373 7.38281V6.96317C34.373 6.79247 34.4442 6.71423 34.5793 6.71423C34.6504 6.71423 34.7002 6.73557 34.7287 6.77825C34.7571 6.82092 34.7785 6.88493 34.7785 6.96317V7.38281C34.7785 7.47527 34.7642 7.53928 34.7287 7.58196H34.7358ZM34.5295 7.49661C34.5295 7.49661 34.5509 7.52506 34.5793 7.52506C34.6078 7.52506 34.622 7.51083 34.6291 7.48949C34.6362 7.46816 34.6433 7.43259 34.6433 7.37569V6.94895C34.6433 6.90627 34.6433 6.87071 34.6291 6.85648C34.622 6.83515 34.6078 6.82803 34.5793 6.82803C34.5509 6.82803 34.5366 6.83515 34.5295 6.85648C34.5224 6.87782 34.5153 6.90627 34.5153 6.94895V7.37569C34.5153 7.43259 34.5153 7.46816 34.5295 7.48949V7.49661Z" fill="#596F85"/>
<path d="M35.098 7.20496H35.0553V7.63882H34.9131V6.72131H35.1407C35.1905 6.72131 35.226 6.72843 35.2474 6.74976C35.2687 6.7711 35.2829 6.79955 35.2972 6.828C35.3043 6.86356 35.3114 6.90624 35.3114 6.96314C35.3114 7.02004 35.3114 7.06271 35.29 7.09116C35.2758 7.11961 35.2545 7.14095 35.226 7.14806C35.2545 7.14806 35.2829 7.17651 35.29 7.21208C35.3043 7.24764 35.3114 7.32588 35.3114 7.44679C35.3114 7.5677 35.3114 7.6246 35.3114 7.63882H35.1691C35.1691 7.63882 35.1691 7.52502 35.1691 7.31165C35.1691 7.26897 35.1691 7.24053 35.1549 7.23341C35.1478 7.21919 35.1265 7.21208 35.098 7.21208V7.20496ZM35.0553 7.09116H35.1122C35.1122 7.09116 35.1407 7.09116 35.1549 7.07694C35.162 7.06983 35.1691 7.0556 35.1691 7.03426C35.1691 7.01293 35.1691 6.98448 35.1691 6.94891C35.1691 6.89201 35.1691 6.86356 35.1549 6.84223C35.1407 6.82089 35.1265 6.82089 35.098 6.82089H35.0482V7.09116H35.0553Z" fill="#596F85"/>
<path d="M35.4395 7.63882V6.72131H35.7453V6.84223H35.5746V7.1125H35.7311V7.23341H35.5746V7.52502H35.7524V7.64594H35.4395V7.63882Z" fill="#596F85"/>
<path d="M35.8665 7.63882V6.72131H36.0372L36.1652 7.38989L36.2861 6.72131H36.4639V7.63882H36.343V6.98448L36.2221 7.63882H36.1083L35.9803 6.98448V7.29743V7.63882H35.8594H35.8665Z" fill="#596F85"/>
</g>
<defs>
<linearGradient id="paint0_linear_156_29114" x1="25.5612" y1="2.64584" x2="43.698" y2="3.17928" gradientUnits="userSpaceOnUse">
<stop stop-color="#B9C2C5"/>
<stop offset="0.11" stop-color="#F6F7F7"/>
<stop offset="0.26" stop-color="#FCFDFD"/>
<stop offset="0.52" stop-color="white"/>
<stop offset="0.79" stop-color="#FAFBFB"/>
<stop offset="0.93" stop-color="#E9ECED"/>
<stop offset="1" stop-color="#D3D7DA"/>
</linearGradient>
<linearGradient id="paint1_linear_156_29114" x1="34.6013" y1="19.9505" x2="35.1347" y2="5.19209" gradientUnits="userSpaceOnUse">
<stop stop-color="white"/>
<stop offset="0.35" stop-color="#EBEDEE"/>
<stop offset="0.67" stop-color="#D3D7DA"/>
<stop offset="1" stop-color="#9CA5AD"/>
</linearGradient>
<clipPath id="clip0_156_29114">
<rect width="70.5914" height="92" fill="white" transform="translate(0.0556641)"/>
</clipPath>
</defs>
</svg>
