<svg width="64" height="92" viewBox="0 0 64 92" fill="none" xmlns="http://www.w3.org/2000/svg">
<g clip-path="url(#clip0_156_27928)">
<path d="M10.5022 3.32496C10.4858 3.31218 10.4694 3.2994 10.4547 3.28662C10.431 3.30488 10.4054 3.32314 10.3799 3.3414C10.4785 3.6737 10.5844 4.00601 10.6939 4.33832C10.5899 3.86725 10.5314 3.52033 10.5022 3.32496Z" fill="#FFD69F"/>
<path d="M6.73535 70.7798C7.02019 70.6538 7.22651 70.4621 7.37988 70.1736C7.37258 70.1754 7.36528 70.1791 7.35797 70.1809C7.19182 70.4219 6.98002 70.6209 6.73535 70.7798Z" fill="#FACC7A"/>
<path d="M17.0076 15.8303C18.6071 17.8278 20.3837 19.7048 22.3757 21.317C23.3398 22.0985 24.344 22.8343 25.4012 23.4862C26.3141 24.0485 27.3037 24.4831 28.2112 25.0491C28.8301 23.9974 29.6719 23.048 30.3401 22.02C30.9901 21.0212 31.6 19.9969 32.1514 18.9471C33.1556 17.0372 34.012 15.0616 34.7259 13.0385C36.1062 9.12206 37.1744 5.11245 38.29 1.12476C38.1695 1.22335 38.0471 1.3183 37.9248 1.41507C37.419 2.74795 36.685 5.07959 35.385 8.30589C33.5318 12.9053 31.3462 20.5849 28.0834 21.6238C24.8205 22.6627 21.4062 19.3268 23.2229 17.4334C25.0396 15.5418 22.1091 16.5442 19.2169 14.8388C16.3229 13.1335 13.3559 10.7617 16.3595 10.4257C19.3302 10.0952 12.3663 9.54931 10.5404 3.35414C10.5276 3.34501 10.5167 3.33588 10.5039 3.32675C10.5331 3.52212 10.5915 3.86904 10.6956 4.34011C12.0742 8.4757 14.3072 12.4561 17.0076 15.8321V15.8303Z" fill="#FACC7A"/>
<path d="M38.5936 0.474726C38.6082 0.522199 38.6155 0.571497 38.6155 0.61897C38.6247 0.575149 38.6338 0.533154 38.6429 0.489333C38.6247 0.483856 38.6082 0.478378 38.5918 0.4729L38.5936 0.474726Z" fill="black"/>
<path d="M21.8452 21.9799C22.8641 22.818 23.945 23.5775 25.0679 24.2695C26.0849 24.8958 27.153 25.5622 28.3234 25.8361C28.4914 25.8745 28.6265 25.754 28.6703 25.6079C28.705 25.491 28.6813 25.3577 28.5681 25.2811C28.4512 25.2007 28.3307 25.1222 28.2102 25.0473C27.3046 24.4813 26.3131 24.0468 25.4002 23.4844C24.343 22.8326 23.3388 22.0949 22.3747 21.3153C20.3827 19.703 18.6061 17.8279 17.0067 15.8285C14.3044 12.4525 12.0732 8.47211 10.6947 4.33652C10.5851 4.00604 10.4792 3.67373 10.3806 3.3396C10.3514 3.36151 10.3222 3.38342 10.293 3.40533C11.2333 8.15806 13.4462 12.4598 16.3676 16.3051C17.9616 18.4048 19.8076 20.3056 21.8452 21.9781V21.9799Z" fill="black"/>
<path d="M59.7824 42.7089C58.3819 36.899 56.7624 31.1439 55.2907 25.3522C54.3851 21.7918 53.8666 18.1839 53.1946 14.5778C52.5556 11.1488 51.964 7.31813 50.0724 4.29631C49.5046 3.39068 48.6391 3.07846 47.6312 2.7352C46.2783 2.27508 44.8851 1.99389 43.5102 1.61046C42.234 1.25624 40.9412 0.951324 39.6467 0.659186C39.4349 0.611713 38.9638 0.582499 38.6443 0.48938C38.6352 0.533201 38.626 0.575196 38.6169 0.619017C38.6187 0.695703 38.6059 0.774215 38.5676 0.849076C37.6748 5.04492 36.8951 9.27546 35.4691 13.349C34.7333 15.4524 33.8733 17.5211 32.8161 19.5003C32.2629 20.5356 31.6713 21.5526 31.0286 22.5422C30.3841 23.5318 29.7377 24.6529 28.885 25.4946C28.823 25.5549 28.7481 25.5914 28.6696 25.6097C28.6258 25.7557 28.4906 25.8762 28.3227 25.8379C27.1523 25.564 26.0823 24.8976 25.0671 24.2713C23.9442 23.5793 22.8651 22.8179 21.8445 21.9817C19.8086 20.3074 17.9609 18.4084 16.3669 16.3087C13.4455 12.4616 11.2325 8.16168 10.2922 3.40894C8.58686 4.69253 6.7263 5.82091 5.15058 7.26335C3.64606 8.64005 2.70209 10.2687 2.27301 12.2735C1.7782 14.5851 1.57735 16.9861 1.36921 19.336C1.14462 21.8849 0.991251 24.4375 0.901783 26.9955C0.719197 32.212 0.843356 37.4011 1.01134 42.6158C1.17019 47.5475 1.15923 52.5065 1.55727 57.4272C1.73438 59.6365 1.93888 61.8495 1.96261 64.0679C1.9827 65.9121 2.12146 68.1579 1.33999 69.8724C1.50432 70.0476 1.67778 70.2138 1.95348 70.316C2.48116 70.5151 3.08187 70.6137 3.64424 70.6557C3.70814 70.6611 3.77753 70.6648 3.84873 70.6684C5.85354 68.6399 4.92052 68.0374 5.65999 66.0271C6.43781 63.9127 2.84085 64.99 4.35998 63.4672C5.88092 61.9463 7.43656 57.7176 8.32394 50.5218C9.21131 43.3261 8.02632 44.8105 6.28262 47.3704C4.54074 49.9302 6.13289 42.9938 8.24542 37.6896C10.358 32.3836 8.39149 29.9005 7.64837 26.2652C7.35075 24.8081 7.39274 23.4771 7.54977 22.4034C7.04765 20.1102 7.61367 17.8114 8.57225 16.3616C8.57225 16.3616 8.53756 22.1113 13.2848 25.2993C18.0339 28.4872 17.8111 29.5262 17.5902 33.6051C17.3693 37.6841 16.4545 42.0881 19.1769 46.5615C19.3686 46.8244 19.5695 47.0855 19.7776 47.3357C19.9383 47.5292 20.0844 47.7246 20.2341 47.9236C20.2834 47.9875 20.3327 48.0532 20.382 48.1171C20.3692 48.1007 20.6212 48.3983 20.5098 48.276C20.6613 48.4403 20.8165 48.5955 20.9498 48.7708C20.9863 48.8183 21.0228 48.8658 21.0594 48.9132C21.0119 48.8493 21.1927 49.0721 21.1981 49.0794C21.4191 49.3368 21.6455 49.5906 21.8664 49.8462C22.3521 50.4086 22.9071 50.9326 23.4275 51.4767C23.5079 51.5662 23.5845 51.6557 23.6594 51.747C23.6557 51.7378 23.6831 51.7671 23.7452 51.8328C23.9661 52.0574 24.1652 52.2856 24.3587 52.5248C24.6015 52.8261 24.8846 53.1365 25.0671 53.4578C25.1968 53.686 25.3264 53.9398 25.4195 54.1681C25.4761 54.3068 25.6496 55.3275 25.5455 54.7688C25.6021 55.0755 25.6551 55.3841 25.6916 55.689C25.6934 55.7073 25.6952 55.7219 25.6971 55.7365C25.7336 55.9282 25.7664 56.1181 25.7865 56.308C25.8632 57.031 25.0982 57.5861 24.2784 57.6372C23.1938 57.7048 22.1092 57.0128 21.8043 56.1272C21.6455 55.6653 21.5998 55.1686 21.5377 54.7085C21.514 54.5259 21.5158 54.546 21.5414 54.767C21.5213 54.683 21.5012 54.599 21.4775 54.5168C21.4337 54.3507 21.3606 54.179 21.2931 54.0129C21.262 53.9398 21.2401 53.865 21.2164 53.7901C21.1945 53.7536 21.0776 53.4815 21.0429 53.4085C20.8804 53.0726 20.6613 52.7585 20.455 52.4335C20.0716 51.831 19.7064 51.2248 19.3814 50.6058C17.9353 51.8145 17.4186 59.3061 17.5318 66.3904C17.645 73.4748 23.3234 81.9669 21.0594 79.8544C18.7971 77.74 16.827 69.173 16.1989 72.6221C15.6365 75.7097 16.1533 85.6789 16.8763 90.1085C17.0132 90.4608 17.1557 90.8132 17.3072 91.1638C17.3255 91.2076 17.3346 91.2496 17.3382 91.288C23.4604 90.6014 29.7085 91.2314 35.8562 90.9374C40.1032 90.7347 44.6058 90.3221 48.7012 88.8559C49.5319 87.1816 52.331 81.0193 51.9184 74.7219C51.4345 67.3417 50.8776 68.4171 49.6908 69.9016C48.504 71.386 52.2854 65.8956 48.6117 57.1808C44.9362 48.4659 48.7194 46.0156 45.9386 48.3545C43.1578 50.6916 44.0854 52.9539 42.6009 51.7689C41.1165 50.5821 45.7141 46.3515 45.0458 40.3444C44.4213 34.7335 43.8937 29.9972 44.3081 26.3145C44.1456 26.5847 43.9777 26.8513 43.7987 27.1124C43.5102 27.536 43.1305 28.1641 42.789 28.6808C42.4531 29.1884 42.0879 29.6741 41.7099 30.1524C41.5073 30.4099 41.2955 30.6545 41.122 30.9357C41.0855 30.996 40.9577 31.226 40.9358 31.2553C40.9065 31.321 40.8773 31.3867 40.8445 31.4488C40.7678 31.5894 40.6874 31.7355 40.629 31.8834C40.5998 31.9582 40.5706 32.0331 40.5432 32.1079C40.598 31.9034 40.6016 31.8852 40.556 32.055C40.4391 32.4804 40.3277 32.946 40.1379 33.3477C39.7745 34.1182 38.8634 34.4962 38.0691 34.1438C37.4703 33.8772 36.9882 33.1395 37.158 32.4658C37.2019 32.2869 37.2566 32.1134 37.3132 31.94C37.3169 31.9272 37.3205 31.9126 37.3242 31.8961C37.3972 31.6113 37.4849 31.3301 37.5743 31.0508C37.41 31.5602 37.6985 30.6253 37.7606 30.5066C37.8647 30.3113 37.9998 30.1013 38.1312 29.9169C38.3175 29.6576 38.5749 29.433 38.8013 29.2085C38.9821 29.0295 39.1647 28.8634 39.3637 28.7045C39.4185 28.657 39.444 28.637 39.4404 28.6461C39.5098 28.5785 39.581 28.511 39.654 28.4471C40.1232 28.0618 40.6162 27.7039 41.0636 27.2931C41.2681 27.1051 41.4744 26.9206 41.6789 26.7326C41.6844 26.7271 41.8523 26.5609 41.8067 26.6102C41.8414 26.5756 41.8761 26.539 41.9089 26.5025C42.0331 26.3711 42.1737 26.2615 42.3106 26.1447C42.2084 26.2305 42.4421 26.0114 42.4293 26.0241C42.475 25.9748 42.5224 25.9255 42.5681 25.8762C42.7087 25.7265 42.8493 25.575 42.9972 25.4326C43.1889 25.2481 43.3806 25.0491 43.5614 24.8483C43.9521 24.4156 44.3647 24.0047 44.7372 23.5556C45.1645 21.0998 45.568 18.9982 45.6483 16.6885C45.5844 15.9271 45.5516 15.2278 45.5516 14.6088C45.641 15.0945 45.7214 15.5674 45.7962 16.0257C46.2947 17.6617 46.5466 19.5788 46.711 21.2805C47.0579 22.6755 47.5381 23.8386 48.3743 24.7698C50.3043 26.9206 53.4959 31.2954 51.4181 30.8517C49.3402 30.4062 51.2337 35.2649 53.6475 41.7558C55.9937 48.066 55.8531 57.849 62.3568 61.0772C62.6672 60.9092 62.9484 60.6955 63.1803 60.4235C63.1858 60.4162 63.1931 60.4125 63.1986 60.4052C62.5358 57.4911 62.2217 54.4821 61.6758 51.5425C61.1262 48.5827 60.4908 45.6376 59.786 42.7108L59.7824 42.7089Z" fill="#FFD69F"/>
<path d="M16.3578 10.4257C13.3543 10.7598 16.3213 13.1335 19.2153 14.8388C22.1093 16.5442 25.038 15.5418 23.2213 17.4334C21.4045 19.3268 24.8171 22.6627 28.0817 21.6237C31.3446 20.5848 33.532 12.9052 35.3834 8.30586C36.6834 5.07956 37.4174 2.74975 37.9232 1.41504C35.9019 2.99624 33.6707 4.25061 31.3263 5.2165C28.8979 6.21707 26.3198 7.04784 23.707 7.29433C19.0236 7.73437 14.364 6.33393 10.5352 3.35229C12.361 9.54745 19.3249 10.0934 16.3542 10.4239L16.3578 10.4257Z" fill="#FFD69F"/>
<path d="M16.1939 72.6257C16.8238 69.1766 18.7921 77.7436 21.0544 79.858C23.3185 81.9705 17.64 73.4802 17.5268 66.394C17.4136 59.3096 17.9303 51.8181 19.3764 50.6094C19.6996 51.2284 20.0666 51.8345 20.45 52.4371C20.6563 52.7621 20.8754 53.0761 21.0379 53.4121C21.0726 53.4851 21.1895 53.7572 21.2114 53.7937C21.2351 53.8686 21.2589 53.9434 21.2881 54.0165C21.3556 54.1808 21.4287 54.3524 21.4725 54.5204C21.4962 54.6044 21.5163 54.6884 21.5364 54.7705C21.5108 54.5496 21.509 54.5295 21.5328 54.7121C21.5948 55.1722 21.6405 55.6689 21.7993 56.1308C22.1043 57.0164 23.1888 57.7102 24.2734 57.6408C25.0932 57.5897 25.8582 57.0328 25.7816 56.3116C25.7615 56.1217 25.7268 55.93 25.6921 55.7401C25.6903 55.7255 25.6884 55.7109 25.6866 55.6926C25.6519 55.3877 25.5971 55.0791 25.5405 54.7724C25.6446 55.3311 25.4712 54.3104 25.4146 54.1716C25.3214 53.9434 25.1936 53.6878 25.0622 53.4614C24.8796 53.14 24.5966 52.8296 24.3537 52.5284C24.1602 52.2892 23.9612 52.0609 23.7402 51.8364C23.68 51.7706 23.6508 51.7432 23.6544 51.7505C23.5796 51.6593 23.5029 51.568 23.4225 51.4803C22.904 50.9362 22.3471 50.4122 21.8614 49.8498C21.6405 49.5924 21.4141 49.3386 21.1931 49.083C21.1877 49.0757 21.0069 48.8529 21.0544 48.9168C21.0179 48.8693 20.9813 48.8219 20.9448 48.7744C20.8134 48.6009 20.6563 48.4439 20.5048 48.2796C20.6162 48.4001 20.3642 48.1025 20.377 48.1207C20.3277 48.0568 20.2784 47.9911 20.2291 47.9272C20.0812 47.73 19.9333 47.5328 19.7726 47.3393C19.5645 47.0891 19.3636 46.828 19.1719 46.5651C16.4495 42.0917 17.3643 37.6877 17.5852 33.6087C17.8062 29.5279 18.0289 28.4908 13.2798 25.3029C8.53075 22.1149 8.56727 16.3652 8.56727 16.3652C7.60869 17.8168 7.04267 20.1137 7.54478 22.407C7.38776 23.4806 7.34576 24.8117 7.64338 26.2687C8.38651 29.904 10.353 32.3872 8.24044 37.6932C6.12791 42.9973 4.53575 49.9338 6.27763 47.3739C8.01951 44.8141 9.20632 43.3296 8.31895 50.5254C7.43158 57.7211 5.87411 61.9498 4.35499 63.4708C2.83405 64.9917 6.43283 63.9163 5.65501 66.0307C4.91553 68.0391 5.84673 68.6435 3.84375 70.672C4.81876 70.725 6.34884 70.6483 6.86373 69.7445C6.91851 69.6477 7.00068 69.5948 7.09014 69.5765C7.05728 68.8991 7.17961 68.2199 7.2709 67.5461C7.39324 66.6405 7.51009 65.733 7.61964 64.8256C7.8424 62.9705 8.02864 61.1118 8.23861 59.2549C8.65856 55.5429 8.97626 51.8181 9.16615 48.086C9.54776 40.5781 9.34874 33.1103 9.02191 25.6078C9.01461 25.4654 9.21728 25.4416 9.24284 25.584C9.24832 25.6169 9.2538 25.6516 9.25927 25.6845C12.5002 29.2431 14.631 33.9958 15.9365 38.5824C17.1488 42.8367 17.7185 47.2607 17.5122 51.683C17.3077 56.0779 16.1574 60.3321 15.4782 64.6631C14.1453 73.1497 13.7089 81.9997 16.8713 90.1175C16.1483 85.6861 15.6297 75.7169 16.1939 72.6312V72.6257Z" fill="#FACC7A"/>
<path d="M53.6444 41.7539C51.2324 35.2648 49.339 30.4062 51.415 30.8499C53.4929 31.2935 50.3012 26.9188 48.3713 24.7679C47.5351 23.8349 47.0549 22.6736 46.7079 21.2787C46.5436 19.5751 46.2916 17.6598 45.7932 16.0238C45.7183 15.5655 45.638 15.0926 45.5485 14.6069C45.5485 15.2277 45.5832 15.9252 45.6453 16.6866C45.5649 18.9963 45.1614 21.0997 44.7342 23.5537C44.3617 24.0028 43.9491 24.4137 43.5583 24.8464C43.3757 25.0472 43.1858 25.2463 42.9941 25.4307C42.8444 25.5731 42.7056 25.7246 42.565 25.8744C42.5194 25.9237 42.4719 25.973 42.4263 26.0223C42.4391 26.0095 42.2053 26.2286 42.3076 26.1428C42.1707 26.2596 42.0301 26.3692 41.9059 26.5006C41.873 26.5372 41.8383 26.5737 41.8037 26.6084C41.8493 26.5591 41.6795 26.727 41.6758 26.7307C41.4714 26.9188 41.265 27.1032 41.0605 27.2912C40.6132 27.7021 40.1202 28.0599 39.651 28.4452C39.5779 28.5091 39.5067 28.5748 39.4373 28.6442C39.441 28.6369 39.4172 28.6552 39.3606 28.7026C39.1616 28.8615 38.979 29.0258 38.7983 29.2066C38.5719 29.4312 38.3144 29.6557 38.1282 29.915C37.9967 30.0994 37.8616 30.3094 37.7575 30.5048C37.6955 30.6234 37.407 31.5601 37.5713 31.0489C37.4818 31.3282 37.3942 31.6094 37.3212 31.8942C37.3175 31.9107 37.312 31.9253 37.3102 31.9381C37.2536 32.1115 37.1988 32.285 37.155 32.4639C36.987 33.1377 37.4672 33.8753 38.0661 34.1419C38.8604 34.4943 39.7696 34.1163 40.1348 33.3458C40.3247 32.9441 40.4361 32.4785 40.5529 32.0531C40.5986 31.8833 40.5949 31.9016 40.5402 32.1061C40.5675 32.0312 40.5968 31.9563 40.626 31.8815C40.6844 31.7317 40.7666 31.5875 40.8414 31.4469C40.8743 31.3848 40.9035 31.3191 40.9327 31.2534C40.9546 31.2242 41.0824 30.9941 41.119 30.9338C41.2906 30.6527 41.5024 30.408 41.7069 30.1505C42.0848 29.6722 42.45 29.1865 42.786 28.6789C43.1274 28.1622 43.5072 27.5341 43.7957 27.1105C43.9728 26.8494 44.1426 26.5828 44.3051 26.3126C43.8906 29.9953 44.4165 34.7316 45.0427 40.3425C45.7128 46.3515 41.1153 50.5802 42.5979 51.767C44.0823 52.9538 43.1548 50.6916 45.9356 48.3526C48.7164 46.0155 44.935 48.464 48.6087 57.1789C52.2841 65.8937 48.5028 71.3841 49.6878 69.8997C50.8746 68.4153 51.4296 67.3398 51.9153 74.72C52.328 81.0174 49.5289 87.1797 48.6981 88.854C50.4564 88.2241 52.1417 87.4025 53.6974 86.3179C53.9128 86.1682 54.1392 86.2211 54.2981 86.3617C54.7911 82.6917 55.2986 79.0016 55.1562 75.2897C54.9755 70.5807 54.0205 65.9485 52.5854 61.4678C51.1065 56.8557 48.9811 52.4882 47.5113 47.8779C46.1072 43.4757 45.1322 38.7759 45.229 34.1364C45.3276 29.3855 46.2113 24.693 45.8845 19.9257C45.8772 19.8289 46.0105 19.818 46.0324 19.9093C46.1602 20.4588 46.2588 21.0048 46.3373 21.5471C47.0877 24.8409 47.8601 28.1293 48.8113 31.3739C49.8996 35.0804 51.0499 38.7686 52.2294 42.4478C53.2756 45.7106 54.4807 48.9205 55.5141 52.1851C56.0308 53.8193 56.5092 55.4717 56.8415 57.1533C57.1373 58.6487 57.4093 60.1934 57.2304 61.7162C57.5244 61.7381 57.8293 61.802 58.0959 61.802C58.6929 61.802 59.2973 61.7709 59.8889 61.7088C60.7014 61.623 61.6143 61.4751 62.3593 61.068C55.8537 57.8417 55.9961 48.0587 53.6499 41.7466L53.6444 41.7539Z" fill="#FACC7A"/>
<path d="M16.7567 91.3555C16.9484 91.3318 17.1401 91.3135 17.3318 91.2916C17.3281 91.2533 17.3208 91.2113 17.3008 91.1675C17.1492 90.8169 17.0086 90.4663 16.8699 90.1121C13.7075 81.9943 14.1438 73.1443 15.4767 64.6577C16.1578 60.3267 17.3062 56.0706 17.5107 51.6776C17.7171 47.2535 17.1474 42.8313 15.935 38.577C14.6277 33.9904 12.4987 29.2377 9.25781 25.6791C9.27607 25.7813 9.2925 25.8854 9.30894 25.9876C10.3369 27.8373 11.4269 29.6449 12.3216 31.5675C13.2784 33.6216 14.142 35.6976 14.8158 37.8631C16.1852 42.2653 16.7548 46.9212 16.5321 51.5224C16.3184 55.9027 15.1554 60.1789 14.4816 64.5007C13.7933 68.9156 13.3751 73.3854 13.5103 77.8569C13.649 82.5129 14.4415 87.2839 16.6489 91.4286C16.6581 91.445 16.669 91.4596 16.68 91.4742C16.6745 91.4231 16.7 91.3647 16.7567 91.3574V91.3555Z" fill="black"/>
<path d="M45.9465 19.9275C45.9465 19.9166 45.9592 19.9166 45.9611 19.9275C46.0852 20.4716 46.2076 21.0139 46.3317 21.558C46.255 21.0139 46.1564 20.4698 46.0268 19.9202C46.0049 19.8289 45.8734 19.8399 45.8789 19.9367C46.2076 24.704 45.322 29.3965 45.2234 34.1474C45.1266 38.7869 46.1017 43.4867 47.5057 47.8889C48.9756 52.4992 51.1027 56.8648 52.5798 61.4788C54.015 65.9595 54.9699 70.5917 55.1507 75.3006C55.2931 79.0126 54.7855 82.7027 54.2925 86.3727C54.4897 86.5461 54.5773 86.8529 54.4021 87.0756C54.5006 87.1049 54.612 87.0756 54.6522 86.9551C57.6174 78.0504 55.9321 68.1359 52.9377 59.4703C51.3656 54.9221 49.233 50.593 47.8691 45.9699C46.4979 41.3194 45.8734 36.49 46.182 31.6496C46.308 29.6758 46.4613 27.7002 46.5253 25.7228C46.538 25.3303 46.5417 24.9432 46.5399 24.5579C46.2623 23.0279 46.0487 21.4868 45.9428 19.9312L45.9465 19.9275Z" fill="black"/>
<path d="M54.2961 86.3691C54.1372 86.2285 53.9108 86.1755 53.6954 86.3253C52.1397 87.4098 50.4545 88.2315 48.6962 88.8614C44.6007 90.3257 40.0981 90.7402 35.8512 90.9429C29.7035 91.235 23.4554 90.6069 17.3332 91.2935C17.1415 91.3154 16.9498 91.3336 16.7581 91.3574C16.7015 91.3647 16.6759 91.4231 16.6814 91.4742C16.685 91.5126 16.7088 91.5454 16.7526 91.5509C16.7526 91.5509 16.7526 91.5509 16.7562 91.5509C16.8987 91.5582 17.0411 91.5655 17.1835 91.5746C23.512 91.9161 29.8788 92.1534 36.2036 91.885C42.3787 91.6239 49.0212 90.8151 54.2943 87.1798C54.3417 87.1469 54.3764 87.1104 54.4056 87.072C54.5791 86.8493 54.4915 86.5425 54.2961 86.3691Z" fill="black"/>
<path d="M32.1521 18.947C31.6007 19.9969 30.9909 21.0212 30.3409 22.0199C29.6726 23.0479 28.8291 23.9974 28.2119 25.0491C28.3324 25.1239 28.4529 25.2024 28.5698 25.2828C28.683 25.3613 28.7067 25.4927 28.672 25.6096C28.7505 25.5932 28.8272 25.5566 28.8875 25.4946C29.7402 24.6528 30.3865 23.5318 31.0311 22.5421C31.6738 21.5525 32.2653 20.5373 32.8186 19.5002C33.8758 17.5192 34.7339 15.4505 35.4716 13.3489C36.8976 9.27355 37.6772 5.04302 38.5701 0.848999C38.5408 0.907427 38.4989 0.960377 38.4386 1.00968C38.3911 1.04984 38.34 1.08636 38.2925 1.12653C37.1751 5.11423 36.1088 9.12383 34.7284 13.0403C34.0145 15.0634 33.1582 17.039 32.154 18.9488L32.1521 18.947Z" fill="black"/>
<path d="M10.4969 3.2555C10.4823 3.26646 10.4677 3.27741 10.4531 3.28837C10.4696 3.30115 10.486 3.31393 10.5006 3.32671C10.5134 3.33584 10.5243 3.34497 10.5371 3.3541C14.366 6.33574 19.0256 7.73618 23.7089 7.29615C26.3217 7.04966 28.8999 6.21889 31.3283 5.21831C33.6709 4.25243 35.9021 2.99806 37.9251 1.41685C38.0475 1.32191 38.1698 1.22514 38.2903 1.12654C38.3396 1.08637 38.3889 1.04986 38.4364 1.00969C38.4948 0.962214 38.5368 0.907438 38.5678 0.84901C38.6062 0.775975 38.619 0.697463 38.6171 0.61895C38.6171 0.569652 38.6098 0.520354 38.5952 0.474707C38.5058 0.443667 38.4309 0.40715 38.3834 0.361503C38.3378 0.315856 38.1497 0.18622 38.0091 0.122314C37.9635 0.138747 37.916 0.160658 37.8704 0.197175C33.8735 3.31393 28.825 5.59809 23.8733 6.24445C21.4649 6.5585 19.095 6.31201 16.7396 5.6766C14.5942 5.0978 12.6223 3.99863 10.5554 3.18429C10.5426 3.20986 10.5262 3.23359 10.4988 3.2555H10.4969Z" fill="black"/>
<path d="M38.382 0.361549C38.4295 0.407196 38.5044 0.443713 38.5938 0.474753C38.6103 0.480231 38.6267 0.485708 38.645 0.491186C38.9627 0.584305 39.4337 0.611693 39.6474 0.660992C40.9401 0.953131 42.2346 1.25805 43.5109 1.61227C44.8858 1.9957 46.2789 2.27506 47.6319 2.737C48.6398 3.08027 49.507 3.39066 50.0731 4.29812C51.9647 7.32176 52.5562 11.1524 53.1953 14.5796C53.869 18.1875 54.3858 21.7936 55.2914 25.354C56.763 31.1457 58.3826 36.9008 59.783 42.7107C60.4896 45.6394 61.1232 48.5827 61.6728 51.5425C62.2187 54.4821 62.531 57.493 63.1956 60.4052C63.3489 60.2445 63.5571 60.2628 63.7032 60.3669C63.7013 57.8727 63.3124 55.3914 62.9381 52.9283C62.5602 50.4396 62.0489 47.9729 61.5066 45.5153C60.4403 40.684 59.1677 35.9021 57.9133 31.1183C56.8269 26.9699 55.7333 22.8471 55.0376 18.6166C54.4351 14.9539 53.849 11.2748 52.7005 7.73258C52.37 6.71374 51.9756 5.71499 51.4899 4.75824C51.1595 4.10458 50.787 3.3085 50.1863 2.85021C49.0962 2.01761 47.5223 1.6853 46.2132 1.33656C44.4476 0.865489 42.6619 0.545962 40.8506 0.281211C40.1787 0.182614 39.5049 0.091321 38.8312 0.00550516C38.603 -0.0237087 38.0534 0.168007 37.8726 0.0730623C37.8598 0.0657588 37.8562 0.0894951 37.8708 0.0876692C37.9018 0.0821916 37.9511 0.0986244 38.0059 0.124187C38.1483 0.188092 38.3346 0.317729 38.3802 0.363375L38.382 0.361549Z" fill="black"/>
<path d="M56.6115 61.7892C56.7977 61.7143 57.0095 61.707 57.2268 61.7234C57.4057 60.2025 57.1318 58.656 56.8379 57.1606C56.5056 55.479 56.0272 53.8266 55.5105 52.1924C54.477 48.9259 53.272 45.716 52.2257 42.455C51.0462 38.7759 49.8959 35.0877 48.8077 31.3812C47.8546 28.1366 47.0841 24.8482 46.3337 21.5543C46.2095 21.0102 46.0872 20.4679 45.963 19.9238C45.9612 19.9147 45.9466 19.9147 45.9484 19.9238C46.0525 21.4795 46.2661 23.0187 46.5455 24.5506C46.9252 26.643 47.4274 28.7154 47.9441 30.7786C48.888 34.5454 50.0511 38.2482 51.2197 41.9493C52.2568 45.2304 53.4107 48.4695 54.477 51.7414C55.0412 53.4705 55.547 55.2197 55.9213 57.0017C56.2646 58.6304 56.3595 60.27 56.5421 61.917C56.5676 62.1434 56.7849 62.2383 56.9657 62.1927C56.8123 62.1342 56.6735 62.0521 56.5731 61.9261C56.5348 61.8786 56.5603 61.8074 56.6133 61.7855L56.6115 61.7892Z" fill="black"/>
<path d="M1.33854 69.8705C2.12001 68.1541 1.98307 65.9101 1.96116 64.066C1.93742 61.8476 1.73292 59.6346 1.55582 57.4253C1.1596 52.5064 1.16873 47.5456 1.00988 42.6139C0.841901 37.3992 0.719568 32.2101 0.900329 26.9936C0.989796 24.4374 1.14317 21.883 1.36775 19.3341C1.5759 16.9824 1.77675 14.5813 2.27156 12.2716C2.70063 10.2668 3.64461 8.63815 5.14912 7.26145C6.72485 5.81901 8.58541 4.69245 10.2908 3.40704C10.32 3.38513 10.3492 3.36322 10.3784 3.34131C10.4021 3.32305 10.4277 3.30479 10.4533 3.28653C10.4679 3.27558 10.4825 3.26462 10.4971 3.25366C10.5245 3.23175 10.5427 3.20802 10.5537 3.18246C10.6231 3.03274 10.4441 2.83919 10.2743 2.95422C7.8788 4.59933 4.95375 5.91761 3.17353 8.29123C2.32268 9.42692 1.84065 10.7781 1.52295 12.1493C0.991622 14.4462 0.819991 16.8673 0.599061 19.2099C-0.35952 29.422 0.0659073 39.6487 0.385434 49.879C0.49316 53.3135 0.686702 56.7132 0.955105 60.1386C1.08657 61.8275 1.18151 63.5183 1.17056 65.2127C1.16325 66.6259 0.8912 68.0245 0.852856 69.4268C0.86016 69.4268 0.869289 69.4268 0.876593 69.4322C1.06101 69.5637 1.19612 69.7207 1.33671 69.8705H1.33854Z" fill="black"/>
<path d="M9.25908 25.679C9.2536 25.6461 9.24812 25.6115 9.24264 25.5786C9.21708 25.438 9.01623 25.4599 9.02171 25.6023C9.34854 33.1048 9.54756 40.5726 9.16596 48.0806C8.97607 51.8127 8.65837 55.5374 8.23842 59.2494C8.02844 61.1063 7.8422 62.9651 7.61945 64.8201C7.50989 65.7276 7.39304 66.6351 7.27071 67.5407C7.17941 68.2144 7.05525 68.8937 7.08994 69.571C7.33461 69.5181 7.61945 69.7299 7.4679 70.0056C7.43503 70.0659 7.39486 70.1225 7.35652 70.1791C7.36382 70.1791 7.37113 70.1754 7.37843 70.1718C7.42043 70.1572 7.4606 70.1279 7.48798 70.0805C8.25485 68.6928 8.31693 66.7939 8.57072 65.251C8.87382 63.4124 9.16413 61.5683 9.3668 59.7168C9.7831 55.9063 10.0734 52.0829 10.2469 48.254C10.581 40.8721 10.5609 33.2929 9.3102 25.9876C9.29194 25.8853 9.27733 25.7813 9.25908 25.679Z" fill="black"/>
<path d="M7.35882 70.181C7.39717 70.1244 7.43734 70.0678 7.4702 70.0075C7.62175 69.73 7.33509 69.52 7.09225 69.573C7.0046 69.5912 6.92062 69.6442 6.86584 69.7409C6.35094 70.6466 4.82269 70.7214 3.84585 70.6685C3.77465 70.6648 3.70526 70.6612 3.64136 70.6557C3.07899 70.6137 2.47828 70.5151 1.9506 70.3161C1.67672 70.2138 1.50327 70.0477 1.33711 69.8724C1.19652 69.7227 1.06141 69.5657 0.876993 69.4342C0.869689 69.4287 0.86056 69.4287 0.853257 69.4287C0.840476 69.4287 0.82952 69.4342 0.822217 69.447C0.562944 69.9016 1.10157 70.3946 1.43753 70.6539C2.03277 71.1122 2.79233 71.3057 3.52815 71.3678C4.50317 71.4499 5.83422 71.3678 6.73803 70.7799C6.98269 70.621 7.1945 70.422 7.36065 70.181H7.35882Z" fill="black"/>
<path d="M63.7048 60.365C63.5587 60.261 63.3506 60.2427 63.1972 60.4034C63.1917 60.4089 63.1844 60.4143 63.1789 60.4216C62.9471 60.6937 62.6659 60.9055 62.3555 61.0753C61.6105 61.4806 60.6976 61.6304 59.8851 61.7162C59.2917 61.7801 58.6873 61.8093 58.0921 61.8093C57.8273 61.8093 57.5224 61.7454 57.2266 61.7235C57.0093 61.7071 56.7957 61.7144 56.6113 61.7892C56.5583 61.8111 56.5328 61.8823 56.5711 61.9298C56.6716 62.0558 56.8103 62.138 56.9637 62.1964C57.2577 62.3078 57.6101 62.3315 57.8931 62.3753C58.6526 62.4958 59.4104 62.5086 60.1736 62.4356C61.4718 62.3078 62.8996 61.928 63.7851 60.9073C63.9568 60.7101 63.8709 60.4837 63.7048 60.3669V60.365Z" fill="black"/>
</g>
<defs>
<clipPath id="clip0_156_27928">
<rect width="63.867" height="92" fill="white" transform="translate(0.0107422)"/>
</clipPath>
</defs>
</svg>
