<svg width="95" height="92" viewBox="0 0 95 92" fill="none" xmlns="http://www.w3.org/2000/svg">
<path d="M1.82615 83.8801L1.21289 89.9583C1.21289 89.9583 7.52011 92.4269 12.3679 91.6623L13.2606 85.6733L1.82615 83.8801Z" fill="#F04A23"/>
<path d="M10.3609 91.9961C5.95939 91.9961 1.19308 90.1486 1.1465 90.133C1.06887 90.102 1.01841 90.0244 1.02618 89.939L1.63943 83.8607C1.64331 83.8103 1.67048 83.7637 1.71318 83.7288C1.75587 83.6977 1.80633 83.6822 1.85679 83.69L13.2913 85.4832C13.3922 85.4987 13.4621 85.5957 13.4465 85.6966L12.5538 91.6856C12.5422 91.7671 12.4762 91.8292 12.3986 91.8447C11.7698 91.9417 11.0867 91.9922 10.3609 91.9922V91.9961ZM1.41819 89.8303C2.21387 90.1253 6.44068 91.6196 10.3609 91.6196C11.0129 91.6196 11.6339 91.5769 12.2045 91.4954L13.0506 85.8286L1.99652 84.0936L1.41819 89.8303Z" fill="#974535"/>
<g style="mix-blend-mode:multiply" opacity="0.4">
<path d="M2.36892 83.9617L1.72461 90.1408C1.83329 90.1796 1.95361 90.2184 2.08946 90.265L2.74153 84.0199L2.36892 83.9617Z" fill="#B6B8BA"/>
<path d="M3.27785 84.1052L2.59473 90.4319C2.71117 90.4668 2.83537 90.5056 2.96346 90.5444L3.65046 84.1634L3.27785 84.1052Z" fill="#B6B8BA"/>
<path d="M4.18189 84.2489L3.45996 90.6958C3.58028 90.7308 3.70061 90.7657 3.82869 90.8006L4.55451 84.3071L4.18189 84.2489Z" fill="#B6B8BA"/>
<path d="M5.08987 84.3887L4.33301 90.9327C4.45333 90.9637 4.57753 90.9948 4.70174 91.0258L5.46249 84.4469L5.08987 84.3887Z" fill="#B6B8BA"/>
<path d="M5.99395 84.5322L5.20215 91.146C5.32247 91.1732 5.44667 91.2004 5.57088 91.2276L6.36268 84.5865L5.99007 84.5283L5.99395 84.5322Z" fill="#B6B8BA"/>
<path d="M6.89905 84.6759L6.08008 91.3363C6.2004 91.3596 6.3246 91.3829 6.45269 91.4062L7.27554 84.7302L6.90293 84.672L6.89905 84.6759Z" fill="#B6B8BA"/>
<path d="M7.80705 84.8156L6.95703 91.4955C7.08123 91.5149 7.20544 91.5343 7.32964 91.5537L8.17966 84.87L7.80705 84.8118V84.8156Z" fill="#B6B8BA"/>
<path d="M8.7112 84.9591L7.83789 91.6312C7.96209 91.6467 8.0863 91.6622 8.2105 91.6777L9.07993 85.0173L8.70732 84.9591H8.7112Z" fill="#B6B8BA"/>
<path d="M9.61537 85.0989L8.72266 91.7282C8.84686 91.7399 8.97106 91.7515 9.09915 91.7593L9.98798 85.1571L9.61537 85.0989Z" fill="#B6B8BA"/>
<path d="M10.5205 85.2426L9.6123 91.7904C9.74039 91.7943 9.86459 91.8021 9.9888 91.8021L10.8893 85.3008L10.5167 85.2426H10.5205Z" fill="#B6B8BA"/>
<path d="M11.4238 85.3823L10.5117 91.8021C10.6398 91.8021 10.7679 91.7982 10.8921 91.7943L11.7965 85.4405L11.4238 85.3823Z" fill="#B6B8BA"/>
<path d="M12.3252 85.5259L11.4131 91.7671C11.5412 91.7594 11.6693 91.7438 11.7973 91.7322L12.6939 85.5841L12.3213 85.5259H12.3252Z" fill="#B6B8BA"/>
</g>
<path d="M23.6353 12.5018C21.8305 13.0918 20.0994 13.8603 18.3761 14.6482C16.7847 15.7544 15.2904 17.1555 14.1182 18.9332C9.26653 26.2845 4.58948 46.8635 2.70702 59.9825C0.824557 73.1015 0.696472 80.6857 0.696472 80.6857C0.696472 80.6857 0.261759 84.408 2.06271 84.9669C2.06271 84.9669 7.60142 87.1987 11.9912 86.9735C11.9912 86.9735 13.6913 87.2608 14.9411 83.8762C17.4446 77.0955 22.7232 56.7261 28.0562 35.3087L29.2284 11.3723C27.3498 11.6906 25.4479 11.9079 23.6315 12.4979L23.6353 12.5018Z" fill="#F04A23"/>
<path d="M11.3546 87.1794C7.09677 87.1794 2.04323 85.161 1.99277 85.1416C0.0792588 84.5478 0.490683 80.8217 0.51009 80.6625C0.51009 80.6043 0.657582 72.9386 2.52064 59.9555C3.53756 52.8603 5.257 44.3718 7.11617 37.2456C8.69977 31.1712 11.1761 23.0475 13.959 18.8285C15.0458 17.1828 16.4936 15.7234 18.2673 14.493C20.0411 13.6779 21.7606 12.9133 23.577 12.3195C25.0093 11.8537 26.5114 11.6169 27.963 11.3879C28.3744 11.3219 28.7897 11.256 29.2011 11.1861C29.2555 11.1745 29.3137 11.1939 29.3564 11.2327C29.3991 11.2715 29.4224 11.3258 29.4185 11.384L28.2463 35.3204C21.5238 62.3347 17.231 78.225 15.1195 83.9423C13.8853 87.2803 12.1969 87.1871 11.9873 87.1638C11.7816 87.1755 11.572 87.1794 11.3585 87.1794H11.3546ZM29.0304 11.5975C28.6927 11.6519 28.3589 11.7062 28.0212 11.7605C26.5851 11.9857 25.0985 12.2224 23.6935 12.6765C21.8964 13.2626 20.1886 14.0234 18.4536 14.8152C16.7497 16.0029 15.333 17.4273 14.2734 19.0342C11.5565 23.1523 6.06044 37.9171 2.89325 60.0059C1.03407 72.9619 0.886583 80.6082 0.886583 80.6858C0.882701 80.7402 0.486802 84.2761 2.12086 84.7845C2.18684 84.8117 7.17051 86.799 11.3585 86.799C11.5681 86.799 11.7777 86.7951 11.9873 86.7835C12.0028 86.7835 12.0145 86.7835 12.0261 86.7835C12.03 86.7835 12.0533 86.7835 12.096 86.7835C12.4647 86.7835 13.7455 86.57 14.7663 83.8026C16.8739 78.1008 21.1628 62.2183 27.8737 35.2544L29.0304 11.5859V11.5975Z" fill="#974535"/>
<g style="mix-blend-mode:multiply" opacity="0.7">
<path d="M23.6354 12.5018C21.8306 13.0918 20.0995 13.8603 18.3761 14.6482C16.9672 15.6263 15.632 16.8412 14.5297 18.3432C14.716 18.3083 14.8674 18.3238 14.9605 18.4209C15.5738 19.0807 19.2223 34.6993 20.9378 39.7878C22.6495 44.8724 11.902 25.7644 13.2683 29.7156C14.6345 33.6708 17.988 44.0224 16.2647 60.4949C14.5414 76.9674 11.9408 84.9164 10.5164 84.9669C9.08803 85.0173 6.57291 79.6028 6.08774 77.9067C5.59869 76.2144 5.64526 81.4853 6.37496 83.4609C7.02315 85.2075 2.38492 83.3445 1.01091 75.1393C0.735335 78.7489 0.704284 80.6857 0.704284 80.6857C0.704284 80.6857 0.269571 84.408 2.07052 84.9669C2.07052 84.9669 7.60923 87.1987 11.9991 86.9735C11.9991 86.9735 13.6991 87.2608 14.9489 83.8762C17.4524 77.0955 22.731 56.7261 28.064 35.3087L29.2362 11.3723C27.3576 11.6906 25.4558 11.9079 23.6393 12.4979L23.6354 12.5018Z" fill="#A7A9AB"/>
</g>
<path d="M92.6904 83.8801L93.3036 89.9583C93.3036 89.9583 86.9964 92.4269 82.1486 91.6623L81.2559 85.6733L92.6904 83.8801Z" fill="#F04A23"/>
<path d="M84.1552 91.9961C83.4294 91.9961 82.7463 91.9456 82.1175 91.8486C82.036 91.8369 81.9739 91.771 81.9623 91.6894L81.0695 85.7005C81.054 85.5996 81.1239 85.5025 81.2248 85.487L92.6593 83.6938C92.7098 83.6861 92.7641 83.6977 92.8029 83.7326C92.8417 83.7637 92.8689 83.8103 92.8767 83.8646L93.4899 89.9428C93.4977 90.0282 93.4511 90.1058 93.3735 90.1369C93.3269 90.1563 88.5606 92 84.1591 92L84.1552 91.9961ZM82.3116 91.4954C82.8821 91.5769 83.5032 91.6196 84.1552 91.6196C88.0754 91.6196 92.3022 90.1252 93.0979 89.8303L92.5196 84.0936L81.4654 85.8286L82.3116 91.4954Z" fill="#974535"/>
<g style="mix-blend-mode:multiply" opacity="0.4">
<path d="M92.1509 83.9618L92.7952 90.1409C92.6866 90.1797 92.5662 90.2186 92.4304 90.2651L91.7783 84.02L92.1509 83.9618Z" fill="#B6B8BA"/>
<path d="M91.2427 84.1053L91.9258 90.432C91.8094 90.4669 91.6891 90.5057 91.561 90.5445L90.8701 84.1636L91.2427 84.1053Z" fill="#B6B8BA"/>
<path d="M90.3345 84.249L91.0565 90.696C90.94 90.7309 90.8158 90.7658 90.6877 90.8008L89.9619 84.3072L90.3345 84.249Z" fill="#B6B8BA"/>
<path d="M89.4302 84.3887L90.1871 90.9327C90.0668 90.9637 89.9426 90.9948 89.8184 91.0258L89.0576 84.4469L89.4302 84.3887Z" fill="#B6B8BA"/>
<path d="M88.5221 84.5323L89.3139 91.1462C89.1935 91.1733 89.0693 91.2005 88.9451 91.2277L88.1533 84.5867L88.5259 84.5284L88.5221 84.5323Z" fill="#B6B8BA"/>
<path d="M87.6177 84.676L88.4406 91.3364C88.3164 91.3597 88.1961 91.383 88.068 91.4063L87.2451 84.7303L87.6177 84.6721V84.676Z" fill="#B6B8BA"/>
<path d="M86.7124 84.8156L87.5586 91.4955C87.4344 91.5149 87.3102 91.5343 87.186 91.5537L86.3359 84.87L86.7086 84.8118L86.7124 84.8156Z" fill="#B6B8BA"/>
<path d="M85.8082 84.9594L86.6815 91.6314C86.5573 91.6469 86.4331 91.6625 86.3089 91.678L85.4355 85.0176L85.8082 84.9594Z" fill="#B6B8BA"/>
<path d="M84.9039 85.099L85.7966 91.7284C85.6724 91.74 85.5482 91.7517 85.4201 91.7594L84.5312 85.1572L84.9039 85.099Z" fill="#B6B8BA"/>
<path d="M83.9996 85.2427L84.9078 91.7905C84.7797 91.7944 84.6555 91.8022 84.5274 91.8022L83.627 85.3009L83.9996 85.2427Z" fill="#B6B8BA"/>
<path d="M83.0953 85.3823L84.0074 91.8021C83.8793 91.8021 83.7512 91.7982 83.627 91.7943L82.7227 85.4405L83.0953 85.3823Z" fill="#B6B8BA"/>
<path d="M82.191 85.526L83.1031 91.7672C82.975 91.7595 82.8469 91.744 82.7188 91.7323L81.8184 85.5842L82.191 85.526Z" fill="#B6B8BA"/>
</g>
<path d="M93.819 80.6858C93.819 80.6858 93.6909 73.1055 91.8085 59.9826C89.926 46.8636 85.2529 26.2846 80.4011 18.9333C78.7011 16.3599 76.3374 14.5784 73.9814 13.3441C73.2245 13.0413 72.4521 12.7852 71.6914 12.5523C69.6032 11.9119 67.3947 11.8886 65.2871 11.3607L66.4632 35.3126C71.7962 56.73 77.0709 77.0955 79.5783 83.8801C80.8281 87.2647 82.5281 86.9775 82.5281 86.9775C86.9218 87.2026 92.4567 84.9708 92.4567 84.9708C94.2576 84.4119 93.8229 80.6897 93.8229 80.6897L93.819 80.6858Z" fill="#F04A23"/>
<path d="M83.1606 87.1794C82.9471 87.1794 82.7375 87.1755 82.5318 87.1638C82.5085 87.1638 82.4736 87.1677 82.4231 87.1677C81.9923 87.1677 80.5018 86.9348 79.3995 83.9423C77.2881 78.2289 72.9992 62.3386 66.2805 35.3554L65.1006 11.3685C65.1006 11.3103 65.1239 11.2521 65.1705 11.2133C65.217 11.1745 65.2752 11.1628 65.3373 11.1745C66.2766 11.4074 67.2586 11.5471 68.2057 11.6791C69.3779 11.8421 70.5888 12.0128 71.7532 12.3699C72.6537 12.6455 73.3873 12.8978 74.0549 13.1656C76.8728 14.6367 79.0541 16.5385 80.5639 18.8246C83.3469 23.0437 85.8232 31.1674 87.4068 37.2417C89.266 44.364 90.9854 52.8564 92.0023 59.9516C93.8654 72.9348 94.0129 80.6004 94.0129 80.6781C94.0284 80.8178 94.4437 84.5439 92.5147 85.1416C92.4797 85.1572 87.4262 87.1755 83.1645 87.1755L83.1606 87.1794ZM82.524 86.7873C82.524 86.7873 82.5279 86.7873 82.5318 86.7873C86.8401 87.0086 92.3284 84.8156 92.3827 84.7923C94.0284 84.28 93.6364 80.7402 93.6325 80.7052C93.6325 80.6121 93.485 72.9619 91.6258 60.0098C88.4548 37.921 82.9626 23.1562 80.2457 19.0381C78.7746 16.8063 76.636 14.9472 73.8958 13.5111C73.2515 13.2549 72.5295 13.0065 71.6407 12.7348C70.5073 12.3893 69.308 12.2186 68.1513 12.0594C67.2742 11.9352 66.3737 11.811 65.4887 11.6053L66.6493 35.3049C73.3601 62.2377 77.649 78.1164 79.7527 83.8142C80.7735 86.5778 82.0583 86.7951 82.4231 86.7951C82.4619 86.7951 82.4891 86.7951 82.493 86.7951C82.5008 86.7951 82.5124 86.7951 82.524 86.7951V86.7873Z" fill="#974535"/>
<g style="mix-blend-mode:multiply" opacity="0.7">
<path d="M93.8181 80.6858C93.8181 80.6858 93.787 78.749 93.5114 75.1393C92.1374 83.3445 87.5031 85.2115 88.1474 83.461C88.8771 81.4854 88.9237 76.2145 88.4346 77.9067C87.9456 79.6029 85.4304 85.0174 84.006 84.9669C82.5776 84.9165 79.981 76.9674 78.2577 60.4949C76.5344 44.0224 79.8879 33.6708 81.2541 29.7157C82.6203 25.7645 71.869 44.8724 73.5845 39.7878C75.2962 34.7032 78.9486 19.0808 79.5618 18.4209C79.655 18.3239 79.8063 18.3084 79.9927 18.3433C78.3314 16.0805 76.1501 14.4775 73.9765 13.3402C73.2236 13.0413 72.4512 12.7852 71.6943 12.5523C69.6061 11.9119 67.3976 11.8886 65.29 11.3607L66.4661 35.3126C71.7991 56.73 77.0739 77.0955 79.5812 83.8801C80.831 87.2647 82.5311 86.9775 82.5311 86.9775C86.9248 87.2026 92.4596 84.9708 92.4596 84.9708C94.2605 84.4119 93.8258 80.6897 93.8258 80.6897L93.8181 80.6858Z" fill="#A7A9AB"/>
</g>
<path d="M46.9424 86.9192L22.7227 84.9669V88.2311C22.7227 88.2311 34.817 92.26 46.9424 91.5846C59.0678 92.26 71.1621 88.2311 71.1621 88.2311V84.9669L46.9424 86.9192Z" fill="#F04A23"/>
<path d="M49.7523 91.8486C48.7936 91.8486 47.8465 91.8214 46.9305 91.771C46.0378 91.8214 45.0869 91.8486 44.132 91.8486C33.1129 91.8486 22.7651 88.4446 22.6642 88.4097C22.5866 88.3825 22.5361 88.3127 22.5361 88.2311V84.9669C22.5361 84.9126 22.5594 84.866 22.5982 84.8272C22.637 84.7923 22.6875 84.7729 22.7418 84.7767L46.9616 86.7291L71.1502 84.7767C71.2046 84.7729 71.255 84.7923 71.2938 84.8272C71.3327 84.8621 71.3559 84.9126 71.3559 84.9669V88.2311C71.3559 88.3127 71.3055 88.3825 71.2279 88.4097C71.1231 88.4446 60.7753 91.8486 49.76 91.8486H49.7523ZM46.9305 91.3945C47.8582 91.4449 48.8013 91.4721 49.7523 91.4721C60.0456 91.4721 69.7491 88.4834 70.9756 88.0914V85.1688L46.9577 87.1056L22.9087 85.1688V88.0914C24.1314 88.4834 33.8387 91.4721 44.132 91.4721C45.083 91.4721 46.0262 91.4449 46.9305 91.3945Z" fill="#974535"/>
<g opacity="0.4">
<path d="M23.4759 85.0291L23.3711 88.433C23.4837 88.4679 23.6079 88.5029 23.7437 88.5456L23.8524 85.0601L23.4759 85.0291Z" fill="#B6B8BA"/>
<path d="M24.1321 85.0795L24.0273 88.627C24.1438 88.662 24.268 88.6969 24.4 88.7357L24.5086 85.1105L24.1321 85.0795Z" fill="#B6B8BA"/>
<path d="M24.7874 85.1338L24.6787 88.8133C24.799 88.8483 24.9232 88.8793 25.0513 88.9181L25.16 85.1648L24.7835 85.1338H24.7874Z" fill="#B6B8BA"/>
<path d="M25.4397 85.1843L25.3311 88.9919C25.4514 89.023 25.5795 89.0579 25.7037 89.0929L25.8123 85.2154L25.4359 85.1843H25.4397Z" fill="#B6B8BA"/>
<path d="M26.096 85.2386L25.9873 89.1666C26.1076 89.1976 26.2357 89.2287 26.3599 89.2636L26.4686 85.2697L26.0921 85.2386H26.096Z" fill="#B6B8BA"/>
<path d="M26.7513 85.293L26.6426 89.3374C26.7629 89.3684 26.891 89.3994 27.0152 89.4305L27.1239 85.324L26.7474 85.293H26.7513Z" fill="#B6B8BA"/>
<path d="M27.4075 85.3434L27.2988 89.4925C27.4192 89.5236 27.5472 89.5508 27.6714 89.5818L27.7801 85.3705L27.4036 85.3395L27.4075 85.3434Z" fill="#B6B8BA"/>
<path d="M28.0599 85.3977L27.9551 89.6517C28.0754 89.6789 28.2035 89.7099 28.3316 89.7371L28.4402 85.4288L28.0638 85.3977H28.0599Z" fill="#B6B8BA"/>
<path d="M28.7161 85.4482L28.6113 89.7992C28.7355 89.8264 28.8597 89.8536 28.9878 89.8807L29.0926 85.4754L28.7161 85.4443V85.4482Z" fill="#B6B8BA"/>
<path d="M29.3714 85.5026L29.2666 89.9467C29.3908 89.9739 29.515 90.0011 29.6431 90.0282L29.7479 85.5336L29.3714 85.5026Z" fill="#B6B8BA"/>
<path d="M30.0277 85.5569L29.9268 90.0864C30.051 90.1136 30.1752 90.1369 30.3033 90.1641L30.4042 85.5879L30.0277 85.5569Z" fill="#B6B8BA"/>
<path d="M30.6839 85.6073L30.5869 90.2184C30.7111 90.2416 30.8353 90.2688 30.9634 90.2921L31.0643 85.6384L30.6878 85.6073H30.6839Z" fill="#B6B8BA"/>
<path d="M31.3392 85.6617L31.2422 90.3504C31.3664 90.3737 31.4906 90.397 31.6187 90.4203L31.7157 85.6928L31.3392 85.6617Z" fill="#B6B8BA"/>
<path d="M31.9955 85.7122L31.9023 90.4707C32.0265 90.494 32.1508 90.5173 32.2788 90.5367L32.372 85.7432L31.9955 85.7122Z" fill="#B6B8BA"/>
<path d="M32.6518 85.7665L32.5625 90.5871C32.6867 90.6104 32.8109 90.6298 32.939 90.6531L33.0283 85.7975L32.6518 85.7665Z" fill="#B6B8BA"/>
<path d="M33.3071 85.8208L33.2217 90.7036C33.3459 90.723 33.4701 90.7424 33.5982 90.7657L33.6874 85.8518L33.3109 85.8208H33.3071Z" fill="#B6B8BA"/>
<path d="M33.9633 85.8713L33.8779 90.8084C34.0021 90.8278 34.1302 90.8473 34.2544 90.8667L34.3398 85.9063L33.9633 85.8752V85.8713Z" fill="#B6B8BA"/>
<path d="M34.6196 85.9257L34.5381 90.9093C34.6623 90.9287 34.7865 90.9481 34.9146 90.9676L34.9961 85.9606L34.6196 85.9295V85.9257Z" fill="#B6B8BA"/>
<path d="M35.2749 85.98L35.1973 91.0064C35.3215 91.0258 35.4457 91.0413 35.5738 91.0568L35.6514 86.011L35.2749 85.98Z" fill="#B6B8BA"/>
<path d="M35.9312 86.0304L35.8574 91.0917C35.9816 91.1072 36.1097 91.1227 36.2339 91.1383L36.3077 86.0614L35.9312 86.0304Z" fill="#B6B8BA"/>
<path d="M36.5874 86.0847L36.5176 91.1771C36.6418 91.1926 36.766 91.2081 36.8941 91.2236L36.9639 86.1158L36.5874 86.0847Z" fill="#B6B8BA"/>
<path d="M37.2427 86.1352L37.1768 91.2509C37.301 91.2664 37.4252 91.278 37.5533 91.2897L37.6192 86.1624L37.2427 86.1313V86.1352Z" fill="#B6B8BA"/>
<path d="M37.899 86.1896L37.8369 91.3246C37.9611 91.3363 38.0892 91.3518 38.2134 91.3634L38.2755 86.2245L37.899 86.1935V86.1896Z" fill="#B6B8BA"/>
<path d="M38.5592 86.2439L38.501 91.3867C38.6252 91.3983 38.7533 91.41 38.8775 91.4216L38.9318 86.2749L38.5553 86.2439H38.5592Z" fill="#B6B8BA"/>
<path d="M39.2145 86.2944L39.1641 91.445C39.2883 91.4566 39.4164 91.4644 39.5406 91.4722L39.591 86.3216L39.2145 86.2905V86.2944Z" fill="#B6B8BA"/>
<path d="M39.8708 86.3487L39.8242 91.4954C39.9484 91.5032 40.0726 91.5148 40.2007 91.5226L40.2473 86.3759L39.8708 86.3448V86.3487Z" fill="#B6B8BA"/>
<path d="M40.5271 86.4031L40.4844 91.542C40.6086 91.5498 40.7367 91.5575 40.8609 91.5653L40.9036 86.4341L40.5271 86.4031Z" fill="#B6B8BA"/>
<path d="M41.1863 86.4535L41.1475 91.5808C41.2717 91.5885 41.3998 91.5924 41.524 91.6002L41.5628 86.4884L41.1863 86.4574V86.4535Z" fill="#B6B8BA"/>
<path d="M41.8426 86.5078L41.8076 91.6079C41.9318 91.6118 42.0599 91.6195 42.1841 91.6234L42.219 86.535L41.8426 86.5039V86.5078Z" fill="#B6B8BA"/>
<path d="M42.4988 86.5621L42.4717 91.6351C42.5959 91.6351 42.724 91.6389 42.8482 91.6428L42.8792 86.5893L42.5027 86.5582L42.4988 86.5621Z" fill="#B6B8BA"/>
<path d="M43.1581 86.6127L43.1348 91.6468C43.259 91.6468 43.3871 91.6546 43.5113 91.6546L43.5345 86.6437L43.1581 86.6127Z" fill="#B6B8BA"/>
<path d="M43.8143 86.667L43.7949 91.6584C43.9191 91.6584 44.0472 91.6584 44.1714 91.6584L44.1908 86.698L43.8143 86.667Z" fill="#B6B8BA"/>
<path d="M44.4706 86.7174L44.4551 91.6545C44.5793 91.6545 44.7074 91.6545 44.8316 91.6545L44.8471 86.7485L44.4706 86.7174Z" fill="#B6B8BA"/>
<path d="M45.1298 86.7717L45.1182 91.6467C45.2424 91.6467 45.3705 91.6428 45.4947 91.639L45.5063 86.8028L45.1298 86.7717Z" fill="#B6B8BA"/>
<path d="M45.7861 86.826L45.7783 91.6351C45.9025 91.6351 46.0306 91.6234 46.1548 91.6195L46.1626 86.8571L45.7861 86.826Z" fill="#B6B8BA"/>
<path d="M46.4463 86.8766V91.6041C46.5705 91.5963 46.6947 91.5924 46.8189 91.5886V86.9076L46.4463 86.8766Z" fill="#B6B8BA"/>
<path d="M47.1016 86.9037V91.5885C47.2296 91.5963 47.3539 91.6002 47.4819 91.6041V86.8727L47.1016 86.9037Z" fill="#B6B8BA"/>
<path d="M47.7617 86.8533L47.7695 91.6196C47.8937 91.6235 48.0218 91.6313 48.146 91.6352L48.1382 86.8223L47.7617 86.8533Z" fill="#B6B8BA"/>
<path d="M48.418 86.7989L48.4296 91.6389C48.5538 91.6389 48.6819 91.6428 48.8061 91.6467L48.7945 86.7678L48.418 86.7989Z" fill="#B6B8BA"/>
<path d="M49.0771 86.7485L49.0927 91.6584C49.2169 91.6584 49.345 91.6584 49.4692 91.6584L49.4536 86.7174L49.0771 86.7485Z" fill="#B6B8BA"/>
<path d="M49.7334 86.6941L49.7528 91.6584C49.877 91.6584 50.0051 91.6584 50.1293 91.6584L50.1099 86.6631L49.7334 86.6941Z" fill="#B6B8BA"/>
<path d="M50.3896 86.6398L50.4129 91.6545C50.5371 91.6545 50.6652 91.6507 50.7894 91.6468L50.7661 86.6088L50.3896 86.6398Z" fill="#B6B8BA"/>
<path d="M51.0488 86.5893L51.076 91.6428C51.2002 91.6428 51.3283 91.6428 51.4525 91.6351L51.4253 86.5582L51.0488 86.5893Z" fill="#B6B8BA"/>
<path d="M51.7051 86.535L51.74 91.6234C51.8642 91.6195 51.9923 91.6157 52.1165 91.6079L52.0816 86.5039L51.7051 86.535Z" fill="#B6B8BA"/>
<path d="M52.3613 86.4806L52.4001 91.5963C52.5243 91.5885 52.6524 91.5846 52.7766 91.5769L52.7378 86.4496L52.3613 86.4806Z" fill="#B6B8BA"/>
<path d="M53.0205 86.4302L53.0632 91.5614C53.1874 91.5536 53.3155 91.5458 53.4397 91.5381L53.397 86.3953L53.0205 86.4263V86.4302Z" fill="#B6B8BA"/>
<path d="M53.6768 86.3759L53.7233 91.5226C53.8475 91.5148 53.9756 91.5032 54.0998 91.4954L54.0533 86.3488L53.6768 86.3798V86.3759Z" fill="#B6B8BA"/>
<path d="M54.333 86.3215L54.3835 91.4721C54.5077 91.4604 54.6358 91.4526 54.76 91.4449L54.7095 86.2943L54.333 86.3254V86.3215Z" fill="#B6B8BA"/>
<path d="M54.9883 86.271L55.0465 91.4177C55.1707 91.4061 55.2988 91.3944 55.423 91.3828L55.3687 86.24L54.9922 86.271H54.9883Z" fill="#B6B8BA"/>
<path d="M55.6484 86.2167L55.7105 91.3557C55.8347 91.344 55.9628 91.3285 56.087 91.3168L56.0249 86.1857L55.6484 86.2167Z" fill="#B6B8BA"/>
<path d="M56.3047 86.1624L56.3707 91.2858C56.4949 91.2742 56.623 91.2586 56.7472 91.247L56.6812 86.1313L56.3047 86.1624Z" fill="#B6B8BA"/>
<path d="M56.96 86.1119L57.0298 91.2159C57.1579 91.2003 57.2821 91.1848 57.4063 91.1693L57.3364 86.0808L56.96 86.1119Z" fill="#B6B8BA"/>
<path d="M57.6162 86.0575L57.69 91.1344C57.8142 91.1188 57.9422 91.1033 58.0665 91.0878L57.9927 86.0265L57.6162 86.0575Z" fill="#B6B8BA"/>
<path d="M58.2725 86.0071L58.3501 91.049C58.4743 91.0335 58.6024 91.0141 58.7266 90.9986L58.649 85.9761L58.2725 86.0071Z" fill="#B6B8BA"/>
<path d="M58.9287 85.9528L59.0102 90.9598C59.1383 90.9404 59.2586 90.921 59.3867 90.9015L59.3052 85.9218L58.9287 85.9528Z" fill="#B6B8BA"/>
<path d="M59.584 85.8985L59.6694 90.8589C59.7936 90.8395 59.9217 90.8201 60.0459 90.8006L59.9605 85.8674L59.584 85.8985Z" fill="#B6B8BA"/>
<path d="M60.2402 85.8481L60.3295 90.758C60.4537 90.7386 60.5818 90.7192 60.706 90.6959L60.6206 85.817L60.2441 85.8481H60.2402Z" fill="#B6B8BA"/>
<path d="M60.8965 85.7936L60.9857 90.6453C61.1138 90.622 61.238 90.6026 61.3622 90.5793L61.2691 85.7626L60.8926 85.7936H60.8965Z" fill="#B6B8BA"/>
<path d="M61.5518 85.7393L61.6449 90.5289C61.773 90.5056 61.8972 90.4823 62.0214 90.4629L61.9283 85.7083L61.5518 85.7393Z" fill="#B6B8BA"/>
<path d="M62.208 85.6889L62.305 90.4125C62.4292 90.3892 62.5573 90.3659 62.6815 90.3426L62.5845 85.6578L62.208 85.6889Z" fill="#B6B8BA"/>
<path d="M62.8643 85.6346L62.9652 90.2844C63.0933 90.2612 63.2175 90.234 63.3417 90.2107L63.2446 85.6035L62.8681 85.6346H62.8643Z" fill="#B6B8BA"/>
<path d="M63.5205 85.584L63.6214 90.1563C63.7495 90.1291 63.8698 90.1058 63.9979 90.0787L63.897 85.553L63.5205 85.584Z" fill="#B6B8BA"/>
<path d="M64.1758 85.5297L64.2806 90.0165C64.4087 89.9894 64.5329 89.9622 64.6571 89.935L64.5523 85.4948L64.1758 85.5258V85.5297Z" fill="#B6B8BA"/>
<path d="M64.832 85.4754L64.9368 89.873C65.061 89.8458 65.1891 89.8186 65.3133 89.7915L65.2085 85.4443L64.832 85.4754Z" fill="#B6B8BA"/>
<path d="M65.4873 85.4249L65.596 89.7293C65.7202 89.7021 65.8483 89.6711 65.9725 89.6439L65.8677 85.3938L65.4912 85.4249H65.4873Z" fill="#B6B8BA"/>
<path d="M66.1436 85.3705L66.2522 89.574C66.3764 89.543 66.5045 89.5158 66.6248 89.4848L66.52 85.3395L66.1436 85.3705Z" fill="#B6B8BA"/>
<path d="M66.7959 85.3201L66.9046 89.4188C67.0326 89.3878 67.1568 89.3567 67.2772 89.3257L67.1685 85.2891L66.792 85.3201H66.7959Z" fill="#B6B8BA"/>
<path d="M67.4512 85.2658L67.5598 89.252C67.6879 89.2209 67.8121 89.186 67.9324 89.1549L67.8238 85.2347L67.4473 85.2658H67.4512Z" fill="#B6B8BA"/>
<path d="M68.1074 85.2115L68.2161 89.0812C68.3442 89.0463 68.4722 89.0152 68.5887 88.9803L68.48 85.1804L68.1035 85.2115H68.1074Z" fill="#B6B8BA"/>
<path d="M68.7636 85.1611L68.8723 88.9066C69.0004 88.8716 69.1285 88.8367 69.2449 88.8018L69.1363 85.13L68.7598 85.1611H68.7636Z" fill="#B6B8BA"/>
<path d="M69.416 85.1066L69.5247 88.724C69.6567 88.6852 69.7809 88.6503 69.8973 88.6154L69.7925 85.0756L69.416 85.1066Z" fill="#B6B8BA"/>
<path d="M70.0723 85.0562L70.1809 88.5339C70.3168 88.4912 70.4449 88.4563 70.5536 88.4213L70.4488 85.0251L70.0723 85.0562Z" fill="#B6B8BA"/>
</g>
<path d="M77.5704 15.7427C75.2726 13.2625 71.2787 12.168 70.6965 12.0166C70.6965 12.0127 70.6965 11.9972 70.6965 11.9972C67.1799 10.6232 52.6869 6.97083 52.6869 6.97083H41.9123C41.9123 6.97083 27.4192 10.6232 23.9027 11.9972C23.9027 11.9972 19.4392 13.0646 16.9551 15.7427L22.6956 43.3586C22.1833 59.0704 21.768 76.6336 22.1018 85.6577C22.1018 85.6577 30.6408 89.2208 47.2996 88.8599C63.9584 89.2208 72.4974 85.6577 72.4974 85.6577C72.8312 76.5715 72.412 58.8453 71.8919 43.0559L77.5704 15.7427Z" fill="white"/>
<path d="M49.6475 89.0733C48.8751 89.0733 48.0833 89.0656 47.2992 89.0462C46.523 89.0617 45.7312 89.0733 44.9588 89.0733C29.9767 89.0733 22.1092 85.8635 22.0315 85.8324C21.9656 85.8052 21.919 85.7393 21.9151 85.6655C21.6395 78.1357 21.8375 63.9066 22.509 43.3742L16.7723 15.7815C16.7607 15.7233 16.7762 15.6612 16.8189 15.6146C19.3146 12.9248 23.6772 11.8575 23.8636 11.8148C27.3257 10.4602 41.7256 6.82722 41.8692 6.7884C41.8847 6.78452 41.9003 6.78064 41.9158 6.78064H52.6905C52.6905 6.78064 52.7215 6.78064 52.737 6.7884C52.8806 6.82333 67.2805 10.4602 70.7699 11.8225C70.7893 11.8303 70.8048 11.8419 70.8203 11.8536C71.7285 12.0942 75.4741 13.2004 77.7136 15.6146C77.7563 15.6612 77.7718 15.7194 77.7602 15.7815L72.0895 43.0714C72.7688 63.7591 72.9706 78.0891 72.6911 85.6655C72.6911 85.7393 72.6446 85.8052 72.5747 85.8324C72.4971 85.8635 64.6295 89.0733 49.6513 89.0733H49.6475ZM47.2954 88.6697C48.0833 88.6852 48.8712 88.6969 49.6436 88.6969C63.5816 88.6969 71.3094 85.9139 72.3146 85.5258C72.5863 77.9261 72.3806 63.6388 71.7053 43.0598C71.7053 43.0442 71.7053 43.0287 71.7091 43.0171L77.3682 15.8009C75.0743 13.3906 71.0998 12.3155 70.6495 12.199C70.6146 12.1913 70.5835 12.1719 70.5603 12.1486C67.0476 10.8017 53.3115 7.32403 52.6633 7.16101H41.9352C41.2831 7.32403 27.3723 10.8444 23.9722 12.1757C23.9024 12.1951 19.5902 13.2509 17.1604 15.8009L22.8816 43.3198C22.8816 43.3198 22.8854 43.3509 22.8816 43.3625C22.214 63.7863 22.0121 77.9726 22.2838 85.5258C23.2852 85.91 31.0169 88.6969 44.9549 88.6969C45.7234 88.6969 46.5113 88.6891 47.2954 88.6697Z" fill="#DADBDC"/>
<path d="M31.2423 64.7605C31.2423 64.7605 27.8034 78.3569 22.7227 84.6719V80.0686C22.7227 80.0686 27.5394 71.6926 28.8513 63.5029L31.2423 64.7566V64.7605Z" fill="#F04A23"/>
<path d="M22.7224 84.8621C22.703 84.8621 22.6797 84.8621 22.6603 84.8504C22.5866 84.8233 22.5361 84.7534 22.5361 84.6719V80.0686C22.5361 80.0375 22.5439 80.0026 22.5594 79.9754C22.606 79.89 27.3762 71.5335 28.6648 63.4719C28.6726 63.4137 28.7114 63.3593 28.7657 63.3321C28.8201 63.305 28.8822 63.305 28.9365 63.3321L31.3274 64.5858C31.4051 64.6246 31.4439 64.7139 31.4206 64.7993C31.3856 64.9351 27.9157 78.5083 22.866 84.7844C22.8311 84.831 22.7768 84.8543 22.7186 84.8543L22.7224 84.8621ZM22.9126 80.1229V84.1285C27.4538 78.1085 30.6482 66.2975 31.0247 64.8614L28.9986 63.7979C27.6906 71.5412 23.2891 79.4631 22.9126 80.1268V80.1229Z" fill="#974535"/>
<path d="M63.1934 64.7605C63.1934 64.7605 66.6322 78.3569 71.713 84.6719V80.0686C71.713 80.0686 66.8962 71.6926 65.5843 63.5029L63.1934 64.7566V64.7605Z" fill="#F04A23"/>
<path d="M71.7133 84.8621C71.6589 84.8621 71.6046 84.8388 71.5658 84.7923C66.5161 78.5161 63.0462 64.943 63.0113 64.8071C62.988 64.7217 63.0307 64.6363 63.1044 64.5936L65.4953 63.34C65.5497 63.3128 65.6118 63.3128 65.6661 63.34C65.7204 63.3671 65.7593 63.4176 65.767 63.4797C67.0595 71.5413 71.8258 79.8979 71.8724 79.9833C71.8879 80.0104 71.8957 80.0454 71.8957 80.0764V84.6797C71.8957 84.7612 71.8452 84.8311 71.7715 84.8582C71.7521 84.866 71.7288 84.8699 71.7094 84.8699L71.7133 84.8621ZM63.4149 64.8576C63.7914 66.2976 66.9858 78.1047 71.527 84.1247V80.1191C71.1544 79.4554 66.7529 71.5335 65.441 63.7902L63.4149 64.8537V64.8576Z" fill="#974535"/>
<g style="mix-blend-mode:multiply" opacity="0.5">
<path d="M77.5704 15.7427C75.2726 13.2625 71.2787 12.168 70.6965 12.0166C70.6965 12.0127 70.6965 11.9972 70.6965 11.9972C67.1799 10.6232 52.6869 6.97083 52.6869 6.97083H41.9123C41.9123 6.97083 27.4192 10.6232 23.9027 11.9972C23.9027 11.9972 19.4392 13.0646 16.9551 15.7427L22.6956 43.3586C22.1833 59.0704 21.768 76.6336 22.1018 85.6577C22.1018 85.6577 30.6408 89.2208 47.2996 88.8599C63.9584 89.2208 72.4974 85.6577 72.4974 85.6577C72.8312 76.5715 72.412 58.8453 71.8919 43.0559L77.5704 15.7427ZM68.1037 63.5068C66.5201 82.9912 49.0811 90.1446 36.7384 84.2488C24.3918 78.353 24.318 43.5527 24.318 43.5527C24.318 43.5527 18.4843 19.1738 18.0108 17.1206C17.5412 15.0674 23.2817 13.6196 23.2817 13.6196L26.0103 13.2043C26.0103 13.2043 35.706 25.6674 47.8469 25.1007C59.9878 24.5379 68.1775 13.2043 68.1775 13.2043C72.6294 13.5614 75.8005 16.6315 75.8005 16.6315L69.7766 42.986C69.7766 42.986 69.6834 44.0223 68.0998 63.5068H68.1037Z" fill="#C3C5C6"/>
</g>
<path d="M67.8898 11.1473C67.8898 11.1473 65.0099 5.49991 63.4379 3.79987C62.3123 2.58113 53.816 0.60551 50.8778 0.34934C50.8778 0.34934 50.4353 0.298882 49.6824 0.252306C49.2127 0.217374 48.9294 0.201848 48.9294 0.201848V0.217374C48.4442 0.197967 47.8814 0.190204 47.2643 0.194086C46.651 0.194086 46.0843 0.201848 45.603 0.217374V0.201848C45.603 0.201848 45.3197 0.217374 44.8501 0.252306C44.0971 0.295001 43.6546 0.34934 43.6546 0.34934C40.7164 0.60551 32.2201 2.58113 31.0945 3.79987C29.5264 5.49991 26.6426 11.1473 26.6426 11.1473C26.6426 11.1473 31.995 20.5557 47.0624 23.6531C47.0624 23.6531 47.1905 23.7268 47.4661 23.6531C62.5336 20.5557 67.886 11.1473 67.886 11.1473H67.8898Z" fill="#F04A23"/>
<path d="M47.2452 23.8743C47.1326 23.8743 47.0511 23.851 47.0084 23.8316C32.0496 20.7459 26.5381 11.3336 26.4838 11.2404C26.4527 11.1861 26.4527 11.1201 26.4799 11.0619C26.5963 10.829 29.3909 5.37181 30.959 3.67177C32.1738 2.35599 40.9224 0.399781 43.6394 0.159136C43.651 0.159136 44.0896 0.108678 44.8387 0.0621018C45.3084 0.0271696 45.5917 0.0116441 45.5917 0.0116441C45.615 0.0116441 45.6422 0.0116441 45.6655 0.0232882C46.1041 0.00776273 46.5621 0 47.0317 0H47.2685H47.5014C47.971 0 48.429 0.00776273 48.8715 0.0232882C48.8948 0.0155255 48.9181 0.0116441 48.9413 0.0116441C48.9413 0.0116441 49.2247 0.0271696 49.6982 0.0621018C50.4434 0.104797 50.882 0.155255 50.9014 0.159136C53.6145 0.395899 62.3631 2.35599 63.578 3.66789C65.146 5.36793 67.9406 10.8251 68.0571 11.058C68.0842 11.1162 68.0842 11.1822 68.0532 11.2366C67.9988 11.3297 62.4834 20.7537 47.5091 23.8316C47.4237 23.8549 47.3306 23.8704 47.2452 23.8704V23.8743ZM47.1598 23.49C47.1598 23.49 47.1908 23.4978 47.2452 23.4978C47.2995 23.4978 47.3577 23.49 47.4237 23.4706C61.482 20.579 67.0906 12.0905 67.6767 11.1395C67.2963 10.3982 64.7269 5.46884 63.3024 3.92794C62.2234 2.75965 53.8008 0.791799 50.8665 0.535628C50.8587 0.535628 50.4124 0.485171 49.6749 0.438594C49.3372 0.415306 49.0966 0.399781 48.9879 0.392018C48.9685 0.399781 48.9491 0.403662 48.9258 0.403662C48.4717 0.388137 47.9904 0.376492 47.5052 0.376492H47.2724H47.0356C46.5504 0.376492 46.0691 0.384255 45.615 0.403662C45.5917 0.403662 45.5684 0.403662 45.549 0.395899C45.4403 0.403662 45.1997 0.419187 44.8698 0.442476C44.1323 0.485171 43.686 0.535628 43.6821 0.535628C40.74 0.791799 32.3175 2.75577 31.2384 3.92794C29.814 5.47272 27.2445 10.4021 26.8641 11.1395C27.4541 12.0866 33.0704 20.5829 47.1055 23.4667C47.1249 23.4706 47.1443 23.4784 47.1598 23.4861V23.49Z" fill="#974535"/>
<g style="mix-blend-mode:multiply" opacity="0.7">
<path d="M66.707 8.92706C65.6513 11.1433 63.73 12.9831 61.8592 14.4852C60.6676 15.44 59.4528 16.4259 58.1292 17.1944C57.1511 17.7649 56.0333 18.3665 54.865 18.254C54.7408 18.2423 54.6205 18.1298 54.667 17.99C54.9504 17.1439 55.5481 16.4763 56.1536 15.8398C56.9415 15.0092 57.6169 14.1436 58.2767 13.2082C58.661 12.6648 59.0413 12.1175 59.4101 11.5625C58.7231 12.3854 57.9972 13.1849 57.1356 13.8021C56.9493 13.934 56.7746 13.6856 56.8522 13.5187C57.7217 11.6401 59.0918 10.1186 59.771 8.13138C60.1126 7.12999 60.3649 6.10143 60.687 5.09227C60.9354 4.30435 61.1761 3.51644 61.1722 2.70135C58.1331 1.64562 53.0252 0.53943 50.8788 0.353124C50.8788 0.353124 50.4363 0.302667 49.6834 0.25609C49.2137 0.221158 48.9304 0.205632 48.9304 0.205632V0.221158C48.4452 0.201751 47.8824 0.193988 47.2653 0.19787C46.652 0.19787 46.0853 0.205632 45.604 0.221158V0.205632C45.604 0.205632 45.3207 0.221158 44.8511 0.25609C44.0981 0.298785 43.6556 0.353124 43.6556 0.353124C41.3268 0.554955 35.5125 1.83969 32.6364 2.96916C31.864 4.17239 32.9314 6.24116 33.4593 7.37451C34.0453 8.63984 34.6935 9.93233 35.5474 11.0424C36.347 12.0826 37.2319 13.0529 37.9112 14.1824C38.0237 14.3687 37.8064 14.5589 37.6278 14.4658C34.9031 13.0413 33.1643 10.4718 31.5574 7.91402C32.3259 9.76543 33.3739 11.4499 34.5926 13.084C35.462 14.2445 36.3548 15.4749 37.4299 16.4608C38.2838 17.2448 39.192 17.9668 39.9489 18.8478C40.0731 18.9914 39.9605 19.267 39.7471 19.1933C37.1194 18.3044 34.9652 16.6199 32.6403 15.1722C31.4798 14.4502 30.2727 13.6856 29.2247 12.8084C28.4212 12.1369 27.6838 11.384 26.8726 10.7203C26.729 10.9919 26.6475 11.155 26.6475 11.155C26.6475 11.155 31.9999 20.5634 47.0673 23.6607C47.0673 23.6607 47.1954 23.7345 47.471 23.6607C62.5384 20.5634 67.8908 11.155 67.8908 11.155C67.8908 11.155 67.3979 10.1885 66.707 8.93094V8.92706Z" fill="#A7A9AB"/>
</g>
<path d="M60.3763 3.5553C58.8781 2.20847 51.7519 1.15274 47.9365 0.667567C47.4824 0.609346 45.9725 0.609346 45.5184 0.667567C41.703 1.14886 34.5769 2.20847 33.0786 3.5553C31.072 5.35626 42.9257 20.4625 46.5664 22.7719C46.6246 22.8069 46.6789 22.8418 46.7294 22.869C46.7799 22.8379 46.8381 22.8069 46.8924 22.7719C50.5331 20.4586 62.3868 5.35626 60.3802 3.5553H60.3763Z" fill="url(#paint0_linear_152_25862)"/>
<path d="M46.7256 23.0592C46.6945 23.0592 46.6635 23.0514 46.6324 23.0359C46.5781 23.0048 46.5199 22.9699 46.4617 22.9311C43.1547 20.8313 32.9739 8.06546 32.6673 4.3704C32.6324 3.93568 32.7255 3.61353 32.9506 3.4117C34.4721 2.04546 41.4625 0.989728 45.4952 0.477387C45.7553 0.446336 46.3025 0.434692 46.7256 0.434692C47.1487 0.434692 47.6959 0.446336 47.956 0.477387C51.9887 0.985846 58.9752 2.04546 60.5006 3.4117C60.7257 3.61353 60.8188 3.93568 60.7839 4.3704C60.4773 8.06546 50.2965 20.8313 46.9895 22.9311C46.9313 22.9699 46.8731 23.0048 46.8187 23.0359C46.7916 23.0514 46.7566 23.0592 46.7256 23.0592ZM46.7256 0.815066C46.1977 0.815066 45.7436 0.830592 45.5418 0.857761C38.7572 1.71554 34.2587 2.74799 33.2029 3.69504C33.071 3.81148 33.0166 4.02884 33.0438 4.34323C33.1719 5.90354 35.3532 9.618 38.73 14.0311C41.8428 18.0988 45.1071 21.6269 46.6635 22.6167C46.6829 22.6283 46.7062 22.6439 46.7256 22.6555C46.745 22.6439 46.7683 22.6322 46.7877 22.6167C48.3441 21.6269 51.6084 18.0949 54.7212 14.0311C58.098 9.618 60.2793 5.90742 60.4074 4.34323C60.4346 4.03272 60.3802 3.81536 60.2483 3.69504C59.1925 2.74799 54.694 1.71166 47.9094 0.857761C47.7076 0.830592 47.2535 0.815066 46.7256 0.815066Z" fill="#DADBDC"/>
<path d="M48.2462 8.37986C51.0835 8.54676 53.9324 8.69425 56.7386 9.16002C57.2277 9.24153 57.7129 9.3308 58.198 9.43172C60.0261 6.56727 61.0935 4.20352 60.3755 3.55921C58.8773 2.21237 51.7511 1.15664 47.9357 0.671473C47.4816 0.613252 45.9717 0.613252 45.5176 0.671473C41.7022 1.15276 34.576 2.21237 33.0778 3.55921C32.3986 4.16858 33.3068 6.29557 34.9409 8.9349C39.3229 8.13922 43.771 8.11981 48.2501 8.38375L48.2462 8.37986Z" fill="#4C4E50"/>
<path d="M58.1983 9.61805C58.1983 9.61805 58.175 9.61805 58.1595 9.61805C57.6782 9.52102 57.193 9.43175 56.7079 9.35024C54.0841 8.91553 51.3788 8.75639 48.7588 8.60113L48.2349 8.57008C46.5038 8.46917 44.9473 8.41871 43.4763 8.41871C40.344 8.41871 37.565 8.64771 34.9684 9.11736C34.8907 9.13288 34.817 9.09795 34.7743 9.03197C32.8297 5.89582 32.232 4.05994 32.9462 3.41951C34.4677 2.05327 41.458 0.99754 45.4907 0.4852C45.7508 0.454149 46.2981 0.442505 46.7211 0.442505C47.1442 0.442505 47.6915 0.454149 47.9515 0.4852C51.9843 0.993659 58.9707 2.05327 60.4961 3.41951C61.2374 4.08711 60.5155 6.14423 58.3536 9.53654C58.3186 9.59088 58.2565 9.62193 58.1944 9.62193L58.1983 9.61805ZM43.4802 8.03834C44.9551 8.03834 46.5193 8.08879 48.2581 8.18971L48.7821 8.22076C51.4098 8.37602 54.1307 8.53515 56.77 8.97375C57.2163 9.04749 57.6627 9.13288 58.109 9.21827C60.8998 4.8168 60.4534 3.87751 60.2516 3.69509C59.1958 2.74804 54.6973 1.71171 47.9127 0.857811C47.7109 0.830641 47.2568 0.815116 46.7289 0.815116C46.201 0.815116 45.7469 0.830641 45.5451 0.857811C38.7604 1.71559 34.2619 2.74804 33.2062 3.69509C32.9617 3.91633 32.6512 4.84785 35.0343 8.72146C37.6154 8.26346 40.379 8.03834 43.4802 8.03834Z" fill="#404143"/>
<path style="mix-blend-mode:multiply" d="M60.3765 3.55532C60.3765 3.55532 60.3648 3.54756 60.3571 3.53979C59.9068 4.58388 59.2974 5.55034 58.5716 6.31109C57.8497 7.06796 56.9686 7.71226 55.9012 7.84811C54.0304 8.08487 52.0626 7.72003 50.1801 7.66569C45.9882 7.5376 41.8119 7.7666 37.6239 7.72779C36.4129 7.71614 34.938 7.59194 34.2083 6.47023C33.7969 5.84144 33.4864 5.15056 33.0943 4.50626C33.0128 4.37041 32.9313 4.23456 32.8576 4.10259C32.648 7.35518 43.1704 20.6178 46.5627 22.772C46.6209 22.8069 46.6752 22.8418 46.7257 22.869C46.7762 22.8379 46.8344 22.8069 46.8887 22.772C50.5294 20.4587 62.3831 5.35627 60.3765 3.55532ZM51.5968 13.0181C48.7401 14.1747 45.3789 14.4425 42.4523 13.3596C40.8027 12.7503 37.9693 11.908 37.5851 9.913C37.5618 9.79656 37.6161 9.69952 37.7287 9.65683C40.2244 8.74083 42.9064 8.94266 45.5147 8.86115C46.8033 8.81845 48.1075 8.81845 49.3961 8.91937C51.2203 8.8495 53.0329 8.94266 54.7019 9.69176C56.7047 10.5922 52.2217 12.7658 51.5929 13.0181H51.5968Z" fill="url(#paint1_linear_152_25862)"/>
<g style="mix-blend-mode:multiply" opacity="0.5">
<path d="M31.2891 7.05237C31.2891 7.05237 35.9583 17.5049 44.8234 22.2246C44.8234 22.2246 35.7604 16.2046 31.2891 7.05237Z" fill="#A7A9AB"/>
</g>
<g style="mix-blend-mode:multiply" opacity="0.5">
<path d="M27.6641 11.5703C27.6641 11.5703 33.9325 19.1778 44.8236 22.6749C44.8236 22.6749 35.4307 19.1351 27.6641 11.5703Z" fill="#A7A9AB"/>
</g>
<g style="mix-blend-mode:multiply" opacity="0.5">
<path d="M61.9904 7.05237C61.9904 7.05237 57.3211 17.5049 48.4561 22.2246C48.4561 22.2246 57.519 16.2046 61.9904 7.05237Z" fill="#A7A9AB"/>
</g>
<g style="mix-blend-mode:multiply" opacity="0.5">
<path d="M65.6156 11.5703C65.6156 11.5703 59.3472 19.1778 48.4561 22.6749C48.4561 22.6749 57.849 19.1351 65.6156 11.5703Z" fill="#A7A9AB"/>
</g>
<path d="M43.648 21.9645C43.648 22.6127 43.1201 23.1406 42.472 23.1406C41.8238 23.1406 41.2959 22.6127 41.2959 21.9645C41.2959 21.3163 41.8238 20.7885 42.472 20.7885C43.1201 20.7885 43.648 21.3163 43.648 21.9645Z" fill="url(#paint2_linear_152_25862)"/>
<path d="M42.4717 23.327C41.7187 23.327 41.1055 22.7137 41.1055 21.9607C41.1055 21.2077 41.7187 20.5945 42.4717 20.5945C43.2247 20.5945 43.838 21.2077 43.838 21.9607C43.838 22.7137 43.2247 23.327 42.4717 23.327ZM42.4717 20.9749C41.9283 20.9749 41.482 21.4173 41.482 21.9646C41.482 22.5119 41.9244 22.9544 42.4717 22.9544C43.019 22.9544 43.4615 22.5119 43.4615 21.9646C43.4615 21.4173 43.019 20.9749 42.4717 20.9749Z" fill="#DADBDC"/>
<path d="M39.5967 50.5159L39.7519 53.3376H40.3186L40.1284 50.5159H39.5967Z" fill="url(#paint3_linear_152_25862)"/>
<path d="M40.3184 53.5278H39.7556C39.6547 53.5278 39.5732 53.4502 39.5693 53.3493L39.4102 50.5275C39.4102 50.4771 39.4257 50.4266 39.4606 50.3878C39.4955 50.349 39.546 50.3296 39.5965 50.3296H40.1321C40.233 50.3296 40.3145 50.4072 40.3184 50.5043L40.5086 53.326C40.5086 53.3765 40.4931 53.4308 40.4581 53.4657C40.4232 53.5045 40.3727 53.524 40.3223 53.524L40.3184 53.5278ZM39.9303 53.1513H40.1166L39.9535 50.7022H39.7944L39.9303 53.1513Z" fill="#DADBDC"/>
<path d="M42.3478 21.7705C42.0606 21.852 41.8432 22.1004 41.7152 22.4032C41.2533 24.895 39.2156 36.5779 39.1962 48.2026C39.1962 48.2026 39.0487 50.5819 39.6115 50.8963C40.1743 51.2107 40.4925 50.8963 40.4925 50.8963C40.4925 50.8963 40.6361 31.9086 42.9378 22.6205C42.9378 22.6205 43.1629 21.7006 42.3478 21.7705Z" fill="url(#paint4_linear_152_25862)"/>
<path d="M40.0894 51.2262C39.907 51.2262 39.7129 51.1719 39.5188 51.0632C38.8978 50.7177 38.9677 48.7809 39.0065 48.1948C39.0259 36.4964 41.1102 24.6311 41.5294 22.3721C41.5294 22.3566 41.5371 22.345 41.541 22.3333C41.704 21.9491 41.9718 21.6851 42.294 21.592C42.3639 21.5842 42.3988 21.5803 42.4298 21.5803C42.7365 21.5803 42.9073 21.7123 42.9926 21.8248C43.2372 22.1392 43.1324 22.6128 43.1168 22.6671C40.8463 31.8271 40.6794 50.71 40.6755 50.9002C40.6755 50.9506 40.6561 50.9972 40.6211 51.0321C40.6017 51.0515 40.4154 51.2262 40.0855 51.2262H40.0894ZM41.8942 22.4614C41.4673 24.7669 39.3985 36.5663 39.383 48.2065C39.317 49.3049 39.4179 50.578 39.7012 50.7333C39.9497 50.873 40.2019 50.8536 40.3029 50.7992C40.3184 49.3166 40.5551 31.439 42.752 22.5778C42.7753 22.4808 42.8102 22.2013 42.6938 22.0577C42.6705 22.0306 42.589 21.9413 42.36 21.9607C42.1193 22.0344 41.9641 22.2984 41.8942 22.4614Z" fill="#DADBDC"/>
<path d="M49.6328 21.9646C49.6328 22.6128 50.1607 23.1407 50.8089 23.1407C51.4571 23.1407 51.9849 22.6128 51.9849 21.9646C51.9849 21.3164 51.4571 20.7886 50.8089 20.7886C50.1607 20.7886 49.6328 21.3164 49.6328 21.9646Z" fill="url(#paint5_linear_152_25862)"/>
<path d="M50.8086 23.3271C50.0556 23.3271 49.4424 22.7138 49.4424 21.9608C49.4424 21.2079 50.0556 20.5946 50.8086 20.5946C51.5616 20.5946 52.1749 21.2079 52.1749 21.9608C52.1749 22.7138 51.5616 23.3271 50.8086 23.3271ZM50.8086 20.975C50.2652 20.975 49.8189 21.4175 49.8189 21.9647C49.8189 22.512 50.2614 22.9545 50.8086 22.9545C51.3559 22.9545 51.7984 22.512 51.7984 21.9647C51.7984 21.4175 51.3559 20.975 50.8086 20.975Z" fill="#DADBDC"/>
<path d="M53.6848 50.516L53.5257 53.3377H52.9629L53.1531 50.516H53.6848Z" fill="url(#paint6_linear_152_25862)"/>
<path d="M53.526 53.528H52.9632C52.9127 53.528 52.8622 53.5047 52.8273 53.4698C52.7924 53.4309 52.773 53.3805 52.7769 53.33L52.967 50.5083C52.9748 50.4112 53.0563 50.3336 53.1533 50.3336H53.6851C53.7356 50.3336 53.786 50.3569 53.8209 50.3918C53.8559 50.4307 53.8753 50.4811 53.8714 50.5316L53.7162 53.3533C53.7123 53.4542 53.6269 53.5319 53.5298 53.5319L53.526 53.528ZM53.1611 53.1515H53.3474L53.4833 50.7023H53.3241L53.1611 53.1515Z" fill="#DADBDC"/>
<path d="M50.9339 21.7706C51.225 21.8521 51.4385 22.1005 51.5665 22.4033C52.0284 24.8951 54.0661 36.578 54.0855 48.2027C54.0855 48.2027 54.233 50.582 53.6664 50.8964C53.1036 51.2108 52.7853 50.8964 52.7853 50.8964C52.7853 50.8964 52.6417 31.9088 50.34 22.6207C50.34 22.6207 50.1149 21.7008 50.93 21.7706H50.9339Z" fill="url(#paint7_linear_152_25862)"/>
<path d="M53.1884 51.2263C52.8585 51.2263 52.6761 51.0517 52.6528 51.0322C52.6179 50.9973 52.5985 50.9507 52.5985 50.9003C52.5985 50.7101 52.4316 31.8273 50.1571 22.6672C50.1455 22.6129 50.0368 22.1355 50.2813 21.825C50.3783 21.7008 50.5685 21.5494 50.945 21.5843C51.306 21.6814 51.5738 21.9453 51.7368 22.3296C51.7407 22.3412 51.7446 22.3567 51.7485 22.3684C52.1676 24.6234 54.2519 36.4771 54.2713 48.2027C54.3063 48.7772 54.3761 50.714 53.7551 51.0594C53.5611 51.1681 53.367 51.2224 53.1846 51.2224L53.1884 51.2263ZM52.975 50.7994C53.0759 50.8498 53.3282 50.8731 53.5766 50.7334C53.8599 50.5742 53.9647 49.305 53.8987 48.2183C53.8793 36.547 51.8106 24.7632 51.3836 22.4615C51.3137 22.2985 51.1546 22.0346 50.879 21.9531C50.8907 21.9569 50.8674 21.9531 50.848 21.9531C50.6578 21.9531 50.5996 22.0268 50.5802 22.054C50.4676 22.1976 50.5025 22.477 50.5258 22.5741C52.7227 31.4352 52.9594 49.3128 52.975 50.7955V50.7994Z" fill="#DADBDC"/>
<path d="M35.8379 8.85338C35.8379 8.85338 45.4171 7.15334 57.0379 9.22987C57.0379 9.22987 44.8737 8.41478 35.8379 8.85338Z" fill="#DADBDC"/>
<defs>
<linearGradient id="paint0_linear_152_25862" x1="46.7255" y1="28.2408" x2="46.7255" y2="-7.1495" gradientUnits="userSpaceOnUse">
<stop stop-color="#EAEBEC"/>
<stop offset="0.07" stop-color="#EFF0F1"/>
<stop offset="0.29" stop-color="#FBFBFB"/>
<stop offset="0.51" stop-color="white"/>
<stop offset="0.71" stop-color="#FCFCFC"/>
<stop offset="0.85" stop-color="#F2F3F3"/>
<stop offset="0.98" stop-color="#E3E4E5"/>
<stop offset="1" stop-color="#E0E1E2"/>
</linearGradient>
<linearGradient id="paint1_linear_152_25862" x1="46.7296" y1="7.31636" x2="46.7296" y2="22.8496" gradientUnits="userSpaceOnUse">
<stop stop-color="white"/>
<stop offset="0.29" stop-color="#EFEFF0"/>
<stop offset="0.64" stop-color="#E3E4E5"/>
<stop offset="1" stop-color="#E0E1E2"/>
</linearGradient>
<linearGradient id="paint2_linear_152_25862" x1="41.292" y1="21.9645" x2="43.648" y2="21.9645" gradientUnits="userSpaceOnUse">
<stop stop-color="#EAEBEC"/>
<stop offset="0.07" stop-color="#EFF0F1"/>
<stop offset="0.29" stop-color="#FBFBFB"/>
<stop offset="0.51" stop-color="white"/>
</linearGradient>
<linearGradient id="paint3_linear_152_25862" x1="39.5967" y1="51.9248" x2="40.3186" y2="51.9248" gradientUnits="userSpaceOnUse">
<stop stop-color="#EAEBEC"/>
<stop offset="0.07" stop-color="#EFF0F1"/>
<stop offset="0.29" stop-color="#FBFBFB"/>
<stop offset="0.51" stop-color="white"/>
</linearGradient>
<linearGradient id="paint4_linear_152_25862" x1="39.1767" y1="36.4033" x2="42.965" y2="36.4033" gradientUnits="userSpaceOnUse">
<stop stop-color="#EAEBEC"/>
<stop offset="0.07" stop-color="#EFF0F1"/>
<stop offset="0.29" stop-color="#FBFBFB"/>
<stop offset="0.51" stop-color="white"/>
</linearGradient>
<linearGradient id="paint5_linear_152_25862" x1="49.6328" y1="0.00385953" x2="51.9849" y2="0.00385953" gradientUnits="userSpaceOnUse">
<stop stop-color="#EAEBEC"/>
<stop offset="0.07" stop-color="#EFF0F1"/>
<stop offset="0.29" stop-color="#FBFBFB"/>
<stop offset="0.51" stop-color="white"/>
</linearGradient>
<linearGradient id="paint6_linear_152_25862" x1="52.9629" y1="51.9249" x2="53.6848" y2="51.9249" gradientUnits="userSpaceOnUse">
<stop stop-color="#EAEBEC"/>
<stop offset="0.07" stop-color="#EFF0F1"/>
<stop offset="0.29" stop-color="#FBFBFB"/>
<stop offset="0.51" stop-color="white"/>
</linearGradient>
<linearGradient id="paint7_linear_152_25862" x1="50.3167" y1="36.4034" x2="54.105" y2="36.4034" gradientUnits="userSpaceOnUse">
<stop stop-color="#EAEBEC"/>
<stop offset="0.07" stop-color="#EFF0F1"/>
<stop offset="0.29" stop-color="#FBFBFB"/>
<stop offset="0.51" stop-color="white"/>
</linearGradient>
</defs>
</svg>
