<svg width="79" height="92" viewBox="0 0 79 92" fill="none" xmlns="http://www.w3.org/2000/svg">
<g clip-path="url(#clip0_156_29037)">
<path d="M51.5585 2.97998C49.8096 7.44683 45.0441 10.6583 39.4438 10.6583C33.8435 10.6583 29.0781 7.44683 27.3291 2.97998C31.1805 3.68078 36.86 4.62534 39.4438 4.62534C42.0277 4.62534 47.7072 3.68078 51.5585 2.97998Z" fill="#536580"/>
<path d="M3.29492 83.5294C3.29492 83.5294 3.65446 90.4277 5.38514 90.9762C6.1225 91.2138 8.19444 90.4521 10.1262 90.2205C13.1793 89.861 14.721 88.6727 15.2146 87.7586C15.8058 86.6739 14.069 82.658 13.813 81.5732L3.29492 83.5294Z" fill="white"/>
<path d="M76.3424 83.5294C76.3424 83.5294 75.9829 90.4277 74.2522 90.9762C73.5148 91.2138 71.4429 90.4521 69.5111 90.2205C66.4581 89.861 64.9163 88.6727 64.4227 87.7586C63.8316 86.6739 65.5684 82.658 65.8243 81.5732L76.3424 83.5294Z" fill="white"/>
<path d="M61.8699 84.0231C61.748 86.9664 61.5469 88.9287 61.2239 89.5076C60.9314 90.0317 50.4315 91.9939 39.8159 92C28.9505 92.0061 17.9631 90.05 17.6645 89.5076C17.3354 88.9165 17.1343 86.8994 17.0186 83.8707C31.8146 87.0883 46.7691 87.0761 61.8699 84.0231Z" fill="white"/>
<path d="M78.5303 54.8575C78.5303 58.1665 77.5857 68.7395 76.9885 76.3691C76.6717 80.4032 77.0434 83.7244 76.4218 84.4679C75.4163 85.6745 73.1128 83.9316 70.9312 83.9986C66.3973 84.1388 64.5265 83.3893 64.1121 82.4203C63.6185 81.2564 65.5685 76.9175 65.2455 69.7754C64.9165 62.4932 65.0566 55.6924 63.9719 46.4357C62.9055 37.3192 61.7293 27.7883 61.7293 27.7883C61.4429 44.7355 62.3326 72.2313 61.8695 84.023C46.7688 87.0761 31.8143 87.0883 17.0182 83.8707C16.5612 71.9997 17.4448 44.6624 17.1584 27.7883C17.1584 27.7883 15.9822 37.3192 14.9158 46.4357C13.8311 55.6924 13.9713 62.4932 13.6422 69.7754C13.3192 76.9175 15.2693 81.2564 14.7757 82.4203C14.3613 83.3893 12.4904 84.1388 7.95655 83.9986C5.77492 83.9316 3.47142 85.6745 2.46592 84.4679C1.84434 83.7244 2.21607 80.4032 1.89919 76.3691C1.30198 68.7395 0.357422 58.1665 0.357422 54.8575C0.357422 49.7995 1.75293 21.7919 7.45075 14.4426C13.0572 7.203 23.106 2.3888 23.4229 2.24254C23.4229 2.24254 25.0561 2.56552 27.323 2.97991C29.072 7.44676 33.8374 10.6583 39.4378 10.6583C45.0381 10.6583 49.8035 7.44676 51.5525 2.97991C53.8194 2.56552 55.4526 2.23645 55.4526 2.23645L55.4709 2.24864C56.0011 2.52896 65.9768 7.3005 71.4309 14.4426C77.0739 21.8345 78.5242 49.7995 78.5242 54.8575H78.5303Z" fill="#7D99C0"/>
<mask id="mask0_156_29037" style="mask-type:luminance" maskUnits="userSpaceOnUse" x="0" y="2" width="79" height="85">
<path d="M78.5303 54.8575C78.5303 58.1665 77.5857 68.7395 76.9885 76.3691C76.6717 80.4032 77.0434 83.7244 76.4218 84.4679C75.4163 85.6745 73.1128 83.9316 70.9312 83.9986C66.3973 84.1388 64.5265 83.3893 64.1121 82.4203C63.6185 81.2564 65.5685 76.9175 65.2455 69.7754C64.9165 62.4932 65.0566 55.6924 63.9719 46.4357C62.9055 37.3192 61.7293 27.7883 61.7293 27.7883C61.4429 44.7355 62.3326 72.2313 61.8695 84.023C46.7688 87.0761 31.8143 87.0883 17.0182 83.8707C16.5612 71.9997 17.4448 44.6624 17.1584 27.7883C17.1584 27.7883 15.9822 37.3192 14.9158 46.4357C13.8311 55.6924 13.9713 62.4932 13.6422 69.7754C13.3192 76.9175 15.2693 81.2564 14.7757 82.4203C14.3613 83.3893 12.4904 84.1388 7.95655 83.9986C5.77492 83.9316 3.47142 85.6745 2.46592 84.4679C1.84434 83.7244 2.21607 80.4032 1.89919 76.3691C1.30198 68.7395 0.357422 58.1665 0.357422 54.8575C0.357422 49.7995 1.75293 21.7919 7.45075 14.4426C13.0572 7.203 23.106 2.3888 23.4229 2.24254C23.4229 2.24254 25.0561 2.56552 27.323 2.97991C29.072 7.44676 33.8374 10.6583 39.4378 10.6583C45.0381 10.6583 49.8035 7.44676 51.5525 2.97991C53.8194 2.56552 55.4526 2.23645 55.4526 2.23645L55.4709 2.24864C56.0011 2.52896 65.9768 7.3005 71.4309 14.4426C77.0739 21.8345 78.5242 49.7995 78.5242 54.8575H78.5303Z" fill="white"/>
</mask>
<g mask="url(#mask0_156_29037)">
<g style="mix-blend-mode:multiply" opacity="0.3">
<path d="M17.1588 27.7883C16.2569 24.9425 13.7462 21.9747 12.9723 22.2307C12.1983 22.4866 16.3666 27.3252 15.6109 31.012C15.6109 31.012 14.9711 36.7159 16.5738 40.616L17.1649 27.7944L17.1588 27.7883Z" fill="#7D99C0"/>
</g>
<g style="mix-blend-mode:multiply" opacity="0.3">
<path d="M15.6048 47.8313C14.1605 49.7387 8.15799 51.6888 8.40175 52.1092C8.6516 52.5297 12.6675 51.5852 12.6675 51.5852C12.6675 51.5852 12.308 52.3774 11.8022 53.0416C11.1684 53.8765 10.3823 54.6382 10.6626 54.8942C11.1623 55.3512 14.8735 52.9929 15.5987 52.03V47.8313H15.6048Z" fill="#7D99C0"/>
</g>
<g style="mix-blend-mode:multiply" opacity="0.3">
<path d="M14.6115 60.9027C14.6115 60.9027 11.5645 67.4537 10.5651 68.0631C9.5718 68.6725 5.24512 69.4037 5.24512 69.4037C5.24512 69.4037 10.2665 70.1228 11.4548 69.4037C12.6431 68.6846 14.6054 60.8966 14.6054 60.8966L14.6115 60.9027Z" fill="#7D99C0"/>
</g>
<g style="mix-blend-mode:multiply" opacity="0.3">
<path d="M61.7239 27.7883C62.6258 24.9425 65.1365 21.9747 65.9104 22.2307C66.6843 22.4866 62.5161 27.3252 63.2717 31.012C63.2717 31.012 63.9116 36.7159 62.3089 40.616L61.7178 27.7944L61.7239 27.7883Z" fill="#7D99C0"/>
</g>
<g style="mix-blend-mode:multiply" opacity="0.3">
<path d="M63.2773 47.8313C64.7216 49.7387 70.7241 51.6888 70.4804 52.1092C70.2305 52.5297 66.2146 51.5852 66.2146 51.5852C66.2146 51.5852 66.5742 52.3774 67.08 53.0416C67.7137 53.8765 68.4998 54.6382 68.2195 54.8942C67.7198 55.3512 64.0086 52.9929 63.2834 52.03V47.8313H63.2773Z" fill="#7D99C0"/>
</g>
<g style="mix-blend-mode:multiply" opacity="0.3">
<path d="M64.2715 60.9027C64.2715 60.9027 67.3184 67.4537 68.3179 68.0631C69.3173 68.6725 73.6379 69.4037 73.6379 69.4037C73.6379 69.4037 68.6165 70.1228 67.4281 69.4037C66.2398 68.6846 64.2776 60.8966 64.2776 60.8966L64.2715 60.9027Z" fill="#7D99C0"/>
</g>
<g style="mix-blend-mode:multiply" opacity="0.3">
<path d="M31.2842 63.9131C31.2842 63.9131 43.3867 57.6668 45.9401 54.9489C48.4873 52.231 54.3741 37.6056 54.3741 37.6056C54.3741 37.6056 47.4453 50.7746 45.1357 53.4681C42.8261 56.1616 31.2842 63.907 31.2842 63.907V63.9131Z" fill="#7D99C0"/>
</g>
<g style="mix-blend-mode:multiply" opacity="0.3">
<path d="M25.4521 20.8534C25.4521 20.8534 29.7423 25.0887 31.0342 25.9662C32.3261 26.8437 39.4438 29.9212 39.4438 29.9212C39.4438 29.9212 31.6436 27.2825 30.5589 26.6548C29.4741 26.0271 25.4521 20.8534 25.4521 20.8534Z" fill="#7D99C0"/>
</g>
<g style="mix-blend-mode:multiply" opacity="0.3">
<path d="M50.0598 63.9131C50.0598 63.9131 44.7276 69.6292 42.8263 70.72C40.925 71.8108 32.3386 73.2185 32.4483 73.2185C32.558 73.2185 42.3205 72.4324 43.6185 71.6463C44.9165 70.8602 50.0658 63.9131 50.0658 63.9131H50.0598Z" fill="#7D99C0"/>
</g>
</g>
<path d="M55.4584 2.23647C54.1482 2.99821 52.643 3.66854 50.9854 4.217C47.646 5.33828 43.6849 5.98423 39.4435 5.98423C35.2022 5.98423 31.2411 5.33828 27.9017 4.217C26.2441 3.66854 24.7389 2.99821 23.4287 2.23647L26.6463 0C26.7865 0.0548453 32.6001 2.63867 39.4435 2.63867C46.287 2.63867 52.1006 0.0548453 52.2408 0L55.4584 2.23647Z" fill="#CCCCCC"/>
<path d="M39.4375 14.467C26.5976 14.467 23.2825 2.72398 23.3617 2.28522L26.6464 0C27.1034 5.95377 32.6611 10.6583 39.4436 10.6583C46.2261 10.6583 51.7838 5.95377 52.2408 0L55.5194 2.27913C55.5986 2.72398 52.2835 14.467 39.4436 14.467H39.4375Z" fill="white"/>
</g>
<defs>
<clipPath id="clip0_156_29037">
<rect width="78.1729" height="92" fill="white" transform="translate(0.357422)"/>
</clipPath>
</defs>
</svg>
