<svg width="78" height="92" viewBox="0 0 78 92" fill="none" xmlns="http://www.w3.org/2000/svg">
<g clip-path="url(#clip0_152_26263)">
<path d="M28.0231 0H49.0443C49.0443 0 50.2127 7.80941 38.5188 8.04947C38.5188 8.04947 26.9466 8.40956 28.0206 0H28.0231Z" fill="#192E5C"/>
<path d="M61.9436 89.9395C61.1058 68.1917 61.1058 58.8719 61.1058 58.8719C60.4123 43.4906 61.0636 36.4989 61.0636 36.4989C61.7795 23.7633 66.9603 6.24903 66.9603 6.24903L49.044 0C49.044 0 48.328 6.24653 38.5334 6.24653C29.4571 6.24653 28.0227 0 28.0227 0L10.1064 6.24653C10.1064 6.24653 15.2872 23.7608 16.0031 36.4964C16.0031 36.4964 17.435 40.6074 16.0031 58.3893C16.0031 58.3893 14.6433 74.9683 14.882 89.937C14.882 89.937 34.2302 94.5731 61.9411 89.937L61.9436 89.9395Z" fill="#314F8C"/>
<path d="M10.1064 6.24658C10.1064 6.24658 2.46456 11.7754 1.86793 24.7486L0.0556641 44.9686C0.0556641 44.9686 6.70311 49.2346 14.8247 47.7567L16.0056 36.4965C16.0056 36.4965 15.8415 16.5766 10.1089 6.24658H10.1064Z" fill="#2F4882"/>
<path d="M67.0022 6.24658C67.0022 6.24658 74.6465 11.7729 75.2431 24.7486L77.0554 44.9686C77.0554 44.9686 70.4079 49.2346 62.2863 47.7567L61.1055 36.4965C61.1055 36.4965 61.2695 16.5766 67.0022 6.24658Z" fill="#2F4882"/>
<path d="M49.0443 0C49.0443 0 48.3284 6.24653 38.5337 6.24653C29.4575 6.24653 28.0231 0 28.0231 0L25.2637 0.962735C25.2637 0.962735 27.3046 9.28227 38.5337 9.10223C38.5337 9.10223 49.5813 9.47482 51.7764 0.952733L49.0443 0Z" fill="#2F4882"/>
</g>
<defs>
<clipPath id="clip0_152_26263">
<rect width="77" height="92" fill="white" transform="translate(0.0556641)"/>
</clipPath>
</defs>
</svg>
